<svg id="illustrations" xmlns="http://www.w3.org/2000/svg" viewBox="0 0 300 300"><polygon points="216.92 56.2 118.89 175.98 71.07 118.35 48.68 136.93 119.05 221.72 239.43 74.63 216.92 56.2" style="fill:#fff;opacity:0.30000001192092896;isolation:isolate"/><path d="M286.47,122.72A133.614,133.614,0,0,0,244.9,43.66,134.2,134.2,0,0,1,122.11,266.71L85.19,292.14l7.36,7.36,36.92-25.43a134.189,134.189,0,0,0,157-151.35Z" style="fill:#fff;opacity:0.30000001192092896;isolation:isolate"/><path d="M279.11,115.36A134.19,134.19,0,1,0,79.18,250.87l.44,3.07,5.57,38.2,36.92-25.43a134.189,134.189,0,0,0,157-151.35ZM119.05,221.72,48.68,136.93l22.39-18.58L118.89,176l98-119.77L239.4,74.65Z" style="fill:#fff"/></svg>