<svg style="fill-rule:evenodd;clip-rule:evenodd;stroke-linejoin:round;stroke-miterlimit:2;" xml:space="preserve" xmlns:xlink="http://www.w3.org/1999/xlink" xmlns="http://www.w3.org/2000/svg" version="1.1" viewBox="0 0 300 300" height="100%" width="100%">
    <path style="fill:white;fill-opacity:0.49;" d="M191.695,233.511C194.12,233.385 197.554,243.284 197.554,243.284C197.554,243.284 207.925,243.039 208.703,245.07C209.481,247.101 201.345,253.967 201.345,253.967C201.345,253.967 205.052,262.798 203.419,264.119C201.786,265.439 193.087,260.436 193.087,260.436C193.087,260.436 184.848,266.66 183.189,265.164C181.531,263.669 183.219,253.752 183.219,253.752C183.219,253.752 175.391,248.917 175.97,246.762C176.549,244.607 186.524,243.52 186.524,243.52C186.524,243.52 189.27,233.636 191.695,233.511Z"></path>
    <path style="fill:white;fill-opacity:0.19;" d="M153.51,0.293C190.242,0.883 219.881,30.887 219.881,67.759C219.881,83.769 214.293,98.483 204.963,110.058L208.888,129.677L203.483,128.453L199.747,109.774C209.077,98.2 214.664,83.485 214.664,67.475C214.664,32.366 187.791,3.484 153.51,0.293Z"></path>
    <path style="fill:white;fill-opacity:0.95;" d="M146.085,134.942C109.352,134.351 79.713,104.347 79.713,67.475C79.713,30.235 109.948,0 147.189,0C149.32,0 151.429,0.099 153.51,0.293C187.791,3.484 214.664,32.366 214.664,67.475C214.664,83.485 209.077,98.2 199.747,109.774L203.483,128.453L188.16,124.98C187.806,125.202 187.45,125.421 187.091,125.636C176.953,131.73 165.085,135.235 152.405,135.235C150.274,135.235 148.166,135.136 146.085,134.942ZM130.481,98.129C130.111,99.313 130.003,100.498 130.158,101.683C130.312,102.869 130.678,103.958 131.255,104.951C131.833,105.944 132.586,106.829 133.514,107.606C134.441,108.384 135.493,108.956 136.67,109.324C139.098,110.083 141.441,109.882 143.702,108.72C145.963,107.559 147.463,105.794 148.203,103.426C148.944,101.058 148.686,98.785 147.429,96.605C146.173,94.425 144.368,92.967 142.014,92.231C139.587,91.472 137.243,91.674 134.983,92.835C132.722,93.997 131.222,95.761 130.481,98.129ZM120.233,34.485L130.089,44.399C130.089,44.399 139.504,35.212 153.185,40.432C163.489,44.364 162.801,51.302 161.634,54.924C160.846,57.369 154.306,62.918 148.615,65.858C142.924,68.799 138.126,73.227 136.528,80.422L151.29,84.219C151.29,84.219 152.697,77.902 157.62,75.196C162.542,72.489 175.267,65.21 177.636,55.349C179.1,49.258 177.368,35.935 162.223,29.732C151.863,25.488 138.078,21.774 120.233,34.485Z"></path>
    <path style="fill:white;fill-opacity:0.19;" d="M203.483,128.453L203.671,129.393L187.091,125.636C187.45,125.421 187.806,125.202 188.16,124.98L203.483,128.453Z"></path>
    <path style="fill:none;" d="M71.426,129.422L71.425,129.422"></path>
    <path style="fill:white;fill-opacity:0.41;" d="M25.73,295.864C30.212,298.452 33.297,299.089 35.493,299.153L25.73,295.864Z"></path>
    <path style="fill:white;fill-opacity:0.95;" d="M44.454,178.041C41.419,178.057 35.413,176.616 33.734,174.666C34.851,194.761 24.327,188.051 11.04,197.127C1.863,203.396 0.784,212.267 0.699,221.647C0.51,242.612 1.463,241.68 3.111,242.384C3.111,242.384 13.584,245.657 23.359,244.616C23.359,244.616 31.875,288.164 37.485,299.07C38.375,298.978 39.054,298.86 39.604,298.936C56.188,301.226 66.288,292.973 76.468,282.565C76.752,282.276 77.014,282.068 77.267,281.901C70.213,271.396 74.45,235.011 74.45,235.011C78.698,233.012 83.216,227.945 83.216,227.945C84.253,226.917 84.908,226.387 85.243,225.409C80.273,199.134 81.423,192.928 68.496,189.736C64.477,188.744 56.856,189.482 56.856,189.482C56.856,189.482 57.357,191.58 54.28,196.523C54.28,196.523 50.054,183.856 44.454,178.041Z"></path>
    <path style="fill:white;fill-opacity:0.75;" d="M56.856,189.482C56.856,189.482 57.357,191.58 54.28,196.523C54.28,196.523 50.054,183.856 44.454,178.041C45.062,178.038 45.551,177.976 45.861,177.848C49.542,180.478 53.103,181.457 57.454,181.735C56.312,184.162 56.856,189.482 56.856,189.482Z"></path>
    <path style="fill:white;fill-opacity:0.75;" d="M83.216,227.945C83.216,227.945 78.698,233.012 74.45,235.011C74.45,235.011 70.213,271.396 77.267,281.901C78.079,281.366 78.784,281.262 79.713,280.26C84.556,275.043 85.117,235.58 83.216,227.945Z"></path>
    <path style="fill:white;fill-opacity:0.75;" d="M3.111,242.384C2.802,248.239 5.851,283.795 24.913,295.38C25.19,295.548 25.463,295.71 25.73,295.864L35.493,299.153C36.258,299.175 36.915,299.128 37.485,299.07C31.875,288.164 23.359,244.616 23.359,244.616C13.584,245.657 3.111,242.384 3.111,242.384Z"></path>
    <path style="fill:white;" d="M37.485,299.07C37.662,299.413 37.836,299.724 38.006,300L35.493,299.153C36.258,299.175 36.915,299.128 37.485,299.07Z"></path>
    <path style="fill:white;fill-opacity:0.29;" d="M70.37,130.221C70.37,130.221 62.628,132.503 56.419,131.455C51.221,130.578 46.955,131.425 45.462,134.455C44.195,137.026 43.053,140.775 42.487,141.668C42.487,141.668 43.102,150.84 45.591,156.101C48.079,161.362 49.983,165.328 54.14,164.517C58.297,163.706 58.298,160.882 60.873,160.679C63.396,160.48 67.714,162.206 71.319,160.598C73.17,159.773 74.203,158.489 74.777,157.238C74.107,175.23 71.511,177.055 70.848,177.773C67.752,181.127 64.245,181.298 57.454,181.735C53.103,181.457 49.542,180.478 45.861,177.848C44.001,178.614 35.75,177.007 33.734,174.666C26.879,169.603 11.98,157.917 14.31,147.26C17.704,131.74 19.051,121.911 25.432,115.348C35.801,104.685 65.759,113.398 82.776,110.742C83.643,121.349 84.679,126.454 70.37,130.221ZM37.889,145.81C27.051,145.827 30.02,158.086 31.972,160.529C33.645,162.624 40.294,164.623 40.294,164.623L37.889,145.81Z"></path>
    <path style="fill:white;fill-opacity:0.95;" d="M63.022,131.58C71.35,148.466 71.802,158.491 68.336,158.9C65.955,159.181 64.91,159.485 64.715,161.043C63.248,160.84 61.909,160.597 60.873,160.679C58.298,160.882 58.297,163.706 54.14,164.517C49.983,165.328 48.079,161.362 45.591,156.101C43.102,150.84 42.487,141.668 42.487,141.668C43.053,140.775 44.195,137.026 45.462,134.455C46.955,131.425 51.221,130.578 56.419,131.455C58.565,131.817 60.893,131.782 63.022,131.58ZM63.739,139.872C63.657,139.317 61.806,139.132 59.609,139.458C57.413,139.784 55.696,140.499 55.778,141.053C55.86,141.607 57.711,141.792 59.907,141.466C62.104,141.14 63.821,140.426 63.739,139.872ZM60.067,144.179C59.506,144.179 59.052,145.379 59.052,146.858C59.052,148.336 59.506,149.537 60.067,149.537C60.627,149.537 61.082,148.336 61.082,146.858C61.082,145.379 60.627,144.179 60.067,144.179Z"></path>
    <ellipse style="fill:white;fill-opacity:0.15;" ry="2.679" rx="1.015" cy="146.858" cx="60.067"></ellipse>
    <path style="fill:white;fill-opacity:0.15;" d="M63.739,139.872C63.821,140.426 62.104,141.14 59.907,141.466C57.711,141.792 55.86,141.607 55.778,141.053C55.696,140.499 57.413,139.784 59.609,139.458C61.806,139.132 63.657,139.317 63.739,139.872Z"></path>
    <path style="fill:white;fill-opacity:0.75;" d="M74.557,143.446C74.844,146.225 74.968,149.645 74.872,154.004C74.847,155.137 74.815,156.214 74.777,157.238C74.203,158.489 73.17,159.773 71.319,160.598C69.194,161.546 66.822,161.335 64.715,161.043C64.91,159.485 65.955,159.181 68.336,158.9C71.802,158.491 71.35,148.466 63.022,131.58C67.054,131.199 70.37,130.221 70.37,130.221C71.964,133.277 73.442,135.936 74.254,141.1C72.607,140.452 71.247,140.262 71.045,140.696C70.809,141.204 72.252,142.377 74.265,143.314C74.363,143.359 74.46,143.403 74.557,143.446ZM71.019,144.179C70.459,144.179 70.004,145.379 70.004,146.858C70.004,148.336 70.459,149.537 71.019,149.537C71.58,149.537 72.035,148.336 72.035,146.858C72.035,145.379 71.58,144.179 71.019,144.179Z"></path>
    <path style="fill:white;fill-opacity:0.15;" d="M78.342,144.09C78.106,144.598 76.279,144.25 74.265,143.314C72.252,142.377 70.809,141.204 71.045,140.696C71.281,140.188 73.108,140.536 75.122,141.473C77.136,142.409 78.579,143.582 78.342,144.09Z"></path>
    <ellipse style="fill:white;fill-opacity:0.15;" ry="2.679" rx="1.015" cy="146.858" cx="71.019"></ellipse>
    <path style="fill:white;fill-opacity:0.95;" d="M207.051,205.678C208.89,202.628 211.414,199.824 214.664,199.16C218.718,198.333 222.047,198.077 223.854,196.478C224.084,198.906 224.238,201.955 223.798,203.579L226.029,204.517C225.502,209.07 224.54,212.536 224.54,212.536C224.532,212.567 224.525,212.599 224.519,212.63C219.485,213.131 213.791,213.706 206.605,214.41C206.866,212.065 207.086,208.984 207.051,205.678ZM204.568,214.609C204.128,214.652 203.683,214.696 203.233,214.739C203.233,214.739 203.8,212.544 204.971,209.794C204.884,211.517 204.743,213.087 204.592,214.401C204.584,214.471 204.576,214.541 204.568,214.609ZM228.363,199.53C231.486,192.615 238.238,181.055 248.714,180.293C247.045,183.137 245.179,191.752 251.776,195.918C258.235,194.244 276.278,193.55 273.865,228.236C273.113,229.023 272.217,229.679 270.915,229.966C260.051,231.68 245.025,223.167 245.025,223.167L239.593,241.978C236.642,224.658 230.674,212.023 228.783,212.208L226.638,212.42C227.087,210.603 228.289,205.234 228.363,199.53Z"></path>
    <path style="fill:white;fill-opacity:0.25;" d="M201.857,186.855C204.161,184.6 207.178,182.923 211.07,182.186C216.144,181.225 219.792,181.97 222.392,183.693C226.281,186.27 227.882,191.123 228.266,196.228C228.779,203.04 227.174,210.254 226.638,212.42L224.519,212.63C224.525,212.599 224.532,212.567 224.54,212.536C224.54,212.536 226.857,204.182 226.27,196.378C225.934,191.919 224.683,187.613 221.286,185.362C219.028,183.866 215.848,183.319 211.443,184.153C207.888,184.827 205.159,186.384 203.09,188.474C202.712,187.898 202.302,187.357 201.857,186.855ZM201.727,190.047C199.919,192.429 198.766,195.283 198.09,198.231C196.627,204.615 197.374,211.46 198.709,215.133L196.654,215.31C195.341,211.276 194.643,204.305 196.138,197.783C196.925,194.35 198.311,191.046 200.506,188.34C200.955,188.863 201.36,189.435 201.727,190.047Z"></path>
    <path style="fill:white;fill-opacity:0.35;" d="M230.005,213.108C232.543,216.274 237.124,227.486 239.593,241.978L240.952,247.278C240.952,247.278 233.006,258.955 222.806,267.968C221.06,264.757 219.739,259.916 219.817,249.965C219.882,241.795 219.388,220.599 220.984,216.556C221.851,214.36 227.326,213.436 230.005,213.108Z"></path>
    <path style="fill:white;fill-opacity:0.35;" d="M183.819,287.684C183.264,288.78 181.298,290.334 179.583,291.276C174.853,293.875 170.459,290.513 170.689,294.851C170.299,293.981 168.978,293.502 168.203,289.249C171.165,289.906 176.336,289.63 177.79,289.347C180.629,288.795 182.309,288.336 183.819,287.684Z"></path>
    <path style="fill:white;fill-opacity:0.5;" d="M205.893,218.834C205.951,218.653 206.042,218.27 206.142,217.715C206.28,216.947 206.45,215.81 206.605,214.41C213.791,213.706 219.485,213.131 224.519,212.63L226.638,212.42L228.783,212.208C229.092,212.178 229.51,212.49 230.005,213.108C227.326,213.436 221.851,214.36 220.984,216.556C219.388,220.599 219.882,241.795 219.817,249.965C219.739,259.916 221.06,264.757 222.806,267.968C220.283,270.198 217.622,272.265 214.909,273.951C213.37,274.908 197.615,282.805 196.301,282.485C194.386,282.019 193.116,279.593 187.415,282.292C184.497,283.674 179.3,283.305 179.207,284.857C179.055,287.415 183.574,285.871 183.941,286.956C184.009,287.157 183.959,287.406 183.819,287.684C182.309,288.336 180.629,288.795 177.79,289.347C176.336,289.63 171.165,289.906 168.203,289.249C167.561,285.722 167.294,279.6 168.245,268.509C170.461,242.66 171.97,230.87 172.529,224.323C172.927,219.652 173.199,217.972 176.74,217.16C177.463,218.798 178.218,220.153 178.897,221.101L178.932,221.147C178.622,221.575 178.438,222.108 178.438,222.684C178.438,224.096 179.541,225.242 180.9,225.242C182.259,225.242 183.362,224.096 183.362,222.684C183.362,221.272 182.259,220.125 180.9,220.125C180.811,220.125 180.724,220.13 180.638,220.14C180.609,220.069 180.571,220 180.525,219.935C179.97,219.161 179.365,218.098 178.772,216.821C179.549,216.725 180.429,216.643 181.429,216.565C186.184,216.197 192.161,215.695 196.654,215.31L198.709,215.133C201.429,214.898 203.233,214.739 203.233,214.739L204.568,214.609C204.358,216.396 204.134,217.669 204.011,218.139C203.895,218.353 203.865,218.597 203.914,218.824C203.041,219.218 202.43,220.121 202.43,221.172C202.43,222.584 203.533,223.731 204.892,223.731C206.251,223.731 207.354,222.584 207.354,221.172C207.354,220.13 206.754,219.233 205.893,218.834Z"></path>
    <path style="fill:white;fill-opacity:0.75;" d="M270.915,229.966C260.051,231.68 245.025,223.167 245.025,223.167L239.593,241.978L240.952,247.278C240.952,247.278 228.588,265.447 214.909,273.951C213.37,274.908 197.615,282.805 196.301,282.485C194.386,282.019 193.116,279.593 187.415,282.292C184.497,283.674 179.3,283.305 179.207,284.857C179.055,287.415 183.574,285.871 183.941,286.956C184.278,287.953 181.733,290.095 179.583,291.276C174.853,293.875 170.459,290.513 170.689,294.851C177.274,307.393 195.283,293.344 199.179,291.246C202.843,289.273 218.102,288.487 218.102,288.487C218.102,288.487 249.244,280.783 263.428,253.591C266.539,248.067 270.915,229.966 270.915,229.966Z"></path>
    <path style="fill:white;" d="M218.102,288.487C218.102,288.487 249.244,280.783 263.428,253.591C263.428,253.591 262.498,262.387 265.266,269.48C268.035,276.572 269.248,280.661 266.298,283.853C263.349,287.046 228.171,293.722 218.102,288.487Z"></path>
    <path style="fill:white;fill-opacity:0.75;" d="M228.363,199.53C228.377,198.434 228.349,197.326 228.266,196.228C228.002,192.717 227.163,189.326 225.399,186.712C228.62,185.792 238.42,182.797 246.843,178.186C247.628,178.902 248.419,179.439 249.102,179.732C248.976,179.88 248.846,180.068 248.714,180.293C238.238,181.055 231.486,192.615 228.363,199.53ZM225.17,190.686C225.79,192.442 226.12,194.395 226.27,196.378C226.479,199.155 226.32,202.002 226.029,204.517L223.798,203.579C224.238,201.955 224.084,198.906 223.854,196.478C225.092,195.383 225.616,193.657 225.17,190.686Z"></path>
    <path style="fill:white;fill-opacity:0.95;" d="M226.513,137.591C230.83,136.91 234.468,144.23 235.799,152.684C237.124,161.106 240.8,159.332 244.331,155.662C246.022,153.906 248.976,154.916 250.205,157.578C251.497,160.378 250.819,161.962 249.626,163.273C247.523,165.582 244.407,164.031 243.143,168.259C242.023,172.003 244.404,175.961 246.843,178.186C238.42,182.797 228.62,185.792 225.399,186.712C224.598,185.525 223.607,184.498 222.392,183.693C220.695,182.569 218.552,181.861 215.858,181.772C215.597,179.947 215.782,178.167 216.179,176.479C217.209,176.709 218.299,176.743 219.265,176.595C222.626,176.081 225.461,171.449 222.507,169.863C220.344,168.702 219.624,170.215 218.122,170.884C218.241,170.591 218.357,170.306 218.468,170.027C220.979,163.71 217.918,164.1 215.6,163.729C210.521,162.916 220.716,142.628 226.513,137.591ZM223.648,148.731C221.464,148.52 219.967,148.722 219.92,149.615C219.878,150.41 221.592,150.416 223.648,150.5C228.195,150.684 229.789,152.47 229.769,151.983C229.725,150.933 226.152,148.974 223.648,148.731ZM221.449,153.643C220.898,153.543 220.271,154.45 220.052,155.667C219.832,156.883 220.102,157.952 220.654,158.051C221.206,158.151 221.832,157.244 222.051,156.027C222.271,154.811 222.001,153.743 221.449,153.643Z"></path>
    <path style="fill:white;fill-opacity:0.75;" d="M211.348,154.228C211.56,152.919 211.803,151.665 212.08,150.48C213.907,150.41 215.348,150.345 215.309,149.615C215.269,148.861 214.196,148.599 212.548,148.663C213.226,146.267 214.069,144.231 215.101,142.702C215.868,143.145 217.469,143.174 218.9,142.39C220.303,141.622 221.508,140.065 225.136,138.077C225.602,137.822 226.061,137.663 226.513,137.591C220.716,142.628 210.521,162.916 215.6,163.729C217.918,164.1 220.979,163.71 218.468,170.027C218.357,170.306 218.241,170.591 218.122,170.884C217.457,171.18 216.638,171.31 215.473,170.969C213.348,170.346 211.936,172.068 212.283,173.363C212.739,175.063 214.367,176.075 216.179,176.479C215.782,178.167 215.597,179.947 215.858,181.772C214.509,181.727 213.021,181.837 211.382,182.129C210.736,180.766 210.321,179.059 210.251,176.926C210.028,170.135 210.199,162.933 210.994,156.687C211.107,157.046 211.307,157.291 211.567,157.338C212.093,157.433 212.67,156.683 212.854,155.663C213.038,154.644 212.76,153.739 212.234,153.644C211.926,153.588 211.601,153.821 211.348,154.228Z"></path>
    <path style="fill:white;fill-opacity:0.41;" d="M216.339,183.799C218.341,183.941 219.97,184.49 221.286,185.362C222.055,185.872 222.715,186.487 223.278,187.186C222.112,187.337 220.105,187.473 218.01,187.048C217.242,185.962 216.701,184.876 216.339,183.799Z"></path>
    <path style="fill:white;fill-opacity:0.41;" d="M218.01,187.048C216.063,186.653 214.04,185.773 212.546,183.969C213.939,183.77 215.2,183.718 216.339,183.799C216.701,184.876 217.242,185.962 218.01,187.048Z"></path>
    <path style="fill:white;fill-opacity:0.25;" d="M215.101,142.702C215.868,143.145 217.469,143.174 218.9,142.39C220.303,141.622 221.508,140.065 225.136,138.077C230.042,135.389 234.329,143.344 235.799,152.684C237.124,161.106 240.8,159.332 244.331,155.662C246.022,153.906 248.976,154.916 250.205,157.578C251.497,160.378 250.819,161.962 249.626,163.273C247.523,165.582 244.407,164.031 243.143,168.259C241.663,173.208 246.299,178.53 249.102,179.732C255.701,184.057 263.535,182.85 266.053,182.631C268.96,182.378 275.541,184.955 277.19,184.746C278.838,184.537 282.114,184.681 287.037,181.687C291.959,178.693 290.456,170.07 290.259,167.767C290.062,165.464 296.992,165.541 298.804,158.586C300.616,151.631 297.72,141.945 289.711,136.94C281.702,131.934 268.586,137.332 266.126,138.342C263.666,139.353 258.007,129.43 248.591,125.791C239.176,122.152 222.465,124.915 215.877,130.52C209.289,136.126 215.101,142.702 215.101,142.702Z"></path>
    <path style="fill:white;fill-opacity:0.95;" d="M37.889,145.81L40.294,164.623C40.294,164.623 33.645,162.624 31.972,160.529C30.02,158.086 27.051,145.827 37.889,145.81Z"></path>
    <path style="fill:white;fill-opacity:0.75;" d="M64.598,167.495C67.918,167.495 70.107,167.71 70.107,168.79C70.107,169.87 67.476,171.085 64.176,170.769C60.871,170.453 56.323,167.948 57.454,166.516C59.271,164.218 61.279,167.495 64.598,167.495Z"></path>
    <path style="fill:white;fill-opacity:0.25;" d="M130.481,98.129C131.222,95.761 132.722,93.997 134.983,92.835C137.243,91.674 139.587,91.472 142.014,92.231C144.368,92.967 146.173,94.425 147.429,96.605C148.686,98.785 148.944,101.058 148.203,103.426C147.463,105.794 145.963,107.559 143.702,108.72C141.441,109.882 139.098,110.083 136.67,109.324C135.493,108.956 134.441,108.384 133.514,107.606C132.586,106.829 131.833,105.944 131.255,104.951C130.678,103.958 130.312,102.869 130.158,101.683C130.003,100.498 130.111,99.313 130.481,98.129ZM120.233,34.485C138.078,21.774 151.863,25.488 162.223,29.732C177.368,35.935 179.1,49.258 177.636,55.349C175.267,65.21 162.542,72.489 157.62,75.196C152.697,77.902 151.29,84.219 151.29,84.219L136.528,80.422C138.126,73.227 142.924,68.799 148.615,65.858C154.306,62.918 160.846,57.369 161.634,54.924C162.801,51.302 163.489,44.364 153.185,40.432C139.504,35.212 130.089,44.399 130.089,44.399L120.233,34.485Z"></path>
    <path style="fill:white;fill-opacity:0.15;" d="M216.179,176.479C214.367,176.075 212.739,175.063 212.283,173.363C211.936,172.068 213.348,170.346 215.473,170.969C216.638,171.31 217.457,171.18 218.122,170.884C219.624,170.215 220.344,168.702 222.507,169.863C225.461,171.449 222.626,176.081 219.265,176.595C218.299,176.743 217.209,176.709 216.179,176.479Z"></path>
    <path style="fill:white;fill-opacity:0.15;" d="M211.348,154.228C211.601,153.821 211.926,153.588 212.234,153.644C212.76,153.739 213.038,154.644 212.854,155.663C212.67,156.683 212.093,157.433 211.567,157.338C211.307,157.291 211.107,157.046 210.994,156.687C211.101,155.849 211.218,155.028 211.348,154.228Z"></path>
    <path style="fill:white;fill-opacity:0.15;" d="M212.08,150.48C212.227,149.855 212.382,149.248 212.548,148.663C214.196,148.599 215.269,148.861 215.309,149.615C215.348,150.345 213.907,150.41 212.08,150.48Z"></path>
    <path style="fill:white;fill-opacity:0.15;" d="M221.449,153.643C222.001,153.743 222.271,154.811 222.051,156.027C221.832,157.244 221.206,158.151 220.654,158.051C220.102,157.952 219.832,156.883 220.052,155.667C220.271,154.45 220.898,153.543 221.449,153.643Z"></path>
    <path style="fill:white;fill-opacity:0.15;" d="M223.648,148.731C226.152,148.974 229.725,150.933 229.769,151.983C229.789,152.47 228.195,150.684 223.648,150.5C221.592,150.416 219.878,150.41 219.92,149.615C219.967,148.722 221.464,148.52 223.648,148.731Z"></path>
    <path style="fill:white;fill-opacity:0.3;" d="M180.638,220.14C180.724,220.13 180.811,220.125 180.9,220.125C182.259,220.125 183.362,221.272 183.362,222.684C183.362,224.096 182.259,225.242 180.9,225.242C179.541,225.242 178.438,224.096 178.438,222.684C178.438,222.108 178.622,221.575 178.932,221.147C179.332,220.595 179.942,220.216 180.638,220.14ZM205.893,218.834C206.754,219.233 207.354,220.13 207.354,221.172C207.354,222.584 206.251,223.731 204.892,223.731C203.533,223.731 202.43,222.584 202.43,221.172C202.43,220.121 203.041,219.218 203.914,218.824C204.214,218.689 204.544,218.614 204.892,218.614C205.248,218.614 205.587,218.692 205.893,218.834Z"></path>
    <path style="fill:white;fill-opacity:0.3;" d="M178.932,221.147C178.92,221.132 178.908,221.117 178.897,221.101C176.623,217.925 173.502,210.197 173.55,202.511C173.599,194.666 176.873,186.878 187.419,183.831C192.135,182.469 195.761,182.825 198.536,184.249C202.674,186.371 204.974,190.94 206.096,196.164C207.886,204.493 206.73,214.448 206.142,217.715C206.042,218.27 205.951,218.653 205.893,218.834C205.587,218.692 205.248,218.614 204.892,218.614C204.544,218.614 204.214,218.689 203.914,218.824C203.865,218.597 203.895,218.353 204.011,218.139C204.139,217.65 204.375,216.297 204.592,214.401C205.165,209.415 205.594,200.747 203.465,194.02C202.455,190.825 200.872,188.07 198.372,186.463C195.884,184.863 192.509,184.445 187.974,185.755C178.515,188.488 175.596,195.487 175.552,202.523C175.507,209.718 178.396,216.963 180.525,219.935C180.571,220 180.609,220.069 180.638,220.14C179.942,220.216 179.332,220.595 178.932,221.147Z"></path>
</svg>
