<svg viewBox="0 0 300 300" xmlns="http://www.w3.org/2000/svg" id="Layer_1"><path style="fill:#fff;fill-rule:evenodd" d="M147.615,46.71l-6.264-18.328a3.371,3.371,0,0,0-4.28-2.1h0L79.33,46.014a3.371,3.371,0,0,0-2.1,4.28h0l6.263,18.329a3.372,3.372,0,0,0,4.28,2.1L145.515,51a3.371,3.371,0,0,0,2.1-4.279Zm-23.643,5.209-34.7,11.858a2.378,2.378,0,0,1-1.538-4.5l34.7-11.858a2.378,2.378,0,0,1,1.538,4.5Zm13.3-14.032-50.9,17.4a2.378,2.378,0,0,1-1.538-4.5l50.9-17.4a2.378,2.378,0,0,1,1.538,4.5Z"></path><path style="fill:#fff;fill-rule:evenodd" d="M158.461,78.447,152.2,60.119a3.371,3.371,0,0,0-4.28-2.1h0L90.176,77.751a3.371,3.371,0,0,0-2.1,4.28L94.34,100.36a3.371,3.371,0,0,0,4.28,2.1h0l57.741-19.733a3.372,3.372,0,0,0,2.1-4.28Zm-44.4,12.3-13.942,4.764a2.53,2.53,0,0,1-.352.092,2.378,2.378,0,0,1-1.187-4.592l13.943-4.764a2.378,2.378,0,0,1,1.538,4.5Zm23.715-17.591L97.217,87.02a2.378,2.378,0,0,1-1.538-4.5l40.56-13.861a2.378,2.378,0,0,1,1.538,4.5Z"></path><path style="fill:#fff;fill-rule:evenodd" d="M190.992,173.641l-6.263-18.328a3.371,3.371,0,0,0-4.28-2.1h0l-57.741,19.732a3.371,3.371,0,0,0-2.1,4.28l6.264,18.329a3.369,3.369,0,0,0,4.278,2.1h0l57.742-19.733A3.372,3.372,0,0,0,190.992,173.641ZM147.7,185.564l-15.055,5.144a2.378,2.378,0,0,1-1.538-4.5l15.055-5.145a2.378,2.378,0,0,1,1.538,4.5Zm32.947-20.746-50.9,17.4a2.513,2.513,0,0,1-.351.091,2.378,2.378,0,0,1-1.187-4.592l50.905-17.4a2.378,2.378,0,0,1,1.538,4.5Z"></path><circle style="fill:#fff;isolation:isolate;opacity:0.20000000298023224" r="1.711" cy="23.84" cx="88.547"></circle><path style="fill:#fff;fill-rule:evenodd;isolation:isolate;opacity:0.4000000059604645" d="M91.333,22.888A2.944,2.944,0,1,0,89.5,26.627h0A2.944,2.944,0,0,0,91.333,22.888ZM89.1,25.459a1.711,1.711,0,1,1,1.066-2.172h0A1.71,1.71,0,0,1,89.1,25.458Z"></path><rect style="fill:#fff;isolation:isolate;opacity:0.30000001192092896" transform="translate(-61.396 61.384) rotate(-18.867)" rx="3.374" height="6.966" width="26.779" y="211.97" x="140.637"></rect><path style="fill:#fff;isolation:isolate;opacity:0.800000011920929" d="M58.951,66.8a.951.951,0,0,1,.312.163l-.467-1.58c-.078-.138-.154-.278-.236-.409a4.952,4.952,0,0,1-.733-1.113H57.82a.309.309,0,0,0-.044.024c-.444.3-.38,1.274.145,2.168A1.772,1.772,0,0,0,58.951,66.8Z"></path><path style="fill:#fff;isolation:isolate;opacity:0.6000000238418579" d="M69.8,69.743a2.5,2.5,0,0,1-.38.248l-3.932,1.184a5.876,5.876,0,0,1-2.635-.05c.23.172.454.344.662.523a10.067,10.067,0,0,0,7.82.714,2.61,2.61,0,0,1-.872-1.045A6.262,6.262,0,0,1,69.8,69.743Z"></path><path style="fill:#fff;isolation:isolate;opacity:0.800000011920929" d="M67.9,67.354c-.239.076-.52.163-.8.228a4.89,4.89,0,0,1-.788.122,5.087,5.087,0,0,1-.8,0c-.277-.02-.553-.058-.835-.1a.475.475,0,0,0-.27.9,3.406,3.406,0,0,0,.994.282,4.775,4.775,0,0,0,1,.03c.159-.012.318-.033.476-.061a4.911,4.911,0,0,0,.507-.12,3.542,3.542,0,0,0,.936-.423.485.485,0,0,0-.417-.866Z"></path><path style="fill:#fff;isolation:isolate;opacity:0.6000000238418579" d="M68,56.2a.442.442,0,0,0-.619-.082.449.449,0,0,0-.081.082,3.132,3.132,0,0,1-2.5,1.353,5.277,5.277,0,0,0,.586,4.225c.348.635.741,1.248,1.027,1.913a.95.95,0,0,1,.03.9c-.18.252-.557.308-.719.572a.865.865,0,0,0-.084.5c0,.027.007.058.01.087q.3-.059.639-.094c1.275-.139,3.547-.292,3.961-1.754a7.437,7.437,0,0,0,.284-3.845A19.422,19.422,0,0,0,68,56.2Zm-1.339,5.776c-.11.026-.236-.087-.334-.274a1.075,1.075,0,0,1-.077-.178l-.013-.036c-.012-.04-.024-.081-.034-.123-.087-.377-.022-.713.144-.751s.371.236.458.612c.01.047.019.093.025.139.044.318-.024.58-.169.613ZM68.216,59a.23.23,0,0,1-.1.127h0a2.493,2.493,0,0,1-.554.245c-.187.055-.371.117-.558.168s-.377.1-.566.145a2.413,2.413,0,0,1-.291.057,1.555,1.555,0,0,1-.312.016h0a.189.189,0,0,1-.184-.2v-.013a.2.2,0,0,1,.052-.111,1.22,1.22,0,0,1,.251-.207,1.816,1.816,0,0,1,.278-.15,4.722,4.722,0,0,1,.588-.22,5.1,5.1,0,0,1,.613-.131,1.79,1.79,0,0,1,.632.013.2.2,0,0,1,.156.236L68.216,59Z"></path><path style="fill:#fff;isolation:isolate;opacity:0.15000000596046448" d="M65.7,59.441a1.22,1.22,0,0,1,.251-.207,1.816,1.816,0,0,1,.278-.15,4.722,4.722,0,0,1,.588-.22,5.1,5.1,0,0,1,.613-.131,1.79,1.79,0,0,1,.632.013.2.2,0,0,1,.161.232L68.216,59a.23.23,0,0,1-.1.127h0a2.493,2.493,0,0,1-.554.245c-.187.055-.371.116-.558.168s-.377.1-.566.145a2.413,2.413,0,0,1-.291.057,1.555,1.555,0,0,1-.312.016h0a.189.189,0,0,1-.184-.2V59.55A.2.2,0,0,1,65.7,59.441Z"></path><path style="fill:#fff;isolation:isolate;opacity:0.800000011920929" d="M66.415,63.688c-.286-.665-.679-1.278-1.027-1.913A5.277,5.277,0,0,1,64.8,57.55h0c-2.188.158-4.8-1.1-6.43.463-.5.479.24,5.066.576,5.444a3.445,3.445,0,0,0,.419.725c.017.024.028.046.043.07.132.188.285.434.457.7a.833.833,0,0,1,.2.309,4.54,4.54,0,0,0,1.626,1.685c.761.338,1.4-.094,2.117-.51a6.161,6.161,0,0,1,1.843-.684c0-.029-.008-.06-.01-.087a.865.865,0,0,1,.084-.5c.162-.264.539-.32.719-.572A.95.95,0,0,0,66.415,63.688ZM62.16,61c-.179.076-.361.144-.542.217a2.526,2.526,0,0,1-.585.155h0a.2.2,0,0,1-.239-.164.2.2,0,0,1,.045-.17,1.791,1.791,0,0,1,.487-.4,4.964,4.964,0,0,1,.56-.281,4.639,4.639,0,0,1,.6-.2A1.83,1.83,0,0,1,62.8,60.1a1.263,1.263,0,0,1,.325.006.186.186,0,0,1,.162.207l0,.018a.2.2,0,0,1-.062.106h0a1.568,1.568,0,0,1-.254.182,2.432,2.432,0,0,1-.263.137C62.513,60.843,62.339,60.93,62.16,61Zm1.334,1.885a.138.138,0,0,1-.064,0,.136.136,0,0,1-.028-.011.25.25,0,0,1-.038-.015,1.194,1.194,0,0,1-.289-1.255.153.153,0,0,1,.23-.054l.007,0a.405.405,0,0,1,.082.073,1.159,1.159,0,0,1,.239.507,1.511,1.511,0,0,1,.037.259C63.687,62.658,63.62,62.86,63.494,62.889Z"></path><ellipse style="fill:#fff;isolation:isolate;opacity:0.15000000596046448" transform="translate(-12.078 16.521) rotate(-12.993)" ry="0.699" rx="0.309" cy="61.292" cx="66.501"></ellipse><path style="fill:#fff;isolation:isolate;opacity:0.15000000596046448" d="M63.209,60.444a1.568,1.568,0,0,1-.254.182,2.432,2.432,0,0,1-.263.137c-.179.08-.353.167-.532.241s-.361.144-.542.217a2.526,2.526,0,0,1-.585.155h0a.2.2,0,0,1-.239-.164.2.2,0,0,1,.045-.17,1.786,1.786,0,0,1,.486-.4,5.064,5.064,0,0,1,.561-.281,4.639,4.639,0,0,1,.6-.2A1.83,1.83,0,0,1,62.8,60.1a1.263,1.263,0,0,1,.325,0,.187.187,0,0,1,.161.211l0,.015a.2.2,0,0,1-.062.106Z"></path><ellipse style="fill:#fff;isolation:isolate;opacity:0.15000000596046448" transform="translate(-12.365 15.833) rotate(-12.993)" ry="0.699" rx="0.309" cy="62.208" cx="63.337"></ellipse><path style="fill:#fff;isolation:isolate;opacity:0.800000011920929" d="M76.526,71.128c-.025.006-.05.01-.075.018-.678.2-2.625,1.067-2.625,1.067a2.63,2.63,0,0,1-2.488.148h0a10.063,10.063,0,0,1-7.82-.714c-.208-.179-.432-.351-.662-.523-.03-.008-.061-.012-.09-.02a5.107,5.107,0,0,1,2.072,2.433c.425,1.361-1.395,2.906-3.021,3.782a13.237,13.237,0,0,0,14.709-6.192Z"></path><path style="fill:#fff;fill-rule:evenodd;isolation:isolate;opacity:0.4000000059604645" d="M71.39,65.308,71.085,61.5c0-.058-.207-1.109-.226-1.164h0a19.611,19.611,0,0,0-.721-5,4.629,4.629,0,0,0-.267-.554,5.746,5.746,0,0,0,1.367-2.024,13.253,13.253,0,0,0-13.919.973,4.935,4.935,0,0,0-1.132,3.119c0,.009-.006.016-.007.026v.446c-2.109,1.71-2,2.97-1.7,4.176.812,3.32,2.729,3.1,4,5.616a2.036,2.036,0,0,0,1.091.872l.069.233a4.011,4.011,0,0,0,1.615,2.218,5.179,5.179,0,0,0,1.517.675c.029.008.06.012.09.02h0a5.876,5.876,0,0,0,2.635.05L69.426,70C71.2,69.073,71.235,66.319,71.39,65.308ZM58.951,66.8a1.773,1.773,0,0,1-1.03-.743c-.525-.894-.589-1.865-.145-2.168a.309.309,0,0,1,.044-.024h.007a4.952,4.952,0,0,0,.733,1.113c.082.131.158.271.236.409l.467,1.58A.961.961,0,0,0,58.951,66.8Zm2.741.157a4.54,4.54,0,0,1-1.626-1.685.833.833,0,0,0-.2-.309c-.172-.271-.325-.517-.457-.7-.015-.024-.026-.046-.043-.07a3.445,3.445,0,0,1-.419-.725c-.336-.378-1.074-4.965-.576-5.444,1.631-1.566,4.242-.3,6.43-.463h0c.1-.007.2-.019.3-.032.058-.008.115-.019.172-.029.042-.008.084-.016.126-.026.058-.012.115-.026.172-.041l.108-.033a3.118,3.118,0,0,0,.345-.129c.02-.009.041-.016.061-.026a1.638,1.638,0,0,0,.183-.1l.075-.043c.063-.038.125-.077.185-.12l.014-.011a3.133,3.133,0,0,0,.373-.318A3.567,3.567,0,0,0,67.3,56.2a.439.439,0,0,1,.678-.021A.208.208,0,0,1,68,56.2c.219.272.567.7.96,1.243.166.229.337.473.514.744a16.249,16.249,0,0,1,1.065,1.88,7.437,7.437,0,0,1-.284,3.845c-.414,1.462-2.686,1.615-3.961,1.754-.214.023-.413.053-.607.089-.175.033-.346.072-.515.12l-.05.016c-.154.046-.308.1-.466.161-.037.014-.075.031-.112.046-.144.06-.292.127-.446.2-.095.047-.186.09-.286.143-.727.421-1.361.853-2.122.515Zm6.631,1.269a3.542,3.542,0,0,1-.936.423,4.911,4.911,0,0,1-.507.12c-.158.028-.317.049-.476.061a4.775,4.775,0,0,1-1-.03,3.406,3.406,0,0,1-.994-.282.475.475,0,0,1,.042-.876.466.466,0,0,1,.228-.024c.282.038.558.076.835.1a5.087,5.087,0,0,0,.8,0,4.89,4.89,0,0,0,.788-.122c.282-.065.563-.152.8-.228a.485.485,0,0,1,.417.866Z"></path><path style="fill:#fff" d="M64.838,73.538a5.107,5.107,0,0,0-2.072-2.433,5.179,5.179,0,0,1-1.517-.675,4.011,4.011,0,0,1-1.615-2.218l-.069-.233a2.036,2.036,0,0,1-1.091-.872c-1.268-2.512-3.185-2.3-4-5.616-.295-1.206-.4-2.466,1.7-4.176v-.083c0-.116-.005-.231,0-.363,0-.01.006-.017.007-.026a4.935,4.935,0,0,1,1.132-3.119,13.251,13.251,0,0,0,4.5,23.6C63.443,76.444,65.263,74.9,64.838,73.538Z"></path><path style="fill:#fff" d="M69.871,54.775a4.629,4.629,0,0,1,.267.554,19.611,19.611,0,0,1,.721,5h0c.019.055.221,1.106.226,1.164l.305,3.817c-.143.932-.183,3.345-1.584,4.435a6.254,6.254,0,0,0,.66,1.574,2.6,2.6,0,0,0,.872,1.044,2.63,2.63,0,0,0,2.488-.148s1.947-.862,2.625-1.067c.025-.008.05-.012.075-.018a13.24,13.24,0,0,0-4.79-18.1q-.246-.144-.5-.276A5.752,5.752,0,0,1,69.871,54.775Z"></path><path style="fill:#fff;isolation:isolate;opacity:0.6000000238418579" d="M81.215,95.188a17.655,17.655,0,0,0-.168-2.738,14.254,14.254,0,0,0-1.718-4.307c-.435.029-1.046-.1-1.334-.083a12.043,12.043,0,0,0-2.432.367,1.864,1.864,0,0,1-.1.211,5.975,5.975,0,0,0,.4,4.157c.287.612.617,1.207.844,1.844a.879.879,0,0,1-.026.844c-.182.224-.536.255-.7.49a.793.793,0,0,0-.108.466,4.952,4.952,0,0,0,.212,1.307,3.1,3.1,0,0,0,1.573-.46l.022-.016a.161.161,0,0,1,.223.045.164.164,0,0,1,.013.155,1.5,1.5,0,0,1-.835.708,3.135,3.135,0,0,1-.793.186,6.544,6.544,0,0,0,.515,1.111c.282.463.967,1.3.967,1.3a6.8,6.8,0,0,1-5.457-.268,7.765,7.765,0,0,1,.891,1h0a5.118,5.118,0,0,1,1.121,2.306c.034.168.071.325.108.48a3.616,3.616,0,0,0,3.073.5c.364-.076,2.7-.641,3.24-1.615h.034c-.034-.049-.071-.1-.1-.144h0c-.424-.641-1.45-2.813-1.055-3.408A8.478,8.478,0,0,0,81.215,95.188Zm-3.8-2.321c-.166.057-.406-.2-.536-.578s-.1-.727.066-.785.406.2.535.578.1.728-.067.785Zm.231-2.345-.684-.111a3.606,3.606,0,0,1-.694-.177.2.2,0,0,1,.018-.376,2.636,2.636,0,0,1,.735-.08,5.87,5.87,0,0,1,.736.068,5.378,5.378,0,0,1,.718.178,2.249,2.249,0,0,1,.667.322.18.18,0,0,1,.036.253.184.184,0,0,1-.129.072,2.925,2.925,0,0,1-.718-.043Z"></path><path style="fill:#fff;isolation:isolate;opacity:0.4000000059604645" d="M79.4,86.5a2.164,2.164,0,0,0-.942-.569,8.946,8.946,0,0,0-5.635.856,10.346,10.346,0,0,0-3.51,2.5A9.765,9.765,0,0,0,66.97,92.91a4.333,4.333,0,0,0-.137.55,3.256,3.256,0,0,0,.381,2.357c.319.493.958.782,1.272.426a2.9,2.9,0,0,1-.234-.974.867.867,0,0,1,.536-.881,3.306,3.306,0,0,1,.22-.864,6.281,6.281,0,0,1,.867-1.452,10.886,10.886,0,0,1,8.117-4.011c.4-.02,1.438.24,1.735-.042a.5.5,0,0,0,.125-.318A1.58,1.58,0,0,0,79.4,86.5Z"></path><path style="fill:#fff;isolation:isolate;opacity:0.30000001192092896" d="M79.329,88.143c.089.15.182.314.276.485a1.846,1.846,0,0,0,.206-.741.356.356,0,0,1-.081.131.66.66,0,0,1-.4.125Z"></path><path style="fill:#fff;isolation:isolate;opacity:0.30000001192092896" d="M69.745,97.3a1.565,1.565,0,0,1-1-.576,2.777,2.777,0,0,1-.253-.483c-.221.25-.6.178-.917-.055A10.214,10.214,0,0,0,68.688,97.3a5.482,5.482,0,0,0,1.469.7C70.013,97.767,69.873,97.537,69.745,97.3Z"></path><path style="fill:#fff;isolation:isolate;opacity:0.800000011920929" d="M76.288,98.366c-.083.009-.164.026-.247.03a2.907,2.907,0,0,1-1.059-.156,1.539,1.539,0,0,1-.861-.687.181.181,0,0,1,.265-.231l.011.009a2.193,2.193,0,0,0,.762.337,3.094,3.094,0,0,0,.863.083h.063a5.727,5.727,0,0,1-.2-1.063c-.007-.084-.012-.167-.011-.244a1.359,1.359,0,0,1,.011-.18.626.626,0,0,1,.072-.239c.009-.015.015-.032.025-.047a.575.575,0,0,1,.155-.144,1.42,1.42,0,0,1,.191-.105,1.02,1.02,0,0,0,.357-.241.593.593,0,0,0,.12-.4,1.2,1.2,0,0,0-.03-.224,1.786,1.786,0,0,0-.064-.216,13.256,13.256,0,0,0-.623-1.387c-.075-.152-.15-.3-.221-.457a3.306,3.306,0,0,1-.139-.339h0a6.372,6.372,0,0,1-.459-2.145V90.3c0-.157-.006-.311,0-.458v-.073c.008-.126.016-.249.031-.366.007-.057.018-.109.026-.163.013-.081.025-.164.041-.24.028-.128.059-.249.095-.36a.293.293,0,0,0,.019-.04l.038-.084.02-.045.019-.043a10.661,10.661,0,0,0-5.685,3.645,6.281,6.281,0,0,0-.867,1.452,3.3,3.3,0,0,0-.219.864.864.864,0,0,0-.537.881,2.957,2.957,0,0,0,.487,1.457,1.565,1.565,0,0,0,1,.576,11.967,11.967,0,0,0,2.244,2.926,14.922,14.922,0,0,1,1.157,1.215l-.01-.013c-.1-.127-.2-.255-.31-.383L72.784,101c-.053-.062-.11-.125-.168-.188-.02-.021-.038-.042-.058-.064-.078-.081-.161-.162-.253-.242h0a7.275,7.275,0,0,0,4.815.49,3.837,3.837,0,0,0,.642-.222s-.685-.841-.967-1.3A6.576,6.576,0,0,1,76.288,98.366Zm-2.149-4.454c-.174.06-.426-.211-.562-.606s-.106-.764.068-.825.426.212.563.607S74.313,93.852,74.139,93.912ZM71.6,92.234a.2.2,0,0,1-.256-.122.2.2,0,0,1,.023-.178,2.351,2.351,0,0,1,.5-.525A6.4,6.4,0,0,1,72.459,91a6.26,6.26,0,0,1,.636-.328,2.054,2.054,0,0,1,.7-.191.179.179,0,0,1,.192.166.182.182,0,0,1-.05.139h0a3.072,3.072,0,0,1-.547.431l-.577.365A7.215,7.215,0,0,1,71.6,92.234Z"></path><ellipse style="fill:#fff;isolation:isolate;opacity:0.15000000596046448" transform="translate(-25.858 30.232) rotate(-19.046)" ry="0.721" rx="0.318" cy="92.186" cx="77.178"></ellipse><ellipse style="fill:#fff;isolation:isolate;opacity:0.15000000596046448" transform="matrix(0.945, -0.326, 0.326, 0.945, -26.368, 29.215)" ry="0.757" rx="0.334" cy="93.197" cx="73.892"></ellipse><path style="fill:#fff;isolation:isolate;opacity:0.15000000596046448" d="M73.938,90.8a3.072,3.072,0,0,1-.547.431l-.577.365a7.266,7.266,0,0,1-1.215.641.2.2,0,0,1-.256-.122.2.2,0,0,1,.023-.178,2.351,2.351,0,0,1,.5-.525,5.67,5.67,0,0,1,1.225-.733,2.054,2.054,0,0,1,.7-.191.179.179,0,0,1,.192.166.182.182,0,0,1-.05.139Z"></path><path style="fill:#fff;isolation:isolate;opacity:0.15000000596046448" d="M79.047,90.671a2.925,2.925,0,0,1-.718-.043l-.685-.106-.684-.111a3.606,3.606,0,0,1-.694-.177.2.2,0,0,1,.018-.376,2.636,2.636,0,0,1,.735-.08,5.87,5.87,0,0,1,.736.068,5.536,5.536,0,0,1,.718.178,2.249,2.249,0,0,1,.667.322.18.18,0,0,1,.036.253A.184.184,0,0,1,79.047,90.671Z"></path><path style="fill:#fff;isolation:isolate;opacity:0.15000000596046448" d="M77.916,97.472a1.5,1.5,0,0,1-.835.708,3.171,3.171,0,0,1-1.04.216,2.912,2.912,0,0,1-1.06-.156,1.541,1.541,0,0,1-.86-.687.18.18,0,0,1,.075-.244.185.185,0,0,1,.19.013l.011.009a2.193,2.193,0,0,0,.762.337,3.094,3.094,0,0,0,.863.083,3.129,3.129,0,0,0,1.635-.465l.023-.016a.161.161,0,0,1,.223.045.164.164,0,0,1,.013.155Z"></path><path style="fill:#fff" d="M78.44,85.334a7.676,7.676,0,0,1,.49.8,2.457,2.457,0,0,1,.476.367,1.578,1.578,0,0,1,.449,1.2.5.5,0,0,1-.125.318.356.356,0,0,0,.081-.131,1.846,1.846,0,0,1-.206.741h0a14.063,14.063,0,0,1,1.442,3.823,17.655,17.655,0,0,1,.168,2.738,8.484,8.484,0,0,1-1.59,4.445c-.395.595.631,2.767,1.055,3.408h0c.03.046.067.095.1.144h-.034a20.049,20.049,0,0,0,4.309-.8,4.8,4.8,0,0,1,2.563.034A13.251,13.251,0,0,0,75.5,82.964,5.89,5.89,0,0,1,78.44,85.334Z"></path><path style="fill:#fff" d="M69.552,107.839a7.264,7.264,0,0,1,1.745-.634c.445-.229,1-.409,1.343-.586a4.545,4.545,0,0,0,1.79-2.323,1.039,1.039,0,0,0,.4.3,1.057,1.057,0,0,1-.4-.293c-.037-.155-.074-.312-.108-.48a5.118,5.118,0,0,0-1.121-2.306h0l-.06-.074a15.2,15.2,0,0,0-1.155-1.212A12.086,12.086,0,0,1,70.157,98a5.482,5.482,0,0,1-1.469-.7,10.224,10.224,0,0,1-1.116-1.106h0a1.424,1.424,0,0,1-.355-.371,2.731,2.731,0,0,1-.38-.963h0c-1.052-1.54-1.37-4.967-.512-7.789a13.251,13.251,0,0,0,3.227,20.774Z"></path><path style="fill:#fff;fill-rule:evenodd;isolation:isolate;opacity:0.4000000059604645" d="M87.618,102.422a4.8,4.8,0,0,0-2.563-.034,20.049,20.049,0,0,1-4.309.8c-.54.974-2.876,1.539-3.24,1.615a3.606,3.606,0,0,1-3.076-.507,4.545,4.545,0,0,1-1.79,2.323c-.347.177-.9.357-1.343.586a7.264,7.264,0,0,0-1.745.634,13.246,13.246,0,0,0,17.98-5.257Z"></path><path style="fill:#fff;fill-rule:evenodd;isolation:isolate;opacity:0.5" d="M78.464,85.928a1.863,1.863,0,0,1,.466.2,7.676,7.676,0,0,0-.49-.8,5.885,5.885,0,0,0-2.941-2.37,13.269,13.269,0,0,0-9.174,4.1c-.858,2.822-.54,6.249.512,7.789a3.761,3.761,0,0,1,0-1.395,4.333,4.333,0,0,1,.137-.55,9.765,9.765,0,0,1,2.346-3.628,10.332,10.332,0,0,1,3.51-2.5C74.467,86.1,76.483,85.405,78.464,85.928Z"></path><path style="fill:#fff;isolation:isolate;opacity:0.800000011920929" d="M99.294,123.647a13.283,13.283,0,0,0-1.29-2.7c-.111.181-.223.362-.33.543a2.9,2.9,0,0,1,1.078,2.08c-.02.8-.79,1.6-1.568,1.394a4.264,4.264,0,0,1,.823,2.2,3.518,3.518,0,0,1-.518,2.328,2.192,2.192,0,0,1-2.091.969,1.612,1.612,0,0,1-.29,1.993,3.362,3.362,0,0,1-1.985.829,4.561,4.561,0,0,1-1.99-.176c.255,1.416,1.361,2.3,3.211,3.277.073.039.142.078.214.118l1.758-.216a4.29,4.29,0,0,1,.6-.027l.014-.042c.064-.017.129-.021.194-.035A13.234,13.234,0,0,0,99.294,123.647Z"></path><path style="fill:#fff;isolation:isolate;opacity:0.800000011920929" d="M82.793,140.567a17.453,17.453,0,0,1,3.44-1.776v-.078a4.42,4.42,0,0,0-1.334-2.864,7.682,7.682,0,0,1-1.555.6c-2.776.686-4.206-3.821-5.036-8.943-.007-.045-.01-.087-.017-.132-.008.02-.019.038-.028.058a.037.037,0,0,1-.049.02h0a.04.04,0,0,1-.022-.042c.017-.087.046-.174.071-.261a10.338,10.338,0,0,1,.075-3.474c-.037.03-.078.059-.113.088-.454.374-1.489,1.12-2.121.975-.367-.083-.381-.34-.652-.524-.442-.3-.868-.286-1.139-.835a13.222,13.222,0,0,0,7.845,16.976c.21.078.421.149.635.216Z"></path><path style="fill:#fff;isolation:isolate;opacity:0.800000011920929" d="M89.229,128.65c-.335-.531-.98-.823-1.259-1.385-.287-.58-.28-1.5-.92-1.587-.207-.029-.42.058-.624.013-.687-.151-.477-1.428-1.144-1.651-.27-.09-.562.05-.847.036a2.229,2.229,0,0,1-.955-.453,2.819,2.819,0,0,0-2.985.168,17.7,17.7,0,0,0-.384,5.758c.017.173.051.5.242.585.576.246,1.024-.616,1.536.128a1.688,1.688,0,0,1,.227.937c.007.518-.045,1.035-.065,1.553a3.532,3.532,0,0,0,.789-.243,2.724,2.724,0,0,0,.762-.482l.006,0a.11.11,0,0,1,.156.008.112.112,0,0,1,.015.129,1.919,1.919,0,0,1-.778.684,3.589,3.589,0,0,1-.956.32,3.747,3.747,0,0,0,.186,1.193,2.369,2.369,0,0,0,.214.449c.345.559.939.973,1.269,1.519,2.142-.656,4.031-2.318,5.932-4.563C89.3,130.761,89.794,129.546,89.229,128.65Zm-7.2-.492c-.159.023-.331-.252-.383-.613s.034-.674.194-.7.331.251.384.613-.034.676-.194.7Zm1.321-1.91a.037.037,0,0,1-.047-.006,1.6,1.6,0,0,0-.985-.508,2.333,2.333,0,0,0-.554,0c-.186.019-.369.055-.564.084h0a.071.071,0,0,1-.079-.059.067.067,0,0,1,.032-.068,1.592,1.592,0,0,1,1.208-.181,1.64,1.64,0,0,1,1,.685.038.038,0,0,1-.008.052h0Z"></path><path style="fill:#fff;isolation:isolate;opacity:0.6000000238418579" d="M86.233,138.713v.078c.233-.089.468-.178.712-.262l.357-.224c0-.032-.007-.064-.008-.1a5.676,5.676,0,0,1,.487-2.241,13.07,13.07,0,0,1,2.2-3.628,1.868,1.868,0,0,1-.329-.553.043.043,0,0,0-.006-.026,15.7,15.7,0,0,1-4.757,4.081A4.412,4.412,0,0,1,86.233,138.713Z"></path><path style="fill:#fff" d="M96.926,136.21l-.014.042a4.29,4.29,0,0,0-.6.027l-1.758.216c-.072-.04-.141-.079-.214-.118-1.85-.979-2.956-1.861-3.211-3.277a2.5,2.5,0,0,1-1.152-.76,13.07,13.07,0,0,0-2.2,3.628,5.676,5.676,0,0,0-.487,2.241c0,.032.006.064.008.1l-.357.224a18.078,18.078,0,0,0-4.171,2.031,13.189,13.189,0,0,0,14.346-4.385C97.055,136.189,96.99,136.2,96.926,136.21Z"></path><path style="fill:#fff;isolation:isolate;opacity:0.6000000238418579" d="M82.231,134.356a3.747,3.747,0,0,1-.186-1.193h-.017a2.979,2.979,0,0,1-1.036-.014,1.365,1.365,0,0,1-.887-.561.1.1,0,0,1,.147-.13h0a1.618,1.618,0,0,0,.8.331,2.72,2.72,0,0,0,.9-.024.468.468,0,0,0,.09-.02c.02-.518.072-1.035.065-1.553a1.688,1.688,0,0,0-.227-.937c-.512-.744-.96.118-1.536-.128-.191-.082-.225-.412-.242-.585a17.7,17.7,0,0,1,.384-5.758c-.035.022-.072.04-.106.064-.392-1.24-1.383-.707-2.05-.185a10.335,10.335,0,0,0-.074,3.469,1.751,1.751,0,0,1,.256-.563.974.974,0,0,1,.8-.418.072.072,0,0,1,.068.074.073.073,0,0,1-.036.058c-.126.074-.246.13-.357.2a1.52,1.52,0,0,0-.307.234,2.16,2.16,0,0,0-.4.648c.007.045.009.087.016.133.83,5.122,2.26,9.629,5.036,8.943.126-.031.246-.084.37-.121-.33-.546-.924-.96-1.269-1.519A2.411,2.411,0,0,1,82.231,134.356Zm-3.2-6.155c-.04-.277.026-.515.148-.533s.253.192.293.469-.026.514-.148.532-.249-.192-.289-.468Z"></path><ellipse style="fill:#fff;isolation:isolate;opacity:0.15000000596046448" transform="translate(-17.555 12.685) rotate(-8.242)" ry="0.506" rx="0.223" cy="128.169" cx="79.255"></ellipse><ellipse style="fill:#fff;isolation:isolate;opacity:0.15000000596046448" transform="translate(-17.432 13.063) rotate(-8.242)" ry="0.662" rx="0.292" cy="127.502" cx="81.936"></ellipse><path style="fill:#fff;isolation:isolate;opacity:0.15000000596046448" d="M81.152,125.7a1.592,1.592,0,0,1,1.208-.181,1.64,1.64,0,0,1,1,.685.037.037,0,0,1-.011.051.037.037,0,0,1-.047-.006,1.6,1.6,0,0,0-.985-.508,2.333,2.333,0,0,0-.554,0c-.186.019-.369.055-.564.084h0a.071.071,0,0,1-.079-.059A.068.068,0,0,1,81.152,125.7Z"></path><path style="fill:#fff;isolation:isolate;opacity:0.15000000596046448" d="M79.357,126.3c-.126.074-.246.13-.357.2a1.52,1.52,0,0,0-.307.234,2.29,2.29,0,0,0-.43.707.037.037,0,0,1-.049.02h0a.04.04,0,0,1-.022-.042,2.032,2.032,0,0,1,.329-.83.974.974,0,0,1,.8-.418.072.072,0,0,1,.068.074h0A.077.077,0,0,1,79.357,126.3Z"></path><path style="fill:#fff;isolation:isolate;opacity:0.15000000596046448" d="M80.256,132.465a1.618,1.618,0,0,0,.8.331,2.72,2.72,0,0,0,.9-.024,3.466,3.466,0,0,0,.879-.263,2.724,2.724,0,0,0,.762-.482l.006,0a.11.11,0,0,1,.156.008.112.112,0,0,1,.015.129,1.919,1.919,0,0,1-.778.684,3.606,3.606,0,0,1-.973.324,2.979,2.979,0,0,1-1.036-.014,1.365,1.365,0,0,1-.887-.561.1.1,0,0,1,.147-.13Z"></path><path style="fill:#fff;fill-rule:evenodd;isolation:isolate;opacity:0.20000000298023224" d="M82.467,115.4a13.22,13.22,0,0,0-8.154,7.983c.271.549.7.536,1.139.835.271.184.285.441.652.524.632.145,1.667-.6,2.121-.975.662-.545,1.749-1.215,2.164.1a2.849,2.849,0,0,1,3.091-.232,2.229,2.229,0,0,0,.955.453c.285.014.577-.126.847-.036.667.223.457,1.5,1.144,1.651.2.045.417-.042.624-.013.64.09.633,1.007.92,1.587.279.562.924.854,1.259,1.385.57.9.06,2.133.423,3.137.464,1.282,2.12,1.665,3.471,1.489a3.362,3.362,0,0,0,1.985-.829,1.612,1.612,0,0,0,.29-1.993,2.192,2.192,0,0,0,2.091-.969A3.519,3.519,0,0,0,98,127.157a4.264,4.264,0,0,0-.823-2.2c.778.208,1.548-.59,1.568-1.394a2.9,2.9,0,0,0-1.078-2.08c.107-.181.219-.362.33-.543A13.251,13.251,0,0,0,82.467,115.4Z"></path><path style="fill:#fff;isolation:isolate;opacity:0.800000011920929" d="M93.375,160.432c.691,1.965,1.487,3.049,3.905,3.318.449.049,2.008-.089,2.094,1.431a6.225,6.225,0,0,0,.595-3.634c-.061-.261-.117-.525-.177-.789-.047.04-.1.077-.146.112l-.009.007c-.05.034-.1.067-.152.1h0c-.05.029-.1.056-.152.081l-.03.015c-.05.024-.1.047-.153.068a2.133,2.133,0,0,1-.927.155.084.084,0,0,1-.075-.092.083.083,0,0,1,.063-.073h0c.143-.031.282-.072.419-.113a3.9,3.9,0,0,0,.4-.157,1.677,1.677,0,0,0,.186-.1c.061-.038.114-.069.169-.107h0a2.133,2.133,0,0,0,.312-.265h0a4.92,4.92,0,0,0-.731-1.718.58.58,0,0,0-.409-.289.65.65,0,0,0-.348.136c-.139.087-.46.348-.627.336s-.272-.246-.329-.369A13.815,13.815,0,0,1,96,153.362c-.064.041-.127.08-.191.118-2.508,1.458-5.234.991-4.056,3.869A28.351,28.351,0,0,1,93.375,160.432Zm2.424-3.18c.165.332.179.66.033.733s-.4-.138-.564-.47-.18-.66-.033-.733.4.137.568.47ZM93.867,156.1a2.285,2.285,0,0,1,.5-.356,1.4,1.4,0,0,1,.592-.172.123.123,0,0,1,.126.118h0a.122.122,0,0,1-.039.093h0a2.853,2.853,0,0,1-.469.334l-.481.285a4.245,4.245,0,0,0-.874.729.065.065,0,0,1-.1-.074A3.165,3.165,0,0,1,93.867,156.1Z"></path><path style="fill:#fff;isolation:isolate;opacity:0.15000000596046448" d="M95.235,156.782c-.147.072-.132.4.033.733s.417.543.564.47.132-.4-.033-.733S95.381,156.709,95.235,156.782Z"></path><path style="fill:#fff;isolation:isolate;opacity:0.15000000596046448" d="M97.988,155.221c-.146.073-.132.4.033.734s.418.542.564.47.132-.4-.033-.734S98.135,155.148,97.988,155.221Z"></path><path style="fill:#fff;isolation:isolate;opacity:0.15000000596046448" d="M100.463,158.764a.092.092,0,0,0-.108.073h0v.007a4.387,4.387,0,0,1-.2.836,2.1,2.1,0,0,1-.441.7,2.261,2.261,0,0,1-.679.479,3.9,3.9,0,0,1-.4.157c-.137.041-.276.082-.419.113h0a.083.083,0,0,0-.061.1.084.084,0,0,0,.073.063,2.133,2.133,0,0,0,.927-.155,2.29,2.29,0,0,0,.8-.527,2.18,2.18,0,0,0,.493-.827,2.391,2.391,0,0,0,.094-.936A.093.093,0,0,0,100.463,158.764Z"></path><path style="fill:#fff;isolation:isolate;opacity:0.15000000596046448" d="M96.79,154.741a5.846,5.846,0,0,0,.644-.2c.208-.073.417-.146.629-.216a4.269,4.269,0,0,1,1.328-.2h0a.063.063,0,0,0,.018-.123,2.684,2.684,0,0,0-.712-.1,4.564,4.564,0,0,0-.72.052,2.864,2.864,0,0,0-.7.188,1.691,1.691,0,0,0-.607.4.121.121,0,0,0,0,.17.123.123,0,0,0,.113.03Z"></path><path style="fill:#fff;isolation:isolate;opacity:0.15000000596046448" d="M95.049,155.788a.122.122,0,0,0,.039-.093.123.123,0,0,0-.126-.118h0a1.4,1.4,0,0,0-.592.172,2.285,2.285,0,0,0-.5.356,3.171,3.171,0,0,0-.747.963.065.065,0,0,0,.1.074,4.245,4.245,0,0,1,.874-.729l.481-.285a2.853,2.853,0,0,0,.469-.334Z"></path><path style="fill:#fff;isolation:isolate;opacity:0.30000001192092896" d="M109.108,164.358a3.809,3.809,0,0,0,.04-.683c-.054-1.336-1.235-2.478-1.958-3.545-.944-1.393-2.075-2.75-2.31-4.477-1.247-9.181-4.838-8.59-4.838-8.59a4.23,4.23,0,0,1-.582-.263,3.849,3.849,0,0,0-.506-.3,13.171,13.171,0,0,0-5.641.632c-.194.066-.376.151-.565.225a10.259,10.259,0,0,0-1.474,1.48c-1.69,2.054-1.588,4.044-3.358,5.981s-2.335,3.968-1.226,5.647c.839,1.269,2.106,2.2,2.9,3.506.951,1.574.259,3.031.864,4.667a2.528,2.528,0,0,0,1.517,1.6,2.443,2.443,0,0,0,1.532-.082,8.3,8.3,0,0,1,1.145-.882l3.99-2.749c.46-.738.74-1.313.74-1.313-.071-1.546-1.644-1.405-2.1-1.455-2.418-.269-3.214-1.353-3.905-3.318a28.374,28.374,0,0,0-1.622-3.083c-1.178-2.878,1.548-2.411,4.056-3.869.136-.079.268-.178.4-.273.094-.067.189-.133.282-.207s.192-.162.287-.246.181-.157.269-.241.183-.184.273-.277.17-.173.251-.263.172-.2.257-.3.154-.177.226-.266.163-.206.242-.309c.065-.084.133-.169.194-.251.081-.109.154-.212.228-.316.051-.072.106-.146.153-.214.08-.116.149-.221.219-.327.032-.048.07-.1.1-.149.1-.146.179-.279.249-.394a.433.433,0,0,1,.666-.087,17.55,17.55,0,0,1,2.809,3.587.48.48,0,0,0,.588.2h0v.007a.5.5,0,0,1,.149-.028c.517-.01,1,.787,1.091,1.78a1.84,1.84,0,0,1-.446,1.265.74.74,0,0,0-.113.189,8.317,8.317,0,0,1-.088,2.951,9.508,9.508,0,0,1-.869,1.828,3.277,3.277,0,0,0-.194.551c-.015.057-.019.111-.031.168a3.321,3.321,0,0,0-.059.357c-.006.064,0,.125,0,.188,0,.1-.006.21,0,.311a1.5,1.5,0,0,0,.024.189c.013.095.025.19.044.282.014.064.031.126.048.188.023.086.045.172.072.255.022.064.045.126.068.189s.057.152.088.226.055.13.084.194.06.132.09.2c.041.086.082.172.122.253h0l2.774-.609a4.656,4.656,0,0,1,2.668.25A.679.679,0,0,1,109.108,164.358Z"></path><path style="fill:#fff" d="M109.025,164.335a4.656,4.656,0,0,0-2.668-.25l-2.774.609a3.883,3.883,0,0,1-.353-3.549,9.508,9.508,0,0,0,.869-1.828,8.317,8.317,0,0,0,.088-2.951.74.74,0,0,1,.113-.189,1.84,1.84,0,0,0,.446-1.265c-.086-.993-.574-1.79-1.091-1.78a.5.5,0,0,0-.149.028v-.007h0a.48.48,0,0,1-.588-.2,17.55,17.55,0,0,0-2.809-3.587.431.431,0,0,0-.666.087A13.334,13.334,0,0,1,96,153.362a13.814,13.814,0,0,0,1.258,5.118c.057.123.167.358.329.369s.488-.249.627-.336a.65.65,0,0,1,.348-.136.583.583,0,0,1,.409.289,4.92,4.92,0,0,1,.731,1.718l.007-.006a2.1,2.1,0,0,0,.441-.7,4.387,4.387,0,0,0,.2-.836v-.007a.092.092,0,0,1,.183.01,2.391,2.391,0,0,1-.094.936,2.18,2.18,0,0,1-.493.827q-.076.078-.159.147c.06.264.116.528.177.789a6.225,6.225,0,0,1-.595,3.634v.024s-.28.575-.74,1.313l-3.99,2.749a7.541,7.541,0,0,0-2.477,2.478,13.213,13.213,0,0,0,17.486-6.591c.086-.188.166-.379.243-.571A7.951,7.951,0,0,0,109.025,164.335Zm-10.44-7.91c-.146.072-.4-.138-.564-.47s-.179-.661-.033-.734.4.138.564.47S98.732,156.352,98.585,156.425Zm.807-2.3h0a4.269,4.269,0,0,0-1.328.2c-.212.07-.421.143-.629.216a5.846,5.846,0,0,1-.644.2h0a.12.12,0,0,1-.115-.2,1.691,1.691,0,0,1,.607-.4,2.864,2.864,0,0,1,.7-.188,4.564,4.564,0,0,1,.72-.052,2.684,2.684,0,0,1,.712.1.063.063,0,0,1,.041.079.064.064,0,0,1-.059.044Z"></path><path style="fill:#fff;isolation:isolate;opacity:0.6000000238418579" d="M92.151,171.8a7.079,7.079,0,0,1,1.35-1.641,3.762,3.762,0,0,1-.4.11c-.06.012-.12.018-.181.027a2.362,2.362,0,0,1-.314.027h-.161a1.976,1.976,0,0,1-.477-.08,2.528,2.528,0,0,1-1.517-1.6c-.6-1.636.087-3.093-.864-4.667-.792-1.309-2.059-2.237-2.9-3.506-1.109-1.679-.545-3.71,1.226-5.647a7.3,7.3,0,0,0,1.034-1.463,14.9,14.9,0,0,0,.675-1.484,10.785,10.785,0,0,1,1.649-3.034,10.364,10.364,0,0,1,1.366-1.389,13.237,13.237,0,0,0-.489,24.345Z"></path><path style="fill:#fff;isolation:isolate;opacity:0.6000000238418579" d="M99.46,146.8a4.036,4.036,0,0,0,.392.189c.112.046.19.074.19.074a2.624,2.624,0,0,1,2.151,1.053,5.768,5.768,0,0,1,.405.491,7.275,7.275,0,0,1,.406.621c.135.231.269.485.4.767.065.14.13.288.194.442a15.97,15.97,0,0,1,.716,2.211,27.522,27.522,0,0,1,.566,3c.235,1.727,1.366,3.084,2.31,4.477.723,1.067,1.9,2.209,1.958,3.545a3.909,3.909,0,0,1-.038.675h0a7.652,7.652,0,0,1,.784.231,13.21,13.21,0,0,0-10.8-18.008A3.7,3.7,0,0,1,99.46,146.8Z"></path><path style="fill:#fff;isolation:isolate;opacity:0.5" d="M107.2,198.256a9.125,9.125,0,0,1-4.167-2.911c-.363-.468-1.375-2.194-1.629-2.632a22.248,22.248,0,0,1-2.954-4.835c-.494-1.626.083-2.4.548-2.743a.837.837,0,0,0,.331-.817,5.015,5.015,0,0,1-.021-1.631,6.7,6.7,0,0,1,.385-1.236,13.234,13.234,0,0,0,3.31,22.029c.345-.2.695-.328.991-.49.734-.252,2.978-1,3.986-1.4.116-.046.256-.092.4-.138a3.735,3.735,0,0,0-.077-.876C108.2,199.944,107.924,198.532,107.2,198.256Z"></path><path style="fill:#fff;isolation:isolate;opacity:0.5" d="M120.986,187.121a13.247,13.247,0,0,0-14.728-8.772c.874.657,1.576,1.652,2.654,2a2.935,2.935,0,0,0,1.423-.091c1.693-.536,3.346,1.106,2.775,3.358a8.941,8.941,0,0,0,.366,3.144c.017,0,.032-.011.049-.013.539-.044,1.1.755,1.258,1.785a1.781,1.781,0,0,1-.334,1.233.938.938,0,0,0-.148.347c.478,1.1-.178,2.382-.311,3.358-.091.662-.183,1.266-.247,1.845h0c-.015.134-.023.263-.034.4s-.024.283-.03.422v.294c0,.2,0,.405.014.6v.024a.987.987,0,0,0,.016.109q.039.306.106.61c.857,2.077,3.119.92,5.512,1.185A13.225,13.225,0,0,0,120.986,187.121Z"></path><path style="fill:#fff" d="M114.783,188.527c-.155-1.03-.719-1.829-1.258-1.785a.532.532,0,0,0-.162.043v-.006l-.014.007a.481.481,0,0,1-.593-.157c-.48-.655-2.323-4-3.405-4.1-2.267-.192-3.511,2.443-5.322,3.7a5.3,5.3,0,0,1,2.22,3.673c.129.717.21,1.444.407,2.146a.95.95,0,0,0,.549.725c.3.083.63-.111.923-.008a.874.874,0,0,1,.386.341,5.451,5.451,0,0,1,.632,1.3c.068-.05.143-.089.209-.142A7.325,7.325,0,0,0,110.57,193a.087.087,0,0,1,.123-.013.089.089,0,0,1,.027.1,3.806,3.806,0,0,1-1.147,1.453c-.1.077-.2.149-.309.219a7.521,7.521,0,0,1,.324,1.6c.042.582-.036,1.747-.036,1.747a7.709,7.709,0,0,0,4.182-2.7c.065-.607.164-1.244.26-1.942.133-.976.789-2.253.311-3.358a.931.931,0,0,1,.148-.347A1.781,1.781,0,0,0,114.783,188.527Zm-6.354,1.055c-.154.075-.416-.147-.586-.5s-.184-.693-.03-.768.417.147.587.5.183.688.029.763Zm1.011-2.51a.226.226,0,0,1-.123.118h0a4.479,4.479,0,0,1-1.176.2c-.2.015-.39.023-.587.032a1.955,1.955,0,0,1-.61-.051h0a.208.208,0,0,1-.148-.256h0a.209.209,0,0,1,.074-.11,1.519,1.519,0,0,1,.588-.264,4.345,4.345,0,0,1,.622-.106,2.6,2.6,0,0,1,1.256.141A.225.225,0,0,1,109.44,187.072Z"></path><path style="fill:#fff;isolation:isolate;opacity:0.800000011920929" d="M109.548,198.106s.078-1.165.036-1.747a7.521,7.521,0,0,0-.324-1.6,3.6,3.6,0,0,1-1.361.584.1.1,0,0,1-.058-.184,7.784,7.784,0,0,0,1.3-.751,5.451,5.451,0,0,0-.632-1.3.874.874,0,0,0-.386-.341c-.293-.1-.623.091-.923.008a.95.95,0,0,1-.549-.725,21.822,21.822,0,0,1-.407-2.146,5.3,5.3,0,0,0-2.22-3.673,3.145,3.145,0,0,1-2.8.524.444.444,0,0,0-.535.33.46.46,0,0,0-.011.111,18.479,18.479,0,0,0,.672,5.41s1.272,2.2,1.689,2.734a9.125,9.125,0,0,0,4.167,2.911c.718.276.994,1.688,1.107,2.321a2.641,2.641,0,0,1-.024,1.367,10.238,10.238,0,0,0,5.4-4.9,8.822,8.822,0,0,1,.041-1.633A7.709,7.709,0,0,1,109.548,198.106Zm-5.767-8.817a4.42,4.42,0,0,1-1.062.543h0a.226.226,0,0,1-.258-.327,2.59,2.59,0,0,1,.924-.862,4.364,4.364,0,0,1,.562-.286,1.514,1.514,0,0,1,.629-.139.21.21,0,0,1,.2.212.219.219,0,0,1-.045.125h0a2,2,0,0,1-.459.406c-.164.113-.326.224-.491.328Zm1.6,1.579c-.154.075-.417-.147-.587-.5s-.183-.692-.029-.767.417.147.587.5.18.694.026.767Z"></path><path style="fill:#fff;isolation:isolate;opacity:0.15000000596046448" d="M110.716,193.1a3.806,3.806,0,0,1-1.147,1.453,3.893,3.893,0,0,1-1.67.8.1.1,0,0,1-.058-.184,7.089,7.089,0,0,0,1.51-.893A7.325,7.325,0,0,0,110.566,193a.087.087,0,0,1,.123-.013.089.089,0,0,1,.027.1Z"></path><ellipse style="fill:#fff;isolation:isolate;opacity:0.15000000596046448" transform="translate(-71.886 66.517) rotate(-25.999)" ry="0.703" rx="0.31" cy="188.952" cx="108.12"></ellipse><ellipse style="fill:#fff;isolation:isolate;opacity:0.15000000596046448" transform="translate(-72.759 65.31) rotate(-25.999)" ry="0.703" rx="0.31" cy="190.237" cx="105.07"></ellipse><path style="fill:#fff;isolation:isolate;opacity:0.15000000596046448" d="M104.73,188.559a2,2,0,0,1-.459.406c-.163.109-.325.22-.49.324a4.42,4.42,0,0,1-1.062.543h0a.226.226,0,0,1-.258-.327,2.59,2.59,0,0,1,.924-.862,4.364,4.364,0,0,1,.562-.286,1.514,1.514,0,0,1,.629-.139.21.21,0,0,1,.2.212.219.219,0,0,1-.045.125Z"></path><path style="fill:#fff;isolation:isolate;opacity:0.15000000596046448" d="M106.862,187a1.519,1.519,0,0,1,.588-.264,4.345,4.345,0,0,1,.622-.106,2.6,2.6,0,0,1,1.256.141.227.227,0,0,1,.112.3.231.231,0,0,1-.123.117h0a4.479,4.479,0,0,1-1.176.2c-.2.015-.39.023-.587.032a1.926,1.926,0,0,1-.61-.052h0a.208.208,0,0,1-.148-.256h0A.212.212,0,0,1,106.862,187Z"></path><path style="fill:#fff" d="M119.323,198.954c-2.414-.265-4.7.916-5.535-1.236a5.541,5.541,0,0,1-.1-.678,9.256,9.256,0,0,1-.518.922c-.045.07-.089.14-.135.208-.184.273-.375.535-.576.777-.033.038-.067.072-.1.11-.174.2-.353.391-.535.571-.07.069-.138.137-.209.2-.193.18-.388.351-.584.507-.1.079-.193.147-.29.22s-.217.16-.325.234a10.783,10.783,0,0,1-2.128,1.153,1.74,1.74,0,0,0,.092-.489c-.144.045-.281.091-.395.136-1.008.4-3.252,1.147-3.986,1.4-.3.162-.646.294-.991.49a13.194,13.194,0,0,0,16.314-4.526Z"></path><path style="fill:#fff;isolation:isolate;opacity:0.30000001192092896" d="M104.159,178.866a13.176,13.176,0,0,0-4.46,2.585,6.7,6.7,0,0,0-.385,1.236,5.015,5.015,0,0,0,.021,1.631.837.837,0,0,1-.331.817c-.465.343-1.042,1.117-.548,2.743a22.248,22.248,0,0,0,2.954,4.835l-.06-.1a18.475,18.475,0,0,1-.672-5.41.444.444,0,0,1,.435-.453.42.42,0,0,1,.111.012,3.145,3.145,0,0,0,2.8-.524c1.811-1.26,3.055-3.9,5.322-3.7,1.082.092,2.925,3.441,3.405,4.1a.481.481,0,0,0,.593.157l.014-.007v.006a.537.537,0,0,1,.113-.03,8.941,8.941,0,0,1-.366-3.144c.571-2.252-1.082-3.894-2.775-3.358a2.935,2.935,0,0,1-1.423.091c-1.078-.343-1.78-1.338-2.654-2A13.206,13.206,0,0,0,104.159,178.866Z"></path><path style="fill:#fff;isolation:isolate;opacity:0.20000000298023224" d="M86.02,55.374a2.378,2.378,0,0,1-1.187-4.591l50.9-17.4a2.378,2.378,0,0,1,1.538,4.5l-50.9,17.4A2.382,2.382,0,0,1,86.02,55.374Z"></path><path style="fill:#fff;isolation:isolate;opacity:0.20000000298023224" d="M88.923,63.868a2.378,2.378,0,0,1-1.187-4.591l34.7-11.858a2.378,2.378,0,0,1,1.538,4.5l-34.7,11.858A2.382,2.382,0,0,1,88.923,63.868Z"></path><path style="fill:#fff;isolation:isolate;opacity:0.20000000298023224" d="M96.866,87.111a2.378,2.378,0,0,1-1.187-4.591l40.56-13.861a2.378,2.378,0,0,1,1.538,4.5L97.217,87.02A2.382,2.382,0,0,1,96.866,87.111Z"></path><path style="fill:#fff;isolation:isolate;opacity:0.20000000298023224" d="M99.768,95.606a2.378,2.378,0,0,1-1.187-4.592l13.943-4.764a2.378,2.378,0,0,1,1.538,4.5L100.12,95.514A2.53,2.53,0,0,1,99.768,95.606Z"></path><path style="fill:#fff;isolation:isolate;opacity:0.20000000298023224" d="M110.608,127.325a2.378,2.378,0,0,1-1.187-4.591l13.943-4.765a2.378,2.378,0,0,1,1.538,4.5l-13.943,4.765A2.382,2.382,0,0,1,110.608,127.325Z"></path><path style="fill:#fff;isolation:isolate;opacity:0.20000000298023224" d="M129.4,182.305a2.378,2.378,0,0,1-1.187-4.592l50.905-17.4a2.378,2.378,0,0,1,1.538,4.5l-50.9,17.4A2.622,2.622,0,0,1,129.4,182.305Z"></path><path style="fill:#fff;isolation:isolate;opacity:0.20000000298023224" d="M132.3,190.8a2.378,2.378,0,0,1-1.187-4.591l15.055-5.145a2.378,2.378,0,0,1,1.538,4.5L132.654,190.7A2.385,2.385,0,0,1,132.3,190.8Z"></path><path style="fill:#fff;isolation:isolate;opacity:0.4000000059604645" d="M46,164.556a11.385,11.385,0,0,1,1.8-.011c3.777.286,10.777,1.72,18.516,3.438l-2.262-.691-.025-.008-2.346-.714c-5.658-1.718-24.62-9.695-29.6-12.877a23.6,23.6,0,0,1-6.769-6.385,6.2,6.2,0,0,1-.549-1.092A18.021,18.021,0,0,0,34.9,159.789C37.325,160.952,41.37,162.673,46,164.556Z"></path><path style="fill:#fff;isolation:isolate;opacity:0.4000000059604645" d="M63.722,197.305c2.563.406,8.631,1.84,14.925,3.415h-.015l-1.258-.332-.2-.053c-.9-.239-1.848-.492-2.829-.758l-.25-.068-1.244-.338-.3-.083c-.984-.27-1.987-.549-2.994-.834l-.377-.107-1.2-.341-.333-.1-1.5-.436-.181-.054q-.636-.187-1.259-.375l-.422-.127c-.374-.113-.742-.226-1.107-.338l-.328-.1q-.682-.213-1.339-.422l-.3-.1q-.511-.165-1-.328l-.382-.127q-.531-.177-1.033-.352l-.176-.06c-.384-.134-.751-.266-1.1-.4l-.281-.1q-.395-.148-.761-.292l-.279-.11c-.311-.125-.609-.247-.88-.366A98.965,98.965,0,0,1,43.9,188.257a49.129,49.129,0,0,1-9.044-6.48c1,4.557,4.209,9,10.438,11.893,2.665,1.236,6.733,2.646,11.116,4.114A15,15,0,0,1,63.722,197.305Z"></path><path style="fill:#fff;isolation:isolate;opacity:0.800000011920929" d="M51.677,129.638c2.689.733,5.562,1.454,8.55,2.156l-9.454-27.665c-6.352.274-12.823,2.5-15.291,8.465a14.594,14.594,0,0,0-.506,9.308C39.171,126.922,46.848,128.32,51.677,129.638Z"></path><path style="fill:#fff;opacity:0.4" d="M51.677,129.638c-4.829-1.318-12.506-2.716-16.7-7.736a15.772,15.772,0,0,0,6.906,9.4c.373.07.742.151,1.106.237l.268.067c.274.067.544.139.812.217.107.031.213.061.319.093.254.077.5.158.749.242.1.033.2.064.29.1.331.118.654.24.966.37,4.65,1.933,10.22,3.976,16.17,6l-2.336-6.833h0C57.239,131.1,54.366,130.371,51.677,129.638Z"></path><path style="fill:#fff;opacity:0.4" d="M51.677,129.638c-4.829-1.318-12.506-2.716-16.7-7.736a15.772,15.772,0,0,0,6.906,9.4c.373.07.742.151,1.106.237l.268.067c.274.067.544.139.812.217.107.031.213.061.319.093.254.077.5.158.749.242.1.033.2.064.29.1.331.118.654.24.966.37,4.65,1.933,10.22,3.976,16.17,6l-2.336-6.833h0C57.239,131.1,54.366,130.371,51.677,129.638Z"></path><path style="fill:#fff;isolation:isolate;opacity:0.800000011920929" d="M267.844,237.778c-4-9.032-4.585-28.239-6.329-37.562-.065-.348-.13-.682-.2-1.024-2.749-37.251-13.385-57.868-23.332-70.128-3.781-4.661-10.431-12.692-17.473-16.725a31.74,31.74,0,0,0-6.2-3.4c-10.024-4.082-21.219-4.2-31.875-4.539l-20.473-.64a11.736,11.736,0,0,1,1.43,8.136c-.618,2.384-1.213,3.757-3.611,4.851-3.025,1.38-7.949-.235-10.571-1.555a8.8,8.8,0,0,1-4.8-5.92,13.992,13.992,0,0,1,.144-5.578A8.365,8.365,0,0,0,139.1,107,13.6,13.6,0,0,0,136.967,117c1.26,6.494,6.673,11.473,11.612,14.7a50.035,50.035,0,0,0,19.664,7.272,64,64,0,0,0,6.51.681c15.594.84,18.145,3.429,25.828,9.038.221.616.451,1.244.7,1.9,3.734,9.91,7.062,28.317,14.619,42.529l1.878,5.5a11,11,0,0,1-6.851,13.964l-95.97,32.8a10.984,10.984,0,0,1-10.8-2.145,10.984,10.984,0,0,1-8.308-7.231L62.562,138.625c-5.95-2.026-11.52-4.069-16.17-6-4.378-1.82-10.808-2.565-15.063-.474-5.28,2.594-7.419,8.325-6.566,14.067a6.2,6.2,0,0,0,.549,1.092,23.6,23.6,0,0,0,6.769,6.385c4.984,3.182,23.946,11.159,29.6,12.877,1.594.484,3.133.954,4.633,1.413-7.739-1.718-14.739-3.152-18.516-3.438-8.647-.653-14.857,8.493-12.94,17.232a49.129,49.129,0,0,0,9.044,6.48,98.9,98.9,0,0,0,11.406,5.362c4.833,2.115,16.188,5.225,23.335,7.1-6.294-1.575-12.362-3.009-14.925-3.415-16.964-2.691-20.711,18.352-.5,28.67,16.059,8.2,30.369,15.885,51.173,27.7,8.183,4.647,19.658,16.193,52.157,23.9,21.4,5.072,22.586,19.262,38.184,21.9,24.525,4.142,64.972-16.827,70.277-35.44C276.951,257.242,271.577,246.21,267.844,237.778Z"></path><path style="fill:#fff;fill-rule:evenodd;isolation:isolate;opacity:0.20000000298023224" d="M215.9,193.126c-7.557-14.212-10.885-32.619-14.619-42.529-.246-.655-.476-1.283-.7-1.9-2.089-1.525-3.8-2.826-5.5-3.93L212.626,196.1a11,11,0,0,1-6.851,13.965l-95.97,32.8a10.918,10.918,0,0,1-5.656.381,10.984,10.984,0,0,0,10.8,2.145l95.97-32.8a11,11,0,0,0,6.851-13.964Z"></path><path style="fill:#fff;fill-rule:evenodd;isolation:isolate;opacity:0.20000000298023224" d="M148.155,7.44l33.123,96.924,1.156.036,3.174.1L153.3,9.965A10.984,10.984,0,0,0,145,2.734,10.95,10.95,0,0,1,148.155,7.44Z"></path><path style="fill:#fff;fill-rule:evenodd;isolation:isolate;opacity:0.5" d="M195.085,144.768a25.36,25.36,0,0,0-8.546-3.667l12.092,35.384a11,11,0,0,1-6.851,13.965l-82.908,28.333A11,11,0,0,1,94.9,211.935v0L41.957,56.988A11,11,0,0,1,48.8,43.024L131.716,14.7a11,11,0,0,1,13.964,6.85L173.9,104.133l7.373.231L148.155,7.44A11,11,0,0,0,134.19.589l-95.97,32.8a11,11,0,0,0-6.851,13.964L95.841,236.006a11,11,0,0,0,13.964,6.85l95.97-32.8a11,11,0,0,0,6.851-13.965ZM87.6,21.054A2.944,2.944,0,1,1,85.761,24.8,2.944,2.944,0,0,1,87.6,21.054ZM164.632,215.51l-18.954,6.477a3.383,3.383,0,0,1-4.284-2.1l-.071-.206a3.384,3.384,0,0,1,2.1-4.284l18.955-6.477a3.383,3.383,0,0,1,4.284,2.1l.07.2A3.384,3.384,0,0,1,164.632,215.51Z"></path><path style="fill:#fff;fill-rule:evenodd;isolation:isolate;opacity:0.30000001192092896" d="M186.539,141.1a52.664,52.664,0,0,0-7.04-1.091l.647,1.894a3.37,3.37,0,0,1-2.1,4.279h0L120.3,165.916a3.371,3.371,0,0,1-4.28-2.1h0l-6.264-18.329a3.371,3.371,0,0,1,2.1-4.28h0L145.7,129.644a28.907,28.907,0,0,1-5.738-5.889l-30.5,10.424a3.371,3.371,0,0,1-4.28-2.1h0l-6.264-18.328a3.371,3.371,0,0,1,2.1-4.28h0l57.741-19.732a3.371,3.371,0,0,1,4.28,2.1h0l4.13,12.085,6.738.21L145.68,21.541a11,11,0,0,0-13.964-6.85L48.8,43.024a11,11,0,0,0-6.85,13.964L94.9,211.932a11,11,0,0,0,13.965,6.851l82.908-28.333a11,11,0,0,0,6.851-13.965ZM152.2,60.119l6.264,18.328a3.371,3.371,0,0,1-2.1,4.28h0L98.62,102.46a3.371,3.371,0,0,1-4.28-2.1h0L88.076,82.031a3.371,3.371,0,0,1,2.1-4.28l57.741-19.732a3.371,3.371,0,0,1,4.28,2.1ZM79.33,46.014l57.741-19.732a3.371,3.371,0,0,1,4.28,2.1h0l6.264,18.328a3.371,3.371,0,0,1-2.1,4.28h0L87.774,70.723a3.372,3.372,0,0,1-4.28-2.1L77.231,50.3A3.371,3.371,0,0,1,79.33,46.014ZM52.53,68.762a13.254,13.254,0,1,1,16.828,8.254l-.005,0a13.253,13.253,0,0,1-16.827-8.255h0ZM63.373,100.5A13.255,13.255,0,1,1,80.2,108.756h0A13.255,13.255,0,0,1,63.37,100.5v0Zm10.842,31.719a13.254,13.254,0,1,1,16.828,8.255h0a13.255,13.255,0,0,1-16.831-8.251v0ZM85.1,164.056c-.012-.034-.028-.066-.04-.1s-.018-.069-.029-.1c-.1-.31-.192-.624-.271-.945-.044-.173-.084-.345-.12-.519-.023-.108-.056-.212-.075-.322s-.026-.219-.043-.329c-.042-.268-.077-.535-.1-.8-.013-.141-.025-.281-.033-.421-.022-.332-.03-.663-.026-.992v-.247q.018-.578.085-1.146l.009-.078a13.241,13.241,0,1,1,26.287,3.205l-.008.067-.008.072q-.072.538-.187,1.067c-.022.1-.044.209-.069.313-.065.27-.14.536-.222.8-.053.174-.108.347-.168.518-.068.193-.143.382-.22.571-.093.23-.189.457-.294.681-.061.128-.126.253-.191.38-.139.272-.284.539-.441.8-.045.075-.093.148-.139.222-.191.3-.392.6-.606.888l-.067.086A13.209,13.209,0,0,1,85.1,164.061Zm27.633,39.893a13.253,13.253,0,1,1,8.256-16.828,13.253,13.253,0,0,1-8.256,16.828l0,0ZM188.9,177.921l-57.742,19.733a3.37,3.37,0,0,1-4.279-2.1h0l-6.264-18.329a3.371,3.371,0,0,1,2.1-4.28l57.741-19.732a3.371,3.371,0,0,1,4.28,2.1h0L191,173.641a3.371,3.371,0,0,1-2.1,4.279h0Z"></path><path style="fill:#fff;fill-rule:evenodd" d="M136.966,117.005a13.748,13.748,0,0,1,1.289-8.586l-30.2,10.321a2.527,2.527,0,0,1-.352.091,2.378,2.378,0,0,1-1.186-4.592l42.2-14.422a2.372,2.372,0,0,1,2.71,3.613l15.736.493-4.13-12.085a3.371,3.371,0,0,0-4.28-2.1h0L101.012,109.47a3.371,3.371,0,0,0-2.1,4.28h0l6.264,18.328a3.371,3.371,0,0,0,4.28,2.1h0l30.5-10.424A17.461,17.461,0,0,1,136.966,117.005ZM124.9,122.469l-13.943,4.765a2.376,2.376,0,0,1-3.018-1.478v0a2.377,2.377,0,0,1,1.481-3.019l13.943-4.765a2.378,2.378,0,0,1,1.538,4.5Z"></path><path style="fill:#fff;fill-rule:evenodd" d="M179.5,140.01c-1.44-.139-3.008-.256-4.747-.35a64,64,0,0,1-6.51-.681A54.019,54.019,0,0,1,155.7,135.47a2.375,2.375,0,0,1-1.5,2.945l-35.3,12.062a2.513,2.513,0,0,1-.351.091,2.378,2.378,0,0,1-1.187-4.592L152.5,133.968a43.36,43.36,0,0,1-3.924-2.261c-.952-.623-1.922-1.312-2.877-2.063l-33.839,11.564a3.371,3.371,0,0,0-2.1,4.28h0l6.264,18.329a3.371,3.371,0,0,0,4.28,2.1h0l57.741-19.732a3.369,3.369,0,0,0,2.1-4.278v0Z"></path><path style="fill:#fff;isolation:isolate;opacity:0.20000000298023224" d="M152.5,133.968l-35.138,12.008a2.378,2.378,0,0,0,1.187,4.592,2.513,2.513,0,0,0,.351-.091l35.3-12.062a2.375,2.375,0,0,0,1.5-2.945C154.612,135.014,153.55,134.506,152.5,133.968Z"></path><path style="fill:#fff;isolation:isolate;opacity:0.20000000298023224" d="M139.1,107c2.873-4.055,8.231-3.694,12.14-3.572l.189.006a2.372,2.372,0,0,0-2.71-3.613l-42.2,14.422a2.378,2.378,0,0,0,1.186,4.592,2.527,2.527,0,0,0,.352-.091l30.2-10.321A11.7,11.7,0,0,1,139.1,107Z"></path><path style="fill:#fff;isolation:isolate;opacity:0.4000000059604645" d="M144.55,103.7a13.992,13.992,0,0,0-.144,5.578,8.8,8.8,0,0,0,4.8,5.92c2.622,1.32,7.546,2.935,10.571,1.555,2.4-1.094,2.993-2.467,3.611-4.851a11.736,11.736,0,0,0-1.43-8.136l-10.719-.336A29.477,29.477,0,0,0,144.55,103.7Z"></path></svg>