<?xml version="1.0" encoding="UTF-8" standalone="no"?>
<!DOCTYPE svg PUBLIC "-//W3C//DTD SVG 1.1//EN" "http://www.w3.org/Graphics/SVG/1.1/DTD/svg11.dtd">
<svg width="100%" height="100%" viewBox="0 0 300 300" version="1.1" xmlns="http://www.w3.org/2000/svg" xmlns:xlink="http://www.w3.org/1999/xlink" xml:space="preserve" xmlns:serif="http://www.serif.com/" style="fill-rule:evenodd;clip-rule:evenodd;stroke-linejoin:round;stroke-miterlimit:2;">
    <path d="M33.545,130.764C7.667,116.665 -6.545,72.148 2.965,75.7C3.21,75.791 10.92,84.833 11.747,85.933C11.778,86.127 11.803,86.171 11.819,86.04C11.82,86.033 11.795,85.996 11.747,85.933C11.432,83.98 10.431,66.836 10.787,58.68C11.165,49.999 18.465,30.55 18.833,38.407C18.905,39.959 19.656,56.008 19.715,57.816L19.759,59.558C19.798,60.689 22.626,77.955 30.152,87.904C31.278,89.392 37.638,97.8 50.623,99.098L55.642,99.889C55.656,99.893 55.671,99.893 55.686,99.893L58.83,99.863L58.995,99.922C59.91,100.272 57.996,99.842 50.511,108.752C50.198,109.124 46.97,112.966 46.389,114.209C46.286,114.43 46.266,114.568 46.362,114.591L48.675,115.118C49.221,115.239 49.169,115.274 55.342,117.23C48.281,122.221 48.452,122.338 45.681,123.761C45.034,124.093 37.617,127.902 37.591,127.901C43.421,114.055 46.876,114.785 45.696,114.331C41.04,112.54 37.182,110.569 33.992,108.568C27.308,104.104 25.27,99.491 19.759,92.945C19.677,92.848 19.604,92.774 19.539,92.723C19.518,92.706 19.497,92.692 19.478,92.68C17.963,91.745 21.582,104.69 28.336,112.12L30.038,113.928C30.093,113.983 30.035,114.075 29.962,114.049L23.742,111.805C15.188,108.628 34.17,128.883 37.184,128.183C37.198,128.393 37.104,128.354 33.545,130.764Z" style="fill:white;fill-opacity:0.5;"/>
    <path d="M11.747,85.933C11.778,86.127 11.803,86.171 11.819,86.04C11.82,86.033 11.795,85.996 11.747,85.933Z" style="fill:white;"/>
    <path d="M172.175,127.832C170.844,127.142 157.835,120.405 155.877,118.574L154.461,117.234C154.192,116.985 154.697,117.244 158.883,116.048C161.042,115.431 163.203,114.638 163.203,114.638C163.834,114.493 163.728,113.922 158.595,107.978C155.918,104.879 150.878,100.33 150.511,99.889C154.742,100.02 166.583,98.542 174.05,93.389C185.791,85.287 190.428,59.139 190.695,54.331C191.485,40.101 190.823,33.768 193.375,38.425C193.375,38.425 193.642,38.916 193.729,39.138C202.509,61.662 199.284,76.791 199.184,78.982C199.095,80.942 196.556,87.588 198.203,86.099C201.11,83.472 206.564,75.977 207.587,75.555C215.564,72.255 199.677,115.129 181.287,127.586L176.63,130.589C175.041,129.322 173.761,128.585 172.987,128.197C182.855,122.759 188.729,112.35 188.374,112.039C188.374,112.039 186.435,111.518 181.334,113.478C181.251,113.51 181.171,113.54 181.094,113.569C177.117,115.061 180.604,112.764 183.53,109.278C184.038,108.673 184.53,108.032 184.962,107.368C185.566,106.441 190.048,99.563 190.475,94.568C190.522,94.012 190.519,93.479 190.455,92.98C190.449,92.931 190.442,92.883 190.435,92.835C190.381,92.486 186.632,98.29 180.658,104.065C177.866,106.764 174.588,109.456 170.975,111.511C170.952,111.525 170.928,111.538 170.905,111.55C169.303,112.456 167.635,113.237 165.915,113.837C165.699,113.912 165.494,113.986 165.298,114.06C164.853,114.188 164.517,114.277 164.411,114.305C164.176,114.367 164.05,114.43 164.052,114.586C164.059,115.232 166.276,117.473 172.175,127.832Z" style="fill:white;fill-opacity:0.5;"/>
    <path d="M295.499,131.939C294.207,133.568 292.475,134.699 290.304,135.34C289.466,135.541 288.569,135.64 287.621,135.637C263.687,135.582 240.58,135.732 217.444,135.626C214.86,135.615 213.062,135.402 212.052,134.985C207.553,133.136 205.001,128.568 205.88,123.959C206.081,122.912 206.927,121.103 208.417,118.537C220.757,97.308 230.725,80.055 238.329,66.781C239.548,64.651 240.313,63.358 240.624,62.901C241.741,61.264 242.542,59.284 243.717,57.754C246.357,54.316 249.988,53.101 254.612,54.1C257.134,55.037 259.023,56.498 260.282,58.486C262.347,61.868 264.317,65.251 266.191,68.637C266.319,68.864 266.447,69.091 266.579,69.318C268.988,73.477 271.202,77.273 273.227,80.71C273.604,81.347 274.047,82.105 274.548,82.984C278.249,89.445 282.306,96.459 286.713,104.026C289.554,108.898 291.681,112.57 293.098,115.034C294.749,117.904 295.935,120.005 296.659,121.341C297.227,122.392 297.578,123.461 297.706,124.548C298.047,127.4 297.311,129.863 295.499,131.939ZM210.134,122.747C207.772,126.832 210.719,131.943 215.442,131.943L287.544,131.943C292.267,131.943 295.213,126.832 292.852,122.747L256.797,60.389C254.44,56.308 248.546,56.308 246.188,60.389L210.134,122.747Z" style="fill:white;"/>
    <path d="M290.304,135.34C292.475,134.699 294.207,133.568 295.499,131.939C297.311,129.863 298.047,127.4 297.706,124.548C297.578,123.461 297.227,122.392 296.659,121.341C295.935,120.005 294.749,117.904 293.098,115.034C291.681,112.57 289.554,108.898 286.713,104.026C282.306,96.459 278.249,89.445 274.548,82.984C274.047,82.105 273.604,81.347 273.227,80.71C271.202,77.273 268.988,73.477 266.579,69.318C266.447,69.091 266.319,68.864 266.191,68.637C264.317,65.251 262.347,61.868 260.282,58.486C259.023,56.498 257.134,55.037 254.612,54.1C258.796,53.785 261.531,56.513 263.394,59.946C263.793,60.686 265.594,63.812 268.79,69.325C280.585,89.676 290.407,106.636 298.259,120.206C299.09,121.645 299.599,122.831 299.786,123.772C300.456,127.118 299.555,130.131 297.077,132.81C295.671,134.333 292.574,135.929 290.304,135.34Z" style="fill:white;fill-opacity:0.25;fill-rule:nonzero;"/>
    <path d="M210.134,122.747L246.188,60.389C248.546,56.308 254.44,56.308 256.797,60.389L292.852,122.747C295.213,126.832 292.267,131.943 287.544,131.943L215.442,131.943C210.719,131.943 207.772,126.832 210.134,122.747ZM248.941,63.12C243.889,71.899 224.535,105.351 221.914,109.872C216.496,119.225 213.692,124.05 213.501,124.354C212.403,126.1 213.421,128.22 215.5,128.22C247.44,128.227 270.994,128.223 286.157,128.212C287.98,128.212 288.811,128.352 289.715,126.946C290.158,126.258 290.118,125.467 289.601,124.574C272.356,94.815 260.473,74.271 253.946,62.934C252.393,60.239 250.362,60.646 248.941,63.12Z" style="fill:white;fill-opacity:0.25;fill-rule:nonzero;"/>
    <path d="M231.597,93.128C231.838,92.714 232.589,91.392 232.6,91.371C238.442,81.314 243.889,71.899 248.941,63.12C250.362,60.646 252.393,60.239 253.946,62.934C260.473,74.271 272.356,94.815 289.601,124.574C290.118,125.467 290.158,126.258 289.715,126.946C288.811,128.352 287.98,128.212 286.157,128.212C270.994,128.223 247.44,128.227 215.5,128.22C213.421,128.22 212.403,126.1 213.501,124.354C213.692,124.05 216.496,119.225 221.914,109.872C224.535,105.351 227.705,99.831 231.597,93.128ZM251.482,111.578C251.672,111.578 252.064,111.497 252.657,111.34C253.96,110.992 254.645,110.201 254.707,108.971C255.483,94.193 255.86,86.557 255.842,86.055C255.835,85.876 255.908,84.862 256.058,83.017C256.16,81.798 256.19,80.359 256.149,78.701C256.146,78.529 256.113,78.36 256.051,78.199C255.22,76.12 253.583,75.53 251.497,75.53C249.41,75.53 247.774,76.116 246.943,78.195C246.88,78.356 246.844,78.525 246.84,78.697C246.8,80.355 246.829,81.794 246.928,83.013C247.078,84.858 247.151,85.872 247.144,86.051C247.122,86.553 247.495,94.189 248.257,108.968C248.319,110.198 249.004,110.989 250.303,111.336C250.9,111.497 251.292,111.578 251.482,111.578ZM255.274,118.252C255.274,116.161 253.583,114.47 251.493,114.47C249.403,114.47 247.711,116.161 247.711,118.252C247.711,120.342 249.403,122.033 251.493,122.033C253.583,122.033 255.274,120.342 255.274,118.252Z" style="fill:white;fill-rule:nonzero;"/>
    <path d="M251.497,75.53C253.583,75.53 255.22,76.12 256.051,78.199C256.113,78.36 256.146,78.529 256.149,78.701C256.19,80.359 256.16,81.798 256.058,83.017C255.908,84.862 255.835,85.876 255.842,86.055C255.86,86.557 255.483,94.193 254.707,108.971C254.645,110.201 253.96,110.992 252.657,111.34C252.064,111.497 251.672,111.578 251.482,111.578C251.292,111.578 250.9,111.497 250.303,111.336C249.004,110.989 248.319,110.198 248.257,108.968C247.495,94.189 247.122,86.553 247.144,86.051C247.151,85.872 247.078,84.858 246.928,83.013C246.829,81.794 246.8,80.355 246.84,78.697C246.844,78.525 246.88,78.356 246.943,78.195C247.774,76.116 249.41,75.53 251.497,75.53Z" style="fill:white;fill-opacity:0.25;fill-rule:nonzero;"/>
    <path d="M172.175,127.832C166.276,117.473 164.059,115.232 164.052,114.586C164.05,114.43 164.176,114.367 164.411,114.305C164.517,114.277 164.853,114.188 165.298,114.06C165.494,113.986 165.699,113.912 165.915,113.837C167.635,113.237 169.303,112.456 170.905,111.55C170.928,111.538 170.952,111.525 170.975,111.511C174.588,109.456 177.866,106.764 180.658,104.065C186.632,98.29 190.381,92.486 190.435,92.835C190.442,92.883 190.449,92.931 190.455,92.98C190.519,93.479 190.522,94.012 190.475,94.568C190.048,99.563 185.566,106.441 184.962,107.368C184.53,108.032 184.038,108.673 183.53,109.278C180.604,112.764 177.117,115.061 181.094,113.569C181.171,113.54 181.251,113.51 181.334,113.478C186.435,111.518 188.374,112.039 188.374,112.039C188.729,112.35 182.855,122.759 172.987,128.197C172.466,127.935 172.175,127.832 172.175,127.832Z" style="fill:white;fill-opacity:0.75;"/>
    <path d="M170.975,111.511C170.952,111.524 170.928,111.537 170.905,111.55C170.928,111.538 170.952,111.525 170.975,111.511Z" style="fill:white;"/>
    <path d="M37.591,127.901C43.421,114.055 46.876,114.785 45.696,114.331C40.532,112.345 36.84,110.47 33.992,108.568C27.308,104.104 25.27,99.491 19.759,92.945C19.677,92.848 19.604,92.774 19.539,92.723C19.518,92.706 19.497,92.692 19.478,92.68C17.963,91.745 21.582,104.69 28.336,112.12L30.038,113.928C30.093,113.983 30.035,114.075 29.962,114.049L23.742,111.805C15.188,108.628 34.17,128.883 37.184,128.183C37.334,128.128 37.47,128.037 37.591,127.901Z" style="fill:white;fill-opacity:0.75;"/>
    <path d="M55.342,117.23C49.169,115.274 49.221,115.239 48.675,115.118L46.362,114.591C46.293,114.575 46.306,114.44 46.389,114.209C46.97,112.966 50.198,109.124 50.511,108.752C57.996,99.842 59.91,100.272 58.995,99.922L58.83,99.863C59.671,99.879 59.894,99.661 64.698,99.532C66.765,99.477 69.68,99.438 73.857,99.441C67.245,106.875 55.342,117.23 55.342,117.23ZM138.177,99.691C142.864,99.858 149.567,99.885 150.511,99.889C150.878,100.33 155.918,104.879 158.595,107.978C163.728,113.922 163.834,114.493 163.203,114.638C163.203,114.638 161.042,115.431 158.883,116.048C154.697,117.244 154.192,116.985 154.461,117.234C150.086,114.517 144.186,103.721 138.177,99.691Z" style="fill:white;fill-opacity:0.35;"/>
    <path d="M154.461,117.234L155.877,118.574C157.835,120.405 170.844,127.142 172.175,127.832C172.175,127.832 172.466,127.935 172.987,128.197C173.761,128.585 175.041,129.322 176.63,130.589C179.006,132.483 182.072,135.56 185.167,140.425L187.126,143.427C187.601,144.378 188.19,145.271 188.67,146.22C189.154,147.175 194.459,157.649 194.553,158.234L194.813,159.842C194.61,159.802 193.768,158.613 192.33,156.744C191.075,154.906 188.809,151.997 184.24,147.391L184.178,147.328C182.503,145.642 180.521,143.729 178.168,141.56C174.032,137.746 170.199,135.143 167.287,133.402C164.228,131.574 159.069,129.916 158.843,129.765C158.688,129.661 158.539,129.563 158.395,129.47C151.595,125.088 157.078,133.044 160.084,141.366C160.419,142.295 152.258,138.891 151.17,139.51C148.441,141.061 152.203,141.866 155.178,162.364C155.229,162.715 155.448,168.431 155.438,168.419C155.438,168.419 152.528,164.124 150.573,163.612C147.826,162.894 147.941,165.975 147.952,166.273C147.978,166.994 149.317,175.583 149.317,175.583C150.899,178.103 148.031,194.4 146.509,192.587L145.927,191.888C144.972,190.72 147.672,190.165 142.973,173.258C138.362,156.666 135.249,157.129 136.278,156.071L139.415,152.934C140.183,152.165 143.418,142.884 141.333,132.847C140.06,126.718 130.237,120.84 130.237,120.84L129.205,120.305C129.959,119.954 134.83,117.688 137.143,113.596C138.935,110.425 138.981,106.742 138.792,106.359C138.125,105.01 137.934,106.341 136.954,107.472C134.346,110.486 128.066,108.938 126.53,109.742C126.12,109.956 124.584,111.572 124.409,111.962L121.078,119.189C116.945,117.668 108.066,120.428 106.133,120.585C96.366,121.378 91.566,116.805 89.482,118.888C89.482,118.888 88.774,118.823 88.586,118.768L88.528,118.714C88.168,117.847 85.334,111.05 83.994,110.253C81.404,108.711 81.218,109.483 77.584,109.436C73.079,109.378 72.052,106.253 71.716,105.882C70.225,104.234 69.52,115.861 80.469,120.294C64.499,126.505 68.264,143.611 68.444,146.487C68.794,152.088 71.921,155.914 71.921,155.914C71.921,155.914 68.384,158.027 63.86,189.863C62.573,198.919 61.068,188.563 61.03,188.308C59.445,177.403 61.543,170.172 61.543,169.846L62.034,166.405C62.385,165.739 60.892,163.126 59.401,163.572C56.094,164.562 54.836,168.955 54.357,168.785L54.265,168.752C54.21,168.734 54.178,168.679 54.181,168.62L54.606,162.594C55.032,156.205 57.224,148.435 57.564,147.23C59.162,141.565 60.94,140.785 58.237,139.264C57.658,138.938 49.533,142.345 49.861,141.377C53.237,131.429 57.174,125.601 51.919,129.069C51.351,129.444 50.829,129.887 50.246,130.237C48.749,128.165 36.184,137.707 35.083,138.543C25.343,145.94 16.246,158.258 14.839,160.164C15.48,155.663 22.779,142.4 26.48,137.924C29.08,134.78 33.545,130.764 33.545,130.764C37.104,128.354 37.198,128.393 37.184,128.183C37.334,128.128 37.47,128.037 37.591,127.901C37.617,127.902 45.034,124.093 45.681,123.761C48.452,122.338 48.281,122.221 55.342,117.23C55.342,117.23 67.245,106.875 73.857,99.441C77.656,99.444 86.469,93.846 96.229,94.925C115.08,97.009 115.645,92.448 128.681,97.133C130.506,97.788 132.116,99.11 134.03,99.417C134.768,99.535 136.313,99.624 138.177,99.691C144.186,103.721 150.086,114.517 154.461,117.234ZM81.769,103.944C81.723,104.342 81.838,104.726 81.963,104.957C82.545,105.663 86.254,108.507 89.805,110.071C91.896,110.916 93.596,111.13 94.511,110.66C94.976,110.33 95.218,109.818 95.171,109.254C94.993,108.59 94.357,107.67 93.426,106.719C93.135,106.427 92.842,106.151 92.548,105.892C91.396,104.887 89.965,103.92 88.447,103.26C84.935,101.771 82.032,102.398 81.769,103.944ZM127.58,105.15C127.889,104.876 128.479,103.204 126.666,102.655C121.316,101.035 114.065,107.864 114.496,109.766C115.063,112.269 121.347,110.547 127.58,105.15Z" style="fill:white;fill-opacity:0.4;"/>
    <path d="M81.769,103.944C82.032,102.398 84.935,101.771 88.447,103.26C89.965,103.92 91.396,104.887 92.548,105.892C92.842,106.151 93.135,106.427 93.426,106.719C94.357,107.67 94.993,108.59 95.171,109.254C95.218,109.818 94.976,110.33 94.511,110.66C93.596,111.13 91.896,110.916 89.805,110.071C86.254,108.507 82.545,105.663 81.963,104.957C81.838,104.726 81.723,104.342 81.769,103.944ZM127.58,105.15C121.347,110.547 115.063,112.269 114.496,109.766C114.065,107.864 121.316,101.035 126.666,102.655C128.479,103.204 127.889,104.876 127.58,105.15Z" style="fill:white;fill-opacity:0.75;"/>
    <path d="M129.205,120.305C129.959,119.954 134.83,117.688 137.143,113.596C138.935,110.425 138.981,106.742 138.792,106.359C138.125,105.01 137.934,106.341 136.954,107.472C134.346,110.486 128.066,108.938 126.53,109.742C126.12,109.956 124.584,111.572 124.409,111.962L121.078,119.189C121.513,120.216 121.341,120.694 122.436,120.488C123.675,119.327 125.669,119.187 127.365,119.587C128.05,119.749 128.686,119.999 129.205,120.305Z" style="fill:white;fill-opacity:0.15;"/>
    <path d="M88.528,118.714C88.168,117.847 85.334,111.05 83.994,110.253C81.404,108.711 81.218,109.483 77.584,109.436C73.079,109.378 72.052,106.253 71.716,105.882C70.225,104.234 69.52,115.861 80.469,120.294C80.469,120.294 82.659,119.599 84.333,119.579C85.63,119.564 86.427,120.022 87.41,120.503C88.204,120.587 88.581,120.001 88.541,118.746L88.528,118.714Z" style="fill:white;fill-opacity:0.15;"/>
    <path d="M255.274,118.252C255.274,120.342 253.583,122.033 251.493,122.033C249.403,122.033 247.711,120.342 247.711,118.252C247.711,116.161 249.403,114.47 251.493,114.47C253.583,114.47 255.274,116.161 255.274,118.252Z" style="fill:white;fill-opacity:0.25;fill-rule:nonzero;"/>
    <path d="M106.918,137.818C103.531,140.149 94.604,131.581 91.927,128.418C91.619,128.001 91.338,127.597 91.087,127.225L91.067,127.195C90.099,125.481 88.081,121.377 87.41,120.503C88.204,120.587 88.581,120.001 88.541,118.746C88.544,118.753 88.56,118.76 88.586,118.768C88.774,118.823 89.482,118.888 89.482,118.888C91.566,116.805 96.366,121.378 106.133,120.585C108.066,120.428 116.945,117.668 121.078,119.189C121.513,120.216 121.341,120.694 122.436,120.488C120.381,121.466 123.31,126.537 106.918,137.818ZM101.171,132.616C99.853,123.436 92.085,122.897 92.215,126.426C92.292,128.544 99.056,135.167 100.589,134.26C101.252,133.872 101.215,133.004 101.182,132.705C101.178,132.67 101.174,132.64 101.171,132.616ZM109.235,134.256C110.776,135.159 117.512,128.526 117.588,126.415C117.714,122.899 109.957,123.426 108.653,132.616C108.634,132.754 108.483,133.821 109.235,134.256Z" style="fill:white;fill-opacity:0.25;"/>
    <path d="M173.141,146.234C180.975,157.179 168.8,153.298 166.596,151.682L165.611,150.971C165.483,150.88 165.304,150.946 165.271,151.1L165.271,151.111C165.124,151.902 163.426,152.679 164.295,162.03C165.476,174.736 165.569,179.776 165.232,181.431C163.937,187.786 165.084,192.396 160.15,188.096C159.675,187.681 160.316,197.978 160.316,197.978C160.316,197.978 157.363,230.468 146.821,234.642C141.863,236.605 139.478,211.909 135.78,200.381L135.439,197.291C135.222,195.767 135.946,200.838 127.261,214.707C126.744,215.532 122.072,222.992 119.058,223.699C116.834,224.221 113.892,220.607 113.8,220.621L113.76,220.625C113.496,220.663 113.935,221.768 113.782,222.001C113.304,222.73 108.458,230.117 106.516,230.117L103.569,230.117C103.13,230.117 102.67,229.956 102.328,229.682C98.654,226.739 99.868,225.69 96.423,222.503L95.896,222.016C95.799,221.926 95.793,221.758 95.815,221.628C96.493,217.677 94.128,224.924 90.408,223.535C89.511,223.201 88.738,222.577 88.011,221.954C74.824,210.662 74.618,185.671 74.074,203.042C74.012,202.756 73.954,202.625 73.901,202.627C72.914,201.769 70.035,217.724 69.816,218.937C68.55,225.953 64.14,234.797 63.48,234.591C57.573,232.749 53.351,220.92 52.523,218.443C52.405,218.074 52.289,217.706 52.175,217.34C48.101,203.779 50.047,187.572 50.047,187.572C50.047,187.572 49.167,188.622 47.99,189.567C47.881,189.629 47.7,189.78 47.47,189.962C46.939,190.382 46.146,190.966 45.379,190.981C45.115,190.986 44.854,190.924 44.608,190.764C44.073,190.418 43.607,189.613 43.331,188.044C39.985,169.071 42.901,153.629 44.045,152.117L44.594,151.4C44.747,151.197 44.34,150.759 44.129,150.895L42.401,152.022C41.338,152.686 28.427,158.137 36.84,146.004C42.285,138.151 48.197,132.312 50.246,130.237C50.829,129.887 51.351,129.444 51.919,129.069C57.174,125.601 53.237,131.429 49.861,141.377C49.533,142.345 57.658,138.938 58.237,139.264C60.94,140.785 59.162,141.565 57.564,147.23C57.224,148.435 55.032,156.205 54.606,162.594L54.181,168.62C54.178,168.679 54.21,168.734 54.265,168.752L54.357,168.785C54.836,168.955 56.094,164.562 59.401,163.572C60.892,163.126 62.385,165.739 62.034,166.405L61.543,169.846C61.543,170.172 59.445,177.403 61.03,188.308C61.068,188.563 62.573,198.919 63.86,189.863C68.384,158.027 71.921,155.914 71.921,155.914C71.921,155.914 68.794,152.088 68.444,146.487C68.264,143.611 64.499,126.505 80.469,120.294C80.469,120.294 82.659,119.599 84.333,119.579C85.63,119.564 86.427,120.022 87.41,120.503C88.081,121.377 90.099,125.481 91.067,127.195C91.074,127.207 91.08,127.217 91.087,127.225C91.338,127.597 91.619,128.001 91.927,128.418C94.604,131.581 103.531,140.149 106.918,137.818C123.31,126.537 120.381,121.466 122.436,120.488C123.675,119.327 125.669,119.187 127.365,119.587C128.05,119.749 128.686,119.999 129.205,120.305L130.237,120.84C130.237,120.84 140.06,126.718 141.333,132.847C143.418,142.884 140.183,152.165 139.415,152.934L136.278,156.071C135.249,157.129 138.362,156.666 142.973,173.258C147.672,190.165 144.972,190.72 145.927,191.888L146.509,192.587C148.031,194.4 150.899,178.103 149.317,175.583C149.317,175.583 147.978,166.994 147.952,166.273C147.941,165.975 147.826,162.894 150.573,163.612C152.528,164.124 155.438,168.419 155.438,168.419C155.448,168.431 155.229,162.715 155.178,162.364C152.203,141.866 148.441,141.061 151.17,139.51C152.258,138.891 160.419,142.295 160.084,141.366C157.078,133.044 151.595,125.088 158.395,129.47C158.539,129.563 158.688,129.661 158.843,129.765C159.069,129.916 165.112,135.016 173.141,146.234ZM87.172,167.635C87.056,167.84 85.947,169.803 86.403,170.472C86.153,170.57 86.463,181.78 87.948,188.139C88.175,189.111 88.429,189.97 88.713,190.658C88.737,190.715 88.846,190.734 89.033,190.721C89.752,190.673 91.615,190.155 94.093,189.59C97.158,188.892 101.163,188.122 105.106,188.078C105.393,188.078 105.68,188.078 105.963,188.079C107.835,188.105 109.68,188.278 111.402,188.523C111.474,188.533 111.547,188.543 111.618,188.554C116.932,189.329 121.034,190.752 121.111,190.504C124.246,180.469 123.549,170.425 123.549,170.425C124.199,169.907 122.894,167.449 122.894,167.449C123.98,166.355 127.209,163.057 130.265,157.569C130.101,157.186 129.745,156.757 129.135,156.228C128.546,155.717 127.982,155.237 127.441,154.785C127.429,154.774 127.417,154.764 127.404,154.754C120.734,149.188 117.632,148.006 115.506,147.751C109.043,146.979 94.172,147.692 93.377,147.882C90.659,148.53 84.754,152.571 81.583,155.256C80.196,156.43 79.333,157.344 79.488,157.601C82.794,163.058 82.62,163.183 87.172,167.635Z" style="fill:white;fill-opacity:0.6;"/>
    <path d="M101.171,132.616C99.853,123.436 92.085,122.897 92.215,126.426C92.292,128.544 99.056,135.167 100.589,134.26C101.252,133.872 101.215,133.004 101.182,132.705C101.178,132.67 101.174,132.64 101.171,132.616Z" style="fill:white;fill-opacity:0.15;"/>
    <path d="M109.235,134.256C110.776,135.159 117.512,128.526 117.588,126.415C117.714,122.899 109.957,123.426 108.653,132.616C108.634,132.754 108.483,133.821 109.235,134.256Z" style="fill:white;fill-opacity:0.15;"/>
    <path d="M74.074,203.042C75.796,225.732 74.893,234.474 88.622,259.649C90.423,262.952 88.728,264.286 85.295,262.851C83.764,262.211 58.06,245.447 42.737,226.203C39.517,222.159 36.862,217.693 33.802,213.527C33.27,212.803 26.645,230.033 24.361,230.128C23.479,230.165 18.716,227.1 18.686,213.483C18.607,176.438 24.252,172.242 21.586,173.957C18.525,175.926 15.595,178.105 12.437,179.913C9.679,181.493 5.6,180.875 6.335,175.864C6.728,173.185 7.195,173.343 14.839,160.164C16.246,158.258 25.343,145.94 35.083,138.543C36.184,137.707 48.749,128.165 50.246,130.237C48.197,132.312 42.285,138.151 36.84,146.004C28.427,158.137 41.338,152.686 42.401,152.022L44.129,150.895C44.34,150.759 44.747,151.197 44.594,151.4L44.045,152.117C42.901,153.629 39.985,169.071 43.331,188.044C43.607,189.613 44.073,190.418 44.608,190.764C44.854,190.924 45.115,190.986 45.379,190.981C46.146,190.966 46.939,190.382 47.47,189.962C47.7,189.78 47.881,189.629 47.99,189.567C49.167,188.622 50.047,187.572 50.047,187.572C50.047,187.572 48.101,203.779 52.175,217.34C52.242,217.562 52.31,217.783 52.38,218.004C52.395,218.051 52.443,218.203 52.523,218.443C53.351,220.92 57.573,232.749 63.48,234.591C64.14,234.797 68.55,225.953 69.816,218.937C70.035,217.724 72.914,201.769 73.901,202.627C73.968,202.685 74.026,202.82 74.074,203.042Z" style="fill:white;fill-opacity:0.75;"/>
    <path d="M194.813,159.842C194.84,159.908 203.301,172.274 203.516,177.366C203.571,178.681 201.996,182.666 196.845,179.588C190.799,175.975 186.101,169.725 188.077,176.483C190.699,185.446 191.105,197.075 191.141,198.195C191.497,209.205 190.675,215.089 190.655,216.173C190.655,216.173 189.165,228.924 187.023,230.004C184.584,231.234 176.465,213.571 176.465,213.571C175.973,211.986 176.561,214.873 163.927,230.088C151.841,244.643 117.355,270.763 120.503,261.428C122.136,256.587 127.03,252.323 132.65,230.963C135.111,221.608 135.702,202.839 135.78,200.381C139.478,211.909 141.863,236.605 146.821,234.642C157.363,230.468 160.316,197.978 160.316,197.978C160.316,197.978 159.675,187.681 160.15,188.096C165.084,192.396 163.937,187.786 165.232,181.431C165.569,179.776 165.476,174.736 164.295,162.03C163.426,152.679 165.124,151.902 165.271,151.111L165.271,151.1C165.304,150.946 165.483,150.88 165.611,150.971L166.596,151.682C168.8,153.298 180.975,157.179 173.141,146.234C165.112,135.016 159.069,129.916 158.843,129.765C159.069,129.916 164.228,131.574 167.287,133.402C170.199,135.143 174.032,137.746 178.168,141.56C180.521,143.729 182.503,145.642 184.178,147.328C184.198,147.349 184.219,147.37 184.24,147.391C188.809,151.997 191.075,154.906 192.33,156.744C193.768,158.613 194.61,159.802 194.813,159.842Z" style="fill:white;fill-opacity:0.75;"/>
    <path d="M89.347,168.653C87.417,161.299 93.09,152.08 93.498,152.322C93.498,152.322 99.56,151.524 108.364,151.806C117.59,152.102 116.84,151.283 119.37,157.852C121.671,163.825 120.674,167.807 120.463,168.649C120.827,169.629 119.251,175.247 115.331,169.059C110.42,161.308 110.549,160.13 109.393,160.969C107.141,162.603 105.947,164.465 105.63,164.465L104.297,164.465C104.047,164.465 100.653,160.036 99.256,161.368C99.223,161.4 99.176,161.458 99.117,161.54C98.175,162.781 93.219,170.005 92.844,170.425C91.651,171.759 90.188,171.355 89.347,168.653Z" style="fill:white;fill-opacity:0.15;"/>
    <path d="M122.894,167.449C122.894,167.449 124.199,169.907 123.549,170.425L121.682,171.732C121.269,172.017 119.905,173.971 118.462,176.035C116.654,178.622 114.721,181.383 114.383,181.246C114.199,181.172 113.993,181.103 113.768,181.04C109.075,179.723 95.901,180.724 95.815,180.81L95.365,181.261C95.178,181.448 93.651,179.35 92.044,177.076C90.321,174.638 88.506,171.999 88.153,171.757L86.403,170.472C85.947,169.803 87.056,167.84 87.172,167.635C87.926,168.265 88.651,168.605 89.347,168.653C90.188,171.355 91.651,171.759 92.844,170.425C93.219,170.005 98.175,162.781 99.117,161.54C99.186,161.448 99.234,161.389 99.256,161.368C100.653,160.036 104.047,164.465 104.297,164.465L105.63,164.465C105.947,164.465 107.141,162.603 109.393,160.969C110.549,160.13 110.42,161.308 115.331,169.059C119.251,175.247 120.827,169.629 120.463,168.649C121.404,168.47 122.213,168.071 122.894,167.449Z" style="fill:white;fill-opacity:0.4;"/>
    <path d="M123.549,170.425C123.549,170.425 124.246,180.469 121.111,190.504C121.034,190.752 116.932,189.329 111.618,188.554C111.547,188.543 111.474,188.533 111.402,188.523C109.68,188.278 107.835,188.105 105.963,188.079C105.677,188.075 105.392,188.074 105.106,188.078C101.163,188.122 97.158,188.892 94.093,189.59C91.615,190.155 89.752,190.673 89.033,190.721C88.846,190.734 88.737,190.715 88.713,190.658C88.429,189.97 88.175,189.111 87.948,188.139C86.463,181.78 86.153,170.57 86.403,170.472L88.153,171.757C88.506,171.999 90.321,174.638 92.044,177.076C93.651,179.35 95.178,181.448 95.365,181.261L95.815,180.81C95.901,180.724 109.075,179.723 113.768,181.04C113.993,181.103 114.199,181.172 114.383,181.246C114.721,181.383 116.654,178.622 118.462,176.035C119.905,173.971 121.269,172.017 121.682,171.732L123.549,170.425Z" style="fill:white;"/>
    <path d="M87.172,167.635C82.62,163.183 82.794,163.058 79.488,157.601C79.333,157.344 80.196,156.43 81.583,155.256C84.754,152.571 90.659,148.53 93.377,147.882C94.172,147.692 109.043,146.979 115.506,147.751C117.632,148.006 120.734,149.188 127.404,154.754L127.441,154.785C127.982,155.237 128.546,155.717 129.135,156.228C129.745,156.757 130.101,157.186 130.265,157.569C127.209,163.057 123.98,166.355 122.894,167.449C122.213,168.071 121.404,168.47 120.463,168.649C120.674,167.807 121.671,163.825 119.37,157.852C116.84,151.283 117.59,152.102 108.364,151.806C99.56,151.524 93.498,152.322 93.498,152.322C93.09,152.08 87.417,161.299 89.347,168.653C88.651,168.605 87.926,168.265 87.172,167.635Z" style="fill:white;"/>
</svg>
