<?xml version="1.0" encoding="UTF-8" standalone="no"?>
<!DOCTYPE svg PUBLIC "-//W3C//DTD SVG 1.1//EN" "http://www.w3.org/Graphics/SVG/1.1/DTD/svg11.dtd">
<svg width="100%" height="100%" viewBox="0 0 300 300" version="1.1" xmlns="http://www.w3.org/2000/svg" xmlns:xlink="http://www.w3.org/1999/xlink" xml:space="preserve" xmlns:serif="http://www.serif.com/" style="fill-rule:evenodd;clip-rule:evenodd;stroke-linejoin:round;stroke-miterlimit:2;">
    <path d="M4.354,248.104C4.105,247.737 4.017,247.462 4.082,247.283C12.2,225.185 17.554,210.605 20.149,203.538C20.268,203.213 20.252,202.858 20.111,202.541C11.264,183.065 6.934,162.588 7.128,141.109C7.136,140.215 7.178,139.535 7.255,139.069C7.404,138.155 7.178,137.314 7.258,136.347C7.354,135.151 7.407,134.517 7.411,134.44C7.48,133.095 7.847,131.964 7.767,130.691C7.732,130.171 7.759,129.552 7.839,128.838C8.21,125.597 8.481,123.514 8.653,122.585C9.108,120.082 9.337,118.668 9.349,118.343C9.379,117.353 9.574,116.272 9.937,115.094C10.125,114.483 10.331,113.405 10.557,111.861C10.591,111.632 10.644,111.406 10.717,111.189C11.088,110.088 11.244,108.949 11.508,107.936C16.71,87.868 25.656,69.879 38.349,53.976C53.001,35.617 71.216,21.614 92.993,11.971C94.418,11.341 95.461,10.901 96.115,10.656C98.89,9.613 101.079,8.554 103.522,7.867C105.463,7.32 107.061,6.609 109.273,5.994C113.107,4.928 115.778,4.217 117.291,3.854C123.253,2.432 129.449,1.404 135.881,0.766C136.798,0.674 138.243,0.533 140.218,0.338C140.715,0.288 141.159,0.292 141.545,0.341C142.103,0.418 142.63,0.162 143.306,0.154C146.291,0.12 148.412,0.066 149.677,0.001C149.796,-0.002 149.91,0.001 150.025,0.02C150.862,0.154 151.714,0.154 152.578,0.024C152.685,0.009 152.792,0.005 152.899,0.017C155.406,0.246 158.039,0.124 161.013,0.479C161.162,0.498 163.344,0.724 167.552,1.156C169.937,1.4 172.268,1.866 174.718,2.115C176.185,2.264 177.531,2.849 178.933,3.013C180.229,3.162 181.394,3.407 182.426,3.743C183.512,4.098 184.452,4.01 185.522,4.458C186.561,4.889 187.735,4.801 188.625,5.298C188.713,5.348 188.801,5.382 188.897,5.409C190.559,5.837 192.137,6.296 193.632,6.781C202.922,9.808 211.445,13.492 219.192,17.834C224.088,20.578 227.512,22.638 229.465,24.017C232.916,26.46 234.873,27.847 235.327,28.183C242.035,33.117 248.547,38.938 254.861,45.645C255.38,46.199 255.835,46.723 256.221,47.223C256.783,47.949 257.517,48.504 258.121,49.234C260.605,52.245 263.23,55.562 266.001,59.189C267.106,60.634 267.935,62.125 269.036,63.561C270.033,64.865 270.817,66.508 271.688,67.716C272.265,68.515 272.769,69.352 273.201,70.227C273.706,71.251 274.466,72.325 275.162,73.617C276.415,75.952 277.868,78.497 278.827,80.63C279.633,82.418 280.211,83.66 280.566,84.356C280.837,84.887 281.361,86.095 282.144,87.987C282.798,89.565 283.287,90.776 283.608,91.613C286.027,97.908 288.06,104.577 289.7,111.617C289.926,112.572 290.663,116.337 291.917,122.91C292.085,123.797 292.605,125.467 292.551,126.418C292.486,127.661 292.612,128.834 292.937,129.931C292.903,131.188 292.93,132.422 293.01,133.642C293.133,135.518 293.2,136.756 293.212,137.349C293.337,143.567 293.195,149.608 292.803,155.468C292.76,156.114 292.699,156.61 292.62,156.958C292.351,158.146 292.444,159.305 292.245,160.688C291.845,163.475 291.504,165.768 291.229,167.564C291.213,167.663 291.186,167.758 291.145,167.85C290.813,168.593 290.849,169.448 290.694,170.247C290.232,172.619 289.716,174.993 289.146,177.363C289.084,177.619 288.592,179.389 287.671,182.671C285.631,189.933 282.843,197.266 279.312,204.67C276.537,210.49 273.442,215.99 270.025,221.168C256.321,241.963 238.477,258.194 216.497,269.858C213.643,271.375 209.41,273.325 203.805,275.72C202.636,276.22 201.535,276.63 200.503,276.955C197.87,277.784 194.992,278.992 192.199,279.848C181.998,282.963 171.259,284.952 159.985,285.814C154.248,286.252 147.977,286.244 141.162,285.802C138.598,285.636 136.848,285.508 135.911,285.416C120.453,283.908 105.456,279.885 90.917,273.328C87.994,272.009 84.699,270.328 81.034,268.283C77.185,266.136 74.01,264.232 71.499,262.573C65.49,258.603 59.048,253.558 52.195,247.416C51.48,246.775 50.255,245.554 48.534,243.747C48.388,243.595 48.19,243.508 47.983,243.499C46.986,243.458 45.969,243.488 44.93,243.602C35.307,244.658 22.564,246.015 6.708,247.695C5.519,247.821 4.732,247.959 4.354,248.104ZM171.796,197.159L171.78,197.189C171.414,197.889 170.273,199.371 170.089,199.579C165.905,204.291 146.551,219.704 144.835,221.107C144.74,221.184 144.613,221.206 144.499,221.164C143.329,220.748 142.497,219.829 141.525,219.273C114.655,203.878 106.545,188.228 104.45,176.467C101.995,162.682 121.291,141.801 141.911,162.775C142.027,162.893 142.243,162.907 142.309,162.76C144.499,157.83 150.169,152.942 154.997,152.273C155.148,152.252 155.142,152.013 155.02,151.921L151.837,149.586C151.825,149.575 151.81,149.567 151.795,149.563C149.895,148.696 148.416,148.073 147.361,147.687C145.89,147.148 143.627,146.509 140.574,145.761C140.031,145.627 139.515,145.469 139.026,145.283C138.453,145.064 137.941,144.874 137.49,144.717C136.905,143.395 136.656,142.122 136.748,140.895C136.904,138.824 137.283,136.857 137.879,134.987C138.003,134.601 138.843,132.882 140.398,129.835C142.161,126.381 144.162,123.819 146.757,119.895C148.175,117.751 148.957,115.145 149.054,112.079C149.059,111.934 149.112,111.793 149.2,111.678C149.418,111.392 149.83,111.021 150.438,110.558C152.043,109.336 153.053,107.378 152.998,105.33C152.957,103.759 153.098,102.334 152.823,100.889C152.417,98.76 151.986,97.636 150.468,96.058C150.38,95.967 150.339,95.837 150.358,95.71C150.405,95.39 150.64,95.236 150.648,94.77C150.708,91.143 151.517,87.473 153.373,84.402C153.953,83.442 154.298,82.758 154.409,82.349C154.995,80.183 154.941,78.734 155.009,75.719C155.012,75.554 154.996,75.39 154.963,75.226C154.805,74.451 154.534,73.693 154.134,72.952C152.346,69.643 149.647,67.444 146.024,66.359C143.733,63.363 138.514,64.249 138.204,64.035C137.226,62.392 136.622,61.307 136.389,60.775C134.834,57.232 132.591,53.838 129.651,50.602C127.187,47.888 124.175,46.493 120.616,46.421C120.284,46.195 118.423,45.971 117.895,45.935C110.235,45.418 103.061,49.377 98.228,55.23C95.938,58.004 94.436,61.238 93.719,64.93C93.688,65.086 93.639,65.236 93.57,65.377C92.805,66.928 92.232,67.471 90.554,68.171C88.162,69.168 86.965,70.746 86.335,73.154C86.186,73.724 85.491,78.982 85.601,79.674C86.002,82.196 86.362,84.406 86.69,86.301C87.038,88.308 87.914,91.659 89.308,96.356C89.71,97.709 90.03,98.97 90.279,100.14C90.367,100.553 90.618,101.834 91.047,103.977C91.164,104.562 91.278,105.146 91.387,105.723C92.039,109.147 92.803,112.029 93.7,114.368C94.967,117.673 97.431,121.445 99.849,124.37C100.958,125.711 102.336,127.035 103.992,128.329C104.76,128.93 105.486,129.782 106.174,130.882C106.231,130.974 106.269,131.073 106.292,131.18L106.625,132.69C106.652,132.805 106.663,132.923 106.663,133.042C106.667,134.379 106.668,135.66 106.659,136.886C106.654,137.7 105.368,143.059 105.368,143.059C105.234,143.452 104.867,143.72 104.45,143.724C98.859,143.769 93.199,143.761 87.47,143.708C85.674,143.692 84.309,143.955 82.75,144.064C81.175,144.173 79.983,144.382 79.177,144.687C76.888,145.552 74.143,147.667 73.047,149.987C73.009,150.068 72.495,150.984 71.506,152.739C70.603,154.343 70.266,155.96 69.618,157.593C69.235,158.559 68.864,159.805 68.503,161.334C67.472,165.697 67.118,167.911 65.992,171.431C65.513,172.926 64.856,175.341 64.023,178.685C63.431,181.066 63.48,183.255 64.169,185.251C64.449,186.065 64.574,186.665 64.539,187.043C64.347,189.138 63.794,191.282 63.534,193.506C63.232,196.101 62.916,198.876 62.586,201.834C62.495,202.656 62.225,203.497 62.086,204.138C62.053,204.291 62.04,204.448 62.048,204.605C62.067,204.998 62.006,205.782 61.864,206.955C61.212,212.355 60.581,216.696 59.877,219.964C59.851,220.083 59.768,220.737 59.621,221.917C59.545,222.525 59.44,223.176 59.292,223.863C59.266,223.981 59.213,224.074 59.132,224.145C58.999,224.262 58.953,224.394 58.994,224.543C59.01,224.6 59.051,224.65 59.105,224.677L60.939,225.559L60.481,225.548C60.301,225.544 60.228,225.777 60.377,225.877C62.502,227.292 64.566,228.869 66.664,229.955C68.266,230.783 70.047,231.651 71.999,232.557C79.243,235.919 86.95,238.554 95.121,240.453C100.678,241.745 106.158,242.571 111.559,242.914C112.594,242.98 113.576,243.097 114.498,243.254C114.589,243.27 114.681,243.277 114.777,243.277C119.103,243.275 122.363,243.274 124.561,243.285C127.182,243.298 129.965,242.964 132.491,242.735C146.119,241.495 159.273,237.6 171.442,231.885C173.304,231.01 176.455,229.3 180.886,226.717C180.997,226.653 181.065,226.53 181.066,226.404C181.075,223.901 181.077,222.456 181.043,222.063C180.647,217.469 180.131,213.23 179.476,209.351C179.06,206.894 178.276,202.887 177.152,197.324C177.125,197.19 177.148,197.057 177.221,196.942C178.562,195.033 179.7,193.162 180.665,191.35C180.764,191.166 180.86,190.983 180.953,190.801C186.865,179.355 185.9,170.352 185.737,169.127C185.736,169.079 185.728,169.032 185.717,168.986C184.686,156.31 168.426,147.119 156.232,151.948C156.174,151.966 156.148,152.018 156.151,152.067C156.148,152.123 156.177,152.174 156.239,152.17C156.284,152.18 156.377,152.171 156.514,152.15C173.313,151.045 193.233,163.976 171.837,197.095C171.823,197.116 171.809,197.138 171.796,197.159ZM212.236,213.322C214.892,213.727 217.933,213.32 220.377,211.927C221.572,211.246 222.303,210.803 222.574,210.593C225.53,208.309 227.276,205.338 227.802,201.669C228.709,195.352 226.459,190.614 221.045,187.464C219.895,186.795 218.347,186.311 216.406,186.015C214.46,185.719 212.84,185.718 211.541,186.015C205.434,187.413 201.874,191.255 200.855,197.557C200.264,201.215 201.051,204.565 203.182,207.631C203.378,207.913 203.943,208.556 204.879,209.561C206.798,211.621 209.58,212.917 212.236,213.322ZM170.502,177.317C173.85,176.185 172.21,169.395 171.641,166.903C171.159,164.793 170.146,163.062 168.985,161.502C167.077,158.939 164.494,157.711 161.231,157.834C160.439,157.863 159.669,158.055 158.915,158.395C158.667,158.507 158.476,158.721 158.391,158.98C157.701,161.081 158.778,162.717 160.233,163.922C161.774,165.197 163.68,166.652 165.958,168.263C166.164,168.409 166.336,168.6 166.463,168.821C167.463,170.576 168.227,172.65 168.748,175.043C168.963,176.029 169.401,176.773 170.074,177.252C170.199,177.341 170.357,177.366 170.502,177.317ZM221.442,146.348C221.294,146.463 221.157,146.568 221.034,146.662C219.333,147.966 217.235,149.881 214.732,152.399C212.745,154.398 211.364,156.021 210.597,157.264C208.174,161.187 206.838,165.459 206.526,170.071C206.516,170.231 206.637,170.377 206.798,170.392L228.035,172.528C228.452,172.57 228.816,172.261 228.842,171.844C229.053,168.424 230.219,165.398 232.366,162.76C235.646,158.729 238.642,156.647 243.617,152.636C243.953,152.365 244.473,152.193 244.817,151.914C245.547,151.321 247.347,149.869 250.209,147.561C252.384,145.806 254.073,144.239 255.281,142.867C270.04,126.11 262.029,108.032 256.775,102.376C254.127,99.524 250.989,96.964 247.202,94.843C242.405,92.156 236.831,90.24 230.478,89.114C229.717,88.979 227.863,88.719 224.913,88.331C223.013,88.08 221.523,88.119 219.815,87.925C218.726,87.802 217.445,87.738 215.97,87.727C211.77,87.695 207.604,88.056 203.477,88.804C192.237,90.843 182.779,95.976 175.115,104.218C174.867,104.485 174.897,104.909 175.184,105.139L190.169,117.124C190.303,117.231 190.488,117.242 190.639,117.162C190.76,117.098 191.456,116.45 192.722,115.209C196.658,111.353 201.367,108.826 206.836,107.615C212.244,106.418 217.606,106.285 222.922,107.225C223.912,107.401 225.043,107.669 226.319,108.032C229.625,108.972 232.594,110.382 234.995,112.538C235.313,112.823 235.616,113.123 235.903,113.436C236.219,113.781 236.517,114.141 236.797,114.513C239.913,118.67 240.728,124.419 239.577,128.448C238.93,130.714 237.758,132.69 236.065,134.375C235.045,135.388 234.189,136.34 233.084,137.246C231.849,138.259 228.84,140.612 226.114,142.731C224.158,144.251 222.348,145.65 221.442,146.348Z" style="fill:white;fill-opacity:0.5;"/>
    <path d="M138.204,64.035C137.226,62.392 136.622,61.307 136.389,60.775C134.834,57.232 132.591,53.838 129.651,50.602C127.187,47.888 124.175,46.493 120.616,46.421C123.983,47.495 126.372,49.317 127.809,51.859C127.885,51.993 132.716,61.049 135.988,63.363C136.554,63.763 137.291,63.986 138.204,64.035Z" style="fill:white;fill-opacity:0.35;"/>
    <path d="M146.024,66.359C149.647,67.444 152.346,69.643 154.134,72.952C154.534,73.693 154.805,74.451 154.963,75.226C154.996,75.39 155.012,75.554 155.009,75.719C154.941,78.734 154.995,80.183 154.409,82.349C154.298,82.758 153.953,83.442 153.373,84.402C151.517,87.473 150.708,91.143 150.648,94.77C150.64,95.236 150.405,95.39 150.358,95.71C150.339,95.837 150.38,95.967 150.468,96.058C151.986,97.636 152.417,98.76 152.823,100.889C153.098,102.334 152.957,103.759 152.998,105.33C153.053,107.378 152.043,109.336 150.438,110.558C149.83,111.021 149.418,111.392 149.2,111.678C149.112,111.793 149.059,111.934 149.054,112.079C148.957,115.145 148.175,117.751 146.757,119.895C144.162,123.819 142.161,126.381 140.398,129.835C138.843,132.882 138.003,134.601 137.879,134.987C137.283,136.857 136.904,138.824 136.748,140.895C136.656,142.122 136.905,143.395 137.49,144.717C135.288,144.167 133.588,143.195 132.388,141.801C130.86,140.027 130.251,137.8 130.568,135.113C130.867,132.583 131.497,130.374 132.456,128.486C133.786,125.872 134.965,123.413 136.779,120.781C138.527,118.246 139.785,116.359 140.551,115.121C141.959,112.846 142.657,110.305 142.71,107.497C142.713,107.363 142.753,107.238 142.825,107.13C143.363,106.321 144.407,105.922 144.866,105.368C145.969,104.037 146.578,102.777 146.689,101.584C146.723,101.214 146.736,99.78 146.7,97.281C146.697,97.067 146.66,96.858 146.589,96.658C146.397,96.117 146.352,95.504 145.993,94.988C145.381,94.106 144.464,93.681 143.245,93.719C142.802,93.733 145.28,83.456 146.624,80.66C147.096,79.679 147.526,78.895 147.919,78.302C148.071,78.074 150.994,72.99 146.131,66.501C146.097,66.44 146.061,66.393 146.024,66.359Z" style="fill:white;fill-opacity:0.35;"/>
    <path d="M292.937,129.931C293.904,133.745 294.531,136.745 294.814,138.931C295.586,144.912 295.96,149.976 295.937,154.123C295.933,154.918 295.234,172.364 294.363,179.163C294.137,180.925 293.885,182.301 293.614,183.298C293.178,184.892 293.147,186.535 292.773,187.655C292.723,187.8 292.471,188.824 292.016,190.728C287.552,209.443 279.446,226.775 267.694,242.731C264.151,247.542 260.406,251.98 256.45,256.034C254.433,258.106 253.309,259.279 253.083,259.558C252.934,259.742 252.762,259.906 252.571,260.047C251.834,260.582 251.253,261.125 250.825,261.672C250.641,261.909 250.427,262.123 250.19,262.306C248.696,263.456 247.779,264.568 246.434,265.654C243.181,268.272 240.066,270.729 237.089,273.022C236.313,273.622 235.572,274.111 234.873,274.49C233.89,275.025 233.073,275.873 231.987,276.55C228.697,278.594 226.641,279.859 225.819,280.337C221.359,282.936 216.906,285.244 212.465,287.266C211.491,287.709 210.295,288.046 209.523,288.577C209.355,288.692 209.171,288.783 208.976,288.841C207.409,289.307 206.152,290.025 204.734,290.541C201.172,291.833 199.093,292.582 198.493,292.789C198.428,292.811 198.306,292.815 198.122,292.8C197.981,292.789 197.836,292.815 197.702,292.869C196.666,293.308 195.623,293.687 194.576,293.996C179.705,298.414 164.525,300.394 149.028,299.935C146.666,299.867 144.973,299.557 142.603,299.63C141.529,299.66 137.467,299.198 130.416,298.238C130.286,298.219 130.068,298.151 129.762,298.028C129.552,297.944 129.338,297.883 129.116,297.845C125.111,297.145 122.21,296.576 120.41,296.136C99.054,290.912 79.895,281.377 62.934,267.53C59.151,264.442 55.466,260.907 51.862,257.452C51.664,257.261 51.389,257.166 51.113,257.196L7.878,261.84C7.77,261.851 7.671,261.786 7.641,261.683C7.461,261.087 6.337,256.795 4.266,248.811C4.232,248.674 4.258,248.437 4.354,248.104C4.732,247.959 5.519,247.821 6.708,247.695C22.564,246.015 35.307,244.658 44.93,243.602C45.969,243.488 46.986,243.458 47.983,243.499C48.19,243.508 48.388,243.595 48.534,243.747C50.255,245.554 51.48,246.775 52.195,247.416C59.048,253.558 65.49,258.603 71.499,262.573C74.01,264.232 77.185,266.136 81.034,268.283C84.699,270.328 87.994,272.009 90.917,273.328C105.456,279.885 120.453,283.908 135.911,285.416C136.848,285.508 138.598,285.636 141.162,285.802C147.977,286.244 154.248,286.252 159.985,285.814C171.259,284.952 181.998,282.963 192.199,279.848C194.992,278.992 197.87,277.784 200.503,276.955C201.535,276.63 202.636,276.22 203.805,275.72C209.41,273.325 213.643,271.375 216.497,269.858C238.477,258.194 256.321,241.963 270.025,221.168C273.442,215.99 276.537,210.49 279.312,204.67C282.843,197.266 285.631,189.933 287.671,182.671C288.592,179.389 289.084,177.619 289.146,177.363C289.716,174.993 290.232,172.619 290.694,170.247C290.849,169.448 290.813,168.593 291.145,167.85C291.186,167.758 291.213,167.663 291.229,167.564C291.504,165.768 291.845,163.475 292.245,160.688C292.444,159.305 292.351,158.146 292.62,156.958C292.699,156.61 292.76,156.114 292.803,155.468C293.195,149.608 293.337,143.567 293.212,137.349C293.2,136.756 293.133,135.518 293.01,133.642C292.93,132.422 292.903,131.188 292.937,129.931Z" style="fill:white;fill-opacity:0.2;"/>
    <path d="M177.221,196.942C177.143,197.053 177.125,197.19 177.152,197.324C178.276,202.887 179.06,206.894 179.476,209.351C180.131,213.23 180.647,217.469 181.043,222.063C181.077,222.456 181.075,223.901 181.066,226.404C181.065,226.53 180.997,226.653 180.886,226.717C176.455,229.3 173.304,231.01 171.442,231.885C159.273,237.6 146.119,241.495 132.491,242.735C129.965,242.964 127.182,243.298 124.561,243.285C122.363,243.274 119.103,243.275 114.777,243.277C114.681,243.277 114.589,243.27 114.498,243.254C113.576,243.097 112.594,242.98 111.559,242.914C106.158,242.571 100.678,241.745 95.121,240.453C86.95,238.554 79.243,235.919 71.999,232.557C70.047,231.651 68.266,230.783 66.664,229.955C64.566,228.869 62.502,227.292 60.377,225.877C60.228,225.777 60.301,225.544 60.481,225.548L60.939,225.559C63.958,227.18 67.065,228.629 70.257,229.909C74.693,231.687 79.104,233.2 83.484,234.445C90.757,236.513 98.118,237.796 105.57,238.305C107.187,238.416 108.524,238.646 110.019,238.619C110.221,238.615 113.382,238.608 119.504,238.626C120.311,238.629 121.182,238.568 122.118,238.439C122.742,238.353 123.613,238.272 124.725,238.198C135.606,237.478 146.819,234.793 158.372,230.18C164.582,227.7 170.009,225.009 174.599,222.04C174.699,221.975 174.76,221.868 174.764,221.749C174.937,215.509 173.984,209.88 173.105,203.878C173.001,203.168 172.775,202.09 172.428,200.649L172.362,200.37L172.364,200.367C172.113,199.206 171.796,197.159 171.796,197.159L171.837,197.095C193.233,163.976 173.313,151.045 156.514,152.15L156.239,152.17C156.184,152.157 156.155,152.113 156.151,152.067C156.154,152.019 156.182,151.968 156.232,151.948C168.426,147.119 184.686,156.31 185.717,168.986L185.737,169.127C185.9,170.352 186.865,179.355 180.953,190.801C180.859,190.983 180.763,191.166 180.665,191.35C179.7,193.162 178.562,195.033 177.221,196.942Z" style="fill:white;fill-opacity:0.35;"/>
    <path d="M156.239,152.17C156.177,152.174 156.148,152.123 156.151,152.067C156.155,152.113 156.184,152.157 156.239,152.17Z" style="fill:white;fill-opacity:0.95;"/>
    <path d="M170.502,177.317C173.85,176.185 172.21,169.395 171.641,166.903C171.159,164.793 170.146,163.062 168.985,161.502C167.077,158.939 164.494,157.711 161.231,157.834C160.439,157.863 159.669,158.055 158.915,158.395C158.667,158.507 158.476,158.721 158.391,158.98C157.701,161.081 158.778,162.717 160.233,163.922C161.774,165.197 163.68,166.652 165.958,168.263C166.164,168.409 166.336,168.6 166.463,168.821C167.463,170.576 168.227,172.65 168.748,175.043C168.963,176.029 169.401,176.773 170.074,177.252C170.199,177.341 170.357,177.366 170.502,177.317Z" style="fill:white;fill-opacity:0.95;"/>
    <path d="M212.236,213.322C214.892,213.727 217.933,213.32 220.377,211.927C221.572,211.246 222.303,210.803 222.574,210.593C225.53,208.309 227.276,205.338 227.802,201.669C228.709,195.352 226.459,190.614 221.045,187.464C219.895,186.795 218.347,186.311 216.406,186.015C214.46,185.719 212.84,185.718 211.541,186.015C205.434,187.413 201.874,191.255 200.855,197.557C200.264,201.215 201.051,204.565 203.182,207.631C203.378,207.913 203.943,208.556 204.879,209.561C206.798,211.621 209.58,212.917 212.236,213.322Z" style="fill:white;fill-opacity:0.25;"/>
    <path d="M221.442,146.348C222.348,145.65 224.158,144.251 226.114,142.731C228.84,140.612 231.849,138.259 233.084,137.246C234.189,136.34 235.045,135.388 236.065,134.375C237.758,132.69 238.93,130.714 239.577,128.448C240.728,124.419 239.913,118.67 236.797,114.513C236.517,114.141 236.219,113.781 235.903,113.436C235.616,113.123 235.313,112.823 234.995,112.538C232.594,110.382 229.625,108.972 226.319,108.032C225.043,107.669 223.912,107.401 222.922,107.225C217.606,106.285 212.244,106.418 206.836,107.615C201.367,108.826 196.658,111.353 192.722,115.209C191.456,116.45 190.76,117.098 190.639,117.162C190.488,117.242 190.303,117.231 190.169,117.124L175.184,105.139C174.897,104.909 174.867,104.485 175.115,104.218C182.779,95.976 192.237,90.843 203.477,88.804C207.604,88.056 211.77,87.695 215.97,87.727C217.445,87.738 218.726,87.802 219.815,87.925C221.523,88.119 223.013,88.08 224.913,88.331C227.863,88.719 229.717,88.979 230.478,89.114C236.831,90.24 242.405,92.156 247.202,94.843C250.989,96.964 254.127,99.524 256.775,102.376C262.029,108.032 270.04,126.11 255.281,142.867C254.073,144.239 252.384,145.806 250.209,147.561C247.347,149.869 245.547,151.321 244.817,151.914C244.473,152.193 243.953,152.365 243.617,152.636C238.642,156.647 235.646,158.729 232.366,162.76C230.219,165.398 229.053,168.424 228.842,171.844C228.816,172.261 228.452,172.57 228.035,172.528L206.798,170.392C206.637,170.377 206.516,170.231 206.526,170.071C206.838,165.459 208.174,161.187 210.597,157.264C211.364,156.021 212.745,154.398 214.732,152.399C217.235,149.881 219.333,147.966 221.034,146.662C221.157,146.568 221.294,146.463 221.442,146.348Z" style="fill:white;fill-opacity:0.25;"/>
    <path d="M146.024,66.359C151.037,72.916 148.072,78.073 147.919,78.302C147.526,78.895 147.096,79.679 146.624,80.66C145.28,83.456 142.802,93.733 143.245,93.719C144.464,93.681 145.382,94.105 145.993,94.988C146.352,95.504 146.397,96.117 146.589,96.658C146.66,96.858 146.697,97.067 146.7,97.281C146.736,99.78 146.723,101.214 146.689,101.584C146.578,102.777 145.969,104.037 144.866,105.368C144.407,105.922 143.363,106.321 142.825,107.13C142.753,107.238 142.713,107.363 142.71,107.497C142.657,110.305 141.959,112.846 140.551,115.121C139.785,116.359 138.527,118.246 136.779,120.781C134.965,123.413 133.786,125.872 132.456,128.486C131.497,130.374 130.867,132.583 130.568,135.113C130.251,137.8 130.86,140.027 132.388,141.801C133.588,143.195 135.288,144.167 137.49,144.717C137.941,144.874 138.453,145.064 139.026,145.283C139.515,145.469 140.031,145.627 140.574,145.761C143.627,146.509 145.89,147.148 147.361,147.687C148.416,148.073 149.895,148.696 151.795,149.563C151.81,149.567 151.825,149.575 151.837,149.586L155.02,151.921C155.142,152.013 155.148,152.252 154.997,152.273C150.169,152.942 144.499,157.83 142.309,162.76C142.243,162.907 142.027,162.893 141.911,162.775C121.291,141.801 101.995,162.682 104.45,176.467C106.545,188.228 114.655,203.878 141.525,219.273C142.497,219.829 143.329,220.748 144.499,221.164C144.613,221.206 144.74,221.184 144.835,221.107C146.551,219.704 165.905,204.291 170.089,199.579C170.273,199.371 171.414,197.889 171.78,197.189L171.796,197.159C171.796,197.159 172.113,199.206 172.364,200.367L172.362,200.37C172.384,200.463 172.406,200.556 172.428,200.649C172.775,202.09 173.001,203.168 173.105,203.878C173.984,209.88 174.937,215.509 174.764,221.749C174.76,221.868 174.699,221.975 174.599,222.04C170.009,225.009 164.582,227.7 158.372,230.18C146.819,234.793 135.606,237.478 124.725,238.198C123.613,238.272 122.742,238.353 122.118,238.439C121.182,238.568 120.311,238.629 119.504,238.626C113.382,238.608 110.221,238.615 110.019,238.619C108.524,238.646 107.187,238.416 105.57,238.305C98.118,237.796 90.757,236.513 83.484,234.445C79.104,233.2 74.693,231.687 70.257,229.909C67.065,228.629 63.958,227.18 60.939,225.559L59.105,224.677C59.051,224.65 59.01,224.6 58.994,224.543C58.953,224.394 58.999,224.262 59.132,224.145C59.213,224.074 59.266,223.981 59.292,223.863C59.44,223.176 59.545,222.525 59.621,221.917C59.768,220.737 59.851,220.083 59.877,219.964C60.581,216.696 61.212,212.355 61.864,206.955C62.006,205.782 62.067,204.998 62.048,204.605C62.04,204.448 62.053,204.291 62.086,204.138C62.225,203.497 62.495,202.656 62.586,201.834C62.916,198.876 63.232,196.101 63.534,193.506C63.794,191.282 64.347,189.138 64.539,187.043C64.574,186.665 64.449,186.065 64.169,185.251C63.48,183.255 63.431,181.066 64.023,178.685C64.856,175.341 65.513,172.926 65.992,171.431C67.118,167.911 67.472,165.697 68.503,161.334C68.864,159.805 69.235,158.559 69.618,157.593C70.266,155.96 70.603,154.343 71.506,152.739C72.495,150.984 73.009,150.068 73.047,149.987C74.143,147.667 76.888,145.552 79.177,144.687C79.983,144.382 81.175,144.173 82.75,144.064C84.309,143.955 85.674,143.692 87.47,143.708C93.199,143.761 98.859,143.769 104.45,143.724C104.867,143.72 105.234,143.452 105.368,143.059C105.368,143.059 106.654,137.7 106.659,136.886C106.668,135.66 106.667,134.379 106.663,133.042C106.663,132.923 106.652,132.805 106.625,132.69L106.292,131.18C106.269,131.073 106.231,130.974 106.174,130.882C105.486,129.782 104.76,128.93 103.992,128.329C102.336,127.035 100.958,125.711 99.849,124.37C97.431,121.445 94.967,117.673 93.7,114.368C92.803,112.029 92.039,109.147 91.387,105.723C91.278,105.146 91.164,104.562 91.047,103.977C90.618,101.834 90.367,100.553 90.279,100.14C90.03,98.97 89.71,97.709 89.308,96.356C87.914,91.659 87.038,88.308 86.69,86.301C86.362,84.406 86.002,82.196 85.601,79.674C85.491,78.982 86.186,73.724 86.335,73.154C86.965,70.746 88.162,69.168 90.554,68.171C92.232,67.471 92.805,66.928 93.57,65.377C93.639,65.236 93.688,65.086 93.719,64.93C94.436,61.238 95.938,58.004 98.228,55.23C103.061,49.377 110.235,45.418 117.895,45.935C118.423,45.971 120.284,46.195 120.616,46.421C123.983,47.495 126.372,49.317 127.809,51.859C127.885,51.993 132.716,61.049 135.988,63.363C136.554,63.763 137.291,63.986 138.204,64.035C138.514,64.249 143.733,63.363 146.024,66.359Z" style="fill:white;fill-opacity:0.95;"/>
</svg>
