<?xml version="1.0" encoding="UTF-8" standalone="no"?>
<!DOCTYPE svg PUBLIC "-//W3C//DTD SVG 1.1//EN" "http://www.w3.org/Graphics/SVG/1.1/DTD/svg11.dtd">
<svg width="100%" height="100%" viewBox="0 0 300 300" version="1.1" xmlns="http://www.w3.org/2000/svg" xmlns:xlink="http://www.w3.org/1999/xlink" xml:space="preserve" xmlns:serif="http://www.serif.com/" style="fill-rule:evenodd;clip-rule:evenodd;stroke-linejoin:round;stroke-miterlimit:2;">
    <path d="M220.388,73.134C220.662,75.372 220.822,77.019 220.87,78.078C221.393,89.549 219.138,100.193 214.105,110.01C208.473,120.988 199.736,130.057 188.99,136.006C173.228,144.736 154.154,146.281 137.261,140.017C129.409,137.11 122.397,132.794 116.226,127.074C116.048,126.907 115.802,126.831 115.563,126.869L96.978,129.664L103.238,110.105C103.272,110 103.262,109.88 103.211,109.777C99.339,102.062 97.135,93.858 96.602,85.169C96.568,84.639 96.555,82.807 96.558,79.678C96.561,78.341 96.616,77.333 96.729,76.66C96.951,75.335 96.913,74.207 97.153,72.649C99.719,55.81 108.921,40.509 122.968,30.74C134.049,23.035 146.504,19.259 160.335,19.416C161.805,19.43 163.072,19.652 164.422,19.724C165.348,19.768 165.891,19.802 166.059,19.826C177.13,21.313 186.889,25.146 195.339,31.334C208.709,41.124 217.211,55.134 220.176,71.45C220.289,72.071 220.361,72.632 220.388,73.134ZM174.352,65.853C156.437,65.842 146.223,65.839 143.712,65.846C140.483,65.856 137.65,66.447 135.207,67.623C128.797,70.711 124.492,77.077 124.246,84.229C123.996,91.473 127.164,97.408 133.184,101.461C136.963,103.999 141.532,104.464 145.848,104.474C153.874,104.491 168.054,104.491 188.389,104.471C190.422,104.468 192.045,103.822 191.901,101.556C191.717,98.594 188.799,98.997 186.677,99C172.168,99.004 158.073,99.011 144.392,99.024C142.557,99.028 141.252,98.929 140.476,98.73C137.428,97.945 134.944,96.441 133.024,94.223C126.118,86.248 129.969,74.911 139.605,71.713C141.467,71.094 143.999,70.981 145.93,70.985C156.922,71.016 166.394,71.022 174.352,71.002C174.447,71.002 174.495,71.118 174.427,71.183L166.26,79.349C166.021,79.589 165.888,79.913 165.888,80.252L165.888,81.666C165.888,81.738 165.902,81.806 165.926,81.875C166.066,82.254 166.295,82.582 166.612,82.855C167.921,83.986 169.172,83.959 170.361,82.777C176.952,76.226 180.878,72.317 182.139,71.043C184.292,68.873 184.035,67.623 181.794,65.48C181.497,65.2 178.008,61.715 171.324,55.021C169.831,53.528 168.464,52.53 166.667,53.979C165.782,54.693 165.792,55.68 165.871,56.63C165.902,57.013 166.308,57.59 167.087,58.363C169.855,61.113 172.302,63.55 174.427,65.675C174.492,65.74 174.444,65.853 174.352,65.853Z" style="fill:white;fill-opacity:0.95;fill-rule:nonzero;"/>
    <path d="M174.352,65.853C174.444,65.853 174.492,65.74 174.427,65.675C172.302,63.55 169.855,61.113 167.087,58.363C166.308,57.59 165.902,57.013 165.871,56.63C165.792,55.68 165.782,54.693 166.667,53.979C168.464,52.53 169.831,53.528 171.324,55.021C178.008,61.715 181.497,65.2 181.794,65.48C184.035,67.623 184.292,68.873 182.139,71.043C180.878,72.317 176.952,76.226 170.361,82.777C169.172,83.959 167.921,83.986 166.612,82.855C166.295,82.582 166.066,82.254 165.926,81.875C165.902,81.806 165.888,81.738 165.888,81.666L165.888,80.252C165.888,79.913 166.021,79.589 166.26,79.349L174.427,71.183C174.495,71.118 174.447,71.002 174.352,71.002C166.394,71.022 156.922,71.016 145.93,70.985C143.999,70.981 141.467,71.094 139.605,71.713C129.969,74.911 126.118,86.248 133.024,94.223C134.944,96.441 137.428,97.945 140.476,98.73C141.252,98.929 142.557,99.028 144.392,99.024C158.073,99.011 172.168,99.004 186.677,99C188.799,98.997 191.717,98.594 191.901,101.556C192.045,103.822 190.422,104.468 188.389,104.471C168.054,104.491 153.874,104.491 145.848,104.474C141.532,104.464 136.963,103.999 133.184,101.461C127.164,97.408 123.996,91.473 124.246,84.229C124.492,77.077 128.797,70.711 135.207,67.623C137.65,66.447 140.483,65.856 143.712,65.846C146.223,65.839 156.437,65.842 174.352,65.853Z" style="fill:white;fill-opacity:0.5;fill-rule:nonzero;"/>
    <path d="M96.978,129.664L115.563,126.869C115.802,126.831 116.048,126.907 116.226,127.074C122.397,132.794 129.409,137.11 137.261,140.017C154.154,146.281 173.228,144.736 188.99,136.006C199.736,130.057 208.473,120.988 214.105,110.01C219.138,100.193 221.393,89.549 220.87,78.078C220.822,77.019 220.662,75.372 220.388,73.134C220.467,72.731 220.576,73.008 220.71,73.964C220.713,73.981 220.723,73.999 220.74,74.009C220.778,74.036 220.826,74.04 220.884,74.022C220.887,74.022 220.891,74.026 220.894,74.029C222.514,80.487 222.975,87.079 222.281,93.8C220.18,114.086 208.839,131.8 191.235,141.835C183.424,146.288 175.117,148.915 166.312,149.725C157.513,150.535 148.967,149.554 140.674,146.79C132.538,144.08 125.131,139.707 118.444,133.669C117.934,133.211 117.354,133.03 116.701,133.129C111.893,133.857 105.927,134.731 98.81,135.76C98.711,135.774 98.615,135.712 98.584,135.613L96.982,130.252C96.965,130.194 96.954,130.132 96.958,130.067L96.978,129.664Z" style="fill:white;fill-opacity:0.25;fill-rule:nonzero;"/>
    <path d="M273.648,153.901L272.955,153.46L272.469,152.988C270.768,151.498 269.941,149.766 269.992,147.791C270.033,146.26 271.561,146.199 272.288,145.512C273.447,144.422 274.157,143.37 274.427,142.358C274.875,140.653 274.366,139.324 272.893,138.371C271.431,137.424 269.391,137.123 267.597,136.43C264.122,135.08 264.703,132.022 265.106,129.083C265.694,124.826 262.335,122.977 258.576,123.691C256.478,124.033 254.807,125.072 252.754,126.288C251.356,127.118 249.808,127.32 248.103,126.893C248.049,126.428 247.608,126.169 246.777,126.114C246.658,126.107 246.538,126.083 246.422,126.042C244.902,125.523 243.039,124.894 242.899,123.09C242.804,121.863 242.691,121.18 242.564,121.033C242.493,120.954 242.428,120.872 242.366,120.787C241.84,120.08 240.975,119.447 239.769,118.887C239.253,118.644 238.795,118.224 238.389,117.619C237.213,115.856 237.172,114.049 238.269,112.197C238.324,112.104 238.389,112.022 238.461,111.944C238.799,111.578 239.366,111.383 240.155,111.366C240.589,111.356 241.167,111.537 241.895,111.916C243.111,112.549 244.491,112.965 246.039,113.164C246.258,113.191 246.484,113.153 246.682,113.047C246.842,112.962 247.16,112.89 247.635,112.832C247.922,112.798 248.199,112.699 248.441,112.545C249.142,112.104 249.743,111.493 250.242,110.71C250.355,110.536 250.533,110.112 250.775,109.439C251.349,107.861 252.555,107.058 254.325,107.341C255.388,107.509 256.444,107.734 257.486,108.014C257.52,108.025 257.554,108.028 257.585,108.028L259.277,108.028C259.321,108.028 259.365,108.021 259.41,108.007C260.001,107.799 260.592,107.317 261.18,106.559C262.044,105.445 263.787,104.847 265.239,104.884C267.682,104.953 269.569,106.138 270.894,108.438C271.089,108.776 271.373,108.974 271.752,109.036C271.851,109.053 271.954,109.036 272.042,108.992C275.254,107.368 279.197,107.14 281.952,109.572C283.264,110.731 283.722,113.427 283.769,115.18C283.773,115.33 283.752,115.477 283.708,115.617C283.571,116.037 283.561,116.437 283.681,116.81C283.715,116.912 283.698,117.025 283.633,117.114L283.438,117.38C283.206,117.698 283.54,118.118 283.903,117.968C286.91,116.714 290.074,116.946 292.52,119.174C292.718,119.355 293.036,119.898 293.477,120.811C293.528,120.913 293.556,121.026 293.562,121.139C293.651,122.796 293.603,123.842 293.415,124.272C292.53,126.312 291.663,127.949 290.812,129.182C290.576,129.521 290.285,129.821 289.937,130.084C289.817,130.173 289.862,130.361 290.009,130.389C291.85,130.73 292.951,131.827 293.316,133.682C293.617,135.213 293.614,136.655 293.309,138.012C293.176,138.617 292.954,139.153 292.643,139.614C292.592,139.693 292.51,139.744 292.418,139.754L291.656,139.85C291.42,139.881 291.345,140.181 291.536,140.322C293.077,141.456 292.971,143.851 292.073,145.327C291.526,146.226 291.129,146.81 290.88,147.087C289.65,148.454 287.466,149.346 285.734,148.31C285.515,148.181 285.242,148.338 285.242,148.591C285.245,150.32 284.179,151.382 282.433,151.505C281.466,151.57 280.513,151.31 279.573,150.719C279.286,150.535 278.764,150.793 278.924,151.095C280.008,153.133 277.915,156.612 273.648,153.901Z" style="fill:white;fill-opacity:0.35;fill-rule:nonzero;"/>
    <path d="M61.192,123.081C61.017,123.102 60.875,123.119 60.786,123.127C59.44,123.261 58.093,123.435 56.747,123.654C54.762,123.907 53.259,123.967 52.24,123.835C48.267,123.32 44.702,123.534 43.26,128.007C42.963,128.929 42.554,130.1 42.017,131.516C41.956,131.677 41.936,131.851 41.959,132.018C42.549,136.344 43.505,140.312 44.911,143.903C45.839,146.274 47.545,149.314 50.525,149.137C52.49,149.021 53.214,147.529 54.625,146.749C55.996,145.991 56.949,146.055 58.654,146.141C60.591,146.472 62.064,146.564 63.065,146.411C65.522,146.034 66.673,144.641 66.52,142.225C66.735,143.281 67.192,154.735 63.506,159.774C60.786,163.493 55.475,164.397 50.156,161.845L47.463,160.844C47.439,160.834 47.419,160.823 47.398,160.81C46.596,160.276 45.678,160.155 45.03,159.368C44.969,159.293 44.863,159.272 44.774,159.32C44.37,159.54 43.835,159.616 43.161,159.549C41.593,159.392 39.99,159.06 38.35,158.548C36.806,158.086 35.354,157.403 33.99,156.504L31.041,154.331C30.908,154.232 30.785,154.116 30.679,153.989C29.661,152.776 28.687,151.56 27.522,150.463C25.971,149.007 24.703,147.945 23.712,146.523C21.963,144.019 18.33,137.892 21.98,127.607C23.326,123.814 24.091,120.869 24.635,118.89C25.202,116.837 25.786,115.368 26.384,114.483C27.775,112.422 29.36,110.919 31.14,109.965C33.324,108.797 35.572,108.035 37.892,107.683C38.665,107.563 39.416,107.447 40.144,107.331C42.252,106.996 45.211,107.051 46.609,106.958C48.034,106.866 55.657,107.416 56.071,107.437C57.646,107.526 72.004,107.755 72.53,107.751C72.626,107.751 72.708,107.82 72.718,107.912C74.161,109.135 73.643,123.991 63.626,122.858C63.589,122.854 63.542,122.852 63.486,122.852C63.003,122.853 61.859,123 61.192,123.081ZM40.421,148.857C39.567,143.865 38.931,139.262 38.518,135.046C38.501,134.875 38.354,134.749 38.183,134.759C32.251,135.176 31.585,141.586 33.953,145.744C34.451,146.622 35.241,147.258 36.321,147.644C37.872,148.198 39.201,148.635 40.305,148.96C40.37,148.98 40.431,148.922 40.421,148.857ZM56.952,153.244C57.389,153.859 58.015,154.111 58.811,154.01C60.253,153.827 61.597,153.389 62.775,154.229C62.922,154.334 63.103,154.38 63.284,154.355C64.292,154.218 65.576,152.824 65.313,151.721C65.067,150.685 63.892,150.484 62.901,150.432C61.254,150.347 57.021,150.838 56.853,152.886C56.842,153.016 56.88,153.142 56.952,153.244Z" style="fill:white;fill-opacity:0.25;"/>
    <path d="M63.486,122.852C64.234,124.495 65.839,128.985 65.915,129.983C65.539,129.881 65.151,129.823 64.759,129.823C63.896,129.823 63.636,130.498 63.755,130.983C63.81,131.209 63.988,131.448 64.292,131.704C64.547,131.919 65.314,132.239 66.184,132.559L66.52,142.225C66.673,144.641 65.522,146.034 63.065,146.411C62.064,146.564 60.591,146.472 58.654,146.141C58.842,142.098 63.556,146.332 63.4,143.082C63.276,140.506 62.803,138.08 62.016,135.405C61.573,133.897 61.107,132.401 60.618,130.918C60.133,129.442 59.144,127.164 57.653,124.081C57.509,123.784 57.208,123.64 56.747,123.654C58.093,123.435 59.44,123.261 60.786,123.127C60.924,123.114 61.06,123.099 61.192,123.081C61.859,123 63.003,122.853 63.486,122.852ZM65.4,135.669C65.013,135.685 64.729,136.46 64.771,137.397C64.811,138.333 65.16,139.078 65.548,139.063C65.935,139.047 66.219,138.271 66.177,137.335C66.137,136.399 65.788,135.654 65.4,135.669Z" style="fill:white;fill-opacity:0.75;"/>
    <path d="M258.576,123.691C262.335,122.977 265.694,124.826 265.106,129.083C264.703,132.022 264.122,135.08 267.597,136.43C269.391,137.123 271.431,137.424 272.893,138.371C274.366,139.324 274.875,140.653 274.427,142.358C274.157,143.37 273.447,144.422 272.288,145.512C271.561,146.199 270.033,146.26 269.992,147.791C269.941,149.766 270.768,151.498 272.469,152.988C272.432,153.142 272.374,153.241 272.299,153.282C270.409,154.304 268.663,155.363 267.06,156.453C265.899,157.242 265.038,157.625 263.951,158.247C261.436,159.679 258.043,160.041 255.221,159.829C255.125,159.822 255.033,159.839 254.944,159.877L254.602,160.027C254.507,159.99 254.448,159.935 254.431,159.863L252.009,159.46C251.903,159.443 251.811,159.384 251.753,159.296C251.058,158.254 250.574,157.235 250.331,156.227C249.959,154.683 250.147,153.005 250.895,151.191C251.298,151.068 251.674,150.815 252.022,150.429C252.245,150.179 252.238,149.8 252.005,149.561C251.794,149.342 251.541,149.161 251.25,149.014C252.214,147.323 253.396,143.133 249.723,143.622C247.246,143.952 248.031,141.637 248.503,140.236C249.081,138.532 250.774,135.278 252.079,132.892C253.104,133.71 254.429,134.165 256.054,134.263C256.618,134.297 257.066,134.233 257.39,134.069C257.49,134.017 257.575,133.942 257.637,133.846C258.05,133.204 257.917,132.61 257.237,132.066C255.912,131.006 254.577,130.591 253.234,130.823C253.491,130.374 253.666,130.079 253.717,130.006C255.409,127.573 257.028,125.468 258.576,123.691ZM253.106,135.572C252.679,135.524 252.248,136.252 252.143,137.195C252.04,138.138 252.303,138.941 252.729,138.989C253.157,139.037 253.587,138.309 253.692,137.366C253.796,136.423 253.533,135.62 253.106,135.572Z" style="fill:white;fill-opacity:0.95;"/>
    <path d="M56.747,123.654C54.762,123.907 53.259,123.967 52.24,123.835C48.267,123.32 44.702,123.534 43.26,128.007C42.963,128.929 42.554,130.1 42.017,131.516C41.956,131.677 41.936,131.851 41.959,132.018C42.549,136.344 43.505,140.312 44.911,143.903C45.839,146.274 47.545,149.314 50.525,149.137C52.49,149.021 53.214,147.529 54.625,146.749C55.996,145.991 56.949,146.055 58.654,146.141C58.842,142.098 63.556,146.332 63.4,143.082C63.276,140.506 62.803,138.08 62.016,135.405C61.573,133.897 61.107,132.401 60.618,130.918C60.133,129.442 59.144,127.164 57.653,124.081C57.509,123.784 57.208,123.64 56.747,123.654ZM58.417,135.191C57.936,135.21 57.584,136.078 57.626,137.127C57.67,138.179 58.09,139.013 58.57,138.994C59.05,138.975 59.402,138.107 59.36,137.058C59.317,136.006 58.896,135.172 58.417,135.191ZM60.282,131.005C60.164,130.385 58.527,130.177 56.63,130.542C54.731,130.908 53.289,131.707 53.41,132.328C53.528,132.948 55.165,133.156 57.063,132.79C58.961,132.425 60.403,131.625 60.282,131.005Z" style="fill:white;fill-opacity:0.95;"/>
    <path d="M252.079,132.892C250.774,135.278 249.081,138.532 248.503,140.236C248.031,141.637 247.246,143.952 249.723,143.622C253.396,143.133 252.214,147.323 251.25,149.014C249.771,148.327 248.271,148.327 246.757,149.011C245.886,149.404 246.289,150.764 246.979,151.064C248.042,151.529 249.658,151.44 250.895,151.191C250.147,153.005 249.959,154.683 250.331,156.227C250.574,157.235 251.058,158.254 251.753,159.296C251.811,159.384 251.903,159.443 252.009,159.46L254.431,159.863C252.781,160.003 251.216,159.733 249.733,159.057C246.162,157.434 245.271,151.177 245.274,147.555C245.277,144.343 245.356,141.381 245.51,138.671C245.513,138.593 245.571,138.528 245.65,138.517C246.104,138.446 246.371,138.316 246.446,138.121C246.62,137.68 246.668,137.154 246.593,136.549C246.548,136.177 246.354,136.006 246.012,136.04C245.906,136.05 245.817,135.972 245.814,135.866C245.787,135.029 245.964,134.393 246.35,133.963C247.054,133.696 248.65,132.651 248.271,131.694C248.021,131.065 247.509,130.822 246.73,130.963C246.952,129.531 247.41,128.174 248.103,126.893C249.808,127.32 251.356,127.118 252.754,126.288C254.807,125.072 256.478,124.033 258.576,123.691C257.028,125.468 255.409,127.573 253.717,130.006C253.666,130.079 253.491,130.374 253.234,130.823C252.716,130.913 252.197,131.098 251.677,131.379C251.544,131.964 251.595,132.401 251.838,132.688C251.916,132.758 251.997,132.826 252.079,132.892Z" style="fill:white;fill-opacity:0.75;"/>
    <path d="M63.755,130.983C63.636,130.498 63.896,129.823 64.759,129.823C65.151,129.823 65.539,129.881 65.915,129.983C68.144,130.588 69.962,132.729 69.701,133.402C69.644,133.549 69.653,133.703 69.503,133.662C69.503,133.662 67.69,133.112 66.184,132.559C65.314,132.239 64.547,131.919 64.292,131.704C63.988,131.448 63.81,131.209 63.755,130.983Z" style="fill:white;fill-opacity:0.15;"/>
    <path d="M60.282,131.005C60.164,130.385 58.527,130.177 56.63,130.542C54.731,130.908 53.289,131.707 53.41,132.328C53.528,132.948 55.165,133.156 57.063,132.79C58.961,132.425 60.403,131.625 60.282,131.005Z" style="fill:white;fill-opacity:0.15;"/>
    <path d="M252.079,132.892C251.997,132.826 251.916,132.758 251.838,132.688C251.595,132.401 251.544,131.964 251.677,131.379C252.197,131.098 252.716,130.913 253.234,130.823C254.577,130.591 255.912,131.006 257.237,132.066C257.917,132.61 258.05,133.204 257.637,133.846C257.575,133.942 257.49,134.017 257.39,134.069C257.066,134.233 256.618,134.297 256.054,134.263C254.429,134.165 253.104,133.71 252.079,132.892Z" style="fill:white;fill-opacity:0.15;"/>
    <path d="M246.35,133.963L246.73,130.963C247.509,130.822 248.021,131.065 248.271,131.694C248.65,132.651 247.054,133.696 246.35,133.963Z" style="fill:white;fill-opacity:0.15;fill-rule:nonzero;"/>
    <path d="M40.421,148.857C39.567,143.865 38.931,139.262 38.518,135.046C38.501,134.875 38.354,134.749 38.183,134.759C32.251,135.176 31.585,141.586 33.953,145.744C34.451,146.622 35.241,147.258 36.321,147.644C37.872,148.198 39.201,148.635 40.305,148.96C40.37,148.98 40.431,148.922 40.421,148.857Z" style="fill:white;fill-opacity:0.95;"/>
    <path d="M58.417,135.191C57.936,135.21 57.584,136.078 57.626,137.127C57.67,138.179 58.09,139.013 58.57,138.994C59.05,138.975 59.402,138.107 59.36,137.058C59.317,136.006 58.896,135.172 58.417,135.191Z" style="fill:white;fill-opacity:0.15;"/>
    <path d="M253.106,135.572C253.533,135.62 253.796,136.423 253.692,137.366C253.587,138.309 253.157,139.037 252.729,138.989C252.303,138.941 252.04,138.138 252.143,137.195C252.248,136.252 252.679,135.524 253.106,135.572Z" style="fill:white;fill-opacity:0.15;fill-rule:nonzero;"/>
    <path d="M65.4,135.669C65.013,135.685 64.729,136.46 64.771,137.397C64.811,138.333 65.16,139.078 65.548,139.063C65.935,139.047 66.219,138.271 66.177,137.335C66.137,136.399 65.788,135.654 65.4,135.669Z" style="fill:white;fill-opacity:0.15;"/>
    <path d="M251.25,149.014C251.541,149.161 251.794,149.342 252.005,149.561C252.238,149.8 252.245,150.179 252.022,150.429C251.674,150.815 251.298,151.068 250.895,151.191C249.658,151.44 248.042,151.529 246.979,151.064C246.289,150.764 245.886,149.404 246.757,149.011C248.271,148.327 249.771,148.327 251.25,149.014Z" style="fill:white;fill-opacity:0.15;fill-rule:nonzero;"/>
    <path d="M56.952,153.244C57.389,153.859 58.015,154.111 58.811,154.01C60.253,153.827 61.597,153.389 62.775,154.229C62.922,154.334 63.103,154.38 63.284,154.355C64.292,154.218 65.576,152.824 65.313,151.721C65.067,150.685 63.892,150.484 62.901,150.432C61.254,150.347 57.021,150.838 56.853,152.886C56.842,153.016 56.88,153.142 56.952,153.244Z" style="fill:white;fill-opacity:0.95;"/>
    <path d="M272.955,153.46C271.762,154.293 270.597,155.148 269.452,156.022C268.246,156.942 267.149,157.881 266.162,158.838C264.566,160.386 262.919,161.883 261.224,163.328C260.879,163.622 260.127,164.343 258.976,165.491C258.255,166.205 257.486,166.909 256.673,167.599C256.731,165.542 256.386,163.601 255.638,161.773C255.333,161.032 254.988,160.447 254.602,160.027L254.944,159.877C255.033,159.839 255.125,159.822 255.221,159.829C258.043,160.041 261.436,159.679 263.951,158.247C265.038,157.625 265.899,157.242 267.06,156.453C268.663,155.363 270.409,154.304 272.299,153.282C272.374,153.241 272.432,153.142 272.469,152.988L272.955,153.46Z" style="fill:white;fill-opacity:0.75;fill-rule:nonzero;"/>
    <path d="M238.563,242.082C238.174,238.983 238.238,235.815 238.758,232.583C238.963,231.541 239.144,230.392 239.301,229.138C239.503,227.529 239.66,226.378 239.776,225.684C240.593,220.767 241.491,215.84 242.472,210.902C242.554,210.489 242.397,210.062 242.069,209.798C239.633,207.847 236.964,206.265 234.063,205.052C233.615,204.864 233.034,204.676 232.313,204.489L231.391,204.051C231.292,204.003 231.23,203.901 231.244,203.791C231.688,199.681 232.518,194.996 233.738,189.734C234.767,185.299 236.451,181.199 238.792,177.437C239.742,175.909 240.774,174.607 241.888,173.531C242.236,173.193 242.964,172.574 244.075,171.669C246.436,169.742 248.664,168.822 251.92,168.252C253.605,167.958 255.101,168.057 256.403,168.552C256.485,168.583 256.577,168.532 256.598,168.447C256.676,168.081 256.7,167.801 256.673,167.599C257.486,166.909 258.255,166.205 258.976,165.491C260.127,164.343 260.879,163.622 261.224,163.328C262.919,161.883 264.566,160.386 266.162,158.838C267.149,157.881 268.246,156.942 269.452,156.022C270.597,155.148 271.762,154.293 272.955,153.46L273.648,153.901C273.047,155.114 272.377,157.815 272.377,160C272.377,160.782 272.869,162.012 273.324,162.829C274.311,164.602 275.688,166.307 277.458,167.951C277.817,168.286 278.118,168.522 278.353,168.658C278.815,168.928 279.112,169.154 279.252,169.338C279.32,169.431 279.437,169.475 279.549,169.451C280.065,169.342 280.441,169.338 280.684,169.444C282.252,170.111 284.559,171.043 287.607,172.243C289.588,173.022 291.628,174.559 293.993,176.302C296.159,177.905 297.102,179.617 298.466,181.807C299.381,183.279 299.484,185.152 299.757,187.397C299.891,188.511 299.928,189.611 299.867,190.694C299.829,191.34 299.754,193.537 299.638,197.292C299.487,202.254 299.839,207.461 300,212.822C300.003,212.925 299.938,213.021 299.839,213.058L297.574,213.868C295.079,213.789 292.647,213.764 290.272,213.789C286.64,213.828 283.201,213.372 279.956,212.402C279.853,212.372 279.75,212.443 279.741,212.549C279.428,216.015 279.249,218.734 279.129,220.699C279.067,221.752 278.915,222.813 278.74,223.852C278.58,224.942 278.364,226.271 278.086,227.793C277.205,232.613 275.69,239.36 273.261,246.503L273.225,246.609C267.591,246.912 261.841,246.846 256.574,246.336C254.138,246.1 251.599,245.831 248.954,245.533C247.348,245.352 245.824,245.089 244.379,244.744C242.875,244.385 241.351,244.084 239.81,243.838C239.298,243.756 239.025,243.507 238.99,243.09C238.94,242.485 238.795,242.15 238.563,242.082Z" style="fill:white;fill-opacity:0.95;"/>
    <path d="M38.35,158.548C38.938,158.982 39.577,159.224 40.264,159.269C40.376,159.275 40.486,159.323 40.564,159.402C42.14,160.977 43.691,162.58 45.215,164.209C45.464,164.479 45.953,165.108 46.681,166.089C47.152,166.724 47.672,167.326 48.242,167.89C48.208,168.091 48.232,168.252 48.317,168.378C48.376,168.467 48.495,168.494 48.587,168.44C49.165,168.098 49.746,167.941 50.337,167.972C52.93,168.101 54.963,168.323 56.44,168.638C60.297,169.461 63.813,171.699 67.528,173.931C71.153,176.114 73.982,177.751 76.015,178.841C76.108,178.892 76.169,178.988 76.176,179.09L76.258,180.348C76.449,186.491 75.862,192.751 74.491,199.127C74.447,199.329 74.457,199.513 74.515,199.681L74.3,200.361C74.262,200.48 74.146,200.562 74.02,200.559C69.643,200.398 65.658,200.118 61.555,199.168C61.469,199.148 61.384,199.216 61.387,199.308C61.814,211.732 61.449,224.177 59.699,236.314C59.679,236.444 59.675,236.574 59.686,236.707C59.71,237.018 59.706,237.332 59.682,237.647C59.556,239.15 59.446,240.554 59.351,241.863C59.293,242.67 58.89,243.93 58.141,245.642C56.47,245.683 54.823,245.786 53.2,245.953C51.188,246.158 49.548,246.274 48.276,246.298C43.51,246.387 40.124,246.384 38.125,246.285C32.606,246.011 29.2,245.769 27.911,245.553C26.647,245.342 25.386,245.13 24.125,244.921L23.955,244.802C23.866,244.737 23.801,244.645 23.774,244.535C23.463,243.213 23.141,242.28 22.967,240.93C22.8,239.635 22.581,238.511 22.311,237.561C22.072,236.721 22.082,236.003 21.853,235.149C21.727,234.681 21.655,234.076 21.634,233.334C21.576,231.158 21.156,228.653 21.091,226.449C21.009,223.518 20.626,221.016 20.753,218.153C20.845,216.106 20.91,213.543 20.955,210.461C20.958,210.328 20.838,210.229 20.708,210.249C18.918,210.554 17.049,210.728 15.101,210.779C14.127,210.803 13.143,210.865 12.146,210.97C10.871,211.104 9.426,211.104 7.803,210.97C6.508,210.861 5.23,210.711 3.969,210.516C2.804,209.939 1.57,209.648 0.268,209.645C0.179,209.641 0.111,209.573 0.108,209.484C-0.032,203.542 -0.036,199.404 0.097,197.077C0.456,190.828 0.668,186.84 0.736,185.114C0.777,184.052 0.9,182.989 1.102,181.92C1.379,180.447 1.659,179.418 1.939,178.827C3.484,175.567 6.525,172.482 9.89,171.071C14.968,168.942 20.507,167.804 26.036,167.128C26.586,167.059 27.115,166.82 27.618,166.41C29.186,165.139 30.228,164.244 30.737,163.728C32.036,162.412 33.013,160.834 33.669,158.992C33.703,158.896 33.727,158.797 33.741,158.695L33.99,156.504C35.354,157.403 36.806,158.086 38.35,158.548Z" style="fill:white;fill-opacity:0.95;fill-rule:nonzero;"/>
    <path d="M50.156,161.845C49.753,162.545 49.425,163.198 49.172,163.803C48.915,164.415 48.242,167.89 48.242,167.89C47.672,167.326 47.152,166.724 46.681,166.089C45.953,165.108 45.464,164.479 45.215,164.209C43.691,162.58 42.14,160.977 40.564,159.402C40.486,159.323 40.376,159.275 40.264,159.269C39.577,159.224 38.938,158.982 38.35,158.548C39.99,159.06 41.593,159.392 43.161,159.549C43.835,159.616 44.37,159.54 44.774,159.32C44.863,159.272 44.969,159.293 45.03,159.368C45.678,160.155 46.596,160.276 47.398,160.81C47.419,160.823 47.439,160.834 47.463,160.844L50.156,161.845Z" style="fill:white;fill-opacity:0.75;"/>
    <path d="M74.515,199.681C74.457,199.513 74.447,199.329 74.491,199.127C75.862,192.751 76.449,186.491 76.258,180.348C80.225,181.185 84.168,182.125 88.094,183.16C90.805,183.877 101.44,186.788 112.164,187.303C122.503,187.799 132.941,185.919 135.586,185.473C139.287,184.848 143.339,183.85 147.679,182.924C148.065,182.842 148.431,182.688 148.755,182.473C150.771,181.127 152.757,179.665 155.015,178.742C164.334,174.931 166.38,177.276 166.64,177.983C166.732,178.229 166.547,178.564 166.206,178.776C166.079,178.855 162.541,180.55 162.044,180.925C160.897,181.792 161.2,183.617 163.308,184.346C164.962,184.917 178.4,184.917 178.4,184.917C179.447,184.957 179.115,185.647 179.012,185.822C178.493,186.686 177.626,188.801 172.493,188.542C171.94,188.514 171.393,188.648 170.836,188.658C170.696,188.661 170.498,191.376 169.471,193.257C167.763,196.385 164.457,198.866 160.268,197.44C153.924,195.28 151.073,192.857 150.286,192.837C150.173,192.833 150.061,192.854 149.958,192.895C146.879,194.132 143.917,195.184 141.071,196.052C133.413,198.386 126.726,200.275 121.006,201.717C117.507,202.599 114.186,203.231 111.039,203.614C109.976,203.744 84.236,201.69 74.515,199.681Z" style="fill:white;fill-opacity:0.75;fill-rule:nonzero;"/>
    <path d="M238.758,232.583C237.842,232.924 231.92,236.64 231.21,237.315C227.782,240.576 200.735,250.646 197.625,250.874C197.372,250.892 193.956,253.125 190.483,252.35C186.699,251.505 183.278,252.87 182.587,251.683C181.438,249.713 183.632,248.964 184.955,248.827C185.286,248.793 185.344,248.338 185.037,248.215L183.489,247.604C183.472,247.597 183.454,247.593 183.437,247.59C181.008,247.135 178.346,246.706 175.462,246.23C170.346,245.386 173.392,241.969 173.816,241.643C184.047,233.784 194.994,240.749 196.61,242.181C196.781,242.335 197.033,242.365 197.235,242.256C198.844,241.405 200.283,240.848 201.455,240.158C204.144,238.569 206.28,237.131 207.855,235.846C209.464,234.53 210.438,233.755 210.773,233.519C212.106,232.569 220.781,225.366 222.937,222.92C223.446,222.342 224.42,221.324 225.859,219.865C226.775,218.935 227.66,217.903 228.514,216.772C228.651,216.591 228.753,216.386 228.818,216.168L232.313,204.489C233.034,204.676 233.615,204.864 234.063,205.052C236.964,206.265 239.633,207.847 242.069,209.798C242.397,210.062 242.554,210.489 242.472,210.902C241.491,215.84 240.593,220.767 239.776,225.684C239.66,226.378 239.503,227.529 239.301,229.138C239.144,230.392 238.963,231.541 238.758,232.583Z" style="fill:white;fill-opacity:0.75;fill-rule:nonzero;"/>
    <path d="M29.538,275.8C28.81,275.435 26.986,274.047 26.405,273.572C26.094,273.319 25.672,272.605 25.164,271.416C25.119,271.311 25.062,271.211 24.997,271.119C24.548,270.485 24.217,270.036 24.013,269.759C22.928,268.291 22.231,266.893 20.753,264.986C20.052,264.081 17.663,260.379 13.447,253.963C13.339,253.798 13.25,253.617 13.184,253.43C12.814,252.366 12.153,251.543 11.626,250.368C11.069,249.124 10.417,248.061 9.665,247.183C9.744,247.129 9.795,247.05 9.819,246.948C9.836,246.869 9.819,246.78 9.767,246.678C8.308,243.77 7.037,240.78 5.958,237.712C4.96,234.872 3.989,232.029 3.05,229.183L2.435,224.895C2.404,224.683 2.4,224.467 2.421,224.256C2.828,220.036 3.262,215.819 3.723,211.606C3.76,211.275 3.842,210.912 3.969,210.516C5.23,210.711 6.508,210.861 7.803,210.97C9.426,211.104 10.871,211.104 12.146,210.97C13.143,210.865 14.127,210.803 15.101,210.779C17.049,210.728 18.918,210.554 20.708,210.249C20.838,210.229 20.958,210.328 20.955,210.461C20.91,213.543 20.845,216.106 20.753,218.153C20.626,221.016 21.009,223.518 21.091,226.449C21.156,228.653 21.576,231.158 21.634,233.334C21.655,234.076 21.727,234.681 21.853,235.149C22.082,236.003 22.072,236.721 22.311,237.561C22.581,238.511 22.8,239.635 22.967,240.93C23.141,242.28 23.463,243.213 23.774,244.535C23.801,244.645 23.866,244.737 23.955,244.802L24.125,244.921C24.088,244.928 24.05,244.938 24.02,244.952C23.941,244.99 23.897,245.072 23.914,245.157L24.826,249.292C24.993,249.917 26.121,254.533 26.555,255.917C27.372,258.507 28.803,261.394 29.698,263.267C29.794,263.469 30.006,263.588 30.228,263.571C32.801,263.376 34.841,264.128 37.223,264.992C38.665,265.519 39.519,266.168 41.026,266.998C41.562,267.296 42.133,267.685 42.741,268.17C44.18,269.322 44.996,269.998 45.198,270.207C45.625,270.644 45.997,271.133 46.312,271.656C46.312,271.656 48.454,275.872 48.83,276.306C48.83,276.306 49.94,280.581 46.896,280.557C46.786,280.556 46.681,280.608 46.575,280.581C44.299,280.024 39.47,278.484 38.524,276.962C38.316,276.432 37.964,276.128 37.465,276.053C36.898,275.968 36.403,275.841 35.982,275.681C35.627,275.541 35.289,275.681 35.087,275.937C35.032,276.005 35.084,276.108 35.172,276.108C35.699,276.098 36.027,276.34 36.153,276.829C36.464,277.738 36.457,278.696 36.679,279.425C37.104,280.819 35.678,280.557 34.991,279.559L31.991,277.112C31.949,277.077 31.37,276.766 30.785,276.455C30.198,276.144 29.605,275.833 29.538,275.8Z" style="fill:white;fill-opacity:0.75;"/>
    <path d="M279.741,212.549C279.75,212.443 279.853,212.372 279.956,212.402C283.201,213.372 286.64,213.828 290.272,213.789C292.647,213.764 295.079,213.789 297.574,213.868C297.574,213.868 297.024,224.809 296.89,228.086C296.846,229.248 296.511,230.604 295.886,232.156C295.886,232.156 293.093,240.555 287.504,250.263C284.321,255.791 280.231,261.743 275.234,266.81C273.47,268.597 271.164,270.866 269.664,272.541C269.562,272.653 269.473,272.78 269.394,272.916C268.287,274.885 266.462,276.289 263.924,277.133C263.924,277.133 263.717,277.227 263.402,277.376C262.457,277.823 260.534,278.759 260.268,279.104C260.119,279.299 259.428,280.089 258.712,280.156C258.081,280.215 257.467,280.287 257.394,279.504C257.339,278.913 258.008,277.853 258.498,277.153C258.704,276.858 258.878,276.627 258.952,276.521C259.104,276.306 257.77,276.094 256.916,276.19C256.572,276.229 255.917,276.34 254.447,276.968C253.459,277.39 252.102,278.046 250.225,279.07C247.3,280.667 244.486,278.912 245.646,275.438L246.347,273.695L246.365,273.652C248.28,269.035 260.421,262.62 265.157,264.524C265.372,264.611 265.615,264.456 265.735,264.258C266.032,263.773 268.707,258.313 271.301,251.819L271.584,251.103C272.154,249.644 272.685,248.187 273.179,246.745L273.261,246.503C275.69,239.36 277.205,232.613 278.086,227.793C278.364,226.271 278.58,224.942 278.74,223.852C278.915,222.813 279.067,221.752 279.129,220.699C279.249,218.734 279.428,216.015 279.741,212.549Z" style="fill:white;fill-opacity:0.75;"/>
    <path d="M9.665,247.183C7.693,246.753 6.115,245.96 4.922,244.802C4.375,244.272 3.873,243.36 3.412,242.065C3.337,241.316 3.217,240.527 3.057,239.69C2.592,237.284 2.657,234.793 2.698,232.357C2.715,231.281 2.831,230.222 3.05,229.183C3.989,232.029 4.96,234.872 5.958,237.712C7.037,240.78 8.308,243.77 9.767,246.678C9.819,246.78 9.836,246.869 9.819,246.948C9.795,247.05 9.744,247.129 9.665,247.183Z" style="fill:white;fill-opacity:0.5;fill-rule:nonzero;"/>
    <path d="M295.886,232.156C295.872,234.975 295.712,237.766 295.401,240.537C295.223,242.123 294.075,245.663 294.075,245.663C293.477,246.992 292.842,247.905 292.165,248.407C291.169,249.144 289.12,250.14 287.504,250.263C293.093,240.555 295.886,232.156 295.886,232.156Z" style="fill:white;fill-opacity:0.5;"/>
    <path d="M273.225,246.609L273.179,246.745C272.685,248.187 272.154,249.644 271.584,251.103C271.298,251.247 260.921,250.128 257.103,249.562C256.362,249.451 253.964,249.037 249.914,248.325C248.92,248.15 248.157,247.972 247.628,247.788C247.385,247.704 246.634,247.486 245.38,247.142C245.018,247.043 244.625,246.817 244.17,246.831C244.098,246.834 244.027,246.821 243.962,246.79L240.692,245.386C239.561,244.371 238.608,243.835 238.563,242.082C238.795,242.15 238.94,242.485 238.99,243.09C239.025,243.507 239.298,243.756 239.81,243.838C241.351,244.084 242.875,244.385 244.379,244.744C245.824,245.089 247.348,245.352 248.954,245.533C251.599,245.831 254.138,246.1 256.574,246.336C261.841,246.846 267.591,246.912 273.225,246.609Z" style="fill:white;fill-opacity:0.5;"/>
    <path d="M30.785,276.455C29.785,276.44 21.576,276.31 19.581,276.115C16.523,275.817 14.138,275.578 12.433,275.39C11.267,275.264 10.365,274.936 9.262,274.727C6.849,274.276 3.747,272.411 2.609,270.258C1.464,268.098 1.017,265.403 0.996,263.192C0.986,261.791 0.979,261.07 0.976,261.029C0.842,259.515 1.157,258.135 0.955,256.734C0.924,256.536 0.921,256.331 0.938,256.132C1.194,253.371 1.44,250.918 1.679,248.769C1.806,247.648 2.383,245.413 3.412,242.065C3.873,243.36 4.375,244.272 4.922,244.802C6.115,245.96 7.693,246.753 9.665,247.183C10.417,248.061 11.069,249.124 11.626,250.368C12.153,251.543 12.814,252.366 13.184,253.43C13.25,253.617 13.339,253.798 13.447,253.963C17.663,260.379 20.052,264.081 20.753,264.986C22.231,266.893 22.928,268.291 24.013,269.759C24.217,270.036 24.548,270.485 24.997,271.119C25.062,271.211 25.119,271.311 25.164,271.416C25.672,272.605 26.094,273.319 26.405,273.572C26.986,274.047 28.81,275.435 29.538,275.8C29.605,275.833 30.198,276.144 30.785,276.455Z" style="fill:white;fill-opacity:0.95;"/>
    <path d="M24.125,244.921C25.386,245.13 26.647,245.342 27.911,245.553C29.2,245.769 32.606,246.011 38.125,246.285C40.124,246.384 43.51,246.387 48.276,246.298C49.548,246.274 51.188,246.158 53.2,245.953C54.823,245.786 56.47,245.683 58.141,245.642L56.361,247.077C55.121,247.573 53.996,247.901 52.988,248.061C51.389,248.318 50.221,248.519 49.483,248.673C47.791,249.025 46.394,248.888 44.572,249.199C43.852,249.322 43.182,249.162 42.362,249.312C42.099,249.36 41.545,249.404 40.704,249.449C36.659,249.657 32.5,249.702 28.233,249.589C27.536,249.572 25.27,249.719 24.826,249.292L23.914,245.157C23.897,245.072 23.941,244.99 24.02,244.952C24.05,244.938 24.088,244.928 24.125,244.921Z" style="fill:white;fill-opacity:0.5;fill-rule:nonzero;"/>
    <path d="M245.646,275.438C243.798,274.926 242.014,274.328 240.295,273.644C238.918,273.097 237.07,272.13 236.287,270.887C234.265,267.671 235.894,261.921 236.865,258.37C237.08,257.581 238.225,253.925 240.299,247.399C240.504,246.76 240.603,246.052 240.692,245.386L243.962,246.79C244.027,246.821 244.098,246.834 244.17,246.831C244.625,246.817 245.018,247.043 245.38,247.142C246.634,247.486 247.385,247.704 247.628,247.788C248.157,247.972 248.92,248.15 249.914,248.325C253.964,249.037 256.362,249.451 257.103,249.562C260.921,250.128 271.298,251.247 271.584,251.103C271.491,251.342 271.396,251.58 271.301,251.819C268.707,258.313 266.032,263.773 265.735,264.258C265.615,264.456 265.386,264.559 265.157,264.524C260.421,262.62 248.28,269.035 246.365,273.652C246.358,273.667 246.353,273.681 246.347,273.695L245.646,275.438Z" style="fill:white;fill-opacity:0.95;"/>
    <path d="M294.075,245.663C294.84,248.974 295.23,252.227 295.24,255.422C295.261,260.103 294.854,264.726 294.02,269.294C293.825,270.367 293.456,271.457 292.913,272.564C290.73,277.047 285.843,278.079 281.152,278.223C275.4,278.4 268.95,278.239 263.402,277.376C263.717,277.227 263.924,277.133 263.924,277.133C266.462,276.289 268.287,274.885 269.394,272.916C269.473,272.78 269.562,272.653 269.664,272.541C271.164,270.866 273.47,268.597 275.234,266.81C280.231,261.743 284.321,255.791 287.504,250.263C289.12,250.14 291.169,249.144 292.165,248.407C292.842,247.905 293.477,246.992 294.075,245.663Z" style="fill:white;fill-opacity:0.95;"/>
    <path d="M56.361,247.077C56.757,250.088 57.143,252.326 57.516,253.792C58.391,257.226 59.036,260.694 59.453,264.193C59.597,265.392 59.645,266.431 59.6,267.309C59.535,268.56 59.409,269.711 59.221,270.767C59.153,271.133 58.972,271.567 58.678,272.062C57.728,273.654 56.088,274.464 54.283,274.984C52.356,275.537 48.83,276.306 48.83,276.306C48.454,275.872 46.312,271.656 46.312,271.656C45.997,271.133 45.625,270.644 45.198,270.207C44.996,269.998 44.18,269.322 42.741,268.17C42.133,267.685 41.562,267.296 41.026,266.998C39.519,266.168 38.665,265.519 37.223,264.992C34.841,264.128 32.801,263.376 30.228,263.571C30.006,263.588 29.794,263.469 29.698,263.267C28.803,261.394 27.372,258.507 26.555,255.917C26.121,254.533 24.993,249.917 24.826,249.292C25.27,249.719 27.536,249.572 28.233,249.589C32.5,249.702 36.659,249.657 40.704,249.449C41.545,249.404 42.099,249.36 42.362,249.312C43.182,249.162 43.852,249.322 44.572,249.199C46.394,248.888 47.791,249.025 49.483,248.673C50.221,248.519 51.389,248.318 52.988,248.061C53.996,247.901 55.121,247.573 56.361,247.077Z" style="fill:white;fill-opacity:0.95;fill-rule:nonzero;"/>
    <path d="M38.524,276.962L36.153,276.829C36.027,276.34 35.699,276.098 35.172,276.108C35.084,276.108 35.032,276.005 35.087,275.937C35.289,275.681 35.627,275.541 35.982,275.681C36.403,275.841 36.898,275.968 37.465,276.053C37.964,276.128 38.316,276.432 38.524,276.962Z" style="fill:white;fill-opacity:0.95;fill-rule:nonzero;"/>
    <path d="M258.498,277.153L254.444,276.97C254.445,276.969 254.446,276.968 254.447,276.968C255.917,276.34 256.572,276.229 256.916,276.19C257.77,276.094 259.104,276.306 258.952,276.521C258.878,276.627 258.704,276.858 258.498,277.153Z" style="fill:white;fill-opacity:0.95;"/>
</svg>
