<?xml version="1.0" encoding="UTF-8" standalone="no"?>
<!DOCTYPE svg PUBLIC "-//W3C//DTD SVG 1.1//EN" "http://www.w3.org/Graphics/SVG/1.1/DTD/svg11.dtd">
<svg width="100%" height="100%" viewBox="0 0 300 300" version="1.1" xmlns="http://www.w3.org/2000/svg" xmlns:xlink="http://www.w3.org/1999/xlink" xml:space="preserve" xmlns:serif="http://www.serif.com/" style="fill-rule:evenodd;clip-rule:evenodd;stroke-linejoin:round;stroke-miterlimit:2;">
    <path d="M34.591,85.835C31.741,84.646 29.392,82.838 27.538,80.414C23.764,75.472 21.129,69.935 19.634,63.804C18.976,61.103 18.733,58.728 18.913,56.684C19.043,55.189 19.022,54.169 18.849,53.621C17.85,50.434 14.815,50.444 12.627,48.379C9.936,45.843 9,41.844 10.801,38.495C11.944,36.37 13.686,35.501 16.011,36.384C16.127,36.43 17.576,37.024 20.358,38.168C21.822,38.769 23.662,39.001 25.874,38.857C26.208,38.836 26.901,38.607 27.953,38.171C29.758,37.422 31.003,36.149 31.685,34.358C32.065,33.359 32.371,32.181 32.899,31.389C35.045,28.181 38.351,28.892 41.682,29.676C43.459,30.098 45.038,30.25 46.734,30.074C48.51,29.887 50.086,27.284 51.197,26.521C56.924,22.588 63.731,25.62 66.805,31.161C67.382,32.195 69.436,31.076 70.643,30.608C76.239,28.434 83.485,28.895 86.824,34.668C88.713,37.936 88.681,42.67 88.041,46.339C88.016,46.473 88.143,46.585 88.273,46.547C90.668,45.808 92.241,45.157 94.559,45.178C97.18,45.203 99.498,45.871 101.517,47.187C104.028,48.826 105.502,51.229 105.358,54.229C105.175,58.053 103.332,61.183 101.165,64.803C100.62,65.714 99.909,66.527 99.033,67.241C98.942,67.315 98.991,67.459 99.107,67.462C102.678,67.55 104.749,71.145 105.193,74.36C105.513,76.682 105.383,79.025 104.809,81.385C104.574,82.349 103.983,83.154 103.029,83.805C102.966,83.847 102.889,83.875 102.811,83.883L102.009,83.96C101.886,83.97 101.84,84.125 101.935,84.203C106.723,88.016 102.839,94.791 99.16,97.482C96.807,99.202 94.334,99.466 91.738,98.27C91.622,98.217 91.492,98.312 91.509,98.438C91.762,100.412 90.626,102.033 88.941,102.941C90.218,101.063 91.092,99.054 91.551,96.919C91.777,95.867 91.698,94.777 91.776,93.862C91.784,93.774 91.805,93.686 91.843,93.609C91.947,93.395 92.527,92.871 93.592,92.033C94.764,91.109 95.999,89.201 96.17,87.46C96.23,86.848 96.29,86.454 96.349,86.274C96.349,86.271 96.356,86.267 96.36,86.271C96.392,86.285 96.406,86.31 96.406,86.341C96.406,86.352 96.413,86.355 96.423,86.345C96.43,86.338 96.437,86.32 96.437,86.306C96.458,83.798 96.339,80.386 94.102,78.771C93.507,78.342 92.494,78.645 91.956,78.451C91.172,78.17 90.689,77.744 90.503,77.171C89.032,72.631 87.212,68.39 85.023,64.455C84.007,62.629 82.184,59.744 80.365,58.837C75.438,56.38 70.167,56.877 65.12,58.742C60.083,60.604 56.542,61.837 54.497,62.44C54.187,62.532 53.911,62.609 53.67,62.671C49.963,63.632 46.439,63.159 43.096,61.25C42.548,60.937 41.995,60.628 41.443,60.315C40.251,60.086 39.444,60.532 39.023,61.658C37.716,65.15 36.549,68.943 35.526,73.034C34.805,75.922 34.462,78.852 34.499,81.832C34.514,82.971 34.545,84.305 34.591,85.835Z" style="fill:white;fill-opacity:0.35;"/>
    <path d="M229.52,99.692C225.525,95.577 223.924,90.555 225.555,84.635C225.626,84.375 225.833,84.175 226.096,84.111C228.972,83.412 231.883,82.124 233.445,79.566C235.538,76.137 233.856,71.712 230.82,69.594C229.157,68.433 226.985,68.235 225.632,69.9C224.037,71.862 222.565,73.523 220.377,74.427C218.47,75.215 216.63,74.441 215.55,72.932C214.154,70.98 213.215,68.845 212.388,66.404C210.608,61.148 209.433,57.135 207.221,52.882C205.553,49.677 202.743,46.962 198.94,47.999C197.076,48.305 195.532,49.044 194.308,50.223C191.927,52.513 190.027,54.413 187.301,55.147C186.136,55.461 185.046,55.411 184.026,54.996C182.904,54.18 182.084,53.234 181.56,52.154C179.966,48.868 180.248,45.045 181.947,41.932C182.555,40.824 183.547,39.719 184.926,38.625C186.787,37.155 188.511,35.955 190.104,35.03C194.744,32.332 199.781,30.425 205.219,29.307C206.429,29.057 207.639,28.871 208.846,28.748C210.577,28.568 212.026,28.287 213.69,28.287C217.017,28.29 219.198,28.128 221.245,28.452C221.615,28.508 222.206,28.586 223.022,28.681C226.807,29.117 230.388,30.155 233.761,31.797C235.39,32.589 237.089,33.711 238.862,35.171C239.59,35.769 240.441,36.701 241.422,37.971C243.568,40.743 246.291,43.539 249.682,44.661C249.844,44.714 250.012,44.746 250.181,44.749C252.302,44.816 253.646,44.795 254.22,44.682C257.491,44.049 261.818,41.524 264.537,40.56C266.788,39.761 269.141,39.181 271.596,38.826C273.123,38.6 274.115,38.386 275.114,38.389C277.65,38.393 280.229,38.759 282.849,39.487C289.42,41.305 294.405,46.473 297.226,52.674C298.524,55.527 299.319,58.208 299.604,60.719C299.678,61.38 299.78,62.14 299.91,62.995C300.04,63.867 300.029,64.761 299.878,65.675C299.688,66.787 299.653,67.526 299.519,68.264C298.967,71.314 297.704,74.072 295.738,76.538C295.326,77.051 294.992,77.4 294.732,77.579C294.64,77.642 294.542,77.699 294.44,77.744C293.831,78.026 293.423,78.254 293.223,78.434C292.899,78.719 292.505,78.954 292.044,79.134C290.996,79.542 288.769,81.378 288.734,82.785C288.72,83.246 288.84,83.883 289.097,84.695C289.642,86.429 289.955,87.903 290.029,89.117C290.226,92.251 289.54,95.248 287.971,98.101C287.626,98.727 287.25,99.261 286.842,99.705C286.265,100.331 285.878,101.017 285.122,101.664C282.832,103.627 280.278,105.013 277.46,105.825C274.428,106.698 271.67,107.025 269.19,106.803C267.836,106.68 265.944,106.335 263.517,105.766C261.529,105.298 260.136,105.158 259.369,105.027C255.113,104.301 247.084,109.374 236.22,103.817C235.035,103.21 234.13,102.853 233.476,102.8L232.045,101.836L230.768,100.88C230.329,100.492 229.913,100.096 229.52,99.692Z" style="fill:white;fill-opacity:0.25;"/>
    <path d="M200.196,114.894L199.869,114.813C199.693,114.771 199.51,114.774 199.338,114.823C198.596,115.041 197.822,115.158 197.016,115.175C196.872,115.179 196.728,115.193 196.587,115.221C195.384,115.457 194.241,115.52 193.161,115.418C192.721,114.095 192.152,112.829 191.448,111.622C189.346,108.02 188.048,105.108 188.978,100.894C189.222,99.793 189.358,99.079 189.383,98.748C190.685,98.333 192.17,97.951 193.266,97.278C193.449,97.165 194.069,96.789 195.124,96.152C195.391,95.99 195.631,95.786 195.827,95.547C195.986,95.354 196.384,94.752 197.02,93.742C197.337,93.239 197.372,92.711 197.129,92.166C196.718,91.248 195.657,91.349 194.793,91.438C194.765,91.441 194.737,91.445 194.712,91.452L191.437,92.349C192.348,90.278 192.621,88.297 192.264,86.401C192.027,85.146 191.349,84.358 190.234,84.037C189.284,83.764 188.289,84.112 187.406,84.167C186.038,84.253 184.598,83.545 184.817,81.944C186.228,71.644 189.828,61.777 195.145,52.534C195.507,51.904 195.888,51.343 196.295,50.856C196.407,50.722 196.657,50.296 197.044,49.575C197.431,48.857 198.064,48.334 198.94,47.999C202.743,46.962 205.553,49.677 207.221,52.882C209.433,57.135 210.608,61.148 212.388,66.404C213.215,68.845 214.154,70.98 215.55,72.932C216.63,74.441 218.47,75.215 220.377,74.427C222.565,73.523 224.037,71.862 225.632,69.9C226.985,68.235 229.157,68.433 230.82,69.594C233.856,71.712 235.538,76.137 233.445,79.566C231.883,82.124 228.972,83.412 226.096,84.111C225.833,84.175 225.626,84.375 225.555,84.635C223.924,90.555 225.525,95.577 229.52,99.692C229.143,99.92 228.867,100.253 228.784,100.313C224.081,103.746 220.084,106.348 216.796,108.122C214.667,109.271 213.035,110.129 211.903,110.697C208.608,112.35 204.903,113.671 200.773,114.605C200.741,114.612 200.71,114.623 200.678,114.64L200.196,114.894ZM204.34,66.812C204.667,66.618 204.685,66.154 204.375,65.939C202.05,64.314 199.475,63.319 196.643,62.949C195.162,62.752 192.204,62.819 191.261,64.173C191.068,64.451 191.202,64.856 191.55,65.042C193.006,65.82 195.718,65.661 197.174,65.661C199.134,65.661 201.392,66.034 203.956,66.783C204.15,66.84 204.277,66.85 204.34,66.812ZM193.657,69.606C192.887,69.52 192.106,70.867 191.914,72.609C191.722,74.353 192.19,75.834 192.96,75.921C193.731,76.007 194.512,74.659 194.704,72.917C194.895,71.173 194.427,69.692 193.657,69.606Z" style="fill:white;fill-opacity:0.95;"/>
    <path d="M193.161,115.418C185.338,115.928 181.985,108.731 180.712,102.353C180.16,99.599 179.833,97.309 179.727,95.484L179.502,91.653C179.287,87.868 179.284,84.748 179.491,82.296C179.713,79.718 179.671,77.171 179.987,74.505C180.286,74.849 180.554,75.045 180.789,75.092C181.937,75.32 182.466,71.34 181.574,70.554C181.275,70.291 180.613,70.093 180.202,71.198C180.202,71.198 180.277,70.507 180.373,69.673C180.466,68.868 180.577,67.929 180.659,67.355C181.602,67.292 183.039,66.237 183.864,65.665C184.167,65.455 184.22,65.028 183.98,64.747C183.454,64.13 182.538,63.899 181.24,64.057C181.665,61.331 182.432,58.499 183.547,55.555C183.646,55.298 183.804,55.112 184.026,54.996C185.046,55.411 186.136,55.461 187.301,55.147C190.027,54.413 191.927,52.513 194.308,50.223C195.532,49.044 197.076,48.305 198.94,47.999C198.064,48.334 197.431,48.857 197.044,49.575C196.657,50.296 196.407,50.722 196.295,50.856C195.888,51.343 195.507,51.904 195.145,52.534C189.828,61.777 186.228,71.644 184.817,81.944C184.598,83.545 186.038,84.253 187.406,84.167C188.289,84.112 189.284,83.764 190.234,84.037C191.349,84.358 192.027,85.146 192.264,86.401C192.621,88.297 192.348,90.278 191.437,92.349C190.885,92.416 190.28,92.506 189.629,92.606C189.049,92.696 188.447,92.758 187.821,92.793C186.706,92.854 185.573,93.121 184.42,93.574C184.374,93.591 184.332,93.612 184.293,93.637L183.329,94.245C183.224,94.312 183.129,94.4 183.051,94.502C182.512,95.215 182.378,96.017 182.629,96.908C182.658,97.01 182.707,97.108 182.77,97.193C183.134,97.684 183.72,98.061 184.539,98.319C186.182,98.835 187.797,98.977 189.383,98.748C189.358,99.079 189.222,99.793 188.978,100.894C188.048,105.108 189.346,108.02 191.448,111.622C192.152,112.829 192.721,114.095 193.161,115.418Z" style="fill:white;fill-opacity:0.75;"/>
    <path d="M25.113,241.031C19.383,239.869 14.05,238.34 9.806,236.318C-1.583,230.893 1.98,189.339 2.636,182.608C2.636,182.608 25.706,189.077 27.953,189.58C28.572,189.717 29.247,189.801 29.979,189.833C30.679,189.857 31.206,190.14 31.576,190.666C31.649,190.77 31.694,190.892 31.706,191.018C32.015,194.321 31.847,197.716 32.002,200.748C32.291,206.429 32.493,212.085 32.959,217.773C32.98,218.03 33.152,218.244 33.395,218.322C40.414,220.565 47.49,222.427 54.627,223.89C57.87,224.555 62.75,225.499 69.26,226.729C70.727,227.006 72.006,227.293 73.087,227.605C73.207,227.639 83.594,226.281 84.379,226.075C84.607,226.015 84.717,225.751 84.59,225.547C80.46,218.892 77.343,211.6 74.92,204.385C71.487,194.163 68.611,183.445 65.525,172.146C64.501,168.4 63.215,164.418 61.655,160.201C60.668,157.53 59.523,155.336 58.222,153.612C56.856,151.801 55.529,149.732 55.475,147.393C55.461,146.802 55.542,146.014 55.717,145.029C56.023,143.316 56.305,141.61 56.562,139.918C56.618,138.982 56.554,138.103 56.372,137.28C56.234,136.657 55.654,133.741 55.538,133.766C53.62,134.177 51.595,134.441 49.463,134.525C49.27,134.533 49.147,134.318 49.259,134.156L49.811,133.347L49.818,133.337C49.895,133.213 50.463,132.228 50.49,132.123C51.444,128.82 51.869,125.422 51.764,121.932C51.7,119.755 50.902,118.056 49.368,116.835C47.662,115.481 45.886,113.905 44.043,112.108C40.011,108.175 37.415,103.419 36.251,97.837C35.741,95.389 35.407,93.366 35.252,91.773C34.974,88.923 34.756,86.943 34.591,85.835C34.545,84.305 34.514,82.971 34.499,81.832C34.462,78.852 34.805,75.922 35.526,73.034C36.549,68.943 37.716,65.15 39.023,61.658C39.444,60.532 40.251,60.086 41.443,60.315C41.995,60.628 42.548,60.937 43.096,61.25C46.439,63.159 49.963,63.632 53.67,62.671C53.911,62.609 54.187,62.532 54.497,62.44C54.835,62.803 55.07,63.181 55.186,63.385C55.214,63.425 55.243,63.468 55.271,63.512C56.99,66.234 58.321,69.573 58.627,72.894C58.909,75.961 58.838,78.624 58.412,80.882C57.913,83.531 57.427,86.45 56.959,89.644C56.741,91.136 56.874,92.48 57.364,93.679C57.841,94.847 59.481,95.047 61.064,95.406C63.558,95.972 63.811,101.063 63.773,103.082C61.353,103.293 58.221,104.008 56.284,105.562C56.13,105.685 56.164,105.93 56.344,106.012C56.467,106.068 56.622,106.068 56.801,106.008C59.219,105.197 61.624,104.658 64.026,104.401C63.913,105.277 63.853,106.198 63.861,107.159C63.863,107.429 63.639,108.791 63.192,111.249C62.946,112.604 62.581,113.934 62.095,115.235C61.262,117.465 60.625,119.027 60.185,119.92C60.162,119.967 60.173,120.017 60.2,120.054C60.238,120.111 60.308,120.142 60.357,120.089C62.476,117.828 75.889,116.035 76.668,117.521C76.767,117.557 76.872,117.549 76.967,117.504C78.092,116.966 79.261,116.288 80.464,115.865C80.763,115.759 81.076,115.523 81.407,115.161L79.475,120.233C79.43,120.346 79.44,120.476 79.496,120.582C81.213,123.797 82.159,127.543 83.021,131.166C83.116,131.56 83.26,131.905 83.457,132.197C83.454,132.411 83.483,132.615 83.538,132.805C84.393,135.726 84.011,138.473 82.423,141.037C80.36,144.369 76.822,148.188 77.347,152.395C77.361,152.508 77.389,152.617 77.435,152.722C81.305,161.623 86.082,170.262 91.724,178.657C92.414,179.684 92.87,180.353 93.099,180.662C94.274,182.418 95.506,184.254 96.789,186.178C97.099,186.642 97.577,186.737 98.224,186.463C100.528,186.083 102.583,186.42 104.876,186.611C105.506,186.663 106.287,186.762 107.212,186.899C114.134,187.924 120.42,189.829 126.073,192.619C125.904,193.277 125.883,193.868 126.01,194.392C125.929,195.317 125.873,196.238 125.837,197.16C125.795,198.229 125.718,199.151 125.605,199.921C124.184,209.531 121.87,218.512 118.662,226.859C117.019,231.14 114.511,234.879 111.137,238.084C109.185,239.572 107.206,240.718 105.193,241.482C105.042,241.539 104.909,241.637 104.809,241.767C103.799,243.08 103.025,243.951 102.516,244.408C100.209,246.481 97.366,247.592 93.978,247.729C91.21,248 88.322,247.946 85.315,247.567C80.836,247.004 75.775,246.185 70.136,245.112C67.985,244.703 44.316,244.926 25.113,241.031ZM52.601,77.587C51.852,77.67 51.401,79.137 51.593,80.863C51.785,82.588 52.545,83.921 53.291,83.839C54.04,83.756 54.49,82.289 54.299,80.564C54.106,78.838 53.347,77.505 52.601,77.587ZM48.851,74.913C50.079,74.645 53.617,73.924 54.233,72.957C54.588,72.398 54.476,71.94 53.895,71.585C52.58,70.776 49.671,71.216 48.116,71.553C46.565,71.895 43.737,72.707 42.878,73.987C42.498,74.554 42.586,75.015 43.139,75.377C44.102,76 47.62,75.18 48.851,74.913Z" style="fill:white;fill-opacity:0.75;"/>
    <path d="M88.941,102.941C87.949,104.471 86.922,105.994 85.856,107.517C84.889,108.9 84.101,110.145 83.485,111.249C82.757,112.565 82.064,113.87 81.407,115.161C81.076,115.523 80.763,115.759 80.464,115.865C79.261,116.288 78.092,116.966 76.967,117.504C76.872,117.549 76.767,117.557 76.668,117.521C75.889,116.035 62.476,117.828 60.357,120.089C60.297,120.118 60.235,120.097 60.2,120.054C60.173,120.017 60.162,119.967 60.185,119.92C60.625,119.027 61.262,117.465 62.095,115.235C62.581,113.934 62.946,112.604 63.192,111.249C63.639,108.791 63.863,107.429 63.861,107.159C63.853,106.198 63.913,105.277 64.026,104.401C66.446,104.278 68.905,104.396 71.406,104.76C71.599,104.788 71.74,104.58 71.642,104.411L71.614,104.359C71.462,104.091 71.213,103.894 70.917,103.806C68.396,103.058 66.014,102.818 63.773,103.082C63.811,101.063 63.558,95.972 61.064,95.406C59.481,95.047 57.841,94.847 57.364,93.679C56.874,92.48 56.741,91.136 56.959,89.644C57.427,86.45 57.913,83.531 58.412,80.882C58.838,78.624 58.909,75.961 58.627,72.894C58.321,69.573 56.99,66.234 55.271,63.512C55.243,63.468 55.214,63.425 55.186,63.385C55.07,63.181 54.835,62.803 54.497,62.44C56.542,61.837 60.083,60.604 65.12,58.742C70.167,56.877 75.438,56.38 80.365,58.837C82.184,59.744 84.007,62.629 85.023,64.455C87.212,68.39 89.032,72.631 90.503,77.171C90.689,77.744 91.172,78.17 91.956,78.451C92.494,78.645 93.507,78.342 94.102,78.771C96.339,80.386 96.458,83.798 96.437,86.306C96.437,86.32 96.43,86.338 96.423,86.345C96.413,86.355 96.406,86.352 96.406,86.341C96.406,86.31 96.392,86.285 96.36,86.271C96.356,86.267 96.349,86.271 96.349,86.274C96.29,86.454 96.23,86.848 96.17,87.46C95.999,89.201 94.764,91.109 93.592,92.033C92.527,92.871 91.947,93.395 91.843,93.609C91.805,93.686 91.784,93.774 91.776,93.862C91.698,94.777 91.777,95.867 91.551,96.919C91.092,99.054 90.218,101.063 88.941,102.941ZM67.267,76.695C66.502,76.78 66.035,78.247 66.23,79.972C66.422,81.695 67.202,83.024 67.968,82.938C68.733,82.852 69.2,81.385 69.005,79.661C68.814,77.938 68.033,76.608 67.267,76.695ZM70.031,73.379C71.252,73.701 74.744,74.681 75.736,74.097C76.31,73.759 76.415,73.298 76.06,72.714C75.255,71.391 72.454,70.452 70.914,70.044C69.369,69.636 66.469,69.067 65.117,69.819C64.518,70.152 64.385,70.607 64.716,71.18C65.292,72.18 68.81,73.057 70.031,73.379Z" style="fill:white;fill-opacity:0.95;"/>
    <path d="M204.34,66.812C204.667,66.618 204.685,66.154 204.375,65.939C202.05,64.314 199.475,63.319 196.643,62.949C195.162,62.752 192.204,62.819 191.261,64.173C191.068,64.451 191.202,64.856 191.55,65.042C193.006,65.82 195.718,65.661 197.174,65.661C199.134,65.661 201.392,66.034 203.956,66.783C204.15,66.84 204.277,66.85 204.34,66.812Z" style="fill:white;fill-opacity:0.15;"/>
    <path d="M180.659,67.355C180.8,66.316 181,65.21 181.24,64.057C182.538,63.899 183.454,64.13 183.98,64.747C184.22,65.028 184.167,65.455 183.864,65.665C183.039,66.237 181.602,67.292 180.659,67.355Z" style="fill:white;fill-opacity:0.15;"/>
    <path d="M70.031,73.379C71.252,73.701 74.744,74.681 75.736,74.097C76.31,73.759 76.415,73.298 76.06,72.714C75.255,71.391 72.454,70.452 70.914,70.044C69.369,69.636 66.469,69.067 65.117,69.819C64.518,70.152 64.385,70.607 64.716,71.18C65.292,72.18 68.81,73.057 70.031,73.379Z" style="fill:white;fill-opacity:0.15;"/>
    <path d="M193.657,69.606C192.887,69.52 192.106,70.867 191.914,72.609C191.722,74.353 192.19,75.834 192.96,75.921C193.731,76.007 194.512,74.659 194.704,72.917C194.895,71.173 194.427,69.692 193.657,69.606Z" style="fill:white;fill-opacity:0.15;"/>
    <path d="M179.987,74.505C180.012,73.671 180.051,72.411 180.202,71.198C180.613,70.093 181.275,70.291 181.574,70.554C182.466,71.34 181.937,75.32 180.789,75.092C180.554,75.045 180.286,74.849 179.987,74.505Z" style="fill:white;fill-opacity:0.15;"/>
    <path d="M48.851,74.913C50.079,74.645 53.617,73.924 54.233,72.957C54.588,72.398 54.476,71.94 53.895,71.585C52.58,70.776 49.671,71.216 48.116,71.553C46.565,71.895 43.737,72.707 42.878,73.987C42.498,74.554 42.586,75.015 43.139,75.377C44.102,76 47.62,75.18 48.851,74.913Z" style="fill:white;fill-opacity:0.15;"/>
    <path d="M67.267,76.695C66.502,76.78 66.035,78.247 66.23,79.972C66.422,81.695 67.202,83.024 67.968,82.938C68.733,82.852 69.2,81.385 69.005,79.661C68.814,77.938 68.033,76.608 67.267,76.695Z" style="fill:white;fill-opacity:0.15;"/>
    <path d="M52.601,77.587C51.852,77.67 51.401,79.137 51.593,80.863C51.785,82.588 52.545,83.921 53.291,83.839C54.04,83.756 54.49,82.289 54.299,80.564C54.106,78.838 53.347,77.505 52.601,77.587Z" style="fill:white;fill-opacity:0.15;"/>
    <path d="M189.383,98.748C190.685,98.333 192.17,97.951 193.266,97.278C193.449,97.165 194.069,96.789 195.124,96.152C195.391,95.99 195.631,95.786 195.827,95.547C195.986,95.354 196.384,94.752 197.02,93.742C197.337,93.239 197.372,92.711 197.129,92.166C196.718,91.248 195.657,91.349 194.793,91.438C194.765,91.441 194.737,91.445 194.712,91.452L191.437,92.349C190.885,92.416 190.28,92.506 189.629,92.606C189.049,92.696 188.447,92.758 187.821,92.793C186.706,92.854 185.573,93.121 184.42,93.574C184.374,93.591 184.332,93.612 184.293,93.637L183.329,94.245C183.224,94.312 183.129,94.4 183.051,94.502C182.512,95.215 182.378,96.017 182.629,96.908C182.658,97.01 182.707,97.108 182.77,97.193C183.134,97.684 183.72,98.061 184.539,98.319C186.182,98.835 187.797,98.977 189.383,98.748Z" style="fill:white;fill-opacity:0.15;"/>
    <path d="M212.673,119.185C211.09,121.349 209.81,123.653 208.955,125.633C207.31,129.443 207.823,133.835 206.858,137.906C206.467,139.559 205.916,141.224 205.223,142.911C205.169,143.041 205.205,143.193 205.311,143.288C207.164,144.949 209.219,146.239 211.459,147.171C211.755,147.294 212.054,147.389 212.36,147.453C212.786,147.541 213.047,147.631 213.144,147.727C213.24,147.821 213.38,147.857 213.51,147.826C213.683,147.783 213.919,147.824 214.217,147.949C214.887,148.227 215.283,148.17 216.24,148.184C216.961,148.195 217.236,148.684 218.168,148.388C218.776,148.195 219.472,148.131 220.25,148.184C220.412,148.195 220.577,148.182 220.735,148.142C221.483,147.954 222.519,147.685 223.849,147.347C225.147,147.017 226.972,146.302 229.325,145.205C231.334,144.269 233.149,143.01 234.774,141.427C235.886,140.344 237.226,138.602 238.798,136.207C239.976,134.413 240.903,131.686 241.764,129.939C241.923,129.615 242.098,129.334 242.291,129.094C242.408,128.95 242.372,128.739 242.214,128.641C241.604,128.259 241.268,127.772 241.201,127.177C241.736,127.205 242.267,127.385 242.657,127.43C245.44,127.786 248.658,128.173 252.313,128.595C258.448,129.305 265.212,130.853 270.717,134.135C272.325,135.088 273.756,136.425 274.875,138.106C276.328,140.298 277.355,142.398 277.953,144.406C279.472,149.503 280.489,153.637 281.006,156.806C281.527,159.989 282.294,163.208 283.31,166.462C283.553,167.243 283.535,168.013 283.254,168.776C283.194,168.938 283.085,169.075 282.944,169.17C281.963,169.835 280.841,170.275 279.578,170.49C279.673,170.261 279.662,170.11 279.543,170.029C279.455,169.969 279.296,169.972 279.061,170.032C274.649,171.157 270.158,172.04 265.588,172.674C259.077,173.577 252.679,174.241 246.393,174.661C246.287,174.668 246.203,174.753 246.196,174.858L245.781,182.653L245.77,182.748C245.51,184.029 245.411,185.457 245.478,187.036C245.482,187.054 245.482,187.075 245.478,187.096L243.688,206.742C243.684,206.781 243.677,206.823 243.67,206.862L243.399,208.072C243.368,208.216 243.356,208.36 243.361,208.508C243.386,209.314 243.312,210.061 243.097,210.745C243.039,210.929 243.013,211.121 243.019,211.315C243.052,212.222 242.796,212.979 242.657,213.946C242.04,218.259 241.355,222.611 240.536,226.989C240.495,227.208 240.307,227.366 240.086,227.369C229.822,227.496 220.693,227.468 212.701,227.401C211.361,227.39 210.27,227.335 209.437,227.232C208.142,227.072 207.052,227.007 206.165,227.046C205.209,227.088 204.319,226.722 203.274,226.715C202.782,226.712 202.057,226.645 201.1,226.514C199.742,226.329 198.522,226.155 197.435,225.994C194.639,225.58 191.941,224.998 189.358,224.21C189.21,224.165 189.068,224.099 188.94,224.013C185.955,222.006 183.636,220.168 182.077,218.364C180.319,216.33 178.691,214.177 177.194,211.906C175.659,209.576 173.993,207.354 172.199,205.24C171.806,203.263 171.524,201.29 171.355,199.316C171.056,195.858 171.028,192.492 171.271,189.221C171.281,189.091 171.141,189.006 171.028,189.07C170.736,189.235 170.42,189.453 170.075,189.724C167.124,192.045 164.046,194.24 160.834,196.309C156.771,194.849 152.74,193.107 148.392,193.315C143.323,193.558 137.719,195.842 135.296,200.586C135.138,200.896 134.811,201.645 134.315,202.83C131.086,200.379 128.662,197.406 126.01,194.392C125.883,193.868 125.904,193.277 126.073,192.619C126.734,192.995 127.561,193.045 128.557,192.774C130.312,192.296 130.117,187.677 130.052,186.129C129.599,175.446 127.181,163.521 124.367,153.922L126.516,152.884C129.105,157.538 132.204,161.78 135.817,165.614C137.674,167.584 139.686,169.286 141.853,170.722C141.948,170.785 142.075,170.781 142.17,170.715C143.225,169.958 144.393,169.04 145.673,167.96C150.83,163.616 155.561,159.451 159.87,155.459C160.155,155.195 160.401,154.949 160.602,154.72C160.845,154.446 161.077,154.189 161.302,153.95C162.938,152.205 164.711,150.14 166.628,147.759C168.942,144.881 172.358,139.827 176.871,132.594C179.667,128.109 182.939,124.184 188.528,123.301C188.919,123.238 190.157,123.216 192.236,123.241C195.817,123.28 199.542,124.089 202.859,125.024C202.989,125.06 203.119,124.961 203.116,124.824C202.993,121.306 202.022,117.996 200.196,114.894L200.678,114.64C200.71,114.623 200.741,114.612 200.773,114.605C204.903,113.671 208.608,112.35 211.903,110.697C213.035,110.129 214.667,109.271 216.796,108.122C220.084,106.348 224.081,103.746 228.784,100.313C228.867,100.253 229.143,99.92 229.52,99.692C229.913,100.096 230.329,100.492 230.768,100.88L232.045,101.836C231.767,101.928 217.513,112.576 212.673,119.185Z" style="fill:white;fill-opacity:0.75;"/>
    <path d="M233.476,102.8C231.429,106.782 230.732,111.074 232.045,115.298C232.456,116.631 233.205,118.098 234.292,119.699C235.977,122.186 238.063,124.56 240.557,126.825C240.81,127.054 241.025,127.174 241.201,127.177C241.268,127.772 241.604,128.259 242.214,128.641C242.372,128.739 242.408,128.95 242.291,129.094C242.098,129.334 241.923,129.615 241.764,129.939C240.903,131.686 239.976,134.413 238.798,136.207C237.226,138.602 235.886,140.344 234.774,141.427C233.149,143.01 231.334,144.269 229.325,145.205C226.972,146.302 225.147,147.017 223.849,147.347C222.519,147.685 221.483,147.954 220.735,148.142C220.577,148.182 220.412,148.195 220.25,148.184C219.472,148.131 218.776,148.195 218.168,148.388C217.236,148.684 216.961,148.195 216.24,148.184C215.283,148.17 214.887,148.227 214.217,147.949C213.919,147.824 213.683,147.783 213.51,147.826C213.38,147.857 213.24,147.821 213.144,147.727C213.047,147.631 212.786,147.541 212.36,147.453C212.054,147.389 211.755,147.294 211.459,147.171C209.219,146.239 207.164,144.949 205.311,143.288C205.205,143.193 205.169,143.041 205.223,142.911C205.916,141.224 206.467,139.559 206.858,137.906C207.823,133.835 207.31,129.443 208.955,125.633C209.81,123.653 211.09,121.349 212.673,119.185C217.513,112.576 231.767,101.928 232.045,101.836L233.476,102.8Z" style="fill:white;fill-opacity:0.95;"/>
    <path d="M63.773,103.082C61.353,103.293 58.221,104.008 56.284,105.562C56.13,105.685 56.164,105.93 56.344,106.012C56.467,106.068 56.622,106.068 56.801,106.008C59.219,105.197 61.624,104.658 64.026,104.401C66.446,104.278 68.905,104.396 71.406,104.76C71.599,104.788 71.74,104.58 71.642,104.411L71.614,104.359C71.462,104.091 71.213,103.894 70.917,103.806C68.396,103.058 66.014,102.818 63.773,103.082Z" style="fill:white;fill-opacity:0.15;"/>
    <path d="M84.942,132.225C85.691,129.9 86.803,128.127 88.273,126.913C88.684,126.572 89.771,125.869 91.534,124.81C92.818,124.036 93.989,123.498 95.044,123.195C100.806,121.538 106.318,121.377 111.324,124.149C112.974,125.067 114.236,125.682 115.295,126.407C117.698,128.053 119.731,130.104 121.388,132.559C124.072,136.541 126.509,140.987 126.822,145.588C126.988,148.04 126.886,150.474 126.516,152.884L124.367,153.922C122.246,151.512 120.17,149.061 118.144,146.57C116.892,145.029 115.552,143.594 114.321,142.479C110.877,139.359 104.37,139.071 100.412,140.808C99.466,141.223 98.179,141.818 96.553,142.595C93.965,143.831 91.193,144.046 88.241,143.249C85.892,142.615 85.014,140.943 84.421,138.715C84.388,138.592 84.372,138.469 84.372,138.346L84.354,134.772C84.354,134.504 84.389,134.237 84.46,133.98L84.942,132.225Z" style="fill:white;fill-opacity:0.95;"/>
    <path d="M83.457,132.197L84.942,132.225L84.46,133.98C84.389,134.237 84.354,134.504 84.354,134.772L84.372,138.346C84.372,138.469 84.388,138.592 84.421,138.715C85.014,140.943 85.892,142.615 88.241,143.249C91.193,144.046 93.965,143.831 96.553,142.595C98.179,141.818 99.466,141.223 100.412,140.808C104.37,139.071 110.877,139.359 114.321,142.479C115.552,143.594 116.892,145.029 118.144,146.57C120.17,149.061 122.246,151.512 124.367,153.922C127.181,163.521 129.599,175.446 130.052,186.129C130.117,187.677 130.312,192.296 128.557,192.774C127.561,193.045 126.734,192.995 126.073,192.619C120.42,189.829 114.134,187.924 107.212,186.899C106.287,186.762 105.506,186.663 104.876,186.611C102.583,186.42 100.528,186.083 98.224,186.463C97.834,184.317 97.299,182.192 96.624,180.086C96.23,178.858 95.49,176.847 94.478,176.125C94.193,175.921 93.796,176.09 93.743,176.434L93.099,180.662C92.87,180.353 92.414,179.684 91.724,178.657C86.082,170.262 81.305,161.623 77.435,152.722C77.389,152.617 77.361,152.508 77.347,152.395C76.822,148.188 80.36,144.369 82.423,141.037C84.011,138.473 84.393,135.726 83.538,132.805C83.483,132.615 83.454,132.411 83.457,132.197Z" style="fill:white;fill-opacity:0.5;"/>
    <path d="M45.314,133.795C45.542,133.861 45.782,133.859 46.012,133.794L48.918,132.974L49.21,132.921C49.534,132.904 49.738,132.985 49.825,133.157C49.855,133.213 49.851,133.282 49.818,133.337C49.816,133.341 49.813,133.344 49.811,133.347L49.259,134.156C49.147,134.318 49.27,134.533 49.463,134.525C51.595,134.441 53.62,134.177 55.538,133.766C55.654,133.741 56.234,136.657 56.372,137.28C56.554,138.103 56.618,138.982 56.562,139.918C52.379,139.056 48.791,137.252 45.794,134.501C45.746,134.475 45.494,134.214 45.314,133.795Z" style="fill:white;fill-opacity:0.95;"/>
    <path d="M2.636,182.608C1.717,182.355 1.145,182.201 1.05,182.186C0.568,182.105 0.22,181.851 0.006,181.433C-0.051,181.327 0.329,178.084 0.526,174.746C0.818,169.772 1.522,165.442 2.651,161.161C3.71,157.14 4.54,154.048 6.038,150.576C7.6,146.943 10.143,143.65 13.035,141.086C14.758,139.556 16.851,138.493 18.881,137.199C21.706,135.401 24.411,134.525 28.066,134.219C33.919,133.723 44.852,133.66 45.298,133.79L45.314,133.795C45.494,134.214 45.746,134.475 45.794,134.501C48.791,137.252 52.379,139.056 56.562,139.918C56.305,141.61 56.023,143.316 55.717,145.029C55.542,146.014 55.461,146.802 55.475,147.393C55.529,149.732 56.856,151.801 58.222,153.612C59.523,155.336 60.668,157.53 61.655,160.201C63.215,164.418 64.501,168.4 65.525,172.146C68.611,183.445 71.487,194.163 74.92,204.385C77.343,211.6 80.46,218.892 84.59,225.547C84.717,225.751 84.607,226.015 84.379,226.075C83.594,226.281 73.207,227.639 73.087,227.605C72.006,227.293 70.727,227.006 69.26,226.729C62.75,225.499 57.87,224.555 54.627,223.89C47.49,222.427 40.414,220.565 33.395,218.322C33.152,218.244 32.98,218.03 32.959,217.773C32.493,212.085 32.291,206.429 32.002,200.748C31.847,197.716 32.015,194.321 31.706,191.018C31.694,190.892 31.649,190.77 31.576,190.666C31.206,190.14 30.679,189.857 29.979,189.833C29.247,189.801 28.572,189.717 27.953,189.58C25.706,189.077 2.636,182.608 2.636,182.608Z" style="fill:white;fill-opacity:0.5;"/>
    <path d="M279.578,170.49C279.785,172.618 279.944,174.756 280.06,176.913C280.215,179.808 279.887,182.456 279.891,185.281C279.895,186.118 279.61,187.328 279.581,187.944C279.543,188.844 279.472,189.748 279.363,190.645C277.787,203.653 275.255,216.581 271.769,229.427C269.905,236.297 267.513,243.033 264.589,249.632C263.151,252.882 262.468,254.585 259.478,255.904C258.536,256.319 257.041,256.157 255.915,256.185C253.414,256.245 250.829,256.192 248.159,256.024C246.998,255.908 245.77,255.837 244.476,255.806C242.858,255.766 241.641,255.703 240.824,255.609C240.026,255.516 238.556,255.351 236.413,255.113C231.077,254.517 225.154,253.41 218.646,251.795C212.065,250.163 205.03,248.171 197.547,245.819C190.013,243.451 182.937,240.922 176.15,237.201C176.079,237.162 175.97,237.176 175.826,237.236C175.833,237.19 175.83,237.148 175.816,237.102C175.805,237.071 175.777,237.043 175.735,237.018C173.505,235.79 171.422,234.714 169.491,233.782C169.181,233.634 168.893,233.451 168.633,233.233C168.467,233.092 167.535,232.41 165.836,231.186C163.975,229.846 162.115,227.549 160.69,225.125C157.144,219.082 152.803,213.267 145.698,210.893C142.152,209.707 136.538,209.764 134.927,205.764C134.832,205.528 134.751,205.036 134.681,204.287C134.628,203.72 134.508,203.235 134.315,202.83C134.811,201.645 135.138,200.896 135.296,200.586C137.719,195.842 143.323,193.558 148.392,193.315C152.74,193.107 156.771,194.849 160.834,196.309C164.123,198.198 166.17,199.503 166.969,200.231C167.831,201.015 168.717,201.772 169.628,202.503C170.209,202.971 171.067,203.882 172.199,205.24C173.993,207.354 175.659,209.576 177.194,211.906C178.691,214.177 180.319,216.33 182.077,218.364C183.636,220.168 185.955,222.006 188.94,224.013C189.068,224.099 189.21,224.165 189.358,224.21C191.941,224.998 194.639,225.58 197.435,225.994C198.522,226.155 199.742,226.329 201.1,226.514C202.057,226.645 202.782,226.712 203.274,226.715C204.319,226.722 205.209,227.088 206.165,227.046C207.052,227.007 208.142,227.072 209.437,227.232C210.27,227.335 211.361,227.39 212.701,227.401C220.693,227.468 229.822,227.496 240.086,227.369C240.307,227.366 240.495,227.208 240.536,226.989C241.355,222.611 242.04,218.259 242.657,213.946C242.796,212.979 243.052,212.222 243.019,211.315C243.013,211.121 243.039,210.929 243.097,210.745C243.312,210.061 243.386,209.314 243.361,208.508C243.356,208.36 243.368,208.216 243.399,208.072L243.67,206.862C243.677,206.823 243.684,206.781 243.688,206.742L245.478,187.096C245.482,187.075 245.482,187.054 245.478,187.036C245.411,185.457 245.51,184.029 245.77,182.748L245.781,182.653L246.196,174.858C246.203,174.753 246.287,174.668 246.393,174.661C252.679,174.241 259.077,173.577 265.588,172.674C270.158,172.04 274.649,171.157 279.061,170.032C279.296,169.972 279.455,169.969 279.543,170.029C279.662,170.11 279.673,170.261 279.578,170.49Z" style="fill:white;fill-opacity:0.95;"/>
    <path d="M93.099,180.662C94.274,182.418 95.506,184.254 96.789,186.178C97.099,186.642 97.577,186.737 98.224,186.463C97.834,184.317 97.299,182.192 96.624,180.086C96.23,178.858 95.49,176.847 94.478,176.125C94.193,175.921 93.796,176.09 93.743,176.434L93.099,180.662Z" style="fill:white;fill-opacity:0.35;"/>
    <path d="M248.159,256.024C248.704,260.157 249.277,264.265 249.879,268.349C250.741,274.171 246.315,274.459 242.144,275.05C241.493,275.142 240.849,275.195 240.216,275.209C236.797,275.283 233.177,275.279 229.357,275.198C227.676,275.163 226.67,274.969 224.707,274.818C213.999,274.006 203.365,272.018 192.806,268.852C186.432,266.942 180.969,264.874 176.417,262.654C174.542,261.736 173.209,260.966 172.418,260.336C171.229,259.397 170.578,258.658 171.025,257.156C173.047,250.315 174.591,243.905 175.657,237.933C175.7,237.697 175.756,237.465 175.826,237.236C175.97,237.176 176.079,237.162 176.15,237.201C182.937,240.922 190.013,243.451 197.547,245.819C205.03,248.171 212.065,250.163 218.646,251.795C225.154,253.41 231.077,254.517 236.413,255.113C238.556,255.351 240.026,255.516 240.824,255.609C241.641,255.703 242.858,255.766 244.476,255.806C245.77,255.837 246.998,255.908 248.159,256.024Z" style="fill:white;fill-opacity:0.75;"/>
    <path d="M111.137,238.084C111.067,243.515 110.845,248.841 110.476,254.061C110.356,255.732 110.05,257.311 109.561,258.792C109.509,258.95 109.382,259.073 109.22,259.116C104.391,260.449 99.691,261.522 95.122,262.334C94.404,257.483 94.024,252.615 93.978,247.729C97.366,247.592 100.209,246.481 102.516,244.408C103.025,243.951 103.799,243.08 104.809,241.767C104.909,241.637 105.042,241.539 105.193,241.482C107.206,240.718 109.185,239.572 111.137,238.084Z" style="fill:white;fill-opacity:0.35;"/>
    <path d="M95.122,262.334C82.23,264.645 68.972,265.697 56.027,265.001C47.244,264.529 38.509,263.178 30.275,260.396C29.233,260.044 28.512,259.309 27.612,258.855C27.401,258.75 27.232,258.581 27.126,258.373C26.718,257.582 26.472,256.776 26.384,255.95C25.858,250.945 25.795,246.591 25.113,241.031C44.316,244.926 67.985,244.703 70.136,245.112C75.775,246.185 80.836,247.004 85.315,247.567C88.322,247.946 91.21,248 93.978,247.729C94.024,252.615 94.404,257.483 95.122,262.334Z" style="fill:white;fill-opacity:0.5;"/>
</svg>
