<?xml version="1.0" encoding="UTF-8" standalone="no"?>
<!DOCTYPE svg PUBLIC "-//W3C//DTD SVG 1.1//EN" "http://www.w3.org/Graphics/SVG/1.1/DTD/svg11.dtd">
<svg width="100%" height="100%" viewBox="0 0 300 300" version="1.1" xmlns="http://www.w3.org/2000/svg" xmlns:xlink="http://www.w3.org/1999/xlink" xml:space="preserve" xmlns:serif="http://www.serif.com/" style="fill-rule:evenodd;clip-rule:evenodd;stroke-linejoin:round;stroke-miterlimit:2;">
    <path d="M205.536,103.286L187.49,101.384C187.302,101.363 187.113,101.415 186.964,101.53C179.627,106.986 171.506,110.668 162.598,112.577C158.762,113.399 154.707,113.821 150.432,113.842C145.928,113.866 141.866,113.494 138.249,112.724C125.642,110.041 115.333,104.174 107.32,95.12C103.248,90.518 100.06,85.414 97.761,79.802C95.479,74.231 94.127,68.357 93.698,62.184C93.367,56.321 94.002,50.551 95.597,44.873C95.716,44.455 96.102,43.263 96.761,41.298C100.589,29.864 107.902,19.936 117.388,12.609C118.625,11.655 119.646,10.94 120.458,10.463C121.823,9.665 122.966,8.829 124.725,7.875C126.08,7.14 127.735,6.29 129.69,5.321C130.585,4.879 132.202,4.251 134.543,3.443C145.196,-0.229 156.324,-1.002 167.036,1.308C181.383,4.398 192.893,11.975 201.568,24.04C201.986,24.621 203.32,26.983 205.571,31.126C206.139,32.171 206.612,33.226 206.985,34.296C207.389,35.449 208.138,37.261 208.553,38.654C211.012,46.963 211.545,55.408 210.152,63.992C209.978,65.061 209.807,65.901 209.64,66.511C209.333,67.629 209.215,68.611 208.849,69.841C207.076,75.778 204.526,81.293 201.199,86.382C200.742,87.083 201.502,88.326 201.752,89.201C202.592,92.138 204.707,97.729 206.379,103.223C206.417,103.345 206.309,103.46 206.184,103.432L205.536,103.286ZM165.65,39.187L171.694,45.232C171.806,45.343 171.987,45.35 172.109,45.249C175.446,42.469 179.195,41.302 183.354,41.751C187.274,42.169 190.583,43.274 192.956,46.346C193.489,47.04 193.823,47.75 193.956,48.472C194.736,52.708 192.301,55.317 188.845,57.32C185.044,59.522 182.78,60.78 180.139,63.069C178.658,64.347 177.571,65.905 176.878,67.734C176.648,68.34 176.31,69.082 176.279,69.775C176.265,70.078 176.474,70.35 176.77,70.413L185.65,72.36C186.009,72.44 186.368,72.238 186.486,71.893C186.758,71.099 187.023,70.458 187.284,69.974C188.354,67.995 190.796,66.357 192.886,65.107C195.597,63.49 198.488,62.003 200.551,60.017C202.62,58.021 204.01,55.582 204.724,52.697C205.902,47.939 204.93,43.768 201.69,40.299C196.628,34.871 188.782,33.073 181.633,32.826C175.676,32.62 170.367,34.397 165.705,38.163C165.385,38.421 165.361,38.898 165.65,39.187ZM134.034,46.214C129.784,43.235 124.255,39.898 118.928,40.964C114.434,41.859 110.94,44.166 108.449,47.876C105.641,52.053 104.641,57.341 106.177,62.065C107.696,66.737 110.584,70.806 114.312,74.388C117.19,77.15 120.555,79.735 124.405,82.15C130.85,86.187 137.932,89.563 144.869,92.524C145.015,92.587 145.189,92.549 145.294,92.427C149.708,87.442 153.864,83.076 157.978,77.753C160.33,74.708 162.26,71.479 163.772,68.061C166.695,61.459 167.538,54.62 166.301,47.552C166.04,46.071 165.691,44.852 165.253,43.89C163.12,39.205 158.693,35.818 153.763,34.599C152.167,34.205 150.283,34.101 148.112,34.285C142.97,34.724 138.852,38.591 136.351,42.796C135.706,43.876 135.027,44.995 134.309,46.155C134.25,46.252 134.125,46.277 134.034,46.214ZM172.122,82.394C171.356,85.839 173.607,89.271 177.149,90.056C180.689,90.842 184.18,88.682 184.944,85.236C185.709,81.791 183.459,78.359 179.917,77.574C176.376,76.788 172.886,78.948 172.122,82.394Z" style="fill:white;fill-opacity:0.95;fill-rule:nonzero;"/>
    <path d="M165.65,39.187C165.361,38.898 165.385,38.421 165.705,38.163C170.367,34.397 175.676,32.62 181.633,32.826C188.782,33.073 196.628,34.871 201.69,40.299C204.93,43.768 205.902,47.939 204.724,52.697C204.01,55.582 202.62,58.021 200.551,60.017C198.488,62.003 195.597,63.49 192.886,65.107C190.796,66.357 188.354,67.995 187.284,69.974C187.023,70.458 186.758,71.099 186.486,71.893C186.368,72.238 186.009,72.44 185.65,72.36L176.77,70.413C176.474,70.35 176.265,70.078 176.279,69.775C176.31,69.082 176.648,68.34 176.878,67.734C177.571,65.905 178.658,64.347 180.139,63.069C182.78,60.78 185.044,59.522 188.845,57.32C192.301,55.317 194.736,52.708 193.956,48.472C193.823,47.75 193.489,47.04 192.956,46.346C190.583,43.274 187.274,42.169 183.354,41.751C179.195,41.302 175.446,42.469 172.109,45.249C171.987,45.35 171.806,45.343 171.694,45.232L165.65,39.187Z" style="fill:white;fill-opacity:0.25;fill-rule:nonzero;"/>
    <path d="M134.309,46.155C135.027,44.995 135.706,43.876 136.351,42.796C138.852,38.591 142.97,34.724 148.112,34.285C150.283,34.101 152.167,34.205 153.763,34.599C158.693,35.818 163.12,39.205 165.253,43.89C165.691,44.852 166.04,46.071 166.301,47.552C167.538,54.62 166.695,61.459 163.772,68.061C162.26,71.479 160.33,74.708 157.978,77.753C153.864,83.076 149.708,87.442 145.294,92.427C145.189,92.549 145.015,92.587 144.869,92.524C137.932,89.563 130.85,86.187 124.405,82.15C120.555,79.735 117.19,77.15 114.312,74.388C110.584,70.806 107.696,66.737 106.177,62.065C104.641,57.341 105.641,52.053 108.449,47.876C110.94,44.166 114.434,41.859 118.928,40.964C124.255,39.898 129.784,43.235 134.034,46.214C134.125,46.277 134.25,46.252 134.309,46.155ZM159.393,53.419C160.396,52.708 160.678,51.036 160.487,49.869C160.145,47.775 159.414,46.005 158.295,44.556C156.487,42.215 153.982,39.104 150.781,38.658C149.237,38.442 147.826,38.975 146.555,40.26C144.897,41.929 147.346,43.479 148.722,44.263C148.844,44.333 150.436,45.235 153.505,46.967C155.028,47.827 156.174,48.984 156.951,50.443C157.623,51.708 158.201,52.75 159.107,53.415C159.191,53.478 159.309,53.481 159.393,53.419Z" style="fill:white;fill-opacity:0.25;fill-rule:nonzero;"/>
    <path d="M159.393,53.419C159.309,53.481 159.191,53.478 159.107,53.415C158.201,52.75 157.623,51.708 156.951,50.443C156.174,48.984 155.028,47.827 153.505,46.967C150.436,45.235 148.844,44.333 148.722,44.263C147.346,43.479 144.897,41.929 146.555,40.26C147.826,38.975 149.237,38.442 150.781,38.658C153.982,39.104 156.487,42.215 158.295,44.556C159.414,46.005 160.145,47.775 160.487,49.869C160.678,51.036 160.396,52.708 159.393,53.419Z" style="fill:white;fill-opacity:0.95;fill-rule:nonzero;"/>
    <path d="M93.698,62.184C94.127,68.357 95.479,74.231 97.761,79.802C100.06,85.414 103.248,90.518 107.32,95.12C115.333,104.174 125.642,110.041 138.249,112.724C141.866,113.494 145.928,113.866 150.432,113.842C154.707,113.821 158.762,113.399 162.598,112.577C171.506,110.668 179.627,106.986 186.964,101.53C187.113,101.415 187.302,101.363 187.49,101.384L205.536,103.286C205.895,103.847 206.055,104.237 206.01,104.45C205.825,105.341 205.494,106.265 205.02,107.219C204.975,107.31 204.888,107.372 204.787,107.386C203.836,107.505 202.805,107.184 201.665,107.076C195.635,106.508 190.555,105.961 186.427,105.432C185.156,105.268 184.856,106.073 184.083,106.557C182.337,107.662 180.634,108.7 178.972,109.679C178.825,109.766 178.69,109.87 178.578,109.992C178.097,110.511 177.519,110.835 176.843,110.964C176.784,110.975 176.728,110.996 176.676,111.02L173.039,112.866C173.011,112.884 172.98,112.894 172.948,112.901C172.224,113.065 171.363,113.406 170.37,113.919C170.262,113.974 170.151,114.016 170.036,114.047C169.343,114.222 168.722,114.427 168.175,114.668C168.165,114.675 167.928,114.758 167.465,114.918C164.375,115.988 161.145,116.754 157.776,117.221C157.748,117.225 156.888,117.343 155.191,117.57C152.23,117.967 148.805,117.928 146.245,117.904C144.653,117.89 142.946,117.768 141.12,117.535C132.386,116.427 124.342,113.504 116.988,108.766C116.19,108.254 115.493,107.756 114.89,107.271C114.187,106.707 113.089,106.035 112.131,105.23C109.341,102.885 106.756,100.29 104.376,97.451C103.68,96.618 103.23,95.677 102.499,95.061C102.29,94.886 102.115,94.674 101.983,94.441L97.06,85.682C96.945,85.477 96.858,85.257 96.803,85.031C96.51,83.857 95.973,82.996 95.552,81.826C94.085,77.739 93.117,73.496 92.643,69.092C92.333,66.19 92.65,63.274 92.671,60.299C92.671,60.25 92.713,60.209 92.761,60.209L92.876,60.209C92.887,60.209 92.897,60.219 92.897,60.229L93.075,62.602C93.092,62.839 93.392,62.926 93.535,62.738C93.604,62.658 93.66,62.473 93.698,62.184Z" style="fill:white;fill-opacity:0.25;fill-rule:nonzero;"/>
    <path d="M172.122,82.394C172.886,78.948 176.376,76.788 179.917,77.574C183.459,78.359 185.709,81.791 184.944,85.236C184.18,88.682 180.689,90.842 177.149,90.056C173.607,89.271 171.356,85.839 172.122,82.394Z" style="fill:white;fill-opacity:0.25;fill-rule:nonzero;"/>
    <path d="M67.068,123.471C64.992,124.732 62.522,125.656 59.655,126.244C58.024,126.798 56.314,127.262 54.526,127.634C53.586,127.829 52.614,127.944 51.614,127.983C49.123,128.073 46.733,128.509 44.657,129.979C42.661,131.386 41.831,134.128 41.563,136.584C41.417,137.905 41.18,139.263 40.852,140.664C40.811,140.859 40.821,141.057 40.884,141.242C42.971,147.185 45.291,152.916 48.872,158.017C49.419,158.801 50.245,159.668 51.342,160.626C53.791,162.755 57.226,162.598 59.355,160.023C60.602,158.515 61.623,157.097 63.177,156.606C63.995,156.344 65.142,156.139 66.612,155.986C67.796,155.947 69.002,155.864 70.231,155.742C72.468,155.519 74.757,154.707 75.921,152.652C75.924,152.648 75.927,152.641 75.931,152.634L76.544,151.094C76.983,151.951 77.76,158.86 77.659,159.696C77.652,159.755 77.666,160.058 77.701,160.602C77.99,165.078 77.37,169.28 75.833,173.206C75.102,175.084 71.928,176.289 70.308,176.99C69.681,177.261 69.012,177.415 68.298,177.449C67.396,176.355 66.483,175.586 65.553,175.143C64.57,174.673 63.069,174.669 61.045,175.14C60.801,175.195 60.592,174.958 60.679,174.725L61.055,173.708C61.142,173.474 61.369,173.321 61.619,173.332C62.748,173.384 64.368,173.495 64.811,172.109C64.901,171.83 64.8,171.527 64.56,171.356C64.396,171.241 63.877,170.896 63.006,170.322C60.578,168.722 56.969,168.928 55.164,171.339C53.6,173.433 52.342,175.168 51.394,176.537C51.036,177.056 50.544,177.383 49.928,177.519C45.625,178.059 41.385,177.641 37.201,176.265C37.163,175.829 36.971,175.558 36.63,175.45C36.121,175.286 35.864,175.202 35.853,175.199C34.93,174.701 34.069,174.265 33.279,173.896C31.338,172.99 30.352,172.154 28.429,170.583C25.443,168.141 21.374,166.451 18.946,163.323C16.671,160.386 15.093,157.348 14.274,153.669C13.24,149.018 13.02,144.249 13.616,139.361C13.94,136.71 14.285,134.069 14.654,131.432C14.989,129.056 15.044,126.485 15.497,124.279C15.595,123.813 15.873,122.924 16.337,121.618C17.744,117.653 21.399,114.222 25.018,112.271C28.192,110.56 31.362,109.323 34.526,108.557C38.915,107.494 42.229,106.801 44.462,106.477C45.831,106.279 47.757,106.045 50.248,105.777C52.436,105.54 54.37,105.359 56.045,105.233C59.63,104.962 75.189,102.164 75.813,101.986C75.879,101.966 75.948,102 75.976,102.063L76.736,103.76C76.739,103.77 76.743,103.781 76.746,103.791C77.063,105.021 78.331,111.086 78.185,112.347C77.997,113.932 77.419,115.413 76.447,116.782C75.851,117.625 74.673,118.629 72.914,119.792C70.998,121.064 69.05,122.29 67.068,123.471ZM42.915,164.016C42.915,163.911 42.904,163.828 42.88,163.761C40.703,157.787 38.766,151.847 37.076,145.942C37.024,145.757 36.836,145.649 36.651,145.691C33.902,146.328 32.063,147.816 31.126,150.15C29.952,153.087 30.572,156.808 32.209,159.469C33.477,161.539 34.547,162.786 36.87,163.249C38.553,163.587 40.542,163.863 42.845,164.079C42.883,164.082 42.915,164.054 42.915,164.016ZM60.839,162.448C60.748,162.783 60.769,163.166 60.902,163.598C61.808,166.521 64.17,168.245 67.242,168.531C70.524,168.837 73.907,167.378 76.074,164.904C77.091,163.744 76.123,162.413 74.76,162.546C73.2,162.702 71.545,162.988 69.799,163.403C68.559,163.699 67.371,163.692 66.235,163.385C65.211,163.11 64.246,162.389 63.18,161.852C62.302,161.41 61.581,161.5 61.017,162.128C60.933,162.218 60.87,162.33 60.839,162.448Z" style="fill:white;fill-opacity:0.25;fill-rule:nonzero;"/>
    <path d="M266.095,175.098L265.207,174.652C264.75,174.182 264.479,173.948 264.388,173.955C262.566,172.297 261.416,170.227 260.932,167.75C260.514,165.59 261.225,164.932 263.068,163.807C266.635,161.629 269.46,155.78 264.545,153.007C262.81,152.031 261.103,151.683 258.396,150.906C257.25,150.575 256.236,150.084 255.354,149.426C253.916,148.353 253.212,146.715 253.236,144.517C253.254,143.273 253.268,142.36 253.449,141.385C254.187,137.372 253.278,133.606 248.84,132.508C247.457,132.163 245.966,132.142 244.367,132.445C241.283,132.947 238.643,134.832 235.988,136.26C233.842,137.413 231.668,137.706 229.47,137.135C229.47,136.832 229.25,136.528 228.811,136.225C228.724,136.163 228.623,136.121 228.519,136.1C226.481,135.689 224.829,135.086 223.568,134.295C222.467,133.602 221.962,131.766 221.924,130.508C221.844,127.885 220.088,127.22 218.036,126.07C215.566,124.68 214.315,122.534 214.277,119.629C214.273,119.489 214.298,119.353 214.346,119.221L215.311,116.612C215.437,116.263 215.698,115.981 216.036,115.828C218.126,114.87 219.666,115.734 221.896,116.775C222.917,117.253 226.143,117.887 226.697,117.81C227.17,117.747 227.818,117.58 228.637,117.312C231.769,116.274 232.441,114.04 233.678,111.306C234.58,109.313 236.639,109.344 238.458,109.56C240.057,109.752 241.517,110.236 242.959,110.261C244.415,110.285 245.446,110.449 246.377,109.616C246.819,109.219 247.565,108.48 248.613,107.397C248.693,107.313 248.781,107.24 248.878,107.181C250.651,106.069 252.421,105.603 254.18,105.78C254.536,105.819 255.323,106.038 256.542,106.446C258.699,107.163 260.291,108.714 261.364,110.672C261.646,111.184 262.151,111.494 262.883,111.602C263.001,111.619 263.123,111.598 263.228,111.543C264.266,110.968 265.409,110.508 266.656,110.17C268.339,109.714 270.753,109.748 272.247,109.919C272.948,109.999 273.787,110.247 274.77,110.661C275.644,111.03 276.412,111.464 276.975,112.058C280.549,115.828 279.748,122.632 279.194,123.422C279.125,123.523 279.125,123.656 279.194,123.757C279.57,124.279 280.025,124.242 280.549,123.938C283.793,122.055 289.22,123.306 291.245,125.746C293.112,127.996 294.791,133.993 288.698,140.97C288.404,141.307 288.569,141.747 289.008,141.827C295.28,142.97 292.747,154.733 291.245,155.073C291.078,155.136 291.025,155.345 291.137,155.484C291.137,155.484 294.033,159.656 291.238,163.939C289.312,166.89 286.221,168.402 282.817,166.88C282.661,166.81 282.483,166.9 282.445,167.068C283.221,170.036 275.889,173.678 274.115,170.384C274.051,170.266 273.728,170.346 273.77,170.471C274.84,173.686 269.458,177.862 266.339,174.899C266.25,174.814 266.147,174.913 266.095,175.098Z" style="fill:white;fill-opacity:0.25;fill-rule:nonzero;"/>
    <path d="M73.621,136.616C74.642,140.531 75.367,143.977 75.802,146.956C76.091,148.941 76.339,150.321 76.544,151.094L75.931,152.634C75.927,152.641 75.924,152.648 75.921,152.652C74.757,154.707 72.468,155.519 70.231,155.742C69.002,155.864 67.796,155.947 66.612,155.986C66.396,154.508 66.842,153.575 67.953,153.188C68.65,152.941 69.737,153.066 70.437,152.99C71.893,152.829 72.465,152.042 72.151,150.628C72.012,149.997 71.716,148.987 71.263,147.59C70.43,145.029 69.144,142.096 67.406,138.786C66.392,136.856 65.821,135.773 65.696,135.536C64.933,134.093 62.919,130.996 59.655,126.244C62.522,125.656 64.992,124.732 67.068,123.471C69.277,126.324 70.963,129.261 72.13,132.278C72.217,132.505 72.308,132.804 72.398,133.177C70.847,132.954 69.904,133.62 69.761,133.811C69.458,134.219 69.584,134.807 70.033,135.076C71.169,135.755 72.364,136.271 73.621,136.616ZM73.056,140.559C72.51,140.685 72.301,141.8 72.588,143.054C72.876,144.308 73.548,145.221 74.095,145.096C74.642,144.97 74.851,143.855 74.564,142.601C74.276,141.347 73.604,140.434 73.056,140.559Z" style="fill:white;fill-opacity:0.75;"/>
    <path d="M59.655,126.244C62.919,130.996 64.933,134.093 65.696,135.536C65.821,135.773 66.392,136.856 67.406,138.786C69.144,142.096 70.43,145.029 71.263,147.59C71.716,148.987 72.012,149.997 72.151,150.628C72.465,152.042 71.893,152.829 70.437,152.99C69.737,153.066 68.65,152.941 67.953,153.188C66.842,153.575 66.396,154.508 66.612,155.986C65.142,156.139 63.995,156.344 63.177,156.606C61.623,157.097 60.602,158.515 59.355,160.023C57.226,162.598 53.791,162.755 51.342,160.626C50.245,159.668 49.419,158.801 48.872,158.017C45.291,152.916 42.971,147.185 40.884,141.242C40.821,141.057 40.811,140.859 40.852,140.664C41.18,139.263 41.417,137.905 41.563,136.584C41.831,134.128 42.661,131.386 44.657,129.979C46.733,128.509 49.123,128.073 51.614,127.983C52.614,127.944 53.586,127.829 54.526,127.634C56.314,127.262 58.024,126.798 59.655,126.244ZM60.202,135.717C58.885,136.215 57.387,137.027 56.564,138.152C56.293,138.525 56.334,139.03 56.662,139.298C57.442,139.943 60.32,138.884 61.261,138.528C62.205,138.169 65.065,137.065 65.222,136.065C65.288,135.644 64.988,135.239 64.539,135.138C63.173,134.839 61.515,135.222 60.202,135.717ZM63.666,141.532C63.048,141.667 62.793,142.904 63.099,144.289C63.403,145.677 64.152,146.691 64.77,146.554C65.389,146.419 65.643,145.182 65.338,143.797C65.034,142.409 64.285,141.395 63.666,141.532Z" style="fill:white;fill-opacity:0.95;fill-rule:nonzero;"/>
    <path d="M264.388,173.955C261.096,176.094 257.835,178.212 254.598,180.313C251.327,182.435 247.85,183.577 244.168,183.745C241.813,183.849 240.116,183.947 239.082,184.034C239.082,184.013 239.054,183.975 238.994,183.915C238.918,183.842 238.817,183.797 238.712,183.79L235.329,183.633C234.351,182.24 233.591,180.773 233.051,179.237C232.758,178.4 232.734,177.627 232.647,176.787C232.637,176.673 232.64,176.558 232.657,176.446C232.835,175.46 232.859,174.457 232.734,173.436C234.121,173.039 235.316,172.321 236.315,171.283C237.308,170.248 237.775,169.252 237.709,168.287C237.632,167.207 236.793,166.608 235.187,166.489C235.511,165.12 235.598,163.981 235.441,163.072C235.235,161.901 234.58,160.685 233.274,160.811C231.867,160.947 229.512,161.434 229.55,159.327C229.56,158.661 229.64,158.045 229.783,157.48C230.874,153.185 232.588,149.164 234.929,145.423C236.396,146.792 238.479,147.339 240.412,147.558C241.639,147.698 243.29,147.447 243.384,145.914C243.391,145.799 243.374,145.684 243.332,145.576C243.144,145.064 242.827,144.632 242.384,144.28C240.862,143.071 239.015,142.507 236.852,142.59C239.036,138.964 241.541,135.584 244.367,132.445C245.966,132.142 247.457,132.163 248.84,132.508C253.278,133.606 254.187,137.372 253.449,141.385C253.268,142.36 253.254,143.273 253.236,144.517C253.212,146.715 253.916,148.353 255.354,149.426C256.236,150.084 257.25,150.575 258.396,150.906C261.103,151.683 262.81,152.031 264.545,153.007C269.46,155.78 266.635,161.629 263.068,163.807C261.225,164.932 260.514,165.59 260.932,167.75C261.416,170.227 262.566,172.297 264.388,173.955ZM236.66,149.43C236.075,149.366 235.476,150.401 235.329,151.743C235.18,153.087 235.535,154.226 236.124,154.292C236.709,154.355 237.308,153.32 237.455,151.978C237.604,150.634 237.249,149.495 236.66,149.43Z" style="fill:white;fill-opacity:0.95;fill-rule:nonzero;"/>
    <path d="M227.408,142.946C227.91,140.81 228.579,138.826 229.47,137.135C231.668,137.706 233.842,137.413 235.988,136.26C238.643,134.832 241.283,132.947 244.367,132.445C241.541,135.584 239.036,138.964 236.852,142.59C236.319,142.636 235.863,142.761 235.483,142.967C234.427,143.538 234.243,144.357 234.929,145.423C232.588,149.164 230.874,153.185 229.783,157.48C229.64,158.045 229.56,158.661 229.55,159.327C229.512,161.434 231.867,160.947 233.274,160.811C234.58,160.685 235.235,161.901 235.441,163.072C235.598,163.981 235.511,165.12 235.187,166.489C234.511,166.437 233.703,166.486 232.762,166.636C231.1,166.9 229.438,167.162 227.777,167.419C227.257,167.5 226.738,167.562 226.219,167.604C226.111,167.611 226.042,167.67 226.007,167.778C225.854,167.831 225.756,167.799 225.77,167.677C226.03,165.348 225.74,159.535 226.081,153.241C226.188,153.425 226.323,153.538 226.479,153.555C226.941,153.605 227.413,152.79 227.529,151.731C227.647,150.672 227.367,149.774 226.903,149.722C226.694,149.699 226.484,149.853 226.305,150.126C226.387,149.227 226.485,148.327 226.603,147.436C227.225,147.093 227.811,146.682 228.349,146.254C229.214,145.567 230.101,144.365 229.192,143.334C229.124,143.257 229.04,143.195 228.945,143.153C228.502,142.948 228.028,142.875 227.526,142.932C227.486,142.936 227.447,142.941 227.408,142.946Z" style="fill:white;fill-opacity:0.75;"/>
    <path d="M61.261,138.528C60.32,138.884 57.442,139.943 56.662,139.298C56.334,139.03 56.293,138.525 56.564,138.152C57.387,137.027 58.885,136.215 60.202,135.717C61.515,135.222 63.173,134.839 64.539,135.138C64.988,135.239 65.288,135.644 65.222,136.065C65.065,137.065 62.205,138.169 61.261,138.528Z" style="fill:white;fill-opacity:0.15;fill-rule:nonzero;"/>
    <path d="M73.056,140.559C73.604,140.434 74.276,141.347 74.564,142.601C74.851,143.855 74.642,144.97 74.095,145.096C73.548,145.221 72.876,144.308 72.588,143.054C72.301,141.8 72.51,140.685 73.056,140.559Z" style="fill:white;fill-opacity:0.15;fill-rule:nonzero;"/>
    <path d="M63.666,141.532C64.285,141.395 65.034,142.409 65.338,143.797C65.643,145.182 65.389,146.419 64.77,146.554C64.152,146.691 63.403,145.677 63.099,144.289C62.793,142.904 63.048,141.667 63.666,141.532Z" style="fill:white;fill-opacity:0.15;fill-rule:nonzero;"/>
    <path d="M234.929,145.423C234.243,144.357 234.427,143.538 235.483,142.967C235.863,142.761 236.319,142.636 236.852,142.59C239.015,142.507 240.862,143.071 242.384,144.28C242.827,144.632 243.144,145.064 243.332,145.576C243.374,145.684 243.391,145.799 243.384,145.914C243.29,147.447 241.639,147.698 240.412,147.558C238.479,147.339 236.396,146.792 234.929,145.423Z" style="fill:white;fill-opacity:0.15;fill-rule:nonzero;"/>
    <path d="M42.915,164.016C42.915,164.054 42.883,164.082 42.845,164.079C40.542,163.863 38.553,163.587 36.87,163.249C34.547,162.786 33.477,161.539 32.209,159.469C30.572,156.808 29.952,153.087 31.126,150.15C32.063,147.816 33.902,146.328 36.651,145.691C36.836,145.649 37.024,145.757 37.076,145.942C38.766,151.847 40.703,157.787 42.88,163.761C42.904,163.828 42.915,163.911 42.915,164.016Z" style="fill:white;fill-opacity:0.95;fill-rule:nonzero;"/>
    <path d="M236.66,149.43C237.249,149.495 237.604,150.634 237.455,151.978C237.308,153.32 236.709,154.355 236.124,154.292C235.535,154.226 235.18,153.087 235.329,151.743C235.476,150.401 236.075,149.366 236.66,149.43Z" style="fill:white;fill-opacity:0.15;fill-rule:nonzero;"/>
    <path d="M226.603,147.436C226.807,145.899 227.07,144.388 227.408,142.946C227.447,142.941 227.486,142.936 227.526,142.932C228.028,142.875 228.502,142.948 228.945,143.153C229.04,143.195 229.124,143.257 229.192,143.334C230.101,144.365 229.214,145.567 228.349,146.254C227.811,146.682 227.225,147.093 226.603,147.436Z" style="fill:white;fill-opacity:0.15;"/>
    <path d="M226.305,150.126C226.484,149.853 226.694,149.699 226.903,149.722C227.367,149.774 227.647,150.672 227.529,151.731C227.413,152.79 226.941,153.605 226.479,153.555C226.323,153.538 226.188,153.425 226.081,153.241C226.137,152.211 226.21,151.169 226.305,150.126Z" style="fill:white;fill-opacity:0.15;"/>
    <path d="M61.017,162.128C61.581,161.5 62.302,161.41 63.18,161.852C64.246,162.389 65.211,163.11 66.235,163.385C67.371,163.692 68.559,163.699 69.799,163.403C71.545,162.988 73.2,162.702 74.76,162.546C76.123,162.413 77.091,163.744 76.074,164.904C73.907,167.378 70.524,168.837 67.242,168.531C64.17,168.245 61.808,166.521 60.902,163.598C60.769,163.166 60.748,162.783 60.839,162.448C60.87,162.33 60.933,162.218 61.017,162.128Z" style="fill:white;fill-opacity:0.95;fill-rule:nonzero;"/>
    <path d="M235.187,166.489C236.793,166.608 237.632,167.207 237.709,168.287C237.775,169.252 237.308,170.248 236.315,171.283C235.316,172.321 234.121,173.039 232.734,173.436C230.292,174.081 228.195,173.652 226.435,172.154L226.428,171.659C226.428,171.513 226.387,171.374 226.306,171.252C225.759,170.405 225.599,169.339 225.833,168.061C225.84,168.015 225.864,167.97 225.902,167.942C225.968,167.893 226.003,167.838 226.007,167.778C226.042,167.67 226.111,167.611 226.219,167.604C226.738,167.562 227.257,167.5 227.777,167.419C229.438,167.162 231.1,166.9 232.762,166.636C233.703,166.486 234.511,166.437 235.187,166.489Z" style="fill:white;fill-opacity:0.15;fill-rule:nonzero;"/>
    <path d="M68.298,177.449C68.841,178.265 69.496,179.035 70.259,179.759C70.629,180.108 71.59,181.759 71.743,182.734C71.782,182.985 71.872,183.187 72.008,183.337C72.761,185.612 72.663,187.671 71.712,189.507C71.653,189.622 71.58,189.73 71.496,189.827C70.855,190.562 70.326,191.332 69.587,192.092C69.374,192.308 67.406,194.28 63.675,198.007C63.396,198.286 63.215,198.652 63.159,199.042C62.675,202.557 62.323,205.693 62.107,208.441C61.665,214.085 61.1,220.07 60.599,224.958C60.303,227.871 60.316,229.296 60.306,232.765C60.289,239.28 59.522,245.879 57.798,252C56.982,254.888 55.774,257.424 54.171,259.612C54.136,259.661 54.175,259.727 54.234,259.72C63.097,258.758 70.158,257.222 80.394,254.86C80.512,254.832 80.603,254.734 80.62,254.616C80.913,252.794 80.777,251.083 81.08,249.348C81.303,248.077 81.146,246.972 81.383,245.656C81.672,244.046 81.491,242.325 81.791,240.437C81.853,240.043 81.892,239.44 81.906,238.625C81.972,234.577 82.049,231.685 82.139,229.947C82.164,229.484 82.212,229.031 82.278,228.588C82.299,228.446 82.428,228.348 82.571,228.362C83.571,228.473 84.567,228.449 85.557,228.285C88.103,227.867 90.744,227.372 93.472,226.798C94.221,226.641 94.935,226.721 95.527,226.477C95.639,226.432 95.768,226.446 95.865,226.515C96.182,226.742 96.353,227.003 96.377,227.306C99.273,236.817 100.872,246.551 101.182,256.508C101.251,258.716 101.053,260.389 100.962,262.444C100.955,262.604 100.934,262.765 100.896,262.921C100.67,263.9 100.537,264.458 100.506,264.594C99.569,268.433 96.496,270.708 92.925,271.965C89.347,273.23 85.668,274.063 81.892,274.47C78.593,274.759 74.618,274.836 69.97,274.7C67.981,274.641 66.755,274.575 66.284,274.498C65.152,274.317 64.274,274.414 63.236,274.268C62.522,274.171 62.031,274.108 61.766,274.084C58.815,273.801 55.627,273.429 52.206,272.965C51.736,272.902 51.151,272.92 50.447,273.021C50.325,273.038 50.213,273.087 50.123,273.167C48.189,274.853 45.918,275.125 43.305,273.986C40.657,272.829 38.041,271.582 35.456,270.241C35.306,270.161 35.122,270.227 35.055,270.384C34.481,271.732 34.226,273.028 32.519,272.941C31.697,272.899 30.641,272.659 29.352,272.223C28.568,271.958 27.976,271.561 27.576,271.032C26.858,270.088 26.217,269.321 25.656,268.732C24.217,267.227 24.332,265.433 24.44,264.005C24.548,262.576 24.9,260.639 25.499,258.194C25.639,257.626 25.9,256.908 26.283,256.034C27.053,254.278 28.589,255.01 29.997,254.832C30.087,254.821 30.119,254.703 30.046,254.647C28.276,253.32 26.22,251.595 23.879,249.481C22.691,248.404 21.765,247.377 21.106,246.398C21.029,246.283 20.977,246.154 20.96,246.018C20.824,245.123 21.179,244.426 22.022,243.928C27.38,240.768 32.024,237.054 35.961,232.487C37.066,231.208 38.034,230.059 38.874,229.038C39.111,228.745 39.278,228.407 39.361,228.041C40.285,223.934 41.476,219.443 42.939,214.569C43.824,211.622 44.702,208.267 45.315,205.647C45.852,203.348 46.632,199.822 47.656,195.067C47.66,194.29 47.796,193.576 48.057,192.931C48.074,192.893 48.081,192.851 48.081,192.806L48.081,191.054C48.081,191.005 48.088,190.96 48.106,190.914C48.343,190.242 48.451,189.608 48.433,189.012C48.405,188.131 48.813,187.441 48.757,186.629C48.733,186.284 48.813,185.856 48.991,185.344C49.102,185.02 49.154,184.584 49.144,184.034C49.133,183.494 49.468,183.118 49.468,182.529C49.464,181.661 49.806,181.149 49.82,180.477C49.827,180.142 49.987,179.352 50.301,178.104C50.332,177.986 50.301,177.857 50.22,177.763C50.133,177.658 50.036,177.578 49.928,177.519C50.544,177.383 51.036,177.056 51.394,176.537C52.342,175.168 53.6,173.433 55.164,171.339C56.969,168.928 60.578,168.722 63.006,170.322C63.877,170.896 64.396,171.241 64.56,171.356C64.8,171.527 64.901,171.83 64.811,172.109C64.368,173.495 62.748,173.384 61.619,173.332C61.369,173.321 61.142,173.474 61.055,173.708L60.679,174.725C60.592,174.958 60.801,175.195 61.045,175.14C63.069,174.669 64.57,174.673 65.553,175.143C66.483,175.586 67.396,176.355 68.298,177.449Z" style="fill:white;fill-opacity:0.75;fill-rule:nonzero;"/>
    <path d="M232.734,173.436C232.859,174.457 232.835,175.46 232.657,176.446C232.64,176.558 232.637,176.673 232.647,176.787C232.734,177.627 232.758,178.4 233.051,179.237C233.591,180.773 234.351,182.24 235.329,183.633C229.222,183.041 227.275,177.61 226.296,172.464C226.282,172.391 226.327,172.286 226.435,172.154C228.195,173.652 230.292,174.081 232.734,173.436Z" style="fill:white;fill-opacity:0.75;fill-rule:nonzero;"/>
    <path d="M265.207,174.652C261.838,176.666 258.988,178.798 256.657,181.045C251.832,185.696 248.582,188.747 246.91,190.193C245.398,191.503 243.691,193.423 241.792,195.948C241.698,196.074 241.538,196.133 241.384,196.102L240.573,195.924C240.148,195.83 239.928,195.363 240.123,194.973L240.573,194.078C240.938,193.196 241.071,192.151 240.97,190.942C240.775,188.517 240.144,186.215 239.082,184.034C240.116,183.947 241.813,183.849 244.168,183.745C247.85,183.577 251.327,182.435 254.598,180.313C257.835,178.212 261.096,176.094 264.388,173.955C264.479,173.948 264.75,174.182 265.207,174.652Z" style="fill:white;fill-opacity:0.75;fill-rule:nonzero;"/>
    <path d="M265.207,174.652L266.095,175.098C265.224,176.781 264.653,178.488 264.378,180.226C263.914,183.173 264.461,185.891 266.011,188.382C267.708,191.109 269.781,193.485 272.223,195.516C272.359,195.628 272.512,195.719 272.679,195.778C276.644,197.199 280.762,198.537 284.545,200.882C291.126,204.968 294.359,213.078 294.412,220.743C294.436,224.07 294.321,226.077 294.53,228.588C294.572,229.083 294.554,229.937 294.481,231.145C294.422,232.086 294.586,233.344 294.572,234.549C294.54,237.336 294.537,239.413 294.565,240.782C294.579,241.566 294.394,242.273 294.422,243.168C294.425,243.287 294.373,243.402 294.276,243.475C293.471,244.081 292.983,244.44 292.812,244.548C292.502,244.743 292.367,244.927 292.405,245.102C292.137,245.046 291.976,245.049 291.921,245.116C291.231,245.945 290.356,246.45 289.297,246.631C289.196,246.648 289.099,246.676 289.005,246.715C287.364,247.401 286.057,247.829 285.092,248C281.825,248.575 278.243,248.495 274.348,247.756C274.097,247.708 273.854,247.624 273.627,247.505C273.369,247.373 273.003,247.258 272.526,247.157C272.404,247.133 272.289,247.227 272.286,247.352C272.251,249.557 271.979,252.149 271.467,255.121C270.732,259.378 270,263.346 269.279,267.022C268.805,269.436 268.217,271.69 267.513,273.791C267.307,274.404 267.147,274.972 267.025,275.491C266.945,275.822 266.83,276.404 266.68,277.233C265.283,284.866 262.998,292.137 259.821,299.052C254.996,300.01 250.536,300.219 246.436,299.679C244.589,299.439 242.659,298.878 240.642,297.996C237.448,296.599 234.5,294.878 231.797,292.826C229.243,290.893 227.271,289.238 225.874,287.862C224.781,286.785 223.136,285.141 220.938,282.929C220.879,282.866 220.865,282.772 220.906,282.699C221.537,281.567 222.007,280.452 222.317,279.348C223.171,276.317 223.721,273.819 223.972,271.857C224.578,267.116 224.415,262.092 224.394,258.117C224.39,257.002 224.195,256.302 224.122,255.351C224.119,255.341 224.119,255.334 224.119,255.327L224.066,237.5C224.066,237.409 223.969,237.35 223.885,237.392C223.15,237.772 222.405,237.859 221.649,237.653C219.642,236.228 218.158,235.016 217.193,234.013C213.953,230.647 211.047,226.582 208.48,221.816C208.434,221.729 208.319,221.596 208.142,221.419C208.138,221.164 208.11,220.987 208.055,220.882C207.41,219.687 206.818,218.496 206.274,217.315C206.17,217.092 206.215,216.823 206.389,216.649C208.351,214.65 210.194,212.427 211.911,209.985C215.113,205.424 217.067,202.616 217.771,201.554C219.875,198.363 223.861,195.374 227.756,194.656C230.313,194.182 233.163,193.897 236.301,193.795C236.995,193.771 237.709,193.795 238.437,193.862C239.12,193.924 239.831,193.998 240.573,194.078L240.123,194.973C239.928,195.363 240.148,195.83 240.573,195.924L241.384,196.102C241.538,196.133 241.698,196.074 241.792,195.948C243.691,193.423 245.398,191.503 246.91,190.193C248.582,188.747 251.832,185.696 256.657,181.045C258.988,178.798 261.838,176.666 265.207,174.652Z" style="fill:white;fill-opacity:0.95;fill-rule:nonzero;"/>
    <path d="M49.928,177.519C50.036,177.578 50.133,177.658 50.22,177.763C50.301,177.857 50.332,177.986 50.301,178.104C49.987,179.352 49.827,180.142 49.82,180.477C49.806,181.149 49.464,181.661 49.468,182.529C49.468,183.118 49.133,183.494 49.144,184.034C49.154,184.584 49.102,185.02 48.991,185.344C48.813,185.856 48.733,186.284 48.757,186.629C48.813,187.441 48.405,188.131 48.433,189.012C48.451,189.608 48.343,190.242 48.106,190.914C48.088,190.96 48.081,191.005 48.081,191.054L48.081,192.806C48.081,192.851 48.074,192.893 48.057,192.931C47.796,193.576 47.66,194.29 47.656,195.067C46.799,194.757 46.569,194.356 45.96,193.872C43.559,191.96 41.124,190.047 38.654,188.138C38.417,187.953 38.313,187.643 38.389,187.35L38.804,185.786C39.135,184.124 39.191,182.4 38.975,180.613C38.971,180.599 38.968,180.585 38.964,180.571L38.125,178.056C38.107,178 38.083,177.948 38.058,177.895L37.201,176.265C41.385,177.641 45.625,178.059 49.928,177.519Z" style="fill:white;fill-opacity:0.95;fill-rule:nonzero;"/>
    <path d="M96.377,227.306C96.353,227.003 96.182,226.742 95.865,226.515C95.768,226.446 95.639,226.432 95.527,226.477C94.935,226.721 94.221,226.641 93.472,226.798C90.744,227.372 88.103,227.867 85.557,228.285C84.567,228.449 83.571,228.473 82.571,228.362C82.428,228.348 82.299,228.446 82.278,228.588C82.212,229.031 82.164,229.484 82.139,229.947C82.049,231.685 81.972,234.577 81.906,238.625C81.892,239.44 81.853,240.043 81.791,240.437C81.491,242.325 81.672,244.046 81.383,245.656C81.146,246.972 81.303,248.077 81.08,249.348C80.777,251.083 80.913,252.794 80.62,254.616C80.603,254.734 80.512,254.832 80.394,254.86C70.158,257.222 63.097,258.758 54.234,259.72C54.175,259.727 54.136,259.661 54.171,259.612C55.774,257.424 56.982,254.888 57.798,252C59.522,245.879 60.289,239.28 60.306,232.765C60.316,229.296 60.303,227.871 60.599,224.958C61.1,220.07 61.665,214.085 62.107,208.441C62.323,205.693 62.675,202.557 63.159,199.042C63.215,198.652 63.396,198.286 63.675,198.007C67.406,194.28 69.374,192.308 69.587,192.092C70.326,191.332 70.855,190.562 71.496,189.827C71.58,189.73 71.653,189.622 71.712,189.507C72.663,187.671 72.761,185.612 72.008,183.337C72.409,183.375 72.768,183.396 73.088,183.396C74.165,183.393 75.178,183.658 76.182,183.602C76.551,183.581 76.868,183.633 77.136,183.762C77.561,183.968 77.966,183.901 78.384,184.03C81.286,184.919 83.595,186.337 85.32,188.288C87.894,191.204 90.218,194.544 92.291,198.307C94.89,203.028 97.057,207.344 98.792,211.26C98.813,211.312 98.823,211.35 98.82,211.375C98.806,211.486 98.865,211.591 98.966,211.64C99.116,211.713 99.182,211.831 99.172,211.995C99.161,212.138 99.22,212.274 99.332,212.361C99.363,212.385 99.408,212.416 99.468,212.455C99.523,212.493 99.544,212.552 99.53,212.639C99.499,212.855 99.558,213.005 99.708,213.085C99.851,213.162 99.907,213.273 99.868,213.423C99.833,213.552 99.893,213.667 100.042,213.761C100.21,213.866 100.269,213.991 100.224,214.141C100.185,214.266 100.224,214.36 100.339,214.423C100.408,214.461 100.467,214.542 100.52,214.671C100.579,214.813 100.757,215.204 101.06,215.841C102.101,218.036 103.188,220.189 104.328,222.3C104.376,222.391 104.401,222.488 104.401,222.589C104.411,223.213 104.415,223.533 104.411,223.544C104.303,223.958 103.941,224.349 103.331,224.714C102.579,225.164 101.993,225.418 101.579,225.481C101.509,225.491 101.45,225.53 101.408,225.582C101.398,225.599 101.38,225.624 101.363,225.658C101.359,225.669 101.352,225.676 101.342,225.679L96.377,227.306Z" style="fill:white;fill-opacity:0.5;fill-rule:nonzero;"/>
    <path d="M38.804,185.786L38.389,187.35C38.313,187.643 38.417,187.953 38.654,188.138C41.124,190.047 43.559,191.96 45.96,193.872C46.569,194.356 46.799,194.757 47.656,195.067C46.632,199.822 45.852,203.348 45.315,205.647C44.702,208.267 43.824,211.622 42.939,214.569C41.476,219.443 40.285,223.934 39.361,228.041C39.278,228.407 39.111,228.745 38.874,229.038C38.034,230.059 37.066,231.208 35.961,232.487C32.024,237.054 27.38,240.768 22.022,243.928C21.179,244.426 20.824,245.123 20.96,246.018C20.977,246.154 21.029,246.283 21.106,246.398C21.765,247.377 22.691,248.404 23.879,249.481C26.22,251.595 28.276,253.32 30.046,254.647C30.119,254.703 30.087,254.821 29.997,254.832C28.589,255.01 27.053,254.278 26.283,256.034C25.9,256.908 25.639,257.626 25.499,258.194C24.9,260.639 24.548,262.576 24.44,264.005C24.332,265.433 24.217,267.227 25.656,268.732C26.217,269.321 26.858,270.088 27.576,271.032C27.976,271.561 28.568,271.958 29.352,272.223C30.641,272.659 31.697,272.899 32.519,272.941C34.226,273.028 34.481,271.732 35.055,270.384C35.122,270.227 35.306,270.161 35.456,270.241C38.041,271.582 40.657,272.829 43.305,273.986C45.918,275.125 48.189,274.853 50.123,273.167C50.213,273.087 50.325,273.038 50.447,273.021C51.151,272.92 51.736,272.902 52.206,272.965C55.627,273.429 58.815,273.801 61.766,274.084C62.031,274.108 62.522,274.171 63.236,274.268C64.274,274.414 65.152,274.317 66.284,274.498C66.755,274.575 67.981,274.641 69.97,274.7C74.618,274.836 78.593,274.759 81.892,274.47C81.408,277.383 81.233,279.497 81.369,280.814C81.582,282.845 81.651,284.908 81.582,286.998C81.575,287.211 81.446,287.817 81.192,288.817C80.658,290.921 76.551,291.764 74.154,292.325C70.395,293.206 67.455,293.764 65.34,294.004C63.563,294.206 62.118,294.314 61.003,294.331C59.898,294.345 58.446,294.405 56.645,294.506C51.9,294.774 47.524,294.83 43.075,294.185C36.564,293.241 30.384,291.091 24.534,287.733C23.938,287.392 23.573,287.001 23.437,286.566C23.238,285.935 23.095,285.218 23.008,284.417C22.973,284.082 22.984,283.744 23.04,283.413C23.444,280.957 23.956,278.804 24.033,276.714C24.165,273.223 24.158,269.683 23.162,266.294C22.008,262.371 20.218,258.145 18.556,253.435C17.964,251.752 17.135,249.641 16.072,247.101C15.877,246.638 15.511,246.544 14.975,246.812C14.874,246.864 14.755,246.878 14.644,246.854L13.762,246.662C13.672,246.641 13.599,246.582 13.56,246.499C13.288,245.917 13.142,245.534 13.118,245.356C13.065,245.001 12.975,244.607 12.839,244.171C10.763,237.469 9.209,232.104 8.181,228.076C7.293,224.606 6.523,220.555 5.864,215.921C5.69,214.695 5.805,213.458 5.641,212.27C5.422,210.664 5.37,209.372 5.492,208.393C5.544,207.957 5.659,206.87 5.837,205.139C6.091,202.62 6.788,200.143 7.92,197.701C8.955,195.468 10.247,193.799 11.804,192.688C12.923,191.893 14.494,191.144 16.518,190.437C21.622,188.664 26.962,187.354 32.537,186.514C33.411,186.382 34.233,186.427 34.919,186.263C35.815,186.054 36.794,185.981 37.856,186.047C38.048,186.058 38.236,186.023 38.41,185.95L38.804,185.786Z" style="fill:white;fill-opacity:0.5;fill-rule:nonzero;"/>
    <path d="M208.142,221.419C208.319,221.596 208.434,221.729 208.48,221.816C211.047,226.582 213.953,230.647 217.193,234.013C218.158,235.016 219.642,236.228 221.649,237.653C219.318,239.266 216.952,240.729 214.545,242.05C211.922,243.489 209.563,244.436 206.306,244.764C204.728,244.92 203.606,245.032 202.937,245.095C200.345,245.328 198.558,245.419 197.575,245.363C194.966,245.213 192.12,244.865 189.037,244.311C185.72,243.715 182.375,242.834 179.003,241.674C177.104,241.019 175.3,239.984 173.063,238.96C171.123,238.071 169.454,236.932 167.416,235.817C167.217,235.709 167.033,235.584 166.859,235.441C165.364,234.218 163.633,233.365 161.661,232.88C161.487,232.839 161.302,232.818 161.121,232.818C157.71,232.842 155.606,232.825 154.812,232.765C145.579,232.09 137.525,225.523 134.006,217.172C133.978,217.106 133.961,217.039 133.954,216.966C133.916,216.573 133.818,216.144 133.665,215.674C133.358,214.73 133.344,213.646 133.619,212.416C134.097,210.302 135.438,209.386 137.647,209.675C138.375,209.772 138.967,210.267 139.441,210.486C141.841,211.608 144.113,212.685 146.259,213.719C146.349,213.765 146.443,213.796 146.541,213.82C147.778,214.141 149.196,214.294 150.788,214.277C151.3,214.27 151.655,214.148 151.857,213.915C151.927,213.834 151.948,213.719 151.906,213.618C151.516,212.639 150.917,211.685 150.105,210.755C149.255,209.786 148.332,208.63 148.056,207.431C147.997,207.166 148.14,206.902 148.394,206.808C149.203,206.511 150.917,207.351 151.714,207.877C153.801,209.253 155.595,210.8 157.09,212.518C158.362,213.977 159.929,215.925 161.271,217.872C162.19,219.21 163.134,220.527 164.103,221.823C164.169,221.913 164.256,221.983 164.357,222.032C165.057,222.37 165.765,222.617 166.479,222.774C168.151,223.147 169.869,223.516 171.631,223.889C172.75,224.126 173.492,224.265 173.861,224.307C174.467,224.376 175.035,224.498 175.561,224.676C175.885,224.788 176.223,224.854 176.568,224.871C178.86,224.997 181.194,225.568 183.543,225.749C188.796,226.157 192.743,226.425 197.589,226.171C198.387,226.125 200.056,226.094 202.596,226.07C203.031,226.066 203.46,225.895 203.888,225.557C204.961,224.718 206.302,223.467 207.908,221.812C208.009,221.711 208.086,221.579 208.142,221.419Z" style="fill:white;fill-opacity:0.75;fill-rule:nonzero;"/>
    <path d="M292.405,245.102C292.436,246.349 292.387,247.61 292.262,248.885C292.203,249.484 292.196,249.982 292.245,250.376C292.335,251.104 292.004,251.679 291.928,252.344C291.84,253.121 291.76,253.672 291.684,253.992C291.496,254.79 291.684,255.651 291.426,256.337C291.321,256.612 291.248,256.922 291.206,257.26C290.921,259.518 290.402,262.043 289.649,264.841C289.541,265.249 289.458,265.681 289.405,266.144C289.395,266.245 289.374,266.346 289.343,266.44C288.667,268.523 288.228,269.945 288.029,270.704C287.705,271.927 287.291,273.045 286.785,274.052C286.754,274.111 286.479,274.857 285.956,276.292C285.712,276.961 285.395,277.689 285.005,278.48C283.998,280.511 282.762,282.776 281.288,285.274C279.703,287.967 278.187,290.039 276.749,291.499C274.195,294.091 271.401,296.275 268.367,298.052C266.391,299.209 264.304,299.853 262.103,299.986C260.629,300.073 259.866,299.763 259.821,299.052C262.998,292.137 265.283,284.866 266.68,277.233C266.83,276.404 266.945,275.822 267.025,275.491C267.147,274.972 267.307,274.404 267.513,273.791C268.217,271.69 268.805,269.436 269.279,267.022C270,263.346 270.732,259.378 271.467,255.121C271.979,252.149 272.251,249.557 272.286,247.352C272.289,247.227 272.404,247.133 272.526,247.157C273.003,247.258 273.369,247.373 273.627,247.505C273.854,247.624 274.097,247.708 274.348,247.756C278.243,248.495 281.825,248.575 285.092,248C286.057,247.829 287.364,247.401 289.005,246.715C289.099,246.676 289.196,246.648 289.297,246.631C290.356,246.45 291.231,245.945 291.921,245.116C291.976,245.049 292.137,245.046 292.405,245.102Z" style="fill:white;fill-opacity:0.75;fill-rule:nonzero;"/>
    <path d="M73.621,136.616C72.364,136.271 71.169,135.755 70.033,135.076C69.583,134.807 69.458,134.219 69.761,133.811C69.904,133.62 70.847,132.954 72.398,133.177C78.356,134.689 80.302,137.191 73.621,136.616Z" style="fill:white;fill-opacity:0.15;fill-rule:nonzero;"/>
</svg>
