<?xml version="1.0" encoding="UTF-8" standalone="no"?>
<!DOCTYPE svg PUBLIC "-//W3C//DTD SVG 1.1//EN" "http://www.w3.org/Graphics/SVG/1.1/DTD/svg11.dtd">
<svg width="100%" height="100%" viewBox="0 0 300 300" version="1.1" xmlns="http://www.w3.org/2000/svg" xmlns:xlink="http://www.w3.org/1999/xlink" xml:space="preserve" xmlns:serif="http://www.serif.com/" style="fill-rule:evenodd;clip-rule:evenodd;stroke-linejoin:round;stroke-miterlimit:2;">
    <path d="M233.04,201.988L188.508,143.484C192.767,137.296 196,132.745 198.474,128.84C197.842,129.962 197.391,130.639 197.247,130.762C211,129.217 220.744,156.308 230.124,175.868C234.384,184.748 239.251,191.008 239.725,192.837C241.241,198.692 233.04,201.988 233.04,201.988Z" style="fill:white;fill-opacity:0.95;"/>
    <path d="M126.621,144.743C116.687,161.282 103.92,178.103 90.209,198.741C87.232,203.221 81.521,203.24 70.136,210.882C61.483,216.69 59.399,221.596 60.372,223.016C49.677,226.141 52.304,211.01 53.75,159.265C55.039,113.131 97.211,117.076 106.69,121.051C107.296,121.305 107.769,121.559 108.088,121.801C108.245,122.046 108.402,122.295 108.559,122.546C108.559,122.546 113.312,125.418 120.94,128.899C122.112,135.08 124.092,140.333 126.621,144.743Z" style="fill:white;fill-opacity:0.95;"/>
    <path d="M120.94,128.899C123.465,130.051 126.305,131.27 129.393,132.473C130.875,134.356 131.836,135.565 131.468,136.249C129.942,139.084 128.323,141.909 126.621,144.743C124.092,140.333 122.112,135.08 120.94,128.899Z" style="fill:white;fill-opacity:0.8;"/>
    <path d="M145.694,161.527C146.661,156.856 147.561,152.269 148.395,147.817C148.88,145.224 150.333,142.238 152,139.191C156.267,140.035 160.658,140.641 165.08,140.896C169.067,150.466 171.891,162.677 160.974,163.794C156.312,164.271 150.962,163.599 145.694,161.527Z" style="fill:white;fill-opacity:0.8;"/>
    <path d="M111.867,297.418C94.75,292.012 87.463,280.002 87.463,280.002C93.227,279.514 98.628,276.422 103.666,271.361C104.558,281.114 107.862,289.957 111.867,297.418Z" style="fill:white;fill-opacity:0.35;"/>
    <path d="M103.666,271.361C123.033,251.905 137.039,203.334 145.694,161.527C150.962,163.599 156.312,164.271 160.974,163.794C171.891,162.677 169.067,150.466 165.08,140.896C167.254,141.021 169.435,141.062 171.613,141.004C171.613,141.004 180.421,193.32 189.788,212.21C188.17,219.458 184.604,226.31 186.229,246.688C189.839,291.951 184.224,295.142 135.909,299.685C126.368,300.582 118.401,299.481 111.867,297.418C107.862,289.957 104.558,281.114 103.666,271.361Z" style="fill:white;fill-opacity:0.95;"/>
    <path d="M70.094,0.018C70.073,0.014 70.068,0.01 70.078,0.006C70.104,-0.005 70.109,-0.001 70.094,0.018Z" style="fill:white;"/>
    <path d="M194.338,95.901C193.897,123.127 187.78,141.144 171.613,141.004C165.006,141.18 158.365,140.45 152,139.191C155.047,133.625 158.809,127.856 158.692,123.917C158.491,117.133 156.619,112.984 154.805,109.717C162.459,108.239 162.053,101.972 170.737,102.452C181.763,103.063 186.89,107.083 194.338,95.901ZM175.891,116.8C168.276,117.501 167.514,108.236 162.654,111.345C159.431,113.406 164.423,123.698 171.904,125.284C185.133,128.088 189.655,120.666 188.831,118.465C187.897,115.972 184.701,115.989 175.891,116.8Z" style="fill:white;fill-opacity:0.3;"/>
    <path d="M187.373,46.91C187.373,46.91 172.914,49.492 161.935,48.697C150.463,47.866 144.357,47.424 141.031,54.717C137.705,62.01 135.253,67.02 135.253,67.02L137.266,77.067C136.008,77.286 134.641,77.659 133.155,78.198C132.123,78.572 130.492,79.793 128.734,81.811C128.248,79.887 127.669,77.585 126.861,74C104.245,81.632 111.265,100.114 120.423,103.1C120.124,107.021 120.324,111.37 121.249,116.123C122.793,124.05 126.856,129.25 129.393,132.473C116.981,127.635 108.559,122.546 108.559,122.546C108.402,122.295 108.245,122.046 108.088,121.801C93.757,99.432 77.729,102.788 89.024,50.345C102.562,-12.51 164.882,11.456 190.284,12.481C206.12,13.119 211.055,12.381 211.055,12.381C219.169,39.793 191.388,47.081 187.721,46.972C187.551,46.967 187.433,46.946 187.373,46.91Z" style="fill:white;fill-opacity:0.3;"/>
    <path d="M193.454,71.35C193.614,73.507 193.67,75.109 193.812,76.024C194.246,83.055 194.438,89.715 194.338,95.901C188.203,105.111 183.643,104.008 176.065,102.991C176.255,101.557 176.761,100.101 177.93,99.267C180.396,97.504 185.598,100.558 186.96,95.609C189.915,84.868 178.546,58.191 174.18,48.531C181.38,47.981 187.373,46.91 187.373,46.91C190.594,54.005 192.082,60.437 192.824,65.508C190.519,64.712 188.448,64.82 188.025,65.825C187.557,66.934 188.747,68.751 191.148,70.197C191.717,70.539 192.529,70.943 193.454,71.35ZM191.148,78.396C190.251,78.396 189.523,80.092 189.523,82.182C189.523,84.271 190.251,85.968 191.148,85.968C192.045,85.968 192.774,84.271 192.774,82.182C192.774,80.092 192.045,78.396 191.148,78.396Z" style="fill:white;fill-opacity:0.8;"/>
    <path d="M174.18,48.531C178.546,58.191 189.915,84.868 186.96,95.609C185.598,100.558 180.396,97.504 177.93,99.267C176.761,100.101 176.255,101.557 176.065,102.991C174.442,102.774 172.681,102.56 170.737,102.452C162.053,101.972 162.459,108.239 154.805,109.717C153.03,106.518 151.309,104.166 151.265,101.016C151.047,85.537 148.528,75.106 137.266,77.067L135.253,67.02C135.253,67.02 137.705,62.01 141.031,54.717C144.357,47.424 150.463,47.866 161.935,48.697C165.845,48.98 170.197,48.835 174.18,48.531ZM175.135,76.807C174.05,76.807 173.169,78.859 173.169,81.387C173.169,83.915 174.05,85.968 175.135,85.968C176.22,85.968 177.101,83.915 177.101,81.387C177.101,78.859 176.22,76.807 175.135,76.807ZM170.735,65.191C166.043,66.079 162.447,67.929 162.71,69.318C162.973,70.707 166.996,71.113 171.688,70.225C176.38,69.336 179.976,67.487 179.713,66.098C179.45,64.708 175.427,64.302 170.735,65.191Z" style="fill:white;fill-opacity:0.95;"/>
    <ellipse cx="175.135" cy="81.387" rx="1.966" ry="4.58" style="fill:white;fill-opacity:0.15;"/>
    <path d="M170.735,65.191C175.427,64.302 179.45,64.708 179.713,66.098C179.976,67.487 176.38,69.336 171.688,70.225C166.996,71.113 162.973,70.707 162.71,69.318C162.447,67.929 166.043,66.079 170.735,65.191Z" style="fill:white;fill-opacity:0.3;"/>
    <path d="M128.734,81.811C125.216,85.849 121.188,93.077 120.423,103.1C111.265,100.114 104.245,81.632 126.861,74C127.669,77.585 128.248,79.887 128.734,81.811Z" style="fill:white;fill-opacity:0.95;"/>
    <path d="M206.122,107.124C206.489,104.813 206.703,102.449 206.699,100.089C206.541,102.701 206.355,105.021 206.122,107.124Z" style="fill:white;fill-opacity:0.14;"/>
    <path d="M193.812,76.024C200.967,80.638 207.355,89.285 206.699,100.089C206.541,102.701 206.355,105.021 206.122,107.124C205.088,116.452 203.124,121.502 198.474,128.84C196,132.745 192.767,137.296 188.508,143.484L233.04,201.988C233.04,201.988 253.617,233.771 245.888,245.817C222.042,282.987 192.691,218.778 189.989,212.67L189.788,212.21C180.421,193.32 171.613,141.004 171.613,141.004C191.453,141.175 196.157,114.004 193.812,76.024Z" style="fill:white;fill-opacity:0.75;"/>
    <path d="M60.372,223.016C60.372,223.016 73.143,283.277 87.463,280.002C117.858,277.426 138.162,202.483 148.395,147.817C149.767,140.486 158.873,130.012 158.692,123.917C158.293,110.491 151.354,107.383 151.265,101.016C151.022,83.808 147.936,72.838 133.155,78.198C129.25,79.614 116.776,93.148 121.249,116.123C123.695,128.684 132.466,134.395 131.468,136.249C121.034,155.63 106.269,174.567 90.209,198.741C87.232,203.221 81.521,203.24 70.136,210.882C61.483,216.69 59.399,221.596 60.372,223.016Z" style="fill:white;fill-opacity:0.75;"/>
    <path d="M175.891,116.8C184.701,115.989 187.897,115.972 188.831,118.465C189.655,120.666 185.133,128.088 171.904,125.284C164.423,123.698 159.431,113.406 162.654,111.345C167.514,108.236 168.276,117.501 175.891,116.8Z" style="fill:white;fill-opacity:0.8;"/>
    <ellipse cx="191.148" cy="82.182" rx="1.625" ry="3.786" style="fill:white;fill-opacity:0.15;"/>
    <path d="M201.598,73.371C201.19,74.503 193.7,71.734 191.148,70.197C188.747,68.751 187.557,66.934 188.025,65.825C188.492,64.716 190.968,64.699 193.552,65.787C196.135,66.876 202.211,71.677 201.598,73.371Z" style="fill:white;fill-opacity:0.3;"/>
</svg>
