<?xml version="1.0" encoding="UTF-8" standalone="no"?>
<!DOCTYPE svg PUBLIC "-//W3C//DTD SVG 1.1//EN" "http://www.w3.org/Graphics/SVG/1.1/DTD/svg11.dtd">
<svg width="100%" height="100%" viewBox="0 0 300 300" version="1.1" xmlns="http://www.w3.org/2000/svg" xmlns:xlink="http://www.w3.org/1999/xlink" xml:space="preserve" xmlns:serif="http://www.serif.com/" style="fill-rule:evenodd;clip-rule:evenodd;stroke-linejoin:round;stroke-miterlimit:2;">
    <path d="M114.453,133.509C114.426,127.319 114.429,121.177 114.463,115.08C114.466,114.401 114.3,113.756 114.999,113.403C115.121,113.342 115.332,113.186 115.634,112.938C124.066,105.945 130.286,97.333 134.3,87.105C134.694,86.097 135.454,84.139 135.854,82.704C136.713,79.603 137.415,76.521 137.962,73.464C138.169,72.29 138.148,71.34 138.328,70.23C138.416,69.684 138.488,68.873 138.542,67.79C138.749,63.627 138.617,59.741 138.141,56.128C137.653,52.409 136.964,49.063 136.072,46.09C132.251,33.335 125.135,22.778 114.728,14.427C107.758,8.838 99.536,4.766 90.764,2.622C88.697,2.116 86.268,1.644 83.475,1.203C82.332,1.024 81.12,0.823 79.844,0.61C82.209,0.09 84.378,-0.096 86.353,0.046C93.635,0.572 100.679,2.36 107.483,5.411C117.537,9.914 125.831,16.483 132.366,25.123C133.53,26.663 134.772,28.513 136.092,30.668C137.283,32.619 138.332,34.583 139.241,36.562C144.029,46.979 145.885,57.94 144.809,69.44C144.372,74.105 143.425,78.618 141.966,82.979C137.958,94.967 131.039,104.91 121.212,112.806C121.029,112.955 120.92,113.176 120.92,113.414L120.92,132.362C120.92,132.569 120.768,132.745 120.561,132.769L114.453,133.509Z" style="fill:white;fill-opacity:0.25;fill-rule:nonzero;"/>
    <path d="M79.844,0.61C81.12,0.823 82.332,1.024 83.475,1.203C86.268,1.644 88.697,2.116 90.764,2.622C99.536,4.766 107.758,8.838 114.728,14.427C125.135,22.778 132.251,33.335 136.072,46.09C136.964,49.063 137.653,52.409 138.141,56.128C138.617,59.741 138.749,63.627 138.542,67.79C138.488,68.873 138.416,69.684 138.328,70.23C138.148,71.34 138.169,72.29 137.962,73.464C137.415,76.521 136.713,79.603 135.854,82.704C135.454,84.139 134.694,86.097 134.3,87.105C130.286,97.333 124.066,105.945 115.634,112.938C115.332,113.186 115.121,113.342 114.999,113.403C114.3,113.756 114.466,114.401 114.463,115.08C114.429,121.177 114.426,127.319 114.453,133.509L95.881,124.279C95.654,124.167 95.392,124.147 95.155,124.228C87.978,126.62 80.547,127.669 72.864,127.37C70.788,127.289 69.739,127.248 69.715,127.248C69.488,127.245 69.261,127.214 69.043,127.16C68.253,126.973 67.462,126.882 66.671,126.892C66.495,126.895 66.322,126.878 66.149,126.844C63.563,126.332 60.696,125.691 57.547,124.917C56.464,124.652 55.609,124.377 54.975,124.096C53.885,123.61 52.918,123.461 51.571,122.891C38.385,117.336 28.218,108.7 21.075,96.98C14.129,85.582 11.106,72.867 12.005,58.829C12.046,58.184 12.134,57.509 12.273,56.803C12.453,55.876 12.378,55.018 12.575,54.085C13.074,51.733 13.62,49.324 14.207,46.85C14.435,45.897 14.71,44.994 15.029,44.139C15.337,43.311 15.667,42.425 16.016,41.485C18.398,35.048 21.89,29.052 26.495,23.497C36.535,11.37 50.709,3.538 66.356,1.268C70.798,0.62 75.294,0.403 79.844,0.61ZM88.151,83.128C88.199,83.118 88.256,83.118 88.328,83.132C88.392,83.142 88.446,83.166 88.49,83.199C89.587,84.065 90.744,84.635 91.965,84.916C92.881,85.127 93.764,84.883 94.609,84.18C94.761,84.051 94.955,83.973 95.158,83.96C95.929,83.915 96.431,83.926 96.658,83.997C97.724,84.319 98.881,84.635 100.13,84.94C101.945,85.575 103.869,86.094 105.895,86.498C106.974,86.715 107.907,86.691 108.962,86.837C109.254,86.874 109.546,86.881 109.838,86.854C111.185,86.722 111.979,86.623 112.223,86.566C115.074,85.89 117.408,83.922 118.05,81.028C118.369,79.579 118.09,77.923 117.293,76.756C116.35,75.374 115.013,74.465 113.282,74.031L109.94,73.352C109.838,73.332 109.756,73.26 109.722,73.165C109.319,72.056 108.752,71.163 108.022,70.488C105.783,68.323 103.367,67.818 100.411,68.052C100.364,68.055 100.316,68.042 100.279,68.011C100.174,67.926 100.14,67.814 100.184,67.668C101.931,62.212 102.104,56.806 100.7,51.448C98.837,44.339 94.809,38.72 88.609,34.583C84.106,31.58 79.247,29.982 74.035,29.789C69.878,29.636 66.081,30.209 62.644,31.512C56.933,33.681 52.389,37.142 49.013,41.899C43.868,49.151 42.362,58.167 44.798,66.711C46.844,73.888 51.178,79.511 57.795,83.58C59.454,84.601 61.184,85.415 62.98,86.023C71.439,88.873 80.55,87.987 88.151,83.128Z" style="fill:white;fill-opacity:0.95;fill-rule:nonzero;"/>
    <path d="M100.184,67.668L99.868,68.072C99.804,68.15 99.719,68.208 99.621,68.235C97.9,68.713 96.282,69.487 94.765,70.559C92.99,71.818 91.636,72.796 90.703,73.491C90.476,73.661 90.221,73.797 89.953,73.888C88.341,74.445 86.699,74.546 85.029,74.19C85.213,72.154 83.994,70.695 82.457,69.687C80.72,68.547 78.765,67.807 76.594,67.468C73.896,67.051 71.276,67.102 68.738,67.624C65.765,68.235 61.011,70.159 61.089,73.878C61.12,75.313 61.704,75.921 62.847,75.697C68.317,75.371 73.957,75.296 79.77,75.476L88.151,83.128C80.55,87.987 71.439,88.873 62.98,86.023C61.184,85.415 59.454,84.601 57.795,83.58C51.178,79.511 46.844,73.888 44.798,66.711C42.362,58.167 43.868,49.151 49.013,41.899C52.389,37.142 56.933,33.681 62.644,31.512C66.081,30.209 69.878,29.636 74.035,29.789C79.247,29.982 84.106,31.58 88.609,34.583C94.809,38.72 98.837,44.339 100.7,51.448C102.104,56.806 101.931,62.212 100.184,67.668ZM57.387,50.06C58.931,50.179 60.214,50.172 61.232,50.04C63.38,49.765 65.46,49.198 67.472,48.34C68.422,47.936 69.98,46.691 69.396,45.53C68.955,44.648 67.852,44.41 66.987,44.658C64.669,45.32 63.068,45.758 62.185,45.975C60.672,46.348 59.406,46.334 57.764,46.46C57.028,46.514 55.85,47.431 55.935,48.411C55.993,49.073 56.559,49.517 57.031,49.914C57.133,49.999 57.258,50.05 57.387,50.06ZM83.024,49.68C84.12,49.904 84.751,50.026 84.917,50.043C86.159,50.159 88.501,50.393 89.542,49.66C91.008,48.628 90.089,46.664 88.538,46.531C86.702,46.372 85.124,46.158 83.808,45.887C82.488,45.615 80.954,45.188 79.206,44.607C77.73,44.115 76.108,45.557 77.045,47.084C77.713,48.17 79.956,48.879 81.144,49.263C81.303,49.317 81.931,49.456 83.024,49.68ZM60.984,54.353C60.947,56.056 61.198,57.733 61.734,59.378C62.233,60.912 63.852,63.192 65.538,61.228C66.414,60.206 66.919,58.917 67.058,57.359C67.17,56.067 67.53,54.974 67.136,53.701C67.106,53.603 67.167,53.498 67.269,53.474C67.89,53.338 68.402,53.094 68.806,52.744C69.108,52.487 69.22,52.093 69.081,51.777C68.887,51.34 68.578,51.156 68.151,51.231C65.84,51.635 63.302,51.828 60.536,51.815C59.227,51.808 58.416,53.331 59.976,53.881C60.248,53.976 60.506,54.041 60.747,54.075C60.886,54.095 60.988,54.214 60.984,54.353ZM84.714,54.071C85.501,54.122 86.818,53.898 86.926,52.996C87.035,52.11 85.881,51.781 85.246,51.794C82.858,51.838 80.438,51.652 77.985,51.228C77.615,51.163 77.323,51.292 77.103,51.608C76.692,52.191 76.963,52.711 77.924,53.162C78.154,53.27 78.287,53.511 78.26,53.762C78.012,55.961 78.324,58.055 79.196,60.04C79.926,61.696 81.653,62.958 83,60.858C84.337,58.774 84.425,56.786 84.449,54.316C84.452,54.173 84.571,54.061 84.714,54.071Z" style="fill:white;fill-opacity:0.5;fill-rule:nonzero;"/>
    <path d="M64.112,75.626C63.689,75.648 63.268,75.672 62.847,75.697C61.704,75.921 61.12,75.313 61.089,73.878C61.011,70.159 65.765,68.235 68.738,67.624C71.276,67.102 73.896,67.051 76.594,67.468C78.765,67.807 80.72,68.547 82.457,69.687C83.994,70.695 85.213,72.154 85.029,74.19L81.1,73.308L80.797,73.335C79.168,71.566 76.33,70.394 73.105,70.394C68.631,70.394 64.903,72.65 64.112,75.626Z" style="fill:white;fill-opacity:0.15;"/>
    <path d="M57.031,49.914C56.559,49.517 55.993,49.073 55.935,48.411C55.85,47.431 57.028,46.514 57.764,46.46C59.406,46.334 60.672,46.348 62.185,45.975C63.068,45.758 64.669,45.32 66.987,44.658C67.852,44.41 68.955,44.648 69.396,45.53C69.98,46.691 68.422,47.936 67.472,48.34C65.46,49.198 63.38,49.765 61.232,50.04C60.214,50.172 58.931,50.179 57.387,50.06C57.258,50.05 57.133,49.999 57.031,49.914Z" style="fill:white;fill-opacity:0.15;"/>
    <path d="M83.808,45.887C85.124,46.158 86.702,46.372 88.538,46.531C90.089,46.664 91.008,48.628 89.542,49.66C88.501,50.393 86.159,50.159 84.917,50.043C84.751,50.026 84.12,49.904 83.024,49.68C81.931,49.456 81.303,49.317 81.144,49.263C79.956,48.879 77.713,48.17 77.045,47.084C76.108,45.557 77.73,44.115 79.206,44.607C80.954,45.188 82.488,45.615 83.808,45.887Z" style="fill:white;fill-opacity:0.15;"/>
    <path d="M60.747,54.075C60.506,54.041 60.248,53.976 59.976,53.881C58.416,53.331 59.227,51.808 60.536,51.815C63.302,51.828 65.84,51.635 68.151,51.231C68.578,51.156 68.887,51.34 69.081,51.777C69.22,52.093 69.108,52.487 68.806,52.744C68.402,53.094 67.89,53.338 67.269,53.474C67.167,53.498 67.106,53.603 67.136,53.701C67.53,54.974 67.17,56.067 67.058,57.359C66.919,58.917 66.414,60.206 65.538,61.228C63.852,63.192 62.233,60.912 61.734,59.378C61.198,57.733 60.947,56.056 60.984,54.353C60.988,54.214 60.886,54.095 60.747,54.075Z" style="fill:white;fill-opacity:0.15;"/>
    <path d="M84.449,54.316C84.425,56.786 84.337,58.774 83,60.858C81.653,62.958 79.926,61.696 79.196,60.04C78.324,58.055 78.012,55.961 78.26,53.762C78.287,53.511 78.154,53.27 77.924,53.162C76.963,52.711 76.692,52.191 77.103,51.608C77.323,51.292 77.615,51.163 77.985,51.228C80.438,51.652 82.858,51.838 85.246,51.794C85.881,51.781 87.035,52.11 86.926,52.996C86.818,53.898 85.501,54.122 84.714,54.071C84.571,54.061 84.452,54.173 84.449,54.316Z" style="fill:white;fill-opacity:0.15;"/>
    <path d="M260.012,52.249C256.714,52.225 254.339,52.313 252.883,52.517C252.025,52.636 250.267,53.029 247.603,53.701C245.642,54.197 243.928,54.757 242.459,55.378C235.004,58.544 228.998,63.369 224.434,69.85C215.373,82.721 214.461,99.796 221.946,113.58C224.579,118.425 228.098,122.633 232.506,126.2C232.622,126.295 232.689,126.437 232.689,126.586L232.683,139.152L228.712,138.673C228.57,138.656 228.465,138.538 228.465,138.399L228.465,125.999C228.465,125.894 228.417,125.796 228.339,125.731C222.16,120.624 217.8,114.594 215.258,107.638C207.355,85.999 218.163,62.544 239.605,54.377C244.468,52.524 249.456,51.706 254.57,51.927C256.402,52.005 258.217,52.113 260.012,52.249Z" style="fill:white;fill-opacity:0.25;fill-rule:nonzero;"/>
    <path d="M260.012,52.249C271.031,52.911 280.287,57.047 287.777,64.652C293.681,70.648 297.437,78.055 299.046,86.868C299.164,87.526 299.219,87.96 299.209,88.174C299.175,88.751 299.436,89.284 299.48,89.901C300.271,101.405 297.186,111.445 290.23,120.02C287.312,123.617 283.722,126.712 279.463,129.308C275.462,131.744 271.041,133.444 266.195,134.405C259.188,135.796 252.187,135.355 245.194,133.081C245.068,133.04 244.933,133.051 244.814,133.108L232.683,139.152L232.689,126.586C232.689,126.437 232.622,126.295 232.506,126.2C228.098,122.633 224.579,118.425 221.946,113.58C214.461,99.796 215.373,82.721 224.434,69.85C228.998,63.369 235.004,58.544 242.459,55.378C243.928,54.757 245.642,54.197 247.603,53.701C250.267,53.029 252.025,52.636 252.883,52.517C254.339,52.313 256.714,52.225 260.012,52.249ZM258.099,94.421C259.551,94.421 259.972,95.314 261.102,95.985C263.046,97.143 264.997,97.173 266.955,96.08C267.549,95.751 268.078,95.212 268.513,94.862C268.604,94.788 268.709,94.73 268.818,94.693C270.097,94.255 271.136,94.384 271.937,95.086C274.308,97.16 276.782,97.428 279.354,95.887C279.426,95.846 279.49,95.799 279.548,95.745C280.844,94.56 281.675,94.055 283.318,94.679C283.433,94.723 283.542,94.784 283.64,94.859C284.787,95.751 285.503,96.25 285.788,96.362C288.221,97.316 290.393,96.895 292.303,95.1C292.87,94.567 292.877,93.668 292.313,93.128L292.242,93.06C291.621,92.467 290.647,92.453 290.009,93.033C289.242,93.736 288.309,93.933 287.21,93.624C286.755,93.495 286.171,93.091 285.459,92.416C285.401,92.358 285.337,92.311 285.265,92.27C282.795,90.75 279.887,91.174 277.885,93.162C277.814,93.233 277.736,93.295 277.647,93.345C276.884,93.793 275.998,93.871 274.991,93.576C274.892,93.546 274.8,93.498 274.722,93.437C273.609,92.531 272.551,91.567 270.878,91.401C269.076,91.228 267.593,91.645 266.422,92.66C265.106,93.8 264.478,93.987 262.931,93.552C262.805,93.515 262.69,93.444 262.595,93.349C262.554,93.312 262.188,93.013 261.499,92.453C260.457,91.615 259.429,91.388 258.099,91.388C256.768,91.388 255.74,91.611 254.698,92.453C254.006,93.01 253.643,93.308 253.602,93.349C253.507,93.444 253.392,93.512 253.267,93.552C251.719,93.983 251.091,93.797 249.775,92.657C248.604,91.645 247.121,91.225 245.319,91.398C243.646,91.564 242.588,92.528 241.475,93.434C241.397,93.495 241.305,93.542 241.207,93.573C240.195,93.865 239.31,93.79 238.55,93.339C238.461,93.288 238.38,93.227 238.312,93.155C236.31,91.167 233.402,90.743 230.932,92.263C230.86,92.304 230.796,92.351 230.738,92.409C230.026,93.084 229.442,93.488 228.987,93.617C227.888,93.922 226.955,93.726 226.188,93.023C225.55,92.446 224.576,92.456 223.955,93.05L223.884,93.118C223.32,93.658 223.324,94.557 223.894,95.09C225.801,96.885 227.973,97.305 230.409,96.355C230.694,96.243 231.41,95.745 232.557,94.852C232.656,94.777 232.764,94.716 232.879,94.672C234.522,94.048 235.353,94.553 236.649,95.738C236.707,95.792 236.772,95.84 236.843,95.88C239.412,97.424 241.885,97.156 244.261,95.083C245.061,94.38 246.1,94.251 247.379,94.689C247.488,94.727 247.593,94.784 247.685,94.859C248.119,95.208 248.648,95.748 249.242,96.077C251.197,97.17 253.148,97.139 255.092,95.985C256.222,95.314 256.643,94.421 258.099,94.421Z" style="fill:white;fill-opacity:0.95;fill-rule:nonzero;"/>
    <path d="M100.184,67.668C100.14,67.814 100.174,67.926 100.279,68.011C100.316,68.042 100.364,68.055 100.411,68.052C103.367,67.818 105.783,68.323 108.022,70.488L102.315,73.145C102.098,73.247 102.111,73.556 102.335,73.64C103.109,73.929 103.978,74.061 104.938,74.038C107.5,73.963 109.268,73.858 111.331,74.024C111.976,74.078 112.627,74.082 113.282,74.031C115.013,74.465 116.35,75.374 117.293,76.756C118.09,77.923 118.369,79.579 118.05,81.028C117.408,83.922 115.074,85.89 112.223,86.566C111.979,86.623 111.185,86.722 109.838,86.854C109.546,86.881 109.254,86.874 108.962,86.837C107.907,86.691 106.974,86.715 105.895,86.498C103.869,86.094 101.945,85.575 100.13,84.94C97.863,82.718 95.654,81.208 93.506,80.417C93.054,80.251 92.271,80.227 91.151,80.339C89.315,80.522 87.805,79.677 86.499,78.792C83.896,77.027 81.286,75.273 78.667,73.525L81.1,73.308L85.029,74.19C86.699,74.546 88.341,74.445 89.953,73.888C90.221,73.797 90.476,73.661 90.703,73.491C91.636,72.796 92.99,71.818 94.765,70.559C96.282,69.487 97.9,68.713 99.621,68.235C99.719,68.208 99.804,68.15 99.868,68.072L100.184,67.668Z" style="fill:white;fill-opacity:0.75;fill-rule:nonzero;"/>
    <path d="M108.022,70.488C108.752,71.163 109.319,72.056 109.722,73.165C109.756,73.26 109.838,73.332 109.94,73.352L113.282,74.031C112.627,74.082 111.976,74.078 111.331,74.024C109.268,73.858 107.5,73.963 104.938,74.038C103.978,74.061 103.109,73.929 102.335,73.64C102.111,73.556 102.098,73.247 102.315,73.145L108.022,70.488Z" style="fill:white;fill-opacity:0.65;fill-rule:nonzero;"/>
    <path d="M78.667,73.525C81.286,75.273 83.896,77.027 86.499,78.792C87.805,79.677 89.315,80.522 91.151,80.339C92.271,80.227 93.054,80.251 93.506,80.417C95.654,81.208 97.863,82.718 100.13,84.94C98.881,84.635 97.724,84.319 96.658,83.997C96.431,83.926 95.929,83.915 95.158,83.96C94.955,83.973 94.761,84.051 94.609,84.18C93.764,84.883 92.881,85.127 91.965,84.916C90.744,84.635 89.587,84.065 88.49,83.199C88.446,83.166 88.392,83.142 88.328,83.132C88.256,83.118 88.199,83.118 88.151,83.128L79.77,75.476C79.227,74.811 78.602,74.404 78.667,73.525Z" style="fill:white;fill-opacity:0.65;fill-rule:nonzero;"/>
    <path d="M258.099,91.388C259.429,91.388 260.457,91.615 261.499,92.453C262.188,93.013 262.554,93.312 262.595,93.349C262.69,93.444 262.805,93.515 262.931,93.552C264.478,93.987 265.106,93.8 266.422,92.66C267.593,91.645 269.076,91.228 270.878,91.401C272.551,91.567 273.609,92.531 274.722,93.437C274.8,93.498 274.892,93.546 274.991,93.576C275.998,93.871 276.884,93.793 277.647,93.345C277.736,93.295 277.814,93.233 277.885,93.162C279.887,91.174 282.795,90.75 285.265,92.27C285.337,92.311 285.401,92.358 285.459,92.416C286.171,93.091 286.755,93.495 287.21,93.624C288.309,93.933 289.242,93.736 290.009,93.033C290.647,92.453 291.621,92.467 292.242,93.06L292.313,93.128C292.877,93.668 292.87,94.567 292.303,95.1C290.393,96.895 288.221,97.316 285.788,96.362C285.503,96.25 284.787,95.751 283.64,94.859C283.542,94.784 283.433,94.723 283.318,94.679C281.675,94.055 280.844,94.56 279.548,95.745C279.49,95.799 279.426,95.846 279.354,95.887C276.782,97.428 274.308,97.16 271.937,95.086C271.136,94.384 270.097,94.255 268.818,94.693C268.709,94.73 268.604,94.788 268.513,94.862C268.078,95.212 267.549,95.751 266.955,96.08C264.997,97.173 263.046,97.143 261.102,95.985C259.972,95.314 259.551,94.421 258.099,94.421C256.643,94.421 256.222,95.314 255.092,95.985C253.148,97.139 251.197,97.17 249.242,96.077C248.648,95.748 248.119,95.208 247.685,94.859C247.593,94.784 247.488,94.727 247.379,94.689C246.1,94.251 245.061,94.38 244.261,95.083C241.885,97.156 239.412,97.424 236.843,95.88C236.772,95.84 236.707,95.792 236.649,95.738C235.353,94.553 234.522,94.048 232.879,94.672C232.764,94.716 232.656,94.777 232.557,94.852C231.41,95.745 230.694,96.243 230.409,96.355C227.973,97.305 225.801,96.885 223.894,95.09C223.324,94.557 223.32,93.658 223.884,93.118L223.955,93.05C224.576,92.456 225.55,92.446 226.188,93.023C226.955,93.726 227.888,93.922 228.987,93.617C229.442,93.488 230.026,93.084 230.738,92.409C230.796,92.351 230.86,92.304 230.932,92.263C233.402,90.743 236.31,91.167 238.312,93.155C238.38,93.227 238.461,93.288 238.55,93.339C239.31,93.79 240.195,93.865 241.207,93.573C241.305,93.542 241.397,93.495 241.475,93.434C242.588,92.528 243.646,91.564 245.319,91.398C247.121,91.225 248.604,91.645 249.775,92.657C251.091,93.797 251.719,93.983 253.267,93.552C253.392,93.512 253.507,93.444 253.602,93.349C253.643,93.308 254.006,93.01 254.698,92.453C255.74,91.611 256.768,91.388 258.099,91.388Z" style="fill:white;fill-opacity:0.15;fill-rule:nonzero;"/>
    <path d="M237.684,193.211C237.209,193.822 231.264,199.75 231.285,200.001C231.271,199.916 231.237,199.875 231.183,199.879C231.173,199.879 231.166,199.882 231.159,199.885C228.862,201.192 226.398,202.098 223.775,202.603C223.616,202.634 223.246,202.627 222.666,202.58C222.564,202.57 222.459,202.6 222.377,202.661L220.158,204.273C217.481,205.566 215.747,206.292 214.956,206.445C214.294,206.574 213.887,206.682 213.734,206.774C213.527,206.76 213.269,206.665 212.967,206.485C212.839,206.411 212.686,206.387 212.543,206.428C212.136,206.54 206.415,206.848 205.638,206.689C203.941,206.339 203.195,205.702 202.102,204.056C200.982,202.369 200.205,200.91 199.584,198.884C198.709,196.01 197.955,193.119 197.321,190.204C197.304,190.133 197.311,190.058 197.338,189.987L197.586,189.298C198.614,190.489 199.656,191.12 200.707,191.195C202.387,191.314 204.182,191.029 206.093,190.343C207.355,190.116 208.275,190.021 208.851,190.062C210.86,190.208 211.865,191.775 213.619,192.352C214.209,192.546 214.963,192.566 215.882,192.41C220.501,191.626 221.651,180.805 221.851,177.065C221.936,175.474 222.068,174.402 222.028,173.421C222.021,173.214 221.96,173.01 221.855,172.834C221.01,171.402 220.07,168.562 218.862,167.255C216.469,164.67 212.886,165.07 209.74,166.091C209.625,166.129 209.506,166.152 209.388,166.156L204.311,166.393L198.125,166.261C198.291,166.04 198.139,165.84 197.674,165.66C197.446,165.576 197.161,165.511 196.812,165.47C194.627,165.209 192.691,164.653 190.819,163.821C187.45,162.324 186.208,153.529 186.496,152.318C186.571,152.019 186.88,151.839 187.175,151.931C187.65,152.08 188.081,152.138 188.468,152.104C190.3,151.945 192.482,151.826 194.467,151.307C195.509,151.032 200.082,150.365 201.057,150.136C224.773,144.568 229.445,148.361 230.124,148.562C230.318,148.619 230.504,148.697 230.677,148.799C231.447,149.257 232.37,149.786 233.443,150.391C234.949,151.242 235.886,152.688 236.907,154.035C237.99,155.457 238.221,157.245 239.032,158.887C239.741,160.33 240.358,161.67 240.888,162.915C241.176,163.597 241.515,164.317 241.906,165.073C242.102,165.457 242.523,166.478 243.168,168.141C243.572,169.186 243.806,169.963 243.867,170.472C243.942,171.08 244.084,171.707 244.295,172.359C244.546,173.143 244.766,181.558 244.298,182.905C243.996,183.767 243.843,184.215 243.84,184.252C243.786,184.666 243.613,185.06 243.348,185.382C243.063,185.728 239.462,190.91 237.684,193.211ZM225.916,191.015L230.589,188.762C230.976,188.572 231.305,188.284 231.539,187.924C232.761,186.054 233.276,184.09 233.09,182.033C232.737,178.172 230.331,175.467 226.266,175.657C226.144,175.664 226.045,175.766 226.049,175.888C226.134,181.09 226.032,186.095 225.75,190.903C225.747,190.992 225.838,191.053 225.916,191.015ZM211.926,197.795C212.112,197.625 212.133,197.337 211.966,197.147C211.658,196.794 211.261,196.502 210.775,196.268C208.882,195.359 206.887,195.125 204.786,195.569C204.029,195.729 201.033,196.638 201.939,197.9C202.309,198.409 202.818,198.606 203.466,198.491C204.705,198.27 205.777,198.101 206.68,197.989C208.186,197.802 209.133,197.958 210.986,198.097C211.356,198.128 211.668,198.026 211.926,197.795Z" style="fill:white;fill-opacity:0.4;fill-rule:nonzero;"/>
    <path d="M125.668,164.29C124.114,164.849 122.658,164.592 121.304,163.516C119.858,162.369 118.447,161.493 117.072,160.886C116.502,160.53 115.79,160.397 114.938,160.496C112.02,160.832 110.598,164.225 109.97,166.699C109.173,169.824 108.582,172.057 108.199,173.397C107.279,176.577 105.708,180.391 101.701,177.093C101.012,176.526 100.52,176.075 100.221,175.742C99.308,174.717 98.094,174.809 97.109,175.535C96.007,176.349 95.325,177.425 95.063,178.762C94.381,182.267 97.405,184.198 100.428,184.643C100.689,184.683 100.91,184.863 100.998,185.111C102.298,188.721 101.388,191.864 99.04,194.738L97.625,196.234L96.777,196.723C96.567,196.577 96.346,196.57 96.119,196.709C93.17,198.501 89.967,199.4 86.516,199.407C85.515,199.41 84.547,199.251 83.614,198.928C83.38,198.847 83.129,198.813 82.878,198.83C81.046,198.952 79.254,199.288 77.5,199.841C75.067,200.608 72.796,200.873 70.696,200.632C67.74,200.296 64.384,198.935 62.654,196.377C61.317,194.398 60.692,191.826 61.086,189.363C61.249,188.341 61.337,187.815 61.347,187.785C61.788,186.424 60.916,185.728 59.8,184.694C59.702,184.602 59.59,184.524 59.467,184.466L57.53,183.509C57.353,183.424 57.191,183.312 57.048,183.18C55.538,181.796 54.472,180.024 53.848,177.866C53.835,177.819 53.828,177.771 53.824,177.72C53.801,177.296 53.716,176.668 53.57,175.834C53.251,174.005 53.641,171.901 54.12,169.96C54.679,167.696 55.596,165.671 56.872,163.886C59.396,160.353 62.8,159.06 67.123,158.389C67.618,158.311 68.076,158.311 68.497,158.389C69.888,158.643 71.039,158.497 72.372,158.786C74.242,159.193 76.275,159.831 78.473,160.699C79.98,161.293 81.612,161.507 83.37,161.334C83.472,161.324 83.57,161.297 83.658,161.249L85.477,160.309C85.545,160.272 85.606,160.228 85.664,160.173C86.41,159.464 87.88,158.151 88.735,156.821C89.278,155.973 89.576,155.504 89.627,155.419C89.783,155.162 89.977,154.924 90.197,154.714C91.66,153.319 93.183,152.247 94.768,151.497C97.995,149.966 101.439,149.189 105.108,149.159C105.63,149.155 107.581,149.196 108.148,149.189C110.696,149.145 113.679,149.668 117.1,150.754C119.899,151.643 122.564,152.856 124.823,154.748C129.645,158.786 125.668,164.29 125.668,164.29Z" style="fill:white;fill-opacity:0.25;fill-rule:nonzero;"/>
    <path d="M117.072,160.886C117.911,162.318 118.742,163.686 119.56,164.989C120.744,166.879 121.558,168.253 121.999,169.115C123.896,172.803 125.301,176.651 126.217,180.655C127.079,184.436 123.262,181.792 122.295,183.431C121.847,184.191 121.731,185.06 121.945,186.041C122.105,186.77 122.485,187.802 123.079,189.135C121.959,189.339 119.685,190.031 119.268,191.192C118.392,193.604 122.783,192.522 123.659,192.42L124.086,192.478C124.195,192.491 124.287,192.559 124.327,192.658C125.64,195.705 124.758,198.664 123.109,201.375C122.868,201.772 122.777,202.196 122.834,202.648C122.844,202.739 122.777,202.821 122.685,202.827L120.727,202.933L118.257,202.851C114.68,202.271 111.334,201.239 108.219,199.763C105.515,198.481 102.454,196.804 99.04,194.738C101.388,191.864 102.298,188.721 100.998,185.111C100.91,184.863 100.689,184.683 100.428,184.643C97.405,184.198 94.381,182.267 95.063,178.762C95.325,177.425 96.007,176.349 97.109,175.535C98.094,174.809 99.308,174.717 100.221,175.742C100.52,176.075 101.012,176.526 101.701,177.093C105.708,180.391 107.279,176.577 108.199,173.397C108.582,172.057 109.173,169.824 109.97,166.699C110.598,164.225 112.02,160.832 114.938,160.496C115.79,160.397 116.502,160.53 117.072,160.886ZM113.296,172.389C113.207,172.573 113.387,172.769 113.577,172.698C114.996,172.159 116.129,171.846 116.977,171.755C118.752,171.565 120.635,171.538 121.317,171.052C121.68,170.795 121.613,170.241 121.199,170.079C118.752,169.118 115.335,170.53 113.445,172.111C113.431,172.125 113.421,172.138 113.411,172.155L113.296,172.389ZM120.326,173.985C119.841,174.072 119.607,175.023 119.801,176.107C119.997,177.191 120.547,177.999 121.033,177.913C121.518,177.825 121.752,176.875 121.558,175.791C121.362,174.707 120.812,173.899 120.326,173.985Z" style="fill:white;fill-opacity:0.95;fill-rule:nonzero;"/>
    <path d="M128.975,176.821C129.778,181.214 130.07,184.444 130.072,184.47C130.14,188.65 130.13,191.334 130.042,192.525C129.862,194.938 129.38,197.035 128.596,198.817C127.697,200.849 126.234,202.152 124.205,202.732C123.102,203.045 121.945,203.112 120.727,202.933L122.685,202.827C122.777,202.821 122.844,202.739 122.834,202.648C122.777,202.196 122.868,201.772 123.109,201.375C124.758,198.664 125.64,195.705 124.327,192.658C124.287,192.559 124.195,192.491 124.086,192.478L123.659,192.42C124.422,192.318 125.203,192.267 125.997,192.267C126.913,192.267 127.554,192.138 127.727,191.205C127.992,189.773 126.044,189.037 124.948,189.047C124.694,189.051 124.069,189.078 123.079,189.135C122.485,187.802 122.105,186.77 121.945,186.041C121.731,185.06 121.847,184.191 122.295,183.431C123.262,181.792 127.079,184.436 126.217,180.655C125.301,176.651 123.896,172.803 121.999,169.115C121.558,168.253 120.744,166.879 119.56,164.989C118.742,163.686 117.911,162.318 117.072,160.886C118.447,161.493 119.858,162.369 121.304,163.516C122.658,164.592 124.114,164.849 125.668,164.29C126.354,166.12 126.942,168.032 127.444,169.918C127.188,169.969 126.938,170.04 126.698,170.135C126.284,170.297 126.216,170.851 126.579,171.108C126.845,171.298 127.294,171.417 127.848,171.504C128.066,172.397 128.265,173.276 128.446,174.132C128.393,174.116 128.34,174.113 128.288,174.121C127.918,174.182 127.739,174.851 127.887,175.614C128.037,176.376 128.456,176.945 128.827,176.884C128.881,176.875 128.93,176.854 128.975,176.821Z" style="fill:white;fill-opacity:0.75;"/>
    <path d="M206.093,190.343C205.96,189.441 205.495,188.864 204.698,188.609C204.593,188.575 204.481,188.569 204.376,188.592C203.795,188.711 203.137,188.847 202.404,189C201.322,189.23 200.745,188.816 200.677,187.761C200.497,184.975 200.657,182.132 201.162,179.227C201.288,178.497 201.461,177.469 201.681,176.149C201.82,175.318 202.068,174.307 202.431,173.116C203.1,170.906 203.724,168.667 204.311,166.393L209.388,166.156C209.506,166.152 209.625,166.129 209.74,166.091C212.886,165.07 216.469,164.67 218.862,167.255C220.07,168.562 221.01,171.402 221.855,172.834C221.96,173.01 222.021,173.214 222.028,173.421C222.068,174.402 221.936,175.474 221.851,177.065C221.651,180.805 220.501,191.626 215.882,192.41C214.963,192.566 214.209,192.546 213.619,192.352C211.865,191.775 210.86,190.208 208.851,190.062C208.275,190.021 207.355,190.116 206.093,190.343ZM202.388,174.641C202.346,175.308 203.985,175.959 206.052,176.092C208.118,176.227 209.829,175.793 209.872,175.125C209.914,174.459 208.275,173.808 206.208,173.675C204.141,173.54 202.431,173.974 202.388,174.641ZM204.922,178.803C204.43,178.843 204.108,179.783 204.202,180.9C204.298,182.016 204.769,182.888 205.261,182.847C205.753,182.807 206.076,181.867 205.981,180.75C205.886,179.634 205.414,178.762 204.922,178.803Z" style="fill:white;fill-opacity:0.95;fill-rule:nonzero;"/>
    <path d="M196.403,174.463C196.444,173.804 196.503,173.155 196.578,172.515C196.822,170.428 197.338,168.341 198.125,166.261L204.311,166.393C203.724,168.667 203.1,170.906 202.431,173.116C202.068,174.307 201.82,175.318 201.681,176.149C201.461,177.469 201.288,178.497 201.162,179.227C200.657,182.132 200.497,184.975 200.677,187.761C200.745,188.816 201.322,189.23 202.404,189C203.137,188.847 203.795,188.711 204.376,188.592C204.481,188.569 204.593,188.575 204.698,188.609C205.495,188.864 205.96,189.441 206.093,190.343C204.182,191.029 202.387,191.314 200.707,191.195C199.656,191.12 198.614,190.489 197.586,189.298C197.202,186.628 196.88,183.872 196.618,181.032C196.522,179.975 196.463,178.893 196.441,177.785C196.514,177.734 196.588,177.683 196.662,177.629C198.343,176.417 199.315,174.918 198.836,174.285C198.499,173.841 197.532,173.942 196.403,174.463ZM197.653,180.255C197.253,180.282 196.982,181.1 197.044,182.087C197.107,183.072 197.484,183.852 197.884,183.825C198.285,183.798 198.556,182.98 198.493,181.993C198.431,181.008 198.054,180.228 197.653,180.255Z" style="fill:white;fill-opacity:0.75;"/>
    <path d="M192.752,178.68C192.273,178.047 193.245,176.549 194.926,175.336C196.606,174.122 198.357,173.654 198.836,174.285C199.315,174.918 198.343,176.417 196.662,177.629C194.982,178.843 193.231,179.311 192.752,178.68Z" style="fill:white;fill-opacity:0.15;fill-rule:nonzero;"/>
    <path d="M113.296,172.389L113.411,172.155C113.421,172.138 113.431,172.125 113.445,172.111C115.335,170.53 118.752,169.118 121.199,170.079C121.613,170.241 121.68,170.795 121.317,171.052C120.635,171.538 118.752,171.565 116.977,171.755C116.129,171.846 114.996,172.159 113.577,172.698C113.387,172.769 113.207,172.573 113.296,172.389Z" style="fill:white;fill-opacity:0.15;fill-rule:nonzero;"/>
    <path d="M202.388,174.641C202.431,173.974 204.141,173.54 206.208,173.675C208.275,173.808 209.914,174.459 209.872,175.125C209.829,175.793 208.118,176.227 206.052,176.092C203.985,175.959 202.346,175.308 202.388,174.641Z" style="fill:white;fill-opacity:0.15;fill-rule:nonzero;"/>
    <path d="M120.326,173.985C120.812,173.899 121.362,174.707 121.558,175.791C121.752,176.875 121.518,177.825 121.033,177.913C120.547,177.999 119.997,177.191 119.801,176.107C119.607,175.023 119.841,174.072 120.326,173.985Z" style="fill:white;fill-opacity:0.15;fill-rule:nonzero;"/>
    <path d="M127.444,169.918C127.188,169.969 126.938,170.04 126.698,170.135C126.284,170.297 126.216,170.851 126.579,171.108C126.845,171.298 127.294,171.417 127.848,171.504C127.72,170.979 127.586,170.45 127.444,169.918Z" style="fill:white;fill-opacity:0.15;"/>
    <path d="M128.975,176.821C128.93,176.854 128.881,176.875 128.827,176.884C128.456,176.945 128.037,176.376 127.887,175.614C127.739,174.851 127.918,174.182 128.288,174.121C128.34,174.113 128.393,174.116 128.446,174.132C128.643,175.062 128.819,175.964 128.975,176.821Z" style="fill:white;fill-opacity:0.15;"/>
    <path d="M225.916,191.015C225.838,191.053 225.747,190.992 225.75,190.903C226.032,186.095 226.134,181.09 226.049,175.888C226.045,175.766 226.144,175.664 226.266,175.657C230.331,175.467 232.737,178.172 233.09,182.033C233.276,184.09 232.761,186.054 231.539,187.924C231.305,188.284 230.976,188.572 230.589,188.762L225.916,191.015Z" style="fill:white;fill-opacity:0.95;fill-rule:nonzero;"/>
    <path d="M204.922,178.803C205.414,178.762 205.886,179.634 205.981,180.75C206.076,181.867 205.753,182.807 205.261,182.847C204.769,182.888 204.298,182.016 204.202,180.9C204.108,179.783 204.43,178.843 204.922,178.803Z" style="fill:white;fill-opacity:0.15;fill-rule:nonzero;"/>
    <path d="M197.653,180.255C198.054,180.228 198.431,181.008 198.493,181.993C198.556,182.98 198.285,183.798 197.884,183.825C197.484,183.852 197.107,183.072 197.044,182.087C196.982,181.1 197.253,180.282 197.653,180.255Z" style="fill:white;fill-opacity:0.15;fill-rule:nonzero;"/>
    <path d="M123.659,192.42C122.783,192.522 118.392,193.604 119.268,191.192C119.685,190.031 121.959,189.339 123.079,189.135C124.069,189.078 124.694,189.051 124.948,189.047C126.044,189.037 127.992,189.773 127.727,191.205C127.554,192.138 126.913,192.267 125.997,192.267C125.203,192.267 124.422,192.318 123.659,192.42Z" style="fill:white;fill-opacity:0.15;fill-rule:nonzero;"/>
    <path d="M99.04,194.738C102.454,196.804 105.515,198.481 108.219,199.763C111.334,201.239 114.68,202.271 118.257,202.851C117.164,204.918 116.662,207.167 116.75,209.6C116.753,209.685 116.767,209.767 116.798,209.848L117.978,213.113L118.864,216.486C118.912,216.662 118.817,216.845 118.647,216.91L115.668,218.063C115.338,218.192 114.972,217.982 114.918,217.632C114.388,214.371 114.066,210.999 112.318,208.552C108.589,203.336 103.689,199.231 97.625,196.234L99.04,194.738Z" style="fill:white;fill-opacity:0.75;fill-rule:nonzero;"/>
    <path d="M211.926,197.795C211.668,198.026 211.356,198.128 210.986,198.097C209.133,197.958 208.186,197.802 206.68,197.989C205.777,198.101 204.705,198.27 203.466,198.491C202.818,198.606 202.309,198.409 201.939,197.9C201.033,196.638 204.029,195.729 204.786,195.569C206.887,195.125 208.882,195.359 210.775,196.268C211.261,196.502 211.658,196.794 211.966,197.147C212.133,197.337 212.112,197.625 211.926,197.795Z" style="fill:white;fill-opacity:0.95;fill-rule:nonzero;"/>
    <path d="M97.625,196.234C103.689,199.231 108.589,203.336 112.318,208.552C114.066,210.999 114.388,214.371 114.918,217.632C114.972,217.982 115.338,218.192 115.668,218.063L118.647,216.91C118.817,216.845 118.912,216.662 118.864,216.486L117.978,213.113C118.172,213.228 118.325,213.381 118.436,213.571C118.491,213.662 118.582,213.727 118.688,213.744C120.839,214.1 122.675,214.039 124.789,214.585C126.675,215.077 128.274,215.909 129.584,217.086C129.974,217.436 130.547,218.365 131.307,219.875C132.125,221.497 132.882,223.499 133.577,225.882C134.925,230.49 136.312,235.603 137.741,241.223C137.901,241.854 137.982,242.329 137.979,242.645C137.979,242.757 137.918,242.858 137.819,242.909L134.741,244.524C134.599,244.596 134.47,244.687 134.351,244.793L134.049,245.054L131.82,245.532C131.426,245.617 131.141,245.956 131.127,246.357C131.09,247.429 131.209,248.189 131.066,249.231C130.968,249.92 130.88,251.026 130.802,252.543C130.792,252.736 130.768,252.923 130.724,253.11C130.51,254.029 130.255,255.183 129.953,256.571C129.848,257.07 129.339,258.552 128.433,261.019C127.649,263.15 126.248,265.899 125.512,267.908C124.572,270.473 123.615,273.032 122.637,275.58C122.413,275.665 122.234,275.658 122.094,275.56C119.963,274.026 118.206,272.862 116.543,271.233C115.454,270.168 113.696,268.441 111.27,266.055C109.98,264.786 109.159,263.697 107.765,262.003C107.14,261.247 106.747,260.609 106.584,260.09C105.759,257.467 104.741,254.752 103.526,251.939C102.692,250.005 102.298,248.179 101.477,245.794C100.309,242.393 99.363,238.797 98.636,235.006C98.596,234.792 98.368,234.674 98.172,234.765C96.465,235.566 94.934,236.252 93.587,236.822C92.26,237.385 90.296,237.901 87.69,238.372C86.193,238.64 84.568,238.864 82.813,239.041C80.767,239.244 78.273,239.343 75.338,239.333L73.519,238.617C73.356,238.552 73.248,238.396 73.244,238.22C73.173,234.66 73.132,231.501 73.115,228.749C73.098,225.44 73.78,222.047 75.155,218.569C76.152,216.041 78.09,213.089 80.781,212.071C83.574,211.015 85.983,210.279 88.796,210.72C90.174,210.937 91.561,211.127 92.963,211.294C93.133,211.317 93.295,211.382 93.431,211.484L93.767,211.738C93.879,211.823 94.035,211.806 94.13,211.701C94.839,210.89 95.664,209.78 96.604,208.365C99.118,204.578 99.176,200.696 96.777,196.723L97.625,196.234Z" style="fill:white;fill-opacity:0.95;fill-rule:nonzero;"/>
    <path d="M231.285,200.001C231.373,200.601 231.604,201.29 231.98,202.067C232.645,203.442 233.426,204.755 234.318,206.004C234.719,206.563 235.289,206.927 236.032,207.086C241.519,208.267 245.173,209.027 246.989,209.366C248.268,209.604 249.948,210.133 252.021,210.954C254.325,211.864 256.351,213.398 258.102,215.552C260.623,218.657 262.215,222.302 262.87,226.486C263.833,232.597 264.397,237.371 264.563,240.805C264.641,242.377 264.912,244.477 264.923,245.919C264.96,251.138 264.96,255.495 264.926,258.994C264.909,260.663 264.566,262.241 264.607,264.084C264.61,264.223 264.597,264.362 264.559,264.498C264.509,264.684 264.424,265.356 264.305,266.513C263.955,269.906 263.443,273.357 262.761,276.87C262.32,279.13 261.763,280.996 261.095,282.469C259.989,284.898 259.056,286.608 258.295,287.603C258.051,287.925 257.349,288.468 256.192,289.238C256.941,285.964 257.464,282.927 257.763,280.12C258.584,272.373 258.574,264.467 257.729,256.408C257.532,254.525 257.206,252.092 256.755,249.112C256.826,248.736 256.745,248.434 256.514,248.206C256.443,248.135 256.327,248.118 256.236,248.166C255.94,248.322 255.761,248.41 255.689,248.434C254.763,248.719 253.514,249.139 251.943,249.693C249.262,250.639 246.582,251.219 243.898,251.433C241.658,251.61 240.273,251.905 238.353,251.969C238.261,251.973 238.183,252.041 238.17,252.132C236.711,262.109 235.095,274.04 233.324,287.922C233.273,288.308 233.127,289.992 232.879,292.971C232.727,294.779 233.012,296.429 233.728,297.915C232.679,297.878 231.814,297.945 231.132,298.119C230.62,298.244 230.036,298.241 229.384,298.105C228.363,297.891 227.097,297.542 225.591,297.056C224.332,296.653 223.114,296.167 221.929,295.597C218.885,294.131 216.53,292.805 214.864,291.614C211.637,289.306 209.9,288.068 209.659,287.898C209.554,287.827 209.55,287.674 209.652,287.596L209.998,287.338C210.039,287.307 210.066,287.263 210.083,287.216C210.385,286.235 210.589,285.237 210.694,284.223C210.762,283.561 210.853,282.608 210.965,281.369C211.138,279.462 211.057,277.413 210.714,275.217C210.331,270.504 209.547,265.675 208.366,260.731C208.135,259.767 207.735,257.226 207.165,253.11C207.002,251.935 206.741,250.894 206.707,249.628C206.697,249.177 206.222,248.885 205.814,249.082L205.136,249.407C205.061,249.441 204.976,249.448 204.898,249.424L203.286,248.939C203.188,248.909 203.093,248.871 203.005,248.82C201.115,247.772 199.425,246.503 197.935,245.02C197.857,244.942 197.745,244.905 197.633,244.918L197.294,244.955C197.077,244.531 196.778,244.141 196.398,243.785C196.31,243.703 196.259,243.595 196.255,243.476C196.089,237.962 196.154,232.716 196.456,227.734C196.561,226.038 196.958,223.839 197.647,221.138C197.901,220.137 198.451,218.942 198.94,217.992C199.788,216.34 200.765,215.054 201.868,214.127C201.994,214.022 211.016,211.358 212.333,211.216C212.554,211.192 212.828,211.144 213.151,211.073C213.521,210.992 213.887,211.06 214.25,211.273C214.043,211.793 214.091,212.332 214.396,212.889C214.912,213.822 215.791,215.115 216.849,215.539C217.107,215.641 217.386,215.447 217.379,215.172C217.362,214.293 217.294,212.624 217.491,211.409C217.827,209.37 218.366,207.68 219.113,206.346C219.608,205.461 219.958,204.768 220.158,204.273L222.377,202.661C222.459,202.6 222.564,202.57 222.666,202.58C223.246,202.627 223.616,202.634 223.775,202.603C226.398,202.098 228.862,201.192 231.159,199.885C231.166,199.882 231.173,199.879 231.183,199.879C231.237,199.875 231.271,199.916 231.285,200.001Z" style="fill:white;fill-opacity:0.95;fill-rule:nonzero;"/>
    <path d="M220.158,204.273C219.958,204.768 219.608,205.461 219.113,206.346C218.366,207.68 217.827,209.37 217.491,211.409C217.294,212.624 217.362,214.293 217.379,215.172C217.386,215.447 217.107,215.641 216.849,215.539C215.791,215.115 214.912,213.822 214.396,212.889C214.091,212.332 214.043,211.793 214.25,211.273C214.63,210.422 214.668,209.319 214.366,207.965C214.247,207.429 214.036,207.032 213.734,206.774C213.887,206.682 214.294,206.574 214.956,206.445C215.747,206.292 217.481,205.566 220.158,204.273Z" style="fill:white;fill-opacity:0.75;fill-rule:nonzero;"/>
    <path d="M122.637,275.58C122.682,275.909 122.872,276.177 123.204,276.391C125.298,277.735 127.069,278.78 128.511,279.53C129.339,280.209 130.238,280.799 131.209,281.301C133.058,282.255 134.002,282.74 134.032,282.757C136.038,283.846 138.186,284.701 140.469,285.316C140.608,285.353 140.758,285.332 140.88,285.258C141.643,284.796 142.587,284.477 143.713,284.304C143.754,284.298 143.795,284.298 143.839,284.301L146.302,284.603C146.377,284.613 146.445,284.637 146.506,284.674C146.811,284.861 147.056,284.98 147.236,285.027C149.417,285.614 151.311,285.998 152.916,286.171C153.092,286.188 153.269,286.232 153.435,286.3C153.995,286.52 154.341,286.666 154.474,286.737C154.932,286.982 155.213,287.48 155.206,288.027C155.203,288.217 155.003,288.461 154.606,288.763C154.582,288.78 154.558,288.794 154.528,288.797L151.82,289.252C151.464,289.313 151.311,289.744 151.552,290.015C153.439,292.153 155.59,293.833 158.379,294.464C158.542,294.501 158.858,294.454 159.323,294.325C159.502,294.274 159.689,294.284 159.862,294.349L161.586,294.993C161.806,295.078 161.973,295.255 162.047,295.479C162.865,298.051 159.346,299.547 157.348,299.751C156.727,299.815 156.106,299.893 155.485,299.985C155.373,300.002 155.261,300.005 155.149,299.992C153.517,299.808 152.39,299.788 150.782,299.262C147.056,298.051 144.12,297.077 141.077,294.868C140.527,294.471 140.266,293.907 139.825,293.497C139.743,293.419 139.641,293.364 139.529,293.344C139.329,293.307 138.579,293.042 137.28,292.547C136.299,292.173 134.989,291.854 133.357,291.59C131.284,291.25 128.019,291.559 125.82,290.993C124.168,290.568 122.861,290.287 121.894,290.151C121.755,290.134 121.63,290.219 121.511,290.409C120.042,290.11 118.589,289.791 117.15,289.452C115.701,289.109 114.85,288.902 114.599,288.828C114.538,288.811 114.147,288.648 113.431,288.346C113.313,288.295 113.214,288.2 113.163,288.081C112.759,287.148 112.006,287.141 111.137,287.362C111.019,287.392 110.893,287.389 110.774,287.348C107.401,286.218 104.246,284.779 101.304,283.035C100.567,282.597 99.78,281.943 98.989,281.512C97.574,280.735 96.601,280.127 96.064,279.696C94.263,278.247 93.126,277.345 92.654,276.992C92.444,276.839 92.274,276.635 92.155,276.405C91.623,275.377 90.788,273.792 89.644,271.654C89.322,271.057 88.619,270.304 87.53,269.397C87.252,269.163 86.743,268.383 86.003,267.053C85.532,266.208 84.873,265.729 84.561,264.956C84.463,264.715 84.212,264.246 83.801,263.551C83.56,263.14 83.312,262.669 83.065,262.136C82.769,261.101 82.366,260.001 81.853,258.837C81.09,257.104 80.628,256.028 80.472,255.61C78.589,250.626 77.109,245.515 76.04,240.279C75.996,240.055 75.762,239.74 75.338,239.333C78.273,239.343 80.767,239.244 82.813,239.041C84.568,238.864 86.193,238.64 87.69,238.372C90.296,237.901 92.26,237.385 93.587,236.822C94.934,236.252 96.465,235.566 98.172,234.765C98.368,234.674 98.596,234.792 98.636,235.006C99.363,238.797 100.309,242.393 101.477,245.794C102.298,248.179 102.692,250.005 103.526,251.939C104.741,254.752 105.759,257.467 106.584,260.09C106.747,260.609 107.14,261.247 107.765,262.003C109.159,263.697 109.98,264.786 111.27,266.055C113.696,268.441 115.454,270.168 116.543,271.233C118.206,272.862 119.963,274.026 122.094,275.56C122.234,275.658 122.413,275.665 122.637,275.58Z" style="fill:white;fill-opacity:0.75;fill-rule:nonzero;"/>
    <path d="M210.714,275.217C209.835,279.058 208.665,282.784 207.199,286.395C206.615,287.83 205.73,288.77 204.542,289.214C203.622,289.561 202.312,289.588 200.612,289.292C198.539,288.936 196.591,288.359 194.766,287.555C193.839,287.145 192.821,286.466 193.032,285.36C194.515,277.497 195.122,271.165 196.167,260.992C196.344,259.262 196.428,258.315 196.422,258.155C196.391,257.565 196.456,256.856 196.608,256.031C196.717,255.441 196.764,254.732 196.747,253.9C196.717,252.502 197.094,251.355 197.049,249.998C196.995,248.318 197.077,246.635 197.294,244.955L197.633,244.918C197.745,244.905 197.857,244.942 197.935,245.02C199.425,246.503 201.115,247.772 203.005,248.82C203.093,248.871 203.188,248.909 203.286,248.939L204.898,249.424C204.976,249.448 205.061,249.441 205.136,249.407L205.814,249.082C206.222,248.885 206.697,249.177 206.707,249.628C206.741,250.894 207.002,251.935 207.165,253.11C207.735,257.226 208.135,259.767 208.366,260.731C209.547,265.675 210.331,270.504 210.714,275.217Z" style="fill:white;fill-opacity:0.75;fill-rule:nonzero;"/>
    <path d="M134.049,245.054L134.361,246.153C134.392,246.252 134.409,246.353 134.412,246.459C134.589,250.171 134.528,253.856 134.232,257.514C134.171,258.284 133.941,260.324 133.544,263.639C133.438,264.518 133.313,265.163 133.17,265.573C132.875,266.422 132.919,267.26 132.671,268.159C131.616,272.014 130.228,275.804 128.511,279.53C127.069,278.78 125.298,277.735 123.204,276.391C122.872,276.177 122.682,275.909 122.637,275.58C123.615,273.032 124.572,270.473 125.512,267.908C126.248,265.899 127.649,263.15 128.433,261.019C129.339,258.552 129.848,257.07 129.953,256.571C130.255,255.183 130.51,254.029 130.724,253.11C130.768,252.923 130.792,252.736 130.802,252.543C130.88,251.026 130.968,249.92 131.066,249.231C131.209,248.189 131.09,247.429 131.127,246.357C131.141,245.956 131.426,245.617 131.82,245.532L134.049,245.054Z" style="fill:white;fill-opacity:0.65;fill-rule:nonzero;"/>
    <path d="M256.755,249.112C256.748,248.993 256.728,248.936 256.697,248.939C256.551,248.949 256.473,249.031 256.463,249.184C255.71,263.615 254.234,278.196 249.51,291.732C249.228,292.55 249.069,293.124 249.035,293.456C245.672,295.034 242.119,296.235 238.38,297.063C237.498,297.257 235.947,297.542 233.728,297.915C233.012,296.429 232.727,294.779 232.879,292.971C233.127,289.992 233.273,288.308 233.324,287.922C235.095,274.04 236.711,262.109 238.17,252.132C238.183,252.041 238.261,251.973 238.353,251.969C240.273,251.905 241.658,251.61 243.898,251.433C246.582,251.219 249.262,250.639 251.943,249.693C253.514,249.139 254.763,248.719 255.689,248.434C255.761,248.41 255.94,248.322 256.236,248.166C256.327,248.118 256.443,248.135 256.514,248.206C256.745,248.434 256.826,248.736 256.755,249.112Z" style="fill:white;fill-opacity:0.75;fill-rule:nonzero;"/>
    <path d="M256.755,249.112C257.206,252.092 257.532,254.525 257.729,256.408C258.574,264.467 258.584,272.373 257.763,280.12C257.464,282.927 256.941,285.964 256.192,289.238C253.942,290.83 251.556,292.235 249.035,293.456C249.069,293.124 249.228,292.55 249.51,291.732C254.234,278.196 255.71,263.615 256.463,249.184C256.473,249.031 256.551,248.949 256.697,248.939C256.728,248.936 256.748,248.993 256.755,249.112Z" style="fill:white;fill-opacity:0.95;fill-rule:nonzero;"/>
    <path d="M121.511,290.409C120.903,291.359 117.734,291.661 116.512,291.712C115.216,291.766 114.3,291.98 113.282,291.987C111.351,291.997 109.716,292.044 108.375,292.133C106.713,292.238 105.138,291.98 103.458,292.004C102.62,292.014 101.965,291.97 101.494,291.865C101.178,291.797 100.021,291.688 98.019,291.535C96.994,291.457 95.844,291.305 94.565,291.074C90.157,290.28 85.864,289.16 81.68,287.715C80.455,287.29 79.909,286.717 79.474,285.472C78.697,283.249 78.782,280.996 79.732,278.712C80.418,277.07 80.954,275.726 81.249,274.009C81.656,271.64 82.053,269.805 82.349,267.297C82.539,265.672 82.776,263.951 83.065,262.136C83.312,262.669 83.56,263.14 83.801,263.551C84.212,264.246 84.463,264.715 84.561,264.956C84.873,265.729 85.532,266.208 86.003,267.053C86.743,268.383 87.252,269.163 87.53,269.397C88.619,270.304 89.322,271.057 89.644,271.654C90.788,273.792 91.623,275.377 92.155,276.405C92.274,276.635 92.444,276.839 92.654,276.992C93.126,277.345 94.263,278.247 96.064,279.696C96.601,280.127 97.574,280.735 98.989,281.512C99.78,281.943 100.567,282.597 101.304,283.035C104.246,284.779 107.401,286.218 110.774,287.348C110.893,287.389 111.019,287.392 111.137,287.362C112.006,287.141 112.759,287.148 113.163,288.081C113.214,288.2 113.313,288.295 113.431,288.346C114.147,288.648 114.538,288.811 114.599,288.828C114.85,288.902 115.701,289.109 117.15,289.452C118.589,289.791 120.042,290.11 121.511,290.409Z" style="fill:white;fill-opacity:0.95;fill-rule:nonzero;"/>
    <path d="M64.112,75.626C64.903,72.65 68.631,70.394 73.105,70.394C76.33,70.394 79.168,71.566 80.797,73.335L78.667,73.525C78.602,74.404 79.227,74.811 79.77,75.476C74.404,75.31 69.185,75.361 64.112,75.626Z" style="fill:rgb(246,242,248);fill-opacity:0.35;"/>
</svg>
