<?xml version="1.0" encoding="UTF-8" standalone="no"?>
<!DOCTYPE svg PUBLIC "-//W3C//DTD SVG 1.1//EN" "http://www.w3.org/Graphics/SVG/1.1/DTD/svg11.dtd">
<svg width="100%" height="100%" viewBox="0 0 300 300" version="1.1" xmlns="http://www.w3.org/2000/svg" xmlns:xlink="http://www.w3.org/1999/xlink" xml:space="preserve" xmlns:serif="http://www.serif.com/" style="fill-rule:evenodd;clip-rule:evenodd;stroke-linejoin:round;stroke-miterlimit:2;">
    <path d="M65.656,211.73L70.062,206.731L294.794,206.742C294.928,206.742 295.037,206.634 295.037,206.5L295.037,20.918C295.037,20.813 294.953,20.73 294.848,20.73L18.787,20.73C18.686,20.73 18.603,20.813 18.603,20.915L18.603,206.561C18.603,206.666 18.686,206.749 18.791,206.749L62.401,206.753L57.971,211.722C44.969,211.697 32.072,211.686 19.279,211.693C17.355,211.697 16.06,211.523 15.398,211.18C14.237,210.572 13.655,209.466 13.655,207.86C13.648,137.055 13.644,74.457 13.648,20.065C13.648,18.264 14.248,17.02 15.449,16.336C16.299,15.848 17.507,15.66 19.066,15.768C19.265,15.783 111.596,15.786 296.06,15.779C297.792,15.779 298.95,16.408 299.539,17.663C299.897,18.426 300.046,19.804 299.988,21.804C299.977,22.188 299.977,83.665 299.984,206.239C299.984,208.185 299.814,209.415 299.471,209.932C298.389,211.563 297.105,211.697 294.971,211.697C257.209,211.704 183.005,211.701 72.365,211.683C70.145,211.679 67.91,211.697 65.656,211.73Z" style="fill:white;fill-opacity:0.3;fill-rule:nonzero;"/>
    <path d="M140.067,119.337C113.767,148.946 69.124,199.204 62.406,206.748L18.791,206.749C18.686,206.749 18.603,206.666 18.603,206.561L18.603,20.915C18.603,20.813 18.686,20.73 18.787,20.73L294.848,20.73C294.953,20.73 295.037,20.813 295.037,20.918L295.037,206.5C295.037,206.634 294.928,206.742 294.794,206.742L70.047,206.748L70.062,206.731L74.785,201.093L74.807,201.06C74.948,200.822 75.111,200.597 75.291,200.391C76.246,199.295 78.753,196.377 82.814,191.635L144.809,119.337C190.447,119.337 238.781,119.338 246.42,119.348C247.386,119.351 247.921,118.942 248.026,118.125C248.041,118.006 248.012,117.886 247.947,117.785C247.581,117.235 247.162,116.961 246.692,116.961C231.734,116.97 188.187,116.965 146.857,116.948L161.565,99.796C163.952,98.645 165.569,97.81 166.411,97.293C169.214,95.568 171.551,94.291 173.42,93.459C174.321,93.058 175.229,92.783 176.14,92.638C177.475,92.425 179.258,93.437 180.296,94.327C183.913,97.437 186.943,99.962 191.092,101.022C193.859,101.727 197.707,101.409 200.492,100.627C202.434,100.085 205.316,99.199 209.143,97.969C210.224,97.622 212.134,97.231 214.865,96.794C215.743,96.653 216.586,96.638 217.396,96.747C220.912,97.217 224.452,98.302 226.912,98.852C231.762,99.933 236.399,99.535 240.818,97.651C241.52,97.354 242.084,97.007 242.511,96.613C242.71,96.428 242.721,96.117 242.536,95.922C241.838,95.188 240.992,94.924 239.997,95.137C238.116,95.535 236.655,96.078 234.793,96.276C231.52,96.624 228.557,96.41 225.91,95.633C223.317,94.87 221.32,94.378 219.913,94.157C216.481,93.618 212.886,93.889 209.121,94.978C205.656,95.98 201.418,97.604 197.403,98.342C191.189,99.488 187.392,96.522 183.001,92.772C180.198,90.381 177.308,88.942 173.518,90.302C170.567,91.365 167.901,93.079 163.001,95.908C162.415,96.248 161.572,96.573 160.889,96.902C160.201,97.094 159.688,97.34 159.344,97.633C154.986,99.626 150.798,100.696 146.78,100.844C143.926,100.949 141.119,100.523 138.356,99.56C138.161,99.495 138.092,99.253 138.222,99.09C141.948,94.468 140.367,87.9 134.953,85.506C130.313,83.448 126.045,87.119 126.779,91.987C127.267,95.213 129.665,97.81 132.32,99.723C132.475,99.832 132.447,100.07 132.269,100.143C130.674,100.797 129.365,101.202 127.709,101.296C124.392,101.488 121.032,101.094 117.636,100.121C111.94,98.486 107.531,96.497 100.75,93.694C98.88,92.924 96.739,92.294 95.126,91.734C94.93,91.665 94.825,91.455 94.887,91.256C95.9,88.074 94.442,84.273 92.232,81.987C88.2,77.813 82,76.359 76.34,76.157C72.485,76.019 68.781,76.345 65.233,77.133C62.792,77.676 59.79,78.605 58.235,80.757C57.96,81.137 58.116,81.69 58.564,81.951C58.792,82.084 59.052,82.063 59.338,81.893C60.629,81.122 61.891,80.576 63.121,80.258C70.159,78.435 78.282,78.063 85.147,80.616C89.527,82.247 93.205,85.604 92.109,90.631C92.073,90.801 91.907,90.909 91.737,90.873C89.672,90.435 87.588,90.146 85.48,90.009C78.496,89.549 69.425,92.822 67.031,100.23C66.224,102.729 66.615,104.812 68.206,106.483C70.532,108.924 74.796,108.805 78.069,107.944C85.039,106.107 90.804,100.881 93.975,94.472C94.051,94.316 94.232,94.24 94.395,94.298C98.58,95.781 102.873,97.466 107.267,99.358C112.269,101.513 117.459,103.275 122.841,104.074C126.555,104.624 130.208,104.244 133.47,102.873C134.226,102.555 134.978,101.947 135.561,101.709C135.669,101.665 135.792,101.662 135.901,101.705C138.544,102.736 140.754,103.3 142.537,103.405C145.058,103.55 147.076,103.568 148.592,103.463C150.57,103.325 152.794,102.884 155.264,102.143L159.344,97.633C159.344,97.633 152.39,105.463 142.19,116.946C107.25,116.931 74.751,116.907 63.595,116.877C62.962,116.874 62.456,117.044 62.083,117.387C61.204,118.19 62.04,119.337 63.06,119.337C73.833,119.338 105.749,119.337 140.067,119.337ZM91.057,93.513C91.122,93.528 91.154,93.596 91.122,93.654C88.29,98.664 84.163,102.172 78.745,104.183C76.593,104.978 74.405,105.181 72.181,104.787C71.566,104.678 71.016,104.382 70.528,103.897C69.714,103.087 70.065,101.083 70.474,100.266C74.214,92.779 83.939,91.889 91.057,93.513ZM135.293,97.9C135.21,97.987 135.08,98.005 134.975,97.944C132.573,96.508 130.515,94.486 129.756,91.763C129.492,90.815 129.694,89.9 130.371,89.021C131.315,87.792 132.512,87.698 133.908,88.388C135.608,89.227 136.729,90.598 137.275,92.497C137.796,94.302 136.497,96.649 135.293,97.9Z" style="fill:white;fill-opacity:0.15;"/>
    <path d="M159.344,97.633L155.264,102.143C152.794,102.884 150.57,103.325 148.592,103.463C147.076,103.568 145.058,103.55 142.537,103.405C140.754,103.3 138.544,102.736 135.901,101.705C135.792,101.662 135.669,101.665 135.561,101.709C134.978,101.947 134.226,102.555 133.47,102.873C130.208,104.244 126.555,104.624 122.841,104.074C117.459,103.275 112.269,101.513 107.267,99.358C102.873,97.466 98.58,95.781 94.395,94.298C94.232,94.24 94.051,94.316 93.975,94.472C90.804,100.881 85.039,106.107 78.069,107.944C74.796,108.805 70.532,108.924 68.206,106.483C66.615,104.812 66.224,102.729 67.031,100.23C69.425,92.822 78.496,89.549 85.48,90.009C87.588,90.146 89.672,90.435 91.737,90.873C91.907,90.909 92.073,90.801 92.109,90.631C93.205,85.604 89.527,82.247 85.147,80.616C78.282,78.063 70.159,78.435 63.121,80.258C61.891,80.576 60.629,81.122 59.338,81.893C59.052,82.063 58.792,82.084 58.564,81.951C58.116,81.69 57.96,81.137 58.235,80.757C59.79,78.605 62.792,77.676 65.233,77.133C68.781,76.345 72.485,76.019 76.34,76.157C82,76.359 88.2,77.813 92.232,81.987C94.442,84.273 95.9,88.074 94.887,91.256C94.825,91.455 94.93,91.665 95.126,91.734C96.739,92.294 98.88,92.924 100.75,93.694C107.531,96.497 111.94,98.486 117.636,100.121C121.032,101.094 124.392,101.488 127.709,101.296C129.365,101.202 130.674,100.797 132.269,100.143C132.447,100.07 132.475,99.832 132.32,99.723C129.665,97.81 127.267,95.213 126.779,91.987C126.045,87.119 130.313,83.448 134.953,85.506C140.367,87.9 141.948,94.468 138.222,99.09C138.092,99.253 138.161,99.495 138.356,99.56C141.119,100.523 143.926,100.949 146.78,100.844C150.798,100.696 154.986,99.626 159.344,97.633ZM135.293,97.9C136.497,96.649 137.796,94.302 137.275,92.497C136.729,90.598 135.608,89.227 133.908,88.388C132.512,87.698 131.315,87.792 130.371,89.021C129.694,89.9 129.492,90.815 129.756,91.763C130.515,94.486 132.573,96.508 134.975,97.944C135.08,98.005 135.21,97.987 135.293,97.9ZM91.057,93.513C83.939,91.889 74.214,92.779 70.474,100.266C70.065,101.083 69.714,103.087 70.528,103.897C71.016,104.382 71.566,104.678 72.181,104.787C74.405,105.181 76.593,104.978 78.745,104.183C84.163,102.172 88.29,98.664 91.122,93.654C91.154,93.596 91.122,93.528 91.057,93.513Z" style="fill:white;fill-opacity:0.95;fill-rule:nonzero;"/>
    <path d="M161.565,99.796L161.818,98.645C161.879,98.367 161.814,98.074 161.637,97.853L160.889,96.902C161.572,96.573 162.415,96.248 163.001,95.908C167.901,93.079 170.567,91.365 173.518,90.302C177.308,88.942 180.198,90.381 183.001,92.772C187.392,96.522 191.189,99.488 197.403,98.342C201.418,97.604 205.656,95.98 209.121,94.978C212.886,93.889 216.481,93.618 219.913,94.157C221.32,94.378 223.317,94.87 225.91,95.633C228.557,96.41 231.52,96.624 234.793,96.276C236.655,96.078 238.116,95.535 239.997,95.137C240.992,94.924 241.838,95.188 242.536,95.922C242.721,96.117 242.71,96.428 242.511,96.613C242.084,97.007 241.52,97.354 240.818,97.651C236.399,99.535 231.762,99.933 226.912,98.852C224.452,98.302 220.912,97.217 217.396,96.747C216.586,96.638 215.743,96.653 214.865,96.794C212.134,97.231 210.224,97.622 209.143,97.969C205.316,99.199 202.434,100.085 200.492,100.627C197.707,101.409 193.859,101.727 191.092,101.022C186.943,99.962 183.913,97.437 180.296,94.327C179.258,93.437 177.475,92.425 176.14,92.638C175.229,92.783 174.321,93.058 173.42,93.459C171.551,94.291 169.214,95.568 166.411,97.293C165.569,97.81 163.952,98.645 161.565,99.796Z" style="fill:white;fill-opacity:0.95;fill-rule:nonzero;"/>
    <path d="M140.067,119.337C105.749,119.337 73.833,119.338 63.06,119.337C62.04,119.337 61.204,118.19 62.083,117.387C62.456,117.044 62.962,116.874 63.595,116.877C74.751,116.907 107.25,116.931 142.19,116.946C141.497,117.726 140.789,118.524 140.067,119.337ZM146.857,116.948C188.187,116.965 231.734,116.97 246.692,116.961C247.162,116.961 247.581,117.235 247.947,117.785C248.012,117.886 248.041,118.006 248.026,118.125C247.921,118.942 247.386,119.351 246.42,119.348C238.781,119.338 190.447,119.337 144.809,119.337L146.857,116.948Z" style="fill:white;fill-opacity:0.95;"/>
    <path d="M27.333,238.283C27.902,237.561 28.675,237.556 29.543,237.987C29.625,238.027 31.656,239.056 34.137,240.338C35.707,241.149 37.46,242.056 39.017,242.863L43.457,245.166C44.824,246.244 46.253,247.383 47.743,248.58C48.538,249.221 49.287,250.432 49.989,252.219C50.658,253.919 50.564,255.633 49.714,257.362C48.842,259.138 47.544,260.067 45.811,260.158C45.707,260.161 45.634,260.27 45.67,260.367C46.184,261.832 46.379,262.774 46.379,263.203C46.379,267.688 40.536,270.776 38.875,269.623C38.74,269.529 38.632,269.482 38.524,269.507C38.401,269.536 38.328,269.659 38.361,269.782C38.828,271.586 39.276,273.767 38.372,275.854C37.781,277.218 36.561,278.01 35.001,278.01C34.188,278.01 33.598,277.663 33.598,277.663C33.453,277.616 33.305,277.724 33.301,277.876C33.28,278.845 32.997,279.948 32.459,281.182C32.035,282.155 31.316,282.965 30.299,283.619C28.965,284.48 27.768,284.039 26.317,283.97C25.713,283.475 25.09,282.984 24.444,282.502C23.709,281.953 23.117,281.438 22.672,280.961C20.455,278.589 18.751,276.552 17.377,273.767C17.286,273.583 17.221,273.388 17.185,273.185C16.969,271.977 16.592,270.874 16.053,269.876L18.606,266.924C18.719,266.794 18.726,266.606 18.628,266.465C17.298,264.553 16.06,262.461 14.928,260.183L14.245,256.056C15.035,257.828 15.681,259.616 17.478,261.275C17.556,261.347 17.655,261.387 17.757,261.348C19.532,260.588 20.743,259.417 21.38,257.828C21.468,257.612 21.442,257.362 21.308,257.167C21.308,257.167 17.673,253.217 16.592,253.626C17.673,253.217 19.055,254.356 20.082,254.747C19.869,254.1 19.427,253.3 18.755,252.342C18.541,252.038 18.48,251.619 18.567,251.087C19.903,252.632 20.372,251.948 20.555,251.833L20.563,251.828C21.902,251.087 22.824,250.081 23.641,248.852C23.768,248.664 23.782,248.425 23.681,248.222C22.961,246.768 21.797,245.636 20.23,244.754C19.442,244.31 17.876,244.754 17.216,245.305C17.216,245.305 16.939,245.462 16.748,245.879C16.633,245.732 16.505,245.564 16.487,245.485L19.652,242.899L24.353,243.687C25.223,244.865 25.745,244.768 26.509,244.358L26.552,244.334C28.053,243.387 28.964,242.143 29.287,240.602C29.384,240.135 29.211,239.654 28.835,239.361L28.736,239.29C28.51,239.127 27.927,238.705 27.333,238.283ZM17.558,268.587L17.55,268.585C17.307,268.754 17.177,269.047 17.221,269.341L17.225,269.362C17.511,270.972 18.241,272.516 19.413,274.002C19.829,274.53 20.249,274.557 20.813,274.118C21.769,273.375 22.746,272.595 23.127,271.507C23.171,271.384 23.145,271.246 23.062,271.142C21.963,269.764 21.253,269.178 19.767,268.342C18.883,267.845 18.019,268.134 17.558,268.587Z" style="fill:white;fill-opacity:0.95;"/>
    <path d="M33.139,239.823C31.132,238.791 29.614,238.022 29.543,237.987C28.675,237.556 27.902,237.561 27.333,238.283C26.945,238.007 26.552,237.731 26.251,237.526C26.817,237.139 27.605,236.531 27.822,236.378C31.146,234.012 33.084,232.638 33.638,232.258C35.768,230.786 37.724,229.824 39.978,229.683C40.317,229.66 40.923,230.03 41.357,230.421C38.507,233.653 34.804,237.866 33.139,239.823Z" style="fill:white;fill-opacity:0.85;"/>
    <path d="M19.652,242.899L22.158,240.714L24.353,243.687L19.652,242.899Z" style="fill:white;fill-opacity:0.85;"/>
    <path d="M40.256,241.539C41.381,242.509 42.589,243.87 43.457,245.166L39.094,242.903C39.42,242.52 39.81,242.062 40.256,241.539Z" style="fill:white;fill-opacity:0.75;"/>
    <path d="M18.567,251.087C17.713,250.186 17.084,249.033 16.682,247.629C16.656,247.532 16.637,247.44 16.624,247.352C16.506,246.678 16.601,246.203 16.747,245.883L16.752,245.883L16.748,245.879C16.939,245.462 17.216,245.305 17.216,245.305C17.876,244.754 19.442,244.31 20.23,244.754C21.797,245.636 22.961,246.768 23.681,248.222C23.782,248.425 23.768,248.664 23.641,248.852C22.824,250.081 21.796,251.072 20.563,251.828L20.555,251.833C20.372,251.948 19.903,252.632 18.567,251.087ZM15.029,254.578C15.416,254.191 15.937,253.874 16.592,253.626C17.673,253.217 21.308,257.167 21.308,257.167C21.442,257.362 21.468,257.612 21.38,257.828C20.743,259.417 19.532,260.588 17.757,261.348C17.655,261.387 17.556,261.347 17.478,261.275C15.681,259.616 15.035,257.828 14.245,256.056C14.353,255.484 14.614,254.991 15.029,254.578ZM23.062,271.142C23.145,271.246 23.171,271.384 23.127,271.507C22.746,272.595 21.769,273.375 20.813,274.118C20.249,274.557 19.829,274.53 19.413,274.002C18.241,272.516 17.528,270.968 17.225,269.362L17.221,269.341C17.187,269.104 17.318,268.823 17.558,268.587C18.019,268.134 18.883,267.845 19.767,268.342C21.253,269.178 21.963,269.764 23.062,271.142ZM24.353,243.687L22.158,240.714C21.154,238.184 24.314,236.369 25.806,237.236C25.896,237.288 26.053,237.391 26.251,237.526C27.011,238.044 28.362,239.02 28.736,239.29L28.835,239.361C29.211,239.654 29.384,240.135 29.287,240.602C28.965,242.143 28.053,243.387 26.552,244.334L26.509,244.358C25.745,244.768 25.223,244.865 24.353,243.687Z" style="fill:white;fill-opacity:0.5;"/>
    <path d="M23.641,248.852C22.824,250.081 21.902,251.087 20.563,251.828C21.796,251.072 22.824,250.081 23.641,248.852Z" style="fill:white;fill-opacity:0.95;"/>
    <path d="M16.747,245.883C16.747,245.881 16.748,245.88 16.748,245.879C16.75,245.88 16.751,245.882 16.752,245.883C16.75,245.883 16.748,245.883 16.747,245.883Z" style="fill:white;fill-opacity:0.95;"/>
    <path d="M15.029,254.578C14.614,254.991 14.353,255.484 14.245,256.056L14.928,260.183C14.107,261.094 13.294,261.966 12.48,262.794C11.652,263.637 11.184,264.299 11.073,264.773C10.561,266.946 11.159,268.579 12.921,270.223C14.034,271.262 15.08,271.145 16.053,269.876C16.592,270.874 16.969,271.977 17.185,273.185C17.221,273.388 17.286,273.583 17.377,273.767C18.751,276.552 20.455,278.589 22.672,280.961C23.117,281.438 23.709,281.953 24.444,282.502C25.09,282.984 25.713,283.475 26.317,283.97C22.751,284.404 19.16,284.354 15.547,283.818C13.934,283.58 12.559,283.214 11.42,282.726C9.821,282.039 7.811,281.305 6.548,280.321C4.009,278.343 2.262,275.297 1.214,272.223C-0.588,266.95 -0.656,261.883 2.885,257.279C4.02,255.803 5.438,254.27 7.138,252.675C8.769,251.145 11.887,248.75 16.487,245.485C16.505,245.564 16.633,245.732 16.748,245.879L16.747,245.883C16.601,246.203 16.506,246.678 16.624,247.352C16.637,247.44 16.656,247.532 16.682,247.629C17.084,249.033 17.713,250.186 18.567,251.087C18.48,251.619 18.541,252.038 18.755,252.342C19.427,253.3 19.869,254.1 20.082,254.747C19.055,254.356 17.673,253.217 16.592,253.626C15.937,253.874 15.416,254.191 15.029,254.578Z" style="fill:white;fill-opacity:0.85;"/>
    <path d="M14.928,260.183C16.06,262.461 17.298,264.553 18.628,266.465C18.726,266.606 18.719,266.794 18.606,266.924L16.053,269.876C15.08,271.145 14.034,271.262 12.921,270.223C11.159,268.579 10.561,266.946 11.073,264.773C11.184,264.299 11.652,263.637 12.48,262.794C13.294,261.966 14.107,261.094 14.928,260.183ZM33.139,239.823C36.037,236.418 45.101,226.184 45.117,226.168C49.331,221.48 53.616,216.666 57.971,211.722L62.401,206.753C71.997,195.979 159.344,97.633 159.344,97.633C159.688,97.34 160.201,97.094 160.889,96.902L161.637,97.853C161.814,98.074 161.879,98.367 161.818,98.645L161.565,99.796L82.814,191.635C78.753,196.377 76.246,199.295 75.291,200.391C75.111,200.597 74.948,200.822 74.807,201.06L74.785,201.093L70.062,206.731L65.656,211.73C65.656,211.73 44.264,236.828 39.094,242.903L39.017,242.863C37.46,242.056 35.707,241.149 34.137,240.338L33.139,239.823Z" style="fill:white;fill-opacity:0.5;"/>
</svg>
