<?xml version="1.0" encoding="UTF-8" standalone="no"?>
<!DOCTYPE svg PUBLIC "-//W3C//DTD SVG 1.1//EN" "http://www.w3.org/Graphics/SVG/1.1/DTD/svg11.dtd">
<svg width="100%" height="100%" viewBox="0 0 300 300" version="1.1" xmlns="http://www.w3.org/2000/svg" xmlns:xlink="http://www.w3.org/1999/xlink" xml:space="preserve" xmlns:serif="http://www.serif.com/" style="fill-rule:evenodd;clip-rule:evenodd;stroke-linejoin:round;stroke-miterlimit:2;">
    <path d="M136.763,104.93C136.632,104.898 136.495,104.917 136.376,104.985C136.027,105.183 135.733,105.563 135.257,105.912C130.644,109.291 125.677,111.962 120.35,113.917C97.964,122.137 72.622,115.792 56.721,98.147C50.402,91.134 46.011,83.056 43.549,73.909C41.729,67.148 41.173,60.152 41.882,52.921C42.049,51.219 42.247,49.481 42.48,47.709C43.175,44.343 44.157,41.013 45.427,37.72C48.988,28.496 54.481,20.664 61.913,14.221C64.828,11.696 68.197,9.361 72.024,7.22C94.509,-5.347 123.505,-1.175 141.652,17.132C154.159,29.751 160.292,46.848 158.571,64.599C157.688,73.701 154.837,82.106 150.022,89.81C149.929,89.957 149.9,90.136 149.939,90.309L154.149,108.939C154.153,108.959 154.154,108.978 154.151,108.996C154.139,109.077 154.065,109.138 153.979,109.128C153.89,109.118 136.763,104.93 136.763,104.93ZM48.687,59.559C48.687,59.655 48.729,59.742 48.809,59.825C53.201,64.215 59.338,70.367 67.218,78.279C67.359,78.42 67.599,78.321 67.599,78.122L67.599,67.664C67.599,67.593 67.656,67.536 67.727,67.532C68.815,67.526 74.337,67.523 84.296,67.523C94.256,67.523 99.778,67.526 100.866,67.532C100.937,67.536 100.994,67.593 100.994,67.664L100.994,78.122C100.994,78.321 101.234,78.42 101.375,78.279C109.255,70.364 115.391,64.215 119.784,59.822C119.864,59.742 119.906,59.652 119.906,59.559C119.906,59.467 119.864,59.377 119.784,59.294C115.391,54.904 109.255,48.755 101.375,40.84C101.234,40.699 100.994,40.798 100.994,40.997L100.994,51.455C100.994,51.526 100.937,51.587 100.866,51.587C99.778,51.593 94.256,51.596 84.296,51.599C74.337,51.599 68.811,51.593 67.727,51.587C67.656,51.587 67.599,51.529 67.599,51.455L67.599,40.997C67.599,40.798 67.359,40.702 67.218,40.843C59.338,48.755 53.201,54.908 48.809,59.297C48.729,59.38 48.687,59.467 48.687,59.559ZM132.043,69.46C129.824,69.186 127.799,70.796 127.522,73.05C127.245,75.307 128.819,77.355 131.041,77.628C133.26,77.902 135.285,76.292 135.562,74.038C135.839,71.781 134.265,69.734 132.043,69.46ZM130.009,64.79L136.012,65.766C136.156,65.789 136.293,65.693 136.316,65.549C136.527,64.285 137.131,63.223 138.13,62.369C139.784,60.948 141.975,59.604 143.389,58.574C145.77,56.837 147.145,54.556 147.52,51.731C147.737,50.08 147.565,48.634 147.002,47.392C144.893,42.75 139.764,41.045 135.103,40.523C130.125,39.966 125.473,41.054 121.784,44.525C121.701,44.605 121.701,44.74 121.787,44.82L125.873,48.586C125.991,48.694 126.177,48.688 126.285,48.573C127.322,47.472 128.592,46.727 130.093,46.333C132.79,45.632 136.354,45.869 138.686,47.622C140.276,48.816 140.894,50.323 140.539,52.14C140.238,53.673 139.291,54.712 138.056,55.576C135.912,57.077 134.86,57.707 133.426,58.824C131.484,60.34 130.15,62.052 129.808,64.519C129.789,64.65 129.878,64.768 130.009,64.79Z" style="fill:white;fill-opacity:0.95;"/>
    <path d="M130.009,64.79C129.878,64.768 129.789,64.65 129.808,64.519C130.15,62.052 131.484,60.34 133.426,58.824C134.86,57.707 135.912,57.077 138.056,55.576C139.291,54.712 140.238,53.673 140.539,52.14C140.894,50.323 140.276,48.816 138.686,47.622C136.354,45.869 132.79,45.632 130.093,46.333C128.592,46.727 127.322,47.472 126.285,48.573C126.177,48.688 125.991,48.694 125.873,48.586L121.787,44.82C121.701,44.74 121.701,44.605 121.784,44.525C125.473,41.054 130.125,39.966 135.103,40.523C139.764,41.045 144.893,42.75 147.002,47.392C147.565,48.634 147.737,50.08 147.52,51.731C147.145,54.556 145.77,56.837 143.389,58.574C141.975,59.604 139.784,60.948 138.13,62.369C137.131,63.223 136.527,64.285 136.316,65.549C136.293,65.693 136.156,65.789 136.012,65.766L130.009,64.79Z" style="fill:white;fill-opacity:0.25;fill-rule:nonzero;"/>
    <path d="M84.296,51.599C94.256,51.596 99.778,51.593 100.866,51.587C100.937,51.587 100.994,51.526 100.994,51.455L100.994,40.997C100.994,40.798 101.234,40.699 101.375,40.84C109.255,48.755 115.391,54.904 119.784,59.294C119.864,59.377 119.906,59.467 119.906,59.559C119.906,59.652 119.864,59.742 119.784,59.822C115.391,64.215 109.255,70.364 101.375,78.279C101.234,78.42 100.994,78.321 100.994,78.122L100.994,67.664C100.994,67.593 100.937,67.536 100.866,67.532C99.778,67.526 94.256,67.523 84.296,67.523C74.337,67.523 68.815,67.526 67.727,67.532C67.656,67.536 67.599,67.593 67.599,67.664L67.599,78.122C67.599,78.321 67.359,78.42 67.218,78.279C59.338,70.367 53.201,64.215 48.809,59.825C48.729,59.742 48.687,59.655 48.687,59.559C48.687,59.467 48.729,59.38 48.809,59.297C53.201,54.908 59.338,48.755 67.218,40.843C67.359,40.702 67.599,40.798 67.599,40.997L67.599,51.455C67.599,51.529 67.656,51.587 67.727,51.587C68.811,51.593 74.337,51.599 84.296,51.599Z" style="fill:white;fill-opacity:0.5;fill-rule:nonzero;"/>
    <path d="M154.151,108.996C154.243,109.247 154.03,109.807 154.018,109.838L152.181,114.512C152.121,114.666 151.957,114.752 151.797,114.714L134.597,110.58C134.498,110.558 134.393,110.577 134.313,110.635C132.566,111.86 130.889,113.162 129.398,114.084C122.708,118.217 115.67,120.937 108.279,122.242C88.213,125.79 67.64,118.553 54.209,103.375C47.948,96.305 43.373,87.455 41.133,78.164C38.961,69.161 38.99,59.915 41.22,50.425C41.488,49.28 41.908,48.374 42.48,47.709C42.247,49.481 42.049,51.219 41.882,52.921C41.173,60.152 41.729,67.148 43.549,73.909C46.011,83.056 50.402,91.134 56.721,98.147C72.622,115.792 97.964,122.137 120.35,113.917C125.677,111.962 130.644,109.291 135.257,105.912C135.733,105.563 136.027,105.183 136.376,104.985C136.495,104.917 136.632,104.898 136.763,104.93C136.763,104.93 153.89,109.118 153.979,109.128C154.065,109.138 154.139,109.077 154.151,108.996Z" style="fill:white;fill-opacity:0.25;"/>
    <path d="M132.043,69.46C134.265,69.734 135.839,71.781 135.562,74.038C135.285,76.292 133.26,77.902 131.041,77.628C128.819,77.355 127.245,75.307 127.522,73.05C127.799,70.796 129.824,69.186 132.043,69.46Z" style="fill:white;fill-opacity:0.25;fill-rule:nonzero;"/>
    <path d="M238.101,130.036C238.143,127.835 238.255,125.445 237.529,123.493C237.039,122.181 236.015,120.482 234.588,120.444C233.702,120.418 233.219,120.39 233.139,120.361C232.25,120.031 231.728,119.631 231.578,119.168C229.328,112.27 226.171,105.679 222.111,99.392C221.068,97.776 219.535,98.016 218.355,99.302C218.307,99.357 217.526,100.128 216.019,101.612C213.475,104.118 210.503,106.584 207.109,109.016C204.856,110.628 202.457,112.017 199.907,113.178C199.398,113.412 198.905,113.591 198.429,113.722C193.338,115.351 188.28,115.891 183.084,116.611C179.536,117.101 175.451,117.808 174.388,121.884C173.569,125.032 174.353,128.766 175.47,131.783C176.922,135.708 178.269,139.637 178.832,143.896C179.235,146.929 179.715,149.763 180.56,152.093C182.221,156.664 185.292,159.985 189.774,162.052C191.732,162.951 193.178,163.527 194.116,163.78C197.629,164.717 201.452,165.872 202.194,169.788C202.348,170.598 202.265,171.66 202.37,172.61C201.094,174.738 199.414,176.645 197.325,178.337C194.916,180.289 192.257,181.425 189.346,181.748C188.069,181.889 186.191,181.767 183.705,181.383C181.763,181.082 179.792,180.766 177.796,180.433L173.928,156.54C173.88,156.239 173.595,156.031 173.291,156.079L158.039,158.527C157.236,155.887 156.168,153.391 154.84,151.04C153.57,148.797 152.076,146.218 150.354,143.307C148.678,140.472 146.941,136.972 146.515,133.84C146.131,131.021 146.448,128.283 147.462,125.617C149.382,120.578 153.477,116.291 157.857,113.082C159.735,111.71 160.992,110.747 161.636,110.2C164.509,107.749 167.087,104.556 169.266,101.34C171.787,97.626 173.812,94.855 175.345,93.022C177.06,90.974 179.06,89.068 181.347,87.298C186.495,83.318 192.238,80.189 198.489,79.06C207.035,77.518 215.709,80.33 221.688,86.604C222.197,87.135 222.949,87.669 223.947,88.21C224.037,88.258 224.133,88.293 224.232,88.316C225.934,88.706 227.348,89.346 228.471,90.239C230.765,92.053 232.585,94.366 233.936,97.172C236.044,101.552 237.247,106.642 237.775,111.707C238.178,115.555 238.389,118.832 238.405,121.541C238.415,123.093 238.312,125.925 238.101,130.036Z" style="fill:white;fill-opacity:0.35;fill-rule:nonzero;"/>
    <path d="M238.101,130.036L237.964,130.98C237.029,132.951 235.798,134.55 234.268,135.779C234.054,135.952 233.92,136.201 233.9,136.473C233.59,140.645 232.621,144.731 230.992,148.733C230.547,149.827 230.084,150.736 229.597,151.456C228.03,153.772 225.761,155.887 224.389,157.73C222.869,159.774 221.915,162.078 221.532,164.641C221.004,168.15 221.778,171.75 222.667,175.227C224.008,180.478 226.868,186.057 231.894,188.521C232.672,188.902 233.923,189.225 235.647,189.49C237.397,189.762 239.067,190.031 240.664,190.29C242.625,190.812 243.908,191.272 244.519,191.669C246.314,192.837 247.671,194.446 248.586,196.491C250.093,199.86 250.979,202.995 252.076,207.317C253.609,213.364 256.232,220.822 257.682,227.538C258.798,232.724 259.633,237.177 260.187,240.898C260.379,242.191 260.475,243.656 260.475,245.294C260.475,245.617 260.347,245.928 260.12,246.158C259.521,246.763 258.766,247.275 257.854,247.691C257.653,247.591 257.515,247.428 257.448,247.208C257.4,247.044 257.211,246.968 257.061,247.051C255.116,248.116 253.068,249.098 250.918,250.004C250.432,250.209 249.526,250.455 248.199,250.74C247.434,250.906 246.82,251.325 246.186,251.325C245.793,251.322 245.274,251.402 244.638,251.565C243.918,251.747 243.476,251.863 243.319,251.911C243.147,251.965 242.968,251.994 242.788,251.991C242.03,251.978 241.486,251.987 241.157,252.023C240.878,252.051 240.498,252.272 240.181,252.279C238.284,252.32 236.988,252.336 236.297,252.327C235.897,252.32 235.548,252.522 235.295,252.544C235.183,252.554 235.068,252.522 234.975,252.451C234.719,252.259 234.422,252.266 234.086,252.474C234,252.525 233.891,252.525 233.808,252.471C233.683,252.397 233.561,252.355 233.443,252.352C232.246,252.317 231.149,252.391 230.813,252.186C230.656,252.093 230.525,252.103 230.416,252.221C230.333,252.311 230.199,252.327 230.096,252.259C229.965,252.173 229.757,252.106 229.466,252.061C228.193,251.866 227.089,251.799 226.151,251.866C224.485,251.975 222.834,251.747 221.199,251.188C220.997,251.117 220.85,250.944 220.818,250.736C219.442,242.156 217.759,235.83 215.213,225.397C214.72,223.382 214.266,220.499 213.779,218.813C213.693,218.509 213.587,218.291 213.466,218.167C213.325,218.026 213.098,218.032 212.97,218.183C212.42,218.832 212.087,220.297 211.997,221.267C211.789,223.551 211.757,225.637 211.898,227.522C212.496,235.475 212.9,242.895 213.104,249.783C212.474,249.342 211.898,249.038 211.37,248.874C211.319,248.858 211.271,248.833 211.226,248.804L204.763,244.162C204.744,244.146 204.722,244.136 204.7,244.127C203.842,243.762 203.145,243.33 202.607,242.831C202.527,242.76 202.428,242.719 202.322,242.712C202.063,242.703 201.462,242.354 200.515,241.669C195.946,238.361 191.227,234.896 186.357,231.275C186.047,231.044 185.858,230.852 185.791,230.699L177.796,180.433C179.792,180.766 181.763,181.082 183.705,181.383C186.191,181.767 188.069,181.889 189.346,181.748C192.257,181.425 194.916,180.289 197.325,178.337C199.414,176.645 201.094,174.738 202.37,172.61C204.444,169.721 205.896,167.328 206.725,165.424C207.806,162.935 208.926,160.043 208.878,157.295C208.849,155.621 208.865,153.945 208.926,152.259C211.738,150.56 213.507,148.112 214.227,144.91C214.371,144.27 214.279,143.678 213.955,143.137C213.792,142.865 213.405,142.776 213.044,142.923C212.368,143.201 211.738,143.624 211.156,144.187C210.433,144.884 209.595,145.678 208.638,146.57C208.206,144.468 207.624,142.638 206.885,141.083C205.567,138.303 202.594,140.991 200.582,141.103C200.393,141.112 200.211,141.026 200.102,140.872C199.804,140.456 199.58,139.944 199.43,139.34C198.864,137.065 198.451,134.627 198.195,132.019C198.15,131.568 198.067,131.05 197.946,130.465C197.923,130.362 197.917,130.26 197.923,130.154C197.958,129.582 197.933,128.926 197.85,128.19C197.654,126.472 197.699,124.885 197.693,123.186C197.686,121.785 197.93,120.396 197.914,118.876C197.914,118.771 197.926,118.668 197.955,118.569C198.131,117.929 198.221,117.261 198.224,116.566C198.227,116.432 198.246,116.298 198.288,116.17C198.569,115.28 198.617,114.464 198.429,113.722C198.905,113.591 199.398,113.412 199.907,113.178C202.457,112.017 204.856,110.628 207.109,109.016C210.503,106.584 213.475,104.118 216.019,101.612C217.526,100.128 218.307,99.357 218.355,99.302C219.535,98.016 221.068,97.776 222.111,99.392C226.171,105.679 229.328,112.27 231.578,119.168C231.728,119.631 232.25,120.031 233.139,120.361C233.219,120.39 233.702,120.418 234.588,120.444C236.015,120.482 237.039,122.181 237.529,123.493C238.255,125.445 238.143,127.835 238.101,130.036ZM214.083,120.342C214.032,120.182 213.875,120.047 213.616,119.942C210.858,118.8 208.171,118.284 205.551,118.396C203.794,118.47 201.83,118.835 200.393,119.974C200.006,120.281 200.192,120.902 200.684,120.946C200.918,120.969 201.311,120.956 201.868,120.911C202.693,120.844 204.258,120.671 206.565,120.39C208.974,120.095 211.367,120.198 213.738,120.7C213.959,120.748 214.151,120.546 214.083,120.342ZM205.934,124.419C205.16,124.613 204.885,126.181 205.322,127.918C205.759,129.655 206.741,130.906 207.515,130.712C208.289,130.519 208.564,128.951 208.127,127.214C207.691,125.477 206.709,124.226 205.934,124.419Z" style="fill:white;fill-opacity:0.95;fill-rule:nonzero;"/>
    <path d="M198.429,113.722C198.617,114.464 198.569,115.28 198.288,116.17C198.246,116.298 198.227,116.432 198.224,116.566C198.221,117.261 198.131,117.929 197.955,118.569C197.926,118.668 197.914,118.771 197.914,118.876C197.93,120.396 197.686,121.785 197.693,123.186C197.699,124.885 197.654,126.472 197.85,128.19C197.933,128.926 197.958,129.582 197.923,130.154C197.917,130.26 197.923,130.362 197.946,130.465C198.067,131.05 198.15,131.568 198.195,132.019C198.451,134.627 198.864,137.065 199.43,139.34C199.58,139.944 199.804,140.456 200.102,140.872C200.211,141.026 200.393,141.112 200.582,141.103C202.594,140.991 205.567,138.303 206.885,141.083C207.624,142.638 208.206,144.468 208.638,146.57C207.467,147.578 206.142,148.432 204.661,149.133C203.212,149.815 200.995,150.726 200.329,152.064C200.14,152.444 200.278,152.912 200.649,153.145C201.046,153.391 201.545,153.558 202.15,153.644C204.613,153.996 206.872,153.535 208.926,152.259C208.865,153.945 208.849,155.621 208.878,157.295C208.926,160.043 207.806,162.935 206.725,165.424C205.896,167.328 204.444,169.721 202.37,172.61C202.265,171.66 202.348,170.598 202.194,169.788C201.452,165.872 197.629,164.717 194.116,163.78C193.178,163.527 191.732,162.951 189.774,162.052C185.292,159.985 182.221,156.664 180.56,152.093C179.715,149.763 179.235,146.929 178.832,143.896C178.269,139.637 176.922,135.708 175.47,131.783C174.353,128.766 173.569,125.032 174.388,121.884C175.451,117.808 179.536,117.101 183.084,116.611C188.28,115.891 193.338,115.351 198.429,113.722ZM181.529,128.551C183.478,127.182 185.877,126.123 188.443,125.317C189.694,124.923 191.23,124.472 191.694,123.887C191.959,123.551 191.758,123.055 191.332,122.997C187.682,122.517 183.222,125.339 181.126,128.135C181.04,128.251 181.05,128.411 181.152,128.516C181.251,128.619 181.411,128.635 181.529,128.551ZM191.419,128.918C190.648,129.111 190.376,130.676 190.813,132.412C191.249,134.147 192.228,135.398 192.999,135.204C193.77,135.011 194.042,133.446 193.605,131.71C193.169,129.975 192.19,128.724 191.419,128.918Z" style="fill:white;fill-opacity:0.75;fill-rule:nonzero;"/>
    <path d="M214.083,120.342C214.151,120.546 213.959,120.748 213.738,120.7C211.367,120.198 208.974,120.095 206.565,120.39C204.258,120.671 202.693,120.844 201.868,120.911C201.311,120.956 200.918,120.969 200.684,120.946C200.192,120.902 200.006,120.281 200.393,119.974C201.83,118.835 203.794,118.47 205.551,118.396C208.171,118.284 210.858,118.8 213.616,119.942C213.875,120.047 214.032,120.182 214.083,120.342Z" style="fill:white;fill-opacity:0.15;fill-rule:nonzero;"/>
    <path d="M181.529,128.551C181.411,128.635 181.251,128.619 181.152,128.516C181.05,128.411 181.04,128.251 181.126,128.135C183.222,125.339 187.682,122.517 191.332,122.997C191.758,123.055 191.959,123.551 191.694,123.887C191.23,124.472 189.694,124.923 188.443,125.317C185.877,126.123 183.478,127.182 181.529,128.551Z" style="fill:white;fill-opacity:0.15;fill-rule:nonzero;"/>
    <path d="M205.934,124.419C206.709,124.226 207.691,125.477 208.127,127.214C208.564,128.951 208.289,130.519 207.515,130.712C206.741,130.906 205.759,129.655 205.322,127.918C204.885,126.181 205.16,124.613 205.934,124.419Z" style="fill:white;fill-opacity:0.15;fill-rule:nonzero;"/>
    <path d="M191.419,128.918C192.19,128.724 193.169,129.975 193.605,131.71C194.042,133.446 193.77,135.011 192.999,135.204C192.228,135.398 191.249,134.147 190.813,132.412C190.376,130.676 190.648,129.111 191.419,128.918Z" style="fill:white;fill-opacity:0.15;fill-rule:nonzero;"/>
    <path d="M237.964,130.98C237.983,131.418 237.951,132.407 237.871,133.939C237.455,141.864 240.645,148.442 243.982,156.482C245.978,161.288 248.787,165.962 249.683,171.055C250.688,176.776 247.575,182.474 243.844,186.956C242.731,188.294 241.672,189.404 240.664,190.29C239.067,190.031 237.397,189.762 235.647,189.49C233.923,189.225 232.672,188.902 231.894,188.521C226.868,186.057 224.008,180.478 222.667,175.227C221.778,171.75 221.004,168.15 221.532,164.641C221.915,162.078 222.869,159.774 224.389,157.73C225.761,155.887 228.03,153.772 229.597,151.456C230.084,150.736 230.547,149.827 230.992,148.733C232.621,144.731 233.59,140.645 233.9,136.473C233.92,136.201 234.054,135.952 234.268,135.779C235.798,134.55 237.029,132.951 237.964,130.98Z" style="fill:white;fill-opacity:0.35;fill-rule:nonzero;"/>
    <path d="M208.926,152.259C206.872,153.535 204.613,153.996 202.15,153.644C201.545,153.558 201.046,153.391 200.649,153.145C200.278,152.912 200.14,152.444 200.329,152.064C200.995,150.726 203.212,149.815 204.661,149.133C206.142,148.432 207.467,147.578 208.638,146.57C209.595,145.678 210.433,144.884 211.156,144.187C211.738,143.624 212.368,143.201 213.044,142.923C213.405,142.776 213.792,142.865 213.955,143.137C214.279,143.678 214.371,144.27 214.227,144.91C213.507,148.112 211.738,150.56 208.926,152.259Z" style="fill:white;fill-opacity:0.15;fill-rule:nonzero;"/>
    <path d="M177.796,180.433L185.791,230.699C184.809,229.998 183.996,229.003 183.359,227.707C183.024,227.026 182.63,226.06 182.182,224.802C181.289,222.303 179.869,219.785 177.917,217.248C176.401,215.274 175.124,213.777 174.088,212.75C173.419,212.085 172.434,211.832 171.131,211.995C170.095,212.123 170.232,212.891 170.485,213.655C171.032,215.329 171.413,216.538 171.634,217.277C172.021,218.595 172.498,222.79 170.354,223.033C168.629,223.228 166.588,221.907 165.238,220.717C163.798,219.446 162.429,218.042 161.133,216.503C160.932,216.266 160.41,215.722 159.569,214.874C159.034,214.34 158.548,213.767 158.103,213.153L170.85,210.891C171.122,210.843 171.301,210.578 171.24,210.306C171.16,209.944 171.099,209.627 171.055,209.359C170.799,207.82 170.517,206.294 170.207,204.774C170.143,204.457 170.092,204.105 170.056,203.712C169.999,203.053 169.653,202.438 169.695,201.808C169.736,201.159 169.426,200.384 169.314,199.658C169.103,198.257 168.869,196.935 168.617,195.697C168.505,195.144 168.569,194.437 168.421,194.014C168.39,193.925 168.316,193.854 168.226,193.829C167.474,193.598 166.793,193.947 165.961,194.091C158.958,195.297 151.545,196.587 143.725,197.959C142.788,198.126 141.991,198.158 141.249,198.42C141.124,198.465 140.99,198.487 140.855,198.487C140.264,198.487 139.694,198.583 139.144,198.772C139.051,198.804 138.958,198.826 138.862,198.836C138.13,198.919 136.866,199.127 135.071,199.463C133.999,199.661 132.995,199.68 132.23,199.978C132.079,200.036 131.92,200.064 131.76,200.064C131.148,200.061 130.518,200.176 129.875,200.41C129.859,200.416 129.846,200.419 129.83,200.423L128.029,200.634C127.943,200.643 127.863,200.586 127.847,200.499L126.122,190.447C126.074,190.169 125.716,190.085 125.55,190.316L109.844,212.228C109.728,212.392 109.767,212.619 109.93,212.734C124.625,223.078 132.092,228.334 132.335,228.507C132.39,228.549 132.457,228.552 132.537,228.517C132.668,228.462 132.723,228.369 132.7,228.238C131.894,223.644 131.43,220.953 131.308,220.163C131.18,219.334 131.027,218.675 130.851,218.186C130.8,218.039 130.893,217.879 131.046,217.853L151.295,214.302L152.962,216.308C153.228,216.624 153.144,217.101 152.792,217.316C149.254,219.453 148.3,225.036 148.652,228.776C148.94,231.822 150.297,234.24 152.722,236.029C154.111,237.053 155.195,237.795 155.979,238.259C157.307,239.043 159.086,239.923 161.319,240.895C163.587,241.884 166.86,243.08 171.138,244.488C171.669,244.664 172.29,244.926 173,245.278C173.182,245.371 173.304,245.48 173.361,245.608C173.249,245.739 173.15,245.813 173.067,245.825C169.791,246.309 166.518,246.804 163.245,247.313C163.075,247.339 163.002,247.428 163.021,247.585C162.73,247.499 162.458,247.476 162.199,247.518C144.893,250.285 127.495,253.069 110.004,255.862C109.818,255.891 109.639,255.782 109.581,255.603C109.517,255.401 109.466,255.184 109.425,254.944C109.393,254.742 104.923,226.792 96.016,171.091C95.888,170.294 95.817,169.532 95.801,168.809C95.798,168.605 95.945,168.429 96.147,168.397L103.099,167.318C103.064,167.376 103.061,167.466 103.09,167.59C103.112,167.67 103.106,167.754 103.08,167.83C101.5,172.428 104.12,176.638 108.007,179.092C110.8,180.855 113.853,181.892 117.167,182.196C120.578,182.506 124.129,182.186 127.37,180.945C128.199,180.628 128.717,180.103 128.931,179.374C128.963,179.271 128.97,179.163 128.95,179.054C128.787,178.097 128.615,177.387 128.426,176.929C126.826,173.013 125.076,169.491 125.62,165.674C125.706,165.069 126.036,164.756 126.602,164.737C127.991,164.689 131.414,164.33 131.852,162.727L158.039,158.527L173.291,156.079C173.595,156.031 173.88,156.239 173.928,156.54L177.796,180.433Z" style="fill:white;fill-opacity:0.65;fill-rule:nonzero;"/>
    <path d="M131.852,162.727C131.414,164.33 127.991,164.689 126.602,164.737C126.036,164.756 125.706,165.069 125.62,165.674C125.076,169.491 126.826,173.013 128.426,176.929C128.615,177.387 128.787,178.097 128.95,179.054C128.97,179.163 128.963,179.271 128.931,179.374C128.717,180.103 128.199,180.628 127.37,180.945C124.129,182.186 120.578,182.506 117.167,182.196C113.853,181.892 110.8,180.855 108.007,179.092C104.12,176.638 101.5,172.428 103.08,167.83C103.106,167.754 103.112,167.67 103.09,167.59C103.061,167.466 103.064,167.376 103.099,167.318C103.192,167.223 103.326,167.159 103.387,167.043C104.929,164.135 108.065,162.286 111.117,161.32C115.254,160.011 119.426,159.803 123.636,160.693C124.004,160.773 124.382,160.808 124.759,160.805C126.657,160.785 128.458,160.98 130.166,161.393C130.988,161.592 131.552,162.036 131.852,162.727Z" style="fill:white;fill-opacity:0.85;fill-rule:nonzero;"/>
    <path d="M158.103,213.153C158.011,213.016 157.876,212.878 157.703,212.74C157.515,212.587 157.374,212.459 157.278,212.356C154.178,209.019 151.74,206.242 149.958,204.022C149.641,203.628 148.822,202.848 148.227,203.12C146.861,203.737 146.387,204.729 146.806,206.095C147.318,207.762 147.632,208.706 147.75,208.93C148.368,210.107 149.551,211.899 151.295,214.302L131.046,217.853C130.893,217.879 130.8,218.039 130.851,218.186C131.027,218.675 131.18,219.334 131.308,220.163C131.43,220.953 131.894,223.644 132.7,228.238C132.723,228.369 132.668,228.462 132.537,228.517C132.457,228.552 132.39,228.549 132.335,228.507C132.092,228.334 124.625,223.078 109.93,212.734C109.767,212.619 109.728,212.392 109.844,212.228L125.55,190.316C125.716,190.085 126.074,190.169 126.122,190.447L127.847,200.499C127.863,200.586 127.943,200.643 128.029,200.634L129.83,200.423C129.846,200.419 129.859,200.416 129.875,200.41C130.518,200.176 131.148,200.061 131.76,200.064C131.92,200.064 132.079,200.036 132.23,199.978C132.995,199.68 133.999,199.661 135.071,199.463C136.866,199.127 138.13,198.919 138.862,198.836C138.958,198.826 139.051,198.804 139.144,198.772C139.694,198.583 140.264,198.487 140.855,198.487C140.99,198.487 141.124,198.465 141.249,198.42C141.991,198.158 142.788,198.126 143.725,197.959C151.545,196.587 158.958,195.297 165.961,194.091C166.793,193.947 167.474,193.598 168.226,193.829C168.316,193.854 168.39,193.925 168.421,194.014C168.569,194.437 168.505,195.144 168.617,195.697C168.869,196.935 169.103,198.257 169.314,199.658C169.426,200.384 169.736,201.159 169.695,201.808C169.653,202.438 169.999,203.053 170.056,203.712C170.092,204.105 170.143,204.457 170.207,204.774C170.517,206.294 170.799,207.82 171.055,209.359C171.099,209.627 171.16,209.944 171.24,210.306C171.301,210.578 171.122,210.843 170.85,210.891L158.103,213.153Z" style="fill:white;fill-opacity:0.25;fill-rule:nonzero;"/>
    <path d="M158.103,213.153C158.548,213.767 159.034,214.34 159.569,214.874C160.41,215.722 160.932,216.266 161.133,216.503C162.429,218.042 163.798,219.446 165.238,220.717C166.588,221.907 168.629,223.228 170.354,223.033C172.498,222.79 172.021,218.595 171.634,217.277C171.413,216.538 171.032,215.329 170.485,213.655C170.232,212.891 170.095,212.123 171.131,211.995C172.434,211.832 173.419,212.085 174.088,212.75C175.124,213.777 176.401,215.274 177.917,217.248C179.869,219.785 181.289,222.303 182.182,224.802C182.63,226.06 183.024,227.026 183.359,227.707C183.996,229.003 184.809,229.998 185.791,230.699C185.858,230.852 186.047,231.044 186.357,231.275C191.227,234.896 195.946,238.361 200.515,241.669C201.462,242.354 202.063,242.703 202.322,242.712C202.428,242.719 202.527,242.76 202.607,242.831C203.145,243.33 203.842,243.762 204.7,244.127C204.722,244.136 204.744,244.146 204.763,244.162L211.226,248.804C211.271,248.833 211.319,248.858 211.37,248.874C211.898,249.038 212.474,249.342 213.104,249.783L225.208,257.65C225.438,257.801 225.678,257.932 225.931,258.05L227.041,258.565C227.214,258.645 227.396,258.479 227.332,258.3C227.131,257.753 227.015,257.385 226.99,257.196C226.743,255.401 226.462,253.626 226.151,251.866C227.089,251.799 228.193,251.866 229.466,252.061C229.757,252.106 229.965,252.173 230.096,252.259C230.199,252.327 230.333,252.311 230.416,252.221C230.525,252.103 230.656,252.093 230.813,252.186C231.149,252.391 232.246,252.317 233.443,252.352C233.561,252.355 233.683,252.397 233.808,252.471C233.891,252.525 234,252.525 234.086,252.474C234.422,252.266 234.719,252.259 234.975,252.451C235.068,252.522 235.183,252.554 235.295,252.544C235.548,252.522 235.897,252.32 236.297,252.327C236.988,252.336 238.284,252.32 240.181,252.279C240.498,252.272 240.878,252.051 241.157,252.023C241.486,251.987 242.03,251.978 242.788,251.991C242.968,251.994 243.147,251.965 243.319,251.911C243.476,251.863 243.918,251.747 244.638,251.565C245.274,251.402 245.793,251.322 246.186,251.325C246.82,251.325 247.434,250.906 248.199,250.74C249.526,250.455 250.432,250.209 250.918,250.004C253.068,249.098 255.116,248.116 257.061,247.051C257.211,246.968 257.4,247.044 257.448,247.208C257.515,247.428 257.653,247.591 257.854,247.691C257.678,247.828 257.602,247.956 257.618,248.078C258.078,251.332 258.43,254.147 258.261,257.356C258.146,259.512 257.906,262.35 257.544,265.866C257.342,267.805 256.952,269.287 256.786,270.739C256.607,272.323 256.184,273.542 255.692,275.429C255.343,276.77 254.581,278.494 253.414,280.609C253.318,280.785 253.19,280.942 253.039,281.073C252.012,281.975 251.267,282.89 250.275,283.668C248.877,284.765 247.277,285.764 245.479,286.663C243.319,287.741 240.267,288.045 238.114,288.259C236.153,288.454 233.696,288.224 230.736,287.571C230.304,287.389 229.853,287.229 229.383,287.098C228.804,286.935 228.349,286.787 228.023,286.653C226.065,285.847 224.309,285.005 222.757,284.132C219.343,282.212 215.577,279.937 211.457,277.308C210.439,276.658 206.75,273.98 200.393,269.267C198.029,267.514 195.706,265.652 193.428,263.678C192.308,262.709 191.576,262.069 191.23,261.765C189.15,259.938 188.136,258.959 186.62,257.641C184.044,255.395 181.84,252.902 179.415,250.768C178.82,250.244 178.221,249.566 177.617,248.73C177.546,248.634 177.46,248.554 177.357,248.497C176.862,248.206 176.526,247.841 176.35,247.403C176.308,247.3 176.247,247.243 176.161,247.23C176.071,247.214 175.998,247.252 175.937,247.345C175.812,247.086 175.582,246.814 175.252,246.532C174.571,245.95 173.94,245.643 173.361,245.608C173.304,245.48 173.182,245.371 173,245.278C172.29,244.926 171.669,244.664 171.138,244.488C166.86,243.08 163.587,241.884 161.319,240.895C159.086,239.923 157.307,239.043 155.979,238.259C155.195,237.795 154.111,237.053 152.722,236.029C150.297,234.24 148.94,231.822 148.652,228.776C148.3,225.036 149.254,219.453 152.792,217.316C153.144,217.101 153.228,216.624 152.962,216.308L151.295,214.302C149.551,211.899 148.368,210.107 147.75,208.93C147.632,208.706 147.318,207.762 146.806,206.095C146.387,204.729 146.861,203.737 148.227,203.12C148.822,202.848 149.641,203.628 149.958,204.022C151.74,206.242 154.178,209.019 157.278,212.356C157.374,212.459 157.515,212.587 157.703,212.74C157.876,212.878 158.011,213.016 158.103,213.153Z" style="fill:white;fill-opacity:0.85;fill-rule:nonzero;"/>
    <path d="M226.151,251.866C226.462,253.626 226.743,255.401 226.99,257.196C227.015,257.385 227.131,257.753 227.332,258.3C227.396,258.479 227.214,258.645 227.041,258.565L225.931,258.05C225.678,257.932 225.438,257.801 225.208,257.65L213.104,249.783C212.9,242.895 212.496,235.475 211.898,227.522C211.757,225.637 211.789,223.551 211.997,221.267C212.087,220.297 212.42,218.832 212.97,218.183C213.098,218.032 213.325,218.026 213.466,218.167C213.587,218.291 213.693,218.509 213.779,218.813C214.266,220.499 214.72,223.382 215.213,225.397C217.759,235.83 219.442,242.156 220.818,250.736C220.85,250.944 220.997,251.117 221.199,251.188C222.834,251.747 224.485,251.975 226.151,251.866Z" style="fill:white;fill-opacity:0.5;fill-rule:nonzero;"/>
    <path d="M175.937,247.345C176.212,248.043 176.513,248.775 176.91,249.428C179.581,253.786 182.425,257.769 185.449,261.381C192.209,269.459 199.872,277.045 208.436,284.145C211.991,287.091 215.558,289.574 219.138,291.599C221.26,292.799 223.634,293.852 226.26,294.763C222.91,297.211 218.012,298.388 213.991,298.913C202.85,300.359 191.428,300.494 180.371,298.513C175.895,297.713 171.227,296.533 167.506,293.909C165.171,292.262 164.432,290.137 164.31,287.354C164.237,285.741 164.329,284.007 164.585,282.151C165.708,273.996 166.54,269.264 166.508,262.798C166.483,257.455 165.321,252.384 163.021,247.585C163.002,247.428 163.075,247.339 163.245,247.313C166.518,246.804 169.791,246.309 173.067,245.825C173.15,245.813 173.249,245.739 173.361,245.608C173.94,245.643 174.571,245.95 175.252,246.532C175.582,246.814 175.812,247.086 175.937,247.345Z" style="fill:white;fill-opacity:0.95;fill-rule:nonzero;"/>
    <path d="M230.736,287.571C230.531,288.358 230.269,289.145 229.952,289.929C229.13,291.948 227.898,293.56 226.26,294.763C223.634,293.852 221.26,292.799 219.138,291.599C215.558,289.574 211.991,287.091 208.436,284.145C199.872,277.045 192.209,269.459 185.449,261.381C182.425,257.769 179.581,253.786 176.91,249.428C176.513,248.775 176.212,248.043 175.937,247.345C175.998,247.252 176.071,247.214 176.161,247.23C176.247,247.243 176.308,247.3 176.35,247.403C176.526,247.841 176.862,248.206 177.357,248.497C177.46,248.554 177.546,248.634 177.617,248.73C178.221,249.566 178.82,250.244 179.415,250.768C181.84,252.902 184.044,255.395 186.62,257.641C188.136,258.959 189.15,259.938 191.23,261.765C191.576,262.069 192.308,262.709 193.428,263.678C195.706,265.652 198.029,267.514 200.393,269.267C206.75,273.98 210.439,276.658 211.457,277.308C215.577,279.937 219.343,282.212 222.757,284.132C224.309,285.005 226.065,285.847 228.023,286.653C228.349,286.787 228.804,286.935 229.383,287.098C229.853,287.229 230.304,287.389 230.736,287.571Z" style="fill:white;fill-opacity:0.5;fill-rule:nonzero;"/>
</svg>
