<?xml version="1.0" encoding="UTF-8" standalone="no"?>
<!DOCTYPE svg PUBLIC "-//W3C//DTD SVG 1.1//EN" "http://www.w3.org/Graphics/SVG/1.1/DTD/svg11.dtd">
<svg width="100%" height="100%" viewBox="0 0 300 300" version="1.1" xmlns="http://www.w3.org/2000/svg" xmlns:xlink="http://www.w3.org/1999/xlink" xml:space="preserve" xmlns:serif="http://www.serif.com/" style="fill-rule:evenodd;clip-rule:evenodd;stroke-linejoin:round;stroke-miterlimit:2;">
    <path d="M108.028,10.274C107.948,10.342 107.824,10.326 107.76,10.238L106.955,9.088C106.927,9.052 106.899,9.016 106.867,8.984L102.616,4.689C102.536,4.609 102.544,4.481 102.628,4.408C106.518,1.231 111.033,-0.231 116.169,0.03C123.381,0.394 132.447,3.115 135.311,10.71C136.058,12.69 135.813,15.943 135.147,17.721C134.338,19.882 133.224,21.596 131.754,22.834C130.151,24.176 128.613,25.237 127.135,26.011C124.454,27.421 122.708,28.342 120.845,30.321C120.632,30.55 120.456,30.81 120.32,31.091C120.067,31.623 119.779,32.196 119.454,32.817C119.25,33.202 118.753,33.314 118.417,33.05C118.156,32.845 111.61,31.275 111.522,31.247C111.398,31.207 111.302,31.107 111.265,30.982C110.985,29.993 112.363,27.549 112.916,26.832C113.521,26.051 114.471,25.193 115.757,24.264C117.283,23.162 119.11,22.08 121.229,21.015C121.77,20.738 122.551,20.233 123.573,19.496C125.889,17.826 126.99,15.818 126.205,12.914C125.007,8.491 118.589,7.229 114.683,7.437C112.267,7.569 109.791,8.747 108.028,10.274Z" style="fill:white;fill-opacity:0.95;"/>
    <path d="M63.089,98.777C62.836,98.796 60.453,99.106 59.424,99.23C57.372,99.475 54.808,98.741 52.741,97.896C46.231,95.236 42.942,89.09 41.872,82.444C41.123,77.776 41.187,73.177 42.064,68.642C43.342,62.043 46.091,56.387 50.317,51.679C51.315,50.565 52.893,49.295 55.053,47.873C58.542,45.565 62.364,44.183 66.527,43.727C66.675,43.711 66.795,43.606 66.835,43.462C66.895,43.242 66.787,43.021 66.507,42.793C66.419,42.721 66.343,42.629 66.286,42.525C63.722,37.545 62.869,32.052 65.221,26.936C66.246,24.696 67.877,22.874 70.112,21.459C72.4,20.013 74.7,19.124 77.011,18.791C79.483,18.431 82.841,18.951 85.048,20.29C87.256,21.624 88.862,23.611 89.86,26.247C90.192,27.124 90.196,28.126 90.34,29.264C90.757,32.553 88.954,35.894 86.807,38.31C86.098,39.107 84.792,40.678 82.897,43.021C82.704,43.258 82.688,43.59 82.857,43.843C82.957,43.991 83.125,44.139 83.365,44.287C83.454,44.344 83.55,44.384 83.65,44.404C85.2,44.72 86.787,45.085 88.409,45.497C90.665,46.078 93.037,47.192 95.517,48.843C99.543,51.523 103.004,54.872 105.909,58.882C107.6,61.218 108.501,63.293 108.249,66.114C108.161,67.079 107.632,67.72 106.666,68.029C106.438,68.105 106.286,68.273 106.218,68.538C106.033,68.458 105.877,68.429 105.745,68.454C103.595,68.856 101.246,68.758 98.69,68.137C95.689,67.24 93.754,66.711 92.884,66.555C88.59,65.782 83.956,66.677 81.398,70.437C80.243,72.135 79.731,73.878 79.86,75.665C80.039,78.133 80.434,80.416 79.872,82.307C79.767,82.66 79.383,82.846 79.039,82.712C78.192,82.383 77.527,81.739 77.043,80.797C76.951,80.617 76.334,79.064 75.197,76.13C74.802,75.113 73.839,73.516 72.777,72.945C71.748,72.391 70.715,73.69 70.389,74.543C69.587,76.64 69.686,78.994 69.84,81.366C69.975,83.441 70.751,85.48 71.086,87.804C71.778,92.595 69.231,96.502 64.804,98.457C64.319,98.621 63.751,98.728 63.089,98.777Z" style="fill:white;fill-opacity:0.25;"/>
    <path d="M233.892,24.467C233.863,24.68 233.667,24.829 233.453,24.798L230.057,24.327C229.845,24.296 229.697,24.1 229.725,23.889L229.9,22.627C229.929,22.413 230.125,22.265 230.339,22.295L233.735,22.766C233.947,22.797 234.095,22.994 234.067,23.205L233.892,24.467Z" style="fill:white;fill-opacity:0.95;"/>
    <path d="M226.87,24.125C226.9,24.34 226.748,24.532 226.536,24.562L223.153,25.013C222.938,25.041 222.746,24.893 222.716,24.68L222.548,23.417C222.517,23.202 222.669,23.01 222.881,22.98L226.265,22.529C226.479,22.501 226.672,22.649 226.701,22.863L226.87,24.125Z" style="fill:white;fill-opacity:0.95;"/>
    <path d="M240.063,26.262C239.933,26.644 239.516,26.844 239.135,26.713L236.425,25.774C236.043,25.642 235.842,25.225 235.974,24.847L236.205,24.18C236.335,23.799 236.752,23.599 237.133,23.73L239.843,24.668C240.225,24.801 240.425,25.217 240.294,25.596L240.063,26.262Z" style="fill:white;fill-opacity:0.95;"/>
    <path d="M220.647,25.033C220.786,25.446 220.566,25.89 220.155,26.029L217.552,26.91C217.141,27.048 216.696,26.828 216.556,26.418L216.359,25.834C216.219,25.422 216.44,24.977 216.851,24.838L219.454,23.957C219.865,23.819 220.31,24.039 220.449,24.449L220.647,25.033Z" style="fill:white;fill-opacity:0.95;"/>
    <path d="M245.327,30.087C244.921,30.538 244.227,30.574 243.776,30.166L242.058,28.614C241.607,28.206 241.571,27.513 241.979,27.063L242.039,26.998C242.445,26.547 243.138,26.511 243.589,26.919L245.307,28.472C245.758,28.879 245.794,29.572 245.386,30.022L245.327,30.087Z" style="fill:white;fill-opacity:0.95;"/>
    <path d="M214.751,27.237C215.154,27.685 215.117,28.374 214.67,28.776L212.979,30.299C212.533,30.702 211.844,30.666 211.44,30.218L211.381,30.153C210.979,29.704 211.015,29.015 211.462,28.614L213.153,27.091C213.599,26.688 214.288,26.724 214.692,27.172L214.751,27.237Z" style="fill:white;fill-opacity:0.95;"/>
    <path d="M209.732,35.436C209.465,35.938 208.836,36.131 208.333,35.86L208.156,35.766C207.654,35.498 207.461,34.873 207.731,34.367L208.845,32.282C209.112,31.78 209.741,31.587 210.243,31.857L210.42,31.952C210.923,32.22 211.115,32.845 210.845,33.35L209.732,35.436Z" style="fill:white;fill-opacity:0.95;"/>
    <path d="M248.454,33.178C248.883,33.919 249.187,34.3 249.115,35.277C249.107,35.417 249.011,35.534 248.879,35.582C248.45,35.738 247.977,35.786 247.453,35.73C247.328,35.714 247.22,35.634 247.172,35.514C247.124,35.389 246.904,34.989 246.515,34.312C246.086,33.57 245.782,33.19 245.854,32.212C245.862,32.072 245.954,31.952 246.09,31.908C246.519,31.752 246.992,31.704 247.517,31.76C247.641,31.776 247.749,31.856 247.793,31.972C247.841,32.1 248.062,32.501 248.454,33.178Z" style="fill:white;fill-opacity:0.95;"/>
    <path d="M107.4,41.298C108.008,38.43 110.917,36.623 113.899,37.256C116.878,37.889 118.801,40.726 118.192,43.591C117.583,46.459 114.675,48.266 111.693,47.633C108.713,47 106.79,44.163 107.4,41.298Z" style="fill:white;fill-opacity:0.95;"/>
    <path d="M251.703,40.898C251.783,41.15 251.643,41.423 251.391,41.499L250.77,41.695C250.237,41.864 249.672,41.587 249.508,41.078L248.787,38.791C248.626,38.282 248.931,37.729 249.468,37.561L250.085,37.368C250.341,37.288 250.61,37.429 250.69,37.681L251.703,40.898Z" style="fill:white;fill-opacity:0.95;"/>
    <path d="M207.219,41.38C207.109,41.743 206.724,41.952 206.361,41.842L205.609,41.616C205.246,41.507 205.038,41.122 205.147,40.758L205.981,37.98C206.091,37.617 206.476,37.409 206.839,37.518L207.591,37.744C207.954,37.853 208.163,38.238 208.053,38.602L207.219,41.38Z" style="fill:white;fill-opacity:0.95;"/>
    <path d="M250.63,43.851L252.068,43.851C252.176,43.851 252.26,43.935 252.26,44.043L252.26,47.801C252.26,47.909 252.176,47.993 252.068,47.993L250.63,47.993C250.521,47.993 250.437,47.909 250.437,47.801L250.437,44.043C250.437,43.935 250.521,43.851 250.63,43.851Z" style="fill:white;fill-opacity:0.95;"/>
    <path d="M206.279,47.793C206.272,47.921 206.163,48.021 206.037,48.015L204.524,47.952C204.397,47.945 204.296,47.837 204.301,47.71L204.453,44.083C204.461,43.955 204.569,43.855 204.695,43.861L206.208,43.924C206.336,43.931 206.436,44.039 206.431,44.166L206.279,47.793Z" style="fill:white;fill-opacity:0.95;"/>
    <path d="M207.52,53.471C207.61,53.826 207.393,54.183 207.039,54.272L206.269,54.464C205.915,54.552 205.554,54.335 205.468,53.983L204.758,51.137C204.669,50.782 204.885,50.425 205.24,50.336L206.01,50.144C206.364,50.057 206.724,50.273 206.811,50.625L207.52,53.471Z" style="fill:white;fill-opacity:0.95;"/>
    <path d="M251.329,54.078C251.247,54.419 250.902,54.632 250.56,54.548L249.735,54.348C249.392,54.263 249.183,53.923 249.265,53.579L249.97,50.666C250.053,50.325 250.397,50.113 250.739,50.197L251.564,50.397C251.908,50.481 252.116,50.822 252.034,51.165L251.329,54.078Z" style="fill:white;fill-opacity:0.95;"/>
    <path d="M210.207,58.971C210.398,59.411 210.194,59.92 209.757,60.109L209.293,60.31C208.856,60.501 208.347,60.297 208.155,59.859L207.112,57.447C206.921,57.008 207.125,56.499 207.562,56.309L208.025,56.109C208.463,55.918 208.972,56.122 209.163,56.559L210.207,58.971Z" style="fill:white;fill-opacity:0.95;"/>
    <path d="M248.625,59.91C248.406,60.393 247.837,60.609 247.354,60.393L247.076,60.268C246.591,60.052 246.375,59.483 246.593,58.997L247.618,56.717C247.837,56.234 248.406,56.018 248.889,56.234L249.167,56.359C249.652,56.575 249.868,57.144 249.65,57.63L248.625,59.91Z" style="fill:white;fill-opacity:0.95;"/>
    <path d="M213.206,64.518C213.443,65 213.247,65.581 212.767,65.817L212.486,65.955C212.005,66.194 211.424,65.998 211.188,65.516L210.098,63.311C209.861,62.829 210.058,62.248 210.537,62.012L210.818,61.873C211.299,61.635 211.88,61.831 212.116,62.313L213.206,64.518Z" style="fill:white;fill-opacity:0.95;"/>
    <path d="M245.609,65.598C245.365,66.098 244.76,66.306 244.258,66.06L244.049,65.958C243.55,65.713 243.342,65.108 243.587,64.607L244.641,62.456C244.885,61.955 245.489,61.747 245.992,61.993L246.2,62.095C246.699,62.34 246.908,62.945 246.663,63.446L245.609,65.598Z" style="fill:white;fill-opacity:0.95;"/>
    <path d="M95.316,102.6C95.613,106.337 94.685,109.489 92.46,111.986C92.381,112.075 92.267,112.127 92.147,112.123L85.553,112.034C85.417,112.03 85.284,112.053 85.156,112.099C84.669,112.273 84.251,112.362 83.894,112.351C83.754,112.347 83.618,112.399 83.522,112.499L82.953,113.064C82.849,113.172 82.685,113.204 82.544,113.14C79.375,111.702 73.193,107.355 73.057,107.235C71.708,106.047 70.841,105.313 70.461,105.027C68.904,103.857 67.439,102.1 65.686,100.476C64.864,99.715 64.572,99.042 64.804,98.457C69.231,96.502 71.778,92.595 71.086,87.804C70.751,85.48 69.975,83.441 69.84,81.366C69.686,78.994 69.587,76.64 70.389,74.543C70.715,73.69 71.748,72.391 72.777,72.945C73.839,73.516 74.802,75.113 75.197,76.13C76.334,79.064 76.951,80.617 77.043,80.797C77.527,81.739 78.192,82.383 79.039,82.712C79.383,82.846 79.767,82.66 79.872,82.307C80.434,80.416 80.039,78.133 79.86,75.665C79.731,73.878 80.243,72.135 81.398,70.437C83.956,66.677 88.59,65.782 92.884,66.555C93.754,66.711 95.689,67.24 98.69,68.137C100.685,75.1 101.588,82.171 101.398,89.347C101.338,91.598 99.636,91.344 98.081,90.833C96.735,90.391 95.681,90.448 95.028,91.754C94.331,93.149 94.104,94.539 94.359,95.929C94.51,96.754 95.22,97.636 95.22,97.636C93.986,96.822 92.753,95.815 91.17,96.233C90.713,96.354 90.437,96.622 90.336,97.043C89.893,98.898 90.822,100.314 92.372,101.338C93.322,101.965 94.303,102.387 95.316,102.6ZM88.029,74.495C91.574,73.858 94.791,74.511 97.936,74.896C98.257,74.936 98.521,74.651 98.449,74.347C98.393,74.119 98.229,73.934 97.956,73.802C96.935,73.289 96.061,73.001 95.336,72.937C92.684,72.7 90.208,72.993 87.905,73.814C87.788,73.854 87.712,73.962 87.712,74.082L87.712,74.231C87.712,74.399 87.865,74.527 88.029,74.495ZM95.938,78.379C95.316,78.337 94.731,79.467 94.638,80.902C94.543,82.34 94.972,83.533 95.592,83.576C96.214,83.618 96.799,82.488 96.892,81.052C96.987,79.615 96.558,78.421 95.938,78.379Z" style="fill:white;fill-opacity:0.95;"/>
    <path d="M216.219,70.405C216.408,70.849 216.199,71.362 215.754,71.55L215.311,71.737C214.869,71.923 214.356,71.715 214.167,71.272L213.151,68.866C212.962,68.422 213.17,67.909 213.615,67.721L214.058,67.534C214.501,67.348 215.013,67.556 215.203,67.999L216.219,70.405Z" style="fill:white;fill-opacity:0.95;"/>
    <path d="M242.624,71.322C242.429,71.783 241.892,71.999 241.431,71.802L241.07,71.648C240.61,71.45 240.393,70.917 240.59,70.454L241.584,68.125C241.78,67.664 242.316,67.448 242.777,67.646L243.138,67.8C243.598,67.997 243.815,68.53 243.618,68.993L242.624,71.322Z" style="fill:white;fill-opacity:0.95;"/>
    <path d="M95.22,97.636C95.22,97.636 94.51,96.754 94.359,95.929C94.104,94.539 94.331,93.149 95.028,91.754C95.681,90.448 96.735,90.391 98.081,90.833C99.636,91.344 101.338,91.598 101.398,89.347C101.588,82.171 100.685,75.1 98.69,68.137C101.246,68.758 103.595,68.856 105.745,68.454C105.877,68.429 106.033,68.458 106.218,68.538C106.61,70.889 106.814,73.329 106.83,75.849C105.857,75.565 105.066,75.573 104.463,75.889C104.274,75.988 104.242,76.246 104.399,76.386C105.195,77.1 105.989,77.436 106.782,77.4C106.782,77.4 105.068,94.667 104.082,99.166C103.461,102.015 102.584,104.795 101.458,107.511C100.653,109.458 99.535,111.285 98.113,112.988C98.033,113.08 98.097,113.22 98.217,113.228C98.217,113.228 99.842,113.596 100.376,113.813C101.577,114.301 104.371,116.866 105.156,119.298C105.352,119.903 105.613,120.788 105.937,121.954C106.173,122.799 107.391,130.423 107.363,131.273C107.295,133.356 106.91,136.549 107.131,139.089C107.51,143.444 107.814,146.333 108.044,147.755C108.76,152.179 110.152,160.434 112.263,172.518C112.287,172.654 112.407,172.753 112.544,172.754C114.355,172.768 116.017,173.147 117.527,173.844C118.228,179.112 118.589,182.718 118.609,184.661C118.665,190.266 117.573,195.818 116.193,201.548C115.615,203.947 114.275,206.073 113.449,206.708C111.383,208.297 108.99,208.463 106.51,207.537C104.591,206.82 102.744,205.65 100.969,204.028C97.456,200.819 95.457,195.258 94.383,190.691C94.018,189.156 93.71,187.55 93.449,185.863C93.293,184.861 93.097,183.235 92.86,180.979C92.64,178.88 92.516,176.668 92.492,174.341C92.488,169.629 92.731,165.206 93.225,161.072C93.84,155.924 94.929,149.823 96.354,142.743C96.383,142.599 96.321,142.455 96.202,142.378C95.642,142.018 95.05,141.828 94.563,141.329C94.152,140.907 93.738,140.387 93.325,139.77C93.377,139.55 93.287,139.24 93.041,138.841C92.949,138.692 92.904,138.52 92.913,138.348C92.924,138.096 92.881,137.891 92.784,137.743C92.461,137.246 92.641,136.577 92.476,135.972C92.372,135.592 92.313,135.219 92.304,134.862C92.268,133.589 92.092,131.862 91.771,129.678C91.589,128.441 91.054,127.622 89.816,127.218C86.68,126.197 83.515,125.054 81.414,122.603C81.074,122.206 80.804,121.43 80.533,121.153C80.45,121.068 80.305,121.105 80.277,121.221C79.847,122.95 79.616,123.949 79.616,124.226C79.613,126.369 78.966,128.444 76.731,129.097C77.128,127.295 77.162,125.596 76.835,124.001C76.035,120.104 74.714,116.272 72.857,112.511C72.16,111.101 71.131,109.53 69.768,107.796C68.058,105.62 65.898,104.218 63.29,103.589C63.422,102.419 62.836,98.796 63.089,98.777C63.751,98.728 64.319,98.621 64.804,98.457C64.572,99.042 64.864,99.715 65.686,100.476C67.439,102.1 68.904,103.857 70.461,105.027C70.841,105.313 71.708,106.047 73.057,107.235C73.193,107.355 79.375,111.702 82.544,113.14C82.685,113.204 82.849,113.172 82.953,113.064L83.522,112.499C84.013,112.061 84.638,112.052 85.553,112.034L92.147,112.123C92.267,112.127 92.381,112.075 92.46,111.986C94.685,109.489 95.613,106.337 95.316,102.6C96.642,102.9 97.817,102.927 98.83,102.672C98.834,102.671 98.838,102.67 98.842,102.668C100.087,102.338 100.898,100.093 99.764,99.038C99.76,99.032 99.756,99.028 99.751,99.026C98.558,97.939 96.65,98.289 95.22,97.636ZM105.536,80.978C105.16,80.953 104.807,81.636 104.75,82.505C104.693,83.374 104.952,84.096 105.327,84.122C105.703,84.147 106.057,83.464 106.114,82.595C106.171,81.726 105.912,81.004 105.536,80.978Z" style="fill:white;fill-opacity:0.75;"/>
    <path d="M95.316,102.6C96.642,102.9 97.818,102.93 98.83,102.672C100.087,102.351 100.908,100.079 99.751,99.026C98.558,97.939 96.65,98.289 95.22,97.636C93.986,96.822 92.753,95.815 91.17,96.233C90.713,96.354 90.437,96.622 90.336,97.043C89.893,98.898 90.822,100.314 92.372,101.338C93.322,101.965 94.303,102.387 95.316,102.6Z" style="fill:white;fill-opacity:0.15;"/>
    <path d="M217.305,73.818C217.545,75.24 217.381,76.514 216.808,77.64C216.744,77.768 216.628,77.856 216.488,77.888C216.015,77.989 215.518,77.909 214.993,77.656C214.893,77.608 214.821,77.508 214.813,77.396C214.773,76.855 214.861,76.398 215.073,76.018C215.53,75.212 215.33,74.671 215.39,73.89C215.394,73.838 215.434,73.798 215.486,73.794L217.193,73.73C217.249,73.726 217.297,73.766 217.305,73.818Z" style="fill:white;fill-opacity:0.95;"/>
    <path d="M241.331,73.806C241.383,73.806 241.423,73.85 241.423,73.898C241.471,74.663 241.271,75.188 241.707,75.981C241.912,76.354 241.988,76.803 241.944,77.328C241.932,77.44 241.864,77.532 241.764,77.58C241.251,77.82 240.762,77.892 240.305,77.788C240.169,77.756 240.053,77.668 239.993,77.544C239.448,76.438 239.304,75.192 239.556,73.806C239.564,73.754 239.612,73.718 239.664,73.722L241.331,73.806Z" style="fill:white;fill-opacity:0.95;"/>
    <path d="M224.319,78.04C224.32,78.157 224.224,78.249 224.11,78.248L220.416,78.242C220.302,78.241 220.21,78.149 220.208,78.033L220.211,76.439C220.21,76.322 220.306,76.23 220.42,76.231L224.113,76.237C224.228,76.238 224.32,76.33 224.321,76.446L224.319,78.04Z" style="fill:white;fill-opacity:0.95;"/>
    <path d="M230.841,78.076C230.842,78.169 230.766,78.245 230.672,78.244L226.842,78.238C226.748,78.237 226.676,78.161 226.674,78.069L226.677,76.427C226.676,76.334 226.752,76.258 226.846,76.259L230.676,76.265C230.77,76.266 230.842,76.342 230.844,76.434L230.841,78.076Z" style="fill:white;fill-opacity:0.95;"/>
    <path d="M237.247,78.056C237.248,78.161 237.16,78.249 237.054,78.248L233.328,78.242C233.222,78.241 233.138,78.157 233.137,78.049L233.139,76.431C233.138,76.326 233.226,76.238 233.332,76.239L237.058,76.245C237.164,76.246 237.248,76.33 237.25,76.438L237.247,78.056Z" style="fill:white;fill-opacity:0.95;"/>
    <path d="M243.686,83.53C243.711,83.734 243.566,83.922 243.364,83.946L242.076,84.111C241.872,84.138 241.687,83.994 241.659,83.789L241.211,80.292C241.187,80.088 241.331,79.9 241.534,79.875L242.821,79.71C243.026,79.683 243.21,79.828 243.238,80.033L243.686,83.53Z" style="fill:white;fill-opacity:0.95;"/>
    <path d="M215.146,83.774C215.117,83.99 214.921,84.142 214.708,84.115L213.468,83.961C213.251,83.934 213.098,83.738 213.127,83.523L213.55,80.12C213.579,79.904 213.775,79.751 213.989,79.778L215.229,79.933C215.446,79.96 215.598,80.156 215.57,80.371L215.146,83.774Z" style="fill:white;fill-opacity:0.95;"/>
    <path d="M223.739,86.983C223.739,87.079 223.659,87.159 223.563,87.159L219.685,87.159C219.589,87.159 219.508,87.079 219.508,86.983L219.508,85.444C219.508,85.348 219.589,85.268 219.685,85.268L223.563,85.268C223.659,85.268 223.739,85.348 223.739,85.444L223.739,86.983Z" style="fill:white;fill-opacity:0.95;"/>
    <path d="M230.138,87.002C230.137,87.091 230.065,87.163 229.978,87.162L226.14,87.148C226.051,87.147 225.979,87.075 225.98,86.988L225.985,85.417C225.987,85.328 226.059,85.256 226.146,85.257L229.984,85.271C230.073,85.272 230.145,85.344 230.144,85.432L230.138,87.002Z" style="fill:white;fill-opacity:0.95;"/>
    <path d="M236.637,87.006C236.635,87.095 236.563,87.167 236.476,87.166L232.606,87.152C232.517,87.151 232.445,87.079 232.446,86.992L232.452,85.413C232.453,85.324 232.525,85.252 232.612,85.253L236.483,85.267C236.571,85.268 236.643,85.34 236.642,85.428L236.637,87.006Z" style="fill:white;fill-opacity:0.95;"/>
    <path d="M216.36,89.192C216.488,89.571 216.283,89.984 215.906,90.111L215.223,90.343C214.845,90.472 214.432,90.268 214.303,89.888L213.394,87.201C213.267,86.823 213.471,86.41 213.848,86.282L214.531,86.051C214.909,85.921 215.322,86.125 215.451,86.505L216.36,89.192Z" style="fill:white;fill-opacity:0.95;"/>
    <path d="M242.468,89.968C242.32,90.388 241.86,90.609 241.44,90.458L240.896,90.266C240.478,90.116 240.257,89.655 240.406,89.238L241.34,86.602C241.487,86.182 241.948,85.961 242.367,86.112L242.911,86.304C243.33,86.454 243.55,86.915 243.402,87.332L242.468,89.968Z" style="fill:white;fill-opacity:0.95;"/>
    <path d="M220.346,94.816C219.937,95.26 219.244,95.292 218.8,94.883L217.117,93.34C216.672,92.932 216.64,92.239 217.049,91.795L217.109,91.73C217.517,91.286 218.21,91.254 218.654,91.663L220.338,93.205C220.782,93.613 220.814,94.306 220.405,94.751L220.346,94.816Z" style="fill:white;fill-opacity:0.95;"/>
    <path d="M239.675,91.917C240.089,92.355 240.069,93.044 239.632,93.457L237.956,95.043C237.517,95.456 236.828,95.436 236.415,95L236.36,94.941C235.946,94.503 235.966,93.814 236.403,93.401L238.08,91.815C238.518,91.402 239.208,91.422 239.62,91.858L239.675,91.917Z" style="fill:white;fill-opacity:0.95;"/>
    <path d="M225.306,97.672C224.3,97.8 223.278,97.632 222.233,97.163C222.105,97.107 222.02,96.979 222.016,96.838C221.996,96.157 222.004,95.781 222.04,95.713C222.249,95.296 222.814,95.12 223.367,95.3C224.212,95.576 224.861,95.733 225.306,95.777C225.442,95.789 225.546,95.901 225.546,96.037L225.546,97.399C225.546,97.54 225.442,97.656 225.306,97.672Z" style="fill:white;fill-opacity:0.95;"/>
    <path d="M231.64,98.136C231.383,98.201 231.119,98.048 231.055,97.792L230.89,97.167C230.75,96.63 231.059,96.085 231.579,95.949L233.495,95.448C234.015,95.312 234.548,95.641 234.688,96.177L234.853,96.802C234.921,97.059 234.765,97.319 234.508,97.387L231.64,98.136Z" style="fill:white;fill-opacity:0.95;"/>
    <path d="M58.55,111.462C61.904,110.079 63.137,106.986 63.29,103.589C65.898,104.218 68.058,105.62 69.768,107.796C71.131,109.53 72.16,111.101 72.857,112.511C74.714,116.272 76.035,120.104 76.835,124.001C77.162,125.596 77.128,127.295 76.731,129.097C75.112,129.338 73.578,128.929 72.132,127.867C68.619,125.29 65.611,122.228 63.109,118.673C62.047,117.163 60.525,114.759 58.55,111.462Z" style="fill:white;fill-opacity:0.95;"/>
    <path d="M241.431,158.932C242.052,156.661 241.606,154.795 240.089,153.332C239.243,152.515 238.226,151.822 237.04,151.252C234.026,149.804 231.289,148.432 231.207,144.762C231.17,143.099 232.085,141.004 232.797,138.913C233.844,135.84 233.09,133.436 230.538,131.701C229.564,131.04 228.23,130.776 226.96,130.335C225.482,130.211 223.854,130.311 222.072,130.652C221.868,130.691 221.668,130.751 221.472,130.832C219.214,131.76 216.997,132.313 214.805,132.471C213.511,132.564 212.309,132.27 211.199,131.589C211.151,131.02 210.682,130.612 209.793,130.359C209.673,130.323 209.561,130.275 209.457,130.211C208.643,129.71 207.85,129.198 207.069,128.673C206.512,128.296 205.979,127.679 205.47,126.818C205.414,126.718 205.378,126.605 205.374,126.493L205.306,124.759C205.302,124.69 205.314,124.622 205.334,124.554C205.791,123.176 205.53,121.978 204.549,120.957C202.514,118.849 201.043,117.751 200.575,115.52C200.106,113.288 201.039,111.333 202.373,109.759C202.966,109.058 203.84,108.829 204.994,109.078C205.651,109.218 206.464,109.671 207.429,110.432C208.948,111.626 210.646,112.543 212.521,113.18C212.646,113.224 212.778,113.248 212.91,113.252C214.685,113.328 216.323,112.824 217.826,111.746C217.994,111.626 218.146,111.478 218.274,111.309C219.332,109.895 219.945,109.09 220.109,108.897C221.952,106.75 223.699,107.299 226.143,108.457C227.826,109.254 229.364,109.819 230.762,110.151C231.471,110.324 232.493,109.755 233.214,109.182C234.676,108.024 236.467,107.463 238.587,107.499C238.711,107.503 238.835,107.523 238.951,107.567C240.013,107.948 240.706,108.192 241.026,108.301C243.863,109.262 245.217,111.385 246.062,114.158C246.094,114.278 246.163,114.386 246.255,114.47C246.792,114.955 247.268,115.135 247.685,115.011C250.405,114.182 253.089,114.254 255.738,115.227C258.33,116.177 260.048,117.82 260.886,120.151C261.359,121.461 261.447,123.056 261.146,124.935C260.85,126.806 260.393,128.34 259.78,129.538C259.692,129.71 259.824,129.911 260.016,129.899L263.778,129.65C263.87,129.646 263.967,129.654 264.059,129.674C266.659,130.271 268.029,130.708 269.944,132.447C271.39,133.761 272.071,135.423 271.987,137.435C271.983,137.583 271.955,137.731 271.903,137.875C271.703,138.44 271.575,139.033 271.519,139.646C271.503,139.806 271.454,139.959 271.382,140.103C269.956,142.763 267.652,145.335 265.769,146.922C265.469,147.174 265.153,147.322 264.82,147.374C264.512,147.418 264.483,147.855 264.784,147.939C266.03,148.296 266.931,148.917 267.496,149.802C267.997,150.591 268.245,151.669 268.233,153.039C268.221,155.014 267.793,156.977 266.951,158.928C266.739,159.421 266.302,160.002 265.645,160.679C265.549,160.779 265.417,160.839 265.277,160.843C264.976,160.86 264.644,160.803 264.275,160.671C264.051,160.591 263.866,160.856 264.015,161.04C264.572,161.725 264.92,162.614 265.06,163.708C265.08,163.852 265.076,164 265.048,164.145C264.836,165.311 264.479,166.312 263.979,167.153C263.911,167.27 263.83,167.374 263.738,167.474C262.705,168.568 262.084,169.197 261.879,169.361C260.822,170.202 259.087,171.196 257.532,171.196C256.25,171.192 254.888,170.963 254.115,169.998C253.943,169.786 253.602,169.862 253.542,170.13C253.186,171.753 252.304,172.798 250.898,173.267C250.778,173.307 250.65,173.327 250.521,173.331C248.426,173.383 246.675,172.71 245.269,171.32C245.125,171.176 244.881,171.232 244.812,171.424C244.592,172.037 244.392,172.574 244.211,173.035C243.222,175.591 240.902,175.639 238.703,174.773C238.555,174.713 238.286,174.553 237.905,174.285C237.581,174.056 237.309,173.896 237.096,173.804L236.227,173.139C234.152,170.875 233.375,168.159 233.899,164.99C234.212,163.099 236.644,163.051 238.01,162.178C239.232,161.396 240.369,160.315 241.431,158.932Z" style="fill:white;fill-opacity:0.35;"/>
    <path d="M20.081,167.41C18.331,166.689 17.417,165.25 17.345,163.091C17.277,161.116 17.365,158.94 17.61,156.565C18.499,147.783 19.985,139.358 23.198,131.048C24.38,127.988 24.989,126.417 25.025,126.333C26.732,121.954 32.505,119.202 36.848,117.912C40.69,116.77 44.604,115.704 48.591,114.711C52.116,113.833 55.437,112.748 58.55,111.462C60.525,114.759 62.047,117.163 63.109,118.673C65.611,122.228 68.619,125.29 72.132,127.867C73.578,128.929 75.112,129.338 76.731,129.097C78.966,128.444 79.613,126.369 79.616,124.226C79.616,123.949 79.847,122.95 80.277,121.221C80.305,121.105 80.45,121.068 80.533,121.153C80.804,121.43 81.074,122.206 81.414,122.603C83.515,125.054 86.68,126.197 89.816,127.218C91.054,127.622 91.589,128.441 91.771,129.678C92.092,131.862 92.268,133.589 92.304,134.862C92.313,135.219 92.372,135.592 92.476,135.972C92.641,136.577 92.461,137.246 92.784,137.743C92.881,137.891 92.924,138.096 92.913,138.348C92.904,138.52 92.949,138.692 93.041,138.841C93.287,139.24 93.377,139.55 93.325,139.77C92.776,145.095 92.196,150.379 91.574,155.615C90.817,161.997 90.558,168.027 89.828,174.217C89.68,175.471 89.559,176.777 89.471,178.135C88.269,180.022 86.879,182.738 85.3,186.292C83.369,190.639 82.524,195.646 84.119,200.222C84.391,201.011 85.365,203.415 87.039,207.441C87.468,208.475 87.8,209.576 88.041,210.746C88.085,210.959 88.005,211.175 87.836,211.307L84.271,214.08C78.253,217.617 71.735,219.692 64.716,220.313C63.803,218.911 62.031,216.512 59.408,213.114C58.634,212.113 56.148,208.498 51.908,202.301C51.82,202.173 51.88,201.996 52.028,201.944L69.516,195.875C69.62,195.839 69.696,195.755 69.728,195.65C69.862,195.21 69.892,194.769 69.832,194.324C67.903,180.093 66.107,167.016 64.44,155.09C64.372,154.606 64.231,154.169 64.015,153.772C63.786,153.352 63.586,152.939 63.418,152.534C63.014,151.565 62.408,151.485 61.603,152.294C61.246,152.214 61.029,152.03 60.946,151.745C60.852,151.421 60.497,151.256 60.189,151.389C55.839,153.261 51.551,155.151 47.308,157.033C47.024,153.776 46.393,150.651 45.409,147.659C45.302,147.33 45.176,147.03 45.029,146.753C44.952,146.609 44.732,146.657 44.72,146.821C44.451,150.742 43.971,154.746 43.226,158.836L42.269,161.597C40.758,162.734 39.111,163.675 37.325,164.417C36.776,164.645 34.989,165.29 31.956,166.36C29.64,167.177 27.617,167.739 25.891,168.047C24.292,168.332 22.357,168.119 20.081,167.41Z" style="fill:white;fill-opacity:0.5;"/>
    <path d="M106.227,125.807C109.66,127.413 112.211,133.092 113.273,136.625C114.843,141.837 115.853,147.166 116.297,152.61C116.922,160.275 117.371,166.1 117.648,170.086C117.724,171.196 117.684,172.45 117.527,173.844C116.017,173.147 114.355,172.768 112.544,172.754C112.407,172.753 112.287,172.654 112.263,172.518C110.152,160.434 108.76,152.179 108.044,147.755C107.814,146.333 107.51,143.444 107.131,139.089C106.91,136.549 107.295,133.356 107.363,131.273C107.391,130.423 106.171,126.36 106.227,125.807Z" style="fill:white;fill-opacity:0.5;"/>
    <path d="M205.137,158.946C204.558,158.819 204.092,158.726 203.711,158.663C203.614,158.647 203.52,158.647 203.432,158.661C203.004,158.71 202.679,159.094 202.718,159.537C202.934,161.985 204.224,164.405 206.816,164.914C206.816,164.914 205.805,168.253 205.803,169.962C205.801,171.671 206.804,175.17 206.804,175.17C202.245,173.76 201.348,170.01 200.939,165.667C200.871,164.958 200.955,163.291 201.192,160.659C201.285,159.611 202.157,149.314 206.147,140.051L206.224,140.051C208.367,140.029 210.097,139.124 210.086,138.032C210.078,137.27 209.227,136.617 207.986,136.298C208.925,134.614 209.991,133.02 211.199,131.589C212.309,132.27 213.511,132.564 214.805,132.471C216.997,132.313 219.214,131.76 221.472,130.832C221.668,130.751 221.868,130.691 222.072,130.652C223.854,130.311 225.482,130.211 226.96,130.335C224.38,131.309 217.646,137.014 216.93,137.776C214.764,137.129 212.909,137.29 212.444,138.284C212.09,139.041 212.623,140.107 213.73,141.124C213.697,141.176 213.659,141.224 213.615,141.269C211.483,143.447 209.675,145.917 208.171,148.668C207.438,150.007 206.797,151.076 206.656,152.342C206.604,152.811 206.856,153.26 207.281,153.464C208.983,154.282 211.243,153.284 211.368,156.08C211.41,157.03 210.784,159.158 209.913,159.894L209.896,159.908C209.316,159.864 208.703,159.782 208.117,159.641C207.539,159.502 207.019,159.378 206.55,159.268C206.016,159.143 205.548,159.036 205.137,158.946ZM206.264,142.546C205.745,142.385 205.048,143.14 204.708,144.232C204.368,145.323 204.513,146.341 205.032,146.502C205.551,146.664 206.248,145.909 206.588,144.817C206.928,143.725 206.783,142.708 206.264,142.546Z" style="fill:white;fill-opacity:0.75;"/>
    <path d="M222.682,143.076C222.1,144.321 219.333,144.259 216.507,142.936C213.682,141.614 211.861,139.529 212.444,138.284C213.027,137.039 215.794,137.101 218.619,138.424C221.445,139.746 223.265,141.831 222.682,143.076Z" style="fill:white;fill-opacity:0.15;"/>
    <path d="M206.264,142.546C206.783,142.708 206.928,143.725 206.588,144.817C206.248,145.909 205.551,146.664 205.032,146.502C204.513,146.341 204.368,145.323 204.708,144.232C205.048,143.14 205.745,142.385 206.264,142.546Z" style="fill:white;fill-opacity:0.15;"/>
    <path d="M226.96,130.335C228.23,130.776 229.564,131.04 230.538,131.701C233.09,133.436 233.844,135.84 232.797,138.913C232.085,141.004 231.17,143.099 231.207,144.762C231.289,148.432 234.026,149.804 237.04,151.252C238.226,151.822 239.243,152.515 240.089,153.332C241.606,154.795 242.052,156.661 241.431,158.932C240.369,160.315 239.232,161.396 238.01,162.178C236.644,163.051 234.212,163.099 233.899,164.99C233.375,168.159 234.152,170.875 236.227,173.139L237.096,173.804C235.414,175.587 234.312,177.662 233.787,180.022C233.302,182.221 233.511,184.401 234.412,186.568C235.181,188.415 237.148,189.417 238.959,189.909C242.224,190.799 247.733,191.764 251.359,193.387C257.585,196.175 261.419,201.632 265.217,207.225C269.708,213.835 273.878,220.674 277.72,227.741C277.776,227.845 277.764,227.974 277.688,228.062L274.463,231.912C273.185,233.054 271.943,234.135 270.729,235.149C268.814,236.748 266.84,238.031 264.572,239.572C263.366,240.39 261.404,241.358 258.674,242.468C258.526,242.529 258.269,242.781 257.913,243.226C257.817,243.346 257.697,243.438 257.561,243.498C255.813,244.273 253.907,244.832 251.835,245.169C251.539,245.217 251.235,245.165 250.97,245.024C248.891,243.922 246.929,242.675 245.089,241.283C244.893,241.134 244.617,241.31 244.664,241.551C245.014,243.333 245.175,245.29 245.101,247.408C245.098,247.496 245.013,247.56 244.929,247.536C242.682,246.899 240.85,245.974 238.903,244.207C238.466,243.811 237.358,242.864 235.582,241.371C233.708,239.795 231.596,238.883 229.252,238.638L224.344,217.096C224.312,216.952 224.156,216.876 224.024,216.94C221.857,217.988 219.805,218.755 217.87,219.248C215.326,219.532 212.678,219.982 209.925,220.598C205.122,221.673 201.104,222.866 197.878,224.176C194.521,225.538 191.12,227.543 188.952,230.269C188.847,230.401 188.644,230.381 188.568,230.237C186.582,226.498 182.798,224.204 178.924,222.893C177.017,222.249 175.098,221.696 173.167,221.243C175.239,216.287 177.134,211.335 178.848,206.391C180.523,201.568 182.814,197.574 185.727,194.409C187.89,192.053 190.615,190.534 193.904,189.853C194.333,189.765 195.671,189.677 197.91,189.593C199.693,189.525 201.44,189.252 203.155,188.776C203.211,188.796 203.258,188.813 203.299,188.832C203.413,188.884 203.471,189.012 203.423,189.128L203.411,189.164C203.367,189.288 203.443,189.425 203.571,189.453L204.813,189.721C204.861,189.733 204.909,189.733 204.957,189.729L209.477,189.308C209.573,189.3 209.672,189.275 209.761,189.232C210.411,188.917 211.036,188.556 211.628,188.135C214.18,186.317 217.909,183.668 222.814,180.186C224.95,178.669 227.302,177.183 229.861,175.719C230.302,175.467 232.173,174.727 235.458,173.451C235.57,173.408 235.638,173.295 235.622,173.175L235.602,173.039C235.574,172.834 235.369,172.698 235.169,172.758C232.161,173.66 229.191,174.646 226.259,175.731C225.309,176.083 224.044,176.357 223.23,176.424C219.605,176.724 216.827,176.944 214.909,177.121C214.785,177.133 214.665,177.129 214.541,177.109L210.462,176.468L206.804,175.17C206.804,175.17 205.801,171.671 205.803,169.962C205.805,168.253 206.816,164.914 206.816,164.914C209.396,165.435 213.118,165.195 214.546,161.792C214.881,160.996 214.003,159.449 212.629,159.852C212.464,159.9 211.276,160.012 209.896,159.908L209.913,159.894C210.784,159.158 211.41,157.03 211.368,156.08C211.243,153.284 208.983,154.282 207.281,153.464C206.856,153.26 206.604,152.811 206.656,152.342C206.797,151.076 207.438,150.007 208.171,148.668C209.675,145.917 211.483,143.447 213.615,141.269C213.659,141.224 213.697,141.176 213.73,141.124C214.445,141.781 215.398,142.417 216.507,142.936C219.333,144.259 222.1,144.321 222.682,143.076C223.265,141.831 221.445,139.746 218.619,138.424C218.048,138.156 217.479,137.94 216.93,137.776C217.646,137.014 224.38,131.309 226.96,130.335ZM213.669,144.081C213.073,143.875 212.238,144.728 211.806,145.983C211.374,147.239 211.508,148.424 212.105,148.63C212.701,148.835 213.536,147.982 213.968,146.727C214.4,145.472 214.266,144.286 213.669,144.081Z" style="fill:white;fill-opacity:0.95;"/>
    <path d="M92.492,174.341L89.471,178.135C89.559,176.777 89.68,175.471 89.828,174.217C90.558,168.027 90.817,161.997 91.574,155.615C92.196,150.379 92.776,145.095 93.325,139.77C93.738,140.387 94.152,140.907 94.563,141.329C95.05,141.828 95.642,142.018 96.202,142.378C96.321,142.455 96.383,142.599 96.354,142.743C94.929,149.823 93.84,155.924 93.225,161.072C92.731,165.206 92.488,169.629 92.492,174.341Z" style="fill:white;fill-opacity:0.35;"/>
    <path d="M47.308,157.033C47.024,153.776 46.393,150.651 45.409,147.659C45.302,147.33 45.176,147.03 45.029,146.753C44.952,146.609 44.732,146.657 44.72,146.821C44.451,150.742 43.971,154.746 43.226,158.836L47.308,157.033Z" style="fill:white;fill-opacity:0.35;"/>
    <path d="M61.603,152.294C61.399,152.374 61.282,152.494 61.263,152.651C61.254,152.715 61.278,152.775 61.323,152.819C61.738,153.225 61.983,153.644 62.044,154.089C63.798,166.975 65.62,180.077 67.46,193.407C67.617,194.541 67.557,195.062 66.483,195.438C63.174,196.597 58.114,198.333 51.303,200.646C51.078,200.723 50.83,200.643 50.694,200.446C48.465,197.221 47.054,195.151 46.451,194.244C45.559,192.904 45.636,191.816 45.361,190.578C45.254,190.094 45.177,189.505 45.125,188.812C44.949,186.484 44.759,183.704 44.54,181.877C43.808,175.756 43.11,169.831 42.449,164.101C42.412,163.784 42.393,163.367 42.389,162.843C42.385,162.37 42.345,161.953 42.269,161.597L43.226,158.836L47.308,157.033C51.551,155.151 55.839,153.261 60.189,151.389C60.497,151.256 60.852,151.421 60.946,151.745C61.029,152.03 61.246,152.214 61.603,152.294Z" style="fill:white;fill-opacity:0.75;"/>
    <path d="M20.538,168.584L20.081,167.41C22.357,168.119 24.292,168.332 25.891,168.047C27.617,167.739 29.64,167.177 31.956,166.36C34.989,165.29 36.776,164.645 37.325,164.417C39.111,163.675 40.758,162.734 42.269,161.597C42.345,161.953 42.385,162.37 42.389,162.843C42.393,163.367 42.412,163.784 42.449,164.101C43.11,169.831 43.808,175.756 44.54,181.877C44.759,183.704 44.949,186.484 45.125,188.812C45.177,189.505 45.254,190.094 45.361,190.578C45.636,191.816 45.559,192.904 46.451,194.244C47.054,195.151 48.465,197.221 50.694,200.446C50.83,200.643 51.078,200.723 51.303,200.646C58.114,198.333 63.174,196.597 66.483,195.438C67.557,195.062 67.617,194.541 67.46,193.407C65.62,180.077 63.798,166.975 62.044,154.089C61.983,153.644 61.738,153.225 61.323,152.819C61.278,152.775 61.254,152.715 61.263,152.651C61.282,152.494 61.399,152.374 61.603,152.294C62.408,151.485 63.014,151.565 63.418,152.534C63.586,152.939 63.786,153.352 64.015,153.772C64.231,154.169 64.372,154.606 64.44,155.09C66.107,167.016 67.903,180.093 69.832,194.324C69.892,194.769 69.862,195.21 69.728,195.65C69.696,195.755 69.62,195.839 69.516,195.875L52.028,201.944C51.88,201.996 51.82,202.173 51.908,202.301C56.148,208.498 58.634,212.113 59.408,213.114C62.031,216.512 63.803,218.911 64.716,220.313L66.519,222.461C66.603,222.561 66.723,222.625 66.855,222.637L70.036,222.97C72.052,223.262 73.639,223.589 74.804,223.955C76.339,224.438 77.564,224.985 78.49,225.594C80.157,226.691 81.27,227.638 82.548,228.17C83.878,228.723 85.517,228.827 86.943,229.043C88.233,229.119 89.519,229.34 90.805,229.696C91.406,229.865 92.027,230.165 92.668,230.594C93.305,231.014 93.71,231.551 93.882,232.2C94.207,233.414 94.078,234.5 93.497,235.465C92.392,237.292 90.669,238.65 88.325,239.544C86.891,240.113 85.677,240.458 84.688,240.581C81.92,240.925 78.61,240.961 75.554,239.83C66.247,236.388 58.837,229.811 58.62,229.688C43.49,221.083 34.661,208.294 34.661,208.294C34.592,208.222 24.777,211.54 24.665,211.564C23.815,211.744 23.258,211.363 22.998,210.422L33.346,206.904C33.411,206.884 33.43,206.804 33.386,206.752C31.985,205.088 30.768,203.55 29.729,202.145C29.293,201.555 28.467,198.527 28.254,197.818C25.197,187.606 22.625,177.858 20.538,168.584Z" style="fill:white;fill-opacity:0.95;"/>
    <path d="M205.137,158.946C205.548,159.036 206.016,159.143 206.55,159.268C207.019,159.378 207.539,159.502 208.117,159.641C208.703,159.782 209.316,159.864 209.896,159.908C211.276,160.012 212.464,159.9 212.629,159.852C214.003,159.449 214.881,160.996 214.546,161.792C213.118,165.195 209.396,165.435 206.816,164.914C204.224,164.405 202.934,161.985 202.718,159.537C202.682,159.13 202.99,158.727 203.432,158.661C203.52,158.647 203.614,158.647 203.711,158.663C204.092,158.726 204.558,158.819 205.137,158.946Z" style="fill:white;fill-opacity:0.15;"/>
    <path d="M22.998,210.422C22.417,210.883 21.876,210.987 21.376,210.73C21.215,210.646 21.103,210.49 21.079,210.31L15.779,172.141C15.759,171.989 15.795,171.833 15.879,171.701C16.183,171.232 16.488,170.575 17.185,170.29C17.598,170.118 18.619,169.657 20.246,168.9C20.326,168.864 20.422,168.756 20.538,168.584C22.625,177.858 25.197,187.606 28.254,197.818C28.467,198.527 29.293,201.555 29.729,202.145C30.768,203.55 31.985,205.088 33.386,206.752C33.43,206.804 33.411,206.884 33.346,206.904L22.998,210.422Z" style="fill:white;fill-opacity:0.75;"/>
    <path d="M203.155,188.776L210.554,186.456C210.859,186.36 211.083,186.107 211.143,185.795C211.532,183.708 211.576,181.624 211.283,179.549C211.283,179.537 211.283,179.525 211.279,179.513L210.462,176.468L214.541,177.109C214.665,177.129 214.785,177.133 214.909,177.121C216.827,176.944 219.605,176.724 223.23,176.424C224.044,176.357 225.309,176.083 226.259,175.731C229.191,174.646 232.161,173.66 235.169,172.758C235.369,172.698 235.574,172.834 235.602,173.039L235.622,173.175C235.638,173.295 235.57,173.408 235.458,173.451C232.173,174.727 230.302,175.467 229.861,175.719C227.302,177.183 224.95,178.669 222.814,180.186C217.909,183.668 214.18,186.317 211.628,188.135C211.036,188.556 210.411,188.917 209.761,189.232C209.672,189.275 209.573,189.3 209.477,189.308L204.957,189.729C204.909,189.733 204.861,189.733 204.813,189.721L203.571,189.453C203.443,189.425 203.367,189.288 203.411,189.164L203.423,189.128C203.471,189.012 203.413,188.884 203.299,188.832C203.258,188.813 203.211,188.796 203.155,188.776Z" style="fill:white;fill-opacity:0.75;"/>
    <path d="M41.371,215.746L34.661,208.294C34.592,208.222 34.5,208.177 34.404,208.17C33.515,208.107 32.909,208.322 32.585,208.783C32.501,208.903 32.349,208.959 32.205,208.923C31.932,208.855 31.672,208.904 31.427,209.068C31.295,209.156 31.143,209.206 30.987,209.216C30.458,209.25 29.981,209.456 29.552,209.849C32.661,213.094 36.467,215.494 40.974,217.052L41.371,215.746Z" style="fill:white;fill-opacity:0.95;"/>
    <path d="M21.7,295.184C21.303,294.951 20.907,294.743 20.51,294.563C19.252,293.99 18.611,293.333 18.335,291.971C17.914,289.899 17.682,287.632 17.634,285.168C17.397,273.169 18.022,261.282 19.517,249.512C19.993,245.754 20.39,242.717 20.706,240.397C21.672,233.382 23.118,226.415 25.045,219.488C25.851,216.608 26.868,213.663 28.098,210.658C28.134,210.578 28.026,210.474 27.782,210.35C28.278,209.969 28.867,209.805 29.552,209.849C32.661,213.094 36.467,215.494 40.974,217.052L43.458,218.014L51.03,224.608C46.219,224.696 41.57,224.333 37.056,223.751C36.984,223.742 36.916,223.787 36.896,223.855C32.308,239.723 28.635,255.822 25.654,272.091C24.26,279.699 22.942,287.395 21.7,295.184Z" style="fill:white;fill-opacity:0.25;"/>
    <path d="M84.271,214.08L85.008,217.797C84.111,218.194 83.221,218.578 82.336,218.955C78.404,220.631 74.303,221.972 70.036,222.97L66.855,222.637C66.723,222.625 66.603,222.561 66.519,222.461L64.716,220.313C71.735,219.692 78.253,217.617 84.271,214.08Z" style="fill:white;fill-opacity:0.25;"/>
    <path d="M43.458,218.014C43.498,217.954 43.511,217.897 43.498,217.846C43.495,217.829 43.486,217.813 43.474,217.801L41.371,215.746L40.974,217.052L43.458,218.014Z" style="fill:white;fill-opacity:0.95;"/>
    <path d="M204.761,276.522C204.537,276.759 204.06,276.873 203.335,276.851C203.219,276.847 203.107,276.895 203.026,276.975L202.862,277.139C202.622,277.38 202.214,277.255 202.145,276.927C201.171,272.262 200.227,268.049 199.329,264.283C198.824,262.167 198.396,260.292 198.043,258.662C197.33,255.373 196.916,253.494 196.801,253.021C196.15,250.35 195.506,247.537 194.858,244.58C193.915,240.281 192.953,236.208 192.037,232.352C191.971,232.076 191.777,231.911 191.701,231.755C191.645,231.643 191.688,231.51 191.797,231.447C192.342,231.132 192.794,230.905 193.143,230.75C204.616,225.652 211.007,222.882 212.265,222.329C214.181,221.485 216.047,220.458 217.87,219.248C219.805,218.755 221.857,217.988 224.024,216.94C224.156,216.876 224.312,216.952 224.344,217.096L229.252,238.638L230.47,244.223C230.51,244.419 230.43,244.624 230.265,244.736C227.988,246.296 224.644,246.965 221.892,247.12C219.216,247.27 215.977,246.175 214.713,249.019C213.108,252.629 214.044,255.261 217.525,256.915C219.953,258.069 222.257,258.478 224.44,258.145C224.993,258.061 227.666,257.68 232.453,256.987C232.617,256.964 232.725,256.951 232.777,256.955L234.6,262.135C234.672,262.34 234.576,262.564 234.376,262.648L230.614,264.255L204.761,276.522Z" style="fill:white;fill-opacity:0.5;"/>
    <path d="M85.008,217.797L86.943,229.043C85.517,228.827 83.878,228.723 82.548,228.17C81.27,227.638 80.157,226.691 78.49,225.594C77.564,224.985 76.339,224.438 74.804,223.955C73.639,223.589 72.052,223.262 70.036,222.97C74.303,221.972 78.404,220.631 82.336,218.955C83.221,218.578 84.111,218.194 85.008,217.797Z" style="fill:white;fill-opacity:0.5;"/>
    <path d="M91.278,271.927C105.088,268.081 118.773,264.303 132.339,260.589C133.813,260.188 135.516,259.151 137.479,259.451C139.67,259.788 174.135,261.431 175.454,261.331L175.868,265.441C175.936,265.713 176.116,265.949 176.36,266.09L194.513,276.57C194.621,276.634 194.759,276.575 194.789,276.454C194.806,276.386 194.805,276.318 194.793,276.254C191.128,260.176 187.951,245.449 184.802,232.188C184.798,232.172 184.773,231.984 184.725,231.619C184.649,231.03 184.264,230.55 183.576,230.177C180.958,228.758 175.519,225.586 167.262,220.678L173.167,221.243C175.098,221.696 177.017,222.249 178.924,222.893C182.798,224.204 186.582,226.498 188.568,230.237C188.644,230.381 188.847,230.401 188.952,230.269C191.12,227.543 194.521,225.538 197.878,224.176C201.104,222.866 205.122,221.673 209.925,220.598C212.678,219.982 215.326,219.532 217.87,219.248C216.047,220.458 214.181,221.485 212.265,222.329C211.007,222.882 204.616,225.652 193.143,230.75C192.794,230.905 192.342,231.132 191.797,231.447C191.688,231.51 191.645,231.643 191.701,231.755C191.777,231.911 191.971,232.076 192.037,232.352C192.953,236.208 193.915,240.281 194.858,244.58C195.506,247.537 196.15,250.35 196.801,253.021C196.916,253.494 197.33,255.373 198.043,258.662C198.396,260.292 198.824,262.167 199.329,264.283C200.227,268.049 201.171,272.262 202.145,276.927C202.214,277.255 202.622,277.38 202.862,277.139L203.026,276.975C203.107,276.895 203.219,276.847 203.335,276.851C204.06,276.873 204.537,276.759 204.761,276.522C206.256,276.739 208.475,276.975 211.412,277.235C226.88,278.593 241.896,278.584 257.032,276.606C264.888,275.58 272.584,273.61 280.112,270.693L283.205,286.137C281.506,286.31 81.611,275.821 79.071,275.396C79.147,275.152 79.431,275.033 79.924,275.056C79.992,275.059 80.06,275.052 80.128,275.032L91.278,271.927Z" style="fill:white;fill-opacity:0.75;"/>
    <path d="M175.868,265.441L174.517,258.862C178.552,259.619 181.611,258.247 183.688,254.736C184.093,254.051 184.189,253.273 183.976,252.396C183.314,249.667 179.557,249.616 176.985,249.275C175.078,249.023 173.447,247.697 172.074,246.286C171.342,245.535 170.933,244.944 170.848,244.508C170.611,243.305 170.303,242.076 169.93,240.822L170.074,240.393C170.102,240.305 170.106,240.213 170.086,240.125C169.201,236.267 168.432,232.833 167.775,229.816C167.626,229.123 167.43,228.334 167.194,227.457C166.745,225.79 166.625,224.103 166.156,222.681C166.036,222.317 165.808,221.531 165.475,220.333C165.427,220.157 165.603,219.997 165.776,220.069L167.262,220.678C175.519,225.586 180.958,228.758 183.576,230.177C184.264,230.55 184.649,231.03 184.725,231.619C184.773,231.984 184.798,232.172 184.802,232.188C187.951,245.449 191.128,260.176 194.793,276.254C194.805,276.318 194.806,276.386 194.789,276.454C194.759,276.575 194.621,276.634 194.513,276.57L176.36,266.09C176.116,265.949 175.936,265.713 175.868,265.441Z" style="fill:white;fill-opacity:0.5;"/>
    <path d="M88.325,239.544L91.278,271.927L80.128,275.032C80.06,275.052 79.992,275.059 79.924,275.056C79.431,275.033 79.147,275.152 79.071,275.396L78.061,275.705C77.837,275.773 77.672,275.965 77.636,276.198C77.214,278.926 77.221,281.63 77.7,284.294C77.724,284.423 77.785,284.538 77.877,284.627C78.305,285.044 78.642,285.259 78.902,285.26C83.013,285.278 87.103,285.589 91.174,286.141C90.909,288.205 90.425,290.604 88.75,291.814C86.218,293.645 83.426,295.023 80.377,295.957C74.487,297.76 68.213,298.95 61.559,299.531C57.356,299.895 53.538,300.047 50.105,299.987C47.657,299.947 45.47,299.683 43.158,299.603C40.362,299.51 36.704,299.082 32.185,298.317C28.335,297.664 24.841,296.622 21.7,295.184C22.942,287.395 24.26,279.699 25.654,272.091C28.635,255.822 32.308,239.723 36.896,223.855C36.916,223.787 36.984,223.742 37.056,223.751C41.57,224.333 46.219,224.696 51.03,224.608C53.326,226.415 55.899,228.084 58.751,229.596C58.971,229.713 59.176,229.859 59.36,230.029C64.114,234.431 69.559,237.659 75.781,239.604C78.95,240.594 81.92,240.925 84.688,240.581C85.677,240.458 86.891,240.113 88.325,239.544Z" style="fill:white;fill-opacity:0.5;"/>
    <path d="M274.463,231.912C275.962,234.924 277.236,237.993 278.281,241.122C279.283,244.123 280.256,247.136 281.198,250.161C282.163,253.269 282.632,256.579 282.604,260.084C282.588,261.795 282.24,262.993 281.466,264.487C280.941,265.501 280.296,266.242 279.531,266.715C279.531,266.715 250.783,265.905 244.893,265.54L245.514,260.93C245.53,260.801 245.462,260.676 245.349,260.613C243.443,259.544 241.928,258.63 239.969,257.917C238.43,257.356 236.696,255.891 234.837,256.807C234.592,256.927 234.26,256.966 233.831,256.931C233.475,256.902 233.126,256.911 232.777,256.955C232.725,256.951 232.617,256.964 232.453,256.987C227.666,257.68 224.993,258.061 224.44,258.145C222.257,258.478 219.953,258.069 217.525,256.915C214.044,255.261 213.108,252.629 214.713,249.019C215.977,246.175 219.216,247.27 221.892,247.12C224.644,246.965 227.988,246.296 230.265,244.736C230.43,244.624 230.51,244.419 230.47,244.223L229.252,238.638C231.596,238.883 233.708,239.795 235.582,241.371C237.358,242.864 238.466,243.811 238.903,244.207C240.85,245.974 242.682,246.899 244.929,247.536C245.013,247.56 245.098,247.496 245.101,247.408C245.175,245.29 245.014,243.333 244.664,241.551C244.617,241.31 244.893,241.134 245.089,241.283C246.929,242.675 248.891,243.922 250.97,245.024C251.235,245.165 251.539,245.217 251.835,245.169C253.907,244.832 255.813,244.273 257.561,243.498C257.697,243.438 257.817,243.346 257.913,243.226C258.269,242.781 258.526,242.529 258.674,242.468C261.404,241.358 263.366,240.39 264.572,239.572C266.84,238.031 268.814,236.748 270.729,235.149C271.943,234.135 273.185,233.054 274.463,231.912ZM260.076,246.162C260.004,245.693 259.849,245.236 259.604,244.796C259.528,244.66 259.323,244.704 259.315,244.86C259.254,246.142 259.104,247.445 258.847,248.766C258.807,248.971 258.84,249.105 258.939,249.167C259.032,249.225 259.175,249.251 259.371,249.243L261.138,249.215C261.262,249.215 261.347,249.083 261.294,248.971L260.076,246.162Z" style="fill:white;fill-opacity:0.75;"/>
    <path d="M174.517,258.862C172.558,258.033 171.1,256.987 170.142,255.721C167.719,252.524 166.765,248.987 167.278,245.113C167.494,243.486 168.38,242.056 169.93,240.822C170.303,242.076 170.611,243.305 170.848,244.508C170.933,244.944 171.342,245.535 172.074,246.286C173.447,247.697 175.078,249.023 176.985,249.275C179.557,249.616 183.314,249.667 183.976,252.396C184.189,253.273 184.093,254.051 183.688,254.736C181.611,258.247 178.552,259.619 174.517,258.862Z" style="fill:white;fill-opacity:0.75;"/>
    <path d="M260.076,246.162C260.004,245.693 259.849,245.236 259.604,244.796C259.528,244.66 259.323,244.704 259.315,244.86C259.254,246.142 259.104,247.445 258.847,248.766C258.807,248.971 258.84,249.105 258.939,249.167C259.032,249.225 259.175,249.251 259.371,249.243L260.076,246.162Z" style="fill:white;fill-opacity:0.95;"/>
    <path d="M259.371,249.243L261.138,249.215C261.262,249.215 261.347,249.083 261.294,248.971L260.076,246.162L259.371,249.243Z" style="fill:white;fill-opacity:0.35;"/>
    <path d="M244.893,265.54L245.514,260.93C245.53,260.801 245.462,260.676 245.349,260.613C243.443,259.544 241.928,258.63 239.969,257.917C238.43,257.356 236.696,255.891 234.837,256.807C234.592,256.927 234.26,256.966 233.831,256.931C233.475,256.902 233.126,256.911 232.777,256.955L234.6,262.135C234.672,262.34 234.576,262.564 234.376,262.648L230.614,264.255C231.996,264.131 243.712,265.64 244.893,265.54Z" style="fill:white;fill-opacity:0.95;"/>
    <path d="M279.531,266.715L280.112,270.693C272.584,273.61 264.888,275.58 257.032,276.606C241.896,278.584 226.88,278.593 211.412,277.235C208.475,276.975 206.256,276.739 204.761,276.522L230.614,264.255C231.996,264.131 279.531,266.715 279.531,266.715Z" style="fill:white;fill-opacity:0.35;"/>
    <path d="M283.205,286.137C283.417,287.8 283.626,289.427 283.826,291.017C284.098,293.205 284.231,294.891 284.227,296.081C284.219,297.692 283.017,297.491 281.663,297.367C280.957,297.303 275.473,296.966 265.205,296.354C163.208,290.28 83.013,285.278 78.902,285.26C78.642,285.259 78.305,285.044 77.877,284.627C77.785,284.538 77.724,284.423 77.7,284.294C77.221,281.63 77.214,278.926 77.636,276.198C77.672,275.965 77.837,275.773 78.061,275.705L79.071,275.396C81.611,275.821 281.506,286.31 283.205,286.137Z" style="fill:white;fill-opacity:0.5;"/>
    <path d="M88.029,74.495C87.865,74.527 87.712,74.399 87.712,74.231L87.712,74.082C87.712,73.962 87.788,73.854 87.905,73.814C90.208,72.993 92.684,72.7 95.336,72.937C96.061,73.001 96.935,73.289 97.956,73.802C98.229,73.934 98.393,74.119 98.449,74.347C98.521,74.651 98.257,74.936 97.936,74.896C94.791,74.511 91.574,73.858 88.029,74.495ZM106.83,75.849C108.902,76.815 110.777,78.105 112.463,79.727C112.499,79.763 112.507,79.82 112.483,79.868L112.379,80.048C112.347,80.104 112.271,80.12 112.219,80.08C110.54,78.862 108.725,77.969 106.782,77.4C105.989,77.436 105.195,77.1 104.399,76.386C104.242,76.246 104.274,75.988 104.463,75.889C105.066,75.573 105.857,75.565 106.83,75.849ZM95.938,78.379C96.558,78.421 96.987,79.615 96.892,81.052C96.799,82.488 96.214,83.618 95.592,83.576C94.972,83.533 94.543,82.34 94.638,80.902C94.731,79.467 95.316,78.337 95.938,78.379ZM105.536,80.978C105.912,81.004 106.171,81.726 106.114,82.595C106.057,83.464 105.703,84.147 105.327,84.122C104.952,84.096 104.693,83.374 104.75,82.505C104.807,81.636 105.16,80.953 105.536,80.978Z" style="fill:white;fill-opacity:0.15;"/>
    <path d="M207.986,136.298C209.227,136.617 210.078,137.27 210.086,138.032C210.097,139.124 208.367,140.029 206.224,140.051C206.199,140.051 206.173,140.051 206.147,140.051C206.698,138.771 207.309,137.511 207.986,136.298Z" style="fill:white;fill-opacity:0.15;"/>
    <path d="M213.669,144.081C214.266,144.286 214.4,145.472 213.968,146.727C213.536,147.982 212.701,148.835 212.105,148.63C211.508,148.424 211.374,147.239 211.806,145.983C212.238,144.728 213.073,143.875 213.669,144.081Z" style="fill:white;fill-opacity:0.15;"/>
</svg>
