<?xml version="1.0" encoding="UTF-8" standalone="no"?>
<!DOCTYPE svg PUBLIC "-//W3C//DTD SVG 1.1//EN" "http://www.w3.org/Graphics/SVG/1.1/DTD/svg11.dtd">
<svg width="100%" height="100%" viewBox="0 0 300 300" version="1.1" xmlns="http://www.w3.org/2000/svg" xmlns:xlink="http://www.w3.org/1999/xlink" xml:space="preserve" xmlns:serif="http://www.serif.com/" style="fill-rule:evenodd;clip-rule:evenodd;stroke-linejoin:round;stroke-miterlimit:2;">
    <path d="M151.252,110.99L144.926,97.66C144.838,97.474 144.673,97.341 144.474,97.293C134.597,94.904 126.273,90.015 119.505,82.63C112.718,75.222 108.576,66.618 107.071,56.819C104.251,38.413 111.812,20.586 126.644,9.477C127.531,8.815 128.541,8.266 129.464,7.59C130.26,7.002 131.436,6.479 132.378,5.829C140.173,1.784 148.269,-0.156 156.665,0.01C168.511,0.244 179.083,4.344 188.385,12.307C188.756,12.623 189.753,13.581 191.381,15.176C192.219,15.998 192.905,16.755 193.437,17.454C194.321,18.607 194.955,19.413 195.335,19.868C196.625,21.408 197.502,23.078 198.724,25.109C199.221,25.937 199.624,26.668 199.929,27.305C203.955,35.713 205.621,44.288 204.923,53.024C204.081,63.593 200.098,73.123 192.973,81.613C192.589,82.071 191.927,82.763 190.984,83.689C190.091,84.566 189.256,85.547 188.236,86.347C186.01,88.088 184.34,89.615 182.15,90.889C181.162,91.464 180.295,91.958 179.544,92.377C173.933,95.509 168.001,97.442 161.753,98.176C161.548,98.199 161.36,98.303 161.236,98.465C160.219,99.772 157.123,103.687 151.947,110.207C151.726,110.484 151.59,110.701 151.535,110.854C151.518,110.9 151.486,110.938 151.447,110.964C151.369,111.013 151.304,111.02 151.252,110.99ZM137.284,33.104L143.958,38.68C144.14,38.833 144.406,38.816 144.565,38.644C146.521,36.561 148.935,35.184 151.804,34.515C152.298,34.401 153.507,34.271 155.43,34.125C155.537,34.115 155.645,34.125 155.749,34.154C155.992,34.222 156.541,34.274 157.396,34.316C159.81,34.43 162.607,35.382 164.505,37.114C165.658,38.167 166.334,39.401 166.539,40.821C166.964,43.807 165.847,45.828 163.601,47.816C162.468,48.82 161.62,49.502 161.057,49.866C158.494,51.52 156.19,53.424 154.147,55.572C152.318,57.495 151.288,59.818 151.057,62.541C151.034,62.784 151.213,63.002 151.457,63.031C154.998,63.46 157.545,63.753 159.095,63.912C159.163,63.918 159.29,63.944 159.469,63.987C160.07,64.133 160.596,64.133 161.044,63.99C161.145,63.957 161.217,63.866 161.23,63.762C161.431,62.073 162.12,60.595 163.296,59.331C164.635,57.891 165.976,56.715 167.318,55.806C169.557,54.288 171.461,52.777 173.027,51.28C175.34,49.067 176.754,46.214 177.267,42.728C177.348,42.166 177.407,41.539 177.442,40.844C177.589,38.063 176.594,35.236 174.999,33.147C171.757,28.897 166.587,26.795 161.386,25.979C159.092,25.619 157.116,25.453 155.463,25.482C154.111,25.505 152.597,25.622 150.924,25.833C145.654,26.496 140.861,28.916 137.265,32.799C137.183,32.887 137.19,33.027 137.284,33.104ZM148.196,75.633C147.941,79.088 150.615,82.103 154.165,82.363C157.714,82.623 160.801,80.034 161.053,76.578C161.308,73.123 158.634,70.108 155.084,69.849C151.535,69.588 148.448,72.177 148.196,75.633Z" style="fill:white;fill-opacity:0.95;fill-rule:nonzero;"/>
    <path d="M132.378,5.829C131.436,6.479 130.26,7.002 129.464,7.59C128.541,8.266 127.531,8.815 126.644,9.477C111.812,20.586 104.251,38.413 107.071,56.819C108.576,66.618 112.718,75.222 119.505,82.63C126.273,90.015 134.597,94.904 144.474,97.293C144.673,97.341 144.838,97.474 144.926,97.66L151.252,110.99L147.022,112.41C146.801,112.485 146.557,112.381 146.456,112.17L140.403,99.382C140.247,99.047 139.948,98.8 139.591,98.703C138.525,98.417 137.196,98.014 135.601,97.497C127.778,94.963 120.727,90.362 115.184,84.462C114.281,83.5 112.744,81.879 111.662,80.326C109.996,77.944 108.745,75.982 107.91,74.445C105.372,69.789 103.65,65.036 102.74,60.185C102.295,57.804 101.99,55.367 101.831,52.878C101.814,52.582 101.808,51.497 101.814,49.623C101.818,48.775 102,48.18 101.896,47.494C101.879,47.387 101.876,47.283 101.886,47.176C102.367,41.948 103.624,36.883 105.661,31.98C106.119,30.885 106.519,30.034 106.86,29.427C107.504,28.289 107.841,27.399 108.621,26.116C111.984,20.599 116.266,15.781 121.468,11.658C122.332,10.975 123.33,10.53 124.155,9.838C124.285,9.731 124.431,9.646 124.587,9.591C125.38,9.305 125.987,8.61 126.845,8.191C127.29,7.973 127.742,7.755 128.203,7.531C128.531,7.372 128.801,7.031 129.142,7.008C129.262,6.998 129.399,6.946 129.558,6.849C130.445,6.306 131.387,5.969 132.378,5.829Z" style="fill:white;fill-opacity:0.15;fill-rule:nonzero;"/>
    <path d="M137.284,33.104C137.19,33.027 137.183,32.887 137.265,32.799C140.861,28.916 145.654,26.496 150.924,25.833C152.597,25.622 154.111,25.505 155.463,25.482C157.116,25.453 159.092,25.619 161.386,25.979C166.587,26.795 171.757,28.897 174.999,33.147C176.594,35.236 177.589,38.063 177.442,40.844C177.407,41.539 177.348,42.166 177.267,42.728C176.754,46.214 175.34,49.067 173.027,51.28C171.461,52.777 169.557,54.288 167.318,55.806C165.976,56.715 164.635,57.891 163.296,59.331C162.12,60.595 161.431,62.073 161.23,63.762C161.217,63.866 161.145,63.957 161.044,63.99C160.596,64.133 160.07,64.133 159.469,63.987C159.29,63.944 159.163,63.918 159.095,63.912C157.545,63.753 154.998,63.46 151.457,63.031C151.213,63.002 151.034,62.784 151.057,62.541C151.288,59.818 152.318,57.495 154.147,55.572C156.19,53.424 158.494,51.52 161.057,49.866C161.62,49.502 162.468,48.82 163.601,47.816C165.847,45.828 166.964,43.807 166.539,40.821C166.334,39.401 165.658,38.167 164.505,37.114C162.607,35.382 159.81,34.43 157.396,34.316C156.541,34.274 155.992,34.222 155.749,34.154C155.645,34.125 155.537,34.115 155.43,34.125C153.507,34.271 152.298,34.401 151.804,34.515C148.935,35.184 146.521,36.561 144.565,38.644C144.406,38.816 144.14,38.833 143.958,38.68L137.284,33.104Z" style="fill:white;fill-opacity:0.15;fill-rule:nonzero;"/>
    <path d="M148.196,75.633C148.448,72.177 151.535,69.588 155.084,69.849C158.634,70.108 161.308,73.123 161.053,76.578C160.801,80.034 157.714,82.623 154.165,82.363C150.615,82.103 147.941,79.088 148.196,75.633Z" style="fill:white;fill-opacity:0.15;fill-rule:nonzero;"/>
    <path d="M247.475,92.292C247.67,93.14 247.921,93.953 248.223,94.726C248.658,95.84 248.941,96.639 249.071,97.124C249.383,98.283 249.844,99.252 250.279,100.535C252.43,106.874 254.045,111.553 255.12,114.571C255.663,116.095 256.329,118.031 257.112,120.38C258.223,123.704 258.88,125.644 259.078,126.199C259.243,126.667 260.043,128.925 261.476,132.977C262.135,134.832 263.152,137.789 264.533,141.843C269.14,155.363 272.538,165.259 274.728,171.54C275.492,173.723 275.879,174.841 275.891,174.896C276.385,176.722 277.207,178.233 277.542,179.945C277.549,179.981 277.695,180.322 277.981,180.965C278.137,181.313 278.172,181.69 278.088,182.089C277.942,182.291 277.75,182.343 277.519,182.248C277.269,182.144 277.139,182.092 277.129,182.089C236.325,171.234 214.54,165.431 211.778,164.674C210.635,164.359 209.556,164.099 208.545,163.895C208.328,163.852 208.211,163.609 208.318,163.414L246.887,91.802C246.972,91.642 247.189,91.607 247.323,91.733C247.531,91.932 247.583,92.117 247.475,92.292Z" style="fill:white;fill-opacity:0.95;fill-rule:nonzero;"/>
    <path d="M278.088,182.089C278.172,181.69 278.137,181.313 277.981,180.965C277.695,180.322 277.549,179.981 277.542,179.945C277.207,178.233 276.385,176.722 275.891,174.896C275.879,174.841 275.492,173.723 274.728,171.54C272.538,165.259 269.14,155.363 264.533,141.843C263.152,137.789 262.135,134.832 261.476,132.977C260.043,128.925 259.243,126.667 259.078,126.199C258.88,125.644 258.223,123.704 257.112,120.38C256.329,118.031 255.663,116.095 255.12,114.571C254.045,111.553 252.43,106.874 250.279,100.535C249.844,99.252 249.383,98.283 249.071,97.124C248.941,96.639 248.658,95.84 248.223,94.726C247.921,93.953 247.67,93.14 247.475,92.292C247.872,92.445 248.301,92.793 248.759,93.342C257.775,104.119 262.567,109.863 263.129,110.568C263.756,111.351 265.144,112.969 267.291,115.425C267.655,115.841 268.071,116.345 268.542,116.933C269,117.508 269.416,118.018 269.783,118.457C272.919,122.183 277.903,128.142 284.729,136.339C285.765,137.584 286.805,138.786 287.841,139.946C287.929,140.047 287.984,140.17 287.997,140.303C288.033,140.631 287.988,141.054 287.867,141.57C284.856,154.609 281.759,168.053 278.578,181.911C278.543,182.063 278.452,182.148 278.299,182.17C278.263,182.174 278.195,182.148 278.088,182.089Z" style="fill:white;fill-opacity:0.25;fill-rule:nonzero;"/>
    <path d="M85.803,117.193C85.774,117.472 85.621,117.664 85.345,117.765C82.249,118.895 78.181,119.919 75.926,120.578C70.38,122.2 65.848,123.496 62.329,124.474C61.958,124.575 60.321,125.039 57.416,125.865C54.84,126.596 52.442,127.284 50.22,127.937C38.845,123.555 27.554,119.224 16.352,114.941C16.309,114.925 16.004,114.834 15.435,114.668C15.068,114.564 14.795,114.408 14.613,114.197L50.688,106.578C50.788,106.556 50.892,106.562 50.99,106.591L85.803,117.193Z" style="fill:white;fill-opacity:0.95;fill-rule:nonzero;"/>
    <path d="M14.613,114.197C14.795,114.408 15.068,114.564 15.435,114.668C16.004,114.834 16.309,114.925 16.352,114.941C27.554,119.224 38.845,123.555 50.22,127.937L49.849,128.249C49.794,128.295 49.765,128.36 49.762,128.431L47.465,185.79C47.221,185.897 46.954,185.868 46.672,185.699C42.848,183.428 40.843,182.239 40.658,182.135C36.863,179.987 33.023,177.774 29.14,175.497C23.63,172.261 18.252,169.249 12.375,165.799C12.128,165.652 11.979,165.383 11.991,165.093C12.082,162.982 12.81,146.207 14.172,114.766C14.185,114.48 14.331,114.292 14.613,114.197Z" style="fill:white;fill-opacity:0.75;fill-rule:nonzero;"/>
    <path d="M47.465,185.79L49.762,128.431C49.765,128.36 49.794,128.295 49.849,128.249L50.22,127.937C52.442,127.284 54.84,126.596 57.416,125.865C60.321,125.039 61.958,124.575 62.329,124.474C65.848,123.496 70.38,122.2 75.926,120.578C78.181,119.919 82.249,118.895 85.345,117.765C85.621,117.664 85.774,117.472 85.803,117.193C86.096,117.31 86.313,117.456 86.459,117.632C86.544,117.739 86.589,117.872 86.583,118.008L84.458,168.404C84.452,168.576 84.351,168.729 84.195,168.801C81.047,170.269 78.191,171.631 75.634,172.885C74.068,173.651 72.482,174.233 70.991,174.958C69.493,175.689 68.21,176.299 67.141,176.793C58.622,180.738 52.406,183.649 48.494,185.523C48.023,185.748 47.682,185.839 47.465,185.79Z" style="fill:white;fill-opacity:0.25;fill-rule:nonzero;"/>
    <path d="M174.398,171.403C174.32,170.604 174.534,169.658 174.369,169.009C174.122,168.031 173.537,167.472 172.611,167.326C171.604,167.166 171.012,166.984 170.759,166.062C170.083,163.583 169.313,161.13 168.452,158.703C168.036,157.53 167.026,155.363 165.421,152.195C165.375,152.101 165.307,152.016 165.223,151.951C164.518,151.389 163.809,151.425 163.101,152.058C160.118,154.732 156.853,157.046 153.308,159.005C152.512,159.443 151.317,159.979 149.725,160.607C147.408,161.227 145.085,161.581 142.749,161.669C141.44,161.718 140.54,161.76 140.043,161.802C138.048,161.968 136.803,161.913 135.029,162.462C134.906,162.501 134.825,162.621 134.838,162.748C134.955,163.885 134.955,165.503 134.838,167.605C134.815,168.053 134.627,169.314 134.272,171.384C133.96,173.213 133.85,174.997 133.944,176.735C134.045,178.587 134.11,179.675 134.146,180C134.263,181.046 134.526,182.102 134.932,183.165C132.479,182.82 130.471,181.651 128.905,179.656C128.213,178.775 127.037,176.806 126.549,175.38C126.234,174.457 125.773,173.661 125.471,172.657C124.603,169.762 124.015,166.728 123.7,163.557C123.606,162.608 123.755,161.75 123.541,160.883C123.521,160.795 123.515,160.707 123.521,160.62L123.885,156.233C123.888,156.224 123.888,156.217 123.892,156.207C124.204,155.333 124.226,154.469 124.574,153.641C125.325,151.863 126.211,150.457 127.235,149.414C127.911,148.728 129.223,147.581 130.416,146.902C133.005,145.424 135.718,144.384 138.561,143.783C139.022,143.686 140.186,143.595 142.051,143.513C142.207,143.507 142.626,143.396 143.308,143.185C144.325,142.873 145.368,141.817 145.888,141.129C146.999,139.657 146.846,137.457 146.138,135.888C145.124,133.646 144.507,132.051 144.283,131.102L144.283,131.089L144.081,129.383C144.058,129.182 144.071,128.977 144.127,128.779C144.546,127.249 145.196,126.017 146.07,125.088C146.606,124.519 147.499,123.948 148.753,123.366C149.618,122.966 150.667,122.703 151.902,122.583C154.28,122.346 156.512,122.495 158.601,123.031C159.459,123.252 160.486,123.782 161.685,124.62C162.373,125.104 162.9,125.764 163.264,126.599C163.514,127.18 163.569,128.019 163.429,129.114C163.16,131.219 162.773,132.928 162.649,134.695C162.64,134.825 162.594,134.952 162.516,135.059C162.334,135.313 162.263,135.602 162.302,135.924C162.409,136.833 162.513,137.665 162.614,138.416C162.633,138.552 162.669,138.685 162.721,138.815C163.4,140.505 164.511,142.003 166.061,143.312C167.182,144.257 168.121,145.018 168.878,145.593C169.615,146.148 170.022,146.72 170.697,147.234C170.818,147.324 171.016,147.536 171.292,147.864C172.582,149.414 173.501,151.1 174.054,152.926C174.083,153.014 174.132,153.092 174.197,153.15C174.404,153.342 174.323,153.582 174.411,153.845C174.863,155.216 175.197,156.789 175.408,158.56C175.486,159.226 175.304,159.996 175.646,160.483C175.704,160.564 175.733,160.665 175.73,160.763L175.395,168.667C175.392,168.713 175.386,168.758 175.369,168.801L174.398,171.403Z" style="fill:white;fill-opacity:0.35;fill-rule:nonzero;"/>
    <path d="M174.398,171.403C173.972,173.112 173.582,174.72 172.088,175.747C171.207,176.355 170.71,176.706 170.597,176.8C170.46,176.91 170.366,177.063 170.324,177.232C169.781,179.347 168.849,181.527 167.52,183.772C166.747,185.082 166.025,186.011 165.356,186.563C164.501,187.268 163.488,188.064 162.312,188.954C160.544,190.296 160.138,192.291 160.144,194.449C160.148,195.336 160.177,196.028 160.239,196.518C158.962,198.234 157.311,199.39 155.294,199.988C153.783,200.437 152.214,200.596 150.583,200.463C149.929,200.407 149.28,200.372 148.627,200.352C147.454,200.316 146.112,199.881 144.786,199.829L145.166,198.952C145.823,198.305 146.274,197.805 146.524,197.457C148.019,195.368 149.367,193.035 150.566,190.455C151.343,188.789 151.856,187.132 152.11,185.478C153.789,185.199 155.576,184.519 156.512,182.992C156.921,182.326 156.977,181.472 156.038,181.293C155.943,181.274 155.846,181.277 155.755,181.306L153.585,181.959C153.308,181.995 153.049,181.992 152.805,181.943C152.711,181.924 152.646,181.836 152.665,181.742C152.847,180.754 152.919,180.055 152.883,179.646C152.756,178.233 152.662,177.352 152.6,177.001C152.47,176.273 152.142,175.799 151.612,175.581C151.476,175.526 151.327,175.51 151.18,175.533L148.744,175.926C148.646,175.942 148.549,175.919 148.467,175.871C148.107,175.653 147.922,175.399 147.905,175.11C147.668,170.409 148.272,165.574 149.725,160.607C151.317,159.979 152.512,159.443 153.308,159.005C156.853,157.046 160.118,154.732 163.101,152.058C163.809,151.425 164.518,151.389 165.223,151.951C165.307,152.016 165.375,152.101 165.421,152.195C167.026,155.363 168.036,157.53 168.452,158.703C169.313,161.13 170.083,163.583 170.759,166.062C171.012,166.984 171.604,167.166 172.611,167.326C173.537,167.472 174.122,168.031 174.369,169.009C174.534,169.658 174.32,170.604 174.398,171.403ZM161.418,163.456C161.542,163.482 161.652,163.381 161.639,163.258C161.629,163.173 161.581,163.108 161.493,163.06C159.235,161.835 155.264,160.879 152.837,162.28C152.571,162.433 152.561,162.816 152.821,162.978C153.029,163.108 153.263,163.16 153.52,163.131C156.327,162.813 158.959,162.92 161.418,163.456ZM155.015,165.98C154.507,166.003 154.143,166.965 154.2,168.124C154.257,169.285 154.712,170.204 155.221,170.179C155.729,170.155 156.093,169.194 156.037,168.034C155.979,166.874 155.524,165.954 155.015,165.98Z" style="fill:white;fill-opacity:0.75;fill-rule:nonzero;"/>
    <path d="M149.725,160.607C148.272,165.574 147.668,170.409 147.905,175.11C147.922,175.399 148.107,175.653 148.467,175.871C148.549,175.919 148.646,175.942 148.744,175.926L151.18,175.533C151.327,175.51 151.476,175.526 151.612,175.581C152.142,175.799 152.47,176.273 152.6,177.001C152.662,177.352 152.756,178.233 152.883,179.646C152.919,180.055 152.847,180.754 152.665,181.742C152.646,181.836 152.711,181.924 152.805,181.943C153.049,181.992 153.308,181.995 153.585,181.959C151.619,182.408 149.637,182.567 147.645,182.434C147.551,182.427 147.457,182.447 147.372,182.489C146.687,182.856 146.589,183.33 147.08,183.909C148.337,185.4 150.212,185.647 152.11,185.478C151.856,187.132 151.343,188.789 150.566,190.455C149.367,193.035 148.019,195.368 146.524,197.457C146.274,197.805 145.823,198.305 145.166,198.952C145.192,198.143 145.374,197.35 145.326,196.599C145.257,195.498 144.971,194.436 144.465,193.412C143.967,192.405 143.214,191.164 142.268,190.196C142.012,189.932 141.505,189.569 140.741,189.104C139.159,188.139 137.895,187.154 136.943,186.154C136.173,185.345 135.504,184.347 134.932,183.165C134.526,182.102 134.263,181.046 134.146,180C134.11,179.675 134.045,178.587 133.944,176.735C133.85,174.997 133.96,173.213 134.272,171.384C134.627,169.314 134.815,168.053 134.838,167.605C134.955,165.503 134.955,163.885 134.838,162.748C134.825,162.621 134.906,162.501 135.029,162.462C136.803,161.913 138.048,161.968 140.043,161.802C140.54,161.76 141.44,161.718 142.749,161.669C145.085,161.581 147.408,161.227 149.725,160.607ZM138.197,164.954C140.299,164.444 142.557,164.294 144.978,164.509C145.199,164.528 145.4,164.479 145.576,164.362C145.793,164.216 145.777,163.888 145.547,163.765C143.431,162.611 140.039,163.514 138.126,164.616C138.051,164.658 138.009,164.717 138.002,164.788C137.993,164.895 138.093,164.98 138.197,164.954ZM145.102,166.972C144.582,167.004 144.218,167.975 144.291,169.143C144.364,170.308 144.845,171.228 145.367,171.194C145.888,171.163 146.252,170.191 146.178,169.024C146.105,167.858 145.625,166.939 145.102,166.972Z" style="fill:white;fill-opacity:0.65;fill-rule:nonzero;"/>
    <path d="M161.418,163.456C158.959,162.92 156.327,162.813 153.52,163.131C153.263,163.16 153.029,163.108 152.821,162.978C152.561,162.816 152.571,162.433 152.837,162.28C155.264,160.879 159.235,161.835 161.493,163.06C161.581,163.108 161.629,163.173 161.639,163.258C161.652,163.381 161.542,163.482 161.418,163.456Z" style="fill:white;fill-opacity:0.15;fill-rule:nonzero;"/>
    <path d="M138.197,164.954C138.093,164.98 137.993,164.895 138.002,164.788C138.009,164.717 138.051,164.658 138.126,164.616C140.039,163.514 143.431,162.611 145.547,163.765C145.777,163.888 145.793,164.216 145.576,164.362C145.4,164.479 145.199,164.528 144.978,164.509C142.557,164.294 140.299,164.444 138.197,164.954Z" style="fill:white;fill-opacity:0.15;fill-rule:nonzero;"/>
    <path d="M155.015,165.98C155.524,165.954 155.979,166.874 156.037,168.034C156.093,169.194 155.729,170.155 155.221,170.179C154.712,170.204 154.257,169.285 154.2,168.124C154.143,166.965 154.507,166.003 155.015,165.98Z" style="fill:white;fill-opacity:0.15;fill-rule:nonzero;"/>
    <path d="M145.102,166.972C145.625,166.939 146.105,167.858 146.178,169.024C146.252,170.191 145.888,171.163 145.367,171.194C144.845,171.228 144.364,170.308 144.291,169.143C144.218,167.975 144.582,167.004 145.102,166.972Z" style="fill:white;fill-opacity:0.15;fill-rule:nonzero;"/>
    <path d="M152.11,185.478C150.212,185.647 148.337,185.4 147.08,183.909C146.589,183.33 146.687,182.856 147.372,182.489C147.457,182.447 147.551,182.427 147.645,182.434C149.637,182.567 151.619,182.408 153.585,181.959L155.755,181.306C155.846,181.277 155.943,181.274 156.038,181.293C156.977,181.472 156.921,182.326 156.512,182.992C155.576,184.519 153.789,185.199 152.11,185.478Z" style="fill:white;fill-opacity:0.15;fill-rule:nonzero;"/>
    <path d="M160.239,196.518C161.33,198.12 162.422,199.67 163.517,201.174C164.381,202.36 165.184,203.169 166.097,204.111C166.197,204.218 166.34,204.28 166.487,204.283C168.745,204.339 170.967,204.41 173.16,204.498C175.084,204.579 176.747,204.923 178.515,205.018C179.142,205.053 179.902,205.219 180.799,205.518C181.361,205.703 182.043,206.067 182.852,206.603C184.6,207.763 185.646,208.429 185.987,208.601C186.121,208.67 186.244,208.761 186.351,208.865C186.79,209.297 187.774,210.19 189.308,211.545C190.123,212.263 191.088,213.16 192.209,214.232C194.061,216.003 195.747,217.484 197.265,218.68C197.827,219.122 198.642,219.469 199.022,219.97C199.435,220.516 199.539,221.152 199.334,221.883C198.688,223.937 198.171,225.327 197.785,226.052C195.793,229.782 193.233,233.073 190.104,235.923C189.772,236.225 189.379,236.355 188.921,236.312C188.587,236.283 188.252,236.299 187.924,236.364C184.996,235.179 182.131,233.824 179.327,232.293C179.057,232.147 178.729,232.323 178.7,232.628L178.635,233.301C178.631,233.346 178.622,233.392 178.612,233.437C177.579,237.336 176.793,240.549 175.967,243.454C175.873,243.792 175.724,244.211 175.519,244.708C174.72,246.667 174.063,248.919 173.547,251.459C173.007,254.127 173.056,256.778 173.696,259.42C174.697,263.562 176.084,267.588 177.861,271.493C177.91,271.594 177.894,271.714 177.822,271.802L177.501,272.185C176.049,273.767 174.372,275.109 172.475,276.211C166.85,279.476 160.827,280.782 154.397,280.126C149.237,279.599 144.403,278.732 139.65,276.61C138.454,276.077 137.255,275.301 136.095,274.58C136.313,272.452 136.397,270.788 136.348,269.583C136.271,267.662 136.212,265.736 136.17,263.806C136.092,260.027 135.861,256.824 135.475,254.202C135.215,252.437 134.604,250.995 133.645,249.877C131.615,247.509 129.922,245.585 129.379,242.629C128.986,240.487 128.999,238.385 129.425,236.322C129.487,236.02 129.477,235.624 129.493,235.205C129.496,235.062 129.35,234.964 129.223,235.026C126.465,236.329 124.213,237.225 122.465,237.716C121.731,237.921 121.263,238.229 120.448,237.875C120.035,237.664 119.645,237.31 119.281,236.813C119.226,236.738 119.164,236.673 119.096,236.611C118.648,236.208 118.216,235.789 117.8,235.354C115.34,232.771 112.838,229.727 110.288,226.227C109.755,225.496 109.277,224.772 108.852,224.06C108.238,223.216 107.448,221.838 108.105,220.935C108.257,220.724 108.611,220.499 109.17,220.262C110.759,219.59 111.987,218.589 113.755,217.098C114.658,216.334 115.698,215.356 116.877,214.17C118.93,212.101 121.055,210.128 123.248,208.26C123.401,208.127 123.547,207.987 123.68,207.835C124.775,206.61 125.581,205.872 126.095,205.619C127.219,205.063 128.983,204.485 131.384,203.884C132.368,203.637 133.353,203.744 134.25,203.526C134.425,203.484 134.604,203.465 134.779,203.468C137.086,203.491 139.344,203.559 141.553,203.673C142.034,203.695 142.499,203.494 142.947,203.065C143.886,202.172 144.497,201.093 144.786,199.829C146.112,199.881 147.454,200.316 148.627,200.352C149.28,200.372 149.929,200.407 150.583,200.463C152.214,200.596 153.783,200.437 155.294,199.988C157.311,199.39 158.962,198.234 160.239,196.518Z" style="fill:white;fill-opacity:0.95;fill-rule:nonzero;"/>
    <path d="M187.924,236.364C188.252,236.299 188.587,236.283 188.921,236.312C189.379,236.355 189.772,236.225 190.104,235.923C193.233,233.073 195.793,229.782 197.785,226.052C198.171,225.327 198.688,223.937 199.334,221.883C203.184,224.577 206.973,227.296 210.693,230.045C212.142,231.114 213.357,232.306 214.949,233.489C215.186,233.668 215.956,234.37 217.253,235.598C217.354,235.692 217.484,235.754 217.623,235.77C222.351,236.306 224.921,236.605 225.327,236.667C233.686,237.901 240.435,239.045 245.565,240.094C249.227,240.845 251.144,241.238 251.316,241.274C252.596,241.53 253.558,241.742 254.204,241.914C254.419,241.972 254.649,241.927 254.831,241.794C256.777,240.341 258.811,239.172 260.936,238.281C261.245,238.155 262.148,237.979 263.652,237.762C264.422,237.651 265.339,237.632 266.408,237.7C268.393,237.83 270.394,237.862 272.418,237.794C272.776,237.784 274.147,237.788 276.535,237.81C277.805,237.82 278.777,238.467 279.449,239.747C279.501,239.841 279.524,239.951 279.514,240.059C279.43,241.089 279.118,241.911 278.578,242.531C276.155,245.322 273.487,246.69 270.128,248.002C268.104,248.792 265.566,249.029 263.691,249.296C263.003,249.396 262.44,249.419 262.008,249.37C261.895,249.357 261.329,249.344 260.319,249.331C258.473,249.312 256.582,249.049 254.643,248.539C254.474,248.493 254.295,248.5 254.129,248.558C252.528,249.114 250.763,249.432 248.83,249.513C247.898,249.556 247.092,249.627 246.416,249.731C245.126,249.929 244.321,250.033 243.999,250.036C242.683,250.053 241.777,250.114 241.286,250.218C240.847,250.313 240.363,250.326 239.834,250.264C239.015,250.166 237.9,250.559 237.088,250.394C236.536,250.28 235.906,250.423 235.35,250.433C228.014,250.53 220.781,250.137 213.656,249.25C213.14,249.185 212.636,249.042 212.165,248.824C210.102,247.869 207.366,246.605 203.964,245.033C202.788,244.49 198.62,242.138 191.459,237.973C190.809,237.596 190.166,237.398 189.688,236.946C189.587,236.849 189.461,236.777 189.324,236.741L187.924,236.364Z" style="fill:white;fill-opacity:0.75;fill-rule:nonzero;"/>
    <path d="M120.448,237.875C119.96,238.249 119.453,238.6 118.924,238.925C118.258,239.337 117.738,239.675 117.368,239.938C113.878,242.437 110.304,244.854 106.649,247.197C105.691,247.811 104.365,248.565 102.672,249.461C101.382,250.147 100.05,250.897 98.679,251.719C97.912,252.177 97.123,252.486 96.311,252.645C88.614,254.137 80.939,255.092 73.288,255.511C72.716,255.54 72.206,255.537 71.754,255.501C71.007,255.443 70.338,255.745 69.629,255.68C68.827,255.602 68.067,255.595 67.349,255.66C65.48,255.826 63.823,255.378 61.916,255.482C60.903,255.537 59.619,255.508 58.063,255.394C57.397,255.345 56.828,255.209 56.36,254.978C56.266,254.929 56.152,254.923 56.052,254.959C53.748,255.729 51.575,256.19 49.531,256.343C48.881,256.392 48.381,256.45 48.033,256.521C47.903,256.547 47.767,256.554 47.637,256.544C44.375,256.307 42.516,256.148 42.065,256.073C38.195,255.427 34.8,253.851 31.879,251.339C30.215,249.91 29.601,247.388 32.129,246.332C32.688,246.102 33.143,245.985 33.497,245.982C34.335,245.975 34.803,245.933 34.897,245.855C35.069,245.718 36.33,245.881 36.782,245.744C37.399,245.559 38.257,245.712 39.056,245.618C42.636,245.192 44.449,244.974 44.498,244.965C44.794,244.916 45.733,244.958 47.322,245.091C49.918,245.309 52.907,246.94 54.993,248.246C55.226,248.396 55.512,248.431 55.776,248.35C66.718,244.994 78.366,242.047 90.716,239.509C91.083,239.435 91.362,239.419 91.547,239.464C92.106,239.604 92.275,238.837 92.568,238.574C93.019,238.171 93.351,237.843 93.562,237.586C93.965,237.099 94.286,236.767 94.527,236.589C95.16,236.124 95.924,235.406 96.814,234.441C97.263,233.954 98.033,233.249 99.121,232.323C102.364,229.574 105.606,226.819 108.852,224.06C109.277,224.772 109.755,225.496 110.288,226.227C112.838,229.727 115.34,232.771 117.8,235.354C118.216,235.789 118.648,236.208 119.096,236.611C119.164,236.673 119.226,236.738 119.281,236.813C119.645,237.31 120.035,237.664 120.448,237.875Z" style="fill:white;fill-opacity:0.75;fill-rule:nonzero;"/>
    <path d="M177.501,272.185C178.765,274.992 180.064,277.796 181.4,280.594C182.29,282.459 182.923,284.635 183.3,287.124C183.963,291.475 181.367,293.72 177.826,295.357C173.397,297.407 168.849,298.837 164.047,299.276C161.139,299.542 159.641,299.678 159.556,299.688C156.902,299.919 154.855,300.02 153.422,299.997C152.665,299.984 151.135,299.847 148.838,299.584C145.722,299.23 142.483,298.346 139.552,297.661C136.404,296.923 132.853,295.27 132.365,291.653C132.203,290.454 132.209,289.298 132.388,288.183C132.823,285.451 133.593,282.046 134.698,277.972C135.049,276.679 135.513,275.548 136.095,274.58C137.255,275.301 138.454,276.077 139.65,276.61C144.403,278.732 149.237,279.599 154.397,280.126C160.827,280.782 166.85,279.476 172.475,276.211C174.372,275.109 176.049,273.767 177.501,272.185Z" style="fill:white;fill-opacity:0.5;fill-rule:nonzero;"/>
</svg>
