<?xml version="1.0" encoding="UTF-8" standalone="no"?>
<!DOCTYPE svg PUBLIC "-//W3C//DTD SVG 1.1//EN" "http://www.w3.org/Graphics/SVG/1.1/DTD/svg11.dtd">
<svg width="100%" height="100%" viewBox="0 0 300 300" version="1.1" xmlns="http://www.w3.org/2000/svg" xmlns:xlink="http://www.w3.org/1999/xlink" xml:space="preserve" xmlns:serif="http://www.serif.com/" style="fill-rule:evenodd;clip-rule:evenodd;stroke-linejoin:round;stroke-miterlimit:2;">
    <path d="M152.64,116.808L135.022,111.263C134.781,111.189 134.518,111.231 134.312,111.375C133.229,112.137 132.021,112.895 130.688,113.65C124.999,116.872 119.11,119.134 113.016,120.432C87.238,125.925 60.339,114.103 47.383,91.133C40.636,79.169 38.14,66.322 39.891,52.592C40.119,50.796 40.546,48.778 40.903,46.873C41.542,44.165 42.04,42.369 42.39,41.492C43.56,38.569 44.231,36.911 44.405,36.516C48.482,27.312 54.348,19.631 62.01,13.478C82.952,-3.349 112.364,-4.547 134.595,10.6C149.308,20.62 158.975,36.747 160.806,54.551C162.342,69.493 158.442,84.512 149.543,96.665C149.501,96.72 149.485,96.79 149.495,96.861L152.64,116.808ZM144.756,94.731C145.839,93.912 146.398,92.954 146.439,91.865C146.494,90.433 146.211,89.671 145.158,88.63C141.556,85.08 138.398,81.948 135.68,79.237C135.619,79.172 135.517,79.166 135.449,79.224L134.845,79.709L134.209,79.545C134.119,79.523 134.036,79.474 133.971,79.407L133.313,78.742L132.176,77.467C132.098,77.377 132.143,77.238 132.259,77.213L135.501,76.522C135.973,76.422 136.272,75.957 136.172,75.484L135.247,71.163C135.224,71.057 135.231,70.945 135.263,70.839C137.306,64.452 135.806,57.375 131.311,52.328C131.237,52.245 131.186,52.145 131.164,52.039L126.759,31.414C126.695,31.116 126.499,30.862 126.229,30.724C124.151,29.66 122.396,28.783 120.97,28.096C119.19,27.238 116.611,27.264 114.616,27.427C112.405,27.607 110.439,27.906 108.717,28.327C102.244,29.898 95.604,32.449 90.724,37.142C90.647,37.216 90.534,37.242 90.431,37.203C85.609,35.452 80.161,35.212 75.014,35.832C72.541,36.13 70.799,36.391 69.791,36.609C68.297,36.933 66.517,37.454 64.458,38.174C62.392,38.896 60.105,40.021 58.717,41.752C57.162,43.693 56.044,45.077 55.366,45.903C55.196,46.112 55.128,46.388 55.186,46.652C58.983,64.407 62.103,79.015 64.544,90.468C64.689,91.146 64.94,91.608 65.691,91.444C71.284,90.243 85.436,87.22 108.145,82.372C108.341,82.33 108.547,82.353 108.733,82.433C114.185,84.881 119.656,84.884 125.14,82.44C125.988,82.064 126.721,81.646 127.341,81.19C127.389,81.155 127.456,81.161 127.498,81.203L129.586,83.291C129.724,83.429 129.789,83.625 129.753,83.818C129.561,84.936 130.155,85.472 131.003,86.401C134.958,90.734 137.226,93.244 137.81,93.928C139.07,95.406 140.233,95.977 142.09,95.65C143.32,95.431 144.207,95.126 144.756,94.731Z" style="fill:white;fill-opacity:0.95;fill-rule:nonzero;"/>
    <path d="M133.313,78.742C133.233,78.88 133.155,78.915 133.088,78.848C132.378,78.164 131.665,77.486 130.948,76.808C130.691,76.564 130.473,76.339 130.29,76.137C132.603,72.979 133.814,69.583 133.923,65.949C134.257,54.808 124.69,46.102 113.549,47.609C110.462,48.027 107.67,49.183 105.174,51.082C97.126,57.198 95.838,69.005 102.279,76.712C106.494,81.752 112.829,84.036 119.351,82.88C122.082,82.395 124.552,81.306 126.766,79.613C127.055,79.629 127.27,79.715 127.411,79.866C128.594,81.135 129.824,82.366 131.099,83.561C130.948,83.763 130.695,83.972 130.338,84.181C130.126,84.303 130.023,84.554 130.087,84.791L130.091,84.807C130.152,85.023 130.389,85.135 130.595,85.045C132.005,84.419 133.146,83.497 134.501,82.645C135.147,82.24 135.844,82.237 136.468,82.629C138.826,84.117 140.901,85.896 142.69,87.968C143.616,89.041 144.223,90.086 144.515,91.098C144.83,92.199 144.91,93.411 144.756,94.731C144.207,95.126 143.32,95.431 142.09,95.65C140.233,95.977 139.07,95.406 137.81,93.928C137.226,93.244 134.958,90.734 131.003,86.401C130.155,85.472 129.561,84.936 129.753,83.818C129.789,83.625 129.724,83.429 129.586,83.291L127.498,81.203C127.456,81.161 127.389,81.155 127.341,81.19C126.721,81.646 125.988,82.064 125.14,82.44C119.656,84.884 114.185,84.881 108.733,82.433C108.547,82.353 108.341,82.33 108.145,82.372C85.436,87.22 71.284,90.243 65.691,91.444C64.94,91.608 64.689,91.146 64.544,90.468C62.103,79.015 58.983,64.407 55.186,46.652C55.128,46.388 55.196,46.112 55.366,45.903C56.044,45.077 57.162,43.693 58.717,41.752C60.105,40.021 62.392,38.896 64.458,38.174C66.517,37.454 68.297,36.933 69.791,36.609C70.799,36.391 72.541,36.13 75.014,35.832C80.161,35.212 85.609,35.452 90.431,37.203C90.534,37.242 90.647,37.216 90.724,37.142C95.604,32.449 102.244,29.898 108.717,28.327C110.439,27.906 112.405,27.607 114.616,27.427C116.611,27.264 119.19,27.238 120.97,28.096C122.396,28.783 124.151,29.66 126.229,30.724C126.499,30.862 126.695,31.116 126.759,31.414L131.164,52.039C131.186,52.145 131.237,52.245 131.311,52.328C135.806,57.375 137.306,64.452 135.263,70.839C135.231,70.945 135.224,71.057 135.247,71.163L136.172,75.484C136.272,75.957 135.973,76.422 135.501,76.522L132.259,77.213C132.143,77.238 132.098,77.377 132.176,77.467L133.313,78.742ZM124.202,47.284C124.292,47.32 124.385,47.239 124.366,47.146L120.642,29.724C120.607,29.551 120.482,29.41 120.315,29.352C117.986,28.558 114.882,28.745 112.486,29.117C107.397,29.911 102.456,31.44 97.541,33.994C95.408,35.106 93.49,36.481 91.79,38.119C91.678,38.228 91.63,38.389 91.662,38.543L97.618,66.419C97.621,66.435 97.637,66.444 97.653,66.441L97.759,66.419C97.804,66.409 97.836,66.367 97.833,66.319C97.525,61.866 98.633,57.828 101.155,54.201C101.251,54.063 101.1,53.893 100.953,53.97C100.471,54.227 100.085,54.163 99.799,53.774C99.545,53.433 99.716,52.922 100.149,52.71C100.885,52.351 102.038,51.846 103.603,51.197C103.699,51.156 103.792,51.098 103.873,51.027C109.665,45.922 117.015,44.461 124.202,47.284ZM106.716,37.28C109.861,36.381 113.103,35.825 116.44,35.616C116.781,35.594 117.093,35.825 117.186,36.169C117.359,36.824 116.723,37.088 116.113,37.126C113.231,37.303 110.237,37.836 107.13,38.726C104.021,39.616 101.197,40.747 98.662,42.122C98.122,42.414 97.444,42.527 97.245,41.878C97.142,41.537 97.284,41.177 97.583,41.017C100.528,39.426 103.571,38.18 106.716,37.28ZM108.415,44.705C105.293,45.566 102.456,46.668 99.902,48.02C99.359,48.306 98.678,48.412 98.485,47.76C98.386,47.416 98.53,47.06 98.832,46.899C101.797,45.338 104.859,44.123 108.017,43.253C111.172,42.385 114.426,41.865 117.77,41.688C118.111,41.672 118.419,41.907 118.509,42.25C118.68,42.909 118.04,43.166 117.427,43.198C114.542,43.346 111.538,43.847 108.415,44.705ZM98.803,79.381L90.152,38.884C90.113,38.707 89.985,38.562 89.811,38.504C86.981,37.541 84.016,37.052 80.912,37.043C77.472,37.033 74.622,37.248 72.37,37.692C69.447,38.267 67.77,38.504 65.781,39.23C63.651,40.008 61.814,40.76 60.262,42.186C60.114,42.321 60.047,42.527 60.089,42.723L69.26,85.646C69.283,85.755 69.405,85.813 69.505,85.761C77.106,81.829 85.905,79.796 94.46,79.532C95.96,79.487 97.338,79.516 98.598,79.616C98.726,79.625 98.829,79.507 98.803,79.381ZM82.204,73.766C85.407,73.142 88.681,72.876 92.018,72.959C92.359,72.966 92.648,73.223 92.709,73.573C92.828,74.241 92.173,74.447 91.562,74.431C88.681,74.357 85.657,74.623 82.487,75.237C79.319,75.851 76.415,76.731 73.771,77.878C73.209,78.122 72.524,78.173 72.383,77.512C72.312,77.165 72.483,76.818 72.794,76.683C75.862,75.359 78.998,74.386 82.204,73.766ZM75.901,43.86C79.142,43.4 82.432,43.294 85.776,43.548C86.114,43.574 86.39,43.844 86.438,44.197C86.518,44.875 85.853,45.048 85.243,45C82.361,44.779 79.316,44.894 76.113,45.35C72.907,45.807 69.951,46.539 67.243,47.554C66.671,47.77 65.98,47.789 65.874,47.117C65.82,46.764 66.009,46.427 66.327,46.308C69.466,45.135 72.659,44.319 75.901,43.86ZM77.167,49.842C80.405,49.347 83.698,49.206 87.045,49.421C87.386,49.443 87.665,49.71 87.714,50.063C87.803,50.738 87.138,50.921 86.525,50.879C83.64,50.69 80.598,50.841 77.395,51.332C74.192,51.824 71.243,52.592 68.544,53.639C67.972,53.861 67.285,53.886 67.169,53.215C67.111,52.865 67.298,52.524 67.616,52.402C70.741,51.194 73.925,50.34 77.167,49.842ZM80.935,67.79C84.148,67.199 87.428,66.958 90.772,67.074C91.112,67.084 91.398,67.344 91.459,67.694C91.569,68.365 90.91,68.565 90.3,68.542C87.415,68.442 84.385,68.683 81.208,69.271C78.028,69.856 75.111,70.711 72.454,71.835C71.888,72.073 71.204,72.121 71.066,71.456C70.998,71.106 71.175,70.762 71.487,70.63C74.571,69.329 77.719,68.385 80.935,67.79ZM78.439,55.823C81.664,55.3 84.947,55.133 88.285,55.316C88.626,55.335 88.905,55.602 88.96,55.955C89.053,56.627 88.391,56.813 87.781,56.778C84.903,56.614 81.87,56.79 78.68,57.308C75.493,57.825 72.557,58.615 69.877,59.682C69.309,59.907 68.621,59.939 68.502,59.271C68.438,58.92 68.621,58.58 68.939,58.455C72.046,57.224 75.213,56.347 78.439,55.823ZM79.682,61.808C82.901,61.249 86.184,61.044 89.525,61.192C89.866,61.208 90.152,61.471 90.206,61.821C90.312,62.493 89.651,62.685 89.04,62.66C86.155,62.528 83.123,62.737 79.939,63.289C76.752,63.842 73.826,64.668 71.156,65.763C70.59,65.998 69.903,66.036 69.774,65.368C69.71,65.021 69.89,64.677 70.205,64.549C73.302,63.28 76.46,62.367 79.682,61.808Z" style="fill:white;fill-opacity:0.25;"/>
    <path d="M124.202,47.284C117.015,44.461 109.665,45.922 103.873,51.027C103.792,51.098 103.699,51.156 103.603,51.197C102.038,51.846 100.885,52.351 100.149,52.71C99.716,52.922 99.545,53.433 99.799,53.774C100.085,54.163 100.471,54.227 100.953,53.97C101.1,53.893 101.251,54.063 101.155,54.201C98.633,57.828 97.525,61.866 97.833,66.319C97.836,66.367 97.804,66.409 97.759,66.419L97.653,66.441C97.637,66.444 97.621,66.435 97.618,66.419L91.662,38.543C91.63,38.389 91.678,38.228 91.79,38.119C93.49,36.481 95.408,35.106 97.541,33.994C102.456,31.44 107.397,29.911 112.486,29.117C114.882,28.745 117.986,28.558 120.315,29.352C120.482,29.41 120.607,29.551 120.642,29.724L124.366,47.146C124.385,47.239 124.292,47.32 124.202,47.284ZM106.716,37.28C103.571,38.18 100.528,39.426 97.583,41.017C97.284,41.177 97.142,41.537 97.245,41.878C97.444,42.527 98.122,42.414 98.662,42.122C101.197,40.747 104.021,39.616 107.13,38.726C110.237,37.836 113.231,37.303 116.113,37.126C116.723,37.088 117.359,36.824 117.186,36.169C117.093,35.825 116.781,35.594 116.44,35.616C113.103,35.825 109.861,36.381 106.716,37.28ZM108.017,43.253C104.859,44.123 101.797,45.338 98.832,46.899C98.53,47.06 98.386,47.416 98.485,47.76C98.678,48.412 99.359,48.306 99.902,48.02C102.456,46.668 105.293,45.566 108.415,44.705C111.538,43.847 114.542,43.346 117.427,43.198C118.04,43.166 118.68,42.909 118.509,42.25C118.419,41.907 118.111,41.672 117.77,41.688C114.426,41.865 111.172,42.385 108.017,43.253Z" style="fill:white;fill-opacity:0.95;fill-rule:nonzero;"/>
    <path d="M98.803,79.381C98.829,79.507 98.726,79.625 98.598,79.616C97.338,79.516 95.96,79.487 94.46,79.532C85.905,79.796 77.106,81.829 69.505,85.761C69.405,85.813 69.283,85.755 69.26,85.646L60.089,42.723C60.047,42.527 60.114,42.321 60.262,42.186C61.814,40.76 63.651,40.008 65.781,39.23C67.77,38.504 69.447,38.267 72.37,37.692C74.622,37.248 77.472,37.033 80.912,37.043C84.016,37.052 86.981,37.541 89.811,38.504C89.985,38.562 90.113,38.707 90.152,38.884L98.803,79.381ZM75.901,43.86C72.659,44.319 69.466,45.135 66.327,46.308C66.009,46.427 65.82,46.764 65.874,47.117C65.98,47.789 66.671,47.77 67.243,47.554C69.951,46.539 72.907,45.807 76.113,45.35C79.316,44.894 82.361,44.779 85.243,45C85.853,45.048 86.518,44.875 86.438,44.197C86.39,43.844 86.114,43.574 85.776,43.548C82.432,43.294 79.142,43.4 75.901,43.86ZM77.167,49.842C73.925,50.34 70.741,51.194 67.616,52.402C67.298,52.524 67.111,52.865 67.169,53.215C67.285,53.886 67.972,53.861 68.544,53.639C71.243,52.592 74.192,51.824 77.395,51.332C80.598,50.841 83.64,50.69 86.525,50.879C87.138,50.921 87.803,50.738 87.714,50.063C87.665,49.71 87.386,49.443 87.045,49.421C83.698,49.206 80.405,49.347 77.167,49.842ZM78.439,55.823C75.213,56.347 72.046,57.224 68.939,58.455C68.621,58.58 68.438,58.92 68.502,59.271C68.621,59.939 69.309,59.907 69.877,59.682C72.557,58.615 75.493,57.825 78.68,57.308C81.87,56.79 84.903,56.614 87.781,56.778C88.391,56.813 89.053,56.627 88.96,55.955C88.905,55.602 88.626,55.335 88.285,55.316C84.947,55.133 81.664,55.3 78.439,55.823ZM79.682,61.808C76.46,62.367 73.302,63.28 70.205,64.549C69.89,64.677 69.71,65.021 69.774,65.368C69.903,66.036 70.59,65.998 71.156,65.763C73.826,64.668 76.752,63.842 79.939,63.289C83.123,62.737 86.155,62.528 89.04,62.66C89.651,62.685 90.312,62.493 90.206,61.821C90.152,61.471 89.866,61.208 89.525,61.192C86.184,61.044 82.901,61.249 79.682,61.808ZM80.935,67.79C77.719,68.385 74.571,69.329 71.487,70.63C71.175,70.762 70.998,71.106 71.066,71.456C71.204,72.121 71.888,72.073 72.454,71.835C75.111,70.711 78.028,69.856 81.208,69.271C84.385,68.683 87.415,68.442 90.3,68.542C90.91,68.565 91.569,68.365 91.459,67.694C91.398,67.344 91.112,67.084 90.772,67.074C87.428,66.958 84.148,67.199 80.935,67.79ZM82.204,73.766C78.998,74.386 75.862,75.359 72.794,76.683C72.483,76.818 72.312,77.165 72.383,77.512C72.524,78.173 73.209,78.122 73.771,77.878C76.415,76.731 79.319,75.851 82.487,75.237C85.657,74.623 88.681,74.357 91.562,74.431C92.173,74.447 92.828,74.241 92.709,73.573C92.648,73.223 92.359,72.966 92.018,72.959C88.681,72.876 85.407,73.142 82.204,73.766Z" style="fill:white;fill-opacity:0.95;fill-rule:nonzero;"/>
    <path d="M40.903,46.873C40.546,48.778 40.119,50.796 39.891,52.592C38.14,66.322 40.636,79.169 47.383,91.133C60.339,114.103 87.238,125.925 113.016,120.432C119.11,119.134 124.999,116.872 130.688,113.65C132.021,112.895 133.229,112.137 134.312,111.375C134.518,111.231 134.781,111.189 135.022,111.263L152.64,116.808L150.124,122.221C150.057,122.362 149.896,122.433 149.748,122.388L132.372,116.975C132.131,116.901 131.867,116.939 131.658,117.081C106.552,133.924 73.006,129.941 52.59,107.543C39.824,93.536 34.186,73.695 37.97,54.946C38.551,52.062 39.3,49.202 40.216,46.366C40.238,46.301 40.302,46.263 40.37,46.276C40.437,46.289 40.485,46.35 40.479,46.417C40.453,46.767 40.595,46.921 40.903,46.873Z" style="fill:white;fill-opacity:0.25;fill-rule:nonzero;"/>
    <path d="M130.29,76.137C129.265,77.409 128.092,78.568 126.766,79.613C124.552,81.306 122.082,82.395 119.351,82.88C112.829,84.036 106.494,81.752 102.279,76.712C95.838,69.005 97.126,57.198 105.174,51.082C107.67,49.183 110.462,48.027 113.549,47.609C124.69,46.102 134.257,54.808 133.923,65.949C133.814,69.583 132.603,72.979 130.29,76.137ZM106.292,55.091C105.431,55.913 104.679,56.839 104.053,57.851C101.585,61.825 101.248,66.759 103.147,71.032C105.097,75.42 109.145,78.517 113.89,79.25C118.464,79.956 123.094,78.379 126.28,75.025C127.116,74.145 127.835,73.165 128.42,72.102C130.544,68.24 130.743,63.611 128.96,59.582C127.193,55.589 123.678,52.64 119.441,51.589C114.747,50.43 109.787,51.75 106.292,55.091Z" style="fill:white;fill-opacity:0.95;fill-rule:nonzero;"/>
    <path d="M126.28,75.025C124.517,76.345 122.875,77.255 121.359,77.752C115.557,79.661 108.968,77.675 105.431,72.513C102.877,68.783 102.234,64.709 103.507,60.299C103.956,58.74 104.75,57.234 105.887,55.782C105.987,55.656 106.106,55.531 106.237,55.409C106.491,55.181 106.507,55.075 106.292,55.091C109.787,51.75 114.747,50.43 119.441,51.589C123.678,52.64 127.193,55.589 128.96,59.582C130.743,63.611 130.544,68.24 128.42,72.102C127.835,73.165 127.116,74.145 126.28,75.025Z" style="fill:white;fill-opacity:0.65;fill-rule:nonzero;"/>
    <path d="M106.292,55.091C106.507,55.075 106.491,55.181 106.237,55.409C106.106,55.531 105.987,55.656 105.887,55.782C104.75,57.234 103.956,58.74 103.507,60.299C102.234,64.709 102.877,68.783 105.431,72.513C108.968,77.675 115.557,79.661 121.359,77.752C122.875,77.255 124.517,76.345 126.28,75.025C123.094,78.379 118.464,79.956 113.89,79.25C109.145,78.517 105.097,75.42 103.147,71.032C101.248,66.759 101.585,61.825 104.053,57.851C104.679,56.839 105.431,55.913 106.292,55.091Z" style="fill:white;fill-opacity:0.5;fill-rule:nonzero;"/>
    <path d="M130.29,76.137C130.473,76.339 130.691,76.564 130.948,76.808C131.665,77.486 132.378,78.164 133.088,78.848C133.155,78.915 133.233,78.88 133.313,78.742L133.971,79.407C134.036,79.474 134.119,79.523 134.209,79.545L134.845,79.709L131.099,83.561C129.824,82.366 128.594,81.135 127.411,79.866C127.27,79.715 127.055,79.629 126.766,79.613C128.092,78.568 129.265,77.409 130.29,76.137Z" style="fill:white;fill-opacity:0.75;fill-rule:nonzero;"/>
    <path d="M144.756,94.731C144.91,93.411 144.83,92.199 144.515,91.098C144.223,90.086 143.616,89.041 142.69,87.968C140.901,85.896 138.826,84.117 136.468,82.629C135.844,82.237 135.147,82.24 134.501,82.645C133.146,83.497 132.005,84.419 130.595,85.045C130.389,85.135 130.152,85.023 130.091,84.807L130.087,84.791C130.023,84.554 130.126,84.303 130.338,84.181C130.695,83.972 130.948,83.763 131.099,83.561L134.845,79.709L135.449,79.224C135.517,79.166 135.619,79.172 135.68,79.237C138.398,81.948 141.556,85.08 145.158,88.63C146.211,89.671 146.494,90.433 146.439,91.865C146.398,92.954 145.839,93.912 144.756,94.731Z" style="fill:white;fill-opacity:0.15;fill-rule:nonzero;"/>
    <path d="M223.133,169.998C223.162,169.86 223.197,169.773 223.239,169.732C224.784,168.199 226.487,166.747 228.354,165.382C228.987,164.916 229.507,164.331 230.079,163.821C230.387,163.548 230.757,163.098 231.184,162.478C233.783,158.697 235.662,154.543 236.819,150.019C236.912,149.65 237.163,149.338 237.503,149.165C240.047,147.88 241.609,145.859 242.19,143.103C242.756,140.42 242.919,136.44 240.459,134.898C240.317,134.811 240.163,134.753 240.002,134.724C238.676,134.499 237.587,134.13 237.375,132.771C236.215,125.302 234.258,118.52 231.502,112.429C231.1,111.542 230.496,111.122 229.69,111.163C229.244,111.186 228.553,111.539 227.612,112.217C225.006,114.103 222.202,115.889 219.204,117.582C215.288,119.792 211.141,121.463 206.736,122.472C203.713,122.931 200.661,123.088 197.574,122.95C193.671,122.774 191.451,122.677 190.908,122.661C186.821,122.529 182.963,123.297 181.951,127.882C181.44,130.191 181.367,132.537 181.723,134.92C182.144,137.725 182.706,140.433 182.995,143.456C183.381,147.539 182.748,151.561 183.336,155.67C184.296,162.362 188.608,166.632 194.416,169.542C193.385,170.612 192.019,171.476 190.323,172.135C188.868,172.7 187.949,173.041 187.57,173.156C183.692,174.342 179.869,174.429 176.095,173.413C173.881,172.819 171.941,171.714 170.273,170.092C169.641,169.475 169.242,168.855 169.085,168.231C168.696,166.699 168.931,165.242 168.947,163.772C168.958,162.72 168.796,161.742 168.77,161.257C168.699,159.885 167.922,158.748 166.932,158.003C164.552,156.21 159.042,157.212 158.93,157.235C157.732,157.476 156.61,157.656 155.566,157.771C152.8,158.077 150.667,157.087 149.164,154.8C148.187,153.312 147.705,151.558 147.721,149.531C147.737,147.16 147.875,145.326 148.136,144.028C148.659,141.403 149.183,139.042 149.703,136.951C149.732,136.829 149.777,136.71 149.832,136.597C150.401,135.46 150.767,134.49 151.313,133.484C154.053,128.418 157.555,123.936 161.818,120.036C163.81,118.215 165.766,116.795 167.684,115.777C169.759,114.675 171.247,113.865 172.15,113.341C176.859,110.624 180.502,106.518 184.441,102.57C186.163,100.841 187.554,99.563 188.611,98.734C193.883,94.609 199.742,91.82 206.187,90.371C208.304,89.893 210.203,89.668 211.876,89.697C214.376,89.739 216.008,89.816 216.769,89.922C220.743,90.484 224.457,92.244 227.734,94.599C228.318,95.02 228.925,95.55 229.558,96.189C230.85,97.497 231.496,98.014 232.405,99.293C233.038,100.179 233.773,100.832 234.258,101.667C234.49,102.068 234.843,102.332 235.315,102.451C235.412,102.473 235.508,102.473 235.601,102.451C238.451,101.722 240.931,101.342 243.035,101.314C244.32,101.294 245.814,101.471 247.52,101.844C248.792,102.123 250.064,102.66 251.34,103.456C252.557,104.218 253.553,105.169 254.321,106.306C255.6,108.198 256.435,110.293 256.827,112.59C256.984,113.528 257.068,114.112 257.074,114.347C257.084,114.883 257.415,118.083 257.289,119.294C257.17,120.467 257.103,121.19 257.087,121.463C256.859,125.649 255.946,129.693 254.848,134.213C254.089,137.337 254.602,138.023 255.201,139.061C255.577,139.712 259.213,144.119 260.534,146.28C261.483,147.832 262.429,149.887 262.75,151.706C264.043,159.042 262.185,163.984 261,166.275C260.043,168.129 258.051,170.031 255.991,170.606C252.769,171.508 249.492,171.216 246.383,170.101C244.571,169.449 243.115,168.958 242.014,168.627C240.385,168.135 236.215,167.578 232.193,167.888C229.534,168.093 227.303,168.707 225.462,169.394C224.518,169.748 223.74,169.95 223.133,169.998Z" style="fill:white;fill-opacity:0.25;fill-rule:nonzero;"/>
    <path d="M223.133,169.998C222.828,170.291 222.626,170.503 222.532,170.634C219.693,174.509 219.098,179.424 219.609,184.089C219.635,184.32 230.602,186.505 232.058,186.797C235.042,187.398 237.651,188.384 240.5,189.165C244.147,190.161 247.224,191.42 249.737,192.946C254.074,195.58 257.093,200.849 258.443,205.603C259.699,210.027 260.348,214.448 260.396,218.865C260.402,219.369 260.45,220.314 260.544,221.705C260.688,223.893 260.393,226.639 260.38,228.451C260.37,229.733 260.287,231.031 260.136,232.351C260.116,232.518 260.001,233.848 259.792,236.341C259.647,238.057 258.61,246.535 258.353,246.593L254.205,247.569C253.209,247.611 252.352,247.633 251.629,247.643C245.946,247.711 240.459,247.119 235.168,245.87C234.866,245.799 234.615,245.587 234.496,245.301C233.831,243.717 232.935,241.346 231.81,238.189C230.574,234.716 229.404,231.468 228.299,228.445C226.388,223.218 224.678,218.091 223.175,213.063C222.568,211.036 222.166,209.59 221.973,208.729C221.485,206.538 220.55,203.297 220.094,200.421C219.757,198.308 219.577,196.981 219.554,196.441C219.429,193.508 219.182,191.205 218.812,189.534C218.449,187.905 218.231,186.778 218.151,186.148C218.122,185.942 218.077,185.74 218.016,185.541C217.126,182.704 216.573,180.513 216.364,178.961C216.13,177.233 216.123,174.814 216.351,171.707C216.422,170.744 215.825,169.012 214.604,168.9C214.196,168.864 213.846,168.964 213.55,169.202C212.856,169.754 212.275,170.483 211.806,171.386C211.314,172.327 210.81,173.275 210.286,174.223C210.206,174.364 210.148,174.518 210.109,174.676C209.689,176.359 209.679,178.107 210.081,179.916C210.087,179.945 210.052,179.967 210.029,179.945L204.85,174.933C206.444,172.944 209.621,165.096 209.811,164.46C209.994,163.833 210.119,163.188 210.183,162.523C212.307,162.452 214.077,161.793 215.487,160.544C216.319,159.805 216.615,158.179 216.31,157.219C215.767,155.503 211.748,156.791 210.636,157.097C210.701,156.383 210.877,155.718 210.855,155.031C210.81,153.63 210.701,152.304 210.524,151.047C210.338,149.724 209.676,148.188 208.031,148.439C206.945,148.606 206.078,148.754 205.426,148.882C204.426,149.081 203.623,148.924 203.475,147.896C203.006,144.574 203.289,140.645 203.578,137.298C204.002,132.418 205.037,127.615 206.682,122.889C206.72,122.777 206.775,122.687 206.842,122.619C206.923,122.539 206.945,122.42 206.881,122.42C206.845,122.42 206.797,122.436 206.736,122.472C211.141,121.463 215.288,119.792 219.204,117.582C222.202,115.889 225.006,114.103 227.612,112.217C228.553,111.539 229.244,111.186 229.69,111.163C230.496,111.122 231.1,111.542 231.502,112.429C234.258,118.52 236.215,125.302 237.375,132.771C237.587,134.13 238.676,134.499 240.002,134.724C240.163,134.753 240.317,134.811 240.459,134.898C242.919,136.44 242.756,140.42 242.19,143.103C241.609,145.859 240.047,147.88 237.503,149.165C237.163,149.338 236.912,149.65 236.819,150.019C235.662,154.543 233.783,158.697 231.184,162.478C230.757,163.098 230.387,163.548 230.079,163.821C229.507,164.331 228.987,164.916 228.354,165.382C226.487,166.747 224.784,168.199 223.239,169.732C223.197,169.773 223.162,169.86 223.133,169.998ZM221.967,131.81C222.327,130.522 218.597,128.601 217.29,128.077C214.607,127.011 211.774,126.927 209.293,128.521C208.837,128.816 208.693,129.324 208.789,129.809C208.831,130.028 209.001,130.195 209.213,130.243C210.691,130.558 212.233,130.426 214.241,130.384C216.978,130.326 219.14,130.782 221.488,131.987C221.681,132.087 221.916,132 221.967,131.81ZM214.586,133.914C213.826,133.973 213.319,135.412 213.451,137.13C213.582,138.849 214.305,140.192 215.065,140.135C215.825,140.076 216.332,138.637 216.2,136.919C216.069,135.2 215.346,133.857 214.586,133.914Z" style="fill:white;fill-opacity:0.95;fill-rule:nonzero;"/>
    <path d="M206.736,122.472C206.797,122.436 206.845,122.42 206.881,122.42C206.945,122.42 206.923,122.539 206.842,122.619C206.775,122.687 206.72,122.777 206.682,122.889C205.037,127.615 204.002,132.418 203.578,137.298C203.289,140.645 203.006,144.574 203.475,147.896C203.623,148.924 204.426,149.081 205.426,148.882C206.078,148.754 206.945,148.606 208.031,148.439C209.676,148.188 210.338,149.724 210.524,151.047C210.701,152.304 210.81,153.63 210.855,155.031C210.877,155.718 210.701,156.383 210.636,157.097C209.939,157.318 209.332,157.415 208.815,157.386C207.045,157.293 205.519,157.029 204.317,157.633C203.928,157.829 203.71,158.256 203.784,158.687C203.98,159.859 204.555,160.753 205.503,161.373C206.942,162.311 208.503,162.693 210.183,162.523C210.119,163.188 209.994,163.833 209.811,164.46C209.621,165.096 206.444,172.944 204.85,174.933C203.183,173.834 201.137,172.074 198.943,171.042C197.702,170.461 196.17,170.12 194.773,169.684C194.602,169.555 194.483,169.507 194.416,169.542C188.608,166.632 184.296,162.362 183.336,155.67C182.748,151.561 183.381,147.539 182.995,143.456C182.706,140.433 182.144,137.725 181.723,134.92C181.367,132.537 181.44,130.191 181.951,127.882C182.963,123.297 186.821,122.529 190.908,122.661C191.451,122.677 193.671,122.774 197.574,122.95C200.661,123.088 203.713,122.931 206.736,122.472ZM188.743,132.588C188.8,132.777 189.035,132.855 189.224,132.749C191.528,131.476 193.667,130.956 196.395,130.93C198.4,130.911 199.938,130.994 201.4,130.635C201.612,130.583 201.773,130.407 201.811,130.191C201.892,129.703 201.731,129.202 201.268,128.922C198.75,127.409 195.929,127.58 193.288,128.726C192,129.289 188.344,131.316 188.743,132.588ZM199.963,135.864C199.219,135.919 198.721,137.349 198.85,139.06C198.978,140.767 199.685,142.11 200.428,142.053C201.172,141.998 201.67,140.568 201.541,138.857C201.413,137.15 200.706,135.807 199.963,135.864Z" style="fill:white;fill-opacity:0.75;fill-rule:nonzero;"/>
    <path d="M221.967,131.81C221.916,132 221.681,132.087 221.488,131.987C219.14,130.782 216.978,130.326 214.241,130.384C212.233,130.426 210.691,130.558 209.213,130.243C209.001,130.195 208.831,130.028 208.789,129.809C208.693,129.324 208.837,128.816 209.293,128.521C211.774,126.927 214.607,127.011 217.29,128.077C218.597,128.601 222.327,130.522 221.967,131.81Z" style="fill:white;fill-opacity:0.15;fill-rule:nonzero;"/>
    <path d="M188.743,132.588C188.344,131.316 192,129.289 193.288,128.726C195.929,127.58 198.75,127.409 201.268,128.922C201.731,129.202 201.892,129.703 201.811,130.191C201.773,130.407 201.612,130.583 201.4,130.635C199.938,130.994 198.4,130.911 196.395,130.93C193.667,130.956 191.528,131.476 189.224,132.749C189.035,132.855 188.8,132.777 188.743,132.588Z" style="fill:white;fill-opacity:0.15;fill-rule:nonzero;"/>
    <path d="M214.586,133.914C215.346,133.857 216.069,135.2 216.2,136.919C216.332,138.637 215.825,140.076 215.065,140.135C214.305,140.192 213.582,138.849 213.451,137.13C213.319,135.412 213.826,133.973 214.586,133.914Z" style="fill:white;fill-opacity:0.15;fill-rule:nonzero;"/>
    <path d="M199.963,135.864C200.706,135.807 201.413,137.15 201.541,138.857C201.67,140.568 201.172,141.998 200.428,142.053C199.685,142.11 198.978,140.767 198.85,139.06C198.721,137.349 199.219,135.919 199.963,135.864Z" style="fill:white;fill-opacity:0.15;fill-rule:nonzero;"/>
    <path d="M210.183,162.523C208.503,162.693 206.942,162.311 205.503,161.373C204.555,160.753 203.98,159.859 203.784,158.687C203.71,158.256 203.928,157.829 204.317,157.633C205.519,157.029 207.045,157.293 208.815,157.386C209.332,157.415 209.939,157.318 210.636,157.097C211.748,156.791 215.767,155.503 216.31,157.219C216.615,158.179 216.319,159.805 215.487,160.544C214.077,161.793 212.307,162.452 210.183,162.523Z" style="fill:white;fill-opacity:0.15;fill-rule:nonzero;"/>
    <path d="M254.205,247.569C253.576,250.477 252.895,253.352 252.162,256.195C251.288,259.581 250.62,262.276 250.154,264.284C249.528,266.989 248.815,269.672 248.008,272.332C247.147,275.181 246.203,277.498 245.178,279.287C244.558,280.37 243.665,281.61 242.499,283.007C242.103,282.953 241.667,283.203 241.188,283.762C241.085,283.881 240.905,283.891 240.79,283.785C239.219,282.316 236.436,281.751 234.425,281.436C232.074,281.073 228.273,281.189 226.018,280.595C224.537,280.203 223.21,279.509 222.044,278.516C221.893,278.387 221.999,278.14 222.198,278.163C223.92,278.368 225.456,278.503 226.808,278.567C227.846,278.616 230.397,278.445 230.079,276.868C229.774,275.332 226.259,274.59 224.878,274.343C224.203,274.221 222.324,273.932 219.236,273.472C218.154,273.312 217.142,273.039 216.197,272.656C215.86,271.416 215.641,270.215 215.535,269.052C215.404,267.59 215.115,265.936 214.986,264.699C214.18,257.069 213.261,249.442 212.23,241.819C211.394,235.66 210.312,229.682 208.979,223.886C207.671,218.197 205.911,212.755 203.697,207.557C203.594,207.316 203.456,207.091 203.283,206.892C201.898,205.276 200.449,203.602 198.541,201.726C197.217,200.425 195.823,198.876 194.355,197.08C192.048,194.253 189.976,190.559 190.767,186.807C190.911,186.122 191.075,185.444 191.261,184.767C191.633,183.335 194.605,180.859 195.862,180.365C197.176,179.848 198.245,179.443 199.8,179.514C200.144,179.53 200.369,179.161 200.199,178.865C200.199,178.865 194.574,173.26 194.272,172.227C193.985,171.245 194.882,169.764 194.773,169.684C196.17,170.12 197.702,170.461 198.943,171.042C201.137,172.074 203.183,173.834 204.85,174.933L210.029,179.945C210.052,179.967 210.087,179.945 210.081,179.916C209.679,178.107 209.689,176.359 210.109,174.676C210.148,174.518 210.206,174.364 210.286,174.223C210.81,173.275 211.314,172.327 211.806,171.386C212.275,170.483 212.856,169.754 213.55,169.202C213.846,168.964 214.196,168.864 214.604,168.9C215.825,169.012 216.422,170.744 216.351,171.707C216.123,174.814 216.13,177.233 216.364,178.961C216.573,180.513 217.126,182.704 218.016,185.541C218.077,185.74 218.122,185.942 218.151,186.148C218.231,186.778 218.449,187.905 218.812,189.534C219.182,191.205 219.429,193.508 219.554,196.441C219.577,196.981 219.757,198.308 220.094,200.421C220.55,203.297 221.485,206.538 221.973,208.729C222.166,209.59 222.568,211.036 223.175,213.063C224.678,218.091 226.388,223.218 228.299,228.445C229.404,231.468 230.574,234.716 231.81,238.189C232.935,241.346 233.831,243.717 234.496,245.301C234.615,245.587 234.866,245.799 235.168,245.87C240.459,247.119 245.946,247.711 251.629,247.643C252.352,247.633 253.209,247.611 254.205,247.569Z" style="fill:white;fill-opacity:0.7;fill-rule:nonzero;"/>
    <path d="M191.261,184.767C191.075,185.444 190.911,186.122 190.767,186.807C189.976,190.559 192.048,194.253 194.355,197.08C195.823,198.876 197.217,200.425 198.541,201.726C200.449,203.602 201.898,205.276 203.283,206.892C203.456,207.091 203.594,207.316 203.697,207.557C205.911,212.755 207.671,218.197 208.979,223.886C210.312,229.682 211.394,235.66 212.23,241.819C213.261,249.442 214.18,257.069 214.986,264.699C215.115,265.936 215.404,267.59 215.535,269.052C215.641,270.215 215.86,271.416 216.197,272.656C215.539,272.473 214.328,272.187 212.557,271.798C207.841,270.764 202.174,268.824 195.56,265.977C193.33,265.02 190.712,263.793 187.702,262.299C183.005,259.967 177.717,257.554 172.802,255.067C172.715,255.022 171.889,247.254 171.24,243.576C171.128,242.933 171.077,242.134 171.086,241.173L172.172,236.887C172.22,236.695 172.092,236.502 171.896,236.479C169.997,236.251 168.234,236.071 166.605,235.943C164.484,235.773 158.596,234.337 157.696,233.964C157.083,233.71 155.332,233.18 155.084,233.087C151.592,231.786 148.245,230.144 145.042,228.156L143.127,226.781C143.031,226.713 142.992,226.588 143.031,226.479C145.765,218.245 149.177,210.352 153.269,202.802C155.653,198.404 158.403,194.382 161.519,190.739C164.497,187.256 168.192,184.42 172.702,183.119C176.602,181.991 180.438,182.052 184.21,183.298C185.652,183.777 186.95,184.098 188.103,184.265C189.051,184.404 190.102,184.571 191.261,184.767Z" style="fill:white;fill-opacity:0.95;fill-rule:nonzero;"/>
    <path d="M171.086,241.173C170.64,241.475 166.621,251.701 166.804,251.794C167.96,252.391 169.127,253.072 170.306,253.84C170.916,254.235 183.005,259.967 187.702,262.299C190.712,263.793 193.33,265.02 195.56,265.977C202.174,268.824 207.841,270.764 212.557,271.798C214.328,272.187 215.539,272.473 216.197,272.656C217.142,273.039 218.154,273.312 219.236,273.472C222.324,273.932 224.203,274.221 224.878,274.343C226.259,274.59 229.774,275.332 230.079,276.868C230.397,278.445 227.846,278.616 226.808,278.567C225.456,278.503 223.92,278.368 222.198,278.163C221.999,278.14 221.893,278.387 222.044,278.516C223.21,279.509 224.537,280.203 226.018,280.595C228.273,281.189 232.074,281.073 234.425,281.436C236.436,281.751 239.219,282.316 240.79,283.785C240.905,283.891 241.085,283.881 241.188,283.762C241.667,283.203 242.103,282.953 242.499,283.007L241.387,284.212C241.326,284.276 241.323,284.376 241.377,284.446C241.882,285.086 241.914,285.828 241.467,286.673C240.337,288.815 237.953,290.171 235.688,290.904C235.331,291.019 233.327,291.582 233.131,291.777C231.451,292.153 230.172,292.346 229.298,292.356C225.514,292.404 221.851,291.874 218.314,290.766C216.255,290.12 213.618,289.13 210.402,287.797C209.762,287.53 204.044,285.057 201.927,284.427C199.951,283.839 198.531,283.216 196.395,282.66C195.704,282.48 194.323,282.066 192.248,281.42C190.914,281.006 189.568,280.842 188.241,280.379C187.454,280.106 186.458,279.827 185.251,279.547C182.26,278.85 177.495,277.658 175.78,277.34C174.765,277.151 155.949,272.579 154.146,271.978C151.612,271.13 150.462,270.857 147.57,270.064C146.208,269.691 145.093,269.235 144.223,268.692C142.783,267.799 141.547,266.858 140.515,265.871C138.591,264.034 137.82,261.926 137.73,259.221C137.663,257.162 137.826,254.974 138.218,252.652C138.765,249.423 139.41,246.226 140.152,243.062C141.315,238.124 142.944,233.154 145.042,228.156C148.245,230.144 151.592,231.786 155.084,233.087C155.332,233.18 157.083,233.71 157.696,233.964C158.596,234.337 164.484,235.773 166.605,235.943C168.234,236.071 169.997,236.251 171.896,236.479C172.092,236.502 172.22,236.695 172.172,236.887L171.086,241.173Z" style="fill:white;fill-opacity:0.85;fill-rule:nonzero;"/>
    <path d="M233.131,291.777L233.773,295.36C233.828,295.661 233.661,295.96 233.375,296.069C231.798,296.673 230.172,297.165 228.495,297.544C220.425,299.366 212.22,300.172 203.883,299.97C202.839,299.944 202.004,299.892 201.384,299.819C200.263,299.687 199.228,299.745 198.046,299.594C193.208,298.983 189.889,298.517 188.094,298.199C182.684,297.232 177.107,295.963 172.028,293.866C170.498,293.233 169.008,292.137 168.301,290.672C168.25,290.563 168.24,290.438 168.278,290.325C168.288,290.293 168.407,289.795 168.629,288.828C168.709,288.465 168.866,287.977 169.101,287.36C170.405,283.907 172.291,276.444 172.391,276.473C173.634,276.861 174.765,277.151 175.78,277.34C177.495,277.658 182.26,278.85 185.251,279.547C186.458,279.827 187.454,280.106 188.241,280.379C189.568,280.842 190.914,281.006 192.248,281.42C194.323,282.066 195.704,282.48 196.395,282.66C198.531,283.216 199.951,283.839 201.927,284.427C204.044,285.057 209.762,287.53 210.402,287.797C213.618,289.13 216.255,290.12 218.314,290.766C221.851,291.874 225.514,292.404 229.298,292.356C230.172,292.346 231.451,292.153 233.131,291.777Z" style="fill:white;fill-opacity:0.95;fill-rule:nonzero;"/>
</svg>
