<?xml version="1.0" encoding="UTF-8" standalone="no"?>
<!DOCTYPE svg PUBLIC "-//W3C//DTD SVG 1.1//EN" "http://www.w3.org/Graphics/SVG/1.1/DTD/svg11.dtd">
<svg width="100%" height="100%" viewBox="0 0 300 300" version="1.1" xmlns="http://www.w3.org/2000/svg" xmlns:xlink="http://www.w3.org/1999/xlink" xml:space="preserve" xmlns:serif="http://www.serif.com/" style="fill-rule:evenodd;clip-rule:evenodd;stroke-linejoin:round;stroke-miterlimit:2;">
    <path d="M124.227,85.38C123.778,82.043 123.529,79.904 123.474,78.968C123.39,77.482 123.368,75.275 123.41,72.345C123.639,55.457 129.913,39.373 140.602,26.426C142.049,24.672 143.622,23.114 145.16,21.519C148.303,18.262 151.947,15.258 156.092,12.509C169.281,3.758 183.789,-0.399 199.621,0.03C207.597,0.247 215.476,1.804 223.258,4.708C235.41,9.24 246.235,17.022 254.469,27.101C262.723,37.199 267.976,48.831 270.227,61.995C270.692,64.709 271.038,68.265 271.261,72.662C271.306,73.518 271.209,74.393 271.19,75.259C270.793,88.882 267.066,101.436 260.006,112.925C259.054,114.476 257.876,116 257.105,117.232C256.675,117.919 256.258,118.478 255.855,118.911C255.066,119.76 254.395,121.011 253.52,121.835C252.599,122.701 251.737,123.854 250.742,124.888C239.947,136.101 226.909,143.263 211.628,146.357C210.588,146.567 209.251,146.787 207.616,147.016C205.536,147.307 204.189,147.474 203.578,147.52C190.014,148.524 177.27,146.188 165.347,140.513C155.375,135.767 146.457,128.613 139.523,120.003C139.403,119.855 139.219,119.767 139.029,119.771L116.468,119.864L127.254,98.011C127.299,97.917 127.309,97.811 127.277,97.714C126.431,95.166 125.713,92.496 125.115,89.702C124.802,88.239 124.508,86.798 124.227,85.38ZM133.007,66.33L132.222,68.918C132.213,68.947 132.206,68.979 132.203,69.008L132.045,70.494C132.032,70.601 132.057,70.708 132.112,70.801C132.427,71.328 132.719,71.636 132.975,71.735C134.933,72.495 136.773,73.287 138.489,74.129C139.242,74.498 139.978,74.966 140.705,75.537C141.771,76.374 143.156,77.298 144.504,78.457C145.258,79.105 146.054,79.588 146.885,79.921C147.011,79.971 147.147,79.996 147.282,79.992C149.505,79.928 151.786,80.188 154.127,80.806C155.278,81.109 155.933,81.526 156.667,82.373C157.529,83.368 158.411,84.479 159.91,84.598C161.179,84.699 162.459,84.54 163.754,84.12C166.193,83.329 168.869,82.21 171.775,80.761C172.363,80.467 173.125,79.914 174.059,79.1L175.871,79.039C176.314,81.129 179.042,82.364 183.16,82.965C183.157,82.993 183.153,83.017 183.149,83.035C183.149,83.035 178.077,105.967 178.055,105.999C177.635,106.616 177.784,107.126 178.497,107.527C179.179,107.911 179.87,108.295 180.562,108.687C180.669,108.748 180.791,108.781 180.914,108.784C180.914,108.784 181.773,108.684 183.302,108.505C182.907,109.018 182.258,112.79 182.258,112.79C182.196,113.064 182.216,113.352 182.316,113.617C182.72,114.722 183.556,115.6 184.819,116.253C184.836,116.262 185.969,116.149 187.911,115.947C187.982,116.783 188.077,117.919 188.117,118.388C188.143,118.669 188.206,118.924 188.305,119.15C189.055,120.863 193.803,120.072 195.421,119.822C199.834,119.142 203.678,118.76 208.065,118.123C214.18,117.235 218.066,116.667 219.73,116.424C227.793,115.247 235.989,114.093 244.316,112.958C246.471,112.664 248.109,112.606 249.898,112.179C251.698,111.75 252.506,108.522 252.567,106.982C252.943,97.507 254.369,64.431 254.369,64.431L254.508,61.827C254.511,61.691 254.51,61.559 254.507,61.433C254.502,59.858 254.46,58.801 254.37,57.474C254.083,53.275 253.426,49.407 252.951,45.349C252.79,43.95 250.981,43.479 249.853,43.669C249.082,43.801 244.465,44.533 238.017,45.562C236.313,42.912 233.795,41.428 231.46,42.01C229.372,42.53 227.928,44.579 227.46,47.254C224.488,47.732 221.391,48.232 218.284,48.737C216.581,46.147 214.095,44.705 211.789,45.28C209.718,45.795 208.282,47.814 207.801,50.454C204.669,50.973 201.667,51.475 198.925,51.942C197.221,49.291 194.702,47.807 192.368,48.388C190.23,48.921 188.769,51.054 188.336,53.82C186.142,54.241 184.845,54.534 184.793,54.646C184.751,54.74 184.722,54.84 184.709,54.94C184.62,55.738 185.486,66.766 185.381,68.248C180.069,68.632 176.436,68.88 176.081,68.863C176.133,68.12 175.92,67.461 175.445,66.889C174.476,65.723 173.565,64.751 172.709,63.969C168.593,60.209 163.502,58.874 157.846,59.463C156.792,59.572 156.159,59.636 155.949,59.653C154.963,59.736 154.331,59.805 154.053,59.837C152.195,60.055 149.459,59.963 145.845,59.55C144.246,59.367 142.455,58.742 140.492,57.638C140.424,57.599 140.35,57.579 140.272,57.579L138.428,57.579C138.302,57.579 138.18,57.619 138.079,57.692C137.446,58.153 136.737,58.905 135.957,59.957C134.786,61.535 133.723,63.128 133.311,64.919C133.19,65.445 133.088,65.914 133.007,66.33Z" style="fill:white;fill-opacity:0.95;"/>
    <path d="M234.824,46.073C234.015,45.343 233.107,45.004 232.259,45.215C231.532,45.396 230.957,45.954 230.572,46.754C232.037,46.519 233.459,46.291 234.824,46.073Z" style="fill:white;fill-opacity:0.95;"/>
    <path d="M215.06,49.262C214.275,48.588 213.404,48.282 212.587,48.485C211.888,48.66 211.328,49.183 210.944,49.936C212.304,49.713 213.68,49.487 215.06,49.262Z" style="fill:white;fill-opacity:0.95;"/>
    <path d="M195.767,52.483C194.949,51.732 194.027,51.379 193.166,51.594C192.405,51.783 191.809,52.387 191.426,53.248C192.728,53.014 194.185,52.757 195.767,52.483Z" style="fill:white;fill-opacity:0.95;"/>
    <path d="M196.285,67.446C192.818,67.704 185.397,68.247 185.397,68.247L185.381,68.248C185.486,66.766 184.62,55.738 184.709,54.94C184.722,54.84 184.751,54.74 184.793,54.646C184.845,54.534 186.142,54.241 188.336,53.82C188.101,55.322 188.17,57.009 188.598,58.728C189.485,62.289 191.673,65.008 194.07,65.902C194.962,66.234 195.883,66.315 196.777,66.092C197.587,65.89 198.299,65.459 198.895,64.851C199.74,63.99 200.352,62.773 200.676,61.351C201.224,60.775 201.56,59.996 201.56,59.139C201.56,58.353 201.277,57.632 200.808,57.074C200.218,56.372 199.334,55.926 198.348,55.926C198.163,55.926 197.982,55.942 197.806,55.972C196.29,56.23 195.135,57.551 195.135,59.139C195.135,60.495 195.976,61.655 197.165,62.126C196.837,62.507 196.438,62.772 195.979,62.886C194.129,63.347 191.997,61.191 191.221,58.075C190.764,56.241 190.878,54.481 191.426,53.248C192.728,53.014 194.185,52.757 195.767,52.483C196.772,52.309 197.828,52.128 198.925,51.942C201.667,51.475 204.669,50.973 207.801,50.454C207.516,52.019 207.566,53.802 208.019,55.62C208.753,58.566 210.378,60.936 212.275,62.173C213.523,62.986 214.89,63.31 216.198,62.984C217.33,62.702 218.273,61.97 218.973,60.934C219.437,60.247 219.795,59.427 220.031,58.514C220.637,57.93 221.014,57.11 221.014,56.202C221.014,55.41 220.727,54.685 220.251,54.124C219.661,53.43 218.783,52.99 217.802,52.99C217.623,52.99 217.447,53.004 217.276,53.033C215.752,53.284 214.589,54.608 214.589,56.202C214.589,57.505 215.367,58.628 216.482,59.132C216.175,59.452 215.812,59.675 215.4,59.778C213.55,60.239 211.418,58.083 210.642,54.967C210.159,53.029 210.314,51.173 210.944,49.936L215.06,49.262L218.284,48.737C221.391,48.232 224.488,47.732 227.46,47.254C227.189,48.802 227.244,50.559 227.691,52.35C228.4,55.199 229.943,57.509 231.759,58.777C233.058,59.682 234.496,60.056 235.87,59.714C236.958,59.443 237.871,58.757 238.562,57.784C239.071,57.067 239.46,56.194 239.71,55.216C240.266,54.638 240.607,53.853 240.607,52.99C240.607,52.255 240.361,51.578 239.945,51.037C239.358,50.271 238.434,49.777 237.395,49.777C237.247,49.777 237.102,49.787 236.959,49.806C235.392,50.019 234.182,51.364 234.182,52.99C234.182,54.298 234.967,55.425 236.09,55.926C235.797,56.212 235.455,56.412 235.071,56.508C233.222,56.969 231.09,54.813 230.313,51.697C229.842,49.804 229.978,47.99 230.572,46.754L234.824,46.073L238.017,45.562C244.465,44.533 249.082,43.801 249.853,43.669C250.981,43.479 252.79,43.95 252.951,45.349C253.426,49.407 254.083,53.275 254.37,57.474C254.46,58.801 254.502,59.858 254.507,61.433C254.495,61.134 254.456,60.874 254.394,60.647C254.004,59.212 252.72,59.136 251.794,59.252C251.384,59.303 251.044,59.393 250.884,59.417C246.836,60.041 242.905,60.613 239.093,61.139C238.305,61.249 237.539,61.355 236.796,61.456C231.769,62.135 197.421,67.145 195.861,67.396L196.285,67.446Z" style="fill:white;fill-opacity:0.25;"/>
    <path d="M174.059,79.1L175.871,79.039C177.338,78.567 178.697,78.295 179.76,77.097C179.915,76.923 179.919,76.658 179.764,76.484C178.875,75.483 177.949,74.632 176.982,73.935C175.203,72.651 173.633,71.226 172.117,69.351C172.052,69.27 172.104,69.147 172.208,69.138C172.482,69.113 172.719,69.168 172.922,69.289C172.995,69.333 173.07,69.371 173.148,69.406C173.251,69.452 173.681,69.554 174.437,69.716C175.28,69.896 175.829,69.613 176.081,68.863C176.133,68.12 175.92,67.461 175.445,66.889C174.476,65.723 173.565,64.751 172.709,63.969C168.593,60.209 163.502,58.874 157.846,59.463C156.792,59.572 156.159,59.636 155.949,59.653C154.963,59.736 154.331,59.805 154.053,59.837C152.195,60.055 149.459,59.963 145.845,59.55C144.246,59.367 142.455,58.742 140.492,57.638C140.424,57.599 140.35,57.579 140.272,57.579L138.428,57.579C138.302,57.579 138.18,57.619 138.079,57.692C137.446,58.153 136.737,58.905 135.957,59.957C134.786,61.535 133.723,63.128 133.311,64.919C133.19,65.445 133.088,65.914 133.007,66.33C133.605,66.721 134.192,67.094 134.768,67.445C135.478,67.879 136.06,68.255 136.515,68.579C138.989,70.337 141.05,71.745 142.715,72.794C145.966,74.844 149.798,77.01 153.436,76.38C154.841,76.137 156.851,75.566 159.464,74.665C161.477,73.971 163.532,73.967 165.628,74.665C166.255,74.874 167.187,75.38 168.432,76.183C169.219,76.691 170.123,77.256 171.135,77.889C171.604,78.182 172.579,78.587 174.059,79.1Z" style="fill:white;fill-opacity:0.5;"/>
    <path d="M248.816,103.199C248.606,104.972 248.322,106.2 247.963,106.881C247.066,108.584 245.647,109.566 243.712,109.821C238.196,110.547 202.426,114.425 189.484,115.783L187.911,115.947C185.969,116.149 184.836,116.262 184.819,116.253C183.556,115.6 182.72,114.722 182.316,113.617C182.216,113.352 182.196,113.064 182.258,112.79C182.258,112.79 182.907,109.018 183.302,108.505L184.894,108.32C195.859,107.038 226.745,103.421 242.721,101.458C242.824,101.445 242.921,101.412 243.011,101.364C243.803,100.937 244.549,100.288 245.25,99.413C245.602,98.97 245.909,97.985 246.171,96.463C246.477,94.658 252.454,65.1 252.386,64.544C252.379,64.483 252.299,64.47 252.27,64.521C251.058,66.676 249.698,68.411 248.196,69.719C246.846,70.898 245.308,72 243.58,73.017C243.305,73.179 242.824,73.399 242.139,73.676C239.022,72.413 236.728,70.188 235.843,66.905C235.808,66.776 235.791,66.641 235.791,66.505L235.791,64.715C235.791,64.612 235.707,64.528 235.604,64.525C235.279,64.522 228.297,65.044 219.219,65.726C212.128,66.259 203.758,66.89 196.285,67.446L195.861,67.396C197.421,67.145 231.769,62.135 236.796,61.456C237.539,61.355 238.305,61.249 239.093,61.139C242.905,60.613 246.836,60.041 250.884,59.417C251.044,59.393 251.384,59.303 251.794,59.252C252.72,59.136 254.004,59.212 254.394,60.647C254.456,60.874 254.495,61.134 254.507,61.433C254.51,61.559 254.511,61.691 254.508,61.827L254.369,64.431C254.127,64.605 249.091,100.866 248.816,103.199Z" style="fill:white;fill-opacity:0.5;"/>
    <path d="M183.149,83.035C183.153,83.017 183.157,82.993 183.16,82.965C185.38,83.288 188.004,83.427 190.891,83.417L190.327,86.42C190.311,86.507 190.382,86.588 190.472,86.578L196.668,85.936C196.953,85.907 197.192,85.719 197.292,85.451C197.563,84.725 197.732,83.96 197.802,83.152C198.878,83.079 199.971,82.992 201.078,82.893L200.729,85.086C200.697,85.302 200.881,85.49 201.097,85.458L207.513,84.514C207.674,84.492 207.803,84.362 207.829,84.198L208.14,82.114C209.372,81.954 210.606,81.783 211.835,81.602L211.454,83.6C211.421,83.762 211.554,83.91 211.719,83.894L218.247,83.216C218.502,83.19 218.709,82.986 218.738,82.731L218.998,80.425C220.376,80.176 221.729,79.917 223.046,79.651L222.411,82.576C222.385,82.696 222.485,82.802 222.605,82.783L229.159,81.82C229.512,81.768 229.793,81.497 229.86,81.148L230.469,77.993C231.842,77.651 233.13,77.308 234.315,76.968L233.737,80.857C233.717,80.983 233.824,81.093 233.95,81.08L240.705,80.379C240.863,80.363 240.992,80.247 241.021,80.089L242.023,74.865C242.042,74.762 241.961,74.668 241.858,74.675L240.605,74.724C241.354,74.351 241.877,73.999 242.139,73.676C242.824,73.399 243.305,73.179 243.58,73.017C245.308,72 246.846,70.898 248.196,69.719C249.698,68.411 251.058,66.676 252.27,64.521C252.299,64.47 252.379,64.483 252.386,64.544C252.454,65.1 246.477,94.658 246.171,96.463C245.909,97.985 245.602,98.97 245.25,99.413C244.549,100.288 243.803,100.937 243.011,101.364C242.921,101.412 242.824,101.445 242.721,101.458C226.745,103.421 195.859,107.038 184.894,108.32L183.302,108.505L180.914,108.784C180.791,108.781 180.669,108.748 180.562,108.687C179.87,108.295 179.179,107.911 178.497,107.527C177.784,107.126 177.635,106.616 178.055,105.999C178.077,105.967 183.149,83.035 183.149,83.035ZM227.602,93.036L220.786,93.743C220.67,93.756 220.58,93.84 220.557,93.957L219.581,99.048C219.556,99.19 219.672,99.316 219.814,99.303L226.152,98.644C226.507,98.608 226.798,98.34 226.866,97.988L227.78,93.227C227.799,93.12 227.709,93.026 227.602,93.036ZM234.502,92.164C233.756,92.26 233.02,92.316 232.29,92.319C231.976,92.32 231.708,92.545 231.65,92.852L230.71,97.759C230.691,97.856 230.765,97.948 230.865,97.949C232.286,97.972 233.662,97.684 235.223,97.484C235.966,97.389 236.702,97.339 237.432,97.332C237.749,97.329 238.017,97.106 238.075,96.796L239.015,91.889C239.031,91.792 238.957,91.702 238.857,91.702C237.439,91.7 236.059,91.963 234.502,92.164ZM195.447,97.022C195.473,96.89 195.36,96.77 195.224,96.79L189.064,97.697C188.699,97.749 188.408,98.027 188.34,98.389L187.491,102.818C187.452,103.028 187.623,103.218 187.836,103.196L194.039,102.553C194.252,102.53 194.426,102.369 194.465,102.159L195.447,97.022ZM208.533,100.53C208.517,100.618 208.592,100.695 208.679,100.686L215.56,99.972C215.618,99.965 215.663,99.923 215.676,99.865L216.729,94.364C216.745,94.273 216.671,94.192 216.58,94.205L209.641,95.226C209.587,95.233 209.541,95.275 209.532,95.333L208.533,100.53ZM207.051,87.276L200.335,87.971C200.222,87.98 200.128,88.068 200.109,88.181L199.143,93.198C199.117,93.336 199.233,93.462 199.372,93.446L205.62,92.8C205.972,92.765 206.256,92.503 206.324,92.154L207.225,87.464C207.245,87.357 207.157,87.263 207.051,87.276ZM209.974,91.818C209.939,92.005 210.094,92.173 210.284,92.154L216.874,91.472C217,91.46 217.1,91.366 217.123,91.243L218.082,86.236C218.118,86.049 217.963,85.881 217.772,85.9L211.182,86.582C211.056,86.595 210.956,86.688 210.934,86.811L209.974,91.818ZM189.006,94.399C188.964,94.616 189.145,94.813 189.364,94.79L195.744,94.128C195.887,94.112 196.006,94.005 196.032,93.863L197.007,88.762C197.049,88.539 196.859,88.342 196.636,88.375L190.204,89.321C190.065,89.344 189.956,89.45 189.926,89.586L189.006,94.399ZM197.77,101.538C197.718,101.797 197.941,102.029 198.203,101.991L204.609,101.047C204.77,101.025 204.899,100.902 204.932,100.74L205.794,96.237C205.843,95.985 205.633,95.756 205.377,95.785L199.023,96.444C198.855,96.46 198.716,96.586 198.684,96.754L197.77,101.538ZM222.275,85.173C222.198,85.18 222.137,85.238 222.12,85.312L221.083,90.742C221.061,90.862 221.161,90.965 221.281,90.949L228.226,89.928C228.3,89.915 228.358,89.861 228.371,89.786L229.35,84.663C229.373,84.55 229.279,84.446 229.163,84.459L222.275,85.173ZM240.576,83.174C240.595,83.044 240.485,82.931 240.353,82.951L233.75,83.92C233.495,83.959 233.291,84.152 233.243,84.404L232.383,88.891C232.332,89.163 232.558,89.405 232.832,89.379L239.603,88.675C239.671,88.669 239.723,88.617 239.736,88.549L240.576,83.174Z" style="fill:white;fill-opacity:0.75;"/>
    <path d="M188.117,118.388C188.077,117.919 187.982,116.783 187.911,115.947L189.484,115.783C202.426,114.425 238.196,110.547 243.712,109.821C245.647,109.566 247.066,108.584 247.963,106.881C248.322,106.2 248.606,104.972 248.816,103.199C249.091,100.866 254.127,64.605 254.369,64.431C254.369,64.431 252.943,97.507 252.567,106.982C252.506,108.522 251.698,111.75 249.898,112.179C248.109,112.606 246.471,112.664 244.316,112.958C235.989,114.093 227.793,115.247 219.73,116.424C218.066,116.667 214.18,117.235 208.065,118.123C203.678,118.76 199.834,119.142 195.421,119.822C193.803,120.072 189.055,120.863 188.305,119.15C188.206,118.924 188.143,118.669 188.117,118.388Z" style="fill:white;fill-opacity:0.25;"/>
    <path d="M186.112,68.195L186.682,68.154C189.545,67.945 192.818,67.704 196.285,67.446C203.758,66.89 212.128,66.259 219.219,65.726C228.297,65.044 235.279,64.522 235.604,64.525C235.707,64.528 235.791,64.612 235.791,64.715L235.791,66.505C235.791,66.641 235.808,66.776 235.843,66.905C236.728,70.188 239.022,72.413 242.139,73.676C241.877,73.999 241.354,74.351 240.605,74.724C239.211,75.418 237.037,76.185 234.315,76.968C233.13,77.308 231.842,77.651 230.469,77.993C228.197,78.558 225.694,79.118 223.046,79.651C221.729,79.917 220.376,80.176 218.998,80.425C216.665,80.848 214.259,81.245 211.835,81.602C210.606,81.783 209.372,81.954 208.14,82.114C205.763,82.421 203.393,82.685 201.078,82.893C199.971,82.992 198.878,83.079 197.802,83.152C195.389,83.316 193.065,83.409 190.891,83.417C188.004,83.427 185.38,83.288 183.16,82.965C179.042,82.364 176.314,81.129 175.871,79.039C177.338,78.567 178.697,78.295 179.76,77.097C179.915,76.923 179.919,76.658 179.764,76.484C178.875,75.483 177.949,74.632 176.982,73.935C175.203,72.651 173.633,71.226 172.117,69.351C172.052,69.27 172.104,69.147 172.208,69.138C172.482,69.113 172.719,69.168 172.922,69.289C172.995,69.333 173.07,69.371 173.148,69.406C173.251,69.452 173.681,69.554 174.437,69.716C175.28,69.896 175.829,69.613 176.081,68.863C176.436,68.88 180.069,68.632 185.381,68.248L185.397,68.247L186.112,68.195Z" style="fill:white;fill-opacity:0.85;"/>
    <path d="M133.007,66.33L132.222,68.918C132.213,68.947 132.206,68.979 132.203,69.008L132.045,70.494C132.032,70.601 132.057,70.708 132.112,70.801C132.427,71.328 132.719,71.636 132.975,71.735C134.933,72.495 136.773,73.287 138.489,74.129C139.242,74.498 139.978,74.966 140.705,75.537C141.771,76.374 143.156,77.298 144.504,78.457C145.258,79.105 146.054,79.588 146.885,79.921C147.011,79.971 147.147,79.996 147.282,79.992C149.505,79.928 151.786,80.188 154.127,80.806C155.278,81.109 155.933,81.526 156.667,82.373C157.529,83.368 158.411,84.479 159.91,84.598C161.179,84.699 162.459,84.54 163.754,84.12C166.193,83.329 168.869,82.21 171.775,80.761C172.363,80.467 173.125,79.914 174.059,79.1C172.579,78.587 171.604,78.182 171.135,77.889C170.123,77.256 169.219,76.691 168.432,76.183C167.187,75.38 166.255,74.874 165.628,74.665C163.532,73.967 161.477,73.971 159.464,74.665C156.851,75.566 154.841,76.137 153.436,76.38C149.798,77.01 145.966,74.844 142.715,72.794C141.05,71.745 138.989,70.337 136.515,68.579C136.06,68.255 135.478,67.879 134.768,67.445C134.192,67.094 133.605,66.721 133.007,66.33Z" style="fill:white;fill-opacity:0.35;"/>
    <path d="M234.315,76.968L233.737,80.857C233.717,80.983 233.824,81.093 233.95,81.08L240.705,80.379C240.863,80.363 240.992,80.247 241.021,80.089L242.023,74.865C242.042,74.762 241.961,74.668 241.858,74.675L240.605,74.724C239.211,75.418 237.037,76.185 234.315,76.968Z" style="fill:white;fill-opacity:0.5;"/>
    <path d="M271.19,75.259C271.452,75.382 271.603,75.673 271.645,76.128C271.926,79.123 272.017,81.894 271.913,84.446C271.807,86.268 271.824,88.316 271.516,89.938C271.152,91.86 270.967,94.189 270.46,96.518C269.759,99.733 268.92,102.776 267.937,105.654C267.653,106.484 267.361,107.256 267.061,107.97C266.295,109.795 265.55,111.853 264.632,113.662C262.653,117.562 260.704,120.872 258.792,123.595C248.386,138.408 234.312,148.211 216.59,153.034C216.412,153.082 216.161,153.022 216.102,153.047C216,153.09 215.944,153.205 215.976,153.312C216.134,153.829 216.335,154.516 216.574,155.373C217.108,157.288 217.769,158.846 215.194,159.559C202.545,163.065 195.577,165.004 194.287,165.374C192.831,165.792 191.904,165.322 191.503,163.969C190.851,161.772 190.02,158.783 189.006,155.008C188.961,154.84 188.819,154.713 188.644,154.688C184.12,154.028 180.952,153.36 176.708,152.1C174.818,151.539 173.083,150.947 171.51,150.324C161.776,146.465 153.216,140.859 145.822,133.506C144.091,131.784 142.412,129.735 140.78,127.866C140.576,127.633 140.292,127.484 139.985,127.452C139.048,127.355 138.198,127.31 137.439,127.32C131.986,127.392 125.487,127.402 117.938,127.388C117.627,127.387 117.366,127.155 117.327,126.845L116.468,119.864L139.029,119.771C139.219,119.767 139.403,119.855 139.523,120.003C146.457,128.613 155.375,135.767 165.347,140.513C177.27,146.188 190.014,148.524 203.578,147.52C204.189,147.474 205.536,147.307 207.616,147.016C209.251,146.787 210.588,146.567 211.628,146.357C226.909,143.263 239.947,136.101 250.742,124.888C251.737,123.854 252.599,122.701 253.52,121.835C254.395,121.011 255.066,119.76 255.855,118.911C256.258,118.478 256.675,117.919 257.105,117.232C257.876,116 259.054,114.476 260.006,112.925C267.066,101.436 270.793,88.882 271.19,75.259Z" style="fill:white;fill-opacity:0.25;"/>
    <path d="M223.046,79.651L222.411,82.576C222.385,82.696 222.485,82.802 222.605,82.783L229.159,81.82C229.512,81.768 229.793,81.497 229.86,81.148L230.469,77.993C228.197,78.558 225.694,79.118 223.046,79.651Z" style="fill:white;fill-opacity:0.5;"/>
    <path d="M211.835,81.602L211.454,83.6C211.421,83.762 211.554,83.91 211.719,83.894L218.247,83.216C218.502,83.19 218.709,82.986 218.738,82.731L218.998,80.425C216.665,80.848 214.259,81.245 211.835,81.602Z" style="fill:white;fill-opacity:0.5;"/>
    <path d="M201.078,82.893L200.729,85.086C200.697,85.302 200.881,85.49 201.097,85.458L207.513,84.514C207.674,84.492 207.803,84.362 207.829,84.198L208.14,82.114C205.763,82.421 203.393,82.685 201.078,82.893Z" style="fill:white;fill-opacity:0.5;"/>
    <path d="M190.891,83.417L190.327,86.42C190.311,86.507 190.382,86.588 190.472,86.578L196.668,85.936C196.953,85.907 197.192,85.719 197.292,85.451C197.563,84.725 197.732,83.96 197.802,83.152C195.389,83.316 193.065,83.409 190.891,83.417Z" style="fill:white;fill-opacity:0.5;"/>
    <path d="M240.576,83.174C240.595,83.044 240.485,82.931 240.353,82.951L233.75,83.92C233.495,83.959 233.291,84.152 233.243,84.404L232.383,88.891C232.332,89.163 232.558,89.405 232.832,89.379L239.603,88.675C239.671,88.669 239.723,88.617 239.736,88.549L240.576,83.174Z" style="fill:white;fill-opacity:0.5;"/>
    <path d="M222.275,85.173C222.198,85.18 222.137,85.238 222.12,85.312L221.083,90.742C221.061,90.862 221.161,90.965 221.281,90.949L228.226,89.928C228.3,89.915 228.358,89.861 228.371,89.786L229.35,84.663C229.373,84.55 229.279,84.446 229.163,84.459L222.275,85.173Z" style="fill:white;fill-opacity:0.5;"/>
    <path d="M144.496,246.786L144.441,253.948L130.213,254.051C129.608,251.701 129.046,249.281 128.53,246.786L144.496,246.786Z" style="fill:white;fill-opacity:0.15;"/>
    <path d="M271.287,91.325C271.358,90.844 271.432,90.38 271.516,89.938C271.824,88.316 271.807,86.268 271.913,84.446L272.004,84.879C272.023,84.979 272.117,85.05 272.22,85.041C273.044,84.966 274.097,84.96 275.386,85.025C278.077,85.16 278.193,87.315 278.19,89.631C278.167,107.259 278.164,160.425 278.187,249.121C278.187,252.074 278.083,253.996 274.717,254.009C268.499,254.032 262.248,254.032 255.962,254.015C255.973,251.594 255.981,249.183 255.986,246.786L269.404,246.786C270.55,246.786 271.481,245.854 271.481,244.708L271.481,92.203C271.481,91.889 271.412,91.591 271.287,91.325Z" style="fill:white;fill-opacity:0.15;"/>
    <path d="M33.782,172.088C32.094,174.951 29.768,178.194 27.81,181.212C27.771,180.731 27.752,180.263 27.752,179.804C27.729,130.143 27.723,99.574 27.726,88.097C27.726,84.853 30.091,84.963 32.849,84.963C63.205,84.963 93.222,84.966 122.903,84.97C123.051,84.97 123.2,84.996 123.339,85.05L124.227,85.38C124.508,86.798 124.802,88.239 125.115,89.702C125.146,89.844 125.176,89.984 125.207,90.125L35.86,90.125C34.713,90.125 33.782,91.056 33.782,92.203L33.782,172.088Z" style="fill:white;fill-opacity:0.15;"/>
    <path d="M230.684,154.733C230.729,154.542 230.901,154.407 231.094,154.407C232.27,154.403 233.611,154.62 234.813,154.63C236.357,154.639 238.182,154.714 240.285,154.856C244.239,155.124 247.692,156.332 250.448,159.146C251.078,159.792 251.988,160.926 252.699,161.924C254.964,165.102 257.209,168.659 259.435,172.59C260.807,175.017 261.886,177.488 262.675,180.007C262.797,180.405 262.607,180.831 262.229,181.006L262.209,181.015C261.844,181.183 261.415,181.028 261.234,180.67C259.816,177.811 258.578,175.566 257.525,173.934C254.996,170.006 252.635,166.527 250.438,163.5C248.144,160.341 245.237,158.102 241.457,157.621C238.486,157.243 235.669,156.997 233.094,156.335C232.138,156.09 230.39,155.931 230.684,154.733ZM226.12,156.109L226.145,156.125C226.478,156.387 226.549,156.862 226.307,157.204C225.196,158.784 224.63,161.197 226.746,162.234C227.402,162.56 228.061,162.799 228.723,162.954C232.587,163.859 236.208,165.687 239.393,168.171C240.618,169.128 241.58,169.964 242.288,170.685C246.981,175.469 250.444,180.98 252.67,187.214C253.39,189.23 254.053,190.632 255.17,192.121C255.729,192.864 256.165,193.514 257.157,193.565C258.129,193.617 259.082,193.43 260.016,193C260.572,192.745 260.95,192.835 261.15,193.271C261.279,193.559 261.169,193.917 260.885,194.127C259.615,195.071 258.201,195.533 256.64,195.516C256.337,195.513 255.791,195.323 255.006,194.945C253.555,194.247 252.082,191.844 251.401,190.564C250.515,188.901 249.676,186.452 248.823,184.727C246.823,180.686 244.245,176.942 241.083,173.501C238.166,170.326 234.748,167.89 230.83,166.194C228.242,165.077 224.876,164.87 223.642,161.856C222.905,160.05 223.845,157.734 225.06,156.232C225.322,155.909 225.79,155.854 226.12,156.109ZM266.596,186.681C266.163,186.685 265.84,186.294 265.934,185.887C266.764,182.198 266.722,178.408 265.391,174.871C264.897,173.563 264.099,172.141 262.994,170.614C261.266,168.22 260.287,166.892 260.061,166.637C259.315,165.791 258.843,165.222 258.646,164.934C258.249,164.347 257.787,163.768 257.267,163.2C256.014,161.833 254.896,160.716 253.917,159.84C253.678,159.627 253.633,159.272 253.807,159.007C254.182,158.438 254.705,158.374 255.377,158.813C257.283,160.057 258.889,161.326 260.546,163.148C262.891,165.729 264.794,168.165 266.251,170.455C268.783,174.438 269.601,179.245 268.234,183.832C267.956,184.766 267.414,186.681 266.596,186.681ZM231.211,159.853L231.217,159.827C231.356,159.42 231.76,159.162 232.19,159.213C235.914,159.653 239.219,160.796 242.11,162.641C245.893,165.051 249.126,168.113 251.814,171.825C254.599,175.669 257.018,179.843 259.076,184.343C259.228,184.675 259.47,185.292 259.803,186.19C260.216,187.311 260.194,187.977 260.142,189.256C260.123,189.741 259.906,190.028 259.489,190.119C259.095,190.203 258.721,189.892 258.698,189.466C258.643,188.39 258.356,187.395 257.832,186.475C256.44,184.026 254.854,181.384 253.08,178.551C247.928,170.326 241.464,163.277 231.698,160.751C231.304,160.651 231.081,160.238 231.211,159.853ZM220.179,160.774C220.483,160.903 220.654,161.178 220.693,161.598C220.76,162.292 220.832,163.2 220.912,164.321C221.019,165.761 221.487,166.815 222.246,167.965C222.767,168.746 223.894,169.493 224.55,170.126C224.831,170.4 224.892,170.814 224.698,171.124C224.282,171.789 222.624,171.305 222.017,171.001C220.521,170.255 219.459,169.115 218.832,167.577C218.011,165.568 217.992,162.867 219.297,161.032C219.497,160.748 219.866,160.641 220.179,160.774ZM229.864,170.248C229.916,170.152 229.996,170.074 230.096,170.022C230.412,169.86 230.836,169.9 231.369,170.139C234.244,171.428 236.706,173.22 238.754,175.52C241.064,178.117 243.388,180.858 244.804,184.091C246.457,187.864 247.543,191.782 248.054,195.849C248.285,197.687 248.323,199.561 248.093,201.457C248.084,201.528 248.063,201.599 248.028,201.664C247.84,202.014 247.592,202.181 247.269,202.161C246.956,202.142 246.7,201.884 246.668,201.551C246.332,198.088 245.618,194.593 244.523,191.068C243.535,187.886 242.454,185.33 241.28,183.396C240.38,181.913 238.794,179.815 236.528,177.103C234.679,174.891 232.545,172.987 230.122,171.395C229.689,171.111 229.604,170.731 229.864,170.248Z" style="fill:white;fill-opacity:0.25;"/>
    <path d="M209.974,91.818C209.939,92.005 210.094,92.173 210.284,92.154L216.874,91.472C217,91.46 217.1,91.366 217.123,91.243L218.082,86.236C218.118,86.049 217.963,85.881 217.772,85.9L211.182,86.582C211.056,86.595 210.956,86.688 210.934,86.811L209.974,91.818Z" style="fill:white;fill-opacity:0.5;"/>
    <path d="M207.051,87.276L200.335,87.971C200.222,87.98 200.128,88.068 200.109,88.181L199.143,93.198C199.117,93.336 199.233,93.462 199.372,93.446L205.62,92.8C205.972,92.765 206.256,92.503 206.324,92.154L207.225,87.464C207.245,87.357 207.157,87.263 207.051,87.276Z" style="fill:white;fill-opacity:0.5;"/>
    <path d="M189.006,94.399C188.964,94.616 189.145,94.813 189.364,94.79L195.744,94.128C195.887,94.112 196.006,94.005 196.032,93.863L197.007,88.762C197.049,88.539 196.859,88.342 196.636,88.375L190.204,89.321C190.065,89.344 189.956,89.45 189.926,89.586L189.006,94.399Z" style="fill:white;fill-opacity:0.5;"/>
    <path d="M234.502,92.164C233.756,92.26 233.02,92.316 232.29,92.319C231.976,92.32 231.708,92.545 231.65,92.852L230.71,97.759C230.691,97.856 230.765,97.948 230.865,97.949C232.286,97.972 233.662,97.684 235.223,97.484C235.966,97.389 236.702,97.339 237.432,97.332C237.749,97.329 238.017,97.106 238.075,96.796L239.015,91.889C239.031,91.792 238.957,91.702 238.857,91.702C237.439,91.7 236.059,91.963 234.502,92.164Z" style="fill:white;fill-opacity:0.5;"/>
    <path d="M227.602,93.036L220.786,93.743C220.67,93.756 220.58,93.84 220.557,93.957L219.581,99.048C219.556,99.19 219.672,99.316 219.814,99.303L226.152,98.644C226.507,98.608 226.798,98.34 226.866,97.988L227.78,93.227C227.799,93.12 227.709,93.026 227.602,93.036Z" style="fill:white;fill-opacity:0.5;"/>
    <path d="M208.533,100.53C208.517,100.618 208.592,100.695 208.679,100.686L215.56,99.972C215.618,99.965 215.663,99.923 215.676,99.865L216.729,94.364C216.745,94.273 216.671,94.192 216.58,94.205L209.641,95.226C209.587,95.233 209.541,95.275 209.532,95.333L208.533,100.53Z" style="fill:white;fill-opacity:0.5;"/>
    <path d="M197.77,101.538C197.718,101.797 197.941,102.029 198.203,101.991L204.609,101.047C204.77,101.025 204.899,100.902 204.932,100.74L205.794,96.237C205.843,95.985 205.633,95.756 205.377,95.785L199.023,96.444C198.855,96.46 198.716,96.586 198.684,96.754L197.77,101.538Z" style="fill:white;fill-opacity:0.5;"/>
    <path d="M195.447,97.022C195.473,96.89 195.36,96.77 195.224,96.79L189.064,97.697C188.699,97.749 188.408,98.027 188.34,98.389L187.491,102.818C187.452,103.028 187.623,103.218 187.836,103.196L194.039,102.553C194.252,102.53 194.426,102.369 194.465,102.159L195.447,97.022Z" style="fill:white;fill-opacity:0.5;"/>
    <path d="M85.918,97.032C88.557,97.287 90.773,97.529 92.569,97.759C93.018,97.816 94.076,98.002 95.427,98.251C99.707,99.038 106.926,100.455 107.041,100.416C107.342,100.309 116.09,101.739 116.561,101.774C116.707,101.784 116.817,101.907 116.81,102.052C117.325,107.882 117.866,113.72 105.413,115.309C103.336,115.61 101.308,115.671 99.327,115.497L94.298,115.196C94.243,115.193 94.188,115.18 94.136,115.161C92.402,114.513 90.66,114.299 88.913,114.515C85.356,114.953 84.365,118.895 82.852,121.434C82.801,121.521 82.772,121.622 82.772,121.722C82.772,124.639 82.953,127.362 83.314,129.888C83.719,132.715 84.252,134.879 84.92,136.375C85.427,137.512 85.851,138.261 86.193,138.62C87.452,139.945 88.893,140.367 90.525,139.873C91.581,139.553 92.815,138.409 93.742,138.061C94.724,137.692 95.913,137.712 97.308,138.119C99.037,138.617 100.51,138.911 101.731,139.004C103.549,139.143 104.916,138.403 105.83,136.785C105.848,136.837 105.861,136.917 105.871,137.021C106.006,138.546 105.204,145.433 101.159,151.674C100.473,152.733 99.634,153.315 98.471,153.618C97.828,153.786 97.092,153.905 96.262,153.974C95.179,154.063 94.388,154.074 93.884,154.006C93.622,153.971 93.102,153.911 92.33,153.816C92.227,153.803 92.124,153.77 92.033,153.722C91.358,153.367 90.757,153.347 90.237,153.648C87.255,152.982 84.514,151.708 82.054,149.781C81.96,149.707 81.702,149.684 81.282,149.713C78.039,149.212 74.961,147.901 72.047,145.772C72.066,145.691 71.969,145.478 71.759,145.129C70.793,144.451 69.866,143.604 68.971,142.587C68.571,142.131 68.168,141.575 67.763,140.92C66.78,139.329 65.637,137.871 64.388,136.423C63.583,135.49 62.931,134.501 62.433,133.454C61.255,130.977 60.698,128.293 60.766,125.403L60.771,125.254L60.779,125.017C60.8,124.527 60.929,123.559 61.094,122.547C61.286,121.372 61.528,120.138 61.706,119.528C62.359,117.309 63.082,115.37 63.877,113.71C65.513,110.295 66.849,107.427 67.88,105.101C68.868,102.872 70.39,101.087 72.447,99.745C73.19,99.261 74.709,98.45 75.742,98.166C77.341,97.726 78.336,97.468 78.727,97.387C79.008,97.329 80.281,97.203 82.552,97.009C82.594,97.005 82.694,97.001 82.835,96.996C83.503,96.973 85.1,96.952 85.918,97.032ZM78.853,138.523C78.927,138.558 79.011,138.5 79.008,138.42C78.814,133.755 78.795,129.051 78.947,124.306C78.95,124.196 78.869,124.099 78.759,124.086C75.248,123.692 73.019,125.957 72.331,129.216C72.056,130.525 72.189,132.078 72.732,133.881C73.129,135.196 73.969,136.168 75.258,136.795C76.605,137.454 77.803,138.029 78.853,138.523ZM91.904,141.769C91.523,144.624 93.523,146.814 96.149,147.513C98.123,148.039 100.068,147.802 101.992,146.819C102.189,146.718 102.399,146.556 102.619,146.334C103.186,145.763 102.745,144.944 102.096,144.748C101.053,144.433 99.864,144.252 98.529,144.202C97.602,144.167 96.646,143.87 95.651,143.33C95.513,143.255 95.387,143.158 95.28,143.042C94.376,142.066 93.15,140.437 92.111,141.379C91.997,141.481 91.924,141.618 91.904,141.769Z" style="fill:white;fill-opacity:0.35;"/>
    <path d="M99.327,115.497L94.298,115.196C94.243,115.193 94.188,115.18 94.136,115.161C92.402,114.513 90.66,114.299 88.913,114.515C85.356,114.953 84.365,118.895 82.852,121.434C82.801,121.521 82.772,121.622 82.772,121.722C82.772,124.639 82.953,127.362 83.314,129.888C83.719,132.715 84.252,134.879 84.92,136.375C85.427,137.512 85.851,138.261 86.193,138.62C87.452,139.945 88.893,140.367 90.525,139.873C91.581,139.553 92.815,138.409 93.742,138.061C94.724,137.692 95.913,137.712 97.308,138.119C97.932,137.354 98.142,136.191 99.479,136.491C101.084,136.851 102.683,137.731 102.79,135.092C102.858,133.432 102.787,131.658 102.584,129.769C102.057,124.887 100.972,120.129 99.327,115.497ZM101.264,123.331C101.233,122.704 99.615,122.274 97.654,122.372C95.693,122.471 94.13,123.062 94.16,123.691C94.191,124.319 95.809,124.749 97.77,124.65C99.731,124.552 101.295,123.96 101.264,123.331ZM98.816,127.239C98.336,127.191 97.864,128.005 97.762,129.054C97.657,130.101 97.964,130.993 98.443,131.039C98.924,131.087 99.395,130.273 99.498,129.224C99.602,128.176 99.295,127.284 98.816,127.239Z" style="fill:white;fill-opacity:0.95;"/>
    <path d="M101.264,123.331C101.233,122.704 99.615,122.274 97.654,122.372C95.693,122.471 94.13,123.062 94.16,123.691C94.191,124.319 95.809,124.749 97.77,124.65C99.731,124.552 101.295,123.96 101.264,123.331Z" style="fill:white;fill-opacity:0.15;"/>
    <path d="M106.933,123.464C107.328,123.646 107.746,123.874 108.167,124.143C109.82,125.201 110.888,126.491 110.549,127.02C110.479,127.128 110.356,127.197 110.191,127.228C110.107,127.243 110.013,127.25 109.909,127.247C109.236,127.228 108.166,126.829 107.064,126.144L106.938,126.065C106.075,125.512 105.371,124.896 104.944,124.359C104.841,124.23 104.755,124.105 104.686,123.987C104.492,123.656 104.436,123.375 104.556,123.188C104.77,122.855 105.488,122.9 106.404,123.243C106.561,123.301 106.725,123.369 106.892,123.445L106.933,123.464Z" style="fill:white;fill-opacity:0.15;"/>
    <path d="M78.853,138.523C78.927,138.558 79.011,138.5 79.008,138.42C78.814,133.755 78.795,129.051 78.947,124.306C78.95,124.196 78.869,124.099 78.759,124.086C75.248,123.692 73.019,125.957 72.331,129.216C72.056,130.525 72.189,132.078 72.732,133.881C73.129,135.196 73.969,136.168 75.258,136.795C76.605,137.454 77.803,138.029 78.853,138.523Z" style="fill:white;fill-opacity:0.95;"/>
    <path d="M58.69,125.251C58.913,125.251 59.124,125.251 59.322,125.251C59.394,125.251 59.463,125.251 59.53,125.251C60.049,125.252 60.466,125.252 60.771,125.254L60.766,125.403C60.698,128.293 61.255,130.977 62.433,133.454C62.931,134.501 63.583,135.49 64.388,136.423C65.637,137.871 66.78,139.329 67.763,140.92C68.168,141.575 68.571,142.131 68.971,142.587C69.866,143.604 70.793,144.451 71.759,145.129C71.158,146.289 70.48,146.87 69.724,146.87L49.957,146.88C49.008,146.88 48.388,146.78 48.1,146.583C47.599,146.24 47.343,145.681 47.334,144.903C47.303,142.219 47.293,136.384 47.312,127.404C47.315,125.986 48.013,125.272 49.408,125.269C53.306,125.258 56.565,125.252 58.69,125.251Z" style="fill:white;fill-opacity:0.25;"/>
    <path d="M98.816,127.239C98.336,127.191 97.864,128.005 97.762,129.054C97.657,130.101 97.964,130.993 98.443,131.039C98.924,131.087 99.395,130.273 99.498,129.224C99.602,128.176 99.295,127.284 98.816,127.239Z" style="fill:white;fill-opacity:0.15;"/>
    <path d="M105.678,128.65C105.287,128.619 104.913,129.365 104.84,130.315C104.767,131.264 105.022,132.059 105.413,132.089C105.804,132.12 106.179,131.374 106.251,130.424C106.324,129.475 106.069,128.68 105.678,128.65Z" style="fill:white;fill-opacity:0.15;"/>
    <path d="M91.904,141.769C91.523,144.624 93.523,146.814 96.149,147.513C98.123,148.039 100.068,147.802 101.992,146.819C102.189,146.718 102.399,146.556 102.619,146.334C103.186,145.763 102.745,144.944 102.096,144.748C101.053,144.433 99.864,144.252 98.529,144.202C97.602,144.167 96.646,143.87 95.651,143.33C95.513,143.255 95.387,143.158 95.28,143.042C94.376,142.066 93.15,140.437 92.111,141.379C91.997,141.481 91.924,141.618 91.904,141.769Z" style="fill:white;fill-opacity:0.95;"/>
    <path d="M87.42,161.581C84.7,162.56 81.915,162.665 79.063,161.891C75.655,160.967 72.667,159.287 70.07,156.888C69.993,156.816 69.931,156.723 69.899,156.623C69.678,155.947 69.624,155.272 69.744,154.597C72.098,152.21 72.867,149.267 72.047,145.772C74.961,147.901 78.039,149.212 81.282,149.713C81.689,150.336 82.678,151.645 84.251,153.631C85.308,154.966 86.15,156.746 86.781,158.965C87.023,159.818 87.236,160.69 87.42,161.581Z" style="fill:white;fill-opacity:0.95;"/>
    <path d="M89.772,158.794L89.869,160.25C89.875,160.37 89.807,160.483 89.698,160.535L87.42,161.581C87.236,160.69 87.023,159.818 86.781,158.965C86.15,156.746 85.308,154.966 84.251,153.631C82.678,151.645 81.689,150.336 81.282,149.713C81.702,149.684 81.96,149.707 82.054,149.781C84.514,151.708 87.255,152.982 90.237,153.648C89.71,155.376 89.555,157.091 89.772,158.794Z" style="fill:white;fill-opacity:0.75;"/>
    <path d="M255.59,201.189C254.632,201.662 253.603,202.123 252.523,202.546C248.825,203.995 244.527,204.988 240.395,204.41C239.442,202.517 239.137,200.404 239.48,198.068C239.692,196.634 240.043,196.699 240.989,195.856C242.243,194.738 242.286,193.326 242.336,191.734C242.393,189.925 241.423,188.393 239.581,188.19C239.545,188.186 239.142,188.144 238.366,188.077C238.247,188.067 238.155,187.97 238.153,187.851C238.094,184.831 237.554,181.622 236.018,179.119C234.936,177.358 233.385,175.963 231.366,174.939C230.658,174.58 229.783,174.16 228.739,173.676L227.005,173.233C226.863,173.198 226.714,173.179 226.569,173.178C224.873,173.17 223.19,173.311 221.526,173.627C219.048,174.099 217.465,175.294 216.777,177.213C216.225,176.625 215.906,176.166 215.824,175.837C215.181,173.241 215.039,170.649 215.424,168.049C215.576,167.034 215.726,166.219 215.95,165.251C216.792,161.629 218.783,159.28 220.438,157.605L220.592,157.45C223.642,154.399 229.357,152.341 233.385,151.826C237.893,151.249 242.281,151.574 245.092,152.236C246.707,152.617 249.959,153.517 251.281,153.958C254.261,154.951 257.115,156.484 259.845,158.574C260.38,158.984 262.421,160.706 264.166,162.716C264.794,163.441 265.385,164.203 265.852,164.955L265.953,165.122C266.149,165.448 266.728,166.387 267.406,167.782C267.654,168.293 267.915,168.864 268.175,169.489C268.263,169.762 268.355,169.989 268.45,170.173C268.524,170.363 268.598,170.557 268.67,170.755C268.856,171.263 269.037,171.797 269.206,172.353L269.306,172.689C270.463,176.657 271.023,181.732 269.058,186.862C268.841,187.428 268.37,188.49 267.598,190.035C267.055,191.117 266.418,192.092 265.692,192.958C264.195,194.743 262.988,196.004 262.071,196.744C260.875,197.709 259.321,199.086 257.916,199.79C257.315,200.087 256.351,200.814 255.59,201.189ZM220.179,160.774C219.866,160.641 219.497,160.748 219.297,161.032C217.992,162.867 218.011,165.568 218.832,167.577C219.459,169.115 220.521,170.255 222.017,171.001C222.624,171.305 224.282,171.789 224.698,171.124C224.892,170.814 224.831,170.4 224.55,170.126C223.894,169.493 222.767,168.746 222.246,167.965C221.487,166.815 221.019,165.761 220.912,164.321C220.832,163.2 220.76,162.292 220.693,161.598C220.654,161.178 220.483,160.903 220.179,160.774ZM230.684,154.733C230.39,155.931 232.138,156.09 233.094,156.335C235.669,156.997 238.486,157.243 241.457,157.621C245.237,158.102 248.144,160.341 250.438,163.5C252.635,166.527 254.996,170.006 257.525,173.934C258.578,175.566 259.816,177.811 261.234,180.67C261.415,181.028 261.844,181.183 262.209,181.015L262.229,181.006C262.607,180.831 262.797,180.405 262.675,180.007C261.886,177.488 260.807,175.017 259.435,172.59C257.209,168.659 254.964,165.102 252.699,161.924C251.988,160.926 251.078,159.792 250.448,159.146C247.692,156.332 244.239,155.124 240.285,154.856C238.182,154.714 236.357,154.639 234.813,154.63C233.611,154.62 232.27,154.403 231.094,154.407C230.901,154.407 230.729,154.542 230.684,154.733ZM266.596,186.681C267.414,186.681 267.956,184.766 268.234,183.832C269.601,179.245 268.783,174.438 266.251,170.455C264.794,168.165 262.891,165.729 260.546,163.148C258.889,161.326 257.283,160.057 255.377,158.813C254.705,158.374 254.182,158.438 253.807,159.007C253.633,159.272 253.678,159.627 253.917,159.84C254.896,160.716 256.014,161.833 257.267,163.2C257.787,163.768 258.249,164.347 258.646,164.934C258.843,165.222 259.315,165.791 260.061,166.637C260.287,166.892 261.266,168.22 262.994,170.614C264.099,172.141 264.897,173.563 265.391,174.871C266.722,178.408 266.764,182.198 265.934,185.887C265.84,186.294 266.163,186.685 266.596,186.681ZM229.864,170.248C229.604,170.731 229.689,171.111 230.122,171.395C232.545,172.987 234.679,174.891 236.528,177.103C238.794,179.815 240.38,181.913 241.28,183.396C242.454,185.33 243.535,187.886 244.523,191.068C245.618,194.593 246.332,198.088 246.668,201.551C246.7,201.884 246.956,202.142 247.269,202.161C247.592,202.181 247.84,202.014 248.028,201.664C248.063,201.599 248.084,201.528 248.093,201.457C248.323,199.561 248.285,197.687 248.054,195.849C247.543,191.782 246.457,187.864 244.804,184.091C243.388,180.858 241.064,178.117 238.754,175.52C236.706,173.22 234.244,171.428 231.369,170.139C230.836,169.9 230.412,169.86 230.096,170.022C229.996,170.074 229.916,170.152 229.864,170.248ZM231.211,159.853C231.081,160.238 231.304,160.651 231.698,160.751C241.464,163.277 247.928,170.326 253.08,178.551C254.854,181.384 256.44,184.026 257.832,186.475C258.356,187.395 258.643,188.39 258.698,189.466C258.721,189.892 259.095,190.203 259.489,190.119C259.906,190.028 260.123,189.741 260.142,189.256C260.194,187.977 260.216,187.311 259.803,186.19C259.47,185.292 259.228,184.675 259.076,184.343C257.018,179.843 254.599,175.669 251.814,171.825C249.126,168.113 245.893,165.051 242.11,162.641C239.219,160.796 235.914,159.653 232.19,159.213C231.76,159.162 231.356,159.42 231.217,159.827L231.211,159.853ZM226.12,156.109C225.79,155.854 225.322,155.909 225.06,156.232C223.845,157.734 222.905,160.05 223.642,161.856C224.876,164.87 228.242,165.077 230.83,166.194C234.748,167.89 238.166,170.326 241.083,173.501C244.245,176.942 246.823,180.686 248.823,184.727C249.676,186.452 250.515,188.901 251.401,190.564C252.082,191.844 253.555,194.247 255.006,194.945C255.791,195.323 256.337,195.513 256.64,195.516C258.201,195.533 259.615,195.071 260.885,194.127C261.169,193.917 261.279,193.559 261.15,193.271C260.95,192.835 260.572,192.745 260.016,193C259.082,193.43 258.129,193.617 257.157,193.565C256.165,193.514 255.729,192.864 255.17,192.121C254.053,190.632 253.39,189.23 252.67,187.214C250.444,180.98 246.981,175.469 242.288,170.685C241.58,169.964 240.618,169.128 239.393,168.171C236.208,165.687 232.587,163.859 228.723,162.954C228.061,162.799 227.402,162.56 226.746,162.234C224.63,161.197 225.196,158.784 226.307,157.204C226.549,156.862 226.478,156.387 226.145,156.125L226.12,156.109Z" style="fill:white;fill-opacity:0.5;"/>
    <path d="M27.681,238.581C24.518,238.681 21.537,238.203 18.736,237.146C12.76,234.892 9.907,229.381 10.12,223.198C10.25,219.428 10.831,215.823 11.868,212.382C12.427,210.522 23.103,188.542 27.81,181.212C29.939,177.93 32.503,174.383 34.209,171.347C36.014,168.135 37.033,166.324 37.265,165.913C41.128,159.072 48.332,157.012 55.63,156.267C59.529,155.869 63.047,155.501 66.184,155.163C67.324,155.04 68.513,154.852 69.744,154.597C69.624,155.272 69.678,155.947 69.899,156.623C69.931,156.723 69.993,156.816 70.07,156.888C72.667,159.287 75.655,160.967 79.063,161.891C81.915,162.665 84.7,162.56 87.42,161.581L89.698,160.535C89.807,160.483 89.875,160.37 89.869,160.25L89.772,158.794C92.883,160.318 95.984,161.81 99.075,163.271C101.282,164.314 103.471,165.895 105.646,168.016C107.58,169.903 109.422,172.351 111.17,175.359C114.936,182.275 116.923,189.905 118.535,197.539C121.85,213.513 125.097,229.503 128.271,245.507C128.856,248.456 129.505,251.302 130.213,254.051L135.143,273.507C135.172,273.624 135.149,273.743 135.078,273.84C134.781,274.254 134.4,274.622 133.931,274.942C131.344,276.693 128.449,277.891 125.254,278.537L122.706,278.989C122.521,279.022 122.337,278.951 122.224,278.802C120.46,276.518 119.343,274.189 118.076,271.224C115.608,265.438 113.26,259.607 111.031,253.731C107.694,244.986 104.609,236.106 102.393,227.071C102.151,226.073 101.948,225.041 101.779,223.976C101.757,223.837 101.605,223.764 101.488,223.834C101.45,223.857 101.415,223.902 101.385,223.973C97.468,233.384 95.797,243.636 94.149,254.064L91.813,265.916C91.794,266.019 91.733,266.11 91.645,266.165C91.345,266.352 90.993,266.462 90.589,266.491C89.924,266.591 89.252,266.711 88.573,266.85C83.931,267.801 79.244,268.176 74.505,267.974C70.315,267.795 65.634,267.18 60.463,266.123C53.029,264.603 45.719,262.631 38.528,260.208C39.875,251.754 41.692,243.602 43.858,235.289C43.887,235.179 43.778,235.082 43.671,235.124C43.173,235.321 41.748,235.901 39.401,236.869C38.36,237.297 37.395,237.54 36.503,237.602C35.815,237.696 34.785,237.871 33.411,238.128C31.683,238.453 29.771,238.603 27.681,238.581ZM60.538,208.428C59.506,208.807 58.161,209.373 57.371,209.656C56.044,210.131 55.003,210.95 54.238,212.108C53.958,212.532 53.712,212.893 53.498,213.19C52.27,214.897 50.687,216.807 48.759,218.927C48.245,219.492 47.725,219.925 47.205,220.222C47.115,220.274 47.051,220.368 47.037,220.474C46.953,221.115 47.176,222.978 47.305,223.556C47.386,223.915 47.447,224.26 47.489,224.6C47.754,226.706 48.127,229.111 48.578,231.823C48.608,232 48.804,232.097 48.962,232.013C49.524,231.718 50.242,231.261 51.111,230.637C52.209,229.849 53.323,228.869 54.755,228.402L54.783,228.392C55.612,228.123 56.247,227.959 56.683,227.998C64.253,228.673 67.143,224.412 67.143,224.412C67.651,225.56 68.68,226.468 70.013,227.139C75.184,229.774 84.985,229.027 87.033,224.802C87.067,224.73 87.1,224.657 87.13,224.584C87.131,224.583 87.131,224.581 87.132,224.58C87.31,224.145 87.408,223.674 87.413,223.168L87.414,223.139L87.403,221.939C87.365,217.685 87.227,203.52 87.065,202.437L87.056,202.45C86.96,198.195 66.83,198.34 66.856,202.799L66.846,202.79C66.948,204.26 66.922,206.042 66.922,206.042C66.922,206.042 64.873,206.595 63.453,206.616L63.305,206.616C61.846,206.597 60.932,207.339 60.538,208.428ZM36.816,217.283L47.683,219.363C47.829,219.389 47.971,219.299 48.006,219.156C49.983,211.058 51.718,204.145 53.207,198.417C53.501,197.287 53.989,195.81 54.667,193.989C54.7,193.901 54.696,193.804 54.664,193.72L54.299,192.784C54.244,192.638 54.047,192.619 53.96,192.748C49.809,198.921 45.477,205.062 40.964,211.164C39.543,213.087 38.263,215.212 36.758,217.124C36.713,217.183 36.745,217.267 36.816,217.283Z" style="fill:white;fill-opacity:0.5;"/>
    <path d="M220.694,207.776C220.726,207.849 220.745,207.894 220.744,207.905L220.781,207.96C216.689,207.738 214.555,205.683 213.78,202.959C213.263,201.144 213.02,199.225 213.075,197.196C213.143,194.874 213.262,193.126 213.434,191.95C214.099,187.405 214.99,183.279 216.028,179.555C216.068,179.413 216.199,179.319 216.348,179.326C217.966,179.398 219.707,179.419 221.571,179.39C221.791,179.387 221.92,179.145 221.772,179.016C221.697,178.951 221.562,178.896 221.365,178.851C219.72,178.472 218.133,178.424 216.609,178.731C216.422,178.769 216.287,178.554 216.399,178.399C216.623,178.092 216.748,177.698 216.777,177.213C217.465,175.294 219.048,174.099 221.526,173.627C223.19,173.311 224.873,173.17 226.569,173.178C226.714,173.179 226.863,173.198 227.005,173.233L228.739,173.676C226,176.683 223.619,180.007 221.594,183.642C220.757,185.144 219.989,186.824 219.287,188.678C219.055,189.292 218.942,189.857 218.945,190.377C218.948,190.836 219.31,191.217 219.769,191.243C220.748,191.298 221.351,191.347 221.587,191.388C222.927,191.622 222.888,193.229 222.692,194.273C222.585,194.844 222.046,196.117 221.074,198.085C220.46,198.062 219.749,197.981 218.942,197.849C218.451,197.768 218.018,197.577 217.64,197.274C217.062,196.811 216.505,196.251 215.967,195.584C215.74,195.304 215.288,195.478 215.304,195.836C215.358,196.993 215.827,197.94 216.71,198.676C217.752,199.545 218.871,199.968 220.059,199.942C219.875,200.837 219.696,201.738 219.52,202.643C219.382,203.354 219.349,203.954 219.423,204.445C219.578,205.48 220.471,207.277 220.694,207.776ZM217.955,182.767C217.569,182.669 217.068,183.335 216.835,184.256C216.603,185.176 216.726,186.003 217.112,186.099C217.498,186.197 217.998,185.531 218.232,184.61C218.464,183.69 218.341,182.863 217.955,182.767Z" style="fill:white;fill-opacity:0.75;"/>
    <path d="M220.694,207.776C220.471,207.277 219.578,205.48 219.423,204.445C219.349,203.954 219.382,203.354 219.52,202.643C219.696,201.738 219.875,200.837 220.059,199.942C222.088,200.007 223.936,199.584 225.606,198.673C226.032,198.44 225.913,197.798 225.432,197.733C225.128,197.691 224.763,197.699 224.333,197.758C223.349,197.895 222.263,198.001 221.074,198.085C222.046,196.117 222.585,194.844 222.692,194.273C222.888,193.229 222.927,191.622 221.587,191.388C221.351,191.347 220.748,191.298 219.769,191.243C219.31,191.217 218.948,190.836 218.945,190.377C218.942,189.857 219.055,189.292 219.287,188.678C219.989,186.824 220.757,185.144 221.594,183.642C223.619,180.007 226,176.683 228.739,173.676C229.783,174.16 230.658,174.58 231.366,174.939C233.385,175.963 234.936,177.358 236.018,179.119C237.554,181.622 238.094,184.831 238.153,187.851C238.155,187.97 238.247,188.067 238.366,188.077C239.142,188.144 239.545,188.186 239.581,188.19C241.423,188.393 242.393,189.925 242.336,191.734C242.286,193.326 242.243,194.738 240.989,195.856C240.043,196.699 239.692,196.634 239.48,198.068C239.137,200.404 239.442,202.517 240.395,204.41C240.139,204.264 239.835,204.172 239.48,204.122C239.374,204.107 239.272,204.174 239.245,204.28C238.814,205.939 238.739,207.424 238.96,208.719C239.047,209.226 239.383,209.675 239.971,210.069C240.792,210.619 241.596,211.3 242.388,212.114C240.954,213.713 239.348,214.883 237.568,215.616C235.637,216.411 233.517,217.003 231.207,217.393C229.686,217.649 228.329,217.708 227.137,217.564C225.793,217.401 224.469,217.07 223.167,216.569C228.1,215.8 231.736,213.435 234.086,209.472C234.745,208.36 235.159,206.845 235.562,205.886C235.658,205.656 235.83,205.466 236.05,205.347C236.422,205.144 236.711,204.945 236.916,204.746C236.945,204.717 236.951,204.672 236.925,204.636C236.902,204.604 236.858,204.591 236.819,204.61C234.863,205.576 232.988,206.433 231.207,207.21C229.363,208.016 227.376,208.375 225.244,208.293C223.817,208.238 222.34,208.113 220.819,207.915L220.744,207.905C220.745,207.894 220.726,207.849 220.694,207.776ZM224.922,183.718C224.527,183.616 224.02,184.255 223.788,185.149C223.555,186.042 223.687,186.849 224.08,186.951C224.475,187.053 224.983,186.413 225.214,185.52C225.448,184.627 225.315,183.819 224.922,183.718ZM225.399,180.208L230.923,182.472C230.939,182.479 230.962,182.469 230.968,182.453L230.972,182.446C231.159,181.988 230.319,181.212 229.098,180.708L227.938,180.234C226.714,179.733 225.57,179.697 225.383,180.153L225.38,180.159C225.373,180.179 225.38,180.198 225.399,180.208Z" style="fill:white;fill-opacity:0.95;"/>
    <path d="M111.17,175.359C114.936,182.275 116.923,189.905 118.535,197.539C121.339,197.752 124.295,197.595 126.882,197.607C128.679,197.614 129.977,197.413 129.98,195.403C130.001,183.861 130.01,177.892 130,177.497C129.956,175.743 128.892,175.336 127.428,175.33C122.053,175.307 116.632,175.317 111.17,175.359Z" style="fill:white;fill-opacity:0.25;"/>
    <path d="M225.399,180.208L230.923,182.472C230.939,182.479 230.962,182.469 230.968,182.453L230.972,182.446C231.159,181.988 230.319,181.212 229.098,180.708L227.938,180.234C226.714,179.733 225.57,179.697 225.383,180.153L225.38,180.159C225.373,180.179 225.38,180.198 225.399,180.208Z" style="fill:white;fill-opacity:0.15;"/>
    <path d="M217.955,182.767C217.569,182.669 217.068,183.335 216.835,184.256C216.603,185.176 216.726,186.003 217.112,186.099C217.498,186.197 217.998,185.531 218.232,184.61C218.464,183.69 218.341,182.863 217.955,182.767Z" style="fill:white;fill-opacity:0.15;"/>
    <path d="M224.922,183.718C224.527,183.616 224.02,184.255 223.788,185.149C223.555,186.042 223.687,186.849 224.08,186.951C224.475,187.053 224.983,186.413 225.214,185.52C225.448,184.627 225.315,183.819 224.922,183.718Z" style="fill:white;fill-opacity:0.15;"/>
    <path d="M36.816,217.283L47.683,219.363C47.829,219.389 47.971,219.299 48.006,219.156C49.983,211.058 51.718,204.145 53.207,198.417C53.501,197.287 53.989,195.81 54.667,193.989C54.7,193.901 54.696,193.804 54.664,193.72L54.299,192.784C54.244,192.638 54.047,192.619 53.96,192.748C49.809,198.921 45.477,205.062 40.964,211.164C39.543,213.087 38.263,215.212 36.758,217.124C36.713,217.183 36.745,217.267 36.816,217.283Z" style="fill:white;fill-opacity:0.25;"/>
    <path d="M220.059,199.942C222.088,200.007 223.936,199.584 225.606,198.673C226.032,198.44 225.913,197.798 225.432,197.733C225.128,197.691 224.763,197.699 224.333,197.758C223.349,197.895 222.263,198.001 221.074,198.085C220.46,198.062 219.749,197.981 218.942,197.849C218.451,197.768 218.018,197.577 217.64,197.274C217.062,196.811 216.505,196.251 215.967,195.584C215.74,195.304 215.288,195.478 215.304,195.836C215.358,196.993 215.827,197.94 216.71,198.676C217.752,199.545 218.871,199.968 220.059,199.942Z" style="fill:white;fill-opacity:0.15;"/>
    <path d="M68.093,203.987L66.856,202.799C66.83,198.34 86.96,198.195 87.056,202.45C87.024,202.498 86.986,202.546 86.945,202.595C86.692,202.898 86.288,203.208 85.833,203.495C85.083,200.588 69.141,201.214 68.093,203.987Z" style="fill:white;fill-opacity:0.95;"/>
    <path d="M68.093,203.987C69.141,201.214 85.083,200.588 85.833,203.495C85.851,203.565 85.86,203.638 85.86,203.712C84.838,205.793 69.872,206.798 68.093,203.987Z" style="fill:white;fill-opacity:0.25;"/>
    <path d="M220.819,207.915C222.34,208.113 223.817,208.238 225.244,208.293C227.376,208.375 229.363,208.016 231.207,207.21C232.988,206.433 234.863,205.576 236.819,204.61C236.858,204.591 236.902,204.604 236.925,204.636C236.951,204.672 236.945,204.717 236.916,204.746C236.711,204.945 236.422,205.144 236.05,205.347C235.83,205.466 235.658,205.656 235.562,205.886C235.159,206.845 234.745,208.36 234.086,209.472C231.736,213.435 228.1,215.8 223.167,216.569C222.847,216.43 222.627,216.282 222.508,216.126C222.456,216.059 222.427,215.978 222.424,215.89C222.41,215.377 222.295,215.012 222.066,214.795C222.372,214.314 222.515,213.807 222.495,213.267C222.426,211.376 221.852,209.608 220.781,207.96L220.744,207.905L220.819,207.915Z" style="fill:white;fill-opacity:0.75;"/>
    <path d="M66.34,211.436C66.771,212.028 71.752,218.378 67.143,224.412C67.143,224.412 64.253,228.673 56.683,227.998C56.247,227.959 55.612,228.123 54.783,228.392L54.755,228.402C53.323,228.869 52.209,229.849 51.111,230.637C50.242,231.261 49.524,231.718 48.962,232.013C48.804,232.097 48.608,232 48.578,231.823C48.127,229.111 47.754,226.706 47.489,224.6C47.447,224.26 47.386,223.915 47.305,223.556C47.176,222.978 46.953,221.115 47.037,220.474C47.051,220.368 47.115,220.274 47.205,220.222C47.725,219.925 48.245,219.492 48.759,218.927C50.687,216.807 52.27,214.897 53.498,213.19C53.712,212.893 53.958,212.532 54.238,212.108C55.003,210.95 56.044,210.131 57.371,209.656C58.161,209.373 59.506,208.807 60.538,208.428L60.512,208.501C60.333,209.036 60.275,209.65 60.337,210.295C60.336,210.316 60.375,210.799 60.425,211.457C59.606,211.08 59.066,212.306 58.702,212.999C58.316,213.735 58.34,214.363 58.763,214.886C58.842,214.982 58.941,215.057 59.054,215.105C59.468,215.284 60.198,215.254 60.632,215.188C60.701,215.177 60.763,215.166 60.815,215.154C60.89,215.137 60.944,215.12 60.969,215.105C64.38,213.029 62.055,209.635 64.026,209.381C64.618,209.305 65.544,210.343 66.34,211.436Z" style="fill:white;fill-opacity:0.75;"/>
    <path d="M66.34,211.436C66.666,211.444 66.902,211.262 67.024,210.877C67.035,210.842 67.04,210.809 67.043,210.774L67.062,209.636C67.069,209.249 66.791,208.915 66.41,208.851C65.67,208.729 64.927,208.697 64.181,208.764C64.016,208.779 63.964,208.984 64.026,209.381C64.618,209.305 65.544,210.343 66.34,211.436Z" style="fill:white;fill-opacity:0.5;"/>
    <path d="M60.425,211.457C59.606,211.08 59.066,212.306 58.702,212.999C58.316,213.735 58.34,214.363 58.763,214.886C58.842,214.982 58.941,215.057 59.054,215.105C59.468,215.284 60.198,215.254 60.632,215.188C60.675,214.823 60.527,212.785 60.425,211.457Z" style="fill:white;fill-opacity:0.5;"/>
    <path d="M206.779,244.98C207.9,239.718 209.225,234.711 210.753,229.956C211.664,227.119 212.554,224.809 213.424,223.023C214.418,220.984 215.331,219.422 216.157,218.333C216.652,217.68 217.419,216.89 218.464,215.965C219.351,215.179 220.55,214.789 222.066,214.795C222.295,215.012 222.41,215.377 222.424,215.89C222.427,215.978 222.456,216.059 222.508,216.126C222.627,216.282 222.847,216.43 223.167,216.569C224.469,217.07 225.793,217.401 227.137,217.564C228.329,217.708 229.686,217.649 231.207,217.393C233.517,217.003 235.637,216.411 237.568,215.616C239.348,214.883 240.954,213.713 242.388,212.114C246.054,212.608 249.016,214.208 251.275,216.908C253.884,220.029 255.145,224.228 255.571,228.376C255.691,229.548 255.661,230.472 255.477,231.148C254.427,235.357 252.759,239.162 250.48,242.57C250.344,242.773 250.233,242.993 250.147,243.223C249.66,244.519 249.346,245.736 249.185,246.863C248.233,253.492 247.682,257.246 247.537,258.128C246.574,263.993 245.311,269.641 243.738,275.071C243.076,277.358 242.347,279.413 241.554,281.238C240.99,282.537 240.427,283.838 239.865,285.147L126.055,285.15C125.671,282.934 125.826,280.731 125.254,278.537C128.449,277.891 131.344,276.693 133.931,274.942L135.31,278.256C135.417,278.511 135.669,278.676 135.944,278.676L136.974,278.676C137.107,278.676 137.233,278.631 137.333,278.547C139.017,277.173 141.89,276.049 144.273,275.908L144.226,281.997C144.226,282.136 144.358,282.238 144.494,282.2C144.698,282.144 144.927,282.116 145.189,282.116L204.544,282.107C205.471,282.107 206.001,281.703 206.14,280.895C206.143,280.874 206.146,280.849 206.149,280.821C206.194,280.303 206.215,278.01 206.215,274.789C210.222,273.911 214.101,273.074 218.021,271.644C219.995,270.923 221.677,269.753 223.064,268.132C225.092,265.76 225.864,263.648 227.027,260.412C227.605,258.803 228.136,257.168 228.61,255.511C229.78,251.425 230.934,247.38 232.067,243.378C232.587,241.54 233.015,239.33 233.356,236.749C233.436,236.138 232.936,235.609 232.322,235.657L232.248,235.664C231.534,235.719 230.929,236.209 230.726,236.898C229.297,241.748 228.147,246.189 227.257,250.216C226.331,254.407 224.946,258.121 223.277,261.73C222.666,263.051 221.819,264.329 220.738,265.567C219.881,266.549 219.161,267.202 218.577,267.528C214.86,269.603 210.737,270.925 206.211,271.497C206.189,263.146 206.095,251.461 206.06,245.999L206.057,245.516C206.351,245.414 206.724,245.235 206.779,244.98Z" style="fill:white;fill-opacity:0.75;"/>
    <path d="M95.27,247.176L108.595,247.176C109.385,249.369 110.2,251.554 111.031,253.731C110.336,253.915 109.629,254.006 108.912,254.002C104.011,253.999 99.088,254.019 94.149,254.064C94.514,251.757 94.879,249.458 95.27,247.176Z" style="fill:white;fill-opacity:0.15;"/>
    <path d="M108.595,247.176L95.27,247.176C96.646,239.141 98.335,231.302 101.385,223.973C101.415,223.902 101.45,223.857 101.488,223.834C101.605,223.764 101.757,223.837 101.779,223.976C101.948,225.041 102.151,226.073 102.393,227.071C104.057,233.857 106.212,240.556 108.595,247.176Z" style="fill:white;fill-opacity:0.1;"/>
    <path d="M255.962,254.015C256.007,256.332 255.991,257.827 255.917,258.496C255.784,259.678 255.7,260.88 255.671,262.101C255.603,264.866 255.419,266.695 255.303,269.557C255.3,269.667 255.283,269.773 255.254,269.88C255.009,270.804 255.044,271.74 254.912,272.648C254.67,274.312 254.395,275.988 254.088,277.681C253.626,280.22 252.932,282.711 252.001,285.15L239.865,285.147C240.427,283.838 240.99,282.537 241.554,281.238C242.347,279.413 243.076,277.358 243.738,275.071C245.311,269.641 246.574,263.993 247.537,258.128C247.682,257.246 248.233,253.492 249.185,246.863C249.346,245.736 249.66,244.519 250.147,243.223C250.233,242.993 250.344,242.773 250.48,242.57C252.759,239.162 254.427,235.357 255.477,231.148C255.823,235.266 255.994,239.295 255.991,243.232C255.988,246.799 255.978,250.394 255.962,254.015Z" style="fill:white;fill-opacity:0.35;"/>
    <path d="M36.784,259.675L34.468,258.606C34.381,258.564 34.329,258.473 34.335,258.376L34.687,253.964L36.503,237.602C37.395,237.54 38.36,237.297 39.401,236.869C41.748,235.901 43.173,235.321 43.671,235.124C43.778,235.082 43.887,235.179 43.858,235.289C41.692,243.602 39.875,251.754 38.528,260.208L36.784,259.675Z" style="fill:white;fill-opacity:0.25;"/>
    <path d="M218.021,271.644C214.101,273.074 210.222,273.911 206.215,274.789L206.215,273.711L206.211,271.497C210.737,270.925 214.86,269.603 218.577,267.528C219.161,267.202 219.881,266.549 220.738,265.567C221.819,264.329 222.666,263.051 223.277,261.73C224.946,258.121 226.331,254.407 227.257,250.216C228.147,246.189 229.297,241.748 230.726,236.898C230.929,236.209 231.534,235.719 232.248,235.664L232.322,235.657C232.936,235.609 233.436,236.138 233.356,236.749C233.015,239.33 232.587,241.54 232.067,243.378C230.934,247.38 229.78,251.425 228.61,255.511C228.136,257.168 227.605,258.803 227.027,260.412C225.864,263.648 225.092,265.76 223.064,268.132C221.677,269.753 219.995,270.923 218.021,271.644Z" style="fill:white;fill-opacity:0.35;"/>
    <path d="M35.454,247.058L34.687,253.964C34.142,253.993 33.046,254.009 31.405,254.012C29.441,254.012 27.739,253.356 27.736,251.092C27.726,246.947 27.71,242.777 27.681,238.581C29.635,238.602 31.433,238.471 33.071,238.19C33.08,240.218 33.086,242.239 33.091,244.255C33.093,245.994 34.098,246.785 35.454,247.058Z" style="fill:white;fill-opacity:0.15;"/>
    <path d="M35.454,247.058C34.098,246.785 33.093,245.994 33.091,244.255C33.086,242.239 33.08,240.218 33.071,238.19C33.185,238.17 33.299,238.15 33.411,238.128C34.785,237.871 35.815,237.696 36.503,237.602L35.454,247.058Z" style="fill:white;fill-opacity:0.1;"/>
    <path d="M206.06,245.999C206.095,251.461 206.189,263.146 206.211,271.497L206.215,273.711L206.215,274.789C206.215,278.01 206.194,280.303 206.149,280.821C206.146,280.849 206.143,280.874 206.14,280.895C206.001,281.703 205.471,282.107 204.544,282.107L145.189,282.116C144.927,282.116 144.698,282.144 144.494,282.2C144.358,282.238 144.226,282.136 144.226,281.997L144.53,242.357C144.53,242.166 144.598,241.986 144.724,241.843C145.054,241.469 145.441,241.274 145.887,241.265C148.448,241.211 151.592,241.036 153.575,241.036C167.343,241.034 183.941,241.031 203.371,241.033C203.788,241.033 204.14,241.056 204.428,241.104C205.7,241.316 206.1,241.64 206.049,242.977C206.047,243.048 206.047,243.343 206.048,243.828L206.056,245.374L206.06,245.999ZM180.962,261.52C180.962,258.393 178.426,255.857 175.299,255.857C172.172,255.857 169.636,258.393 169.636,261.52C169.636,264.647 172.172,267.182 175.299,267.182C178.426,267.182 180.962,264.647 180.962,261.52Z" style="fill:white;fill-opacity:0.95;"/>
    <path d="M180.962,261.52C180.962,258.393 178.426,255.857 175.299,255.857C172.172,255.857 169.636,258.393 169.636,261.52C169.636,264.647 172.172,267.182 175.299,267.182C178.426,267.182 180.962,264.647 180.962,261.52Z" style="fill:white;fill-opacity:0.5;"/>
    <path d="M29.868,285.163C31.706,276.547 34.306,268.2 36.784,259.675L38.528,260.208C45.719,262.631 53.029,264.603 60.463,266.123C65.634,267.18 70.315,267.795 74.505,267.974C79.244,268.176 83.931,267.801 88.573,266.85C89.252,266.711 89.924,266.591 90.589,266.491L90.66,267.812C84.313,268.991 77.913,269.663 71.456,269.831C68.228,269.915 65.137,269.919 62.184,269.841C55.191,269.657 48.276,268.805 41.384,267.56C41.345,267.553 41.306,267.577 41.294,267.615L35.805,285.159L29.868,285.163Z" style="fill:white;fill-opacity:0.35;"/>
    <path d="M90.353,285.15L35.805,285.159L41.294,267.615C41.306,267.577 41.345,267.553 41.384,267.56C48.276,268.805 55.191,269.657 62.184,269.841C65.137,269.919 68.228,269.915 71.456,269.831C77.913,269.663 84.313,268.991 90.66,267.812C90.786,272.616 90.764,277.452 90.586,282.32C90.55,283.247 90.473,284.19 90.353,285.15Z" style="fill:white;fill-opacity:0.95;"/>
    <path d="M252.001,285.15L288.456,285.15C289.723,285.15 289.897,285.728 289.891,286.862C289.881,288.874 289.878,292.796 289.887,298.633C289.887,299.225 289.7,299.628 289.328,299.842C289.244,299.887 289.151,299.916 289.054,299.926C288.721,299.961 288.333,299.977 287.891,299.977C201.533,300.003 114.936,300.006 28.104,299.99C27.513,299.99 26.986,299.56 26.98,298.96C26.957,296.572 26.954,292.425 26.964,286.516C26.967,285.944 27.167,285.531 27.568,285.282C27.642,285.237 27.729,285.211 27.816,285.208L29.868,285.163L35.805,285.159L90.353,285.15L126.055,285.15L239.865,285.147L252.001,285.15Z" style="fill:white;fill-opacity:0.95;"/>
    <path d="M239.71,55.216C239.46,56.194 239.071,57.067 238.562,57.784C237.871,58.757 236.958,59.443 235.87,59.714C234.496,60.056 233.058,59.682 231.759,58.777C229.943,57.509 228.4,55.199 227.691,52.35C227.244,50.559 227.189,48.802 227.46,47.254C227.928,44.579 229.372,42.53 231.46,42.01C233.795,41.428 236.313,42.912 238.017,45.562L234.824,46.073C234.015,45.343 233.107,45.004 232.259,45.215C231.532,45.396 230.957,45.954 230.572,46.754C229.978,47.99 229.842,49.804 230.313,51.697C231.09,54.813 233.222,56.969 235.071,56.508C235.455,56.412 235.797,56.212 236.09,55.926C237.212,54.833 237.632,52.497 237.017,50.027L236.959,49.806C237.102,49.787 237.247,49.777 237.395,49.777C238.434,49.777 239.358,50.271 239.945,51.037C240.123,52.53 240.031,53.96 239.71,55.216ZM194.07,65.902C191.673,65.008 189.485,62.289 188.598,58.728C188.17,57.009 188.101,55.322 188.336,53.82C188.769,51.054 190.23,48.921 192.368,48.388C194.702,47.807 197.221,49.291 198.925,51.942C197.828,52.128 196.772,52.309 195.767,52.483C194.949,51.732 194.027,51.379 193.166,51.594C192.405,51.783 191.809,52.387 191.426,53.248C190.878,54.481 190.764,56.241 191.221,58.075C191.997,61.191 194.129,63.347 195.979,62.886C196.438,62.772 196.837,62.507 197.165,62.126C198.16,60.972 198.508,58.748 197.924,56.405C197.888,56.259 197.848,56.114 197.806,55.972C197.982,55.942 198.163,55.926 198.348,55.926C199.334,55.926 200.218,56.372 200.808,57.074C201.029,58.595 200.971,60.058 200.676,61.351C200.352,62.773 199.74,63.99 198.895,64.851C198.299,65.459 197.587,65.89 196.777,66.092C195.883,66.315 194.962,66.234 194.07,65.902ZM212.275,62.173C210.378,60.936 208.753,58.566 208.019,55.62C207.566,53.802 207.516,52.019 207.801,50.454C208.282,47.814 209.718,45.795 211.789,45.28C214.095,44.705 216.581,46.147 218.284,48.737L215.06,49.262C214.275,48.588 213.404,48.282 212.587,48.485C211.888,48.66 211.328,49.183 210.944,49.936C210.314,51.173 210.159,53.029 210.642,54.967C211.418,58.083 213.55,60.239 215.4,59.778C215.812,59.675 216.175,59.452 216.482,59.132C217.556,58.014 217.949,55.72 217.345,53.297C217.323,53.208 217.3,53.12 217.276,53.033C217.447,53.004 217.623,52.99 217.802,52.99C218.783,52.99 219.661,53.43 220.251,54.124C220.46,55.695 220.372,57.2 220.031,58.514C219.795,59.427 219.437,60.247 218.973,60.934C218.273,61.97 217.33,62.702 216.198,62.984C214.89,63.31 213.523,62.986 212.275,62.173Z" style="fill:white;fill-opacity:0.75;"/>
    <path d="M106.933,123.464L106.891,123.445C106.724,123.369 106.561,123.301 106.404,123.243C105.488,122.9 104.77,122.855 104.556,123.188C104.436,123.375 104.492,123.656 104.686,123.987C104.755,124.105 104.841,124.23 104.944,124.359C105.371,124.896 106.075,125.512 106.938,126.065L107.064,126.144C106.9,129.173 106.702,131.314 106.466,132.573C106.206,133.968 105.995,135.373 105.83,136.785C104.916,138.403 103.549,139.143 101.731,139.004C100.51,138.911 99.037,138.617 97.308,138.119C97.932,137.354 98.142,136.191 99.479,136.491C101.084,136.851 102.683,137.731 102.79,135.092C102.858,133.432 102.787,131.658 102.584,129.769C102.057,124.887 100.972,120.129 99.327,115.497C101.308,115.671 103.336,115.61 105.413,115.309C106.319,117.716 107.034,123.171 106.933,123.464ZM105.678,128.65C105.287,128.619 104.913,129.365 104.84,130.315C104.767,131.264 105.022,132.059 105.413,132.089C105.804,132.12 106.179,131.374 106.251,130.424C106.324,129.475 106.069,128.68 105.678,128.65Z" style="fill:white;fill-opacity:0.75;"/>
    <path d="M87.413,223.168C87.408,223.674 87.31,224.145 87.132,224.58C87.101,224.655 87.068,224.729 87.033,224.802C84.454,230.121 69.585,229.929 67.143,224.412C71.752,218.378 66.771,212.028 66.34,211.436C66.666,211.444 66.902,211.262 67.024,210.877C67.035,210.842 67.04,210.809 67.043,210.774L67.062,209.636C67.069,209.249 66.791,208.915 66.41,208.851C65.67,208.729 64.927,208.697 64.181,208.764C64.016,208.779 63.964,208.984 64.026,209.381C62.055,209.635 64.38,213.029 60.969,215.105C60.944,215.12 60.89,215.137 60.815,215.154C60.763,215.166 60.701,215.177 60.632,215.188C60.675,214.823 60.527,212.785 60.425,211.457C60.375,210.799 60.336,210.316 60.337,210.295C60.275,209.65 60.333,209.036 60.512,208.501L60.538,208.428C60.932,207.339 61.846,206.597 63.305,206.616L63.453,206.616C64.873,206.595 66.922,206.042 66.922,206.042C66.922,206.042 66.948,204.26 66.846,202.79L68.093,203.987C69.872,206.798 84.838,205.793 85.86,203.712C85.86,203.638 85.851,203.565 85.833,203.495C86.288,203.208 86.692,202.898 86.945,202.595C86.986,202.546 87.024,202.498 87.056,202.45L87.065,202.437C87.227,203.52 87.365,217.685 87.403,221.939L87.414,223.139L87.413,223.168Z" style="fill:white;fill-opacity:0.95;"/>
    <path d="M33.782,172.088L33.782,92.203C33.782,91.056 34.713,90.125 35.86,90.125L125.207,90.125C125.786,92.766 126.473,95.295 127.277,97.714C127.309,97.811 127.299,97.917 127.254,98.011L116.468,119.864L117.327,126.845C117.366,127.155 117.627,127.387 117.938,127.388C125.487,127.402 131.986,127.392 137.439,127.32C138.198,127.31 139.048,127.355 139.985,127.452C140.292,127.484 140.576,127.633 140.78,127.866C142.412,129.735 144.091,131.784 145.822,133.506C153.216,140.859 161.776,146.465 171.51,150.324C173.083,150.947 174.818,151.539 176.708,152.1C180.952,153.36 184.12,154.028 188.644,154.688C188.819,154.713 188.961,154.84 189.006,155.008C190.02,158.783 190.851,161.772 191.503,163.969C191.904,165.322 192.831,165.792 194.287,165.374C195.577,165.004 202.545,163.065 215.194,159.559C217.769,158.846 217.108,157.288 216.574,155.373C216.335,154.516 216.134,153.829 215.976,153.312C215.944,153.205 216,153.09 216.102,153.047C216.161,153.022 216.412,153.082 216.59,153.034C234.312,148.211 248.386,138.408 258.792,123.595C260.704,120.872 262.653,117.562 264.632,113.662C265.55,111.853 266.295,109.795 267.061,107.97C267.361,107.256 267.653,106.484 267.937,105.654C268.92,102.776 269.759,99.733 270.46,96.518C270.851,94.725 271.05,92.932 271.287,91.325C271.412,91.591 271.481,91.889 271.481,92.203L271.481,244.708C271.481,245.854 270.55,246.786 269.404,246.786L255.986,246.786C255.988,245.598 255.99,244.414 255.991,243.232C255.994,239.295 255.823,235.266 255.477,231.148C255.661,230.472 255.691,229.548 255.571,228.376C255.145,224.228 253.884,220.029 251.275,216.908C249.016,214.208 246.054,212.608 242.388,212.114C241.596,211.3 240.792,210.619 239.971,210.069C239.383,209.675 239.047,209.226 238.96,208.719C238.739,207.424 238.814,205.939 239.245,204.28C239.272,204.174 239.374,204.107 239.48,204.122C239.835,204.172 240.139,204.264 240.395,204.41C244.527,204.988 248.825,203.995 252.523,202.546C253.536,202.187 254.559,201.734 255.59,201.189C256.351,200.814 257.315,200.087 257.916,199.79C259.321,199.086 260.875,197.709 262.071,196.744C262.988,196.004 264.195,194.743 265.692,192.958C266.418,192.092 267.055,191.117 267.598,190.035C268.37,188.49 268.841,187.428 269.058,186.862C271.023,181.732 270.463,176.657 269.306,172.689L269.206,172.353C269.037,171.797 268.856,171.263 268.67,170.755C268.598,170.557 268.524,170.363 268.45,170.173C268.355,169.989 268.263,169.762 268.175,169.489C267.915,168.864 267.654,168.293 267.406,167.782C266.728,166.387 266.149,165.448 265.953,165.122L265.852,164.955C265.385,164.203 264.794,163.441 264.166,162.716C262.421,160.706 260.38,158.984 259.845,158.574C257.115,156.484 254.261,154.951 251.281,153.958C249.959,153.517 246.707,152.617 245.092,152.236C242.281,151.574 237.893,151.249 233.385,151.826C229.357,152.341 223.688,154.445 220.592,157.45C220.544,157.496 220.493,157.548 220.438,157.605C218.804,159.3 216.792,161.629 215.95,165.251C215.66,166.201 215.576,167.034 215.424,168.049C215.039,170.649 215.181,173.241 215.824,175.837C215.906,176.166 216.225,176.625 216.777,177.213C216.748,177.698 216.623,178.092 216.399,178.399C216.287,178.554 216.422,178.769 216.609,178.731C218.133,178.424 219.72,178.472 221.365,178.851C221.562,178.896 221.697,178.951 221.772,179.016C221.92,179.145 221.791,179.387 221.571,179.39C219.707,179.419 217.966,179.398 216.348,179.326C216.199,179.319 216.068,179.413 216.028,179.555C214.99,183.279 214.099,187.405 213.434,191.95C213.262,193.126 213.143,194.874 213.075,197.196C213.02,199.225 213.253,201.147 213.78,202.959C214.555,205.683 216.689,207.738 220.781,207.96C221.852,209.608 222.426,211.376 222.495,213.267C222.515,213.807 222.372,214.314 222.066,214.795C220.55,214.789 219.351,215.179 218.464,215.965C217.419,216.89 216.652,217.68 216.157,218.333C215.331,219.422 214.418,220.984 213.424,223.023C212.554,224.809 211.664,227.119 210.753,229.956C209.225,234.711 207.9,239.718 206.779,244.98C206.724,245.235 206.351,245.414 206.057,245.516L206.056,245.374L206.048,243.828C206.047,243.343 206.047,243.048 206.049,242.977C206.1,241.64 205.7,241.316 204.428,241.104C204.14,241.056 203.788,241.033 203.371,241.033C183.941,241.031 167.343,241.034 153.575,241.036C151.592,241.036 148.448,241.211 145.887,241.265C145.441,241.274 145.054,241.469 144.724,241.843C144.598,241.986 144.53,242.166 144.53,242.357L144.496,246.786L128.53,246.786C128.443,246.361 128.356,245.935 128.271,245.507C125.097,229.503 121.85,213.513 118.535,197.539C121.339,197.752 124.295,197.595 126.882,197.607C128.679,197.614 129.977,197.413 129.98,195.403C130.001,183.861 130.01,177.892 130,177.497C129.956,175.743 128.892,175.336 127.428,175.33C122.053,175.307 116.632,175.317 111.17,175.359C109.422,172.351 107.58,169.903 105.646,168.016C103.471,165.895 101.282,164.314 99.075,163.271C95.984,161.81 92.883,160.318 89.772,158.794C89.555,157.091 89.71,155.376 90.237,153.648C90.757,153.347 91.358,153.367 92.033,153.722C92.124,153.77 92.227,153.803 92.33,153.816C93.102,153.911 93.622,153.971 93.884,154.006C94.388,154.074 95.179,154.063 96.262,153.974C97.092,153.905 97.828,153.786 98.471,153.618C99.634,153.315 100.473,152.733 101.159,151.674C105.204,145.433 106.006,138.546 105.871,137.021C105.867,136.936 105.854,136.857 105.83,136.785C105.995,135.373 106.206,133.968 106.466,132.573C106.702,131.314 106.9,129.173 107.064,126.144C108.166,126.829 109.236,127.228 109.909,127.247L109.942,127.262C110.033,127.303 110.126,127.282 110.191,127.228C110.356,127.197 110.479,127.128 110.549,127.02C110.888,126.491 109.82,125.201 108.167,124.143C107.746,123.874 107.328,123.646 106.933,123.464C107.034,123.171 106.319,117.716 105.413,115.309C117.866,113.72 117.325,107.882 116.81,102.052C116.817,101.907 116.707,101.784 116.561,101.774C116.09,101.739 107.342,100.309 107.041,100.416C106.926,100.455 99.707,99.038 95.427,98.251C94.199,98.009 93.246,97.845 92.569,97.759C90.773,97.529 88.557,97.287 85.918,97.032C85.1,96.952 83.503,96.973 82.835,96.996C82.741,96.996 82.646,97 82.552,97.009C80.281,97.203 79.008,97.329 78.727,97.387C78.336,97.468 77.341,97.726 75.742,98.166C74.709,98.45 73.19,99.261 72.447,99.745C70.39,101.087 68.868,102.872 67.88,105.101C66.849,107.427 65.513,110.295 63.877,113.71C63.082,115.37 62.359,117.309 61.706,119.528C61.416,120.516 61.212,121.524 61.094,122.547C60.929,123.559 60.8,124.527 60.779,125.017L60.771,125.254C60.316,125.252 59.609,125.251 58.69,125.251C56.911,125.25 53.819,125.257 49.408,125.269C48.013,125.272 47.315,125.986 47.312,127.404C47.293,136.384 47.303,142.219 47.334,144.903C47.343,145.681 47.599,146.24 48.1,146.583C48.388,146.78 49.008,146.88 49.957,146.88L69.724,146.87C70.48,146.87 71.158,146.289 71.759,145.129C71.969,145.478 72.066,145.691 72.047,145.772C72.867,149.267 72.098,152.21 69.744,154.597C68.513,154.852 67.324,155.04 66.184,155.163C63.047,155.501 59.529,155.869 55.63,156.267C48.332,157.012 41.128,159.072 37.265,165.913C37.033,166.324 36.014,168.135 34.209,171.347C34.072,171.591 33.93,171.838 33.782,172.088Z" style="fill:white;fill-opacity:0.1;"/>
</svg>
