<?xml version="1.0" encoding="UTF-8" standalone="no"?>
<!DOCTYPE svg PUBLIC "-//W3C//DTD SVG 1.1//EN" "http://www.w3.org/Graphics/SVG/1.1/DTD/svg11.dtd">
<svg width="100%" height="100%" viewBox="0 0 300 300" version="1.1" xmlns="http://www.w3.org/2000/svg" xmlns:xlink="http://www.w3.org/1999/xlink" xml:space="preserve" xmlns:serif="http://www.serif.com/" style="fill-rule:evenodd;clip-rule:evenodd;stroke-linejoin:round;stroke-miterlimit:2;">
    <path d="M164.235,82.335L159.404,67.648C159.367,67.54 159.376,67.425 159.426,67.323C163.406,59.167 164.953,50.669 164.009,41.801C162.821,30.631 158.144,21.03 149.976,12.998C146.389,9.466 141.79,6.402 137.487,4.403C121.176,-3.183 101.639,-0.901 87.836,10.745C84.486,13.57 81.717,16.548 79.528,19.68C74.734,26.542 71.926,34.264 71.125,42.847C71.059,43.55 71.001,44.252 70.952,44.955C70.831,52.717 72.338,59.905 75.477,66.519C78.71,73.331 83.323,79.047 89.309,83.662C95.772,88.645 103.312,91.709 111.925,92.874C112.631,92.969 113.918,93.064 115.791,93.161C117.205,93.235 118.499,93.244 119.669,93.186C130.065,92.669 139.342,89.097 147.509,82.471C148.323,81.811 149.055,81.12 149.71,80.4C149.809,80.292 149.955,80.239 150.097,80.261L164.235,82.335ZM85.013,22.871C83.719,24.224 82.895,25.752 82.565,27.464C82.542,27.579 82.537,27.697 82.552,27.814L82.821,29.925C82.837,30.03 82.87,30.13 82.924,30.219C83.171,30.635 83.509,30.977 83.93,31.253C86.384,32.859 88.736,34.639 90.983,36.598C89.563,37.539 87.739,39.727 88.451,41.365C88.95,42.51 89.85,43.176 91.154,43.355C91.246,43.367 91.311,43.454 91.299,43.547C90.995,45.813 92.747,47.665 95.05,47.462C95.137,47.454 95.205,47.533 95.186,47.617L94.979,48.474C94.964,48.536 94.96,48.604 94.97,48.672C95.245,50.648 96.413,51.584 98.446,51.452C98.532,51.446 98.607,51.52 98.603,51.609C98.57,52.411 98.591,52.906 98.684,53.095C100.012,55.786 102.766,55.488 105.36,54.804C106.558,54.506 108.044,53.918 109.823,53.042C111.25,54.627 112.557,56.332 113.745,58.159C114.553,59.402 115.444,60.731 116.416,62.145C117.091,63.439 117.822,64.488 118.61,65.29C119.58,66.276 120.638,66.896 121.786,67.147C123.606,67.545 125.36,67.954 127.051,68.366C127.716,68.528 128.188,68.343 128.753,68.942C129.122,69.334 129.795,70.045 130.455,70.409C132.53,71.554 134.751,71.7 137.113,70.852C138.385,72.17 140.412,73.813 142.347,72.919C143.461,72.405 144.733,71.545 146.16,70.338C147.884,68.868 149.329,67.047 150.493,64.872C151.025,63.878 151.382,62.87 151.564,61.842C152.145,58.555 149.567,56.838 147.147,55.327C145.528,54.315 144.024,53.479 142.641,52.816C142.836,52.015 142.898,51.433 142.83,51.074C142.699,50.387 142.38,49.592 141.873,48.685C140.621,46.444 139.138,44.295 137.416,42.244C136.665,41.349 135.482,40.237 134.634,39.774C132.443,38.577 129.786,37.531 126.67,36.623C126.373,36.536 126.144,36.443 125.983,36.347C126.265,36.155 126.392,35.945 126.373,35.719C126.369,35.676 126.354,35.633 126.326,35.595C124.966,33.74 123.462,32.007 121.749,30.439C119.667,28.534 117.617,26.363 114.614,26.121C111.467,25.868 108.313,25.471 105.147,24.933C104.206,24.128 103.175,23.084 102.051,21.803C101.027,20.636 99.774,19.512 98.291,18.439C97.131,17.6 95.904,17.296 94.614,17.523C90.828,18.187 87.628,19.971 85.013,22.871Z" style="fill:white;fill-opacity:0.95;"/>
    <path d="M116.416,62.145C117.091,63.439 117.822,64.488 118.61,65.29C119.58,66.276 120.638,66.896 121.786,67.147C123.606,67.545 125.36,67.954 127.051,68.366C127.716,68.528 128.188,68.343 128.753,68.942C129.122,69.334 129.795,70.045 130.455,70.409C132.53,71.554 134.751,71.7 137.113,70.852C136.611,70.384 136.305,70.072 136.194,69.917C135.327,68.706 134.609,67.24 134.024,65.522C133.473,63.903 133.009,62.26 132.631,60.591C131.895,57.462 131.623,54.29 131.817,51.071C131.879,50.043 132.195,49.177 132.764,48.474C133.414,47.672 135.224,48.357 135.955,48.743C136.302,48.926 136.79,49.264 137.419,49.755C139.058,51.036 140.799,52.055 142.641,52.816C142.836,52.015 142.898,51.433 142.83,51.074C142.699,50.387 142.38,49.592 141.873,48.685C140.621,46.444 139.138,44.295 137.416,42.244C136.665,41.349 135.482,40.237 134.634,39.774C132.443,38.577 129.786,37.531 126.67,36.623C126.373,36.536 126.144,36.443 125.983,36.347C124.869,36.716 123.819,36.927 122.835,36.976C121.204,37.057 120.071,37.128 119.43,37.189C118.329,37.295 117.462,37.264 116.828,37.093C114.147,36.373 111.836,34.435 110.117,32.243C109.987,32.077 109.792,31.97 109.582,31.946C106.726,31.616 104.12,30.737 101.764,29.3C101.352,29.049 100.981,28.696 100.652,28.244C99.619,26.823 100.955,25.704 102.197,25.251C102.822,25.024 103.806,24.917 105.147,24.933C104.206,24.128 103.175,23.084 102.051,21.803C101.027,20.636 99.774,19.512 98.291,18.439C97.131,17.6 95.904,17.296 94.614,17.523C90.828,18.187 87.628,19.971 85.013,22.871C87.82,27.523 91.41,31.448 95.787,34.639C98.13,34.079 100.869,34.269 102.073,36.561C102.252,36.902 102.284,37.245 102.169,37.592C102.129,37.712 102.234,37.83 102.358,37.805C104.588,37.351 106.438,39.206 105.725,41.337C105.683,41.464 105.781,41.595 105.917,41.591C107.722,41.534 109.019,42.203 109.808,43.649C110.254,44.466 110.235,45.311 109.771,46.19C109.727,46.273 109.746,46.375 109.82,46.434C110.003,46.58 110.371,46.685 110.659,46.877C111.649,47.537 112.748,48.852 112.497,50.155C112.349,50.928 111.956,51.513 111.318,51.913C111.318,51.984 111.343,52.031 111.392,52.055C111.457,52.087 111.509,52.073 111.544,52.015C111.657,51.825 111.798,51.715 111.956,51.681C112.07,51.656 112.189,51.703 112.253,51.801C112.34,51.936 113.245,53.34 114.974,56.001C115.159,56.286 115.301,56.63 115.398,57.029C115.789,58.639 116.134,60.344 116.416,62.145Z" style="fill:white;fill-opacity:0.85;"/>
    <path d="M85.013,22.871C83.719,24.224 82.895,25.752 82.565,27.464C82.542,27.579 82.537,27.697 82.552,27.814L82.821,29.925C82.837,30.03 82.87,30.13 82.924,30.219C83.171,30.635 83.509,30.977 83.93,31.253C86.384,32.859 88.736,34.639 90.983,36.598C91.887,35.902 93.038,35.354 94.434,34.948C94.806,34.951 95.258,34.849 95.787,34.639C91.41,31.448 87.82,27.523 85.013,22.871Z" style="fill:white;fill-opacity:0.75;"/>
    <path d="M125.983,36.347C126.265,36.155 126.392,35.945 126.373,35.719C126.369,35.676 126.354,35.633 126.326,35.595C124.966,33.74 123.462,32.007 121.749,30.439C119.667,28.534 117.617,26.363 114.614,26.121C111.467,25.868 108.313,25.471 105.147,24.933C103.806,24.917 102.822,25.024 102.197,25.251C100.955,25.704 99.619,26.823 100.652,28.244C100.981,28.696 101.352,29.049 101.764,29.3C104.12,30.737 106.726,31.616 109.582,31.946C109.792,31.97 109.987,32.077 110.117,32.243C111.836,34.435 114.147,36.373 116.828,37.093C117.462,37.264 118.329,37.295 119.43,37.189C120.071,37.128 121.204,37.057 122.835,36.976C123.819,36.927 124.869,36.716 125.983,36.347Z" style="fill:white;fill-opacity:0.5;"/>
    <path d="M105.36,54.804C106.558,54.506 108.044,53.918 109.823,53.042L111.318,51.913C111.956,51.513 112.349,50.928 112.497,50.155C112.748,48.852 111.649,47.537 110.659,46.877C110.371,46.685 110.003,46.58 109.82,46.434C109.746,46.375 109.727,46.273 109.771,46.19C110.235,45.311 110.254,44.466 109.808,43.649C109.019,42.203 107.722,41.534 105.917,41.591C105.781,41.595 105.683,41.464 105.725,41.337C106.438,39.206 104.588,37.351 102.358,37.805C102.234,37.83 102.129,37.712 102.169,37.592C102.284,37.245 102.252,36.902 102.073,36.561C100.869,34.269 98.13,34.079 95.787,34.639C95.258,34.849 94.806,34.951 94.434,34.948C93.401,37.025 93.387,38.908 94.394,40.597C95.145,41.857 96.211,42.664 97.588,43.027C97.929,43.116 98.195,43.379 98.288,43.72C98.554,44.695 98.937,45.825 99.439,47.103C100.194,49.025 101.021,50.436 101.918,51.34C103.002,52.432 104.15,53.587 105.36,54.804Z" style="fill:white;fill-opacity:0.5;"/>
    <path d="M90.983,36.598C89.563,37.539 87.739,39.727 88.451,41.365C88.95,42.51 89.85,43.176 91.154,43.355C91.246,43.367 91.311,43.454 91.299,43.547C90.995,45.813 92.747,47.665 95.05,47.462C95.137,47.454 95.205,47.533 95.186,47.617L94.979,48.474C94.964,48.536 94.96,48.604 94.97,48.672C95.245,50.648 96.413,51.584 98.446,51.452C98.532,51.446 98.607,51.52 98.603,51.609C98.57,52.411 98.591,52.906 98.684,53.095C100.012,55.786 102.766,55.488 105.36,54.804C104.15,53.587 103.002,52.432 101.918,51.34C101.021,50.436 100.194,49.025 99.439,47.103C98.937,45.825 98.554,44.695 98.288,43.72C98.195,43.379 97.929,43.116 97.588,43.027C96.211,42.664 95.145,41.857 94.394,40.597C93.387,38.908 93.401,37.025 94.434,34.948C93.038,35.354 91.887,35.902 90.983,36.598Z" style="fill:white;fill-opacity:0.4;"/>
    <path d="M70.952,44.955C70.918,44.379 70.893,43.797 70.88,43.212C70.831,43.909 70.687,44.527 70.432,45.066C70.383,45.169 70.352,45.28 70.342,45.391C70.224,46.661 69.931,47.898 69.909,49.232C69.857,52.346 69.826,55.005 70.24,57.732C70.354,58.484 70.596,59.728 70.97,61.464C73.375,72.675 80.218,82.756 89.402,89.262C102.531,98.563 119.635,100.5 134.46,94.214C139.552,92.053 144.202,89.06 148.37,85.188C148.562,85.009 148.825,84.928 149.088,84.962L162.79,86.857C162.889,86.872 162.982,86.807 163.01,86.711L164.235,82.335L150.097,80.261C149.955,80.239 149.809,80.292 149.71,80.4C149.055,81.12 148.323,81.811 147.509,82.471C139.342,89.097 130.065,92.669 119.669,93.186C118.499,93.244 117.205,93.235 115.791,93.161C113.918,93.064 112.631,92.969 111.925,92.874C103.312,91.709 95.772,88.645 89.309,83.662C83.323,79.047 78.71,73.331 75.477,66.519C72.338,59.905 70.831,52.717 70.952,44.955Z" style="fill:white;fill-opacity:0.25;"/>
    <path d="M146.16,70.338C147.884,68.868 149.329,67.047 150.493,64.872C151.025,63.878 151.382,62.87 151.564,61.842C152.145,58.555 149.567,56.838 147.147,55.327C145.528,54.315 144.024,53.479 142.641,52.816C140.799,52.055 139.058,51.036 137.419,49.755C136.79,49.264 136.302,48.926 135.955,48.743C135.224,48.357 133.414,47.672 132.764,48.474C132.195,49.177 131.879,50.043 131.817,51.071C131.623,54.29 131.895,57.462 132.631,60.591C132.665,60.471 132.682,60.375 132.671,60.297C132.658,60.204 132.708,60.113 132.795,60.084C132.881,60.055 132.981,60.093 133.024,60.174L133.804,61.591C133.832,61.644 133.872,61.69 133.919,61.724C134.092,61.795 134.65,62.268 135.596,63.136C136.418,63.889 137.71,64.844 139.465,66.002C141.662,67.451 143.894,68.896 146.16,70.338Z" style="fill:white;fill-opacity:0.5;"/>
    <path d="M109.823,53.042C111.25,54.627 112.557,56.332 113.745,58.159C114.553,59.402 115.444,60.731 116.416,62.145C116.134,60.344 115.789,58.639 115.398,57.029C115.301,56.63 115.159,56.286 114.974,56.001C113.245,53.34 112.34,51.936 112.253,51.801C112.189,51.703 112.07,51.656 111.956,51.681C111.798,51.715 111.657,51.825 111.544,52.015C111.509,52.073 111.457,52.087 111.392,52.055C111.343,52.031 111.318,51.984 111.318,51.913L109.823,53.042Z" style="fill:white;fill-opacity:0.75;"/>
    <path d="M137.113,70.852C138.385,72.17 140.412,73.813 142.347,72.919C143.461,72.405 144.733,71.545 146.16,70.338C143.894,68.896 141.662,67.451 139.465,66.002C137.71,64.844 136.418,63.889 135.596,63.136C134.65,62.268 134.092,61.795 133.919,61.724C133.872,61.69 133.832,61.644 133.804,61.591L133.024,60.174C132.981,60.093 132.881,60.055 132.795,60.084C132.708,60.113 132.658,60.204 132.671,60.297C132.682,60.375 132.665,60.471 132.631,60.591C133.009,62.26 133.473,63.903 134.024,65.522C134.609,67.24 135.327,68.706 136.194,69.917C136.305,70.072 136.611,70.384 137.113,70.852Z" style="fill:white;fill-opacity:0.4;"/>
    <path d="M179.413,95.979C183.305,96.31 186.347,96.572 186.347,96.572L186.025,101.069C185.914,101.623 185.353,101.831 184.341,101.691C184.341,101.691 178.903,101.23 173.579,100.786L172.562,100.701C168.52,100.364 164.752,100.055 163.737,99.986L162.809,99.878C162.654,99.859 162.542,99.723 162.555,99.568L162.948,94.814C162.954,94.718 163.038,94.647 163.134,94.653C163.812,94.689 165.949,94.857 168.67,95.079C170.052,95.193 171.585,95.32 173.154,95.451L176.883,95.765L179.413,95.979Z" style="fill:white;fill-opacity:0.85;"/>
    <path d="M216.373,104.276C210.77,103.796 205.163,103.343 199.557,102.914C195.471,102.605 191.63,102.161 187.65,101.921C187.405,101.906 187.241,101.967 187.161,102.1C187.077,102.233 187.034,102.419 187.028,102.657L186.916,104.171C186.916,104.171 186.902,104.52 186.926,104.784L215.899,107.018L214.243,127.362C214.24,127.415 214.171,127.476 214.093,127.518C214.026,127.555 213.951,127.578 213.905,127.571C213.782,127.553 213.33,127.507 212.622,127.441L211.284,127.318C211.245,127.302 211.205,127.291 211.164,127.285C210.794,127.233 209.078,127.075 206.556,126.855C204.55,126.68 202.033,126.466 199.276,126.234L198.218,126.145C194.011,125.792 189.346,125.405 185.127,125.058L184.991,125.047C184.996,125.022 185.012,124.995 185.038,124.967C185.068,124.928 185.383,120.112 185.715,115.192C186.054,110.178 186.41,105.054 186.502,104.765L180.89,104.298L163.48,102.769L163.737,99.986C166.164,100.15 184.341,101.691 184.341,101.691C185.353,101.831 185.914,101.623 186.025,101.069L186.347,96.572L217.307,98.98C217.45,98.989 217.558,99.116 217.546,99.259L217.131,104.267C217.131,104.276 216.995,104.357 216.555,104.291L216.373,104.276Z" style="fill:white;fill-opacity:0.5;"/>
    <path d="M215.899,107.018L186.926,104.784C186.902,104.52 186.916,104.171 186.916,104.171L187.028,102.657C187.034,102.419 187.077,102.233 187.161,102.1C187.241,101.967 187.405,101.906 187.65,101.921C191.63,102.161 195.471,102.605 199.557,102.914C205.163,103.343 210.77,103.796 216.373,104.276C216.348,104.277 216.324,104.28 216.301,104.285C216.193,104.309 216.113,104.4 216.106,104.508L215.899,107.018Z" style="fill:white;fill-opacity:0.35;"/>
    <path d="M100.363,125.05C100.439,125.599 100.528,126.362 100.579,127.235C100.696,129.207 100.624,131.738 99.796,133.612C99.371,134.573 98.747,135.361 97.848,135.812C96.722,136.378 95.558,136.638 94.441,136.775C94.146,136.809 93.447,136.833 92.336,136.843C90.661,136.821 89.105,136.483 87.659,135.828C87.495,135.753 87.316,135.734 87.142,135.775C86.669,135.886 86.273,135.92 85.954,135.88C84.62,135.964 83.388,135.822 82.258,135.453C81.549,135.221 80.865,135.01 80.212,134.819C80.212,134.819 75.976,131.596 75.115,130.993C72.281,129.009 70.53,126.651 70.091,123.125C69.998,122.379 69.928,121.837 69.881,121.5C69.708,120.268 69.983,118.944 70.076,117.87C70.125,117.297 70.225,116.635 70.373,115.889C70.735,114.066 70.977,112.735 71.091,111.896C71.342,110.055 71.67,108.77 72.075,108.049C72.808,106.746 73.679,105.756 74.691,105.071C76.477,103.862 78.498,103.022 80.754,102.549C83.868,101.896 86.802,101.549 89.56,101.509C92.614,101.462 99.396,100.97 101.08,100.398C101.244,100.342 101.42,100.432 101.473,100.596C101.775,101.534 101.928,102.518 102.07,103.307C102.25,104.307 102.277,105.13 102.15,105.78C102.01,106.501 101.604,107.22 100.925,107.941C99.899,109.029 98.353,109.89 96.291,110.525C95.292,111.06 94.103,111.453 92.726,111.71C91.336,112.076 89.913,112.307 88.461,112.401C87.139,112.486 86.303,112.614 85.96,112.787C84.075,113.738 83.932,115.659 83.363,118.142C83.338,118.253 83.344,118.368 83.385,118.476C84.227,120.737 86.641,130.34 90.671,128.619C91.352,128.328 92.074,127.429 92.673,126.839C93.179,126.342 94.035,126.1 95.242,126.121C96.418,126.093 97.189,126.056 97.557,126.013C98.851,125.863 99.739,125.245 100.219,124.153C100.219,124.153 100.284,124.489 100.363,125.05ZM83.66,129.312L81.395,120.621C81.345,120.426 81.15,120.306 80.952,120.349C77.405,121.144 77.464,125.338 79.262,127.777C80.126,128.947 81.676,129.003 83.574,129.402C83.626,129.414 83.676,129.365 83.66,129.312ZM99.653,129.758C99.269,129.492 98.922,129.387 98.613,129.442C97.001,129.728 95.901,129.832 95.316,129.758C95.174,129.74 95.031,129.703 94.896,129.647C94.368,129.427 93.076,128.171 92.395,128.932C92.32,129.015 92.283,129.123 92.293,129.235C92.343,129.86 92.466,130.296 92.661,130.547C94.43,132.824 96.974,132.551 99.161,131.027C99.668,130.674 99.884,130.338 99.823,130.018C99.803,129.913 99.742,129.82 99.653,129.758Z" style="fill:white;fill-opacity:0.25;"/>
    <path d="M147.608,128.214C147.494,128.204 147.41,128.105 147.42,127.994L147.893,122.243C147.902,122.144 147.989,122.07 148.088,122.079L161.437,123.181C161.567,123.19 161.682,123.094 161.691,122.964L163.48,102.769L180.89,104.298L186.502,104.765C186.41,105.054 186.054,110.178 185.715,115.192C185.383,120.112 185.068,124.928 185.038,124.967C185.012,124.995 184.996,125.022 184.991,125.047C177.795,124.454 171.933,123.976 171.933,123.976C171.893,123.973 171.859,124.001 171.849,124.038L171.899,124.137C171.927,124.199 171.989,124.243 172.057,124.246L174.953,124.457C175.129,124.466 175.259,124.618 175.244,124.794L174.694,130.454L147.608,128.214Z" style="fill:white;fill-opacity:0.85;"/>
    <path d="M243.483,142.058C242.787,142.326 241.553,142.607 240.362,142.215C240.066,142.117 239.772,141.978 239.49,141.786C238.781,141.377 238.342,140.885 238.175,140.306C238.029,138.895 238.231,137.45 238.775,135.973C239.029,135.283 239.365,134.776 239.787,134.456C239.861,134.4 239.942,134.36 240.029,134.333C241.737,133.794 242.876,132.887 243.436,131.578C243.959,130.355 243.7,129.365 242.663,128.604C242.532,128.508 242.381,128.442 242.223,128.412C241.255,128.227 240.373,128.052 240.05,127.235C239.633,126.18 239.645,125.125 240.087,124.063C240.521,123.023 240.924,122.197 241.295,121.587C242.199,120.099 242.525,118.75 241.205,117.647C240.534,117.086 239.608,116.523 238.422,115.963C236.302,115.174 234.284,114.36 232.09,115.576C230.917,113.831 230.199,112.19 229.929,110.655C229.781,109.813 229.928,107.717 230.53,106.882C231.667,105.302 232.851,105.15 234.73,105.511C238.283,106.194 241.425,106.933 244.315,108.909C246.808,110.614 248.718,113.183 249.456,116.109C249.909,117.9 250.215,119.367 251.97,120.324C252.406,120.562 252.967,121.138 253.656,122.057C254.744,123.508 256.079,125.298 256.145,126.917C256.187,127.957 254.986,129.426 254.539,130.117C254.244,130.572 254.108,131.114 254.155,131.655C254.231,132.528 254.305,133.432 254.474,134.364C254.552,134.794 254.561,135.122 254.508,135.348C253.712,138.709 251.52,140.145 247.968,139.656C247.163,139.545 246.444,139.655 245.752,140.22C244.776,141.014 244.099,141.575 243.724,141.909C243.656,141.971 243.573,142.024 243.483,142.058Z" style="fill:white;fill-opacity:0.25;"/>
    <path d="M98.53,115.484C97.912,115.298 97.437,115.296 97.317,115.52C97.131,115.869 97.876,116.635 98.985,117.23C99.007,117.241 99.029,117.253 99.051,117.264C100.029,120.98 100.219,124.153 100.219,124.153C99.739,125.245 98.851,125.863 97.557,126.013C97.189,126.056 96.418,126.093 95.242,126.121C95.381,125.369 95.632,124.972 95.997,124.936C96.446,124.891 96.898,124.85 97.359,124.809C97.907,124.76 98.151,124.478 98.093,123.964C97.933,122.556 97.315,120.585 96.217,118.052C96.165,117.931 95.998,117.482 95.713,116.7C95.679,116.607 95.635,116.517 95.586,116.434L92.726,111.71C94.103,111.453 95.292,111.06 96.291,110.525C97.248,112.048 97.977,113.779 98.53,115.484ZM98.793,118.98C98.585,119.018 98.502,119.504 98.607,120.065C98.712,120.627 98.962,121.051 99.169,121.012C99.377,120.974 99.461,120.488 99.355,119.927C99.25,119.365 99,118.941 98.793,118.98Z" style="fill:white;fill-opacity:0.75;"/>
    <path d="M92.726,111.71C91.336,112.076 89.913,112.307 88.461,112.401C87.139,112.486 86.303,112.614 85.96,112.787C84.075,113.738 83.932,115.659 83.363,118.142C83.338,118.253 83.344,118.368 83.385,118.476C84.227,120.737 86.641,130.34 90.671,128.619C91.352,128.328 92.074,127.429 92.673,126.839C93.179,126.342 94.035,126.1 95.242,126.121C95.381,125.369 95.632,124.972 95.997,124.936C96.446,124.891 96.898,124.85 97.359,124.809C97.907,124.76 98.151,124.478 98.093,123.964C97.933,122.556 97.315,120.585 96.217,118.052C96.165,117.931 95.998,117.482 95.713,116.7C95.679,116.607 95.635,116.517 95.586,116.434L92.726,111.71ZM94.27,119.083C93.995,119.126 93.859,119.714 93.967,120.394C94.075,121.073 94.385,121.59 94.66,121.547C94.936,121.503 95.072,120.915 94.964,120.236C94.855,119.557 94.546,119.039 94.27,119.083ZM95.17,116.298C95.055,115.92 93.986,115.905 92.781,116.269C91.578,116.633 90.693,117.235 90.808,117.615C90.922,117.993 91.992,118.008 93.196,117.644C94.4,117.281 95.285,116.678 95.17,116.298Z" style="fill:white;fill-opacity:0.95;"/>
    <path d="M243.569,155.666C245.227,157.097 246.722,158.524 247.339,159.484C249.011,162.09 248.728,165.376 247.575,168.165C247.038,169.462 246.433,170.456 245.903,171.728C244.852,174.251 243.695,177.155 242.449,180.444C242.166,181.189 241.834,181.929 241.437,182.654C241.36,182.793 241.205,182.867 241.047,182.842L239.428,182.558C239.586,182.39 239.607,182.224 239.493,182.056C239.474,182.028 239.45,182.006 239.419,181.991C235.363,180.034 231.592,177.69 228.119,174.866C228.057,174.816 227.967,174.832 227.924,174.897L223.69,181.583L224.278,170.372L224.513,165.723L225.726,165.825C225.986,165.847 226.212,165.649 226.224,165.389L226.642,157.202C226.645,157.122 226.583,157.054 226.503,157.048L209.336,156.193L209.364,156.15C211.044,153.579 213.237,150.995 215.831,149.335C216.979,148.601 218.041,148.123 219.016,147.902C219.905,147.699 221.032,147.764 222.396,148.112C222.492,148.137 222.591,148.112 222.665,148.05C223.786,147.114 224.706,145.96 225.435,144.596C225.481,144.509 225.519,144.416 225.543,144.321C225.968,142.689 226.194,141.703 225.983,139.981C225.97,139.876 225.905,139.787 225.81,139.743C223.404,138.631 221.454,137.734 221.371,134.794C221.341,133.726 221.483,132.695 221.801,131.705C223.042,127.851 225.228,124.108 227.435,120.655C227.522,120.519 227.67,120.439 227.828,120.439L229.669,120.439C229.926,120.439 230.14,120.241 230.158,119.984C230.177,119.727 229.991,119.498 229.737,119.464L228.741,119.327C228.595,119.306 228.527,119.132 228.62,119.018C229.69,117.706 230.852,116.564 232.09,115.576C234.284,114.36 236.302,115.174 238.422,115.963C236.24,117.254 234.104,118.642 232.096,120.231C232.061,120.259 232.027,120.289 231.994,120.324C231.772,120.555 231.346,120.949 230.703,121.494C229.606,122.424 228.344,123.74 226.918,125.44C226.645,125.765 226.455,126.1 226.342,126.443C226.266,126.676 226.376,126.929 226.599,127.031C227.001,127.215 227.456,127.329 227.803,127.669C228.419,128.273 228.629,129.049 228.434,129.999C228.316,130.575 228.106,131.058 227.806,131.445C226.263,130.03 224.298,130.66 223.723,130.886C223.061,131.147 222.717,131.567 222.675,132.033C222.629,132.547 222.949,133.117 223.615,133.593C224.661,134.34 225.747,134.52 226.868,134.13C227.403,136.832 226.891,138.139 226.147,139.501C226.063,139.653 226.122,139.845 226.277,139.922C228.19,140.886 230.103,141.262 232.025,141.043C234.089,140.807 236.141,140.563 238.175,140.306C238.342,140.885 238.781,141.377 239.49,141.786C238.577,141.978 237.667,142.145 236.757,142.29C235.401,142.507 234.491,142.679 234.03,142.81C232.293,143.303 230.529,144.031 228.741,144.992C227.592,145.61 226.257,146.903 225.463,148.298C225.126,148.889 224.712,149.512 224.219,150.164C224.142,150.266 224.185,150.411 224.305,150.455C227.4,151.574 230.564,152.092 233.807,151.99C235.129,151.947 236.246,151.757 237.163,151.421C237.416,151.328 237.543,151.049 237.45,150.796L237.443,150.776C237.609,150.9 237.854,151.084 238.16,151.317C239.386,152.25 241.593,153.961 243.569,155.666ZM227.788,121.566C227.604,121.451 227.239,121.704 226.972,122.131C226.704,122.558 226.633,122.998 226.815,123.112C226.999,123.227 227.364,122.974 227.632,122.547C227.899,122.12 227.97,121.68 227.788,121.566Z" style="fill:white;fill-opacity:0.75;"/>
    <path d="M95.17,116.298C95.055,115.92 93.986,115.905 92.781,116.269C91.578,116.633 90.693,117.235 90.808,117.615C90.922,117.993 91.992,118.008 93.196,117.644C94.4,117.281 95.285,116.678 95.17,116.298Z" style="fill:white;fill-opacity:0.15;"/>
    <path d="M226.147,139.501C226.063,139.653 226.122,139.845 226.277,139.922C228.19,140.886 230.103,141.262 232.025,141.043C234.089,140.807 236.141,140.563 238.175,140.306C238.029,138.895 238.231,137.45 238.775,135.973C239.029,135.283 239.365,134.776 239.787,134.456C239.861,134.4 239.942,134.36 240.029,134.333C241.737,133.794 242.876,132.887 243.436,131.578C243.959,130.355 243.7,129.365 242.663,128.604C242.532,128.508 242.381,128.442 242.223,128.412C241.255,128.227 240.373,128.052 240.05,127.235C239.633,126.18 239.645,125.125 240.087,124.063C240.521,123.023 240.924,122.197 241.295,121.587C242.199,120.099 242.525,118.75 241.205,117.647C240.534,117.086 239.608,116.523 238.422,115.963C236.24,117.254 234.104,118.642 232.096,120.231C232.061,120.259 232.027,120.289 231.994,120.324C231.772,120.555 231.346,120.949 230.703,121.494C229.606,122.424 228.344,123.74 226.918,125.44C226.645,125.765 226.455,126.1 226.342,126.443C226.266,126.676 226.376,126.929 226.599,127.031C227.001,127.215 227.456,127.329 227.803,127.669C228.419,128.273 228.629,129.049 228.434,129.999C228.316,130.575 228.106,131.058 227.806,131.445C228.815,132.643 228.518,133.533 226.918,134.113C226.901,134.119 226.885,134.125 226.868,134.13C227.403,136.832 226.891,138.139 226.147,139.501ZM231.995,123.328C231.728,123.152 231.198,123.481 230.809,124.068C230.421,124.654 230.321,125.271 230.587,125.448C230.854,125.624 231.385,125.295 231.773,124.708C232.161,124.122 232.261,123.505 231.995,123.328ZM232.355,120.41C232.108,120.683 232.652,121.579 233.57,122.408C234.488,123.238 235.433,123.689 235.681,123.414C235.928,123.141 235.384,122.245 234.466,121.416C233.548,120.586 232.603,120.135 232.355,120.41Z" style="fill:white;fill-opacity:0.95;"/>
    <path d="M98.793,118.98C98.585,119.018 98.502,119.504 98.607,120.065C98.712,120.627 98.962,121.051 99.169,121.012C99.377,120.974 99.461,120.488 99.355,119.927C99.25,119.365 99,118.941 98.793,118.98Z" style="fill:white;fill-opacity:0.15;"/>
    <path d="M94.27,119.083C93.995,119.126 93.859,119.714 93.967,120.394C94.075,121.073 94.385,121.59 94.66,121.547C94.936,121.503 95.072,120.915 94.964,120.236C94.855,119.557 94.546,119.039 94.27,119.083Z" style="fill:white;fill-opacity:0.15;"/>
    <path d="M83.66,129.312L81.395,120.621C81.345,120.426 81.15,120.306 80.952,120.349C77.405,121.144 77.464,125.338 79.262,127.777C80.126,128.947 81.676,129.003 83.574,129.402C83.626,129.414 83.676,129.365 83.66,129.312Z" style="fill:white;fill-opacity:0.95;"/>
    <path d="M232.355,120.41C232.108,120.683 232.652,121.579 233.57,122.408C234.488,123.238 235.433,123.689 235.681,123.414C235.928,123.141 235.384,122.245 234.466,121.416C233.548,120.586 232.603,120.135 232.355,120.41Z" style="fill:white;fill-opacity:0.15;"/>
    <path d="M227.788,121.566C227.604,121.451 227.239,121.704 226.972,122.131C226.704,122.558 226.633,122.998 226.815,123.112C226.999,123.227 227.364,122.974 227.632,122.547C227.899,122.12 227.97,121.68 227.788,121.566Z" style="fill:white;fill-opacity:0.15;"/>
    <path d="M231.995,123.328C231.728,123.152 231.198,123.481 230.809,124.068C230.421,124.654 230.321,125.271 230.587,125.448C230.854,125.624 231.385,125.295 231.773,124.708C232.161,124.122 232.261,123.505 231.995,123.328Z" style="fill:white;fill-opacity:0.15;"/>
    <path d="M172.057,124.246C171.989,124.243 171.927,124.199 171.899,124.137L171.849,124.038C171.859,124.001 171.893,123.973 171.933,123.976C171.933,123.976 177.795,124.454 184.991,125.047L185.127,125.058C189.346,125.405 194.011,125.792 198.218,126.145L199.276,126.234C202.033,126.466 204.55,126.68 206.556,126.855C209.078,127.075 210.794,127.233 211.164,127.285C211.205,127.291 211.245,127.302 211.284,127.318C211.331,127.338 211.375,127.365 211.414,127.4C211.51,127.483 211.572,127.576 211.603,127.681L211.204,133.104C211.191,133.293 211.015,133.425 210.832,133.385C210.248,133.261 209.969,133.339 209.991,133.611C209.991,133.611 175.78,130.695 174.694,130.454L175.244,124.794C175.259,124.618 175.129,124.466 174.953,124.457L172.057,124.246Z" style="fill:white;fill-opacity:0.65;"/>
    <path d="M190.911,134.819L190.09,134.754C182.815,134.183 176.111,133.69 175.274,133.742L175.22,133.748L148.432,131.677L148.712,128.305L174.694,130.454C175.78,130.695 209.991,133.611 209.991,133.611L209.727,136.351L209.135,136.301C207.755,136.186 204.109,135.883 199.691,135.523L199.442,135.506C199.372,135.501 199.301,135.494 199.231,135.486C196.604,135.272 193.73,135.041 190.911,134.819Z" style="fill:white;fill-opacity:0.5;"/>
    <path d="M99.653,129.758C99.269,129.492 98.922,129.387 98.613,129.442C97.001,129.728 95.901,129.832 95.316,129.758C95.174,129.74 95.031,129.703 94.896,129.647C94.368,129.427 93.076,128.171 92.395,128.932C92.32,129.015 92.283,129.123 92.293,129.235C92.343,129.86 92.466,130.296 92.661,130.547C94.43,132.824 96.974,132.551 99.161,131.027C99.668,130.674 99.884,130.338 99.823,130.018C99.803,129.913 99.742,129.82 99.653,129.758Z" style="fill:white;fill-opacity:0.95;"/>
    <path d="M222.675,132.033C222.717,131.567 223.061,131.147 223.723,130.886C224.298,130.66 226.263,130.03 227.806,131.445C228.815,132.643 228.518,133.533 226.918,134.113L226.868,134.13C225.747,134.52 224.661,134.34 223.615,133.593C222.949,133.117 222.629,132.547 222.675,132.033Z" style="fill:white;fill-opacity:0.15;"/>
    <path d="M175.363,133.747C175.498,133.752 175.626,133.776 175.746,133.819C175.842,133.853 175.904,133.949 175.898,134.054L174.248,153.993C174.226,154.256 174.415,154.488 174.678,154.522L174.827,154.541L174.389,163.037L137.422,161.359L135.797,161.242C135.677,161.232 135.587,161.13 135.593,161.013L136.02,152.615C136.023,152.55 136.079,152.501 136.144,152.504L146.438,153.03C146.568,153.036 146.683,152.937 146.692,152.807L148.432,131.677L175.22,133.748C175.268,133.745 175.316,133.745 175.363,133.747Z" style="fill:white;fill-opacity:0.85;"/>
    <path d="M178.174,154.639L175.591,154.51C175.381,154.499 175.006,154.457 174.866,154.515C174.851,154.522 174.838,154.531 174.827,154.541L174.678,154.522C174.415,154.488 174.226,154.256 174.248,153.993L175.898,134.054C175.904,133.949 175.842,133.853 175.746,133.819C175.626,133.776 175.498,133.752 175.363,133.747C175.316,133.745 175.268,133.745 175.22,133.748L175.274,133.742C176.111,133.69 182.815,134.183 190.09,134.754L190.911,134.819C193.73,135.041 196.604,135.272 199.231,135.486C199.301,135.494 199.372,135.501 199.442,135.506L199.691,135.523C204.109,135.883 207.755,136.186 209.135,136.301L209.727,136.351L208.116,156.132L182.374,154.848C180.973,154.778 179.573,154.709 178.174,154.639Z" style="fill:white;fill-opacity:0.65;"/>
    <path d="M80.212,134.819C79.72,136.224 79.008,137.36 78.083,138.223C78.767,138.802 79.681,139.643 80.828,140.752C82.581,142.447 84.843,143.195 87.111,143.525C87.997,143.654 88.857,143.655 89.69,143.528C89.525,142.949 89.377,142.346 89.247,141.718C89.096,140.99 88.913,140.396 88.699,139.941C87.985,138.421 87.071,137.069 85.954,135.88C84.62,135.964 83.388,135.822 82.258,135.453C81.549,135.221 80.865,135.01 80.212,134.819Z" style="fill:white;fill-opacity:0.75;"/>
    <path d="M91.448,142.392C90.807,140.798 91.101,138.951 92.336,136.843C90.661,136.821 89.105,136.483 87.659,135.828C87.495,135.753 87.316,135.734 87.142,135.775C86.669,135.886 86.273,135.92 85.954,135.88C87.071,137.069 87.985,138.421 88.699,139.941C88.913,140.396 89.096,140.99 89.247,141.718C89.377,142.346 89.525,142.949 89.69,143.528C90.794,143.247 91.383,142.866 91.448,142.392Z" style="fill:white;fill-opacity:0.65;"/>
    <path d="M68.482,193.295C68.613,183.128 71.649,169.63 71.989,168.057C72.011,167.955 72.05,167.856 72.103,167.766L72.428,167.215C72.521,167.06 72.406,166.865 72.227,166.865C70.754,166.872 69.215,166.764 67.615,166.519C65.399,166.179 62.37,165.126 60.512,164.544C60.045,164.398 59.466,164.312 58.772,164.29C58.074,164.202 57.194,163.544 57.222,163.427C58.327,158.789 59.868,154.37 61.827,150.164C63.112,147.419 64.504,145.032 66.006,143.008C66.872,141.841 67.661,141.002 68.373,140.492C69.165,139.925 70.193,139.386 71.453,138.879C72.923,138.288 74.453,138.048 76.04,138.171C76.117,138.177 76.461,138.244 77.074,138.372C77.517,138.464 77.851,138.415 78.083,138.223C78.767,138.802 79.681,139.643 80.828,140.752C82.581,142.447 84.843,143.195 87.111,143.525C87.997,143.654 88.857,143.655 89.69,143.528C90.794,143.247 91.383,142.866 91.448,142.392C92.546,142.618 93.36,143.107 93.893,143.853C96.509,147.52 98.601,151.363 100.185,155.37C100.766,156.841 101.42,159.155 101.262,161.118C101.25,161.272 101.191,161.421 101.092,161.542L100.266,162.548L98.848,163.179C98.576,163.303 98.414,163.591 98.452,163.888C99.246,170.175 99.69,176.439 99.755,182.688C99.578,182.969 99.336,187.172 98.984,189.079C98.726,190.478 98.349,191.654 97.851,192.607C97.359,193.551 96.579,194.208 95.515,194.579C93.478,195.068 91.336,195.313 89.092,195.309C82.441,195.288 75.571,194.616 68.482,193.295Z" style="fill:white;fill-opacity:0.95;"/>
    <path d="M233.807,151.99C230.564,152.092 227.4,151.574 224.305,150.455C224.185,150.411 224.142,150.266 224.219,150.164C224.712,149.512 225.126,148.889 225.463,148.298C226.257,146.903 227.592,145.61 228.741,144.992C230.529,144.031 232.293,143.303 234.03,142.81C234.491,142.679 235.401,142.507 236.757,142.29C237.667,142.145 238.577,141.978 239.49,141.786C239.772,141.978 240.066,142.117 240.362,142.215C238.864,143.318 237.724,147.479 237.461,149.612C237.393,150.168 237.384,150.586 237.443,150.776L237.45,150.796C237.543,151.049 237.416,151.328 237.163,151.421C236.246,151.757 235.129,151.947 233.807,151.99Z" style="fill:white;fill-opacity:0.95;"/>
    <path d="M178.174,154.639L208.116,156.132L209.336,156.193L226.503,157.048C226.583,157.054 226.645,157.122 226.642,157.202L226.224,165.389C226.212,165.649 225.986,165.847 225.726,165.825L224.513,165.723L176.498,163.321C176.474,163.318 176.449,163.328 176.43,163.346C176.411,163.365 176.395,163.384 176.382,163.403L176.395,163.128L174.389,163.037L174.827,154.541C174.838,154.531 174.851,154.522 174.866,154.515C175.006,154.457 175.381,154.499 175.591,154.51L178.174,154.639Z" style="fill:white;fill-opacity:0.5;"/>
    <path d="M176.164,167.98C176.156,167.975 176.008,167.964 175.734,167.947C172.284,167.732 148.924,166.605 137.172,166.017L137.422,161.359L176.395,163.128L176.171,167.98L176.164,167.98Z" style="fill:white;fill-opacity:0.5;"/>
    <path d="M99.755,182.688C99.755,182.688 104.32,183.371 106.019,183.362C107.923,183.352 110.585,183.336 114.011,183.291C114.228,183.288 114.447,183.314 114.658,183.369C115.675,183.633 116.506,183.941 117.146,184.309C118.703,185.204 120.071,185.891 121.254,186.377C122.637,186.946 124.042,187.149 125.466,186.937C125.562,186.923 125.655,186.894 125.741,186.847C126.482,186.447 127.097,185.798 127.589,184.904C128.375,183.477 128.916,182.153 129.205,180.923C129.261,180.685 129.246,180.344 129.162,179.902C129.14,179.791 129.038,179.713 128.923,179.722L124.107,180.147C124.067,180.15 124.027,180.147 123.987,180.137L122.213,179.738C122.185,179.735 122.163,179.723 122.142,179.707C121.81,179.469 121.549,179.129 121.365,178.679C121.324,178.581 121.341,178.469 121.405,178.385C121.889,177.754 122.257,177.353 122.519,177.191C123.165,176.791 124.195,176.308 124.117,175.634C124.092,175.426 123.903,175.275 123.696,175.296C122.244,175.445 120.619,175.797 118.818,176.367C118.115,176.59 117.535,176.991 117.081,177.574C116.892,177.818 116.565,177.911 116.273,177.804C115.361,177.467 114.531,177.506 113.568,177.302C109.849,176.516 106.153,175.147 102.488,173.176C102.138,172.988 101.925,172.641 101.847,172.136C101.356,168.945 100.829,165.751 100.266,162.548L98.848,163.179C98.576,163.303 98.414,163.591 98.452,163.888C99.246,170.175 99.69,176.439 99.755,182.688Z" style="fill:white;fill-opacity:0.75;"/>
    <path d="M224.278,170.372L176.171,167.98L176.382,163.403C176.395,163.384 176.411,163.365 176.43,163.346C176.449,163.328 176.474,163.318 176.498,163.321L224.513,165.723L224.278,170.372Z" style="fill:white;fill-opacity:0.35;"/>
    <path d="M176.154,168.196C175.832,175.149 175.483,182.091 175.121,189.017C175.012,191.103 174.87,193.257 174.697,195.483C174.53,197.631 174.363,199.785 174.199,201.945L135.717,200.017C135.581,200.011 135.476,199.893 135.482,199.757L137.172,166.017C148.924,166.605 172.284,167.732 175.734,167.947C176.008,167.964 176.156,167.975 176.164,167.98L176.154,168.196Z" style="fill:white;fill-opacity:0.85;"/>
    <path d="M176.154,168.196L176.164,167.98L224.278,170.372L223.69,181.583L221.913,184.204C221.842,184.309 221.73,184.374 221.606,184.387L199.303,186.457C199.062,186.479 198.827,186.383 198.672,186.201C197.03,184.281 195.016,183.485 192.243,183.508C191.893,183.511 189.622,183.402 185.428,183.195C185.044,183.176 184.738,183.514 184.796,183.895C184.99,185.163 187.913,185.826 188.962,185.931C189.3,185.965 189.641,186.112 189.903,186.3C189.993,186.364 189.984,186.502 189.885,186.557C187.559,187.837 185.143,188.24 182.487,188.599C181.252,188.766 180.385,188.834 179.891,189.915C179.841,190.023 179.82,190.147 179.835,190.268C179.967,191.31 180.513,192.347 181.481,193.378C184.153,196.222 187.35,197.256 191.07,196.476C193.639,195.938 196.281,195.017 198.994,193.697C199.133,193.629 199.291,193.613 199.439,193.651C202.311,194.378 205.397,194.993 208.7,195.47C211.099,195.817 212.891,195.987 214.07,195.984C215.596,195.981 216.831,196.1 218.196,196.083C219.774,196.063 221.371,196.028 222.987,195.981L222.529,204.149C222.523,204.254 222.43,204.337 222.325,204.332C213.416,203.852 204.498,203.403 195.573,202.954C195.44,202.948 195.258,203.004 195.026,203.122C194.936,203.004 194.849,202.945 194.759,202.942C187.841,202.685 180.989,202.332 174.199,201.945C174.363,199.785 174.53,197.631 174.697,195.483C174.87,193.257 175.012,191.103 175.121,189.017C175.483,182.091 175.832,175.149 176.154,168.196Z" style="fill:white;fill-opacity:0.5;"/>
    <path d="M234.089,188.841L239.428,182.558C239.586,182.39 239.607,182.224 239.493,182.056C239.474,182.028 239.45,182.006 239.419,181.991C235.363,180.034 231.592,177.69 228.119,174.866C228.057,174.816 227.967,174.832 227.924,174.897L223.69,181.583L221.913,184.204C221.842,184.309 221.73,184.374 221.606,184.387L199.303,186.457C199.062,186.479 198.827,186.383 198.672,186.201C197.03,184.281 195.016,183.485 192.243,183.508C191.893,183.511 189.622,183.402 185.428,183.195C185.044,183.176 184.738,183.514 184.796,183.895C184.99,185.163 187.913,185.826 188.962,185.931C189.3,185.965 189.641,186.112 189.903,186.3C189.993,186.364 189.984,186.502 189.885,186.557C187.559,187.837 185.143,188.24 182.487,188.599C181.252,188.766 180.385,188.834 179.891,189.915C179.841,190.023 179.82,190.147 179.835,190.268C179.967,191.31 180.513,192.347 181.481,193.378C184.153,196.222 187.35,197.256 191.07,196.476C193.639,195.938 196.281,195.017 198.994,193.697C199.133,193.629 199.291,193.613 199.439,193.651C202.311,194.378 205.397,194.993 208.7,195.47C211.099,195.817 212.891,195.987 214.07,195.984C215.596,195.981 216.831,196.1 218.196,196.083C219.774,196.063 221.371,196.028 222.987,195.981C223.699,195.941 224.442,195.901 225.212,195.864C226.518,195.8 227.509,195.307 228.589,194.335C229.809,193.236 230.505,192.598 230.675,192.422C231.807,191.245 232.944,190.048 234.089,188.841Z" style="fill:white;fill-opacity:0.95;"/>
    <path d="M195.026,203.122C194.032,207.108 193.476,211.141 193.364,215.223C193.313,217.056 193.398,219.461 193.617,222.438C193.837,225.425 193.992,227.827 194.075,229.644C194.134,230.913 194.294,232.188 194.345,233.46C194.39,234.602 194.619,238.263 195.023,244.448C195.147,246.354 195.267,247.899 195.385,249.084C195.542,250.666 195.717,252.211 195.765,253.724C195.765,253.727 195.778,253.866 195.806,254.148C196.591,262.301 196.984,266.705 197.044,267.345C197.245,269.509 197.445,271.715 197.626,273.963C197.66,274.393 197.693,274.814 197.725,275.229C197.82,276.504 197.942,277.875 198.09,279.342C198.096,279.404 198.13,279.456 198.18,279.49L199.854,280.592C199.9,280.623 199.929,280.67 199.938,280.722C200.008,281.158 199.934,281.561 199.727,281.933C199.149,282.974 197.926,285.32 196.74,285.798C194.974,286.512 193.946,286.935 193.664,287.067C192.714,287.514 191.053,288.763 190.485,289.977C190.091,290.818 189.885,291.348 189.866,291.568C189.8,292.335 190.027,293.152 190.553,294.016L197.44,291.589C197.644,291.518 197.836,291.413 198.006,291.277L203.584,286.82C203.72,286.711 203.803,286.55 203.813,286.374L204.042,281.843C204.048,281.75 204.128,281.685 204.221,281.697L205.62,281.889C205.747,281.908 205.862,281.803 205.852,281.673L204.184,251.412C204.178,251.322 204.181,251.229 204.193,251.136L208.941,216.796C208.947,216.743 208.994,216.704 209.047,216.703C209.099,216.701 209.145,216.737 209.155,216.79C209.237,217.242 209.253,217.709 209.192,218.192C209.183,218.263 209.183,218.337 209.189,218.408C209.254,219.154 209.365,221.076 209.526,224.178C209.956,232.451 210.413,240.659 210.891,248.802C210.956,249.914 211.127,250.99 211.402,252.037C211.865,253.801 212.33,255.51 212.804,257.159C215.187,266.123 217.236,275.09 219.827,283.821C219.83,283.83 219.857,284.034 219.907,284.427C219.953,284.789 220.173,284.997 220.567,285.046C221.291,285.137 221.755,285.207 221.959,285.266C225.33,285.678 229.304,285.21 232.343,283.502L234.293,282.357C232.328,274.894 230.362,267.438 228.394,259.982C227.035,254.835 226.073,251.238 225.506,249.186C225.383,248.737 225.304,248.372 225.271,248.091C223.701,234.832 222.354,222.134 221.117,210.008C221.105,209.887 221.018,209.789 220.901,209.761C220.037,209.555 219.155,209.386 218.177,209.002C215.986,208.144 214.009,207.301 212.262,206.44C212.238,206.427 212.226,206.396 212.234,206.371C212.244,206.344 212.272,206.328 212.299,206.334C213.116,206.513 214.262,206.74 215.738,207.028C216.834,207.241 217.994,207.369 219.22,207.411C222.693,207.532 226.11,207.322 229.471,206.786C230.511,206.498 231.42,206.266 231.529,205.195C231.775,202.79 231.966,201.175 232.099,200.345C232.535,197.631 232.843,195.31 233.024,193.378C233.121,192.354 233.473,190.84 234.089,188.841C232.944,190.048 231.807,191.245 230.675,192.422C230.505,192.598 229.809,193.236 228.589,194.335C227.509,195.307 226.518,195.8 225.212,195.864C224.442,195.901 223.699,195.941 222.987,195.981L222.529,204.149C222.523,204.254 222.43,204.337 222.325,204.332C213.416,203.852 204.498,203.403 195.573,202.954C195.44,202.948 195.258,203.004 195.026,203.122Z" style="fill:white;fill-opacity:0.75;"/>
    <path d="M68.482,193.295C75.571,194.616 82.441,195.288 89.092,195.309L93.868,204.852L111.56,239.539C111.622,239.659 111.664,239.789 111.687,239.923C112.313,243.697 112.761,246.357 112.996,247.902L117.778,279.345C117.849,279.815 117.707,280.131 117.357,280.292C114.259,281.252 111.145,282.375 108.022,283.663C107.765,283.486 107.489,283.488 107.189,283.672C106.758,283.937 106.4,284.038 106.118,283.972C106.013,283.948 105.92,283.892 105.852,283.811C105.573,283.48 105.592,282.901 105.481,282.508C102.809,273.081 100.072,263.322 97.266,253.228C96.746,251.356 96.338,249.873 95.196,248.412C94.15,247.075 92.885,245.43 91.404,243.473C90.503,242.282 89.563,241.127 88.578,240.003C88.114,239.44 87.594,238.898 87.182,238.332C85.982,236.681 84.876,235.224 83.865,233.958C83.152,233.067 82.73,232.313 82.088,231.535C81.703,231.068 81.271,230.514 80.785,229.873C79.413,228.063 75.42,222.553 72.539,218.617C71.042,216.571 69.846,214.95 69.475,214.496C69.992,214.468 70.549,214.455 71.153,214.465C71.698,214.474 72.431,214.257 73.35,213.812C73.44,213.769 73.502,213.682 73.508,213.58C73.535,213.15 73.441,212.79 73.22,212.497C72.217,211.158 71.376,209.717 70.698,208.173C70.361,207.405 70.378,206.717 70.754,206.108C70.809,206.018 70.886,205.941 70.98,205.889C71.266,205.729 71.599,205.776 71.967,206.031C71.998,206.053 72.023,206.077 72.044,206.111L73.539,208.473C73.567,208.513 73.601,208.55 73.644,208.578C74.198,208.932 74.458,208.69 74.421,207.854C74.362,206.523 73.803,204.501 72.874,203.27C72.769,203.131 72.637,203.01 72.481,202.927L70.72,201.914C69.226,201.055 68.84,199.563 68.649,197.693C68.511,196.342 68.462,194.858 68.482,193.295Z" style="fill:white;fill-opacity:0.65;"/>
    <path d="M94.889,198.848L94.788,199.513L94.672,200.273L94.474,201.549L94.338,202.395C94.279,202.755 94.223,203.091 94.171,203.392C94.033,204.192 93.923,204.745 93.868,204.852L89.092,195.309C91.336,195.313 93.478,195.068 95.515,194.579C95.515,194.579 95.227,196.598 94.889,198.848Z" style="fill:white;fill-opacity:0.5;"/>
    <path d="M234.317,276.251L234.677,278.034C235.031,279.786 235.271,280.962 235.333,281.233C235.367,281.382 235.315,281.536 235.197,281.632L234.293,282.357C232.328,274.894 230.362,267.438 228.394,259.982C227.035,254.835 226.073,251.238 225.506,249.186C225.383,248.737 225.304,248.372 225.271,248.091C223.701,234.832 222.354,222.134 221.117,210.008C221.105,209.887 221.018,209.789 220.901,209.761C220.037,209.555 219.155,209.386 218.177,209.002C215.986,208.144 214.009,207.301 212.262,206.44C212.238,206.427 212.226,206.396 212.234,206.371C212.244,206.344 212.272,206.328 212.299,206.334C213.116,206.513 214.262,206.74 215.738,207.028C216.834,207.241 217.994,207.369 219.22,207.411C222.693,207.532 226.11,207.322 229.471,206.786C229.487,207.978 229.471,209.179 229.428,210.383C229.411,210.876 229.385,211.916 229.354,213.347C229.307,215.462 229.249,218.432 229.187,221.759L229.171,222.611C229.118,225.457 229.064,228.528 229.012,231.525L228.917,237.29L228.85,241.578C228.798,245.122 228.767,247.715 228.775,248.388C228.781,248.815 228.827,249.127 228.914,249.322C228.942,249.388 231.153,260.469 232.975,269.566C232.986,269.631 232.999,269.696 233.014,269.761L234.171,275.527L234.317,276.251Z" style="fill:white;fill-opacity:0.4;"/>
    <path d="M212.32,264.159C211.938,270.983 211.504,280.255 211.504,280.255C211.498,280.366 211.436,280.465 211.34,280.518L210.182,281.187C209.848,281.379 209.641,281.738 209.641,282.124L209.641,284.303C209.641,284.35 209.647,284.393 209.656,284.44C209.901,285.653 210.002,287.033 209.95,288.578C209.919,289.503 209.511,290.144 208.728,290.503C207.976,290.847 207.097,291.087 206.097,291.218C205.93,291.24 205.766,291.287 205.614,291.357C202.253,292.917 198.858,294.079 195.443,294.889C194.868,295.025 194.261,295.099 193.624,295.115C192.228,295.149 191.234,295.282 190.553,294.016L197.44,291.589C197.644,291.518 197.836,291.413 198.006,291.277L203.584,286.82C203.72,286.711 203.803,286.55 203.813,286.374L204.042,281.843C204.048,281.75 204.128,281.685 204.221,281.697L205.62,281.889C205.747,281.908 205.862,281.803 205.852,281.673L204.184,251.412C204.178,251.322 204.181,251.229 204.193,251.136L208.941,216.796C208.947,216.743 208.994,216.704 209.047,216.703C209.099,216.701 209.145,216.737 209.155,216.79C209.237,217.242 209.253,217.709 209.192,218.192C209.183,218.263 209.183,218.337 209.189,218.408C209.254,219.154 209.365,221.076 209.526,224.178C209.956,232.451 210.413,240.659 210.891,248.802C210.956,249.914 211.127,250.99 211.402,252.037C211.865,253.801 212.33,255.51 212.804,257.159C212.735,257.563 212.628,259.01 212.505,260.997C212.465,261.647 212.423,262.355 212.38,263.103L212.32,264.159Z" style="fill:white;fill-opacity:0.4;"/>
    <path d="M87.395,245.046C87.336,245.649 87.301,246.062 87.282,246.082L85.514,247.917C84.289,244.361 83.318,241.81 82.599,240.269C81.65,238.235 80.686,236.205 79.714,234.184C78.25,231.139 75.734,226.756 72.165,221.033L72.539,218.617C75.42,222.553 79.413,228.063 80.785,229.873C81.271,230.514 81.703,231.068 82.088,231.535C82.73,232.313 83.152,233.067 83.865,233.958C84.876,235.224 85.982,236.681 87.182,238.332C87.594,238.898 88.114,239.44 88.578,240.003C88.365,240.128 88.186,240.507 88.035,241.017C87.773,241.902 87.597,243.183 87.48,244.236C87.447,244.528 87.419,244.803 87.395,245.046Z" style="fill:white;fill-opacity:0.5;"/>
    <path d="M57.568,274.925C57.568,274.91 57.612,274.873 57.701,274.817C57.795,274.758 57.915,274.77 57.989,274.845L58.58,275.427C58.636,275.482 58.729,275.479 58.785,275.424C58.785,275.424 83.809,249.629 85.514,247.917C84.289,244.361 83.318,241.81 82.599,240.269C81.65,238.235 80.686,236.205 79.714,234.184C78.25,231.139 75.734,226.756 72.165,221.033C72.038,222.342 71.915,223.537 71.787,224.623C71.686,225.484 71.635,226.264 71.633,226.963C71.629,227.876 71.289,232.222 71.088,233.537C70.924,234.611 70.549,235.391 69.949,236.28C67.269,240.242 64.013,245.42 62.097,248.347C54.251,260.335 49.912,266.994 49.06,268.311C49.008,268.392 49.019,268.5 49.094,268.565C49.162,268.624 49.296,268.687 49.49,268.76C49.596,268.799 49.658,268.877 49.673,268.992C49.689,269.119 49.642,269.205 49.53,269.249L52.335,271.539L52.4,271.586L57.568,274.925Z" style="fill:white;fill-opacity:0.6;"/>
    <path d="M49.53,269.249C49.007,269.93 48.459,270.518 47.893,271.013L46.225,272.468C44.807,273.867 42.847,275.357 44.461,277.281C44.489,277.314 44.522,277.346 44.563,277.37L62.041,288.884C62.121,288.937 62.214,288.971 62.313,288.983C64.417,289.24 65.409,288.377 64.938,286.173C64.927,286.124 64.907,286.074 64.876,286.034L57.175,275.566C57.126,275.501 57.126,275.411 57.169,275.343C57.247,275.22 57.38,275.08 57.568,274.925L52.4,271.586L52.335,271.539L49.53,269.249Z" style="fill:white;fill-opacity:0.95;"/>
    <path d="M108.022,283.663L108.263,284.046C108.322,284.136 108.35,284.245 108.347,284.35C108.293,286.247 108.379,287.804 108.601,289.017C108.791,290.057 109.405,290.624 110.448,290.676C110.529,290.68 110.609,290.673 110.69,290.655C123.527,287.67 129.988,286.136 130.09,286.12C131.199,285.948 131.705,285.455 132.195,284.492C132.55,283.793 132.102,283.016 131.656,282.536C131.421,282.282 130.926,282.097 130.171,281.976C128.768,281.751 127.363,281.548 125.955,281.369C123.12,281.009 120.254,280.651 117.357,280.292C114.259,281.252 111.145,282.375 108.022,283.663Z" style="fill:white;fill-opacity:0.95;"/>
    <path d="M222.429,293.576C222.129,290.614 221.829,287.184 221.836,287.234C224.29,288.525 226.82,288.617 229.428,287.504C229.92,287.294 231.019,286.645 232.731,285.558C233.26,287.187 232.792,290.655 233.054,292.737C233.331,294.942 233.054,299.956 227.76,300C222.467,300.043 222.73,296.538 222.429,293.576Z" style="fill:white;fill-opacity:0.75;"/>
    <path d="M221.959,285.266C221.777,285.842 221.733,286.498 221.836,287.234C224.29,288.525 226.82,288.617 229.428,287.504C229.92,287.294 231.022,286.643 232.737,285.554C232.504,285.074 232.374,284.39 232.343,283.502C229.304,285.21 225.33,285.678 221.959,285.266Z" style="fill:white;fill-opacity:0.4;"/>
    <path d="M101.332,117.673C101.519,117.325 100.773,116.558 99.664,115.964C98.556,115.37 97.505,115.17 97.317,115.52C97.131,115.869 97.876,116.635 98.985,117.23C100.094,117.824 101.145,118.023 101.332,117.673Z" style="fill:white;fill-opacity:0.15;"/>
    <path d="M68.482,193.295C68.462,194.858 68.511,196.342 68.649,197.693C68.84,199.563 69.226,201.055 70.72,201.914L72.481,202.927C72.637,203.01 72.769,203.131 72.874,203.27C73.803,204.501 74.362,206.523 74.421,207.854C74.458,208.69 74.198,208.932 73.644,208.578C73.601,208.55 73.567,208.513 73.539,208.473L72.044,206.111C72.023,206.077 71.998,206.053 71.967,206.031C71.599,205.776 71.266,205.729 70.98,205.889C70.886,205.941 70.809,206.018 70.754,206.108C70.378,206.717 70.361,207.405 70.698,208.173C71.376,209.717 72.217,211.158 73.22,212.497C73.441,212.79 73.535,213.15 73.508,213.58C73.502,213.682 73.44,213.769 73.35,213.812C72.431,214.257 71.698,214.474 71.153,214.465C70.549,214.455 69.992,214.468 69.475,214.496L68.021,214.505C67.909,214.509 67.795,214.492 67.689,214.465C66.203,214.08 65.075,213.697 64.542,212.203C63.742,209.961 63.905,207.58 63.786,205.759C63.767,205.452 63.715,205.146 63.647,204.846L62.462,199.562C62.437,199.454 62.4,199.351 62.353,199.256C60.603,195.697 59.43,193.112 58.714,189.503C58.198,186.906 57.893,184.768 57.797,183.087C57.655,180.586 57.414,177.763 57.593,174.99C57.683,173.594 57.751,172.427 57.797,171.483C57.807,171.298 57.834,170.96 57.881,170.471C58.078,168.404 58.376,166.342 58.772,164.29C59.466,164.312 60.045,164.398 60.512,164.544C62.37,165.126 65.399,166.179 67.615,166.519C69.215,166.764 70.754,166.872 72.227,166.865C72.406,166.865 72.521,167.06 72.428,167.215L72.103,167.766C72.05,167.856 72.011,167.955 71.989,168.057C71.649,169.63 68.613,183.128 68.482,193.295Z" style="fill:white;fill-opacity:0.75;"/>
</svg>
