<?xml version="1.0" encoding="UTF-8" standalone="no"?>
<!DOCTYPE svg PUBLIC "-//W3C//DTD SVG 1.1//EN" "http://www.w3.org/Graphics/SVG/1.1/DTD/svg11.dtd">
<svg width="100%" height="100%" viewBox="0 0 300 300" version="1.1" xmlns="http://www.w3.org/2000/svg" xmlns:xlink="http://www.w3.org/1999/xlink" xml:space="preserve" xmlns:serif="http://www.serif.com/" style="fill-rule:evenodd;clip-rule:evenodd;stroke-linejoin:round;stroke-miterlimit:2;">
    <path d="M76.689,42.966C77.406,40.835 77.89,39.513 78.148,39.003C79.859,35.62 80.897,33.604 81.263,32.954C83.496,28.995 85.987,25.434 88.739,22.274C90.147,20.656 92.08,18.685 94.536,16.363C95.38,15.563 96.39,14.729 97.572,13.856C98.677,13.037 100.33,11.719 101.811,10.75C111.274,4.565 121.531,1.045 132.58,0.188C138.706,-0.287 144.882,0.137 151.112,1.459C163.502,4.087 175.113,10.578 183.897,19.707C195.004,31.247 201.324,46.326 201.91,62.465C201.977,64.373 201.923,66.574 201.747,69.075C201.572,71.524 201.314,73.709 200.97,75.63C198.922,87.03 194.147,97.194 186.646,106.125C186.56,106.227 186.519,106.358 186.528,106.491L188.15,127.708L169.71,120.341C169.624,120.306 169.525,120.315 169.443,120.363C166.955,121.814 164.379,123.082 161.69,124.131C160.209,124.709 158.374,125.421 156.737,125.896C154.867,126.437 153.593,126.79 152.908,126.956C145.154,128.837 137.492,129.31 129.918,128.358C116.536,126.679 104.844,121.449 94.839,112.668C80.435,100.022 72.386,81.315 73.151,62.08C73.249,59.545 73.393,57.691 73.574,56.522C74.202,52.48 74.654,49.97 74.931,48.989C75.5,46.979 76.087,44.969 76.689,42.966ZM173.463,80.637L170.293,81.733C170.265,81.742 170.239,81.761 170.223,81.787C170.086,81.975 170.137,82.357 170.376,82.934C170.526,83.306 171.134,84.826 172.198,87.495C172.297,87.746 172.584,87.867 172.835,87.769L173.103,87.66C173.389,87.546 173.53,87.221 173.415,86.931L171.73,82.727C171.682,82.606 171.739,82.469 171.86,82.421L173.893,81.605C174.02,81.554 174.081,81.411 174.03,81.284L173.842,80.812C173.781,80.663 173.616,80.586 173.463,80.637ZM182.525,92.097L181.735,92.413C181.614,92.464 181.553,92.601 181.601,92.722L182.783,95.703C182.875,95.939 183.149,96.05 183.381,95.945L183.432,95.923C183.729,95.799 183.872,95.461 183.757,95.158L182.703,92.419C182.642,92.263 182.697,92.085 182.837,91.986L183.525,91.502C183.608,91.444 183.639,91.336 183.601,91.244L180.031,82.328C179.989,82.223 179.871,82.172 179.766,82.214L179.164,82.456C179.04,82.504 178.979,82.647 179.027,82.771L182.649,91.808C182.693,91.922 182.639,92.053 182.525,92.097ZM176.285,81.978C176.454,81.93 176.597,81.879 176.712,81.819C176.899,81.717 176.966,81.462 176.861,81.239C176.517,80.5 175.173,81.153 174.698,81.411C174.479,81.529 174.383,81.793 174.476,82.026L176.45,86.953C176.568,87.25 176.903,87.39 177.196,87.272L177.39,87.195C177.693,87.074 177.839,86.73 177.718,86.428L176.09,82.367C176.027,82.204 176.116,82.023 176.285,81.978ZM101.5,42.58C101.442,42.465 101.302,42.418 101.187,42.477L90.238,47.984C90.121,48.043 90.077,48.18 90.134,48.296L90.14,48.307C90.198,48.422 90.338,48.47 90.452,48.411L101.402,42.903C101.518,42.844 101.563,42.708 101.505,42.591L101.5,42.58ZM96.211,49.381C96.161,49.279 96.04,49.24 95.938,49.29L84.976,54.803C84.875,54.853 84.834,54.977 84.886,55.077L84.892,55.088C84.942,55.19 85.063,55.229 85.165,55.179L96.127,49.666C96.228,49.616 96.269,49.492 96.217,49.392L96.211,49.381ZM178.494,81.681C178.403,81.487 178.174,81.405 177.982,81.496L177.526,81.709C177.333,81.8 177.25,82.029 177.34,82.222L177.503,82.568C177.594,82.762 177.823,82.844 178.015,82.753L178.471,82.54C178.664,82.449 178.747,82.22 178.656,82.027L178.494,81.681ZM184.382,100.15L182.958,96.592C182.875,96.388 182.668,96.27 182.451,96.299L182.311,96.318C181.983,96.337 181.773,96.671 181.897,96.974L182.948,99.519C182.974,99.586 182.942,99.662 182.875,99.688L172.045,104.026C171.905,104.083 171.743,104.01 171.695,103.864L170.985,101.749C170.914,101.538 170.682,101.433 170.478,101.516L170.153,101.647C169.857,101.765 169.714,102.099 169.831,102.392L170.94,105.16C171.035,105.399 171.309,105.514 171.551,105.418L184.318,100.306C184.378,100.28 184.407,100.21 184.382,100.15ZM99.142,101.739L99.228,103.679C99.231,103.774 99.288,103.861 99.371,103.902C99.995,104.212 100.563,104.347 101.072,104.316C104.413,104.111 107.458,104.151 110.618,103.892C111.255,103.84 113.084,103.79 116.106,103.736C119.862,103.669 124.003,103.269 127.764,103.233C130.055,103.211 132.115,103.149 133.944,103.048C135.973,102.936 139.881,102.782 145.675,102.586C149.054,102.472 152.357,102.201 155.695,101.943C159.113,101.659 162.518,101.596 165.91,101.749L167.28,101.755C167.385,101.758 167.489,101.801 167.564,101.879C168.077,102.411 168.627,102.404 169.242,101.828C169.478,101.608 169.449,101.214 169.179,100.987C168.764,100.641 168.198,100.997 167.767,101.236C167.589,101.335 167.366,101.255 167.29,101.064L166.471,99.025C166.369,98.77 166.041,98.694 165.84,98.882C165.63,99.079 165.414,99.193 165.194,99.22C165.111,99.23 165.031,99.181 165,99.105L164.229,97.178C164.181,97.06 164.079,96.978 163.958,96.958C163.725,96.921 163.425,96.978 163.053,97.143C162.954,97.187 162.837,97.14 162.795,97.038L161.808,94.572C161.763,94.458 161.636,94.4 161.521,94.439L160.814,94.674C160.636,94.735 160.445,94.646 160.378,94.474L159.416,92.075C159.343,91.894 159.463,91.692 159.658,91.671C159.967,91.637 160.364,91.485 160.859,91.215C161.046,91.113 161.283,91.18 161.391,91.365C161.56,91.654 161.67,91.929 161.728,92.183C161.761,92.327 161.916,92.406 162.053,92.352L162.913,92.008C163.082,91.941 163.27,92.059 163.276,92.244C163.286,92.543 163.358,92.774 163.493,92.935C163.562,93.018 163.678,93.05 163.78,93.015L164.525,92.766C164.646,92.725 164.78,92.77 164.85,92.878L165.439,93.773C165.503,93.868 165.633,93.897 165.729,93.833L166.452,93.359C166.544,93.298 166.583,93.18 166.541,93.075L159.98,76.697C159.935,76.585 159.989,76.461 160.097,76.417L162.48,75.464C162.563,75.432 162.655,75.471 162.687,75.553L167.704,88.183C167.834,88.514 168.22,88.67 168.548,88.524L168.573,88.514C168.895,88.377 169.048,88.011 168.917,87.686L167.15,83.29C167.083,83.128 167.162,82.943 167.325,82.876L169.593,81.946C169.819,81.854 169.927,81.596 169.835,81.37L169.806,81.293C169.704,81.007 169.386,80.866 169.105,80.978L166.735,81.927C166.614,81.975 166.474,81.914 166.43,81.79L165.149,78.337C166.573,77.449 167.688,75.977 168.487,73.923C169.118,72.301 169.462,70.903 169.523,69.728C169.551,69.17 169.592,68.797 169.653,68.616C169.684,68.524 169.694,68.425 169.679,68.326C169.364,66.299 169.276,64.38 168.538,62.641C167.438,60.045 165.744,57.875 163.436,56.152C163.14,55.932 162.694,55.668 162.095,55.362C161.607,55.114 161.155,54.85 160.744,54.569L160.152,48.419C160.142,48.345 159.305,46.854 158.362,46.539C157.636,46.297 151.074,46.578 146.907,46.756C146.887,46.755 146.869,46.756 146.853,46.759L154.075,42.3L153.972,42.225C154.144,42.094 154.23,41.968 154.23,41.848C154.23,41.798 154.215,41.749 154.186,41.701C154.144,41.632 154.093,41.562 154.035,41.492C153.757,40.99 153.263,40.1 153.089,39.818L153.074,39.793C148.338,32.314 143.597,24.769 138.807,17.184C138.725,17.054 138.607,17.001 138.454,17.031C138.285,17.065 138.142,17.181 138.024,17.379C137.849,17.49 137.705,17.637 137.594,17.818C137.272,17.828 136.992,17.907 136.759,18.057C132.509,20.805 128.312,23.498 124.133,26.062C123.825,26.251 123.515,26.444 123.209,26.638C116.934,30.62 111.384,34.15 106.564,37.232C104.924,38.281 103.898,38.965 103.487,39.283L103.19,39.475C103.025,39.58 102.862,39.628 102.7,39.615C102.394,39.59 102.197,39.927 102.362,40.185C103.018,41.204 105.138,44.58 107.601,48.513L103.181,48.919C103.044,48.929 102.911,48.96 102.786,49.012C101.291,49.428 100.848,50.296 100.789,50.384C100.295,51.142 100.032,52.254 99.992,53.716C99.986,53.948 100.241,54.098 100.438,53.974C101.996,53.008 105.175,51.183 105.503,51.795C105.795,52.34 103.99,53.187 102.964,53.623L100.693,54.888C100.266,55.127 100.034,55.604 100.107,56.089C100.107,56.089 100.506,59.683 100.592,59.641L107.589,56.531C107.675,56.493 107.781,56.525 107.815,56.611C107.964,56.98 104.802,58.61 102.685,59.653C101.631,60.171 100.837,60.545 100.837,60.545C100.719,60.612 100.633,60.723 100.594,60.854L100.359,61.707C100.343,61.765 100.336,61.822 100.346,61.879L101.795,86.227C101.808,86.319 101.846,86.409 101.907,86.485L103.321,88.256C102.703,89.151 102.241,90.212 101.935,91.432L101.435,93.435C100.629,96.2 99.865,98.968 99.142,101.739Z" style="fill:white;fill-opacity:0.95;"/>
    <path d="M102.964,53.623C103.99,53.187 105.795,52.34 105.503,51.795L109.569,51.657C112.686,56.638 115.88,61.753 117.138,63.775C117.384,64.169 117.693,64.357 118.069,64.332C118.282,64.318 118.626,64.166 119.094,63.876C127.29,58.841 135.45,53.818 143.576,48.81C146.769,48.675 153.358,48.371 154.24,48.396C155.926,48.444 157.516,49.695 157.846,51.113C157.951,51.569 158.037,52.445 158.107,53.741C156.224,53.381 154.969,53.257 154.339,53.362C152.829,53.614 151.167,53.698 149.895,54.174C146.816,55.328 144.385,57.203 142.598,59.806C140.311,63.137 139.503,66.855 140.183,70.954C140.466,72.658 141.26,74.732 142.165,76.101C145.949,81.831 152.488,84.52 159.304,82.52C158.769,83.446 157.995,83.943 156.979,84.01L153.937,84.208C146.239,84.701 138.518,85.189 130.781,85.67C127.143,85.896 123.487,86.116 119.814,86.329C116.192,86.539 112.542,86.737 108.87,86.928C107.608,86.994 106.735,86.913 106.255,86.686C105.435,86.299 104.85,85.654 104.496,84.759C104.221,84.062 103.015,61.513 102.685,59.653C104.802,58.61 107.964,56.98 107.815,56.611C107.781,56.525 107.675,56.493 107.589,56.531L102.65,58.727C102.59,57.477 102.561,56.493 102.631,55.577C102.682,54.915 102.785,54.289 102.964,53.623Z" style="fill:white;fill-opacity:0.25;"/>
    <path d="M153.089,39.818C153.263,40.1 153.757,40.99 154.035,41.492L154.101,41.614C153.491,41.062 149.868,38.445 148.051,38.051C146.981,37.818 146.21,37.659 145.742,37.573C141.302,36.761 136.457,35.984 131.208,35.235C131.029,35.21 130.922,35.022 130.994,34.856C133.143,29.916 135.466,24.215 138.075,17.802C138.173,17.56 138.155,17.42 138.024,17.379C138.142,17.181 138.285,17.065 138.454,17.031C138.607,17.001 138.725,17.054 138.807,17.184C143.597,24.769 148.338,32.314 153.074,39.793L153.089,39.818Z" style="fill:white;fill-opacity:0.75;"/>
    <path d="M148.051,38.051C149.868,38.445 153.491,41.062 154.101,41.614C154.147,41.655 154.176,41.685 154.186,41.701C154.215,41.749 154.23,41.798 154.23,41.848C154.23,41.968 154.144,42.094 153.972,42.225C153.557,41.925 151.99,40.786 151.239,40.201C150.51,39.631 149.79,39.19 149.286,38.971C148.608,38.671 147.58,38.417 145.993,38.118C141.133,37.197 136.149,36.45 131.039,35.907C130.765,35.878 130.504,36.034 130.402,36.289L128.628,40.704C128.57,40.844 128.43,40.937 128.277,40.93L123.143,40.72C122.916,40.714 122.709,40.854 122.636,41.07C121.376,44.803 120.311,48.106 119.432,50.98C118.54,53.894 117.965,56.232 117.705,57.993C117.449,59.736 117.63,61.747 118.231,64.033C118.254,64.118 118.186,64.201 118.097,64.198L117.973,64.192C117.846,64.189 117.735,64.099 117.705,63.975C117.144,61.608 116.92,59.666 117.072,58.137C117.296,55.875 117.9,53.12 118.887,49.868C119.636,47.399 120.615,44.46 121.789,41.035C121.853,40.848 121.719,40.647 121.518,40.64C121.518,40.64 104.694,39.9 103.385,39.831C103.21,39.822 103.146,39.704 103.19,39.475L103.487,39.283C103.99,39.347 123.162,40.039 127.755,40.156C128.019,40.163 128.261,40.006 128.366,39.761L137.594,17.818C137.705,17.637 137.849,17.49 138.024,17.379C138.155,17.42 138.173,17.56 138.075,17.802C135.466,24.215 133.143,29.916 130.994,34.856C130.922,35.022 131.029,35.21 131.208,35.235C136.457,35.984 141.302,36.761 145.742,37.573C146.21,37.659 146.981,37.818 148.051,38.051Z" style="fill:white;fill-opacity:0.35;"/>
    <path d="M137.594,17.818C137.272,17.828 136.992,17.907 136.759,18.057C132.509,20.805 128.312,23.498 124.133,26.062C123.825,26.251 123.515,26.444 123.209,26.638C116.934,30.62 111.384,34.15 106.564,37.232C104.924,38.281 103.898,38.965 103.487,39.283C103.99,39.347 123.162,40.039 127.755,40.156C128.019,40.163 128.261,40.006 128.366,39.761L137.594,17.818Z" style="fill:white;fill-opacity:0.75;"/>
    <path d="M144.923,47.95C136.366,53.232 124.168,60.759 119.094,63.876C118.626,64.166 118.282,64.318 118.069,64.332C117.693,64.357 117.384,64.169 117.138,63.775C115.88,61.753 112.686,56.638 109.569,51.657L109.343,51.295L107.601,48.513L106.679,47.041C105.337,45.024 104.097,42.924 102.791,40.857L102.362,40.185C102.197,39.927 102.394,39.59 102.7,39.615C102.862,39.628 103.025,39.58 103.19,39.475C103.146,39.704 103.21,39.822 103.385,39.831C104.694,39.9 121.518,40.64 121.518,40.64C121.719,40.647 121.853,40.848 121.789,41.035C120.615,44.46 119.636,47.399 118.887,49.868C117.9,53.12 117.296,55.875 117.072,58.137C116.92,59.666 117.144,61.608 117.705,63.975C117.735,64.099 117.846,64.189 117.973,64.192L118.097,64.198C118.186,64.201 118.254,64.118 118.231,64.033C117.63,61.747 117.449,59.736 117.705,57.993C117.965,56.232 118.54,53.894 119.432,50.98C120.311,48.106 121.376,44.803 122.636,41.07C122.709,40.854 122.916,40.714 123.143,40.72L128.277,40.93C128.43,40.937 128.57,40.844 128.628,40.704L130.402,36.289C130.504,36.034 130.765,35.878 131.039,35.907C136.149,36.45 141.133,37.197 145.993,38.118C147.58,38.417 148.608,38.671 149.286,38.971C149.79,39.19 150.51,39.631 151.239,40.201C151.99,40.786 153.557,41.925 153.972,42.225L154.075,42.3L146.853,46.759L144.923,47.95ZM135.399,46.087L133.488,43.029C133.428,42.93 133.319,42.869 133.205,42.86C132.724,42.824 132.467,43.077 132.431,43.603C132.422,43.733 132.335,43.845 132.214,43.889L131.908,44.001C127.541,44.144 128.841,50.398 132.545,49.887C133.81,49.712 134.624,48.988 134.963,47.708C134.989,47.61 135.078,47.541 135.18,47.536C135.24,47.534 135.317,47.549 135.406,47.578C136.41,47.905 137.353,47.348 137.623,46.453C137.816,45.813 137.719,45.055 137.33,44.182C136.659,42.681 135.483,41.659 133.804,41.121C133.673,41.08 133.539,41.057 133.405,41.051C130.189,40.909 127.276,42.726 126.602,45.956C126.398,46.934 126.486,47.846 126.869,48.693C127.899,50.971 129.682,52.532 132.297,52.32C134.129,52.172 135.702,51.33 137.011,49.791C137.119,49.664 137.113,49.476 136.998,49.358L136.715,49.065C136.603,48.951 136.416,48.97 136.329,49.103C135.277,50.728 133.689,51.519 131.583,51.476C131.147,51.468 130.654,51.304 130.109,50.983C127.04,49.176 126.499,45.379 129.319,43.112C132.112,40.866 136.456,41.879 136.922,45.775C136.97,46.179 136.664,46.535 136.256,46.552C136.013,46.562 135.802,46.494 135.625,46.345C135.563,46.262 135.488,46.176 135.399,46.087Z" style="fill:white;fill-opacity:0.75;"/>
    <path d="M135.399,46.087C135.488,46.176 135.563,46.262 135.625,46.345C135.542,46.276 135.467,46.19 135.399,46.087Z" style="fill:white;fill-opacity:0.95;"/>
    <path d="M135.399,46.087L133.488,43.029C133.428,42.93 133.319,42.869 133.205,42.86C132.724,42.824 132.467,43.077 132.431,43.603C132.422,43.733 132.335,43.845 132.214,43.889L131.908,44.001C127.541,44.144 128.841,50.398 132.545,49.887C133.81,49.712 134.624,48.988 134.963,47.708C134.989,47.61 135.078,47.541 135.18,47.536C135.24,47.534 135.317,47.549 135.406,47.578C136.41,47.905 137.353,47.348 137.623,46.453C137.816,45.813 137.719,45.055 137.33,44.182C136.659,42.681 135.483,41.659 133.804,41.121C133.673,41.08 133.539,41.057 133.405,41.051C130.189,40.909 127.276,42.726 126.602,45.956C126.398,46.934 126.486,47.846 126.869,48.693C127.899,50.971 129.682,52.532 132.297,52.32C134.129,52.172 135.702,51.33 137.011,49.791C137.119,49.664 137.113,49.476 136.998,49.358L136.715,49.065C136.603,48.951 136.416,48.97 136.329,49.103C135.277,50.728 133.689,51.519 131.583,51.476C131.147,51.468 130.654,51.304 130.109,50.983C127.04,49.176 126.499,45.379 129.319,43.112C132.112,40.866 136.456,41.879 136.922,45.775C136.97,46.179 136.664,46.535 136.256,46.552C136.013,46.562 135.802,46.494 135.625,46.345C135.542,46.276 135.467,46.19 135.399,46.087ZM132.58,44.794C129.927,44.654 129.44,47.581 131.704,48.651C132.278,48.922 132.864,48.82 133.463,48.342C133.998,47.915 134.246,47.323 134.208,46.562C133.905,45.571 133.361,44.982 132.58,44.794Z" style="fill:white;fill-opacity:0.35;"/>
    <path d="M101.5,42.58C101.442,42.465 101.302,42.418 101.187,42.477L90.238,47.984C90.121,48.043 90.077,48.18 90.134,48.296L90.14,48.307C90.198,48.422 90.338,48.47 90.452,48.411L101.402,42.903C101.518,42.844 101.563,42.708 101.505,42.591L101.5,42.58Z" style="fill:white;fill-opacity:0.85;"/>
    <path d="M188.15,127.708L184.977,133.378C184.939,133.445 184.859,133.473 184.789,133.445L166.497,126.09C166.426,126.061 166.347,126.068 166.283,126.106C162.907,128.036 159.578,129.587 156.297,130.756C153.243,131.849 150.061,132.725 146.758,133.387C140.69,134.601 134.6,134.935 128.491,134.384C111.125,132.827 95.138,124.188 84.175,110.69C79.005,104.322 75.164,97.015 72.657,88.772C70.38,81.287 69.542,73.314 70.137,64.851C70.223,63.618 70.395,62.258 70.653,60.771C71.032,58.567 71.176,57.299 71.666,55.378C72.67,51.435 73.969,47.635 75.559,43.975C75.715,43.615 75.963,43.236 76.298,42.841C76.345,42.784 76.435,42.787 76.479,42.844C76.482,42.854 76.486,42.87 76.489,42.899C76.492,42.956 76.546,42.994 76.603,42.978C76.629,42.972 76.658,42.969 76.689,42.966C76.087,44.969 75.5,46.979 74.931,48.989C74.654,49.97 74.202,52.48 73.574,56.522C73.393,57.691 73.249,59.545 73.151,62.08C72.386,81.315 80.435,100.022 94.839,112.668C104.844,121.449 116.536,126.679 129.918,128.358C137.492,129.31 145.154,128.837 152.908,126.956C153.593,126.79 154.867,126.437 156.737,125.896C158.374,125.421 160.209,124.709 161.69,124.131C164.379,123.082 166.955,121.814 169.443,120.363C169.525,120.315 169.624,120.306 169.71,120.341L188.15,127.708Z" style="fill:white;fill-opacity:0.25;"/>
    <path d="M132.58,44.794C129.927,44.654 129.44,47.581 131.704,48.651C132.278,48.922 132.864,48.82 133.463,48.342C133.998,47.915 134.246,47.323 134.208,46.562C133.905,45.571 133.361,44.982 132.58,44.794Z" style="fill:white;fill-opacity:0.75;"/>
    <path d="M100.789,50.384C100.848,50.296 101.291,49.428 102.786,49.012C102.91,48.978 103.042,48.946 103.181,48.919L107.601,48.513L109.343,51.295L109.569,51.657L105.503,51.795C105.175,51.183 101.996,53.008 100.438,53.974C100.241,54.098 99.986,53.948 99.992,53.716C100.032,52.254 100.295,51.142 100.789,50.384Z" style="fill:white;fill-opacity:0.5;"/>
    <path d="M96.211,49.381C96.161,49.279 96.04,49.24 95.938,49.29L84.976,54.803C84.875,54.853 84.834,54.977 84.886,55.077L84.892,55.088C84.942,55.19 85.063,55.229 85.165,55.179L96.127,49.666C96.228,49.616 96.269,49.492 96.217,49.392L96.211,49.381Z" style="fill:white;fill-opacity:0.85;"/>
    <path d="M165.149,78.337C166.573,77.449 167.688,75.977 168.487,73.923C169.118,72.301 169.462,70.903 169.523,69.728C169.551,69.17 169.592,68.797 169.653,68.616C169.684,68.524 169.694,68.425 169.679,68.326C169.364,66.299 169.276,64.38 168.538,62.641C167.438,60.045 165.744,57.875 163.436,56.152C163.14,55.932 162.694,55.668 162.095,55.362C161.607,55.114 161.155,54.85 160.744,54.569L158.107,53.741C156.224,53.381 154.969,53.257 154.339,53.362C152.829,53.614 151.167,53.698 149.895,54.174C146.816,55.328 144.385,57.203 142.598,59.806C140.311,63.137 139.503,66.855 140.183,70.954C140.466,72.658 141.26,74.732 142.165,76.101C145.949,81.831 152.488,84.52 159.304,82.52L160.706,82.019L158.884,77.35C158.792,77.111 158.909,76.84 159.148,76.745L159.827,76.471C159.862,76.458 159.878,76.417 159.865,76.382L159.604,75.729C159.511,75.502 159.62,75.248 159.846,75.158L161.903,74.334C161.999,74.295 162.107,74.33 162.165,74.413C162.362,74.7 162.497,74.957 162.566,75.19C162.602,75.311 162.735,75.378 162.853,75.33L163.547,75.05C163.687,74.993 163.846,75.063 163.901,75.203L165.149,78.337ZM144.025,68.785C144.27,69.126 146.439,69.75 148.401,70.413C148.596,70.479 148.739,70.648 148.771,70.855L149.644,76.62C149.717,77.092 150.316,77.258 150.615,76.885L154.017,72.699C154.058,72.645 154.132,72.626 154.195,72.652C155.463,73.145 156.642,73.63 157.728,74.101C158.17,74.292 158.486,74.146 158.68,73.658C160.792,68.323 162.41,64.284 163.541,61.535C163.709,61.128 163.639,60.481 163.044,60.519C162.996,60.522 162.948,60.535 162.9,60.551L144.245,68.027C143.942,68.148 143.834,68.52 144.025,68.785Z" style="fill:white;fill-opacity:0.75;"/>
    <path d="M102.65,58.727L100.592,59.641C100.506,59.683 100.107,56.089 100.107,56.089C100.034,55.604 100.266,55.127 100.693,54.888L102.964,53.623C102.785,54.289 102.682,54.915 102.631,55.577C102.561,56.493 102.59,57.477 102.65,58.727Z" style="fill:white;fill-opacity:0.5;"/>
    <path d="M100.837,60.545C100.719,60.612 100.633,60.723 100.594,60.854L100.359,61.707C100.343,61.765 100.336,61.822 100.346,61.879L101.795,86.227C101.808,86.319 101.846,86.409 101.907,86.485L103.321,88.256C104.429,88.769 105.7,88.946 107.137,88.798C108.287,88.679 108.866,88.619 108.876,88.616C125.388,87.587 141.9,86.558 158.409,85.523C158.731,85.501 159.215,85.418 159.862,85.268L161.725,84.329L160.706,82.019L159.304,82.52C158.769,83.446 157.995,83.943 156.979,84.01L153.937,84.208C146.239,84.701 138.518,85.189 130.781,85.67C127.143,85.896 123.487,86.116 119.814,86.329C116.192,86.539 112.542,86.737 108.87,86.928C107.608,86.994 106.735,86.913 106.255,86.686C105.435,86.299 104.85,85.654 104.496,84.759C104.221,84.062 103.015,61.513 102.685,59.653C101.631,60.171 100.837,60.545 100.837,60.545Z" style="fill:white;fill-opacity:0.5;"/>
    <path d="M144.025,68.785C144.27,69.126 146.439,69.75 148.401,70.413C148.596,70.479 148.739,70.648 148.771,70.855L149.644,76.62C149.717,77.092 150.316,77.258 150.615,76.885L154.017,72.699C154.058,72.645 154.132,72.626 154.195,72.652C155.463,73.145 156.642,73.63 157.728,74.101C158.17,74.292 158.486,74.146 158.68,73.658C160.792,68.323 162.41,64.284 163.541,61.535C163.709,61.128 163.639,60.481 163.044,60.519C162.996,60.522 162.948,60.535 162.9,60.551L144.245,68.027C143.942,68.148 143.834,68.52 144.025,68.785ZM160.222,63.851L150.061,70.986C149.943,71.069 149.882,71.212 149.905,71.355L150.449,74.951C150.475,75.127 150.717,75.152 150.781,74.99L151.87,72.285C151.934,72.126 152.032,71.98 152.157,71.859L160.311,63.959C160.336,63.934 160.34,63.892 160.317,63.864C160.292,63.835 160.25,63.829 160.222,63.851Z" style="fill:white;fill-opacity:0.25;"/>
    <path d="M160.222,63.851L150.061,70.986C149.943,71.069 149.882,71.212 149.905,71.355L150.449,74.951C150.475,75.127 150.717,75.152 150.781,74.99L151.87,72.285C151.934,72.126 152.032,71.98 152.157,71.859L160.311,63.959C160.336,63.934 160.34,63.892 160.317,63.864C160.292,63.835 160.25,63.829 160.222,63.851Z" style="fill:white;fill-opacity:0.75;"/>
    <path d="M135.689,95.808C135.619,95.448 135.47,95.139 135.237,94.888C135.157,94.802 135.039,94.761 134.925,94.776C133.642,94.945 132.618,94.794 131.074,95.009C130.484,95.091 129.848,95.074 129.169,94.964C129.01,94.938 128.879,95.085 128.924,95.238L129.105,95.875C129.14,95.999 129.082,96.132 128.965,96.187C128.847,96.243 128.709,96.205 128.634,96.101C128.554,95.991 128.472,95.742 128.405,95.343C128.388,95.245 128.299,95.174 128.201,95.178L122.614,95.321C122.442,95.324 122.321,95.493 122.375,95.659L122.633,96.429C122.681,96.569 122.588,96.716 122.445,96.738L122.353,96.751C122.241,96.767 122.136,96.703 122.098,96.595L121.792,95.681C121.757,95.569 121.655,95.494 121.537,95.49C120.451,95.454 119.649,95.472 119.126,95.563C118.177,95.728 117.266,95.627 116.266,95.659C115.603,95.679 115.234,95.955 115.16,96.487C115.145,96.601 115.043,96.686 114.928,96.681C114.813,96.676 114.718,96.582 114.711,96.468C114.681,95.948 114.377,95.72 113.807,95.783C112.504,95.927 111.131,95.988 109.688,95.967C109.472,95.964 109.284,96.114 109.242,96.327L109.15,96.821C109.121,96.958 109.023,97.073 108.889,97.117L108.717,97.175C108.599,97.213 108.488,97.099 108.535,96.984C108.629,96.755 108.666,96.522 108.643,96.283C108.631,96.152 108.522,96.053 108.392,96.057L106.841,96.098C106.764,96.101 106.704,96.031 106.72,95.955L106.742,95.853C106.761,95.748 106.85,95.674 106.955,95.671L108.465,95.633C108.675,95.627 108.854,95.477 108.892,95.27L109.099,94.206C109.124,94.072 109.01,93.954 108.873,93.977C108.2,94.09 107.582,94.106 107.013,94.012C106.863,93.987 106.783,93.817 106.86,93.687L106.911,93.594C106.962,93.508 107.054,93.451 107.156,93.448L109.15,93.4C109.293,93.397 109.414,93.292 109.44,93.152L109.612,92.266C109.628,92.187 109.567,92.117 109.488,92.12L107.102,92.18C106.997,92.183 106.939,92.062 107.003,91.983C107.107,91.855 107.255,91.738 107.443,91.632C108.15,91.406 108.892,91.303 109.669,91.32C109.832,91.324 109.984,91.237 110.067,91.097L110.405,90.511C110.44,90.448 110.513,90.416 110.583,90.432L110.676,90.448C110.781,90.47 110.851,90.569 110.829,90.674L110.749,91.094C110.739,91.132 110.771,91.171 110.809,91.167L115.135,91.059C115.25,91.056 115.356,90.989 115.409,90.884C115.506,90.69 115.552,90.463 115.555,90.202C115.559,89.9 115.935,89.759 116.075,90.008C116.177,90.189 116.065,90.928 116.154,90.928L120.32,90.823C120.435,90.82 120.525,90.721 120.518,90.607C120.501,90.323 120.521,90.158 120.585,90.11C120.7,90.024 120.865,90.059 120.935,90.183L121.155,90.581C121.203,90.667 121.295,90.718 121.394,90.712C123.722,90.567 125.363,90.488 126.321,90.46C126.79,90.447 127.15,90.343 127.398,90.148C127.487,90.078 127.615,90.068 127.713,90.126L127.984,90.282C128.054,90.32 128.137,90.339 128.217,90.336L133.262,90.059C133.38,90.053 133.466,89.947 133.45,89.83L133.405,89.546C133.393,89.457 133.444,89.372 133.53,89.342C133.683,89.29 133.811,89.319 133.915,89.435C133.941,89.463 133.956,89.495 133.966,89.53L134.02,89.74C134.049,89.845 134.144,89.919 134.253,89.916L139.355,89.785C139.489,89.782 139.613,89.712 139.677,89.594L139.83,89.329C139.897,89.218 140.052,89.2 140.139,89.298C140.372,89.561 140.951,89.661 141.872,89.603C144.85,89.417 146.509,89.332 146.85,89.345C146.946,89.349 147.035,89.298 147.083,89.215C147.16,89.078 147.242,88.989 147.331,88.941C147.424,88.891 147.535,88.906 147.611,88.976C147.895,89.237 152.332,88.78 153.221,88.887C153.329,88.9 153.432,88.839 153.472,88.74C153.515,88.636 153.58,88.545 153.667,88.476C153.774,88.389 153.902,88.412 154.046,88.54C154.157,88.638 154.249,88.75 154.329,88.88C155.807,89.065 157.428,89.021 159.193,88.756C159.343,88.734 159.451,88.896 159.371,89.024L159.358,89.046C159.225,89.259 159.011,89.412 158.766,89.466C157.543,89.737 156.355,89.841 155.199,89.779C154.957,89.766 154.785,90.008 154.874,90.231L155.17,90.976C155.275,91.237 155.549,91.394 155.826,91.352L157.957,91.027C157.986,91.024 158.014,91.014 158.043,91.005L160.722,89.855C160.957,90.132 161.136,90.422 161.254,90.718C161.317,90.878 161.502,90.954 161.658,90.887C162.053,90.718 162.34,90.658 162.521,90.706C162.607,90.728 162.677,90.785 162.716,90.865L163.06,91.562C163.143,91.731 163.337,91.811 163.512,91.75L164.181,91.527C164.331,91.476 164.407,91.311 164.353,91.164L162.241,85.53C162.181,85.106 162.009,84.708 161.725,84.329L160.706,82.019L158.884,77.35C158.792,77.111 158.909,76.84 159.148,76.745L159.827,76.471C159.862,76.458 159.878,76.417 159.865,76.382L159.604,75.729C159.511,75.502 159.62,75.248 159.846,75.158L161.903,74.334C161.999,74.295 162.107,74.33 162.165,74.413C162.362,74.7 162.497,74.957 162.566,75.19C162.602,75.311 162.735,75.378 162.853,75.33L163.547,75.05C163.687,74.993 163.846,75.063 163.901,75.203L165.149,78.337L166.43,81.79C166.474,81.914 166.614,81.975 166.735,81.927L169.105,80.978C169.386,80.866 169.704,81.007 169.806,81.293L169.835,81.37C169.927,81.596 169.819,81.854 169.593,81.946L167.325,82.876C167.162,82.943 167.083,83.128 167.15,83.29L168.917,87.686C169.048,88.011 168.895,88.377 168.573,88.514L168.548,88.524C168.22,88.67 167.834,88.514 167.704,88.183L162.687,75.553C162.655,75.471 162.563,75.432 162.48,75.464L160.097,76.417C159.989,76.461 159.935,76.585 159.98,76.697L166.541,93.075C166.583,93.18 166.544,93.298 166.452,93.359L165.729,93.833C165.633,93.897 165.503,93.868 165.439,93.773L164.85,92.878C164.78,92.77 164.646,92.725 164.525,92.766L163.78,93.015C163.678,93.05 163.562,93.018 163.493,92.935C163.358,92.774 163.286,92.543 163.276,92.244C163.27,92.059 163.082,91.941 162.913,92.008L162.053,92.352C161.916,92.406 161.761,92.327 161.728,92.183C161.67,91.929 161.56,91.654 161.391,91.365C161.283,91.18 161.046,91.113 160.859,91.215C160.364,91.485 159.967,91.637 159.658,91.671C159.463,91.692 159.343,91.894 159.416,92.075L160.378,94.474C160.445,94.646 160.636,94.735 160.814,94.674L161.521,94.439C161.636,94.4 161.763,94.458 161.808,94.572L162.795,97.038C162.837,97.14 162.954,97.187 163.053,97.143C163.425,96.978 163.725,96.921 163.958,96.958C164.079,96.978 164.181,97.06 164.229,97.178L165,99.105C165.031,99.181 165.111,99.23 165.194,99.22C165.414,99.193 165.63,99.079 165.84,98.882C166.041,98.694 166.369,98.77 166.471,99.025L167.29,101.064C167.366,101.255 167.589,101.335 167.767,101.236C168.198,100.997 168.764,100.641 169.179,100.987C169.449,101.214 169.478,101.608 169.242,101.828C168.627,102.404 168.077,102.411 167.564,101.879C167.489,101.801 167.385,101.758 167.28,101.755L165.91,101.749C165.993,101.131 165.442,100.656 165.423,100C165.419,99.873 165.312,99.77 165.184,99.774C164.866,99.783 164.599,99.858 164.385,99.99C164.229,100.087 164.022,100.035 163.932,99.873C163.604,99.274 163.379,98.745 163.254,98.286C163.036,97.486 162.71,97.3 161.923,97.694C161.77,97.77 161.582,97.7 161.518,97.541L160.69,95.471C160.639,95.34 160.508,95.26 160.368,95.267L159.448,95.321C159.171,94.904 158.984,94.464 158.884,94.002C158.824,93.725 158.575,93.531 158.291,93.537L156.657,93.579C156.492,93.585 156.371,93.728 156.393,93.891L156.476,94.429C156.492,94.531 156.422,94.627 156.317,94.642L156.208,94.658C156.125,94.671 156.046,94.627 156.014,94.547L155.791,93.989C155.734,93.843 155.59,93.751 155.434,93.754L150.841,93.872C150.682,93.875 150.598,94.063 150.701,94.184C150.9,94.417 151.028,94.624 151.083,94.811C151.117,94.926 151.065,95.048 150.956,95.101C150.848,95.153 150.72,95.12 150.65,95.021L150.179,94.353C150.077,94.209 149.918,94.12 149.742,94.107C148.472,94.017 144.149,94.212 142.783,94.477C142.69,94.495 142.611,94.553 142.566,94.639C142.528,94.713 142.506,94.751 142.499,94.76C142.321,95.006 141.921,94.9 141.932,94.614C141.934,94.553 141.918,94.498 141.875,94.451C141.844,94.418 141.798,94.4 141.754,94.404L136.04,94.728C135.963,94.735 135.909,94.811 135.934,94.885L136.269,95.878C136.298,95.964 136.234,96.053 136.145,96.057L136.001,96.06C135.852,96.063 135.718,95.958 135.689,95.808ZM115.839,93.024L120.932,92.811C120.973,92.811 121.005,92.776 121.005,92.731L120.993,92.441C120.97,91.948 120.674,91.559 120.327,91.575L116.336,91.741C115.992,91.757 115.727,92.168 115.747,92.661L115.759,92.951C115.762,92.996 115.797,93.028 115.839,93.024ZM134.53,91.056L134.657,91.9C134.676,92.015 134.775,92.097 134.89,92.094L140.4,91.954C140.569,91.951 140.684,91.776 140.62,91.62L140.387,91.034C140.305,90.823 140.097,90.69 139.871,90.696L134.724,90.827C134.603,90.83 134.511,90.938 134.53,91.056ZM148.669,92.158C148.631,92.104 148.567,92.078 148.503,92.088C147.592,92.25 142.346,92.384 141.808,92.515C141.687,92.543 141.633,92.684 141.7,92.785L142.353,93.779C142.4,93.856 142.49,93.897 142.582,93.891C142.582,93.891 148.787,93.601 149.567,93.521C149.593,93.518 149.602,93.489 149.589,93.47L148.669,92.158ZM121.563,92.524C121.575,92.623 121.665,92.696 121.763,92.696L127.427,92.55C127.548,92.547 127.637,92.438 127.618,92.317L127.49,91.473C127.478,91.374 127.388,91.301 127.287,91.301L121.626,91.444C121.505,91.448 121.413,91.556 121.432,91.677L121.563,92.524ZM151.491,91.397C151.943,91.355 152.399,91.327 152.864,91.317C153.705,91.301 154.218,91.285 154.396,91.266C154.507,91.253 154.577,91.139 154.536,91.034L154.192,90.158C154.138,90.018 154.001,89.925 153.851,89.928C153.128,89.938 152.351,89.979 151.52,90.053C151.071,90.104 150.612,90.132 150.147,90.142C149.306,90.158 148.796,90.174 148.615,90.193C148.503,90.205 148.433,90.32 148.475,90.425L148.819,91.301C148.873,91.444 149.01,91.534 149.159,91.53C149.886,91.524 150.663,91.476 151.491,91.397ZM133.978,90.988C133.976,90.941 133.934,90.903 133.887,90.907L128.168,91.207C128.121,91.209 128.083,91.25 128.087,91.297L128.144,92.398C128.147,92.445 128.188,92.483 128.235,92.479L133.954,92.179C134.001,92.177 134.039,92.136 134.035,92.089L133.978,90.988ZM135.868,94.19C136.622,94.176 141.139,93.913 141.324,93.894C141.441,93.882 141.515,93.763 141.47,93.652L141.11,92.741C141.053,92.594 140.91,92.499 140.754,92.502C139.999,92.516 135.482,92.777 135.297,92.798C135.18,92.812 135.106,92.929 135.148,93.04L135.511,93.951C135.568,94.098 135.711,94.193 135.868,94.19ZM122.152,94.627C122.19,94.738 122.295,94.811 122.413,94.808L127.971,94.668C128.159,94.665 128.284,94.474 128.213,94.302L127.825,93.327C127.783,93.225 127.682,93.158 127.57,93.158L122.072,93.298C121.891,93.305 121.767,93.48 121.824,93.652L122.152,94.627ZM134.17,92.798C133.396,92.814 128.777,93.092 128.586,93.114C128.465,93.127 128.392,93.25 128.436,93.362L128.809,94.295C128.87,94.445 129.013,94.54 129.175,94.537C129.946,94.523 134.568,94.243 134.759,94.222C134.877,94.209 134.953,94.085 134.909,93.974L134.536,93.04C134.476,92.891 134.329,92.795 134.17,92.798ZM110.032,92.983C109.978,93.139 110.099,93.305 110.265,93.298L114.829,93.158C115.02,93.152 115.18,93.012 115.205,92.824L115.307,92.078C115.326,91.948 115.221,91.83 115.087,91.836L110.612,92.018C110.456,92.024 110.319,92.126 110.271,92.273L110.032,92.983ZM158.03,92.002C157.935,91.763 157.686,91.623 157.431,91.661L155.81,91.906C155.692,91.925 155.622,92.046 155.667,92.155L155.992,92.964C156.024,93.043 156.103,93.098 156.189,93.098L158.158,93.098C158.307,93.098 158.409,92.948 158.352,92.811L158.03,92.002ZM109.491,95.178C109.459,95.346 109.59,95.502 109.762,95.496L114.501,95.375C114.657,95.372 114.791,95.26 114.82,95.107L115.036,93.986C115.059,93.865 114.963,93.754 114.839,93.757L110.179,93.875C109.921,93.881 109.704,94.066 109.656,94.318L109.491,95.178ZM150.045,93.193C150.137,93.333 150.293,93.413 150.459,93.41L155.132,93.292C155.326,93.289 155.457,93.091 155.383,92.91L155.129,92.279C155.039,92.059 154.826,91.916 154.59,91.922L149.685,92.046C149.516,92.05 149.417,92.238 149.51,92.378L150.045,93.193ZM141.263,91.655C141.289,91.731 141.359,91.782 141.438,91.779L148.15,91.607C148.303,91.604 148.389,91.432 148.303,91.308L147.758,90.537C147.659,90.39 147.494,90.307 147.315,90.311L141.184,90.467C141.024,90.47 140.916,90.626 140.967,90.776L141.263,91.655ZM115.661,95.206L121.362,94.948C121.432,94.945 121.486,94.885 121.483,94.814C121.483,94.814 121.161,93.407 120.843,93.422L116.04,93.639C115.721,93.655 115.482,94.066 115.504,94.56L115.527,95.085C115.53,95.155 115.59,95.209 115.661,95.206Z" style="fill:white;fill-opacity:0.25;"/>
    <path d="M173.463,80.637L170.293,81.733C170.265,81.742 170.239,81.761 170.223,81.787C170.086,81.975 170.137,82.357 170.376,82.934C170.526,83.306 171.134,84.826 172.198,87.495C172.297,87.746 172.584,87.867 172.835,87.769L173.103,87.66C173.389,87.546 173.53,87.221 173.415,86.931L171.73,82.727C171.682,82.606 171.739,82.469 171.86,82.421L173.893,81.605C174.02,81.554 174.081,81.411 174.03,81.284L173.842,80.812C173.781,80.663 173.616,80.586 173.463,80.637Z" style="fill:white;fill-opacity:0.25;"/>
    <path d="M176.285,81.978C176.454,81.93 176.597,81.879 176.712,81.819C176.899,81.717 176.966,81.462 176.861,81.239C176.517,80.5 175.173,81.153 174.698,81.411C174.479,81.529 174.383,81.793 174.476,82.026L176.45,86.953C176.568,87.25 176.903,87.39 177.196,87.272L177.39,87.195C177.693,87.074 177.839,86.73 177.718,86.428L176.09,82.367C176.027,82.204 176.116,82.023 176.285,81.978Z" style="fill:white;fill-opacity:0.25;"/>
    <path d="M178.494,81.681C178.403,81.487 178.174,81.405 177.982,81.496L177.526,81.709C177.333,81.8 177.25,82.029 177.34,82.222L177.503,82.568C177.594,82.762 177.823,82.844 178.015,82.753L178.471,82.54C178.664,82.449 178.747,82.22 178.656,82.027L178.494,81.681Z" style="fill:white;fill-opacity:0.25;"/>
    <path d="M182.525,92.097L181.735,92.413C181.614,92.464 181.553,92.601 181.601,92.722L182.783,95.703C182.875,95.939 183.149,96.05 183.381,95.945L183.432,95.923C183.729,95.799 183.872,95.461 183.757,95.158L182.703,92.419C182.642,92.263 182.697,92.085 182.837,91.986L183.525,91.502C183.608,91.444 183.639,91.336 183.601,91.244L180.031,82.328C179.989,82.223 179.871,82.172 179.766,82.214L179.164,82.456C179.04,82.504 178.979,82.647 179.027,82.771L182.649,91.808C182.693,91.922 182.639,92.053 182.525,92.097Z" style="fill:white;fill-opacity:0.25;"/>
    <path d="M162.241,85.53C161.512,85.686 160.719,85.6 159.862,85.268L161.725,84.329C162.009,84.708 162.181,85.106 162.241,85.53Z" style="fill:white;fill-opacity:0.95;"/>
    <path d="M109.809,97.513C114.561,97.239 158.322,95.253 159.448,95.321L160.368,95.267C160.508,95.26 160.639,95.34 160.69,95.471L161.518,97.541C161.582,97.7 161.77,97.77 161.923,97.694C162.71,97.3 163.036,97.486 163.254,98.286C163.379,98.745 163.604,99.274 163.932,99.873C164.022,100.035 164.229,100.087 164.385,99.99C164.599,99.858 164.866,99.783 165.184,99.774C165.312,99.77 165.419,99.873 165.423,100C165.442,100.656 165.993,101.131 165.91,101.749C162.518,101.596 159.113,101.659 155.695,101.943C154.749,101.812 154.017,101.755 153.495,101.777C151.313,101.87 148.65,101.963 145.503,102.058C143.254,102.125 140.989,101.765 138.871,102.029C135.782,102.414 132.459,102.37 129.277,102.398C132.663,102.067 136.056,101.827 139.457,101.669C140.684,101.612 141.725,101.469 142.579,101.242C142.948,101.144 143.158,100.752 143.037,100.389L141.983,97.248C141.919,97.063 141.744,96.942 141.55,96.945L126.624,97.328C126.347,97.334 126.105,97.522 126.032,97.789C125.742,98.844 125.495,99.93 125.299,101.048C125.168,101.796 125.586,102.284 126.551,102.51C124.426,102.867 122.279,103.043 120.11,103.039C118.715,103.036 117.642,103.069 116.893,103.134C115.82,103.228 114.746,103.277 113.673,103.284C109.873,103.308 105.656,103.65 102.136,103.72C101.27,103.738 100.382,103.469 99.48,102.905C99.393,102.851 99.324,102.771 99.285,102.676C99.23,102.54 99.189,102.397 99.164,102.246L99.142,101.739C99.865,98.968 100.629,96.2 101.435,93.435L101.935,91.432C102.241,90.212 102.703,89.151 103.321,88.256C104.429,88.769 105.7,88.946 107.137,88.798C108.287,88.679 108.866,88.619 108.876,88.616C125.388,87.587 141.9,86.558 158.409,85.523C158.731,85.501 159.215,85.418 159.862,85.268C160.719,85.6 161.512,85.686 162.241,85.53L164.353,91.164C164.407,91.311 164.331,91.476 164.181,91.527L163.512,91.75C163.337,91.811 163.143,91.731 163.06,91.562L162.716,90.865C162.677,90.785 162.607,90.728 162.521,90.706C162.34,90.658 162.053,90.718 161.658,90.887C161.502,90.954 161.317,90.878 161.254,90.718C161.136,90.422 160.957,90.132 160.722,89.855L159.725,88.288C159.572,87.976 159.495,87.721 159.492,87.527C159.488,87.237 159.247,87.008 158.957,87.023C147.755,87.635 135.619,88.297 122.547,89.024C120.728,89.122 109.025,89.712 106.701,89.96C106.583,89.973 106.477,90.036 106.411,90.132C106.188,90.455 106.028,90.823 105.93,91.231L103.273,97.098C103.12,97.433 103.378,97.809 103.745,97.793C107.487,97.624 109.408,97.538 109.507,97.531L109.809,97.513Z" style="fill:white;fill-opacity:0.6;"/>
    <path d="M159.725,88.288C159.572,87.976 159.495,87.721 159.492,87.527C159.488,87.237 159.247,87.008 158.957,87.023C147.755,87.635 135.619,88.297 122.547,89.024C120.728,89.122 109.025,89.712 106.701,89.96C106.583,89.973 106.477,90.036 106.411,90.132C106.188,90.455 106.028,90.823 105.93,91.231L107.443,91.632C108.15,91.406 108.892,91.303 109.669,91.32C109.832,91.324 109.984,91.237 110.067,91.097L110.405,90.511C110.44,90.448 110.513,90.416 110.583,90.432L110.676,90.448C110.781,90.47 110.851,90.569 110.829,90.674L110.749,91.094C110.739,91.132 110.771,91.171 110.809,91.167L115.135,91.059C115.25,91.056 115.356,90.989 115.409,90.884C115.506,90.69 115.552,90.463 115.555,90.202C115.559,89.9 115.935,89.759 116.075,90.008C116.177,90.189 116.065,90.928 116.154,90.928L120.32,90.823C120.435,90.82 120.525,90.721 120.518,90.607C120.501,90.323 120.521,90.158 120.585,90.11C120.7,90.024 120.865,90.059 120.935,90.183L121.155,90.581C121.203,90.667 121.295,90.718 121.394,90.712C123.722,90.567 125.363,90.488 126.321,90.46C126.79,90.447 127.15,90.343 127.398,90.148C127.487,90.078 127.615,90.068 127.713,90.126L127.984,90.282C128.054,90.32 128.137,90.339 128.217,90.336L133.262,90.059C133.38,90.053 133.466,89.947 133.45,89.83L133.405,89.546C133.393,89.457 133.444,89.372 133.53,89.342C133.683,89.29 133.811,89.319 133.915,89.435C133.941,89.463 133.956,89.495 133.966,89.53L134.02,89.74C134.049,89.845 134.144,89.919 134.253,89.916L139.355,89.785C139.489,89.782 139.613,89.712 139.677,89.594L139.83,89.329C139.897,89.218 140.052,89.2 140.139,89.298C140.372,89.561 140.951,89.661 141.872,89.603C144.85,89.417 146.509,89.332 146.85,89.345C146.946,89.349 147.035,89.298 147.083,89.215C147.16,89.078 147.242,88.989 147.331,88.941C147.424,88.891 147.535,88.906 147.611,88.976C147.895,89.237 152.332,88.78 153.221,88.887C153.329,88.9 153.432,88.839 153.472,88.74C153.515,88.636 153.58,88.545 153.667,88.476C153.774,88.389 153.902,88.412 154.046,88.54C154.157,88.638 154.249,88.75 154.329,88.88L159.725,88.288Z" style="fill:white;fill-opacity:0.5;"/>
    <path d="M160.722,89.855L159.725,88.288L154.329,88.88C155.807,89.065 157.428,89.021 159.193,88.756C159.343,88.734 159.451,88.896 159.371,89.024L159.358,89.046C159.225,89.259 159.011,89.412 158.766,89.466C157.543,89.737 156.355,89.841 155.199,89.779C154.957,89.766 154.785,90.008 154.874,90.231L155.17,90.976C155.275,91.237 155.549,91.394 155.826,91.352L157.957,91.027C157.986,91.024 158.014,91.014 158.043,91.005L160.722,89.855Z" style="fill:white;fill-opacity:0.35;"/>
    <path d="M151.491,91.397C151.943,91.355 152.399,91.327 152.864,91.317C153.705,91.301 154.218,91.285 154.396,91.266C154.507,91.253 154.577,91.139 154.536,91.034L154.192,90.158C154.138,90.018 154.001,89.925 153.851,89.928C153.128,89.938 152.351,89.979 151.52,90.053C151.071,90.104 150.612,90.132 150.147,90.142C149.306,90.158 148.796,90.174 148.615,90.193C148.503,90.205 148.433,90.32 148.475,90.425L148.819,91.301C148.873,91.444 149.01,91.534 149.159,91.53C149.886,91.524 150.663,91.476 151.491,91.397Z" style="fill:white;fill-opacity:0.35;"/>
    <path d="M141.263,91.655C141.289,91.731 141.359,91.782 141.438,91.779L148.15,91.607C148.303,91.604 148.389,91.432 148.303,91.308L147.758,90.537C147.659,90.39 147.494,90.307 147.315,90.311L141.184,90.467C141.024,90.47 140.916,90.626 140.967,90.776L141.263,91.655Z" style="fill:white;fill-opacity:0.35;"/>
    <path d="M134.53,91.056L134.657,91.9C134.676,92.015 134.775,92.097 134.89,92.094L140.4,91.954C140.569,91.951 140.684,91.776 140.62,91.62L140.387,91.034C140.305,90.823 140.097,90.69 139.871,90.696L134.724,90.827C134.603,90.83 134.511,90.938 134.53,91.056Z" style="fill:white;fill-opacity:0.35;"/>
    <path d="M133.978,90.988C133.976,90.941 133.934,90.903 133.887,90.907L128.168,91.207C128.121,91.209 128.083,91.25 128.087,91.297L128.144,92.398C128.147,92.445 128.188,92.483 128.235,92.479L133.954,92.179C134.001,92.177 134.039,92.136 134.035,92.089L133.978,90.988Z" style="fill:white;fill-opacity:0.35;"/>
    <path d="M105.93,91.231L103.273,97.098C103.12,97.433 103.378,97.809 103.745,97.793C104.421,97.762 106.632,97.66 109.809,97.513C114.561,97.239 158.322,95.253 159.448,95.321C159.171,94.904 158.984,94.464 158.884,94.002C158.824,93.725 158.575,93.531 158.291,93.537L156.657,93.579C156.492,93.585 156.371,93.728 156.393,93.891L156.476,94.429C156.492,94.531 156.422,94.627 156.317,94.642L156.208,94.658C156.125,94.671 156.046,94.627 156.014,94.547L155.791,93.989C155.734,93.843 155.59,93.751 155.434,93.754L150.841,93.872C150.682,93.875 150.598,94.063 150.701,94.184C150.9,94.417 151.028,94.624 151.083,94.811C151.117,94.926 151.065,95.048 150.956,95.101C150.848,95.153 150.72,95.12 150.65,95.021L150.179,94.353C150.077,94.209 149.918,94.12 149.742,94.107C148.472,94.017 144.149,94.212 142.783,94.477C142.69,94.495 142.611,94.553 142.566,94.639C142.528,94.713 142.506,94.751 142.499,94.76C142.321,95.006 141.921,94.9 141.932,94.614C141.934,94.553 141.918,94.498 141.875,94.451C141.844,94.418 141.798,94.4 141.754,94.404L136.04,94.728C135.963,94.735 135.909,94.811 135.934,94.885L136.269,95.878C136.298,95.964 136.234,96.053 136.145,96.057L136.001,96.06C135.852,96.063 135.718,95.958 135.689,95.808C135.619,95.448 135.47,95.139 135.237,94.888C135.157,94.802 135.039,94.761 134.925,94.776C133.642,94.945 132.618,94.794 131.074,95.009C130.484,95.091 129.848,95.074 129.169,94.964C129.01,94.938 128.879,95.085 128.924,95.238L129.105,95.875C129.14,95.999 129.082,96.132 128.965,96.187C128.847,96.243 128.709,96.205 128.634,96.101C128.554,95.991 128.472,95.742 128.405,95.343C128.388,95.245 128.299,95.174 128.201,95.178L122.614,95.321C122.442,95.324 122.321,95.493 122.375,95.659L122.633,96.429C122.681,96.569 122.588,96.716 122.445,96.738L122.353,96.751C122.241,96.767 122.136,96.703 122.098,96.595L121.792,95.681C121.757,95.569 121.655,95.494 121.537,95.49C120.451,95.454 119.649,95.472 119.126,95.563C118.177,95.728 117.266,95.627 116.266,95.659C115.603,95.679 115.234,95.955 115.16,96.487C115.145,96.601 115.043,96.686 114.928,96.681C114.813,96.676 114.718,96.582 114.711,96.468C114.681,95.948 114.377,95.72 113.807,95.783C112.504,95.927 111.131,95.988 109.688,95.967C109.472,95.964 109.284,96.114 109.242,96.327L109.15,96.821C109.121,96.958 109.023,97.073 108.889,97.117L108.717,97.175C108.599,97.213 108.488,97.099 108.535,96.984C108.629,96.755 108.666,96.522 108.643,96.283C108.631,96.152 108.522,96.053 108.392,96.057L106.841,96.098C106.764,96.101 106.704,96.031 106.72,95.955L106.742,95.853C106.761,95.748 106.85,95.674 106.955,95.671L108.465,95.633C108.675,95.627 108.854,95.477 108.892,95.27L109.099,94.206C109.124,94.072 109.01,93.954 108.873,93.977C108.2,94.09 107.582,94.106 107.013,94.012C106.863,93.987 106.783,93.817 106.86,93.687L106.911,93.594C106.962,93.508 107.054,93.451 107.156,93.448L109.15,93.4C109.293,93.397 109.414,93.292 109.44,93.152L109.612,92.266C109.628,92.187 109.567,92.117 109.488,92.12L107.102,92.18C106.997,92.183 106.939,92.062 107.003,91.983C107.107,91.855 107.255,91.738 107.443,91.632L105.93,91.231Z" style="fill:white;fill-opacity:0.35;"/>
    <path d="M121.563,92.524C121.575,92.623 121.665,92.696 121.763,92.696L127.427,92.55C127.548,92.547 127.637,92.438 127.618,92.317L127.49,91.473C127.478,91.374 127.388,91.301 127.287,91.301L121.626,91.444C121.505,91.448 121.413,91.556 121.432,91.677L121.563,92.524Z" style="fill:white;fill-opacity:0.35;"/>
    <path d="M115.839,93.024L120.932,92.811C120.973,92.811 121.005,92.776 121.005,92.731L120.993,92.441C120.97,91.948 120.674,91.559 120.327,91.575L116.336,91.741C115.992,91.757 115.727,92.168 115.747,92.661L115.759,92.951C115.762,92.996 115.797,93.028 115.839,93.024Z" style="fill:white;fill-opacity:0.35;"/>
    <path d="M158.03,92.002C157.935,91.763 157.686,91.623 157.431,91.661L155.81,91.906C155.692,91.925 155.622,92.046 155.667,92.155L155.992,92.964C156.024,93.043 156.103,93.098 156.189,93.098L158.158,93.098C158.307,93.098 158.409,92.948 158.352,92.811L158.03,92.002Z" style="fill:white;fill-opacity:0.35;"/>
    <path d="M110.032,92.983C109.978,93.139 110.099,93.305 110.265,93.298L114.829,93.158C115.02,93.152 115.18,93.012 115.205,92.824L115.307,92.078C115.326,91.948 115.221,91.83 115.087,91.836L110.612,92.018C110.456,92.024 110.319,92.126 110.271,92.273L110.032,92.983Z" style="fill:white;fill-opacity:0.35;"/>
    <path d="M150.045,93.193C150.137,93.333 150.293,93.413 150.459,93.41L155.132,93.292C155.326,93.289 155.457,93.091 155.383,92.91L155.129,92.279C155.039,92.059 154.826,91.916 154.59,91.922L149.685,92.046C149.516,92.05 149.417,92.238 149.51,92.378L150.045,93.193Z" style="fill:white;fill-opacity:0.35;"/>
    <path d="M148.669,92.158C148.631,92.104 148.567,92.078 148.503,92.088C147.592,92.25 142.346,92.384 141.808,92.515C141.687,92.543 141.633,92.684 141.7,92.785L142.353,93.779C142.4,93.856 142.49,93.897 142.582,93.891C142.582,93.891 148.787,93.601 149.567,93.521C149.593,93.518 149.602,93.489 149.589,93.47L148.669,92.158Z" style="fill:white;fill-opacity:0.35;"/>
    <path d="M135.868,94.19C136.622,94.176 141.139,93.913 141.324,93.894C141.441,93.882 141.515,93.763 141.47,93.652L141.11,92.741C141.053,92.594 140.91,92.499 140.754,92.502C139.999,92.516 135.482,92.777 135.297,92.798C135.18,92.812 135.106,92.929 135.148,93.04L135.511,93.951C135.568,94.098 135.711,94.193 135.868,94.19Z" style="fill:white;fill-opacity:0.35;"/>
    <path d="M134.17,92.798C133.396,92.814 128.777,93.092 128.586,93.114C128.465,93.127 128.392,93.25 128.436,93.362L128.809,94.295C128.87,94.445 129.013,94.54 129.175,94.537C129.946,94.523 134.568,94.243 134.759,94.222C134.877,94.209 134.953,94.085 134.909,93.974L134.536,93.04C134.476,92.891 134.329,92.795 134.17,92.798Z" style="fill:white;fill-opacity:0.35;"/>
    <path d="M122.152,94.627C122.19,94.738 122.295,94.811 122.413,94.808L127.971,94.668C128.159,94.665 128.284,94.474 128.213,94.302L127.825,93.327C127.783,93.225 127.682,93.158 127.57,93.158L122.072,93.298C121.891,93.305 121.767,93.48 121.824,93.652L122.152,94.627Z" style="fill:white;fill-opacity:0.35;"/>
    <path d="M115.661,95.206L121.362,94.948C121.432,94.945 121.486,94.885 121.483,94.814C121.483,94.814 121.161,93.407 120.843,93.422L116.04,93.639C115.721,93.655 115.482,94.066 115.504,94.56L115.527,95.085C115.53,95.155 115.59,95.209 115.661,95.206Z" style="fill:white;fill-opacity:0.35;"/>
    <path d="M109.491,95.178C109.459,95.346 109.59,95.502 109.762,95.496L114.501,95.375C114.657,95.372 114.791,95.26 114.82,95.107L115.036,93.986C115.059,93.865 114.963,93.754 114.839,93.757L110.179,93.875C109.921,93.881 109.704,94.066 109.656,94.318L109.491,95.178Z" style="fill:white;fill-opacity:0.35;"/>
    <path d="M184.382,100.15L182.958,96.592C182.875,96.388 182.668,96.27 182.451,96.299L182.311,96.318C181.983,96.337 181.773,96.671 181.897,96.974L182.948,99.519C182.974,99.586 182.942,99.662 182.875,99.688L172.045,104.026C171.905,104.083 171.743,104.01 171.695,103.864L170.985,101.749C170.914,101.538 170.682,101.433 170.478,101.516L170.153,101.647C169.857,101.765 169.714,102.099 169.831,102.392L170.94,105.16C171.035,105.399 171.309,105.514 171.551,105.418L184.318,100.306C184.378,100.28 184.407,100.21 184.382,100.15Z" style="fill:white;fill-opacity:0.25;"/>
    <path d="M129.277,102.398C132.663,102.067 136.056,101.827 139.457,101.669C140.684,101.612 141.725,101.469 142.579,101.242C142.948,101.144 143.158,100.752 143.037,100.389L141.983,97.248C141.919,97.063 141.744,96.942 141.55,96.945L126.624,97.328C126.347,97.334 126.105,97.522 126.032,97.789C125.742,98.844 125.495,99.93 125.299,101.048C125.168,101.796 125.586,102.284 126.551,102.51L129.277,102.398Z" style="fill:white;fill-opacity:0.5;"/>
    <path d="M99.164,102.246L99.228,103.679C99.231,103.774 99.288,103.861 99.371,103.902C99.995,104.212 100.563,104.347 101.072,104.316C104.413,104.111 107.458,104.151 110.618,103.892C111.255,103.84 113.084,103.79 116.106,103.736C119.862,103.669 124.003,103.269 127.764,103.233C130.055,103.211 132.115,103.149 133.944,103.048C135.973,102.936 139.881,102.782 145.675,102.586C149.054,102.472 152.357,102.201 155.695,101.943C154.749,101.812 154.017,101.755 153.495,101.777C151.313,101.87 148.65,101.963 145.503,102.058C143.254,102.125 140.989,101.765 138.871,102.029C135.782,102.414 132.459,102.37 129.277,102.398L126.551,102.51C124.426,102.867 122.279,103.043 120.11,103.039C118.715,103.036 117.642,103.069 116.893,103.134C115.82,103.228 114.746,103.277 113.673,103.284C109.873,103.308 105.656,103.65 102.136,103.72C101.27,103.738 100.382,103.469 99.48,102.905C99.393,102.851 99.324,102.771 99.285,102.676C99.23,102.54 99.189,102.397 99.164,102.246Z" style="fill:white;fill-opacity:0.75;"/>
    <path d="M74.992,184.201C74.708,184.325 72.574,185.58 72.459,185.631C71.431,186.093 70.322,186.125 69.131,185.73C67.669,185.246 67.306,183.65 67.299,182.3C67.299,181.892 66.882,181.612 66.506,181.768C66.395,181.812 65.637,182.528 64.187,182.679C62.197,182.885 60.903,181.768 60.623,181.417C60.276,180.978 60.069,180.484 60.008,179.933C60.008,179.93 60.012,179.72 60.021,179.309C60.028,179.016 59.722,178.818 59.457,178.946C55.887,180.65 52.654,177.391 51.545,174.235C51.259,173.419 51.166,172.687 51.265,172.037C51.357,171.435 51.647,170.76 52.135,170.011C52.246,169.839 52.424,169.718 52.67,169.648C52.791,169.613 52.867,169.495 52.848,169.371C52.829,169.247 52.717,169.154 52.593,169.157C52.342,169.164 51.878,169.149 51.568,168.734C50.349,167.102 50.542,163.723 50.558,163.414C50.676,160.994 50.891,159.278 53.272,158.437C53.866,158.227 54.635,158.143 54.826,157.882C54.887,157.796 54.868,157.678 54.785,157.617C54.24,157.206 53.816,156.773 53.514,156.318C52.542,154.865 51.804,153.052 50.784,151.119C50.099,149.822 49.809,147.058 51.169,145.663C53.208,143.573 55.543,142.475 58.559,142.72C59.467,142.793 61.709,143.701 62.041,143.666C62.184,143.65 62.283,143.586 62.337,143.475C62.538,143.051 62.264,142.761 62.235,142.395C62.108,140.799 62.114,139.458 62.254,138.375C62.69,134.974 64.49,132.884 67.647,132.11C69,131.779 71.166,131.801 72.412,132.091C73.163,132.266 74.278,132.652 75.756,133.244C76.345,133.477 76.804,133.311 77.139,132.744C78.967,129.613 81.682,128.282 85.283,128.794C87.683,129.136 89.647,131.76 89.647,131.76C89.727,131.846 89.819,131.916 89.918,131.976C90.526,132.352 91.322,132.48 92.313,132.355C93.393,132.222 94.622,131.992 95.995,131.664C98.323,131.113 99.792,132.142 100.645,134.19C100.852,134.69 101.072,135.187 101.298,135.681C101.397,135.894 103.158,138.362 105.757,138.43C105.927,138.435 109.784,137.373 111.08,136.948C114.428,135.853 115.782,138.652 115.903,139.258C115.928,139.387 116.416,143.253 113.138,145.338C111.774,146.206 110.606,146.612 109.975,147.899C109.918,148.014 109.895,148.141 109.905,148.272C109.969,149.215 109.884,150.287 109.239,151.256C107.814,153.398 105.939,153.311 105.863,153.314C104.853,153.349 104.076,153.684 103.525,154.317C102.56,154.795 101.531,154.862 100.445,154.518C98.722,153.973 97.155,153.269 95.743,152.406C94.883,151.881 93.998,151.405 93.09,150.983C92.651,150.778 92.084,150.693 91.386,150.721C90.109,150.266 88.692,150.286 87.127,150.782C83.255,152.01 83.492,155.372 83.878,158.713C84.028,160.003 84.034,160.99 83.898,161.675C83.13,165.517 79.384,165.612 76.365,166.695C75.361,167.055 74.683,167.365 74.329,167.628C70.557,170.436 73.209,174.654 76.317,176.522C76.788,176.805 77.462,177.295 77.6,177.812C78.034,179.425 77.197,181.469 76.32,182.886C75.941,183.497 75.498,183.937 74.992,184.201Z" style="fill:white;fill-opacity:0.35;"/>
    <path d="M207.898,196.184C207.898,196.184 198.731,195.811 197.157,195.196C196.383,194.894 195.953,194.448 195.52,193.661C194.495,191.791 193.737,189.839 193.246,187.807C193.026,186.899 192.845,185.631 192.698,184.007C192.577,182.647 192.462,181.369 192.357,180.172C192.284,179.347 192.303,178.789 192.408,178.506C193.453,180.009 194.941,180.729 196.871,180.662C197.986,180.624 199.247,180.494 200.658,180.267C202.359,180.21 203.532,180.145 204.977,181.236C205.647,181.741 206.289,182.504 207.051,182.844C209.235,183.819 211.118,183.057 212.501,181.223C213.332,180.121 214.246,178.172 214.66,176.945C215.82,173.509 216.653,169.86 217.119,165.988C217.142,165.797 217.117,165.599 217.046,165.421C216.841,164.907 216.425,163.726 215.804,161.876C214.754,158.751 212.529,157.27 209.131,157.426C207.815,157.487 206.436,157.809 204.955,157.742C203.646,157.682 202.394,157.589 201.199,157.468L195.393,156.719C195.393,156.719 193.439,156.47 189.172,153.881C187.505,152.87 186.264,151.47 185.595,149.419C185.379,148.753 185.535,143.469 186.009,142.013C186.044,141.908 194.168,142.102 195.224,142.08C199.364,141.993 203.961,141.293 207.169,140.99C210.249,140.697 216.955,140.784 222.216,141.682C223.987,141.984 230.06,144.083 231.647,146.718C233.088,149.111 234.588,153.551 234.609,153.613C234.969,154.649 237.434,161.994 237.699,163.386C237.88,164.338 238.078,165.603 238.291,167.173C238.416,168.109 238.194,175.829 237.304,178.973C235.612,184.945 227.096,190.24 226.43,189.896C226.425,189.839 226.421,189.781 226.417,189.724C225.598,190.422 225.06,190.842 224.796,190.989C222.592,192.209 220.256,193.038 217.788,193.486C217.39,193.558 216.762,193.604 215.912,193.623C215.202,193.639 214.574,193.715 214.033,193.856C212.087,195.047 210.042,195.824 207.898,196.184ZM194.179,187.759C194.395,188.04 194.698,188.304 195.09,188.555C196.652,189.555 198.307,190 200.053,189.896C202.859,189.729 205.367,187.943 205.589,185.052C205.629,184.523 205.471,184.144 205.111,183.918C204.767,183.701 204.323,183.712 203.99,183.949C203.402,184.367 202.295,185.425 201.384,185.816C199.996,186.412 198.346,186.268 196.896,186.211C195.823,186.169 194.229,186.171 194.087,187.418C194.073,187.539 194.106,187.664 194.179,187.759ZM218.998,182.943C220.164,182.628 223.824,181.602 224.725,180.557C228.076,176.678 227.245,168.74 220.862,168.514C220.741,168.508 220.636,168.603 220.626,168.727C220.241,173.54 219.635,178.222 218.817,182.774C218.798,182.879 218.897,182.972 218.998,182.943Z" style="fill:white;fill-opacity:0.25;"/>
    <path d="M72.265,197.627C73.409,196.757 74.215,196.056 74.689,195.525C76.221,193.801 76.89,191.766 76.696,189.415C76.565,187.864 74.992,184.201 74.992,184.201C75.498,183.937 75.941,183.497 76.32,182.886C77.197,181.469 78.034,179.425 77.6,177.812C77.462,177.295 76.788,176.805 76.317,176.522C73.209,174.654 70.557,170.436 74.329,167.628C74.683,167.365 75.361,167.055 76.365,166.695C79.384,165.612 83.13,165.517 83.898,161.675C84.034,160.99 84.028,160.003 83.878,158.713C83.492,155.372 83.255,152.01 87.127,150.782C88.692,150.286 90.109,150.266 91.386,150.721C93.504,153.155 95.368,155.62 96.973,158.114C96.974,158.116 96.976,158.119 96.978,158.122C97.013,158.178 97.204,158.473 97.463,158.874C96.8,158.822 96.023,158.895 95.218,159.111C93.192,159.653 91.765,160.898 92.031,161.887C92.297,162.879 94.154,163.242 96.179,162.698C97.396,162.373 98.397,161.794 98.944,161.169C99.186,161.543 99.355,161.805 99.371,161.831C101.133,164.606 102.471,167.89 103.391,171.69C103.661,172.805 103.401,173.524 102.611,173.846C101.884,174.142 100.865,173.742 100.324,173.728C100.164,173.724 100.005,173.756 99.859,173.821C99,174.199 98.58,174.942 98.597,176.041C98.627,177.971 99.123,179.748 100.075,181.369C99.097,181.118 98.141,180.869 97.215,180.608C96.912,180.523 96.667,180.504 96.486,180.548C96.059,180.651 95.957,181.21 96.32,181.455C97.622,182.335 99.018,182.927 100.499,183.23C100.642,184.239 100.749,185.189 100.83,186.074C100.902,186.867 100.843,187.969 100.665,188.603C100.493,189.212 99.891,190.517 98.855,192.521L95.581,192.687C95.279,192.602 94.969,192.542 94.653,192.506C92.239,192.078 86.15,191.119 86.15,191.119C86.054,191.088 85.959,191.177 85.99,191.272C86.042,191.428 86.755,192.091 87.054,192.499C89.241,195.474 90.738,198.736 91.558,202.284C91.59,202.421 91.504,202.554 91.367,202.58C87.052,203.379 83.013,202.701 78.922,201.373C76.416,200.559 74.195,199.312 72.265,197.627ZM97.571,164.486C97.072,164.548 96.775,165.482 96.906,166.572C97.04,167.663 97.549,168.498 98.05,168.439C98.55,168.377 98.846,167.444 98.715,166.353C98.581,165.262 98.072,164.427 97.571,164.486Z" style="fill:white;fill-opacity:0.95;"/>
    <path d="M96.978,158.122L96.973,158.114C95.368,155.62 93.504,153.155 91.386,150.721C92.084,150.693 92.651,150.778 93.09,150.983C93.998,151.405 94.883,151.881 95.743,152.406C97.155,153.269 98.722,153.973 100.445,154.518C101.531,154.862 102.56,154.795 103.525,154.317C104.248,155.837 104.78,157.398 105.121,159.003C103.961,159.035 103.321,159.461 103.203,160.283C103.05,161.357 104.907,162.478 105.732,162.854C105.732,162.854 107.238,168.577 106.433,180.656C105.391,181.411 104.429,181.809 103.544,181.844C102.327,181.892 101.171,181.736 100.075,181.369C99.123,179.748 98.627,177.971 98.597,176.041C98.58,174.942 99,174.199 99.859,173.821C100.005,173.756 100.164,173.724 100.324,173.728C100.865,173.742 101.884,174.142 102.611,173.846C103.401,173.524 103.661,172.805 103.391,171.69C102.471,167.89 101.133,164.606 99.371,161.831L98.944,161.169C99.309,160.753 99.473,160.317 99.366,159.922C99.206,159.324 98.468,158.954 97.463,158.874L96.978,158.122ZM105.015,164.664C104.619,164.713 104.384,165.453 104.488,166.319C104.594,167.184 104.998,167.847 105.395,167.8C105.791,167.75 106.026,167.01 105.923,166.145C105.817,165.279 105.412,164.617 105.015,164.664Z" style="fill:white;fill-opacity:0.75;"/>
    <path d="M105.015,164.664C104.619,164.713 104.384,165.453 104.488,166.319C104.594,167.184 104.998,167.847 105.395,167.8C105.791,167.75 106.026,167.01 105.923,166.145C105.817,165.279 105.412,164.617 105.015,164.664Z" style="fill:white;fill-opacity:0.15;"/>
    <path d="M192.963,164.448C193.256,161.716 194.068,159.14 195.393,156.719L201.199,157.468C200.489,159.293 199.767,161.086 199.027,162.854C198.432,164.275 197.978,165.507 197.667,166.549C196.616,170.064 195.765,173.579 195.523,176.98C195.432,178.27 195.979,178.818 197.164,178.63C198.225,178.462 198.93,178.272 199.683,178.719C199.807,178.793 199.972,179.042 200.187,179.471C200.322,179.742 200.48,180.009 200.658,180.267C199.247,180.494 197.986,180.624 196.871,180.662C194.941,180.729 193.453,180.009 192.408,178.506L192.513,167.044C193.498,166.518 194.854,165.784 195.125,164.954C195.213,164.684 195.029,164.388 194.726,164.32C194.169,164.195 193.56,164.271 192.963,164.448ZM193.437,169.822C193.026,169.804 192.66,170.572 192.619,171.536C192.577,172.502 192.873,173.298 193.284,173.316C193.695,173.333 194.061,172.566 194.102,171.601C194.144,170.635 193.848,169.839 193.437,169.822Z" style="fill:white;fill-opacity:0.75;"/>
    <path d="M200.658,180.267C202.359,180.21 203.532,180.145 204.977,181.236C205.647,181.741 206.289,182.504 207.051,182.844C209.235,183.819 211.118,183.057 212.501,181.223C213.332,180.121 214.246,178.172 214.66,176.945C215.82,173.509 216.653,169.86 217.119,165.988C217.142,165.797 217.117,165.599 217.046,165.421C216.841,164.907 216.425,163.726 215.804,161.876C214.754,158.751 212.529,157.27 209.131,157.426C207.815,157.487 206.436,157.809 204.955,157.742C203.646,157.682 202.394,157.589 201.199,157.468C200.489,159.293 199.767,161.086 199.027,162.854C198.432,164.275 197.978,165.507 197.667,166.549C196.616,170.064 195.765,173.579 195.523,176.98C195.432,178.27 195.979,178.818 197.164,178.63C198.225,178.462 198.93,178.272 199.683,178.719C199.807,178.793 199.972,179.042 200.187,179.471C200.322,179.742 200.48,180.009 200.658,180.267ZM201.811,166.705C202.919,166.893 204.52,167.177 205.267,166.67C205.502,166.51 205.538,166.163 205.34,165.924C204.633,165.068 203.298,164.695 202.184,164.507C201.072,164.319 199.686,164.229 198.74,164.803C198.473,164.965 198.391,165.303 198.562,165.533C199.1,166.257 200.703,166.517 201.811,166.705ZM200.469,169.263C200.008,169.253 199.616,170.113 199.594,171.185C199.572,172.257 199.929,173.132 200.388,173.142C200.849,173.152 201.241,172.292 201.263,171.22C201.285,170.148 200.929,169.272 200.469,169.263Z" style="fill:white;fill-opacity:0.95;"/>
    <path d="M97.463,158.874C98.468,158.954 99.206,159.324 99.366,159.922C99.473,160.317 99.309,160.753 98.944,161.169C98.397,161.794 97.396,162.373 96.179,162.698C94.154,163.242 92.297,162.879 92.031,161.887C91.765,160.898 93.192,159.653 95.218,159.111C96.023,158.895 96.8,158.822 97.463,158.874Z" style="fill:white;fill-opacity:0.15;"/>
    <path d="M105.121,159.003L105.732,162.854C104.907,162.478 103.05,161.357 103.203,160.283C103.321,159.461 103.961,159.035 105.121,159.003Z" style="fill:white;fill-opacity:0.15;"/>
    <path d="M201.811,166.705C202.919,166.893 204.52,167.177 205.267,166.67C205.502,166.51 205.538,166.163 205.34,165.924C204.633,165.068 203.298,164.695 202.184,164.507C201.072,164.319 199.686,164.229 198.74,164.803C198.473,164.965 198.391,165.303 198.562,165.533C199.1,166.257 200.703,166.517 201.811,166.705Z" style="fill:white;fill-opacity:0.15;"/>
    <path d="M97.571,164.486C97.072,164.548 96.775,165.482 96.906,166.572C97.04,167.663 97.549,168.498 98.05,168.439C98.55,168.377 98.846,167.444 98.715,166.353C98.581,165.262 98.072,164.427 97.571,164.486Z" style="fill:white;fill-opacity:0.15;"/>
    <path d="M218.998,182.943C220.164,182.628 223.824,181.602 224.725,180.557C228.076,176.678 227.245,168.74 220.862,168.514C220.741,168.508 220.636,168.603 220.626,168.727C220.241,173.54 219.635,178.222 218.817,182.774C218.798,182.879 218.897,182.972 218.998,182.943Z" style="fill:white;fill-opacity:0.95;"/>
    <path d="M200.469,169.263C200.008,169.253 199.616,170.113 199.594,171.185C199.572,172.257 199.929,173.132 200.388,173.142C200.849,173.152 201.241,172.292 201.263,171.22C201.285,170.148 200.929,169.272 200.469,169.263Z" style="fill:white;fill-opacity:0.15;"/>
    <path d="M193.437,169.822C193.026,169.804 192.66,170.572 192.619,171.536C192.577,172.502 192.873,173.298 193.284,173.316C193.695,173.333 194.061,172.566 194.102,171.601C194.144,170.635 193.848,169.839 193.437,169.822Z" style="fill:white;fill-opacity:0.15;"/>
    <path d="M106.433,180.656C106.181,181.468 106.083,182.201 106.143,182.851C104.404,183.723 102.522,183.851 100.499,183.23C99.018,182.927 97.622,182.335 96.32,181.455C95.957,181.21 96.059,180.651 96.486,180.548C96.667,180.504 96.912,180.523 97.215,180.608C98.141,180.869 99.097,181.118 100.075,181.369C101.171,181.736 102.327,181.892 103.544,181.844C104.429,181.809 105.391,181.411 106.433,180.656Z" style="fill:white;fill-opacity:0.15;"/>
    <path d="M106.143,182.851C105.841,189.185 103.514,192.558 98.855,192.521C99.891,190.517 100.493,189.212 100.665,188.603C100.843,187.969 100.902,186.867 100.83,186.074C100.749,185.189 100.642,184.239 100.499,183.23C102.522,183.851 104.404,183.723 106.143,182.851Z" style="fill:white;fill-opacity:0.75;"/>
    <path d="M194.179,187.759C194.395,188.04 194.698,188.304 195.09,188.555C196.652,189.555 198.307,190 200.053,189.896C202.859,189.729 205.367,187.943 205.589,185.052C205.629,184.523 205.471,184.144 205.111,183.918C204.767,183.701 204.323,183.712 203.99,183.949C203.402,184.367 202.295,185.425 201.384,185.816C199.996,186.412 198.346,186.268 196.896,186.211C195.823,186.169 194.229,186.171 194.087,187.418C194.073,187.539 194.106,187.664 194.179,187.759Z" style="fill:white;fill-opacity:0.95;"/>
    <path d="M226.43,189.896C226.683,193.088 227.535,196.213 228.984,199.27C229.344,200.025 229.828,200.713 230.437,201.334C229.076,202.707 227.414,204.119 225.452,205.574C222.028,208.113 218.304,209.516 214.284,209.788C213.673,209.829 213.16,209.842 212.746,209.829C211.631,209.795 210.774,209.897 209.529,209.686C209.344,209.655 209.22,209.476 209.255,209.291L211.217,199.108C211.23,199.047 211.248,198.99 211.271,198.936C211.876,197.506 212.717,196.167 213.752,194.91C213.902,194.728 213.998,194.378 214.033,193.856C214.574,193.715 215.202,193.639 215.912,193.623C216.762,193.604 217.39,193.558 217.788,193.486C220.256,193.038 222.592,192.209 224.796,190.989C225.06,190.842 225.598,190.422 226.417,189.724C226.374,189.814 226.38,189.87 226.43,189.896Z" style="fill:white;fill-opacity:0.95;"/>
    <path d="M226.417,189.724C226.421,189.781 226.425,189.839 226.43,189.896C226.38,189.87 226.374,189.814 226.417,189.724Z" style="fill:white;fill-opacity:0.95;"/>
    <path d="M94.653,192.506C95.134,192.591 95.469,192.655 95.581,192.687C95.025,192.9 94.303,196.465 94.437,197.78C94.527,198.655 94.412,199.506 94.619,200.334C94.702,200.672 95.008,200.911 95.358,200.911L96.243,200.911C96.263,200.911 96.282,200.914 96.301,200.917C97.642,201.239 98.757,201.831 99.645,202.688C100.559,203.57 101.719,204.708 102.579,206.074C104.181,208.616 105.535,211.381 106.643,214.368C107.398,216.407 107.936,217.939 108.255,218.965C109.3,222.331 110.507,226.772 111.876,232.282C112.096,233.177 112.342,234.263 112.606,235.537C112.778,236.356 112.975,236.633 113.198,236.365L113.151,267.058C108.984,266.466 104.986,265.321 101.155,263.618C99.61,262.931 98.439,262.238 97.645,261.545C94.739,259.006 92.771,255.372 91.392,251.744C89.627,247.097 88.425,242.516 87.363,237.792C86.984,236.107 86.599,234.543 86.21,233.107C85.587,230.807 85.135,228.651 84.356,226.526C83.957,225.437 82.158,224.838 82.439,226.676C82.837,229.282 83.312,231.626 83.863,233.709C85.491,239.866 87.448,246.533 89.742,253.712C91.108,257.984 93.144,262.291 96.989,264.787C98.005,265.447 99.566,266.119 101.677,266.806C103.917,267.536 105.548,268.016 106.567,268.253C108.8,268.77 111.016,269.316 113.214,269.893C113.237,272.279 113.28,274.626 113.345,276.942C113.392,278.64 114.597,278.84 115.966,278.84C148.72,278.842 168.761,278.842 176.087,278.831C177.836,278.828 180.203,278.852 183.184,278.92C183.436,278.926 183.745,278.957 184.108,279.015C184.401,279.062 184.71,279.101 185.031,279.124C185.067,279.94 184.919,280.748 184.587,281.549C146.183,281.571 98.037,281.604 73.417,281.623C73.387,281.557 73.355,281.491 73.323,281.427C73.078,280.945 72.925,280.636 72.864,280.497C71.37,277.073 70.192,273.957 69.37,271.135C68.398,267.8 67.789,265.596 67.545,264.526C65.703,256.471 64.267,248.405 63.213,240.328C62.857,237.601 62.611,234.731 61.184,232.642C60.072,231.014 59.107,229.352 58.295,227.654C57.979,226.994 57.327,225.358 56.454,222.707C56.437,222.656 56.409,222.612 56.371,222.577C55.994,222.222 56.323,221.819 56.126,221.433C55.68,216.346 56.588,210.89 59.021,206.37C59.9,204.739 60.929,203.344 62.104,202.185C64.847,199.481 68.233,197.961 72.265,197.627C74.195,199.312 76.416,200.559 78.922,201.373C83.013,202.701 87.052,203.379 91.367,202.58C91.504,202.554 91.59,202.421 91.558,202.284C90.738,198.736 89.241,195.474 87.054,192.499C86.755,192.091 86.042,191.428 85.99,191.272C85.959,191.177 86.054,191.088 86.15,191.119C86.15,191.119 92.239,192.078 94.653,192.506Z" style="fill:white;fill-opacity:0.75;"/>
    <path d="M177.409,231.183C177.409,231.183 175.425,227.033 174.651,225.265C174.603,225.163 174.571,224.266 174.778,223.742C175.664,221.503 177.114,219.675 179.139,218.264C179.629,217.922 180.537,217.35 181.859,216.544C182.255,216.302 183.305,216.381 183.35,216.448L192.561,230.47C192.673,230.642 192.927,230.635 193.029,230.457C193.23,230.11 193.354,229.67 193.408,229.144C193.835,224.873 195.001,221.089 196.906,217.796C197.473,216.818 198.33,215.712 199.476,214.477C201.021,212.811 202.308,211.441 203.337,210.374C203.506,210.199 203.671,210.024 203.84,209.842C205.14,208.453 206.242,206.928 207.149,205.265C208.146,203.446 208.589,201.64 208.484,199.853C208.455,199.337 208.258,198.114 207.898,196.184C210.042,195.824 212.087,195.047 214.033,193.856C213.998,194.378 213.902,194.728 213.752,194.91C212.717,196.167 211.876,197.506 211.271,198.936C211.248,198.99 211.23,199.047 211.217,199.108L209.255,209.291C209.22,209.476 209.344,209.655 209.529,209.686C210.774,209.897 211.631,209.795 212.746,209.829C213.16,209.842 213.673,209.829 214.284,209.788C218.304,209.516 222.028,208.113 225.452,205.574C227.414,204.119 229.076,202.707 230.437,201.334C232.223,202.886 234.058,204.52 235.937,206.23C238.422,208.492 240.515,210.161 242.907,212.037C243.98,212.881 244.811,213.69 245.394,214.464C246.095,215.394 246.672,216.407 247.121,217.499C248.71,221.363 249.296,225.37 248.882,229.524C248.417,231.597 247.633,235.441 246.531,241.064C246.069,243.424 245.366,246.214 244.413,249.441C242.445,256.11 239.587,261.844 235.82,267.666C234.068,270.374 231.92,272.886 229.688,275.19C227.315,277.639 224.561,279.752 221.424,281.53C216.478,281.532 210.777,281.534 204.532,281.538C202.19,280.092 200.397,278.273 199.155,276.085C197.664,273.46 196.18,270.52 194.702,267.262L185.414,248.198C185.382,247.985 185.305,247.902 185.184,247.947C185.162,247.874 185.152,247.791 185.152,247.705C185.154,239.525 185.136,234.668 185.101,233.132C185.076,231.989 184.538,231.358 183.486,231.247C183.2,231.216 180.941,231.196 177.409,231.183Z" style="fill:white;fill-opacity:0.75;"/>
    <path d="M174.778,223.742C173.424,222.478 171.121,222.863 169.315,223.064C167.611,223.255 166.258,223.265 165.258,223.089C164.009,222.876 162.505,222.271 161.537,221.436C159.4,219.592 158.473,217.273 158.756,214.48C158.811,213.951 158.925,213.445 159.104,212.957C159.464,211.986 160.094,210.645 159.11,210.106C156.409,208.638 153.788,207.504 153.3,204.239C153.237,203.809 153.682,203.481 154.074,203.676C154.269,203.774 154.568,203.87 154.969,203.969C155.106,204.004 155.237,204.048 155.364,204.106C157.702,205.16 160.572,206.74 163.974,208.851C165.101,209.552 168.624,211.234 170,210.431C171.497,209.562 170.813,207.536 169.978,206.421C168.911,204.997 168.248,204.08 167.984,203.663C167.834,203.427 167.898,203.112 168.131,202.952C168.78,202.51 169.854,202.742 170.548,203.156C173.746,205.058 176.116,207.198 177.658,209.578C179.521,212.454 180.623,214.273 180.964,215.04C181.25,215.681 181.55,216.184 181.859,216.544C180.537,217.35 179.629,217.922 179.139,218.264C177.114,219.675 175.664,221.503 174.778,223.742Z" style="fill:white;fill-opacity:0.95;"/>
    <path d="M60.088,281.634C58.959,278.6 58.134,275.49 57.613,272.301C56.661,266.498 56.129,260.624 56.011,254.677C55.986,253.355 55.763,251.83 55.759,250.412C55.74,240.643 55.743,232.234 55.766,225.179C55.766,225.071 55.775,224.962 55.798,224.857C56.024,223.742 56.135,222.602 56.126,221.433C56.323,221.819 55.994,222.222 56.371,222.577C56.409,222.612 56.437,222.656 56.454,222.707C57.327,225.358 57.979,226.994 58.295,227.654C59.107,229.352 60.072,231.014 61.184,232.642C62.611,234.731 62.857,237.601 63.213,240.328C64.267,248.405 65.703,256.471 67.545,264.526C67.789,265.596 68.398,267.8 69.37,271.135C70.192,273.957 71.37,277.073 72.864,280.497C72.925,280.636 73.078,280.945 73.323,281.427C73.355,281.491 73.387,281.557 73.417,281.623C67.416,281.628 62.812,281.632 60.088,281.634Z" style="fill:white;fill-opacity:0.5;"/>
    <path d="M113.151,267.058C108.984,266.466 104.986,265.321 101.155,263.618C99.61,262.931 98.439,262.238 97.645,261.545C94.739,259.006 92.771,255.372 91.392,251.744C89.627,247.097 88.425,242.516 87.363,237.792C86.984,236.107 86.599,234.543 86.21,233.107C85.587,230.807 85.135,228.651 84.356,226.526C83.957,225.437 82.158,224.838 82.439,226.676C82.837,229.282 83.312,231.626 83.863,233.709C85.491,239.866 87.448,246.533 89.742,253.712C91.108,257.984 93.144,262.291 96.989,264.787C98.005,265.447 99.566,266.119 101.677,266.806C103.917,267.536 105.548,268.016 106.567,268.253C108.8,268.77 111.016,269.316 113.214,269.893L113.151,267.058Z" style="fill:white;fill-opacity:0.5;"/>
    <path d="M248.882,229.524C248.882,229.524 249.947,266.671 249.771,272.393C249.669,275.703 246.931,281.382 245.64,283.169C245.522,283.037 245.399,282.908 245.27,282.783C244.588,282.371 243.881,282.05 243.152,281.816C242.556,281.625 241.792,281.531 240.865,281.528C239.575,281.524 232.338,281.525 221.424,281.53C224.561,279.752 227.315,277.639 229.688,275.19C231.92,272.886 234.068,270.374 235.82,267.666C239.587,261.844 242.445,256.11 244.413,249.441C245.366,246.214 246.069,243.424 246.531,241.064C247.633,235.441 248.417,231.597 248.882,229.524Z" style="fill:white;fill-opacity:0.5;"/>
    <path d="M185.101,233.132C185.136,234.668 185.154,239.525 185.152,247.705C185.152,247.791 185.162,247.874 185.184,247.947C185.152,248.055 185.146,248.163 185.165,248.275C185.085,248.625 185.047,248.912 185.047,249.138C185.057,259.124 185.05,269.119 185.031,279.124C184.71,279.101 184.401,279.062 184.108,279.015C183.745,278.957 183.436,278.926 183.184,278.92C180.203,278.852 177.836,278.828 176.087,278.831C168.761,278.842 148.72,278.842 115.966,278.84C114.597,278.84 113.392,278.64 113.345,276.942C113.28,274.626 113.237,272.279 113.214,269.893L113.151,267.058L113.198,236.365C113.431,235.247 113.517,234.091 113.463,232.897C113.399,231.613 114.88,231.196 115.966,231.202C118.65,231.213 161.289,231.122 177.409,231.183C180.941,231.196 183.2,231.216 183.486,231.247C184.538,231.358 185.076,231.989 185.101,233.132ZM155.654,254.961C155.654,251.336 152.717,248.399 149.093,248.399C145.468,248.399 142.531,251.336 142.531,254.961C142.531,258.585 145.468,261.522 149.093,261.522C152.717,261.522 155.654,258.585 155.654,254.961Z" style="fill:white;fill-opacity:0.95;"/>
    <path d="M155.654,254.961C155.654,251.336 152.717,248.399 149.093,248.399C145.468,248.399 142.531,251.336 142.531,254.961C142.531,258.585 145.468,261.522 149.093,261.522C152.717,261.522 155.654,258.585 155.654,254.961Z" style="fill:white;fill-opacity:0.5;"/>
    <path d="M204.532,281.538C202.19,280.092 200.397,278.273 199.155,276.085C197.664,273.46 196.18,270.52 194.702,267.262C194.163,270.243 193.851,272.537 193.765,274.142C193.689,275.547 193.596,276.579 193.491,277.238C193.389,277.889 193.378,279.323 193.458,281.544C197.298,281.542 201.002,281.54 204.532,281.538Z" style="fill:white;fill-opacity:0.5;"/>
    <path d="M245.64,283.169C246.731,284.388 247.378,285.882 247.579,287.648C247.755,289.184 247.825,290.382 247.783,291.249C247.713,292.738 247.681,293.618 247.688,293.896C247.71,294.833 247.589,295.7 247.321,296.499C246.805,298.042 245.882,299.079 244.55,299.615C243.932,299.866 242.55,299.99 240.406,299.99C130.227,300.006 68.577,300.003 55.45,299.98C52.138,299.973 51.045,297.711 50.622,294.682C50.147,291.296 50.287,288.274 51.036,285.614C51.574,283.71 52.641,282.468 54.243,281.889C54.667,281.735 55.686,281.652 57.295,281.638L60.088,281.634L73.417,281.623C98.037,281.604 146.183,281.571 184.587,281.549L193.458,281.544L204.532,281.538L221.424,281.53C232.338,281.525 239.575,281.524 240.865,281.528C241.792,281.531 242.556,281.625 243.152,281.816C243.881,282.05 244.588,282.371 245.27,282.783C245.399,282.908 245.522,283.037 245.64,283.169Z" style="fill:white;fill-opacity:0.95;"/>
    <path d="M158.107,53.741L160.744,54.569L160.152,48.419C160.142,48.345 159.305,46.854 158.362,46.539C157.632,46.296 151.017,46.58 146.853,46.759L144.923,47.95L143.576,48.81C146.769,48.675 153.358,48.371 154.24,48.396C155.926,48.444 157.516,49.695 157.846,51.113C157.951,51.569 158.037,52.445 158.107,53.741Z" style="fill:white;fill-opacity:0.5;"/>
    <path d="M192.413,167.098C193.405,166.568 194.845,165.813 195.125,164.954C195.213,164.684 195.029,164.388 194.726,164.32C193.643,164.076 192.359,164.598 191.363,165.131C190.369,165.664 189.218,166.441 188.821,167.473C188.709,167.766 188.851,168.082 189.127,168.159C189.995,168.402 191.422,167.627 192.413,167.098Z" style="fill:white;fill-opacity:0.15;"/>
</svg>
