<?xml version="1.0" encoding="UTF-8" standalone="no"?>
<!DOCTYPE svg PUBLIC "-//W3C//DTD SVG 1.1//EN" "http://www.w3.org/Graphics/SVG/1.1/DTD/svg11.dtd">
<svg width="100%" height="100%" viewBox="0 0 300 300" version="1.1" xmlns="http://www.w3.org/2000/svg" xmlns:xlink="http://www.w3.org/1999/xlink" xml:space="preserve" xmlns:serif="http://www.serif.com/" style="fill-rule:evenodd;clip-rule:evenodd;stroke-linejoin:round;stroke-miterlimit:2;">
    <path d="M299.776,69.687C292.594,53.385 285.461,37.105 278.271,20.892C278.174,20.674 278.009,20.614 277.77,20.714C277.629,21.195 277.518,21.504 277.434,21.638C276.154,23.687 273.85,27.463 270.528,32.968C265.049,42.048 261.366,48.136 259.446,51.212C259.389,51.303 259.436,51.423 259.54,51.454C266.537,53.521 272.872,55.53 278.58,57.379C283.695,59.037 287.961,60.565 291.375,61.961C292.278,62.331 293.239,62.939 294.257,63.785C295.862,65.119 297.703,67.087 299.776,69.687Z" style="fill:white;fill-opacity:0.95;"/>
    <path d="M207.601,51.454L205.192,52.626L240.097,59.321C240.292,59.358 240.396,59.573 240.302,59.748C236.818,66.237 233.705,72.637 230.937,78.938C228.962,83.426 227.366,87.266 226.553,91.32C226.352,92.325 226.248,93.42 226.241,94.599C226.228,96.692 226.291,98.771 226.432,100.84C226.476,101.112 226.591,101.36 226.782,101.583C226.851,101.664 226.966,101.687 227.06,101.643L228.649,100.921C228.478,100.874 228.337,100.787 228.219,100.659C228.145,100.578 228.102,100.477 228.098,100.37C228.014,98.095 227.99,95.986 228.068,94.041C228.115,92.876 228.37,91.448 228.831,89.758C229.625,86.846 231.182,83.222 232.499,80.356C235.435,73.964 238.835,67.152 242.764,59.956C242.801,59.889 242.875,59.855 242.946,59.872L252.563,61.766C252.822,61.817 253.084,61.703 253.221,61.478L258.082,53.469C258.193,53.291 258.405,53.204 258.606,53.261C267.706,55.723 276.14,58.251 283.917,60.846C284.623,61.081 286.256,61.702 288.818,62.707C290.273,63.278 291.455,63.906 292.366,64.592C294.834,66.449 296.78,68.777 298.671,71.128L299.88,70.594C299.974,70.554 300.021,70.45 299.991,70.356L299.776,69.687C297.703,67.087 295.862,65.119 294.257,63.785C293.239,62.939 292.278,62.331 291.375,61.961C287.961,60.565 283.695,59.037 278.58,57.379C272.872,55.53 266.537,53.521 259.54,51.454C259.436,51.423 259.389,51.303 259.446,51.212C261.366,48.136 265.049,42.048 270.528,32.968C273.85,27.463 276.154,23.687 277.434,21.638C277.518,21.504 277.629,21.195 277.77,20.714L275.751,21.51C275.758,21.826 275.556,22.313 275.15,22.972C268.869,33.152 261.321,45.291 252.66,59.479C252.583,59.606 252.435,59.673 252.291,59.647C239.099,57.226 225.374,54.763 211.141,52.166C211.131,52.163 210.601,52.088 209.549,51.941C208.871,51.846 208.222,51.686 207.601,51.454Z" style="fill:white;fill-opacity:0.5;"/>
    <path d="M275.751,21.51L207.601,51.454C208.222,51.686 208.871,51.846 209.549,51.941C210.601,52.088 211.131,52.163 211.141,52.166C225.374,54.763 239.099,57.226 252.291,59.647C252.435,59.673 252.583,59.606 252.66,59.479C261.321,45.291 268.869,33.152 275.15,22.972C275.556,22.313 275.758,21.826 275.751,21.51Z" style="fill:white;fill-opacity:0.95;"/>
    <path d="M205.192,52.626L226.432,100.84C226.291,98.771 226.228,96.692 226.241,94.599C226.248,93.42 226.352,92.325 226.553,91.32C227.366,87.266 228.962,83.426 230.937,78.938C233.705,72.637 236.818,66.237 240.302,59.748C240.396,59.573 240.292,59.358 240.097,59.321L205.192,52.626Z" style="fill:white;fill-opacity:0.95;"/>
    <path d="M228.649,100.921L298.671,71.128C296.78,68.777 294.834,66.449 292.366,64.592C291.455,63.906 290.273,63.278 288.818,62.707C286.256,61.702 284.623,61.081 283.917,60.846C276.14,58.251 267.706,55.723 258.606,53.261C258.405,53.204 258.193,53.291 258.082,53.469L253.221,61.478C253.084,61.703 252.822,61.817 252.563,61.766L242.946,59.872C242.875,59.855 242.801,59.889 242.764,59.956C238.835,67.152 235.435,73.964 232.499,80.356C231.182,83.222 229.625,86.846 228.831,89.758C228.37,91.448 228.115,92.876 228.068,94.041C227.99,95.986 228.014,98.095 228.098,100.37C228.102,100.477 228.145,100.578 228.219,100.659C228.337,100.787 228.478,100.874 228.649,100.921ZM259.288,67.937C257.294,67.315 255.486,67.733 253.883,69.15C251.482,71.273 251.834,74.995 253.826,77.262C254.924,78.512 256.305,79.17 257.968,79.244C258.112,79.251 258.257,79.237 258.398,79.2C259.035,79.036 259.533,78.894 259.893,78.764C261.541,78.166 262.543,77.072 262.95,75.482C262.972,75.394 263.078,75.357 263.148,75.411C264.153,76.192 265.153,76.392 266.171,75.986C268.129,75.205 268.994,73.691 268.757,71.444C268.205,66.187 263.786,62.173 258.374,62.556C253.957,62.868 249.4,65.707 247.974,69.929C246.44,74.474 248.57,79.807 252.59,82.237C257.092,84.959 262.908,83.371 266.51,79.694C266.598,79.604 266.598,79.463 266.51,79.375L265.371,78.236C265.301,78.166 265.186,78.169 265.12,78.243C262.311,81.366 257.491,82.788 253.762,80.534C251.485,79.157 249.883,76.379 249.617,73.769C249.074,68.434 253.739,64.633 258.717,64.491C260.225,64.448 261.528,64.73 262.624,65.334C265.075,66.686 266.663,69.368 266.876,72.109C266.92,72.677 266.763,73.128 266.403,73.453C265.363,74.392 264.68,73.433 264.249,72.462C262.363,68.205 261.414,66.05 261.404,65.996C261.378,65.845 261.223,65.757 261.082,65.818L259.271,66.61C259.086,66.691 259.006,66.909 259.09,67.091L259.412,67.796C259.449,67.877 259.372,67.964 259.288,67.937Z" style="fill:white;fill-opacity:0.95;"/>
    <path d="M192.135,61.32C195.67,60.166 199.183,58.946 202.673,57.662C203.21,57.464 203.441,57.249 203.368,57.023C203.293,56.792 202.979,56.755 202.428,56.913C198.854,57.935 195.296,59.024 191.762,60.178C188.228,61.332 184.714,62.551 181.225,63.836C180.687,64.034 180.456,64.249 180.529,64.474C180.604,64.705 180.919,64.742 181.47,64.585C185.047,63.562 188.602,62.473 192.135,61.32Z" style="fill:white;fill-opacity:0.95;"/>
    <path d="M259.288,67.937C257.294,67.315 255.486,67.733 253.883,69.15C251.482,71.273 251.834,74.995 253.826,77.262C254.924,78.512 256.305,79.17 257.968,79.244C258.112,79.251 258.257,79.237 258.398,79.2C259.035,79.036 259.533,78.894 259.893,78.764C261.541,78.166 262.543,77.072 262.95,75.482C262.972,75.394 263.078,75.357 263.148,75.411C264.153,76.192 265.153,76.392 266.171,75.986C268.129,75.205 268.994,73.691 268.757,71.444C268.205,66.187 263.786,62.173 258.374,62.556C253.957,62.868 249.4,65.707 247.974,69.929C246.44,74.474 248.57,79.807 252.59,82.237C257.092,84.959 262.908,83.371 266.51,79.694C266.598,79.604 266.598,79.463 266.51,79.375L265.371,78.236C265.301,78.166 265.186,78.169 265.12,78.243C262.311,81.366 257.491,82.788 253.762,80.534C251.485,79.157 249.883,76.379 249.617,73.769C249.074,68.434 253.739,64.633 258.717,64.491C260.225,64.448 261.528,64.73 262.624,65.334C265.075,66.686 266.663,69.368 266.876,72.109C266.92,72.677 266.763,73.128 266.403,73.453C265.363,74.392 264.68,73.433 264.249,72.462C262.363,68.205 261.414,66.05 261.404,65.996C261.378,65.845 261.223,65.757 261.082,65.818L259.271,66.61C259.086,66.691 259.006,66.909 259.09,67.091L259.412,67.796C259.449,67.877 259.372,67.964 259.288,67.937ZM256.656,69.926C254.975,70.725 254.302,72.818 255.152,74.608C256.002,76.396 258.052,77.199 259.73,76.402C261.411,75.603 262.084,73.51 261.233,71.72C260.384,69.932 258.334,69.129 256.656,69.926Z" style="fill:white;fill-opacity:0.15;"/>
    <path d="M180.586,72.267C184.104,71.12 187.597,69.91 191.067,68.633C191.605,68.435 191.834,68.222 191.759,67.991C191.686,67.766 191.373,67.733 190.825,67.89C187.269,68.91 183.731,69.985 180.217,71.132C176.701,72.279 173.204,73.481 169.733,74.763C169.199,74.96 168.969,75.173 169.044,75.405C169.117,75.63 169.428,75.665 169.978,75.509C173.538,74.5 177.07,73.414 180.586,72.267Z" style="fill:white;fill-opacity:0.95;"/>
    <path d="M256.656,69.926C254.975,70.725 254.302,72.818 255.152,74.608C256.002,76.396 258.052,77.199 259.73,76.402C261.411,75.603 262.084,73.51 261.233,71.72C260.384,69.932 258.334,69.129 256.656,69.926Z" style="fill:white;fill-opacity:0.95;"/>
    <path d="M195.78,78.226C192.236,79.384 188.717,80.611 185.215,81.898C184.675,82.097 184.444,82.311 184.52,82.543C184.595,82.771 184.906,82.805 185.461,82.647C189.046,81.622 192.609,80.529 196.153,79.372C199.697,78.214 203.217,76.991 206.717,75.7C207.255,75.502 207.487,75.287 207.413,75.055C207.339,74.827 207.023,74.793 206.472,74.951C202.885,75.979 199.32,77.07 195.78,78.226Z" style="fill:white;fill-opacity:0.95;"/>
    <path d="M155.426,79.543C156.666,79.657 157.665,80.207 158.423,81.199C158.487,81.283 158.544,81.377 158.587,81.475C164.213,93.984 167.454,101.1 168.265,102.842C168.503,103.353 168.595,103.927 168.541,104.569C168.471,105.392 168.181,106.117 167.674,106.739C167.314,107.179 166.666,107.606 165.726,108.025C162.793,109.333 161.111,110.087 160.67,110.289C160.603,110.32 160.532,110.343 160.458,110.357C159.334,110.558 158.377,110.369 157.603,109.792C157.495,109.712 157.398,109.614 157.321,109.503L156.29,108.025C155.521,106.377 154.551,104.283 153.521,102.056C150.335,95.167 146.571,87.007 146.38,86.839C145.901,85.966 146.08,85.075 146.61,84.28C147.117,83.519 147.947,82.846 148.831,82.361L152.242,80.49C153.659,79.713 154.765,79.483 155.426,79.543Z" style="fill:white;fill-opacity:0.25;"/>
    <path d="M199.119,88.747C202.659,87.588 206.18,86.365 209.677,85.076C210.214,84.877 210.445,84.663 210.372,84.437C210.297,84.206 209.982,84.169 209.431,84.327C205.847,85.354 202.287,86.446 198.746,87.605C195.205,88.764 191.685,89.987 188.188,91.277C187.651,91.475 187.419,91.686 187.493,91.915C187.567,92.147 187.883,92.184 188.433,92.026C192.018,90.998 195.578,89.906 199.119,88.747Z" style="fill:white;fill-opacity:0.95;"/>
    <path d="M156.29,108.025C155.288,108.574 153.284,109.427 151.966,109.992C151.625,110.134 151.285,110.281 150.949,110.434C146.424,112.507 141.898,114.567 137.364,116.608C136.968,116.786 136.494,116.991 135.947,117.216C135.235,115.385 134.463,113.579 133.578,111.825C133.529,111.727 133.474,111.536 133.414,111.257C133.357,110.995 133.222,110.884 133.004,110.921L133.182,110.803L151.466,102.553C151.641,102.473 151.728,102.281 151.674,102.1C151.674,102.1 148.208,91.925 145.776,87.098L146.38,86.839C146.571,87.007 150.335,95.167 153.521,102.056C154.478,104.128 155.416,106.152 156.29,108.025Z" style="fill:white;fill-opacity:0.45;"/>
    <path d="M151.674,102.1C151.728,102.281 151.641,102.473 151.466,102.553L133.182,110.803L126.44,95.852L145.776,87.098C148.208,91.925 151.674,102.1 151.674,102.1Z" style="fill:white;fill-opacity:0.55;"/>
    <path d="M151.966,109.992C151.533,110.177 151.174,110.332 150.949,110.434C151.285,110.281 151.625,110.134 151.966,109.992Z" style="fill:white;fill-opacity:0.95;"/>
    <path d="M126.44,95.852L122.322,97.733C124.596,102.634 126.815,107.525 128.933,112.426C128.983,112.543 128.973,112.651 128.896,112.755C129.02,112.738 129.111,112.711 129.161,112.674L133.004,110.921L133.182,110.803L126.44,95.852Z" style="fill:white;fill-opacity:0.4;"/>
    <path d="M122.322,97.733L116.766,100.232C118.832,104.814 120.888,109.374 122.95,113.911C123.222,114.509 123.488,114.902 123.746,115.086L128.896,112.755C128.973,112.651 128.983,112.543 128.933,112.426C126.815,107.525 124.596,102.634 122.322,97.733Z" style="fill:white;fill-opacity:0.55;"/>
    <path d="M116.766,100.232L112.691,102.076L119.453,117.011C119.463,117.021 119.473,117.035 119.483,117.048L123.441,115.285C123.521,115.261 123.622,115.197 123.746,115.086C123.488,114.902 123.222,114.509 122.95,113.911C120.888,109.374 118.832,104.814 116.766,100.232Z" style="fill:white;fill-opacity:0.4;"/>
    <path d="M86.295,109.755C87.269,110.017 88.017,109.801 88.532,109.104C88.822,108.711 88.878,108.277 88.7,107.804C88.112,106.235 87.419,104.672 86.617,103.121C85.796,101.531 83.913,101.918 83.386,103.427C83.547,104.129 85.247,108.439 86.295,109.755Z" style="fill:white;fill-opacity:0.25;"/>
    <path d="M62.932,124.69C62.964,124.663 63.243,124.525 63.709,124.304C66.441,123.008 75.587,118.859 78.683,117.456L79.718,116.988L83.295,115.379L112.691,102.076L119.453,117.011L67.521,140.532C67.467,139.86 67.398,139.306 67.316,138.866C67.06,137.503 66.795,136.036 66.496,134.472C66.467,134.317 66.382,134.207 66.237,134.143C66.17,134.113 66.096,134.19 66.012,134.368C66.039,133.988 66.009,133.696 65.925,133.484C65.888,133.393 65.846,133.283 65.799,133.157C65.229,131.634 63.674,127.102 63.674,127.102C66.058,125.809 65.038,124.65 63.234,125.809C63.208,125.422 63.107,125.05 62.932,124.69Z" style="fill:white;fill-opacity:0.55;"/>
    <path d="M83.386,103.427C83.547,104.129 85.247,108.439 86.295,109.755L81.874,111.71L78.119,113.464L62.025,120.743L60.477,121.465L59.825,121.019C61.73,119.799 63.182,118.551 64.182,117.266C64.592,116.739 64.828,116.141 64.894,115.473C64.943,114.972 64.914,114.431 64.806,113.857C64.682,113.192 64.534,112.584 64.37,112.033L83.386,103.427Z" style="fill:white;fill-opacity:0.4;"/>
    <path d="M79.741,142.316C79.741,142.316 80.347,145.816 80.49,146.978C80.514,147.173 80.525,147.302 80.517,147.338C80.497,147.428 80.437,147.506 80.353,147.542L75.008,149.897L68.193,152.393C66.328,151.382 64.391,151.065 62.368,151.362C62.267,151.377 62.166,151.335 62.106,151.251C61.597,150.54 61.279,149.729 61.152,148.826L61.216,148.664C61.259,148.554 61.162,148.439 61.044,148.463C59.019,148.882 57.086,148.817 55.223,148.278C55.102,148.243 54.971,148.248 54.853,148.295C54.027,148.627 53.231,148.799 52.462,148.816C51.336,148.84 50.06,148.785 48.639,148.654C46.479,148.073 45.118,147.593 44.558,147.207C44.057,146.861 43.503,146.481 42.895,146.064C41.272,145.315 40.053,144.671 39.24,144.126C37.832,143.183 36.724,141.812 35.914,140.015C35.521,139.141 35.145,138.254 34.786,137.351C34.809,137.25 34.779,137.018 34.692,136.659C34.381,135.385 34.239,133.777 34.265,131.828C34.303,129.044 34.319,126.88 34.319,125.338C34.319,121.761 35.961,119.134 39.085,117.162C41.396,115.704 43.368,114.978 46.17,114.099C49.724,112.983 54.363,112.277 56.933,111.69C58.817,111.26 60.332,110.843 61.474,110.441C61.914,110.286 62.358,110.054 62.804,109.742C62.949,109.641 63.15,109.688 63.231,109.846L64.37,112.033C64.534,112.584 64.682,113.192 64.806,113.857C64.914,114.431 64.943,114.972 64.894,115.473C64.828,116.141 64.592,116.739 64.182,117.266C63.182,118.551 61.73,119.799 59.825,121.019L56.268,122.722L53.58,123.807C53.53,123.827 53.479,123.841 53.426,123.847C52.358,123.974 51.447,124.166 50.695,124.438C49.058,125.031 48.19,126.205 48.078,127.962C48.001,129.161 47.937,130.088 47.893,130.75C47.882,130.918 47.914,131.086 47.984,131.237C49.167,133.785 50.531,136.091 52.089,138.15C53.275,139.719 55.322,141.547 57.326,140.149C58.088,139.617 58.472,138.397 59.281,137.808C59.805,137.425 60.416,137.179 61.118,137.069C63.023,136.837 65.344,136.504 66.012,134.368C66.096,134.19 66.17,134.113 66.237,134.143C66.382,134.207 66.467,134.317 66.496,134.472C66.795,136.036 67.06,137.503 67.316,138.866C67.398,139.306 67.467,139.86 67.521,140.532C67.474,141.254 67.437,142.087 67.413,143.034C67.387,144.076 67.129,144.974 66.641,145.722C66.57,145.829 66.479,145.927 66.375,146.001C65.163,146.861 63.916,147.526 62.643,147.999C62.63,148.006 62.62,148.023 62.626,148.036L62.67,148.13C62.684,148.164 62.724,148.178 62.757,148.164C64.256,147.545 65.734,146.881 67.212,146.219L76.755,141.943C78.005,141.383 78.999,141.506 79.741,142.316ZM50.134,142.222L46.207,133.646C46.17,133.568 46.083,133.531 46.002,133.558C42.707,134.697 42.985,138.523 44.776,140.764C45.357,141.489 45.898,141.909 46.402,142.02C47.399,142.245 48.636,142.326 50.107,142.265C50.13,142.265 50.144,142.242 50.134,142.222ZM66.513,139.934C65.807,139.33 63.695,140.553 62.606,140.663C62.035,140.721 61.689,140.723 61.572,140.673C60.867,140.373 60.356,140.165 60.04,140.041C59.701,139.909 59.425,139.923 59.21,140.085C58.927,140.299 58.828,140.683 58.972,141.012C59.679,142.63 61.249,143.332 62.996,143.085C64.457,142.878 65.658,142.15 66.6,140.905C66.832,140.599 66.792,140.173 66.513,139.934Z" style="fill:white;fill-opacity:0.25;"/>
    <path d="M132.147,118.852L135.947,117.216C135.235,115.385 134.463,113.579 133.578,111.825C133.529,111.727 133.474,111.536 133.414,111.257C133.357,110.995 133.222,110.884 133.004,110.921L129.161,112.674C130.004,114.844 130.999,116.904 132.147,118.852Z" style="fill:white;fill-opacity:0.25;"/>
    <path d="M83.295,115.379L81.874,111.71L78.119,113.464L79.718,116.988L83.295,115.379Z" style="fill:white;fill-opacity:0.25;"/>
    <path d="M131.224,119.225C131.496,119.356 131.801,119.232 132.147,118.852C130.999,116.904 130.004,114.844 129.161,112.674C129.111,112.711 129.02,112.738 128.896,112.755L123.746,115.086C123.622,115.197 123.521,115.261 123.441,115.285L125.402,119.242C125.443,119.326 125.543,119.363 125.631,119.326C127.399,118.573 129.863,116.826 131.224,119.225Z" style="fill:white;fill-opacity:0.45;"/>
    <path d="M105.755,135.443C105.744,135.288 105.849,135.161 106.074,135.06L131.109,123.642C133.162,122.708 132.121,120.552 131.224,119.225C129.863,116.826 127.399,118.573 125.631,119.326C125.543,119.363 125.443,119.326 125.402,119.242L123.441,115.285L119.483,117.048L121.304,121.072C121.348,121.17 121.307,121.281 121.21,121.324C109.47,126.579 97.717,131.83 85.959,137.092C84.908,137.563 84.237,137.988 83.947,138.372C83.484,138.985 83.366,139.753 83.591,140.673C83.944,141.358 84.216,141.838 84.414,142.114C85.053,143.004 85.959,143.552 87.138,143.753L89.107,142.863L93.665,140.737C93.766,140.69 93.89,140.723 93.951,140.817L95.422,143.068C96.144,143.082 96.742,143.572 97.216,144.543C98.153,144.183 99.275,144.591 98.878,145.792C98.865,145.833 98.845,145.87 98.815,145.9L97.968,146.814L102.674,154.325C102.741,154.432 102.872,154.486 103,154.459L105.079,153.982C105.076,153.764 104.975,153.532 104.777,153.287C104.481,152.921 104.323,152.723 104.3,152.689C101.605,148.758 98.862,144.529 95.929,140.105C95.815,139.934 95.882,139.698 96.07,139.612C98.983,138.277 102.033,136.891 105.22,135.45C105.348,135.392 105.526,135.389 105.755,135.443Z" style="fill:white;fill-opacity:0.25;"/>
    <path d="M83.591,140.673C83.366,139.753 83.484,138.985 83.947,138.372C84.237,137.988 84.908,137.563 85.959,137.092C97.717,131.83 109.47,126.579 121.21,121.324C121.307,121.281 121.348,121.17 121.304,121.072L119.483,117.048C119.473,117.035 119.463,117.021 119.453,117.011L67.521,140.532C67.474,141.254 67.437,142.087 67.413,143.034C67.387,144.076 67.129,144.974 66.641,145.722C66.57,145.829 66.479,145.927 66.375,146.001C65.163,146.861 63.916,147.526 62.643,147.999C62.63,148.006 62.62,148.023 62.626,148.036L62.67,148.13C62.684,148.164 62.724,148.178 62.757,148.164C64.256,147.545 65.734,146.881 67.212,146.219C70.531,144.732 73.713,143.306 76.755,141.943C78.005,141.383 78.999,141.506 79.741,142.316C79.757,142.357 79.944,142.308 80.23,142.204C80.303,142.147 80.392,142.109 80.484,142.097C80.496,142.096 80.509,142.094 80.522,142.092C81.484,141.711 83.056,140.974 83.591,140.673Z" style="fill:white;fill-opacity:0.45;"/>
    <path d="M80.522,142.092C80.417,142.134 80.319,142.172 80.23,142.204C80.303,142.147 80.392,142.109 80.484,142.097C80.496,142.096 80.509,142.094 80.522,142.092Z" style="fill:white;fill-opacity:0.95;"/>
    <path d="M62.025,120.743L63.709,124.304C63.243,124.525 62.964,124.663 62.932,124.69L60.477,121.465L62.025,120.743Z" style="fill:white;fill-opacity:0.25;"/>
    <path d="M60.215,127.448L60.19,127.415C60.076,127.268 59.601,126.659 58.992,125.903C58.136,124.84 57.015,123.486 56.268,122.722L59.825,121.019L60.477,121.465L62.932,124.69C63.107,125.05 63.208,125.422 63.234,125.809C62.821,126.074 62.496,126.4 62.257,126.786C62.099,127.042 62.254,127.376 62.549,127.421C62.788,127.457 63.164,127.354 63.674,127.102C63.674,127.102 65.229,131.634 65.799,133.157C65.839,133.266 65.881,133.376 65.925,133.484C66.009,133.696 66.039,133.988 66.012,134.368C65.344,136.504 63.023,136.837 61.118,137.069C61.303,136.729 61.398,136.447 61.4,136.219C61.405,135.843 61.686,135.511 62.089,135.416C62.936,135.216 64.454,135.356 63.785,133.851C62.68,131.362 61.491,129.228 60.215,127.448ZM63.767,129.013C63.53,129.093 63.496,129.635 63.695,130.219C63.896,130.804 64.249,131.211 64.488,131.13C64.726,131.05 64.76,130.508 64.56,129.924C64.36,129.339 64.007,128.932 63.767,129.013Z" style="fill:white;fill-opacity:0.75;"/>
    <path d="M58.992,125.903C59.601,126.659 60.076,127.268 60.19,127.415L60.215,127.448C61.491,129.228 62.68,131.362 63.785,133.851C64.454,135.356 62.936,135.216 62.089,135.416C61.686,135.511 61.405,135.843 61.4,136.219C61.398,136.447 61.303,136.729 61.118,137.069C60.416,137.179 59.805,137.425 59.281,137.808C58.472,138.397 58.088,139.617 57.326,140.149C55.322,141.547 53.275,139.719 52.089,138.15C50.531,136.091 49.167,133.785 47.984,131.237C47.914,131.086 47.882,130.918 47.893,130.75C47.937,130.088 48.001,129.161 48.078,127.962C48.19,126.205 49.058,125.031 50.695,124.438C51.447,124.166 52.358,123.974 53.426,123.847C53.479,123.841 53.53,123.827 53.58,123.807L56.268,122.722C57.015,123.486 58.136,124.84 58.992,125.903ZM59.174,130.062C58.86,130.177 58.801,130.794 59.039,131.44C59.278,132.087 59.725,132.515 60.039,132.399C60.353,132.283 60.412,131.667 60.174,131.021C59.935,130.374 59.488,129.946 59.174,130.062ZM59.43,128.225C59.392,127.821 58.511,127.572 57.459,127.67C56.409,127.767 55.585,128.174 55.624,128.579C55.663,128.983 56.543,129.232 57.595,129.135C58.646,129.037 59.469,128.63 59.43,128.225Z" style="fill:white;fill-opacity:0.95;"/>
    <path d="M63.234,125.809C65.038,124.65 66.058,125.809 63.674,127.102C63.164,127.354 62.788,127.457 62.549,127.421C62.254,127.376 62.099,127.042 62.257,126.786C62.496,126.4 62.821,126.074 63.234,125.809ZM59.43,128.225C59.469,128.63 58.646,129.037 57.595,129.135C56.543,129.232 55.663,128.983 55.624,128.579C55.585,128.174 56.409,127.767 57.459,127.67C58.511,127.572 59.392,127.821 59.43,128.225ZM63.767,129.013C64.007,128.932 64.36,129.339 64.56,129.924C64.76,130.508 64.726,131.05 64.488,131.13C64.249,131.211 63.896,130.804 63.695,130.219C63.496,129.635 63.53,129.093 63.767,129.013ZM59.174,130.062C59.488,129.946 59.935,130.374 60.174,131.021C60.412,131.667 60.353,132.283 60.039,132.399C59.725,132.515 59.278,132.087 59.039,131.44C58.801,130.794 58.86,130.177 59.174,130.062Z" style="fill:white;fill-opacity:0.15;"/>
    <path d="M50.134,142.222L46.207,133.646C46.17,133.568 46.083,133.531 46.002,133.558C42.707,134.697 42.985,138.523 44.776,140.764C45.357,141.489 45.898,141.909 46.402,142.02C47.399,142.245 48.636,142.326 50.107,142.265C50.13,142.265 50.144,142.242 50.134,142.222Z" style="fill:white;fill-opacity:0.95;"/>
    <path d="M105.721,153.972C107.246,153.219 108.805,152.501 110.397,151.812C111.133,151.493 112.587,150.636 114.781,149.272C114.868,149.218 114.915,149.115 114.895,149.01L114.747,148.167C112.906,148.846 111.213,149.286 109.671,149.491C107.777,149.743 104.633,149.222 104.021,147.042C103.245,144.274 104.964,141.08 106.443,138.745C106.501,138.654 106.598,138.604 106.702,138.61L107.931,138.684L105.755,135.443C105.526,135.389 105.348,135.392 105.22,135.45C102.033,136.891 98.983,138.277 96.07,139.612C95.882,139.698 95.815,139.934 95.929,140.105C98.862,144.529 101.605,148.758 104.3,152.689C104.323,152.723 104.481,152.921 104.777,153.287C104.975,153.532 105.076,153.764 105.079,153.982L105.721,153.972Z" style="fill:white;fill-opacity:0.5;"/>
    <path d="M34.786,137.351C34.42,137.475 34.205,137.583 34.137,137.667C36.314,142.578 38.543,147.455 40.802,152.309C40.866,152.447 40.842,152.558 40.735,152.648L41.135,152.477L44.739,150.875L45.233,150.687L44.998,150.636C44.89,150.616 44.799,150.542 44.759,150.441L42.895,146.064C41.272,145.315 40.053,144.671 39.24,144.126C37.832,143.183 36.724,141.812 35.914,140.015C35.521,139.141 35.145,138.254 34.786,137.351Z" style="fill:white;fill-opacity:0.4;"/>
    <path d="M34.137,137.667C36.314,142.578 38.543,147.455 40.802,152.309C40.866,152.447 40.842,152.558 40.735,152.648L23.623,160.415C21.406,155.41 19.176,150.499 16.935,145.681C16.916,145.637 16.859,145.519 16.81,145.419L34.137,137.667Z" style="fill:white;fill-opacity:0.55;"/>
    <path d="M114.747,148.167C115.815,144.845 112.829,142.067 110.525,140.196C109.651,139.487 108.788,138.983 107.931,138.684L106.702,138.61C106.598,138.604 106.501,138.654 106.443,138.745C104.964,141.08 103.245,144.274 104.021,147.042C104.633,149.222 107.777,149.743 109.671,149.491C111.213,149.286 112.906,148.846 114.747,148.167Z" style="fill:white;fill-opacity:0.95;"/>
    <path d="M66.513,139.934C65.807,139.33 63.695,140.553 62.606,140.663C62.035,140.721 61.689,140.723 61.572,140.673C60.867,140.373 60.356,140.165 60.04,140.041C59.701,139.909 59.425,139.923 59.21,140.085C58.927,140.299 58.828,140.683 58.972,141.012C59.679,142.63 61.249,143.332 62.996,143.085C64.457,142.878 65.658,142.15 66.6,140.905C66.832,140.599 66.792,140.173 66.513,139.934Z" style="fill:white;fill-opacity:0.95;"/>
    <path d="M94.186,145.248L94.639,147.747C91.277,148.241 88.744,146.588 87.138,143.753L89.107,142.863C90.084,144.66 91.502,145.603 93.359,145.698C93.816,145.722 94.092,145.571 94.186,145.248Z" style="fill:white;fill-opacity:0.5;"/>
    <path d="M80.373,179.344C82.812,179.572 84.628,178.194 86.057,176.508C87.262,175.087 88.614,173.358 90.108,171.319C92.494,168.061 94.924,164.556 97.404,160.811C98.247,159.538 99.498,158.049 100.044,157.099C100.1,157.001 100.212,156.948 100.323,156.972C102.572,157.442 104.532,155.722 105.721,153.972L105.079,153.982L103,154.459C102.872,154.486 102.741,154.432 102.674,154.325L97.968,146.814C97.881,145.944 97.629,145.188 97.216,144.543C96.742,143.572 96.144,143.082 95.422,143.068C94.548,143.609 94.135,144.338 94.186,145.248L94.639,147.747L95.274,149.823C95.304,149.927 95.281,150.042 95.207,150.126L83.453,163.26C83.06,163.888 82.593,164.379 82.049,164.738C81.337,167.029 80.145,168.894 78.468,170.328C78.331,170.445 78.273,170.627 78.314,170.801L80.373,179.344Z" style="fill:white;fill-opacity:0.95;"/>
    <path d="M23.623,160.415L26.569,167.026C27.029,167.751 27.027,168.419 26.576,169.038C26.525,169.108 26.462,169.166 26.391,169.212C24.721,170.313 22.885,171.122 20.906,171.665C20.13,171.877 19.602,171.157 19.263,170.422C15.395,162.028 12.112,154.539 9.149,148.066C9.119,148.002 9.102,147.939 9.095,147.872C9.035,147.307 9.249,146.786 9.723,146.283C9.757,146.246 9.797,146.216 9.844,146.195L14.557,144.036C14.607,144.012 14.658,144.002 14.711,143.999C14.977,143.98 15.214,143.991 15.425,144.031C16.035,144.154 16.387,144.547 16.734,145.262C16.742,145.285 16.752,145.307 16.766,145.328L16.81,145.419C16.859,145.519 16.916,145.637 16.935,145.681C19.176,150.499 21.406,155.41 23.623,160.415Z" style="fill:white;fill-opacity:0.25;"/>
    <path d="M97.216,144.543C97.629,145.188 97.881,145.944 97.968,146.814L98.815,145.9C98.845,145.87 98.865,145.833 98.878,145.792C99.275,144.591 98.153,144.183 97.216,144.543Z" style="fill:white;fill-opacity:0.5;"/>
    <path d="M48.639,148.654C46.479,148.073 45.118,147.593 44.558,147.207C44.057,146.861 43.503,146.481 42.895,146.064L44.759,150.441C44.799,150.542 44.89,150.616 44.998,150.636L45.233,150.687L48.565,149.323C48.407,149.158 48.312,149.038 48.283,148.96C48.227,148.81 48.347,148.708 48.639,148.654Z" style="fill:white;fill-opacity:0.65;"/>
    <path d="M47.957,154.728C49.334,153.609 48.649,149.783 48.565,149.323C48.407,149.158 48.312,149.038 48.283,148.96C48.227,148.81 48.347,148.708 48.639,148.654C50.06,148.785 51.336,148.84 52.462,148.816C53.231,148.799 54.027,148.627 54.853,148.295C54.971,148.248 55.102,148.243 55.223,148.278C57.086,148.817 59.019,148.882 61.044,148.463C61.162,148.439 61.259,148.554 61.216,148.664L61.152,148.826C61.192,149.158 60.886,149.26 60.238,149.135C59.734,149.038 59.358,149.007 59.113,149.037C57.786,149.2 56.539,149.104 55.384,148.711C55.327,148.692 55.267,148.722 55.243,148.779L55.243,148.782C55.219,148.842 55.247,148.912 55.307,148.94C56.574,149.522 57.373,149.954 57.722,150.189C59.025,151.066 60.661,152.348 61.044,153.545C61.088,153.683 61.263,153.727 61.367,153.623L62.734,152.255C62.804,152.185 62.919,152.256 62.888,152.349C62.681,152.982 62.277,153.528 61.689,153.992C57.669,157.167 52.306,157.518 47.453,156.081C47.282,156.031 47.211,155.826 47.312,155.682L47.957,154.728Z" style="fill:white;fill-opacity:0.95;"/>
    <path d="M31.198,164.943C30.624,168.366 30.135,171.745 29.724,175.077C29.67,175.511 29.66,175.948 29.713,176.388C29.725,176.485 29.804,176.566 29.902,176.579L32.34,176.908C33.439,176.458 34.742,176.293 36.25,176.414C41.051,176.8 43.792,177.035 44.474,177.113C45.488,177.229 46.47,177.471 47.413,177.839C47.662,177.936 47.826,178.175 47.826,178.443L47.826,181.201C47.826,181.312 47.944,181.386 48.044,181.339C53.598,178.744 58.765,176.464 63.614,174.678C63.718,174.64 63.808,174.576 63.879,174.493C64.444,173.833 64.709,173.23 64.652,172.669C64.321,169.427 64.312,166.669 64.632,164.402C64.756,163.525 65.153,162.544 65.821,161.459C67.098,159.387 68.713,157.771 70.665,156.612L68.193,152.393C66.328,151.382 64.391,151.065 62.368,151.362C62.267,151.377 62.166,151.335 62.106,151.251C61.597,150.54 61.279,149.729 61.152,148.826C61.192,149.158 60.886,149.26 60.238,149.135C59.734,149.038 59.358,149.007 59.113,149.037C57.786,149.2 56.539,149.104 55.384,148.711C55.327,148.692 55.267,148.722 55.243,148.779L55.243,148.782C55.219,148.842 55.247,148.912 55.307,148.94C56.574,149.522 57.373,149.954 57.722,150.189C59.025,151.066 60.661,152.348 61.044,153.545C61.088,153.683 61.263,153.727 61.367,153.623L62.734,152.255C62.804,152.185 62.919,152.256 62.888,152.349C62.681,152.982 62.277,153.528 61.689,153.992C57.669,157.167 52.306,157.518 47.453,156.081C47.282,156.031 47.211,155.826 47.312,155.682L47.957,154.728L46.848,154.859L42.253,155.591C38.262,155.88 33.506,158.009 31.991,161.92C31.685,162.709 31.42,163.717 31.198,164.943Z" style="fill:white;fill-opacity:0.85;"/>
    <path d="M45.233,150.687L44.739,150.875C44.927,150.932 45.069,151.072 45.166,151.298C45.547,152.193 46.103,153.384 46.848,154.859L47.957,154.728C49.334,153.609 48.649,149.783 48.565,149.323L45.233,150.687Z" style="fill:white;fill-opacity:0.4;"/>
    <path d="M82.049,164.738C80.05,166.206 77.864,167.333 75.482,168.121C74.515,168.44 73.762,168.393 73.221,167.98C73.178,166.985 73.496,166.11 74.477,165.749C74.964,165.57 76.25,164.71 78.344,163.166C79.553,162.275 81.251,160.709 79.906,159.145C77.822,156.721 73.644,156.159 70.665,156.612L68.193,152.393L75.008,149.897L82.922,161.691C83.027,161.846 83.107,162.017 83.158,162.198L83.453,163.26C83.06,163.888 82.593,164.379 82.049,164.738Z" style="fill:white;fill-opacity:0.35;"/>
    <path d="M44.739,150.875L41.135,152.477L41.064,152.564C40.997,152.642 40.983,152.746 41.024,152.836L42.253,155.591L46.848,154.859C46.103,153.384 45.547,152.193 45.166,151.298C45.069,151.072 44.927,150.932 44.739,150.875Z" style="fill:white;fill-opacity:0.25;"/>
    <path d="M26.569,167.026L31.198,164.943C31.42,163.717 31.685,162.709 31.991,161.92C33.506,158.009 38.262,155.88 42.253,155.591L41.024,152.836C40.983,152.746 40.997,152.642 41.064,152.564L41.135,152.477L40.735,152.648L23.623,160.415L26.569,167.026Z" style="fill:white;fill-opacity:0.4;"/>
    <path d="M32.34,176.908C32.612,180.506 33.385,183.811 34.658,186.824C36.274,190.65 38.923,193.467 42.273,195.84C43.939,197.02 45.632,197.392 47.356,196.956C48.965,196.324 50.158,195.743 50.926,195.216C53.756,193.273 57.158,190.516 59.966,187.872C64.309,183.784 68.28,179.626 71.871,175.393C71.965,175.282 72.039,175.151 72.082,175.01C72.618,173.274 72.912,172.095 72.966,171.47C73.07,170.26 73.154,169.098 73.221,167.98C73.178,166.985 73.496,166.11 74.477,165.749C74.964,165.57 76.25,164.71 78.344,163.166C79.553,162.275 81.251,160.709 79.906,159.145C77.822,156.721 73.644,156.159 70.665,156.612C68.713,157.771 67.098,159.387 65.821,161.459C65.153,162.544 64.756,163.525 64.632,164.402C64.312,166.669 64.321,169.427 64.652,172.669C64.709,173.23 64.444,173.833 63.879,174.493C63.808,174.576 63.718,174.64 63.614,174.678C58.765,176.464 53.598,178.744 48.044,181.339C47.944,181.386 47.826,181.312 47.826,181.201L47.826,178.443C47.826,178.175 47.662,177.936 47.413,177.839C46.47,177.471 45.488,177.229 44.474,177.113C43.792,177.035 41.051,176.8 36.25,176.414C34.742,176.293 33.439,176.458 32.34,176.908Z" style="fill:white;fill-opacity:0.95;"/>
    <path d="M98.311,204.06C98.254,203.691 98.134,203.349 97.961,203.032C97.914,202.945 97.844,202.867 97.763,202.807C96.639,201.98 95.515,201.155 94.421,200.298C89.975,196.817 86.07,192.629 82.677,187.762C82.607,187.661 82.556,187.55 82.523,187.429L80.373,179.344L78.314,170.801C78.273,170.627 78.331,170.445 78.468,170.328C80.145,168.894 81.337,167.029 82.049,164.738C80.05,166.206 77.864,167.333 75.482,168.121C74.515,168.44 73.762,168.393 73.221,167.98C73.154,169.098 73.07,170.26 72.966,171.47C72.912,172.095 72.618,173.274 72.082,175.01C72.039,175.151 71.965,175.282 71.871,175.393C68.28,179.626 64.309,183.784 59.966,187.872C57.158,190.516 53.756,193.273 50.926,195.216C50.158,195.743 48.965,196.324 47.356,196.956C50.255,200.479 52.017,204.523 52.636,209.086C52.737,209.831 53.254,210.238 54.185,210.308C58.102,211.706 61.632,212.12 65.848,212.099C67.759,212.089 70.148,211.835 73.013,211.333C76.668,210.693 80.124,210.006 83.379,209.27C87.098,208.437 91.714,206.728 94.763,205.867C96.238,205.451 97.421,204.85 98.311,204.06Z" style="fill:white;fill-opacity:0.85;"/>
    <path d="M104.646,206.959L100.521,204.974C100.477,204.95 100.43,204.937 100.38,204.93C99.65,204.828 99.009,204.299 98.311,204.06C97.421,204.85 96.238,205.451 94.763,205.867C91.714,206.728 87.098,208.437 83.379,209.27C80.124,210.006 76.668,210.693 73.013,211.333C70.148,211.835 67.759,212.089 65.848,212.099C61.632,212.12 58.102,211.706 54.185,210.308C53.96,211.047 53.671,211.669 53.311,212.173C58.485,213.19 63.637,213.933 68.77,214.403C71.343,214.638 72.956,214.755 73.611,214.752C78.488,214.732 82.912,213.072 87.33,211.168C92.748,208.833 98.768,207.534 104.646,206.959Z" style="fill:white;fill-opacity:0.35;"/>
    <path d="M145.01,266.221C145.04,265.808 145.033,265.476 144.983,265.224C141.224,245.781 139.084,234.676 138.567,231.904C138.214,230.013 138.034,228.037 137.425,226.331C136.771,224.5 135.785,222.936 134.472,221.632C133.793,220.957 132.201,220.023 129.692,218.83C121.338,214.85 112.99,210.893 104.646,206.959C98.768,207.534 92.748,208.833 87.33,211.168C82.912,213.072 78.488,214.732 73.611,214.752C72.956,214.755 71.343,214.638 68.77,214.403C63.637,213.933 58.485,213.19 53.311,212.173L39.2,239.442C39.072,239.691 38.871,239.9 38.625,240.037C34.3,242.454 30.213,245.155 26.381,248.173C24.577,249.593 22.818,251.247 21.101,253.137C16.899,257.764 12.84,262.499 8.92,267.347L11.295,267.3C21.366,260.45 31.433,253.624 41.494,246.829C42.539,246.123 43.466,244.887 44.252,244.014C47.259,240.672 50.4,237.528 53.678,234.575C58.71,230.041 63.977,226.036 69.959,222.972C73.241,221.296 76.622,220.192 80.107,219.697C80.52,219.638 81.582,219.616 83.292,219.63C84.417,219.639 85.472,219.704 86.46,219.821C91.629,220.435 96.772,221.377 101.895,222.65C109.95,224.652 118.304,226.983 125.58,230.043C127.905,231.021 129.391,233.98 130.461,236.315C131.312,238.172 132.107,240.205 132.843,242.412C135.218,249.54 137.185,256.987 138.741,264.757C138.789,264.992 138.856,265.22 138.943,265.442C138.997,265.539 139.087,265.594 139.212,265.607C141.203,265.813 143.135,266.01 145.01,266.221Z" style="fill:white;fill-opacity:0.95;"/>
    <path d="M14.48,267.713C21.557,263.907 28.56,259.952 35.495,255.855C40.022,253.18 44.46,250.346 48.525,246.983C53.883,242.55 60.209,237.728 66.412,233.285C69.389,231.153 72.23,229.294 74.934,227.705C76.416,226.835 77.642,226.266 78.613,225.999C80.582,225.456 82.656,225.807 84.545,226.13C85.28,226.255 86.076,226.427 86.933,226.644C92.446,228.038 99.61,230.327 105.291,231.518C110.874,232.688 115.939,233.528 120.488,234.024C121.358,234.119 122.265,234.165 123.212,234.155C123.444,234.152 123.646,234.326 123.679,234.558C124.321,239.015 125.509,243.399 127.257,247.709C127.79,249.026 128.915,251.21 130.632,254.259C132.201,257.044 133.753,260.096 135.271,263.42C135.48,263.876 135.725,264.505 136.01,265.308C136.823,265.355 138.214,265.721 138.943,265.442C138.856,265.22 138.789,264.992 138.741,264.757C137.185,256.987 135.218,249.54 132.843,242.412C132.107,240.205 131.312,238.172 130.461,236.315C129.391,233.98 127.905,231.021 125.58,230.043C118.304,226.983 109.95,224.652 101.895,222.65C96.772,221.377 91.629,220.435 86.46,219.821C85.472,219.704 84.417,219.639 83.292,219.63C81.582,219.616 80.52,219.638 80.107,219.697C76.622,220.192 73.241,221.296 69.959,222.972C63.977,226.036 58.71,230.041 53.678,234.575C50.4,237.528 47.259,240.672 44.252,244.014C43.466,244.887 42.539,246.123 41.494,246.829C31.433,253.624 21.366,260.45 11.295,267.3C12.347,267.612 13.408,267.75 14.48,267.713Z" style="fill:white;fill-opacity:0.6;"/>
    <path d="M136.01,265.308L137.143,277.333C137.156,277.468 137.23,277.588 137.344,277.659C137.791,277.937 138.177,278.083 138.496,278.099C143.488,278.353 148.174,278.656 152.558,279.033C154.251,279.179 155.991,279.063 157.307,279.134C157.989,279.171 158.833,279.098 159.837,278.912C160.868,278.722 161.459,278.109 161.614,277.071C161.788,275.902 161.473,274.825 160.636,273.87C160.58,273.806 160.516,273.749 160.445,273.702C159.609,273.147 158.624,272.732 157.489,272.446C155.779,272.014 154.157,271.525 152.625,270.981C149.719,269.95 147.18,268.364 145.01,266.221C143.135,266.01 141.203,265.813 139.212,265.607C139.087,265.594 138.997,265.539 138.943,265.442C138.214,265.721 136.823,265.355 136.01,265.308Z" style="fill:white;fill-opacity:0.4;"/>
    <path d="M8.92,267.347C7.409,268.062 6.287,269.141 5.558,270.582C4.715,272.248 4.07,273.293 3.63,273.712C3.371,273.958 2.47,274.79 0.919,276.208C0.238,276.831 -0.593,277.889 0.613,278.442C1.721,278.95 2.796,279.229 3.838,279.278C6.122,279.386 8.454,279.477 10.338,278.086C10.432,278.016 10.513,277.925 10.566,277.821C11.284,276.424 11.175,274.818 12.105,273.611C13.439,271.882 14.228,269.916 14.48,267.713C13.408,267.75 12.347,267.612 11.295,267.3L8.92,267.347Z" style="fill:white;fill-opacity:0.4;"/>
</svg>
