<?xml version="1.0" encoding="UTF-8" standalone="no"?>
<!DOCTYPE svg PUBLIC "-//W3C//DTD SVG 1.1//EN" "http://www.w3.org/Graphics/SVG/1.1/DTD/svg11.dtd">
<svg width="100%" height="100%" viewBox="0 0 300 300" version="1.1" xmlns="http://www.w3.org/2000/svg" xmlns:xlink="http://www.w3.org/1999/xlink" xml:space="preserve" xmlns:serif="http://www.serif.com/" style="fill-rule:evenodd;clip-rule:evenodd;stroke-linejoin:round;stroke-miterlimit:2;">
    <path d="M225.325,54.585C226.849,51.911 228.379,49.234 229.916,46.558C230.71,45.176 231.399,44.121 231.981,43.392C232.049,43.307 232.103,43.254 232.143,43.236C232.28,43.177 232.427,43.28 232.404,43.419L229.991,57.798C229.913,57.984 229.876,58.176 229.873,58.376L225.932,79.862L225.729,81.088C225.532,82.263 225.363,83.44 225.222,84.618C224.796,88.164 224.622,91.725 224.702,95.299C224.72,96.117 224.784,97.002 224.965,97.853C225.275,99.313 225.932,100.675 227.304,101.432C229.227,102.493 233.911,98.688 235.215,97.488L235.228,97.477C235.489,97.237 235.748,96.997 236.005,96.755C238.244,94.651 240.312,92.494 242.207,90.287C247.587,84.022 250.731,80.295 251.639,79.105C253.374,76.832 254.981,74.918 256.573,72.782C257.256,71.863 257.925,70.991 258.577,70.166C260.141,68.048 261.655,66.017 263.115,64.07C264.791,61.843 266.485,59.619 268.194,57.403C270.509,54.405 272.885,51.397 275.322,48.386C275.957,47.602 276.572,46.805 277.17,45.994C277.2,45.953 277.258,45.943 277.305,45.97L277.309,45.97C277.353,45.997 277.366,46.055 277.342,46.102C276.234,48.096 275.578,49.265 275.372,49.613C272.828,53.905 270.617,57.926 268.749,61.674C265.799,67.588 263.284,72.775 261.209,77.236L261.108,77.452C260.145,79.466 259.256,81.423 258.448,83.319C255.491,89.939 252.557,96.483 249.655,102.953C249.351,103.632 248.994,104.034 248.831,104.69C248.79,104.855 248.601,105.295 248.26,106.015C242.86,117.417 239.63,124.14 238.554,126.172C237.331,128.483 236.456,130.228 235.925,131.407C234.871,132.09 233.766,132.772 232.61,133.452C231.086,134.347 229.988,135.04 229.315,135.53C227.839,136.605 226.239,137.794 224.506,139.092C223.416,139.908 222.486,140.924 221.478,141.789C221.106,142.108 220.53,141.964 220.353,141.505C220.068,140.764 219.866,139.923 219.751,138.977C219.488,136.807 219.295,134.753 219.177,132.81C218.725,125.388 218.231,118.846 216.794,112.459C216.543,111.343 216.244,110.247 215.897,109.172C215.199,107.006 214.307,104.868 213.196,102.882C213.188,102.868 213.18,102.853 213.172,102.839C212.313,101.27 211.278,99.832 210.069,98.523C208.461,96.693 206.816,95.257 205.677,94.359L211.952,81.001L212.628,79.615L222.935,59.045L225.192,54.817L225.325,54.585Z" style="fill:white;fill-opacity:0.95;"/>
    <path d="M144.219,71.053C143.154,65.854 142.089,60.666 141.293,55.415C140.951,53.175 140.749,50.867 140.685,48.498C140.681,48.332 140.705,48.207 140.759,48.123C140.85,47.977 141.056,47.961 141.168,48.092C142.313,49.424 143.226,51.266 143.942,52.854L146.223,57.97L146.754,59.163L156.057,80.284L156.375,80.967L161.299,91.186L161.691,91.913L164.205,96.978C163.394,97.515 162.654,98.025 161.983,98.508C160.923,99.271 160.039,99.967 159.328,100.594C156.961,102.684 154.479,105.278 151.89,108.38C151.448,104.448 150.879,100.722 150.185,97.204L150.144,96.997C150.002,96.286 149.856,95.584 149.704,94.89C148.612,89.898 147.17,83.673 145.399,76.205C145.215,75.432 145.017,74.671 144.804,73.917C144.61,72.962 144.414,72.007 144.219,71.053Z" style="fill:white;fill-opacity:0.95;"/>
    <path d="M95.107,51.644C94.996,51.424 95.205,51.181 95.438,51.259C96.124,51.492 96.716,51.854 97.209,52.344C100.551,55.682 103.167,59.187 105.053,62.86C105.096,62.948 105.11,63.053 105.09,63.171C105.059,63.36 104.85,63.458 104.684,63.357C102.197,61.846 100.017,59.521 98.145,57.578C97.432,56.838 96.82,56.007 96.31,55.084C96.28,55.034 96.266,54.976 96.266,54.919L96.28,54.013C96.28,53.976 96.27,53.942 96.253,53.908L95.107,51.644Z" style="fill:white;fill-opacity:0.95;"/>
    <path d="M95.418,118.035C92.495,118.876 89.497,119.13 86.422,118.792C85.56,118.424 84.645,118.204 83.675,118.14C83.404,117.839 82.891,117.599 82.137,117.417C81.4,117.237 80.846,117.096 80.474,116.994C80.356,116.964 80.235,116.954 80.116,116.97C79.369,117.065 78.683,117.339 77.849,117.379C76,117.464 74.111,117.156 72.185,116.457C71.151,116.082 70.35,115.619 69.779,115.071C68.366,113.713 68.157,112.162 67.67,110.763C67.285,109.658 66.389,109.07 65.159,108.458C62.341,107.059 59.462,104.592 59.894,101.118C60.07,99.715 60.388,98.208 60.847,96.59C60.959,96.198 60.83,95.782 60.519,95.522C60.117,95.187 59.769,94.897 59.472,94.646C57.593,93.082 56.985,91.101 57.647,88.702C57.927,87.682 58.492,86.803 59.333,86.063C59.421,85.985 59.475,85.877 59.485,85.762C59.577,84.691 59.35,83.042 59.644,81.636C60.435,77.814 62.226,74.691 65.017,72.272C65.129,72.177 65.21,72.055 65.25,71.917C67.055,66.108 70.668,62.167 76.882,61.539C78.396,61.383 79.944,61.644 81.363,61.481C82.701,61.329 83.289,60.545 84.415,59.477C85.608,58.339 87.037,57.541 88.7,57.081C92.076,56.152 95.181,56.602 98.017,58.433C99.041,59.096 100.034,59.886 100.991,60.809C102.251,62.025 102.93,63.526 103.022,65.314C103.032,65.537 103.153,65.739 103.343,65.858C104.427,66.52 105.387,67.209 106.222,67.922C107.043,68.625 107.533,69.501 107.692,70.552C107.979,72.464 107.479,74.171 106.188,75.668L102.853,72.001C102.586,71.707 102.133,71.674 101.822,71.92C101.335,72.306 100.896,72.657 100.23,72.975C98.946,73.587 97.733,74.188 96.591,74.779C95.168,75.499 93.768,76.137 92.39,76.695C91.741,76.958 91.093,77.159 90.447,77.297C85.578,78.338 82.903,80.676 83.519,86.093C83.593,86.746 83.614,87.34 83.58,87.874C83.502,89.108 83.803,89.868 84.337,90.733C85.642,92.848 86.749,94.623 87.659,96.052C88.554,97.458 89.676,98.604 90.64,99.898C91.484,101.033 92.369,101.801 93.884,102.946C95.364,104.065 96.915,104.619 98.652,103.994C99.967,103.521 100.761,102.693 101.454,101.236C101.95,100.192 102.766,99.268 103.904,98.458C103.951,98.425 104.002,98.398 104.052,98.377L106.36,97.441C108.28,96.971 109.591,96.627 110.291,96.414C111.409,96.073 112.281,95.41 112.899,94.423C113.332,93.734 113.484,92.747 113.724,91.913C118.241,103.848 120.409,114.262 107.036,116.911C104.641,117.386 101.748,117.611 98.28,117.552C98.034,117.548 97.807,117.554 97.595,117.569C96.711,117.632 96.083,117.841 95.418,118.035ZM113.971,100.523C111.132,101.04 108.601,102.274 106.377,104.227C105.941,104.609 105.806,105.136 105.968,105.815C106.276,107.089 108.006,106.424 108.679,105.944C109.317,105.487 110.027,104.855 110.808,104.055C111.189,103.663 111.676,103.392 112.21,103.277L113.95,102.906C114.62,102.764 115.099,102.179 115.113,101.493L115.113,101.446C115.096,100.851 114.555,100.412 113.971,100.523ZM88.125,107.441C85.52,103.064 83.154,98.651 81.022,94.197C80.894,93.93 80.562,93.829 80.306,93.977C77.501,95.613 76.409,97.965 77.031,101.03C77.308,102.399 77.768,103.507 78.406,104.355C79.883,106.309 80.91,107.674 83.317,107.765C84.807,107.823 86.378,107.772 88.037,107.61C88.122,107.603 88.169,107.512 88.125,107.441Z" style="fill:white;fill-opacity:0.5;"/>
    <path d="M293.763,67.75C293.864,67.689 293.986,67.777 293.965,67.892C293.601,69.879 291.955,71.704 290.532,73.397C287.768,76.689 284.314,80.47 280.168,84.738C279.64,85.279 279.225,85.664 278.924,85.891C278.782,85.999 278.593,85.833 278.677,85.678C281.435,80.524 284.608,75.624 288.2,70.971C288.542,70.525 289.305,70.322 289.765,70.062C290.633,69.568 291.968,68.798 293.763,67.75Z" style="fill:white;fill-opacity:0.95;"/>
    <path d="M106.188,75.668L107.672,77.794C106.827,78.368 106.023,79.014 105.262,79.73C104.867,80.102 104.917,80.774 105.488,80.886C106.789,81.139 107.932,80.818 108.915,79.919C110.581,83.349 111.713,85.989 112.318,87.844C113.011,89.963 113.477,91.318 113.724,91.913C113.484,92.747 113.332,93.734 112.899,94.423C112.281,95.41 111.409,96.073 110.291,96.414C109.591,96.627 108.28,96.971 106.36,97.441C105.985,95.647 107.073,94.96 108.608,94.863C109.3,94.819 109.861,94.502 110.297,93.927C110.364,93.838 110.398,93.724 110.389,93.609C110.304,92.528 109.896,91.973 109.49,91.091C109.284,90.645 109.027,90.165 108.716,89.648C106.963,86.738 105.034,83.997 102.92,81.423C102.39,80.777 101.842,80.169 101.278,79.595C100.234,78.533 99.322,77.346 98.118,76.232C97.595,75.748 97.087,75.262 96.591,74.779C97.733,74.188 98.946,73.587 100.23,72.975C100.896,72.657 101.335,72.306 101.822,71.92C102.133,71.674 102.586,71.707 102.853,72.001L106.188,75.668ZM109.491,84.305C109.088,84.471 109.081,85.373 109.472,86.317C109.865,87.263 110.507,87.894 110.908,87.726C111.311,87.56 111.318,86.658 110.927,85.714C110.534,84.769 109.892,84.137 109.491,84.305Z" style="fill:white;fill-opacity:0.75;"/>
    <path d="M96.591,74.779C95.168,75.499 93.768,76.137 92.39,76.695C91.741,76.958 91.093,77.159 90.447,77.297C85.578,78.338 82.903,80.676 83.519,86.093C83.593,86.746 83.614,87.34 83.58,87.874C83.502,89.108 83.803,89.868 84.337,90.733C85.642,92.848 86.749,94.623 87.659,96.052C88.554,97.458 89.676,98.604 90.64,99.898C91.484,101.033 92.369,101.801 93.884,102.946C95.364,104.065 96.915,104.619 98.652,103.994C99.967,103.521 100.761,102.693 101.454,101.236C101.95,100.192 102.766,99.268 103.904,98.458C103.951,98.425 104.002,98.398 104.052,98.377L106.36,97.441C105.985,95.647 107.073,94.96 108.608,94.863C109.3,94.819 109.861,94.502 110.297,93.927C110.364,93.838 110.398,93.724 110.389,93.609C110.304,92.528 109.896,91.973 109.49,91.091C109.284,90.645 109.027,90.165 108.716,89.648C106.963,86.738 105.034,83.997 102.92,81.423C102.39,80.777 101.842,80.169 101.278,79.595C100.234,78.533 99.322,77.346 98.118,76.232C97.595,75.748 97.087,75.262 96.591,74.779ZM100.904,83.606C100.788,82.893 99.149,82.565 97.247,82.876C95.344,83.187 93.897,84.018 94.014,84.735C94.13,85.448 95.769,85.776 97.671,85.464C99.575,85.154 101.021,84.322 100.904,83.606ZM101.969,86.417C101.487,86.617 101.474,87.668 101.933,88.763C102.393,89.858 103.153,90.581 103.635,90.379C104.116,90.179 104.13,89.128 103.671,88.033C103.211,86.938 102.45,86.215 101.969,86.417Z" style="fill:white;fill-opacity:0.95;"/>
    <path d="M107.672,77.794C108.824,77.378 109.409,77.638 109.419,78.571C109.425,78.953 109.256,79.402 108.915,79.919C107.932,80.818 106.789,81.139 105.488,80.886C104.917,80.774 104.867,80.102 105.262,79.73C106.023,79.014 106.827,78.368 107.672,77.794ZM100.904,83.606C101.021,84.322 99.575,85.154 97.671,85.464C95.769,85.776 94.13,85.448 94.014,84.735C93.897,84.018 95.344,83.187 97.247,82.876C99.149,82.565 100.788,82.893 100.904,83.606ZM109.491,84.305C109.892,84.137 110.534,84.769 110.927,85.714C111.318,86.658 111.311,87.56 110.908,87.726C110.507,87.894 109.865,87.263 109.472,86.317C109.081,85.373 109.088,84.471 109.491,84.305ZM101.969,86.417C102.45,86.215 103.211,86.938 103.671,88.033C104.13,89.128 104.116,90.179 103.635,90.379C103.153,90.581 102.393,89.858 101.933,88.763C101.474,87.668 101.487,86.617 101.969,86.417Z" style="fill:white;fill-opacity:0.15;"/>
    <path d="M242.998,130.98C242.082,130.625 240.973,130.493 239.625,130.657C238.426,130.802 237.192,131.052 235.925,131.407C236.456,130.228 237.331,128.483 238.554,126.172C239.217,124.921 240.697,121.889 242.998,117.08L242.998,130.98Z" style="fill:white;fill-opacity:0.25;"/>
    <path d="M242.998,117.08C244.433,114.082 246.186,110.393 248.26,106.015C248.601,105.295 248.79,104.855 248.831,104.69C248.994,104.034 249.351,103.632 249.655,102.953C252.557,96.483 255.491,89.939 258.448,83.319L258.523,131.725L250.372,142.191L247.82,141.974C247.604,141.954 247.435,141.778 247.425,141.562C247.238,137.624 246.747,132.434 242.998,130.98L242.998,117.08Z" style="fill:white;fill-opacity:0.15;"/>
    <path d="M88.125,107.441C85.52,103.064 83.154,98.651 81.022,94.197C80.894,93.93 80.562,93.829 80.306,93.977C77.501,95.613 76.409,97.965 77.031,101.03C77.308,102.399 77.768,103.507 78.406,104.355C79.883,106.309 80.91,107.674 83.317,107.765C84.807,107.823 86.378,107.772 88.037,107.61C88.122,107.603 88.169,107.512 88.125,107.441Z" style="fill:white;fill-opacity:0.95;"/>
    <path d="M113.971,100.523C111.132,101.04 108.601,102.274 106.377,104.227C105.941,104.609 105.806,105.136 105.968,105.815C106.276,107.089 108.006,106.424 108.679,105.944C109.317,105.487 110.027,104.855 110.808,104.055C111.189,103.663 111.676,103.392 112.21,103.277L113.95,102.906C114.62,102.764 115.099,102.179 115.113,101.493L115.113,101.446C115.096,100.851 114.555,100.412 113.971,100.523Z" style="fill:white;"/>
    <path d="M162.717,117.228C166.301,117.641 169.882,118.141 173.461,118.724C173.556,118.944 173.501,119.136 173.302,119.302C173.035,119.525 172.782,119.762 172.542,120.009L170.781,123.395C170.69,123.567 170.778,123.783 170.964,123.844C172.669,124.409 174.468,124.76 176.371,124.885C178.854,125.048 181.723,124.462 184.393,123.895C185.525,123.654 186.512,123.194 187.367,122.54C187.434,122.488 187.408,122.384 187.326,122.364L184.398,121.738C185.219,121.902 186.046,122.004 186.877,122.046C186.894,122.05 186.914,122.05 186.934,122.046L189.537,121.695C189.638,121.678 189.743,121.688 189.841,121.722C191.809,122.394 193.997,123.022 196.403,123.621C198.668,124.185 200.456,124.796 202.831,125.571C204.453,126.101 206.136,126.821 207.883,127.73C210.201,128.937 211.577,130.724 212.452,133.337C213.132,135.368 213.578,137.598 213.79,140.035C214.106,143.667 214.232,146.854 214.155,149.598C214.149,149.821 214.174,150.045 214.233,150.261C214.532,151.367 214.615,152.43 214.466,153.447C214.206,155.222 213.631,157.252 212.743,159.534L211.965,160.632C211.891,160.737 211.769,160.801 211.641,160.801L210.761,160.914C210.619,160.914 198.558,157.236 192.385,158.175C191.814,158.262 191.246,158.401 190.689,158.594L190.547,158.368L190.229,158.293C190.121,158.27 190.034,158.192 189.996,158.087C189.139,155.707 188.539,153.806 188.232,152.373C187.884,150.747 187.941,149.317 189.107,148.203C189.999,147.35 190.763,146.704 191.878,146.178C197.468,143.543 203.712,142.442 209.796,143.427C210.617,143.56 211.463,143.715 212.337,143.853C212.384,143.861 212.432,143.83 212.442,143.782L212.449,143.749C212.455,143.711 212.435,143.671 212.398,143.661C209.262,142.791 206.312,142.237 203.537,142.035C198.857,141.695 194.218,142.546 189.648,144.644C189.553,144.688 189.452,144.709 189.347,144.708C188.986,144.707 188.621,144.69 188.252,144.668C187.509,144.622 187.063,144.772 186.911,145.121C184.19,144.712 181.47,144.223 178.783,144.141C177.925,144.114 177.128,144.09 176.387,144.07L164.61,144.13C164.418,144.026 164.185,144 163.911,144.012C163.901,144.013 163.894,144.009 163.891,143.999C163.887,143.992 163.894,143.982 163.901,143.978C163.951,143.954 163.974,143.931 163.965,143.907C163.957,143.887 163.941,143.871 163.921,143.867C162.17,143.522 160.663,143.274 159.366,143.279C156.453,143.289 153.506,143.645 150.522,144.333C146.325,145.301 147.057,149.358 146.271,152.559C146.227,152.738 146.203,152.923 146.2,153.109C146.164,155.15 146.166,156.32 146.2,156.617C146.683,160.875 147.379,164.515 148.295,167.539C150.58,175.092 153.376,182.48 156.669,189.718C157.491,191.525 158.365,193.378 159.288,195.28C158.94,195.818 158.362,196.248 157.554,196.568C153.859,198.03 150.344,199.665 145.943,201.934C143.824,203.027 141.867,203.939 140.066,204.672C137.981,205.52 134.399,206.429 132.75,204.364C131.158,202.369 129.129,199.748 127.479,197.619C127.484,197.597 127.422,197.578 127.324,197.561L127.361,197.466L127.435,197.271C127.602,196.833 127.795,196.323 127.99,195.785C128.462,196.085 128.755,196.261 128.793,196.26C129.411,194.527 129.962,192.699 130.438,190.776C130.628,190.015 130.34,189.546 129.577,189.363C128.475,189.102 123.956,187.916 121.056,187.152L118.559,182.567L131.635,176.015C132.506,175.669 132.672,175.328 132.358,174.575C133.165,174.207 133.78,173.717 134.196,173.105C134.254,173.021 134.264,172.909 134.216,172.818L131.834,168.114C131.651,167.785 131.287,167.747 130.952,167.867L129.367,168.55C129.354,168.556 129.343,168.564 129.334,168.573C129.232,168.65 128.932,168.913 129.011,169.275C128.799,169.362 128.601,169.46 128.539,169.492C127.494,170.039 120.696,173.481 115.702,176.011L115.4,176.164L112.901,170.546L113.128,170.096C115.404,165.592 118.807,158.81 118.807,158.81C119.256,158.483 120.074,156.989 120.074,156.989C120.162,156.901 120.138,156.752 120.026,156.698C117.424,155.411 114.721,153.981 114.684,154.018L113.305,155.397C113.269,155.434 113.25,155.483 113.25,155.532L113.156,155.476C112.513,155.187 112.231,155.543 111.747,156.566L109.476,161.213C109.06,160.503 108.685,159.804 108.351,159.111C107.959,158.3 107.592,157.6 107.249,157.009C106.414,155.568 105.777,154.005 105.347,152.312C104.679,149.682 104.274,148.033 106.174,146.182C107.691,144.704 108.698,143.667 109.196,143.066C109.395,142.826 109.563,142.562 109.692,142.279C110.616,140.26 111.372,138.845 111.933,138.017C112.967,136.49 113.897,135.145 114.721,133.982C115.329,133.124 115.705,132.307 116.228,131.414C116.57,130.83 116.894,130.157 117.198,129.4C117.543,128.538 118.206,126.908 119.195,124.506C119.57,123.597 120.126,122.66 120.871,121.705C121.175,121.316 121.374,120.927 121.466,120.532C121.496,120.404 121.338,120.316 121.246,120.414C120.152,121.587 119.345,122.823 118.83,124.121C118.722,124.395 118.566,124.645 118.371,124.861C114.572,129.062 111.73,134.021 109.121,139.338C109.007,139.572 108.863,139.79 108.695,139.987C107.862,140.966 107.236,141.857 106.147,142.745C104.949,143.722 103.67,144.607 102.315,145.404C103.035,142.63 103.742,139.866 104.431,137.111C104.918,135.165 105.688,132.877 106.746,130.251C107.901,128.518 109.009,126.821 110.068,125.162C110.605,124.32 111.101,123.631 111.554,123.097C112.338,122.174 112.871,121.5 113.149,121.07C113.361,120.743 113.116,120.316 112.73,120.33C111.23,120.383 109.872,119.971 108.756,118.978C111.081,116.366 114.88,114.838 118.256,116.217C118.452,116.298 119.79,116.879 122.267,117.957C122.375,118.005 122.5,118.011 122.615,117.978C123.673,117.667 124.747,117.406 125.836,117.2C127.454,116.896 129.583,116.511 132.226,116.048C132.337,116.031 132.419,115.936 132.415,115.825C132.368,111.381 131.895,108.313 131.351,103.93C131.283,103.372 131.341,102.824 131.52,102.287C131.614,102.01 131.959,101.919 132.179,102.111C132.73,102.588 133.277,103.216 133.828,103.99C136.994,108.458 139.823,112.175 142.317,115.146C142.405,115.244 142.526,115.308 142.658,115.318L144.679,115.47L147.119,115.811C148.967,115.997 150.819,116.135 152.678,116.227C153.29,116.257 153.672,116.284 153.823,116.308C155.126,116.518 156.427,116.408 157.679,116.69C157.798,116.717 157.916,116.73 158.034,116.727C158.492,116.716 158.908,116.752 159.315,116.805C159.832,116.872 160.334,116.966 160.89,117.025C161.497,117.089 162.104,117.157 162.711,117.227L162.717,117.228Z" style="fill:white;fill-opacity:0.9;"/>
    <path d="M258.523,131.725C260.953,128.714 263.25,125.878 265.42,123.219C266.491,121.904 268.171,119.981 270.455,117.444C274.47,112.99 277.816,109.313 282.077,105.744C282.864,105.085 285.071,103.352 286.01,103.429C286.348,103.456 286.609,103.737 286.615,104.075C286.629,104.893 286.504,105.859 286.291,106.67C285.128,111.121 283.773,115.933 282.226,121.107C281.729,122.763 280.989,126.098 280.002,131.11C277.424,130.099 274.72,130.068 271.885,131.022C268.481,132.167 265.217,133.783 262.091,135.868C259.087,137.872 256.324,139.812 253.812,141.69C252.074,142.99 250.272,144.487 248.469,145.012C248.354,145.046 248.263,144.911 248.337,144.816L250.372,142.191L258.523,131.725Z" style="fill:white;fill-opacity:0.95;"/>
    <path d="M88.723,127.497L86.422,118.792C89.497,119.13 92.495,118.876 95.418,118.035C96.083,117.841 96.711,117.632 97.595,117.569C99.766,118.63 101.888,120.082 103.025,120.725C104.174,121.37 106.275,122.873 107.013,124.26C107.199,124.611 107.449,128.325 106.746,130.251C105.688,132.877 104.918,135.165 104.431,137.111C103.742,139.866 103.035,142.63 102.315,145.404C102.082,145.611 101.859,145.726 101.643,145.756C101.443,145.783 101.28,145.713 101.156,145.546C100.245,144.327 98.903,142.862 97.114,141.17C96.132,140.24 94.12,137.936 91.082,134.253C90.43,133.462 89.946,132.73 89.602,132.076C89.582,132.039 89.568,131.998 89.562,131.955L88.723,127.497Z" style="fill:white;fill-opacity:0.95;"/>
    <path d="M98.28,117.552C101.748,117.611 104.641,117.386 107.036,116.911C107.273,117.784 108.026,118.702 108.756,118.978C109.872,119.971 111.23,120.383 112.73,120.33C113.116,120.316 113.361,120.743 113.149,121.07C112.871,121.5 112.338,122.174 111.554,123.097C111.101,123.631 110.605,124.32 110.068,125.162C109.009,126.821 107.901,128.518 106.746,130.251C107.449,128.325 107.199,124.611 107.013,124.26C106.275,122.873 104.174,121.37 103.025,120.725C101.888,120.082 99.766,118.63 97.595,117.569C97.807,117.554 98.034,117.548 98.28,117.552Z" style="fill:white;fill-opacity:0.75;"/>
    <path d="M112.089,204.249C104.165,193.621 96.223,182.984 96.107,182.882C95.811,182.619 97.663,182.029 96.868,180.366C96.861,180.347 96.852,180.328 96.841,180.31L86.473,166.164C86.253,165.866 85.838,165.795 85.533,166.005L84.175,166.938C83.327,165.758 82.506,164.578 81.711,163.396C81.272,162.744 80.805,162.23 80.316,161.859C80.231,161.794 80.114,161.858 80.12,161.963C80.176,163.041 80.297,164.055 80.515,164.998C80.79,166.187 81.147,167.38 81.583,168.577L60.026,182.486C58.613,180.959 57.412,179.858 56.998,177.654C56.974,177.525 56.856,177.431 56.724,177.437C54.866,177.529 54.3,176.505 53.865,174.825C53.475,173.315 53.166,172.172 52,170.753C51.963,170.307 51.584,170.374 50.865,170.956C50.598,171.172 50.209,170.919 50.297,170.587C50.641,169.29 51.263,168.022 52.162,166.782C54.649,163.356 57.471,160.233 60.807,156.57C61.574,155.728 62.344,154.829 63.121,153.873L65.369,151.112C66.744,149.426 68.944,146.79 71.975,143.208C73.324,141.62 74.216,140.325 75.473,138.859C75.625,138.683 75.618,138.419 75.46,138.247C73.631,136.304 72.084,134.219 70.823,131.992C70.286,131.042 69.748,129.548 69.833,128.501C69.857,128.227 70.134,128.048 70.394,128.146C70.874,128.325 71.327,128.552 71.756,128.832C74.243,130.451 76.551,132.336 78.677,134.489C78.765,134.58 78.91,134.577 78.994,134.482C79.67,133.729 80.299,132.769 80.904,132.211C82.762,130.498 84.874,129.136 87.24,128.122C87.426,128.045 87.517,127.832 87.443,127.643L83.675,118.14C84.645,118.204 85.56,118.424 86.422,118.792L88.723,127.497C87.858,127.69 87.277,128.529 86.973,130.011C86.916,130.289 86.963,130.579 87.112,130.826C88.741,133.537 89.992,135.543 90.873,136.838C92.608,139.388 94.717,141.503 97.206,143.181C97.381,143.299 97.49,143.495 97.5,143.705L97.672,147.513C97.692,147.949 97.817,148.371 98.04,148.747L100.568,153.005C100.626,153.099 100.697,153.18 100.781,153.245L103.927,155.705C103.975,155.742 104.015,155.782 104.046,155.83L106.678,159.915C106.705,159.956 106.725,160 106.735,160.047C107.029,161.348 107.509,162.622 108.131,163.883L104.647,171.172C104.529,171.419 104.633,171.716 104.88,171.834C106.606,172.658 108.239,173.471 109.784,174.274C110.382,174.585 110.831,174.494 111.135,173.997C111.19,173.907 111.5,173.307 111.965,172.392L112.033,172.259C112.774,173.641 113.866,175.652 114.422,176.659L114.268,176.737L110.287,178.752C110.095,178.867 110.02,179.11 110.122,179.31L112.869,184.733C113.024,185.038 113.396,185.159 113.697,185.004L117.617,183.039C118.259,184.062 119.254,185.809 119.841,186.953C119.817,186.965 119.481,186.73 119.453,186.729L118.55,186.491C118.452,186.453 118.344,186.477 118.269,186.551L116.617,188.204C116.019,188.322 115.596,188.674 115.346,189.258C115.147,189.728 113.735,194.841 113.785,195.088C113.809,195.206 113.903,195.295 114.021,195.311C114.768,195.413 126.931,198.633 126.931,198.633C127.177,198.988 127.455,199.399 127.769,199.866C128.501,200.959 128.927,202.225 129.468,203.347C130.447,205.375 130.858,207.169 131.226,209.457C131.3,209.916 131.245,210.389 131.063,210.819C129.793,213.818 129.454,216.645 129.884,220.065C130.339,223.684 131.371,227.185 132.969,230.568L132.635,231.311C132.574,231.446 132.392,231.467 132.304,231.348L127.971,225.563C127.971,225.563 120.039,214.911 112.089,204.249Z" style="fill:white;fill-opacity:0.85;"/>
    <path d="M173.461,118.724C173.556,118.944 173.501,119.136 173.302,119.302C173.035,119.525 172.782,119.762 172.542,120.009L179.392,120.813C177.499,119.731 175.522,119.035 173.461,118.724Z" style="fill:white;fill-opacity:0.5;"/>
    <path d="M172.542,120.009L170.781,123.395C170.69,123.567 170.778,123.783 170.964,123.844C172.669,124.409 174.468,124.76 176.371,124.885C178.854,125.048 181.723,124.462 184.393,123.895C185.525,123.654 186.512,123.194 187.367,122.54C187.434,122.488 187.408,122.384 187.326,122.364L184.398,121.738C184.241,121.706 184.084,121.672 183.927,121.637L179.392,120.813L172.542,120.009Z" style="fill:white;"/>
    <path d="M88.723,127.497C87.858,127.69 87.277,128.529 86.973,130.011C86.916,130.289 86.963,130.579 87.112,130.826C88.741,133.537 89.992,135.543 90.873,136.838C92.608,139.388 94.717,141.503 97.206,143.181C97.381,143.299 97.49,143.495 97.5,143.705L97.672,147.513C97.692,147.949 97.817,148.371 98.04,148.747L100.568,153.005C100.626,153.099 100.697,153.18 100.781,153.245L103.927,155.705C103.975,155.742 104.015,155.782 104.046,155.83L106.678,159.915C106.705,159.956 106.725,160 106.735,160.047C107.029,161.348 107.509,162.622 108.131,163.883L109.476,161.213C109.06,160.503 108.685,159.804 108.351,159.111C107.959,158.3 107.592,157.6 107.249,157.009C106.414,155.568 105.777,154.005 105.347,152.312C104.679,149.682 104.274,148.033 106.174,146.182C107.691,144.704 108.698,143.667 109.196,143.066C109.395,142.826 109.563,142.562 109.692,142.279C110.616,140.26 111.372,138.845 111.933,138.017C112.967,136.49 113.897,135.145 114.721,133.982C115.329,133.124 115.705,132.307 116.228,131.414C116.57,130.83 116.894,130.157 117.198,129.4C117.543,128.538 118.206,126.908 119.195,124.506C119.57,123.597 120.126,122.66 120.871,121.705C121.175,121.316 121.374,120.927 121.466,120.532C121.496,120.404 121.338,120.316 121.246,120.414C120.152,121.587 119.345,122.823 118.83,124.121C118.722,124.395 118.566,124.645 118.371,124.861C114.572,129.062 111.73,134.021 109.121,139.338C109.007,139.572 108.863,139.79 108.695,139.987C107.862,140.966 107.236,141.857 106.147,142.745C104.949,143.722 103.67,144.607 102.315,145.404C102.082,145.611 101.859,145.726 101.643,145.756C101.443,145.783 101.28,145.713 101.156,145.546C100.245,144.327 98.903,142.862 97.114,141.17C96.132,140.24 94.12,137.936 91.082,134.253C90.43,133.462 89.946,132.73 89.602,132.076C89.582,132.039 89.568,131.998 89.562,131.955L88.723,127.497Z" style="fill:white;fill-opacity:0.75;"/>
    <path d="M286.605,143.313C287.261,143.161 288.055,142.88 288.991,142.471C291.025,141.582 293.181,140.616 295.456,139.578C296.645,139.034 297.717,138.683 298.67,138.524C299.021,138.467 299.399,138.639 299.802,139.048C299.883,139.132 299.933,139.237 299.947,139.352C300.048,140.288 300.004,141.167 299.815,141.985C299.379,143.874 298.73,145.847 297.872,147.909C295.709,153.103 292.854,159.527 289.302,167.174C288.379,169.168 287.274,171.676 285.99,174.7C284.841,177.4 283.77,179.921 282.776,182.263C280.201,188.309 277.64,194.402 275.095,200.535L272.713,200.65C272.605,200.654 272.53,200.545 272.571,200.447C275.465,193.47 278.078,186.245 280.347,179.647C282.346,173.836 283.952,167.799 285.166,161.544C286.321,155.59 286.802,149.671 286.521,143.796C286.512,143.603 286.541,143.444 286.605,143.313Z" style="fill:white;fill-opacity:0.95;"/>
    <path d="M190.547,158.368L190.229,158.293C190.121,158.27 190.034,158.192 189.996,158.087C189.139,155.707 188.539,153.806 188.232,152.373C187.884,150.747 187.941,149.317 189.107,148.203C189.999,147.35 190.763,146.704 191.878,146.178C197.468,143.543 203.712,142.442 209.796,143.427C210.617,143.56 211.463,143.715 212.337,143.853C212.384,143.861 212.432,143.83 212.442,143.782L212.449,143.749C212.455,143.711 212.435,143.671 212.398,143.661C209.262,142.791 206.312,142.237 203.537,142.035C198.857,141.695 194.218,142.546 189.648,144.644C189.553,144.688 189.452,144.709 189.347,144.708C188.986,144.707 188.621,144.69 188.252,144.668C187.509,144.622 187.063,144.772 186.911,145.121L185.9,146.381C185.816,146.489 185.765,146.621 185.758,146.76C185.691,148.189 185.704,149.368 185.785,150.298C186.025,153.032 186.252,154.894 186.461,155.891C186.688,156.969 187.357,157.842 188.486,158.472C188.596,158.534 188.722,158.56 188.847,158.547L190.547,158.368Z" style="fill:white;fill-opacity:0.75;"/>
    <path d="M164.61,144.13C164.418,144.026 164.185,144 163.911,144.012C163.901,144.013 163.894,144.009 163.891,143.999C163.887,143.992 163.894,143.982 163.901,143.978C163.951,143.954 163.974,143.931 163.965,143.907C163.957,143.887 163.941,143.871 163.921,143.867C162.17,143.522 160.663,143.274 159.366,143.279C156.453,143.289 153.506,143.645 150.522,144.333C146.325,145.301 147.057,149.358 146.271,152.559C146.227,152.738 146.203,152.923 146.2,153.109C146.164,155.15 146.166,156.32 146.2,156.617C146.683,160.875 147.379,164.515 148.295,167.539C150.58,175.092 153.376,182.48 156.669,189.718C157.491,191.525 158.365,193.378 159.288,195.28L160.332,197.612C160.484,197.605 160.619,197.565 160.741,197.494C162.59,196.227 164.42,194.924 166.239,193.594C166.614,193.32 166.989,192.878 167.368,192.273C167.77,190.965 167.614,189.725 166.905,188.545C165.961,186.975 165.3,185.862 164.921,185.203C163.527,182.779 163.086,179.929 162.296,177.279L161.491,174.582C160.923,172.686 160.407,171.023 159.943,169.601C158.766,165.988 157.626,161.794 156.524,157.026C155.777,153.799 155.381,150.798 155.334,148.023L155.429,144.806C155.432,144.708 155.51,144.627 155.608,144.62L164.61,144.13Z" style="fill:white;fill-opacity:0.65;"/>
    <path d="M176.387,144.07L164.61,144.13L155.608,144.62C155.51,144.627 155.432,144.708 155.429,144.806L155.334,148.023C161.593,147.27 167.058,152.012 169.838,157.168C170.173,157.789 171.011,157.651 171.237,156.931C172.611,152.568 174.329,148.28 176.387,144.07Z" style="fill:white;fill-opacity:0.1;"/>
    <path d="M190.689,158.594L190.547,158.368L188.847,158.547C188.722,158.56 188.596,158.534 188.486,158.472C187.357,157.842 186.688,156.969 186.461,155.891C186.252,154.894 186.025,153.032 185.785,150.298C185.704,149.368 185.691,148.189 185.758,146.76C185.765,146.621 185.816,146.489 185.9,146.381L186.911,145.121C184.19,144.712 181.47,144.223 178.783,144.141C177.925,144.114 177.128,144.09 176.387,144.07C174.329,148.28 172.611,152.568 171.237,156.931C171.011,157.651 170.173,157.789 169.838,157.168C167.058,152.012 161.593,147.27 155.334,148.023C155.381,150.798 155.777,153.799 156.524,157.026C157.626,161.794 158.766,165.988 159.943,169.601C160.407,171.023 160.923,172.686 161.491,174.582C163.786,171.554 166.408,169.08 169.365,167.161C172.484,165.136 175.833,164.548 179.415,165.403C182.217,166.076 184.732,167.405 186.052,169.939C186.15,170.079 186.257,170.303 186.371,170.593C188.472,175.182 189.36,182.828 189.486,183.392C189.53,183.595 189.814,183.605 189.871,183.405C190.492,181.24 191.388,179.266 192.575,177.478L190.689,158.594Z" style="fill:white;fill-opacity:0.35;"/>
    <path d="M34.995,198.558C34.13,198.102 33.393,197.507 32.782,196.781C29.108,192.401 26.148,188.667 23.907,185.575C19.798,179.911 16.797,175.727 14.908,173.027C14.705,172.737 14.371,172.568 14.019,172.571C12.603,172.588 11.133,172.443 9.609,172.135C8.717,171.953 7.788,171.412 6.825,170.516C4.375,168.229 2.148,165.721 0.144,162.994C0.069,162.893 0.022,162.771 0.012,162.643C-0.144,160.831 1.252,158.844 2.334,157.269C2.546,156.955 2.982,156.002 3.635,154.404C4.219,152.967 4.689,152.069 5.044,151.714C5.804,150.95 6.74,150.534 7.849,150.463C7.889,150.46 7.93,150.463 7.97,150.473L11.603,151.149C11.654,151.159 11.705,151.176 11.748,151.2C13.529,152.096 15.033,153.576 16.294,155.063C18.105,157.195 20.153,158.864 22.028,160.733C23.417,162.119 24.005,163.741 23.789,165.596C23.776,165.721 23.833,165.846 23.941,165.914C28.466,168.813 31.842,170.905 34.062,172.186C38.523,174.758 41.656,176.4 44.954,179.151C44.998,179.188 45.066,179.184 45.106,179.141C47.536,176.474 49.834,173.68 52,170.753C53.166,172.172 53.475,173.315 53.865,174.825C54.3,176.505 54.866,177.529 56.724,177.437C56.856,177.431 56.974,177.525 56.998,177.654C57.412,179.858 58.613,180.959 60.026,182.486L34.995,198.558Z" style="fill:white;"/>
    <path d="M208.143,169.236C217.636,170.109 219.145,190.188 212.229,201.813C212.202,201.907 212.246,202.009 212.337,202.053C212.425,202.097 212.535,202.067 212.591,201.985C220.624,189.617 228.108,186.156 233.692,187.878C233.76,187.442 233.863,187.011 234.002,186.585L234.56,184.872C235.621,180.854 236.511,176.877 237.226,172.939C237.683,170.422 237.975,168.252 238.105,166.431C238.155,165.724 238.216,165.126 238.291,164.63C238.517,163.112 238.385,161.038 238.426,160.176C238.437,159.939 238.412,159.699 238.348,159.469C238.201,158.939 238.131,158.408 238.125,157.874C238.123,157.668 238.1,157.462 238.054,157.256C237.842,156.301 237.689,155.722 237.618,155.512C237.038,153.789 235.337,150.973 233.303,150.774C232.049,150.652 230.964,150.653 230.052,150.778C229.231,150.89 228.19,151.191 226.929,151.68C224.581,152.591 222.324,153.627 220.154,154.789C219.376,155.205 218.136,155.989 216.436,157.141C215.264,157.935 214.034,158.733 212.743,159.534L211.965,160.632C211.891,160.737 211.769,160.801 211.641,160.801L210.914,160.894L208.143,169.236Z" style="fill:white;fill-opacity:0.35;"/>
    <path d="M113.305,155.397L114.684,154.018C114.721,153.981 117.424,155.411 120.026,156.698C120.138,156.752 120.162,156.901 120.074,156.989C120.074,156.989 119.256,158.483 118.807,158.81L113.25,155.532C113.25,155.483 113.269,155.434 113.305,155.397Z" style="fill:white;fill-opacity:0.15;"/>
    <path d="M111.135,173.997C110.831,174.494 110.382,174.585 109.784,174.274C108.239,173.471 106.606,172.658 104.88,171.834C104.633,171.716 104.529,171.419 104.647,171.172L108.131,163.883L109.476,161.213L111.747,156.566C112.231,155.543 112.513,155.187 113.156,155.476L118.807,158.81C118.807,158.81 115.404,165.592 113.128,170.096L112.901,170.546L112.033,172.259L111.965,172.392C111.5,173.307 111.19,173.907 111.135,173.997Z" style="fill:white;fill-opacity:0.5;"/>
    <path d="M210.914,160.894L208.143,169.236C206.991,173.649 205.658,178.176 204.162,182.821C203.928,183.547 203.835,184.078 203.885,184.412C203.961,184.919 204.12,185.439 204.365,185.97C204.735,186.77 205.363,188.154 206.254,190.117C206.494,190.644 206.771,191.509 206.798,191.955C206.979,194.865 206.893,197.66 206.531,200.346C206.332,201.823 205.615,203.073 204.369,204.087C203.569,204.738 202.394,205.352 201.581,204.445C201.48,204.333 201.306,204.33 201.202,204.438C200.414,205.259 199.364,205.713 198.039,205.79C197.921,205.797 197.805,205.771 197.701,205.716C197.491,205.606 197.299,205.544 197.12,205.537C196.981,205.531 196.854,205.601 196.785,205.716C196.601,206.024 196.414,206.321 196.231,206.601C195.674,207.457 194.113,207.289 193.396,206.818C192.241,206.058 191.48,205.702 191.071,204.493C189.583,200.099 188.816,195.608 189.418,191.046C189.607,189.613 190.1,188.095 190.986,187.248C191.294,186.953 191.937,186.419 192.899,185.632C193.018,185.535 193.081,185.386 193.071,185.234L192.575,177.478L190.689,158.594C191.246,158.401 191.814,158.262 192.385,158.175C198.558,157.236 210.619,160.914 210.761,160.914L210.914,160.894Z" style="fill:white;"/>
    <path d="M84.175,166.938C83.327,165.758 82.506,164.578 81.711,163.396C81.272,162.744 80.805,162.23 80.316,161.859C80.231,161.794 80.114,161.858 80.12,161.963C80.176,163.041 80.297,164.055 80.515,164.998C80.79,166.187 81.147,167.38 81.583,168.577L84.175,166.938Z" style="fill:white;fill-opacity:0.65;"/>
    <path d="M241.781,221.94C246.086,220.012 249.058,219.703 251.098,220.324L251.105,220.326C251.346,220.4 251.574,220.486 251.79,220.585C256.223,222.609 255.437,229.643 255.197,231.798C254.628,236.911 253.213,241.839 251.666,247.346C251.288,248.691 250.109,249.306 248.868,249.654C248.395,249.787 247.736,249.854 246.894,249.857C245.921,249.861 244.833,249.862 243.63,249.864C243.333,249.864 243.12,249.985 242.991,250.232C237.061,250.285 184.482,248.961 182.938,248.922C180.522,244.742 178.283,240.912 178.283,240.912C178.611,240.131 178.888,239.59 179.121,239.29C179.476,238.833 179.804,238.276 180.111,237.624C180.765,236.235 181.558,234.386 182.494,232.078C183.478,229.652 183.752,227.851 184.38,225.005C184.512,224.407 184.412,223.833 184.65,223.224C184.79,222.867 184.826,222.501 184.761,222.126C184.34,219.672 183.569,217.287 182.45,214.969L181.19,212.356C180.585,210.998 179.976,209.846 179.371,208.899C178.556,207.622 177.85,205.885 176.982,204.486C176.171,203.178 175.358,201.876 174.542,200.583C172.588,197.482 170.193,194.716 167.368,192.273C167.77,190.965 167.614,189.725 166.905,188.545C165.961,186.975 165.3,185.862 164.921,185.203C163.527,182.779 163.086,179.929 162.296,177.279L161.491,174.582C163.786,171.554 166.408,169.08 169.365,167.161C172.484,165.136 175.833,164.548 179.415,165.403C182.217,166.076 184.732,167.405 186.052,169.939C186.162,170.148 186.268,170.367 186.371,170.593C188.472,175.182 189.36,182.828 189.486,183.392C189.53,183.595 189.814,183.605 189.871,183.405C190.492,181.24 191.388,179.266 192.575,177.478L193.071,185.234C193.081,185.386 193.018,185.535 192.899,185.632C191.937,186.419 191.294,186.953 190.986,187.248C190.1,188.095 189.607,189.613 189.418,191.046C188.816,195.608 189.583,200.099 191.071,204.493C191.48,205.702 192.241,206.058 193.396,206.818C194.113,207.289 195.674,207.457 196.231,206.601C196.414,206.321 196.601,206.024 196.785,205.716C196.854,205.601 196.981,205.531 197.12,205.537C197.299,205.544 197.491,205.606 197.701,205.716C197.805,205.771 197.921,205.797 198.039,205.79C199.364,205.713 200.414,205.259 201.202,204.438C201.306,204.33 201.48,204.333 201.581,204.445C202.394,205.352 203.569,204.738 204.369,204.087C205.615,203.073 206.332,201.823 206.531,200.346C206.893,197.66 206.979,194.865 206.798,191.955C206.771,191.509 206.494,190.644 206.254,190.117C205.363,188.154 204.735,186.77 204.365,185.97C204.12,185.439 203.961,184.919 203.885,184.412C203.835,184.078 203.928,183.547 204.162,182.821C205.658,178.176 206.991,173.649 208.143,169.236C217.636,170.109 219.145,190.188 212.229,201.813C212.179,201.897 212.246,202.009 212.337,202.053C212.425,202.097 212.535,202.067 212.591,201.985C220.624,189.617 228.108,186.156 233.692,187.878C235.976,188.582 237.942,190.152 239.498,192.336C244.004,198.658 245.072,210.112 240.462,220.52C240.094,221.349 240.49,221.964 241.102,222.049C241.311,222.079 241.544,222.046 241.781,221.94Z" style="fill:white;fill-opacity:0.5;"/>
    <path d="M86.473,166.164L96.841,180.31C96.852,180.328 96.861,180.347 96.868,180.366C97.663,182.029 95.811,182.619 96.107,182.882C96.223,182.984 104.165,193.621 112.089,204.249C110.996,206.076 109.984,207.944 109.054,209.852C108.279,211.44 107.664,212.362 108.233,213.823C108.413,214.286 108.523,214.58 108.56,214.705C111.537,224.628 116.755,241.9 119.759,251.839L120.524,254.368L122.068,259.471C122.068,259.471 122.272,260.715 122.071,261.462C122.051,261.536 121.49,262.942 120.834,263.567C120.733,263.424 119.419,259.229 117.581,253.269L116.297,249.094C113.256,239.191 109.386,226.471 106.989,218.568C106.924,218.355 106.698,218.236 106.485,218.304L94.917,221.765L82.968,210.221C82.698,209.957 82.303,209.869 81.944,209.991L67.278,215.016C67.116,215.07 67.072,215.276 67.194,215.394L78.815,226.648C77.628,226.97 76.45,227.3 75.281,227.64C74.246,227.94 73.219,228.248 72.199,228.562L64.853,230.76C64.012,229.971 63.229,229.188 62.5,228.415C61.179,227.015 59.827,226.1 58.492,224.657C57.043,223.092 55.303,221.477 53.301,219.777C53.254,219.737 53.19,219.723 53.132,219.744L40.206,224.174C40.054,224.225 40.01,224.421 40.128,224.532L50.921,234.928L36.636,239.202L26.466,229.267C26.263,229.071 25.976,228.996 25.705,229.067C25.191,229.202 17.25,231.881 16.915,231.899C16.797,231.905 16.723,232.024 16.767,232.132C16.942,232.562 20.585,236.026 21.647,237.147C23.01,238.587 25.127,240.333 26.795,242.146L18.517,244.622C17.51,240.743 16.213,236.88 14.628,233.031C14.59,232.943 14.543,232.859 14.489,232.778L6.196,220.399C6.132,220.301 6.118,220.179 6.166,220.071C6.504,219.304 6.923,218.395 7.419,217.341C7.747,216.648 8.21,216.101 8.805,215.692C10.515,214.512 13.137,212.789 16.669,210.521L20.605,207.991C25.295,204.976 29.911,202.013 34.454,199.102C34.677,198.957 34.857,198.778 34.995,198.558L60.026,182.486L81.583,168.577L84.175,166.938L85.533,166.005C85.838,165.795 86.253,165.866 86.473,166.164ZM25.621,226.276L26.557,206.865C26.564,206.75 26.435,206.676 26.337,206.74L18.051,212.086C17.923,212.167 17.845,212.306 17.838,212.454L16.949,230.868C16.936,231.139 17.226,231.314 17.46,231.179L25.442,226.57C25.546,226.509 25.614,226.398 25.621,226.276ZM38.3,218.503L29.642,223.471C29.264,223.687 29.362,224.258 29.791,224.339C30.196,224.414 30.693,224.35 31.281,224.147C35.215,222.778 47.516,218.605 68.18,211.63C71.36,210.555 76.21,208.764 80.11,207.571C80.39,207.483 80.596,207.331 80.728,207.118C80.954,207.213 81.215,207.209 81.502,207.112C83.864,206.306 86.219,205.494 88.571,204.675C89.068,204.502 89.146,204.155 89.146,204.155L94.303,184.95C94.303,184.95 94.299,184.821 94.242,184.791C94.185,184.76 77.382,195.247 77.382,195.247L78.43,173.318C78.437,173.19 78.295,173.108 78.187,173.179L64.527,181.993C64.297,182.141 64.149,182.392 64.135,182.669L63.084,203.367L63.044,203.779L50.755,211.092L50.783,210.731L51.591,190.718C51.598,190.573 51.436,190.482 51.314,190.559L39.726,198.038C39.429,198.227 39.243,198.552 39.226,198.906L38.3,218.503Z" style="fill:white;fill-opacity:0.25;"/>
    <path d="M26.337,206.74L18.051,212.086C17.923,212.167 17.845,212.306 17.838,212.454L16.949,230.868C16.936,231.139 17.226,231.314 17.46,231.179L25.442,226.57C25.546,226.509 25.614,226.398 25.621,226.276L26.557,206.865C26.564,206.75 26.435,206.676 26.337,206.74Z" style="fill:white;"/>
    <path d="M51.591,190.718L50.783,210.731L50.755,211.092L38.3,218.503L39.226,198.906C39.243,198.552 39.429,198.227 39.726,198.038L51.314,190.559C51.436,190.482 51.598,190.573 51.591,190.718Z" style="fill:white;"/>
    <path d="M77.382,195.247L78.43,173.318C78.437,173.19 78.295,173.108 78.187,173.179L64.527,181.993C64.297,182.141 64.149,182.392 64.135,182.669L63.072,203.762L77.382,195.247Z" style="fill:white;"/>
    <path d="M64.135,182.669L63.084,203.367L63.044,203.779L63.072,203.762L64.135,182.669Z" style="fill:white;"/>
    <path d="M129.334,168.573C129.343,168.564 129.354,168.556 129.367,168.55L130.952,167.867C131.287,167.747 131.651,167.785 131.834,168.114L134.216,172.818C134.264,172.909 134.254,173.021 134.196,173.105C133.78,173.717 133.165,174.207 132.358,174.575L129.877,169.374C129.829,169.268 129.737,169.187 129.629,169.147L129.59,169.134C129.48,169.105 129.237,169.183 129.011,169.275C128.932,168.913 129.232,168.65 129.334,168.573Z" style="fill:white;fill-opacity:0.15;"/>
    <path d="M131.635,176.015L113.697,185.004C113.396,185.159 113.024,185.038 112.869,184.733L110.122,179.31C110.02,179.11 110.095,178.867 110.287,178.752L114.268,176.737L114.422,176.659L115.4,176.164L115.702,176.011C120.696,173.481 127.494,170.039 128.539,169.492C128.601,169.46 128.799,169.362 129.011,169.275C129.237,169.183 129.48,169.105 129.59,169.134L129.629,169.147C129.737,169.187 129.829,169.268 129.877,169.374L132.358,174.575C132.672,175.328 132.506,175.669 131.635,176.015Z" style="fill:white;fill-opacity:0.5;"/>
    <path d="M112.033,172.259C112.774,173.641 113.866,175.652 114.422,176.659L115.4,176.164L112.901,170.546L112.033,172.259Z" style="fill:white;fill-opacity:0.75;"/>
    <path d="M119.53,186.712C118.944,185.567 118.259,184.062 117.617,183.039L118.559,182.567L121.056,187.152L119.553,186.756L119.53,186.712Z" style="fill:white;fill-opacity:0.75;"/>
    <path d="M118.55,186.491L119.453,186.729L119.553,186.756L121.056,187.152C123.956,187.916 128.475,189.102 129.577,189.363C130.34,189.546 130.628,190.015 130.438,190.776C129.962,192.699 129.411,194.527 128.793,196.26C128.755,196.261 128.462,196.085 127.99,195.785C128.465,194.478 128.951,193.012 129.098,192.061C129.178,191.55 129.158,191.188 128.989,191.076C128.938,191.043 128.88,191.019 128.82,191.002L116.617,188.204L118.269,186.551C118.344,186.477 118.452,186.453 118.55,186.491Z" style="fill:white;fill-opacity:0.15;"/>
    <path d="M277.525,233.592C277.096,237.593 275.894,241.032 273.929,243.913C272.349,246.23 270.266,248.012 267.674,249.259C265.819,250.04 264.119,250.499 262.575,250.638C257.942,251.047 253.613,251.003 249.581,250.499C247.073,250.188 244.877,250.1 242.991,250.232C243.12,249.985 243.333,249.864 243.63,249.864C244.833,249.862 245.921,249.861 246.894,249.857C247.736,249.854 248.395,249.787 248.868,249.654C250.109,249.306 251.288,248.691 251.666,247.346C253.213,241.839 254.628,236.911 255.197,231.798C255.437,229.643 256.223,222.609 251.79,220.585C251.574,220.486 251.346,220.4 251.105,220.326L251.098,220.324C249.058,219.703 246.086,220.012 241.781,221.94C241.544,222.046 241.311,222.079 241.102,222.049C240.49,221.964 240.094,221.349 240.462,220.52C245.072,210.112 244.004,198.658 239.498,192.336C241.895,190.746 244.326,189.211 246.986,188.197C248.023,187.802 248.933,187.515 249.732,187.312C253.283,186.411 254.665,187.155 255.363,187.363C259.551,188.607 261.727,194.188 262.264,198.119C262.359,198.818 262.465,199.66 262.585,200.65C262.815,202.553 262.666,204.614 262.693,206.622C262.708,207.771 262.662,208.913 262.558,210.045C262.155,214.397 261.277,218.704 259.912,222.961C259.881,223.055 259.979,223.143 260.071,223.099C260.389,222.951 260.996,222.742 261.806,222.551C262.816,222.312 264.142,222.1 265.621,222.06C266.114,222.047 266.625,222.053 267.146,222.084C267.849,222.126 268.572,222.212 269.3,222.357C271.079,222.712 272.888,223.414 274.511,224.661C277.263,226.774 277.886,230.257 277.525,233.592Z" style="fill:white;fill-opacity:0.35;"/>
    <path d="M127.324,197.561C127.104,198.135 126.949,198.538 126.931,198.633C126.931,198.633 114.768,195.413 114.021,195.311C113.903,195.295 113.809,195.206 113.785,195.088C113.735,194.841 115.147,189.728 115.346,189.258C115.596,188.674 116.019,188.322 116.617,188.204L128.82,191.002C128.88,191.019 128.938,191.043 128.989,191.076C129.158,191.188 129.178,191.55 129.098,192.061C128.951,193.012 128.465,194.478 127.99,195.785C127.795,196.323 127.602,196.833 127.435,197.271L127.361,197.466L127.324,197.561Z" style="fill:white;fill-opacity:0.5;"/>
    <path d="M154.229,262.57L140.191,273.08C140.113,273.141 140.022,273.181 139.924,273.198L139.299,273.323C143.175,267.47 147.184,261.807 151.323,256.332C154.983,251.49 158.13,247.002 160.761,242.869C163.611,238.392 165.742,234.46 167.52,229.503C168.28,227.384 168.301,226.019 168.419,223.464C168.733,216.678 168.142,208.712 164.178,203.012C162.909,201.188 161.77,199.507 160.788,197.957C160.737,197.876 160.721,197.72 160.741,197.494C162.59,196.227 164.42,194.924 166.239,193.594C166.614,193.32 166.989,192.878 167.368,192.273C170.193,194.716 172.588,197.482 174.542,200.583C175.358,201.876 176.171,203.178 176.982,204.486C177.85,205.885 178.556,207.622 179.371,208.899C179.976,209.846 180.585,210.998 181.19,212.356L182.45,214.969C183.569,217.287 184.34,219.672 184.761,222.126C184.826,222.501 184.79,222.867 184.65,223.224C184.412,223.833 184.512,224.407 184.38,225.005C183.752,227.851 183.478,229.652 182.494,232.078C181.558,234.386 180.765,236.235 180.111,237.624C179.804,238.276 179.476,238.833 179.121,239.29C178.888,239.59 178.611,240.131 178.283,240.912C177.259,242.473 176.211,243.722 175.147,244.66C173.432,246.171 172.129,247.342 171.227,248.171C169.252,249.987 167.26,251.784 165.246,253.557C163.668,254.947 161.845,256.465 159.781,258.123C157.894,259.639 156.044,261.12 154.229,262.57Z" style="fill:white;fill-opacity:0.35;"/>
    <path d="M127.479,197.619C129.129,199.748 131.158,202.369 132.75,204.364C134.399,206.429 137.981,205.52 140.066,204.672C141.867,203.939 143.824,203.027 145.943,201.934C150.344,199.665 153.859,198.03 157.554,196.568C158.362,196.248 158.94,195.818 159.288,195.28L160.332,197.612C160.197,197.768 160.055,197.896 159.91,197.997C157.199,199.883 154.588,201.435 152.086,202.661C147.968,204.68 143.294,206.715 138.877,209.244C138.775,209.302 138.728,209.42 138.755,209.535L140.505,216.466C140.543,216.614 140.516,216.773 140.434,216.902C139.405,218.523 138.464,219.966 137.626,221.241C136.751,222.572 135.893,224.276 135.051,226.354C134.68,227.27 133.987,228.675 132.969,230.568C131.371,227.185 130.339,223.684 129.884,220.065C129.454,216.645 129.793,213.818 131.063,210.819C131.245,210.389 131.3,209.916 131.226,209.457C130.858,207.169 130.447,205.375 129.468,203.347C128.927,202.225 128.501,200.959 127.769,199.866C127.455,199.399 127.177,198.988 126.931,198.633C126.95,198.533 127.122,198.091 127.361,197.466L127.479,197.619Z" style="fill:white;fill-opacity:0.65;"/>
    <path d="M80.728,207.118C80.954,207.213 81.215,207.209 81.502,207.112C83.864,206.306 86.219,205.494 88.571,204.675C89.068,204.502 89.257,204.327 89.146,204.155C88.94,203.969 88.723,203.81 88.497,203.678C84.547,201.4 80.66,198.545 77.43,196.031C77.071,195.753 76.578,195.733 76.2,195.987L73.932,197.507C73.729,197.643 73.682,197.923 73.831,198.119L80.728,207.118Z" style="fill:white;"/>
    <path d="M120.524,254.368C120.942,253.387 125.356,241.741 128.161,236.897C128.292,236.67 128.333,236.404 128.282,236.15L127.552,232.436C127.535,232.352 127.529,232.264 127.529,232.176L127.529,226.343C127.529,226.283 127.546,226.225 127.579,226.174L127.971,225.563L132.304,231.348C132.392,231.467 132.574,231.446 132.635,231.311L132.969,230.568C133.987,228.675 134.68,227.27 135.051,226.354C135.893,224.276 136.751,222.572 137.626,221.241C138.464,219.966 139.405,218.523 140.434,216.902C140.516,216.773 140.543,216.614 140.505,216.466L138.755,209.535C138.728,209.42 138.775,209.302 138.877,209.244C143.294,206.715 147.968,204.68 152.086,202.661C154.588,201.435 157.199,199.883 159.91,197.997C160.055,197.896 160.197,197.768 160.332,197.612C160.484,197.605 160.619,197.565 160.741,197.494C160.721,197.72 160.737,197.876 160.788,197.957C161.77,199.507 162.909,201.188 164.178,203.012C168.142,208.712 168.733,216.678 168.419,223.464C168.301,226.019 168.28,227.384 167.52,229.503C165.742,234.46 163.611,238.392 160.761,242.869C158.13,247.002 154.983,251.49 151.323,256.332C147.184,261.807 143.175,267.47 139.299,273.323C137.16,273.83 135.338,274.111 133.841,274.161C129.931,274.297 127.032,274.273 125.143,274.087C123.669,273.942 122.909,273.867 122.865,273.871C122.057,273.915 121.419,273.6 120.567,273.536C120.456,273.526 120.351,273.482 120.266,273.408C118.219,271.58 117.579,268.255 117.677,265.608L120.439,264.882C120.608,264.814 120.736,264.676 120.797,264.503C120.929,264.128 120.942,263.817 120.834,263.567C121.49,262.942 122.051,261.536 122.071,261.462C122.272,260.715 122.068,259.471 122.068,259.471L120.524,254.368Z" style="fill:white;fill-opacity:0.5;"/>
    <path d="M128.161,236.897C125.356,241.741 120.942,253.387 120.524,254.368L119.759,251.839C116.755,241.9 111.537,224.628 108.56,214.705C108.523,214.58 108.413,214.286 108.233,213.823C107.664,212.362 108.279,211.44 109.054,209.852C109.984,207.944 110.996,206.076 112.089,204.249C120.039,214.911 127.971,225.563 127.971,225.563L127.579,226.174C127.546,226.225 127.529,226.283 127.529,226.343L127.529,232.176C127.529,232.264 127.535,232.352 127.552,232.436L128.282,236.15C128.333,236.404 128.292,236.67 128.161,236.897Z" style="fill:white;fill-opacity:0.35;"/>
    <path d="M94.917,221.765L82.968,210.221C82.698,209.957 82.303,209.869 81.944,209.991L67.278,215.016C67.116,215.07 67.072,215.276 67.194,215.394L78.764,226.598L94.917,221.765Z" style="fill:white;"/>
    <path d="M120.439,264.882L31.342,288.321C31.136,288.375 30.923,288.253 30.862,288.047L18.517,244.622L75.281,227.64C76.45,227.3 77.628,226.97 78.815,226.648L78.764,226.598L106.485,218.304C106.698,218.236 106.924,218.355 106.989,218.568C109.386,226.471 113.256,239.191 116.297,249.094L117.581,253.269C119.419,259.229 120.733,263.424 120.834,263.567C120.942,263.817 120.929,264.128 120.797,264.503C120.736,264.676 120.608,264.814 120.439,264.882ZM63.671,243.815C63.372,242.784 62.294,242.193 61.263,242.491L31.524,251.131C30.494,251.432 29.902,252.51 30.2,253.539L30.238,253.669C30.538,254.7 31.616,255.291 32.646,254.993L62.385,246.353C63.415,246.052 64.007,244.974 63.709,243.945L63.671,243.815ZM100.877,244.831C100.575,243.808 99.497,243.223 98.474,243.526L34.636,262.436C33.613,262.739 33.028,263.814 33.331,264.839L33.375,264.988C33.677,266.01 34.755,266.595 35.778,266.292L99.616,247.382C100.639,247.079 101.224,246.005 100.921,244.98L100.877,244.831ZM104.555,256.983C104.262,255.923 103.163,255.298 102.103,255.591L37.848,273.289C36.786,273.584 36.164,274.678 36.456,275.741L36.463,275.767C36.756,276.828 37.854,277.453 38.914,277.16L103.169,259.461C104.231,259.167 104.853,258.072 104.562,257.01L104.555,256.983Z" style="fill:white;fill-opacity:0.5;"/>
    <path d="M64.853,230.76C64.012,229.971 63.229,229.188 62.5,228.415C61.179,227.015 59.827,226.1 58.492,224.657C57.043,223.092 55.303,221.477 53.301,219.777C53.254,219.737 53.19,219.723 53.132,219.744L40.206,224.174C40.054,224.225 40.01,224.421 40.128,224.532L50.921,234.928L64.853,230.76Z" style="fill:white;"/>
    <path d="M36.636,239.202L26.466,229.267C26.263,229.071 25.976,228.996 25.705,229.067C25.191,229.202 17.25,231.881 16.915,231.899C16.797,231.905 16.723,232.024 16.767,232.132C16.942,232.562 20.585,236.026 21.647,237.147C23.01,238.587 25.127,240.333 26.795,242.146L36.636,239.202Z" style="fill:white;"/>
    <path d="M182.938,248.922C185.27,252.958 187.767,257.321 188.57,258.877C189.185,260.066 189.678,260.914 190.054,261.418C190.128,261.516 190.138,261.644 190.077,261.752C189.178,263.385 187.996,264.608 186.529,265.422C182.937,267.423 179.155,269.211 175.184,270.782C171.89,272.086 168.581,272.989 165.263,273.489C165.171,273.502 165.08,273.479 165.009,273.421C160.923,270.221 157.331,266.605 154.229,262.57C156.044,261.12 157.894,259.639 159.781,258.123C161.845,256.465 163.668,254.947 165.246,253.557C167.26,251.784 169.252,249.987 171.227,248.171C172.129,247.342 173.432,246.171 175.147,244.66C176.211,243.722 177.259,242.473 178.283,240.912C178.283,240.912 180.522,244.742 182.938,248.922Z" style="fill:white;fill-opacity:0.25;"/>
    <path d="M63.671,243.815C63.372,242.784 62.294,242.193 61.263,242.491L31.524,251.131C30.494,251.432 29.902,252.51 30.2,253.539L30.238,253.669C30.538,254.7 31.616,255.291 32.646,254.993L62.385,246.353C63.415,246.052 64.007,244.974 63.709,243.945L63.671,243.815Z" style="fill:white;fill-opacity:0.75;"/>
    <path d="M100.877,244.831C100.575,243.808 99.497,243.223 98.474,243.526L34.636,262.436C33.613,262.739 33.028,263.814 33.331,264.839L33.375,264.988C33.677,266.01 34.755,266.595 35.778,266.292L99.616,247.382C100.639,247.079 101.224,246.005 100.921,244.98L100.877,244.831Z" style="fill:white;fill-opacity:0.75;"/>
    <path d="M104.555,256.983C104.262,255.923 103.163,255.298 102.103,255.591L37.848,273.289C36.786,273.584 36.164,274.678 36.456,275.741L36.463,275.767C36.756,276.828 37.854,277.453 38.914,277.16L103.169,259.461C104.231,259.167 104.853,258.072 104.562,257.01L104.555,256.983Z" style="fill:white;fill-opacity:0.75;"/>
    <path d="M144.015,115.42C144.103,108.051 144.174,90.088 144.219,71.053C144.414,72.007 144.61,72.962 144.804,73.917C145.017,74.671 145.215,75.432 145.399,76.205C147.17,83.673 148.612,89.898 149.704,94.89C149.856,95.584 150.002,96.286 150.144,96.997C149.498,97.031 148.867,97.065 148.249,97.099C148.88,97.135 149.525,97.169 150.185,97.204C150.879,100.722 151.448,104.448 151.89,108.38C150.698,109.968 149.712,111.373 148.94,112.594C148.449,113.371 147.842,114.443 147.119,115.811L144.679,115.47L144.015,115.42Z" style="fill:white;fill-opacity:0.25;"/>
    <path d="M233.692,187.878C233.76,187.442 233.863,187.011 234.002,186.585L234.56,184.872C235.621,180.854 236.511,176.877 237.226,172.939C237.683,170.422 237.975,168.252 238.105,166.431C238.155,165.724 238.216,165.126 238.291,164.63C238.517,163.112 238.385,161.038 238.426,160.176C238.437,159.939 238.412,159.699 238.348,159.469C238.201,158.939 238.131,158.408 238.125,157.874C238.123,157.668 238.1,157.462 238.054,157.256C237.842,156.301 237.689,155.722 237.618,155.512C237.038,153.789 235.337,150.973 233.303,150.774C232.049,150.652 230.964,150.653 230.052,150.778C229.231,150.89 228.19,151.191 226.929,151.68C224.581,152.591 222.324,153.627 220.154,154.789C219.376,155.205 218.136,155.989 216.436,157.141C215.264,157.935 214.034,158.733 212.743,159.534C213.631,157.252 214.206,155.222 214.466,153.447C214.615,152.43 214.532,151.367 214.233,150.261C214.174,150.045 214.149,149.821 214.155,149.598C214.232,146.854 214.106,143.667 213.79,140.035C213.578,137.598 213.132,135.368 212.452,133.337C211.577,130.724 210.201,128.937 207.883,127.73C206.136,126.821 204.453,126.101 202.831,125.571C200.456,124.796 198.668,124.185 196.403,123.621C193.997,123.022 191.809,122.394 189.841,121.722C189.743,121.688 189.638,121.678 189.537,121.695L186.934,122.046C186.914,122.05 186.894,122.05 186.877,122.046C186.046,122.004 185.219,121.902 184.398,121.738C184.241,121.706 184.084,121.672 183.927,121.637L179.392,120.813C177.499,119.731 175.522,119.035 173.461,118.724C169.882,118.141 166.301,117.641 162.717,117.228L162.711,117.227C162.104,117.157 161.497,117.089 160.89,117.025C160.334,116.966 159.832,116.872 159.315,116.805C158.908,116.752 158.492,116.716 158.034,116.727C157.916,116.73 157.798,116.717 157.679,116.69C156.427,116.408 155.126,116.518 153.823,116.308C153.672,116.284 153.29,116.257 152.678,116.227C150.819,116.135 148.967,115.997 147.119,115.811C147.842,114.443 148.449,113.371 148.94,112.594C149.712,111.373 150.698,109.968 151.89,108.38C154.479,105.278 156.961,102.684 159.328,100.594C160.039,99.967 160.923,99.271 161.983,98.508C162.654,98.025 163.394,97.515 164.205,96.978L163.927,96.418L165.137,96.378C170.863,92.801 177.061,90.86 182.981,90.15C182.918,87.161 182.865,84.083 182.823,80.937C176.089,80.849 169.676,80.695 163.817,80.501C163.749,85.754 163.649,90.82 163.524,95.607L161.82,92.173C161.733,88.395 161.662,84.465 161.61,80.424C159.678,80.355 157.813,80.282 156.022,80.204L155.692,79.455C157.578,79.373 159.55,79.295 161.596,79.221C161.544,74.797 161.515,70.248 161.515,65.627C161.515,63.257 161.523,60.907 161.537,58.582C156.629,58.406 152.151,58.201 148.249,57.983C152.153,57.764 156.634,57.56 161.545,57.383C161.597,50.159 161.714,43.2 161.876,36.731C156.835,36.552 152.241,36.343 148.249,36.12C152.249,35.896 156.854,35.687 161.908,35.508C162.121,27.36 162.404,20.027 162.714,13.968C163.024,20.013 163.306,27.326 163.519,35.452C169.547,35.25 176.167,35.091 183.127,35.002C183.338,27.056 183.616,19.901 183.92,13.968C184.224,19.896 184.502,27.045 184.713,34.982C188.264,34.943 191.897,34.921 195.579,34.921C197.934,34.921 200.27,34.93 202.576,34.947C202.787,27.023 203.064,19.887 203.368,13.968C203.671,19.891 203.949,27.031 204.16,34.959C210.905,35.02 217.384,35.147 223.378,35.319C223.59,27.247 223.871,19.98 224.179,13.968C224.488,19.992 224.769,27.275 224.982,35.367C231.725,35.573 237.809,35.835 242.908,36.12C237.819,36.405 231.748,36.666 225.021,36.872C225.16,42.461 225.266,48.413 225.325,54.585L225.192,54.817L223,58.923L223.001,58.794C217.228,58.958 211.013,59.08 204.548,59.14C204.56,61.282 204.567,63.447 204.567,65.627C204.567,70.054 204.541,74.416 204.493,78.665C207.4,78.692 210.257,78.731 213.045,78.781L212.628,79.615L212.01,80.882C209.541,80.924 207.022,80.957 204.464,80.98C204.408,85.236 204.33,89.366 204.235,93.322C204.768,93.605 210.116,97.402 213.172,102.839C214.295,104.837 215.194,106.991 215.897,109.172C216.244,110.247 216.543,111.343 216.794,112.459C218.231,118.846 218.725,125.388 219.177,132.81C219.295,134.753 219.488,136.807 219.751,138.977C219.866,139.923 220.068,140.764 220.353,141.505C220.53,141.964 221.106,142.108 221.478,141.789C222.486,140.924 223.416,139.908 224.506,139.092C226.239,137.794 227.839,136.605 229.315,135.53C229.988,135.04 231.086,134.347 232.61,133.452C233.766,132.772 234.871,132.09 235.925,131.407C237.192,131.052 238.426,130.802 239.625,130.657C246.489,129.824 247.192,136.662 247.425,141.562C247.435,141.778 247.604,141.954 247.82,141.974L250.372,142.191L248.337,144.816C248.263,144.911 248.354,145.046 248.469,145.012C250.272,144.487 252.074,142.99 253.812,141.69C256.324,139.812 259.087,137.872 262.091,135.868C265.217,133.783 268.481,132.167 271.885,131.022C274.72,130.068 277.424,130.099 280.002,131.11C282.27,132.235 283.892,133.996 284.861,136.392C285.737,138.548 286.217,140.734 286.301,142.951C286.308,143.1 286.409,143.221 286.605,143.313C286.541,143.444 286.512,143.603 286.521,143.796C286.802,149.671 286.321,155.59 285.166,161.544C283.952,167.799 282.346,173.836 280.347,179.647C278.078,186.245 275.465,193.47 272.571,200.447C272.53,200.545 272.605,200.654 272.713,200.65L275.095,200.535C275.403,200.654 275.72,200.745 276.055,200.806C283.391,202.147 288.809,207.26 291.931,213.789C295.074,220.362 296.27,227.175 295.52,234.227C294.993,239.165 292.904,244.193 288.582,246.991C287.143,247.921 285.149,248.617 282.597,249.08C280.161,249.519 277.998,249.698 276.112,249.62C273.23,249.502 270.415,249.384 267.674,249.259C270.266,248.012 272.349,246.23 273.929,243.913C275.894,241.032 277.096,237.593 277.525,233.592C277.886,230.257 277.263,226.774 274.511,224.661C272.888,223.414 271.079,222.712 269.3,222.357C268.572,222.212 267.849,222.126 267.146,222.084C266.625,222.053 266.114,222.047 265.621,222.06C264.142,222.1 262.816,222.312 261.806,222.551C260.996,222.742 260.389,222.951 260.071,223.099C259.979,223.143 259.881,223.055 259.912,222.961C261.277,218.704 262.155,214.397 262.558,210.045C262.662,208.913 262.708,207.771 262.693,206.622C262.666,204.614 262.815,202.553 262.585,200.65C262.465,199.66 262.359,198.818 262.264,198.119C261.727,194.188 259.551,188.607 255.363,187.363C254.665,187.155 253.283,186.411 249.732,187.312C249.012,187.382 247.777,187.836 246.986,188.197C244.326,189.211 241.895,190.746 239.498,192.336C237.942,190.152 235.976,188.582 233.692,187.878ZM202.516,37.294C200.229,37.31 197.914,37.319 195.579,37.319C191.917,37.319 188.303,37.298 184.771,37.258C184.922,43.415 185.033,50.006 185.085,56.841C188.517,56.804 192.025,56.784 195.579,56.784C197.807,56.784 200.018,56.792 202.203,56.807C202.255,49.997 202.365,43.43 202.516,37.294ZM185.101,59.124C185.113,61.272 185.119,63.441 185.119,65.627C185.119,70.06 185.093,74.428 185.045,78.681C188.49,78.644 192.011,78.624 195.579,78.624C197.821,78.624 200.045,78.632 202.243,78.647C202.195,74.404 202.169,70.048 202.169,65.627C202.169,63.453 202.175,61.295 202.187,59.159C200.007,59.174 197.802,59.182 195.579,59.182C192.03,59.182 188.528,59.162 185.101,59.124ZM223.337,36.922C217.372,37.093 210.928,37.22 204.219,37.28C204.37,43.426 204.48,50.004 204.533,56.826C211.007,56.886 217.232,57.008 223.012,57.171C223.064,50.093 223.179,43.273 223.337,36.922ZM163.553,36.789C163.714,43.218 163.831,50.128 163.883,57.303C169.705,57.11 176.071,56.957 182.755,56.869C182.807,50.016 182.918,43.409 183.07,37.238C176.144,37.148 169.555,36.99 163.553,36.789ZM185.017,80.964C184.976,84.035 184.924,87.042 184.863,89.965C191.581,89.446 197.831,90.491 202.481,92.485C202.395,88.79 202.324,84.948 202.272,80.998C200.064,81.014 197.831,81.022 195.579,81.022C192.002,81.022 188.471,81.001 185.017,80.964ZM163.892,58.663C163.906,60.961 163.913,63.285 163.913,65.627C163.913,70.221 163.885,74.744 163.833,79.144C169.681,78.95 176.078,78.797 182.796,78.709C182.748,74.446 182.721,70.069 182.721,65.627C182.721,63.432 182.728,61.253 182.74,59.096C176.065,59.008 169.707,58.856 163.892,58.663Z" style="fill:white;fill-opacity:0.1;"/>
    <path d="M150.144,96.997L150.185,97.204C149.525,97.169 148.88,97.135 148.249,97.099C148.867,97.065 149.498,97.031 150.144,96.997Z" style="fill:white;fill-opacity:0.15;"/>
    <path d="M225.222,84.618C225.155,88.673 225.07,92.598 224.97,96.346C228.892,96.466 232.592,96.604 236.005,96.755C235.748,96.997 235.489,97.237 235.228,97.477C232.031,97.615 228.593,97.742 224.965,97.853C224.784,97.002 224.72,96.117 224.702,95.299C224.622,91.725 224.796,88.164 225.222,84.618Z" style="fill:white;fill-opacity:0.15;"/>
    <path d="M226.071,79.103C232.381,79.304 238.085,79.553 242.908,79.823C238.021,80.096 232.228,80.348 225.818,80.55L225.932,79.862L226.071,79.103Z" style="fill:white;fill-opacity:0.15;"/>
    <path d="M230.058,57.399C234.795,57.572 239.123,57.771 242.908,57.983C239.064,58.198 234.66,58.4 229.836,58.574L229.873,58.376C229.876,58.176 229.913,57.984 229.991,57.798L230.058,57.399Z" style="fill:white;fill-opacity:0.15;"/>
    <path d="M163.892,58.663C163.906,60.961 163.913,63.285 163.913,65.627C163.913,70.221 163.885,74.744 163.833,79.144C169.681,78.95 176.078,78.797 182.796,78.709C182.748,74.446 182.721,70.069 182.721,65.627C182.721,63.432 182.728,61.253 182.74,59.096C176.065,59.008 169.707,58.856 163.892,58.663Z" style="fill:white;fill-opacity:0.25;"/>
    <path d="M163.553,36.789C163.714,43.218 163.831,50.128 163.883,57.303C169.705,57.11 176.071,56.957 182.755,56.869C182.807,50.016 182.918,43.409 183.07,37.238C176.144,37.148 169.555,36.99 163.553,36.789ZM167.608,43.5C167.561,43.439 167.584,43.348 167.652,43.314C168.223,43.02 168.821,42.729 169.446,42.445C170.132,42.135 169.808,41.516 170.169,41.141C171.477,39.779 174.863,42.516 175.837,43.544C175.928,43.642 175.962,43.777 175.928,43.902C175.526,45.386 175.492,47.477 175.826,50.184C176.06,52.05 176.371,54.131 176.763,56.433C176.786,56.575 176.769,56.676 176.712,56.733C176.583,56.862 176.364,56.835 176.269,56.673C173.437,51.914 170.551,47.525 167.608,43.5Z" style="fill:white;fill-opacity:0.25;"/>
    <path d="M167.608,43.5C167.561,43.439 167.584,43.348 167.652,43.314C168.223,43.02 168.821,42.729 169.446,42.445C170.132,42.135 169.808,41.516 170.169,41.141C171.477,39.779 174.863,42.516 175.837,43.544C175.928,43.642 175.962,43.777 175.928,43.902C175.526,45.386 175.492,47.477 175.826,50.184C176.06,52.05 176.371,54.131 176.763,56.433C176.786,56.575 176.769,56.676 176.712,56.733C176.583,56.862 176.364,56.835 176.269,56.673C173.437,51.914 170.551,47.525 167.608,43.5Z" style="fill:white;fill-opacity:0.95;"/>
    <path d="M185.101,59.124C185.113,61.272 185.119,63.441 185.119,65.627C185.119,70.06 185.093,74.428 185.045,78.681C188.49,78.644 192.011,78.624 195.579,78.624C197.821,78.624 200.045,78.632 202.243,78.647C202.195,74.404 202.169,70.048 202.169,65.627C202.169,63.453 202.175,61.295 202.187,59.159C200.007,59.174 197.802,59.182 195.579,59.182C192.03,59.182 188.528,59.162 185.101,59.124Z" style="fill:white;fill-opacity:0.25;"/>
    <path d="M185.017,80.964C184.976,84.035 184.924,87.042 184.863,89.965C191.581,89.446 197.831,90.491 202.481,92.485C202.395,88.79 202.324,84.948 202.272,80.998C200.064,81.014 197.831,81.022 195.579,81.022C192.002,81.022 188.471,81.001 185.017,80.964Z" style="fill:white;fill-opacity:0.25;"/>
    <path d="M223.337,36.922C217.372,37.093 210.928,37.22 204.219,37.28C204.37,43.426 204.48,50.004 204.533,56.826C211.007,56.886 217.232,57.008 223.012,57.171C223.064,50.093 223.179,43.273 223.337,36.922Z" style="fill:white;fill-opacity:0.25;"/>
    <path d="M202.516,37.294C200.229,37.31 197.914,37.319 195.579,37.319C191.917,37.319 188.303,37.298 184.771,37.258C184.922,43.415 185.033,50.006 185.085,56.841C188.517,56.804 192.025,56.784 195.579,56.784C197.807,56.784 200.018,56.792 202.203,56.807C202.255,49.997 202.365,43.43 202.516,37.294Z" style="fill:white;fill-opacity:0.25;"/>
    <path d="M224.965,97.853C228.593,97.742 232.031,97.615 235.228,97.477L235.215,97.488C233.911,98.688 229.227,102.493 227.304,101.432C225.932,100.675 225.275,99.313 224.965,97.853Z" style="fill:white;fill-opacity:0.25;"/>
    <path d="M242.998,11.853C244.641,12.56 246.205,13.319 247.692,14.133C251.382,16.154 255.191,18.063 257.499,19.125C258.212,19.452 258.543,19.963 258.489,20.652C258.459,21.047 258.445,21.25 258.445,21.257C258.398,36.562 258.408,51.867 258.472,67.172C258.472,67.203 258.448,67.645 258.401,68.507C258.367,69.082 258.425,69.636 258.577,70.166C257.925,70.991 257.256,71.863 256.573,72.782C254.981,74.918 253.374,76.832 251.639,79.105C250.776,80.235 247.896,83.655 242.998,89.366L242.998,11.853ZM244.039,39.08L245.333,39.144C245.519,39.154 245.654,39.326 245.614,39.509C245.455,40.225 244.907,42.587 243.978,46.595C243.752,47.572 243.654,48.315 243.691,48.822C243.698,48.924 243.802,48.995 243.9,48.961C244.329,48.816 244.661,48.589 244.901,48.278C245.661,47.291 246.273,46.443 246.732,45.734C248.898,42.381 250.145,40.445 250.473,39.924C251.108,38.921 251.615,37.954 251.99,37.022C252.19,36.518 251.896,35.954 251.369,35.835C250.514,35.639 249.645,35.585 248.767,35.67C246.705,35.866 245.137,37.221 243.964,38.931C243.924,38.992 243.964,39.076 244.039,39.08Z" style="fill:white;fill-opacity:0.15;"/>
    <path d="M242.998,89.366C242.74,89.666 242.476,89.974 242.207,90.287C240.312,92.494 238.244,94.651 236.005,96.755C232.592,96.604 228.892,96.466 224.97,96.346C225.07,92.598 225.155,88.673 225.222,84.618C225.363,83.44 225.532,82.263 225.729,81.088L225.818,80.55C232.228,80.348 238.021,80.096 242.908,79.823C238.085,79.553 232.381,79.304 226.071,79.103L229.836,58.574C234.66,58.4 239.064,58.198 242.908,57.983C239.123,57.771 234.795,57.572 230.058,57.399L232.404,43.419C232.427,43.28 232.28,43.177 232.143,43.236C232.103,43.254 232.049,43.307 231.981,43.392C231.399,44.121 230.71,45.176 229.916,46.558C228.379,49.234 226.849,51.911 225.325,54.585C225.266,48.413 225.16,42.461 225.021,36.872C231.748,36.666 237.819,36.405 242.908,36.12C237.809,35.835 231.725,35.573 224.982,35.367C224.769,27.275 224.488,19.992 224.179,13.968C223.871,19.98 223.59,27.247 223.378,35.319C217.384,35.147 210.905,35.02 204.16,34.959C203.949,27.031 203.671,19.891 203.368,13.968C203.064,19.887 202.787,27.023 202.576,34.947C200.27,34.93 197.934,34.921 195.579,34.921C191.897,34.921 188.264,34.943 184.713,34.982C184.502,27.045 184.224,19.896 183.92,13.968C183.616,19.901 183.338,27.056 183.127,35.002C176.167,35.091 169.547,35.25 163.519,35.452C163.306,27.326 163.024,20.013 162.714,13.968C162.404,20.027 162.121,27.36 161.908,35.508C156.854,35.687 152.249,35.896 148.249,36.12C152.241,36.343 156.835,36.552 161.876,36.731C161.714,43.2 161.597,50.159 161.545,57.383C156.634,57.56 152.153,57.764 148.249,57.983C152.151,58.201 156.629,58.406 161.537,58.582C161.523,60.907 161.515,63.257 161.515,65.627C161.515,70.248 161.544,74.797 161.596,79.221C159.55,79.295 157.578,79.373 155.692,79.455L146.754,59.163L146.223,57.97L144.253,53.552C144.284,34.422 144.286,17.198 144.253,11.913C144.253,11.778 144.365,11.666 144.5,11.666L242.356,11.666C242.491,11.666 242.626,11.693 242.751,11.747C242.834,11.782 242.916,11.818 242.998,11.853L242.998,89.366Z" style="fill:white;fill-opacity:0.25;"/>
    <path d="M244.039,39.08C243.964,39.076 243.924,38.992 243.964,38.931C245.137,37.221 246.705,35.866 248.767,35.67C249.645,35.585 250.514,35.639 251.369,35.835C251.896,35.954 252.19,36.518 251.99,37.022C251.615,37.954 251.108,38.921 250.473,39.924C250.145,40.445 248.898,42.381 246.732,45.734C246.273,46.443 245.661,47.291 244.901,48.278C244.661,48.589 244.329,48.816 243.9,48.961C243.802,48.995 243.698,48.924 243.691,48.822C243.654,48.315 243.752,47.572 243.978,46.595C244.907,42.587 245.455,40.225 245.614,39.509C245.654,39.326 245.519,39.154 245.333,39.144L244.039,39.08Z" style="fill:white;fill-opacity:0.95;"/>
    <path d="M156.022,80.204L156.057,80.284L156.375,80.967L161.299,91.186L161.691,91.913L161.82,92.173C161.733,88.395 161.662,84.465 161.61,80.424C159.678,80.355 157.813,80.282 156.022,80.204Z" style="fill:white;fill-opacity:0.25;"/>
    <path d="M163.927,96.418L165.137,96.378C170.863,92.801 177.061,90.86 182.981,90.15C182.918,87.161 182.865,84.083 182.823,80.937C176.089,80.849 169.676,80.695 163.817,80.501C163.749,85.754 163.649,90.82 163.524,95.607L163.927,96.418Z" style="fill:white;fill-opacity:0.25;"/>
    <path d="M223,58.923L223.001,58.794C217.228,58.958 211.013,59.08 204.548,59.14C204.56,61.282 204.567,63.447 204.567,65.627C204.567,70.054 204.541,74.416 204.493,78.665C207.4,78.692 210.257,78.731 213.045,78.781L222.935,59.045L223,58.923Z" style="fill:white;fill-opacity:0.25;"/>
    <path d="M205.677,94.359C204.919,93.762 204.385,93.402 204.235,93.322C204.33,89.366 204.408,85.236 204.464,80.98C207.022,80.957 209.541,80.924 212.01,80.882L211.952,81.001L205.677,94.359Z" style="fill:white;fill-opacity:0.25;"/>
</svg>
