<?xml version="1.0" encoding="UTF-8" standalone="no"?>
<!DOCTYPE svg PUBLIC "-//W3C//DTD SVG 1.1//EN" "http://www.w3.org/Graphics/SVG/1.1/DTD/svg11.dtd">
<svg width="100%" height="100%" viewBox="0 0 300 300" version="1.1" xmlns="http://www.w3.org/2000/svg" xmlns:xlink="http://www.w3.org/1999/xlink" xml:space="preserve" xmlns:serif="http://www.serif.com/" style="fill-rule:evenodd;clip-rule:evenodd;stroke-linejoin:round;stroke-miterlimit:2;">
    <path d="M192.394,129.239L191.422,112.6C191.407,112.327 191.284,112.069 191.079,111.885C182.908,104.536 177.561,95.519 175.032,84.828C174.477,82.489 174.078,79.757 173.833,76.639C173.628,74.018 173.67,71.252 173.968,68.346C177.046,38.137 204.971,17.019 234.888,22.605C246.781,24.825 257.659,31.303 265.367,40.756C266.167,41.737 267.412,43.441 269.104,45.873C269.512,46.461 269.803,46.982 269.975,47.439C274.656,55.708 276.971,64.366 276.919,73.411C276.861,83.016 274.328,91.932 269.325,100.152C259.731,115.905 242.231,125.413 223.78,124.83C217.771,124.64 211.998,123.469 206.464,121.316C206.329,121.267 206.182,121.279 206.056,121.35L192.394,129.239ZM202.748,71.574C201.886,71.39 200.985,71.37 200.041,71.513C199.247,71.633 198.553,71.862 197.956,72.203C196.097,73.264 194.411,74.447 193.725,76.553C192.875,79.162 193.77,82.425 194.997,84.804C196.492,87.702 198.392,90.531 200.691,93.29C203.38,96.519 206.537,99.932 210.164,103.525C211.666,105.012 213.374,105.759 215.288,105.775C215.873,105.78 216.361,106.051 216.983,105.965C220.159,106.149 222.463,104.044 224.268,101.648C225.909,99.469 233.485,85.133 235.474,82.038C236.943,79.752 239.376,76.031 241.36,73.484C243.119,71.227 244.182,69.659 245.889,67.622C246.947,66.36 248.876,64.046 251.677,60.69C253.451,58.565 254.603,56.876 254.587,54.328C254.563,50.441 252.281,47.547 248.237,47.657C248.118,47.556 247.973,47.555 247.805,47.654C247.722,47.703 247.627,47.721 247.532,47.706C245.282,47.348 243.451,47.589 241.639,49.034C240.459,49.975 239.285,51.125 238.114,52.489C234.02,57.252 230.46,62.287 226.806,67.849C222.805,73.941 218.936,80.138 215.205,86.435C213.273,84.387 211.686,82.196 210.446,79.855C209.633,78.32 208.853,76.869 208.107,75.505C207.452,74.306 206.722,73.361 205.835,72.513C204.983,71.697 203.953,71.384 202.748,71.574Z" style="fill:white;fill-opacity:0.95;"/>
    <path d="M269.975,47.439C270.413,47.752 270.732,48.052 270.931,48.344C275.736,55.313 278.648,62.984 279.663,71.351C281.904,89.844 274.04,108.007 259.112,119.02C251.269,124.808 242.397,128.113 232.491,128.932C231.96,128.975 230.948,129.012 229.449,129.039C222.802,129.162 216.401,128.055 210.241,125.719C209.741,125.532 209.266,125.566 208.822,125.823C206.341,127.267 202.07,129.744 196.006,133.261C195.819,133.368 195.583,133.326 195.451,133.157L192.725,129.723C192.682,129.671 192.661,129.6 192.664,129.53C192.685,129.22 192.597,129.125 192.394,129.239L206.056,121.35C206.182,121.279 206.329,121.267 206.464,121.316C211.998,123.469 217.771,124.64 223.78,124.83C242.231,125.413 259.731,115.905 269.325,100.152C274.328,91.932 276.861,83.016 276.919,73.411C276.971,64.366 274.656,55.708 269.975,47.439Z" style="fill:white;fill-opacity:0.25;"/>
    <path d="M202.748,71.574C201.886,71.39 200.985,71.37 200.041,71.513C199.247,71.633 198.553,71.862 197.956,72.203C196.097,73.264 194.411,74.447 193.725,76.553C192.875,79.162 193.77,82.425 194.997,84.804C196.492,87.702 198.392,90.531 200.691,93.29C203.38,96.519 206.537,99.932 210.164,103.525C211.666,105.012 213.374,105.759 215.288,105.775C215.873,105.78 216.361,106.051 216.983,105.965C216.888,105.873 216.844,105.781 216.842,105.689C216.84,105.6 216.9,105.529 217.023,105.471C221.466,103.375 223.676,98.928 225.813,94.67C230.628,85.076 236.361,76.195 243.001,68.027C245.543,64.9 247.495,62.548 248.86,60.969C250.298,59.305 251.18,58.056 251.506,57.22C252.866,53.726 251.985,49.469 248.32,47.865C248.207,47.816 248.179,47.746 248.237,47.657C248.118,47.556 247.973,47.555 247.805,47.654C247.722,47.703 247.627,47.721 247.532,47.706C245.282,47.348 243.451,47.589 241.639,49.034C240.459,49.975 239.285,51.125 238.114,52.489C234.02,57.252 230.46,62.287 226.806,67.849C222.805,73.941 218.936,80.138 215.205,86.435L214.429,87.628C214.377,87.71 214.261,87.725 214.187,87.658C211.867,85.573 209.914,83.194 208.383,80.453C207.231,78.39 206.278,76.611 205.526,75.122C205.125,74.327 204.198,73.144 202.748,71.574Z" style="fill:white;fill-opacity:0.75;"/>
    <path d="M216.983,105.965C220.159,106.149 222.463,104.044 224.268,101.648C225.909,99.469 233.485,85.133 235.474,82.038C236.943,79.752 239.376,76.031 241.36,73.484C243.119,71.227 244.182,69.659 245.889,67.622C246.947,66.36 248.876,64.046 251.677,60.69C253.451,58.565 254.603,56.876 254.587,54.328C254.563,50.441 252.281,47.547 248.237,47.657C248.179,47.746 248.207,47.816 248.32,47.865C251.985,49.469 252.866,53.726 251.506,57.22C251.18,58.056 250.298,59.305 248.86,60.969C247.495,62.548 245.543,64.9 243.001,68.027C236.361,76.195 230.628,85.076 225.813,94.67C223.676,98.928 221.466,103.375 217.023,105.471C216.9,105.529 216.84,105.6 216.842,105.689C216.844,105.781 216.888,105.873 216.983,105.965Z" style="fill:white;fill-opacity:0.25;"/>
    <path d="M107.4,133.914C108.467,132.151 109.528,130.41 110.586,128.69C111.677,126.918 112.876,125.317 113.915,123.444C114.13,123.058 114.584,122.586 114.869,122.141C116.656,119.372 121.114,111.993 121.123,111.689C121.145,110.864 121.994,105.036 122.022,104.328C122.178,100.437 122.196,96.632 122.077,92.91C122.055,92.233 122.009,91.656 121.945,91.178C121.77,89.918 121.881,88.83 121.654,87.438C121.549,86.797 121.47,86.128 121.418,85.439C120.985,79.834 120.86,74.478 121.037,69.37C121.041,69.26 121.001,69.152 120.924,69.073C120.535,68.671 120.182,68.401 119.86,68.26C118.014,67.448 116.561,66.951 115.172,66.135C115.132,66.111 114.492,65.801 113.253,65.209C111.892,64.556 110.849,63.566 110.123,62.239C109.807,61.656 109.651,61.104 109.657,60.58C109.666,60.019 109.801,59.458 110.061,58.891C110.414,58.139 110.638,57.321 111.337,56.416C112.438,54.988 113.741,53.639 115.246,52.366C115.476,52.173 115.687,51.962 115.884,51.738C117.128,50.297 118.395,49.267 119.679,48.65C120.087,48.457 120.614,48.427 121.261,48.558C121.366,48.58 121.464,48.62 121.549,48.681C122.883,49.601 123.892,50.671 124.576,51.888C126.584,55.466 127.936,59.329 128.632,63.477C128.846,64.75 128.758,65.433 128.712,66.77C128.705,66.957 128.73,67.141 128.788,67.319C129.03,68.064 130.392,73.972 130.462,74.141C130.953,75.358 132.697,82.155 133.455,84.372C133.78,85.328 135.208,90.905 135.309,91.203C135.953,93.079 137.921,107.736 137.689,109.187C135.299,124.105 121.97,141.772 120.599,143.915C120.372,144.271 120.173,144.66 120.001,145.08C119.238,144.151 118.472,143.207 117.702,142.241C117.264,141.692 116.576,140.967 115.638,140.061C114.991,139.436 114.213,138.811 113.305,138.188C111.303,136.815 109.335,135.389 107.4,133.914Z" style="fill:white;fill-opacity:0.75;"/>
    <path d="M215.205,86.435C213.273,84.387 211.686,82.196 210.446,79.855C209.633,78.32 208.853,76.869 208.107,75.505C207.452,74.306 206.722,73.361 205.835,72.513C204.983,71.697 203.953,71.384 202.748,71.574C204.198,73.144 205.125,74.327 205.526,75.122C206.278,76.611 207.231,78.39 208.383,80.453C209.914,83.194 211.867,85.573 214.187,87.658C214.261,87.725 214.377,87.71 214.429,87.628L215.205,86.435Z" style="fill:white;fill-opacity:0.25;"/>
    <path d="M63.551,106.41C63.284,105.223 63.103,104.003 63.005,102.752C62.874,101.066 62.714,99.336 62.132,98.165C60.997,95.884 60.197,93.947 60.553,91.889C60.96,89.513 62.236,87.836 64.379,86.858C65.526,86.334 67.135,86.591 68.242,86.383C69.674,86.113 70.802,85.524 71.627,84.614C73.319,82.756 74.638,79.981 75.606,78.552C76.106,77.82 76.762,77.115 77.578,76.431C78.136,75.965 78.997,75.554 80.165,75.201C81.717,74.732 83.213,74.576 84.657,74.735C84.982,74.769 85.782,74.959 87.061,75.3C89.446,75.931 91.408,77.216 93.413,78.988C96.053,81.321 97.773,83.942 98.573,86.858C98.668,87.195 98.776,87.858 98.901,88.842C98.917,88.94 98.944,89.035 98.987,89.121C99.315,89.798 99.631,90.209 99.941,90.35C100.701,90.697 101.719,90.905 102.387,91.788C103.071,92.69 103.611,93.64 103.816,94.83C104.181,96.954 104.092,98.981 103.555,100.906C103.142,102.387 102.939,103.65 102.531,105.015C101.912,107.099 101.186,109.144 100.352,111.146C100.097,109.215 99.855,107.292 99.616,105.376C99.474,104.239 98.83,101.589 97.712,97.426C97.555,96.841 97.128,96.487 96.433,96.356C96.323,96.336 96.209,96.347 96.105,96.384C95.415,96.628 94.762,97.177 94.073,97.414C92.836,97.839 91.543,97.933 90.185,97.684C89.449,97.549 88.793,97.451 88.214,97.393C86.208,96.451 84.316,95.432 82.538,94.327C81.44,93.644 80.671,93.189 80.227,92.959C78.053,91.836 76.492,90.976 74.224,90.856C72.654,90.773 70.597,91.564 69.775,92.778C68.723,94.333 67.897,96.164 67.288,98.27C67.059,99.064 66.832,100.446 66.608,102.418C66.482,103.518 66.086,104.791 65.434,106.241C65.396,106.324 65.317,106.376 65.228,106.376L63.551,106.41Z" style="fill:white;fill-opacity:0.25;"/>
    <path d="M67.436,128.31C64.964,124.247 63.478,120.608 63.793,116.15C63.821,115.733 63.665,115.328 63.361,115.04C61.019,112.842 60.687,110.337 62.371,107.526C62.604,107.139 62.996,106.768 63.551,106.41L65.228,106.376C65.317,106.376 65.396,106.324 65.434,106.241C66.086,104.791 66.482,103.518 66.608,102.418C66.832,100.446 67.059,99.064 67.288,98.27C67.897,96.164 68.723,94.333 69.775,92.778C70.597,91.564 72.654,90.773 74.224,90.856C76.492,90.976 78.053,91.836 80.227,92.959C80.671,93.189 81.44,93.644 82.538,94.327C84.316,95.432 86.208,96.451 88.214,97.393C87.591,97.892 87.076,98.515 86.671,99.26C85.49,101.436 84.89,103.604 84.872,105.76C84.859,107.207 84.814,108.421 85.034,109.635C85.311,111.165 86.259,115.934 84.844,117.15C84.758,117.223 84.66,117.278 84.55,117.306C83.576,117.557 82.505,117.561 81.861,118.496C81.212,119.437 81.036,120.378 81.34,121.325L78.697,120.366C78.663,120.357 78.629,120.347 78.593,120.344C77.066,120.215 75.599,120.731 75.827,122.53C75.943,123.447 76.446,124.16 77.332,124.67C78.022,125.067 79.181,125.443 80.806,125.802C80.898,126.528 81.004,127.264 81.125,128.009C81.413,129.779 82.115,131.456 82.572,133.047C82.6,133.144 82.532,133.244 82.431,133.255C80.893,133.428 79.013,133.01 77.921,132.85C77.21,132.746 76.459,132.567 75.671,132.314C73.216,131.523 70.908,130.382 68.769,128.865C68.554,128.712 68.319,128.518 68.07,128.276C68.008,128.215 67.914,128.199 67.834,128.242C67.696,128.318 67.561,128.34 67.436,128.31ZM79.111,106.053C78.583,105.953 77.97,106.866 77.742,108.089C77.513,109.313 77.756,110.383 78.282,110.483C78.81,110.582 79.423,109.669 79.652,108.446C79.88,107.222 79.638,106.152 79.111,106.053ZM78.991,101.713C80.034,101.832 80.944,102.378 81.735,103.338C81.885,103.519 82.183,103.429 82.204,103.193C82.329,101.832 80.156,100.756 79.114,100.636C78.074,100.517 75.705,101.068 75.524,102.424C75.492,102.66 75.762,102.815 75.95,102.669C76.93,101.907 77.949,101.593 78.991,101.713Z" style="fill:white;fill-opacity:0.95;"/>
    <path d="M78.991,101.713C80.034,101.832 80.944,102.378 81.735,103.338C81.885,103.519 82.183,103.429 82.204,103.193C82.329,101.832 80.156,100.756 79.114,100.636C78.074,100.517 75.705,101.068 75.524,102.424C75.492,102.66 75.762,102.815 75.95,102.669C76.93,101.907 77.949,101.593 78.991,101.713Z" style="fill:white;fill-opacity:0.15;"/>
    <path d="M91.562,103.623C90.544,103.436 89.529,103.684 88.514,104.365C88.318,104.493 88.063,104.322 88.112,104.095C88.382,102.776 90.74,102.387 91.752,102.574C92.766,102.758 94.83,103.957 94.618,105.284C94.581,105.514 94.284,105.585 94.149,105.395C93.438,104.398 92.576,103.81 91.562,103.623Z" style="fill:white;fill-opacity:0.15;"/>
    <path d="M79.111,106.053C78.583,105.953 77.97,106.866 77.742,108.089C77.513,109.313 77.756,110.383 78.282,110.483C78.81,110.582 79.423,109.669 79.652,108.446C79.88,107.222 79.638,106.152 79.111,106.053Z" style="fill:white;fill-opacity:0.15;"/>
    <path d="M90.127,107.645C90.623,107.722 90.887,108.691 90.714,109.808C90.541,110.926 89.998,111.769 89.501,111.693C89.005,111.616 88.741,110.647 88.914,109.529C89.087,108.412 89.63,107.569 90.127,107.645Z" style="fill:white;fill-opacity:0.15;"/>
    <path d="M81.34,121.325C83.25,121.681 84.016,120.939 85.414,120.375C86.53,119.924 86.99,121.307 86.846,122.178C86.53,124.091 85.423,125.271 83.529,125.716C83.06,125.826 82.152,125.854 80.806,125.802C79.181,125.443 78.022,125.067 77.332,124.67C76.446,124.16 75.943,123.447 75.827,122.53C75.599,120.731 77.066,120.215 78.593,120.344C78.629,120.347 78.663,120.357 78.697,120.366L81.34,121.325Z" style="fill:white;fill-opacity:0.15;"/>
    <path d="M131.538,174.541C129.077,172.303 131.874,170.502 130.668,168.32C129.722,166.611 126.698,166.001 125.302,164.236C124.466,163.178 120.679,159.481 124.925,149.535C126.018,146.976 128.246,145.329 130.855,144.228C134.059,142.879 138.317,142.91 141.582,143.839C143.713,144.446 145.292,144.804 146.319,144.918C146.408,144.927 146.497,144.924 146.586,144.909L148.591,144.516C148.613,144.513 148.634,144.504 148.655,144.495C150.464,143.419 151.476,142.131 152.374,140.491C152.994,139.356 153.527,138.553 153.975,138.081C155.689,136.269 157.424,135.003 159.184,134.285C164.669,132.044 170.35,131.52 176.231,132.712C178.784,133.23 181.207,134.144 183.491,135.447C185.045,136.333 185.692,137.146 186.422,138.823C186.459,138.912 185.514,144.274 185.514,144.274C184.456,144.786 183.325,144.752 182.12,144.176C181.28,143.774 180.275,143.206 179.1,142.468C178.049,141.808 176.859,141.607 175.532,141.867C174.37,142.229 173.481,143.14 172.867,144.596C172.362,145.795 172.009,147.006 171.806,148.229C171.262,151.516 170.914,153.536 170.764,154.29C170.577,155.232 170.277,156.084 169.866,156.85C168.503,159.39 165.799,157.83 164.298,156.354C163.859,155.922 163.43,155.698 163.01,155.682C161.109,155.612 159.936,157.89 159.874,159.481C159.756,162.492 162.44,163.856 165.028,163.939C165.224,163.945 165.398,164.059 165.478,164.236C166.816,167.183 166.536,170.025 164.601,172.784L163.403,174.198L162.747,174.798C162.645,174.691 162.541,174.688 162.431,174.783C160.879,176.141 144.397,180.008 143.499,180.216C142.165,180.526 140.666,180.578 138.998,180.379C137.382,180.185 135.996,179.707 134.834,178.947C134.795,178.921 134.614,178.877 134.397,178.832C134.337,178.642 134.274,178.447 134.209,178.25C133.778,176.93 133.28,175.505 132.952,174.857C132.909,174.771 132.841,174.697 132.759,174.642C132.357,174.375 131.952,174.342 131.538,174.541Z" style="fill:white;fill-opacity:0.25;"/>
    <path d="M34.002,169.669C34.314,169.258 34.701,168.553 35.16,167.551C35.525,166.763 36.142,165.739 37.012,164.479C38.288,162.633 38.962,161.643 39.039,161.511C39.551,160.625 40.317,159.411 41.344,157.868C44.196,153.579 46.783,150.035 49.111,147.233C50.846,145.145 52.796,143.008 55.334,141.87C55.423,141.83 55.518,141.803 55.613,141.788C57.956,141.423 59.946,141.239 61.586,141.236C62.07,141.236 62.518,141.306 62.932,141.447C64.348,141.929 65.783,142.373 67.236,142.784C67.35,142.818 67.469,142.836 67.589,142.836C69.52,142.858 70.572,141.772 70.931,139.822C71.185,138.439 71.305,137.584 71.286,137.256C71.216,136.051 70.704,134.426 69.75,132.378C70.244,132.823 70.682,133.295 71.066,133.798C71.644,134.555 72.058,135.046 72.307,135.275C73.623,136.487 75.104,137.718 76.738,138.979C77.333,139.439 78.436,139.893 79.304,140.417C82.14,142.131 85.525,143.293 88.652,144.084C88.828,144.128 88.994,144.163 89.149,144.189C90.001,144.353 91.362,144.565 91.362,144.565C91.424,144.587 91.492,144.56 91.525,144.501C91.557,144.443 91.54,144.372 91.488,144.332C91.488,144.332 90.535,142.522 89.574,140.505C91.132,139.864 92.883,139.289 93.944,138.872C96.019,138.053 97.905,137.152 99.6,136.168C102.019,134.76 103.703,133.905 104.644,133.601C104.908,133.516 105.015,133.307 105.239,133.249C105.306,133.23 105.374,133.234 105.438,133.255L107.4,133.914C109.335,135.389 111.303,136.815 113.305,138.188C114.213,138.811 114.991,139.436 115.638,140.061C116.576,140.967 117.264,141.692 117.702,142.241C118.472,143.207 119.238,144.151 120.001,145.08C121.194,147.039 122.153,148.686 122.874,150.02C122.981,150.219 123.07,150.504 123.147,150.869C123.184,151.041 123.168,151.218 123.107,151.381C122.626,152.641 121.89,154.011 120.906,155.492C118.205,159.536 115.111,163.071 111.625,166.091C111.481,166.217 111.407,166.401 111.426,166.588C111.653,168.989 111.653,171.475 111.898,174.293C112.321,179.146 112.612,183.536 112.775,187.467C112.91,190.757 112.968,194.436 112.953,198.51C112.953,198.642 112.876,202.325 112.726,209.551C112.609,215.048 111.285,233.294 111.435,235.602C111.453,235.881 111.398,236.123 111.272,236.332C110.626,235.992 103.007,236.249 102.899,236.249C75.07,236.248 58.83,236.246 54.172,236.261C53.43,236.264 52.829,236.227 52.37,236.145C52.235,236.121 52.156,235.977 52.21,235.851C52.668,234.79 52.49,233.57 52.67,232.328C52.821,231.292 52.945,230.096 53.038,228.741C53.057,228.465 53.026,228.189 52.946,227.925L52.265,225.684C52.52,223.516 52.808,221.346 53.133,219.172C53.449,217.062 53.734,214.708 54.019,212.546C54.203,211.161 54.313,210.274 54.353,209.891C54.933,204.124 55.319,200.2 55.512,198.118C55.607,197.1 55.58,196.254 55.721,195.162C55.987,193.111 56.095,190.827 56.043,188.31C56.009,186.786 56.079,185.253 56.248,183.711C56.273,183.46 56.101,183.233 55.856,183.193C53.479,182.798 51.198,182.074 49.012,181.028C48.828,180.94 48.562,180.918 48.332,180.86C45.575,179.266 43.696,178.082 42.697,177.313C40.579,175.684 39.266,174.618 38.763,174.115C37.226,172.576 35.642,171.095 34.002,169.669Z" style="fill:white;fill-opacity:0.95;"/>
    <path d="M48.332,180.86C47.504,181.819 46.416,183.343 45.063,185.425C44.26,186.664 42.381,189.104 39.428,192.747C39.128,193.117 38.692,193.482 38.282,193.942C35.443,197.125 32.806,199.768 29.145,200.77C28.661,200.905 27.652,200.945 26.116,200.887C25.966,200.88 25.819,200.85 25.678,200.795C24.233,200.234 22.9,199.62 21.67,198.955C20.511,198.323 19.88,197.778 19.092,196.625C16.691,193.121 14.373,189.021 12.141,184.327C11.022,181.97 10.253,180.237 9.839,179.128C9.612,178.524 9.039,176.837 8.122,174.069C7.273,171.509 6.751,169.807 6.555,168.961C6.42,168.372 6.209,167.673 5.918,166.867C5.534,165.797 5.482,165.018 5.145,164.062C4.823,163.151 4.489,161.992 4.136,160.588C4.075,160.343 3.986,160.107 3.869,159.886C2.747,157.706 2.073,156.363 1.849,155.854C1.129,154.232 0.644,152.515 0.393,150.709C0.365,150.51 0.319,150.317 0.258,150.127L0.077,149.554C0.022,149.382 -0.003,149.201 0,149.02L0.068,146.129C0.071,145.887 0.123,145.644 0.215,145.418C0.494,144.734 0.681,144.182 0.779,143.765C1.509,140.681 4.912,139.503 7.687,139.525C7.904,139.525 8.122,139.568 8.324,139.647C9.318,140.037 10.51,140.101 11.409,140.592C13.257,141.594 14.625,142.609 15.511,143.63C15.851,144.023 16.333,144.869 16.955,146.172C17.025,146.322 17.074,146.485 17.096,146.65C17.341,148.597 17.292,150.139 16.952,151.277C16.351,153.279 15.422,155.235 14.168,157.145C13.901,157.553 13.674,157.835 13.487,157.985C13.352,158.092 13.331,158.288 13.435,158.423C14.07,159.233 14.487,160.021 14.686,160.787C14.738,160.986 14.824,161.177 14.938,161.351C15.591,162.366 16.483,163.887 17.611,165.92C18.552,167.615 20.502,170.595 23.461,174.857C24.049,175.706 24.626,176.436 25.193,177.046C25.972,177.886 26.515,178.576 26.824,179.118C26.999,179.422 27.431,179.437 27.624,179.146L34.002,169.669C35.642,171.095 37.226,172.576 38.763,174.115C39.266,174.618 40.579,175.684 42.697,177.313C43.696,178.082 45.575,179.266 48.332,180.86Z" style="fill:white;fill-opacity:0.75;"/>
    <path d="M210.131,191.355C212.271,191.609 214.346,191.836 216.355,192.032C219.847,192.369 223.293,192.32 226.69,191.888C226.77,191.879 226.822,191.805 226.803,191.729C226.448,190.223 226.132,188.494 225.856,186.544C225.181,181.764 224.642,175.157 223.486,169.053C222.91,166.005 221.904,163.497 220.684,160.833C220.589,160.628 220.457,160.438 220.294,160.278C218.961,158.969 218.154,158.319 216.916,156.992C215.803,155.799 214.46,154.557 212.887,153.273C211.133,151.844 212.154,148.953 212.645,147.15C212.678,147.03 212.608,146.911 212.491,146.877C211.575,146.616 211.185,145.963 211.32,144.924C211.474,143.725 211.777,142.557 212.228,141.42C212.832,139.893 214.975,139.464 216.419,139.626C217.421,139.739 218.421,139.795 219.411,139.795C220.809,139.795 222.118,140.086 223.17,140.843C223.648,141.187 224.179,141.883 224.764,142.934C225.212,143.737 225.632,144.952 226.028,146.577C226.445,148.284 226.825,149.934 227.165,151.522C227.803,154.471 228.275,158.212 228.833,161.563C228.956,162.311 229.127,162.832 229.51,163.51C233.818,171.119 237.476,178.75 239.812,186.854C240.419,188.954 240.87,191.376 241.167,194.12C241.176,194.224 241.268,194.307 241.376,194.304C248.059,194.267 263.628,194.267 288.085,194.307C290.002,194.31 291.384,195.067 292.234,196.573C293.445,198.719 292.657,201.935 292.188,204.679C290.13,216.701 288.315,227.573 286.739,237.298C286.611,238.098 286.365,238.993 286.007,239.983C285.648,240.974 285.203,241.78 284.67,242.409C283.698,243.549 282.53,244.343 281.165,244.794C280.966,244.874 280.813,244.913 280.706,244.914C261.577,244.918 242.449,244.93 223.32,244.932C222.263,244.932 221.453,244.91 220.892,244.868C220.42,244.524 219.921,244.244 219.393,244.027C218.838,243.8 218.463,243.534 218.271,243.224C217.972,242.743 217.69,241.853 217.421,240.557C217.199,239.48 217.638,237.724 217.884,236.255C218.7,231.389 219.41,227.045 220.012,223.222C221.145,216.029 222.502,208.775 223.786,201.19C224.139,199.108 224.829,197.523 225.844,196.426C225.914,196.349 225.991,196.279 226.074,196.214C226.328,196.015 226.92,195.632 227.849,195.07C228.051,194.948 228.095,194.677 227.941,194.512C227.788,194.349 227.576,194.292 227.309,194.338C225.184,194.705 223.565,195.769 222.447,197.526C221.953,198.302 221.481,199.893 221.03,202.303C220.62,204.495 220.23,206.684 219.865,208.873C216.591,208.962 213.313,208.837 210.036,208.502C210.456,205.127 210.642,201.947 210.603,198.967C210.578,197.106 210.422,194.571 210.131,191.355ZM263.843,213.002C261.844,210.498 257.858,210.357 254.938,212.688C252.018,215.018 251.273,218.939 253.271,221.442C255.271,223.946 259.256,224.087 262.176,221.755C265.097,219.426 265.842,215.505 263.843,213.002Z" style="fill:white;fill-opacity:0.75;"/>
    <path d="M185.514,144.274C186.357,145.767 187.093,147.242 187.719,148.692C187.765,148.799 187.752,148.876 187.679,148.916L186.501,149.388C186.207,149.508 186.148,149.901 186.397,150.099C186.786,150.41 187.372,150.513 188.157,150.412L188.924,152.607C188.215,152.733 186.829,153.202 186.738,154.054C186.719,154.226 186.876,154.361 187.044,154.318L189.196,153.745C189.196,153.745 191.496,169.467 191.364,171.061C191.241,172.548 190.846,173.949 190.181,175.261C189.402,176.791 188.139,177.748 186.388,178.131C185.159,178.401 183.902,178.514 182.623,178.468C181.817,178.441 181.783,178.787 181.596,179.517C181.115,181.396 180.995,183.08 181.237,184.567C181.372,185.391 181.749,186.437 182.372,187.703C182.399,187.758 182.442,187.804 182.497,187.835C182.608,187.896 182.721,187.921 182.841,187.905L183.8,190.426C183.831,190.505 183.839,190.594 183.819,190.677C183.569,191.706 183.347,192.415 183.104,192.786C182.077,194.359 180.894,195.693 179.56,196.787C179.554,196.79 179.548,196.79 179.542,196.784L179.484,196.726C179.465,196.708 179.465,196.677 179.484,196.659L181.562,194.58C181.676,194.467 181.696,194.286 181.611,194.151C180.479,192.348 180.028,191.011 179.474,188.81C178.924,186.624 178.147,184.864 177.083,183.656C173.347,179.417 168.783,176.267 163.403,174.198L164.601,172.784C168.112,174.707 171.76,176.238 175.55,177.371C177.224,177.871 179.658,178.405 181.176,178.327C182.601,178.255 183.997,178.212 185.367,178.192C185.563,178.19 185.739,178.061 185.799,177.874C186.165,176.744 186.553,175.544 186.967,174.28C187.396,172.975 187.379,171.588 186.888,170.129C186.858,170.04 186.78,169.979 186.688,169.97L185.06,169.822C187.289,169.856 189.52,169.433 190.03,166.922C190.138,166.392 189.913,165.956 189.506,165.68C189.415,165.618 189.301,165.6 189.196,165.631C187.723,166.072 186.216,166.214 184.674,166.039C184.781,166.042 184.877,166.033 184.956,166.008C185.036,165.984 185.067,165.886 185.014,165.821C184.115,164.716 183.7,163.482 183.77,162.115C183.851,160.527 185.076,160.572 186.314,160.527C186.385,160.524 186.456,160.509 186.526,160.487C187.324,160.231 187.587,159.674 187.32,158.856C185.288,152.622 182.065,147.077 177.626,142.247C177.295,141.888 176.595,141.76 175.532,141.867C176.859,141.607 178.049,141.808 179.1,142.468C180.275,143.206 181.28,143.774 182.12,144.176C183.325,144.752 184.456,144.786 185.514,144.274Z" style="fill:white;fill-opacity:0.75;"/>
    <path d="M175.532,141.867C174.37,142.229 173.481,143.14 172.867,144.596C172.362,145.795 172.009,147.006 171.806,148.229C171.262,151.516 170.914,153.536 170.764,154.29C170.577,155.232 170.277,156.084 169.866,156.85C168.503,159.39 165.799,157.83 164.298,156.354C163.859,155.922 163.43,155.698 163.01,155.682C161.109,155.612 159.936,157.89 159.874,159.481C159.756,162.492 162.44,163.856 165.028,163.939C165.224,163.945 165.398,164.059 165.478,164.236C166.816,167.183 166.536,170.025 164.601,172.784C168.112,174.707 171.76,176.238 175.55,177.371C177.224,177.871 179.658,178.405 181.176,178.327C182.601,178.255 183.997,178.212 185.367,178.192C185.563,178.19 185.739,178.061 185.799,177.874C186.165,176.744 186.553,175.544 186.967,174.28C187.396,172.975 187.379,171.588 186.888,170.129C186.858,170.04 186.78,169.979 186.688,169.97L185.06,169.822C183.696,169.531 181.119,168.903 181.01,166.934C180.899,164.92 183.322,165.708 184.674,166.039C184.781,166.042 184.877,166.033 184.956,166.008C185.036,165.984 185.067,165.886 185.014,165.821C184.115,164.716 183.7,163.482 183.77,162.115C183.851,160.527 185.076,160.572 186.314,160.527C186.385,160.524 186.456,160.509 186.526,160.487C187.324,160.231 187.587,159.674 187.32,158.856C185.288,152.622 182.065,147.077 177.626,142.247C177.295,141.888 176.595,141.76 175.532,141.867ZM175.562,152.586C176.899,151.871 178.064,151.507 179.618,151.246C180.52,151.096 181.286,150.912 181.915,150.694C182.316,150.556 182.451,150.066 182.157,149.814C181.697,149.422 180.192,149.526 179.563,149.695C178.331,150.02 175.903,151.08 175.249,152.196C175.21,152.261 175.203,152.34 175.225,152.436C175.262,152.583 175.427,152.659 175.562,152.586ZM182.804,154.085C182.651,153.972 182.467,153.907 182.277,153.898C180.79,153.815 179.53,154.217 178.49,155.1C178.297,155.262 178.184,155.505 178.184,155.756L178.184,155.94C178.184,156.188 178.45,156.345 178.668,156.222C180.179,155.37 181.43,154.851 183.16,154.842C183.374,154.842 183.463,154.569 183.291,154.444L182.804,154.085Z" style="fill:white;fill-opacity:0.95;"/>
    <path d="M187.679,148.916L187.768,149.029C187.826,149.106 187.857,149.204 187.85,149.302C187.811,149.79 187.915,150.158 188.157,150.412C187.372,150.513 186.786,150.41 186.397,150.099C186.148,149.901 186.207,149.508 186.501,149.388L187.679,148.916Z" style="fill:white;fill-opacity:0.15;"/>
    <path d="M175.562,152.586C176.899,151.871 178.064,151.507 179.618,151.246C180.52,151.096 181.286,150.912 181.915,150.694C182.316,150.556 182.451,150.066 182.157,149.814C181.697,149.422 180.192,149.526 179.563,149.695C178.331,150.02 175.903,151.08 175.249,152.196C175.21,152.261 175.203,152.34 175.225,152.436C175.262,152.583 175.427,152.659 175.562,152.586Z" style="fill:white;fill-opacity:0.15;"/>
    <path d="M188.924,152.607C189.38,152.856 189.779,153.181 190.116,153.579C190.159,153.628 190.125,153.705 190.061,153.708L189.196,153.745L187.044,154.318C186.876,154.361 186.719,154.226 186.738,154.054C186.829,153.202 188.215,152.733 188.924,152.607Z" style="fill:white;fill-opacity:0.15;"/>
    <path d="M182.804,154.085C182.651,153.972 182.467,153.907 182.277,153.898C180.79,153.815 179.53,154.217 178.49,155.1C178.297,155.262 178.184,155.505 178.184,155.756L178.184,155.94C178.184,156.188 178.45,156.345 178.668,156.222C180.179,155.37 181.43,154.851 183.16,154.842C183.374,154.842 183.463,154.569 183.291,154.444L182.804,154.085Z" style="fill:white;fill-opacity:0.15;"/>
    <path d="M185.06,169.822C187.289,169.856 189.52,169.433 190.03,166.922C190.138,166.392 189.913,165.956 189.506,165.68C189.415,165.618 189.301,165.6 189.196,165.631C187.723,166.072 186.216,166.214 184.674,166.039C183.322,165.708 180.899,164.92 181.01,166.934C181.119,168.903 183.696,169.531 185.06,169.822Z" style="fill:white;fill-opacity:0.15;"/>
    <path d="M182.841,187.905C182.841,187.905 198.385,188.519 200.96,189.037C203.625,189.573 206.099,189.748 208.38,189.555C209.257,189.481 209.839,190.082 210.131,191.355C210.422,194.571 210.578,197.106 210.603,198.967C210.642,201.947 210.456,205.127 210.036,208.502C209.925,209.713 209.787,211.139 208.595,211.605C207.494,212.037 206.583,212.326 205.863,212.473C204.079,212.838 202.444,213.065 200.96,213.153C200.856,213.16 200.773,213.252 200.78,213.356C200.997,217.559 199.887,221.364 197.456,224.767C196.637,225.911 194.292,229.504 193.961,230.626C193.418,232.463 193.105,233.968 193.029,235.142C192.918,236.804 192.909,238.619 193.001,240.584C193.032,241.237 193.121,241.903 193.268,242.586C190.742,242.617 188.145,242.533 185.704,243.052C184.303,243.351 181.674,244.685 183.429,246.505C183.782,246.87 184.227,247.146 184.757,247.326L161.425,247.339C162.256,239.113 162.094,230.927 160.944,222.78C160.659,220.742 160.283,218.795 159.822,216.94C159.548,215.839 159.201,214.9 158.776,214.128C158.614,213.834 158.248,213.716 157.948,213.865C157.635,214.02 157.341,214.281 157.062,214.647C155.457,216.751 153.844,218.846 152.23,220.935C152.138,221.054 151.985,221.11 151.838,221.082L150.394,220.794L149.235,220.668C146.059,220.53 143.085,219.454 140.313,217.44C137.802,215.615 136.425,213.886 134.721,211.722L133.09,208.999C133.041,208.913 133.047,208.803 133.108,208.723C134.621,206.753 135.96,204.787 137.124,202.827C138.048,201.273 138.908,199.503 139.712,197.517C140.416,195.778 141.162,194.328 141.944,193.17C143.455,190.931 145.825,190.084 148.438,189.8C152.147,189.397 155.824,189.2 159.466,189.227C159.806,189.229 160.21,189.138 160.674,188.966C160.775,188.929 160.861,188.862 160.928,188.776C162.039,187.356 162.98,185.827 163.761,184.199C164.979,181.706 165.012,179.241 163.863,176.797C163.531,176.095 163.16,175.43 162.747,174.798L163.403,174.198C168.783,176.267 173.347,179.417 177.083,183.656C178.147,184.864 178.924,186.624 179.474,188.81C180.028,191.011 180.479,192.348 181.611,194.151C181.696,194.286 181.676,194.467 181.562,194.58L179.484,196.659C179.465,196.677 179.465,196.708 179.484,196.726L179.542,196.784C179.548,196.79 179.554,196.79 179.56,196.787C180.894,195.693 182.077,194.359 183.104,192.786C183.347,192.415 183.569,191.706 183.819,190.677C183.839,190.594 183.831,190.505 183.8,190.426L182.841,187.905Z" style="fill:white;fill-opacity:0.95;"/>
    <path d="M134.397,178.832L134.478,179.084C134.781,180.039 135.013,180.816 135.064,181.004L136.189,185.091C136.548,186.357 136.901,187.571 137.253,188.733C137.49,189.515 137.615,190.165 137.63,190.689C137.652,191.404 137.61,192.066 137.508,192.682C137.344,193.673 137.174,194.436 137.002,194.979C136.932,195.199 135.797,197.68 135.457,198.4C134.27,200.911 133.271,203.606 132.498,206.494C132.451,206.669 132.437,206.85 132.452,207.034L133.123,214.916C133.126,214.932 133.145,214.932 133.151,214.919L134.721,211.722C136.425,213.886 137.802,215.615 140.313,217.44C143.085,219.454 146.059,220.53 149.235,220.668C145.859,226.122 141.908,230.991 137.382,235.277C133.636,238.825 129.196,241.982 124.349,244.113L122.681,244.662C122.491,244.726 122.282,244.699 122.111,244.592C118.008,241.961 118.419,236.378 118.891,232.221C119.118,230.228 119.655,227.447 120.504,223.878C122.15,218.013 123.444,212.059 124.382,206.022C124.496,205.289 124.563,204.55 124.579,203.805C124.582,203.664 124.56,203.52 124.514,203.385L122.475,197.128C122.144,195.604 121.776,193.967 121.375,192.219C121.188,191.397 121.179,190.606 121.047,189.944C121.007,189.742 121.194,188.42 121.194,188.42C121.212,188.319 122.006,186.792 122.491,186.17C123.273,185.161 124.229,184.493 125.354,184.162C125.425,184.14 125.498,184.134 125.572,184.137L126.277,184.165C126.363,184.168 126.446,184.119 126.483,184.042C126.924,183.113 127.448,182.423 128.055,181.97C128.567,181.586 129.254,181.406 130.113,181.424C130.205,181.427 130.275,181.338 130.254,181.249C129.996,180.176 129.959,179.284 130.14,178.573C130.306,177.92 131.088,175.004 131.538,174.541C131.952,174.342 132.357,174.375 132.759,174.642C132.841,174.697 132.909,174.771 132.952,174.857C133.28,175.505 133.778,176.93 134.209,178.25L134.397,178.832Z" style="fill:white;fill-opacity:0.75;"/>
    <path d="M136.189,185.091C136.548,186.357 136.901,187.571 137.253,188.733C137.49,189.515 137.615,190.165 137.63,190.689C137.652,191.404 137.61,192.066 137.508,192.682C137.344,193.673 137.174,194.436 137.002,194.979C136.932,195.199 135.797,197.68 135.457,198.4C134.27,200.911 133.271,203.606 132.498,206.494C132.451,206.669 132.437,206.85 132.452,207.034L133.123,214.916C133.126,214.932 133.145,214.932 133.151,214.919L134.721,211.722L133.09,208.999C133.041,208.913 133.047,208.803 133.108,208.723C134.621,206.753 135.96,204.787 137.124,202.827C138.048,201.273 138.908,199.503 139.712,197.517C140.416,195.778 141.162,194.328 141.944,193.17C143.455,190.931 145.825,190.084 148.438,189.8C152.147,189.397 155.824,189.2 159.466,189.227C159.806,189.229 160.21,189.138 160.674,188.966C160.775,188.929 160.861,188.862 160.928,188.776C162.039,187.356 162.98,185.827 163.761,184.199C161.149,184.266 158.549,184.465 156.001,184.346C151.878,184.153 148.971,183.996 147.285,183.877C143.391,183.604 139.694,184.009 136.189,185.091Z" style="fill:white;fill-opacity:0.25;"/>
    <path d="M220.892,244.868C220.42,244.524 219.921,244.244 219.393,244.027C218.838,243.8 218.463,243.534 218.271,243.224C217.972,242.743 217.69,241.853 217.421,240.557C217.199,239.48 217.638,237.724 217.884,236.255C218.7,231.389 219.41,227.045 220.012,223.222C221.145,216.029 222.502,208.775 223.786,201.19C224.139,199.108 224.829,197.523 225.844,196.426C225.914,196.349 225.991,196.279 226.074,196.214C226.328,196.015 226.92,195.632 227.849,195.07C228.051,194.948 228.095,194.677 227.941,194.512C227.788,194.349 227.576,194.292 227.309,194.338C225.184,194.705 223.565,195.769 222.447,197.526C221.953,198.302 221.481,199.893 221.03,202.303C220.62,204.495 220.23,206.684 219.865,208.873C217.645,221.6 215.98,231.659 214.871,239.051C214.708,240.134 214.88,241.314 215.38,242.599C216.514,244.822 218.553,245.085 220.892,244.868Z" style="fill:white;fill-opacity:0.5;"/>
    <path d="M120.504,223.878C120.121,223.746 119.909,223.388 119.863,222.802C119.578,218.966 119.584,214.548 119.875,209.545C120.136,205.096 121.001,200.957 122.475,197.128L124.514,203.385C124.56,203.52 124.582,203.664 124.579,203.805C124.563,204.55 124.496,205.289 124.382,206.022C123.444,212.059 122.15,218.013 120.504,223.878Z" style="fill:white;fill-opacity:0.25;"/>
    <path d="M263.843,213.002C261.844,210.498 257.858,210.357 254.938,212.688C252.018,215.018 251.273,218.939 253.271,221.442C255.271,223.946 259.256,224.087 262.176,221.755C265.097,219.426 265.842,215.505 263.843,213.002Z" style="fill:white;fill-opacity:0.95;"/>
    <path d="M161.425,247.339L152.506,247.336C153.349,245.511 154.081,243.362 154.711,240.891C155.219,238.895 155.456,237.071 155.422,235.424C155.368,232.843 154.601,230.255 153.549,227.799C152.55,225.469 151.498,223.133 150.394,220.794L151.838,221.082C151.985,221.11 152.138,221.054 152.23,220.935C153.844,218.846 155.457,216.751 157.062,214.647C157.341,214.281 157.635,214.02 157.948,213.865C158.248,213.716 158.614,213.834 158.776,214.128C159.201,214.9 159.548,215.839 159.822,216.94C160.283,218.795 160.659,220.742 160.944,222.78C162.094,230.927 162.256,239.113 161.425,247.339Z" style="fill:white;fill-opacity:0.75;"/>
    <path d="M125.263,247.32C125.094,246.494 124.349,244.113 124.349,244.113C129.196,241.982 133.636,238.825 137.382,235.277C141.908,230.991 145.859,226.122 149.235,220.668L150.394,220.794C151.498,223.133 152.55,225.469 153.549,227.799C154.601,230.255 155.368,232.843 155.422,235.424C155.456,237.071 155.219,238.895 154.711,240.891C154.081,243.362 153.349,245.511 152.506,247.336L125.263,247.32Z" style="fill:white;fill-opacity:0.25;"/>
    <path d="M111.272,236.332L111.039,236.985C109.473,237.598 107.857,238.07 106.195,238.405C101.336,239.382 91.139,241.153 90.197,241.29C86.749,241.789 83.262,242.18 79.733,242.488C79.491,242.509 79.224,242.532 78.927,242.559C75.788,242.842 73.037,243.033 70.676,243.151C67.01,243.334 63.385,243.392 59.805,243.307C59.568,243.301 59.369,243.482 59.351,243.718L59.075,247.149C56.533,247.351 53.985,247.403 51.431,247.305C50.717,247.277 50.018,247.247 49.334,247.213C49.442,246.827 51.913,229.568 52.265,225.684L52.946,227.925C53.026,228.189 53.057,228.465 53.038,228.741C52.945,230.096 52.821,231.292 52.67,232.328C52.49,233.57 52.668,234.79 52.21,235.851C52.156,235.977 52.235,236.121 52.37,236.145C52.829,236.227 53.43,236.264 54.172,236.261C58.83,236.246 75.07,236.248 102.899,236.249C103.007,236.249 110.626,235.992 111.272,236.332Z" style="fill:white;fill-opacity:0.35;"/>
    <path d="M111.039,236.985L111.656,247.118C111.542,247.268 111.309,247.342 110.954,247.342C93.784,247.348 76.615,247.348 59.446,247.342C59.243,247.342 59.121,247.277 59.075,247.149L59.351,243.718C59.369,243.482 59.568,243.301 59.805,243.307C63.385,243.392 67.01,243.334 70.676,243.151C73.037,243.033 75.788,242.842 78.927,242.559C79.224,242.532 79.491,242.509 79.733,242.488C83.262,242.18 86.749,241.789 90.197,241.29C91.139,241.153 101.336,239.382 106.195,238.405C107.857,238.07 109.473,237.598 111.039,236.985Z" style="fill:white;fill-opacity:0.95;"/>
    <path d="M281.165,244.794C281.331,245.754 280.957,246.517 280.04,247.078C279.93,247.146 279.976,247.314 280.105,247.32L281.435,247.379L184.757,247.326C184.227,247.146 183.782,246.87 183.429,246.505C181.674,244.685 184.303,243.351 185.704,243.052C188.145,242.533 190.742,242.617 193.268,242.586L215.38,242.599C216.514,244.822 218.553,245.085 220.892,244.868C221.453,244.91 222.263,244.932 223.32,244.932C242.449,244.93 261.577,244.918 280.706,244.914C280.813,244.913 280.966,244.874 281.165,244.794Z" style="fill:white;fill-opacity:0.35;"/>
    <path d="M152.506,247.336L161.425,247.339L184.757,247.326L281.435,247.379C284.136,247.363 286.841,247.342 289.545,247.317C290.504,247.308 292.166,247.44 293.233,247.762C300.018,249.794 299.895,258.493 299.993,264.272C300.085,269.558 299.279,276.631 293.5,278.09C292.951,278.228 291.942,278.295 290.474,278.292C287.429,278.289 204.302,278.286 41.099,278.289C39.649,278.289 38.564,278.158 37.849,277.894C32.787,276.017 31.607,269.643 31.484,264.845C31.445,263.26 31.408,261.81 31.368,260.495C31.304,258.33 31.57,256.138 32.165,253.915C32.631,252.18 33.437,250.714 34.587,249.515C36.283,247.746 38.72,247.326 41.351,247.357C44.039,247.388 46.701,247.339 49.334,247.213C50.018,247.247 50.717,247.277 51.431,247.305C53.985,247.403 56.533,247.351 59.075,247.149C59.121,247.277 59.243,247.342 59.446,247.342C76.615,247.348 93.784,247.348 110.954,247.342C111.309,247.342 111.542,247.268 111.656,247.118C111.671,247.274 111.745,247.351 111.873,247.351C113.042,247.363 115.893,247.351 120.43,247.317L152.506,247.336Z" style="fill:white;fill-opacity:0.5;"/>
    <path d="M69.75,132.378L67.436,128.31C67.561,128.34 67.696,128.318 67.834,128.242C67.914,128.199 68.008,128.215 68.07,128.276C68.319,128.518 68.554,128.712 68.769,128.865C70.908,130.382 73.216,131.523 75.671,132.314C76.459,132.567 77.21,132.746 77.921,132.85C79.013,133.01 80.893,133.428 82.431,133.255C82.532,133.244 82.6,133.144 82.572,133.047C82.115,131.456 81.413,129.779 81.125,128.009C81.004,127.264 80.898,126.528 80.806,125.802C82.152,125.854 83.06,125.826 83.529,125.716C85.423,125.271 86.53,124.091 86.846,122.178C86.99,121.307 86.53,119.924 85.414,120.375C84.016,120.939 83.25,121.681 81.34,121.325C81.036,120.378 81.212,119.437 81.861,118.496C82.505,117.561 83.576,117.557 84.55,117.306C84.66,117.278 84.758,117.223 84.844,117.15C86.259,115.934 85.311,111.165 85.034,109.635C84.814,108.421 84.859,107.207 84.872,105.76C84.89,103.604 85.49,101.436 86.671,99.26C87.076,98.515 87.591,97.892 88.214,97.393C88.793,97.451 89.449,97.549 90.185,97.684C91.543,97.933 92.836,97.839 94.073,97.414C94.762,97.177 95.415,96.628 96.105,96.384C96.209,96.347 96.323,96.336 96.433,96.356C97.128,96.487 97.555,96.841 97.712,97.426C98.83,101.589 99.474,104.239 99.616,105.376C99.855,107.292 100.097,109.215 100.352,111.146C99.695,113.492 99.104,115.853 98.576,118.229C98.396,119.041 97.718,120.74 96.55,123.321C96.397,123.656 95.71,124.683 94.489,126.396C93.818,127.338 92.99,128.248 92.006,129.128C90.317,130.634 89.149,131.655 88.496,132.191C87.781,132.777 87.442,134.145 87.628,135.576C87.748,136.496 88.664,138.593 89.574,140.505C90.535,142.522 91.488,144.332 91.488,144.332C91.54,144.372 91.557,144.443 91.525,144.501C91.492,144.56 91.424,144.587 91.362,144.565C91.362,144.565 90.001,144.353 89.149,144.189C88.946,144.15 88.772,144.114 88.652,144.084C85.525,143.293 82.14,142.131 79.304,140.417C78.436,139.893 77.333,139.439 76.738,138.979C75.104,137.718 73.623,136.487 72.307,135.275C72.058,135.046 71.644,134.555 71.066,133.798C70.682,133.295 70.244,132.823 69.75,132.378ZM91.562,103.623C90.544,103.436 89.529,103.684 88.514,104.365C88.318,104.493 88.063,104.322 88.112,104.095C88.382,102.776 90.74,102.387 91.752,102.574C92.766,102.758 94.83,103.957 94.618,105.284C94.581,105.514 94.284,105.585 94.149,105.395C93.438,104.398 92.576,103.81 91.562,103.623ZM90.127,107.645C90.623,107.722 90.887,108.691 90.714,109.808C90.541,110.926 89.998,111.769 89.501,111.693C89.005,111.616 88.741,110.647 88.914,109.529C89.087,108.412 89.63,107.569 90.127,107.645Z" style="fill:white;fill-opacity:0.75;"/>
</svg>
