<?xml version="1.0" encoding="UTF-8" standalone="no"?>
<!DOCTYPE svg PUBLIC "-//W3C//DTD SVG 1.1//EN" "http://www.w3.org/Graphics/SVG/1.1/DTD/svg11.dtd">
<svg width="100%" height="100%" viewBox="0 0 300 300" version="1.1" xmlns="http://www.w3.org/2000/svg" xmlns:xlink="http://www.w3.org/1999/xlink" xml:space="preserve" xmlns:serif="http://www.serif.com/" style="fill-rule:evenodd;clip-rule:evenodd;stroke-linejoin:round;stroke-miterlimit:2;">
    <path d="M194.803,161.261C194.31,163.231 192.755,172.075 192.456,172.941C192.043,173.708 191.866,174.621 191.976,175.67C191.985,175.758 191.983,175.846 191.973,175.933L191.556,179.255C188.644,177.741 186.137,175.84 184.032,173.55C181.897,171.228 180.153,167.836 178.373,165.249C174.907,160.211 169.791,157.527 163.778,156.825C160.842,156.482 156.959,156.624 153.466,157.007C148.668,157.534 145.315,157.882 143.412,158.045C142.33,158.137 140.483,158.174 137.879,158.157C128.961,158.097 120.352,154.904 113.592,149.27C108.571,145.086 105.525,139.55 104.047,133.057C102.599,126.697 101.98,119.934 102.19,112.771C102.422,104.838 104.439,97.325 109.559,91.417C112.884,87.58 116.861,84.384 121.491,81.823C124.094,80.382 126.533,79.058 128.807,77.842C129.967,77.222 131.162,76.373 132.392,75.298C134.525,73.433 134.781,71.096 134.193,68.276C134.015,67.424 133.538,65.549 132.756,62.652C131.303,57.262 131.107,51.87 134.186,46.795C135.213,45.103 135.916,43.578 137.066,42.054C141.843,35.727 148.329,32.579 156.514,32.593C159.426,32.598 162.849,33.099 166.778,34.093C168.901,34.63 170.513,34.368 173.485,34.177C175.633,34.039 176.582,33.412 178.272,32.075C180.18,30.563 181.964,28.903 183.622,27.088C186.379,24.07 188.742,21.59 190.704,19.652C196.686,13.745 203.659,9.826 211.617,7.896C219.638,5.951 227.575,5.951 235.42,7.896C245.975,10.507 254.341,17.304 258.404,27.488C260.199,31.987 261.671,37.775 264.151,42.622C266.359,46.939 269.76,49.646 274.029,51.743C278.055,53.721 281.615,55.552 284.696,58.219C291.949,64.498 290.583,72.621 287.134,80.516C285.519,84.213 283.872,87.965 282.194,91.767C281.959,91.526 281.717,91.403 281.472,91.393C280.946,90.856 280.417,90.573 279.884,90.548C279.646,90.562 279.489,90.513 279.415,90.397C279.286,90.197 279.212,90.089 279.194,90.078C278.991,89.928 278.816,89.767 278.672,89.602C271.478,85.895 263.964,85.09 256.13,87.163C255.293,87.385 254.683,87.661 254.294,87.987L252.934,88.488C252.776,88.4 252.598,88.4 252.401,88.488C247.175,90.808 242.895,94.259 239.583,98.877C239.408,99.501 239.166,99.848 238.862,99.922C237.523,102.297 236.471,104.463 235.708,106.422C234.898,108.5 234.411,110.83 234.25,113.413C234.362,113.686 234.373,114.159 234.278,114.832L234.159,114.881C234.054,114.926 233.983,115.031 233.98,115.151C233.775,122.772 236.018,129.57 240.684,135.52C241.044,135.98 241.451,136.41 241.91,136.82L243.448,138.257C245.908,140.948 249.094,143.04 253.001,144.529C257.062,146.288 261.33,147.071 265.801,146.859C266.309,146.835 266.919,146.754 267.627,146.614L269.228,146.478C277.537,145.023 284.205,140.871 289.233,134.013L289.847,133.032C290.747,131.634 291.382,130.555 291.753,129.787C292.388,128.474 293.032,126.76 293.684,124.643C294.129,125.127 295.007,126.266 296.315,128.063C300.367,133.63 300.924,140.272 298.737,146.688C298.106,148.538 297.069,150.528 295.629,152.662C290.734,159.913 284.051,164.885 275.585,167.579C272.06,168.697 267.459,169.913 263.576,171.697C261.449,172.674 259.648,174.025 258.197,175.776C258.102,175.891 257.668,176.49 256.897,177.577C255.366,179.735 254.115,182.101 252.696,184.382C249.059,190.227 243.263,195.7 235.708,193.86C233.406,193.3 231.307,192.133 229.418,190.363L231.124,188.913C232.775,187.507 235.277,186.092 236.391,185.251C236.819,184.928 237.587,184.299 238.693,183.362C238.879,183.205 239.031,183.013 239.142,182.798C239.352,182.39 239.587,182.027 239.85,181.719C241.399,179.9 242.432,177.237 242.961,174.924C243.633,171.991 243.882,169.062 243.704,166.132C243.546,163.522 243.19,160.393 242.642,156.752C242.354,154.835 242.254,153.462 242.029,151.106C242.018,150.991 241.991,150.875 241.952,150.767C241.279,148.89 240.874,147.843 240.757,147.63C238.5,143.514 235.216,141.644 230.732,139.669C230.136,139.407 229.604,139.228 229.134,139.126C228.552,139 221.061,137.002 218.064,136.627C214.578,136.192 212.363,135.933 211.421,135.849C205.891,135.359 202.499,135.066 201.241,134.963C200.109,134.87 199.006,134.693 197.926,134.434C196.038,133.981 194.937,133.739 194.618,133.701C194.59,133.698 194.566,133.691 194.541,133.68L193.199,133.043C193.105,132.997 192.989,133.032 192.936,133.123C192.518,133.843 192.217,134.619 192.043,135.457C191.821,136.526 191.645,143.691 192.533,144.978C193,145.654 193.943,146.456 195.354,147.378C196.935,148.411 198.532,149.435 200.148,150.451C198.855,152.116 195.957,157.785 195.964,158.392L195.942,158.417C195.448,158.496 194.909,158.623 194.354,158.798C192.32,159.442 190.836,160.492 191.043,161.148C191.239,161.773 192.891,161.812 194.803,161.261ZM120.551,109.32L126.876,121.978C126.448,121.582 126.019,121.182 125.59,120.78C121.06,116.551 116.416,112.218 110.633,111.216L110.928,112.371C116.133,113.447 120.4,117.427 124.844,121.578C125.955,122.616 127.075,123.66 128.217,124.66L128.218,124.662L134.296,136.827L134.297,136.83C132.283,135.286 130.334,133.468 128.349,131.614C123.82,127.384 119.176,123.05 113.393,122.048L113.688,123.203C118.893,124.279 123.16,128.259 127.604,132.41C129.837,134.496 132.099,136.607 134.511,138.331C132.799,137.899 130.735,138.116 128.793,139.079C128.506,139.223 128.226,139.38 127.954,139.552L127.952,139.553C124.383,136.399 120.606,133.653 116.153,132.883L116.448,134.037C120.351,134.843 123.726,137.282 127.044,140.202C124.625,142.168 123.594,145.086 124.73,147.375C126.111,150.157 130.169,150.954 133.795,149.154C134.462,148.825 135.087,148.416 135.657,147.939C135.937,147.704 136.202,147.452 136.45,147.184C138.204,145.286 138.841,142.837 137.859,140.858C137.797,140.733 137.726,140.61 137.654,140.494L137.507,140.201C140.888,141.982 144.616,142.797 148.981,141.685C152.386,140.854 155.398,138.868 157.503,136.065C157.48,136.477 157.519,136.891 157.618,137.291C158.116,139.295 160.038,140.66 162.425,140.973C160.261,145.948 157.27,149.983 151.472,151.461C145.501,152.982 140.844,150.694 136.448,147.188C136.2,147.456 135.936,147.708 135.656,147.943C140.243,151.61 145.3,154.159 151.74,152.518C158.086,150.901 161.304,146.355 163.572,141.042L163.574,141.041C164.263,141.033 164.947,140.944 165.615,140.777C169.324,139.856 171.758,136.801 171.051,133.955C171.007,133.776 170.95,133.6 170.883,133.429L169.053,126.165C170.806,122.394 173.119,119.242 176.913,117.458C176.434,118.395 176.304,119.471 176.544,120.495C177.251,123.342 180.832,124.903 184.541,123.981C188.009,123.12 190.362,120.394 190.075,117.716C192.958,119.181 195.609,121.433 198.27,123.88L197.783,121.97C195.246,119.713 192.606,117.651 189.697,116.347C189.695,116.327 189.692,116.306 189.688,116.286L187.331,106.892C190.208,108.357 192.853,110.606 195.509,113.048L195.023,111.137C192.501,108.896 189.879,106.845 186.992,105.54L184.621,96.084C187.478,97.551 190.109,99.787 192.75,102.215L192.264,100.305C187.045,95.666 181.4,91.838 173.855,93.761C164.86,96.053 162.146,104.229 159.521,112.135C156.872,120.114 154.37,127.651 145.953,129.796C143.094,130.564 140.066,130.407 137.301,129.348C137.737,126.997 137.962,123.146 135.799,120.043C137.539,120.5 139.347,120.634 141.135,120.439C142.543,122.24 145.406,123.075 148.353,122.343C152.062,121.422 154.496,118.367 153.789,115.521L153.757,115.409L153.364,112.378C155.296,109.172 156.556,105.38 157.796,101.646C160.445,93.666 162.947,86.13 171.364,83.985C178.983,82.044 184.462,86.301 189.99,91.382L189.504,89.472C184.285,84.833 178.64,81.006 171.095,82.928C162.1,85.22 159.386,93.396 156.761,101.302C155.669,104.591 154.6,107.805 153.133,110.597L150.278,88.58C150.255,88.401 150.161,88.238 150.018,88.128C149.875,88.018 149.694,87.969 149.515,87.992C149.426,88.004 149.34,88.033 149.263,88.077C149.185,88.122 149.117,88.181 149.062,88.252C149.008,88.323 148.968,88.404 148.944,88.491C148.921,88.577 148.915,88.667 148.926,88.756L152.008,112.519C151.938,112.627 151.868,112.734 151.796,112.84C150.253,111.834 148.048,111.475 145.793,112.034C142.083,112.956 139.649,116.01 140.356,118.857C140.402,119.041 140.461,119.223 140.532,119.399C138.44,119.552 136.34,119.23 134.39,118.457C133.735,117.877 133.01,117.381 132.233,116.98C125.923,113.697 121.577,108.325 121.534,108.271C121.446,108.162 121.327,108.082 121.193,108.043C121.059,108.004 120.915,108.008 120.783,108.053C116.883,104.495 112.788,101.236 107.873,100.384L108.167,101.539C112.771,102.49 116.643,105.715 120.551,109.32ZM146.527,120.463C147.382,120.677 148.281,120.637 149.114,120.348C149.563,120.199 149.98,119.969 150.346,119.671C150.536,119.513 150.712,119.338 150.872,119.149C150.946,119.048 151.017,118.944 151.089,118.84C151.161,118.735 151.216,118.622 151.277,118.512C151.496,118.067 151.624,117.583 151.653,117.088C151.68,116.622 151.629,116.155 151.503,115.706C151.454,115.534 151.395,115.366 151.329,115.2C151.187,114.843 151,114.506 150.773,114.197C150.586,113.944 150.37,113.715 150.13,113.513L150.13,113.511C150.372,113.713 150.589,113.943 150.776,114.197C151.003,114.506 151.19,114.844 151.332,115.201C151.399,115.366 151.457,115.535 151.506,115.706C151.633,116.155 151.683,116.622 151.657,117.088C151.628,117.583 151.5,118.068 151.281,118.513C151.219,118.623 151.162,118.736 151.093,118.84C151.023,118.945 150.948,119.048 150.875,119.149C150.716,119.338 150.54,119.513 150.349,119.671C149.983,119.969 149.566,120.199 149.118,120.349C148.284,120.638 147.383,120.678 146.527,120.463ZM160.072,131.839C161.37,129.164 162.349,126.22 163.315,123.311C163.994,121.266 164.664,119.251 165.425,117.348L167.724,126.478C167.183,127.707 166.698,128.981 166.239,130.273C164.06,130.008 161.861,130.567 160.072,131.839ZM167.316,130.493C167.589,129.725 167.87,128.969 168.165,128.23L168.908,131.179C168.41,130.88 167.875,130.649 167.316,130.493ZM171.083,107.221C168.853,108.915 167.219,111.154 165.908,113.674L165.066,110.325L171.083,107.221ZM187.952,118.758C187.978,118.292 187.927,117.825 187.801,117.376C187.731,117.133 187.644,116.896 187.539,116.666C187.644,116.896 187.733,117.134 187.803,117.377C187.929,117.826 187.979,118.293 187.952,118.758ZM136.025,128.808C133.787,127.754 131.695,126.212 129.637,124.454L123.646,112.465C125.288,114.003 127.058,115.396 128.939,116.629C130.166,117.525 131.474,118.306 132.845,118.963C135.005,120.543 136.148,122.871 136.242,125.911C136.266,126.882 136.193,127.852 136.025,128.808ZM185.431,104.919C182.591,103.931 179.52,103.817 176.615,104.594C176.272,104.681 175.94,104.78 175.615,104.884L184.299,100.406L185.431,104.919ZM137.071,130.409C140.001,131.504 143.2,131.66 146.222,130.852C155.217,128.561 157.931,120.385 160.556,112.479C163.205,104.499 165.707,96.962 174.124,94.818C177.162,94.003 180.385,94.23 183.278,95.463L163.114,106.027C162.978,106.098 162.87,106.212 162.808,106.352C162.745,106.492 162.731,106.648 162.769,106.797L164.985,115.599C163.945,117.954 163.107,120.474 162.279,122.968C159.63,130.947 157.128,138.484 148.711,140.629C144.054,141.815 140.198,140.684 136.64,138.466L130.811,126.802C132.353,128.015 134.027,129.051 135.802,129.887C135.633,130.581 135.48,131.008 135.477,131.017C135.444,131.102 135.429,131.191 135.431,131.282C135.434,131.372 135.454,131.461 135.492,131.543C135.529,131.625 135.582,131.7 135.648,131.761C135.714,131.823 135.792,131.87 135.877,131.902C135.961,131.933 136.052,131.947 136.142,131.943C136.232,131.939 136.321,131.917 136.402,131.879C136.484,131.841 136.557,131.787 136.618,131.72C136.679,131.653 136.725,131.574 136.755,131.489C136.763,131.469 136.905,131.07 137.071,130.409ZM178.103,115.808C173.489,117.378 170.677,120.629 168.646,124.549L166.315,115.288C168.452,110.707 171.421,107.042 176.884,105.65C179.817,104.862 182.927,105.047 185.746,106.177L187.799,114.361C186.267,113.444 184.147,113.135 181.981,113.673C180.518,114.02 179.178,114.758 178.103,115.808ZM182.858,34.1C177.704,37.39 173.2,40.893 169.357,44.626C168.561,45.4 165.965,47.991 161.574,52.399C160.6,53.376 159.998,54.425 159.069,55.223C158.971,55.307 158.914,55.43 158.911,55.559C158.895,56.253 158.915,56.719 158.964,56.961C159.056,57.423 159.223,57.988 159.472,58.65C159.433,59.319 159.618,60.143 160.029,61.127C160.431,62.091 160.887,62.779 161.403,63.188C162.869,64.35 164.651,65.006 166.746,65.164C168.467,65.294 169.606,65.301 170.163,65.178C174.056,64.32 176.922,62.031 179.947,58.892C181.712,57.059 182.763,55.955 183.1,55.58C184.199,54.359 185.424,53.732 186.773,53.692C191.91,53.539 197.39,54.274 202.1,56.432C204.381,57.477 205.944,58.317 206.792,58.951C207.724,59.649 208.768,60.391 209.928,61.18L209.09,69.222C209.073,69.387 209.08,69.551 209.118,69.712L209.385,70.893C209.346,75.224 211.011,78.673 214.375,81.234C217.371,83.515 220.654,84.491 224.225,84.149C225.245,84.052 226.002,83.737 226.492,83.207C227.373,82.255 228.152,80.747 228.752,79.219C232.493,69.693 234.898,59.823 235.964,49.609C236.082,48.47 236.02,47.254 235.774,45.965C235.869,45.169 235.631,44.451 235.06,43.817C234.054,42.699 232.446,41.517 230.234,40.274C228.805,39.471 226.895,38.606 224.509,37.674C218.857,35.468 212.75,33.626 206.182,32.155C205.821,32.074 205.565,31.861 205.408,31.514C206.277,30.161 207.159,29.06 208.053,28.216C209.817,26.553 212.349,26.413 214.711,26.864C216.239,27.155 218.457,27.874 220.258,27.912C222.112,27.951 223.618,27.893 224.771,27.736C228.328,27.253 231.122,25.45 233.157,22.326C233.531,21.751 233.763,21.201 233.851,20.679C233.917,20.287 233.732,19.918 233.409,19.793C233.035,19.648 232.687,19.678 232.372,19.891C232.301,19.938 232.238,20.002 232.19,20.073C229.919,23.413 227.336,25.866 223.314,25.991C220.612,26.076 218.499,25.792 215.811,25.143C213.011,24.468 209.865,24.463 207.475,26.153C205.824,27.319 204.482,28.889 203.445,30.859C203.222,31.082 197.964,30.448 197.154,30.349L197.05,30.336C196.185,30.193 195.204,29.772 194.11,29.079C193.413,28.598 192.754,28.365 192.127,28.385C191.72,28.397 191.342,28.64 190.995,29.11C186.583,28.599 183.979,30.399 182.858,34.1Z" style="fill:white;fill-opacity:0.1;"/>
    <path d="M127.046,140.204C127.336,139.969 127.639,139.753 127.954,139.555C124.385,136.4 120.607,133.653 116.153,132.883L116.448,134.037C120.351,134.843 123.728,137.283 127.046,140.204Z" style="fill:white;fill-opacity:0.6;fill-rule:nonzero;"/>
    <path d="M178.103,115.808C173.488,117.378 170.677,120.629 168.646,124.548L169.053,126.165C170.805,122.394 173.119,119.242 176.912,117.457C177.215,116.845 177.617,116.288 178.103,115.808Z" style="fill:white;fill-opacity:0.6;fill-rule:nonzero;"/>
    <path d="M167.316,130.493C167.589,129.725 167.871,128.969 168.166,128.23L167.724,126.478C167.183,127.707 166.698,128.981 166.239,130.272C166.603,130.32 166.963,130.393 167.316,130.493Z" style="fill:white;fill-opacity:0.6;fill-rule:nonzero;"/>
    <path d="M151.472,151.461C145.501,152.982 140.844,150.694 136.448,147.188C136.2,147.456 135.936,147.708 135.656,147.943C140.243,151.61 145.3,154.159 151.74,152.518C158.086,150.901 161.304,146.355 163.572,141.042C163.188,141.046 162.805,141.023 162.425,140.973C160.261,145.948 157.27,149.983 151.472,151.461Z" style="fill:white;fill-opacity:0.6;fill-rule:nonzero;"/>
    <path d="M189.697,116.347C189.698,116.361 189.701,116.374 189.703,116.388C189.901,116.806 190.027,117.255 190.075,117.716C192.958,119.18 195.609,121.433 198.27,123.88L197.783,121.97C195.246,119.713 192.606,117.651 189.697,116.347Z" style="fill:white;fill-opacity:0.6;fill-rule:nonzero;"/>
    <path d="M148.981,141.685C152.386,140.854 155.398,138.868 157.503,136.065C157.587,134.486 158.548,132.946 160.072,131.839C161.37,129.164 162.349,126.22 163.315,123.311C163.994,121.266 164.664,119.251 165.425,117.348L164.985,115.6C163.945,117.954 163.107,120.474 162.279,122.968C159.63,130.947 157.128,138.484 148.711,140.629C144.051,141.816 140.193,140.682 136.634,138.462L137.502,140.198C140.883,141.981 144.614,142.798 148.981,141.685Z" style="fill:white;fill-opacity:0.6;fill-rule:nonzero;"/>
    <path d="M176.884,105.65C179.817,104.862 182.927,105.047 185.746,106.177L185.431,104.919C182.591,103.931 179.52,103.817 176.615,104.594C176.272,104.681 175.94,104.78 175.615,104.885L171.083,107.221C168.853,108.915 167.218,111.155 165.907,113.674L166.314,115.289C168.451,110.707 171.421,107.042 176.884,105.65Z" style="fill:white;fill-opacity:0.6;fill-rule:nonzero;"/>
    <path d="M127.604,132.41C129.838,134.497 132.102,136.61 134.516,138.334C134.729,138.388 134.939,138.452 135.145,138.527L134.297,136.83C132.283,135.287 130.334,133.468 128.349,131.614C123.82,127.384 119.176,123.05 113.393,122.048L113.688,123.203C118.893,124.279 123.16,128.259 127.604,132.41Z" style="fill:white;fill-opacity:0.6;fill-rule:nonzero;"/>
    <path d="M186.992,105.54L187.331,106.892C190.208,108.357 192.853,110.606 195.509,113.048L195.023,111.137C192.501,108.896 189.879,106.845 186.992,105.54Z" style="fill:white;fill-opacity:0.6;fill-rule:nonzero;"/>
    <path d="M124.844,121.578C125.956,122.617 127.076,123.661 128.218,124.662L126.878,121.98C126.449,121.583 126.02,121.183 125.59,120.78C121.06,116.551 116.416,112.218 110.633,111.216L110.928,112.371C116.133,113.447 120.4,117.427 124.844,121.578Z" style="fill:white;fill-opacity:0.6;fill-rule:nonzero;"/>
    <path d="M173.855,93.761C164.86,96.053 162.146,104.229 159.521,112.135C156.872,120.114 154.37,127.651 145.953,129.796C143.094,130.564 140.065,130.408 137.301,129.349C137.227,129.75 137.146,130.107 137.071,130.409C140.001,131.505 143.2,131.66 146.222,130.852C155.217,128.561 157.931,120.385 160.556,112.479C163.205,104.499 165.707,96.962 174.124,94.818C177.162,94.003 180.385,94.23 183.278,95.463L183.559,95.316C183.651,95.268 183.752,95.241 183.855,95.238C183.958,95.235 184.06,95.255 184.155,95.297C184.249,95.339 184.332,95.402 184.398,95.482C184.464,95.561 184.512,95.654 184.537,95.754L184.621,96.084C187.479,97.55 190.109,99.787 192.75,102.215L192.264,100.305C187.045,95.666 181.4,91.838 173.855,93.761Z" style="fill:white;fill-opacity:0.6;fill-rule:nonzero;"/>
    <path d="M129.637,124.454L130.81,126.803C132.353,128.016 134.027,129.05 135.802,129.887C135.877,129.577 135.955,129.213 136.025,128.808C133.787,127.754 131.694,126.213 129.637,124.454Z" style="fill:white;fill-opacity:0.6;fill-rule:nonzero;"/>
    <path d="M120.551,109.32L120.392,109.002C120.317,108.852 120.3,108.679 120.345,108.517C120.39,108.355 120.493,108.215 120.634,108.124C120.681,108.095 120.731,108.072 120.784,108.055C116.884,104.496 112.789,101.236 107.873,100.384L108.167,101.539C112.771,102.49 116.643,105.715 120.551,109.32Z" style="fill:white;fill-opacity:0.6;fill-rule:nonzero;"/>
    <path d="M132.845,118.963C132.451,118.675 132.036,118.416 131.603,118.191C130.668,117.704 129.779,117.176 128.939,116.63C130.166,117.526 131.474,118.307 132.845,118.963Z" style="fill:white;fill-opacity:0.6;fill-rule:nonzero;"/>
    <path d="M171.095,82.928C162.1,85.22 159.386,93.396 156.761,101.302C155.669,104.591 154.601,107.805 153.133,110.598L153.364,112.378C155.296,109.173 156.556,105.38 157.796,101.646C160.445,93.666 162.947,86.13 171.364,83.985C178.983,82.044 184.462,86.301 189.99,91.382L189.504,89.472C184.285,84.833 178.64,81.006 171.095,82.928Z" style="fill:white;fill-opacity:0.6;fill-rule:nonzero;"/>
    <path d="M134.39,118.457C134.92,118.929 135.393,119.461 135.799,120.043C137.539,120.5 139.347,120.634 141.135,120.44C140.886,120.123 140.683,119.773 140.532,119.4C138.44,119.552 136.341,119.23 134.39,118.457Z" style="fill:white;fill-opacity:0.6;fill-rule:nonzero;"/>
    <path d="M152.008,112.519C151.938,112.627 151.868,112.734 151.796,112.84C151.891,112.902 151.985,112.966 152.075,113.033L152.008,112.519Z" style="fill:white;fill-opacity:0.6;fill-rule:nonzero;"/>
    <path d="M135.799,120.042C135.393,119.461 134.92,118.928 134.39,118.457C133.735,117.877 133.01,117.381 132.233,116.98C125.923,113.697 121.577,108.325 121.534,108.271C121.446,108.162 121.327,108.082 121.193,108.043C121.059,108.004 120.916,108.008 120.783,108.053C120.731,108.07 120.681,108.093 120.634,108.122C120.492,108.213 120.389,108.353 120.344,108.515C120.3,108.677 120.316,108.85 120.391,109L120.55,109.318L126.876,121.978L128.217,124.66L134.296,136.827L135.144,138.525C134.938,138.45 134.728,138.385 134.515,138.332C132.802,137.899 130.736,138.115 128.793,139.079C128.506,139.223 128.226,139.38 127.954,139.552C127.638,139.75 127.335,139.966 127.046,140.201C124.625,142.166 123.593,145.086 124.73,147.375C126.111,150.157 130.169,150.954 133.795,149.154C134.462,148.825 135.087,148.416 135.657,147.939C135.937,147.704 136.202,147.452 136.45,147.184C138.204,145.286 138.841,142.837 137.859,140.858C137.797,140.733 137.726,140.61 137.654,140.494L137.504,140.194L136.637,138.458L130.811,126.802L129.638,124.454L123.646,112.465C125.288,114.003 127.058,115.396 128.939,116.628C129.779,117.174 130.668,117.703 131.603,118.189C132.036,118.415 132.451,118.673 132.845,118.962C135.005,120.542 136.148,122.871 136.242,125.911C136.266,126.882 136.194,127.852 136.025,128.808C135.955,129.214 135.877,129.577 135.802,129.887C135.633,130.581 135.48,131.008 135.477,131.017C135.444,131.102 135.429,131.191 135.431,131.282C135.434,131.372 135.454,131.461 135.492,131.543C135.529,131.625 135.582,131.7 135.648,131.761C135.714,131.823 135.792,131.87 135.877,131.902C135.961,131.933 136.052,131.947 136.142,131.943C136.232,131.939 136.321,131.917 136.402,131.879C136.484,131.841 136.557,131.787 136.618,131.72C136.679,131.653 136.725,131.574 136.755,131.489C136.763,131.469 136.906,131.069 137.071,130.409C137.147,130.106 137.227,129.75 137.302,129.348C137.737,126.997 137.962,123.146 135.799,120.042ZM130.221,148.795C129.756,148.878 129.28,148.876 128.815,148.789C128.572,148.742 128.334,148.672 128.104,148.582C127.99,148.53 127.879,148.472 127.765,148.415C127.651,148.358 127.549,148.285 127.443,148.218C127.038,147.932 126.694,147.568 126.431,147.147C126.185,146.751 126.006,146.316 125.902,145.861C125.693,145.002 125.749,144.1 126.062,143.273C126.368,144.003 126.714,144.715 127.1,145.405C127.413,145.982 127.848,146.483 128.375,146.874C128.916,147.229 129.535,147.447 130.179,147.509C130.891,147.615 131.68,147.605 132.551,147.655C131.902,148.253 131.092,148.649 130.221,148.795Z" style="fill:white;fill-rule:nonzero;"/>
    <path d="M128.375,146.875C127.848,146.484 127.413,145.982 127.1,145.406C126.715,144.715 126.369,144.003 126.063,143.274C125.749,144.101 125.693,145.003 125.902,145.862C126.007,146.317 126.185,146.751 126.431,147.148C126.694,147.568 127.038,147.932 127.443,148.218C127.55,148.286 127.654,148.357 127.766,148.416C127.877,148.475 127.991,148.529 128.104,148.583C128.335,148.673 128.573,148.742 128.816,148.79C129.28,148.877 129.756,148.879 130.221,148.795C131.092,148.65 131.902,148.254 132.551,147.656C131.681,147.606 130.892,147.616 130.178,147.51C129.535,147.448 128.916,147.23 128.375,146.875Z" style="fill:white;fill-opacity:0.6;fill-rule:nonzero;"/>
    <path d="M149.515,87.992C149.426,88.004 149.34,88.033 149.263,88.077C149.185,88.122 149.117,88.181 149.062,88.252C149.008,88.323 148.968,88.404 148.944,88.491C148.921,88.577 148.915,88.667 148.926,88.756L152.008,112.519L152.075,113.033C151.985,112.966 151.891,112.902 151.796,112.84C150.253,111.834 148.048,111.475 145.793,112.034C142.083,112.956 139.649,116.01 140.356,118.857C140.402,119.041 140.461,119.222 140.532,119.398C140.682,119.772 140.885,120.122 141.134,120.439C142.543,122.24 145.406,123.075 148.353,122.343C152.062,121.422 154.496,118.367 153.789,115.521C153.779,115.483 153.768,115.446 153.757,115.409L153.364,112.377L153.133,110.597L150.278,88.58C150.255,88.401 150.161,88.238 150.018,88.128C149.875,88.018 149.694,87.969 149.515,87.992ZM151.506,115.706C151.633,116.155 151.683,116.622 151.657,117.088C151.628,117.583 151.5,118.068 151.281,118.513C151.219,118.623 151.162,118.736 151.093,118.84C151.023,118.945 150.948,119.048 150.875,119.149C150.716,119.338 150.54,119.513 150.349,119.671C149.983,119.969 149.566,120.199 149.118,120.349C148.284,120.638 147.383,120.677 146.527,120.463C147.267,120.003 147.964,119.634 148.54,119.2C149.076,118.837 149.515,118.35 149.821,117.78C150.032,117.338 150.162,116.862 150.203,116.375C150.221,116.214 150.233,116.049 150.238,115.88C150.249,115.542 150.241,115.191 150.223,114.827C150.201,114.409 150.167,113.972 150.13,113.511C150.372,113.713 150.589,113.943 150.776,114.197C151.003,114.506 151.19,114.844 151.332,115.201C151.399,115.366 151.457,115.535 151.506,115.706Z" style="fill:white;fill-rule:nonzero;"/>
    <path d="M151.329,115.2C151.187,114.843 151,114.506 150.773,114.197C150.585,113.943 150.368,113.713 150.126,113.51C150.163,113.972 150.198,114.408 150.219,114.827C150.238,115.19 150.247,115.541 150.234,115.879C150.229,116.049 150.217,116.214 150.2,116.374C150.158,116.862 150.029,117.338 149.817,117.779C149.512,118.349 149.072,118.837 148.537,119.199C147.962,119.633 147.264,120.002 146.524,120.463C147.38,120.677 148.28,120.637 149.114,120.348C149.563,120.199 149.98,119.969 150.346,119.671C150.536,119.513 150.712,119.338 150.872,119.149C150.946,119.048 151.017,118.944 151.089,118.84C151.161,118.735 151.216,118.622 151.277,118.512C151.496,118.067 151.624,117.583 151.653,117.088C151.68,116.622 151.629,116.155 151.503,115.706C151.454,115.534 151.395,115.366 151.329,115.2Z" style="fill:white;fill-opacity:0.6;fill-rule:nonzero;"/>
    <path d="M189.688,116.286L187.331,106.892L186.992,105.54L184.62,96.084L184.536,95.754C184.511,95.654 184.463,95.561 184.397,95.482C184.331,95.403 184.247,95.34 184.153,95.298C184.059,95.255 183.957,95.235 183.854,95.238C183.751,95.241 183.65,95.268 183.558,95.316L183.277,95.463L163.114,106.027C162.978,106.098 162.87,106.212 162.808,106.352C162.745,106.492 162.731,106.648 162.769,106.797L164.985,115.599L165.426,117.348L167.724,126.478L168.165,128.23L168.908,131.179C168.41,130.88 167.875,130.649 167.316,130.493C166.963,130.393 166.603,130.319 166.239,130.273C164.06,130.009 161.861,130.567 160.072,131.839C158.548,132.946 157.587,134.486 157.503,136.065C157.48,136.477 157.519,136.891 157.618,137.291C158.116,139.295 160.039,140.661 162.428,140.973C162.808,141.022 163.191,141.045 163.574,141.041C164.263,141.033 164.947,140.944 165.615,140.777C169.324,139.856 171.758,136.801 171.051,133.955C171.007,133.776 170.95,133.6 170.883,133.429L169.054,126.166L168.647,124.549L166.315,115.288L165.909,113.674L165.066,110.325L171.084,107.221L175.615,104.884L184.299,100.406L185.431,104.919L185.746,106.177L187.799,114.361C186.267,113.444 184.147,113.135 181.981,113.673C180.518,114.02 179.178,114.758 178.103,115.808C177.618,116.289 177.215,116.846 176.913,117.458C176.434,118.395 176.304,119.471 176.544,120.495C177.251,123.342 180.832,124.903 184.541,123.981C188.009,123.12 190.361,120.394 190.075,117.716C190.027,117.256 189.901,116.807 189.703,116.389C189.701,116.375 189.698,116.362 189.696,116.347C189.695,116.327 189.692,116.306 189.688,116.286ZM164.295,139.257C164.099,139.318 163.899,139.366 163.697,139.401C163.484,139.442 163.268,139.461 163.051,139.461C162.796,139.461 162.543,139.44 162.292,139.396C162.049,139.348 161.811,139.279 161.581,139.189C161.467,139.136 161.356,139.079 161.242,139.022C161.128,138.966 161.026,138.892 160.92,138.825C160.514,138.539 160.17,138.175 159.908,137.754C159.662,137.358 159.483,136.923 159.379,136.469C159.17,135.609 159.226,134.707 159.539,133.88C159.845,134.609 160.191,135.321 160.577,136.012C160.89,136.589 161.325,137.09 161.851,137.481C162.366,137.819 162.953,138.031 163.565,138.099C163.596,138.104 163.624,138.111 163.655,138.115C163.996,138.162 164.34,138.192 164.684,138.204C165.109,138.224 165.555,138.235 166.026,138.262C165.531,138.718 164.939,139.059 164.295,139.257ZM187.952,118.759C187.923,119.254 187.795,119.738 187.576,120.183C187.515,120.293 187.458,120.406 187.388,120.511C187.319,120.615 187.244,120.718 187.171,120.819C187.011,121.009 186.835,121.183 186.645,121.341C186.279,121.64 185.861,121.87 185.413,122.019C184.579,122.308 183.679,122.348 182.822,122.133C183.562,121.673 184.26,121.304 184.836,120.87C185.371,120.507 185.811,120.02 186.116,119.45C186.391,118.854 186.533,118.206 186.532,117.55C186.545,117.177 186.534,116.79 186.511,116.383C186.49,116.023 186.46,115.65 186.429,115.259C186.427,115.233 186.425,115.208 186.423,115.182C186.461,115.213 186.496,115.247 186.532,115.28C186.96,115.667 187.303,116.14 187.539,116.667C187.645,116.897 187.733,117.134 187.803,117.377C187.929,117.826 187.979,118.293 187.952,118.759Z" style="fill:white;fill-rule:nonzero;"/>
    <path d="M164.686,138.204C164.341,138.192 163.998,138.162 163.656,138.116C163.625,138.112 163.597,138.104 163.566,138.1C162.954,138.032 162.367,137.82 161.853,137.482C161.326,137.091 160.891,136.589 160.578,136.013C160.193,135.322 159.846,134.61 159.54,133.881C159.227,134.708 159.171,135.61 159.38,136.469C159.484,136.924 159.663,137.358 159.909,137.755C160.171,138.175 160.515,138.539 160.921,138.825C161.027,138.892 161.132,138.964 161.243,139.023C161.354,139.082 161.469,139.136 161.582,139.19C161.812,139.28 162.05,139.349 162.293,139.397C162.544,139.44 162.798,139.462 163.052,139.462C163.269,139.462 163.485,139.442 163.699,139.402C163.9,139.367 164.1,139.319 164.296,139.258C164.94,139.059 165.533,138.719 166.029,138.263C165.556,138.235 165.111,138.224 164.686,138.204Z" style="fill:white;fill-opacity:0.6;fill-rule:nonzero;"/>
    <path d="M187.538,116.666C187.302,116.139 186.959,115.667 186.531,115.279C186.495,115.246 186.461,115.213 186.422,115.181C186.424,115.207 186.426,115.232 186.428,115.258C186.459,115.649 186.489,116.023 186.51,116.383C186.533,116.788 186.543,117.176 186.531,117.549C186.532,118.206 186.39,118.854 186.115,119.45C185.81,120.02 185.37,120.507 184.835,120.869C184.26,121.304 183.562,121.672 182.821,122.133C183.678,122.347 184.578,122.307 185.412,122.018C185.86,121.869 186.278,121.639 186.644,121.341C186.834,121.183 187.01,121.008 187.17,120.819C187.244,120.718 187.315,120.615 187.387,120.51C187.46,120.405 187.514,120.293 187.575,120.182C187.794,119.737 187.922,119.253 187.951,118.758C187.978,118.292 187.927,117.825 187.801,117.376C187.731,117.133 187.643,116.896 187.538,116.666Z" style="fill:white;fill-opacity:0.6;fill-rule:nonzero;"/>
    <path d="M70.901,23.584C65.095,20.101 59.015,17.918 52.655,17.038C28.298,13.67 5.371,30.004 0.794,54.326C-1.515,66.608 1.26,79.395 8.493,89.588C14.691,98.324 23.132,104.277 33.807,107.477C34.483,107.679 35.444,107.801 36.235,108.086C36.351,108.128 36.452,108.205 36.519,108.31L44.666,121.034L51.99,108.889C52.004,108.864 52.031,108.846 52.063,108.84C62.993,106.791 72.202,102.55 79.5,95.016C87.477,86.782 92.112,75.869 92.487,64.32C92.953,49.981 86.787,36.593 75.786,27.267C75.12,26.703 73.491,25.473 70.901,23.584ZM35.665,83.515C34.896,86.925 37.108,90.327 40.604,91.115C44.102,91.904 47.558,89.777 48.327,86.368C49.096,82.958 46.884,79.556 43.387,78.768C39.89,77.979 36.434,80.106 35.665,83.515ZM49.996,72.95C50.481,71.167 51.503,69.65 53.069,68.391C56.889,65.322 61.108,63.892 64.366,60.686C66.823,58.268 68.284,55.181 68.75,51.424C69.752,43.354 63.003,37.807 56.117,35.533C51.969,34.163 47.69,33.55 43.278,33.693C37.857,33.869 33.086,35.702 28.988,39.219C28.809,39.373 28.799,39.643 28.967,39.812L35.107,45.951C35.296,46.14 35.604,46.143 35.797,45.958C40.063,41.866 46.876,41.818 52.074,43.81C54.344,44.68 56.73,46.547 57.41,48.891C58.157,51.463 57.415,54.331 55.382,56.106C54.047,57.27 52.883,58.117 51.884,58.653C48.366,60.542 45.634,62.34 43.681,64.043C41.723,65.75 40.422,67.981 39.781,70.732C39.711,71.033 39.9,71.335 40.205,71.401L49.232,73.413C49.568,73.486 49.905,73.283 49.996,72.95Z" style="fill:white;fill-opacity:0.95;"/>
    <path d="M205.408,31.514C206.277,30.161 207.159,29.06 208.053,28.216C209.817,26.553 212.349,26.413 214.711,26.864C216.239,27.155 218.457,27.874 220.258,27.912C222.112,27.951 223.618,27.893 224.771,27.736C228.328,27.253 231.122,25.45 233.157,22.326C233.531,21.751 233.763,21.201 233.851,20.679C233.917,20.287 233.732,19.918 233.409,19.793C233.035,19.648 232.687,19.678 232.372,19.891C232.301,19.938 232.238,20.002 232.19,20.073C229.919,23.413 227.336,25.866 223.314,25.991C220.612,26.076 218.499,25.792 215.811,25.143C213.011,24.468 209.865,24.463 207.475,26.153C205.824,27.319 204.482,28.889 203.445,30.859L205.408,31.514Z" style="fill:white;fill-opacity:0.5;"/>
    <path d="M44.666,121.034L48.899,122.849C48.99,122.888 49.092,122.853 49.141,122.772L56.303,110.876C56.366,110.77 56.475,110.7 56.594,110.683C66.222,109.276 74.532,105.451 81.515,99.182C89.081,92.398 94.176,83.305 96.054,73.367C98.871,58.447 94.172,43.488 83.639,32.481C79.963,28.637 75.716,25.672 70.901,23.584C73.491,25.473 75.12,26.703 75.786,27.267C86.787,36.593 92.953,49.981 92.487,64.32C92.112,75.869 87.477,86.782 79.5,95.016C72.202,102.55 62.993,106.791 52.063,108.84C52.031,108.846 52.004,108.864 51.99,108.889L44.666,121.034Z" style="fill:white;fill-opacity:0.15;"/>
    <path d="M194.11,29.079C193.413,28.598 192.754,28.365 192.127,28.385C191.72,28.397 191.342,28.64 190.995,29.11L190.175,30.4C190.105,30.512 189.975,30.579 189.842,30.571C189.537,30.554 189.162,30.505 188.724,30.428C187.417,30.195 185.988,30.641 185.946,32.162C185.911,33.41 187.47,33.792 188.448,33.83C188.539,33.834 188.595,33.935 188.553,34.016C188.126,34.833 187.918,35.645 187.936,36.451C187.96,37.58 189.169,37.585 190.119,37.53C191.048,37.477 191.838,35.506 192.046,35.004C192.128,34.808 192.348,34.712 192.547,34.787C193.864,35.28 195.892,35.092 196.234,33.413C196.336,32.912 196.174,32.583 195.747,32.418C195.063,32.155 194.478,32.003 193.984,31.959C193.865,31.948 193.792,31.826 193.833,31.717C194.239,30.66 194.331,29.779 194.11,29.079Z" style="fill:white;fill-opacity:0.75;"/>
    <path d="M182.858,34.1C183.979,30.399 186.583,28.599 190.995,29.11L190.175,30.4C190.105,30.512 189.975,30.579 189.842,30.571C189.537,30.554 189.162,30.505 188.724,30.428C187.417,30.195 185.988,30.641 185.946,32.162C185.911,33.41 187.47,33.792 188.448,33.83C188.539,33.834 188.595,33.935 188.553,34.016C188.126,34.833 187.918,35.645 187.936,36.451C187.96,37.58 189.169,37.585 190.119,37.53C191.048,37.477 191.838,35.506 192.046,35.004C192.128,34.808 192.348,34.712 192.547,34.787C193.864,35.28 195.892,35.092 196.234,33.413C196.336,32.912 196.174,32.583 195.747,32.418C195.063,32.155 194.478,32.003 193.984,31.959C193.865,31.948 193.792,31.826 193.833,31.717C194.239,30.66 194.331,29.779 194.11,29.079C195.204,29.772 196.185,30.193 197.05,30.336C198.084,31.223 199.02,34.047 198.991,34.181L198.732,35.421L198.511,35.221C198.487,35.2 198.456,35.225 198.462,35.253C198.473,35.298 198.48,35.333 198.48,35.358C198.478,35.435 198.445,35.509 198.396,35.568C195.955,38.485 191.59,39.444 187.936,38.659C186.555,38.362 185.129,37.604 183.657,36.388L182.858,34.1Z" style="fill:white;fill-opacity:0.5;"/>
    <path d="M203.445,30.859L205.408,31.514C205.565,31.861 205.821,32.074 206.182,32.155C212.75,33.626 218.857,35.468 224.509,37.674C226.895,38.606 228.805,39.471 230.234,40.274C232.446,41.517 234.054,42.699 235.06,43.817C235.631,44.451 235.869,45.169 235.774,45.965C234.439,49.168 233.49,52.276 232.926,55.286C232.446,57.841 231.944,61.25 231.429,65.522C230.97,69.334 229.25,72.659 226.268,75.498C223.717,77.926 219.501,77.877 216.565,76.36C215.391,75.753 214.623,75.319 214.255,75.053C212.639,73.88 211.018,72.491 209.385,70.893L209.118,69.712C209.08,69.551 209.073,69.387 209.09,69.222L209.928,61.18L209.795,58.695C209.784,58.531 209.738,58.366 209.658,58.222C209.336,57.642 208.926,57.195 208.421,56.887C203.555,53.917 198.235,51.941 192.456,50.962C187.509,50.123 182.25,50.473 178.04,53.313C177.126,53.93 175.671,54.956 173.678,56.39C172.479,57.252 170.703,58.186 168.344,59.19C167.066,59.734 165.772,60.09 164.462,60.255C162.741,60.472 161.077,59.936 159.472,58.65C159.223,57.988 159.056,57.423 158.964,56.961C158.915,56.719 158.895,56.253 158.911,55.559C158.914,55.43 158.971,55.307 159.069,55.223C159.998,54.425 160.6,53.376 161.574,52.399C165.965,47.991 168.561,45.4 169.357,44.626C173.2,40.893 177.704,37.39 182.858,34.1L183.657,36.388C184.348,37.727 186.265,38.742 187.568,39.044C190.053,39.621 192.512,39.492 194.948,38.659C196.065,38.276 196.75,37.67 197.769,37.001C197.845,36.951 197.909,36.882 197.951,36.802L198.732,35.421L198.991,34.181C199.02,34.047 198.084,31.223 197.05,30.336L197.154,30.349C197.964,30.448 203.222,31.082 203.445,30.859ZM219.81,42.265C218.131,42.815 217.1,43.876 216.712,45.457C216.494,46.343 216.674,47.426 216.785,48.102C217.118,50.124 220.378,51.388 222.217,51.698C224.842,52.14 227.42,51.641 229.737,50.436C231.037,49.76 232.503,48.179 232.372,46.676C232.257,45.359 231.636,43.576 230.396,42.675C229.702,42.17 228.854,41.799 227.855,41.56C227.736,41.438 227.421,41.315 226.909,41.185C225.539,41.203 224.253,41.205 223.051,41.199C222.266,41.195 221.309,41.476 220.184,42.04C220.09,42.149 219.964,42.226 219.81,42.265ZM199.796,44.529C199.748,42.762 197.569,41.388 194.927,41.456C192.285,41.525 190.178,43.014 190.226,44.78C190.273,46.547 192.453,47.921 195.095,47.853C197.737,47.784 199.843,46.294 199.796,44.529ZM213.351,49.932C213.483,48.849 213.951,47.104 212.952,46.308C212.023,45.569 210.969,45.058 209.788,44.781C209.146,44.63 208.372,44.647 207.468,44.833C205.012,45.338 202.17,46.214 203.004,49.452C203.449,51.179 205.761,52.035 207.373,52.132C209.115,52.238 210.812,51.843 212.454,50.941C213.008,50.637 213.307,50.3 213.351,49.932Z" style="fill:white;fill-opacity:0.95;"/>
    <path d="M49.996,72.95C50.481,71.167 51.503,69.65 53.069,68.391C56.889,65.322 61.108,63.892 64.366,60.686C66.823,58.268 68.284,55.181 68.75,51.424C69.752,43.354 63.003,37.807 56.117,35.533C51.969,34.163 47.69,33.55 43.278,33.693C37.857,33.869 33.086,35.702 28.988,39.219C28.809,39.373 28.799,39.643 28.967,39.812L35.107,45.951C35.296,46.14 35.604,46.143 35.797,45.958C40.063,41.866 46.876,41.818 52.074,43.81C54.344,44.68 56.73,46.547 57.41,48.891C58.157,51.463 57.415,54.331 55.382,56.106C54.047,57.27 52.883,58.117 51.884,58.653C48.366,60.542 45.634,62.34 43.681,64.043C41.723,65.75 40.422,67.981 39.781,70.732C39.711,71.033 39.9,71.335 40.205,71.401L49.232,73.413C49.568,73.486 49.905,73.283 49.996,72.95Z" style="fill:white;fill-opacity:0.25;"/>
    <path d="M183.657,36.388C184.348,37.727 186.265,38.742 187.568,39.044C190.053,39.621 192.512,39.492 194.948,38.659C196.065,38.276 196.75,37.67 197.769,37.001C197.845,36.951 197.909,36.882 197.951,36.802L198.732,35.421L198.511,35.221C198.487,35.2 198.456,35.225 198.462,35.253C198.473,35.298 198.48,35.333 198.48,35.358C198.478,35.435 198.445,35.509 198.396,35.568C195.955,38.485 191.59,39.444 187.936,38.659C186.555,38.362 185.129,37.604 183.657,36.388Z" style="fill:white;fill-opacity:0.35;"/>
    <path d="M219.81,42.265C218.131,42.815 217.1,43.876 216.712,45.457C216.494,46.343 216.674,47.426 216.785,48.102C217.118,50.124 220.378,51.388 222.217,51.698C224.842,52.14 227.42,51.641 229.737,50.436C231.037,49.76 232.503,48.179 232.372,46.676C232.257,45.359 231.636,43.576 230.396,42.675C229.702,42.17 228.854,41.799 227.855,41.56C228.472,42.012 228.955,42.461 229.306,42.913C229.86,43.628 229.446,44.402 228.773,44.767C227.48,45.467 226.278,45.317 225.174,44.311C224.547,43.74 224.46,43.169 224.915,42.59C225.045,42.426 225.374,42.194 225.9,41.897C226.267,41.689 226.604,41.452 226.909,41.185C225.539,41.203 224.253,41.205 223.051,41.199C222.266,41.195 221.309,41.476 220.184,42.04C221.821,41.501 223.054,41.865 223.878,43.134C224.092,43.463 224.069,43.893 223.808,44.43C223.751,44.546 223.664,44.644 223.559,44.714C222.203,45.61 220.928,45.558 219.746,44.574C218.909,43.876 218.923,42.92 219.81,42.265ZM225.269,47.595C225.153,48.547 226.135,49.448 227.457,49.607C228.78,49.767 229.947,49.126 230.063,48.175C230.178,47.223 229.197,46.323 227.874,46.163C226.551,46.004 225.384,46.645 225.269,47.595ZM219.249,47.622C219.098,48.604 220.027,49.564 221.329,49.763C222.63,49.963 223.808,49.332 223.958,48.351C224.109,47.37 223.18,46.41 221.879,46.21C220.577,46.011 219.4,46.641 219.249,47.622Z" style="fill:white;fill-opacity:0.5;"/>
    <path d="M227.855,41.56C227.736,41.438 227.421,41.315 226.909,41.185C226.604,41.452 226.267,41.689 225.9,41.897C225.374,42.194 225.045,42.426 224.915,42.59C224.46,43.169 224.547,43.74 225.174,44.311C226.278,45.317 227.48,45.467 228.773,44.767C229.446,44.402 229.86,43.628 229.306,42.913C228.955,42.461 228.472,42.012 227.855,41.56Z" style="fill:white;fill-opacity:0.75;"/>
    <path d="M199.796,44.529C199.748,42.762 197.569,41.388 194.927,41.456C192.285,41.525 190.178,43.014 190.226,44.78C190.273,46.547 192.453,47.921 195.095,47.853C197.737,47.784 199.843,46.294 199.796,44.529Z" style="fill:white;fill-opacity:0.5;"/>
    <path d="M220.184,42.04C220.09,42.149 219.964,42.226 219.81,42.265C218.923,42.92 218.909,43.876 219.746,44.574C220.928,45.558 222.203,45.61 223.559,44.714C223.664,44.644 223.751,44.546 223.808,44.43C224.069,43.893 224.092,43.463 223.878,43.134C223.054,41.865 221.821,41.501 220.184,42.04Z" style="fill:white;fill-opacity:0.75;"/>
    <path d="M213.351,49.932C213.483,48.849 213.951,47.104 212.952,46.308C212.023,45.569 210.969,45.058 209.788,44.781C209.146,44.63 208.372,44.647 207.468,44.833C205.012,45.338 202.17,46.214 203.004,49.452C203.449,51.179 205.761,52.035 207.373,52.132C209.115,52.238 210.812,51.843 212.454,50.941C213.008,50.637 213.307,50.3 213.351,49.932Z" style="fill:white;fill-opacity:0.5;"/>
    <path d="M219.249,47.622C219.098,48.604 220.027,49.564 221.329,49.763C222.63,49.963 223.808,49.332 223.958,48.351C224.109,47.37 223.18,46.41 221.879,46.21C220.577,46.011 219.4,46.641 219.249,47.622Z" style="fill:white;fill-opacity:0.75;"/>
    <path d="M225.269,47.595C225.153,48.547 226.135,49.448 227.457,49.607C228.78,49.767 229.947,49.126 230.063,48.175C230.178,47.223 229.197,46.323 227.874,46.163C226.551,46.004 225.384,46.645 225.269,47.595Z" style="fill:white;fill-opacity:0.75;"/>
    <path d="M209.385,70.893C209.346,75.224 211.011,78.673 214.375,81.234C217.371,83.515 220.654,84.491 224.225,84.149C225.245,84.052 226.002,83.737 226.492,83.207C227.373,82.255 228.152,80.747 228.752,79.219C232.493,69.693 234.898,59.823 235.964,49.609C236.082,48.47 236.02,47.254 235.774,45.965C234.439,49.168 233.49,52.276 232.926,55.286C232.446,57.841 231.944,61.25 231.429,65.522C230.97,69.334 229.25,72.659 226.268,75.498C223.717,77.926 219.501,77.877 216.565,76.36C215.391,75.753 214.623,75.319 214.255,75.053C212.639,73.88 211.018,72.491 209.385,70.893Z" style="fill:white;fill-opacity:0.5;"/>
    <path d="M159.472,58.65C159.433,59.319 159.618,60.143 160.029,61.127C160.431,62.091 160.887,62.779 161.403,63.188C162.869,64.35 164.651,65.006 166.746,65.164C168.467,65.294 169.606,65.301 170.163,65.178C174.056,64.32 176.922,62.031 179.947,58.892C181.712,57.059 182.763,55.955 183.1,55.58C184.199,54.359 185.424,53.732 186.773,53.692C191.91,53.539 197.39,54.274 202.1,56.432C204.381,57.477 205.944,58.317 206.792,58.951C207.724,59.649 208.768,60.391 209.928,61.18L209.795,58.695C209.784,58.531 209.738,58.366 209.658,58.222C209.336,57.642 208.926,57.195 208.421,56.887C203.555,53.917 198.235,51.941 192.456,50.962C187.509,50.123 182.25,50.473 178.04,53.313C177.126,53.93 175.671,54.956 173.678,56.39C172.479,57.252 170.703,58.186 168.344,59.19C167.066,59.734 165.772,60.09 164.462,60.255C162.741,60.472 161.077,59.936 159.472,58.65Z" style="fill:white;fill-opacity:0.5;"/>
    <path d="M35.665,83.515C34.896,86.925 37.108,90.327 40.604,91.115C44.102,91.904 47.558,89.777 48.327,86.368C49.096,82.958 46.884,79.556 43.387,78.768C39.89,77.979 36.434,80.106 35.665,83.515Z" style="fill:white;fill-opacity:0.25;"/>
    <path d="M278.672,89.602C271.478,85.895 263.964,85.09 256.13,87.163C255.293,87.385 254.683,87.661 254.294,87.987C252.258,94.262 249.205,99.953 245.088,105.02C245.057,105.059 245.06,105.115 245.099,105.146L248.4,108.104C248.494,108.188 248.638,108.171 248.708,108.069C252.131,103.061 256.434,98.978 261.677,95.867C266.894,92.772 272.561,90.685 278.672,89.602Z" style="fill:white;fill-opacity:0.95;"/>
    <path d="M294.549,112.771L294.381,111.37L284.976,107.42C283.62,106.965 281.826,106.46 279.601,105.907C270.708,103.697 260.445,104.651 255.019,113.08C254.974,113.15 254.879,113.167 254.812,113.115L249.7,109.204C249.584,109.116 249.556,108.952 249.637,108.833C253.142,103.672 257.626,99.55 263.054,96.453C268.356,93.432 273.889,91.711 279.884,90.548C279.646,90.562 279.489,90.513 279.415,90.397C279.286,90.197 279.212,90.089 279.194,90.078C278.991,89.928 278.816,89.767 278.672,89.602C272.561,90.685 266.894,92.772 261.677,95.867C256.434,98.978 252.131,103.061 248.708,108.069C248.638,108.171 248.494,108.188 248.4,108.104L245.099,105.146C245.06,105.115 245.057,105.059 245.088,105.02C249.205,99.953 252.258,94.262 254.294,87.987L252.934,88.488C250.961,94.213 248.093,99.436 244.275,104.109C244.227,104.169 244.135,104.175 244.079,104.123C242.418,102.581 240.911,100.84 239.583,98.877C239.408,99.501 239.166,99.848 238.862,99.922C240.218,101.796 241.681,103.498 243.277,104.996C243.326,105.041 243.33,105.119 243.284,105.171C240.679,108.135 237.649,110.865 234.25,113.413C234.362,113.686 234.373,114.159 234.278,114.832C237.845,112.305 241.064,109.383 243.988,106.117C244.089,106.004 244.265,105.994 244.377,106.096L247.801,109.166C247.892,109.25 247.913,109.386 247.843,109.491C247.371,110.197 246.872,111.026 246.353,111.979C242.619,118.841 240.814,126.578 241.616,134.318C241.679,134.924 241.903,135.962 241.91,136.82L243.448,138.257C242.099,131.799 242.394,125.663 244.331,119.857C245.47,116.444 246.962,113.238 248.764,110.217C248.81,110.14 248.915,110.119 248.988,110.175L254.164,114.134C254.231,114.187 254.251,114.281 254.21,114.355C251.818,118.658 251.76,123.729 253.54,128.375C255.295,132.955 258.171,137.028 261.775,140.962C261.797,140.986 261.815,141.035 261.831,141.113C261.842,141.165 261.859,141.214 261.891,141.267L267.627,146.614L269.228,146.478C267.595,145.135 265.835,143.515 263.941,141.617C263.612,141.288 263.404,140.955 263.32,140.619C263.212,140.689 263.113,140.679 263.026,140.591C260.001,137.515 257.577,134.104 255.674,130.436C253.186,125.638 252.715,120.133 255.117,115.21C255.191,115.059 255.383,115.011 255.52,115.109C262.533,120.123 269.849,124.671 277.442,128.803C278.273,129.192 279.552,129.846 281.279,130.761C283.547,131.963 286.195,133.046 289.233,134.013L289.847,133.032C285.912,131.771 282.201,130.103 278.693,128.07C278.529,127.975 278.367,127.846 278.206,127.688C277.971,127.667 277.73,127.59 277.484,127.454C270.028,123.326 262.895,118.782 255.99,113.942C255.934,113.903 255.919,113.826 255.958,113.766C258.644,109.698 262.475,107.274 267.336,106.425C268.583,106.207 270.055,106.127 271.755,106.183C276.317,106.334 280.718,107.165 284.955,108.668C288.203,109.751 291.403,111.121 294.549,112.771Z" style="fill:white;fill-opacity:0.15;"/>
    <path d="M252.934,88.488C252.776,88.4 252.598,88.4 252.401,88.488C247.175,90.808 242.895,94.259 239.583,98.877C240.911,100.84 242.418,102.581 244.079,104.123C244.135,104.175 244.227,104.169 244.275,104.109C248.093,99.436 250.961,94.213 252.934,88.488Z" style="fill:white;fill-opacity:0.95;"/>
    <path d="M281.472,91.393C280.946,90.856 280.417,90.573 279.884,90.548C273.889,91.711 268.356,93.432 263.054,96.453C257.626,99.55 253.142,103.672 249.637,108.833C249.556,108.952 249.584,109.116 249.7,109.204L254.812,113.115C254.879,113.167 254.974,113.15 255.019,113.08C260.445,104.651 270.708,103.697 279.601,105.907C281.826,106.46 283.62,106.965 284.976,107.42C284.78,101.873 283.613,96.533 281.472,91.393Z" style="fill:white;fill-opacity:0.95;"/>
    <path d="M294.381,111.37C293.148,104.554 290.061,98.845 285.123,94.245C284.104,93.295 283.129,92.468 282.194,91.767C281.959,91.526 281.717,91.403 281.472,91.393C283.613,96.533 284.78,101.873 284.976,107.42L294.381,111.37Z" style="fill:white;fill-opacity:0.5;"/>
    <path d="M238.862,99.922C237.523,102.297 236.471,104.463 235.708,106.422C234.898,108.5 234.411,110.83 234.25,113.413C237.649,110.865 240.679,108.135 243.284,105.171C243.33,105.119 243.326,105.041 243.277,104.996C241.681,103.498 240.218,101.796 238.862,99.922Z" style="fill:white;fill-opacity:0.95;"/>
    <path d="M234.278,114.832L234.159,114.881C234.054,114.926 233.983,115.031 233.98,115.151C233.775,122.772 236.018,129.57 240.684,135.52C241.044,135.98 241.451,136.41 241.91,136.82C241.903,135.962 241.679,134.924 241.616,134.318C240.814,126.578 242.619,118.841 246.353,111.979C246.872,111.026 247.371,110.197 247.843,109.491C247.913,109.386 247.892,109.25 247.801,109.166L244.377,106.096C244.265,105.994 244.089,106.004 243.988,106.117C241.064,109.383 237.845,112.305 234.278,114.832Z" style="fill:white;fill-opacity:0.95;"/>
    <path d="M284.955,108.668C284.839,110.36 284.631,111.993 284.328,113.574C283.873,115.945 283.628,117.225 283.588,117.411C283.31,118.719 282.893,119.951 282.362,121.108C281.318,123.38 279.933,125.575 278.206,127.688C277.971,127.667 277.73,127.59 277.484,127.454C270.028,123.326 262.895,118.782 255.99,113.942C255.934,113.903 255.919,113.826 255.958,113.766C258.644,109.698 262.475,107.274 267.336,106.425C268.583,106.207 270.055,106.127 271.755,106.183C276.317,106.334 280.718,107.165 284.955,108.668Z" style="fill:white;fill-opacity:0.95;"/>
    <path d="M293.684,124.643C294.052,123.203 294.293,122.103 294.416,121.339C294.892,118.385 294.938,115.529 294.549,112.771C291.403,111.121 288.203,109.751 284.955,108.668C284.839,110.36 284.631,111.993 284.328,113.574C283.873,115.945 283.628,117.225 283.588,117.411C283.31,118.719 282.893,119.951 282.362,121.108C281.318,123.38 279.933,125.575 278.206,127.688C278.367,127.846 278.529,127.975 278.693,128.07C282.201,130.103 285.912,131.771 289.847,133.032C290.747,131.634 291.382,130.555 291.753,129.787C292.388,128.474 293.032,126.76 293.684,124.643Z" style="fill:white;fill-opacity:0.5;"/>
    <path d="M243.448,138.257C245.908,140.948 249.094,143.04 253.001,144.529L261.891,141.267C261.859,141.214 261.842,141.165 261.831,141.113C261.815,141.035 261.797,140.986 261.775,140.962C258.171,137.028 255.295,132.955 253.54,128.375C251.76,123.729 251.818,118.658 254.21,114.355C254.251,114.281 254.231,114.187 254.164,114.134L248.988,110.175C248.915,110.119 248.81,110.14 248.764,110.217C246.962,113.238 245.47,116.444 244.331,119.857C242.394,125.663 242.099,131.799 243.448,138.257Z" style="fill:white;fill-opacity:0.95;"/>
    <path d="M277.442,128.803C269.849,124.671 262.533,120.123 255.52,115.109C255.383,115.011 255.191,115.059 255.117,115.21C252.715,120.133 253.186,125.638 255.674,130.436C257.577,134.104 260.001,137.515 263.026,140.591C263.113,140.679 263.212,140.689 263.32,140.619C265.3,139.732 267.392,138.375 269.6,136.547C272.203,134.391 274.274,132.826 275.998,130.576C276.457,129.977 276.941,129.388 277.442,128.803Z" style="fill:white;fill-opacity:0.95;"/>
    <path d="M269.228,146.478C277.537,145.023 284.205,140.871 289.233,134.013C286.195,133.046 283.547,131.963 281.279,130.761C279.552,129.846 278.273,129.192 277.442,128.803C276.941,129.388 276.457,129.977 275.998,130.576C274.274,132.826 272.203,134.391 269.6,136.547C267.392,138.375 265.3,139.732 263.32,140.619C263.404,140.955 263.612,141.288 263.941,141.617C265.835,143.515 267.595,145.135 269.228,146.478Z" style="fill:white;fill-opacity:0.5;"/>
    <path d="M214.378,194.274C214.171,194.326 214.01,194.403 213.902,194.498C213.845,194.547 213.821,194.617 213.831,194.691C213.831,194.691 213.596,194.468 213.019,193.678C211.44,191.52 210.356,190.037 209.749,189.238C208.99,188.239 207.98,187.716 206.718,187.669C205.45,187.621 204.612,187.68 203.519,188.376C202.902,188.769 202.443,189.08 202.138,189.312C201.945,189.459 201.889,189.726 202.005,189.939C202.658,191.139 203.656,190.837 204.805,190.864C204.942,190.868 205.048,190.98 205.043,191.117C205.035,191.352 205.112,191.598 205.278,191.853C205.441,192.102 205.204,192.417 204.92,192.329C203.486,191.883 202.235,191.916 201.168,192.445C201.09,192.483 201.021,192.53 200.957,192.588C200.551,192.964 200.149,193.222 199.875,193.5C199.201,194.181 198.732,194.727 198.296,195.356C196.222,194.143 193.599,191.663 193.539,191.583C193.076,190.958 192.707,190.115 192.425,189.067C191.624,186.093 191.33,183.289 191.528,180.664C191.581,179.956 191.591,179.486 191.556,179.255L191.973,175.933C191.983,175.846 191.985,175.758 191.976,175.67C191.866,174.621 192.043,173.708 192.456,172.941C193.048,174.728 194.176,175.833 195.841,176.256C197.351,176.639 198.946,176.809 200.631,176.771C203.2,177.072 204.265,177.443 205.807,179.36C206.525,180.254 207.044,180.801 207.359,181C212.153,184.021 215.917,177.339 217.605,173.992C219.067,171.094 220.353,168.016 221.379,164.731C221.415,164.615 221.421,164.489 221.397,164.373C221.153,163.214 220.888,161.668 220.591,159.741C219.836,154.839 215.556,154.128 211.424,153.997C210.292,153.962 208.6,153.517 206.347,152.662C204.22,152.319 202.152,151.583 200.148,150.451C198.532,149.435 196.935,148.411 195.354,147.378C193.943,146.456 193,145.654 192.533,144.978C191.645,143.691 191.821,136.526 192.043,135.457C192.217,134.619 192.518,133.843 192.936,133.123C192.989,133.032 193.105,132.997 193.199,133.043L194.541,133.68C194.566,133.691 194.59,133.698 194.618,133.701C194.937,133.739 196.038,133.981 197.926,134.434C199.006,134.693 200.109,134.87 201.241,134.963C202.499,135.066 205.891,135.359 211.421,135.849C212.363,135.933 214.578,136.192 218.064,136.627C221.061,137.002 228.552,139 229.134,139.126C229.604,139.228 230.136,139.407 230.732,139.669C235.216,141.644 238.5,143.514 240.757,147.63C240.874,147.843 241.279,148.89 241.952,150.767C241.991,150.875 242.018,150.991 242.029,151.106C242.254,153.462 242.354,154.835 242.642,156.752C243.19,160.393 243.546,163.522 243.704,166.132C243.882,169.062 243.633,171.991 242.961,174.924C242.432,177.237 241.399,179.9 239.85,181.719C239.587,182.027 239.352,182.39 239.142,182.798C239.031,183.013 238.879,183.205 238.693,183.362C237.587,184.299 236.819,184.928 236.391,185.251C235.277,186.092 232.775,187.507 231.124,188.913L229.418,190.363C227.431,191.236 225.732,192.164 224.316,193.149C221.096,194.369 217.784,194.743 214.378,194.274ZM193.332,182.206C192.828,182.287 192.468,182.738 192.491,183.257C192.555,184.683 195.775,186.295 196.931,186.645C200.13,187.616 203.831,186.631 205.008,183.306C205.208,182.742 205.393,182.073 204.906,181.638C203.827,180.675 201.893,182.434 201.287,182.647C199.374,183.321 198.043,182.818 195.207,182.286C194.471,182.148 193.848,182.122 193.332,182.206ZM219.715,183.267C219.694,183.324 219.743,183.383 219.803,183.376C221.87,183.13 223.279,182.93 224.032,182.791C225.248,182.566 226.008,182.332 226.32,182.083C230.708,178.589 231.684,169.999 224.82,168.441C224.67,168.407 224.523,168.494 224.481,168.641C223.065,173.596 221.493,178.476 219.715,183.267Z" style="fill:white;fill-opacity:0.25;"/>
    <path d="M68.081,161.51C68.814,161.102 73.192,159.658 73.988,157.992C74.559,157.232 74.114,156.07 74.434,155.175C75.104,153.296 83.025,150.577 79.648,144.624C77.87,141.491 69.914,150.484 65.621,142.227C65.621,142.227 65.905,139.931 63.654,139.206C60.543,138.206 55.137,139.842 54.502,139.206L52.54,137.248C52.405,137.109 52.231,137.008 52.053,136.932C45.625,134.206 42.153,140.436 42.125,140.45L41.298,140.878C41.182,140.938 38.065,139.548 37.398,139.504C23.712,138.614 28.706,150.328 27.941,150.679C27.261,150.991 19.362,148.327 16.605,153.374C15.56,155.285 17.291,161.685 19.212,163.606L20.326,164.72C21.459,165.853 16.863,164.063 16.083,170.194C15.481,174.92 18.254,176.332 18.224,176.371L17.085,177.864C15.786,179.504 19.267,186.078 22.029,186.078L23.704,186.078C23.715,186.078 23.725,186.074 23.736,186.071L24.836,185.64C26.262,185.069 24.604,187.357 27.306,189.158C29.441,190.581 29.472,189.176 31.956,188.461C33.401,188.045 32.134,189.373 32.85,190.703L33.558,192.073C33.586,192.129 34.664,192.543 34.823,192.543L36.957,192.543L38.688,192.168L39.455,191.789L39.844,191.418C40.103,191.198 40.354,190.96 40.596,190.707C42.006,189.219 42.746,187.422 42.819,185.314C42.861,184.108 41.414,183.379 40.598,182.836C39.452,182.075 38.597,180.986 38.026,179.567C36.705,176.287 39.088,174.186 42.125,173.431C44.719,172.787 47.63,172.185 48.692,169.566C49.223,168.256 48.942,165.67 48.699,164.18C48.423,162.484 48.724,160.491 49.901,159.212C50.465,158.598 51.278,158.151 52.34,157.866C52.368,157.858 52.397,157.851 52.426,157.843C53.255,157.474 54.481,157.377 56.265,157.729C58.318,158.3 60.6,159.337 63.112,160.844C63.762,161.124 64.24,161.348 64.638,161.514C65.72,161.823 66.868,161.822 68.081,161.51Z" style="fill:white;fill-opacity:0.25;"/>
    <path d="M253.001,144.529C257.062,146.288 261.33,147.071 265.801,146.859C266.309,146.835 266.919,146.754 267.627,146.614L261.891,141.267L253.001,144.529Z" style="fill:white;fill-opacity:0.5;"/>
    <path d="M194.803,161.261C194.902,161.233 195.002,161.203 195.103,161.171C197.137,160.527 198.62,159.477 198.414,158.821C198.286,158.412 197.533,158.254 196.492,158.348C196.325,158.348 196.149,158.363 195.964,158.392C195.957,157.785 198.855,152.116 200.148,150.451C202.152,151.583 204.22,152.319 206.347,152.662C202.878,157.088 200.022,161.964 197.769,167.285C196.946,169.227 196.35,170.944 195.978,172.436C195.716,173.488 196.132,174.116 197.236,174.325C197.916,174.453 198.803,174.25 199.482,174.546C200.243,174.877 200.624,175.618 200.631,176.771C198.946,176.809 197.351,176.639 195.841,176.256C194.176,175.833 193.048,174.728 192.456,172.941C192.755,172.075 194.31,163.231 194.803,161.261ZM195.257,164.251C194.821,164.157 194.288,164.895 194.069,165.9C193.85,166.906 194.026,167.799 194.463,167.894C194.899,167.989 195.432,167.25 195.651,166.245C195.87,165.239 195.694,164.346 195.257,164.251Z" style="fill:white;fill-opacity:0.75;"/>
    <path d="M200.631,176.771C203.2,177.072 204.265,177.443 205.807,179.36C206.525,180.254 207.044,180.801 207.359,181C212.153,184.021 215.917,177.339 217.605,173.992C219.067,171.094 220.353,168.016 221.379,164.731C221.415,164.615 221.421,164.489 221.397,164.373C221.153,163.214 220.888,161.668 220.591,159.741C219.836,154.839 215.556,154.128 211.424,153.997C210.292,153.962 208.6,153.517 206.347,152.662C202.878,157.088 200.022,161.964 197.769,167.285C196.946,169.227 196.35,170.944 195.978,172.436C195.716,173.488 196.132,174.116 197.236,174.325C197.916,174.453 198.803,174.25 199.482,174.546C200.243,174.877 200.624,175.618 200.631,176.771ZM201.647,160.18C201.402,160.823 202.822,161.958 204.819,162.715C206.813,163.472 208.628,163.567 208.874,162.925C209.119,162.281 207.699,161.147 205.702,160.389C203.708,159.633 201.892,159.537 201.647,160.18ZM202.884,165.046C202.376,164.938 201.775,165.775 201.535,166.91C201.294,168.046 201.511,169.054 202.017,169.16C202.524,169.267 203.126,168.431 203.366,167.296C203.606,166.16 203.389,165.152 202.884,165.046Z" style="fill:white;fill-opacity:0.95;"/>
    <path d="M52.426,157.843C53.701,157.515 54.979,157.476 56.265,157.729C58.406,160.263 60.305,162.81 61.959,165.379C61.981,165.413 62.005,165.444 62.031,165.473C62.101,165.564 62.217,165.719 62.369,165.93C61.701,165.869 60.91,165.94 60.092,166.161C58.09,166.701 56.681,167.933 56.948,168.915C57.214,169.896 59.05,170.252 61.05,169.713C62.278,169.382 63.283,168.79 63.815,168.155C63.911,168.318 64.008,168.486 64.106,168.659L64.117,168.68C65.838,171.504 67.093,174.509 67.926,177.671C68.215,178.768 68.697,180.832 66.928,180.797C66.448,180.787 65.82,180.757 65.046,180.709C64.524,180.677 64.03,180.955 63.788,181.417C63.14,182.655 63.154,183.94 63.826,185.275L62.47,185.493C62.358,185.51 62.253,185.566 62.173,185.65C60.223,187.681 63.322,190.122 65.165,190.763C66.003,193.149 65.756,195.464 64.429,197.711C63.956,198.514 63.949,199.16 62.737,199.173C62.705,199.173 62.674,199.176 62.646,199.183C62.632,199.187 62.621,199.201 62.621,199.218C62.625,199.232 62.635,199.246 62.653,199.246L63.052,199.257L60.543,199.348C59.075,199.422 57.589,199.409 56.082,199.302C52.55,199.053 50.234,197.921 46.947,195.854C44.589,194.372 42.223,192.893 39.844,191.418C40.113,191.189 40.364,190.952 40.596,190.707C42.006,189.219 42.746,187.422 42.819,185.314C42.861,184.108 41.414,183.379 40.598,182.836C39.452,182.075 38.597,180.986 38.026,179.567C36.705,176.287 39.088,174.186 42.125,173.431C44.719,172.787 47.63,172.185 48.692,169.566C49.223,168.256 48.942,165.67 48.699,164.18C48.423,162.484 48.724,160.491 49.901,159.212C50.465,158.598 51.278,158.151 52.34,157.866L52.426,157.843ZM62.43,171.457C61.952,171.511 61.661,172.443 61.786,173.539C61.91,174.637 62.397,175.481 62.875,175.427C63.353,175.372 63.644,174.441 63.52,173.345C63.395,172.247 62.908,171.403 62.43,171.457Z" style="fill:white;fill-opacity:0.95;"/>
    <path d="M63.112,160.844C63.605,161.141 64.114,161.364 64.638,161.514C65.72,161.823 66.868,161.822 68.081,161.51C68.832,162.249 69.43,163.867 69.9,165.943C69.19,165.88 68.625,166.046 68.363,166.458C67.818,167.315 68.791,168.913 70.537,170.028L70.611,170.074C70.671,170.532 70.728,170.996 70.78,171.464C70.753,171.457 70.725,171.454 70.697,171.455C70.316,171.462 70.019,172.174 70.036,173.045C70.052,173.918 70.373,174.618 70.753,174.611C70.866,174.609 70.971,174.545 71.063,174.434C71.535,180.38 71.479,186.127 71.206,186.432L71.105,186.341C71.042,186.285 70.964,186.252 70.884,186.242C69.025,186.014 67.176,185.732 65.344,185.345C65.032,185.28 64.527,185.258 63.826,185.275C63.154,183.94 63.14,182.655 63.788,181.417C64.03,180.955 64.524,180.677 65.046,180.709C65.82,180.757 66.448,180.787 66.928,180.797C68.697,180.832 68.215,178.768 67.926,177.671C67.093,174.509 65.838,171.504 64.117,168.68L64.106,168.659C64.008,168.486 63.911,168.318 63.815,168.155C64.15,167.755 64.297,167.338 64.194,166.959C64.037,166.38 63.332,166.018 62.369,165.93C62.217,165.719 62.101,165.564 62.031,165.473C62.005,165.444 61.981,165.413 61.959,165.379C60.305,162.81 58.406,160.263 56.265,157.729C58.318,158.3 60.6,159.337 63.112,160.844Z" style="fill:white;fill-opacity:0.75;"/>
    <path d="M201.647,160.18C201.402,160.823 202.822,161.958 204.819,162.715C206.813,163.472 208.628,163.567 208.874,162.925C209.119,162.281 207.699,161.147 205.702,160.389C203.708,159.633 201.892,159.537 201.647,160.18Z" style="fill:white;fill-opacity:0.15;"/>
    <path d="M195.257,164.251C194.821,164.157 194.288,164.895 194.069,165.9C193.85,166.906 194.026,167.799 194.463,167.894C194.899,167.989 195.432,167.25 195.651,166.245C195.87,165.239 195.694,164.346 195.257,164.251Z" style="fill:white;fill-opacity:0.15;"/>
    <path d="M202.884,165.046C202.376,164.938 201.775,165.775 201.535,166.91C201.294,168.046 201.511,169.054 202.017,169.16C202.524,169.267 203.126,168.431 203.366,167.296C203.606,166.16 203.389,165.152 202.884,165.046Z" style="fill:white;fill-opacity:0.15;"/>
    <path d="M219.715,183.267C219.694,183.324 219.743,183.383 219.803,183.376C221.87,183.13 223.279,182.93 224.032,182.791C225.248,182.566 226.008,182.332 226.32,182.083C230.708,178.589 231.684,169.999 224.82,168.441C224.67,168.407 224.523,168.494 224.481,168.641C223.065,173.596 221.493,178.476 219.715,183.267Z" style="fill:white;fill-opacity:0.95;"/>
    <path d="M62.43,171.457C61.952,171.511 61.661,172.443 61.786,173.539C61.91,174.637 62.397,175.481 62.875,175.427C63.353,175.372 63.644,174.441 63.52,173.345C63.395,172.247 62.908,171.403 62.43,171.457Z" style="fill:white;fill-opacity:0.15;"/>
    <path d="M69.9,165.943C69.19,165.88 68.625,166.046 68.363,166.458C67.818,167.315 68.791,168.913 70.537,170.028C70.562,170.043 70.586,170.059 70.611,170.074C70.416,168.594 70.181,167.186 69.9,165.943Z" style="fill:white;fill-opacity:0.15;"/>
    <path d="M70.78,171.464C70.753,171.457 70.725,171.454 70.697,171.455C70.316,171.462 70.019,172.174 70.036,173.045C70.052,173.918 70.373,174.618 70.753,174.611C70.866,174.609 70.971,174.545 71.063,174.434C70.984,173.441 70.89,172.443 70.78,171.464Z" style="fill:white;fill-opacity:0.15;"/>
    <path d="M193.332,182.206C192.828,182.287 192.468,182.738 192.491,183.257C192.555,184.683 195.775,186.295 196.931,186.645C200.13,187.616 203.831,186.631 205.008,183.306C205.208,182.742 205.393,182.073 204.906,181.638C203.827,180.675 201.893,182.434 201.287,182.647C199.374,183.321 198.043,182.818 195.207,182.286C194.471,182.148 193.848,182.122 193.332,182.206Z" style="fill:white;fill-opacity:0.95;"/>
    <path d="M70.681,190.002C70.607,189.571 71.339,187.073 71.206,186.432L71.105,186.341C71.042,186.285 70.964,186.252 70.884,186.242C69.025,186.014 67.176,185.732 65.344,185.345C65.032,185.28 64.527,185.258 63.826,185.275L62.47,185.493C62.358,185.51 62.253,185.566 62.173,185.65C60.223,187.681 63.322,190.122 65.165,190.763C67.082,191.523 68.918,191.267 70.681,190.002Z" style="fill:white;fill-opacity:0.15;"/>
    <path d="M213.831,194.691L215.531,205.238C215.531,205.242 215.531,205.242 215.534,205.245L215.846,208.406C215.815,208.599 215.884,208.959 216.053,209.489C216.242,210.08 216.666,211.984 217.332,215.204C217.854,217.731 219.038,222.114 220.885,228.355C221.173,229.326 221.771,231.68 222.672,235.423C222.694,235.511 222.731,235.595 222.785,235.672C226.348,240.747 231.122,244.895 236.899,248.276C237.246,248.479 237.477,248.823 237.593,249.303C237.823,250.256 235.838,252.103 235.021,252.821C232.53,255.012 230.922,256.322 230.206,256.77C230.101,256.836 230.147,256.998 230.269,256.998L231.881,256.998C232.459,256.998 232.983,257.344 233.206,257.881C234.281,260.468 234.813,263.292 234.765,266.343C234.763,266.512 234.727,266.677 234.664,266.831C234.201,267.95 233.283,268.74 232.656,269.567C231.513,271.074 230.318,271.384 228.556,271.656C226.93,271.906 226.595,270.907 226.166,269.655C226.11,269.49 225.92,269.416 225.767,269.497C223.916,270.474 221.971,271.416 219.915,272.311C217.72,273.266 216.304,273.482 214.217,272.101C213.671,271.739 213.053,271.602 212.363,271.691C208.813,272.147 205.544,272.528 202.548,272.816C200.575,273.005 198.588,273.11 196.591,273.131C193.003,273.169 191.016,273.169 190.631,273.134C189.772,273.059 188.914,272.994 188.052,272.931L187.768,272.791C187.6,272.71 187.421,272.659 187.232,272.64C183.509,272.284 180.213,271.39 177.339,269.995C174.389,268.562 172.869,266.031 172.728,262.398C172.719,262.159 172.683,261.949 172.623,261.771C172.585,261.658 172.564,261.536 172.563,261.417C172.555,259.213 172.546,257.874 172.567,257.408C172.897,249.99 174.099,242.738 176.159,235.644C176.243,235.353 176.604,234.932 176.33,234.568C176.404,234.284 176.584,234.106 176.863,234.018C176.926,233.998 176.996,233.992 177.066,234.004C179.556,234.412 182.242,234.936 185.14,235.472C185.879,235.609 186.668,235.629 187.498,235.518C187.645,235.498 187.779,235.602 187.799,235.752C187.941,236.824 188.011,238.84 188.038,241.793C188.054,243.647 188.163,245.645 188.363,247.782C188.654,250.883 188.871,253.835 189.064,256.634C189.077,256.819 189.208,256.973 189.387,257.015C194.552,258.247 199.465,259.293 204.129,260.113C205.299,260.319 206.364,260.489 207.321,260.621C208.239,260.748 209.308,260.722 210.334,260.989C210.482,261.028 210.598,260.863 210.51,260.737C207.967,257.117 206.918,252.691 206.291,248.248C205.783,244.656 205.555,241.082 205.6,237.529C205.622,235.843 205.538,234.151 205.351,232.444C204.761,227.041 204.341,219.567 203.403,212.73C203.308,212.04 203.332,211.333 202.804,210.806C200.742,208.748 199.097,207.095 197.856,205.859C197.187,205.192 196.221,203.976 195.95,203.062C195.574,201.797 195.642,200.455 196.16,199.029C196.185,199.017 196.287,198.92 196.387,198.728C197.219,197.139 197.729,196.177 198.296,195.356C198.732,194.727 199.201,194.181 199.875,193.5C200.149,193.222 200.551,192.964 200.957,192.588C201.021,192.53 201.09,192.483 201.168,192.445C202.235,191.916 203.486,191.883 204.92,192.329C205.204,192.417 205.441,192.102 205.278,191.853C205.112,191.598 205.035,191.352 205.043,191.117C205.048,190.98 204.942,190.868 204.805,190.864C203.656,190.837 202.658,191.139 202.005,189.939C201.889,189.726 201.945,189.459 202.138,189.312C202.443,189.08 202.902,188.769 203.519,188.376C204.612,187.68 205.45,187.621 206.718,187.669C207.98,187.716 208.99,188.239 209.749,189.238C210.356,190.037 211.44,191.52 213.019,193.678C213.596,194.468 213.831,194.691 213.831,194.691Z" style="fill:white;fill-opacity:0.75;"/>
    <path d="M63.052,199.257C64.678,199.082 66.125,198.555 67.369,197.648C67.464,197.579 67.552,197.498 67.625,197.41C68.757,196.054 69.59,194.53 70.137,192.844C70.274,192.424 70.453,191.478 70.681,190.002C68.918,191.267 67.082,191.523 65.165,190.763C66.003,193.149 65.756,195.464 64.429,197.711C63.956,198.514 63.949,199.16 62.737,199.173C62.705,199.173 62.674,199.176 62.646,199.183C62.632,199.187 62.621,199.201 62.621,199.218C62.625,199.232 62.635,199.246 62.653,199.246L63.052,199.257Z" style="fill:white;fill-opacity:0.75;"/>
    <path d="M59.261,207.838C58.809,206.91 58.68,205.911 58.872,204.849C58.96,204.359 59.04,203.868 59.12,203.374C59.349,201.962 59.821,200.62 60.543,199.348C59.075,199.422 57.589,199.409 56.082,199.302C52.55,199.053 50.234,197.921 46.947,195.854C44.589,194.372 42.223,192.893 39.844,191.418L39.455,191.789C39.893,192.305 40.58,192.835 41.523,193.384C42.71,194.075 44.151,195.234 45.85,196.856C48.247,199.145 50.629,201.43 53.1,203.637C55.192,205.505 56.878,207.316 58.164,209.072C58.49,209.517 59.641,209.478 59.59,208.697C59.574,208.452 59.464,208.164 59.261,207.838Z" style="fill:white;fill-opacity:0.75;"/>
    <path d="M38.688,192.168L40.1,196.58C40.139,196.699 40.159,196.828 40.156,196.955C40.133,197.866 40.23,198.717 40.026,199.593C39.122,203.49 36.844,205.69 33.873,208.707C33.652,208.932 33.379,209.103 33.081,209.202C32.524,209.386 30.856,210 28.077,211.034C27.39,211.29 26.893,211.497 26.588,211.658C25.256,212.362 24.204,212.778 23.038,213.606C20.98,215.069 18.95,217.303 17.884,219.686C17.176,221.267 16.777,222.199 16.685,222.482C16.487,223.096 16.221,224.216 15.89,225.839C15.668,226.929 15.56,228.071 15.568,229.266C15.58,231.225 15.576,235.045 15.571,240.725C15.571,241.082 15.434,241.363 15.522,241.583C15.571,241.706 15.593,241.92 15.589,242.225C15.56,244.082 15.54,245.813 15.568,247.421C15.57,247.582 15.645,247.73 15.767,247.828L17.33,249.04C18.175,249.706 18.77,250.095 19.117,250.203C19.997,250.48 20.575,250.704 20.845,250.869C20.89,250.897 20.936,250.918 20.988,250.932C24.498,251.901 28.082,252.028 31.774,251.244C32.275,251.138 32.917,250.705 33.319,250.768C33.432,250.785 33.516,250.88 33.519,250.995C33.584,253.073 33.857,255.456 34.336,258.144C35.056,262.191 35.685,265.555 36.228,268.236C36.673,270.436 37.79,273.261 38.145,275.258C39.2,281.198 40.934,286.857 43.317,292.243C43.408,292.449 43.597,292.592 43.821,292.624C44.453,292.716 44.666,292.831 44.459,292.961C47.504,293.434 49.484,293.63 50.392,293.543C51.849,293.402 53.419,293.549 54.695,293.283C56.758,292.854 58.238,292.425 59.124,291.99C61.23,290.957 62.705,290.333 64.482,289.103C68.375,286.408 71.885,283.332 75.05,279.918C75.151,279.809 75.166,279.648 75.092,279.519C74.761,278.94 74.486,278.331 74.272,277.686C72.929,273.632 72.277,269.469 72.321,265.205C72.344,262.853 72.359,260.835 72.366,259.149C72.37,258.238 72.58,257.415 72.475,256.732C72.402,256.259 72.42,255.656 72.527,254.931C72.748,253.435 72.427,252.253 72.597,250.876C72.781,249.394 72.445,247.575 72.531,246.195C72.614,244.853 72.719,244.018 72.461,243.265C72.363,242.981 72.636,242.711 72.92,242.813C73.193,242.911 73.403,242.985 73.55,243.03C73.985,243.164 74.391,242.897 74.924,243.118C74.914,243.016 74.925,242.926 74.956,242.838C74.977,242.775 75.022,242.718 75.078,242.68C76.894,241.439 78.58,239.856 80.128,237.918C82.277,235.227 84.045,232.553 85.429,229.897L87.006,226.621C87.132,226.358 87.076,226.042 86.866,225.836C85.489,224.48 84.255,223.057 83.166,221.564C81.41,219.157 79.773,216.806 78.264,214.507C76.546,211.89 74.202,209.924 71.476,208.732C70.747,208.413 69.633,208.168 68.137,207.996C66.115,207.764 64.724,207.623 63.963,207.572C62.565,207.478 60.995,207.569 59.261,207.838C59.464,208.164 59.574,208.452 59.59,208.697C59.641,209.478 58.49,209.517 58.164,209.072C56.878,207.316 55.192,205.505 53.1,203.637C50.629,201.43 48.247,199.145 45.85,196.856C44.151,195.234 42.71,194.075 41.523,193.384C40.58,192.835 39.893,192.305 39.455,191.789L38.688,192.168Z" style="fill:white;fill-opacity:0.95;"/>
    <path d="M223.065,201.072C222.438,198.374 222.855,195.732 224.316,193.149C221.096,194.369 217.784,194.743 214.378,194.274C214.171,194.326 214.01,194.403 213.902,194.498C213.845,194.547 213.821,194.617 213.831,194.691L215.531,205.238C215.531,205.242 215.531,205.242 215.534,205.245L215.846,208.406C216.025,208.459 216.158,208.451 216.239,208.385C218.495,206.53 220.827,204.664 223.265,202.828C223.387,202.736 223.44,202.579 223.405,202.432L223.065,201.072Z" style="fill:white;fill-opacity:0.95;"/>
    <path d="M196.16,199.029C194.016,199.187 192.646,199.32 192.05,199.436C188.844,200.055 186.236,201.706 184.232,204.401C181.853,207.6 180.078,210.352 178.906,212.653C177.376,215.657 176.069,218.248 174.995,220.425C174.672,221.08 174.407,221.866 174.102,222.479C172.339,226.016 170.989,228.663 170.103,230.447C170.043,230.569 170.009,230.703 169.998,230.843L169.949,231.709C169.942,231.831 169.995,231.954 170.096,232.027C170.665,232.443 171.074,232.707 171.33,232.816C172.7,233.398 174.364,233.983 176.33,234.568C176.404,234.284 176.584,234.106 176.863,234.018C176.926,233.998 176.996,233.992 177.066,234.004C179.556,234.412 182.242,234.936 185.14,235.472C185.879,235.609 186.668,235.629 187.498,235.518C187.645,235.498 187.779,235.602 187.799,235.752C187.941,236.824 188.011,238.84 188.038,241.793C188.054,243.647 188.163,245.645 188.363,247.782C188.654,250.883 188.871,253.835 189.064,256.634C189.077,256.819 189.208,256.973 189.387,257.015C194.552,258.247 199.465,259.293 204.129,260.113C205.299,260.319 206.364,260.489 207.321,260.621C208.239,260.748 209.308,260.722 210.334,260.989C210.482,261.028 210.598,260.863 210.51,260.737C207.967,257.117 206.918,252.691 206.291,248.248C205.783,244.656 205.555,241.082 205.6,237.529C205.622,235.843 205.538,234.151 205.351,232.444C204.761,227.041 204.341,219.567 203.403,212.73C203.308,212.04 203.332,211.333 202.804,210.806C200.742,208.748 199.097,207.095 197.856,205.859C197.187,205.192 196.221,203.976 195.95,203.062C195.574,201.797 195.642,200.455 196.16,199.029Z" style="fill:white;fill-opacity:0.5;"/>
    <path d="M188.052,272.931C188.609,275.121 188.783,276.992 188.581,278.545C188.317,280.567 188.157,282.862 188.875,284.856C189.015,285.245 189.296,285.571 189.663,285.763C190.659,286.285 191.724,286.692 192.856,286.986C196.188,287.852 199.181,288.424 201.826,288.7C204.146,288.942 207.864,289.111 212.976,289.208C218.625,289.315 223.993,288.352 229.085,286.317C230.812,285.627 233.16,284.372 234.425,283.77C236.058,282.992 235.951,280.798 235.645,279.277C235.142,276.778 234.926,273.961 235.007,270.832C235.038,269.627 235.158,268.576 235.371,267.679C235.729,266.175 236.012,265.152 236.219,264.609C237.222,261.983 237.867,260.126 238.634,258.256C238.91,257.583 239.127,256.886 239.289,256.16C239.313,256.052 239.349,255.947 239.394,255.845C239.952,254.589 240.457,253.325 240.894,252.043C240.937,251.917 241.028,251.767 241.164,251.588C241.227,251.504 241.263,251.402 241.265,251.297C241.275,250.929 241.493,250.58 241.935,250.266C242.025,250.202 242.149,250.214 242.225,250.291C242.567,250.636 242.944,250.603 243.357,250.182C243.561,249.976 243.697,249.671 243.764,249.261C243.904,248.402 244.309,247.624 244.5,246.899C244.747,245.959 244.871,245.49 244.875,245.487C246.879,239.148 248.699,232.745 249.56,226.13C249.888,223.607 250.018,221.277 249.945,219.143C249.805,215.057 248.406,208.604 244.626,206.451C243.255,205.67 241.65,204.987 239.818,204.401C236.177,203.236 232.299,202.331 228.174,201.703C227.435,201.59 226.775,201.67 226.163,201.429C225.977,201.356 225.774,201.325 225.574,201.335C224.652,201.382 223.815,201.293 223.065,201.072L223.405,202.432C223.44,202.579 223.387,202.736 223.265,202.828C220.827,204.664 218.495,206.53 216.239,208.385C216.158,208.451 216.025,208.459 215.846,208.406C215.815,208.599 215.884,208.959 216.053,209.489C216.242,210.08 216.666,211.984 217.332,215.204C217.854,217.731 219.038,222.114 220.885,228.355C221.173,229.326 221.771,231.68 222.672,235.423C222.694,235.511 222.731,235.595 222.785,235.672C226.348,240.747 231.122,244.895 236.899,248.276C237.246,248.479 237.477,248.823 237.593,249.303C237.823,250.256 235.838,252.103 235.021,252.821C232.53,255.012 230.922,256.322 230.206,256.77C230.101,256.836 230.147,256.998 230.269,256.998L231.881,256.998C232.459,256.998 232.983,257.344 233.206,257.881C234.281,260.468 234.813,263.292 234.765,266.343C234.763,266.512 234.727,266.677 234.664,266.831C234.201,267.95 233.283,268.74 232.656,269.567C231.513,271.074 230.318,271.384 228.556,271.656C226.93,271.906 226.595,270.907 226.166,269.655C226.11,269.49 225.92,269.416 225.767,269.497C223.916,270.474 221.971,271.416 219.915,272.311C217.72,273.266 216.304,273.482 214.217,272.101C213.671,271.739 213.053,271.602 212.363,271.691C208.813,272.147 205.544,272.528 202.548,272.816C200.575,273.005 198.588,273.11 196.591,273.131C193.003,273.169 191.016,273.169 190.631,273.134C189.772,273.059 188.914,272.994 188.052,272.931Z" style="fill:white;fill-opacity:0.5;"/>
    <path d="M74.924,243.118C75.481,243.49 76.021,243.886 76.536,244.309C76.911,244.618 78.531,245.541 81.386,247.088C82.91,247.914 84.606,248.431 86.064,248.637C95.661,249.992 105.53,248.512 114.174,243.987C116.904,242.558 119.143,241.251 120.891,240.066C121.939,239.355 122.969,238.996 123.978,238.994C126.193,238.988 128.026,238.961 129.48,238.899C131.166,238.828 133.026,238.324 135.062,237.389C140.076,235.086 144.637,230.563 145.97,225.058C146.367,223.421 146.118,221.725 144.881,220.702C144.741,220.586 144.562,220.523 144.38,220.523L142.428,220.523C142.389,220.523 142.35,220.533 142.316,220.551C140.811,221.369 139.376,222.149 137.921,222.742C137.182,223.043 136.547,223.359 136.001,223.677C135.862,223.759 135.71,223.821 135.556,223.859C134.439,224.137 133.327,224.266 132.227,224.248C130.507,224.221 131.462,222.873 131.877,222.153C131.961,222.006 132.063,221.873 132.185,221.753C133.089,220.87 133.784,219.858 134.27,218.726C134.428,218.358 134.116,217.959 133.72,218.028C132.82,218.187 131.954,218.544 131.123,219.101C127.471,221.546 125.199,224.818 122.363,228.93C121.378,230.359 120.614,230.754 118.947,231.165C114.11,232.357 109.142,233.17 104.036,233.601C101.752,233.794 99.446,233.873 97.119,233.843C96.278,233.832 93.966,233.83 90.178,233.832C90.027,233.832 89.876,233.799 89.736,233.734C89.063,233.422 88.527,232.991 88.114,232.455C87.668,231.877 86.919,231.787 86.537,231.022C86.486,230.921 86.408,230.835 86.309,230.773C85.961,230.555 85.664,230.265 85.429,229.897C84.045,232.553 82.277,235.227 80.128,237.918C78.58,239.856 76.894,241.439 75.078,242.68C75.022,242.718 74.977,242.775 74.956,242.838C74.925,242.926 74.914,243.016 74.924,243.118Z" style="fill:white;fill-opacity:0.75;"/>
    <path d="M17.33,249.04C17.229,249.695 17.203,250.267 17.25,250.75C17.913,257.693 18.969,264.36 21.185,270.934C22.32,274.301 23.99,277.841 26.196,281.551C27.789,284.233 29.563,286.44 31.511,288.174C33.95,290.344 36.302,291.916 38.565,292.887C40.426,293.686 42.392,293.711 44.459,292.961C44.666,292.831 44.453,292.716 43.821,292.624C43.597,292.592 43.408,292.449 43.317,292.243C40.934,286.857 39.2,281.198 38.145,275.258C37.79,273.261 36.673,270.436 36.228,268.236C35.685,265.555 35.056,262.191 34.336,258.144C33.857,255.456 33.584,253.073 33.519,250.995C33.516,250.88 33.432,250.785 33.319,250.768C32.917,250.705 32.275,251.138 31.774,251.244C28.082,252.028 24.498,251.901 20.988,250.932C20.936,250.918 20.89,250.897 20.845,250.869C20.575,250.704 19.997,250.48 19.117,250.203C18.77,250.095 18.175,249.706 17.33,249.04Z" style="fill:white;fill-opacity:0.75;"/>
    <path d="M64.194,166.959C63.928,165.978 62.092,165.621 60.092,166.161C58.09,166.701 56.681,167.933 56.948,168.915C57.214,169.896 59.05,170.252 61.05,169.713C63.052,169.173 64.461,167.94 64.194,166.959Z" style="fill:white;fill-opacity:0.15;"/>
    <path d="M191.043,161.148C191.249,161.805 193.067,161.815 195.103,161.171C197.137,160.527 198.62,159.477 198.414,158.821C198.208,158.164 196.39,158.154 194.354,158.798C192.32,159.442 190.836,160.492 191.043,161.148Z" style="fill:white;fill-opacity:0.15;"/>
</svg>
