<?xml version="1.0" encoding="UTF-8" standalone="no"?>
<!DOCTYPE svg PUBLIC "-//W3C//DTD SVG 1.1//EN" "http://www.w3.org/Graphics/SVG/1.1/DTD/svg11.dtd">
<svg width="100%" height="100%" viewBox="0 0 300 300" version="1.1" xmlns="http://www.w3.org/2000/svg" xmlns:xlink="http://www.w3.org/1999/xlink" xml:space="preserve" xmlns:serif="http://www.serif.com/" style="fill-rule:evenodd;clip-rule:evenodd;stroke-linejoin:round;stroke-miterlimit:2;">
    <path d="M250.604,120.323C253.104,120.122 254.03,118.16 255.165,116.059C255.457,115.518 255.858,115.357 256.368,115.577C258.438,116.469 262.004,118.277 263.883,116.121C264.027,115.957 264.297,116.072 264.275,116.289C264.192,117.11 263.943,118.003 263.532,118.963C263.063,120.061 263.128,121.023 263.746,121.83C263.811,121.914 263.886,121.986 263.97,122.048C264.851,122.689 265.853,123.118 266.952,123.369C267.098,123.402 267.176,123.565 267.104,123.699C266.286,125.239 267.045,126.257 268.563,126.432C270.45,126.649 270.457,128.82 270.279,130.38C270.127,131.708 269.578,132.878 268.684,133.934C268.655,133.968 268.622,133.996 268.584,134.018L267.282,134.836C267.045,134.985 266.872,135.215 266.797,135.483C266.172,137.707 265.2,139.788 263.893,141.735C263.323,142.584 262.689,143.184 261.996,143.536L259.275,145.065C259.235,145.087 259.198,145.115 259.16,145.146C256.974,146.984 255.743,149.353 255.47,152.248C255.407,152.891 255.488,153.442 255.709,153.899C255.771,154.026 255.902,154.11 256.048,154.117C258.576,154.213 260.942,154.533 263.146,155.08C263.324,155.124 263.51,155.115 263.678,155.049C266.769,153.846 273.531,150.448 273.438,150.202L275.31,150.97C276.507,151.576 277.308,152.034 277.716,152.338C279.073,153.348 280.692,154.253 281.805,155.323C283.208,156.672 284.386,158.233 285.34,160.002L285.906,162.067C285.931,162.16 285.919,162.26 285.872,162.344C284.762,164.253 283.826,166.096 282.881,167.517C281.572,169.479 280.676,170.723 280.188,171.255C279.056,172.492 278.447,173.176 278.36,173.304C278.338,173.341 276.569,176.13 273.056,181.668C271.162,184.653 269.393,188.505 267.748,193.225C267.07,195.171 266.601,197.441 266.591,199.353C266.588,200.177 266.567,200.712 266.523,200.964C266.284,202.332 266.582,203.84 266.862,205.096C267.981,210.149 269.757,214.974 272.185,219.573C272.232,219.663 272.235,219.769 272.191,219.859C271.087,222.141 268.684,224.305 266.489,225.536C261.427,228.378 255.83,229.507 249.997,229.668C247.836,229.731 244.674,229.616 242.019,229.311C237.793,228.826 233.988,228.288 230.602,227.7C230.44,227.672 230.291,227.604 230.163,227.501C229.143,226.677 228.609,225.645 228.556,224.405C228.55,224.249 228.565,224.094 228.606,223.941C229.374,220.997 229.874,219.256 230.104,218.718C231.926,214.452 233.363,209.934 232.906,205.289C232.61,202.276 231.898,199.316 230.763,196.415C229.672,193.623 228.752,191.645 228.086,189.226C227.878,188.461 227.66,187.659 227.44,186.823C227.589,186.515 227.607,179.659 227.604,177.016C227.604,176.948 227.53,176.907 227.474,176.942C226.916,178.775 215.051,186.289 212.476,185.588C211.697,185.376 211.103,185.917 211.209,186.711C211.335,187.656 214.34,218.89 215.12,226.619C215.234,227.745 215.3,228.372 215.304,228.335C215.998,235.157 165.195,232.466 163.669,226.861C163.63,226.719 163.442,226.677 163.401,226.537C163.103,225.567 162.723,219.029 162.723,217.763C162.723,214.38 162.444,205.547 162.44,205.065C162.425,197.27 162.459,192.693 162.543,191.337C162.907,185.402 163.118,182.143 163.177,181.565C163.311,180.265 163.662,172.601 163.812,170.353C163.877,169.377 163.892,168.326 163.864,167.197C163.861,167.095 163.824,166.995 163.756,166.917C161.246,164.075 159.216,161.143 157.668,158.121C157.441,157.683 156.918,156.716 156.101,155.227C156.045,155.124 156.026,155.003 156.048,154.888C156.272,153.743 156.791,152.848 156.107,151.607C156.074,151.548 153.668,148.036 150.752,143.15C148.119,138.739 145.071,133.208 142.976,128.086C141.073,123.43 139.956,119.112 140.654,116.276C141.304,113.634 141.94,111.113 142.552,108.734C144.793,100.015 146.713,93.183 147.861,89.11C148.575,86.578 148.99,85.112 148.999,84.923C149.095,82.799 149.164,81.64 149.204,81.45C150.025,77.461 151.151,73.81 153.246,70.658C153.591,70.142 154.223,69.498 155.143,68.724C155.202,68.674 155.277,68.646 155.354,68.646L156.918,68.646C157.117,68.646 157.307,68.73 157.444,68.876C157.898,69.364 158.535,69.694 159.107,70.269C159.838,71.003 161.023,72.184 162.667,73.81C163.351,74.488 163.858,75.129 164.191,75.732C164.754,76.758 165.086,77.507 165.189,77.98C165.643,80.057 164.583,81.263 163.016,82.348C162.204,82.911 161.312,83.151 160.429,83.707C160.239,83.829 159.872,83.996 159.328,84.211C158.902,84.382 157.979,84.774 156.564,85.392C156.269,85.52 155.92,85.803 155.522,86.241C155.457,86.313 155.42,86.409 155.42,86.509C155.473,89.758 152.653,107.397 154.938,118.448C155.36,120.49 155.582,124.246 156.946,126.98C159.305,131.711 164.172,137.932 165.876,140.616C166.389,141.428 166.716,142.426 167.409,142.976C167.462,143.02 167.521,143.054 167.586,143.076C167.732,143.131 167.885,143.091 168.037,142.957C168.385,142.653 168.64,142.706 169.026,142.451C169.122,142.388 169.24,142.376 169.346,142.419C170.195,142.752 171.212,143.159 171.986,143.629C174.315,145.037 183.366,149.344 183.366,149.344L185.894,150.236C186.012,150.277 186.133,150.293 186.257,150.28C190.88,149.798 195.144,148.06 199.055,145.125C198.561,146.847 198.691,148.237 199.447,149.297C199.86,149.879 200.373,150.376 200.986,150.79C201.145,150.895 201.344,150.923 201.524,150.864L205.92,149.431C205.998,149.406 206.076,149.39 206.154,149.384C208.072,149.247 209.555,149.487 211.327,149.645C212.431,149.745 213.376,150.14 214.166,150.833C216.228,152.643 218.286,155.009 220.341,157.928C221.516,156.029 222.916,154.404 224.539,153.056C225.13,152.565 225.782,152.176 226.494,151.89C226.51,151.884 226.522,151.878 226.538,151.869L230.571,149.484C230.76,151.987 232.079,153.373 234.526,153.638C236.164,153.815 237.42,153.703 238.294,153.302C238.788,153.075 239.214,152.932 239.572,152.873C240.331,153.255 241.005,153.588 241.593,153.865C242.006,154.061 242.383,154.471 242.837,154.468C243.001,154.465 243.468,154.409 244.233,154.3C244.348,154.284 244.453,154.235 244.537,154.16C244.624,154.085 244.802,153.821 245.066,153.37C245.34,152.903 245.56,152.454 245.727,152.022C247.017,151.11 248.155,150.06 248.613,149.569C250.227,147.839 251.418,144.037 252.055,140.91C253.38,140.581 254.552,139.829 255.162,138.527C255.308,138.213 255.364,137.936 255.33,137.69C255.292,137.417 254.944,137.326 254.776,137.547C254.013,138.565 253.206,139.117 252.324,139.43C252.558,137.96 252.637,136.794 252.543,136.316C251.734,132.206 248.93,136.107 247.905,134.678C246.835,133.186 249.481,123.866 250.604,120.323ZM254.004,126.779C253.567,126.802 253.25,127.622 253.297,128.613C253.346,129.603 253.741,130.39 254.18,130.369C254.618,130.346 254.935,129.525 254.887,128.535C254.838,127.545 254.444,126.758 254.004,126.779ZM252.317,122.492C252.276,122.657 252.373,122.819 252.534,122.856C254.229,123.223 255.905,123.804 257.562,124.6C257.861,124.743 258.144,124.787 258.414,124.731C258.722,124.666 258.834,124.28 258.607,124.059C257.105,122.607 254.695,121.566 252.603,122.184C252.454,122.231 252.357,122.334 252.317,122.492Z" style="fill:white;fill-opacity:0.95;"/>
    <path d="M245.727,152.022C246.739,149.406 245.798,147.428 242.908,146.085C241.459,145.457 240.259,144.36 239.305,142.789C238.505,141.474 237.987,140.075 237.744,138.592C237.359,136.244 237.801,133.71 237.887,131.276C238.003,127.983 237.845,125.004 237.395,122.337C237.374,122.209 237.464,122.091 237.594,122.079C240.537,121.791 243.412,120.594 243.888,117.381C243.901,117.291 244.021,117.272 244.062,117.353C245.177,119.595 247.516,120.208 249.845,120.331C250.113,120.345 250.366,120.342 250.604,120.323C249.481,123.866 246.835,133.186 247.905,134.678C248.93,136.107 251.734,132.206 252.543,136.316C252.637,136.794 252.558,137.96 252.324,139.43C251.084,139.87 249.695,139.838 248.07,139.963C247.852,139.979 247.715,140.072 247.659,140.24C247.594,140.436 247.7,140.647 247.899,140.716C249.144,141.138 250.681,141.251 252.055,140.91C251.418,144.037 250.227,147.839 248.613,149.569C248.155,150.06 247.017,151.11 245.727,152.022ZM240.377,124.153C240.421,124.311 240.586,124.407 240.741,124.361C242.373,123.86 244.093,123.556 245.899,123.444C246.226,123.422 246.49,123.322 246.695,123.145C246.932,122.943 246.841,122.557 246.54,122.477C244.55,121.951 241.978,122.212 240.477,123.751C240.371,123.86 240.337,123.994 240.377,124.153ZM245.76,127.583C245.33,127.598 245.01,128.403 245.045,129.378C245.078,130.356 245.455,131.133 245.883,131.119C246.313,131.105 246.633,130.3 246.598,129.324C246.565,128.347 246.188,127.57 245.76,127.583Z" style="fill:white;fill-opacity:0.75;"/>
    <path d="M62.981,148.109C63.547,147.323 64.082,146.508 64.586,145.662C65.273,144.509 65.78,143.676 66.103,143.166C68.525,139.363 70.21,136.742 71.152,135.302C72.256,133.617 73.447,131.661 74.731,129.435C74.958,129.037 75.117,128.602 75.198,128.148C75.431,126.839 75.543,126.087 75.54,125.891C75.533,125.368 75.596,124.949 75.723,124.631C75.748,124.569 75.764,124.507 75.77,124.442C76.221,119.159 76.193,113.861 75.692,108.55C75.611,107.701 75.568,106.837 75.428,105.904C75.285,104.956 75.229,104.278 75.26,103.868C75.291,103.476 75.21,102.033 75.02,99.537C74.912,98.119 74.905,95.438 74.996,91.499C74.999,91.387 74.958,91.275 74.887,91.188C74.523,90.747 74.147,90.448 73.755,90.296C71.743,89.503 69.763,88.583 67.813,87.535C65.898,86.506 64.614,84.817 65.397,82.52C65.864,81.155 66.672,79.902 67.857,78.714C69.756,76.802 71.28,75.141 73.083,73.86C73.177,73.792 73.282,73.742 73.394,73.714C74.193,73.515 74.803,73.552 75.219,73.823C76.242,74.491 77.088,75.433 77.76,76.655C79.212,79.295 80.204,82.006 80.738,84.792C80.757,84.898 80.785,85.001 80.819,85.1C81.397,86.77 81.314,87.992 81.314,89.951C81.314,89.997 81.32,90.047 81.329,90.094C81.329,90.094 85.921,106.7 86.397,107.723C86.453,107.788 86.441,107.86 86.363,107.932C85.404,108.81 84.839,109.356 84.672,109.576C83.48,111.143 82.684,112.813 82.284,114.585C82.15,115.179 82.086,115.68 82.088,116.087C82.09,116.572 82.045,117.079 81.96,117.604C81.871,118.161 81.847,118.92 81.898,119.877C82.077,123.245 82.626,126.504 83.54,129.65C83.887,130.844 84.382,131.823 84.777,132.868C84.923,133.253 85.206,133.794 85.626,134.488C85.94,135.007 86.257,135.532 86.574,136.061C86.04,136.817 85.657,137.594 85.424,138.393C85.402,138.477 85.368,138.558 85.328,138.635C82.762,143.483 79.889,148.144 76.712,152.618C76.025,153.585 75.055,155.27 73.798,157.674C72.738,155.584 71.249,153.696 69.33,152.015C68.656,151.424 67.738,151.042 67.054,150.547C65.727,149.587 64.368,148.772 62.981,148.109Z" style="fill:white;fill-opacity:0.75;"/>
    <path d="M142.552,108.734C142.068,103.976 141.654,98.645 141.742,94.021C141.745,93.899 141.699,93.781 141.618,93.691C141.139,93.156 140.561,92.783 139.886,92.569C139.693,92.51 139.429,92.407 139.09,92.267C137.311,91.524 135.803,90.84 134.569,90.209C133.335,89.578 132.47,88.744 131.979,87.709C131.621,86.953 131.606,86.104 131.939,85.162C132.448,83.71 133.111,82.544 134.286,81.338C135.191,80.408 136.36,79.202 137.796,77.716C138.095,77.405 138.39,77.15 138.679,76.951C139.081,76.674 139.401,76.41 139.646,76.158C139.678,76.124 139.721,76.105 139.768,76.105L141.531,76.105C141.583,76.105 141.636,76.124 141.68,76.158C142.74,77.001 143.393,77.613 143.636,77.996C145.392,80.766 146.521,83.62 147.196,85.965C147.258,86.179 147.311,86.586 147.357,87.183L147.367,87.23L147.867,88.99C147.87,89.015 147.868,89.055 147.861,89.11C146.713,93.183 144.793,100.015 142.552,108.734Z" style="fill:white;fill-opacity:0.75;"/>
    <path d="M230.571,149.484L226.538,151.869C226.522,151.878 226.51,151.884 226.494,151.89C225.782,152.176 225.13,152.565 224.539,153.056C222.916,154.404 221.516,156.029 220.341,157.928C219.62,156.539 218.895,155.195 218.171,153.905C217.68,153.025 216.815,151.589 215.581,149.589C213.69,146.527 211.934,143.52 210.587,140.349C209.928,138.791 209.241,136.922 209.089,136.608C208.594,135.585 208.29,134.478 208.178,133.284C209.406,133.12 210.271,132.894 210.771,132.61C213.042,131.315 215.42,128.023 213.268,125.518C213.212,125.452 213.237,125.35 213.317,125.319C214.048,125.036 214.505,124.628 214.695,124.103C215.23,122.617 215.379,121.09 215.142,119.526C214.938,118.176 213.902,116.222 212.409,116.271C212.322,116.273 212.273,116.168 212.335,116.103C213.527,114.848 214.542,113.388 215.382,111.725C216.374,109.76 216.548,107.506 214.903,105.858C214.549,105.503 213.654,104.839 212.816,104.501C213.356,103.106 214.841,98.409 215.416,96.726C215.867,95.401 216.081,94.021 216.053,92.581C216.05,92.289 216.088,91.997 216.169,91.714C216.629,90.106 216.974,88.486 217.667,86.77C218.211,85.424 218.858,84.111 219.604,82.83C220.77,80.828 222.841,78.39 225.204,80.816C226.986,82.644 227.981,83.664 228.192,83.872C229.498,85.165 230.474,86.677 231.124,88.408C231.889,90.451 230.527,92.152 228.764,93.01C227.038,93.853 225.248,94.608 223.388,95.28C222.86,95.473 222.462,95.746 222.054,96.06C221.908,96.172 221.821,96.343 221.818,96.527C221.764,98.798 220.866,106.369 220.371,114.411L220.279,114.458C219.188,115.297 218.429,116.423 218.006,117.838C217.711,118.823 217.549,119.473 217.524,119.787C217.475,120.394 217.533,121.059 217.701,121.783C217.972,122.949 218.382,123.926 218.936,124.706C219.15,125.008 220.058,126.243 220.087,126.251C220.148,128.236 220.284,130.077 220.521,131.677L220.686,134.077C220.689,134.127 220.698,134.177 220.714,134.223C221.124,135.429 221.933,136.198 223.124,136.534L223.889,137.501C223.979,137.759 224.019,137.933 224.004,138.017C223.617,140.203 223.762,142.018 224.29,144.279C224.477,145.078 224.941,145.954 225.683,146.909C226.738,148.267 228.131,148.805 229.871,148.56C229.964,148.547 230.061,148.582 230.123,148.657C230.333,148.913 230.48,149.188 230.571,149.484Z" style="fill:white;fill-opacity:0.75;"/>
    <path d="M281.398,141.115C283.014,138.649 284.744,136.14 286.637,133.567C286.767,133.359 286.861,133.126 286.907,132.88C287.532,129.631 287.837,126.416 287.821,123.235C288.027,120.142 287.937,117.079 287.548,114.047C287.141,108.783 287.019,103.61 287.181,98.526C287.184,98.395 287.141,98.271 287.057,98.172C286.755,97.814 286.45,97.571 286.142,97.438C283.82,96.437 281.942,95.544 280.508,94.758C279.259,94.07 278.133,92.901 278.037,91.44C277.999,90.859 278.214,90.112 278.683,89.208C279.681,87.277 280.813,86.366 282.8,84.453C283.985,83.319 284.905,82.501 285.564,82C285.695,81.901 285.856,81.845 286.021,81.845L287.159,81.845C287.374,81.845 287.585,81.916 287.756,82.05C288.785,82.843 289.591,83.835 290.166,85.022C291.036,86.81 291.689,88.461 292.122,89.979C292.383,90.89 292.706,92.224 293.092,93.974C293.132,94.161 293.157,94.35 293.163,94.543C293.197,95.874 293.095,96.897 293.375,98.184C293.766,99.969 294.167,101.548 294.581,102.919C294.895,103.955 295.019,104.819 295.343,105.91C296.689,110.45 298.813,118.938 299.012,119.737C299.292,120.847 300.32,128.904 299.901,131.696C299.611,133.63 299.116,135.157 298.402,137.628C298.054,138.837 297.258,140.389 296.73,141.524C296.375,142.289 296.133,142.789 296.005,143.029C294.488,145.849 292.737,148.725 290.75,151.651C288.782,154.552 287.116,157.052 285.757,159.147C285.608,159.377 285.518,159.707 285.34,160.002C284.386,158.233 283.208,156.672 281.805,155.323C280.692,154.253 279.073,153.348 277.716,152.338C277.308,152.034 276.507,151.576 275.31,150.97C276.099,149.629 276.902,148.283 277.729,146.928C278.897,145.012 280.112,143.077 281.398,141.115Z" style="fill:white;fill-opacity:0.75;"/>
    <path d="M86.397,107.723C86.494,107.723 86.556,107.711 86.59,107.689C87.75,106.902 88.617,106.374 89.192,106.103C91.064,105.223 92.868,104.561 94.603,104.11C95.246,103.942 96.083,103.843 97.112,103.812C97.454,103.802 97.727,103.778 97.936,103.74C98.237,103.687 98.657,103.631 99.198,103.572C99.31,103.56 99.422,103.529 99.528,103.482C100.818,102.926 101.751,102.105 102.332,101.02C102.509,100.684 102.643,100.059 102.73,99.142C102.739,99.036 102.733,98.93 102.711,98.824C102.478,97.758 101.956,96.322 101.148,94.521C100.768,93.676 100.516,92.721 100.395,91.661C100.289,90.737 100.488,89.795 100.989,88.828C102.233,86.434 104.891,85.125 107.515,84.951C109.235,84.839 110.432,84.823 111.113,84.901C111.296,84.923 111.834,85.032 112.733,85.225C114.315,85.57 115.774,86.397 116.946,87.541C117.142,87.731 117.334,88.107 117.524,88.67C117.645,89.021 117.698,89.438 117.683,89.916C117.63,91.493 117.431,92.992 117.086,94.412C116.902,95.171 116.703,96.489 116.697,96.567C116.308,101.949 120.91,103.961 124.172,107.126C124.66,107.599 125.163,108.171 125.599,108.895C127.216,111.576 128.142,114.517 128.375,117.719C128.425,118.413 128.475,119.29 128.521,120.35C128.556,121.093 128.397,123.975 128.431,124.718C128.484,125.888 128.211,126.858 127.614,127.629C127.443,125.996 126.758,125.11 125.565,124.967C125.129,124.915 124.837,124.837 124.691,124.734C124.426,124.548 124.254,124.299 124.178,123.985C123.207,119.996 121.769,116.107 119.825,112.328C119.305,111.318 118.604,110.339 117.487,111.305C114.998,113.456 112.474,115.309 109.919,116.874C108.578,117.694 106.999,118.441 105.18,119.112C103.218,119.622 101.676,119.896 100.554,119.933C98.222,120.011 96.086,120.14 94.142,120.316C93.415,120.382 92.752,120.508 92.159,120.695C92.04,120.732 91.963,120.844 91.972,120.969C92.095,122.719 92.067,124.526 91.91,126.391C91.81,127.579 91.377,128.714 91.291,129.768C91.078,132.373 91.155,134.942 91.515,137.47C91.59,137.995 91.776,138.604 92.072,139.292C90.141,139.046 88.508,138.169 87.181,136.655C86.972,136.415 86.77,136.22 86.574,136.061C86.257,135.532 85.94,135.007 85.626,134.488C85.206,133.794 84.923,133.253 84.777,132.868C84.382,131.823 83.887,130.844 83.54,129.65C82.626,126.504 82.077,123.245 81.898,119.877C81.847,118.92 81.871,118.161 81.96,117.604C82.045,117.079 82.09,116.572 82.088,116.087C82.086,115.68 82.15,115.179 82.284,114.585C82.684,112.813 83.48,111.143 84.672,109.576C84.839,109.356 85.404,108.81 86.363,107.932C86.441,107.86 86.453,107.788 86.397,107.723Z" style="fill:white;fill-opacity:0.25;"/>
    <path d="M217.701,121.783C217.533,121.059 217.475,120.394 217.524,119.787C217.549,119.473 217.711,118.823 218.006,117.838C218.429,116.423 219.188,115.297 220.279,114.458L222.291,113.441C222.427,113.37 222.465,113.192 222.365,113.071L222.089,112.735C222.033,112.667 221.995,112.583 221.983,112.496C221.862,111.566 221.905,110.798 222.11,110.192C222.654,108.584 223.342,107.073 224.172,105.659C224.884,104.443 225.733,103.538 226.989,102.804C228.338,102.018 230.306,101.169 231.028,101.278C231.155,101.296 231.255,101.396 231.276,101.523C231.314,101.75 231.388,101.896 231.503,101.962C231.606,102.021 231.737,101.987 231.796,101.887C232.66,100.441 233.742,99.03 235.042,97.652C235.8,96.85 236.338,96.502 237.42,95.678C238.717,94.692 240.004,94.22 241.288,94.263C242.591,94.307 243.514,94.932 244.052,96.138C244.087,96.21 244.124,96.256 244.164,96.281C244.332,96.384 244.547,96.259 244.544,96.063C244.513,94.546 244.876,93.169 245.635,91.931C246.474,90.56 247.504,90.989 249.17,91.35C251.033,91.754 253.25,92.317 255.821,93.041C256.032,93.1 256.256,93.054 256.424,92.917L257.354,92.146C257.435,92.08 257.534,92.046 257.637,92.053L259.331,92.127C259.434,92.133 259.53,92.168 259.611,92.227C261.094,93.318 262.155,94.002 262.792,94.276C263.23,94.465 263.603,94.301 263.908,93.784C264.356,93.023 264.841,92.506 265.363,92.23C266.728,91.508 268.709,92.105 269.906,92.92C272.017,94.353 273.758,96.234 275.129,98.56C275.434,99.079 275.633,99.711 276.031,100.189C276.109,100.283 276.258,100.252 276.292,100.133C276.389,99.801 276.591,99.533 276.896,99.331C276.983,99.275 277.091,99.263 277.188,99.3C278.917,99.962 280.512,101.048 281.926,102.123C282.178,102.313 282.427,102.608 282.673,103.006C283.888,104.968 284.731,107.058 285.194,109.281C285.399,110.267 285.284,110.879 284.805,111.591C284.638,111.837 284.746,112.173 285.023,112.278C285.881,112.602 286.724,113.192 287.548,114.047C287.937,117.079 288.027,120.142 287.821,123.235L284.442,126.861C284.33,126.979 284.311,127.156 284.392,127.299C285.166,128.645 285.486,130.172 285.356,131.876C285.269,132.995 284.809,133.903 283.978,134.6C283.608,134.911 283.251,135.082 282.906,135.113C282.427,135.153 282.041,135.078 281.752,134.883C281.531,134.736 281.236,134.904 281.255,135.169C281.292,135.716 281.597,136.117 281.659,136.708C281.809,138.157 281.721,139.626 281.398,141.115C280.112,143.077 278.897,145.012 277.729,146.928C277.376,147.103 276.938,147.225 276.504,147.268C275.695,147.349 274.903,147.158 274.716,146.53C274.66,146.342 274.34,146.595 274.34,146.791C274.343,147.503 274.45,148.021 274.337,148.277C272.43,152.591 266.383,151.206 264.804,150.152C262.649,148.719 261.576,146.266 262.428,143.732C262.456,143.648 262.397,143.561 262.307,143.554L261.996,143.536C262.689,143.184 263.323,142.584 263.893,141.735C265.2,139.788 266.172,137.707 266.797,135.483C266.872,135.215 267.045,134.985 267.282,134.836L268.584,134.018C268.622,133.996 268.655,133.968 268.684,133.934C269.578,132.878 270.127,131.708 270.279,130.38C270.457,128.82 270.45,126.649 268.563,126.432C267.045,126.257 266.286,125.239 267.104,123.699C267.176,123.565 267.098,123.402 266.952,123.369C265.853,123.118 264.851,122.689 263.97,122.048C263.886,121.986 263.811,121.914 263.746,121.83C263.128,121.023 263.063,120.061 263.532,118.963C263.943,118.003 264.192,117.11 264.275,116.289C264.297,116.072 264.027,115.957 263.883,116.121C262.004,118.277 258.438,116.469 256.368,115.577C255.858,115.357 255.457,115.518 255.165,116.059C253.921,118.36 252.929,120.494 249.845,120.331C247.516,120.208 245.177,119.595 244.062,117.353C244.021,117.272 243.901,117.291 243.888,117.381C243.412,120.594 240.537,121.791 237.594,122.079C237.464,122.091 237.374,122.209 237.395,122.337C237.845,125.004 238.003,127.983 237.887,131.276C237.801,133.71 237.359,136.244 237.744,138.592C237.987,140.075 238.505,141.474 239.305,142.789C240.259,144.36 241.459,145.457 242.908,146.085L242.806,149.145C242.802,149.226 242.787,149.31 242.753,149.384C242.125,150.802 241.064,151.965 239.572,152.873C239.214,152.932 238.788,153.075 238.294,153.302C237.42,153.703 236.164,153.815 234.526,153.638C232.079,153.373 230.76,151.987 230.571,149.484C230.48,149.188 230.333,148.913 230.123,148.657C230.061,148.582 229.964,148.547 229.871,148.56C228.131,148.805 226.738,148.267 225.683,146.909C224.941,145.954 224.477,145.078 224.29,144.279C223.762,142.018 223.617,140.203 224.004,138.017C224.019,137.933 223.979,137.759 223.889,137.501C224.309,137.56 224.448,137.255 224.309,136.593C224.287,136.499 224.215,136.425 224.122,136.4C223.677,136.282 223.345,136.325 223.124,136.534C221.933,136.198 221.124,135.429 220.714,134.223C220.698,134.177 220.689,134.127 220.686,134.077L220.521,131.677L221.893,128.568C221.921,128.509 221.908,128.44 221.868,128.387L220.12,126.273C220.111,126.262 220.1,126.255 220.087,126.251C220.058,126.243 219.15,125.008 218.936,124.706C218.382,123.926 217.972,122.949 217.701,121.783Z" style="fill:white;fill-opacity:0.4;"/>
    <path d="M214.903,105.858C216.548,107.506 216.374,109.76 215.382,111.725C214.542,113.388 213.527,114.848 212.335,116.103C212.273,116.168 212.322,116.273 212.409,116.271C213.902,116.222 214.938,118.176 215.142,119.526C215.379,121.09 215.23,122.617 214.695,124.103C214.505,124.628 214.048,125.036 213.317,125.319C213.237,125.35 213.212,125.452 213.268,125.518C215.42,128.023 213.042,131.315 210.771,132.61C210.271,132.894 209.406,133.12 208.178,133.284C207.954,133.039 207.64,132.824 207.232,132.638C207.114,132.585 206.978,132.628 206.915,132.743C206.657,133.219 206.673,133.701 206.353,134.13C206.088,134.488 205.734,134.752 205.295,134.92C206.452,133.418 207.107,131.842 207.232,130.185C207.246,130.007 207.345,129.849 207.497,129.755C208.365,129.222 209.139,128.589 209.558,127.576C210.202,126.021 210.251,124.51 209.707,123.039C209.489,122.449 209.088,122.096 208.507,121.979C207.941,121.866 207.323,121.724 207.186,121.186C206.385,118.057 205.377,114.737 203.763,112.325C203.253,111.563 202.873,111.106 202.621,110.947C201.249,110.081 199.836,109.65 198.377,109.657C196.627,109.666 195.445,109.764 194.833,109.956C192.739,110.61 190.551,111.221 188.266,111.771C187.492,111.886 186.674,111.925 185.816,111.89C184.314,111.827 183.158,111.329 182.001,110.453C180.845,109.578 180.34,110.03 179.799,111.234C179.044,112.916 178.359,114.656 177.747,116.451C176.959,118.764 176.616,121.118 176.712,123.509C175.978,123.288 175.335,122.906 174.781,122.355C172.06,119.663 170.478,115.932 169.666,112.219C169.225,110.195 169.132,108.429 169.383,106.915C169.492,106.271 169.492,105.774 169.387,105.425C168.867,103.74 167.185,103.582 166.175,102.4C165.152,101.203 164.825,99.81 165.198,98.218C165.453,97.136 166.427,95.827 167.692,95.899C168.513,95.945 169.374,96.611 170.204,97.006C171.83,97.78 173.205,98.041 174.324,97.795C175.733,97.481 176.69,96.707 177.197,95.47C177.844,93.899 178.801,92.814 180.71,93.057C182.004,93.222 183.568,94.042 185.169,93.999C185.62,93.986 186.052,93.822 186.397,93.529L187.912,92.239C187.983,92.177 188.061,92.124 188.148,92.084C191.369,90.538 194.736,92.202 196.132,95.267C196.279,95.588 196.652,95.74 196.981,95.613C199.329,94.702 202.059,94.366 204.257,95.473C207.789,97.251 207.823,100.923 207.052,104.297C207.021,104.427 207.145,104.542 207.276,104.505C209.098,103.983 210.541,103.873 212.403,104.362C212.537,104.397 212.676,104.445 212.816,104.501C213.654,104.839 214.549,105.503 214.903,105.858Z" style="fill:white;fill-opacity:0.35;"/>
    <path d="M28.72,146.943C28.238,146.595 27.713,146.21 27.144,145.784C24.193,143.57 22.729,140.616 22.754,136.919C22.754,136.798 22.704,136.683 22.62,136.599C22.387,136.366 22.014,136.114 21.84,135.918C20.789,134.727 20.266,133.3 20.269,131.637C20.891,132.479 21.645,133.164 22.524,133.704C22.589,133.744 22.673,133.695 22.673,133.617L22.595,129.824C22.592,129.622 22.555,129.423 22.489,129.236L21.18,125.421C21.131,125.275 20.943,125.234 20.835,125.343C19.427,126.771 19.56,128.888 19.899,130.732C19.038,129.376 18.189,128.024 17.353,126.671C15.546,123.751 14.679,121.69 14.57,118.578C14.458,115.341 14.81,112.785 17.163,110.621C18.36,109.517 19.775,108.637 21.404,107.975C21.634,107.885 21.805,107.686 21.861,107.443C23.55,100.242 29.526,97.164 36.553,96.698C40.159,96.458 43.834,96.583 47.575,97.071L56.965,98.29C58.697,98.517 60.83,98.647 62.655,98.439C63.227,98.374 63.771,98.19 64.284,97.885C64.337,97.854 64.408,97.889 64.415,97.951C64.567,99.44 64.834,101.172 64.433,102.699C63.494,106.29 61.057,109.122 57.817,110.857C57.677,110.932 57.605,111.087 57.636,111.243C57.935,112.717 58.022,113.839 57.876,115.422C57.574,118.683 57.036,121.911 56.262,125.104C56.054,126.851 56.088,128.282 55.612,130.25C55.106,132.896 54.586,135.539 54.048,138.178C53.874,139.04 53.141,140.719 51.847,143.222C50.666,145.504 49.042,147.236 46.978,148.414C45.252,148.591 43.492,148.69 41.702,148.716C40.237,148.737 38.987,148.765 37.952,148.8C36.279,148.855 35.032,148.839 34.208,148.747C32.706,148.579 30.875,147.976 28.72,146.943ZM42.818,114.34C41.674,114.072 40.902,113.855 40.501,113.69C36.977,112.236 34.936,111.395 34.379,111.184C33.167,110.725 32.025,110.441 30.953,110.329C29.594,110.186 26.763,110.366 26.186,111.806C25.127,114.451 24.703,117.61 24.461,120.372C24.328,121.876 24.157,123.347 24.308,124.83C24.443,126.152 25.219,128.055 25.624,129.603C26.659,132.336 27.725,136.838 31.559,136.415C32.585,136.303 33.688,136.068 34.867,135.713C35.293,135.584 36.189,135.467 37.557,135.358C38.925,135.461 40.364,135.449 41.652,135.713C44.49,136.295 48.458,136.875 50.917,135.383C51.486,135.038 52.124,134.282 52.83,133.117C54.138,130.955 55.009,128.633 55.435,126.152C55.575,125.222 55.612,124.585 55.541,124.233C54.748,120.308 53.522,116.588 51.85,113.074C51.611,112.571 51.159,112.416 50.495,112.589C50.408,112.612 50.324,112.655 50.255,112.714C48.603,114.129 46.645,114.727 44.391,114.523C43.744,114.465 43.219,114.405 42.818,114.34ZM39.463,140.765C38.362,140.476 37.321,140.12 36.338,139.702C35.707,139.434 35.287,139.314 35.082,139.341C34.261,139.452 33.732,140.557 34.336,141.219C35.685,142.7 38.129,143.446 40.054,143.704C41.101,143.809 43.819,143.93 44.652,143.228C45.302,142.68 45.379,142.084 44.889,141.431C44.672,141.143 44.394,141.011 44.049,141.036C42.401,141.153 40.871,141.061 39.463,140.765Z" style="fill:white;fill-opacity:0.35;"/>
    <path d="M191.748,134.721C191.786,133.682 191.76,132.681 191.677,131.72C191.627,131.139 191.468,130.629 191.204,130.191C191.148,130.098 191.067,130.017 190.974,129.958C190.374,129.576 189.555,129.666 189.022,129.171C188.567,128.749 188.39,128.17 188.487,127.433C188.813,124.936 189.613,122.51 189.995,120.257C190.368,118.052 190.146,115.85 189.32,113.653C189.078,113.009 188.726,112.381 188.266,111.771C190.551,111.221 192.739,110.61 194.833,109.956C195.445,109.764 196.627,109.666 198.377,109.657C199.836,109.65 201.249,110.081 202.621,110.947C202.873,111.106 203.253,111.563 203.763,112.325C205.377,114.737 206.385,118.057 207.186,121.186C207.323,121.724 207.941,121.866 208.507,121.979C209.088,122.096 209.489,122.449 209.707,123.039C210.251,124.51 210.202,126.021 209.558,127.576C209.139,128.589 208.365,129.222 207.497,129.755C207.345,129.849 207.246,130.007 207.232,130.185C207.107,131.842 206.452,133.418 205.295,134.92L202.715,138.185C202.065,138.928 201.476,139.728 200.942,140.585C200.88,140.685 200.797,140.865 200.687,141.129C200.65,141.219 200.579,141.294 200.492,141.337C196.988,143.104 193.289,143.767 189.382,143.256C189.196,143.231 189.09,143.026 189.18,142.861C189.865,141.608 190.464,140.324 190.98,139.009C191.394,137.955 191.546,136.804 191.437,135.557C192.989,135.337 194.531,134.7 196.033,133.608C196.117,133.546 196.194,133.493 196.266,133.449C196.406,133.365 196.485,133.263 196.499,133.148C196.526,132.936 196.278,132.796 196.086,132.918C194.77,133.747 193.325,134.348 191.748,134.721ZM194.667,119.934C194.23,119.946 193.894,120.723 193.919,121.67C193.943,122.617 194.32,123.375 194.756,123.365C195.193,123.353 195.529,122.576 195.504,121.629C195.479,120.683 195.103,119.924 194.667,119.934ZM196.288,118.223C197.336,118.586 198.784,119.177 199.453,118.851C199.689,118.736 199.768,118.434 199.624,118.205C199.107,117.376 197.843,116.867 196.876,116.532C195.903,116.195 194.592,115.814 193.676,116.146C193.421,116.239 193.297,116.525 193.412,116.762C193.736,117.43 195.241,117.861 196.288,118.223Z" style="fill:white;fill-opacity:0.95;"/>
    <path d="M183.366,149.344C183.866,147.997 184.211,146.611 184.401,145.184C184.575,143.865 184.609,142.702 184.019,141.577C183.966,141.477 183.897,141.384 183.817,141.306C181.056,138.667 178.724,136.266 177.623,132.582C176.762,129.696 176.724,126.568 176.712,123.509C176.616,121.118 176.959,118.764 177.747,116.451C178.359,114.656 179.044,112.916 179.799,111.234C180.34,110.03 180.845,109.578 182.001,110.453C183.158,111.329 184.314,111.827 185.816,111.89C186.674,111.925 187.492,111.886 188.266,111.771C188.726,112.381 189.078,113.009 189.32,113.653C190.146,115.85 190.368,118.052 189.995,120.257C189.613,122.51 188.813,124.936 188.487,127.433C188.39,128.17 188.567,128.749 189.022,129.171C189.555,129.666 190.374,129.576 190.974,129.958C191.067,130.017 191.148,130.098 191.204,130.191C191.468,130.629 191.627,131.139 191.677,131.72C191.76,132.681 191.786,133.682 191.748,134.721C190.713,134.948 189.581,135.054 188.356,135.051C188.191,135.05 188.079,135.088 188.023,135.162C187.911,135.314 188.005,135.53 188.191,135.554C189.161,135.683 190.243,135.682 191.437,135.557C191.546,136.804 191.394,137.955 190.98,139.009C190.464,140.324 189.865,141.608 189.18,142.861C189.09,143.026 189.196,143.231 189.382,143.256C193.289,143.767 196.988,143.104 200.492,141.337C200.579,141.294 200.65,141.219 200.687,141.129C200.797,140.865 200.88,140.685 200.942,140.585C201.476,139.728 202.065,138.928 202.715,138.185C202.158,139.145 201.564,140.072 200.939,140.961C200.311,141.86 199.683,143.247 199.055,145.125C195.144,148.06 190.88,149.798 186.257,150.28C186.133,150.293 186.012,150.277 185.894,150.236L183.366,149.344ZM186.699,119.85C186.292,119.865 185.984,120.633 186.015,121.565C186.046,122.498 186.404,123.245 186.811,123.231C187.218,123.217 187.526,122.449 187.494,121.516C187.464,120.583 187.106,119.837 186.699,119.85ZM184.802,118.195C185.887,118.04 187.42,117.903 187.862,117.318C188.017,117.11 187.949,116.812 187.719,116.672C186.892,116.18 185.555,116.302 184.554,116.445C183.552,116.588 182.234,116.846 181.578,117.548C181.395,117.744 181.416,118.052 181.621,118.208C182.209,118.649 183.72,118.348 184.802,118.195Z" style="fill:white;fill-opacity:0.75;"/>
    <path d="M42.818,114.34C41.674,114.072 40.902,113.855 40.501,113.69C36.977,112.236 34.936,111.395 34.379,111.184C33.167,110.725 32.025,110.441 30.953,110.329C29.594,110.186 26.763,110.366 26.186,111.806C25.127,114.451 24.703,117.61 24.461,120.372C24.328,121.876 24.157,123.347 24.308,124.83C24.443,126.152 25.219,128.055 25.624,129.603C26.659,132.336 27.725,136.838 31.559,136.415C32.585,136.303 33.688,136.068 34.867,135.713C35.293,135.584 36.189,135.467 37.557,135.358L38.962,135.249C39.059,135.24 39.143,135.187 39.192,135.106L39.792,134.065C39.883,133.909 40.029,133.794 40.2,133.745L41.804,133.278C41.817,133.275 41.829,133.272 41.838,133.263C43.063,132.495 42.693,130.555 42.389,129.354C41.927,127.533 41.542,125.816 41.229,124.205C40.555,120.739 41.086,117.449 42.818,114.34ZM34.019,121.171C35.172,121.025 36.808,120.906 37.286,120.291C37.454,120.073 37.389,119.753 37.143,119.604C36.273,119.066 34.849,119.171 33.782,119.308C32.716,119.442 31.307,119.697 30.598,120.434C30.402,120.639 30.418,120.966 30.636,121.133C31.251,121.612 32.865,121.317 34.019,121.171ZM36.21,123.144C35.747,123.123 35.334,123.929 35.288,124.942C35.24,125.956 35.579,126.795 36.043,126.815C36.506,126.836 36.919,126.031 36.965,125.018C37.013,124.003 36.674,123.164 36.21,123.144Z" style="fill:white;fill-opacity:0.95;"/>
    <path d="M127.614,127.629C127.542,128.39 127.359,129.264 127.063,130.256C126.609,131.78 125.44,132.753 124.156,133.493C123.982,133.595 123.851,133.76 123.795,133.956C122.94,136.988 121.6,139.655 119.778,141.962C119.604,142.186 119.399,142.385 119.172,142.556C117.484,143.822 116.548,144.534 116.364,144.686C115.708,145.233 115.27,145.805 115.012,146.695C114.583,148.181 114.486,149.714 114.719,151.293C113.124,153.352 110.979,154.503 108.277,154.741C106.396,154.907 105.047,154.916 104.223,154.766L100.908,154.163L101.347,152.966C101.514,153.047 101.679,152.988 101.841,152.786C104.058,150.015 105.799,146.878 107.033,143.358C107.162,142.992 107.257,142.317 107.319,141.331C108.753,141.216 109.953,140.681 110.92,139.724C111.495,139.155 112.241,137.768 110.883,137.581C110.823,137.573 110.764,137.578 110.709,137.594L107.91,138.402C108.143,137.022 108.181,135.647 108.019,134.276C107.935,133.57 107.742,133.077 107.434,132.793C107.098,132.483 106.725,132.37 106.312,132.46C105.277,132.687 104.611,132.786 104.319,132.756C104.198,132.743 104.083,132.699 103.986,132.625C103.776,132.465 103.663,132.059 103.654,131.4C103.628,129.513 103.687,127.849 103.834,126.404C103.911,125.642 104.122,124.423 104.468,122.753C104.716,121.559 104.953,120.347 105.18,119.112C106.999,118.441 108.578,117.694 109.919,116.874C112.474,115.309 114.998,113.456 117.487,111.305C118.604,110.339 119.305,111.318 119.825,112.328C121.769,116.107 123.207,119.996 124.178,123.985C124.254,124.299 124.426,124.548 124.691,124.734C124.837,124.837 125.129,124.915 125.565,124.967C126.758,125.11 127.443,125.996 127.614,127.629ZM110.062,123.879C109.608,123.904 109.284,124.768 109.342,125.811C109.4,126.854 109.813,127.678 110.267,127.654C110.721,127.629 111.044,126.764 110.987,125.722C110.929,124.678 110.516,123.854 110.062,123.879ZM115.733,121.681C115.826,121.709 115.926,121.659 115.96,121.572C115.997,121.482 115.96,121.379 115.876,121.332C114.225,120.443 112.45,120.002 110.547,120.005C109.608,120.008 108.781,120.232 108.069,120.679C107.82,120.835 107.932,121.221 108.224,121.217C111.044,121.196 113.221,120.95 115.733,121.681Z" style="fill:white;fill-opacity:0.75;"/>
    <path d="M37.557,135.358C38.925,135.461 40.364,135.449 41.652,135.713C44.49,136.295 48.458,136.875 50.917,135.383C51.486,135.038 52.124,134.282 52.83,133.117C54.138,130.955 55.009,128.633 55.435,126.152C55.575,125.222 55.612,124.585 55.541,124.233C54.748,120.308 53.522,116.588 51.85,113.074C51.611,112.571 51.159,112.416 50.495,112.589C50.408,112.612 50.324,112.655 50.255,112.714C48.603,114.129 46.645,114.727 44.391,114.523C43.744,114.465 43.219,114.405 42.818,114.34C41.086,117.449 40.555,120.739 41.229,124.205C41.542,125.816 41.927,127.533 42.389,129.354C42.693,130.555 43.063,132.495 41.838,133.263C41.829,133.272 41.817,133.275 41.804,133.278L40.2,133.745C40.029,133.794 39.883,133.909 39.792,134.065L39.192,135.106C39.143,135.187 39.059,135.24 38.962,135.249L37.557,135.358ZM47.164,120.888C48.315,120.885 49.932,120.962 50.476,120.415C50.666,120.222 50.641,119.899 50.42,119.725C49.63,119.094 48.219,119.025 47.155,119.032C46.092,119.038 44.68,119.116 43.897,119.756C43.679,119.933 43.654,120.254 43.847,120.446C44.397,120.99 46.014,120.894 47.164,120.888ZM44.787,123.104C44.36,123.08 43.971,123.87 43.916,124.866C43.862,125.863 44.164,126.69 44.592,126.712C45.019,126.736 45.408,125.947 45.463,124.95C45.517,123.954 45.215,123.126 44.787,123.104Z" style="fill:white;fill-opacity:0.75;"/>
    <path d="M196.288,118.223C197.336,118.586 198.784,119.177 199.453,118.851C199.689,118.736 199.768,118.434 199.624,118.205C199.107,117.376 197.843,116.867 196.876,116.532C195.903,116.195 194.592,115.814 193.676,116.146C193.421,116.239 193.297,116.525 193.412,116.762C193.736,117.43 195.241,117.861 196.288,118.223Z" style="fill:white;fill-opacity:0.15;"/>
    <path d="M184.802,118.195C185.887,118.04 187.42,117.903 187.862,117.318C188.017,117.11 187.949,116.812 187.719,116.672C186.892,116.18 185.555,116.302 184.554,116.445C183.552,116.588 182.234,116.846 181.578,117.548C181.395,117.744 181.416,118.052 181.621,118.208C182.209,118.649 183.72,118.348 184.802,118.195Z" style="fill:white;fill-opacity:0.15;"/>
    <path d="M47.164,120.888C48.315,120.885 49.932,120.962 50.476,120.415C50.666,120.222 50.641,119.899 50.42,119.725C49.63,119.094 48.219,119.025 47.155,119.032C46.092,119.038 44.68,119.116 43.897,119.756C43.679,119.933 43.654,120.254 43.847,120.446C44.397,120.99 46.014,120.894 47.164,120.888Z" style="fill:white;fill-opacity:0.15;"/>
    <path d="M101.347,152.966L101.347,151.138C101.343,150.979 101.328,150.821 101.294,150.665C100.815,148.489 99.786,146.667 98.203,145.199C98.113,145.118 98.017,145.05 97.914,144.991C96.841,144.397 95.865,143.732 94.985,143.001C93.667,141.91 92.697,140.672 92.072,139.292C91.776,138.604 91.59,137.995 91.515,137.47C91.155,134.942 91.078,132.373 91.291,129.768C91.377,128.714 91.81,127.579 91.91,126.391C92.067,124.526 92.095,122.719 91.972,120.969C91.963,120.844 92.04,120.732 92.159,120.695C92.752,120.508 93.415,120.382 94.142,120.316C96.086,120.14 98.222,120.011 100.554,119.933C101.676,119.896 103.218,119.622 105.18,119.112C104.953,120.347 104.716,121.559 104.468,122.753C104.122,124.423 103.911,125.642 103.834,126.404C103.687,127.849 103.628,129.513 103.654,131.4C103.663,132.059 103.776,132.465 103.986,132.625C104.083,132.699 104.198,132.743 104.319,132.756C104.611,132.786 105.277,132.687 106.312,132.46C106.725,132.37 107.098,132.483 107.434,132.793C107.742,133.077 107.935,133.57 108.019,134.276C108.181,135.647 108.143,137.022 107.91,138.402C106.452,138.679 104.963,138.755 103.448,138.645C103.358,138.638 103.265,138.658 103.187,138.701C102.36,139.157 102.696,139.911 103.299,140.383C104.437,141.273 105.777,141.589 107.319,141.331C107.257,142.317 107.162,142.992 107.033,143.358C105.799,146.878 104.058,150.015 101.841,152.786C101.679,152.988 101.514,153.047 101.347,152.966ZM101.211,124.789C100.756,124.812 100.429,125.673 100.477,126.713C100.526,127.753 100.933,128.58 101.389,128.559C101.844,128.537 102.17,127.675 102.123,126.635C102.074,125.595 101.667,124.768 101.211,124.789ZM95.069,122.949C96.337,122.557 97.609,122.436 99.133,122.539C100.084,122.601 100.865,122.576 101.471,122.461C101.735,122.411 101.797,122.057 101.561,121.923C99.615,120.816 96.819,121.578 94.973,122.582C94.861,122.645 94.836,122.732 94.901,122.844C94.954,122.934 95.01,122.968 95.069,122.949Z" style="fill:white;fill-opacity:0.65;"/>
    <path d="M34.019,121.171C35.172,121.025 36.808,120.906 37.286,120.291C37.454,120.073 37.389,119.753 37.143,119.604C36.273,119.066 34.849,119.171 33.782,119.308C32.716,119.442 31.307,119.697 30.598,120.434C30.402,120.639 30.418,120.966 30.636,121.133C31.251,121.612 32.865,121.317 34.019,121.171Z" style="fill:white;fill-opacity:0.15;"/>
    <path d="M186.699,119.85C186.292,119.865 185.984,120.633 186.015,121.565C186.046,122.498 186.404,123.245 186.811,123.231C187.218,123.217 187.526,122.449 187.494,121.516C187.464,120.583 187.106,119.837 186.699,119.85Z" style="fill:white;fill-opacity:0.15;"/>
    <path d="M194.667,119.934C194.23,119.946 193.894,120.723 193.919,121.67C193.943,122.617 194.32,123.375 194.756,123.365C195.193,123.353 195.529,122.576 195.504,121.629C195.479,120.683 195.103,119.924 194.667,119.934Z" style="fill:white;fill-opacity:0.15;"/>
    <path d="M115.733,121.681C115.826,121.709 115.926,121.659 115.96,121.572C115.997,121.482 115.96,121.379 115.876,121.332C114.225,120.443 112.45,120.002 110.547,120.005C109.608,120.008 108.781,120.232 108.069,120.679C107.82,120.835 107.932,121.221 108.224,121.217C111.044,121.196 113.221,120.95 115.733,121.681Z" style="fill:white;fill-opacity:0.15;"/>
    <path d="M95.069,122.949C96.337,122.557 97.609,122.436 99.133,122.539C100.084,122.601 100.865,122.576 101.471,122.461C101.735,122.411 101.797,122.057 101.561,121.923C99.615,120.816 96.819,121.578 94.973,122.582C94.861,122.645 94.836,122.732 94.901,122.844C94.954,122.934 95.01,122.968 95.069,122.949Z" style="fill:white;fill-opacity:0.15;"/>
    <path d="M252.317,122.492C252.276,122.657 252.373,122.819 252.534,122.856C254.229,123.223 255.905,123.804 257.562,124.6C257.861,124.743 258.144,124.787 258.414,124.731C258.722,124.666 258.834,124.28 258.607,124.059C257.105,122.607 254.695,121.566 252.603,122.184C252.454,122.231 252.357,122.334 252.317,122.492Z" style="fill:white;fill-opacity:0.15;"/>
    <path d="M240.377,124.153C240.421,124.311 240.586,124.407 240.741,124.361C242.373,123.86 244.093,123.556 245.899,123.444C246.226,123.422 246.49,123.322 246.695,123.145C246.932,122.943 246.841,122.557 246.54,122.477C244.55,121.951 241.978,122.212 240.477,123.751C240.371,123.86 240.337,123.994 240.377,124.153Z" style="fill:white;fill-opacity:0.15;"/>
    <path d="M36.21,123.144C35.747,123.123 35.334,123.929 35.288,124.942C35.24,125.956 35.579,126.795 36.043,126.815C36.506,126.836 36.919,126.031 36.965,125.018C37.013,124.003 36.674,123.164 36.21,123.144Z" style="fill:white;fill-opacity:0.15;"/>
    <path d="M44.787,123.104C44.36,123.08 43.971,123.87 43.916,124.866C43.862,125.863 44.164,126.69 44.592,126.712C45.019,126.736 45.408,125.947 45.463,124.95C45.517,123.954 45.215,123.126 44.787,123.104Z" style="fill:white;fill-opacity:0.15;"/>
    <path d="M110.062,123.879C109.608,123.904 109.284,124.768 109.342,125.811C109.4,126.854 109.813,127.678 110.267,127.654C110.721,127.629 111.044,126.764 110.987,125.722C110.929,124.678 110.516,123.854 110.062,123.879Z" style="fill:white;fill-opacity:0.15;"/>
    <path d="M101.211,124.789C100.756,124.812 100.429,125.673 100.477,126.713C100.526,127.753 100.933,128.58 101.389,128.559C101.844,128.537 102.17,127.675 102.123,126.635C102.074,125.595 101.667,124.768 101.211,124.789Z" style="fill:white;fill-opacity:0.15;"/>
    <path d="M20.269,131.637L19.899,130.732C19.56,128.888 19.427,126.771 20.835,125.343C20.943,125.234 21.131,125.275 21.18,125.421L22.489,129.236C22.555,129.423 22.592,129.622 22.595,129.824L22.673,133.617C22.673,133.695 22.589,133.744 22.524,133.704C21.645,133.164 20.891,132.479 20.269,131.637Z" style="fill:white;fill-opacity:0.95;"/>
    <path d="M254.004,126.779C253.567,126.802 253.25,127.622 253.297,128.613C253.346,129.603 253.741,130.39 254.18,130.369C254.618,130.346 254.935,129.525 254.887,128.535C254.838,127.545 254.444,126.758 254.004,126.779Z" style="fill:white;fill-opacity:0.15;"/>
    <path d="M245.76,127.583C245.33,127.598 245.01,128.403 245.045,129.378C245.078,130.356 245.455,131.133 245.883,131.119C246.313,131.105 246.633,130.3 246.598,129.324C246.565,128.347 246.188,127.57 245.76,127.583Z" style="fill:white;fill-opacity:0.15;"/>
    <path d="M130.437,150.662C130.81,150.345 137.566,139.292 138.16,138.337C139.844,135.629 142.593,129.56 142.976,128.086C145.071,133.208 148.119,138.739 150.752,143.15C150.908,143.444 151.024,143.653 151.092,143.76C151.132,143.825 151.154,143.887 151.154,143.946C151.154,144.011 151.144,144.077 151.129,144.142C151.104,144.151 143.555,156.452 141.81,159.415C141.693,159.61 141.64,160.104 141.651,160.894C141.41,160.121 141.045,159.313 140.853,159.007C139.63,157.058 138.092,155.41 136.236,154.064C135.001,153.168 133.07,152.033 130.437,150.662Z" style="fill:white;fill-opacity:0.75;"/>
    <path d="M191.748,134.721C190.713,134.948 189.581,135.054 188.356,135.051C188.191,135.05 188.079,135.088 188.023,135.162C187.911,135.314 188.005,135.53 188.191,135.554C189.161,135.683 190.243,135.682 191.437,135.557C192.989,135.337 194.531,134.7 196.033,133.608C196.117,133.546 196.194,133.493 196.266,133.449C196.406,133.365 196.485,133.263 196.499,133.148C196.526,132.936 196.278,132.796 196.086,132.918C194.77,133.747 193.325,134.348 191.748,134.721Z" style="fill:white;fill-opacity:0.15;"/>
    <path d="M255.33,137.69C255.292,137.417 254.944,137.326 254.776,137.547C252.942,139.994 250.852,139.749 248.07,139.963C247.852,139.979 247.715,140.072 247.659,140.24C247.594,140.436 247.7,140.647 247.899,140.716C250.346,141.546 253.921,141.179 255.162,138.527C255.308,138.213 255.364,137.936 255.33,137.69Z" style="fill:white;fill-opacity:0.15;"/>
    <path d="M107.319,141.331C108.753,141.216 109.953,140.681 110.92,139.724C111.495,139.155 112.241,137.768 110.883,137.581C110.823,137.573 110.764,137.578 110.709,137.594L107.91,138.402C106.452,138.679 104.963,138.755 103.448,138.645C103.358,138.638 103.265,138.658 103.187,138.701C102.36,139.157 102.696,139.911 103.299,140.383C104.437,141.273 105.777,141.589 107.319,141.331Z" style="fill:white;fill-opacity:0.15;"/>
    <path d="M39.463,140.765C38.362,140.476 37.321,140.12 36.338,139.702C35.707,139.434 35.287,139.314 35.082,139.341C34.261,139.452 33.732,140.557 34.336,141.219C35.685,142.7 38.129,143.446 40.054,143.704C40.19,143.713 40.306,143.691 40.396,143.645C40.467,143.607 40.476,143.505 40.408,143.458C40.066,143.219 39.867,142.876 39.808,142.438C39.724,141.819 39.609,141.26 39.463,140.765Z" style="fill:white;fill-opacity:0.95;"/>
    <path d="M40.054,143.704C41.101,143.809 43.819,143.93 44.652,143.228C45.302,142.68 45.379,142.084 44.889,141.431C44.672,141.143 44.394,141.011 44.049,141.036C42.401,141.153 40.871,141.061 39.463,140.765C39.609,141.26 39.724,141.819 39.808,142.438C39.867,142.876 40.066,143.219 40.408,143.458C40.476,143.505 40.467,143.607 40.396,143.645C40.306,143.691 40.19,143.713 40.054,143.704Z" style="fill:white;fill-opacity:0.75;"/>
    <path d="M30.151,149.002L28.72,146.943C30.875,147.976 32.706,148.579 34.208,148.747C35.032,148.839 36.279,148.855 37.952,148.8C38.987,148.765 40.237,148.737 41.702,148.716C43.492,148.69 45.252,148.591 46.978,148.414C46.966,149.275 47.056,150.18 47.252,151.122C47.432,152.008 47.637,152.938 47.867,153.911L44.745,155.195C44.587,155.261 44.413,155.285 44.242,155.267C39.83,154.79 35.861,153.288 32.333,150.74C32.131,150.594 31.775,150.294 31.267,149.847C30.916,149.539 30.545,149.257 30.151,149.002Z" style="fill:white;fill-opacity:0.75;"/>
    <path d="M2.865,182.75C0.93,181.053 -0.469,179.298 0.147,178.098C0.809,176.81 2.121,174.812 3.352,172.99C4.042,171.97 5.031,170.434 6.315,168.379C8.146,165.453 10.317,162.462 12.829,159.405C13.961,158.031 15.229,156.759 16.42,155.749C16.815,155.413 19.819,153.5 28.266,155.699C28.813,155.841 29.199,155.954 29.551,155.715C30.729,154.909 31.441,153.827 31.693,152.475C31.715,152.35 31.699,152.22 31.643,152.105L30.151,149.002C30.545,149.257 30.916,149.539 31.267,149.847C31.775,150.294 32.131,150.594 32.333,150.74C35.861,153.288 39.83,154.79 44.242,155.267C44.413,155.285 44.587,155.261 44.745,155.195L47.867,153.911C48.554,153.641 49.226,153.336 49.882,153.003C50.812,152.528 51.471,152.207 51.866,152.04C54.732,150.805 57.664,149.061 60.015,147.814C60.096,147.774 60.183,147.743 60.273,147.724C60.55,147.671 60.78,147.581 60.97,147.45C61.063,147.385 61.181,147.373 61.287,147.416L62.981,148.109C64.368,148.772 65.727,149.587 67.054,150.547C67.738,151.042 68.656,151.424 69.33,152.015C71.249,153.696 72.738,155.584 73.798,157.674L74.339,159.866C74.364,159.968 74.349,160.074 74.299,160.167C73.587,161.451 72.968,162.589 72.443,163.575C70.891,166.485 69.001,169.19 66.772,171.687C66.619,171.858 66.535,172.082 66.538,172.309C66.557,175.468 66.215,179.286 66.234,182.355C66.249,185.259 66.059,187.93 65.892,192.339C65.64,198.909 65.27,205.183 64.785,211.159C64.52,214.402 64.297,217.85 64.11,221.497C63.951,224.65 64.07,228.356 64.471,232.619C64.48,232.722 64.415,232.815 64.315,232.837C63.715,232.983 63.221,233.275 62.487,233.424C61.626,233.602 60.914,233.77 60.348,233.928C59.853,234.065 59.135,234.22 58.199,234.398C53.184,235.346 48.427,236.018 43.931,236.416C42.283,236.562 39.379,236.649 35.219,236.68C30.496,236.717 27.181,236.624 25.282,236.4C22.853,236.114 14.675,233.752 14.681,233.649L14.997,231.301C16.741,218.285 18.367,204.824 18.825,191.393C18.825,191.393 18.37,190.632 17.923,190.551C15.958,190.2 11.732,188.588 11.561,188.529C11.017,188.339 10.376,188.022 9.639,187.571C8.357,186.785 5.216,184.811 2.865,182.75Z" style="fill:white;fill-opacity:0.95;"/>
    <path d="M114.719,151.293L117.605,155.45C117.661,155.531 117.767,155.559 117.857,155.522C120.444,154.418 123.323,152.916 126.497,151.017C126.898,150.777 127.178,150.628 127.337,150.572C127.813,150.404 128.748,149.978 128.836,150.012L130.437,150.662C133.07,152.033 135.001,153.168 136.236,154.064C138.092,155.41 139.63,157.058 140.853,159.007C141.045,159.313 141.41,160.121 141.651,160.894C141.851,161.538 141.966,162.158 141.823,162.446C140.446,165.232 138.571,168.102 136.201,171.059C135.701,171.684 134.168,173.437 131.609,176.32C131.522,176.419 131.472,176.544 131.466,176.674C131.429,177.399 131.457,178.008 131.55,178.509C132.24,182.221 132.84,185.856 132.707,189.397C132.654,190.868 131.998,192.964 131.267,194.742C130.266,197.17 129.081,200.177 127.71,203.768C126.97,205.715 126.56,207.608 126.818,209.663C127.542,215.456 128.792,221.367 130.574,227.402C130.682,227.775 130.651,228.179 130.483,228.534C130.297,228.925 130.008,229.339 129.619,229.774C126.833,232.902 122.207,234.737 118.056,235.685C115.435,236.285 112.714,236.702 109.897,236.929C101.169,237.631 92.622,237.156 84.305,234.538C84.752,232.333 87.337,195.501 87.473,194.559C87.528,194.176 87.28,193.819 86.904,193.735C86.904,193.735 79.106,191.092 78.49,190.734C75.743,189.136 73.205,187.28 70.873,185.172L68.65,183.129C68.553,183.039 68.531,182.893 68.6,182.781C71.6,177.828 74.392,172.952 76.976,168.161C77.875,166.491 78.658,165.207 79.321,164.302C80.437,162.782 81.404,161.625 82.221,160.836C83.201,159.887 84.787,158.933 86.979,157.975C87.003,157.966 87.028,157.956 87.053,157.953L88.965,157.596C88.987,157.593 89.012,157.59 89.034,157.59C92.314,157.437 95.321,157.465 98.054,157.677C98.365,157.701 98.676,157.596 98.909,157.387C99.913,156.489 100.582,155.413 100.908,154.163L104.223,154.766C105.047,154.916 106.396,154.907 108.277,154.741C110.979,154.503 113.124,153.352 114.719,151.293Z" style="fill:white;fill-opacity:0.95;"/>
    <path d="M227.44,186.823C227.07,190.097 226.74,193.334 226.445,196.539C226.006,201.281 225.276,205.842 224.253,210.217C223.304,214.262 221.83,218.096 219.831,221.718C219.122,223.002 218.367,224.038 217.568,224.83C216.97,225.422 216.154,226.019 215.12,226.619C214.34,218.89 211.335,187.656 211.209,186.711C211.103,185.917 211.697,185.376 212.476,185.588C215.051,186.289 226.916,178.775 227.474,176.942C227.53,176.907 227.604,176.948 227.604,177.016C227.607,179.659 227.589,186.515 227.44,186.823Z" style="fill:white;fill-opacity:0.75;"/>
    <path d="M14.997,231.301C13.089,230.373 11.767,228.677 10.699,226.817C8.044,222.203 6.449,217.11 5.451,211.713C4.804,208.208 4.375,205.429 4.16,203.373C4.126,203.025 3.936,201.144 3.598,197.73C3.47,196.465 3.405,195.616 3.395,195.19C3.371,193.924 3.103,192.989 3.109,191.804C3.116,191.07 3.063,189.826 2.954,188.073C2.859,186.537 2.829,184.763 2.865,182.75C5.216,184.811 8.357,186.785 9.639,187.571C10.376,188.022 11.017,188.339 11.561,188.529C11.732,188.588 15.958,190.2 17.923,190.551C18.37,190.632 18.825,191.393 18.825,191.393C18.367,204.824 16.741,218.285 14.997,231.301Z" style="fill:white;fill-opacity:0.75;"/>
    <path d="M84.305,234.538C81.923,234.22 80.359,231.882 79.243,229.939C76.096,224.454 74.392,218.394 73.357,212.207C71.868,203.33 71.041,194.316 70.873,185.172C73.205,187.28 75.743,189.136 78.49,190.734C79.106,191.092 86.904,193.735 86.904,193.735C87.28,193.819 87.528,194.176 87.473,194.559C87.337,195.501 84.752,232.333 84.305,234.538Z" style="fill:white;fill-opacity:0.65;"/>
</svg>
