<?xml version="1.0" encoding="UTF-8" standalone="no"?>
<!DOCTYPE svg PUBLIC "-//W3C//DTD SVG 1.1//EN" "http://www.w3.org/Graphics/SVG/1.1/DTD/svg11.dtd">
<svg width="100%" height="100%" viewBox="0 0 300 300" version="1.1" xmlns="http://www.w3.org/2000/svg" xmlns:xlink="http://www.w3.org/1999/xlink" xml:space="preserve" xmlns:serif="http://www.serif.com/" style="fill-rule:evenodd;clip-rule:evenodd;stroke-linejoin:round;stroke-miterlimit:2;">
    <path d="M16.334,72.549C13.634,72.543 10.952,72.543 8.283,72.549C7.49,72.549 7.301,71.659 7.301,70.941C7.291,55.602 7.291,43.339 7.308,34.153C7.308,33.266 8.137,33.116 8.909,33.116C58.028,33.093 106.975,33.093 155.749,33.116C156.449,33.116 156.797,33.531 156.8,34.365C156.817,44.326 156.82,56.702 156.804,71.49C156.804,72.313 156.048,72.543 155.301,72.543L147.761,72.543L143.003,72.546L21.095,72.549L16.334,72.549Z" style="fill:white;fill-opacity:0.95;"/>
    <path d="M259.687,96.66C258.653,95.965 258.44,94.969 259.051,93.663C259.495,92.719 260.049,91.945 260.712,91.344C265.082,87.384 270.225,84.872 276.201,85.281C276.403,85.294 276.512,85.297 276.532,85.291C276.86,85.178 277.01,84.796 276.847,84.487C275.932,82.742 275.166,81.151 274.549,79.712C272.812,75.672 275.736,70.802 280.087,70.473C284.384,70.151 289.693,73.872 289.786,78.463C289.816,79.809 289.716,81.473 289.123,82.859C288.466,84.38 287.607,85.729 286.543,86.905C286.444,87.015 286.5,87.191 286.643,87.228C287.17,87.36 287.644,87.537 288.068,87.759C293.483,90.587 296.189,94.55 297.429,100.358C297.665,101.464 297.741,102.707 297.655,104.092C297.486,106.856 297.625,108.514 296.988,110.826C296.335,113.199 295.486,115.222 294.07,117.209C291.844,120.334 287.568,121.781 283.499,121.544C283.539,121.461 283.489,121.365 283.4,121.345L282.086,121.099L281.092,120.617C278.114,118.694 276.701,115.961 278.233,112.454C278.725,111.329 280.031,107.491 280.233,106.693C280.482,105.707 280.323,104.839 279.749,104.099C279.49,103.766 279.023,103.683 278.668,103.906C277.431,104.681 276.413,106.361 275.71,107.451C275.322,108.052 274.818,108.497 274.194,108.79C273.883,108.936 273.521,108.737 273.475,108.394C273.418,107.969 273.595,107.166 273.77,106.677C274.621,104.293 275.129,102.059 273.545,99.989C272.957,99.222 272.43,98.653 271.638,98.258C270.381,97.63 269.028,97.33 267.582,97.364C266.339,97.393 265.182,97.437 264.107,97.497C262.473,97.48 261,97.201 259.687,96.66Z" style="fill:white;fill-opacity:0.25;"/>
    <path d="M147.781,135.13L147.781,135.635C147.775,156.243 147.771,185.055 147.771,185.055C147.771,185.128 147.831,185.188 147.907,185.188L153.929,185.178C153.879,186.603 154.293,187.643 155.172,188.297L155.215,188.327C155.879,190.077 156.609,191.786 157.393,193.462C157.376,193.51 157.369,193.57 157.377,193.646L154.462,193.59L9.652,193.59C5.703,193.56 3.004,193.557 1.558,193.58C0.474,193.597 -0.044,193.068 0.006,192.002C0.076,190.434 0.076,188.902 0.009,187.41C-0.05,186.061 0.142,185.201 1.644,185.194C3.471,185.188 8.329,185.184 16.218,185.188C16.281,185.188 16.33,185.138 16.33,185.078L16.334,72.549L21.095,72.549L21.089,185.015C21.089,185.108 21.165,185.184 21.258,185.184L27.177,185.187C35.24,185.19 43.302,185.191 51.364,185.189L71.834,185.19L93.209,185.191L142.873,185.191C142.946,185.191 143.006,185.131 143.006,185.058C143.021,180.77 143.011,155.795 143.002,138.877L142.993,123.043L143.003,72.546L147.761,72.543C147.775,81.239 147.778,100.355 147.779,115.437L147.781,135.13Z" style="fill:white;fill-opacity:0.65;"/>
    <path d="M189.442,124.388C187.887,125.368 186.189,125.923 184.349,126.053C181.521,126.252 178.092,125.026 178.908,121.475C178.941,121.328 178.788,121.205 178.652,121.275L178.118,121.544C178.095,121.554 178.072,121.564 178.045,121.568C176.533,121.833 175.177,121.521 173.977,120.634C173.914,120.584 173.854,120.531 173.801,120.471C171.45,117.817 170.847,114.704 171.984,111.135C172.02,111.019 171.928,110.899 171.805,110.906L170.452,110.983C170.412,110.986 170.376,110.979 170.339,110.966C168.366,110.258 167.547,108.87 167.885,106.793C168.058,105.733 168.439,104.793 169.026,103.969C169.089,103.879 169.079,103.756 169,103.68C168.074,102.786 166.019,100.942 165.322,99.693C164.006,97.338 164.099,95.019 165.607,92.739C166.264,91.746 167.411,90.979 169.049,90.444C169.159,90.407 169.208,90.284 169.155,90.181C169.155,90.181 168.648,89.181 168.645,89.158C168.535,88.696 168.455,87.853 169.029,86.942C174.64,78.04 178.238,82.885 178.238,82.885C178.278,83.015 178.45,83.035 178.523,82.922C179.073,82.028 179.561,81.188 180.373,80.324C181.269,79.37 181.925,78.719 182.34,78.364C184.326,76.659 187.877,74.463 190.331,76.264C190.802,76.609 191.15,77.194 191.541,77.749C191.72,78.005 192.059,78.088 192.337,77.952L195.749,76.264C197.072,75.603 198.173,75.819 199.052,76.912C199.132,77.011 199.261,77.058 199.384,77.028C201.817,76.486 204.367,75.981 207.037,75.51C207.564,75.417 208.34,75.403 209.361,75.466C209.52,75.476 209.67,75.53 209.796,75.626C210.989,76.543 211.347,78.729 211.321,80.121C211.301,81.071 210.877,81.895 210.343,82.719C210.266,82.839 210.376,82.988 210.512,82.952C211.729,82.61 212.435,82.766 214.186,82.952C216.351,83.181 217.979,83.36 218.42,85.845C218.732,87.596 216.129,90.357 217.993,91.254C221.965,93.167 218.662,99.322 215.025,98.696C213.645,98.459 212.243,98.108 210.84,97.437C210.323,97.298 209.766,97.185 209.169,97.098C207.773,96.896 206.997,97.467 206.848,98.816C206.712,98.999 206.592,99.072 206.49,99.039C204.593,98.427 202.82,98.608 201.164,99.58C199.805,100.378 199.165,102.011 197.391,102.035C195.812,102.057 195.903,103.63 195.842,104.932C195.727,107.404 193.014,105.78 192.881,108.032C192.789,109.584 192.739,110.398 192.728,110.468C192.688,110.734 192.607,110.993 192.493,111.238C192.328,111.594 191.969,112.162 191.422,112.949C190.663,114.042 190.467,115.165 190.825,116.611C191.13,117.843 191.362,118.74 191.518,119.305C191.644,119.76 191.681,120.451 191.628,121.378L191.306,122.292C190.805,123.352 190.182,124.049 189.442,124.388Z" style="fill:white;fill-opacity:0.25;"/>
    <path d="M58.99,122.787C58.33,122.299 57.64,121.82 56.921,121.348C56.039,120.767 55.498,120.378 55.303,120.182C54.364,119.249 53.26,118.019 52.444,117.391C51.443,116.617 49.931,115.401 49.115,114.381C47.016,111.75 46.283,97.872 46.558,96.839C47.45,93.51 48.014,91.284 48.243,90.161C48.697,87.972 49.198,86.414 49.752,85.487C53.708,78.839 62.163,78.101 69.094,77.762C70.539,77.692 72.715,77.706 75.619,77.805C78.415,77.902 81.542,77.952 84.994,77.962C86.98,77.968 88.714,77.749 90.389,77.128C90.498,77.088 90.611,77.174 90.604,77.29C90.571,77.799 91.387,83.264 91.337,83.553C90.929,86.045 83.229,90.603 82.888,90.905C82.566,90.985 82.262,91.086 81.973,91.201C81.628,91.339 81.323,91.431 81.061,91.474C79.731,91.691 78.401,91.929 77.068,92.191L74.028,92.65C73.779,92.686 73.527,92.692 73.278,92.663C70.554,92.348 67.792,92.36 66.182,94.796C65.333,96.081 64.954,98.514 64.445,99.912C64.392,100.056 64.38,100.211 64.408,100.361C65.156,104.275 66.239,107.836 67.751,111.029C68.928,113.517 71.008,116.156 73.948,114.843C74.081,114.784 74.206,114.703 74.313,114.607C75.272,113.747 76.497,112.403 77.742,112.172C78.053,112.114 78.713,112.069 79.718,112.039C80.832,112.149 82.082,112.17 83.465,112.099C85.03,112.018 86.174,111.202 86.894,109.654C87.291,113.016 87.202,116.162 86.628,119.096C86.433,120.099 85.968,121.498 85.232,123.289C84.95,123.976 84.579,124.491 84.118,124.827C83.385,125.362 82.828,125.677 82.447,125.774C81.717,125.956 78.622,126.686 76.143,126.853C73.341,126.618 70.642,125.91 68.042,124.73C64.819,125.013 61.802,124.365 58.99,122.787ZM63.881,115.335C62.929,111.422 62.145,107.411 61.566,103.301C61.533,103.065 61.314,102.902 61.079,102.939C57.882,103.436 56.392,105.972 56.612,109.102C56.733,110.806 57.769,113.618 59.643,114.308C60.807,114.737 62.173,115.119 63.725,115.494C63.818,115.517 63.904,115.431 63.881,115.335ZM79.668,120.435C81.939,120.667 83.82,120.096 85.299,118.734C85.781,118.29 86.051,117.777 85.491,117.272C85.425,117.212 85.348,117.169 85.262,117.146C84.589,116.963 83.358,116.956 81.565,117.159C81.313,117.187 80.719,117.17 79.784,117.096C79.545,117.077 79.313,117.006 79.104,116.893C78.551,116.594 78.046,116.262 77.592,115.896C76.879,115.322 76.085,115.131 75.613,115.989C75.556,116.092 75.536,116.212 75.556,116.332C75.816,117.838 76.601,118.989 77.884,119.79C78.395,120.109 78.892,120.198 79.482,120.395C79.545,120.416 79.605,120.428 79.668,120.435Z" style="fill:white;fill-opacity:0.25;"/>
    <path d="M82.888,90.905C82.888,90.905 85.257,96.679 85.445,97.62C84.3,97.299 83.38,97.321 83.212,97.725C82.996,98.243 84.099,99.195 85.679,99.85C85.868,99.928 86.054,99.998 86.238,100.061L86.894,109.654C86.174,111.202 85.03,112.018 83.465,112.099C82.082,112.17 80.832,112.149 79.718,112.039C80.04,111.052 80.544,110.498 81.223,110.368C82.42,110.139 84.274,111.172 83.959,108.773C83.484,105.152 82.355,102.118 80.981,98.461C80.952,98.384 80.915,98.311 80.872,98.241C80.653,97.889 80.273,97.108 79.731,95.899C79.443,95.257 78.857,94.162 77.974,92.603C77.804,92.304 77.503,92.168 77.068,92.191C78.401,91.929 79.731,91.691 81.061,91.474C81.323,91.431 81.628,91.339 81.973,91.201C82.262,91.086 82.566,90.985 82.888,90.905ZM85.393,102.468C85.073,102.497 84.881,103.195 84.96,104.021C85.04,104.849 85.362,105.494 85.681,105.464C86.002,105.434 86.194,104.736 86.115,103.91C86.035,103.082 85.713,102.437 85.393,102.468Z" style="fill:white;fill-opacity:0.75;"/>
    <path d="M77.068,92.191L74.028,92.65C73.779,92.686 73.527,92.692 73.278,92.663C70.554,92.348 67.792,92.36 66.182,94.796C65.333,96.081 64.954,98.514 64.445,99.912C64.392,100.056 64.38,100.211 64.408,100.361C65.156,104.275 66.239,107.836 67.751,111.029C68.928,113.517 71.008,116.156 73.948,114.843C74.081,114.784 74.206,114.703 74.313,114.607C75.272,113.747 76.497,112.403 77.742,112.172C78.053,112.114 78.713,112.069 79.718,112.039C80.04,111.052 80.544,110.498 81.223,110.368C82.42,110.139 84.274,111.172 83.959,108.773C83.484,105.152 82.355,102.118 80.981,98.461C80.952,98.384 80.915,98.311 80.872,98.241C80.653,97.889 80.273,97.108 79.731,95.899C79.443,95.257 78.857,94.162 77.974,92.603C77.804,92.304 77.503,92.168 77.068,92.191ZM80.622,98.55C80.487,98.005 79.035,97.896 77.375,98.308C75.716,98.72 74.482,99.494 74.616,100.039C74.751,100.584 76.203,100.693 77.863,100.281C79.522,99.869 80.756,99.095 80.622,98.55ZM79.183,102.34C78.773,102.384 78.521,103.185 78.618,104.129C78.716,105.075 79.128,105.806 79.536,105.764C79.947,105.72 80.199,104.919 80.102,103.975C80.003,103.029 79.592,102.298 79.183,102.34Z" style="fill:white;fill-opacity:0.95;"/>
    <path d="M262.957,126.986C256.116,128.19 256.385,115.463 257.666,106.121C257.724,106.259 257.808,106.348 257.912,106.367C258.185,106.415 258.491,105.967 258.597,105.367C258.704,104.767 258.569,104.24 258.299,104.193C258.171,104.17 258.035,104.257 257.916,104.418C258.032,103.678 258.152,102.969 258.273,102.301C258.814,102.247 259.37,102.204 259.938,102.166C260.061,102.158 260.14,102.028 260.094,101.914C260.028,101.749 259.895,101.648 259.696,101.616C259.263,101.548 258.837,101.517 258.418,101.523C258.957,98.704 259.485,96.785 259.687,96.66C261,97.201 262.473,97.48 264.107,97.497C262.081,101.467 260.598,105.565 259.684,109.8C259.62,110.095 259.615,110.298 259.671,110.408C260.459,111.962 262.587,110.222 263.146,111.893C263.533,113.049 263.321,114.322 262.509,115.714C261.73,116.192 260.755,116.461 259.584,116.508C259.137,116.525 258.851,116.58 258.726,116.67C258.296,116.98 258.219,117.743 258.712,118.059C259.452,118.533 260.297,118.847 261.246,119.003C261.13,120.302 261.193,121.534 261.418,122.701C261.502,123.136 261.76,123.797 262.187,124.684C262.546,125.428 262.801,126.196 262.957,126.986Z" style="fill:white;fill-opacity:0.75;"/>
    <path d="M258.418,101.523C256.971,101.546 255.613,102.019 254.343,102.94C254.274,102.989 254.254,103.086 254.297,103.161L254.322,103.203C254.362,103.275 254.452,103.298 254.527,103.261C255.633,102.666 256.904,102.437 258.273,102.301C258.814,102.247 259.37,102.204 259.938,102.166C260.061,102.158 260.14,102.028 260.094,101.914C260.028,101.749 259.895,101.648 259.696,101.616C259.263,101.548 258.837,101.517 258.418,101.523Z" style="fill:white;fill-opacity:0.15;"/>
    <path d="M210.84,97.437C211.659,99.452 212.296,101.45 212.775,103.404C212.555,103.417 212.334,103.44 212.113,103.474C211.738,103.531 211.477,103.674 211.324,103.899C211.159,104.142 211.307,104.475 211.599,104.511C211.979,104.557 212.483,104.566 213.046,104.58C213.192,105.259 213.319,105.931 213.428,106.596C213.319,106.474 213.196,106.406 213.073,106.417C212.765,106.445 212.582,106.957 212.663,107.557C212.745,108.159 213.061,108.625 213.369,108.597C213.497,108.586 213.603,108.491 213.677,108.341C214.742,117.15 212.704,124.375 210.119,126.887C209.52,127.468 207.829,127.335 206.997,127.242C207.464,126.378 207.953,125.502 208.459,124.614C209.014,123.641 209.262,122.71 209.205,121.82C209.152,120.986 209.156,120.352 209.219,119.91C209.852,119.956 211.116,119.747 211.424,119.122C211.613,118.737 211.377,118.278 210.953,118.212C209.899,118.048 209.023,117.82 208.33,117.524C207.896,116.478 207.643,115.471 207.587,114.504C207.555,113.956 207.667,113.441 207.919,112.966C208.055,112.71 208.313,112.548 208.602,112.541C209.268,112.523 211.224,112.976 211.132,111.687C211.029,110.248 210.701,108.584 210.154,106.693C209.358,103.946 208.257,101.321 206.848,98.816C206.997,97.467 207.773,96.896 209.169,97.098C209.766,97.185 210.323,97.298 210.84,97.437Z" style="fill:white;fill-opacity:0.75;"/>
    <path d="M266.899,127.033C266.77,126.877 266.581,126.82 266.339,126.867C265.135,127.096 264.008,127.136 262.957,126.986C262.801,126.196 262.546,125.428 262.187,124.684C261.76,123.797 261.502,123.136 261.418,122.701C261.193,121.534 261.13,120.302 261.246,119.003C261.965,118.933 262.765,118.748 263.64,118.448C264.781,118.057 266.662,116.226 264.611,115.381C264.034,115.143 263.179,115.514 262.509,115.714C263.321,114.322 263.533,113.049 263.146,111.893C262.587,110.222 260.459,111.962 259.671,110.408C259.615,110.298 259.62,110.095 259.684,109.8C260.598,105.565 262.081,101.467 264.107,97.497C265.182,97.437 266.339,97.393 267.582,97.364C269.028,97.33 270.381,97.63 271.638,98.258C272.43,98.653 272.957,99.222 273.545,99.989C275.129,102.059 274.621,104.293 273.77,106.677C273.595,107.166 273.418,107.969 273.475,108.394C273.521,108.737 273.883,108.936 274.194,108.79C274.818,108.497 275.322,108.052 275.71,107.451C276.413,106.361 277.431,104.681 278.668,103.906C279.023,103.683 279.49,103.766 279.749,104.099C280.323,104.839 280.482,105.707 280.233,106.693C280.031,107.491 278.725,111.329 278.233,112.454C276.701,115.961 278.114,118.694 281.092,120.617C281.037,120.69 280.405,121.045 279.629,121.463C278.394,122.13 276.792,122.961 276.562,123.086C273.59,124.699 270.54,125.904 267.423,126.737C267.227,126.79 267.052,126.89 266.899,127.033ZM264.511,104.026C264.134,103.959 263.709,104.58 263.561,105.412C263.414,106.245 263.6,106.976 263.975,107.042C264.353,107.109 264.777,106.487 264.926,105.656C265.072,104.823 264.887,104.092 264.511,104.026ZM269.894,102.604C269.94,102.52 269.917,102.414 269.841,102.361C268.023,101.075 266.054,100.61 263.932,100.972C263.713,101.009 263.567,101.122 263.497,101.304C263.448,101.431 263.537,101.574 263.673,101.58C265.878,101.716 267.934,101.823 269.642,102.716C269.725,102.756 269.824,102.73 269.867,102.65L269.894,102.604Z" style="fill:white;fill-opacity:0.95;"/>
    <path d="M80.622,98.55C80.487,98.005 79.035,97.896 77.375,98.308C75.716,98.72 74.482,99.494 74.616,100.039C74.751,100.584 76.203,100.693 77.863,100.281C79.522,99.869 80.756,99.095 80.622,98.55Z" style="fill:white;fill-opacity:0.15;"/>
    <path d="M206.997,127.242L203.946,126.93C200.461,126.033 197.144,124.596 194.002,122.611C193.939,122.571 193.879,122.525 193.823,122.475C193.11,121.833 192.387,121.461 191.628,121.378C191.681,120.451 191.644,119.76 191.518,119.305C191.362,118.74 191.13,117.843 190.825,116.611C190.467,115.165 190.663,114.042 191.422,112.949C191.969,112.162 192.328,111.594 192.493,111.238C192.607,110.993 192.688,110.734 192.728,110.468C192.739,110.398 192.789,109.584 192.881,108.032C193.014,105.78 195.727,107.404 195.842,104.932C195.903,103.63 195.812,102.057 197.391,102.035C199.165,102.011 199.805,100.378 201.164,99.58C202.82,98.608 204.593,98.427 206.49,99.039C206.592,99.072 206.712,98.999 206.848,98.816C208.257,101.321 209.358,103.946 210.154,106.693C210.701,108.584 211.029,110.248 211.132,111.687C211.224,112.976 209.268,112.523 208.602,112.541C208.313,112.548 208.055,112.71 207.919,112.966C207.667,113.441 207.555,113.956 207.587,114.504C207.643,115.471 207.896,116.478 208.33,117.524C207.607,117.332 206.699,117.013 206.062,117.322C205.753,117.471 205.678,117.873 205.909,118.126C206.834,119.137 207.935,119.734 209.219,119.91C209.156,120.352 209.152,120.986 209.205,121.82C209.262,122.71 209.014,123.641 208.459,124.614C207.953,125.502 207.464,126.378 206.997,127.242ZM207.011,105.792C206.679,105.83 206.483,106.504 206.57,107.298C206.659,108.092 206.997,108.707 207.328,108.671C207.66,108.634 207.856,107.959 207.769,107.165C207.68,106.371 207.342,105.756 207.011,105.792ZM201.953,104.351C201.987,104.474 202.122,104.534 202.235,104.477C203.863,103.653 206.523,103.899 207.793,103.746C208.085,103.71 208.234,103.378 208.068,103.135C207.915,102.909 207.653,102.766 207.279,102.71C205.505,102.437 203.78,102.843 202.099,103.929C201.97,104.016 201.907,104.175 201.947,104.325L201.953,104.351Z" style="fill:white;fill-opacity:0.95;"/>
    <path d="M269.894,102.604C269.94,102.52 269.917,102.414 269.841,102.361C268.023,101.075 266.054,100.61 263.932,100.972C263.713,101.009 263.567,101.122 263.497,101.304C263.448,101.431 263.537,101.574 263.673,101.58C265.878,101.716 267.934,101.823 269.642,102.716C269.725,102.756 269.824,102.73 269.867,102.65L269.894,102.604Z" style="fill:white;fill-opacity:0.15;"/>
    <path d="M79.183,102.34C78.773,102.384 78.521,103.185 78.618,104.129C78.716,105.075 79.128,105.806 79.536,105.764C79.947,105.72 80.199,104.919 80.102,103.975C80.003,103.029 79.592,102.298 79.183,102.34Z" style="fill:white;fill-opacity:0.15;"/>
    <path d="M85.393,102.468C85.073,102.497 84.881,103.195 84.96,104.021C85.04,104.849 85.362,105.494 85.681,105.464C86.002,105.434 86.194,104.736 86.115,103.91C86.035,103.082 85.713,102.437 85.393,102.468Z" style="fill:white;fill-opacity:0.15;"/>
    <path d="M201.953,104.351C201.987,104.474 202.122,104.534 202.235,104.477C203.863,103.653 206.523,103.899 207.793,103.746C208.085,103.71 208.234,103.378 208.068,103.135C207.915,102.909 207.653,102.766 207.279,102.71C205.505,102.437 203.78,102.843 202.099,103.929C201.97,104.016 201.907,104.175 201.947,104.325L201.953,104.351Z" style="fill:white;fill-opacity:0.15;"/>
    <path d="M213.046,104.58C212.962,104.19 212.872,103.798 212.775,103.404C212.555,103.417 212.334,103.44 212.113,103.474C211.738,103.531 211.477,103.674 211.324,103.899C211.159,104.142 211.307,104.475 211.599,104.511C211.979,104.557 212.483,104.566 213.046,104.58Z" style="fill:white;fill-opacity:0.15;"/>
    <path d="M264.511,104.026C264.134,103.959 263.709,104.58 263.561,105.412C263.414,106.245 263.6,106.976 263.975,107.042C264.353,107.109 264.777,106.487 264.926,105.656C265.072,104.823 264.887,104.092 264.511,104.026Z" style="fill:white;fill-opacity:0.15;"/>
    <path d="M257.666,106.121C257.746,105.539 257.83,104.97 257.916,104.418C258.035,104.257 258.171,104.17 258.299,104.193C258.569,104.24 258.704,104.767 258.597,105.367C258.491,105.967 258.185,106.415 257.912,106.367C257.808,106.348 257.724,106.259 257.666,106.121Z" style="fill:white;fill-opacity:0.15;"/>
    <path d="M207.011,105.792C206.679,105.83 206.483,106.504 206.57,107.298C206.659,108.092 206.997,108.707 207.328,108.671C207.66,108.634 207.856,107.959 207.769,107.165C207.68,106.371 207.342,105.756 207.011,105.792Z" style="fill:white;fill-opacity:0.15;"/>
    <path d="M213.428,106.596C213.525,107.184 213.608,107.766 213.677,108.341C213.603,108.491 213.497,108.586 213.369,108.597C213.061,108.625 212.745,108.159 212.663,107.557C212.582,106.957 212.765,106.445 213.073,106.417C213.196,106.406 213.319,106.474 213.428,106.596Z" style="fill:white;fill-opacity:0.15;"/>
    <path d="M261.246,119.003C261.965,118.933 262.765,118.748 263.64,118.448C264.781,118.057 266.662,116.226 264.611,115.381C264.034,115.143 263.179,115.514 262.509,115.714C261.73,116.192 260.755,116.461 259.584,116.508C259.137,116.525 258.851,116.58 258.726,116.67C258.296,116.98 258.219,117.743 258.712,118.059C259.452,118.533 260.297,118.847 261.246,119.003Z" style="fill:white;fill-opacity:0.15;"/>
    <path d="M147.779,115.437C149.348,115.887 150.836,117.094 151.843,118.405C153.551,120.624 154.101,124.581 153.683,127.139C153.246,129.809 149.503,133.576 147.781,135.13C147.78,132.122 147.78,124.509 147.779,115.437Z" style="fill:white;fill-opacity:0.95;"/>
    <path d="M209.219,119.91C209.852,119.956 211.116,119.747 211.424,119.122C211.613,118.737 211.377,118.278 210.953,118.212C209.899,118.048 209.023,117.82 208.33,117.524C207.607,117.332 206.699,117.013 206.062,117.322C205.753,117.471 205.678,117.873 205.909,118.126C206.834,119.137 207.935,119.734 209.219,119.91Z" style="fill:white;fill-opacity:0.15;"/>
    <path d="M143.002,138.877C142.998,131.7 142.994,125.682 142.993,123.043C142.353,124.285 141.633,125.398 140.841,126.385C140.559,126.737 140.204,126.917 139.776,126.927C139.498,126.933 139.252,126.724 139.199,126.432C138.831,124.418 140.254,122.106 138.984,120.352C138.765,120.046 138.344,119.976 138.035,120.189C136.606,121.186 135.91,123.093 135.751,124.637C135.469,127.312 135.121,129.996 134.703,132.698C134.501,132.644 134.393,132.718 134.371,132.92C134.362,133.003 134.385,133.089 134.434,133.159C136.231,135.733 138.334,137.123 141.424,139.253C141.951,139.615 142.478,139.492 143.002,138.877Z" style="fill:white;fill-opacity:0.95;"/>
    <path d="M267.659,134.106C268.458,131.947 267.825,129.073 266.899,127.033C267.052,126.89 267.227,126.79 267.423,126.737C270.54,125.904 273.59,124.699 276.562,123.086C276.792,122.961 278.394,122.13 279.629,121.463C280.405,121.045 281.037,120.69 281.092,120.617L282.086,121.099C282.086,121.099 281.66,121.431 280.988,121.967C279.051,123.514 275.075,126.761 273.412,128.638C271.828,130.426 270.411,132.768 270.149,135.156L269.924,137.226C269.915,137.339 269.801,137.416 269.695,137.375C269.074,137.141 268.55,136.263 268.13,134.744C268.093,134.611 268.027,134.488 267.941,134.382C267.931,134.372 267.834,134.365 267.649,134.362C267.636,134.266 267.639,134.179 267.659,134.106Z" style="fill:white;fill-opacity:0.75;"/>
    <path d="M203.946,126.93C203.346,127.734 202.955,128.638 202.779,129.644C202.67,130.252 202.573,130.688 202.487,130.953L199.808,131.967C198.763,129.88 197.458,128.015 195.892,126.378C195.488,125.956 194.725,125.272 193.607,124.332C192.828,123.677 192.062,122.996 191.306,122.292L191.628,121.378C192.387,121.461 193.11,121.833 193.823,122.475C193.879,122.525 193.939,122.571 194.002,122.611C197.144,124.596 200.461,126.033 203.946,126.93Z" style="fill:white;fill-opacity:0.75;"/>
    <path d="M187.629,129.854C188.799,128.315 189.403,126.495 189.442,124.388C190.182,124.049 190.805,123.352 191.306,122.292C192.062,122.996 192.828,123.677 193.607,124.332C194.725,125.272 195.488,125.956 195.892,126.378C197.458,128.015 198.763,129.88 199.808,131.967C196.943,132.717 194.383,132.865 192.125,132.418C190.659,132.128 189.16,131.272 187.629,129.854Z" style="fill:white;fill-opacity:0.95;"/>
    <path d="M58.701,130.305C58.944,130.219 59.109,130.133 59.202,130.05C59.222,130.03 59.239,130.006 59.249,129.98C60.144,127.674 60.23,125.039 58.99,122.787C61.802,124.365 64.819,125.013 68.042,124.73C68.188,125.312 68.42,125.718 68.735,125.946C70.647,127.326 72.221,128.927 73.428,130.787C73.714,131.228 76.521,134.917 77.158,135.983C77.125,135.998 77.104,136.029 77.093,136.072C74.779,139.165 68.028,139.335 64.71,137.169C64.577,136.608 64.401,136.213 64.183,135.99C62.392,134.163 60.568,132.266 58.701,130.305Z" style="fill:white;fill-opacity:0.95;"/>
    <path d="M76.143,126.853C75.938,128.136 76.08,129.279 76.571,130.279C76.554,130.87 76.674,131.405 76.932,131.88C77.798,133.611 77.871,134.977 77.158,135.983C76.521,134.917 73.714,131.228 73.428,130.787C72.221,128.927 70.647,127.326 68.735,125.946C68.42,125.718 68.188,125.312 68.042,124.73C70.642,125.91 73.341,126.618 76.143,126.853Z" style="fill:white;fill-opacity:0.75;"/>
    <path d="M183.971,133.598C185.38,132.452 186.597,131.202 187.629,129.854C189.16,131.272 190.659,132.128 192.125,132.418C194.383,132.865 196.943,132.717 199.808,131.967L202.487,130.953C202.471,131.066 202.494,131.206 202.554,131.375C202.451,132.246 202.58,133.046 202.938,133.777C201.937,138.412 201.219,143.073 200.789,147.755C200.387,152.137 200.367,156.569 200.262,160.984C200.245,161.718 200.152,163.403 199.99,166.041C199.881,167.825 199.881,169.612 199.997,171.406C200.385,177.41 201.338,183.405 202.825,189.397C202.979,190.015 203.124,190.606 203.26,191.168C202.842,191.474 202.384,191.653 201.887,191.703C197.64,192.127 193.501,191.822 189.472,190.789C189.711,189.753 189.943,188.689 190.169,187.6C191.673,180.321 192.407,172.872 192.357,165.253C192.354,164.808 192.304,164.363 192.205,163.924C191.063,158.869 189.765,153.018 188.298,146.369C187.518,142.831 186.077,138.575 183.971,133.598Z" style="fill:white;fill-opacity:0.5;"/>
    <path d="M27.177,185.187C26.729,185.187 26.533,178.387 27.419,175.048C29.286,167.971 31.915,160.12 34.028,154.104C34.823,151.838 35.128,149.791 35.682,147.446C36.438,144.22 37.403,141.229 38.58,138.475C39.419,136.505 40.003,135.246 40.324,134.704C41.333,133.013 43.302,130.864 45.285,130.359C46.612,130.02 48.147,129.907 49.891,130.016C51.798,130.136 53.704,130.279 55.611,130.445C55.72,130.455 55.804,130.501 55.86,130.578C55.91,130.647 55.919,130.741 55.886,130.85C55.162,133.289 54.743,135.903 54.364,138.648C54.361,138.668 54.358,138.688 54.351,138.704L53.744,140.352C53.698,140.479 53.695,140.615 53.734,140.744C54.093,141.929 54.431,142.771 54.759,143.269C57.224,147.021 59.4,150.597 61.298,153.997C62.33,155.847 63.364,157.48 64.418,158.874C64.547,159.045 64.551,159.277 64.431,159.449C63.043,161.457 61.693,163.343 60.744,165.443C59.69,167.775 59.365,170.536 59.772,173.722C60.064,176.005 60.306,178.577 60.538,181.437C60.554,181.629 60.731,181.769 60.92,181.736L67.684,180.599C70.705,180.393 72.817,180.296 74.014,180.317C74.17,180.32 74.293,180.417 74.376,180.606C74.415,180.696 74.459,180.755 74.509,180.782C74.589,180.827 74.661,180.825 74.724,180.772C74.339,181.506 72.895,181.958 72.144,182.304C71.995,182.373 71.889,182.506 71.852,182.666L71.292,185.178C64.649,185.184 58.006,185.188 51.364,185.189C41.181,185.189 32.554,185.188 27.177,185.187ZM51.821,153.535C51.655,153.745 51.522,154.094 51.426,154.589C50.882,157.356 50.534,160.532 50.359,163.652C50.044,169.303 49.616,174.108 49.075,178.061C49.069,178.118 49.095,178.174 49.148,178.201L54.676,180.809C54.802,180.869 54.941,180.756 54.905,180.619C54.215,177.968 53.87,175.018 53.877,172.091C53.88,171.676 53.883,168.639 53.887,162.974C53.89,161.277 53.827,159.921 53.698,158.911C53.452,156.948 53.247,154.981 52.53,153.605C52.388,153.333 52.013,153.296 51.821,153.535Z" style="fill:white;fill-opacity:0.75;"/>
    <path d="M55.611,130.445C55.777,130.226 55.943,130.123 56.108,130.139C57.153,130.242 58.015,130.299 58.701,130.305C60.568,132.266 62.392,134.163 64.183,135.99C64.401,136.213 64.577,136.608 64.71,137.169C64.799,138.316 64.924,139.436 65.081,140.528C66.038,147.174 66.785,153.722 67.373,159.363C68.009,165.476 68.396,171.346 67.485,177.3C67.293,178.559 67.359,179.659 67.684,180.599L60.92,181.736C60.731,181.769 60.554,181.629 60.538,181.437C60.306,178.577 60.064,176.005 59.772,173.722C59.365,170.536 59.69,167.775 60.744,165.443C61.693,163.343 63.043,161.457 64.431,159.449C64.551,159.277 64.547,159.045 64.418,158.874C63.364,157.48 62.33,155.847 61.298,153.997C59.4,150.597 57.224,147.021 54.759,143.269C54.431,142.771 54.093,141.929 53.734,140.744C53.695,140.615 53.698,140.479 53.744,140.352L54.351,138.704C54.358,138.688 54.361,138.668 54.364,138.648C54.743,135.903 55.162,133.289 55.886,130.85C55.919,130.741 55.91,130.647 55.86,130.578C55.804,130.501 55.72,130.455 55.611,130.445Z" style="fill:white;fill-opacity:0.65;"/>
    <path d="M76.571,130.279L78.123,131.106C78.166,131.103 81.154,131.485 82.517,131.289L84.118,132.757C84.208,132.84 84.31,132.907 84.42,132.957C85.079,133.254 85.845,133.373 86.386,133.814C86.986,134.303 87.287,134.983 87.295,135.86C87.332,139.93 86.95,143.675 86.131,147.087C85.06,151.582 84.119,155.611 83.326,159.177C83.222,159.642 83.316,160.13 83.581,160.526C84.791,162.33 86.5,164.701 88.704,167.642C89.709,168.984 90.258,169.914 89.848,171.403C89.209,173.728 88.624,176.377 88.084,179.344C87.395,179.812 85.546,180.536 84.108,181.025C84.018,178.243 83.946,176.052 83.869,175.224C83.495,171.071 83.129,166.755 82.775,162.273C82.599,160.044 82.026,155.938 81.061,149.947C80.212,144.678 79.685,140.456 78.922,136.352C78.786,135.618 78.623,134.967 78.435,134.405C78.325,134.077 78.084,133.452 77.705,132.528C77.39,131.76 77.135,131.545 76.932,131.88C76.674,131.405 76.554,130.87 76.571,130.279Z" style="fill:white;fill-opacity:0.65;"/>
    <path d="M284.255,130.704L285.804,132.369C286.563,136.392 286.795,140.432 286.497,144.489C286.437,145.303 286.311,145.967 286.115,146.482C285.989,146.814 285.545,146.874 285.336,146.588C284.321,145.2 283.582,144.25 281.781,143.957C281.496,143.911 281.257,144.163 281.314,144.445C281.527,145.506 281.662,146.166 281.712,146.422C282.079,148.303 281.536,150.137 280.113,151.436C279.639,151.761 276.987,154.038 276.708,154.306C274.674,156.262 272.731,158.322 270.902,160.506C269.956,161.635 269.264,162.841 268.514,164.097L265.547,165.039C266.177,163.564 278.935,143.052 282.733,136.762C283.134,136.13 283.469,135.562 283.738,135.06C284.301,134.007 284.433,132.754 284.185,131.289C284.167,131.183 284.175,131.073 284.209,130.97C284.248,130.847 284.265,130.761 284.255,130.704Z" style="fill:white;fill-opacity:0.35;"/>
    <path d="M82.517,131.289C84.967,131.179 87.126,131.345 89.341,132.455C89.994,132.781 90.69,133.315 91.433,134.06C94.354,136.987 97.173,140.037 100.307,143.406C103.158,146.472 108.391,151.263 111.833,155.456C111.995,155.655 112.294,155.682 112.489,155.512C115.072,153.276 117.483,150.778 119.721,148.014C122.696,144.342 126.091,139.937 129.905,134.791C130.604,133.85 131.178,132.973 131.626,132.166C131.679,132.073 131.775,132.006 131.881,131.993C133.065,131.84 133.817,132.395 134.703,132.698C134.501,132.644 134.393,132.718 134.371,132.92C134.362,133.003 134.385,133.089 134.434,133.159C136.231,135.733 138.334,137.123 141.424,139.253C141.951,139.615 142.26,139.957 142.19,140.312C141.855,141.987 140.927,143.748 140.131,145.296C139.239,147.03 138.582,148.349 138.168,149.256C135.989,154.007 133.476,158.559 130.621,162.914C129.112,165.217 127.534,167.293 125.892,169.144C124.971,170.177 123.909,171.111 122.709,171.945C122.477,172.104 122.165,172.343 121.777,172.662C120.889,173.393 119.629,173.48 118.435,173.563C115.169,173.792 111.355,172.789 108.172,171.559C103.811,169.878 99.574,167.768 95.455,165.23C95.379,165.184 95.283,165.234 95.276,165.323C94.903,170.048 93.53,184.229 93.198,185.121C93.107,184.532 92.998,183.817 92.962,183.394C92.816,181.693 92.391,180.705 91.43,179.38C91.23,179.105 90.896,178.962 90.561,179.008L88.084,179.344C88.624,176.377 89.209,173.728 89.848,171.403C90.258,169.914 89.709,168.984 88.704,167.642C86.5,164.701 84.791,162.33 83.581,160.526C83.316,160.13 83.222,159.642 83.326,159.177C84.119,155.611 85.06,151.582 86.131,147.087C86.95,143.675 87.332,139.93 87.295,135.86C87.287,134.983 86.986,134.303 86.386,133.814C85.845,133.373 85.079,133.254 84.42,132.957C84.31,132.907 84.208,132.84 84.118,132.757L82.517,131.289Z" style="fill:white;fill-opacity:0.75;"/>
    <path d="M202.554,131.375C209.308,134.877 216.049,137.073 222.781,137.967C230.404,138.977 237.958,138.967 245.449,137.934C246.075,137.847 248.473,137.392 252.638,136.568C254.922,136.116 256.822,135.149 259.163,134.734C261.73,134.279 264.353,134.129 267.029,134.289C266.157,135.362 264.917,136.352 264.2,137.233C262.97,138.744 261.823,139.706 261.189,141.279C261.097,141.509 261.262,141.761 261.511,141.768L262.143,141.782C261.993,141.785 261.864,141.814 261.76,141.871C261.663,141.923 261.6,142.02 261.594,142.13C261.568,142.611 261.507,142.94 261.402,143.116C259.003,147.136 257.26,151.512 256.119,156.22C250.426,156.07 246.536,155.911 244.45,155.741C236.704,155.114 229.214,153.389 221.978,150.572C221.305,150.309 220.649,150.027 220.012,149.725C219.909,149.525 219.836,149.329 219.787,149.133C219.016,146.081 217.97,142.95 216.653,139.734C216.52,139.409 216.325,139.113 216.083,138.861C213.509,136.183 210.415,134.675 206.805,134.316C205.913,134.227 205.263,134.15 204.861,134.086C204.294,133.997 203.654,133.894 202.938,133.777C202.58,133.046 202.451,132.246 202.554,131.375Z" style="fill:white;fill-opacity:0.65;"/>
    <path d="M64.71,137.169C68.028,139.335 74.779,139.165 77.093,136.072L77.158,135.983C77.871,134.977 77.798,133.611 76.932,131.88C77.135,131.545 77.39,131.76 77.705,132.528C78.084,133.452 78.325,134.077 78.435,134.405C78.623,134.967 78.786,135.618 78.922,136.352C79.685,140.456 80.212,144.678 81.061,149.947C82.026,155.938 82.599,160.044 82.775,162.273C83.129,166.755 83.495,171.071 83.869,175.224C83.946,176.052 84.018,178.243 84.108,181.025L84.068,181.038C83.309,181.296 82.671,181.485 82.387,181.533C81.664,181.656 81.123,181.487 80.769,181.028C79.81,179.786 81.276,178.775 82.334,177.765C82.65,177.464 82.731,177.117 82.57,176.722C82.527,176.619 82.427,176.557 82.318,176.563C78.963,176.731 76.906,178.41 74.724,180.772C74.661,180.825 74.589,180.827 74.509,180.782C74.459,180.755 74.415,180.696 74.376,180.606C74.293,180.417 74.17,180.32 74.014,180.317C72.817,180.296 70.705,180.393 67.684,180.599C67.359,179.659 67.293,178.559 67.485,177.3C68.396,171.346 68.009,165.476 67.373,159.363C66.785,153.722 66.038,147.174 65.081,140.528C64.924,139.436 64.799,138.316 64.71,137.169Z" style="fill:white;fill-opacity:0.35;"/>
    <path d="M285.804,132.369L292.767,135.06C293.006,135.153 295.062,135.989 296.567,138.385C298.182,140.956 299.359,144.067 299.896,147.838C300.039,148.838 300.032,159.203 299.89,160.685C299.681,162.888 299.585,165.875 299.097,168.423C298.616,170.941 298.013,173.799 297.28,176.991C296.584,180.028 295.95,182.782 294.571,185.427C293.815,186.879 293.331,187.856 293.115,188.354C293.012,188.593 292.92,189.032 292.837,189.673C291.59,191.65 290.247,193.487 288.808,195.178C287.879,196.062 286.961,197.056 286.032,197.796C284.395,199.1 282.63,200.162 280.737,200.989C280.001,201.198 279.258,201.436 278.512,201.706C276.485,202.441 274.47,202.776 272.427,203.241C270.81,203.61 266.875,203.733 265.04,203.897C265.331,203.324 265.21,202.729 265.192,202.554C264.824,198.962 264.16,195.617 263.209,192.517C264.369,191.862 265.367,191.256 266.2,190.696C269.171,188.698 272.192,186.453 275.252,183.945C276.015,183.214 276.801,182.52 277.613,181.862C277.975,181.569 278.18,181.254 278.233,180.915C278.355,180.147 279.819,162.679 279.755,160.243C279.679,157.33 279.798,154.396 280.113,151.436C281.536,150.137 282.079,148.303 281.712,146.422C281.662,146.166 281.527,145.506 281.314,144.445C281.257,144.163 281.496,143.911 281.781,143.957C283.582,144.25 284.321,145.2 285.336,146.588C285.545,146.874 285.989,146.814 286.115,146.482C286.311,145.967 286.437,145.303 286.497,144.489C286.795,140.432 286.563,136.392 285.804,132.369Z" style="fill:white;fill-opacity:0.65;"/>
    <path d="M153.929,185.178C153.869,182.659 154.002,180.281 154.33,178.045C155.424,170.529 156.296,164.396 156.943,159.642C157.434,156.041 158.074,152.426 158.866,148.798C159.068,147.874 159.46,146.987 160.04,146.133C164.427,139.684 171.851,135.608 179.455,134.256C180.983,133.983 182.489,133.764 183.971,133.598C186.077,138.575 187.518,142.831 188.298,146.369C189.765,153.018 191.063,158.869 192.205,163.924C192.304,164.363 192.354,164.808 192.357,165.253C192.407,172.872 191.673,180.321 190.169,187.6C189.943,188.689 189.711,189.753 189.472,190.789C188.441,194.663 187.531,198.674 185.311,202.108C183.137,205.472 180.018,205.148 176.888,203.457C174.544,202.192 169.633,198.294 169.633,198.294C170.376,196.311 171.208,194.47 172.126,192.779C172.415,192.248 173.864,189.553 176.477,184.693C176.775,184.134 176.948,183.709 176.998,183.417C177.014,183.324 177.011,183.227 176.981,183.134L171.347,165.237C171.298,165.077 171.062,165.097 171.039,165.263C170.522,168.812 169.683,172.26 168.519,175.609C167.879,177.447 167.342,179.168 166.904,180.772C166.433,182.503 165.985,184.251 165.561,186.015C163.929,187.52 161.95,188.404 159.619,188.66C158.329,188.8 157.151,188.825 156.088,188.728L156.031,188.723C155.86,188.705 155.373,188.429 155.215,188.327L155.172,188.297C154.293,187.643 153.879,186.603 153.929,185.178Z" style="fill:white;fill-opacity:0.25;"/>
    <path d="M220.012,149.725C219.982,149.735 219.959,149.748 219.942,149.771C219.926,149.794 219.922,149.821 219.929,149.848C221.043,154.22 221.869,157.858 222.406,160.765C223.126,164.679 224.051,170.274 225.175,177.55L225.437,178.742C225.566,179.317 225.609,179.972 225.566,180.706C225.314,185.005 225.002,188.51 224.634,191.218C222.963,192.118 221.445,192.601 220.078,192.67C218.656,192.741 217.174,192.268 215.628,191.254C214.889,190.59 214.445,189.67 214.289,188.49C213.755,184.447 213.194,179.865 212.608,174.739C212.365,172.603 211.712,169.878 211.467,168.42C211.437,168.244 211.185,168.234 211.142,168.41C211.062,168.732 211.022,168.895 211.022,168.901C210.959,169.755 208.496,183.676 208.957,184.739C210.27,187.743 210.979,189.497 212.399,192.175C213.606,194.46 215.038,197.108 216.185,199.876C216.394,200.384 216.676,200.866 217.031,201.318C217.147,201.7 217.293,203.328 217.347,204.955C216.773,205.333 216.023,205.56 215.952,205.583C215.951,205.583 215.951,205.583 215.95,205.584C214.534,206.026 213.28,205.934 212.193,205.308C211.038,204.642 210.107,204.225 209.394,204.055C208.721,203.082 208.019,202.055 207.285,200.982C206.351,199.616 205.601,198.205 205.13,196.776C204.517,194.919 203.893,193.052 203.26,191.168C203.124,190.606 202.979,190.015 202.825,189.397C201.338,183.405 200.385,177.41 199.997,171.406C199.881,169.612 199.881,167.825 199.99,166.041C200.152,163.403 200.245,161.718 200.262,160.984C200.367,156.569 200.387,152.137 200.789,147.755C201.219,143.073 201.937,138.412 202.938,133.777C203.654,133.894 204.294,133.997 204.861,134.086C205.263,134.15 205.913,134.227 206.805,134.316C210.415,134.675 213.509,136.183 216.083,138.861C216.325,139.113 216.52,139.409 216.653,139.734C217.97,142.95 219.016,146.081 219.787,149.133C219.836,149.329 219.909,149.525 220.012,149.725Z" style="fill:white;fill-opacity:0.25;"/>
    <path d="M255.897,168.101C255.877,167.124 255.821,166.19 255.731,165.297C255.519,163.21 255.549,161.851 255.522,160.087C255.512,159.509 255.575,158.861 255.711,158.144C255.837,157.466 255.973,156.825 256.119,156.22C257.26,151.512 259.003,147.136 261.402,143.116C261.507,142.94 261.568,142.611 261.594,142.13C261.6,142.02 261.663,141.923 261.76,141.871C261.864,141.814 261.993,141.785 262.143,141.782C262.184,141.782 262.225,141.783 262.267,141.784L263.816,141.595C263.961,141.578 264.062,141.735 263.988,141.861C263.651,142.432 263.173,143.15 262.562,144.023C261.754,145.18 261.846,147.675 261.955,149.476C262.198,153.489 262.251,157.12 262.108,160.37C262.065,161.336 261.664,164.474 261.525,166.307L255.897,168.101Z" style="fill:white;fill-opacity:0.85;"/>
    <path d="M280.113,151.436C279.639,151.761 276.987,154.038 276.708,154.306C274.674,156.262 272.731,158.322 270.902,160.506C269.956,161.635 269.264,162.841 268.514,164.097C268.777,163.995 269.115,164.162 269.227,164.532L275.252,183.945C276.015,183.214 276.801,182.52 277.613,181.862C277.975,181.569 278.18,181.254 278.233,180.915C278.355,180.147 279.819,162.679 279.755,160.243C279.679,157.33 279.798,154.396 280.113,151.436Z" style="fill:white;fill-opacity:0.85;"/>
    <path d="M51.821,153.535C51.655,153.745 51.522,154.094 51.426,154.589C50.882,157.356 50.534,160.532 50.359,163.652C50.044,169.303 49.616,174.108 49.075,178.061C49.069,178.118 49.095,178.174 49.148,178.201L54.676,180.809C54.802,180.869 54.941,180.756 54.905,180.619C54.215,177.968 53.87,175.018 53.877,172.091C53.88,171.676 53.883,168.639 53.887,162.974C53.89,161.277 53.827,159.921 53.698,158.911C53.452,156.948 53.247,154.981 52.53,153.605C52.388,153.333 52.013,153.296 51.821,153.535Z" style="fill:white;fill-opacity:0.5;"/>
    <path d="M93.198,185.121L93.209,185.191L71.834,185.19L71.292,185.178L71.852,182.666C71.889,182.506 71.995,182.373 72.144,182.304C72.895,181.958 74.339,181.506 74.724,180.772C76.906,178.41 78.963,176.731 82.318,176.563C82.427,176.557 82.527,176.619 82.57,176.722C82.731,177.117 82.65,177.464 82.334,177.765C81.276,178.775 79.81,179.786 80.769,181.028C81.123,181.487 81.664,181.656 82.387,181.533C82.671,181.485 83.309,181.296 84.068,181.038L84.108,181.025C85.546,180.536 87.395,179.812 88.084,179.344L90.561,179.008C90.896,178.962 91.23,179.105 91.43,179.38C92.391,180.705 92.816,181.693 92.962,183.394C92.998,183.817 93.107,184.532 93.198,185.121Z" style="fill:white;fill-opacity:0.95;"/>
    <path d="M169.633,198.294C169.633,198.294 174.544,202.192 176.888,203.457C180.018,205.148 183.137,205.472 185.311,202.108C187.531,198.674 188.441,194.663 189.472,190.789C193.501,191.822 197.64,192.127 201.887,191.703C202.384,191.653 202.842,191.474 203.26,191.168C203.893,193.052 204.517,194.919 205.13,196.776C205.601,198.205 206.351,199.616 207.285,200.982C208.019,202.055 208.721,203.082 209.394,204.055C209.938,204.936 210.27,205.736 210.389,206.454C210.918,209.647 211.241,212.943 211.371,216.342L211.586,221.98C212.312,235.847 212.637,249.748 212.558,263.685C206.977,265.197 201.914,266.131 197.367,266.493C195.673,266.629 194.081,266.871 192.722,266.881C188.978,266.911 186.465,266.908 185.181,266.868C184.628,266.851 182.86,266.672 179.879,266.33C175.887,265.871 171.851,264.855 167.769,263.283C164.646,262.081 161.847,260.532 159.377,258.642C159.105,258.433 158.604,257.918 157.875,257.094C157.802,257.014 157.755,256.914 157.735,256.808C157.672,256.469 157.682,256.037 157.762,255.516C159.589,243.612 160.992,235.176 161.976,230.206C163.339,223.295 164.735,216.727 166.768,210.235C166.785,210.181 166.797,210.125 166.803,210.069C167.024,209.027 168.264,203.256 169.633,198.294Z" style="fill:white;fill-opacity:0.75;"/>
    <path d="M166.803,210.069C166.821,209.893 166.782,209.714 166.692,209.557C163.287,204.383 160.035,199.113 157.393,193.462C156.609,191.786 155.879,190.077 155.215,188.327C155.373,188.429 155.86,188.705 156.031,188.723L156.088,188.728C157.151,188.825 158.329,188.8 159.619,188.66C161.95,188.404 163.929,187.52 165.561,186.015C166.387,189.204 167.395,192.424 168.578,195.673C168.854,196.427 169.205,197.301 169.633,198.294C168.264,203.256 167.024,209.027 166.803,210.069Z" style="fill:white;fill-opacity:0.85;"/>
    <path d="M292.837,189.673C292.973,190.972 293.238,192.188 293.633,193.317C294.146,194.796 294.654,196.434 295.151,198.228C294.14,201.215 292.143,203.659 289.163,205.564C287.879,206.384 286.493,206.923 285.008,207.178C286.105,204.544 287.022,201.836 287.747,199.055C288.036,197.946 288.556,196.514 288.808,195.178C290.247,193.487 291.59,191.65 292.837,189.673Z" style="fill:white;fill-opacity:0.5;"/>
    <path d="M217.031,201.318L215.628,191.254C217.174,192.268 218.656,192.741 220.078,192.67C221.445,192.601 222.963,192.118 224.634,191.218L222.99,207.816C222.966,208.042 222.986,208.271 223.049,208.491C224.707,214.428 225.686,218.182 225.981,219.76C226.236,221.126 226.117,222.524 225.616,223.956C225.384,224.621 224.561,225.76 223.146,227.375C222.466,228.149 221.378,229.555 219.886,231.588C219.724,231.81 219.544,231.847 219.345,231.697L219.307,231.652C219.316,229.962 219.295,228.113 219.222,226.15C220.883,224.284 221.398,222.166 220.768,219.79C220.715,219.594 220.443,219.574 220.367,219.764L219.062,222.963C218.773,218.449 218.186,213.508 217.081,208.614C217.359,208.321 217.402,206.639 217.347,204.955C217.293,203.328 217.147,201.7 217.031,201.318Z" style="fill:white;fill-opacity:0.85;"/>
    <path d="M265.04,203.897C264.733,204.501 263.97,205.08 262.149,205.12C259.56,205.177 259.671,202.863 259.671,202.863L258.198,194.985C258.215,194.683 258.228,194.341 258.238,193.959C258.262,193.025 258.609,192.161 259.621,192.048C260.493,191.951 261.69,192.108 263.209,192.517C264.16,195.617 264.824,198.962 265.192,202.554C265.21,202.729 265.331,203.324 265.04,203.897Z" style="fill:white;fill-opacity:0.25;"/>
    <path d="M154.462,193.59L154.453,257.436C154.453,257.532 154.376,257.609 154.28,257.609L9.841,257.609C9.745,257.609 9.669,257.532 9.669,257.439L9.652,193.59L154.462,193.59Z" style="fill:white;fill-opacity:0.95;"/>
    <path d="M245.809,207.645C245.658,207.649 245.516,207.646 245.386,207.634C244.374,207.185 243.469,206.361 242.676,205.162C242.199,204.437 241.695,203.517 241.164,202.401C240.916,201.876 241.057,199.219 241.595,199.072C242.064,198.943 242.598,198.911 243.142,198.933C244.752,199 246.443,199.549 246.735,199.517C247.402,199.441 248.319,199.107 249.474,198.5C249.587,198.441 249.673,198.337 249.706,198.215C249.912,197.463 249.748,196.901 249.215,196.52C249.132,196.461 249.036,196.431 248.937,196.431L245.863,196.431C245.77,196.431 245.687,196.384 245.634,196.308C245.332,195.865 245.379,195.537 245.764,195.334C245.869,195.279 246.065,195.193 246.323,195.092C247.442,194.652 249.73,193.912 250.9,193.996C252.035,194.077 253.198,195.748 254.408,195.952C257.884,196.539 257.897,195.108 258.198,194.985L259.671,202.863C259.628,203.055 253.125,205.026 252.167,205.773C251.805,206.055 247.915,207.59 245.809,207.645Z" style="fill:white;fill-opacity:0.95;"/>
    <path d="M288.808,195.178C287.879,196.062 286.961,197.056 286.032,197.796C284.395,199.1 282.63,200.162 280.737,200.989C281.4,203.281 281.874,204.8 282.163,205.547C282.501,206.424 282.275,206.776 281.383,207.039C279.749,207.52 278.114,208.082 276.482,208.72C279.4,208.544 282.242,208.032 285.008,207.178C286.105,204.544 287.022,201.836 287.747,199.055C288.036,197.946 288.556,196.514 288.808,195.178Z" style="fill:white;fill-opacity:0.85;"/>
    <path d="M295.151,198.228C297.011,202.53 298.046,206.976 298.258,211.571C298.368,213.903 298.142,217.352 297.582,221.916C296.749,228.704 296.302,232.418 296.236,233.056C296.003,235.332 295.864,236.465 295.851,238.236C295.821,242.206 295.917,246.097 296.139,249.914C296.182,250.652 296.202,253.01 296.206,256.994C296.206,258.678 295.927,260.061 295.874,261.549C295.791,263.785 294.515,265.42 292.22,265.742C291.172,265.888 290.436,266.021 289.537,266.134C289.862,263.493 289.947,260.44 290.207,258.23C290.341,257.097 290.409,256.13 290.413,255.326C290.421,253.728 290.702,251.711 290.744,250.24C290.995,241.612 290.993,234.774 290.738,229.724C290.419,223.405 289.795,217.241 288.785,211.248C288.743,210.999 288.526,210.819 288.274,210.826C284.742,210.923 281.383,210.941 278.193,210.876C277.006,210.852 274.858,210.614 271.747,210.162L276.482,208.72C279.4,208.544 282.242,208.032 285.008,207.178C286.493,206.923 287.879,206.384 289.163,205.564C292.143,203.659 294.14,201.215 295.151,198.228Z" style="fill:white;fill-opacity:0.25;"/>
    <path d="M254.935,215.601L249.72,217.179C249.332,217.295 248.924,217.079 248.801,216.694C247.967,214.07 246.726,210.469 245.809,207.645C247.915,207.59 251.805,206.055 252.167,205.773C253.125,205.026 259.628,203.055 259.671,202.863C259.671,202.863 259.56,205.177 262.149,205.12C263.97,205.08 264.733,204.501 265.04,203.897C266.875,203.733 270.81,203.61 272.427,203.241C274.47,202.776 276.485,202.441 278.512,201.706C279.258,201.436 280.001,201.198 280.737,200.989C281.4,203.281 281.874,204.8 282.163,205.547C282.501,206.424 282.275,206.776 281.383,207.039C279.749,207.52 278.114,208.082 276.482,208.72L271.747,210.162L254.935,215.601Z" style="fill:white;fill-opacity:0.35;"/>
    <path d="M219.307,231.652C219.279,236.708 218.98,240.342 218.977,241.339C218.971,243.615 217.77,262.326 217.542,262.386L212.558,263.685C212.637,249.748 212.312,235.847 211.586,221.98L211.371,216.342C211.241,212.943 210.918,209.647 210.389,206.454C210.27,205.736 209.938,204.936 209.394,204.055C210.107,204.225 211.038,204.642 212.193,205.308C213.28,205.934 214.534,206.026 215.95,205.584L215.952,205.583C216.054,205.551 216.163,205.557 216.262,205.6C216.766,205.813 216.835,207.956 217.081,208.614C218.186,213.508 218.773,218.449 219.062,222.963C219.132,224.053 219.184,225.117 219.222,226.15C219.295,228.113 219.316,229.962 219.307,231.652Z" style="fill:white;fill-opacity:0.65;"/>
    <path d="M289.537,266.134C288.413,266.137 287.282,266.164 286.152,266.21C285.134,266.253 284.245,266.018 283.482,265.506C282.932,265.137 282.348,264.42 281.728,263.353C280.346,260.971 279.192,258.472 278.266,255.858C278.091,253.967 277.922,252.598 277.762,251.751C277.025,247.834 275.325,239.306 272.669,226.162C272.364,224.641 271.76,221.764 270.298,220.95C269.506,220.508 268.352,220.037 266.836,219.541C266.654,219.481 266.458,219.494 266.289,219.574C265.718,219.845 265.414,220.308 265.371,220.963C265.361,221.116 265.392,221.271 265.46,221.408C266.265,223.013 267.119,224.361 268.06,225.441C268.355,225.78 268.535,226.206 268.564,226.654C268.608,227.325 268.739,229.438 268.959,232.99C269.551,242.595 270.735,250.773 272.487,262.25C272.493,262.293 272.561,263.034 272.676,264.473C272.683,264.559 272.613,264.634 272.523,264.632C271.864,264.615 271.233,264.722 270.63,264.934C267.771,265.17 265.357,264.24 263.388,262.147C262.473,261.174 261.647,259.642 260.864,258.124C259.498,255.469 258.145,251.705 256.809,246.828C254.922,239.95 254.04,233.219 254.163,226.638C254.219,223.511 254.478,219.83 254.935,215.601L271.747,210.162C274.858,210.614 277.006,210.852 278.193,210.876C281.383,210.941 284.742,210.923 288.274,210.826C288.526,210.819 288.743,210.999 288.785,211.248C289.795,217.241 290.419,223.405 290.738,229.724C290.993,234.774 290.995,241.612 290.744,250.24C290.702,251.711 290.421,253.728 290.413,255.326C290.409,256.13 290.341,257.097 290.207,258.23C289.947,260.44 289.862,263.493 289.537,266.134Z" style="fill:white;fill-opacity:0.4;"/>
    <path d="M278.266,255.858L278.061,255.077C278.028,254.954 277.855,254.954 277.819,255.074C277.729,255.366 277.703,255.702 277.743,256.084C277.978,258.286 278.084,260.213 278.058,261.865C278.048,262.413 277.749,262.988 277.162,263.582C276.821,263.924 276.148,264.21 275.136,264.436C273.671,264.765 272.168,264.931 270.63,264.934C271.233,264.722 271.864,264.615 272.523,264.632C272.613,264.634 272.683,264.559 272.676,264.473C272.561,263.034 272.493,262.293 272.487,262.25C270.735,250.773 269.551,242.595 268.959,232.99C268.739,229.438 268.608,227.325 268.564,226.654C268.535,226.206 268.355,225.78 268.06,225.441C267.119,224.361 266.265,223.013 265.46,221.408C265.392,221.271 265.361,221.116 265.371,220.963C265.414,220.308 265.718,219.845 266.289,219.574C266.458,219.494 266.654,219.481 266.836,219.541C268.352,220.037 269.506,220.508 270.298,220.95C271.76,221.764 272.364,224.641 272.669,226.162C275.325,239.306 277.025,247.834 277.762,251.751C277.922,252.598 278.091,253.967 278.266,255.858Z" style="fill:white;fill-opacity:0.25;"/>
    <path d="M85.445,97.62C85.77,97.71 86.112,97.828 86.46,97.973C88.039,98.628 89.142,99.579 88.927,100.097C88.736,100.553 87.588,100.522 86.238,100.061C86.054,99.998 85.868,99.928 85.679,99.85C84.099,99.195 82.996,98.243 83.212,97.725C83.38,97.321 84.3,97.299 85.445,97.62Z" style="fill:white;fill-opacity:0.15;"/>
    <path d="M243.142,198.933L235.66,175.456C235.627,175.353 235.627,175.244 235.66,175.141C235.796,174.722 236.055,174.453 236.429,174.333C242.922,172.267 249.411,170.19 255.897,168.101L268.514,164.097C268.777,163.995 269.115,164.162 269.227,164.532L275.252,183.945C272.192,186.453 269.171,188.698 266.2,190.696C265.367,191.256 264.369,191.862 263.209,192.517C261.69,192.108 260.493,191.951 259.621,192.048C258.609,192.161 258.262,193.025 258.238,193.959C258.228,194.341 258.215,194.683 258.198,194.985C257.897,195.108 257.884,196.539 254.408,195.952C253.198,195.748 252.035,194.077 250.9,193.996C249.73,193.912 247.442,194.652 246.323,195.092C246.118,195.165 245.931,195.246 245.764,195.334C245.379,195.537 245.332,195.865 245.634,196.308C245.687,196.384 245.77,196.431 245.863,196.431L248.937,196.431C249.036,196.431 249.132,196.461 249.215,196.52C249.748,196.901 249.912,197.463 249.706,198.215C249.673,198.337 249.587,198.441 249.474,198.5C248.319,199.107 247.402,199.441 246.735,199.517C246.443,199.549 244.752,199 243.142,198.933Z" style="fill:white;fill-opacity:0.35;"/>
    <path d="M267.029,134.289L267.659,134.106C267.639,134.179 267.636,134.266 267.649,134.362C267.559,134.352 267.5,134.405 267.466,134.518C266.977,136.171 266.652,137.904 266.498,139.728C266.267,142.472 266.15,143.847 266.147,143.854C265.954,145.847 265.966,147.436 265.696,149.363C264.944,154.729 264.33,160.104 263.865,165.496C263.945,165.492 264.021,165.494 264.095,165.499L261.524,166.315C261.524,166.312 261.525,166.309 261.525,166.307C261.664,164.474 262.065,161.336 262.108,160.37C262.251,157.12 262.198,153.489 261.955,149.476C261.846,147.675 261.754,145.18 262.562,144.023C263.173,143.15 263.651,142.432 263.988,141.861C264.062,141.735 263.961,141.578 263.816,141.595L262.267,141.784C262.225,141.783 262.184,141.782 262.143,141.782L261.511,141.768C261.262,141.761 261.097,141.509 261.189,141.279C261.823,139.706 262.97,138.744 264.2,137.233C264.917,136.352 266.157,135.362 267.029,134.289Z" style="fill:white;fill-opacity:0.35;"/>
    <path d="M283.499,121.544C282.246,124.129 281.934,126.495 283.423,129.053C283.715,129.555 283.993,130.106 284.255,130.704C284.265,130.761 284.248,130.847 284.209,130.97C284.175,131.073 284.167,131.183 284.185,131.289C284.433,132.754 284.301,134.007 283.738,135.06C283.609,135.3 283.256,135.897 282.733,136.762C278.935,143.052 266.177,163.564 265.547,165.039L264.095,165.499C264.021,165.494 263.945,165.492 263.865,165.496C264.33,160.104 264.944,154.729 265.696,149.363C265.966,147.436 265.954,145.847 266.147,143.854C266.15,143.847 266.267,142.472 266.498,139.728C266.652,137.904 266.977,136.171 267.466,134.518C267.5,134.405 267.559,134.352 267.649,134.362C267.834,134.365 267.931,134.372 267.941,134.382C268.027,134.488 268.093,134.611 268.13,134.744C268.55,136.263 269.074,137.141 269.695,137.375C269.801,137.416 269.915,137.339 269.924,137.226L270.149,135.156C270.411,132.768 271.828,130.426 273.412,128.638C275.075,126.761 279.051,123.514 280.988,121.967C281.66,121.431 282.086,121.099 282.086,121.099L283.4,121.345C283.489,121.365 283.539,121.461 283.499,121.544Z" style="fill:white;fill-opacity:0.95;"/>
    <path d="M79.668,120.435C81.939,120.667 83.82,120.096 85.299,118.734C85.781,118.29 86.051,117.777 85.491,117.272C85.425,117.212 85.348,117.169 85.262,117.146C84.589,116.963 83.358,116.956 81.565,117.159C81.313,117.187 80.719,117.17 79.784,117.096C79.545,117.077 79.313,117.006 79.104,116.893C78.551,116.594 78.046,116.262 77.592,115.896C76.879,115.322 76.085,115.131 75.613,115.989C75.556,116.092 75.536,116.212 75.556,116.332C75.816,117.838 76.601,118.989 77.884,119.79C78.395,120.109 78.892,120.198 79.482,120.395C79.545,120.416 79.605,120.428 79.668,120.435Z" style="fill:white;fill-opacity:0.95;"/>
    <path d="M63.881,115.335C62.929,111.422 62.145,107.411 61.566,103.301C61.533,103.065 61.314,102.902 61.079,102.939C57.882,103.436 56.392,105.972 56.612,109.102C56.733,110.806 57.769,113.618 59.643,114.308C60.807,114.737 62.173,115.119 63.725,115.494C63.818,115.517 63.904,115.431 63.881,115.335Z" style="fill:white;fill-opacity:0.95;"/>
</svg>
