<?xml version="1.0" encoding="UTF-8" standalone="no"?>
<!DOCTYPE svg PUBLIC "-//W3C//DTD SVG 1.1//EN" "http://www.w3.org/Graphics/SVG/1.1/DTD/svg11.dtd">
<svg width="100%" height="100%" viewBox="0 0 300 300" version="1.1" xmlns="http://www.w3.org/2000/svg" xmlns:xlink="http://www.w3.org/1999/xlink" xml:space="preserve" xmlns:serif="http://www.serif.com/" style="fill-rule:evenodd;clip-rule:evenodd;stroke-linejoin:round;stroke-miterlimit:2;">
    <path d="M192.962,7.489L192.965,26.181C193.072,30.893 190.7,34.423 185.636,34.427C163.026,34.443 138.502,34.446 112.064,34.436C111.015,34.436 109.998,34.262 109.011,33.917C105.429,32.661 104.57,29.469 104.57,26.052C104.57,16.806 104.573,10.596 104.583,7.418C104.596,2.896 107.523,0.011 112.064,0.008C126.448,-0.002 151.133,-0.002 186.117,0.004C186.695,0.004 187.521,0.195 188.599,0.576C191.7,1.67 192.862,4.413 192.962,7.489ZM125.451,4.384C122.769,4.413 119.929,4.416 116.924,4.4C116.379,4.397 115.785,4.474 115.14,4.632C111.77,5.459 110.644,7.963 110.679,11.206C110.734,16.167 110.731,20.175 110.673,23.231C110.612,26.397 111.538,29.237 114.936,30.066C115.414,30.186 116.024,30.357 116.763,30.58C116.818,30.596 116.873,30.605 116.927,30.605L125.18,30.551C125.244,30.551 125.309,30.531 125.364,30.496C125.709,30.273 125.88,29.815 125.88,29.121C125.873,23.134 125.87,15.027 125.873,4.803C125.873,4.571 125.683,4.381 125.451,4.384Z" style="fill:white;fill-opacity:0.95;fill-rule:nonzero;"/>
    <path d="M125.451,4.384C125.683,4.381 125.873,4.571 125.873,4.803C125.87,15.027 125.873,23.134 125.88,29.121C125.88,29.815 125.709,30.273 125.364,30.496C125.309,30.531 125.244,30.551 125.18,30.551L116.927,30.605C116.873,30.605 116.818,30.596 116.763,30.58C116.024,30.357 115.414,30.186 114.936,30.066C111.538,29.237 110.612,26.397 110.673,23.231C110.731,20.175 110.734,16.167 110.679,11.206C110.644,7.963 111.77,5.459 115.14,4.632C115.785,4.474 116.379,4.397 116.924,4.4C119.929,4.416 122.769,4.413 125.451,4.384Z" style="fill:white;fill-opacity:0.35;fill-rule:nonzero;"/>
    <path d="M192.965,26.181L192.962,7.489C195.111,5.762 196.68,7.285 197.293,9.367C197.616,10.467 197.803,11.626 197.854,12.839C198.019,16.864 197.967,20.11 197.693,22.582C197.522,24.138 196.877,26.481 195.182,26.865C194.443,27.033 193.704,26.804 192.965,26.181Z" style="fill:white;fill-opacity:0.75;fill-rule:nonzero;"/>
    <path d="M126.47,102.787C126.354,102.774 126.277,102.919 126.306,103.035C126.69,104.568 126.981,106.327 127.177,108.315C127.64,112.991 127.759,117.768 127.539,122.644C127.32,127.478 127.454,130.616 128.943,134.323C130.316,137.745 133.39,141.223 136.978,142.611C136.307,142.724 136.565,143.479 136.717,143.947C136.749,144.044 136.769,144.144 136.772,144.247C136.859,145.867 136.772,147.103 136.51,147.955C136.314,148.598 135.907,149.433 135.297,150.463C134.861,151.196 134.242,151.883 133.435,152.519C130.472,154.855 127.226,155.659 123.524,155.565C119.971,155.478 117.328,153.784 116.524,150.131C116.327,149.237 116.314,148.41 116.479,147.649C116.521,147.445 116.479,147.242 116.347,147.039C116.292,146.952 116.188,146.913 116.092,146.942C114.994,147.278 113.626,147.604 112.506,147.326C110.805,146.91 109.469,146.2 108.504,145.202C106.093,142.714 105.051,139.222 104.674,135.74C104.406,133.31 104.532,131.112 105.045,129.147C105.203,128.55 105.335,128.101 105.448,127.795C105.593,127.398 105.2,127.017 104.809,127.178C103.751,127.611 102.666,127.482 101.556,126.794C100.43,126.094 99.555,124.922 98.939,123.28C98.893,123.163 98.871,123.038 98.871,122.912L98.871,119.236C98.871,119.22 98.874,119.207 98.877,119.194C99.203,117.635 99.787,116.018 100.636,114.337C100.762,114.088 100.707,113.785 100.501,113.595C100.075,113.211 99.804,112.92 99.691,112.73C99.129,111.787 97.909,110.777 97.131,109.806C95.711,108.028 94.698,106.408 94.095,104.946C92.436,100.937 93.21,96.28 95.592,92.753C96.68,91.143 98.574,89.497 100.549,89.029C100.891,88.945 101.033,88.535 100.814,88.261C98.755,85.676 101.488,79.986 102.734,77.239C103.873,74.732 105.422,72.789 107.388,71.405C109.476,69.936 111.257,68.891 112.732,68.274C113.064,68.135 113.72,68.09 114.691,68.145C114.788,68.148 114.878,68.2 114.93,68.284L115.598,69.346C115.669,69.455 115.827,69.465 115.908,69.362C116.117,69.097 116.243,68.923 116.285,68.842C117.295,66.954 118.389,65.305 119.571,63.898C120.694,62.565 121.597,61.558 122.278,60.884C122.859,60.306 123.931,59.409 125.489,58.189C126.967,57.03 128.688,56.285 130.653,55.952C132.06,55.71 133.445,56.165 134.519,56.833C135.284,57.308 135.83,58.047 136.155,59.047C136.223,59.251 136.488,59.302 136.627,59.138C137.262,58.392 137.088,57.572 137.108,56.24C137.108,56.185 137.114,56.133 137.127,56.085L137.756,53.503C137.779,53.409 137.808,53.322 137.85,53.238L138.618,51.641C138.64,51.592 138.67,51.544 138.705,51.502C139.525,50.45 140.599,50.03 141.926,50.243C145.298,50.789 149.581,51.692 154.774,52.958C155.093,53.035 155.367,53.248 155.784,53.206C155.906,53.193 156.032,53.232 156.132,53.309L156.265,53.416C156.358,53.49 156.5,53.467 156.565,53.364C157.175,52.396 157.63,51.496 158.985,51.412C160.444,51.325 161.47,51.399 162.58,52.138C163.09,52.477 163.568,52.683 164.246,53.229C164.988,53.826 165.85,54.345 166.834,54.784C168.425,55.491 168.957,54.6 169.625,53.283C170.232,52.086 171.278,51.279 172.759,50.86C173.501,50.65 175.196,50.753 176.148,51.011C177.536,51.386 178.852,52.047 180.095,52.996C182.196,54.594 183.758,55.985 184.787,57.169C185.255,57.708 185.988,58.631 186.982,59.941C187.727,60.926 188.505,62.197 189.322,63.756C189.428,63.959 189.596,64.137 189.825,64.292C189.941,64.369 190.096,64.305 190.122,64.169C190.341,62.952 191.035,62.517 192.203,62.862C192.897,63.065 193.475,63.294 193.943,63.546C195.524,64.395 197.119,65.386 198.729,66.518C199.978,67.393 200.585,68.139 201.375,69.462C201.472,69.626 201.592,69.772 201.734,69.891C201.801,69.949 201.856,70.023 201.898,70.101C203.012,72.305 204.031,74.716 204.961,77.333C205.035,77.543 205.174,78.143 205.377,79.134C205.71,80.77 205.509,81.8 204.719,83.262C204.68,83.336 204.687,83.426 204.735,83.494C204.941,83.775 205.545,84.075 206.542,84.391C206.994,84.536 207.517,84.92 208.111,85.546C208.353,85.801 208.566,85.972 208.746,86.06C209.127,86.244 209.121,86.56 209.437,86.889C210.099,87.576 210.612,88.364 210.973,89.258C211.861,91.456 212.319,93.166 212.355,94.396C212.4,95.974 212.251,97.265 211.912,98.265C211.851,98.439 211.632,99.078 211.254,100.179C210.902,101.205 210.428,101.757 209.895,102.764C209.847,102.858 209.786,102.941 209.711,103.016L209.121,103.613C209.105,103.629 209.092,103.645 209.079,103.664C207.985,105.242 206.694,106.724 205.206,108.105C204.893,108.396 204.809,108.86 205.006,109.241C205.674,110.542 206.187,111.946 206.545,113.453C206.691,114.066 206.752,114.65 206.729,115.202C206.697,115.925 206.781,116.78 206.645,117.571C206.42,118.865 205.852,119.991 204.945,120.956C204.251,121.689 203.273,122.124 202.008,122.263C201.976,122.266 201.943,122.266 201.911,122.257L200.82,121.956C200.756,121.937 200.698,121.902 200.652,121.853C200.559,121.747 200.504,121.702 200.481,121.724C200.181,121.992 200.059,122.402 200.159,122.783C200.181,122.87 200.333,123.335 200.61,124.18C200.627,124.228 200.636,124.274 200.643,124.322L200.959,126.694C200.995,126.959 201.014,127.223 201.02,127.491C200.978,128.008 201.124,129.347 200.953,130.015C200.84,130.454 200.772,131.019 200.749,131.706C200.74,132.042 200.636,132.6 200.443,133.378C199.988,135.224 199.258,136.928 198.261,138.493C197.683,139.397 197.067,139.913 196.257,140.691C196.183,140.762 196.092,140.817 195.995,140.852C195.86,140.901 195.389,141.178 194.582,141.685C194.34,141.836 194.046,141.943 193.694,142.001C193.417,142.049 192.426,142.072 190.719,142.072C190.616,142.072 190.516,142.049 190.422,142.007L189.906,141.775C189.515,141.598 189.076,141.891 189.089,142.317C189.125,143.547 189.112,144.441 189.047,144.999C188.999,145.425 188.689,146.171 188.124,147.239C187.689,148.068 187.02,148.746 186.123,149.275C182.535,151.389 177.181,150.415 173.879,148.523C170.242,146.442 168.299,143.027 168.812,138.842C168.825,138.735 168.851,138.635 168.886,138.538C169.258,137.593 169.103,137.18 168.418,137.299C169.642,136.599 170.711,135.46 171.63,133.881C173.716,130.297 175.002,126.991 175.848,124.064C175.85,124.054 175.861,124.051 175.864,124.057C175.867,124.067 175.873,124.074 175.877,124.08C175.893,124.106 175.918,124.119 175.919,124.103C175.924,123.831 175.954,123.632 175.993,123.499C176.103,123.119 176.344,122.788 176.671,122.566C177.852,121.765 178.475,121.44 179.262,120.582C181.334,118.323 182.016,114.12 181.386,111.39C181.105,110.177 180.581,109.019 179.404,108.508C179.314,108.469 179.217,108.447 179.12,108.441C177.904,108.361 176.987,108.083 176.374,107.602C175.014,106.534 175.302,104.84 176.177,103.564C176.241,103.471 176.18,103.341 176.067,103.329C172.879,102.971 168.362,101.23 169.474,97.1C169.815,95.832 170.173,94.66 170.548,93.586C170.806,92.849 170.859,92.114 170.707,91.375C170.665,91.172 170.404,91.111 170.277,91.275C167.434,94.946 161.885,92.55 158.433,91.097C157.378,90.653 156.152,90.458 155.58,91.62C154.073,94.673 152.986,99.704 150.039,101.044C149.286,101.387 148.461,101.587 147.566,101.644C147.097,101.673 146.607,101.664 146.099,101.615C142.942,101.312 139.851,100.634 137.756,98.265C137.372,97.829 137.114,97.287 136.985,96.639C136.969,96.551 136.846,96.551 136.827,96.639C136.772,98.991 131.58,103.329 126.47,102.787Z" style="fill:white;fill-opacity:0.25;"/>
    <path d="M168.418,137.299C167.641,137.806 166.498,138.483 164.991,139.332C164.023,139.881 163.071,140.675 162.132,141.717C159.292,144.87 157.694,149.204 158.033,153.526C158.072,154.023 158.211,154.542 158.453,155.084C158.504,155.201 158.624,155.275 158.75,155.272C160.505,155.204 162.39,155.291 164.401,155.533C170.581,156.275 176.561,157.566 182.341,159.402C183.913,159.903 185.275,160.513 186.42,161.236C195.102,166.696 198.871,177.207 201.33,186.65C202.663,191.766 203.812,196.958 204.774,202.228C204.925,203.064 205.064,203.677 205.184,204.065C205.213,204.161 205.167,204.261 205.08,204.307L203.873,204.926L203.428,204.762C203.27,204.704 203.092,204.71 202.937,204.778C194.914,208.273 187.004,210.858 178.3,210.8C178.11,210.8 177.9,210.994 177.674,211.381C175.696,209.125 174.086,205.552 172.875,203.729C172.53,203.206 172.175,202.812 171.814,202.551C171.533,202.351 171.139,202.477 171.026,202.803C170.874,203.245 170.8,203.79 170.803,204.439C170.81,206.553 171.007,209.645 171.391,213.711C172.178,222.028 172.685,228.753 172.908,233.888C173.056,237.283 173.14,242.985 173.163,250.999C173.179,256.682 173.195,262.388 173.214,268.113C171.604,268.765 170.068,269.213 168.609,269.462C164.449,270.166 160.186,270.369 155.826,270.069C146.35,269.42 136.904,267.855 127.942,264.963C126.157,264.389 124.66,263.843 123.45,263.324C119.8,261.765 119.322,258.738 119.416,255.188C119.48,252.638 120.039,248.078 120.093,244.757C120.219,237.46 119.722,230.112 118.606,222.712L118.06,217.755C118.17,212.73 118.051,207.724 117.705,202.738C117.692,202.567 117.679,202.461 117.67,202.425C117.625,202.283 117.428,202.273 117.37,202.409C116.986,203.316 116.663,204.339 116.401,205.481C115.804,208.095 115.404,210.761 115.198,213.479C110.347,211.332 105.729,208.796 101.337,205.865C99.962,204.949 98.561,204.029 97.131,203.106L94.995,201.315C94.914,201.247 94.872,201.147 94.876,201.044C94.966,199.233 95.289,197.271 95.844,195.157C97.735,187.964 100.594,181.174 104.419,174.784C106.377,171.505 108.478,168.703 110.944,165.728C113.3,162.885 116.927,161.394 120.652,160.271C126.767,158.421 132.451,157.24 139.409,156.12C139.644,156.082 139.847,155.94 139.967,155.736C140.819,154.274 141.522,152.735 142.081,151.118C142.649,150.705 143.162,150.25 143.617,149.753C145.486,147.711 147.004,145.655 148.167,143.579C148.636,142.744 149.118,141.629 149.616,140.239C150.267,138.425 150.559,135.898 151.185,133.739C152.682,133.813 154.354,133.794 155.18,133.123C155.4,132.945 155.458,132.632 155.319,132.387C154.577,131.083 153.35,130.286 151.643,129.999C151.734,127.895 151.594,125.817 151.233,123.764C151.119,123.115 150.839,122.57 150.397,122.128C149.748,121.476 148.383,121.678 147.68,122.111C146.87,122.611 146.028,122.994 145.153,123.26C144.908,123.335 144.646,123.235 144.514,123.015C144.265,122.602 144.134,122.121 144.117,121.572C144.049,119.293 146.51,106.516 147.566,101.644C148.461,101.587 149.286,101.387 150.039,101.044C152.986,99.704 154.073,94.673 155.58,91.62C156.152,90.458 157.378,90.653 158.433,91.097C161.885,92.55 167.434,94.946 170.277,91.275C170.404,91.111 170.665,91.172 170.707,91.375C170.859,92.114 170.806,92.849 170.548,93.586C170.173,94.66 169.815,95.832 169.474,97.1C168.362,101.23 172.879,102.971 176.067,103.329C176.18,103.341 176.241,103.471 176.177,103.564C175.302,104.84 175.014,106.534 176.374,107.602C176.987,108.083 177.904,108.361 179.12,108.441C179.217,108.447 179.314,108.469 179.404,108.508C180.581,109.019 181.105,110.177 181.386,111.39C182.016,114.12 181.334,118.323 179.262,120.582C178.475,121.44 177.852,121.765 176.671,122.566C176.344,122.788 176.103,123.119 175.993,123.499C175.954,123.632 175.924,123.831 175.919,124.103C175.918,124.119 175.893,124.106 175.877,124.08C175.873,124.074 175.867,124.067 175.864,124.057C175.861,124.051 175.85,124.054 175.848,124.064C175.002,126.991 173.716,130.297 171.63,133.881C170.711,135.46 169.642,136.599 168.418,137.299ZM158.469,104.962C159.844,105.246 161.461,105.804 163.313,106.637C163.632,106.782 163.981,106.498 163.904,106.156C163.829,105.823 163.632,105.501 163.319,105.194C162.048,103.948 160.634,103.338 158.879,102.977C157.12,102.619 155.58,102.622 153.922,103.261C153.512,103.422 153.205,103.642 153.005,103.916C152.799,104.203 153.008,104.6 153.357,104.594C155.39,104.555 157.094,104.681 158.469,104.962ZM157.091,111.481C158.875,111.794 160.305,111.994 161.525,113.307C161.725,113.524 162.064,113.527 162.271,113.32L162.445,113.146C162.661,112.93 162.671,112.588 162.474,112.355C161.657,111.403 160.563,110.787 159.192,110.506C158.285,110.322 157.743,110.225 157.559,110.216C155.781,110.125 154.08,109.832 152.45,109.335C152.269,109.28 152.108,109.464 152.189,109.635C152.466,110.235 153.296,110.693 153.876,110.929C153.976,110.971 154.025,111.084 153.986,111.181C153.489,112.442 153.722,114.886 154.941,115.776C155.206,115.97 155.616,115.873 155.874,115.554C156.813,114.392 156.9,113.12 156.881,111.658C156.878,111.545 156.978,111.461 157.091,111.481Z" style="fill:white;fill-opacity:0.95;"/>
    <path d="M142.081,151.118C142.236,150.185 142.3,149.32 142.271,148.523C142.168,145.722 139.357,143.56 136.978,142.611C133.39,141.223 130.316,137.745 128.943,134.323C127.454,130.616 127.32,127.478 127.539,122.644C127.759,117.768 127.64,112.991 127.177,108.315C126.981,106.327 126.69,104.568 126.306,103.035C126.277,102.919 126.354,102.803 126.47,102.787C131.58,103.329 136.772,98.991 136.827,96.639C136.846,96.551 136.969,96.551 136.985,96.639C137.114,97.287 137.372,97.829 137.756,98.265C139.851,100.634 142.942,101.312 146.099,101.615C146.607,101.664 147.097,101.673 147.566,101.644C146.51,106.516 144.049,119.293 144.117,121.572C144.134,122.121 144.265,122.602 144.514,123.015C144.646,123.235 144.908,123.335 145.153,123.26C146.028,122.994 146.87,122.611 147.68,122.111C148.383,121.678 149.748,121.476 150.397,122.128C150.839,122.57 151.119,123.115 151.233,123.764C151.594,125.817 151.734,127.895 151.643,129.999C150.165,129.754 148.506,129.715 146.667,129.883C145.702,129.97 144.805,130.312 143.969,130.902C143.094,131.522 142.823,132.271 143.788,132.952C145.64,134.262 147.596,133.675 149.787,133.73C150.255,133.742 150.72,133.746 151.185,133.739C150.559,135.898 150.267,138.425 149.616,140.239C149.118,141.629 148.636,142.744 148.167,143.579C147.004,145.655 145.486,147.711 143.617,149.753C143.162,150.25 142.649,150.705 142.081,151.118ZM142.403,104.655C142.62,104.565 142.671,104.281 142.507,104.11C142.174,103.764 141.729,103.509 141.177,103.348C138.611,102.599 136.065,102.88 133.538,104.19C133.093,104.423 131.544,105.643 131.576,106.356C131.592,106.721 132.028,106.917 132.383,106.721C135.426,105.039 138.321,104.865 141.99,104.72C142.184,104.71 142.323,104.691 142.403,104.655ZM137.537,115.696C137.966,114.824 137.914,113.624 137.792,112.655C137.775,112.526 137.876,112.414 138.005,112.417C139.631,112.453 142.08,112.108 142.81,110.393C142.91,110.158 142.65,109.933 142.433,110.067C141.879,110.409 141.051,110.69 139.954,110.916C139.296,111.052 138.444,111.126 137.401,111.139C135.594,111.161 133.722,111.59 132.505,113.017C132.041,113.562 132.498,113.912 132.906,114.272C132.996,114.353 133.135,114.35 133.222,114.263L134.213,113.272C134.371,113.111 134.645,113.236 134.629,113.462C134.587,114.034 134.67,114.738 134.987,115.534C135.139,115.915 135.37,116.162 135.942,116.457C135.965,116.47 135.988,116.481 136.011,116.49C136.74,116.799 137.34,116.006 137.499,115.759C137.513,115.739 137.525,115.718 137.537,115.696Z" style="fill:white;fill-opacity:0.75;"/>
    <path d="M158.879,102.977C160.634,103.338 162.048,103.948 163.319,105.194C163.632,105.501 163.829,105.823 163.904,106.156C163.981,106.498 163.632,106.782 163.313,106.637C161.461,105.804 159.844,105.246 158.469,104.962C157.094,104.681 155.39,104.555 153.357,104.594C153.008,104.6 152.799,104.203 153.005,103.916C153.205,103.642 153.512,103.422 153.922,103.261C155.58,102.622 157.12,102.619 158.879,102.977Z" style="fill:white;fill-opacity:0.15;fill-rule:nonzero;"/>
    <path d="M142.403,104.655C142.323,104.691 142.184,104.71 141.99,104.72C138.321,104.865 135.426,105.039 132.383,106.721C132.028,106.917 131.592,106.721 131.576,106.356C131.544,105.643 133.093,104.423 133.538,104.19C136.065,102.88 138.611,102.599 141.177,103.348C141.729,103.509 142.174,103.764 142.507,104.11C142.671,104.281 142.62,104.565 142.403,104.655Z" style="fill:white;fill-opacity:0.15;fill-rule:nonzero;"/>
    <path d="M156.881,111.658C156.9,113.12 156.813,114.392 155.874,115.554C155.616,115.873 155.206,115.97 154.941,115.776C153.722,114.886 153.489,112.442 153.986,111.181C154.025,111.084 153.976,110.971 153.876,110.929C153.296,110.693 152.466,110.235 152.189,109.635C152.108,109.464 152.269,109.28 152.45,109.335C154.08,109.832 155.781,110.125 157.559,110.216C157.743,110.225 158.285,110.322 159.192,110.506C160.563,110.787 161.657,111.403 162.474,112.355C162.671,112.588 162.661,112.93 162.445,113.146L162.271,113.32C162.064,113.527 161.725,113.524 161.525,113.307C160.305,111.994 158.875,111.794 157.091,111.481C156.978,111.461 156.878,111.545 156.881,111.658Z" style="fill:white;fill-opacity:0.15;fill-rule:nonzero;"/>
    <path d="M137.499,115.759C137.34,116.006 136.74,116.799 136.011,116.49C135.988,116.481 135.965,116.47 135.942,116.457C135.37,116.162 135.139,115.915 134.987,115.534C134.67,114.738 134.587,114.034 134.629,113.462C134.645,113.236 134.371,113.111 134.213,113.272L133.222,114.263C133.135,114.35 132.996,114.353 132.906,114.272C132.498,113.912 132.041,113.562 132.505,113.017C133.722,111.59 135.594,111.161 137.401,111.139C138.444,111.126 139.296,111.052 139.954,110.916C141.051,110.69 141.879,110.409 142.433,110.067C142.65,109.933 142.91,110.158 142.81,110.393C142.08,112.108 139.631,112.453 138.005,112.417C137.876,112.414 137.775,112.526 137.792,112.655C137.914,113.624 137.966,114.824 137.537,115.696C137.531,115.706 137.518,115.729 137.499,115.759Z" style="fill:white;fill-opacity:0.15;"/>
    <path d="M151.643,129.999C153.35,130.286 154.577,131.083 155.319,132.387C155.458,132.632 155.4,132.945 155.18,133.123C154.354,133.794 152.682,133.813 151.185,133.739C150.72,133.746 150.255,133.742 149.787,133.73C147.596,133.675 145.64,134.262 143.788,132.952C142.823,132.271 143.094,131.522 143.969,130.902C144.805,130.312 145.702,129.97 146.667,129.883C148.506,129.715 150.165,129.754 151.643,129.999Z" style="fill:white;fill-opacity:0.15;fill-rule:nonzero;"/>
    <path d="M118.06,217.755C118.015,217.822 117.989,217.91 117.986,218.01C117.986,218.016 117.976,218.019 117.973,218.016C117.941,218.003 117.921,217.981 117.918,217.952C117.799,216.693 117.65,215.602 117.473,214.679C117.437,214.511 117.324,214.373 117.166,214.308L115.198,213.479C115.404,210.761 115.804,208.095 116.401,205.481C116.663,204.339 116.986,203.316 117.37,202.409C117.428,202.273 117.625,202.283 117.67,202.425C117.679,202.461 117.692,202.567 117.705,202.738C118.051,207.724 118.17,212.73 118.06,217.755Z" style="fill:white;fill-opacity:0.95;fill-rule:nonzero;"/>
    <path d="M177.674,211.381C177.871,211.471 178.026,211.658 178.142,211.942C181.457,220.033 183.316,228.66 184.148,237.344C184.642,242.501 184.994,247.591 185.197,252.609C184.619,254.894 183.903,257.043 183.044,259.06C181.182,263.421 177.607,266.328 173.214,268.113C173.195,262.388 173.179,256.682 173.163,250.999C173.14,242.985 173.056,237.283 172.908,233.888C172.685,228.753 172.178,222.028 171.391,213.711C171.007,209.645 170.81,206.553 170.803,204.439C170.8,203.79 170.874,203.245 171.026,202.803C171.139,202.477 171.533,202.351 171.814,202.551C172.175,202.812 172.53,203.206 172.875,203.729C174.086,205.552 175.696,209.125 177.674,211.381Z" style="fill:white;fill-opacity:0.5;fill-rule:nonzero;"/>
    <path d="M115.198,213.479L117.166,214.308C117.324,214.373 117.437,214.511 117.473,214.679C117.65,215.602 117.799,216.693 117.918,217.952C117.921,217.981 117.941,218.003 117.973,218.016C117.976,218.019 117.986,218.016 117.986,218.01C117.989,217.91 118.015,217.822 118.06,217.755L118.606,222.712C117.847,226.078 117.318,229.405 117.015,232.69C116.34,240.003 115.921,245.945 115.759,250.511C115.662,253.184 115.643,255.281 115.698,256.801C115.711,257.163 115.83,257.405 115.853,257.786C116.033,260.877 116.472,263.934 117.169,266.951C117.676,269.159 118.496,270.743 120.342,271.831C122.685,273.209 124.647,273.941 125.741,276.756C126.448,278.573 126.997,280.57 127.381,282.749C127.542,283.659 127.377,284.269 126.774,284.908C126.587,285.108 126.283,285.14 126.057,284.988C125.506,284.611 124.899,283.949 124.512,283.242C123.902,282.123 123.372,281.225 122.92,280.557C122.559,280.018 122.081,279.667 121.488,279.502C120.439,279.208 119.997,280.754 119.897,281.487C119.78,282.371 120.252,283.82 120.661,284.711C121.814,287.235 123.269,289.684 125.021,292.059C125.948,293.311 125.719,294.347 124.334,295.164C124.218,295.232 124.092,295.28 123.963,295.306C119.89,296.11 115.588,296.749 111.554,295.164C107.823,293.696 106.826,288.622 106.694,284.946C106.636,283.333 106.616,280.461 106.632,276.33C106.639,274.751 106.448,273.215 106.064,271.728C105.697,270.291 104.974,268.923 104.328,267.448C104.164,267.077 103.893,266.522 103.508,265.786C101.178,261.31 99.513,257.315 98.516,253.807C96.76,247.639 95.873,241.165 95.402,234.711C95.101,230.56 95.224,226.781 95.179,222.689C95.16,220.985 95.218,219.201 95.35,217.332C95.682,212.623 96.276,207.882 97.131,203.106C98.561,204.029 99.962,204.949 101.337,205.865C105.729,208.796 110.347,211.332 115.198,213.479Z" style="fill:white;fill-opacity:0.75;fill-rule:nonzero;"/>
    <path d="M203.873,204.926C203.673,205.072 203.599,205.217 203.651,205.362C203.686,205.459 203.705,205.51 203.705,205.517C204.535,210.012 205.171,214.634 205.606,219.375C205.816,221.627 205.916,224.261 205.91,227.272C205.9,231.609 205.881,234.243 205.852,235.175C205.726,239.39 205.264,244.08 204.461,249.243C203.376,256.211 201.195,262.791 197.919,268.984C197.467,269.84 197.057,270.663 196.693,271.46C195.67,273.696 194.947,275.216 194.646,277.282C194.472,278.476 194.392,279.618 194.408,280.712C194.443,283.384 194.443,285.927 194.404,288.341C194.366,290.772 193.946,293.027 193.146,295.116C191.884,298.411 189.263,299.598 185.962,299.898C184.248,300.053 182.596,300.031 181.008,299.834C180.856,299.818 179.862,299.653 178.033,299.346C176.945,299.166 176.254,298.879 175.964,298.482C175.109,297.326 175.586,296.565 176.393,295.461C178.278,292.882 179.943,290.081 180.982,286.992C181.35,285.905 181.25,284.862 180.682,283.872C179.956,282.603 178.484,283.852 177.997,284.662C176.926,286.444 176.412,287.79 175.044,288.858C174.831,289.022 174.531,289.003 174.341,288.813C173.682,288.148 173.55,287.502 173.724,286.521C174.176,283.998 174.844,281.735 175.728,279.738C176.632,277.692 179.02,276.71 180.882,275.61C182.751,274.506 183.554,272.651 184.016,270.43C184.6,267.613 185.029,264.579 185.297,261.329C185.307,261.19 185.316,261.048 185.323,260.903C185.365,259.803 185.384,257.521 185.387,254.058C185.387,253.848 185.323,253.364 185.197,252.609C184.994,247.591 184.642,242.501 184.148,237.344C183.316,228.66 181.457,220.033 178.142,211.942C178.026,211.658 177.871,211.471 177.674,211.381C177.9,210.994 178.11,210.8 178.3,210.8C187.004,210.858 194.914,208.273 202.937,204.778C203.092,204.71 203.27,204.704 203.428,204.762L203.873,204.926Z" style="fill:white;fill-opacity:0.75;fill-rule:nonzero;"/>
</svg>
