<?xml version="1.0" encoding="UTF-8" standalone="no"?>
<!DOCTYPE svg PUBLIC "-//W3C//DTD SVG 1.1//EN" "http://www.w3.org/Graphics/SVG/1.1/DTD/svg11.dtd">
<svg width="100%" height="100%" viewBox="0 0 300 300" version="1.1" xmlns="http://www.w3.org/2000/svg" xmlns:xlink="http://www.w3.org/1999/xlink" xml:space="preserve" xmlns:serif="http://www.serif.com/" style="fill-rule:evenodd;clip-rule:evenodd;stroke-linejoin:round;stroke-miterlimit:2;">
    <path d="M74.736,48.261C74.608,48.29 74.506,48.396 74.424,48.577C74.371,48.695 74.282,48.791 74.167,48.847C65.38,53.442 58.155,60.774 53.872,69.734C53.842,69.79 53.76,69.846 53.618,69.899L47.656,68.872C47.577,68.859 47.531,68.957 47.59,69.013C49.148,70.452 50.622,72.108 52.022,73.978C51.607,75.166 51.218,76.417 50.859,77.734C50.073,80.608 49.599,83.498 49.441,86.408C49.115,86.481 48.911,86.501 48.832,86.464C47.584,83.337 46.033,80.73 44.18,78.639C39.828,73.724 34.571,69.063 28.405,66.521C27.2,66.024 25.662,65.672 23.793,65.465C19.734,65.014 15.777,64.977 11.918,65.363C11.494,63.578 10.681,61.847 9.479,60.171C7.938,58.018 6.299,55.773 4.557,53.432C5.101,53.548 5.614,53.597 6.098,53.574C6.638,53.551 7.701,53.478 8.426,53.083C8.521,53.034 8.488,52.893 8.383,52.883C7.036,52.784 5.831,52.56 4.834,51.73C4.554,51.497 4.261,51.283 3.962,51.088C4.123,49.288 4.946,47.671 6.431,46.239C8.432,44.307 10.796,43.326 13.525,43.29C15.286,43.267 17.218,43.589 19.329,44.254C20.514,44.791 21.633,45.538 22.69,46.496C23.325,47.076 24.151,48.037 25.162,49.38C25.909,50.377 26.676,51.388 27.463,52.418L24.365,52.023C24.306,52.017 24.27,52.089 24.316,52.132C27.611,55.088 30.903,57.817 34.742,60.095C36.72,61.271 39.308,62.107 42.501,62.597C44.545,62.913 46.53,62.42 44.855,59.911C44.786,59.809 44.875,59.674 44.996,59.7C48.084,60.329 51.116,60.151 54.089,59.164C54.83,58.917 55.491,58.565 56.081,58.104C56.825,57.524 56.917,56.803 56.354,55.941C56.074,55.506 55.445,55.036 54.471,54.529C54.418,54.502 54.438,54.423 54.497,54.42C57.783,54.265 60.489,54.143 63.267,53.327C63.623,53.222 63.853,52.916 63.804,52.613C63.767,52.402 63.583,52.185 63.251,51.958C62.102,51.177 60.778,50.591 59.277,50.203C59.238,50.193 59.215,50.154 59.221,50.114L59.224,50.111C59.234,50.055 59.284,50.019 59.34,50.025C60.268,50.131 62.819,50.005 63.007,48.814C63.096,48.264 62.898,47.727 62.414,47.207C62.329,47.112 62.372,46.96 62.493,46.924C62.516,46.918 63.198,46.766 64.538,46.47C66.124,46.121 71.642,44.248 69.742,41.598C69.68,41.512 69.601,41.433 69.512,41.371C68.409,40.594 67.125,40.182 65.657,40.139C65.535,40.136 65.499,39.971 65.608,39.919C67.596,38.934 69.229,37.486 70.503,35.573C71.461,34.135 72.238,32.225 71.26,30.839C70.809,30.204 70.032,30.03 68.933,30.309C68.587,30.398 68.379,30.448 68.307,30.458C68.208,30.471 68.123,30.385 68.139,30.286C68.528,27.847 68.538,25.408 68.172,22.972C67.902,21.171 67.359,19.525 66.546,18.033C66.444,17.846 66.368,17.645 66.325,17.438L66.394,17.332C66.447,17.253 66.473,17.164 66.477,17.072C66.513,14.89 66.661,12.681 66.928,10.452C67.063,9.339 67.339,8.273 67.764,7.255C67.889,6.959 68.221,6.808 68.528,6.91C70.473,7.572 70.69,12.246 70.964,14.712C71.082,15.798 71.138,16.967 71.128,18.221C71.105,20.766 71.112,22.191 71.145,22.501C71.158,22.616 71.303,22.655 71.372,22.563L71.668,22.158C71.678,22.142 71.688,22.125 71.695,22.109C72.353,20.608 73.344,18.494 74.809,17.431C75.171,17.164 75.635,17.135 76.205,17.336C76.317,17.375 76.415,17.438 76.498,17.52C77.238,18.247 77.676,19.156 77.814,20.252C77.926,21.131 78.015,22.231 78.078,23.551C78.084,23.742 78.282,23.87 78.46,23.798C79.664,23.314 81.501,22.975 82.558,23.897C82.647,23.972 82.694,24.082 82.71,24.196C83.2,27.77 78.061,30.869 78.061,30.869C77.999,30.915 78.038,31.014 78.114,31.004C79.059,30.902 80.267,30.741 81.735,30.52C83.003,30.329 84.168,30.411 85.231,30.764C85.63,30.895 85.909,31.257 85.932,31.679C86.051,33.96 83.536,35.998 81.817,36.936C80.491,37.657 79.342,38.233 78.367,38.671C78.196,38.747 78.236,39 78.42,39.02C78.759,39.06 79.49,38.969 80.596,39.056C82.558,39.211 83.488,40.59 82.107,41.841C79.81,43.923 74.042,48.037 73.795,48.126C73.732,48.149 73.745,48.241 73.811,48.241L74.736,48.261ZM15.039,50.503C15.039,49.587 14.295,48.843 13.38,48.843C12.465,48.843 11.721,49.587 11.721,50.503C11.721,51.418 12.465,52.162 13.38,52.162C14.295,52.162 15.039,51.418 15.039,50.503Z" style="fill:white;fill-opacity:0.85;fill-rule:nonzero;"/>
    <path d="M56.617,39.708C54.652,42.671 52.305,45.153 49.576,47.151C47.222,48.876 44.993,49.712 42.261,50.552C37.928,51.885 33.59,52.557 29.244,52.57C28.714,52.573 28.122,52.521 27.463,52.418C26.676,51.388 25.909,50.377 25.162,49.38C24.151,48.037 23.325,47.076 22.69,46.496C21.633,45.538 20.514,44.791 19.329,44.254L18.269,41.341C18.265,41.331 18.259,41.321 18.255,41.311C17.758,40.353 17.442,39.445 17.304,38.582C17.278,38.424 17.232,38.266 17.163,38.121C17.021,37.822 16.902,37.519 16.814,37.216C15.619,33.177 14.743,29.075 14.19,24.91C14.015,23.6 13.933,22.405 13.943,21.325C13.966,18.481 13.808,16.078 14.229,13.579C14.555,11.667 14.861,10.314 15.148,9.527C15.378,8.892 15.724,8.401 16.182,8.052C16.481,7.822 16.922,7.947 17.057,8.299C17.643,9.833 18.262,11.634 18.914,13.701C19.612,15.92 20.122,17.517 20.445,18.494C20.912,19.917 21.314,21.994 21.919,23.047C21.975,23.143 22.008,23.195 22.015,23.199C22.189,23.274 22.387,23.146 22.39,22.955C22.394,22.932 22.943,13.925 23.213,12.73C23.388,11.956 23.74,11.318 24.277,10.811C24.372,10.722 24.487,10.659 24.616,10.63C24.797,10.587 25.04,10.587 25.346,10.63C25.462,10.646 25.567,10.702 25.649,10.785C26.192,11.341 26.528,11.769 26.65,12.065C27.575,14.31 29.224,21.227 29.238,21.704C29.247,22.053 29.369,22.428 29.603,22.83C29.639,22.892 29.738,22.863 29.735,22.79C29.725,22.511 30.433,19.884 31.493,19.334C31.591,19.281 31.71,19.284 31.805,19.34C32.362,19.663 32.701,20.009 32.816,20.374C33.023,21.042 33.889,25.072 33.83,25.839C33.797,26.283 33.863,26.599 34.024,26.79C34.205,27.001 34.548,26.928 34.623,26.662C35.186,24.697 36.016,22.869 37.109,21.181C37.349,20.809 37.863,20.667 38.649,20.759C38.765,20.772 38.901,20.802 38.956,20.904C41.3,25.277 41.994,36.674 41.336,35.507C41.25,35.355 41.54,35.784 41.691,35.698C41.8,35.639 41.912,35.544 42.034,35.409C43.617,33.647 45.22,32.321 46.843,31.425C47.742,30.928 48.713,30.527 49.763,30.217C50.527,29.99 51.017,30.24 51.231,30.964C51.248,31.027 51.254,31.093 51.245,31.155C50.853,34.075 48.364,37.456 46.234,39.748C46.086,39.909 46.241,40.162 46.451,40.103C47.623,39.767 48.891,39.379 50.178,39.326C52.268,39.244 54.415,39.369 56.617,39.708Z" style="fill:white;fill-opacity:0.5;fill-rule:nonzero;"/>
    <path d="M66.325,17.438C66.368,17.645 66.444,17.846 66.546,18.033C67.359,19.525 67.902,21.171 68.172,22.972C68.538,25.408 68.528,27.847 68.139,30.286C68.123,30.385 68.208,30.471 68.307,30.458C68.379,30.448 68.587,30.398 68.933,30.309C70.032,30.03 70.809,30.204 71.26,30.839C72.238,32.225 71.461,34.135 70.503,35.573C69.229,37.486 67.596,38.934 65.608,39.919C65.499,39.971 65.535,40.136 65.657,40.139C67.125,40.182 68.409,40.594 69.512,41.371C69.601,41.433 69.68,41.512 69.742,41.598C71.642,44.248 66.124,46.121 64.538,46.47C63.198,46.766 62.516,46.918 62.493,46.924C62.372,46.96 62.329,47.112 62.414,47.207C62.898,47.727 63.096,48.264 63.007,48.814C62.819,50.005 60.268,50.131 59.34,50.025C59.284,50.019 59.234,50.055 59.224,50.111L59.221,50.114C59.215,50.154 59.238,50.193 59.277,50.203C60.778,50.591 62.102,51.177 63.251,51.958C63.583,52.185 63.767,52.402 63.804,52.613C63.853,52.916 63.623,53.222 63.267,53.327C60.489,54.143 57.783,54.265 54.497,54.42C54.438,54.423 54.418,54.502 54.471,54.529C55.445,55.036 56.074,55.506 56.354,55.941C56.917,56.803 56.825,57.524 56.081,58.104C55.491,58.565 54.83,58.917 54.089,59.164C51.116,60.151 48.084,60.329 44.996,59.7C44.875,59.674 44.786,59.809 44.855,59.911C46.53,62.42 44.545,62.913 42.501,62.597C39.308,62.107 36.72,61.271 34.742,60.095C30.903,57.817 27.611,55.088 24.316,52.132C24.27,52.089 24.306,52.017 24.365,52.023L27.463,52.418C28.122,52.521 28.714,52.573 29.244,52.57C33.59,52.557 37.928,51.885 42.261,50.552C44.993,49.712 47.222,48.876 49.576,47.151C52.305,45.153 54.652,42.671 56.617,39.708C58.582,36.92 60.324,33.509 61.835,29.476C63.379,25.361 64.202,21.642 64.297,18.313C64.301,18.188 64.324,18.066 64.367,17.951C64.521,17.543 64.577,17.148 64.534,16.766C64.521,16.661 64.627,16.582 64.725,16.618C65.246,16.809 65.641,17.102 65.91,17.5C65.93,17.533 65.963,17.556 65.999,17.569C66.124,17.615 66.233,17.573 66.325,17.438Z" style="fill:white;fill-opacity:0.75;fill-rule:nonzero;"/>
    <path d="M125.911,54.858C128.077,57.08 129.426,58.492 129.956,59.101C140.017,70.594 144.04,86.155 140.274,101.005C134.516,123.703 113.342,138.136 90.34,135.719C88.052,135.476 85.544,134.965 83.134,134.534C79.032,133.339 74.842,131.173 71.418,129.086C59.564,121.853 51.666,109.696 49.806,95.939C49.638,94.711 49.543,93.124 49.52,91.178C49.497,89.595 49.47,88.005 49.441,86.408C49.599,83.498 50.073,80.608 50.859,77.734C51.218,76.417 51.607,75.166 52.022,73.978C52.598,72.625 53.157,71.308 53.694,70.034C53.717,69.978 53.694,69.935 53.618,69.899C53.76,69.846 53.842,69.79 53.872,69.734C58.155,60.774 65.38,53.442 74.167,48.847C81.835,44.836 105.712,37.383 125.911,54.858ZM135.22,89.819C135.22,67.861 117.417,50.058 95.459,50.058C73.502,50.058 55.699,67.861 55.699,89.819C55.699,111.777 73.502,129.58 95.459,129.58C117.417,129.58 135.22,111.777 135.22,89.819Z" style="fill:white;fill-opacity:0.6;fill-rule:nonzero;"/>
    <path d="M212.253,89.552C211.749,89.542 211.345,89.615 211.035,89.77C210.68,89.944 210.248,89.806 210.064,89.457C209.369,88.156 208.902,86.896 208.662,85.674C208.303,83.857 208.283,81.849 207.835,80.084C207.095,77.164 206.232,74.87 205.254,73.201C203.164,69.629 199.065,68.569 195.122,70.083C191.622,71.43 188.6,73.402 185.229,75.502C184.133,76.183 182.54,76.911 180.446,77.681C178.579,78.323 176.818,78.567 175.162,78.409C173.868,78.287 172.42,77.757 170.817,76.822C170.112,76.411 169.51,76.312 168.874,76.75C168.641,76.911 168.404,77.359 168.167,78.086C166.975,81.737 166.089,85.724 165.513,90.046C165.273,91.827 165.036,93.69 164.796,95.639C164.114,94.54 163.505,93.114 162.972,91.366C161.997,88.176 161.145,84.966 160.411,81.734C159.854,79.278 159.812,76.783 160.279,74.251C160.72,71.861 162.07,69.886 164.262,68.938C165.401,68.447 166.554,67.756 166.666,66.554C166.932,63.74 167.824,61.182 169.348,58.874C173.859,52.053 182.579,46.325 191.043,48.876C193.848,49.722 195.8,51.424 197.301,53.827C197.867,54.733 198.894,56.474 200.385,59.049C200.771,59.714 201.429,60.513 202.354,61.452C203.641,62.752 205.139,63.473 206.848,63.615C208.408,63.743 209.254,63.815 209.386,63.825C212.517,64.062 215.107,66.232 216.003,69.115C217.083,72.595 216.269,75.555 214.442,78.715C214.057,79.387 213.659,80.954 213.514,81.885C213.132,84.394 212.865,86.81 212.711,89.131C212.701,89.272 212.589,89.338 212.382,89.332C212.339,89.328 212.296,89.351 212.273,89.388C212.237,89.444 212.23,89.5 212.253,89.552Z" style="fill:white;fill-opacity:0.35;fill-rule:nonzero;"/>
    <path d="M15.039,50.503C15.039,51.418 14.295,52.162 13.38,52.162C12.465,52.162 11.721,51.418 11.721,50.503C11.721,49.587 12.465,48.843 13.38,48.843C14.295,48.843 15.039,49.587 15.039,50.503ZM14.792,50.279C14.792,49.887 14.476,49.571 14.084,49.571C13.693,49.571 13.377,49.887 13.377,50.279C13.377,50.67 13.693,50.986 14.084,50.986C14.476,50.986 14.792,50.67 14.792,50.279Z" style="fill:white;fill-opacity:0.35;fill-rule:nonzero;"/>
    <path d="M14.792,50.279C14.792,50.67 14.476,50.986 14.084,50.986C13.693,50.986 13.377,50.67 13.377,50.279C13.377,49.887 13.693,49.571 14.084,49.571C14.476,49.571 14.792,49.887 14.792,50.279Z" style="fill:white;fill-opacity:0.95;fill-rule:nonzero;"/>
    <path d="M135.22,89.819C135.22,111.777 117.417,129.58 95.459,129.58C73.502,129.58 55.699,111.777 55.699,89.819C55.699,67.861 73.502,50.058 95.459,50.058C117.417,50.058 135.22,67.861 135.22,89.819ZM95.453,54.685C95.446,54.176 95.032,53.771 94.523,53.778L94.451,53.779C93.945,53.785 93.537,54.203 93.544,54.708L93.623,61.173C93.629,61.682 94.044,62.087 94.552,62.081L94.625,62.08C95.13,62.074 95.539,61.656 95.532,61.15L95.453,54.685ZM78.012,58.797C77.762,58.351 77.195,58.189 76.749,58.442L76.708,58.464C76.261,58.716 76.103,59.282 76.353,59.728L79.427,65.206C79.678,65.652 80.244,65.814 80.691,65.561L80.731,65.539C81.179,65.287 81.337,64.721 81.086,64.275L78.012,58.797ZM112.991,59.697C113.243,59.253 113.085,58.69 112.642,58.44L112.602,58.418C112.16,58.166 111.597,58.324 111.346,58.766L108.182,64.359C107.93,64.803 108.088,65.366 108.53,65.615L108.57,65.638C109.013,65.889 109.576,65.731 109.826,65.289L112.991,59.697ZM90.709,86.882C85.896,90.704 90.199,98.046 95.986,95.856C96.118,95.807 96.243,95.741 96.358,95.659L98.459,94.145C102.741,94.987 106.958,95.791 111.103,96.558C111.992,96.719 112.608,96.739 112.95,96.614C114.161,96.166 114.533,94.438 113.516,93.568C113.263,93.351 112.716,93.164 111.873,93.006C107.518,92.192 103.318,91.406 99.265,90.652C99.054,90.612 99.015,90.507 99.143,90.339C98.607,87.673 96.964,86.142 94.209,85.75C93.58,81.372 92.944,76.957 92.309,72.51C92.187,71.65 92.026,71.094 91.828,70.847C91.022,69.83 89.28,70.018 88.754,71.285C88.612,71.627 88.602,72.24 88.731,73.119C89.386,77.731 90.047,82.316 90.709,86.882ZM70.063,76.635C70.312,76.19 70.151,75.627 69.703,75.378L63.95,72.189C63.504,71.94 62.941,72.101 62.692,72.55L62.673,72.584C62.424,73.03 62.586,73.593 63.034,73.842L68.786,77.031C69.232,77.28 69.795,77.118 70.044,76.67L70.063,76.635ZM126.502,72.594C126.256,72.154 125.7,71.993 125.257,72.239L119.792,75.281C119.35,75.528 119.192,76.085 119.437,76.526L119.46,76.566C119.705,77.006 120.261,77.168 120.704,76.921L126.17,73.879C126.612,73.632 126.77,73.076 126.524,72.634L126.502,72.594ZM131.071,89.592C131.063,89.078 130.641,88.667 130.125,88.675L123.266,88.783C122.75,88.792 122.342,89.216 122.349,89.729L122.35,89.789C122.358,90.303 122.78,90.714 123.296,90.706L130.155,90.598C130.671,90.589 131.079,90.165 131.072,89.652L131.071,89.592ZM66.683,90.77C66.674,90.273 66.263,89.875 65.764,89.886L58.97,90.016C58.471,90.026 58.076,90.438 58.086,90.935L58.087,90.981C58.095,91.478 58.507,91.876 59.006,91.866L65.799,91.735C66.299,91.725 66.694,91.313 66.684,90.816L66.683,90.77ZM70.218,103.734C69.973,103.29 69.41,103.128 68.965,103.374L63,106.681C62.556,106.927 62.395,107.49 62.64,107.934L62.663,107.975C62.908,108.419 63.471,108.58 63.916,108.334L69.881,105.027C70.325,104.781 70.486,104.218 70.241,103.774L70.218,103.734ZM126.498,107.97C126.743,107.53 126.582,106.974 126.143,106.73L120.465,103.583C120.024,103.339 119.468,103.497 119.225,103.938L119.193,103.996C118.948,104.435 119.109,104.992 119.549,105.235L125.227,108.383C125.667,108.626 126.223,108.468 126.466,108.027L126.498,107.97ZM81.365,115.922C81.617,115.477 81.459,114.914 81.013,114.662L80.979,114.643C80.534,114.394 79.971,114.548 79.719,114.995L76.344,120.983C76.093,121.429 76.251,121.992 76.696,122.243L76.731,122.263C77.176,122.512 77.739,122.357 77.991,121.911L81.365,115.922ZM109.588,115.325C109.342,114.887 108.786,114.729 108.346,114.978L108.288,115.01C107.851,115.256 107.696,115.813 107.942,116.252L111.196,122.029C111.442,122.466 111.999,122.624 112.438,122.375L112.496,122.343C112.933,122.097 113.088,121.541 112.843,121.101L109.588,115.325ZM96.083,119.343C96.078,118.831 95.66,118.423 95.15,118.426L95.098,118.427C94.587,118.43 94.176,118.848 94.181,119.36L94.236,125.726C94.241,126.238 94.66,126.647 95.169,126.643L95.222,126.643C95.733,126.64 96.144,126.222 96.139,125.71L96.083,119.343Z" style="fill:white;fill-opacity:0.95;fill-rule:nonzero;"/>
    <path d="M3.962,51.088C4.261,51.283 4.554,51.497 4.834,51.73C5.831,52.56 7.036,52.784 8.383,52.883C8.488,52.893 8.521,53.034 8.426,53.083C7.701,53.478 6.638,53.551 6.098,53.574C5.614,53.597 5.101,53.548 4.557,53.432C2.99,53.192 1.506,52.728 0.107,52.043C-0.051,51.967 -0.028,51.737 0.14,51.688L1.628,51.26C1.746,51.223 1.868,51.204 1.993,51.197L3.962,51.088Z" style="fill:white;fill-opacity:0.5;fill-rule:nonzero;"/>
    <path d="M95.532,61.15C95.539,61.656 95.13,62.074 94.625,62.08L94.552,62.081C94.044,62.087 93.629,61.682 93.623,61.173L93.544,54.708C93.537,54.203 93.945,53.785 94.451,53.779L94.523,53.778C95.032,53.771 95.446,54.176 95.453,54.685L95.532,61.15Z" style="fill:white;fill-opacity:0.4;fill-rule:nonzero;"/>
    <path d="M125.911,54.858C126.612,55.177 127.145,55.487 127.514,55.793C129.795,57.666 131.915,59.727 133.877,61.975C134.374,62.545 134.651,63.16 135.128,63.634C135.372,63.878 135.556,64.085 135.678,64.26C141.343,72.213 144.316,80.805 144.596,90.033C144.823,97.473 143.391,104.498 140.303,111.105C137.449,117.215 133.337,122.499 127.975,126.956C122.75,131.295 116.782,134.327 110.069,136.055C105.889,137.132 101.678,137.609 97.435,137.49C93.247,137.375 89.07,136.661 84.902,135.351C84.29,135.156 83.7,134.886 83.134,134.534C85.544,134.965 88.052,135.476 90.34,135.719C113.342,138.136 134.516,123.703 140.274,101.005C144.04,86.155 140.017,70.594 129.956,59.101C129.426,58.492 128.077,57.08 125.911,54.858Z" style="fill:white;fill-opacity:0.35;fill-rule:nonzero;"/>
    <path d="M81.086,64.275C81.337,64.721 81.179,65.287 80.731,65.539L80.691,65.561C80.244,65.814 79.678,65.652 79.427,65.206L76.353,59.728C76.103,59.282 76.261,58.716 76.708,58.464L76.749,58.442C77.195,58.189 77.762,58.351 78.012,58.797L81.086,64.275Z" style="fill:white;fill-opacity:0.4;fill-rule:nonzero;"/>
    <path d="M109.826,65.289C109.576,65.731 109.013,65.889 108.57,65.638L108.53,65.615C108.088,65.366 107.93,64.803 108.182,64.359L111.346,58.766C111.597,58.324 112.16,58.166 112.602,58.418L112.642,58.44C113.085,58.69 113.243,59.253 112.991,59.697L109.826,65.289Z" style="fill:white;fill-opacity:0.4;fill-rule:nonzero;"/>
    <path d="M48.832,86.464C45.398,87.067 41.997,87.472 38.63,87.679C37.31,87.761 35.986,87.663 34.653,87.383C34.794,86.102 35.209,84.901 35.891,83.785C36.059,83.511 35.93,83.153 35.631,83.044C35.361,82.948 35.101,83.004 34.854,83.218C34.136,83.834 33.758,84.581 33.721,85.467C33.711,85.687 33.524,85.855 33.306,85.839C32.059,85.757 31.028,85.279 29.899,84.39C28.619,83.386 26.489,83.808 25.103,84.371C24.942,84.436 24.754,84.417 24.609,84.318L21.231,82.04C20.642,81.47 20.05,80.924 19.457,80.394C18.463,79.512 17.577,78.54 16.797,77.477C16.129,76.565 15.48,75.423 14.852,74.05C13.614,71.341 12.636,68.444 11.918,65.363C15.777,64.977 19.734,65.014 23.793,65.465C25.662,65.672 27.2,66.024 28.405,66.521C34.571,69.063 39.828,73.724 44.18,78.639C46.033,80.73 47.584,83.337 48.832,86.464Z" style="fill:white;fill-opacity:0.95;fill-rule:nonzero;"/>
    <path d="M212.253,89.552C213.428,90.168 214.251,91.152 214.725,92.512C215.973,96.064 215.206,98.994 212.431,101.301C212.164,101.522 212.026,101.861 212.062,102.207C212.303,104.511 212.098,106.855 211.45,109.238C210.67,112.112 209.514,114.736 207.983,117.11C207.032,117.738 206.114,118.37 205.228,119.002C203.938,119.921 203.009,120.537 202.443,120.853C200.474,121.949 198.391,122.828 196.195,123.486C193.377,124.329 190.493,124.652 187.543,124.451C187.441,124.444 187.375,124.339 187.418,124.247C188.778,121.221 189.611,118.041 189.917,114.706C192.412,114.499 196.254,113.258 196.389,110.371C196.484,108.294 194.595,107.362 192.761,107.859C191.843,108.106 190.806,108.442 189.654,108.866C189.499,107.882 189.285,106.944 189.008,106.058C188.827,105.489 188.521,105.025 188.087,104.669C187.346,104.063 185.999,104.09 185.331,103.932C185.226,103.905 185.127,103.863 185.041,103.803C183.754,102.911 183.642,101.545 183.754,100.021C183.879,98.269 184.123,96.199 184.485,93.812C184.699,92.406 184.778,90.441 184.758,88.897C184.709,85.46 183.744,82.234 181.858,79.219C181.69,78.955 181.47,78.685 181.193,78.409C180.959,78.175 180.709,77.931 180.446,77.681C182.54,76.911 184.133,76.183 185.229,75.502C188.6,73.402 191.622,71.43 195.122,70.083C199.065,68.569 203.164,69.629 205.254,73.201C206.232,74.87 207.095,77.164 207.835,80.084C208.283,81.849 208.303,83.857 208.662,85.674C208.902,86.896 209.369,88.156 210.064,89.457C210.248,89.806 210.68,89.944 211.035,89.77C211.345,89.615 211.749,89.542 212.253,89.552ZM193.508,84.453C194.835,84.525 196.32,84.828 197.963,85.355C198.377,85.487 198.795,85.157 198.749,84.729C198.611,83.469 194.753,82.823 193.601,82.761C192.452,82.698 188.547,82.912 188.271,84.147C188.175,84.568 188.554,84.943 188.982,84.855C190.671,84.512 192.182,84.381 193.508,84.453ZM191.728,90.026C191.51,91.386 191.793,92.617 192.58,93.713C192.761,93.967 192.946,94.108 193.14,94.135C193.584,94.197 194.009,93.931 194.147,93.503C194.532,92.324 194.457,91.106 193.913,89.845C193.864,89.73 193.963,89.605 194.088,89.625L195.895,89.947C196.047,89.974 196.162,89.812 196.089,89.677C195.151,87.956 191.935,88.423 190.533,89.108C190.223,89.259 190.128,89.635 190.345,89.835C190.516,89.993 190.845,89.96 191.336,89.733C191.537,89.641 191.76,89.809 191.728,90.026Z" style="fill:white;fill-opacity:0.95;fill-rule:nonzero;"/>
    <path d="M94.209,85.75L94.781,89.694C94.795,89.789 94.867,89.865 94.962,89.881L98.534,90.514C98.617,90.53 98.705,90.52 98.784,90.487L99.143,90.339C99.015,90.507 99.054,90.612 99.265,90.652C103.318,91.406 107.518,92.192 111.873,93.006C112.716,93.164 113.263,93.351 113.516,93.568C114.533,94.438 114.161,96.166 112.95,96.614C112.608,96.739 111.992,96.719 111.103,96.558C106.958,95.791 102.741,94.987 98.459,94.145C96.651,93.809 94.762,93.437 92.79,93.032C91.957,92.861 91.499,92.446 91.417,91.788C91.206,90.171 90.969,88.535 90.709,86.882C90.047,82.316 89.386,77.731 88.731,73.119C88.602,72.24 88.612,71.627 88.754,71.285C89.28,70.018 91.022,69.83 91.828,70.847C92.026,71.094 92.187,71.65 92.309,72.51C92.944,76.957 93.58,81.372 94.209,85.75Z" style="fill:white;fill-opacity:0.25;fill-rule:nonzero;"/>
    <path d="M70.044,76.67C69.795,77.118 69.232,77.28 68.786,77.031L63.034,73.842C62.586,73.593 62.424,73.03 62.673,72.584L62.692,72.55C62.941,72.101 63.504,71.94 63.95,72.189L69.703,75.378C70.151,75.627 70.312,76.19 70.063,76.635L70.044,76.67Z" style="fill:white;fill-opacity:0.4;fill-rule:nonzero;"/>
    <path d="M126.524,72.634C126.77,73.076 126.612,73.632 126.17,73.879L120.704,76.921C120.261,77.168 119.705,77.006 119.46,76.566L119.437,76.526C119.192,76.085 119.35,75.528 119.792,75.281L125.257,72.239C125.7,71.993 126.256,72.154 126.502,72.594L126.524,72.634Z" style="fill:white;fill-opacity:0.4;fill-rule:nonzero;"/>
    <path d="M134.447,173.301C137.215,167.905 139.618,163.352 141.65,159.646C142.594,157.921 143.967,155.6 145.765,152.686C146.502,151.488 147.236,150.602 148.151,149.269C149.188,147.758 150.564,146.204 152.279,144.601C155.048,142.017 158.581,140.067 162.323,139.357C165.513,138.751 170.07,138.741 173.967,139.136C175.409,139.283 176.565,139.041 177.503,137.964C180.14,134.932 181.289,131.354 180.946,127.236C180.818,125.692 180.505,123.605 179.238,122.591C177.832,121.468 176.591,120.405 175.508,119.401C173.118,117.182 171.057,114.469 169.329,111.263C168.335,109.419 167.607,107.609 167.146,105.834C166.303,102.579 165.573,99.646 164.954,97.032C164.898,96.801 164.845,96.337 164.796,95.639C165.036,93.69 165.273,91.827 165.513,90.046C166.089,85.724 166.975,81.737 168.167,78.086C168.404,77.359 168.641,76.911 168.874,76.75C169.51,76.312 170.112,76.411 170.817,76.822C172.42,77.757 173.868,78.287 175.162,78.409C176.818,78.567 178.579,78.323 180.446,77.681C180.709,77.931 180.959,78.175 181.193,78.409C181.47,78.685 181.69,78.955 181.858,79.219C183.744,82.234 184.709,85.46 184.758,88.897C184.778,90.441 184.699,92.406 184.485,93.812C184.123,96.199 183.879,98.269 183.754,100.021C183.642,101.545 183.754,102.911 185.041,103.803C185.127,103.863 185.226,103.905 185.331,103.932C185.999,104.09 187.346,104.063 188.087,104.669C188.521,105.025 188.827,105.489 189.008,106.058C189.285,106.944 189.499,107.882 189.654,108.866C188.752,109.179 187.705,109.199 186.51,108.926C185.7,108.573 184.88,108.228 184.051,107.882C182.625,107.286 182.085,108.221 182.115,109.522C182.187,112.442 183.751,114.229 186.809,114.891L189.917,114.706C189.611,118.041 188.778,121.221 187.418,124.247C187.375,124.339 187.441,124.444 187.543,124.451C190.493,124.652 193.377,124.329 196.195,123.486C198.391,122.828 200.474,121.949 202.443,120.853C203.009,120.537 203.938,119.921 205.228,119.002C206.114,118.37 207.032,117.738 207.983,117.11L204.204,123.674C204.234,123.572 204.237,123.499 204.208,123.453C204.142,123.351 203.99,123.355 203.938,123.463C203.73,123.875 203.49,124.247 203.213,124.586C196.932,132.243 187.58,137.013 177.98,138.84C177.536,138.926 177.269,139.028 177.183,139.15C176.825,139.657 177.167,140.555 177.411,141.079C177.47,141.2 177.513,141.329 177.542,141.464C177.964,143.472 178.53,144.93 179.244,145.842C179.699,146.422 180.466,147.004 181.549,147.59C182.77,148.249 183.313,148.545 184.544,149.286C185.015,149.572 185.43,149.694 185.789,149.651C191.856,148.943 196.86,146.257 200.8,141.596C201.238,141.079 201.495,140.717 201.567,140.509C201.979,139.331 202.486,138.277 203.085,137.346C203.437,136.802 203.503,136.239 203.658,135.624C204.55,135.502 205.445,135.38 206.347,135.252C206.607,135.216 206.904,135.16 207.233,135.084C211.963,134.034 216.483,134.478 220.793,136.414C224.127,137.912 227.248,139.976 230.162,142.609C236.825,148.637 241.022,157.019 243.873,165.43C244.785,168.122 245.631,170.753 246.411,173.317C246.684,174.124 246.96,174.891 247.234,175.612C247.778,177.041 248.008,177.959 247.056,179.075C246.941,179.21 246.631,179.426 246.128,179.723C245.788,179.924 245.479,180.155 245.206,180.408C242.355,180.872 240.528,181.268 239.725,181.593C234.893,183.553 229.865,184.795 224.651,185.415C224.545,185.428 224.448,185.475 224.371,185.55C223.902,186.01 223.683,186.594 223.729,187.315C224.126,193.589 224.739,199.661 225.574,205.532C204.464,201.867 179.508,202.005 153.152,207.34C152.755,206.131 151.13,194.367 150.949,192.575C150.947,192.552 150.933,192.536 150.91,192.533C145.538,191.795 140.553,190.62 135.964,188.911C135.21,188.655 134.248,188.242 133.074,187.67C131.921,187.109 131.025,186.484 130.365,185.814C130.267,185.714 130.053,185.317 129.733,184.619C129.63,184.395 129.588,184.148 129.614,183.904C129.697,183.128 130,182.196 130.529,181.109C131.792,178.516 133.097,175.911 134.447,173.301ZM177.806,92.183C177.881,93.592 178.178,94.625 178.694,95.28C179.481,96.271 180.288,95.642 180.446,94.714C180.657,93.486 180.525,92.38 180.047,91.399C180.008,91.32 180.057,91.225 180.146,91.211L181.424,91.034C181.614,91.007 181.677,90.764 181.522,90.648C181.206,90.415 180.824,90.247 180.373,90.214C178.665,90.095 177.23,90.731 176.074,92.123C175.896,92.337 175.998,92.663 176.265,92.722C176.318,92.732 176.4,92.722 176.509,92.69C176.917,92.561 177.249,92.173 177.572,92.038C177.681,91.992 177.799,92.067 177.806,92.183ZM171.399,89.088C172.743,88.235 173.714,87.653 175.109,87.172C176.732,86.616 178.089,86.51 180.232,86.234C180.699,86.175 180.811,85.549 180.393,85.329L179.82,85.026C179.755,84.99 179.682,84.97 179.61,84.963C177.144,84.733 174.78,85.246 172.519,86.504C171.804,86.902 171.212,87.412 170.741,88.028C170.432,88.433 170.543,88.789 171.074,89.095C171.176,89.154 171.301,89.151 171.399,89.088Z" style="fill:white;fill-opacity:0.75;"/>
    <path d="M21.231,82.04L24.609,84.318C24.754,84.417 24.942,84.436 25.103,84.371C26.489,83.808 28.619,83.386 29.899,84.39C31.028,85.279 32.059,85.757 33.306,85.839C33.524,85.855 33.711,85.687 33.721,85.467C33.758,84.581 34.136,83.834 34.854,83.218C35.101,83.004 35.361,82.948 35.631,83.044C35.93,83.153 36.059,83.511 35.891,83.785C35.209,84.901 34.794,86.102 34.653,87.383C34.557,87.587 34.413,87.771 34.222,87.939C34.129,88.018 33.991,88.012 33.906,87.923L33.254,87.241C33.195,87.179 33.122,87.133 33.037,87.11C32.842,87.054 32.622,87.057 32.375,87.116C30.969,85.964 29.508,85.529 27.996,85.809C27.954,85.684 27.829,85.701 27.621,85.855C27.223,86.152 26.923,86.52 26.722,86.961C26.683,87.05 26.667,87.149 26.68,87.245L26.93,89.039C26.94,89.098 26.861,89.131 26.825,89.081C26.485,88.637 26.37,87.969 26.479,87.08C26.528,86.662 26.634,86.28 26.788,85.938C26.815,85.875 26.821,85.806 26.805,85.74C26.729,85.454 26.548,85.332 26.255,85.381C26.189,85.391 26.127,85.365 26.087,85.315L25.666,84.753C25.593,84.65 25.455,84.621 25.343,84.677C24.599,85.059 24.115,85.631 23.895,86.392C23.868,86.487 23.737,86.497 23.697,86.408C23.579,86.142 23.677,85.832 23.997,85.473C24.072,85.388 24.076,85.259 24.007,85.171C23.565,84.618 23.309,84.318 23.233,84.272C22.133,83.623 20.695,82.606 19.401,82.688C19.302,82.695 19.204,82.659 19.128,82.593C18.999,82.481 18.868,82.442 18.726,82.471C18.489,82.524 18.232,82.616 17.953,82.744C17.525,82.939 17.09,83.521 16.646,84.492C16.596,84.601 16.609,84.726 16.679,84.822C16.781,84.963 16.83,85.19 16.833,85.496C16.833,85.589 16.866,85.678 16.925,85.75C17.087,85.948 17.156,86.092 17.133,86.185C17.11,86.28 16.985,86.3 16.932,86.217C16.484,85.51 16.178,84.614 16.521,83.93C16.636,83.699 16.675,83.515 16.639,83.373C16.616,83.281 16.656,83.182 16.754,83.08C16.846,82.988 16.886,82.886 16.876,82.777C16.866,82.662 16.771,82.58 16.59,82.527C16.451,82.484 16.316,82.465 16.188,82.465C16.093,82.224 15.938,82.027 15.721,81.872C15.635,81.809 15.523,81.8 15.428,81.839C14.674,82.152 14.164,82.715 13.903,83.528C13.884,83.584 13.828,83.613 13.772,83.6L13.749,83.597C13.709,83.587 13.683,83.551 13.683,83.511C13.689,82.85 14.042,82.293 14.74,81.839C14.789,81.806 14.845,81.783 14.901,81.767L17.103,81.174C17.133,81.168 17.163,81.164 17.192,81.164C18.72,81.158 19.128,81.003 20.152,81.931C20.227,82 20.316,82.053 20.412,82.086C20.731,82.195 21.004,82.178 21.231,82.04Z" style="fill:white;fill-opacity:0.25;fill-rule:nonzero;"/>
    <path d="M16.188,82.465C15.889,82.883 15.138,83.311 15.125,83.923C15.121,84.005 15.056,84.071 14.973,84.074L14.967,84.074C14.888,84.078 14.825,84.012 14.832,83.933C14.898,83.1 15.349,82.613 16.188,82.465Z" style="fill:white;fill-opacity:0.25;fill-rule:nonzero;"/>
    <path d="M193.601,82.761C194.753,82.823 198.611,83.469 198.749,84.729C198.795,85.157 198.377,85.487 197.963,85.355C196.32,84.828 194.835,84.525 193.508,84.453C192.182,84.381 190.671,84.512 188.982,84.855C188.554,84.943 188.175,84.568 188.271,84.147C188.547,82.912 192.452,82.698 193.601,82.761Z" style="fill:white;fill-opacity:0.15;fill-rule:nonzero;"/>
    <path d="M171.074,89.095C170.543,88.789 170.432,88.433 170.741,88.028C171.212,87.412 171.804,86.902 172.519,86.504C174.78,85.246 177.144,84.733 179.61,84.963C179.682,84.97 179.755,84.99 179.82,85.026L180.393,85.329C180.811,85.549 180.699,86.175 180.232,86.234C178.089,86.51 176.732,86.616 175.109,87.172C173.714,87.653 172.743,88.235 171.399,89.088C171.301,89.151 171.176,89.154 171.074,89.095Z" style="fill:white;fill-opacity:0.15;fill-rule:nonzero;"/>
    <path d="M25.198,86.28C25.08,86.474 25.011,86.78 24.994,87.192C24.994,87.235 24.961,87.268 24.918,87.271C24.879,87.274 24.839,87.245 24.833,87.205C24.76,86.807 24.816,86.461 25.004,86.158C25.188,85.859 25.472,85.651 25.857,85.536C25.896,85.523 25.939,85.543 25.955,85.582C25.972,85.618 25.955,85.664 25.919,85.684C25.56,85.885 25.32,86.086 25.198,86.28Z" style="fill:white;fill-opacity:0.25;fill-rule:nonzero;"/>
    <path d="M32.375,87.116L27.996,85.809C29.508,85.529 30.969,85.964 32.375,87.116Z" style="fill:white;fill-opacity:0.95;fill-rule:nonzero;"/>
    <path d="M99.143,90.339L98.784,90.487C98.705,90.52 98.617,90.53 98.534,90.514L94.962,89.881C94.867,89.865 94.795,89.789 94.781,89.694L94.209,85.75C96.964,86.142 98.607,87.673 99.143,90.339Z" style="fill:white;fill-opacity:0.4;fill-rule:nonzero;"/>
    <path d="M90.709,86.882C90.969,88.535 91.206,90.171 91.417,91.788C91.499,92.446 91.957,92.861 92.79,93.032C94.762,93.437 96.651,93.809 98.459,94.145L96.358,95.659C96.243,95.741 96.118,95.807 95.986,95.856C90.199,98.046 85.896,90.704 90.709,86.882Z" style="fill:white;fill-opacity:0.4;fill-rule:nonzero;"/>
    <path d="M191.728,90.026C191.76,89.809 191.537,89.641 191.336,89.733C190.845,89.96 190.516,89.993 190.345,89.835C190.128,89.635 190.223,89.259 190.533,89.108C191.935,88.423 195.151,87.956 196.089,89.677C196.162,89.812 196.047,89.974 195.895,89.947L194.088,89.625C193.963,89.605 193.864,89.73 193.913,89.845C194.457,91.106 194.532,92.324 194.147,93.503C194.009,93.931 193.584,94.197 193.14,94.135C192.946,94.108 192.761,93.967 192.58,93.713C191.793,92.617 191.51,91.386 191.728,90.026Z" style="fill:white;fill-opacity:0.15;fill-rule:nonzero;"/>
    <path d="M131.072,89.652C131.079,90.165 130.671,90.589 130.155,90.598L123.296,90.706C122.78,90.714 122.358,90.303 122.35,89.789L122.349,89.729C122.342,89.216 122.75,88.792 123.266,88.783L130.125,88.675C130.641,88.667 131.063,89.078 131.071,89.592L131.072,89.652Z" style="fill:white;fill-opacity:0.4;fill-rule:nonzero;"/>
    <path d="M66.684,90.816C66.694,91.313 66.299,91.725 65.799,91.735L59.006,91.866C58.507,91.876 58.095,91.478 58.087,90.981L58.086,90.935C58.076,90.438 58.471,90.026 58.97,90.016L65.764,89.886C66.263,89.875 66.674,90.273 66.683,90.77L66.684,90.816Z" style="fill:white;fill-opacity:0.4;fill-rule:nonzero;"/>
    <path d="M177.572,92.038C177.249,92.173 176.917,92.561 176.509,92.69C176.4,92.722 176.318,92.732 176.265,92.722C175.998,92.663 175.896,92.337 176.074,92.123C177.23,90.731 178.665,90.095 180.373,90.214C180.824,90.247 181.206,90.415 181.522,90.648C181.677,90.764 181.614,91.007 181.424,91.034L180.146,91.211C180.057,91.225 180.008,91.32 180.047,91.399C180.525,92.38 180.657,93.486 180.446,94.714C180.288,95.642 179.481,96.271 178.694,95.28C178.178,94.625 177.881,93.592 177.806,92.183C177.799,92.067 177.681,91.992 177.572,92.038Z" style="fill:white;fill-opacity:0.15;fill-rule:nonzero;"/>
    <path d="M70.241,103.774C70.486,104.218 70.325,104.781 69.881,105.027L63.916,108.334C63.471,108.58 62.908,108.419 62.663,107.975L62.64,107.934C62.395,107.49 62.556,106.927 63,106.681L68.965,103.374C69.41,103.128 69.973,103.29 70.218,103.734L70.241,103.774Z" style="fill:white;fill-opacity:0.4;fill-rule:nonzero;"/>
    <path d="M126.466,108.027C126.223,108.468 125.667,108.626 125.227,108.383L119.549,105.235C119.109,104.992 118.948,104.435 119.193,103.996L119.225,103.938C119.468,103.497 120.024,103.339 120.465,103.583L126.143,106.73C126.582,106.974 126.743,107.53 126.498,107.97L126.466,108.027Z" style="fill:white;fill-opacity:0.4;fill-rule:nonzero;"/>
    <path d="M186.51,108.926C187.705,109.199 188.752,109.179 189.654,108.866C190.806,108.442 191.843,108.106 192.761,107.859C194.595,107.362 196.484,108.294 196.389,110.371C196.254,113.258 192.412,114.499 189.917,114.706L186.809,114.891C183.751,114.229 182.187,112.442 182.115,109.522C182.085,108.221 182.625,107.286 184.051,107.882C184.88,108.228 185.7,108.573 186.51,108.926Z" style="fill:white;fill-opacity:0.15;fill-rule:nonzero;"/>
    <path d="M77.991,121.911C77.739,122.357 77.176,122.512 76.731,122.263L76.696,122.243C76.251,121.992 76.093,121.429 76.344,120.983L79.719,114.995C79.971,114.548 80.534,114.394 80.979,114.643L81.013,114.662C81.459,114.914 81.617,115.477 81.365,115.922L77.991,121.911Z" style="fill:white;fill-opacity:0.4;fill-rule:nonzero;"/>
    <path d="M112.843,121.101C113.088,121.541 112.933,122.097 112.496,122.343L112.438,122.375C111.999,122.624 111.442,122.466 111.196,122.029L107.942,116.252C107.696,115.813 107.851,115.256 108.288,115.01L108.346,114.978C108.786,114.729 109.342,114.887 109.588,115.325L112.843,121.101Z" style="fill:white;fill-opacity:0.4;fill-rule:nonzero;"/>
    <path d="M96.139,125.71C96.144,126.222 95.733,126.64 95.222,126.643L95.169,126.643C94.66,126.647 94.241,126.238 94.236,125.726L94.181,119.36C94.176,118.848 94.587,118.43 95.098,118.427L95.15,118.426C95.66,118.423 96.078,118.831 96.083,119.343L96.139,125.71Z" style="fill:white;fill-opacity:0.4;fill-rule:nonzero;"/>
    <path d="M204.204,123.674C203.592,124.974 203.141,126.09 202.854,127.028C201.952,129.962 202.219,132.826 203.658,135.624C203.503,136.239 203.437,136.802 203.085,137.346C202.486,138.277 201.979,139.331 201.567,140.509C201.495,140.717 201.238,141.079 200.8,141.596C196.86,146.257 191.856,148.943 185.789,149.651C185.43,149.694 185.015,149.572 184.544,149.286C183.313,148.545 182.77,148.249 181.549,147.59C180.466,147.004 179.699,146.422 179.244,145.842C178.53,144.93 177.964,143.472 177.542,141.464C177.513,141.329 177.47,141.2 177.411,141.079C177.167,140.555 176.825,139.657 177.183,139.15C177.269,139.028 177.536,138.926 177.98,138.84C187.58,137.013 196.932,132.243 203.213,124.586C203.49,124.247 203.73,123.875 203.938,123.463C203.99,123.355 204.142,123.351 204.208,123.453C204.237,123.499 204.234,123.572 204.204,123.674Z" style="fill:white;fill-opacity:0.95;fill-rule:nonzero;"/>
    <path d="M104.081,198.549C104.508,199.331 104.963,200.153 105.263,200.829C107.972,206.923 110.534,213.111 112.963,219.382C110.873,220.192 108.772,221.028 106.665,221.891C106.056,222.14 105.446,222.39 104.837,222.64C104.434,220.633 104.094,218.052 103.843,214.586C103.248,206.373 103.299,202.422 104.081,198.549Z" style="fill:white;fill-opacity:0.25;"/>
    <path d="M104.837,222.64C98.764,225.135 92.708,227.671 86.667,230.246C80.863,232.719 74.756,234.92 68.34,236.853C68.379,218.697 68.36,200.588 68.284,182.525C68.271,179.832 68.439,178.012 68.788,177.067C69.709,174.575 71.81,173.327 75.085,173.33C94.824,173.34 114.612,173.33 134.447,173.301C133.097,175.911 131.792,178.516 130.529,181.109C130,182.196 129.697,183.128 129.614,183.904C129.588,184.148 129.63,184.395 129.733,184.619C130.053,185.317 130.267,185.714 130.365,185.814C131.025,186.484 131.921,187.109 133.074,187.67C134.248,188.242 135.21,188.655 135.964,188.911L135.629,191.683C134.43,191.654 133.245,191.684 132.076,191.772C130.17,191.915 128.992,191.989 128.534,191.993C126.605,192.008 124.827,192.286 122.559,192.421C118.171,192.681 114.754,193.339 109.49,194.261C108.792,194.383 107.505,194.412 105.632,194.347C104.973,194.323 104.298,194.619 103.61,195.242C103.538,195.308 103.495,195.403 103.495,195.505L103.495,196.898C103.495,197.267 103.584,197.629 103.759,197.955C103.862,198.148 103.971,198.347 104.081,198.549C103.299,202.422 103.248,206.373 103.843,214.586C104.094,218.052 104.434,220.633 104.837,222.64Z" style="fill:white;fill-opacity:0.15;"/>
    <path d="M262.897,197.403C263.018,196.969 263.09,196.37 263.111,195.604C263.115,195.486 263.055,195.377 262.96,195.311L261.62,194.396C261.528,194.333 261.419,194.304 261.311,194.31C259.915,194.397 258.018,194.456 256.323,194.149C253.219,193.587 250.088,193.076 246.938,192.618C246.553,188.819 246.193,184.967 245.855,181.06C245.825,180.721 245.611,180.504 245.206,180.408C245.479,180.155 245.788,179.924 246.128,179.723C246.631,179.426 246.941,179.21 247.056,179.075C248.008,177.959 247.778,177.041 247.234,175.612C246.96,174.891 246.684,174.124 246.411,173.317C257.515,173.324 268.576,173.324 279.601,173.321C282.156,173.321 284.657,174.15 285.77,176.547C286.099,177.254 286.264,178.766 286.267,181.073C286.287,206.356 286.29,226.075 286.277,240.234C286.274,240.741 286.106,241.132 285.767,241.409C282.091,232.232 273.912,224.128 262.388,217.76C262.85,215.307 263.252,212.649 263.395,210.267C263.593,206.979 263.305,200.847 262.897,197.403Z" style="fill:white;fill-opacity:0.15;"/>
    <path d="M262.388,217.76C260.22,216.562 257.934,215.426 255.537,214.355C257.318,209.88 258.853,206.177 260.148,203.248C260.575,202.283 261.447,200.464 262.752,197.793C262.807,197.683 262.855,197.552 262.897,197.403C263.305,200.847 263.593,206.979 263.395,210.267C263.252,212.649 262.85,215.307 262.388,217.76Z" style="fill:white;fill-opacity:0.25;"/>
    <path d="M245.206,180.408C242.355,180.872 240.528,181.268 239.725,181.593C234.893,183.553 229.865,184.795 224.651,185.415C224.545,185.428 224.448,185.475 224.371,185.55C223.902,186.01 223.683,186.594 223.729,187.315C224.126,193.589 224.739,199.661 225.574,205.532C233.89,206.975 241.61,209.009 248.583,211.547L246.938,192.618C246.553,188.819 246.193,184.967 245.855,181.06C245.825,180.721 245.611,180.504 245.206,180.408Z" style="fill:white;fill-opacity:0.95;"/>
    <path d="M135.964,188.911L135.629,191.683C135.224,195.064 134.763,198.383 134.252,201.635C133.697,205.175 133.294,208.754 133.044,212.373C139.809,210.352 146.525,208.682 153.152,207.34C152.755,206.131 151.13,194.367 150.949,192.575C150.947,192.552 150.933,192.536 150.91,192.533C145.538,191.795 140.553,190.62 135.964,188.911Z" style="fill:white;fill-opacity:0.95;"/>
    <path d="M135.629,191.683C134.43,191.654 133.245,191.684 132.076,191.772C130.17,191.915 128.992,191.989 128.534,191.993C126.605,192.008 124.827,192.286 122.559,192.421C118.171,192.681 114.754,193.339 109.49,194.261C108.792,194.383 107.505,194.412 105.632,194.347C104.973,194.323 104.298,194.619 103.61,195.242C103.538,195.308 103.495,195.403 103.495,195.505L103.495,196.898C103.495,197.267 103.584,197.629 103.759,197.955C104.262,198.896 104.885,199.979 105.263,200.829C107.972,206.923 110.534,213.111 112.963,219.382C119.68,216.692 126.386,214.363 133.044,212.373C133.294,208.754 133.697,205.175 134.252,201.635C134.763,198.383 135.224,195.064 135.629,191.683Z" style="fill:white;fill-opacity:0.35;"/>
    <path d="M255.537,214.355C257.318,209.88 258.853,206.177 260.148,203.248C260.575,202.283 261.447,200.464 262.752,197.793C262.963,197.362 263.082,196.635 263.111,195.604C263.115,195.486 263.055,195.377 262.96,195.311L261.62,194.396C261.528,194.333 261.419,194.304 261.311,194.31C259.915,194.397 258.018,194.456 256.323,194.149C253.219,193.587 250.088,193.076 246.938,192.618L248.583,211.547C250.992,212.424 253.312,213.361 255.537,214.355Z" style="fill:white;fill-opacity:0.35;"/>
    <path d="M285.767,241.409C286.461,242.551 292.92,254.073 293.45,255.37C293.532,255.572 314.227,290.074 281.62,292.784C243.491,295.951 192.796,275.632 162.978,283.54C122.036,294.398 100.918,292.257 81.888,281.169C49.03,262.023 60.818,242.732 61.022,242.38C61.493,241.567 62.444,240.464 63.876,239.065C64.432,238.522 65.012,238.143 65.621,237.923C66.727,237.521 67.632,237.166 68.34,236.853C74.756,234.92 80.863,232.719 86.667,230.246C93.314,227.413 99.979,224.626 106.665,221.891C108.772,221.028 110.882,220.216 112.963,219.382C119.68,216.692 126.386,214.363 133.044,212.373C139.809,210.352 146.525,208.682 153.152,207.34C179.508,202.005 204.464,201.867 225.574,205.532C233.89,206.975 241.61,209.009 248.583,211.547C250.992,212.424 253.312,213.361 255.537,214.355C270.675,221.118 281.4,230.506 285.767,241.409Z" style="fill:white;fill-opacity:0.5;"/>
</svg>
