<?xml version="1.0" encoding="UTF-8" standalone="no"?>
<!DOCTYPE svg PUBLIC "-//W3C//DTD SVG 1.1//EN" "http://www.w3.org/Graphics/SVG/1.1/DTD/svg11.dtd">
<svg width="100%" height="100%" viewBox="0 0 300 300" version="1.1" xmlns="http://www.w3.org/2000/svg" xmlns:xlink="http://www.w3.org/1999/xlink" xml:space="preserve" xmlns:serif="http://www.serif.com/" style="fill-rule:evenodd;clip-rule:evenodd;stroke-linejoin:round;stroke-miterlimit:2;">
    <path d="M109.275,98.623C108.506,98.463 100.953,98.788 100.953,98.788C100.626,97.045 100.095,95.463 99.358,94.044C98.19,91.795 97.211,89.57 97,87.1C96.825,85.049 97.004,82.935 97.543,80.758C100.247,80.752 102.63,80.087 104.692,78.766C106.88,77.363 109.461,74.485 108.074,71.789C107.518,70.709 106.591,70.655 105.467,71.026C103.715,71.603 101.945,72.071 100.153,72.428C100.014,72.403 99.928,72.361 99.896,72.299L99.883,72.266C99.854,72.165 99.911,72.057 100.011,72.028L100.045,72.022C100.695,71.97 101.141,71.624 101.439,70.986C102.551,68.596 103.595,63.949 100.884,62.258C99.101,61.145 96.619,62.872 94.815,61.197C93.803,60.257 94.502,57.996 94.823,56.731C97.514,46.145 101.868,36.34 107.877,27.314C108.528,26.337 109.516,25.033 110.841,23.402C110.945,23.274 111.038,23.135 111.118,22.988L111.99,21.345C115.115,20.331 117.806,20.96 120.055,23.241C120.712,23.907 121.537,25.191 122.533,27.089C123.077,28.125 123.767,30.043 124.61,32.841C125.483,35.741 126.354,39.059 127.221,42.794C127.621,44.521 128.292,46.531 129.233,48.822C130.12,50.984 131.056,52.678 133.241,53.57C135.229,54.381 138.179,52.659 139.708,51.309C140.844,50.305 142.009,49.22 143.206,48.055C143.305,47.96 143.419,47.884 143.544,47.83C146.514,46.548 149.549,49.252 150.765,51.678C152.274,54.687 152.339,57.437 150.966,59.928C149.169,63.189 145.3,64.651 141.74,65.258C141.43,65.311 141.171,65.525 141.061,65.82C140.216,68.091 139.839,70.297 139.881,72.423C139.853,76.536 141.088,80.884 144.17,84.258C143.762,84.187 143.371,84.272 142.997,84.513C136.928,88.427 130.261,91.867 122.999,94.84C120.129,96.015 117.228,96.944 114.295,97.615C113.578,97.779 111.904,98.114 109.275,98.623ZM110.018,49.397C111.766,49.67 113.715,50.165 115.842,50.939C115.868,50.949 115.896,50.954 115.924,50.955C116.062,50.958 116.179,50.845 116.182,50.704C116.183,50.676 116.179,50.648 116.171,50.622C115.509,48.478 112.464,47.387 110.379,47.063C108.299,46.74 105.082,46.864 103.784,48.694C103.767,48.718 103.754,48.744 103.746,48.772C103.706,48.907 103.783,49.051 103.916,49.09C103.945,49.099 103.975,49.101 104.005,49.1C106.263,48.979 108.269,49.124 110.018,49.397ZM118.4,43.135L118.404,43.132C118.551,43.005 118.558,42.769 118.42,42.609L118.416,42.605C117.776,41.885 116.969,41.237 115.994,40.661C112.621,38.677 108.459,37.331 104.608,38.303C104.069,38.44 103.64,38.699 103.318,39.082C103.125,39.311 103.119,39.646 103.302,39.882C103.997,40.773 105.961,40.994 107.094,41.107C111.412,41.52 114.03,41.826 117.525,43.244C117.857,43.377 118.149,43.341 118.4,43.135Z" style="fill:white;fill-opacity:0.95;"/>
    <path d="M100.953,98.788C96.256,98.504 92.828,96.306 90.67,92.193C89.878,90.685 89.251,89.036 88.791,87.244C87.896,83.788 87.398,80.208 87.296,76.504C87.16,71.505 87.318,66.609 87.77,61.816C88.003,59.362 89.317,51.04 89.53,49.164C91.012,48.778 92.534,49.355 93.908,49.895C93.98,49.923 94.058,49.938 94.136,49.938C94.477,49.938 94.758,49.657 94.758,49.316C94.758,49.284 94.756,49.252 94.751,49.22C94.682,48.765 94.49,48.335 94.169,47.931C93.115,46.603 91.715,46.151 89.963,46.577C90.044,44.395 90.444,42.549 91.164,41.038C92.779,41.146 93.999,40.814 94.823,40.042C94.843,40.024 94.861,40.005 94.879,39.984C95.122,39.696 95.087,39.261 94.8,39.019C94.78,39.001 94.758,38.985 94.735,38.97C93.891,38.416 92.875,38.12 91.686,38.082C92.551,34.741 93.731,31.487 95.225,28.322C95.287,28.194 95.403,28.038 95.574,27.856C96.648,28.349 97.782,28.511 98.976,28.342C102.31,27.872 104.988,25.783 107.672,23.502C108.845,22.506 110.284,21.787 111.99,21.345L111.118,22.988C111.038,23.135 110.945,23.274 110.841,23.402C109.516,25.033 108.528,26.337 107.877,27.314C101.868,36.34 97.514,46.145 94.823,56.731C94.502,57.996 93.803,60.257 94.815,61.197C96.619,62.872 99.101,61.145 100.884,62.258C103.595,63.949 102.551,68.596 101.439,70.986C101.141,71.624 100.695,71.97 100.045,72.022L100.011,72.028C99.911,72.057 99.854,72.165 99.883,72.266L99.896,72.299C99.928,72.361 100.014,72.403 100.153,72.428C97.334,73.097 94.477,73.409 91.582,73.359C91.456,73.357 91.338,73.425 91.277,73.536C90.248,75.395 91.155,76.987 92.193,78.649C93.488,80.723 95.245,80.886 97.543,80.758C97.004,82.935 96.825,85.049 97,87.1C97.211,89.57 98.19,91.795 99.358,94.044C100.095,95.463 100.626,97.045 100.953,98.788Z" style="fill:white;fill-opacity:0.75;"/>
    <path d="M118.4,43.135L118.404,43.132C118.551,43.005 118.558,42.769 118.42,42.609L118.416,42.605C117.776,41.885 116.969,41.237 115.994,40.661C112.621,38.677 108.459,37.331 104.608,38.303C104.069,38.44 103.64,38.699 103.318,39.082C103.125,39.311 103.119,39.646 103.302,39.882C103.997,40.773 105.961,40.994 107.094,41.107C111.412,41.52 114.03,41.826 117.525,43.244C117.857,43.377 118.149,43.341 118.4,43.135Z" style="fill:white;fill-opacity:0.15;"/>
    <path d="M91.164,41.038C91.603,40.305 91.777,39.319 91.686,38.082C92.875,38.12 93.891,38.416 94.735,38.97C94.758,38.985 94.78,39.001 94.8,39.019C95.087,39.261 95.122,39.696 94.879,39.984C94.861,40.005 94.843,40.024 94.823,40.042C93.999,40.814 92.779,41.146 91.164,41.038Z" style="fill:white;fill-opacity:0.15;"/>
    <path d="M179.633,92.503C177.158,75.418 175.302,62.424 175.302,61.844C175.302,57.666 179.756,52.618 183.711,52.078C197.661,50.17 217.894,47.521 228.744,45.983C231.108,45.648 233.026,45.366 234.337,45.155C237.051,44.72 243.564,47.573 244.471,53.225C247.073,70.587 249.613,87.985 252.074,105.423C252.101,105.613 252.277,105.786 252.604,105.941L249.732,106.375C249.304,106.386 249.057,106.159 248.989,105.696C248.318,101.092 247.746,96.958 247.298,93.289C247.289,93.213 247.224,93.155 247.147,93.155C247.097,93.155 247.05,93.18 247.021,93.221C244.726,96.547 241.587,98.496 237.602,99.069C213.112,102.593 198.749,104.678 194.513,105.315C190.588,105.905 187.094,104.921 183.95,102.471C183.924,102.451 183.892,102.441 183.86,102.441C183.778,102.441 183.711,102.508 183.711,102.589L183.713,102.612L185.701,115.633L194.276,174.917C193.529,175.193 192.801,175.251 192.087,175.11C191.968,175.086 191.85,175.157 191.814,175.27L191.73,175.539C189.933,163.021 188.562,153.61 187.617,147.305C185.152,130.433 182.088,109.454 179.633,92.503ZM225.879,48.926L208.7,51.413C201.009,52.528 193.34,53.641 185.693,54.759C180.749,55.481 177.44,59.691 178.174,64.656C179.458,73.337 180.621,81.356 181.671,88.712L182.138,92C182.419,93.981 182.739,95.406 183.098,96.274C184.382,99.375 187.263,101.611 190.521,102.278C191.415,102.461 193.233,102.357 195.975,101.965C203.679,100.864 210.23,99.921 215.628,99.137C221.026,98.354 227.575,97.396 235.273,96.262C238.012,95.858 239.785,95.442 240.591,95.012C243.524,93.449 245.652,90.486 246.001,87.148C246.099,86.214 245.998,84.756 245.704,82.774C244.482,74.546 243.159,65.432 241.735,55.434C241.028,50.465 236.659,47.369 231.71,48.083L225.879,48.926Z" style="fill:white;fill-opacity:0.5;"/>
    <path d="M89.53,49.164C89.393,49.075 89.196,49.078 88.939,49.172C88.923,49.178 88.907,49.182 88.889,49.182C88.817,49.182 88.757,49.122 88.757,49.049C88.757,49.036 88.759,49.023 88.762,49.011C89.038,48.042 89.439,47.231 89.963,46.577C91.715,46.151 93.115,46.603 94.169,47.931C94.49,48.335 94.682,48.765 94.751,49.22C94.756,49.252 94.758,49.284 94.758,49.316C94.758,49.657 94.477,49.938 94.136,49.938C94.058,49.938 93.98,49.923 93.908,49.895C92.534,49.355 91.012,48.778 89.53,49.164Z" style="fill:white;fill-opacity:0.15;"/>
    <path d="M110.018,49.397C111.766,49.67 113.715,50.165 115.842,50.939C115.868,50.949 115.896,50.954 115.924,50.955C116.062,50.958 116.179,50.845 116.182,50.704C116.183,50.676 116.179,50.648 116.171,50.622C115.509,48.478 112.464,47.387 110.379,47.063C108.299,46.74 105.082,46.864 103.784,48.694C103.767,48.718 103.754,48.744 103.746,48.772C103.706,48.907 103.783,49.051 103.916,49.09C103.945,49.099 103.975,49.101 104.005,49.1C106.263,48.979 108.269,49.124 110.018,49.397Z" style="fill:white;fill-opacity:0.15;"/>
    <path d="M225.879,48.926L231.71,48.083C236.659,47.369 241.028,50.465 241.735,55.434C243.159,65.432 244.482,74.546 245.704,82.774C245.998,84.756 246.099,86.214 246.001,87.148C245.652,90.486 243.524,93.449 240.591,95.012C239.785,95.442 238.012,95.858 235.273,96.262C227.575,97.396 221.026,98.354 215.628,99.137C210.23,99.921 203.679,100.864 195.975,101.965C193.233,102.357 191.415,102.461 190.521,102.278C187.263,101.611 184.382,99.375 183.098,96.274C182.739,95.406 182.419,93.981 182.138,92L181.671,88.712C180.621,81.356 179.458,73.337 178.174,64.656C177.44,59.691 180.749,55.481 185.693,54.759C193.34,53.641 201.009,52.528 208.7,51.413L225.879,48.926ZM204.847,84.014C208.031,86.346 212.343,88.317 216.063,89.688C220.483,86.36 225.672,81.581 227.336,77.32C229.374,72.536 229.164,68.083 226.934,65.499C226.378,63.875 225.38,62.563 223.961,61.714C220.205,59.465 213.5,60.452 211.217,68.218C206.794,61.438 200.088,62.425 197.139,65.66C194.19,68.896 194.997,74.38 199.156,79.372C200.468,81.046 202.508,82.613 204.847,84.014Z" style="fill:white;fill-opacity:0.95;"/>
    <path d="M244.471,53.225C245.246,53.275 247.993,57.105 248.34,59.118C248.34,59.118 256.139,104.082 256.062,104.973C256.028,105.391 256.214,105.782 256.621,106.146C255.239,105.793 253.9,105.724 252.604,105.941C252.277,105.786 252.101,105.613 252.074,105.423C249.613,87.985 247.073,70.587 244.471,53.225Z" style="fill:white;fill-opacity:0.35;"/>
    <path d="M97.543,80.758C100.247,80.752 102.63,80.087 104.692,78.766C106.88,77.363 109.461,74.485 108.074,71.789C107.518,70.709 106.591,70.655 105.467,71.026C103.715,71.603 101.945,72.071 100.153,72.428C97.334,73.097 94.477,73.409 91.582,73.359C91.456,73.357 91.338,73.425 91.277,73.536C90.248,75.395 91.155,76.987 92.193,78.649C93.488,80.723 95.245,80.886 97.543,80.758Z" style="fill:white;fill-opacity:0.15;"/>
    <path d="M33.467,164.94C33.314,164.726 33.138,164.655 32.937,164.727C32.895,164.743 32.86,164.771 32.836,164.807L30.382,168.768C30.232,169.013 29.982,169.18 29.7,169.226C28.647,169.397 27.499,169.359 26.253,169.113C24.687,168.802 22.963,168.038 21.08,166.82C19.487,165.786 18.195,164.474 17.204,162.883C16.887,162.377 16.855,161.742 17.12,161.209L18.59,158.224C18.595,158.214 18.603,158.204 18.614,158.196C18.764,158.1 18.836,157.935 18.831,157.702C18.823,157.45 18.884,157.3 19.016,157.252C19.131,157.207 19.199,157.112 19.22,156.967C19.237,156.852 19.27,156.742 19.321,156.638C21.891,151.357 24.386,146.08 26.804,140.805C27.503,141.38 28.694,142.291 30.378,143.536C32.314,144.966 35.134,146.229 37.379,145.637C38.239,145.41 39.075,144.76 39.889,143.693C42.361,140.453 43.572,136.839 43.516,132.844C43.492,131.12 43.431,129.973 43.332,129.406C42.635,125.445 42.271,123.378 42.255,123.204C42.171,122.249 42.263,121.351 42.52,120.513C43.29,118.007 44.538,115.565 45.754,113.203C46.188,112.36 46.573,110.801 46.296,109.966C45.858,108.633 44.999,107.015 43.716,105.112L47.618,98.52C50.723,100.192 56.912,103.533 66.186,108.544C66.67,108.806 67.136,108.909 67.584,108.854L62.555,116.557C60.431,114.257 59.126,112.726 58.639,111.966C57.41,110.051 56.497,108.727 55.899,107.994C55.016,106.909 53.732,106.456 52.047,106.636C51.901,106.652 51.765,106.714 51.658,106.813C51.202,107.232 50.916,107.554 50.802,107.781C50.606,108.173 50.46,108.533 50.365,108.861C50.296,109.095 50.263,110.053 50.296,111.737C50.3,111.947 50.339,112.155 50.409,112.352C50.523,112.673 50.711,113.294 50.971,114.215C51.541,116.232 53.028,118.349 54.269,119.911C54.296,119.945 54.317,119.983 54.333,120.023L54.803,121.292C54.849,121.418 54.844,121.558 54.787,121.678C54.157,123.002 53.584,123.957 53.088,124.554C49.028,129.438 45.738,134.644 44.03,140.744C43.859,141.355 43.939,141.97 43.693,142.472C43.318,143.236 43.513,144.396 43.392,145.122C43.316,145.577 43.115,146.001 42.813,146.347C42.013,147.266 41.441,147.987 41.098,148.512C39.418,151.09 36.739,155.334 33.118,161.277C33.048,161.391 33.004,161.517 32.985,161.646C32.82,162.772 32.977,163.869 33.467,164.94Z" style="fill:white;fill-opacity:0.25;"/>
    <path d="M109.427,119.429C111.019,118.038 111.815,113.01 111.732,108.215C111.657,103.863 110.859,99.703 109.275,98.623C111.904,98.114 113.578,97.779 114.295,97.615C117.228,96.944 120.129,96.015 122.999,94.84C130.261,91.867 136.928,88.427 142.997,84.513C143.371,84.272 143.762,84.187 144.17,84.258C144.802,84.95 145.511,85.601 146.303,86.2C146.281,86.59 146.154,86.843 145.921,86.959C136.311,91.759 128.24,98.313 121.714,106.632C119.328,109.673 117.201,113.528 116.617,117.392C116.127,120.632 115.59,123.4 114.998,125.695C114.674,126.953 113.918,128.775 112.789,131.189C112.746,131.281 112.725,131.382 112.725,131.482L112.725,131.8L112.725,131.803C112.725,131.933 112.618,132.04 112.488,132.04C112.418,132.04 112.352,132.009 112.307,131.956L109.612,128.795C109.582,128.759 109.567,128.713 109.572,128.667L109.596,128.502C109.601,128.324 109.483,128.163 109.311,128.116C109.161,128.076 109.086,127.977 109.086,127.819C109.086,127.608 109.041,127.443 108.949,127.325C108.414,126.634 107.932,125.622 107.532,124.281C107.494,124.154 107.484,124.021 107.503,123.891C107.585,123.35 107.729,122.843 107.925,122.369C108.347,121.351 108.849,120.371 109.427,119.429Z" style="fill:white;fill-opacity:0.75;"/>
    <path d="M191.73,175.539L192.16,178.52C192.16,178.52 196.774,209.565 200.48,234.633C198.145,236.912 192.616,242.281 191.894,242.74C192.227,241.54 192.18,240.835 191.754,240.627C188.64,239.106 185.473,237.707 182.263,236.414L177.813,234.799C175.85,234.087 173.955,233.245 172.129,232.273C168.185,229.946 165.118,227.884 162.927,226.087C161.024,224.526 159.338,222.931 157.871,221.3C153.995,216.992 150.287,212.217 146.749,206.973C145.909,205.728 144.833,203.796 144.218,202.514C141.784,197.435 139.779,192.183 138.202,186.758L135.483,177.198C135.169,176.092 134.739,175.092 134.193,174.198C133.959,173.815 133.518,173.614 133.089,173.696C131.225,174.053 129.554,178.476 129.068,180.154C127.227,186.512 126.901,192.785 128.092,198.976C128.735,202.315 129.477,205.459 130.309,208.411C130.413,208.778 130.436,209.165 130.378,209.543C130.111,211.273 129.553,212.837 128.707,214.235C121.929,209.369 117.238,205.786 114.629,203.486C111.328,200.577 108.956,198.554 106.544,195.156C106.365,194.905 106.162,194.672 105.937,194.461C104.659,193.263 103.51,191.852 102.495,190.224C101.438,188.529 100.883,186.767 100.828,184.938C100.794,183.805 101.174,182.194 101.969,180.102C104.024,174.694 105.674,170.471 106.929,167.438C107.215,166.747 107.562,165.505 107.973,163.711C108.438,161.686 108.014,159.626 107.074,158.019C104.749,154.046 102.529,150.41 100.414,147.111C98.582,144.251 96.237,141.996 92.851,141.427C92.631,141.39 92.405,141.39 92.184,141.427C89.378,141.897 86.842,143.515 84.449,145.066C80.394,147.694 76.655,150.686 73.227,154.035C72.11,155.125 71.152,156.203 70.351,157.268C69.248,158.736 68.809,160.298 69.033,161.956C69.057,162.133 69.116,162.305 69.202,162.462C69.609,163.201 70.142,163.879 70.817,164.49C72.314,165.847 73.648,166.977 74.813,167.888C75.137,168.141 75.293,168.555 75.219,168.956L72.596,183.263C72.074,186.576 71.266,190.173 70.17,194.056C69.591,196.106 68.833,198.038 67.895,199.852C65.432,193.597 63.024,188.417 61.378,185.44C60.037,183.014 58.045,172.262 56.985,164.741C58.73,161.381 60.613,158.031 62.647,154.079C64.069,151.311 65.653,147.981 67.399,144.09C69.46,139.487 71.597,135.163 73.809,131.117C74.912,129.098 76.325,127.032 78.046,124.919C79.862,122.694 82.066,120.847 84.658,119.377C88.007,117.473 91.361,116.613 95.406,116.645C98.555,116.669 101.649,117.103 104.688,117.947C106.067,118.33 107.445,118.71 108.821,119.087C108.874,119.101 108.924,119.122 108.97,119.152L109.427,119.429C108.849,120.371 108.347,121.351 107.925,122.369C107.729,122.843 107.585,123.35 107.503,123.891C107.484,124.021 107.494,124.154 107.532,124.281C107.932,125.622 108.414,126.634 108.949,127.325C109.041,127.443 109.086,127.608 109.086,127.819C109.086,127.977 109.161,128.076 109.311,128.116C109.483,128.163 109.601,128.324 109.596,128.502L109.572,128.667C109.567,128.713 109.582,128.759 109.612,128.795L112.307,131.956C112.352,132.009 112.418,132.04 112.488,132.04C112.618,132.04 112.725,131.933 112.725,131.803L112.725,131.8L112.725,131.482C112.725,131.382 112.746,131.281 112.789,131.189C113.918,128.775 114.674,126.953 114.998,125.695C115.59,123.4 116.127,120.632 116.617,117.392C117.201,113.528 119.328,109.673 121.714,106.632C128.24,98.313 136.311,91.759 145.921,86.959C146.154,86.843 146.281,86.59 146.303,86.2C147.017,86.74 147.798,87.238 148.65,87.687C148.232,88.147 147.848,88.76 147.496,89.526C144.505,96.043 144.874,102.226 148.604,108.074C149.531,109.525 151.026,111.564 153.091,114.191C154.71,116.252 156.252,117.959 158.481,118.457C159.078,118.591 160.931,119.02 164.04,119.746C174.483,122.18 181.672,129.39 185.962,139.13C186.492,140.811 186.871,142.395 187.099,143.881C187.254,144.897 187.427,146.038 187.617,147.305C188.562,153.61 189.933,163.021 191.73,175.539Z" style="fill:white;fill-opacity:0.95;"/>
    <path d="M249.732,106.375C249.304,106.386 249.057,106.159 248.989,105.696C248.318,101.092 247.746,96.958 247.298,93.289C247.289,93.213 247.224,93.155 247.147,93.155C247.097,93.155 247.05,93.18 247.021,93.221C244.726,96.547 241.587,98.496 237.602,99.069C213.112,102.593 198.749,104.678 194.513,105.315C190.588,105.905 187.094,104.921 183.95,102.471C183.924,102.451 183.892,102.441 183.86,102.441C183.778,102.441 183.711,102.508 183.711,102.589L183.713,102.612L185.701,115.633L249.732,106.375Z" style="fill:white;fill-opacity:0.75;"/>
    <path d="M46.296,109.966C46.573,110.801 46.188,112.36 45.754,113.203C44.538,115.565 43.29,118.007 42.52,120.513C42.263,121.351 42.171,122.249 42.255,123.204C42.271,123.378 42.635,125.445 43.332,129.406C43.431,129.973 43.492,131.12 43.516,132.844C43.572,136.839 42.361,140.453 39.889,143.693C39.075,144.76 38.239,145.41 37.379,145.637C35.134,146.229 32.314,144.966 30.378,143.536C28.694,142.291 27.503,141.38 26.804,140.805C22.209,136.893 20.687,133.121 22.791,127.289C23.627,124.97 24.755,122.618 26.177,120.232C28.477,116.368 30.917,113.014 33.495,110.171C35.08,108.422 36.292,107.231 37.13,106.596C37.891,106.018 38.852,105.404 40.014,104.756C41.254,104.063 42.435,104.103 43.557,104.877L43.716,105.112C44.999,107.015 45.858,108.633 46.296,109.966Z" style="fill:white;fill-opacity:0.75;"/>
    <path d="M256.621,106.146C258.822,106.888 260.521,108.336 261.718,110.492C262.066,111.389 262.348,112.581 262.565,114.067L268.353,154.083C268.558,155.497 268.891,157.309 268.602,158.453C267.602,162.408 265.03,164.685 260.89,165.281C238.671,168.484 216.466,171.693 194.276,174.917L185.701,115.633L249.732,106.375L252.604,105.941C253.9,105.724 255.239,105.793 256.621,106.146ZM246.459,121.203C246.303,120.147 245.388,119.357 244.321,119.357C244.216,119.357 244.11,119.365 244.006,119.381L226.658,121.942C225.485,122.115 224.663,123.223 224.836,124.396L224.85,124.491C225.006,125.546 225.921,126.336 226.987,126.336C227.093,126.336 227.199,126.329 227.303,126.313L244.651,123.751C245.824,123.578 246.646,122.471 246.473,121.298L246.459,121.203ZM249.251,140.536C249.08,139.352 247.965,138.518 246.781,138.688L209.126,144.115C208.057,144.269 207.256,145.194 207.256,146.273C207.256,146.377 207.263,146.481 207.278,146.584L207.285,146.632C207.456,147.816 208.571,148.65 209.755,148.48L247.41,143.054C248.479,142.9 249.28,141.974 249.28,140.895C249.28,140.791 249.273,140.687 249.258,140.584L249.251,140.536ZM247.864,130.85C247.71,129.791 246.792,128.998 245.722,128.998C245.618,128.998 245.513,129.005 245.41,129.02L228.081,131.548C227.022,131.703 226.229,132.621 226.229,133.691C226.229,133.795 226.236,133.9 226.251,134.003L226.264,134.091C226.419,135.15 227.336,135.943 228.406,135.943C228.511,135.943 228.615,135.935 228.719,135.92L246.047,133.392C247.106,133.238 247.9,132.32 247.9,131.25C247.9,131.146 247.892,131.041 247.877,130.938L247.864,130.85ZM250.685,150.16C250.514,148.975 249.399,148.141 248.215,148.312L210.56,153.738C209.491,153.892 208.69,154.817 208.69,155.897C208.69,156.001 208.697,156.105 208.712,156.208L208.719,156.256C208.89,157.44 210.004,158.274 211.189,158.103L248.844,152.677C249.913,152.523 250.714,151.598 250.714,150.518C250.714,150.414 250.707,150.31 250.692,150.207L250.685,150.16ZM213.74,122.726C213.718,122.572 213.573,122.464 213.419,122.485L206.462,123.489C206.308,123.512 206.2,123.657 206.221,123.811L206.651,126.783C206.674,126.937 206.818,127.045 206.972,127.024L209.382,126.675C209.536,126.653 209.681,126.762 209.704,126.916L211.427,138.865C211.449,139.019 211.594,139.127 211.748,139.106L215.733,138.531C215.886,138.509 215.995,138.364 215.973,138.21L213.74,122.726ZM223.171,135.378C223.171,133.922 221.973,132.723 220.516,132.723C219.06,132.723 217.861,133.922 217.861,135.378C217.861,136.835 219.06,138.033 220.516,138.033C221.973,138.033 223.171,136.835 223.171,135.378Z" style="fill:white;fill-opacity:0.85;"/>
    <path d="M77.605,242.769C77.334,246.921 76.346,250.429 74.387,252.89C72.723,254.98 70.331,256.589 67.624,258.067C66.223,258.83 64.812,259.228 63.39,259.26C61.631,259.3 58.771,259.015 57.389,257.886C54.682,255.666 52.485,253.019 50.798,249.945C50.244,248.933 49.157,246.503 47.537,242.655C47.258,241.627 46.962,240.66 46.645,239.756C44.42,233.387 42.805,226.866 41.805,220.191C40.78,213.344 39.81,205.011 38.889,195.192C38.782,194.052 38.576,192.923 38.271,191.806C38.231,191.367 38.185,190.849 38.134,190.252C37.759,186.048 37.402,182.44 37.062,179.427C36.708,176.275 36.19,173.752 35.102,170.326C34.534,168.537 33.989,166.742 33.467,164.94C32.977,163.869 32.82,162.772 32.985,161.646C33.004,161.517 33.048,161.391 33.118,161.277C36.739,155.334 39.418,151.09 41.098,148.512C41.441,147.987 42.013,147.266 42.813,146.347C43.115,146.001 43.316,145.577 43.392,145.122C43.513,144.396 43.318,143.236 43.693,142.472C43.939,141.97 43.859,141.355 44.03,140.744C45.738,134.644 49.028,129.438 53.088,124.554C53.584,123.957 54.157,123.002 54.787,121.678C54.844,121.558 54.849,121.418 54.803,121.292L54.333,120.023C54.317,119.983 54.296,119.945 54.269,119.911C53.028,118.349 51.541,116.232 50.971,114.215C50.711,113.294 50.523,112.673 50.409,112.352C50.339,112.155 50.3,111.947 50.296,111.737C50.263,110.053 50.296,109.095 50.365,108.861C50.46,108.533 50.606,108.173 50.802,107.781C50.916,107.554 51.202,107.232 51.658,106.813C51.765,106.714 51.901,106.652 52.047,106.636C53.732,106.456 55.016,106.909 55.899,107.994C56.497,108.727 57.41,110.051 58.639,111.966C59.126,112.726 60.431,114.257 62.555,116.557C63.47,117.433 64.149,118.204 64.591,118.87C65.036,119.543 65.295,120.418 65.37,121.497C65.373,121.543 65.37,121.588 65.362,121.634L64.471,125.662C64.452,125.745 64.442,125.829 64.442,125.911C64.454,126.908 64.145,127.755 63.997,128.823C63.736,130.747 63.29,133.607 63.005,135.692C61.968,143.307 59.643,150.031 56.321,157.22C56.12,157.655 56.421,160.741 56.985,164.741C58.045,172.262 60.037,183.014 61.378,185.44C63.024,188.417 65.432,193.597 67.895,199.852C73.028,212.888 78.399,230.595 77.605,242.769Z" style="fill:white;fill-opacity:0.75;"/>
    <path d="M261.718,110.492C265.272,109.113 267.861,133.939 271.067,159.341C271.631,163.81 267.484,165.884 264.403,167.93C264.211,168.058 278.325,258.207 278.402,258.633C278.455,258.931 278.457,259.235 278.406,259.533C277.76,263.324 276.539,266.514 272.823,267.976C270.658,268.827 268.116,269.008 265.738,269.381C264.547,269.569 262.767,269.833 260.4,270.173C236.588,273.589 224.572,275.316 224.352,275.354C223.806,275.442 222.891,275.48 221.609,275.466C219.143,275.438 216.95,274.454 215.15,272.872C215.048,272.781 214.995,272.593 214.989,272.309C215.876,272.248 216.778,272.153 217.697,272.024C236.004,269.459 250.653,267.354 261.645,265.722C263.865,265.393 265.438,265.032 266.365,264.642C270.106,263.068 272.432,259.966 273.378,255.978C273.653,254.816 273.526,252.59 273.004,249.299C272.66,247.13 268.845,220.386 261.348,169.097C261.324,168.931 261.167,168.814 260.999,168.836L258.231,169.222L194.698,178.443L192.16,178.52L191.73,175.539L191.814,175.27C191.85,175.157 191.968,175.086 192.087,175.11C192.801,175.251 193.529,175.193 194.276,174.917C216.466,171.693 238.671,168.484 260.89,165.281C265.03,164.685 267.602,162.408 268.602,158.453C268.891,157.309 268.558,155.497 268.353,154.083L262.565,114.067C262.348,112.581 262.066,111.389 261.718,110.492Z" style="fill:white;fill-opacity:0.35;"/>
    <path d="M246.459,121.203L246.473,121.298C246.646,122.471 245.824,123.578 244.651,123.751L227.303,126.313C227.199,126.329 227.093,126.336 226.987,126.336C225.921,126.336 225.006,125.546 224.85,124.491L224.836,124.396C224.663,123.223 225.485,122.115 226.658,121.942L244.006,119.381C244.11,119.365 244.216,119.357 244.321,119.357C245.388,119.357 246.303,120.147 246.459,121.203ZM213.74,122.726L215.973,138.21C215.995,138.364 215.886,138.509 215.733,138.531L211.748,139.106C211.594,139.127 211.449,139.019 211.427,138.865L209.704,126.916C209.681,126.762 209.536,126.653 209.382,126.675L206.972,127.024C206.818,127.045 206.674,126.937 206.651,126.783L206.221,123.811C206.2,123.657 206.308,123.512 206.462,123.489L213.419,122.485C213.573,122.464 213.718,122.572 213.74,122.726ZM247.864,130.85L247.877,130.938C247.892,131.041 247.9,131.146 247.9,131.25C247.9,132.32 247.106,133.238 246.047,133.392L228.719,135.92C228.615,135.935 228.511,135.943 228.406,135.943C227.336,135.943 226.419,135.15 226.264,134.091L226.251,134.003C226.236,133.9 226.229,133.795 226.229,133.691C226.229,132.621 227.022,131.703 228.081,131.548L245.41,129.02C245.513,129.005 245.618,128.998 245.722,128.998C246.792,128.998 247.71,129.791 247.864,130.85ZM223.171,135.378C223.171,136.835 221.973,138.033 220.516,138.033C219.06,138.033 217.861,136.835 217.861,135.378C217.861,133.922 219.06,132.723 220.516,132.723C221.973,132.723 223.171,133.922 223.171,135.378ZM249.251,140.536L249.258,140.584C249.273,140.687 249.28,140.791 249.28,140.895C249.28,141.974 248.479,142.9 247.41,143.054L209.755,148.48C208.571,148.65 207.456,147.816 207.285,146.632L207.278,146.584C207.263,146.481 207.256,146.377 207.256,146.273C207.256,145.194 208.057,144.269 209.126,144.115L246.781,138.688C247.965,138.518 249.08,139.352 249.251,140.536ZM250.685,150.16L250.692,150.207C250.707,150.31 250.714,150.414 250.714,150.518C250.714,151.598 249.913,152.523 248.844,152.677L211.189,158.103C210.004,158.274 208.89,157.44 208.719,156.256L208.712,156.208C208.697,156.105 208.69,156.001 208.69,155.897C208.69,154.817 209.491,153.892 210.56,153.738L248.215,148.312C249.399,148.141 250.514,148.975 250.685,150.16Z" style="fill:white;fill-opacity:0.25;"/>
    <path d="M191.894,242.74C190.076,251.943 187.221,260.857 183.327,269.482C182.09,272.221 180.793,274.387 179.435,275.98C178.426,277.169 176.984,277.995 175.109,278.459C173.503,278.858 171.472,279.057 169.016,279.057C168.441,279.054 166.785,278.875 164.048,278.519C158.377,277.776 152.693,275.824 147.536,273.382C147.429,273.331 147.262,273.331 147.034,273.382C146.997,273.16 146.868,272.998 146.648,272.896C145.183,272.216 143.431,271.25 141.391,270C137.669,267.719 134.157,265.274 130.856,262.666C117.637,252.235 106.66,239.39 97.502,225.332C94.549,220.794 92.299,217.312 90.759,214.885C89.204,212.436 87.714,210.246 86.284,208.318C83.861,205.051 82.264,202.937 81.493,201.976C80.853,201.18 79.913,200.254 78.673,199.197C78.55,198.843 78.2,198.251 77.621,197.421C75.562,194.472 73.723,190.212 73.395,186.38C73.266,184.867 73.247,183.436 73.335,182.09C73.335,181.997 73.259,181.92 73.166,181.92C73.097,181.92 73.035,181.962 73.01,182.026L72.596,183.263L75.219,168.956C75.293,168.555 75.137,168.141 74.813,167.888C73.648,166.977 72.314,165.847 70.817,164.49C70.142,163.879 69.609,163.201 69.202,162.462C69.116,162.305 69.057,162.133 69.033,161.956C68.809,160.298 69.248,158.736 70.351,157.268C71.152,156.203 72.11,155.125 73.227,154.035C76.655,150.686 80.394,147.694 84.449,145.066C86.842,143.515 89.378,141.897 92.184,141.427C92.405,141.39 92.631,141.39 92.851,141.427C96.237,141.996 98.582,144.251 100.414,147.111C102.529,150.41 104.749,154.046 107.074,158.019C108.014,159.626 108.438,161.686 107.973,163.711C107.562,165.505 107.215,166.747 106.929,167.438C105.674,170.471 104.024,174.694 101.969,180.102C101.174,182.194 100.794,183.805 100.828,184.938C100.883,186.767 101.438,188.529 102.495,190.224C103.51,191.852 104.659,193.263 105.937,194.461C106.162,194.672 106.365,194.905 106.544,195.156C108.956,198.554 111.328,200.577 114.629,203.486C117.238,205.786 121.929,209.369 128.707,214.235L151.195,230.196C151.257,230.24 151.33,230.263 151.405,230.263C151.569,230.263 151.714,230.153 151.757,229.995L153.316,224.437L153.335,224.379C153.474,224.002 153.899,223.808 154.278,223.948L154.332,223.971C155.162,224.354 155.609,224.563 155.674,224.597C161.131,227.514 164.154,229.06 164.695,229.325C166.071,229.999 168.459,231.077 171.856,232.566C171.966,232.614 172.063,232.596 172.149,232.514C172.184,232.481 172.177,232.401 172.129,232.273C173.955,233.245 175.85,234.087 177.813,234.799L182.263,236.414C185.473,237.707 188.64,239.106 191.754,240.627C192.18,240.835 192.227,241.54 191.894,242.74Z" style="fill:white;fill-opacity:0.75;"/>
    <path d="M192.16,178.52L194.698,178.443C197.252,196.096 199.798,213.742 202.337,231.379C203.787,241.448 205.232,251.514 206.679,261.577C206.965,263.567 207.805,265.266 209.202,266.67C210.472,267.949 211.962,268.747 213.668,269.072C214.678,269.264 216.38,269.185 218.777,268.835C228.202,267.457 242.445,265.391 261.505,262.626C264.244,262.228 266.28,261.69 268.003,259.846C270.009,257.701 270.796,255.16 270.365,252.223C266.295,224.568 262.25,196.901 258.231,169.222L260.999,168.836C261.167,168.814 261.324,168.931 261.348,169.097C268.845,220.386 272.66,247.13 273.004,249.299C273.526,252.59 273.653,254.816 273.378,255.978C272.432,259.966 270.106,263.068 266.365,264.642C265.438,265.032 263.865,265.393 261.645,265.722C250.653,267.354 236.004,269.459 217.697,272.024C216.778,272.153 215.876,272.248 214.989,272.309C214.159,271.924 205.414,268.546 205.012,265.546C204.73,263.439 202.78,250.186 200.48,234.633C196.774,209.565 192.16,178.52 192.16,178.52Z" style="fill:white;fill-opacity:0.5;"/>
    <path d="M258.231,169.222L194.698,178.443C197.252,196.096 199.798,213.742 202.337,231.379C203.787,241.448 205.232,251.514 206.679,261.577C206.965,263.567 207.805,265.266 209.202,266.67C210.472,267.949 211.962,268.747 213.668,269.072C214.678,269.264 216.38,269.185 218.777,268.835C228.202,267.457 242.445,265.391 261.505,262.626C264.244,262.228 266.28,261.69 268.003,259.846C270.009,257.701 270.796,255.16 270.365,252.223C266.295,224.568 262.25,196.901 258.231,169.222ZM234.064,237.269C234.064,235.815 232.867,234.618 231.413,234.618C229.959,234.618 228.762,235.815 228.762,237.269C228.762,238.724 229.959,239.92 231.413,239.92C232.867,239.92 234.064,238.724 234.064,237.269ZM259.262,252.331C259.107,251.268 258.186,250.472 257.112,250.472C257.007,250.472 256.902,250.48 256.798,250.495L219.137,255.989C218.074,256.144 217.277,257.065 217.277,258.139C217.277,258.244 217.285,258.349 217.3,258.453L217.308,258.509C217.463,259.571 218.384,260.368 219.458,260.368C219.563,260.368 219.668,260.36 219.772,260.345L257.434,254.851C258.497,254.696 259.293,253.775 259.293,252.701C259.293,252.596 259.286,252.491 259.27,252.387L259.262,252.331ZM253.126,209.965C252.971,208.904 252.052,208.109 250.979,208.109C250.875,208.109 250.77,208.117 250.666,208.132L212.997,213.627C211.936,213.782 211.141,214.701 211.141,215.774C211.141,215.878 211.148,215.983 211.163,216.087L211.17,216.134C211.325,217.195 212.244,217.99 213.317,217.99C213.421,217.99 213.526,217.983 213.63,217.967L251.299,212.472C252.36,212.317 253.155,211.398 253.155,210.326C253.155,210.221 253.148,210.116 253.133,210.013L253.126,209.965ZM255.025,223.426C254.875,222.385 253.974,221.604 252.922,221.604C252.82,221.604 252.719,221.611 252.619,221.626L235.262,224.127C234.108,224.293 233.296,225.379 233.462,226.533L233.483,226.676C233.633,227.717 234.534,228.498 235.586,228.498C235.687,228.498 235.788,228.491 235.889,228.476L253.246,225.975C254.399,225.809 255.212,224.723 255.046,223.569L255.025,223.426ZM256.485,233.04C256.313,231.873 255.211,231.056 254.045,231.228L236.689,233.791C235.64,233.946 234.854,234.856 234.854,235.916C234.854,236.021 234.862,236.126 234.877,236.23L234.89,236.318C235.063,237.484 236.164,238.302 237.33,238.13L254.686,235.567C255.735,235.412 256.521,234.502 256.521,233.441C256.521,233.336 256.513,233.231 256.498,233.127L256.485,233.04ZM257.847,242.685C257.676,241.516 256.574,240.695 255.405,240.865L217.775,246.355C216.607,246.526 215.785,247.628 215.956,248.796L215.969,248.884C216.139,250.052 217.241,250.874 218.41,250.703L256.04,245.214C257.208,245.043 258.03,243.941 257.859,242.772L257.847,242.685ZM251.696,200.308C251.547,199.279 250.656,198.507 249.617,198.507C249.516,198.507 249.416,198.514 249.317,198.528L211.574,203.967C210.545,204.115 209.773,205.006 209.773,206.046C209.773,206.146 209.78,206.246 209.794,206.346L209.821,206.529C209.969,207.558 210.86,208.33 211.9,208.33C212,208.33 212.1,208.322 212.2,208.308L249.943,202.869C250.972,202.721 251.744,201.83 251.744,200.79C251.744,200.69 251.736,200.59 251.722,200.491L251.696,200.308ZM250.333,190.71C250.166,189.545 249.069,188.725 247.905,188.893L230.572,191.391C229.521,191.542 228.733,192.452 228.733,193.514C228.733,193.616 228.74,193.718 228.755,193.819L228.767,193.907C228.935,195.072 230.032,195.892 231.196,195.724L248.529,193.226C249.58,193.075 250.368,192.165 250.368,191.103C250.368,191.001 250.361,190.899 250.346,190.797L250.333,190.71ZM248.923,181.075C248.755,179.91 247.659,179.09 246.494,179.258L229.113,181.763C227.949,181.93 227.129,183.027 227.296,184.191L227.31,184.287C227.478,185.451 228.574,186.272 229.739,186.104L247.12,183.599C248.284,183.431 249.104,182.335 248.937,181.17L248.923,181.075ZM215.889,237.313L215.867,237.305C215.695,237.243 215.503,237.333 215.443,237.503L215.435,237.526L214.564,240.627C214.516,240.797 214.611,240.976 214.777,241.029C218.926,242.402 227.846,241.856 227.087,235.124C226.91,233.55 225.942,232.349 224.183,231.522L224.175,231.522L222.577,231.168C222.513,231.152 222.468,231.094 222.468,231.028C222.468,230.999 222.476,230.971 222.492,230.947L224.999,227.349C225.076,227.237 225.109,227.101 225.091,226.967L224.758,224.682C224.729,224.477 224.537,224.332 224.332,224.36L213.475,225.927C213.288,225.953 213.156,226.131 213.182,226.32L213.596,229.176C213.622,229.361 213.796,229.491 213.981,229.465C216.04,229.171 217.857,228.883 219.432,228.602C219.587,228.575 219.677,228.636 219.701,228.786C219.717,228.883 219.686,228.993 219.608,229.116C219.469,229.338 218.888,230.152 217.865,231.558C217.629,231.882 217.528,232.287 217.584,232.686L217.849,234.518C217.88,234.726 218.075,234.872 218.283,234.843C218.931,234.755 219.646,234.675 220.428,234.602C223.247,234.341 223.247,237.402 220.601,237.828C218.857,238.106 217.287,237.935 215.889,237.313ZM227.939,194.875C227.939,193.434 226.753,192.248 225.312,192.248C223.871,192.248 222.685,193.434 222.685,194.875C222.685,196.316 223.871,197.502 225.312,197.502C226.753,197.502 227.939,196.316 227.939,194.875ZM215.202,194.839C216.201,193.704 217.221,192.421 218.263,190.991C218.898,190.121 219.274,189.47 219.392,189.039C220.251,185.874 218.797,182.966 215.439,182.512C212.09,182.058 208.097,183.175 206.635,186.497C206.61,186.554 206.596,186.616 206.596,186.678C206.596,186.877 206.729,187.053 206.92,187.107L209.852,187.926C210.066,187.987 210.296,187.894 210.407,187.701C210.907,186.839 211.735,186.349 212.889,186.231C215.724,185.946 215.303,188.686 214.142,190.119C211.625,193.223 209.891,195.398 208.941,196.646C208.835,196.785 208.79,196.96 208.816,197.132L209.137,199.365C209.16,199.519 209.303,199.627 209.455,199.606L221.239,197.907C221.462,197.875 221.619,197.665 221.589,197.442L221.187,194.654C221.155,194.433 220.964,194.268 220.742,194.268C220.72,194.268 220.698,194.269 220.677,194.273L215.315,195.048C215.296,195.051 215.278,195.05 215.26,195.044C215.194,195.025 215.157,194.953 215.177,194.886C215.182,194.868 215.191,194.853 215.202,194.839Z" style="fill:white;fill-opacity:0.75;"/>
    <path d="M172.129,232.273C168.185,229.946 165.118,227.884 162.927,226.087C161.024,224.526 159.338,222.931 157.871,221.3C153.995,216.992 150.287,212.217 146.749,206.973C145.909,205.728 144.833,203.796 144.218,202.514C141.784,197.435 139.779,192.183 138.202,186.758L135.483,177.198C135.169,176.092 134.739,175.092 134.193,174.198C133.959,173.815 133.518,173.614 133.089,173.696C131.225,174.053 129.554,178.476 129.068,180.154C127.227,186.512 126.901,192.785 128.092,198.976C128.735,202.315 129.477,205.459 130.309,208.411C130.413,208.778 130.436,209.165 130.378,209.543C130.111,211.273 129.553,212.837 128.707,214.235L151.195,230.196C151.257,230.24 151.33,230.263 151.405,230.263C151.569,230.263 151.714,230.153 151.757,229.995L153.316,224.437L153.335,224.379C153.474,224.002 153.899,223.808 154.278,223.948L154.332,223.971C155.162,224.354 155.609,224.563 155.674,224.597C161.131,227.514 164.154,229.06 164.695,229.325C166.071,229.999 168.459,231.077 171.856,232.566C171.966,232.614 172.063,232.596 172.149,232.514C172.184,232.481 172.177,232.401 172.129,232.273Z" style="fill:white;fill-opacity:0.6;"/>
    <path d="M248.923,181.075L248.937,181.17C249.104,182.335 248.284,183.431 247.12,183.599L229.739,186.104C228.574,186.272 227.478,185.451 227.31,184.287L227.296,184.191C227.129,183.027 227.949,181.93 229.113,181.763L246.494,179.258C247.659,179.09 248.755,179.91 248.923,181.075ZM215.202,194.839C215.191,194.853 215.182,194.868 215.177,194.886C215.157,194.953 215.194,195.025 215.26,195.044C215.278,195.05 215.296,195.051 215.315,195.048L220.677,194.273C220.698,194.269 220.72,194.268 220.742,194.268C220.964,194.268 221.155,194.433 221.187,194.654L221.589,197.442C221.619,197.665 221.462,197.875 221.239,197.907L209.455,199.606C209.303,199.627 209.16,199.519 209.137,199.365L208.816,197.132C208.79,196.96 208.835,196.785 208.941,196.646C209.891,195.398 211.625,193.223 214.142,190.119C215.303,188.686 215.724,185.946 212.889,186.231C211.735,186.349 210.907,186.839 210.407,187.701C210.296,187.894 210.066,187.987 209.852,187.926L206.92,187.107C206.729,187.053 206.596,186.877 206.596,186.678C206.596,186.616 206.61,186.554 206.635,186.497C208.097,183.175 212.09,182.058 215.439,182.512C218.797,182.966 220.251,185.874 219.392,189.039C219.274,189.47 218.898,190.121 218.263,190.991C217.221,192.421 216.201,193.704 215.202,194.839ZM250.333,190.71L250.346,190.797C250.361,190.899 250.368,191.001 250.368,191.103C250.368,192.165 249.58,193.075 248.529,193.226L231.196,195.724C230.032,195.892 228.935,195.072 228.767,193.907L228.755,193.819C228.74,193.718 228.733,193.616 228.733,193.514C228.733,192.452 229.521,191.542 230.572,191.391L247.905,188.893C249.069,188.725 250.166,189.545 250.333,190.71ZM227.939,194.875C227.939,196.316 226.753,197.502 225.312,197.502C223.871,197.502 222.685,196.316 222.685,194.875C222.685,193.434 223.871,192.248 225.312,192.248C226.753,192.248 227.939,193.434 227.939,194.875ZM251.696,200.308L251.722,200.491C251.736,200.59 251.744,200.69 251.744,200.79C251.744,201.83 250.972,202.721 249.943,202.869L212.2,208.308C212.1,208.322 212,208.33 211.9,208.33C210.86,208.33 209.969,207.558 209.821,206.529L209.794,206.346C209.78,206.246 209.773,206.146 209.773,206.046C209.773,205.006 210.545,204.115 211.574,203.967L249.317,198.528C249.416,198.514 249.516,198.507 249.617,198.507C250.656,198.507 251.547,199.279 251.696,200.308ZM253.126,209.965L253.133,210.013C253.148,210.116 253.155,210.221 253.155,210.326C253.155,211.398 252.36,212.317 251.299,212.472L213.63,217.967C213.526,217.983 213.421,217.99 213.317,217.99C212.244,217.99 211.325,217.195 211.17,216.134L211.163,216.087C211.148,215.983 211.141,215.878 211.141,215.774C211.141,214.701 211.936,213.782 212.997,213.627L250.666,208.132C250.77,208.117 250.875,208.109 250.979,208.109C252.052,208.109 252.971,208.904 253.126,209.965ZM255.025,223.426L255.046,223.569C255.212,224.723 254.399,225.809 253.246,225.975L235.889,228.476C235.788,228.491 235.687,228.498 235.586,228.498C234.534,228.498 233.633,227.717 233.483,226.676L233.462,226.533C233.296,225.379 234.108,224.293 235.262,224.127L252.619,221.626C252.719,221.611 252.82,221.604 252.922,221.604C253.974,221.604 254.875,222.385 255.025,223.426ZM215.889,237.313C217.287,237.935 218.857,238.106 220.601,237.828C223.247,237.402 223.247,234.341 220.428,234.602C219.646,234.675 218.931,234.755 218.283,234.843C218.075,234.872 217.88,234.726 217.849,234.518L217.584,232.686C217.528,232.287 217.629,231.882 217.865,231.558C218.888,230.152 219.469,229.338 219.608,229.116C219.686,228.993 219.717,228.883 219.701,228.786C219.677,228.636 219.587,228.575 219.432,228.602C217.857,228.883 216.04,229.171 213.981,229.465C213.796,229.491 213.622,229.361 213.596,229.176L213.182,226.32C213.156,226.131 213.288,225.953 213.475,225.927L224.332,224.36C224.537,224.332 224.729,224.477 224.758,224.682L225.091,226.967C225.109,227.101 225.076,227.237 224.999,227.349L222.492,230.947C222.476,230.971 222.468,230.999 222.468,231.028C222.468,231.094 222.513,231.152 222.577,231.168L224.175,231.522L224.183,231.522C225.942,232.349 226.91,233.55 227.087,235.124C227.846,241.856 218.926,242.402 214.777,241.029C214.611,240.976 214.516,240.797 214.564,240.627L215.435,237.526L215.443,237.503C215.503,237.333 215.695,237.243 215.867,237.305L215.889,237.313ZM256.485,233.04L256.498,233.127C256.513,233.231 256.521,233.336 256.521,233.441C256.521,234.502 255.735,235.412 254.686,235.567L237.33,238.13C236.164,238.302 235.063,237.484 234.89,236.318L234.877,236.23C234.862,236.126 234.854,236.021 234.854,235.916C234.854,234.856 235.64,233.946 236.689,233.791L254.045,231.228C255.211,231.056 256.313,231.873 256.485,233.04ZM234.064,237.269C234.064,238.724 232.867,239.92 231.413,239.92C229.959,239.92 228.762,238.724 228.762,237.269C228.762,235.815 229.959,234.618 231.413,234.618C232.867,234.618 234.064,235.815 234.064,237.269ZM257.847,242.685L257.859,242.772C258.03,243.941 257.208,245.043 256.04,245.214L218.41,250.703C217.241,250.874 216.139,250.052 215.969,248.884L215.956,248.796C215.785,247.628 216.607,246.526 217.775,246.355L255.405,240.865C256.574,240.695 257.676,241.516 257.847,242.685ZM259.262,252.331L259.27,252.387C259.286,252.491 259.293,252.596 259.293,252.701C259.293,253.775 258.497,254.696 257.434,254.851L219.772,260.345C219.668,260.36 219.563,260.368 219.458,260.368C218.384,260.368 217.463,259.571 217.308,258.509L217.3,258.453C217.285,258.349 217.277,258.244 217.277,258.139C217.277,257.065 218.074,256.144 219.137,255.989L256.798,250.495C256.902,250.48 257.007,250.472 257.112,250.472C258.186,250.472 259.107,251.268 259.262,252.331Z" style="fill:white;fill-opacity:0.5;"/>
    <path d="M124.746,278.909C124.369,278.876 123.971,278.997 123.65,279.001C113.734,279.162 104.06,277.896 94.627,275.205C90.835,274.126 87.39,272.482 84.292,270.273C83.261,269.537 82.079,268.443 80.745,266.992C77.85,263.851 77.733,260.581 78.087,255.91C78.416,251.535 78.256,247.155 77.605,242.769C78.399,230.595 73.028,212.888 67.895,199.852C68.833,198.038 69.591,196.106 70.17,194.056C71.266,190.173 72.074,186.576 72.596,183.263L73.01,182.026C73.035,181.962 73.097,181.92 73.166,181.92C73.259,181.92 73.335,181.997 73.335,182.09C73.247,183.436 73.266,184.867 73.395,186.38C73.723,190.212 75.562,194.472 77.621,197.421C78.2,198.251 78.55,198.843 78.673,199.197C77.874,204.985 77.392,209.041 77.745,213.664C77.999,216.99 78.664,222.248 79.737,229.437C80.701,235.892 82.625,242.551 87.353,247.126C91.297,250.942 96.184,254.723 105.555,262.324C106.415,263.021 109.576,265.729 115.042,270.446C118.941,273.81 122.059,276.418 124.397,278.274L124.402,278.278C124.499,278.358 124.505,278.512 124.417,278.619L124.413,278.623C124.384,278.658 124.37,278.689 124.373,278.716C124.373,278.763 124.41,278.802 124.457,278.804C124.57,278.808 124.666,278.842 124.746,278.909Z" style="fill:white;fill-opacity:0.6;"/>
    <path d="M47.537,242.655C46.305,242.061 45.534,241.631 45.223,241.366C43.933,240.252 42.357,238.618 40.496,236.462C37.433,232.914 35.415,228.833 34.443,224.22C33.265,218.634 33.108,213.209 33.973,207.945C34.953,201.982 36.386,196.602 38.271,191.806C38.576,192.923 38.782,194.052 38.889,195.192C39.81,205.011 40.78,213.344 41.805,220.191C42.805,226.866 44.42,233.387 46.645,239.756C46.962,240.66 47.258,241.627 47.537,242.655Z" style="fill:white;fill-opacity:0.95;"/>
    <path d="M147.034,273.382C139.952,276.681 132.522,278.523 124.746,278.909C124.666,278.842 124.57,278.808 124.457,278.804C124.41,278.802 124.373,278.763 124.373,278.716C124.37,278.689 124.384,278.658 124.413,278.623L124.417,278.619C124.505,278.512 124.499,278.358 124.402,278.278L124.397,278.274C122.059,276.418 118.941,273.81 115.042,270.446C109.576,265.729 106.415,263.021 105.555,262.324C96.184,254.723 91.297,250.942 87.353,247.126C82.625,242.551 80.701,235.892 79.737,229.437C78.664,222.248 77.999,216.99 77.745,213.664C77.392,209.041 77.874,204.985 78.673,199.197C79.913,200.254 80.853,201.18 81.493,201.976C82.264,202.937 83.861,205.051 86.284,208.318C87.714,210.246 89.204,212.436 90.759,214.885C92.299,217.312 94.549,220.794 97.502,225.332C106.66,239.39 117.637,252.235 130.856,262.666C134.157,265.274 137.669,267.719 141.391,270C143.431,271.25 145.183,272.216 146.648,272.896C146.868,272.998 146.997,273.16 147.034,273.382Z" style="fill:white;fill-opacity:0.95;"/>
    <path d="M49.247,94.22C48.577,92.353 48.212,90.342 48.212,88.246C48.212,78.471 56.149,70.535 65.924,70.535C75.699,70.535 83.635,78.471 83.635,88.246C83.635,96.686 77.72,103.755 69.812,105.529C69.695,105.075 69.426,104.735 69.005,104.507L49.529,93.996C49.484,93.972 49.383,94.058 49.247,94.22Z" style="fill:white;fill-opacity:0.25;"/>
    <path d="M47.618,98.52L47.34,98.37C46.831,98.095 48.526,95.08 49.247,94.22C49.383,94.058 49.484,93.972 49.529,93.996L69.005,104.507C69.426,104.735 69.695,105.075 69.812,105.529C69.889,105.827 69.9,106.175 69.845,106.572L68.571,108.456C68.253,108.68 67.924,108.813 67.584,108.854C67.136,108.909 66.67,108.806 66.186,108.544C56.912,103.533 50.723,100.192 47.618,98.52Z" style="fill:white;fill-opacity:0.75;"/>
    <path d="M247.98,47.507C247.706,48.525 247.451,49.291 247.105,49.291C246.232,49.291 246.017,44.374 244.51,42.914C243.004,41.454 238.146,41.368 238.063,40.53C238.029,40.182 238.795,39.925 239.808,39.637C241.023,40.173 244.593,40.438 245.846,41.652C247.051,42.82 247.43,46.202 247.98,47.507Z" style="fill:white;fill-opacity:0.75;"/>
    <path d="M244.504,37.225C245.607,35.312 246.063,31.565 246.904,31.565C247.049,31.565 247.181,31.678 247.306,31.874C246.806,33.421 246.281,35.684 245.353,36.625C245.131,36.85 244.839,37.048 244.504,37.225Z" style="fill:white;fill-opacity:0.75;"/>
    <path d="M255.497,39.914C255.778,40.036 255.945,40.169 255.945,40.327C255.945,41.039 252.529,41.331 250.601,42.32C250.747,42.058 250.906,41.831 251.083,41.652C251.962,40.76 253.998,40.31 255.497,39.914Z" style="fill:white;fill-opacity:0.75;"/>
    <path d="M239.808,39.637C239.562,39.528 239.412,39.409 239.399,39.267C239.329,38.556 242.611,38.225 244.504,37.225C244.839,37.048 245.131,36.85 245.353,36.625C246.281,35.684 246.806,33.421 247.306,31.874C247.6,30.965 247.885,30.303 248.239,30.303C249.194,30.303 249.576,35.165 251.083,36.625C252.59,38.086 257.28,38.227 257.28,39.065C257.28,39.403 256.512,39.646 255.497,39.914C253.998,40.31 251.962,40.76 251.083,41.652C250.906,41.831 250.747,42.058 250.601,42.32C249.53,44.246 249.208,48.029 248.44,48.029C248.265,48.029 248.117,47.833 247.98,47.507C247.43,46.202 247.051,42.82 245.846,41.652C244.593,40.438 241.023,40.173 239.808,39.637Z" style="fill:white;fill-opacity:0.95;"/>
    <path d="M276.86,70.932C276.259,73.004 275.706,74.561 274.999,74.547C273.214,74.512 272.971,64.448 269.947,61.401C266.924,58.354 256.991,57.984 256.857,56.267C256.801,55.555 258.377,55.06 260.46,54.511C262.923,55.656 270.214,56.339 272.728,58.872C275.147,61.31 275.787,68.241 276.86,70.932Z" style="fill:white;fill-opacity:0.75;"/>
    <path d="M270.161,49.766C272.494,45.896 273.574,38.252 275.295,38.286C275.592,38.292 275.858,38.527 276.105,38.934C275.021,42.077 273.857,46.685 271.921,48.573C271.459,49.024 270.854,49.417 270.161,49.766Z" style="fill:white;fill-opacity:0.75;"/>
    <path d="M292.537,55.703C293.107,55.963 293.443,56.243 293.437,56.566C293.408,58.023 286.41,58.482 282.427,60.429C282.736,59.899 283.071,59.44 283.439,59.081C285.272,57.293 289.454,56.453 292.537,55.703Z" style="fill:white;fill-opacity:0.75;"/>
    <path d="M260.46,54.511C259.961,54.279 259.661,54.028 259.638,53.739C259.524,52.281 266.249,51.734 270.161,49.766C270.854,49.417 271.459,49.024 271.921,48.573C273.857,46.685 275.021,42.077 276.105,38.934C276.742,37.086 277.352,35.743 278.076,35.758C280.029,35.796 280.616,45.754 283.64,48.801C286.663,51.848 296.251,52.324 296.218,54.037C296.204,54.728 294.622,55.195 292.537,55.703C289.454,56.453 285.272,57.293 283.439,59.081C283.071,59.44 282.736,59.899 282.427,60.429C280.16,64.324 279.351,72.049 277.78,72.019C277.423,72.012 277.128,71.604 276.86,70.932C275.787,68.241 275.147,61.31 272.728,58.872C270.214,56.339 262.923,55.656 260.46,54.511Z" style="fill:white;fill-opacity:0.95;"/>
    <path d="M270.043,101.394C269.698,102.741 269.373,103.756 268.917,103.761C267.766,103.775 267.406,97.294 265.396,95.391C263.386,93.489 256.979,93.451 256.857,92.347C256.807,91.889 257.813,91.539 259.144,91.143C260.754,91.831 265.466,92.124 267.137,93.706C268.746,95.228 269.297,99.681 270.043,101.394Z" style="fill:white;fill-opacity:0.75;"/>
    <path d="M265.299,87.89C266.725,85.349 267.267,80.401 268.376,80.388C268.568,80.386 268.744,80.532 268.912,80.789C268.276,82.837 267.619,85.83 266.41,87.085C266.121,87.385 265.739,87.651 265.299,87.89Z" style="fill:white;fill-opacity:0.75;"/>
    <path d="M279.839,91.264C280.211,91.421 280.433,91.594 280.436,91.802C280.447,92.741 275.947,93.178 273.419,94.514C273.607,94.166 273.814,93.863 274.044,93.625C275.189,92.435 277.867,91.81 279.839,91.264Z" style="fill:white;fill-opacity:0.75;"/>
    <path d="M259.144,91.143C258.818,91.003 258.619,90.848 258.598,90.662C258.495,89.724 262.818,89.237 265.299,87.89C265.739,87.651 266.121,87.385 266.41,87.085C267.619,85.83 268.276,82.837 268.912,80.789C269.285,79.585 269.651,78.708 270.117,78.703C271.377,78.688 271.956,85.093 273.966,86.996C275.976,88.898 282.164,89.012 282.177,90.117C282.182,90.562 281.172,90.895 279.839,91.264C277.867,91.81 275.189,92.435 274.044,93.625C273.814,93.863 273.607,94.166 273.419,94.514C272.037,97.069 271.671,102.064 270.658,102.076C270.428,102.078 270.229,101.822 270.043,101.394C269.297,99.681 268.746,95.228 267.137,93.706C265.466,92.124 260.754,91.831 259.144,91.143Z" style="fill:white;fill-opacity:0.95;"/>
    <path d="M29.119,68.592C28.774,69.883 28.452,70.855 28.013,70.856C26.907,70.858 26.624,64.625 24.71,62.778C22.797,60.93 16.638,60.831 16.533,59.77C16.489,59.329 17.459,59.002 18.742,58.634C20.283,59.311 24.809,59.638 26.4,61.174C27.931,62.653 28.418,66.938 29.119,68.592Z" style="fill:white;fill-opacity:0.75;"/>
    <path d="M24.689,55.566C26.084,53.138 26.653,48.388 27.719,48.386C27.903,48.386 28.071,48.528 28.23,48.777C27.599,50.739 26.939,53.609 25.765,54.804C25.484,55.089 25.114,55.341 24.689,55.566Z" style="fill:white;fill-opacity:0.75;"/>
    <path d="M38.631,58.95C38.988,59.104 39.2,59.272 39.2,59.473C39.202,60.376 34.872,60.752 32.43,62.011C32.614,61.679 32.816,61.39 33.039,61.163C34.151,60.031 36.731,59.455 38.631,58.95Z" style="fill:white;fill-opacity:0.75;"/>
    <path d="M18.742,58.634C18.43,58.497 18.24,58.345 18.222,58.166C18.132,57.264 22.292,56.837 24.689,55.566C25.114,55.341 25.484,55.089 25.765,54.804C26.939,53.609 27.599,50.739 28.23,48.777C28.6,47.623 28.961,46.784 29.409,46.783C30.619,46.781 31.114,52.943 33.028,54.791C34.941,56.639 40.888,56.807 40.89,57.869C40.89,58.298 39.916,58.608 38.631,58.95C36.731,59.455 34.151,60.031 33.039,61.163C32.816,61.39 32.614,61.679 32.43,62.011C31.076,64.454 30.677,69.251 29.703,69.253C29.482,69.253 29.294,69.005 29.119,68.592C28.418,66.938 27.931,62.653 26.4,61.174C24.809,59.638 20.283,59.311 18.742,58.634Z" style="fill:white;fill-opacity:0.95;"/>
    <path d="M56.71,58.388C56.483,59.182 56.273,59.778 56.003,59.774C55.32,59.763 55.213,55.913 54.053,54.752C52.892,53.59 49.092,53.462 49.038,52.805C49.016,52.533 49.618,52.342 50.414,52.129C51.358,52.563 54.148,52.815 55.113,53.781C56.042,54.71 56.296,57.36 56.71,58.388Z" style="fill:white;fill-opacity:0.75;"/>
    <path d="M54.119,50.3C55.006,48.817 55.409,45.891 56.067,45.902C56.181,45.904 56.283,45.993 56.378,46.149C55.968,47.353 55.528,49.117 54.791,49.841C54.614,50.015 54.383,50.166 54.119,50.3Z" style="fill:white;fill-opacity:0.75;"/>
    <path d="M62.687,52.542C62.905,52.64 63.034,52.747 63.032,52.87C63.023,53.428 60.347,53.613 58.825,54.363C58.943,54.16 59.07,53.984 59.211,53.846C59.91,53.16 61.508,52.833 62.687,52.542Z" style="fill:white;fill-opacity:0.75;"/>
    <path d="M50.414,52.129C50.223,52.041 50.108,51.945 50.099,51.834C50.053,51.277 52.625,51.059 54.119,50.3C54.383,50.166 54.614,50.015 54.791,49.841C55.528,49.117 55.968,47.353 56.378,46.149C56.62,45.441 56.851,44.926 57.128,44.931C57.875,44.943 58.113,48.752 59.274,49.913C60.434,51.075 64.103,51.244 64.092,51.899C64.088,52.164 63.484,52.345 62.687,52.542C61.508,52.833 59.91,53.16 59.211,53.846C59.07,53.984 58.943,54.16 58.825,54.363C57.963,55.856 57.664,58.813 57.063,58.803C56.927,58.801 56.813,58.645 56.71,58.388C56.296,57.36 56.042,54.71 55.113,53.781C54.148,52.815 51.358,52.563 50.414,52.129Z" style="fill:white;fill-opacity:0.95;"/>
    <path d="M23.094,264.091C22.514,266.146 21.978,267.69 21.278,267.682C19.512,267.66 19.2,257.702 16.186,254.709C13.172,251.715 3.341,251.42 3.196,249.722C3.135,249.017 4.692,248.517 6.749,247.958C9.194,249.074 16.414,249.698 18.92,252.187C21.331,254.582 22.013,261.435 23.094,264.091Z" style="fill:white;fill-opacity:0.75;"/>
    <path d="M16.314,243.194C18.596,239.347 19.61,231.776 21.313,231.797C21.607,231.8 21.872,232.032 22.12,232.432C21.069,235.551 19.95,240.119 18.048,242C17.594,242.45 16.998,242.844 16.314,243.194Z" style="fill:white;fill-opacity:0.75;"/>
    <path d="M38.5,248.909C39.065,249.163 39.4,249.437 39.396,249.757C39.378,251.199 32.457,251.703 28.529,253.659C28.83,253.132 29.159,252.675 29.521,252.317C31.322,250.535 35.454,249.674 38.5,248.909Z" style="fill:white;fill-opacity:0.75;"/>
    <path d="M6.749,247.958C6.254,247.732 5.954,247.486 5.93,247.2C5.806,245.758 12.458,245.169 16.314,243.194C16.998,242.844 17.594,242.45 18.048,242C19.95,240.119 21.069,235.551 22.12,232.432C22.737,230.599 23.331,229.266 24.047,229.275C25.98,229.299 26.632,239.149 29.646,242.143C32.66,245.136 42.151,245.539 42.13,247.235C42.121,247.919 40.559,248.392 38.5,248.909C35.454,249.674 31.322,250.535 29.521,252.317C29.159,252.675 28.83,253.132 28.529,253.659C26.313,257.529 25.568,265.179 24.012,265.16C23.659,265.156 23.364,264.754 23.094,264.091C22.013,261.435 21.331,254.582 18.92,252.187C16.414,249.698 9.194,249.074 6.749,247.958Z" style="fill:white;fill-opacity:0.95;"/>
    <path d="M33.236,288.437C32.955,289.519 32.69,290.334 32.323,290.337C31.398,290.345 31.127,285.131 29.516,283.595C27.905,282.059 22.751,282.009 22.657,281.122C22.618,280.753 23.428,280.474 24.5,280.159C25.793,280.718 29.582,280.967 30.922,282.244C32.211,283.473 32.641,287.057 33.236,288.437Z" style="fill:white;fill-opacity:0.75;"/>
    <path d="M29.46,277.561C30.614,275.521 31.065,271.543 31.957,271.536C32.111,271.534 32.252,271.653 32.386,271.86C31.869,273.505 31.332,275.91 30.356,276.917C30.122,277.157 29.814,277.37 29.46,277.561Z" style="fill:white;fill-opacity:0.75;"/>
    <path d="M41.145,280.317C41.444,280.444 41.622,280.584 41.624,280.752C41.63,281.507 38.009,281.846 35.972,282.912C36.124,282.633 36.291,282.39 36.477,282.199C37.402,281.246 39.558,280.75 41.145,280.317Z" style="fill:white;fill-opacity:0.75;"/>
    <path d="M24.5,280.159C24.238,280.046 24.078,279.921 24.062,279.771C23.982,279.017 27.461,278.637 29.46,277.561C29.814,277.37 30.122,277.157 30.356,276.917C31.332,275.91 31.869,273.505 32.386,271.86C32.69,270.893 32.987,270.188 33.362,270.185C34.375,270.177 34.822,275.331 36.434,276.867C38.045,278.403 43.022,278.512 43.029,279.401C43.032,279.76 42.218,280.024 41.145,280.317C39.558,280.75 37.402,281.246 36.477,282.199C36.291,282.39 36.124,282.633 35.972,282.912C34.852,284.964 34.544,288.98 33.729,288.987C33.544,288.988 33.385,288.781 33.236,288.437C32.641,287.057 32.211,283.473 30.922,282.244C29.582,280.967 25.793,280.718 24.5,280.159Z" style="fill:white;fill-opacity:0.95;"/>
    <path d="M288.794,250.747C288.549,251.61 288.323,252.259 288.029,252.255C287.286,252.244 287.163,248.06 285.899,246.8C284.635,245.54 280.505,245.407 280.445,244.694C280.421,244.398 281.075,244.189 281.94,243.956C282.966,244.427 285.999,244.695 287.05,245.742C288.061,246.751 288.342,249.631 288.794,250.747Z" style="fill:white;fill-opacity:0.75;"/>
    <path d="M285.963,241.962C286.924,240.348 287.357,237.167 288.072,237.177C288.196,237.179 288.307,237.276 288.41,237.445C287.966,238.754 287.493,240.673 286.692,241.462C286.501,241.65 286.25,241.815 285.963,241.962Z" style="fill:white;fill-opacity:0.75;"/>
    <path d="M295.28,244.381C295.517,244.488 295.657,244.604 295.655,244.738C295.647,245.344 292.738,245.55 291.086,246.369C291.213,246.147 291.352,245.956 291.504,245.806C292.262,245.058 293.999,244.7 295.28,244.381Z" style="fill:white;fill-opacity:0.75;"/>
    <path d="M281.94,243.956C281.732,243.861 281.606,243.757 281.596,243.637C281.545,243.031 284.341,242.789 285.963,241.962C286.25,241.815 286.501,241.65 286.692,241.462C287.493,240.673 287.966,238.754 288.41,237.445C288.672,236.675 288.922,236.116 289.223,236.12C290.035,236.131 290.301,240.271 291.565,241.531C292.829,242.791 296.816,242.968 296.806,243.681C296.802,243.968 296.145,244.165 295.28,244.381C293.999,244.7 292.262,245.058 291.504,245.806C291.352,245.956 291.213,246.147 291.086,246.369C290.152,247.993 289.833,251.207 289.179,251.197C289.031,251.195 288.907,251.026 288.794,250.747C288.342,249.631 288.061,246.751 287.05,245.742C285.999,244.695 282.966,244.427 281.94,243.956Z" style="fill:white;fill-opacity:0.95;"/>
    <path d="M260.548,297.613C260.133,298.985 259.754,300.014 259.285,300C258.1,299.963 258.015,293.279 256.03,291.233C254.046,289.187 247.454,288.866 247.378,287.725C247.346,287.252 248.397,286.935 249.784,286.587C251.41,287.366 256.246,287.874 257.896,289.575C259.484,291.212 259.855,295.818 260.548,297.613Z" style="fill:white;fill-opacity:0.75;"/>
    <path d="M256.26,283.51C257.839,280.958 258.614,275.891 259.756,275.926C259.953,275.932 260.128,276.091 260.289,276.362C259.545,278.441 258.738,281.492 257.438,282.73C257.128,283.026 256.723,283.283 256.26,283.51Z" style="fill:white;fill-opacity:0.75;"/>
    <path d="M271.072,287.621C271.449,287.798 271.67,287.986 271.663,288.201C271.633,289.168 266.983,289.42 264.324,290.683C264.533,290.333 264.759,290.031 265.006,289.795C266.237,288.622 269.02,288.096 271.072,287.621Z" style="fill:white;fill-opacity:0.75;"/>
    <path d="M249.784,286.587C249.454,286.429 249.256,286.26 249.243,286.068C249.179,285.098 253.648,284.787 256.26,283.51C256.723,283.283 257.128,283.026 257.438,282.73C258.738,281.492 259.545,278.441 260.289,276.362C260.727,275.14 261.142,274.254 261.622,274.268C262.918,274.309 263.233,280.925 265.217,282.971C267.202,285.017 273.564,285.406 273.529,286.543C273.514,287.002 272.46,287.3 271.072,287.621C269.02,288.096 266.237,288.622 265.006,289.795C264.759,290.031 264.533,290.333 264.324,290.683C262.789,293.252 262.193,298.374 261.15,298.342C260.913,298.335 260.721,298.062 260.548,297.613C259.855,295.818 259.484,291.212 257.896,289.575C256.246,287.874 251.41,287.366 249.784,286.587Z" style="fill:white;fill-opacity:0.95;"/>
    <path d="M139.881,72.423C139.897,70.07 140.327,67.793 141.061,65.82C141.171,65.525 141.43,65.311 141.74,65.258C145.3,64.651 149.169,63.189 150.966,59.928C152.339,57.437 152.274,54.687 150.765,51.678C149.549,49.252 146.514,46.548 143.544,47.83C143.419,47.884 143.305,47.96 143.206,48.055C142.009,49.22 140.844,50.305 139.708,51.309C138.179,52.659 135.229,54.381 133.241,53.57C131.056,52.678 130.12,50.984 129.233,48.822C128.292,46.531 127.621,44.521 127.221,42.794C126.354,39.059 125.483,35.741 124.61,32.841C123.767,30.043 123.077,28.125 122.533,27.089C121.537,25.191 120.712,23.907 120.055,23.241C117.806,20.96 115.115,20.331 111.99,21.345C110.284,21.787 108.845,22.506 107.672,23.502C104.988,25.783 102.31,27.872 98.976,28.342C97.782,28.511 96.648,28.349 95.574,27.856C82.966,15.342 107.98,1.675 118.28,0.555C128.424,-0.548 142.951,-0.648 154.202,6.468C160.595,10.511 167.751,22.334 173.642,22.334C178.356,22.334 196.756,14.786 208.206,17.457C220.036,20.218 228.456,37.666 228.744,45.983C217.894,47.521 197.661,50.17 183.711,52.078C179.756,52.618 175.302,57.666 175.302,61.844C175.302,62.424 177.158,75.418 179.633,92.503C178.072,92.389 175.226,90.741 173.642,91.454C168.149,93.929 158.01,92.378 149.925,88.299C149.483,88.107 149.058,87.903 148.65,87.687C147.798,87.238 147.017,86.74 146.303,86.2C145.511,85.601 144.802,84.95 144.17,84.258C141.088,80.884 139.853,76.536 139.881,72.423Z" style="fill:white;fill-opacity:0.25;"/>
    <path d="M226.934,65.499C229.164,68.083 229.374,72.536 227.336,77.32C225.672,81.581 220.483,86.36 216.063,89.688C212.343,88.317 208.031,86.346 204.847,84.014C207.772,85.765 211.163,87.255 214.181,88.368C218.807,84.885 224.237,79.884 225.979,75.425C227.563,71.705 227.849,68.176 226.934,65.499Z" style="fill:white;fill-opacity:0.5;"/>
    <path d="M211.217,68.218C213.5,60.452 220.205,59.465 223.961,61.714C227.718,63.963 228.525,69.448 225.979,75.425C224.237,79.884 218.807,84.885 214.181,88.368C208.749,86.365 202.109,83.14 199.156,79.372C194.997,74.38 194.19,68.896 197.139,65.66C200.088,62.425 206.794,61.438 211.217,68.218Z" style="fill:white;fill-opacity:0.65;"/>
</svg>
