<?xml version="1.0" encoding="UTF-8" standalone="no"?>
<!DOCTYPE svg PUBLIC "-//W3C//DTD SVG 1.1//EN" "http://www.w3.org/Graphics/SVG/1.1/DTD/svg11.dtd">
<svg width="100%" height="100%" viewBox="0 0 300 300" version="1.1" xmlns="http://www.w3.org/2000/svg" xmlns:xlink="http://www.w3.org/1999/xlink" xml:space="preserve" xmlns:serif="http://www.serif.com/" style="fill-rule:evenodd;clip-rule:evenodd;stroke-linejoin:round;stroke-miterlimit:2;">
    <path d="M155.352,89.65C155.237,89.626 155.124,89.687 155.08,89.792C154.189,91.939 152.991,93.654 151.559,95.62C151.038,96.331 150.531,96.947 150.045,97.464C146.347,101.38 142.023,104.116 137.069,105.674C132.65,107.062 127.992,107.32 123.25,106.994C121.491,106.871 120.412,106.844 118.973,106.558C116.69,106.106 115.455,105.854 115.272,105.81C109.743,104.442 105.164,102.101 101.534,98.784C100.214,97.58 98.805,95.658 97.305,93.021C97.257,92.936 97.158,92.888 97.063,92.905C95.668,93.15 94.498,93.491 93.28,93.559C90.521,93.712 87.952,93.565 85.577,93.113C80.127,92.075 75.245,89.694 70.935,85.965C69.778,84.965 69.165,84.097 68.012,82.689C64.899,78.875 63.014,74.364 62.358,69.155C61.375,61.357 62.348,52.586 66.155,45.568C67.658,42.795 69.747,40.57 72.421,38.893C72.561,38.808 72.636,38.644 72.608,38.481C72.238,36.14 72.013,34.79 71.935,34.426C71.635,33.017 71.714,31.337 71.666,29.982C71.663,29.846 71.68,29.71 71.717,29.581C71.819,29.22 71.928,28.411 72.04,27.148C72.153,25.937 72.598,24.287 73.381,22.195C74.629,18.868 77.375,15.486 79.971,13.373C80.954,12.574 82.42,11.689 84.373,10.713C87.911,8.95 91.783,8.284 95.753,8.202C101.755,8.076 107.566,10.073 113.206,13.118C114.343,13.73 115.547,14.537 116.82,15.534C116.928,15.619 117.092,15.591 117.163,15.469C119.303,11.897 122.525,8.665 126.434,7.117C131.748,5.011 137.287,4.885 143.074,5.33C148.14,5.722 152.93,7.096 157.441,9.457C161.469,11.563 165.28,14.703 168.015,18.456C169.325,20.256 170.121,21.409 170.4,21.923C170.9,22.835 171.53,24.124 172.295,25.794C172.387,25.995 172.594,26.114 172.812,26.094C173.537,26.033 174.251,26.026 174.949,26.073C179.749,26.393 184.131,27.642 188.088,29.816C193.161,32.606 197.059,37.505 197.182,43.401C197.223,45.438 196.699,47.626 195.61,49.97C194.773,51.77 193.474,53.624 191.708,55.533C189.343,58.088 186.744,60.258 183.91,62.041C183.849,62.078 183.839,62.16 183.883,62.215C185.271,63.871 185.506,66.168 185.832,68.509C185.89,68.92 185.887,69.335 185.819,69.74C185.638,70.808 185.564,72.115 185.376,73.003C184.556,76.898 182.716,80.226 179.855,82.985C179.195,83.621 178.225,84.325 176.949,85.104C173.581,87.159 170.108,88.585 166.525,89.384C162.844,90.204 159.071,90.463 155.352,89.65ZM117.677,56.2C117.68,56.285 117.636,56.376 117.541,56.475C113.458,60.82 109.056,65.494 104.33,70.495C104.16,70.676 104.17,70.958 104.351,71.128L112.305,78.63C112.397,78.715 112.536,78.712 112.621,78.623L126.094,64.334C126.192,64.232 126.359,64.225 126.461,64.324L140.723,77.773C140.839,77.885 141.022,77.878 141.131,77.762L148.633,69.808C148.79,69.641 148.783,69.383 148.616,69.23C143.771,64.705 139.083,60.289 134.548,55.985C134.429,55.873 134.368,55.778 134.368,55.699C134.364,55.621 134.419,55.522 134.531,55.403C138.801,50.834 143.217,46.146 147.783,41.342C147.939,41.176 147.929,40.917 147.766,40.764L139.801,33.269C139.685,33.16 139.502,33.167 139.393,33.286L125.961,47.561C125.862,47.667 125.699,47.67 125.594,47.575L111.291,34.116C111.199,34.031 111.06,34.038 110.975,34.126L103.483,42.091C103.313,42.271 103.32,42.553 103.5,42.724C108.515,47.436 113.189,51.835 117.524,55.931C117.622,56.023 117.673,56.114 117.677,56.2Z" style="fill:white;fill-opacity:0.95;fill-rule:nonzero;"/>
    <path d="M134.368,55.699C134.368,55.778 134.429,55.873 134.548,55.985C139.083,60.289 143.771,64.705 148.616,69.23C148.783,69.383 148.79,69.641 148.633,69.808L141.131,77.762C141.022,77.878 140.839,77.885 140.723,77.773L126.461,64.324C126.359,64.225 126.192,64.232 126.094,64.334L112.621,78.623C112.536,78.712 112.397,78.715 112.305,78.63L104.351,71.128C104.17,70.958 104.16,70.676 104.33,70.495C109.056,65.494 113.458,60.82 117.541,56.475C117.636,56.376 117.68,56.285 117.677,56.2C117.673,56.114 117.622,56.023 117.524,55.931C113.189,51.835 108.515,47.436 103.5,42.724C103.32,42.553 103.313,42.271 103.483,42.091L110.975,34.126C111.06,34.038 111.199,34.031 111.291,34.116L125.594,47.575C125.699,47.67 125.862,47.667 125.961,47.561L139.393,33.286C139.502,33.167 139.685,33.16 139.801,33.269L147.766,40.764C147.929,40.917 147.939,41.176 147.783,41.342C143.217,46.146 138.801,50.834 134.531,55.403C134.419,55.522 134.364,55.621 134.368,55.699Z" style="fill:white;fill-opacity:0.5;fill-rule:nonzero;"/>
    <path d="M214.441,187.873C215.734,188.421 217.064,188.778 218.432,188.952C220.497,189.21 222.395,188.646 223.64,186.958C224.549,185.73 224.773,184.236 224.321,182.477C225.066,181.29 225.171,180.035 224.637,178.704C224.515,178.405 224.096,177.772 223.385,176.806C223.001,175.329 222.542,172.958 222.001,169.692C221.841,168.733 221.092,165.409 219.755,159.717C219.616,159.118 219.204,158.36 218.52,157.444C218.36,157.227 218.153,157.043 217.915,156.907C217.221,156.502 216.37,155.913 215.363,155.134C214.917,154.787 214.216,154.467 213.74,154.318C211.787,153.699 209.739,153.232 207.592,152.916C207.395,152.885 207.228,152.763 207.14,152.583L206.725,151.736C206.252,150.208 206.796,149.194 208.361,148.691C207.501,151.633 210.546,153.042 213.019,152.654C213.118,152.641 213.213,152.61 213.298,152.562C214.05,152.164 214.472,151.552 214.564,150.725C214.574,150.654 214.557,150.582 214.519,150.521C214.441,150.388 214.414,150.303 214.441,150.259C214.492,150.174 214.591,150.126 214.689,150.137C215.7,150.262 216.431,150.089 216.877,149.613C218.16,148.242 218.527,146.445 217.979,144.224C217.955,144.125 218.034,144.033 218.136,144.04C219.16,144.125 219.745,143.638 219.895,142.58C220.021,141.682 219.891,140.9 219.503,140.236C219.398,140.053 219.425,139.821 219.568,139.665C220.99,138.117 222.307,136.606 221.504,134.378C221.126,133.326 220.453,132.595 219.49,132.183C219.388,132.139 219.347,132.017 219.401,131.921C219.983,130.856 218.605,127.692 217.813,127.104C217.687,127.012 217.564,126.92 217.445,126.822C217.34,126.736 216.737,126.389 215.635,125.784C215.537,125.726 215.421,125.709 215.309,125.729C215.149,125.757 215.013,125.855 214.894,126.029C214.819,126.134 214.662,126.127 214.598,126.015C213.73,124.464 212.621,123.249 211.267,122.375C211.189,122.324 211.107,122.286 211.015,122.263L209.903,121.953C209.828,121.929 209.753,121.929 209.678,121.953C209.045,122.147 208.644,122.463 208.474,122.906C208.406,123.083 208.147,123.035 208.147,122.848C208.15,121.749 207.94,120.973 207.514,120.514C207.279,120.262 206.929,120.15 206.596,120.225L202.21,121.164C202.081,121.191 201.948,121.113 201.918,120.983C201.829,120.643 201.448,120.5 200.775,120.551C200.7,120.558 200.628,120.582 200.567,120.623L198.822,121.728C198.621,121.858 198.349,121.769 198.264,121.545C197.624,119.895 195.875,120.289 194.726,121.15C193.514,122.055 192.579,123.164 191.915,124.481C191.864,124.583 191.718,124.583 191.667,124.481L191.538,124.236C191.432,124.032 191.174,123.964 190.98,124.083L188.962,125.308C188.816,125.396 188.687,125.512 188.581,125.644C187.71,126.753 187.156,128.077 186.918,129.611C186.873,129.88 187.156,130.06 187.142,130.312C187.135,130.445 187.057,130.567 186.935,130.625C185.754,131.2 185.057,132.149 184.846,133.473C184.56,135.255 185.591,136.776 186.918,137.943C186.999,138.015 187.06,138.106 187.088,138.212C187.146,138.423 187.071,138.647 186.86,138.889C186.795,138.964 186.761,139.062 186.764,139.165C186.785,139.661 186.414,140.223 186.54,140.862C186.669,141.532 186.999,142.043 187.527,142.393C187.561,142.417 187.601,142.427 187.642,142.427L188.466,142.427C188.578,142.427 188.663,142.522 188.653,142.635C188.642,142.74 188.595,142.812 188.513,142.842C188.476,142.856 188.449,142.89 188.445,142.931C188.163,144.734 188.408,146.244 189.187,147.466C189.707,148.282 190.514,148.646 191.609,148.561C191.776,148.548 191.885,148.561 191.932,148.599C192.021,148.674 192.048,148.772 192.011,148.895C191.963,149.041 191.96,149.191 192.004,149.344C192.296,150.395 192.882,150.98 193.759,151.099C195.522,151.337 196.93,150.749 197.981,149.33C198.332,148.857 198.42,148.075 198.243,146.986C200.543,148.109 201.979,149.858 201.547,152.508C201.53,152.617 201.435,152.698 201.326,152.695C198.376,152.658 195.549,153.26 192.848,154.505C189.918,155.852 186.785,158.387 185.577,161.391C185.54,161.483 185.512,161.575 185.495,161.67C184.312,168.396 183.029,175.517 181.648,183.035C181.563,183.508 181.654,183.988 181.923,184.474C181.597,186.332 182.144,187.856 183.563,189.044C183.648,189.115 183.743,189.166 183.845,189.203L185.366,189.727C185.431,189.751 185.499,189.761 185.57,189.761L189.877,189.721C190.112,189.717 190.347,189.673 190.565,189.588C190.687,189.544 190.939,189.462 191.323,189.35C191.585,189.272 191.718,189.299 191.715,189.428C191.017,191.255 190.33,193.085 189.65,194.916C188.901,196.933 188.316,198.791 187.894,200.495C186.4,206.534 185.121,212.539 184.056,218.503C183.832,219.772 183.311,221.208 183.117,222.164C182.478,225.324 181.937,227.913 181.495,229.924C181.028,232.043 180.61,234.65 180.239,237.745C179.072,247.503 177.487,260.451 175.476,276.588C175.463,276.71 175.503,276.829 175.585,276.915L176.779,278.167C176.891,278.228 176.942,278.303 176.939,278.391C176.902,279.123 176.793,280.296 176.619,281.909C175.221,282.368 173.84,282.851 172.472,283.362C170.308,284.168 168.93,284.661 168.338,284.842C159.391,287.587 149.8,288.771 140.536,287.625C135.164,286.961 129.853,285.672 124.597,283.756C114.513,280.089 105.021,275.805 95.505,271.342C97.786,270.677 96.756,270.287 95.097,270.389C94.724,270.412 94.35,270.433 93.974,270.451C98.847,263.49 103.659,255.927 107.569,248.459C107.933,247.765 108.32,247.057 108.736,246.339C108.797,246.234 108.824,246.115 108.818,245.992C108.818,245.992 106.806,233.23 106.358,231.584C106.206,231.026 106.144,230.669 106.174,230.509C106.504,230.196 106.919,230.118 107.419,230.271C110.454,231.2 113.623,231.955 117.109,233.088C117.725,233.288 118.355,233.618 118.99,234.071C120.084,234.852 121.569,235.98 123.444,237.446C123.89,237.796 125.272,238.887 126.455,239.817C126.137,239.807 125.82,239.795 125.504,239.782L124.847,239.751C124.48,239.733 124.115,239.713 123.752,239.69C122.133,239.588 121.129,239.976 123.354,240.637C124.093,240.81 124.86,240.963 125.649,241.097C126.438,241.231 127.248,241.347 128.071,241.445L128.549,241.501C131.131,243.807 144.417,255.073 145.571,255.93C145.656,255.995 145.769,255.995 145.857,255.937C146.059,255.802 146.214,255.644 146.326,255.464L146.833,255.022C148.854,256.713 151.123,258.424 153.641,260.156C154.56,260.788 155.393,261.21 156.145,261.421C156.264,261.455 156.393,261.442 156.506,261.384C157.19,261.02 157.781,260.533 158.278,259.924C159.799,258.053 162.5,254.773 166.382,250.082C167.222,249.064 167.651,247.877 167.668,246.513C166.95,245.121 165.753,244.213 164.075,243.788C163.967,243.757 163.851,243.757 163.739,243.788C162.919,243.992 162.092,244.349 161.258,244.863C159.343,246.04 155.291,249.384 154.951,249.772C154.754,249.997 154.407,250.003 154.202,249.786L151.641,247.067C151.872,246.567 151.909,246.23 151.753,246.064C151.427,245.716 147.828,242.4 146.624,241.107C151.841,240.04 155.703,234.381 145.753,233.207C145.405,233.166 145.02,233.12 144.623,233.075C142.8,232.868 140.712,232.671 140.72,232.988C140.728,233.268 141.784,233.267 143.041,233.54C143.235,233.582 143.433,233.63 143.633,233.687C150.931,235.772 149.259,237.581 143.844,238.694C141.913,236.954 132.658,228.622 131.571,227.733C130.745,227.053 130.235,226.62 130.05,226.427C130.009,226.383 129.803,226.191 129.431,225.848C128.827,225.292 128.043,224.623 127.08,223.831C126.349,223.228 125.512,222.63 124.566,222.038C117.337,217.513 110.174,213.352 103.099,209.511C102.986,209.45 102.941,209.313 102.993,209.198C105.36,203.958 106.5,198.498 107.794,192.429C107.838,192.221 107.997,192.054 108.205,191.997C112.721,190.761 116.877,188.605 120.657,185.465C121.232,184.515 122.134,183.689 123.362,182.984C127.019,180.889 130.258,178.684 133.078,176.374C133.381,176.126 134.368,175.272 136.038,173.805C136.562,173.346 136.851,172.611 137.246,172.033C137.532,171.614 137.797,171.148 138.039,170.635C139.713,167.11 141.754,163.65 143.612,159.782C143.982,159.006 144.721,157.907 145.826,156.488C147.14,154.804 148.065,152.712 148.599,150.211C148.728,149.609 148.619,149 148.272,148.384C148.218,148.286 148.133,148.207 148.031,148.16C147.674,147.993 147.323,147.901 146.986,147.888C145.86,147.843 144.585,147.86 143.156,147.939C138.546,148.194 139.787,151.497 141.125,154.171C141.346,154.614 141.254,155.148 140.897,155.492C140.155,156.203 139.121,156.89 138.297,157.825C136.589,159.775 134.912,161.877 133.266,164.126C132.48,165.205 131.527,165.977 130.83,166.896C129.608,168.505 127.992,169.923 126.563,171.393C126.417,171.539 125.961,171.791 125.192,172.148C123.426,172.968 120.109,174.635 115.241,177.156C112.444,177.088 110.263,177.886 107.753,179.191C107.654,179.242 107.542,179.249 107.436,179.215L103.993,178.085C104.167,176.456 104.776,175.044 105.814,173.85C106.154,173.458 106.487,173.224 106.81,173.139C109.665,172.4 111.876,170.798 113.448,168.331C113.88,167.654 114.407,166.562 115.037,165.055C118.585,166.497 119.319,164.479 119.386,160.7C119.44,157.627 119.724,152.956 115.302,151.531C115.285,151.525 115.265,151.518 115.248,151.514C113.952,151.226 112.787,150.669 111.73,149.929C110.62,149.152 109.41,148.454 108.443,148.555C107.419,148.661 105.592,149.125 102.959,149.949C102.275,150.163 101.686,150.412 101.19,150.694C100.254,151.228 99.714,151.573 99.574,151.719C98.722,152.608 98.237,153.345 98.125,153.937C97.87,155.281 97.989,156.812 98.482,158.53C97.975,159.193 97.499,160.272 97.883,161.054C98.298,161.901 98.172,162.789 97.846,163.582C97.801,163.687 97.778,163.8 97.767,163.912C97.621,165.834 97.73,167.443 98.094,168.733C97.995,170.09 97.764,171.148 97.4,171.907C97.005,172.73 96.396,173.782 95.576,175.064C93.586,172.564 91.245,170.523 88.554,168.947C87.183,168.144 85.925,167.668 84.785,167.522C83.907,167.409 83.346,167.311 83.104,167.226L82.594,167.205C82.485,167.202 82.379,167.181 82.281,167.144C80.872,166.637 79.699,166.236 78.756,165.943C77.787,165.64 76.657,165.167 75.361,164.521C71.884,162.786 68.329,161.381 64.695,160.302C62.82,159.748 60.789,159.475 58.609,159.486C56.564,159.496 51.583,159.543 47.739,159.026C47.46,158.989 47.184,158.917 46.919,158.812C45.752,158.346 44.456,157.904 43.03,157.489C42.095,157.216 41.458,156.951 41.121,156.696C40.86,156.495 40.366,156.005 39.638,155.223C39.458,155.029 39.141,154.927 38.689,154.913C38.597,154.91 38.522,154.981 38.522,155.073L40.251,157.768C40.325,157.836 40.336,157.948 40.278,158.033C40.142,158.23 39.88,158.247 39.492,158.084C38.747,157.771 38.366,157.611 38.345,157.601C37.791,157.346 35.297,156.876 35.297,156.876C35.021,156.876 34.868,157.193 35.035,157.41C35.494,158.009 38.335,159.346 39.135,159.557C39.172,159.567 39.196,159.601 39.192,159.642C39.189,159.68 39.158,159.71 39.121,159.714C38.066,159.805 34.018,159.431 34.018,159.431C33.735,159.428 33.572,159.754 33.746,159.979C34.212,160.581 34.821,160.921 35.579,161C36.831,161.129 37.787,161.313 38.444,161.554C38.658,161.632 38.784,161.704 38.818,161.768C38.948,162.01 38.777,162.306 38.502,162.316C37.964,162.34 36.93,162.35 35.399,162.354C34.96,162.357 34.62,162.742 34.671,163.177C34.685,163.286 34.804,163.402 35.025,163.524C35.127,163.582 42.425,163.891 42.459,164.487C42.462,164.558 42.438,164.63 42.394,164.688L40.883,166.661C40.822,166.739 40.791,166.838 40.791,166.936L40.791,167.695C40.791,167.848 40.955,167.947 41.091,167.875L42.03,167.375C42.047,167.368 42.06,167.358 42.074,167.345C43.513,165.817 45.133,164.558 46.932,163.568C47.171,163.439 47.446,163.402 47.711,163.463C55.887,165.371 60.599,166.48 61.854,166.783C63.195,167.106 64.134,167.443 64.675,167.787C69.08,170.6 72.054,172.421 73.588,173.247C74.956,173.986 75.875,174.503 76.347,174.802C78.066,176.718 79.858,178.459 81.723,180.031C80.107,185.754 77.754,217.292 79.76,220.588C80.07,221.098 80.356,221.438 80.617,221.606C81.425,222.124 81.975,222.654 82.267,223.194C85.846,228.57 88.02,232.006 88.786,233.5C89.445,234.786 89.844,235.483 89.97,235.602C89.994,235.625 90.014,235.653 90.031,235.684L94.151,243.475C94.284,243.73 94.304,244.033 94.205,244.305C93.502,246.204 86.691,259.717 83.146,266.576C81.786,266.147 78.872,265.239 75.319,264.207C76.608,263.933 77.692,263.935 77.699,263.652C77.708,263.334 75.567,263.532 73.698,263.74C66.375,261.651 57.107,259.279 52.873,259.312C48.64,259.342 39.546,259.938 32.701,259.472C19.147,258.55 8.74,249.041 4.13,236.585C1.949,230.689 1.013,224.402 0.421,217.853C-0.215,210.828 -0.13,204.091 0.67,197.637C1.129,193.953 1.884,189.551 2.936,184.434C4.746,175.622 7.42,167.634 10.567,158.761C12.224,154.093 13.891,148.194 15.228,144.431C17.075,139.243 19.314,134.395 21.944,129.88C25.587,123.634 30.418,118.599 36.444,114.778C44.258,109.821 52.709,106.766 61.8,105.612C73.449,104.133 84.781,105.806 96.294,108.712C100.373,109.743 105.092,110.91 110.454,112.219C121.579,114.941 132.616,116.506 143.925,115.087C144.384,115.03 144.846,115.016 145.309,115.047L146.054,115.094C144.989,117.357 146.459,119.347 148.613,120.143C150.31,120.769 152.256,120.657 154.454,119.803C154.519,119.779 154.59,119.803 154.631,119.861C155.703,121.456 157.05,122.334 158.666,122.494C160.928,122.722 162.667,122.001 163.882,120.33C165.603,117.962 165.123,114.788 162.684,113.08C162.487,112.941 162.412,112.686 162.5,112.461C162.779,111.747 162.854,110.971 162.728,110.131C163.766,109.488 165.239,108.821 167.148,108.137C171.339,106.63 174.289,105.691 176,105.313C181.961,103.993 187.948,103.826 193.967,104.816C196.665,105.259 199.114,106.616 201.911,105.684C210.876,102.697 220.337,101.775 229.713,102.676C237.732,103.445 244.989,106.504 252.004,110.43C256.954,113.199 261.717,116.833 266.293,121.33C266.603,121.633 267.195,122.147 267.841,122.545C272.169,125.219 275.847,127.461 279.402,130.571C283.137,133.837 285.614,138.175 287.618,142.944C290.057,148.752 291.054,154.59 290.609,160.465C290.296,164.555 289.646,168.508 288.064,171.72C286.604,174.68 285.539,176.925 284.866,178.459C283.076,182.525 282.852,186.625 284.195,190.751C284.58,191.925 285.1,193.283 285.757,194.817C287.468,198.808 289.731,203.547 292.548,209.038C295.841,215.465 298.107,221.871 299.349,228.264C300.679,235.122 300.114,241.893 296.321,247.87C293.752,251.922 290.551,255.522 287.373,258.795C278.249,268.188 265.633,272.699 252.63,271.413C248.772,271.032 244.86,270.484 240.893,269.77C231.758,268.123 225.049,266.98 220.762,266.341C219.799,266.198 218.656,266.136 217.333,266.157C217.479,263.847 219.282,219.687 219.228,211.545C219.214,209.753 219.088,208.068 218.837,206.439C218.326,203.149 214.533,188.829 214.441,187.873ZM147.789,198.75C147.589,198.238 150.47,176.85 150.47,176.85C150.511,176.663 150.395,176.476 150.208,176.435L150.028,176.398C149.841,176.357 149.661,176.483 149.637,176.673C148.286,187.451 147.408,195.644 146.915,196.505C146.861,196.6 146.731,196.624 146.65,196.552C145.85,195.872 141.03,193.212 137.76,196.304C136.124,197.85 135.516,199.566 137.181,201.533C141.405,206.524 149.12,202.147 147.789,198.75ZM78.21,135.98L66.389,135.98C66.287,135.98 66.199,136.052 66.178,136.15L63.518,148.201C63.48,148.367 63.276,148.429 63.157,148.31C62.365,147.527 61.46,147.085 60.442,146.983C59.33,146.87 58.435,147.092 57.758,147.646C57.101,148.184 56.928,149.055 57.244,150.256C57.275,150.371 57.333,150.48 57.411,150.569C58.796,152.164 60.487,152.589 62.487,151.851C62.596,151.81 62.698,151.749 62.783,151.674C63.171,151.327 63.467,150.885 63.668,150.344C63.81,149.963 63.712,149.602 63.858,149.293C63.987,149.014 64.076,148.762 64.127,148.534L66.229,138.607C66.294,138.304 66.559,138.089 66.866,138.089L76.837,138.089C77.038,138.089 77.191,138.273 77.154,138.471C77.154,138.471 75.915,144.36 75.718,144.921C75.677,145.033 75.541,145.071 75.449,144.992C75.163,144.751 74.939,144.52 74.772,144.302C74.674,144.176 74.401,144.03 73.949,143.863C72.061,143.169 70.581,143.506 69.509,144.877C68.645,145.982 69.703,147.575 70.693,148.143C72.329,149.078 73.922,149.017 75.473,147.952C75.681,147.809 75.817,147.585 75.851,147.337C75.946,146.588 78.14,136.715 78.225,136.589C78.358,136.394 78.338,136.151 78.21,135.98ZM68.339,252.497C68.356,252.452 68.349,252.402 68.339,252.351L64.317,233.901C64.294,233.789 64.44,233.721 64.508,233.816C65.738,235.551 67.134,237.162 68.757,238.589C68.855,238.675 68.937,238.773 69.009,238.882C70.553,241.22 69.702,243.673 68.427,245.894C68.345,246.036 68.414,246.22 68.57,246.275L68.594,246.282C68.767,246.343 68.961,246.274 69.06,246.118C70.566,243.745 71.319,239.848 69.04,237.824C66.733,235.776 64.886,233.373 63.48,230.632C63.372,230.42 63.068,230.427 62.974,230.645C62.901,230.812 62.888,230.992 62.929,231.186C64.256,237.399 65.639,243.588 67.049,249.762C67.087,249.925 66.927,250.065 66.77,250.007C66.77,250.007 64.117,248.553 61.432,250.255C60.456,250.874 59.371,252.252 59.622,253.78C59.969,255.882 62.463,256.263 63.664,256.165C65.916,255.981 67.91,254.804 68.339,252.497ZM178.667,126.083C179.412,125.379 179.858,124.777 180.008,124.277C181.175,120.33 176.075,119.051 174.129,121.99C173.969,122.229 173.758,122.433 173.51,122.579C171.989,123.494 171.023,124.382 171.033,126.308C171.043,127.849 172.227,129.55 173.792,129.839C175.779,130.207 177.181,129.4 178.113,127.587C178.3,127.223 178.293,126.682 178.477,126.335C178.528,126.24 178.589,126.155 178.667,126.083Z" style="fill:white;fill-opacity:0.1;"/>
    <path d="M145.211,197.678C145.214,197.573 145.33,197.515 145.415,197.573C145.507,197.634 145.578,197.722 145.632,197.838C146.245,199.104 145.52,201.05 144.255,201.703C143.509,202.087 142.645,202.145 141.655,201.88C141.519,201.843 141.533,201.649 141.672,201.628C143.969,201.308 145.149,199.992 145.211,197.678Z" style="fill:white;fill-opacity:0.1;"/>
    <path d="M162.728,110.131C162.854,110.971 162.779,111.747 162.5,112.461C162.412,112.686 162.487,112.941 162.684,113.08C165.123,114.788 165.603,117.962 163.882,120.33C162.667,122.001 160.928,122.722 158.666,122.494C157.05,122.334 155.703,121.456 154.631,119.861C154.59,119.803 154.519,119.779 154.454,119.803C152.256,120.657 150.31,120.769 148.613,120.143C146.459,119.347 144.989,117.357 146.054,115.094C146.687,114.07 147.517,113.267 148.541,112.686C148.657,112.621 148.688,112.471 148.609,112.366C148.46,112.165 148.375,111.978 148.351,111.798C147.939,108.736 150.014,105.476 152.859,104.33C154.24,103.775 155.74,103.697 157.363,104.102C160.251,104.82 162.041,106.827 162.728,110.131Z" style="fill:white;fill-opacity:0.95;fill-rule:nonzero;"/>
    <path d="M208.361,148.691C210.682,147.347 211.26,145.299 211.168,142.608C211.097,140.536 211.127,138.852 211.267,137.555C211.301,137.229 211.43,136.963 211.512,136.616C211.542,136.497 211.44,136.388 211.318,136.405C211.178,136.426 210.76,136.314 210.062,136.069C209.035,135.711 208.423,135.017 208.229,133.993C208.218,133.932 208.14,133.915 208.103,133.963C207.188,135.221 205.749,135.385 204.313,135.313C203.425,134.885 202.795,134.129 202.425,133.051C202.343,132.806 202.067,132.68 201.829,132.779C201.149,133.054 200.526,133.265 199.958,133.412C199.053,133.653 198.373,133.497 197.913,132.942C197.835,132.847 197.679,132.911 197.689,133.034C197.713,133.377 197.791,133.711 197.927,134.041C198.505,135.446 197.988,136.28 196.376,136.545C196.175,136.579 196.069,136.8 196.171,136.974C196.61,137.746 195.661,138.229 195.005,138.266C194.892,138.273 194.783,138.321 194.705,138.402C194.552,138.559 194.45,138.896 194.399,139.413C194.253,140.845 194.715,141.869 195.794,142.485C195.92,142.557 196.008,142.676 196.049,142.812C196.246,143.523 196.634,144.441 197.209,145.571C197.553,146.248 197.896,146.717 198.243,146.986C198.42,148.075 198.332,148.857 197.981,149.33C196.93,150.749 195.522,151.337 193.759,151.099C192.882,150.98 192.296,150.395 192.004,149.344C191.96,149.191 191.963,149.041 192.011,148.895C192.048,148.772 192.021,148.674 191.932,148.599C191.885,148.561 191.776,148.548 191.609,148.561C190.514,148.646 189.707,148.282 189.187,147.466C188.408,146.244 188.163,144.734 188.445,142.931C188.449,142.89 188.476,142.856 188.513,142.842C188.595,142.812 188.642,142.74 188.653,142.635C188.663,142.522 188.578,142.427 188.466,142.427L187.642,142.427C187.601,142.427 187.561,142.417 187.527,142.393C186.999,142.043 186.669,141.532 186.54,140.862C186.414,140.223 186.785,139.661 186.764,139.165C186.761,139.062 186.795,138.964 186.86,138.889C187.071,138.647 187.146,138.423 187.088,138.212C187.06,138.106 186.999,138.015 186.918,137.943C185.591,136.776 184.56,135.255 184.846,133.473C185.057,132.149 185.754,131.2 186.935,130.625C187.057,130.567 187.135,130.445 187.142,130.312C187.156,130.06 186.873,129.88 186.918,129.611C187.156,128.077 187.71,126.753 188.581,125.644C188.687,125.512 188.816,125.396 188.962,125.308L190.98,124.083C191.174,123.964 191.432,124.032 191.538,124.236L191.667,124.481C191.718,124.583 191.864,124.583 191.915,124.481C192.579,123.164 193.514,122.055 194.726,121.15C195.875,120.289 197.624,119.895 198.264,121.545C198.349,121.769 198.621,121.858 198.822,121.728L200.567,120.623C200.628,120.582 200.7,120.558 200.775,120.551C201.448,120.5 201.829,120.643 201.918,120.983C201.948,121.113 202.081,121.191 202.21,121.164L206.596,120.225C206.929,120.15 207.279,120.262 207.514,120.514C207.94,120.973 208.15,121.749 208.147,122.848C208.147,123.035 208.406,123.083 208.474,122.906C208.644,122.463 209.045,122.147 209.678,121.953C209.753,121.929 209.828,121.929 209.903,121.953L211.015,122.263C211.107,122.286 211.189,122.324 211.267,122.375C212.621,123.249 213.73,124.464 214.598,126.015C214.662,126.127 214.819,126.134 214.894,126.029C215.013,125.855 215.149,125.757 215.309,125.729C215.421,125.709 215.537,125.726 215.635,125.784C216.737,126.389 217.34,126.736 217.445,126.822C217.564,126.92 217.687,127.012 217.813,127.104C218.605,127.692 219.983,130.856 219.401,131.921C219.347,132.017 219.388,132.139 219.49,132.183C220.453,132.595 221.126,133.326 221.504,134.378C222.307,136.606 220.99,138.117 219.568,139.665C219.425,139.821 219.398,140.053 219.503,140.236C219.891,140.9 220.021,141.682 219.895,142.58C219.745,143.638 219.16,144.125 218.136,144.04C218.034,144.033 217.955,144.125 217.979,144.224C218.527,146.445 218.16,148.242 216.877,149.613C216.431,150.089 215.7,150.262 214.689,150.137C214.591,150.126 214.492,150.174 214.441,150.259C214.414,150.303 214.441,150.388 214.519,150.521C214.557,150.582 214.574,150.654 214.564,150.725C214.472,151.552 214.05,152.164 213.298,152.562C213.213,152.61 213.118,152.641 213.019,152.654C210.546,153.042 207.501,151.633 208.361,148.691Z" style="fill:white;fill-opacity:0.25;fill-rule:nonzero;"/>
    <path d="M178.477,126.335C178.293,126.682 178.3,127.223 178.113,127.587C177.181,129.4 175.779,130.207 173.792,129.839C172.227,129.55 171.043,127.849 171.033,126.308C171.023,124.382 171.989,123.494 173.51,122.579C173.758,122.433 173.969,122.229 174.129,121.99C176.075,119.051 181.175,120.33 180.008,124.277C179.858,124.777 179.412,125.379 178.667,126.083C178.589,126.155 178.528,126.24 178.477,126.335Z" style="fill:white;fill-opacity:0.95;fill-rule:nonzero;"/>
    <path d="M206.725,151.736L207.14,152.583C207.228,152.763 207.395,152.885 207.592,152.916C209.739,153.232 211.787,153.699 213.74,154.318C214.216,154.467 214.917,154.787 215.363,155.134C216.37,155.913 217.221,156.502 217.915,156.907C218.153,157.043 218.36,157.227 218.52,157.444C219.204,158.36 219.616,159.118 219.755,159.717C221.092,165.409 221.841,168.733 222.001,169.692C222.542,172.958 223.001,175.329 223.385,176.806C222.109,175.986 221.024,175.54 220.129,175.466C216.88,175.197 213.608,177.119 210.508,178.3C210.423,178.33 210.331,178.344 210.243,178.34L209.811,178.317C208.198,177.864 206.613,177.391 205.058,176.901C202.809,176.19 201.207,175.806 200.254,175.741C198.526,175.622 196.811,175.85 195.113,176.428C194.964,176.479 194.821,176.462 194.681,176.371C194.868,173.846 195.059,171.322 195.253,168.801C195.28,168.43 195.277,168.069 195.246,167.719C195.239,167.651 195.141,167.641 195.124,167.709C194.236,171.005 193.116,174.302 191.766,177.599C191.504,177.953 191.16,178.337 190.735,178.749C190.435,179.038 190.075,179.572 189.653,180.351C187.125,180.514 184.91,181.345 183.015,182.845C182.757,183.046 182.393,183.59 181.923,184.474C181.654,183.988 181.563,183.508 181.648,183.035C183.029,175.517 184.312,168.396 185.495,161.67C185.512,161.575 185.54,161.483 185.577,161.391C186.785,158.387 189.918,155.852 192.848,154.505C195.549,153.26 198.376,152.658 201.326,152.695C201.435,152.698 201.53,152.617 201.547,152.508C201.979,149.858 200.543,148.109 198.243,146.986C197.896,146.717 197.553,146.248 197.209,145.571C196.634,144.441 196.246,143.523 196.049,142.812C196.008,142.676 195.92,142.557 195.794,142.485C194.715,141.869 194.253,140.845 194.399,139.413C194.45,138.896 194.552,138.559 194.705,138.402C194.783,138.321 194.892,138.273 195.005,138.266C195.661,138.229 196.61,137.746 196.171,136.974C196.069,136.8 196.175,136.579 196.376,136.545C197.988,136.28 198.505,135.446 197.927,134.041C197.791,133.711 197.713,133.377 197.689,133.034C197.679,132.911 197.835,132.847 197.913,132.942C198.373,133.497 199.053,133.653 199.958,133.412C200.526,133.265 201.149,133.054 201.829,132.779C202.067,132.68 202.343,132.806 202.425,133.051C202.795,134.129 203.425,134.885 204.313,135.313L205.374,135.443C205.459,135.453 205.5,135.554 205.442,135.62C205.117,135.988 205.021,136.392 205.143,136.824C205.652,138.626 205.93,140.508 205.97,142.468C205.973,142.655 205.789,142.788 205.612,142.727L204.333,142.284C204.088,142.199 203.826,142.346 203.768,142.597L203.292,144.639C202.574,144.564 202.088,144.802 201.833,145.35C201.622,145.802 201.935,146.323 202.431,146.353C202.673,146.37 202.959,146.343 203.285,146.272C203.285,146.272 204.714,150.636 206.725,151.736ZM203.125,136.875L200.029,137.317C200.006,137.321 199.992,137.341 199.992,137.361L199.995,137.378C200.04,137.691 200.652,137.862 201.36,137.759L201.972,137.671C202.68,137.572 203.221,137.239 203.176,136.926L203.173,136.909C203.17,136.889 203.149,136.871 203.125,136.875ZM203.084,139.901C203.078,139.709 202.421,139.573 201.614,139.597C200.809,139.62 200.159,139.801 200.166,139.993C200.172,140.185 200.829,140.321 201.636,140.297C202.442,140.274 203.091,140.093 203.084,139.901Z" style="fill:white;fill-opacity:0.9;"/>
    <path d="M205.742,146.251C205.936,146.129 206.068,145.979 206.147,145.799C206.191,145.697 206.194,145.578 206.153,145.472C205.923,144.874 205.27,144.715 204.595,144.672C204.126,144.641 203.646,144.667 203.292,144.639L203.768,142.597C203.826,142.346 204.088,142.199 204.333,142.284L205.612,142.727C205.789,142.788 205.973,142.655 205.97,142.468C205.925,140.508 205.65,138.627 205.143,136.824C205.02,136.392 205.119,135.99 205.442,135.62C205.5,135.555 205.459,135.453 205.374,135.443L204.313,135.313C205.749,135.385 207.188,135.221 208.103,133.963C208.14,133.915 208.218,133.932 208.229,133.993C208.423,135.017 209.035,135.711 210.062,136.069C210.76,136.314 211.178,136.426 211.318,136.405C211.44,136.388 211.542,136.497 211.512,136.616C211.43,136.963 211.301,137.229 211.267,137.555C211.127,138.852 211.097,140.536 211.168,142.608C211.26,145.299 210.682,147.347 208.361,148.691L208.208,148.743C206.761,149.262 206.268,150.259 206.725,151.736C204.714,150.636 203.285,146.272 203.285,146.272L205.078,146.278C205.34,146.306 205.561,146.295 205.742,146.251ZM209.263,139.801L206.953,139.889C206.926,139.889 206.902,139.913 206.902,139.944L206.905,139.978C206.915,140.257 207.358,140.468 207.888,140.447L208.372,140.427C208.906,140.406 209.331,140.165 209.317,139.882L209.317,139.848C209.317,139.821 209.294,139.801 209.263,139.801ZM206.557,137.156C206.517,137.361 207.092,137.644 207.836,137.78C208.579,137.919 209.215,137.862 209.254,137.655C209.294,137.45 208.719,137.167 207.975,137.031C207.232,136.892 206.596,136.95 206.557,137.156Z" style="fill:white;fill-opacity:0.85;"/>
    <path d="M78.21,135.98C78.338,136.151 78.358,136.394 78.225,136.589C78.14,136.715 75.946,146.588 75.851,147.337C75.817,147.585 75.681,147.809 75.473,147.952C73.922,149.017 72.329,149.078 70.693,148.143C69.703,147.575 68.645,145.982 69.509,144.877C70.581,143.506 72.061,143.169 73.949,143.863C74.401,144.03 74.674,144.176 74.772,144.302C74.939,144.52 75.163,144.751 75.449,144.992C75.541,145.071 75.677,145.033 75.718,144.921C75.915,144.36 77.154,138.471 77.154,138.471C77.191,138.273 77.038,138.089 76.837,138.089L66.866,138.089C66.559,138.089 66.294,138.304 66.229,138.607L64.127,148.534C64.076,148.762 63.987,149.014 63.858,149.293C63.712,149.602 63.81,149.963 63.668,150.344C63.467,150.885 63.171,151.327 62.783,151.674C62.698,151.749 62.596,151.81 62.487,151.851C60.487,152.589 58.796,152.164 57.411,150.569C57.333,150.48 57.275,150.371 57.244,150.256C56.928,149.055 57.101,148.184 57.758,147.646C58.435,147.092 59.33,146.87 60.442,146.983C61.46,147.085 62.365,147.527 63.157,148.31C63.276,148.429 63.48,148.367 63.518,148.201L66.178,136.15C66.199,136.052 66.287,135.98 66.389,135.98L78.21,135.98ZM72.401,147.901C73.711,148.452 74.966,147.391 75.055,146.071C75.061,145.969 74.99,145.88 74.891,145.86C74.789,145.843 74.694,145.901 74.663,145.999C74.347,147.03 73.616,147.558 72.466,147.575C72.282,147.578 72.231,147.83 72.401,147.901ZM58.466,148.636C58.435,148.497 58.238,148.497 58.207,148.636C57.952,149.878 58.449,150.722 59.701,151.161C59.789,151.191 59.857,151.082 59.789,151.018L58.905,150.184C58.82,150.106 58.762,150.004 58.738,149.892L58.466,148.636Z" style="fill:white;fill-opacity:0.5;"/>
    <path d="M203.125,136.875C203.149,136.871 203.17,136.889 203.173,136.909L203.176,136.926C203.221,137.239 202.68,137.572 201.972,137.671L201.36,137.759C200.652,137.862 200.04,137.691 199.995,137.378L199.992,137.361C199.992,137.341 200.006,137.321 200.029,137.317L203.125,136.875Z" style="fill:white;fill-opacity:0.15;fill-rule:nonzero;"/>
    <path d="M206.557,137.156C206.596,136.95 207.232,136.892 207.975,137.031C208.719,137.167 209.294,137.45 209.254,137.655C209.215,137.862 208.579,137.919 207.836,137.78C207.092,137.644 206.517,137.361 206.557,137.156Z" style="fill:white;fill-opacity:0.15;fill-rule:nonzero;"/>
    <path d="M203.084,139.901C203.091,140.093 202.442,140.274 201.636,140.297C200.829,140.321 200.172,140.185 200.166,139.993C200.159,139.801 200.809,139.62 201.614,139.597C202.421,139.573 203.078,139.709 203.084,139.901Z" style="fill:white;fill-opacity:0.15;fill-rule:nonzero;"/>
    <path d="M209.263,139.801C209.294,139.801 209.317,139.821 209.317,139.848L209.317,139.882C209.331,140.165 208.906,140.406 208.372,140.427L207.888,140.447C207.358,140.468 206.915,140.257 206.905,139.978L206.902,139.944C206.902,139.913 206.926,139.889 206.953,139.889L209.263,139.801Z" style="fill:white;fill-opacity:0.15;fill-rule:nonzero;"/>
    <path d="M203.285,146.272C202.959,146.343 202.673,146.37 202.431,146.353C201.935,146.323 201.622,145.802 201.833,145.35C202.088,144.802 202.574,144.564 203.292,144.639C203.646,144.667 204.126,144.641 204.595,144.672C205.27,144.715 205.923,144.874 206.153,145.472C206.194,145.578 206.191,145.697 206.147,145.799C206.068,145.979 205.936,146.129 205.742,146.251C205.561,146.295 205.34,146.306 205.078,146.278L203.285,146.272Z" style="fill:white;fill-opacity:0.15;"/>
    <path d="M72.401,147.901C72.231,147.83 72.282,147.578 72.466,147.575C73.616,147.558 74.347,147.03 74.663,145.999C74.694,145.901 74.789,145.843 74.891,145.86C74.99,145.88 75.061,145.969 75.055,146.071C74.966,147.391 73.711,148.452 72.401,147.901Z" style="fill:white;fill-opacity:0.35;fill-rule:nonzero;"/>
    <path d="M120.657,185.465C118.259,185.556 116.666,184.709 115.881,182.92C115.091,181.12 114.877,179.201 115.241,177.156C120.109,174.635 123.426,172.968 125.192,172.148C125.961,171.791 126.417,171.539 126.563,171.393C127.992,169.923 129.608,168.505 130.83,166.896C131.527,165.977 132.48,165.205 133.266,164.126C134.912,161.877 136.589,159.775 138.297,157.825C139.121,156.89 140.155,156.203 140.897,155.492C141.254,155.148 141.346,154.614 141.125,154.171C139.787,151.497 138.546,148.194 143.156,147.939C144.585,147.86 145.86,147.843 146.986,147.888C147.323,147.901 147.674,147.993 148.031,148.16C148.133,148.207 148.218,148.286 148.272,148.384C148.619,149 148.728,149.609 148.599,150.211C148.065,152.712 147.14,154.804 145.826,156.488C144.721,157.907 143.982,159.006 143.612,159.782C141.754,163.65 139.713,167.11 138.039,170.635C137.797,171.148 137.532,171.614 137.246,172.033C136.851,172.611 136.562,173.346 136.038,173.805C134.368,175.272 133.381,176.126 133.078,176.374C130.258,178.684 127.019,180.889 123.362,182.984C122.134,183.689 121.232,184.515 120.657,185.465Z" style="fill:white;fill-opacity:0.75;fill-rule:nonzero;"/>
    <path d="M58.466,148.636L58.738,149.892C58.762,150.004 58.82,150.106 58.905,150.184L59.789,151.018C59.857,151.082 59.789,151.191 59.701,151.161C58.449,150.722 57.952,149.878 58.207,148.636C58.238,148.497 58.435,148.497 58.466,148.636Z" style="fill:white;fill-opacity:0.35;fill-rule:nonzero;"/>
    <path d="M115.037,165.055C113.945,164.191 113.312,163 112.635,161.874C112.516,161.643 112.325,161.459 112.094,161.343L110.822,160.7C110.617,160.598 110.651,160.302 110.869,160.244C111.1,160.186 111.41,160.241 111.795,160.411C111.914,160.462 112.036,160.353 111.999,160.231C111.856,159.778 111.849,159.254 111.982,158.662C112.005,158.55 111.89,158.455 111.788,158.506C111.607,158.591 111.424,158.724 111.237,158.911C111.107,159.04 110.883,158.962 110.866,158.778L110.856,158.625C111.043,156.723 111.148,155.607 110.566,153.889C110.543,153.814 110.444,153.797 110.396,153.862C108.321,156.607 105.327,156.478 102.112,157.723C101.945,157.788 101.789,157.866 101.636,157.958C100.972,158.366 100.401,158.71 99.914,158.992C99.591,159.179 99.312,159.23 99.084,159.145C98.843,159.054 98.642,158.849 98.482,158.53C97.989,156.812 97.87,155.281 98.125,153.937C98.237,153.345 98.722,152.608 99.574,151.719C99.714,151.573 100.254,151.228 101.19,150.694C101.686,150.412 102.275,150.163 102.959,149.949C105.592,149.125 107.419,148.661 108.443,148.555C109.41,148.454 110.62,149.152 111.73,149.929C112.787,150.669 113.952,151.226 115.248,151.514C115.265,151.518 115.285,151.525 115.302,151.531C119.724,152.956 119.44,157.627 119.386,160.7C119.319,164.479 118.585,166.497 115.037,165.055Z" style="fill:white;fill-opacity:0.2;"/>
    <path d="M110.856,158.625L110.879,158.428C110.893,158.308 110.747,158.24 110.665,158.329C110.161,158.863 109.621,159.595 109.046,160.523C108.28,161.758 108.277,163.82 107.902,165.31C107.596,166.535 107.1,166.334 106.089,166.229C105.909,166.212 105.732,166.276 105.606,166.402L104.698,167.321L103.279,165.946C103.061,165.739 102.718,165.742 102.507,165.957C101.064,167.413 102.126,169.661 103.619,170.519L103.327,172.812C103.31,172.962 103.15,173.047 103.014,172.979C101.18,172.077 99.54,170.662 98.094,168.733C97.73,167.443 97.621,165.834 97.767,163.912C97.778,163.8 97.801,163.687 97.846,163.582C98.172,162.789 98.298,161.901 97.883,161.054C97.499,160.272 97.975,159.193 98.482,158.53C98.642,158.849 98.843,159.054 99.084,159.145C99.312,159.23 99.591,159.179 99.914,158.992C100.401,158.71 100.972,158.366 101.636,157.958C101.789,157.866 101.945,157.788 102.112,157.723C105.327,156.478 108.321,156.607 110.396,153.862C110.444,153.797 110.543,153.814 110.566,153.889C111.148,155.607 111.043,156.723 110.856,158.625ZM103.765,158.217C104.749,158.077 105.752,158.356 106.783,159.047C106.851,159.091 106.95,159.108 107.079,159.101C107.27,159.088 107.372,158.873 107.263,158.72C106.501,157.631 104.796,157.468 103.694,157.978C103.636,158.006 103.609,158.067 103.626,158.128C103.646,158.186 103.704,158.227 103.765,158.217ZM105.752,161.928L104.813,161.721C104.762,161.711 104.711,161.741 104.701,161.792L104.684,161.877C104.67,161.945 104.715,162.013 104.783,162.027C105.3,162.122 105.82,162.099 106.344,161.956C106.467,161.922 106.528,161.782 106.47,161.67C105.895,160.581 105.024,159.908 103.85,159.649C103.694,159.615 103.541,159.714 103.503,159.867L103.5,159.884C103.463,160.047 103.568,160.21 103.731,160.244C104.609,160.431 105.327,160.925 105.888,161.724C105.956,161.823 105.871,161.956 105.752,161.928Z" style="fill:white;fill-opacity:0.85;fill-rule:nonzero;"/>
    <path d="M83.104,167.226C83.039,168.131 82.948,169.008 82.832,169.862C82.543,171.972 81.257,174.53 79.011,174.982C78.191,175.149 77.303,175.088 76.347,174.802C75.875,174.503 74.956,173.986 73.588,173.247C72.054,172.421 69.08,170.6 64.675,167.787C64.134,167.443 63.195,167.106 61.854,166.783C60.599,166.48 55.887,165.371 47.711,163.463C47.446,163.402 47.171,163.439 46.932,163.568C45.133,164.558 43.513,165.817 42.074,167.345C42.06,167.358 42.047,167.368 42.03,167.375L41.091,167.875C40.955,167.947 40.791,167.848 40.791,167.695L40.791,166.936C40.791,166.838 40.822,166.739 40.883,166.661L42.394,164.688C42.438,164.63 42.462,164.558 42.459,164.487C42.425,163.891 35.127,163.582 35.025,163.524C34.804,163.402 34.685,163.286 34.671,163.177C34.62,162.742 34.96,162.357 35.399,162.354C36.93,162.35 37.964,162.34 38.502,162.316C38.777,162.306 38.948,162.01 38.818,161.768C38.784,161.704 38.658,161.632 38.444,161.554C37.787,161.313 36.831,161.129 35.579,161C34.821,160.921 34.212,160.581 33.746,159.979C33.572,159.754 33.735,159.428 34.018,159.431C34.018,159.431 38.066,159.805 39.121,159.714C39.158,159.71 39.189,159.68 39.192,159.642C39.196,159.601 39.172,159.567 39.135,159.557C38.335,159.346 35.494,158.009 35.035,157.41C34.868,157.193 35.021,156.876 35.297,156.876C35.297,156.876 37.791,157.346 38.345,157.601C38.366,157.611 38.747,157.771 39.492,158.084C39.88,158.247 40.142,158.23 40.278,158.033C40.336,157.948 40.325,157.836 40.251,157.768L38.522,155.073C38.522,154.981 38.597,154.91 38.689,154.913C39.141,154.927 39.458,155.029 39.638,155.223C40.366,156.005 40.86,156.495 41.121,156.696C41.458,156.951 42.095,157.216 43.03,157.489C44.456,157.904 45.752,158.346 46.919,158.812C47.184,158.917 47.46,158.989 47.739,159.026C51.583,159.543 56.564,159.496 58.609,159.486C60.789,159.475 62.82,159.748 64.695,160.302C68.329,161.381 71.884,162.786 75.361,164.521C76.657,165.167 77.787,165.64 78.756,165.943C79.699,166.236 80.872,166.637 82.281,167.144C82.379,167.181 82.485,167.202 82.594,167.205L83.104,167.226Z" style="fill:white;fill-opacity:0.75;fill-rule:nonzero;"/>
    <path d="M103.765,158.217C103.704,158.227 103.646,158.186 103.626,158.128C103.609,158.067 103.636,158.006 103.694,157.978C104.796,157.468 106.501,157.631 107.263,158.72C107.372,158.873 107.27,159.088 107.079,159.101C106.95,159.108 106.851,159.091 106.783,159.047C105.752,158.356 104.749,158.077 103.765,158.217Z" style="fill:white;fill-opacity:0.15;fill-rule:nonzero;"/>
    <path d="M110.856,158.625L110.866,158.778C110.883,158.962 111.107,159.04 111.237,158.911C111.424,158.724 111.607,158.591 111.788,158.506C111.89,158.455 112.005,158.55 111.982,158.662C111.849,159.254 111.856,159.778 111.999,160.231C112.036,160.353 111.914,160.462 111.795,160.411C111.41,160.241 111.1,160.186 110.869,160.244C110.651,160.302 110.617,160.598 110.822,160.7L112.094,161.343C112.325,161.459 112.516,161.643 112.635,161.874C113.312,163 113.945,164.191 115.037,165.055C114.407,166.562 113.88,167.654 113.448,168.331C111.876,170.798 109.665,172.4 106.81,173.139C106.487,173.224 106.154,173.458 105.814,173.85C104.776,175.044 104.167,176.456 103.993,178.085C100.857,179.014 98.05,178.007 95.576,175.064C96.396,173.782 97.005,172.73 97.4,171.907C97.764,171.148 97.995,170.09 98.094,168.733C99.54,170.662 101.18,172.077 103.014,172.979C103.15,173.047 103.31,172.962 103.327,172.812L103.619,170.519C104.742,171.019 107.362,171.094 107.559,169.311C107.617,168.784 107.314,168.392 106.65,168.141C105.922,167.862 105.273,167.59 104.698,167.321L105.606,166.402C105.732,166.276 105.909,166.212 106.089,166.229C107.1,166.334 107.596,166.535 107.902,165.31C108.277,163.82 108.28,161.758 109.046,160.523C109.621,159.595 110.161,158.863 110.665,158.329C110.747,158.24 110.893,158.308 110.879,158.428L110.856,158.625ZM110.988,164.415C110.995,164.405 110.995,164.395 110.985,164.388L110.226,163.881C110.104,163.803 110.148,163.612 110.294,163.595C111.148,163.483 111.91,163.653 112.58,164.113C112.713,164.204 112.893,164.126 112.921,163.97L112.927,163.925C112.961,163.738 112.87,163.548 112.699,163.459C111.778,162.963 110.856,162.861 109.93,163.15C109.733,163.211 109.651,163.449 109.774,163.616C110.076,164.031 110.417,164.337 110.791,164.538C110.835,164.562 110.89,164.548 110.92,164.507L110.988,164.415Z" style="fill:white;fill-opacity:0.75;fill-rule:nonzero;"/>
    <path d="M105.752,161.928C105.871,161.956 105.956,161.823 105.888,161.724C105.327,160.925 104.609,160.431 103.731,160.244C103.568,160.21 103.463,160.047 103.5,159.884L103.503,159.867C103.541,159.714 103.694,159.615 103.85,159.649C105.024,159.908 105.895,160.581 106.47,161.67C106.528,161.782 106.467,161.922 106.344,161.956C105.82,162.099 105.3,162.122 104.783,162.027C104.715,162.013 104.67,161.945 104.684,161.877L104.701,161.792C104.711,161.741 104.762,161.711 104.813,161.721L105.752,161.928Z" style="fill:white;fill-opacity:0.15;fill-rule:nonzero;"/>
    <path d="M110.791,164.538C110.417,164.337 110.076,164.031 109.774,163.616C109.651,163.449 109.733,163.211 109.93,163.15C110.856,162.861 111.778,162.963 112.699,163.459C112.87,163.548 112.961,163.738 112.927,163.925L112.921,163.97C112.893,164.126 112.713,164.204 112.58,164.113C111.91,163.653 111.148,163.483 110.294,163.595C110.148,163.612 110.104,163.803 110.226,163.881L110.985,164.388C110.995,164.395 110.995,164.405 110.988,164.415L110.92,164.507C110.89,164.548 110.835,164.562 110.791,164.538Z" style="fill:white;fill-opacity:0.15;fill-rule:nonzero;"/>
    <path d="M104.698,167.321C105.273,167.59 105.922,167.862 106.65,168.141C107.314,168.392 107.617,168.784 107.559,169.311C107.362,171.094 104.742,171.019 103.619,170.519C102.126,169.661 101.064,167.413 102.507,165.957C102.718,165.742 103.061,165.739 103.279,165.946L104.698,167.321Z" style="fill:white;fill-opacity:0.15;fill-rule:nonzero;"/>
    <path d="M131.571,227.733C132.658,228.622 141.913,236.954 143.844,238.694L143.73,238.717C141.928,239.081 139.723,239.368 137.303,239.565C136.621,239.62 135.921,239.669 135.209,239.709C133.279,239.819 131.256,239.874 129.22,239.866C126.015,237.241 121.912,233.879 119.81,232.159C119.306,231.747 118.681,231.407 117.935,231.138C107.891,227.522 99.629,224.614 93.157,222.402C91.773,221.928 90.306,221.221 88.765,220.279C83.961,217.34 82.403,212.855 82.73,207.361C83.223,199.053 83.782,190.645 84.264,182.134C84.272,182.001 84.21,181.872 84.101,181.79L81.723,180.031C79.858,178.459 78.066,176.718 76.347,174.802C77.303,175.088 78.191,175.149 79.011,174.982C81.257,174.53 82.543,171.972 82.832,169.862C82.948,169.008 83.039,168.131 83.104,167.226C83.346,167.311 83.907,167.409 84.785,167.522C85.925,167.668 87.183,168.144 88.554,168.947C91.245,170.523 93.586,172.564 95.576,175.064C98.05,178.007 100.857,179.014 103.993,178.085L107.436,179.215C107.542,179.249 107.654,179.242 107.753,179.191C110.263,177.886 112.444,177.088 115.241,177.156C114.877,179.201 115.091,181.12 115.881,182.92C116.666,184.709 118.259,185.556 120.657,185.465C116.877,188.605 112.721,190.761 108.205,191.997C107.997,192.054 107.838,192.221 107.794,192.429C106.5,198.498 105.36,203.958 102.993,209.198C102.941,209.313 102.986,209.45 103.099,209.511C110.174,213.352 117.337,217.513 124.566,222.038C125.512,222.63 126.349,223.228 127.08,223.831C128.043,224.623 128.827,225.292 129.431,225.848C129.803,226.191 130.009,226.383 130.05,226.427C130.235,226.62 130.745,227.053 131.571,227.733Z" style="fill:white;fill-opacity:0.95;"/>
    <path d="M194.681,176.371C194.518,176.561 194.304,176.701 194.042,176.789C193.317,177.031 192.558,177.299 191.766,177.599C193.116,174.302 194.236,171.005 195.124,167.709C195.141,167.641 195.239,167.651 195.246,167.719C195.277,168.069 195.28,168.43 195.253,168.801C195.059,171.322 194.868,173.846 194.681,176.371Z" style="fill:white;fill-opacity:0.1;fill-rule:nonzero;"/>
    <path d="M223.385,176.806C224.096,177.772 224.515,178.405 224.637,178.704C225.171,180.035 225.066,181.29 224.321,182.477C223.732,183.423 222.916,183.651 221.878,183.165C220.279,182.42 219.19,181.225 217.272,181.726C213.805,182.624 210.515,183.723 207.402,185.019C207.079,185.155 206.888,185.335 206.837,185.563C206.752,185.56 206.667,185.536 206.575,185.492C206.483,185.444 206.375,185.437 206.276,185.471C202.952,186.652 200.244,187.462 198.148,187.9C195.515,188.452 193.443,188.887 191.936,189.203C191.885,189.214 191.84,189.255 191.827,189.306C191.81,189.377 191.772,189.418 191.715,189.428C191.718,189.299 191.585,189.272 191.323,189.35C190.939,189.462 190.687,189.544 190.565,189.588C190.347,189.673 190.112,189.717 189.877,189.721L185.57,189.761C185.499,189.761 185.431,189.751 185.366,189.727L183.845,189.203C183.743,189.166 183.648,189.115 183.563,189.044C182.144,187.856 181.597,186.332 181.923,184.474C182.393,183.59 182.757,183.046 183.015,182.845C184.91,181.345 187.125,180.514 189.653,180.351C189.52,181.025 189.439,181.654 189.415,182.236C189.347,183.848 190.139,186.026 191.858,186.451C193.31,186.815 194.028,185.982 194.651,184.573C195.596,182.443 196.791,181.304 199.05,180.273C199.257,180.178 199.482,180.133 199.706,180.14C202.193,180.218 205.106,179.865 208.45,179.082C209.157,178.915 209.61,178.66 209.811,178.317L210.243,178.34C210.331,178.344 210.423,178.33 210.508,178.3C213.608,177.119 216.88,175.197 220.129,175.466C221.024,175.54 222.109,175.986 223.385,176.806Z" style="fill:white;fill-opacity:0.85;fill-rule:nonzero;"/>
    <path d="M209.811,178.317C209.61,178.66 209.157,178.915 208.45,179.082C205.106,179.865 202.193,180.218 199.706,180.14C199.482,180.133 199.257,180.178 199.05,180.273C196.791,181.304 195.596,182.443 194.651,184.573C194.028,185.982 193.31,186.815 191.858,186.451C190.139,186.026 189.347,183.848 189.415,182.236C189.439,181.654 189.52,181.025 189.653,180.351C190.075,179.572 190.435,179.038 190.735,178.749C191.16,178.337 191.504,177.953 191.766,177.599C192.558,177.299 193.317,177.031 194.042,176.789C194.304,176.701 194.518,176.561 194.681,176.371C194.821,176.462 194.964,176.479 195.113,176.428C196.811,175.85 198.526,175.622 200.254,175.741C201.207,175.806 202.809,176.19 205.058,176.901C206.613,177.391 208.198,177.864 209.811,178.317Z" style="fill:white;fill-opacity:0.75;fill-rule:nonzero;"/>
    <path d="M123.444,237.446C121.569,235.98 120.084,234.852 118.99,234.071C118.355,233.618 117.725,233.288 117.109,233.088C113.623,231.955 110.454,231.2 107.419,230.271C106.919,230.118 106.504,230.196 106.174,230.509C106.103,230.325 105.953,230.206 105.725,230.148C99.281,228.543 92.868,226.692 86.486,224.596C85.19,223.919 83.781,223.45 82.267,223.194C81.975,222.654 81.425,222.124 80.617,221.606C80.356,221.438 80.07,221.098 79.76,220.588C77.754,217.292 80.107,185.754 81.723,180.031L84.101,181.79C84.21,181.872 84.272,182.001 84.264,182.134C83.782,190.645 83.223,199.053 82.73,207.361C82.403,212.855 83.961,217.34 88.765,220.279C90.306,221.221 91.773,221.928 93.157,222.402C99.629,224.614 107.891,227.522 117.935,231.138C118.681,231.407 119.306,231.747 119.81,232.159C121.912,233.879 126.015,237.241 129.22,239.866L129.069,239.866C128.529,239.863 127.989,239.856 127.449,239.844C127.117,239.837 126.786,239.828 126.455,239.817C125.272,238.887 123.89,237.796 123.444,237.446Z" style="fill:white;fill-opacity:0.5;"/>
    <path d="M224.321,182.477C224.773,184.236 224.549,185.73 223.64,186.958C222.395,188.646 220.497,189.21 218.432,188.952C217.064,188.778 215.734,188.421 214.441,187.873L212.597,187.135C212.566,187.125 212.532,187.121 212.498,187.132C212.345,187.183 212.236,187.356 212.172,187.656C212.175,187.03 211.583,186.676 210.396,186.591C210.375,186.587 210.355,186.584 210.335,186.58L206.837,185.563C206.888,185.335 207.079,185.155 207.402,185.019C210.515,183.723 213.805,182.624 217.272,181.726C219.19,181.225 220.279,182.42 221.878,183.165C222.916,183.651 223.732,183.423 224.321,182.477Z" style="fill:white;fill-opacity:0.75;fill-rule:nonzero;"/>
    <path d="M206.837,185.563L210.335,186.58C210.355,186.584 210.375,186.587 210.396,186.591C211.583,186.676 212.175,187.03 212.172,187.656L211.661,189.272C211.644,189.323 211.638,189.377 211.641,189.431L214.785,278.061L213.771,278.599C212.189,279.187 210.546,279.276 208.844,278.857C208.283,278.639 207.664,278.388 206.987,278.098C206.286,277.799 206.055,276.795 206.062,275.999C206.092,272.948 205.966,269.872 205.687,266.776C205.81,263.711 205.378,260.07 205.384,257.648C205.391,255.712 205.337,254.215 205.221,253.164C204.973,250.908 205.167,248.537 204.963,246.207C204.704,243.247 204.884,240.086 204.568,237.15C204.343,235.075 204.514,232.772 204.343,230.638C204.081,227.352 204.241,224.215 203.935,221.347C203.711,219.265 203.888,216.741 203.697,214.767C203.558,213.301 203.489,211.654 203.486,209.834C203.486,208.109 203.357,205.568 203.095,202.21C203.088,202.118 202.959,202.104 202.935,202.193C202.717,202.948 202.428,203.438 202.22,204.142C201.101,207.898 197.981,218.224 192.854,235.122C192.429,236.528 192.051,238.123 191.796,239.43C189.302,252.164 186.788,264.854 184.257,277.503C183.362,278.19 182.604,278.51 181.978,278.459L177.296,277.785C177.194,277.772 177.089,277.809 177.021,277.891L176.779,278.167L175.585,276.915C175.503,276.829 175.463,276.71 175.476,276.588C177.487,260.451 179.072,247.503 180.239,237.745C180.61,234.65 181.028,232.043 181.495,229.924C181.937,227.913 182.478,225.324 183.117,222.164C183.311,221.208 183.832,219.772 184.056,218.503C185.121,212.539 186.4,206.534 187.894,200.495C188.316,198.791 188.901,196.933 189.65,194.916C190.33,193.085 191.017,191.255 191.715,189.428C191.772,189.418 191.81,189.377 191.827,189.306C191.84,189.255 191.885,189.214 191.936,189.203C193.443,188.887 195.515,188.452 198.148,187.9C200.244,187.462 202.952,186.652 206.276,185.471C206.375,185.437 206.483,185.444 206.575,185.492C206.667,185.536 206.752,185.56 206.837,185.563Z" style="fill:white;fill-opacity:0.95;fill-rule:nonzero;"/>
    <path d="M217.333,266.157L216.986,274.336C216.982,274.421 216.969,274.502 216.952,274.584C216.584,276.149 216.486,277.115 214.785,278.061L211.641,189.431C211.638,189.377 211.644,189.323 211.661,189.272L212.172,187.656C212.236,187.356 212.345,187.183 212.498,187.132C212.532,187.121 212.566,187.125 212.597,187.135L214.441,187.873C214.533,188.829 218.326,203.149 218.837,206.439C219.088,208.068 219.214,209.753 219.228,211.545C219.282,219.687 217.479,263.847 217.333,266.157Z" style="fill:white;fill-opacity:0.5;"/>
    <path d="M145.211,197.678C145.214,197.573 145.33,197.515 145.415,197.573C145.507,197.634 145.578,197.722 145.632,197.838C146.245,199.104 145.52,201.05 144.255,201.703C143.509,202.087 142.645,202.145 141.655,201.88C141.519,201.843 141.533,201.649 141.672,201.628C143.969,201.308 145.149,199.992 145.211,197.678Z" style="fill:white;fill-opacity:0.95;fill-rule:nonzero;"/>
    <path d="M205.687,266.776C202.554,267.586 199.455,268.851 196.393,270.57C192.446,272.784 189.061,274.758 186.241,276.489C185.924,276.683 185.598,276.864 185.261,277.023C184.88,277.204 184.546,277.364 184.257,277.503C186.788,264.854 189.302,252.164 191.796,239.43C192.051,238.123 192.429,236.528 192.854,235.122C197.981,218.224 201.101,207.898 202.22,204.142C202.428,203.438 202.717,202.948 202.935,202.193C202.959,202.104 203.088,202.118 203.095,202.21C203.357,205.568 203.486,208.109 203.486,209.834C203.489,211.654 203.558,213.301 203.697,214.767C203.888,216.741 203.711,219.265 203.935,221.347C204.241,224.215 204.081,227.352 204.343,230.638C204.514,232.772 204.343,235.075 204.568,237.15C204.884,240.086 204.704,243.247 204.963,246.207C205.167,248.537 204.973,250.908 205.221,253.164C205.337,254.215 205.391,255.712 205.384,257.648C205.378,260.07 205.81,263.711 205.687,266.776Z" style="fill:white;fill-opacity:0.1;fill-rule:nonzero;"/>
    <path d="M83.146,266.576C86.691,259.717 93.502,246.204 94.205,244.305C94.304,244.033 94.284,243.73 94.151,243.475L90.031,235.684C90.014,235.653 89.994,235.625 89.97,235.602C89.844,235.483 89.445,234.786 88.786,233.5C88.02,232.006 85.846,228.57 82.267,223.194C83.781,223.45 85.19,223.919 86.486,224.596C89.228,229.223 91.837,233.919 94.314,238.684C94.886,239.783 95.677,241.438 96.675,243.655C96.863,244.073 96.894,244.472 96.767,244.856C96.402,245.966 95.77,247.469 95.104,248.799C91.338,256.313 87.754,262.675 83.35,270.409C82.62,270.368 81.902,270.319 81.202,270.264C81.516,269.706 82.219,268.368 83.146,266.576Z" style="fill:white;fill-opacity:0.35;"/>
    <path d="M107.569,248.459C103.659,255.927 98.847,263.49 93.974,270.451L93.301,270.482C89.969,270.621 86.534,270.587 83.35,270.409C87.754,262.675 91.338,256.313 95.104,248.799C95.77,247.469 96.402,245.966 96.767,244.856C96.894,244.472 96.863,244.073 96.675,243.655C95.677,241.438 94.886,239.783 94.314,238.684C91.837,233.919 89.228,229.223 86.486,224.596C92.868,226.692 99.281,228.543 105.725,230.148C105.953,230.206 106.103,230.325 106.174,230.509C106.144,230.669 106.206,231.026 106.358,231.584C106.806,233.23 108.818,245.992 108.818,245.992C108.824,246.115 108.797,246.234 108.736,246.339C108.32,247.057 107.933,247.765 107.569,248.459Z" style="fill:white;fill-opacity:0.85;"/>
    <path d="M68.339,252.497C67.91,254.804 65.916,255.981 63.664,256.165C62.463,256.263 59.969,255.882 59.622,253.78C59.371,252.252 60.456,250.874 61.432,250.255C64.117,248.553 66.77,250.007 66.77,250.007C66.927,250.065 67.087,249.925 67.049,249.762C65.639,243.588 64.256,237.399 62.929,231.186C62.888,230.992 62.901,230.812 62.974,230.645C63.068,230.427 63.372,230.42 63.48,230.632C64.886,233.373 66.733,235.776 69.04,237.824C71.319,239.848 70.566,243.745 69.06,246.118C68.961,246.274 68.767,246.343 68.594,246.282L68.57,246.275C68.414,246.22 68.345,246.036 68.427,245.894C69.702,243.673 70.553,241.22 69.009,238.882C68.937,238.773 68.855,238.675 68.757,238.589C67.134,237.162 65.738,235.551 64.508,233.816C64.44,233.721 64.294,233.789 64.317,233.901L68.339,252.351C68.349,252.402 68.349,252.45 68.339,252.497ZM61.187,254.505C61.728,255.114 62.46,255.362 63.382,255.25C63.525,255.233 63.538,255.028 63.399,254.991C62.691,254.814 62.13,254.491 61.722,254.028C61.313,253.569 61.062,252.974 60.97,252.252C60.949,252.106 60.745,252.092 60.708,252.235C60.487,253.137 60.646,253.892 61.187,254.505Z" style="fill:white;fill-opacity:0.5;"/>
    <path d="M145.571,255.93C144.417,255.073 131.131,243.807 128.549,241.501L128.84,241.532C129.11,241.561 129.381,241.588 129.653,241.613C130.213,241.665 130.777,241.709 131.342,241.747L131.571,241.935L131.639,241.943L131.866,242.136C136.858,246.396 141.673,250.844 146.326,255.464C146.214,255.644 146.059,255.802 145.857,255.937C145.769,255.995 145.656,255.995 145.571,255.93Z" style="fill:white;fill-opacity:0.5;"/>
    <path d="M131.639,241.943C131.617,241.94 131.594,241.937 131.571,241.935C131.497,241.873 131.42,241.811 131.342,241.747C131.353,241.747 131.364,241.748 131.375,241.749C131.456,241.797 131.527,241.848 131.588,241.9C131.605,241.914 131.622,241.928 131.639,241.943Z" style="fill:white;fill-opacity:0.95;"/>
    <path d="M131.639,241.943L131.588,241.9C131.527,241.848 131.456,241.797 131.375,241.749L131.53,241.759C132.056,241.792 132.583,241.82 133.109,241.842C133.619,241.863 134.128,241.879 134.634,241.89C135.24,241.903 135.842,241.908 136.437,241.907C137.154,241.906 137.86,241.895 138.551,241.875C141.632,241.786 144.405,241.519 146.399,241.151L146.49,241.134L146.624,241.107C147.828,242.4 151.427,245.716 151.753,246.064C151.909,246.23 151.872,246.567 151.641,247.067C150.719,249.316 149.524,251.453 148.051,253.477L146.833,255.022L146.326,255.464C141.673,250.844 136.858,246.396 131.866,242.136L131.639,241.943Z" style="fill:white;fill-opacity:0.95;"/>
    <path d="M167.668,246.513C167.614,246.979 167.508,247.272 167.352,247.387C165.811,248.51 164.508,249.813 163.449,251.3C162.347,252.848 161.663,253.77 161.395,254.059C160.476,255.066 158.2,257.665 156.798,258.097C155.257,258.573 153.794,257.771 152.583,256.794C151.123,255.62 149.613,254.515 148.051,253.477C149.524,251.453 150.719,249.316 151.641,247.067L154.202,249.786C154.407,250.003 154.754,249.997 154.951,249.772C155.291,249.384 159.343,246.04 161.258,244.863C162.092,244.349 162.919,243.992 163.739,243.788C163.851,243.757 163.967,243.757 164.075,243.788C165.753,244.213 166.95,245.121 167.668,246.513Z" style="fill:white;fill-opacity:0.5;fill-rule:nonzero;"/>
    <path d="M167.668,246.513C167.651,247.877 167.222,249.064 166.382,250.082C162.5,254.773 159.799,258.053 158.278,259.924C157.781,260.533 157.19,261.02 156.506,261.384C156.393,261.442 156.264,261.455 156.145,261.421C155.393,261.21 154.56,260.788 153.641,260.156C151.123,258.424 148.854,256.713 146.833,255.022L148.051,253.477C149.613,254.515 151.123,255.62 152.583,256.794C153.794,257.771 155.257,258.573 156.798,258.097C158.2,257.665 160.476,255.066 161.395,254.059C161.663,253.77 162.347,252.848 163.449,251.3C164.508,249.813 165.811,248.51 167.352,247.387C167.508,247.272 167.614,246.979 167.668,246.513Z" style="fill:white;fill-opacity:0.35;fill-rule:nonzero;"/>
    <path d="M61.722,254.028C62.13,254.491 62.691,254.814 63.399,254.991C63.538,255.028 63.525,255.233 63.382,255.25C62.46,255.362 61.728,255.114 61.187,254.505C60.646,253.892 60.487,253.137 60.708,252.235C60.745,252.092 60.949,252.106 60.97,252.252C61.062,252.974 61.313,253.569 61.722,254.028Z" style="fill:white;fill-opacity:0.35;fill-rule:nonzero;"/>
    <path d="M75.319,264.207C75.121,264.249 74.918,264.298 74.713,264.356C64.711,267.157 71.14,269.462 81.202,270.264C81.902,270.319 82.62,270.368 83.35,270.409C86.534,270.587 89.969,270.621 93.301,270.482L93.974,270.451C94.35,270.433 94.724,270.412 95.097,270.389C96.756,270.287 97.786,270.677 95.505,271.342C94.748,271.515 93.96,271.669 93.151,271.804C92.343,271.938 91.512,272.055 90.668,272.154C88.979,272.352 87.235,272.482 85.503,272.552C84.354,272.599 83.21,272.62 82.091,272.618C81.356,272.617 80.632,272.606 79.923,272.586C76.716,272.495 73.835,272.22 71.783,271.841C66.366,270.838 62.251,265.063 72.539,263.873C72.896,263.832 73.29,263.786 73.698,263.74C75.567,263.532 77.708,263.334 77.699,263.652C77.692,263.935 76.608,263.933 75.319,264.207Z" style="fill:white;fill-opacity:0.95;"/>
    <path d="M126.455,239.817C126.786,239.828 127.117,239.837 127.449,239.844C127.989,239.856 128.529,239.863 129.069,239.866L129.22,239.866C131.256,239.874 133.279,239.819 135.209,239.709C135.921,239.669 136.621,239.62 137.303,239.565C139.723,239.368 141.928,239.081 143.73,238.717L143.844,238.694C149.259,237.581 150.931,235.772 143.633,233.687C143.433,233.63 143.235,233.582 143.041,233.54C141.784,233.267 140.728,233.268 140.72,232.988C140.712,232.671 142.8,232.868 144.623,233.075C145.02,233.12 145.405,233.166 145.753,233.207C155.703,234.381 151.841,240.04 146.624,241.107L146.49,241.134L146.399,241.151C144.405,241.519 141.632,241.786 138.551,241.875C137.86,241.895 137.154,241.906 136.437,241.907C135.842,241.908 135.24,241.903 134.634,241.89C134.128,241.879 133.619,241.863 133.109,241.842C132.583,241.82 132.056,241.792 131.53,241.759L131.375,241.749L131.342,241.747C130.777,241.709 130.213,241.665 129.653,241.613C129.381,241.588 129.11,241.561 128.84,241.532L128.549,241.501L128.071,241.445C127.248,241.347 126.438,241.231 125.649,241.097C124.86,240.963 124.093,240.81 123.354,240.637C121.129,239.976 122.133,239.588 123.752,239.69C124.115,239.713 124.48,239.733 124.847,239.751L125.504,239.782C125.82,239.795 126.137,239.807 126.455,239.817Z" style="fill:white;fill-opacity:0.75;"/>
    <path d="M90.668,272.154C91.512,272.055 92.343,271.938 93.151,271.804L86.928,280.96C86.826,281.113 86.619,281.15 86.465,281.045C86.37,280.98 86.19,280.99 85.928,281.072C85.054,280.946 84.179,280.636 83.298,280.147C82.335,279.609 81.301,278.956 80.199,278.19C79.954,278.064 79.668,277.813 79.341,277.432L82.091,272.618C83.21,272.62 84.354,272.599 85.503,272.552C87.235,272.482 88.979,272.352 90.668,272.154Z" style="fill:white;fill-opacity:0.85;"/>
    <path d="M79.341,277.432C79.202,277.435 79.086,277.394 78.991,277.313L78.123,276.34C78.045,276.251 78.028,276.125 78.083,276.023L79.923,272.586C80.632,272.606 81.356,272.617 82.091,272.618L79.341,277.432Z" style="fill:white;fill-opacity:0.35;"/>
    <path d="M79.341,277.432C79.668,277.813 79.954,278.064 80.199,278.19C79.202,279.84 78.321,281.528 77.562,283.253C77.031,284.454 77.093,285.638 77.749,286.811C78.821,288.74 80.175,290.363 81.811,291.68C84.584,293.912 87.49,294.674 90.528,293.97C90.113,294.391 89.534,294.664 88.789,294.783C88.126,294.892 86.935,294.909 85.217,294.83C85.06,294.82 84.907,294.789 84.761,294.732C82.485,293.837 80.518,292.585 78.868,290.976C78.086,290.214 77.368,289.138 76.514,288.227C76.034,287.716 75.63,286.985 75.293,286.029C75.238,285.872 75.235,285.706 75.283,285.549C75.585,284.556 75.977,283.644 76.453,282.81C76.518,282.695 76.552,282.549 76.552,282.372C76.548,282.27 76.572,282.171 76.616,282.082L78.991,277.313C79.086,277.394 79.202,277.435 79.341,277.432Z" style="fill:white;fill-opacity:0.35;fill-rule:nonzero;"/>
    <path d="M181.978,278.459C181.641,280.395 181.478,281.79 181.481,282.644C181.484,283.392 181.726,284.025 182.209,284.546C181.348,284.927 180.508,285.236 179.691,285.478C178.661,285.784 177.82,286.073 177.17,286.342C175.483,287.039 174.068,287.478 172.928,287.652C171.754,287.832 170.642,287.417 169.597,286.407C171.39,285.743 173.285,284.818 175.279,283.634C175.956,283.232 176.732,282.896 176.619,281.909C176.793,280.296 176.902,279.123 176.939,278.391C176.942,278.303 176.891,278.228 176.779,278.167L177.021,277.891C177.089,277.809 177.194,277.772 177.296,277.785L181.978,278.459Z" style="fill:white;fill-opacity:0.75;fill-rule:nonzero;"/>
    <path d="M85.928,281.072C85.479,281.64 85.139,282.416 84.911,283.406C84.843,283.695 84.883,283.998 85.023,284.26C85.319,284.808 85.663,285.328 86.05,285.825C87.224,287.325 88.364,288.795 89.47,290.234C90.358,291.394 90.98,292.439 90.528,293.97C87.49,294.674 84.584,293.912 81.811,291.68C80.175,290.363 78.821,288.74 77.749,286.811C77.093,285.638 77.031,284.454 77.562,283.253C78.321,281.528 79.202,279.84 80.199,278.19C81.301,278.956 82.335,279.609 83.298,280.147C84.179,280.636 85.054,280.946 85.928,281.072Z" style="fill:white;fill-opacity:0.5;fill-rule:nonzero;"/>
    <path d="M213.771,278.599L213.795,283.525C213.795,283.63 213.825,283.736 213.886,283.824C214.101,284.134 214.356,284.403 214.655,284.624C216.401,285.934 218.248,287.087 220.191,288.084C219.81,288.533 219.425,288.832 219.037,288.979C217.847,289.438 216.544,289.084 215.268,288.512C212.856,287.427 210.45,286.335 208.048,285.233C208.685,284.461 208.984,283.654 208.953,282.814C208.906,281.569 208.868,280.249 208.844,278.857C210.546,279.276 212.189,279.187 213.771,278.599Z" style="fill:white;fill-opacity:0.75;fill-rule:nonzero;"/>
    <path d="M182.209,284.546C182.695,285.978 182.808,287.502 182.546,289.118C182.529,289.227 182.471,289.326 182.386,289.397C181.937,289.768 181.42,289.958 180.831,289.965C177.453,289.996 167.689,290.414 167.185,290.356C167.09,290.346 167.008,290.292 166.957,290.21L166.372,289.196C166.287,289.047 166.28,288.866 166.355,288.71L166.828,287.713C166.875,287.618 166.954,287.539 167.049,287.499L169.597,286.407C170.642,287.417 171.754,287.832 172.928,287.652C174.068,287.478 175.483,287.039 177.17,286.342C177.82,286.073 178.661,285.784 179.691,285.478C180.508,285.236 181.348,284.927 182.209,284.546Z" style="fill:white;fill-opacity:0.95;fill-rule:nonzero;"/>
    <path d="M208.048,285.233C210.45,286.335 212.856,287.427 215.268,288.512C216.544,289.084 217.847,289.438 219.037,288.979C219.425,288.832 219.81,288.533 220.191,288.084C221.147,288.472 221.963,288.887 222.647,289.329C223.11,289.628 223.399,290.251 223.409,290.972C223.413,291.187 223.178,291.571 222.708,292.126C222.559,292.306 222.32,292.391 222.089,292.347C222.089,292.347 215.516,291.466 214.424,291.329C212.461,291.088 210.461,290.85 208.429,290.622C208.079,290.584 207.752,290.38 207.453,290.016C207.382,289.931 207.341,289.829 207.331,289.72C207.157,287.904 207.399,286.407 208.048,285.233Z" style="fill:white;fill-opacity:0.95;fill-rule:nonzero;"/>
    <path d="M147.789,198.75C149.12,202.147 141.405,206.524 137.181,201.533C135.516,199.566 136.124,197.85 137.76,196.304C141.03,193.212 145.85,195.872 146.65,196.552C146.731,196.624 146.861,196.6 146.915,196.505C147.408,195.644 148.286,187.451 149.637,176.673C149.661,176.483 149.841,176.357 150.028,176.398L150.208,176.435C150.395,176.476 150.511,176.663 150.47,176.85C150.47,176.85 147.589,198.238 147.789,198.75ZM145.211,197.678C145.149,199.992 143.969,201.308 141.672,201.628C141.533,201.649 141.519,201.843 141.655,201.88C142.645,202.145 143.509,202.087 144.255,201.703C145.52,201.05 146.245,199.104 145.632,197.838C145.578,197.722 145.507,197.634 145.415,197.573C145.33,197.515 145.214,197.573 145.211,197.678Z" style="fill:white;fill-opacity:0.95;fill-rule:nonzero;"/>
</svg>
