<?xml version="1.0" encoding="UTF-8" standalone="no"?>
<!DOCTYPE svg PUBLIC "-//W3C//DTD SVG 1.1//EN" "http://www.w3.org/Graphics/SVG/1.1/DTD/svg11.dtd">
<svg width="100%" height="100%" viewBox="0 0 300 300" version="1.1" xmlns="http://www.w3.org/2000/svg" xmlns:xlink="http://www.w3.org/1999/xlink" xml:space="preserve" xmlns:serif="http://www.serif.com/" style="fill-rule:evenodd;clip-rule:evenodd;stroke-linejoin:round;stroke-miterlimit:2;">
    <path d="M209.608,173.396C207.765,176.355 205.926,179.318 204.087,182.285C202,185.654 200.289,188.689 198.956,191.383C197.218,194.908 195.576,198.502 194.034,202.159C193.392,202.035 192.934,202.063 192.665,202.235C181.226,209.555 168.832,213.835 155.483,215.079C151.962,215.408 148.87,215.473 146.208,215.268C146.06,215.256 145.967,215.107 146.02,214.971C147.541,211.036 149.521,205.034 150.504,201.525C152.323,195.049 153.03,188.396 152.616,181.559C156.695,180.354 160.642,178.519 164.452,176.058C167.218,174.268 169.732,172.039 171.992,169.373C172.498,168.775 172.137,167.679 171.189,167.8C170.956,167.828 170.615,168.004 170.161,168.329C164.444,172.397 158.843,175.653 152.263,177.933L152.588,176.355C152.608,176.247 152.616,176.142 152.612,176.034C152.355,172.28 151.777,168.59 150.882,164.965C150.685,164.166 150.215,162.925 149.477,161.243C146.501,154.478 137.97,160.031 135.621,152.202C135.055,150.315 134.87,148.062 135.063,145.448C135.549,138.852 136.203,133.275 137.191,125.426C137.476,123.178 137.552,121.287 137.665,118.906C137.877,114.421 137.532,109.768 136.625,104.946C135.039,96.507 131.55,89.063 126.166,82.619C131.028,80.905 135.336,79.199 139.098,77.508C143.904,75.348 148.36,73.479 152.464,71.907C156.377,70.408 160.068,69.349 163.529,68.731C169.932,67.589 176.276,68.042 182.555,70.081C184.326,70.655 185.707,71.266 186.699,71.911C187.854,72.663 188.995,73.65 190.119,74.866C193.632,78.665 196.221,82.544 198.828,87.044C203.35,94.85 207.271,103.001 210.571,111.502C211.315,113.417 212.7,114.593 214.695,115.128C214.723,115.135 214.755,115.14 214.787,115.14L217.686,115.1C217.891,115.096 218.096,115.127 218.288,115.188C219.023,115.419 219.488,115.606 219.689,115.742C221.136,116.721 222.283,118.079 223.122,119.825C225.134,124.013 225.559,128.923 225.262,133.761C224.973,138.475 223.495,142.096 220.235,145.312C218.689,146.837 217.416,148.102 216.417,149.106C215.786,149.74 215.663,150.479 215.727,151.451C216.025,155.984 215.405,160.215 213.876,164.146C213.029,166.318 211.945,168.639 210.624,171.116C210.539,171.268 209.532,173.007 209.608,173.396ZM164.902,98.064C160.975,97.249 156.442,96.768 152.536,97.836C151.034,98.249 150.075,99.301 150.561,100.887C151.343,103.42 160.911,105.183 163.32,105.685C165.725,106.183 175.204,108.379 176.93,106.367C178.011,105.107 177.545,103.762 176.336,102.786C173.177,100.245 168.828,98.879 164.902,98.064ZM157.282,113.866C155.547,114.156 154.672,117.581 155.33,121.512C155.989,125.442 157.928,128.397 159.665,128.105C161.401,127.815 162.276,124.39 161.618,120.459C160.959,116.529 159.02,113.574 157.282,113.866Z" style="fill:white;"/>
    <path d="M126.166,82.619C131.55,89.063 135.039,96.507 136.625,104.946C137.532,109.768 137.877,114.421 137.665,118.906C137.552,121.287 137.476,123.178 137.191,125.426C136.203,133.275 135.549,138.852 135.063,145.448C134.87,148.062 135.055,150.315 135.621,152.202C137.97,160.031 146.501,154.478 149.477,161.243C150.215,162.925 150.685,164.166 150.882,164.965C151.777,168.59 152.355,172.28 152.612,176.034C152.616,176.142 152.608,176.247 152.588,176.355L152.263,177.933C149.81,178.8 147.252,179.511 144.594,180.065C142.575,180.487 140.339,180.892 137.885,181.282C137.416,181.358 136.878,181.623 136.817,182.093C136.753,182.615 137.086,183.092 137.58,183.181C142.27,184.012 147.939,182.96 152.616,181.559C153.03,188.396 152.323,195.049 150.504,201.525C149.521,205.034 147.541,211.036 146.02,214.971C145.967,215.107 146.06,215.256 146.208,215.268C148.87,215.473 151.962,215.408 155.483,215.079C168.832,213.835 181.226,209.555 192.665,202.235C192.934,202.063 193.392,202.035 194.034,202.159C192.854,205.427 192.135,207.499 191.874,208.378C191.019,211.233 190.32,213.967 189.77,216.585C189.341,217.014 188.951,217.456 188.594,217.91C188.096,218.544 187.715,218.994 187.45,219.263C178.617,228.224 168.399,235.254 156.796,240.349C145.992,245.091 134.698,248.09 122.91,249.342C122.721,249.362 122.589,249.166 122.677,248.997L124.945,244.721C125.708,242.051 126.278,238.884 126.66,235.226C127.39,228.236 127.832,221.623 125.845,215.015C124.99,212.168 123.472,210.623 120.87,208.655C115.518,204.612 111.443,201.38 108.645,198.963C98.808,190.468 92.023,179.68 88.534,167.298C86.442,159.886 85.081,151.519 83.853,143.674C83.25,139.828 82.945,135.383 82.552,131.232C82.54,129.092 82.516,126.956 82.48,124.816C82.427,121.712 82.448,119.572 82.54,118.4C82.849,114.453 83.451,110.438 84.347,106.355C85.186,102.529 86.402,97.43 87.992,91.05C88.751,88.011 89.638,84.988 90.658,81.977C91.216,80.327 92.348,79.351 94.055,79.05C94.918,78.893 95.661,78.99 96.283,79.339C98.535,80.604 101.563,82.238 104.188,83.097C108.569,84.53 113.121,84.992 117.851,84.478C120.525,84.189 123.295,83.571 126.166,82.619ZM112.559,104.247C108.697,105.319 104.449,106.97 101.466,109.712C100.322,110.768 99.949,112.141 101.109,113.325C102.968,115.22 112.278,112.402 114.647,111.743C117.016,111.085 126.443,108.692 127.057,106.11C127.439,104.492 126.411,103.513 124.885,103.2C120.914,102.389 116.422,103.171 112.559,104.247ZM123.515,117.662C121.778,117.954 120.91,121.375 121.573,125.299C122.235,129.224 124.183,132.167 125.918,131.873C127.655,131.581 128.523,128.16 127.86,124.236C127.198,120.311 125.251,117.368 123.515,117.662Z" style="fill:white;fill-opacity:0.75;fill-rule:nonzero;"/>
    <path d="M164.902,98.064C168.828,98.879 173.177,100.245 176.336,102.786C177.545,103.762 178.011,105.107 176.93,106.367C175.204,108.379 165.725,106.183 163.32,105.685C160.911,105.183 151.343,103.42 150.561,100.887C150.075,99.301 151.034,98.249 152.536,97.836C156.442,96.768 160.975,97.249 164.902,98.064Z" style="fill:white;fill-opacity:0.15;fill-rule:nonzero;"/>
    <path d="M114.647,111.743C112.278,112.402 102.968,115.22 101.109,113.325C99.949,112.141 100.322,110.768 101.466,109.712C104.449,106.97 108.697,105.319 112.559,104.247C116.422,103.171 120.914,102.389 124.885,103.2C126.411,103.513 127.439,104.492 127.057,106.11C126.443,108.692 117.016,111.085 114.647,111.743Z" style="fill:white;fill-opacity:0.15;fill-rule:nonzero;"/>
    <path d="M157.282,113.866C159.02,113.574 160.959,116.529 161.618,120.459C162.276,124.39 161.401,127.815 159.665,128.105C157.928,128.397 155.989,125.442 155.33,121.512C154.672,117.581 155.547,114.156 157.282,113.866Z" style="fill:white;fill-opacity:0.15;fill-rule:nonzero;"/>
    <path d="M123.515,117.662C125.251,117.368 127.198,120.311 127.86,124.236C128.523,128.16 127.655,131.581 125.918,131.873C124.183,132.167 122.235,129.224 121.573,125.299C120.91,121.375 121.778,117.954 123.515,117.662Z" style="fill:white;fill-opacity:0.15;fill-rule:nonzero;"/>
    <path d="M152.616,181.559C147.939,182.96 142.27,184.012 137.58,183.181C137.086,183.092 136.753,182.615 136.817,182.093C136.878,181.623 137.416,181.358 137.885,181.282C140.339,180.892 142.575,180.487 144.594,180.065C147.252,179.511 149.81,178.8 152.263,177.933C158.843,175.653 164.444,172.397 170.161,168.329C170.615,168.004 170.956,167.828 171.189,167.8C172.137,167.679 172.498,168.775 171.992,169.373C169.732,172.039 167.218,174.268 164.452,176.058C160.642,178.519 156.695,180.354 152.616,181.559Z" style="fill:white;fill-opacity:0.15;fill-rule:nonzero;"/>
    <path d="M189.77,216.585C189.084,220.74 188.77,223.498 188.839,224.859C188.875,225.562 189.2,226.967 189.814,229.075C192.761,239.221 202.823,242.461 211.957,244.504C217.67,245.785 226.651,247.484 234.055,249.816C238.836,251.322 243.462,253.418 247.926,256.104C250.102,257.412 251.889,259.171 253.286,261.379C257.048,267.325 253.334,273.255 248.565,277.013C245.136,279.715 241.085,282.056 236.411,284.035C230.032,286.737 223.263,288.966 216.104,290.712C203.718,293.731 191.693,295.626 179.179,297.032C165.219,298.597 151.103,299.553 136.826,299.902C124.721,300.199 112.672,299.834 101.322,298.605C92.918,297.694 84.114,296.128 76.353,293.189C72.876,291.872 69.279,289.957 66.524,287.111C65.4,285.95 64.517,284.449 63.871,282.606C58.86,268.269 70.632,257.075 83.909,254.582C87.964,253.819 93.067,253.622 97.503,252.791C106.842,251.037 115.988,248.347 124.945,244.721L122.677,248.997C122.589,249.166 122.721,249.362 122.91,249.342C134.698,248.09 145.992,245.091 156.796,240.349C168.399,235.254 178.617,228.224 187.45,219.263C187.715,218.994 188.096,218.544 188.594,217.91C188.951,217.456 189.341,217.014 189.77,216.585Z" style="fill:white;fill-opacity:0.95;fill-rule:nonzero;"/>
    <path d="M209.608,173.396C209.532,173.007 210.539,171.268 210.624,171.116C211.945,168.639 213.029,166.318 213.876,164.146C215.405,160.215 216.024,155.984 215.727,151.451C215.662,150.479 215.787,149.74 216.417,149.106C217.417,148.102 218.69,146.838 220.235,145.312C223.495,142.096 224.973,138.475 225.262,133.761C225.559,128.923 225.134,124.013 223.122,119.825C222.283,118.079 221.139,116.718 219.689,115.742C219.489,115.606 219.023,115.421 218.288,115.188C218.095,115.128 217.891,115.096 217.686,115.1L214.787,115.14C214.755,115.14 214.723,115.136 214.695,115.128C212.691,114.626 211.314,113.417 210.571,111.502C207.267,103.003 203.353,94.849 198.828,87.044C196.222,82.543 193.633,78.664 190.119,74.866C188.995,73.65 187.855,72.662 186.699,71.911C185.707,71.265 184.326,70.655 182.555,70.081C176.276,68.041 169.932,67.591 163.529,68.731C160.068,69.35 156.378,70.41 152.464,71.907C148.36,73.481 143.904,75.348 139.098,77.508C135.336,79.198 131.028,80.905 126.166,82.619C123.295,83.571 120.525,84.189 117.851,84.478C113.121,84.992 108.569,84.53 104.188,83.097C101.563,82.238 98.535,80.604 96.283,79.339C95.661,78.99 94.918,78.893 94.055,79.05C92.348,79.351 91.216,80.327 90.658,81.977C89.638,84.988 88.751,88.011 87.992,91.05C86.402,97.43 85.186,102.529 84.347,106.355C83.451,110.438 82.849,114.453 82.54,118.4C82.448,119.572 82.427,121.712 82.48,124.816C82.516,126.956 82.54,129.092 82.552,131.232C81.42,131.059 80.227,130.766 79.163,130.766C78.144,130.766 77.264,130.758 76.526,130.746C71.547,130.65 66.689,129.345 61.963,127.132C45.269,119.303 40.853,99.638 49.473,84.101C51.918,79.696 55.126,75.758 59.354,72.951C60,72.522 60.643,72.204 61.281,71.996C61.397,71.959 61.433,71.815 61.353,71.723C57.981,68.001 56.531,63.693 57.005,58.799C57.234,56.45 58.073,53.724 59.526,50.628C63.585,41.972 70.873,34.569 78.565,28.807C88.201,21.584 98.824,16.586 110.439,13.811C116.928,12.258 123.444,11.864 129.992,12.623C131.871,12.844 133.686,13.269 135.436,13.904C135.693,13.996 135.938,13.739 135.834,13.486C135.689,13.141 135.601,12.824 135.569,12.531C135.059,8.09 136.773,4.754 140.708,2.522C144.614,0.301 149.312,-0.201 153.789,0.064C156.406,0.221 159.783,0.663 162.822,1.373C176.565,4.589 188.935,11.692 199.635,20.753C202.987,23.592 206.601,26.744 210.05,30.69C212.005,32.926 213.406,34.573 214.253,35.637C224.399,48.36 230.59,63.143 231.168,79.499C231.18,79.901 231.353,80.286 231.65,80.559C233.115,81.929 234.5,83.45 235.809,85.124C240.756,91.472 243.927,95.603 246.726,101.445C248.677,105.516 249.239,109.856 248.408,114.461C248.107,116.111 247.641,117.549 247.007,118.773C244.132,124.302 241.551,130.826 238.455,136.27C236.436,139.824 234.601,142.754 232.951,145.063C226.029,154.755 218.489,163.692 210.688,172.589C210.25,173.091 209.889,173.36 209.608,173.396Z" style="fill:rgb(211,196,167);"/>
</svg>
