<?xml version="1.0" encoding="UTF-8" standalone="no"?>
<!DOCTYPE svg PUBLIC "-//W3C//DTD SVG 1.1//EN" "http://www.w3.org/Graphics/SVG/1.1/DTD/svg11.dtd">
<svg width="100%" height="100%" viewBox="0 0 300 300" version="1.1" xmlns="http://www.w3.org/2000/svg" xmlns:xlink="http://www.w3.org/1999/xlink" xml:space="preserve" xmlns:serif="http://www.serif.com/" style="fill-rule:evenodd;clip-rule:evenodd;stroke-linejoin:round;stroke-miterlimit:2;">
    <path d="M32.552,116.221C30.574,117.366 28.005,117.764 25.117,115.53C23.493,114.273 23.837,112.773 23.631,110.634C23.596,110.291 23.277,110.047 22.937,110.109C22.504,110.184 22.048,110.699 21.56,110.854C20.455,111.197 19.61,111.403 19.026,111.475C17.663,111.643 16.362,111.31 15.126,110.476C13.635,109.47 13.017,108.021 13.268,106.129C13.306,105.834 13.007,105.611 12.736,105.727C11.963,106.057 11.311,106.273 10.775,106.38C8.78,106.771 6.538,105.779 5.017,104.45C2.84,102.548 1.487,100.247 0.958,97.548C0.869,97.092 0.872,96.278 0.972,95.104C0.982,94.99 1.01,94.884 1.051,94.777C1.594,93.421 2.349,92.367 3.314,91.618C3.472,91.495 3.382,91.241 3.183,91.244C2.071,91.258 1.226,90.932 0.8,89.795C0.258,88.346 -0.01,87.275 0,86.578C0.017,85.297 0.1,83.196 0.138,82.564C0.251,80.751 1.03,78.752 1.909,77.513C2.994,75.985 4.529,75.226 6.517,75.236C6.627,75.236 6.679,75.103 6.6,75.027C5.048,73.55 4.327,72.301 3.135,69.931C2.771,69.207 2.17,67.892 1.329,65.99C1.027,65.306 0.611,61.694 0.601,61.371C0.553,59.641 1.271,58.02 2.194,56.715C2.679,56.025 3.458,55.38 4.533,54.775C6.315,53.773 8.052,53.206 9.745,53.076C10.092,53.048 11.235,53.096 13.175,53.223C13.574,53.247 13.968,53.33 14.346,53.46L17.495,54.552C17.824,54.665 18.151,54.377 18.075,54.037C18.075,54.037 16.814,50.139 18.494,45.161C19.981,40.755 23.425,37.968 28.033,37.762C31.367,37.61 34.512,38.335 37.475,39.932C37.949,40.189 38.498,40.189 39.123,39.935C39.281,39.873 39.419,39.767 39.518,39.633C40.593,38.187 41.228,37.353 41.431,37.137C43.906,34.476 46.966,33.325 50.612,33.679C52.817,33.895 55.172,35.008 56.577,36.886C57.366,37.94 58.273,38.826 59.554,39.259C59.622,39.283 59.694,39.293 59.766,39.296L61.978,39.344C62.153,39.348 62.325,39.331 62.493,39.293C65.483,38.637 67.633,38.15 70.438,38.472C70.6,38.489 70.754,38.541 70.898,38.623C71.959,39.235 72.756,40.079 73.281,41.161C73.865,42.359 74.195,43.894 74.95,45.058C75.922,46.552 77.268,47.582 78.988,48.148C80.008,48.481 84.266,48.32 84.42,48.279C86.391,47.753 88.204,47.05 89.859,46.167C90.038,46.074 90.542,46.04 91.37,46.071C92.008,46.092 92.877,46.037 93.485,46.524C94.323,47.194 94.852,47.757 95.229,48.852C96.376,52.193 95.775,55.112 93.43,57.608C92.369,58.731 90.659,59.445 89.2,60.176C88.523,60.516 87.73,61.272 86.82,62.443C86.721,62.57 86.655,62.724 86.635,62.886C86.491,63.96 86.546,64.678 86.37,65.502C85.945,67.511 84.719,68.894 82.693,69.657C82.257,69.825 80.568,70.302 77.632,71.095C77.233,71.205 77.093,71.394 77.209,71.659C75.111,72.479 72.983,72.349 70.826,71.267C68.382,70.041 66.002,68.696 63.688,67.229C62.767,66.646 61.703,66.251 60.494,66.048C55.464,64.383 48.695,66.01 48.356,72.318C48.277,73.794 48.346,75.745 48.556,78.169C48.854,81.613 48.152,84.724 44.768,86.286C42.422,87.369 39.971,87.891 37.482,88.487C35.112,89.055 32.771,90.619 31.916,93.019C30.773,96.227 33.173,99.942 35.676,102.033C36.823,102.991 39,103.701 38.938,105.556C38.86,107.873 38.097,110.057 36.655,112.104C36.652,112.104 36.646,112.111 36.637,112.123C36.505,112.307 35.665,113.66 34.301,114.915C34.195,115.013 34.086,115.11 33.973,115.205C33.543,115.573 33.068,115.922 32.552,116.221Z" style="fill:white;fill-opacity:0.35;"/>
    <path d="M203.262,49.711C206.098,46.802 209.281,44.629 212.811,43.19C215.191,42.218 217.632,41.477 220.139,40.962C222.446,40.491 224.984,40.254 227.751,40.254C230.58,40.258 233.382,40.409 236.157,40.714C236.843,40.79 238.838,41.171 242.145,41.861C244.109,42.27 245.905,42.864 247.326,43.355C248.587,43.788 250.266,44.804 251.557,45.824C254.304,47.994 256.529,50.772 258.235,54.154C259.736,57.124 260.807,59.912 261.449,62.518C261.847,64.125 262.59,66.578 262.723,68.661C263.826,85.987 258.589,97.088 258.568,96.954C258.338,95.347 258.025,94.098 257.627,93.201C256.548,90.768 255.104,88.363 253.294,85.987C251.973,84.253 250.9,82.801 250.077,81.63C248.046,78.743 245.868,76.032 243.532,73.496C241.919,71.744 239.645,69.712 238.251,68.51C237.375,67.755 235.748,66.607 233.365,65.069C231.508,63.871 227.266,61.297 220.643,57.347C218.277,55.936 216.122,54.83 213.824,53.495C212.382,52.656 210.892,51.972 209.354,51.441C207.407,50.77 205.377,50.195 203.262,49.711Z" style="fill:white;fill-opacity:0.5;"/>
    <path d="M194.002,62.116C186.295,60.55 195.35,47.331 203.262,49.711C205.377,50.195 207.407,50.77 209.354,51.441C210.892,51.972 212.382,52.656 213.824,53.495C216.122,54.83 218.277,55.936 220.643,57.347C227.266,61.297 231.508,63.871 233.365,65.069C235.748,66.607 237.375,67.755 238.251,68.51C239.645,69.712 241.919,71.744 243.532,73.496C245.868,76.032 248.046,78.743 250.077,81.63C250.9,82.801 251.973,84.253 253.294,85.987C255.104,88.363 256.548,90.768 257.627,93.201C258.025,94.098 258.338,95.347 258.568,96.954C258.589,97.088 258.489,99.234 258.259,100.199C258.087,100.917 257.851,101.439 257.548,101.772C257.167,102.194 256.707,102.555 256.161,102.857C254.599,103.725 252.7,104.429 250.461,104.968C249.62,105.171 247.247,105.501 246.489,104.841C246.382,104.749 246.279,104.725 246.18,104.773C246.094,104.817 246.018,104.893 245.953,105.003C244.233,103.461 243.453,102.204 242.042,100.041C240.772,98.094 239.794,95.992 238.924,94.101C238.091,92.288 237.059,90.688 235.875,89.235C235.758,89.092 235.724,88.899 235.782,88.724C236.284,87.22 236.55,85.572 236.579,83.783C236.615,81.551 236.513,79.68 235.326,78.083C234.522,77.002 233.849,76.27 233.307,75.896C231.208,74.447 229.078,74.322 226.92,75.532C226.047,76.021 225.583,76.596 225.093,77.396C224.988,77.569 224.756,77.613 224.596,77.492C222.245,75.725 219.813,74.065 217.268,72.551C215.912,71.744 214.431,71.055 213.244,70.398C212.265,69.857 211.246,69.337 210.188,68.843C205.656,66.724 200.993,64.757 196.203,62.937C195.561,62.556 194.829,62.285 194.002,62.116Z" style="fill:white;fill-opacity:0.25;"/>
    <path d="M206.823,125.09C205.35,125.09 204.062,124.877 202.967,124.454C201.068,123.723 199.451,122.514 198.112,120.828C197.058,119.503 196.306,118.397 195.856,117.508C194.448,114.717 193.315,111.946 192.426,108.694C191.698,106.04 191.104,103.416 190.647,100.821C190.238,98.496 189.847,96.824 189.627,94.709C189.308,91.636 188.971,89.853 189.037,87.635C189.061,86.877 189.068,86.152 189.064,85.462C189.054,84.02 189.092,82.399 189.177,80.596C191.269,79.676 193.26,78.523 195.145,77.135C196.069,76.455 196.83,75.725 195.756,74.752C195.454,74.478 195.042,74.369 194.517,74.426C192.797,74.613 191.217,75.078 189.778,75.837C190.146,73.818 190.479,72.218 190.774,71.034C191.499,68.108 192.573,65.135 194.002,62.116C194.829,62.285 195.561,62.556 196.203,62.937C196.446,63.421 197.016,63.756 197.913,63.943C198.458,64.057 198.699,64.338 198.637,64.784C198.339,66.941 198.376,68.877 198.75,70.598C199.132,72.352 199.328,74.076 199.241,75.422C198.821,81.939 195.915,89.095 197.343,95.835C197.535,96.741 198.039,97.022 198.963,96.803C200.58,96.42 202.535,95.999 203.362,97.936C204.314,100.168 205.024,102.438 205.494,104.742C203.839,105.329 197.614,107.296 199.303,109.933C200.062,111.118 202.27,111.261 203.485,111.125C204.392,111.024 205.46,110.778 206.689,110.39C207.142,113.539 207.178,116.704 206.802,119.881C206.706,120.698 206.713,122.435 206.823,125.09ZM193.44,84.076C192.762,84.057 192.178,85.324 192.141,86.901C192.103,88.48 192.621,89.771 193.3,89.787C193.978,89.805 194.561,88.538 194.599,86.961C194.637,85.383 194.118,84.092 193.44,84.076Z" style="fill:white;fill-opacity:0.7;"/>
    <path d="M212.454,123.799C210.617,124.571 208.742,125.004 206.823,125.09C206.713,122.435 206.706,120.698 206.802,119.881C207.178,116.704 207.142,113.539 206.689,110.39C208.56,109.827 210.239,108.896 211.719,107.602C212.265,107.125 212.694,106.403 213.031,105.449C213.068,105.346 213.083,105.233 213.076,105.123C213.01,104.076 212.447,103.492 211.386,103.365C210.703,103.283 209.735,103.421 208.481,103.777C207.318,104.108 206.322,104.429 205.494,104.742C205.024,102.438 204.314,100.168 203.362,97.936C202.535,95.999 200.58,96.42 198.963,96.803C198.039,97.022 197.535,96.741 197.343,95.835C195.915,89.095 198.821,81.939 199.241,75.422C199.328,74.076 199.132,72.352 198.75,70.598C198.376,68.877 198.339,66.941 198.637,64.784C198.699,64.338 198.458,64.057 197.913,63.943C197.016,63.756 196.446,63.421 196.203,62.937C200.993,64.757 205.656,66.724 210.188,68.843C211.246,69.337 212.265,69.857 213.244,70.398C214.431,71.055 215.912,71.744 217.268,72.551C219.813,74.065 222.245,75.725 224.596,77.492C224.756,77.613 224.988,77.569 225.093,77.396C225.583,76.596 226.047,76.021 226.92,75.532C229.078,74.322 231.208,74.447 233.307,75.896C233.849,76.27 234.522,77.002 235.326,78.083C236.513,79.68 236.615,81.551 236.579,83.783C236.55,85.572 236.284,87.22 235.782,88.724C235.724,88.899 235.758,89.092 235.875,89.235C237.059,90.688 238.091,92.288 238.924,94.101C239.794,95.992 240.772,98.094 242.042,100.041C243.453,102.204 244.233,103.461 245.953,105.003C245.974,105.15 245.881,105.346 245.671,105.586C244.586,106.847 243.714,107.805 243.058,108.464C242.883,108.639 242.691,109.082 242.488,109.789C241.736,112.389 241.517,115.111 241.826,117.955C241.836,118.04 241.853,118.126 241.884,118.205C241.994,118.504 242.121,118.981 242.269,119.634C243.261,124.06 245.737,127.318 249.232,130.072C249.215,130.316 249.29,130.556 249.455,130.793C249.544,130.92 249.565,131.081 249.507,131.226C249.095,132.251 248.26,133.201 247.192,134.529C247.087,134.66 246.969,134.775 246.835,134.876C244.99,136.259 243.536,137.217 242.457,137.722C236.307,140.602 229.833,141.697 223.03,141.039C222.199,140.959 221.402,140.713 220.637,140.297C220.365,135.452 221.486,130.993 223.995,126.913C225.565,124.359 226.803,122.504 227.713,121.347C229.2,119.458 230.641,117.73 232.043,116.169C232.105,116.1 232.033,115.995 231.947,116.028C229.494,116.984 227.343,118.123 224.784,119.17C220.73,120.829 216.619,122.37 212.454,123.799ZM208.289,77.678C210.521,78.043 212.783,78.354 214.827,77.932C215.263,77.842 215.606,77.503 215.699,77.07C216.122,75.105 210.48,73.76 208.969,73.513C207.458,73.266 201.687,72.741 201.46,74.739C201.409,75.182 201.624,75.612 202.009,75.837C203.809,76.892 206.054,77.312 208.289,77.678ZM207.008,82.558C206.246,82.54 205.594,83.924 205.55,85.649C205.504,87.374 206.085,88.792 206.844,88.812C207.606,88.83 208.258,87.446 208.302,85.721C208.348,83.996 207.767,82.578 207.008,82.558Z" style="fill:white;fill-opacity:0.85;"/>
    <path d="M60.494,66.048C60.491,66.536 60.525,67.006 60.855,67.387C61.318,67.923 61.806,68.435 62.215,69.022C64.038,71.639 65.848,74.021 67.4,76.682L67.43,76.733L67.468,76.795L68.259,78.084C67.295,77.974 66.147,78.053 64.956,78.353C62.057,79.082 59.996,80.837 60.359,82.276C60.721,83.714 63.365,84.291 66.265,83.561C68.036,83.115 69.494,82.288 70.278,81.383L70.885,82.375C73.295,86.619 75.031,91.172 76.083,96.034C76.307,97.068 76.366,97.933 76.258,98.623C75.952,100.594 73.477,99.949 71.977,99.787C70.864,99.667 70.074,100.134 69.607,101.195C69.214,102.088 69.078,102.996 69.2,103.919C69.261,104.384 69.388,104.853 69.58,105.326C67.805,104.718 65.791,104.102 64.282,105.288C62.924,106.354 63.458,108.399 64.378,109.542C66.414,112.073 69.034,113.704 72.231,114.442C72.881,114.5 73.502,114.483 74.093,114.39C73.386,114.731 72.811,114.963 72.588,114.957C72.282,114.947 72.027,115.18 72.007,115.486C71.998,115.635 71.99,115.783 71.985,115.929C71.956,116.724 71.99,117.465 72.08,118.15C72.104,118.336 72.107,118.524 72.086,118.71C71.944,120.011 71.85,120.767 71.798,120.983C71.495,122.24 70.768,123.752 69.635,125.526C69.418,125.865 69.381,126.302 69.525,126.837C67.987,127.112 66.438,127.191 64.876,127.071C64.484,127.04 63.087,127.043 63.015,127.043C59.279,127.042 55.683,126.513 52.226,125.464C51.199,125.152 50.149,124.705 49.074,124.128C47.508,123.287 46.517,122.72 46.097,122.422C42.459,119.839 39.132,117.644 36.143,115.812C35.494,115.414 34.907,115.139 34.388,114.988C34.353,114.977 34.324,114.953 34.301,114.915C35.665,113.66 36.505,112.307 36.637,112.123C36.646,112.111 36.652,112.104 36.655,112.104C38.097,110.057 38.86,107.873 38.938,105.556C39,103.701 36.823,102.991 35.676,102.033C33.173,99.942 30.773,96.227 31.916,93.019C32.771,90.619 35.112,89.055 37.482,88.487C39.971,87.891 42.422,87.369 44.768,86.286C48.152,84.724 48.854,81.613 48.556,78.169C48.346,75.745 48.277,73.794 48.356,72.318C48.695,66.01 55.464,64.383 60.494,66.048ZM68.167,86.183C67.472,86.241 67.018,87.591 67.157,89.196C67.293,90.801 67.969,92.051 68.665,91.992C69.36,91.934 69.813,90.585 69.675,88.98C69.539,87.374 68.862,86.125 68.167,86.183Z" style="fill:white;fill-opacity:0.95;"/>
    <path d="M78.2,112.035C78.274,111.951 78.346,111.865 78.418,111.777C79.551,110.675 80.159,108.749 78.961,107.482C78.37,106.857 77.546,106.936 76.76,107.066C75.699,107.049 75.019,107.009 74.723,106.95C73.332,106.671 71.616,106.126 69.58,105.326C69.388,104.853 69.261,104.384 69.2,103.919C69.078,102.996 69.214,102.088 69.607,101.195C70.074,100.134 70.864,99.667 71.977,99.787C73.477,99.949 75.952,100.594 76.258,98.623C76.366,97.933 76.307,97.068 76.083,96.034C75.031,91.172 73.295,86.619 70.885,82.375L70.278,81.383C70.777,80.806 71.003,80.198 70.862,79.638C70.649,78.79 69.643,78.242 68.259,78.084L67.468,76.795L67.43,76.733L67.4,76.682C65.848,74.021 64.038,71.639 62.215,69.022C61.806,68.435 61.318,67.923 60.855,67.387C60.525,67.006 60.491,66.536 60.494,66.048C61.703,66.251 62.767,66.646 63.688,67.229C66.002,68.696 68.382,70.041 70.826,71.267C72.983,72.349 75.111,72.479 77.209,71.659C77.896,73.369 78.487,75.133 78.978,76.953C79.136,77.537 79.276,78.086 79.404,78.598C78.085,78.691 76.688,78.873 76.437,80.198C76.159,81.662 77.68,84.034 80.308,84.735C80.337,85.276 80.407,86.58 80.489,88.274C80.279,87.403 79.882,86.811 79.477,86.848C78.947,86.895 78.602,88.001 78.708,89.317C78.812,90.633 79.327,91.658 79.856,91.61C80.207,91.578 80.477,91.081 80.588,90.366C80.804,95.089 81.033,101.277 80.88,103.509C80.774,105.078 80.88,117.109 76.602,122.439C74.727,124.774 72.615,126.418 69.525,126.837C69.381,126.302 69.418,125.865 69.635,125.526C70.768,123.752 71.495,122.24 71.798,120.983C71.85,120.767 71.944,120.011 72.086,118.71C72.107,118.524 72.104,118.336 72.08,118.15C71.99,117.465 71.956,116.724 71.985,115.929C71.99,115.783 71.998,115.635 72.007,115.486C72.027,115.18 72.282,114.947 72.588,114.957C72.811,114.963 73.386,114.731 74.093,114.39C75.535,113.696 77.526,112.548 78.2,112.035Z" style="fill:white;fill-opacity:0.75;"/>
    <path d="M208.289,77.678C210.521,78.043 212.783,78.354 214.827,77.932C215.263,77.842 215.606,77.503 215.699,77.07C216.122,75.105 210.48,73.76 208.969,73.513C207.458,73.266 201.687,72.741 201.46,74.739C201.409,75.182 201.624,75.612 202.009,75.837C203.809,76.892 206.054,77.312 208.289,77.678Z" style="fill:white;fill-opacity:0.15;"/>
    <path d="M189.177,80.596C180.429,84.852 181.681,79.92 189.778,75.837C191.217,75.078 192.797,74.613 194.517,74.426C195.042,74.369 195.454,74.478 195.756,74.752C196.83,75.725 196.069,76.455 195.145,77.135C193.26,78.523 191.269,79.676 189.177,80.596Z" style="fill:white;fill-opacity:0.15;"/>
    <path d="M68.259,78.084C69.643,78.242 70.649,78.79 70.862,79.638C71.003,80.198 70.777,80.806 70.278,81.383C69.494,82.288 68.036,83.115 66.265,83.561C63.365,84.291 60.721,83.714 60.359,82.276C59.996,80.837 62.057,79.082 64.956,78.353C66.147,78.053 67.295,77.974 68.259,78.084Z" style="fill:white;fill-opacity:0.15;"/>
    <path d="M80.308,84.735C77.68,84.034 76.159,81.662 76.437,80.198C76.688,78.873 78.085,78.691 79.404,78.598C80.096,80.593 80.415,84.546 80.319,84.738L80.308,84.735Z" style="fill:white;fill-opacity:0.15;"/>
    <path d="M207.008,82.558C206.246,82.54 205.594,83.924 205.55,85.649C205.504,87.374 206.085,88.792 206.844,88.812C207.606,88.83 208.258,87.446 208.302,85.721C208.348,83.996 207.767,82.578 207.008,82.558Z" style="fill:white;fill-opacity:0.15;"/>
    <path d="M193.44,84.076C192.762,84.057 192.178,85.324 192.141,86.901C192.103,88.48 192.621,89.771 193.3,89.787C193.978,89.805 194.561,88.538 194.599,86.961C194.637,85.383 194.118,84.092 193.44,84.076Z" style="fill:white;fill-opacity:0.15;"/>
    <path d="M68.167,86.183C67.472,86.241 67.018,87.591 67.157,89.196C67.293,90.801 67.969,92.051 68.665,91.992C69.36,91.934 69.813,90.585 69.675,88.98C69.539,87.374 68.862,86.125 68.167,86.183Z" style="fill:white;fill-opacity:0.15;"/>
    <path d="M80.588,90.366C80.477,91.081 80.207,91.578 79.856,91.61C79.327,91.658 78.812,90.633 78.708,89.317C78.602,88.001 78.947,86.895 79.477,86.848C79.882,86.811 80.279,87.403 80.489,88.274C80.521,88.921 80.554,89.626 80.588,90.366Z" style="fill:white;fill-opacity:0.15;"/>
    <path d="M60.367,138.917C65.267,136.551 70.263,134.426 75.355,132.541C83.486,129.529 89.814,127.023 96.544,123.266C96.967,123.029 97.31,122.669 97.526,122.233C99.034,119.177 101.084,117.172 103.628,114.442C106.591,111.269 109.973,108.639 113.737,106.273C116.188,104.732 120.103,102.386 122.554,103.331C122.856,103.447 123.038,103.756 122.994,104.076C122.846,105.195 121.692,106.757 120.94,107.554C119.752,108.821 119.131,109.604 118.084,110.534C117.102,111.41 113.939,114.823 116.769,115.616C117.521,115.829 118.245,115.908 118.942,115.857C123.292,115.523 126.039,115.362 127.183,115.366C130.496,115.376 134.119,115.551 137.446,116.368C140.358,117.079 142.548,118.428 144.615,120.743C147.091,123.517 147.823,127.665 145.666,130.786C144.042,133.138 141.46,134.069 138.593,134.371C137.14,134.522 134.943,134.738 131.993,135.02C128.467,135.356 125.336,135.937 122.602,136.764C120.642,137.355 117.641,138.295 113.592,139.59C109.966,140.751 106.176,141.43 102.285,140.788C101.262,140.617 100.4,140.709 99.6,140.301C99.319,140.16 98.986,140.177 98.725,140.352C96.476,141.853 94.22,143.432 91.957,145.098C88.966,147.299 84.135,151.172 77.464,156.72C77.371,156.738 77.288,156.727 77.213,156.69C77.172,156.669 77.141,156.638 77.12,156.597C76.521,155.421 75.883,154.465 75.232,153.713C71.103,148.944 66.397,144.781 61.106,141.238C60.69,140.96 60.474,140.438 60.463,139.672C60.385,139.463 60.35,139.209 60.367,138.917Z" style="fill:white;fill-opacity:0.95;"/>
    <path d="M206.689,110.39C208.56,109.827 210.239,108.896 211.719,107.602C212.265,107.125 212.694,106.403 213.031,105.449C213.068,105.346 213.083,105.233 213.076,105.123C213.01,104.076 212.447,103.492 211.386,103.365C210.703,103.283 209.735,103.421 208.481,103.777C207.318,104.108 206.322,104.429 205.494,104.742C203.839,105.329 197.614,107.296 199.303,109.933C200.062,111.118 202.27,111.261 203.485,111.125C204.392,111.024 205.46,110.778 206.689,110.39Z" style="fill:white;fill-opacity:0.15;"/>
    <path d="M76.76,107.066C77.546,106.936 78.37,106.857 78.961,107.482C80.159,108.749 79.551,110.675 78.418,111.777C78.346,111.865 78.274,111.951 78.2,112.035C77.526,112.548 75.535,113.696 74.093,114.39C73.502,114.483 72.881,114.5 72.231,114.442C69.034,113.704 66.414,112.073 64.378,109.542C63.458,108.399 62.924,106.354 64.282,105.288C65.791,104.102 67.805,104.718 69.58,105.326C71.616,106.126 73.332,106.671 74.723,106.95C75.019,107.009 75.699,107.049 76.76,107.066Z" style="fill:white;fill-opacity:0.15;"/>
    <path d="M63.015,127.043C63.087,127.043 61.088,133.341 60.968,134.206C60.745,135.796 60.34,137.307 60.367,138.917C60.35,139.209 60.385,139.463 60.463,139.672C60.275,139.889 60.069,140.054 59.852,140.167C57.641,137.145 55.616,134.936 52.954,132.506C49.285,129.157 46.461,126.213 42.275,122.095C39.683,119.545 37.708,117.87 36.346,117.069C35.243,116.42 34.455,115.798 33.973,115.205C34.086,115.11 34.195,115.013 34.301,114.915C34.324,114.953 34.353,114.977 34.388,114.988C34.907,115.139 35.494,115.414 36.143,115.812C39.132,117.644 42.459,119.839 46.097,122.422C46.517,122.72 47.508,123.287 49.074,124.128C50.149,124.705 51.199,125.152 52.226,125.464C55.683,126.513 59.279,127.042 63.015,127.043Z" style="fill:white;fill-opacity:0.75;"/>
    <path d="M59.852,140.167C59.691,140.229 59.533,140.215 59.378,140.126C56.536,138.468 53.672,137.166 50.767,136.252C45.908,134.725 39.937,133.556 34.409,133.069C34.241,133.055 33.708,133.043 32.809,133.028C32.249,133.019 31.717,132.946 31.219,132.812C32.843,130.652 33.832,128.54 34.186,126.48C34.292,125.873 34.34,124.763 34.337,123.16C34.333,122.092 34.172,121.004 33.849,119.891C33.445,118.501 33.013,117.278 32.552,116.221C33.068,115.922 33.543,115.573 33.973,115.205C34.455,115.798 35.243,116.42 36.346,117.069C37.708,117.87 39.683,119.545 42.275,122.095C46.461,126.213 49.285,129.157 52.954,132.506C55.616,134.936 57.641,137.145 59.852,140.167Z" style="fill:white;fill-opacity:0.95;"/>
    <path d="M215.747,137.241C215.984,135.858 216.046,134.326 215.926,132.64C215.919,132.527 215.902,132.414 215.871,132.3C215.761,131.892 215.572,131.109 215.301,129.959C214.823,127.929 213.876,125.876 212.454,123.799C216.619,122.37 220.73,120.829 224.784,119.17C227.343,118.123 229.494,116.984 231.947,116.028C232.033,115.995 232.105,116.1 232.043,116.169C230.641,117.73 229.2,119.458 227.713,121.347C226.803,122.504 225.565,124.359 223.995,126.913C221.486,130.993 220.365,135.452 220.637,140.297C218.532,139.532 216.904,138.515 215.747,137.241Z" style="fill:white;fill-opacity:0.75;"/>
    <path d="M193.006,202.92C192.91,202.409 192.882,202.117 192.924,202.052C192.996,201.883 193.106,201.82 193.25,201.873C193.305,201.893 193.353,201.938 193.373,201.993L194.805,205.743C194.822,205.787 194.874,205.808 194.919,205.791L195.004,205.76C195.049,205.743 195.067,205.694 195.049,205.65C194.506,204.329 194.001,202.995 193.614,201.612C193.426,200.942 193.085,200.489 192.587,200.256C192.546,199.912 192.477,199.545 192.378,199.154C192.264,198.707 192.185,198.343 192.144,198.065C191.509,193.749 190.942,189.436 190.444,185.127C190.661,184.045 190.716,182.957 190.609,181.869C190.222,177.916 189.926,174.335 189.723,171.121C189.614,169.384 189.692,168.415 189.768,166.359C189.774,166.197 189.59,166.101 189.462,166.201C189.322,166.311 189.224,166.472 189.171,166.685C188.53,169.251 188.139,171.76 188.055,174.222C187.967,176.787 187.924,179.42 187.921,182.116C184.94,179.173 182.938,175.873 180.586,172.069C179.574,170.434 179.731,169.446 180.298,167.509C181.163,164.546 182.2,161.675 182.925,158.846C183.581,156.298 184.284,153.785 185.036,151.302C185.994,148.14 187.742,143.855 190.493,141.908C193.078,140.078 195.76,139.655 198.61,138.993C199.736,138.728 201.271,138.522 203.211,138.368C207.438,138.038 211.616,137.664 215.747,137.241C216.904,138.515 218.532,139.532 220.637,140.297C221.402,140.713 222.199,140.959 223.03,141.039C229.833,141.697 236.307,140.602 242.457,137.722C243.536,137.217 244.99,136.259 246.835,134.876C246.969,134.775 247.087,134.66 247.192,134.529C248.26,133.201 249.095,132.251 249.507,131.226C249.565,131.081 249.544,130.92 249.455,130.793C249.29,130.556 249.215,130.316 249.232,130.072C250.08,130.693 250.911,131.026 251.725,131.078C255.492,131.318 258.513,131.397 261.339,131.823C266.005,132.524 270.438,133.815 274.638,135.693C276.004,136.304 277.062,137.145 278.164,138.289C281.004,141.231 283.555,144.679 285.818,148.638C289.179,154.519 291.854,160.858 293.839,167.653C294.481,169.861 294.965,172.261 295.291,174.86C295.954,180.165 296.414,184.045 296.671,186.494C296.853,188.214 296.946,189.196 296.95,189.44C296.977,191.287 297.389,192.753 297.324,194.477C297.296,195.249 297.382,196.51 297.578,198.257C297.708,199.425 297.756,200.785 297.719,202.34C297.715,202.495 297.595,202.622 297.441,202.632C296.644,202.69 295.786,202.982 294.869,203.511C294.041,202.8 293.025,202.398 291.827,202.306C290.889,202.233 289.203,202.264 287.689,202.299C286.649,202.323 285.787,202.62 284.836,202.649C284.18,202.669 283.459,202.739 282.679,202.855C276.997,203.701 271.716,204.851 266.843,206.32C264.553,207.01 262.579,207.841 260.92,208.809C260.021,209.334 259.609,210.231 259.684,211.491L258.438,211.618C258.3,211.635 258.177,211.542 258.146,211.408C256.781,205.46 254.476,200.19 251.203,195.607C251.031,195.366 250.833,195.166 250.606,195.006C250.383,194.85 250.073,194.916 249.933,195.153C249.641,195.644 249.489,196.194 249.472,196.798C249.405,199.281 249.563,201.784 249.936,204.314C250.883,210.738 251.955,217.132 253.153,223.495C253.116,224.453 252.405,224.281 251.735,224.604C249.589,225.638 246.987,226.668 243.927,227.701C238.581,229.505 233.044,230.91 227.329,231.948C226.278,232.139 225.274,232.17 224.28,232.498C224.057,232.571 223.817,232.46 223.73,232.244C221.823,227.473 218.692,223.774 214.923,219.539C213.484,217.922 212.054,215.612 210.641,212.613C210.101,211.467 209.641,210.417 209.045,209.788C207.837,208.513 206.264,209.115 205.48,210.474C204.77,211.707 204.52,213.043 204.732,214.475C204.997,216.263 206.22,219.776 206.696,222.506C206.875,223.532 206.739,224.453 206.301,225.284C206.207,225.462 206.026,225.579 205.827,225.593C204.282,225.696 202.901,225.549 201.683,225.163C200.264,224.715 198.836,224.284 197.398,223.876C197.923,222.307 198.036,221.067 197.731,220.154C195.767,214.286 194.191,208.541 193.006,202.92Z" style="fill:white;fill-opacity:0.95;"/>
    <path d="M77.464,156.72C77.436,156.751 77.412,156.789 77.395,156.827C77.385,156.858 77.391,156.892 77.415,156.937C79.053,159.694 80.712,163.014 82.398,166.898C85.533,174.115 88.135,181.412 90.213,188.791C90.92,191.311 91.473,193.787 91.875,196.214C91.892,196.321 91.847,196.427 91.758,196.489L89.653,197.996C87.088,199.27 85.347,200.074 84.43,200.414C79.099,202.387 73.8,203.774 68.539,204.589C62.946,205.456 57.04,205.825 50.829,205.691L44.686,190.731C44.621,190.573 44.387,190.617 44.384,190.786C44.361,191.833 44.484,193.066 44.755,194.487C45.137,196.496 45.709,198.786 46.475,201.351C47.162,203.652 47.682,205.77 48.034,207.71C48.751,211.665 49.27,214.777 49.603,217.043C51.716,231.433 53.43,243.283 54.746,252.588C55.237,256.056 56.01,260.599 57.057,266.216C48.871,266.611 40.727,266.281 32.479,265.492C28.17,265.08 24.17,264.513 20.036,263.167C17.715,262.408 15.654,261.237 13.859,259.648C13.718,259.524 13.498,259.411 13.196,259.308C13.086,259.273 12.993,259.198 12.938,259.095C11.96,257.364 11.366,256.097 11.163,255.294C9.563,248.972 8.317,242.462 7.427,235.77C6.5,228.82 6.239,221.768 6.569,214.711C6.648,213.05 6.638,211.35 6.545,209.612C6.26,204.294 6.126,200.077 6.147,196.97C6.188,190.621 6.49,184.08 7.053,177.34C7.637,170.386 8.945,162.853 10.761,156.411C11.984,152.061 13.783,148.404 16.55,144.713C17.962,142.828 19.229,141.348 20.348,140.273C22.453,138.254 24.808,136.407 27.421,134.728C27.954,134.388 28.579,134.051 29.296,133.725C29.986,133.413 30.628,133.107 31.219,132.812C31.717,132.946 32.249,133.019 32.809,133.028C33.708,133.043 34.241,133.055 34.409,133.069C39.937,133.556 45.908,134.725 50.767,136.252C53.672,137.166 56.536,138.468 59.378,140.126C59.533,140.215 59.691,140.229 59.852,140.167C60.069,140.054 60.275,139.889 60.463,139.672C60.474,140.438 60.69,140.96 61.106,141.238C66.397,144.781 71.103,148.944 75.232,153.713C75.883,154.465 76.521,155.421 77.12,156.597C77.141,156.638 77.172,156.669 77.213,156.69C77.288,156.727 77.371,156.738 77.464,156.72Z" style="fill:white;fill-opacity:0.7;"/>
    <path d="M131.269,189.069C129.518,186.487 128.876,183.685 129.343,180.663C130.005,176.388 131.976,172.845 135.255,170.033C137.875,167.787 140.159,166.005 142.099,164.687C143.97,163.42 146.497,162.276 148.887,162.228C151.445,162.177 154.535,162.324 155.953,164.889C156.314,165.542 156.52,166.527 156.565,167.849C156.657,170.682 156.232,173.47 155.284,176.21C154.978,176.028 154.775,176.034 154.676,176.23C152.326,180.889 149.953,184.403 145.148,186.748C143.046,187.773 140.361,188.222 138.143,188.427C137.219,188.512 135.482,188.538 132.931,188.53C132.68,188.529 132.124,188.708 131.269,189.069Z" style="fill:white;fill-opacity:0.65;"/>
    <path d="M190.444,185.127C190.218,184.454 190.005,184.035 189.806,183.874C189.068,183.273 188.439,182.686 187.921,182.116C187.924,179.42 187.967,176.787 188.055,174.222C188.139,171.76 188.53,169.251 189.171,166.685C189.224,166.472 189.322,166.311 189.462,166.201C189.59,166.101 189.774,166.197 189.768,166.359C189.692,168.415 189.614,169.384 189.723,171.121C189.926,174.335 190.222,177.916 190.609,181.869C190.716,182.957 190.661,184.045 190.444,185.127Z" style="fill:white;fill-opacity:0.5;"/>
    <path d="M89.653,197.996C90.858,202.738 91.754,207.411 92.335,212.013C92.489,213.218 92.661,214.399 92.853,215.556C92.874,215.68 93.001,215.759 93.121,215.721C102.279,212.868 107.274,211.305 108.109,211.034C111.148,210.045 114.231,208.97 117.359,207.813C121.061,206.443 123.406,205.513 124.395,205.029C126.479,204.009 128.594,202.652 130.733,200.953C130.816,200.888 130.843,200.778 130.805,200.678C130.019,198.628 129.676,196.541 129.772,194.408C129.858,192.461 130.359,190.679 131.269,189.069C132.124,188.708 132.68,188.529 132.931,188.53C135.482,188.538 137.219,188.512 138.143,188.427C140.361,188.222 143.046,187.773 145.148,186.748C149.953,184.403 152.326,180.889 154.676,176.23C154.775,176.034 154.978,176.028 155.284,176.21C155.267,176.244 155.27,176.309 155.301,176.409C155.325,176.481 155.373,176.546 155.435,176.588C156.791,177.542 157.845,178.754 158.604,180.224C159.675,182.301 160.355,184.423 160.64,186.59C160.513,188.118 160.124,189.446 159.483,190.576C159.143,191.177 158.852,191.661 158.611,192.032C158.395,192.365 158.401,192.798 158.628,193.124C159.248,194.011 159.906,194.511 159.796,195.947C159.598,198.518 158.772,200.877 157.32,203.02C157.248,203.126 157.194,203.24 157.152,203.36C156.966,203.893 156.81,204.449 156.685,205.029C156.495,205.911 156.084,206.704 155.462,207.411C153.825,208.957 151.826,209.946 149.467,210.382C145.649,211.082 142.308,211.546 138.534,213.359C138.339,213.451 138.16,213.578 138.006,213.729C136.711,215 135.496,216.092 134.249,217.39C128.759,223.107 125.064,226.925 123.165,228.837C119.783,232.24 116.837,234.929 114.324,236.907C113.685,237.411 111.755,238.877 108.538,241.309C106.138,243.121 104.136,244.485 102.526,245.395C98.148,247.87 93.447,249.831 88.431,251.27C86.607,251.795 85.045,252.114 83.744,252.231C80.547,252.41 78.317,251.092 76.578,248.598C73.894,244.751 72.063,241.744 69.394,238.009C62.531,228.401 56.622,218.257 51.927,207.422C51.712,206.924 51.347,206.347 50.829,205.691C57.04,205.825 62.946,205.456 68.539,204.589C73.8,203.774 79.099,202.387 84.43,200.414C85.347,200.074 87.088,199.27 89.653,197.996Z" style="fill:white;fill-opacity:0.85;"/>
    <path d="M160.64,186.59C167.319,191.057 173.98,194.758 180.617,197.698C183.491,198.972 187.622,200.712 193.006,202.92C194.191,208.541 195.767,214.286 197.731,220.154C198.036,221.067 197.923,222.307 197.398,223.876C193.531,222.691 189.642,221.561 185.727,220.49C183.547,219.894 181.036,219.344 178.197,218.839C175.903,218.431 173.922,218.856 172.25,220.109C168.167,217.242 165.279,215.161 163.583,213.87C160.949,211.862 158.402,209.746 155.943,207.525C155.844,207.432 155.682,207.394 155.462,207.411C156.084,206.704 156.495,205.911 156.685,205.029C156.81,204.449 156.966,203.893 157.152,203.36C157.194,203.24 157.248,203.126 157.32,203.02C158.772,200.877 159.598,198.518 159.796,195.947C159.906,194.511 159.248,194.011 158.628,193.124C158.401,192.798 158.395,192.365 158.611,192.032C158.852,191.661 159.143,191.177 159.483,190.576C160.124,189.446 160.513,188.118 160.64,186.59Z" style="fill:white;fill-opacity:0.65;"/>
    <path d="M83.744,252.231C81.828,255.932 79.187,258.879 75.819,261.069C73.316,262.693 70.548,263.905 67.513,264.699C64.453,265.499 60.968,266.007 57.057,266.216C56.01,260.599 55.237,256.056 54.746,252.588C53.43,243.283 51.716,231.433 49.603,217.043C49.27,214.777 48.751,211.665 48.034,207.71C47.682,205.77 47.162,203.652 46.475,201.351C45.709,198.786 45.137,196.496 44.755,194.487C44.484,193.066 44.361,191.833 44.384,190.786C44.387,190.617 44.621,190.573 44.686,190.731L50.829,205.691C51.347,206.347 51.712,206.924 51.927,207.422C56.622,218.257 62.531,228.401 69.394,238.009C72.063,241.744 73.894,244.751 76.578,248.598C78.317,251.092 80.547,252.41 83.744,252.231Z" style="fill:white;fill-opacity:0.35;"/>
    <path d="M259.684,211.491L258.438,211.618C258.3,211.635 258.177,211.542 258.146,211.408C256.781,205.46 254.476,200.19 251.203,195.607C251.031,195.366 250.833,195.166 250.606,195.006C250.383,194.85 250.073,194.916 249.933,195.153C249.641,195.644 249.489,196.194 249.472,196.798C249.405,199.281 249.563,201.784 249.936,204.314C250.883,210.738 251.955,217.132 253.153,223.495C253.243,223.807 253.363,223.927 253.514,223.855C256.48,222.442 259.29,221.031 261.94,219.611C262.318,219.409 262.434,218.928 262.191,218.578C260.861,216.666 260.187,214.526 260.182,212.157C260.181,211.793 260.017,211.57 259.684,211.491Z" style="fill:white;fill-opacity:0.5;"/>
    <path d="M192.924,202.052L192.587,200.256C193.085,200.489 193.426,200.942 193.614,201.612C194.001,202.995 194.506,204.329 195.049,205.65C195.067,205.694 195.049,205.743 195.004,205.76L194.919,205.791C194.874,205.808 194.822,205.787 194.805,205.743L193.373,201.993C193.353,201.938 193.305,201.893 193.25,201.873C193.106,201.82 192.996,201.883 192.924,202.052Z" style="fill:white;fill-opacity:0.95;"/>
    <path d="M294.869,203.511C294.893,204.05 294.982,204.613 295.143,205.193C295.387,206.083 295.531,206.632 295.573,206.842C296.974,214.042 298.515,221.304 299.597,228.614C299.724,229.469 299.782,230.18 299.775,230.75C299.762,231.866 299.796,232.58 299.878,232.9C300.036,233.507 300.04,234.163 299.892,234.874C299.786,235.365 299.748,236.034 299.775,236.876C299.796,237.504 299.401,237.789 299.35,238.428C299.343,238.517 299.319,238.606 299.281,238.689C297.925,241.442 295.775,242.582 292.942,243.482C290.766,244.172 289.162,244.581 288.128,244.704C287.219,244.811 286.394,245.007 285.653,245.288C285.464,245.161 285.2,245.127 284.867,245.189C283.411,245.459 282.446,245.61 281.969,245.642C280.629,245.73 279.713,246.019 278.652,246.006C277.762,245.995 276.928,246.05 276.155,246.167C274.339,246.443 273.034,246.497 270.898,246.833C268.917,247.146 266.819,247.286 264.598,247.259C262.513,247.234 260.875,247.478 258.833,247.527C258.723,247.53 258.633,247.554 258.561,247.606C258.489,247.657 258.421,247.726 258.352,247.808C258.194,247.692 258.019,247.634 257.83,247.637C252.638,247.71 247.316,247.762 242.155,247.379C241.012,247.294 238.811,247.238 235.546,247.214C234.028,247.204 232.352,247.344 230.522,247.637C227.366,248.141 223.971,248.573 220.334,248.938C215.823,249.391 211.036,249.383 206.837,249.374C206.73,249.374 206.624,249.422 206.524,249.522C206.418,249.354 206.291,249.271 206.15,249.275C202.737,249.381 199.138,249.189 195.351,248.691C191.172,248.145 187.612,246.555 184.662,243.922C182.509,241.999 180.394,239.726 178.313,237.106C175.625,233.717 173.286,230.427 171.906,226.52C171.367,224.985 171.154,223.663 171.271,222.554C171.336,221.96 171.662,221.146 172.25,220.109C173.922,218.856 175.903,218.431 178.197,218.839C181.036,219.344 183.547,219.894 185.727,220.49C189.642,221.561 193.531,222.691 197.398,223.876C198.836,224.284 200.264,224.715 201.683,225.163C202.901,225.549 204.282,225.696 205.827,225.593C206.026,225.579 206.207,225.462 206.301,225.284C206.739,224.453 206.875,223.532 206.696,222.506C206.22,219.776 204.997,216.263 204.732,214.475C204.52,213.043 204.77,211.707 205.48,210.474C206.264,209.115 207.837,208.513 209.045,209.788C209.641,210.417 210.101,211.467 210.641,212.613C212.054,215.612 213.484,217.922 214.923,219.539C218.692,223.774 221.823,227.473 223.73,232.244C223.817,232.46 224.057,232.571 224.28,232.498C225.274,232.17 226.278,232.139 227.329,231.948C233.044,230.91 238.581,229.505 243.927,227.701C246.987,226.668 249.589,225.638 251.735,224.604C252.405,224.281 253.116,224.453 253.153,223.495C253.243,223.807 253.363,223.927 253.514,223.855C256.48,222.442 259.29,221.031 261.94,219.611C262.318,219.409 262.434,218.928 262.191,218.578C260.861,216.666 260.187,214.526 260.182,212.157C260.181,211.793 260.017,211.57 259.684,211.491C259.609,210.231 260.021,209.334 260.92,208.809C262.579,207.841 264.553,207.01 266.843,206.32C271.716,204.851 276.997,203.701 282.679,202.855C283.459,202.739 284.18,202.669 284.836,202.649C285.787,202.62 286.649,202.323 287.689,202.299C289.203,202.264 290.889,202.233 291.827,202.306C293.025,202.398 294.041,202.8 294.869,203.511Z" style="fill:white;fill-opacity:0.75;"/>
    <path d="M285.653,245.288C286.188,247.359 285.715,249.069 284.235,250.418C283.373,251.204 282.435,251.84 281.419,252.317C279.448,253.244 277.433,254.065 275.369,254.779C271.249,256.207 266.891,257.443 262.301,258.491C261.84,258.597 261.312,258.727 260.711,258.882L258.352,247.808C258.421,247.726 258.489,247.657 258.561,247.606C258.633,247.554 258.723,247.53 258.833,247.527C260.875,247.478 262.513,247.234 264.598,247.259C266.819,247.286 268.917,247.146 270.898,246.833C273.034,246.497 274.339,246.443 276.155,246.167C276.928,246.05 277.762,245.995 278.652,246.006C279.713,246.019 280.629,245.73 281.969,245.642C282.446,245.61 283.411,245.459 284.867,245.189C285.2,245.127 285.464,245.161 285.653,245.288Z" style="fill:white;fill-opacity:0.5;"/>
    <path d="M260.711,258.882C258.122,259.462 255.526,260.008 252.92,260.523C249.692,261.162 247.096,261.708 245.132,262.161C240.984,263.119 236.857,263.84 233.09,264.414C228.671,265.083 224.362,265.303 220.163,265.066C216.633,264.867 213.429,264.163 210.552,262.958C209.12,262.357 208.169,261.248 207.705,259.637C206.833,256.612 206.744,252.873 206.524,249.522C206.624,249.422 206.73,249.374 206.837,249.374C211.036,249.383 215.823,249.391 220.334,248.938C223.971,248.573 227.366,248.141 230.522,247.637C232.352,247.344 234.028,247.204 235.546,247.214C238.811,247.238 241.012,247.294 242.155,247.379C247.316,247.762 252.638,247.71 257.83,247.637C258.019,247.634 258.194,247.692 258.352,247.808L260.711,258.882Z" style="fill:white;fill-opacity:0.95;"/>
</svg>
