<?xml version="1.0" encoding="UTF-8" standalone="no"?>
<!DOCTYPE svg PUBLIC "-//W3C//DTD SVG 1.1//EN" "http://www.w3.org/Graphics/SVG/1.1/DTD/svg11.dtd">
<svg width="100%" height="100%" viewBox="0 0 300 300" version="1.1" xmlns="http://www.w3.org/2000/svg" xmlns:xlink="http://www.w3.org/1999/xlink" xml:space="preserve" xmlns:serif="http://www.serif.com/" style="fill-rule:evenodd;clip-rule:evenodd;stroke-linejoin:round;stroke-miterlimit:2;">
    <path d="M40.944,44.236C41.486,43.806 42.035,43.338 42.588,42.824C44.087,41.439 45.079,40.915 47.03,40.993C48.758,41.061 50.076,41.164 50.99,41.303C54.169,41.778 69.927,44.188 98.26,48.536C102.059,49.117 106.307,49.737 111.001,50.396C114.522,50.891 116.647,52.412 117.717,55.901C117.94,56.628 117.739,58.401 117.574,59.477C114.044,82.5 110.132,107.432 110.242,108.094C109.282,106.366 108.153,105.013 106.846,104.043C106.598,103.859 106.249,103.901 106.049,104.137C105.496,104.786 105.254,105.503 105.322,106.295C103.697,106.333 102.267,106.9 101.035,107.994C97.866,110.808 96.316,115.191 95.553,119.093C95.35,120.134 95.396,120.693 95.227,121.716C95.038,122.86 95.011,124.511 95.152,126.665C95.175,127.005 95.264,128.154 95.417,130.112C95.525,131.491 95.682,132.632 95.889,133.53L97.026,138.485C97.045,138.573 96.978,138.65 96.89,138.644C96.096,138.582 94.381,138.662 93.667,137.865C91.669,135.637 89.325,134.346 86.479,133.126C84.819,132.415 82.57,131.408 81.624,130.6C80.348,129.511 79.661,128.16 79.537,126.543C79.522,126.349 79.54,126.152 79.595,125.961L80.154,124.026L81.814,120.592C82.451,119.84 83.122,119.019 83.827,118.124C84.585,117.161 85.273,116.356 85.891,115.708C86.681,114.88 87.464,114.093 88.236,113.34C88.517,113.689 88.928,113.489 89.467,112.739C89.764,112.326 89.981,111.929 90.12,111.55C90.184,111.373 90.401,111.312 90.549,111.428C92.896,113.261 96.503,110.627 97.685,108.562C98.586,106.989 98.579,105.491 97.666,104.059C97.598,103.953 97.666,103.813 97.792,103.804C98.434,103.758 98.916,103.423 99.232,102.786C100.639,99.957 101.093,95.415 97.617,93.787C97.533,93.747 97.517,93.635 97.585,93.573C98.85,92.419 99.944,91.109 100.88,89.665C102.37,87.365 103.056,84.827 101.051,82.622C98.911,80.269 96.043,79.816 92.998,80.436C92.872,80.461 92.759,80.348 92.785,80.222L93.518,76.459L110.235,79.147C110.403,79.172 110.565,79.056 110.59,78.888L112.706,64.813C112.716,64.739 112.716,64.668 112.703,64.597C112.6,64.047 112.517,63.47 112.464,62.862C112.401,62.132 111.64,60.74 110.988,60.107C110.325,59.464 109.928,59.087 109.796,58.966C108.418,57.712 106.181,57.309 104.298,57.038C97.272,56.026 62.3,50.668 59.211,50.177C56.776,49.789 54.543,49.467 52.518,49.211C50.835,48.998 49.683,48.946 49.062,49.036C49.013,49.043 48.968,49.056 48.923,49.078L46.665,50.186C46.561,50.238 46.464,50.303 46.38,50.383C44.915,51.796 43.851,52.771 43.538,54.302C43.121,56.34 42.455,60.567 41.586,66.984C41.541,67.323 41.527,67.637 41.548,67.931C41.569,68.244 41.806,68.499 42.116,68.545L47.298,69.297C47.307,69.672 47.233,70.354 47.075,71.345C46.907,72.402 47.169,73.409 47.86,74.369C48.846,75.738 50.724,76.286 51.249,77.964C51.343,78.268 51.322,78.762 51.184,79.447C50.595,82.376 50.704,85.355 51.497,88.382C51.759,89.384 52.198,90.718 52.815,92.381C53.835,95.131 55.5,97.314 57.803,98.933C57.858,100.577 57.883,102.283 57.88,104.05C57.877,106.385 57.986,107.968 58.204,108.798C59.197,112.592 61.158,115.27 63.957,118.379C64.503,118.986 64.764,119.594 64.739,120.205C64.659,122.11 64.286,124.035 63.621,125.977C63.222,127.143 62.7,127.764 62.057,127.841C58.917,128.287 55.513,128.36 51.84,128.061C49.614,127.879 47.729,128.699 46.187,130.519C46.115,130.603 46.015,130.654 45.905,130.661C45.398,130.694 44.623,130.633 43.573,130.464C41.282,130.095 37.579,129.499 32.464,128.72C32.335,128.7 32.208,128.784 32.183,128.914C32.01,129.789 31.921,130.267 31.908,130.348C30.035,142.43 28.703,151.576 27.725,157.761C27.503,159.163 27.675,160.507 28.245,161.796C28.844,163.15 30.112,164.52 31.136,165.223C32.379,166.077 34.502,166.441 35.914,166.654C54.614,169.473 71.139,171.983 85.478,174.21C87.678,174.552 89.07,174.735 89.651,174.762C92.21,174.881 94.941,172.954 96.135,170.896C96.655,169.998 97.061,168.47 97.359,166.315C97.565,164.819 98.082,161.205 98.903,155.477C98.939,155.228 99.029,154.734 99.171,153.998C99.262,153.526 99.313,152.812 99.316,151.853C99.316,151.836 99.326,151.82 99.342,151.814L99.491,151.74C99.539,151.717 99.6,151.749 99.607,151.804C100.323,157.349 100.843,161.453 100.983,164.138C101.089,166.163 101.006,168.075 100.728,169.875C99.904,175.221 99.268,179.582 98.816,182.961C98.522,185.158 97.536,186.879 95.899,188.178C95.83,188.232 95.759,188.277 95.679,188.314C94.818,188.706 94.148,189.212 93.647,189.796C93.289,189.664 92.888,189.616 92.452,189.654C91.906,189.703 91.505,189.71 91.25,189.674C87.473,189.143 82.166,188.343 75.334,187.29C52.912,183.833 40.588,181.946 38.369,181.627C32.871,180.837 28.871,180.191 26.375,179.673C25.557,179.503 24.812,179.155 24.142,178.629C21.892,176.86 20.985,174.482 21.419,171.49C21.637,169.994 24.483,151.276 29.983,115.343C30.415,112.519 30.746,110.262 30.975,108.569C31.295,106.204 31.658,103.95 32.067,101.804C32.177,101.226 32.186,100.561 32.286,99.915C34.088,88.276 36.718,70.779 40.256,47.444C40.326,46.979 40.436,46.442 40.585,45.835C40.711,45.321 40.831,44.788 40.944,44.236ZM68.462,178.593C68.634,177.476 67.866,176.432 66.75,176.262L54.22,174.345C53.103,174.174 52.059,174.94 51.89,176.057L51.873,176.165C51.701,177.282 52.47,178.325 53.585,178.496L66.115,180.413C67.232,180.583 68.276,179.818 68.446,178.701L68.462,178.593ZM79.38,48.994C78.769,48.994 78.273,49.49 78.273,50.102C78.273,50.713 78.769,51.209 79.38,51.209C79.991,51.209 80.488,50.713 80.488,50.102C80.488,49.49 79.991,48.994 79.38,48.994Z" style="fill:white;fill-opacity:0.5;"/>
    <circle cx="79.38" cy="50.102" r="1.107" style="fill:white;fill-opacity:0.25;"/>
    <path d="M210.028,110.274C208.4,110.711 206.791,111.208 205.201,111.773C202.091,112.881 199.787,110.223 199.103,107.525C198.931,106.86 198.802,106.149 198.712,105.393C198.663,105.012 198.395,104.699 198.03,104.592C197.413,104.411 196.741,104.382 196.021,104.505C192.513,105.103 189.137,105.81 185.829,104.14C182.637,102.528 181.555,99.899 182.586,96.258C182.721,95.773 183.413,93.638 184.663,89.849C185.018,88.767 185.105,87.762 184.921,86.832C184.737,85.911 183.852,84.548 183.665,83.575C182.712,78.617 187.163,75.874 190.775,73.778C190.82,73.752 190.846,73.697 190.836,73.645C189.043,64.801 194.399,57.106 201.183,52.105C205.97,48.578 212.945,46.807 218.811,46.607C219.053,46.597 219.286,46.52 219.483,46.378C220.901,45.367 222.377,44.41 223.915,43.509C229.924,39.988 237.851,40.195 242.709,45.499C242.919,45.725 243.591,46.559 244.725,47.996C244.848,48.148 244.993,48.28 245.155,48.387C246.146,49.03 247.29,49.24 248.585,49.01C251.173,48.555 253.108,48.264 254.397,48.142C259.039,47.699 263.096,48.707 266.162,52.089C268.042,54.163 268.187,57.435 267.722,60.039C267.28,62.536 266.301,65.001 264.792,67.43C264.466,67.95 264.195,68.406 263.978,68.793C263.92,68.893 263.962,69.023 264.069,69.068C265.664,69.769 267.286,70.909 268.93,72.492C271.854,75.306 270.054,77.741 268.662,80.733C267.803,82.574 268.484,83.55 270.054,84.545C271.476,85.449 272.581,86.402 273.543,87.762C275.187,90.081 274.567,92.998 272.891,95.147C272.81,95.247 271.605,96.681 269.273,99.443C268.74,100.073 268.329,100.716 268.042,101.368C267.919,101.646 268.003,101.972 268.245,102.157C268.73,102.525 269.16,102.883 269.534,103.229C271.983,105.494 270.507,109.725 268.959,112.158C268.052,113.582 266.785,114.464 265.167,114.8C263.968,115.049 262.408,114.548 261.287,114.81C260.341,115.03 259.698,115.272 259.362,115.534C256.587,117.711 253.615,117.953 250.443,116.26L248.107,115.017C252.245,111.131 254.579,106.321 255.792,100.822C256.268,98.668 256.727,96.071 257.175,93.028C257.618,90.02 257.715,86.544 257.459,82.593C257.399,81.663 257.288,80.794 257.123,79.99C256.328,76.104 255.482,72.662 254.568,69.672C254.401,69.126 253.95,68.74 253.224,68.515C253.121,68.483 253.011,68.49 252.914,68.532C251.819,68.99 250.22,69.974 248.837,70.299C247.471,70.62 246.02,70.754 244.483,70.712C243.885,70.696 243.252,70.596 242.58,70.412C241.953,70.24 241.333,70.056 240.719,69.863C240.193,69.788 236.717,68.318 236.252,68.108C232.408,66.38 229.91,65.328 228.761,64.949C224.205,63.448 217.696,62.991 214.356,67.385C212.444,69.901 210.724,72.756 209.197,75.945C208.706,76.972 207.989,78.572 207.049,80.746C206.791,81.343 206.395,81.82 205.87,82.186C205.783,82.247 205.68,82.284 205.573,82.29C204.798,82.334 204.123,82.275 203.473,82.577C201.557,83.467 201.164,86.266 200.999,88.198C200.764,90.941 201.751,93.383 203.835,95.043C204.093,95.25 205.053,95.607 204.853,96.39C203.9,100.117 206.532,106.142 210.028,110.274Z" style="fill:white;fill-opacity:0.4;"/>
    <path d="M22.451,100.902C22.396,100.802 22.36,100.726 22.346,100.675C22.169,100.032 23.057,98.083 23.564,97.479C24.088,99.046 23.921,100.151 28.768,105.497C28.959,105.707 29.305,105.6 29.347,105.322C29.347,105.322 36.463,58.456 37.678,50.238C37.678,50.235 37.71,49.928 37.778,49.321C37.891,48.287 38.253,47.224 38.87,46.132C39.377,45.231 40.068,44.598 40.944,44.236C40.831,44.788 40.711,45.321 40.585,45.835C40.436,46.442 40.326,46.979 40.256,47.444C36.718,70.779 34.088,88.276 32.286,99.915C32.186,100.561 32.177,101.226 32.067,101.804C31.658,103.95 31.295,106.204 30.975,108.569C30.746,110.262 30.415,112.519 29.983,115.343C24.483,151.276 21.637,169.994 21.419,171.49C20.985,174.482 21.892,176.86 24.142,178.629C24.812,179.155 25.557,179.503 26.375,179.673C28.871,180.191 32.871,180.837 38.369,181.627C40.588,181.946 52.912,183.833 75.334,187.29C82.166,188.343 87.473,189.143 91.25,189.674C91.505,189.71 91.906,189.703 92.452,189.654C92.888,189.616 93.289,189.664 93.647,189.796C92.287,190.837 90.837,191.393 89.296,191.476C88.886,191.498 87.322,191.299 84.612,190.882C57.279,186.678 38.023,183.73 26.843,182.04C25.07,181.772 23.571,181.482 22.346,181.171C20.421,179.97 19.303,178.367 18.993,176.361C18.958,174.733 18.985,173.538 19.074,172.779C19.128,172.317 19.576,169.329 20.418,163.811C24.418,137.61 27.102,119.956 28.481,110.853C28.701,109.402 28.82,108.651 28.797,108.614C27.093,105.855 24.785,103.153 22.451,100.902Z" style="fill:white;fill-opacity:0.35;"/>
    <path d="M93.518,76.459L110.235,79.147C110.403,79.172 110.565,79.056 110.59,78.888L112.706,64.813C112.716,64.739 112.716,64.668 112.703,64.597C112.6,64.047 112.517,63.47 112.464,62.862C112.401,62.132 111.64,60.74 110.988,60.107C110.325,59.464 109.928,59.087 109.796,58.966C108.418,57.712 106.181,57.309 104.298,57.038C97.272,56.026 62.3,50.668 59.211,50.177C56.776,49.789 54.543,49.467 52.518,49.211C50.835,48.998 49.683,48.946 49.062,49.036C49.013,49.043 48.968,49.056 48.923,49.078L46.665,50.186C46.561,50.238 46.464,50.303 46.38,50.383C44.915,51.796 43.851,52.771 43.538,54.302C43.121,56.34 42.455,60.567 41.586,66.984C41.541,67.323 41.527,67.637 41.548,67.931C41.569,68.244 41.806,68.499 42.116,68.545L47.298,69.297L93.518,76.459Z" style="fill:white;fill-opacity:0.9;"/>
    <path d="M212.683,115.869L210.028,110.274C206.532,106.142 203.9,100.117 204.853,96.39C205.053,95.607 204.093,95.25 203.835,95.043C201.751,93.383 200.764,90.941 200.999,88.198C201.164,86.266 201.557,83.467 203.473,82.577C204.123,82.275 204.798,82.334 205.573,82.29C205.68,82.284 205.783,82.247 205.87,82.186C206.395,81.82 206.791,81.343 207.049,80.746C207.989,78.572 208.706,76.972 209.197,75.945C210.724,72.756 212.444,69.901 214.356,67.385C217.696,62.991 224.205,63.448 228.761,64.949C229.91,65.328 232.408,66.38 236.252,68.108C236.717,68.318 240.193,69.788 240.719,69.863C240.719,69.863 240.394,70.003 239.906,70.403C239.728,70.549 239.527,70.731 239.314,70.953L239.263,70.935L235.121,69.459C235.024,69.423 234.918,69.481 234.895,69.581L234.863,69.707C234.84,69.811 234.895,69.917 234.995,69.953L238.917,71.395C238.474,71.926 237.998,72.624 237.548,73.532C234.942,72.792 232.445,71.92 230.065,70.904C229.896,70.832 229.772,70.813 229.687,70.848C229.598,70.885 229.589,71.006 229.674,71.051C232.1,72.322 234.717,73.225 237.35,73.95C236.304,76.255 235.455,79.781 235.602,85.101C235.664,87.328 236.364,90.262 236.736,94.035C236.81,94.785 236.785,95.676 236.665,96.713C236.39,99.107 234.548,99.29 232.627,99.482C232.479,99.497 232.336,99.543 232.211,99.617C231.357,100.123 230.78,100.897 230.479,101.934C230.082,103.31 229.833,104.843 229.672,106.527C229.641,106.846 229.614,107.155 229.591,107.456C227.103,106.538 224.778,105.231 222.616,103.536C222.348,103.326 221.949,103.461 221.896,103.788C221.892,103.81 221.919,103.868 221.98,103.962C223.497,106.297 226.909,108.099 229.502,108.927C229.281,114.055 230.169,116.028 230.169,116.028C230.747,118.144 231.397,120.224 232.12,122.262C232.149,122.343 232.091,122.425 232.007,122.43C230.545,122.524 229.139,122.424 227.791,122.188C227.814,121.726 227.776,121.196 227.672,120.596C227.632,120.363 227.41,120.207 227.178,120.25C226.955,120.291 226.811,120.45 226.742,120.731C226.643,121.129 226.564,121.587 226.503,122.101L221.986,121.074C222.209,120.437 222.289,119.733 222.235,118.964C222.215,118.68 221.864,118.557 221.673,118.77C221.26,119.232 220.933,119.804 220.698,120.492C218.905,119.956 217.196,119.21 215.565,118.25C216.026,117.756 216.379,117.217 216.621,116.635C216.718,116.402 216.527,116.156 216.278,116.186C216.097,116.208 215.919,116.337 215.742,116.577C215.489,116.919 215.258,117.343 215.044,117.843L212.683,115.869ZM225.672,78.756C227.094,78.478 230.941,77.858 230.857,76.559C230.741,74.824 226.089,75.503 225.075,75.7C224.064,75.897 219.499,77.024 220.045,78.675C220.455,79.909 224.254,79.034 225.672,78.756ZM225.023,89.464C226.008,89.513 226.87,89.446 227.604,89.274C227.869,89.212 227.987,89.071 227.966,88.851C227.955,88.738 227.853,88.657 227.743,88.67C226.693,88.791 225.798,88.833 225.055,88.796C224.312,88.759 223.421,88.644 222.39,88.415C222.28,88.39 222.172,88.46 222.151,88.57C222.109,88.787 222.213,88.941 222.471,89.028C223.185,89.27 224.035,89.416 225.023,89.464ZM218.375,117.21C218.482,117.283 218.581,117.274 218.672,117.178C219.748,116.044 220.13,115.373 219.787,115.139C219.442,114.905 218.948,115.502 218.297,116.923C218.243,117.042 218.269,117.138 218.375,117.21ZM227.139,100.997L226.713,100.671C226.654,100.625 226.567,100.638 226.522,100.696L226.273,101.026C225.753,101.711 225.469,102.37 225.637,102.499L225.669,102.522C225.837,102.651 226.396,102.199 226.916,101.514L227.165,101.184C227.21,101.126 227.2,101.042 227.139,100.997ZM228.975,101.597C228.761,101.517 228.389,101.976 228.144,102.624C227.901,103.271 227.879,103.862 228.093,103.944C228.308,104.024 228.68,103.565 228.925,102.917C229.168,102.27 229.19,101.678 228.975,101.597ZM225.495,90.737C226.215,90.844 226.958,90.711 227.717,90.346C227.947,90.236 228.063,90.088 228.06,89.904C228.056,89.794 227.959,89.71 227.853,89.726C226.897,89.875 226.096,90.136 225.449,90.514C225.353,90.572 225.382,90.721 225.495,90.737ZM228.07,81.99C227.368,81.863 226.57,83.033 226.287,84.603C226.005,86.173 226.344,87.549 227.047,87.674C227.749,87.801 228.547,86.631 228.831,85.061C229.113,83.491 228.774,82.115 228.07,81.99ZM224.853,116.933C224.642,116.881 224.319,117.436 224.131,118.179C223.944,118.922 223.96,119.565 224.173,119.62C224.383,119.672 224.706,119.116 224.895,118.373C225.081,117.63 225.065,116.987 224.853,116.933ZM229.547,117.542C229.358,117.598 229.384,118.231 229.599,118.959C229.817,119.685 230.143,120.23 230.332,120.173C230.521,120.117 230.495,119.484 230.28,118.756C230.062,118.031 229.736,117.485 229.547,117.542ZM220.749,101.091C221.822,100.661 222.888,99.983 223.951,99.062C224.135,98.9 224.035,98.597 223.789,98.577C223.682,98.571 223.586,98.587 223.492,98.626C222.316,99.139 221.337,99.873 220.552,100.826C220.439,100.961 220.585,101.155 220.749,101.091Z" style="fill:white;fill-opacity:0.95;"/>
    <path d="M230.479,101.934C230.78,100.897 231.357,100.123 232.211,99.617C232.336,99.543 232.479,99.497 232.627,99.482C234.548,99.29 236.39,99.107 236.665,96.713C236.785,95.676 236.81,94.785 236.736,94.035C236.364,90.262 235.664,87.328 235.602,85.101C235.455,79.781 236.304,76.255 237.35,73.95L237.416,73.968C237.652,74.037 237.887,74.104 238.123,74.168C240.151,74.72 242.212,75.105 244.308,75.325C244.397,75.334 244.473,75.269 244.48,75.181L244.48,75.175C244.483,75.087 244.419,75.009 244.327,74.991L237.664,73.565L237.548,73.532C237.998,72.624 238.474,71.926 238.917,71.395L238.939,71.403C239.912,71.781 240.917,72.002 241.95,72.066C242.102,72.075 242.166,71.872 242.034,71.791C241.798,71.646 241.527,71.542 241.217,71.474C240.571,71.335 239.973,71.173 239.419,70.988L239.314,70.953C239.527,70.731 239.728,70.549 239.906,70.403C240.394,70.003 240.719,69.863 240.719,69.863C241.333,70.056 241.953,70.24 242.58,70.412C243.252,70.596 243.885,70.696 244.483,70.712C246.02,70.754 247.471,70.62 248.837,70.299C250.22,69.974 251.819,68.99 252.914,68.532C253.011,68.49 253.121,68.483 253.224,68.515C253.95,68.74 254.401,69.126 254.568,69.672C255.482,72.662 256.328,76.104 257.123,79.99C257.288,80.794 257.399,81.663 257.459,82.593C257.715,86.544 257.618,90.02 257.175,93.028C256.727,96.071 256.268,98.668 255.792,100.822C254.579,106.321 252.245,111.131 248.107,115.017L243.53,118.751C243.262,118.35 242.921,117.962 242.512,117.582C242.402,117.479 242.229,117.501 242.15,117.627C242.077,117.744 242.092,117.882 242.199,118.047C242.453,118.438 242.661,118.858 242.826,119.303L240.92,120.783C240.584,120.24 240.227,119.761 239.844,119.349C239.657,119.148 239.333,119.167 239.175,119.391C239.101,119.497 239.075,119.607 239.101,119.72C239.31,120.631 239.657,121.464 240.141,122.22C239.66,123.687 239.393,126.919 239.401,127.273C239.427,128.296 242.514,128.652 243.559,128.927C242.829,128.772 242.093,128.618 241.353,128.465C241.353,128.465 245.345,132.82 246.125,134.436C250.108,142.685 240.557,144.957 238.671,145.311C220.622,148.7 209.899,144.189 210.126,131.853C210.183,128.758 211.84,125.477 212.689,123.367L213.41,123.335C213.513,123.328 213.6,123.261 213.633,123.164C214.075,121.736 214.256,120.718 214.172,120.111C214.085,119.494 213.591,118.079 212.683,115.869L215.044,117.843C214.847,118.124 214.761,118.409 214.789,118.69C214.798,118.78 214.89,118.836 214.973,118.803C215.223,118.703 215.419,118.515 215.565,118.25C217.196,119.21 218.905,119.956 220.698,120.492C220.449,120.922 220.368,121.351 220.452,121.775C220.53,122.169 220.956,122.386 221.321,122.217C221.661,122.06 221.88,121.678 221.986,121.074L226.503,122.101C226.396,122.534 226.395,123.047 226.509,123.642C226.589,124.062 227.109,124.223 227.414,123.923C227.788,123.554 227.914,122.976 227.791,122.188C229.139,122.424 230.545,122.524 232.007,122.43C232.091,122.425 232.149,122.343 232.12,122.262C231.397,120.224 230.169,116.028 230.169,116.028C230.169,116.028 229.281,114.055 229.502,108.927L229.617,108.963C231.636,109.661 233.655,109.897 235.674,109.667C235.984,109.632 236.087,109.231 235.829,109.05C235.709,108.966 235.561,108.898 235.376,108.85C233.359,108.599 231.43,108.134 229.591,107.456C229.614,107.155 229.641,106.846 229.672,106.527C229.833,104.843 230.082,103.31 230.479,101.934ZM210.651,130.652C210.538,130.687 210.482,130.787 210.486,130.946C210.489,131.03 210.541,131.101 210.645,131.156C211.552,131.298 212.298,130.987 212.887,130.225C212.964,130.125 212.887,129.977 212.761,129.983C212.053,130.014 211.349,130.232 210.651,130.652ZM234.268,142.341C234.071,142.352 233.942,142.988 233.981,143.766C234.02,144.542 234.213,145.166 234.411,145.154C234.608,145.143 234.737,144.507 234.698,143.729C234.659,142.953 234.465,142.329 234.268,142.341ZM228.56,142.733L228.987,139.887C229.019,139.684 228.786,139.545 228.622,139.668C228.218,139.962 228.005,140.42 227.979,141.047C227.976,141.076 227.979,141.108 227.989,141.137L228.444,142.743C228.46,142.804 228.551,142.798 228.56,142.733ZM238.151,142.604C238.668,140.84 238.888,138.175 236.753,137.387C236.656,137.351 236.549,137.393 236.501,137.481C236.452,137.571 236.478,137.684 236.559,137.746C237.143,138.182 237.579,138.902 237.579,139.697C237.576,140.679 237.602,141.635 237.912,142.607C237.948,142.724 238.116,142.724 238.151,142.604ZM219.018,134.134L219.315,134.431C219.338,134.451 219.373,134.451 219.393,134.431L219.829,133.989C220.53,133.281 221.027,132.632 220.937,132.545L220.885,132.493C220.794,132.406 220.155,132.906 219.454,133.617L219.018,134.056C218.995,134.079 218.995,134.115 219.018,134.134ZM237.03,102.902C236.814,102.942 236.778,103.739 236.953,104.683C237.127,105.626 237.441,106.359 237.657,106.321C237.873,106.282 237.909,105.484 237.734,104.54C237.56,103.597 237.247,102.864 237.03,102.902ZM239.802,103.762L239.35,103.962C239.282,103.995 239.253,104.072 239.282,104.14L239.692,105.057C240.238,106.279 240.832,107.199 241.017,107.118L241.042,107.105C241.227,107.025 240.936,105.965 240.387,104.744L239.976,103.827C239.947,103.762 239.87,103.73 239.802,103.762ZM213.255,135.407C214.444,135.752 215.519,135.601 216.482,134.945C216.824,134.712 217.021,134.431 217.07,134.105C217.092,133.943 216.967,133.798 216.802,133.801C215.419,133.824 214.224,134.308 213.219,135.252C213.168,135.3 213.187,135.387 213.255,135.407ZM245.013,81.343C246.399,81.742 250.098,82.94 250.611,81.75C251.297,80.158 246.86,78.643 245.872,78.358C244.883,78.074 240.321,77.002 240.057,78.714C239.859,79.996 243.627,80.944 245.013,81.343ZM236.086,117.068C235.906,117.145 235.993,117.743 236.277,118.402C236.562,119.064 236.937,119.536 237.116,119.459C237.295,119.381 237.208,118.783 236.924,118.124C236.639,117.462 236.265,116.99 236.086,117.068ZM231.926,102.511C231.726,102.489 231.523,102.88 231.467,103.387C231.413,103.891 231.529,104.321 231.727,104.341C231.926,104.363 232.13,103.972 232.186,103.465C232.24,102.961 232.123,102.531 231.926,102.511ZM243.33,141.105L243.058,141.347C243.036,141.37 243.032,141.409 243.055,141.435L243.097,141.48C243.672,142.119 244.211,142.572 244.305,142.488L244.331,142.462C244.425,142.381 244.031,141.796 243.456,141.157L243.414,141.112C243.391,141.086 243.352,141.083 243.33,141.105ZM245.161,133.533C245.29,133.361 244.989,133.287 244.971,133.297C244.386,133.191 243.873,133.099 243.436,133.032C243.239,133.003 243.078,133.039 242.952,133.142C242.797,133.269 242.816,133.507 242.987,133.611C243.785,134.092 244.509,134.066 245.161,133.533ZM234.484,121.023C234.184,121.099 234.11,121.817 234.315,122.623C234.52,123.432 234.931,124.023 235.229,123.947C235.528,123.871 235.603,123.154 235.398,122.347C235.192,121.539 234.782,120.948 234.484,121.023ZM238.439,134.234C239.702,134.667 240.748,135.52 241.42,136.689C242.163,137.972 243.126,140.669 245.003,138.74C245.067,138.673 245.003,138.563 244.912,138.585C243.976,138.815 243.258,138.479 242.761,137.581C241.895,136.021 240.503,133.979 238.481,133.972C238.416,133.972 238.358,134.021 238.348,134.086C238.339,134.15 238.377,134.212 238.439,134.234ZM219.189,140.22C219.887,139.428 220.787,138.407 220.672,137.435C220.624,137.035 220.132,136.873 219.858,137.164C219.076,137.991 219.108,138.86 219.047,140.165C219.043,140.239 219.138,140.278 219.189,140.22ZM242.276,91.299C243.165,91.451 243.953,91.487 244.635,91.406C244.883,91.38 245.009,91.264 245.009,91.063C245.013,90.96 244.929,90.876 244.825,90.876C243.863,90.87 243.049,90.808 242.377,90.695C241.708,90.585 240.916,90.372 240.006,90.065C239.909,90.03 239.802,90.085 239.77,90.182C239.708,90.372 239.789,90.521 240.012,90.631C240.632,90.928 241.388,91.151 242.276,91.299ZM225.159,137.162C225.033,137.051 224.477,137.474 223.92,138.112C223.363,138.747 223.014,139.354 223.142,139.466C223.269,139.577 223.825,139.154 224.382,138.516C224.939,137.881 225.288,137.274 225.159,137.162ZM242.002,92.411L239.825,91.39C239.796,91.377 239.763,91.39 239.75,91.416L239.741,91.438C239.634,91.664 240.041,92.075 240.645,92.359L240.732,92.401C241.336,92.682 241.911,92.73 242.015,92.504L242.028,92.482C242.041,92.456 242.028,92.423 242.002,92.411ZM234.089,101.978C233.861,102.018 233.819,102.858 233.997,103.857C234.171,104.854 234.498,105.632 234.726,105.592C234.953,105.552 234.995,104.712 234.818,103.712C234.643,102.715 234.317,101.937 234.089,101.978ZM241.48,83.679C240.79,83.553 240.006,84.706 239.725,86.25C239.443,87.794 239.776,89.148 240.463,89.273C241.152,89.4 241.937,88.247 242.217,86.703C242.499,85.158 242.167,83.805 241.48,83.679ZM224.256,142.007C223.999,141.913 223.573,142.423 223.303,143.152C223.033,143.88 223.96,144.226 224.23,143.497C224.5,142.769 224.513,142.103 224.256,142.007Z" style="fill:white;fill-opacity:0.75;"/>
    <path d="M210.651,130.652C210.538,130.687 210.482,130.787 210.486,130.946C210.489,131.03 210.541,131.101 210.645,131.156C211.552,131.298 212.298,130.987 212.887,130.225C212.964,130.125 212.887,129.977 212.761,129.983C212.053,130.014 211.349,130.232 210.651,130.652Z" style="fill:white;fill-opacity:0.35;"/>
    <path d="M245.161,133.533C245.29,133.361 244.989,133.287 244.971,133.297C244.386,133.191 243.873,133.099 243.436,133.032C243.239,133.003 243.078,133.039 242.952,133.142C242.797,133.269 242.816,133.507 242.987,133.611C243.785,134.092 244.509,134.066 245.161,133.533Z" style="fill:white;fill-opacity:0.35;"/>
    <path d="M88.236,113.34C88.517,113.689 88.928,113.489 89.467,112.739C89.764,112.326 89.981,111.929 90.12,111.55C90.184,111.373 90.401,111.312 90.549,111.428C92.896,113.261 96.503,110.627 97.685,108.562C98.586,106.989 98.579,105.491 97.666,104.059C97.598,103.953 97.666,103.813 97.792,103.804C98.434,103.758 98.916,103.423 99.232,102.786C100.639,99.957 101.093,95.415 97.617,93.787C97.533,93.747 97.517,93.635 97.585,93.573C98.85,92.419 99.944,91.109 100.88,89.665C102.37,87.365 103.056,84.827 101.051,82.622C98.911,80.269 96.043,79.816 92.998,80.436C92.872,80.461 92.759,80.348 92.785,80.222L93.518,76.459L47.298,69.297C47.307,69.672 47.233,70.354 47.075,71.345C46.907,72.402 47.169,73.409 47.86,74.369C48.846,75.738 50.724,76.286 51.249,77.964C51.343,78.268 51.322,78.762 51.184,79.447C50.595,82.376 50.704,85.355 51.497,88.382C51.759,89.384 52.198,90.718 52.815,92.381C53.835,95.131 55.5,97.314 57.803,98.933C57.774,96.849 58.084,94.917 58.733,93.137C59.823,90.149 61.126,87.359 62.636,84.767C62.82,84.451 63.191,84.284 63.75,84.254C63.853,84.248 63.957,84.276 64.044,84.338C64.512,84.667 65.11,85.281 65.714,85.624C67.068,86.392 68.331,86.757 69.872,86.764C70.392,86.766 70.87,86.78 71.306,86.806C74.016,86.35 76.643,85.897 79.182,85.439C81.201,85.076 83.164,85.243 85.074,85.94C86.808,86.574 88.02,87.71 88.701,89.355C89.971,92.417 90.867,95.568 91.344,98.81C91.374,99.013 91.55,99.24 91.874,99.485C92.261,99.779 92.936,99.673 93.36,100.028C94.211,100.74 94.222,102.664 94.038,103.894C93.675,106.327 92.74,107.029 90.937,108.223C90.698,108.382 90.536,108.633 90.491,108.918C90.236,110.542 89.486,112.016 88.236,113.34Z" style="fill:white;fill-opacity:0.25;"/>
    <path d="M239.314,70.953L239.419,70.988C239.973,71.173 240.571,71.335 241.217,71.474C241.527,71.542 241.798,71.646 242.034,71.791C242.166,71.872 242.102,72.075 241.95,72.066C240.917,72.002 239.912,71.781 238.939,71.403L234.995,69.953C234.895,69.917 234.84,69.811 234.863,69.707L234.895,69.581C234.918,69.481 235.024,69.423 235.121,69.459L239.263,70.935L239.314,70.953ZM237.548,73.532L237.664,73.565L244.327,74.991C244.419,75.009 244.483,75.087 244.48,75.175L244.48,75.181C244.473,75.269 244.397,75.334 244.308,75.325C242.212,75.105 240.151,74.72 238.123,74.168C237.887,74.104 237.652,74.037 237.416,73.968L237.35,73.95C234.717,73.225 232.1,72.322 229.674,71.051C229.589,71.006 229.598,70.885 229.687,70.848C229.772,70.813 229.896,70.832 230.065,70.904C232.445,71.92 234.942,72.792 237.548,73.532ZM225.023,89.464C224.035,89.416 223.185,89.27 222.471,89.028C222.213,88.941 222.109,88.787 222.151,88.57C222.172,88.46 222.28,88.39 222.39,88.415C223.421,88.644 224.312,88.759 225.055,88.796C225.798,88.833 226.693,88.791 227.743,88.67C227.853,88.657 227.955,88.738 227.966,88.851C227.987,89.071 227.869,89.212 227.604,89.274C226.87,89.446 226.008,89.513 225.023,89.464ZM225.495,90.737C225.382,90.721 225.353,90.572 225.449,90.514C226.096,90.136 226.897,89.875 227.853,89.726C227.959,89.71 228.056,89.794 228.06,89.904C228.063,90.088 227.947,90.236 227.717,90.346C226.958,90.711 226.215,90.844 225.495,90.737ZM242.276,91.299C241.388,91.151 240.632,90.928 240.012,90.631C239.789,90.521 239.708,90.372 239.77,90.182C239.802,90.085 239.909,90.03 240.006,90.065C240.916,90.372 241.708,90.585 242.377,90.695C243.049,90.808 243.863,90.87 244.825,90.876C244.929,90.876 245.013,90.96 245.009,91.063C245.009,91.264 244.883,91.38 244.635,91.406C243.953,91.487 243.165,91.451 242.276,91.299ZM242.002,92.411C242.028,92.423 242.041,92.456 242.028,92.482L242.015,92.504C241.911,92.73 241.336,92.682 240.732,92.401L240.645,92.359C240.041,92.075 239.634,91.664 239.741,91.438L239.75,91.416C239.763,91.39 239.796,91.377 239.825,91.39L242.002,92.411Z" style="fill:white;fill-opacity:0.15;"/>
    <path d="M229.591,107.456C231.43,108.134 233.359,108.599 235.376,108.85C235.561,108.898 235.709,108.966 235.829,109.05C236.087,109.231 235.984,109.632 235.674,109.667C233.655,109.897 231.636,109.661 229.617,108.963L229.502,108.927C226.909,108.099 223.497,106.297 221.98,103.962C221.919,103.868 221.892,103.81 221.896,103.788C221.949,103.461 222.348,103.326 222.616,103.536C224.778,105.231 227.103,106.538 229.591,107.456ZM225.672,78.756C224.254,79.034 220.455,79.909 220.045,78.675C219.499,77.024 224.064,75.897 225.075,75.7C226.089,75.503 230.741,74.824 230.857,76.559C230.941,77.858 227.094,78.478 225.672,78.756ZM245.013,81.343C243.627,80.944 239.859,79.996 240.057,78.714C240.321,77.002 244.883,78.074 245.872,78.358C246.86,78.643 251.297,80.158 250.611,81.75C250.098,82.94 246.399,81.742 245.013,81.343ZM228.07,81.99C228.774,82.115 229.113,83.491 228.831,85.061C228.547,86.631 227.749,87.801 227.047,87.674C226.344,87.549 226.005,86.173 226.287,84.603C226.57,83.033 227.368,81.863 228.07,81.99ZM241.48,83.679C242.167,83.805 242.499,85.158 242.217,86.703C241.937,88.247 241.152,89.4 240.463,89.273C239.776,89.148 239.443,87.794 239.725,86.25C240.006,84.706 240.79,83.553 241.48,83.679Z" style="fill:white;fill-opacity:0.15;"/>
    <path d="M80.154,124.026L81.814,120.592C78.077,121.739 74.436,122.062 70.892,121.558C70.463,121.497 70.082,121.402 69.755,121.277C69.601,121.218 69.545,121.028 69.642,120.896C71.422,118.478 72.521,115.876 72.918,113.072C71.6,113.159 70.359,113.056 69.193,112.755C69.006,112.707 68.938,112.474 69.07,112.332C69.077,112.323 69.103,112.304 69.148,112.274C69.158,112.268 69.171,112.264 69.18,112.264L73.054,112.245C73.496,110.63 73.543,109.089 73.199,107.626C73.089,107.157 72.75,106.777 72.298,106.611C71.771,106.418 71.355,106.239 71.044,106.075C69.918,105.481 70.17,103.913 70.55,102.761C71.364,100.288 72.032,98.144 72.546,96.329C73.217,93.961 73.21,91.577 72.517,89.17C72.282,88.353 71.878,87.565 71.306,86.806C70.87,86.78 70.392,86.766 69.872,86.764C68.331,86.757 67.068,86.392 65.714,85.624C65.11,85.281 64.512,84.667 64.044,84.338C63.957,84.276 63.853,84.248 63.75,84.254C63.191,84.284 62.82,84.451 62.636,84.767C61.126,87.359 59.823,90.149 58.733,93.137C58.084,94.917 57.774,96.849 57.803,98.933C57.858,100.577 57.883,102.283 57.88,104.05C57.877,106.385 57.986,107.968 58.204,108.798C59.197,112.592 61.158,115.27 63.957,118.379C64.503,118.986 64.764,119.594 64.739,120.205C64.659,122.11 64.286,124.035 63.621,125.977C63.222,127.143 62.7,127.764 62.057,127.841C62.206,128.361 62.481,128.635 62.884,128.665C67.12,128.977 71.209,128.377 75.153,126.846C77.159,126.068 78.514,125.374 79.207,124.766C79.689,124.343 80.002,124.097 80.154,124.026ZM69,95.461C68.57,95.444 68.189,96.271 68.15,97.308C68.111,98.345 68.431,99.198 68.863,99.212C69.293,99.23 69.675,98.403 69.713,97.365C69.752,96.329 69.432,95.476 69,95.461ZM67.077,93.502C67.998,93.444 69.426,93.441 70.337,92.934C70.644,92.763 70.676,92.333 70.395,92.12C69.591,91.506 68.034,91.477 66.955,91.545C65.872,91.613 64.335,91.839 63.614,92.553C63.362,92.798 63.45,93.218 63.776,93.351C64.742,93.741 66.157,93.561 67.077,93.502Z" style="fill:white;fill-opacity:0.75;"/>
    <path d="M81.814,120.592C82.451,119.84 83.122,119.019 83.827,118.124C84.585,117.161 85.273,116.356 85.891,115.708C86.681,114.88 87.464,114.093 88.236,113.34C89.486,112.016 90.236,110.542 90.491,108.918C90.536,108.633 90.698,108.382 90.937,108.223C92.74,107.029 93.675,106.327 94.038,103.894C94.222,102.664 94.211,100.74 93.36,100.028C92.936,99.673 92.261,99.779 91.874,99.485C91.55,99.24 91.374,99.013 91.344,98.81C90.867,95.568 89.971,92.417 88.701,89.355C88.02,87.71 86.808,86.574 85.074,85.94C83.164,85.243 81.201,85.076 79.182,85.439C76.643,85.897 74.016,86.35 71.306,86.806C71.878,87.565 72.282,88.353 72.517,89.17C73.21,91.577 73.217,93.961 72.546,96.329C72.032,98.144 71.364,100.288 70.55,102.761C70.17,103.913 69.918,105.481 71.044,106.075C71.355,106.239 71.771,106.418 72.298,106.611C72.75,106.777 73.089,107.157 73.199,107.626C73.543,109.089 73.496,110.63 73.054,112.245C74.914,111.964 76.631,111.405 78.219,110.598C78.335,110.539 78.481,110.601 78.513,110.73L78.516,110.74C78.555,110.888 78.493,111.043 78.364,111.127C76.617,112.262 74.801,112.91 72.918,113.072C72.521,115.876 71.422,118.478 69.642,120.896C69.545,121.028 69.601,121.218 69.755,121.277C70.082,121.402 70.463,121.497 70.892,121.558C74.436,122.062 78.077,121.739 81.814,120.592ZM77.716,96.273C77.266,96.251 76.862,97.075 76.815,98.113C76.765,99.149 77.091,100.008 77.539,100.029C77.99,100.05 78.393,99.227 78.441,98.189C78.49,97.153 78.164,96.293 77.716,96.273ZM79.673,94.575C80.529,94.946 81.814,95.607 82.867,95.57C83.223,95.557 83.449,95.182 83.297,94.862C82.855,93.935 81.469,93.192 80.464,92.756C79.459,92.32 77.967,91.809 76.988,92.12C76.652,92.226 76.533,92.646 76.765,92.914C77.457,93.712 78.816,94.203 79.673,94.575Z" style="fill:white;fill-opacity:0.95;"/>
    <path d="M23.564,97.479C23.755,94.891 25.485,92.518 26.998,91.529C28.539,90.522 31.797,90.18 31.621,90.217L29.347,105.322C29.305,105.6 28.959,105.707 28.768,105.497C23.921,100.151 24.088,99.046 23.564,97.479Z" style="fill:white;fill-opacity:0.95;"/>
    <path d="M67.077,93.502C67.998,93.444 69.426,93.441 70.337,92.934C70.644,92.763 70.676,92.333 70.395,92.12C69.591,91.506 68.034,91.477 66.955,91.545C65.872,91.613 64.335,91.839 63.614,92.553C63.362,92.798 63.45,93.218 63.776,93.351C64.742,93.741 66.157,93.561 67.077,93.502Z" style="fill:white;fill-opacity:0.15;"/>
    <path d="M79.673,94.575C80.529,94.946 81.814,95.607 82.867,95.57C83.223,95.557 83.449,95.182 83.297,94.862C82.855,93.935 81.469,93.192 80.464,92.756C79.459,92.32 77.967,91.809 76.988,92.12C76.652,92.226 76.533,92.646 76.765,92.914C77.457,93.712 78.816,94.203 79.673,94.575Z" style="fill:white;fill-opacity:0.15;"/>
    <path d="M14.639,118.063L15.621,117.785C15.689,117.766 15.721,117.688 15.685,117.627C15.225,116.819 14.245,115.517 12.723,113.731C11.163,111.899 9.512,109.615 7.777,106.873C7.338,106.178 6.834,104.964 6.269,103.229C6.269,103.229 5.646,99.637 9.137,96.817C10.47,95.74 12.104,95.011 13.857,95.143C15.561,95.272 19.033,97.603 22.451,100.902C24.785,103.153 27.093,105.855 28.797,108.614C28.82,108.651 28.701,109.402 28.481,110.853C27.102,119.956 24.418,137.61 20.418,163.811C19.576,169.329 19.128,172.317 19.074,172.779C18.985,173.538 18.958,174.733 18.993,176.361C17.788,174.326 16.516,172.336 15.178,170.388C9.8,162.558 5.459,157.172 2.938,153.955C-0.287,149.838 -0.419,145.249 0.477,142.597C2.385,136.949 7.842,137.681 7.842,137.681C8.214,137.81 11.124,137.229 10.93,136.915C10.771,136.66 10.556,136.375 10.285,136.062C8.496,133.763 3.582,127.579 1.95,124.501C1.817,124.252 1.672,123.745 1.52,122.98C2.505,119.953 4.663,117.837 7.991,116.632C9.409,116.118 10.733,116.128 11.97,116.658C11.97,116.658 14.539,118.092 14.639,118.063Z" style="fill:white;fill-opacity:0.95;"/>
    <path d="M69,95.461C68.57,95.444 68.189,96.271 68.15,97.308C68.111,98.345 68.431,99.198 68.863,99.212C69.293,99.23 69.675,98.403 69.713,97.365C69.752,96.329 69.432,95.476 69,95.461Z" style="fill:white;fill-opacity:0.15;"/>
    <path d="M77.716,96.273C77.266,96.251 76.862,97.075 76.815,98.113C76.765,99.149 77.091,100.008 77.539,100.029C77.99,100.05 78.393,99.227 78.441,98.189C78.49,97.153 78.164,96.293 77.716,96.273Z" style="fill:white;fill-opacity:0.15;"/>
    <path d="M220.749,101.091C221.822,100.661 222.888,99.983 223.951,99.062C224.135,98.9 224.035,98.597 223.789,98.577C223.682,98.571 223.586,98.587 223.492,98.626C222.316,99.139 221.337,99.873 220.552,100.826C220.439,100.961 220.585,101.155 220.749,101.091Z" style="fill:white;fill-opacity:0.35;"/>
    <path d="M227.139,100.997L226.713,100.671C226.654,100.625 226.567,100.638 226.522,100.696L226.273,101.026C225.753,101.711 225.469,102.37 225.637,102.499L225.669,102.522C225.837,102.651 226.396,102.199 226.916,101.514L227.165,101.184C227.21,101.126 227.2,101.042 227.139,100.997Z" style="fill:white;fill-opacity:0.35;"/>
    <path d="M228.975,101.597C228.761,101.517 228.389,101.976 228.144,102.624C227.901,103.271 227.879,103.862 228.093,103.944C228.308,104.024 228.68,103.565 228.925,102.917C229.168,102.27 229.19,101.678 228.975,101.597Z" style="fill:white;fill-opacity:0.35;"/>
    <path d="M234.089,101.978C233.861,102.018 233.819,102.858 233.997,103.857C234.171,104.854 234.498,105.632 234.726,105.592C234.953,105.552 234.995,104.712 234.818,103.712C234.643,102.715 234.317,101.937 234.089,101.978Z" style="fill:white;fill-opacity:0.35;"/>
    <path d="M231.926,102.511C231.726,102.489 231.523,102.88 231.467,103.387C231.413,103.891 231.529,104.321 231.727,104.341C231.926,104.363 232.13,103.972 232.186,103.465C232.24,102.961 232.123,102.531 231.926,102.511Z" style="fill:white;fill-opacity:0.35;"/>
    <path d="M237.03,102.902C236.814,102.942 236.778,103.739 236.953,104.683C237.127,105.626 237.441,106.359 237.657,106.321C237.873,106.282 237.909,105.484 237.734,104.54C237.56,103.597 237.247,102.864 237.03,102.902Z" style="fill:white;fill-opacity:0.35;"/>
    <path d="M11.97,116.658C11.05,115.524 10.129,114.455 9.205,113.45C8.407,112.581 7.525,111.182 6.566,109.25C5.691,107.49 5.358,105.626 5.571,103.659C5.59,103.481 5.823,103.336 6.269,103.229C6.834,104.964 7.338,106.178 7.777,106.873C9.512,109.615 11.163,111.899 12.723,113.731C14.245,115.517 15.225,116.819 15.685,117.627C15.721,117.688 15.689,117.766 15.621,117.785L14.639,118.063C14.539,118.092 11.97,116.658 11.97,116.658Z" style="fill:white;fill-opacity:0.35;"/>
    <path d="M239.802,103.762L239.35,103.962C239.282,103.995 239.253,104.072 239.282,104.14L239.692,105.057C240.238,106.279 240.832,107.199 241.017,107.118L241.042,107.105C241.227,107.025 240.936,105.965 240.387,104.744L239.976,103.827C239.947,103.762 239.87,103.73 239.802,103.762Z" style="fill:white;fill-opacity:0.35;"/>
    <path d="M110.242,108.094C111.518,110.556 113.856,119.988 113.837,121.135C113.769,121.18 113.71,121.228 113.669,121.28C113.626,121.335 113.606,121.403 113.611,121.484C113.668,122.499 113.615,124.134 112.338,124.246C112.173,124.26 112.008,124.211 111.879,124.11C111.045,123.454 110.487,122.899 110.193,122.463C108.645,120.166 107.538,117.588 106.875,114.729C106.562,113.379 106.334,112.507 106.236,112.1C106.232,112.084 106.226,112.064 106.223,112.045L105.322,106.295C105.254,105.503 105.496,104.786 106.049,104.137C106.249,103.901 106.598,103.859 106.846,104.043C108.153,105.013 109.282,106.366 110.242,108.094Z" style="fill:white;fill-opacity:0.25;"/>
    <path d="M72.918,113.072C71.6,113.159 70.359,113.056 69.193,112.755C69.006,112.707 68.938,112.474 69.07,112.332C69.077,112.323 69.103,112.304 69.148,112.274C69.158,112.268 69.171,112.264 69.18,112.264L73.054,112.245C74.914,111.964 76.631,111.405 78.219,110.598C78.335,110.539 78.481,110.601 78.513,110.73L78.516,110.74C78.555,110.888 78.493,111.043 78.364,111.127C76.617,112.262 74.801,112.91 72.918,113.072Z" style="fill:white;fill-opacity:0.15;"/>
    <path d="M218.375,117.21C218.482,117.283 218.581,117.274 218.672,117.178C219.748,116.044 220.13,115.373 219.787,115.139C219.442,114.905 218.948,115.502 218.297,116.923C218.243,117.042 218.269,117.138 218.375,117.21Z" style="fill:white;fill-opacity:0.35;"/>
    <path d="M215.044,117.843C214.847,118.124 214.761,118.409 214.789,118.69C214.798,118.78 214.89,118.836 214.973,118.803C215.223,118.703 215.419,118.515 215.565,118.25C216.026,117.756 216.379,117.217 216.621,116.635C216.718,116.402 216.527,116.156 216.278,116.186C216.097,116.208 215.919,116.337 215.742,116.577C215.489,116.919 215.258,117.343 215.044,117.843Z" style="fill:white;fill-opacity:0.35;"/>
    <path d="M224.853,116.933C224.642,116.881 224.319,117.436 224.131,118.179C223.944,118.922 223.96,119.565 224.173,119.62C224.383,119.672 224.706,119.116 224.895,118.373C225.081,117.63 225.065,116.987 224.853,116.933Z" style="fill:white;fill-opacity:0.35;"/>
    <path d="M236.086,117.068C235.906,117.145 235.993,117.743 236.277,118.402C236.562,119.064 236.937,119.536 237.116,119.459C237.295,119.381 237.208,118.783 236.924,118.124C236.639,117.462 236.265,116.99 236.086,117.068Z" style="fill:white;fill-opacity:0.35;"/>
    <path d="M243.53,118.751C243.914,119.245 244.163,119.723 244.283,120.179C244.35,120.431 244.034,120.602 243.856,120.411L242.826,119.303C242.661,118.858 242.453,118.438 242.199,118.047C242.092,117.882 242.077,117.744 242.15,117.627C242.229,117.501 242.402,117.479 242.512,117.582C242.921,117.962 243.262,118.35 243.53,118.751Z" style="fill:white;fill-opacity:0.35;"/>
    <path d="M229.547,117.542C229.358,117.598 229.384,118.231 229.599,118.959C229.817,119.685 230.143,120.23 230.332,120.173C230.521,120.117 230.495,119.484 230.28,118.756C230.062,118.031 229.736,117.485 229.547,117.542Z" style="fill:white;fill-opacity:0.35;"/>
    <path d="M220.698,120.492C220.449,120.922 220.368,121.351 220.452,121.775C220.53,122.169 220.956,122.386 221.321,122.217C221.661,122.06 221.88,121.678 221.986,121.074C222.209,120.437 222.289,119.733 222.235,118.964C222.215,118.68 221.864,118.557 221.673,118.77C221.26,119.232 220.933,119.804 220.698,120.492Z" style="fill:white;fill-opacity:0.35;"/>
    <path d="M240.92,120.783C241.072,121.219 241.11,121.716 241.03,122.269C241.007,122.424 240.845,122.518 240.7,122.456L240.141,122.22C239.657,121.464 239.31,120.631 239.101,119.72C239.075,119.607 239.101,119.497 239.175,119.391C239.333,119.167 239.657,119.148 239.844,119.349C240.227,119.761 240.584,120.24 240.92,120.783Z" style="fill:white;fill-opacity:0.35;"/>
    <path d="M226.503,122.101C226.396,122.534 226.395,123.047 226.509,123.642C226.589,124.062 227.109,124.223 227.414,123.923C227.788,123.554 227.914,122.976 227.791,122.188C227.814,121.726 227.776,121.196 227.672,120.596C227.632,120.363 227.41,120.207 227.178,120.25C226.955,120.291 226.811,120.45 226.742,120.731C226.643,121.129 226.564,121.587 226.503,122.101Z" style="fill:white;fill-opacity:0.35;"/>
    <path d="M234.484,121.023C234.184,121.099 234.11,121.817 234.315,122.623C234.52,123.432 234.931,124.023 235.229,123.947C235.528,123.871 235.603,123.154 235.398,122.347C235.192,121.539 234.782,120.948 234.484,121.023Z" style="fill:white;fill-opacity:0.35;"/>
    <path d="M243.559,128.927C247.427,129.746 251.15,130.583 254.723,131.437C258.593,132.361 262.334,133.472 265.945,134.767C267.722,135.407 269.55,136.324 271.434,137.516C275.129,139.861 277.226,143.176 278.815,147.23C280.233,150.851 281.406,154.686 282.34,158.733C282.789,160.675 283.238,162.613 283.693,164.541L283.638,164.629C283.611,164.673 283.573,164.708 283.528,164.733L277.872,165.1C277.707,165.11 277.549,165.162 277.41,165.246L270.071,169.739C269.221,168.521 268.856,167.433 267.47,166.644C265.38,165.456 262.021,168.121 260.618,169.545C259.197,170.989 259.08,172.798 258.767,174.711C258.66,175.366 258.745,175.964 259.023,176.504L250.572,181.672C250.485,181.724 250.43,181.817 250.43,181.921L250.43,183.882C250.43,183.992 250.514,184.088 250.624,184.105C250.95,184.153 251.221,184.14 251.438,184.066L252.985,184.079L254.468,186.96L253.455,188.511L252.677,188.435C247.637,187.94 235.405,186.76 235.405,186.76C235.212,186.582 234.901,186.201 234.475,185.616C233.67,184.512 232.233,183.204 230.163,181.695C226.466,178.999 222.444,177.024 218.1,175.761C216.595,175.323 215.016,175.094 213.772,174.824C212.625,174.574 211.268,174.359 209.698,174.174C208.034,173.978 206.277,173.82 204.429,173.703C202.146,173.558 199.025,173.574 195.061,173.754C193.62,173.82 190.873,173.598 188.279,173.323C189.289,169.955 190.215,166.563 191.046,163.146C191.169,162.639 191.242,162.29 191.266,162.093C191.318,161.656 191.017,161.26 190.591,161.217C190.045,161.163 189.495,161.937 189.214,162.325C187.031,165.344 184.831,168.389 182.599,171.458C176.4,166.748 170.897,161.241 165.523,155.561C164.007,153.959 162.196,151.796 160.057,149.1C159.98,149.003 159.915,148.9 159.863,148.79C159.665,148.367 159.502,148.095 159.375,147.979C158.675,147.339 158.313,146.526 158.297,145.531C158.297,145.531 163.614,138.905 165.626,136.424C166.288,135.607 167.48,134.502 169.196,133.11C175.056,128.358 183.524,123.571 196.047,122.253C204.9,121.321 210.493,123.125 212.689,123.367C211.84,125.477 210.183,128.758 210.126,131.853C209.899,144.189 220.622,148.7 238.671,145.311C240.557,144.957 250.108,142.685 246.125,134.436C245.345,132.82 241.353,128.465 241.353,128.465C242.093,128.618 242.829,128.772 243.559,128.927Z" style="fill:white;fill-opacity:0.95;"/>
    <path d="M10.285,136.062C10.639,136.516 10.87,136.818 10.93,136.915C11.124,137.229 8.214,137.81 7.842,137.681C7.974,137.681 8.078,137.665 8.155,137.636C8.252,137.594 8.275,137.464 8.197,137.393C5.943,135.303 4.069,133.032 2.577,130.581C1.507,128.826 1.052,126.791 1.207,124.475C1.213,124.394 1.233,124.32 1.262,124.246C1.41,123.881 1.498,123.461 1.52,122.98C1.672,123.745 1.817,124.252 1.95,124.501C3.582,127.579 8.496,133.763 10.285,136.062Z" style="fill:white;fill-opacity:0.35;"/>
    <path d="M219.018,134.134L219.315,134.431C219.338,134.451 219.373,134.451 219.393,134.431L219.829,133.989C220.53,133.281 221.027,132.632 220.937,132.545L220.885,132.493C220.794,132.406 220.155,132.906 219.454,133.617L219.018,134.056C218.995,134.079 218.995,134.115 219.018,134.134Z" style="fill:white;fill-opacity:0.35;"/>
    <path d="M213.255,135.407C214.444,135.752 215.519,135.601 216.482,134.945C216.824,134.712 217.021,134.431 217.07,134.105C217.092,133.943 216.967,133.798 216.802,133.801C215.419,133.824 214.224,134.308 213.219,135.252C213.168,135.3 213.187,135.387 213.255,135.407Z" style="fill:white;fill-opacity:0.35;"/>
    <path d="M238.439,134.234C239.702,134.667 240.748,135.52 241.42,136.689C242.163,137.972 243.126,140.669 245.003,138.74C245.067,138.673 245.003,138.563 244.912,138.585C243.976,138.815 243.258,138.479 242.761,137.581C241.895,136.021 240.503,133.979 238.481,133.972C238.416,133.972 238.358,134.021 238.348,134.086C238.339,134.15 238.377,134.212 238.439,134.234Z" style="fill:white;fill-opacity:0.35;"/>
    <path d="M219.189,140.22C219.887,139.428 220.787,138.407 220.672,137.435C220.624,137.035 220.132,136.873 219.858,137.164C219.076,137.991 219.108,138.86 219.047,140.165C219.043,140.239 219.138,140.278 219.189,140.22Z" style="fill:white;fill-opacity:0.35;"/>
    <path d="M225.159,137.162C225.033,137.051 224.477,137.474 223.92,138.112C223.363,138.747 223.014,139.354 223.142,139.466C223.269,139.577 223.825,139.154 224.382,138.516C224.939,137.881 225.288,137.274 225.159,137.162Z" style="fill:white;fill-opacity:0.35;"/>
    <path d="M238.151,142.604C238.668,140.84 238.888,138.175 236.753,137.387C236.656,137.351 236.549,137.393 236.501,137.481C236.452,137.571 236.478,137.684 236.559,137.746C237.143,138.182 237.579,138.902 237.579,139.697C237.576,140.679 237.602,141.635 237.912,142.607C237.948,142.724 238.116,142.724 238.151,142.604Z" style="fill:white;fill-opacity:0.35;"/>
    <path d="M228.56,142.733L228.987,139.887C229.019,139.684 228.786,139.545 228.622,139.668C228.218,139.962 228.005,140.42 227.979,141.047C227.976,141.076 227.979,141.108 227.989,141.137L228.444,142.743C228.46,142.804 228.551,142.798 228.56,142.733Z" style="fill:white;fill-opacity:0.35;"/>
    <path d="M62.542,150.661C62.542,145.308 58.2,140.966 52.848,140.966C47.495,140.966 43.153,145.308 43.153,150.661C43.153,156.013 47.495,160.355 52.848,160.355C58.2,160.355 62.542,156.013 62.542,150.661ZM51.636,156.495L52.618,156.349C52.715,156.333 52.809,156.295 52.89,156.236C53.789,155.578 56.13,153.845 59.929,151.074C60.616,150.573 61.016,150.198 61.124,149.95C61.694,148.641 61.089,147.653 59.938,146.858C59.845,146.794 59.731,146.762 59.618,146.765C58.872,146.785 58.391,146.872 58.181,147.026C54.958,149.397 53.018,150.814 52.376,151.303C52.266,151.387 52.111,151.368 52.024,151.261C51.38,150.471 50.886,149.786 50.535,149.207C49.981,148.294 49.206,147.59 48.415,147.253C47.307,146.78 46.03,147.886 45.725,148.842C45.429,149.769 46.183,151.039 46.81,151.769C47.734,152.844 48.539,153.842 49.223,154.763C49.592,155.26 50.25,155.807 51.2,156.401C51.329,156.482 51.484,156.514 51.636,156.495Z" style="fill:white;fill-opacity:0.75;"/>
    <path d="M243.33,141.105L243.058,141.347C243.036,141.37 243.032,141.409 243.055,141.435L243.097,141.48C243.672,142.119 244.211,142.572 244.305,142.488L244.331,142.462C244.425,142.381 244.031,141.796 243.456,141.157L243.414,141.112C243.391,141.086 243.352,141.083 243.33,141.105Z" style="fill:white;fill-opacity:0.35;"/>
    <path d="M224.256,142.007C223.999,141.913 223.573,142.423 223.303,143.152C223.033,143.88 223.02,144.545 223.277,144.641C223.534,144.736 223.96,144.226 224.23,143.497C224.5,142.769 224.513,142.103 224.256,142.007Z" style="fill:white;fill-opacity:0.35;"/>
    <path d="M234.268,142.341C234.071,142.352 233.942,142.988 233.981,143.766C234.02,144.542 234.213,145.166 234.411,145.154C234.608,145.143 234.737,144.507 234.698,143.729C234.659,142.953 234.465,142.329 234.268,142.341Z" style="fill:white;fill-opacity:0.35;"/>
    <path d="M87.135,154.511C87.135,149.155 82.793,144.814 77.437,144.814C72.081,144.814 67.74,149.155 67.74,154.511C67.74,159.867 72.081,164.209 77.437,164.209C82.793,164.209 87.135,159.867 87.135,154.511ZM77.108,157.796C77.23,157.816 77.32,157.865 77.373,157.945C78.066,159.017 78.838,160.057 79.653,161.098C79.718,161.181 79.802,161.253 79.899,161.305C80.858,161.818 81.727,161.75 82.506,161.098C83.755,160.051 83.348,158.892 82.431,157.664C81.264,156.101 80.673,155.31 80.651,155.286C80.588,155.22 80.6,155.112 80.674,155.057L83.714,152.848C83.749,152.822 83.781,152.789 83.804,152.754C84.203,152.155 84.374,151.522 84.269,150.835C84.251,150.712 84.208,150.596 84.143,150.493C83.527,149.499 82.302,148.619 81.23,149.381C79.744,150.438 78.254,151.568 78.083,151.542C77.912,151.517 76.838,149.984 75.744,148.525C74.954,147.471 73.517,147.935 72.63,148.696C72.536,148.777 72.46,148.873 72.404,148.984C72.089,149.605 72.078,150.259 72.265,150.955C72.277,150.996 72.294,151.035 72.323,151.071L74.546,154.101C74.598,154.178 74.575,154.282 74.497,154.327C74.468,154.34 73.664,154.915 72.078,156.049C70.831,156.94 70.087,157.923 70.96,159.299C71.506,160.158 72.316,160.502 73.383,160.29C73.49,160.269 73.59,160.229 73.68,160.168C74.777,159.428 75.825,158.666 76.81,157.858C76.885,157.797 76.985,157.777 77.108,157.796Z" style="fill:white;fill-opacity:0.75;"/>
    <path d="M120.297,170.101L130.002,163.127C131.032,163.075 132.144,162.988 133.339,162.858C133.542,162.836 133.652,162.726 133.675,162.526C133.694,162.354 133.555,162.209 133.384,162.216C132.686,162.243 131.982,162.229 131.274,162.167C136.524,158.462 141.841,154.921 147.229,151.539C148.567,151.995 149.945,152.379 151.367,152.68C151.726,152.755 152.026,152.737 152.269,152.625C152.556,152.491 152.534,152.079 152.233,151.979L148.557,150.751C151.697,148.768 154.943,147.026 158.297,145.531C158.313,146.526 158.675,147.339 159.375,147.979C159.502,148.095 159.665,148.367 159.863,148.79C159.915,148.9 159.98,149.003 160.057,149.1C162.196,151.796 164.007,153.959 165.523,155.561C170.897,161.241 176.4,166.748 182.599,171.458C182.505,171.7 182.337,171.958 182.091,172.236C182.017,172.32 182.033,172.447 182.124,172.511C182.224,172.581 185.139,172.99 188.279,173.323C190.873,173.598 193.62,173.82 195.061,173.754C199.025,173.574 202.146,173.558 204.429,173.703C206.277,173.82 208.034,173.978 209.698,174.174C211.268,174.359 212.625,174.574 213.772,174.824C215.016,175.094 216.595,175.323 218.1,175.761C222.444,177.024 226.466,178.999 230.163,181.695C232.233,183.204 233.67,184.512 234.475,185.616C234.901,186.201 235.212,186.582 235.405,186.76L236.42,188.889C236.429,188.911 236.439,188.937 236.446,188.963C236.914,190.779 237.184,192.019 236.717,193.783C236.43,194.865 235.759,195.58 234.704,195.937C234.601,195.972 234.491,195.993 234.381,195.996C233.076,196.029 232.156,195.995 231.619,195.908C230.285,195.692 228.77,195.264 227.068,194.626C222.799,193.027 220.213,192.036 219.302,191.664C217.059,190.746 214.796,190.61 212.509,191.266C209.346,192.174 206.888,192.868 205.14,193.35C202.627,194.043 200.075,194.295 197.481,194.099C195.924,193.982 194.502,193.493 193.214,192.626C192.7,192.281 191.991,191.782 191.088,191.121C190.929,191.005 190.752,190.922 190.561,190.872C190.086,190.749 189.796,190.675 189.696,190.662C185.84,190.174 182.201,189.509 178.263,189.506C174.19,189.502 151.872,191.138 150.867,191.47C150.641,191.544 134.754,191.564 133.852,191.483C130.563,191.187 122.065,191.037 118.874,190.223L119.041,187.869C119.336,183.708 119.851,176.447 120.297,170.101ZM176.881,181.181L178.28,178.477C178.293,178.451 178.283,178.419 178.257,178.406L178.196,178.374C178.066,178.306 177.646,178.858 177.259,179.608L177.214,179.695C176.826,180.445 176.616,181.107 176.745,181.171L176.807,181.204C176.832,181.217 176.865,181.207 176.881,181.181ZM171.628,182.829L168.214,186.091C168.207,186.098 168.207,186.107 168.214,186.114L168.23,186.13C168.404,186.314 169.296,185.746 170.22,184.864L170.31,184.78C171.234,183.895 171.841,183.029 171.667,182.848L171.651,182.829C171.644,182.822 171.635,182.822 171.628,182.829ZM157.873,157.59C159.682,157.341 161.007,157.322 162.034,156.756C162.241,156.643 162.163,156.33 161.927,156.327C160.474,156.288 159.111,156.672 157.835,157.483C157.78,157.515 157.812,157.596 157.873,157.59ZM136.54,187.057C138.507,186.108 140.075,185.477 141.205,185.077C141.955,184.811 142.635,184.401 143.253,183.849C143.398,183.72 143.278,183.481 143.088,183.52C140.568,184.035 138.301,185.511 136.469,186.938C136.44,186.96 136.433,186.999 136.453,187.028C136.469,187.06 136.507,187.073 136.54,187.057ZM130.373,174.194C130.383,174.194 130.386,174.181 130.38,174.174C130.367,174.165 130.515,174.1 130.822,173.984C130.942,173.939 130.984,173.784 130.909,173.664C130.867,173.596 130.796,173.56 130.696,173.557C129.22,173.526 127.705,173.877 126.148,174.572C126.145,174.572 126.145,174.575 126.145,174.578C126.145,174.581 126.145,174.581 126.148,174.581L130.373,174.194ZM153.627,188.87C153.562,189.021 153.501,189.176 153.445,189.335C153.424,189.392 153.496,189.435 153.538,189.393C153.717,189.214 153.892,189.044 154.06,188.882C155.069,187.91 155.869,187.203 156.265,186.314C156.358,186.104 156.113,185.91 155.929,186.043C154.917,186.77 154.133,187.706 153.627,188.87ZM158.639,178.258C160.115,177.873 161.572,177.46 163.013,177.017C163.468,176.878 163.801,176.73 164.008,176.578C164.14,176.478 164.063,176.268 163.898,176.274C163.604,176.287 163.255,176.371 162.855,176.526C161.446,177.072 160.041,177.647 158.639,178.258ZM148.638,177.088L148.515,176.762C148.505,176.739 148.479,176.726 148.457,176.736L148.405,176.755C146.431,177.502 144.855,178.174 144.887,178.261L144.926,178.361C144.958,178.448 146.586,177.912 148.56,177.166L148.612,177.146C148.634,177.137 148.647,177.111 148.638,177.088ZM137.806,158.058C137.818,158.165 138.246,158.234 139.089,158.268C140.675,158.332 142.254,158.197 143.821,157.868C144.58,157.708 144.944,157.496 144.913,157.234C144.882,156.973 144.48,156.849 143.705,156.866C142.103,156.901 140.537,157.133 139.008,157.561C138.194,157.788 137.795,157.951 137.806,158.058Z" style="fill:white;fill-opacity:0.85;"/>
    <path d="M51.636,156.495L52.618,156.349C52.715,156.333 52.809,156.295 52.89,156.236C53.789,155.578 56.13,153.845 59.929,151.074C60.616,150.573 61.016,150.198 61.124,149.95C61.694,148.641 61.089,147.653 59.938,146.858C59.845,146.794 59.731,146.762 59.618,146.765C58.872,146.785 58.391,146.872 58.181,147.026C54.958,149.397 53.018,150.814 52.376,151.303C52.266,151.387 52.111,151.368 52.024,151.261C51.38,150.471 50.886,149.786 50.535,149.207C49.981,148.294 49.206,147.59 48.415,147.253C47.307,146.78 46.03,147.886 45.725,148.842C45.429,149.769 46.183,151.039 46.81,151.769C47.734,152.844 48.539,153.842 49.223,154.763C49.592,155.26 50.25,155.807 51.2,156.401C51.329,156.482 51.484,156.514 51.636,156.495Z" style="fill:white;fill-opacity:0.25;"/>
    <path d="M77.108,157.796C77.23,157.816 77.32,157.865 77.373,157.945C78.066,159.017 78.838,160.057 79.653,161.098C79.718,161.181 79.802,161.253 79.899,161.305C80.858,161.818 81.727,161.75 82.506,161.098C83.755,160.051 83.348,158.892 82.431,157.664C81.264,156.101 80.673,155.31 80.651,155.286C80.588,155.22 80.6,155.112 80.674,155.057L83.714,152.848C83.749,152.822 83.781,152.789 83.804,152.754C84.203,152.155 84.374,151.522 84.269,150.835C84.251,150.712 84.208,150.596 84.143,150.493C83.527,149.499 82.302,148.619 81.23,149.381C79.744,150.438 78.254,151.568 78.083,151.542C77.912,151.517 76.838,149.984 75.744,148.525C74.954,147.471 73.517,147.935 72.63,148.696C72.536,148.777 72.46,148.873 72.404,148.984C72.089,149.605 72.078,150.259 72.265,150.955C72.277,150.996 72.294,151.035 72.323,151.071L74.546,154.101C74.598,154.178 74.575,154.282 74.497,154.327C74.468,154.34 73.664,154.915 72.078,156.049C70.831,156.94 70.087,157.923 70.96,159.299C71.506,160.158 72.316,160.502 73.383,160.29C73.49,160.269 73.59,160.229 73.68,160.168C74.777,159.428 75.825,158.666 76.81,157.858C76.885,157.797 76.985,157.777 77.108,157.796Z" style="fill:white;fill-opacity:0.25;"/>
    <path d="M147.229,151.539C147.026,151.352 146.816,151.21 146.599,151.116C146.486,151.064 146.512,150.896 146.638,150.887L148.557,150.751L152.233,151.979C152.534,152.079 152.556,152.491 152.269,152.625C152.026,152.737 151.726,152.755 151.367,152.68C149.945,152.379 148.567,151.995 147.229,151.539ZM157.873,157.59C157.812,157.596 157.78,157.515 157.835,157.483C159.111,156.672 160.474,156.288 161.927,156.327C162.163,156.33 162.241,156.643 162.034,156.756C161.007,157.322 159.682,157.341 157.873,157.59ZM137.806,158.058C137.795,157.951 138.194,157.788 139.008,157.561C140.537,157.133 142.103,156.901 143.705,156.866C144.48,156.849 144.882,156.973 144.913,157.234C144.944,157.496 144.58,157.708 143.821,157.868C142.254,158.197 140.675,158.332 139.089,158.268C138.246,158.234 137.818,158.165 137.806,158.058ZM130.002,163.127C129.611,163.052 129.453,162.926 129.527,162.749C129.54,162.72 129.566,162.697 129.598,162.687L131.274,162.167C131.982,162.229 132.686,162.243 133.384,162.216C133.555,162.209 133.694,162.354 133.675,162.526C133.652,162.726 133.542,162.836 133.339,162.858C132.144,162.988 131.032,163.075 130.002,163.127ZM130.373,174.194L126.148,174.581C126.145,174.581 126.145,174.581 126.145,174.578C126.145,174.575 126.145,174.572 126.148,174.572C127.705,173.877 129.22,173.526 130.696,173.557C130.796,173.56 130.867,173.596 130.909,173.664C130.984,173.784 130.942,173.939 130.822,173.984C130.515,174.1 130.367,174.165 130.38,174.174C130.386,174.181 130.383,174.194 130.373,174.194ZM158.639,178.258C160.041,177.647 161.446,177.072 162.855,176.526C163.255,176.371 163.604,176.287 163.898,176.274C164.063,176.268 164.14,176.478 164.008,176.578C163.801,176.73 163.468,176.878 163.013,177.017C161.572,177.46 160.115,177.873 158.639,178.258ZM148.638,177.088C148.647,177.111 148.634,177.137 148.612,177.146L148.56,177.166C146.586,177.912 144.958,178.448 144.926,178.361L144.887,178.261C144.855,178.174 146.431,177.502 148.405,176.755L148.457,176.736C148.479,176.726 148.505,176.739 148.515,176.762L148.638,177.088ZM176.881,181.181C176.865,181.207 176.832,181.217 176.807,181.204L176.745,181.171C176.616,181.107 176.826,180.445 177.214,179.695L177.259,179.608C177.646,178.858 178.066,178.306 178.196,178.374L178.257,178.406C178.283,178.419 178.293,178.451 178.28,178.477L176.881,181.181ZM171.628,182.829C171.635,182.822 171.644,182.822 171.651,182.829L171.667,182.848C171.841,183.029 171.234,183.895 170.31,184.78L170.22,184.864C169.296,185.746 168.404,186.314 168.23,186.13L168.214,186.114C168.207,186.107 168.207,186.098 168.214,186.091L171.628,182.829ZM136.54,187.057C136.507,187.073 136.469,187.06 136.453,187.028C136.433,186.999 136.44,186.96 136.469,186.938C138.301,185.511 140.568,184.035 143.088,183.52C143.278,183.481 143.398,183.72 143.253,183.849C142.635,184.401 141.955,184.811 141.205,185.077C140.075,185.477 138.507,186.108 136.54,187.057ZM154.06,188.882L153.627,188.87C154.133,187.706 154.917,186.77 155.929,186.043C156.113,185.91 156.358,186.104 156.265,186.314C155.869,187.203 155.069,187.91 154.06,188.882Z" style="fill:white;fill-opacity:0.25;"/>
    <path d="M182.599,171.458C182.505,171.7 182.337,171.958 182.091,172.236C182.017,172.32 182.033,172.447 182.124,172.511C182.224,172.581 185.139,172.99 188.279,173.323C189.289,169.955 190.215,166.563 191.046,163.146C191.169,162.639 191.242,162.29 191.266,162.093C191.318,161.656 191.017,161.26 190.591,161.217C190.045,161.163 189.495,161.937 189.214,162.325C187.031,165.344 184.831,168.389 182.599,171.458Z" style="fill:white;fill-opacity:0.5;"/>
    <path d="M283.528,164.733L277.872,165.1L283.399,164.771C283.445,164.768 283.489,164.755 283.528,164.733Z" style="fill:white;fill-opacity:0.95;"/>
    <path d="M283.528,164.733C289.108,164.369 297.092,163.845 299.137,163.692C299.309,163.679 299.454,163.815 299.454,163.986L299.454,166.011C299.454,166.031 299.448,166.05 299.435,166.066C299.412,166.095 299.393,166.118 299.37,166.137L278.602,167.759C278.505,167.765 278.411,167.794 278.327,167.846L269.053,173.422C268.274,173.283 267.758,173.195 267.499,173.163C265.49,172.915 264.992,174.426 264.446,175.945L260.716,178.26L260.58,178.206C259.711,178.009 259.051,178.017 258.596,178.229C257.409,178.78 256.101,179.71 254.675,181.007C253.866,181.741 252.859,182.433 252.788,183.292L251.438,184.066C251.221,184.14 250.95,184.153 250.624,184.105C250.514,184.088 250.43,183.992 250.43,183.882L250.43,181.921C250.43,181.817 250.485,181.724 250.572,181.672L259.023,176.504L270.071,169.739L277.41,165.246C277.549,165.162 277.707,165.11 277.872,165.1L283.399,164.771C283.445,164.768 283.489,164.755 283.528,164.733Z" style="fill:white;fill-opacity:0.35;"/>
    <path d="M299.37,166.137C299.36,166.224 299.322,166.292 299.26,166.334C297.445,167.63 295.552,168.848 293.581,169.994C293.526,169.384 293.035,169.364 292.651,169.607C288.366,172.317 283.86,174.871 279.145,177.298C279.057,177.343 278.947,177.331 278.87,177.269C278.075,176.631 277.165,176.102 276.134,175.706C273.925,174.855 271.563,174.094 269.053,173.422L278.327,167.846C278.411,167.794 278.505,167.765 278.602,167.759L299.37,166.137Z" style="fill:white;fill-opacity:0.25;"/>
    <path d="M270.071,169.739C269.221,168.521 268.856,167.433 267.47,166.644C265.38,165.456 262.021,168.121 260.618,169.545C259.197,170.989 259.08,172.798 258.767,174.711C258.66,175.366 258.745,175.964 259.023,176.504L270.071,169.739Z" style="fill:white;fill-opacity:0.75;"/>
    <path d="M284.478,178.942L281.441,181.165C281.354,181.226 281.311,181.333 281.328,181.436C281.47,182.29 281.429,183.139 281.186,183.985C280.913,184.938 280.34,185.612 279.464,186.01C278.55,186.426 278.029,186.886 278.017,187.803C278.003,188.918 277.853,189.855 277.565,190.607C277.239,190.817 276.919,191.022 276.609,191.211C275.59,191.834 274.111,192.305 273.372,192.642C273.104,192.765 272.851,192.92 272.619,193.101C271.445,194.019 270.491,194.617 269.751,194.884C268.533,195.325 267.134,195.385 265.561,195.072C263.393,194.639 261.455,194.106 259.75,193.469C258.27,192.917 257.107,192.087 256.254,190.985C256.061,190.736 255.279,188.95 255.279,188.95C255.204,188.808 255.115,188.673 254.807,188.648C254.793,188.645 254.615,188.627 254.304,188.596L254.192,188.584C254.431,188.129 254.807,187.594 254.468,186.96L252.985,184.079C252.892,183.917 252.834,183.762 252.805,183.612C252.784,183.503 252.779,183.396 252.788,183.292C252.859,182.433 253.866,181.741 254.675,181.007C256.101,179.71 257.409,178.78 258.596,178.229C259.051,178.017 259.711,178.009 260.58,178.206L272.6,183.009C272.816,183.097 273.062,183.061 273.246,182.916L273.336,182.848C273.514,182.706 273.488,182.429 273.285,182.325C271.079,181.197 269.125,180.22 267.412,179.411C266.007,178.747 264.178,177.75 264.446,175.945C264.992,174.426 265.49,172.915 267.499,173.163C267.758,173.195 268.274,173.283 269.053,173.422C271.563,174.094 273.925,174.855 276.134,175.706C277.165,176.102 278.075,176.631 278.87,177.269C278.947,177.331 279.057,177.343 279.145,177.298C283.86,174.871 288.366,172.317 292.651,169.607C293.035,169.364 293.526,169.384 293.581,169.994C292.837,171.558 289.847,174.342 287.469,176.413C286.06,177.64 284.865,178.617 284.478,178.942Z" style="fill:white;fill-opacity:0.75;"/>
    <path d="M68.462,178.593C68.634,177.476 67.866,176.432 66.75,176.262L54.22,174.345C53.103,174.174 52.059,174.94 51.89,176.057L51.873,176.165C51.701,177.282 52.47,178.325 53.585,178.496L66.115,180.413C67.232,180.583 68.276,179.818 68.446,178.701L68.462,178.593Z" style="fill:white;fill-opacity:0.35;"/>
    <path d="M264.446,175.945C264.178,177.75 266.007,178.747 267.412,179.411C269.125,180.22 271.079,181.197 273.285,182.325C273.488,182.429 273.514,182.706 273.336,182.848L273.246,182.916C273.062,183.061 272.816,183.097 272.6,183.009L260.716,178.26L264.446,175.945Z" style="fill:white;fill-opacity:0.25;"/>
    <path d="M287.469,176.413C287.694,176.744 288.78,179.683 289.026,180.005C289.22,180.26 289.149,180.632 288.868,180.81C288.6,180.981 288.235,180.994 287.779,180.842C287.553,180.267 287.217,179.822 286.772,179.505C286.241,179.127 285.476,178.939 284.478,178.942C284.865,178.617 286.06,177.64 287.469,176.413Z" style="fill:white;fill-opacity:0.95;"/>
    <path d="M287.779,180.842L288.154,182.667L286.885,182.703C286.73,182.706 286.675,182.913 286.807,182.993L288.39,183.94L289.007,187.435C288.9,187.626 288.527,187.612 287.889,187.409C287.838,187.393 287.802,187.458 287.841,187.493C288.136,187.76 288.514,187.811 288.82,188.139C288.972,188.303 289.101,188.462 289.204,188.608L289.417,190.281C289.517,190.866 288.994,190.947 287.893,190.433C287.886,190.43 287.863,190.427 287.825,190.423C287.773,190.418 287.738,190.427 287.718,190.449C287.693,190.476 287.699,190.517 287.731,190.536C288.363,190.913 288.677,191.525 289.569,191.512C289.563,191.541 289.556,191.57 289.546,191.599C289.556,191.659 289.535,191.747 289.494,191.809C283.981,191.325 278.12,190.776 277.565,190.607C277.853,189.855 278.003,188.918 278.017,187.803C278.029,186.886 278.55,186.426 279.464,186.01C280.34,185.612 280.913,184.938 281.186,183.985C281.429,183.139 281.47,182.29 281.328,181.436C281.311,181.333 281.354,181.226 281.441,181.165L284.478,178.942C285.476,178.939 286.241,179.127 286.772,179.505C287.217,179.822 287.553,180.267 287.779,180.842ZM284.927,189.008C285.15,188.805 284.959,188.44 284.358,187.91C283.38,187.047 282.866,186.64 282.814,186.689C282.763,186.737 283.119,187.286 283.887,188.34C284.359,188.988 284.707,189.209 284.927,189.008ZM284.643,184.04L285.916,185.31C285.996,185.39 286.129,185.39 286.209,185.31L286.274,185.245C286.39,185.129 286.374,184.935 286.239,184.841C285.693,184.463 285.176,184.176 284.685,183.979C284.646,183.962 284.614,184.011 284.643,184.04Z" style="fill:white;fill-opacity:0.5;"/>
    <path d="M288.154,182.667C288.687,182.871 289.233,183.035 289.798,183.155C290.128,183.223 290.309,183.394 290.344,183.662C290.377,183.888 290.183,184.079 289.957,184.046C289.336,183.959 288.813,183.924 288.39,183.94L286.807,182.993C286.675,182.913 286.73,182.706 286.885,182.703L288.154,182.667Z" style="fill:white;fill-opacity:0.25;"/>
    <path d="M252.805,183.612C252.834,183.762 252.892,183.917 252.985,184.079L251.438,184.066L252.788,183.292C252.779,183.396 252.784,183.503 252.805,183.612Z" style="fill:white;fill-opacity:0.25;"/>
    <path d="M284.643,184.04L285.916,185.31C285.996,185.39 286.129,185.39 286.209,185.31L286.274,185.245C286.39,185.129 286.374,184.935 286.239,184.841C285.693,184.463 285.176,184.176 284.685,183.979C284.646,183.962 284.614,184.011 284.643,184.04Z" style="fill:white;fill-opacity:0.25;"/>
    <path d="M118.874,190.223C122.065,191.037 130.563,191.187 133.852,191.483C134.754,191.564 150.641,191.544 150.867,191.47C151.872,191.138 174.19,189.502 178.263,189.506C182.201,189.509 185.84,190.174 189.696,190.662C189.796,190.675 190.086,190.749 190.561,190.872C190.752,190.922 190.929,191.005 191.088,191.121C191.991,191.782 192.7,192.281 193.214,192.626C194.502,193.493 195.924,193.982 197.481,194.099C200.075,194.295 202.627,194.043 205.14,193.35C206.888,192.868 209.346,192.174 212.509,191.266C214.796,190.61 217.059,190.746 219.302,191.664C220.213,192.036 222.799,193.027 227.068,194.626C228.77,195.264 230.285,195.692 231.619,195.908C232.156,195.995 233.076,196.029 234.381,195.996C234.491,195.993 234.601,195.972 234.704,195.937C235.759,195.58 236.43,194.865 236.717,193.783C237.184,192.019 236.914,190.779 236.446,188.963C236.439,188.937 236.429,188.911 236.42,188.889L235.405,186.76C235.405,186.76 247.637,187.94 252.677,188.435L253.455,188.511L254.192,188.584L254.304,188.596C254.615,188.627 254.793,188.645 254.807,188.648C255.115,188.673 255.204,188.808 255.279,188.95C255.279,188.95 256.061,190.736 256.254,190.985C257.107,192.087 258.27,192.917 259.75,193.469C261.455,194.106 263.393,194.639 265.561,195.072C267.134,195.385 268.533,195.325 269.751,194.884C270.491,194.617 271.445,194.019 272.619,193.101C272.851,192.92 273.104,192.765 273.372,192.642C274.111,192.305 275.59,191.834 276.609,191.211C276.919,191.022 277.239,190.817 277.565,190.607C278.12,190.776 283.981,191.325 289.494,191.809C294.092,192.214 298.448,192.574 299.276,192.633C299.654,192.662 299.958,192.943 299.997,193.305C300.019,193.515 299.926,193.741 299.709,193.98L223.886,247.126C223.463,247.426 223.107,247.736 222.82,248.063C222.442,248.492 221.873,248.768 221.118,248.896C221.024,248.912 220.93,248.89 220.853,248.835L220.497,248.583C220.391,248.505 220.265,248.46 220.132,248.45L100.076,240.801C100.004,240.798 99.937,240.781 99.872,240.752L99.037,240.403C107.715,237.902 107.414,235.424 107.433,235.378C107.433,235.378 108.561,231.492 109.291,227.998C110.071,224.264 110.889,214.678 111.582,212.803C112.154,211.256 113.064,209.928 113.559,208.442C114.03,207.03 115.13,205.209 115.559,203.69C115.902,202.475 117.042,198.585 117.746,195.987C118.046,194.877 118.874,190.223 118.874,190.223Z" style="fill:white;fill-opacity:0.35;"/>
    <path d="M153.627,188.87C153.562,189.021 153.501,189.176 153.445,189.335C153.424,189.392 153.496,189.435 153.538,189.393C153.717,189.214 153.892,189.044 154.06,188.882L153.627,188.87Z" style="fill:white;fill-opacity:0.95;"/>
    <path d="M284.927,189.008C285.15,188.805 284.959,188.44 284.358,187.91C283.38,187.047 282.866,186.64 282.814,186.689C282.763,186.737 283.119,187.286 283.887,188.34C284.359,188.988 284.707,189.209 284.927,189.008Z" style="fill:white;fill-opacity:0.25;"/>
    <path d="M254.468,186.96L253.455,188.511C253.742,188.54 253.99,188.564 254.192,188.584C254.431,188.129 254.807,187.594 254.468,186.96Z" style="fill:white;fill-opacity:0.95;"/>
    <path d="M289.007,187.435C289.388,187.807 289.882,188.078 290.49,188.256C290.564,188.278 290.622,188.34 290.635,188.417C290.654,188.52 290.578,188.85 290.481,188.918C290.439,188.947 289.509,189.037 289.204,188.608C289.101,188.462 288.972,188.303 288.82,188.139C288.514,187.811 288.136,187.76 287.841,187.493C287.802,187.458 287.838,187.393 287.889,187.409C288.527,187.612 288.9,187.626 289.007,187.435Z" style="fill:white;fill-opacity:0.25;"/>
    <path d="M289.417,190.281C289.55,190.669 289.598,191.079 289.569,191.512C288.677,191.525 288.363,190.913 287.731,190.536C287.699,190.517 287.693,190.476 287.718,190.449C287.738,190.427 287.773,190.418 287.825,190.423C287.863,190.427 287.886,190.43 287.893,190.433C288.994,190.947 289.517,190.866 289.417,190.281Z" style="fill:white;fill-opacity:0.25;"/>
    <path d="M99.037,240.403L99.872,240.752C99.937,240.781 100.004,240.798 100.076,240.801L220.132,248.45C220.265,248.46 220.391,248.505 220.497,248.583L220.853,248.835C220.93,248.89 221.024,248.912 221.118,248.896C221.873,248.768 222.442,248.492 222.82,248.063C223.107,247.736 223.463,247.426 223.886,247.126L299.709,193.98L299.932,203.845C299.935,203.933 299.893,204.013 299.822,204.062L223.237,257.747C223.195,257.776 223.159,257.815 223.137,257.86C222.752,258.548 222.07,258.933 221.085,259.014C220.992,259.02 220.901,258.997 220.824,258.949L220.365,258.671C220.307,258.632 220.239,258.61 220.168,258.607C186.943,256.491 160.429,254.801 140.63,253.538L74.103,249.297C72.081,249.167 70.582,249.29 69.209,248.832C69.08,248.79 68.98,248.689 68.938,248.56C68.599,247.546 68.618,246.796 68.499,245.869C68.232,243.827 68.023,241.748 67.873,239.628C73.383,241.999 80.178,243.796 86.852,242.847C92.17,242.091 96.113,241.246 99.037,240.403Z" style="fill:white;fill-opacity:0.25;"/>
    <path d="M107.433,235.378C107.407,235.439 107.955,239.848 86.852,242.847C73.127,244.798 58.888,235.138 56.375,232.747C53.516,230.024 53.048,226.196 52.033,221.797C50.722,216.13 47.223,213.223 42.501,208.92C42.006,208.471 40.504,206.947 37.988,204.346C34.344,200.583 31.043,196.112 28.545,191.912C28.213,191.354 24.566,184.831 24.172,184.034C23.735,183.148 22.854,182.228 22.346,181.171C23.571,181.482 25.07,181.772 26.843,182.04C38.023,183.73 57.279,186.678 84.612,190.882C87.322,191.299 88.886,191.498 89.296,191.476C90.837,191.393 92.287,190.837 93.647,189.796C94.148,189.212 94.818,188.706 95.679,188.314C95.759,188.277 95.83,188.232 95.899,188.178C97.536,186.879 98.522,185.158 98.816,182.961C99.268,179.582 99.904,175.221 100.728,169.875C101.006,168.075 101.089,166.163 100.983,164.138C100.843,161.453 100.323,157.349 99.607,151.804C99.6,151.749 99.539,151.717 99.491,151.74L99.342,151.814C99.326,151.82 99.316,151.836 99.316,151.853C99.313,152.812 99.262,153.526 99.171,153.998C99.029,154.734 98.939,155.228 98.903,155.477C98.082,161.205 97.565,164.819 97.359,166.315C97.061,168.47 96.655,169.998 96.135,170.896C94.941,172.954 92.21,174.881 89.651,174.762C89.07,174.735 87.678,174.552 85.478,174.21C71.139,171.983 54.614,169.473 35.914,166.654C34.502,166.441 32.379,166.077 31.136,165.223C30.112,164.52 28.844,163.15 28.245,161.796C27.675,160.507 27.503,159.163 27.725,157.761C28.703,151.576 30.035,142.43 31.908,130.348C31.921,130.267 32.01,129.789 32.183,128.914C32.208,128.784 32.335,128.7 32.464,128.72C37.579,129.499 41.282,130.095 43.573,130.464C44.623,130.633 45.398,130.694 45.905,130.661C46.015,130.654 46.115,130.603 46.187,130.519C47.729,128.699 49.614,127.879 51.84,128.061C55.513,128.36 58.917,128.287 62.057,127.841C62.206,128.361 62.481,128.635 62.884,128.665C67.12,128.977 71.209,128.377 75.153,126.846C77.159,126.068 78.514,125.374 79.207,124.766C79.689,124.343 80.002,124.097 80.154,124.026L79.595,125.961C79.54,126.152 79.522,126.349 79.537,126.543C79.661,128.16 80.348,129.511 81.624,130.6C82.57,131.408 84.819,132.415 86.479,133.126C89.325,134.346 91.669,135.637 93.667,137.865C94.381,138.662 96.096,138.582 96.89,138.644C96.978,138.65 97.045,138.573 97.026,138.485L95.889,133.53C95.682,132.632 95.525,131.491 95.417,130.112C95.264,128.154 95.175,127.005 95.152,126.665C95.011,124.511 95.038,122.86 95.227,121.716C95.396,120.693 95.35,120.134 95.553,119.093C96.316,115.191 97.866,110.808 101.035,107.994C102.267,106.9 103.697,106.333 105.322,106.295L106.223,112.045C106.226,112.064 106.232,112.084 106.236,112.1C106.334,112.507 106.562,113.379 106.875,114.729C107.538,117.588 108.645,120.166 110.193,122.463C110.487,122.899 111.045,123.454 111.879,124.11C112.008,124.211 112.173,124.26 112.338,124.246C113.615,124.134 113.668,122.499 113.611,121.484C113.606,121.403 113.626,121.335 113.669,121.28C113.71,121.228 113.769,121.18 113.837,121.135C113.924,122.417 115.966,131.786 116.547,134.024C117.888,139.154 118.905,143.231 119.606,146.254C119.952,147.734 120.052,149.278 120.527,150.719C120.643,151.071 121.15,155.761 121.141,157.796C121.139,158.036 120.754,163.586 120.297,170.101C119.851,176.447 119.336,183.708 119.041,187.869L118.874,190.223C118.874,190.223 118.046,194.877 117.746,195.987C117.042,198.585 115.902,202.475 115.559,203.69C115.13,205.209 114.03,207.03 113.559,208.442C113.064,209.928 112.154,211.256 111.582,212.803C110.889,214.678 110.071,224.264 109.291,227.998C108.561,231.492 107.433,235.378 107.433,235.378ZM87.135,154.511C87.135,149.155 82.793,144.814 77.437,144.814C72.081,144.814 67.74,149.155 67.74,154.511C67.74,159.867 72.081,164.209 77.437,164.209C82.793,164.209 87.135,159.867 87.135,154.511ZM62.542,150.661C62.542,145.308 58.2,140.966 52.848,140.966C47.495,140.966 43.153,145.308 43.153,150.661C43.153,156.013 47.495,160.355 52.848,160.355C58.2,160.355 62.542,156.013 62.542,150.661Z" style="fill:white;fill-opacity:0.95;"/>
</svg>
