<?xml version="1.0" encoding="UTF-8" standalone="no"?>
<!DOCTYPE svg PUBLIC "-//W3C//DTD SVG 1.1//EN" "http://www.w3.org/Graphics/SVG/1.1/DTD/svg11.dtd">
<svg width="100%" height="100%" viewBox="0 0 300 300" version="1.1" xmlns="http://www.w3.org/2000/svg" xmlns:xlink="http://www.w3.org/1999/xlink" xml:space="preserve" xmlns:serif="http://www.serif.com/" style="fill-rule:evenodd;clip-rule:evenodd;stroke-linejoin:round;stroke-miterlimit:2;">
    <path d="M119.785,79.706L119.812,272.144C119.812,272.284 119.699,272.396 119.56,272.393L108.16,272.267L107.858,271.138C107.847,271.094 107.841,271.05 107.841,271.002C107.844,181.358 107.837,91.714 107.82,2.07C107.82,1.445 107.98,0.772 108.299,0.054L119.638,0C119.727,0 119.801,0.075 119.798,0.163L119.774,14.252L119.781,49.159L119.785,79.687L119.77,79.691L119.785,79.706Z" style="fill:white;fill-opacity:0.75;"/>
    <path d="M108.299,0.054C107.98,0.772 107.82,1.445 107.82,2.07C107.837,91.714 107.844,181.358 107.841,271.002C107.841,271.05 107.847,271.094 107.858,271.138L108.16,272.267C107.229,272.141 106.454,271.968 105.839,271.747C100.081,269.684 92.005,266.747 81.611,262.94C74.555,260.357 66.92,257.556 58.246,254.409C57.162,254.018 55.915,253.556 54.507,253.022C52.682,252.332 50.806,251.686 48.886,251.085C48.389,250.928 48.053,250.469 48.056,249.949L48.06,248.736L48.056,24.976C48.056,24.802 48.162,24.646 48.325,24.581C51.632,23.29 54.895,21.971 58.121,20.625C60.823,19.5 76.862,12.838 106.24,0.639C106.858,0.381 107.545,0.187 108.299,0.054ZM98.286,19.18C98.004,19.187 97.718,19.248 97.429,19.36C80.499,26.005 67.539,31.104 58.545,34.652C58.25,34.768 58.022,34.839 57.862,34.863C57.057,34.982 57.257,35.757 57.257,36.573C57.281,65.362 57.281,94.454 57.257,123.844C57.257,124.004 57.4,124.123 57.556,124.099L97.807,117.696C98.055,117.655 98.238,117.444 98.238,117.193C98.228,95.538 98.225,69.22 98.228,38.238C98.228,33.459 98.357,27.008 98.313,21.359C98.31,20.717 98.347,20.044 98.432,19.34C98.442,19.255 98.374,19.18 98.286,19.18ZM91.332,135.149C92.715,140.058 99.095,141.142 102.028,136.978C102.711,136.006 103.038,135 103,133.963C103.255,132.818 103.16,131.574 102.708,130.238C101.811,127.583 98.738,125.68 95.934,126.333C93.932,126.798 92.535,127.879 91.75,129.579C91.665,129.765 91.478,129.884 91.274,129.888C87.056,129.942 83.035,129.915 79.204,129.81C77.712,129.769 77.124,130.282 76.998,131.652C76.808,133.718 77.121,134.609 79.374,134.64C83.484,134.697 87.365,134.697 91.019,134.646C91.192,134.643 91.294,134.813 91.332,135.149ZM57.267,144.561L57.267,237.088C57.267,237.387 57.465,237.652 57.75,237.74L99.89,250.745C100.06,250.796 100.23,250.67 100.23,250.493L100.23,147.807C100.23,147.678 100.128,147.569 99.999,147.559L57.386,144.452C57.322,144.449 57.267,144.5 57.267,144.561Z" style="fill:white;fill-opacity:0.9;fill-rule:nonzero;"/>
    <path d="M197.733,210.457C197.396,210.61 196.876,210.752 196.179,210.892C195.608,211.004 195.027,211.273 194.439,211.697L192.685,210.96C192.658,210.95 192.628,210.939 192.597,210.936L190.496,210.705C190.333,208.268 190.14,205.776 189.912,203.227C189.419,197.656 187.849,192.554 185.208,187.928C182.822,183.751 180.857,180.345 179.317,177.715C178.274,175.934 177.427,173.819 176.775,171.376C175.629,167.089 176.163,163.238 177.913,159.234C178.678,157.487 179.467,156.09 180.279,155.04L180.69,157.776C179.688,159.683 178.974,161.461 178.546,163.116C177.264,168.072 178.739,172.766 181.387,177.483C182.39,179.275 183.913,181.875 185.955,185.284C189.246,190.78 191.197,196.548 191.812,202.585C191.876,203.224 192.06,205.287 192.362,208.774C192.403,209.25 192.488,209.777 192.621,210.358C192.641,210.453 192.733,210.518 192.831,210.508C192.927,210.498 193.001,210.416 193.001,210.317L193.001,19.275C193.001,19.191 192.93,19.119 192.845,19.119L119.975,19.119C119.883,19.119 119.812,19.191 119.812,19.282L119.781,49.159L119.774,14.252C143.577,14.242 167.387,14.242 191.203,14.252C193.345,14.252 194.786,14.435 195.53,14.802C197.002,15.526 197.736,16.92 197.736,18.98C197.719,82.792 197.719,146.618 197.733,210.457Z" style="fill:white;fill-opacity:0.35;fill-rule:nonzero;"/>
    <path d="M119.781,49.159L119.812,19.282C119.812,19.191 119.883,19.119 119.975,19.119L192.845,19.119C192.93,19.119 193.001,19.191 193.001,19.275L193.001,210.317C193.001,210.416 192.927,210.498 192.831,210.508C192.733,210.518 192.641,210.453 192.621,210.358C192.488,209.777 192.403,209.25 192.362,208.774C192.06,205.287 191.876,203.224 191.812,202.585C191.197,196.548 189.246,190.78 185.955,185.284C183.913,181.875 182.39,179.275 181.387,177.483C178.739,172.766 177.264,168.072 178.546,163.116C178.974,161.461 179.688,159.683 180.69,157.776C181.618,160.761 184.824,164.788 187.526,160.472C188.382,159.102 189.055,157.929 188.851,156.369C188.362,152.613 186.278,150.367 183.923,147.668C182.638,146.189 181.36,144.51 180.792,143.171C178.712,138.259 176.948,133.956 174.073,129.874C173.943,129.687 173.838,129.48 173.763,129.262L168.702,114.297C168.91,113.362 168.916,112.696 168.723,112.291C168.488,111.802 168.05,110.833 167.407,109.385C164.352,102.485 161.32,95.575 158.315,88.652C157.112,85.878 154.637,83.859 151.932,82.527C153.458,81.381 154.253,79.882 154.318,78.027C154.365,76.616 154.175,75.209 153.879,73.655C152.935,68.768 156.48,65.923 158.424,61.708C159.736,58.856 159.056,56.022 157.105,53.636C156.34,52.701 155.803,52.113 155.491,51.872C153.815,50.57 152.666,49.57 152.044,48.874C151.204,47.936 150.113,46.406 148.771,44.282C145.712,39.448 139.097,34.87 133.027,36.614C131.225,37.134 129.618,38.085 128.2,39.476C127.979,39.693 127.704,39.846 127.405,39.928C124.648,40.665 123.098,43.075 122.272,45.723C121.321,48.778 120.94,51.909 121.134,55.114C120.933,56.232 120.96,57.255 121.222,58.18C121.185,60.294 120.804,62.198 120.08,63.894C120.05,63.968 119.944,63.972 119.91,63.9C119.849,63.778 119.806,63.638 119.783,63.483L119.781,49.159Z" style="fill:white;fill-opacity:0.2;"/>
    <path d="M98.286,19.18C98.374,19.18 98.442,19.255 98.432,19.34C98.347,20.044 98.31,20.717 98.313,21.359C98.357,27.008 98.228,33.459 98.228,38.238C98.225,69.22 98.228,95.538 98.238,117.193C98.238,117.444 98.055,117.655 97.807,117.696L57.556,124.099C57.4,124.123 57.257,124.004 57.257,123.844C57.281,94.454 57.281,65.362 57.257,36.573C57.257,35.757 57.057,34.982 57.862,34.863C58.022,34.839 58.25,34.768 58.545,34.652C67.539,31.104 80.499,26.005 97.429,19.36C97.718,19.248 98.004,19.187 98.286,19.18Z" style="fill:white;fill-opacity:0.5;fill-rule:nonzero;"/>
    <path d="M151.932,82.527C150.052,81.711 148.094,81.116 146.052,80.742C145.79,80.691 145.532,80.617 145.287,80.515C144.345,80.127 136.541,77.506 135.386,75.277C135.413,73.139 136.49,72.36 138.458,71.851C141.269,71.123 143.516,69.886 144.648,67.095C145.28,65.529 145.44,63.758 145.834,62.085C146.215,60.478 147.166,58.554 147.432,57.402C147.704,56.215 147.792,55.376 147.697,54.883C147.449,53.591 146.657,52.803 145.321,52.521C144.182,52.283 142.506,51.984 140.287,51.623C139.872,51.555 139.407,51.44 138.89,51.273C138.435,51.127 137.972,50.988 137.5,50.859C136.249,50.243 135.423,49.791 135.022,49.499C133.051,48.048 131.157,46.348 129.339,44.394C129.04,44.074 128.527,44.095 128.255,44.438C126.368,46.817 124.951,49.876 123.89,52.755C123.768,53.088 123.438,53.289 123.102,53.235C122.028,53.061 121.484,54.091 121.134,55.114C120.94,51.909 121.321,48.778 122.272,45.723C123.098,43.075 124.648,40.665 127.405,39.928C127.704,39.846 127.979,39.693 128.2,39.476C129.618,38.085 131.225,37.134 133.027,36.614C139.097,34.87 145.712,39.448 148.771,44.282C150.113,46.406 151.204,47.936 152.044,48.874C152.666,49.57 153.815,50.57 155.491,51.872C155.803,52.113 156.34,52.701 157.105,53.636C159.056,56.022 159.736,58.856 158.424,61.708C156.48,65.923 152.935,68.768 153.879,73.655C154.175,75.209 154.365,76.616 154.318,78.027C154.253,79.882 153.458,81.381 151.932,82.527Z" style="fill:white;fill-opacity:0.4;fill-rule:nonzero;"/>
    <path d="M121.236,126.761C121.243,126.574 121.396,126.428 121.583,126.434C129.172,126.686 136.751,125.775 143.944,122.886C144.182,122.79 144.124,122.434 143.866,122.424L122.476,121.526C122.361,121.523 122.266,121.441 122.242,121.329C121.379,117.308 120.542,105.593 120.036,101.457C119.921,100.991 119.838,100.92 119.788,101.241L119.785,79.706C119.846,79.757 119.934,79.775 120.016,79.736C120.298,79.604 120.495,79.525 120.607,79.508C123.017,79.104 124.733,78.862 125.75,78.798C125.872,78.79 125.981,78.717 126.035,78.604C126.966,76.667 127.469,74.777 127.568,72.938C127.626,71.868 127.385,70.757 126.851,69.604C126.67,69.213 126.154,68.527 125.308,67.544C123.441,65.376 122.997,62.805 122.677,60.056C122.654,59.859 122.572,59.676 122.439,59.526L121.222,58.18C120.96,57.255 120.933,56.232 121.134,55.114C121.484,54.091 122.028,53.061 123.102,53.235C123.438,53.289 123.768,53.088 123.89,52.755C124.951,49.876 126.368,46.817 128.255,44.438C128.527,44.095 129.04,44.074 129.339,44.394C131.157,46.348 133.051,48.048 135.022,49.499C135.423,49.791 136.249,50.243 137.5,50.859L137.768,53.187C137.775,53.231 137.775,53.279 137.772,53.323C137.69,54.795 137.881,56.073 137.677,57.555C137.432,59.349 137.289,60.804 136.847,61.892C136.755,62.119 136.504,62.235 136.269,62.164L134.702,61.681C134.488,61.613 134.257,61.678 134.108,61.844C133.581,62.435 133.272,63.2 133.183,64.138L131.528,62.894C131.321,62.738 131.018,62.796 130.885,63.024C130.78,63.204 130.729,63.336 130.739,63.425C130.919,64.958 131.64,66.117 132.901,66.898C132.643,68.356 132.751,69.787 133.227,71.191C133.727,72.666 134.448,74.029 135.386,75.277C136.541,77.506 144.345,80.127 145.287,80.515C145.532,80.617 145.79,80.691 146.052,80.742C148.094,81.116 150.052,81.711 151.932,82.527C154.637,83.859 157.112,85.878 158.315,88.652C161.32,95.575 164.352,102.485 167.407,109.385C168.05,110.833 168.488,111.802 168.723,112.291C168.916,112.696 168.91,113.362 168.702,114.297C168.461,114.538 168.216,114.875 167.961,115.306C167.73,115.697 167.363,115.952 166.857,116.064C164.202,116.662 162.669,116.996 162.261,117.06C160.701,117.315 159.814,116.768 158.563,116.108C158.485,116.068 158.397,116.054 158.312,116.068L158.135,116.095C158.06,115.986 157.972,115.888 157.866,115.796C156.959,115 155.936,113.869 154.794,112.4C153.635,110.908 152.326,108.967 150.875,106.571C150.644,106.19 150.579,105.725 150.266,105.426C150.12,105.286 149.879,105.347 149.818,105.541L144.542,122.091C144.515,122.169 144.525,122.254 144.57,122.325C144.665,122.478 144.954,122.937 145.44,123.702C146.51,125.388 147.398,127.135 148.101,128.943C149.614,132.831 150.824,135.795 151.928,139.517C153.482,144.762 154.804,150.152 155.895,155.689C157.156,162.11 158.373,166.906 159.552,173.194C160.528,178.415 164.759,207.554 164.994,208.098C164.933,208.395 165.123,209.971 165.306,211.378L165.31,211.406C165.44,212.402 165.566,213.308 165.596,213.608C165.616,213.808 165.718,213.944 165.905,214.015C165.939,214.029 166.034,213.992 166.187,213.907L167.237,214.923C167.407,215.086 167.672,215.096 167.853,214.943L170.551,212.629C170.663,212.534 170.725,212.387 170.711,212.238L170.66,211.623C173.532,210.8 177.193,211.15 179.943,211.888C181.764,212.377 183.634,213.071 185.551,213.964L183.787,216.065C183.773,216.079 183.76,216.092 183.746,216.102C182.907,216.833 181.883,218.196 182.128,219.342C182.268,219.977 182.539,220.776 182.944,221.738C183.352,222.703 184.341,224.474 185.915,227.047C186.166,227.458 186.475,227.734 186.754,228.335C186.887,228.624 187.264,228.702 187.502,228.492C188.059,227.995 188.287,227.261 188.685,226.306C188.746,226.163 188.953,226.187 188.98,226.34C190.106,232.924 192.913,238.644 197.41,243.498C197.502,243.597 197.566,243.722 197.597,243.855L197.831,244.902C197.682,245.204 197.784,245.731 198.141,246.482C199.239,250.432 201.22,254.412 203.062,257.954C203.27,258.352 203.729,258.997 204.442,259.891C204.592,260.078 204.782,260.231 204.996,260.34C206.584,261.139 210.078,262.6 210.329,264.657C210.53,266.285 208.433,267.308 207.104,267.566C204.432,268.083 202.58,266.088 201.03,264.239C198.668,261.424 196.7,258.725 194.534,255.279C192.692,252.346 190.86,249.545 189.038,246.87L186.282,242.159L185.201,239.929C185.252,239.905 185.242,239.797 185.167,239.599C183.902,236.245 182.645,233.362 181.397,230.946C180.629,229.454 178.189,225.225 176.887,229.511C176.285,231.49 175.952,232.999 175.296,234.253C175.123,234.583 174.984,234.916 174.871,235.252C172.788,235.558 170.653,235.565 168.471,235.273C168.39,235.259 168.322,235.33 168.332,235.412C168.543,236.972 168.692,237.404 168.767,238.913C168.784,239.246 168.889,239.814 169.08,240.612C169.137,240.85 169.151,241.381 169.127,242.203C169.144,242.818 169.26,243.498 169.47,244.236C169.865,245.616 168.794,245.949 168.196,246.904C168.165,246.887 168.131,246.873 168.101,246.86C167.897,246.741 167.632,246.649 167.302,246.591C167.159,246.567 167.013,246.588 166.884,246.652C166.445,246.87 166.109,246.999 165.868,247.036C164.889,247.2 163.165,247.393 160.698,247.621C160.062,247.546 159.325,247.223 158.488,246.649C158.098,246.261 157.843,245.772 157.727,245.184C157.506,244.072 157.285,242.964 157.061,241.856C155.395,233.559 153.775,225.256 152.197,216.945C151.871,215.229 151.385,213.285 151.014,211.357C150.22,207.234 149.257,202.207 148.118,196.273C147.647,193.819 147.021,191.29 146.242,188.683C143.544,179.661 142.183,175.142 142.177,175.125C141.687,173.804 140.651,170.258 138.975,164.52C138.202,161.872 137.118,158.351 135.722,153.952C135.144,152.131 134.695,150.316 134.111,148.32C133.768,147.148 133.266,146.254 132.925,145.18C132.901,145.105 132.826,145.057 132.748,145.068C132.67,145.078 132.612,145.142 132.609,145.221C132.52,147.338 132.415,149.116 132.289,150.56C132.058,153.222 132.137,154.778 132.109,157.572C132.092,159.268 131.758,161.148 131.725,162.674C131.627,167.168 131.504,170.295 131.351,172.055C131.222,173.541 131.151,175.611 131.137,178.272C131.12,181.443 130.66,185.245 129.74,189.672C129.527,190.696 129.199,191.67 128.754,192.595C126.058,198.205 123.147,203.514 120.012,208.523C119.917,208.674 119.847,208.839 119.803,209.01L119.798,172.928C120.228,158.29 121.236,126.761 121.236,126.761ZM134.477,55.262C134.145,55.165 133.707,55.672 133.5,56.392C133.292,57.113 133.394,57.772 133.725,57.868C134.057,57.966 134.495,57.459 134.702,56.739C134.91,56.018 134.808,55.359 134.477,55.262ZM131.117,53.421C131.059,53.53 131.147,53.663 131.273,53.646C132.031,53.54 132.884,53.517 133.829,53.581C134.764,53.642 135.603,53.938 136.592,53.877C136.851,53.86 136.946,53.53 136.735,53.381C135.331,52.388 132.911,52.704 131.395,53.231C131.249,53.282 131.154,53.347 131.117,53.421Z" style="fill:white;fill-opacity:0.95;"/>
    <path d="M135.386,75.277C134.448,74.029 133.727,72.666 133.227,71.191C132.751,69.787 132.643,68.356 132.901,66.898C133.883,67.493 134.927,67.643 136.038,67.347C136.137,67.323 136.225,67.265 136.283,67.18C136.501,66.878 136.572,66.599 136.501,66.344C136.46,66.198 136.178,66.011 135.651,65.78C134.716,65.365 133.894,64.818 133.183,64.138C133.272,63.2 133.581,62.435 134.108,61.844C134.257,61.678 134.488,61.613 134.702,61.681L136.269,62.164C136.504,62.235 136.755,62.119 136.847,61.892C137.289,60.804 137.432,59.349 137.677,57.555C137.881,56.073 137.69,54.795 137.772,53.323C137.775,53.279 137.775,53.231 137.768,53.187L137.5,50.859C137.972,50.988 138.435,51.127 138.89,51.273C139.407,51.44 139.872,51.555 140.287,51.623C142.506,51.984 144.182,52.283 145.321,52.521C146.657,52.803 147.449,53.591 147.697,54.883C147.792,55.376 147.704,56.215 147.432,57.402C147.166,58.554 146.215,60.478 145.834,62.085C145.44,63.758 145.28,65.529 144.648,67.095C143.516,69.886 141.269,71.123 138.458,71.851C136.49,72.36 135.413,73.139 135.386,75.277ZM144.699,57.116C144.699,57.048 144.658,56.963 144.57,56.868C143.666,55.879 142.014,54.689 140.589,54.859C140.375,54.886 140.314,55.169 140.498,55.281C141.198,55.719 141.932,55.835 142.642,56.161C143.363,56.487 143.978,56.841 144.495,57.221C144.58,57.283 144.699,57.221 144.699,57.116ZM140.424,57.353C140.137,57.276 139.747,57.779 139.555,58.483C139.362,59.186 139.441,59.818 139.728,59.897C140.015,59.975 140.406,59.472 140.598,58.768C140.79,58.064 140.712,57.432 140.424,57.353Z" style="fill:white;fill-opacity:0.75;fill-rule:nonzero;"/>
    <path d="M131.117,53.421C131.154,53.347 131.249,53.282 131.395,53.231C132.911,52.704 135.331,52.388 136.735,53.381C136.946,53.53 136.851,53.86 136.592,53.877C135.603,53.938 134.764,53.642 133.829,53.581C132.884,53.517 132.031,53.54 131.273,53.646C131.147,53.663 131.059,53.53 131.117,53.421Z" style="fill:white;fill-opacity:0.15;fill-rule:nonzero;"/>
    <path d="M144.699,57.116C144.699,57.221 144.58,57.283 144.495,57.221C143.978,56.841 143.363,56.487 142.642,56.161C141.932,55.835 141.198,55.719 140.498,55.281C140.314,55.169 140.375,54.886 140.589,54.859C142.014,54.689 143.666,55.879 144.57,56.868C144.658,56.963 144.699,57.048 144.699,57.116Z" style="fill:white;fill-opacity:0.15;fill-rule:nonzero;"/>
    <path d="M134.477,55.262C134.808,55.359 134.91,56.018 134.702,56.739C134.495,57.459 134.057,57.966 133.725,57.868C133.394,57.772 133.292,57.113 133.5,56.392C133.707,55.672 134.145,55.165 134.477,55.262Z" style="fill:white;fill-opacity:0.15;fill-rule:nonzero;"/>
    <path d="M140.424,57.353C140.712,57.432 140.79,58.064 140.598,58.768C140.406,59.472 140.015,59.975 139.728,59.897C139.441,59.818 139.362,59.186 139.555,58.483C139.747,57.779 140.137,57.276 140.424,57.353Z" style="fill:white;fill-opacity:0.15;fill-rule:nonzero;"/>
    <path d="M119.785,79.687C120.111,79.596 120.525,79.521 120.607,79.508C120.495,79.525 120.298,79.604 120.016,79.736C119.934,79.775 119.846,79.757 119.785,79.706L119.785,79.687Z" style="fill:white;fill-opacity:0.4;"/>
    <path d="M119.77,79.691C119.775,79.69 119.78,79.688 119.785,79.687L119.785,79.706C119.78,79.701 119.775,79.696 119.77,79.691Z" style="fill:white;fill-opacity:0.4;"/>
    <path d="M119.783,63.483C119.806,63.638 119.849,63.778 119.91,63.9C119.944,63.972 120.05,63.968 120.08,63.894C120.804,62.198 121.185,60.294 121.222,58.18L122.439,59.526C122.572,59.676 122.654,59.859 122.677,60.056C122.997,62.805 123.441,65.376 125.308,67.544C126.154,68.527 126.67,69.213 126.851,69.604C127.385,70.757 127.626,71.868 127.568,72.938C127.469,74.777 126.966,76.667 126.035,78.604C125.981,78.717 125.872,78.79 125.75,78.798C124.733,78.862 123.017,79.104 120.607,79.508C120.525,79.521 120.111,79.596 119.785,79.687L119.783,63.483Z" style="fill:white;fill-opacity:0.4;"/>
    <path d="M133.183,64.138C133.894,64.818 134.716,65.365 135.651,65.78C136.178,66.011 136.46,66.198 136.501,66.344C136.572,66.599 136.501,66.878 136.283,67.18C136.225,67.265 136.137,67.323 136.038,67.347C134.927,67.643 133.883,67.493 132.901,66.898C131.64,66.117 130.919,64.958 130.739,63.425C130.729,63.336 130.78,63.204 130.885,63.024C131.018,62.796 131.321,62.738 131.528,62.894L133.183,64.138Z" style="fill:white;fill-opacity:0.15;fill-rule:nonzero;"/>
    <path d="M158.135,116.095C158.159,116.214 158.196,116.329 158.247,116.438C159.787,119.97 161.31,123.066 162.815,125.721C163.213,126.417 164.287,128.379 166.044,131.601C168.308,135.751 170.874,139.554 173.74,143.004C175.993,145.717 177.387,147.525 177.92,148.433C178.039,148.64 178.145,148.854 178.233,149.078C178.586,149.993 178.913,150.764 179.215,151.393C179.752,152.515 180.041,153.793 180.279,155.04C179.467,156.09 178.678,157.487 177.913,159.234C176.163,163.238 175.629,167.089 176.775,171.376C177.427,173.819 178.274,175.934 179.317,177.715C180.857,180.345 182.822,183.751 185.208,187.928C187.849,192.554 189.419,197.656 189.912,203.227C190.14,205.776 190.333,208.268 190.496,210.705C188.807,211.374 187.335,212.408 186.074,213.805C186.013,213.869 185.938,213.92 185.857,213.951C185.721,214.002 185.619,214.009 185.551,213.964C183.634,213.071 181.764,212.377 179.943,211.888C177.193,211.15 173.532,210.8 170.66,211.623C170.466,209.406 170.84,207.238 171.785,205.117C173.08,202.211 174.773,199.855 176.86,198.044C177.896,197.14 179.022,196.14 180.235,195.046C180.405,194.893 180.418,194.631 180.266,194.461C178.93,192.962 175.412,193.057 173.559,193.486C171.704,193.917 170.218,194.835 169.1,196.242C166.49,199.533 165.12,203.486 164.994,208.098C164.759,207.554 160.528,178.415 159.552,173.194C158.373,166.906 157.156,162.11 155.895,155.689C154.804,150.152 153.482,144.762 151.928,139.517C150.824,135.795 149.614,132.831 148.101,128.943C147.398,127.135 146.51,125.388 145.44,123.702C144.954,122.937 144.665,122.478 144.57,122.325C144.525,122.254 144.515,122.169 144.542,122.091L149.818,105.541C149.879,105.347 150.12,105.286 150.266,105.426C150.579,105.725 150.644,106.19 150.875,106.571C152.326,108.967 153.635,110.908 154.794,112.4C155.936,113.869 156.959,115 157.866,115.796C157.972,115.888 158.06,115.986 158.135,116.095Z" style="fill:white;fill-opacity:0.2;fill-rule:nonzero;"/>
    <path d="M121.236,126.761C121.243,126.574 121.396,126.428 121.583,126.434C129.172,126.686 136.751,125.775 143.944,122.886C144.182,122.79 144.124,122.434 143.866,122.424L122.476,121.526C122.361,121.523 122.266,121.441 122.242,121.329C121.379,117.308 120.692,113.226 120.186,109.09C120.007,106.827 119.874,105.04 119.789,103.727L119.798,172.928C120.228,158.29 121.236,126.761 121.236,126.761Z" style="fill:white;fill-opacity:0.5;"/>
    <path d="M119.788,101.241C119.838,100.92 119.921,100.991 120.036,101.457C120.542,105.593 121.379,117.308 122.242,121.329C121.379,117.308 120.692,113.226 120.186,109.09C120.007,106.827 119.874,105.04 119.789,103.727L119.788,101.241Z" style="fill:white;fill-opacity:0.5;"/>
    <path d="M168.702,114.297L173.763,129.262C173.838,129.48 173.943,129.687 174.073,129.874C176.948,133.956 178.712,138.259 180.792,143.171C181.36,144.51 182.638,146.189 183.923,147.668C186.278,150.367 188.362,152.613 188.851,156.369C189.055,157.929 188.382,159.102 187.526,160.472C184.824,164.788 181.618,160.761 180.69,157.776L180.279,155.04C180.041,153.793 179.752,152.515 179.215,151.393C178.913,150.764 178.586,149.993 178.233,149.078C178.145,148.854 178.039,148.64 177.92,148.433C177.387,147.525 175.993,145.717 173.74,143.004C170.874,139.554 168.308,135.751 166.044,131.601C164.287,128.379 163.213,126.417 162.815,125.721C161.31,123.066 159.787,119.97 158.247,116.438C158.196,116.329 158.159,116.214 158.135,116.095L158.312,116.068C158.397,116.054 158.485,116.068 158.563,116.108C159.814,116.768 160.701,117.315 162.261,117.06C162.669,116.996 164.202,116.662 166.857,116.064C167.363,115.952 167.73,115.697 167.961,115.306C168.216,114.875 168.461,114.538 168.702,114.297Z" style="fill:white;fill-opacity:0.75;fill-rule:nonzero;"/>
    <path d="M103,133.963C102.419,135.479 101.603,136.638 100.56,137.444C99.401,138.338 98.058,138.718 96.525,138.579C94.309,138.382 92.671,137.155 91.607,134.895C91.543,134.755 91.332,134.803 91.332,134.956L91.332,135.149C91.294,134.813 91.192,134.643 91.019,134.646C87.365,134.697 83.484,134.697 79.374,134.64C77.121,134.609 76.808,133.718 76.998,131.652C77.124,130.282 77.712,129.769 79.204,129.81C83.035,129.915 87.056,129.942 91.274,129.888C91.478,129.884 91.665,129.765 91.75,129.579C92.535,127.879 93.932,126.798 95.934,126.333C98.738,125.68 101.811,127.583 102.708,130.238C103.16,131.574 103.255,132.818 103,133.963ZM99.258,132.478C99.224,133.457 99.119,134.154 98.266,134.691C98.177,134.745 98.075,134.779 97.97,134.786C96.824,134.871 95.502,134.83 94.003,134.66C93.867,134.643 93.772,134.704 93.714,134.844C93.704,134.867 93.697,134.895 93.701,134.925C93.704,134.979 93.728,135.027 93.762,135.064C96.44,137.845 101.019,136.72 101.151,132.539C101.284,128.358 96.787,126.944 93.939,129.548C93.901,129.585 93.874,129.633 93.867,129.684C93.864,129.714 93.867,129.742 93.878,129.765C93.925,129.908 94.017,129.976 94.153,129.969C95.662,129.895 96.984,129.935 98.119,130.095C98.225,130.109 98.323,130.146 98.408,130.211C99.224,130.799 99.289,131.502 99.258,132.478Z" style="fill:white;fill-opacity:0.5;fill-rule:nonzero;"/>
    <path d="M101.151,132.539C101.019,136.72 96.44,137.845 93.762,135.064C93.728,135.027 93.704,134.979 93.701,134.925C93.697,134.895 93.704,134.867 93.714,134.844C93.772,134.704 93.867,134.643 94.003,134.66C95.502,134.83 96.824,134.871 97.97,134.786C98.075,134.779 98.177,134.745 98.266,134.691C99.119,134.154 99.224,133.457 99.258,132.478C99.289,131.502 99.224,130.799 98.408,130.211C98.323,130.146 98.225,130.109 98.119,130.095C96.984,129.935 95.662,129.895 94.153,129.969C94.017,129.976 93.925,129.908 93.878,129.765C93.867,129.742 93.864,129.714 93.867,129.684C93.874,129.633 93.901,129.585 93.939,129.548C96.787,126.944 101.284,128.358 101.151,132.539Z" style="fill:white;fill-opacity:0.25;fill-rule:nonzero;"/>
    <path d="M103,133.963C103.038,135 102.711,136.006 102.028,136.978C99.095,141.142 92.715,140.058 91.332,135.149L91.332,134.956C91.332,134.803 91.543,134.755 91.607,134.895C92.671,137.155 94.309,138.382 96.525,138.579C98.058,138.718 99.401,138.338 100.56,137.444C101.603,136.638 102.419,135.479 103,133.963Z" style="fill:white;fill-opacity:0.25;fill-rule:nonzero;"/>
    <path d="M57.267,144.561C57.267,144.5 57.322,144.449 57.386,144.452L99.999,147.559C100.128,147.569 100.23,147.678 100.23,147.807L100.23,250.493C100.23,250.67 100.06,250.796 99.89,250.745L57.75,237.74C57.465,237.652 57.267,237.387 57.267,237.088L57.267,144.561Z" style="fill:white;fill-opacity:0.5;fill-rule:nonzero;"/>
    <path d="M157.061,241.856C157.085,241.975 157.081,242.067 157.054,242.132C157.027,242.196 156.952,242.227 156.826,242.223C144.519,242.206 132.221,242.206 119.934,242.23C119.88,242.23 119.833,242.201 119.808,242.158L119.803,209.01C119.847,208.839 119.917,208.674 120.012,208.523C123.147,203.514 126.058,198.205 128.754,192.595C129.199,191.67 129.527,190.696 129.74,189.672C130.66,185.245 131.12,181.443 131.137,178.272C131.151,175.611 131.222,173.541 131.351,172.055C131.504,170.295 131.627,167.168 131.725,162.674C131.758,161.148 132.092,159.268 132.109,157.572C132.137,154.778 132.058,153.222 132.289,150.56C132.415,149.116 132.52,147.338 132.609,145.221C132.612,145.142 132.67,145.078 132.748,145.068C132.826,145.057 132.901,145.105 132.925,145.18C133.266,146.254 133.768,147.148 134.111,148.32C134.695,150.316 135.144,152.131 135.722,153.952C137.118,158.351 138.202,161.872 138.975,164.52C140.651,170.258 141.687,173.804 142.177,175.125C142.183,175.142 143.544,179.661 146.242,188.683C147.021,191.29 147.647,193.819 148.118,196.273C149.257,202.207 150.22,207.234 151.014,211.357C151.385,213.285 151.871,215.229 152.197,216.945C153.775,225.256 155.395,233.559 157.061,241.856Z" style="fill:white;fill-opacity:0.2;"/>
    <path d="M165.313,211.4L165.306,211.378C165.123,209.971 164.933,208.395 164.994,208.098C165.12,203.486 166.49,199.533 169.1,196.242C170.218,194.835 171.704,193.917 173.559,193.486C175.412,193.057 178.93,192.962 180.266,194.461C180.418,194.631 180.405,194.893 180.235,195.046C179.022,196.14 177.896,197.14 176.86,198.044C174.773,199.855 173.08,202.211 171.785,205.117C170.84,207.238 170.466,209.406 170.66,211.623L170.711,212.238C170.725,212.387 170.663,212.534 170.551,212.629L167.853,214.943C167.672,215.096 167.407,215.086 167.237,214.923L166.187,213.907L165.327,211.442L165.313,211.4Z" style="fill:white;fill-opacity:0.75;"/>
    <path d="M210.741,210.311C210.805,210.953 210.897,211.412 211.013,211.687C211.601,213.088 212.209,214.512 212.831,215.963C213.473,217.455 214.109,218.288 215.193,219.406C215.367,219.583 215.465,219.814 215.496,220.103C215.302,220.725 215.373,226.789 215.401,227.322C215.438,228.128 215.309,229.134 215.013,230.341C214.989,230.449 214.942,230.551 214.874,230.64C213.045,233.118 211.988,234.763 209.979,236.183L207.729,236.411L205.836,236.048L207.005,235.269L208.637,234.909C208.728,234.888 208.796,234.81 208.807,234.719C208.837,234.477 208.97,234.283 209.204,234.141C209.32,234.069 209.378,233.92 209.337,233.791C209.296,233.665 209.167,233.597 209.041,233.638C209.021,233.644 208.99,233.668 208.953,233.709C208.902,233.77 208.827,233.801 208.749,233.797C207.097,233.726 205.622,233.4 204.327,232.822C203.429,232.421 202.753,232.635 202.301,233.468C201.907,234.552 200.027,234.402 199.041,234.321C197.491,233.672 195.581,232.934 194.443,231.772C193.892,231.211 193.433,230.602 193.063,229.94C192.475,228.879 192.097,227.367 191.934,225.399C191.927,225.307 191.781,222.962 191.781,222.962C191.781,222.839 191.747,222.72 191.683,222.618C191.577,222.458 191.448,222.319 191.295,222.2C191.292,222.095 191.309,222 191.343,221.915C191.384,221.806 191.513,221.752 191.618,221.802C191.683,221.833 191.734,221.85 191.764,221.847C191.856,221.84 191.938,221.782 191.972,221.694C192.267,220.898 192.458,220.11 192.549,219.325C192.549,219.311 192.553,219.297 192.556,219.284L194.439,211.697C195.027,211.273 195.608,211.004 196.179,210.892C196.876,210.752 197.396,210.61 197.733,210.457C199.898,210.124 201.662,209.954 203.018,209.947C203.514,209.944 203.932,209.92 204.269,209.876C205.9,209.658 207.743,209.651 208.79,209.76C209.177,209.801 209.826,209.984 210.741,210.311ZM210.607,221.342C209.887,221.208 209.15,221.935 208.958,222.963C208.766,223.991 209.191,224.936 209.909,225.071C210.628,225.205 211.366,224.477 211.558,223.449C211.75,222.421 211.325,221.476 210.607,221.342ZM200.528,222.147C199.793,222.306 199.374,223.261 199.595,224.283C199.813,225.307 200.588,226.007 201.321,225.849C202.056,225.691 202.474,224.736 202.254,223.713C202.036,222.69 201.261,221.989 200.528,222.147ZM205.261,229.576C205.683,230.378 206.349,231.15 207.263,231.894C207.355,231.969 207.481,231.982 207.583,231.931C208.677,231.388 209.486,230.602 210.013,229.579C210.064,229.477 210.098,229.365 210.115,229.25C210.221,228.451 209.928,228.006 209.242,227.917C207.855,227.744 206.023,227.703 205.258,229.239C205.204,229.345 205.207,229.471 205.261,229.576Z" style="fill:white;fill-opacity:0.95;fill-rule:nonzero;"/>
    <path d="M215.496,220.103C215.465,219.814 215.367,219.583 215.193,219.406C214.109,218.288 213.473,217.455 212.831,215.963C212.209,214.512 211.601,213.088 211.013,211.687C210.897,211.412 210.805,210.953 210.741,210.311C211.706,210.029 212.688,209.954 213.684,210.086C213.793,210.103 213.902,210.134 214,210.178C216.957,211.504 219.554,213.312 221.787,215.603C222.131,215.953 222.27,216.497 222.202,217.227C222.076,218.577 221.916,219.709 221.723,220.626C221.478,221.775 221.322,222.479 221.257,222.737C220.961,223.906 220.472,225.12 219.785,226.374C219.676,226.571 219.401,226.595 219.262,226.418C219.007,226.106 218.715,225.654 218.378,225.059C218.021,224.43 217.256,222.846 216.077,220.314C216.057,220.27 216.026,220.232 215.985,220.202C215.853,220.106 215.689,220.072 215.496,220.103Z" style="fill:white;fill-opacity:0.75;fill-rule:nonzero;"/>
    <path d="M190.496,210.705L192.597,210.936C192.628,210.939 192.658,210.95 192.685,210.96L194.439,211.697L192.556,219.284C192.553,219.297 192.549,219.311 192.549,219.325C192.458,220.11 192.267,220.898 191.972,221.694C191.938,221.782 191.856,221.84 191.764,221.847C191.734,221.85 191.683,221.833 191.618,221.802C191.513,221.752 191.384,221.806 191.343,221.915C191.309,222 191.292,222.095 191.295,222.2C191.105,222.275 190.874,222.486 190.598,222.829C189.976,223.611 189.273,224.766 189.46,225.762C190.371,230.579 192.984,234.168 197.298,236.53C198.205,237.026 199.062,237.326 199.867,237.431C200.238,237.727 200.632,237.846 201.057,237.788C202.654,237.577 204.249,236.996 205.836,236.048L207.729,236.411C206.699,238.304 205.435,239.977 203.932,241.428C203.814,241.54 203.735,241.693 203.691,241.88C203.586,241.863 203.497,241.887 203.429,241.945C201.835,243.365 199.969,244.351 197.831,244.902L197.597,243.855C197.566,243.722 197.502,243.597 197.41,243.498C192.913,238.644 190.106,232.924 188.98,226.34C188.953,226.187 188.746,226.163 188.685,226.306C188.287,227.261 188.059,227.995 187.502,228.492C187.264,228.702 186.887,228.624 186.754,228.335C186.475,227.734 186.166,227.458 185.915,227.047C184.341,224.474 183.352,222.703 182.944,221.738C182.539,220.776 182.268,219.977 182.128,219.342C181.883,218.196 182.907,216.833 183.746,216.102C183.76,216.092 183.773,216.079 183.787,216.065L185.551,213.964C185.619,214.009 185.721,214.002 185.857,213.951C185.938,213.92 186.013,213.869 186.074,213.805C187.335,212.408 188.807,211.374 190.496,210.705Z" style="fill:white;fill-opacity:0.75;fill-rule:nonzero;"/>
    <path d="M165.31,211.406C165.311,211.404 165.312,211.402 165.313,211.4L165.327,211.442L166.187,213.907C166.034,213.992 165.939,214.029 165.905,214.015C165.718,213.944 165.616,213.808 165.596,213.608C165.566,213.308 165.44,212.402 165.31,211.406Z" style="fill:white;fill-opacity:0.25;"/>
    <path d="M157.061,241.856C157.285,242.964 157.506,244.072 157.727,245.184C157.843,245.772 158.098,246.261 158.488,246.649C158.322,246.843 158.094,246.938 157.805,246.938C145.691,246.958 133.577,246.965 121.464,246.958C121.447,246.958 121.202,246.948 120.729,246.924C120.366,246.907 120.046,246.941 119.767,247.033L119.774,219.872L119.788,242.084C119.788,242.166 119.852,242.23 119.934,242.23C132.221,242.206 144.519,242.206 156.826,242.223C156.952,242.227 157.027,242.196 157.054,242.132C157.081,242.067 157.085,241.975 157.061,241.856Z" style="fill:white;fill-opacity:0.35;fill-rule:nonzero;"/>
    <path d="M210.607,221.342C211.325,221.476 211.75,222.421 211.558,223.449C211.366,224.477 210.628,225.205 209.909,225.071C209.191,224.936 208.766,223.991 208.958,222.963C209.15,221.935 209.887,221.208 210.607,221.342Z" style="fill:white;fill-opacity:0.15;fill-rule:nonzero;"/>
    <path d="M200.528,222.147C201.261,221.989 202.036,222.69 202.254,223.713C202.474,224.736 202.056,225.691 201.321,225.849C200.588,226.007 199.813,225.307 199.595,224.283C199.374,223.261 199.793,222.306 200.528,222.147Z" style="fill:white;fill-opacity:0.15;fill-rule:nonzero;"/>
    <path d="M191.295,222.2C191.448,222.319 191.577,222.458 191.683,222.618C191.747,222.72 191.781,222.839 191.781,222.962C191.781,222.962 191.927,225.307 191.934,225.399C192.097,227.367 192.475,228.879 193.063,229.94C193.433,230.602 193.892,231.211 194.443,231.772C195.581,232.934 197.491,233.672 199.041,234.321C197.845,235.242 197.869,236.455 199.215,237.071C199.432,237.169 199.65,237.292 199.867,237.431C199.062,237.326 198.205,237.026 197.298,236.53C192.984,234.168 190.371,230.579 189.46,225.762C189.273,224.766 189.976,223.611 190.598,222.829C190.874,222.486 191.105,222.275 191.295,222.2Z" style="fill:white;fill-opacity:0.25;fill-rule:nonzero;"/>
    <path d="M185.201,239.929C182.271,238.6 179.467,237.02 176.792,235.188C176.693,235.12 176.574,235.089 176.452,235.099L174.871,235.252C174.984,234.916 175.123,234.583 175.296,234.253C175.952,232.999 176.285,231.49 176.887,229.511C178.189,225.225 180.629,229.454 181.397,230.946C182.645,233.362 183.902,236.245 185.167,239.599C185.242,239.797 185.252,239.905 185.201,239.929Z" style="fill:white;fill-opacity:0.75;fill-rule:nonzero;"/>
    <path d="M205.258,229.239C206.023,227.703 207.855,227.744 209.242,227.917C209.928,228.006 210.221,228.451 210.115,229.25C210.098,229.365 210.064,229.477 210.013,229.579C209.486,230.602 208.677,231.388 207.583,231.931C207.481,231.982 207.355,231.969 207.263,231.894C206.349,231.15 205.683,230.378 205.261,229.576C205.207,229.471 205.204,229.345 205.258,229.239Z" style="fill:white;fill-opacity:0.15;fill-rule:nonzero;"/>
    <path d="M207.005,235.269L203.192,233.373C203.09,233.322 202.967,233.322 202.865,233.373C202.644,233.485 202.454,233.515 202.301,233.468C202.753,232.635 203.429,232.421 204.327,232.822C205.622,233.4 207.097,233.726 208.749,233.797C208.827,233.801 208.902,233.77 208.953,233.709C208.99,233.668 209.021,233.644 209.041,233.638C209.167,233.597 209.296,233.665 209.337,233.791C209.378,233.92 209.32,234.069 209.204,234.141C208.97,234.283 208.837,234.477 208.807,234.719C208.796,234.81 208.728,234.888 208.637,234.909L207.005,235.269Z" style="fill:white;fill-opacity:0.15;fill-rule:nonzero;"/>
    <path d="M207.005,235.269L205.836,236.048C204.249,236.996 202.654,237.577 201.057,237.788C200.632,237.846 200.238,237.727 199.867,237.431C199.65,237.292 199.432,237.169 199.215,237.071C197.869,236.455 197.845,235.242 199.041,234.321C200.027,234.402 201.907,234.552 202.301,233.468C202.454,233.515 202.644,233.485 202.865,233.373C202.967,233.322 203.09,233.322 203.192,233.373L207.005,235.269Z" style="fill:white;fill-opacity:0.5;fill-rule:nonzero;"/>
    <path d="M185.201,239.929L186.282,242.159L169.127,242.203C169.151,241.381 169.137,240.85 169.08,240.612C168.889,239.814 168.784,239.246 168.767,238.913C168.692,237.404 168.543,236.972 168.332,235.412C168.322,235.33 168.39,235.259 168.471,235.273C170.653,235.565 172.788,235.558 174.871,235.252L176.452,235.099C176.574,235.089 176.693,235.12 176.792,235.188C179.467,237.02 182.271,238.6 185.201,239.929Z" style="fill:white;fill-opacity:0.25;fill-rule:nonzero;"/>
    <path d="M209.979,236.183C210.955,237.805 211.808,239.698 212.535,241.856C213.259,244.001 214.187,246.074 215.322,248.073C216.172,250.129 217.525,252.92 219.078,253.627C220.9,254.453 223.609,255.728 224.075,257.791C224.435,259.385 222.368,260.476 221.06,260.863C221.026,260.874 220.992,260.88 220.954,260.88L218.925,260.894C218.81,260.897 218.698,260.874 218.592,260.826C217.494,260.34 216.512,259.636 215.652,258.708C213.83,256.751 212.107,254.596 210.479,252.244C209.197,250.391 207.981,248.556 206.828,246.73L203.691,241.88C203.735,241.693 203.814,241.54 203.932,241.428C205.435,239.977 206.699,238.304 207.729,236.411L209.979,236.183Z" style="fill:white;fill-opacity:0.5;fill-rule:nonzero;"/>
    <path d="M189.038,246.87L168.196,246.904C168.794,245.949 169.865,245.616 169.47,244.236C169.26,243.498 169.144,242.818 169.127,242.203L186.282,242.159L189.038,246.87Z" style="fill:white;fill-opacity:0.35;fill-rule:nonzero;"/>
    <path d="M206.828,246.73C207.981,248.556 209.197,250.391 210.479,252.244C212.107,254.596 213.83,256.751 215.652,258.708C216.512,259.636 217.494,260.34 218.592,260.826C218.698,260.874 218.81,260.897 218.925,260.894L220.954,260.88C220.992,260.88 221.026,260.874 221.06,260.863C222.368,260.476 224.435,259.385 224.075,257.791C223.609,255.728 220.9,254.453 219.078,253.627C217.525,252.92 216.172,250.129 215.322,248.073C220.676,248.62 227.052,249.698 234.452,251.309C246.059,253.834 257.568,258.151 267.286,264.854C270.294,266.927 272.948,269.286 275.249,271.927C278.519,275.683 280.365,281.111 276.544,285.213C273.21,288.793 267.84,290.71 262.928,292.008C259.672,292.868 256.538,293.531 253.53,293.996C246.712,295.053 239.826,295.781 232.868,296.179C230.767,296.297 229.411,296.393 228.799,296.461C226.957,296.668 225.39,296.552 223.361,296.729C221.158,296.923 218.585,296.818 216.859,297.018C213.959,297.358 211.108,297.157 208.147,297.44C205.428,297.701 203.382,297.467 200.622,297.742C199.055,297.898 197.644,297.97 196.383,297.953C193.549,297.919 191.146,298.228 188.307,298.265C186.516,298.289 185.34,298.337 184.776,298.401C182.033,298.728 179.191,298.52 176.367,298.752C174.365,298.911 173.107,298.986 172.591,298.972C171.398,298.942 169.375,298.932 167.547,299.105C164.205,299.421 160.902,299.183 157.744,299.445C155.949,299.594 153.624,299.656 150.766,299.625C147.319,299.588 143.465,300.009 140.216,299.999C129.682,299.968 120.682,299.968 113.211,299.999C110.434,300.009 108.174,299.945 106.423,299.809C103.357,299.571 100.597,299.659 97.362,299.503C93.344,299.306 89.863,299.112 86.92,298.918C85.118,298.799 83.433,298.796 81.859,298.908C79.769,299.054 78.643,299.139 78.487,299.156C75.741,299.469 72.308,299.21 70.075,299.377C68.348,299.506 66.672,299.513 65.044,299.397C62.573,299.221 59.266,299.435 56.353,299.115C56.309,299.112 55.092,299.02 52.706,298.847C48.59,298.544 44.219,297.926 40.504,297.239C36.704,296.542 33.315,295.543 30.337,294.248C23.726,291.376 21.072,286.012 21.337,278.82C21.69,269.184 25.62,260.734 33.645,255.17C37.53,252.475 41.564,250.452 45.748,249.103C46.408,248.889 47.179,248.766 48.06,248.736L48.056,249.949C48.053,250.469 48.389,250.928 48.886,251.085C50.806,251.686 52.682,252.332 54.507,253.022C55.915,253.556 57.162,254.018 58.246,254.409C66.92,257.556 74.555,260.357 81.611,262.94C92.005,266.747 100.081,269.684 105.839,271.747C106.454,271.968 107.229,272.141 108.16,272.267L119.56,272.393C119.699,272.396 119.812,272.284 119.812,272.144L119.767,247.033C120.046,246.941 120.366,246.907 120.729,246.924C121.202,246.948 121.447,246.958 121.464,246.958C133.577,246.965 145.691,246.958 157.805,246.938C158.094,246.938 158.322,246.843 158.488,246.649C159.325,247.223 160.062,247.546 160.698,247.621C160.942,247.818 161.075,247.978 161.099,248.1C161.415,249.807 161.626,251.523 161.731,253.25C161.772,253.912 161.446,254.8 160.752,255.904C160.382,256.547 160.167,257.475 160.11,258.691C160.045,259.973 160.127,261.152 160.351,262.223C160.371,262.328 160.443,262.417 160.541,262.464C161.442,262.889 178.855,263.484 180.32,263.623C180.442,263.637 180.568,263.596 180.66,263.515C181.343,262.927 181.703,262.203 181.744,261.343C181.751,261.19 181.69,261.04 181.578,260.935C181.336,260.71 181.163,260.455 181.064,260.167C181.03,260.071 180.959,259.993 180.867,259.952L177.094,258.222C176.452,258.199 175.996,258.103 175.721,257.94C173.801,256.808 172.125,255.88 170.694,255.156C169.715,254.66 168.899,254.082 168.243,253.42C168.141,253.314 168.084,253.175 168.084,253.029C168.087,252.142 167.988,251.17 167.791,250.112C167.547,248.797 167.649,247.713 168.101,246.86C168.131,246.873 168.165,246.887 168.196,246.904L189.038,246.87C190.86,249.545 192.692,252.346 194.534,255.279C196.7,258.725 198.668,261.424 201.03,264.239C202.58,266.088 204.432,268.083 207.104,267.566C208.433,267.308 210.53,266.285 210.329,264.657C210.078,262.6 206.584,261.139 204.996,260.34C204.782,260.231 204.592,260.078 204.442,259.891C203.729,258.997 203.27,258.352 203.062,257.954C201.22,254.412 199.239,250.432 198.141,246.482C199.133,246.343 199.871,246.295 200.35,246.346C202.464,246.567 204.622,246.693 206.828,246.73ZM142.442,269.147C142.748,268.786 142.7,268.249 142.341,267.944L139.179,265.272C138.819,264.969 138.282,265.013 137.977,265.373L137.942,265.415C137.636,265.775 137.683,266.312 138.043,266.617L141.205,269.289C141.565,269.592 142.102,269.548 142.407,269.188L142.442,269.147ZM136.755,268.219C137.262,268.637 137.779,268.99 138.309,269.283C138.907,269.612 139.675,269.184 139.577,268.508C139.56,268.395 139.515,268.29 139.441,268.205C138.975,267.651 138.469,267.291 137.908,266.825C137.343,266.363 136.895,265.931 136.266,265.574C136.167,265.52 136.055,265.493 135.943,265.5C135.26,265.53 134.981,266.363 135.416,266.89C135.804,267.355 136.249,267.797 136.755,268.219ZM253.336,267.531C253.364,267.046 252.99,266.631 252.504,266.604L252.45,266.601C251.963,266.574 251.549,266.947 251.523,267.433L251.223,272.978C251.195,273.463 251.569,273.878 252.054,273.905L252.109,273.908C252.595,273.936 253.01,273.562 253.035,273.077L253.336,267.531ZM254.608,270.805C254.139,271.74 253.578,272.807 253.476,273.864C253.442,274.242 253.707,274.582 254.084,274.636C255.107,274.782 255.576,273.151 256.321,271.665C257.065,270.176 258.088,268.824 257.357,268.093C257.089,267.824 256.657,267.814 256.375,268.069C255.593,268.783 255.073,269.874 254.608,270.805ZM247.484,270.966C247.157,270.605 246.6,270.578 246.24,270.903L246.2,270.939C245.838,271.264 245.811,271.822 246.137,272.182L248.931,275.274C249.258,275.635 249.815,275.662 250.174,275.337L250.215,275.301C250.576,274.976 250.604,274.418 250.278,274.058L247.484,270.966ZM63.227,272.088C63.134,271.631 62.685,271.336 62.227,271.431L62.167,271.444C61.71,271.539 61.414,271.985 61.51,272.444L62.225,275.899C62.318,276.356 62.767,276.652 63.226,276.556L63.285,276.543C63.742,276.448 64.038,276.002 63.943,275.543L63.227,272.088ZM69.922,273.009C69.606,272.648 69.058,272.614 68.699,272.928L66.008,275.283C65.649,275.598 65.612,276.145 65.927,276.506L65.958,276.542C66.275,276.903 66.822,276.937 67.182,276.623L69.872,274.268C70.231,273.953 70.268,273.405 69.953,273.045L69.922,273.009ZM57.709,276.278C58.471,276.716 60.299,277.858 60.843,276.777C60.993,276.478 60.836,276.074 60.476,275.832C59.949,275.479 59.331,275.102 58.624,274.694C57.917,274.286 57.278,273.939 56.71,273.66C56.322,273.47 55.894,273.538 55.711,273.817C55.048,274.83 56.948,275.839 57.709,276.278ZM171.781,285.128C172.105,284.772 172.074,284.221 171.719,283.899L171.673,283.858C171.316,283.538 170.765,283.565 170.444,283.921L167.86,286.781C167.536,287.137 167.567,287.688 167.922,288.01L167.968,288.051C168.325,288.371 168.876,288.344 169.197,287.988L171.781,285.128ZM163.442,284.876C163.254,284.449 162.757,284.255 162.331,284.443L162.282,284.465C161.857,284.653 161.663,285.149 161.849,285.576L163.004,288.209C163.193,288.636 163.689,288.83 164.115,288.642L164.165,288.62C164.59,288.432 164.783,287.936 164.598,287.509L163.442,284.876ZM42.994,285.685C42.73,285.305 42.207,285.21 41.826,285.475L41.781,285.506C41.401,285.771 41.306,286.294 41.571,286.675L43.227,289.058C43.491,289.438 44.015,289.534 44.396,289.269L44.441,289.237C44.82,288.973 44.916,288.449 44.651,288.069L42.994,285.685ZM160.98,288.288C161.218,287.895 161.089,287.382 160.694,287.146L157.666,285.334C157.272,285.098 156.762,285.227 156.524,285.621L156.493,285.674C156.255,286.067 156.384,286.58 156.779,286.816L159.807,288.628C160.201,288.864 160.711,288.735 160.949,288.341L160.98,288.288ZM42.09,289.679C42.38,289.319 42.326,288.793 41.966,288.503L38.707,285.864C38.349,285.574 37.822,285.628 37.531,285.987L37.497,286.03C37.207,286.39 37.261,286.916 37.62,287.206L40.88,289.845C41.238,290.135 41.765,290.081 42.056,289.722L42.09,289.679Z" style="fill:white;fill-opacity:0.15;fill-rule:nonzero;"/>
    <path d="M168.101,246.86C167.649,247.713 167.547,248.797 167.791,250.112C167.988,251.17 168.087,252.142 168.084,253.029C168.084,253.175 168.141,253.314 168.243,253.42C168.899,254.082 169.715,254.66 170.694,255.156C172.125,255.88 173.801,256.808 175.721,257.94C175.996,258.103 176.452,258.199 177.094,258.222C175.939,259.939 174.243,260.459 172.006,259.782C170.415,259.303 168.335,258.583 165.762,257.628C165.188,257.417 164.562,257.366 164.029,257.162C162.938,256.747 161.843,256.329 160.752,255.904C161.446,254.8 161.772,253.912 161.731,253.25C161.626,251.523 161.415,249.807 161.099,248.1C161.075,247.978 160.942,247.818 160.698,247.621C163.165,247.393 164.889,247.2 165.868,247.036C166.109,246.999 166.445,246.87 166.884,246.652C167.013,246.588 167.159,246.567 167.302,246.591C167.632,246.649 167.897,246.741 168.101,246.86Z" style="fill:white;fill-opacity:0.75;fill-rule:nonzero;"/>
    <path d="M160.752,255.904C161.843,256.329 162.938,256.747 164.029,257.162C164.562,257.366 165.188,257.417 165.762,257.628C168.335,258.583 170.415,259.303 172.006,259.782C174.243,260.459 175.939,259.939 177.094,258.222L180.867,259.952C180.959,259.993 181.03,260.071 181.064,260.167C181.163,260.455 181.336,260.71 181.578,260.935C181.69,261.04 181.751,261.19 181.744,261.343C181.703,262.203 181.343,262.927 180.66,263.515C180.568,263.596 180.442,263.637 180.32,263.623C178.855,263.484 161.442,262.889 160.541,262.464C160.443,262.417 160.371,262.328 160.351,262.223C160.127,261.152 160.045,259.973 160.11,258.691C160.167,257.475 160.382,256.547 160.752,255.904Z" style="fill:white;fill-opacity:0.95;fill-rule:nonzero;"/>
    <path d="M142.407,269.188C142.102,269.548 141.565,269.592 141.205,269.289L138.043,266.617C137.683,266.312 137.636,265.775 137.942,265.415L137.977,265.373C138.282,265.013 138.819,264.969 139.179,265.272L142.341,267.944C142.7,268.249 142.748,268.786 142.442,269.147L142.407,269.188Z" style="fill:white;fill-opacity:0.1;fill-rule:nonzero;"/>
    <path d="M137.908,266.825C138.469,267.291 138.975,267.651 139.441,268.205C139.515,268.29 139.56,268.395 139.577,268.508C139.675,269.184 138.907,269.612 138.309,269.283C137.779,268.99 137.262,268.637 136.755,268.219C136.249,267.797 135.804,267.355 135.416,266.89C134.981,266.363 135.26,265.53 135.943,265.5C136.055,265.493 136.167,265.52 136.266,265.574C136.895,265.931 137.343,266.363 137.908,266.825Z" style="fill:white;fill-opacity:0.1;fill-rule:nonzero;"/>
    <path d="M253.035,273.077C253.01,273.562 252.595,273.936 252.109,273.908L252.054,273.905C251.569,273.878 251.195,273.463 251.223,272.978L251.523,267.433C251.549,266.947 251.963,266.574 252.45,266.601L252.504,266.604C252.99,266.631 253.364,267.046 253.336,267.531L253.035,273.077Z" style="fill:white;fill-opacity:0.1;fill-rule:nonzero;"/>
    <path d="M256.321,271.665C255.576,273.151 255.107,274.782 254.084,274.636C253.707,274.582 253.442,274.242 253.476,273.864C253.578,272.807 254.139,271.74 254.608,270.805C255.073,269.874 255.593,268.783 256.375,268.069C256.657,267.814 257.089,267.824 257.357,268.093C258.088,268.824 257.065,270.176 256.321,271.665Z" style="fill:white;fill-opacity:0.1;fill-rule:nonzero;"/>
    <path d="M250.278,274.058C250.604,274.418 250.576,274.976 250.215,275.301L250.174,275.337C249.815,275.662 249.258,275.635 248.931,275.274L246.137,272.182C245.811,271.822 245.838,271.264 246.2,270.939L246.24,270.903C246.6,270.578 247.157,270.605 247.484,270.966L250.278,274.058Z" style="fill:white;fill-opacity:0.1;fill-rule:nonzero;"/>
    <path d="M63.943,275.543C64.038,276.002 63.742,276.448 63.285,276.543L63.226,276.556C62.767,276.652 62.318,276.356 62.225,275.899L61.51,272.444C61.414,271.985 61.71,271.539 62.167,271.444L62.227,271.431C62.685,271.336 63.134,271.631 63.227,272.088L63.943,275.543Z" style="fill:white;fill-opacity:0.1;fill-rule:nonzero;"/>
    <path d="M69.953,273.045C70.268,273.405 70.231,273.953 69.872,274.268L67.182,276.623C66.822,276.937 66.275,276.903 65.958,276.542L65.927,276.506C65.612,276.145 65.649,275.598 66.008,275.283L68.699,272.928C69.058,272.614 69.606,272.648 69.922,273.009L69.953,273.045Z" style="fill:white;fill-opacity:0.1;fill-rule:nonzero;"/>
    <path d="M58.624,274.694C59.331,275.102 59.949,275.479 60.476,275.832C60.836,276.074 60.993,276.478 60.843,276.777C60.299,277.858 58.471,276.716 57.709,276.278C56.948,275.839 55.048,274.83 55.711,273.817C55.894,273.538 56.322,273.47 56.71,273.66C57.278,273.939 57.917,274.286 58.624,274.694Z" style="fill:white;fill-opacity:0.1;fill-rule:nonzero;"/>
    <path d="M169.197,287.988C168.876,288.344 168.325,288.371 167.968,288.051L167.922,288.01C167.567,287.688 167.536,287.137 167.86,286.781L170.444,283.921C170.765,283.565 171.316,283.538 171.673,283.858L171.719,283.899C172.074,284.221 172.105,284.772 171.781,285.128L169.197,287.988Z" style="fill:white;fill-opacity:0.1;fill-rule:nonzero;"/>
    <path d="M164.598,287.509C164.783,287.936 164.59,288.432 164.165,288.62L164.115,288.642C163.689,288.83 163.193,288.636 163.004,288.209L161.849,285.576C161.663,285.149 161.857,284.653 162.282,284.465L162.331,284.443C162.757,284.255 163.254,284.449 163.442,284.876L164.598,287.509Z" style="fill:white;fill-opacity:0.1;fill-rule:nonzero;"/>
    <path d="M44.651,288.069C44.916,288.449 44.82,288.973 44.441,289.237L44.396,289.269C44.015,289.534 43.491,289.438 43.227,289.058L41.571,286.675C41.306,286.294 41.401,285.771 41.781,285.506L41.826,285.475C42.207,285.21 42.73,285.305 42.994,285.685L44.651,288.069Z" style="fill:white;fill-opacity:0.1;fill-rule:nonzero;"/>
    <path d="M160.949,288.341C160.711,288.735 160.201,288.864 159.807,288.628L156.779,286.816C156.384,286.58 156.255,286.067 156.493,285.674L156.524,285.621C156.762,285.227 157.272,285.098 157.666,285.334L160.694,287.146C161.089,287.382 161.218,287.895 160.98,288.288L160.949,288.341Z" style="fill:white;fill-opacity:0.1;fill-rule:nonzero;"/>
    <path d="M42.056,289.722C41.765,290.081 41.238,290.135 40.88,289.845L37.62,287.206C37.261,286.916 37.207,286.39 37.497,286.03L37.531,285.987C37.822,285.628 38.349,285.574 38.707,285.864L41.966,288.503C42.326,288.793 42.38,289.319 42.09,289.679L42.056,289.722Z" style="fill:white;fill-opacity:0.1;fill-rule:nonzero;"/>
</svg>
