<?xml version="1.0" encoding="UTF-8" standalone="no"?>
<!DOCTYPE svg PUBLIC "-//W3C//DTD SVG 1.1//EN" "http://www.w3.org/Graphics/SVG/1.1/DTD/svg11.dtd">
<svg width="100%" height="100%" viewBox="0 0 300 300" version="1.1" xmlns="http://www.w3.org/2000/svg" xmlns:xlink="http://www.w3.org/1999/xlink" xml:space="preserve" xmlns:serif="http://www.serif.com/" style="fill-rule:evenodd;clip-rule:evenodd;stroke-linejoin:round;stroke-miterlimit:2;">
    <path d="M265.661,143.554C265.231,143.51 258.261,141.523 256.691,140.389C256.618,140.335 256.059,140.035 255.013,139.488C254.691,139.317 254.343,139.201 253.986,139.137C252.852,138.938 251.658,138.676 250.397,138.357C249.001,138.003 247.219,137.968 246.22,137.94C245.942,137.93 245.664,137.889 245.396,137.817C243.301,137.251 241.693,136.714 240.568,136.199C236.748,134.452 233.759,131.204 232.454,127.062C232.195,126.237 232.037,125.728 231.977,125.539C231.55,124.155 232.091,119.128 232.113,118.591C232.397,117.482 232.972,116.297 233.838,115.043C233.98,114.84 234.223,114.733 234.467,114.768C235.342,114.891 236.489,114.853 237.911,114.66C239.705,114.417 241.054,113.485 241.961,111.858C243.355,109.362 242.084,103.924 238.334,104.243C238.246,104.25 238.16,104.278 238.088,104.325C236.483,105.365 234.934,106.126 233.446,106.613C233.348,106.645 233.25,106.663 233.149,106.667C228.35,106.875 229.212,101.406 228.501,98.423C228.028,96.436 227.38,94.427 226.558,92.398C225.165,88.957 222.641,86.878 218.988,86.161C217.784,85.924 216.413,85.741 214.874,85.618C214.325,85.57 213.601,85.292 212.707,84.777L211.247,83.633C211.178,83.58 211.121,83.513 211.073,83.441C210.464,82.464 210.132,81.763 210.075,81.33C209.471,76.825 211.822,73.027 215.137,70.357C217.86,68.164 221.825,66.417 225.269,65.697C232.751,64.126 239.898,64.686 246.707,67.374C249.058,68.303 251.339,69.7 253.554,71.561C258.35,75.599 261.02,81.656 261.768,87.804C261.809,88.139 261.949,88.452 262.167,88.708C263.847,90.654 265.92,91.956 268.584,91.883C270.11,91.842 272.167,91.425 273.825,90.992C275.996,90.423 277.983,90.066 279.781,89.924C284.438,89.554 288.366,91.036 291.563,94.376C295.8,98.799 298.422,104.43 299.197,110.414C299.44,112.3 299.285,114.114 298.732,115.855C297.446,119.883 293.354,122.957 289.55,124.562C289.282,124.676 289.032,124.831 288.811,125.02C287.301,126.325 286.347,127.08 284.697,127.447C284.223,127.551 283.734,127.646 283.231,127.725C282.091,127.905 281.203,128.24 280.565,128.736C280.16,129.049 279.939,129.554 279.901,130.253C279.863,130.957 279.806,131.817 279.727,132.831C279.667,133.624 279.475,134.461 279.152,135.336C277.923,138.698 275.664,141.115 272.378,142.591C271.945,142.787 271.25,142.983 270.299,143.175C269.655,143.305 268.947,143.39 268.173,143.428C267.336,143.469 266.498,143.51 265.661,143.554Z" style="fill:white;fill-opacity:0.25;fill-rule:nonzero;"/>
    <path d="M102.258,70.506C103.115,72.209 104.843,78.392 104.72,78.97C103.983,78.654 103.38,78.566 102.909,78.708C102.056,78.967 102.255,79.921 102.868,80.288C103.87,80.885 104.666,81.529 105.257,82.224L105.083,93.403C103.08,97.501 98.641,95.956 95.213,95.665L95.797,95.668C96.04,95.668 96.262,95.526 96.359,95.305C97.222,93.384 98.006,93.678 99.582,93.949C100.116,94.041 100.467,94.06 100.634,94.013C101.339,93.807 101.68,93.292 101.655,92.468C101.598,90.607 101.336,88.584 100.871,86.404C100.606,85.163 100.056,83.014 99.219,79.956C98.941,78.945 98.47,78.098 98.195,77.248C97.579,75.365 96.799,73.476 95.851,71.577C95.807,71.491 95.721,71.431 95.626,71.425L95.282,71.4L102.258,70.506ZM104.024,84.705C103.589,84.708 103.244,85.532 103.254,86.545C103.263,87.558 103.626,88.373 104.063,88.37C104.498,88.366 104.843,87.542 104.833,86.529C104.824,85.517 104.461,84.701 104.024,84.705Z" style="fill:white;fill-opacity:0.75;fill-rule:nonzero;"/>
    <path d="M95.282,71.4L95.626,71.425C95.721,71.431 95.807,71.491 95.851,71.577C96.799,73.476 97.579,75.365 98.195,77.248C98.47,78.098 98.941,78.945 99.219,79.956C100.056,83.014 100.606,85.163 100.871,86.404C101.336,88.584 101.598,90.607 101.655,92.468C101.68,93.292 101.339,93.807 100.634,94.013C100.467,94.06 100.116,94.041 99.582,93.949C98.006,93.678 97.222,93.384 96.359,95.305C96.262,95.526 96.04,95.668 95.797,95.668L95.213,95.665C93.295,95.387 92.135,96.098 90.723,97.248C89.996,97.839 89.472,98.205 89.149,98.348C84.666,100.325 82.246,95.005 81.197,91.731C80.015,88.051 79.216,84.133 78.799,79.978C78.783,79.826 78.805,79.675 78.859,79.532C79.879,76.882 80.511,75.283 80.758,74.736C82.309,71.305 85.668,70.695 89.197,71.34C91.203,71.706 93.269,71.58 95.282,71.4ZM94.716,78.793C93.604,78.97 92.265,79.349 91.421,80.205C91.153,80.477 91.165,80.913 91.453,81.137C92.119,81.662 94.113,81.352 95.102,81.194C96.091,81.036 98.081,80.708 98.549,80.003C98.751,79.703 98.631,79.283 98.29,79.109C97.222,78.556 95.832,78.613 94.716,78.793ZM96.502,83.908C95.987,83.912 95.576,84.85 95.585,86.002C95.595,87.153 96.021,88.082 96.539,88.079C97.055,88.076 97.465,87.137 97.456,85.986C97.446,84.834 97.02,83.905 96.502,83.908Z" style="fill:white;fill-opacity:0.95;fill-rule:nonzero;"/>
    <path d="M95.102,81.194C94.113,81.352 92.119,81.662 91.453,81.137C91.165,80.913 91.153,80.477 91.421,80.205C92.265,79.349 93.604,78.97 94.716,78.793C95.832,78.613 97.222,78.556 98.29,79.109C98.631,79.283 98.751,79.703 98.549,80.003C98.081,80.708 96.091,81.036 95.102,81.194Z" style="fill:white;fill-opacity:0.15;fill-rule:nonzero;"/>
    <path d="M104.72,78.97C109.454,81.657 107.417,85.294 105.257,82.224C104.666,81.529 103.87,80.885 102.868,80.288C102.255,79.921 102.056,78.967 102.909,78.708C103.38,78.566 103.983,78.654 104.72,78.97Z" style="fill:white;fill-opacity:0.15;fill-rule:nonzero;"/>
    <path d="M76.577,98.193C74.123,97.431 72.034,96.945 70.252,95.34C70.164,95.261 70.085,95.166 70.025,95.062C69.042,93.346 68.521,91.649 68.467,89.972C68.344,86.123 70.603,82.733 74.78,82.825C74.884,82.828 74.972,82.91 74.979,83.014C75.374,88.013 75.927,93.055 76.638,98.142C76.641,98.177 76.609,98.202 76.577,98.193Z" style="fill:white;fill-opacity:0.95;fill-rule:nonzero;"/>
    <path d="M96.502,83.908C97.02,83.905 97.446,84.834 97.456,85.986C97.465,87.137 97.055,88.076 96.539,88.079C96.021,88.082 95.595,87.153 95.585,86.002C95.576,84.85 95.987,83.912 96.502,83.908Z" style="fill:white;fill-opacity:0.15;fill-rule:nonzero;"/>
    <path d="M104.024,84.705C104.461,84.701 104.824,85.517 104.833,86.529C104.843,87.542 104.498,88.366 104.063,88.37C103.626,88.373 103.263,87.558 103.254,86.545C103.244,85.532 103.589,84.708 104.024,84.705Z" style="fill:white;fill-opacity:0.15;fill-rule:nonzero;"/>
    <path d="M210.242,109.062C209.999,106.329 209.98,103.662 210.179,101.055C210.189,100.942 210.236,100.831 210.315,100.746C211.073,99.93 211.257,98.894 210.865,97.64C210.811,97.46 210.669,97.283 210.441,97.103C210.337,97.021 210.28,96.891 210.293,96.758L210.536,94.006C210.546,93.896 210.666,93.829 210.764,93.883L213.652,95.45C213.933,95.602 214.277,95.412 214.296,95.093C214.296,95.084 214.252,95.03 214.163,94.932C213.364,94.044 212.255,93.283 210.83,92.648C210.697,92.588 210.622,92.452 210.637,92.31C210.862,90.398 211.165,88.461 211.547,86.499C211.702,85.703 212.129,85.292 212.707,84.777C213.601,85.292 214.325,85.57 214.874,85.618C216.413,85.741 217.784,85.924 218.988,86.161C222.641,86.878 225.165,88.957 226.558,92.398C227.38,94.427 228.028,96.436 228.501,98.423C229.212,101.406 228.35,106.875 233.149,106.667C233.25,106.663 233.348,106.645 233.446,106.613C234.934,106.126 236.483,105.365 238.088,104.325C238.16,104.278 238.246,104.25 238.334,104.243C242.084,103.924 243.355,109.362 241.961,111.858C241.054,113.485 239.705,114.417 237.911,114.66C236.489,114.853 235.342,114.891 234.467,114.768C234.223,114.733 233.98,114.84 233.838,115.043C232.972,116.297 232.397,117.482 232.113,118.591C231.629,118.79 230.609,119.27 229.058,120.032C227.718,120.692 226.028,121.289 223.99,121.823C214.874,124.211 212.123,120.519 210.802,113.419C210.78,113.3 210.821,113.182 210.896,113.09C212.094,111.678 212.928,110.847 213.086,109.362C213.111,109.122 212.909,108.919 212.669,108.948L210.429,109.213C210.334,109.223 210.252,109.156 210.242,109.062Z" style="fill:white;fill-opacity:0.95;"/>
    <path d="M101.971,102.3C102.922,102.509 103.231,103.621 102.461,104.202C100.303,105.836 97.93,106.366 95.342,105.798C92.663,105.207 90.47,102.885 90.773,100.076C90.786,99.943 90.852,99.823 90.957,99.738C92.154,98.758 93.314,100.186 94.426,101.178C94.543,101.283 94.669,101.368 94.805,101.441C95.693,101.908 96.716,102.123 97.882,102.085C99.693,102.028 101.055,102.101 101.971,102.3Z" style="fill:white;fill-opacity:0.95;fill-rule:nonzero;"/>
    <path d="M167.077,104.471C163.93,104.907 160.795,105.077 157.674,104.983C156.397,104.942 155.143,104.844 153.911,104.689C153.794,104.439 153.882,104.294 154.176,104.259C158.385,103.731 162.6,103.668 166.824,104.076C166.975,104.092 167.061,104.221 167.077,104.471Z" style="fill:white;fill-opacity:0.65;fill-rule:nonzero;"/>
    <path d="M160.478,133.4C158.771,133.414 156.634,133.541 155.228,133.791C154.618,133.899 154.1,134.174 153.674,134.616C152.205,136.136 150.836,137.741 149.563,139.434C143.295,147.776 139.983,152.505 131.418,164.417C129.291,167.374 126.915,170.332 124.293,173.286L121.484,175.965C118.28,179.014 114.735,181.144 110.097,181.561L109.914,180.31C109.898,180.193 109.857,180.082 109.797,179.981L108.846,178.423C108.754,178.275 108.647,178.139 108.524,178.019C108.388,177.88 107.857,177.4 106.938,176.575C106.404,176.098 105.825,175.678 105.209,175.314C102.502,173.728 99.481,173.014 96.154,173.172L99.276,158.843L102.6,157.539C106.448,155.779 110.151,153.656 113.705,151.172C113.639,153.627 113.506,155.946 113.31,158.129C113.276,158.505 113.194,158.866 113.064,159.207C113.026,159.305 113.146,159.387 113.222,159.314C117.588,155.197 121.867,151.055 126.053,146.888C128.236,144.714 129.715,143.267 130.495,142.547C132.685,140.521 134.495,138.518 136.442,136.531C136.83,136.133 137.197,135.795 137.538,135.52C138.081,135.084 138.416,134.531 138.9,134.069C140.227,132.802 142.081,130.881 143.753,128.938C144.634,127.918 145.494,127.024 146.337,126.253C148.498,124.278 151.721,124.069 154.252,123.716C154.331,123.706 154.359,123.602 154.296,123.551C153.295,122.761 152.549,121.75 152.059,120.521C151.652,119.501 151.412,118.366 151.336,117.122C151.067,112.736 151.923,108.591 153.911,104.689C155.143,104.844 156.397,104.942 157.674,104.983C160.795,105.077 163.93,104.907 167.077,104.471C168.407,106.976 169.329,109.693 169.841,112.622C170.205,114.714 170.208,116.714 169.851,118.619C169.832,118.727 169.945,118.806 170.04,118.752C171.111,118.133 172.224,117.684 173.37,117.406C175.165,116.973 176.666,117.46 177.272,119.283L174.581,119.545C174.511,119.551 174.451,119.605 174.435,119.675C174.394,119.829 174.448,119.924 174.596,119.956C175.87,120.215 177.206,120.373 178.609,120.426C181.715,120.543 184.492,120.48 186.944,120.231C187.2,120.205 187.475,120.363 187.765,120.701C189.017,123.378 189.787,126.193 190.075,129.141C190.274,131.185 190.182,133.017 189.8,134.638C189.374,136.436 188.476,137.905 187.108,139.049C187.051,139.096 187.077,139.188 187.149,139.197C187.987,139.327 188.824,139.438 189.655,139.529C190.536,139.627 191.677,139.953 193.07,140.499C194.773,141.169 195.443,142.117 196.938,143.545C197.007,143.611 197.07,143.681 197.13,143.757C198.309,145.245 199.427,146.49 200.489,147.491C200.546,147.545 200.641,147.516 200.663,147.441C200.859,146.727 200.956,146.366 200.96,146.363C202.552,141.428 206.473,139.867 211.149,138.929C215.964,137.962 219.288,137.286 222.938,136.221C223.035,136.193 223.118,136.123 223.159,136.032C223.415,135.466 223.582,134.989 223.655,134.607C224.4,130.787 225.029,125.911 223.99,121.823C226.028,121.289 227.718,120.692 229.058,120.032C230.609,119.27 231.629,118.79 232.113,118.591C232.091,119.128 231.55,124.155 231.977,125.539L232.454,127.062C233.759,131.204 236.748,134.452 240.568,136.199C241.693,136.714 243.301,137.251 245.396,137.817C245.664,137.889 245.942,137.93 246.22,137.94C247.219,137.968 249.001,138.003 250.397,138.357C251.658,138.676 252.852,138.938 253.986,139.137C254.343,139.201 254.691,139.317 255.013,139.488C256.059,140.035 256.618,140.335 256.691,140.389C258.261,141.523 265.231,143.51 265.661,143.554C265.974,144.468 266.208,145.377 266.362,146.278C266.941,149.659 267.137,153.137 266.95,156.711C261.715,156.063 256.438,155.602 251.118,155.327C239.064,154.698 227.399,154.417 216.122,154.483C213.276,154.499 210.511,155.033 207.822,156.079C206.799,156.477 205.683,157.096 204.479,157.934C203.648,158.515 203.481,159.317 203.121,160.297C202.994,160.641 202.871,161.137 202.754,161.785C202.186,164.935 201.838,167.981 201.708,170.922C201.588,173.697 201.411,176.382 201.367,178.717C201.231,185.697 201.253,192.648 201.434,199.564C200.502,200.856 199.554,202.088 198.596,203.267C197.756,204.303 196.994,204.862 195.825,205.349C195.415,205.516 195.061,205.725 194.767,205.968C194.097,205.902 193.427,205.873 192.754,205.88C189.898,205.908 187.061,204.954 184.568,203.592C181.917,202.145 180.947,199.908 181.652,196.878C182.179,194.606 183.042,192.129 184.233,189.444C184.391,189.09 184.441,188.569 184.53,188.164C184.565,188.183 184.606,188.186 184.653,188.174C184.685,188.164 184.71,188.139 184.732,188.098C187.039,183.33 189.216,178.414 191.266,173.343C192.628,170.218 194.05,167.024 195.538,163.753C195.737,163.321 196.031,162.496 196.423,161.28C196.454,161.182 196.438,161.074 196.378,160.992C193.743,157.396 191.487,154.433 189.607,152.104C189.573,152.06 188.865,151.311 187.487,149.861C187.336,149.697 187.137,149.58 186.919,149.523C185.683,149.194 184.846,149.02 184.41,149.005C183.377,148.967 182.334,148.9 181.288,148.809C181.102,148.651 181.026,148.411 181.067,148.092C181.291,146.303 181.705,144.528 182.309,142.765C182.356,142.629 182.34,142.477 182.268,142.351L181.658,141.292C181.626,141.235 181.569,141.201 181.506,141.194L178.432,140.821C178.312,140.806 178.22,140.926 178.265,141.036C179.203,143.491 179.759,146.032 179.933,148.651C179.032,148.667 177.882,148.559 176.476,148.325C174.331,147.968 172.514,147.235 171.023,146.123C168.103,143.943 165.636,141.15 164.445,137.659C163.822,135.829 163.86,133.7 165.822,132.891C165.911,132.856 166.002,132.831 166.094,132.821C168.122,132.632 169.434,133.248 171.415,134.218C171.509,134.262 171.614,134.177 171.585,134.076C171.279,132.941 171.219,131.633 171.399,130.145C171.411,130.044 171.298,129.978 171.216,130.038C169.772,131.084 168.663,131.763 167.882,132.073C166.151,132.768 163.735,133.334 161.426,133.394C161.669,130.223 162.493,127.343 163.13,125.558C163.178,125.425 163.054,125.295 162.919,125.333C161.98,125.597 161.03,125.673 160.066,125.599C159.965,125.591 159.87,125.64 159.819,125.728L159.121,126.938C159.086,127.002 159.076,127.074 159.096,127.144C159.447,128.383 159.794,129.564 160.107,130.695C160.317,131.464 160.424,132.587 160.478,133.4ZM152.483,111.204C151.958,112.856 151.959,114.995 152.021,116.607C152.07,117.867 152.265,118.922 152.612,119.776C153.163,121.131 153.904,122.224 154.84,123.058L154.842,123.061C154.902,123.127 156.204,124.507 158.435,121.564C159.579,120.243 161.168,118.974 162.887,118.951C163.19,118.947 163.459,119.147 163.541,119.438C163.684,119.946 163.584,120.404 163.244,120.812C162.158,122.115 161.229,123.36 160.457,124.547C160.381,124.663 160.476,124.815 160.615,124.799L163.579,124.449C163.974,124.404 164.347,124.234 164.644,123.962C166.401,122.354 167.438,121.407 167.756,121.125C168.58,120.394 169.044,119.45 169.159,118.3C169.4,115.889 169.418,113.09 168.637,110.768C168.615,110.572 168.555,110.385 168.451,110.205C168.4,110.12 168.312,110.069 168.214,110.066C163.832,109.997 160.265,109.687 156.252,110.167C156.192,109.539 156.237,108.812 156.385,107.981C156.445,107.64 156.148,107.346 155.806,107.406C155.645,107.434 155.51,107.599 155.399,107.899C154.856,109.368 154.46,110.907 154.217,112.512C154.17,112.303 154.179,112.088 154.246,111.864L154.432,110.496C154.448,110.389 154.363,110.294 154.255,110.294L152.982,110.294C152.849,110.294 152.729,110.363 152.663,110.474C152.517,110.72 152.457,110.964 152.483,111.204ZM185.244,125.649C183.127,125.412 174.754,125.586 173.146,125.491C172.909,125.475 172.792,125.709 172.802,126.186C172.521,126.821 172.334,127.542 172.249,128.347C172.047,130.183 172.037,131.946 172.22,133.643C172.347,134.802 172.739,135.703 173.399,136.338C174.11,137.024 175.203,138.032 176.685,139.355C177.386,139.984 178.1,139.921 178.884,140.095C179.437,140.218 180.11,140.262 180.903,140.224C180.975,140.221 181.017,140.142 180.979,140.079C180.277,138.96 179.37,137.744 178.258,136.426C177.914,136.016 177.772,135.501 177.848,134.995C177.898,134.676 178.192,134.439 178.539,134.442C180.242,134.455 181.841,135.741 182.969,137.049C183.061,137.153 183.149,137.194 183.238,137.169C183.329,137.141 183.377,137.052 183.383,136.9C183.424,137.535 183.911,138.028 184.843,138.379C185.111,138.723 185.449,138.875 185.854,138.84C186.998,138.742 188.252,136.512 188.701,135.535C189.089,134.692 189.317,133.614 189.386,132.303C189.49,130.325 189.424,128.291 188.874,126.366C189.02,125.776 188.356,125.599 186.887,125.836C186.615,125.106 186.306,123.52 185.794,123.005C185.49,122.698 184.969,122.941 185.013,123.371L185.244,125.649Z" style="fill:white;fill-opacity:0.85;"/>
    <path d="M157.469,120.496C157.624,120.826 157.793,121.145 157.977,121.453C158.031,121.577 158.1,121.651 158.179,121.678C158.261,121.705 158.347,121.665 158.435,121.564C156.204,124.507 154.902,123.127 154.842,123.061C155.394,123.554 155.956,123.509 156.53,122.932C156.175,122.551 155.859,122.141 155.582,121.699C154.836,120.51 154.372,119.101 154.189,117.469C153.978,115.595 153.987,113.943 154.217,112.512C154.46,110.907 154.856,109.368 155.399,107.899C155.51,107.599 155.645,107.434 155.806,107.406C156.148,107.346 156.445,107.64 156.385,107.981C156.237,108.812 156.192,109.539 156.252,110.167L156.148,110.742C156.066,112.202 156.115,113.943 156.299,115.965C156.453,117.654 156.843,119.164 157.469,120.496Z" style="fill:white;"/>
    <path d="M79.557,109.845C81.851,111.507 83.791,113.444 85.374,115.656C86.593,117.359 87.412,119.299 87.825,121.482C84.461,123.178 81.115,123.668 77.731,121.75C74.467,119.905 72.028,117.276 70.42,113.864C70.328,113.671 70.318,113.447 70.394,113.248C70.656,112.531 70.773,111.712 70.742,110.787C70.773,110.685 70.208,107.065 70.154,106.727C72.985,108.534 76.119,109.573 79.557,109.845Z" style="fill:white;fill-opacity:0.95;fill-rule:nonzero;"/>
    <path d="M89.854,113.077L89.983,113.185C90.059,113.245 90.097,113.343 90.081,113.438C89.769,115.479 89.965,117.475 90.669,119.431C90.716,119.567 90.666,119.719 90.543,119.795L87.825,121.482C87.412,119.299 86.593,117.359 85.374,115.656C83.791,113.444 81.851,111.507 79.557,109.845L80.947,109.776C81.061,109.772 81.171,109.804 81.266,109.867C83.822,111.652 86.685,112.72 89.854,113.077Z" style="fill:white;fill-opacity:0.75;fill-rule:nonzero;"/>
    <path d="M168.637,110.768C167.036,111.178 156.151,111.554 156.151,111.457L156.148,110.742L156.252,110.167C160.265,109.687 163.832,109.997 168.214,110.066C168.312,110.069 168.4,110.12 168.451,110.205C168.555,110.385 168.615,110.572 168.637,110.768Z" style="fill:white;fill-opacity:0.4;fill-rule:nonzero;"/>
    <path d="M154.246,111.864C154.246,111.652 154.217,111.466 154.157,111.308C154.122,111.216 154.034,111.156 153.936,111.16L152.483,111.204C152.457,110.964 152.517,110.72 152.663,110.474C152.729,110.363 152.849,110.294 152.982,110.294L154.255,110.294C154.363,110.294 154.448,110.389 154.432,110.496L154.246,111.864Z" style="fill:white;fill-opacity:0.4;fill-rule:nonzero;"/>
    <path d="M158.435,121.564C158.347,121.665 158.261,121.705 158.179,121.678C158.1,121.651 158.031,121.577 157.977,121.453C157.793,121.145 157.624,120.826 157.469,120.496C156.843,119.164 156.453,117.654 156.299,115.965C156.115,113.943 156.066,112.202 156.148,110.742L156.151,111.457C156.151,111.554 167.036,111.178 168.637,110.768C169.418,113.09 169.4,115.889 169.159,118.3C169.044,119.45 168.58,120.394 167.756,121.125C167.438,121.407 166.401,122.354 164.644,123.962C164.347,124.234 163.974,124.404 163.579,124.449L160.615,124.799C160.476,124.815 160.381,124.663 160.457,124.547C161.229,123.36 162.158,122.115 163.244,120.812C163.584,120.404 163.684,119.946 163.541,119.438C163.459,119.147 163.19,118.947 162.887,118.951C161.168,118.974 159.579,120.243 158.435,121.564Z" style="fill:white;fill-opacity:0.25;"/>
    <path d="M70.742,110.787C70.773,111.712 70.656,112.531 70.394,113.248C70.318,113.447 70.328,113.671 70.42,113.864C72.028,117.276 74.467,119.905 77.731,121.75C81.115,123.668 84.461,123.178 87.825,121.482L90.543,119.795C90.666,119.719 90.716,119.567 90.669,119.431C89.965,117.475 89.769,115.479 90.081,113.438C90.097,113.343 90.059,113.245 89.983,113.185L89.854,113.077L90.328,113.071C90.407,113.068 90.483,113.043 90.546,112.998C91.058,112.622 92.047,113.046 92.666,113.09C94.862,113.245 97.007,112.941 99.099,112.177C99.601,111.994 100.347,111.558 101.336,110.872C103.165,110.907 104.878,111.422 106.467,112.414C108.976,113.981 110.508,115.637 111.721,118.332C113.14,121.479 114.04,124.862 114.878,128.518C115.269,130.234 115.576,131.88 115.797,133.453C116.451,138.117 116.922,142.689 117.209,147.169C117.225,147.438 117.045,147.795 116.663,148.24C115.696,149.374 114.71,150.354 113.705,151.172C110.151,153.656 106.448,155.779 102.6,157.539C102.476,155.229 102.359,152.486 101.424,150.407C101.333,150.205 101.058,150.177 100.931,150.357C100.723,150.651 100.562,151.065 100.451,151.592C99.952,153.965 99.56,156.382 99.276,158.843L96.154,173.172C95.781,172.986 95.295,172.941 94.691,173.043C94.508,173.071 94.322,173.036 94.164,172.945L94.034,172.872C93.946,172.818 93.844,172.793 93.74,172.802C90.691,173.017 89.178,172.97 86.976,173.415C85.494,173.716 84.704,173.877 84.612,173.902C83.342,174.237 81.222,174.389 80.334,174.284C78.104,174.025 74.341,173.425 69.042,172.48C66.65,172.054 64.29,171.659 61.961,171.292C62.227,164.755 61.412,158.78 60.29,152.12C60.091,150.926 59.747,148.537 59.064,148.088C58.856,147.949 58.562,147.987 58.353,148.183C57.175,149.28 56.707,151.618 56.375,153.273C56.006,155.122 55.778,156.866 55.696,158.502C55.611,160.161 55.405,161.257 55.083,161.791C54.42,162.891 53.137,163.137 51.232,162.534C50.71,162.48 50.183,162.284 49.645,161.946C49.573,161.899 49.494,161.864 49.415,161.836C45.987,160.648 42.65,159.747 39.402,159.134C37.023,158.686 34.919,158.316 33.093,158.022C32.767,157.971 32.511,157.946 32.328,157.943C31.797,157.943 31.396,157.671 30.985,157.772C30.811,157.813 30.666,157.753 30.549,157.595C30.476,157.498 30.337,157.488 30.252,157.573L29.832,158L27.323,156.142C27.285,156.114 27.276,156.063 27.295,156.022C31.715,146.954 34.299,138.392 37.595,127.867C38.89,123.731 42.056,119.927 45.374,116.951C47.317,115.444 49.576,114.164 52.145,113.109C58.246,111.235 64.189,111.678 70.315,111.675C70.438,111.675 70.536,111.577 70.54,111.453C70.543,111.242 70.612,111.02 70.742,110.787Z" style="fill:white;fill-opacity:0.65;fill-rule:nonzero;"/>
    <path d="M155.582,121.699C155.859,122.141 156.175,122.551 156.53,122.932C155.956,123.509 155.394,123.554 154.842,123.061L154.84,123.058C153.904,122.224 153.163,121.131 152.612,119.776C152.265,118.922 152.07,117.867 152.021,116.607C151.959,114.995 151.958,112.856 152.483,111.204L153.936,111.16C154.034,111.156 154.122,111.216 154.157,111.308C154.217,111.466 154.246,111.652 154.246,111.864C154.179,112.088 154.17,112.303 154.217,112.512C153.987,113.943 153.978,115.595 154.189,117.469C154.372,119.101 154.836,120.51 155.582,121.699Z" style="fill:white;fill-opacity:0.25;"/>
    <path d="M52.145,113.109C49.576,114.164 47.317,115.444 45.374,116.951C42.505,117.068 27.263,118.37 24.296,120.155C22.527,121.223 21.232,121.867 20.881,123.927C20.653,125.261 20.518,126.18 20.476,126.686C20.322,128.584 20.306,132.455 20.432,138.297C20.543,143.46 21.105,151.02 22.126,160.979C22.429,163.93 23.029,168.992 23.93,176.161C24.154,177.946 24.631,181.122 25.367,185.687C25.393,185.839 25.57,185.908 25.69,185.817L31.023,181.731C31.658,181.946 32.132,182.088 32.445,182.161C37.01,183.226 78.239,183.861 79.535,184.249C81.326,184.79 83.317,185.166 85.5,185.384C86.871,185.52 87.961,185.504 88.77,185.34C90.903,184.907 92.309,184.366 94.647,183.352C94.909,183.238 95.19,183.169 95.475,183.14C97.974,182.897 100.426,183.267 102.761,184.265C104.192,184.875 104.925,185.188 104.963,185.207C105.077,185.257 105.2,185.286 105.326,185.283C106.429,185.27 107.168,185.242 107.551,185.197C108.078,185.134 108.543,184.938 108.95,184.61C109.857,183.88 110.239,182.866 110.097,181.561C114.735,181.144 118.28,179.014 121.484,175.965C122.53,174.967 123.468,174.073 124.293,173.286L154.157,173.343C153.592,173.842 152.675,174.553 151.408,175.475C150.517,176.123 149.579,177.03 148.596,178.196C147.061,180.019 146.641,182.821 149.484,183.545C152.325,184.268 154.83,183.292 157.582,182.114C158.407,181.76 159.314,181.873 160.303,182.455C161.614,183.226 162.938,183.722 164.274,183.943C164.381,183.962 164.473,184.025 164.527,184.117C168.072,190.17 171.611,196.227 175.652,201.918C176.713,203.415 177.885,204.831 179.165,206.164C179.159,206.357 178.998,206.452 178.685,206.455C119.187,206.477 59.693,206.48 0.208,206.464C-0.152,205.776 -0.045,205.213 0.533,204.777C8.025,199.099 14.761,194.038 20.748,189.586C21.014,189.39 21.143,189.055 21.083,188.73C19.608,180.79 18.426,173.09 17.532,165.637C16.407,156.268 14.931,135.33 14.792,133.377C14.663,131.58 15.418,120.085 15.655,119.409C15.759,119.106 15.946,118.834 16.195,118.629C17.462,117.586 18.511,116.796 19.987,116.161C22.568,115.052 25.285,114.43 28.135,114.294C31.958,114.114 50.856,112.888 52.145,113.109Z" style="fill:white;fill-opacity:0.35;fill-rule:nonzero;"/>
    <path d="M45.374,116.951C42.056,119.927 38.89,123.731 37.595,127.867C34.299,138.392 31.715,146.954 27.295,156.022C27.276,156.063 27.285,156.114 27.323,156.142L29.832,158L29.235,158.802C29.14,158.935 29.064,159.08 29.014,159.235C27.462,163.94 26.568,168.802 26.325,173.823C26.271,174.916 26.369,175.734 26.439,176.771C26.448,176.881 26.47,176.989 26.511,177.09C26.717,177.605 26.925,178.123 27.134,178.644C27.232,178.888 27.538,179.261 28.053,179.769C28.947,180.651 29.939,181.305 31.023,181.731L25.69,185.817C25.57,185.908 25.393,185.839 25.367,185.687C24.631,181.122 24.154,177.946 23.93,176.161C23.029,168.992 22.429,163.93 22.126,160.979C21.105,151.02 20.543,143.46 20.432,138.297C20.306,132.455 20.322,128.584 20.476,126.686C20.518,126.18 20.653,125.261 20.881,123.927C21.232,121.867 22.527,121.223 24.296,120.155C27.263,118.37 42.505,117.068 45.374,116.951Z" style="fill:white;fill-opacity:0.25;fill-rule:nonzero;"/>
    <path d="M177.272,119.283C180.407,119.299 183.693,119.204 186.808,119.687C187.446,119.785 187.69,120.095 187.765,120.701C187.475,120.363 187.2,120.205 186.944,120.231C184.492,120.48 181.715,120.543 178.609,120.426C177.206,120.373 175.87,120.215 174.596,119.956C174.448,119.924 174.394,119.829 174.435,119.675C174.451,119.605 174.511,119.551 174.581,119.545L177.272,119.283Z" style="fill:white;fill-opacity:0.65;fill-rule:nonzero;"/>
    <path d="M186.887,125.836L187.118,127.229C187.56,129.817 187.465,132.382 186.836,134.923C186.483,136.344 185.819,137.498 184.843,138.379C183.911,138.028 183.424,137.535 183.383,136.9C183.945,136.085 184.315,135.352 184.489,134.705C185.2,132.066 185.459,129.242 185.26,126.231L185.244,125.649L185.013,123.371C184.969,122.941 185.49,122.698 185.794,123.005C186.306,123.52 186.615,125.106 186.887,125.836Z" style="fill:white;fill-opacity:0.95;fill-rule:nonzero;"/>
    <path d="M161.426,133.394C161.344,134.454 161.328,135.546 161.405,136.641C161.52,138.266 161.784,140.066 162.17,142.047C162.435,143.415 164.11,144.404 165.291,144.948C166.514,145.507 167.993,145.396 169.036,146.347C169.19,146.49 169.197,146.736 169.045,146.885C168.631,147.298 168.151,147.573 167.611,147.712C164.757,148.442 161.652,148.701 158.293,148.483C157.026,148.401 154.334,148.174 153.31,147.257C153.073,147.046 153.073,146.676 153.307,146.464C153.696,146.11 154.214,145.874 154.859,145.757C156.34,145.485 157.699,144.821 158.941,143.763C159.519,143.27 159.848,142.812 159.927,142.389C160.435,139.681 160.634,136.976 160.524,134.275C160.517,134.098 160.503,133.783 160.478,133.4C160.424,132.587 160.317,131.464 160.107,130.695C159.794,129.564 159.447,128.383 159.096,127.144C159.076,127.074 159.086,127.002 159.121,126.938L159.819,125.728C159.87,125.64 159.965,125.591 160.066,125.599C161.03,125.673 161.98,125.597 162.919,125.333C163.054,125.295 163.178,125.425 163.13,125.558C162.493,127.343 161.669,130.223 161.426,133.394ZM158.836,147.81C160.464,147.946 161.75,147.934 162.694,147.776C162.972,147.728 163.092,147.602 163.058,147.403C163.042,147.305 162.953,147.235 162.852,147.245C161.522,147.374 160.198,147.387 158.881,147.276C157.563,147.166 156.258,146.938 154.969,146.591C154.871,146.565 154.773,146.616 154.742,146.711C154.672,146.904 154.77,147.046 155.036,147.137C155.942,147.45 157.209,147.674 158.836,147.81Z" style="fill:white;fill-opacity:0.65;"/>
    <path d="M185.244,125.649L185.26,126.231C185.351,126.487 185.187,126.717 184.761,126.916C184.707,126.945 184.647,126.957 184.587,126.954C181.882,126.888 179.178,126.847 176.473,126.831C175.175,126.825 173.949,126.61 172.802,126.186C172.792,125.709 172.909,125.475 173.146,125.491C174.754,125.586 183.127,125.412 185.244,125.649Z" style="fill:white;fill-opacity:0.4;fill-rule:nonzero;"/>
    <path d="M188.874,126.366C188.429,126.667 187.939,126.749 187.402,126.613C187.32,126.591 187.235,126.644 187.219,126.727L187.118,127.229L186.887,125.836C188.356,125.599 189.02,125.776 188.874,126.366Z" style="fill:white;fill-opacity:0.4;fill-rule:nonzero;"/>
    <path d="M185.26,126.231C185.459,129.242 185.2,132.066 184.489,134.705C184.315,135.352 183.945,136.085 183.383,136.9C183.377,137.052 183.329,137.141 183.238,137.169C183.149,137.194 183.061,137.153 182.969,137.049C181.841,135.741 180.242,134.455 178.539,134.442C178.192,134.439 177.898,134.676 177.848,134.995C177.772,135.501 177.914,136.016 178.258,136.426C179.37,137.744 180.277,138.96 180.979,140.079C181.017,140.142 180.975,140.221 180.903,140.224C180.11,140.262 179.437,140.218 178.884,140.095C178.1,139.921 177.386,139.984 176.685,139.355C175.203,138.032 174.11,137.024 173.399,136.338C172.739,135.703 172.347,134.802 172.22,133.643C172.037,131.946 172.047,130.183 172.249,128.347C172.334,127.542 172.521,126.821 172.802,126.186C173.949,126.61 175.175,126.825 176.473,126.831C179.178,126.847 181.882,126.888 184.587,126.954C184.647,126.957 184.707,126.945 184.761,126.916C185.187,126.717 185.351,126.487 185.26,126.231Z" style="fill:white;fill-opacity:0.25;fill-rule:nonzero;"/>
    <path d="M188.874,126.366C189.424,128.291 189.49,130.325 189.386,132.303C189.317,133.614 189.089,134.692 188.701,135.535C188.252,136.512 186.998,138.742 185.854,138.84C185.449,138.875 185.111,138.723 184.843,138.379C185.819,137.498 186.483,136.344 186.836,134.923C187.465,132.382 187.56,129.817 187.118,127.229L187.219,126.727C187.235,126.644 187.32,126.591 187.402,126.613C187.939,126.749 188.429,126.667 188.874,126.366Z" style="fill:white;fill-opacity:0.25;fill-rule:nonzero;"/>
    <path d="M181.288,148.809C181.07,148.916 180.95,149.087 180.922,149.321C180.805,150.306 180.792,151.425 180.878,152.676C181.013,154.613 181.187,156.25 181.396,157.58C181.449,157.915 181.585,158.234 181.794,158.502C182.366,159.238 183.168,159.889 184.201,160.452C185.197,160.995 187.554,161.185 188.135,162.006C188.356,162.319 188.252,162.755 187.911,162.935C187.206,163.305 186.378,163.554 185.421,163.69C181.314,164.268 177.475,164.11 173.908,163.219C173.323,163.071 172.821,162.809 172.407,162.433C172.22,162.265 172.22,161.968 172.407,161.801C173.449,160.869 174.931,160.998 176.141,160.42C177.326,159.851 179.004,158.869 179.247,157.523C179.648,155.33 179.898,153.583 179.999,152.281C180.072,151.336 180.05,150.126 179.933,148.651C179.759,146.032 179.203,143.491 178.265,141.036C178.22,140.926 178.312,140.806 178.432,140.821L181.506,141.194C181.569,141.201 181.626,141.235 181.658,141.292L182.268,142.351C182.34,142.477 182.356,142.629 182.309,142.765C181.705,144.528 181.291,146.303 181.067,148.092C181.026,148.411 181.102,148.651 181.288,148.809ZM182.577,163.289C184.205,163.153 185.472,162.929 186.375,162.616C186.641,162.521 186.738,162.379 186.672,162.189C186.641,162.095 186.539,162.041 186.441,162.066C185.152,162.417 183.851,162.644 182.533,162.755C181.216,162.866 179.892,162.856 178.565,162.727C178.464,162.717 178.375,162.787 178.359,162.885C178.321,163.084 178.445,163.207 178.72,163.254C179.664,163.412 180.95,163.425 182.577,163.289Z" style="fill:white;fill-opacity:0.65;fill-rule:nonzero;"/>
    <path d="M158.881,147.276C160.198,147.387 161.522,147.374 162.852,147.245C162.953,147.235 163.042,147.305 163.058,147.403C163.092,147.602 162.972,147.728 162.694,147.776C161.75,147.934 160.464,147.946 158.836,147.81C157.209,147.674 155.942,147.45 155.036,147.137C154.77,147.046 154.672,146.904 154.742,146.711C154.773,146.616 154.871,146.565 154.969,146.591C156.258,146.938 157.563,147.166 158.881,147.276Z" style="fill:white;fill-opacity:0.95;fill-rule:nonzero;"/>
    <path d="M61.961,171.292C60.091,170.964 58.239,170.654 56.404,170.366C56.1,170.319 55.282,170.224 53.946,170.079C52.423,169.915 50.928,169.516 49.462,168.881C49.38,168.847 49.336,168.755 49.364,168.67L51.232,162.534C53.137,163.137 54.42,162.891 55.083,161.791C55.405,161.257 55.611,160.161 55.696,158.502C55.778,156.866 56.006,155.122 56.375,153.273C56.707,151.618 57.175,149.28 58.353,148.183C58.562,147.987 58.856,147.949 59.064,148.088C59.747,148.537 60.091,150.926 60.29,152.12C61.412,158.78 62.227,164.755 61.961,171.292Z" style="fill:white;fill-opacity:0.35;fill-rule:nonzero;"/>
    <path d="M102.6,157.539L99.276,158.843C99.56,156.382 99.952,153.965 100.451,151.592C100.562,151.065 100.723,150.651 100.931,150.357C101.058,150.177 101.333,150.205 101.424,150.407C102.359,152.486 102.476,155.229 102.6,157.539Z" style="fill:white;fill-opacity:0.35;fill-rule:nonzero;"/>
    <path d="M201.82,212.152C201.697,210.148 201.591,208.216 201.515,206.461C201.39,203.583 201.344,201.179 201.425,199.706L201.434,199.564C201.253,192.648 201.231,185.697 201.367,178.717C201.411,176.382 201.588,173.697 201.708,170.922C201.838,167.981 202.186,164.935 202.754,161.785C202.871,161.137 202.994,160.641 203.121,160.297C203.481,159.317 203.648,158.515 204.479,157.934C205.683,157.096 206.799,156.477 207.822,156.079C210.511,155.033 213.276,154.499 216.122,154.483C227.399,154.417 239.064,154.698 251.118,155.327C256.438,155.602 261.715,156.063 266.95,156.711C272.414,157.658 273.771,158.052 275.26,158.464C275.389,158.499 275.509,158.562 275.61,158.648L279.914,162.218C279.086,162.114 271.08,160.36 268.375,160.082C266.154,159.855 262.015,159.494 258.527,159.33C254.302,159.131 248.596,158.783 243.882,158.742C240.388,158.711 238.103,158.667 237.032,158.613C234.081,158.461 231.209,158.625 227.977,158.518C226.422,158.464 224.884,158.584 222.915,158.556C218.356,158.493 213.661,159.336 209.942,162.202C209.854,162.272 209.778,162.354 209.718,162.445C209.089,163.406 208.795,164.493 208.546,165.564C208.372,166.306 208.236,167.087 208.144,167.899C207.693,171.82 207.358,176.174 207.133,180.954C207.07,182.284 207.216,183.497 207.054,184.853C206.887,186.262 207.042,187.655 206.991,189.137C206.909,191.554 206.906,194.638 206.985,198.395C207.152,206.455 207.405,213.674 207.743,220.054C207.873,222.477 208.173,226.553 208.637,232.287C208.906,235.573 209.307,238.834 209.838,242.066C210.024,243.194 210.287,244.287 210.628,245.339C210.669,245.46 210.726,245.573 210.798,245.674C211.064,246.044 211.108,246.227 210.931,246.221L208.024,245.08L205.734,243.81C205.623,243.75 205.544,243.646 205.519,243.523C205.34,242.66 204.931,241.952 204.713,240.932C204.185,238.458 203.797,236.107 203.554,233.877C203.26,231.181 202.365,220.972 201.82,212.152Z" style="fill:white;fill-opacity:0.65;"/>
    <path d="M51.232,162.534L49.364,168.67C49.336,168.755 49.38,168.847 49.462,168.881C50.928,169.516 52.423,169.915 53.946,170.079C55.282,170.224 56.1,170.319 56.404,170.366C58.239,170.654 60.091,170.964 61.961,171.292C64.29,171.659 66.65,172.054 69.042,172.48C74.341,173.425 78.104,174.025 80.334,174.284C81.222,174.389 83.342,174.237 84.612,173.902C84.704,173.877 85.494,173.716 86.976,173.415C89.178,172.97 90.691,173.017 93.74,172.802C93.844,172.793 93.946,172.818 94.034,172.872L94.164,172.945C94.322,173.036 94.508,173.071 94.691,173.043C95.295,172.941 95.781,172.986 96.154,173.172C99.481,173.014 102.502,173.728 105.209,175.314C105.825,175.678 106.404,176.098 106.938,176.575C107.857,177.4 108.388,177.88 108.524,178.019C108.647,178.139 108.754,178.275 108.846,178.423L109.797,179.981C109.857,180.082 109.898,180.193 109.914,180.31L110.097,181.561C110.239,182.866 109.857,183.88 108.95,184.61C108.543,184.938 108.078,185.134 107.551,185.197C107.168,185.242 106.429,185.27 105.326,185.283C105.2,185.286 105.077,185.257 104.963,185.207C104.925,185.188 104.192,184.875 102.761,184.265C100.426,183.267 97.974,182.897 95.475,183.14C95.19,183.169 94.909,183.238 94.647,183.352C92.309,184.366 90.903,184.907 88.77,185.34C87.961,185.504 86.871,185.52 85.5,185.384C83.317,185.166 81.326,184.79 79.535,184.249C78.239,183.861 37.01,183.226 32.445,182.161C32.132,182.088 31.658,181.946 31.023,181.731C29.939,181.305 28.947,180.651 28.053,179.769C27.538,179.261 27.232,178.888 27.134,178.644C26.925,178.123 26.717,177.605 26.511,177.09C26.47,176.989 26.448,176.881 26.439,176.771C26.369,175.734 26.271,174.916 26.325,173.823C26.568,168.802 27.462,163.94 29.014,159.235C29.064,159.08 29.14,158.935 29.235,158.802L29.832,158L30.252,157.573C30.337,157.488 30.476,157.498 30.549,157.595C30.666,157.753 30.811,157.813 30.985,157.772C31.396,157.671 31.797,157.943 32.328,157.943C32.511,157.946 32.767,157.971 33.093,158.022C34.919,158.316 37.023,158.686 39.402,159.134C42.65,159.747 45.987,160.648 49.415,161.836C49.494,161.864 49.573,161.899 49.645,161.946C50.183,162.284 50.71,162.48 51.232,162.534Z" style="fill:white;fill-opacity:0.95;fill-rule:nonzero;"/>
    <path d="M279.914,162.218C280.524,162.607 280.937,162.919 281.162,163.159C281.487,163.504 281.629,164.013 281.591,164.686C281.468,166.85 281.209,170.133 281.086,171.191C280.912,172.679 278.928,186.982 278.574,188.998L275.737,206.253C275.718,206.363 275.803,206.464 275.917,206.464L299.822,206.54L299.749,211.753C299.746,211.975 299.566,212.155 299.342,212.155L274.871,212.155C274.691,212.155 274.543,212.291 274.524,212.467C274.353,214.17 269.01,238.259 269.004,238.278C268.628,239.422 268.366,240.227 268.217,240.698C267.917,241.659 267.304,242.262 266.385,242.505C263.759,243.207 241.426,246.967 222.132,246.967C220.49,246.967 211.664,246.648 210.931,246.221C211.108,246.227 211.064,246.044 210.798,245.674C210.726,245.573 210.669,245.46 210.628,245.339C210.287,244.287 210.024,243.194 209.838,242.066C209.307,238.834 208.906,235.573 208.637,232.287C208.173,226.553 207.873,222.477 207.743,220.054C207.405,213.674 207.152,206.455 206.985,198.395C206.906,194.638 206.909,191.554 206.991,189.137C207.042,187.655 206.887,186.262 207.054,184.853C207.216,183.497 207.07,182.284 207.133,180.954C207.358,176.174 207.693,171.82 208.144,167.899C208.236,167.087 208.372,166.306 208.546,165.564C208.795,164.493 209.089,163.406 209.718,162.445C209.778,162.354 209.854,162.272 209.942,162.202C213.661,159.336 218.356,158.493 222.915,158.556C224.884,158.584 226.422,158.464 227.977,158.518C231.209,158.625 234.081,158.461 237.032,158.613C238.103,158.667 240.388,158.711 243.882,158.742C248.596,158.783 254.302,159.131 258.527,159.33C262.015,159.494 266.154,159.855 268.375,160.082C271.08,160.36 279.086,162.114 279.914,162.218Z" style="fill:white;fill-opacity:0.5;fill-rule:nonzero;"/>
    <path d="M182.577,163.289C180.95,163.425 179.664,163.412 178.72,163.254C178.445,163.207 178.321,163.084 178.359,162.885C178.375,162.787 178.464,162.717 178.565,162.727C179.892,162.856 181.216,162.866 182.533,162.755C183.851,162.644 185.152,162.417 186.441,162.066C186.539,162.041 186.641,162.095 186.672,162.189C186.738,162.379 186.641,162.521 186.375,162.616C185.472,162.929 184.205,163.153 182.577,163.289Z" style="fill:white;fill-opacity:0.95;fill-rule:nonzero;"/>
    <path d="M166.084,173.371C166.527,173.949 166.947,174.36 167.342,174.607C168.037,175.036 168.713,175.494 169.37,175.981C174.581,179.845 179.633,183.908 184.53,188.164C184.441,188.569 184.391,189.09 184.233,189.444C183.042,192.129 182.179,194.606 181.652,196.878C180.947,199.908 181.917,202.145 184.568,203.592C187.061,204.954 189.898,205.908 192.754,205.88C193.427,205.873 194.097,205.902 194.767,205.968L194.366,206.392C192.925,207.842 191.212,208.903 189.228,209.576C188.062,209.975 186.966,210.126 185.933,210.031C183.291,209.794 181.017,208.091 179.165,206.164C177.885,204.831 176.713,203.415 175.652,201.918C171.611,196.227 168.072,190.17 164.527,184.117C164.473,184.025 164.381,183.962 164.274,183.943C162.938,183.722 161.614,183.226 160.303,182.455C159.314,181.873 158.407,181.76 157.582,182.114C154.83,183.292 152.325,184.268 149.484,183.545C146.641,182.821 147.061,180.019 148.596,178.196C149.579,177.03 150.517,176.123 151.408,175.475C152.675,174.553 153.592,173.842 154.157,173.343C154.539,173.194 154.998,172.964 155.525,172.657C157.336,171.614 159.276,171.14 161.329,171.45C163.077,171.712 164.66,172.351 166.084,173.371Z" style="fill:white;fill-opacity:0.95;fill-rule:nonzero;"/>
    <path d="M191.266,173.343C189.216,178.414 187.039,183.33 184.732,188.098C184.71,188.139 184.685,188.164 184.653,188.174C184.606,188.186 184.565,188.183 184.53,188.164C179.633,183.908 174.581,179.845 169.37,175.981C168.713,175.494 168.037,175.036 167.342,174.607C166.947,174.36 166.527,173.949 166.084,173.371L191.266,173.343Z" style="fill:white;fill-opacity:0.35;fill-rule:nonzero;"/>
    <path d="M299.822,206.54L275.917,206.464C275.803,206.464 275.718,206.363 275.737,206.253L278.574,188.998C279.184,189.539 279.715,189.978 280.167,190.309C286.584,195.077 292.991,199.848 299.396,204.629C299.787,204.919 299.99,205.242 299.999,205.599C300.009,205.88 299.948,206.196 299.822,206.54Z" style="fill:white;fill-opacity:0.35;fill-rule:nonzero;"/>
    <path d="M194.366,206.392L194.767,205.968C195.061,205.725 195.415,205.516 195.825,205.349C196.994,204.862 197.756,204.303 198.596,203.267C199.554,202.088 200.502,200.856 201.434,199.564C201.43,199.603 201.427,199.65 201.425,199.706C201.344,201.179 201.39,203.583 201.515,206.461L194.366,206.392Z" style="fill:white;fill-opacity:0.35;"/>
    <path d="M193.219,212.158L0.587,212.164C0.404,212.164 0.255,212.019 0.252,211.836L0.208,206.464C59.693,206.48 119.187,206.477 178.685,206.455C178.998,206.452 179.159,206.357 179.165,206.164C181.017,208.091 183.291,209.794 185.933,210.031C186.966,210.126 188.062,209.975 189.228,209.576C191.212,208.903 192.925,207.842 194.366,206.392L201.515,206.461C201.591,208.216 201.697,210.148 201.82,212.152L193.219,212.158Z" style="fill:white;fill-opacity:0.5;"/>
    <path d="M208.024,245.08C203.911,245.583 199.759,245.7 195.829,244.619C189.039,242.758 183.465,236.508 185.193,229.093C185.519,227.687 185.914,226.442 186.375,225.352C188.299,220.799 190.581,216.401 193.219,212.158L201.82,212.152C202.365,220.972 203.26,231.181 203.554,233.877C203.797,236.107 204.185,238.458 204.713,240.932C204.931,241.952 205.34,242.66 205.519,243.523C205.544,243.646 205.623,243.75 205.734,243.81L208.024,245.08Z" style="fill:white;fill-opacity:0.25;"/>
    <path d="M102.258,70.506L95.282,71.4C93.269,71.58 91.203,71.706 89.197,71.34C85.668,70.695 82.309,71.305 80.758,74.736C80.511,75.283 79.879,76.882 78.859,79.532C78.805,79.675 78.783,79.826 78.799,79.978C79.216,84.133 80.015,88.051 81.197,91.731C82.246,95.005 84.666,100.325 89.149,98.348C89.472,98.205 89.996,97.839 90.723,97.248C92.135,96.098 93.295,95.387 95.213,95.665C98.641,95.956 103.08,97.501 105.083,93.403C105.443,94.306 105.083,105.416 101.336,110.872C100.347,111.558 99.601,111.994 99.099,112.177C97.007,112.941 94.862,113.245 92.666,113.09C92.047,113.046 91.058,112.622 90.546,112.998C90.483,113.043 90.407,113.068 90.328,113.071L89.854,113.077C86.685,112.72 83.822,111.652 81.266,109.867C81.171,109.804 81.061,109.772 80.947,109.776L79.557,109.845C76.119,109.573 72.985,108.534 70.154,106.727C69.146,105.911 68.129,105.093 67.105,104.272C66.42,103.722 65.813,103.134 65.285,102.509C64.593,101.684 64.233,101.251 64.202,101.21C63.156,99.899 62.514,99.311 60.789,97.602C59.886,96.708 59.181,95.88 58.679,95.118C57.102,92.736 56.151,90.066 55.829,87.112C55.674,85.712 55.69,83.826 55.873,81.457C56.034,79.4 56.571,77.005 57.484,74.265C58.941,69.905 59.835,67.22 60.173,66.205C60.508,65.194 60.852,64.186 61.206,63.182C61.456,62.471 61.734,61.874 62.044,61.384C62.581,60.534 62.919,59.864 63.544,59.182C64.814,57.798 66.176,56.711 67.633,55.921C71.412,53.874 76.148,53.131 80.508,53.052C85.2,52.967 89.462,53.172 93.295,53.671C93.298,53.671 94.138,53.776 95.816,53.981C99.415,54.423 112.031,54.739 112.672,54.717C112.802,54.714 112.795,54.839 112.833,54.964C115.148,62.526 113.315,68.13 102.258,70.506ZM76.577,98.193C76.609,98.202 76.641,98.177 76.638,98.142C75.927,93.055 75.374,88.013 74.979,83.014C74.972,82.91 74.884,82.828 74.78,82.825C70.603,82.733 68.344,86.123 68.467,89.972C68.521,91.649 69.042,93.346 70.025,95.062C70.085,95.166 70.164,95.261 70.252,95.34C72.034,96.945 74.123,97.431 76.577,98.193ZM102.461,104.202C103.231,103.621 102.922,102.509 101.971,102.3C101.055,102.101 99.693,102.028 97.882,102.085C96.716,102.123 95.693,101.908 94.805,101.441C94.669,101.368 94.543,101.283 94.426,101.178C93.314,100.186 92.154,98.758 90.957,99.738C90.852,99.823 90.786,99.943 90.773,100.076C90.47,102.885 92.663,105.207 95.342,105.798C97.93,106.366 100.303,105.836 102.461,104.202Z" style="fill:white;fill-opacity:0.25;fill-rule:nonzero;"/>
</svg>
