<?xml version="1.0" encoding="UTF-8" standalone="no"?>
<!DOCTYPE svg PUBLIC "-//W3C//DTD SVG 1.1//EN" "http://www.w3.org/Graphics/SVG/1.1/DTD/svg11.dtd">
<svg width="100%" height="100%" viewBox="0 0 300 300" version="1.1" xmlns="http://www.w3.org/2000/svg" xmlns:xlink="http://www.w3.org/1999/xlink" xml:space="preserve" xmlns:serif="http://www.serif.com/" style="fill-rule:evenodd;clip-rule:evenodd;stroke-linejoin:round;stroke-miterlimit:2;">
    <path d="M265.985,85.277C266.016,83.038 265.896,81.582 265.62,80.911C265.057,79.541 264.11,78.742 262.779,78.512C261.743,78.334 261.156,78.211 261.013,78.14C260.266,77.771 259.772,77.069 259.527,76.048C257.546,67.793 254.634,59.973 250.787,52.58C250.147,51.35 249.269,50.793 248.152,50.911C247.604,50.969 246.988,51.296 246.3,51.897C239.515,57.819 231.522,63.365 222.914,66.412C218.377,67.65 213.731,68.293 208.97,68.348C204.293,68.402 200.641,68.378 197.059,69.45C196.942,69.485 196.864,69.594 196.873,69.718C197.247,75.227 196.882,80.499 195.693,85.533C195.448,86.569 195.297,87.543 195.247,88.455C195.015,92.624 195.122,96.699 195.573,100.68C195.782,102.532 196.116,104.049 196.574,105.225C195.619,105.431 194.548,105.272 193.36,104.744C190.131,103.306 187.616,101.263 185.82,98.616C183.828,95.682 182.706,93.223 181.353,89.697C180.776,88.196 180.282,86.643 179.866,85.036C178.438,79.514 177.607,73.991 177.363,68.469C177.332,67.774 177.386,67.138 177.231,66.28C177.219,66.214 177.219,66.152 177.223,66.086L177.774,59.542C177.782,59.453 177.662,59.418 177.623,59.5C176.102,62.694 174.659,65.531 173.292,68.003C172.404,69.61 171.871,71.418 171.212,73.227C170.947,73.952 170.393,75.148 169.547,76.813C164.9,85.959 162.408,90.89 162.057,91.603C161.76,92.205 161.483,92.671 161.226,93C158.642,96.31 157.178,98.142 156.856,98.523C154.312,101.537 151.529,104.024 148.481,105.962C146.96,106.93 144.918,107.674 142.361,108.194C141.119,108.275 140.273,108.256 139.819,108.136C133.897,106.569 127.982,105.008 122.071,103.436C120.492,103.044 119.296,102.683 118.485,102.357C114.506,100.756 110.995,98.445 107.952,95.43C107.917,95.395 107.199,94.568 107.094,94.455C105.554,92.783 104.278,91.001 103.26,89.104C101.21,85.283 100.406,81.12 100.866,76.611C100.997,75.322 101.509,73.934 101.712,72.524C101.736,72.354 101.7,72.175 101.603,72.027C100.417,70.229 99.675,69.112 99.399,66.932C99.326,66.361 99.363,64.369 99.569,60.967C99.58,60.792 99.57,60.617 99.538,60.447C99.003,57.524 98.656,55.817 98.51,55.324C97.355,51.43 96.569,48.699 96.127,47.143C95.424,44.671 95.087,42.245 95.114,39.858C95.142,37.367 95.5,34.778 96.197,32.092C97.985,25.195 100.633,20.4 107.533,17.857C110.133,16.899 112.8,16.275 115.536,15.967C115.671,15.952 115.791,15.87 115.858,15.75C120.25,7.799 127.163,2.744 136.369,1.701C140.16,1.271 143.886,1.362 147.553,1.976C148.341,2.108 149.467,2.329 150.93,2.64C152.987,3.077 154.105,3.319 154.287,3.365C158.316,4.398 162.344,5.692 166.376,7.25C171.643,9.286 177.658,11.81 184.419,14.818C188.428,16.607 191.757,17.935 194.4,18.808C197.66,19.884 200.295,20.697 203.521,20.092C203.622,20.073 203.715,20.151 203.719,20.252C203.753,21.342 203.58,22.107 203.261,23.775C203.071,24.765 202.841,25.599 202.574,26.283C200.279,32.139 196.214,36.484 190.368,39.311C187.951,40.48 185.792,41.236 183.891,41.593C183.584,41.651 183.359,41.911 183.351,42.226C183.302,44.15 182.952,46.091 182.272,48.031C182.253,48.086 182.277,48.142 182.327,48.167C182.378,48.193 182.436,48.18 182.47,48.136C183.222,47.18 184.065,46.261 185.059,45.42C186.176,44.475 187.217,43.498 188.451,42.777C190.298,41.697 191.455,41.05 191.921,40.836C195.676,39.107 199.489,37.805 203.362,36.928C203.754,36.839 211.945,35.628 213.468,35.294C214.419,35.086 217.39,33.324 217.935,29.95C218.676,25.36 214.822,17.504 214.314,15.885C213.665,13.821 213.556,11.077 214.403,8.931C216.117,4.587 219.67,1.849 224.094,0.746C226.147,0.234 227.905,-0.015 229.368,0.001C230.435,0.012 236.815,0.51 237.498,0.653C240.3,1.238 242.769,2.395 244.907,4.134C246.405,5.352 247.055,6.625 247.473,8.298C247.593,8.783 247.618,9.443 247.542,10.281C247.285,13.142 245.638,25.32 245.548,25.809C245.528,25.918 245.528,26.03 245.548,26.139C245.765,27.339 245.908,28.545 246.398,29.543C247.34,31.464 248.102,32.759 248.676,33.427C249.612,34.517 251.144,36.051 252.351,37.064C255.956,40.088 258.289,41.907 260.501,44.247C261.165,44.95 261.731,45.668 262.193,46.398C265.008,50.839 266.787,55.735 267.51,61.087C267.81,63.311 267.994,65.003 268.065,66.167C268.111,66.928 268.154,73.816 268.135,74.003C267.949,75.811 267.755,77.992 267.549,80.55C267.452,81.745 266.932,83.321 265.985,85.277ZM129.627,87.932C128.238,87.035 127.362,86.203 125.894,85.063C124.513,83.991 122.949,83.845 122.009,85.358C120.977,87.02 122.179,88.401 123.286,89.643C125.455,92.077 128.23,94.029 131.614,95.507C133.718,96.466 136.159,97.047 138.934,97.25C140.847,97.389 141.965,96.629 142.283,94.964C142.477,93.951 141.829,92.751 140.933,92.527C137.836,91.75 135.095,90.968 132.336,89.511C132.281,89.482 132.169,89.434 132.061,89.385C131.995,89.355 131.93,89.324 131.882,89.298C131.168,88.897 130.415,88.44 129.627,87.932ZM103.314,66.769L105.387,58.976C105.398,58.925 105.406,58.875 105.41,58.824C105.461,56.818 105.55,55.797 105.29,53.919C105.026,52.017 104.987,50.577 105.173,49.599C105.201,49.467 105.08,49.351 104.948,49.378C104.215,49.529 103.66,49.739 103.283,50.015C100.994,51.683 100,55.673 99.744,58.413C99.581,60.167 99.946,62.193 100.916,63.528C102.224,65.329 102.981,66.416 103.182,66.784C103.214,66.842 103.299,66.831 103.314,66.769ZM153.2,40.266C148.628,37.747 144.577,34.208 140.816,31.169C136.019,27.292 130.193,23.586 123.697,24.905C122.346,25.179 120.511,28.235 119.874,29.368C117.738,33.168 115.777,37.355 113.987,41.927C112.509,45.699 111.006,49.475 111.193,53.632C111.328,56.636 111.515,60.287 111.527,63.194C111.538,66.078 112.019,68.853 112.974,71.511C115.198,77.701 121.404,76.885 126.895,77.181C128.948,77.292 131.269,77.802 133.854,78.706C138.728,80.503 143.315,83.14 148.159,84.652C151.558,85.713 155.68,86.227 158.874,84.47C159.573,84.085 160.905,82.933 162.872,81.012C164.778,79.15 166.346,77.345 167.575,75.598C169.087,73.449 170.492,70.845 171.786,67.785C171.996,67.289 172.124,66.757 172.159,66.221C172.42,62.205 172.504,58.976 172.411,56.535C172.264,52.692 171.868,48.319 171.223,43.417C171.053,42.121 170.572,41.355 169.368,41.019C169.062,40.933 168.293,41.13 167.059,41.608C164.703,42.522 162.282,42.8 159.794,42.431C157.465,42.086 155.269,41.364 153.2,40.266Z" style="fill:white;fill-opacity:0.35;"/>
    <path d="M153.2,40.266C148.628,37.747 144.577,34.208 140.816,31.169C136.019,27.292 130.193,23.586 123.697,24.905C122.346,25.179 120.511,28.235 119.874,29.368C117.738,33.168 115.777,37.355 113.987,41.927C112.509,45.699 111.006,49.475 111.193,53.632C111.328,56.636 111.515,60.287 111.527,63.194C111.538,66.078 112.019,68.853 112.974,71.511C115.198,77.701 121.404,76.885 126.895,77.181C128.948,77.292 131.269,77.802 133.854,78.706C134.149,78.706 134.401,78.668 134.61,78.586C134.731,78.54 134.832,78.454 134.894,78.346C135.395,77.469 136.148,76.798 137.152,76.327C137.351,76.235 137.568,76.191 137.789,76.196C139.547,76.234 140.834,76.493 141.911,75.73C143.314,74.734 143.905,72.101 143.905,70.599C143.905,69.062 143.992,68.267 144.13,66.02C144.175,65.302 144.211,64.285 144.239,62.961C144.3,60.101 144.493,57.746 144.813,55.886C145.138,54.005 145.707,51.963 146.525,49.755C147.772,46.39 149.998,43.227 153.2,40.266ZM135.377,53.541C134.51,53.247 133.275,54.571 132.619,56.501C131.963,58.432 132.13,60.234 132.998,60.529C133.865,60.824 135.1,59.5 135.756,57.569C136.412,55.638 136.245,53.836 135.377,53.541ZM132.173,48.509C134.001,48.79 138.818,49.728 139.299,48.132C139.419,47.733 139.273,47.296 138.934,47.046C137.16,45.736 134.956,45.189 132.74,44.845C130.524,44.502 128.261,44.366 126.169,45.074C125.769,45.21 125.501,45.579 125.494,45.998C125.467,47.663 130.346,48.227 132.173,48.509Z" style="fill:white;fill-opacity:0.95;"/>
    <path d="M133.854,78.706C138.728,80.503 143.315,83.14 148.159,84.652C151.558,85.713 155.68,86.227 158.874,84.47C159.573,84.085 160.905,82.933 162.872,81.012C164.778,79.15 166.346,77.345 167.575,75.598C169.087,73.449 170.492,70.845 171.786,67.785C171.996,67.289 172.124,66.757 172.159,66.221C172.42,62.205 172.504,58.976 172.411,56.535C172.264,52.692 171.868,48.319 171.223,43.417C171.053,42.121 170.572,41.355 169.368,41.019C169.062,40.933 168.293,41.13 167.059,41.608C164.703,42.522 162.282,42.8 159.794,42.431C157.465,42.086 155.269,41.364 153.2,40.266C149.998,43.227 147.772,46.39 146.525,49.755C145.707,51.963 145.138,54.005 144.813,55.886C144.493,57.746 144.3,60.101 144.239,62.961C144.211,64.285 144.175,65.302 144.13,66.02C143.992,68.267 143.905,69.062 143.905,70.599C143.905,72.101 143.314,74.734 141.911,75.73C140.834,76.493 139.547,76.234 137.789,76.196C137.568,76.191 137.351,76.235 137.152,76.327C136.148,76.798 135.395,77.469 134.894,78.346C134.832,78.454 134.731,78.54 134.61,78.586C134.401,78.668 134.149,78.706 133.854,78.706ZM157.826,55.188C159.604,55.679 164.257,57.162 164.921,55.638C165.087,55.257 164.991,54.811 164.684,54.524C163.08,53.027 160.966,52.225 158.812,51.629C156.658,51.033 154.437,50.633 152.288,51.093C151.877,51.182 151.566,51.517 151.512,51.928C151.295,53.573 156.053,54.698 157.826,55.188ZM151.938,58.135C151.093,57.846 149.879,59.158 149.221,61.066C148.563,62.973 148.714,64.759 149.557,65.048C150.402,65.337 151.616,64.025 152.274,62.117C152.932,60.21 152.781,58.424 151.938,58.135Z" style="fill:white;fill-opacity:0.85;"/>
    <path d="M132.173,48.509C134.001,48.79 138.818,49.728 139.299,48.132C139.419,47.733 139.273,47.296 138.934,47.046C137.16,45.736 134.956,45.189 132.74,44.845C130.524,44.502 128.261,44.366 126.169,45.074C125.769,45.21 125.501,45.579 125.494,45.998C125.467,47.663 130.346,48.227 132.173,48.509Z" style="fill:white;fill-opacity:0.15;"/>
    <path d="M103.314,66.769L105.387,58.976C105.398,58.925 105.406,58.875 105.41,58.824C105.461,56.818 105.55,55.797 105.29,53.919C105.026,52.017 104.987,50.577 105.173,49.599C105.201,49.467 105.08,49.351 104.948,49.378C104.215,49.529 103.66,49.739 103.283,50.015C100.994,51.683 100,55.673 99.744,58.413C99.581,60.167 99.946,62.193 100.916,63.528C102.224,65.329 102.981,66.416 103.182,66.784C103.214,66.842 103.299,66.831 103.314,66.769Z" style="fill:white;fill-opacity:0.95;"/>
    <path d="M157.826,55.188C159.604,55.679 164.257,57.162 164.921,55.638C165.087,55.257 164.991,54.811 164.684,54.524C163.08,53.027 160.966,52.225 158.812,51.629C156.658,51.033 154.437,50.633 152.288,51.093C151.877,51.182 151.566,51.517 151.512,51.928C151.295,53.573 156.053,54.698 157.826,55.188Z" style="fill:white;fill-opacity:0.15;"/>
    <path d="M240.661,129.357C240.219,126.24 240.36,123.443 241.084,120.962C241.52,119.472 242.201,118.241 243.134,117.268C243.603,116.778 245.62,115.242 249.184,112.642C249.965,112.072 250.966,110.961 251.485,110.263C254.688,105.959 257.065,101.17 258.603,95.895C258.755,95.375 259.104,94.941 259.577,94.681C262.626,93 264.276,91.284 265.259,87.862C265.519,86.957 265.76,86.096 265.985,85.277C266.016,83.038 265.896,81.582 265.62,80.911C265.057,79.541 264.11,78.742 262.779,78.512C261.743,78.334 261.156,78.211 261.013,78.14C260.266,77.771 259.772,77.069 259.527,76.048C257.546,67.793 254.634,59.973 250.787,52.58C250.147,51.35 249.269,50.793 248.152,50.911C247.604,50.969 246.988,51.296 246.3,51.897C239.515,57.819 231.522,63.365 222.914,66.412C222.157,69.171 221.487,71.954 220.9,74.756C219.804,79.984 219.32,85.246 219.46,90.551C219.502,92.17 219.754,93.351 221.637,93.082C222.65,92.937 223.542,92.782 224.315,92.62C225.972,92.272 227.001,92.907 227.4,94.518C228.189,97.696 228.223,100.909 227.505,104.158C229.116,103.874 230.676,103.471 232.189,102.947C232.985,102.671 233.543,102.583 233.858,102.683C234.49,102.883 234.835,103.312 234.898,103.983C235.059,105.691 232.628,107.767 231.27,108.45C229.717,109.23 228.11,109.696 226.449,109.851C226.38,111.563 226.004,113.306 225.32,115.087C224.402,117.478 223.457,119.569 222.483,121.366C220.802,124.47 218.938,127.461 216.891,130.335C216.127,131.407 215.226,132.462 214.182,133.502C213.902,133.816 213.751,134.204 213.724,134.658C217.263,135.524 220.694,136.031 224.016,136.183C226.632,136.303 229.283,135.983 231.972,135.217C235.465,134.222 238.36,132.268 240.661,129.357ZM243.479,71.736C243.735,71.592 243.736,71.227 243.483,71.08C240.22,69.183 236.602,68.285 232.647,68.36C231.844,68.375 228.366,68.806 227.998,69.897C227.858,70.312 228.169,70.743 228.615,70.754C230.187,70.794 232.213,70.761 234.689,70.661C237.401,70.552 240.276,70.864 243.277,71.713C243.382,71.743 243.452,71.752 243.479,71.736ZM232.087,75.908C231.188,75.947 230.532,77.628 230.619,79.662C230.706,81.695 231.51,83.314 232.408,83.275C233.307,83.236 233.963,81.555 233.876,79.52C233.789,77.488 232.985,75.869 232.087,75.908Z" style="fill:white;fill-opacity:0.85;"/>
    <path d="M135.377,53.541C134.51,53.247 133.275,54.571 132.619,56.501C131.963,58.432 132.13,60.234 132.998,60.529C133.865,60.824 135.1,59.5 135.756,57.569C136.412,55.638 136.245,53.836 135.377,53.541Z" style="fill:white;fill-opacity:0.15;"/>
    <path d="M151.938,58.135C151.093,57.846 149.879,59.158 149.221,61.066C148.563,62.973 148.714,64.759 149.557,65.048C150.402,65.337 151.616,64.025 152.274,62.117C152.932,60.21 152.781,58.424 151.938,58.135Z" style="fill:white;fill-opacity:0.15;"/>
    <path d="M227.505,104.158C228.223,100.909 228.189,97.696 227.4,94.518C227.001,92.907 225.972,92.272 224.315,92.62C223.542,92.782 222.65,92.937 221.637,93.082C219.754,93.351 219.502,92.17 219.46,90.551C219.32,85.246 219.804,79.984 220.9,74.756C221.487,71.954 222.157,69.171 222.914,66.412C218.377,67.65 213.731,68.293 208.97,68.348C204.293,68.402 200.641,68.378 197.059,69.45C196.942,69.485 196.864,69.594 196.873,69.718C197.247,75.227 196.882,80.499 195.693,85.533C195.448,86.569 195.297,87.543 195.247,88.455C195.015,92.624 195.122,96.699 195.573,100.68C195.782,102.532 196.116,104.049 196.574,105.225C197.994,108.473 200.202,111.245 203.195,113.542C204.646,114.656 205.961,115.565 207.138,116.266C210.683,118.38 212.967,122.511 214.174,126.345C214.803,128.344 214.807,130.731 214.182,133.502C215.226,132.462 216.127,131.407 216.891,130.335C218.938,127.461 220.802,124.47 222.483,121.366C223.457,119.569 224.402,117.478 225.32,115.087C226.004,113.306 226.38,111.563 226.449,109.851C223.546,110.076 221.093,109.848 218.734,108.012C216.995,106.658 216.887,104.352 219.638,104.561C222.297,104.764 224.92,104.627 227.505,104.158ZM214.812,77.518C213.91,77.557 213.248,79.23 213.333,81.259C213.419,83.286 214.217,84.901 215.12,84.862C216.021,84.824 216.683,83.15 216.598,81.122C216.513,79.095 215.715,77.479 214.812,77.518ZM202.81,73.84C205.221,73.196 207.728,72.953 210.34,73.114C212.074,73.221 213.774,73.278 215.156,73.11C215.61,73.055 215.909,72.625 215.769,72.225C215.373,71.092 211.64,70.759 210.953,70.793C208.166,70.934 204.943,71.718 202.733,73.095C202.47,73.259 202.394,73.46 202.516,73.704C202.57,73.813 202.694,73.871 202.81,73.84Z" style="fill:white;fill-opacity:0.75;"/>
    <path d="M243.479,71.736C243.735,71.592 243.736,71.227 243.483,71.08C240.22,69.183 236.602,68.285 232.647,68.36C231.844,68.375 228.366,68.806 227.998,69.897C227.858,70.312 228.169,70.743 228.615,70.754C230.187,70.794 232.213,70.761 234.689,70.661C237.401,70.552 240.276,70.864 243.277,71.713C243.382,71.743 243.452,71.752 243.479,71.736Z" style="fill:white;fill-opacity:0.15;"/>
    <path d="M202.81,73.84C205.221,73.196 207.728,72.953 210.34,73.114C212.074,73.221 213.774,73.278 215.156,73.11C215.61,73.055 215.909,72.625 215.769,72.225C215.373,71.092 211.64,70.759 210.953,70.793C208.166,70.934 204.943,71.718 202.733,73.095C202.47,73.259 202.394,73.46 202.516,73.704C202.57,73.813 202.694,73.871 202.81,73.84Z" style="fill:white;fill-opacity:0.15;"/>
    <path d="M232.087,75.908C231.188,75.947 230.532,77.628 230.619,79.662C230.706,81.695 231.51,83.314 232.408,83.275C233.307,83.236 233.963,81.555 233.876,79.52C233.789,77.488 232.985,75.869 232.087,75.908Z" style="fill:white;fill-opacity:0.15;"/>
    <path d="M214.812,77.518C213.91,77.557 213.248,79.23 213.333,81.259C213.419,83.286 214.217,84.901 215.12,84.862C216.021,84.824 216.683,83.15 216.598,81.122C216.513,79.095 215.715,77.479 214.812,77.518Z" style="fill:white;fill-opacity:0.15;"/>
    <path d="M129.627,87.932C128.238,87.035 127.362,86.203 125.894,85.063C124.513,83.991 122.949,83.845 122.009,85.358C120.977,87.02 122.179,88.401 123.286,89.643C125.455,92.077 128.23,94.029 131.614,95.507L132.061,89.385C131.995,89.355 131.93,89.324 131.882,89.298C131.168,88.897 130.415,88.44 129.627,87.932Z" style="fill:white;fill-opacity:0.95;"/>
    <path d="M131.614,95.507C133.718,96.466 136.159,97.047 138.934,97.25C140.847,97.389 141.965,96.629 142.283,94.964C142.477,93.951 141.829,92.751 140.933,92.527C137.836,91.75 135.095,90.968 132.336,89.511C132.281,89.482 132.169,89.434 132.061,89.385L131.614,95.507Z" style="fill:white;fill-opacity:0.85;"/>
    <path d="M141.387,112.789C141.138,114.858 141.022,116.934 141.041,119.018C141.057,120.706 141.425,122.321 142.151,123.865C141.487,123.737 140.335,123.394 138.689,122.841C128.722,119.488 120.504,114.026 114.061,106.42C113.141,105.334 112.585,104.333 111.818,103.405C111.468,102.982 110.983,102.163 110.358,100.948C109.912,100.079 109.423,99.194 108.891,98.29C108.41,97.576 107.917,95.395 107.952,95.43C110.995,98.445 114.506,100.756 118.485,102.357C119.296,102.683 120.492,103.044 122.071,103.436C127.982,105.008 133.897,106.569 139.819,108.136C140.273,108.256 141.119,108.275 142.361,108.194L141.387,112.789Z" style="fill:white;fill-opacity:0.85;"/>
    <path d="M108.891,98.29C110.017,101.849 110.598,104.558 110.638,106.409C110.668,107.837 110.562,109.262 110.316,110.678C110.065,112.118 109.4,113.464 108.317,114.718C107.956,115.335 107.529,115.94 107.044,116.526C105.942,117.858 106.284,119.988 106.629,121.529C108.346,129.194 113.529,134.386 120.845,136.886C128.44,139.482 140.333,139.502 142.26,129.314C142.485,128.123 142.282,127.163 142.419,126.093C142.434,125.976 142.426,125.86 142.396,125.748C142.276,125.302 142.287,124.894 142.419,124.533C142.361,124.226 142.271,124.005 142.151,123.865C141.487,123.737 140.335,123.394 138.689,122.841C128.722,119.488 120.504,114.026 114.061,106.42C113.141,105.334 112.585,104.333 111.818,103.405C111.468,102.982 110.983,102.163 110.358,100.948C109.912,100.079 109.423,99.194 108.891,98.29Z" style="fill:white;fill-opacity:0.95;"/>
    <path d="M226.449,109.851C228.11,109.696 229.717,109.23 231.27,108.45C232.628,107.767 235.059,105.691 234.898,103.983C234.835,103.312 234.49,102.883 233.858,102.683C233.543,102.583 232.985,102.671 232.189,102.947C230.676,103.471 229.116,103.874 227.505,104.158C224.92,104.627 222.297,104.764 219.638,104.561C216.887,104.352 216.995,106.658 218.734,108.012C221.093,109.848 223.546,110.076 226.449,109.851Z" style="fill:white;fill-opacity:0.15;"/>
    <path d="M64.047,257.39C63.775,259.683 64.235,261.603 65.425,263.145C66.781,264.902 68.487,266.599 70.54,268.241C78.558,274.652 89.114,279.181 98.979,280.807C105.076,281.812 111.961,282.384 119.638,282.527C121.477,282.561 123.856,282.475 126.771,282.27C130.369,282.017 132.744,281.811 133.889,281.646C139.542,280.828 144.352,279.806 149.443,277.586C145.015,274.404 140.971,270.825 137.312,266.855L126.394,267.794C126.274,267.802 126.165,267.728 126.134,267.612L121.838,252.437C117.387,249.732 113.789,246.154 111.041,241.703C108.581,237.717 106.902,232.012 107.719,227.289C107.99,225.725 109.45,220.14 111.193,220.012C110.975,219.562 111.062,218.773 110.762,218.526C110.641,218.426 110.585,218.293 110.599,218.126C110.606,218.048 110.57,217.901 110.49,217.687C108.979,213.653 107.56,209.813 106.167,206.2C104.712,202.427 103.085,198.496 101.289,194.409C100.78,193.253 100.834,192.147 101.459,191.087C101.638,190.785 102.086,190.341 102.798,189.748C102.966,189.609 103.167,189.522 103.38,189.496C103.822,189.443 104.199,189.336 104.514,189.17C104.595,189.127 104.684,189.1 104.778,189.096L110.925,188.592L106.935,184.156C106.792,183.997 106.92,183.748 107.129,183.768C114.727,184.496 122.246,185.836 129.697,187.719C134.133,188.84 138.72,190.114 143.459,191.541C148.007,192.912 152.525,194.409 157.011,196.032C159.119,196.773 161.287,197.447 163.52,198.038C164.02,198.171 165.002,198.519 166.465,199.09C167.49,199.49 168.479,199.828 169.43,200.107C170.979,200.561 172.843,201.194 175.027,202.02C175.384,202.155 175.668,202.439 175.803,202.8C178.144,209.049 180.145,215.08 181.83,220.881C184.747,230.922 187.196,239.786 189.181,247.474C190.612,253.02 191.936,258.647 193.147,264.356C194.952,263.386 196.116,262.796 196.632,262.586C198.615,261.782 201.165,261.005 204.274,260.254C208.807,259.158 213.316,257.968 217.799,256.687C221.847,255.531 227.447,254.184 234.592,252.643C234.602,252.649 234.612,252.655 234.622,252.661C234.611,252.643 234.569,252.593 234.498,252.511C233.331,251.16 232.147,249.825 230.94,248.51C228.733,246.107 227.129,244.574 226.127,243.907C224.906,243.095 223.706,242.165 222.522,241.117C222.619,242.564 222.767,243.788 221.261,244.536C220.814,244.757 220.105,244.914 219.13,244.978C218.924,244.992 218.723,245.026 218.524,245.083C216.757,245.593 214.248,246.311 211.007,247.264C207.356,248.338 204.801,248.951 203.354,249.115C202.508,249.212 201.732,249.164 201.021,248.976C200.595,248.862 200.315,248.459 200.358,248.025C200.419,247.404 200.987,247.304 201.514,247.14C206.666,245.543 211.727,243.681 216.704,241.579C217.589,241.205 218.521,240.632 219.452,240.181C217.64,239.619 216.029,238.94 214.628,238.144C211.236,239.37 207.891,240.486 204.592,241.489C202.609,242.092 200.97,242.462 199.671,242.611C199.112,242.675 198.67,242.642 198.34,242.51C197.901,242.335 197.8,241.757 198.153,241.447C198.507,241.136 198.968,240.872 199.547,240.659C203.797,239.088 207.976,237.36 212.086,235.478L210.634,232.672C207.378,233.921 204.104,235.035 200.8,236.006C199.555,236.372 196.822,237.106 195.666,236.72C195.192,236.561 194.973,236.005 195.208,235.544C195.362,235.24 195.673,235.015 196.139,234.865C200.671,233.397 205.193,231.818 209.703,230.106L207.732,223.295L195.351,227.405C195.247,227.44 195.142,227.462 195.033,227.471C194.563,227.509 194.098,227.553 193.64,227.584C191.909,227.701 191.78,226.04 191.222,224.425C190.915,223.536 190.657,222.845 190.45,222.352C186.962,214.064 184.391,207.921 182.824,203.891C182.454,202.94 182.487,202.329 183.472,201.841C184.501,201.332 185.646,200.682 186.902,199.893C187.73,199.374 189.429,198.559 192.002,197.448C193.815,196.665 195.515,195.866 197.105,195.05C203.22,191.914 207.803,189.648 210.856,188.246C211.842,187.794 212.645,188.103 213.262,189.17C214.008,190.462 215.276,193.676 217.069,198.814C217.333,199.001 217.686,199.179 218.125,199.346C218.672,199.555 219.033,199.706 219.211,199.796C223.03,201.725 226.208,204.147 228.79,206.999C229.026,207.26 229.752,208.145 230.971,209.662C233.376,212.655 234.858,215.852 235.422,219.263C235.875,222.003 236.249,224.324 236.544,226.226C236.792,227.828 236.946,229.622 238.03,230.564C240.279,232.519 242.576,234.257 244.915,235.788C248.048,237.839 251.361,239.762 254.858,241.559L251.303,226.311C250.744,223.901 250.201,221.533 249.673,219.217C247.05,207.64 243.591,191.75 239.291,171.551C238.884,169.637 238.366,168.006 237.731,166.653C237.364,165.868 236.722,165.592 235.802,165.822C234.983,166.027 233.365,166.657 230.951,167.708C225.941,170.196 221.699,172.44 218.218,174.442C205.194,181.933 191.948,190.478 178.485,200.083C177.786,200.584 177.188,201.147 176.331,201.884C176.226,201.974 176.078,201.97 175.974,201.88C175.955,201.864 175.895,201.8 175.799,201.682C175.724,201.59 175.651,201.524 175.578,201.488C172.465,199.956 169.335,198.445 166.159,197.006C166.05,196.956 165.988,196.835 166.015,196.719L167.37,191.13C166.543,190.54 165.661,189.955 164.723,189.376C164.152,189.023 163.62,188.408 163.116,187.532C163.047,187.412 163.011,187.272 163.011,187.129C163.011,186.104 162.965,184.983 163.104,183.888C163.715,179.103 164.743,174.124 166.19,168.954C168.113,162.082 170.067,156.361 173.653,150.939C174.895,149.061 176.463,147.291 178.508,145.983C180.262,144.861 182.129,143.965 184.112,143.301C182.195,139.18 179.758,135.473 176.796,132.182C172.706,127.637 166.943,124.025 161.09,123.272C158.742,122.969 157.046,122.837 156.002,122.876C153.002,122.988 150.099,123.343 147.293,123.947C146.486,124.121 145.679,124.246 144.868,124.315C144.049,124.386 143.23,124.459 142.419,124.533C142.287,124.894 142.276,125.302 142.396,125.748C142.426,125.86 142.434,125.976 142.419,126.093C142.282,127.163 142.485,128.123 142.26,129.314C140.333,139.502 128.44,139.482 120.845,136.886C113.529,134.386 108.346,129.194 106.629,121.529C106.284,119.988 105.942,117.858 107.044,116.526C107.529,115.94 107.956,115.335 108.317,114.718C107.347,114.326 106.376,113.934 105.406,113.55C104.339,113.127 103.377,112.707 102.527,112.296C95.503,108.899 87.139,105.01 79.295,105.749C72.442,106.395 65.985,109.442 60.282,113.336C56.763,115.74 54.294,117.504 52.87,118.634C45.134,124.769 38.172,130.163 31.99,134.817C29.727,136.521 27.781,138.358 26.138,140.317C26.056,140.414 26.033,140.55 26.076,140.67C26.365,141.478 26.464,142.315 26.371,143.181C27.252,146.22 28.438,149.142 29.926,151.956C34.165,159.975 39.213,167.464 45.069,174.426C46.633,176.212 47.766,177.387 48.473,177.95C49.583,178.835 52.587,177.454 54.348,176.677C58.195,174.982 61.333,173.467 63.795,172.206C63.903,172.151 64.039,172.203 64.082,172.319C66.269,178.267 68.313,184.564 68.937,190.827C68.991,191.367 69.093,192.616 69.24,194.569C69.478,197.743 68.997,201.341 69.034,204.011C69.037,204.213 69.014,204.418 68.964,204.612C68.612,205.992 68.688,207.636 68.491,209.114C67.495,216.573 66.562,224.079 65.681,231.632C71.479,228.612 77.421,226.747 83.921,227.207C86.479,227.389 88.823,227.893 90.957,228.721C95.682,230.554 99.146,233.611 102.162,237.212C106.994,242.968 111.168,254.038 102.135,258.286C99.825,259.372 97.606,259.806 95.475,259.586C93.43,259.375 91.271,258.745 89.052,257.681C85.446,255.951 82.264,254.363 78.189,254.646C77.394,254.701 76.652,254.901 75.961,255.247C72.878,256.793 71.285,257.548 68.196,258.065C67.098,258.248 65.716,258.022 64.047,257.39Z" style="fill:white;fill-opacity:0.5;"/>
    <path d="M26.371,143.181C19.164,149.899 12.76,157.273 7.16,165.298C5.332,167.918 3.676,170.527 2.188,173.122C1.087,175.044 -0.268,177.857 0.046,179.891C0.166,180.671 0.588,181.836 1.315,183.384C1.853,184.529 3.574,187.691 6.473,192.88C12.011,202.781 18.793,212.318 26.821,221.483C29.766,224.845 32.915,228.084 36.271,231.209C38.084,232.896 41.234,235.49 43.59,237.903C47.269,241.672 51.369,245.538 55.924,249.465C56.087,249.605 56.81,250.286 58.094,251.518C58.292,251.708 58.45,251.937 58.551,252.189C59.295,254.041 60.531,255.452 62.25,256.431C62.863,256.78 63.461,257.099 64.047,257.39C65.716,258.022 67.098,258.248 68.196,258.065C71.285,257.548 72.878,256.793 75.961,255.247C76.652,254.901 77.394,254.701 78.189,254.646C82.264,254.363 85.446,255.951 89.052,257.681C91.271,258.745 93.43,259.375 95.475,259.586C97.606,259.806 99.825,259.372 102.135,258.286C111.168,254.038 106.994,242.968 102.162,237.212C99.146,233.611 95.682,230.554 90.957,228.721C88.823,227.893 86.479,227.389 83.921,227.207C77.421,226.747 71.479,228.612 65.681,231.632L65.079,232.059C64.959,232.144 64.789,232.105 64.718,231.973C64.13,230.876 63.732,230.095 63.542,229.617C61.213,223.735 58.75,219.142 55.051,213.038C51.478,207.142 46.438,199.292 39.942,189.485C38.968,188.014 37.841,186.132 36.539,183.853C36.345,183.515 36.407,183.085 36.682,182.809L45.069,174.426C39.213,167.464 34.165,159.975 29.926,151.956C28.438,149.142 27.252,146.22 26.371,143.181Z" style="fill:white;fill-opacity:0.95;"/>
    <path d="M263.382,210.479C263.296,210.079 263.236,209.784 263.214,209.634C262.436,204.419 261.749,199.313 261.199,194.316C261.167,194.025 260.761,193.983 260.668,194.262C257.068,205.017 253.721,215.429 251.303,226.311C250.744,223.901 250.201,221.533 249.673,219.217C247.05,207.64 243.591,191.75 239.291,171.551C238.884,169.637 238.366,168.006 237.731,166.653C237.364,165.868 236.722,165.592 235.802,165.822C234.983,166.027 233.365,166.657 230.951,167.708L228.603,162.461C228.487,162.197 228.18,162.072 227.909,162.178C226.607,162.686 225.347,163.315 224.125,164.053C214.791,169.683 205.9,175.885 197.443,182.666C191.47,187.455 185.305,193.121 179.517,198.628C179.416,198.725 179.245,198.671 179.222,198.531L178.997,197.146C178.954,196.885 178.779,196.665 178.531,196.567C174.702,195.064 170.983,193.245 167.37,191.13C166.543,190.54 165.661,189.955 164.723,189.376C164.152,189.023 163.62,188.408 163.116,187.532C163.047,187.412 163.011,187.272 163.011,187.129C163.011,186.104 162.965,184.983 163.104,183.888C163.715,179.103 164.743,174.124 166.19,168.954C168.113,162.082 170.067,156.361 173.653,150.939C174.895,149.061 176.463,147.291 178.508,145.983C180.262,144.861 182.129,143.965 184.112,143.301C186.922,142.432 188.692,141.917 189.425,141.757C192.493,141.084 196.512,140.995 200.505,141.015C203.315,141.03 205.598,141.318 208.395,141.481C208.512,141.488 208.628,141.465 208.733,141.411C211.281,140.093 212.87,137.553 213.724,134.658C217.263,135.524 220.694,136.031 224.016,136.183C226.632,136.303 229.283,135.983 231.972,135.217C235.465,134.222 238.36,132.268 240.661,129.357C242.734,132.586 244.834,135.624 246.964,138.473C247.954,139.797 248.951,140.965 249.96,141.978C250.795,142.816 251.443,143.174 252.727,143.134C253.713,143.104 254.924,143.279 256.1,143.282C261.762,143.297 267.141,143.722 272.229,144.559C273.886,144.831 275.365,145.165 276.665,145.556C277.352,145.762 277.984,146.061 278.559,146.452C280.579,147.826 282.046,149.039 282.964,150.101C283.014,150.159 283.896,151.221 285.615,153.295C286.55,154.424 287.269,155.355 287.768,156.089C287.99,156.415 288.177,156.768 288.327,157.133C290.958,163.539 293.309,170.083 295.441,176.736C296.032,178.579 296.478,180.391 296.78,182.181C297.788,188.149 298.465,194.293 298.798,200.615C298.857,201.733 298.883,203.933 298.876,207.217C298.871,209.456 298.325,211.066 297.226,212.048C292.984,213.884 288.68,215.32 284.311,216.364C279.634,217.481 277.247,218.053 277.142,218.079C274.837,218.663 272.349,219.179 269.699,219.678C268.942,219.821 265.434,220.125 265.278,219.213C265.011,217.646 264.233,214.274 263.709,211.953C263.581,211.385 263.468,210.88 263.382,210.479Z" style="fill:white;fill-opacity:0.95;"/>
    <path d="M167.37,191.13L166.015,196.719C165.988,196.835 166.05,196.956 166.159,197.006C169.335,198.445 172.465,199.956 175.578,201.488C175.651,201.524 175.724,201.59 175.799,201.682C175.895,201.8 175.955,201.864 175.974,201.88C176.078,201.97 176.226,201.974 176.331,201.884C177.188,201.147 177.786,200.584 178.485,200.083C191.948,190.478 205.194,181.933 218.218,174.442C221.699,172.44 225.941,170.196 230.951,167.708L228.603,162.461C228.487,162.197 228.18,162.072 227.909,162.178C226.607,162.686 225.347,163.315 224.125,164.053C214.791,169.683 205.9,175.885 197.443,182.666C191.47,187.455 185.305,193.121 179.517,198.628C179.416,198.725 179.245,198.671 179.222,198.531L178.997,197.146C178.954,196.885 178.779,196.665 178.531,196.567C174.702,195.064 170.983,193.245 167.37,191.13Z" style="fill:white;fill-opacity:0.75;"/>
    <path d="M157.011,196.032C152.525,194.409 148.007,192.912 143.459,191.541C138.72,190.114 134.133,188.84 129.697,187.719C122.246,185.836 114.727,184.496 107.129,183.768C106.92,183.748 106.792,183.997 106.935,184.156L110.925,188.592C112.039,188.673 113.195,188.766 114.398,188.875C115.458,188.972 116.611,189.056 117.864,189.124C120.624,189.272 123.371,189.527 126.115,189.876C136.52,191.2 146.816,193.253 157.011,196.032Z" style="fill:white;fill-opacity:0.75;"/>
    <path d="M217.069,198.814C215.276,193.676 214.008,190.462 213.262,189.17C212.645,188.103 211.842,187.794 210.856,188.246C207.803,189.648 203.22,191.914 197.105,195.05C195.515,195.866 193.815,196.665 192.002,197.448C189.429,198.559 187.73,199.374 186.902,199.893C185.646,200.682 184.501,201.332 183.472,201.841C182.487,202.329 182.454,202.94 182.824,203.891C184.391,207.921 186.962,214.064 190.45,222.352C190.657,222.845 190.915,223.536 191.222,224.425C191.78,226.04 191.909,227.701 193.64,227.584C194.098,227.553 194.563,227.509 195.033,227.471C195.142,227.462 195.247,227.44 195.351,227.405L207.732,223.295C207.297,222.364 206.936,221.724 206.653,221.374C204.879,219.189 202.849,217.536 200.563,216.407C197.462,214.874 195.297,213.771 194.067,213.1C192.65,212.328 191.431,211.129 190.407,209.495C188.31,206.15 189.38,202.883 192.25,200.324C194.452,198.361 197.102,197.154 200.202,196.707C205.88,195.889 211.504,196.591 217.069,198.814Z" style="fill:white;fill-opacity:0.35;"/>
    <path d="M110.925,188.592L104.778,189.096C104.684,189.1 104.595,189.127 104.514,189.17C104.199,189.336 103.822,189.443 103.38,189.496C103.167,189.522 102.966,189.609 102.798,189.748C102.086,190.341 101.638,190.785 101.459,191.087C100.834,192.147 100.78,193.253 101.289,194.409C103.085,198.496 104.712,202.427 106.167,206.2C107.56,209.813 108.979,213.653 110.49,217.687C110.57,217.901 110.606,218.048 110.599,218.126C110.585,218.293 110.641,218.426 110.762,218.526C111.062,218.773 110.975,219.562 111.193,220.012C111.523,220.008 111.856,219.965 112.194,219.888C113.048,219.693 113.824,219.751 114.662,219.756C115.233,219.759 116.548,220.016 118.605,220.521C116.316,214.412 114.068,208.352 111.849,202.35C111.527,201.48 111.362,200.541 111.336,199.528C111.333,199.404 111.403,199.288 111.515,199.23C112.34,198.796 112.908,198.551 113.23,198.508C114.942,198.278 116.564,197.961 118.648,197.98C121.314,198.004 123.526,197.938 126.309,198.209C130.9,198.656 134.87,199.151 138.224,199.695C139.737,199.941 140.574,200.747 140.727,202.113C140.802,202.784 141.038,204.007 141.437,205.777C143.44,214.663 145.738,223.214 148.136,231.48C148.172,231.604 148.184,231.733 148.171,231.865C148.03,233.252 147.258,233.868 145.908,233.712C145.741,233.693 145.582,233.642 145.438,233.557C142.844,232.02 139.757,230.727 136.182,229.664C132.802,228.659 130.252,227.929 128.533,227.471C129.158,230.782 130.101,233.599 131.362,235.924C134.172,241.105 138.728,243.742 143.521,246.779C143.809,246.961 144.049,247.206 144.216,247.501L145.547,249.806C145.625,249.942 145.648,250.101 145.605,250.256L145.24,251.626C145.085,252.205 145.367,252.806 145.9,253.074C146.075,253.162 146.335,253.275 146.68,253.412C149.139,254.384 152.715,255.825 157.407,257.716C162.538,259.783 167.259,262.083 171.565,264.624C171.736,264.724 171.934,264.779 172.132,264.775L183.056,264.674C187.283,264.814 190.158,264.852 191.684,264.802C192.083,264.789 192.569,264.639 193.147,264.356C191.936,258.647 190.612,253.02 189.181,247.474C187.196,239.786 184.747,230.922 181.83,220.881C180.145,215.08 178.144,209.049 175.803,202.8C175.668,202.439 175.384,202.155 175.027,202.02C172.843,201.194 170.979,200.561 169.43,200.107C168.479,199.828 167.49,199.49 166.465,199.09C165.002,198.519 164.02,198.171 163.52,198.038C161.287,197.447 159.119,196.773 157.011,196.032C146.816,193.253 136.52,191.2 126.115,189.876C123.371,189.527 120.624,189.272 117.864,189.124C116.611,189.056 115.458,188.972 114.398,188.875C113.195,188.766 112.039,188.673 110.925,188.592ZM146.995,207.228C147.59,207.762 149.242,207.825 149.89,207.81C157.787,207.636 165.014,207.538 171.561,207.438C172.019,207.431 172.368,207.034 172.318,206.58L172.314,206.557C172.256,206.064 171.864,205.676 171.371,205.625C165.084,204.983 157.104,205.302 152.898,205.509C150.938,205.605 149.486,205.727 148.539,205.878C147.926,205.975 147.416,206.186 147.01,206.518C146.788,206.699 146.782,207.037 146.995,207.228ZM151.229,220.016C151.24,220.971 152.121,221.447 153.872,221.444C158.886,221.437 163.865,221.346 168.809,221.169C170.661,221.102 172.046,220.993 172.974,220.847C173.839,220.71 174.266,220.338 174.258,219.733C174.251,219.123 173.812,218.76 172.947,218.646C172.015,218.523 170.626,218.45 168.775,218.429C163.83,218.37 158.847,218.403 153.837,218.522C152.086,218.563 151.217,219.061 151.229,220.016ZM150.227,213.519C150.286,214.183 150.848,214.684 151.512,214.668C158.668,214.478 164.89,214.28 170.172,214.074C171.072,214.039 171.879,213.946 172.593,213.803C173.044,213.709 173.315,213.263 173.172,212.856C173.051,212.526 172.772,212.32 172.329,212.246C171.029,212.025 169.081,211.905 166.481,211.885C161.863,211.85 156.798,211.967 151.291,212.235C150.65,212.266 150.165,212.821 150.22,213.457L150.227,213.519Z" style="fill:white;fill-opacity:0.4;"/>
    <path d="M251.303,226.311L254.858,241.559C256.181,242.273 257.567,242.976 259.014,243.67C259.209,243.764 259.352,243.74 259.538,243.667C259.123,241.614 259.044,239.859 259.298,238.404C259.526,237.096 259.636,236.355 259.632,236.172C259.598,234.86 260.046,233.832 260.016,232.501C260.011,232.291 260.043,232.082 260.109,231.88C260.191,231.628 260.291,230.972 260.408,229.92C261.023,224.375 262.125,218.384 263.709,211.953C263.581,211.385 263.468,210.88 263.382,210.479C263.317,210.234 263.261,209.953 263.214,209.634C262.436,204.419 261.749,199.313 261.199,194.316C261.167,194.025 260.761,193.983 260.668,194.262C257.068,205.017 253.721,215.429 251.303,226.311Z" style="fill:white;fill-opacity:0.35;"/>
    <path d="M269.047,282.647L274.981,285.662C275.097,285.724 275.237,285.721 275.353,285.658C278.005,284.243 280.181,282.297 281.893,279.825C286.534,273.123 289.592,264.146 291.389,256.621C294.159,245.028 296.039,233.238 297.028,221.246C297.273,218.281 297.184,215.196 297.226,212.048C292.984,213.884 288.68,215.32 284.311,216.364C279.634,217.481 277.247,218.053 277.142,218.079C274.837,218.663 272.349,219.179 269.699,219.678C268.942,219.821 269.046,226.016 268.841,228.566C268.366,234.469 267.736,240.483 266.963,246.612C266.908,247.047 266.954,247.418 267.095,247.726C267.126,247.796 267.063,247.866 266.99,247.846C266.963,247.839 264.525,246.614 259.74,244.039C259.662,243.997 259.611,243.947 259.585,243.888C259.556,243.822 259.542,243.748 259.538,243.667C259.352,243.74 259.209,243.764 259.014,243.67C257.567,242.976 256.181,242.273 254.858,241.559C251.361,239.762 248.048,237.839 244.915,235.788C242.576,234.257 240.279,232.519 238.03,230.564C236.946,229.622 236.792,227.828 236.544,226.226C236.249,224.324 235.875,222.003 235.422,219.263C234.858,215.852 233.376,212.655 230.971,209.662C229.752,208.145 229.026,207.26 228.79,206.999C226.208,204.147 223.03,201.725 219.211,199.796C219.033,199.706 218.672,199.555 218.125,199.346C217.686,199.179 217.333,199.001 217.069,198.814C211.504,196.591 205.88,195.889 200.202,196.707C197.102,197.154 194.452,198.361 192.25,200.324C189.38,202.883 188.31,206.15 190.407,209.495C191.431,211.129 192.65,212.328 194.067,213.1C195.297,213.771 197.462,214.874 200.563,216.407C202.849,217.536 204.879,219.189 206.653,221.374C206.936,221.724 207.297,222.364 207.732,223.295L209.703,230.106L210.634,232.672L212.086,235.478L214.628,238.144C216.029,238.94 217.64,239.619 219.452,240.181C220.659,240.333 221.684,240.647 222.522,241.117C223.706,242.165 224.906,243.095 226.127,243.907C227.129,244.574 228.733,246.107 230.94,248.51C232.147,249.825 233.331,251.16 234.498,252.511C234.569,252.593 234.611,252.643 234.622,252.661C234.75,252.736 234.844,252.812 234.902,252.88C238.827,257.519 242.951,261.965 247.24,266.238C248.877,267.791 250.543,269.304 252.238,270.775C256.644,274.597 261.35,278 266.361,280.982C267.203,281.483 268.096,282.038 269.047,282.647Z" style="fill:white;fill-opacity:0.85;"/>
    <path d="M128.533,227.471C126.131,224.13 122.82,221.813 118.605,220.521C116.316,214.412 114.068,208.352 111.849,202.35C111.527,201.48 111.362,200.541 111.336,199.528C111.333,199.404 111.403,199.288 111.515,199.23C112.34,198.796 112.908,198.551 113.23,198.508C114.942,198.278 116.564,197.961 118.648,197.98C121.314,198.004 123.526,197.938 126.309,198.209C130.9,198.656 134.87,199.151 138.224,199.695C139.737,199.941 140.574,200.747 140.727,202.113C140.802,202.784 141.038,204.007 141.437,205.777C143.44,214.663 145.738,223.214 148.136,231.48C148.172,231.604 148.184,231.733 148.171,231.865C148.03,233.252 147.258,233.868 145.908,233.712C145.741,233.693 145.582,233.642 145.438,233.557C142.844,232.02 139.757,230.727 136.182,229.664C132.802,228.659 130.252,227.929 128.533,227.471Z" style="fill:white;fill-opacity:0.2;"/>
    <path d="M146.995,207.228C147.59,207.762 149.242,207.825 149.89,207.81C157.787,207.636 165.014,207.538 171.561,207.438C172.019,207.431 172.368,207.034 172.318,206.58L172.314,206.557C172.256,206.064 171.864,205.676 171.371,205.625C165.084,204.983 157.104,205.302 152.898,205.509C150.938,205.605 149.486,205.727 148.539,205.878C147.926,205.975 147.416,206.186 147.01,206.518C146.788,206.699 146.782,207.037 146.995,207.228Z" style="fill:white;fill-opacity:0.2;"/>
    <path d="M150.227,213.519C150.286,214.183 150.848,214.684 151.512,214.668C158.668,214.478 164.89,214.28 170.172,214.074C171.072,214.039 171.879,213.946 172.593,213.803C173.044,213.709 173.315,213.263 173.172,212.856C173.051,212.526 172.772,212.32 172.329,212.246C171.029,212.025 169.081,211.905 166.481,211.885C161.863,211.85 156.798,211.967 151.291,212.235C150.65,212.266 150.165,212.821 150.22,213.457L150.227,213.519Z" style="fill:white;fill-opacity:0.2;"/>
    <path d="M151.229,220.016C151.24,220.971 152.121,221.447 153.872,221.444C158.886,221.437 163.865,221.346 168.809,221.169C170.661,221.102 172.046,220.993 172.974,220.847C173.839,220.71 174.266,220.338 174.258,219.733C174.251,219.123 173.812,218.76 172.947,218.646C172.015,218.523 170.626,218.45 168.775,218.429C163.83,218.37 158.847,218.403 153.837,218.522C152.086,218.563 151.217,219.061 151.229,220.016Z" style="fill:white;fill-opacity:0.2;"/>
    <path d="M149.443,277.586C155.68,281.704 162.026,284.582 169.427,285.88C171.301,286.208 173.389,286.229 175.698,285.942C176.067,285.821 176.843,285.747 178.027,285.709C178.927,285.68 179.884,285.187 180.899,284.238C181.015,284.129 181.105,284.001 181.166,283.858C182.095,281.698 181.846,279.527 182.187,277.21C182.797,273.065 183.084,268.885 183.056,264.674L172.132,264.775C171.934,264.779 171.736,264.724 171.565,264.624C167.259,262.083 162.538,259.783 157.407,257.716C152.715,255.825 149.139,254.384 146.68,253.412C146.335,253.275 146.075,253.162 145.9,253.074C145.367,252.806 145.085,252.205 145.24,251.626L145.605,250.256C145.648,250.101 145.625,249.942 145.547,249.806L144.216,247.501C144.049,247.206 143.809,246.961 143.521,246.779C138.728,243.742 134.172,241.105 131.362,235.924C130.101,233.599 129.158,230.782 128.533,227.471C126.131,224.13 122.82,221.813 118.605,220.521C116.548,220.016 115.233,219.759 114.662,219.756C113.824,219.751 113.048,219.693 112.194,219.888C111.856,219.965 111.523,220.008 111.193,220.012C109.45,220.14 107.99,225.725 107.719,227.289C106.902,232.012 108.581,237.717 111.041,241.703C113.789,246.154 117.387,249.732 121.838,252.437C124.046,254.071 126.178,255.409 128.246,256.431C128.672,256.642 129.037,256.955 129.309,257.343C131.634,260.656 134.304,263.824 137.312,266.855C140.971,270.825 145.015,274.404 149.443,277.586Z" style="fill:white;fill-opacity:0.85;"/>
    <path d="M209.703,230.106C205.193,231.818 200.671,233.397 196.139,234.865C195.673,235.015 195.362,235.24 195.208,235.544C194.973,236.005 195.192,236.561 195.666,236.72C196.822,237.106 199.555,236.372 200.8,236.006C204.104,235.035 207.378,233.921 210.634,232.672L209.703,230.106Z" style="fill:white;fill-opacity:0.35;"/>
    <path d="M212.086,235.478C207.976,237.36 203.797,239.088 199.547,240.659C198.968,240.872 198.507,241.136 198.153,241.447C197.8,241.757 197.901,242.335 198.34,242.51C198.67,242.642 199.112,242.675 199.671,242.611C200.97,242.462 202.609,242.092 204.592,241.489C207.891,240.486 211.236,239.37 214.628,238.144L212.086,235.478Z" style="fill:white;fill-opacity:0.35;"/>
    <path d="M219.452,240.181C218.521,240.632 217.589,241.205 216.704,241.579C211.727,243.681 206.666,245.543 201.514,247.14C200.987,247.304 200.419,247.404 200.358,248.025C200.315,248.459 200.595,248.862 201.021,248.976C201.732,249.164 202.508,249.212 203.354,249.115C204.801,248.951 207.356,248.338 211.007,247.264C214.248,246.311 216.757,245.593 218.524,245.083C218.723,245.026 218.924,244.992 219.13,244.978C220.105,244.914 220.814,244.757 221.261,244.536C222.767,243.788 222.619,242.564 222.522,241.117C221.684,240.647 220.659,240.333 219.452,240.181Z" style="fill:white;fill-opacity:0.35;"/>
    <path d="M121.838,252.437L126.134,267.612C126.165,267.728 126.274,267.802 126.394,267.794L137.312,266.855C134.304,263.824 131.634,260.656 129.309,257.343C129.037,256.955 128.672,256.642 128.246,256.431C126.178,255.409 124.046,254.071 121.838,252.437Z" style="fill:white;fill-opacity:0.4;"/>
    <path d="M234.622,252.661C234.612,252.655 234.602,252.649 234.592,252.643C234.621,252.669 234.631,252.675 234.622,252.661Z" style="fill:white;fill-opacity:0.95;"/>
    <path d="M175.698,285.942L176.824,287.649L176.859,287.696C179.688,290.902 183.953,292.971 187.919,294.348C196.74,297.411 205.318,299.157 213.65,299.591C216.091,299.718 217.795,299.824 218.769,299.909C219.867,300.006 221.784,300.025 224.528,299.968C226.387,299.928 228.087,299.614 229.884,299.665C230.614,299.686 231.659,299.618 233.02,299.444C233.136,299.429 234.18,299.314 236.148,299.102C241.325,298.544 246.479,297.387 251.614,295.621C248.551,286.128 247.096,276.333 247.24,266.238C242.951,261.965 238.827,257.519 234.902,252.88C234.844,252.812 234.75,252.736 234.622,252.661C234.631,252.675 234.621,252.669 234.592,252.643C227.447,254.184 221.847,255.531 217.799,256.687C213.316,257.968 208.807,259.158 204.274,260.254C201.165,261.005 198.615,261.782 196.632,262.586C196.116,262.796 194.952,263.386 193.147,264.356C192.569,264.639 192.083,264.789 191.684,264.802C190.158,264.852 187.283,264.814 183.056,264.674C183.084,268.885 182.797,273.065 182.187,277.21C181.846,279.527 182.095,281.698 181.166,283.858C181.105,284.001 181.015,284.129 180.899,284.238C179.884,285.187 178.927,285.68 178.027,285.709C176.843,285.747 176.067,285.821 175.698,285.942Z" style="fill:white;fill-opacity:0.95;"/>
    <path d="M251.614,295.621C254.532,294.546 256.523,293.704 257.586,293.091C259.333,292.082 265.495,287.742 266.99,286.279C267.863,285.425 268.55,284.215 269.047,282.647C268.096,282.038 267.203,281.483 266.361,280.982C261.35,278 256.644,274.597 252.238,270.775C250.543,269.304 248.877,267.791 247.24,266.238C247.096,276.333 248.551,286.128 251.614,295.621Z" style="fill:white;fill-opacity:0.35;"/>
</svg>
