<?xml version="1.0" encoding="UTF-8" standalone="no"?>
<!DOCTYPE svg PUBLIC "-//W3C//DTD SVG 1.1//EN" "http://www.w3.org/Graphics/SVG/1.1/DTD/svg11.dtd">
<svg width="100%" height="100%" viewBox="0 0 300 300" version="1.1" xmlns="http://www.w3.org/2000/svg" xmlns:xlink="http://www.w3.org/1999/xlink" xml:space="preserve" xmlns:serif="http://www.serif.com/" style="fill-rule:evenodd;clip-rule:evenodd;stroke-linejoin:round;stroke-miterlimit:2;">
    <path d="M84.399,11.172L84.166,11.703C84.124,11.793 84.124,11.895 84.162,11.988C84.268,12.241 84.319,12.557 84.319,12.932C84.319,90.928 84.319,160.612 84.322,221.987C84.322,222.687 84.297,223.4 84.242,224.126C84.194,224.779 84.143,225.489 84.089,226.257C83.456,226.1 82.784,226.218 82.074,226.608C81.914,226.397 81.479,226.301 80.772,226.324C78.716,226.391 76.717,226.4 74.772,226.356C74.577,226.352 74.424,226.196 74.424,226.001L74.424,11.332C74.424,11.134 74.584,10.977 74.782,10.981C77.958,11.038 80.967,11.057 83.807,11.035C83.967,11.032 84.166,11.08 84.399,11.172Z" style="fill:white;fill-opacity:0.25;fill-rule:nonzero;"/>
    <path d="M84.399,11.172L128.091,29.185C128.1,29.188 128.113,29.195 128.123,29.201C128.663,29.524 129.181,29.71 129.68,29.758L130.966,30.401C131.238,30.535 131.407,30.816 131.401,31.12L131.366,33.193L131.411,205.173C131.286,206.37 131.321,207.457 131.519,208.436C131.42,208.912 131.148,209.238 130.701,209.421C130.179,209.632 87.012,225.355 84.089,226.257C84.143,225.489 84.194,224.779 84.242,224.126C84.297,223.4 84.322,222.687 84.322,221.987C84.319,160.612 84.319,90.928 84.319,12.932C84.319,12.557 84.268,12.241 84.162,11.988C84.124,11.895 84.124,11.793 84.166,11.703L84.399,11.172ZM91.618,26.188C91.416,26.233 91.269,26.406 91.259,26.614C91.131,29.735 91.477,64.251 91.486,103.446C91.486,103.51 91.499,103.571 91.525,103.628C91.976,104.655 92.763,104.437 93.652,104.578C100.822,105.707 108.124,106.868 115.557,108.067C117.421,108.368 120.069,108.752 123.498,109.216C123.824,109.26 124.112,109.008 124.112,108.678L124.112,39.464C124.112,38.966 123.783,38.531 123.306,38.396C122.225,38.092 121.25,37.555 120.156,37.136C112.988,34.395 106.579,31.885 100.931,29.611C97.669,28.296 94.669,27.279 92.056,26.182C91.96,26.14 91.813,26.144 91.618,26.188ZM88.301,118.609C89.561,120.691 91.263,121.526 93.405,121.12C95.225,120.771 96.425,119.616 97.004,117.653C97.458,116.802 98.238,117.221 98.721,117.227C101.663,117.269 103.819,117.275 105.191,117.253C106.01,117.24 106.525,117.039 107.18,117.071C107.683,117.096 108.105,116.696 108.105,116.194L108.105,114.87C108.105,114.41 107.731,114.035 107.27,114.035L97.336,114.035C97.051,114.035 96.789,113.888 96.639,113.648L95.983,112.583C95.961,112.548 95.938,112.519 95.91,112.491C94.061,110.664 90.924,110.604 89.206,112.59C88.554,113.341 88.151,114.301 87.994,115.465C87.85,116.54 87.952,117.589 88.301,118.609ZM90.319,209.328C90.373,209.347 90.437,209.344 90.514,209.322C91.144,209.114 91.768,208.915 92.385,208.727C98.36,206.881 108.776,203.661 123.632,199.065C123.927,198.972 124.125,198.703 124.125,198.4L124.125,125.645C124.125,125.239 123.754,124.935 123.354,125.015C123.354,125.015 92.939,127.187 90.93,127.193C90.876,127.193 90.821,127.203 90.767,127.219C90.185,127.42 89.894,127.759 89.894,128.233C89.884,155.399 89.884,182.226 89.894,208.714C89.894,209.018 90.034,209.222 90.319,209.328Z" style="fill:white;fill-opacity:0.85;fill-rule:nonzero;"/>
    <path d="M91.618,26.188C91.813,26.144 91.96,26.14 92.056,26.182C94.669,27.279 97.669,28.296 100.931,29.611C106.579,31.885 112.988,34.395 120.156,37.136C121.25,37.555 122.225,38.092 123.306,38.396C123.783,38.531 124.112,38.966 124.112,39.464L124.112,108.678C124.112,109.008 123.824,109.26 123.498,109.216C120.069,108.752 117.421,108.368 115.557,108.067C108.124,106.868 100.822,105.707 93.652,104.578C92.763,104.437 91.976,104.655 91.525,103.628C91.499,103.571 91.486,103.51 91.486,103.446C91.477,64.251 91.131,29.735 91.259,26.614C91.269,26.406 91.416,26.233 91.618,26.188Z" style="fill:white;fill-opacity:0.6;fill-rule:nonzero;"/>
    <path d="M218.759,207.304C217.918,208.049 216.805,208.423 215.42,208.423C206.919,208.426 198.363,208.433 189.753,208.439C188.724,207.898 187.639,207.351 186.498,206.801C185.823,206.478 185.567,205.928 185.724,205.151C195.507,205.189 205.272,205.193 215.02,205.161C215.663,205.157 216.027,204.854 216.107,204.249C216.149,203.942 216.168,203.203 216.168,202.03C216.158,193.238 216.155,137.159 216.158,33.8C216.158,33.464 215.883,33.189 215.548,33.189L131.366,33.193L131.401,31.12C131.407,30.816 131.238,30.535 130.966,30.401L129.68,29.758C158.484,29.751 187.278,29.751 216.059,29.754C217.38,29.754 218.336,30.269 218.935,31.296C219.258,31.856 219.421,32.809 219.417,34.155C219.411,36.276 219.408,92.952 219.408,204.188C219.408,205.465 219.19,206.504 218.759,207.304Z" style="fill:white;fill-opacity:0.35;fill-rule:nonzero;"/>
    <path d="M185.724,205.151C185.893,204.754 186.36,204.591 187.125,204.662C187.272,204.678 187.4,204.559 187.396,204.409C187.339,201.105 187.345,197.699 187.419,194.191C187.659,182.821 187.54,172.909 187.518,157.155C187.512,152.28 187.412,148.455 187.224,145.682C186.965,141.867 186.709,138.048 186.456,134.233C186.414,133.596 186.315,132.928 186.165,132.227C186.136,132.096 186.059,131.987 185.935,131.901C185.928,131.795 185.98,131.632 186.088,131.408L187.013,131.38C187.201,131.373 187.304,131.156 187.188,131.005C186.862,130.59 186.917,130.286 187.352,130.097C192.277,126.761 196.029,122.405 198.61,117.029C199.588,114.985 199.531,113.524 198.926,111.333C197.97,107.863 196.553,104.581 194.682,101.489L194.932,101.201C195.114,100.99 195.136,100.686 194.989,100.449C192.37,96.307 190.902,94.017 190.579,93.579C189.031,91.472 187.614,89.249 185.679,88.123C185.493,88.014 185.286,87.947 185.071,87.928L178.735,87.336C178.713,87.333 178.687,87.323 178.665,87.314L177.539,86.767C176.366,85.468 175.924,83.981 176.215,82.302C176.244,82.133 176.321,81.976 176.433,81.845C177.261,80.882 178.364,79.955 179.039,78.867C180.04,77.246 180.616,75.464 180.766,73.526C180.77,73.494 180.776,73.462 180.782,73.433L181.329,71.428C181.735,70.088 182.065,68.719 182.318,67.318C182.5,66.308 182.42,65.335 182.081,64.405C181.783,63.592 181.233,63.058 180.434,62.805C180.111,62.706 179.922,62.486 179.871,62.15C179.474,59.61 177.296,57.56 175,56.687C174.162,56.371 172.883,56.195 172.086,56.339C168.511,56.972 169.253,60.314 166.656,61.804C166.505,61.891 166.022,61.977 165.2,62.067C164.011,62.198 163.313,62.901 163.109,64.171C162.942,65.204 162.978,65.895 163.211,66.25C163.95,67.363 164.362,68.591 164.455,69.934L164.49,70.728C164.494,70.798 164.471,70.868 164.433,70.929C163.377,72.458 163.528,73.801 164.884,74.959C164.96,75.026 165.002,75.122 164.999,75.224C164.884,77.236 165.846,79.136 167.02,80.713L168.392,82.884C169.061,84.368 168.968,85.747 168.117,87.016C168.082,87.074 168.021,87.109 167.954,87.119L164.295,87.576C164.279,87.579 164.266,87.579 164.25,87.579C163.323,87.538 162.277,87.608 161.116,87.79C161.055,87.8 160.998,87.822 160.943,87.858L159.878,88.571C159.821,88.609 159.766,88.654 159.718,88.702C158.551,89.888 157.4,91.289 156.268,92.904C155.068,94.615 153.495,97.049 151.55,100.206C151.384,100.475 151.406,100.807 151.601,101.028C151.684,101.121 151.752,101.281 151.8,101.505C151.374,102.023 150.942,102.726 150.507,103.612C148.924,106.833 147.834,109.874 147.229,112.737C147.037,113.645 147.053,114.467 147.274,115.203C147.677,116.536 148.297,117.905 149.135,119.309C151.729,123.669 155.135,127.247 159.351,130.049C159.447,130.113 159.501,130.225 159.488,130.34C159.447,130.785 159.373,131.223 159.268,131.661C159.207,131.927 159.245,132.202 159.386,132.493C159.434,132.592 159.44,132.704 159.402,132.806C159.104,133.577 156.456,153.08 156.44,154.145C156.411,156.569 156.156,158.827 156.04,161.28C155.916,163.903 154.55,204.435 154.55,204.435C154.55,204.569 154.659,204.678 154.793,204.675C155.203,204.668 156.319,204.473 156.319,205.157L131.411,205.173L131.366,33.193L215.548,33.189C215.883,33.189 216.158,33.464 216.158,33.8C216.155,137.159 216.158,193.238 216.168,202.03C216.168,203.203 216.149,203.942 216.107,204.249C216.027,204.854 215.663,205.157 215.02,205.161C205.272,205.193 195.507,205.189 185.724,205.151Z" style="fill:white;fill-opacity:0.95;fill-rule:nonzero;"/>
    <path d="M181.329,71.428L181.07,71.7C181.019,71.754 180.929,71.722 180.92,71.649C180.702,69.717 180.216,67.811 179.461,65.93C179.33,65.604 178.927,65.486 178.643,65.69C177.645,66.4 176.497,66.567 175.198,66.192C174.133,65.767 173.1,65.281 172.096,64.734C170.298,63.755 167.81,62.876 166.723,65.383C166.237,66.509 165.984,67.641 165.962,68.78C165.949,69.538 165.795,70.168 165.485,70.776C165.328,71.086 164.874,71.057 164.753,70.731L164.455,69.934C164.362,68.591 163.95,67.363 163.211,66.25C162.978,65.895 162.942,65.204 163.109,64.171C163.313,62.901 164.011,62.198 165.2,62.067C166.022,61.977 166.505,61.891 166.656,61.804C169.253,60.314 168.511,56.972 172.086,56.339C172.883,56.195 174.162,56.371 175,56.687C177.296,57.56 179.474,59.61 179.871,62.15C179.922,62.486 180.111,62.706 180.434,62.805C181.233,63.058 181.783,63.592 182.081,64.405C182.42,65.335 182.5,66.308 182.318,67.318C182.065,68.719 181.735,70.088 181.329,71.428Z" style="fill:white;fill-opacity:0.1;fill-rule:nonzero;"/>
    <path d="M175.198,66.192C173.551,69.205 174.415,71.997 174.622,74.476C174.642,74.703 174.52,74.917 174.319,75.016L173.231,75.554C173.183,75.579 173.145,75.618 173.119,75.666C172.969,75.95 172.905,76.235 172.924,76.523C172.934,76.66 173.039,76.772 173.177,76.792C173.749,76.871 174.287,77.076 174.782,77.409C173.794,77.156 172.809,77.178 171.827,77.473C171.664,77.521 171.574,77.565 171.552,77.607C171.427,77.837 171.578,78.116 171.827,78.116L173.289,78.109C173.158,79.523 173.324,80.882 173.788,82.184C173.816,82.267 173.753,82.357 173.663,82.357C172.093,82.344 170.887,82.165 169.269,81.544C168.533,81.259 167.785,80.984 167.02,80.713C165.846,79.136 164.884,77.236 164.999,75.224C165.002,75.122 164.96,75.026 164.884,74.959C163.528,73.801 163.377,72.458 164.433,70.929C164.471,70.868 164.494,70.798 164.49,70.728L164.455,69.934L164.753,70.731C164.874,71.057 165.328,71.086 165.485,70.776C165.795,70.168 165.949,69.538 165.962,68.78C165.984,67.641 166.237,66.509 166.723,65.383C167.81,62.876 170.298,63.755 172.096,64.734C173.1,65.281 174.133,65.767 175.198,66.192ZM171.379,68.473C171.843,68.502 172.256,68.7 172.614,69.071C172.687,69.144 172.812,69.109 172.838,69.01C172.985,68.377 171.878,67.964 171.411,67.939C170.948,67.91 169.799,68.195 169.873,68.837C169.886,68.943 170.007,68.991 170.087,68.924C170.487,68.598 170.916,68.447 171.379,68.473ZM171.528,70.358C171.277,70.334 171.034,70.75 170.982,71.289C170.928,71.828 171.092,72.282 171.34,72.306C171.59,72.33 171.834,71.914 171.886,71.376C171.939,70.836 171.776,70.382 171.528,70.358Z" style="fill:white;fill-opacity:0.35;fill-rule:nonzero;"/>
    <path d="M181.329,71.428L180.782,73.433C180.776,73.462 180.77,73.494 180.766,73.526C180.616,75.464 180.04,77.246 179.039,78.867C178.364,79.955 177.261,80.882 176.433,81.845C176.321,81.976 176.244,82.133 176.215,82.302C175.924,83.981 176.366,85.468 177.539,86.767C174.047,86.837 171.079,84.954 168.392,82.884L167.02,80.713C167.785,80.984 168.533,81.259 169.269,81.544C170.887,82.165 172.093,82.344 173.663,82.357C173.753,82.357 173.816,82.267 173.788,82.184C173.324,80.882 173.158,79.523 173.289,78.109L174.763,78.087C175,78.084 175.157,77.837 175.077,77.601C175.067,77.565 174.968,77.502 174.782,77.409C174.287,77.076 173.749,76.871 173.177,76.792C173.039,76.772 172.934,76.66 172.924,76.523C172.905,76.235 172.969,75.95 173.119,75.666C173.145,75.618 173.183,75.579 173.231,75.554L174.319,75.016C174.52,74.917 174.642,74.703 174.622,74.476C174.415,71.997 173.551,69.205 175.198,66.192C176.497,66.567 177.645,66.4 178.643,65.69C178.927,65.486 179.33,65.604 179.461,65.93C180.216,67.811 180.702,69.717 180.92,71.649C180.929,71.722 181.019,71.754 181.07,71.7L181.329,71.428ZM177.015,68.997C177.45,69.061 177.818,69.282 178.121,69.659C178.185,69.736 178.307,69.714 178.339,69.621C178.531,69.039 177.523,68.559 177.088,68.495C176.653,68.428 175.55,68.601 175.566,69.212C175.569,69.311 175.681,69.368 175.761,69.311C176.161,69.036 176.58,68.933 177.015,68.997ZM176.438,70.749C176.231,70.734 176.033,71.137 175.996,71.646C175.956,72.157 176.094,72.583 176.299,72.599C176.506,72.615 176.705,72.212 176.742,71.702C176.781,71.191 176.644,70.766 176.438,70.749Z" style="fill:white;fill-opacity:0.25;fill-rule:nonzero;"/>
    <path d="M171.411,67.939C171.878,67.964 172.985,68.377 172.838,69.01C172.812,69.109 172.687,69.144 172.614,69.071C172.256,68.7 171.843,68.502 171.379,68.473C170.916,68.447 170.487,68.598 170.087,68.924C170.007,68.991 169.886,68.943 169.873,68.837C169.799,68.195 170.948,67.91 171.411,67.939Z" style="fill:white;fill-opacity:0.1;fill-rule:nonzero;"/>
    <path d="M177.015,68.997C176.58,68.933 176.161,69.036 175.761,69.311C175.681,69.368 175.569,69.311 175.566,69.212C175.55,68.601 176.653,68.428 177.088,68.495C177.523,68.559 178.531,69.039 178.339,69.621C178.307,69.714 178.185,69.736 178.121,69.659C177.818,69.282 177.45,69.061 177.015,68.997Z" style="fill:white;fill-opacity:0.1;fill-rule:nonzero;"/>
    <path d="M171.528,70.358C171.776,70.382 171.939,70.836 171.886,71.376C171.834,71.914 171.59,72.33 171.34,72.306C171.092,72.282 170.928,71.828 170.982,71.289C171.034,70.75 171.277,70.334 171.528,70.358Z" style="fill:white;fill-opacity:0.1;fill-rule:nonzero;"/>
    <path d="M176.438,70.749C176.644,70.766 176.781,71.191 176.742,71.702C176.705,72.212 176.506,72.615 176.299,72.599C176.094,72.583 175.956,72.157 175.996,71.646C176.033,71.137 176.231,70.734 176.438,70.749Z" style="fill:white;fill-opacity:0.1;fill-rule:nonzero;"/>
    <path d="M174.782,77.409C174.968,77.502 175.067,77.565 175.077,77.601C175.157,77.837 175,78.084 174.763,78.087L173.289,78.109L171.827,78.116C171.578,78.116 171.427,77.837 171.552,77.607C171.574,77.565 171.664,77.521 171.827,77.473C172.809,77.178 173.794,77.156 174.782,77.409Z" style="fill:white;fill-opacity:0.1;fill-rule:nonzero;"/>
    <path d="M177.539,86.767L178.665,87.314C178.687,87.323 178.713,87.333 178.735,87.336L185.071,87.928C185.286,87.947 185.493,88.014 185.679,88.123C187.614,89.249 189.031,91.472 190.579,93.579C190.902,94.017 192.37,96.307 194.989,100.449C195.136,100.686 195.114,100.99 194.932,101.201L194.682,101.489C192.251,103.5 190.256,105.464 187.038,106.446C186.942,106.475 186.875,106.555 186.856,106.654C186.792,107.006 186.849,107.38 187.032,107.78L186.907,123.931C186.744,124.916 186.683,126.179 186.718,127.724C186.738,128.559 186.949,129.352 187.352,130.097C186.917,130.286 186.862,130.59 187.188,131.005C187.304,131.156 187.201,131.373 187.013,131.38L186.088,131.408L160.144,131.469C160.038,131.469 159.958,131.38 159.968,131.277L160.272,128.188C160.275,128.159 160.275,128.127 160.269,128.098C160.032,126.707 160.013,125.303 160.208,123.893C160.377,122.68 160.534,121.459 160.681,120.234C160.7,120.077 160.716,119.927 160.729,119.789C160.927,117.573 161.135,115.337 161.35,113.089C161.551,110.997 161.442,109.164 161.599,107.194C161.605,107.095 161.548,107.006 161.455,106.97C161.097,106.833 160.726,106.801 160.342,106.868C159.018,106.116 157.464,105.582 156.296,104.866C154.652,103.859 153.124,102.381 151.8,101.505C151.752,101.281 151.684,101.121 151.601,101.028C151.406,100.807 151.384,100.475 151.55,100.206C153.495,97.049 155.068,94.615 156.268,92.904C157.4,91.289 158.551,89.888 159.718,88.702C159.766,88.654 159.821,88.609 159.878,88.571L160.943,87.858C160.998,87.822 161.055,87.8 161.116,87.79C162.277,87.608 163.323,87.538 164.25,87.579C164.266,87.579 164.279,87.579 164.295,87.576L167.954,87.119C168.021,87.109 168.082,87.074 168.117,87.016C168.968,85.747 169.061,84.368 168.392,82.884C171.079,84.954 174.047,86.837 177.539,86.767Z" style="fill:white;fill-opacity:0.35;fill-rule:nonzero;"/>
    <path d="M194.682,101.489C196.553,104.581 197.97,107.863 198.926,111.333C199.531,113.524 199.588,114.985 198.61,117.029C196.029,122.405 192.277,126.761 187.352,130.097C186.949,129.352 186.738,128.559 186.718,127.724C186.683,126.179 186.744,124.916 186.907,123.931C188.903,120.326 190.575,116.796 191.922,113.345C191.96,113.242 191.941,113.127 191.871,113.044C190.927,111.95 190.291,110.831 189.162,109.727C188.458,109.04 187.748,108.39 187.032,107.78C186.849,107.38 186.792,107.006 186.856,106.654C186.875,106.555 186.942,106.475 187.038,106.446C190.256,105.464 192.251,103.5 194.682,101.489Z" style="fill:white;fill-opacity:0.25;fill-rule:nonzero;"/>
    <path d="M160.342,106.868C158.075,108.579 156.168,110.6 154.624,112.932C154.569,113.015 154.56,113.121 154.598,113.213C156.082,116.78 157.521,119.962 158.916,122.757C159.184,123.294 159.616,123.672 160.208,123.893C160.013,125.303 160.032,126.707 160.269,128.098C160.275,128.127 160.275,128.159 160.272,128.188L159.968,131.277C159.958,131.38 160.038,131.469 160.144,131.469L186.088,131.408C185.98,131.632 185.928,131.795 185.935,131.901C185.337,132.192 184.854,132.378 184.48,132.457C181.783,133.027 177.536,133.836 174.213,134.197C170.398,134.613 166.806,134.802 163.441,134.76C163.291,134.757 163.163,134.872 163.147,135.023L156.364,203.632C156.354,203.741 156.389,203.846 156.459,203.929C158.183,205.909 161.644,204.003 163.879,205.554L163.934,206.328C161.426,206.702 158.925,206.744 156.431,206.45C156.491,205.935 156.456,205.506 156.319,205.157C156.319,204.473 155.203,204.668 154.793,204.675C154.659,204.678 154.55,204.569 154.55,204.435C154.55,204.435 155.916,163.903 156.04,161.28C156.156,158.827 156.411,156.569 156.44,154.145C156.456,153.08 159.104,133.577 159.402,132.806C159.44,132.704 159.434,132.592 159.386,132.493C159.245,132.202 159.207,131.927 159.268,131.661C159.373,131.223 159.447,130.785 159.488,130.34C159.501,130.225 159.447,130.113 159.351,130.049C155.135,127.247 151.729,123.669 149.135,119.309C148.297,117.905 147.677,116.536 147.274,115.203C147.053,114.467 147.037,113.645 147.229,112.737C147.834,109.874 148.924,106.833 150.507,103.612C150.942,102.726 151.374,102.023 151.8,101.505C153.124,102.381 154.652,103.859 156.296,104.866C157.464,105.582 159.018,106.116 160.342,106.868Z" style="fill:white;fill-opacity:0.25;fill-rule:nonzero;"/>
    <path d="M160.208,123.893C159.616,123.672 159.184,123.294 158.916,122.757C157.521,119.962 156.082,116.78 154.598,113.213C154.56,113.121 154.569,113.015 154.624,112.932C156.168,110.6 158.075,108.579 160.342,106.868C160.726,106.801 161.097,106.833 161.455,106.97C161.548,107.006 161.605,107.095 161.599,107.194C161.442,109.164 161.551,110.997 161.35,113.089C161.135,115.337 160.927,117.573 160.729,119.789C160.716,119.927 160.7,120.077 160.681,120.234C160.534,121.459 160.377,122.68 160.208,123.893Z" style="fill:white;fill-opacity:0.95;fill-rule:nonzero;"/>
    <path d="M186.907,123.931L187.032,107.78C187.748,108.39 188.458,109.04 189.162,109.727C190.291,110.831 190.927,111.95 191.871,113.044C191.941,113.127 191.96,113.242 191.922,113.345C190.575,116.796 188.903,120.326 186.907,123.931Z" style="fill:white;fill-opacity:0.95;fill-rule:nonzero;"/>
    <path d="M97.004,117.653C97.013,117.592 96.984,117.557 96.924,117.541C96.828,117.518 96.76,117.55 96.719,117.64C95.177,121.075 90.834,121.686 88.621,118.523C88.554,118.427 88.41,118.433 88.349,118.532L88.301,118.609C87.952,117.589 87.85,116.54 87.994,115.465C88.151,114.301 88.554,113.341 89.206,112.59C90.924,110.604 94.061,110.664 95.91,112.491C95.938,112.519 95.961,112.548 95.983,112.583L96.639,113.648C96.789,113.888 97.051,114.035 97.336,114.035L107.27,114.035C107.731,114.035 108.105,114.41 108.105,114.87L108.105,116.194C108.105,116.696 107.683,117.096 107.18,117.071C106.525,117.039 106.01,117.24 105.191,117.253C103.819,117.275 101.663,117.269 98.721,117.227C98.238,117.221 97.458,116.802 97.004,117.653ZM89.305,115.839C89.382,117.589 90.869,119.146 92.625,118.99C93.569,118.906 94.499,118.542 95.059,117.829C95.152,117.71 95.065,117.541 94.918,117.544L91.873,117.624C91.755,117.627 91.64,117.595 91.541,117.531C90.837,117.087 90.818,116.562 90.783,115.775C90.751,114.989 90.725,114.464 91.391,113.962C91.483,113.891 91.595,113.85 91.714,113.84L94.755,113.664C94.902,113.655 94.973,113.479 94.87,113.367C94.253,112.705 93.294,112.42 92.347,112.417C90.585,112.411 89.232,114.087 89.305,115.839Z" style="fill:white;fill-opacity:0.55;fill-rule:nonzero;"/>
    <path d="M90.783,115.775C90.818,116.562 90.837,117.087 91.541,117.531C91.64,117.595 91.755,117.627 91.873,117.624L94.918,117.544C95.065,117.541 95.152,117.71 95.059,117.829C94.499,118.542 93.569,118.906 92.625,118.99C90.869,119.146 89.382,117.589 89.305,115.839C89.232,114.087 90.585,112.411 92.347,112.417C93.294,112.42 94.253,112.705 94.87,113.367C94.973,113.479 94.902,113.655 94.755,113.664L91.714,113.84C91.595,113.85 91.483,113.891 91.391,113.962C90.725,114.464 90.751,114.989 90.783,115.775Z" style="fill:white;fill-opacity:0.25;fill-rule:nonzero;"/>
    <path d="M97.004,117.653C96.425,119.616 95.225,120.771 93.405,121.12C91.263,121.526 89.561,120.691 88.301,118.609L88.349,118.532C88.41,118.433 88.554,118.427 88.621,118.523C90.834,121.686 95.177,121.075 96.719,117.64C96.76,117.55 96.828,117.518 96.924,117.541C96.984,117.557 97.013,117.592 97.004,117.653Z" style="fill:white;fill-opacity:0.25;fill-rule:nonzero;"/>
    <path d="M90.319,209.328C90.034,209.222 89.894,209.018 89.894,208.714C89.884,182.226 89.884,155.399 89.894,128.233C89.894,127.759 90.185,127.42 90.767,127.219C90.821,127.203 90.876,127.193 90.93,127.193C92.939,127.187 123.354,125.015 123.354,125.015C123.754,124.935 124.125,125.239 124.125,125.645L124.125,198.4C124.125,198.703 123.927,198.972 123.632,199.065C108.776,203.661 98.36,206.881 92.385,208.727C91.768,208.915 91.144,209.114 90.514,209.322C90.437,209.344 90.373,209.347 90.319,209.328Z" style="fill:white;fill-opacity:0.6;fill-rule:nonzero;"/>
    <path d="M176.639,207.642C176.822,207.223 177.088,206.828 177.437,206.459C177.645,206.238 177.776,206.043 177.837,205.874C177.888,205.729 177.921,205.589 177.934,205.455C179.053,205.445 180.978,205.492 185.679,205.599C185.689,206.143 185.961,206.544 186.498,206.801C187.237,207.158 187.952,207.513 188.644,207.865C187.972,207.847 187.131,207.825 186.028,207.813C183.026,207.778 178.763,207.82 176.639,207.642Z" style="fill:white;fill-opacity:0.25;"/>
    <path d="M188.644,207.865C189.021,208.057 189.391,208.248 189.753,208.439C191.474,209.21 193.147,209.958 194.768,210.69C195.408,210.978 195.814,211.448 195.984,212.101C196.009,212.203 196.006,212.312 195.974,212.411C195.763,213.041 195.331,213.515 194.676,213.834L179.212,212.987L177.165,212.91C177.04,212.907 176.919,212.872 176.813,212.811C176.413,212.584 176.103,212.254 175.883,211.819C175.758,211.573 175.783,211.125 175.956,210.483C176.142,209.798 176.289,209.114 176.397,208.429C176.448,208.158 176.529,207.896 176.639,207.642C178.763,207.82 183.026,207.778 186.028,207.813C187.131,207.825 187.972,207.847 188.644,207.865Z" style="fill:white;fill-opacity:0.35;"/>
    <path d="M177.934,205.455C177.944,205.355 177.944,205.258 177.933,205.164C177.811,204.403 176.481,204.847 176.1,204.668C175.972,204.607 175.892,204.479 175.889,204.339L174.264,140.389C174.258,140.082 174.002,139.839 173.695,139.846L172.23,139.884C171.93,139.89 171.683,140.127 171.661,140.431C171.472,143.181 170.887,145.938 170.503,148.807C169.713,154.733 168.856,160.989 167.932,167.571C167.839,168.233 166.508,202.497 166.64,204.377C166.652,204.579 166.492,204.751 166.291,204.758C165.686,204.77 165.095,204.78 164.519,204.786C164.388,204.79 164.263,204.822 164.151,204.882C163.991,204.972 163.963,205.071 164.068,205.183C164.023,205.337 163.959,205.461 163.879,205.554C161.644,204.003 158.183,205.909 156.459,203.929C156.389,203.846 156.354,203.741 156.364,203.632L163.147,135.023C163.163,134.872 163.291,134.757 163.441,134.76C166.806,134.802 170.398,134.613 174.213,134.197C177.536,133.836 181.783,133.027 184.48,132.457C184.854,132.378 185.337,132.192 185.935,131.901C186.059,131.987 186.136,132.096 186.165,132.227C186.315,132.928 186.414,133.596 186.456,134.233C186.709,138.048 186.965,141.867 187.224,145.682C187.412,148.455 187.512,152.28 187.518,157.155C187.54,172.909 187.659,182.821 187.419,194.191C187.345,197.699 187.339,201.105 187.396,204.409C187.4,204.559 187.272,204.678 187.125,204.662C186.36,204.591 185.893,204.754 185.724,205.151C185.692,205.31 185.677,205.459 185.679,205.599C180.978,205.492 179.053,205.445 177.934,205.455Z" style="fill:white;fill-opacity:0.35;"/>
    <path d="M177.933,205.164L164.068,205.183C163.963,205.071 163.991,204.972 164.151,204.882C164.263,204.822 164.388,204.79 164.519,204.786C165.095,204.78 165.686,204.77 166.291,204.758C166.492,204.751 166.652,204.579 166.64,204.377C166.508,202.497 167.839,168.233 167.932,167.571C168.856,160.989 169.713,154.733 170.503,148.807C170.887,145.938 171.472,143.181 171.661,140.431C171.683,140.127 171.93,139.89 172.23,139.884L173.695,139.846C174.002,139.839 174.258,140.082 174.264,140.389L175.889,204.339C175.892,204.479 175.972,204.607 176.1,204.668C176.481,204.847 177.811,204.403 177.933,205.164Z" style="fill:white;fill-opacity:0.95;fill-rule:nonzero;"/>
    <path d="M176.397,208.429L165.536,208.461C165.565,207.982 165.367,207.527 164.935,207.099C164.765,206.929 164.433,206.673 163.934,206.328L163.879,205.554C163.959,205.461 164.023,205.337 164.068,205.183L177.933,205.164C177.958,205.385 177.926,205.621 177.837,205.874C177.776,206.043 177.645,206.238 177.437,206.459C176.877,207.051 176.532,207.71 176.397,208.429Z" style="fill:white;fill-opacity:0.35;fill-rule:nonzero;"/>
    <path d="M131.411,205.173L156.319,205.157C156.456,205.506 156.491,205.935 156.431,206.45L152.647,208.41L131.519,208.436C131.321,207.457 131.286,206.37 131.411,205.173Z" style="fill:white;fill-opacity:0.35;fill-rule:nonzero;"/>
    <path d="M165.536,208.461C165.744,209.203 165.91,209.869 166.029,210.454C166.041,210.524 166.08,210.607 166.147,210.703C166.208,210.79 166.237,210.879 166.237,210.966C166.24,212.117 165.792,212.789 164.9,212.98C163.061,213.092 152.426,213.847 148.822,214.001C148.429,214.017 148.217,214.241 147.84,214.199C147.757,214.189 147.674,214.161 147.603,214.116C147.396,213.985 147.197,213.902 147.005,213.873C145.723,213.291 145.665,211.698 146.977,211.084C148.883,210.192 150.773,209.302 152.647,208.41L156.431,206.45C158.925,206.744 161.426,206.702 163.934,206.328C164.433,206.673 164.765,206.929 164.935,207.099C165.367,207.527 165.565,207.982 165.536,208.461Z" style="fill:white;fill-opacity:0.35;fill-rule:nonzero;"/>
    <path d="M218.759,207.304C240.037,228.594 296.173,285.028 299.966,288.821C300.04,288.895 299.985,289.019 299.883,289.019L297.625,289.019C297.407,288.904 195.597,214.468 194.676,213.834C195.331,213.515 195.763,213.041 195.974,212.411C196.006,212.312 196.009,212.203 195.984,212.101C195.814,211.448 195.408,210.978 194.768,210.69C193.147,209.958 191.474,209.21 189.753,208.439C198.363,208.433 206.919,208.426 215.42,208.423C216.805,208.423 217.918,208.049 218.759,207.304Z" style="fill:white;fill-opacity:0.9;fill-rule:nonzero;"/>
    <path d="M152.647,208.41C150.773,209.302 148.883,210.192 146.977,211.084C145.665,211.698 145.723,213.291 147.005,213.873C146.97,214.225 146.81,214.474 146.526,214.618C144.735,215.536 11.667,288.213 11.056,288.696L0.08,288.684C0.003,288.684 -0.029,288.588 0.032,288.543L82.074,226.608C82.784,226.218 83.456,226.1 84.089,226.257C87.012,225.355 130.179,209.632 130.701,209.421C131.148,209.238 131.42,208.912 131.519,208.436L152.647,208.41Z" style="fill:white;fill-opacity:0.9;fill-rule:nonzero;"/>
    <path d="M176.397,208.429C176.289,209.114 176.142,209.798 175.956,210.483C175.783,211.125 175.758,211.573 175.883,211.819C176.103,212.254 176.413,212.584 176.813,212.811C176.919,212.872 177.04,212.907 177.165,212.91L179.212,212.987C179.401,213.706 219.782,288.489 219.996,289.016L99.936,289.013C100.231,288.277 164.091,213.905 164.9,212.98C165.792,212.789 166.24,212.117 166.237,210.966C166.237,210.879 166.208,210.79 166.147,210.703C166.08,210.607 166.041,210.524 166.029,210.454C165.91,209.869 165.744,209.203 165.536,208.461L176.397,208.429Z" style="fill:white;fill-opacity:0.9;fill-rule:nonzero;"/>
    <path d="M164.9,212.98C164.091,213.905 100.231,288.277 99.936,289.013C82.819,289.035 20.705,288.712 11.056,288.696C11.667,288.213 89.676,245.574 97.362,241.4C101.631,239.082 108.664,235.24 118.464,229.874C127.937,224.686 134.666,221.015 138.655,218.856C139.774,218.251 141.239,217.368 142.627,216.748C142.713,216.71 142.793,216.662 142.87,216.607C143.081,216.457 143.299,216.313 143.519,216.182C143.734,216.057 144.735,215.536 146.526,214.618C146.81,214.474 146.97,214.225 147.005,213.873C147.197,213.902 147.396,213.985 147.603,214.116C147.674,214.161 147.757,214.189 147.84,214.199C148.217,214.241 148.429,214.017 148.822,214.001C152.426,213.847 163.061,213.092 164.9,212.98Z" style="fill:white;fill-opacity:0.75;fill-rule:nonzero;"/>
    <path d="M194.676,213.834C195.597,214.468 297.407,288.904 297.625,289.019L219.996,289.016C219.782,288.489 179.401,213.706 179.212,212.987L194.676,213.834Z" style="fill:white;fill-opacity:0.75;fill-rule:nonzero;"/>
</svg>
