<?xml version="1.0" encoding="UTF-8" standalone="no"?>
<!DOCTYPE svg PUBLIC "-//W3C//DTD SVG 1.1//EN" "http://www.w3.org/Graphics/SVG/1.1/DTD/svg11.dtd">
<svg width="100%" height="100%" viewBox="0 0 300 300" version="1.1" xmlns="http://www.w3.org/2000/svg" xmlns:xlink="http://www.w3.org/1999/xlink" xml:space="preserve" xmlns:serif="http://www.serif.com/" style="fill-rule:evenodd;clip-rule:evenodd;stroke-linejoin:round;stroke-miterlimit:2;">
    <path d="M128.197,60.993C127.812,58.023 127.451,55.564 127.118,53.617C126.631,50.765 125.828,47.977 124.704,45.255L122.29,39.863C122.201,39.664 121.957,39.595 121.779,39.721C121.118,40.188 120.371,40.658 119.531,41.125C114.602,43.896 110.013,47.219 105.774,51.097C101.493,55.008 97.051,60.392 97.392,66.125C97.4,66.246 97.25,66.311 97.164,66.226C94.694,63.776 92.328,61.203 90.069,58.505C88.892,57.098 87.882,55.601 87.038,54.014C86.965,53.876 86.766,53.88 86.697,54.018C85.232,56.899 84.23,59.848 83.691,62.863C82.981,66.831 83.646,70.409 85.679,73.594C85.723,73.667 85.658,73.756 85.577,73.736C82.328,72.916 79.269,71.715 76.4,70.137C74.587,69.139 73.098,67.853 71.933,66.283C71.848,66.173 71.682,66.182 71.609,66.299C68.874,70.799 67.004,75.704 65.994,81.014C65.933,81.335 65.572,81.497 65.292,81.327C64.939,81.112 64.687,80.929 64.545,80.779C61.701,77.821 60.513,76.43 57.754,74.799C54.078,72.624 50.605,73.379 47.23,75.963C43.095,79.136 40.316,83.238 41.919,88.552C43.412,93.502 48.329,96.788 52.65,99.166C52.873,99.287 53.043,99.494 53.125,99.738L54.285,103.357C29.832,116.639 -5.379,54.014 41.684,11.455C42.89,10.364 44.739,9.857 46.84,9.447C47.006,9.415 47.173,9.402 47.343,9.411L49.664,9.52C49.822,9.528 49.972,9.557 50.122,9.601C51.725,10.125 53.121,10.981 54.309,12.161C54.63,12.482 55.157,12.445 55.437,12.088C57.579,9.333 60.529,7.268 64.079,6.364C66.882,5.65 69.524,5.514 72.027,5.654C92.549,6.796 125.056,18.199 130.514,28.893C137.01,41.62 128.197,60.993 128.197,60.993Z" style="fill:white;fill-opacity:0.35;fill-rule:nonzero;"/>
    <path d="M116.083,45.328C117.397,57.387 118.525,69.306 118.923,81.688C119.024,84.84 118.897,87.729 118.545,90.358C118.456,91.027 118.208,91.688 117.799,92.342C116.849,93.859 115.458,93.97 113.815,93.579C112.062,93.162 109.518,92.662 109.259,95.113C109.048,97.105 108.926,98.849 108.894,100.346C108.886,100.629 108.986,100.926 109.165,101.146C108.75,100.993 108.339,100.823 107.934,100.633C106.145,99.797 103.941,98.563 101.316,96.922C100.775,96.59 99.999,96.34 98.982,96.169C98.751,96.132 98.51,96.174 98.307,96.289C97.332,96.862 96.754,97.662 96.569,98.692C96.528,98.914 96.542,99.141 96.611,99.358C98.21,104.252 102.966,108.242 107.467,110.468C107.629,110.548 107.791,110.624 107.952,110.694C107.794,110.793 107.671,110.951 107.62,111.15C106.666,114.936 105.124,118.323 102.999,121.322C102.796,121.606 102.167,122.279 101.112,123.342C100.199,124.259 99.546,125.269 99.144,126.373C93.675,126.596 88.125,126.283 82.494,125.431C82.38,125.415 82.263,125.452 82.178,125.533C81.589,126.097 80.94,126.713 80.238,127.383C79.764,127.829 79.252,128.669 78.701,129.906C77.913,131.671 77.301,133.493 76.867,135.371C76.838,135.493 76.786,135.603 76.709,135.7L76.587,135.85L76.254,136.783C76.193,136.958 76.1,137.12 75.978,137.258C73.824,139.704 69.215,142.277 66.237,139.838C62.095,136.442 59.454,134.288 58.306,133.367C55.595,131.193 53.185,129.517 51.072,128.344C48.414,126.868 45.757,125.606 43.108,124.555C42.454,124.295 41.773,124.044 41.067,123.805C44.593,121.358 47.883,118.68 50.934,115.78C52.435,114.356 53.567,112.631 54.78,111.029C55.007,110.729 55.19,110.404 55.332,110.055L56.354,107.527C56.399,107.418 56.391,107.296 56.334,107.195L54.285,103.357L53.125,99.738C53.043,99.494 52.873,99.287 52.65,99.166C48.329,96.788 43.412,93.502 41.919,88.552C40.316,83.238 43.095,79.136 47.23,75.963C50.605,73.379 54.078,72.624 57.754,74.799C60.513,76.43 61.701,77.821 64.545,80.779C64.687,80.929 64.939,81.112 65.292,81.327C65.572,81.497 65.933,81.335 65.994,81.014C67.004,75.704 68.874,70.799 71.609,66.299C71.682,66.182 71.848,66.173 71.933,66.283C73.098,67.853 74.587,69.139 76.4,70.137C79.269,71.715 82.328,72.916 85.577,73.736C85.658,73.756 85.723,73.667 85.679,73.594C83.646,70.409 82.981,66.831 83.691,62.863C84.23,59.848 85.232,56.899 86.697,54.018C86.766,53.88 86.965,53.876 87.038,54.014C87.882,55.601 88.892,57.098 90.069,58.505C92.328,61.203 94.694,63.776 97.164,66.226C97.25,66.311 97.4,66.246 97.392,66.125C97.051,60.392 101.493,55.008 105.774,51.097C108.947,48.194 112.316,45.602 115.877,43.32L116.075,45.255C116.078,45.279 116.08,45.303 116.083,45.328ZM104.609,78.799C106.049,78.702 107.543,79.406 108.484,79.497C108.979,79.545 109.417,79.176 109.453,78.681C109.63,76.272 106.204,75.732 104.41,75.854C102.617,75.975 99.301,76.973 99.797,79.339C99.9,79.825 100.382,80.131 100.869,80.016C101.786,79.8 103.173,78.896 104.609,78.799Z" style="fill:white;fill-opacity:0.95;"/>
    <path d="M124.704,45.255C125.828,47.977 126.631,50.765 127.118,53.617C127.451,55.564 127.812,58.023 128.197,60.993C128.088,61.623 128.232,63.385 128.262,65.875C128.304,69.398 128.119,74.375 126.668,79.659C124.883,78.6 121.592,78.385 120.505,80.56C120.152,81.266 120.651,81.919 121.312,81.935C123.515,81.989 125.146,82.102 126.205,82.268C125.576,83.505 125.324,85.108 125.061,86.009C124.731,87.14 124.509,88.289 124.4,89.461C124.258,89.887 124.111,90.366 123.962,90.906C122.795,95.104 121.481,98.986 120.059,102.57C119.959,102.82 119.758,103.002 119.52,103.084C119.137,103.021 118.753,102.964 118.367,102.909C117.128,102.734 115.879,102.591 114.638,102.412C113.756,102.265 112.843,102.108 112.006,101.953C111.394,101.822 110.788,101.67 110.188,101.488C109.898,101.4 109.609,101.306 109.323,101.203L109.165,101.146C108.986,100.926 108.886,100.629 108.894,100.346C108.926,98.849 109.048,97.105 109.259,95.113C109.518,92.662 112.062,93.162 113.815,93.579C115.458,93.97 116.849,93.859 117.799,92.342C118.208,91.688 118.456,91.027 118.545,90.358C118.897,87.729 119.024,84.84 118.923,81.688C118.525,69.306 117.397,57.387 116.083,45.328C116.08,45.303 116.078,45.279 116.075,45.255L115.877,43.32C117.074,42.553 118.292,41.822 119.531,41.125C120.371,40.658 121.118,40.188 121.779,39.721C121.957,39.595 122.201,39.664 122.29,39.863L124.704,45.255Z" style="fill:white;fill-opacity:0.75;"/>
    <path d="M112.617,141.932C111.465,139.844 110.655,137.718 110.188,135.554C109.9,134.211 109.498,132.901 109.315,131.635C109.06,129.894 108.837,128.284 108.646,126.799C108.443,125.216 107.916,123.261 107.684,121.399C108.857,120.372 109.664,119.614 110.103,119.123C112.095,116.871 113.928,114.4 115.604,111.718C115.736,111.509 115.708,111.253 115.563,111.076C118.436,110.254 120.667,108.621 121.526,107.862C122.372,107.113 122.585,106.212 122.164,105.153C121.827,104.303 119.974,103.157 119.682,103.111L119.52,103.084C119.758,103.002 119.959,102.82 120.059,102.57C121.481,98.986 122.795,95.104 123.962,90.906C124.111,90.366 124.258,89.887 124.4,89.461C126.436,88.585 128.092,88.126 130.157,86.873C130.859,86.447 131.626,85.9 132.465,85.23C137.178,81.468 140.414,78.808 142.178,77.257C143.911,75.733 145.967,73.643 148.349,70.993C149.85,71.241 151.339,71.545 152.816,71.906C154.402,72.3 155.802,72.819 157.011,73.472C158.865,74.466 180.331,88.033 181.913,89.193C184.356,90.983 186.867,93.372 189.447,96.354C189.776,96.74 189.971,97.133 190.031,97.543C189.167,99.823 188.587,101.572 188.291,102.785C187.269,106.951 186.295,111.199 185.106,115.634C183.775,120.579 182.781,124.665 182.128,127.882C182.035,128.357 182.201,128.848 182.631,129.355L178.477,137.408C177.722,138.211 177.068,139.075 176.513,140C176.03,140.807 175.575,141.452 175.158,141.932C174.728,142.426 172.05,145.691 171.564,146.374C171.491,146.476 171.406,146.57 171.312,146.654C170.437,147.435 169.783,147.998 169.377,148.37C168.619,149.065 167.936,149.591 167.336,149.949C164.815,151.451 162.111,152.591 159.222,153.397C158.978,153.465 158.723,153.493 158.471,153.482C156.703,153.409 154.962,153.616 152.881,153.49C150.925,153.372 148.446,153.267 145.448,153.17C143.05,153.092 139.5,152.756 134.798,152.164C134.786,152.164 134.778,152.164 134.766,152.16L131.483,151.352C131.455,151.348 131.427,151.336 131.398,151.32C130.647,150.906 127.618,149.81 126.932,149.564C128.117,148.239 129.094,146.915 129.801,145.875C131.745,146.863 135.391,145.652 137.646,144.739C139.176,144.12 140.358,143.058 141.196,141.554C141.366,141.25 141.314,140.869 141.07,140.621C140.515,140.057 139.91,139.705 139.249,139.562C137.837,139.259 136.462,139.063 135.127,138.986C133.354,138.884 132.06,138.714 131.24,138.479C127.541,137.421 124.227,135.814 121.316,133.623C121.032,133.409 120.773,133.164 120.546,132.897C119.852,132.081 119.228,131.257 118.667,130.434C118.047,129.524 115.654,126.866 114.651,128.839C114.174,129.776 113.819,130.844 113.579,132.045C113.248,133.709 114.209,135.894 115.116,137.358C114.162,138.362 113.263,139.873 112.617,141.932ZM153.006,127.423C155.688,127.127 157.615,125.857 158.788,123.614C159.834,121.618 160.366,118.944 158.378,117.557C157.279,116.786 155.883,117.07 154.637,117.613C152.824,118.405 151.461,119.646 150.548,121.346C150.463,121.496 150.406,121.662 150.373,121.833C150.045,123.541 150.179,125.018 150.783,126.255C150.982,126.657 151.578,127.034 152.58,127.379C152.718,127.423 152.86,127.44 153.006,127.423ZM129.106,131.756C131.747,131.379 134.157,130.41 136.336,128.852C136.766,128.543 137.017,128.048 137.021,127.517C137.03,123.91 132.644,121.334 129.723,120.104C127.43,119.139 125.309,120.145 125.337,122.9C125.365,126.093 126.355,128.937 128.299,131.432C128.489,131.675 128.798,131.801 129.106,131.756ZM132.368,101.359C130.254,100.728 127.8,102.704 126.887,105.77C125.974,108.838 126.944,111.832 129.057,112.463C131.171,113.094 133.626,111.118 134.538,108.051C135.451,104.984 134.482,101.99 132.368,101.359Z" style="fill:white;fill-opacity:0.95;"/>
    <path d="M112.006,101.953C112.875,102.14 113.754,102.285 114.638,102.412C113.756,102.265 112.843,102.108 112.006,101.953Z" style="fill:white;fill-opacity:0.95;"/>
    <path d="M128.262,65.875C133.199,63.155 144.749,66.521 148.349,70.993C145.967,73.643 143.911,75.733 142.178,77.257C140.414,78.808 137.178,81.468 132.465,85.23C131.626,85.9 130.859,86.447 130.157,86.873C128.092,88.126 126.436,88.585 124.4,89.461C124.509,88.289 124.731,87.14 125.061,86.009C125.324,85.108 125.576,83.505 126.205,82.268L128.42,83.566C128.883,83.838 129.467,83.501 129.467,82.966L129.467,82.418C129.467,81.899 127.061,80.166 126.668,79.659C128.119,74.375 128.304,69.398 128.262,65.875Z" style="fill:white;fill-opacity:0.5;"/>
    <path d="M104.609,78.799C106.049,78.702 107.543,79.406 108.484,79.497C108.979,79.545 109.417,79.176 109.453,78.681C109.63,76.272 106.204,75.732 104.41,75.854C102.617,75.975 99.301,76.973 99.797,79.339C99.9,79.825 100.382,80.131 100.869,80.016C101.786,79.8 103.173,78.896 104.609,78.799Z" style="fill:white;fill-opacity:0.15;"/>
    <path d="M126.668,79.659C124.883,78.6 121.592,78.385 120.505,80.56C120.152,81.266 120.651,81.919 121.312,81.935C123.515,81.989 125.146,82.102 126.205,82.268L128.42,83.566C128.883,83.838 129.467,83.501 129.467,82.966L129.467,82.418C129.467,81.899 127.061,80.166 126.668,79.659Z" style="fill:white;fill-opacity:0.15;"/>
    <path d="M110.188,101.488C110.788,101.67 111.394,101.822 112.006,101.953C112.875,102.14 113.754,102.285 114.638,102.412C115.879,102.591 117.128,102.734 118.367,102.909C118.753,102.964 119.137,103.021 119.52,103.084L119.682,103.111C119.974,103.157 121.827,104.303 122.164,105.153C122.585,106.212 122.372,107.113 121.526,107.862C120.667,108.621 118.436,110.254 115.563,111.076C113.305,111.723 110.649,111.869 107.952,110.694C107.791,110.624 107.629,110.548 107.467,110.468C102.966,108.242 98.21,104.252 96.611,99.358C96.542,99.141 96.528,98.914 96.569,98.692C96.754,97.662 97.332,96.862 98.307,96.289C98.51,96.174 98.751,96.132 98.982,96.169C99.999,96.34 100.775,96.59 101.316,96.922C103.941,98.563 106.145,99.797 107.934,100.633C108.339,100.823 108.75,100.993 109.165,101.146L109.323,101.203C109.609,101.306 109.898,101.4 110.188,101.488Z" style="fill:white;fill-opacity:0.15;"/>
    <path d="M184.491,145.395C184.057,138.445 183.639,129.806 183.617,129.456C183.597,129.115 183.256,128.896 182.952,129.026C182.822,129.083 182.717,129.192 182.631,129.355C182.201,128.848 182.035,128.357 182.128,127.882C182.781,124.665 183.775,120.579 185.106,115.634C186.295,111.199 187.269,106.951 188.291,102.785C188.587,101.572 189.167,99.823 190.031,97.543C191.74,97.843 193.456,97.941 195.176,97.835C195.33,97.827 195.488,97.843 195.642,97.88L197.626,98.387C197.667,98.399 197.708,98.411 197.748,98.427C200.681,99.766 202.231,100.245 203.866,102.338C205.453,104.363 206.507,106.834 207.935,109.828C208.99,112.039 209.591,114.023 210.524,116.222C210.885,117.066 211.258,118.121 211.644,119.386C212.463,122.08 213.177,125.099 213.786,128.442C214.013,129.679 213.985,130.758 214.062,132.227C214.098,132.974 213.806,133.959 213.185,135.185C212.824,135.895 211.826,137.031 210.199,138.593C206.195,142.431 201.631,145.526 196.961,148.622C196.835,148.707 196.701,148.78 196.559,148.837C195.876,149.119 192.798,150.749 190.176,152.152C188.048,153.291 186.222,154.281 186.222,154.281C185.897,154.472 185.483,154.383 185.264,154.079C185.071,153.813 184.778,149.97 184.491,145.395Z" style="fill:white;fill-opacity:0.5;"/>
    <path d="M132.368,101.359C134.482,101.99 135.451,104.984 134.538,108.051C133.626,111.118 131.171,113.094 129.057,112.463C126.944,111.832 125.974,108.838 126.887,105.77C127.8,102.704 130.254,100.728 132.368,101.359Z" style="fill:white;fill-opacity:0.15;"/>
    <path d="M115.563,111.076C115.708,111.253 115.736,111.509 115.604,111.718C113.928,114.4 112.095,116.871 110.103,119.123C109.664,119.614 108.857,120.372 107.684,121.399C105.173,123.772 102.325,125.431 99.144,126.373C99.546,125.269 100.199,124.259 101.112,123.342C102.167,122.279 102.796,121.606 102.999,121.322C105.124,118.323 106.666,114.936 107.62,111.15C107.671,110.951 107.794,110.793 107.952,110.694C110.649,111.869 113.305,111.723 115.563,111.076Z" style="fill:white;fill-opacity:0.75;"/>
    <path d="M152.58,127.379C151.578,127.034 150.982,126.657 150.783,126.255C150.179,125.018 150.045,123.541 150.373,121.833C150.406,121.662 150.463,121.496 150.548,121.346C151.461,119.646 152.824,118.405 154.637,117.613C155.883,117.07 157.279,116.786 158.378,117.557C160.366,118.944 159.834,121.618 158.788,123.614C157.615,125.857 155.688,127.127 153.006,127.423C152.86,127.44 152.718,127.423 152.58,127.379Z" style="fill:white;fill-opacity:0.15;"/>
    <path d="M129.106,131.756C128.798,131.801 128.489,131.675 128.299,131.432C126.355,128.937 125.365,126.093 125.337,122.9C125.309,120.145 127.43,119.139 129.723,120.104C132.644,121.334 137.03,123.91 137.021,127.517C137.017,128.048 136.766,128.543 136.336,128.852C134.157,130.41 131.747,131.379 129.106,131.756Z" style="fill:white;fill-opacity:0.15;fill-rule:nonzero;"/>
    <path d="M63.048,183.639C61.287,185.663 59.45,187.623 57.539,189.517C57.312,189.745 56.975,189.822 56.671,189.716C53.997,188.779 51.279,187.663 48.52,186.365C39.898,182.308 31.979,177.654 24.761,172.409C24.177,171.987 23.362,171.167 23.122,171.078C23.013,171.037 22.899,171.131 22.915,171.248C23.228,173.37 23.755,175.472 24.494,177.553C25.577,180.592 27.123,184.381 29.135,188.917C31.346,193.899 33.342,198.524 35.131,202.796C36.937,207.109 38.592,212.399 40.089,218.664C31.37,222.733 24.473,226.259 19.406,229.241C14.229,232.287 9.811,235.107 6.156,237.7C5.348,238.272 4.626,239.209 3.989,240.511C3.742,240.661 3.441,240.722 3.088,240.694C2.954,240.686 2.845,240.58 2.825,240.446C2.735,239.874 2.638,239.294 2.533,238.71C1.62,233.626 0.796,227.098 0.07,219.13C-0.498,212.894 2.557,178.137 3.441,172.007C4.906,161.893 7.507,152.083 11.243,142.585C14.769,133.635 20.635,125.042 30.94,123.598C33.135,123.289 35.91,123.508 38.211,123.512C38.515,123.516 38.99,123.581 39.635,123.707C40.134,123.805 40.608,123.837 41.067,123.805C41.773,124.044 42.454,124.295 43.108,124.555C45.757,125.606 48.414,126.868 51.072,128.344C53.185,129.517 55.595,131.193 58.306,133.367C59.454,134.288 62.095,136.442 66.237,139.838C69.215,142.277 73.824,139.704 75.978,137.258C76.1,137.12 76.193,136.958 76.254,136.783L76.587,135.85L78.133,136.978C78.145,136.986 78.157,136.994 78.169,137.006C79.463,138.256 80.762,139.506 82.056,140.759C85.849,144.431 89.277,148.606 92.345,153.283C92.714,153.847 93.067,154.367 93.408,154.849C95.57,158.237 97.915,162.039 98.593,166.035C95.071,164.132 91.687,162.031 88.438,159.726C86.673,158.472 85.212,157.454 84.06,156.667C82.409,155.539 80.993,154.456 79.816,153.413C79.719,153.324 79.561,153.369 79.52,153.494C79.431,153.787 79.5,154.135 79.325,154.578C76.635,161.471 73.56,167.865 70.1,173.752C68.266,176.871 66.217,179.829 63.953,182.616C63.761,182.854 63.312,183.349 63.129,183.551C63.101,183.579 63.074,183.609 63.048,183.639Z" style="fill:white;fill-opacity:0.65;"/>
    <path d="M64.046,182.985C69.292,186.089 74.721,188.783 80.332,191.059C80.275,191.972 80.181,192.885 80.25,193.785C80.433,196.167 80.522,198.54 80.51,200.902C67.101,206.229 53.628,212.148 40.089,218.664C38.592,212.399 36.937,207.109 35.131,202.796C33.342,198.524 31.346,193.899 29.135,188.917C27.123,184.381 25.577,180.592 24.494,177.553C23.755,175.472 23.228,173.37 22.915,171.248C22.899,171.131 23.013,171.037 23.122,171.078C23.362,171.167 24.177,171.987 24.761,172.409C31.979,177.654 39.898,182.308 48.52,186.365C51.279,187.663 53.997,188.779 56.671,189.716C56.975,189.822 57.312,189.745 57.539,189.517C59.45,187.623 61.287,185.663 63.048,183.639C63.074,183.609 63.101,183.579 63.129,183.551C63.312,183.349 63.761,182.854 63.953,182.616C63.807,182.799 63.839,182.921 64.046,182.985Z" style="fill:white;fill-opacity:0.5;"/>
    <path d="M131.078,143.851C131.175,143.737 131.199,143.583 131.143,143.445C130.892,142.829 130.457,142.244 129.836,141.696C127.739,139.834 120.78,137.15 119.142,136.126C118.116,135.485 116.552,135.847 115.116,137.358C114.209,135.894 113.248,133.709 113.579,132.045C113.819,130.844 114.174,129.776 114.651,128.839C115.654,126.866 118.047,129.524 118.667,130.434C119.228,131.257 119.852,132.081 120.546,132.897C120.773,133.164 121.032,133.409 121.316,133.623C124.227,135.814 127.541,137.421 131.24,138.479C132.06,138.714 133.354,138.884 135.127,138.986C136.462,139.063 137.837,139.259 139.249,139.562C139.91,139.705 140.515,140.057 141.07,140.621C141.314,140.869 141.366,141.25 141.196,141.554C140.358,143.058 139.176,144.12 137.646,144.739C135.391,145.652 131.745,146.863 129.801,145.875C130.62,144.672 131.078,143.851 131.078,143.851Z" style="fill:white;fill-opacity:0.15;"/>
    <path d="M247.33,204.825C247.273,203.076 247.16,201.632 246.993,200.492C246.596,197.766 245.784,194.938 244.486,192.439C244.105,191.704 243.764,191.031 243.464,190.414C251.943,189.639 258.917,186.166 264.39,179.991C267.546,176.433 270.131,172.254 272.147,167.459C274.732,161.317 276.736,154.971 278.164,148.423C279.134,143.968 279.957,140.163 280.631,137.01C280.894,135.781 281.276,134.71 281.779,133.801C282.343,132.787 283.166,132.406 284.25,132.657C284.359,132.681 284.465,132.726 284.558,132.787C285.755,133.562 286.907,134.949 288.015,136.941C289.82,140.183 291.049,143.068 291.711,145.595C291.808,145.973 291.865,146.265 291.877,146.468C291.893,146.747 291.954,147.031 292.059,147.32C292.153,147.583 292.514,147.604 292.64,147.356C293.208,146.224 293.812,145.332 295.244,145.603C295.37,145.628 295.492,145.684 295.589,145.77C296.571,146.622 297.342,147.827 297.902,149.389C298.717,151.665 299.216,153.523 299.399,154.963C299.634,156.837 300.02,161.998 299.999,164.193C299.987,165.698 299.654,167.256 299.427,168.851C298.652,174.332 296.912,179.46 294.202,184.231C288.339,194.552 278.225,201.413 266.544,204.07C265.765,204.249 264.662,204.464 263.234,204.711C261.794,204.959 260.678,205.085 259.891,205.089C257.72,205.097 255.598,205.421 253.075,205.259C251.172,205.141 249.257,204.995 247.33,204.825Z" style="fill:white;fill-opacity:0.7;fill-rule:nonzero;"/>
    <path d="M123.466,152.799C123.156,153.031 122.84,153.253 122.517,153.462C119.888,155.389 117.365,155.864 114.943,154.882C112.78,153.146 111.693,150.906 111.677,148.167C111.673,147.474 111.709,146.756 111.79,146.013C111.959,144.468 112.247,143.11 112.617,141.932C113.263,139.873 114.162,138.362 115.116,137.358C116.552,135.847 118.116,135.485 119.142,136.126C120.78,137.15 127.739,139.834 129.836,141.696C130.457,142.244 130.892,142.829 131.143,143.445C131.199,143.583 131.175,143.737 131.078,143.851C131.078,143.851 130.62,144.672 129.801,145.875C129.094,146.915 128.117,148.239 126.932,149.564C125.916,150.701 124.748,151.839 123.466,152.799Z" style="fill:white;fill-opacity:0.75;"/>
    <path d="M178.477,137.408C178.643,137.611 178.793,138.004 178.927,138.585C178.534,140.406 177.88,142.041 176.972,143.494C172.453,150.722 164.533,155.908 156.232,157.787C153.489,158.408 150.803,158.801 148.17,158.967C145.616,159.129 128.209,156.622 123.466,152.799C124.748,151.839 125.916,150.701 126.932,149.564C127.618,149.81 130.647,150.906 131.398,151.32C131.427,151.336 131.455,151.348 131.483,151.352L134.766,152.16C134.778,152.164 134.786,152.164 134.798,152.164C139.5,152.756 143.05,153.092 145.448,153.17C148.446,153.267 150.925,153.372 152.881,153.49C154.962,153.616 156.703,153.409 158.471,153.482C158.723,153.493 158.978,153.465 159.222,153.397C162.111,152.591 164.815,151.451 167.336,149.949C167.936,149.591 168.619,149.065 169.377,148.37C169.783,147.998 170.437,147.435 171.312,146.654C171.406,146.57 171.491,146.476 171.564,146.374C172.05,145.691 174.728,142.426 175.158,141.932C175.575,141.452 176.03,140.807 176.513,140C177.068,139.075 177.722,138.211 178.477,137.408Z" style="fill:white;fill-opacity:0.15;"/>
    <path d="M178.927,138.585L179.584,139.562C177.682,145.137 174.679,149.896 170.582,153.835C164.882,159.316 158.504,163.552 151.063,166.165C150.905,166.222 149.996,166.53 148.337,167.086C146.268,167.784 144.754,168.092 142.705,168.145C136.81,168.299 129.593,168.132 125.207,163.422C125.008,163.211 124.712,163.13 124.436,163.211C118.306,164.988 112.265,167.013 106.317,169.289C106.025,169.398 105.672,169.402 105.352,169.488L98.593,166.035C97.915,162.039 95.57,158.237 93.408,154.849C98.897,150.646 105.023,147.701 111.79,146.013C111.709,146.756 111.673,147.474 111.677,148.167C111.693,150.906 112.78,153.146 114.943,154.882C113.774,157.268 114.03,159.194 115.705,160.663C116.602,161.45 117.608,161.884 118.72,161.97C121.487,162.183 124.283,160.282 124.396,157.405C124.449,156.038 123.824,154.724 122.517,153.462C122.84,153.253 123.156,153.031 123.466,152.799C128.209,156.622 145.616,159.129 148.17,158.967C150.803,158.801 153.489,158.408 156.232,157.787C164.533,155.908 172.453,150.722 176.972,143.494C177.88,142.041 178.534,140.406 178.927,138.585Z" style="fill:white;fill-opacity:0.5;"/>
    <path d="M186.014,200.282C188.961,198.136 190.128,195.497 190.92,191.988C191.253,190.511 191.378,188.885 191.301,187.108C191.196,184.673 190.737,182.085 189.926,179.346C188.668,175.098 185.057,170.709 180.331,171.102C176.757,171.402 173.235,172.478 169.766,174.328C167.669,175.447 166.261,176.105 165.551,176.299C163.287,176.916 161.818,177.31 161.145,177.476C161.043,177.5 160.946,177.435 160.926,177.334C160.646,175.926 160.954,174.685 161.843,173.618C162.869,172.392 163.741,171.212 164.46,170.076C164.606,169.845 164.541,169.54 164.318,169.386C163.376,168.745 161.299,168.952 160.305,169.224C157.007,170.137 153.907,171.573 151.014,173.524C149.501,174.551 147.115,176.462 143.858,179.257C143.647,179.436 143.517,179.691 143.492,179.967C143.399,181.042 142.511,181.095 141.679,181.359C141.225,181.505 140.924,181.578 140.774,181.578C135.914,181.614 131.958,181.606 128.907,181.561C125.536,181.509 123.073,181.586 121.523,181.789C118.42,182.194 115.572,183.663 113.275,185.882C112.139,186.978 110.204,188.686 110.013,189.956C109.328,194.548 108.484,202.253 103.879,204.792C101.522,206.091 98.004,206.793 94.945,206.61C94.227,206.565 93.152,206.537 91.712,206.521C91.574,206.517 91.44,206.496 91.31,206.452L87.935,205.352C86.794,204.792 85.788,204.354 85.374,202.902C85.314,202.687 85.306,202.464 85.35,202.24L86.113,198.565L87.634,193.729C89.269,188.982 91.14,184.32 93.237,179.74C93.351,179.496 93.752,178.738 94.446,177.464C94.515,177.338 94.6,177.22 94.702,177.119C95.181,176.628 95.57,176.113 95.87,175.581C95.968,175.399 96.101,175.232 96.256,175.094C98.012,173.476 99.262,172.441 99.996,171.999C101.388,171.159 103.08,170.449 105.068,169.869C105.266,169.812 105.364,169.686 105.352,169.488C105.672,169.402 106.025,169.398 106.317,169.289C112.265,167.013 118.306,164.988 124.436,163.211C124.712,163.13 125.008,163.211 125.207,163.422C129.593,168.132 136.81,168.299 142.705,168.145C144.754,168.092 146.268,167.784 148.337,167.086C149.996,166.53 150.905,166.222 151.063,166.165C158.504,163.552 164.882,159.316 170.582,153.835C174.679,149.896 177.682,145.137 179.584,139.562L184.491,145.395C184.778,149.97 185.071,153.813 185.264,154.079C185.483,154.383 185.897,154.472 186.222,154.281C186.222,154.281 188.048,153.291 190.176,152.152L190.36,152.371C193.464,155.373 196.259,157.742 198.742,159.479C207.27,165.447 216.581,170.271 225.612,175.52C229.771,177.943 233.524,180.474 236.863,183.123C239.191,184.969 241.39,187.4 243.464,190.414C243.764,191.031 244.105,191.704 244.486,192.439C245.784,194.938 246.596,197.766 246.993,200.492C247.16,201.632 247.273,203.076 247.33,204.825C247.074,209.259 246.202,213.357 244.721,217.118C243.837,219.361 242.34,221.921 240.23,224.798C240.092,224.989 240.011,225.216 239.999,225.451C239.934,226.81 240.12,228.279 240.563,229.865C240.611,230.04 240.713,230.198 240.859,230.312C242.271,231.419 243.197,232.228 244.583,233.565C246.011,234.943 246.08,238.661 246.011,239.144C245.817,240.556 245.877,241.964 245.679,243.266C244.916,248.212 244.165,252.086 243.423,254.885C241.902,260.634 241.05,263.868 240.867,264.586C240.68,265.32 240.563,266.834 240.518,269.126C240.486,270.781 240.108,272.1 239.978,273.714C239.792,276.051 235.763,275.926 234.047,276.4C233.179,276.64 222.809,277.573 221.141,277.686C219.19,277.82 217.356,277.577 215.425,277.52C215.039,277.508 214.658,277.447 214.293,277.333C212.605,276.814 211.473,276.725 211.279,274.619C211.1,272.68 211.266,270.72 211.782,268.745C212.443,268.432 213.023,267.97 213.514,267.365C214.05,266.708 214.585,265.921 215.121,265.008C217.673,263.32 220.448,262.367 223.438,262.152C223.559,262.144 223.661,262.062 223.701,261.949C224.042,260.931 224.221,260.022 224.241,259.231C224.253,258.667 225.868,245.12 224.854,242.909C224.777,242.738 224.614,242.621 224.432,242.596C221.799,242.215 219.202,241.534 216.638,240.552C211.279,238.312 206.544,235.351 202.316,231.253C202.207,231.147 202.061,231.082 201.911,231.07C193.865,230.535 185.845,228.851 177.848,226.023C175.337,224.721 172.618,223.346 169.693,221.897C167.255,220.692 164.208,218.68 160.549,215.868C160.366,215.41 160.001,214.237 159.457,212.359C159.056,210.967 158.333,209.353 157.291,207.515C159.307,207.365 161.51,207.405 163.247,207.251C170.286,206.63 177.033,204.959 183.487,202.245C184.485,201.827 185.382,201.263 186.177,200.553C186.271,200.472 186.275,200.386 186.193,200.293C186.147,200.24 186.086,200.236 186.014,200.282Z" style="fill:white;fill-opacity:0.8;"/>
    <path d="M186.014,200.282C186.004,200.289 185.993,200.296 185.983,200.305C185.993,200.298 186.004,200.29 186.014,200.282Z" style="fill:white;fill-opacity:0.8;"/>
    <path d="M114.943,154.882C113.774,157.268 114.03,159.194 115.705,160.663C116.602,161.45 117.608,161.884 118.72,161.97C121.487,162.183 124.283,160.282 124.396,157.405C124.449,156.038 123.824,154.724 122.517,153.462C119.888,155.389 117.365,155.864 114.943,154.882Z" style="fill:white;fill-opacity:0.95;"/>
    <path d="M185.983,200.305C182.94,202.143 179.544,203.226 175.799,203.555C174.29,203.689 172.931,203.794 171.726,203.88C170.578,203.957 165.393,203.823 163.774,203.632C159.291,203.101 154.885,202.338 150.556,201.344L147.586,200.415C147.493,200.386 147.399,200.366 147.306,200.354L146.369,200.232C146.15,200.204 145.931,200.2 145.712,200.224C145.115,200.289 130.108,200.857 130.108,200.857C129.808,200.812 129.605,201.149 129.775,201.397C130.42,202.334 131.654,203.863 132.652,204.983C139.963,213.166 146.978,221.524 153.692,230.06C155.258,232.352 156.41,233.951 157.145,234.851C159.315,237.505 162.772,241.513 167.506,246.877C160.849,249.027 154.475,251.766 148.393,255.088C147.026,255.835 145.724,256.593 144.491,257.36L131.97,245.424L113.162,226.039C113.048,225.922 112.955,225.788 112.882,225.642C112.675,225.232 112.46,224.916 112.241,224.701C112.115,224.482 111.981,224.331 111.843,224.254C111.709,224.173 111.527,224.206 111.299,224.348C106.066,227.601 101.323,231.078 95.842,234.458C95.789,233.44 95.684,232.478 95.525,231.569C95.302,230.263 95.404,229.107 95.01,228.023C94.836,227.532 94.888,226.916 94.759,226.328C93.136,219.13 90.86,212.14 87.935,205.352L91.31,206.452C91.44,206.496 91.574,206.517 91.712,206.521C93.152,206.537 94.227,206.565 94.945,206.61C98.004,206.793 101.522,206.091 103.879,204.792C108.484,202.253 109.328,194.548 110.013,189.956C110.204,188.686 112.139,186.978 113.275,185.882C115.572,183.663 118.42,182.194 121.523,181.789C123.073,181.586 125.536,181.509 128.907,181.561C131.958,181.606 135.914,181.614 140.774,181.578C140.924,181.578 141.225,181.505 141.679,181.359C142.511,181.095 143.399,181.042 143.492,179.967C143.517,179.691 143.647,179.436 143.858,179.257C147.115,176.462 149.501,174.551 151.014,173.524C153.907,171.573 157.007,170.137 160.305,169.224C161.299,168.952 163.376,168.745 164.318,169.386C164.541,169.54 164.606,169.845 164.46,170.076C163.741,171.212 162.869,172.392 161.843,173.618C160.954,174.685 160.646,175.926 160.926,177.334C160.946,177.435 161.043,177.5 161.145,177.476C161.818,177.31 163.287,176.916 165.551,176.299C166.261,176.105 167.669,175.447 169.766,174.328C173.235,172.478 176.757,171.402 180.331,171.102C185.057,170.709 188.668,175.098 189.926,179.346C190.737,182.085 191.196,184.673 191.301,187.108C191.378,188.885 191.253,190.511 190.92,191.988C190.125,195.51 188.952,198.155 185.983,200.305Z" style="fill:white;fill-opacity:0.95;fill-rule:nonzero;"/>
    <path d="M86.113,198.565L85.35,202.24C85.306,202.464 85.314,202.687 85.374,202.902C85.788,204.354 86.794,204.792 87.935,205.352C90.86,212.14 93.136,219.13 94.759,226.328C94.888,226.916 94.836,227.532 95.01,228.023C95.404,229.107 95.302,230.263 95.525,231.569C95.684,232.478 95.789,233.44 95.842,234.458C95.797,235.217 95.375,235.923 94.576,236.572C93.85,237.16 92.694,238.15 91.115,239.55C88.3,241.85 85.427,243.996 82.498,245.992C79.313,248.163 77.382,249.494 76.704,249.976C71.495,253.693 67.008,256.841 61.62,260.034C58.874,261.681 55.948,263.158 53.445,265.016C49.652,267.836 45.631,270.339 41.391,272.534C35.991,275.325 29.727,277.686 23.739,277.033C18.793,276.498 16.436,273.763 12.769,270.067C12.76,270.059 12.752,270.051 12.748,270.043L10.432,267.032C9.758,265.584 9.064,264.115 8.354,262.635C7.255,260.342 6.269,257.275 5.397,253.429C4.553,249.709 4.082,245.4 3.989,240.511C4.626,239.209 5.348,238.272 6.156,237.7C9.811,235.107 14.229,232.287 19.406,229.241C24.473,226.259 31.37,222.733 40.089,218.664C53.628,212.148 67.101,206.229 80.51,200.902C82.352,200.395 84.218,199.616 86.113,198.565Z" style="fill:white;fill-opacity:0.85;fill-rule:nonzero;"/>
    <path d="M150.556,201.344C153.1,203.003 155.343,205.06 157.291,207.515C158.333,209.353 159.056,210.967 159.457,212.359C160.001,214.237 160.366,215.41 160.549,215.868C162.094,223.184 155.25,228.831 153.692,230.06C146.978,221.524 139.963,213.166 132.652,204.983C131.654,203.863 130.42,202.334 129.775,201.397C129.605,201.149 129.808,200.812 130.108,200.857C130.108,200.857 145.115,200.289 145.712,200.224C145.931,200.2 146.15,200.204 146.369,200.232L147.306,200.354C147.399,200.366 147.493,200.386 147.586,200.415L150.556,201.344Z" style="fill:white;fill-opacity:0.85;fill-rule:nonzero;"/>
    <path d="M185.983,200.305C186.068,200.236 186.141,200.232 186.193,200.293C186.275,200.386 186.271,200.472 186.177,200.553C185.382,201.263 184.485,201.827 183.487,202.245C177.033,204.959 170.286,206.63 163.247,207.251C161.51,207.405 159.307,207.365 157.291,207.515C155.343,205.06 153.1,203.003 150.556,201.344C154.885,202.338 159.291,203.101 163.774,203.632C165.393,203.823 170.578,203.957 171.726,203.88C172.931,203.794 174.29,203.689 175.799,203.555C179.544,203.226 182.94,202.143 185.983,200.305Z" style="fill:white;fill-opacity:0.5;fill-rule:nonzero;"/>
    <path d="M112.241,224.701C111.514,225.549 110.727,226.319 109.879,227.021C107.307,229.155 104.743,231.358 102.191,233.634C101.818,233.967 101.445,234.304 101.071,234.645C99.144,236.401 97.189,238.126 95.197,239.825C94.552,240.381 94.028,240.961 93.635,241.574L91.115,239.55C92.694,238.15 93.85,237.16 94.576,236.572C95.375,235.923 95.797,235.217 95.842,234.458C101.323,231.078 106.066,227.601 111.299,224.348C111.527,224.206 111.709,224.173 111.843,224.254C111.981,224.331 112.115,224.482 112.241,224.701Z" style="fill:white;fill-opacity:0.75;fill-rule:nonzero;"/>
    <path d="M131.97,245.424C123.771,250.337 115.275,254.914 106.484,259.145C106.581,257.94 106.492,256.951 106.212,256.172C105.859,255.186 105.266,254.119 104.427,252.97C101.347,248.739 97.749,244.941 93.635,241.574C94.028,240.961 94.552,240.381 95.197,239.825C97.189,238.126 99.144,236.401 101.071,234.645C101.445,234.304 101.818,233.967 102.191,233.634C104.743,231.358 107.307,229.155 109.879,227.021C110.727,226.319 111.514,225.549 112.241,224.701C112.46,224.916 112.675,225.232 112.882,225.642C112.955,225.788 113.048,225.922 113.162,226.039L131.97,245.424Z" style="fill:white;fill-opacity:0.85;fill-rule:nonzero;"/>
    <path d="M216.638,240.552C215.798,241.619 212.922,249.4 211.838,251.092C208.942,249.932 205.968,249.494 202.917,249.778C199.067,250.139 195.216,250.751 191.362,251.619C191.671,250.796 194.511,239.854 194.511,239.854C194.511,239.359 194.218,238.913 193.764,238.714C187.5,236.004 182.193,231.772 177.848,226.023C185.845,228.851 193.865,230.535 201.911,231.07C202.061,231.082 202.207,231.147 202.316,231.253C206.544,235.351 211.279,238.312 216.638,240.552Z" style="fill:white;fill-opacity:0.6;fill-rule:nonzero;"/>
    <path d="M91.115,239.55L93.635,241.574C97.749,244.941 101.347,248.739 104.427,252.97C105.266,254.119 105.859,255.186 106.212,256.172C106.492,256.951 106.581,257.94 106.484,259.145C106.26,260.083 106.07,261.052 105.92,262.054C105.697,263.535 105.522,264.509 105.392,264.975C104.95,266.586 104.402,268.124 103.745,269.584C103.591,269.921 103.575,270.302 103.696,270.647C104.84,273.905 105.279,277.268 105.011,280.737C104.812,283.322 104.021,285.902 102.633,288.478C101.019,291.476 98.597,293.432 95.367,294.341C95.099,294.418 94.815,294.414 94.552,294.325C91.298,293.253 89.261,291.683 86.011,289.176C82.044,286.117 78.226,282.855 74.562,279.394C74.461,279.301 74.323,279.228 74.144,279.175L74.177,279.058C74.197,278.972 74.165,278.883 74.096,278.835C73.698,278.559 73.292,278.193 72.879,277.743C69.475,274.039 66.578,270.246 64.184,266.355C63.827,265.775 63.478,265.122 63.133,264.399C62.419,262.894 61.592,261.649 61.62,260.034C67.008,256.841 71.495,253.693 76.704,249.976C77.382,249.494 79.313,248.163 82.498,245.992C85.427,243.996 88.3,241.85 91.115,239.55Z" style="fill:white;fill-opacity:0.5;fill-rule:nonzero;"/>
    <path d="M191.362,251.619C195.216,250.751 199.067,250.139 202.917,249.778C205.968,249.494 208.942,249.932 211.838,251.092C213.421,252.589 214.492,254.277 215.052,256.147C215.883,258.943 215.908,261.896 215.121,265.008C214.585,265.921 214.05,266.708 213.514,267.365C213.023,267.97 212.443,268.432 211.782,268.745C211.782,268.745 191.849,277.082 188.912,278.214C180.485,281.464 171.02,285.026 160.516,288.908C159.461,289.302 158.581,289.582 157.879,289.748C156.045,290.19 154.463,291.132 152.568,291.136C150.775,291.136 150.142,288.831 149.712,287.131C149.566,286.555 148.937,283.991 147.83,279.443C147.128,276.55 145.805,274.14 145.209,271.061C144.446,267.142 144.121,264.148 144.231,262.075C144.316,260.448 144.401,258.878 144.491,257.36C145.724,256.593 147.026,255.835 148.393,255.088C154.475,251.766 160.849,249.027 167.506,246.877C170.042,246.524 172.541,246.378 173.426,246.524C174.473,246.694 176.225,247.506 177.467,248.151C180.615,249.794 182.526,250.776 183.195,251.096C185.926,252.386 188.648,252.561 191.362,251.619Z" style="fill:white;fill-opacity:0.5;fill-rule:nonzero;"/>
    <path d="M61.62,260.034C61.592,261.649 62.419,262.894 63.133,264.399C63.478,265.122 63.827,265.775 64.184,266.355C66.578,270.246 69.475,274.039 72.879,277.743C73.292,278.193 73.698,278.559 74.096,278.835C74.165,278.883 74.197,278.972 74.177,279.058L74.144,279.175C69.775,280.104 65.361,280.814 60.906,281.301C52.589,282.214 43.988,283.062 35.496,282.871C30.482,282.758 25.5,281.869 21.11,279.398C16.201,276.636 12.643,272.514 10.432,267.032L12.748,270.043C12.752,270.051 12.76,270.059 12.769,270.067C16.436,273.763 18.793,276.498 23.739,277.033C29.727,277.686 35.991,275.325 41.391,272.534C45.631,270.339 49.652,267.836 53.445,265.016C55.948,263.158 58.874,261.681 61.62,260.034Z" style="fill:white;fill-opacity:0.75;fill-rule:nonzero;"/>
    <path d="M98.593,166.035L105.352,169.488C105.364,169.686 105.266,169.812 105.068,169.869C103.08,170.449 101.388,171.159 99.996,171.999C99.262,172.441 98.012,173.476 96.256,175.094C96.101,175.232 95.968,175.399 95.87,175.581C95.57,176.113 95.181,176.628 94.702,177.119C94.6,177.22 94.515,177.338 94.446,177.464C93.752,178.738 93.351,179.496 93.237,179.74C91.14,184.32 89.269,188.982 87.634,193.729C86.239,193.469 84.673,192.727 83.731,192.39C82.599,191.984 81.468,191.542 80.332,191.059C74.721,188.783 69.292,186.089 64.046,182.985C63.839,182.921 63.807,182.799 63.953,182.616C66.217,179.829 68.266,176.871 70.1,173.752C73.56,167.865 76.635,161.471 79.325,154.578C79.5,154.135 79.431,153.787 79.52,153.494C79.561,153.369 79.719,153.324 79.816,153.413C80.993,154.456 82.409,155.539 84.06,156.667C85.212,157.454 86.673,158.472 88.438,159.726C91.687,162.031 95.071,164.132 98.593,166.035Z" style="fill:white;fill-opacity:0.95;fill-rule:nonzero;"/>
</svg>
