<?xml version="1.0" encoding="UTF-8" standalone="no"?>
<!DOCTYPE svg PUBLIC "-//W3C//DTD SVG 1.1//EN" "http://www.w3.org/Graphics/SVG/1.1/DTD/svg11.dtd">
<svg width="100%" height="100%" viewBox="0 0 300 300" version="1.1" xmlns="http://www.w3.org/2000/svg" xmlns:xlink="http://www.w3.org/1999/xlink" xml:space="preserve" xmlns:serif="http://www.serif.com/" style="fill-rule:evenodd;clip-rule:evenodd;stroke-linejoin:round;stroke-miterlimit:2;">
    <path d="M76.358,56.359C74.572,54.707 73.759,52.657 73.923,50.209C73.927,50.149 74.078,49.403 74.211,48.617C74.224,48.542 74.295,48.494 74.358,48.534C74.789,48.811 75.056,48.814 75.157,48.544C76.059,46.137 77.949,44.199 79.045,43.529C79.171,44.031 79.073,45.848 79.06,45.959C79.013,46.45 79.107,47.059 79.341,47.791C79.374,47.892 79.566,46.604 79.693,46.627C79.82,46.647 80.353,47.886 80.501,48.54C80.779,49.767 80.611,50.774 80.545,51.473C80.498,51.958 80.381,52.453 80.19,52.958C79.685,54.286 78.913,55.376 77.873,56.235C77.749,56.335 77.612,56.396 77.461,56.412C77.448,56.269 77.458,56.171 77.491,56.115C78.147,55.017 79.166,52.427 78.471,51.212C78.418,51.119 78.269,51.163 78.281,51.273L78.287,51.363C78.299,51.503 78.125,51.575 78.033,51.47C77.975,51.404 77.963,51.289 77.996,51.129C78.32,49.584 78.285,48.054 77.916,46.534C77.885,46.407 77.719,46.377 77.645,46.487C76.778,47.783 76.168,49.199 75.826,50.741C75.796,50.878 75.625,50.928 75.525,50.828L75.411,50.717C75.325,50.63 75.174,50.677 75.151,50.798C74.763,52.79 75.166,54.476 76.357,55.855C76.356,56.082 76.356,56.256 76.358,56.359Z" style="fill:white;fill-opacity:0.75;"/>
    <path d="M77.461,56.412C77.438,56.449 77.063,56.743 76.92,56.797C76.92,56.717 76.746,54.466 76.826,53.47C76.853,53.139 76.978,52.14 77.16,50.467C77.168,50.4 77.12,50.34 77.053,50.333L76.953,50.323C76.853,50.313 76.759,50.376 76.736,50.477C76.661,50.794 76.604,51.176 76.56,51.589C76.404,53.003 76.363,54.898 76.357,55.855C75.166,54.476 74.763,52.79 75.151,50.798C75.174,50.677 75.325,50.63 75.411,50.717L75.525,50.828C75.625,50.928 75.796,50.878 75.826,50.741C76.168,49.199 76.778,47.783 77.645,46.487C77.719,46.377 77.885,46.407 77.916,46.534C78.285,48.054 78.32,49.584 77.996,51.129C77.963,51.289 77.975,51.404 78.033,51.47C78.125,51.575 78.299,51.503 78.287,51.363L78.281,51.273C78.269,51.163 78.418,51.119 78.471,51.212C79.166,52.427 78.147,55.017 77.491,56.115C77.458,56.171 77.448,56.269 77.461,56.412Z" style="fill:white;fill-opacity:0.5;"/>
    <path d="M76.56,51.589C76.607,51.161 76.665,50.777 76.736,50.477C76.759,50.376 76.853,50.313 76.953,50.323L77.053,50.333C77.12,50.34 77.168,50.4 77.16,50.467C76.978,52.14 76.853,53.139 76.826,53.47C76.746,54.466 76.92,56.717 76.92,56.797L76.936,58.235C76.719,58.191 76.508,58.201 76.304,58.265L76.358,56.359C76.356,56.256 76.356,56.082 76.357,55.855C76.363,54.898 76.404,53.003 76.56,51.589Z" style="fill:white;fill-opacity:0.25;"/>
    <path d="M100.275,64.997C100.275,64.997 98.058,62.861 97.804,61.534C96.541,54.932 97.529,57.041 97.832,57.577C98.11,58.07 98.414,57.964 98.437,57.886C98.859,56.48 100.726,54.422 100.516,52.179C101.597,53.076 102.398,55.806 102.967,56.486C103.02,56.55 103.328,56.021 103.438,55.964C103.542,55.907 103.672,55.958 103.709,56.071C104.414,58.188 104.328,60.251 103.455,62.261C102.977,63.361 102.214,64.268 101.161,64.973C100.991,65.088 100.863,65.15 100.776,65.158C100.674,65.168 100.63,65.104 100.642,64.966C100.699,64.906 100.755,64.845 100.809,64.783C101.846,63.595 102.305,62.168 102.191,60.499C102.177,60.305 102.017,59.964 101.726,59.465C101.668,59.366 101.645,59.251 101.662,59.138C101.855,57.86 101.801,56.566 101.482,55.252C101.445,55.101 101.248,55.065 101.161,55.195C100.343,56.42 99.732,57.804 99.362,59.358C99.341,59.445 99.268,59.512 99.178,59.529C99.091,59.545 99.005,59.485 98.914,59.348C98.857,59.264 98.726,59.292 98.71,59.392C98.429,61.055 98.674,62.551 99.452,63.886C99.536,64.03 99.623,64.109 99.713,64.127C99.74,64.133 99.768,64.136 99.797,64.136C99.88,64.136 99.971,64.115 100.067,64.07L100.275,64.997Z" style="fill:white;fill-opacity:0.75;"/>
    <path d="M53.711,65.864L53.722,65.642C53.732,65.451 53.655,65.267 53.515,65.137C52.729,64.418 52.14,63.565 51.746,62.582C51.063,60.873 51.013,59.211 51.595,57.596C51.642,57.476 51.796,57.439 51.889,57.533L52.053,57.696C52.157,57.8 52.331,57.763 52.384,57.626C52.939,56.185 53.558,54.95 54.387,54.061C55.085,53.314 56.142,53.069 56.009,53.399C55.755,54.03 56.394,56.065 56.628,56.737C56.655,56.814 56.758,55.688 57.134,57.405C57.467,58.925 57.736,59.224 57.808,60.666C57.903,62.549 56.551,64.06 54.976,65.274C54.825,65.18 54.779,65.081 54.839,64.977C55.513,63.794 56.496,61.254 55.725,60.077C55.681,60.011 55.58,60.037 55.574,60.118C55.562,60.301 55.535,60.416 55.488,60.465C55.378,60.58 55.19,60.475 55.227,60.322C55.621,58.66 55.616,57.057 55.213,55.519C55.18,55.392 55.016,55.359 54.939,55.466C54.044,56.708 53.425,58.111 53.137,59.686C53.119,59.783 53.033,59.853 52.936,59.85C52.832,59.847 52.754,59.759 52.695,59.589C52.65,59.458 52.462,59.476 52.441,59.613C52.171,61.409 52.311,63.49 53.73,64.764C53.727,64.849 53.74,65.043 53.731,65.416C53.726,65.629 53.734,65.739 53.711,65.864Z" style="fill:white;fill-opacity:0.75;"/>
    <path d="M54.223,65.494C54.234,66.469 54.257,67.153 54.257,67.153C54.093,67.244 53.892,67.25 53.648,67.18L53.711,65.864C53.734,65.739 53.726,65.629 53.731,65.416C53.74,65.043 53.727,64.849 53.73,64.764L53.732,64.766C53.755,64.033 53.721,63.311 53.632,62.592C53.541,61.867 53.681,60.778 54.08,59.332C54.109,59.225 54.23,59.171 54.327,59.228L54.414,59.282C54.494,59.325 54.535,59.415 54.514,59.506C54.222,60.797 54.202,63.66 54.223,65.494Z" style="fill:white;fill-opacity:0.25;"/>
    <path d="M100.642,64.966C100.699,64.906 100.755,64.845 100.809,64.783C101.846,63.595 102.305,62.168 102.191,60.499C102.177,60.305 102.017,59.964 101.726,59.465C101.668,59.366 101.645,59.251 101.662,59.138C101.855,57.86 101.801,56.566 101.482,55.252C101.445,55.101 101.248,55.065 101.161,55.195C100.343,56.42 99.732,57.804 99.362,59.358C99.341,59.445 99.268,59.512 99.178,59.529C99.091,59.545 99.005,59.485 98.914,59.348C98.857,59.264 98.726,59.292 98.71,59.392C98.429,61.055 98.674,62.551 99.452,63.886C99.536,64.03 99.623,64.109 99.713,64.127C99.74,64.133 99.768,64.136 99.797,64.136C99.88,64.136 99.971,64.115 100.067,64.07C99.867,62.388 100.031,60.74 100.438,59.101C100.446,59.071 100.472,59.054 100.502,59.058L100.596,59.068C100.672,59.078 100.722,59.151 100.703,59.225C100.19,61.132 100.178,63.05 100.642,64.966Z" style="fill:white;fill-opacity:0.5;"/>
    <path d="M54.976,65.274C54.888,65.353 54.36,65.505 54.223,65.494C54.202,63.66 54.222,60.797 54.514,59.506C54.535,59.415 54.494,59.325 54.414,59.282L54.327,59.228C54.23,59.171 54.109,59.225 54.08,59.332C53.681,60.778 53.541,61.867 53.632,62.592C53.721,63.311 53.755,64.033 53.732,64.766L53.73,64.764C52.311,63.49 52.171,61.409 52.441,59.613C52.462,59.476 52.65,59.458 52.695,59.589C52.754,59.759 52.832,59.847 52.936,59.85C53.033,59.853 53.119,59.783 53.137,59.686C53.425,58.111 54.044,56.708 54.939,55.466C55.016,55.359 55.18,55.392 55.213,55.519C55.616,57.057 55.621,58.66 55.227,60.322C55.19,60.475 55.378,60.58 55.488,60.465C55.535,60.416 55.562,60.301 55.574,60.118C55.58,60.037 55.681,60.011 55.725,60.077C56.496,61.254 55.513,63.794 54.839,64.977C54.779,65.081 54.825,65.18 54.976,65.274Z" style="fill:white;fill-opacity:0.5;"/>
    <path d="M76.936,58.235L78.769,58.345C78.933,58.355 79.06,58.492 79.06,58.656L79.05,67.859L79.06,71.337L79.033,77.54L79.06,79.921L79.103,82.697L79.063,82.737L79.06,87.806C79.06,87.974 78.936,88.118 78.769,88.144C77.525,88.342 76.2,88.248 74.793,87.853C74.592,87.797 74.455,87.616 74.455,87.408L74.455,71.451L74.478,67.521L74.495,58.566C74.495,58.466 74.572,58.382 74.669,58.375L76.304,58.265C76.508,58.201 76.719,58.191 76.936,58.235Z" style="fill:white;fill-opacity:0.75;"/>
    <path d="M88.045,64.241C88.082,64.13 88.156,64.044 88.259,63.973C88.346,63.916 88.463,63.933 88.527,64.013L90.04,65.889C89.951,65.878 89.982,65.917 90.132,66.003C90.356,68.247 89.326,70.117 87.079,71.675C87.022,71.714 86.955,71.732 86.888,71.721L85.072,71.524C85.019,71.517 84.967,71.55 84.952,71.604C84.937,71.658 84.962,71.711 85.012,71.735C86.52,72.447 88.251,72.587 89.677,71.788C90.243,71.472 90.554,71.301 90.61,71.277C90.731,71.225 90.872,71.277 90.925,71.397C91.424,72.532 91.322,73.373 90.787,74.577C90.058,76.219 89.624,77.486 89.808,79.333C89.818,79.44 89.805,79.543 89.768,79.644C89.582,80.143 89.303,80.517 88.935,80.764C87.902,81.457 86.561,82.115 84.919,82.74L83.15,82.64C83.14,82.636 83.133,82.636 83.126,82.64L79.103,82.697L79.06,79.921C80.294,80.098 81.421,79.771 82.434,78.945C84.745,79.062 86.741,78.416 88.43,77.002C88.447,76.985 88.453,76.962 88.44,76.942C88.427,76.921 88.4,76.915 88.38,76.925C85.405,78.443 82.548,79.042 79.401,77.614C79.27,77.53 79.147,77.503 79.033,77.54L79.06,71.337C80.782,70.093 82.568,69.053 84.414,68.22C85.955,67.525 87.01,66.954 87.925,65.796C88.451,65.131 88.49,64.612 88.045,64.241Z" style="fill:white;fill-opacity:0.6;"/>
    <path d="M79.05,67.859C81.608,66.96 84.206,66.304 86.841,65.893C86.942,65.876 87.035,65.836 87.119,65.779C87.591,65.445 87.902,64.933 88.045,64.241C88.49,64.612 88.451,65.131 87.925,65.796C87.01,66.954 85.955,67.525 84.414,68.22C82.568,69.053 80.782,70.093 79.06,71.337L79.05,67.859Z" style="fill:white;fill-opacity:0.5;"/>
    <path d="M98.198,66.929L102.304,66.929C102.475,66.929 102.615,67.067 102.615,67.237L102.632,70.424L102.632,74.022L102.615,80.961L102.585,83.282L102.625,86.131L102.625,88.599L102.532,96.578C102.532,96.692 102.448,96.785 102.334,96.795C100.946,96.925 99.651,96.846 98.445,96.518C98.191,96.448 98.014,96.22 98.014,95.956L98.001,73.109L97.974,69.611L98.004,67.117C98.007,67.013 98.091,66.929 98.198,66.929Z" style="fill:white;fill-opacity:0.75;"/>
    <path d="M90.04,65.889C89.951,65.878 89.982,65.917 90.132,66.003L90.04,65.889Z" style="fill:white;fill-opacity:0.95;"/>
    <path d="M90.04,65.889C90.118,65.898 90.292,65.945 90.56,66.03L91.349,69.173L90.871,70.775C90.841,70.879 90.881,70.993 90.971,71.053C92.328,71.946 92.918,72.757 93.764,74.236C94.02,74.685 94.315,75.113 94.643,75.51C95.778,76.883 96.372,77.798 96.188,79.65C95.927,80.229 95.673,80.623 95.429,80.831C92.416,83.389 88.911,84.024 84.919,82.74C86.561,82.115 87.902,81.457 88.935,80.764C89.303,80.517 89.582,80.143 89.768,79.644C89.805,79.543 89.818,79.44 89.808,79.333C89.624,77.486 90.058,76.219 90.787,74.577C91.322,73.373 91.424,72.532 90.925,71.397C90.872,71.277 90.731,71.225 90.61,71.277C90.554,71.301 90.243,71.472 89.677,71.788C88.251,72.587 86.52,72.447 85.012,71.735C84.962,71.711 84.937,71.658 84.952,71.604C84.967,71.55 85.019,71.517 85.072,71.524L86.888,71.721C86.955,71.732 87.022,71.714 87.079,71.675C89.326,70.117 90.356,68.247 90.132,66.003L90.04,65.889Z" style="fill:white;fill-opacity:0.5;"/>
    <path d="M90.56,66.03C92.082,66.217 93.201,66.418 93.881,66.722C96.08,67.705 97.974,69.611 97.974,69.611L98.001,73.109C97.188,72.705 96.442,72.24 95.77,71.721C95.058,71.173 94.51,70.838 94.128,70.715C93.32,70.455 92.496,70.249 91.657,70.096C91.547,70.076 91.455,69.996 91.423,69.889C91.354,69.659 91.333,69.421 91.349,69.173L90.56,66.03Z" style="fill:white;fill-opacity:0.5;"/>
    <path d="M58.878,67.796C59.655,67.679 60.383,67.463 61.386,67.812C61.457,67.812 63.721,68.688 64.613,69.053C65.048,69.23 65.54,69.183 65.938,68.929L69.218,66.829C69.738,66.466 70.689,66.119 71.486,66.194C72.305,66.272 73.602,66.864 74.478,67.521L74.455,71.451C73.542,70.976 72.649,70.552 71.776,70.177C71.204,69.93 70.797,70.006 70.312,70.337C68.249,71.743 67.433,72.527 65.125,72.872C64.098,72.3 63.028,71.765 61.915,71.26C61.487,71.066 61.122,70.869 60.825,70.668C59.731,69.932 58.741,69.327 58.878,67.796Z" style="fill:white;fill-opacity:0.5;"/>
    <path d="M54.257,67.153L56.11,67.287C56.213,67.294 56.293,67.381 56.293,67.485L56.307,68.886L56.314,74.283C56.156,75.219 56.17,75.999 56.357,76.621L56.347,85.415L56.354,96.738C56.354,96.889 56.243,97.016 56.093,97.039C54.772,97.244 53.423,97.14 52.04,96.745C51.873,96.697 51.759,96.544 51.759,96.371L51.766,74.283L51.802,70.521L51.809,67.464C51.809,67.364 51.889,67.281 51.99,67.274L53.648,67.18C53.892,67.25 54.093,67.244 54.257,67.153Z" style="fill:white;fill-opacity:0.75;"/>
    <path d="M58.497,67.953C58.521,67.846 58.648,67.792 58.878,67.796C58.741,69.327 59.731,69.932 60.825,70.668C61.122,70.869 61.487,71.066 61.915,71.26C63.028,71.765 64.098,72.3 65.125,72.872C66.794,73.912 70.131,76.059 68.874,78.503C68.683,78.61 68.509,78.771 68.349,78.981C65.262,80.931 62.131,80.983 58.919,79.202C58.882,79.182 58.838,79.192 58.815,79.229L58.812,79.229C58.791,79.259 58.798,79.299 58.828,79.323C60.134,80.314 61.647,80.933 63.286,81.021C63.67,81.042 64.035,81.082 64.379,81.142C65.717,82.085 67.171,82.184 68.74,81.439C69.185,81.228 69.646,81.011 70.128,80.781C70.081,81.737 69.84,82.713 69.402,83.713C68.262,84.205 67.128,84.414 65.995,84.345C64.587,84.26 63.52,84.245 62.794,84.302C61.694,84.195 60.474,83.783 59.139,83.071C58.474,82.716 57.994,82.293 57.701,81.8C57.624,81.67 57.591,81.52 57.604,81.372C57.758,79.674 57.343,78.089 56.357,76.621C56.17,75.999 56.156,75.219 56.314,74.283C56.705,74.226 56.965,74.24 57.103,74.323C58.686,75.285 60.307,75.32 61.975,74.47C62.015,74.45 62.035,74.4 62.015,74.36L62.012,74.357C61.998,74.33 61.968,74.313 61.938,74.316L60.313,74.617C60.152,74.648 59.988,74.608 59.855,74.51C58.396,73.443 57.476,72.021 57.123,70.253C57.102,70.15 57.123,70.046 57.18,69.959L58.497,67.953Z" style="fill:white;fill-opacity:0.6;"/>
    <path d="M56.307,68.886C57.283,68.725 57.481,67.913 58.497,67.953L57.18,69.959C57.123,70.046 57.102,70.15 57.123,70.253C57.476,72.021 58.396,73.443 59.855,74.51C59.988,74.608 60.152,74.648 60.313,74.617L61.938,74.316C61.968,74.313 61.998,74.33 62.012,74.357L62.015,74.36C62.035,74.4 62.015,74.45 61.975,74.47C60.307,75.32 58.686,75.285 57.103,74.323C56.965,74.24 56.705,74.226 56.314,74.283L56.307,68.886Z" style="fill:white;fill-opacity:0.5;"/>
    <path d="M39.423,77.423C40.389,77.473 41.279,77.495 42.091,77.493C42.837,77.492 43.386,77.431 43.743,77.299C45.239,76.751 46.5,75.307 47.559,74.009C47.774,73.745 48.081,73.54 48.478,73.387C48.572,73.351 48.676,73.347 48.773,73.377L51.766,74.283L51.759,96.371C51.759,96.544 51.873,96.697 52.04,96.745C53.423,97.14 54.772,97.244 56.093,97.039C56.243,97.016 56.354,96.889 56.354,96.738L56.347,85.415C59.714,85.429 63.075,85.146 66.439,85.034C67.74,84.991 68.73,84.549 69.402,83.713C69.84,82.713 70.081,81.737 70.128,80.781L68.874,78.503C70.131,76.059 66.794,73.912 65.125,72.872C67.433,72.527 68.249,71.743 70.312,70.337C70.797,70.006 71.204,69.93 71.776,70.177C72.649,70.552 73.542,70.976 74.455,71.451L74.455,87.408C74.455,87.616 74.592,87.797 74.793,87.853C76.2,88.248 77.525,88.342 78.769,88.144C78.936,88.118 79.06,87.974 79.06,87.806L79.063,82.737C79.929,83.302 80.902,83.576 81.983,83.553C83.534,83.519 85.056,83.55 86.544,83.646C89.804,83.858 92.008,83.704 94.493,82.399C95.606,81.814 96.171,80.898 96.188,79.65C96.372,77.798 95.778,76.883 94.643,75.51C94.315,75.113 94.02,74.685 93.764,74.236C92.918,72.757 92.328,71.946 90.971,71.053C90.881,70.993 90.841,70.879 90.871,70.775L91.349,69.173C91.333,69.421 91.354,69.659 91.423,69.889C91.455,69.996 91.547,70.076 91.657,70.096C92.496,70.249 93.32,70.455 94.128,70.715C94.51,70.838 95.058,71.173 95.77,71.721C96.442,72.24 97.188,72.705 98.001,73.109L98.014,95.956C98.014,96.22 98.191,96.448 98.445,96.518C99.651,96.846 100.946,96.925 102.334,96.795C102.448,96.785 102.532,96.692 102.532,96.578L102.625,88.599C102.742,88.599 102.823,88.616 102.87,88.652C103.492,89.305 104.318,89.649 105.344,89.686C107.725,89.77 109.598,89.868 110.962,89.987C113.865,90.238 116.399,89.936 118.46,88.646C119.282,88.131 119.67,87.385 119.623,86.409L119.79,84.887C119.817,84.653 119.75,84.419 119.607,84.235C118.695,83.066 118.117,82.393 117.386,81.199C116.787,80.219 116.033,79.343 115.136,78.55C115.038,78.464 114.978,78.339 114.975,78.209C114.964,77.778 115.029,77.356 115.169,76.945C115.473,77.035 115.741,77.068 115.965,77.045C116.259,77.015 116.55,77.139 116.734,77.373C117.309,78.105 117.774,78.751 118.128,79.316C119.154,80.948 120.57,82.147 122.416,82.255C123.997,82.348 124.987,82.388 125.378,82.372C126.178,82.34 126.7,82.636 126.94,83.252C128.031,86.044 128.529,87.975 131.097,88.947C131.943,89.267 132.845,89.563 133.805,89.833C134.521,90.034 134.871,90.512 134.855,91.271C134.827,92.675 134.575,94.1 134.912,95.474C135.408,97.494 136.926,98.682 138.076,100.189C138.307,100.493 138.312,100.911 138.086,101.219C137.227,102.388 135.679,103.748 135.163,105.159C134.546,106.848 134.824,108.78 134.839,110.352C134.843,110.767 134.719,111.099 134.471,111.349C134.398,111.422 134.311,111.473 134.213,111.502C132.542,112.007 131.532,112.322 131.19,112.486C130.044,113.035 129.328,113.489 129.04,113.847C128.475,114.549 127.896,115.705 127.315,117.318C127.2,117.635 127.007,118.054 126.736,118.575C126.693,118.659 126.63,118.733 126.556,118.792C126.215,119.064 125.857,119.184 125.485,119.164C122.974,119.026 120.25,119.109 118.714,121.324C118.497,121.636 117.954,122.427 117.082,123.705C116.623,124.377 115.982,124.601 115.149,124.384C112.969,123.815 110.643,123.485 108.645,125.056C108.267,125.353 107.692,125.952 106.919,126.848C105.963,127.958 105.428,128.383 104.047,127.852C102.097,127.102 99.974,126.507 98.248,127.45C97.526,127.845 96.452,128.688 95.014,129.972C94.804,130.159 94.465,130.282 94.001,130.35C93.894,130.365 93.78,130.353 93.677,130.313C91.065,129.301 88.851,127.788 86.116,129.453C85.32,129.938 84.397,130.547 83.347,131.279C82.916,131.58 82.474,131.597 82.026,131.333C79.675,129.946 77.697,128.605 75.127,129.634C74.649,129.825 73.756,130.283 72.445,131.002C71.542,131.497 71.007,131.671 70.175,131.052C67.98,129.418 65.998,127.946 63.142,129.132C61.587,129.778 60.781,130.115 60.724,130.146C60.035,130.51 59.384,130.412 58.768,129.848C58.421,129.53 57.735,128.955 56.715,128.129C54.377,126.236 52.118,127.083 49.151,128.042C49.057,128.072 48.957,128.083 48.86,128.072C48.291,128.011 47.869,127.808 47.592,127.47C47.083,126.849 46.414,126.141 45.586,125.347C43.52,123.367 41.323,123.872 38.764,124.364C37.921,124.525 37.336,124.471 36.864,123.738C35.506,121.628 34.373,119.499 31.581,119.234C30.725,119.153 29.631,119.114 28.3,119.114C27.752,119.114 27.388,118.94 27.21,118.588C26.809,117.796 26.444,116.91 26.113,115.93C25.147,113.071 22.699,112.344 20.034,111.569C18.88,111.234 18.916,110.031 19.087,108.931C19.338,107.322 19.151,105.891 18.526,104.64C17.89,103.37 16.625,102.374 15.82,101.119C15.666,100.879 15.669,100.57 15.827,100.333C16.252,99.699 16.747,99.093 17.302,98.507C18.898,96.823 19.363,95.013 19.124,92.776C18.986,91.475 18.763,90.256 20.101,89.84C22.481,89.098 24.497,88.714 25.699,86.409C26.08,85.677 26.465,84.7 26.856,83.476C27.1,82.71 27.625,82.337 28.427,82.359C30.975,82.43 33.465,82.457 35.142,80.222C35.714,79.46 36.276,78.684 36.828,77.895L36.677,80.995C36.674,81.098 36.626,81.198 36.547,81.269C35.823,81.912 35.333,82.409 35.065,82.747C33.707,84.457 32.681,86.292 31.999,88.255C32.223,89.579 32.698,90.465 33.417,90.91C35.296,92.071 37.6,92.296 40.255,92.097C41.275,92.02 43.205,91.927 46.051,91.819C47.218,91.775 48.184,91.291 48.95,90.365C49.562,89.522 49.659,88.622 49.244,87.663C48.97,86.97 48.585,86.335 48.094,85.76C49.314,83.897 47.147,82.015 45.73,81.035C45.425,80.824 44.525,80.347 43.024,79.593C41.773,78.965 40.573,78.242 39.423,77.423ZM73.776,120.598C73.298,121.802 73.412,122.829 74.111,123.678C74.666,124.611 75.528,125.143 76.702,125.28C79.468,125.602 82.119,125.476 85.056,125.869C87.62,126.211 90.653,125.654 92.72,124.507C93.921,123.842 94.479,122.688 94.396,121.046C94.185,118.792 92.761,117.796 91.811,116.131C91.477,115.545 91.035,114.923 90.486,114.265C89.932,113.599 89.339,113.225 88.707,113.134C88.256,113.435 87.844,113.665 87.473,113.823C86.275,114.333 85.046,114.382 83.785,113.96C85.571,113.927 87.197,113.558 88.657,112.847C88.821,112.767 88.925,112.603 88.928,112.419C88.947,111.252 88.738,110.064 88.306,108.857C87.881,107.69 87.177,106.687 86.213,105.828C86.108,105.735 85.952,105.858 86.019,105.981C86.249,106.406 86.31,106.817 86.209,107.209C86.182,107.315 86.14,107.416 86.079,107.51C84.903,109.313 82.547,110.107 80.662,111.028C78.782,111.946 73.38,115.133 74.98,118.03C75.037,118.134 75.117,118.225 75.211,118.298C78.699,121.004 82.387,121.166 86.263,118.92C86.286,118.906 86.316,118.91 86.33,118.933L86.333,118.936C86.35,118.96 86.347,118.997 86.323,119.017C84.632,120.435 82.648,121.063 80.418,120.956C78.421,120.612 76.686,119.819 75.217,118.565C75.124,118.485 74.984,118.498 74.91,118.592C74.374,119.269 73.994,119.936 73.776,120.598ZM24.217,90.736C23.93,91.615 23.799,92.495 23.823,93.371C23.826,93.491 23.779,93.605 23.696,93.685C22.186,95.123 21.266,96.683 20,98.591C19.696,99.049 19.569,99.761 19.612,100.731C19.663,103.905 24.428,104.224 26.642,104.065C27.822,103.981 29.825,103.866 32.644,103.721C33.731,103.665 34.58,103.273 35.192,102.547C35.931,101.841 36.102,100.965 35.701,99.919L34.634,98.006C36.129,95.056 30.504,92.445 28.488,91.528C27.745,91.191 27.111,90.794 26.581,90.345C25.928,89.79 25.741,89.144 26.003,88.388C26.027,88.318 25.947,88.258 25.889,88.305C25.056,88.978 24.495,89.783 24.217,90.736ZM99.051,115.853C98.599,117.007 98.703,117.94 99.365,118.652C99.763,119.806 100.987,120.185 102.124,120.331C104.408,120.624 107.441,120.551 110.303,120.822C112.173,120.999 114.089,120.665 116.045,119.819C117.56,119.164 118.306,118.15 118.279,116.779C118.393,115.321 118.134,114.593 117.276,113.526C116.502,112.563 116.133,111.859 115.34,110.63C114.759,109.729 114.005,109.125 113.086,108.814C111.805,109.784 110.447,110.085 109.013,109.717C110.454,109.513 111.781,109.118 112.989,108.526C113.146,108.449 113.25,108.295 113.26,108.122C113.32,107.078 113.116,106.055 112.651,105.052C112.688,104.751 112.555,104.349 112.256,103.848C111.626,102.79 111.12,102.172 110.748,101.992C110.658,101.948 110.558,102.039 110.598,102.132C110.912,102.873 110.762,103.547 110.163,104.145C109.504,104.804 108.778,105.306 107.986,105.657C105.638,106.697 98.285,110.091 100.285,113.582L99.051,115.853ZM36.861,104.503L36.39,107.406C36.356,107.62 36.242,107.814 36.075,107.951C34.382,109.341 33.663,111.26 32.096,112.843C31.999,112.941 31.945,113.074 31.945,113.215L31.945,115.137C31.989,116.345 32.624,117.208 33.858,117.719C35.731,118.495 37.393,118.68 39.633,118.555C42.65,118.386 44.583,118.288 45.429,118.264C46.867,118.224 47.947,117.722 48.669,116.759C49.254,116 49.358,115.144 48.973,114.198C48.729,113.419 48.304,112.78 47.703,112.285C49.057,110.961 47.351,109.005 46.161,108.088C44.746,106.998 43.358,106.213 41.81,105.547C40.934,105.169 40.141,104.691 39.433,104.119C38.683,103.514 38.428,102.85 38.677,102.139C38.71,102.045 38.597,101.968 38.52,102.032C37.693,102.717 37.142,103.54 36.861,104.503ZM115.059,99.434C114.641,100.474 114.811,101.32 115.57,101.972C116.159,102.771 117.078,103.186 118.332,103.219C119.573,103.252 121.633,103.361 124.512,103.544C126.275,103.655 127.914,103.374 129.435,102.701C130.612,102.18 131.227,101.266 131.277,99.959C131.184,99.039 131.02,98.42 130.789,98.099C129.578,96.419 128.691,94.748 127.218,93.475C127.137,93.405 127.084,93.307 127.064,93.204L126.529,90.294C126.291,89.361 125.756,88.556 124.93,87.877C124.873,87.83 124.789,87.884 124.807,87.954C124.99,88.688 124.796,89.293 124.205,89.779C123.592,90.283 122.964,90.686 122.322,90.983C120.196,91.968 114.213,94.839 116.142,97.598C115.627,98.17 115.266,98.782 115.059,99.434ZM55.294,109.523C54.832,110.636 54.633,111.771 54.732,112.924C54.741,113.027 54.695,113.131 54.615,113.195C53.883,113.771 53.351,114.262 53.026,114.669C51.28,116.859 50.127,118.973 49.582,121.023C49.783,122.595 50.254,123.582 51,123.986C53.456,125.316 55.936,125.577 59.099,125.313C60.547,125.193 62.323,125.104 64.42,125.039C65.914,124.993 67.63,124.775 68.513,123.437C69.288,122.591 69.429,121.565 68.934,120.364L67.954,118.572C67.897,118.468 67.764,118.441 67.67,118.512C66.199,119.613 64.58,120.364 62.814,120.776C60.778,120.879 58.956,120.288 57.3,119.07C57.277,119.053 57.27,119.02 57.287,118.996C57.3,118.973 57.33,118.962 57.357,118.973C58.146,119.295 59.009,119.816 59.838,120.013C62.443,120.63 64.857,120.186 67.078,118.689C68.746,117.564 68.055,115.732 66.921,114.582C64.936,112.571 62.376,111.317 59.875,110.182C58.624,109.614 56.658,108.308 57.444,106.577C57.482,106.493 57.377,106.419 57.31,106.483C56.563,107.197 55.454,108.392 55.294,109.523Z" style="fill:white;fill-opacity:0.35;"/>
    <path d="M15.332,106.269C15.141,105.664 14.944,105.266 14.737,105.075C13.978,104.383 13.51,103.901 13.326,103.631C12.192,101.938 12.052,100.24 12.898,98.531C13.316,97.691 14.663,96.233 15.165,95.658C16.074,94.615 15.944,93.234 15.606,91.99C15.516,91.669 15.523,91.331 15.623,91.013C15.676,90.839 15.747,90.478 15.834,89.93C16.031,88.652 17.051,87.452 18.164,86.914C18.442,86.78 19.275,86.522 20.656,86.138C21.295,85.96 21.896,85.576 22.458,84.984C22.773,84.653 23.087,84.014 23.398,83.071C23.686,82.192 24.083,81.349 24.592,80.536C24.859,80.108 25.398,79.717 26.204,79.366C28.16,78.51 31.196,79.951 32.601,77.865C34.025,75.744 35.146,73.587 38.239,73.564C38.516,73.561 39.464,73.571 40.927,74.102C41.768,74.408 42.55,74.291 42.81,74.026L45.917,70.922C46.504,70.291 47.017,69.928 47.598,69.719C48.224,69.493 49.651,69.265 50.408,70.143C50.708,70.492 51.271,70.498 51.802,70.521L51.766,74.283L48.773,73.377C48.676,73.347 48.572,73.351 48.478,73.387C48.081,73.54 47.774,73.745 47.559,74.009C46.5,75.307 45.239,76.751 43.743,77.299C43.386,77.431 42.837,77.492 42.091,77.493C41.279,77.495 40.389,77.473 39.423,77.423C38.958,76.955 38.806,76.375 38.941,75.674C38.959,75.581 38.848,75.52 38.777,75.584C38.106,76.19 37.577,76.945 37.196,77.851C37.219,77.734 37.099,77.751 36.828,77.895C36.276,78.684 35.714,79.46 35.142,80.222C33.465,82.457 30.975,82.43 28.427,82.359C27.625,82.337 27.1,82.71 26.856,83.476C26.465,84.7 26.08,85.677 25.699,86.409C24.497,88.714 22.481,89.098 20.101,89.84C18.763,90.256 18.986,91.475 19.124,92.776C19.363,95.013 18.898,96.823 17.302,98.507C16.747,99.093 16.252,99.699 15.827,100.333C15.669,100.57 15.666,100.879 15.82,101.119C16.625,102.374 17.89,103.37 18.526,104.64C19.151,105.891 19.338,107.322 19.087,108.931C18.916,110.031 18.88,111.234 20.034,111.569C22.699,112.344 25.147,113.071 26.113,115.93C26.444,116.91 26.809,117.796 27.21,118.588C27.388,118.94 27.752,119.114 28.3,119.114C29.631,119.114 30.725,119.153 31.581,119.234C34.373,119.499 35.506,121.628 36.864,123.738C37.336,124.471 37.921,124.525 38.764,124.364C41.323,123.872 43.52,123.367 45.586,125.347C46.414,126.141 47.083,126.849 47.592,127.47C47.869,127.808 48.291,128.011 48.86,128.072C48.957,128.083 49.057,128.072 49.151,128.042C52.118,127.083 54.377,126.236 56.715,128.129C57.735,128.955 58.421,129.53 58.768,129.848C59.384,130.412 60.035,130.51 60.724,130.146C60.781,130.115 61.587,129.778 63.142,129.132C65.998,127.946 67.98,129.418 70.175,131.052C71.007,131.671 71.542,131.497 72.445,131.002C73.756,130.283 74.649,129.825 75.127,129.634C77.697,128.605 79.675,129.946 82.026,131.333C82.474,131.597 82.916,131.58 83.347,131.279C84.397,130.547 85.32,129.938 86.116,129.453C88.851,127.788 91.065,129.301 93.677,130.313C93.78,130.353 93.894,130.365 94.001,130.35C94.465,130.282 94.804,130.159 95.014,129.972C96.452,128.688 97.526,127.845 98.248,127.45C99.974,126.507 102.097,127.102 104.047,127.852C105.428,128.383 105.963,127.958 106.919,126.848C107.692,125.952 108.267,125.353 108.645,125.056C110.643,123.485 112.969,123.815 115.149,124.384C115.982,124.601 116.623,124.377 117.082,123.705C117.954,122.427 118.497,121.636 118.714,121.324C120.25,119.109 122.974,119.026 125.485,119.164C125.857,119.184 126.215,119.064 126.556,118.792C126.63,118.733 126.693,118.659 126.736,118.575C127.007,118.054 127.2,117.635 127.315,117.318C127.896,115.705 128.475,114.549 129.04,113.847C129.328,113.489 130.044,113.035 131.19,112.486C131.532,112.322 132.542,112.007 134.213,111.502C134.311,111.473 134.398,111.422 134.471,111.349C134.719,111.099 134.843,110.767 134.839,110.352C134.824,108.78 134.546,106.848 135.163,105.159C135.679,103.748 137.227,102.388 138.086,101.219C138.312,100.911 138.307,100.493 138.076,100.189C136.926,98.682 135.408,97.494 134.912,95.474C134.575,94.1 134.827,92.675 134.855,91.271C134.871,90.512 134.521,90.034 133.805,89.833C132.845,89.563 131.943,89.267 131.097,88.947C128.529,87.975 128.031,86.044 126.94,83.252C126.7,82.636 126.178,82.34 125.378,82.372C124.987,82.388 123.997,82.348 122.416,82.255C120.57,82.147 119.154,80.948 118.128,79.316C117.774,78.751 117.309,78.105 116.734,77.373C116.55,77.139 116.259,77.015 115.965,77.045C115.741,77.068 115.473,77.035 115.169,76.945L114.417,74.959L113.935,73.875C114.423,73.919 114.818,73.805 115.172,73.631C116.502,72.978 117.346,73.654 117.754,73.902C119.345,74.867 120.513,76.58 121.539,78.266C121.667,78.473 121.87,78.62 122.108,78.677L123.419,78.988C123.653,79.045 123.897,79.068 124.138,79.062C125.86,79.028 126.856,79.048 127.127,79.119C127.619,79.249 128.174,79.553 128.786,80.035C129.856,80.878 130.398,82.606 130.856,84.011C131.063,84.65 131.515,85.201 132.214,85.673C132.531,85.884 133.21,86.121 134.25,86.378C135.066,86.582 135.959,87.004 136.925,87.643C137.143,87.786 137.464,88.268 137.889,89.094C137.922,89.154 137.942,89.224 137.949,89.295C137.986,89.656 138.026,89.86 138.066,89.906C138.38,90.278 138.243,92.415 138.25,94.632C138.25,95.076 138.434,95.498 138.758,95.802C139.36,96.361 139.928,96.979 140.467,97.655C141.052,98.394 141.43,99.133 141.6,99.868C141.845,100.949 141.577,102.059 140.798,103.199C140.012,104.349 139.286,105.239 138.624,105.864C138.437,106.042 138.33,106.416 138.303,106.988C138.216,108.757 138.477,110.934 137.748,112.482C137.36,113.308 136.768,114 135.976,114.566L132.24,115.95C131.799,116.114 131.452,116.468 131.297,116.91C130.267,119.86 129.462,122.478 125.77,122.708C124.753,122.772 123.162,122.535 122.068,123.029C121.964,123.076 121.87,123.14 121.79,123.22C121.64,123.371 121.065,124.193 120.065,125.688C118.771,127.621 116.939,128.349 114.57,127.882C113.731,127.716 112.818,127.593 111.832,127.504C111.725,127.494 111.621,127.51 111.521,127.547C111.078,127.712 110.785,127.885 110.638,128.056C108.416,130.64 106.592,132.615 102.796,131.199C101.88,130.857 101.194,130.646 100.743,130.564C100.278,130.479 99.799,130.61 99.439,130.918C98.033,132.117 96.623,133.534 95.175,133.831C93.115,134.253 91.33,133.307 89.44,132.413C89.025,132.217 88.544,132.226 88.136,132.436C87.671,132.675 87.136,133.029 86.53,133.496C84.662,134.939 82.723,135.557 80.665,134.59C79.83,134.197 78.812,133.665 77.615,132.988C77.143,132.721 76.635,132.743 76.097,133.055C74.732,133.846 73.86,134.336 73.475,134.516C70.386,135.965 68.44,134.229 66.025,132.527C65.67,132.276 65.215,132.212 64.804,132.349C62.071,133.263 59.81,135.075 57.022,132.991C56.104,132.305 55.247,131.597 54.451,130.865C54.197,130.631 53.856,130.513 53.511,130.54C52.953,130.584 52.271,130.779 51.471,131.115C51.368,131.159 51.264,131.192 51.157,131.216C50.545,131.351 50.15,131.443 49.973,131.487C46.957,132.224 45.146,130.344 43.476,128.249C42.977,127.624 42.345,127.376 41.586,127.51C38.757,128.011 36.09,128.689 34.099,125.989C33.51,125.19 32.92,124.342 32.327,123.447C32.08,123.076 31.674,122.839 31.23,122.809C30.685,122.772 29.752,122.74 28.424,122.715C24.618,122.645 23.857,120.203 22.749,117.224C22.492,116.532 22.158,116.11 21.746,115.953C20.129,115.339 17.257,114.867 16.228,113.077C15.776,112.292 15.55,111.569 15.553,110.911C15.561,108.834 15.486,107.289 15.332,106.269Z" style="fill:white;fill-opacity:0.5;"/>
    <path d="M102.632,70.424C103.893,70.113 105.177,70.003 106.478,70.093C106.645,70.103 106.809,70.153 106.953,70.237C107.939,70.795 108.822,71.507 109.608,72.37C109.665,72.434 109.708,72.501 109.745,72.578C110.226,73.614 111.059,74.146 112.246,74.176C111.146,75.173 109.929,75.898 108.588,76.356L105.866,73.621C105.645,73.4 105.324,73.313 105.023,73.394L102.632,74.022L102.632,70.424Z" style="fill:white;fill-opacity:0.5;"/>
    <path d="M112.246,74.176C112.771,73.691 112.949,73.236 112.775,72.805C112.761,72.772 112.775,72.735 112.805,72.715C112.835,72.695 112.875,72.701 112.898,72.728L113.935,73.875L114.417,74.959C114.029,76.707 113.12,78.12 111.688,79.185C111.584,79.262 111.457,79.296 111.327,79.282L109.691,79.105C109.655,79.102 109.625,79.122 109.615,79.159C109.605,79.192 109.618,79.228 109.651,79.242C111.435,80.02 113.064,79.966 114.601,78.898C114.725,78.812 114.897,78.858 114.962,78.995C115.365,79.845 115.329,80.774 114.865,81.7C114.142,83.141 113.842,84.583 113.972,86.024C114.005,86.389 113.845,86.74 113.55,86.954C112.364,87.814 111.042,88.499 109.588,89.007C108.304,88.933 106.899,88.939 105.371,89.024C104.722,89.06 103.889,88.937 102.87,88.652C102.823,88.616 102.742,88.599 102.625,88.599L102.625,86.131C103.692,86.522 104.762,86.647 105.836,86.499C105.98,86.479 106.117,86.429 106.237,86.355C106.829,85.994 107.076,85.719 107.896,85.71C109.588,85.691 111.217,85.133 112.745,83.974C112.775,83.951 112.785,83.911 112.765,83.877L112.761,83.874C112.738,83.837 112.691,83.823 112.651,83.844C111.515,84.432 110.721,84.81 110.243,84.92C107.985,85.444 106.092,85.263 104.572,84.372C103.575,83.788 102.913,83.426 102.585,83.282L102.615,80.961C103.696,79.413 105.094,78.2 106.809,77.319C107.655,76.885 108.247,76.564 108.588,76.356C109.929,75.898 111.146,75.173 112.246,74.176Z" style="fill:white;fill-opacity:0.6;"/>
    <path d="M102.632,74.022L102.615,80.961C103.696,79.413 105.094,78.2 106.809,77.319C107.655,76.885 108.247,76.564 108.588,76.356L105.866,73.621C105.645,73.4 105.324,73.313 105.023,73.394L102.632,74.022Z" style="fill:white;fill-opacity:0.35;"/>
    <path d="M115.169,76.945L114.417,74.959C114.029,76.707 113.12,78.12 111.688,79.185C111.584,79.262 111.457,79.296 111.327,79.282L109.691,79.105C109.655,79.102 109.625,79.122 109.615,79.159C109.605,79.192 109.618,79.228 109.651,79.242C111.435,80.02 113.064,79.966 114.601,78.898C114.725,78.812 114.897,78.858 114.962,78.995C115.365,79.845 115.329,80.774 114.865,81.7C114.142,83.141 113.842,84.583 113.972,86.024C114.005,86.389 113.845,86.74 113.55,86.954C112.364,87.814 111.042,88.499 109.588,89.007C114.012,90.274 117.359,89.408 119.623,86.409L119.79,84.887C119.817,84.653 119.75,84.419 119.607,84.235C118.695,83.066 118.117,82.393 117.386,81.199C116.787,80.219 116.033,79.343 115.136,78.55C115.038,78.464 114.978,78.339 114.975,78.209C114.964,77.778 115.029,77.356 115.169,76.945Z" style="fill:white;fill-opacity:0.5;"/>
    <path d="M39.423,77.423C38.958,76.955 38.806,76.375 38.941,75.674C38.959,75.581 38.848,75.52 38.777,75.584C38.106,76.19 37.577,76.945 37.196,77.851C37.44,79.516 38.29,80.879 39.764,81.918C39.874,81.995 40.008,82.025 40.142,82.004L41.499,81.787C41.519,81.784 41.543,81.797 41.549,81.817L41.583,81.918C41.593,81.954 41.576,81.995 41.539,82.011C39.907,82.737 38.398,82.615 37.032,81.683C36.894,81.59 36.704,81.653 36.647,81.811C36.177,83.108 36.534,83.827 37.196,85.365C37.329,85.676 37.446,86.168 37.593,86.833C37.596,86.847 37.6,87.245 37.607,88.027C37.614,88.846 38.058,89.466 38.938,89.89C40.261,90.527 41.172,90.936 41.67,91.127C43.171,91.09 44.756,91.088 46.432,91.124C47.251,91.141 48.09,90.886 48.95,90.365C49.562,89.522 49.659,88.622 49.244,87.663C48.05,88.739 46.636,89.091 45.004,88.713C44.974,88.703 44.947,88.693 44.924,88.679L44.131,88.221C43.991,88.137 43.827,88.097 43.66,88.101C41.793,88.144 40.188,87.528 38.734,86.365C38.708,86.344 38.703,86.308 38.724,86.278C38.743,86.251 38.777,86.244 38.807,86.261C42.066,88.113 45.141,87.977 48.094,85.76C49.314,83.897 47.147,82.015 45.73,81.035C45.425,80.824 44.525,80.347 43.024,79.593C41.773,78.965 40.573,78.242 39.423,77.423Z" style="fill:white;fill-opacity:0.6;"/>
    <path d="M56.357,76.621L56.347,85.167C56.364,84.999 56.417,84.872 56.507,84.787C56.564,84.733 56.648,84.711 56.721,84.73C58.703,85.25 60.855,84.73 62.794,84.302C61.694,84.195 60.474,83.783 59.139,83.071C58.474,82.716 57.994,82.293 57.701,81.8C57.624,81.67 57.591,81.52 57.604,81.372C57.758,79.674 57.343,78.089 56.357,76.621Z" style="fill:white;fill-opacity:0.5;"/>
    <path d="M82.434,78.945C84.745,79.062 86.741,78.416 88.43,77.002C88.447,76.985 88.453,76.962 88.44,76.942C88.427,76.921 88.4,76.915 88.38,76.925C85.405,78.443 82.548,79.042 79.401,77.614C79.267,77.637 79.181,77.694 79.143,77.781C79.088,77.909 79.15,78.055 79.281,78.102C80.297,78.467 81.347,78.747 82.434,78.945Z" style="fill:white;fill-opacity:0.25;"/>
    <path d="M79.033,77.54L79.06,79.921C80.294,80.098 81.421,79.771 82.434,78.945C81.347,78.747 80.297,78.467 79.281,78.102C79.15,78.055 79.088,77.909 79.143,77.781C79.181,77.694 79.267,77.637 79.401,77.614C79.27,77.53 79.147,77.503 79.033,77.54Z" style="fill:white;fill-opacity:0.5;"/>
    <path d="M37.196,77.851C37.219,77.734 37.099,77.751 36.828,77.895L36.677,80.995C36.674,81.098 36.626,81.198 36.547,81.269C35.823,81.912 35.333,82.409 35.065,82.747C33.707,84.457 32.681,86.292 31.999,88.255C34.122,91.441 37.346,92.401 41.67,91.127C41.172,90.936 40.261,90.527 38.938,89.89C38.058,89.466 37.614,88.846 37.607,88.027C37.6,87.245 37.596,86.847 37.593,86.833C37.446,86.168 37.329,85.676 37.196,85.365C36.534,83.827 36.177,83.108 36.647,81.811C36.704,81.653 36.894,81.59 37.032,81.683C38.398,82.615 39.907,82.737 41.539,82.011C41.576,81.995 41.593,81.954 41.583,81.918L41.549,81.817C41.543,81.797 41.519,81.784 41.499,81.787L40.142,82.004C40.008,82.025 39.874,81.995 39.764,81.918C38.29,80.879 37.44,79.516 37.196,77.851Z" style="fill:white;fill-opacity:0.5;"/>
    <path d="M68.874,78.503C68.683,78.61 68.509,78.771 68.349,78.981C67.295,79.991 65.971,80.71 64.379,81.142C65.717,82.085 67.171,82.184 68.74,81.439C69.185,81.228 69.646,81.011 70.128,80.781L68.874,78.503Z" style="fill:white;fill-opacity:0.5;"/>
    <path d="M68.349,78.981C65.262,80.931 62.131,80.983 58.919,79.202C58.882,79.182 58.838,79.192 58.815,79.229L58.812,79.229C58.791,79.259 58.798,79.299 58.828,79.323C60.134,80.314 61.647,80.933 63.286,81.021C63.67,81.042 64.035,81.082 64.379,81.142C65.971,80.71 67.295,79.991 68.349,78.981Z" style="fill:white;fill-opacity:0.25;"/>
    <path d="M79.103,82.697L79.063,82.737C79.929,83.302 80.902,83.576 81.983,83.553C83.534,83.519 85.056,83.55 86.544,83.646C89.804,83.858 92.008,83.704 94.493,82.399C95.606,81.814 96.171,80.898 96.188,79.65C95.927,80.229 95.673,80.623 95.429,80.831C92.416,83.389 88.911,84.024 84.919,82.74L83.15,82.64C83.14,82.636 83.133,82.636 83.126,82.64L79.103,82.697Z" style="fill:white;fill-opacity:0.25;"/>
    <path d="M102.585,83.282L102.625,86.131C103.692,86.522 104.762,86.647 105.836,86.499C105.98,86.479 106.117,86.429 106.237,86.355C106.829,85.994 107.076,85.719 107.896,85.71C109.588,85.691 111.217,85.133 112.745,83.974C112.775,83.951 112.785,83.911 112.765,83.877L112.761,83.874C112.738,83.837 112.691,83.823 112.651,83.844C111.515,84.432 110.721,84.81 110.243,84.92C107.985,85.444 106.092,85.263 104.572,84.372C103.575,83.788 102.913,83.426 102.585,83.282Z" style="fill:white;fill-opacity:0.5;"/>
    <path d="M69.402,83.713C68.262,84.205 67.128,84.414 65.995,84.345C64.587,84.26 63.52,84.245 62.794,84.302C60.855,84.73 58.703,85.25 56.721,84.73C56.648,84.711 56.564,84.733 56.507,84.787C56.417,84.872 56.364,84.999 56.347,85.167L56.347,85.415C59.714,85.429 63.075,85.146 66.439,85.034C67.74,84.991 68.73,84.549 69.402,83.713Z" style="fill:white;fill-opacity:0.25;"/>
    <path d="M49.244,87.663C48.97,86.97 48.585,86.335 48.094,85.76C45.141,87.977 42.066,88.113 38.807,86.261C38.777,86.244 38.743,86.251 38.724,86.278C38.703,86.308 38.708,86.344 38.734,86.365C40.188,87.528 41.793,88.144 43.66,88.101C43.827,88.097 43.991,88.137 44.131,88.221L44.924,88.679C44.947,88.693 44.974,88.703 45.004,88.713C46.636,89.091 48.05,88.739 49.244,87.663Z" style="fill:white;fill-opacity:0.5;"/>
    <path d="M109.588,89.007C108.304,88.933 106.899,88.939 105.371,89.024C104.722,89.06 103.889,88.937 102.87,88.652C103.492,89.305 104.318,89.649 105.344,89.686C107.725,89.77 109.598,89.868 110.962,89.987C113.865,90.238 116.399,89.936 118.46,88.646C119.282,88.131 119.67,87.385 119.623,86.409C117.359,89.408 114.012,90.274 109.588,89.007Z" style="fill:white;fill-opacity:0.25;"/>
    <path d="M115.059,99.434C114.641,100.474 114.811,101.32 115.57,101.972C116.393,102.437 117.313,102.652 118.329,102.617C119.563,102.575 120.78,102.577 121.978,102.624C123.198,102.3 125.45,101.484 126.077,100.32C126.137,100.209 126.158,100.082 126.141,99.962C126.01,99.062 126.104,98.17 126.445,97.287C127.007,95.832 127.465,95.02 127.03,93.869C126.963,93.692 126.749,93.625 126.592,93.729C125.193,94.654 123.755,94.745 122.285,93.973C122.235,93.946 122.212,93.886 122.235,93.836L122.248,93.802C122.272,93.752 122.329,93.725 122.382,93.742C122.895,93.906 123.359,93.978 123.78,93.946C123.907,93.937 124.028,93.893 124.131,93.819C125.322,92.965 126.117,91.782 126.529,90.294C126.291,89.361 125.756,88.556 124.93,87.877C124.873,87.83 124.789,87.884 124.807,87.954C124.99,88.688 124.796,89.293 124.205,89.779C123.592,90.283 122.964,90.686 122.322,90.983C120.196,91.968 114.213,94.839 116.142,97.598C117.088,98.176 117.768,98.544 118.175,98.701C120.277,99.514 122.329,99.411 124.315,98.337C124.382,98.301 124.469,98.327 124.502,98.394L124.542,98.467C124.559,98.501 124.549,98.541 124.516,98.561C123.272,99.315 121.891,99.717 120.366,99.748C120.192,99.752 120.025,99.802 119.877,99.892C118.112,100.975 116.687,100.521 115.059,99.434Z" style="fill:white;fill-opacity:0.6;"/>
    <path d="M31.999,88.255C32.223,89.579 32.698,90.465 33.417,90.91C35.296,92.071 37.6,92.296 40.255,92.097C41.275,92.02 43.205,91.927 46.051,91.819C47.218,91.775 48.184,91.291 48.95,90.365C48.09,90.886 47.251,91.141 46.432,91.124C44.756,91.088 43.171,91.09 41.67,91.127C37.346,92.401 34.122,91.441 31.999,88.255Z" style="fill:white;fill-opacity:0.25;"/>
    <path d="M35.192,102.547C35.931,101.841 36.102,100.965 35.701,99.919C34.494,100.825 33.193,101.139 31.802,100.872C31.678,100.848 31.561,100.811 31.447,100.761L30.507,100.337C30.407,100.293 30.3,100.269 30.193,100.266C28.608,100.233 27.167,99.751 25.873,98.778C25.832,98.748 25.826,98.708 25.849,98.661C25.862,98.641 25.889,98.634 25.909,98.645C29.003,100.256 31.882,100.096 34.634,98.006C36.129,95.056 30.504,92.445 28.488,91.528C27.745,91.191 27.111,90.794 26.581,90.345C25.928,89.79 25.741,89.144 26.003,88.388C26.027,88.318 25.947,88.258 25.889,88.305C25.056,88.978 24.495,89.783 24.217,90.736L25.04,92.823C25.057,92.866 25.08,92.906 25.113,92.936L26.364,94.187C26.618,94.441 26.986,94.544 27.337,94.454C27.842,94.326 28.2,94.279 28.407,94.311C28.514,94.327 28.531,94.471 28.431,94.511C26.87,95.133 25.441,95.033 24.147,94.217C23.993,94.12 23.792,94.19 23.729,94.357C23.375,95.305 23.511,95.969 23.98,96.983C24.524,98.16 24.752,99.313 24.662,100.447C24.628,100.868 24.826,101.276 25.18,101.51C26.207,102.189 27.341,102.721 28.588,103.105C28.852,103.129 29.143,103.121 29.454,103.079C29.759,103.037 30.046,103.035 30.31,103.072C32.103,103.324 33.731,103.152 35.192,102.547Z" style="fill:white;fill-opacity:0.6;"/>
    <path d="M131.277,99.959C131.184,99.039 131.02,98.42 130.789,98.099C129.578,96.419 128.691,94.748 127.218,93.475C127.137,93.405 127.084,93.307 127.064,93.204L126.529,90.294C126.117,91.782 125.322,92.965 124.131,93.819C124.028,93.893 123.907,93.937 123.78,93.946C123.359,93.978 122.895,93.906 122.382,93.742C122.329,93.725 122.272,93.752 122.248,93.802L122.235,93.836C122.212,93.886 122.235,93.946 122.285,93.973C123.755,94.745 125.193,94.654 126.592,93.729C126.749,93.625 126.963,93.692 127.03,93.869C127.465,95.02 127.007,95.832 126.445,97.287C126.104,98.17 126.01,99.062 126.141,99.962C126.158,100.082 126.137,100.209 126.077,100.32C125.45,101.484 123.198,102.3 121.978,102.624C123.459,103.029 124.579,103.216 125.338,103.186C128.111,103.074 130.09,101.995 131.277,99.959Z" style="fill:white;fill-opacity:0.5;"/>
    <path d="M24.217,90.736C23.93,91.615 23.799,92.495 23.823,93.371C23.826,93.491 23.779,93.605 23.696,93.685C22.186,95.123 21.266,96.683 20,98.591C19.696,99.049 19.569,99.761 19.612,100.731C21.325,103.734 25.605,104.196 28.588,103.105C27.341,102.721 26.207,102.189 25.18,101.51C24.826,101.276 24.628,100.868 24.662,100.447C24.752,99.313 24.524,98.16 23.98,96.983C23.511,95.969 23.375,95.305 23.729,94.357C23.792,94.19 23.993,94.12 24.147,94.217C25.441,95.033 26.87,95.133 28.431,94.511C28.531,94.471 28.514,94.327 28.407,94.311C28.2,94.279 27.842,94.326 27.337,94.454C26.986,94.544 26.618,94.441 26.364,94.187L25.113,92.936C25.08,92.906 25.057,92.866 25.04,92.823L24.217,90.736Z" style="fill:white;fill-opacity:0.5;"/>
    <path d="M145.078,136.556C144.948,136.302 144.807,135.894 144.657,135.329C144.145,133.409 143.854,131.794 143.791,130.48C143.714,128.908 143.714,126.608 143.791,123.581C143.831,122.006 144.179,120.06 144.409,118.746C145.493,112.599 148.011,106.333 152.215,101.658C153.117,100.654 154.325,99.648 155.839,98.634C158.739,96.698 162.668,95.779 166.032,96.177C170.507,96.708 174.7,98.447 179.114,100.714C186.515,104.52 202.095,115.043 202.181,115.094C203.932,116.131 205.599,117.314 207.218,118.585C206.432,119.451 206.056,120.451 206.064,121.588C206.064,121.648 206.057,121.709 206.044,121.769L204.372,129.497C198.951,127.243 193.451,125.728 187.872,124.959C186.826,124.815 185.752,124.664 184.652,124.507C183.425,124.333 182.331,124.429 181.171,124.293C180.488,124.214 179.616,124.193 178.552,124.23C176.579,124.299 174.516,124.519 172.359,124.889C165.324,126.096 157.605,130.675 156.869,138.412C156.733,139.843 156.991,141.152 157.645,142.331C157.959,142.897 158.07,143.508 158.896,143.495C160.448,143.471 165.387,143.561 165.661,143.542C166.744,143.467 168.534,143.538 170.032,143.335C174.061,142.786 177.011,142.294 178.877,141.856C181.301,141.288 182.789,141.076 184.849,140.549C187.186,139.952 191.845,138.796 198.824,137.078C200.305,136.713 202.011,136.138 203.68,135.717L205.047,138.569C201.085,139.736 197.112,140.78 193.129,141.699C192.39,141.87 191.193,142.174 189.538,142.609C188.327,142.927 187.12,143.197 185.919,143.428C179.275,145.134 173.159,146.216 167.57,146.672C165.638,146.83 162.929,146.781 159.441,146.538C158.237,146.454 154.525,145.673 153.759,145.394C149.532,143.859 146.64,140.91 145.078,136.556Z" style="fill:white;fill-opacity:0.6;"/>
    <path d="M232.86,115.753C232.956,115.691 233.355,115.351 233.515,115.241C237.475,112.489 241.551,109.797 245.745,107.158C251.309,103.657 256.593,100.618 262.308,98.227C265.291,96.979 269.3,95.886 272.681,96.136C275.831,96.371 278.64,97.417 281.105,99.277C286.127,103.065 289.271,109.138 290.796,115.168C291.117,116.438 291.475,117.324 291.491,118.181C291.501,118.896 291.899,119.498 291.899,120.174C291.899,120.618 291.996,121.418 292.194,122.568C292.538,124.598 292.411,126.925 292.404,128.972C292.401,130.477 292.026,132.256 291.762,133.861C291.675,134.399 291.337,135.513 290.749,137.202C289.104,141.094 286.345,143.807 282.476,145.334C281.195,145.84 279.698,145.906 278.446,146.234C277.661,146.44 276.637,146.572 275.37,146.628C272.23,146.769 270.073,146.797 268.892,146.709C268.1,146.649 266.946,146.531 265.438,146.358C259.713,145.698 254.04,144.452 248.299,143.047C248.229,143.03 247.782,142.898 246.958,142.649C246.501,142.511 246.042,142.418 245.587,142.375C242.571,141.642 239.559,140.905 236.545,140.168C234.228,139.601 231.225,138.693 227.536,137.439C227.349,137.161 227.291,136.937 227.366,136.76C227.599,136.207 227.723,135.757 227.727,135.406C227.733,134.841 227.754,134.336 227.787,133.891C229.369,134.697 230.727,135.258 231.86,135.57C237.582,137.142 240.815,138.145 245.29,139.054C245.949,139.188 247.543,139.597 250.082,140.281C253.362,141.166 256.235,141.65 260.539,142.495C264.067,143.188 267.521,143.567 270.902,143.582C271.059,143.583 274.955,143.545 276.122,143.525C278.443,143.485 278.774,141.83 279.142,139.967C279.225,139.542 279.222,138.904 279.132,138.048C278.85,135.369 277.644,132.978 275.507,130.875C272.808,128.219 269.718,126.431 266.244,125.507C264.394,125.016 262.551,124.664 260.709,124.444C260.488,124.418 259.429,124.352 257.532,124.253C256.492,124.199 255.429,124.202 254.342,124.26C249.162,124.534 243.781,125.49 238.2,127.126C234.324,128.262 230.783,129.754 227.576,131.604C226.944,128.189 225.908,124.922 224.463,121.795C227.185,119.642 229.963,117.596 232.86,115.753Z" style="fill:white;fill-opacity:0.6;"/>
    <path d="M116.142,97.598C115.627,98.17 115.266,98.782 115.059,99.434C116.687,100.521 118.112,100.975 119.877,99.892C120.025,99.802 120.192,99.752 120.366,99.748C121.891,99.717 123.272,99.315 124.516,98.561C124.549,98.541 124.559,98.501 124.542,98.467L124.502,98.394C124.469,98.327 124.382,98.301 124.315,98.337C122.329,99.411 120.277,99.514 118.175,98.701C117.768,98.544 117.088,98.176 116.142,97.598Z" style="fill:white;fill-opacity:0.5;"/>
    <path d="M35.701,99.919L34.634,98.006C31.882,100.096 29.003,100.256 25.909,98.645C25.889,98.634 25.862,98.641 25.849,98.661C25.826,98.708 25.832,98.748 25.873,98.778C27.167,99.751 28.608,100.233 30.193,100.266C30.3,100.269 30.407,100.293 30.507,100.337L31.447,100.761C31.561,100.811 31.678,100.848 31.802,100.872C33.193,101.139 34.494,100.825 35.701,99.919Z" style="fill:white;fill-opacity:0.5;"/>
    <path d="M115.57,101.972C116.159,102.771 117.078,103.186 118.332,103.219C119.573,103.252 121.633,103.361 124.512,103.544C126.275,103.655 127.914,103.374 129.435,102.701C130.612,102.18 131.227,101.266 131.277,99.959C130.09,101.995 128.111,103.074 125.338,103.186C124.579,103.216 123.459,103.029 121.978,102.624C120.78,102.577 119.563,102.575 118.329,102.617C117.313,102.652 116.393,102.437 115.57,101.972Z" style="fill:white;fill-opacity:0.25;"/>
    <path d="M19.612,100.731C19.663,103.905 24.428,104.224 26.642,104.065C27.822,103.981 29.825,103.866 32.644,103.721C33.731,103.665 34.58,103.273 35.192,102.547C33.731,103.152 32.103,103.324 30.31,103.072C30.046,103.035 29.759,103.037 29.454,103.079C29.143,103.121 28.852,103.129 28.588,103.105C25.605,104.196 21.325,103.734 19.612,100.731Z" style="fill:white;fill-opacity:0.25;"/>
    <path d="M48.669,116.759C49.254,116 49.358,115.144 48.973,114.198C47.726,115.174 46.341,115.524 44.827,115.238C44.686,115.211 44.549,115.157 44.429,115.077L43.683,114.579C43.613,114.532 43.532,114.512 43.449,114.515C41.753,114.595 40.258,114.096 38.847,113.141C38.821,113.123 38.808,113.091 38.814,113.061C38.826,112.998 38.855,112.976 38.904,113.001C41.987,114.528 44.884,114.362 47.703,112.285C49.057,110.961 47.351,109.005 46.161,108.088C44.746,106.998 43.358,106.213 41.81,105.547C40.934,105.169 40.141,104.691 39.433,104.119C38.683,103.514 38.428,102.85 38.677,102.139C38.71,102.045 38.597,101.968 38.52,102.032C37.693,102.717 37.142,103.54 36.861,104.503C37.249,106.199 38.13,107.502 39.52,108.389C39.61,108.447 39.717,108.473 39.824,108.459L41.212,108.282C41.218,108.282 41.225,108.285 41.228,108.292L41.262,108.389C41.272,108.423 41.259,108.459 41.225,108.476C39.704,109.228 38.21,109.105 36.741,108.152C36.601,108.061 36.413,108.115 36.343,108.265C36.04,108.917 36.028,109.587 36.299,110.272C36.859,111.684 37.525,113.208 37.296,114.796C37.249,115.124 37.379,115.452 37.637,115.656C38.603,116.421 39.854,117.067 41.392,117.592C42.877,117.572 44.472,117.564 46.174,117.569C47.047,117.571 47.88,117.304 48.669,116.759Z" style="fill:white;fill-opacity:0.6;"/>
    <path d="M99.051,115.853C98.599,117.007 98.703,117.94 99.365,118.652C101.181,120.24 104.027,119.522 106.147,119.618C106.632,119.64 107.09,119.662 107.521,119.682C108.882,119.227 110.126,118.656 111.246,117.97C111.869,117.589 112.261,117.064 112.196,116.221C112.098,114.943 112.355,113.67 112.969,112.395C113.341,111.623 113.536,111.031 113.557,110.616C113.59,109.984 113.43,109.386 113.086,108.814C111.805,109.784 110.447,110.085 109.013,109.717C108.454,109.657 107.92,109.481 107.427,109.165C107.417,109.158 107.421,109.145 107.434,109.145L109.324,109.352C109.531,109.376 109.738,109.315 109.902,109.182C111.331,108.021 112.25,106.647 112.651,105.052C112.688,104.751 112.555,104.349 112.256,103.848C111.626,102.79 111.12,102.172 110.748,101.992C110.658,101.948 110.558,102.039 110.598,102.132C110.912,102.873 110.762,103.547 110.163,104.145C109.504,104.804 108.778,105.306 107.986,105.657C105.638,106.697 98.285,110.091 100.285,113.582C103.662,116.147 107.163,116.332 110.832,114.204C110.878,114.177 110.932,114.228 110.905,114.275C110.78,114.498 110.564,114.699 110.26,114.877C108.668,115.803 107.05,116.243 105.401,116.197C104.939,116.185 104.421,116.786 103.906,116.94C102.167,117.461 100.549,117.1 99.051,115.853Z" style="fill:white;fill-opacity:0.6;"/>
    <path d="M36.861,104.503L36.39,107.406C36.356,107.62 36.242,107.814 36.075,107.951C34.382,109.341 33.663,111.26 32.096,112.843C31.999,112.941 31.945,113.074 31.945,113.215L31.945,115.137C34.226,118.027 37.376,118.846 41.392,117.592C39.854,117.067 38.603,116.421 37.637,115.656C37.379,115.452 37.249,115.124 37.296,114.796C37.525,113.208 36.859,111.684 36.299,110.272C36.028,109.587 36.04,108.917 36.343,108.265C36.413,108.115 36.601,108.061 36.741,108.152C38.21,109.105 39.704,109.228 41.225,108.476C41.259,108.459 41.272,108.423 41.262,108.389L41.228,108.292C41.225,108.285 41.218,108.282 41.212,108.282L39.824,108.459C39.717,108.473 39.61,108.447 39.52,108.389C38.13,107.502 37.249,106.199 36.861,104.503Z" style="fill:white;fill-opacity:0.5;"/>
    <path d="M109.013,109.717C110.454,109.513 111.781,109.118 112.989,108.526C113.146,108.449 113.25,108.295 113.26,108.122C113.32,107.078 113.116,106.055 112.651,105.052C112.25,106.647 111.331,108.021 109.902,109.182C109.738,109.315 109.531,109.376 109.324,109.352L107.434,109.145C107.421,109.145 107.417,109.158 107.427,109.165C107.92,109.481 108.454,109.657 109.013,109.717Z" style="fill:white;fill-opacity:0.5;"/>
    <path d="M73.776,120.598C73.298,121.802 73.412,122.829 74.111,123.678C75.656,124.855 78.01,124.862 79.859,124.685C80.652,124.528 81.46,124.511 82.287,124.621C82.467,124.645 82.651,124.635 82.832,124.591C84.301,124.234 87.142,123.19 87.738,121.729C87.785,121.612 87.808,121.488 87.801,121.361C87.723,119.899 87.806,118.869 88.059,118.264C88.693,116.747 89.058,115.86 89.142,115.596C89.404,114.776 89.259,113.954 88.707,113.134C88.256,113.435 87.844,113.665 87.473,113.823C86.275,114.333 85.046,114.382 83.785,113.96C83.437,113.917 83.11,113.795 82.805,113.599C82.768,113.576 82.788,113.519 82.832,113.522L84.798,113.736C84.912,113.75 85.022,113.72 85.116,113.656C86.801,112.507 87.861,110.9 88.306,108.857C87.881,107.69 87.177,106.687 86.213,105.828C86.108,105.735 85.952,105.858 86.019,105.981C86.249,106.406 86.31,106.817 86.209,107.209C86.182,107.315 86.14,107.416 86.079,107.51C84.903,109.313 82.547,110.107 80.662,111.028C78.782,111.946 73.38,115.133 74.98,118.03C75.037,118.134 75.117,118.225 75.211,118.298C78.699,121.004 82.387,121.166 86.263,118.92C86.286,118.906 86.316,118.91 86.33,118.933L86.333,118.936C86.35,118.96 86.347,118.997 86.323,119.017C84.632,120.435 82.648,121.063 80.418,120.956C78.207,122.474 75.993,122.354 73.776,120.598Z" style="fill:white;fill-opacity:0.6;"/>
    <path d="M15.543,129.791C15.529,128.621 15.523,127.41 15.523,126.156C15.519,124.611 15.269,122.936 15.255,121.361C15.215,116.997 15.242,111.964 15.332,106.269C15.486,107.289 15.561,108.834 15.553,110.911C15.55,111.569 15.776,112.292 16.228,113.077C17.257,114.867 20.129,115.339 21.746,115.953C22.158,116.11 22.492,116.532 22.749,117.224C23.857,120.203 24.618,122.645 28.424,122.715C29.752,122.74 30.685,122.772 31.23,122.809C31.674,122.839 32.08,123.076 32.327,123.447C32.92,124.342 33.51,125.19 34.099,125.989C36.09,128.689 38.757,128.011 41.586,127.51C42.345,127.376 42.977,127.624 43.476,128.249C45.146,130.344 46.957,132.224 49.973,131.487C50.15,131.443 50.545,131.351 51.157,131.216C51.264,131.192 51.368,131.159 51.471,131.115C52.271,130.779 52.953,130.584 53.511,130.54C53.856,130.513 54.197,130.631 54.451,130.865C55.247,131.597 56.104,132.305 57.022,132.991C59.81,135.075 62.071,133.263 64.804,132.349C65.215,132.212 65.67,132.276 66.025,132.527C68.44,134.229 70.386,135.965 73.475,134.516C73.86,134.336 74.732,133.846 76.097,133.055C76.635,132.743 77.143,132.721 77.615,132.988C78.812,133.665 79.83,134.197 80.665,134.59C82.723,135.557 84.662,134.939 86.53,133.496C87.136,133.029 87.671,132.675 88.136,132.436C88.544,132.226 89.025,132.217 89.44,132.413C91.33,133.307 93.115,134.253 95.175,133.831C96.623,133.534 98.033,132.117 99.439,130.918C99.799,130.61 100.278,130.479 100.743,130.564C101.194,130.646 101.88,130.857 102.796,131.199C106.592,132.615 108.416,130.64 110.638,128.056C110.785,127.885 111.078,127.712 111.521,127.547C111.621,127.51 111.725,127.494 111.832,127.504C112.818,127.593 113.731,127.716 114.57,127.882C116.939,128.349 118.771,127.621 120.065,125.688C121.065,124.193 121.64,123.371 121.79,123.22C121.87,123.14 121.964,123.076 122.068,123.029C123.162,122.535 124.753,122.772 125.77,122.708C129.462,122.478 130.267,119.86 131.297,116.91C131.452,116.468 131.799,116.114 132.24,115.95L135.976,114.566L135.986,129.567C135.983,129.652 135.985,129.734 135.992,129.814L136.039,131.818C135.728,132.955 135.638,134.125 135.772,135.326C135.488,137.529 134.441,139.199 132.635,140.338C131.876,140.817 131.221,141.061 130.662,141.071C128.773,141.103 127.01,140.623 124.85,140.087C120.817,139.088 116.267,138.37 113.303,141.666C112.416,142.652 111.407,144.083 110.277,145.963C109.123,147.882 107.753,150.054 105.755,151.437C103.489,153.007 99.334,150.248 96.609,148.742C93.96,147.278 90.911,145.988 87.952,147.013C85.985,147.694 84.482,149.218 82.976,150.548C82.331,151.117 81.866,151.545 81.585,151.828C80.423,153.001 79.221,153.953 77.986,154.688C75.784,155.998 74.167,155.417 72.201,154.112C69.907,152.591 66.871,148.637 63.62,146.96C59.705,144.939 55.14,147.623 50.762,149.514C48.168,150.635 45.796,151.357 43.723,149.04C42.817,148.026 41.877,146.532 40.904,144.555C40.108,142.937 39.365,141.633 38.583,140.335C35.601,135.384 30.276,135.945 25.013,136.576C23.438,136.765 21.478,136.948 20.305,136.623C19.027,136.269 18.489,135.629 17.519,134.64C17.155,134.269 16.851,133.857 16.613,133.406C16.056,132.352 15.7,131.149 15.543,129.791Z" style="fill:white;fill-opacity:0.65;"/>
    <path d="M68.513,123.437C69.288,122.591 69.429,121.565 68.934,120.364C67.616,121.598 66.028,122.01 64.165,121.605C63.874,121.541 63.423,121.264 62.814,120.776C60.778,120.879 58.956,120.288 57.3,119.07C57.277,119.053 57.27,119.02 57.287,118.996C57.3,118.973 57.33,118.962 57.357,118.973C58.146,119.295 59.009,119.816 59.838,120.013C62.443,120.63 64.857,120.186 67.078,118.689C68.746,117.564 68.055,115.732 66.921,114.582C64.936,112.571 62.376,111.317 59.875,110.182C58.624,109.614 56.658,108.308 57.444,106.577C57.482,106.493 57.377,106.419 57.31,106.483C56.563,107.197 55.454,108.392 55.294,109.523C55.631,110.897 56.274,112.063 57.213,113.017C57.979,113.796 58.283,114.132 59.393,113.937C59.664,113.889 60.024,113.835 60.46,113.746C60.49,113.74 60.522,113.759 60.53,113.79C60.538,113.816 60.524,113.85 60.497,113.863C58.526,114.835 56.73,114.712 55.103,113.552C54.99,113.472 54.833,113.512 54.775,113.639C54.513,114.219 54.398,114.847 54.461,115.519C54.47,115.612 54.493,115.706 54.531,115.796C55.322,117.687 56.016,119.2 55.778,121.153C55.748,121.404 55.829,121.658 56.006,121.842C57.256,123.144 58.828,123.625 60.46,124.307C61.213,124.297 61.955,124.18 62.714,124.243C64.506,124.392 66.961,124.514 68.513,123.437Z" style="fill:white;fill-opacity:0.6;"/>
    <path d="M118.279,116.779C118.393,115.321 118.134,114.593 117.276,113.526C116.502,112.563 116.133,111.859 115.34,110.63C114.759,109.729 114.005,109.125 113.086,108.814C113.43,109.386 113.59,109.984 113.557,110.616C113.536,111.031 113.341,111.623 112.969,112.395C112.355,113.67 112.098,114.943 112.196,116.221C112.261,117.064 111.869,117.589 111.246,117.97C110.126,118.656 108.882,119.227 107.521,119.682C109.631,120.428 111.714,120.528 113.771,119.983C115.818,119.441 117.319,118.374 118.279,116.779Z" style="fill:white;fill-opacity:0.5;"/>
    <path d="M83.785,113.96C85.571,113.927 87.197,113.558 88.657,112.847C88.821,112.767 88.925,112.603 88.928,112.419C88.947,111.252 88.738,110.064 88.306,108.857C87.861,110.9 86.801,112.507 85.116,113.656C85.022,113.72 84.912,113.75 84.798,113.736L82.832,113.522C82.788,113.519 82.768,113.576 82.805,113.599C83.11,113.795 83.437,113.917 83.785,113.96Z" style="fill:white;fill-opacity:0.5;"/>
    <path d="M202.181,115.094C202.095,115.043 211.956,111.208 214.377,110.208C214.842,110.018 215.297,109.81 215.745,109.59C217.012,108.964 218.581,109.917 219.815,110.399C224.182,112.094 232.956,115.691 232.86,115.753C229.963,117.596 227.185,119.642 224.463,121.795C223.711,120.511 222.744,119.401 221.557,118.468C220.192,117.395 218.855,117.188 217.223,117.221C215.08,117.264 213.337,117.31 211.996,117.361C211.739,117.371 211.485,117.405 211.234,117.458C209.639,117.797 208.375,117.846 207.218,118.585C205.599,117.314 203.932,116.131 202.181,115.094Z" style="fill:white;fill-opacity:0.95;"/>
    <path d="M55.294,109.523C54.832,110.636 54.633,111.771 54.732,112.924C54.741,113.027 54.695,113.131 54.615,113.195C53.883,113.771 53.351,114.262 53.026,114.669C51.28,116.859 50.127,118.973 49.582,121.023C50.354,122.501 51.441,123.516 52.839,124.066C55.456,125.096 57.996,125.173 60.46,124.307C58.828,123.625 57.256,123.144 56.006,121.842C55.829,121.658 55.748,121.404 55.778,121.153C56.016,119.2 55.322,117.687 54.531,115.796C54.493,115.706 54.47,115.612 54.461,115.519C54.398,114.847 54.513,114.219 54.775,113.639C54.833,113.512 54.99,113.472 55.103,113.552C56.73,114.712 58.526,114.835 60.497,113.863C60.524,113.85 60.538,113.816 60.53,113.79C60.522,113.759 60.49,113.74 60.46,113.746C60.024,113.835 59.664,113.889 59.393,113.937C58.283,114.132 57.979,113.796 57.213,113.017C56.274,112.063 55.631,110.897 55.294,109.523Z" style="fill:white;fill-opacity:0.5;"/>
    <path d="M48.973,114.198C48.729,113.419 48.304,112.78 47.703,112.285C44.884,114.362 41.987,114.528 38.904,113.001C38.855,112.976 38.826,112.998 38.814,113.061C38.808,113.091 38.821,113.123 38.847,113.141C40.258,114.096 41.753,114.595 43.449,114.515C43.532,114.512 43.613,114.532 43.683,114.579L44.429,115.077C44.549,115.157 44.686,115.211 44.827,115.238C46.341,115.524 47.726,115.174 48.973,114.198Z" style="fill:white;fill-opacity:0.5;"/>
    <path d="M94.396,121.046C94.185,118.792 92.761,117.796 91.811,116.131C91.477,115.545 91.035,114.923 90.486,114.265C89.932,113.599 89.339,113.225 88.707,113.134C89.259,113.954 89.404,114.776 89.142,115.596C89.058,115.86 88.693,116.747 88.059,118.264C87.806,118.869 87.723,119.899 87.801,121.361C87.808,121.488 87.785,121.612 87.738,121.729C87.142,123.19 84.301,124.234 82.832,124.591C82.651,124.635 82.467,124.645 82.287,124.621C81.46,124.511 80.652,124.528 79.859,124.685C81.106,124.701 82.347,124.808 83.578,125.002C85.333,125.28 86.49,125.402 87.049,125.37C89.805,125.216 93.439,123.959 94.396,121.046Z" style="fill:white;fill-opacity:0.5;"/>
    <path d="M100.285,113.582L99.051,115.853C100.549,117.1 102.167,117.461 103.906,116.94C104.421,116.786 104.939,116.185 105.401,116.197C107.05,116.243 108.668,115.803 110.26,114.877C110.564,114.699 110.78,114.498 110.905,114.275C110.932,114.228 110.878,114.177 110.832,114.204C107.163,116.332 103.662,116.147 100.285,113.582Z" style="fill:white;fill-opacity:0.5;"/>
    <path d="M31.945,115.137C31.989,116.345 32.624,117.208 33.858,117.719C35.731,118.495 37.393,118.68 39.633,118.555C42.65,118.386 44.583,118.288 45.429,118.264C46.867,118.224 47.947,117.722 48.669,116.759C47.88,117.304 47.047,117.571 46.174,117.569C44.472,117.564 42.877,117.572 41.392,117.592C37.376,118.846 34.226,118.027 31.945,115.137Z" style="fill:white;fill-opacity:0.25;"/>
    <path d="M99.365,118.652C99.763,119.806 100.987,120.185 102.124,120.331C104.408,120.624 107.441,120.551 110.303,120.822C112.173,120.999 114.089,120.665 116.045,119.819C117.56,119.164 118.306,118.15 118.279,116.779C117.319,118.374 115.818,119.441 113.771,119.983C111.714,120.528 109.631,120.428 107.521,119.682C107.09,119.662 106.632,119.64 106.147,119.618C104.027,119.522 101.181,120.24 99.365,118.652Z" style="fill:white;fill-opacity:0.25;"/>
    <path d="M207.218,118.585C206.432,119.451 206.056,120.451 206.064,121.588C206.064,121.648 206.057,121.709 206.044,121.769L204.372,129.497C203.91,131.326 203.765,133.131 203.91,134.914C203.917,135.001 203.907,135.088 203.877,135.168L203.68,135.717L205.047,138.569C207.987,140.88 210.468,140.794 214.698,140.816C216.648,140.827 218.594,140.815 220.54,140.783C222.316,140.754 223.761,140.399 224.874,139.72C225.59,139.282 226.476,138.522 227.536,137.439C227.349,137.161 227.291,136.937 227.366,136.76C227.599,136.207 227.723,135.757 227.727,135.406C227.733,134.841 227.754,134.336 227.787,133.891L227.576,131.604C226.944,128.189 225.908,124.922 224.463,121.795C223.711,120.511 222.744,119.401 221.557,118.468C220.192,117.395 218.855,117.188 217.223,117.221C215.08,117.264 213.337,117.31 211.996,117.361C211.739,117.371 211.485,117.405 211.234,117.458C209.639,117.797 208.375,117.846 207.218,118.585Z" style="fill:white;fill-opacity:0.45;"/>
    <path d="M68.934,120.364L67.954,118.572C67.897,118.468 67.764,118.441 67.67,118.512C66.199,119.613 64.58,120.364 62.814,120.776C63.423,121.264 63.874,121.541 64.165,121.605C66.028,122.01 67.616,121.598 68.934,120.364Z" style="fill:white;fill-opacity:0.5;"/>
    <path d="M80.418,120.956C78.421,120.612 76.686,119.819 75.217,118.565C75.124,118.485 74.984,118.498 74.91,118.592C74.374,119.269 73.994,119.936 73.776,120.598C75.993,122.354 78.207,122.474 80.418,120.956Z" style="fill:white;fill-opacity:0.5;"/>
    <path d="M74.111,123.678C74.666,124.611 75.528,125.143 76.702,125.28C79.468,125.602 82.119,125.476 85.056,125.869C87.62,126.211 90.653,125.654 92.72,124.507C93.921,123.842 94.479,122.688 94.396,121.046C93.439,123.959 89.805,125.216 87.049,125.37C86.49,125.402 85.333,125.28 83.578,125.002C82.347,124.808 81.106,124.701 79.859,124.685C78.01,124.862 75.656,124.855 74.111,123.678Z" style="fill:white;fill-opacity:0.25;"/>
    <path d="M49.582,121.023C49.783,122.595 50.254,123.582 51,123.986C53.456,125.316 55.936,125.577 59.099,125.313C60.547,125.193 62.323,125.104 64.42,125.039C65.914,124.993 67.63,124.775 68.513,123.437C66.961,124.514 64.506,124.392 62.714,124.243C61.955,124.18 61.213,124.297 60.46,124.307C57.996,125.173 55.456,125.096 52.839,124.066C51.441,123.516 50.354,122.501 49.582,121.023Z" style="fill:white;fill-opacity:0.25;"/>
    <path d="M204.372,129.497C198.951,127.243 193.451,125.728 187.872,124.959C186.826,124.815 185.752,124.664 184.652,124.507C183.425,124.333 182.331,124.429 181.171,124.293C180.488,124.214 179.616,124.193 178.552,124.23C176.579,124.299 174.516,124.519 172.359,124.889C165.324,126.096 157.605,130.675 156.869,138.412C156.733,139.843 156.991,141.152 157.645,142.331C157.959,142.897 158.07,143.508 158.896,143.495C160.448,143.471 165.387,143.561 165.661,143.542C166.744,143.467 168.534,143.538 170.032,143.335C174.061,142.786 177.011,142.294 178.877,141.856C181.301,141.288 182.789,141.076 184.849,140.549C187.186,139.952 191.845,138.796 198.824,137.078C200.305,136.713 202.011,136.138 203.68,135.717L203.877,135.168C203.907,135.088 203.917,135.001 203.91,134.914C203.765,133.131 203.91,131.326 204.372,129.497Z" style="fill:white;fill-opacity:0.15;"/>
    <path d="M227.787,133.891C229.369,134.697 230.727,135.258 231.86,135.57C237.582,137.142 240.815,138.145 245.29,139.054C245.949,139.188 247.543,139.597 250.082,140.281C253.362,141.166 256.235,141.65 260.539,142.495C264.067,143.188 267.521,143.567 270.902,143.582C271.059,143.583 274.955,143.545 276.122,143.525C278.443,143.485 278.774,141.83 279.142,139.967C279.225,139.542 279.222,138.904 279.132,138.048C278.85,135.369 277.644,132.978 275.507,130.875C272.808,128.219 269.718,126.431 266.244,125.507C264.394,125.016 262.551,124.664 260.709,124.444C260.488,124.418 259.429,124.352 257.532,124.253C256.492,124.199 255.429,124.202 254.342,124.26C249.162,124.534 243.781,125.49 238.2,127.126C234.324,128.262 230.783,129.754 227.576,131.604L227.787,133.891Z" style="fill:white;fill-opacity:0.15;"/>
    <path d="M135.992,129.814C136.038,130.337 136.3,130.76 136.778,131.079C137.989,131.881 139.337,132.851 140.821,133.985C141.253,134.316 141.781,134.787 142.41,135.406C142.931,135.917 143.466,136.389 144.012,136.82L138.882,138.726C137.972,138.917 137.697,138.576 137.685,137.683C137.652,135.376 137.685,133.52 136.039,131.818L135.992,129.814ZM0.133,156.219C-0.011,154.226 -0.037,152.668 0.05,151.544C0.29,148.384 1.153,145.488 2.638,142.863C3.414,141.489 4.434,140.081 5.694,138.633C8.346,135.596 11.443,133.011 14.981,130.875L15.004,135.837L15.061,137.506C15.058,138.161 14.794,138.754 14.272,139.282C13.243,140.322 12.616,140.9 12.082,141.846C10.407,144.815 12.478,146.928 14.372,149.076C14.791,149.551 14.987,150.006 14.961,150.437C14.742,153.989 14.491,157.28 18.756,158.426C19.495,158.625 21.645,159.172 21.963,160.045C23.009,162.914 23.766,165.758 27.307,165.95C28.421,166.011 29.21,166.039 29.675,166.034C31.022,166.021 31.597,166.345 32.199,167.378C33.075,168.88 34.225,170.5 35.734,171.02C37.623,171.671 39.543,170.95 41.165,170.779C42.375,170.652 42.94,171.61 43.673,172.458C43.898,172.718 44.288,173.113 44.847,173.638C47.078,175.738 49.481,174.864 52.057,173.98C52.535,173.815 52.985,173.8 53.418,173.923C53.528,173.954 53.628,174.009 53.715,174.087C54.356,174.656 55.217,175.36 56.3,176.187C58.846,178.129 61.057,176.966 63.6,175.805C64.372,175.453 65.055,175.505 65.65,175.956C67.001,176.98 68.81,178.335 70.342,178.323C72.345,178.309 73.306,177.611 75.258,176.478C75.803,176.161 76.512,175.971 77.06,176.29C78.004,176.84 78.896,177.327 79.739,177.752C82.671,179.228 84.71,177.673 87.019,175.966C87.694,175.467 88.474,175.45 89.36,175.919C91.113,176.847 92.891,177.578 95.034,176.976C96.188,176.652 97.804,175.077 98.823,174.18C99.165,173.88 99.632,173.765 100.074,173.879C100.943,174.103 101.849,174.362 102.796,174.658C106.379,175.78 108.068,173.54 110.17,171.217C110.537,170.812 111.029,170.663 111.641,170.769C114.149,171.206 116.478,171.931 118.45,170.09C119.031,169.548 119.728,168.638 120.543,167.365C121.147,166.421 121.496,166.043 122.599,166.037C123.579,166.033 124.526,166.001 125.442,165.944C128.746,165.738 129.687,163.075 130.619,160.396C131.064,159.115 132.468,158.894 133.575,158.48C133.441,159.761 133.556,160.752 133.922,161.449C134.285,162.139 134.892,162.643 135.745,162.968C136.254,163.161 138.952,164.348 141.581,165.517L141.578,165.54L140.581,165.111C140.566,165.105 140.727,167.178 140.997,170.544L140.848,171.826C140.711,171.736 140.601,171.605 140.52,171.435C140.451,171.287 140.263,171.245 140.136,171.344C137.659,173.284 135.076,174.935 132.414,176.327C130.133,177.52 128.575,178.304 127.743,178.675C116.11,183.855 103.318,186.68 90.416,187.914C77.418,189.158 64.553,188.785 51.822,186.787C43.857,185.537 36.309,183.603 29.176,180.992C22.498,178.547 15.901,175.19 10.289,170.719C7.213,168.268 4.712,165.504 2.792,162.416C1.643,160.568 0.759,158.503 0.133,156.219Z" style="fill:white;fill-opacity:0.25;"/>
    <path d="M14.981,130.875L15.543,129.791C15.7,131.149 16.056,132.352 16.613,133.406C16.851,133.857 17.155,134.269 17.519,134.64C18.489,135.629 19.027,136.269 20.305,136.623C21.478,136.948 23.438,136.765 25.013,136.576C30.276,135.945 35.601,135.384 38.583,140.335C39.365,141.633 40.108,142.937 40.904,144.555C41.877,146.532 42.817,148.026 43.723,149.04C45.796,151.357 48.168,150.635 50.762,149.514C55.14,147.623 59.705,144.939 63.62,146.96C66.871,148.637 69.907,152.591 72.201,154.112C74.167,155.417 75.784,155.998 77.986,154.688C79.221,153.953 80.423,153.001 81.585,151.828C81.866,151.545 82.331,151.117 82.976,150.548C84.482,149.218 85.985,147.694 87.952,147.013C90.911,145.988 93.96,147.278 96.609,148.742C99.334,150.248 103.489,153.007 105.755,151.437C107.753,150.054 109.123,147.882 110.277,145.963C111.407,144.083 112.416,142.652 113.303,141.666C116.267,138.37 120.817,139.088 124.85,140.087C127.01,140.623 128.773,141.103 130.662,141.071C131.221,141.061 131.876,140.817 132.635,140.338C134.441,139.199 135.488,137.529 135.772,135.326L136.213,139.69L136.053,139.857C134.24,139.957 133.448,140.913 133.678,142.726C132.103,143.609 130.371,143.861 128.485,143.488C126.462,143.089 124.439,142.669 122.409,142.228C120.981,141.917 119.64,141.801 118.386,141.877C116.871,141.968 115.661,142.639 114.758,143.886C113.651,145.415 112.655,146.92 111.768,148.401C110.498,150.521 108.548,153.128 106.2,154.049C104.365,154.769 102.334,154.461 100.572,153.664C99.264,153.073 97.545,152.184 95.409,150.996C93.318,149.833 91.061,148.748 88.734,149.417C88.607,149.454 88.484,149.508 88.37,149.578C86.125,150.952 84.651,152.484 82.437,154.517C79.415,157.293 75.96,159.285 71.944,156.938C70.93,156.346 70.171,155.815 69.66,155.35C67.421,153.312 65.898,151.912 65.078,151.156C63.123,149.353 61.567,148.412 59.133,148.949C56.294,149.576 52.635,151.562 50.899,152.233C48.399,153.201 45.561,153.676 43.288,152.022C41.98,151.07 40.86,149.762 39.931,148.096C38.987,146.405 38.112,144.769 37.306,143.191C36.136,140.9 34.761,139.064 31.959,138.86C28.384,138.6 25.17,139.252 21.779,139.305C20.248,139.329 18.885,138.98 17.693,138.245C17.455,138.098 17.006,137.698 16.352,137.041C15.943,136.631 15.496,136.228 15.004,135.837L14.981,130.875Z" style="fill:white;fill-opacity:0.4;"/>
    <path d="M135.772,135.326L136.213,139.69L138.882,138.726C137.972,138.917 137.697,138.576 137.685,137.683C137.652,135.376 137.685,133.52 136.039,131.818C135.728,132.955 135.638,134.125 135.772,135.326Z" style="fill:white;fill-opacity:0.5;"/>
    <path d="M15.004,135.837L15.061,137.506C15.185,139.576 15.222,141.659 15.175,143.763C15.164,144.234 15.462,144.846 15.844,145.264C17.381,146.947 18.644,148.377 18.582,150.798C18.563,151.564 18.518,152.524 18.449,153.678C18.425,154.069 18.629,154.437 18.974,154.627C19.355,154.838 19.763,154.999 20.198,155.116C22.571,155.751 24.495,156.544 25.414,159.018C26.077,160.801 26.125,161.53 27.317,162.319C27.404,162.376 27.508,162.406 27.611,162.406C29.016,162.404 29.992,162.409 30.541,162.429C33.945,162.557 34.738,165.007 36.54,167.318C36.744,167.579 37.068,167.719 37.4,167.689C39.941,167.458 42.147,166.437 44.593,168.171C44.626,168.195 44.656,168.221 44.686,168.251L47.358,171.057C47.622,171.334 48.02,171.437 48.381,171.324C49.254,171.052 50.415,170.717 51.859,170.304C52.595,170.094 53.462,170.132 54.458,170.421C54.675,170.485 54.882,170.579 55.07,170.699L56.27,171.465C56.33,171.502 56.387,171.545 56.441,171.589L58.517,173.384C58.634,173.488 58.781,173.553 58.935,173.572C59.426,173.632 59.938,173.528 60.47,173.267C62.787,172.132 64.893,171.184 67.326,172.766C68.126,173.286 68.993,173.877 69.927,174.528C70.398,174.856 70.928,174.797 71.449,174.488C72.872,173.645 73.842,173.105 74.365,172.876C74.695,172.731 75.355,172.594 76.348,172.458C76.515,172.435 76.682,172.442 76.846,172.475C78.514,172.812 79.72,173.579 81.267,174.474C81.786,174.775 82.284,174.783 82.755,174.498C83.123,174.275 83.814,173.801 84.832,173.077C85.443,172.641 86.298,172.259 87.403,171.943C87.51,171.912 87.621,171.899 87.731,171.903C88.952,171.943 90.066,172.216 91.068,172.709C92.012,173.173 92.78,173.49 93.376,173.652C93.476,173.679 93.58,173.672 93.673,173.625C94.271,173.329 94.751,172.997 95.115,172.622C96.897,170.785 98.924,169.627 101.595,170.485C102.863,170.892 103.836,171.178 104.515,171.334C104.836,171.408 105.17,171.304 105.394,171.06L107.16,169.127C107.18,169.104 107.203,169.084 107.227,169.06L108.595,167.847C108.648,167.796 108.708,167.757 108.772,167.726C111.087,166.609 113.029,167.532 115.373,167.703C115.51,167.713 115.648,167.68 115.768,167.609C116.043,167.447 116.303,167.182 116.553,166.82C117.292,165.752 118.326,163.847 119.516,163.212C121.533,162.135 123.503,162.44 125.225,162.372C125.629,162.356 125.997,162.125 126.188,161.764C126.518,161.138 126.823,160.379 127.107,159.486C128.149,156.21 130.625,155.564 133.571,154.791C133.444,150.802 133.481,146.782 133.678,142.726C132.103,143.609 130.371,143.861 128.485,143.488C126.462,143.089 124.439,142.669 122.409,142.228C120.981,141.917 119.64,141.801 118.386,141.877C116.871,141.968 115.661,142.639 114.758,143.886C113.651,145.415 112.655,146.92 111.768,148.401C110.498,150.521 108.548,153.128 106.2,154.049C104.365,154.769 102.334,154.461 100.572,153.664C99.264,153.073 97.545,152.184 95.409,150.996C93.318,149.833 91.061,148.748 88.734,149.417C88.607,149.454 88.484,149.508 88.37,149.578C86.125,150.952 84.651,152.484 82.437,154.517C79.415,157.293 75.96,159.285 71.944,156.938C70.93,156.346 70.171,155.815 69.66,155.35C67.421,153.312 65.898,151.912 65.078,151.156C63.123,149.353 61.567,148.412 59.133,148.949C56.294,149.576 52.635,151.562 50.899,152.233C48.399,153.201 45.561,153.676 43.288,152.022C41.98,151.07 40.86,149.762 39.931,148.096C38.987,146.405 38.112,144.769 37.306,143.191C36.136,140.9 34.761,139.064 31.959,138.86C28.384,138.6 25.17,139.252 21.779,139.305C20.248,139.329 18.885,138.98 17.693,138.245C17.455,138.098 17.006,137.698 16.352,137.041C15.943,136.631 15.496,136.228 15.004,135.837Z" style="fill:white;fill-opacity:0.65;"/>
    <path d="M164.226,151.952C154.86,147.992 145.583,143.8 136.113,140.084C136.076,140.07 136.053,140.034 136.053,139.994L136.053,139.857L136.213,139.69L138.882,138.726L144.012,136.82C144.496,136.493 144.851,136.406 145.078,136.556C146.64,140.91 149.532,143.859 153.759,145.394C154.525,145.673 158.237,146.454 159.441,146.538C162.929,146.781 165.638,146.83 167.57,146.672C173.159,146.216 179.275,145.134 185.919,143.428L167.111,153.196C167.085,153.21 166.978,153.177 166.818,153.115C166.207,152.878 164.827,152.206 164.226,151.952Z" style="fill:white;fill-opacity:0.95;"/>
    <path d="M245.587,142.375C246.042,142.418 246.501,142.511 246.958,142.649C247.782,142.898 248.229,143.03 248.299,143.047C254.04,144.452 259.713,145.698 265.438,146.358C266.946,146.531 268.1,146.649 268.892,146.709C270.073,146.797 272.23,146.769 275.37,146.628C276.637,146.572 277.661,146.44 278.446,146.234C279.698,145.906 281.195,145.84 282.476,145.334C286.345,143.807 289.104,141.094 290.749,137.202L297.878,139.907L267.464,152.794L267.461,152.795C267.287,152.778 267.113,152.731 266.943,152.651C266.849,152.607 266.746,152.602 266.652,152.634C266.412,152.717 266.14,152.677 265.836,152.521C261.45,150.267 254.693,146.893 245.587,142.375Z" style="fill:white;fill-opacity:0.95;"/>
    <path d="M249.069,161.011L249.045,160.463C249.055,160.222 248.948,160.045 248.717,159.928C246.257,158.682 244.434,157.724 243.247,157.052C241.547,156.089 239.612,155.306 238.207,154.454C237.01,153.727 235.766,153.052 234.472,152.427C231.703,151.089 229.006,149.4 226.53,148.254C225.513,147.783 224.172,147.063 222.51,146.097C221.992,145.796 216.972,143.09 216.885,143.137L184.525,160.209C184.455,160.249 184.411,160.322 184.411,160.403L184.414,160.831L184.391,183.008C184.391,183.112 184.348,183.212 184.274,183.286L183.405,184.152C182.859,184.055 182.465,183.954 182.227,183.851C180.841,183.25 177.22,181.603 171.356,178.942C170.771,178.677 170.168,178.437 169.547,178.216C169.426,178.174 169.296,178.253 169.279,178.38L169.162,179.3C168.771,179.143 168.387,178.962 168.009,178.755C167.524,178.49 167.209,178.368 167.062,178.39C166.217,178.521 165.541,178.046 165.032,176.979L165.026,155.885C165.026,155.753 165.153,154.206 167.111,153.196L185.919,143.428C187.12,143.197 188.327,142.927 189.538,142.609C191.193,142.174 192.39,141.87 193.129,141.699C197.112,140.78 201.085,139.736 205.047,138.569C207.987,140.88 210.468,140.794 214.698,140.816C216.648,140.827 218.594,140.815 220.54,140.783C222.316,140.754 223.761,140.399 224.874,139.72C225.59,139.282 226.476,138.522 227.536,137.439C231.225,138.693 234.228,139.601 236.545,140.168C239.559,140.905 242.571,141.642 245.587,142.375C254.693,146.893 261.45,150.267 265.836,152.521C266.14,152.677 266.412,152.717 266.652,152.634C266.746,152.602 266.849,152.607 266.943,152.651C267.113,152.731 267.287,152.778 267.461,152.795L267.464,152.794L267.553,152.765C267.957,153.001 268.27,153.312 268.484,153.682C268.7,154.057 268.813,154.492 268.812,154.969C268.789,162.262 268.785,169.378 268.788,176.324C268.588,177.18 266.608,178.394 266.264,178.551C265.491,178.903 264.973,179.153 264.715,179.297C264.441,179.45 264.274,179.738 264.274,180.052L264.291,234.885L247.54,242.519L247.544,185.604C247.696,185.534 248.881,185.153 248.962,184.348C249.062,183.359 249.065,182.489 249.065,182.423L249.069,161.011Z" style="fill:white;fill-opacity:0.35;"/>
    <path d="M15.061,137.506C15.058,138.161 14.794,138.754 14.272,139.282C13.243,140.322 12.616,140.9 12.082,141.846C10.407,144.815 12.478,146.928 14.372,149.076C14.791,149.551 14.987,150.006 14.961,150.437C14.742,153.989 14.491,157.28 18.756,158.426C19.495,158.625 21.645,159.172 21.963,160.045C23.009,162.914 23.766,165.758 27.307,165.95C28.421,166.011 29.21,166.039 29.675,166.034C31.022,166.021 31.597,166.345 32.199,167.378C33.075,168.88 34.225,170.5 35.734,171.02C37.623,171.671 39.543,170.95 41.165,170.779C42.375,170.652 42.94,171.61 43.673,172.458C43.898,172.718 44.288,173.113 44.847,173.638C47.078,175.738 49.481,174.864 52.057,173.98C52.535,173.815 52.985,173.8 53.418,173.923C53.528,173.954 53.628,174.009 53.715,174.087C54.356,174.656 55.217,175.36 56.3,176.187C58.846,178.129 61.057,176.966 63.6,175.805C64.372,175.453 65.055,175.505 65.65,175.956C67.001,176.98 68.81,178.335 70.342,178.323C72.345,178.309 73.306,177.611 75.258,176.478C75.803,176.161 76.512,175.971 77.06,176.29C78.004,176.84 78.896,177.327 79.739,177.752C82.671,179.228 84.71,177.673 87.019,175.966C87.694,175.467 88.474,175.45 89.36,175.919C91.113,176.847 92.891,177.578 95.034,176.976C96.188,176.652 97.804,175.077 98.823,174.18C99.165,173.88 99.632,173.765 100.074,173.879C100.943,174.103 101.849,174.362 102.796,174.658C106.379,175.78 108.068,173.54 110.17,171.217C110.537,170.812 111.029,170.663 111.641,170.769C114.149,171.206 116.478,171.931 118.45,170.09C119.031,169.548 119.728,168.638 120.543,167.365C121.147,166.421 121.496,166.043 122.599,166.037C123.579,166.033 124.526,166.001 125.442,165.944C128.746,165.738 129.687,163.075 130.619,160.396C131.064,159.115 132.468,158.894 133.575,158.48L133.571,154.791C130.625,155.564 128.149,156.21 127.107,159.486C126.823,160.379 126.518,161.138 126.188,161.764C125.997,162.125 125.629,162.356 125.225,162.372C123.503,162.44 121.533,162.135 119.516,163.212C118.326,163.847 117.292,165.752 116.553,166.82C116.303,167.182 116.043,167.447 115.768,167.609C115.648,167.68 115.51,167.713 115.373,167.703C113.029,167.532 111.087,166.609 108.772,167.726C108.708,167.757 108.648,167.796 108.595,167.847L107.227,169.06C107.203,169.084 107.18,169.104 107.16,169.127L105.394,171.06C105.17,171.304 104.836,171.408 104.515,171.334C103.836,171.178 102.863,170.892 101.595,170.485C98.924,169.627 96.897,170.785 95.115,172.622C94.751,172.997 94.271,173.329 93.673,173.625C93.58,173.672 93.476,173.679 93.376,173.652C92.78,173.49 92.012,173.173 91.068,172.709C90.066,172.216 88.952,171.943 87.731,171.903C87.621,171.899 87.51,171.912 87.403,171.943C86.298,172.259 85.443,172.641 84.832,173.077C83.814,173.801 83.123,174.275 82.755,174.498C82.284,174.783 81.786,174.775 81.267,174.474C79.72,173.579 78.514,172.812 76.846,172.475C76.682,172.442 76.515,172.435 76.348,172.458C75.355,172.594 74.695,172.731 74.365,172.876C73.842,173.105 72.872,173.645 71.449,174.488C70.928,174.797 70.398,174.856 69.927,174.528C68.993,173.877 68.126,173.286 67.326,172.766C64.893,171.184 62.787,172.132 60.47,173.267C59.938,173.528 59.426,173.632 58.935,173.572C58.781,173.553 58.634,173.488 58.517,173.384L56.441,171.589C56.387,171.545 56.33,171.502 56.27,171.465L55.07,170.699C54.882,170.579 54.675,170.485 54.458,170.421C53.462,170.132 52.595,170.094 51.859,170.304C50.415,170.717 49.254,171.052 48.381,171.324C48.02,171.437 47.622,171.334 47.358,171.057L44.686,168.251C44.656,168.221 44.626,168.195 44.593,168.171C42.147,166.437 39.941,167.458 37.4,167.689C37.068,167.719 36.744,167.579 36.54,167.318C34.738,165.007 33.945,162.557 30.541,162.429C29.992,162.409 29.016,162.404 27.611,162.406C27.508,162.406 27.404,162.376 27.317,162.319C26.125,161.53 26.077,160.801 25.414,159.018C24.495,156.544 22.571,155.751 20.198,155.116C19.763,154.999 19.355,154.838 18.974,154.627C18.629,154.437 18.425,154.069 18.449,153.678C18.518,152.524 18.563,151.564 18.582,150.798C18.644,148.377 17.381,146.947 15.844,145.264C15.462,144.846 15.164,144.234 15.175,143.763C15.222,141.659 15.185,139.576 15.061,137.506Z" style="fill:white;fill-opacity:0.5;"/>
    <path d="M297.878,139.907C298.393,139.853 298.995,140.161 299.681,140.833C299.885,141.03 299.999,141.301 299.999,141.586C300.002,154.233 299.999,160.583 299.995,160.637C299.958,161.055 299.754,161.513 299.38,162.018C299.196,162.269 298.785,162.536 298.146,162.82C296.966,163.345 293.357,164.974 293.235,165.03C293.235,165.03 293.234,165.031 293.234,165.031C287.087,167.88 269.859,175.575 268.788,176.324C268.785,169.378 268.789,162.262 268.812,154.969C268.813,154.476 268.704,154.047 268.484,153.682C268.27,153.312 267.957,153.001 267.553,152.765C267.523,152.774 267.493,152.784 267.464,152.794L297.878,139.907Z" style="fill:white;fill-opacity:0.65;"/>
    <path d="M165.026,155.885L165.032,176.979C164.985,176.35 164.637,175.89 163.986,175.598C153.55,170.928 147.75,168.305 146.576,167.763C146.083,167.535 145.219,167.144 144.185,166.68C143.387,166.322 142.488,165.921 141.581,165.517C138.952,164.348 136.254,163.161 135.745,162.968C134.892,162.643 134.285,162.139 133.922,161.449C133.556,160.752 133.441,159.761 133.575,158.48L133.571,154.791C133.444,150.802 133.481,146.782 133.678,142.726C133.448,140.913 134.24,139.957 136.053,139.857L136.053,139.994C136.053,140.034 136.076,140.07 136.113,140.084C145.583,143.8 154.86,147.992 164.226,151.952C164.827,152.206 166.207,152.878 166.818,153.115C166.978,153.177 167.085,153.21 167.111,153.196C165.153,154.206 165.026,155.753 165.026,155.885Z" style="fill:white;fill-opacity:0.75;"/>
    <path d="M216.845,174.217C206.355,169.793 195.885,165.362 185.441,160.928C185.157,160.804 184.812,160.774 184.414,160.831L184.411,160.403C184.411,160.322 184.455,160.249 184.525,160.209L216.885,143.137C216.972,143.09 221.992,145.796 222.51,146.097C224.172,147.063 225.513,147.783 226.53,148.254C229.006,149.4 231.703,151.089 234.472,152.427C235.766,153.052 237.01,153.727 238.207,154.454C239.612,155.306 241.547,156.089 243.247,157.052C244.434,157.724 246.257,158.682 248.717,159.928C248.948,160.045 249.055,160.222 249.045,160.463C249.002,160.573 248.958,160.636 248.915,160.653C238.138,164.991 227.516,169.679 216.845,174.217Z" style="fill:white;fill-opacity:0.95;"/>
    <path d="M140.848,171.826C141.085,172.535 139.989,174.337 139.728,174.602C139.594,174.742 137.083,176.534 136.845,176.678C133.424,178.762 131.103,180.076 129.883,180.628C128.625,181.196 127.8,181.571 127.408,181.748C124.609,183.015 122.516,183.881 121.131,184.346C119.57,184.871 118.299,185.309 117.326,185.66C116.353,186.005 115.296,186.322 114.152,186.61C111.527,187.265 107.953,188.265 104.756,188.891C88.58,192.047 72.235,192.569 55.718,190.459C44.358,189.011 33.116,186.312 22.776,181.537C15.884,178.357 8.975,173.956 4.467,168.101C2.08,165.001 0.622,161.489 0.09,157.567C0.05,157.276 0.063,156.824 0.133,156.219C0.759,158.503 1.643,160.568 2.792,162.416C4.712,165.504 7.213,168.268 10.289,170.719C15.901,175.19 22.498,178.547 29.176,180.992C36.309,183.603 43.857,185.537 51.822,186.787C64.553,188.785 77.418,189.158 90.416,187.914C103.318,186.68 116.11,183.855 127.743,178.675C128.575,178.304 130.133,177.52 132.414,176.327C135.076,174.935 137.659,173.284 140.136,171.344C140.263,171.245 140.451,171.287 140.52,171.435C140.601,171.605 140.711,171.736 140.848,171.826Z" style="fill:white;fill-opacity:0.15;"/>
    <path d="M249.065,182.423C249.065,182.489 249.062,183.359 248.962,184.348C248.881,185.153 247.696,185.534 247.544,185.603C238.75,189.595 228.327,194.281 218.039,198.92C217.668,199.087 217.288,199.068 216.895,198.869C216.802,198.822 216.745,198.726 216.745,198.622C216.745,190.67 216.731,182.614 216.725,174.451C216.725,174.374 216.765,174.297 216.845,174.217C227.516,169.679 238.138,164.991 248.915,160.653C248.958,160.636 249.002,160.573 249.045,160.463L249.069,161.011L249.065,182.423Z" style="fill:white;fill-opacity:0.65;"/>
    <path d="M247.54,242.519C247.303,242.65 247.019,242.79 246.684,242.941C235.442,248.064 226.209,252.291 218.982,255.618C218.781,255.708 218.484,255.942 218.093,256.317C218.016,256.391 217.915,256.431 217.808,256.434L215.922,256.471L216.544,256.31C216.645,256.284 216.715,256.197 216.715,256.093L216.715,199.368C216.715,199.174 216.561,199.013 216.367,199.006C216.099,198.997 215.836,198.936 215.578,198.819C205.858,194.431 196.092,190.081 186.317,185.7L183.899,184.56C183.786,184.507 183.689,184.472 183.629,184.47C183.615,184.469 183.575,184.47 183.508,184.473C183.374,184.48 183.288,184.336 183.354,184.219C183.368,184.196 183.385,184.176 183.405,184.152L184.274,183.286C184.348,183.212 184.391,183.112 184.391,183.008L184.414,160.831C184.812,160.774 185.157,160.804 185.441,160.928C195.885,165.362 206.355,169.793 216.845,174.217C216.765,174.297 216.725,174.374 216.725,174.451C216.731,182.614 216.745,190.67 216.745,198.622C216.745,198.726 216.802,198.822 216.895,198.869C217.288,199.068 217.668,199.087 218.039,198.92C228.327,194.281 237.884,190 246.678,186.008C246.992,185.865 247.279,185.731 247.544,185.603L247.54,242.519Z" style="fill:white;fill-opacity:0.75;"/>
    <path d="M293.235,165.03C293.312,164.995 293.371,164.994 293.407,165.024C293.444,165.054 288.562,222.415 288.425,223.064C288.174,224.244 270.414,232.073 264.291,234.885L264.274,180.052C264.274,179.738 264.441,179.45 264.715,179.297C264.973,179.153 265.492,178.903 266.264,178.551C266.608,178.394 268.588,177.18 268.788,176.324C269.859,175.575 287.087,167.88 293.234,165.031C293.234,165.031 293.235,165.03 293.235,165.03Z" style="fill:white;fill-opacity:0.75;"/>
    <path d="M140.997,170.544C140.727,167.178 140.566,165.105 140.581,165.111C140.913,165.254 141.246,165.396 141.578,165.54C142.451,165.916 143.32,166.296 144.185,166.68C145.219,167.144 146.083,167.535 146.576,167.763C147.75,168.305 153.55,170.928 163.986,175.598C164.637,175.89 164.985,176.35 165.032,176.979C165.541,178.046 166.217,178.521 167.062,178.39C167.209,178.368 167.524,178.49 168.009,178.755C168.387,178.962 168.771,179.143 169.162,179.3C169.343,179.658 169.432,179.989 169.433,180.3C169.462,195.492 169.483,213.684 169.416,234.875C162.477,231.691 146.586,224.776 146.479,224.706C145.974,224.375 145.597,223.953 145.346,223.442C145.296,223.338 145.269,223.224 145.266,223.11C145.249,222.264 142.142,184.803 140.997,170.544Z" style="fill:white;fill-opacity:0.95;"/>
    <path d="M186.324,242.613L169.416,234.875C169.483,213.684 169.462,195.492 169.433,180.3C169.432,179.989 169.343,179.658 169.162,179.3L169.279,178.38C169.296,178.253 169.426,178.174 169.547,178.216C170.168,178.437 170.771,178.677 171.356,178.942C177.22,181.603 180.841,183.25 182.227,183.851C182.465,183.954 182.859,184.055 183.405,184.152C183.385,184.176 183.368,184.196 183.354,184.219C183.288,184.336 183.374,184.48 183.508,184.473C183.575,184.47 183.615,184.469 183.629,184.47C183.689,184.472 183.786,184.507 183.899,184.56L186.317,185.7L186.324,242.613Z" style="fill:white;fill-opacity:0.35;"/>
    <path d="M215.922,256.471L214.468,255.501C214.404,255.458 214.337,255.421 214.267,255.387L186.324,242.613L186.317,185.7C196.092,190.081 205.858,194.431 215.578,198.819C215.836,198.936 216.099,198.997 216.367,199.006C216.561,199.013 216.715,199.174 216.715,199.368L216.715,256.093C216.715,256.197 216.645,256.284 216.544,256.31L215.922,256.471Z" style="fill:white;fill-opacity:0.95;"/>
    <path d="M100.942,66.929L100.77,65.226L100.776,65.158C100.674,65.168 100.63,65.104 100.642,64.966C100.178,63.05 100.19,61.132 100.703,59.225C100.722,59.151 100.672,59.078 100.596,59.068L100.502,59.058C100.472,59.054 100.446,59.071 100.438,59.101C100.031,60.74 99.867,62.388 100.067,64.07L100.275,64.997L100.299,66.929L100.942,66.929Z" style="fill:white;fill-opacity:0.25;"/>
</svg>
