<?xml version="1.0" encoding="UTF-8" standalone="no"?>
<!DOCTYPE svg PUBLIC "-//W3C//DTD SVG 1.1//EN" "http://www.w3.org/Graphics/SVG/1.1/DTD/svg11.dtd">
<svg width="100%" height="100%" viewBox="0 0 300 300" version="1.1" xmlns="http://www.w3.org/2000/svg" xmlns:xlink="http://www.w3.org/1999/xlink" xml:space="preserve" xmlns:serif="http://www.serif.com/" style="fill-rule:evenodd;clip-rule:evenodd;stroke-linejoin:round;stroke-miterlimit:2;">
    <path d="M190.162,52.16L189.595,51.35C186.818,45.954 182.492,42.411 176.614,40.72C173.598,39.516 170.569,38.555 167.529,37.838C163.008,36.747 158.496,36.435 153.984,36.909C152.829,37.031 151.706,37.343 150.619,37.842C147.125,39.447 145.621,42.427 145.211,46.035C144.628,51.208 144.396,56.202 142.99,61.136C141.725,65.579 138.826,70.456 134.347,71.993C132.992,72.459 130.779,71.977 129.421,71.466C127.933,70.906 126.895,70.237 125.371,69.945C118.953,68.725 114.595,73.756 114.389,79.74C114.202,85.136 116.026,90.224 119.857,95.003C121.066,96.507 120.798,98.672 120.49,100.561C119.626,105.88 117.782,110.794 114.956,115.298C114.275,116.384 113.31,117.487 112.062,118.602C110.72,119.628 109.045,120.398 107.043,120.917C106.763,120.751 106.208,120.641 105.381,120.588C103.966,120.041 102.454,119.668 100.84,119.461C100.702,119.445 100.564,119.49 100.459,119.579C100.386,119.64 100.305,119.676 100.22,119.68C100.086,119.688 99.952,119.644 99.847,119.555C99.547,119.295 99.32,119.141 99.166,119.096C95.363,117.974 92.173,116.267 90.364,112.861C88.755,109.837 88.09,107.32 87.336,104.02C86.72,101.307 86.213,98.895 84.389,97.148C80.886,93.803 75.746,92.38 72.089,88.371C66.381,82.112 64.727,72.654 68.586,65.02C69.206,63.791 70.196,62.433 71.562,60.937C74.42,57.8 76.11,55.919 76.633,55.294C77.436,54.329 78.47,53.117 79.046,52.051C80.019,50.243 80.55,48.431 80.635,46.615C80.687,45.5 80.736,44.815 80.777,44.567C81.117,42.443 80.963,40.432 80.983,36.844C80.983,36.65 81.02,36.455 81.093,36.273C83.387,30.536 87.762,27.621 93.36,25.509C96.15,24.459 99.097,23.316 102.198,22.08C104.424,21.196 106.662,20.636 108.912,20.401C109.69,20.32 111.393,20.255 114.024,20.203C116.334,20.158 118.025,19.984 119.095,19.676C121.289,19.047 123.267,17.993 125.038,16.522C127.982,14.069 129.66,12.678 130.074,12.346C133.702,9.439 137.513,7.003 141.502,5.041C146.484,2.588 152.817,0.727 158.058,0.415C160.463,0.273 162.011,0.155 162.7,0.062C163.272,-0.015 163.779,-0.019 164.221,0.042C165.36,0.2 166.572,0.293 167.865,0.322C169.231,0.354 170.444,0.447 171.51,0.601C176.488,1.331 180.741,2.251 184.264,3.358C192.842,6.058 200.865,9.447 208.337,13.53C210.534,14.73 213.392,17.584 214.255,20.308C214.624,21.472 214.811,22.205 214.823,22.513C214.855,23.422 214.949,24.139 215.099,24.662C215.139,24.8 215.135,24.946 215.095,25.08C214.75,26.166 214.924,27.488 214.612,28.639C212.018,38.15 203.354,45.451 194.46,48.97C193.734,49.258 192.299,50.32 190.162,52.16Z" style="fill:white;fill-opacity:0.35;fill-rule:nonzero;"/>
    <path d="M167.529,37.838C167.873,38.604 168.23,39.362 168.607,40.112C169.077,41.048 169.438,41.807 169.685,42.39C173.46,51.183 176.662,60.325 179.293,69.816C180.583,74.47 181.681,79.529 182.589,84.99C183.412,89.92 183.789,94.48 183.725,98.676C183.696,100.33 182.97,101.336 181.548,101.693C180.656,101.916 179.889,101.94 179.253,101.774C177.725,101.372 176.302,101.052 174.98,100.813C174.834,100.784 174.688,100.784 174.546,100.813C170.958,101.482 169.876,106.265 170.123,109.33C170.314,111.722 170.638,114.138 171.092,116.583C169.588,116.449 168.214,116.611 166.961,117.074C165.323,117.682 163.681,119.441 164.5,121.245C164.881,122.092 166.458,122.717 167.164,122.721C169.167,122.737 170.971,122.842 172.576,123.037C173.139,125.417 173.302,127.736 173.058,129.994C172.803,132.365 172.467,134.631 171.765,136.869C171.558,137.53 171.088,138.487 170.354,139.736C169.021,142.01 167.452,144.288 165.656,146.567C165.441,146.838 165.08,146.948 164.748,146.838C163.835,146.538 162.907,146.554 161.954,146.883L155.436,145.902C153.21,145.294 151.045,144.722 148.945,144.187C145.917,143.413 143.772,142.776 142.519,142.269C138.088,140.481 134.042,137.976 130.378,134.753C129.875,134.311 129.08,133.618 127.994,132.677C126.725,131.579 125.934,130.886 125.622,130.598C124.187,129.276 123.003,128.234 122.067,127.476C120.79,126.438 118.284,124.241 114.551,120.884C113.736,120.151 112.909,119.392 112.062,118.602C113.31,117.487 114.275,116.384 114.956,115.298C117.782,110.794 119.626,105.88 120.49,100.561C120.798,98.672 121.066,96.507 119.857,95.003C116.026,90.224 114.202,85.136 114.389,79.74C114.595,73.756 118.953,68.725 125.371,69.945C126.895,70.237 127.933,70.906 129.421,71.466C130.779,71.977 132.992,72.459 134.347,71.993C138.826,70.456 141.725,65.579 142.99,61.136C144.396,56.202 144.628,51.208 145.211,46.035C145.621,42.427 147.125,39.447 150.619,37.842C151.706,37.343 152.829,37.031 153.984,36.909C158.496,36.435 163.008,36.747 167.529,37.838ZM173.577,61.477C173.569,61.087 173.119,60.881 172.819,61.124C169.284,63.974 165.952,66.305 161.472,67.339C160.414,67.582 159.575,67.432 158.646,68.251C158.31,68.547 158.322,69.09 158.675,69.427C159.425,70.152 160.377,70.395 161.541,70.164C165.814,69.317 169.499,67.197 172.596,63.796C173.265,63.062 173.589,62.291 173.577,61.477ZM169.985,78.917C169.329,81.11 168.984,85.347 171.112,86.912C171.98,87.548 172.998,86.202 173.257,85.525C174.149,83.186 174.161,80.802 173.298,78.37C173.245,78.22 173.342,78.054 173.5,78.025C174.461,77.843 175.215,77.445 175.762,76.829C175.977,76.586 175.961,76.229 175.726,76.059C175.669,76.018 175.576,76.014 175.446,76.043C172.896,76.671 170.127,76.991 167.144,77.012C164.76,77.028 161.504,77.656 160.775,80.332C160.722,80.514 160.852,80.701 161.042,80.721C161.513,80.77 161.979,80.656 162.441,80.381C163.45,79.785 164.31,79.371 165.019,79.148C165.113,79.12 165.202,79.099 165.295,79.095L169.823,78.718C169.933,78.71 170.018,78.812 169.985,78.917Z" style="fill:white;fill-opacity:0.85;fill-rule:nonzero;"/>
    <path d="M189.595,51.35L190.162,52.16C191.172,55.935 192.238,59.94 192.688,63.589C192.964,65.851 193.166,67.793 193.292,69.41C193.308,69.609 193.114,69.759 192.923,69.694C190.045,68.697 188.026,66.216 186.039,63.524C185.772,63.159 185.204,63.248 185.054,63.674L184.969,63.925C184.827,64.331 184.86,64.777 185.062,65.158C186.789,68.421 189.376,71.089 193.081,71.778C193.154,71.79 193.207,71.855 193.207,71.932L193.207,81.836C193.207,81.925 193.097,81.966 193.041,81.897C192.08,80.762 190.479,80.526 189.124,79.926C188.208,79.521 187.385,78.986 186.656,78.321C186.445,78.131 186.108,78.244 186.06,78.52C185.881,79.545 187.985,80.806 188.756,81.106C188.849,81.143 188.893,81.252 188.845,81.341C188.111,82.748 187.864,84.309 188.103,86.028C188.22,86.891 188.48,87.58 188.881,88.095C189.169,88.468 189.635,88.602 189.972,88.408C191.638,87.435 191.439,83.778 191.001,82.245C190.953,82.079 191.115,81.929 191.277,81.986L191.447,82.043C191.743,82.144 191.979,82.379 192.084,82.675C192.291,83.263 192.595,83.551 192.996,83.535C193.15,83.526 193.28,83.66 193.268,83.814C192.684,93.524 192.27,99.305 192.031,101.149C191.099,108.309 190.523,112.565 190.3,113.915C189.793,116.996 188.983,120.503 187.86,124.432C186.672,126.54 185.979,128.084 185.78,129.069C185.557,130.196 185.354,130.934 185.176,131.287C184.154,133.277 183.343,135.317 182.131,137.234C180.631,139.606 178.823,141.852 176.711,143.968C174.749,145.723 172.377,146.777 169.592,147.126C167.188,147.43 164.642,147.349 161.954,146.883C162.907,146.554 163.835,146.538 164.748,146.838C165.08,146.948 165.441,146.838 165.656,146.567C167.452,144.288 169.021,142.01 170.354,139.736C171.088,138.487 171.558,137.53 171.765,136.869C172.467,134.631 172.803,132.365 173.058,129.994C173.302,127.736 173.139,125.417 172.576,123.037C175.065,123.552 177.36,123.791 179.456,123.746C179.577,123.742 179.699,123.718 179.812,123.673C181.576,122.956 181.681,121.006 180.489,119.709C179.062,118.156 177.283,117.175 175.146,116.765C173.496,116.449 172.146,116.388 171.092,116.583C170.638,114.138 170.314,111.722 170.123,109.33C169.876,106.265 170.958,101.482 174.546,100.813C174.688,100.784 174.834,100.784 174.98,100.813C176.302,101.052 177.725,101.372 179.253,101.774C179.889,101.94 180.656,101.916 181.548,101.693C182.97,101.336 183.696,100.33 183.725,98.676C183.789,94.48 183.412,89.92 182.589,84.99C181.681,79.529 180.583,74.47 179.293,69.816C176.662,60.325 173.46,51.183 169.685,42.39C169.438,41.807 169.077,41.048 168.607,40.112C168.23,39.362 167.873,38.604 167.529,37.838C170.569,38.555 173.598,39.516 176.614,40.72C182.492,42.411 186.818,45.954 189.595,51.35Z" style="fill:white;fill-opacity:0.75;"/>
    <path d="M173.577,61.477C173.589,62.291 173.265,63.062 172.596,63.796C169.499,67.197 165.814,69.317 161.541,70.164C160.377,70.395 159.425,70.152 158.675,69.427C158.322,69.09 158.31,68.547 158.646,68.251C159.575,67.432 160.414,67.582 161.472,67.339C165.952,66.305 169.284,63.974 172.819,61.124C173.119,60.881 173.569,61.087 173.577,61.477Z" style="fill:white;fill-opacity:0.15;fill-rule:nonzero;"/>
    <path d="M274.077,88.712L272.248,66.568C272.24,66.463 272.337,66.382 272.443,66.406L282.675,69.009C282.768,69.033 282.817,69.131 282.776,69.22L274.372,88.76C274.312,88.906 274.093,88.874 274.077,88.712Z" style="fill:white;fill-opacity:0.95;fill-rule:nonzero;"/>
    <path d="M262.559,92.097L250.535,77.405C250.47,77.324 250.502,77.206 250.596,77.17L258.87,74.072C258.955,74.04 259.048,74.093 259.069,74.182L262.823,91.971C262.855,92.125 262.656,92.218 262.559,92.097Z" style="fill:white;fill-opacity:0.95;fill-rule:nonzero;"/>
    <path d="M169.985,78.917C170.018,78.812 169.933,78.71 169.823,78.718L165.295,79.095C165.202,79.099 165.113,79.12 165.019,79.148C164.31,79.371 163.45,79.785 162.441,80.381C161.979,80.656 161.513,80.77 161.042,80.721C160.852,80.701 160.722,80.514 160.775,80.332C161.504,77.656 164.76,77.028 167.144,77.012C170.127,76.991 172.896,76.671 175.446,76.043C175.576,76.014 175.669,76.018 175.726,76.059C175.961,76.229 175.977,76.586 175.762,76.829C175.215,77.445 174.461,77.843 173.5,78.025C173.342,78.054 173.245,78.22 173.298,78.37C174.161,80.802 174.149,83.186 173.257,85.525C172.998,86.202 171.98,87.548 171.112,86.912C168.984,85.347 169.329,81.11 169.985,78.917Z" style="fill:white;fill-opacity:0.15;fill-rule:nonzero;"/>
    <path d="M281.605,96.268L293.499,82.849C293.58,82.76 293.722,82.772 293.783,82.878L298.04,90.248C298.093,90.341 298.048,90.459 297.947,90.499L281.795,96.544C281.625,96.609 281.483,96.402 281.605,96.268Z" style="fill:white;fill-opacity:0.95;fill-rule:nonzero;"/>
    <path d="M272.897,109.188C269.528,107.636 265.944,106.72 262.15,106.432C263.455,103.022 265.332,99.357 268.024,96.816C269.646,95.287 271.433,94.582 273.071,96.455C273.691,97.164 274.097,98.028 274.287,99.053C274.936,102.536 274.474,105.917 272.897,109.188Z" style="fill:white;fill-opacity:0.75;fill-rule:nonzero;"/>
    <path d="M259.101,110.413C258.959,110.567 258.797,110.542 258.615,110.336C258.436,110.137 258.108,110.307 258.169,110.567L258.996,114.021C258.383,113.765 256.9,113.072 254.544,111.949C252.789,111.11 250.304,109.067 252.704,107.101C253.794,106.205 254.779,105.507 255.651,105.001C255.996,104.802 256.433,104.94 256.608,105.297L259.101,110.413Z" style="fill:white;fill-opacity:0.95;fill-rule:nonzero;"/>
    <path d="M262.15,106.432C265.944,106.72 269.528,107.636 272.897,109.188C273.7,109.606 273.931,110.397 273.586,111.56C271.879,117.345 270.639,121.46 269.868,123.9C268.689,125.137 267.979,124.74 266.585,124.513C263.479,124.006 260.427,123.276 257.427,122.332C257.159,121.861 257.029,121.48 257.037,121.188C257.05,120.601 257.236,119.903 257.597,119.088L259.579,115.249C259.673,115.075 259.737,114.888 259.782,114.698C260.054,113.478 260.09,112.286 259.896,111.122L262.15,106.432ZM261.383,109.963C261.319,109.995 261.323,110.088 261.387,110.117C264.497,111.536 268.081,113.064 271.498,113.319C271.664,113.332 271.77,113.149 271.681,113.007C271.579,112.849 271.429,112.736 271.235,112.675C268.964,111.974 266.317,111.049 263.293,109.902C262.616,109.647 261.979,109.667 261.383,109.963ZM268.097,116.113L261.797,114.175C261.777,114.171 261.748,114.183 261.744,114.207L261.736,114.219C261.614,114.617 262.904,115.367 264.619,115.894L264.805,115.951C266.516,116.478 268.004,116.583 268.125,116.186L268.129,116.169C268.137,116.145 268.121,116.121 268.097,116.113ZM269.191,119.534L260.252,117.811C260.224,117.807 260.196,117.824 260.187,117.852L260.183,117.88C260.078,118.428 261.383,119.137 263.098,119.465L265.932,120.013C267.647,120.341 269.123,120.167 269.228,119.623L269.232,119.595C269.24,119.567 269.22,119.538 269.191,119.534Z" style="fill:white;fill-opacity:0.95;fill-rule:nonzero;"/>
    <path d="M261.383,109.963C261.979,109.667 262.616,109.647 263.293,109.902C266.317,111.049 268.964,111.974 271.235,112.675C271.429,112.736 271.579,112.849 271.681,113.007C271.77,113.149 271.664,113.332 271.498,113.319C268.081,113.064 264.497,111.536 261.387,110.117C261.323,110.088 261.319,109.995 261.383,109.963Z" style="fill:white;fill-opacity:0.75;fill-rule:nonzero;"/>
    <path d="M259.101,110.413C259.373,110.944 259.64,111.183 259.896,111.122C260.09,112.286 260.054,113.478 259.782,114.698C259.737,114.888 259.673,115.075 259.579,115.249L257.597,119.088L257.175,118.659C257.228,117.041 257.787,115.647 258.854,114.479C258.979,114.341 258.846,114.256 258.456,114.228L258.996,114.021L258.169,110.567C258.108,110.307 258.436,110.137 258.615,110.336C258.797,110.542 258.959,110.567 259.101,110.413Z" style="fill:white;fill-opacity:0.75;fill-rule:nonzero;"/>
    <path d="M258.456,114.228C258.846,114.256 258.979,114.341 258.854,114.479C257.787,115.647 257.228,117.041 257.175,118.659C255.392,120.041 253.454,121.115 251.362,121.882C250.661,122.137 250.061,121.942 249.562,121.29C248.621,120.065 247.466,118.201 248.479,116.656C249.156,115.622 250.166,114.99 251.5,114.767C253.806,114.378 256.125,114.199 258.456,114.228Z" style="fill:white;fill-opacity:0.95;fill-rule:nonzero;"/>
    <path d="M268.097,116.113C268.121,116.121 268.137,116.145 268.129,116.169L268.125,116.186C268.004,116.583 266.516,116.478 264.805,115.951L264.619,115.894C262.904,115.367 261.614,114.617 261.736,114.219L261.744,114.207C261.748,114.183 261.777,114.171 261.797,114.175L268.097,116.113Z" style="fill:white;fill-opacity:0.75;fill-rule:nonzero;"/>
    <path d="M172.576,123.037C170.971,122.842 169.167,122.737 167.164,122.721C166.458,122.717 164.881,122.092 164.5,121.245C163.681,119.441 165.323,117.682 166.961,117.074C168.214,116.611 169.588,116.449 171.092,116.583C172.146,116.388 173.496,116.449 175.146,116.765C177.283,117.175 179.062,118.156 180.489,119.709C181.681,121.006 181.576,122.956 179.812,123.673C179.699,123.718 179.577,123.742 179.456,123.746C177.36,123.791 175.065,123.552 172.576,123.037Z" style="fill:white;fill-opacity:0.15;fill-rule:nonzero;"/>
    <path d="M269.191,119.534C269.22,119.538 269.24,119.567 269.232,119.595L269.228,119.623C269.123,120.167 267.647,120.341 265.932,120.013L263.098,119.465C261.383,119.137 260.078,118.428 260.183,117.88L260.187,117.852C260.196,117.824 260.224,117.807 260.252,117.811L269.191,119.534Z" style="fill:white;fill-opacity:0.75;fill-rule:nonzero;"/>
    <path d="M112.062,118.602C112.909,119.392 113.736,120.151 114.551,120.884C118.284,124.241 120.79,126.438 122.067,127.476C123.003,128.234 124.187,129.276 125.622,130.598C125.934,130.886 126.725,131.579 127.994,132.677C129.08,133.618 129.875,134.311 130.378,134.753C134.042,137.976 138.088,140.481 142.519,142.269C143.772,142.776 145.917,143.413 148.945,144.187C151.045,144.722 153.21,145.294 155.436,145.902C149.548,154.563 151.276,168.247 151.276,168.247C151.54,169.5 151.138,170.518 150.076,171.3C147.98,172.845 145.771,173.68 143.448,173.81C143.582,170.011 143.233,166.841 142.398,164.291C141.51,161.595 140.967,159.531 139.896,157.395C138.478,154.557 137.74,152.891 136.155,150.568C132.145,144.685 127.803,139.298 123.129,134.413C118.747,129.836 113.387,125.336 107.043,120.917C109.045,120.398 110.72,119.628 112.062,118.602Z" style="fill:white;fill-opacity:0.5;fill-rule:nonzero;"/>
    <path d="M107.043,120.917C113.387,125.336 118.747,129.836 123.129,134.413C127.803,139.298 132.145,144.685 136.155,150.568C137.74,152.891 138.478,154.557 139.896,157.395C140.967,159.531 141.51,161.595 142.398,164.291C143.233,166.841 143.582,170.011 143.448,173.81C142.609,174 141.664,174.101 140.606,174.118C137.711,174.154 134.947,173.931 132.315,173.457C127.195,172.533 122.278,171.215 117.563,169.504C112.544,167.688 108.405,164.339 104.278,160.699C103.487,159.998 102.814,159.329 102.259,158.692C100.629,156.819 99.608,155.838 97.577,153.775C96.737,152.923 95.882,152.307 94.986,151.622C94.759,151.448 94.504,151.31 94.232,151.212L91.941,150.406C94.402,147.617 96.867,145.354 98.813,141.933C100.658,138.686 102.17,135.231 103.354,131.575C104.006,129.564 104.136,127.813 104.691,125.834C105.093,124.391 105.129,122.332 105.381,120.588C106.208,120.641 106.763,120.751 107.043,120.917Z" style="fill:white;fill-opacity:0.75;fill-rule:nonzero;"/>
    <path d="M269.868,123.9C272.293,124.01 273.821,125.332 274.454,127.865C274.482,127.987 274.624,128.044 274.729,127.979C277.624,126.219 281.349,127.971 281.759,131.307C281.775,131.453 281.933,131.538 282.067,131.477C283.563,130.792 285.039,130.355 286.66,130.873C288.509,131.469 289.749,132.702 290.386,134.579C290.868,136.006 290.945,137.372 290.617,138.677C290.548,138.953 290.633,139.245 290.844,139.436C294.606,142.869 293.714,149.044 292.166,153.361C289.745,160.111 286.283,166.139 281.775,171.442C280.985,172.37 280.202,173.137 279.424,173.741C279.035,174.045 278.718,174.434 278.495,174.876C273.331,185.274 269.581,196.492 266.581,207.231C264.529,214.565 262.174,223.423 259.51,233.809C258.067,239.436 256.324,245.112 254.005,251.209C252.712,254.598 251.333,258.417 249.862,262.666C249.521,263.659 248.962,264.879 248.37,265.953C244.17,273.599 239.593,280.739 234.635,287.375C232.073,290.809 229.393,293.671 226.592,295.953C223.284,298.653 219.262,300.255 214.993,299.967C211.053,299.703 206.897,298.41 203.374,296.987C198.473,295.005 193.657,292.592 188.934,289.751C181.795,285.449 175.102,280.795 168.85,275.784C168.765,275.716 168.623,275.663 168.421,275.622C168.83,273.729 169.085,271.812 169.183,269.87C169.329,266.914 169.195,263.979 168.777,261.064C168.757,260.931 168.834,260.805 168.956,260.76C170.423,260.233 173.626,258.895 178.56,256.743C181.925,255.279 184.653,252.158 187.296,250.05C189.599,248.213 191.914,246.182 194.241,243.948C196.418,241.856 198.376,239.533 200.111,236.983L204.915,243.859C204.996,243.973 205.17,243.96 205.227,243.831C207.57,238.402 210.335,233.181 213.526,228.158C220.953,216.466 230.021,202.922 237.278,189.786C242.058,181.135 246.144,172.233 249.533,163.075C249.623,162.827 249.619,162.556 249.513,162.312C247.705,158.06 247.79,153.239 248.621,148.739C249.639,143.25 251.074,137.992 252.931,132.969C254.025,130.014 255.379,126.726 256.993,123.098C257.021,123.029 257.098,122.911 257.204,122.765C257.285,122.656 257.358,122.51 257.427,122.332C260.427,123.276 263.479,124.006 266.585,124.513C267.979,124.74 268.689,125.137 269.868,123.9ZM276.541,175.622C276.472,175.626 276.452,175.719 276.513,175.751C276.59,175.792 276.651,175.788 276.687,175.743C276.704,175.723 276.7,175.695 276.679,175.674C276.631,175.634 276.586,175.618 276.541,175.622Z" style="fill:white;fill-opacity:0.75;fill-rule:nonzero;"/>
    <path d="M187.86,124.432C186.956,127.918 185.772,131.198 184.312,134.271C183.048,136.934 181.373,139.452 179.293,141.831C178.511,142.727 177.648,143.441 176.711,143.968C178.823,141.852 180.631,139.606 182.131,137.234C183.343,135.317 184.154,133.277 185.176,131.287C185.354,130.934 185.557,130.196 185.78,129.069C185.979,128.084 186.672,126.54 187.86,124.432Z" style="fill:white;fill-opacity:0.95;fill-rule:nonzero;"/>
    <path d="M91.941,150.406L94.232,151.212C94.504,151.31 94.759,151.448 94.986,151.622C95.882,152.307 96.737,152.923 97.577,153.775C99.608,155.838 100.629,156.819 102.259,158.692C102.814,159.329 103.487,159.998 104.278,160.699C108.405,164.339 112.544,167.688 117.563,169.504C122.278,171.215 127.195,172.533 132.315,173.457C134.947,173.931 137.711,174.154 140.606,174.118C141.664,174.101 142.609,174 143.448,173.81C145.771,173.68 147.98,172.845 150.076,171.3C151.138,170.518 151.54,169.5 151.276,168.247C152.261,168.515 153.279,168.693 154.333,168.783C156.088,168.929 157.118,169.042 157.422,169.127C159.814,169.784 161.849,171.134 163.523,173.181C165.66,175.788 167.541,178.196 169.158,180.405C173.342,186.101 176.302,192.113 180.343,200.392C181.649,203.067 184.025,207.255 186.197,210.616C188.812,214.666 192.096,220.062 196.053,226.812C196.718,227.947 197.172,228.932 197.411,229.771C197.431,229.848 197.468,229.917 197.512,229.978L200.755,234.49C200.991,234.815 201.019,235.244 200.833,235.601L200.111,236.983C198.376,239.533 196.418,241.856 194.241,243.948C191.914,246.182 189.599,248.213 187.296,250.05C184.653,252.158 181.925,255.279 178.56,256.743C173.626,258.895 170.423,260.233 168.956,260.76C168.834,260.805 168.757,260.931 168.777,261.064C169.195,263.979 169.329,266.914 169.183,269.87C169.085,271.812 168.83,273.729 168.421,275.622C168.254,276.417 168.048,277.212 167.792,278.01C166.021,283.593 162.53,287.744 157.321,290.464C151.292,293.614 144.465,294.247 137.805,294.555C116.906,295.528 59.057,297.735 7.954,256.5C5.441,254.472 3.961,252.356 2.125,250.313C1.954,250.127 1.898,249.867 1.966,249.624C6.552,233.923 12.28,218.594 19.147,203.639C20.668,200.327 22.143,197.372 23.566,194.773C27.466,187.658 30.815,182.015 33.608,177.851C36.186,174.008 38.335,171.093 40.05,169.103C42.134,166.691 43.139,165.227 45.227,163.168C45.803,162.6 46.609,161.907 47.647,161.084C57.231,153.503 70.439,148.318 82.832,149.246C84.19,149.352 85.196,149.794 86.643,149.834C87.052,149.846 87.794,150.017 88.86,150.345C89.829,150.641 90.859,150.661 91.941,150.406Z" style="fill:white;fill-opacity:0.95;fill-rule:nonzero;"/>
    <path d="M276.541,175.622C276.586,175.618 276.631,175.634 276.679,175.674C276.7,175.695 276.704,175.723 276.687,175.743C276.651,175.788 276.59,175.792 276.513,175.751C276.452,175.719 276.472,175.626 276.541,175.622Z" style="fill:white;fill-opacity:0.95;fill-rule:nonzero;"/>
</svg>
