<?xml version="1.0" encoding="utf-8"?>
<!-- Generator: Adobe Illustrator 24.1.2, SVG Export Plug-In . SVG Version: 6.00 Build 0)  -->
<svg version="1.1" xmlns="http://www.w3.org/2000/svg" xmlns:xlink="http://www.w3.org/1999/xlink" x="0px" y="0px"
	 viewBox="0 0 300 300" style="enable-background:new 0 0 300 300;" xml:space="preserve">
<style type="text/css">
	.st0{fill:none;}
	.st1{fill:#632F8C;}
	.st2{opacity:0.1;fill:#FFFFFF;enable-background:new    ;}
	.st3{fill:#ECE6EE;}
	.st4{opacity:0.2;fill:#FFFFFF;enable-background:new    ;}
	.st5{opacity:0.3;fill:#FFFFFF;enable-background:new    ;}
	.st6{fill:#FFFFFF;}
	.st7{opacity:0.5;fill:#FFFFFF;enable-background:new    ;}
	.st8{opacity:0.8;fill:#FFFFFF;enable-background:new    ;}
	.st9{opacity:0.6;fill:#FFFFFF;enable-background:new    ;}
	.st10{opacity:0.15;fill:#606161;enable-background:new    ;}
</style>
<g id="Layer_2">
</g>
<g id="Layer_1">
	<path class="st0" d="M194.628,67.953c-0.202,0.162-0.388,0.516-0.559,1C194.264,68.539,194.456,68.209,194.628,67.953z"/>
	<path class="st0" d="M216.322,74.826c-0.52-0.177-0.888,0.046-0.888,0.046S215.839,74.679,216.322,74.826z"/>
	<path class="st0" d="M206.597,71.284c-1.553,0-2.149,0.553-2.365,0.881c-0.076,0.116,0.012,0.268,0.15,0.268
		c0.464-0.003,1.354-0.16,2.214-0.2c0.767-0.036,1.511,0.068,1.914,0.139c0.161,0.028,0.278-0.142,0.198-0.284
		C208.518,71.748,208,71.284,206.597,71.284z"/>
	<path class="st0" d="M206.497,74.327c-0.335,0.034-0.541,0.697-0.462,1.482s0.415,1.393,0.75,1.359s0.541-0.697,0.462-1.482
		S206.832,74.293,206.497,74.327z"/>
	<path class="st0" d="M201.16,72.995c-0.174-0.189-0.53-0.444-1.182-0.531c-0.343-0.045-0.764-0.047-1.293,0.039
		c-1.385,0.224-1.822,0.765-1.957,1.13c-0.057,0.153,0.087,0.303,0.241,0.249c0.387-0.135,1.105-0.356,1.868-0.443
		c0.457-0.052,0.926-0.073,1.335-0.091c0.357-0.016,0.669-0.031,0.883-0.064C201.191,73.262,201.253,73.097,201.16,72.995z"/>
	<path class="st0" d="M199.811,75.169c-0.337,0.034-0.546,0.698-0.466,1.482c0.079,0.784,0.417,1.393,0.754,1.359
		c0.337-0.034,0.546-0.698,0.466-1.482C200.486,75.743,200.148,75.135,199.811,75.169z"/>
	<path class="st0" d="M221.497,247.683c0.239-0.081,0.474-0.171,0.705-0.266C221.971,247.512,221.737,247.602,221.497,247.683z"/>
	<path class="st0" d="M208.372,84.699c-0.76-1.428-1.735-0.227-2.901,0.073c-0.154,0.039-0.31,0.065-0.47,0.065
		c0,0-1.342-0.034-1.961-0.447c-0.166-0.111-0.347-0.225-0.522-0.3c-0.478-0.204-0.913-0.105-0.888,1.229
		c0.021,1.125,0.672,1.777,1.603,2.08c0.578,0.188,1.263,0.243,1.975,0.19c0.024-0.002,0.048-0.006,0.072-0.008
		C207.12,87.42,209.221,86.295,208.372,84.699z"/>
	<path class="st0" d="M190.732,148.501c0,0-0.911-3.741-1.526-10.538c-8.113,12.572-19.223,16.014-23.241,16.876v79.482h21.014
		l-0.685-36.174L190.732,148.501z"/>
	<path class="st0" d="M42.211,33.33v62.964c3.752-3.77,13.61-1.184,13.61-1.184s1.185-3.411,1.365-5.479
		c0.063-0.72-0.193-1.683-0.614-3.132c-0.096-0.036-0.15-0.061-0.15-0.061c-3.552-6.745-4.362-8.409-4.677-16.234
		s5.351-9.219,11.512-10.433c6.161-1.214,15.2-0.54,15.604,3.013c0.405,3.553-2.631,3.732-2.631,3.732
		c-0.409-0.497-0.848-0.89-1.317-1.199c0.217,0.263,0.431,0.555,0.641,0.879c1.127,1.422,1.899,3.453,2.4,5.734
		c-0.07-0.05-0.147-0.092-0.229-0.126c-0.111-0.046-0.23-0.078-0.35-0.09c-0.518-0.044-1.056,0.146-1.217,0.662
		c-0.003,0.011-0.006,0.024-0.006,0.036c-0.001,0.07,0.055,0.126,0.125,0.127h0.027c0.469,0.004,0.727-0.18,1.035-0.182
		c0.148-0.006,0.299,0.015,0.454,0.083c0.025,0.009,0.05,0.026,0.075,0.037c0.073,0.033,0.148,0.072,0.223,0.119
		c0.12,0.621,0.221,1.256,0.306,1.899c-0.062-0.041-0.13-0.073-0.202-0.093c-0.064-0.018-0.13-0.031-0.196-0.033
		c-0.218-0.011-0.426,0.071-0.601,0.172c-0.182,0.099-0.332,0.236-0.467,0.381c-0.138,0.143-0.243,0.311-0.351,0.473
		c-0.008,0.014-0.007,0.034,0.006,0.045c0.014,0.012,0.036,0.011,0.048-0.003c0.133-0.139,0.273-0.269,0.413-0.394
		c0.073-0.062,0.148-0.12,0.224-0.174c-0.093,0.196-0.151,0.457-0.151,0.746c0,0.604,0.248,1.094,0.555,1.094
		c0.306,0,0.555-0.49,0.555-1.094c0-0.454-0.14-0.843-0.34-1.009c0.036-0.005,0.073-0.015,0.109-0.018
		c0.074,0,0.15,0.008,0.225,0.021c0.137,1.004,0.247,2.092,0.324,3.276c0.982,15.123-6.013,13.814-7.804,13.239
		c-0.26-0.084-0.411-0.152-0.411-0.152l-0.075,0.271l-1.664,6.025c0.008-0.001,0.016-0.001,0.024-0.002
		c7.204-0.666,10.966,1.271,12.641,4.792c3.582,7.527,4.243,15.176,4.243,15.176c-0.44,0.44-1.333,0.736-2.362,0.937
		c-0.29,6.524-1.565,22.976-7.083,31.493l3.508,43.118l-1.529,38.853l-1.709,1.439l0.751,1.246h18.646V47.914L42.211,33.33z"/>
	<path class="st0" d="M219.477,248.102c-0.211,0.012-0.421,0.012-0.629-0.001C219.056,248.114,219.266,248.114,219.477,248.102z"/>
	<path class="st0" d="M221.244,247.764c0.042-0.013,0.085-0.023,0.127-0.036C221.33,247.741,221.287,247.751,221.244,247.764z"/>
	<path class="st0" d="M219.545,248.095c0.328-0.022,0.658-0.075,0.987-0.146C220.204,248.021,219.874,248.073,219.545,248.095z"/>
	<path class="st0" d="M224.563,246.174c0.028-0.018,0.057-0.036,0.084-0.053C224.619,246.138,224.59,246.156,224.563,246.174z"/>
	<path class="st0" d="M200.752,99.107c0.305-0.051,1.072-0.155,1.837-0.426c-0.653,0.182-1.337,0.335-2.052,0.457
		C200.634,99.125,200.708,99.114,200.752,99.107z"/>
	<path class="st0" d="M220.017,154.951v-4.163C219.99,151.973,219.992,153.377,220.017,154.951z"/>
	<path class="st0" d="M75.607,144.148l0.428,5.266l0.245-8.771C75.903,142.839,75.607,144.148,75.607,144.148z"/>
	<path class="st0" d="M71.05,74.138c-0.343-0.111-0.721-0.184-1.101-0.132c-0.375,0.058-0.75,0.227-0.964,0.579
		c-0.013,0.022-0.019,0.048-0.015,0.075c0.009,0.062,0.067,0.105,0.129,0.096l0.03-0.004c0.318-0.047,0.602-0.074,0.882-0.082
		c0.281-0.011,0.57,0.013,0.86,0.088c0.018,0.004,0.036,0.012,0.055,0.017c-0.124,0.201-0.204,0.501-0.204,0.841
		c0,0.604,0.248,1.094,0.555,1.094c0.306,0,0.555-0.49,0.555-1.094c0-0.201-0.029-0.386-0.077-0.548l0.42,0.202
		c0.141,0.079,0.288,0.153,0.44,0.224l0.007,0.003c0.035,0.016,0.078,0.012,0.11-0.015c0.043-0.037,0.048-0.101,0.011-0.144
		c-0.111-0.129-0.227-0.256-0.349-0.378c-0.126-0.117-0.263-0.224-0.398-0.333C71.706,74.432,71.399,74.248,71.05,74.138z"/>
	<path class="st0" d="M71.595,84.601c-0.159-0.047-0.314-0.103-0.464-0.175l-0.457-0.2l-0.437-0.247
		c-0.15-0.076-0.293-0.165-0.427-0.268l-0.421-0.286c-0.272-0.204-0.522-0.437-0.798-0.648l-0.01-0.008
		c-0.036-0.028-0.089-0.028-0.125,0.003c-0.042,0.036-0.048,0.099-0.012,0.141c0.226,0.268,0.453,0.541,0.702,0.794
		c0.267,0.232,0.511,0.501,0.817,0.692c0.571,0.44,1.243,0.742,1.936,0.964c0.188,0.057,0.379,0.102,0.572,0.14
		c0.525,0.101,1.065,0.13,1.597,0.086c0.726-0.07,1.441-0.284,2.04-0.719c0.034-0.025,0.052-0.068,0.043-0.111
		c-0.012-0.06-0.07-0.099-0.13-0.087l-0.012,0.002c-0.668,0.133-1.329,0.228-1.986,0.251c-0.495,0.018-0.994,0.003-1.483-0.08
		c-0.158-0.027-0.315-0.061-0.47-0.104C71.906,84.715,71.754,84.647,71.595,84.601z"/>
	<path class="st0" d="M226.013,245.145c0,0-0.089,0.072-0.237,0.185C225.925,245.217,226.013,245.145,226.013,245.145
		L226.013,245.145z"/>
	<path class="st0" d="M68.574,72.742l0.007-0.003c0.152-0.071,0.299-0.145,0.44-0.224l0.433-0.208
		c0.292-0.119,0.578-0.241,0.87-0.304c0.289-0.075,0.579-0.099,0.86-0.088c0.28,0.009,0.564,0.036,0.882,0.083l0.03,0.004
		c0.025,0.004,0.052-0.001,0.075-0.015c0.053-0.033,0.07-0.102,0.038-0.156c-0.214-0.352-0.589-0.521-0.964-0.579
		c-0.38-0.052-0.757,0.021-1.101,0.132c-0.349,0.109-0.656,0.293-0.944,0.489c-0.136,0.11-0.272,0.216-0.398,0.333
		c-0.122,0.122-0.238,0.249-0.349,0.378c-0.025,0.03-0.032,0.072-0.015,0.11C68.463,72.744,68.523,72.766,68.574,72.742z"/>
	<polygon class="st0" points="202.364,168.767 201.914,179.045 202.608,175.328 	"/>
	<path class="st0" d="M62.054,220.903l-1.526-12.902c-0.707,3.505-3.756,18.63-5.289,26.32h9.668
		c-0.549-0.247-1.202-0.527-1.352-0.527C63.423,233.794,62.728,227.409,62.054,220.903z"/>
	<polygon class="st0" points="203.74,234.321 210.046,234.321 205.988,215.076 	"/>
	<path class="st1" d="M180.128,252.554c0.569-0.161,1.346-0.395,2.265-0.705L180.128,252.554z"/>
	<path class="st2" d="M226.013,245.145L226.013,245.145L226.013,245.145z"/>
	<path class="st3" d="M58.375,86.726c2.941,1.82,7.157,8.709,9.948,11.629c0.091-0.343,0.19-0.709,0.294-1.088
		c-0.008,0.001-0.016,0.001-0.024,0.002l1.664-6.025c-4.775-0.297-9.029-3.869-10.515-5.26
		C59.344,86.444,58.855,86.654,58.375,86.726z"/>
	<path class="st3" d="M78.395,74.497c-0.084-0.644-0.186-1.279-0.306-1.899c-0.075-0.047-0.15-0.085-0.223-0.119
		c0.121,0.603,0.23,1.244,0.326,1.925C78.265,74.424,78.333,74.456,78.395,74.497z"/>
	<path class="st3" d="M77.953,71.931c-0.501-2.281-1.273-4.312-2.4-5.734c0.838,1.293,1.606,3.095,2.171,5.607
		C77.806,71.838,77.882,71.881,77.953,71.931z"/>
	<path class="st3" d="M74.234,64.942c-1.149-0.546-2.455-0.701-3.905-0.713c0.027,0.035,3.408,4.47,4.17,7.801
		c0.764,3.345,3.328,6.268,1.934,7.077c-1.394,0.809-3.642,0.54-3.822,2.248c-0.115,1.092,0.006,2.316-0.071,3.49
		c0.489,0.084,0.988,0.098,1.483,0.08c0.656-0.023,1.318-0.117,1.986-0.251l0.012-0.002c0.06-0.012,0.118,0.027,0.13,0.087
		c0.009,0.044-0.01,0.087-0.043,0.111c-0.599,0.435-1.313,0.649-2.04,0.719c-0.531,0.044-1.072,0.015-1.597-0.086
		c-0.064,0.433-0.165,0.855-0.333,1.254c-0.63,1.5-1.277,3.917-1.396,4.366c1.791,0.576,8.785,1.884,7.804-13.239
		c-0.077-1.184-0.187-2.271-0.324-3.276c-0.075-0.013-0.151-0.022-0.225-0.021c-0.036,0.003-0.072,0.012-0.109,0.018
		c0.2,0.166,0.34,0.555,0.34,1.009c0,0.604-0.248,1.094-0.555,1.094c-0.306,0-0.555-0.49-0.555-1.094
		c0-0.289,0.058-0.55,0.151-0.746c-0.077,0.054-0.152,0.112-0.224,0.174c-0.139,0.126-0.279,0.255-0.413,0.394
		c-0.012,0.014-0.034,0.016-0.048,0.003c-0.013-0.011-0.014-0.031-0.006-0.045c0.108-0.162,0.213-0.33,0.351-0.473
		c0.135-0.145,0.285-0.283,0.467-0.381c0.176-0.101,0.383-0.184,0.601-0.172c0.067,0.002,0.132,0.015,0.196,0.033
		c-0.097-0.681-0.206-1.322-0.326-1.925c-0.025-0.011-0.05-0.028-0.075-0.037c-0.155-0.069-0.306-0.09-0.454-0.083
		c-0.308,0.002-0.566,0.186-1.035,0.182h-0.027c-0.069-0.001-0.125-0.057-0.125-0.127c0-0.012,0.002-0.025,0.006-0.036
		c0.161-0.516,0.699-0.705,1.217-0.662c0.12,0.012,0.239,0.044,0.35,0.09c-0.565-2.512-1.333-4.315-2.171-5.607
		C75.158,65.698,74.72,65.275,74.234,64.942z"/>
	<path class="st4" d="M194.628,67.953c0.049-0.039,0.099-0.071,0.149-0.087c1.304-0.407,1.242,2.213,4.531,1.537
		c0.341-0.07,0.717-0.175,1.135-0.323c0.316-0.112,0.618-0.241,0.91-0.381c3.813-1.826,5.667-5.736,9.343-3.981
		c3.645,1.739,4.706,5.644,4.746,9.237c0.003,0.308,0.002,0.615-0.009,0.917c0,0,0.368-0.223,0.888-0.046
		c0.055,0.017,0.111,0.038,0.167,0.064c0.003,0.002,0.006,0.003,0.009,0.004c0.088,0.042,0.178,0.095,0.267,0.166c0,0,0,0,0.001,0
		c0,0,0.227-4.497,0.721-5.711c0.495-1.214,2.383-2.608,0.225-6.296c0,0-0.675-1.349-4.227-1.439c0,0-0.944,0.315-2.473-1.979
		c-1.529-2.293-4.407-7.959-10.568-5.126s-6.88,7.78-6.655,8.724c0.225,0.944-3.912,1.439-3.508,5.891
		c0.405,4.452,2.338,9.443,2.338,9.443s0.023-0.32,0.067-0.843c0.163-1.92,0.624-6.625,1.383-8.773
		C194.24,68.469,194.426,68.115,194.628,67.953z"/>
	<polygon class="st5" points="100.31,234.321 100.31,49.066 95.724,47.914 95.724,234.321 95.724,240.936 100.25,240.936 
		100.31,240.936 	"/>
	<polygon class="st5" points="33.037,269.746 33.037,234.321 33.037,23.437 28.96,23.437 28.96,239.471 28.96,269.746 	"/>
	<path class="st6" d="M72.47,85.505c-0.193-0.037-0.384-0.082-0.572-0.14c-0.692-0.222-1.365-0.524-1.936-0.964
		c-0.305-0.191-0.549-0.46-0.817-0.692c-0.249-0.253-0.477-0.526-0.702-0.794c-0.036-0.042-0.03-0.106,0.012-0.141
		c0.037-0.031,0.089-0.031,0.125-0.003l0.01,0.008c0.276,0.211,0.527,0.443,0.798,0.648l0.421,0.286
		c0.134,0.103,0.277,0.192,0.427,0.268l0.437,0.247l0.457,0.2c0.15,0.071,0.305,0.128,0.464,0.175
		c0.159,0.046,0.31,0.114,0.473,0.142c0.155,0.043,0.312,0.077,0.47,0.104c0.077-1.174-0.044-2.399,0.071-3.49
		c0.18-1.709,2.428-1.439,3.822-2.248s-1.169-3.732-1.934-7.077c-0.761-3.332-4.143-7.766-4.17-7.801
		c-0.975-0.008-2.014,0.045-3.115,0.084c-3.777,0.135-2.563,4.902-2.698,7.717c-0.135,2.816-2.024,2.086-2.024,2.086
		s-0.674-2.383-3.148-0.27c-2.473,2.114,0.54,5.936,0.54,5.936s1.214,0.27,0.63,4.268c-0.132,0.904-0.415,1.52-0.772,1.934
		c1.486,1.391,5.74,4.963,10.515,5.26l0.075-0.271c0,0,0.151,0.068,0.411,0.152c0.118-0.449,0.765-2.866,1.396-4.366
		C72.305,86.36,72.407,85.938,72.47,85.505z M72.742,75.339c0.037,0.043,0.032,0.107-0.011,0.144
		c-0.031,0.027-0.075,0.031-0.11,0.015l-0.007-0.003c-0.152-0.071-0.299-0.145-0.44-0.224l-0.42-0.202
		c0.048,0.162,0.077,0.347,0.077,0.548c0,0.604-0.248,1.094-0.555,1.094c-0.306,0-0.555-0.49-0.555-1.094
		c0-0.34,0.08-0.641,0.204-0.841c-0.018-0.004-0.036-0.013-0.055-0.017c-0.289-0.075-0.579-0.099-0.86-0.088
		c-0.28,0.008-0.564,0.036-0.882,0.082l-0.03,0.004c-0.062,0.009-0.119-0.034-0.129-0.096c-0.004-0.027,0.002-0.054,0.015-0.075
		c0.214-0.351,0.589-0.521,0.964-0.579c0.38-0.052,0.757,0.021,1.101,0.132c0.349,0.109,0.656,0.293,0.944,0.49
		c0.136,0.11,0.273,0.216,0.398,0.333C72.515,75.083,72.631,75.21,72.742,75.339z M68.454,72.584
		c0.111-0.129,0.227-0.256,0.349-0.378c0.126-0.117,0.263-0.224,0.398-0.333c0.288-0.196,0.595-0.38,0.944-0.489
		c0.344-0.111,0.721-0.184,1.101-0.132c0.375,0.058,0.75,0.227,0.964,0.579c0.033,0.053,0.016,0.123-0.038,0.156
		c-0.023,0.014-0.05,0.019-0.075,0.015l-0.03-0.004c-0.318-0.047-0.602-0.074-0.882-0.083c-0.281-0.011-0.57,0.013-0.86,0.088
		c-0.292,0.063-0.578,0.185-0.87,0.304l-0.433,0.208c-0.141,0.079-0.288,0.153-0.44,0.224l-0.007,0.003
		c-0.051,0.024-0.112,0.002-0.136-0.049C68.421,72.656,68.428,72.613,68.454,72.584z"/>
	<path class="st6" d="M75.553,66.197c-0.21-0.324-0.424-0.617-0.641-0.879c-0.219-0.144-0.447-0.265-0.679-0.375
		C74.72,65.275,75.158,65.698,75.553,66.197z"/>
	<path class="st2" d="M257.757,234.321h-28.859c0.55,3.943,0.916,6.642,0.923,6.705c0.037,0.301-0.777,0.847-1.435,1.13
		c-0.656,0.308-2.637,1.208-2.637,1.208l0.265,1.78l0,0c0.056,0.219,0.094,0.399,0.094,0.489c0,0.36,0.719,2.638,0.24,4.197
		s0.6,6.955,0.6,10.193s2.758,7.795-6.535,8.394c-9.294,0.6-5.936-8.994-5.936-8.994l-0.48-12.231l-0.36-3.238h-1.559l-2.031-9.634
		h-6.306l-0.426,3.647l-2.038,1.559c0,0-0.465,1.694-0.195,2.818c0.27,1.124,1.079,7.15-2.114,7.69
		c-3.193,0.54-3.328,0.315-4.677,0.854c-1.345,0.538-9.922,5.639-15.143,1.97l-0.287,0.089c0,0-3.478-7.315,6.475-9.354l4.797-5.636
		l-3.118-1.799l-0.035-1.839h-21.014v23.314h-10.433l-51.085-17.808v-0.498l-4.137,1.637l-0.06-0.03h-4.527v-6.615H77.078
		l2.936,4.87c9.337,1.424,7.675,7.163,7.141,8.522l0.115,0.029c0,0,0.06,2.09-5.717,1.272c-1.105-0.156-2.422-0.418-3.996-0.822
		l-4.044-1.492l-3.046-1.124l-0.466-0.172c0,0-0.159,0.057-0.415,0.109c-1.283,0.262-5.057,0.404-4.082-7.394l-0.18-3.598
		l-0.05-0.032c-0.111-0.051-0.236-0.108-0.367-0.167h-9.668c-0.514,2.58-0.858,4.325-0.885,4.51
		c-0.117,0.809-2.131,0.989-2.131,0.989c-1.08,2.201,0.45,19.157,0.45,19.157c-0.376,5.715-7.98,4.263-10.462,3.633v4.198
		l-9.174,2.938H28.96V239.47L0,276.052c0-1.199,300,0.512,300,0.512L257.757,234.321z"/>
	<path class="st6" d="M42.211,241.446v21.164c2.483,0.63,10.086,2.082,10.462-3.633c0,0-1.065-11.974-0.788-17.077l-0.002,0.008
		C51.883,241.908,47.337,245.628,42.211,241.446z"/>
	<path class="st6" d="M80.014,239.19l-2.936-4.87l-0.751-1.246l1.709-1.439l1.529-38.853l-3.508-43.118l-0.02-0.25l-0.428-5.266
		c0,0,0.296-1.309,0.674-3.505c0.802-4.657,1.974-13.32,1.485-22.06c0,0,3.035,0.043,5.373-0.413c1.028-0.2,1.922-0.497,2.362-0.937
		c0,0-0.661-7.648-4.243-15.176c-1.675-3.521-5.438-5.459-12.641-4.792c-0.104,0.379-0.203,0.746-0.294,1.088
		c-2.79-2.92-7.007-9.809-9.948-11.629c-0.76,0.114-1.496-0.112-1.804-0.227c0.421,1.449,0.677,2.412,0.614,3.132
		c-0.18,2.069-1.365,5.479-1.365,5.479s-9.858-2.586-13.61,1.184v24.366c0,0.18,4.677,0,4.677,0s-0.565,1.114-1.147,2.995
		l0.665,25.773c0.159,0.689,0.321,1.218,0.483,1.541c0.899,1.799,1.979,0.899,2.968,2.338s3.687,4.047,2.878,5.216
		c-0.809,1.169-3.688-1.979-4.407-1.529c-0.666,0.416-1.101,3.224,2.124,6.351c0.436,0.423,0.345,1.156-0.179,1.463
		c-0.829,0.485-2.079,1.029-3.444,0.966l0.405,15.713c0,0-0.824,16.069-1.064,16.549c-0.182,0.365-2.744,11.633-3.957,16.998v19.287
		v4.652c0,0,1.133,2.117,10.011,0.851c0-0.001,0.001-0.002,0.001-0.003c0,0,2.014-0.18,2.131-0.989
		c0.027-0.185,0.371-1.93,0.885-4.51c1.533-7.69,4.582-22.815,5.289-26.32l-0.15-1.271L62.18,162.3
		c-0.09-7.375,7.413,37.234,7.413,37.234v34.786v0.649h2.21c0,0-0.09,5.037,0,5.306c0.09,0.27,8.004,5.576,8.004,5.576l7.35,1.86
		C87.689,246.353,89.351,240.614,80.014,239.19z"/>
	<path class="st6" d="M216.489,74.89c-0.056-0.026-0.112-0.048-0.167-0.064c-0.483-0.147-0.888,0.046-0.888,0.046
		c0.011-0.302,0.012-0.609,0.009-0.917c-0.04-3.592-1.102-7.497-4.746-9.237c-3.676-1.754-5.53,2.155-9.343,3.981
		c0.709,0.782,1.56,1.944,1.665,3.214c0.18,2.158-0.3,8.454,0,9.054s2.458,1.079,2.518,2.039c0.015,0.237-0.014,0.901-0.066,1.766
		c1.166-0.3,2.141-1.501,2.901-0.073c0.849,1.596-1.252,2.721-3.093,2.882c-0.163,2.204-0.341,4.359-0.341,4.359
		s7.675,0.42,10.313-4.797c0,0-0.094,0.282-0.301,0.758c1.917-3.942,1.324-7.273,1.324-7.273s2.039,0.719,1.559-2.979
		c-0.194-1.498-0.625-2.238-1.068-2.588c-0.089-0.07-0.178-0.124-0.267-0.166C216.495,74.893,216.492,74.892,216.489,74.89z
		 M206.785,77.167c-0.335,0.034-0.67-0.575-0.75-1.359s0.127-1.448,0.462-1.482c0.334-0.034,0.67,0.574,0.749,1.359
		S207.119,77.133,206.785,77.167z M208.511,72.371c-0.403-0.071-1.148-0.175-1.914-0.139c-0.861,0.04-1.75,0.197-2.214,0.2
		c-0.139,0.001-0.227-0.152-0.15-0.268c0.216-0.327,0.811-0.881,2.365-0.881c1.403,0,1.921,0.465,2.112,0.803
		C208.789,72.229,208.672,72.399,208.511,72.371z"/>
	<path class="st6" d="M189.206,137.963c0.615,6.798,1.526,10.538,1.526,10.538l-4.437,49.646l0.685,36.174l0.035,1.839l3.118,1.799
		l-4.797,5.636c-9.953,2.039-6.475,9.354-6.475,9.354l0.287-0.089l0.981-0.305l2.265-0.705l12.655-3.937l3.478-7.795l0.37-5.797
		l1.909-29.939l1.109-25.337l0.45-10.278l0.245,6.562l1.074,28.814l2.305,10.934l4.058,19.244l2.031,9.634h1.559
		c6.415,1.949,12.112-0.6,12.112-0.6l0.001,0.009l2.637-1.208l-0.615-4.479l-0.461-3.356l-4.559-33.176
		c0,0-2.484-30.985-2.732-46.193c-0.026-1.574-0.027-2.979,0-4.163c0.18-7.764,2.613-30.819,2.613-30.819l3.048,3.181
		c0.194-0.015,0.39-0.04,0.587-0.07c0.558-0.085,1.128-0.231,1.704-0.422c4.914-1.626,10.291-6.714,12.531-9
		c0.68-0.694,1.075-1.132,1.075-1.132s-1.439-3.718-9.234-9.833c-7.795-6.116-13.311-2.518-18.227-3.598
		c-3.709-0.814-2.573-4.912-1.791-6.876c-1.963,2.465-5.067,5.163-9.736,6.462c-0.765,0.271-1.532,0.375-1.837,0.426
		c-0.044,0.007-0.118,0.018-0.216,0.031c-0.573,0.098-1.16,0.182-1.774,0.236c0,0,0.038-0.008,0.101-0.031
		c-2.64,0.313-7.041,0.81-7.041,0.81c-10.912-0.6-11.283,20.286-11.283,20.286l1.194,0.211l6.96,1.228
		C188.555,128.32,188.823,133.732,189.206,137.963z"/>
	<path class="st6" d="M225.777,245.33c-0.231,0.177-0.62,0.462-1.13,0.79c-0.027,0.018-0.056,0.035-0.084,0.053
		c-0.231,0.147-0.484,0.299-0.753,0.453c-0.307,0.175-0.636,0.347-0.982,0.512c-0.203,0.097-0.411,0.19-0.625,0.278
		c-0.231,0.096-0.466,0.186-0.705,0.266c-0.042,0.014-0.083,0.031-0.126,0.045c-0.042,0.014-0.085,0.023-0.127,0.036
		c-0.236,0.072-0.473,0.133-0.712,0.185c-0.328,0.071-0.658,0.124-0.987,0.146c-0.023,0.001-0.046,0.006-0.068,0.007
		c-0.211,0.012-0.421,0.012-0.629-0.001c-1.897-0.12-4.932-1.621-4.932-1.621l-0.281-2.526l0.36,3.238l0.48,12.231
		c0,0-3.358,9.593,5.936,8.994c9.294-0.6,6.535-5.156,6.535-8.394s-1.079-8.634-0.6-10.193s-0.24-3.837-0.24-4.197
		c0-0.09-0.037-0.27-0.094-0.489C226.013,245.145,225.925,245.217,225.777,245.33z"/>
	<path class="st6" d="M226.107,245.633c0-0.09-0.037-0.27-0.094-0.489l0,0C226.07,245.364,226.107,245.543,226.107,245.633z"/>
	<path class="st6" d="M104.448,234.321v5.009v0.498l51.085,17.808v-23.314V24.156l-48.25,19.708l-2.835,1.158
		C104.448,45.022,104.448,234.321,104.448,234.321z M152.513,138.198c0,0.137-0.011,0.271-0.02,0.405
		c0.01,0.134,0.02,0.268,0.02,0.405c0,2.992-2.426,5.418-5.418,5.418c-2.701,0-4.935-1.979-5.344-4.566h-10.278
		c-1.113,0-2.024-0.911-2.024-2.024s0.911-2.024,2.024-2.024h10.763c0.883-1.794,2.724-3.032,4.858-3.032
		C150.088,132.78,152.513,135.206,152.513,138.198z M111.823,54.915l35.256-13.67v84.182l-35.256,5.576V54.915z M111.823,148.63
		l36.874,2.158v83.532v4.067l-14.132-4.067l-22.743-6.546V148.63H111.823z"/>
	<path class="st7" d="M222.631,119.97c0,0-2.433,23.055-2.613,30.819v4.163c0.248,15.208,2.732,46.193,2.732,46.193l4.559,33.176
		l0.461,3.356l0.616,4.479c1.007-0.461,1.434-0.89,1.434-1.13c0-0.063-0.373-2.763-0.923-6.705
		c-1.541-11.058-4.473-31.908-4.473-31.908s4.856-42.091,4.856-46.948c0-3.316-1.845-21.305-3.015-32.385
		c-0.197,0.03-0.393,0.055-0.587,0.07L222.631,119.97z"/>
	<path class="st7" d="M203.683,204.142l-1.074-28.814l-0.695,3.717l-1.109,25.337l-1.909,29.939l-0.37,5.797l-3.478,7.795
		l-12.655,3.937c-0.919,0.31-1.697,0.544-2.265,0.705l-0.981,0.305c5.221,3.669,13.798-1.432,15.143-1.97
		c1.349-0.54,1.484-0.315,4.677-0.854c3.193-0.54,2.383-6.565,2.114-7.69c-0.27-1.124,0.195-2.818,0.195-2.818l2.038-1.559
		l0.426-3.647l2.248-19.244L203.683,204.142z"/>
	<path class="st7" d="M71.8,240.276c-0.09-0.27,0-5.306,0-5.306h-2.21v-0.649v-34.786c0,0-7.503-44.609-7.413-37.234l-1.799,44.429
		l0.15,1.271l1.526,12.902l1.472,12.448l1.491,0.969l0.258,0.167l0.05,0.032l0.18,3.598c-0.975,7.798,2.799,7.657,4.082,7.394
		c0.256-0.052,0.415-0.109,0.415-0.109l0.466,0.172l3.046,1.124l4.044,1.492c1.574,0.404,2.891,0.666,3.996,0.822
		c5.778,0.818,5.717-1.272,5.717-1.272l-0.115-0.029l-7.35-1.86C79.805,245.853,71.89,240.546,71.8,240.276z"/>
	<path class="st7" d="M44.549,133.7c0.443,6.05,1.128,12.582,1.856,15.727l-0.665-25.773
		C45.008,126.018,44.249,129.593,44.549,133.7z"/>
	<path class="st7" d="M47.232,181.487l-0.405-15.713c-1.54-0.071-3.225-0.918-4.616-3.492V196.8v6.197v12.036
		c1.214-5.365,3.775-16.633,3.957-16.998C46.408,197.556,47.232,181.487,47.232,181.487z"/>
	<path class="st7" d="M213.636,243.954l0.281,2.526c0,0,3.035,1.501,4.932,1.621c0.208,0.013,0.418,0.013,0.629,0.001
		c0.023-0.001,0.046-0.006,0.068-0.007c0.328-0.022,0.658-0.075,0.987-0.146c0.239-0.052,0.477-0.113,0.712-0.185
		c0.042-0.013,0.085-0.023,0.127-0.036c0.042-0.014,0.083-0.031,0.126-0.045c0.239-0.081,0.474-0.171,0.705-0.266
		c0.213-0.088,0.421-0.181,0.625-0.278c0.346-0.165,0.675-0.337,0.982-0.512c0.269-0.153,0.523-0.306,0.753-0.453
		c0.028-0.018,0.057-0.036,0.084-0.053c0.51-0.328,0.899-0.614,1.13-0.79c0.148-0.113,0.237-0.185,0.237-0.185l0,0l-0.265-1.78
		l-0.001-0.009C225.747,243.355,220.051,245.903,213.636,243.954z"/>
	<path class="st2" d="M226.013,245.145v-0.001V245.145z"/>
	<path class="st7" d="M226.013,245.145v-0.001V245.145z"/>
	<path class="st6" d="M219.545,248.095c-0.023,0.001-0.046,0.006-0.068,0.007C219.5,248.101,219.523,248.097,219.545,248.095z"/>
	<path class="st7" d="M219.545,248.095c-0.023,0.001-0.046,0.006-0.068,0.007C219.5,248.101,219.523,248.097,219.545,248.095z"/>
	<path class="st6" d="M224.647,246.12c0.51-0.328,0.899-0.614,1.13-0.79C225.545,245.507,225.156,245.792,224.647,246.12z"/>
	<path class="st7" d="M224.647,246.12c0.51-0.328,0.899-0.614,1.13-0.79C225.545,245.507,225.156,245.792,224.647,246.12z"/>
	<path class="st6" d="M220.532,247.949c0.239-0.052,0.477-0.113,0.712-0.185C221.009,247.836,220.771,247.897,220.532,247.949z"/>
	<path class="st7" d="M220.532,247.949c0.239-0.052,0.477-0.113,0.712-0.185C221.009,247.836,220.771,247.897,220.532,247.949z"/>
	<path class="st6" d="M223.809,246.626c0.269-0.153,0.523-0.306,0.753-0.453C224.332,246.32,224.079,246.473,223.809,246.626z"/>
	<path class="st7" d="M223.809,246.626c0.269-0.153,0.523-0.306,0.753-0.453C224.332,246.32,224.079,246.473,223.809,246.626z"/>
	<path class="st6" d="M221.372,247.728c0.042-0.014,0.083-0.031,0.126-0.045C221.455,247.697,221.414,247.714,221.372,247.728z"/>
	<path class="st7" d="M221.372,247.728c0.042-0.014,0.083-0.031,0.126-0.045C221.455,247.697,221.414,247.714,221.372,247.728z"/>
	<path class="st6" d="M222.203,247.416c0.213-0.088,0.421-0.181,0.625-0.278C222.624,247.235,222.416,247.328,222.203,247.416z"/>
	<path class="st7" d="M222.203,247.416c0.213-0.088,0.421-0.181,0.625-0.278C222.624,247.235,222.416,247.328,222.203,247.416z"/>
	<path class="st7" d="M51.883,241.908c0,0,0.109-1.704,0.34-2.088l-10.013-0.847v2.473
		C47.337,245.628,51.883,241.908,51.883,241.908z"/>
	<path class="st4" d="M58.375,86.726c0.48-0.072,0.969-0.282,1.366-0.742c0.357-0.414,0.64-1.029,0.772-1.934
		c0.585-3.998-0.63-4.268-0.63-4.268s-3.013-3.822-0.54-5.936s3.148,0.27,3.148,0.27s1.889,0.73,2.024-2.086
		s-1.079-7.583,2.698-7.717c1.102-0.039,2.14-0.092,3.115-0.084c1.45,0.012,2.756,0.167,3.905,0.713
		c0.232,0.11,0.46,0.231,0.679,0.375c0.469,0.309,0.909,0.702,1.317,1.199c0,0,3.035-0.18,2.631-3.732
		c-0.405-3.553-9.443-4.227-15.604-3.013s-11.827,2.608-11.512,10.433s1.124,9.488,4.677,16.234c0,0,0.054,0.025,0.15,0.061
		C56.879,86.614,57.615,86.84,58.375,86.726z"/>
	<path class="st8" d="M77.766,118.584c0.489,8.74-0.683,17.403-1.485,22.06l-0.245,8.771l0.02,0.25
		c5.518-8.517,6.792-24.969,7.083-31.493C80.801,118.627,77.766,118.584,77.766,118.584z"/>
	<path class="st8" d="M227.97,122.658c3.444,3.503,12.017,11.692,20.108,15.18c10.433,4.497,19.876,6.565,19.876,6.565
		s6.206,3.687,8.994,7.285s7.375,7.105,10.793,1.799s0.27-12.487-7.465-14.878c0,0-0.989-0.951,0.809-3.2
		c1.799-2.248,1.709-2.968,0.18-3.418c-1.529-0.45-10.433,3.058-10.703,4.047s-12.322-4.947-15.469-7.735
		c-2.591-2.295-11.515-11.471-14.592-14.646C238.262,115.944,232.885,121.032,227.97,122.658z"/>
	<path class="st8" d="M155.532,257.634h10.433V234.32v-79.482c4.018-0.862,15.128-4.304,23.241-16.876
		c-0.383-4.231-0.651-9.643-0.513-16.083l-6.96-1.228c-0.556,4.257-3.199,15.36-15.768,24.804V24.156h-10.433V234.32
		L155.532,257.634L155.532,257.634z"/>
	<path class="st8" d="M200.536,99.138c0.715-0.122,1.399-0.275,2.052-0.457c4.668-1.299,7.773-3.997,9.736-6.462
		c1.404-1.763,2.227-3.402,2.626-4.318c0.207-0.476,0.301-0.758,0.301-0.758c-2.638,5.216-10.313,4.797-10.313,4.797
		s0.178-2.155,0.341-4.359c-0.024,0.002-0.048,0.006-0.072,0.008c-0.712,0.053-1.397-0.002-1.975-0.19
		c-0.931-0.303-1.581-0.955-1.603-2.08c-0.025-1.334,0.41-1.433,0.888-1.229c0.175,0.075,0.356,0.189,0.522,0.3
		c0.619,0.413,1.961,0.447,1.961,0.447c0.16,0,0.317-0.025,0.47-0.065c0.052-0.865,0.081-1.529,0.066-1.766
		c-0.06-0.959-2.218-1.439-2.518-2.039s0.18-6.895,0-9.054c-0.106-1.269-0.957-2.432-1.665-3.214
		c-0.292,0.14-0.594,0.269-0.91,0.381c-0.418,0.148-0.794,0.253-1.135,0.323c-3.289,0.676-3.227-1.945-4.531-1.537
		c-0.051,0.016-0.101,0.047-0.149,0.087c-0.172,0.256-0.364,0.587-0.559,1c-0.76,2.148-1.221,6.853-1.383,8.773
		c0.005,0.227,0.011,0.457,0.02,0.693c0.36,8.994,7.824,13.94,7.824,13.94c0.849,5.727-1.186,6.81-1.668,6.984
		c-0.063,0.023-0.101,0.031-0.101,0.031C199.377,99.32,199.963,99.236,200.536,99.138z M200.099,78.009
		c-0.337,0.034-0.674-0.574-0.754-1.359c-0.079-0.784,0.129-1.448,0.466-1.482c0.337-0.034,0.674,0.574,0.754,1.359
		C200.644,77.312,200.436,77.975,200.099,78.009z M200.171,73.348c-0.409,0.019-0.878,0.039-1.335,0.091
		c-0.763,0.087-1.481,0.308-1.868,0.443c-0.154,0.054-0.297-0.096-0.241-0.249c0.135-0.364,0.572-0.906,1.957-1.13
		c0.529-0.086,0.95-0.084,1.293-0.039c0.652,0.086,1.008,0.342,1.182,0.531c0.094,0.102,0.031,0.267-0.106,0.288
		C200.84,73.317,200.528,73.332,200.171,73.348z"/>
	<path class="st8" d="M46.827,165.774c1.365,0.063,2.616-0.481,3.444-0.966c0.525-0.307,0.616-1.04,0.179-1.463
		c-3.225-3.127-2.79-5.935-2.124-6.351c0.719-0.45,3.598,2.698,4.407,1.529c0.809-1.169-1.889-3.777-2.878-5.216
		c-0.989-1.439-2.069-0.54-2.968-2.338c-0.161-0.323-0.323-0.852-0.483-1.541c-0.728-3.145-1.413-9.677-1.856-15.727
		c-0.301-4.107,0.459-7.683,1.191-10.046c0.582-1.881,1.147-2.995,1.147-2.995s-4.677,0.18-4.677,0l-0.015,0.989l-0.614,39.303
		c0.201,0.49,0.412,0.929,0.63,1.331C43.602,164.856,45.287,165.704,46.827,165.774z"/>
	<path class="st4" d="M33.037,269.746l9.174-2.938v-4.198v-21.164v-2.473v-4.652v-19.287v-12.036v-6.197v-34.518
		c-0.217-0.402-0.428-0.841-0.63-1.331l0.614-39.303l0.015-0.989V96.294V33.33l53.513,14.584l4.587,1.152v185.255v6.615h-0.06
		l0.06,0.03l4.137-1.637v-5.009V45.022l2.835-1.158L33.037,23.437v210.884V269.746z"/>
	<polygon class="st9" points="147.078,41.245 111.823,54.915 111.823,131.002 147.078,125.426 	"/>
	<polygon class="st9" points="148.697,238.388 148.697,234.321 148.697,150.789 111.823,148.63 111.823,227.775 134.565,234.321 	
		"/>
	<path class="st10" d="M147.096,143.616c-2.412,0-4.454-1.577-5.155-3.756h-0.189c0.41,2.586,2.643,4.566,5.344,4.566
		c2.992,0,5.418-2.426,5.418-5.418c0-0.137-0.011-0.271-0.02-0.405C152.285,141.405,149.951,143.616,147.096,143.616z"/>
	<path class="st10" d="M148.427,137.836c0,1.113-0.911,2.024-2.024,2.024h-2.323c0.586,1.062,1.716,1.781,3.015,1.781
		c1.901,0,3.443-1.541,3.443-3.443c0-1.901-1.541-3.443-3.443-3.443c-0.974,0-1.852,0.406-2.479,1.057h1.787
		C147.516,135.812,148.427,136.723,148.427,137.836z"/>
	<path class="st9" d="M147.096,132.78c-2.135,0-3.976,1.238-4.858,3.032h-10.763c-1.113,0-2.024,0.911-2.024,2.024
		s0.911,2.024,2.024,2.024h10.278h0.189c0.702,2.179,2.743,3.756,5.155,3.756c2.855,0,5.189-2.21,5.397-5.013
		c0.01-0.134,0.02-0.268,0.02-0.405C152.513,135.206,150.088,132.78,147.096,132.78z M147.096,141.641
		c-1.299,0-2.429-0.72-3.015-1.781h2.323c1.113,0,2.024-0.911,2.024-2.024s-0.911-2.024-2.024-2.024h-1.787
		c0.626-0.65,1.504-1.057,2.479-1.057c1.901,0,3.443,1.541,3.443,3.443C150.538,140.099,148.997,141.641,147.096,141.641z"/>
</g>
</svg>
