<?xml version="1.0" encoding="UTF-8" standalone="no"?>
<!DOCTYPE svg PUBLIC "-//W3C//DTD SVG 1.1//EN" "http://www.w3.org/Graphics/SVG/1.1/DTD/svg11.dtd">
<svg width="100%" height="100%" viewBox="0 0 300 300" version="1.1" xmlns="http://www.w3.org/2000/svg" xmlns:xlink="http://www.w3.org/1999/xlink" xml:space="preserve" xmlns:serif="http://www.serif.com/" style="fill-rule:evenodd;clip-rule:evenodd;stroke-linejoin:round;stroke-miterlimit:2;">
    <path d="M118.112,83.122L118.476,82.373C118.522,82.278 118.504,82.165 118.43,82.092L118.085,81.746C118.027,81.688 117.99,81.615 117.975,81.532C117.834,80.698 117.956,80.013 118.345,79.478C118.397,79.408 118.375,79.307 118.296,79.264C117.211,78.702 117.77,77.394 118.167,76.431C118.207,76.336 118.207,76.226 118.17,76.128C117.895,75.41 117.837,74.649 117.999,73.842C119.488,73.423 121.647,72.692 121.615,70.791C121.612,70.599 121.364,70.519 121.252,70.675C121.126,70.849 120.97,70.961 120.79,71.017C120.695,71.047 120.591,71.039 120.503,70.996L119.081,70.311L119.369,69.119C119.372,69.104 119.378,69.085 119.387,69.07C119.91,68.123 120.631,67.713 121.545,67.838C121.664,67.857 121.783,67.814 121.866,67.728C122.401,67.16 122.872,65.955 123.88,65.555C124.042,65.491 124.171,65.359 124.232,65.194C124.406,64.708 124.843,64.378 125.54,64.204C125.641,64.179 125.742,64.182 125.837,64.219C126.206,64.357 126.53,64.598 126.809,64.944C126.888,65.041 127.007,65.093 127.13,65.084C127.885,65.032 128.42,65.02 128.734,65.054C128.86,65.066 128.97,65.158 129.061,65.329L129.101,65.543C129.12,65.644 129.159,65.738 129.22,65.821C129.855,66.681 130.289,67.937 129.132,68.572C128.924,68.686 128.954,68.994 129.178,69.067C130.116,69.376 130.995,69.918 130.691,71.045C130.658,71.167 130.565,71.265 130.446,71.302L129.927,71.473C129.872,71.491 129.831,71.531 129.813,71.583C129.733,71.823 129.715,72.063 129.755,72.295C129.803,72.57 129.544,72.799 129.279,72.72L127.056,72.06C126.833,71.992 126.628,72.21 126.705,72.433C127.189,73.831 129.416,74.894 130.669,75.184C131.32,75.334 131.68,75.899 131.684,76.412C131.685,76.522 131.636,76.63 131.553,76.703C130.984,77.196 130.266,77.459 129.413,77.507C129.3,77.513 129.208,77.595 129.187,77.708C129.145,77.929 129.147,78.225 129.193,78.601C129.226,78.873 128.997,79.105 128.725,79.078L126.766,78.885C126.564,78.864 126.411,79.06 126.475,79.249C126.808,80.228 129.795,80.684 130.675,80.729C130.792,80.734 130.856,80.866 130.789,80.961C130.136,81.876 129.031,82.24 127.949,82.291C127.496,82.311 127.099,82.599 126.934,83.024C126.427,84.329 125.772,86.775 124.232,85.946C123.516,85.561 122.904,85.426 122.401,85.558C122.312,85.581 122.214,85.564 122.138,85.512C121.418,85.025 120.895,84.447 120.564,83.776C120.518,83.684 120.39,83.679 120.334,83.764C119.712,84.723 118.623,83.645 118.112,83.122Z" style="fill:white;fill-opacity:0.5;"/>
    <path d="M117.859,84.635L118.112,83.122C118.623,83.645 119.712,84.723 120.334,83.764C120.39,83.679 120.518,83.684 120.564,83.776C120.895,84.447 121.418,85.025 122.138,85.512C122.214,85.564 122.312,85.581 122.401,85.558C122.904,85.426 123.516,85.561 124.232,85.946C125.772,86.775 126.427,84.329 126.934,83.024C127.099,82.599 127.496,82.311 127.949,82.291C129.031,82.24 130.136,81.876 130.789,80.961C130.856,80.866 130.792,80.734 130.675,80.729C129.795,80.684 126.808,80.228 126.475,79.249C126.411,79.06 126.564,78.864 126.766,78.885L128.725,79.078C128.997,79.105 129.226,78.873 129.193,78.601C129.147,78.225 129.145,77.929 129.187,77.708C129.208,77.595 129.3,77.513 129.413,77.507C130.266,77.459 130.984,77.196 131.553,76.703C131.636,76.63 131.685,76.522 131.684,76.412C131.68,75.899 131.32,75.334 130.669,75.184C129.416,74.894 127.189,73.831 126.705,72.433C126.628,72.21 126.833,71.992 127.056,72.06L129.279,72.72C129.544,72.799 129.803,72.57 129.755,72.295C129.715,72.063 129.733,71.823 129.813,71.583C129.831,71.531 129.872,71.491 129.927,71.473L130.446,71.302C130.565,71.265 130.658,71.167 130.691,71.045C130.995,69.918 130.116,69.376 129.178,69.067C128.954,68.994 128.924,68.686 129.132,68.572C130.289,67.937 129.855,66.681 129.22,65.821C129.159,65.738 129.12,65.644 129.101,65.543L129.061,65.329C129.223,65.271 129.361,65.289 129.468,65.378C129.765,65.619 130.137,66.035 130.593,66.619C130.62,66.652 130.642,66.692 130.657,66.738L131.571,69.416C131.602,69.501 131.69,69.55 131.779,69.532C132.039,69.477 132.372,69.584 132.772,69.853C132.843,69.899 132.889,69.975 132.898,70.061C132.956,70.666 132.882,71.112 132.678,71.399C132.616,71.485 132.632,71.601 132.711,71.668C132.782,71.726 132.864,72.035 132.956,72.591C133.026,73.01 133.228,73.502 133.564,74.062C133.576,74.083 133.585,74.105 133.595,74.126L134.625,77.253C134.475,78.054 134.578,78.788 134.937,79.454C135.263,80.06 135.423,80.438 135.419,80.591C135.396,81.585 134.645,82.504 134.023,83.47C133.959,83.569 134.001,83.703 134.111,83.749C134.114,83.749 134.117,83.749 134.117,83.752C134.221,83.822 134.286,83.935 134.295,84.06C134.36,84.968 134.041,85.666 133.344,86.148C133.127,86.298 132.978,86.5 132.898,86.747C132.782,87.105 132.509,87.37 132.078,87.545C131.751,87.679 131.234,87.456 130.963,87.661C130.402,88.085 129.725,88.508 128.921,88.933C129.373,89.89 129.596,90.535 129.593,90.862C129.58,92.304 127.993,92.89 127.341,91.513C127.3,91.427 127.279,91.338 127.282,91.247L127.359,89.364C127.264,89.269 127.163,89.241 127.059,89.284C126.642,89.459 126.149,89.593 125.626,89.477C124.681,89.268 123.852,88.944 123.15,88.483C123.076,88.435 122.991,88.41 122.902,88.41L120.68,88.41C120.64,88.41 120.604,88.404 120.564,88.389C119.768,88.088 119.18,87.589 118.794,86.885C118.779,86.857 118.773,86.827 118.773,86.793L118.773,85.632C118.773,85.534 118.708,85.446 118.614,85.415C118.237,85.291 117.987,85.029 117.859,84.635Z" style="fill:white;fill-opacity:0.35;"/>
    <path d="M117.999,73.842C118.06,72.922 118.393,72.121 118.996,71.439C119.081,71.341 119.127,71.213 119.118,71.081L119.081,70.311L120.503,70.996C120.591,71.039 120.695,71.047 120.79,71.017C120.97,70.961 121.126,70.849 121.252,70.675C121.364,70.519 121.612,70.599 121.615,70.791C121.647,72.692 119.488,73.423 117.999,73.842Z" style="fill:white;fill-opacity:0.35;"/>
    <path d="M103.761,90.868L117.859,84.635C117.987,85.029 118.237,85.291 118.614,85.415C118.708,85.446 118.773,85.534 118.773,85.632L118.773,86.793C118.773,86.827 118.779,86.857 118.794,86.885C119.18,87.589 119.768,88.088 120.564,88.389C120.604,88.404 120.64,88.41 120.68,88.41L122.902,88.41C122.991,88.41 123.076,88.435 123.15,88.483C123.852,88.944 124.681,89.268 125.626,89.477C126.149,89.593 126.642,89.459 127.059,89.284C127.163,89.241 127.264,89.269 127.359,89.364C126.213,89.899 125.057,90.327 123.889,90.651C123.315,90.81 122.883,91.048 122.6,91.363C122.171,91.839 122.056,92.353 122.254,92.907C122.625,93.942 124.397,94.073 125.274,94.221C125.4,94.242 125.5,94.331 125.54,94.45L125.702,94.948C125.745,95.08 125.867,95.168 126.008,95.169C130.128,95.175 134.254,94.8 138.385,94.031C140.313,93.673 141.563,93.447 142.575,92.035C142.792,91.733 142.854,91.44 142.762,91.161C142.727,91.057 142.658,90.966 142.566,90.907C141.698,90.357 140.592,90.133 139.791,89.911C137.859,89.374 136.035,89.324 134.313,89.752C134.053,89.817 133.781,89.793 133.537,89.682C132.195,89.072 130.66,88.82 128.921,88.933C129.725,88.508 130.402,88.085 130.963,87.661C131.234,87.456 131.751,87.679 132.078,87.545C132.509,87.37 132.782,87.105 132.898,86.747C132.978,86.5 133.127,86.298 133.344,86.148C134.041,85.666 134.36,84.968 134.295,84.06C134.286,83.935 134.221,83.822 134.117,83.752C134.117,83.749 134.114,83.749 134.111,83.749C134.001,83.703 133.959,83.569 134.023,83.47C134.645,82.504 135.396,81.585 135.419,80.591C135.423,80.438 135.263,80.06 134.937,79.454C134.578,78.788 134.475,78.054 134.625,77.253L136.905,76.284C136.994,76.244 137.095,76.244 137.183,76.284C137.889,76.581 138.357,76.764 138.589,76.831C174.555,86.952 210.523,97.082 246.498,107.218C246.679,107.707 246.931,108.154 247.253,108.554C247.317,108.634 247.332,108.743 247.29,108.838C246.899,109.708 246.715,110.923 247.467,111.644C247.559,111.733 247.586,111.871 247.531,111.987L247.039,113.05C246.883,113.824 246.701,115.085 247.727,115.294C247.822,115.313 247.888,115.398 247.886,115.493C247.859,116.575 247.791,117.26 248.806,118.03C248.332,118.314 247.693,118.589 246.896,118.852C241.962,120.478 237.417,121.716 233.256,122.563C230.661,123.092 228.008,123.415 225.498,123.342C223.674,123.29 222.051,122.85 220.62,122.043C220.489,121.969 220.332,121.966 220.195,122.031C219.259,122.478 218.263,122.84 217.202,123.089C215.992,123.372 215.306,123.445 214.28,122.853C213.736,122.539 213.094,122.202 212.351,121.842C212.15,121.744 211.92,121.719 211.703,121.771C207.91,122.681 204.225,122.341 200.653,120.732C200.369,120.604 200.063,120.531 199.755,120.512C195.453,120.245 190.878,119.5 186.433,118.993C185.333,118.867 184.07,118.87 182.646,118.999C182.817,118.672 183.043,118.36 183.325,118.07C183.761,117.62 183.996,117.324 184.034,117.18C184.108,116.895 184.137,116.526 184.104,116.07C184.101,116.034 184.086,115.997 184.058,115.973L183.866,115.78C183.811,115.725 183.801,115.639 183.841,115.572C184.653,114.231 185.951,112.969 184.673,111.43C184.578,111.317 184.523,111.177 184.511,111.03C184.413,109.899 184.319,109.211 184.236,108.967C183.905,107.997 183.648,107.14 183.484,106.39C183.455,106.262 183.407,106.14 183.337,106.029C183.001,105.496 182.821,105.069 182.784,104.758C182.715,104.192 182.63,103.865 182.533,103.776C182.456,103.706 182.444,103.59 182.502,103.504C182.701,103.211 182.777,102.761 182.726,102.159C182.717,102.058 182.655,101.967 182.567,101.918C182.208,101.718 181.888,101.617 181.607,101.618C181.506,101.619 181.414,101.554 181.381,101.456C180.865,99.947 180.549,99.057 180.424,98.791C180.184,98.281 179.751,97.81 179.119,97.379C178.489,97.119 177.765,97.05 176.948,97.168C176.841,97.183 176.735,97.143 176.667,97.061C176.379,96.713 176.044,96.466 175.674,96.321C175.579,96.284 175.478,96.279 175.38,96.303C174.644,96.483 174.198,96.818 174.044,97.32C174.007,97.443 173.919,97.541 173.803,97.589C172.834,97.997 172.339,98.962 171.74,99.769C171.667,99.867 171.55,99.922 171.428,99.919C170.306,99.889 169.553,100.314 169.178,101.199C169.076,101.44 168.976,101.97 168.875,102.783C168.952,102.933 168.992,103.076 168.998,103.22C169.001,103.318 168.964,103.412 168.897,103.483C168.216,104.199 167.858,105.063 167.815,106.075C167.659,106.848 167.724,107.536 168.004,108.144C168.056,108.257 168.06,108.389 168.013,108.505C167.577,109.593 166.982,110.753 168.166,111.363C168.233,111.398 168.253,111.486 168.206,111.547C167.803,112.069 167.659,112.748 167.79,113.607C167.803,113.686 167.839,113.76 167.897,113.818L168.289,114.209C168.359,114.279 168.377,114.389 168.331,114.478L167.913,115.282C167.744,115.817 167.697,116.37 167.778,116.936C167.793,117.04 167.839,117.131 167.916,117.201C168.114,117.383 168.298,117.478 168.469,117.486C168.542,117.489 168.597,117.547 168.597,117.62L168.597,118.791C168.597,118.889 168.631,118.987 168.689,119.063L169.45,120.041C165.125,120.601 161.301,120.716 157.984,120.396C154.39,120.049 150.981,118.947 147.76,117.085C145.644,115.863 144.461,114.943 142.872,114.71C140.873,114.417 138.892,114.612 136.716,114.97C132.427,115.676 129.239,116.155 127.145,116.404C122.605,116.943 117.761,117.173 112.613,117.091C110.486,117.058 107.619,116.962 105.482,116.119C105.078,115.96 104.869,115.515 105.002,115.105C105.144,114.668 105.418,114.261 105.83,113.888C108.584,111.4 111.867,109.923 115.502,108.199C118.262,106.891 120.829,105.047 122.908,102.792C123.548,102.099 124.397,101.136 125.458,99.897C125.766,99.537 125.973,99.17 126.075,98.794C126.19,98.369 126.038,97.916 125.687,97.651C124.926,97.076 123.997,96.66 122.899,96.4C120.219,95.767 116.895,95.035 113.509,93.989C112.035,93.534 109.856,92.867 106.97,91.99C106.955,91.986 106.445,91.862 105.439,91.623C104.776,91.465 104.216,91.213 103.761,90.868Z" style="fill:white;fill-opacity:0.75;"/>
    <path d="M127.359,89.364C126.213,89.899 125.057,90.327 123.889,90.651C123.315,90.81 122.883,91.048 122.6,91.363C122.171,91.839 122.056,92.353 122.254,92.907C122.625,93.942 124.397,94.073 125.274,94.221C125.4,94.242 125.5,94.331 125.54,94.45L125.702,94.948C125.745,95.08 125.867,95.168 126.008,95.169C130.128,95.175 134.254,94.8 138.385,94.031C140.313,93.673 141.563,93.447 142.575,92.035C142.792,91.733 142.854,91.44 142.762,91.161C142.727,91.057 142.658,90.966 142.566,90.907C141.698,90.357 140.592,90.133 139.791,89.911C137.859,89.374 136.035,89.324 134.313,89.752C134.053,89.817 133.781,89.793 133.537,89.682C132.195,89.072 130.66,88.82 128.921,88.933C129.373,89.89 129.596,90.535 129.593,90.862C129.58,92.304 127.993,92.89 127.341,91.513C127.3,91.427 127.279,91.338 127.282,91.247L127.359,89.364Z" style="fill:white;fill-opacity:0.65;"/>
    <path d="M0.397,136.655L7.116,133.555C7.669,133.778 8.287,133.895 8.962,133.907C15.103,134.014 21.61,133.425 27.474,131.516C28.293,131.25 29.149,130.792 30.039,130.141C30.699,129.658 31.488,129.331 32.148,129.221C33.912,128.925 35.831,128.725 37.913,128.6C38.011,128.594 38.103,128.646 38.148,128.731C38.208,128.845 38.249,129.002 38.272,129.204C38.273,129.219 38.275,129.233 38.276,129.248C38.383,129.642 38.677,129.888 39.157,129.982C39.252,130 39.322,130.083 39.322,130.18L39.322,131.819C39.322,131.874 39.334,131.926 39.362,131.972C39.881,132.851 40.628,133.522 41.633,133.928C41.742,133.972 41.859,133.991 41.975,133.983C43.06,133.907 44.054,133.95 44.955,134.09C45.322,134.147 45.56,134.222 45.671,134.316C45.808,134.433 45.888,134.505 45.915,134.533C45.997,134.62 46.105,134.674 46.221,134.683C46.383,134.695 46.557,134.772 46.747,134.909C46.939,135.047 47.107,135.102 47.254,135.071C47.697,134.979 48.07,135.364 48.517,135.417C49.113,135.486 49.63,135.366 50.06,135.056C50.284,134.895 50.595,135.062 50.586,135.337L50.54,136.798C49.605,137.046 48.715,136.749 47.917,136.872C46.783,137.046 45.538,137.501 44.427,138.009C43.404,138.476 42.861,138.862 43.024,140.002C43.206,141.28 44.115,141.671 45.267,142.01C45.353,142.035 45.365,142.151 45.289,142.196L45.05,142.334C44.68,142.548 44.696,143.083 45.075,143.278C46.074,143.795 47.245,144.009 48.581,143.92C51.463,143.728 54.013,143.423 56.229,143.006C58.506,142.579 60.105,142.077 61.022,141.506C61.025,141.503 61.028,141.503 61.031,141.499L62.183,140.689C62.229,140.656 62.275,140.631 62.324,140.61C63.33,140.186 64.175,139.772 64.83,139.317C65.023,139.183 65.011,138.897 64.812,138.776C64.333,138.484 63.8,138.245 63.216,138.051C61.263,137.405 59.089,136.671 57.234,137.049C56.727,137.152 56.348,137.218 56.1,137.248C55.88,137.274 55.522,137.163 55.03,136.911C54.501,136.64 53.909,136.483 53.245,136.444L52.817,134.707C52.732,134.353 52.998,134.013 53.361,134.01C54.095,134.006 54.739,133.682 55.29,133.026C55.352,132.953 55.434,132.897 55.523,132.867C55.568,132.852 55.801,132.855 56.223,132.876C56.99,132.916 57.501,132.416 57.956,131.638C58.118,131.361 58.46,130.957 58.983,130.431C59.744,129.664 59.869,128.725 59.389,127.604C59.352,127.515 59.359,127.414 59.408,127.335C60.452,125.633 61.495,124.555 61.015,122.918C60.963,122.737 60.716,122.419 60.276,121.964C65.61,119.956 70.647,117.516 75.388,114.64C77.43,113.402 79.155,111.942 80.56,110.263C82.02,108.518 81.55,106.602 79.723,105.369C78.894,104.81 78.203,104.449 77.644,104.287C76.666,104.003 75.96,103.688 75.523,103.342L103.761,90.868C104.216,91.213 104.776,91.465 105.439,91.623C106.445,91.862 106.955,91.986 106.97,91.99C109.856,92.867 112.035,93.534 113.509,93.989C116.895,95.035 120.219,95.767 122.899,96.4C123.997,96.66 124.926,97.076 125.687,97.651C126.038,97.916 126.19,98.369 126.075,98.794C125.973,99.17 125.766,99.537 125.458,99.897C124.397,101.136 123.548,102.099 122.908,102.792C120.829,105.047 118.262,106.891 115.502,108.199C111.867,109.923 108.584,111.4 105.83,113.888C105.418,114.261 105.144,114.668 105.002,115.105C104.869,115.515 105.078,115.96 105.482,116.119C107.619,116.962 110.486,117.058 112.613,117.091C117.761,117.173 122.605,116.943 127.145,116.404C129.239,116.155 132.427,115.676 136.716,114.97C138.892,114.612 140.873,114.417 142.872,114.71C144.461,114.943 145.644,115.863 147.76,117.085C150.981,118.947 154.39,120.049 157.984,120.396C161.301,120.716 165.125,120.601 169.45,120.041C170.355,120.506 171.431,120.666 172.681,120.515C172.782,120.503 172.883,120.527 172.968,120.579C173.839,121.113 174.741,121.462 175.68,121.618C176.083,121.686 176.484,121.6 176.878,121.362C177.025,121.273 177.214,121.383 177.205,121.557L177.153,122.535C176.701,122.82 176.224,122.951 175.723,122.93C175.298,122.912 175.01,122.926 174.854,122.976C173.82,123.303 173.151,124.008 173.751,125.161C173.797,125.25 173.797,125.354 173.754,125.442C173.748,125.455 173.672,125.574 173.528,125.803C173.01,126.624 173.766,127.543 174.463,127.918C175.105,128.264 175.888,128.514 176.811,128.67C179.464,129.121 182.096,129.007 184.709,128.325C186.161,127.946 187.476,127.634 188.646,127.39C189.683,127.173 190.633,126.826 191.498,126.353C192.54,125.784 193.898,124.113 192.761,122.976C192.269,122.484 191.63,122.102 190.844,121.836C188.352,120.99 185.761,120.546 183.071,120.515C181.338,120.495 180.479,121.013 179.119,121.683L178.874,121.035C178.834,120.928 178.862,120.811 178.941,120.732C179.14,120.533 179.397,120.46 179.712,120.506C179.816,120.521 179.919,120.494 179.999,120.429L180.858,119.757C180.943,119.69 181.057,119.659 181.167,119.674C181.843,119.772 182.337,119.552 182.646,118.999C184.07,118.87 185.333,118.867 186.433,118.993C190.878,119.5 195.453,120.245 199.755,120.512C200.063,120.531 200.369,120.604 200.653,120.732C204.225,122.341 207.91,122.681 211.703,121.771C211.92,121.719 212.15,121.744 212.351,121.842C213.094,122.202 213.736,122.539 214.28,122.853C215.306,123.445 215.992,123.372 217.202,123.089C218.263,122.84 219.259,122.478 220.195,122.031C220.332,121.966 220.489,121.969 220.62,122.043C222.051,122.85 223.674,123.29 225.498,123.342C228.008,123.415 230.661,123.092 233.256,122.563C237.417,121.716 241.962,120.478 246.896,118.852C247.693,118.589 248.332,118.314 248.806,118.03C249.922,118.815 250.802,118.609 252.043,118.647C252.321,118.656 252.593,118.715 252.85,118.822C253.256,118.99 253.715,119.195 254.219,119.433C254.653,119.638 255.314,119.775 256.197,119.843C256.232,119.825 256.267,119.809 256.3,119.793C256.34,119.801 256.362,119.858 256.365,119.965C255.036,120.601 253.864,121.383 254.696,123.073C254.761,123.205 254.705,123.367 254.574,123.431C253.791,123.815 253.394,124.391 254.33,124.984C257.566,127.033 260.993,127.405 264.615,126.106C264.939,125.99 265.534,125.85 266.394,125.666C266.505,125.642 266.608,125.583 266.685,125.501C267.236,124.909 267.645,124.595 267.898,124.556C268.464,124.469 269.359,124.355 270.588,124.217C270.976,124.173 271.611,123.924 272.499,123.477C272.609,123.422 272.702,123.334 272.762,123.223C272.945,122.886 272.985,122.612 273.269,122.236C273.544,121.872 273.722,121.557 273.804,121.291C273.927,120.894 273.792,120.459 273.459,120.191C269.856,117.291 263.356,117.984 259.33,119.418C259.165,119.219 259.147,119.039 259.275,118.874C259.382,118.736 259.56,118.653 259.804,118.626C260.333,118.567 260.787,118.367 261.167,118.018C261.41,117.795 261.641,117.691 261.871,117.706C262.573,117.751 263.082,117.413 263.521,116.761C264.253,115.677 265.494,115.006 264.845,113.442C264.799,113.332 264.799,113.209 264.845,113.099L265.123,112.464C276.509,115.682 287.81,118.864 299.028,122.013C299.227,122.068 299.456,122.318 299.71,122.768C299.199,122.569 298.78,122.578 298.454,122.792C258.295,149.09 218.153,175.416 178.012,201.745C177.816,201.873 177.593,201.995 177.343,202.108C177.101,202.218 176.875,202.332 176.658,202.448C118.189,180.668 59.699,158.897 1.207,137.089C1.003,137.012 0.731,136.869 0.397,136.655ZM167.145,170.786C168.258,170.202 169.282,169.796 170.22,169.56C172.483,168.992 175.567,168.77 177.502,168.246C179.672,167.658 181.74,166.838 183.713,165.791C184.953,165.133 186.178,164.355 186.962,163.254C187.026,163.165 187.058,163.059 187.054,162.949C187.047,162.768 186.952,162.595 186.776,162.426C186.68,162.335 186.733,162.174 186.864,162.157C188.489,161.941 190.184,161.601 191.948,161.099C196.961,159.675 201.492,158.702 208.154,156.985C209.148,156.729 210.234,156.335 211.404,155.802C212.936,155.104 214.739,153.558 213.51,151.825C213.064,151.195 211.731,150.68 211.061,150.517C207.726,149.705 204.352,149.579 200.934,150.147C196.829,150.829 192.727,151.39 188.631,151.825C187.332,151.963 186.06,151.973 184.822,151.847C181.032,151.461 182.039,149.013 183.205,146.717C183.415,146.304 183.441,145.945 183.27,145.647C183.218,145.558 183.135,145.492 183.037,145.464C182.452,145.294 181.796,145.176 181.072,145.119C178.342,144.904 175.35,144.928 172.1,145.18C171.981,145.189 171.862,145.167 171.755,145.119C168.538,143.67 164.232,143.599 160.705,143.847C157.101,144.1 153.534,144.66 150.006,145.531C147.769,146.084 142.429,147.299 143.44,150.722C143.47,150.823 143.434,150.929 143.349,150.991C142.117,151.884 140.656,152.201 138.825,152.837C136.819,153.534 137.099,155.342 136.153,156.698C135.705,157.34 134.998,157.871 134.035,158.29C131.745,159.286 129.535,159.978 127.399,160.363C122.077,161.321 117.865,161.643 114.447,164.908C113.723,165.599 112.884,166.743 113.46,167.711C113.963,168.556 116.162,168.729 117.131,168.744C122.181,168.825 126.992,169.4 131.935,170.639C136.095,171.683 140.414,172.604 143.572,172.73C145.219,172.796 147.173,172.559 149.425,172.021L149.89,172.149C150.009,172.183 150.083,172.299 150.064,172.418C149.823,173.986 150.572,174.991 152.299,175.469C152.342,175.481 152.384,175.487 152.43,175.487L154.555,175.487C154.704,175.487 154.851,175.53 154.976,175.607C155.822,176.119 156.807,176.473 157.929,176.67C158.351,176.744 158.779,176.642 159.213,176.371C159.351,176.285 159.528,176.386 159.525,176.548L159.507,177.392C158.831,177.45 158.152,177.498 157.477,177.538C156.441,177.601 154.173,177.822 153.855,178.954C153.832,179.033 153.836,179.119 153.861,179.198C154.019,179.698 153.769,180.32 154.111,180.858C155.015,182.277 156.786,182.614 158.397,182.765C160.821,182.993 162.997,182.849 164.932,182.334C165.244,182.252 165.568,182.216 165.889,182.227C166.458,182.247 167.448,182.162 168.857,181.974C169.994,181.822 170.884,181.42 171.529,180.769C172.874,179.412 171.942,178.232 170.44,177.78C169.613,177.531 168.777,177.357 167.931,177.248C167.744,177.224 167.564,177.181 167.384,177.123C165.526,176.516 163.63,176.42 161.692,176.857L161.42,176.047C161.334,175.799 161.512,175.542 161.775,175.53C162.398,175.502 162.929,175.273 163.37,174.842C163.694,174.527 164.032,174.511 164.422,174.576C164.505,174.59 164.586,174.576 164.657,174.537C165.216,174.228 165.538,173.993 165.614,173.812C165.771,173.437 165.925,173.191 166.082,173.072C166.89,172.457 167.246,171.694 167.145,170.786Z" style="fill:white;fill-opacity:0.95;"/>
    <path d="M246.498,107.218C246.978,106.524 247.183,105.812 247.113,105.082C246.993,103.871 246.957,103.061 246.996,102.648C247.978,102.327 248.907,101.924 249.79,101.432C250.585,100.989 251.007,100.298 251.062,99.359C251.076,99.112 250.769,98.99 250.609,99.176C250.256,99.589 249.778,99.619 249.182,99.268C248.788,99.035 248.479,98.904 248.25,98.87C248.344,98.137 248.433,97.672 248.522,97.479C249.017,96.388 249.864,95.887 251.062,95.979C251.193,95.991 251.322,95.927 251.395,95.814C251.768,95.248 252.061,94.817 252.275,94.517C252.673,93.967 253.562,93.561 254.036,92.885C254.21,92.638 254.433,92.43 254.699,92.265C255.586,91.714 256.194,92.222 256.824,92.876C256.9,92.952 257.004,92.989 257.111,92.977C257.909,92.87 258.566,92.916 259.083,93.108C259.52,93.796 259.833,94.466 260.027,95.117C260.27,95.93 259.927,96.34 259.367,96.877C259.227,97.012 259.282,97.246 259.465,97.308C260.38,97.617 261.472,98.353 261.012,99.561C260.987,99.625 260.941,99.68 260.88,99.714L260.253,100.078C260.208,100.105 260.171,100.151 260.156,100.203L259.862,101.193C259.819,101.337 259.667,101.42 259.523,101.377L256.998,100.628C256.799,100.567 256.601,100.729 256.622,100.937C256.723,101.954 258.535,103.108 259.391,103.495C259.899,103.725 260.56,103.96 261.375,104.204C261.476,104.234 261.569,104.292 261.641,104.375C262.043,104.836 262.412,105.497 261.776,105.916C261.131,106.341 260.434,106.575 259.691,106.628C259.492,106.642 259.34,106.806 259.34,107.004L259.34,107.866C259.34,108.129 259.123,108.339 258.86,108.331C258.52,108.32 257.967,108.26 257.2,108.15C256.922,108.111 256.717,108.123 256.585,108.19C256.314,108.328 256.299,108.709 256.558,108.866C257.939,109.7 259.459,110.141 261.122,110.195C261.207,110.198 261.253,110.297 261.201,110.367C260.361,111.49 259.108,111.831 257.768,111.874C257.643,111.878 257.527,111.926 257.435,112.011C257.14,112.284 256.939,112.555 256.833,112.83C256.39,113.976 256.001,114.829 255.659,115.383C254.878,116.647 253.8,115.844 252.856,115.444C252.822,115.429 252.786,115.422 252.746,115.422L251.747,115.422C251.643,115.422 251.544,115.39 251.462,115.331C250.818,114.865 250.284,114.27 249.83,113.579C249.782,113.506 249.677,113.496 249.616,113.561C249.171,114.037 248.674,114.063 248.112,113.625C247.776,113.363 247.418,113.17 247.039,113.05L247.531,111.987C247.586,111.871 247.559,111.733 247.467,111.644C246.715,110.923 246.899,109.708 247.29,108.838C247.332,108.743 247.317,108.634 247.253,108.554C246.931,108.154 246.679,107.707 246.498,107.218Z" style="fill:white;fill-opacity:0.5;"/>
    <path d="M259.083,93.108C260.015,93.484 260.66,94.114 261.012,94.997C261.638,96.569 261.974,97.47 262.026,97.7C262.048,97.794 262.133,97.865 262.231,97.862C262.537,97.855 262.888,97.962 263.289,98.182C263.371,98.228 263.429,98.314 263.436,98.409C263.472,98.876 263.436,99.317 263.329,99.726C263.295,99.848 263.286,99.98 263.301,100.108C263.374,100.735 263.674,101.707 264.2,103.018C264.817,104.556 265.254,106.271 265.511,108.163C265.539,108.358 265.606,108.545 265.716,108.707C266.495,109.871 266.3,111.125 265.123,112.464L264.845,113.099C264.799,113.209 264.799,113.332 264.845,113.442C265.494,115.006 264.253,115.677 263.521,116.761C263.082,117.413 262.573,117.751 261.871,117.706C261.641,117.691 261.41,117.795 261.167,118.018C260.787,118.367 260.333,118.567 259.804,118.626C259.56,118.653 259.382,118.736 259.275,118.874C259.147,119.039 259.165,119.219 259.33,119.418C259.413,119.836 259.508,120.237 259.612,120.616C259.773,121.206 259.826,121.606 259.767,121.811C259.46,122.893 258.355,123.175 257.548,122.352C257.111,121.906 257.34,120.637 257.313,119.943C257.492,119.446 257.154,119.396 256.3,119.793C256.274,119.788 256.24,119.805 256.197,119.843C255.314,119.775 254.653,119.638 254.219,119.433C253.715,119.195 253.256,118.99 252.85,118.822C252.593,118.715 252.321,118.656 252.043,118.647C250.802,118.609 249.922,118.815 248.806,118.03C247.791,117.26 247.859,116.575 247.886,115.493C247.888,115.398 247.822,115.313 247.727,115.294C246.701,115.085 246.883,113.824 247.039,113.05C247.418,113.17 247.776,113.363 248.112,113.625C248.674,114.063 249.171,114.037 249.616,113.561C249.677,113.496 249.782,113.506 249.83,113.579C250.284,114.27 250.818,114.865 251.462,115.331C251.544,115.39 251.643,115.422 251.747,115.422L252.746,115.422C252.786,115.422 252.822,115.429 252.856,115.444C253.8,115.844 254.878,116.647 255.659,115.383C256.001,114.829 256.39,113.976 256.833,112.83C256.939,112.555 257.14,112.284 257.435,112.011C257.527,111.926 257.643,111.878 257.768,111.874C259.108,111.831 260.361,111.49 261.201,110.367C261.253,110.297 261.207,110.198 261.122,110.195C259.459,110.141 257.939,109.7 256.558,108.866C256.299,108.709 256.314,108.328 256.585,108.19C256.717,108.123 256.922,108.111 257.2,108.15C257.967,108.26 258.52,108.32 258.86,108.331C259.123,108.339 259.34,108.129 259.34,107.866L259.34,107.004C259.34,106.806 259.492,106.642 259.691,106.628C260.434,106.575 261.131,106.341 261.776,105.916C262.412,105.497 262.043,104.836 261.641,104.375C261.569,104.292 261.476,104.234 261.375,104.204C260.56,103.96 259.899,103.725 259.391,103.495C258.535,103.108 256.723,101.954 256.622,100.937C256.601,100.729 256.799,100.567 256.998,100.628L259.523,101.377C259.667,101.42 259.819,101.337 259.862,101.193L260.156,100.203C260.171,100.151 260.208,100.105 260.253,100.078L260.88,99.714C260.941,99.68 260.987,99.625 261.012,99.561C261.472,98.353 260.38,97.617 259.465,97.308C259.282,97.246 259.227,97.012 259.367,96.877C259.927,96.34 260.27,95.93 260.027,95.117C259.833,94.466 259.52,93.796 259.083,93.108Z" style="fill:white;fill-opacity:0.35;"/>
    <path d="M179.119,97.379C178.489,97.119 177.765,97.05 176.948,97.168C176.841,97.183 176.735,97.143 176.667,97.061C176.379,96.713 176.044,96.466 175.674,96.321C175.579,96.284 175.478,96.279 175.38,96.303C174.644,96.483 174.198,96.818 174.044,97.32C174.007,97.443 173.919,97.541 173.803,97.589C172.834,97.997 172.339,98.962 171.74,99.769C171.667,99.867 171.55,99.922 171.428,99.919C170.306,99.889 169.553,100.314 169.178,101.199C169.076,101.44 168.976,101.97 168.875,102.783C168.949,102.566 169.047,102.493 169.172,102.569C169.554,102.801 169.961,102.975 170.398,103.092C170.511,103.122 170.627,103.107 170.728,103.052C170.854,102.982 170.966,102.884 171.067,102.761C171.193,102.609 171.44,102.694 171.446,102.89C171.478,103.841 171.021,104.537 170.071,104.981C169.303,105.338 168.551,105.705 167.815,106.075C167.659,106.848 167.724,107.536 168.004,108.144C168.056,108.257 168.06,108.389 168.013,108.505C167.577,109.593 166.982,110.753 168.166,111.363C168.233,111.398 168.253,111.486 168.206,111.547C167.803,112.069 167.659,112.748 167.79,113.607C167.803,113.686 167.839,113.76 167.897,113.818L168.289,114.209C168.359,114.279 168.377,114.389 168.331,114.478L167.913,115.282C168.313,115.658 168.708,115.95 169.092,116.159C169.512,116.387 169.898,116.267 170.242,115.798C170.266,115.765 170.318,115.771 170.337,115.808C170.672,116.482 171.196,117.085 171.92,117.62C172.015,117.69 172.134,117.709 172.244,117.672C173.486,117.254 174.757,119.204 175.741,117.455C175.989,117.015 176.305,116.291 176.685,115.282C176.888,114.744 177.208,114.417 177.887,114.35C179.174,114.222 179.937,113.944 180.638,113.05C180.712,112.956 180.647,112.815 180.528,112.812C179.14,112.774 177.829,112.42 176.594,111.761C176.325,111.617 176.226,111.292 176.383,111.064C176.41,111.024 176.536,111.004 176.762,111.009C177.135,111.016 177.761,111.085 178.639,111.192C178.825,111.215 178.99,111.07 178.99,110.883L178.99,109.951C178.99,109.758 179.14,109.598 179.333,109.584C180.127,109.525 180.818,109.26 181.408,108.78C181.506,108.701 181.546,108.575 181.515,108.456C181.421,108.095 181.286,107.799 181.105,107.567C181.029,107.469 180.922,107.402 180.803,107.374C179.57,107.087 176.634,105.867 176.536,104.354C176.526,104.204 176.67,104.088 176.814,104.131L179.189,104.837C179.348,104.886 179.513,104.773 179.528,104.608L179.617,103.721C179.623,103.648 179.675,103.587 179.742,103.565L180.292,103.388C180.366,103.364 180.428,103.309 180.464,103.241C181.059,102.115 179.797,101.429 178.966,101.135C178.776,101.068 178.749,100.808 178.92,100.701C179.645,100.247 179.871,99.644 179.574,98.898C179.547,98.83 179.403,98.586 179.14,98.161C178.908,97.785 178.902,97.525 179.119,97.379Z" style="fill:white;fill-opacity:0.5;"/>
    <path d="M169.45,120.041C170.355,120.506 171.431,120.666 172.681,120.515C172.782,120.503 172.883,120.527 172.968,120.579C173.839,121.113 174.741,121.462 175.68,121.618C176.083,121.686 176.484,121.6 176.878,121.362C177.025,121.273 177.214,121.383 177.205,121.557L177.153,122.535L177.138,123.44C177.138,123.514 177.157,123.587 177.193,123.648C177.903,124.848 179.312,124.461 179.412,123.184C179.448,122.728 179.134,122.23 179.119,121.683L178.874,121.035C178.834,120.928 178.862,120.811 178.941,120.732C179.14,120.533 179.397,120.46 179.712,120.506C179.816,120.521 179.919,120.494 179.999,120.429L180.858,119.757C180.943,119.69 181.057,119.659 181.167,119.674C181.843,119.772 182.337,119.552 182.646,118.999C182.817,118.672 183.043,118.36 183.325,118.07C183.761,117.62 183.996,117.324 184.034,117.18C184.108,116.895 184.137,116.526 184.104,116.07C184.101,116.034 184.086,115.997 184.058,115.973L183.866,115.78C183.811,115.725 183.801,115.639 183.841,115.572C184.653,114.231 185.951,112.969 184.673,111.43C184.578,111.317 184.523,111.177 184.511,111.03C184.413,109.899 184.319,109.211 184.236,108.967C183.905,107.997 183.648,107.14 183.484,106.39C183.455,106.262 183.407,106.14 183.337,106.029C183.001,105.496 182.821,105.069 182.784,104.758C182.715,104.192 182.63,103.865 182.533,103.776C182.456,103.706 182.444,103.59 182.502,103.504C182.701,103.211 182.777,102.761 182.726,102.159C182.717,102.058 182.655,101.967 182.567,101.918C182.208,101.718 181.888,101.617 181.607,101.618C181.506,101.619 181.414,101.554 181.381,101.456C180.865,99.947 180.549,99.057 180.424,98.791C180.184,98.281 179.751,97.81 179.119,97.379C178.902,97.525 178.908,97.785 179.14,98.161C179.403,98.586 179.547,98.83 179.574,98.898C179.871,99.644 179.645,100.247 178.92,100.701C178.749,100.808 178.776,101.068 178.966,101.135C179.797,101.429 181.059,102.115 180.464,103.241C180.428,103.309 180.366,103.364 180.292,103.388L179.742,103.565C179.675,103.587 179.623,103.648 179.617,103.721L179.528,104.608C179.513,104.773 179.348,104.886 179.189,104.837L176.814,104.131C176.67,104.088 176.526,104.204 176.536,104.354C176.634,105.867 179.57,107.087 180.803,107.374C180.922,107.402 181.029,107.469 181.105,107.567C181.286,107.799 181.421,108.095 181.515,108.456C181.546,108.575 181.506,108.701 181.408,108.78C180.818,109.26 180.127,109.525 179.333,109.584C179.14,109.598 178.99,109.758 178.99,109.951L178.99,110.883C178.99,111.07 178.825,111.215 178.639,111.192C177.761,111.085 177.135,111.016 176.762,111.009C176.536,111.004 176.41,111.024 176.383,111.064C176.226,111.292 176.325,111.617 176.594,111.761C177.829,112.42 179.14,112.774 180.528,112.812C180.647,112.815 180.712,112.956 180.638,113.05C179.937,113.944 179.174,114.222 177.887,114.35C177.208,114.417 176.888,114.744 176.685,115.282C176.305,116.291 175.989,117.015 175.741,117.455C174.757,119.204 173.486,117.254 172.244,117.672C172.134,117.709 172.015,117.69 171.92,117.62C171.196,117.085 170.672,116.482 170.337,115.808C170.318,115.771 170.266,115.765 170.242,115.798C169.898,116.267 169.512,116.387 169.092,116.159C168.708,115.95 168.313,115.658 167.913,115.282C167.744,115.817 167.697,116.37 167.778,116.936C167.793,117.04 167.839,117.131 167.916,117.201C168.114,117.383 168.298,117.478 168.469,117.486C168.542,117.489 168.597,117.547 168.597,117.62L168.597,118.791C168.597,118.889 168.631,118.987 168.689,119.063L169.45,120.041Z" style="fill:white;fill-opacity:0.35;"/>
    <path d="M246.996,102.648C247.125,101.566 247.525,100.652 248.201,99.91C248.265,99.836 248.299,99.741 248.292,99.647L248.25,98.87C248.479,98.904 248.788,99.035 249.182,99.268C249.778,99.619 250.256,99.589 250.609,99.176C250.769,98.99 251.076,99.112 251.062,99.359C251.007,100.298 250.585,100.989 249.79,101.432C248.907,101.924 247.978,102.327 246.996,102.648Z" style="fill:white;fill-opacity:0.35;"/>
    <path d="M37.821,119.998L38.548,118.094C38.585,118.002 38.585,117.901 38.555,117.81C38.191,116.752 38.121,115.691 38.35,114.625C39.313,114.46 40.438,114.013 41.718,113.286C42.752,112.699 43.173,111.831 42.981,110.681C42.95,110.498 42.715,110.446 42.611,110.596C42.061,111.388 41.33,111.021 40.658,110.685C40.309,110.51 40.016,110.296 39.774,110.049C39.964,108.426 40.691,107.371 41.96,106.879C41.996,106.864 42.033,106.857 42.073,106.857L43.192,106.857C43.293,106.857 43.384,106.812 43.445,106.732C43.598,106.53 43.959,105.992 44.524,105.121C44.732,104.797 45.24,104.366 46.05,103.831C46.255,103.697 46.426,103.52 46.551,103.312L46.848,102.826C46.909,102.728 46.994,102.648 47.095,102.596L47.92,102.156C47.985,102.123 48.055,102.101 48.128,102.095C48.691,102.049 49.25,102.355 49.806,103.018C49.92,103.153 50.085,103.232 50.262,103.235L52.502,103.278C52.882,104.082 53.312,104.85 53.799,105.577C53.948,105.8 53.94,106.28 53.771,107.02C53.753,107.099 53.71,107.169 53.649,107.224L52.768,107.976C52.606,108.114 52.655,108.377 52.857,108.447C54.057,108.861 55.013,109.199 55.046,110.743C55.055,111.195 54.739,111.491 54.101,111.638C53.908,111.683 53.775,111.855 53.777,112.054C53.781,112.353 53.724,112.715 53.603,113.133C53.558,113.289 53.395,113.378 53.239,113.332L50.222,112.439C49.907,112.344 49.623,112.662 49.751,112.965C50.664,115.119 53.487,116.202 55.443,116.715C55.574,116.75 55.687,116.832 55.761,116.945C55.978,117.278 56.132,117.654 56.219,118.076C56.247,118.21 56.213,118.351 56.128,118.458C55.47,119.28 54.465,119.472 53.395,119.625C53.141,119.662 52.955,119.879 52.955,120.133L52.955,121.111C52.955,121.435 52.674,121.69 52.35,121.655C51.2,121.533 50.069,121.313 49.614,121.518C49.369,121.628 49.314,121.949 49.51,122.132C50.805,123.344 53.291,123.779 54.963,123.841C55.107,123.846 55.189,124.009 55.104,124.125C54.11,125.482 52.863,125.699 51.286,125.849C50.879,125.888 50.518,126.118 50.314,126.466C50.023,126.964 49.63,127.817 49.134,129.025C48.71,130.057 48.024,131.337 46.817,130.868C46.753,130.843 46.241,130.61 45.279,130.162C45.084,130.071 44.673,130.085 44.051,130.229C43.949,130.253 43.843,130.229 43.757,130.168C42.85,129.522 42.163,128.769 41.682,127.912C41.618,127.799 41.459,127.787 41.382,127.891C41.173,128.173 40.933,128.34 40.667,128.389C40.563,128.408 40.456,128.401 40.355,128.368C39.662,128.141 39.01,127.717 38.408,127.081L38.934,126.075C38.995,125.956 38.992,125.815 38.928,125.699C38.833,125.528 38.683,125.357 38.478,125.183C38.396,125.112 38.338,125.017 38.316,124.914C38.098,123.876 38.252,122.961 38.787,122.16C38.842,122.077 38.818,121.964 38.732,121.912C38.096,121.526 37.793,120.888 37.821,119.998Z" style="fill:white;fill-opacity:0.5;"/>
    <path d="M168.875,102.783C168.952,102.933 168.992,103.076 168.998,103.22C169.001,103.318 168.964,103.412 168.897,103.483C168.216,104.199 167.858,105.063 167.815,106.075C168.551,105.705 169.303,105.338 170.071,104.981C171.021,104.537 171.478,103.841 171.446,102.89C171.44,102.694 171.193,102.609 171.067,102.761C170.966,102.884 170.854,102.982 170.728,103.052C170.627,103.107 170.511,103.122 170.398,103.092C169.961,102.975 169.554,102.801 169.172,102.569C169.047,102.493 168.949,102.566 168.875,102.783Z" style="fill:white;fill-opacity:0.35;"/>
    <path d="M52.502,103.278C53.551,103.691 54.303,104.372 54.755,105.323C54.923,105.681 55.027,105.904 55.061,105.992C55.737,107.747 56.082,108.701 56.1,108.85C56.116,108.973 56.219,109.068 56.342,109.071C56.745,109.08 57.176,109.223 57.638,109.499C57.736,109.557 57.797,109.664 57.794,109.78C57.791,110.29 57.855,110.727 57.992,111.091L57.616,111.464C57.537,111.543 57.509,111.66 57.543,111.767L59.915,119.054C59.93,119.106 59.943,119.158 59.949,119.21L60.276,121.964C60.716,122.419 60.963,122.737 61.015,122.918C61.495,124.555 60.452,125.633 59.408,127.335C59.359,127.414 59.352,127.515 59.389,127.604C59.869,128.725 59.744,129.664 58.983,130.431C58.46,130.957 58.118,131.361 57.956,131.638C57.501,132.416 56.99,132.916 56.223,132.876C55.801,132.855 55.568,132.852 55.523,132.867C55.434,132.897 55.352,132.953 55.29,133.026C54.739,133.682 54.095,134.006 53.361,134.01C52.998,134.013 52.732,134.353 52.817,134.707L53.245,136.444C53.704,137.373 53.547,138.148 52.775,138.773C51.967,139.426 51,138.87 50.583,138.045C50.546,137.972 50.525,137.886 50.525,137.801L50.54,136.798L50.586,135.337C50.595,135.062 50.284,134.895 50.06,135.056C49.63,135.366 49.113,135.486 48.517,135.417C48.07,135.364 47.697,134.979 47.254,135.071C47.107,135.102 46.939,135.047 46.747,134.909C46.557,134.772 46.383,134.695 46.221,134.683C46.105,134.674 45.997,134.62 45.915,134.533C45.888,134.505 45.808,134.433 45.671,134.316C45.56,134.222 45.322,134.147 44.955,134.09C44.054,133.95 43.06,133.907 41.975,133.983C41.859,133.991 41.742,133.972 41.633,133.928C40.628,133.522 39.881,132.851 39.362,131.972C39.334,131.926 39.322,131.874 39.322,131.819L39.322,130.18C39.322,130.083 39.252,130 39.157,129.982C38.677,129.888 38.383,129.642 38.276,129.248C38.275,129.233 38.273,129.219 38.272,129.204C38.199,128.477 38.243,127.77 38.408,127.081C39.01,127.717 39.662,128.141 40.355,128.368C40.456,128.401 40.563,128.408 40.667,128.389C40.933,128.34 41.173,128.173 41.382,127.891C41.459,127.787 41.618,127.799 41.682,127.912C42.163,128.769 42.85,129.522 43.757,130.168C43.843,130.229 43.949,130.253 44.051,130.229C44.673,130.085 45.084,130.071 45.279,130.162C46.241,130.61 46.753,130.843 46.817,130.868C48.024,131.337 48.71,130.057 49.134,129.025C49.63,127.817 50.023,126.964 50.314,126.466C50.518,126.118 50.879,125.888 51.286,125.849C52.863,125.699 54.11,125.482 55.104,124.125C55.189,124.009 55.107,123.846 54.963,123.841C53.291,123.779 50.805,123.344 49.51,122.132C49.314,121.949 49.369,121.628 49.614,121.518C50.069,121.313 51.2,121.533 52.35,121.655C52.674,121.69 52.955,121.435 52.955,121.111L52.955,120.133C52.955,119.879 53.141,119.662 53.395,119.625C54.465,119.472 55.47,119.28 56.128,118.458C56.213,118.351 56.247,118.21 56.219,118.076C56.132,117.654 55.978,117.278 55.761,116.945C55.687,116.832 55.574,116.75 55.443,116.715C53.487,116.202 50.664,115.119 49.751,112.965C49.623,112.662 49.907,112.344 50.222,112.439L53.239,113.332C53.395,113.378 53.558,113.289 53.603,113.133C53.724,112.715 53.781,112.353 53.777,112.054C53.775,111.855 53.908,111.683 54.101,111.638C54.739,111.491 55.055,111.195 55.046,110.743C55.013,109.199 54.057,108.861 52.857,108.447C52.655,108.377 52.606,108.114 52.768,107.976L53.649,107.224C53.71,107.169 53.753,107.099 53.771,107.02C53.94,106.28 53.948,105.8 53.799,105.577C53.312,104.85 52.882,104.082 52.502,103.278Z" style="fill:white;fill-opacity:0.35;"/>
    <path d="M57.992,111.091L75.523,103.342C75.96,103.688 76.666,104.003 77.644,104.287C78.203,104.449 78.894,104.81 79.723,105.369C81.55,106.602 82.02,108.518 80.56,110.263C79.155,111.942 77.43,113.402 75.388,114.64C70.647,117.516 65.61,119.956 60.276,121.964L59.949,119.21C59.943,119.158 59.93,119.106 59.915,119.054L57.543,111.767C57.509,111.66 57.537,111.543 57.616,111.464L57.992,111.091Z" style="fill:white;fill-opacity:0.75;"/>
    <path d="M38.35,114.625L38.64,113.271C38.701,112.989 38.824,112.726 39.004,112.5L39.731,111.586C39.805,111.495 39.841,111.381 39.835,111.268L39.774,110.049C40.016,110.296 40.309,110.51 40.658,110.685C41.33,111.021 42.061,111.388 42.611,110.596C42.715,110.446 42.95,110.498 42.981,110.681C43.173,111.831 42.752,112.699 41.718,113.286C40.438,114.013 39.313,114.46 38.35,114.625Z" style="fill:white;fill-opacity:0.35;"/>
    <path d="M256.365,119.965C255.036,120.601 253.864,121.383 254.696,123.073C254.761,123.205 254.705,123.367 254.574,123.431C253.791,123.815 253.394,124.391 254.33,124.984C257.566,127.033 260.993,127.405 264.615,126.106C264.939,125.99 265.534,125.85 266.394,125.666C266.505,125.642 266.608,125.583 266.685,125.501C267.236,124.909 267.645,124.595 267.898,124.556C268.464,124.469 269.359,124.355 270.588,124.217C270.976,124.173 271.611,123.924 272.499,123.477C272.609,123.422 272.702,123.334 272.762,123.223C272.945,122.886 272.985,122.612 273.269,122.236C273.544,121.872 273.722,121.557 273.804,121.291C273.927,120.894 273.792,120.459 273.459,120.191C269.856,117.291 263.356,117.984 259.33,119.418C259.413,119.836 259.508,120.237 259.612,120.616C259.773,121.206 259.826,121.606 259.767,121.811C259.46,122.893 258.355,123.175 257.548,122.352C257.111,121.906 257.34,120.637 257.313,119.943C257.059,119.797 256.744,119.803 256.365,119.965Z" style="fill:white;fill-opacity:0.65;"/>
    <path d="M256.3,119.793C256.267,119.809 256.232,119.825 256.197,119.843C256.24,119.805 256.274,119.788 256.3,119.793Z" style="fill:white;fill-opacity:0.95;"/>
    <path d="M256.3,119.793C256.34,119.801 256.362,119.858 256.365,119.965C256.744,119.803 257.059,119.797 257.313,119.943C257.492,119.446 257.154,119.396 256.3,119.793Z" style="fill:white;fill-opacity:0.95;"/>
    <path d="M7.116,133.555L37.821,119.998C37.793,120.888 38.096,121.526 38.732,121.912C38.818,121.964 38.842,122.077 38.787,122.16C38.252,122.961 38.098,123.876 38.316,124.914C38.338,125.017 38.396,125.112 38.478,125.183C38.683,125.357 38.833,125.528 38.928,125.699C38.992,125.815 38.995,125.956 38.934,126.075L38.408,127.081C38.243,127.77 38.199,128.477 38.272,129.204C38.249,129.002 38.208,128.845 38.148,128.731C38.103,128.646 38.011,128.594 37.913,128.6C35.831,128.725 33.912,128.925 32.148,129.221C31.488,129.331 30.699,129.658 30.039,130.141C29.149,130.792 28.293,131.25 27.474,131.516C21.61,133.425 15.103,134.014 8.962,133.907C8.287,133.895 7.669,133.778 7.116,133.555Z" style="fill:white;fill-opacity:0.75;"/>
    <path d="M177.153,122.535C176.701,122.82 176.224,122.951 175.723,122.93C175.298,122.912 175.01,122.926 174.854,122.976C173.82,123.303 173.151,124.008 173.751,125.161C173.797,125.25 173.797,125.354 173.754,125.442C173.748,125.455 173.672,125.574 173.528,125.803C173.01,126.624 173.766,127.543 174.463,127.918C175.105,128.264 175.888,128.514 176.811,128.67C179.464,129.121 182.096,129.007 184.709,128.325C186.161,127.946 187.476,127.634 188.646,127.39C189.683,127.173 190.633,126.826 191.498,126.353C192.54,125.784 193.898,124.113 192.761,122.976C192.269,122.484 191.63,122.102 190.844,121.836C188.352,120.99 185.761,120.546 183.071,120.515C181.338,120.495 180.479,121.013 179.119,121.683C179.134,122.23 179.448,122.728 179.412,123.184C179.312,124.461 177.903,124.848 177.193,123.648C177.157,123.587 177.138,123.514 177.138,123.44L177.153,122.535Z" style="fill:white;fill-opacity:0.65;"/>
    <path d="M299.71,122.768C299.884,124.834 299.912,126.91 299.786,128.997C298.56,131.302 297.755,132.775 297.374,133.414C296.767,134.434 295.95,135.499 294.914,136.606C293.624,137.982 292.23,137.547 290.439,137.281C288.296,136.963 286.752,137.978 285.52,139.595C284.689,140.686 283.902,141.78 283.161,142.875C282.126,144.402 280.747,146.05 278.704,147.102C277.271,147.841 274.978,148.114 273.682,148.695C272.19,149.364 270.909,150.404 269.839,151.81C268.772,153.213 267.763,154.82 266.55,156.059C265.697,156.93 265.151,157.441 264.915,157.593C262.63,159.073 260.449,159.192 257.34,159.702C253.113,160.39 250.865,164.149 248.638,167.222C247.668,168.56 246.358,169.974 245.227,170.817C243.427,172.157 241.586,172.516 239.238,172.8C237.603,172.999 236.288,173.772 235.289,175.124C233.802,177.137 232.51,179.235 230.377,179.972C229.45,180.291 228.552,180.721 227.675,181.255C226.306,182.09 225.037,183.887 224.166,185.299C222.888,187.372 221.016,190.736 218.92,193.125C217.657,194.564 216.151,195.572 214.399,196.139C214.305,196.169 214.207,196.188 214.106,196.194C212.303,196.293 211.18,196.277 210.74,196.175C207.893,195.516 206.006,195.179 205.073,195.182C202.521,195.191 200.454,196.095 198.874,197.902C197.942,198.969 197.263,200.622 196.527,201.589C196.12,202.123 195.608,202.539 194.986,202.83C194.901,202.87 194.812,202.897 194.717,202.912C193.021,203.182 192.061,203.343 191.838,203.411C190.171,203.914 188.85,204.896 187.876,206.357C186.992,207.683 186.03,208.806 184.981,209.726C183.729,210.824 182.417,211.204 181.05,210.872C179.623,210.525 178.134,209.634 176.591,208.194L176.658,202.448C176.875,202.332 177.101,202.218 177.343,202.108C177.593,201.995 177.816,201.873 178.012,201.745C218.153,175.416 258.295,149.09 298.454,122.792C298.78,122.578 299.199,122.569 299.71,122.768Z" style="fill:white;fill-opacity:0.5;"/>
    <path d="M299.786,128.997C299.844,135.279 299.86,141.487 299.835,147.628C299.835,148.279 300.358,148.992 299.542,149.566C299.187,149.817 258.704,178.452 178.088,235.476C177.985,235.549 177.868,235.598 177.746,235.626L176.863,235.812C176.768,235.503 176.692,235.219 176.633,234.962C176.576,234.711 176.545,234.421 176.545,234.094C176.543,225.752 176.542,217.413 176.548,209.075L176.591,208.194C178.134,209.634 179.623,210.525 181.05,210.872C182.417,211.204 183.729,210.824 184.981,209.726C186.03,208.806 186.992,207.683 187.876,206.357C188.85,204.896 190.171,203.914 191.838,203.411C192.061,203.343 193.021,203.182 194.717,202.912C194.812,202.897 194.901,202.87 194.986,202.83C195.608,202.539 196.12,202.123 196.527,201.589C197.263,200.622 197.942,198.969 198.874,197.902C200.454,196.095 202.521,195.191 205.073,195.182C206.006,195.179 207.893,195.516 210.74,196.175C211.18,196.277 212.303,196.293 214.106,196.194C214.207,196.188 214.305,196.169 214.399,196.139C216.151,195.572 217.657,194.564 218.92,193.125C221.016,190.736 222.888,187.372 224.166,185.299C225.037,183.887 226.306,182.09 227.675,181.255C228.552,180.721 229.45,180.291 230.377,179.972C232.51,179.235 233.802,177.137 235.289,175.124C236.288,173.772 237.603,172.999 239.238,172.8C241.586,172.516 243.427,172.157 245.227,170.817C246.358,169.974 247.668,168.56 248.638,167.222C250.865,164.149 253.113,160.39 257.34,159.702C260.449,159.192 262.63,159.073 264.915,157.593C265.151,157.441 265.697,156.93 266.55,156.059C267.763,154.82 268.772,153.213 269.839,151.81C270.909,150.404 272.19,149.364 273.682,148.695C274.978,148.114 277.271,147.841 278.704,147.102C280.747,146.05 282.126,144.402 283.161,142.875C283.902,141.78 284.689,140.686 285.52,139.595C286.752,137.978 288.296,136.963 290.439,137.281C292.23,137.547 293.624,137.982 294.914,136.606C295.95,135.499 296.767,134.434 297.374,133.414C297.755,132.775 298.56,131.302 299.786,128.997Z" style="fill:white;fill-opacity:0.35;"/>
    <path d="M50.54,136.798C49.605,137.046 48.715,136.749 47.917,136.872C46.783,137.046 45.538,137.501 44.427,138.009C43.404,138.476 42.861,138.862 43.024,140.002C43.206,141.28 44.115,141.671 45.267,142.01C45.353,142.035 45.365,142.151 45.289,142.196L45.05,142.334C44.68,142.548 44.696,143.083 45.075,143.278C46.074,143.795 47.245,144.009 48.581,143.92C51.463,143.728 54.013,143.423 56.229,143.006C58.506,142.579 60.105,142.077 61.022,141.506C61.025,141.503 61.028,141.503 61.031,141.499L62.183,140.689C62.229,140.656 62.275,140.631 62.324,140.61C63.33,140.186 64.175,139.772 64.83,139.317C65.023,139.183 65.011,138.897 64.812,138.776C64.333,138.484 63.8,138.245 63.216,138.051C61.263,137.405 59.089,136.671 57.234,137.049C56.727,137.152 56.348,137.218 56.1,137.248C55.88,137.274 55.522,137.163 55.03,136.911C54.501,136.64 53.909,136.483 53.245,136.444C53.704,137.373 53.547,138.148 52.775,138.773C51.967,139.426 51,138.87 50.583,138.045C50.546,137.972 50.525,137.886 50.525,137.801L50.54,136.798Z" style="fill:white;fill-opacity:0.65;"/>
    <path d="M0.012,149.878C-0,145.669 -0.003,141.481 0.003,137.309C0.003,136.979 0.125,136.804 0.397,136.655C0.731,136.869 1.003,137.012 1.207,137.089C59.699,158.897 118.189,180.668 176.658,202.448L176.591,208.194L176.548,209.075C176.193,209.023 175.97,208.823 175.628,208.775C175.163,208.71 174.793,208.772 174.518,208.962C174.117,209.239 173.421,209.781 172.427,210.585C169.092,213.286 164.099,212.442 161.139,209.659C159.307,207.936 158.039,205.41 156.985,203.456C156.306,202.197 155.349,201.171 153.821,201.097C153.387,201.076 152.697,201.251 151.752,201.619C148.852,202.751 145.999,202.451 143.196,200.733C141.615,199.764 140.093,198.487 138.629,196.9C137.58,195.763 136.245,195.158 134.622,195.081C132.62,194.986 130.067,194.985 128.016,194.546C125.77,194.065 123.681,193.193 121.747,191.926C119.646,190.552 118.363,189.723 117.898,189.444C116.079,188.354 114.896,187.746 114.349,187.623C112.689,187.249 111.02,187.304 109.349,187.794C107.462,188.346 105.87,188.687 104.571,188.815C101.927,189.075 99.163,187.549 97.012,186.018C93.787,183.722 90.799,181.615 88.052,179.696C86.156,178.371 84.582,176.996 83.012,176.193C81.889,175.62 81.156,175.346 80.811,175.377C80.383,175.416 79.408,175.53 77.883,175.71C72.255,176.378 68.146,171.707 64.629,168.166C64.347,167.883 63.871,167.606 63.195,167.335C62.981,167.249 62.745,167.231 62.519,167.286C60.755,167.719 59.392,167.98 58.429,168.059C56.137,168.249 53.851,167.492 51.735,166.494C48.964,165.187 45.99,163.631 42.81,161.827C41.823,161.267 40.954,161.062 40.199,161.212C39.56,161.34 37.9,161.714 35.217,162.334C31.13,163.279 28.623,162.087 26.575,158.544C26.065,157.66 25.494,156.706 24.863,155.689C24.399,154.94 23.351,153.747 21.74,152.094C21.647,152 21.568,151.896 21.498,151.782C21.258,151.392 20.927,151.002 20.498,150.615C20.376,150.504 20.217,150.438 20.052,150.428C19.199,150.379 18.695,150.367 18.539,150.401C16.717,150.798 14.792,151.288 13.135,150.841C11.61,150.429 9.848,148.341 8.932,147.047C8.672,146.681 8.165,146.59 7.792,146.843C6.766,147.538 5.346,148.775 3.958,149.38C2.571,149.985 1.409,150.349 0.012,149.878Z" style="fill:white;fill-opacity:0.75;"/>
    <path d="M167.145,170.786C168.258,170.202 169.282,169.796 170.22,169.56C172.483,168.992 175.567,168.77 177.502,168.246C179.672,167.658 181.74,166.838 183.713,165.791C184.953,165.133 186.178,164.355 186.962,163.254C187.026,163.165 187.058,163.059 187.054,162.949C187.047,162.768 186.952,162.595 186.776,162.426C186.68,162.335 186.733,162.174 186.864,162.157C188.489,161.941 190.184,161.601 191.948,161.099C196.961,159.675 201.492,158.702 208.154,156.985C209.148,156.729 210.234,156.335 211.404,155.802C212.936,155.104 214.739,153.558 213.51,151.825C213.064,151.195 211.731,150.68 211.061,150.517C207.726,149.705 204.352,149.579 200.934,150.147C196.829,150.829 192.727,151.39 188.631,151.825C187.332,151.963 186.06,151.973 184.822,151.847C181.032,151.461 182.039,149.013 183.205,146.717C183.415,146.304 183.441,145.945 183.27,145.647C183.218,145.558 183.135,145.492 183.037,145.464C182.452,145.294 181.796,145.176 181.072,145.119C178.342,144.904 175.35,144.928 172.1,145.18C171.981,145.189 171.862,145.167 171.755,145.119C168.538,143.67 164.232,143.599 160.705,143.847C157.101,144.1 153.534,144.66 150.006,145.531C147.769,146.084 142.429,147.299 143.44,150.722C143.47,150.823 143.434,150.929 143.349,150.991C142.117,151.884 140.656,152.201 138.825,152.837C136.819,153.534 137.099,155.342 136.153,156.698C135.705,157.34 134.998,157.871 134.035,158.29C131.745,159.286 129.535,159.978 127.399,160.363C122.077,161.321 117.865,161.643 114.447,164.908C113.723,165.599 112.884,166.743 113.46,167.711C113.963,168.556 116.162,168.729 117.131,168.744C122.181,168.825 126.992,169.4 131.935,170.639C136.095,171.683 140.414,172.604 143.572,172.73C145.219,172.796 147.173,172.559 149.425,172.021C149.074,171.419 149.016,170.691 149.257,169.838L149.731,168.787C149.774,168.689 149.753,168.573 149.676,168.497L149.337,168.157C149.266,168.087 149.22,167.998 149.199,167.897C149.017,167.003 149.16,166.251 149.584,165.629C149.634,165.557 149.612,165.455 149.535,165.409C148.319,164.679 149.009,163.272 149.37,162.255C149.419,162.117 149.417,161.967 149.367,161.83C149.122,161.147 149.053,160.421 149.169,159.641L149.539,157.942C149.56,157.844 149.606,157.752 149.67,157.673L150.431,156.753C150.492,156.679 150.517,156.588 150.504,156.493L150.394,155.79C150.532,154.912 150.661,154.368 150.777,154.157C151.325,153.159 152.178,152.706 153.338,152.831C153.442,152.842 153.543,152.788 153.592,152.696C154.154,151.634 154.829,150.851 155.628,150.361C155.847,150.226 156.034,150.043 156.172,149.829C156.514,149.297 157.049,148.911 157.645,148.878C157.758,148.872 157.868,148.897 157.969,148.946C158.357,149.135 158.706,149.398 159.014,149.731C159.088,149.811 159.198,149.85 159.305,149.832C160.166,149.686 160.983,149.789 161.75,150.141C162.505,150.63 163.007,151.232 163.257,151.947C163.554,152.794 163.871,153.65 164.205,154.521C164.25,154.64 164.361,154.725 164.489,154.732C164.853,154.753 165.196,154.869 165.522,155.074C165.639,155.148 165.703,155.282 165.681,155.417L165.461,156.936C165.458,156.96 165.458,156.982 165.464,157.003C165.677,157.778 165.703,158.238 166.039,159.005C166.884,160.937 167.428,162.948 167.668,165.039C167.683,165.174 167.725,165.303 167.787,165.421C167.966,165.765 168.309,166.152 168.347,166.501C168.43,167.261 168.332,167.818 168.065,168.173C167.259,169.246 166.953,170.117 167.145,170.786Z" style="fill:white;fill-opacity:0.75;"/>
    <path d="M176.863,235.812C118.525,212.621 60.19,189.435 1.852,166.262C0.917,165.892 0.024,165.908 0.018,164.615C-0.003,159.684 -0.003,154.772 0.012,149.878C1.409,150.349 2.571,149.985 3.958,149.38C5.346,148.775 6.766,147.538 7.792,146.843C8.165,146.59 8.672,146.681 8.932,147.047C9.848,148.341 11.61,150.429 13.135,150.841C14.792,151.288 16.717,150.798 18.539,150.401C18.695,150.367 19.199,150.379 20.052,150.428C20.217,150.438 20.376,150.504 20.498,150.615C20.927,151.002 21.258,151.392 21.498,151.782C21.568,151.896 21.647,152 21.74,152.094C23.351,153.747 24.399,154.94 24.863,155.689C25.494,156.706 26.065,157.66 26.575,158.544C28.623,162.087 31.13,163.279 35.217,162.334C37.9,161.714 39.56,161.34 40.199,161.212C40.954,161.062 41.823,161.267 42.81,161.827C45.99,163.631 48.964,165.187 51.735,166.494C53.851,167.492 56.137,168.249 58.429,168.059C59.392,167.98 60.755,167.719 62.519,167.286C62.745,167.231 62.981,167.249 63.195,167.335C63.871,167.606 64.347,167.883 64.629,168.166C68.146,171.707 72.255,176.378 77.883,175.71C79.408,175.53 80.383,175.416 80.811,175.377C81.156,175.346 81.889,175.62 83.012,176.193C84.582,176.996 86.156,178.371 88.052,179.696C90.799,181.615 93.787,183.722 97.012,186.018C99.163,187.549 101.927,189.075 104.571,188.815C105.87,188.687 107.462,188.346 109.349,187.794C111.02,187.304 112.689,187.249 114.349,187.623C114.896,187.746 116.079,188.354 117.898,189.444C118.363,189.723 119.646,190.552 121.747,191.926C123.681,193.193 125.77,194.065 128.016,194.546C130.067,194.985 132.62,194.986 134.622,195.081C136.245,195.158 137.58,195.763 138.629,196.9C140.093,198.487 141.615,199.764 143.196,200.733C145.999,202.451 148.852,202.751 151.752,201.619C152.697,201.251 153.387,201.076 153.821,201.097C155.349,201.171 156.306,202.197 156.985,203.456C158.039,205.41 159.307,207.936 161.139,209.659C164.099,212.442 169.092,213.286 172.427,210.585C173.421,209.781 174.117,209.239 174.518,208.962C174.793,208.772 175.163,208.71 175.628,208.775C175.97,208.823 176.193,209.023 176.548,209.075C176.542,217.413 176.543,225.752 176.545,234.094C176.545,234.421 176.576,234.711 176.633,234.962C176.692,235.219 176.768,235.503 176.863,235.812Z" style="fill:white;fill-opacity:0.5;"/>
    <path d="M149.169,159.641C149.053,160.421 149.122,161.147 149.367,161.83C149.417,161.967 149.419,162.117 149.37,162.255C149.009,163.272 148.319,164.679 149.535,165.409C149.612,165.455 149.634,165.557 149.584,165.629C149.16,166.251 149.017,167.003 149.199,167.897C149.22,167.998 149.266,168.087 149.337,168.157L149.676,168.497C149.753,168.573 149.774,168.689 149.731,168.787L149.257,169.838C149.591,169.979 149.905,170.175 150.205,170.425C150.767,170.894 151.3,170.9 151.81,170.453C151.88,170.391 151.986,170.407 152.036,170.483C152.477,171.162 153.026,171.732 153.665,172.198C153.732,172.247 153.815,172.275 153.897,172.275L155.007,172.275C155.044,172.275 155.083,172.284 155.12,172.302C155.787,172.629 156.215,172.812 156.401,172.871C157.365,173.174 157.934,172.253 158.272,171.443C158.737,170.327 159.075,169.593 159.277,169.227C159.439,168.935 159.733,168.742 160.066,168.714C161.417,168.598 162.501,168.349 163.389,167.225C163.44,167.16 163.395,167.063 163.312,167.06C162.175,167.014 159.189,166.52 158.59,165.434C158.47,165.217 158.645,164.957 158.889,164.981L160.974,165.189C161.27,165.22 161.527,164.984 161.527,164.688L161.527,163.841C161.527,163.655 161.671,163.501 161.857,163.487C162.453,163.439 164.387,163.037 164.284,162.157C164.251,161.876 164.106,161.571 163.856,161.24C163.792,161.154 163.7,161.093 163.6,161.063C161.983,160.576 159.224,159.531 158.8,157.832C158.746,157.611 158.95,157.413 159.17,157.477L161.704,158.229C161.854,158.272 162.013,158.186 162.056,158.036L162.325,157.132C162.349,157.046 162.404,156.976 162.484,156.93L163.031,156.615C163.132,156.557 163.205,156.459 163.236,156.343C163.563,155.096 162.52,154.471 161.53,154.142C161.402,154.1 161.363,153.935 161.46,153.84C161.829,153.478 162.064,153.209 162.172,153.045C162.657,152.305 161.961,151.107 161.438,150.443C161.359,150.343 161.396,150.194 161.515,150.141C161.549,150.126 161.625,150.126 161.75,150.141C160.983,149.789 160.166,149.686 159.305,149.832C159.198,149.85 159.088,149.811 159.014,149.731C158.706,149.398 158.357,149.135 157.969,148.946C157.868,148.897 157.758,148.872 157.645,148.878C157.049,148.911 156.514,149.297 156.172,149.829C156.034,150.043 155.847,150.226 155.628,150.361C154.829,150.851 154.154,151.634 153.592,152.696C153.543,152.788 153.442,152.842 153.338,152.831C152.178,152.706 151.325,153.159 150.777,154.157C150.661,154.368 150.532,154.912 150.394,155.79C150.682,155.805 151.058,155.939 151.525,156.193C152.085,156.498 152.501,156.435 152.773,156.001C152.904,155.79 153.232,155.878 153.237,156.129C153.257,157.031 152.871,157.701 152.085,158.143C151.128,158.682 150.156,159.18 149.169,159.641Z" style="fill:white;fill-opacity:0.5;"/>
    <path d="M149.425,172.021L149.89,172.149C150.009,172.183 150.083,172.299 150.064,172.418C149.823,173.986 150.572,174.991 152.299,175.469C152.342,175.481 152.384,175.487 152.43,175.487L154.555,175.487C154.704,175.487 154.851,175.53 154.976,175.607C155.822,176.119 156.807,176.473 157.929,176.67C158.351,176.744 158.779,176.642 159.213,176.371C159.351,176.285 159.528,176.386 159.525,176.548L159.507,177.392C159.531,178.168 159.183,178.827 160.029,179.427C160.675,179.885 161.225,179.795 161.686,179.155C162.304,178.297 161.747,177.688 161.692,176.857L161.42,176.047C161.334,175.799 161.512,175.542 161.775,175.53C162.398,175.502 162.929,175.273 163.37,174.842C163.694,174.527 164.032,174.511 164.422,174.576C164.505,174.59 164.586,174.576 164.657,174.537C165.216,174.228 165.538,173.993 165.614,173.812C165.771,173.437 165.925,173.191 166.082,173.072C166.89,172.457 167.246,171.694 167.145,170.786C166.953,170.117 167.259,169.246 168.065,168.173C168.332,167.818 168.43,167.261 168.347,166.501C168.309,166.152 167.966,165.765 167.787,165.421C167.725,165.303 167.683,165.174 167.668,165.039C167.428,162.948 166.884,160.937 166.039,159.005C165.703,158.238 165.677,157.778 165.464,157.003C165.458,156.982 165.458,156.96 165.461,156.936L165.681,155.417C165.703,155.282 165.639,155.148 165.522,155.074C165.196,154.869 164.853,154.753 164.489,154.732C164.361,154.725 164.25,154.64 164.205,154.521C163.871,153.65 163.554,152.794 163.257,151.947C163.007,151.232 162.505,150.63 161.75,150.141C161.625,150.126 161.549,150.126 161.515,150.141C161.396,150.194 161.359,150.343 161.438,150.443C161.961,151.107 162.657,152.305 162.172,153.045C162.064,153.209 161.829,153.478 161.46,153.84C161.363,153.935 161.402,154.1 161.53,154.142C162.52,154.471 163.563,155.096 163.236,156.343C163.205,156.459 163.132,156.557 163.031,156.615L162.484,156.93C162.404,156.976 162.349,157.046 162.325,157.132L162.056,158.036C162.013,158.186 161.854,158.272 161.704,158.229L159.17,157.477C158.95,157.413 158.746,157.611 158.8,157.832C159.224,159.531 161.983,160.576 163.6,161.063C163.7,161.093 163.792,161.154 163.856,161.24C164.106,161.571 164.251,161.876 164.284,162.157C164.387,163.037 162.453,163.439 161.857,163.487C161.671,163.501 161.527,163.655 161.527,163.841L161.527,164.688C161.527,164.984 161.27,165.22 160.974,165.189L158.889,164.981C158.645,164.957 158.47,165.217 158.59,165.434C159.189,166.52 162.175,167.014 163.312,167.06C163.395,167.063 163.44,167.16 163.389,167.225C162.501,168.349 161.417,168.598 160.066,168.714C159.733,168.742 159.439,168.935 159.277,169.227C159.075,169.593 158.737,170.327 158.272,171.443C157.934,172.253 157.365,173.174 156.401,172.871C156.215,172.812 155.787,172.629 155.12,172.302C155.083,172.284 155.044,172.275 155.007,172.275L153.897,172.275C153.815,172.275 153.732,172.247 153.665,172.198C153.026,171.732 152.477,171.162 152.036,170.483C151.986,170.407 151.88,170.391 151.81,170.453C151.3,170.9 150.767,170.894 150.205,170.425C149.905,170.175 149.591,169.979 149.257,169.838C149.016,170.691 149.074,171.419 149.425,172.021Z" style="fill:white;fill-opacity:0.35;"/>
    <path d="M150.394,155.79L150.504,156.493C150.517,156.588 150.492,156.679 150.431,156.753L149.67,157.673C149.606,157.752 149.56,157.844 149.539,157.942L149.169,159.641C150.156,159.18 151.128,158.682 152.085,158.143C152.871,157.701 153.257,157.031 153.237,156.129C153.232,155.878 152.904,155.79 152.773,156.001C152.501,156.435 152.085,156.498 151.525,156.193C151.058,155.939 150.682,155.805 150.394,155.79Z" style="fill:white;fill-opacity:0.35;"/>
    <path d="M159.507,177.392C158.831,177.45 158.152,177.498 157.477,177.538C156.441,177.601 154.173,177.822 153.855,178.954C153.832,179.033 153.836,179.119 153.861,179.198C154.019,179.698 153.769,180.32 154.111,180.858C155.015,182.277 156.786,182.614 158.397,182.765C160.821,182.993 162.997,182.849 164.932,182.334C165.244,182.252 165.568,182.216 165.889,182.227C166.458,182.247 167.448,182.162 168.857,181.974C169.994,181.822 170.884,181.42 171.529,180.769C172.874,179.412 171.942,178.232 170.44,177.78C169.613,177.531 168.777,177.357 167.931,177.248C167.744,177.224 167.564,177.181 167.384,177.123C165.526,176.516 163.63,176.42 161.692,176.857C161.747,177.688 162.304,178.297 161.686,179.155C161.225,179.795 160.675,179.885 160.029,179.427C159.183,178.827 159.531,178.168 159.507,177.392Z" style="fill:white;fill-opacity:0.65;"/>
</svg>
