<?xml version="1.0" encoding="UTF-8" standalone="no"?>
<!DOCTYPE svg PUBLIC "-//W3C//DTD SVG 1.1//EN" "http://www.w3.org/Graphics/SVG/1.1/DTD/svg11.dtd">
<svg width="100%" height="100%" viewBox="0 0 300 300" version="1.1" xmlns="http://www.w3.org/2000/svg" xmlns:xlink="http://www.w3.org/1999/xlink" xml:space="preserve" xmlns:serif="http://www.serif.com/" style="fill-rule:evenodd;clip-rule:evenodd;stroke-linejoin:round;stroke-miterlimit:2;">
    <path d="M259.035,110.031C258.714,109.829 258.034,109.874 256.999,110.164C255.944,110.266 254.929,110.113 253.956,109.703C252.552,108.606 251.507,107.124 250.82,105.252C249.894,102.731 249.395,100.175 249.324,97.586C249.279,96.042 250.181,95.41 251.124,94.331C252.794,92.428 253.73,90.191 253.935,87.625C254,86.798 253.918,86.05 253.689,85.381C252.446,81.756 249.682,81.066 246.225,82.341C245.57,82.58 244.189,82.624 243.674,82.317C239.715,79.956 239.24,75.123 239.417,70.859C239.469,69.633 239.441,68.205 239.335,66.579C239.188,64.318 237.17,62.695 235.14,62.255C232.783,61.746 230.379,61.667 227.929,62.022C225.931,62.265 224.025,62.637 222.204,63.136C220.383,63.635 218.952,64.263 217.903,65.025C216.882,65.766 215.946,66.839 215.095,68.243C214.617,67.806 214.125,67.375 213.62,66.955C213.241,66.637 212.708,66.261 212.021,65.828C211.205,65.312 210.549,64.601 210.047,63.689C207.816,59.634 211.987,55.334 215.085,53.516C218.081,51.757 221.09,50.726 224.107,50.422C227.198,50.111 229.914,50.182 232.261,50.637C235.263,51.217 237.532,51.46 239.065,51.364C240.65,51.265 241.72,51.392 243.622,51.467C248.193,51.644 252.456,52.591 256.415,54.309C259.059,55.453 261.85,57.014 264.791,58.989C265.133,59.218 265.574,59.778 266.11,60.666C267.63,63.177 268.566,65.889 268.918,68.796C269.229,71.389 269.362,73.158 269.314,74.101C269.222,75.977 269.164,78.146 268.918,80.014C268.47,83.454 267.763,86.966 266.8,90.556C265.621,94.952 263.968,99.639 261.833,104.616C260.914,106.758 259.982,108.565 259.035,110.031Z" style="fill:white;fill-opacity:0.5;fill-rule:nonzero;"/>
    <path d="M79.532,90.187C78.08,89.186 76.512,88.759 74.835,88.91C74.722,88.92 74.609,88.951 74.507,88.998C73.554,89.46 73.034,90.16 72.949,91.092C72.795,91.547 72.648,91.735 72.515,91.659C71.262,90.966 69.799,90.597 68.122,90.549C65.427,90.474 63.084,91.383 61.092,93.279C60.481,93.859 59.586,94.259 58.4,94.474C58.311,94.491 58.223,94.495 58.134,94.478C56.737,94.259 55.76,94.607 55.2,95.523C54.188,97.18 54.943,99.274 53.317,100.688C53.222,100.77 53.109,100.825 52.989,100.852C52.863,100.879 52.303,100.934 51.305,101.019C49.187,101.2 49.013,103.404 48.757,105.381C48.46,107.674 47.367,108.794 45.802,110.615C43.377,113.443 44.289,116.48 44.811,119.787C44.945,120.63 44.938,121.748 44.788,123.134L43.845,125.259C42.977,126.602 41.846,127.565 40.449,128.156C38.823,128.829 37.207,129.273 35.599,129.485C32.657,129.871 30.058,129.717 27.325,128.32C25.815,127.548 24.865,126.421 24.479,124.935C24.152,123.674 24.179,122.479 24.565,121.341C24.606,121.225 24.503,121.109 24.384,121.129C18.932,122.113 15.407,118.41 14.501,113.392C13.89,109.993 14.334,106.772 15.84,103.725C15.984,103.434 15.687,103.12 15.389,103.25C15.12,103.363 14.829,103.404 14.512,103.373C9.207,102.816 9.2,97.193 11.359,93.682C11.673,93.166 12.055,92.589 12.506,91.946C12.623,91.782 12.616,91.564 12.489,91.407C10.31,88.657 8.824,87.044 7.587,84.404C6.105,81.244 6.791,77.241 8.776,74.614C10.392,72.475 12.53,71.198 15.185,70.777C15.386,70.747 15.506,70.531 15.424,70.344C14.703,68.673 14.952,67.197 15.823,65.459C17.125,62.866 18.693,60.646 20.531,58.791C21.832,57.476 23.407,56.71 25.248,56.488C26.905,56.29 28.415,56.922 29.668,57.841C30.539,58.48 31.065,59.436 31.253,60.707C31.274,60.844 31.448,60.895 31.537,60.786C32.094,60.12 32.92,59.221 34.024,58.094C36.207,55.856 38.912,53.978 42.14,52.464C43.77,51.699 45.57,51.293 47.534,51.241C49.539,51.19 51.049,51.983 52.067,53.612C52.552,54.387 52.972,56.174 54.544,55.648C56.487,54.996 57.837,54.507 58.592,54.186C60.453,53.387 61.943,53.226 63.552,53.899C63.757,53.984 64.071,54.278 64.491,54.773C64.542,54.835 64.58,54.91 64.604,54.989C64.679,55.276 64.809,55.481 64.99,55.604C65.082,55.665 65.188,55.699 65.301,55.699C65.874,55.699 66.462,55.627 67.06,55.481C67.159,55.457 67.258,55.446 67.357,55.443C68.378,55.416 69.352,55.412 70.203,55.3C71.443,55.136 72.614,55.047 73.724,55.033C74.684,55.023 75.637,54.972 76.584,54.879C77.513,54.791 78.466,54.75 79.439,54.76C79.569,54.76 79.996,54.849 80.717,55.023C82.227,55.385 82.442,55.884 83.026,57.175C83.402,58.005 83.552,59.392 83.641,60.266C83.894,62.723 83.217,64.799 81.615,66.49C81.414,66.702 81.578,67.054 81.872,67.03C83.19,66.928 84.519,67.112 85.861,67.583C85.913,67.601 85.964,67.614 86.019,67.618L87.245,67.717C87.371,67.727 87.494,67.751 87.614,67.788C88.526,68.079 89.462,68.386 90.422,68.711C92.54,69.432 93.199,70.771 93.51,72.834C93.554,73.152 93.575,73.65 93.568,74.337C93.558,75.304 93.565,75.895 93.595,76.103C93.623,76.301 93.623,76.506 93.599,76.704C93.373,78.477 92.929,80.332 91.826,81.715C91.754,81.808 91.761,81.937 91.843,82.023C93.53,83.758 93.848,86.788 92.191,88.728C92.126,88.807 92.055,88.875 91.976,88.933C91.57,89.237 90.856,89.767 89.841,90.518C88.833,91.26 88.618,92.732 86.821,92.718C85.465,92.708 84.232,92.425 83.125,91.875C81.977,91.304 80.778,90.741 79.532,90.187Z" style="fill:white;fill-opacity:0.5;fill-rule:nonzero;"/>
    <path d="M253.956,109.703C253.826,109.928 253.607,109.949 253.297,109.764C253.033,109.604 252.801,109.412 252.6,109.187C252.473,109.043 252.251,109.037 252.115,109.17C251.035,110.205 249.867,111.008 248.606,111.575C248.48,111.633 248.367,111.722 248.282,111.834C248.183,111.968 247.605,112.354 246.553,112.989C245.826,113.426 244.675,114.236 243.093,115.414C241.764,116.408 240.545,117.057 239.229,117.949C239.151,118 239.069,118.045 238.983,118.079C238.024,118.458 236.941,118.861 235.735,119.288C233.689,120.019 230.942,120.531 229.203,120.33C228.995,120.306 228.841,120.121 228.862,119.913C229.009,118.297 228.715,116.692 227.974,115.103C227.41,113.894 226.723,112.647 225.917,111.363C225.641,110.915 225.384,110.369 225.156,109.72C225.074,109.484 224.947,109.265 224.783,109.078L224.021,108.2C227.499,107.158 230.013,105.791 232.128,103.13C232.466,102.703 233.111,101.815 232.49,101.282C232.261,101.088 231.923,101.088 231.68,101.279C229.156,103.298 226.392,104.753 223.396,105.641C223.222,105.59 223.144,105.481 223.167,105.313C223.178,105.231 223.229,105.159 223.301,105.118C223.632,104.931 223.796,104.695 223.793,104.408C223.782,103.68 223.786,102.69 223.81,101.443C223.816,101.06 223.68,100.298 223.396,99.154C222.693,96.295 220.37,94.809 217.401,95.328C216.868,95.42 216.39,95.311 215.97,95.007C215.844,94.915 215.765,94.775 215.751,94.618C215.642,93.309 215.71,92.076 215.953,90.925C216.803,86.911 217.907,83.147 219.266,79.628C221.62,73.544 224.506,67.676 227.929,62.022C230.379,61.667 232.783,61.746 235.14,62.255C237.17,62.695 239.188,64.318 239.335,66.579C239.441,68.205 239.469,69.633 239.417,70.859C239.24,75.123 239.715,79.956 243.674,82.317C244.189,82.624 245.57,82.58 246.225,82.341C249.682,81.066 252.446,81.756 253.689,85.381C253.918,86.05 254,86.798 253.935,87.625C253.73,90.191 252.794,92.428 251.124,94.331C250.181,95.41 249.279,96.042 249.324,97.586C249.395,100.175 249.894,102.731 250.82,105.252C251.507,107.124 252.552,108.606 253.956,109.703ZM228.397,78.887C229.716,79.143 230.853,79.57 231.806,80.165C232.056,80.322 232.401,80.219 232.568,79.936C232.708,79.697 232.701,79.44 232.551,79.171C231.745,77.719 230.498,77.001 228.824,76.677C227.15,76.349 225.726,76.55 224.435,77.592C224.196,77.787 224.097,78.023 224.134,78.296C224.182,78.621 224.462,78.846 224.756,78.795C225.863,78.6 227.075,78.631 228.397,78.887ZM225.108,84.851C225.231,84.773 225.388,84.875 225.371,85.022C225.244,85.982 225.36,87.413 226.201,88.001C226.454,88.179 226.809,88.09 226.942,87.81C227.458,86.737 227.523,85.596 227.133,84.39C227.075,84.213 227.209,84.032 227.393,84.032L230.963,84.032C231.287,84.032 231.557,83.786 231.591,83.464L231.602,83.362C231.619,82.993 231.352,82.672 230.987,82.621C228.404,82.245 226.057,82.867 223.95,84.482C223.717,84.66 223.509,84.879 223.328,85.135C223.219,85.285 223.273,85.497 223.437,85.565C223.786,85.712 224.459,85.248 225.108,84.851Z" style="fill:white;fill-opacity:0.95;fill-rule:nonzero;"/>
    <path d="M227.929,62.022C224.506,67.676 221.62,73.544 219.266,79.628C217.907,83.147 216.803,86.911 215.953,90.925C215.71,92.076 215.642,93.309 215.751,94.618C215.765,94.775 215.844,94.915 215.97,95.007C216.39,95.311 216.868,95.42 217.401,95.328C220.37,94.809 222.693,96.295 223.396,99.154C223.68,100.298 223.816,101.06 223.81,101.443C223.786,102.69 223.782,103.68 223.793,104.408C223.796,104.695 223.632,104.931 223.301,105.118C223.229,105.159 223.178,105.231 223.167,105.313C223.144,105.481 223.222,105.59 223.396,105.641C221.19,106.3 219.072,106.369 217.043,105.849C216.701,105.764 216.346,106.003 216.253,106.386C215.956,107.605 219.154,108.381 219.898,108.442C221.384,108.569 222.761,108.487 224.021,108.2L224.783,109.078C224.947,109.265 225.074,109.484 225.156,109.72C225.384,110.369 225.641,110.915 225.917,111.363C226.723,112.647 227.41,113.894 227.974,115.103C228.715,116.692 229.009,118.297 228.862,119.913C228.841,120.121 228.995,120.306 229.203,120.33C230.942,120.531 233.689,120.019 235.735,119.288C236.941,118.861 238.024,118.458 238.983,118.079C239.069,118.045 239.151,118 239.229,117.949C240.545,117.057 241.764,116.408 243.093,115.414C244.675,114.236 245.826,113.426 246.553,112.989C247.605,112.354 248.183,111.968 248.282,111.834C248.367,111.722 248.48,111.633 248.606,111.575C249.867,111.008 251.035,110.205 252.115,109.17C252.251,109.037 252.473,109.043 252.6,109.187C252.801,109.412 253.033,109.604 253.297,109.764C253.607,109.949 253.826,109.928 253.956,109.703C254.929,110.113 255.944,110.266 256.999,110.164L256.378,110.854C256.2,111.052 255.988,111.219 255.756,111.349C254.882,111.838 254.021,112.398 253.17,113.023C248.196,116.678 244.015,121.006 240.623,126.007C239.257,128.026 238.256,129.908 237.621,131.654C237.17,132.894 237.043,133.789 236.845,134.998C236.825,135.118 236.691,135.183 236.585,135.125L232.701,132.993C232.903,129.205 231.858,125.413 229.562,121.621C229.244,121.095 229.012,120.788 228.865,120.695C228.763,120.63 228.643,120.6 228.527,120.607C226.481,120.712 224.547,120.753 222.72,120.726C219.902,120.682 217.616,119.65 215.864,117.628C214.819,116.419 213.978,115.202 213.439,113.703C212.547,111.23 211.977,109.05 211.734,107.165C210.863,100.452 210.771,93.046 211.464,84.947C211.471,84.879 211.529,84.824 211.597,84.824L212.421,84.824C212.465,84.824 212.503,84.862 212.496,84.906C212.287,86.843 212.557,88.069 213.309,88.585C213.534,88.739 213.736,88.718 213.91,88.53C214.566,87.823 214.44,86.447 214.358,85.483C214.344,85.326 214.515,85.22 214.648,85.302C215.085,85.569 215.427,85.664 215.676,85.586C215.874,85.524 215.936,85.272 215.785,85.128C214.785,84.161 213.521,83.587 211.997,83.413C211.796,83.389 211.649,83.208 211.673,83.007L212.031,79.82L215.106,80.11C215.615,80.158 215.922,79.56 215.584,79.174C214.829,78.31 213.842,77.849 212.622,77.79C212.551,77.787 212.496,77.767 212.458,77.736C212.414,77.695 212.387,77.644 212.373,77.582C212.718,75.594 213.203,73.38 213.821,70.941C214.074,69.947 214.498,69.049 215.095,68.243C215.946,66.839 216.882,65.766 217.903,65.025C218.952,64.263 220.383,63.635 222.204,63.136C224.025,62.637 225.931,62.265 227.929,62.022Z" style="fill:white;fill-opacity:0.75;fill-rule:nonzero;"/>
    <path d="M228.824,76.677C230.498,77.001 231.745,77.719 232.551,79.171C232.701,79.44 232.708,79.697 232.568,79.936C232.401,80.219 232.056,80.322 231.806,80.165C230.853,79.57 229.716,79.143 228.397,78.887C227.075,78.631 225.863,78.6 224.756,78.795C224.462,78.846 224.182,78.621 224.134,78.296C224.097,78.023 224.196,77.787 224.435,77.592C225.726,76.55 227.15,76.349 228.824,76.677Z" style="fill:white;fill-opacity:0.15;fill-rule:nonzero;"/>
    <path d="M212.373,77.582C212.387,77.644 212.414,77.695 212.458,77.736C212.496,77.767 212.551,77.787 212.622,77.79C213.842,77.849 214.829,78.31 215.584,79.174C215.922,79.56 215.615,80.158 215.106,80.11L212.031,79.82C210.665,79.85 209.421,80.428 208.304,81.551C208.267,81.589 208.219,81.62 208.168,81.637L207.994,81.698C207.703,81.801 207.416,81.545 207.481,81.244C207.997,78.911 209.722,78.306 211.966,77.972C212.076,77.958 212.171,77.893 212.233,77.797L212.373,77.582Z" style="fill:white;fill-opacity:0.15;fill-rule:nonzero;"/>
    <path d="M225.108,84.851C224.459,85.248 223.786,85.712 223.437,85.565C223.273,85.497 223.219,85.285 223.328,85.135C223.509,84.879 223.717,84.66 223.95,84.482C226.057,82.867 228.404,82.245 230.987,82.621C231.352,82.672 231.619,82.993 231.602,83.362L231.591,83.464C231.557,83.786 231.287,84.032 230.963,84.032L227.393,84.032C227.209,84.032 227.075,84.213 227.133,84.39C227.523,85.596 227.458,86.737 226.942,87.81C226.809,88.09 226.454,88.179 226.201,88.001C225.36,87.413 225.244,85.982 225.371,85.022C225.388,84.875 225.231,84.773 225.108,84.851Z" style="fill:white;fill-opacity:0.15;fill-rule:nonzero;"/>
    <path d="M79.532,90.187C80.468,93.077 81.048,95.97 81.274,98.864C81.287,99.045 81.171,99.144 80.929,99.161C80.379,99.055 79.894,99.106 79.474,99.308C79.111,99.482 79.026,99.957 79.299,100.251C79.761,100.739 80.389,101.04 81.182,101.149C81.431,102.129 81.482,103.182 81.339,104.305C81.322,104.432 81.144,104.449 81.103,104.326C81.031,104.104 80.966,103.984 80.912,103.964C80.649,103.865 80.334,104.063 80.215,104.401C79.962,105.115 79.938,105.908 80.147,106.772C80.225,107.113 80.478,107.359 80.768,107.387C80.837,107.393 80.96,107.318 81.141,107.158C81.25,107.062 81.417,107.161 81.383,107.301C80.98,108.996 81.093,110.963 80.891,112.681C80.772,113.723 80.597,115.247 80.372,117.249C80.088,119.739 79.569,122.42 78.814,125.286C77.472,130.373 74.49,137.099 67.897,135.955L68.378,134.797C68.402,134.745 68.43,134.701 68.46,134.657C69.974,132.651 70.896,131.323 71.221,130.663C71.77,129.553 72.057,128.72 72.081,128.159C72.133,127.025 72.18,125.877 72.218,124.713C73.362,124.965 75.122,125.041 76.027,124.169C76.355,123.859 76.368,123.343 76.064,123.008C75.791,122.711 75.405,122.472 74.91,122.291C73.622,121.816 72.45,121.365 71.395,120.935C71.227,119.766 71.08,118.625 70.957,117.508C70.773,115.858 70.865,114.693 71.948,113.542C72.973,112.456 74.729,113.863 76.003,113.474C77.123,113.136 77.161,112.494 77.123,111.353C76.932,105.364 75.812,99.427 73.759,93.545C73.496,92.797 73.226,91.977 72.949,91.092C73.034,90.16 73.554,89.46 74.507,88.998C74.609,88.951 74.722,88.92 74.835,88.91C76.512,88.759 78.08,89.186 79.532,90.187Z" style="fill:white;fill-opacity:0.75;fill-rule:nonzero;"/>
    <path d="M72.949,91.092C73.226,91.977 73.496,92.797 73.759,93.545C75.812,99.427 76.932,105.364 77.123,111.353C77.161,112.494 77.123,113.136 76.003,113.474C74.729,113.863 72.973,112.456 71.948,113.542C70.865,114.693 70.773,115.858 70.957,117.508C71.08,118.625 71.227,119.766 71.395,120.935C70.421,120.467 69.54,120.139 68.751,119.951C68.348,119.855 67.921,120.053 67.716,120.439C67.514,120.822 67.712,121.484 67.924,121.806C68.932,123.333 70.363,124.303 72.218,124.713C72.18,125.877 72.133,127.025 72.081,128.159C72.057,128.72 71.77,129.553 71.221,130.663C70.896,131.323 69.974,132.651 68.46,134.657C68.43,134.701 68.402,134.745 68.378,134.797L67.897,135.955L62.831,134.762C56.091,132.136 50.076,128.262 44.788,123.134C44.938,121.748 44.945,120.63 44.811,119.787C44.289,116.48 43.377,113.443 45.802,110.615C47.367,108.794 48.46,107.674 48.757,105.381C49.013,103.404 49.187,101.2 51.305,101.019C52.303,100.934 52.863,100.879 52.989,100.852C53.109,100.825 53.222,100.77 53.317,100.688C54.943,99.274 54.188,97.18 55.2,95.523C55.76,94.607 56.737,94.259 58.134,94.478C58.223,94.495 58.311,94.491 58.4,94.474C59.586,94.259 60.481,93.859 61.092,93.279C63.084,91.383 65.427,90.474 68.122,90.549C69.799,90.597 71.262,90.966 72.515,91.659C72.648,91.735 72.795,91.547 72.949,91.092ZM64.293,99.137C64.474,99.178 64.614,99.185 64.713,99.161C66.206,98.806 67.524,98.758 69.15,98.983C70.667,99.192 72.054,99.25 73.311,99.158C73.588,99.137 73.779,99.031 73.882,98.843C74.015,98.597 73.96,98.28 73.745,98.064C73.243,97.562 72.621,97.258 71.887,97.149C69.123,96.736 66.561,97.21 64.204,98.577C63.965,98.717 64.023,99.079 64.293,99.137ZM71.736,102.249C71.166,102.246 70.694,103.264 70.684,104.529C70.674,105.791 71.125,106.823 71.696,106.826C72.266,106.83 72.737,105.812 72.747,104.547C72.758,103.284 72.307,102.252 71.736,102.249Z" style="fill:white;fill-opacity:0.95;fill-rule:nonzero;"/>
    <path d="M64.293,99.137C64.023,99.079 63.965,98.717 64.204,98.577C66.561,97.21 69.123,96.736 71.887,97.149C72.621,97.258 73.243,97.562 73.745,98.064C73.96,98.28 74.015,98.597 73.882,98.843C73.779,99.031 73.588,99.137 73.311,99.158C72.054,99.25 70.667,99.192 69.15,98.983C67.524,98.758 66.206,98.806 64.713,99.161C64.614,99.185 64.474,99.178 64.293,99.137Z" style="fill:white;fill-opacity:0.15;fill-rule:nonzero;"/>
    <path d="M80.929,99.161C81.144,99.718 81.226,100.38 81.182,101.149C80.389,101.04 79.761,100.739 79.299,100.251C79.026,99.957 79.111,99.482 79.474,99.308C79.894,99.106 80.379,99.055 80.929,99.161Z" style="fill:white;fill-opacity:0.15;fill-rule:nonzero;"/>
    <path d="M224.021,108.2C222.761,108.487 221.384,108.569 219.898,108.442C219.154,108.381 215.956,107.605 216.253,106.386C216.346,106.003 216.701,105.764 217.043,105.849C219.072,106.369 221.19,106.3 223.396,105.641C226.392,104.753 229.156,103.298 231.68,101.279C231.923,101.088 232.261,101.088 232.49,101.282C233.111,101.815 232.466,102.703 232.128,103.13C230.013,105.791 227.499,107.158 224.021,108.2Z" style="fill:white;fill-opacity:0.15;fill-rule:nonzero;"/>
    <path d="M71.736,102.249C72.307,102.252 72.758,103.284 72.747,104.547C72.737,105.812 72.266,106.83 71.696,106.826C71.125,106.823 70.674,105.791 70.684,104.529C70.694,103.264 71.166,102.246 71.736,102.249Z" style="fill:white;fill-opacity:0.15;fill-rule:nonzero;"/>
    <path d="M259.035,110.031C257.44,113.655 257.088,117.296 257.987,120.955C258.615,123.514 259.766,125.375 261.194,127.592C261.338,127.814 261.573,127.954 261.833,127.971C263.408,128.084 264.983,128.173 266.561,128.238C268.925,128.334 271.535,128.784 274.394,129.591C278.838,130.844 282.647,133.037 285.817,136.17C291.569,141.857 294.753,149.97 296.639,157.892C297.804,162.787 298.716,167.764 299.382,172.823C299.399,172.964 299.334,173.104 299.211,173.179L297.571,174.156C296.577,174.89 295.686,175.331 294.9,175.478C286.425,179.399 277.577,181.931 268.358,183.068C267.739,183.147 267.21,183.078 266.728,183.235C266.609,183.273 266.52,183.375 266.503,183.502L264.364,199.294L263.363,199.048C263.572,199.113 263.548,199.011 263.292,198.744C262.954,198.396 261.686,197.074 259.49,194.775C257.867,193.077 256.552,191.755 255.537,190.802C249.286,184.94 242.707,179.427 235.803,174.262C234.454,173.254 232.954,172.362 231.485,171.484C231.492,169.496 231.567,167.536 231.707,165.599C231.858,163.539 232.121,161.92 232.497,160.741C233.125,158.777 233.542,157.1 233.75,155.709C233.935,154.476 233.921,153.598 233.709,153.079C232.681,150.555 228.664,149.81 226.139,149.113C225.483,148.932 224.356,148.795 222.761,148.7C219.673,148.512 216.561,148.375 213.422,148.286C214.033,146.79 214.856,145.181 215.891,143.46C217.958,140.027 220.92,137.669 224.776,136.382C227.308,135.538 229.873,134.841 232.479,134.291C232.589,134.267 232.667,134.171 232.671,134.059L232.701,132.993L236.585,135.125C236.691,135.183 236.825,135.118 236.845,134.998C237.043,133.789 237.17,132.894 237.621,131.654C238.256,129.908 239.257,128.026 240.623,126.007C244.015,121.006 248.196,116.678 253.17,113.023C254.021,112.398 254.882,111.838 255.756,111.349C255.988,111.219 256.2,111.052 256.378,110.854L256.999,110.164C258.034,109.874 258.714,109.829 259.035,110.031Z" style="fill:white;fill-opacity:0.95;fill-rule:nonzero;"/>
    <path d="M71.395,120.935C72.45,121.365 73.622,121.816 74.91,122.291C75.405,122.472 75.791,122.711 76.064,123.008C76.368,123.343 76.355,123.859 76.027,124.169C75.122,125.041 73.362,124.965 72.218,124.713C70.363,124.303 68.932,123.333 67.924,121.806C67.712,121.484 67.514,120.822 67.716,120.439C67.921,120.053 68.348,119.855 68.751,119.951C69.54,120.139 70.421,120.467 71.395,120.935Z" style="fill:white;fill-opacity:0.15;fill-rule:nonzero;"/>
    <path d="M44.788,123.134C50.076,128.262 56.091,132.136 62.831,134.762C60.354,137.82 59.254,141.41 59.531,145.533L55.937,144.512C55.835,144.481 55.76,144.396 55.746,144.293C55.319,141.345 54.223,138.452 52.456,135.616C49.918,131.545 47.049,128.091 43.845,125.259L44.788,123.134Z" style="fill:white;fill-opacity:0.75;fill-rule:nonzero;"/>
    <path d="M43.845,125.259C47.049,128.091 49.918,131.545 52.456,135.616C54.223,138.452 55.319,141.345 55.746,144.293C55.76,144.396 55.835,144.481 55.937,144.512L59.531,145.533C60.737,145.595 61.864,145.895 62.92,146.435C64.464,147.221 65.782,148.406 66.872,149.988C68.501,152.351 69.892,154.883 71.05,157.578C71.938,159.651 72.655,161.195 73.205,162.207C73.981,163.628 75.525,166.664 77.837,171.317C77.892,171.43 78.001,171.508 78.128,171.525C80.973,171.874 84.943,172.694 87.013,174.173C88.318,175.105 89.001,175.73 88.83,177.339L88.007,177.432C88.253,176.444 87.959,175.631 87.122,174.993C85.339,173.623 83.067,172.964 80.936,172.554C77.465,171.891 73.97,171.604 70.452,171.696C67.996,171.42 65.376,171.952 63.227,172.072C61.868,172.144 60.805,172.458 59.306,172.817C58.148,173.093 55.534,174.511 54.936,175.785C54.397,176.936 54.803,178.832 55.107,180.123C55.558,182.03 56.443,184.359 56.689,186.498C57.061,189.681 57.208,192.746 57.133,195.69C57.13,195.823 57.095,195.933 57.034,196.022C45.3,197.477 33.73,199.711 22.331,202.724C22.15,200.367 21.958,198.027 21.753,195.707C21.569,193.613 21.555,190.757 21.709,187.143C21.757,186.071 22.01,184.769 22.225,183.734C22.317,183.294 21.958,182.887 21.511,182.921C20.862,182.969 20.097,183.116 19.215,183.362C18.7,183.505 17.897,183.485 16.804,183.304C15.666,183.085 14.529,182.89 13.388,182.72C11.833,182.487 10.706,182.262 10.002,182.047C8.093,181.463 6.272,180.588 4.547,179.43C3.088,178.45 2.023,177.715 1.35,177.227L0.24,176.462C0.069,176.342 -0.02,176.137 0.004,175.932C1.818,162.032 5.264,145.813 21.231,142.158C22.768,141.806 24.138,141.769 25.849,141.612C27.014,141.506 28.206,141.512 29.426,141.629C29.713,141.656 30.003,141.584 30.249,141.43C32.692,139.9 34.888,138.086 36.842,135.989C38.96,133.717 40.162,131.107 40.449,128.156C41.846,127.565 42.977,126.602 43.845,125.259Z" style="fill:white;fill-opacity:0.95;"/>
    <path d="M198.941,172.519C198.688,174.111 198.965,175.884 199.768,177.838C201.442,181.907 203.905,184.81 207.153,186.556C208.789,187.434 210.795,188.202 213.169,188.855C217.897,190.156 222.744,189.722 227.212,187.461C227.314,187.41 227.437,187.447 227.495,187.546L231.397,194.382C218.966,193.067 206.648,192.097 194.442,191.468C194.063,191.451 193.701,191.379 193.356,191.256C186.808,186.026 181.298,179.874 176.833,172.8C176.765,172.694 176.645,172.629 176.515,172.636C173.83,172.772 170.602,171.898 168.788,169.992C168.067,169.237 167.408,168.314 166.81,167.225C166.479,166.62 166.223,165.527 166.042,163.952C165.888,162.599 165.686,161.079 165.43,159.395C165.273,158.367 164.928,157.141 164.668,156.457C163.978,154.63 161.604,152.891 159.924,151.989C160.952,150.712 161.447,149.287 161.41,147.712C161.393,146.951 161.205,146.271 160.849,145.677C160.802,145.595 160.679,145.625 160.672,145.718C160.614,146.592 160.306,147.398 159.749,148.133C158.171,150.227 155.555,151.791 153.194,152.949C149.508,154.756 145.016,156.297 139.721,157.578C133.412,159.101 127.14,159.723 120.906,159.443C119.41,159.375 117.61,159.03 115.502,158.408C114.224,158.032 113.234,157.37 112.527,156.42C112.216,155.931 112.083,155.409 112.13,154.852C112.137,154.77 112.165,154.695 112.206,154.63C112.4,154.326 112.445,153.954 112.335,153.506C113.931,151.374 116.049,149.677 118.686,148.409C119.284,148.143 119.875,147.938 120.455,147.624C121.518,147.046 122.618,146.554 123.755,146.141C124.923,145.718 126.075,145.318 127.209,144.939C133.299,143.05 139.482,141.898 145.764,141.489C145.887,141.482 145.99,141.393 146.017,141.273C146.386,139.579 147.274,138.206 148.685,137.157C148.774,137.092 148.876,137.041 148.982,137.007C149.771,136.768 150.663,136.587 151.65,136.467C156.518,135.869 161.297,136.149 165.994,137.314C168.02,137.82 170.568,139.108 172.02,139.886C175.34,141.666 177.619,144.32 178.852,147.842C180.498,152.546 181.605,155.764 182.172,157.503C182.784,159.371 183.825,160.946 185.305,162.227C189.612,165.954 194.159,169.387 198.941,172.519ZM157.13,146.037C156.474,142.865 146.581,142.233 135.034,144.623C123.489,147.016 114.662,151.525 115.317,154.696C115.973,157.868 125.866,158.5 137.413,156.11C148.958,153.718 157.785,149.209 157.13,146.037Z" style="fill:white;fill-opacity:0.95;fill-rule:nonzero;"/>
    <path d="M127.209,144.939C126.075,145.318 124.923,145.718 123.755,146.141C122.618,146.554 121.518,147.046 120.455,147.624C119.875,147.938 119.284,148.143 118.686,148.409C118.993,148.068 119.28,147.699 119.543,147.306C121.398,144.546 122.898,142.141 124.042,140.095C124.329,139.582 125.538,138.899 126.023,138.78C126.584,138.64 127.045,138.916 127.403,139.606C128.206,141.164 127.817,143.306 127.209,144.939Z" style="fill:white;fill-opacity:0.95;fill-rule:nonzero;"/>
    <path d="M157.13,146.037C157.785,149.209 148.958,153.718 137.413,156.11C125.866,158.5 115.973,157.868 115.317,154.696C114.662,151.525 123.489,147.016 135.034,144.623C146.581,142.233 156.474,142.865 157.13,146.037ZM156.367,146.161C155.777,143.343 146.287,142.94 135.171,145.264C124.052,147.586 115.519,151.754 116.107,154.572C116.698,157.39 126.187,157.793 137.303,155.469C148.422,153.147 156.955,148.98 156.367,146.161Z" style="fill:white;fill-opacity:0.35;fill-rule:nonzero;"/>
    <path d="M156.367,146.161C156.955,148.98 148.422,153.147 137.303,155.469C126.187,157.793 116.698,157.39 116.107,154.572C115.519,151.754 124.052,147.586 135.171,145.264C146.287,142.94 155.777,143.343 156.367,146.161Z" style="fill:white;fill-opacity:0.95;fill-rule:nonzero;"/>
    <path d="M159.924,151.989C159.527,152.317 159.118,152.662 158.691,153.024C157.707,153.861 156.808,154.391 155.486,155.211C155.015,155.501 154.485,155.774 153.901,156.024C153.099,156.369 152.562,156.632 152.286,156.82C152.207,156.874 152.118,156.908 152.026,156.922C151.674,156.977 151.257,157.161 150.782,157.472C150.656,157.554 150.516,157.612 150.366,157.636C149.56,157.779 148.917,158.336 148.145,158.418C147.387,158.493 146.601,159.101 145.771,159.272C144.432,159.549 143.025,159.959 141.546,160.495C140.88,160.738 139.291,161.045 136.773,161.424C135.233,161.612 133.682,161.831 132.121,162.073C131.274,162.207 130.362,162.21 129.265,162.36C128.36,162.483 126.426,162.545 123.465,162.541C121.9,162.538 120.25,162.374 118.518,162.049C115.482,161.479 112.92,160.663 112.182,157.301C112.055,156.731 112.171,156.437 112.527,156.42C113.234,157.37 114.224,158.032 115.502,158.408C117.61,159.03 119.41,159.375 120.906,159.443C127.14,159.723 133.412,159.101 139.721,157.578C145.016,156.297 149.508,154.756 153.194,152.949C155.555,151.791 158.171,150.227 159.749,148.133C160.306,147.398 160.614,146.592 160.672,145.718C160.679,145.625 160.802,145.595 160.849,145.677C161.205,146.271 161.393,146.951 161.41,147.712C161.447,149.287 160.952,150.712 159.924,151.989Z" style="fill:white;fill-opacity:0.6;fill-rule:nonzero;"/>
    <path d="M213.422,148.286C216.561,148.375 219.673,148.512 222.761,148.7C224.356,148.795 225.483,148.932 226.139,149.113C228.664,149.81 232.681,150.555 233.709,153.079C233.921,153.598 233.935,154.476 233.75,155.709C233.542,157.1 233.125,158.777 232.497,160.741C232.121,161.92 231.858,163.539 231.707,165.599C231.567,167.536 231.492,169.496 231.485,171.484L229.641,170.436L230.403,165.237C230.812,164.393 230.529,163.699 229.552,163.153C228.735,162.698 227.759,162.343 226.618,162.09C222.587,161.202 218.518,160.874 214.412,161.107L209.186,161.626C207.129,161.913 205.083,162.384 203.341,163.693C203.116,163.863 202.999,164.143 203.04,164.42L203.163,165.254L203.676,169.349C203.098,168.998 202.6,168.56 202.176,168.038C202.159,165.1 201.729,162.227 200.885,159.423C200.191,157.113 199.819,155.774 199.877,153.694C199.925,152.071 202.224,150.797 203.666,150.288C206.016,149.458 207.891,148.963 209.288,148.802C210.713,148.638 212.089,148.467 213.422,148.286ZM201.059,153.833C201.056,156.567 208.192,158.791 217,158.808C225.808,158.821 232.954,156.621 232.958,153.889C232.961,151.156 225.825,148.932 217.017,148.915C208.209,148.901 201.063,151.101 201.059,153.833Z" style="fill:white;fill-opacity:0.8;fill-rule:nonzero;"/>
    <path d="M201.059,153.833C201.063,151.101 208.209,148.901 217.017,148.915C225.825,148.932 232.961,151.156 232.958,153.889C232.954,156.621 225.808,158.821 217,158.808C208.192,158.791 201.056,156.567 201.059,153.833Z" style="fill:white;fill-opacity:0.5;fill-rule:nonzero;"/>
    <path d="M112.335,153.506C112.445,153.954 112.4,154.326 112.206,154.63C112.165,154.695 112.137,154.77 112.13,154.852C112.083,155.409 112.216,155.931 112.527,156.42C112.171,156.437 112.055,156.731 112.182,157.301C112.92,160.663 115.482,161.479 118.518,162.049C120.25,162.374 121.9,162.538 123.465,162.541C126.426,162.545 128.36,162.483 129.265,162.36C130.362,162.21 131.274,162.207 132.121,162.073C133.682,161.831 135.233,161.612 136.773,161.424C136.668,162.548 136.541,163.337 136.391,163.785C135.373,166.815 132.896,167.788 129.955,168.144C126.45,168.567 122.898,168.967 119.55,170.343C118.932,170.6 118.443,170.999 118.085,171.542C112.984,179.276 109.452,185.743 104.94,191.447C104.745,191.547 104.544,191.605 104.335,191.615C98.378,191.946 92.434,192.373 86.507,192.896C86.323,190.201 86.603,187.355 87.351,184.359C87.648,183.157 87.962,182.043 88.294,181.018C91.085,179.194 93.363,177.517 95.122,175.987C99.276,172.376 103.242,168.284 107.017,163.716C107.41,163.242 107.932,162.541 108.592,161.612C108.66,161.513 108.694,161.394 108.691,161.274C108.595,158.77 110.009,157.069 111.642,155.368C111.751,155.252 111.83,155.115 111.878,154.965L112.335,153.506Z" style="fill:white;fill-opacity:0.75;fill-rule:nonzero;"/>
    <path d="M230.403,165.237C229.846,165.506 229.282,165.793 228.712,166.101C228.288,166.333 227.581,166.562 226.59,166.787C222.477,167.734 218.265,167.833 214.115,167.747C213.995,167.744 213.89,167.829 213.869,167.949L213.364,170.634L209.568,170.118L209.667,167.635C209.678,167.43 209.524,167.249 209.319,167.221C207.532,166.989 205.493,166.565 204.048,165.612C203.734,165.404 203.44,165.284 203.163,165.254L203.04,164.42C202.999,164.143 203.116,163.863 203.341,163.693C205.083,162.384 207.129,161.913 209.186,161.626C209.551,163.358 209.712,165.093 209.667,166.828C209.661,167.129 209.889,167.385 210.19,167.409L213.616,167.689C213.732,167.696 213.835,167.618 213.859,167.505C214.293,165.421 214.477,163.289 214.412,161.107C218.518,160.874 222.587,161.202 226.618,162.09C227.759,162.343 228.735,162.698 229.552,163.153C230.529,163.699 230.812,164.393 230.403,165.237Z" style="fill:white;fill-opacity:0.65;fill-rule:nonzero;"/>
    <path d="M214.412,161.107C214.477,163.289 214.293,165.421 213.859,167.505C213.835,167.618 213.732,167.696 213.616,167.689L210.19,167.409C209.889,167.385 209.661,167.129 209.667,166.828C209.712,165.093 209.551,163.358 209.186,161.626L214.412,161.107Z" style="fill:white;fill-opacity:0.8;fill-rule:nonzero;"/>
    <path d="M230.403,165.237L229.641,170.436C229.637,170.668 229.494,170.743 229.21,170.661C228.872,170.562 228.568,170.449 228.295,170.326C228.192,170.279 228.076,170.248 227.96,170.234C226.706,170.098 225.576,170.128 224.565,170.323C223.618,170.511 222.853,170.634 222.276,170.692C219.328,170.989 216.356,170.972 213.364,170.634L213.869,167.949C213.89,167.829 213.995,167.744 214.115,167.747C218.265,167.833 222.477,167.734 226.59,166.787C227.581,166.562 228.288,166.333 228.712,166.101C229.282,165.793 229.846,165.506 230.403,165.237Z" style="fill:white;fill-opacity:0.4;fill-rule:nonzero;"/>
    <path d="M209.568,170.118L203.676,169.349L203.163,165.254C203.44,165.284 203.734,165.404 204.048,165.612C205.493,166.565 207.532,166.989 209.319,167.221C209.524,167.249 209.678,167.43 209.667,167.635L209.568,170.118Z" style="fill:white;fill-opacity:0.4;fill-rule:nonzero;"/>
    <path d="M203.676,169.349L209.568,170.118L213.364,170.634C216.356,170.972 219.328,170.989 222.276,170.692C222.853,170.634 223.618,170.511 224.565,170.323C225.576,170.128 226.706,170.098 227.96,170.234C228.076,170.248 228.192,170.279 228.295,170.326C228.568,170.449 228.872,170.562 229.21,170.661C229.494,170.743 229.637,170.668 229.641,170.436L231.485,171.484C232.954,172.362 234.454,173.254 235.803,174.262C242.707,179.427 249.286,184.94 255.537,190.802C256.552,191.755 257.867,193.077 259.49,194.775C261.686,197.074 262.954,198.396 263.292,198.744C263.548,199.011 263.572,199.113 263.363,199.048C252.641,197.077 241.986,195.523 231.397,194.382L227.495,187.546C227.437,187.447 227.314,187.41 227.212,187.461C222.744,189.722 217.897,190.156 213.169,188.855C210.795,188.202 208.789,187.434 207.153,186.556C203.905,184.81 201.442,181.907 199.768,177.838C198.965,175.884 198.688,174.111 198.941,172.519C199.546,171.061 200.571,170.084 202.019,169.589C202.118,169.554 202.193,169.469 202.214,169.366C202.292,168.957 202.279,168.512 202.176,168.038C202.6,168.56 203.098,168.998 203.676,169.349Z" style="fill:white;fill-opacity:0.75;fill-rule:nonzero;"/>
    <path d="M70.452,171.696C68.177,171.84 65.922,172.106 63.692,172.492C61.751,172.83 54.714,174.388 56.238,177.681C56.279,177.77 56.334,177.855 56.405,177.934C58.086,179.789 61.14,180.568 63.517,181.001C69.403,182.077 75.122,182.064 80.673,180.957C83.173,180.462 86.538,179.669 88.007,177.432L88.83,177.339C88.864,178.491 88.687,179.717 88.294,181.018C87.962,182.043 87.648,183.157 87.351,184.359C86.603,187.355 86.323,190.201 86.507,192.896C86.644,196.657 86.025,200.09 84.652,203.195C84.338,203.902 84.037,204.602 83.75,205.293C83.33,205.784 83.139,206.239 83.177,206.655C83.06,206.7 82.944,206.83 82.831,207.042C82.562,207.287 82.152,207.834 81.605,208.678C81.281,209.183 80.683,209.74 79.812,210.345C79.221,210.755 78.473,211.079 77.561,211.318C73.608,212.357 69.673,212.323 65.758,211.216C63.241,210.505 62.178,208.907 60.822,206.881C60.764,206.796 60.662,206.755 60.559,206.775L59.169,207.059L60.371,206.673C60.549,206.615 60.525,206.358 60.341,206.334L59.972,206.287C60.453,206.15 60.382,205.72 59.763,204.995C59.49,204.302 59.206,203.608 58.913,202.915C58.001,200.77 57.43,198.539 57.194,196.223C57.184,196.138 57.133,196.073 57.034,196.022C57.095,195.933 57.13,195.823 57.133,195.69C57.208,192.746 57.061,189.681 56.689,186.498C56.443,184.359 55.558,182.03 55.107,180.123C54.803,178.832 54.397,176.936 54.936,175.785C55.534,174.511 58.148,173.093 59.306,172.817C60.805,172.458 61.868,172.144 63.227,172.072C65.376,171.952 67.996,171.42 70.452,171.696ZM69.328,184.089L63.61,184.667C61.847,184.974 59.572,185.473 58.137,186.788C58.055,186.867 58.004,186.969 57.987,187.078C57.932,187.464 57.96,187.809 58.066,188.12C58.318,192.322 59.261,196.291 60.897,200.032C61.844,202.194 63.22,203.906 65.02,205.163L67.89,206.669L69.185,207.13C69.212,207.141 69.239,207.147 69.27,207.151C73.598,207.957 77.704,206.649 80.464,203.26C83.856,199.096 84.905,193.497 85.479,188.202C85.752,187.823 85.745,187.396 85.458,186.921C84.717,185.692 81.906,185.073 80.577,184.827C76.871,184.141 73.12,183.895 69.328,184.089Z" style="fill:white;fill-opacity:0.75;fill-rule:nonzero;"/>
    <path d="M88.007,177.432C86.538,179.669 83.173,180.462 80.673,180.957C75.122,182.064 69.403,182.077 63.517,181.001C61.14,180.568 58.086,179.789 56.405,177.934C56.334,177.855 56.279,177.77 56.238,177.681C54.714,174.388 61.751,172.83 63.692,172.492C65.922,172.106 68.177,171.84 70.452,171.696C73.97,171.604 77.465,171.891 80.936,172.554C83.067,172.964 85.339,173.623 87.122,174.993C87.959,175.631 88.253,176.444 88.007,177.432Z" style="fill:white;fill-opacity:0.5;fill-rule:nonzero;"/>
    <path d="M297.571,174.156C297.725,176.298 297.667,178.525 297.394,180.844C296.273,190.313 295.132,198.949 292.55,207.79L290.842,206.977C292.987,197.538 294.278,187.984 294.715,178.316C294.75,177.517 294.811,176.571 294.9,175.478C295.686,175.331 296.577,174.89 297.571,174.156Z" style="fill:white;fill-opacity:0.6;fill-rule:nonzero;"/>
    <path d="M294.9,175.478C294.811,176.571 294.75,177.517 294.715,178.316C294.278,187.984 292.987,197.538 290.842,206.977C282.298,203.26 273.26,201.06 264.364,199.294L266.503,183.502C266.52,183.375 266.609,183.273 266.728,183.235C267.21,183.078 267.739,183.147 268.358,183.068C277.577,181.931 286.425,179.399 294.9,175.478Z" style="fill:white;fill-opacity:0.75;fill-rule:nonzero;"/>
    <path d="M16.804,183.304C17.306,186.692 17.784,190.061 18.242,193.408C18.703,196.756 19.4,200.076 20.336,203.373C15.728,204.691 11.27,206.515 6.962,208.842C6.487,209.098 5.695,209.655 4.592,210.505C3.57,204.698 2.894,199.991 2.562,196.38C2.214,192.571 1.965,189.241 1.811,186.395C1.719,184.636 1.695,182.221 1.743,179.15C1.746,178.965 1.726,178.781 1.681,178.603L1.35,177.227C2.023,177.715 3.088,178.45 4.547,179.43C6.272,180.588 8.093,181.463 10.002,182.047C10.706,182.262 11.833,182.487 13.388,182.72C14.529,182.89 15.666,183.085 16.804,183.304Z" style="fill:white;fill-opacity:0.75;fill-rule:nonzero;"/>
    <path d="M150.639,190.399C150.478,191.195 150.045,192.824 149.331,195.284C148.9,196.776 148.613,198.908 148.466,201.685C148.326,204.411 148.477,207.332 147.998,209.89C147.554,212.278 146.721,214.628 145.495,216.941C145.409,217.126 145.266,217.392 145.064,217.74C144.972,217.898 144.955,218.021 145.009,218.113C145.068,218.212 145.18,218.284 145.344,218.331C144.924,218.294 144.702,218.403 144.685,218.652C144.395,218.881 144.06,219.305 143.674,219.927C142.642,221.587 140.985,222.581 138.926,223.056C135.226,223.906 131.598,223.882 128.035,222.981C126.358,222.554 125.033,221.693 124.066,220.398C123.506,219.647 122.966,218.95 122.447,218.304C122.191,218.184 122.003,218.051 121.883,217.901C122.269,217.781 122.177,217.344 121.6,216.589C120.489,214.393 119.721,212.111 119.29,209.75C118.88,207.492 119.048,205.224 118.942,202.966C118.863,201.241 118.727,199.608 118.529,198.061C118.423,197.217 118.146,196.035 117.705,194.512C117.343,193.258 117.029,192.083 116.766,190.983C116.564,189.685 116.5,188.728 116.564,188.113C116.725,186.658 118.658,185.49 120.127,184.913C122.946,183.802 126.194,183.123 129.873,182.88C131.086,182.798 133.163,182.781 136.104,182.829C138.905,182.873 141.751,183.27 144.641,184.018C146.711,184.551 148.88,185.398 150.256,186.983C150.543,187.314 150.697,187.741 150.687,188.178L150.639,190.399ZM117.763,188.376C117.76,191.126 124.923,193.367 133.769,193.384C142.615,193.401 149.788,191.181 149.792,188.432C149.795,185.681 142.632,183.44 133.786,183.423C124.94,183.406 117.767,185.627 117.763,188.376ZM131.161,195.697L125.873,196.223C123.977,196.503 121.477,196.998 120.001,198.399C119.919,198.478 119.864,198.58 119.847,198.689C119.779,199.072 119.779,199.4 119.847,199.67C120.062,202.146 120.524,204.787 121.234,207.598C122.197,211.407 124.045,214.495 126.778,216.869C127.192,216.876 127.602,217.098 128.015,217.532C128.09,217.611 128.179,217.672 128.281,217.71L129.713,218.263C130.495,218.591 131.117,218.789 131.574,218.857C141.136,220.292 145.477,211.776 146.683,203.916C146.892,202.556 147.1,201.132 147.315,199.646C147.53,199.192 147.496,198.788 147.209,198.437C146.048,196.998 142.41,196.329 140.637,196.086C137.498,195.656 134.341,195.526 131.161,195.697Z" style="fill:white;fill-opacity:0.75;fill-rule:nonzero;"/>
    <path d="M22.331,202.724L20.336,203.373C19.4,200.076 18.703,196.756 18.242,193.408C17.784,190.061 17.306,186.692 16.804,183.304C17.897,183.485 18.7,183.505 19.215,183.362C20.097,183.116 20.862,182.969 21.511,182.921C21.958,182.887 22.317,183.294 22.225,183.734C22.01,184.769 21.757,186.071 21.709,187.143C21.555,190.757 21.569,193.613 21.753,195.707C21.958,198.027 22.15,200.367 22.331,202.724Z" style="fill:white;fill-opacity:0.6;fill-rule:nonzero;"/>
    <path d="M117.763,188.376C117.767,185.627 124.94,183.406 133.786,183.423C142.632,183.44 149.795,185.681 149.792,188.432C149.788,191.181 142.615,193.401 133.769,193.384C124.923,193.367 117.76,191.126 117.763,188.376Z" style="fill:white;fill-opacity:0.5;fill-rule:nonzero;"/>
    <path d="M85.479,188.202C84.338,188.797 83.614,189.155 83.303,189.278C82.363,189.651 81.233,189.948 79.911,190.166C76.286,190.764 72.686,190.966 69.113,190.771C68.942,190.761 68.788,190.88 68.754,191.048C68.484,192.349 68.136,194.245 67.709,196.732C67.145,200.011 67.207,203.325 67.89,206.669L65.02,205.163C64.587,203.103 64.358,201.262 64.33,199.639C64.286,196.968 64.395,193.917 64.662,190.484L64.935,190.416C64.979,190.406 65.027,190.406 65.075,190.409L68.495,190.727C68.662,190.744 68.812,190.628 68.84,190.467C69.222,188.366 69.386,186.242 69.328,184.089C73.12,183.895 76.871,184.141 80.577,184.827C81.906,185.073 84.717,185.692 85.458,186.921C85.745,187.396 85.752,187.823 85.479,188.202Z" style="fill:white;fill-opacity:0.65;fill-rule:nonzero;"/>
    <path d="M69.328,184.089C69.386,186.242 69.222,188.366 68.84,190.467C68.812,190.628 68.662,190.744 68.495,190.727L65.075,190.409C65.027,190.406 64.979,190.406 64.935,190.416L64.662,190.484C64.648,190.501 64.624,190.433 64.587,190.283C64.628,188.752 64.491,187.007 64.18,185.046C64.129,184.715 63.938,184.588 63.61,184.667L69.328,184.089Z" style="fill:white;fill-opacity:0.8;fill-rule:nonzero;"/>
    <path d="M63.61,184.667C63.938,184.588 64.129,184.715 64.18,185.046C64.491,187.007 64.628,188.752 64.587,190.283C62.882,190.108 61.222,189.692 59.606,189.036C59.401,188.95 59.148,188.797 58.848,188.568C58.598,188.38 58.335,188.23 58.066,188.12C57.96,187.809 57.932,187.464 57.987,187.078C58.004,186.969 58.055,186.867 58.137,186.788C59.572,185.473 61.847,184.974 63.61,184.667Z" style="fill:white;fill-opacity:0.65;fill-rule:nonzero;"/>
    <path d="M64.587,190.283C64.624,190.433 64.648,190.501 64.662,190.484C64.395,193.917 64.286,196.968 64.33,199.639C64.358,201.262 64.587,203.103 65.02,205.163C63.22,203.906 61.844,202.194 60.897,200.032C59.261,196.291 58.318,192.322 58.066,188.12C58.335,188.23 58.598,188.38 58.848,188.568C59.148,188.797 59.401,188.95 59.606,189.036C61.222,189.692 62.882,190.108 64.587,190.283Z" style="fill:white;fill-opacity:0.4;fill-rule:nonzero;"/>
    <path d="M85.479,188.202C84.905,193.497 83.856,199.096 80.464,203.26C77.704,206.649 73.598,207.957 69.27,207.151C69.239,207.147 69.212,207.141 69.185,207.13L67.89,206.669C67.207,203.325 67.145,200.011 67.709,196.732C68.136,194.245 68.484,192.349 68.754,191.048C68.788,190.88 68.942,190.761 69.113,190.771C72.686,190.966 76.286,190.764 79.911,190.166C81.233,189.948 82.363,189.651 83.303,189.278C83.614,189.155 84.338,188.797 85.479,188.202Z" style="fill:white;fill-opacity:0.4;fill-rule:nonzero;"/>
    <path d="M193.356,191.256C193.701,191.379 194.063,191.451 194.442,191.468C206.648,192.097 218.966,193.067 231.397,194.382C241.986,195.523 252.641,197.077 263.363,199.048L264.364,199.294C273.26,201.06 282.298,203.26 290.842,206.977L292.55,207.79C293.206,208.172 293.896,208.551 294.616,208.927C295.002,209.129 295.669,209.6 296.615,210.345C298.671,211.967 299.798,213.829 300,215.923L299.395,217.614C299.334,217.785 299.252,217.952 299.146,218.103C297.858,219.957 296.307,221.396 294.487,222.42C288.468,225.806 281.332,228.077 274.431,229.761C265.82,231.862 256.972,233.546 247.892,234.82C223.762,238.206 199.477,239.9 175.815,240.559C158.851,241.034 141.484,241.01 123.714,240.494C105.302,239.958 87.228,238.745 69.495,236.853C59.948,235.832 50.386,234.462 40.811,232.737C33.785,231.469 27.137,229.925 20.865,228.105C16.749,226.909 12.804,225.392 9.025,223.558C6.047,222.113 3.474,220.251 2.006,217.669C1.459,216.709 1.353,215.5 1.688,214.041C2.439,212.808 3.406,211.629 4.592,210.505C5.695,209.655 6.487,209.098 6.962,208.842C11.27,206.515 15.728,204.691 20.336,203.373L22.331,202.724C33.73,199.711 45.3,197.477 57.034,196.022C57.133,196.073 57.184,196.138 57.194,196.223C57.43,198.539 58.001,200.77 58.913,202.915C59.206,203.608 59.49,204.302 59.763,204.995C56.986,205.429 54.598,206.351 52.597,207.762C51.654,208.428 51.216,209.293 51.285,210.355C50.824,212.148 51.213,213.566 52.453,214.605C54.158,216.029 56.539,216.835 58.793,217.344C59.275,217.453 59.61,217.699 60.149,217.628C60.3,217.607 60.419,217.689 60.58,217.768C60.733,217.846 60.901,217.887 61.075,217.884C61.854,217.874 62.452,218.232 63.094,218.133C63.719,218.034 64.31,218.389 64.908,218.389C65.997,218.389 66.578,218.396 66.65,218.407C66.718,218.417 66.783,218.434 66.845,218.461C67.121,218.591 67.921,218.663 69.236,218.68C70.944,218.7 72.614,218.687 74.244,218.642C74.438,218.639 74.633,218.608 74.821,218.557C75.405,218.389 76.081,218.331 76.843,218.383C77.748,218.444 78.449,218.048 79.371,218.137C79.477,218.147 79.583,218.137 79.685,218.106C80.181,217.959 81.137,217.785 82.558,217.583C82.965,217.525 83.306,217.44 83.583,217.32C83.928,217.173 84.389,217.03 84.96,216.886C86.64,216.466 89.318,215.315 90.367,213.853C91.18,212.719 91.351,211.339 90.883,209.713C89.817,207.079 86.292,205.901 83.75,205.293C84.037,204.602 84.338,203.902 84.652,203.195C86.025,200.09 86.644,196.657 86.507,192.896C92.434,192.373 98.378,191.946 104.335,191.615C104.544,191.605 104.745,191.547 104.94,191.447C104.923,191.471 104.919,191.506 104.926,191.55C104.933,191.588 104.967,191.618 105.005,191.615L116.766,190.983C117.029,192.083 117.343,193.258 117.705,194.512C118.146,196.035 118.423,197.217 118.529,198.061C118.727,199.608 118.863,201.241 118.942,202.966C119.048,205.224 118.88,207.492 119.29,209.75C119.721,212.111 120.489,214.393 121.6,216.589C118.826,217.078 116.496,217.949 114.61,219.209C113.575,219.899 113.066,220.815 113.087,221.952C112.817,223.1 112.844,224.053 113.166,224.815C114.177,227.199 118.382,228.446 120.964,229.058C121.135,229.099 121.261,229.143 121.347,229.194C121.442,229.252 121.552,229.276 121.661,229.259C122.262,229.163 122.508,229.584 122.976,229.512C123.612,229.409 124.309,229.871 124.896,229.761C125.528,229.645 126.105,229.977 126.751,229.997C127.438,230.017 128.278,229.908 128.852,230.13C129.077,230.216 129.842,230.27 131.151,230.294C134.362,230.349 136.398,230.277 137.255,230.076C138.003,229.898 139.018,230.106 139.937,229.864C140.145,229.809 140.36,229.775 140.579,229.758C141.675,229.683 142.622,229.546 143.418,229.351C143.916,229.228 144.712,229.034 145.809,228.764C148.285,228.156 151.708,226.929 152.607,224.747C153.027,223.729 153.058,222.502 152.706,221.068C151.268,218.933 148.866,217.556 145.495,216.941C146.721,214.628 147.554,212.278 147.998,209.89C148.477,207.332 148.326,204.411 148.466,201.685C148.613,198.908 148.9,196.776 149.331,195.284C150.045,192.824 150.478,191.195 150.639,190.399C164.812,190.399 178.975,190.734 193.127,191.4C193.206,191.403 193.281,191.355 193.356,191.256Z" style="fill:white;fill-opacity:0.5;fill-rule:nonzero;"/>
    <path d="M147.315,199.646C146.622,200.196 145.915,200.599 145.194,200.862C143.892,201.337 142.57,201.675 141.228,201.877C137.812,202.392 134.365,202.56 130.884,202.379C130.748,202.372 130.628,202.464 130.601,202.597C130.358,203.783 130.017,205.672 129.569,208.271C128.999,211.598 129.046,214.929 129.713,218.263L128.281,217.71C128.179,217.672 128.09,217.611 128.015,217.532C127.602,217.098 127.192,216.876 126.778,216.869C126.372,214.16 126.167,212.449 126.157,211.742C126.116,208.504 126.228,205.258 126.495,202.003L130.266,202.331C130.481,202.351 130.673,202.201 130.71,201.989C131.052,199.95 131.202,197.852 131.161,195.697C134.341,195.526 137.498,195.656 140.637,196.086C142.41,196.329 146.048,196.998 147.209,198.437C147.496,198.788 147.53,199.192 147.315,199.646Z" style="fill:white;fill-opacity:0.65;fill-rule:nonzero;"/>
    <path d="M131.161,195.697C131.202,197.852 131.052,199.95 130.71,201.989C130.673,202.201 130.481,202.351 130.266,202.331L126.495,202.003C126.444,201.972 126.409,201.918 126.392,201.842C126.481,199.912 126.307,198.037 125.873,196.223L131.161,195.697Z" style="fill:white;fill-opacity:0.8;fill-rule:nonzero;"/>
    <path d="M125.873,196.223C126.307,198.037 126.481,199.912 126.392,201.842C125.781,201.829 124.852,201.668 123.605,201.357C122.146,200.992 120.896,200.432 119.847,199.67C119.779,199.4 119.779,199.072 119.847,198.689C119.864,198.58 119.919,198.478 120.001,198.399C121.477,196.998 123.977,196.503 125.873,196.223Z" style="fill:white;fill-opacity:0.65;fill-rule:nonzero;"/>
    <path d="M147.315,199.646C147.1,201.132 146.892,202.556 146.683,203.916C145.477,211.776 141.136,220.292 131.574,218.857C131.117,218.789 130.495,218.591 129.713,218.263C129.046,214.929 128.999,211.598 129.569,208.271C130.017,205.672 130.358,203.783 130.601,202.597C130.628,202.464 130.748,202.372 130.884,202.379C134.365,202.56 137.812,202.392 141.228,201.877C142.57,201.675 143.892,201.337 145.194,200.862C145.915,200.599 146.622,200.196 147.315,199.646Z" style="fill:white;fill-opacity:0.4;fill-rule:nonzero;"/>
    <path d="M126.392,201.842C126.409,201.918 126.444,201.972 126.495,202.003C126.228,205.258 126.116,208.504 126.157,211.742C126.167,212.449 126.372,214.16 126.778,216.869C124.045,214.495 122.197,211.407 121.234,207.598C120.524,204.787 120.062,202.146 119.847,199.67C120.896,200.432 122.146,200.992 123.605,201.357C124.852,201.668 125.781,201.829 126.392,201.842Z" style="fill:white;fill-opacity:0.4;fill-rule:nonzero;"/>
    <path d="M59.763,204.995C60.382,205.72 60.453,206.15 59.972,206.287C58.619,206.553 53.157,208.022 54.048,210.324C55.063,212.941 61.714,213.952 64.115,214.188C68.443,214.615 72.624,214.649 76.659,214.283C79.86,213.993 82.78,213.365 85.417,212.398C86.866,211.868 89.083,210.188 87.255,208.596C86.138,207.622 84.779,206.973 83.177,206.655C83.139,206.239 83.33,205.784 83.75,205.293C86.292,205.901 89.817,207.079 90.883,209.713C90.64,211.137 89.831,212.2 88.454,212.893C86.049,214.106 83.187,214.967 79.866,215.476C75.388,216.162 70.489,216.278 65.167,215.827C61.847,215.544 58.694,214.885 55.705,213.85C53.977,213.252 52.088,212.21 51.285,210.355C51.216,209.293 51.654,208.428 52.597,207.762C54.598,206.351 56.986,205.429 59.763,204.995Z" style="fill:white;fill-opacity:0.95;fill-rule:nonzero;"/>
    <path d="M59.972,206.287L60.341,206.334C60.525,206.358 60.549,206.615 60.371,206.673L59.169,207.059C57.495,207.54 55.917,207.906 54.732,209.293C54.503,209.559 54.475,209.942 54.66,210.242C55.135,211.004 55.886,211.585 56.907,211.978C59.2,212.862 61.775,213.433 64.628,213.696C66.383,213.856 69.318,214.15 71.689,214.085C74.462,214.01 77.017,213.809 79.351,213.477C81.663,213.153 83.679,212.61 85.397,211.855C86.224,211.489 86.869,210.98 87.337,210.328C87.542,210.037 87.539,209.648 87.327,209.364C86.329,208.022 84.444,207.421 82.831,207.042C82.944,206.83 83.06,206.7 83.177,206.655C84.779,206.973 86.138,207.622 87.255,208.596C89.083,210.188 86.866,211.868 85.417,212.398C82.78,213.365 79.86,213.993 76.659,214.283C72.624,214.649 68.443,214.615 64.115,214.188C61.714,213.952 55.063,212.941 54.048,210.324C53.157,208.022 58.619,206.553 59.972,206.287Z" style="fill:white;fill-opacity:0.35;fill-rule:nonzero;"/>
    <path d="M82.831,207.042C84.444,207.421 86.329,208.022 87.327,209.364C87.539,209.648 87.542,210.037 87.337,210.328C86.869,210.98 86.224,211.489 85.397,211.855C83.679,212.61 81.663,213.153 79.351,213.477C77.017,213.809 74.462,214.01 71.689,214.085C69.318,214.15 66.383,213.856 64.628,213.696C61.775,213.433 59.2,212.862 56.907,211.978C55.886,211.585 55.135,211.004 54.66,210.242C54.475,209.942 54.503,209.559 54.732,209.293C55.917,207.906 57.495,207.54 59.169,207.059L60.559,206.775C60.662,206.755 60.764,206.796 60.822,206.881C62.178,208.907 63.241,210.505 65.758,211.216C69.673,212.323 73.608,212.357 77.561,211.318C78.473,211.079 79.221,210.755 79.812,210.345C80.683,209.74 81.281,209.183 81.605,208.678C82.152,207.834 82.562,207.287 82.831,207.042Z" style="fill:white;fill-opacity:0.95;fill-rule:nonzero;"/>
    <path d="M51.285,210.355C52.088,212.21 53.977,213.252 55.705,213.85C58.694,214.885 61.847,215.544 65.167,215.827C70.489,216.278 75.388,216.162 79.866,215.476C83.187,214.967 86.049,214.106 88.454,212.893C89.831,212.2 90.64,211.137 90.883,209.713C91.351,211.339 91.18,212.719 90.367,213.853C89.318,215.315 86.64,216.466 84.96,216.886C84.389,217.03 83.928,217.173 83.583,217.32C83.306,217.44 82.965,217.525 82.558,217.583C81.137,217.785 80.181,217.959 79.685,218.106C79.583,218.137 79.477,218.147 79.371,218.137C78.449,218.048 77.748,218.444 76.843,218.383C76.081,218.331 75.405,218.389 74.821,218.557C74.633,218.608 74.438,218.639 74.244,218.642C72.614,218.687 70.944,218.7 69.236,218.68C67.921,218.663 67.121,218.591 66.845,218.461C66.783,218.434 66.718,218.417 66.65,218.407C66.578,218.396 65.997,218.389 64.908,218.389C64.31,218.389 63.719,218.034 63.094,218.133C62.452,218.232 61.854,217.874 61.075,217.884C60.901,217.887 60.733,217.846 60.58,217.768C60.419,217.689 60.3,217.607 60.149,217.628C59.61,217.699 59.275,217.453 58.793,217.344C56.539,216.835 54.158,216.029 52.453,214.605C51.213,213.566 50.824,212.148 51.285,210.355Z" style="fill:white;fill-opacity:0.6;fill-rule:nonzero;"/>
    <path d="M1.688,214.041C1.353,215.5 1.459,216.709 2.006,217.669C3.474,220.251 6.047,222.113 9.025,223.558C12.804,225.392 16.749,226.909 20.865,228.105C27.137,229.925 33.785,231.469 40.811,232.737C50.386,234.462 59.948,235.832 69.495,236.853C87.228,238.745 105.302,239.958 123.714,240.494C141.484,241.01 158.851,241.034 175.815,240.559C199.477,239.9 223.762,238.206 247.892,234.82C256.972,233.546 265.82,231.862 274.431,229.761C281.332,228.077 288.468,225.806 294.487,222.42C296.307,221.396 297.858,219.957 299.146,218.103C299.252,217.952 299.334,217.785 299.395,217.614L300,215.923L299.983,225.047C299.983,225.225 299.956,225.402 299.901,225.57C298.675,229.392 294.237,231.814 290.746,233.355C286.756,235.118 282.664,236.569 278.466,237.714C271.681,239.562 264.279,241.157 256.262,242.503C245.395,244.327 233.238,245.84 219.796,247.043C217.353,247.261 216.093,247.371 216.014,247.367C215.116,247.357 214.183,247.436 213.213,247.61C212.076,247.811 210.836,247.678 209.476,247.846C208.417,247.979 207.235,248.054 205.934,248.071C205.329,248.081 204.865,248.115 204.54,248.17C202.747,248.484 201.09,248.341 199.454,248.484C197.558,248.652 196.488,248.734 196.239,248.73C193.903,248.693 191.706,249.038 189.387,249.062C186.456,249.089 183.62,249.407 180.727,249.42C177.871,249.434 176.546,249.376 173.714,249.612C172.546,249.711 171.255,249.759 169.837,249.762C146.683,249.772 133.931,249.769 131.578,249.755C129.989,249.745 128.756,249.7 127.871,249.622C124.879,249.352 122.775,249.478 119.687,249.362C112.011,249.075 106.528,248.812 103.239,248.577C102.303,248.512 101.558,248.464 101.005,248.433C84.092,247.511 67.487,245.857 51.193,243.477C41.952,242.127 32.917,240.31 24.083,238.031C18.56,236.607 13.336,234.691 8.414,232.282C5.514,230.865 2.825,228.699 1.384,225.618C1.264,225.361 1.203,225.081 1.203,224.801C1.206,222.97 1.196,219.79 1.176,215.264C1.172,214.779 1.343,214.372 1.688,214.041Z" style="fill:white;fill-opacity:0.75;fill-rule:nonzero;"/>
    <path d="M121.6,216.589C122.177,217.344 122.269,217.781 121.883,217.901C120.5,218.178 119.195,218.605 117.972,219.179C116.568,219.838 114.822,221.279 116.547,222.871C117.213,223.49 117.921,223.92 118.665,224.169C121.326,225.064 124.035,225.638 126.785,225.888C132.288,226.386 137.416,226.229 142.164,225.416C143.814,225.133 145.382,224.716 146.868,224.162C148.074,223.715 148.996,223.059 149.628,222.195C149.901,221.819 149.911,221.293 149.652,220.866C148.784,219.438 146.902,218.673 145.344,218.331C145.18,218.284 145.068,218.212 145.009,218.113C144.955,218.021 144.972,217.898 145.064,217.74C145.266,217.392 145.409,217.126 145.495,216.941C148.866,217.556 151.268,218.933 152.706,221.068C152.586,222.178 152.258,222.974 151.722,223.455C149.881,225.109 146.922,226.055 144.555,226.547C137.938,227.917 131.144,228.098 124.172,227.09C121.142,226.649 118.255,225.959 115.509,224.501C114.423,223.923 113.616,223.076 113.087,221.952C113.066,220.815 113.575,219.899 114.61,219.209C116.496,217.949 118.826,217.078 121.6,216.589Z" style="fill:white;fill-opacity:0.95;fill-rule:nonzero;"/>
    <path d="M121.883,217.901C122.003,218.051 122.191,218.184 122.447,218.304C120.469,218.721 117.64,219.343 116.462,221.04C116.254,221.341 116.267,221.744 116.503,222.027C117.05,222.69 117.668,223.162 118.361,223.442C120.773,224.415 123.451,225.037 126.392,225.307C129.757,225.614 132.141,225.751 133.545,225.717C134.068,225.703 136.029,225.563 139.428,225.293C141.754,225.112 144.2,224.589 146.246,223.879C147.264,223.524 148.125,223.018 148.829,222.362C150.837,220.487 145.641,218.909 144.685,218.652C144.702,218.403 144.924,218.294 145.344,218.331C146.902,218.673 148.784,219.438 149.652,220.866C149.911,221.293 149.901,221.819 149.628,222.195C148.996,223.059 148.074,223.715 146.868,224.162C145.382,224.716 143.814,225.133 142.164,225.416C137.416,226.229 132.288,226.386 126.785,225.888C124.035,225.638 121.326,225.064 118.665,224.169C117.921,223.92 117.213,223.49 116.547,222.871C114.822,221.279 116.568,219.838 117.972,219.179C119.195,218.605 120.5,218.178 121.883,217.901Z" style="fill:white;fill-opacity:0.35;fill-rule:nonzero;"/>
    <path d="M122.447,218.304C122.966,218.95 123.506,219.647 124.066,220.398C125.033,221.693 126.358,222.554 128.035,222.981C131.598,223.882 135.226,223.906 138.926,223.056C140.985,222.581 142.642,221.587 143.674,219.927C144.06,219.305 144.395,218.881 144.685,218.652C145.641,218.909 150.837,220.487 148.829,222.362C148.125,223.018 147.264,223.524 146.246,223.879C144.2,224.589 141.754,225.112 139.428,225.293C136.029,225.563 134.068,225.703 133.545,225.717C132.141,225.751 129.757,225.614 126.392,225.307C123.451,225.037 120.773,224.415 118.361,223.442C117.668,223.162 117.05,222.69 116.503,222.027C116.267,221.744 116.254,221.341 116.462,221.04C117.64,219.343 120.469,218.721 122.447,218.304Z" style="fill:white;fill-opacity:0.95;fill-rule:nonzero;"/>
    <path d="M113.087,221.952C113.616,223.076 114.423,223.923 115.509,224.501C118.255,225.959 121.142,226.649 124.172,227.09C131.144,228.098 137.938,227.917 144.555,226.547C146.922,226.055 149.881,225.109 151.722,223.455C152.258,222.974 152.586,222.178 152.706,221.068C153.058,222.502 153.027,223.729 152.607,224.747C151.708,226.929 148.285,228.156 145.809,228.764C144.712,229.034 143.916,229.228 143.418,229.351C142.622,229.546 141.675,229.683 140.579,229.758C140.36,229.775 140.145,229.809 139.937,229.864C139.018,230.106 138.003,229.898 137.255,230.076C136.398,230.277 134.362,230.349 131.151,230.294C129.842,230.27 129.077,230.216 128.852,230.13C128.278,229.908 127.438,230.017 126.751,229.997C126.105,229.977 125.528,229.645 124.896,229.761C124.309,229.871 123.612,229.409 122.976,229.512C122.508,229.584 122.262,229.163 121.661,229.259C121.552,229.276 121.442,229.252 121.347,229.194C121.261,229.143 121.135,229.099 120.964,229.058C118.382,228.446 114.177,227.199 113.166,224.815C112.844,224.053 112.817,223.1 113.087,221.952Z" style="fill:white;fill-opacity:0.6;fill-rule:nonzero;"/>
</svg>
