<?xml version="1.0" encoding="UTF-8" standalone="no"?>
<!DOCTYPE svg PUBLIC "-//W3C//DTD SVG 1.1//EN" "http://www.w3.org/Graphics/SVG/1.1/DTD/svg11.dtd">
<svg width="100%" height="100%" viewBox="0 0 300 300" version="1.1" xmlns="http://www.w3.org/2000/svg" xmlns:xlink="http://www.w3.org/1999/xlink" xml:space="preserve" xmlns:serif="http://www.serif.com/" style="fill-rule:evenodd;clip-rule:evenodd;stroke-linejoin:round;stroke-miterlimit:2;">
    <path d="M148.316,144.011C146.494,144.026 143.631,144.041 141.488,144.006C141.343,144.002 141.21,143.923 141.136,143.796C140.925,143.433 140.584,143.176 140.113,143.025L141.05,141.95C141.127,141.86 141.195,141.762 141.25,141.654C141.599,140.976 141.981,140.319 142.403,139.684C143.804,137.574 145.169,135.442 146.509,133.288C147.386,131.879 147.933,130.995 148.151,130.641C150.431,126.939 152.893,122.846 155.549,118.373C158.256,113.815 161.383,108.287 164.95,101.809C165.507,100.797 166.366,99.145 167.823,96.412C169.07,94.072 169.917,92.427 170.359,91.48C172.102,87.753 173.167,85.503 173.571,84.739C174.017,83.897 174.388,83.075 174.684,82.273C174.776,82.024 175.147,81.204 175.793,79.814C176.29,78.745 176.823,77.505 177.39,76.09C178.979,72.124 180.414,68.021 181.693,63.777C182.981,59.501 183.456,55.112 183.12,50.609C182.726,45.329 181.204,40.336 179.187,35.484C172.109,18.455 154.095,10.187 142.65,9.51C145.149,8.653 147.51,8.295 149.733,8.434C151.542,8.548 152.849,8.622 153.647,8.656C155.601,8.733 158.169,9.211 159.417,9.497C162.678,10.243 165.63,11.256 168.26,12.564C176.904,16.863 181.924,22.569 183.57,24.221C184.427,25.081 185.188,26.018 185.857,27.033C186.982,28.746 187.873,30.118 188.536,31.144C189.488,32.624 200.822,49.881 191.504,70.639L191.477,70.704C188.285,78.356 184.72,86.009 181.071,93.322C179.831,95.806 178.581,98.252 177.333,100.645C176.581,102.086 175.83,103.508 175.082,104.907C170.732,113.045 166.485,120.438 162.824,126.51C162.233,127.491 161.657,128.437 161.099,129.346C156.181,137.353 152.608,142.502 151.774,143.139C151.032,143.707 150.095,143.996 148.957,144.006L148.316,144.011Z" style="fill:white;fill-opacity:0.25;"/>
    <path d="M97.651,67.256C96.81,64.855 96.15,62.42 95.672,59.951C95.475,58.925 95.136,58.084 95.093,57.162C95.003,55.245 94.985,53.14 95.044,50.849C95.077,49.539 95.198,48.467 95.407,47.628C95.752,46.251 95.826,45.045 96.252,43.378C98.03,36.449 101.159,30.38 105.644,25.174C112.499,17.209 121.169,12.197 131.658,10.142C132.678,9.944 133.985,9.873 135.243,9.692C137.659,9.34 140.128,9.279 142.65,9.51C154.095,10.187 172.109,18.455 179.187,35.484C181.204,40.336 182.726,45.329 183.12,50.609C183.456,55.112 182.981,59.501 181.693,63.777C180.414,68.021 178.979,72.124 177.39,76.09C176.823,77.505 176.29,78.745 175.793,79.814C175.147,81.204 174.776,82.024 174.684,82.273C174.388,83.075 174.017,83.897 173.571,84.739C173.167,85.503 172.102,87.753 170.359,91.48C169.917,92.427 169.07,94.072 167.823,96.412C166.366,99.145 165.507,100.797 164.95,101.809C161.383,108.287 158.256,113.815 155.549,118.373C152.893,122.846 150.431,126.939 148.151,130.641C147.933,130.995 147.386,131.879 146.509,133.288C145.169,135.442 143.804,137.574 142.403,139.684C141.981,140.319 141.599,140.976 141.25,141.654C141.195,141.762 141.127,141.86 141.05,141.95L140.113,143.025C138.982,143.315 138.045,142.957 137.305,141.953C136.707,141.142 136.223,140.442 135.853,139.857C132.096,133.908 128.76,128.501 125.435,122.79C125.426,122.775 125.174,122.474 124.692,121.872C124.624,121.786 124.52,121.738 124.412,121.742C120.175,121.894 115.975,122.552 111.441,123.219C109.367,123.523 107.958,123.81 107.219,124.072C103.805,125.286 100.747,126.891 98.04,128.881C97.759,129.087 97.657,129.461 97.793,129.781C98.173,130.673 98.689,131.492 99.334,132.234C102.318,135.67 105.665,138.612 109.361,141.062C110.091,141.546 112.09,142.925 111.3,143.966C110.53,144.978 109.533,145.7 108.322,146.379C104.81,148.347 101.541,150.413 98.508,152.574C97.155,153.539 96.018,154.433 95.099,155.256C93.45,156.733 93.441,159.266 94.375,161.081C95.413,163.1 96.269,164.912 96.933,166.519C97.106,166.938 97.315,167.28 97.559,167.548C97.62,167.616 97.694,167.666 97.781,167.699C105.815,170.824 114.272,174.164 123.123,177.788C124.307,178.272 125.481,178.327 126.649,177.948C130.992,176.539 134.784,175.677 139.78,174.594C151.598,172.034 160.302,170.047 165.893,168.63C169.996,167.59 173.193,166.7 175.476,165.961C177.261,165.383 178.73,164.696 179.884,163.905C182.57,162.062 185.749,159.694 188.625,157.204C192.284,154.035 194.415,152.218 195.018,151.751C196.03,150.968 196.324,150.229 195.622,149.147C194.641,147.637 193.23,145.562 191.39,142.921C189.541,140.267 187.8,137.49 186.135,134.605C185.96,134.302 185.678,134.081 185.346,133.982C181.899,132.958 179.338,132.182 177.664,131.655C172.358,129.984 166.722,129.571 161.099,129.346C161.657,128.437 162.233,127.491 162.824,126.51C162.968,126.516 163.111,126.519 163.255,126.52C163.748,126.521 164.133,126.532 164.414,126.551C168.215,126.807 171.738,127.355 174.989,128.181C177.542,128.829 180.457,129.659 183.733,130.662C184.328,130.844 184.775,130.89 185.074,130.795C186.082,130.474 186.93,130.237 187.611,130.083C188.425,129.898 189.325,129.482 189.769,129.016C191.75,126.939 194.096,125.358 196.802,124.27C199.123,123.336 201.108,122.675 202.757,122.291C205.661,121.614 209.338,120.922 213.792,120.216C214.288,121.033 214.6,122.121 214.732,123.474C210.21,124.014 205.766,124.868 201.404,126.033C197.961,126.951 194.466,128.434 191.926,130.872C190.604,132.139 189.957,133.107 188.508,133.35C188.323,133.381 188.224,133.584 188.317,133.748C191.19,138.889 195.203,144.12 198.152,148.614C198.593,149.286 199.04,150.839 198.39,151.517C197.366,152.59 196.171,153.761 194.87,154.877C189.824,159.198 186.803,161.843 182.809,164.632C182.756,164.669 182.778,164.749 182.84,164.756C183.878,164.876 185.04,164.956 186.329,164.996C187.854,165.042 190.9,165.594 192.327,166.679C195.104,168.784 197.835,171.395 200.255,173.482C204.129,176.826 207.664,179.964 210.867,182.901C212.208,184.128 213.508,185.493 214.775,186.994C215.527,187.882 216.356,188.665 217.349,189.688C217.645,189.99 218.095,190.083 218.486,189.916C219.346,189.543 220.225,189.069 221.116,188.492C228.516,183.696 235.356,178.518 241.634,172.954C244.966,170.005 247.54,167.129 248.724,162.857C249.078,161.59 249.245,159.953 249.226,157.947C249.18,152.713 248.184,147.63 246.856,142.384C246.791,142.132 246.637,141.913 246.418,141.771L244.834,140.738C246.47,140.486 248.03,140.532 249.519,140.88C249.627,141.241 249.741,141.592 249.867,141.94C250.021,142.366 250.132,142.72 250.2,143.004C251.353,147.837 252.299,152.812 252.296,157.793C252.296,160.742 251.824,163.335 250.878,165.566C249.957,167.742 248.286,170.048 245.869,172.486C241.428,176.958 236.444,180.996 231.709,184.602C231.167,185.015 230.59,185.401 229.98,185.755C229.909,185.795 229.894,185.857 229.931,185.937C230.017,186.119 231.435,186.02 232.797,185.993C234.921,185.953 237.304,186.443 238.944,187.953C239.603,188.56 240.269,189.146 240.938,189.71L241.502,193.658C240.556,193.199 239.591,192.542 238.604,191.682C238.321,191.439 237.649,190.933 236.586,190.166C236.456,190.074 236.311,190 236.157,189.947C235.291,189.657 234.551,189.497 233.935,189.463C231.564,189.34 229.956,189.244 229.105,189.174C228.202,189.103 227.397,188.93 226.698,188.659C226.482,188.576 226.238,188.603 226.05,188.733C224.512,189.778 223.005,190.789 221.529,191.769C220.074,192.737 218.57,193.153 217.013,193.017C216.884,193.005 216.776,193.116 216.791,193.245C217.488,199.733 217.854,203.09 217.895,203.312C218.058,204.206 217.999,204.893 217.722,205.371C217.275,206.145 216.723,206.672 216.073,206.958C210.207,209.52 205.55,211.699 202.095,213.496C201.444,213.832 200.446,214.146 199.798,214.485C196.485,216.208 193.208,217.642 190.095,219.186C186.418,221.014 182.313,222.872 177.772,224.768C177.658,224.814 177.541,224.851 177.421,224.876L176.16,225.125C175.343,224.873 174.727,224.364 174.311,223.603C177.806,221.615 181.342,219.784 184.914,218.11C188.61,216.375 192.469,214.562 196.491,212.67L199.339,211.329C204.567,208.854 208.678,206.934 211.678,205.568C212.759,205.075 213.669,204.702 214.408,204.446C215.308,204.135 214.862,203.636 214.825,203.038C214.797,202.597 214.387,198.951 213.592,192.099C213.237,189.022 211.502,187.059 209.221,185.04C204.228,180.623 201.645,178.342 201.475,178.197C198.082,175.26 195.619,173.102 194.081,171.728C192.441,170.264 191.282,169.373 190.604,169.055C189.291,168.448 187.867,168.121 186.332,168.075C185.299,168.044 183.234,168.026 180.14,168.023C178.047,168.02 175.646,168.42 172.933,169.222C169.829,170.137 165.662,171.231 160.428,172.504C151.61,174.65 142.727,176.515 133.877,178.552C132.441,178.882 130.139,179.526 126.967,180.478C126.088,180.74 124.369,180.953 123.413,181.64C121.545,182.987 118.608,185.009 114.604,187.709C109.435,191.195 106.091,193.486 102.111,196.411C100.598,197.527 99.269,198.457 98.863,200.091C97.734,204.631 96.341,209.067 94.686,213.403C93.142,217.45 91.681,221.257 90.303,224.823C89.6,226.645 89.153,228.177 88.962,229.419C88.796,230.504 88.82,231.74 89.039,233.124C87.252,233.629 85.59,233.7 84.058,233.334C84.117,232.504 84.641,232.131 85.63,232.212C85.791,232.224 85.914,232.07 85.861,231.916C85.208,229.958 86.016,227.144 86.666,225.267C87.396,223.156 89.338,218.036 92.491,209.905C93.666,206.875 94.59,203.99 95.269,201.247C95.937,198.541 96.733,196.95 98.653,195.332C100.838,193.492 103.178,191.695 105.671,189.944C110.258,186.723 115.223,183.317 120.565,179.72C120.599,179.695 120.624,179.674 120.636,179.655C120.67,179.591 120.639,179.507 120.571,179.48C115.467,177.365 109.228,174.85 101.852,171.931C100.752,171.493 99.541,171.056 98.218,170.618C97.978,170.538 97.713,170.55 97.479,170.652C96.844,170.936 96.671,171.037 95.996,171.173C91,172.19 87.612,172.964 85.831,173.494C81.09,174.902 78.39,175.692 77.727,175.861C74.648,176.647 71.741,176.567 69.004,175.621C67.747,175.186 66.609,174.755 65.595,174.332C57.911,171.127 50.84,168.316 44.383,165.902C43.498,165.572 40.718,164.583 36.036,162.934C34.181,162.277 32.451,161.707 30.846,161.22C28.407,160.477 26.672,159.919 25.633,159.543C24.484,159.127 23.038,158.841 21.611,158.378C21.035,158.19 20.366,158.008 19.611,157.833C18.976,157.682 18.307,157.506 17.601,157.3C16.929,156.624 16.519,155.666 16.374,154.421C16.319,153.961 16.248,153.496 16.158,153.021C16.445,153.592 16.877,153.927 17.447,154.029C17.922,154.112 18.165,154.152 18.174,154.156C21.21,154.972 23.091,155.496 23.818,155.728C25.535,156.27 27.141,156.547 28.697,157.038C38.188,160.009 46.26,162.82 52.909,165.474C56.943,167.086 61.795,169.062 67.457,171.401C69.997,172.452 71.939,172.85 74.479,172.813C75.4,172.8 77.157,172.4 79.749,171.614C83.488,170.479 86.641,169.613 89.206,169.015C90.244,168.772 92.044,168.457 94.6,168.066C94.683,168.051 94.732,167.961 94.695,167.884C93.882,166.18 92.901,164.219 91.758,161.997C91.086,160.693 90.269,158.693 90.651,157.287C91.524,154.079 95.099,151.687 97.892,149.803C101.106,147.637 104.46,145.565 107.952,143.596C108.128,143.497 108.134,143.244 107.965,143.133C105.665,141.648 103.406,139.891 101.338,137.807C99.235,135.686 97.537,134.182 96.387,132.573C96.233,132.358 96.018,132.188 95.765,132.093C94.59,131.639 93.718,131.362 93.151,131.254C89.708,130.61 86.154,129.821 82.489,128.881C80.042,128.252 78.304,127.272 76.645,125.703C75.903,125.003 73.088,122.399 68.197,117.886C68.006,117.711 67.648,117.627 67.121,117.637C68.733,117.341 70.253,117.288 71.686,117.482C72.01,117.729 72.327,117.96 72.638,118.179C73.017,118.444 73.341,118.712 73.615,118.98C74.941,120.281 76.618,121.819 78.649,123.595C79.681,124.501 80.911,125.13 82.338,125.484C84.57,126.036 86.589,126.473 88.395,126.794C90.537,127.173 92.343,127.774 94.529,128.295C94.852,128.372 95.192,128.289 95.444,128.07C96.005,127.58 96.828,126.643 97.556,126.097C99.383,124.732 101.424,123.57 103.677,122.618C104.096,122.439 104.827,121.976 105.872,121.231C105.989,121.147 106.121,121.079 106.257,121.033C106.938,120.808 107.684,120.648 108.489,120.552C112.104,120.115 115.729,119.708 119.363,119.335C120.593,119.209 121.829,119.224 123.037,119.104C123.102,119.098 123.139,119.027 123.105,118.971C119.64,113.152 115.948,106.565 112.03,99.214C111.377,97.99 110.751,96.84 110.153,95.765C105.388,86.475 100.912,77.141 97.651,67.256ZM146.493,71.267C148.571,70.357 150.429,69.235 152.072,67.901C155.386,65.244 157.725,61.169 158.668,57.082C158.903,56.055 158.81,55.282 158.986,54.286C159.081,53.75 159.112,53.05 159.075,52.184C158.869,47.299 157.22,43.128 154.131,39.667C151.215,36.403 148.151,34.953 143.408,33.582C139.78,32.534 134.029,33.164 131.464,34.202C128.065,35.578 125.457,37.981 123.219,40.73C120.606,43.939 119.358,48.214 119.181,52.236C119.117,53.701 119.318,55.442 119.782,57.455C120.752,61.662 122.843,65.117 126.064,67.821C127.423,68.961 128.383,69.773 129.032,70.095C132.44,71.785 135.99,72.305 138.996,72.321C142.989,72.342 146.023,71.472 146.493,71.267Z" style="fill:white;fill-opacity:0.5;"/>
    <path d="M143.408,33.582C139.78,32.534 134.029,33.164 131.464,34.202C128.065,35.578 125.457,37.981 123.219,40.73C120.606,43.939 119.358,48.214 119.181,52.236C119.117,53.701 119.318,55.442 119.782,57.455C120.752,61.662 122.843,65.117 126.064,67.821C127.423,68.961 128.412,69.719 129.032,70.095C132.365,71.748 135.949,72.283 138.996,72.321C142.989,72.342 146.023,71.472 146.493,71.267C146.493,71.267 144.366,70.598 144.172,70.551C141.912,70.008 139.71,68.901 137.555,67.25C136.781,66.658 136.177,66.07 135.739,65.484C133.264,63.342 131.704,59.785 130.94,56.613C130.709,55.639 130.582,54.795 130.561,54.08C130.478,50.902 130.471,48.686 131.362,46.029C132.099,43.819 133.15,41.787 134.512,39.935C135.289,38.881 136.309,37.944 137.465,37.149C139.311,35.885 141.29,34.695 143.408,33.582Z" style="fill:white;fill-opacity:0.25;"/>
    <path d="M146.493,71.267C148.571,70.357 150.429,69.235 152.072,67.901C151.44,67.67 150.907,67.515 150.476,67.438C145.8,66.609 136.454,65.364 135.739,65.484C136.177,66.07 136.781,66.658 137.555,67.25C139.71,68.901 141.912,70.008 144.172,70.551C144.366,70.598 146.493,71.267 146.493,71.267Z" style="fill:white;fill-opacity:0.15;"/>
    <path d="M191.477,70.704C193.326,70.939 195.165,71.184 196.99,71.439C204.326,72.462 210.697,75.415 216.107,80.295C218.776,82.705 221.636,86.361 224.447,89.36C225.492,90.478 226.639,91.231 227.884,91.616C232.27,92.969 236.533,94.501 240.679,96.215C244.649,97.857 247.568,99.087 249.947,102.339C251.451,104.395 250.955,106.562 249.602,108.501C249.312,108.914 248.687,109.447 247.725,110.103C245.721,111.463 243.931,113.032 242.349,114.807C240.355,117.048 240.155,119.378 241.742,121.804C242.063,122.294 242.716,122.975 243.706,123.847C245.127,125.102 247.059,126.329 249.51,127.531C249.827,127.688 253.122,129.272 259.391,132.29C260.775,132.956 263.852,134.222 268.62,136.093C271.896,137.379 275.043,139.139 278.055,141.373C281.174,143.685 283.862,145.744 286.118,147.553C289.028,149.887 291.537,152.695 293.648,155.977C295.084,158.206 296.65,160.73 298.345,163.55C300.223,166.67 300.503,169.925 299.184,173.318C298.105,176.089 296.687,178.657 294.933,181.021C290.47,187.031 284.583,192.046 278.292,196.519C274.686,199.083 270.901,201.906 268.571,205.494C265.396,210.386 268.694,217.185 272.254,220.915C275.367,224.179 277.426,226.355 278.434,227.437C281.942,231.207 286.556,237.072 285.36,242.562C284.894,244.71 283.554,246.369 281.34,247.54C276.951,249.867 271.881,250.474 266.795,251.06C265.189,251.245 261.136,251.633 254.639,252.222C252.65,252.401 249.846,252.851 248.378,254.071C245.5,256.466 247.555,260.128 249.232,262.736C250.884,265.303 252.617,267.988 254.429,270.79C255.964,273.163 256.485,276.627 253.332,278.018C247.075,280.77 241.246,283.119 235.846,285.057C233.519,285.893 230.766,286.633 227.585,287.277C224.537,287.893 219.245,288.997 211.708,290.584C206.7,291.641 201.558,291.869 196.281,291.268C185.382,290.029 177.914,289.114 168.316,288.744C162.648,288.525 159.39,288.485 155.145,288.143C140.057,286.925 126.948,285.443 113.91,280.317C109.54,278.6 106.186,275.66 103.85,271.498C102.86,269.735 101.914,267.753 101.008,265.556C100.253,263.716 99.103,262.44 97.226,261.207C93.854,258.994 90.445,257.511 86.999,256.762C80.97,255.446 74.953,255.662 68.114,256.186C60.95,256.734 55.125,257.326 48.427,256.873C39.399,256.266 31.243,253.097 23.96,247.367C21.71,245.595 20.014,243.961 18.871,242.469C16.948,239.957 15.354,237.313 14.087,234.533C12.589,231.247 12.404,227.943 14.87,225.051C18.375,220.937 20.634,218.088 23.725,214.485C25.442,212.485 27.258,210.195 29.175,207.618C30.92,205.269 32.282,202.175 30.436,199.669C29.841,198.864 28.706,198.057 27.84,197.536C21.549,193.741 15.043,189.932 10.317,184.575C8.921,182.994 7.63,180.919 6.443,178.345C4.603,174.366 3.099,170.584 1.924,166.993C1.487,165.653 1.064,163.788 0.658,161.399C-0.07,157.133 -0.193,152.297 0.285,146.894C0.722,141.944 1.505,137.653 3.382,133.418C5.256,129.195 7.83,125.056 11.365,122.075C13.452,120.315 15.921,118.7 18.772,117.23C26.336,113.328 35.312,110.899 43.56,109.808C49.891,108.966 56.647,108.778 62.738,108.257C65.568,108.017 68.234,107.505 70.737,106.722C70.959,106.654 71.137,106.494 71.227,106.281C72.497,103.338 71.544,100.853 69.605,98.326C65.904,93.499 60.519,90.583 56.758,85.793C55.19,83.793 54.499,81.543 54.684,79.043C55.045,74.216 59.495,72.749 63.472,71.769C66.662,70.983 69.753,70.354 72.752,69.889C81.334,68.551 87.951,67.787 92.602,67.599C94.819,67.509 96.501,67.395 97.651,67.256C100.912,77.141 105.388,86.475 110.153,95.765C107.567,97.534 105.557,99.312 104.13,101.1C102.013,103.757 101.273,105.72 99.374,109.672C96.964,114.681 92.004,116.028 86.509,116.718C85.754,116.814 85.341,116.869 85.267,116.888C84.222,117.119 83.349,116.983 82.147,117.168C80.304,117.449 78.338,117.276 76.297,117.415C74.793,117.516 73.255,117.538 71.686,117.482C70.253,117.288 68.733,117.341 67.121,117.637C65.614,117.596 64.64,117.6 64.196,117.643C61.542,117.908 59.884,118.01 59.227,117.948C59.052,117.932 58.87,117.948 58.7,118C58.407,118.087 57.421,118.198 55.741,118.33C54.006,118.469 51.281,118.894 47.573,119.606C42.534,120.571 37.007,122.494 32.347,125.324C32.177,125.426 31.995,125.509 31.81,125.57C30.269,126.079 28.925,126.581 27.776,127.078C21.969,129.596 17.777,134.151 16.239,140.328C15.684,142.557 15.483,145.078 15.634,147.892C15.736,149.776 15.829,151.095 15.909,151.844C15.835,152.503 15.816,152.923 15.856,153.098C16.032,153.906 16.205,154.72 16.374,155.54C16.448,155.894 16.454,156.258 16.393,156.615C16.248,157.451 16.223,158.138 16.319,158.674C17.626,166.09 21.867,173.235 28.281,177.39C36.095,182.451 43.119,184.532 53.744,188.502C58.568,190.305 63.24,192.484 67.765,195.036C65.484,197.511 62.963,199.592 60.201,201.275C55.889,203.901 51.648,206.074 47.478,207.797C41.372,210.315 38.169,211.64 37.864,211.767C36.696,212.248 35.46,212.984 34.153,213.98C32.713,215.074 31.194,217.441 31.863,219.331C32.131,220.08 32.596,220.967 33.262,221.988C30.688,225.264 32.35,228.223 34.893,230.723C37.306,233.099 40.12,235.164 43.335,236.918C47.172,239.011 50.736,240.626 54.857,241.434C58.731,242.195 62.587,242.429 66.428,242.143C68.933,241.952 73.187,241.529 77.219,240.987C83.158,240.189 89.246,239.72 95.487,239.578C98.582,239.507 103.696,239.763 108.026,239.051C112.218,238.364 115.701,236.434 118.478,233.269C121.348,229.989 122.951,227.172 125.518,222.576C126.304,221.174 126.973,220.197 127.531,219.645C129.689,217.509 132.456,217.361 135.326,217.324C142.6,217.235 149.807,218.246 156.945,220.357C161.313,221.649 165.005,223.359 168.485,225.945C169.999,227.067 172.132,228.741 174.887,230.966C179.344,234.563 184.507,237.223 190.41,237.791C195.357,238.268 200.563,238.049 206.022,237.134C215.265,235.587 224.682,232.865 232.958,228.38C234.798,227.385 236.475,226.34 237.988,225.252C238.913,224.586 240.09,223.556 241.523,222.16C242.95,220.77 243.854,219.164 244.233,217.339C244.587,215.632 244.347,214.1 243.508,212.747C244.347,211.193 244.652,209.458 244.421,207.544C244.408,207.442 244.384,207.344 244.347,207.248C243.838,205.901 243.496,204.52 243.314,203.102C243.169,201.953 243.034,201.028 242.91,200.334C242.581,198.479 242.251,196.657 241.921,194.866C243.511,193.122 245.278,191.707 247.216,190.625C256.565,185.41 267.809,184.347 277.204,181.856C280.533,180.975 284.281,179.569 284.324,175.442C284.34,174.076 284.028,172.797 283.393,171.611C283.936,170.763 284.299,169.7 284.481,168.427C284.497,168.325 284.497,168.22 284.484,168.118C284.219,166.112 283.649,164.198 282.774,162.376C280.687,158.033 277.965,154.112 274.606,150.62C273.724,149.705 272.279,148.484 271.505,147.846C266.869,144.015 260.966,141.722 254.904,141.284C253.162,141.158 251.365,141.025 249.519,140.88C248.03,140.532 246.47,140.486 244.834,140.738C237.375,140.402 230.399,138.42 224.028,134.521C219.605,131.815 216.507,128.132 214.732,123.474C214.6,122.121 214.288,121.033 213.792,120.216C213.37,117.917 213.011,115.683 212.713,113.509C212.386,111.121 212.115,109.478 211.896,108.575C210.667,103.486 208.146,99.477 203.309,97.068C201.659,96.247 200.008,95.623 198.356,95.201L197.296,94.556C197.228,94.516 197.154,94.486 197.077,94.47C195.903,94.223 194.019,93.773 192.872,94.122L181.071,93.322C184.72,86.009 188.285,78.356 191.477,70.704ZM134.278,249.867C133.763,250.372 133.356,251.109 133.051,252.08C131.785,256.115 136.06,258.01 138.581,259.887C142.243,262.615 142.354,267.122 143.469,271.089C144.539,274.898 147.883,277.278 151.594,278.233C153.962,278.844 156.489,279.294 159.174,279.583C161.433,279.83 164.019,280.123 166.322,280.187C174.847,280.434 183.342,280.04 191.803,279.001C196.608,278.412 201.284,277.463 205.83,276.159C209.948,274.978 214.146,273.262 217.3,270.327C217.392,270.244 217.472,270.148 217.537,270.044C218.129,269.125 218.825,268.022 218.594,267.014C218.295,265.71 217.423,264.93 216.514,264.005C217.959,262.637 218.835,261.792 218.625,259.85C218.566,259.293 218.354,258.781 217.987,258.316C217.022,257.083 215.469,256.29 213.995,255.742C212.023,255.008 209.853,254.376 207.483,253.849C204.545,253.196 201.537,252.573 198.451,251.984L195.064,251.337C189.599,250.453 184.282,249.334 179.119,247.984C175.553,247.05 172.73,245.234 170.646,242.537C168.479,239.729 165.684,238.006 162.265,237.368L160.009,236.949C159.84,236.927 159.667,236.918 159.494,236.921C158.409,236.934 157.334,236.909 156.27,236.85C155.151,236.789 153.844,236.946 152.63,236.798C150.691,236.561 148.398,236.533 146.817,236.644C143.879,236.85 141.019,237.71 138.242,239.221C136.618,240.105 135.2,241.338 133.988,242.923C132.802,244.476 132.355,246.227 133.033,248.055C133.054,248.11 133.079,248.162 133.113,248.209L134.278,249.867Z" style="fill:white;fill-opacity:0.1;"/>
    <path d="M192.872,94.122L181.071,93.322C179.831,95.806 178.581,98.252 177.333,100.645C182.436,98.706 187.602,96.618 192.848,94.433C192.952,94.389 192.997,94.313 192.99,94.202C192.986,94.15 192.946,94.125 192.872,94.122Z" style="fill:white;fill-opacity:0.95;"/>
    <path d="M198.356,95.201L197.296,94.556C197.228,94.516 197.154,94.486 197.077,94.47C195.903,94.223 194.019,93.773 192.872,94.122C192.946,94.125 192.986,94.15 192.99,94.202C192.997,94.313 192.952,94.389 192.848,94.433C187.602,96.618 182.436,98.706 177.333,100.645C176.581,102.086 175.83,103.508 175.082,104.907C175.428,104.766 175.763,104.635 176.086,104.515C178.546,103.605 180.999,102.68 183.444,101.735C188.199,99.896 190.644,98.951 190.783,98.893C193.366,97.811 195.893,96.584 198.356,95.201Z" style="fill:white;fill-opacity:0.5;"/>
    <path d="M213.792,120.216C213.37,117.917 213.011,115.683 212.713,113.509C212.386,111.121 212.115,109.478 211.896,108.575C210.667,103.486 208.146,99.477 203.309,97.068C201.659,96.247 200.008,95.623 198.356,95.201C195.893,96.584 193.366,97.811 190.783,98.893C190.644,98.951 188.199,99.896 183.444,101.735C180.999,102.68 178.546,103.605 176.086,104.515C175.763,104.635 175.428,104.766 175.082,104.907C170.732,113.045 166.485,120.438 162.824,126.51C162.968,126.516 163.111,126.519 163.255,126.52C163.748,126.521 164.133,126.532 164.414,126.551C168.215,126.807 171.738,127.355 174.989,128.181C177.542,128.829 180.457,129.659 183.733,130.662C184.328,130.844 184.775,130.89 185.074,130.795C186.082,130.474 186.93,130.237 187.611,130.083C188.425,129.898 189.325,129.482 189.769,129.016C191.75,126.939 194.096,125.358 196.802,124.27C199.123,123.336 201.108,122.675 202.757,122.291C205.661,121.614 209.338,120.922 213.792,120.216Z" style="fill:white;fill-opacity:0.95;"/>
    <path d="M71.686,117.482C73.255,117.538 74.793,117.516 76.297,117.415C78.338,117.276 80.304,117.449 82.147,117.168C83.349,116.983 84.222,117.119 85.267,116.888C85.341,116.869 85.754,116.814 86.509,116.718C92.004,116.028 96.964,114.681 99.374,109.672C101.273,105.72 102.013,103.757 104.13,101.1C105.557,99.312 107.567,97.534 110.153,95.765C110.751,96.84 111.377,97.99 112.03,99.214C115.948,106.565 119.64,113.152 123.105,118.971C123.139,119.027 123.102,119.098 123.037,119.104C121.829,119.224 120.593,119.209 119.363,119.335C115.729,119.708 112.104,120.115 108.489,120.552C107.684,120.648 106.938,120.808 106.257,121.033C106.121,121.079 105.989,121.147 105.872,121.231C104.827,121.976 104.096,122.439 103.677,122.618C101.424,123.57 99.383,124.732 97.556,126.097C96.828,126.643 96.005,127.58 95.444,128.07C95.192,128.289 94.852,128.372 94.529,128.295C92.343,127.774 90.537,127.173 88.395,126.794C86.589,126.473 84.57,126.036 82.338,125.484C80.911,125.13 79.681,124.501 78.649,123.595C76.618,121.819 74.941,120.281 73.615,118.98C73.341,118.712 73.017,118.444 72.638,118.179C72.327,117.96 72.01,117.729 71.686,117.482Z" style="fill:white;fill-opacity:0.95;fill-rule:nonzero;"/>
    <path d="M67.121,117.637C67.648,117.627 68.006,117.711 68.197,117.886C73.088,122.399 75.903,125.003 76.645,125.703C78.304,127.272 80.042,128.252 82.489,128.881C86.154,129.821 89.708,130.61 93.151,131.254C93.718,131.362 94.59,131.639 95.765,132.093C96.018,132.188 96.233,132.358 96.387,132.573C97.537,134.182 99.235,135.686 101.338,137.807C103.406,139.891 105.665,141.648 107.965,143.133C108.134,143.244 108.128,143.497 107.952,143.596C104.46,145.565 101.106,147.637 97.892,149.803C95.099,151.687 91.524,154.079 90.651,157.287C90.269,158.693 91.086,160.693 91.758,161.997C92.901,164.219 93.882,166.18 94.695,167.884C94.732,167.961 94.683,168.051 94.6,168.066C92.044,168.457 90.244,168.772 89.206,169.015C86.641,169.613 83.488,170.479 79.749,171.614C77.157,172.4 75.4,172.8 74.479,172.813C71.939,172.85 69.997,172.452 67.457,171.401C61.795,169.062 56.943,167.086 52.909,165.474C46.26,162.82 38.188,160.009 28.697,157.038C27.141,156.547 25.535,156.27 23.818,155.728C23.091,155.496 21.21,154.972 18.174,154.156C18.165,154.152 17.922,154.112 17.447,154.029C16.877,153.927 16.445,153.592 16.158,153.021C15.903,152.559 16.091,152.251 15.909,151.844C15.829,151.095 15.736,149.776 15.634,147.892C15.483,145.078 15.684,142.557 16.239,140.328C17.777,134.151 21.969,129.596 27.776,127.078C28.925,126.581 30.269,126.079 31.81,125.57C31.995,125.509 32.177,125.426 32.347,125.324C37.007,122.494 42.534,120.571 47.573,119.606C51.281,118.894 54.006,118.469 55.741,118.33C57.421,118.198 58.407,118.087 58.7,118C58.87,117.948 59.052,117.932 59.227,117.948C59.884,118.01 61.542,117.908 64.196,117.643C64.64,117.6 65.614,117.596 67.121,117.637Z" style="fill:white;fill-opacity:0.95;fill-rule:nonzero;"/>
    <path d="M140.113,143.025C138.982,143.315 138.045,142.957 137.305,141.953C136.707,141.142 136.223,140.442 135.853,139.857C132.096,133.908 128.76,128.501 125.435,122.79C125.426,122.775 125.174,122.474 124.692,121.872C124.624,121.786 124.52,121.738 124.412,121.742C120.175,121.894 115.975,122.552 111.441,123.219C109.367,123.523 107.958,123.81 107.219,124.072C103.805,125.286 100.747,126.891 98.04,128.881C97.759,129.087 97.657,129.461 97.793,129.781C98.173,130.673 98.689,131.492 99.334,132.234C102.318,135.67 105.665,138.612 109.361,141.062C110.091,141.546 112.09,142.925 111.3,143.966C110.53,144.978 109.533,145.7 108.322,146.379C104.81,148.347 101.541,150.413 98.508,152.574C97.155,153.539 96.018,154.433 95.099,155.256C93.45,156.733 93.441,159.266 94.375,161.081C95.413,163.1 96.269,164.912 96.933,166.519C97.106,166.938 97.315,167.28 97.559,167.548C97.62,167.616 97.694,167.666 97.781,167.699C105.815,170.824 114.272,174.164 123.123,177.788C124.307,178.272 125.481,178.327 126.649,177.948C130.992,176.539 134.784,175.677 139.78,174.594C151.598,172.034 160.302,170.047 165.893,168.63C169.996,167.59 173.193,166.7 175.476,165.961C177.261,165.383 178.73,164.696 179.884,163.905C182.57,162.062 185.749,159.694 188.625,157.204C192.284,154.035 194.415,152.218 195.018,151.751C196.03,150.968 196.324,150.229 195.622,149.147C194.641,147.637 193.23,145.562 191.39,142.921C189.541,140.267 187.8,137.49 186.135,134.605C185.96,134.302 185.678,134.081 185.346,133.982C181.899,132.958 179.338,132.182 177.664,131.655C172.358,129.984 166.722,129.571 161.099,129.346C156.181,137.353 152.608,142.502 151.774,143.139C151.032,143.707 150.095,143.996 148.957,144.006C148.763,144.007 148.548,144.009 148.316,144.011C148.117,144.032 147.911,144.044 147.698,144.046C145.975,144.061 143.904,144.046 141.488,144.006C141.343,144.002 141.21,143.923 141.136,143.796C140.925,143.433 140.584,143.176 140.113,143.025Z" style="fill:white;fill-opacity:0.95;"/>
    <path d="M214.732,123.474C216.507,128.132 219.605,131.815 224.028,134.521C230.399,138.42 237.375,140.402 244.834,140.738L246.418,141.771C246.637,141.913 246.791,142.132 246.856,142.384C248.184,147.63 249.18,152.713 249.226,157.947C249.245,159.953 249.078,161.59 248.724,162.857C247.54,167.129 244.966,170.005 241.634,172.954C235.356,178.518 228.516,183.696 221.116,188.492C220.225,189.069 219.346,189.543 218.486,189.916C218.095,190.083 217.645,189.99 217.349,189.688C216.356,188.665 215.527,187.882 214.775,186.994C213.508,185.493 212.208,184.128 210.867,182.901C207.664,179.964 204.129,176.826 200.255,173.482C197.835,171.395 195.104,168.784 192.327,166.679C190.9,165.594 187.854,165.042 186.329,164.996C185.04,164.956 183.878,164.876 182.84,164.756C182.778,164.749 182.756,164.669 182.809,164.632C186.803,161.843 189.824,159.198 194.87,154.877C196.171,153.761 197.366,152.59 198.39,151.517C199.04,150.839 198.593,149.286 198.152,148.614C195.203,144.12 191.19,138.889 188.317,133.748C188.224,133.584 188.323,133.381 188.508,133.35C189.957,133.107 190.604,132.139 191.926,130.872C194.466,128.434 197.961,126.951 201.404,126.033C205.766,124.868 210.21,124.014 214.732,123.474Z" style="fill:white;fill-opacity:0.95;fill-rule:nonzero;"/>
    <path d="M249.519,140.88C251.365,141.025 253.162,141.158 254.904,141.284C260.966,141.722 266.869,144.015 271.505,147.846C272.279,148.484 273.724,149.705 274.606,150.62C277.965,154.112 280.687,158.033 282.774,162.376C283.649,164.198 284.219,166.112 284.484,168.118C284.497,168.22 284.497,168.325 284.481,168.427C284.299,169.7 283.936,170.763 283.393,171.611C282.247,172.924 280.872,173.842 279.272,174.369C277.793,174.853 276.322,175.257 274.858,175.581C269.295,176.81 265.245,177.692 262.705,178.231C257.761,179.279 253.193,180.799 249.004,182.787C245.832,184.291 242.692,186.606 240.938,189.71C240.269,189.146 239.603,188.56 238.944,187.953C237.304,186.443 234.921,185.953 232.797,185.993C231.435,186.02 230.017,186.119 229.931,185.937C229.894,185.857 229.909,185.795 229.98,185.755C230.59,185.401 231.167,185.015 231.709,184.602C236.444,180.996 241.428,176.958 245.869,172.486C248.286,170.048 249.957,167.742 250.878,165.566C251.824,163.335 252.296,160.742 252.296,157.793C252.299,152.812 251.353,147.837 250.2,143.004C250.132,142.72 250.021,142.366 249.867,141.94C249.741,141.592 249.627,141.241 249.519,140.88Z" style="fill:white;fill-opacity:0.95;fill-rule:nonzero;"/>
    <path d="M16.158,153.021C16.248,153.496 16.319,153.961 16.374,154.421C16.519,155.666 16.929,156.624 17.601,157.3C18.31,158.77 18.979,160.058 19.608,161.171C21.824,165.101 24.829,168.285 28.623,170.717C32.535,173.223 36.72,175.306 41.18,176.961C44.549,178.21 48.855,179.813 54.105,181.767C59.542,183.792 64.742,186.298 69.707,189.281C70.006,189.46 70.191,189.781 70.194,190.126C70.197,190.622 70.083,191.155 69.849,191.723C69.316,193.014 68.619,194.118 67.765,195.036C63.24,192.484 58.568,190.305 53.744,188.502C43.119,184.532 36.095,182.451 28.281,177.39C21.867,173.235 17.626,166.09 16.319,158.674C16.223,158.138 16.248,157.451 16.393,156.615C16.454,156.258 16.448,155.894 16.374,155.54C16.205,154.72 16.032,153.906 15.856,153.098C15.816,152.923 15.835,152.503 15.909,151.844C16.091,152.251 15.903,152.559 16.158,153.021Z" style="fill:white;fill-opacity:0.35;fill-rule:nonzero;"/>
    <path d="M84.058,233.334C80.566,233.728 77.068,234.15 73.557,234.6C71.258,234.893 68.53,235.094 66.942,235.245C65.071,235.42 63.413,235.476 61.967,235.408C58.518,235.245 55.701,234.872 53.513,234.286C48.301,232.893 43.427,230.526 38.89,227.181C36.465,225.394 34.591,223.661 33.262,221.988C32.596,220.967 32.131,220.08 31.863,219.331C31.194,217.441 32.713,215.074 34.153,213.98C35.46,212.984 36.696,212.248 37.864,211.767C38.169,211.64 41.372,210.315 47.478,207.797C51.648,206.074 55.889,203.901 60.201,201.275C62.963,199.592 65.484,197.511 67.765,195.036C68.619,194.118 69.316,193.014 69.849,191.723C70.083,191.155 70.197,190.622 70.194,190.126C70.191,189.781 70.006,189.46 69.707,189.281C64.742,186.298 59.542,183.792 54.105,181.767C48.855,179.813 44.549,178.21 41.18,176.961C36.72,175.306 32.535,173.223 28.623,170.717C24.829,168.285 21.824,165.101 19.608,161.171C18.979,160.058 18.31,158.77 17.601,157.3C18.307,157.506 18.976,157.682 19.611,157.833C20.366,158.008 21.035,158.19 21.611,158.378C23.038,158.841 24.484,159.127 25.633,159.543C26.672,159.919 28.407,160.477 30.846,161.22C32.451,161.707 34.181,162.277 36.036,162.934C40.718,164.583 43.498,165.572 44.383,165.902C50.84,168.316 57.911,171.127 65.595,174.332C66.609,174.755 67.747,175.186 69.004,175.621C71.741,176.567 74.648,176.647 77.727,175.861C78.39,175.692 81.09,174.902 85.831,173.494C87.612,172.964 91,172.19 95.996,171.173C96.671,171.037 96.844,170.936 97.479,170.652C97.713,170.55 97.978,170.538 98.218,170.618C99.541,171.056 100.752,171.493 101.852,171.931C109.228,174.85 115.467,177.365 120.571,179.48C120.639,179.507 120.67,179.591 120.636,179.655C120.624,179.674 120.599,179.695 120.565,179.72C115.223,183.317 110.258,186.723 105.671,189.944C103.178,191.695 100.838,193.492 98.653,195.332C96.733,196.95 95.937,198.541 95.269,201.247C94.59,203.99 93.666,206.875 92.491,209.905C89.338,218.036 87.396,223.156 86.666,225.267C86.016,227.144 85.208,229.958 85.861,231.916C85.914,232.07 85.791,232.224 85.63,232.212C84.641,232.131 84.117,232.504 84.058,233.334Z" style="fill:white;fill-opacity:0.95;fill-rule:nonzero;"/>
    <path d="M174.311,223.603C172.748,222.336 171.142,221.063 169.499,219.79C165.375,216.603 161.042,214.609 155.774,213.157C148.065,211.033 140.273,210.195 132.401,210.645C129.574,210.808 127.63,212.232 126.175,214.775C123.61,219.254 122.263,221.83 119.616,225.122C116.555,228.923 112.884,231.312 108.106,232.202C106.226,232.551 104.46,232.726 102.805,232.729C97.488,232.739 94.406,232.742 93.558,232.745C92.673,232.748 91.169,232.874 89.039,233.124C88.82,231.74 88.796,230.504 88.962,229.419C89.153,228.177 89.6,226.645 90.303,224.823C91.681,221.257 93.142,217.45 94.686,213.403C96.341,209.067 97.734,204.631 98.863,200.091C99.269,198.457 100.598,197.527 102.111,196.411C106.091,193.486 109.435,191.195 114.604,187.709C118.608,185.009 121.545,182.987 123.413,181.64C124.369,180.953 126.088,180.74 126.967,180.478C130.139,179.526 132.441,178.882 133.877,178.552C142.727,176.515 151.61,174.65 160.428,172.504C165.662,171.231 169.829,170.137 172.933,169.222C175.646,168.42 178.047,168.02 180.14,168.023C183.234,168.026 185.299,168.044 186.332,168.075C187.867,168.121 189.291,168.448 190.604,169.055C191.282,169.373 192.441,170.264 194.081,171.728C195.619,173.102 198.082,175.26 201.475,178.197C201.645,178.342 204.228,180.623 209.221,185.04C211.502,187.059 213.237,189.022 213.592,192.099C214.387,198.951 214.797,202.597 214.825,203.038C214.862,203.636 215.308,204.135 214.408,204.446C213.669,204.702 212.759,205.075 211.678,205.568C208.678,206.934 204.567,208.854 199.339,211.329C199.046,211.468 198.097,211.915 196.491,212.67C192.469,214.562 188.61,216.375 184.914,218.11C181.342,219.784 177.806,221.615 174.311,223.603Z" style="fill:white;fill-opacity:0.95;fill-rule:nonzero;"/>
    <path d="M283.393,171.611C284.028,172.797 284.34,174.076 284.324,175.442C284.281,179.569 280.533,180.975 277.204,181.856C267.809,184.347 256.565,185.41 247.216,190.625C245.278,191.707 243.511,193.122 241.921,194.866L241.502,193.658L240.938,189.71C242.692,186.606 245.832,184.291 249.004,182.787C253.193,180.799 257.761,179.279 262.705,178.231C265.245,177.692 269.295,176.81 274.858,175.581C276.322,175.257 277.793,174.853 279.272,174.369C280.872,173.842 282.247,172.924 283.393,171.611Z" style="fill:white;fill-opacity:0.95;fill-rule:nonzero;"/>
    <path d="M241.502,193.658L241.921,194.866C242.251,196.657 242.581,198.479 242.91,200.334C243.034,201.028 243.169,201.953 243.314,203.102C243.496,204.52 243.838,205.901 244.347,207.248C244.384,207.344 244.408,207.442 244.421,207.544C244.652,209.458 244.347,211.193 243.508,212.747C242.081,215.145 239.868,217.084 237.658,218.603C235.057,220.394 232.28,222.034 229.21,223.409C221.621,226.802 213.598,229.046 205.451,230.393C201.148,231.105 196.91,231.358 192.734,231.151C186.397,230.84 181.234,228.815 176.16,225.125L177.421,224.876C177.541,224.851 177.658,224.814 177.772,224.768C182.313,222.872 186.418,221.014 190.095,219.186C193.208,217.642 196.485,216.208 199.798,214.485C200.446,214.146 201.444,213.832 202.095,213.496C205.55,211.699 210.207,209.52 216.073,206.958C216.723,206.672 217.275,206.145 217.722,205.371C217.999,204.893 218.058,204.206 217.895,203.312C217.854,203.09 217.488,199.733 216.791,193.245C216.776,193.116 216.884,193.005 217.013,193.017C218.57,193.153 220.074,192.737 221.529,191.769C223.005,190.789 224.512,189.778 226.05,188.733C226.238,188.603 226.482,188.576 226.698,188.659C227.397,188.93 228.202,189.103 229.105,189.174C229.956,189.244 231.564,189.34 233.935,189.463C234.551,189.497 235.291,189.657 236.157,189.947C236.311,190 236.456,190.074 236.586,190.166C237.649,190.933 238.321,191.439 238.604,191.682C239.591,192.542 240.556,193.199 241.502,193.658Z" style="fill:white;fill-opacity:0.95;fill-rule:nonzero;"/>
    <path d="M174.311,223.603C174.727,224.364 175.343,224.873 176.16,225.125C181.234,228.815 186.397,230.84 192.734,231.151C196.91,231.358 201.148,231.105 205.451,230.393C213.598,229.046 221.621,226.802 229.21,223.409C232.28,222.034 235.057,220.394 237.658,218.603C239.868,217.084 242.081,215.145 243.508,212.747C244.347,214.1 244.587,215.632 244.233,217.339C243.854,219.164 242.95,220.77 241.523,222.16C240.09,223.556 238.913,224.586 237.988,225.252C236.475,226.34 234.798,227.385 232.958,228.38C224.682,232.865 215.265,235.587 206.022,237.134C200.563,238.049 195.357,238.268 190.41,237.791C184.507,237.223 179.344,234.563 174.887,230.966C172.132,228.741 169.999,227.067 168.485,225.945C165.005,223.359 161.313,221.649 156.945,220.357C149.807,218.246 142.6,217.235 135.326,217.324C132.456,217.361 129.689,217.509 127.531,219.645C126.973,220.197 126.304,221.174 125.518,222.576C122.951,227.172 121.348,229.989 118.478,233.269C115.701,236.434 112.218,238.364 108.026,239.051C103.696,239.763 98.582,239.507 95.487,239.578C89.246,239.72 83.158,240.189 77.219,240.987C73.187,241.529 68.933,241.952 66.428,242.143C62.587,242.429 58.731,242.195 54.857,241.434C50.736,240.626 47.172,239.011 43.335,236.918C40.12,235.164 37.306,233.099 34.893,230.723C32.35,228.223 30.688,225.264 33.262,221.988C34.591,223.661 36.465,225.394 38.89,227.181C43.427,230.526 48.301,232.893 53.513,234.286C55.701,234.872 58.518,235.245 61.967,235.408C63.413,235.476 65.071,235.42 66.942,235.245C68.53,235.094 71.258,234.893 73.557,234.6C77.068,234.15 80.566,233.728 84.058,233.334C85.59,233.7 87.252,233.629 89.039,233.124C91.169,232.874 92.673,232.748 93.558,232.745C94.406,232.742 97.488,232.739 102.805,232.729C104.46,232.726 106.226,232.551 108.106,232.202C112.884,231.312 116.555,228.923 119.616,225.122C122.263,221.83 123.61,219.254 126.175,214.775C127.63,212.232 129.574,210.808 132.401,210.645C140.273,210.195 148.065,211.033 155.774,213.157C161.042,214.609 165.375,216.603 169.499,219.79C171.142,221.063 172.748,222.336 174.311,223.603Z" style="fill:white;fill-opacity:0.35;fill-rule:nonzero;"/>
    <path d="M195.064,251.337C194.025,252.394 192.718,253.208 191.146,253.775C188.326,254.796 185.444,255.532 182.497,255.991C180.334,256.331 178.105,256.682 175.812,257.049C173.389,257.437 170.64,257.705 167.958,258.174C164.481,258.784 161.452,259.379 159.094,261.247C157.673,262.372 156.39,263.691 155.247,265.204C154.96,265.587 154.319,266.61 153.33,268.271C152.695,269.338 152.007,270.33 151.265,271.252C148.913,270.608 147.002,269.504 145.535,267.945C144.255,266.588 143.426,264.983 143.041,263.124C142.175,258.947 141.5,254.882 137.699,252.394C136.442,251.571 135.419,250.721 134.278,249.867L133.113,248.209C133.079,248.162 133.054,248.11 133.033,248.055C132.355,246.227 132.802,244.476 133.988,242.923C135.2,241.338 136.618,240.105 138.242,239.221C141.019,237.71 143.879,236.85 146.817,236.644C148.398,236.533 150.691,236.561 152.63,236.798C153.844,236.946 155.151,236.789 156.27,236.85C157.334,236.909 158.409,236.934 159.494,236.921C159.667,236.918 159.84,236.927 160.009,236.949C160.024,236.952 160.777,237.091 162.265,237.368C165.684,238.006 168.479,239.729 170.646,242.537C172.73,245.234 175.553,247.05 179.119,247.984C184.282,249.334 189.599,250.453 195.064,251.337Z" style="fill:white;fill-opacity:0.95;fill-rule:nonzero;"/>
    <path d="M151.265,271.252C151.822,271.606 152.75,271.844 154.048,271.964C160.851,273.157 167.786,273.635 174.853,273.394C182.741,273.126 190.712,272.574 198.584,271.07C204.406,269.957 209.782,268.392 214.886,265.414C215.349,265.146 215.891,264.674 216.514,264.005C217.423,264.93 218.295,265.71 218.594,267.014C218.825,268.022 218.129,269.125 217.537,270.044C217.472,270.148 217.392,270.244 217.3,270.327C214.146,273.262 209.948,274.978 205.83,276.159C201.284,277.463 196.608,278.412 191.803,279.001C183.342,280.04 174.847,280.434 166.322,280.187C164.019,280.123 161.433,279.83 159.174,279.583C156.489,279.294 153.962,278.844 151.594,278.233C147.883,277.278 144.539,274.898 143.469,271.089C142.354,267.122 142.243,262.615 138.581,259.887C136.06,258.01 131.785,256.115 133.051,252.08C133.356,251.109 133.763,250.372 134.278,249.867C135.419,250.721 136.442,251.571 137.699,252.394C141.5,254.882 142.175,258.947 143.041,263.124C143.426,264.983 144.255,266.588 145.535,267.945C147.002,269.504 148.913,270.608 151.265,271.252Z" style="fill:white;fill-opacity:0.35;fill-rule:nonzero;"/>
    <path d="M195.064,251.337L198.451,251.984C197.662,252.447 196.901,253.054 196.167,253.809C196.038,253.945 195.887,254.062 195.724,254.164C193.205,255.711 190.481,256.796 187.549,257.415C181.456,258.71 174.508,259.555 168.606,260.43C164.084,261.102 160.283,262.162 157.651,265.812C156.252,267.75 155.05,269.803 154.048,271.964C152.75,271.844 151.822,271.606 151.265,271.252C152.007,270.33 152.695,269.338 153.33,268.271C154.319,266.61 154.96,265.587 155.247,265.204C156.39,263.691 157.673,262.372 159.094,261.247C161.452,259.379 164.481,258.784 167.958,258.174C170.64,257.705 173.389,257.437 175.812,257.049C178.105,256.682 180.334,256.331 182.497,255.991C185.444,255.532 188.326,254.796 191.146,253.775C192.718,253.208 194.025,252.394 195.064,251.337Z" style="fill:white;fill-opacity:0.5;fill-rule:nonzero;"/>
    <path d="M198.451,251.984C201.537,252.573 204.545,253.196 207.483,253.849C209.853,254.376 212.023,255.008 213.995,255.742C215.469,256.29 217.022,257.083 217.987,258.316C218.354,258.781 218.566,259.293 218.625,259.85C218.835,261.792 217.959,262.637 216.514,264.005C215.891,264.674 215.349,265.146 214.886,265.414C209.782,268.392 204.406,269.957 198.584,271.07C190.712,272.574 182.741,273.126 174.853,273.394C167.786,273.635 160.851,273.157 154.048,271.964C155.05,269.803 156.252,267.75 157.651,265.812C160.283,262.162 164.084,261.102 168.606,260.43C174.508,259.555 181.456,258.71 187.549,257.415C190.481,256.796 193.205,255.711 195.724,254.164C195.887,254.062 196.038,253.945 196.167,253.809C196.901,253.054 197.662,252.447 198.451,251.984Z" style="fill:white;fill-opacity:0.95;fill-rule:nonzero;"/>
</svg>
