<?xml version="1.0" encoding="UTF-8" standalone="no"?>
<!DOCTYPE svg PUBLIC "-//W3C//DTD SVG 1.1//EN" "http://www.w3.org/Graphics/SVG/1.1/DTD/svg11.dtd">
<svg width="100%" height="100%" viewBox="0 0 300 300" version="1.1" xmlns="http://www.w3.org/2000/svg" xmlns:xlink="http://www.w3.org/1999/xlink" xml:space="preserve" xmlns:serif="http://www.serif.com/" style="fill-rule:evenodd;clip-rule:evenodd;stroke-linejoin:round;stroke-miterlimit:2;">
    <path d="M232.998,62.921C232.744,62.994 232.52,63.132 232.334,63.337C222.424,74.039 216.85,80.042 215.611,81.342C215.185,81.789 214.772,82.043 214.378,82.104C212.153,82.456 210.394,82.811 209.106,83.175C205.468,84.2 202.149,85.959 199.151,88.446C197.581,89.746 196.584,90.609 196.155,91.028C195.039,92.12 192.769,94.222 189.342,97.331C187.901,98.637 186.417,99.87 184.89,101.03C182.241,103.04 180.69,104.19 180.24,104.481C177.949,105.968 175.639,107.442 173.31,108.908L170.976,110.119C170.835,110.193 170.667,110.083 170.676,109.924C170.679,109.89 170.682,109.847 170.691,109.795C177.597,102.257 182.18,97.218 184.435,94.678C185.251,93.757 186.331,92.393 187.681,90.579C189.685,88.783 191.569,86.88 193.338,84.87L218.688,56.973C228.831,45.806 238.979,34.633 249.127,23.454C249.516,23.022 249.861,22.713 250.161,22.527C250.345,22.414 250.562,22.371 250.773,22.41L253.438,22.897C253.606,22.927 253.771,22.976 253.93,23.041C255.876,23.833 257.58,24.904 259.046,26.256C260.585,27.682 261.377,29.196 261.5,31.225C261.515,31.494 261.441,31.757 261.292,31.98C260.94,32.491 260.508,33.018 259.997,33.553C257.945,35.707 249.005,45.332 233.181,62.428C232.958,62.67 232.897,62.832 232.998,62.921ZM163.462,117.716L163.945,118.557C164.591,120.549 165.796,122.125 167.556,123.278C169.403,124.487 171.573,125.414 174.066,126.056L166.922,133.928C166.849,134.008 166.763,134.072 166.665,134.121L165.989,134.448C161.929,136.777 157.854,139.099 153.77,141.418C153.096,141.8 151.821,142.547 151.123,141.782C150.735,141.357 150.649,140.876 150.869,140.344C152.928,135.36 155.015,130.26 157.132,125.05C157.248,124.765 157.413,124.499 157.615,124.266L159.056,122.611L162.868,118.496C162.914,118.447 162.936,118.383 162.933,118.319C162.93,118.233 162.902,118.135 162.844,118.028L163.462,117.716Z" style="fill:white;fill-opacity:0.25;"/>
    <path d="M218.688,56.973L193.338,84.87C192.099,85.001 191.092,85.537 190.318,86.482C189.33,87.684 188.452,89.052 187.681,90.579C186.331,92.393 185.251,93.757 184.435,94.678C182.18,97.218 177.597,102.257 170.691,109.795C170.11,110.438 168.923,111.539 167.133,113.096C165.876,114.195 164.652,115.733 163.462,117.716L162.844,118.028C161.14,118.028 159.693,117.438 158.503,116.254C159.992,113.497 160.834,110.502 161.03,107.262C161.085,106.356 160.65,105.665 159.729,105.191C160.874,102.823 161.663,101.073 162.1,99.944C164.625,93.409 167.806,84.515 171.013,76.97C172.432,73.626 173.996,70.603 176.884,68.474C177.242,68.211 178.031,67.749 179.258,67.088C180.001,66.687 180.837,66.311 181.764,65.956C190.489,62.612 199.007,60.409 208.663,57.72C211.07,57.05 213.389,56.67 215.614,56.588C216.18,56.566 217.205,56.695 218.688,56.973Z" style="fill:white;fill-opacity:0.95;fill-rule:nonzero;"/>
    <path d="M232.998,62.921C237.764,65.445 242.341,68.263 246.728,71.371C248.732,72.791 251.725,75.107 255.711,78.319C259.74,81.565 263.871,84.677 268.105,87.648C273.462,91.405 279.54,94.173 286.021,95.755C292.474,97.331 299.268,95.238 299.785,101.03C301.125,116.053 295.781,129.565 295.472,130.141C291.889,128.29 288.071,127.057 284.023,126.445C277.078,125.395 270.088,125.741 263.133,126.65C258.033,127.317 252.618,128.167 246.885,129.201C244.211,129.685 240.949,129.978 237.1,130.079C235.769,129.553 234.24,128.758 232.511,127.693C229.721,125.977 227.509,124.566 225.872,123.456C222.761,121.348 219.511,119.518 216.626,118.453C215.589,118.071 214.644,117.909 213.616,117.572C213.429,117.511 213.233,117.474 213.038,117.459C210.593,117.279 208.21,117.606 205.888,118.435C204.349,118.986 203.458,119.316 203.217,119.423C198.306,121.617 193.374,123.991 188.124,125.508C187.748,125.616 187.139,125.756 186.292,125.928C185.689,126.05 185.08,126.197 184.462,126.368C183.318,126.5 182.131,126.607 180.904,126.689C180.102,126.741 179.377,126.726 178.729,126.637C178.001,126.536 177.272,126.472 176.541,126.439C176.29,126.429 176.036,126.39 175.792,126.325C175.079,126.139 174.504,126.05 174.066,126.056C171.573,125.414 169.403,124.487 167.556,123.278C165.796,122.125 164.591,120.549 163.945,118.557C164.992,118.842 166.001,118.811 166.977,118.459C170.132,117.331 172.723,115.379 174.748,112.604C175.36,111.765 175.945,110.229 175.366,109.342C174.941,108.694 173.98,108.871 173.31,108.908C175.639,107.442 177.949,105.968 180.24,104.481C180.69,104.19 182.241,103.04 184.89,101.03C186.417,99.87 187.901,98.637 189.342,97.331C192.769,94.222 195.039,92.12 196.155,91.028C196.584,90.609 197.581,89.746 199.151,88.446C202.149,85.959 205.468,84.2 209.106,83.175C210.394,82.811 212.153,82.456 214.378,82.104C214.772,82.043 215.185,81.789 215.611,81.342C216.85,80.042 222.424,74.039 232.334,63.337C232.52,63.132 232.744,62.994 232.998,62.921Z" style="fill:white;fill-opacity:0.95;"/>
    <path d="M159.056,122.611L157.615,124.266C157.413,124.499 157.248,124.765 157.132,125.05C155.015,130.26 152.928,135.36 150.869,140.344C150.649,140.876 150.735,141.357 151.123,141.782C151.821,142.547 153.096,141.8 153.77,141.418C157.854,139.099 161.929,136.777 165.989,134.448C183.232,163.935 202.761,192.061 225.095,217.712C227.029,219.933 228.971,222.102 230.926,224.222C231,224.299 230.969,224.427 230.868,224.464C200.515,235.402 170.584,245.92 140.345,255.918C140.137,255.848 140.026,255.704 140.014,255.493C140.008,255.401 139.947,255.325 139.858,255.3C129.483,252.642 119.565,248.756 109.294,244.121C100.015,239.933 91.564,235.628 83.943,231.21C59.471,217.026 38.501,198.868 21.028,176.733C20.884,176.55 20.612,176.58 20.217,176.828C16.714,167.252 13.484,157.584 10.531,147.824C8.307,140.472 6.116,133.099 3.959,125.704C2.604,121.06 1.285,116.942 0.007,113.353C-0.018,113.283 0.028,113.212 0.101,113.206C0.726,113.16 1.334,113.047 1.928,112.867C3.25,112.463 4.073,112.521 5.336,112.154C5.578,112.084 6.107,111.97 6.921,111.808C9.678,111.267 12.483,110.679 15.341,110.049C16.298,109.838 16.947,109.712 17.287,109.667C18.165,109.55 18.773,109.312 19.86,109.088C21.12,108.828 21.897,108.669 22.191,108.605C24.883,108.011 26.315,107.702 26.483,107.678C27.594,107.525 28.873,107.042 30.093,106.925C30.246,106.91 30.684,106.791 31.409,106.561C31.642,106.488 31.883,106.436 32.128,106.408C33.337,106.274 34.169,105.906 35.344,105.717C35.576,105.677 36.108,105.564 36.944,105.374C63.16,99.448 88.982,93.326 114.553,85.454C121.238,83.395 127.868,80.969 134.443,78.169C134.541,78.126 134.657,78.169 134.703,78.264C136.646,82.159 138.39,85.537 139.941,88.391C146.151,99.836 152.524,111.245 159.056,122.611ZM138.331,143.783C138.044,143.67 136.958,142.455 136.153,141.65C135.079,140.579 134.198,139.206 133.24,138.019C133.017,137.743 132.674,137.59 132.323,137.612C132.228,137.618 131.772,137.658 130.955,137.728C129.878,137.82 129.196,138.872 128.835,139.802C128.339,141.075 129.988,142.908 130.765,143.853C133.051,146.622 135.795,148.898 138.998,150.685C140.332,151.431 141.685,150.957 142.498,149.675C142.887,149.06 143.156,148.549 143.3,148.142C145.849,140.992 149.067,134.069 152.959,127.369C153.944,125.671 153.617,124.324 151.977,123.327C151.349,122.945 150.698,122.859 150.022,123.07C148.688,123.483 147.439,125.94 146.773,127.145C143.869,132.405 141.321,137.832 139.133,143.431C139.008,143.749 138.65,143.905 138.331,143.783ZM50.213,158.138C47.282,159.542 44.638,162.127 44.883,165.542C45.036,167.671 46.514,169.207 48.652,168.971C50.222,168.8 51.28,168.824 52.431,168.231C55.512,166.643 57.311,163.874 56.833,160.423C56.812,160.276 56.934,160.145 57.084,160.16C58.097,160.255 59.538,160.451 61.413,160.747C62.955,160.989 64.58,161.044 66.287,160.913C68.511,160.741 70.065,159.698 70.898,157.67C70.989,157.449 71.204,157.306 71.442,157.306C72.388,157.309 73.385,157.56 74.199,157.474C79.877,156.883 84.249,154.326 88.535,150.449C90.353,148.806 91.301,147.904 92.418,147.2C92.507,147.145 92.614,147.136 92.709,147.176C93.752,147.635 94.973,148.115 96.371,148.617C99.865,149.868 103.337,149.265 106.039,146.818C107.74,145.279 108.835,143.85 110.206,141.916C110.298,141.788 110.402,141.669 110.518,141.562L111.325,140.812C111.399,140.745 111.503,140.723 111.598,140.757C112.641,141.115 113.749,141.384 114.92,141.565C118.748,142.149 122.838,140.739 125.726,138.239C126.779,137.324 126.308,134.748 124.646,134.718C123.964,134.705 123.404,134.858 122.967,135.173C120.877,136.676 118.833,137.835 116.248,137.603C114.884,137.48 112.877,136.666 111.662,136.639C109.374,136.584 107.467,138.141 106.314,139.934C104.83,142.244 103.276,144.388 100.636,145.456C100.458,145.53 100.269,145.554 100.079,145.527C98.234,145.27 96.781,144.59 95.052,143.933C92.663,143.024 90.524,143.419 88.633,145.111C84.356,148.938 79.865,153.597 73.725,153.778C73.116,153.796 72.443,153.711 71.699,153.524C71.592,153.5 71.516,153.405 71.513,153.292C71.47,151.676 70.983,150.11 70.05,148.595C68.93,146.772 67.425,146.08 65.537,146.521C64.525,146.753 63.656,147.607 63.576,148.571C63.506,149.391 63.616,150.422 63.904,151.664C64.298,153.365 66.085,154.919 67.627,155.99C67.737,156.066 67.768,156.213 67.697,156.327C67.064,157.355 66.116,157.81 64.849,157.694C63.068,157.532 61.349,157.315 59.688,157.049C58.384,156.837 57.347,156.862 55.57,156.74C55.34,156.724 55.123,156.636 54.952,156.486C49.42,151.63 40.624,154.757 35.625,158.89C34.573,159.759 32.923,161.112 33.731,162.546C33.805,162.672 33.936,162.751 34.083,162.754C34.814,162.761 35.295,162.687 35.527,162.531C38.788,160.331 41.661,158.692 45.437,157.764C47.07,157.361 48.258,157.474 49.769,157.676C49.931,157.697 50.09,157.783 50.246,157.933C50.31,157.994 50.292,158.098 50.213,158.138ZM109.985,171.141C109.814,171.373 109.679,171.401 109.585,171.223C108.584,169.378 107.55,167.907 106.482,166.802C105.121,165.389 103.738,164.119 101.939,163.718C99.143,163.097 98.05,165.848 98.766,168.118C99.259,169.669 100.189,171.284 101.557,172.964L82.618,166.499C82.53,166.469 82.432,166.481 82.352,166.53C81.774,166.876 81.269,167.53 81.603,168.21C81.771,168.555 81.979,168.769 82.227,168.852C89.909,171.502 98.072,174.332 106.721,177.345C106.773,177.363 106.816,177.406 106.828,177.461C106.892,177.697 106.81,177.881 106.58,178.009C105.926,178.116 105.405,178.095 105.02,177.942C102.799,177.054 101.04,176.048 98.821,177.186C97.674,177.773 96.866,178.29 96.395,178.74C94.324,180.72 90.353,183.776 87.306,183.06C87.177,183.033 87.094,182.904 87.119,182.776C87.434,181.133 86.945,178.456 85.748,177.256C85.072,176.574 83.992,176.222 83.212,176.938C81.921,178.125 82.196,180.236 82.934,181.671C83.353,182.482 83.968,183.173 84.778,183.742C84.934,183.85 84.999,184.051 84.931,184.229C84.558,185.232 84.044,186.178 83.142,186.793C80.924,188.298 78.773,186.481 77.258,184.887C76.876,184.48 75.866,183.415 74.236,181.687C73.562,180.974 72.608,180.264 71.369,179.563C68.649,178.021 65.559,178.364 62.958,179.992C62.839,180.065 62.686,179.998 62.658,179.86C62.169,177.259 60.575,173.637 57.488,173.478C53.391,173.27 50.402,178.609 48.967,181.723C47.08,185.829 46.07,190.204 45.932,194.845C45.926,195.081 46.11,195.283 46.351,195.304C46.547,195.323 46.709,195.209 46.835,194.962C47.018,194.597 47.156,194.218 47.251,193.817C47.799,191.495 48.475,189.167 49.273,186.839C50.598,182.981 52.168,179.652 55.013,176.892C55.677,176.25 57.338,175.412 58.176,176.063C59.786,177.318 60.196,179.481 60.655,181.509C60.673,181.589 60.648,181.674 60.587,181.732C58.149,184.058 56.497,186.869 55.628,190.164C54.979,192.63 54.756,196.032 56.42,198.07C57.956,199.948 60.364,198.878 61.334,197.122C62.759,194.542 63.163,191.96 63.377,188.788C63.527,186.551 63.451,184.431 63.151,182.427C63.133,182.308 63.182,182.185 63.28,182.115C66.269,179.906 69.138,179.915 71.889,182.145C72.626,182.742 73.764,183.862 75.309,185.505C76.426,186.692 77.573,187.827 78.834,188.436C81.493,189.718 83.705,189.24 85.47,187.007C86.021,186.312 86.397,185.609 86.602,184.902C86.645,184.761 86.785,184.676 86.929,184.706C90.943,185.502 94.33,182.782 97.38,180.258C98.73,179.138 100.073,177.985 101.786,178.71C103.031,179.239 104.246,179.814 105.424,180.432C103.169,184.884 100.978,189.243 98.846,193.517C98.454,194.304 98.283,194.83 98.332,195.093C98.424,195.616 98.815,195.977 99.504,196.17C99.605,196.198 99.715,196.185 99.807,196.136C100.198,195.925 100.532,195.546 100.804,195.004C103.349,189.944 105.864,184.926 108.352,179.952C109.218,179.732 109.979,179.3 110.64,178.661L125.133,183.718C125.754,183.935 126.436,183.62 126.681,183.002L126.699,182.953C126.938,182.347 126.632,181.665 126.023,181.454L116.413,178.134L118.062,177.324C118.078,177.315 118.093,177.305 118.105,177.296C118.375,177.079 118.769,176.776 119.292,176.391C119.901,175.941 120.418,175.314 120.85,174.509C122.318,171.771 122.609,169.856 123.609,166.028C123.753,165.477 124.105,164.786 124.671,163.951C126.081,161.867 128.764,162.516 130.264,164.024C130.423,164.183 130.456,164.428 130.349,164.624C129.826,165.585 129.817,166.603 129.863,167.634C129.909,168.711 130.322,169.675 131.102,170.529C131.998,171.505 133.363,171.627 134.06,170.425C135.122,168.589 134.223,166.01 133.088,164.434C132.904,164.183 132.962,163.831 133.216,163.651C135.584,161.962 139.439,162.464 142.027,163.027C143.484,163.345 144.45,163.421 145.858,163.415C148.336,163.406 149.502,161.506 150.921,159.726C151.053,159.563 151.206,159.42 151.377,159.3C152.5,158.529 153.234,158.11 153.58,158.046C154.856,157.801 156,157.826 156.26,157.024C156.315,156.853 156.223,156.669 156.052,156.611C153.106,155.623 150.683,156.504 148.981,158.936C147.978,160.374 147.213,161.858 145.243,161.681C140.908,161.286 135.657,159.383 131.836,162.595C131.711,162.699 131.527,162.696 131.402,162.589C130.426,161.742 129.395,161.084 128.113,160.91C124.454,160.405 122.349,163.229 121.584,166.447C120.801,169.748 120.241,172.783 118.075,174.992C118.056,175.014 118.035,175.029 118.01,175.044L116.239,176.082C116.211,176.1 116.181,176.112 116.147,176.121C114.908,176.461 113.733,176.537 112.62,176.348C112.363,176.305 112.148,176.124 112.06,175.88L111.491,174.301C111.436,174.151 111.451,173.983 111.534,173.845C111.8,173.405 111.953,172.939 111.996,172.45L120.045,156.519C120.164,156.281 120.14,155.996 119.981,155.785C118.947,154.417 118.004,155.167 117.435,156.33C116.542,158.156 114.128,162.966 110.19,170.761C110.126,170.887 110.056,171.015 109.985,171.141Z" style="fill:white;fill-opacity:0.95;fill-rule:nonzero;"/>
    <path d="M193.338,84.87C191.569,86.88 189.685,88.783 187.681,90.579C188.452,89.052 189.33,87.684 190.318,86.482C191.092,85.537 192.099,85.001 193.338,84.87Z" style="fill:white;fill-opacity:0.95;fill-rule:nonzero;"/>
    <path d="M159.729,105.191C160.65,105.665 161.085,106.356 161.03,107.262C160.834,110.502 159.992,113.497 158.503,116.254L157.732,116.615C157.447,116.749 157.107,116.636 156.957,116.361C156.257,115.076 156.502,113.164 156.762,112.007C157.334,109.452 158.322,107.182 159.729,105.191Z" style="fill:white;fill-opacity:0.35;fill-rule:nonzero;"/>
    <path d="M163.945,118.557L163.462,117.716C164.652,115.733 165.876,114.195 167.133,113.096C168.923,111.539 170.11,110.438 170.691,109.795C170.682,109.847 170.679,109.89 170.676,109.924C170.667,110.083 170.835,110.193 170.976,110.119L173.31,108.908C173.98,108.871 174.941,108.694 175.366,109.342C175.945,110.229 175.36,111.765 174.748,112.604C172.723,115.379 170.132,117.331 166.977,118.459C166.001,118.811 164.992,118.842 163.945,118.557Z" style="fill:white;fill-opacity:0.35;fill-rule:nonzero;"/>
    <path d="M237.1,130.079L238.759,131.429C231.443,131.646 224.587,130.079 218.196,126.726C215.745,125.438 213.49,123.774 211.431,121.727C211.337,121.629 211.193,121.598 211.067,121.647C210.804,121.748 210.517,121.886 210.205,122.06C203.648,125.695 198.71,128.905 192.603,128.788C189.911,128.739 186.937,127.561 184.462,126.368C185.08,126.197 185.689,126.05 186.292,125.928C187.139,125.756 187.748,125.616 188.124,125.508C193.374,123.991 198.306,121.617 203.217,119.423C203.458,119.316 204.349,118.986 205.888,118.435C208.21,117.606 210.593,117.279 213.038,117.459C213.233,117.474 213.429,117.511 213.616,117.572C214.644,117.909 215.589,118.071 216.626,118.453C219.511,119.518 222.761,121.348 225.872,123.456C227.509,124.566 229.721,125.977 232.511,127.693C234.24,128.758 235.769,129.553 237.1,130.079Z" style="fill:white;fill-opacity:0.75;fill-rule:nonzero;"/>
    <path d="M138.331,143.783C138.65,143.905 139.008,143.749 139.133,143.431C141.321,137.832 143.869,132.405 146.773,127.145C147.439,125.94 148.688,123.483 150.022,123.07C150.698,122.859 151.349,122.945 151.977,123.327C153.617,124.324 153.944,125.671 152.959,127.369C149.067,134.069 145.849,140.992 143.3,148.142C143.156,148.549 142.887,149.06 142.498,149.675C141.685,150.957 140.332,151.431 138.998,150.685C135.795,148.898 133.051,146.622 130.765,143.853C129.988,142.908 128.339,141.075 128.835,139.802C129.196,138.872 129.878,137.82 130.955,137.728C131.772,137.658 132.228,137.618 132.323,137.612C132.674,137.59 133.017,137.743 133.24,138.019C134.198,139.206 135.079,140.579 136.153,141.65C136.958,142.455 138.044,143.67 138.331,143.783Z" style="fill:white;fill-opacity:0.25;fill-rule:nonzero;"/>
    <path d="M295.472,130.141C295.472,130.141 291.868,141.243 290.647,142.504C289.861,143.315 288.895,143.625 288.12,142.926C279.74,135.375 263.831,135.317 263.078,135.375C261.937,135.461 255.778,135.284 254.594,135.082C252.759,134.766 250.617,134.77 248.717,134.308C248.255,134.194 247.475,134.063 246.374,133.91C246.184,133.882 238.759,131.429 238.759,131.429L237.1,130.079C240.949,129.978 244.211,129.685 246.885,129.201C252.618,128.167 258.033,127.317 263.133,126.65C270.088,125.741 277.078,125.395 284.023,126.445C288.071,127.057 291.889,128.29 295.472,130.141Z" style="fill:white;fill-opacity:0.85;fill-rule:nonzero;"/>
    <path d="M50.246,157.933C50.09,157.783 49.931,157.697 49.769,157.676C48.258,157.474 47.07,157.361 45.437,157.764C41.661,158.692 38.788,160.331 35.527,162.531C35.295,162.687 34.814,162.761 34.083,162.754C33.936,162.751 33.805,162.672 33.731,162.546C32.923,161.112 34.573,159.759 35.625,158.89C40.624,154.757 49.42,151.63 54.952,156.486C55.123,156.636 55.34,156.724 55.57,156.74C57.347,156.862 58.384,156.837 59.688,157.049C61.349,157.315 63.068,157.532 64.849,157.694C66.116,157.81 67.064,157.355 67.697,156.327C67.768,156.213 67.737,156.066 67.627,155.99C66.085,154.919 64.298,153.365 63.904,151.664C63.616,150.422 63.506,149.391 63.576,148.571C63.656,147.607 64.525,146.753 65.537,146.521C67.425,146.08 68.93,146.772 70.05,148.595C70.983,150.11 71.47,151.676 71.513,153.292C71.516,153.405 71.592,153.5 71.699,153.524C72.443,153.711 73.116,153.796 73.725,153.778C79.865,153.597 84.356,148.938 88.633,145.111C90.524,143.419 92.663,143.024 95.052,143.933C96.781,144.59 98.234,145.27 100.079,145.527C100.269,145.554 100.458,145.53 100.636,145.456C103.276,144.388 104.83,142.244 106.314,139.934C107.467,138.141 109.374,136.584 111.662,136.639C112.877,136.666 114.884,137.48 116.248,137.603C118.833,137.835 120.877,136.676 122.967,135.173C123.404,134.858 123.964,134.705 124.646,134.718C126.308,134.748 126.779,137.324 125.726,138.239C122.838,140.739 118.748,142.149 114.92,141.565C113.749,141.384 112.641,141.115 111.598,140.757C111.503,140.723 111.399,140.745 111.325,140.812L110.518,141.562C110.402,141.669 110.298,141.788 110.206,141.916C108.835,143.85 107.74,145.279 106.039,146.818C103.337,149.265 99.865,149.868 96.371,148.617C94.973,148.115 93.752,147.635 92.709,147.176C92.614,147.136 92.507,147.145 92.418,147.2C91.301,147.904 90.353,148.806 88.535,150.449C84.249,154.326 79.877,156.883 74.199,157.474C73.385,157.56 72.388,157.309 71.442,157.306C71.204,157.306 70.989,157.449 70.898,157.67C70.065,159.698 68.511,160.741 66.287,160.913C64.58,161.044 62.955,160.989 61.413,160.747C59.538,160.451 58.097,160.255 57.084,160.16C56.934,160.145 56.812,160.276 56.833,160.423C57.311,163.874 55.512,166.643 52.431,168.231C51.28,168.824 50.222,168.8 48.652,168.971C46.514,169.207 45.036,167.671 44.883,165.542C44.638,162.127 47.282,159.542 50.213,158.138C50.292,158.098 50.31,157.994 50.246,157.933ZM53.315,160.647C51.121,161.497 49.552,162.911 48.606,164.884C48.545,165.015 48.649,165.162 48.793,165.147L50.05,165.009C50.078,165.006 50.109,165 50.136,164.988C52.109,164.189 53.189,162.758 53.382,160.695C53.385,160.659 53.349,160.634 53.315,160.647Z" style="fill:white;fill-opacity:0.25;fill-rule:nonzero;"/>
    <path d="M111.996,172.45L110.411,175.858C110.371,175.944 110.414,176.048 110.506,176.078L116.413,178.134L126.023,181.454C126.632,181.665 126.938,182.347 126.699,182.953L126.681,183.002C126.436,183.62 125.754,183.935 125.133,183.718L110.64,178.661L109.374,178.229C109.291,178.202 109.202,178.238 109.162,178.318L108.352,179.952C105.864,184.926 103.349,189.944 100.804,195.004C100.532,195.546 100.198,195.925 99.807,196.136C99.715,196.185 99.605,196.198 99.504,196.17C98.815,195.977 98.424,195.616 98.332,195.093C98.283,194.83 98.454,194.304 98.846,193.517C100.978,189.243 103.169,184.884 105.424,180.432L106.58,178.009C106.81,177.881 106.892,177.697 106.828,177.461C106.816,177.406 106.773,177.363 106.721,177.345C98.072,174.332 89.909,171.502 82.227,168.852C81.979,168.769 81.771,168.555 81.603,168.21C81.269,167.53 81.774,166.876 82.352,166.53C82.432,166.481 82.53,166.469 82.618,166.499L101.557,172.964L107.764,175.041C107.835,175.283 108.086,175.09 108.523,174.463C108.759,173.576 109.248,172.594 109.988,171.517C110.047,171.428 110.047,171.303 109.985,171.141C110.056,171.015 110.126,170.887 110.19,170.761C114.128,162.966 116.542,158.156 117.435,156.33C118.004,155.167 118.947,154.417 119.981,155.785C120.14,155.996 120.164,156.281 120.045,156.519L111.996,172.45Z" style="fill:white;fill-opacity:0.25;fill-rule:nonzero;"/>
    <path d="M116.413,178.134L110.506,176.078C110.414,176.048 110.371,175.944 110.411,175.858L111.996,172.45C111.953,172.939 111.8,173.405 111.534,173.845C111.451,173.983 111.436,174.151 111.491,174.301L112.06,175.88C112.148,176.124 112.363,176.305 112.62,176.348C113.733,176.537 114.908,176.461 116.147,176.121C116.181,176.112 116.211,176.1 116.239,176.082L118.01,175.044C118.035,175.029 118.056,175.014 118.075,174.992C120.241,172.783 120.801,169.748 121.584,166.447C122.349,163.229 124.454,160.405 128.113,160.91C129.395,161.084 130.426,161.742 131.402,162.589C131.527,162.696 131.711,162.699 131.836,162.595C135.657,159.383 140.908,161.286 145.243,161.681C147.213,161.858 147.978,160.374 148.981,158.936C150.683,156.504 153.106,155.623 156.052,156.611C156.223,156.669 156.315,156.853 156.26,157.024C156,157.826 154.856,157.801 153.58,158.046C153.234,158.11 152.5,158.529 151.377,159.3C151.206,159.42 151.053,159.563 150.921,159.726C149.502,161.506 148.336,163.406 145.858,163.415C144.45,163.421 143.484,163.345 142.027,163.027C139.439,162.464 135.584,161.962 133.216,163.651C132.962,163.831 132.904,164.183 133.088,164.434C134.223,166.01 135.122,168.589 134.06,170.425C133.363,171.627 131.998,171.505 131.102,170.529C130.322,169.675 129.909,168.711 129.863,167.634C129.817,166.603 129.826,165.585 130.349,164.624C130.456,164.428 130.423,164.183 130.264,164.024C128.764,162.516 126.081,161.867 124.671,163.951C124.105,164.786 123.753,165.477 123.609,166.028C122.609,169.856 122.318,171.771 120.85,174.509C120.418,175.314 119.901,175.941 119.292,176.391C118.769,176.776 118.375,177.079 118.105,177.296C118.093,177.305 118.078,177.315 118.062,177.324L116.413,178.134ZM131.733,166.208C131.53,166.255 131.518,166.961 131.708,167.787C131.897,168.61 132.219,169.244 132.423,169.195C132.626,169.149 132.638,168.442 132.448,167.616C132.258,166.793 131.937,166.16 131.733,166.208ZM109.985,171.141C110.047,171.303 110.047,171.428 109.988,171.517C109.248,172.594 108.759,173.576 108.523,174.463C107.804,172.367 106.559,170.366 104.79,168.454C104.157,167.766 103.334,167.087 102.325,166.417C102.003,166.203 101.651,166.046 101.269,165.952C101.076,165.903 100.88,166.031 100.847,166.227C100.642,167.353 100.969,167.928 101.465,169.124C101.621,169.507 101.869,169.92 102.205,170.37C103.689,172.361 105.543,173.919 107.764,175.041L101.557,172.964C100.189,171.284 99.259,169.669 98.766,168.118C98.05,165.848 99.143,163.097 101.939,163.718C103.738,164.119 105.121,165.389 106.482,166.802C107.55,167.907 108.584,169.378 109.585,171.223C109.679,171.401 109.814,171.373 109.985,171.141ZM106.58,178.009L105.424,180.432C104.246,179.814 103.031,179.239 101.786,178.71C100.073,177.985 98.73,179.138 97.38,180.258C94.33,182.782 90.943,185.502 86.929,184.706C86.785,184.676 86.645,184.761 86.602,184.902C86.397,185.609 86.021,186.312 85.47,187.007C83.705,189.24 81.493,189.718 78.834,188.436C77.573,187.827 76.426,186.692 75.309,185.505C73.764,183.862 72.626,182.742 71.889,182.145C69.138,179.915 66.269,179.906 63.28,182.115C63.182,182.185 63.133,182.308 63.151,182.427C63.451,184.431 63.527,186.551 63.377,188.788C63.163,191.96 62.759,194.542 61.334,197.122C60.364,198.878 57.956,199.948 56.42,198.07C54.756,196.032 54.979,192.63 55.628,190.164C56.497,186.869 58.149,184.058 60.587,181.732C60.648,181.674 60.673,181.589 60.655,181.509C60.196,179.481 59.786,177.318 58.176,176.063C57.338,175.412 55.677,176.25 55.013,176.892C52.168,179.652 50.598,182.981 49.273,186.839C48.475,189.167 47.799,191.495 47.251,193.817C47.156,194.218 47.018,194.597 46.835,194.962C46.709,195.209 46.547,195.323 46.351,195.304C46.11,195.283 45.926,195.081 45.932,194.845C46.07,190.204 47.08,185.829 48.967,181.723C50.402,178.609 53.391,173.27 57.488,173.478C60.575,173.637 62.169,177.259 62.658,179.86C62.686,179.998 62.839,180.065 62.958,179.992C65.559,178.364 68.649,178.021 71.369,179.563C72.608,180.264 73.562,180.974 74.236,181.687C75.866,183.415 76.876,184.48 77.258,184.887C78.773,186.481 80.924,188.298 83.142,186.793C84.044,186.178 84.558,185.232 84.931,184.229C84.999,184.051 84.934,183.85 84.778,183.742C83.968,183.173 83.353,182.482 82.934,181.671C82.196,180.236 81.921,178.125 83.212,176.938C83.992,176.222 85.072,176.574 85.748,177.256C86.945,178.456 87.434,181.133 87.119,182.776C87.094,182.904 87.177,183.033 87.306,183.06C90.353,183.776 94.324,180.72 96.395,178.74C96.866,178.29 97.674,177.773 98.821,177.186C101.04,176.048 102.799,177.054 105.02,177.942C105.405,178.095 105.926,178.116 106.58,178.009ZM61.144,184.394C61.147,184.305 61.071,184.232 60.982,184.241C60.887,184.25 60.804,184.299 60.734,184.385C58.286,187.347 56.8,191.354 57.448,195.267C57.537,195.8 57.818,196.302 58.152,196.675C58.296,196.837 58.553,196.828 58.684,196.656C59.562,195.528 60.147,194.24 60.434,192.792C60.811,190.899 61.012,189.519 61.037,188.65C61.089,186.637 61.126,185.217 61.144,184.394ZM84.228,178.677C84.029,178.74 84.081,179.462 84.344,180.287C84.607,181.114 84.983,181.732 85.182,181.667C85.381,181.604 85.329,180.882 85.066,180.057C84.803,179.23 84.427,178.612 84.228,178.677Z" style="fill:white;fill-opacity:0.5;"/>
    <path d="M53.315,160.647C53.349,160.634 53.385,160.659 53.382,160.695C53.189,162.758 52.109,164.189 50.136,164.988C50.109,165 50.078,165.006 50.05,165.009L48.793,165.147C48.649,165.162 48.545,165.015 48.606,164.884C49.552,162.911 51.121,161.497 53.315,160.647Z" style="fill:white;fill-opacity:0.95;fill-rule:nonzero;"/>
    <path d="M108.523,174.463C108.086,175.09 107.835,175.283 107.764,175.041C105.543,173.919 103.689,172.361 102.205,170.37C101.869,169.92 101.621,169.507 101.465,169.124C100.969,167.928 100.642,167.353 100.847,166.227C100.88,166.031 101.076,165.903 101.269,165.952C101.651,166.046 102.003,166.203 102.325,166.417C103.334,167.087 104.157,167.766 104.79,168.454C106.559,170.366 107.804,172.367 108.523,174.463Z" style="fill:white;fill-opacity:0.95;fill-rule:nonzero;"/>
    <path d="M131.733,166.208C131.937,166.16 132.258,166.793 132.448,167.616C132.638,168.442 132.626,169.149 132.423,169.195C132.219,169.244 131.897,168.61 131.708,167.787C131.518,166.961 131.53,166.255 131.733,166.208Z" style="fill:white;fill-opacity:0.95;fill-rule:nonzero;"/>
    <path d="M140.345,255.918C122.125,262.016 103.799,267.878 85.317,273.134C82.573,273.914 79.987,274.612 77.567,275.224C76.962,275.377 76.536,275.496 76.295,275.585C75.52,275.869 74.844,275.784 74.125,276.117C73.357,276.475 72.534,276.389 71.666,276.723C71.167,276.916 70.583,277.038 69.912,277.096C69.362,277.145 68.857,277.378 68.453,277.576C68.328,277.638 68.175,277.595 68.101,277.472C61.627,266.792 55.521,255.824 49.784,244.568C38.577,222.576 28.723,199.997 20.217,176.828C20.612,176.58 20.884,176.55 21.028,176.733C38.501,198.868 59.471,217.026 83.943,231.21C91.564,235.628 100.015,239.933 109.294,244.121C119.565,248.756 129.483,252.642 139.858,255.3C139.947,255.325 140.008,255.401 140.014,255.493C140.026,255.704 140.137,255.848 140.345,255.918Z" style="fill:white;fill-opacity:0.85;fill-rule:nonzero;"/>
    <path d="M110.64,178.661C109.979,179.3 109.218,179.732 108.352,179.952L109.162,178.318C109.202,178.238 109.291,178.202 109.374,178.229L110.64,178.661Z" style="fill:white;fill-opacity:0.95;fill-rule:nonzero;"/>
    <path d="M84.228,178.677C84.427,178.612 84.803,179.23 85.066,180.057C85.329,180.882 85.381,181.604 85.182,181.667C84.983,181.732 84.607,181.114 84.344,180.287C84.081,179.462 84.029,178.74 84.228,178.677Z" style="fill:white;fill-opacity:0.95;fill-rule:nonzero;"/>
    <path d="M61.144,184.394C61.126,185.217 61.089,186.637 61.037,188.65C61.012,189.519 60.811,190.899 60.434,192.792C60.147,194.24 59.562,195.528 58.684,196.656C58.553,196.828 58.296,196.837 58.152,196.675C57.818,196.302 57.537,195.8 57.448,195.267C56.8,191.354 58.286,187.347 60.734,184.385C60.804,184.299 60.887,184.25 60.982,184.241C61.071,184.232 61.147,184.305 61.144,184.394Z" style="fill:white;fill-opacity:0.95;fill-rule:nonzero;"/>
</svg>
