<?xml version="1.0" encoding="UTF-8" standalone="no"?>
<!DOCTYPE svg PUBLIC "-//W3C//DTD SVG 1.1//EN" "http://www.w3.org/Graphics/SVG/1.1/DTD/svg11.dtd">
<svg width="100%" height="100%" viewBox="0 0 300 300" version="1.1" xmlns="http://www.w3.org/2000/svg" xmlns:xlink="http://www.w3.org/1999/xlink" xml:space="preserve" xmlns:serif="http://www.serif.com/" style="fill-rule:evenodd;clip-rule:evenodd;stroke-linejoin:round;stroke-miterlimit:2;">
    <path d="M0.175,234.095C0.105,233.525 0.077,232.919 0.076,232.245L0.064,230.444L0.073,228.477L0.065,226.378C0.058,224.458 0.06,222.538 0.063,220.617C0.066,218.545 0.06,216.474 0.055,214.402L0.05,211.401C0.174,209.639 0.261,207.891 0.261,206.171L291.754,206.171C291.758,208.871 291.759,211.571 291.754,214.271C291.75,216.344 291.743,218.418 291.75,220.49C291.76,222.41 291.767,224.33 291.758,226.25L291.749,228.354C291.755,228.982 291.769,229.6 291.774,230.209C291.788,231.735 291.752,233.205 291.427,234.634C291.141,236.429 290.694,237.099 289.994,238.148C289.796,238.325 289.6,238.488 289.405,238.637C288.336,239.46 287.319,239.89 286.229,240.111C285.007,240.142 283.789,240.154 282.565,240.151L281.119,240.155C279.502,240.158 277.884,240.158 276.267,240.158L272.775,240.163C269.9,240.168 267.025,240.169 264.15,240.171C260.707,240.172 257.266,240.176 253.824,240.181C245.503,240.191 237.182,240.196 228.862,240.2L217.058,240.207C203.596,240.216 190.134,240.223 176.671,240.227L174.135,240.227L172.865,240.227L166.491,240.23L165.214,240.23C151.541,240.233 137.867,240.245 124.194,240.261C109.745,240.277 95.297,240.287 80.848,240.289L76.092,240.289L74.909,240.289C68.62,240.29 62.331,240.298 56.041,240.308C49.723,240.317 43.404,240.32 37.085,240.316C33.329,240.313 29.573,240.316 25.817,240.327C23.015,240.334 20.214,240.331 17.413,240.325C16.277,240.323 15.141,240.325 14.005,240.331C12.465,240.338 10.927,240.334 9.388,240.326L8.039,240.341C6.661,240.326 5.558,240.237 4.531,239.893C3.581,239.576 2.695,239.041 1.714,238.148C0.79,236.718 0.351,235.523 0.175,234.095Z" style="fill:white;fill-opacity:0.5;"/>
    <path d="M0.05,211.401C0.046,208.343 0.047,205.285 0.048,202.227C0.05,198.929 0.05,195.631 0.048,192.334L0.046,190.912L0.044,188.051C0.037,179.111 0.04,170.169 0.045,161.228C0.05,153.047 0.044,144.866 0.032,136.685C0.021,128.286 0.016,119.887 0.019,111.487C0.021,106.771 0.019,102.055 0.012,97.34C0.004,93.325 0.004,89.31 0.012,85.296C0.017,83.247 0.017,81.199 0.01,79.151C0.004,77.276 0.006,75.4 0.015,73.525C0.017,72.847 0.015,72.168 0.01,71.49C-0.034,65.148 -0.034,65.148 2.199,62.273C4.453,60.583 6.882,60.581 9.608,60.437C10.701,60.352 11.686,60.099 12.711,59.935C12.281,60.094 11.859,60.365 11.404,60.82C37.132,60.857 62.86,60.895 88.587,60.936L89.755,60.938L114.885,60.978L127.22,60.998L128.461,61L168.324,61.061C182,61.08 195.677,61.101 209.353,61.124L215.142,61.134L216.294,61.136C222.411,61.146 228.526,61.155 234.643,61.163C240.818,61.171 246.994,61.18 253.17,61.192C256.516,61.198 259.862,61.205 263.208,61.208C266.002,61.211 268.797,61.214 271.592,61.22L274.99,61.228C276.561,61.228 278.132,61.229 279.703,61.233L281.113,61.237L282.43,61.236L283.635,61.241C286.136,61.244 287.941,61.768 289.994,63.242C290.943,64.542 291.419,65.445 291.632,67.048L291.634,68.601C291.64,69.521 291.647,70.443 291.643,71.364C291.64,72.042 291.64,72.721 291.642,73.4C291.652,75.274 291.656,77.148 291.654,79.022C291.651,81.071 291.655,83.119 291.66,85.167C291.671,89.002 291.676,92.838 291.676,96.673L0.261,96.673L0.261,206.171C0.261,207.891 0.174,209.639 0.05,211.401ZM27.839,75.232L29.655,75.224L31.651,75.23L33.749,75.224C35.65,75.22 37.551,75.222 39.452,75.224C41.439,75.227 43.427,75.224 45.415,75.223C48.753,75.222 52.091,75.224 55.429,75.229C59.291,75.234 63.153,75.232 67.014,75.227C70.327,75.222 73.64,75.222 76.954,75.224C78.934,75.226 80.914,75.226 82.894,75.223C84.755,75.22 86.616,75.222 88.477,75.227C89.16,75.229 89.844,75.228 90.528,75.226C91.46,75.224 92.392,75.227 93.324,75.232L94.905,75.233C96.193,75.355 96.193,75.355 97.646,76.324C97.853,77.669 97.882,78.411 97.087,79.539C95.815,80.478 94.896,80.383 93.324,80.384L91.508,80.397L89.512,80.388L87.414,80.396C85.513,80.402 83.612,80.4 81.711,80.395C79.724,80.391 77.736,80.395 75.748,80.397C72.41,80.4 69.072,80.396 65.734,80.389C61.872,80.381 58.01,80.384 54.149,80.392C50.836,80.399 47.523,80.399 44.209,80.396C42.229,80.393 40.249,80.393 38.269,80.398C36.408,80.402 34.547,80.399 32.686,80.391C32.003,80.389 31.319,80.389 30.635,80.393C29.703,80.396 28.771,80.391 27.839,80.384L26.258,80.383C24.97,80.2 24.97,80.2 24.076,79.539C23.281,78.411 23.31,77.669 23.517,76.324C25.203,75.2 25.849,75.233 27.839,75.232ZM191.117,75.232L192.933,75.224L194.929,75.23L197.027,75.224C198.928,75.22 200.829,75.222 202.73,75.224C204.717,75.227 206.705,75.224 208.693,75.223C212.031,75.222 215.369,75.224 218.707,75.229C222.569,75.234 226.431,75.232 230.292,75.227C233.605,75.222 236.919,75.222 240.232,75.224C242.211,75.226 244.192,75.226 246.172,75.223C248.033,75.22 249.894,75.222 251.755,75.227C252.439,75.229 253.122,75.228 253.806,75.226C254.738,75.224 255.67,75.227 256.602,75.232L258.183,75.233C259.471,75.355 259.471,75.355 260.924,76.324C261.131,77.669 261.16,78.411 260.366,79.539C259.093,80.478 258.174,80.383 256.602,80.384L254.786,80.397L252.791,80.388L250.692,80.396C248.791,80.402 246.89,80.4 244.99,80.395C243.002,80.391 241.014,80.395 239.026,80.397C235.688,80.4 232.35,80.396 229.012,80.389C225.15,80.381 221.288,80.384 217.427,80.392C214.114,80.399 210.801,80.399 207.488,80.396C205.507,80.393 203.527,80.393 201.548,80.398C199.687,80.402 197.826,80.399 195.965,80.391C195.281,80.389 194.597,80.389 193.913,80.393C192.981,80.396 192.049,80.391 191.117,80.384L189.536,80.383C188.248,80.2 188.248,80.2 187.354,79.539C186.559,78.411 186.588,77.669 186.795,76.324C188.481,75.2 189.128,75.233 191.117,75.232Z" style="fill:white;fill-opacity:0.5;"/>
    <path d="M289.405,238.637C289.6,238.488 289.796,238.325 289.994,238.148C290.694,237.099 291.141,236.429 291.427,234.634C291.752,233.205 291.788,231.735 291.774,230.209C291.769,229.6 291.755,228.982 291.749,228.354L291.758,226.25C291.767,224.33 291.76,222.41 291.75,220.49C291.743,218.418 291.75,216.344 291.754,214.271C291.759,211.571 291.758,208.871 291.754,206.171L291.745,202.096C291.733,197.371 291.734,192.646 291.735,187.92C291.737,179.491 291.727,171.061 291.711,162.631C291.694,154.449 291.688,146.267 291.691,138.086C291.694,129.176 291.693,120.266 291.683,111.356L291.682,109.93L291.678,107.092C291.675,103.797 291.675,100.502 291.675,97.207L291.676,96.673C291.676,92.838 291.671,89.002 291.66,85.167C291.655,83.119 291.651,81.071 291.654,79.022C291.656,77.148 291.652,75.274 291.642,73.4C291.64,72.721 291.64,72.042 291.643,71.364C291.647,70.443 291.64,69.521 291.634,68.601L291.632,67.048C291.419,65.445 290.943,64.542 289.994,63.242C287.941,61.768 286.136,61.244 283.635,61.241L282.43,61.236L281.113,61.237L279.703,61.233C278.132,61.229 276.561,61.228 274.99,61.228L271.592,61.22C268.797,61.214 266.002,61.211 263.208,61.208C259.862,61.205 256.516,61.198 253.17,61.192C246.994,61.18 240.818,61.171 234.643,61.163C228.526,61.155 222.411,61.146 216.294,61.136L215.142,61.134L209.353,61.124C195.677,61.101 182,61.08 168.324,61.061L128.461,61L127.22,60.998L114.885,60.978L89.755,60.938L88.587,60.936C62.86,60.895 37.132,60.857 11.404,60.82C11.859,60.365 12.281,60.094 12.711,59.935C13.243,59.85 13.786,59.789 14.362,59.789L15.596,59.784L16.956,59.787L18.403,59.784C20.02,59.782 21.636,59.782 23.252,59.782L26.745,59.778L35.367,59.773C38.809,59.773 42.251,59.769 45.693,59.766C54.01,59.758 62.329,59.756 70.648,59.753L82.449,59.748C95.909,59.743 109.369,59.737 122.829,59.735L125.364,59.735L127.906,59.735L133.006,59.734L134.283,59.734C147.953,59.733 161.623,59.725 175.294,59.713C189.739,59.702 204.186,59.694 218.633,59.694L223.388,59.694L224.57,59.694C230.858,59.693 237.146,59.688 243.434,59.681C249.751,59.674 256.068,59.672 262.385,59.676C266.14,59.679 269.895,59.676 273.65,59.668C276.451,59.663 279.251,59.666 282.052,59.671C283.188,59.672 284.323,59.671 285.458,59.666C286.997,59.661 288.535,59.664 290.074,59.67L291.423,59.659C294.505,59.685 296.612,60.185 298.882,62.424C300.376,64.96 299.949,68.154 299.927,70.997L299.936,73.103C299.942,75.03 299.937,76.957 299.931,78.883C299.924,80.962 299.932,83.041 299.936,85.12C299.943,89.191 299.939,93.263 299.932,97.334C299.923,102.075 299.925,106.815 299.926,111.556C299.929,120.013 299.923,128.471 299.911,136.929C299.899,145.137 299.895,153.346 299.901,161.555C299.906,170.491 299.907,179.428 299.9,188.365L299.898,191.223L299.897,192.644C299.895,195.949 299.896,199.254 299.898,202.559C299.9,206.586 299.897,210.614 299.888,214.641C299.883,216.696 299.88,218.751 299.884,220.806C299.887,222.687 299.883,224.569 299.875,226.449C299.873,227.13 299.874,227.811 299.877,228.491C299.881,229.416 299.875,230.342 299.869,231.267L299.867,232.824L299.861,232.875C299.69,234.188 299.327,235.266 298.74,236.253C298.288,236.98 297.693,237.643 296.922,238.309C296.546,238.499 296.192,238.656 295.847,238.786C294.464,239.31 293.25,239.402 291.569,239.451C289.246,239.433 289.246,239.433 287.087,240.086L286.229,240.111C287.319,239.89 288.336,239.46 289.405,238.637Z" style="fill:white;fill-opacity:0.75;"/>
    <path d="M0.261,206.171L0.261,96.673L144.159,96.673L144.159,206.171L0.261,206.171ZM44.835,174.678C47.584,175.595 49.354,177.417 50.649,180.008C50.936,182.877 50.42,184.981 48.711,187.275C46.954,188.885 45.211,189.833 42.806,189.91C39.575,189.539 37.904,188.561 35.828,186.053C34.533,183.778 34.541,181.546 35.145,179.039C37.655,174.88 40.197,174.323 44.835,174.678ZM113.739,125.128C116.724,127.56 119.277,130.31 119.846,134.233L119.933,135.433L120.051,136.936C120.196,140.581 119.714,143.36 117.995,146.577L117.424,147.658C115.095,151.551 111.502,154.349 108.104,157.274C104.614,160.281 103.567,161.602 102.491,166.442L89.894,166.442C89.894,160.838 91.871,157.709 95.7,153.791C97.46,152.064 99.37,150.539 101.305,149.012C102.889,147.701 104.17,146.281 105.398,144.639L106.307,143.519C107.274,141.207 107.378,138.75 106.477,136.389C104.737,133.57 101.756,132.299 98.714,131.26C94.124,130.454 89.045,130.454 85.049,133.011L83.855,133.736C82.101,134.847 80.884,135.625 79.719,137.371C77.395,136.586 75.52,135.292 73.512,133.919L72.494,133.233C71.671,132.676 70.85,132.117 70.029,131.557C72.327,126.573 77.611,123.874 82.462,121.801C92.011,118.443 105.287,119.369 113.739,125.128ZM60.553,124.78C63.746,127.261 66.644,130.298 67.267,134.461C67.334,135.487 67.349,136.495 67.334,137.523L67.323,138.62C67.235,141.596 66.667,143.971 65.184,146.577L64.613,147.65C62.303,151.538 58.706,154.369 55.293,157.257C51.964,160.081 50.784,162.029 49.68,166.442L37.083,166.442C37.083,161.315 39.004,158.082 42.413,154.329C44.307,152.493 46.285,150.764 48.327,149.094C50.99,146.884 53.558,144.485 54.303,140.98C54.447,138.421 53.99,136.659 52.335,134.69C48.759,131.151 44.4,130.876 39.652,130.896C36.805,130.963 34.661,131.46 32.238,133.011L31.044,133.736C29.29,134.847 28.073,135.625 26.908,137.371C24.584,136.586 22.709,135.292 20.701,133.919L19.683,133.233C18.86,132.676 18.039,132.117 17.218,131.557C19.058,127.163 24.137,124.121 28.362,122.352C38.274,118.744 51.509,118.922 60.553,124.78ZM97.646,174.678C99.656,175.348 101.215,176.369 102.531,178.068C103.516,180.217 103.315,182.563 102.976,184.853C101.919,187.084 100.806,188.135 98.615,189.213C96.98,189.424 96.98,189.424 95.224,189.425L93.467,189.454C91.519,189.167 90.781,188.668 89.41,187.275C87.759,185.054 87.63,183.21 87.683,180.504C88.13,178.108 89.507,176.682 91.348,175.163C93.253,174.21 95.565,174.519 97.646,174.678Z" style="fill:white;fill-opacity:0.25;"/>
    <path d="M151.426,96.673L291.676,96.673C291.676,96.851 291.676,97.029 291.675,97.207C291.675,100.502 291.675,103.797 291.678,107.092L291.682,109.93L291.683,111.356C291.693,120.266 291.694,129.176 291.691,138.086C291.688,146.267 291.694,154.449 291.711,162.631C291.727,171.061 291.737,179.491 291.735,187.92C291.734,192.646 291.733,197.371 291.745,202.096C291.749,203.455 291.752,204.813 291.754,206.171L151.426,206.171L151.426,96.673ZM214.141,124.78C217.334,127.261 220.232,130.298 220.855,134.461C220.922,135.487 220.937,136.495 220.922,137.523L220.911,138.62C220.823,141.596 220.255,143.971 218.772,146.577L218.201,147.65C215.891,151.538 212.294,154.369 208.881,157.257C205.552,160.081 204.372,162.029 203.268,166.442L190.671,166.442C190.671,161.315 192.592,158.082 196.001,154.329C197.895,152.493 199.873,150.764 201.915,149.094C204.578,146.884 207.146,144.485 207.891,140.98C208.035,138.421 207.578,136.659 205.923,134.69C202.347,131.151 197.988,130.876 193.24,130.896C190.393,130.963 188.249,131.46 185.826,133.011L184.632,133.736C182.878,134.847 181.661,135.625 180.496,137.371C178.172,136.586 176.297,135.292 174.289,133.919L173.271,133.233C172.448,132.676 171.627,132.117 170.806,131.557C172.646,127.163 177.725,124.121 181.95,122.352C191.862,118.744 205.097,118.922 214.141,124.78ZM267.327,125.128C270.312,127.56 272.865,130.31 273.434,134.233L273.521,135.433L273.639,136.936C273.784,140.581 273.302,143.36 271.583,146.577L271.012,147.658C268.683,151.551 265.09,154.349 261.692,157.274C258.202,160.281 257.155,161.602 256.079,166.442L243.482,166.442C243.482,160.838 245.458,157.709 249.288,153.791C251.048,152.064 252.958,150.539 254.893,149.012C256.477,147.701 257.758,146.281 258.986,144.639L259.895,143.519C260.862,141.207 260.966,138.75 260.065,136.389C258.325,133.57 255.344,132.299 252.302,131.26C247.712,130.454 242.633,130.454 238.637,133.011L237.443,133.736C235.689,134.847 234.472,135.625 233.307,137.371C230.983,136.586 229.108,135.292 227.1,133.919L226.082,133.233C225.259,132.676 224.438,132.117 223.617,131.557C225.915,126.573 231.199,123.874 236.05,121.801C245.599,118.443 258.875,119.369 267.327,125.128ZM198.423,174.678C201.172,175.595 202.942,177.417 204.237,180.008C204.524,182.877 204.008,184.981 202.299,187.275C200.542,188.885 198.799,189.833 196.394,189.91C193.163,189.539 191.492,188.561 189.416,186.053C188.121,183.778 188.129,181.546 188.733,179.039C191.243,174.88 193.785,174.323 198.423,174.678ZM251.234,174.678C253.244,175.348 254.803,176.369 256.119,178.068C257.104,180.217 256.903,182.563 256.564,184.853C255.507,187.084 254.394,188.135 252.203,189.213C250.568,189.424 250.568,189.424 248.812,189.425L247.055,189.454C245.107,189.167 244.369,188.668 242.998,187.275C241.347,185.054 241.218,183.21 241.271,180.504C241.718,178.108 243.095,176.682 244.936,175.163C246.841,174.21 249.153,174.519 251.234,174.678Z" style="fill:white;fill-opacity:0.25;"/>
    <path d="M267.327,125.128C270.312,127.56 272.865,130.31 273.434,134.233L273.521,135.433L273.639,136.936C273.784,140.581 273.302,143.36 271.583,146.577L271.012,147.658C268.683,151.551 265.09,154.349 261.692,157.274C258.202,160.281 257.155,161.602 256.079,166.442L243.482,166.442C243.482,160.838 245.458,157.709 249.288,153.791C251.048,152.064 252.958,150.539 254.893,149.012C256.477,147.701 257.758,146.281 258.986,144.639L259.895,143.519C260.862,141.207 260.966,138.75 260.065,136.389C258.325,133.57 255.344,132.299 252.302,131.26C247.712,130.454 242.633,130.454 238.637,133.011L237.443,133.736C235.689,134.847 234.472,135.625 233.307,137.371C230.983,136.586 229.108,135.292 227.1,133.919L226.082,133.233C225.259,132.676 224.438,132.117 223.617,131.557C225.915,126.573 231.199,123.874 236.05,121.801C245.599,118.443 258.875,119.369 267.327,125.128Z" style="fill:white;fill-opacity:0.95;"/>
    <path d="M113.739,125.128C116.724,127.56 119.277,130.31 119.846,134.233L119.933,135.433L120.051,136.936C120.196,140.581 119.714,143.36 117.995,146.577L117.424,147.658C115.095,151.551 111.502,154.349 108.104,157.274C104.614,160.281 103.567,161.602 102.491,166.442L89.894,166.442C89.894,160.838 91.871,157.709 95.7,153.791C97.46,152.064 99.37,150.539 101.305,149.012C102.889,147.701 104.17,146.281 105.398,144.639L106.307,143.519C107.274,141.207 107.378,138.75 106.477,136.389C104.737,133.57 101.756,132.299 98.714,131.26C94.124,130.454 89.045,130.454 85.049,133.011L83.855,133.736C82.101,134.847 80.884,135.625 79.719,137.371C77.395,136.586 75.52,135.292 73.512,133.919L72.494,133.233C71.671,132.676 70.85,132.117 70.029,131.557C72.327,126.573 77.611,123.874 82.462,121.801C92.011,118.443 105.287,119.369 113.739,125.128Z" style="fill:white;fill-opacity:0.95;"/>
    <path d="M214.141,124.78C217.334,127.261 220.232,130.298 220.855,134.461C220.922,135.487 220.937,136.495 220.922,137.523L220.911,138.62C220.823,141.596 220.255,143.971 218.772,146.577L218.201,147.65C215.891,151.538 212.294,154.369 208.881,157.257C205.552,160.081 204.372,162.029 203.268,166.442L190.671,166.442C190.671,161.315 192.592,158.082 196.001,154.329C197.895,152.493 199.873,150.764 201.915,149.094C204.578,146.884 207.146,144.485 207.891,140.98C208.035,138.421 207.578,136.659 205.923,134.69C202.347,131.151 197.988,130.876 193.24,130.896C190.393,130.963 188.249,131.46 185.826,133.011L184.632,133.736C182.878,134.847 181.661,135.625 180.496,137.371C178.172,136.586 176.297,135.292 174.289,133.919L173.271,133.233C172.448,132.676 171.627,132.117 170.806,131.557C172.646,127.163 177.725,124.121 181.95,122.352C191.862,118.744 205.097,118.922 214.141,124.78Z" style="fill:white;fill-opacity:0.95;"/>
    <path d="M60.553,124.78C63.746,127.261 66.644,130.298 67.267,134.461C67.334,135.487 67.349,136.495 67.334,137.523L67.323,138.62C67.235,141.596 66.667,143.971 65.184,146.577L64.613,147.65C62.303,151.538 58.706,154.369 55.293,157.257C51.964,160.081 50.784,162.029 49.68,166.442L37.083,166.442C37.083,161.315 39.004,158.082 42.413,154.329C44.307,152.493 46.285,150.764 48.327,149.094C50.99,146.884 53.558,144.485 54.303,140.98C54.447,138.421 53.99,136.659 52.335,134.69C48.759,131.151 44.4,130.876 39.652,130.896C36.805,130.963 34.661,131.46 32.238,133.011L31.044,133.736C29.29,134.847 28.073,135.625 26.908,137.371C24.584,136.586 22.709,135.292 20.701,133.919L19.683,133.233C18.86,132.676 18.039,132.117 17.218,131.557C19.058,127.163 24.137,124.121 28.362,122.352C38.274,118.744 51.509,118.922 60.553,124.78Z" style="fill:white;fill-opacity:0.95;"/>
    <rect x="144.159" y="96.673" width="7.268" height="109.498" style="fill:white;fill-opacity:0.75;"/>
    <path d="M191.117,75.232L192.933,75.224L194.929,75.23L197.027,75.224C198.928,75.22 200.829,75.222 202.73,75.224C204.717,75.227 206.705,75.224 208.693,75.223C212.031,75.222 215.369,75.224 218.707,75.229C222.569,75.234 226.431,75.232 230.292,75.227C233.605,75.222 236.919,75.222 240.232,75.224C242.211,75.226 244.192,75.226 246.172,75.223C248.033,75.22 249.894,75.222 251.755,75.227C252.439,75.229 253.122,75.228 253.806,75.226C254.738,75.224 255.67,75.227 256.602,75.232L258.183,75.233C259.471,75.355 259.471,75.355 260.924,76.324C261.131,77.669 261.16,78.411 260.366,79.539C259.093,80.478 258.174,80.383 256.602,80.384L254.786,80.397L252.791,80.388L250.692,80.396C248.791,80.402 246.89,80.4 244.99,80.395C243.002,80.391 241.014,80.395 239.026,80.397C235.688,80.4 232.35,80.396 229.012,80.389C225.15,80.381 221.288,80.384 217.427,80.392C214.114,80.399 210.801,80.399 207.488,80.396C205.507,80.393 203.527,80.393 201.548,80.398C199.687,80.402 197.826,80.399 195.965,80.391C195.281,80.389 194.597,80.389 193.913,80.393C192.981,80.396 192.049,80.391 191.117,80.384L189.536,80.383C188.248,80.2 188.248,80.2 187.354,79.539C186.559,78.411 186.588,77.669 186.795,76.324C188.481,75.2 189.128,75.233 191.117,75.232Z" style="fill:white;fill-opacity:0.95;"/>
    <path d="M27.839,75.232L29.655,75.224L31.651,75.23L33.749,75.224C35.65,75.22 37.551,75.222 39.452,75.224C41.439,75.227 43.427,75.224 45.415,75.223C48.753,75.222 52.091,75.224 55.429,75.229C59.291,75.234 63.153,75.232 67.014,75.227C70.327,75.222 73.64,75.222 76.954,75.224C78.934,75.226 80.914,75.226 82.894,75.223C84.755,75.22 86.616,75.222 88.477,75.227C89.16,75.229 89.844,75.228 90.528,75.226C91.46,75.224 92.392,75.227 93.324,75.232L94.905,75.233C96.193,75.355 96.193,75.355 97.646,76.324C97.853,77.669 97.882,78.411 97.087,79.539C95.815,80.478 94.896,80.383 93.324,80.384L91.508,80.397L89.512,80.388L87.414,80.396C85.513,80.402 83.612,80.4 81.711,80.395C79.724,80.391 77.736,80.395 75.748,80.397C72.41,80.4 69.072,80.396 65.734,80.389C61.872,80.381 58.01,80.384 54.149,80.392C50.836,80.399 47.523,80.399 44.209,80.396C42.229,80.393 40.249,80.393 38.269,80.398C36.408,80.402 34.547,80.399 32.686,80.391C32.003,80.389 31.319,80.389 30.635,80.393C29.703,80.396 28.771,80.391 27.839,80.384L26.258,80.383C24.97,80.2 24.97,80.2 24.076,79.539C23.281,78.411 23.31,77.669 23.517,76.324C25.203,75.2 25.849,75.233 27.839,75.232Z" style="fill:white;fill-opacity:0.95;"/>
    <path d="M198.423,174.678C201.172,175.595 202.942,177.417 204.237,180.008C204.524,182.877 204.008,184.981 202.299,187.275C200.542,188.885 198.799,189.833 196.394,189.91C193.163,189.539 191.492,188.561 189.416,186.053C188.121,183.778 188.129,181.546 188.733,179.039C191.243,174.88 193.785,174.323 198.423,174.678Z" style="fill:white;fill-opacity:0.95;"/>
    <path d="M44.835,174.678C47.584,175.595 49.354,177.417 50.649,180.008C50.936,182.877 50.42,184.981 48.711,187.275C46.954,188.885 45.211,189.833 42.806,189.91C39.575,189.539 37.904,188.561 35.828,186.053C34.533,183.778 34.541,181.546 35.145,179.039C37.655,174.88 40.197,174.323 44.835,174.678Z" style="fill:white;fill-opacity:0.95;"/>
    <path d="M251.234,174.678C253.244,175.348 254.803,176.369 256.119,178.068C257.104,180.217 256.903,182.563 256.564,184.853C255.507,187.084 254.394,188.135 252.203,189.213C250.568,189.424 250.568,189.424 248.812,189.425L247.055,189.454C245.107,189.167 244.369,188.668 242.998,187.275C241.347,185.054 241.218,183.21 241.271,180.504C241.718,178.108 243.095,176.682 244.936,175.163C246.841,174.21 249.153,174.519 251.234,174.678Z" style="fill:white;fill-opacity:0.95;"/>
    <path d="M97.646,174.678C99.656,175.348 101.215,176.369 102.531,178.068C103.516,180.217 103.315,182.563 102.976,184.853C101.919,187.084 100.806,188.135 98.615,189.213C96.98,189.424 96.98,189.424 95.224,189.425L93.467,189.454C91.519,189.167 90.781,188.668 89.41,187.275C87.759,185.054 87.63,183.21 87.683,180.504C88.13,178.108 89.507,176.682 91.348,175.163C93.253,174.21 95.565,174.519 97.646,174.678Z" style="fill:white;fill-opacity:0.95;"/>
</svg>
