<?xml version="1.0" encoding="UTF-8" standalone="no"?>
<!DOCTYPE svg PUBLIC "-//W3C//DTD SVG 1.1//EN" "http://www.w3.org/Graphics/SVG/1.1/DTD/svg11.dtd">
<svg width="100%" height="100%" viewBox="0 0 300 300" version="1.1" xmlns="http://www.w3.org/2000/svg" xmlns:xlink="http://www.w3.org/1999/xlink" xml:space="preserve" xmlns:serif="http://www.serif.com/" style="fill-rule:evenodd;clip-rule:evenodd;stroke-linejoin:round;stroke-miterlimit:2;">
    <path d="M35.246,17.824L31.135,17.824C31.028,17.824 30.939,17.913 30.939,18.019L30.939,21.778C30.939,22.152 30.636,22.455 30.262,22.455L26.731,22.455C26.645,22.455 26.578,22.523 26.578,22.609L26.578,26.236C26.578,26.293 26.531,26.339 26.474,26.339L24.436,26.339C24.376,26.339 24.326,26.289 24.326,26.229L24.326,22.666C24.326,22.548 24.233,22.452 24.116,22.452L22.021,22.452C21.828,22.452 21.671,22.299 21.671,22.106L21.671,13.43C21.671,13.291 21.785,13.177 21.928,13.177L30.433,13.177C30.718,13.177 30.949,13.409 30.949,13.698L30.949,15.436C30.949,15.565 31.056,15.671 31.185,15.671L35.25,15.671C35.318,15.671 35.375,15.728 35.375,15.796L35.375,17.695C35.375,17.767 35.318,17.824 35.246,17.824ZM62.289,21.993C62.289,22.252 62.079,22.459 61.821,22.459L53.484,22.445C53.225,22.445 53.018,22.234 53.018,21.977L53.033,13.64C53.033,13.381 53.243,13.174 53.5,13.174L61.838,13.188C62.097,13.188 62.303,13.398 62.304,13.656L62.289,21.993ZM79.68,15.671L83.824,15.671C83.938,15.671 84.03,15.579 84.03,15.461L84.03,13.445C84.03,13.299 84.151,13.177 84.297,13.177L92.82,13.177C93.08,13.177 93.294,13.388 93.294,13.648L93.294,21.821C93.294,22.17 93.009,22.455 92.66,22.455L90.689,22.455C90.572,22.455 90.476,22.552 90.476,22.669L90.476,26.524C90.476,26.645 90.379,26.742 90.258,26.742L88.43,26.742C88.32,26.742 88.231,26.649 88.231,26.538L88.231,22.673C88.231,22.552 88.131,22.452 88.01,22.452L84.358,22.452C84.176,22.452 84.027,22.302 84.027,22.12L84.027,18.019C84.027,17.913 83.938,17.824 83.831,17.824L79.68,17.824C79.601,17.824 79.541,17.763 79.541,17.685L79.541,15.81C79.541,15.732 79.601,15.671 79.68,15.671ZM48.009,17.677C48.009,17.759 47.941,17.827 47.859,17.827L41.567,17.827C41.485,17.827 41.417,17.759 41.417,17.677L41.417,15.825C41.417,15.743 41.485,15.675 41.567,15.675L47.859,15.675C47.941,15.675 48.009,15.743 48.009,15.825L48.009,17.677ZM73.505,17.706C73.505,17.77 73.452,17.824 73.388,17.824L67.031,17.824C66.967,17.824 66.914,17.77 66.914,17.706L66.914,15.789C66.914,15.725 66.967,15.671 67.031,15.671L73.388,15.671C73.452,15.671 73.505,15.725 73.505,15.789L73.505,17.706ZM78.009,68.784L62.225,68.767C62.075,68.763 61.954,68.645 61.954,68.496L61.954,67.359C61.954,67.206 62.079,67.081 62.236,67.081L65.585,67.081C65.788,67.081 65.93,66.878 65.859,66.689L61.466,54.992C61.359,54.707 61.085,54.518 60.782,54.518L48.939,54.518C48.6,54.518 48.297,54.721 48.169,55.035L43.366,66.875C43.327,66.971 43.398,67.078 43.502,67.078L48.568,67.078C48.689,67.078 48.789,67.174 48.789,67.295L48.789,68.528C48.789,68.667 48.679,68.777 48.54,68.777L37.338,68.777C37.156,68.777 37.006,68.628 37.006,68.442L37.006,67.445C37.006,67.238 37.174,67.071 37.381,67.071L40.434,67.071C40.612,67.071 40.776,66.964 40.847,66.8L57.828,27.137C57.939,26.881 58.195,26.713 58.477,26.713L63.397,26.713C63.554,26.713 63.693,26.806 63.75,26.948L77.781,60.818C78.86,63.607 79.662,65.588 80.186,66.761C80.321,67.064 80.66,67.163 81.205,67.06L84.02,67.088C84.433,67.092 84.764,67.427 84.764,67.84L84.764,68.04C84.764,68.439 84.44,68.763 84.041,68.767L81.283,68.784L78.009,68.784ZM54.971,38.357L49.099,52.83C49.049,52.951 49.138,53.086 49.27,53.086L60.155,53.086C60.447,53.086 60.647,52.794 60.543,52.523L55.227,38.36C55.185,38.243 55.017,38.239 54.971,38.357ZM26.581,38.973C26.581,39.055 26.517,39.119 26.435,39.119L24.468,39.119C24.386,39.119 24.322,39.055 24.322,38.973L24.322,32.617C24.322,32.535 24.386,32.471 24.468,32.471L26.435,32.471C26.517,32.471 26.581,32.535 26.581,32.617L26.581,38.973ZM90.479,39.201C90.479,39.283 90.411,39.351 90.33,39.351L88.377,39.351C88.295,39.351 88.227,39.283 88.227,39.201L88.227,32.923C88.227,32.841 88.295,32.774 88.377,32.774L90.33,32.774C90.411,32.774 90.479,32.841 90.479,32.923L90.479,39.201ZM30.939,52.277C30.939,52.53 30.736,52.733 30.483,52.733L22.124,52.733C21.871,52.733 21.668,52.53 21.668,52.277L21.668,43.919C21.668,43.666 21.871,43.463 22.124,43.463L30.483,43.463C30.736,43.463 30.939,43.666 30.939,43.919L30.939,52.277ZM85.313,44.175L92.824,44.189C93.08,44.193 93.287,44.4 93.287,44.653L93.287,52.986C93.287,53.239 93.084,53.442 92.831,53.442L84.411,53.442C84.198,53.442 84.023,53.268 84.027,53.054L84.03,44.677C83.977,44.261 84.404,44.093 85.313,44.175ZM26.581,64.334C26.581,64.413 26.521,64.473 26.442,64.473L24.461,64.473C24.383,64.473 24.322,64.413 24.322,64.334L24.322,58.021C24.322,57.942 24.383,57.882 24.461,57.882L26.442,57.882C26.521,57.882 26.581,57.942 26.581,58.021L26.581,64.334ZM90.468,60.233L90.472,64.648C90.472,64.758 90.383,64.847 90.273,64.847L88.43,64.847C88.324,64.847 88.235,64.758 88.235,64.648L88.231,60.233L88.202,58.719C88.195,58.473 88.391,58.274 88.634,58.274L90.059,58.274C90.297,58.274 90.49,58.47 90.486,58.708L90.468,60.233ZM34.961,79.566C35.047,79.566 35.118,79.637 35.118,79.726L35.118,81.675C35.118,81.761 35.05,81.828 34.965,81.828L31.095,81.828C31.014,81.828 30.946,81.892 30.946,81.974L30.946,83.492C30.946,83.824 30.679,84.094 30.347,84.094L21.989,84.094C21.814,84.094 21.675,83.952 21.675,83.777L21.675,75.037C21.675,74.916 21.771,74.82 21.889,74.82L24.126,74.82C24.233,74.82 24.322,74.731 24.322,74.624L24.322,70.801C24.322,70.691 24.411,70.601 24.522,70.601L26.378,70.601C26.489,70.601 26.581,70.694 26.581,70.805L26.581,74.613C26.581,74.727 26.674,74.82 26.788,74.82L30.408,74.82C30.7,74.82 30.939,75.059 30.939,75.351L30.939,79.391C30.939,79.487 31.017,79.566 31.117,79.566L34.961,79.566ZM81.287,79.555L83.816,79.548C83.934,79.548 84.027,79.455 84.027,79.338L84.027,75.094C84.027,74.952 84.144,74.834 84.29,74.834L88.014,74.834C88.131,74.834 88.227,74.738 88.227,74.621L88.227,71.09C88.227,70.99 88.309,70.908 88.413,70.908L90.273,70.908C90.379,70.908 90.468,70.997 90.468,71.104L90.468,74.606C90.468,74.735 90.575,74.841 90.704,74.841L92.909,74.841C93.13,74.841 93.308,75.023 93.305,75.244C93.262,78.037 93.267,80.713 93.301,83.275C93.308,83.824 93.048,84.098 92.521,84.094C91.398,84.087 88.669,84.084 84.326,84.084C84.173,84.084 84.052,83.963 84.052,83.809L84.052,82.088C84.052,81.953 83.945,81.846 83.813,81.846L81.308,81.853L79.395,81.835C79.341,81.835 79.295,81.789 79.295,81.736L79.295,79.662C79.295,79.605 79.341,79.559 79.398,79.559L81.287,79.555ZM62.304,83.976C62.303,84.233 62.097,84.44 61.841,84.44L53.497,84.454C53.239,84.454 53.033,84.248 53.033,83.992L53.018,75.648C53.018,75.39 53.225,75.183 53.481,75.184L61.825,75.169C62.082,75.169 62.289,75.376 62.289,75.631L62.304,83.976ZM47.742,81.679C47.742,81.764 47.674,81.832 47.588,81.832L41.318,81.832C41.232,81.832 41.164,81.764 41.164,81.679L41.164,79.719C41.164,79.634 41.232,79.566 41.318,79.566L47.588,79.566C47.674,79.566 47.742,79.634 47.742,79.719L47.742,81.679ZM73.252,81.689C73.252,81.768 73.188,81.832 73.11,81.832L66.803,81.832C66.725,81.832 66.661,81.768 66.661,81.689L66.661,79.708C66.661,79.63 66.725,79.566 66.803,79.566L73.11,79.566C73.188,79.566 73.252,79.63 73.252,79.708L73.252,81.689Z" style="fill:white;fill-opacity:0.75;"/>
    <path d="M77.781,60.818C78.044,56.314 78.116,51.9 77.998,47.571C77.927,44.809 78.7,42.251 81.191,40.876C82.334,40.245 83.585,39.928 84.946,39.928C101.043,39.924 164.389,39.924 274.983,39.928C275.464,39.928 275.852,39.989 276.152,40.11C276.447,40.227 276.754,40.302 277.067,40.334C277.171,40.345 277.274,40.37 277.374,40.409C279.052,41.082 280.235,42.198 280.922,43.755C281.261,44.517 281.436,45.725 281.45,47.378C281.653,69.326 281.753,90.173 281.742,109.922C281.742,110.189 281.856,110.371 282.088,110.471C281.376,111.055 280.197,112.22 278.856,114.124C278.553,113.644 278.399,113.122 278.396,112.562C278.301,95.122 278.275,77.678 278.282,60.23L278.183,57.362C278.293,55.117 278.309,52.894 278.225,50.692C278.173,49.309 278.043,48.305 277.833,47.677C276.577,43.919 273.376,43.135 269.774,43.135C244.395,43.113 185.963,43.131 94.477,43.145C94.37,43.145 92.499,43.165 88.869,43.202C87.451,43.217 86.264,43.541 85.313,44.175C84.404,44.093 83.977,44.261 84.03,44.677C83.264,44.92 82.646,45.526 82.167,46.491C81.694,47.443 81.426,48.28 81.362,48.996C81.154,51.294 81.123,54.084 81.283,57.362L81.233,60.208L81.205,67.06C80.66,67.163 80.321,67.064 80.186,66.761C79.662,65.588 78.86,63.607 77.781,60.818Z" style="fill:white;fill-opacity:0.15;"/>
    <path d="M278.183,57.362C278.293,55.117 278.309,52.894 278.225,50.692C278.173,49.309 278.043,48.305 277.833,47.677C276.577,43.919 273.376,43.135 269.774,43.135C244.395,43.113 185.963,43.131 94.477,43.145C94.37,43.145 92.499,43.165 88.869,43.202C87.451,43.217 86.264,43.541 85.313,44.175L92.824,44.189C93.08,44.193 93.287,44.4 93.287,44.653L93.287,52.986C93.287,53.239 93.084,53.442 92.831,53.442L84.411,53.442C84.198,53.442 84.023,53.268 84.027,53.054L84.03,44.677C83.264,44.92 82.646,45.526 82.167,46.491C81.694,47.443 81.426,48.28 81.362,48.996C81.154,51.294 81.123,54.084 81.283,57.362L278.183,57.362ZM266.083,50.022C266.083,48.119 264.544,46.58 262.641,46.58C260.738,46.58 259.199,48.119 259.199,50.022C259.199,51.925 260.738,53.464 262.641,53.464C264.544,53.464 266.083,51.925 266.083,50.022ZM255.75,50.022C255.75,48.119 254.211,46.58 252.308,46.58C250.406,46.58 248.867,48.119 248.867,50.022C248.867,51.925 250.406,53.464 252.308,53.464C254.211,53.464 255.75,51.925 255.75,50.022ZM245.418,50.022C245.418,48.119 243.878,46.58 241.976,46.58C240.073,46.58 238.534,48.119 238.534,50.022C238.534,51.925 240.073,53.464 241.976,53.464C243.878,53.464 245.418,51.925 245.418,50.022Z" style="fill:white;fill-opacity:0.3;"/>
    <path d="M245.418,50.022C245.418,48.119 243.878,46.58 241.976,46.58C240.073,46.58 238.534,48.119 238.534,50.022C238.534,51.925 240.073,53.464 241.976,53.464C243.878,53.464 245.418,51.925 245.418,50.022Z" style="fill:white;fill-opacity:0.5;"/>
    <path d="M255.75,50.022C255.75,48.119 254.211,46.58 252.308,46.58C250.406,46.58 248.867,48.119 248.867,50.022C248.867,51.925 250.406,53.464 252.308,53.464C254.211,53.464 255.75,51.925 255.75,50.022Z" style="fill:white;fill-opacity:0.5;"/>
    <path d="M266.083,50.022C266.083,48.119 264.544,46.58 262.641,46.58C260.738,46.58 259.199,48.119 259.199,50.022C259.199,51.925 260.738,53.464 262.641,53.464C264.544,53.464 266.083,51.925 266.083,50.022Z" style="fill:white;fill-opacity:0.5;"/>
    <path d="M278.282,60.23L278.183,57.362L81.283,57.362L81.233,60.208L88.231,60.233L88.202,58.719C88.195,58.473 88.391,58.274 88.634,58.274L90.059,58.274C90.297,58.274 90.49,58.47 90.486,58.708L90.468,60.233L278.282,60.23Z" style="fill:white;fill-opacity:0.5;"/>
    <path d="M241.559,151.552L236.503,164.581C236.468,164.671 236.514,164.774 236.606,164.809L287.909,184.587C286.851,186.975 285.715,189.319 284.539,191.638C284.47,191.773 284.275,192.255 283.958,193.081C281.311,199.983 278.239,206.64 274.734,213.048C274.16,214.096 273.285,215.461 272.101,217.139C271.937,217.37 271.573,217.21 271.637,216.932L273.405,209.368C273.426,209.286 273.316,209.232 273.266,209.304C269.837,214.205 266.202,219.11 261.722,223.096C260.709,223.997 259.655,224.924 258.558,225.882L255.501,224.033C255.426,223.99 255.365,223.926 255.33,223.848C255.034,223.27 255.045,222.843 255.358,222.568C258.989,215.033 261.505,209.485 262.905,205.933C264.376,202.199 265.292,199.969 265.719,198.383C265.794,198.105 265.449,197.913 265.249,198.12C264.377,199.022 263.467,200.339 262.52,202.074C261.161,204.564 259.573,207.518 257.753,210.943C255.789,214.637 253.559,218.161 251.065,221.514C250.819,221.503 246.665,221.628 246.248,221.468C249.223,214.459 251.067,209.903 251.77,207.796C252.717,204.965 253.508,202.199 254.147,199.502C254.684,197.236 255.292,195.043 256.025,192.943C256.042,192.893 256.018,192.835 255.971,192.811C255.922,192.785 255.864,192.8 255.832,192.843C255.36,193.484 254.853,194.382 254.286,195.519C253.912,196.267 251.992,200.503 248.525,208.228C246.597,212.521 244.473,216.693 242.15,220.737C241.146,220.555 238.153,218.236 238.331,217.723C238.595,216.971 238.399,216.601 237.743,216.604L240.797,206.81C240.864,206.589 240.64,206.386 240.387,206.435C240.241,206.464 240.077,206.557 239.899,206.71C239.318,207.209 238.626,208.024 237.818,209.158C235.783,212.011 233.699,214.662 231.568,217.103C229.89,216.829 228.433,216.376 227.2,215.738C227.336,215.279 227.563,214.777 227.895,214.238C227.948,214.152 227.991,214.064 228.027,213.971C230.715,206.946 232.283,202.531 234.34,196.798C235.885,192.494 237.794,188.272 239.745,184.32C239.774,184.263 239.753,184.191 239.699,184.156C239.643,184.12 239.571,184.135 239.532,184.188C237.27,187.263 235.895,189.747 233.165,194.268C229.834,199.784 226.107,205.116 221.525,209.282C221.317,209.471 220.83,209.585 220.064,209.624C217.612,209.264 215.268,208.591 213.03,207.608C212.92,207.561 211.716,206.432 211.741,205.954C211.801,204.846 212.19,203.785 212.906,202.773C215.257,199.456 217.555,196.124 219.8,192.772C220.324,191.991 222.818,188.218 227.282,181.452C229.356,178.313 231.34,174.967 233.232,171.412L235.042,168.419C235.103,168.315 235.032,168.187 234.914,168.187C222.255,168.194 209.621,168.223 197.004,168.262C195.953,168.265 194.97,168.198 194.051,168.059C191.307,164.728 187.868,162.193 183.747,160.423C183.458,160.299 183.155,160.211 182.845,160.156C181.43,159.908 179.446,159.768 176.888,159.75C174.369,159.732 172.039,159.882 169.897,160.195C169.602,160.239 169.302,160.171 169.053,160.01C164.467,157.052 159.375,153.497 158.421,147.8C158.025,145.438 158.214,143.061 158.988,140.674C159.518,140.496 160.135,140.501 160.833,140.692C161.04,140.748 161.699,140.673 162.807,140.467C164.991,140.063 165.979,138.419 165.782,136.302C165.714,135.565 165.754,134.997 165.918,134.603C165.977,134.46 166.138,134.39 166.281,134.45C167.024,134.762 167.966,134.927 169.096,134.945C170.222,134.963 171.162,134.777 171.914,134.389C173.292,133.679 173.999,132.451 174.048,130.708C174.052,130.591 174.03,130.474 173.984,130.366C173.836,130.021 173.909,129.686 174.191,129.369C174.276,129.273 174.422,129.248 174.533,129.315L174.992,129.579C175.067,129.622 175.153,129.647 175.242,129.647L176.945,129.647C176.991,129.647 177.038,129.64 177.084,129.625C179.229,128.928 180.777,127.604 181.758,125.763C182.288,124.769 182.674,123.764 182.916,122.756C183.163,121.73 183.172,120.657 182.941,119.539C182.652,118.139 181.879,117.085 180.615,116.375C180.387,116.247 180.426,115.906 180.679,115.833C181.353,115.64 181.872,115.277 182.247,114.746L247.826,114.746C248.268,114.746 248.628,114.387 248.628,113.945L248.628,112.042C248.628,111.618 248.282,111.276 247.858,111.276L182.418,111.276C182.271,108.629 181.634,106.523 180.501,104.963C179.332,103.352 177.75,102.636 175.755,102.814C175.555,102.832 175.428,102.608 175.545,102.447C176.751,100.783 177.554,98.895 177.978,96.803L255.957,96.928C256.235,96.928 256.459,96.697 256.452,96.419L256.367,93.433C256.377,93.326 256.398,93.226 256.434,93.13C256.477,93.016 256.498,92.92 256.498,92.841C256.5,85.206 256.5,76.701 256.498,67.327C256.498,67.145 256.349,66.996 256.167,66.996L101.546,66.996C101.332,66.996 101.157,67.17 101.157,67.384L101.182,89.214C99.511,89.075 98.278,89.642 97.488,90.91C97.463,90.95 97.448,90.989 97.438,91.031L96.978,93.102C96.964,93.155 96.957,93.212 96.96,93.269C96.982,95.467 97.729,97.282 99.205,98.713C100.006,99.49 101.171,100.084 102.7,100.491C103.63,100.739 104.657,101.321 105.355,101.859C106.171,102.489 106.6,103.284 106.626,104.243C106.631,104.407 106.672,104.567 106.744,104.717C106.903,105.049 107.023,105.312 107.093,105.508C107.539,106.746 108.722,107.57 109.983,107.863C111.365,108.183 112.791,108.38 114.258,108.469C114.369,108.475 114.479,108.5 114.583,108.54C115.046,108.717 115.281,108.935 115.292,109.188L114.55,113.346L101.87,113.35C101.685,113.35 101.535,113.499 101.535,113.685L101.514,144.782L98.973,146.785C98.446,147.201 98.335,147.957 98.717,148.509L98.784,148.605C99.18,149.182 99.974,149.318 100.537,148.904L101.71,148.046C101.859,147.939 102.052,147.914 102.226,147.982L102.672,148.16C102.8,148.213 102.939,148.238 103.078,148.238L119.97,148.188C120.743,149.934 121.873,151.452 123.358,152.745C125.072,154.238 127.181,154.872 129.686,154.655L133.071,154.174C133.163,154.16 133.256,154.171 133.341,154.203L133.655,154.324C136.299,157.228 137.938,160.769 138.575,164.956L138.508,165.554C138.494,165.665 138.415,165.75 138.308,165.775L123.547,168.739C123.586,168.579 123.551,168.471 123.447,168.422C123.11,168.263 122.745,168.187 122.36,168.187C103.637,168.196 93.835,168.216 92.963,168.223C89.82,168.246 87.743,168.16 86.731,167.97C82.219,167.123 81.19,163.53 81.198,159.447C81.208,154.277 81.212,130.495 81.212,88.099C81.212,84.967 81.244,82.883 81.308,81.853L83.813,81.846C83.945,81.846 84.052,81.953 84.052,82.088L84.052,83.809C84.052,83.963 84.173,84.084 84.326,84.084C88.669,84.084 91.398,84.087 92.521,84.094C93.048,84.098 93.308,83.824 93.301,83.275C93.267,80.713 93.262,78.037 93.305,75.244C93.308,75.023 93.13,74.841 92.909,74.841L90.704,74.841C90.575,74.841 90.468,74.735 90.468,74.606L90.468,71.104C90.468,70.997 90.379,70.908 90.273,70.908L88.413,70.908C88.309,70.908 88.227,70.99 88.227,71.09L88.227,74.621C88.227,74.738 88.131,74.834 88.014,74.834L84.29,74.834C84.144,74.834 84.027,74.952 84.027,75.094L84.027,79.338C84.027,79.455 83.934,79.548 83.816,79.548L81.287,79.555L81.283,68.784L84.041,68.767C84.44,68.763 84.764,68.439 84.764,68.04L84.764,67.84C84.764,67.427 84.433,67.092 84.02,67.088L81.205,67.06L81.233,60.208L88.231,60.233L88.235,64.648C88.235,64.758 88.324,64.847 88.43,64.847L90.273,64.847C90.383,64.847 90.472,64.758 90.472,64.648L90.468,60.233L278.282,60.23C278.275,77.678 278.301,95.122 278.396,112.562C278.399,113.122 278.553,113.644 278.856,114.124C278.837,114.151 278.818,114.191 278.799,114.243C277.634,115.996 276.612,117.798 275.733,119.649C274.604,122.125 273.517,125.152 272.631,128.813C272.282,130.463 271.937,132.515 271.595,134.97C271.349,136.748 271.031,138.077 270.647,138.953C268.279,144.35 262.698,147.091 256.997,147.918C255.743,148.099 254.835,148.192 254.272,148.195C253.039,148.203 251.311,148.096 250.901,148.071C249.494,147.989 247.991,147.783 246.422,147.347C246.193,147.289 245.997,147.243 245.836,147.209C245.656,147.174 245.49,147.151 245.336,147.137C244.91,147.099 244.574,147.133 244.301,147.212C243.889,147.33 243.62,147.548 243.402,147.768C243.303,147.872 243.204,147.982 243.098,148.092C242.286,148.94 241.773,150.094 241.559,151.552ZM248.564,140.25C248.564,139.99 248.35,139.776 248.09,139.776L167.845,139.776C167.585,139.776 167.371,139.99 167.371,140.25L167.371,142.78C167.371,143.04 167.585,143.254 167.845,143.254L248.09,143.254C248.35,143.254 248.564,143.04 248.564,142.78L248.564,140.25Z" style="fill:white;fill-opacity:0.3;"/>
    <path d="M256.367,93.433C256.377,93.326 256.398,93.226 256.434,93.13C256.477,93.016 256.498,92.92 256.498,92.841C256.5,85.206 256.5,76.701 256.498,67.327C256.498,67.145 256.349,66.996 256.167,66.996L101.546,66.996C101.332,66.996 101.157,67.17 101.157,67.384L101.182,89.214L103.733,89.863C110.013,90.367 112.7,87.366 113.847,85.014C113.834,80.952 113.833,76.936 113.834,72.96C113.835,71.254 114.077,70.27 115.944,70.27C140.46,70.272 154.712,70.275 158.699,70.274C159.96,70.273 160.559,70.815 160.623,72.137C160.701,73.737 160.662,75.376 160.502,77.058C161.118,78.066 161.492,78.725 161.624,79.042C162.395,80.892 162.878,82.847 163.074,84.903C163.676,85.22 164.514,85.463 165.579,85.623C167.239,84.928 168.775,84.535 170.19,84.444C171.54,84.356 173.057,84.658 174.739,85.349C176.364,86.015 177.583,87.162 178.395,88.79C185.418,90.629 192.472,92.41 199.555,94.138C201.907,94.712 204.177,94.908 206.364,94.719C206.97,94.667 207.597,94.498 208.188,94.199C216.96,89.762 225.134,86.068 232.627,82.049C232.972,81.86 233.421,81.893 233.973,82.145C235.629,82.9 238.492,84.346 242.557,86.489C247.061,88.863 251.664,91.181 256.367,93.433ZM249.33,73.267C249.33,72.579 248.77,72.02 248.083,72.02L202.669,72.02C201.982,72.02 201.422,72.579 201.422,73.267L201.422,73.288C201.422,73.976 201.982,74.535 202.669,74.535L248.083,74.535C248.77,74.535 249.33,73.976 249.33,73.288L249.33,73.267Z" style="fill:white;fill-opacity:0.5;"/>
    <path d="M118.11,171.732C118.081,171.686 118.06,171.633 118.049,171.565C118.031,171.469 117.95,171.397 117.85,171.394C101.385,171.365 90.362,171.362 84.771,171.383C81.13,171.397 78.493,169.049 78.073,165.486C78.02,165.02 77.991,163.783 77.991,161.77C78.002,130.79 78.005,99.796 78.009,68.784L81.283,68.784L81.287,79.555L79.398,79.559C79.341,79.559 79.295,79.605 79.295,79.662L79.295,81.736C79.295,81.789 79.341,81.835 79.395,81.835L81.308,81.853C81.244,82.883 81.212,84.967 81.212,88.099C81.212,130.495 81.208,154.277 81.198,159.447C81.19,163.53 82.219,167.123 86.731,167.97C87.743,168.16 89.82,168.246 92.963,168.223C93.835,168.216 103.637,168.196 122.36,168.187C122.745,168.187 123.11,168.263 123.447,168.422C123.551,168.471 123.586,168.579 123.547,168.739C121.445,169.395 119.631,170.393 118.11,171.732Z" style="fill:white;fill-opacity:0.15;"/>
    <path d="M115.976,80.628C115.217,81.301 114.771,81.964 114.647,82.616C114.566,83.036 114.361,83.96 113.847,85.014C113.834,80.952 113.833,76.936 113.834,72.96C113.835,71.254 114.077,70.27 115.944,70.27C140.46,70.272 154.712,70.275 158.699,70.274C159.96,70.273 160.559,70.815 160.623,72.137C160.701,73.737 160.662,75.376 160.502,77.058L158.592,75.223L158.56,72.682C158.556,72.565 158.46,72.468 158.343,72.468L116.293,72.468C116.14,72.468 116.015,72.593 116.011,72.746L115.976,80.628Z" style="fill:white;fill-opacity:0.75;"/>
    <path d="M249.33,73.267C249.33,72.579 248.77,72.02 248.083,72.02L202.669,72.02C201.982,72.02 201.422,72.579 201.422,73.267L201.422,73.288C201.422,73.976 201.982,74.535 202.669,74.535L248.083,74.535C248.77,74.535 249.33,73.976 249.33,73.288L249.33,73.267Z" style="fill:white;fill-opacity:0.75;"/>
    <path d="M158.592,75.223C157.035,74.485 155.891,74.08 155.161,74.004C152.603,73.739 150.185,74.128 147.903,75.173C147.038,75.569 145.958,76.214 144.672,77.1C144.397,77.289 143.884,77.295 143.132,77.115C143.015,77.086 142.912,77.022 142.837,76.926C139.759,72.978 134.628,71.883 130.37,74.642C129.618,75.129 129.08,75.661 128.749,76.242C128.186,77.229 127.531,78.095 126.789,78.85C126.503,79.141 126.137,79.34 125.735,79.416C124.497,79.651 123.326,79.733 122.211,79.651C120.828,79.551 119.948,79.62 118.498,79.591C117.896,79.579 117.055,79.926 115.976,80.628L116.011,72.746C116.015,72.593 116.14,72.468 116.293,72.468L158.343,72.468C158.46,72.468 158.556,72.565 158.56,72.682L158.592,75.223Z" style="fill:white;fill-opacity:0.5;"/>
    <path d="M114.647,82.616C114.771,81.964 115.217,81.301 115.976,80.628C117.055,79.926 117.896,79.579 118.498,79.591C119.948,79.62 120.828,79.551 122.211,79.651C123.326,79.733 124.497,79.651 125.735,79.416C126.137,79.34 126.503,79.141 126.789,78.85C127.531,78.095 128.186,77.229 128.749,76.242C129.08,75.661 129.618,75.129 130.37,74.642C134.628,71.883 139.759,72.978 142.837,76.926C142.912,77.022 143.015,77.086 143.132,77.115C143.884,77.295 144.397,77.289 144.672,77.1C145.958,76.214 147.038,75.569 147.903,75.173C150.185,74.128 152.603,73.739 155.161,74.004C155.891,74.08 157.035,74.485 158.592,75.223L160.502,77.058C161.118,78.066 161.492,78.725 161.624,79.042C162.395,80.892 162.878,82.847 163.074,84.903L163.192,86.364C163.21,86.581 163.43,86.727 163.637,86.656C164.367,86.408 165.016,86.068 165.579,85.623C167.239,84.928 168.775,84.535 170.19,84.444C171.54,84.356 173.057,84.658 174.739,85.349C176.364,86.015 177.583,87.162 178.395,88.79L178.986,91.986C179.019,92.161 179.015,92.339 178.976,92.507L177.978,96.803C177.554,98.895 176.751,100.783 175.545,102.447C175.428,102.608 175.555,102.832 175.755,102.814C177.75,102.636 179.332,103.352 180.501,104.963C181.634,106.523 182.271,108.629 182.418,111.276L182.247,114.746C181.872,115.277 181.353,115.64 180.679,115.833C180.426,115.906 180.387,116.247 180.615,116.375C181.879,117.085 182.652,118.139 182.941,119.539C183.172,120.657 183.163,121.73 182.916,122.756C182.674,123.764 182.288,124.769 181.758,125.763C180.777,127.604 179.229,128.928 177.084,129.625C177.038,129.64 176.991,129.647 176.945,129.647L175.242,129.647C175.153,129.647 175.067,129.622 174.992,129.579L174.533,129.315C174.422,129.248 174.276,129.273 174.191,129.369C173.909,129.686 173.836,130.021 173.984,130.366C174.03,130.474 174.052,130.591 174.048,130.708C173.999,132.451 173.292,133.679 171.914,134.389C171.162,134.777 170.222,134.963 169.096,134.945C167.966,134.927 167.024,134.762 166.281,134.45C166.138,134.39 165.977,134.46 165.918,134.603C165.754,134.997 165.714,135.565 165.782,136.302C165.979,138.419 164.991,140.063 162.807,140.467C161.699,140.673 161.04,140.748 160.833,140.692C160.135,140.501 159.518,140.496 158.988,140.674L157.637,140.165L157.103,139.908C156.323,139.231 155.254,138.55 154.666,137.888C153.395,136.458 152.539,134.92 152.108,133.27C151.535,131.082 153.787,129.801 154.698,128.742C157.324,125.688 158.034,120.266 153.233,118.708C152.122,118.348 150.9,118.131 149.564,118.06C144.95,117.814 141.087,116.952 140.4,111.932C140.179,110.318 140.044,109.046 139.997,108.109C139.81,104.35 138.437,101.627 134.36,101.154C132.518,100.94 130.883,101.207 129.454,101.959C128.499,102.226 127.726,102.582 127.131,103.024C126.436,103.541 124.879,104.741 122.457,106.626C120.978,107.777 119.991,108.461 119.496,108.672C118.088,109.272 116.688,109.445 115.292,109.188C115.281,108.935 115.046,108.717 114.583,108.54C114.479,108.5 114.369,108.475 114.258,108.469C112.791,108.38 111.365,108.183 109.983,107.863C108.722,107.57 107.539,106.746 107.093,105.508C107.023,105.312 106.903,105.049 106.744,104.717C106.672,104.567 106.631,104.407 106.626,104.243C106.6,103.284 106.171,102.489 105.355,101.859C104.657,101.321 103.63,100.739 102.7,100.491C101.171,100.084 100.006,99.49 99.205,98.713C97.729,97.282 96.982,95.467 96.96,93.269C96.957,93.212 97.463,90.95 97.488,90.91C98.278,89.642 99.511,89.075 101.182,89.214L103.733,89.863C110.013,90.367 112.7,87.366 113.847,85.014C114.361,83.96 114.566,83.036 114.647,82.616Z" style="fill:white;fill-opacity:0.05;"/>
    <path d="M177.978,96.803L255.957,96.928C256.235,96.928 256.459,96.697 256.452,96.419L256.367,93.433C251.664,91.181 247.061,88.863 242.557,86.489C238.492,84.346 235.629,82.9 233.973,82.145C233.421,81.893 232.972,81.86 232.627,82.049C225.134,86.068 216.96,89.762 208.188,94.199C207.597,94.498 206.97,94.667 206.364,94.719C204.177,94.908 201.907,94.712 199.555,94.138C192.472,92.41 185.418,90.629 178.395,88.79L178.986,91.986C179.019,92.161 179.015,92.339 178.976,92.507L177.978,96.803Z" style="fill:white;fill-opacity:0.2;"/>
    <path d="M163.074,84.903L163.192,86.364C163.21,86.581 163.43,86.727 163.637,86.656C164.367,86.408 165.016,86.068 165.579,85.623C164.514,85.463 163.676,85.22 163.074,84.903Z" style="fill:white;fill-opacity:0.2;"/>
    <path d="M41.303,167.721L41.107,167.72L33.101,167.813L33.215,92.214C33.215,92.061 33.337,91.94 33.486,91.94C43.103,91.936 54.825,91.936 68.649,91.936C69.187,91.936 69.454,92.172 69.454,92.642C69.451,119.97 69.436,144.137 69.404,165.148C69.401,166.017 69.419,166.897 69.458,167.792L69.02,167.888L63.048,167.781L62.674,167.78L62.674,165.679C62.674,165.512 62.539,165.377 62.371,165.377L41.606,165.377C41.439,165.377 41.303,165.512 41.303,165.679L41.303,167.721ZM62.674,135.704C62.674,135.536 62.539,135.401 62.371,135.401L41.606,135.401C41.439,135.401 41.303,135.536 41.303,135.704L41.303,156.469C41.303,156.636 41.439,156.771 41.606,156.771L62.371,156.771C62.539,156.771 62.674,156.636 62.674,156.469L62.674,135.704ZM62.67,103.641C62.67,103.473 62.531,103.334 62.364,103.334L41.606,103.334C41.439,103.334 41.3,103.473 41.3,103.641L41.3,124.398C41.3,124.566 41.439,124.705 41.606,124.705L62.364,124.705C62.531,124.705 62.67,124.566 62.67,124.398L62.67,103.641Z" style="fill:white;fill-opacity:0.25;"/>
    <path d="M129.686,154.655L133.071,154.174C133.163,154.16 133.256,154.171 133.341,154.203L133.655,154.324C134.792,154.003 135.914,153.714 137.026,153.461C138.711,153.079 139.833,152.787 140.385,152.585C142.386,151.854 144.169,150.953 145.726,149.866C146.303,149.464 147.398,148.521 149.011,147.03C150.306,145.834 151.377,144.864 152.225,144.127C153.839,142.723 155.464,141.315 157.103,139.908C156.323,139.231 155.254,138.55 154.666,137.888C153.395,136.458 152.539,134.92 152.108,133.27C151.535,131.082 153.787,129.801 154.698,128.742C157.324,125.688 158.034,120.266 153.233,118.708C152.122,118.348 150.9,118.131 149.564,118.06C144.95,117.814 141.087,116.952 140.4,111.932C140.179,110.318 140.044,109.046 139.997,108.109C139.81,104.35 138.437,101.627 134.36,101.154C132.518,100.94 130.883,101.207 129.454,101.959C129.109,102.24 128.889,102.512 128.795,102.771C128.683,103.082 128.617,103.249 128.606,103.274C127.007,106.056 125.581,108.927 124.334,111.885C124.259,112.063 124.109,112.284 123.885,112.552C123.639,112.847 123.554,113.093 123.629,113.289C125.881,112.698 129.745,112.9 130.833,115.16C131.358,116.25 130.306,117.157 129.344,117.372C127.168,117.86 123.971,117.739 122.165,116.211C122.075,116.318 122.054,116.514 122.104,116.795C122.136,116.973 122.118,117.159 122.054,117.33C120.476,121.55 119.631,125.943 119.396,130.498C119.387,130.676 119.472,131.079 119.649,131.706C120.276,133.925 123.18,131.574 124.512,132.137C126.992,133.185 126.522,137.261 126.094,139.249C126.05,139.456 125.96,139.649 125.831,139.815C125.63,140.074 125.503,140.307 125.45,140.524C126.754,140.3 127.95,140.081 129.045,139.872C129.761,139.736 130.274,139.993 130.58,140.638C132.114,143.873 128.115,145.416 125.531,145.655C125.521,147.205 125.733,148.512 126.162,149.578C126.867,151.33 128.04,153.023 129.686,154.655ZM124.875,120.117C124.263,120.159 123.839,121.302 123.927,122.678C124.017,124.053 124.584,125.136 125.197,125.095C125.809,125.054 126.233,123.91 126.146,122.535C126.055,121.16 125.489,120.077 124.875,120.117Z" style="fill:white;fill-opacity:0.95;"/>
    <path d="M62.67,103.641C62.67,103.473 62.531,103.334 62.364,103.334L41.606,103.334C41.439,103.334 41.3,103.473 41.3,103.641L41.3,124.398C41.3,124.566 41.439,124.705 41.606,124.705L62.364,124.705C62.531,124.705 62.67,124.566 62.67,124.398L62.67,103.641Z" style="fill:white;fill-opacity:0.5;"/>
    <path d="M272.631,128.813C273.517,125.152 274.604,122.125 275.733,119.649C276.779,117.357 277.862,115.537 278.856,114.124C280.197,112.22 281.376,111.055 282.088,110.471C284.501,107.76 289.017,108.291 290.193,109.584C290.696,110.136 290.998,110.856 291.109,111.746C291.43,114.347 291.429,116.487 291.348,118.178C291.071,123.97 289.004,129.117 284.138,136.816C283.663,137.567 283.162,138.343 282.633,139.146C281.611,140.696 280.883,141.761 280.655,142.477C280.174,143.977 279.772,145.762 279.989,147.305C280.071,147.871 281.173,152.24 281.953,154.054L281.956,154.06C282.554,155.453 283.292,156.704 284.172,157.815C286.805,161.143 290.025,163.501 293.582,165.397L293.701,165.465C295.947,166.801 295.44,167.94 293.758,171.625L293.703,171.747C293.711,171.701 241.559,151.552 241.559,151.552C241.773,150.094 242.286,148.94 243.098,148.092C243.201,147.985 243.299,147.874 243.402,147.768C243.62,147.548 243.889,147.33 244.301,147.212C244.574,147.133 244.91,147.099 245.336,147.137C245.49,147.151 245.656,147.174 245.836,147.209C246.018,147.243 246.213,147.289 246.422,147.347C247.991,147.783 249.494,147.989 250.901,148.071C251.311,148.096 253.039,148.203 254.272,148.195C254.835,148.192 255.743,148.099 256.997,147.918C262.698,147.091 268.279,144.35 270.647,138.953C271.031,138.077 271.349,136.748 271.595,134.97C271.937,132.515 272.235,130.452 272.631,128.813Z" style="fill:white;fill-opacity:0.85;"/>
    <path d="M290.193,109.584C291.569,109.865 292.905,110.325 294.198,110.97C297.095,112.416 298.754,123.9 286.976,142.359C285.457,144.74 284.77,147.444 285.084,150.575C285.177,151.495 286.78,156.134 287.111,156.707C288.864,159.729 291.198,162.422 294.113,164.785C294.248,164.895 297.7,167.229 298.064,167.403C299.122,167.913 299.731,168.547 299.884,169.309C300.023,169.99 300.038,170.589 299.924,171.098C299.735,171.971 299.432,172.855 299.019,173.752L293.703,171.747L293.758,171.625C295.44,167.94 295.947,166.801 293.701,165.465C293.662,165.442 293.623,165.419 293.582,165.397C290.025,163.501 286.805,161.143 284.172,157.815C283.292,156.704 282.554,155.453 281.956,154.06L281.953,154.054C281.173,152.24 280.071,147.871 279.989,147.305C279.772,145.762 280.174,143.977 280.655,142.477C280.883,141.761 281.611,140.696 282.633,139.146C283.162,138.343 283.663,137.567 284.138,136.816C289.004,129.117 291.071,123.97 291.348,118.178C291.429,116.487 291.43,114.347 291.109,111.746C290.998,110.856 290.696,110.136 290.193,109.584Z" style="fill:white;fill-opacity:0.25;"/>
    <path d="M182.247,114.746L247.826,114.746C248.268,114.746 248.628,114.387 248.628,113.945L248.628,112.042C248.628,111.618 248.282,111.276 247.858,111.276L182.418,111.276L182.247,114.746Z" style="fill:white;fill-opacity:0.15;"/>
    <path d="M123.629,113.289C123.037,113.478 122.554,113.782 122.179,114.198C121.631,114.805 121.627,115.473 122.165,116.211C123.971,117.739 127.168,117.86 129.344,117.372C130.306,117.157 131.358,116.25 130.833,115.16C129.745,112.9 125.881,112.698 123.629,113.289Z" style="fill:white;fill-opacity:0.15;"/>
    <path d="M114.55,113.346C114.55,113.346 114.42,114.522 114.342,116.465C111.998,116.373 109.662,116.345 107.325,116.382C106.142,116.4 105.543,116.948 105.526,118.028C105.466,121.819 105.472,129.821 105.54,142.039C105.415,141.992 105.244,142.05 105.034,142.213C103.92,143.078 102.743,143.931 101.514,144.782L101.535,113.685C101.535,113.499 101.685,113.35 101.87,113.35L114.55,113.346Z" style="fill:white;fill-opacity:0.5;"/>
    <path d="M114.342,116.465C114.317,117.067 114.298,117.744 114.289,118.483C114.234,118.51 114.165,118.525 114.084,118.527C111.999,118.577 109.937,118.584 107.891,118.573C107.792,118.573 107.713,118.651 107.713,118.751L107.724,140.157C107.649,140.457 107.657,140.72 107.745,140.952C107.785,141.055 107.884,141.123 107.995,141.119L117.315,141.077L117.875,143.289C114.223,143.207 110.574,143.181 106.922,143.207C106.366,143.211 105.907,142.823 105.54,142.039C105.472,129.821 105.466,121.819 105.526,118.028C105.543,116.948 106.142,116.4 107.325,116.382C109.662,116.345 111.998,116.373 114.342,116.465Z" style="fill:white;fill-opacity:0.75;"/>
    <path d="M114.289,118.483C114.242,122.487 114.504,128.303 115.947,133.983L107.724,140.157L107.713,118.751C107.713,118.651 107.792,118.573 107.891,118.573C109.937,118.584 111.999,118.577 114.084,118.527C114.165,118.525 114.234,118.51 114.289,118.483Z" style="fill:white;fill-opacity:0.5;"/>
    <path d="M124.875,120.117C124.263,120.159 123.839,121.302 123.927,122.678C124.017,124.053 124.584,125.136 125.197,125.095C125.809,125.054 126.233,123.91 126.146,122.535C126.055,121.16 125.489,120.077 124.875,120.117Z" style="fill:white;fill-opacity:0.15;"/>
    <path d="M114.746,122.656L114.747,122.68C114.805,122.678 114.804,122.671 114.746,122.656Z" style="fill:white;fill-opacity:0.95;"/>
    <path d="M117.315,141.077L115.947,133.983L107.724,140.157C107.649,140.457 107.657,140.72 107.745,140.952C107.785,141.055 107.884,141.123 107.995,141.119L117.315,141.077Z" style="fill:white;fill-opacity:0.15;"/>
    <path d="M62.674,135.704C62.674,135.536 62.539,135.401 62.371,135.401L41.606,135.401C41.439,135.401 41.303,135.536 41.303,135.704L41.303,156.469C41.303,156.636 41.439,156.771 41.606,156.771L62.371,156.771C62.539,156.771 62.674,156.636 62.674,156.469L62.674,135.704Z" style="fill:white;fill-opacity:0.85;"/>
    <path d="M62.674,167.78L62.674,165.679C62.674,165.512 62.539,165.377 62.371,165.377L41.606,165.377C41.439,165.377 41.303,165.512 41.303,165.679L41.303,167.721L62.674,167.78Z" style="fill:white;fill-opacity:0.5;"/>
    <path d="M125.45,140.524C124.217,140.874 122.859,141.095 121.377,141.187C120.629,141.234 119.966,141.126 119.389,140.866C119.214,140.788 119.004,140.856 118.908,141.023C118.257,142.153 118.282,143.173 118.993,144.08C119.086,144.198 119.201,144.293 119.336,144.362C121.355,145.389 123.415,145.833 125.531,145.655C128.115,145.416 132.114,143.873 130.58,140.638C130.274,139.993 129.761,139.736 129.045,139.872C127.95,140.081 126.754,140.3 125.45,140.524Z" style="fill:white;fill-opacity:0.15;"/>
    <path d="M248.564,140.25C248.564,139.99 248.35,139.776 248.09,139.776L167.845,139.776C167.585,139.776 167.371,139.99 167.371,140.25L167.371,142.78C167.371,143.04 167.585,143.254 167.845,143.254L248.09,143.254C248.35,143.254 248.564,143.04 248.564,142.78L248.564,140.25Z" style="fill:white;fill-opacity:0.15;"/>
    <path d="M157.637,140.165C156.682,141.184 155.727,142.188 154.776,143.175C153.654,144.34 152.752,145.366 152.072,146.261C151.241,147.354 150.426,148.456 149.621,149.567C147.088,153.063 144.801,156.088 142.762,158.649C141.882,159.754 140.489,161.856 138.575,164.956C137.938,160.769 136.299,157.228 133.655,154.324C134.792,154.003 135.914,153.714 137.026,153.461C138.711,153.079 139.833,152.787 140.385,152.585C142.386,151.854 144.169,150.953 145.726,149.866C146.303,149.464 147.398,148.521 149.011,147.03C150.306,145.834 151.377,144.864 152.225,144.127C153.839,142.723 155.464,141.315 157.103,139.908L157.637,140.165Z" style="fill:white;fill-opacity:0.75;"/>
    <path d="M109.031,190.99C110.674,187.085 112.299,183.248 113.909,179.475C115.124,176.635 115.527,173.785 118.11,171.732C119.631,170.393 121.445,169.395 123.547,168.739L138.308,165.775C138.415,165.75 138.494,165.665 138.508,165.554L138.575,164.956C140.489,161.856 141.882,159.754 142.762,158.649C144.801,156.088 147.088,153.063 149.621,149.567C150.426,148.456 151.241,147.354 152.072,146.261C152.752,145.366 153.654,144.34 154.776,143.175C155.727,142.188 156.682,141.184 157.637,140.165L158.988,140.674C158.214,143.061 158.025,145.438 158.421,147.8C159.375,153.497 164.467,157.052 169.053,160.01C169.302,160.171 169.602,160.239 169.897,160.195C172.039,159.882 174.369,159.732 176.888,159.75C179.446,159.768 181.43,159.908 182.845,160.156C183.155,160.211 183.458,160.299 183.747,160.423C187.868,162.193 191.307,164.728 194.051,168.059L195.219,171.401C195.957,174.497 196.31,177.579 196.277,180.647C196.267,181.609 196.203,182.382 196.078,182.963C195.864,183.989 195.957,184.912 195.775,186.041C195.622,186.992 195.515,187.947 195.447,188.906C192.729,202.285 187.855,214.808 180.832,226.477C179.453,228.768 177.94,230.903 176.289,232.887C175.702,233.593 174.955,233.873 174.048,233.703C173.959,233.686 173.877,233.656 173.799,233.614L169.331,231.162C167.845,230.083 166.373,228.975 164.913,227.838C163.238,226.534 162.036,225.324 160.434,224.001C160.071,223.701 158.63,222.267 156.116,219.697C155.374,218.938 154.848,218.104 154.096,217.374C153.725,217.014 153.201,216.416 152.524,215.571C150.827,213.452 149.355,211.59 148.103,209.991C147.804,209.61 147.287,209.474 146.838,209.663C145.548,210.207 144.077,211.054 142.427,212.204C142.345,212.261 142.231,212.243 142.17,212.165C141.725,211.588 141.112,210.986 140.325,210.358C138.902,209.223 137.446,208.121 135.953,207.059C131.356,203.786 126.433,200.57 121.178,197.421C117.241,195.062 113.193,192.918 109.031,190.99Z" style="fill:white;fill-opacity:0.95;"/>
    <path d="M101.514,144.782L98.973,146.785C98.446,147.201 98.335,147.957 98.717,148.509L98.784,148.605C99.18,149.182 99.974,149.318 100.537,148.904L101.71,148.046C101.859,147.939 102.052,147.914 102.226,147.982L102.672,148.16C102.8,148.213 102.939,148.238 103.078,148.238L119.97,148.188C119.036,146.467 118.206,145.32 117.875,143.289C114.223,143.207 110.574,143.181 106.922,143.207C106.366,143.211 105.907,142.823 105.54,142.039C105.415,141.992 105.244,142.05 105.034,142.213C103.92,143.078 102.743,143.931 101.514,144.782Z" style="fill:white;fill-opacity:0.15;"/>
    <path d="M293.73,171.757L288.665,184.88L287.909,184.587L236.606,164.809C236.514,164.774 236.468,164.671 236.503,164.581L241.559,151.552C241.559,151.552 293.728,171.707 293.703,171.747L293.73,171.757Z" style="fill:white;fill-opacity:0.65;"/>
    <path d="M82.53,209.204C83.045,212.379 83.437,214.83 83.524,215.475C83.71,216.839 83.553,218.175 83.05,219.476C81.953,221.756 79.53,222.312 77.164,221.824C78.176,221.446 79.022,220.976 79.705,220.427C79.843,220.316 79.953,220.174 80.025,220.014C80.736,218.439 80.985,216.9 80.745,215.386C78.64,202.077 76.433,188.956 74.157,176.019C73.818,174.091 73.563,172.537 72.468,170.973C71.603,169.737 70.452,168.707 69.02,167.888L69.458,167.792C72.711,168.045 74.938,169.652 76.138,172.619C76.512,173.542 76.83,174.811 77.093,176.428C77.774,180.625 78.483,184.826 79.213,189.027C79.341,189.629 79.455,190.249 79.559,190.887C80.178,194.811 81.568,203.272 82.53,209.204Z" style="fill:white;fill-opacity:0.5;"/>
    <path d="M233.232,171.412L195.219,171.401L194.051,168.059C194.97,168.198 195.953,168.265 197.004,168.262C209.621,168.223 222.255,168.194 234.914,168.187C235.032,168.187 235.103,168.315 235.042,168.419L233.232,171.412Z" style="fill:white;fill-opacity:0.15;"/>
    <path d="M299.019,173.752L293.913,186.946L288.665,184.88L293.73,171.757L299.019,173.752Z" style="fill:white;fill-opacity:0.5;"/>
    <path d="M227.2,215.738C226.862,215.364 226.612,214.865 226.456,214.245C226.409,214.057 226.427,213.861 226.502,213.682L227.728,210.825C227.774,210.711 227.724,210.579 227.61,210.533C227.115,210.323 226.459,210.187 225.65,210.12C223.78,209.966 221.916,209.799 220.064,209.624C220.83,209.585 221.317,209.471 221.525,209.282C226.107,205.116 229.834,199.784 233.165,194.268C235.895,189.747 237.27,187.263 239.532,184.188C239.571,184.135 239.643,184.12 239.699,184.156C239.753,184.191 239.774,184.263 239.745,184.32C237.794,188.272 235.885,192.494 234.34,196.798C232.283,202.531 230.715,206.946 228.027,213.971C227.991,214.064 227.948,214.152 227.895,214.238C227.563,214.777 227.336,215.279 227.2,215.738Z" style="fill:white;fill-opacity:0.15;"/>
    <path d="M293.913,186.946C293.493,187.634 293.225,188.353 293.108,189.102C293.008,189.739 292.855,190.324 292.652,190.848C292.092,192.287 291.604,193.883 290.517,197.307C289.78,199.637 288.337,203.147 286.192,207.832C285.583,209.165 285.244,209.895 285.184,210.02C284.521,211.363 284.172,212.083 284.14,212.179C283.727,213.351 283.039,214.317 282.469,215.624C281.136,218.699 279.433,221.532 277.36,224.122C276.54,225.144 275.713,225.992 274.883,226.669C274.509,226.976 274.042,227.154 273.558,227.175C272.4,227.236 271.167,227.311 269.859,227.403C266.628,227.635 263.371,227.286 260.086,226.352C259.62,226.22 259.11,226.064 258.558,225.882C259.655,224.924 260.709,223.997 261.722,223.096C266.202,219.11 269.837,214.205 273.266,209.304C273.316,209.232 273.426,209.286 273.405,209.368L271.637,216.932C271.573,217.21 271.937,217.37 272.101,217.139C273.285,215.461 274.16,214.096 274.734,213.048C278.239,206.64 281.311,199.983 283.958,193.081C284.275,192.255 284.47,191.773 284.539,191.638C285.715,189.319 286.851,186.975 287.909,184.587L288.665,184.88L293.913,186.946Z" style="fill:white;fill-opacity:0.15;"/>
    <path d="M31.054,187.879C28.933,190.584 29.767,194.781 32.916,197.249C36.066,199.719 40.338,199.527 42.46,196.823C44.581,194.118 43.748,189.921 40.598,187.453C37.448,184.983 33.176,185.175 31.054,187.879Z" style="fill:white;fill-opacity:0.95;"/>
    <path d="M131.186,238.459C128.709,235.606 126.38,232.708 124.203,229.773C120.078,224.213 115.628,218.025 110.856,211.21C108.597,207.985 106.32,205.117 104.026,202.602C103.673,202.114 103.199,201.682 102.607,201.308C102.476,201.226 102.308,201.216 102.162,201.283C99.565,202.491 96.811,203.15 93.896,203.257C92.781,203.3 90.155,202.89 90.084,203.004L88.466,205.62C88.448,205.648 88.438,205.677 88.427,205.709L87.835,207.807C87.707,208.26 87.365,208.62 86.916,208.766C85.659,209.175 84.283,209.432 82.787,209.535C82.677,209.502 82.591,209.392 82.53,209.204C81.568,203.272 80.178,194.811 79.559,190.887C79.455,190.249 79.341,189.629 79.213,189.027L82.527,186.982C82.776,186.829 83.061,186.729 83.357,186.693C85.63,186.415 88.188,186.052 90.444,186.119C94.131,186.23 97.687,186.825 101.115,187.905C103.822,188.756 106.463,189.786 109.031,190.99C113.193,192.918 117.241,195.062 121.178,197.421C126.433,200.57 131.356,203.786 135.953,207.059C137.446,208.121 138.902,209.223 140.325,210.358C141.112,210.986 141.725,211.588 142.17,212.165C142.231,212.243 142.345,212.261 142.427,212.204C144.077,211.054 145.548,210.207 146.838,209.663C147.287,209.474 147.804,209.61 148.103,209.991C149.355,211.59 150.827,213.452 152.524,215.571C153.201,216.416 153.725,217.014 154.096,217.374C154.848,218.104 155.374,218.938 156.116,219.697C158.63,222.267 160.071,223.701 160.434,224.001C162.036,225.324 163.238,226.534 164.913,227.838C166.373,228.975 167.845,230.083 169.331,231.162C167,233.1 164.953,234.853 163.141,236.431L163.118,236.451C151.266,246.771 149.438,249.584 143.546,247.563C140.105,246.382 137.261,244.324 134.524,241.88C133.423,240.896 132.312,239.756 131.186,238.459Z" style="fill:white;fill-opacity:0.75;"/>
    <path d="M195.447,188.906C195.668,191.681 195.811,194.45 195.871,197.215C196.238,213.693 195.191,229.905 192.725,245.849C191.681,252.597 190.228,259.602 188.371,266.86L160.292,266.852C161.888,258.583 162.9,250.274 163.331,241.93C163.333,241.896 163.334,241.858 163.335,241.815C163.359,240.885 163.222,237.763 163.141,236.431C164.953,234.853 167,233.1 169.331,231.162L173.799,233.614C173.877,233.656 173.959,233.686 174.048,233.703C174.955,233.873 175.702,233.593 176.289,232.887C177.94,230.903 179.453,228.768 180.832,226.477C187.855,214.808 192.729,202.285 195.447,188.906Z" style="fill:white;fill-opacity:0.5;"/>
    <path d="M246.248,221.468C244.994,221.421 243.629,221.175 242.15,220.737C244.473,216.693 246.597,212.521 248.525,208.228C251.992,200.503 253.912,196.267 254.286,195.519C254.853,194.382 255.36,193.484 255.832,192.843C255.864,192.8 255.922,192.785 255.971,192.811C256.018,192.835 256.042,192.893 256.025,192.943C255.292,195.043 254.684,197.236 254.147,199.502C253.508,202.199 252.717,204.965 251.77,207.796C251.067,209.903 249.223,214.459 246.248,221.468Z" style="fill:white;fill-opacity:0.15;"/>
    <path d="M255.358,222.568L255.344,221.745C255.34,221.649 255.262,221.571 255.166,221.567L251.065,221.514C253.559,218.161 255.789,214.637 257.753,210.943C259.573,207.518 261.161,204.564 262.52,202.074C263.467,200.339 264.377,199.022 265.249,198.12C265.449,197.913 265.794,198.105 265.719,198.383C265.292,199.969 264.376,202.199 262.905,205.933C261.505,209.485 258.989,215.033 255.358,222.568Z" style="fill:white;fill-opacity:0.15;"/>
    <path d="M104.792,218.121C103.501,215.821 102.464,213.491 101.56,211.146C101.503,211.028 101.482,210.9 101.496,210.772C101.788,208.174 102.857,205.391 104.026,202.602C106.32,205.117 108.597,207.985 110.856,211.21C115.628,218.025 120.078,224.213 124.203,229.773C126.38,232.708 128.709,235.606 131.186,238.459C132.312,239.756 133.423,240.896 134.524,241.88C137.261,244.324 140.105,246.382 143.546,247.563C149.438,249.584 151.266,246.771 163.118,236.451L163.141,236.431C163.222,237.763 163.359,240.885 163.335,241.815L163.331,241.93C162.9,250.274 161.888,258.583 160.292,266.852L113.777,266.785C114.187,261.715 114.326,256.498 114.194,251.14L113.06,225.291L113.998,225.162C115.007,225.027 115.947,224.671 116.817,224.09C118.042,223.274 118.336,221.761 116.941,220.887C116.08,220.347 112.591,219.576 110.92,219.551C109.121,219.522 105.547,219.415 105.547,219.415C105.286,218.985 105.034,218.554 104.792,218.121Z" style="fill:white;fill-opacity:0.95;"/>
    <path d="M237.743,216.604C235.791,217.085 233.731,217.253 231.568,217.103C233.699,214.662 235.783,212.011 237.818,209.158C238.626,208.024 239.318,207.209 239.899,206.71C240.077,206.557 240.241,206.464 240.387,206.435C240.64,206.386 240.864,206.589 240.797,206.81L237.743,216.604Z" style="fill:white;fill-opacity:0.15;"/>
    <path d="M105.547,219.415L103.762,219.458C104.039,218.948 104.383,218.5 104.792,218.121C105.034,218.554 105.286,218.985 105.547,219.415Z" style="fill:white;fill-opacity:0.95;"/>
    <path d="M44.66,225.527L43.846,225.527C33.87,225.516 25.816,225.509 23.314,225.508L22.505,225.508C20.585,225.608 11.585,225.861 12.575,221.884C14.51,221.966 16.427,222.009 18.319,222.006C37.587,221.97 56.856,221.979 76.128,221.991C76.52,221.992 76.865,221.934 77.164,221.824C79.53,222.312 81.953,221.756 83.05,219.476L103.762,219.458L105.547,219.415C107.332,219.476 109.121,219.522 110.92,219.551C112.591,219.576 116.08,220.347 116.941,220.887C118.336,221.761 118.042,223.274 116.817,224.09C115.947,224.671 115.007,225.027 113.998,225.162L113.06,225.291L112.952,225.306L111.971,225.437C111.315,225.519 110.635,225.558 109.929,225.554C106.295,225.533 102.675,225.54 99.066,225.586L56.1,225.539L44.66,225.527Z" style="fill:white;fill-opacity:0.25;"/>
    <path d="M113.06,225.291L114.194,251.14C111.397,254.101 108.372,256.691 105.126,258.903C103.659,259.908 102.315,260.66 100.569,260.354C95.264,259.42 90.315,258.098 85.726,256.384C75.91,252.722 66.711,248.001 58.056,242.546C53.563,239.713 49.601,237.273 46.167,235.221C45.009,234.526 43.894,233.97 42.828,233.549C42.661,233.482 42.486,233.435 42.305,233.403C38.816,232.801 35.186,232.438 31.416,232.31C29.93,232.26 28.883,232.106 28.274,231.846C26.339,231.024 23.862,226.537 23.314,225.508C25.816,225.509 33.87,225.516 43.846,225.527C44.118,225.528 44.389,225.528 44.66,225.527C48.293,225.531 52.163,225.535 56.1,225.539C57.48,226.339 59.06,227.218 60.529,227.525C66.525,228.775 71.898,229.534 76.648,229.801C78.558,229.908 80.05,230.2 81.707,230.165C82.356,230.147 83.624,230.207 85.509,230.343C88.334,230.546 91.37,230.614 94.619,230.542C94.862,230.539 95.086,230.428 95.239,230.243L99.066,225.586C102.675,225.54 106.295,225.533 109.929,225.554C110.635,225.558 111.315,225.519 111.971,225.437L112.952,225.306L113.06,225.291Z" style="fill:white;fill-opacity:0.75;"/>
    <path d="M188.371,266.86C216.533,266.863 244.616,266.863 272.624,266.86C278.225,266.856 280.801,269.357 280.933,274.887C281.001,277.841 280.944,279.925 280.755,281.14C280.327,283.93 278.279,286.281 275.45,286.751C275.158,286.801 274.103,286.826 272.286,286.826L19.209,286.826C16.156,286.826 14.043,285.312 12.871,282.287C12.675,281.785 12.529,280.591 12.433,278.713C12.322,276.547 12.383,274.595 12.614,272.86C13.224,268.313 16.644,266.824 20.738,266.838C26.517,266.856 57.49,266.867 113.66,266.874C113.674,266.874 113.688,266.87 113.699,266.86L113.777,266.785L160.292,266.852L188.371,266.86Z" style="fill:white;fill-opacity:0.85;"/>
    <path d="M12.575,221.884C10.42,221.147 8.841,219.825 7.844,217.922C7.266,216.821 6.853,215.514 6.604,214.007C4.68,202.317 2.624,190.067 0.433,177.258C-0.141,173.909 -0.796,169.769 3.158,168.187C3.864,167.906 4.968,167.77 6.472,167.774C15.361,167.806 24.24,167.817 33.101,167.813L41.107,167.72L63.048,167.781C63.194,167.784 63.339,167.787 63.485,167.789L69.02,167.888C70.452,168.707 71.603,169.737 72.468,170.973C73.563,172.537 73.818,174.091 74.157,176.019C76.433,188.956 78.64,202.077 80.745,215.386C80.985,216.9 80.736,218.439 80.025,220.014C79.953,220.174 79.843,220.316 79.705,220.427C79.022,220.976 78.176,221.446 77.164,221.824C76.865,221.934 76.52,221.992 76.128,221.991C56.856,221.979 37.587,221.97 18.319,222.006C16.427,222.009 14.51,221.966 12.575,221.884ZM31.054,187.879C28.933,190.584 29.767,194.781 32.916,197.249C36.066,199.719 40.338,199.527 42.46,196.823C44.581,194.118 43.748,189.921 40.598,187.453C37.448,184.983 33.176,185.175 31.054,187.879Z" style="fill:white;fill-opacity:0.75;"/>
    <path d="M114.62,126.246C114.869,128.727 115.283,131.369 115.947,133.983L117.315,141.077L117.875,143.289C118.206,145.32 119.036,146.467 119.97,148.188C120.743,149.934 121.873,151.452 123.358,152.745C125.072,154.238 127.181,154.872 129.686,154.655C128.04,153.023 126.867,151.33 126.162,149.578C125.733,148.512 125.521,147.205 125.531,145.655C123.415,145.833 121.355,145.389 119.336,144.362C119.201,144.293 119.086,144.198 118.993,144.08C118.282,143.173 118.257,142.153 118.908,141.023C119.004,140.856 119.214,140.788 119.389,140.866C119.966,141.126 120.629,141.234 121.377,141.187C122.859,141.095 124.217,140.874 125.45,140.524C125.503,140.307 125.63,140.074 125.831,139.815C125.96,139.649 126.05,139.456 126.094,139.249C126.522,137.261 126.992,133.185 124.512,132.137C123.18,131.574 120.276,133.925 119.649,131.706C119.472,131.079 119.387,130.676 119.396,130.498C119.631,125.943 120.476,121.55 122.054,117.33C122.118,117.159 122.136,116.973 122.104,116.795C122.054,116.514 122.075,116.318 122.165,116.211C121.627,115.473 121.631,114.805 122.179,114.198C122.554,113.782 123.037,113.478 123.629,113.289C123.554,113.093 123.639,112.847 123.885,112.552C124.109,112.284 124.259,112.063 124.334,111.885C125.581,108.927 127.007,106.056 128.606,103.274C128.617,103.249 128.683,103.082 128.795,102.771C128.889,102.512 129.109,102.24 129.454,101.959C128.499,102.226 127.726,102.582 127.131,103.024C126.436,103.541 124.879,104.741 122.457,106.626C120.978,107.777 119.991,108.461 119.496,108.672C118.088,109.272 116.688,109.445 115.292,109.188L114.55,113.346C114.55,113.346 114.461,114.15 114.386,115.528C115.102,115.198 115.811,115.054 116.441,115.209C117.422,115.45 117.184,116.702 116.623,117.502C116.033,118.344 115.212,119.268 114.288,120.058C114.297,120.992 114.325,121.996 114.379,123.051C114.527,122.674 114.745,122.435 115.001,122.417C115.532,122.382 116.022,123.319 116.1,124.509C116.176,125.7 115.809,126.689 115.28,126.725C115.04,126.741 114.809,126.559 114.62,126.246Z" style="fill:white;fill-opacity:0.75;"/>
    <path d="M114.386,115.528C114.323,116.681 114.27,118.236 114.288,120.058C115.212,119.268 116.033,118.344 116.623,117.502C117.184,116.702 117.422,115.45 116.441,115.209C115.811,115.054 115.102,115.198 114.386,115.528Z" style="fill:white;fill-opacity:0.15;"/>
    <path d="M114.379,123.051C114.432,124.073 114.51,125.144 114.62,126.246C114.809,126.559 115.04,126.741 115.28,126.725C115.809,126.689 116.176,125.7 116.1,124.509C116.022,123.319 115.532,122.382 115.001,122.417C114.745,122.435 114.527,122.674 114.379,123.051Z" style="fill:white;fill-opacity:0.15;"/>
</svg>
