<?xml version="1.0" encoding="UTF-8" standalone="no"?>
<!DOCTYPE svg PUBLIC "-//W3C//DTD SVG 1.1//EN" "http://www.w3.org/Graphics/SVG/1.1/DTD/svg11.dtd">
<svg width="100%" height="100%" viewBox="0 0 300 300" version="1.1" xmlns="http://www.w3.org/2000/svg" xmlns:xlink="http://www.w3.org/1999/xlink" xml:space="preserve" xmlns:serif="http://www.serif.com/" style="fill-rule:evenodd;clip-rule:evenodd;stroke-linejoin:round;stroke-miterlimit:2;">
    <path d="M78.028,198.211C49.417,198.21 28.796,198.21 25.592,198.212C23.711,198.216 22.446,198.046 21.799,197.71C20.664,197.116 20.095,196.034 20.095,194.465C20.088,125.252 20.084,64.062 20.088,10.893C20.088,9.132 20.675,7.916 21.848,7.248C22.679,6.771 23.86,6.587 25.384,6.693C25.578,6.707 115.833,6.711 296.149,6.703C297.842,6.703 298.973,7.319 299.55,8.545C299.9,9.291 300.045,10.638 299.988,12.593C299.977,12.968 299.977,73.063 299.985,192.881C299.985,194.783 299.818,195.985 299.483,196.49C298.425,198.085 297.17,198.216 295.085,198.216C271.774,198.22 157.651,198.214 85.461,198.211L89.583,193.377L294.911,193.372C295.042,193.372 295.148,193.266 295.148,193.135L295.148,11.727C295.148,11.625 295.067,11.543 294.964,11.543L25.111,11.543C25.012,11.543 24.931,11.625 24.931,11.724L24.931,193.195C24.931,193.298 25.012,193.379 25.115,193.379L82.329,193.378L78.028,198.211Z" style="fill:white;fill-opacity:0.3;"/>
    <path d="M82.329,193.378L25.115,193.379C25.012,193.379 24.931,193.298 24.931,193.195L24.931,11.724C24.931,11.625 25.012,11.543 25.111,11.543L294.964,11.543C295.067,11.543 295.148,11.625 295.148,11.727L295.148,193.135C295.148,193.266 295.042,193.372 294.911,193.372L89.583,193.377L157.914,113.256C160.781,109.609 158.692,107.44 155.55,111.094L82.329,193.378ZM230.79,94.829C231.797,96.326 232.968,97.514 234.299,98.39C237.555,100.533 242.178,100.317 245.683,98.926C247.148,98.348 249.032,97.535 251.335,96.496C251.906,96.237 252.502,96.134 253.13,96.187C253.403,96.209 253.648,96.368 253.775,96.61C254.801,98.525 256.067,101.679 258.717,101.622C259.736,101.601 260.775,101.264 261.836,100.611C262.042,100.487 263.276,99.657 265.543,98.128C266.824,97.262 267.863,96.766 268.669,96.638C269.715,96.471 270.716,96.773 271.674,97.543C272.663,98.337 273.675,99.206 274.707,100.15C274.93,100.356 275.285,100.285 275.399,100.015C275.427,99.944 275.431,99.841 275.413,99.71C275.072,97.369 274.171,95.031 272.06,93.878C269.403,92.43 266.228,93.505 263.933,95.091C261.137,97.021 259.739,97.99 259.736,97.993C259.274,98.302 258.866,98.401 258.515,98.284C258.387,98.241 258.274,98.16 258.196,98.05C257.721,97.372 257.22,96.571 256.699,95.648C255.046,92.721 252.431,92.817 249.71,94.087C247.89,94.935 246.464,95.577 245.428,96.006C242.437,97.248 238.779,97.787 235.991,96.102C234.121,94.974 232.869,93.197 232.237,90.77C232.202,90.632 232.188,90.486 232.191,90.344C232.23,89.198 232.216,88.499 232.149,88.255C231.556,86.044 228.959,86.449 229.013,88.62C229.023,88.993 229.027,89.688 229.023,90.713C229.023,90.933 228.988,91.153 228.917,91.362C228.026,94.023 226.586,96.017 224.596,97.344C222.829,98.522 220.555,98.493 218.753,97.181C217.22,96.063 216.138,94.495 215.506,92.469C215.464,92.345 215.471,92.207 215.521,92.086C216.67,89.284 217.419,86.403 217.77,83.44C217.965,81.784 217.734,79.563 215.702,79.315C213.218,79.009 211.962,83.966 211.806,85.704C211.533,88.709 211.796,91.309 212.59,93.505C212.693,93.793 212.612,94.211 212.342,94.761C211.593,96.29 210.926,97.429 210.341,98.174C210.132,98.444 210.21,98.848 210.515,99.054C211.54,99.749 213.239,96.847 213.523,96.177C213.587,96.024 213.796,96.01 213.885,96.148C216.095,99.583 219.749,102.002 223.985,100.654C226.735,99.781 229.03,97.369 230.442,94.846C230.517,94.712 230.705,94.701 230.79,94.829ZM215.441,82.843C215.592,82.866 215.531,84.076 215.308,85.546C215.084,87.017 214.786,88.191 214.635,88.168C214.485,88.145 214.545,86.935 214.768,85.464C214.992,83.994 215.29,82.82 215.441,82.843ZM142.349,99.448C144.631,101.406 148.416,102.098 151.431,101.7C156.299,101.065 160.663,98.745 165.09,96.382C165.704,96.053 166.332,95.882 166.974,95.865C167.421,95.854 167.847,96.038 168.145,96.368C169.511,97.887 170.209,98.664 170.245,98.699C171.976,100.416 173.959,101.239 176.223,99.849C177.667,98.962 178.88,97.713 179.863,96.102C179.987,95.9 180.271,95.875 180.43,96.053C182.392,98.291 184.794,99.519 187.632,99.735C189.654,99.888 191.386,99.277 192.23,97.44C192.439,96.986 192.074,96.482 191.577,96.535C190.481,96.656 188.572,96.897 187.409,96.705C184.762,96.273 183.613,94.981 181.615,93.012C180.959,92.366 180.175,92.21 179.256,92.547C178.766,92.728 178.323,93.243 178,93.569C177.904,93.665 177.823,93.771 177.752,93.888C177.021,95.12 175.151,97.894 173.498,97.457C172.43,97.177 171.089,95.311 170.344,94.506C168.684,92.704 166.25,92.721 164.175,93.786C158.715,96.585 153.965,99.512 148.267,98.767C146.937,98.593 145.794,98.046 144.552,97.355C144.379,97.259 144.333,97.028 144.457,96.876C146.358,94.495 148.703,89.635 147.27,86.566C145.936,83.714 142.945,83.827 140.948,85.899C138.074,88.883 137.876,93.413 139.944,96.886C140.019,97.01 139.99,97.17 139.877,97.259C139,97.936 137.666,98.703 136.595,98.536C134.087,98.149 132.565,94.14 132.004,91.944C131.38,89.489 130.901,86.509 130.571,83.004C130.511,82.387 129.932,81.954 129.322,82.071L129.276,82.078C128.62,82.202 128.148,82.781 128.155,83.448C128.198,88.666 128.964,94.736 131.891,98.898C132.763,100.136 134.115,101.026 135.949,101.576C136.152,101.637 136.361,101.665 136.574,101.661C138.557,101.622 140.384,100.885 142.055,99.448C142.14,99.377 142.264,99.377 142.349,99.448ZM142.442,94.484C142.353,94.609 142.161,94.577 142.119,94.431C141.466,92.072 141.846,90.011 143.261,88.241C143.481,87.967 143.69,87.797 143.893,87.737C144.191,87.645 144.503,87.857 144.549,88.184C144.833,90.195 143.485,92.994 142.442,94.484ZM58.407,91.441C53.178,92.051 48.896,95.95 47.523,100.945C47.487,101.076 47.466,101.207 47.463,101.342C47.381,104.212 48.719,105.731 51.479,105.901C51.624,105.912 51.766,105.905 51.904,105.88C53.937,105.55 55.743,104.624 57.322,103.102C58.553,101.913 59.606,100.555 60.479,99.026C61.196,97.77 61.668,96.563 61.898,95.407C61.937,95.201 62.147,95.077 62.345,95.134C66.166,96.258 69.575,98.688 73.084,100.406C76.369,102.013 79.974,102.751 83.184,100.711C83.309,100.633 83.461,100.611 83.607,100.654C83.798,100.711 84.366,100.899 85.313,101.218C90.947,103.105 96.538,101.268 102.118,99.313C103.818,98.72 105.177,98.373 106.202,98.27C107.277,98.163 108.075,98.199 108.604,98.376C109.632,98.72 110.871,99.302 112.315,100.118C113.226,100.633 115.195,101.271 115.937,100.242C116.008,100.147 115.969,100.012 115.862,99.966C115.238,99.689 114.656,98.646 114.092,98.139C111.115,95.46 107.639,94.712 103.658,95.889C103.208,96.024 100.799,96.769 96.424,98.124C92.894,99.221 89.364,99.292 85.827,98.337C85.714,98.305 85.664,98.174 85.728,98.078C87.491,95.403 87.474,91.533 84.611,89.489C81.737,87.442 78.143,89.543 77.913,92.941C77.778,94.946 78.498,96.705 80.073,98.224C80.222,98.366 80.151,98.618 79.952,98.664C77.554,99.253 74.031,97.418 71.999,96.163C69.92,94.875 67.933,93.786 66.038,92.895C64.811,92.317 63.314,92.001 62.242,91.614C62.147,91.579 62.086,91.494 62.083,91.394C61.998,88.929 60.018,86.598 57.918,85.608C53.593,83.575 48.261,84.505 44.309,87.002C43.408,87.57 42.301,88.762 42.421,89.883C42.475,90.383 42.663,90.678 42.993,90.763C43.454,90.884 43.943,90.692 44.216,90.288C44.703,89.574 45.256,89.074 45.87,88.794C49.563,87.105 56.758,86.176 58.503,91.288C58.528,91.359 58.482,91.43 58.407,91.441ZM57.804,95.013C57.928,94.974 58.038,95.098 57.989,95.215C56.821,98.068 54.686,100.775 51.748,101.889C51.493,101.984 51.237,101.743 51.319,101.481C52.316,98.312 54.643,96.006 57.804,95.013ZM83.021,96.475C82.954,96.578 82.812,96.599 82.716,96.521C81.616,95.627 81.056,94.573 81.034,93.363C81.024,92.636 81.35,92.129 82.014,91.849C82.131,91.802 82.258,91.802 82.372,91.849C84.313,92.625 83.958,95.034 83.021,96.475Z" style="fill:white;fill-opacity:0.15;"/>
    <path d="M23.053,270.7C22.862,272.247 23.472,274.602 25.289,278.064C27.389,282.066 29.768,285.08 32.994,288.533C33.643,289.227 34.503,289.977 35.573,290.775C36.514,291.477 37.421,292.191 38.3,292.912C33.11,293.544 27.884,293.47 22.625,292.691C20.278,292.344 18.278,291.812 16.62,291.101C14.293,290.101 11.367,289.033 9.53,287.601C5.835,284.722 3.293,280.29 1.766,275.816C-0.855,268.142 -0.955,260.768 4.198,254.068C5.851,251.92 7.914,249.688 10.388,247.367C12.658,245.238 23.676,235.967 30.573,231.42L32.247,229.961L35.285,234.075C34.029,232.522 31.344,232.372 28.94,233.197L28.908,233.192L28.878,233.219C26.759,233.962 24.869,235.464 24.386,237.428C24.372,237.453 24.368,237.469 24.374,237.477L24.372,237.483C24.159,237.95 24.032,238.638 24.193,239.621C24.214,239.749 24.239,239.883 24.278,240.025C24.844,242.072 25.778,243.746 27.02,245.057C27.011,245.117 27.014,245.194 27.028,245.285C27.163,247.034 28.996,250.104 29.226,250.383C27.731,249.815 25.72,248.157 24.146,248.752C23.193,249.113 22.435,249.574 21.871,250.137C21.268,250.739 20.888,251.456 20.73,252.289C20.73,252.289 19.868,255.18 22.538,260.553L11.816,273.083C9.925,276.716 14.653,281.093 16.423,279.408L23.053,270.7ZM26.305,266.428C26.562,266.759 26.83,267.095 27.11,267.437C27.268,267.63 27.241,267.916 27.078,268.105C26.225,268.071 25.447,268.153 24.805,268.398L26.305,266.428ZM38.204,225.322C39.026,224.759 40.174,223.874 40.49,223.65C45.327,220.208 48.148,218.208 48.953,217.655C52.053,215.513 54.901,214.113 58.18,213.907C58.627,213.877 60.929,214.128 61.003,217.343L50.085,229.612C48.819,228.961 47.332,228.201 46.048,227.546C44.269,226.636 43.069,226.029 42.995,225.992C41.731,225.365 40.607,225.373 39.778,226.424C39.213,226.022 38.641,225.62 38.204,225.322ZM25.062,271.621C24.998,271.195 25.187,270.768 25.541,270.521L25.552,270.524C25.203,270.868 25.013,271.277 25.062,271.621ZM25.9,274.447L25.895,274.461C25.512,273.54 25.236,272.604 25.068,271.653C25.246,272.598 25.522,273.53 25.9,274.447Z" style="fill:white;fill-opacity:0.75;"/>
    <path d="M58.075,230.322C59.708,231.793 62.029,234.626 63.243,236.44L56.783,233.089L56.043,232.705L58.075,230.322Z" style="fill:white;fill-opacity:0.75;"/>
    <path d="M50.079,229.619L155.55,111.094C158.692,107.44 160.781,109.609 157.914,113.256L56.043,232.705C54.105,231.701 52.011,230.617 50.079,229.619Z" style="fill:white;fill-opacity:0.5;"/>
    <path d="M34.405,241.804C33.215,243.593 31.874,245.057 29.926,246.136C31.721,245.036 33.215,243.593 34.405,241.804Z" style="fill:white;fill-opacity:0.95;"/>
    <path d="M24.372,237.483C24.372,237.481 24.373,237.479 24.374,237.477C24.376,237.48 24.378,237.482 24.379,237.484C24.377,237.484 24.374,237.483 24.372,237.483Z" style="fill:white;fill-opacity:0.95;"/>
    <path d="M39.778,226.424C40.607,225.373 41.731,225.365 42.995,225.992C43.113,226.051 46.07,227.548 49.68,229.413C51.965,230.594 54.516,231.914 56.783,233.089L63.243,236.44C65.233,238.009 67.312,239.667 69.481,241.409C70.639,242.341 71.728,244.104 72.749,246.704C73.723,249.178 73.586,251.673 72.349,254.189C71.081,256.773 69.191,258.126 66.67,258.257C66.517,258.263 66.412,258.421 66.465,258.563C67.212,260.694 67.496,262.065 67.496,262.689C67.496,269.216 58.993,273.711 56.575,272.032C56.378,271.895 56.222,271.827 56.064,271.863C55.885,271.906 55.78,272.084 55.827,272.263C56.506,274.89 57.158,278.064 55.843,281.101C54.983,283.086 53.207,284.238 50.937,284.238C49.755,284.238 48.895,283.733 48.895,283.733C48.685,283.664 48.469,283.822 48.464,284.043C48.432,285.454 48.022,287.059 47.237,288.854C46.621,290.27 45.574,291.449 44.095,292.401C42.153,293.654 40.411,293.012 38.3,292.912C37.421,292.191 36.514,291.477 35.573,290.775C34.503,289.977 33.643,289.227 32.994,288.533C29.768,285.08 27.389,282.066 25.289,278.064C21.071,270.026 23.356,267.956 27.078,268.105C27.241,267.916 27.268,267.63 27.11,267.437C19.12,257.686 20.73,252.289 20.73,252.289C21.88,254.868 22.821,257.47 25.436,259.884C25.549,259.988 25.695,260.049 25.841,259.989C28.442,258.922 30.187,257.18 31.115,254.868C31.242,254.552 31.205,254.189 31.01,253.904C31.01,253.904 25.72,248.157 24.146,248.752C25.72,248.157 27.731,249.815 29.226,250.383C28.986,250.091 26.994,246.75 27.02,245.057C28.965,247.305 29.647,246.309 29.914,246.143L29.926,246.136C31.874,245.057 33.215,243.593 34.405,241.804C34.589,241.53 34.61,241.183 34.463,240.888C33.411,238.774 31.721,237.124 29.442,235.84C28.294,235.194 26.016,235.84 25.055,236.643C25.055,236.643 24.652,236.87 24.374,237.477C25.363,233.236 32.899,231.126 35.285,234.075C35.339,234.145 35.391,234.215 35.442,234.288C36.708,236.002 37.467,235.861 38.579,235.264L38.642,235.23C40.826,233.851 42.152,232.04 42.621,229.798C42.763,229.119 42.511,228.419 41.963,227.992L41.82,227.889C41.491,227.651 40.642,227.038 39.778,226.424ZM25.552,270.524L25.541,270.521C25.187,270.768 24.998,271.195 25.062,271.621L25.068,271.653C25.483,273.995 26.547,276.243 28.252,278.406C28.857,279.174 29.469,279.212 30.289,278.574C31.68,277.492 33.102,276.357 33.658,274.774C33.72,274.595 33.684,274.395 33.563,274.243C31.966,272.235 30.929,271.384 28.768,270.169C27.481,269.445 26.223,269.865 25.552,270.524Z" style="fill:white;fill-opacity:0.95;"/>
    <path d="M27.02,245.057C25.778,243.746 24.862,242.067 24.278,240.025C24.24,239.883 24.212,239.749 24.193,239.621C24.021,238.64 24.159,237.95 24.372,237.483L24.379,237.484L24.374,237.477C24.652,236.87 25.055,236.643 25.055,236.643C26.016,235.84 28.294,235.194 29.442,235.84C31.721,237.124 33.415,238.772 34.463,240.888C34.61,241.183 34.589,241.53 34.405,241.804C33.215,243.593 31.721,245.036 29.926,246.136L29.914,246.143C29.647,246.309 28.965,247.305 27.02,245.057ZM21.871,250.137C22.435,249.574 23.193,249.113 24.146,248.752C25.72,248.157 31.01,253.904 31.01,253.904C31.205,254.189 31.242,254.552 31.115,254.868C30.187,257.18 28.426,258.884 25.841,259.989C25.694,260.047 25.549,259.988 25.436,259.884C22.821,257.47 21.88,254.868 20.73,252.289C20.888,251.456 21.268,250.739 21.871,250.137ZM33.563,274.243C33.684,274.395 33.72,274.595 33.658,274.774C33.102,276.357 31.68,277.492 30.289,278.574C29.469,279.212 28.857,279.174 28.252,278.406C26.547,276.243 25.508,273.991 25.068,271.653L25.062,271.621C25.013,271.277 25.203,270.868 25.552,270.524C26.223,269.865 27.481,269.445 28.768,270.169C30.929,271.384 31.963,272.237 33.563,274.243ZM35.442,234.288L32.247,229.961C30.786,226.278 35.384,223.637 37.556,224.899C37.686,224.974 37.916,225.126 38.204,225.322C39.309,226.075 41.276,227.495 41.82,227.889L41.963,227.992C42.511,228.419 42.763,229.119 42.621,229.798C42.153,232.04 40.826,233.851 38.642,235.23L38.579,235.264C37.467,235.861 36.708,236.002 35.442,234.288Z" style="fill:white;fill-opacity:0.5;"/>
    <path d="M22.538,260.553C23.388,262.264 24.597,264.227 26.305,266.428L24.805,268.398C23.854,268.76 23.204,269.478 23.053,270.7L16.423,279.408C14.653,281.093 9.925,276.716 11.816,273.083L22.538,260.553Z" style="fill:white;fill-opacity:0.5;"/>
    <path d="M230.79,94.829C230.705,94.701 230.517,94.712 230.442,94.846C229.03,97.369 226.735,99.781 223.985,100.654C219.749,102.002 216.095,99.583 213.885,96.148C213.796,96.01 213.587,96.024 213.523,96.177C213.239,96.847 211.54,99.749 210.515,99.054C210.21,98.848 210.132,98.444 210.341,98.174C210.926,97.429 211.593,96.29 212.342,94.761C212.612,94.211 212.693,93.793 212.59,93.505C211.796,91.309 211.533,88.709 211.806,85.704C211.962,83.966 213.218,79.009 215.702,79.315C217.734,79.563 217.965,81.784 217.77,83.44C217.419,86.403 216.67,89.284 215.521,92.086C215.471,92.207 215.464,92.345 215.506,92.469C216.138,94.495 217.22,96.063 218.753,97.181C220.555,98.493 222.829,98.522 224.596,97.344C226.586,96.017 228.026,94.023 228.917,91.362C228.988,91.153 229.023,90.933 229.023,90.713C229.027,89.688 229.023,88.993 229.013,88.62C228.959,86.449 231.556,86.044 232.149,88.255C232.216,88.499 232.23,89.198 232.191,90.344C232.188,90.486 232.202,90.632 232.237,90.77C232.869,93.197 234.121,94.974 235.991,96.102C238.779,97.787 242.437,97.248 245.428,96.006C246.464,95.577 247.89,94.935 249.71,94.087C252.431,92.817 255.046,92.721 256.699,95.648C257.22,96.571 257.721,97.372 258.196,98.05C258.274,98.16 258.387,98.241 258.515,98.284C258.866,98.401 259.274,98.302 259.736,97.993C259.739,97.99 261.137,97.021 263.933,95.091C266.228,93.505 269.403,92.43 272.06,93.878C274.171,95.031 275.072,97.369 275.413,99.71C275.431,99.841 275.427,99.944 275.399,100.015C275.285,100.285 274.93,100.356 274.707,100.15C273.675,99.206 272.663,98.337 271.674,97.543C270.716,96.773 269.715,96.471 268.669,96.638C267.863,96.766 266.824,97.262 265.543,98.128C263.276,99.657 262.042,100.487 261.836,100.611C260.775,101.264 259.736,101.601 258.717,101.622C256.067,101.679 254.801,98.525 253.775,96.61C253.648,96.368 253.403,96.209 253.13,96.187C252.502,96.134 251.906,96.237 251.335,96.496C249.032,97.535 247.148,98.348 245.683,98.926C242.178,100.317 237.555,100.533 234.299,98.39C232.968,97.514 231.797,96.326 230.79,94.829ZM215.441,82.843C215.29,82.82 214.992,83.994 214.768,85.464C214.545,86.935 214.485,88.145 214.635,88.168C214.786,88.191 215.084,87.017 215.308,85.546C215.531,84.076 215.592,82.866 215.441,82.843ZM142.349,99.448C142.264,99.377 142.14,99.377 142.055,99.448C140.384,100.885 138.557,101.622 136.574,101.661C136.361,101.665 136.152,101.637 135.949,101.576C134.115,101.026 132.763,100.136 131.891,98.898C128.964,94.736 128.198,88.666 128.155,83.448C128.148,82.781 128.62,82.202 129.276,82.078L129.322,82.071C129.932,81.954 130.511,82.387 130.571,83.004C130.901,86.509 131.38,89.489 132.004,91.944C132.565,94.14 134.087,98.149 136.595,98.536C137.666,98.703 139,97.936 139.877,97.259C139.99,97.17 140.019,97.01 139.944,96.886C137.876,93.413 138.074,88.883 140.948,85.899C142.945,83.827 145.936,83.714 147.27,86.566C148.703,89.635 146.358,94.495 144.457,96.876C144.333,97.028 144.379,97.259 144.552,97.355C145.794,98.046 146.937,98.593 148.267,98.767C153.965,99.512 158.715,96.585 164.175,93.786C166.25,92.721 168.684,92.704 170.344,94.506C171.089,95.311 172.43,97.177 173.498,97.457C175.151,97.894 177.021,95.12 177.752,93.888C177.823,93.771 177.904,93.665 178,93.569C178.323,93.243 178.766,92.728 179.256,92.547C180.175,92.21 180.959,92.366 181.615,93.012C183.613,94.981 184.762,96.273 187.409,96.705C188.572,96.897 190.481,96.656 191.577,96.535C192.074,96.482 192.439,96.986 192.23,97.44C191.386,99.277 189.654,99.888 187.632,99.735C184.794,99.519 182.392,98.291 180.43,96.053C180.271,95.875 179.987,95.9 179.863,96.102C178.88,97.713 177.667,98.962 176.223,99.849C173.959,101.239 171.976,100.416 170.245,98.699C170.209,98.664 169.511,97.887 168.145,96.368C167.847,96.038 167.421,95.854 166.974,95.865C166.332,95.882 165.704,96.053 165.09,96.382C160.663,98.745 156.299,101.065 151.431,101.7C148.416,102.098 144.631,101.406 142.349,99.448ZM142.442,94.484C143.485,92.994 144.833,90.195 144.549,88.184C144.503,87.857 144.191,87.645 143.893,87.737C143.69,87.797 143.481,87.967 143.261,88.241C141.846,90.011 141.466,92.072 142.119,94.431C142.161,94.577 142.353,94.609 142.442,94.484ZM58.407,91.441C58.482,91.43 58.528,91.359 58.503,91.288C56.758,86.176 49.563,87.105 45.87,88.794C45.256,89.074 44.703,89.574 44.216,90.288C43.943,90.692 43.454,90.884 42.993,90.763C42.663,90.678 42.475,90.383 42.421,89.883C42.301,88.762 43.408,87.57 44.309,87.002C48.261,84.505 53.593,83.575 57.918,85.608C60.018,86.598 61.998,88.929 62.083,91.394C62.086,91.494 62.147,91.579 62.242,91.614C63.314,92.001 64.811,92.317 66.038,92.895C67.933,93.786 69.92,94.875 71.999,96.163C74.031,97.418 77.554,99.253 79.952,98.664C80.151,98.618 80.222,98.366 80.073,98.224C78.498,96.705 77.778,94.946 77.913,92.941C78.143,89.543 81.737,87.442 84.611,89.489C87.474,91.533 87.491,95.403 85.728,98.078C85.664,98.174 85.714,98.305 85.827,98.337C89.364,99.292 92.894,99.221 96.424,98.124C100.799,96.769 103.208,96.024 103.658,95.889C107.639,94.712 111.115,95.46 114.092,98.139C114.656,98.646 115.238,99.689 115.862,99.966C115.969,100.012 116.008,100.147 115.937,100.242C115.195,101.271 113.226,100.633 112.315,100.118C110.871,99.302 109.632,98.72 108.604,98.376C108.075,98.199 107.277,98.163 106.202,98.27C105.177,98.373 103.818,98.72 102.118,99.313C96.538,101.268 90.947,103.105 85.313,101.218C84.366,100.899 83.798,100.711 83.607,100.654C83.461,100.611 83.309,100.633 83.184,100.711C79.974,102.751 76.369,102.013 73.084,100.406C69.575,98.688 66.166,96.258 62.345,95.134C62.147,95.077 61.937,95.201 61.898,95.407C61.668,96.563 61.196,97.77 60.479,99.026C59.606,100.555 58.553,101.913 57.322,103.102C55.743,104.624 53.937,105.55 51.904,105.88C51.766,105.905 51.624,105.912 51.479,105.901C48.719,105.731 47.381,104.212 47.463,101.342C47.466,101.207 47.487,101.076 47.523,100.945C48.896,95.95 53.178,92.051 58.407,91.441ZM57.804,95.013C54.643,96.006 52.316,98.312 51.319,101.481C51.237,101.743 51.493,101.984 51.748,101.889C54.686,100.775 56.821,98.068 57.989,95.215C58.038,95.098 57.928,94.974 57.804,95.013ZM83.021,96.475C83.958,95.034 84.313,92.625 82.372,91.849C82.258,91.802 82.131,91.802 82.014,91.849C81.35,92.129 81.024,92.636 81.034,93.363C81.056,94.573 81.616,95.627 82.716,96.521C82.812,96.599 82.954,96.578 83.021,96.475Z" style="fill:white;"/>
</svg>
