<?xml version="1.0" encoding="UTF-8" standalone="no"?>
<!DOCTYPE svg PUBLIC "-//W3C//DTD SVG 1.1//EN" "http://www.w3.org/Graphics/SVG/1.1/DTD/svg11.dtd">
<svg width="100%" height="100%" viewBox="0 0 300 300" version="1.1" xmlns="http://www.w3.org/2000/svg" xmlns:xlink="http://www.w3.org/1999/xlink" xml:space="preserve" xmlns:serif="http://www.serif.com/" style="fill-rule:evenodd;clip-rule:evenodd;stroke-linejoin:round;stroke-miterlimit:2;">
    <path d="M195.45,67.14C194.794,64.887 193.891,63.068 192.742,61.676C191.944,60.714 190.652,60.179 189.329,60.266C188.038,60.353 187.083,60.127 186.198,59.252C185.896,58.957 185.563,58.294 185.191,57.267C181.914,48.202 177.432,39.404 171.745,30.881C170.797,29.461 169.995,28.621 169.346,28.361C168.134,27.875 166.965,28.25 165.836,29.489C160.07,35.808 153.824,41.363 147.096,46.157C144.273,48.167 140.961,49.997 137.153,51.646C133.667,52.844 130.688,53.691 128.216,54.194C124.936,54.857 120.499,55.565 114.902,56.326C108.893,57.138 102.116,58.971 101.606,66.276C101.154,72.75 103.241,77.771 105.963,84.725C107.417,88.443 108.559,92.848 109.389,97.945C110.146,102.587 110.767,105.482 112.229,109.204C114.576,115.196 118.857,119.709 124.602,122.431C127.442,123.778 130.029,124.774 132.362,125.42C136.556,126.583 139.6,127.097 142.374,130.086C144.27,132.131 144.547,134.35 144.582,137.078C144.589,137.269 144.683,137.46 144.867,137.644C144.579,138.311 144.232,138.953 143.822,139.571C141.867,142.501 139.52,145.067 136.778,147.268C132.403,150.778 127.227,152.41 121.252,152.17C121.401,151.823 120.971,151.597 119.961,151.493C119.881,151.483 119.804,151.465 119.732,151.441L117.263,150.549C117.197,150.524 117.128,150.51 117.058,150.504C113.548,150.153 110.639,150.042 108.33,150.174C104.959,150.368 101.043,150.816 96.582,151.514C91.808,152.26 87.316,153.607 83.101,155.555C82.688,155.746 81.796,156.277 80.418,157.148C80.421,156.978 80.4,156.85 80.355,156.763C78.793,153.822 77.963,150.74 77.803,147.275C77.675,144.425 77.835,141.567 78.282,138.7C79.084,133.575 79.511,130.847 79.564,130.513C80.379,125.372 79.876,120.463 78.046,115.783C77.241,113.724 76.251,111.648 75.078,109.554C73.748,107.183 71.936,104.177 69.634,100.531C66.722,95.914 64.399,92.171 62.549,87.38C60.833,82.947 60.587,77.59 61.948,72.865C63.451,67.63 66.475,62.662 70.297,58.666C72.648,56.211 74.797,54.222 76.748,52.705C79.994,50.174 82.188,48.372 83.327,47.306C86.622,44.22 89.642,40.585 92.385,36.398C95.676,31.371 97.87,28.069 98.967,26.49C102.699,21.101 106.945,16.494 111.976,12.596C118.808,7.305 125.949,3.128 134.327,1.111C138.427,0.125 142.412,-0.205 146.287,0.122C155.556,0.899 163.587,4.833 170.218,11.266C170.579,11.617 171.554,12.28 173.141,13.255C173.318,13.363 173.512,13.439 173.714,13.478C179.734,14.616 184.42,19.293 187.392,24.483C189.513,28.191 191.208,32.478 192.482,37.349C193.867,42.644 194.784,48.355 195.238,54.475C195.52,58.305 195.669,60.412 195.683,60.804C195.763,62.898 195.683,65.012 195.45,67.14Z" style="fill:white;fill-opacity:0.25;fill-rule:nonzero;"/>
    <path d="M195.45,67.14C195.78,70.157 195.721,73.101 195.28,75.969C194.207,78.187 193.235,79.777 192.371,80.742C192.253,80.874 191.631,81.451 190.506,82.468C189.819,83.093 189.691,83.45 189.638,84.37C189.267,90.821 187.878,96.98 185.472,102.844C184.705,104.711 183.782,106.364 182.702,107.798C180.81,110.308 177.835,113.398 176.081,116.053C173.238,120.365 172.03,125.212 172.46,130.59C172.783,134.627 173.589,138.273 174.88,141.526C175.182,142.289 175.672,143.098 176.345,143.949C177.81,145.806 179.438,147.813 181.653,148.788C183.959,149.799 186.41,150.42 189.01,150.649C188.812,151.017 176.397,172.431 168.211,180.444C166.652,181.971 164.857,183.419 162.833,184.79C159.549,187.012 154.831,189.175 150.876,188.627C144.332,187.721 138.764,184.978 134.17,180.392C131.605,177.833 129.47,175.045 127.772,172.032C125.526,168.046 123.603,163.873 122.561,159.443C121.988,157.01 121.554,154.583 121.252,152.17C127.227,152.41 132.403,150.778 136.778,147.268C139.52,145.067 141.867,142.501 143.822,139.571C144.232,138.953 144.579,138.311 144.867,137.644C146.315,135.579 147.492,133.725 148.405,132.086C149.599,129.947 150.699,127.524 151.706,124.82C152.748,122.021 153.657,118.543 153.577,115.467C153.678,112.978 153.609,110.492 153.369,108.013C157.855,105.246 160.469,101.128 161.208,95.657C161.25,95.327 161.031,95.022 160.701,94.952C160.115,94.834 159.955,95.351 159.778,95.831C158.466,99.327 156.647,102.771 153.387,105.055C153.265,100.819 152.487,96.928 151.047,93.383C150.786,92.744 150.335,91.911 149.689,90.883C149.623,90.783 149.547,90.692 149.453,90.616C146.863,88.488 143.999,91.515 140.937,91.835C140.645,91.866 140.357,91.737 140.184,91.501C139.691,90.831 139.323,90.008 139.076,89.029C138.246,85.714 137.576,82.28 137.066,78.732C136.823,77.042 136.663,75.42 136.59,73.872C136.563,73.261 136.41,72.549 136.361,71.792C136.076,67.428 136.09,63.085 136.399,58.77C136.566,56.433 136.816,54.059 137.153,51.646C140.961,49.997 144.273,48.167 147.096,46.157C153.824,41.363 160.07,35.808 165.836,29.489C166.965,28.25 168.134,27.875 169.346,28.361C169.995,28.621 170.797,29.461 171.745,30.881C177.432,39.404 181.914,48.202 185.191,57.267C185.563,58.294 185.896,58.957 186.198,59.252C187.083,60.127 188.038,60.353 189.329,60.266C190.652,60.179 191.944,60.714 192.742,61.676C193.891,63.068 194.794,64.887 195.45,67.14ZM160.059,60.915C159.91,60.683 159.663,60.488 159.32,60.339C157.077,59.35 154.577,58.745 151.824,58.52C148.144,58.218 144.832,58.336 141.541,59.78C140.847,60.086 139.333,60.825 139.607,61.651C139.725,62.005 140.052,62.245 140.413,62.242C141.527,62.235 142.756,62.123 144.1,61.908C145.995,61.606 148.106,61.304 150.429,61.006C153.536,60.61 156.716,60.874 159.448,61.447C159.653,61.488 159.813,61.464 159.927,61.374C160.118,61.224 160.16,61.072 160.059,60.915ZM152.269,70.428C150.015,70.855 147.592,71.088 144.995,71.115C144.513,71.122 144.256,71.695 144.579,72.06C144.791,72.306 145.134,72.507 145.61,72.664C147.957,73.452 150.259,73.368 152.737,72.896C155.22,72.424 157.389,71.653 159.282,70.056C159.663,69.737 159.91,69.421 160.018,69.116C160.181,68.657 159.733,68.22 159.282,68.393C156.855,69.32 154.518,69.997 152.269,70.428Z" style="fill:white;fill-opacity:0.95;fill-rule:nonzero;"/>
    <path d="M144.582,137.078C144.547,134.35 144.27,132.131 142.374,130.086C139.6,127.097 136.556,126.583 132.362,125.42C130.029,124.774 127.442,123.778 124.602,122.431C118.857,119.709 114.576,115.196 112.229,109.204C110.767,105.482 110.146,102.587 109.389,97.945C108.559,92.848 107.417,88.443 105.963,84.725C103.241,77.771 101.154,72.75 101.606,66.276C102.116,58.971 108.893,57.138 114.902,56.326C120.499,55.565 124.936,54.857 128.216,54.194C130.688,53.691 133.667,52.844 137.153,51.646C136.816,54.059 136.566,56.433 136.399,58.77C136.09,63.085 136.076,67.428 136.361,71.792C136.41,72.549 136.563,73.261 136.59,73.872C136.663,75.42 136.823,77.042 137.066,78.732C137.576,82.28 138.246,85.714 139.076,89.029C139.323,90.008 139.691,90.831 140.184,91.501C140.357,91.737 140.645,91.866 140.937,91.835C143.999,91.515 146.863,88.488 149.453,90.616C149.547,90.692 149.623,90.783 149.689,90.883C150.335,91.911 150.786,92.744 151.047,93.383C152.487,96.928 153.265,100.819 153.387,105.055C151.689,106.412 149.606,107.319 147.13,107.773C145.513,108.068 143.766,108.256 141.888,108.332C141.503,108.346 141.235,108.714 141.343,109.082C141.44,109.412 141.683,109.617 142.076,109.693C145.981,110.436 149.748,109.877 153.369,108.013C153.609,110.492 153.678,112.978 153.577,115.467C153.657,118.543 152.748,122.021 151.706,124.82C150.699,127.524 149.599,129.947 148.405,132.086C147.492,133.725 146.315,135.579 144.867,137.644C144.683,137.46 144.589,137.269 144.582,137.078ZM115.951,78.757C115.604,78.937 115.604,79.434 115.951,79.611C117.746,80.52 119.655,80.822 121.686,80.52C124.297,80.131 126.817,79.246 129.251,77.861C129.859,77.514 131.06,76.437 131.039,75.722C131.029,75.295 130.539,75.035 130.095,75.215C129.459,75.476 128.866,75.837 128.137,76.052C126.453,76.549 124.939,77.062 123.599,77.59C122.193,78.146 119.877,78.496 116.656,78.639C116.308,78.656 116.072,78.694 115.951,78.757ZM112.094,74.16C112.288,74.275 112.493,74.25 112.712,74.091C115.076,72.351 117.53,71.018 120.075,70.091C122.179,69.324 123.724,68.751 124.71,68.373C125.647,68.015 127.63,67.23 127.473,66.21C127.421,65.869 127.147,65.606 126.807,65.567C122.033,65.022 116.947,68.268 113.698,71.428C112.969,72.139 112.385,72.862 111.948,73.598C111.83,73.795 111.896,74.049 112.094,74.16Z" style="fill:white;fill-opacity:0.75;"/>
    <path d="M160.059,60.915C160.16,61.072 160.118,61.224 159.927,61.374C159.813,61.464 159.653,61.488 159.448,61.447C156.716,60.874 153.536,60.61 150.429,61.006C148.106,61.304 145.995,61.606 144.1,61.908C142.756,62.123 141.527,62.235 140.413,62.242C140.052,62.245 139.725,62.005 139.607,61.651C139.333,60.825 140.847,60.086 141.541,59.78C144.832,58.336 148.144,58.218 151.824,58.52C154.577,58.745 157.077,59.35 159.32,60.339C159.663,60.488 159.91,60.683 160.059,60.915Z" style="fill:white;fill-opacity:0.15;fill-rule:nonzero;"/>
    <path d="M112.094,74.16C111.896,74.049 111.83,73.795 111.948,73.598C112.385,72.862 112.969,72.139 113.698,71.428C116.947,68.268 122.033,65.022 126.807,65.567C127.147,65.606 127.421,65.869 127.473,66.21C127.63,67.23 125.647,68.015 124.71,68.373C123.724,68.751 122.179,69.324 120.075,70.091C117.53,71.018 115.076,72.351 112.712,74.091C112.493,74.25 112.288,74.275 112.094,74.16Z" style="fill:white;fill-opacity:0.15;fill-rule:nonzero;"/>
    <path d="M152.737,72.896C150.259,73.368 147.957,73.452 145.61,72.664C145.134,72.507 144.791,72.306 144.579,72.06C144.256,71.695 144.513,71.122 144.995,71.115C147.592,71.088 150.015,70.855 152.269,70.428C154.518,69.997 156.855,69.32 159.282,68.393C159.733,68.22 160.181,68.657 160.018,69.116C159.91,69.421 159.663,69.737 159.282,70.056C157.389,71.653 155.22,72.424 152.737,72.896Z" style="fill:white;fill-opacity:0.15;fill-rule:nonzero;"/>
    <path d="M115.951,78.757C116.072,78.694 116.308,78.656 116.656,78.639C119.877,78.496 122.193,78.146 123.599,77.59C124.939,77.062 126.453,76.549 128.137,76.052C128.866,75.837 129.459,75.476 130.095,75.215C130.539,75.035 131.029,75.295 131.039,75.722C131.06,76.437 129.859,77.514 129.251,77.861C126.817,79.246 124.297,80.131 121.686,80.52C119.655,80.822 117.746,80.52 115.951,79.611C115.604,79.434 115.604,78.937 115.951,78.757Z" style="fill:white;fill-opacity:0.15;fill-rule:nonzero;"/>
    <path d="M195.28,75.969C195.419,77.271 195.471,78.538 195.433,79.777C195.37,81.815 195.36,83.082 195.398,83.586C195.863,89.828 197.853,96.143 200.286,101.785C202.074,105.926 203.918,110.127 205.817,114.387C206.959,116.949 208.25,119.584 209.691,122.296C210.99,124.733 212.173,127.625 213.246,130.975C214.642,135.329 214.819,139.345 213.51,143.834C212.614,146.914 211.302,149.854 209.577,152.656C204.768,151.33 199.835,150.479 194.773,150.101C194.339,150.07 189.416,150.399 189.01,150.649C186.41,150.42 183.959,149.799 181.653,148.788C179.438,147.813 177.81,145.806 176.345,143.949C175.672,143.098 175.182,142.289 174.88,141.526C173.589,138.273 172.783,134.627 172.46,130.59C172.03,125.212 173.238,120.365 176.081,116.053C177.835,113.398 180.81,110.308 182.702,107.798C183.782,106.364 184.705,104.711 185.472,102.844C187.878,96.98 189.267,90.821 189.638,84.37C189.691,83.45 189.819,83.093 190.506,82.468C191.631,81.451 192.253,80.874 192.371,80.742C193.235,79.777 194.207,78.187 195.28,75.969Z" style="fill:white;fill-opacity:0.25;fill-rule:nonzero;"/>
    <path d="M26.887,99.834C26.543,99.736 26.328,99.656 26.241,99.597C23.814,97.907 21.28,96.39 18.645,95.046C18.374,94.907 18.114,94.74 17.867,94.55C18.051,94.602 18.138,94.567 18.128,94.445C17.916,91.474 18.086,88.359 19.471,85.742C19.714,85.287 20.228,85.054 20.718,85.176C21.36,85.339 21.894,85.808 22.294,86.322C23.7,88.137 24.689,90.286 25.262,92.775C25.807,95.133 26.349,97.487 26.887,99.834Z" style="fill:white;fill-opacity:0.85;fill-rule:nonzero;"/>
    <path d="M16.954,93.914C16.84,94.265 16.399,94.414 15.635,94.359C13.444,94.199 11.778,93.265 10.632,91.557C10.577,91.474 10.497,91.404 10.403,91.362L10.268,91.297C10.351,91.088 10.327,90.869 10.198,90.64C10.045,90.373 10.271,90.05 10.573,90.095C13.323,90.519 14.909,92.258 16.954,93.914Z" style="fill:white;fill-opacity:0.75;fill-rule:nonzero;"/>
    <path d="M10.268,91.297L10.403,91.362C10.497,91.404 10.577,91.474 10.632,91.557C11.778,93.265 13.444,94.199 15.635,94.359C16.399,94.414 16.84,94.265 16.954,93.914L17.867,94.55C18.114,94.74 18.374,94.907 18.645,95.046C21.28,96.39 23.814,97.907 26.241,99.597C26.328,99.656 26.543,99.736 26.887,99.834C26.939,99.889 26.981,99.952 27.008,100.024C27.04,100.108 27.085,100.174 27.137,100.219C29.511,102.243 31.386,104.107 32.758,105.812C34.15,107.541 35.528,109.929 36.483,111.946C37.778,114.686 39.073,117.446 40.364,120.226C40.631,120.803 40.972,121.476 41.385,122.251C41.461,122.393 41.607,122.483 41.767,122.49C43.641,122.566 45.655,124.684 46.714,126.128C49.821,130.374 51.744,135.065 52.48,140.196C52.751,142.098 51.738,144.414 50.776,146.188C49.141,149.205 47.315,152.205 45.301,155.18C45.023,155.593 44.607,156.562 44.051,158.086C43.444,159.759 42.871,161.714 42.336,163.95C42.249,164.328 42.218,164.852 42.242,165.522C42.402,169.543 42.565,172.667 42.728,174.892C42.829,176.208 43.169,177.597 43.666,179.024C46.513,187.2 49.321,195.501 52.095,203.93L53.21,207.443C53.296,207.725 53.616,207.867 53.883,207.742C54.539,207.437 55.317,207.325 56.216,207.405C58.046,207.568 59.75,208.03 61.333,208.787C64.979,210.53 68.378,212.918 71.53,215.953C73.568,217.911 75.009,219.421 75.856,220.48C79.97,225.618 83.5,231.187 86.441,237.189C86.444,237.2 86.448,237.207 86.451,237.217L86.941,238.706L86.542,240.22C83.191,247.108 79.636,253.746 75.877,260.138C72.967,265.085 69.784,269.959 66.322,274.76C65.013,276.583 63.67,278.229 62.292,279.697C59.091,283.117 55.546,286.571 52.067,289.008C51.713,289.255 50.894,289.633 49.609,290.144C49.502,290.189 49.387,290.21 49.269,290.213C48.509,290.227 47.526,290.192 46.627,289.925C45.37,289.554 43.846,288.897 42.051,287.96C40.034,286.905 38.573,285.811 37.392,284.079C36.778,283.176 35.955,282.384 35.292,281.312C32.247,276.427 29.9,271.15 28.248,265.487C25.384,255.683 23.978,244.862 23.11,234.87C22.974,233.277 22.155,222.372 20.659,202.149C20.266,196.827 19.756,191.824 19.131,187.141C18.812,184.745 18.468,182.666 18.103,180.899C17.444,177.68 17.163,175.24 16.524,172.601C15.93,170.154 15.322,167.269 14.694,163.953C14.496,162.915 14.034,161.412 13.684,160.62C12.365,157.638 11.431,154.819 10.879,152.17C13.708,152.534 16.492,154.072 18.666,154.85C22.679,156.284 26.394,155.791 29.807,153.368C29.98,153.243 30.06,153.027 30.008,152.819C29.13,149.337 29.886,146.563 32.442,143.845C33.855,142.341 35.097,141.255 36.177,140.585C38.805,138.957 40.475,137.894 41.183,137.398C41.399,137.248 41.437,136.946 41.27,136.748L39.309,134.395C39.177,134.231 38.972,134.141 38.764,134.152C34.462,134.318 29.425,133.961 28.46,128.829C29.373,129.138 29.956,129.288 30.213,129.274C32.216,129.173 33.827,128.347 35.052,126.798C35.469,126.267 36.028,125.583 35.601,124.952C35.299,124.511 34.903,124.327 34.41,124.4C32.688,124.66 30.973,125.382 29.262,126.569C29.682,126.035 30.188,125.615 30.775,125.306C30.865,125.261 30.938,125.191 30.99,125.108C31.209,124.764 31.24,124.41 31.084,124.049C29.137,119.633 27.026,114.984 24.054,110.86C23.363,109.898 22.86,109.325 22.537,109.138C21.033,108.266 19.659,107.329 18.412,106.333C17.256,105.551 16.145,104.777 15.073,104.01C13.403,102.816 12.215,101.611 10.844,100.295C8.83,98.365 8.848,94.692 9.65,92.269C9.778,91.883 9.983,91.557 10.268,91.297Z" style="fill:white;fill-opacity:0.95;"/>
    <path d="M153.369,108.013C149.748,109.877 145.981,110.436 142.076,109.693C141.683,109.617 141.44,109.412 141.343,109.082C141.235,108.714 141.503,108.346 141.888,108.332C143.766,108.256 145.513,108.068 147.13,107.773C149.606,107.319 151.689,106.412 153.387,105.055C156.647,102.771 158.466,99.327 159.778,95.831C159.955,95.351 160.115,94.834 160.701,94.952C161.031,95.022 161.25,95.327 161.208,95.657C160.469,101.128 157.855,105.246 153.369,108.013Z" style="fill:white;fill-opacity:0.15;fill-rule:nonzero;"/>
    <path d="M282.24,108.648C282.285,108.652 282.33,108.659 282.375,108.666L273.137,114.026C273.589,111.974 274.009,110.023 274.401,108.176C274.72,106.662 275.251,105.045 275.998,103.319C276.064,103.163 276.13,103.007 276.199,102.847C276.408,102.364 276.907,101.597 277.699,100.552C278.532,99.452 279.931,98.66 280.719,100.399C281.921,103.052 281.962,105.673 281.823,108.52C281.817,108.662 281.862,108.739 281.959,108.756C282.039,108.77 282.132,108.735 282.24,108.648Z" style="fill:white;fill-opacity:0.85;fill-rule:nonzero;"/>
    <path d="M289.722,105.586C289.552,105.628 289.44,105.68 289.395,105.739C287.75,108.003 285.41,108.978 282.375,108.666C282.33,108.659 282.285,108.652 282.24,108.648L283.733,107.6C283.861,107.513 283.979,107.416 284.087,107.308C285.628,105.815 287.267,104.628 289.444,104.322C289.711,104.284 289.909,104.559 289.795,104.798C289.666,105.058 289.642,105.322 289.722,105.586Z" style="fill:white;fill-opacity:0.75;fill-rule:nonzero;"/>
    <path d="M290.506,112.321C290.305,113.106 289.829,113.873 289.083,114.627C286.878,116.838 284.632,118.623 282.337,119.983C281.001,120.91 279.668,121.834 278.334,122.761C277.501,123.341 276.894,123.983 276.449,124.823C274.123,129.194 271.787,132.787 269.579,136.707C269.225,137.335 268.936,138.332 268.718,139.689C267.659,139.113 266.524,138.762 265.319,138.641C265.201,138.63 265.086,138.648 264.975,138.689C263.892,139.134 264.149,140.015 264.767,140.852C265.996,142.522 267.68,143.404 269.822,143.498C269.912,143.501 270.006,143.491 270.096,143.463L271.558,143.008C270.617,148.039 265.482,148.622 261.312,148.368C261.066,148.355 260.826,148.455 260.667,148.643L258.643,151.028C258.535,151.156 258.549,151.344 258.674,151.455C259.084,151.819 259.389,152.062 259.587,152.184C263.073,154.263 265.607,155.718 267.912,158.443C270.436,161.422 270.613,163.582 269.981,167.251C269.961,167.362 270.006,167.477 270.099,167.543C273.457,169.945 277.133,170.487 281.126,169.168C282.983,168.553 285.74,167.012 288.187,166.515C288.364,166.48 288.52,166.626 288.496,166.803L287.885,170.987L282.782,183.364C282.757,183.429 282.74,183.499 282.73,183.568C282.49,185.426 282.077,187.453 281.483,189.651C281.428,189.856 281.407,190.123 281.424,190.453C281.431,190.564 281.424,190.675 281.407,190.786C280.15,197.712 279.355,202.416 279.018,204.906C276.446,224.021 274.929,235.169 274.47,238.349C273.811,242.921 272.946,247.875 271.873,253.208C269.728,263.884 266.492,274.156 260.646,283.12C259.556,284.79 258.254,286.443 256.744,288.075C255.897,288.988 255.174,289.623 254.577,289.981C251.908,291.585 249.335,292.612 246.856,293.06C245.349,293.334 243.888,292.952 242.468,291.921C239.1,289.481 236.267,286.255 233.424,282.923C231.726,280.933 230.286,279.017 229.102,277.18C226.661,273.393 224.234,269.227 221.828,264.685C217.721,256.947 213.986,248.955 210.615,240.71C210.674,240.484 210.656,240.203 210.563,239.87C210.34,239.071 210.729,238.279 211.125,237.599C213.961,232.704 217.145,228.17 220.672,224C223.03,221.219 225.304,219.098 227.953,216.928C230.747,214.64 233.823,212.773 237.173,211.325C239.309,210.405 241.406,209.96 243.464,209.999C244.145,210.009 244.752,210.179 245.29,210.509C245.516,210.648 245.811,210.547 245.908,210.301L247.169,207.027C250.276,199.274 253.397,191.588 256.539,183.971C256.567,183.902 256.636,183.787 256.747,183.631C256.817,183.537 256.855,183.423 256.865,183.304C257.157,179.319 256.39,175.382 255.522,171.605C255.303,170.664 254.918,169.775 254.362,168.942C252.126,165.599 250.297,162.54 248.873,159.773C247.898,157.874 247.228,156.079 247.571,153.923C248.398,148.691 250.474,143.942 253.803,139.672C254.706,138.516 256.487,136.853 258.177,136.724C258.316,136.714 258.441,136.637 258.518,136.523C258.806,136.082 259.042,135.669 259.226,135.28C261.92,129.503 263.465,126.222 263.861,125.434C264.76,123.646 265.888,121.82 267.253,119.963C267.982,118.966 269.051,118.13 269.905,117.078C269.922,117.057 269.943,117.036 269.964,117.015L273.137,114.026L282.375,108.666C285.41,108.978 287.75,108.003 289.395,105.739C289.44,105.68 289.552,105.628 289.722,105.586C289.933,105.763 290.111,105.972 290.246,106.211C291.135,108.193 291.221,110.231 290.506,112.321Z" style="fill:white;fill-opacity:0.95;"/>
    <path d="M29.262,126.569C28.657,127.01 26.97,128.107 28.46,128.829C29.425,133.961 34.462,134.318 38.764,134.152C38.972,134.141 39.177,134.231 39.309,134.395L41.27,136.748C41.437,136.946 41.399,137.248 41.183,137.398C40.475,137.894 38.805,138.957 36.177,140.585C35.097,141.255 33.855,142.341 32.442,143.845C29.886,146.563 29.13,149.337 30.008,152.819C30.06,153.027 29.98,153.243 29.807,153.368C26.394,155.791 22.679,156.284 18.666,154.85C16.492,154.072 13.708,152.534 10.879,152.17C10.448,150.514 10.139,149.077 9.952,147.858C9.455,144.647 9.028,142.13 8.678,140.307C9.834,141.234 10.656,141.845 11.153,142.144C14.153,143.942 18.19,144.612 21.266,142.775C21.638,142.557 22.04,142.078 22.478,141.338C22.519,141.269 22.537,141.185 22.526,141.102L22.217,138.713C22.203,138.613 22.297,138.526 22.394,138.55C22.578,138.592 22.863,138.724 23.242,138.943C23.349,139.005 23.471,139.036 23.592,139.029C24.141,139.002 24.727,138.918 25.356,138.783C28.532,138.092 28.269,134.107 27.328,131.794C26.442,129.618 25.519,127.75 24.557,126.191C23.262,124.097 22.252,121.515 20.662,119.171C19.832,117.953 19.298,116.762 19.055,115.606C19.603,115.224 19.822,114.734 19.707,114.134C19.204,111.519 18.77,108.919 18.412,106.333C19.659,107.329 21.033,108.266 22.537,109.138C22.86,109.325 23.363,109.898 24.054,110.86C27.026,114.984 29.137,119.633 31.084,124.049C31.24,124.41 31.209,124.764 30.99,125.108C30.938,125.191 30.865,125.261 30.775,125.306C30.188,125.615 29.682,126.035 29.262,126.569Z" style="fill:white;fill-opacity:0.85;fill-rule:nonzero;"/>
    <path d="M19.055,115.606C19.298,116.762 19.832,117.953 20.662,119.171C22.252,121.515 23.262,124.097 24.557,126.191C25.519,127.75 26.442,129.618 27.328,131.794C28.269,134.107 28.532,138.092 25.356,138.783C24.727,138.918 24.141,139.002 23.592,139.029C23.471,139.036 23.349,139.005 23.242,138.943C22.863,138.724 22.578,138.592 22.394,138.55C22.297,138.526 22.203,138.613 22.217,138.713L22.526,141.102C22.537,141.185 22.519,141.269 22.478,141.338C22.04,142.078 21.638,142.557 21.266,142.775C18.19,144.612 14.153,143.942 11.153,142.144C10.656,141.845 9.834,141.234 8.678,140.307C7.726,139.352 7.136,138.745 6.907,138.491C4.695,136.037 2.508,131.589 3.05,128.291C3.342,126.517 4.334,124.962 6.025,123.622C6.598,123.167 7.275,122.948 8.053,122.966C8.178,122.969 8.257,122.837 8.202,122.726C6.994,120.334 6.237,117.855 5.935,115.286C5.692,113.234 6.261,111.599 7.643,110.388C8.844,109.332 10.205,108.961 11.726,109.273C13.979,109.735 15.743,111.137 17.142,112.721C17.798,113.46 18.433,114.422 19.055,115.606Z" style="fill:white;fill-opacity:0.9;fill-rule:nonzero;"/>
    <path d="M282.337,119.983C282.007,120.22 281.744,120.476 281.553,120.758C281.501,120.834 281.466,120.924 281.449,121.022L280.268,128.229C280.251,128.33 280.258,128.434 280.282,128.531C280.407,128.996 280.657,129.329 281.028,129.534C280.001,132.551 277.932,135.735 276.821,137.842C275.491,140.359 273.474,143.588 272.432,146.667C271.613,149.08 271.797,152.812 275.109,153.097C275.942,153.17 276.755,153.045 277.546,152.722C277.675,152.67 277.81,152.788 277.775,152.923C277.331,154.763 277.56,156.725 279.577,157.471C283.143,158.791 286.976,157.877 289.84,155.565C290.534,155.003 291.114,154.541 291.579,154.18C291.024,155.996 290.524,158.534 290.076,161.787C289.725,164.345 288.993,167.411 287.885,170.987L288.496,166.803C288.52,166.626 288.364,166.48 288.187,166.515C285.74,167.012 282.983,168.553 281.126,169.168C277.133,170.487 273.457,169.945 270.099,167.543C270.006,167.477 269.961,167.362 269.981,167.251C270.613,163.582 270.436,161.422 267.912,158.443C265.607,155.718 263.073,154.263 259.587,152.184C259.389,152.062 259.084,151.819 258.674,151.455C258.549,151.344 258.535,151.156 258.643,151.028L260.667,148.643C260.826,148.455 261.066,148.355 261.312,148.368C265.482,148.622 270.617,148.039 271.558,143.008C271.971,142.848 272.283,142.539 272.009,142.071C271.488,141.171 269.912,140.404 268.718,139.689C268.936,138.332 269.225,137.335 269.579,136.707C271.787,132.787 274.123,129.194 276.449,124.823C276.894,123.983 277.501,123.341 278.334,122.761C279.668,121.834 281.001,120.91 282.337,119.983Z" style="fill:white;fill-opacity:0.85;fill-rule:nonzero;"/>
    <path d="M291.579,154.18C291.114,154.541 290.534,155.003 289.84,155.565C286.976,157.877 283.143,158.791 279.577,157.471C277.56,156.725 277.331,154.763 277.775,152.923C277.81,152.788 277.675,152.67 277.546,152.722C276.755,153.045 275.942,153.17 275.109,153.097C271.797,152.812 271.613,149.08 272.432,146.667C273.474,143.588 275.491,140.359 276.821,137.842C277.932,135.735 280.001,132.551 281.028,129.534C282.053,127.892 282.798,126.944 283.143,126.566C291.013,117.947 298.499,127.727 291.808,136.894C291.689,137.057 291.867,137.283 292.069,137.252C292.579,137.172 293.068,137.283 293.53,137.585C295.471,138.852 296.63,140.626 297.012,142.907C297.037,143.046 297.04,143.185 297.023,143.324C296.946,144.018 296.974,144.897 296.776,145.688C295.95,148.962 294.218,151.792 291.579,154.18Z" style="fill:white;fill-opacity:0.9;fill-rule:nonzero;"/>
    <path d="M28.46,128.829C26.97,128.107 28.657,127.01 29.262,126.569C30.973,125.382 32.688,124.66 34.41,124.4C34.903,124.327 35.299,124.511 35.601,124.952C36.028,125.583 35.469,126.267 35.052,126.798C33.827,128.347 32.216,129.173 30.213,129.274C29.956,129.288 29.373,129.138 28.46,128.829Z" style="fill:white;fill-opacity:0.75;fill-rule:nonzero;"/>
    <path d="M268.718,139.689C269.912,140.404 271.488,141.171 272.009,142.071C272.283,142.539 271.971,142.848 271.558,143.008L270.096,143.463C270.006,143.491 269.912,143.501 269.822,143.498C267.68,143.404 265.996,142.522 264.767,140.852C264.149,140.015 263.892,139.134 264.975,138.689C265.086,138.648 265.201,138.63 265.319,138.641C266.524,138.762 267.659,139.113 268.718,139.689Z" style="fill:white;fill-opacity:0.75;fill-rule:nonzero;"/>
    <path d="M209.577,152.656C215.236,154.361 220.054,156.503 224.456,160.575C224.988,161.071 225.765,161.971 226.789,163.276C229.411,166.63 231.813,170.539 233.993,175C237.698,182.575 241.138,190.415 244.322,198.518C245.377,201.208 246.325,204.045 247.169,207.027L245.908,210.301C245.811,210.547 245.516,210.648 245.29,210.509C244.752,210.179 244.145,210.009 243.464,209.999C241.406,209.96 239.309,210.405 237.173,211.325C233.823,212.773 230.747,214.64 227.953,216.928C225.304,219.098 223.03,221.219 220.672,224C217.145,228.17 213.961,232.704 211.125,237.599C210.729,238.279 210.34,239.071 210.563,239.87C210.656,240.203 210.674,240.484 210.615,240.71C209.722,241.727 208.816,241.984 207.903,241.484C207.636,240.918 207.334,240.39 206.994,239.901C204.591,236.429 202.609,232.902 200.699,230.156C198.936,227.621 196.905,225.41 194.603,223.518C194.058,223.07 193.548,222.761 193.069,222.584C192.732,222.459 192.357,222.629 192.225,222.962C191.951,223.66 191.774,224.504 191.697,225.49C191.558,227.295 191.544,229.583 191.656,232.353C191.926,239.12 191.909,245.716 191.603,252.139C191.058,263.634 190.69,275.188 190.506,286.804C184.733,290.467 178.886,293.372 172.96,295.521C159.545,300.389 145.891,301.288 132.001,298.222C122.554,296.136 113.701,292.64 105.435,287.741C102.213,285.832 99.262,283.613 96.582,281.089C96.37,280.888 96.235,280.624 96.2,280.336C96.03,278.958 95.985,277.663 96.068,276.444C96.686,267.397 96.988,259.638 96.415,251.08C96.287,249.111 95.971,247.056 95.474,244.91C94.863,242.282 94.159,239.63 93.364,236.946C93.454,236.856 93.478,236.665 93.437,236.377C93.402,236.137 93.391,235.94 93.409,235.787C93.78,232.01 94.287,228.604 94.929,225.573C96.974,215.887 98.665,206.871 99.998,198.525C100.009,198.441 99.96,198.361 99.88,198.337C99.401,198.184 98.96,198.289 98.651,198.799C98.051,199.802 97.544,200.778 97.131,201.719C95.69,205.013 94.565,208.103 93.759,210.985C93.555,211.717 92.996,213.519 92.09,216.39C91.704,217.602 91.222,219.424 90.638,221.862C89.083,228.336 87.851,233.95 86.941,238.706L86.451,237.217C86.448,237.207 86.444,237.2 86.441,237.189C83.5,231.187 79.97,225.618 75.856,220.48C75.009,219.421 73.568,217.911 71.53,215.953C68.378,212.918 64.979,210.53 61.333,208.787C59.75,208.03 58.046,207.568 56.216,207.405C55.317,207.325 54.539,207.437 53.883,207.742C53.616,207.867 53.296,207.725 53.21,207.443L52.095,203.93C52.487,203.253 52.81,202.566 53.071,201.861C53.591,200.441 53.855,199.726 53.859,199.719C55.119,196.744 56.4,193.938 57.695,191.307C58.771,189.127 60.153,186.374 61.844,183.051C63.986,178.84 66.211,174.799 68.513,170.928C70.79,167.098 73.436,163.578 76.449,160.367C77.571,159.172 79.06,158.162 80.418,157.148C81.796,156.277 82.688,155.746 83.101,155.555C87.316,153.607 91.808,152.26 96.582,151.514C101.043,150.816 104.959,150.368 108.33,150.174C110.639,150.042 113.548,150.153 117.058,150.504C117.128,150.51 117.197,150.524 117.263,150.549L119.732,151.441C119.804,151.465 119.881,151.483 119.961,151.493C120.971,151.597 121.401,151.823 121.252,152.17C121.554,154.583 121.988,157.01 122.561,159.443C123.603,163.873 125.526,168.046 127.772,172.032C129.47,175.045 131.605,177.833 134.17,180.392C138.764,184.978 144.332,187.721 150.876,188.627C154.831,189.175 159.549,187.012 162.833,184.79C164.857,183.419 166.652,181.971 168.211,180.444C176.397,172.431 188.812,151.017 189.01,150.649C189.416,150.399 194.339,150.07 194.773,150.101C199.835,150.479 204.768,151.33 209.577,152.656Z" style="fill:white;fill-opacity:0.5;fill-rule:nonzero;"/>
    <path d="M93.364,236.946C92.61,237.686 91.649,238.71 90.475,240.019C90.097,240.439 89.607,240.79 89.014,241.071C88.92,241.116 88.819,241.14 88.715,241.147C88.024,241.199 87.302,240.89 86.542,240.22L86.941,238.706C87.851,233.95 89.083,228.336 90.638,221.862C91.222,219.424 91.704,217.602 92.09,216.39C92.996,213.519 93.555,211.717 93.759,210.985C94.565,208.103 95.69,205.013 97.131,201.719C97.544,200.778 98.051,199.802 98.651,198.799C98.96,198.289 99.401,198.184 99.88,198.337C99.96,198.361 100.009,198.441 99.998,198.525C98.665,206.871 96.974,215.887 94.929,225.573C94.287,228.604 93.78,232.01 93.409,235.787C93.391,235.94 93.402,236.137 93.437,236.377C93.478,236.665 93.454,236.856 93.364,236.946Z" style="fill:white;fill-opacity:0.25;fill-rule:nonzero;"/>
    <path d="M207.903,241.484C206.504,240.234 205.261,238.807 204.175,237.203C204.14,237.151 204.057,237.162 204.036,237.221C200.651,246.73 198.061,256.707 196.957,266.64C196.634,269.539 196.387,273.667 196.217,279.031C196.183,280.152 196.047,281.482 195.815,283.023C195.801,283.134 195.738,283.232 195.645,283.294L190.506,286.804C190.69,275.188 191.058,263.634 191.603,252.139C191.909,245.716 191.926,239.12 191.656,232.353C191.544,229.583 191.558,227.295 191.697,225.49C191.774,224.504 191.951,223.66 192.225,222.962C192.357,222.629 192.732,222.459 193.069,222.584C193.548,222.761 194.058,223.07 194.603,223.518C196.905,225.41 198.936,227.621 200.699,230.156C202.609,232.902 204.591,236.429 206.994,239.901C207.334,240.39 207.636,240.918 207.903,241.484Z" style="fill:white;fill-opacity:0.25;fill-rule:nonzero;"/>
</svg>
