<?xml version="1.0" encoding="UTF-8" standalone="no"?>
<!DOCTYPE svg PUBLIC "-//W3C//DTD SVG 1.1//EN" "http://www.w3.org/Graphics/SVG/1.1/DTD/svg11.dtd">
<svg width="100%" height="100%" viewBox="0 0 300 300" version="1.1" xmlns="http://www.w3.org/2000/svg" xmlns:xlink="http://www.w3.org/1999/xlink" xml:space="preserve" xmlns:serif="http://www.serif.com/" style="fill-rule:evenodd;clip-rule:evenodd;stroke-linejoin:round;stroke-miterlimit:2;">
    <path d="M73.851,106.479L71.749,104.592C71.668,104.521 71.601,104.441 71.543,104.354C70.868,103.306 70.399,102.673 70.138,102.454C67.213,100.002 64.455,97.138 61.864,93.862C60.321,91.911 59.216,89.941 58.547,87.948C55.082,77.636 58.595,68.051 66.487,61.098C67.406,60.291 68.624,59.738 69.476,58.909C69.888,58.507 70.264,58.192 70.604,57.961C73.629,55.913 76.901,54.557 80.421,53.894C81.948,53.608 83.054,53.361 83.745,53.158C85.654,52.593 87.535,52.252 89.383,52.139C94.867,51.795 101.279,53.335 105.487,57.012C106.461,57.864 107.216,58.771 107.76,59.738C108.229,60.574 109.09,62.384 109.328,63.435C109.621,64.743 109.598,66.161 109.258,67.681C108.898,69.285 106.648,69.957 105.272,69.68C105.198,69.664 105.121,69.667 105.05,69.687C104.982,69.703 104.947,69.722 104.941,69.738C102.067,70.474 99.151,70.767 96.197,70.606C96.024,70.597 95.854,70.641 95.706,70.735C93.918,71.862 93.212,73.991 92.909,76.08C92.043,82.062 93.182,88.146 95.365,93.721C96.266,96.022 98.229,98.071 100.968,97.482C101.778,97.308 102.334,97.14 102.639,96.977C104.232,96.126 106.323,94.958 108.1,95.161C108.219,95.299 108.483,95.505 108.891,95.772C109.074,95.894 109.303,96.18 109.569,96.63C109.621,96.72 109.65,96.826 109.647,96.932C109.614,98.417 108.949,100.423 108.747,101.304C108.399,102.808 108.689,105.071 108.226,106.797C107.776,108.469 106.828,109.854 105.381,110.95C104.015,111.988 102.684,112.596 101.395,112.766C100.723,112.856 100.264,112.924 100.016,112.969C99.621,113.056 99.206,113.03 98.824,112.895L96.551,112.085C96.529,112.075 96.503,112.072 96.477,112.075C96.255,112.088 96.046,112.069 95.854,112.014C95.876,111.911 95.869,111.844 95.828,111.812C93.971,110.334 92.997,108.092 92.17,105.894C90.786,102.213 89.86,98.639 89.399,95.171C89.234,93.93 89.136,92.419 89.103,90.635C89.049,87.691 89.017,86.173 89.007,86.08C88.816,84.254 88.564,81.836 86.824,80.94C85.404,80.21 84.364,81.351 83.674,82.432C82.229,84.694 81.757,87.099 82.263,89.642C82.427,90.465 82.725,91.21 83.169,91.866C83.281,92.031 83.286,92.246 83.179,92.416C81.581,94.969 80.604,97.755 80.264,100.786C80.1,102.249 79.685,104.116 78.734,105.502C77.396,107.144 75.77,107.472 73.851,106.479Z" style="fill:white;fill-opacity:0.35;"/>
    <path d="M198.819,104.981C198.746,104.939 198.672,104.893 198.599,104.843L198.049,104.502C196.195,103.348 194.269,100.954 194.468,98.642C194.495,98.33 194.643,98.042 194.88,97.835C196.535,96.392 197.808,95.055 198.213,92.792C198.333,92.123 198.3,91.509 198.114,90.953C197.722,89.789 197.037,89.036 195.822,88.587C194.938,88.262 194.452,88.092 194.369,88.083C190.627,87.65 186.469,87.8 186.085,82.798C185.871,80.008 185.716,78.449 185.616,78.121C184.966,75.996 183.514,74.871 181.264,74.749C179.955,74.679 178.821,74.852 177.863,75.273C177.094,75.392 176.481,75.634 176.018,76.003C174.73,77.03 173.427,78.032 172.115,79.018C170.537,80.205 168.885,80.674 167.156,80.423C166.513,79.963 164.034,79.565 163.97,79.558C162.62,79.41 161.64,78.841 161.032,77.848C160.849,77.546 160.733,77.218 160.688,76.868C160.531,75.637 160.027,74.63 159.004,74.2C155.145,72.577 153.269,68.964 153.665,67.051C153.832,66.247 154.176,65.694 154.693,65.396C155.352,65.016 156.14,64.888 157.056,65.01C157.117,65.019 157.175,65.032 157.229,65.052C159.29,65.794 166.3,65.666 166.646,63.506C167.362,59.032 167.158,55.011 176.211,57.961C176.31,57.993 176.407,57.896 176.477,57.819C177.156,57.067 177.863,54.522 180.961,53.814C184.126,53.091 186.696,54.084 188.628,56.588C188.811,56.823 189.142,56.948 189.624,56.958C189.724,56.961 189.82,56.935 189.904,56.881C192.45,55.244 195.063,54.213 198.085,54.785C199.303,55.016 200.35,55.381 201.051,56.08C204.806,59.822 203.88,64.467 203.88,64.467C203.89,64.573 204.021,64.678 204.096,64.602C210.576,57.984 216.497,68.645 213.951,75.142C213.716,75.741 213.353,76.26 212.945,76.73C212.829,76.861 212.942,77.067 213.115,77.041C214.243,76.881 215.448,77.049 216.043,78.073C218.669,82.589 217.889,85.611 217.538,86.405C217.307,86.922 217.014,86.948 216.497,87C216.204,87.028 216.169,87.443 216.455,87.517C217.95,87.903 218.367,90.121 218.236,91.497C218.207,91.776 218.077,92.16 217.924,92.679C216.043,99.07 212.186,97.446 211.28,97.138C211.135,97.086 210.938,97.248 211.032,97.369C213.006,99.896 208.996,103.864 205.057,100.793C204.965,100.721 204.727,100.837 204.806,100.924C206.511,102.803 203.814,107.399 199.457,105.326C199.248,105.227 199.036,105.112 198.819,104.981Z" style="fill:white;fill-opacity:0.25;"/>
    <path d="M108.087,79.859C108.505,81.566 109.08,83.213 109.814,84.801C110.373,86.016 110.739,86.855 110.91,87.321C111.292,88.353 111.578,89.224 111.765,89.934C111.983,90.773 112.115,91.921 112.157,93.374C112.16,93.496 112.115,93.612 112.028,93.695C111.807,93.911 111.447,93.997 110.952,93.959C109.91,93.875 108.959,94.277 108.1,95.161C106.323,94.958 104.232,96.126 102.639,96.977C102.334,97.14 101.778,97.308 100.968,97.482C98.229,98.071 96.266,96.022 95.365,93.721C93.182,88.146 92.043,82.062 92.909,76.08C93.212,73.991 93.918,71.862 95.706,70.735C95.854,70.641 96.024,70.597 96.197,70.606C99.151,70.767 102.067,70.474 104.941,69.738C106.255,72.413 107.136,75.167 107.58,77.999C106.739,77.983 105.937,78.166 105.162,78.337C104.536,78.472 102.257,79.201 101.98,80.018C101.952,80.101 101.945,80.185 101.954,80.265C101.988,80.568 102.257,80.776 102.591,80.773C104.981,80.752 106.884,80.35 108.087,79.859ZM107.012,81.727C106.567,81.789 106.323,82.657 106.466,83.665C106.609,84.672 107.085,85.437 107.531,85.374C107.975,85.312 108.219,84.444 108.076,83.436C107.933,82.429 107.458,81.664 107.012,81.727ZM108.753,85.267L106.567,88.054C106.554,88.07 106.558,88.089 106.574,88.102L106.586,88.112C106.895,88.353 107.602,87.964 108.165,87.244L108.348,87.012C108.914,86.289 109.123,85.511 108.817,85.27L108.804,85.261C108.788,85.248 108.766,85.251 108.753,85.267ZM106.651,86.398L104.568,86.803C104.558,86.807 104.555,86.813 104.555,86.823L104.558,86.839C104.6,87.057 105.089,87.147 105.645,87.041L105.741,87.022C106.297,86.913 106.715,86.646 106.673,86.427L106.67,86.411C106.667,86.405 106.66,86.398 106.651,86.398Z" style="fill:white;fill-opacity:0.95;"/>
    <path d="M179.769,115.029L178.21,115.193C178.21,115.193 173.496,113.649 173.43,107.456C175.85,107.387 177.672,106.439 178.897,104.615C179.533,103.66 179.494,102.835 178.463,102.397C177.61,102.035 176.693,103.188 173.915,103.561C174.313,101.761 174.96,98.617 173.289,98.044C173.16,97.999 173.022,97.999 172.893,98.038C172.491,98.163 171.919,98.276 171.177,98.379C169.393,98.626 169.647,96.64 169.788,95.508C169.958,94.145 171.306,90.396 172.877,86.462C173.465,86.797 174.253,87.048 175.134,87.146C177.078,87.363 178.743,86.758 178.853,85.794C178.962,84.83 177.471,83.869 175.526,83.651C174.996,83.592 174.487,83.594 174.025,83.648C175.601,79.861 177.173,76.396 177.863,75.273C178.821,74.852 179.955,74.679 181.264,74.749C183.514,74.871 184.966,75.996 185.616,78.121C185.716,78.449 185.871,80.008 186.085,82.798C186.469,87.8 190.627,87.65 194.369,88.083C194.452,88.092 194.938,88.262 195.822,88.587C197.037,89.036 197.722,89.789 198.114,90.953C198.3,91.509 198.333,92.123 198.213,92.792C197.808,95.055 196.535,96.392 194.88,97.835C194.643,98.042 194.495,98.33 194.468,98.642C194.269,100.954 196.195,103.348 198.049,104.502C195.526,106.614 192.904,108.748 190.387,110.825C186.835,113.756 179.769,115.029 179.769,115.029ZM174.067,88.926C173.604,88.941 173.253,89.812 173.289,90.872C173.324,91.93 173.729,92.776 174.194,92.762C174.658,92.747 175.008,91.876 174.973,90.816C174.938,89.758 174.533,88.912 174.067,88.926Z" style="fill:white;fill-opacity:0.95;"/>
    <path d="M178.21,115.193C175.005,115.193 171.605,114.279 170.429,112.19C168.147,108.133 166.4,100.74 166.112,93.052C166.234,93.265 166.385,93.39 166.545,93.385C166.91,93.373 167.186,92.688 167.158,91.854C167.13,91.02 166.812,90.355 166.445,90.366C166.302,90.371 166.173,90.479 166.07,90.659C166.073,89.879 166.091,89.1 166.126,88.323L166.207,88.279C167.599,87.504 168.594,86.331 168.358,85.577C168.19,85.039 167.361,84.78 166.391,84.95C166.567,83.399 166.819,81.881 167.156,80.423C168.885,80.674 170.537,80.205 172.115,79.018C173.427,78.032 174.73,77.03 176.018,76.003C176.481,75.634 177.094,75.392 177.863,75.273C177.173,76.396 175.601,79.861 174.025,83.648C172.789,83.791 171.886,84.302 171.806,85.004C171.747,85.531 172.166,86.058 172.877,86.462C171.306,90.396 169.958,94.145 169.788,95.508C169.647,96.64 169.393,98.626 171.177,98.379C171.919,98.276 172.491,98.163 172.893,98.038C173.022,97.999 173.16,97.999 173.289,98.044C174.96,98.617 174.313,101.761 173.915,103.561C172.925,103.694 171.698,103.728 170.154,103.56C169.83,103.524 169.491,103.48 169.138,103.426C168.677,103.355 168.334,103.879 168.44,104.335C168.595,105.007 168.945,105.644 169.491,106.251C170.076,106.647 170.676,106.946 171.291,107.147C171.978,107.372 172.684,107.475 173.41,107.456L173.43,107.456C173.496,113.649 178.21,115.193 178.21,115.193Z" style="fill:white;fill-opacity:0.75;"/>
    <path d="M107.58,77.999C110.146,78.048 110.02,79.069 108.087,79.859C106.884,80.35 104.981,80.752 102.591,80.773C102.257,80.776 101.988,80.568 101.954,80.265C101.945,80.185 101.952,80.101 101.98,80.018C102.257,79.201 104.536,78.472 105.162,78.337C105.937,78.166 106.739,77.983 107.58,77.999Z" style="fill:white;fill-opacity:0.15;"/>
    <path d="M24.15,164.534L23.401,163.972C23.279,163.879 23.185,163.756 23.128,163.615C22.89,163.017 22.874,162.393 23.083,161.747C24.33,157.848 25.442,154.001 26.364,149.816C27.808,143.284 28.708,138.707 30.193,133.445C30.993,130.603 31.649,128.578 32.16,127.369C33.247,124.788 34.998,122.088 37.454,120.622C38.071,120.256 38.775,119.934 39.566,119.655C43.568,118.253 47.695,117.684 51.945,117.945C52.681,117.99 54.744,118.208 58.136,118.6C58.563,118.649 58.994,118.668 59.425,118.652C61.479,118.578 62.932,118.6 63.783,118.719C64.7,118.845 65.821,119.234 67.152,119.886C67.727,120.413 68.438,120.805 69.29,121.063C70.862,121.538 72.426,121.911 73.992,122.149C74.124,122.169 74.253,122.098 74.301,121.972C75.123,119.838 76.448,117.955 78.277,116.321C80.656,114.197 83.415,112.344 86.57,110.793C86.695,110.731 86.689,110.552 86.561,110.497C84.968,109.816 83.346,108.849 81.688,107.607C80.723,106.884 79.74,106.183 78.734,105.502C79.685,104.116 80.1,102.249 80.264,100.786C80.604,97.755 81.581,94.969 83.179,92.416C83.286,92.246 83.281,92.031 83.169,91.866C82.725,91.21 82.427,90.465 82.263,89.642C81.757,87.099 82.229,84.694 83.674,82.432C84.364,81.351 85.404,80.21 86.824,80.94C88.564,81.836 88.816,84.254 89.007,86.08C89.017,86.173 89.049,87.691 89.103,90.635C89.136,92.419 89.234,93.93 89.399,95.171C89.86,98.639 90.786,102.213 92.17,105.894C92.997,108.092 93.971,110.334 95.828,111.812C95.869,111.844 95.876,111.911 95.854,112.014C95.664,112.021 95.516,112.098 95.41,112.242C93.356,115.01 92.372,118.134 92.453,121.616C92.456,121.725 92.543,121.815 92.652,121.821C93.98,121.895 95.179,121.937 96.249,121.947C101.749,121.998 108.698,124.518 111.717,129.491C113.298,132.098 114.68,134.711 115.866,137.324C117.445,140.802 118.73,143.653 120.537,147.029C122.032,149.819 123.452,152.715 124.796,155.717C125.802,157.964 126.673,160.311 127.104,162.689C127.117,162.754 127.12,162.818 127.11,162.882L126.966,164.28C125.831,166.096 124.308,167.524 122.398,168.562C117.583,171.179 112.482,172.182 107.091,171.58C107.004,171.571 106.921,171.638 106.84,171.783C106.709,171.67 106.619,171.677 106.567,171.802C106.188,172.75 106.516,174.528 106.644,175.579L106.57,177.228C106.569,177.251 106.566,177.273 106.561,177.294L99.325,180.764L94.921,178.864C93.269,178.154 91.521,179.092 91.765,180.937C91.872,181.75 92.456,182.374 93.513,182.802C88.088,184.316 82.673,185.614 77.271,186.72C76.538,186.87 75.77,186.904 74.97,186.823C72.086,186.532 69.152,186.038 66.165,185.351C64.542,184.977 62.992,184.627 61.514,184.335C61.411,184.315 61.329,184.238 61.299,184.139C61.27,184.043 61.252,183.942 61.246,183.835C61.251,183.774 61.251,183.706 61.247,183.631C61.038,180.606 60.723,177.588 60.296,174.576C59.653,170.047 59.048,166.077 58.476,162.673C58.377,162.082 58.202,161.439 57.952,160.741C57.881,160.542 57.596,160.549 57.535,160.751C56.338,164.688 54.962,168.532 53.369,172.268C53.327,172.365 53.234,172.426 53.131,172.429L48.624,172.525C41.167,171.67 34.115,169.664 27.47,166.508C26.895,166.235 25.789,165.579 24.15,164.534Z" style="fill:white;fill-opacity:0.95;"/>
    <path d="M107.012,81.727C106.567,81.789 106.323,82.657 106.466,83.665C106.609,84.672 107.085,85.437 107.531,85.374C107.975,85.312 108.219,84.444 108.076,83.436C107.933,82.429 107.458,81.664 107.012,81.727Z" style="fill:white;fill-opacity:0.15;"/>
    <path d="M174.025,83.648C174.487,83.594 174.996,83.592 175.526,83.651C177.471,83.869 178.962,84.83 178.853,85.794C178.743,86.758 177.078,87.363 175.134,87.146C174.253,87.048 173.465,86.797 172.877,86.462C172.166,86.058 171.747,85.531 171.806,85.004C171.886,84.302 172.789,83.791 174.025,83.648Z" style="fill:white;fill-opacity:0.15;"/>
    <path d="M166.391,84.95C167.361,84.78 168.19,85.039 168.358,85.577C168.594,86.331 167.599,87.504 166.207,88.279C166.18,88.294 166.153,88.309 166.126,88.323C166.177,87.188 166.265,86.061 166.391,84.95Z" style="fill:white;fill-opacity:0.15;"/>
    <path d="M108.753,85.267L106.567,88.054C106.554,88.07 106.558,88.089 106.574,88.102L106.586,88.112C106.895,88.353 107.602,87.964 108.165,87.244L108.348,87.012C108.914,86.289 109.123,85.511 108.817,85.27L108.804,85.261C108.788,85.248 108.766,85.251 108.753,85.267Z" style="fill:white;fill-opacity:0.85;"/>
    <path d="M106.651,86.398L104.568,86.803C104.558,86.807 104.555,86.813 104.555,86.823L104.558,86.839C104.6,87.057 105.089,87.147 105.645,87.041L105.741,87.022C106.297,86.913 106.715,86.646 106.673,86.427L106.67,86.411C106.667,86.405 106.66,86.398 106.651,86.398Z" style="fill:white;fill-opacity:0.85;"/>
    <path d="M174.067,88.926C173.604,88.941 173.253,89.812 173.289,90.872C173.324,91.93 173.729,92.776 174.194,92.762C174.658,92.747 175.008,91.876 174.973,90.816C174.938,89.758 174.533,88.912 174.067,88.926Z" style="fill:white;fill-opacity:0.15;"/>
    <path d="M166.07,90.659C166.173,90.479 166.302,90.371 166.445,90.366C166.812,90.355 167.13,91.02 167.158,91.854C167.186,92.688 166.91,93.373 166.545,93.385C166.385,93.39 166.234,93.265 166.112,93.052C166.082,92.257 166.068,91.458 166.07,90.659Z" style="fill:white;fill-opacity:0.15;"/>
    <path d="M171.291,107.147C170.676,106.946 170.076,106.647 169.491,106.251C168.945,105.644 168.595,105.007 168.44,104.335C168.334,103.879 168.677,103.355 169.138,103.426C169.491,103.48 169.83,103.524 170.154,103.56C171.698,103.728 172.925,103.694 173.915,103.561C176.693,103.188 177.61,102.035 178.463,102.397C179.494,102.835 179.533,103.66 178.897,104.615C177.672,106.439 175.85,107.387 173.43,107.456L173.41,107.456C172.684,107.475 171.978,107.372 171.291,107.147Z" style="fill:white;fill-opacity:0.15;"/>
    <path d="M179.769,115.029C179.769,115.029 186.835,113.756 190.387,110.825C192.904,108.748 195.526,106.614 198.049,104.502L198.599,104.843L198.523,104.941C197.516,106.198 189.146,115.742 187.075,118.202C185.847,119.664 184.751,121.25 183.793,122.966C183.713,123.11 183.514,123.129 183.408,123.004C183.334,122.917 183.294,122.779 183.298,122.583C183.312,121.876 183.208,121.191 182.98,120.529C182.591,119.401 182.074,118.433 181.424,117.623C181.479,117.601 180.361,115.957 179.769,115.029Z" style="fill:white;fill-opacity:0.75;"/>
    <path d="M197.149,176.651C197.143,176.819 197.113,176.967 197.059,177.093C197.019,177.187 196.927,177.246 196.828,177.244C190.48,177.111 184.172,176.64 177.911,175.589C177.435,175.509 176.959,175.457 176.481,175.431C177.053,170.028 177.478,166.392 177.757,164.525C178.877,157.007 179.532,151.542 179.743,148.138C179.839,146.601 179.877,145.505 179.859,144.849C179.852,144.602 179.734,144.433 179.502,144.348C179.387,144.305 179.261,144.37 179.222,144.486C177.863,148.609 176.308,152.642 174.529,156.582C174.471,156.71 174.34,156.791 174.195,156.784L169.136,156.54C167.962,156.444 166.786,156.52 165.709,156.373C164.076,156.15 162.967,155.968 162.385,155.83C158.569,154.92 154.91,153.537 151.415,151.686C150.833,151.378 149.66,150.613 147.898,149.394C147.191,148.507 145.915,148.517 146.503,146.887C149.804,137.688 153.504,128.649 161.675,122.67C166.641,119.038 172.263,117.286 178.538,117.418C179.329,117.437 180.418,117.655 181.424,117.623C182.074,118.433 182.591,119.401 182.98,120.529C183.208,121.191 183.312,121.876 183.298,122.583C183.294,122.779 183.334,122.917 183.408,123.004C183.514,123.129 183.713,123.11 183.793,122.966C184.751,121.25 185.847,119.664 187.075,118.202C189.146,115.742 197.516,106.198 198.523,104.941C198.549,104.909 198.574,104.876 198.599,104.843C198.672,104.893 198.746,104.939 198.819,104.981C199.036,105.112 199.248,105.227 199.457,105.326C198.885,106.958 198.647,108.459 198.744,109.825C198.76,110.092 198.911,110.928 199.197,112.336C199.213,112.422 199.239,112.506 199.274,112.586C199.791,113.776 200.502,114.856 201.405,115.826C201.46,115.887 201.521,115.939 201.588,115.981C202.556,116.617 203.716,117.164 205.073,117.617C206.214,117.999 207.207,117.977 208.374,118.163C208.766,118.224 209.165,118.24 209.56,118.211C214.886,117.826 219.772,120.089 223.462,123.753C226.995,127.263 229.65,131.333 231.421,135.958C232.733,139.378 233.935,143.274 235.031,147.646C235.053,147.739 235.021,147.839 234.947,147.903L231.338,150.924C231.326,150.927 231.31,150.954 231.291,151.002L222.051,152.172C221.912,151.902 221.832,151.714 221.817,151.612C221.676,150.703 221.214,147.623 220.254,146.955C220.158,146.887 220.026,146.897 219.939,146.977C219.527,147.362 219.228,147.748 219.043,148.131C218.271,149.724 217.638,151.174 217.143,152.477C217.068,152.673 216.947,152.792 216.776,152.834L216.777,152.842C209.12,153.817 203.442,154.549 203.202,154.608C202.434,154.492 201.692,154.719 200.978,155.286C200.05,156.024 199.242,157.029 198.554,158.298C197.847,159.603 197.764,161.294 197.721,162.741C197.585,167.373 197.39,172.005 197.149,176.63L197.149,176.651Z" style="fill:white;fill-opacity:0.95;"/>
    <path d="M203.202,154.608C203.379,154.779 203.475,154.939 203.491,155.087L203.491,155.089C203.507,155.24 203.409,155.392 203.195,155.55C200.901,157.248 200.478,159.449 200.383,162.432C200.107,171.053 199.758,176.077 199.592,183.846C199.534,186.588 199.368,190.992 199.084,197.058C199.024,198.347 199.634,199.284 200.209,200.51C200.255,200.606 200.319,200.696 200.399,200.767C201.138,201.423 202.083,201.482 202.884,201.892C202.935,201.918 202.99,201.931 203.048,201.921C218.924,199.88 236.841,197.556 256.802,194.949C257.824,194.817 258.75,194.441 259.576,193.827C260.37,195.007 260.023,195.698 258.541,195.9C238.435,198.623 219.184,201.22 200.791,203.692C200.113,203.782 198.663,203.27 197.972,203.126C187.428,200.932 177.732,198.923 168.875,197.128C168.763,197.106 168.657,197.06 168.567,196.993C167.759,196.398 167.593,195.749 168.081,195.023L197.365,200.555C197.519,200.584 197.654,200.442 197.612,200.288C197.386,199.461 197.03,198.945 196.555,198.739C196.58,198.679 196.655,196.136 196.745,192.794L196.751,192.577L196.79,191.115L196.882,187.527C197.015,182.251 197.14,177.022 197.149,176.651L197.149,176.63C197.39,172.005 197.585,167.373 197.721,162.741C197.764,161.294 197.847,159.603 198.554,158.298C199.242,157.029 200.05,156.024 200.978,155.286C201.692,154.719 202.434,154.492 203.202,154.608Z" style="fill:white;fill-opacity:0.5;"/>
    <path d="M67.152,119.886C71.144,116.46 75.15,112.281 73.851,106.479C75.77,107.472 77.396,107.144 78.734,105.502C79.74,106.183 80.723,106.884 81.688,107.607C83.346,108.849 84.968,109.816 86.561,110.497C86.689,110.552 86.695,110.731 86.57,110.793C83.415,112.344 80.656,114.197 78.277,116.321C76.448,117.955 75.123,119.838 74.301,121.972C74.253,122.098 74.124,122.169 73.992,122.149C72.426,121.911 70.862,121.538 69.29,121.063C68.438,120.805 67.727,120.413 67.152,119.886Z" style="fill:white;fill-opacity:0.85;"/>
    <path d="M176.481,175.431L165.577,173.226C165.526,173.216 165.493,173.168 165.5,173.117C165.818,170.757 166.278,168.42 166.808,166.103C167.532,162.943 168.306,159.754 169.136,156.54L174.195,156.784C174.34,156.791 174.471,156.71 174.529,156.582C176.308,152.642 177.863,148.609 179.222,144.486C179.261,144.37 179.387,144.305 179.502,144.348C179.734,144.433 179.852,144.602 179.859,144.849C179.877,145.505 179.839,146.601 179.743,148.138C179.532,151.542 178.877,157.007 177.757,164.525C177.478,166.392 177.053,170.028 176.481,175.431Z" style="fill:white;fill-opacity:0.5;"/>
    <path d="M222.051,152.172C221.912,151.902 221.832,151.714 221.817,151.612C221.676,150.703 221.214,147.623 220.254,146.955C220.158,146.887 220.026,146.897 219.939,146.977C219.527,147.362 219.228,147.748 219.043,148.131C218.271,149.724 217.638,151.174 217.143,152.477C217.068,152.673 216.947,152.792 216.776,152.834L216.779,152.842L222.051,152.172Z" style="fill:white;fill-opacity:0.5;"/>
    <path d="M216.776,152.834L216.777,152.842L216.779,152.842L216.776,152.834Z" style="fill:white;fill-opacity:0.95;"/>
    <path d="M231.291,151.002C245.264,149.236 259.207,147.485 259.207,147.485C259.245,147.482 259.284,147.482 259.319,147.488C261.126,147.739 262.379,148.613 263.077,150.108C263.485,150.979 263.713,152.149 263.633,153.027C263.552,153.94 263.575,154.582 263.533,155.463C263.26,161.262 263.028,167.17 262.845,173.184C262.73,176.884 262.514,180.899 262.427,184.763L262.289,188.449C262.286,188.504 262.28,188.559 262.263,188.613L261.637,191.056C261.614,191.143 261.576,191.224 261.521,191.294L259.576,193.827C258.75,194.441 257.824,194.817 256.802,194.949C236.841,197.556 218.924,199.88 203.048,201.921C202.99,201.931 202.935,201.918 202.884,201.892C202.083,201.482 201.138,201.423 200.399,200.767C200.319,200.696 200.255,200.606 200.209,200.51C199.634,199.284 199.024,198.347 199.084,197.058C199.368,190.992 199.534,186.588 199.592,183.846C199.758,176.077 200.107,171.053 200.383,162.432C200.478,159.449 200.901,157.248 203.195,155.55C203.409,155.392 203.507,155.24 203.491,155.089L203.491,155.087C203.475,154.939 203.379,154.779 203.202,154.608C203.442,154.549 209.12,153.817 216.777,152.842L216.779,152.842L222.051,152.172L231.291,151.002ZM238.558,167.605C236.429,165.544 232.755,165.888 230.346,168.371C227.937,170.857 227.712,174.541 229.839,176.603C231.968,178.665 235.642,178.321 238.051,175.838C240.46,173.351 240.685,169.668 238.558,167.605Z" style="fill:white;fill-opacity:0.75;"/>
    <path d="M145.317,182.384C145.14,180.773 145.044,179.639 145.024,178.973C144.854,173.429 145.011,168.739 145.494,164.91C146.059,160.397 146.461,157.53 146.702,156.312C147.152,154.033 147.551,151.725 147.898,149.394C149.66,150.613 150.833,151.378 151.415,151.686C154.91,153.537 158.569,154.92 162.385,155.83C162.967,155.968 164.076,156.15 165.709,156.373C166.786,156.52 167.962,156.444 169.136,156.54C168.306,159.754 167.532,162.943 166.808,166.103C166.278,168.42 165.818,170.757 165.5,173.117C165.493,173.168 165.526,173.216 165.577,173.226L176.481,175.431C176.959,175.457 177.435,175.509 177.911,175.589C184.172,176.64 190.48,177.111 196.828,177.244C196.927,177.246 197.019,177.187 197.059,177.093C197.113,176.967 197.143,176.819 197.149,176.651L196.879,187.517C196.645,187.697 196.471,187.797 196.358,187.813C189.584,188.79 182.53,189.536 175.185,190.028C172.829,190.185 170.778,190.25 169.026,190.221C165.134,190.156 153.06,189.488 150.974,189.086C148.335,188.578 146.633,187.051 145.863,184.509C145.639,183.766 145.455,183.056 145.317,182.384Z" style="fill:white;fill-opacity:0.75;"/>
    <path d="M61.246,183.835C61.219,184.166 61.062,184.308 60.775,184.261C58.012,183.806 55.546,183.855 53.366,184.419C53.227,184.454 53.086,184.454 52.948,184.419L46.779,182.776C46.715,182.757 46.673,182.692 46.683,182.628C47.121,179.782 47.568,176.663 48.03,173.274C48.058,173.068 48.255,172.818 48.624,172.525L53.131,172.429C53.234,172.426 53.327,172.365 53.369,172.268C54.962,168.532 56.338,164.688 57.535,160.751C57.596,160.549 57.881,160.542 57.952,160.741C58.202,161.439 58.377,162.082 58.476,162.673C59.048,166.077 59.653,170.047 60.296,174.576C60.723,177.588 61.038,180.606 61.247,183.631C61.251,183.706 61.251,183.774 61.246,183.835Z" style="fill:white;fill-opacity:0.5;"/>
    <path d="M99.325,180.764L108.415,176.405C108.454,176.386 108.47,176.341 108.454,176.299L106.84,171.783C106.921,171.638 107.004,171.571 107.091,171.58C112.482,172.182 117.583,171.179 122.398,168.562C124.308,167.524 125.831,166.096 126.966,164.28C128.48,169.632 129.283,175.039 129.377,180.5C129.393,181.461 129.283,182.561 129.052,183.805C128.843,185.045 128.229,186.202 127.21,187.276C126.5,188.025 125.674,188.527 124.725,188.781C123.597,189.083 123.021,189.242 122.993,189.26C122.864,189.338 122.152,189.554 120.865,189.944C120.794,189.966 120.788,190.063 120.855,190.092L116.93,188.647C116.968,188.66 117.011,188.641 117.03,188.604C117.049,188.568 117.039,188.521 117.004,188.498C116.434,188.117 115.645,187.922 115.008,187.643C109.809,185.363 104.581,183.075 99.325,180.764Z" style="fill:white;fill-opacity:0.75;"/>
    <path d="M120.855,190.092C122.853,190.953 124.788,191.951 126.667,193.078C127.352,193.489 128.309,194.1 128.396,194.994C128.47,195.756 128.162,196.524 127.467,197.299L126.776,197.781C126.699,197.832 126.638,197.903 126.599,197.987C125.681,199.965 124.166,201.269 122.061,201.908C121.742,202.005 121.232,202.142 120.534,202.31C120.331,202.359 120.14,202.45 119.974,202.577C119.662,202.818 118.843,203.406 117.525,204.351C116.426,205.139 115.246,205.742 113.912,205.843C113.536,205.871 113.163,205.923 112.793,206C110.161,205.955 107.522,205.888 104.87,205.798C100.161,205.637 95.603,206.154 90.916,205.447C87.65,204.955 85.149,203.867 82.691,201.902C82.465,201.722 82.18,201.639 81.893,201.67C79.384,201.945 76.927,202.412 74.532,203.091C72.459,203.679 70.862,204.072 69.746,204.268C56.843,206.498 44.073,206 31.138,203.75C29.54,203.47 28.371,203.106 27.625,202.654C26.407,201.916 25.506,201.079 24.928,200.137C23.681,198.109 22.899,195.827 22.581,193.29C21.797,187.53 22.536,181.722 23.23,175.794C23.664,172.082 23.97,168.331 24.15,164.534C25.789,165.579 26.895,166.235 27.47,166.508C34.115,169.664 41.167,171.67 48.624,172.525C48.255,172.818 48.058,173.068 48.03,173.274C47.568,176.663 47.121,179.782 46.683,182.628C46.673,182.692 46.715,182.757 46.779,182.776L52.948,184.419C52.948,184.419 81.2,192.63 102.385,186.334C104.51,185.879 106.249,185.656 108.444,186.151C110.615,186.641 112.823,187.211 115.029,187.957L116.927,188.646C116.928,188.646 120.855,190.092 120.855,190.092Z" style="fill:white;fill-opacity:0.85;"/>
    <path d="M116.927,188.646L115.029,187.957C112.823,187.211 110.615,186.641 108.444,186.151C106.249,185.656 104.51,185.879 102.385,186.334C102.054,186.405 101.707,186.373 101.395,186.238L93.513,182.802C92.456,182.374 91.872,181.75 91.765,180.937C91.521,179.092 93.269,178.154 94.921,178.864L99.325,180.764C104.581,183.075 109.809,185.363 115.008,187.643C115.645,187.922 116.434,188.117 117.004,188.498C117.039,188.521 117.049,188.568 117.03,188.604C117.01,188.642 116.966,188.661 116.927,188.646Z" style="fill:white;fill-opacity:0.5;"/>
    <path d="M52.948,184.419C52.948,184.419 81.2,192.63 102.385,186.334C102.054,186.405 101.707,186.373 101.395,186.238L93.513,182.802C88.088,184.316 82.673,185.614 77.271,186.72C76.538,186.87 75.77,186.904 74.97,186.823C72.086,186.532 69.152,186.038 66.165,185.351C64.542,184.977 62.992,184.627 61.514,184.335C61.411,184.315 61.329,184.238 61.299,184.139C61.27,184.043 61.252,183.942 61.246,183.835C61.219,184.166 61.062,184.308 60.775,184.261C58.012,183.806 55.546,183.855 53.366,184.419C53.227,184.454 53.086,184.454 52.948,184.419Z" style="fill:white;fill-opacity:0.75;"/>
    <path d="M238.558,167.605C236.429,165.544 232.755,165.888 230.346,168.371C227.937,170.857 227.712,174.541 229.839,176.603C231.968,178.665 235.642,178.321 238.051,175.838C240.46,173.351 240.685,169.668 238.558,167.605Z" style="fill:white;fill-opacity:0.95;"/>
    <path d="M0.27,197.675C0.112,196.746 0.469,196.087 1.334,195.692C2.716,195.062 18.402,193.705 22.581,193.29C22.899,195.827 23.681,198.109 24.928,200.137C25.506,201.079 26.407,201.916 27.625,202.654C28.371,203.106 29.54,203.47 31.138,203.75C44.073,206 56.843,206.498 69.746,204.268C70.862,204.072 72.459,203.679 74.532,203.091C76.927,202.412 79.384,201.945 81.893,201.67C82.18,201.639 82.465,201.722 82.691,201.902C85.149,203.867 87.65,204.955 90.916,205.447C95.603,206.154 100.161,205.637 104.87,205.798C107.522,205.888 110.161,205.955 112.793,206L129.467,220.076C129.643,220.227 129.878,220.291 130.106,220.25C146.545,217.405 162.996,214.576 179.46,211.764C179.47,211.76 179.602,211.745 179.862,211.715C180.306,211.665 180.573,211.481 180.662,211.166C180.753,210.845 180.608,210.503 180.309,210.336C173.103,206.315 163.253,200.841 150.768,193.901C150.659,193.843 150.531,193.843 150.428,193.904L150.212,194.026C150.19,194.043 150.164,194.052 150.135,194.055L127.467,197.299C128.162,196.524 128.47,195.756 128.396,194.994C128.309,194.1 127.352,193.489 126.667,193.078C124.788,191.951 122.853,190.953 120.855,190.092C120.788,190.063 120.794,189.966 120.865,189.944C122.152,189.554 122.864,189.338 122.993,189.26C123.021,189.242 123.597,189.083 124.725,188.781C125.674,188.527 126.5,188.025 127.21,187.276C128.229,186.202 128.843,185.045 129.052,183.805L145.317,182.384C145.455,183.056 145.639,183.766 145.863,184.509C146.633,187.051 148.335,188.578 150.974,189.086C153.06,189.488 165.134,190.156 169.026,190.221C170.778,190.25 172.829,190.185 175.185,190.028C182.53,189.536 189.584,188.79 196.358,187.813C196.471,187.797 196.645,187.697 196.879,187.517L196.882,187.527L196.79,191.115C183.587,192.652 174.274,193.778 168.846,194.441C168.576,194.474 168.322,194.666 168.081,195.023C167.593,195.749 167.759,196.398 168.567,196.993C168.657,197.06 168.763,197.106 168.875,197.128C177.732,198.923 187.428,200.932 197.972,203.126C198.663,203.27 200.113,203.782 200.791,203.692C219.184,201.22 238.435,198.623 258.541,195.9C260.023,195.698 260.37,195.007 259.576,193.827L261.521,191.294C261.576,191.224 261.614,191.143 261.637,191.056L262.263,188.613C262.28,188.559 262.286,188.504 262.289,188.449L262.427,184.763C273.446,193.011 297.609,211.179 298.564,212.191C299.306,212.979 299.94,213.956 299.374,215.023C298.493,215.659 76.059,235.741 60.64,237.09C58.065,237.315 55.645,237.08 53.375,236.386C50.338,235.457 47.454,233.949 44.722,231.866C37.29,226.209 1.324,199.076 0.27,197.675Z" style="fill:white;fill-opacity:0.25;"/>
    <path d="M196.79,191.115C183.587,192.652 174.274,193.778 168.846,194.441C168.576,194.474 168.322,194.666 168.081,195.023L197.365,200.555C197.519,200.584 197.654,200.442 197.612,200.288C197.386,199.461 197.03,198.945 196.555,198.739C191.248,197.855 186.009,197.021 180.846,196.199C180.389,196.127 180.001,196.016 179.676,195.865C179.3,195.691 179.233,195.187 179.547,194.92C179.898,194.622 180.29,194.454 180.72,194.412C183.878,194.107 194.351,192.864 196.751,192.577L196.79,191.115Z" style="fill:white;fill-opacity:0.75;"/>
    <path d="M196.555,198.739C196.58,198.679 196.655,196.136 196.745,192.794L196.751,192.577C194.351,192.864 183.878,194.107 180.72,194.412C180.29,194.454 179.898,194.622 179.547,194.92C179.233,195.187 179.3,195.691 179.676,195.865C180.001,196.016 180.389,196.127 180.846,196.199C186.009,197.021 191.248,197.855 196.555,198.739Z" style="fill:white;fill-opacity:0.35;"/>
    <path d="M112.793,206L129.467,220.076C129.643,220.227 129.878,220.291 130.106,220.25C146.545,217.405 162.996,214.576 179.46,211.764C179.47,211.76 179.602,211.745 179.862,211.715C180.306,211.665 180.573,211.481 180.662,211.166C180.753,210.845 180.608,210.503 180.309,210.336C173.103,206.315 163.253,200.841 150.768,193.901C150.659,193.843 150.531,193.843 150.428,193.904L150.212,194.026C150.19,194.043 150.164,194.052 150.135,194.055L127.467,197.299L126.776,197.781C126.699,197.832 126.638,197.903 126.599,197.987C125.681,199.965 124.166,201.269 122.061,201.908C121.742,202.005 121.232,202.142 120.534,202.31C120.331,202.359 120.14,202.45 119.974,202.577C119.662,202.818 118.843,203.406 117.525,204.351C116.426,205.139 115.246,205.742 113.912,205.843C113.536,205.871 113.163,205.923 112.793,206Z" style="fill:white;fill-opacity:0.95;"/>
    <path d="M299.374,215.023C299.653,216.473 300.383,223.577 299.747,225.836C299.666,226.119 299.47,226.354 299.203,226.486C298.072,227.038 64.114,247.286 63.07,247.591C61.948,247.919 60.527,247.643 59.373,247.871C59.139,247.919 58.901,247.919 58.666,247.874C57.682,247.694 56.464,247.813 55.387,247.556C51.54,246.646 48.267,245.177 45.571,243.155C33.742,234.287 1.459,210.034 0.816,209.24C-0.026,208.199 -0.232,200.288 0.27,197.675C1.324,199.076 37.29,226.209 44.722,231.866C47.454,233.949 50.338,235.457 53.375,236.386C55.645,237.08 58.065,237.315 60.64,237.09C76.059,235.741 298.493,215.659 299.374,215.023Z" style="fill:white;fill-opacity:0.1;"/>
</svg>
