<?xml version="1.0" encoding="UTF-8" standalone="no"?>
<!DOCTYPE svg PUBLIC "-//W3C//DTD SVG 1.1//EN" "http://www.w3.org/Graphics/SVG/1.1/DTD/svg11.dtd">
<svg width="100%" height="100%" viewBox="0 0 300 300" version="1.1" xmlns="http://www.w3.org/2000/svg" xmlns:xlink="http://www.w3.org/1999/xlink" xml:space="preserve" xmlns:serif="http://www.serif.com/" style="fill-rule:evenodd;clip-rule:evenodd;stroke-linejoin:round;stroke-miterlimit:2;">
    <path d="M206.879,111.703C207.877,108.882 208.17,106.161 207.759,103.536C207.353,102.149 206.569,101.121 205.399,100.455C205.21,100.346 205.005,100.279 204.791,100.258C204.015,100.178 203.382,100.052 202.892,99.885C201.131,99.273 200.724,98.216 200.389,96.392C199.777,93.101 193.92,72.99 191.459,67.577C190.876,66.299 190.306,65.494 189.744,65.163C188.939,64.689 187.967,64.664 186.826,65.091C180.722,69.791 174.567,73.812 168.367,77.153C164.48,79.249 160.208,80.96 155.55,82.28C151.693,83.094 148.222,83.551 145.136,83.647C142.826,83.718 138.86,83.681 133.238,83.526C129.758,83.433 126.61,83.479 123.39,84.188C123.18,84.234 123.034,84.419 123.038,84.632C123.059,87.483 122.904,90.41 122.577,93.411C122.103,97.818 121.42,101.214 120.531,103.603C120.246,104.362 120.145,105.28 119.902,106.354C119.772,106.903 119.667,107.599 119.579,108.437C119.055,113.363 118.959,118.671 119.29,124.352C119.386,126.016 119.734,127.5 120.334,128.813C104.542,134.726 93.638,82.584 99.62,67.577C109.732,42.213 135.606,46.057 145.136,42.213C158.73,36.729 145.136,22.232 148.446,10.803C153.177,-5.537 178.832,1.445 179.569,1.689C201.238,8.853 182.583,27.385 186.826,37.97C189.466,44.555 204.594,56.227 206.879,61.927C209.94,69.563 216.5,95.649 206.879,111.703Z" style="fill:white;fill-opacity:0.35;fill-rule:nonzero;"/>
    <path d="M73.206,62.11C73.453,62.123 73.588,62.408 73.432,62.605C69.642,67.38 66.716,72.491 64.658,77.933C63.396,81.274 62.285,85.085 61.333,89.366C61.031,90.72 60.721,92.917 60.398,95.952C59.195,107.393 61.132,118.906 67.005,128.511C68.573,131.072 70.598,133.45 73.084,135.638C73.684,136.166 73.801,137.055 73.361,137.722L73.307,137.801C72.925,138.376 72.137,138.506 71.592,138.082C67.295,134.762 64.012,129.588 61.874,124.733C59.446,119.22 58.025,113.54 57.61,107.699C56.612,93.726 59.757,80.759 67.039,68.802C68.108,67.049 69.814,64.949 72.166,62.496C72.422,62.228 72.778,62.089 73.147,62.106L73.206,62.11Z" style="fill:white;fill-opacity:0.95;fill-rule:nonzero;"/>
    <path d="M207.759,103.536C208.17,106.161 207.877,108.882 206.879,111.703C205.919,115.208 203.831,117.757 200.624,119.35C199.664,119.824 198.917,120.273 198.377,120.692C198.28,120.767 198.205,120.872 198.163,120.99C195.878,127.555 192.679,133.336 188.575,138.338C187.212,139.994 185.56,141.432 183.627,142.644C182.99,143.042 182.194,143.562 181.242,144.203C178.601,145.977 175.888,147.532 174.756,150.706C173.955,152.949 173.515,154.68 173.444,155.909C173.28,158.68 173.188,160.357 173.176,160.935C173.171,161.225 173.209,161.531 173.297,161.854C171.369,164.155 169.184,165.874 166.74,167.019C159.873,170.238 151.475,169.836 144.252,167.903C141.908,167.274 140.286,166.905 139.376,166.792C139.397,166.239 139.682,165.677 140.223,165.107C141.493,163.971 142.633,162.776 143.64,161.531C146.667,157.766 149.408,153.804 151.861,149.645C153.056,147.624 154.129,145.545 155.085,143.402C155.156,143.247 155.228,143.084 155.303,142.916C156.23,140.87 156.775,138.791 156.938,136.682C158.313,136.602 159.768,136.347 161.307,135.911C164.04,135.135 166.203,133.529 167.792,131.085C167.847,130.997 167.893,130.901 167.927,130.8C168.249,129.806 167.973,129.039 167.101,128.507C166.551,128.171 166.061,128.058 165.629,128.167C163.516,128.695 161.403,129.148 159.286,129.525L158.909,129.513C158.783,129.509 158.699,129.374 158.745,129.257C158.951,128.733 159.148,127.957 159.328,126.93C159.936,123.518 159.902,120.306 159.227,117.292C158.028,111.955 149.899,118.193 149.702,113.598C149.605,111.431 149.723,108.924 150.046,106.069C150.511,101.926 151.203,97.876 152.113,93.919C152.389,92.716 152.98,91.043 153.333,89.621C153.513,88.888 153.857,87.827 154.36,86.431C154.842,85.094 155.24,83.71 155.55,82.28C160.208,80.96 164.48,79.249 168.367,77.153C174.567,73.812 180.722,69.791 186.826,65.091C187.967,64.664 188.939,64.689 189.744,65.163C190.306,65.494 190.876,66.299 191.459,67.577C193.92,72.99 199.777,93.101 200.389,96.392C200.724,98.216 201.131,99.273 202.892,99.885C203.382,100.052 204.015,100.178 204.791,100.258C205.005,100.279 205.21,100.346 205.399,100.455C206.569,101.121 207.353,102.149 207.759,103.536ZM180.722,92.317C180.655,92.12 180.538,91.973 180.366,91.869C176.756,89.647 172.689,88.38 168.161,88.066C166.69,87.965 162.782,88.204 161.843,89.567C161.55,89.99 161.789,90.577 162.292,90.678C162.816,90.783 163.39,90.841 164.007,90.85C170.383,90.93 175.251,90.846 180.148,92.858C180.491,93.001 180.839,92.669 180.722,92.317ZM173.892,100.74L173.419,100.656C173.31,100.635 173.201,100.656 173.108,100.711C170.438,102.253 167.205,102.086 164.183,101.423C164.002,101.381 163.826,101.314 163.663,101.226C162.657,100.66 160.598,99.164 159.948,100.912C159.902,101.038 159.915,101.176 159.978,101.293C160.414,102.086 160.787,102.568 161.101,102.748C164.355,104.622 167.671,104.899 171.046,103.574C172.589,102.97 173.36,102.664 174.186,101.444C174.37,101.172 174.215,100.799 173.892,100.74Z" style="fill:white;fill-opacity:0.85;"/>
    <path d="M85.377,78.373C84.928,79.451 83.935,80.767 83.415,81.802C82.824,82.989 82.199,84.222 81.813,85.349C78.17,96.036 77.902,108.374 82.4,118.872C82.794,119.79 83.675,121.522 85.037,124.063C85.192,124.348 85.318,124.65 85.41,124.96L85.582,125.522C85.754,126.088 85.251,126.628 84.677,126.494C84.086,126.356 83.608,126.041 83.247,125.551C80.87,122.31 79.235,118.738 78.35,114.839C77.382,110.567 76.942,106.437 77.03,102.446C77.172,96.007 78.04,90.078 80.446,84.381C81.36,82.213 82.92,78.956 85.012,78.017C85.238,77.916 85.473,78.142 85.377,78.373Z" style="fill:white;fill-opacity:0.95;fill-rule:nonzero;"/>
    <path d="M155.55,82.28C155.24,83.71 154.842,85.094 154.36,86.431C153.857,87.827 153.513,88.888 153.333,89.621C152.98,91.043 152.389,92.716 152.113,93.919C151.203,97.876 150.511,101.926 150.046,106.069C149.723,108.924 149.605,111.431 149.702,113.598C149.899,118.193 158.028,111.955 159.227,117.292C159.902,120.306 159.936,123.518 159.328,126.93C159.148,127.957 158.951,128.733 158.745,129.257C158.699,129.374 158.783,129.509 158.909,129.513L159.286,129.525C156.67,129.886 154.058,130.012 151.446,129.899C150.838,129.873 150.268,129.806 149.731,129.701C148.344,129.433 146.956,129.014 146.231,130.548C145.786,131.483 146.558,132.821 147.274,133.542C149.823,136.116 152.939,136.799 156.938,136.682C156.775,138.791 156.23,140.87 155.303,142.916C155.228,143.084 155.156,143.247 155.085,143.402C154.129,145.545 153.056,147.624 151.861,149.645C149.408,153.804 146.667,157.766 143.64,161.531C142.633,162.776 141.493,163.971 140.223,165.107C140.533,162.986 141.099,160.65 140.906,158.688C140.491,154.479 138.604,150.178 136.211,146.803C135.523,145.826 134.764,145.247 134.165,144.526C133.9,144.216 133.59,143.948 133.246,143.729C131.196,142.451 129.029,140.761 126.744,138.661C126.207,138.17 125.855,137.789 125.683,137.525C125.339,136.984 124.862,136.661 124.421,136.17C123.268,134.892 122.153,133.139 121.08,130.917C120.682,130.091 120.434,129.387 120.334,128.813C119.734,127.5 119.386,126.016 119.29,124.352C118.959,118.671 119.055,113.363 119.579,108.437C119.667,107.599 119.772,106.903 119.902,106.354C120.145,105.28 120.246,104.362 120.531,103.603C121.42,101.214 122.103,97.818 122.577,93.411C122.904,90.41 123.059,87.483 123.038,84.632C123.034,84.419 123.18,84.234 123.39,84.188C126.61,83.479 129.758,83.433 133.238,83.526C138.86,83.681 142.826,83.718 145.136,83.647C148.222,83.551 151.693,83.094 155.55,82.28ZM130.182,92.745C133.23,92.082 136.294,91.957 139.384,92.372C141.279,92.627 143.325,92.749 145.518,92.736C145.95,92.732 146.319,92.393 146.381,91.932C146.436,91.533 146.21,91.206 145.711,90.946C141.065,88.544 135.263,89.634 130.492,91.563C130.09,91.726 129.842,91.965 129.75,92.288C129.674,92.552 129.909,92.804 130.182,92.745ZM146.608,99.968L146.138,99.885C146.029,99.868 145.92,99.885 145.828,99.939C143.166,101.486 139.938,101.327 136.915,100.673C136.735,100.635 136.563,100.568 136.395,100.48C135.389,99.918 133.33,98.426 132.689,100.174C132.643,100.3 132.651,100.438 132.718,100.555C133.154,101.344 133.532,101.826 133.842,102.006C137.095,103.867 140.407,104.136 143.774,102.807C145.312,102.199 146.084,101.893 146.906,100.673C147.09,100.396 146.931,100.023 146.608,99.968Z" style="fill:white;fill-opacity:0.7;fill-rule:nonzero;"/>
    <path d="M180.722,92.317C180.839,92.669 180.491,93.001 180.148,92.858C175.251,90.846 170.383,90.93 164.007,90.85C163.39,90.841 162.816,90.783 162.292,90.678C161.789,90.577 161.55,89.99 161.843,89.567C162.782,88.204 166.69,87.965 168.161,88.066C172.689,88.38 176.756,89.647 180.366,91.869C180.538,91.973 180.655,92.12 180.722,92.317Z" style="fill:white;fill-opacity:0.15;fill-rule:nonzero;"/>
    <path d="M130.182,92.745C129.909,92.804 129.674,92.552 129.75,92.288C129.842,91.965 130.09,91.726 130.492,91.563C135.263,89.634 141.065,88.544 145.711,90.946C146.21,91.206 146.436,91.533 146.381,91.932C146.319,92.393 145.95,92.732 145.518,92.736C143.325,92.749 141.279,92.627 139.384,92.372C136.294,91.957 133.23,92.082 130.182,92.745Z" style="fill:white;fill-opacity:0.15;fill-rule:nonzero;"/>
    <path d="M146.608,99.968C146.931,100.023 147.09,100.396 146.906,100.673C146.084,101.893 145.312,102.199 143.774,102.807C140.407,104.136 137.095,103.867 133.842,102.006C133.532,101.826 133.154,101.344 132.718,100.555C132.651,100.438 132.643,100.3 132.689,100.174C133.33,98.426 135.389,99.918 136.395,100.48C136.563,100.568 136.735,100.635 136.915,100.673C139.938,101.327 143.166,101.486 145.828,99.939C145.92,99.885 146.029,99.868 146.138,99.885L146.608,99.968Z" style="fill:white;fill-opacity:0.15;fill-rule:nonzero;"/>
    <path d="M173.892,100.74C174.215,100.799 174.37,101.172 174.186,101.444C173.36,102.664 172.589,102.97 171.046,103.574C167.671,104.899 164.355,104.622 161.101,102.748C160.787,102.568 160.414,102.086 159.978,101.293C159.915,101.176 159.902,101.038 159.948,100.912C160.598,99.164 162.657,100.66 163.663,101.226C163.826,101.314 164.002,101.381 164.183,101.423C167.205,102.086 170.438,102.253 173.108,100.711C173.201,100.656 173.31,100.635 173.419,100.656L173.892,100.74Z" style="fill:white;fill-opacity:0.15;fill-rule:nonzero;"/>
    <path d="M156.938,136.682C152.939,136.799 149.823,136.116 147.274,133.542C146.558,132.821 145.786,131.483 146.231,130.548C146.956,129.014 148.344,129.433 149.731,129.701C150.268,129.806 150.838,129.873 151.446,129.899C154.058,130.012 156.67,129.886 159.286,129.525C161.403,129.148 163.516,128.695 165.629,128.167C166.061,128.058 166.551,128.171 167.101,128.507C167.973,129.039 168.249,129.806 167.927,130.8C167.893,130.901 167.847,130.997 167.792,131.085C166.203,133.529 164.04,135.135 161.307,135.911C159.768,136.347 158.313,136.602 156.938,136.682Z" style="fill:white;fill-opacity:0.15;fill-rule:nonzero;"/>
    <path d="M66.582,256.738L65.903,256.478C65.567,256.352 65.354,256.021 65.375,255.664C65.609,251.581 65.974,247.644 66.465,243.85C68.599,227.462 70.963,211.778 77.629,197.079C79.113,193.804 81.222,190.358 83.96,186.732C86.966,182.753 90.777,179.873 95.393,178.087C95.443,178.066 95.489,178.045 95.535,178.016L98.302,176.418C98.382,176.372 98.47,176.339 98.558,176.309C103.191,174.942 106.926,174.066 109.773,173.681C111.303,173.475 113.403,173.379 116.078,173.4C121.541,173.442 126.878,173.911 132.098,174.808C132.261,174.838 132.425,174.817 132.576,174.754C135.896,173.37 138.152,170.255 139.376,166.792C140.286,166.905 141.908,167.274 144.252,167.903C151.475,169.836 159.873,170.238 166.74,167.019C169.184,165.874 171.369,164.155 173.297,161.854C176.345,167.283 178.781,171.291 180.605,173.886C182.097,176.012 183.598,178.334 185.539,179.554C185.77,179.701 186.03,179.789 186.298,179.814C189.589,180.137 192.465,180.388 194.918,180.569C197.643,180.77 201.99,181.353 207.961,182.317C211.574,182.904 213.746,183.625 218.295,184.849C224.37,186.48 228.348,191.088 231.254,196.55C235.383,204.323 237.991,212.788 239.718,221.735C241.349,230.195 242.293,239.05 242.557,248.302C242.59,249.476 242.561,250.914 242.469,252.621C242.263,256.268 242.339,257.932 241.974,261.148C241.857,262.179 241.777,263.592 241.735,265.382C241.731,265.626 241.525,265.772 241.127,265.823C237.501,264.544 234.025,263.668 230.7,263.19C230.344,263.139 230.139,262.913 230.076,262.515C230.524,260.985 230.973,259.408 231.422,257.781C231.615,257.081 231.89,255.333 232.252,252.537C232.832,248.055 232.156,243.673 228.982,240.286C224.505,235.51 217.992,232.42 211.7,230.744C210.379,230.393 208.824,230.218 207.038,230.22C205.315,230.222 204.409,230.152 203.181,230.92C201.549,231.942 199.907,233.058 198.247,234.266C198.293,226.749 197.823,219.332 196.838,212.016C196.666,210.738 196.448,209.824 196.188,209.266C196.087,209.052 195.798,209.023 195.656,209.212C195.4,209.547 195.203,209.996 195.064,210.557C194.582,212.482 194.121,215.291 193.685,218.984C192.859,225.99 191.757,232.949 190.386,239.863L178.429,248.139C178.24,248.269 178.035,248.374 177.817,248.449C177.077,248.706 152.493,250.703 130.381,252.488C130.363,252.452 130.344,252.417 130.323,252.381C130.315,252.364 130.306,252.349 130.295,252.335C129.7,251.614 120.393,242.042 118.585,240.194C117.995,239.59 117.397,238.868 116.778,238.035C116.582,237.77 116.457,237.465 116.414,237.142C115.402,229.542 113.781,222.091 111.63,214.784C111.27,213.559 110.909,212.57 110.553,211.819C110.393,211.484 109.904,211.539 109.823,211.899C109.579,212.99 109.408,214.033 109.32,215.031C108.929,219.483 108.706,224.258 108.691,229.352C108.691,229.461 108.57,229.532 108.477,229.474C107.473,228.848 106.796,228.511 106.465,228.438C103.767,227.848 101.312,227.695 99.095,228.002C97.464,228.228 96.411,228.339 95.933,228.329C95.401,228.318 94.956,228.367 94.6,228.472C93.543,228.785 92.45,228.741 91.267,229.013C87.654,229.844 84.337,231.298 81.323,233.373C79.021,234.958 75.128,237.221 74.342,239.922C74.267,240.181 74.105,241.125 73.848,242.747C73.831,242.852 73.831,242.953 73.848,243.058L74.254,245.569C74.258,245.602 74.27,245.636 74.284,245.674C75.028,247.716 76.418,249.141 78.292,250.013C79.922,250.772 81.285,251.184 82.388,251.254C83.41,251.318 85.285,251.35 88.006,251.35C89.196,251.35 90.261,251.565 91.339,251.702C91.85,251.768 92.32,252.004 92.668,252.377L95.502,255.371C94.68,255.333 93.879,255.311 93.095,255.308C90.139,255.298 87.259,254.609 84.325,254.57C78.484,254.493 72.755,255.27 67.148,256.972C66.984,257.022 66.796,256.943 66.582,256.738Z" style="fill:white;fill-opacity:0.95;"/>
    <path d="M198.247,234.266L190.386,239.863C191.757,232.949 192.859,225.99 193.685,218.984C194.121,215.291 194.582,212.482 195.064,210.557C195.203,209.996 195.4,209.547 195.656,209.212C195.798,209.023 196.087,209.052 196.188,209.266C196.448,209.824 196.666,210.738 196.838,212.016C197.823,219.332 198.293,226.749 198.247,234.266Z" style="fill:white;fill-opacity:0.6;fill-rule:nonzero;"/>
    <path d="M130.295,252.335C130.306,252.349 130.315,252.364 130.323,252.381C130.333,252.411 130.336,252.448 130.335,252.491C112.458,253.934 96.21,255.238 95.502,255.371L92.668,252.377C92.32,252.004 91.85,251.768 91.339,251.702C90.261,251.565 89.196,251.35 88.006,251.35C85.285,251.35 83.41,251.318 82.388,251.254C81.285,251.184 79.922,250.772 78.292,250.013C76.418,249.141 75.028,247.716 74.284,245.674C74.27,245.636 74.258,245.602 74.254,245.569L73.848,243.058C73.831,242.953 73.831,242.852 73.848,242.747C74.105,241.125 74.267,240.181 74.342,239.922C75.128,237.221 79.021,234.958 81.323,233.373C84.337,231.298 87.654,229.844 91.267,229.013C92.45,228.741 93.543,228.785 94.6,228.472C94.956,228.367 95.401,228.318 95.933,228.329C96.411,228.339 97.464,228.228 99.095,228.002C101.312,227.695 103.767,227.848 106.465,228.438C106.796,228.511 107.473,228.848 108.477,229.474C108.57,229.532 108.691,229.461 108.691,229.352C108.706,224.258 108.929,219.483 109.32,215.031C109.408,214.033 109.579,212.99 109.823,211.899C109.904,211.539 110.393,211.484 110.553,211.819C110.909,212.57 111.27,213.559 111.63,214.784C113.781,222.091 115.402,229.542 116.414,237.142C116.457,237.465 116.582,237.77 116.778,238.035C117.397,238.868 117.995,239.59 118.585,240.194C120.393,242.042 129.7,251.614 130.295,252.335Z" style="fill:white;fill-opacity:0.65;"/>
    <path d="M130.323,252.381C130.344,252.417 130.363,252.452 130.381,252.488C130.366,252.489 130.35,252.49 130.335,252.491C130.336,252.448 130.333,252.411 130.323,252.381Z" style="fill:white;"/>
    <path d="M177.817,248.449C178.035,248.374 178.24,248.269 178.429,248.139L190.386,239.863L198.247,234.266C199.907,233.058 201.549,231.942 203.181,230.92C204.409,230.152 205.315,230.222 207.038,230.22C208.824,230.218 210.379,230.393 211.7,230.744C217.992,232.42 224.505,235.51 228.982,240.286C232.156,243.673 232.832,248.055 232.252,252.537C231.89,255.333 231.615,257.081 231.422,257.781C230.973,259.408 230.524,260.985 230.076,262.515C229.837,262.662 229.61,262.984 229.388,263.479C229.338,263.592 229.25,263.693 229.145,263.764C227.753,264.686 220.655,263.764 218.664,263.701C217.121,263.651 215.448,263.433 213.641,263.047C213.516,263.018 213.386,263.03 213.268,263.072C213.063,263.152 210.543,264.59 205.705,267.395C202.682,269.147 199.37,270.2 195.769,270.548C192.754,270.837 188.474,270.699 182.923,270.128L181.577,269.902C179.577,269.558 178.316,269.835 175.687,270.124C174.622,270.242 173.645,270.422 172.752,270.661C170.182,271.353 167.629,272.145 165.092,273.03C159.609,274.937 154.59,276.723 150.037,278.387C148.872,278.811 147.71,279.176 146.558,279.482C146.298,279.549 146.117,279.725 145.866,279.817C143.053,280.668 140.289,281.716 137.422,282.425C105.795,290.248 77.788,292.03 75.462,291.925C74.523,291.883 73.37,291.414 72.007,290.521C71.894,290.449 71.793,290.357 71.709,290.248C69.735,287.72 68.351,284.521 67.559,280.651C66.574,275.818 65.982,271.164 65.79,266.69C65.651,263.466 65.915,260.146 66.582,256.738C66.796,256.943 66.984,257.022 67.148,256.972C72.755,255.27 78.484,254.493 84.325,254.57C87.259,254.609 90.139,255.298 93.095,255.308C93.879,255.311 94.68,255.333 95.502,255.371C96.21,255.238 112.458,253.934 130.335,252.491L130.381,252.488C152.493,250.703 177.077,248.706 177.817,248.449Z" style="fill:white;fill-opacity:0.85;"/>
    <path d="M230.076,262.515C230.139,262.913 230.344,263.139 230.7,263.19C234.025,263.668 237.501,264.544 241.127,265.823L240.901,266.104C240.821,266.204 240.779,266.33 240.783,266.456C241.027,273.671 240.414,280.84 238.947,287.967C238.276,291.233 236.985,294.273 235.077,297.086C234.49,297.954 233.992,298.495 233.585,298.717C232.44,299.337 231.661,299.731 231.25,299.895C231.078,299.966 230.898,300.004 230.713,300C226.999,299.979 222.848,299.622 219.033,299.564C216.136,299.518 214.442,299.589 212.228,299.002C212.027,298.947 211.822,298.914 211.616,298.897C204.892,298.289 198.121,296.721 191.052,294.969C181.498,292.6 171.314,289.368 160.502,285.272C156.163,283.632 151.58,281.846 146.746,279.918C146.688,279.897 146.625,279.88 146.562,279.876L145.866,279.817C146.117,279.725 146.298,279.549 146.558,279.482C147.71,279.176 148.872,278.811 150.037,278.387C154.59,276.723 159.609,274.937 165.092,273.03C167.629,272.145 170.182,271.353 172.752,270.661C173.645,270.422 174.622,270.242 175.687,270.124C178.316,269.835 179.577,269.558 181.577,269.902C182.454,270.049 182.902,270.124 182.923,270.128C188.474,270.699 192.754,270.837 195.769,270.548C199.37,270.2 202.682,269.147 205.705,267.395C210.543,264.59 213.063,263.152 213.268,263.072C213.386,263.03 213.516,263.018 213.641,263.047C215.448,263.433 217.121,263.651 218.664,263.701C220.655,263.764 227.753,264.686 229.145,263.764C229.25,263.693 229.338,263.592 229.388,263.479C229.61,262.984 229.837,262.662 230.076,262.515Z" style="fill:white;fill-opacity:0.65;fill-rule:nonzero;"/>
</svg>
