<?xml version="1.0" encoding="UTF-8" standalone="no"?>
<!DOCTYPE svg PUBLIC "-//W3C//DTD SVG 1.1//EN" "http://www.w3.org/Graphics/SVG/1.1/DTD/svg11.dtd">
<svg width="100%" height="100%" viewBox="0 0 300 300" version="1.1" xmlns="http://www.w3.org/2000/svg" xmlns:xlink="http://www.w3.org/1999/xlink" xml:space="preserve" xmlns:serif="http://www.serif.com/" style="fill-rule:evenodd;clip-rule:evenodd;stroke-linejoin:round;stroke-miterlimit:2;">
    <path d="M70.526,88.128C68.574,89.06 66.486,89.49 64.265,89.421C61.987,89.349 60.409,89.283 59.529,89.224C57.728,89.103 56.454,89.1 55.71,89.221C52.546,89.733 49.661,90.924 47.814,93.464C46.19,95.699 45.733,98.154 46.445,100.835C47.22,103.742 47.738,105.104 47.784,107.168C47.791,107.434 47.581,107.657 47.315,107.67C45.911,107.746 44.66,106.364 43.978,105.291C42.718,103.322 40.588,99.407 38.553,99.568C37.126,99.68 36.817,101.498 36.837,102.715C36.883,105.383 37.572,108.392 38.829,110.85C39.751,112.652 40.742,114.837 40.968,116.57C41.536,120.991 38.947,124.794 35.071,126.907L32.548,127.905L31.183,128.158L28.879,128.404C28.794,128.414 28.708,128.414 28.623,128.41C26.788,128.318 25.528,128.213 24.836,128.095C20.914,127.436 17.666,125.601 15.083,122.592C13.416,120.649 12.034,118.372 10.938,115.76C9.98,113.472 9.219,110.913 8.657,108.081C7.834,103.926 7.755,99.683 8.421,95.348C9.117,90.803 10.538,86.819 12.687,83.396C15.992,78.136 20.721,74.414 26.88,72.229C26.979,72.193 27.005,72.068 26.933,71.996C24.038,69.075 22.299,65.692 21.718,61.842C20.941,56.69 22.673,52.145 26.624,48.9C28.777,47.131 31.169,45.943 33.801,45.329C34.08,45.264 34.993,45.208 36.538,45.159C37.664,45.122 38.566,45.214 39.246,45.431C45.963,47.584 49.307,54.58 46.291,61.045C45.461,62.824 44.509,64.645 43.43,66.509C43.013,67.231 41.759,69.37 43.508,69.384C46.652,69.413 48.29,69.426 48.421,69.426C48.976,69.429 50.216,69.64 52.139,70.05C58.131,71.33 63.664,74.818 68.229,78.799C70.329,80.626 72.485,83.314 72.101,86.195C72,86.96 71.475,87.606 70.526,88.128Z" style="fill:white;fill-opacity:0.25;fill-rule:nonzero;"/>
    <path d="M265.281,69.501C262.861,77.009 260.408,77.874 263.123,79.067C265.264,80.008 271.953,79.617 270.238,87.568C269.448,91.234 265.449,92.878 266.87,93.577C268.414,94.335 270.934,94.524 271.098,99.503C271.259,104.405 263.159,105.876 262.296,106.033C258.707,106.685 261.395,111.45 257.458,110.852C249.848,109.696 253.718,115.728 250.317,117.933C249.219,118.645 248.131,118.876 247.177,118.875C247.116,118.847 247.063,118.805 247.022,118.749C246.973,118.68 246.842,118.588 246.632,118.467C246.478,118.375 246.359,118.431 246.277,118.638L245.309,118.198L244.249,117.683C241.903,116.203 240.302,114.106 239.445,111.385C238.854,109.511 239.432,108.609 240.869,107.431C242.159,106.368 243.153,104.986 243.852,103.286C245.073,100.32 244.404,96.913 241.128,95.679C239.918,95.223 239.018,94.967 238.431,94.911C236.4,94.711 234.7,94.501 233.331,94.278C228.904,93.55 227.487,90.678 227.342,86.638C227.198,82.612 227.027,78.113 222.367,76.843C220.349,76.291 218.282,76.452 216.162,77.322C214.787,77.686 213.579,78.283 212.539,79.107C210.389,80.81 209.169,81.772 208.883,81.992C207.849,82.792 206.845,83.357 205.651,84.016C204.046,84.902 202.523,85.044 201.089,84.443C200.928,84.395 196.066,85.079 192.492,81.992C190.742,80.48 193.293,76.841 190.303,76.264C181.646,74.591 181.339,66.365 182.491,65.178C188.234,59.263 195.078,68.366 199.741,60.345C202.092,56.3 204.233,51.422 213.827,54.153C218.547,55.497 217.3,50.419 222.033,49.349C225.991,48.454 226.13,49.176 228.659,52.356C231.226,55.584 234.737,52.244 237.867,51.422C249.62,48.334 249.829,58.225 251.412,62.584C252.254,64.901 256.802,62.431 258.229,61.96C265.344,59.608 265.63,65.317 265.281,69.501Z" style="fill:white;fill-opacity:0.35;"/>
    <path d="M244.249,117.683C241.45,120.068 238.703,122.48 236.009,124.915C235.041,125.788 234.168,126.533 233.384,127.153C232.13,128.141 231.182,128.791 230.535,129.103C228.228,130.222 226.706,130.858 225.974,131.013C224.642,131.295 222.761,131.804 221.035,132.01C220.382,132.092 219.729,132.194 219.076,132.315L217.786,132.585L215.446,132.512C215.381,132.509 215.315,132.493 215.256,132.463C214.721,132.194 214.318,131.879 214.045,131.521C213.458,130.76 212.726,129.611 211.843,128.079C211.403,127.318 211.184,126.573 211.18,125.844C211.18,125.001 211.003,124.374 211.046,123.432C211.069,122.917 211.003,122.402 210.849,121.88C211.43,121.709 212.155,121.637 212.634,121.473C214.784,120.744 216.175,119.291 216.805,117.115C217.012,116.403 217.022,115.832 216.828,115.402C216.05,113.663 213.678,114.342 212.139,114.982C212.155,113.82 212.099,112.681 211.971,111.569C211.896,110.909 211.636,110.306 211.19,109.758C209.448,107.631 207.15,110.66 205.388,109.095C204.843,108.609 204.853,107.063 204.925,106.312C205.378,101.511 206.52,96.9 208.352,92.476C208.775,92.867 209.454,93.179 210.383,93.412C211.686,93.737 213.038,93.878 214.436,93.835C215.942,93.786 217.957,93.084 217.268,91.18C217.225,91.069 217.159,90.97 217.074,90.888C215.112,89.027 212.299,88.643 209.644,89.283L210.606,87.689C210.613,87.679 210.619,87.669 210.622,87.659C212.181,84.148 214.025,80.702 216.162,77.322C218.282,76.452 220.349,76.291 222.367,76.843C227.027,78.113 227.198,82.612 227.342,86.638C227.487,90.678 228.904,93.55 233.331,94.278C234.7,94.501 236.4,94.711 238.431,94.911C239.018,94.967 239.918,95.223 241.128,95.679C244.404,96.913 245.073,100.32 243.852,103.286C243.153,104.986 242.159,106.368 240.869,107.431C239.432,108.609 238.854,109.511 239.445,111.385C240.302,114.106 241.903,116.203 244.249,117.683ZM210.874,96.398C210.235,96.427 209.779,97.638 209.849,99.099C209.92,100.559 210.494,101.721 211.132,101.688C211.771,101.658 212.227,100.448 212.157,98.987C212.086,97.527 211.512,96.365 210.874,96.398Z" style="fill:white;fill-opacity:0.95;fill-rule:nonzero;"/>
    <path d="M216.162,77.322C214.025,80.702 212.181,84.148 210.622,87.659C210.619,87.669 210.613,87.679 210.606,87.689L209.644,89.283C208.847,89.559 208.329,89.851 208.096,90.16C207.502,90.944 207.587,91.718 208.352,92.476C206.52,96.9 205.378,101.511 204.925,106.312C204.853,107.063 204.843,108.609 205.388,109.095C207.15,110.66 209.448,107.631 211.19,109.758C211.636,110.306 211.896,110.909 211.971,111.569C212.099,112.681 212.155,113.82 212.139,114.982L208.092,116.252C208.01,116.275 207.928,116.291 207.843,116.298C206.563,116.38 205.585,116.524 204.912,116.731C204.64,116.816 204.253,117.167 203.754,117.781C203.675,117.876 203.626,117.991 203.616,118.116C203.445,119.865 204.492,120.59 205.766,121.443C205.854,121.506 205.953,121.548 206.058,121.578C207.62,122.014 209.218,122.116 210.849,121.88C211.003,122.402 211.069,122.917 211.046,123.432C211.003,124.374 211.18,125.001 211.18,125.844C211.184,126.573 211.403,127.318 211.843,128.079C212.726,129.611 213.458,130.76 214.045,131.521C214.318,131.879 214.721,132.194 215.256,132.463C215.315,132.493 215.381,132.509 215.446,132.512L217.786,132.585L215.614,132.834C215.574,132.837 215.535,132.841 215.492,132.837L213.166,132.772C213.136,132.768 213.107,132.765 213.077,132.762C209.897,132.115 207.797,130.402 206.169,127.761C205.037,125.926 204.197,124.062 203.649,122.165C202.93,119.688 202.569,118.447 202.566,118.437C202.32,117.663 202.116,116.678 201.956,115.481C201.883,114.933 201.703,113.942 201.414,112.508C201.06,110.739 201.06,109.269 200.722,107.71C200.577,107.03 200.482,106.151 200.433,105.068C200.394,104.195 200.348,103.312 200.298,102.416C200.584,102.564 200.814,102.63 200.991,102.617C201.096,102.61 201.194,102.551 201.247,102.459C201.874,101.379 201.851,100.234 201.181,99.023C201.037,98.761 200.709,98.649 200.423,98.767C200.213,98.849 200.042,99.017 199.908,99.269C200.053,98.687 199.99,96.408 200.108,96.03C201.119,95.361 201.956,94.485 202.615,93.405C202.671,93.317 202.71,93.218 202.733,93.113C202.97,92.01 202.622,91.321 201.693,91.042C201.434,90.967 200.925,90.987 200.164,91.101C200.029,89.602 200.994,84.998 201.089,84.443C202.523,85.044 204.046,84.902 205.651,84.016C206.845,83.357 207.849,82.792 208.883,81.992C209.169,81.772 210.389,80.81 212.539,79.107C213.579,78.283 214.787,77.686 216.162,77.322Z" style="fill:white;fill-opacity:0.75;fill-rule:nonzero;"/>
    <path d="M63.421,90.022C66.742,96.089 69.033,102.538 70.29,109.367C70.533,110.683 70.122,111.454 69.063,111.684C67.842,111.946 66.44,111.241 65.41,111.927C64.025,112.849 64.156,115.336 64.639,116.711C65.22,118.352 65.735,120.072 66.188,121.87C64.718,121.568 63.428,121.25 62.322,120.918C61.288,120.607 60.658,120.938 60.435,121.916C60.068,123.547 61.528,125.319 62.824,126.051C63.51,126.438 64.501,126.72 65.791,126.894C66.171,127.006 66.595,127.042 67.057,127.006C67.428,126.973 67.747,127.262 67.756,127.633C67.802,129.579 67.353,131.443 66.404,133.228C65.679,134.596 64.941,136.063 64.458,137.205C64.406,137.33 64.281,137.412 64.147,137.412L61.666,137.412C61.587,137.412 61.511,137.395 61.439,137.363C60.511,136.943 59.001,137.192 57.908,137.015C55.926,136.69 53.99,136.181 52.103,135.489C50.909,135.049 49.894,134.645 49.061,134.278C44.654,132.329 40.466,129.992 36.492,127.268C36.24,127.098 35.767,126.976 35.071,126.907C38.947,124.794 41.536,120.991 40.968,116.57C40.742,114.837 39.751,112.652 38.829,110.85C37.572,108.392 36.883,105.383 36.837,102.715C36.817,101.498 37.126,99.68 38.553,99.568C40.588,99.407 42.718,103.322 43.978,105.291C44.66,106.364 45.911,107.746 47.315,107.67C47.581,107.657 47.791,107.434 47.784,107.168C47.738,105.104 47.22,103.742 46.445,100.835C45.733,98.154 46.19,95.699 47.814,93.464C49.661,90.924 52.546,89.733 55.71,89.221C56.454,89.1 57.728,89.103 59.529,89.224C60.238,89.272 61.401,89.324 63.017,89.38C63.25,89.718 63.421,90.022 63.421,90.022ZM53.724,97.491C53.593,97.72 53.836,97.983 54.075,97.871C57.009,96.5 60.169,96.49 63.832,96.208C64.183,96.181 64.412,95.83 64.301,95.496C64.294,95.479 64.225,95.423 64.094,95.328C63.766,95.089 63.244,94.941 62.529,94.885C59.359,94.642 56.471,95.446 53.869,97.297C53.829,97.323 53.8,97.359 53.777,97.399L53.724,97.491ZM62.653,100.022C62.037,100.106 61.692,101.301 61.883,102.69C62.076,104.077 62.732,105.134 63.35,105.047C63.966,104.963 64.311,103.769 64.12,102.379C63.927,100.992 63.27,99.936 62.653,100.022Z" style="fill:white;fill-opacity:0.95;"/>
    <path d="M72.286,96.756L73.188,96.916L73.795,100.746C73.791,100.796 73.779,100.844 73.757,100.89C73.518,100.389 73.199,100.085 72.89,100.128C72.725,100.151 72.583,100.271 72.473,100.463C72.431,100.515 72.4,100.578 72.384,100.651C72.224,101.058 72.169,101.66 72.26,102.316C72.298,102.755 72.404,103.18 72.61,103.519C72.847,104.001 73.16,104.292 73.462,104.25C73.745,104.211 73.958,103.888 74.063,103.411L74.595,108.386C74.743,110.804 74.861,113.233 74.946,115.668C75.002,117.253 74.969,118.831 74.851,120.41C74.828,123.11 74.5,125.765 73.864,128.377C72.978,132.01 71.274,135.495 67.806,137.067C66.966,137.448 65.676,137.651 63.937,137.681C62.22,137.71 60.534,137.599 58.876,137.346C58.643,137.31 58.417,137.428 58.309,137.635C57.216,139.719 56.592,142.009 56.438,144.507C56.192,148.478 57.784,153.029 59.67,156.56C59.73,156.672 59.808,156.77 59.9,156.856C62.069,158.825 64.134,160.649 66.086,162.326C67.29,163.36 68.849,164.974 70.762,167.166C72.925,169.641 74.53,171.731 75.583,173.441C75.58,173.664 75.537,173.835 75.462,173.953C70.867,180.962 66.152,187.138 60.606,193.889C57.229,198.001 53.8,201.82 50.324,205.348C48.214,207.491 46.747,208.863 45.917,209.47C45.418,209.834 45.156,210.021 45.126,210.038C45.028,210.087 44.906,210.054 44.847,209.962C44.726,209.769 44.283,209.26 43.518,208.436C42.839,207.704 42.298,206.746 41.474,205.929C41.346,205.801 41.228,205.66 41.126,205.509C40.25,204.193 38.871,203.002 38.153,201.942C37.943,201.63 37.355,200.898 36.391,199.753C36.338,199.691 36.243,199.704 36.207,199.773C35.685,200.79 35.124,201.509 34.52,201.929C28.026,206.448 20.898,209.45 13.137,210.937C13.101,210.943 12.782,210.973 12.182,211.022C11.765,211.058 11.434,211.213 11.191,211.478C9.855,211.314 8.851,210.72 8.182,209.693C8.09,209.549 8.024,209.391 7.988,209.227C6.354,201.932 4.887,197.387 2.311,189.114C0.099,182.003 -1.063,174.458 1.313,167.498C3.374,161.456 8.29,156.888 13.705,153.63C18.036,151.024 22.463,148.432 26.989,145.852C26.815,146.499 26.851,146.991 27.097,147.336C28.705,149.564 30.605,151.385 32.794,152.799C38.097,156.225 44.093,158.907 50.465,159.934C51.42,160.088 52.31,160.163 53.133,160.167C54.653,160.17 55.549,160.15 55.818,160.111C56.973,159.944 58.292,159.707 59.772,159.402C59.858,159.386 59.871,159.268 59.792,159.231C57.423,158.135 54.151,156.563 53.334,153.994C53.271,153.797 53.186,153.187 53.074,152.166C52.697,148.684 51.706,145.747 50.101,143.358C48.359,140.769 46.301,138.373 43.922,136.175C43.551,135.83 42.872,135.197 41.887,134.268C39.351,131.872 36.236,129.753 32.548,127.905L35.071,126.907C35.767,126.976 36.24,127.098 36.492,127.268C40.466,129.992 44.654,132.329 49.061,134.278C49.894,134.645 50.909,135.049 52.103,135.489C53.99,136.181 55.926,136.69 57.908,137.015C59.001,137.192 60.511,136.943 61.439,137.363C61.511,137.395 61.587,137.412 61.666,137.412L64.147,137.412C64.281,137.412 64.406,137.33 64.458,137.205C64.941,136.063 65.679,134.596 66.404,133.228C67.353,131.443 67.802,129.579 67.756,127.633C67.747,127.262 67.428,126.973 67.057,127.006C66.595,127.042 66.171,127.006 65.791,126.894C68.216,126.95 70.083,127.111 71.57,125.296C72.613,124.023 72.265,122.717 70.841,122.08C70.749,122.041 70.648,122.024 70.546,122.037C68.918,122.231 67.464,122.175 66.188,121.87C65.735,120.072 65.22,118.352 64.639,116.711C64.156,115.336 64.025,112.849 65.41,111.927C66.44,111.241 67.842,111.946 69.063,111.684C70.122,111.454 70.533,110.683 70.29,109.367C69.033,102.538 66.742,96.089 63.421,90.022C63.421,90.022 63.25,89.718 63.017,89.38L64.265,89.421C66.486,89.49 68.574,89.06 70.526,88.128C71.475,90.393 72.246,92.752 72.843,95.207L72.485,95.244C72.152,95.246 71.815,95.26 71.475,95.286C70.759,95.342 70.238,95.489 69.91,95.729C69.778,95.824 69.709,95.88 69.703,95.896C69.591,96.231 69.821,96.582 70.172,96.608C70.895,96.664 71.599,96.709 72.286,96.756Z" style="fill:white;fill-opacity:0.75;"/>
    <path d="M208.352,92.476C207.587,91.718 207.502,90.944 208.096,90.16C208.329,89.851 208.847,89.559 209.644,89.283C212.299,88.643 215.112,89.027 217.074,90.888C217.159,90.97 217.225,91.069 217.268,91.18C217.957,93.084 215.942,93.786 214.436,93.835C213.038,93.878 211.686,93.737 210.383,93.412C209.454,93.179 208.775,92.867 208.352,92.476Z" style="fill:white;fill-opacity:0.15;fill-rule:nonzero;"/>
    <path d="M200.108,96.03C199.934,94.416 199.951,92.772 200.164,91.101C200.925,90.987 201.434,90.967 201.693,91.042C202.622,91.321 202.97,92.01 202.733,93.113C202.71,93.218 202.671,93.317 202.615,93.405C201.956,94.485 201.119,95.361 200.108,96.03Z" style="fill:white;fill-opacity:0.15;fill-rule:nonzero;"/>
    <path d="M53.724,97.491L53.777,97.399C53.8,97.359 53.829,97.323 53.869,97.297C56.471,95.446 59.359,94.642 62.529,94.885C63.244,94.941 63.766,95.089 64.094,95.328C64.225,95.423 64.294,95.479 64.301,95.496C64.412,95.83 64.183,96.181 63.832,96.208C60.169,96.49 57.009,96.5 54.075,97.871C53.836,97.983 53.593,97.72 53.724,97.491Z" style="fill:white;fill-opacity:0.15;fill-rule:nonzero;"/>
    <path d="M210.874,96.398C211.512,96.365 212.086,97.527 212.157,98.987C212.227,100.448 211.771,101.658 211.132,101.688C210.494,101.721 209.92,100.559 209.849,99.099C209.779,97.638 210.235,96.427 210.874,96.398Z" style="fill:white;fill-opacity:0.15;fill-rule:nonzero;"/>
    <path d="M106.122,109.889C106.227,110.726 105.623,111.415 104.747,111.024C104.603,110.959 104.491,110.84 104.432,110.696C102.036,104.704 100.507,100.848 99.848,99.132C99.66,98.652 99.611,98.203 99.7,97.783C99.769,97.461 100.031,97.218 100.356,97.176L103.667,96.723C104.107,96.664 104.511,96.976 104.563,97.415C104.763,99.105 105.282,103.263 106.122,109.889Z" style="fill:white;fill-opacity:0.95;fill-rule:nonzero;"/>
    <path d="M126.281,99.151C127.026,99.46 127.988,99.722 128.27,100.113C128.716,100.726 128.129,101.222 127.873,101.731C124.804,107.775 121.539,114.243 118.07,121.138C117.864,121.548 117.539,121.663 117.096,121.48C116.653,121.299 116.502,120.987 116.646,120.551C119.032,113.213 121.26,106.318 123.334,99.863C123.511,99.322 123.442,98.557 124.194,98.436C124.667,98.357 125.536,98.846 126.281,99.151Z" style="fill:white;fill-opacity:0.95;fill-rule:nonzero;"/>
    <path d="M200.298,102.416C200.155,102.324 199.918,99.846 199.908,99.269C200.042,99.017 200.213,98.849 200.423,98.767C200.709,98.649 201.037,98.761 201.181,99.023C201.851,100.234 201.874,101.379 201.247,102.459C201.194,102.551 201.096,102.61 200.991,102.617C200.814,102.63 200.584,102.564 200.298,102.416Z" style="fill:white;fill-opacity:0.15;fill-rule:nonzero;"/>
    <path d="M62.653,100.022C63.27,99.936 63.927,100.992 64.12,102.379C64.311,103.769 63.966,104.963 63.35,105.047C62.732,105.134 62.076,104.077 61.883,102.69C61.692,101.301 62.037,100.106 62.653,100.022Z" style="fill:white;fill-opacity:0.15;fill-rule:nonzero;"/>
    <path d="M210.849,121.88C209.218,122.116 207.62,122.014 206.058,121.578C205.953,121.548 205.854,121.506 205.766,121.443C204.492,120.59 203.445,119.865 203.616,118.116C203.626,117.991 203.675,117.876 203.754,117.781C204.253,117.167 204.64,116.816 204.912,116.731C205.585,116.524 206.563,116.38 207.843,116.298C207.928,116.291 208.01,116.275 208.092,116.252L212.139,114.982C213.678,114.342 216.05,113.663 216.828,115.402C217.022,115.832 217.012,116.403 216.805,117.115C216.175,119.291 214.784,120.744 212.634,121.473C212.155,121.637 211.43,121.709 210.849,121.88Z" style="fill:white;fill-opacity:0.15;fill-rule:nonzero;"/>
    <path d="M102.588,120.948C102.351,121.335 101.879,121.509 101.452,121.365C99.007,120.538 95.864,119.524 92.014,118.326C91.591,118.195 91.361,117.847 91.325,117.286C91.322,117.207 91.332,117.125 91.361,117.049C91.68,116.229 91.922,115.609 92.09,115.185C92.385,114.437 93.087,114.578 93.685,114.936C97.688,117.332 100.117,118.769 100.967,119.245C101.606,119.602 102.063,119.822 102.328,119.904C102.433,119.937 102.512,120.019 102.542,120.124C102.66,120.531 102.676,120.807 102.588,120.948Z" style="fill:white;fill-opacity:0.95;fill-rule:nonzero;"/>
    <path d="M121.46,128.085L121.437,128.062C121.149,127.741 121.152,127.255 121.441,126.937L130.813,116.626C131.128,116.281 131.67,116.278 131.988,116.623L133.163,117.899C133.225,117.965 133.271,118.047 133.294,118.139C133.511,118.956 133.356,119.576 132.828,119.993C129.737,122.444 126.317,125.175 122.566,128.177C122.232,128.443 121.746,128.404 121.46,128.085Z" style="fill:white;fill-opacity:0.95;fill-rule:nonzero;"/>
    <path d="M245.309,118.198C242.064,120.843 239.356,123.606 237.184,126.484C232.974,132.063 230.01,135.879 228.294,137.93C227.395,139.01 226.437,140.401 225.419,142.111C224.966,142.869 224.71,143.355 224.648,143.565C224.619,143.663 224.622,143.768 224.655,143.867C224.802,144.277 225.003,144.569 225.255,144.75C225.278,144.766 225.295,144.786 225.304,144.809L225.619,145.465C225.639,145.504 225.662,145.54 225.692,145.57C227.126,147.066 228.632,148.054 230.207,148.533C235.898,150.259 241.91,149.77 247.347,147.237C249.825,146.082 252.004,144.789 253.887,143.355C255.512,142.121 257.176,140.867 258.882,139.591C259.985,139.771 261.146,139.903 262.371,139.985C263.995,140.093 265.157,140.214 265.856,140.349C269.521,141.068 273.21,142.193 276.921,143.722C280.282,145.107 282.211,146.778 283.494,150.095C283.668,150.545 283.964,151.155 284.377,151.92C285.936,154.798 287.137,157.486 287.987,159.989C291.991,171.79 294.885,180.021 299.253,191.126C299.545,191.871 299.778,192.543 299.952,193.141C300.28,194.299 298.856,195.467 297.999,196.074C296.532,197.108 294.678,198.293 292.43,199.625C292.338,199.681 292.269,199.766 292.237,199.871L292.194,200.019C292.181,199.852 292.092,199.815 291.931,199.917C287.508,202.693 282.884,204.525 278.06,205.414C276.442,205.713 274.91,205.854 273.466,205.84C273.328,205.84 273.22,205.955 273.229,206.09C273.374,208.443 273.38,210.668 273.249,212.765C273.101,215.177 273.111,217.149 272.878,219.174C272.616,221.468 272.422,223.069 272.294,223.972C271.411,230.338 269.971,237.708 267.979,246.083C267.9,246.418 267.631,246.677 267.29,246.743C266.748,246.848 266.286,247.097 265.908,247.491C263.299,248.6 260.644,249.749 257.947,250.94C257.652,251.071 257.028,251.258 256.073,251.504C245.903,254.12 235.55,255.157 225.012,254.615C223.644,254.547 221.622,254.304 218.945,253.887C215.351,253.332 211.994,252.345 208.873,250.93C203.147,248.331 200.033,243.96 199.527,237.817C199.422,236.537 199.35,235.73 199.311,235.395C198.247,226.193 196.662,217.005 194.559,207.826C194.549,207.783 194.493,207.773 194.47,207.809C191.349,213.122 187.487,217.937 182.883,222.249C183.569,220.404 184.192,218.268 184.757,215.84C184.996,214.809 185.114,214.212 185.118,214.048C185.121,213.831 185.173,213.615 185.272,213.421L186.66,210.645C186.709,210.546 186.794,210.468 186.899,210.425C191.448,208.568 195.681,206.333 199.599,203.717C202.625,202.949 205.605,202.185 208.542,201.42C218.032,198.949 230.545,196.156 236.469,194.768C237.026,194.637 237.325,194.319 237.368,193.817C237.378,193.705 237.345,193.597 237.282,193.511C236.951,193.062 236.702,192.688 236.534,192.389C234.103,187.988 226.581,174.36 213.97,151.51C212.946,149.656 211.784,147.982 210.619,146.279C210.531,146.148 223.641,143.506 223.897,143.555C224.015,143.581 224.12,143.47 224.087,143.352C223.874,142.557 223.906,141.616 223.667,140.687C222.866,137.566 221.337,134.773 219.076,132.315C219.729,132.194 220.382,132.092 221.035,132.01C222.761,131.804 224.642,131.295 225.974,131.013C226.706,130.858 228.228,130.222 230.535,129.103C231.182,128.791 232.13,128.141 233.384,127.153C234.168,126.533 235.041,125.788 236.009,124.915C238.703,122.48 241.45,120.068 244.249,117.683L245.309,118.198Z" style="fill:white;fill-opacity:0.75;fill-rule:nonzero;"/>
    <path d="M245.309,118.198L246.277,118.638C245.851,119.835 245.575,120.912 245.45,121.863C245.388,122.352 245.336,123.327 245.299,124.791C245.299,124.804 245.299,124.817 245.303,124.83L245.654,127.498C245.657,127.534 245.667,127.567 245.677,127.603C246.271,129.602 247.39,131.502 249.034,133.297C251.731,136.244 255.013,138.341 258.882,139.591C257.176,140.867 255.512,142.121 253.887,143.355C252.004,144.789 249.825,146.082 247.347,147.237C241.91,149.77 235.898,150.259 230.207,148.533C228.632,148.054 227.126,147.066 225.692,145.57C225.662,145.54 225.639,145.504 225.619,145.465L225.304,144.809C225.295,144.786 225.278,144.766 225.255,144.75C225.003,144.569 224.802,144.277 224.655,143.867C224.622,143.768 224.619,143.663 224.648,143.565C224.71,143.355 224.966,142.869 225.419,142.111C226.437,140.401 227.395,139.01 228.294,137.93C230.01,135.879 232.974,132.063 237.184,126.484C239.356,123.606 242.064,120.843 245.309,118.198Z" style="fill:white;fill-opacity:0.95;fill-rule:nonzero;"/>
    <path d="M66.188,121.87C67.464,122.175 68.918,122.231 70.546,122.037C70.648,122.024 70.749,122.041 70.841,122.08C72.265,122.717 72.613,124.023 71.57,125.296C70.083,127.111 68.216,126.95 65.791,126.894C64.501,126.72 63.51,126.438 62.824,126.051C61.528,125.319 60.068,123.547 60.435,121.916C60.658,120.938 61.288,120.607 62.322,120.918C63.428,121.25 64.718,121.568 66.188,121.87Z" style="fill:white;fill-opacity:0.15;fill-rule:nonzero;"/>
    <path d="M160.824,154.585L162.418,155.146C162.474,155.165 162.533,155.169 162.592,155.156L207.18,144.969C208.542,144.658 208.973,144.676 209.372,144.833C209.604,144.925 210.531,146.148 210.619,146.279C211.784,147.982 212.946,149.656 213.97,151.51C226.581,174.36 234.103,187.988 236.534,192.389C236.702,192.688 236.951,193.062 237.282,193.511C237.345,193.597 237.378,193.705 237.368,193.817C237.325,194.319 237.026,194.637 236.469,194.768C230.545,196.156 218.032,198.949 208.542,201.42C205.605,202.185 202.625,202.949 199.599,203.717C201.362,202.454 202.937,201.167 204.318,199.855C205.421,198.805 205.936,198.011 206.353,196.478C206.766,194.968 207.682,194.033 207.347,192.337C207.328,192.238 207.292,192.143 207.242,192.054C206.448,190.669 205.136,190.328 203.616,190.322C203.495,190.322 203.377,190.276 203.291,190.194L201.785,188.792C203.872,188.297 205.946,187.765 208.007,187.198C210.75,186.443 212.677,184.671 212.798,181.865C212.828,181.094 212.582,179.929 212.053,178.367C211.702,177.323 211.331,176.178 210.944,174.931C210.537,173.615 209.799,172.082 208.68,171.413C207.554,170.74 206.763,170.35 206.307,170.248C206.054,170.192 205.136,170.179 203.554,170.209C203.488,170.212 203.423,170.222 203.357,170.238L197.814,171.836C197.732,171.862 197.644,171.846 197.575,171.794C197.082,171.423 197.223,170.885 197.04,170.445C196.764,169.785 196.262,168.282 195.533,165.939C194.69,163.232 192.59,161.414 189.754,161.378C188.767,161.368 187.913,161.479 187.188,161.719C185.846,162.162 184.031,162.736 181.751,163.445C179.247,164.223 177.799,164.59 176.461,166.448C176.008,167.075 175.742,167.81 175.663,168.66C175.558,169.759 175.591,170.553 175.762,171.039L176.989,174.521C174.501,175.6 173.487,178.655 172.792,181.159C169.789,175.669 166.822,170.215 163.898,164.791C160.41,158.329 157.473,153.075 155.081,149.022C151.747,143.375 147.553,136.23 142.502,127.59C142.154,126.996 142.24,126.576 142.761,126.323C143.119,126.153 143.552,126.254 143.792,126.573C144.018,126.871 144.179,127.15 144.281,127.416L147.763,132.929C147.809,133.005 147.845,133.08 147.874,133.162C148.029,133.638 148.189,134.015 148.35,134.294C150.526,138.029 153.181,142.443 156.315,147.539L160.771,154.43C160.82,154.355 160.84,154.407 160.824,154.585Z" style="fill:white;fill-opacity:0.25;"/>
    <path d="M161.697,152.435C161.322,152.924 161.076,153.505 160.958,154.178C160.945,154.25 160.909,154.316 160.856,154.361C160.833,154.381 160.804,154.404 160.771,154.43L156.315,147.539C153.181,142.443 150.526,138.029 148.35,134.294C148.189,134.015 148.029,133.638 147.874,133.162C147.845,133.08 147.809,133.005 147.763,132.929L144.281,127.416L146.05,126.589C146.447,126.405 146.919,126.556 147.136,126.934L161.697,152.435Z" style="fill:white;fill-opacity:0.95;fill-rule:nonzero;"/>
    <path d="M32.548,127.905C36.236,129.753 39.351,131.872 41.887,134.268C42.872,135.197 43.551,135.83 43.922,136.175C46.301,138.373 48.359,140.769 50.101,143.358C51.706,145.747 52.697,148.684 53.074,152.166C53.186,153.187 53.271,153.797 53.334,153.994C54.151,156.563 57.423,158.135 59.792,159.231C59.871,159.268 59.858,159.386 59.772,159.402C58.292,159.707 56.973,159.944 55.818,160.111C55.549,160.15 54.653,160.17 53.133,160.167C52.31,160.163 51.42,160.088 50.465,159.934C44.093,158.907 38.097,156.225 32.794,152.799C30.605,151.385 28.705,149.564 27.097,147.336C26.851,146.991 26.815,146.499 26.989,145.852C28.108,145.094 29.263,143.808 30.448,141.986C33.293,137.619 33.539,133.011 31.183,128.158L32.548,127.905Z" style="fill:white;fill-opacity:0.95;fill-rule:nonzero;"/>
    <path d="M97.77,163.343C98,166.297 98.036,169.293 97.879,172.328C97.793,173.979 97.564,175.229 97.186,176.079C96.697,177.195 95.952,178.229 94.951,179.177C93.035,181.002 91.036,182.298 88.959,183.069L86.79,183.896C86.698,183.932 86.623,183.998 86.573,184.083L80.391,195.005L71.343,210.448C68.163,215.741 64.777,220.861 61.183,225.803C59.001,228.805 56.727,231.395 54.354,233.577C51.798,235.933 49.179,237.525 45.766,238.201C45.487,238.256 45.202,238.279 44.92,238.276C44.293,238.266 43.279,238.224 41.881,238.148C40.991,238.099 39.718,237.728 38.054,237.042C35.354,235.923 32.715,234.351 30.139,232.32C27.911,230.564 26.303,229.216 25.322,228.28C23.438,226.482 21.157,224.073 18.483,221.051C17.826,220.221 17.163,219.397 16.491,218.573C14.683,216.355 12.917,213.989 11.191,211.478C11.434,211.213 11.765,211.058 12.182,211.022C12.782,210.973 13.101,210.943 13.137,210.937C20.898,209.45 28.026,206.448 34.52,201.929C35.124,201.509 35.685,200.79 36.207,199.773C36.243,199.704 36.338,199.691 36.391,199.753C37.355,200.898 37.943,201.63 38.153,201.942C38.871,203.002 40.25,204.193 41.126,205.509C41.228,205.66 41.346,205.801 41.474,205.929C42.298,206.746 42.839,207.704 43.518,208.436C44.283,209.26 44.726,209.769 44.847,209.962C44.906,210.054 45.028,210.087 45.126,210.038C45.156,210.021 45.418,209.834 45.917,209.47C46.747,208.863 48.214,207.491 50.324,205.348C53.8,201.82 57.229,198.001 60.606,193.889C66.152,187.138 70.867,180.962 75.462,173.953C75.537,173.835 75.58,173.664 75.583,173.441C75.655,173.464 75.705,173.464 75.734,173.434C75.737,173.431 75.741,173.425 75.744,173.418C76.299,171.498 76.614,169.831 76.696,168.417C76.755,167.357 76.81,166.681 76.863,166.392C77.106,165.01 77.083,164.469 77.303,163.081C77.418,162.349 77.49,161.794 77.516,161.414C77.775,157.705 78.231,154.112 78.881,150.637C79.866,145.37 82.895,141.632 87.167,138.324C89.356,136.631 91.758,135.226 94.367,134.114C95.926,133.448 97.459,133.014 98.971,132.811C100.642,132.585 102.703,133.264 103.526,134.908C103.579,135.01 103.612,135.121 103.621,135.236C103.795,137.005 103.7,138.583 103.329,139.968C103.014,141.153 102.493,143.181 101.643,144.605C100.99,145.701 100.599,146.384 100.478,146.653C99.431,148.921 98.656,151.093 98.154,153.164C98.128,153.265 98.115,153.367 98.112,153.475C98.092,154.135 97.997,154.791 97.823,155.438C97.787,155.566 97.77,155.697 97.77,155.828L97.77,163.343Z" style="fill:white;fill-opacity:0.95;fill-rule:nonzero;"/>
    <path d="M71.376,218.862L71.343,210.448L80.391,195.005L83.896,201.282C83.951,201.381 84.092,201.368 84.129,201.263C84.453,200.308 84.683,199.34 84.818,198.358C85.136,196.045 85.526,194.105 85.996,192.54C86.869,189.629 87.525,187.352 87.961,185.708C88.188,184.858 88.618,183.955 88.959,183.069C91.036,182.298 93.035,181.002 94.951,179.177C95.952,178.229 96.697,177.195 97.186,176.079C97.564,175.229 97.793,173.979 97.879,172.328C98.036,169.293 98,166.297 97.77,163.343C98.699,160.718 99.933,158.542 101.465,156.813C103.999,153.955 106.641,151.582 110.779,147.582C111.36,147.02 112.295,145.859 113.578,144.09C115.544,141.386 117.709,138.593 119.669,136.467C121.483,134.501 124.959,133.72 126.284,136.765C127.187,138.83 127.558,141.097 127.397,143.562C126.951,150.545 124.854,156.875 121.109,162.549C117.893,167.422 113.726,172.049 108.61,176.427C108.265,176.723 107.477,177.55 106.247,178.911C106.171,178.997 106.112,179.098 106.076,179.207C105.761,180.129 105.502,181.264 105.302,182.62C104.599,187.335 104.284,191.982 104.028,196.763C103.763,201.745 103.418,207.747 102.988,214.77C102.794,217.95 102.351,221.038 101.662,224.034C100.773,227.906 98.958,231.88 95.946,234.43C94.535,235.625 92.812,235.904 91.036,235.303C89.875,234.906 88.378,234.716 87.102,234.026C84.279,232.5 81.749,230.682 79.508,228.569C76.466,225.698 73.755,222.462 71.376,218.862Z" style="fill:white;fill-opacity:0.65;fill-rule:nonzero;"/>
    <path d="M207.18,144.969L162.592,155.156C162.533,155.169 162.474,155.165 162.418,155.146L160.824,154.585C160.84,154.407 160.82,154.355 160.771,154.43C160.804,154.404 160.833,154.381 160.856,154.361C160.909,154.316 160.945,154.25 160.958,154.178C161.076,153.505 161.322,152.924 161.697,152.435L162.822,152.691C162.976,152.727 163.134,152.724 163.282,152.685C179.096,148.409 192.603,144.759 203.8,141.73C204.325,141.589 204.843,141.593 205.352,141.74C205.454,141.77 205.539,141.839 205.588,141.931L207.18,144.969Z" style="fill:white;fill-opacity:0.95;fill-rule:nonzero;"/>
    <path d="M201.785,188.792C200.157,187.798 198.884,187.247 197.968,187.138C197.168,187.047 196.364,186.971 195.56,186.909C194.798,186.853 193.955,187.05 193.131,186.974C192.879,186.39 192.541,185.813 192.337,185.258C191.527,183.036 190.864,181.064 190.342,179.348C190.312,179.253 190.217,179.197 190.122,179.22C186.722,179.991 182.443,182.38 179.276,179.016C179.148,178.511 179.142,177.92 179.257,177.248C180.533,178.692 181.308,179.374 183.214,179.64C183.7,179.709 184.448,179.578 185.456,179.249C185.708,179.167 187.726,178.596 191.504,177.536C193.945,176.854 195.261,176.155 196.091,173.966C196.127,173.868 196.15,173.759 196.154,173.651C196.18,172.643 196.157,172.03 196.081,171.817C195.753,170.871 195.12,169.014 194.181,166.241C193.404,163.944 191.956,162.756 189.84,162.674C188.885,162.638 187.631,162.887 186.079,163.425C185.446,163.645 184.218,164.032 182.397,164.587C179.171,165.572 177.199,166.07 176.733,169.444C176.717,169.549 176.726,169.657 176.763,169.756L178.416,174.819L176.989,174.521C176.572,173.336 176.162,172.177 175.762,171.039C175.591,170.553 175.558,169.759 175.663,168.66C175.742,167.81 176.008,167.075 176.461,166.448C177.799,164.59 179.247,164.223 181.751,163.445C184.031,162.736 185.846,162.162 187.188,161.719C187.913,161.479 188.767,161.368 189.754,161.378C192.59,161.414 194.69,163.232 195.533,165.939C196.262,168.282 196.764,169.785 197.04,170.445C197.223,170.885 197.082,171.423 197.575,171.794C197.644,171.846 197.732,171.862 197.814,171.836L203.357,170.238C203.423,170.222 203.488,170.212 203.554,170.209C205.136,170.179 206.054,170.192 206.307,170.248C206.763,170.35 207.554,170.74 208.68,171.413C209.799,172.082 210.537,173.615 210.944,174.931C211.331,176.178 211.702,177.323 212.053,178.367C212.582,179.929 212.828,181.094 212.798,181.865C212.677,184.671 210.75,186.443 208.007,187.198C205.946,187.765 203.872,188.297 201.785,188.792ZM201.762,181.54C201.148,181.241 200.561,180.785 200.003,180.175C199.79,179.942 199.462,179.85 199.156,179.939L199.002,179.981C198.608,180.096 198.507,180.608 198.828,180.864L201.037,182.616C201.138,182.698 201.145,182.849 201.05,182.938L199.117,184.756C198.877,184.979 198.884,185.36 199.127,185.58L199.147,185.596C199.432,185.829 199.839,185.836 200.131,185.609C201.043,184.904 201.775,184.152 202.326,183.351C202.399,183.246 202.533,183.207 202.651,183.256C203.862,183.771 205.073,184.037 206.284,184.06C206.566,184.064 206.773,183.794 206.694,183.525L206.658,183.397C206.586,183.155 206.389,182.967 206.14,182.915L203.344,182.321C203.235,182.298 203.167,182.193 203.19,182.085C203.285,181.583 204.03,178.061 204.03,178.061C204.03,177.95 204.079,177.845 204.164,177.773C204.43,177.55 204.699,177.438 204.971,177.435C205.628,177.428 206.222,177.057 206.117,176.46C206.058,176.142 205.67,175.961 205.277,176.07C202.96,176.703 201.687,177.057 201.454,177.139C201.289,177.195 201.109,177.11 201.05,176.949L200.439,175.308C200.302,174.941 199.842,174.819 199.544,175.075L199.252,175.325C199.199,175.367 199.179,175.439 199.199,175.502L199.731,177.346C199.767,177.471 199.695,177.602 199.567,177.638L195.609,178.78C195.415,178.836 195.304,179.036 195.36,179.23L195.455,179.558C195.54,179.853 195.852,180.024 196.15,179.939C196.15,179.939 202.093,178.317 202.376,178.091C202.517,177.979 202.724,178.075 202.724,178.255L202.015,181.438C201.979,181.54 201.86,181.589 201.762,181.54Z" style="fill:white;fill-opacity:0.75;fill-rule:nonzero;"/>
    <path d="M179.257,177.248C179.27,176.335 178.991,175.525 178.416,174.819L176.763,169.756C176.726,169.657 176.717,169.549 176.733,169.444C177.199,166.07 179.171,165.572 182.397,164.587C184.218,164.032 185.446,163.645 186.079,163.425C187.631,162.887 188.885,162.638 189.84,162.674C191.956,162.756 193.404,163.944 194.181,166.241C195.12,169.014 195.753,170.871 196.081,171.817C196.157,172.03 196.18,172.643 196.154,173.651C196.15,173.759 196.127,173.868 196.091,173.966C195.261,176.155 193.945,176.854 191.504,177.536C187.726,178.596 185.708,179.167 185.456,179.249C184.448,179.578 183.7,179.709 183.214,179.64C181.308,179.374 180.533,178.692 179.257,177.248ZM185.364,172.916L188.022,172.151C188.284,172.076 188.567,172.161 188.747,172.368L190.47,174.389C190.673,174.626 191.057,174.54 191.143,174.242L191.264,173.825C191.32,173.625 191.277,173.411 191.143,173.257L186.266,167.544C186.145,167.403 185.981,167.304 185.797,167.262C184.973,167.071 184.474,167.321 184.294,168.013C184.104,168.738 183.995,169.723 183.969,170.967C183.926,172.903 183.887,174.462 183.857,175.643C183.848,175.971 184.169,176.204 184.478,176.099L184.602,176.053C184.97,175.919 185.216,175.567 185.216,175.177L185.216,173.116C185.216,173.024 185.275,172.942 185.364,172.916Z" style="fill:white;fill-opacity:0.25;fill-rule:nonzero;"/>
    <path d="M185.216,173.116L185.216,175.177C185.216,175.567 184.97,175.919 184.602,176.053L184.478,176.099C184.169,176.204 183.848,175.971 183.857,175.643C183.887,174.462 183.926,172.903 183.969,170.967C183.995,169.723 184.104,168.738 184.294,168.013C184.474,167.321 184.973,167.071 185.797,167.262C185.981,167.304 186.145,167.403 186.266,167.544L191.143,173.257C191.277,173.411 191.32,173.625 191.264,173.825L191.143,174.242C191.057,174.54 190.673,174.626 190.47,174.389L188.747,172.368C188.567,172.161 188.284,172.076 188.022,172.151L185.364,172.916C185.275,172.942 185.216,173.024 185.216,173.116ZM187.405,170.862L185.554,168.692C185.475,168.597 185.321,168.653 185.321,168.778L185.321,171.337C185.321,171.501 185.495,171.606 185.639,171.531C186.21,171.239 186.762,171.095 187.293,171.098C187.418,171.098 187.484,170.953 187.405,170.862Z" style="fill:white;fill-opacity:0.75;fill-rule:nonzero;"/>
    <path d="M187.405,170.862C187.484,170.953 187.418,171.098 187.293,171.098C186.762,171.095 186.21,171.239 185.639,171.531C185.495,171.606 185.321,171.501 185.321,171.337L185.321,168.778C185.321,168.653 185.475,168.597 185.554,168.692L187.405,170.862Z" style="fill:white;fill-opacity:0.25;fill-rule:nonzero;"/>
    <path d="M178.416,174.819C178.991,175.525 179.27,176.335 179.257,177.248C179.142,177.92 179.148,178.511 179.276,179.016C178.955,180.926 178.699,183.473 178.59,184.792C178.439,186.666 178.443,188.53 178.603,190.387C178.64,190.804 179.063,191.073 179.457,190.925C183.861,189.278 188.757,187.591 193.131,186.974C193.955,187.05 194.798,186.853 195.56,186.909C196.364,186.971 197.168,187.047 197.968,187.138C198.884,187.247 200.157,187.798 201.785,188.792L203.291,190.194C203.377,190.276 203.495,190.322 203.616,190.322C205.136,190.328 206.448,190.669 207.242,192.054C207.292,192.143 207.328,192.238 207.347,192.337C207.682,194.033 206.766,194.968 206.353,196.478C205.936,198.011 205.421,198.805 204.318,199.855C202.937,201.167 201.362,202.454 199.599,203.717C195.681,206.333 191.448,208.568 186.899,210.425C186.794,210.468 186.709,210.546 186.66,210.645L185.272,213.421C185.173,213.615 185.121,213.831 185.118,214.048C185.114,214.212 184.996,214.809 184.757,215.84C184.192,218.268 183.569,220.404 182.883,222.249C181.029,225.648 178.495,228.359 175.282,230.377C172.378,232.205 169.162,233.072 165.641,232.983C165.539,232.98 165.444,232.963 165.349,232.934L162.222,231.966C161.979,231.89 161.762,231.746 161.605,231.546C159.521,228.937 158.156,225.983 157.516,222.685C157.197,221.054 157.181,219.554 157.463,218.186C157.841,216.335 158.313,214.891 158.878,213.858C161.29,209.424 164.762,206.024 169.297,203.658C169.405,203.599 169.484,203.497 169.51,203.379C169.717,202.474 169.983,201.482 170.304,200.406C170.56,199.553 170.025,198.867 170.025,198.04C170.025,196.576 169.966,194.735 170.262,192.908C170.921,188.832 171.765,184.917 172.792,181.159C173.487,178.655 174.501,175.6 176.989,174.521L178.416,174.819Z" style="fill:white;fill-opacity:0.95;fill-rule:nonzero;"/>
    <path d="M202.015,181.438L202.724,178.255C202.724,178.075 202.517,177.979 202.376,178.091C202.093,178.317 196.15,179.939 196.15,179.939C195.852,180.024 195.54,179.853 195.455,179.558L195.36,179.23C195.304,179.036 195.415,178.836 195.609,178.78L199.567,177.638C199.695,177.602 199.767,177.471 199.731,177.346L199.199,175.502C199.179,175.439 199.199,175.367 199.252,175.325L199.544,175.075C199.842,174.819 200.302,174.941 200.439,175.308L201.05,176.949C201.109,177.11 201.289,177.195 201.454,177.139C201.687,177.057 202.96,176.703 205.277,176.07C205.67,175.961 206.058,176.142 206.117,176.46C206.222,177.057 205.628,177.428 204.971,177.435C204.699,177.438 204.43,177.55 204.164,177.773C204.079,177.845 204.03,177.95 204.03,178.061C204.03,178.061 203.285,181.583 203.19,182.085C203.167,182.193 203.235,182.298 203.344,182.321L206.14,182.915C206.389,182.967 206.586,183.155 206.658,183.397L206.694,183.525C206.773,183.794 206.566,184.064 206.284,184.06C205.073,184.037 203.862,183.771 202.651,183.256C202.533,183.207 202.399,183.246 202.326,183.351C201.775,184.152 201.043,184.904 200.131,185.609C199.839,185.836 199.432,185.829 199.147,185.596L199.127,185.58C198.884,185.36 198.877,184.979 199.117,184.756L201.05,182.938C201.145,182.849 201.138,182.698 201.037,182.616L198.828,180.864C198.507,180.608 198.608,180.096 199.002,179.981L199.156,179.939C199.462,179.85 199.79,179.942 200.003,180.175C200.561,180.785 201.148,181.241 201.762,181.54C201.86,181.589 201.979,181.54 202.015,181.438Z" style="fill:white;fill-opacity:0.25;fill-rule:nonzero;"/>
    <path d="M179.276,179.016C182.443,182.38 186.722,179.991 190.122,179.22C190.217,179.197 190.312,179.253 190.342,179.348C190.864,181.064 191.527,183.036 192.337,185.258C192.541,185.813 192.879,186.39 193.131,186.974C188.757,187.591 183.861,189.278 179.457,190.925C179.063,191.073 178.64,190.804 178.603,190.387C178.443,188.53 178.439,186.666 178.59,184.792C178.699,183.473 178.955,180.926 179.276,179.016Z" style="fill:white;fill-opacity:0.25;fill-rule:nonzero;"/>
    <path d="M292.194,200.019C293.303,207.639 293.713,216.342 291.088,223.824C288.059,232.464 281.269,239.96 273.338,244.672C271.044,246.037 268.57,246.976 265.908,247.491C266.286,247.097 266.748,246.848 267.29,246.743C267.631,246.677 267.9,246.418 267.979,246.083C269.971,237.708 271.411,230.338 272.294,223.972C272.422,223.069 272.616,221.468 272.878,219.174C273.111,217.149 273.101,215.177 273.249,212.765C273.38,210.668 273.374,208.443 273.229,206.09C273.22,205.955 273.328,205.84 273.466,205.84C274.91,205.854 276.442,205.713 278.06,205.414C282.884,204.525 287.508,202.693 291.931,199.917C292.092,199.815 292.181,199.852 292.194,200.019Z" style="fill:white;fill-opacity:0.95;fill-rule:nonzero;"/>
    <path d="M71.343,210.448L71.376,218.862C71.547,225.616 71.704,232.399 72.239,238.9C72.515,242.273 71.461,246.717 68.764,248.964C64.632,252.407 58.02,253.746 52.776,254.044C50.58,254.172 49.025,254.094 46.882,254.415C38.596,255.656 29.013,254.126 20.921,251.226C19.451,250.7 18.013,250.031 16.609,249.217C12.766,246.995 12.559,243.898 13.714,239.924C14.732,236.422 15.716,232.93 16.668,229.452C17.413,226.731 18.017,223.929 18.483,221.051C21.157,224.073 23.438,226.482 25.322,228.28C26.303,229.216 27.911,230.564 30.139,232.32C32.715,234.351 35.354,235.923 38.054,237.042C39.718,237.728 40.991,238.099 41.881,238.148C43.279,238.224 44.293,238.266 44.92,238.276C45.202,238.279 45.487,238.256 45.766,238.201C49.179,237.525 51.798,235.933 54.354,233.577C56.727,231.395 59.001,228.805 61.183,225.803C64.777,220.861 68.163,215.741 71.343,210.448Z" style="fill:white;fill-opacity:0.75;fill-rule:nonzero;"/>
    <path d="M72.89,100.128C73.397,100.057 73.935,100.924 74.093,102.062C74.25,103.201 73.968,104.181 73.462,104.25C72.955,104.321 72.417,103.454 72.259,102.316C72.102,101.177 72.385,100.197 72.89,100.128Z" style="fill:white;fill-opacity:0.15;fill-rule:nonzero;"/>
    <path d="M80.28,97.891L80.227,97.8C80.204,97.76 80.175,97.724 80.135,97.698C77.533,95.847 74.645,95.043 71.475,95.286C70.759,95.342 70.238,95.489 69.91,95.729C69.778,95.824 69.709,95.88 69.703,95.896C69.591,96.231 69.821,96.582 70.172,96.608C73.834,96.891 76.995,96.9 79.928,98.272C80.168,98.384 80.411,98.121 80.28,97.891Z" style="fill:white;fill-opacity:0.15;fill-rule:nonzero;"/>
</svg>
