<?xml version="1.0" encoding="UTF-8" standalone="no"?>
<!DOCTYPE svg PUBLIC "-//W3C//DTD SVG 1.1//EN" "http://www.w3.org/Graphics/SVG/1.1/DTD/svg11.dtd">
<svg width="100%" height="100%" viewBox="0 0 300 300" version="1.1" xmlns="http://www.w3.org/2000/svg" xmlns:xlink="http://www.w3.org/1999/xlink" xml:space="preserve" xmlns:serif="http://www.serif.com/" style="fill-rule:evenodd;clip-rule:evenodd;stroke-linejoin:round;stroke-miterlimit:2;">
    <path d="M276.696,112.379C276.613,112.489 276.381,112.544 275.998,112.544C191.553,112.541 107.111,112.538 22.666,112.541C22.651,112.541 22.424,112.523 21.984,112.486C21.516,112.446 20.984,112.544 20.394,112.782L23.287,98.66C23.314,98.525 23.369,98.397 23.452,98.287C23.742,97.886 24.085,97.623 24.449,97.146C32.091,87.112 43.223,72.5 57.838,53.31C58.34,52.647 58.125,51.989 59.202,51.989C65.223,51.998 107.597,51.998 186.318,51.992C186.752,51.992 187.755,51.894 188.119,52.264C188.327,52.475 188.284,52.827 188.501,53.112C200.927,69.433 212.312,84.381 222.655,97.953C222.722,98.042 222.817,98.103 222.924,98.134L276.696,112.379ZM158.709,98.69C158.709,98.742 158.748,98.782 158.8,98.782L213.902,98.782C213.979,98.782 214.022,98.693 213.976,98.632L185.773,62.711C185.755,62.69 185.731,62.677 185.7,62.677L158.8,62.677C158.748,62.677 158.709,62.717 158.709,62.769L158.709,98.69ZM61.028,62.684C60.963,62.684 60.905,62.714 60.866,62.766L34.66,98.461C34.562,98.596 34.657,98.782 34.822,98.782L88.484,98.782C88.594,98.782 88.686,98.69 88.686,98.58L88.686,62.885C88.686,62.775 88.594,62.684 88.484,62.684L61.028,62.684ZM151.987,62.882C151.987,62.772 151.898,62.684 151.788,62.684L95.909,62.684C95.799,62.684 95.71,62.772 95.71,62.882L95.71,98.583C95.71,98.693 95.799,98.782 95.909,98.782L151.788,98.782C151.898,98.782 151.987,98.693 151.987,98.583L151.987,62.882ZM113.662,104.623C113.662,104.528 113.582,104.449 113.487,104.449L96.496,104.449C96.401,104.449 96.322,104.528 96.322,104.623L96.322,108.697C96.322,108.792 96.401,108.871 96.496,108.871L113.487,108.871C113.582,108.871 113.662,108.792 113.662,108.697L113.662,104.623ZM176.253,105.247C176.253,105.152 176.177,105.076 176.082,105.076L158.063,105.076C157.968,105.076 157.892,105.152 157.892,105.247L157.892,108.709C157.892,108.804 157.968,108.88 158.063,108.88L176.082,108.88C176.177,108.88 176.253,108.804 176.253,108.709L176.253,105.247Z" style="fill:white;fill-opacity:0.35;fill-rule:nonzero;"/>
    <path d="M158.709,98.69L158.709,62.769C158.709,62.717 158.748,62.677 158.8,62.677L185.7,62.677C185.731,62.677 185.755,62.69 185.773,62.711L213.976,98.632C214.022,98.693 213.979,98.782 213.902,98.782L158.8,98.782C158.748,98.782 158.709,98.742 158.709,98.69Z" style="fill:white;fill-opacity:0.15;fill-rule:nonzero;"/>
    <path d="M61.028,62.684L88.484,62.684C88.594,62.684 88.686,62.775 88.686,62.885L88.686,98.58C88.686,98.69 88.594,98.782 88.484,98.782L34.822,98.782C34.657,98.782 34.562,98.596 34.66,98.461L60.866,62.766C60.905,62.714 60.963,62.684 61.028,62.684Z" style="fill:white;fill-opacity:0.15;fill-rule:nonzero;"/>
    <path d="M151.987,98.583C151.987,98.693 151.898,98.782 151.788,98.782L95.909,98.782C95.799,98.782 95.71,98.693 95.71,98.583L95.71,62.882C95.71,62.772 95.799,62.684 95.909,62.684L151.788,62.684C151.898,62.684 151.987,62.772 151.987,62.882L151.987,98.583Z" style="fill:white;fill-opacity:0.15;fill-rule:nonzero;"/>
    <path d="M113.662,108.697C113.662,108.792 113.582,108.871 113.487,108.871L96.496,108.871C96.401,108.871 96.322,108.792 96.322,108.697L96.322,104.623C96.322,104.528 96.401,104.449 96.496,104.449L113.487,104.449C113.582,104.449 113.662,104.528 113.662,104.623L113.662,108.697Z" style="fill:white;fill-opacity:0.15;fill-rule:nonzero;"/>
    <path d="M176.253,108.709C176.253,108.804 176.177,108.88 176.082,108.88L158.063,108.88C157.968,108.88 157.892,108.804 157.892,108.709L157.892,105.247C157.892,105.152 157.968,105.076 158.063,105.076L176.082,105.076C176.177,105.076 176.253,105.152 176.253,105.247L176.253,108.709Z" style="fill:white;fill-opacity:0.15;fill-rule:nonzero;"/>
    <path d="M278.436,114.382L20.067,114.379L20.394,112.782C20.984,112.544 21.516,112.446 21.984,112.486C22.424,112.523 22.651,112.541 22.666,112.541C107.111,112.538 191.553,112.541 275.998,112.544C276.381,112.544 276.613,112.489 276.696,112.379L277.83,112.73C277.925,112.758 278.002,112.822 278.044,112.908C278.243,113.296 278.372,113.789 278.436,114.382Z" style="fill:white;fill-opacity:0.25;fill-rule:nonzero;"/>
    <path d="M278.436,114.382L279.589,119.263L270.056,119.263C269.928,119.263 269.824,119.367 269.824,119.495L269.824,135.859C269.824,135.942 269.891,136.009 269.974,136.009L283.479,136L285.408,144.168C285.46,144.392 285.439,144.621 285.347,144.829C282.414,151.444 280.21,156.426 278.732,159.774C278.488,160.328 278.164,160.49 277.534,160.49L255.215,160.49C255.123,160.395 255.074,160.309 255.065,160.227C254.509,154.517 252.301,149.612 248.441,145.514C242.499,139.208 233.628,136.486 225.178,138.41C221.135,139.33 217.563,141.132 214.462,143.814C210.667,147.095 208.055,151.328 206.633,156.505C202.636,153.799 198.81,151.208 195.159,148.734C193.284,147.462 191.272,146.361 189.309,146.514C187.819,146.63 186.061,146.951 184.033,147.48C183.85,147.315 183.623,147.248 183.449,147.123C181.312,145.602 179.175,144.081 177.038,142.561C170.017,137.566 162.997,132.571 155.978,127.575C155.091,126.945 154.222,126.731 153.482,127.608C152.978,127.771 152.565,128.076 152.237,128.532C145.855,137.404 139.516,146.306 133.225,155.239C132.445,156.346 132.592,157.291 133.665,158.071C134.656,158.793 135.73,159.582 136.889,160.438L114.72,160.53C112.552,159.741 111.182,159.27 110.61,159.117C110.484,159.083 110.044,159.004 109.292,158.878C109.166,158.857 109.038,158.848 108.909,158.854C108.796,158.86 107.307,158.927 104.435,159.053C102.946,159.12 100.585,159.575 97.356,160.416C96.71,154.352 94.377,149.276 90.359,145.19C83.939,138.658 74.34,136.165 65.548,138.899C55.899,141.899 49.284,150.178 48.297,160.224C48.287,160.316 48.238,160.407 48.15,160.496L23.021,160.496C22.929,160.496 21.953,160.985 21.859,160.765L14.198,143.303C14.134,143.156 14.115,142.991 14.149,142.832L15.534,136.245L31.373,136.269C31.556,136.269 31.703,136.122 31.703,135.939L31.703,120.538C31.703,120.422 31.611,120.33 31.495,120.33L18.834,120.327L20.067,114.379L278.436,114.382Z" style="fill:white;fill-opacity:0.35;fill-rule:nonzero;"/>
    <path d="M279.589,119.263L283.479,136L269.974,136.009C269.891,136.009 269.824,135.942 269.824,135.859L269.824,119.495C269.824,119.367 269.928,119.263 270.056,119.263L279.589,119.263Z" style="fill:white;fill-opacity:0.15;fill-rule:nonzero;"/>
    <path d="M18.834,120.327L31.495,120.33C31.611,120.33 31.703,120.422 31.703,120.538L31.703,135.939C31.703,136.122 31.556,136.269 31.373,136.269L15.534,136.245L18.834,120.327Z" style="fill:white;fill-opacity:0.15;fill-rule:nonzero;"/>
    <path d="M184.033,147.48L196.024,156.071C196.098,156.123 196.116,156.221 196.07,156.297L195.608,157.046C182.232,147.508 168.889,138 155.577,128.526C154.858,128.012 154.158,127.706 153.482,127.608C154.222,126.731 155.091,126.945 155.978,127.575C165.134,134.092 174.29,140.606 183.449,147.123C183.623,147.248 183.85,147.315 184.033,147.48Z" style="fill:white;fill-opacity:0.5;fill-rule:nonzero;"/>
    <path d="M153.482,127.608C154.158,127.706 154.858,128.012 155.577,128.526C168.889,138 182.232,147.508 195.608,157.046C194.376,159.631 192.709,161.744 190.605,163.383C189.11,164.548 187.339,165.144 185.299,165.175C185.183,165.178 185.067,165.163 184.957,165.129C184.107,164.881 183.336,164.68 182.645,164.521C180.645,164.059 179.103,162.979 176.645,161.597C174.366,160.316 171.853,159.426 169.106,158.933C166.033,158.386 163.629,158.184 160.914,159.144C159.635,159.594 158.602,160.383 157.813,161.505L157.091,161.554C156.657,161.585 156.345,161.985 156.427,162.41C156.601,163.331 157.128,164.071 158.011,164.631C158.754,165.102 159.776,165.45 161.079,165.677C161.703,166.04 162.339,166.355 162.984,166.621C163.953,167.016 164.599,167.3 164.926,167.469C168.782,169.475 172.275,171.677 175.397,174.074C179.74,177.408 182.905,179.793 184.89,181.227L179.801,188.457C179.409,188.876 178.963,189.139 178.461,189.249C177.883,189.374 177.259,189.2 176.587,188.72C163.284,179.209 150.051,169.781 136.889,160.438C135.73,159.582 134.656,158.793 133.665,158.071C132.592,157.291 132.445,156.346 133.225,155.239C139.516,146.306 145.855,137.404 152.237,128.532C152.565,128.076 152.978,127.771 153.482,127.608ZM162.357,144.106C162.962,143.26 162.764,142.083 161.917,141.479L155.041,136.574C154.195,135.969 153.017,136.165 152.413,137.014L148.858,141.998C148.253,142.844 148.451,144.022 149.298,144.626L156.174,149.531C157.02,150.135 158.198,149.939 158.802,149.091L162.357,144.106ZM146.783,147.993C146.201,147.569 145.323,147.789 144.819,148.479C144.317,149.172 144.381,150.074 144.964,150.497C145.546,150.921 146.424,150.701 146.927,150.011C147.43,149.318 147.366,148.416 146.783,147.993ZM150.092,150.358C149.513,149.936 148.638,150.153 148.135,150.842C147.632,151.533 147.693,152.432 148.272,152.854C148.852,153.276 149.727,153.059 150.23,152.37C150.733,151.679 150.672,150.78 150.092,150.358ZM153.906,154.57C154.286,154.055 154.176,153.328 153.66,152.949L153.523,152.847C153.008,152.468 152.28,152.578 151.902,153.093L151.499,153.639C151.118,154.153 151.228,154.881 151.744,155.26L151.882,155.361C152.397,155.741 153.124,155.63 153.503,155.116L153.906,154.57ZM174.392,178.825C174.834,178.203 174.687,177.343 174.066,176.902L142.847,154.715C142.225,154.273 141.366,154.419 140.923,155.04L140.909,155.06C140.467,155.682 140.613,156.542 141.235,156.983L172.454,179.17C173.076,179.613 173.935,179.466 174.378,178.845L174.392,178.825ZM157.12,155.364C156.537,154.942 155.663,155.159 155.163,155.85C154.666,156.539 154.73,157.441 155.312,157.861C155.895,158.282 156.77,158.065 157.269,157.374C157.767,156.686 157.702,155.783 157.12,155.364Z" style="fill:white;fill-opacity:0.75;fill-rule:nonzero;"/>
    <path d="M158.802,149.091C158.198,149.939 157.02,150.135 156.174,149.531L149.298,144.626C148.451,144.022 148.253,142.844 148.858,141.998L152.413,137.014C153.017,136.165 154.195,135.969 155.041,136.574L161.917,141.479C162.764,142.083 162.962,143.26 162.357,144.106L158.802,149.091Z" style="fill:white;fill-opacity:0.65;fill-rule:nonzero;"/>
    <path d="M97.356,160.416C94.879,161.102 92.258,161.93 89.496,162.903C88.147,163.38 86.744,163.872 85.288,164.377C85.689,161.389 85.23,158.704 83.906,156.322C80.273,149.78 71.756,147.652 65.548,152.016C60.129,155.82 58.541,162.958 61.863,168.808L49.657,170.674C48.486,167.352 48.009,164.132 48.232,161.01C48.251,160.738 48.223,160.566 48.15,160.496C48.238,160.407 48.287,160.316 48.297,160.224C49.284,150.178 55.899,141.899 65.548,138.899C74.34,136.165 83.939,138.658 90.359,145.19C94.377,149.276 96.71,154.352 97.356,160.416Z" style="fill:white;fill-opacity:0.25;fill-rule:nonzero;"/>
    <path d="M255.215,160.49L255.151,160.566C255.12,160.6 255.105,160.649 255.108,160.695C255.337,164.322 254.79,167.878 253.466,171.368L241.031,169.603C243.065,166.383 243.695,163.056 242.918,159.624C240.634,149.554 227.808,146.227 220.997,154.095C218.236,157.288 217.337,161.092 218.3,165.511C215.655,163.97 213.199,162.218 210.927,160.254C209.337,158.878 207.905,157.627 206.633,156.505C208.055,151.328 210.667,147.095 214.462,143.814C217.563,141.132 221.135,139.33 225.178,138.41C233.628,136.486 242.499,139.208 248.441,145.514C252.301,149.612 254.509,154.517 255.065,160.227C255.074,160.309 255.123,160.395 255.215,160.49Z" style="fill:white;fill-opacity:0.25;fill-rule:nonzero;"/>
    <path d="M206.633,156.505C207.905,157.627 209.337,158.878 210.927,160.254C213.199,162.218 215.655,163.97 218.3,165.511L223.474,168.508C221.459,174.154 219.869,179.848 218.701,185.594C218.496,186.607 218.303,188.136 218.123,190.182C214.826,189.154 211.471,188.555 208.058,188.386C206.184,188.292 204.578,188.111 202.685,187.961C199.336,187.698 196.076,186.931 192.908,185.659C190.171,184.457 187.624,183.053 185.26,181.444C185.201,181.31 185.079,181.236 184.89,181.227C182.905,179.793 179.74,177.408 175.397,174.074C172.275,171.677 168.782,169.475 164.926,167.469C164.599,167.3 163.953,167.016 162.984,166.621C162.339,166.355 161.703,166.04 161.079,165.677C162.128,165.863 162.862,165.829 163.281,165.576C164.054,165.102 164.137,164.521 163.528,163.836C162.173,162.316 159.877,161.67 157.813,161.505C158.602,160.383 159.635,159.594 160.914,159.144C163.629,158.184 166.033,158.386 169.106,158.933C171.853,159.426 174.366,160.316 176.645,161.597C179.103,162.979 180.645,164.059 182.645,164.521C183.336,164.68 184.107,164.881 184.957,165.129C185.067,165.163 185.183,165.178 185.299,165.175C187.339,165.144 189.11,164.548 190.605,163.383C192.709,161.744 194.376,159.631 195.608,157.046L196.07,156.297C196.116,156.221 196.098,156.123 196.024,156.071L184.033,147.48C186.061,146.951 187.819,146.63 189.309,146.514C191.272,146.361 193.284,147.462 195.159,148.734C198.81,151.208 202.636,153.799 206.633,156.505Z" style="fill:white;fill-opacity:0.95;fill-rule:nonzero;"/>
    <path d="M146.783,147.993C147.366,148.416 147.43,149.318 146.927,150.011C146.424,150.701 145.546,150.921 144.964,150.497C144.381,150.074 144.317,149.172 144.819,148.479C145.323,147.789 146.201,147.569 146.783,147.993Z" style="fill:white;fill-opacity:0.65;fill-rule:nonzero;"/>
    <path d="M85.288,164.377C82.285,165.438 79.27,166.615 76.239,167.909C75.991,168.013 75.499,168.27 74.759,168.677L74.138,167.086C74.028,166.805 73.734,166.643 73.438,166.695L61.863,168.808C58.541,162.958 60.129,155.82 65.548,152.016C71.756,147.652 80.273,149.78 83.906,156.322C85.23,158.704 85.689,161.389 85.288,164.377Z" style="fill:white;fill-opacity:0.5;fill-rule:nonzero;"/>
    <path d="M241.031,169.603C235.891,168.805 230.777,167.851 225.689,166.744C225.242,166.649 224.802,166.673 224.37,166.817C224.239,166.863 224.135,166.961 224.083,167.086L223.474,168.508L218.3,165.511C217.337,161.092 218.236,157.288 220.997,154.095C227.808,146.227 240.634,149.554 242.918,159.624C243.695,163.056 243.065,166.383 241.031,169.603Z" style="fill:white;fill-opacity:0.5;fill-rule:nonzero;"/>
    <path d="M150.092,150.358C150.672,150.78 150.733,151.679 150.23,152.37C149.727,153.059 148.852,153.276 148.272,152.854C147.693,152.432 147.632,151.533 148.135,150.842C148.638,150.153 149.513,149.936 150.092,150.358Z" style="fill:white;fill-opacity:0.65;fill-rule:nonzero;"/>
    <path d="M153.503,155.116C153.124,155.63 152.397,155.741 151.882,155.361L151.744,155.26C151.228,154.881 151.118,154.153 151.499,153.639L151.902,153.093C152.28,152.578 153.008,152.468 153.523,152.847L153.66,152.949C154.176,153.328 154.286,154.055 153.906,154.57L153.503,155.116Z" style="fill:white;fill-opacity:0.65;fill-rule:nonzero;"/>
    <path d="M174.378,178.845C173.935,179.466 173.076,179.613 172.454,179.17L141.235,156.983C140.613,156.542 140.467,155.682 140.909,155.06L140.923,155.04C141.366,154.419 142.225,154.273 142.847,154.715L174.066,176.902C174.687,177.343 174.834,178.203 174.392,178.825L174.378,178.845Z" style="fill:white;fill-opacity:0.6;fill-rule:nonzero;"/>
    <path d="M157.12,155.364C157.702,155.783 157.767,156.686 157.269,157.374C156.77,158.065 155.895,158.282 155.312,157.861C154.73,157.441 154.666,156.539 155.163,155.85C155.663,155.159 156.537,154.942 157.12,155.364Z" style="fill:white;fill-opacity:0.65;fill-rule:nonzero;"/>
    <path d="M114.72,160.53C117.665,161.906 120.512,163.279 123.255,164.646C124.188,165.111 125.133,165.53 126.09,165.9C127.057,166.276 128.02,166.652 128.98,167.034C128.928,167.141 128.977,167.215 129.13,167.251C129.151,167.258 129.158,167.288 129.136,167.297C129.118,167.307 129.102,167.31 129.093,167.313C129.075,167.316 129.069,167.34 129.081,167.352C129.286,167.594 129.448,167.744 129.564,167.796C130.066,168.025 131.812,168.992 134.803,170.701C136.531,171.689 138.335,173.096 140.219,174.924C141.081,175.759 141.864,176.912 142.121,177.98C142.363,178.989 142.662,180.224 142.638,181.227C142.629,181.692 142.687,183.353 142.818,186.206C142.873,187.341 143.091,188.442 143.094,189.316C143.103,190.585 143.182,192.01 143.338,193.591C143.35,193.695 143.323,193.799 143.262,193.885C143.188,193.986 143.091,194.059 142.971,194.102C142.253,194.304 141.98,195.561 141.821,196.206C140.038,195.194 138.051,194.717 135.855,194.778C135.619,194.784 135.482,195.044 135.61,195.243C135.852,195.613 136.005,195.992 136.069,196.381C136.118,196.674 136.387,196.876 136.681,196.842C136.953,196.812 137.39,196.842 137.996,196.931C140.344,197.283 142.124,198.533 143.332,200.689C142.873,200.433 142.708,200.662 142.369,200.824C142.271,200.87 142.161,200.9 142.051,200.916C140.39,201.102 138.971,200.628 137.791,199.497C137.647,199.359 137.228,198.876 136.534,198.041C136.482,197.977 136.378,198.014 136.378,198.096L136.378,200.032C136.378,200.053 136.375,200.075 136.369,200.096C136.182,200.631 135.818,201.029 135.283,201.289C134.589,199.751 133.445,198.763 131.858,198.326C131.191,198.142 130.647,198.139 130.222,198.316C129.699,198.537 129.408,198.977 129.344,199.634C129.136,199.475 128.913,199.368 128.671,199.31C126.592,198.188 124.723,197.381 123.063,196.888C119.252,195.76 115.824,194.809 112.781,194.035C110.732,193.515 108.998,193.185 107.576,193.041C106.341,192.919 105.573,192.836 105.27,192.79C103.805,192.576 102.503,192.689 100.983,192.5C100.004,192.377 99.346,192.322 99.007,192.335C98.172,192.368 97.298,192.142 96.359,192.056C93.068,191.754 90.365,191.435 88.248,191.108C87.184,190.943 85.933,190.643 84.686,190.231C83.037,189.689 81.453,189.053 80.212,189.442C80.092,189.411 79.991,189.344 79.915,189.24C79.878,189.188 79.86,189.127 79.86,189.065C79.842,188.01 79.808,187.35 79.759,187.078C78.689,181.215 77.022,175.08 74.759,168.677C75.499,168.27 75.991,168.013 76.239,167.909C79.27,166.615 82.285,165.438 85.288,164.377C86.744,163.872 88.147,163.38 89.496,162.903C92.258,161.93 94.879,161.102 97.356,160.416C100.585,159.575 102.946,159.12 104.435,159.053C107.307,158.927 108.796,158.86 108.909,158.854C109.038,158.848 109.166,158.857 109.292,158.878C110.044,159.004 110.484,159.083 110.61,159.117C111.182,159.27 112.552,159.741 114.72,160.53ZM135.152,194.491C135.234,194.472 135.277,194.38 135.24,194.307C135.023,193.867 134.904,193.39 134.889,192.873C134.846,191.408 134.534,190.151 134.574,188.576C134.577,188.5 134.567,188.426 134.552,188.356L134.191,186.692C134.182,186.659 134.173,186.628 134.161,186.594C133.76,185.628 133.136,184.815 132.289,184.154C131.228,183.328 130.136,182.585 129.014,181.925C124.992,179.551 121.414,177.408 117.469,175.848C117.038,175.677 116.546,175.781 116.218,176.108C115.423,176.9 114.741,177.943 114.172,179.236C114.013,179.603 114.001,180.016 114.139,180.392C114.549,181.509 115.121,182.408 116.081,183.136C117.206,183.989 118.301,184.634 119.362,185.074C124.396,187.163 127.362,188.179 131.066,190.49C132.745,191.539 134.048,192.867 134.977,194.475C134.992,194.503 135.026,194.515 135.057,194.509L135.152,194.491Z" style="fill:white;fill-opacity:0.95;fill-rule:nonzero;"/>
    <path d="M157.813,161.505C159.877,161.67 162.173,162.316 163.528,163.836C164.137,164.521 164.054,165.102 163.281,165.576C162.862,165.829 162.128,165.863 161.079,165.677C159.776,165.45 158.754,165.102 158.011,164.631C157.128,164.071 156.601,163.331 156.427,162.41C156.345,161.985 156.657,161.585 157.091,161.554L157.813,161.505Z" style="fill:white;fill-opacity:0.5;fill-rule:nonzero;"/>
    <path d="M74.759,168.677C77.022,175.08 78.689,181.215 79.759,187.078C79.808,187.35 79.842,188.01 79.86,189.065C79.86,189.127 79.878,189.188 79.915,189.24C79.991,189.344 80.092,189.411 80.212,189.442C80.025,189.579 79.949,189.735 79.985,189.912C80.114,190.539 80.153,191.228 80.105,191.977C80.092,192.145 80.016,192.304 79.89,192.417C78.444,193.705 76.511,194.402 74.169,195.341C66.646,198.347 58.003,201.197 48.241,203.891C37.828,206.763 29.81,208.95 24.18,210.457L7.553,174.934C9.54,174.57 48.694,170.823 49.657,170.674L61.863,168.808L73.438,166.695C73.734,166.643 74.028,166.805 74.138,167.086L74.759,168.677Z" style="fill:white;fill-opacity:0.65;fill-rule:nonzero;"/>
    <path d="M241.031,169.603L253.466,171.368C255.811,171.701 258.123,172.013 260.402,172.297C261.906,172.487 290.748,175.087 292.503,174.845L275.622,210.901C270.322,209.482 265.041,208.05 259.784,206.607C257.579,206.002 255.561,205.451 253.729,204.956C245.132,202.638 237.294,200.219 230.209,197.702C226.97,196.552 224.003,195.393 221.309,194.228C220.303,193.79 219.358,193.261 218.48,192.64C218.19,192.435 218.028,192.096 218.046,191.741L218.123,190.182C218.303,188.136 218.496,186.607 218.701,185.594C219.869,179.848 221.459,174.154 223.474,168.508L224.083,167.086C224.135,166.961 224.239,166.863 224.37,166.817C224.802,166.673 225.242,166.649 225.689,166.744C230.777,167.851 235.891,168.805 241.031,169.603Z" style="fill:white;fill-opacity:0.65;fill-rule:nonzero;"/>
    <path d="M142.953,176.499C143.155,177.139 143.378,177.741 143.626,178.313C145.292,182.172 146.971,186.026 148.669,189.873C148.757,190.072 148.877,190.255 149.033,190.423C148.987,190.439 148.956,190.475 148.944,190.53C148.938,190.561 148.95,190.607 148.981,190.668C149.262,191.258 149.611,191.916 150.029,192.646C150.094,192.757 150.137,192.879 150.158,193.004C150.271,193.726 150.039,194.295 149.458,194.714C147.607,196.05 145.28,194.946 143.681,193.723C143.589,193.653 143.454,193.714 143.445,193.83L143.418,194.209L142.971,194.102C143.091,194.059 143.188,193.986 143.262,193.885C143.323,193.799 143.35,193.695 143.338,193.591C143.182,192.01 143.103,190.585 143.094,189.316C143.091,188.442 142.873,187.341 142.818,186.206C142.687,183.353 142.629,181.692 142.638,181.227C142.662,180.224 142.363,178.989 142.121,177.98C141.864,176.912 141.081,175.759 140.219,174.924C138.335,173.096 136.531,171.689 134.803,170.701C131.812,168.992 130.066,168.025 129.564,167.796C129.448,167.744 129.286,167.594 129.081,167.352C129.069,167.34 129.075,167.316 129.093,167.313C129.102,167.31 129.118,167.307 129.136,167.297C129.158,167.288 129.151,167.258 129.13,167.251C128.977,167.215 128.928,167.141 128.98,167.034C130.708,167.79 132.384,168.643 134.011,169.591C135.381,170.389 136.757,171.187 138.139,171.986C139.121,172.551 140.222,173.322 140.953,174.142C141.653,174.924 142.32,175.71 142.953,176.499Z" style="fill:white;fill-opacity:0.85;fill-rule:nonzero;"/>
    <path d="M7.553,174.934L24.18,210.457L38.945,242.051C39.076,242.54 39.015,242.935 38.767,243.235C38.257,243.216 37.908,243.005 37.718,242.599C26.192,217.983 14.678,193.359 3.173,168.732C3.072,168.518 3.088,168.175 3.213,167.704C3.546,167.466 3.919,167.591 4.332,168.083C4.384,168.144 4.424,168.212 4.458,168.282L7.553,174.934Z" style="fill:white;fill-opacity:0.95;fill-rule:nonzero;"/>
    <path d="M296.763,167.652C296.95,168.059 296.984,168.386 296.87,168.631C285.338,193.31 273.794,217.983 262.237,242.651C262.075,242.996 261.744,243.183 261.252,243.207C261.023,242.972 260.955,242.58 261.053,242.033L275.622,210.901L292.503,174.845C293.485,172.759 294.461,170.677 295.433,168.6C295.61,168.221 295.773,167.958 295.922,167.814C296.201,167.548 296.479,167.496 296.763,167.652Z" style="fill:white;fill-opacity:0.95;fill-rule:nonzero;"/>
    <path d="M264.558,244.33C263.384,244.345 262.283,243.972 261.252,243.207C261.744,243.183 262.075,242.996 262.237,242.651C273.794,217.983 285.338,193.31 296.87,168.631C296.984,168.386 296.95,168.059 296.763,167.652C299.219,168.744 300.886,169.912 299.494,172.897C290.28,192.68 279.534,215.671 267.258,241.868C266.65,243.167 266.014,244.183 264.558,244.33Z" style="fill:white;fill-opacity:0.75;fill-rule:nonzero;"/>
    <path d="M3.213,167.704C3.088,168.175 3.072,168.518 3.173,168.732C14.678,193.359 26.192,217.983 37.718,242.599C37.908,243.005 38.257,243.216 38.767,243.235C37.669,243.981 36.504,244.354 35.278,244.354C34.284,244.122 33.547,243.495 33.067,242.47C23.268,221.669 12.553,198.772 0.922,173.778C0.155,172.126 -0.692,170.389 0.91,168.964C1.452,168.484 2.219,168.062 3.213,167.704Z" style="fill:white;fill-opacity:0.75;fill-rule:nonzero;"/>
    <path d="M149.033,190.423C148.877,190.255 148.757,190.072 148.669,189.873C146.971,186.026 145.292,182.172 143.626,178.313C143.378,177.741 143.155,177.139 142.953,176.499C143.598,177.206 144.213,177.903 144.803,178.588C147.286,181.472 149.213,183.729 150.583,185.353C151.094,185.955 151.577,186.417 152.026,186.738C152.1,186.793 152.155,186.867 152.186,186.952L152.54,188.019C152.565,188.099 152.565,188.185 152.537,188.261C151.935,189.897 150.767,190.616 149.033,190.423Z" style="fill:white;fill-opacity:0.75;fill-rule:nonzero;"/>
    <path d="M184.89,181.227C185.079,181.236 185.201,181.31 185.26,181.444L182.948,184.729C181.709,186.408 180.825,187.649 180.296,188.457C180.207,188.588 180.042,188.588 179.801,188.457L184.89,181.227Z" style="fill:white;fill-opacity:0.95;fill-rule:nonzero;"/>
    <path d="M192.908,185.659C191.807,186.68 190.434,187.041 188.786,186.741C186.727,186.365 184.779,185.695 182.948,184.729L185.26,181.444C187.624,183.053 190.171,184.457 192.908,185.659Z" style="fill:white;fill-opacity:0.95;fill-rule:nonzero;"/>
    <path d="M142.971,194.102L143.418,194.209C143.861,195.387 144.1,196.671 144.133,198.069L141.821,196.206C141.98,195.561 142.253,194.304 142.971,194.102Z" style="fill:white;fill-opacity:0.35;fill-rule:nonzero;"/>
    <path d="M141.821,196.206L144.133,198.069C145.699,200.148 146.473,202.512 146.451,205.161C146.451,205.255 146.552,205.313 146.635,205.271C147.488,204.806 147.935,204.469 148.834,204.31C150.192,204.069 151.36,204.454 152.338,205.469C152.513,205.65 152.663,205.855 152.779,206.075L164.137,227.381C164.232,227.555 164.302,227.742 164.348,227.938C164.724,229.543 164.271,230.855 162.99,231.874C162.675,232.124 161.996,232.485 160.953,232.956C163.079,231.586 163.623,229.889 162.589,227.861C161.296,225.32 157.608,218.415 151.525,207.145C150.357,204.977 147.962,204.32 146.005,205.901C145.932,205.959 145.852,206.008 145.763,206.041L143.99,206.726C144.696,204.518 144.476,202.506 143.332,200.689C142.124,198.533 140.344,197.283 137.996,196.931C137.39,196.842 136.953,196.812 136.681,196.842C136.387,196.876 136.118,196.674 136.069,196.381C136.005,195.992 135.852,195.613 135.61,195.243C135.482,195.044 135.619,194.784 135.855,194.778C138.051,194.717 140.038,195.194 141.821,196.206Z" style="fill:white;fill-opacity:0.5;fill-rule:nonzero;"/>
    <path d="M135.283,201.289C135.363,201.714 135.274,201.919 135.017,201.897C133.375,201.766 131.821,201.295 130.353,200.485L129.344,199.634C129.408,198.977 129.699,198.537 130.222,198.316C130.647,198.139 131.191,198.142 131.858,198.326C133.445,198.763 134.589,199.751 135.283,201.289Z" style="fill:white;fill-opacity:0.35;fill-rule:nonzero;"/>
    <path d="M129.344,199.634L130.353,200.485C129.72,201.472 129.369,202.61 129.298,203.904C129.182,206.047 129.717,207.726 130.901,208.943C131.791,210.06 132.763,210.882 133.812,211.414C133.916,211.696 134.13,211.925 134.457,212.106C134.885,212.338 135.127,212.528 135.185,212.677C135.307,212.992 135.161,213.314 134.745,213.641L133.494,213.561C131.94,212.72 130.573,211.751 129.396,210.656L128.194,208.653C126.751,205.442 126.91,202.329 128.671,199.31C128.913,199.368 129.136,199.475 129.344,199.634Z" style="fill:white;fill-opacity:0.5;fill-rule:nonzero;"/>
    <path d="M160.953,232.956C158.008,234.55 155.03,236.149 152.02,237.754C150.137,238.758 148.831,239.277 148.106,239.314C146.702,239.384 145.571,238.669 144.711,237.164C143.491,235.024 141.103,230.525 137.546,223.672C138.564,220.678 139.002,217.531 138.855,214.225C139.234,214.46 140.8,214.271 141.152,214.081C143.76,212.69 145.669,211.668 146.88,211.017C146.99,210.959 147.084,210.879 147.164,210.781C147.647,210.191 148.653,209.573 148.225,208.641C147.95,208.038 147.152,208.096 146.641,208.096C146.546,208.096 146.162,208.073 145.546,208.255L138.913,211.699C138.464,211.139 137.846,210.711 137.06,210.421L143.99,206.726L145.763,206.041C145.852,206.008 145.932,205.959 146.005,205.901C147.962,204.32 150.357,204.977 151.525,207.145C157.608,218.415 161.296,225.32 162.589,227.861C163.623,229.889 163.079,231.586 160.953,232.956ZM144.965,216.222C143.057,217.24 139.353,218.736 140.763,221.381C142.173,224.026 145.479,221.791 147.39,220.772C149.299,219.754 153.002,218.259 151.592,215.613C150.182,212.968 146.877,215.207 144.965,216.222ZM148.14,222.176C146.231,223.198 142.534,224.699 143.95,227.341C145.363,229.981 148.662,227.739 150.568,226.718C152.476,225.696 156.173,224.195 154.757,221.552C153.345,218.913 150.045,221.155 148.14,222.176ZM151.317,228.124C149.409,229.143 145.711,230.638 147.121,233.283C148.531,235.923 151.834,233.687 153.742,232.669C155.65,231.65 159.348,230.152 157.938,227.51C156.528,224.867 153.225,227.106 151.317,228.124Z" style="fill:white;fill-opacity:0.75;fill-rule:nonzero;"/>
    <path d="M125.439,208.307C124.943,208.867 124.515,209.561 124.151,210.384C123.136,212.69 122.417,214.601 121.998,216.121C121.374,218.372 120.971,220.659 123.347,221.858C124.769,222.577 126.68,223.204 129.084,223.733C129.677,223.864 130.158,223.818 130.684,224.032C130.87,224.109 131.17,224.152 131.58,224.161C131.992,224.17 132.289,224.225 132.47,224.326L130.861,232.393C130.83,232.546 130.772,232.69 130.69,232.819L129.888,234.082C129.864,234.118 129.852,234.164 129.852,234.21L129.852,237.335C129.852,237.363 129.846,237.391 129.83,237.415L128.659,239.241C128.524,239.452 128.451,239.699 128.451,239.95L128.451,242.354C128.451,242.43 128.424,242.504 128.375,242.562C127.659,243.43 126.69,244.541 125.466,245.889C125.283,246.091 125.047,245.993 124.757,245.596L127.35,242.342C127.476,242.186 127.546,241.993 127.552,241.794L127.625,239.161C127.628,239.027 127.674,238.901 127.757,238.797C128.258,238.161 128.91,237.556 128.922,236.629C128.931,235.874 128.916,235.033 128.879,234.106C128.876,233.959 128.919,233.816 129.002,233.693L129.916,232.39C129.937,232.357 129.953,232.32 129.962,232.28L131.292,225.351C131.314,225.234 131.24,225.124 131.124,225.103L129.561,224.788C129.442,224.763 129.326,224.843 129.301,224.962L125.479,244.015C125.433,244.235 125.24,244.394 125.017,244.394L124.928,244.394C124.683,244.394 124.5,244.17 124.549,243.932L128.402,224.727C128.417,224.647 128.365,224.571 128.283,224.558L126.326,224.283C125.953,224.078 125.839,223.812 125.983,223.485C126.014,223.415 125.974,223.332 125.901,223.314C125.151,223.103 124.301,222.815 123.356,222.451C121.524,221.742 120.108,220.76 120.313,218.571C120.601,215.549 121.748,212.812 123.148,209.693C123.619,208.644 124.384,208.182 125.439,208.307Z" style="fill:white;fill-opacity:0.5;fill-rule:nonzero;"/>
    <path d="M125.439,208.307L128.194,208.653L129.396,210.656L126.974,210.5C126.873,210.494 126.772,210.515 126.683,210.564C126.43,210.702 126.264,210.84 126.194,210.983C126.026,211.323 126.188,211.754 126.564,211.953C127.396,212.39 128.298,212.723 129.271,212.947C130.564,213.243 131.971,213.448 133.494,213.561L134.745,213.641C135.552,213.846 136.173,213.65 136.604,213.051C136.659,212.974 136.668,212.87 136.626,212.785C136.17,211.864 134.699,211.454 133.812,211.414C132.763,210.882 131.791,210.06 130.901,208.943L137.06,210.421C137.846,210.711 138.464,211.139 138.913,211.699L138.98,213.947C138.959,214.262 138.916,214.353 138.855,214.225C139.002,217.531 138.564,220.678 137.546,223.672C136.971,224.13 136.39,224.381 135.803,224.427C134.843,224.5 133.733,224.467 132.47,224.326C132.289,224.225 131.992,224.17 131.58,224.161C131.17,224.152 130.87,224.109 130.684,224.032C130.158,223.818 129.677,223.864 129.084,223.733C126.68,223.204 124.769,222.577 123.347,221.858C120.971,220.659 121.374,218.372 121.998,216.121C122.417,214.601 123.136,212.69 124.151,210.384C124.515,209.561 124.943,208.867 125.439,208.307Z" style="fill:white;fill-opacity:0.85;fill-rule:nonzero;"/>
    <path d="M145.546,208.255C144.476,210.641 142.757,212.32 140.39,213.292C139.904,213.494 139.46,213.454 138.98,213.947L138.913,211.699L145.546,208.255Z" style="fill:white;fill-opacity:0.5;fill-rule:nonzero;"/>
    <path d="M134.745,213.641C135.161,213.314 135.307,212.992 135.185,212.677C135.127,212.528 134.885,212.338 134.457,212.106C134.13,211.925 133.916,211.696 133.812,211.414C134.699,211.454 136.17,211.864 136.626,212.785C136.668,212.87 136.659,212.974 136.604,213.051C136.173,213.65 135.552,213.846 134.745,213.641Z" style="fill:white;fill-opacity:0.75;fill-rule:nonzero;"/>
    <path d="M144.965,216.222C146.877,215.207 150.182,212.968 151.592,215.613C153.002,218.259 149.299,219.754 147.39,220.772C145.479,221.791 142.173,224.026 140.763,221.381C139.353,218.736 143.057,217.24 144.965,216.222Z" style="fill:white;fill-opacity:0.95;fill-rule:nonzero;"/>
    <path d="M148.14,222.176C150.045,221.155 153.345,218.913 154.757,221.552C156.173,224.195 152.476,225.696 150.568,226.718C148.662,227.739 145.363,229.981 143.95,227.341C142.534,224.699 146.231,223.198 148.14,222.176Z" style="fill:white;fill-opacity:0.95;fill-rule:nonzero;"/>
    <path d="M124.757,245.596C124.335,245.443 124.035,245.1 123.858,244.571C123.683,244.042 123.399,242.923 123.011,241.213C122.989,241.118 122.998,241.018 123.035,240.926L123.971,238.614C123.983,238.583 124.001,238.556 124.026,238.534C124.271,238.317 124.264,238.115 124.004,237.926C123.919,237.861 123.867,237.761 123.867,237.654L123.867,236.654C123.867,236.537 123.83,236.421 123.766,236.326C123.359,235.712 123.491,235.213 124.164,234.828C124.212,234.8 124.255,234.764 124.292,234.718L124.998,233.84C125.084,233.73 125.13,233.592 125.121,233.452L125.001,231.311C125.001,231.302 125.001,231.293 125.005,231.283L126.326,224.283L128.283,224.558C128.365,224.571 128.417,224.647 128.402,224.727L124.549,243.932C124.5,244.17 124.683,244.394 124.928,244.394L125.017,244.394C125.24,244.394 125.433,244.235 125.479,244.015L129.301,224.962C129.326,224.843 129.442,224.763 129.561,224.788L131.124,225.103C131.24,225.124 131.314,225.234 131.292,225.351L129.962,232.28C129.953,232.32 129.937,232.357 129.916,232.39L129.002,233.693C128.919,233.816 128.876,233.959 128.879,234.106C128.916,235.033 128.931,235.874 128.922,236.629C128.91,237.556 128.258,238.161 127.757,238.797C127.674,238.901 127.628,239.027 127.625,239.161L127.552,241.794C127.546,241.993 127.476,242.186 127.35,242.342L124.757,245.596Z" style="fill:white;fill-opacity:0.95;fill-rule:nonzero;"/>
    <path d="M157.938,227.51C159.348,230.152 155.65,231.65 153.742,232.669C151.834,233.687 148.531,235.923 147.121,233.283C145.711,230.638 149.409,229.143 151.317,228.124C153.225,227.106 156.528,224.867 157.938,227.51Z" style="fill:white;fill-opacity:0.95;fill-rule:nonzero;"/>
    <path d="M35.278,244.354C36.504,244.354 37.669,243.981 38.767,243.235C39.015,242.935 39.076,242.54 38.945,242.051C39.908,242.192 118.601,241.892 118.601,241.892C118.64,241.892 118.677,241.901 118.711,241.917C119.246,242.17 119.527,242.55 119.549,243.06C119.579,243.739 119.585,244.424 119.57,245.115C119.567,245.216 119.546,245.317 119.506,245.412C119.267,245.963 118.913,246.846 118.301,247.207C117.237,247.831 116.338,247.813 114.891,247.886C113.628,247.95 109.353,247.987 102.065,247.996C82.967,248.018 62.15,248.021 39.614,248.012C38.553,248.012 37.798,247.911 37.345,247.712C36.599,247.382 36.104,246.819 35.862,246.027C35.59,245.137 35.397,244.58 35.278,244.354Z" style="fill:white;fill-opacity:0.6;fill-rule:nonzero;"/>
    <path d="M261.053,242.033C260.955,242.58 261.023,242.972 261.252,243.207C262.283,243.972 263.384,244.345 264.558,244.33C264.322,246.782 263.038,248.008 260.708,248.012C229.181,248.027 207.34,248.021 195.186,247.987C190.009,247.972 186.697,247.953 185.247,247.929C184.749,247.92 184.049,247.856 183.143,247.73C181.782,247.544 180.914,246.767 180.535,245.4C180.461,245.134 180.425,244.476 180.425,243.433C180.422,241.693 181.535,241.892 183.015,241.892C202.034,241.907 224.557,241.92 250.588,241.935C251.365,241.935 252.044,241.959 252.625,242.005C253.634,242.085 254.341,241.868 255.341,242.045C255.977,242.158 256.741,242.177 257.631,242.1C257.76,242.091 257.888,242.094 258.019,242.109C259.099,242.241 260.108,242.216 261.053,242.033Z" style="fill:white;fill-opacity:0.6;fill-rule:nonzero;"/>
</svg>
