<?xml version="1.0" encoding="UTF-8" standalone="no"?>
<!DOCTYPE svg PUBLIC "-//W3C//DTD SVG 1.1//EN" "http://www.w3.org/Graphics/SVG/1.1/DTD/svg11.dtd">
<svg width="100%" height="100%" viewBox="0 0 300 300" version="1.1" xmlns="http://www.w3.org/2000/svg" xmlns:xlink="http://www.w3.org/1999/xlink" xml:space="preserve" xmlns:serif="http://www.serif.com/" style="fill-rule:evenodd;clip-rule:evenodd;stroke-linejoin:round;stroke-miterlimit:2;">
    <path d="M189.65,131.328L185.034,111.471C185.003,111.334 185.024,111.194 185.099,111.076C185.354,110.653 185.765,110.407 186.113,109.912C189.109,105.67 191.245,102.232 192.518,99.604C194.135,96.263 195.392,93.271 196.288,90.624C198.754,83.352 199.927,75.647 199.806,67.51C199.784,66.16 199.588,65.031 199.519,63.731C199.473,62.822 199.389,61.877 199.264,60.897C198.378,53.945 196.499,47.376 193.628,41.186C193.134,40.125 192.667,39.167 192.228,38.312C187.043,28.227 179.323,19.72 169.855,13.424C161.329,7.76 151.988,4.248 141.826,2.889C137.527,2.317 133.614,2.096 130.087,2.23C128.973,2.273 126.643,2.479 123.094,2.849C122.998,2.463 122.709,2.345 122.233,2.497C122.192,2.51 122.149,2.485 122.139,2.444L122.118,2.348C122.115,2.336 122.124,2.32 122.136,2.317C123.063,2.043 123.632,1.884 123.844,1.838C125.909,1.412 127.275,1.116 127.94,0.945C128.815,0.724 129.748,0.572 130.746,0.488C132.04,0.376 132.989,0.295 133.589,0.245C144.88,-0.688 155.64,1.042 165.867,5.437C165.913,5.458 166.069,5.527 166.333,5.642C172.24,8.277 177.544,11.555 182.237,15.471C182.738,15.891 183.077,16.193 183.251,16.383C183.702,16.871 184.225,17.126 184.688,17.571C186.085,18.924 187.463,20.302 188.825,21.705C189.115,22.003 189.336,22.439 189.659,22.775C190.62,23.773 191.594,24.93 192.577,26.24C199.634,35.658 203.974,46.063 205.6,57.454C206.204,61.681 206.39,66.247 206.157,71.149C206.135,71.606 206.07,72.256 205.961,73.096C205.883,73.687 205.843,74.001 205.84,74.036C205.588,76.72 205.146,79.392 204.518,82.048C202.207,91.809 197.945,100.621 191.734,108.485C191.566,108.696 191.504,108.97 191.566,109.234L196.054,128.899C196.073,128.98 196.029,129.06 195.952,129.092L190.238,131.353C190.182,131.375 190.119,131.384 190.06,131.375L189.65,131.328Z" style="fill:white;fill-opacity:0.25;fill-rule:nonzero;"/>
    <path d="M189.65,131.328C189.476,131.431 189.245,131.434 188.962,131.331C188.577,131.194 188.356,131.12 188.297,131.104C181.584,129.502 174.937,127.928 168.355,126.389C168.206,126.351 168.178,126.308 168.072,126.239C168.069,126.239 168.032,126.261 167.957,126.305C155.394,133.798 142.047,137.036 127.916,136.022C93.417,133.543 66.443,105.097 65.777,70.474C65.625,62.629 66.816,54.99 69.348,47.559C71.852,40.2 75.603,33.394 80.596,27.142C81.376,26.162 82.16,25.254 82.947,24.417C84.095,23.191 85.044,22.044 86.244,20.946C88.086,19.26 89.153,18.299 89.442,18.062C93.868,14.442 98.083,11.633 102.086,9.633C106.842,7.256 111.679,5.409 116.6,4.09C118.597,3.555 120.761,3.141 123.094,2.849C126.643,2.479 128.973,2.273 130.087,2.23C133.614,2.096 137.527,2.317 141.826,2.889C151.988,4.248 161.329,7.76 169.855,13.424C179.323,19.72 187.043,28.227 192.228,38.312C192.667,39.167 193.134,40.125 193.628,41.186C196.499,47.376 198.378,53.945 199.264,60.897C199.389,61.877 199.473,62.822 199.519,63.731C199.588,65.031 199.784,66.16 199.806,67.51C199.927,75.647 198.754,83.352 196.288,90.624C195.392,93.271 194.135,96.263 192.518,99.604C191.245,102.232 189.109,105.67 186.113,109.912C185.765,110.407 185.354,110.653 185.099,111.076C185.024,111.194 185.003,111.334 185.034,111.471L189.65,131.328ZM102.363,36.458C101.119,38.787 100.126,41.08 99.389,43.329C97.84,48.051 96.845,53.021 96.406,58.244C96.12,61.662 96.307,64.34 96.59,67.88C96.947,72.331 97.806,76.627 99.165,80.773C99.678,82.347 100.459,84.095 101.507,86.02C102.674,88.453 104.36,91.209 106.565,94.285C109.623,98.55 112.693,101.85 115.778,104.186C120.976,108.121 126.696,110.531 132.939,111.424C133.434,111.495 133.816,111.533 134.081,111.542C134.581,111.555 134.961,111.586 135.225,111.639C137.375,112.058 139.726,111.676 141.913,111.499C145.104,111.24 148.507,110.578 152.118,109.511C154.961,108.671 157.552,107.47 159.895,105.912C162.473,104.192 164.638,102.326 166.396,100.307C168.184,98.251 169.369,95.837 169.951,93.06C170.766,89.171 170.495,85.545 169.136,82.182C168.716,81.137 168.022,79.915 167.055,78.512C166.057,77.065 165.198,75.924 164.476,75.09C161.151,71.252 158.669,68.474 157.033,66.757C157.021,66.745 156.252,65.88 154.728,64.16C153.559,62.841 152.255,60.738 150.818,57.849L146.187,46.915C146.128,44.878 145.757,42.763 145.082,40.573C145.051,40.47 145.011,40.374 144.958,40.284C142.924,36.772 140.267,33.985 136.989,31.916C134.952,31.052 133.011,30.389 131.166,29.932C129.511,28.94 127.922,28.146 126.398,27.552C125.657,27.263 124.217,26.731 122.077,25.963C120.799,25.506 118.827,25.151 116.164,24.899C114.288,24.725 111.663,25.086 110.043,26.243C108.316,27.475 106.951,28.961 106.105,30.296C105.209,31.708 104.36,33.033 103.557,34.274C103.134,34.924 102.764,35.73 102.363,36.458Z" style="fill:white;fill-opacity:0.95;fill-rule:nonzero;"/>
    <path d="M131.166,29.932C129.676,29.562 128.208,29.356 126.758,29.316C125.583,29.285 124.323,29.409 122.982,29.689C121.695,29.957 120.46,30.249 119.281,30.563C116.307,31.36 113.536,32.675 110.963,34.514C110.87,34.579 110.91,34.725 111.022,34.735L111.831,34.803L110.942,34.896C110.858,34.906 110.774,34.94 110.705,34.993C107.679,37.344 105.685,40.545 105.492,44.337C105.458,45.036 105.557,46.15 105.791,47.68C105.962,48.794 106.136,49.904 106.313,51.012L106.186,51.239C106.117,51.36 105.94,51.354 105.881,51.226C103.657,46.474 102.484,41.55 102.363,36.458C102.764,35.73 103.134,34.924 103.557,34.274C104.36,33.033 105.209,31.708 106.105,30.296C106.951,28.961 108.316,27.475 110.043,26.243C111.663,25.086 114.288,24.725 116.164,24.899C118.827,25.151 120.799,25.506 122.077,25.963C124.217,26.731 125.657,27.263 126.398,27.552C127.922,28.146 129.511,28.94 131.166,29.932Z" style="fill:white;fill-opacity:0.5;fill-rule:nonzero;"/>
    <path d="M131.166,29.932C133.011,30.389 134.952,31.052 136.989,31.916C134.97,31.932 133.11,32.181 131.406,32.663C130.155,33.018 129.001,33.397 127.664,33.649C127.094,33.758 126.522,33.888 125.95,34.041C123.477,34.268 120.989,34.162 118.488,33.717C118.329,33.689 118.17,33.677 118.009,33.683C115.946,33.745 113.837,34.352 111.831,34.803L111.022,34.735C110.91,34.725 110.87,34.579 110.963,34.514C113.536,32.675 116.307,31.36 119.281,30.563C120.46,30.249 121.695,29.957 122.982,29.689C124.323,29.409 125.583,29.285 126.758,29.316C128.208,29.356 129.676,29.562 131.166,29.932Z" style="fill:white;fill-opacity:0.25;fill-rule:nonzero;"/>
    <path d="M131.695,59.736C131.875,59.767 132.003,59.563 131.894,59.413C131.455,58.816 131.962,57.506 132.301,56.912C132.718,56.178 132.644,55.864 132.053,55.332C130.821,54.231 129.626,53.077 129.073,51.668C128.342,49.811 128.217,48.029 128.556,46.103C129.272,42.029 128.699,37.976 126.895,34.265C126.852,34.178 126.768,34.119 126.668,34.109L125.95,34.041C126.522,33.888 127.094,33.758 127.664,33.649C129.001,33.397 130.155,33.018 131.406,32.663C133.11,32.181 134.97,31.932 136.989,31.916C140.267,33.985 142.924,36.772 144.958,40.284C145.011,40.374 145.051,40.47 145.082,40.573C145.757,42.763 146.128,44.878 146.187,46.915C145.935,49.967 145.754,52.937 145.645,55.83C145.605,56.909 145.695,58.209 145.913,59.737C146.096,61.028 146.14,62.094 146.05,62.944C145.848,64.798 145.014,66.291 143.546,67.423C142.047,68.58 140.183,69.522 137.953,70.25C135.35,71.392 132.833,72.048 130.404,72.222C129.234,72.437 128.311,72.477 127.636,72.344C126.531,71.395 126.174,70.53 126.566,69.753C127.455,67.986 129.272,66.462 130.839,65.354C131.194,65.102 131.455,64.748 131.536,64.359C131.567,64.203 131.465,64.054 131.309,64.032L131.275,64.027C133.352,64.085 135.763,63.319 134.983,61.578C134.578,60.679 133.3,60.101 132.382,59.914C132.237,59.884 132,59.799 131.695,59.736ZM129.62,60.001C129.908,59.841 130.225,59.738 130.571,59.694C130.275,59.737 129.955,59.831 129.62,60.001ZM134.466,51.541C133.661,51.553 132.979,51.385 132.42,51.037C132.336,50.987 132.233,51.065 132.261,51.158C132.563,52.178 133.48,52.514 134.479,52.499C135.48,52.483 136.385,52.119 136.656,51.09C136.681,50.996 136.575,50.918 136.494,50.974C135.944,51.338 135.269,51.528 134.466,51.541ZM132.715,44.234C133.446,44.48 134.015,44.654 134.606,44.996C135.962,45.789 136.79,46.262 137.092,46.414C137.403,46.573 137.763,46.309 137.704,45.963C137.695,45.898 137.648,45.811 137.571,45.705C136.588,44.362 134.473,42.847 132.696,43.553C132.382,43.677 132.395,44.128 132.715,44.234Z" style="fill:white;fill-opacity:0.75;"/>
    <path d="M131.275,64.027L131.309,64.032C131.465,64.054 131.567,64.203 131.536,64.359C131.455,64.748 131.194,65.102 130.839,65.354C129.272,66.462 127.455,67.986 126.566,69.753C126.174,70.53 126.531,71.395 127.636,72.344C122.239,71.998 117.25,69.239 113.038,65.948C112.907,65.846 112.746,65.799 112.581,65.818C111.915,65.886 111.206,66.107 110.506,66.098C107.495,66.063 105.218,64.785 103.679,62.259C103.231,61.525 103.224,60.773 103.489,60.001C103.899,58.816 105.903,57.908 107.035,57.578C107.153,57.544 107.228,57.429 107.212,57.304L106.313,51.012C106.136,49.904 105.962,48.794 105.791,47.68C105.557,46.15 105.458,45.036 105.492,44.337C105.685,40.545 107.679,37.344 110.705,34.993C110.774,34.94 110.858,34.906 110.942,34.896L111.831,34.803C113.837,34.352 115.946,33.745 118.009,33.683C118.17,33.677 118.329,33.689 118.488,33.717C120.989,34.162 123.477,34.268 125.95,34.041L126.668,34.109C126.768,34.119 126.852,34.178 126.895,34.265C128.699,37.976 129.272,42.029 128.556,46.103C128.217,48.029 128.342,49.811 129.073,51.668C129.626,53.077 130.821,54.231 132.053,55.332C132.644,55.864 132.718,56.178 132.301,56.912C131.962,57.506 131.455,58.816 131.894,59.413C132.003,59.563 131.875,59.767 131.695,59.736C131.384,59.672 131.002,59.63 130.571,59.694C130.225,59.738 129.908,59.841 129.62,60.001C127.81,60.922 127.53,63.168 129.769,63.815C130.205,63.941 130.728,64.012 131.275,64.027ZM125.396,50.831C123.676,51.531 122.124,51.295 120.737,50.128C120.668,50.072 120.565,50.097 120.534,50.178C120.472,50.331 120.513,50.502 120.656,50.688C121.39,51.643 122.36,52.132 123.564,52.153C124.279,52.166 125.62,51.886 125.614,50.981C125.614,50.866 125.499,50.788 125.396,50.831ZM123.147,43.086C122.485,43.394 121.104,44.486 121.128,45.369C121.138,45.693 121.511,45.873 121.772,45.677C122.454,45.167 123.029,44.691 123.738,44.362C124.451,44.032 125.185,43.901 126.015,43.711C126.332,43.637 126.438,43.236 126.192,43.018C125.536,42.43 123.81,42.778 123.147,43.086Z" style="fill:white;fill-opacity:0.85;"/>
    <path d="M102.363,36.458C102.484,41.55 103.657,46.474 105.881,51.226C105.94,51.354 106.117,51.36 106.186,51.239L106.313,51.012L107.212,57.304C107.228,57.429 107.153,57.544 107.035,57.578C105.903,57.908 103.899,58.816 103.489,60.001C103.224,60.773 103.231,61.525 103.679,62.259C105.218,64.785 107.495,66.063 110.506,66.098C111.206,66.107 111.915,65.886 112.581,65.818C112.746,65.799 112.907,65.846 113.038,65.948C117.25,69.239 122.239,71.998 127.636,72.344C128.311,72.477 129.234,72.437 130.404,72.222C129.99,72.431 129.564,72.53 129.126,72.524C129.023,72.524 128.989,72.661 129.079,72.708C131.182,73.837 133.303,75.059 135.446,76.378C135.875,76.642 136.448,76.844 136.877,77.047C136.97,77.087 137.073,77.093 137.166,77.062C137.779,76.854 138.106,76.512 138.146,76.03C138.28,74.515 138.214,72.589 137.953,70.25C140.183,69.522 142.047,68.58 143.546,67.423C145.014,66.291 145.848,64.798 146.05,62.944C146.14,62.094 146.096,61.028 145.913,59.737C145.695,58.209 145.605,56.909 145.645,55.83C145.754,52.937 145.935,49.967 146.187,46.915L150.818,57.849C151.689,61.317 152.731,64.704 153.944,68.011C154.644,69.911 155.151,71.423 155.468,72.546C156.402,75.83 157.44,78.947 157.988,82.437C158.059,82.885 158.056,83.342 157.982,83.787C157.462,86.951 156.386,89.946 154.588,92.596C153.624,94.018 152.943,94.957 152.541,95.408C147.804,100.774 141.795,103.358 134.519,103.162C125.144,102.914 116.139,98.478 108.932,92.627C108.562,92.325 107.346,91.203 105.28,89.255C104.105,88.145 102.848,87.066 101.507,86.02C100.459,84.095 99.678,82.347 99.165,80.773C97.806,76.627 96.947,72.331 96.59,67.88C96.307,64.34 96.12,61.662 96.406,58.244C96.845,53.021 97.84,48.051 99.389,43.329C100.126,41.08 101.119,38.787 102.363,36.458Z" style="fill:white;fill-opacity:0.65;fill-rule:nonzero;"/>
    <path d="M123.738,44.362C123.029,44.691 122.454,45.167 121.772,45.677C121.511,45.873 121.138,45.693 121.128,45.369C121.104,44.486 122.485,43.394 123.147,43.086C123.81,42.778 125.536,42.43 126.192,43.018C126.438,43.236 126.332,43.637 126.015,43.711C125.185,43.901 124.451,44.032 123.738,44.362Z" style="fill:white;fill-opacity:0.15;fill-rule:nonzero;"/>
    <path d="M132.715,44.234C132.395,44.128 132.382,43.677 132.696,43.553C134.473,42.847 136.588,44.362 137.571,45.705C137.648,45.811 137.695,45.898 137.704,45.963C137.763,46.309 137.403,46.573 137.092,46.414C136.79,46.262 135.962,45.789 134.606,44.996C134.015,44.654 133.446,44.48 132.715,44.234Z" style="fill:white;fill-opacity:0.15;fill-rule:nonzero;"/>
    <path d="M125.614,50.981C125.62,51.886 124.279,52.166 123.564,52.153C122.36,52.132 121.39,51.643 120.656,50.688C120.513,50.502 120.472,50.331 120.534,50.178C120.565,50.097 120.668,50.072 120.737,50.128C122.124,51.295 123.676,51.531 125.396,50.831C125.499,50.788 125.614,50.866 125.614,50.981Z" style="fill:white;fill-opacity:0.15;fill-rule:nonzero;"/>
    <path d="M134.479,52.499C133.48,52.514 132.563,52.178 132.261,51.158C132.233,51.065 132.336,50.987 132.42,51.037C132.979,51.385 133.661,51.553 134.466,51.541C135.269,51.528 135.944,51.338 136.494,50.974C136.575,50.918 136.681,50.996 136.656,51.09C136.385,52.119 135.48,52.483 134.479,52.499Z" style="fill:white;fill-opacity:0.15;fill-rule:nonzero;"/>
    <path d="M150.818,57.849C152.255,60.738 153.559,62.841 154.728,64.16C156.252,65.88 157.021,66.745 157.033,66.757C158.669,68.474 161.151,71.252 164.476,75.09C165.198,75.924 166.057,77.065 167.055,78.512C168.022,79.915 168.716,81.137 169.136,82.182C170.495,85.545 170.766,89.171 169.951,93.06C169.369,95.837 168.184,98.251 166.396,100.307C164.638,102.326 162.473,104.192 159.895,105.912C157.552,107.47 154.961,108.671 152.118,109.511C148.507,110.578 145.104,111.24 141.913,111.499C139.726,111.676 137.375,112.058 135.225,111.639C134.961,111.586 134.581,111.555 134.081,111.542C133.816,111.533 133.434,111.495 132.939,111.424C126.696,110.531 120.976,108.121 115.778,104.186C112.693,101.85 109.623,98.55 106.565,94.285C104.36,91.209 102.674,88.453 101.507,86.02C102.848,87.066 104.105,88.145 105.28,89.255C107.346,91.203 108.562,92.325 108.932,92.627C116.139,98.478 125.144,102.914 134.519,103.162C141.795,103.358 147.804,100.774 152.541,95.408C152.943,94.957 153.624,94.018 154.588,92.596C156.386,89.946 157.462,86.951 157.982,83.787C158.056,83.342 158.059,82.885 157.988,82.437C157.44,78.947 156.402,75.83 155.468,72.546C155.151,71.423 154.644,69.911 153.944,68.011C152.731,64.704 151.689,61.317 150.818,57.849Z" style="fill:white;fill-opacity:0.5;fill-rule:nonzero;"/>
    <path d="M137.953,70.25C138.214,72.589 138.28,74.515 138.146,76.03C138.106,76.512 137.779,76.854 137.166,77.062C137.073,77.093 136.97,77.087 136.877,77.047C136.448,76.844 135.875,76.642 135.446,76.378C133.303,75.059 131.182,73.837 129.079,72.708C128.989,72.661 129.023,72.524 129.126,72.524C129.564,72.53 129.99,72.431 130.404,72.222C132.833,72.048 135.35,71.392 137.953,70.25Z" style="fill:white;fill-opacity:0.5;fill-rule:nonzero;"/>
    <path d="M80.185,185.581C78.518,188.353 76.683,191.261 74.679,194.3C74.315,194.857 73.79,195.162 73.105,195.218C71.815,195.324 70.116,195.625 68.891,195.146C69.255,194.726 69.681,194.129 70.172,193.355C76.583,183.27 82.835,172.803 87.697,162.134C88.723,159.879 89.591,157.686 90.297,155.556C91.031,153.338 91.501,151.525 91.703,150.115C92.036,147.823 91.912,145.403 91.33,142.856C88.997,132.61 80.533,125.275 69.992,124.348C72.222,123.928 74.21,123.829 75.958,124.049C82.278,124.843 87.47,127.583 91.529,132.264C94.064,135.188 95.765,138.532 96.63,142.296C97.386,145.59 97.395,148.756 96.652,151.792C95.737,155.518 94.397,158.725 92.546,162.847C91.156,165.945 89.308,169.618 87.003,173.87C85.317,176.981 83.043,180.885 80.185,185.581Z" style="fill:white;fill-opacity:0.35;fill-rule:nonzero;"/>
    <path d="M69.992,124.348C80.533,125.275 88.997,132.61 91.33,142.856C91.912,145.403 92.036,147.823 91.703,150.115C91.501,151.525 91.031,153.338 90.297,155.556C89.591,157.686 88.723,159.879 87.697,162.134C82.835,172.803 76.583,183.27 70.172,193.355C69.681,194.129 69.255,194.726 68.891,195.146C68.073,195.476 67.447,195.308 67.015,194.639C65.009,191.55 63.139,188.561 61.404,185.669C57.593,179.429 54.116,173.183 50.971,166.934C49.198,163.404 47.718,160.029 46.529,156.816C45.229,153.294 44.296,149.892 44.567,146.19C45.506,133.232 56.937,123.368 69.992,124.348ZM71.261,157.36L71.811,157.254C71.827,157.251 71.843,157.248 71.858,157.242C76.085,155.494 78.857,151.717 78.779,147.229C78.735,144.769 77.955,142.582 76.437,140.669C74.869,138.694 72.732,137.44 70.026,136.905C68.116,136.572 66.371,136.691 64.794,137.266C56.377,140.336 54.981,151.319 62.496,156.237C65.111,157.948 68.032,158.321 71.261,157.36Z" style="fill:white;fill-opacity:0.95;fill-rule:nonzero;"/>
    <path d="M234.758,164.918L233.256,164.962C232.995,164.968 232.752,164.819 232.643,164.582C232.217,163.665 231.925,162.878 231.766,162.222C231.278,160.197 231.629,157.963 231.262,155.976C230.743,153.151 230.009,150.853 229.066,149.08C226.795,144.8 221.672,145.213 217.871,146.884C216.266,147.59 214.453,148.47 212.434,149.531C210.394,150.601 208.387,151.406 206.418,151.951C203.212,152.794 200.372,152.38 197.899,150.71C197.348,150.336 196.913,150.147 196.592,150.14C196.06,150.131 195.678,150.38 195.448,150.893C193.078,156.172 191.616,161.963 191.059,168.262C190.993,167.687 190.863,167.083 190.661,166.446C190.34,165.438 190.157,164.847 190.113,164.67C189.233,161.232 188.546,157.792 188.048,154.349C187.858,153.039 187.88,151.369 187.923,150.315C187.976,149.005 188.303,147.661 188.897,146.29C189.332,145.279 190.151,144.342 191.354,143.481C191.466,143.4 191.948,143.219 192.801,142.936C193.843,142.591 194.49,141.876 194.748,140.79C195.003,139.708 195.326,138.647 195.721,137.611C196.076,136.681 196.617,135.705 197.342,134.687C200.169,130.737 203.983,128.006 208.789,126.497C210.083,126.09 212.011,125.931 213.022,125.841C213.448,125.804 213.881,125.826 214.304,125.903C214.391,125.919 214.944,126.015 215.968,126.193C218.789,126.681 221.461,128.255 222.789,130.812C222.976,131.169 223.259,131.661 223.638,132.28C223.803,132.55 224.039,133.061 224.344,133.81C225.044,135.533 225.952,137.086 227.069,138.467C227.965,139.577 229.013,140.364 230.217,140.828C230.783,141.045 231.629,141.216 232.752,141.341C233.632,141.437 234.285,141.555 234.712,141.702C235.94,142.112 237.317,143.02 238.09,144.103C239.128,145.56 240.612,150.893 237.536,154.349C235.784,156.317 235.234,162.116 235.066,163.124C234.964,163.733 234.861,164.33 234.758,164.918Z" style="fill:white;fill-opacity:0.25;fill-rule:nonzero;"/>
    <path d="M70.026,136.905C67.911,137.823 66.303,138.995 65.202,140.42C62.166,144.339 62.219,149.811 65.301,153.599C66.744,155.372 68.732,156.626 71.261,157.36C68.032,158.321 65.111,157.948 62.496,156.237C54.981,151.319 56.377,140.336 64.794,137.266C66.371,136.691 68.116,136.572 70.026,136.905Z" style="fill:white;fill-opacity:0.35;fill-rule:nonzero;"/>
    <path d="M234.758,164.918C239.1,165.381 236.929,174.71 233.579,175.992C233.487,176.027 233.498,176.175 233.498,176.275C233.533,178.499 233.29,180.406 232.774,182.001C231.819,184.953 230.354,187.672 228.379,190.151C227.573,190.39 226.811,190.723 226.092,191.149C224.721,191.961 224.033,192.369 224.027,192.372C219.607,194.54 214.907,195.392 209.921,194.932C209.781,194.919 209.7,194.77 209.765,194.645C210.966,192.313 212.024,189.666 212.406,187.081C212.459,186.735 212.552,186.431 212.686,186.163C214.658,186.148 218.409,185.361 218.789,182.872C219.162,180.437 217.168,179.843 215.234,180.256C214.375,180.44 213.504,180.658 212.621,180.909C212.73,179.472 212.531,176.94 210.714,176.477C209.268,176.11 208.145,176.007 207.943,174.247C207.859,173.51 207.924,172.527 208.145,171.298C208.384,169.942 208.739,168.144 209.205,165.904C209.89,162.61 209.759,159.375 208.817,156.206C208.3,154.476 207.501,153.058 206.418,151.951C208.387,151.406 210.394,150.601 212.434,149.531C214.453,148.47 216.266,147.59 217.871,146.884C221.672,145.213 226.795,144.8 229.066,149.08C230.009,150.853 230.743,153.151 231.262,155.976C231.629,157.963 231.278,160.197 231.766,162.222C231.925,162.878 232.217,163.665 232.643,164.582C232.752,164.819 232.995,164.968 233.256,164.962L234.758,164.918ZM216.926,158.178C218.353,158.113 219.383,158.483 220.385,159.41C220.571,159.581 220.864,159.534 220.972,159.316C221.025,159.211 221.016,159.074 220.945,158.906C220.254,157.279 218.531,156.666 216.86,156.744C215.19,156.822 213.532,157.59 212.994,159.273C212.938,159.447 212.941,159.584 213.003,159.683C213.131,159.892 213.426,159.91 213.597,159.724C214.509,158.71 215.501,158.246 216.926,158.178ZM216.454,163.206C215.803,163.264 215.38,164.492 215.509,165.948C215.638,167.404 216.273,168.536 216.925,168.479C217.576,168.421 217.999,167.192 217.87,165.737C217.741,164.281 217.106,163.148 216.454,163.206Z" style="fill:white;fill-opacity:0.95;fill-rule:nonzero;"/>
    <path d="M206.418,151.951C207.501,153.058 208.3,154.476 208.817,156.206C209.759,159.375 209.89,162.61 209.205,165.904C208.739,168.144 208.384,169.942 208.145,171.298C207.924,172.527 207.859,173.51 207.943,174.247C208.145,176.007 209.268,176.11 210.714,176.477C212.531,176.94 212.73,179.472 212.621,180.909C211.526,181.137 210.633,181.074 209.94,180.723C208.59,180.042 206.44,178.527 205.977,180.309C205.308,182.882 206.919,185.438 209.52,185.97C210.602,186.191 211.657,186.253 212.686,186.163C212.552,186.431 212.459,186.735 212.406,187.081C212.024,189.666 210.966,192.313 209.765,194.645C209.7,194.77 209.781,194.919 209.921,194.932C214.907,195.392 219.607,194.54 224.027,192.372C224.033,192.369 224.721,191.961 226.092,191.149C226.811,190.723 227.573,190.39 228.379,190.151L224.668,195.619C222.624,197.628 220.503,199.358 218.304,200.81C215.203,202.857 211.821,204.456 208.163,205.61C205.286,206.515 202.683,207.063 200.347,207.255C200.225,207.265 200.101,207.243 199.992,207.193C199.541,206.985 199.398,206.748 199.563,206.484C200.888,205.517 201.862,204.319 202.487,202.885C202.757,202.26 203.252,201.143 203.401,200.251C203.768,198.002 204.154,195.193 202.938,193.187C202.879,193.084 202.804,192.994 202.72,192.91C200.832,191.056 199.572,189.781 198.938,189.084C195.538,185.348 193.373,180.962 192.446,175.93C191.989,173.447 191.525,170.891 191.059,168.262C191.616,161.963 193.078,156.172 195.448,150.893C195.678,150.38 196.06,150.131 196.592,150.14C196.913,150.147 197.348,150.336 197.899,150.71C200.372,152.38 203.212,152.794 206.418,151.951ZM205.554,160.327C205.799,160.399 206.03,160.169 205.952,159.926C205.852,159.603 205.638,159.295 205.311,158.999C203.631,157.484 200.686,157.581 199.093,159.021C198.586,159.475 198.297,160.038 198.219,160.707C198.191,160.934 198.328,161.142 198.53,161.186C198.692,161.223 198.816,161.173 198.9,161.036C200.07,159.117 202.235,158.971 204.204,159.568C204.63,159.699 205.177,160.215 205.554,160.327ZM203.228,164.016C202.621,164.066 202.219,165.214 202.335,166.575C202.449,167.939 203.034,169.002 203.643,168.95C204.25,168.9 204.652,167.752 204.536,166.391C204.422,165.027 203.837,163.963 203.228,164.016Z" style="fill:white;fill-opacity:0.75;fill-rule:nonzero;"/>
    <path d="M216.86,156.744C218.531,156.666 220.254,157.279 220.945,158.906C221.016,159.074 221.025,159.211 220.972,159.316C220.864,159.534 220.571,159.581 220.385,159.41C219.383,158.483 218.353,158.113 216.926,158.178C215.501,158.246 214.509,158.71 213.597,159.724C213.426,159.91 213.131,159.892 213.003,159.683C212.941,159.584 212.938,159.447 212.994,159.273C213.532,157.59 215.19,156.822 216.86,156.744Z" style="fill:white;fill-opacity:0.15;fill-rule:nonzero;"/>
    <path d="M205.554,160.327C205.177,160.215 204.63,159.699 204.204,159.568C202.235,158.971 200.07,159.117 198.9,161.036C198.816,161.173 198.692,161.223 198.53,161.186C198.328,161.142 198.191,160.934 198.219,160.707C198.297,160.038 198.586,159.475 199.093,159.021C200.686,157.581 203.631,157.484 205.311,158.999C205.638,159.295 205.852,159.603 205.952,159.926C206.03,160.169 205.799,160.399 205.554,160.327Z" style="fill:white;fill-opacity:0.15;fill-rule:nonzero;"/>
    <path d="M216.454,163.206C217.106,163.148 217.741,164.281 217.87,165.737C217.999,167.192 217.576,168.421 216.925,168.479C216.273,168.536 215.638,167.404 215.509,165.948C215.38,164.492 215.803,163.264 216.454,163.206Z" style="fill:white;fill-opacity:0.15;fill-rule:nonzero;"/>
    <path d="M203.228,164.016C203.837,163.963 204.422,165.027 204.536,166.391C204.652,167.752 204.25,168.9 203.643,168.95C203.034,169.002 202.449,167.939 202.335,166.575C202.219,165.214 202.621,164.066 203.228,164.016Z" style="fill:white;fill-opacity:0.15;fill-rule:nonzero;"/>
    <path d="M212.621,180.909C213.504,180.658 214.375,180.44 215.234,180.256C217.168,179.843 219.162,180.437 218.789,182.872C218.409,185.361 214.658,186.148 212.686,186.163C211.657,186.253 210.602,186.191 209.52,185.97C206.919,185.438 205.308,182.882 205.977,180.309C206.44,178.527 208.59,180.042 209.94,180.723C210.633,181.074 211.526,181.137 212.621,180.909Z" style="fill:white;fill-opacity:0.15;fill-rule:nonzero;"/>
    <path d="M80.185,185.581L88.394,185.675C88.67,185.678 88.929,185.802 89.1,186.02C93.955,192.141 99.097,198.58 104.525,205.336C104.82,205.703 105.193,206.238 105.137,206.764C105.069,207.405 104.783,207.868 104.276,208.151C104.173,208.207 104.058,208.238 103.94,208.238L35.686,208.238C35.664,208.238 35.646,208.235 35.624,208.229C34.585,207.856 34.209,207.143 34.498,206.095C34.523,206.005 34.566,205.921 34.622,205.849L50.561,185.899C50.669,185.762 50.834,185.684 51.008,185.684L61.404,185.669C63.139,188.561 65.009,191.55 67.015,194.639C67.447,195.308 68.073,195.476 68.891,195.146C70.116,195.625 71.815,195.324 73.105,195.218C73.79,195.162 74.315,194.857 74.679,194.3C76.683,191.261 78.518,188.353 80.185,185.581ZM86.728,189C86.935,188.714 86.873,188.312 86.586,188.105L86.571,188.094C86.285,187.886 85.883,187.949 85.676,188.236L74.183,204.054C73.976,204.341 74.039,204.742 74.325,204.949L74.34,204.96C74.626,205.168 75.028,205.106 75.235,204.819L86.728,189ZM59.583,190.865C59.662,190.536 59.457,190.207 59.127,190.127L51.65,188.36C51.319,188.281 50.99,188.487 50.913,188.815L50.907,188.84C50.828,189.168 51.033,189.498 51.363,189.577L58.84,191.344C59.17,191.423 59.5,191.218 59.577,190.889L59.583,190.865ZM61.245,198.652L55.444,206.114C55.232,206.388 55.282,206.786 55.556,206.997L55.568,207.007C55.842,207.221 56.24,207.171 56.455,206.895C58.978,203.647 61.08,200.935 62.766,198.758C63.009,198.443 63.118,198.188 63.093,197.992C63.055,197.725 62.85,197.551 62.48,197.467C54.781,195.784 49.235,194.589 45.845,193.886C45.475,193.809 45.136,194.114 45.17,194.493C45.21,194.913 45.506,195.168 46.057,195.258C47.512,195.491 48.949,195.781 50.365,196.126C51.282,196.35 54.89,197.14 61.186,198.493C61.258,198.509 61.289,198.593 61.245,198.652ZM100.923,203.215C101.016,202.898 100.832,202.565 100.513,202.471L84.997,197.993C84.68,197.902 84.347,198.086 84.253,198.403L84.231,198.481C84.138,198.798 84.322,199.131 84.641,199.224L100.158,203.703C100.475,203.793 100.808,203.61 100.901,203.292L100.923,203.215Z" style="fill:white;fill-opacity:0.25;fill-rule:nonzero;"/>
    <path d="M75.235,204.819C75.028,205.106 74.626,205.168 74.34,204.96L74.325,204.949C74.039,204.742 73.976,204.341 74.183,204.054L85.676,188.236C85.883,187.949 86.285,187.886 86.571,188.094L86.586,188.105C86.873,188.312 86.935,188.714 86.728,189L75.235,204.819Z" style="fill:white;fill-opacity:0.5;fill-rule:nonzero;"/>
    <path d="M59.577,190.889C59.5,191.218 59.17,191.423 58.84,191.344L51.363,189.577C51.033,189.498 50.828,189.168 50.907,188.84L50.913,188.815C50.99,188.487 51.319,188.281 51.65,188.36L59.127,190.127C59.457,190.207 59.662,190.536 59.583,190.865L59.577,190.889Z" style="fill:white;fill-opacity:0.5;fill-rule:nonzero;"/>
    <path d="M161.792,238.214C164.396,241.222 167.357,243.689 170.679,245.617C171.36,246.012 172.172,246.379 173.114,246.715C173.954,247.017 174.794,247.319 175.631,247.624C176.206,247.832 177.531,248.103 179.612,248.429L179.086,254.952C178.474,255.782 177.998,256.731 177.453,257.53C176.144,259.45 175.096,260.946 174.303,262.019C171.758,265.459 168.246,268.999 164.427,271.518C164.299,271.602 164.165,271.668 164.025,271.721C161.646,272.619 160.271,273.127 158,273.074C154.669,272.993 152.669,270.663 150.473,268.371C150.405,268.299 150.345,268.221 150.293,268.137C149.792,267.329 149.101,266.081 148.224,264.398C147.975,263.923 147.773,263.447 147.621,262.974C147.117,261.415 146.482,260.072 145.817,258.317C144.445,254.709 143.191,250.902 142.053,246.899C141.732,245.77 141.285,244.74 141.02,243.717C140.56,241.925 140.05,240.034 139.487,238.046C137.888,232.379 136.491,226.811 135.294,221.346C135.269,221.237 135.176,221.159 135.064,221.156C133.975,221.125 132.899,221.178 131.829,220.805C129.997,220.161 128.379,219.066 126.982,217.514C124.351,214.593 122.992,213.081 122.901,212.979C122.419,212.425 121.962,211.688 122.491,211.122C122.74,210.857 123.153,210.795 123.514,210.966C124.637,211.501 125.981,212.316 127.405,212.842C128.392,213.203 128.995,213.016 129.698,212.279C131.157,210.739 128.615,206.904 127.595,205.408C126.261,203.451 124.939,201.513 123.623,199.597C122.171,197.479 121.256,196.362 119.869,194.477C119.81,194.397 119.797,194.291 119.835,194.198C120.03,193.709 120.416,193.42 120.995,193.33C121.085,193.314 121.178,193.327 121.262,193.361L128.015,199.694C128.14,199.84 128.37,199.837 128.488,199.684C128.488,199.684 133.084,195.361 139.875,200.546C142.371,202.451 142.053,206.349 143.315,213.872C143.951,217.66 147.739,226.954 150.293,232.305C153.063,238.11 158.521,244.58 158.521,244.58C160.243,242.663 161.537,238.712 161.792,238.214Z" style="fill:white;fill-opacity:0.5;fill-rule:nonzero;"/>
    <path d="M61.245,198.652C61.289,198.593 61.258,198.509 61.186,198.493C54.89,197.14 51.282,196.35 50.365,196.126C48.949,195.781 47.512,195.491 46.057,195.258C45.506,195.168 45.21,194.913 45.17,194.493C45.136,194.114 45.475,193.809 45.845,193.886C49.235,194.589 54.781,195.784 62.48,197.467C62.85,197.551 63.055,197.725 63.093,197.992C63.118,198.188 63.009,198.443 62.766,198.758C61.08,200.935 58.978,203.647 56.455,206.895C56.24,207.171 55.842,207.221 55.568,207.007L55.556,206.997C55.282,206.786 55.232,206.388 55.444,206.114L61.245,198.652Z" style="fill:white;fill-opacity:0.5;fill-rule:nonzero;"/>
    <path d="M224.668,195.619C223.529,196.592 221.948,203.211 223.662,204.639C226.33,206.864 230.444,206.829 233.586,207.308C238.889,208.12 243.664,209.697 247.909,212.036C248.768,212.509 250.214,213.371 251.11,214.372C252.538,215.971 253.468,217.141 253.9,217.878C257.527,224.058 261.297,230.783 265.207,238.056C265.44,238.485 265.568,238.895 265.596,239.284C265.602,239.384 265.565,239.483 265.493,239.555L261.02,243.941C257.036,247.228 252.681,249.726 247.956,251.434C247.903,251.453 247.863,251.499 247.857,251.555C247.001,257.474 246.267,263.394 245.648,269.316C245.396,271.717 245.421,273.876 245.704,276.053C246.13,279.338 246.451,282.321 246.659,285.006C246.587,287.099 246.108,289.04 245.222,290.822C245.163,290.94 245.088,291.049 245.001,291.152C242.419,294.135 239.076,295.883 235.343,297.071C233.253,297.734 230.764,298.337 227.878,298.881C226.27,299.183 223.716,299.466 220.223,299.731L219.862,299.678C219.778,299.665 219.716,299.594 219.719,299.51C219.722,299.357 219.7,299.242 219.651,299.161C219.181,298.365 218.437,297.245 217.414,295.805C209.078,284.044 200.281,272.34 191.021,260.691C187.457,256.208 184.835,253.104 183.152,251.372C182.16,250.348 181.401,249.608 180.869,249.148C180.58,248.896 180.16,248.656 179.612,248.429C177.531,248.103 176.206,247.832 175.631,247.624C174.794,247.319 173.954,247.017 173.114,246.715C172.172,246.379 171.36,246.012 170.679,245.617C167.357,243.689 164.396,241.222 161.792,238.214L159.935,236.189C159.87,236.115 159.848,236.012 159.879,235.919C160.327,234.603 160.756,233.381 161.167,232.245C162.458,228.665 164.545,225.001 167.422,221.253C172.075,215.19 178.733,209.708 186.042,207.439C189.117,206.484 199.563,206.484 199.563,206.484C199.398,206.748 199.541,206.985 199.992,207.193C200.101,207.243 200.225,207.265 200.347,207.255C202.683,207.063 205.286,206.515 208.163,205.61C211.821,204.456 215.203,202.857 218.304,200.81C220.503,199.358 222.624,197.628 224.668,195.619Z" style="fill:white;fill-opacity:0.95;fill-rule:nonzero;"/>
    <path d="M100.901,203.292C100.808,203.61 100.475,203.793 100.158,203.703L84.641,199.224C84.322,199.131 84.138,198.798 84.231,198.481L84.253,198.403C84.347,198.086 84.68,197.902 84.997,197.993L100.513,202.471C100.832,202.565 101.016,202.898 100.923,203.215L100.901,203.292Z" style="fill:white;fill-opacity:0.5;fill-rule:nonzero;"/>
    <path d="M261.02,243.941C261.079,247.241 261.095,250.501 261.067,253.72C261.061,254.663 260.998,255.552 260.883,256.383C260.759,257.263 260.628,258.143 260.491,259.02C259.938,262.594 259.036,266.044 257.782,269.363C255.471,275.484 251.763,280.697 246.659,285.006C246.451,282.321 246.13,279.338 245.704,276.053C245.421,273.876 245.396,271.717 245.648,269.316C246.267,263.394 247.001,257.474 247.857,251.555C247.863,251.499 247.903,251.453 247.956,251.434C252.681,249.726 257.036,247.228 261.02,243.941Z" style="fill:white;fill-opacity:0.5;fill-rule:nonzero;"/>
    <path d="M220.223,299.731C219.364,299.703 218.512,299.731 217.669,299.815C216.456,299.936 215.61,299.998 215.131,299.998C211.342,300.001 207.305,300.001 203.019,299.992C202.816,299.992 202.533,299.955 202.201,299.88C201.886,299.812 201.435,299.759 200.851,299.718C197.908,299.519 195.059,298.99 192.306,298.129C190.278,297.494 189.102,297.118 188.776,296.997C187.622,296.567 186.185,295.917 184.468,295.049C183.223,294.424 182.057,293.572 181.115,292.968C179.382,291.861 178.673,288.698 178.477,286.698C178.029,282.131 177.873,278.116 178.007,274.654C178.085,272.703 178.216,269.369 178.402,264.654C178.443,263.674 178.632,262.523 178.592,261.45C178.579,261.111 178.598,260.685 178.648,260.171C178.819,258.464 178.965,256.722 179.086,254.952L179.612,248.429C180.16,248.656 180.58,248.896 180.869,249.148C181.401,249.608 182.16,250.348 183.152,251.372C184.835,253.104 187.457,256.208 191.021,260.691C200.281,272.34 209.078,284.044 217.414,295.805C218.437,297.245 219.181,298.365 219.651,299.161C219.7,299.242 219.722,299.357 219.719,299.51C219.716,299.594 219.778,299.665 219.862,299.678L220.223,299.731Z" style="fill:white;fill-opacity:0.75;fill-rule:nonzero;"/>
    <path d="M129.769,63.815C127.53,63.168 127.81,60.922 129.62,60.001C130.917,59.341 131.987,59.833 132.382,59.914C133.3,60.101 134.578,60.679 134.983,61.578C135.969,63.777 131.863,64.42 129.769,63.815Z" style="fill:white;fill-opacity:0.15;fill-rule:nonzero;"/>
</svg>
