<?xml version="1.0" encoding="UTF-8" standalone="no"?>
<!DOCTYPE svg PUBLIC "-//W3C//DTD SVG 1.1//EN" "http://www.w3.org/Graphics/SVG/1.1/DTD/svg11.dtd">
<svg width="100%" height="100%" viewBox="0 0 300 300" version="1.1" xmlns="http://www.w3.org/2000/svg" xmlns:xlink="http://www.w3.org/1999/xlink" xml:space="preserve" xmlns:serif="http://www.serif.com/" style="fill-rule:evenodd;clip-rule:evenodd;stroke-linejoin:round;stroke-miterlimit:2;">
    <path d="M188.924,50.107L186.684,48.241C186.503,48.092 186.339,47.914 186.2,47.718C185.509,46.731 184.861,45.923 184.256,45.293C182.636,43.601 181.699,41.757 181.596,39.791C181.386,35.643 182.831,32.687 184.519,28.41C185.007,27.171 185.502,26.284 185.997,25.747C187.952,23.628 191.036,22.937 193.835,23.058C197.67,23.225 199.97,23.375 200.729,23.507C202.328,23.781 204.425,24.109 207.017,24.497C208.346,24.696 209.585,24.725 210.728,24.586C210.881,24.568 211.016,24.682 211.023,24.835C211.041,25.166 211.07,25.786 211.109,26.701C211.194,28.635 210.504,30.194 208.709,31.085C208.139,31.366 207.003,31.729 205.301,32.174C203.612,32.446 201.827,32.558 199.942,32.508C199.875,32.506 199.809,32.504 199.742,32.502C199.02,32.374 198.286,32.273 197.538,32.203C194.804,31.944 194.229,34.159 193.365,36.141C193.315,36.255 193.293,36.38 193.301,36.504C193.438,38.752 194.116,44.894 196.31,45.82C197.709,46.411 198.557,45.591 199.646,44.801C199.948,44.583 200.561,44.552 201.487,44.712C203.182,44.954 204.892,45.553 206.188,43.897C206.163,46.493 205.604,48.925 204.518,51.19C204.08,52.105 203.585,52.785 202.541,53.07C201.327,53.401 200.049,53.465 198.699,53.269C197.068,53.105 195.532,52.581 194.116,51.656C194.019,51.593 193.909,51.554 193.796,51.542C192.035,51.367 190.555,50.705 188.924,50.107ZM204.607,47.433C203.041,45.982 199.979,46.677 198.923,48.455C198.866,48.551 198.888,48.676 198.973,48.747C199.357,49.065 199.71,49.174 200.034,49.074C201.085,48.751 202.221,48.677 203.442,48.857C203.681,48.892 203.923,48.804 204.08,48.619L204.635,47.963C204.77,47.807 204.756,47.572 204.607,47.433ZM191.68,45.2L191.242,37.865C191.239,37.776 191.164,37.705 191.075,37.708C189.149,37.77 188.056,38.986 187.892,40.866C187.678,43.313 188.884,44.814 191.513,45.346C191.602,45.364 191.688,45.293 191.68,45.2Z" style="fill:white;fill-opacity:0.25;"/>
    <path d="M205.301,32.174C205.832,33.467 206.441,35.155 206.33,36.565L205.561,36.387C205.198,36.301 204.977,36.775 205.276,36.999L206.437,37.865L206.39,39.007C206.377,38.995 206.362,38.984 206.347,38.974C205.881,38.69 205.337,38.669 204.687,39.047C204.368,39.232 204.67,39.521 204.823,39.472C205.086,39.387 205.359,39.395 205.359,39.534L205.359,40.692C205.404,41.138 205.948,41.035 205.927,40.745L205.927,39.588C205.934,39.484 206.01,39.387 206.152,39.387C206.291,39.387 206.299,39.447 206.373,39.405L206.188,43.897C204.892,45.553 203.182,44.954 201.487,44.712C201.747,44.627 201.952,44.42 202.114,44.093C202.188,43.943 202.331,43.844 202.495,43.829C203.001,43.782 203.777,44.136 204.122,43.893C204.386,43.708 204.506,43.43 204.482,43.064C204.324,40.664 204.004,38.643 203.524,36.996C203.495,36.896 203.396,36.843 203.229,36.835C203.232,36.654 203.15,36.49 202.976,36.348L203.111,36.326C203.236,36.305 203.31,36.177 203.271,36.059L202.164,32.765C202.125,32.651 202.018,32.569 201.897,32.566L199.942,32.508C201.827,32.558 203.612,32.446 205.301,32.174Z" style="fill:white;fill-opacity:0.75;"/>
    <path d="M199.742,32.502C199.809,32.504 199.875,32.506 199.942,32.508L201.897,32.566C202.018,32.569 202.125,32.651 202.164,32.765L203.271,36.059C203.31,36.177 203.236,36.305 203.111,36.326L202.976,36.348C201.979,36.095 200.913,36.197 199.782,36.65C199.472,36.775 199.443,37.203 199.735,37.366C200.304,37.684 202.161,37.336 202.844,37.163C202.969,37.131 203.097,37.024 203.229,36.835C203.396,36.843 203.495,36.896 203.524,36.996C204.004,38.643 204.324,40.664 204.482,43.064C204.506,43.43 204.386,43.708 204.122,43.893C203.777,44.136 203.001,43.782 202.495,43.829C202.331,43.844 202.188,43.943 202.114,44.093C201.952,44.42 201.747,44.627 201.487,44.712C200.561,44.552 199.948,44.583 199.646,44.801C198.557,45.591 197.709,46.411 196.31,45.82C194.116,44.894 193.438,38.752 193.301,36.504C193.293,36.38 193.315,36.255 193.365,36.141C194.229,34.159 194.804,31.944 197.538,32.203C198.286,32.273 199.02,32.374 199.742,32.502ZM202.691,39.214C202.787,39.199 202.851,39.178 202.876,39.154C202.999,39.034 202.972,38.833 202.823,38.741C202.357,38.454 201.798,38.508 201.163,38.911C201.042,38.989 201.092,39.179 201.238,39.179L201.437,39.179C201.558,39.179 201.658,39.275 201.658,39.396L201.658,40.517C201.658,40.742 201.897,40.888 202.096,40.781L202.228,40.713C202.363,40.642 202.456,40.5 202.463,40.347L202.509,39.417C202.516,39.314 202.591,39.23 202.691,39.214Z" style="fill:white;fill-opacity:0.95;"/>
    <path d="M203.229,36.835C203.232,36.654 203.15,36.49 202.976,36.348C201.979,36.095 200.913,36.197 199.782,36.65C199.472,36.775 199.443,37.203 199.735,37.366C200.304,37.684 202.161,37.336 202.844,37.163C202.969,37.131 203.097,37.024 203.229,36.835Z" style="fill:white;fill-opacity:0.15;"/>
    <path d="M206.33,36.565C208.801,37.137 209.163,39.338 206.437,37.865L205.276,36.999C204.977,36.775 205.198,36.301 205.561,36.387L206.33,36.565Z" style="fill:white;fill-opacity:0.15;"/>
    <path d="M191.68,45.2L191.242,37.865C191.239,37.776 191.164,37.705 191.075,37.708C189.149,37.77 188.056,38.986 187.892,40.866C187.678,43.313 188.884,44.814 191.513,45.346C191.602,45.364 191.688,45.293 191.68,45.2Z" style="fill:white;fill-opacity:0.95;"/>
    <path d="M202.691,39.214C202.787,39.199 202.851,39.178 202.876,39.154C202.999,39.034 202.972,38.833 202.823,38.741C202.357,38.454 201.798,38.508 201.163,38.911C201.042,38.989 201.092,39.179 201.238,39.179L201.437,39.179C201.558,39.179 201.658,39.275 201.658,39.396L201.658,40.517C201.658,40.742 201.897,40.888 202.096,40.781L202.228,40.713C202.363,40.642 202.456,40.5 202.463,40.347L202.509,39.417C202.516,39.314 202.591,39.23 202.691,39.214Z" style="fill:white;fill-opacity:0.15;"/>
    <path d="M206.373,39.405C206.299,39.447 206.291,39.387 206.152,39.387C206.01,39.387 205.934,39.484 205.927,39.588L205.927,40.745C205.948,41.035 205.404,41.138 205.359,40.692L205.359,39.534C205.359,39.395 205.086,39.387 204.823,39.472C204.67,39.521 204.368,39.232 204.687,39.047C205.337,38.669 205.881,38.69 206.347,38.974C206.362,38.984 206.377,38.995 206.39,39.007C206.504,39.111 206.525,39.298 206.401,39.387L206.373,39.405Z" style="fill:white;fill-opacity:0.15;"/>
    <path d="M233.767,50.78L237.122,46.347C237.253,46.169 237.488,46.101 237.695,46.179C240.277,47.148 242.214,48.736 243.788,51.061C245.066,52.945 246.081,54.979 246.836,57.161C246.872,57.265 246.868,57.379 246.832,57.482C244.792,63.065 242.474,68.524 239.874,73.855L246.053,57.51C246.088,57.414 246.052,57.301 245.964,57.243C241.581,54.411 238.023,52.792 233.767,50.78Z" style="fill:white;fill-opacity:0.35;"/>
    <path d="M213.547,65.978C216.594,58.171 219.803,50.061 221.208,46.87C221.34,46.571 221.667,46.411 221.984,46.496C226.239,47.636 230.167,49.064 233.767,50.78C238.023,52.792 241.581,54.411 245.964,57.243C246.052,57.301 246.088,57.414 246.053,57.51L239.874,73.855C239.451,74.122 233.358,88.43 231.225,93.188C228.921,98.337 227.115,101.855 224.569,107.114C224.099,108.087 224.327,109.358 222.828,109.201C220.972,109.006 216.251,107.37 211.833,105.731C207.239,104.027 202.974,102.318 202.598,102.218C202.164,102.104 201.712,102.128 201.398,101.947C201.299,101.89 201.235,101.784 201.234,101.666C201.224,100.455 201.492,99.509 201.719,98.404C201.737,98.315 201.64,98.244 201.558,98.29C198.039,100.307 194.423,102.095 190.666,103.593C190.003,103.856 189.231,103.95 188.817,104.088C188.323,104.253 187.955,104.675 187.859,105.191C187.31,108.154 187.013,111.17 186.966,114.243C186.934,116.27 186.828,118.075 186.645,119.667C186.022,125.091 185.44,130.389 184.904,135.566C184.815,136.425 184.68,137.212 184.494,137.92C182.016,147.393 179.534,156.836 177.066,166.255L176.322,165.592C176.24,165.518 176.204,165.404 176.226,165.297L181.635,137.771C181.663,137.621 181.681,137.472 181.685,137.318C181.72,135.816 181.674,130.72 181.549,122.035C181.539,121.116 181.411,120.083 181.407,119.296C181.396,116.462 181.368,113.293 181.322,109.785C181.322,109.778 181.243,108.094 181.083,104.732C180.973,102.368 181.079,100.003 181.407,97.639C183.061,98.091 185.36,97.943 187.909,97.455L187.966,98.871C187.97,98.974 188.059,99.052 188.159,99.042C192.818,98.563 197.383,97.717 201.84,96.4C201.982,96.357 202.096,96.246 202.146,96.104L203.398,92.341C205.562,91.43 206.97,90.776 207.017,90.773C207.153,90.763 207.18,90.879 207.253,90.92C207.815,91.246 208.455,91.411 209.124,91.448C210.848,92.445 212.681,93.206 214.563,93.828C214.734,93.885 214.919,93.853 215.058,93.747L215.09,93.725C215.193,93.647 215.18,93.486 215.065,93.426C213.506,92.614 211.896,91.954 210.259,91.396C211.673,91.2 213.1,90.54 214.13,89.702C214.769,90.084 215.439,90.338 216.133,90.463C216.522,90.534 216.749,90.037 216.44,89.79C216.011,89.449 215.5,89.168 214.907,88.947C215.604,88.117 215.879,87.209 215.428,86.432C215.382,86.297 215.443,86.145 215.571,86.08C215.903,85.911 216.187,85.567 216.433,85.058C220.004,86.774 223.545,88.517 227.051,90.296C227.269,90.406 227.425,90.459 227.521,90.456C227.692,90.451 227.767,90.239 227.635,90.132C226.92,89.552 226.115,89.032 225.221,88.569C222.397,87.106 219.666,85.719 216.992,84.506C216.903,84.466 216.814,84.453 216.717,84.47C216.611,84.246 216.45,84.114 216.237,84.071C214.517,83.733 212.779,82.362 211.8,81.483C211.276,81.013 210.475,80.671 209.941,80.81C209.435,80.943 208.289,81.731 207.126,82.563C208.163,79.86 210.789,73.043 213.547,65.978ZM213.345,97.14L213.548,96.57C213.555,96.546 213.541,96.517 213.516,96.506L212.729,96.232C210.585,95.481 208.798,95 208.741,95.164L208.712,95.242C208.659,95.406 210.35,96.143 212.498,96.894L213.285,97.172C213.31,97.179 213.338,97.169 213.345,97.14ZM226.578,63.568C226.685,63.286 226.542,62.973 226.261,62.865L220.065,60.524C219.783,60.416 219.47,60.559 219.363,60.841L219.356,60.861C219.249,61.143 219.392,61.456 219.673,61.563L225.868,63.905C226.15,64.013 226.464,63.87 226.571,63.588L226.578,63.568ZM219.085,89.263C219.038,89.623 218.943,89.947 218.811,90.235C216.734,94.768 215.495,97.096 214.549,100.32C214.517,100.427 214.539,100.544 214.606,100.633C214.854,100.966 215.289,101.289 215.923,101.598C217.914,102.571 219.94,103.25 222.002,103.635C222.116,103.657 222.233,103.596 222.28,103.489L226.977,92.967L226.987,92.931C227.026,92.732 226.92,92.632 226.663,92.625C226.578,92.623 226.496,92.596 226.428,92.547C225.352,91.768 220.343,89.461 219.321,89.117C219.214,89.082 219.1,89.15 219.085,89.263ZM232.916,60.836C232.827,60.811 232.731,60.858 232.692,60.943L229.939,67.111C229.897,67.21 229.929,67.328 230.014,67.388C231.844,68.706 233.379,69.942 235.348,70.308C235.647,70.362 235.95,70.234 236.118,69.977C237.382,68.044 238.3,65.985 238.87,63.803C239.009,63.272 238.781,62.877 238.186,62.613C236.791,61.994 235.035,61.402 232.916,60.836ZM213.634,77.918C213.57,77.904 213.509,77.936 213.484,77.997C213.459,78.053 213.484,78.125 213.538,78.157C214.52,78.751 215.525,79.296 216.55,79.784C220.129,81.49 223.814,83.263 227.61,85.108C228.12,85.353 228.786,85.642 229.605,85.966C229.864,86.069 230.078,86.073 230.246,85.984C230.438,85.88 230.441,85.603 230.253,85.492C226.432,83.249 222.297,81.184 217.846,79.3C216.554,78.755 215.151,78.292 213.634,77.918ZM228.713,60.602C228.828,60.295 228.672,59.957 228.364,59.843L221.771,57.404C221.464,57.29 221.126,57.446 221.012,57.753L221.002,57.78C220.887,58.087 221.044,58.426 221.351,58.54L227.944,60.978C228.251,61.093 228.59,60.936 228.704,60.629L228.713,60.602ZM225.045,73.685C224.922,73.948 226.531,74.955 228.635,75.932C230.74,76.91 232.546,77.487 232.668,77.223C232.792,76.96 231.182,75.953 229.079,74.976C226.973,73.998 225.168,73.421 225.045,73.685ZM230.26,80.788L223.348,77.174C223.33,77.167 223.309,77.174 223.302,77.192L223.295,77.199C223.12,77.537 223.889,78.285 225.014,78.872L227.917,80.389C229.042,80.977 230.096,81.184 230.27,80.845L230.274,80.838C230.285,80.82 230.278,80.799 230.26,80.788ZM226.04,66.808L218.754,63.532C218.704,63.511 218.647,63.532 218.626,63.578L214.225,73.367C213.933,74.022 214.029,74.706 214.442,74.891L220.41,77.573C220.823,77.758 221.397,77.377 221.692,76.722L226.09,66.933C226.111,66.886 226.09,66.829 226.04,66.808ZM230.384,57.293C232.763,58.16 235.204,59.073 237.699,60.042C238.009,60.163 238.315,60.244 238.624,60.284C238.863,60.315 239.066,60.103 239.016,59.864C239.016,59.857 238.98,59.819 238.906,59.75C238.428,59.31 237.745,58.894 236.844,58.515C234.531,57.54 232.517,56.745 230.812,56.122C229.106,55.498 227.055,54.814 224.655,54.07C223.722,53.782 222.931,53.647 222.283,53.686C222.183,53.692 222.13,53.697 222.127,53.704C221.934,53.853 221.95,54.147 222.155,54.277C222.416,54.442 222.704,54.581 223.017,54.687C225.554,55.54 228.005,56.426 230.384,57.293ZM226.841,70.198C226.739,70.455 227.048,70.742 227.778,71.056C229.798,71.926 231.858,72.7 233.974,73.339C234.13,73.386 234.236,73.342 234.291,73.203C234.346,73.064 234.302,72.961 234.155,72.887C232.189,71.885 230.171,71.001 228.109,70.227C227.368,69.948 226.945,69.938 226.841,70.198Z" style="fill:white;fill-opacity:0.6;"/>
    <path d="M204.607,47.433C203.041,45.982 199.979,46.677 198.923,48.455C198.866,48.551 198.888,48.676 198.973,48.747C199.357,49.065 199.71,49.174 200.034,49.074C201.085,48.751 202.221,48.677 203.442,48.857C203.681,48.892 203.923,48.804 204.08,48.619L204.635,47.963C204.77,47.807 204.756,47.572 204.607,47.433Z" style="fill:white;fill-opacity:0.95;"/>
    <path d="M189.832,52.521L188.924,50.107C190.555,50.705 192.035,51.367 193.796,51.542C193.909,51.554 194.019,51.593 194.116,51.656C195.532,52.581 197.068,53.105 198.699,53.269C198.809,53.989 198.923,54.662 199.048,55.285C199.137,55.737 199.401,55.922 199.842,55.837C199.732,56.04 199.575,56.194 199.365,56.3C199.265,56.35 199.158,56.372 199.048,56.364C195.638,56.12 192.567,54.815 189.832,52.521Z" style="fill:white;fill-opacity:0.75;"/>
    <path d="M186.595,75.657C183.254,76.29 179.617,76.361 175.671,75.844C175.389,75.808 175.105,75.768 174.819,75.725C174.712,75.671 174.645,75.557 174.652,75.436C174.652,75.436 175.371,72.701 175.546,71.897C176.197,68.888 177.159,65.839 178.427,62.759C179.619,59.853 181.026,58.03 183.832,57.229C185.531,56.745 186.866,56.325 187.838,55.972C189.359,55.42 190.025,54.27 189.832,52.521C192.567,54.815 195.638,56.12 199.048,56.364C199.158,56.372 199.265,56.35 199.365,56.3C199.575,56.194 199.732,56.04 199.842,55.837C201.477,55.847 203.107,55.858 204.742,55.862C206.473,55.865 207.484,55.89 207.772,55.936C210.133,56.321 211.376,58.34 212.142,60.502C212.434,61.331 212.9,63.147 213.541,65.95L213.547,65.978C210.789,73.043 208.163,79.86 207.126,82.563C205.921,83.425 204.697,84.333 204.151,84.606C200.984,86.184 191.138,87.573 187.466,87.3C187.403,83.752 187.469,79.347 187.817,75.55C187.824,75.475 187.756,75.415 187.681,75.429C187.323,75.512 186.961,75.588 186.595,75.657Z" style="fill:white;fill-opacity:0.95;"/>
    <path d="M230.384,57.293C232.763,58.16 235.204,59.073 237.699,60.042C238.009,60.163 238.315,60.244 238.624,60.284C238.863,60.315 239.066,60.103 239.016,59.864C239.016,59.857 238.98,59.819 238.906,59.75C238.428,59.31 237.745,58.894 236.844,58.515C234.531,57.54 232.517,56.745 230.812,56.122C229.106,55.498 227.055,54.814 224.655,54.07C223.722,53.782 222.931,53.647 222.283,53.686C222.183,53.692 222.13,53.697 222.127,53.704C221.934,53.853 221.95,54.147 222.155,54.277C222.416,54.442 222.704,54.581 223.017,54.687C225.554,55.54 228.005,56.426 230.384,57.293Z" style="fill:white;fill-opacity:0.35;"/>
    <path d="M228.713,60.602C228.828,60.295 228.672,59.957 228.364,59.843L221.771,57.404C221.464,57.29 221.126,57.446 221.012,57.753L221.002,57.78C220.887,58.087 221.044,58.426 221.351,58.54L227.944,60.978C228.251,61.093 228.59,60.936 228.704,60.629L228.713,60.602Z" style="fill:white;fill-opacity:0.35;"/>
    <path d="M226.578,63.568C226.685,63.286 226.542,62.973 226.261,62.865L220.065,60.524C219.783,60.416 219.47,60.559 219.363,60.841L219.356,60.861C219.249,61.143 219.392,61.456 219.673,61.563L225.868,63.905C226.15,64.013 226.464,63.87 226.571,63.588L226.578,63.568Z" style="fill:white;fill-opacity:0.35;"/>
    <path d="M232.916,60.836C232.827,60.811 232.731,60.858 232.692,60.943L229.939,67.111C229.897,67.21 229.929,67.328 230.014,67.388C231.844,68.706 233.379,69.942 235.348,70.308C235.647,70.362 235.95,70.234 236.118,69.977C237.382,68.044 238.3,65.985 238.87,63.803C239.009,63.272 238.781,62.877 238.186,62.613C236.791,61.994 235.035,61.402 232.916,60.836Z" style="fill:white;fill-opacity:0.35;"/>
    <path d="M226.04,66.808L218.754,63.532C218.704,63.511 218.647,63.532 218.626,63.578L214.225,73.367C213.933,74.022 214.029,74.706 214.442,74.891L220.41,77.573C220.823,77.758 221.397,77.377 221.692,76.722L226.09,66.933C226.111,66.886 226.09,66.829 226.04,66.808Z" style="fill:white;fill-opacity:0.35;"/>
    <path d="M226.841,70.198C226.739,70.455 227.048,70.742 227.778,71.056C229.798,71.926 231.858,72.7 233.974,73.339C234.13,73.386 234.236,73.342 234.291,73.203C234.346,73.064 234.302,72.961 234.155,72.887C232.189,71.885 230.171,71.001 228.109,70.227C227.368,69.948 226.945,69.938 226.841,70.198Z" style="fill:white;fill-opacity:0.35;"/>
    <path d="M225.045,73.685C224.922,73.948 226.531,74.955 228.635,75.932C230.74,76.91 232.546,77.487 232.668,77.223C232.792,76.96 231.182,75.953 229.079,74.976C226.973,73.998 225.168,73.421 225.045,73.685Z" style="fill:white;fill-opacity:0.35;"/>
    <path d="M187.123,87.268C186.474,87.191 186.088,87.046 186.068,86.821C186.017,86.24 186.581,81.13 186.578,80.81C186.567,79.097 186.574,77.377 186.595,75.657C186.961,75.588 187.323,75.512 187.681,75.429C187.756,75.415 187.824,75.475 187.817,75.55C187.469,79.347 187.403,83.752 187.466,87.3C187.345,87.291 187.23,87.28 187.123,87.268Z" style="fill:white;fill-opacity:0.6;"/>
    <path d="M214.13,89.702C213.1,90.54 211.673,91.2 210.259,91.396C209.877,91.449 209.496,91.468 209.124,91.448C208.455,91.411 207.815,91.246 207.253,90.92C207.18,90.879 207.153,90.763 207.017,90.773C206.97,90.776 205.562,91.43 203.398,92.341C199.509,93.978 193.177,96.445 187.909,97.455C185.36,97.943 183.061,98.091 181.407,97.639C180.399,97.186 179.758,96.731 179.491,96.275C178.573,94.719 177.917,92.974 177.529,91.047C177.12,89.025 176.878,87.867 176.806,87.575C176.155,84.926 175.61,75.878 175.61,75.878C175.63,75.865 175.65,75.854 175.671,75.844C179.617,76.361 183.254,76.29 186.595,75.657C186.574,77.377 186.567,79.097 186.578,80.81C186.581,81.13 186.017,86.24 186.068,86.821C186.088,87.046 186.474,87.191 187.123,87.268C187.23,87.28 187.345,87.291 187.466,87.3C191.138,87.573 200.984,86.184 204.151,84.606C204.697,84.333 205.921,83.425 207.126,82.563C208.289,81.731 209.435,80.943 209.941,80.81C210.475,80.671 211.276,81.013 211.8,81.483C212.779,82.362 214.517,83.733 216.237,84.071C216.45,84.114 216.611,84.246 216.717,84.47C216.536,84.712 216.44,84.908 216.433,85.058C216.187,85.567 215.903,85.911 215.571,86.08C215.443,86.145 215.382,86.297 215.428,86.432C215.879,87.209 215.604,88.117 214.907,88.947C214.687,89.209 214.425,89.463 214.13,89.702Z" style="fill:white;fill-opacity:0.75;"/>
    <path d="M230.26,80.788L223.348,77.174C223.33,77.167 223.309,77.174 223.302,77.192L223.295,77.199C223.12,77.537 223.889,78.285 225.014,78.872L227.917,80.389C229.042,80.977 230.096,81.184 230.27,80.845L230.274,80.838C230.285,80.82 230.278,80.799 230.26,80.788Z" style="fill:white;fill-opacity:0.35;"/>
    <path d="M213.634,77.918C213.57,77.904 213.509,77.936 213.484,77.997C213.459,78.053 213.484,78.125 213.538,78.157C214.52,78.751 215.525,79.296 216.55,79.784C220.129,81.49 223.814,83.263 227.61,85.108C228.12,85.353 228.786,85.642 229.605,85.966C229.864,86.069 230.078,86.073 230.246,85.984C230.438,85.88 230.441,85.603 230.253,85.492C226.432,83.249 222.297,81.184 217.846,79.3C216.554,78.755 215.151,78.292 213.634,77.918Z" style="fill:white;fill-opacity:0.35;"/>
    <path d="M216.433,85.058C220.004,86.774 223.545,88.517 227.051,90.296C227.269,90.406 227.425,90.459 227.521,90.456C227.692,90.451 227.767,90.239 227.635,90.132C226.92,89.552 226.115,89.032 225.221,88.569C222.397,87.106 219.666,85.719 216.992,84.506C216.903,84.466 216.814,84.453 216.717,84.47C216.536,84.712 216.44,84.908 216.433,85.058Z" style="fill:white;fill-opacity:0.35;"/>
    <path d="M214.13,89.702C214.769,90.084 215.439,90.338 216.133,90.463C216.522,90.534 216.749,90.037 216.44,89.79C216.011,89.449 215.5,89.168 214.907,88.947C214.687,89.209 214.425,89.463 214.13,89.702Z" style="fill:white;fill-opacity:0.35;"/>
    <path d="M219.085,89.263C219.038,89.623 218.943,89.947 218.811,90.235C216.734,94.768 215.495,97.096 214.549,100.32C214.517,100.427 214.539,100.544 214.606,100.633C214.854,100.966 215.289,101.289 215.923,101.598C217.914,102.571 219.94,103.25 222.002,103.635C222.116,103.657 222.233,103.596 222.28,103.489L226.977,92.967L226.987,92.931C227.026,92.732 226.92,92.632 226.663,92.625C226.578,92.623 226.496,92.596 226.428,92.547C225.352,91.768 220.343,89.461 219.321,89.117C219.214,89.082 219.1,89.15 219.085,89.263Z" style="fill:white;fill-opacity:0.35;"/>
    <path d="M209.124,91.448C210.848,92.445 212.681,93.206 214.563,93.828C214.734,93.885 214.919,93.853 215.058,93.747L215.09,93.725C215.193,93.647 215.18,93.486 215.065,93.426C213.506,92.614 211.896,91.954 210.259,91.396C209.877,91.449 209.496,91.468 209.124,91.448Z" style="fill:white;fill-opacity:0.35;"/>
    <path d="M187.909,97.455L187.966,98.871C187.97,98.974 188.059,99.052 188.159,99.042C192.818,98.563 197.383,97.717 201.84,96.4C201.982,96.357 202.096,96.246 202.146,96.104L203.398,92.341C199.509,93.978 193.177,96.445 187.909,97.455Z" style="fill:white;fill-opacity:0.95;"/>
    <path d="M213.345,97.14L213.548,96.57C213.555,96.546 213.541,96.517 213.516,96.506L212.729,96.232C210.585,95.481 208.798,95 208.741,95.164L208.712,95.242C208.659,95.406 210.35,96.143 212.498,96.894L213.285,97.172C213.31,97.179 213.338,97.169 213.345,97.14Z" style="fill:white;fill-opacity:0.35;"/>
    <path d="M179.053,167.476L177.066,166.255C179.534,156.836 182.016,147.393 184.494,137.92C184.68,137.212 184.815,136.425 184.904,135.566C185.44,130.389 186.022,125.091 186.645,119.667C186.828,118.075 186.934,116.27 186.966,114.243C187.013,111.17 187.31,108.154 187.859,105.191C187.955,104.675 188.323,104.253 188.817,104.088C189.231,103.95 190.003,103.856 190.666,103.593C194.423,102.095 198.039,100.307 201.558,98.29C201.64,98.244 201.737,98.315 201.719,98.404C201.492,99.509 201.224,100.455 201.234,101.666C201.235,101.784 201.299,101.89 201.398,101.947C201.712,102.128 202.164,102.104 202.598,102.218C202.974,102.318 207.239,104.027 211.833,105.731C211.819,110.683 210.17,136.097 210.034,137.603C209.147,147.378 208.42,155.6 207.858,162.27C207.804,162.861 207.737,163.381 207.651,163.83C207.633,163.929 207.569,164.015 207.48,164.061L206.462,164.599C206.102,164.788 205.971,165.236 206.166,165.592L206.914,166.931C207.309,167.864 207.708,168.491 208.107,168.811C208.556,169.171 209.538,169.659 211.056,170.268C212.743,170.945 214.602,172.736 214.552,174.826C214.55,174.936 214.519,175.042 214.463,175.136C214.275,175.451 214.143,175.812 214.057,176.222L208.296,174.203C208.093,174.132 207.904,174.028 207.737,173.893L203.054,170.158C202.969,170.086 202.915,169.983 202.908,169.873L202.673,165.945C202.666,165.838 202.573,165.76 202.47,165.774L201.306,165.934C201.217,165.948 201.135,165.874 201.142,165.781L202.556,139.936C202.566,139.768 202.559,139.605 202.534,139.444L198.514,110.145C198.507,110.091 198.461,110.054 198.403,110.056C198.35,110.057 198.307,110.102 198.304,110.155L196.847,138.262C196.83,138.554 196.787,138.843 196.712,139.12L195.099,145.313L189.291,167.822C189.099,168.188 188.429,168.519 187.283,168.819C184.38,169.164 181.639,168.719 179.053,167.476Z" style="fill:white;fill-opacity:0.95;"/>
    <path d="M197.97,167.263C197.98,166.707 197.982,166.174 198.005,165.824C198.019,165.61 197.898,165.414 197.702,165.325L196.577,164.823C196.47,164.773 196.402,164.663 196.416,164.545C196.463,164.086 195.861,155.312 195.733,153.802C195.501,151.099 195.576,149.472 195.533,146.246C195.526,145.665 195.38,145.352 195.099,145.313L196.712,139.12C196.787,138.843 196.83,138.554 196.847,138.262L198.304,110.155C198.307,110.102 198.35,110.057 198.403,110.056C198.461,110.054 198.507,110.091 198.514,110.145L202.534,139.444C202.559,139.605 202.566,139.768 202.556,139.936L201.142,165.781C201.135,165.874 201.217,165.948 201.306,165.934L202.47,165.774C202.573,165.76 202.666,165.838 202.673,165.945L202.908,169.873C202.915,169.983 202.969,170.086 203.054,170.158L207.737,173.893C207.904,174.028 208.093,174.132 208.296,174.203L214.057,176.222C214.075,176.46 213.925,176.663 213.602,176.824C212.782,177.231 211.932,177.354 211.045,177.183C207.972,176.593 204.991,175.65 202.103,174.335C201.377,174.004 200.626,173.81 200.07,173.708C197.977,173.323 197.574,172.383 197.613,170.375C197.618,170.111 197.684,169.755 197.809,169.31C197.928,168.879 197.956,168.048 197.97,167.263Z" style="fill:white;fill-opacity:0.5;"/>
    <path d="M150.695,205.952C151.835,203.135 152.592,201.259 152.592,201.259C152.631,201.031 152.82,200.856 153.051,200.832L155.22,200.614C155.423,200.597 155.629,200.614 155.825,200.675C156.302,200.824 165.69,205.036 175.904,209.694C177.027,210.233 177.852,210.646 178.227,210.866L178.388,210.828C190.083,216.176 202.004,221.723 202.299,222.172C202.502,222.486 202.313,222.902 201.947,222.952C201.071,223.073 190.844,224.505 190.844,224.505C190.701,224.523 190.66,224.684 190.755,224.79C202.929,238.348 246.117,241.807 257.711,224.006C265.304,208.833 246.501,189.292 206.284,190.464C182.121,191.169 161.158,198.881 101.587,204.093C55.518,208.124 11.876,190.914 2.601,164.243C-21.44,111.277 128.334,84.555 157.456,169.011C156.035,169.442 122.535,175.068 122.535,175.068C122.482,175.075 122.397,175.08 122.382,175.029C120.797,169.501 113.776,154.065 102.148,146.748C72.457,128.066 25.207,140.402 40.304,165.948C51.209,180.043 79.788,184.963 117.207,178.967C120.091,178.566 141.154,175.004 157.788,172.208C169.022,170.321 178.236,168.783 178.466,168.804C178.533,168.957 178.562,169.057 178.555,169.103C178.33,169.752 178.238,170.442 178.273,171.176C178.38,173.373 178.357,175.047 178.199,176.2L178.106,176.884C177.872,178.702 177.537,180.438 177.137,182.094C177.113,182.197 177.098,182.304 177.095,182.414C177.024,184.498 177.756,186.061 179.303,187.118C179.713,187.399 180.168,187.608 180.67,187.749C183.553,188.555 186.091,187.095 187.13,184.465C187.182,184.333 187.211,184.191 187.219,184.049C187.283,182.834 187.257,181.635 187.133,180.449C186.983,179.01 186.926,177.746 186.962,176.66C187.029,174.63 187.247,172.572 187.607,170.485L187.283,168.819C188.429,168.519 189.099,168.188 189.291,167.822C190.076,167.513 196.285,167.314 197.97,167.263C197.956,168.048 197.928,168.879 197.809,169.31C197.684,169.755 197.618,170.111 197.613,170.375C197.574,172.383 197.977,173.323 200.07,173.708C200.626,173.81 201.377,174.004 202.103,174.335C204.991,175.65 207.972,176.593 211.045,177.183C211.932,177.354 212.782,177.231 213.602,176.824C213.925,176.663 214.075,176.46 214.057,176.222C214.143,175.812 214.275,175.451 214.463,175.136C214.519,175.042 214.55,174.936 214.552,174.826C214.602,172.736 212.743,170.945 211.056,170.268C209.538,169.659 208.556,169.171 208.107,168.811C207.708,168.491 207.309,167.864 206.914,166.931C239.295,165.03 308.903,182.814 298.73,227.097C291.209,259.836 223.794,272.306 171.178,244.588C164.29,240.96 156.861,233.29 154.664,231.085C154.347,230.768 153.878,230.659 153.454,230.804C153.254,230.872 152.955,230.941 152.556,231.011C148.786,231.665 145.15,232.368 141.635,233.069C140.812,233.233 140.25,232.966 139.954,232.268C139.933,232.122 139.933,231.969 139.954,231.812C139.979,231.644 140.039,231.513 140.143,231.409C140.384,231.171 143.442,223.77 146.466,216.36C148.011,212.575 149.548,208.787 150.695,205.952Z" style="fill:white;fill-opacity:0.85;"/>
    <path d="M40.304,165.948C25.207,140.402 72.457,128.066 102.148,146.748C113.776,154.065 120.797,169.501 122.382,175.029C122.397,175.08 122.482,175.075 122.535,175.068C122.535,175.068 156.035,169.442 157.456,169.011L157.788,172.208C141.154,175.004 120.091,178.566 117.207,178.967C103.83,152.363 56.743,146.552 40.304,165.948Z" style="fill:white;fill-opacity:0.25;"/>
    <path d="M257.711,224.006C246.007,210.264 221.651,200.638 178.388,210.828L175.904,209.694C170.177,206.949 156.709,200.952 155.825,200.675C155.629,200.614 155.423,200.597 155.22,200.614L153.051,200.832C152.82,200.856 152.631,201.031 152.592,201.259C152.592,201.259 151.745,203.338 150.695,205.952C149.548,208.787 148.011,212.575 146.466,216.36C83.566,229.052 -1.903,223.919 1.818,165.165C1.841,164.8 2.074,164.592 2.391,164.531C2.488,164.512 2.551,164.463 2.581,164.384C2.595,164.344 2.602,164.297 2.601,164.243C11.876,190.914 55.518,208.124 101.587,204.093C161.158,198.881 182.121,191.169 206.284,190.464C246.501,189.292 265.304,208.833 257.711,224.006Z" style="fill:white;fill-opacity:0.25;"/>
    <path d="M178.388,210.828C178.334,210.841 178.281,210.854 178.227,210.866C177.852,210.646 177.027,210.233 175.904,209.694C176.728,210.07 177.558,210.449 178.388,210.828Z" style="fill:white;fill-opacity:0.95;"/>
    <path d="M178.466,168.804C178.562,168.391 178.758,167.95 179.053,167.476C181.639,168.719 184.38,169.164 187.283,168.819L187.607,170.485C185.395,171.568 183.273,171.649 181.24,170.734C180.456,170.382 179.562,169.841 178.555,169.103C178.562,169.057 178.533,168.957 178.466,168.804Z" style="fill:white;fill-opacity:0.95;"/>
    <path d="M178.555,169.103C178.33,169.752 178.238,170.442 178.273,171.176C178.38,173.373 178.357,175.047 178.199,176.2C178.156,176.51 178.125,176.738 178.106,176.884C177.872,178.702 177.537,180.438 177.137,182.094C177.113,182.197 177.098,182.304 177.095,182.414C177.024,184.498 177.756,186.061 179.303,187.118C179.713,187.399 180.168,187.608 180.67,187.749C183.553,188.555 186.091,187.095 187.13,184.465C187.182,184.333 187.211,184.191 187.219,184.049C187.283,182.834 187.257,181.635 187.133,180.449C186.983,179.01 186.926,177.746 186.962,176.66C187.029,174.63 187.247,172.572 187.607,170.485C185.395,171.568 183.273,171.649 181.24,170.734C180.456,170.382 179.562,169.841 178.555,169.103Z" style="fill:white;fill-opacity:0.5;"/>
    <path d="M298.73,227.097C314.127,291.757 185.027,287.655 155.733,248.206C155.491,247.881 155.038,247.793 154.639,247.868L142.112,250.233C142.08,250.24 142.051,250.24 142.019,250.233C141.065,250.076 140.552,249.396 140.481,248.189C140.136,242.327 139.89,237.338 139.744,233.222C139.737,233.076 139.808,232.756 139.954,232.268C140.25,232.966 140.812,233.233 141.635,233.069C145.15,232.368 148.786,231.665 152.556,231.011C152.955,230.941 153.254,230.872 153.454,230.804C153.878,230.659 154.347,230.768 154.664,231.085C156.861,233.29 164.29,240.96 171.178,244.588C223.794,272.306 291.209,259.836 298.73,227.097Z" style="fill:white;fill-opacity:0.25;"/>
</svg>
