<?xml version="1.0" encoding="UTF-8" standalone="no"?>
<!DOCTYPE svg PUBLIC "-//W3C//DTD SVG 1.1//EN" "http://www.w3.org/Graphics/SVG/1.1/DTD/svg11.dtd">
<svg width="100%" height="100%" viewBox="0 0 300 300" version="1.1" xmlns="http://www.w3.org/2000/svg" xmlns:xlink="http://www.w3.org/1999/xlink" xml:space="preserve" xmlns:serif="http://www.serif.com/" style="fill-rule:evenodd;clip-rule:evenodd;stroke-linejoin:round;stroke-miterlimit:2;">
    <path d="M155.623,220.832C155.133,220.554 154.596,220.359 154.003,220.24C151.401,219.725 148.84,219.709 146.321,220.189C142.511,220.916 139.454,222.257 134.944,224.005C133.087,224.722 131.237,225.263 129.393,225.631C125.772,226.354 123.682,225.103 121.438,222.394C119.143,219.625 116.406,216.488 113.384,214.094C107.363,209.324 100.64,206.83 93.217,206.613C90.217,206.526 86.83,206.709 83.056,207.16C79.637,207.57 76.331,208.271 73.133,209.267C68.661,210.656 64.464,211.978 60.539,213.236C57.354,214.257 54.051,214.987 50.625,215.429C42.955,216.418 35.887,213.223 30.695,207.656C19.728,195.911 18.089,179.784 25.493,165.779C28.758,159.607 31.857,153.605 33.339,147.558C34.767,141.735 32.536,137.231 28.525,133.236C22.718,127.448 15.73,120.87 13.857,112.297C12.343,105.36 13.921,97.268 19.081,92.066C20.89,90.244 22.833,88.801 24.914,87.738C27.494,86.416 29.149,85.564 29.879,85.18C33.586,83.228 36.79,80.83 39.489,77.984C39.886,77.565 40.302,76.608 40.478,75.833C40.932,73.819 41.211,71.492 41.316,68.854C41.374,67.382 41.297,66.149 41.089,65.154C40.222,61.053 38.973,57.359 37.344,54.071C36.665,52.701 35.257,49.926 33.115,45.742C31.006,41.616 29.472,37.499 28.509,33.386C28.009,31.25 27.939,29.198 28.918,27.083C29.04,26.82 29.53,25.732 30.385,23.821C30.993,22.46 31.988,21.055 33.374,19.605C37.77,15.005 43.019,12.156 48.913,9.857C58.26,6.211 68.165,3.445 78.629,1.566C86.757,0.106 94.641,-0.332 102.282,0.247C117.795,1.425 130.206,8.093 139.512,20.251C140.034,20.936 140.792,21.333 141.785,21.442C145.917,21.893 150.06,21.903 154.215,21.468C163.668,20.479 173.063,18.372 182.407,15.149C184.994,14.256 187.942,13.436 191.252,12.684C199.377,10.843 207.744,11.038 215.782,13.068C222.687,14.813 227.636,17.93 231.174,23.824C233.706,28.043 235.895,34.039 241.395,36.779C243.114,37.634 244.737,38.239 246.257,38.594C253.745,40.335 258.976,41.142 264.245,44.769C269.876,48.645 273.461,53.514 276.857,59.741C281.729,68.675 284.201,77.859 282.677,87.908C281.669,94.566 278.884,101.737 276.403,107.627C275.247,110.364 274.456,112.371 274.027,113.648C272.081,119.445 275.462,122.807 278.884,127.045C281.035,129.711 282.661,133.137 282.834,136.594C283.058,141.149 280.343,145.167 277.706,149.014C274.917,153.08 271.467,156.787 267.007,159.367C264.242,160.968 261.53,162.286 258.876,163.327C254.103,165.193 250.281,166.73 247.41,167.936C244.971,168.961 242.426,170.2 239.778,171.656C237.208,168.513 234.288,166.144 230.988,164.089C226.494,161.291 221.75,159.539 216.759,158.836C214.121,158.464 211.88,158.509 209.428,158.708C207.968,158.826 206.547,159.556 205.161,160.894C204.063,161.954 203.331,163.218 202.962,164.687C202.742,165.561 202.805,166.608 203.154,167.821C202.699,167.927 202.124,168.245 201.425,168.778C199.692,170.103 198.439,171.138 197.674,171.896C197.047,172.414 196.598,172.862 196.361,173.439C196.153,173.407 194.386,175.232 194.117,175.786C194.117,175.786 193.234,176.697 192.705,177.345C192.648,177.389 192.602,177.445 192.568,177.517C192.078,178.055 191.028,179.352 189.411,181.41C187.433,183.929 186.29,185.428 185.983,185.905C183.339,190.008 180.407,194.388 179.699,199.33C179.098,203.524 180.675,205.909 184.126,207.98C185.029,208.501 185.952,208.992 186.898,209.436C187.084,209.523 187.228,209.651 187.327,209.817C187.139,211.431 186.736,212.977 186.121,214.456C184.966,217.231 183.115,219.344 180.576,220.794C180.026,220.839 179.51,221.008 179.027,221.3C178.847,221.408 178.633,221.448 178.425,221.409C178.165,221.359 177.798,221.287 177.327,221.197C176.927,221.121 174.67,220.654 170.563,219.798C165.508,218.746 160.383,218.479 155.623,220.832ZM134.412,129.455C133.522,129.945 133.161,130.745 133.33,131.856C134.629,140.399 136.234,151.105 138.164,163.97C138.302,164.905 138.87,165.505 139.87,165.747C139.966,165.77 140.069,165.776 140.168,165.76L147.527,164.642L185.035,158.877L193.794,157.51L198.663,153.976C198.855,153.839 198.951,153.608 198.916,153.378C198.916,153.378 193.621,119.983 193.614,119.778C193.584,118.879 193.109,118.365 192.206,118.2C192.19,118.197 192.171,118.194 192.155,118.197L138.647,126.347C138.542,126.363 138.439,126.408 138.353,126.472L134.412,129.455ZM188.941,30.521C179.488,34.833 170.028,39.161 160.556,43.501C158.908,44.257 158.078,44.868 158.92,46.706C166.984,64.303 175.979,83.941 185.903,105.62C186.245,106.365 186.755,107.706 187.251,108.001C187.869,108.369 188.429,108.437 188.928,108.209C198.646,103.781 208.353,99.333 218.049,94.88C218.974,94.515 219.868,94.1 220.728,93.634C221.407,93.267 222.095,93.186 222.671,92.818C223.142,92.517 223.41,92.028 223.366,91.557C223.359,91.487 223.396,91.364 223.484,91.189C223.525,91.108 223.516,91.013 223.462,90.942C222.704,89.948 195.49,29.57 195.077,29.115C194.604,28.594 194.127,28.391 193.643,28.507C192.763,28.718 191.945,29.046 191.188,29.493C190.967,29.624 190.589,29.784 190.055,29.976C189.664,30.117 189.293,30.3 188.941,30.521ZM90.87,59.574C78.293,62.1 65.825,64.62 53.468,67.135C52.351,67.363 51.541,67.798 51.791,69.034C54.767,83.793 57.898,99.379 61.224,115.783C61.467,116.981 61.823,117.97 63.196,117.691C89.174,112.457 115.141,107.214 141.096,101.961L150.428,100.091C150.946,99.989 151.282,99.486 151.186,98.968C148.149,82.869 144.881,66.63 141.352,50.259C141.327,50.14 141.25,50.041 141.141,49.987L140.389,49.615C140.325,49.583 140.251,49.574 140.184,49.59L130.491,51.568L94.532,58.816L96.434,25.78C97.993,25.162 98.78,24.237 98.79,23.011C98.809,20.671 96.436,19.449 94.459,20.655C94.379,20.703 94.306,20.764 94.244,20.834C92.736,22.544 93.021,24.144 95.157,25.684L93.188,58.662C93.174,58.885 93.053,59.058 92.889,59.156L92.484,59.24C92.362,59.223 92.242,59.168 92.141,59.068C92.093,59.021 92.029,58.924 91.949,58.78C85.896,47.599 79.839,36.407 73.783,25.207C73.837,24.992 73.908,24.82 73.997,24.688C74.779,23.535 74.842,22.444 74.195,21.416C72.518,18.75 68.397,20.561 69.282,23.673C69.651,24.973 70.757,25.655 72.598,25.722L90.87,59.574ZM70.458,178.702C64.846,176.376 57.286,173.242 57.229,173.21C55.922,172.471 55.753,172.931 56.501,171.109C56.634,170.785 57.526,168.459 57.834,167.556C57.965,167.173 57.966,167.079 57.668,166.832L56.634,165.974C55.195,164.78 55.923,162.158 56.039,161.835C56.4,160.827 65.3,137.641 65.373,137.349C65.412,137.205 65.54,137.109 65.687,137.112C65.963,137.12 73.452,139.867 79.904,142.238C79.98,142.033 84.318,130.367 84.407,130.278C84.749,129.939 89.975,124.9 102.971,129.774C118.976,135.776 116.282,143.506 116.268,143.544C112.705,153.986 108.092,166.963 101.732,185.203C101.699,185.297 100.321,191.605 84.407,187.903C74.814,185.672 71.208,179.839 70.458,178.702Z" style="fill:white;fill-opacity:0.1;"/>
    <path d="M73.783,25.207C73.837,24.992 73.908,24.82 73.997,24.688C74.779,23.535 74.842,22.444 74.195,21.416C72.518,18.75 68.397,20.561 69.282,23.673C69.651,24.973 70.757,25.655 72.598,25.722C72.989,25.223 73.382,25.05 73.783,25.207Z" style="fill:white;fill-opacity:0.25;"/>
    <path d="M96.434,25.78C97.993,25.162 98.78,24.237 98.79,23.011C98.809,20.671 96.436,19.449 94.459,20.655C94.379,20.703 94.306,20.764 94.244,20.834C92.736,22.544 93.021,24.144 95.157,25.684C95.634,25.501 96.059,25.533 96.434,25.78Z" style="fill:white;fill-opacity:0.25;"/>
    <path d="M94.532,58.816L96.434,25.78C96.059,25.533 95.634,25.501 95.157,25.684L93.188,58.662C93.174,58.885 93.053,59.058 92.889,59.156L94.532,58.816Z" style="fill:white;fill-opacity:0.5;"/>
    <path d="M92.484,59.24C92.362,59.223 92.242,59.168 92.141,59.068C92.093,59.021 92.029,58.924 91.949,58.78C85.896,47.599 79.839,36.407 73.783,25.207C73.382,25.05 72.989,25.223 72.598,25.722L90.87,59.574L92.484,59.24Z" style="fill:white;fill-opacity:0.5;"/>
    <path d="M218.049,94.88C218.974,94.515 219.868,94.1 220.728,93.634C221.407,93.267 222.095,93.186 222.671,92.818C223.142,92.517 223.41,92.028 223.366,91.557C223.359,91.487 223.396,91.364 223.484,91.189C223.525,91.108 223.516,91.013 223.462,90.942C222.704,89.948 195.49,29.57 195.077,29.115C194.604,28.594 194.127,28.391 193.643,28.507C192.763,28.718 191.945,29.046 191.188,29.493C190.967,29.624 190.589,29.784 190.055,29.976C189.664,30.117 189.293,30.3 188.941,30.521C189.6,30.633 190.006,30.758 190.16,30.895C190.724,31.394 191.066,32.307 191.409,33.053C200.462,52.826 209.523,72.594 218.574,92.37C219.038,93.385 218.865,94.224 218.049,94.88Z" style="fill:white;fill-opacity:0.5;"/>
    <path d="M188.941,30.521C179.488,34.833 170.028,39.161 160.556,43.501C158.908,44.257 158.078,44.868 158.92,46.706C166.984,64.303 175.979,83.941 185.903,105.62C186.245,106.365 186.755,107.706 187.251,108.001C187.869,108.369 188.429,108.437 188.928,108.209C198.646,103.781 208.353,99.333 218.049,94.88C218.865,94.224 219.038,93.385 218.574,92.37C209.523,72.594 200.462,52.826 191.409,33.053C191.066,32.307 190.724,31.394 190.16,30.895C190.006,30.758 189.6,30.633 188.941,30.521ZM188.144,37.413C187.574,36.948 187.007,36.846 186.441,37.105C179.727,40.18 172.856,43.325 165.822,46.533C164.171,47.286 162.811,47.685 163.719,49.667C167.26,57.396 170.563,64.673 173.678,71.476C173.917,71.998 174.388,72.276 175.089,72.308C175.688,72.248 176.22,72.117 176.677,71.915C179.577,70.63 186.382,67.526 197.101,62.603C198.375,62.017 199.427,61.396 198.768,59.91C197.371,56.761 194.155,49.753 189.133,38.882C188.867,38.306 188.537,37.816 188.144,37.413ZM205.219,79.799C205.146,79.806 205.073,79.81 204.998,79.81C203.723,79.81 202.688,78.775 202.688,77.5C202.688,76.225 203.723,75.19 204.998,75.19C205.073,75.19 205.146,75.194 205.219,75.201C205.292,75.194 205.366,75.19 205.441,75.19C206.715,75.19 207.75,76.225 207.75,77.5C207.75,78.775 206.715,79.81 205.441,79.81C205.366,79.81 205.292,79.806 205.219,79.799ZM185.165,89.486C184.257,89.813 183.233,89.4 182.816,88.509L181.213,85.087C180.77,84.143 181.178,83.017 182.122,82.575L183.155,82.09L182.683,81.052C182.251,80.103 182.67,78.981 183.619,78.549L187.059,76.983C187.468,76.797 187.91,76.769 188.314,76.874C189.23,76.545 190.261,76.969 190.672,77.87L190.934,78.446L190.959,78.435C191.373,78.241 191.822,78.21 192.233,78.317C193.14,77.99 194.164,78.403 194.581,79.294L196.185,82.716C196.627,83.66 196.22,84.786 195.275,85.228L194.242,85.713L194.715,86.751C195.147,87.7 194.727,88.822 193.778,89.254L190.338,90.82C189.929,91.006 189.487,91.034 189.083,90.929C188.167,91.258 187.136,90.834 186.726,89.933L186.463,89.357L186.439,89.368C186.024,89.562 185.576,89.593 185.165,89.486ZM202.131,83.866C202.059,83.873 201.985,83.876 201.91,83.876C200.635,83.876 199.6,82.841 199.6,81.567C199.6,80.292 200.635,79.257 201.91,79.257C201.985,79.257 202.059,79.26 202.131,79.267C202.204,79.26 202.278,79.257 202.353,79.257C203.628,79.257 204.663,80.292 204.663,81.567C204.663,82.841 203.628,83.876 202.353,83.876C202.278,83.876 202.204,83.873 202.131,83.866ZM199.162,79.799C199.089,79.806 199.016,79.81 198.941,79.81C197.666,79.81 196.631,78.775 196.631,77.5C196.631,76.225 197.666,75.19 198.941,75.19C199.016,75.19 199.089,75.194 199.162,75.201C199.235,75.194 199.309,75.19 199.384,75.19C200.658,75.19 201.693,76.225 201.693,77.5C201.693,78.775 200.658,79.81 199.384,79.81C199.309,79.81 199.235,79.806 199.162,79.799ZM202.158,75.435C202.085,75.442 202.011,75.446 201.937,75.446C200.662,75.446 199.627,74.411 199.627,73.136C199.627,71.861 200.662,70.826 201.937,70.826C202.011,70.826 202.085,70.83 202.158,70.837C202.231,70.83 202.305,70.826 202.379,70.826C203.654,70.826 204.689,71.861 204.689,73.136C204.689,74.411 203.654,75.446 202.379,75.446C202.305,75.446 202.231,75.442 202.158,75.435Z" style="fill:white;fill-opacity:0.85;"/>
    <path d="M188.144,37.413C187.574,36.948 187.007,36.846 186.441,37.105C179.727,40.18 172.856,43.325 165.822,46.533C164.171,47.286 162.811,47.685 163.719,49.667C167.26,57.396 170.563,64.673 173.678,71.476C173.917,71.998 174.388,72.276 175.089,72.308C175.259,72.142 175.11,71.853 174.638,71.441C174.565,71.377 174.504,71.303 174.456,71.22C174.138,70.677 173.799,70.02 173.444,69.239C170.754,63.312 167.912,57.079 164.891,50.553C164.302,49.282 164.221,48.047 165.704,47.371C174.416,43.403 180.792,40.482 184.834,38.607C185.394,38.347 186.007,38.081 186.678,37.822C186.77,37.787 186.87,37.767 186.972,37.765C187.535,37.753 187.926,37.64 188.144,37.413Z" style="fill:white;fill-opacity:0.25;"/>
    <path d="M175.089,72.308C175.688,72.248 176.22,72.117 176.677,71.915C179.577,70.63 186.382,67.526 197.101,62.603C198.375,62.017 199.427,61.396 198.768,59.91C197.371,56.761 194.155,49.753 189.133,38.882C188.867,38.306 188.537,37.816 188.144,37.413C187.926,37.64 187.535,37.753 186.972,37.765C186.87,37.767 186.77,37.787 186.678,37.822C186.007,38.081 185.394,38.347 184.834,38.607C180.792,40.482 174.416,43.403 165.704,47.371C164.221,48.047 164.302,49.282 164.891,50.553C167.912,57.079 170.754,63.312 173.444,69.239C173.799,70.02 174.138,70.677 174.456,71.22C174.504,71.303 174.565,71.377 174.638,71.441C175.11,71.853 175.259,72.142 175.089,72.308ZM179.702,50.473L179.222,49.993C179.12,49.891 178.972,49.849 178.832,49.878L178.607,49.923C178.483,49.948 178.351,49.91 178.262,49.817L177.926,49.481C177.833,49.391 177.692,49.366 177.573,49.417C177.205,49.58 176.952,49.484 176.818,49.135C176.732,48.914 176.472,48.815 176.261,48.924L173.803,50.176C173.71,50.224 173.671,50.339 173.719,50.435L173.902,50.79C173.963,50.915 173.915,51.066 173.79,51.126C173.188,51.424 172.753,51.648 172.48,51.795C172.253,51.92 172.186,52.202 172.349,52.336C172.375,52.359 172.391,52.471 172.397,52.676C172.4,52.769 172.34,52.855 172.25,52.881C171.904,52.986 171.799,53.22 171.936,53.578C172.074,53.943 171.946,54.19 171.546,54.315C171.402,54.36 171.328,54.523 171.392,54.66L172.977,58.127C172.999,58.175 173.034,58.217 173.079,58.243C173.271,58.358 173.476,58.332 173.697,58.166C173.835,58.06 174.033,58.108 174.11,58.262L174.702,59.421C174.756,59.526 174.872,59.584 174.987,59.561L175.595,59.437C175.675,59.421 175.755,59.475 175.771,59.555C175.838,59.926 176.091,60.122 176.52,59.981C176.78,59.898 176.981,59.974 177.119,60.208C177.381,60.656 177.663,60.643 178.102,60.48C178.233,60.432 178.377,60.487 178.444,60.608C178.601,60.89 178.816,61.012 179.088,60.976C179.164,60.967 179.245,60.973 179.321,61.002C181.45,61.789 185.596,63.428 185.807,63.23C186.066,62.983 187.526,59.004 188.483,56.274C188.685,55.704 189.101,55.195 189.123,54.641C189.146,54.071 189.626,53.902 189.613,53.338C189.61,53.169 189.715,52.948 189.927,52.676C190.042,52.528 190.068,52.33 189.997,52.157L189.559,51.104C189.517,51.002 189.546,50.886 189.629,50.813C189.677,50.771 189.799,50.704 190,50.611C190.228,50.505 190.324,50.23 190.208,50.009L188.541,46.738C188.493,46.642 188.387,46.594 188.285,46.619C188.173,46.648 188.012,46.715 187.801,46.821C187.686,46.882 187.545,46.834 187.484,46.718L187.238,46.238C187.196,46.155 187.113,46.104 187.02,46.104C186.86,46.104 186.706,46.19 186.559,46.363C186.476,46.462 186.319,46.443 186.261,46.328L185.919,45.656C185.877,45.572 185.772,45.547 185.695,45.601C185.516,45.726 185.055,45.921 184.315,46.187C184.155,46.245 183.985,46.136 183.989,45.976C183.992,45.828 183.918,45.726 183.761,45.672C183.694,45.646 183.617,45.646 183.55,45.672C182.913,45.899 182.135,46.238 181.213,46.683C180.989,46.792 180.88,46.898 180.883,47.003C180.887,47.16 180.932,47.33 181.015,47.512C181.069,47.637 181.018,47.781 180.896,47.842L180.48,48.053C180.375,48.108 180.326,48.229 180.368,48.338L180.515,48.748C180.557,48.863 180.522,48.991 180.426,49.065C180.378,49.103 180.307,49.148 180.214,49.202C179.808,49.433 179.83,49.888 180.003,50.265C180.09,50.454 179.85,50.621 179.702,50.473Z" style="fill:white;fill-opacity:0.5;"/>
    <path d="M179.702,50.473L179.222,49.993C179.12,49.891 178.972,49.849 178.832,49.878L178.607,49.923C178.483,49.948 178.351,49.91 178.262,49.817L177.926,49.481C177.833,49.391 177.692,49.366 177.573,49.417C177.205,49.58 176.952,49.484 176.818,49.135C176.732,48.914 176.472,48.815 176.261,48.924L173.803,50.176C173.71,50.224 173.671,50.339 173.719,50.435L173.902,50.79C173.963,50.915 173.915,51.066 173.79,51.126C173.188,51.424 172.753,51.648 172.48,51.795C172.253,51.92 172.186,52.202 172.349,52.336C172.375,52.359 172.391,52.471 172.397,52.676C172.4,52.769 172.34,52.855 172.25,52.881C171.904,52.986 171.799,53.22 171.936,53.578C172.074,53.943 171.946,54.19 171.546,54.315C171.402,54.36 171.328,54.523 171.392,54.66L172.977,58.127C172.999,58.175 173.034,58.217 173.079,58.243C173.271,58.358 173.476,58.332 173.697,58.166C173.835,58.06 174.033,58.108 174.11,58.262L174.702,59.421C174.756,59.526 174.872,59.584 174.987,59.561L175.595,59.437C175.675,59.421 175.755,59.475 175.771,59.555C175.838,59.926 176.091,60.122 176.52,59.981C176.78,59.898 176.981,59.974 177.119,60.208C177.381,60.656 177.663,60.643 178.102,60.48C178.233,60.432 178.377,60.487 178.444,60.608C178.601,60.89 178.816,61.012 179.088,60.976C179.164,60.967 179.245,60.973 179.321,61.002C181.45,61.789 185.596,63.428 185.807,63.23C186.066,62.983 187.526,59.004 188.483,56.274C188.685,55.704 189.101,55.195 189.123,54.641C189.146,54.071 189.626,53.902 189.613,53.338C189.61,53.169 189.715,52.948 189.927,52.676C190.042,52.528 190.068,52.33 189.997,52.157L189.559,51.104C189.517,51.002 189.546,50.886 189.629,50.813C189.677,50.771 189.799,50.704 190,50.611C190.228,50.505 190.324,50.23 190.208,50.009L188.541,46.738C188.493,46.642 188.387,46.594 188.285,46.619C188.173,46.648 188.012,46.715 187.801,46.821C187.686,46.882 187.545,46.834 187.484,46.718L187.238,46.238C187.196,46.155 187.113,46.104 187.02,46.104C186.86,46.104 186.706,46.19 186.559,46.363C186.476,46.462 186.319,46.443 186.261,46.328L185.919,45.656C185.877,45.572 185.772,45.547 185.695,45.601C185.516,45.726 185.055,45.921 184.315,46.187C184.155,46.245 183.985,46.136 183.989,45.976C183.992,45.828 183.918,45.726 183.761,45.672C183.694,45.646 183.617,45.646 183.55,45.672C182.913,45.899 182.135,46.238 181.213,46.683C180.989,46.792 180.88,46.898 180.883,47.003C180.887,47.16 180.932,47.33 181.015,47.512C181.069,47.637 181.018,47.781 180.896,47.842L180.48,48.053C180.375,48.108 180.326,48.229 180.368,48.338L180.515,48.748C180.557,48.863 180.522,48.991 180.426,49.065C180.378,49.103 180.307,49.148 180.214,49.202C179.808,49.433 179.83,49.888 180.003,50.265C180.09,50.454 179.85,50.621 179.702,50.473Z" style="fill:white;fill-opacity:0.15;"/>
    <path d="M141.096,101.961L150.428,100.091C150.946,99.989 151.282,99.486 151.186,98.968C148.149,82.869 144.881,66.63 141.352,50.259C141.327,50.14 141.25,50.041 141.141,49.987L140.389,49.615C140.325,49.583 140.251,49.574 140.184,49.59L130.491,51.568C131.4,51.571 131.947,52.032 132.13,52.948C135.318,68.707 138.503,84.466 141.689,100.226C141.807,100.805 141.609,101.384 141.096,101.961Z" style="fill:white;fill-opacity:0.75;"/>
    <path d="M94.532,58.816L130.491,51.568C131.4,51.571 131.947,52.032 132.13,52.948C135.318,68.707 138.503,84.466 141.689,100.226C141.807,100.805 141.609,101.384 141.096,101.961C115.141,107.214 89.174,112.457 63.196,117.691C61.823,117.97 61.467,116.981 61.224,115.783C57.898,99.379 54.767,83.793 51.791,69.034C51.541,67.798 52.351,67.363 53.468,67.135C65.825,64.62 78.293,62.1 90.87,59.574L94.532,58.816ZM128.312,58.062C128.157,57.295 127.411,56.799 126.645,56.955L110.855,60.139C110.09,60.294 109.594,61.04 109.747,61.805L117.529,100.396C117.683,101.164 118.429,101.66 119.195,101.504L134.986,98.32C135.75,98.164 136.247,97.418 136.093,96.653L128.312,58.062ZM81.949,65.078C80.095,65.447 61.615,69.12 59.521,72.981C57.718,76.307 62.816,108.292 68.802,111.492C73.692,114.106 109.225,106.099 112.233,101.945C114.455,98.875 108.497,66.721 104.399,63.74C101.026,61.286 83.703,64.729 81.949,65.078Z" style="fill:white;fill-opacity:0.85;"/>
    <path d="M128.312,58.062C128.157,57.295 127.411,56.799 126.645,56.955L110.855,60.139C110.09,60.294 109.594,61.04 109.747,61.805L117.529,100.396C117.683,101.164 118.429,101.66 119.195,101.504L134.986,98.32C135.75,98.164 136.247,97.418 136.093,96.653L128.312,58.062ZM126.48,65.932C126.48,64.971 125.702,64.193 124.742,64.193C123.781,64.193 123.003,64.971 123.003,65.932C123.003,66.892 123.781,67.67 124.742,67.67C125.702,67.67 126.48,66.892 126.48,65.932ZM128.88,78.303C128.926,78.527 128.778,78.744 128.555,78.789L126.37,79.221C126.147,79.266 125.929,79.119 125.885,78.896L125.878,78.865C125.833,78.642 125.98,78.424 126.203,78.38L128.389,77.947C128.612,77.902 128.83,78.05 128.874,78.272L128.88,78.303ZM127.239,69.699C127.239,68.736 126.457,67.955 125.494,67.955C124.53,67.955 123.749,68.736 123.749,69.699C123.749,70.663 124.53,71.444 125.494,71.444C126.457,71.444 127.239,70.663 127.239,69.699ZM125.657,61.837C125.657,60.874 124.876,60.093 123.913,60.093C122.949,60.093 122.168,60.874 122.168,61.837C122.168,62.801 122.949,63.582 123.913,63.582C124.876,63.582 125.657,62.801 125.657,61.837ZM128.762,76.561C128.718,76.339 128.5,76.191 128.277,76.236L126.091,76.669C125.868,76.713 125.721,76.931 125.766,77.154L125.773,77.186C125.817,77.408 126.035,77.555 126.258,77.51L128.443,77.078C128.666,77.033 128.814,76.816 128.768,76.592L128.762,76.561ZM117.999,88.326C117.808,89.166 117.763,90.035 117.866,90.891C117.926,91.39 118.038,91.88 118.199,92.357C118.426,93.036 118.749,93.676 119.159,94.262C119.562,94.838 120.046,95.357 120.596,95.802C121.685,96.676 122.997,97.226 124.383,97.393C126.051,97.591 127.735,97.223 129.169,96.346C130.305,95.651 131.234,94.662 131.858,93.484C132.184,92.873 132.421,92.22 132.565,91.544C132.713,90.843 132.761,90.126 132.706,89.415C132.668,88.932 132.585,88.452 132.453,87.984C132.261,87.29 131.967,86.624 131.579,86.013C131.23,85.459 130.811,84.956 130.331,84.511C129.525,83.767 128.566,83.209 127.521,82.879C127.485,82.842 127.441,82.83 127.392,82.84C124.94,82.11 122.286,82.69 120.362,84.374C119.565,85.068 118.925,85.926 118.487,86.89C118.275,87.351 118.112,87.828 118,88.321C118,88.322 117.999,88.324 117.999,88.326ZM128.444,74.739C128.394,74.508 128.164,74.357 127.93,74.407L125.47,74.935C125.238,74.985 125.087,75.215 125.138,75.448L125.144,75.473C125.193,75.705 125.424,75.855 125.657,75.805L128.117,75.278C128.349,75.228 128.5,74.997 128.449,74.764L128.444,74.739ZM114.346,68.357L113.609,68.505C113.264,68.575 112.928,68.351 112.859,68.007C112.789,67.662 113.013,67.326 113.357,67.257L114.105,67.106C114.105,67.097 114.105,67.089 114.105,67.08C114.105,66.579 114.211,66.102 114.401,65.671L113.792,65.235C113.506,65.03 113.44,64.632 113.645,64.346C113.85,64.06 114.248,63.995 114.534,64.2L115.118,64.619C115.456,64.278 115.862,64.007 116.315,63.827L116.214,63.169C116.161,62.821 116.4,62.496 116.747,62.443C117.094,62.39 117.42,62.628 117.473,62.976L117.566,63.582C117.578,63.582 117.591,63.582 117.603,63.582C117.967,63.582 118.319,63.638 118.649,63.742L118.933,63.25C119.109,62.946 119.498,62.842 119.803,63.017C120.107,63.193 120.212,63.583 120.036,63.887L119.775,64.339C120.24,64.708 120.609,65.192 120.838,65.749L121.306,65.654C121.65,65.585 121.986,65.808 122.056,66.153C122.125,66.497 121.902,66.833 121.557,66.903L121.1,66.995C121.1,67.023 121.101,67.051 121.101,67.08C121.101,67.642 120.968,68.173 120.732,68.644L121.123,68.925C121.409,69.13 121.474,69.528 121.269,69.813C121.065,70.099 120.667,70.165 120.381,69.96L119.963,69.66C119.582,70.009 119.122,70.275 118.615,70.429L118.701,70.991C118.754,71.338 118.515,71.663 118.168,71.717C117.82,71.77 117.495,71.531 117.442,71.184L117.348,70.568C116.985,70.542 116.638,70.461 116.315,70.332L115.982,70.909C115.806,71.214 115.416,71.318 115.112,71.142C114.808,70.967 114.703,70.577 114.879,70.272L115.236,69.654C114.849,69.297 114.542,68.855 114.346,68.357ZM119.443,81.496C117.784,81.223 116.516,79.781 116.516,78.045C116.516,76.749 117.222,75.617 118.27,75.012L118.168,74.448C118.066,73.885 118.44,73.346 119.003,73.245C119.565,73.143 120.104,73.517 120.206,74.079L120.293,74.558C122.093,74.7 123.511,76.208 123.511,78.045C123.511,79.445 122.686,80.654 121.496,81.213L121.507,81.274C121.609,81.836 121.235,82.375 120.673,82.477C120.11,82.578 119.571,82.205 119.47,81.642L119.443,81.496Z" style="fill:white;fill-opacity:0.65;"/>
    <path d="M125.657,61.837C125.657,60.874 124.876,60.093 123.913,60.093C122.949,60.093 122.168,60.874 122.168,61.837C122.168,62.801 122.949,63.582 123.913,63.582C124.876,63.582 125.657,62.801 125.657,61.837Z" style="fill:white;fill-opacity:0.25;"/>
    <path d="M126.48,65.932C126.48,64.971 125.702,64.193 124.742,64.193C123.781,64.193 123.003,64.971 123.003,65.932C123.003,66.892 123.781,67.67 124.742,67.67C125.702,67.67 126.48,66.892 126.48,65.932Z" style="fill:white;fill-opacity:0.25;"/>
    <path d="M127.239,69.699C127.239,68.736 126.457,67.955 125.494,67.955C124.53,67.955 123.749,68.736 123.749,69.699C123.749,70.663 124.53,71.444 125.494,71.444C126.457,71.444 127.239,70.663 127.239,69.699Z" style="fill:white;fill-opacity:0.25;"/>
    <path d="M128.444,74.739C128.394,74.508 128.164,74.357 127.93,74.407L125.47,74.935C125.238,74.985 125.087,75.215 125.138,75.448L125.144,75.473C125.193,75.705 125.424,75.855 125.657,75.805L128.117,75.278C128.349,75.228 128.5,74.997 128.449,74.764L128.444,74.739Z" style="fill:white;fill-opacity:0.25;"/>
    <path d="M128.762,76.561C128.718,76.339 128.5,76.191 128.277,76.236L126.091,76.669C125.868,76.713 125.721,76.931 125.766,77.154L125.773,77.186C125.817,77.408 126.035,77.555 126.258,77.51L128.443,77.078C128.666,77.033 128.814,76.816 128.768,76.592L128.762,76.561Z" style="fill:white;fill-opacity:0.25;"/>
    <path d="M128.88,78.303C128.926,78.527 128.778,78.744 128.555,78.789L126.37,79.221C126.147,79.266 125.929,79.119 125.885,78.896L125.878,78.865C125.833,78.642 125.98,78.424 126.203,78.38L128.389,77.947C128.612,77.902 128.83,78.05 128.874,78.272L128.88,78.303Z" style="fill:white;fill-opacity:0.25;"/>
    <path d="M127.392,82.84C124.94,82.11 122.286,82.69 120.362,84.374C122.847,83.941 125.206,83.535 127.443,83.144C127.552,83.125 127.608,83.003 127.546,82.911C127.538,82.899 127.53,82.888 127.521,82.879C127.478,82.866 127.435,82.853 127.392,82.84Z" style="fill:white;fill-opacity:0.25;"/>
    <path d="M130.331,84.511C129.525,83.767 128.566,83.209 127.521,82.879C127.53,82.888 127.538,82.899 127.546,82.911C127.608,83.003 127.552,83.125 127.443,83.144C125.206,83.535 122.847,83.941 120.362,84.374C119.565,85.068 118.925,85.926 118.487,86.89L130.331,84.511Z" style="fill:white;fill-opacity:0.5;"/>
    <path d="M127.392,82.84C127.441,82.83 127.485,82.842 127.521,82.879C127.478,82.866 127.435,82.853 127.392,82.84Z" style="fill:white;"/>
    <path d="M131.579,86.013C131.23,85.459 130.811,84.956 130.331,84.511L118.487,86.89C118.275,87.351 118.112,87.828 118,88.321C118,88.322 117.999,88.324 117.999,88.326C117.971,88.448 117.975,88.542 118.01,88.609C118.064,88.714 118.147,88.753 118.263,88.73C122.665,87.87 127.101,86.96 131.579,86.013Z" style="fill:white;fill-opacity:0.25;"/>
    <path d="M117.999,88.326C117.808,89.166 117.763,90.035 117.866,90.891L132.453,87.984C132.261,87.29 131.967,86.624 131.579,86.013C127.101,86.96 122.665,87.87 118.263,88.73C118.147,88.753 118.064,88.714 118.01,88.609C117.975,88.542 117.971,88.448 117.999,88.326Z" style="fill:white;fill-opacity:0.5;"/>
    <path d="M117.866,90.891C117.926,91.39 118.038,91.88 118.199,92.357L132.706,89.415C132.668,88.932 132.585,88.452 132.453,87.984L117.866,90.891Z" style="fill:white;fill-opacity:0.25;"/>
    <path d="M118.199,92.357C118.426,93.036 118.749,93.676 119.159,94.262L132.565,91.544C132.713,90.843 132.761,90.126 132.706,89.415L118.199,92.357Z" style="fill:white;fill-opacity:0.5;"/>
    <path d="M119.159,94.262C119.562,94.838 120.046,95.357 120.596,95.802L131.858,93.484C132.184,92.873 132.421,92.22 132.565,91.544L119.159,94.262Z" style="fill:white;fill-opacity:0.25;"/>
    <path d="M120.596,95.802C121.685,96.676 122.997,97.226 124.383,97.393L124.329,97.3C124.268,97.22 124.306,97.105 124.402,97.079C125.919,96.663 127.504,96.41 129.169,96.346C130.305,95.651 131.234,94.662 131.858,93.484L120.596,95.802Z" style="fill:white;fill-opacity:0.5;"/>
    <path d="M124.383,97.393C126.051,97.591 127.735,97.223 129.169,96.346C127.504,96.41 125.919,96.663 124.402,97.079C124.306,97.105 124.268,97.22 124.329,97.3L124.383,97.393Z" style="fill:white;fill-opacity:0.25;"/>
    <path d="M193.794,157.51L198.663,153.976C198.855,153.839 198.951,153.608 198.916,153.378C198.916,153.378 193.621,119.983 193.614,119.778C193.584,118.879 193.109,118.365 192.206,118.2C192.19,118.197 192.171,118.194 192.155,118.197L138.647,126.347C138.542,126.363 138.439,126.408 138.353,126.472L134.412,129.455C135.811,129.219 137.207,128.994 138.593,128.783C153.529,126.508 169.718,124.045 187.161,121.388C188.381,121.203 189.088,121.709 189.29,122.906C191.089,133.742 192.749,144.955 194.261,156.047C194.276,156.16 194.261,156.278 194.223,156.383L193.794,157.51Z" style="fill:white;fill-opacity:0.5;"/>
    <path d="M134.412,129.455C133.522,129.945 133.161,130.745 133.33,131.856C134.629,140.399 136.234,151.105 138.164,163.97C138.302,164.905 138.87,165.505 139.87,165.747C139.966,165.77 140.069,165.776 140.168,165.76L147.527,164.642L146.445,157.177C146.429,157.081 146.432,156.985 146.452,156.889C146.787,155.233 147.934,155.208 149.605,154.953C158.417,153.605 168.873,152.019 180.973,150.183C182.343,149.975 183.274,150.088 183.809,151.345C183.835,151.406 183.854,151.467 183.864,151.531L185.035,158.877L193.794,157.51L194.223,156.383C194.261,156.278 194.276,156.16 194.261,156.047C192.749,144.955 191.089,133.742 189.29,122.906C189.088,121.709 188.381,121.203 187.161,121.388C169.718,124.045 153.529,126.508 138.593,128.783C137.207,128.994 135.811,129.219 134.412,129.455ZM161.795,130.493C148.837,132.461 141.689,133.562 140.35,133.796C138.904,134.049 138.296,134.939 138.529,136.466C139.407,142.227 140.197,147.728 141.045,152.945C141.063,153.058 141.167,153.135 141.279,153.118C151.462,151.621 159.26,150.397 164.695,149.571C170.131,148.746 177.935,147.555 188.108,146.002C188.221,145.983 188.295,145.88 188.278,145.768C187.514,140.539 186.666,135.048 185.788,129.286C185.554,127.756 184.712,127.086 183.256,127.275C181.908,127.451 174.753,128.524 161.795,130.493Z" style="fill:white;"/>
    <path d="M161.795,130.493C148.837,132.461 141.689,133.562 140.35,133.796C138.904,134.049 138.296,134.939 138.529,136.466C139.407,142.227 140.197,147.728 141.045,152.945C141.063,153.058 141.167,153.135 141.279,153.118C151.462,151.621 159.26,150.397 164.695,149.571C170.131,148.746 177.935,147.555 188.108,146.002C188.221,145.983 188.295,145.88 188.278,145.768C187.514,140.539 186.666,135.048 185.788,129.286C185.554,127.756 184.712,127.086 183.256,127.275C181.908,127.451 174.753,128.524 161.795,130.493ZM180.946,138.125C180.525,135.41 177.983,133.55 175.269,133.97L149.81,137.911C147.095,138.332 145.235,140.874 145.655,143.588L145.698,143.866C146.119,146.582 148.661,148.441 151.375,148.021L176.834,144.08C179.549,143.659 181.408,141.117 180.989,138.403L180.946,138.125Z" style="fill:white;fill-opacity:0.8;"/>
    <path d="M116.268,143.544C112.705,153.986 108.092,166.963 101.732,185.203C101.699,185.297 100.321,191.605 84.407,187.903C74.814,185.672 71.208,179.839 70.458,178.702L76.417,181.17C76.702,181.269 77,181.058 76.996,180.76C76.994,180.715 83.978,161.047 87.379,151.16C87.642,150.398 87.883,149.694 88.097,149.062C88.586,147.623 88.939,146.555 89.1,146.016C89.096,146.07 89.087,146.129 89.074,146.191L90.518,141.786C90.595,141.559 90.355,141.354 90.14,141.463L89.555,141.761C89.324,141.876 89.142,142.071 89.046,142.311L87.877,145.16C86.22,144.56 83.197,143.448 79.904,142.238C79.966,142.073 82.798,134.455 83.94,131.464C81.696,140.552 108.443,151.552 116.268,143.544Z" style="fill:white;fill-opacity:0.85;"/>
    <path d="M83.94,131.464C84.036,131.074 84.186,130.687 84.393,130.305L84.407,130.278C84.749,129.939 89.975,124.9 102.971,129.774C118.976,135.776 116.282,143.506 116.268,143.544C108.443,151.552 81.696,140.552 83.94,131.464ZM96.156,130.901C95.829,131.834 97.906,133.412 100.797,134.425C103.688,135.438 106.293,135.499 106.622,134.566C106.95,133.633 104.872,132.055 101.982,131.041C99.091,130.028 96.485,129.968 96.156,130.901ZM107.888,135.125C107.878,135.205 107.843,135.281 107.785,135.336C107.046,136.056 106.197,136.428 105.247,136.45C102.935,136.511 100.631,135.963 98.332,134.808C96.716,133.995 92.919,131.203 95.778,129.51C95.883,129.446 95.854,129.286 95.733,129.267C93.713,128.953 91.648,129.052 89.542,129.561C88.985,129.699 88.399,129.974 87.784,130.387C86.062,131.549 85.624,133.15 86.465,135.182C86.731,135.822 87.071,136.383 87.487,136.866C89.721,139.462 92.25,140.989 95.47,142.51C97.077,143.268 98.707,143.845 100.355,144.238C103.838,145.077 106.783,145.455 110.228,144.795C111.121,144.626 111.959,144.245 112.75,143.646C113.986,142.715 114.447,141.527 114.13,140.077C113.925,139.136 113.608,138.387 113.176,137.826C111.771,136.002 110.026,134.484 107.942,133.278C107.836,133.217 107.715,133.322 107.756,133.434C107.926,133.895 107.968,134.459 107.888,135.125Z" style="fill:white;fill-opacity:0.75;"/>
    <path d="M96.156,130.901C95.829,131.834 97.906,133.412 100.797,134.425C103.688,135.438 106.293,135.499 106.622,134.566C106.95,133.633 104.872,132.055 101.982,131.041C99.091,130.028 96.485,129.968 96.156,130.901Z" style="fill:white;fill-opacity:0.38;"/>
    <path d="M107.888,135.125C107.968,134.459 107.926,133.895 107.756,133.434C107.715,133.322 107.836,133.217 107.942,133.278C110.026,134.484 111.771,136.002 113.176,137.826C113.608,138.387 113.925,139.136 114.13,140.077C114.447,141.527 113.986,142.715 112.75,143.646C111.959,144.245 111.121,144.626 110.228,144.795C106.783,145.455 103.838,145.077 100.355,144.238C98.707,143.845 97.077,143.268 95.47,142.51C92.25,140.989 89.721,139.462 87.487,136.866C87.071,136.383 86.731,135.822 86.465,135.182C85.624,133.15 86.062,131.549 87.784,130.387C88.399,129.974 88.985,129.699 89.542,129.561C91.648,129.052 93.713,128.953 95.733,129.267C95.854,129.286 95.883,129.446 95.778,129.51C92.919,131.203 96.716,133.995 98.332,134.808C100.631,135.963 102.935,136.511 105.247,136.45C106.197,136.428 107.046,136.056 107.785,135.336C107.843,135.281 107.878,135.205 107.888,135.125ZM92.708,136.45L94.625,130.841C94.705,130.608 94.539,130.361 94.289,130.352C92.285,130.276 86.784,130.458 87.416,133.883C87.924,136.636 91.757,139.242 94.161,140.442C97.01,141.864 99.782,142.856 102.481,143.416C105.215,143.983 107.702,144.036 109.94,143.572C111.178,143.316 112.139,142.719 112.795,141.764C112.863,141.665 112.905,141.553 112.92,141.434C113.261,138.656 110.391,136.554 108.419,135.064C108.284,134.962 108.092,135.022 108.038,135.179L106.025,141.056C104.804,144.618 92.708,141.037 92.679,136.738C92.678,136.641 92.676,136.543 92.708,136.45Z" style="fill:white;fill-opacity:0.38;"/>
    <path d="M92.708,136.45L94.625,130.841C94.705,130.608 94.539,130.361 94.289,130.352C92.285,130.276 86.784,130.458 87.416,133.883C87.924,136.636 91.757,139.242 94.161,140.442C97.01,141.864 99.782,142.856 102.481,143.416C105.215,143.983 107.702,144.036 109.94,143.572C111.178,143.316 112.139,142.719 112.795,141.764C112.863,141.665 112.905,141.553 112.92,141.434C113.261,138.656 110.391,136.554 108.419,135.064C108.284,134.962 108.092,135.022 108.038,135.179L106.025,141.056C104.804,144.618 92.708,141.037 92.679,136.738C92.678,136.641 92.676,136.543 92.708,136.45Z" style="fill:white;fill-opacity:0.25;"/>
    <path d="M96.156,130.901C96.485,129.968 99.091,130.028 101.982,131.041C104.872,132.055 106.95,133.633 106.622,134.566C106.293,135.499 103.688,135.438 100.797,134.425C97.906,133.412 95.829,131.834 96.156,130.901Z" style="fill:white;fill-opacity:0.25;"/>
    <path d="M180.946,138.125C180.525,135.41 177.983,133.55 175.269,133.97L149.81,137.911C147.095,138.332 145.235,140.874 145.655,143.588L145.698,143.866C146.119,146.582 148.661,148.441 151.375,148.021L176.834,144.08C179.549,143.659 181.408,141.117 180.989,138.403L180.946,138.125ZM178.246,138.94C178.246,137.663 177.209,136.626 175.931,136.626C174.654,136.626 173.617,137.663 173.617,138.94C173.617,140.218 174.654,141.255 175.931,141.255C177.209,141.255 178.246,140.218 178.246,138.94ZM153.043,142.775C153.043,141.495 152.003,140.455 150.722,140.455C149.442,140.455 148.401,141.495 148.401,142.775C148.401,144.056 149.442,145.096 150.722,145.096C152.003,145.096 153.043,144.056 153.043,142.775ZM162.739,137.183C160.62,137.505 157.645,137.998 153.802,138.563C153.709,138.576 153.68,138.7 153.76,138.752C154.302,139.102 154.721,139.539 155.018,140.058C156.206,142.128 156.11,144.126 154.72,146.034C154.66,146.118 154.73,146.235 154.836,146.217C157.899,145.679 160.921,145.274 163.895,144.824C166.869,144.374 169.883,143.921 172.961,143.476C173.063,143.462 173.099,143.329 173.015,143.265C171.135,141.838 170.446,139.975 170.963,137.644C171.092,137.062 171.364,136.521 171.776,136.024C171.837,135.951 171.776,135.843 171.68,135.858C167.844,136.459 164.855,136.862 162.739,137.183Z" style="fill:white;fill-opacity:0.25;"/>
    <path d="M162.739,137.183C160.62,137.505 157.645,137.998 153.802,138.563C153.709,138.576 153.68,138.7 153.76,138.752C154.302,139.102 154.721,139.539 155.018,140.058C156.206,142.128 156.11,144.126 154.72,146.034C154.66,146.118 154.73,146.235 154.836,146.217C157.899,145.679 160.921,145.274 163.895,144.824C166.869,144.374 169.883,143.921 172.961,143.476C173.063,143.462 173.099,143.329 173.015,143.265C171.135,141.838 170.446,139.975 170.963,137.644C171.092,137.062 171.364,136.521 171.776,136.024C171.837,135.951 171.776,135.843 171.68,135.858C167.844,136.459 164.855,136.862 162.739,137.183Z" style="fill:white;fill-opacity:0.6;"/>
    <path d="M178.246,138.94C178.246,137.663 177.209,136.626 175.931,136.626C174.654,136.626 173.617,137.663 173.617,138.94C173.617,140.218 174.654,141.255 175.931,141.255C177.209,141.255 178.246,140.218 178.246,138.94Z" style="fill:white;fill-opacity:0.8;"/>
    <path d="M89.1,146.016C88.939,146.555 88.586,147.623 88.097,149.062L85.941,148.32C85.788,148.267 85.621,148.348 85.568,148.502L85.037,150.043C84.984,150.196 85.066,150.364 85.219,150.416L87.379,151.16C83.978,161.047 76.994,180.715 76.996,180.76C77,181.058 76.702,181.269 76.417,181.17L70.458,178.702C64.846,176.376 57.286,173.242 57.229,173.21C55.922,172.471 55.753,172.931 56.501,171.109C56.634,170.785 57.526,168.459 57.834,167.556C57.965,167.173 57.966,167.079 57.668,166.832L56.634,165.974C55.195,164.78 55.923,162.158 56.039,161.835C56.4,160.827 65.3,137.641 65.373,137.349C65.412,137.205 65.54,137.109 65.687,137.112C65.963,137.12 73.452,139.867 79.904,142.238C83.197,143.448 86.22,144.56 87.877,145.16C88.657,145.443 89.134,145.611 89.194,145.624C89.209,145.627 89.176,145.763 89.1,146.016ZM62.528,169.618C62.588,169.483 62.527,169.326 62.392,169.267L60.016,168.214C59.883,168.154 59.726,168.215 59.665,168.35L59.025,169.795C58.964,169.931 59.025,170.088 59.16,170.146L61.536,171.199C61.669,171.259 61.826,171.198 61.887,171.064L62.528,169.618ZM80.739,146.851C80.792,146.698 80.71,146.531 80.557,146.478L77.934,145.575C77.78,145.522 77.613,145.603 77.56,145.757L77.029,147.298C76.977,147.451 77.058,147.619 77.212,147.671L79.835,148.575C79.988,148.628 80.155,148.546 80.208,148.393L80.739,146.851ZM72.838,143.854C72.899,143.675 72.803,143.48 72.624,143.419L70.344,142.638C70.098,142.555 69.829,142.686 69.746,142.932L69.343,144.113C69.263,144.35 69.387,144.61 69.624,144.69L71.945,145.484C72.112,145.541 72.291,145.452 72.348,145.288L72.838,143.854ZM70.215,172.502C70.267,172.349 70.186,172.182 70.033,172.129L67.41,171.226C67.256,171.173 67.089,171.254 67.036,171.408L66.505,172.949C66.453,173.102 66.534,173.27 66.687,173.323L69.31,174.226C69.464,174.279 69.631,174.197 69.684,174.044L70.215,172.502ZM78.168,175.535C78.221,175.381 78.139,175.214 77.986,175.161L75.363,174.258C75.21,174.205 75.042,174.287 74.99,174.44L74.459,175.982C74.406,176.135 74.487,176.302 74.641,176.355L77.264,177.258C77.417,177.311 77.584,177.23 77.637,177.076L78.168,175.535ZM74.141,173.959C74.186,173.859 74.138,173.737 74.037,173.694L71.68,172.659C71.577,172.613 71.458,172.661 71.415,172.763L70.787,174.193C70.741,174.294 70.789,174.416 70.89,174.459L73.247,175.493C73.35,175.539 73.469,175.491 73.513,175.39L74.141,173.959ZM76.815,145.282C76.872,145.147 76.811,144.994 76.678,144.937L74.203,143.871C74.071,143.813 73.914,143.877 73.858,144.008L73.202,145.531C73.145,145.666 73.206,145.82 73.339,145.876L75.815,146.942C75.947,147.001 76.103,146.937 76.159,146.805L76.815,145.282ZM68.933,142.592C69.003,142.43 68.93,142.241 68.768,142.171L66.415,141.143C66.253,141.072 66.065,141.146 65.993,141.308L65.373,142.728C65.303,142.891 65.376,143.079 65.538,143.149L67.891,144.177C68.052,144.248 68.241,144.174 68.312,144.012L68.933,142.592ZM81.721,146.849L81.144,148.176C81.074,148.335 81.137,148.519 81.282,148.606L81.322,148.627L83.582,149.61C83.754,149.683 83.959,149.607 84.033,149.432L84.61,148.105C84.686,147.932 84.606,147.731 84.432,147.654L82.172,146.672C82,146.598 81.795,146.674 81.721,146.849ZM66.422,170.995C66.484,170.843 66.41,170.67 66.259,170.607L63.906,169.647C63.753,169.585 63.58,169.659 63.518,169.81L62.915,171.286C62.854,171.439 62.927,171.611 63.079,171.674L65.432,172.635C65.584,172.697 65.757,172.623 65.82,172.471L66.422,170.995Z" style="fill:white;fill-opacity:0.35;"/>
    <path d="M153.043,142.775C153.043,141.495 152.003,140.455 150.722,140.455C149.442,140.455 148.401,141.495 148.401,142.775C148.401,144.056 149.442,145.096 150.722,145.096C152.003,145.096 153.043,144.056 153.043,142.775Z" style="fill:white;fill-opacity:0.8;"/>
    <path d="M68.933,142.592C69.003,142.43 68.93,142.241 68.768,142.171L66.415,141.143C66.253,141.072 66.065,141.146 65.993,141.308L65.373,142.728C65.303,142.891 65.376,143.079 65.538,143.149L67.891,144.177C68.052,144.248 68.241,144.174 68.312,144.012L68.933,142.592Z" style="fill:white;fill-opacity:0.15;"/>
    <path d="M87.877,145.16L89.046,142.311C89.142,142.071 89.324,141.876 89.555,141.761L90.14,141.463C90.355,141.354 90.595,141.559 90.518,141.786L89.074,146.191C89.087,146.129 89.096,146.07 89.1,146.016C89.176,145.763 89.209,145.627 89.194,145.624C89.134,145.611 88.657,145.443 87.877,145.16Z" style="fill:white;fill-opacity:0.65;"/>
    <path d="M72.838,143.854C72.899,143.675 72.803,143.48 72.624,143.419L70.344,142.638C70.098,142.555 69.829,142.686 69.746,142.932L69.343,144.113C69.263,144.35 69.387,144.61 69.624,144.69L71.945,145.484C72.112,145.541 72.291,145.452 72.348,145.288L72.838,143.854Z" style="fill:white;fill-opacity:0.15;"/>
    <path d="M76.815,145.282C76.872,145.147 76.811,144.994 76.678,144.937L74.203,143.871C74.071,143.813 73.914,143.877 73.858,144.008L73.202,145.531C73.145,145.666 73.206,145.82 73.339,145.876L75.815,146.942C75.947,147.001 76.103,146.937 76.159,146.805L76.815,145.282Z" style="fill:white;fill-opacity:0.15;"/>
    <path d="M81.721,146.849C81.795,146.674 82,146.598 82.172,146.672L84.432,147.654C84.606,147.731 84.686,147.932 84.61,148.105L84.033,149.432C83.959,149.607 83.754,149.683 83.582,149.61L81.322,148.627L81.282,148.606C81.137,148.519 81.074,148.335 81.144,148.176L81.721,146.849Z" style="fill:white;fill-opacity:0.85;"/>
    <path d="M147.527,164.642L185.035,158.877L183.864,151.531C183.854,151.467 183.835,151.406 183.809,151.345C183.274,150.088 182.343,149.975 180.973,150.183C168.873,152.019 158.417,153.605 149.605,154.953C147.934,155.208 146.787,155.233 146.452,156.889C146.432,156.985 146.429,157.081 146.445,157.177L147.527,164.642Z" style="fill:white;fill-opacity:0.6;"/>
    <path d="M239.778,171.656C241.491,173.83 242.736,176.291 243.52,179.048C243.703,179.691 243.793,180.37 243.786,181.077C243.764,183.091 244.065,185.098 244.682,187.095C245.419,189.48 247.429,190.988 249.824,191.679C251.117,192.054 252.292,192.326 253.351,192.492C256.818,193.04 260.538,194.458 263.185,196.212C264.808,197.288 266.313,198.738 267.699,200.566C270.234,203.905 271.092,208.389 270.404,212.58C270.109,214.363 269.927,215.374 269.856,215.611C269.411,217.113 268.931,218.339 268.419,219.286C267.904,220.24 267.625,220.912 267.113,221.623C265.535,223.822 263.588,225.496 261.274,226.642C260.647,226.953 260.15,226.975 259.549,227.206C258.195,227.724 256.914,227.436 255.496,227.19C255.384,227.171 255.269,227.171 255.153,227.187C254.395,227.295 253.793,227.398 253.342,227.491C252.74,227.616 252.234,228.483 251.978,229.184C251.373,230.826 250.989,231.774 250.832,232.027C249.631,233.96 248.028,235.478 246.014,236.582C245.588,236.812 245.035,237.021 244.346,237.209C243.421,237.462 242.842,237.6 242.615,237.629C241.059,237.811 239.49,237.709 237.906,237.325C234.746,236.56 231.702,235.068 229.583,232.529C228.334,231.034 227.031,229.664 225.671,228.416C224.403,227.545 223.57,227.05 223.174,226.927C222.777,226.804 222.124,226.591 221.212,226.29L221.144,226.261L219.051,225.131C218.776,224.981 218.522,224.785 218.334,224.536C218.251,224.426 217.713,223.966 216.711,223.156C215.746,222.376 214.717,221.139 213.623,219.44C215.82,217.759 222.891,208.217 210.926,208.761C211.531,206.251 212.843,204.184 214.902,202.611C215.017,202.524 215.168,202.499 215.302,202.547C216.893,203.113 218.298,203.555 220.043,203.367C223.417,203.003 225.063,199.91 224.477,196.744C224.248,195.508 223.594,194.387 222.46,194.048C222.041,193.923 221.769,193.882 221.65,193.92C220.373,194.334 218.99,194.561 217.505,194.608C212.991,194.752 213.79,190.347 214.547,187.579C214.783,186.714 215.44,184.518 216.516,180.988C217.21,178.708 217.58,176.791 217.633,175.232C217.67,174.127 217.561,173.199 217.306,172.453C216.898,171.26 215.971,170.369 214.521,169.78C213.775,169.483 212.898,169.341 211.883,169.355C210.731,169.37 209.585,169.447 208.442,169.588C206.08,169.879 204.316,169.291 203.154,167.821C202.805,166.608 202.742,165.561 202.962,164.687C203.331,163.218 204.063,161.954 205.161,160.894C206.547,159.556 207.968,158.826 209.428,158.708C211.88,158.509 214.121,158.464 216.759,158.836C221.75,159.539 226.494,161.291 230.988,164.089C234.288,166.144 237.208,168.513 239.778,171.656Z" style="fill:white;fill-opacity:0.25;"/>
    <path d="M195.109,175.904C195.053,175.722 194.863,175.601 194.664,175.651L194.117,175.786C194.386,175.232 196.153,173.407 196.361,173.439L197.571,173.935L197.6,173.945C197.981,174.035 198.266,174.07 198.458,174.054C198.893,174.016 199.141,173.535 198.916,173.161C198.657,172.731 198.243,172.309 197.674,171.896C198.439,171.138 199.692,170.103 201.425,168.778C202.124,168.245 202.699,167.927 203.154,167.821C204.316,169.291 206.08,169.879 208.442,169.588C209.585,169.447 210.731,169.37 211.883,169.355C212.898,169.341 213.775,169.483 214.521,169.78C213.087,170.126 211.602,170.648 210.068,171.346C203.445,174.361 197.618,178.438 192.577,183.571C191.675,184.49 191.525,185.069 192.324,186.039C192.411,186.144 192.92,186.451 193.845,186.954C195.664,187.945 194.782,190.142 193.662,191.27C192.999,191.938 192.067,192.677 190.868,193.491C190.407,193.804 189.924,194.141 189.415,194.503C188.505,194.224 187.919,193.988 187.657,193.792C187.1,193.377 186.489,192.975 185.823,192.592C185.589,192.457 185.306,192.646 185.336,192.912C185.394,193.411 185.64,193.917 186.085,194.429C186.063,194.887 186.48,195.298 187.34,195.665C187.52,195.741 187.561,195.972 187.42,196.107C185.554,197.883 184.147,199.586 183.806,202.291C183.613,203.821 183.407,205.264 183.198,206.626C183.155,206.904 183.281,207.18 183.521,207.327C183.818,207.507 184.021,207.724 184.126,207.98C180.675,205.909 179.098,203.524 179.699,199.33C180.407,194.388 183.339,190.008 185.983,185.905C186.29,185.428 187.433,183.929 189.411,181.41C191.028,179.352 192.078,178.055 192.568,177.517L192.622,177.998C192.657,178.305 192.987,178.482 193.266,178.347C194.378,177.806 194.994,177.04 195.122,176.064C195.13,176.008 195.124,175.953 195.109,175.904Z" style="fill:white;fill-opacity:0.75;"/>
    <path d="M62.528,169.618C62.588,169.483 62.527,169.326 62.392,169.267L60.016,168.214C59.883,168.154 59.726,168.215 59.665,168.35L59.025,169.795C58.964,169.931 59.025,170.088 59.16,170.146L61.536,171.199C61.669,171.259 61.826,171.198 61.887,171.064L62.528,169.618Z" style="fill:white;fill-opacity:0.15;"/>
    <path d="M66.422,170.995C66.484,170.843 66.41,170.67 66.259,170.607L63.906,169.647C63.753,169.585 63.58,169.659 63.518,169.81L62.915,171.286C62.854,171.439 62.927,171.611 63.079,171.674L65.432,172.635C65.584,172.697 65.757,172.623 65.82,172.471L66.422,170.995Z" style="fill:white;fill-opacity:0.15;"/>
    <path d="M184.126,207.98C185.029,208.501 185.952,208.992 186.898,209.436C187.084,209.523 187.228,209.651 187.327,209.817L187.513,209.824C187.619,209.83 187.724,209.852 187.82,209.894C189.459,210.603 191.326,211.205 193.416,211.709C194.7,212.019 195.73,212.146 196.515,212.093C197.744,212.01 199.159,211.837 200.756,211.565C201.941,211.363 203.321,211.028 204.895,210.553C206.909,209.946 208.919,209.347 210.926,208.761C211.531,206.251 212.843,204.184 214.902,202.611C215.017,202.524 215.168,202.499 215.302,202.547C216.893,203.113 218.298,203.555 220.043,203.367C223.417,203.003 225.063,199.91 224.477,196.744C224.248,195.508 223.594,194.387 222.46,194.048C222.041,193.923 221.769,193.882 221.65,193.92C220.373,194.334 218.99,194.561 217.505,194.608C212.991,194.752 213.79,190.347 214.547,187.579C214.783,186.714 215.44,184.518 216.516,180.988C217.21,178.708 217.58,176.791 217.633,175.232C217.67,174.127 217.561,173.199 217.306,172.453C216.898,171.26 215.971,170.369 214.521,169.78C213.087,170.126 211.602,170.648 210.068,171.346C203.445,174.361 197.618,178.438 192.577,183.571C191.675,184.49 191.525,185.069 192.324,186.039C192.411,186.144 192.92,186.451 193.845,186.954C195.664,187.945 194.782,190.142 193.662,191.27C192.999,191.938 192.067,192.677 190.868,193.491C190.407,193.804 189.924,194.141 189.415,194.503C190.541,194.954 191.622,195.077 192.693,195.537C192.965,195.654 193.119,195.831 193.154,196.068C193.179,196.244 193.048,196.405 192.869,196.424C190.34,196.689 188.08,196.02 186.085,194.429C186.063,194.887 186.48,195.298 187.34,195.665C187.52,195.741 187.561,195.972 187.42,196.107C185.554,197.883 184.147,199.586 183.806,202.291C183.613,203.821 183.407,205.264 183.198,206.626C183.155,206.904 183.281,207.18 183.521,207.327C183.818,207.507 184.021,207.724 184.126,207.98ZM209.921,183.206C210.209,183.299 210.475,183.02 210.373,182.739C209.502,180.344 206.65,175.943 203.708,176.215C203.282,176.253 203.061,176.746 203.317,177.089C203.583,177.447 203.877,177.751 204.201,178.001C206.957,180.126 208.26,181 209.755,183.049C209.822,183.139 209.876,183.19 209.921,183.206ZM202.565,180.457C202.142,180.072 201.115,180.514 200.265,181.443C199.415,182.374 199.069,183.436 199.491,183.823C199.914,184.208 200.942,183.766 201.792,182.837C202.642,181.906 202.987,180.843 202.565,180.457Z" style="fill:white;fill-opacity:0.85;"/>
    <path d="M197.571,173.935L196.361,173.439C196.598,172.862 197.047,172.414 197.674,171.896C198.243,172.309 198.657,172.731 198.916,173.161C199.141,173.535 198.893,174.016 198.458,174.054C198.266,174.07 197.981,174.035 197.6,173.945L197.571,173.935Z" style="fill:white;fill-opacity:0.15;"/>
    <path d="M74.141,173.959C74.186,173.859 74.138,173.737 74.037,173.694L71.68,172.659C71.577,172.613 71.458,172.661 71.415,172.763L70.787,174.193C70.741,174.294 70.789,174.416 70.89,174.459L73.247,175.493C73.35,175.539 73.469,175.491 73.513,175.39L74.141,173.959Z" style="fill:white;fill-opacity:0.85;"/>
    <path d="M192.705,177.345C193.234,176.697 194.117,175.786 194.117,175.786L194.664,175.651C194.863,175.601 195.053,175.722 195.109,175.904C195.124,175.953 195.13,176.008 195.122,176.064C194.994,177.04 194.378,177.806 193.266,178.347C192.987,178.482 192.657,178.305 192.622,177.998L192.568,177.517C192.61,177.463 192.656,177.405 192.705,177.345Z" style="fill:white;fill-opacity:0.15;"/>
    <path d="M209.921,183.206C210.209,183.299 210.475,183.02 210.373,182.739C209.502,180.344 206.65,175.943 203.708,176.215C203.282,176.253 203.061,176.746 203.317,177.089C203.583,177.447 203.877,177.751 204.201,178.001C206.957,180.126 208.26,181 209.755,183.049C209.822,183.139 209.876,183.19 209.921,183.206Z" style="fill:white;fill-opacity:0.15;"/>
    <path d="M202.565,180.457C202.142,180.072 201.115,180.514 200.265,181.443C199.415,182.374 199.069,183.436 199.491,183.823C199.914,184.208 200.942,183.766 201.792,182.837C202.642,181.906 202.987,180.843 202.565,180.457Z" style="fill:white;fill-opacity:0.15;"/>
    <path d="M189.415,194.503C188.505,194.224 187.919,193.988 187.657,193.792C187.1,193.377 186.489,192.975 185.823,192.592C185.589,192.457 185.306,192.646 185.336,192.912C185.394,193.411 185.64,193.917 186.085,194.429C188.08,196.02 190.34,196.689 192.869,196.424C193.048,196.405 193.179,196.244 193.154,196.068C193.119,195.831 192.965,195.654 192.693,195.537C191.622,195.077 190.541,194.954 189.415,194.503Z" style="fill:white;fill-opacity:0.15;"/>
    <path d="M213.623,219.44C210.588,221.762 207.929,222.883 205.797,223.41L205.725,223.427C203.182,224.044 201.4,223.816 200.641,223.793C200.571,223.793 200.526,223.867 200.558,223.928C200.558,223.928 202.912,228.285 205.615,233.183C208.449,238.318 211.666,244.049 212.956,245.977C214.252,247.917 215.837,250.069 217.706,252.431C220.369,255.796 222.037,257.88 222.713,258.689C227.54,264.47 232.105,270.415 236.398,276.532C237.214,277.701 239.538,284.83 239.535,285.646L239.196,286.133L238.603,286.933C238.466,287.119 238.303,287.282 238.12,287.423L236.34,288.799C236.129,288.962 235.889,289.081 235.63,289.151C234.275,289.519 233.219,289.706 232.457,289.705C228.158,289.7 224.176,288.591 220.514,286.392C215.827,283.399 212.031,279.589 209.127,274.957C208.282,273.706 207.436,272.375 206.589,270.966C204.98,268.29 203.717,265.467 202.805,262.492C202.477,261.423 202.17,260.54 201.883,259.845L200.814,257.252C198.503,251.645 196.473,245.949 194.732,240.151C193.083,234.648 191.65,229.105 190.436,223.518C190.304,222.913 190.33,222.062 189.882,221.578C189.251,220.897 188.851,220.186 188.678,219.44C188.659,219.357 188.563,219.318 188.489,219.363C187.099,220.205 185.817,221.348 184.642,222.804C182.818,225.065 180.688,226.975 178.252,228.537C177.929,226.799 177.937,225.016 178.265,223.192C178.326,222.852 178.502,222.545 178.764,222.324L180.576,220.794C183.115,219.344 184.966,217.231 186.121,214.456C186.736,212.977 187.139,211.431 187.327,209.817L187.513,209.824C187.619,209.83 187.724,209.852 187.82,209.894C189.459,210.603 191.326,211.205 193.416,211.709C194.7,212.019 195.73,212.146 196.515,212.093C197.744,212.01 199.159,211.837 200.756,211.565C201.941,211.363 203.321,211.028 204.895,210.553C206.909,209.946 208.919,209.347 210.926,208.761C222.891,208.217 215.82,217.759 213.623,219.44Z" style="fill:white;fill-opacity:0.75;"/>
    <path d="M149.723,276.233L148.945,276.883C148.682,277.104 148.353,277.228 148.01,277.238C146.711,277.28 145.42,277.113 144.14,276.739C141.637,276.006 139.399,275.18 137.43,274.261C136.185,273.678 135.167,273.038 134.376,272.344C133.451,271.527 132.837,270.365 132.526,268.857C132.639,268.33 132.757,267.797 132.879,267.26C134.865,258.481 137.956,248.441 141.666,240.27C142.025,239.479 150.709,223.643 155.623,220.832C160.383,218.479 165.508,218.746 170.563,219.798C174.67,220.654 176.927,221.121 177.327,221.197L178.425,221.409C178.633,221.448 178.847,221.408 179.027,221.3C179.51,221.008 180.026,220.839 180.576,220.794L178.764,222.324C178.502,222.545 178.326,222.852 178.265,223.192C177.937,225.016 177.929,226.799 178.252,228.537C178.755,231.057 179.786,233.201 181.344,234.969C182.539,236.323 184.107,237.437 186.057,238.304C188.784,239.518 191.729,240.065 194.732,240.151C196.473,245.949 198.503,251.645 200.814,257.252L201.883,259.845C202.17,260.54 202.477,261.423 202.805,262.492C203.717,265.467 204.98,268.29 206.589,270.966C207.436,272.375 208.282,273.706 209.127,274.957L209.243,280.172C208.753,279.996 208.275,279.811 207.808,279.618C205.944,278.849 204.105,278.366 202.29,278.181C200.744,278.023 199.729,277.966 199.239,278.002C197.949,278.094 196.813,277.994 195.615,278.162C191.47,278.743 188.077,280.091 184.309,282.16C183.55,282.576 182.753,282.806 181.959,282.733C178.422,282.409 160.623,278.988 157.297,278.136C156.75,270.633 157.662,263.362 160.559,256.538C160.574,256.502 160.563,256.477 160.524,256.461C160.508,256.455 160.492,256.458 160.486,256.471L149.723,276.233Z" style="fill:white;fill-opacity:0.5;"/>
    <path d="M194.732,240.151C193.083,234.648 191.65,229.105 190.436,223.518C190.304,222.913 190.33,222.062 189.882,221.578C189.251,220.897 188.851,220.186 188.678,219.44C188.659,219.357 188.563,219.318 188.489,219.363C187.099,220.205 185.817,221.348 184.642,222.804C182.818,225.065 180.688,226.975 178.252,228.537C178.755,231.057 179.786,233.201 181.344,234.969C182.539,236.323 184.107,237.437 186.057,238.304C188.784,239.518 191.729,240.065 194.732,240.151Z" style="fill:white;fill-opacity:0.85;"/>
    <path d="M225.671,228.416L219.208,232.344C216.752,230.256 213.938,229.029 210.766,228.646C209.847,228.536 209.028,228.36 208.202,228.333C207.162,228.298 206.125,228.169 205.097,227.936L205.744,223.524C205.76,223.484 205.778,223.446 205.797,223.41C207.929,222.883 210.588,221.762 213.623,219.44C214.717,221.139 215.746,222.376 216.711,223.156C217.713,223.966 218.251,224.426 218.334,224.536C218.522,224.785 218.776,224.981 219.051,225.131L221.144,226.261L221.212,226.29C222.124,226.591 222.777,226.804 223.174,226.927C223.57,227.05 224.403,227.545 225.671,228.416Z" style="fill:white;fill-opacity:0.1;"/>
    <path d="M205.097,227.936C205.106,229.733 205.279,231.48 205.615,233.183C202.912,228.285 200.558,223.928 200.558,223.928C200.526,223.867 200.571,223.793 200.641,223.793C201.4,223.816 203.182,224.044 205.725,223.427C205.732,223.458 205.739,223.49 205.744,223.524L205.097,227.936Z" style="fill:white;fill-opacity:0.85;"/>
    <path d="M219.208,232.344C222.124,235.119 223.981,238.976 225.232,242.568C225.828,244.278 227.483,248.868 230.197,256.339C232.736,263.328 235.71,269.96 239.125,276.241C239.986,277.829 240.499,278.968 240.659,279.663C240.992,281.107 241.065,282.346 240.876,283.38C240.758,284.026 240.313,284.782 239.535,285.646C239.538,284.83 237.214,277.701 236.398,276.532C232.105,270.415 227.54,264.47 222.713,258.689C222.037,257.88 220.369,255.796 217.706,252.431C215.837,250.069 214.252,247.917 212.956,245.977C211.666,244.049 208.449,238.318 205.615,233.183C205.279,231.48 205.106,229.733 205.097,227.936C206.125,228.169 207.162,228.298 208.202,228.333C209.028,228.36 209.847,228.536 210.766,228.646C213.938,229.029 216.752,230.256 219.208,232.344Z" style="fill:white;fill-opacity:0.5;"/>
    <path d="M157.297,278.136C156.75,270.633 157.662,263.362 160.559,256.538C160.574,256.502 160.563,256.477 160.524,256.461C160.508,256.455 160.492,256.458 160.486,256.471L149.723,276.233C153.286,277.134 157.297,278.136 157.297,278.136Z" style="fill:white;fill-opacity:0.25;"/>
    <path d="M157.297,278.136C160.623,278.988 178.422,282.409 181.959,282.733C182.753,282.806 183.55,282.576 184.309,282.16C188.077,280.091 191.47,278.743 195.615,278.162C196.813,277.994 197.949,278.094 199.239,278.002C199.729,277.966 200.744,278.023 202.29,278.181C204.105,278.366 205.944,278.849 207.808,279.618C208.275,279.811 208.753,279.996 209.243,280.172C211.048,281.414 212.37,282.205 213.161,284.087C213.458,284.795 213.433,285.601 213.084,286.51C212.761,287.221 212.223,287.656 211.467,287.816C210.2,288.085 209.006,288.253 207.664,288.108C205.516,287.876 204.073,287.768 203.327,287.788C201.966,287.823 199.768,288.142 196.723,288.735C196.54,288.771 196.361,288.825 196.195,288.898C195.792,289.075 194.911,289.49 193.557,290.147C191.303,291.241 188.906,291.658 186.364,291.399L184.6,291.216C184.469,291.21 174.241,293.899 172.445,294.151C169.302,294.594 167.752,294.934 165.22,294.997C164.221,295.021 154.714,295.474 153.872,295.474C148.197,295.472 142.506,294.756 137.05,293.137C136.452,292.959 135.174,292.366 133.209,291.376C133.1,291.321 133.001,291.248 132.917,291.162C132.167,290.385 131.695,289.753 131.503,289.26C131.232,288.568 131.029,287.666 130.897,286.549C130.897,285.768 130.856,285.089 130.773,284.516C130.75,284.375 130.744,284.231 130.753,284.087C130.894,281.427 131.006,279.717 131.09,278.956C131.368,276.394 132.458,269.478 132.53,268.874C132.841,270.374 133.455,271.53 134.376,272.344C135.167,273.038 136.185,273.678 137.43,274.261C139.399,275.18 141.637,276.006 144.14,276.739C145.42,277.113 146.711,277.28 148.01,277.238C148.353,277.228 148.682,277.104 148.945,276.883L149.723,276.233C153.286,277.134 157.297,278.136 157.297,278.136ZM132.53,268.874C132.529,268.869 132.527,268.863 132.526,268.857C132.535,268.818 132.536,268.825 132.53,268.874Z" style="fill:white;fill-opacity:0.85;"/>
    <path d="M239.196,286.133C239.289,286.418 239.577,286.562 240.06,286.562L279.034,286.562C284.937,286.562 287.235,289.174 286.586,295.009C286.371,296.924 285.353,298.473 283.564,299.283C282.504,299.76 281.502,299.997 280.555,299.997C202.789,299.994 137.351,299.997 84.244,300C79.903,300 77.272,297.413 77.406,293.053C77.525,289.321 79.426,287.205 83.117,286.709C83.466,286.661 84.189,286.635 85.284,286.632C100.487,286.59 115.692,286.565 130.897,286.549C131.029,287.666 131.232,288.568 131.503,289.26C131.695,289.753 132.167,290.385 132.917,291.162C133.001,291.248 133.1,291.321 133.209,291.376C135.174,292.366 136.452,292.959 137.05,293.137C142.506,294.756 148.197,295.472 153.872,295.474C154.714,295.474 164.221,295.021 165.22,294.997C167.752,294.934 169.302,294.594 172.445,294.151C174.241,293.899 184.469,291.21 184.6,291.216L186.364,291.399C188.906,291.658 191.303,291.241 193.557,290.147C194.911,289.49 195.792,289.075 196.195,288.898C196.361,288.825 196.54,288.771 196.723,288.735C199.768,288.142 201.966,287.823 203.327,287.788C204.073,287.768 205.516,287.876 207.664,288.108C209.006,288.253 210.2,288.085 211.467,287.816C212.223,287.656 212.761,287.221 213.084,286.51C215.523,286.651 218.001,286.613 220.514,286.392C224.176,288.591 228.158,289.7 232.457,289.705C233.219,289.706 234.275,289.519 235.63,289.151C235.889,289.081 236.129,288.962 236.34,288.799L238.12,287.423C238.303,287.282 238.466,287.119 238.603,286.933L239.196,286.133Z" style="fill:white;fill-opacity:0.25;"/>
    <path d="M78.611,145.808L80.557,146.478C80.71,146.531 80.792,146.698 80.739,146.851L80.208,148.393C80.155,148.546 79.988,148.628 79.835,148.575L77.861,147.895L78.611,145.808Z" style="fill:white;fill-opacity:0.85;"/>
    <path d="M77.861,147.895L77.212,147.671C77.058,147.619 76.977,147.451 77.029,147.298L77.56,145.757C77.613,145.603 77.78,145.522 77.934,145.575L78.611,145.808L77.861,147.895Z" style="fill:white;fill-opacity:0.15;"/>
    <path d="M86.722,148.588L88.097,149.062C87.883,149.694 87.642,150.398 87.379,151.16L85.972,150.676L86.722,148.588Z" style="fill:white;fill-opacity:0.65;"/>
    <path d="M85.972,150.676L85.219,150.416C85.066,150.364 84.984,150.196 85.037,150.043L85.568,148.502C85.621,148.348 85.788,148.267 85.941,148.32L86.722,148.588L85.972,150.676Z" style="fill:white;fill-opacity:0.85;"/>
    <path d="M69.091,171.805L70.033,172.129C70.186,172.182 70.267,172.349 70.215,172.502L69.684,174.044C69.631,174.197 69.464,174.279 69.31,174.226L68.34,173.892L69.091,171.805Z" style="fill:white;fill-opacity:0.85;"/>
    <path d="M68.34,173.892L66.687,173.323C66.534,173.27 66.453,173.102 66.505,172.949L67.036,171.408C67.089,171.254 67.256,171.173 67.41,171.226L69.091,171.805L68.34,173.892Z" style="fill:white;fill-opacity:0.15;"/>
    <path d="M77.053,174.84L77.986,175.161C78.139,175.214 78.221,175.381 78.168,175.535L77.637,177.076C77.584,177.23 77.417,177.311 77.264,177.258L76.288,176.922L77.053,174.84Z" style="fill:white;fill-opacity:0.65;"/>
    <path d="M76.288,176.922L74.641,176.355C74.487,176.302 74.406,176.135 74.459,175.982L74.99,174.44C75.042,174.287 75.21,174.205 75.363,174.258L77.053,174.84L76.288,176.922Z" style="fill:white;fill-opacity:0.85;"/>
    <path d="M81.949,65.078C83.703,64.729 101.026,61.286 104.399,63.74C108.497,66.721 114.455,98.875 112.233,101.945C109.225,106.099 73.692,114.106 68.802,111.492C62.816,108.292 57.718,76.307 59.521,72.981C61.615,69.12 80.095,65.447 81.949,65.078ZM66.664,105.682C62.551,96.424 59.694,76.351 61.063,73.825C63.035,70.189 80.436,66.73 82.182,66.384C83.283,66.165 90.908,64.649 96.806,64.35C99.75,64.2 102.263,64.354 103.321,65.123C104.615,66.065 106.108,70.101 107.44,75.157C110.077,85.167 112.088,99.177 110.697,101.098C108.171,104.586 81.285,110.96 72.233,110.552C71.136,110.502 70.3,110.353 69.802,110.087C68.711,109.504 67.651,107.904 66.664,105.682Z" style="fill:white;fill-opacity:0.5;"/>
    <path d="M107.44,75.157C110.077,85.167 112.088,99.177 110.697,101.098C108.171,104.586 81.285,110.96 72.233,110.552L107.44,75.157Z" style="fill:white;fill-opacity:0.25;"/>
    <path d="M96.806,64.35C99.75,64.2 102.263,64.354 103.321,65.123C104.615,66.065 106.108,70.101 107.44,75.157L72.233,110.552C71.136,110.502 70.3,110.353 69.802,110.087C68.711,109.504 67.651,107.904 66.664,105.682L96.806,64.35Z" style="fill:white;fill-opacity:0.35;"/>
    <path d="M66.664,105.682C62.551,96.424 59.694,76.351 61.063,73.825C63.035,70.189 80.436,66.73 82.182,66.384C83.283,66.165 90.908,64.649 96.806,64.35L66.664,105.682Z" style="fill:white;fill-opacity:0.25;"/>
    <path d="M188.314,76.874C189.23,76.545 190.261,76.969 190.672,77.87L190.934,78.446L190,78.884L189.561,77.92C189.316,77.381 188.847,77.012 188.314,76.874Z" style="fill:white;fill-opacity:0.15;"/>
    <path d="M192.233,78.317C193.14,77.99 194.164,78.403 194.581,79.294L196.185,82.716C196.627,83.66 196.22,84.786 195.275,85.228L194.242,85.713L194.715,86.751C195.147,87.7 194.727,88.822 193.778,89.254L190.338,90.82C189.929,91.006 189.487,91.034 189.083,90.929C189.132,90.911 189.18,90.892 189.228,90.87L192.668,89.304C193.617,88.872 194.036,87.751 193.604,86.802L193.132,85.763L194.165,85.279C195.109,84.836 195.517,83.711 195.074,82.766L193.471,79.344C193.223,78.814 192.759,78.453 192.233,78.317Z" style="fill:white;fill-opacity:0.15;"/>
    <path d="M186.463,89.357L186.439,89.368C186.024,89.562 185.576,89.593 185.165,89.486C185.22,89.467 185.274,89.444 185.328,89.419L186.287,88.97L186.463,89.357Z" style="fill:white;"/>
    <path d="M185.165,89.486C184.257,89.813 183.233,89.4 182.816,88.509L181.213,85.087C180.77,84.143 181.178,83.017 182.122,82.575L183.155,82.09L182.683,81.052C182.251,80.103 182.67,78.981 183.619,78.549L187.059,76.983C187.468,76.797 187.91,76.769 188.314,76.874C188.847,77.012 189.316,77.381 189.561,77.92L190,78.884L190.959,78.435C191.373,78.241 191.822,78.21 192.233,78.317C192.759,78.453 193.223,78.814 193.471,79.344L195.074,82.766C195.517,83.711 195.109,84.836 194.165,85.279L193.132,85.763L193.604,86.802C194.036,87.751 193.617,88.872 192.668,89.304L189.228,90.87C189.18,90.892 189.132,90.911 189.083,90.929C188.167,91.258 187.136,90.834 186.726,89.933L186.287,88.97L185.328,89.419C185.274,89.444 185.22,89.467 185.165,89.486Z" style="fill:white;fill-opacity:0.5;"/>
    <path d="M202.131,79.267C202.204,79.26 202.278,79.257 202.353,79.257C203.628,79.257 204.663,80.292 204.663,81.567C204.663,82.841 203.628,83.876 202.353,83.876C202.278,83.876 202.204,83.873 202.131,83.866C203.303,83.754 204.22,82.767 204.22,81.567C204.22,80.366 203.303,79.379 202.131,79.267Z" style="fill:white;fill-opacity:0.15;"/>
    <path d="M202.131,83.866C202.059,83.873 201.985,83.876 201.91,83.876C200.635,83.876 199.6,82.841 199.6,81.567C199.6,80.292 200.635,79.257 201.91,79.257C201.985,79.257 202.059,79.26 202.131,79.267C203.303,79.379 204.22,80.366 204.22,81.567C204.22,82.767 203.303,83.754 202.131,83.866Z" style="fill:white;fill-opacity:0.5;"/>
    <path d="M199.162,75.201C199.235,75.194 199.309,75.19 199.384,75.19C200.658,75.19 201.693,76.225 201.693,77.5C201.693,78.775 200.658,79.81 199.384,79.81C199.309,79.81 199.235,79.806 199.162,79.799C200.333,79.688 201.251,78.7 201.251,77.5C201.251,76.3 200.333,75.312 199.162,75.201Z" style="fill:white;fill-opacity:0.15;"/>
    <path d="M199.162,79.799C199.089,79.806 199.016,79.81 198.941,79.81C197.666,79.81 196.631,78.775 196.631,77.5C196.631,76.225 197.666,75.19 198.941,75.19C199.016,75.19 199.089,75.194 199.162,75.201C200.333,75.312 201.251,76.3 201.251,77.5C201.251,78.7 200.333,79.688 199.162,79.799Z" style="fill:white;fill-opacity:0.5;"/>
    <path d="M205.219,75.201C205.292,75.194 205.366,75.19 205.441,75.19C206.715,75.19 207.75,76.225 207.75,77.5C207.75,78.775 206.715,79.81 205.441,79.81C205.366,79.81 205.292,79.806 205.219,79.799C206.39,79.688 207.308,78.7 207.308,77.5C207.308,76.3 206.39,75.312 205.219,75.201Z" style="fill:white;fill-opacity:0.15;"/>
    <path d="M205.219,79.799C205.146,79.806 205.073,79.81 204.998,79.81C203.723,79.81 202.688,78.775 202.688,77.5C202.688,76.225 203.723,75.19 204.998,75.19C205.073,75.19 205.146,75.194 205.219,75.201C206.39,75.312 207.308,76.3 207.308,77.5C207.308,78.7 206.39,79.688 205.219,79.799Z" style="fill:white;fill-opacity:0.5;"/>
    <path d="M202.158,70.837C202.231,70.83 202.305,70.826 202.379,70.826C203.654,70.826 204.689,71.861 204.689,73.136C204.689,74.411 203.654,75.446 202.379,75.446C202.305,75.446 202.231,75.442 202.158,75.435C203.329,75.323 204.246,74.336 204.246,73.136C204.246,71.936 203.329,70.948 202.158,70.837Z" style="fill:white;fill-opacity:0.15;"/>
    <path d="M202.158,75.435C202.085,75.442 202.011,75.446 201.937,75.446C200.662,75.446 199.627,74.411 199.627,73.136C199.627,71.861 200.662,70.826 201.937,70.826C202.011,70.826 202.085,70.83 202.158,70.837C203.329,70.948 204.246,71.936 204.246,73.136C204.246,74.336 203.329,75.323 202.158,75.435Z" style="fill:white;fill-opacity:0.5;"/>
    <path d="M119.443,81.496C117.784,81.223 116.516,79.781 116.516,78.045C116.516,76.749 117.222,75.617 118.27,75.012L119.443,81.496Z" style="fill:white;fill-opacity:0.24;"/>
    <path d="M120.293,74.558C122.093,74.7 123.511,76.208 123.511,78.045C123.511,79.445 122.686,80.654 121.496,81.213L120.293,74.558Z" style="fill:white;fill-opacity:0.24;"/>
    <path d="M120.838,65.749L114.105,67.106L114.105,67.08C114.105,66.579 114.211,66.102 114.401,65.671C114.575,65.277 114.819,64.921 115.118,64.619C115.456,64.278 115.862,64.007 116.315,63.827C116.703,63.673 117.125,63.587 117.566,63.582L117.603,63.582C117.967,63.582 118.319,63.638 118.649,63.742C119.063,63.871 119.443,64.076 119.775,64.339C120.24,64.708 120.609,65.192 120.838,65.749Z" style="fill:white;fill-opacity:0.24;"/>
    <path d="M115.236,69.654C114.849,69.297 114.542,68.855 114.346,68.357L121.1,66.995L121.101,67.08C121.101,67.642 120.968,68.173 120.732,68.644C120.539,69.029 120.277,69.373 119.963,69.66C119.582,70.009 119.122,70.275 118.615,70.429C118.294,70.525 117.955,70.577 117.603,70.577C117.517,70.577 117.432,70.574 117.348,70.568C116.985,70.542 116.638,70.461 116.315,70.332C115.913,70.173 115.548,69.941 115.236,69.654Z" style="fill:white;fill-opacity:0.24;"/>
    <path d="M119.47,81.642L118.168,74.448C118.066,73.885 118.44,73.346 119.003,73.245C119.565,73.143 120.104,73.517 120.206,74.079L121.507,81.274C121.609,81.836 121.235,82.375 120.673,82.477C120.11,82.578 119.571,82.205 119.47,81.642Z" style="fill:white;fill-opacity:0.46;"/>
    <path d="M116.315,63.827L116.214,63.169C116.161,62.821 116.4,62.496 116.747,62.443C117.094,62.39 117.42,62.628 117.473,62.976L117.566,63.582C117.125,63.587 116.703,63.673 116.315,63.827Z" style="fill:white;fill-opacity:0.46;"/>
    <path d="M118.615,70.429L118.701,70.991C118.754,71.338 118.515,71.663 118.168,71.717C117.82,71.77 117.495,71.531 117.442,71.184L117.348,70.568C117.432,70.574 117.517,70.577 117.603,70.577C117.955,70.577 118.294,70.525 118.615,70.429Z" style="fill:white;fill-opacity:0.46;"/>
    <path d="M118.649,63.742L118.933,63.25C119.109,62.946 119.498,62.842 119.803,63.017C120.107,63.193 120.212,63.583 120.036,63.887L119.775,64.339C119.443,64.076 119.063,63.871 118.649,63.742Z" style="fill:white;fill-opacity:0.46;"/>
    <path d="M116.315,70.332L115.982,70.909C115.806,71.214 115.416,71.318 115.112,71.142C114.808,70.967 114.703,70.577 114.879,70.272L115.236,69.654C115.548,69.941 115.913,70.173 116.315,70.332Z" style="fill:white;fill-opacity:0.46;"/>
    <path d="M120.732,68.644L121.123,68.925C121.409,69.13 121.474,69.528 121.269,69.813C121.065,70.099 120.667,70.165 120.381,69.96L119.963,69.66C120.277,69.373 120.539,69.029 120.732,68.644Z" style="fill:white;fill-opacity:0.46;"/>
    <path d="M114.401,65.671L113.792,65.235C113.506,65.03 113.44,64.632 113.645,64.346C113.85,64.06 114.248,63.995 114.534,64.2L115.118,64.619C114.819,64.921 114.575,65.277 114.401,65.671Z" style="fill:white;fill-opacity:0.46;"/>
    <path d="M121.557,66.903L113.609,68.505C113.264,68.575 112.928,68.351 112.859,68.007C112.789,67.662 113.013,67.326 113.357,67.257L121.306,65.654C121.65,65.585 121.986,65.808 122.056,66.153C122.125,66.497 121.902,66.833 121.557,66.903Z" style="fill:white;fill-opacity:0.46;"/>
</svg>
