<?xml version="1.0" encoding="UTF-8" standalone="no"?>
<!DOCTYPE svg PUBLIC "-//W3C//DTD SVG 1.1//EN" "http://www.w3.org/Graphics/SVG/1.1/DTD/svg11.dtd">
<svg width="100%" height="100%" viewBox="0 0 300 300" version="1.1" xmlns="http://www.w3.org/2000/svg" xmlns:xlink="http://www.w3.org/1999/xlink" xml:space="preserve" xmlns:serif="http://www.serif.com/" style="fill-rule:evenodd;clip-rule:evenodd;stroke-linejoin:round;stroke-miterlimit:2;">
    <path d="M139.544,88.628C143.929,88.449 149.541,87.488 151.896,87.207C152.478,87.136 153,86.862 153.459,86.387C153.764,86.071 153.847,85.596 153.669,85.192C152.596,82.798 151.136,80.534 149.284,78.405C136.219,63.405 114.079,58.869 95.296,62.847C94.259,63.064 92.094,63.741 88.805,64.869C87.879,65.19 87.158,65.684 86.296,66.021C85.009,66.527 83.197,66.246 83.873,64.295C83.917,64.165 84,64.054 84.111,63.971C84.958,63.341 85.654,62.613 86.442,62.146C87.978,61.236 89.311,60.377 90.447,59.57C91.65,58.711 93.091,57.895 94.773,57.116C97.096,56.043 98.628,55.355 99.368,55.054C105.063,52.734 110.608,51.195 115.995,50.435C137.367,47.415 156.538,58.98 169.548,75.06C169.611,75.136 169.686,75.203 169.773,75.254C170.284,75.551 170.786,75.61 171.281,75.44C171.412,75.393 171.522,75.314 171.606,75.207C171.891,74.847 172.255,74.332 172.694,73.663C173.197,72.899 175.314,69.508 179.038,63.484C179.208,63.211 179.474,62.914 179.834,62.593C180.586,61.92 181.674,62.581 181.868,63.373C181.88,63.424 181.888,63.472 181.888,63.523L182.177,88.331C182.224,95.625 182.264,102.895 182.272,110.142C182.273,111.571 182.221,113.245 180.131,112.283C164.74,105.204 150.092,98.479 136.172,92.13C135.511,91.829 134.904,90.954 135.487,90.238C135.823,89.826 136.128,89.586 136.405,89.514C137.442,89.246 138.487,88.948 139.544,88.628Z" style="fill:white;fill-opacity:0.95;"/>
    <path d="M21.59,220.184C11.865,220.133 5.529,220.129 2.581,220.172C0.372,220.204 -0.004,219.017 0,216.986L0,90.848C0,89.886 0.329,89.186 0.986,88.746C1.417,88.457 2.197,88.315 3.321,88.315C16.183,88.311 60.724,88.319 136.943,88.335C137.83,88.335 138.697,88.434 139.544,88.628C138.487,88.948 137.442,89.246 136.405,89.514C136.128,89.586 135.823,89.826 135.487,90.238C134.904,90.954 135.511,91.829 136.172,92.13C150.092,98.479 164.74,105.204 180.131,112.283C182.221,113.245 182.273,111.571 182.272,110.142C182.264,102.895 182.224,95.625 182.177,88.331L276.404,88.327C276.495,88.327 276.586,88.343 276.673,88.37C277.48,88.639 278.042,89.134 278.363,89.858C278.414,89.973 278.438,90.1 278.438,90.227L278.446,118.149C278.442,151.366 278.446,184.647 278.45,217.992C278.45,219.017 277.975,219.714 277.021,220.081C276.918,220.121 276.811,220.141 276.701,220.141L21.59,220.184ZM252.42,130.299C252.42,128.213 250.73,126.523 248.644,126.523L101.81,126.523C99.724,126.523 98.034,128.213 98.034,130.299L98.034,182.035C98.034,184.121 99.724,185.811 101.81,185.811L248.644,185.811C250.73,185.811 252.42,184.121 252.42,182.035L252.42,130.299ZM87.384,182.637C87.384,181.37 86.355,180.341 85.088,180.341L17.022,180.341C15.756,180.341 14.727,181.37 14.727,182.637L14.727,182.763C14.727,184.03 15.756,185.059 17.022,185.059L85.088,185.059C86.355,185.059 87.384,184.03 87.384,182.763L87.384,182.637ZM27.859,177.682C34.868,177.682 38.58,177.676 39.004,177.674C39.119,177.673 39.205,177.575 39.19,177.464C38.384,171.548 34.009,167.067 27.859,167.067C21.708,167.067 17.336,171.548 16.532,177.464C16.517,177.575 16.603,177.677 16.718,177.678C17.137,177.68 20.854,177.682 27.859,177.682ZM74.22,177.686C81.237,177.69 84.954,177.69 85.377,177.686C85.492,177.686 85.579,177.583 85.563,177.472C84.799,171.543 80.387,167.063 74.228,167.059C68.07,167.055 63.653,171.535 62.881,177.46C62.865,177.571 62.953,177.674 63.067,177.674C63.491,177.678 67.207,177.682 74.22,177.686ZM57.865,135.93C57.776,131.692 54.222,128.328 49.925,128.417C45.629,128.506 42.218,132.017 42.306,136.256C42.396,140.494 45.95,143.858 50.247,143.77C54.542,143.68 57.954,140.17 57.865,135.93ZM50.458,155.609C57.479,155.609 61.195,155.605 61.619,155.601C61.734,155.601 61.821,155.498 61.805,155.387C61.037,149.459 56.616,144.979 50.454,144.979C44.296,144.982 39.879,149.467 39.115,155.395C39.099,155.506 39.186,155.609 39.301,155.609C39.72,155.613 43.441,155.613 50.458,155.609ZM19.702,158.137C19.678,162.381 23.145,165.836 27.443,165.86C31.741,165.884 35.24,162.46 35.264,158.218C35.288,153.975 31.821,150.519 27.523,150.496C23.224,150.472 19.726,153.895 19.702,158.137ZM81.562,158.178C81.562,153.907 78.103,150.448 73.832,150.448C69.562,150.448 66.103,153.907 66.103,158.178C66.103,162.448 69.562,165.907 73.832,165.907C78.103,165.907 81.562,162.448 81.562,158.178Z" style="fill:white;fill-opacity:0.5;"/>
    <path d="M278.446,118.149L298.603,118.18C298.682,118.18 298.761,118.212 298.817,118.271L299.929,119.38C299.976,119.427 300,119.486 300,119.554C299.996,127.798 299.996,170.57 299.992,247.873C299.992,248.985 299.549,249.701 298.666,250.022C298.631,250.038 298.591,250.046 298.547,250.046L23.129,250.046C22.892,250.046 22.666,249.951 22.5,249.785L21.807,249.088C21.641,248.926 21.55,248.704 21.55,248.471L21.59,220.184L276.701,220.141C276.811,220.141 276.918,220.121 277.021,220.081C277.975,219.714 278.45,219.017 278.45,217.992C278.446,184.647 278.442,151.366 278.446,118.149Z" style="fill:white;fill-opacity:0.25;"/>
    <path d="M252.42,130.299C252.42,128.213 250.73,126.523 248.644,126.523L101.81,126.523C99.724,126.523 98.034,128.213 98.034,130.299L98.034,182.035C98.034,184.121 99.724,185.811 101.81,185.811L248.644,185.811C250.73,185.811 252.42,184.121 252.42,182.035L252.42,130.299ZM190.805,150.06C190.805,148.798 189.784,147.777 188.521,147.777L106.088,147.777C104.826,147.777 103.805,148.798 103.805,150.06L103.805,150.1C103.805,151.362 104.826,152.384 106.088,152.384L188.521,152.384C189.784,152.384 190.805,151.362 190.805,150.1L190.805,150.06ZM142.294,138.737C142.294,137.482 141.277,136.465 140.022,136.465L106.08,136.465C104.826,136.465 103.809,137.482 103.809,138.737L103.809,138.8C103.809,140.055 104.826,141.072 106.08,141.072L140.022,141.072C141.277,141.072 142.294,140.055 142.294,138.8L142.294,138.737Z" style="fill:white;fill-opacity:0.95;"/>
    <path d="M57.865,135.93C57.776,131.692 54.222,128.328 49.925,128.417C45.629,128.506 42.218,132.017 42.306,136.256C42.396,140.494 45.95,143.858 50.247,143.77C54.542,143.68 57.954,140.17 57.865,135.93Z" style="fill:white;fill-opacity:0.95;"/>
    <path d="M142.294,138.737C142.294,137.482 141.277,136.465 140.022,136.465L106.08,136.465C104.826,136.465 103.809,137.482 103.809,138.737L103.809,138.8C103.809,140.055 104.826,141.072 106.08,141.072L140.022,141.072C141.277,141.072 142.294,140.055 142.294,138.8L142.294,138.737Z" style="fill:white;fill-opacity:0.15;"/>
    <path d="M50.458,155.609C57.479,155.609 61.195,155.605 61.619,155.601C61.734,155.601 61.821,155.498 61.805,155.387C61.037,149.459 56.616,144.979 50.454,144.979C44.296,144.982 39.879,149.467 39.115,155.395C39.099,155.506 39.186,155.609 39.301,155.609C39.72,155.613 43.441,155.613 50.458,155.609Z" style="fill:white;fill-opacity:0.95;"/>
    <path d="M190.805,150.06C190.805,148.798 189.784,147.777 188.521,147.777L106.088,147.777C104.826,147.777 103.805,148.798 103.805,150.06L103.805,150.1C103.805,151.362 104.826,152.384 106.088,152.384L188.521,152.384C189.784,152.384 190.805,151.362 190.805,150.1L190.805,150.06Z" style="fill:white;fill-opacity:0.15;"/>
    <path d="M19.702,158.137C19.678,162.381 23.145,165.836 27.443,165.86C31.741,165.884 35.24,162.46 35.264,158.218C35.288,153.975 31.821,150.519 27.523,150.496C23.224,150.472 19.726,153.895 19.702,158.137Z" style="fill:white;fill-opacity:0.95;"/>
    <path d="M81.562,158.178C81.562,153.907 78.103,150.448 73.832,150.448C69.562,150.448 66.103,153.907 66.103,158.178C66.103,162.448 69.562,165.907 73.832,165.907C78.103,165.907 81.562,162.448 81.562,158.178Z" style="fill:white;fill-opacity:0.95;"/>
    <path d="M27.859,177.682C34.868,177.682 38.58,177.676 39.004,177.674C39.119,177.673 39.205,177.575 39.19,177.464C38.384,171.548 34.009,167.067 27.859,167.067C21.708,167.067 17.336,171.548 16.532,177.464C16.517,177.575 16.603,177.677 16.718,177.678C17.137,177.68 20.854,177.682 27.859,177.682Z" style="fill:white;fill-opacity:0.95;"/>
    <path d="M74.22,177.686C81.237,177.69 84.954,177.69 85.377,177.686C85.492,177.686 85.579,177.583 85.563,177.472C84.799,171.543 80.387,167.063 74.228,167.059C68.07,167.055 63.653,171.535 62.881,177.46C62.865,177.571 62.953,177.674 63.067,177.674C63.491,177.678 67.207,177.682 74.22,177.686Z" style="fill:white;fill-opacity:0.95;"/>
    <path d="M87.384,182.637C87.384,181.37 86.355,180.341 85.088,180.341L17.022,180.341C15.756,180.341 14.727,181.37 14.727,182.637L14.727,182.763C14.727,184.03 15.756,185.059 17.022,185.059L85.088,185.059C86.355,185.059 87.384,184.03 87.384,182.763L87.384,182.637Z" style="fill:white;fill-opacity:0.95;"/>
</svg>
