<svg style="fill-rule:evenodd;clip-rule:evenodd;stroke-linejoin:round;stroke-miterlimit:2;" xml:space="preserve" xmlns:xlink="http://www.w3.org/1999/xlink" xmlns="http://www.w3.org/2000/svg" version="1.1" viewBox="0 0 300 300" height="100%" width="100%">
    <path style="fill:white;fill-opacity:0.31;" d="M143.084,35.804C142.357,35.953 141.604,36.032 140.833,36.032C134.692,36.032 129.706,31.046 129.706,24.905C129.706,18.764 134.692,13.778 140.833,13.778C141.604,13.778 142.357,13.856 143.084,14.006C138.02,15.048 134.208,19.535 134.208,24.905C134.208,30.275 138.02,34.762 143.084,35.804Z"></path>
    <path style="fill:white;fill-opacity:0.15;" d="M152.289,66.234L161.403,66.234C161.604,66.234 162.944,66.234 163.727,67.241L179.797,87.903C180.55,88.871 180.234,90.078 178.623,90.078L106.465,90.078C104.814,90.078 104.508,88.838 105.194,87.903L120.346,67.241C121.085,66.234 122.427,66.234 122.625,66.234L133.115,66.234C136.332,71.335 138.963,75.181 139.908,76.545L139.947,76.601C140.062,76.763 140.192,76.901 140.332,77.018C141.887,78.317 144.786,77.084 144.786,77.084C144.786,77.084 148.053,72.649 152.289,66.234ZM160.312,69.808C160.483,69.57 160.43,69.239 160.193,69.068C159.956,68.896 159.624,68.95 159.453,69.187L146.871,86.6C146.7,86.838 146.753,87.169 146.99,87.34C147.227,87.512 147.559,87.458 147.73,87.221L160.312,69.808ZM130.902,72.319C131.132,72.37 131.36,72.224 131.411,71.994C131.461,71.764 131.316,71.536 131.085,71.485L122.925,69.686C122.694,69.635 122.466,69.781 122.416,70.011C122.365,70.242 122.511,70.47 122.741,70.52L130.902,72.319ZM175.091,85.815C175.316,85.885 175.556,85.759 175.626,85.534C175.696,85.309 175.57,85.069 175.345,84.999L158.813,79.838C158.588,79.768 158.348,79.893 158.278,80.118C158.208,80.344 158.333,80.583 158.559,80.654L175.091,85.815ZM133.795,79.964L127.528,88.196C127.389,88.378 127.424,88.639 127.606,88.777C127.788,88.916 128.049,88.881 128.187,88.699L134.698,80.146C134.746,80.084 134.773,80.012 134.781,79.939C134.818,79.891 134.846,79.834 134.861,79.771C134.914,79.541 134.77,79.312 134.54,79.259L117.121,75.253C116.891,75.2 116.662,75.343 116.609,75.573C116.556,75.803 116.7,76.032 116.93,76.085L133.795,79.964Z"></path>
    <path style="fill:white;fill-opacity:0.75;" d="M230.236,122.11C231.551,124.142 234.725,129.893 232.885,135.646C230.597,142.801 230.003,146.144 232.885,146.773C235.768,147.401 235.578,147.975 235.534,150.552C235.532,150.7 235.522,150.878 235.506,151.083C232.144,152.108 230.634,151.172 230.236,153.131C229.95,154.539 232.17,155.42 234.919,155.317C234.195,159.567 233.008,164.905 232.355,165.318C232.355,165.318 240.405,166.705 248.385,161.827C247.51,163.628 246.837,165.426 246.512,167.126C228.944,177.862 224.407,174.326 224.407,174.326C227.471,166.354 226.96,164.5 223.348,161.079C219.063,157.021 215.896,152.704 214.87,138.825C215.057,136.378 214.739,126.752 219.109,120.81C220.814,118.491 223.915,123.778 229.176,122.399C229.529,122.307 229.882,122.21 230.236,122.11ZM228.646,133.526C228.061,133.526 227.587,134.476 227.587,135.646C227.587,136.815 228.061,137.765 228.646,137.765C229.231,137.765 229.706,136.815 229.706,135.646C229.706,134.476 229.231,133.526 228.646,133.526ZM225.526,129.007C223.231,129.418 221.455,130.24 221.563,130.844C221.671,131.447 223.622,131.604 225.917,131.193C228.212,130.783 229.988,129.96 229.88,129.357C229.772,128.754 227.821,128.597 225.526,129.007Z"></path>
    <path style="fill:white;fill-opacity:0.95;" d="M248.385,161.827C240.405,166.705 232.355,165.318 232.355,165.318C233.008,164.905 234.195,159.567 234.919,155.317C235.588,155.292 236.287,155.208 236.99,155.06C241.015,154.211 243.669,150.77 242.423,149.422C240.988,147.871 239.192,149.903 235.696,151.023L235.506,151.083C235.522,150.878 235.532,150.7 235.534,150.552C235.578,147.975 235.768,147.401 232.885,146.773C230.003,146.144 230.597,142.801 232.885,135.646C234.725,129.893 231.551,124.142 230.236,122.11C235.652,120.575 241.208,118.254 246.132,119.22C251.347,120.243 253.71,125.761 256.199,134.056C256.353,134.569 256.892,135.041 257.259,135.074C262.129,135.507 262.041,142.876 258.318,145.713C257.533,146.311 257.948,147.473 256.199,149.979C253.782,153.099 250.496,157.477 248.385,161.827ZM242.16,128.671C240.022,128.007 238.144,127.925 237.97,128.487C237.795,129.049 239.39,130.044 241.528,130.707C243.666,131.371 245.544,131.454 245.718,130.892C245.893,130.33 244.298,129.335 242.16,128.671ZM239.243,133.526C238.777,133.526 238.399,134.476 238.399,135.646C238.399,136.815 238.777,137.765 239.243,137.765C239.71,137.765 240.088,136.815 240.088,135.646C240.088,134.476 239.71,133.526 239.243,133.526Z"></path>
    <ellipse style="fill:white;fill-opacity:0.15;" ry="2.119" rx="0.845" cy="135.646" cx="239.243"></ellipse>
    <path style="fill:white;fill-opacity:0.15;" d="M242.16,128.671C244.298,129.335 245.893,130.33 245.718,130.892C245.544,131.454 243.666,131.371 241.528,130.707C239.39,130.044 237.795,129.049 237.97,128.487C238.144,127.925 240.022,128.007 242.16,128.671Z"></path>
    <path style="fill:white;" d="M224.407,174.326C219.421,172.574 215.79,172.024 211.161,171.676C203.014,171.064 197.384,169.027 197.384,169.027L196.855,170.617C196.855,170.617 192.259,182.563 191.07,202.87C190.622,204.14 191.063,204.528 191.063,204.528C191.063,204.528 198.691,209.7 199.504,209.826C198.896,212.455 193.749,246.179 202.153,257.514C209.247,267.08 227.831,270.352 242.593,269.68L241.363,269.171C249.454,257.891 255.139,224.662 255.139,224.662C257.942,226.251 276.334,224.662 276.334,224.662L277.923,224.662C277.923,224.662 280.486,195.593 274.214,185.453C269.516,177.857 255.139,175.915 255.139,175.915L254.08,176.364C254.08,176.364 248.259,176.499 246.662,171.676C246.206,170.302 246.199,168.759 246.512,167.126C228.944,177.862 224.407,174.326 224.407,174.326Z"></path>
    <path style="fill:white;fill-opacity:0.75;" d="M276.334,224.662C276.334,224.662 257.942,226.251 255.139,224.662C255.139,224.662 249.454,257.891 241.363,269.171L242.593,269.68C251.215,269.287 258.533,267.548 261.498,264.932C272.981,254.795 276.334,224.662 276.334,224.662Z"></path>
    <path style="fill:white;fill-opacity:0.75;" d="M196.855,170.617C194.782,170.311 189.988,167.846 185.198,164.258C176.838,157.996 171.935,151.988 170.362,148.892C167.126,142.525 164.169,135.268 164.483,132.467C165.247,125.658 164.862,122.934 161.354,118.69C160.124,117.202 158.811,114.158 158.175,111.802C157.499,109.299 154.469,105.829 152.876,112.332C147.059,105.366 146.488,99.376 142.279,99.615C138.602,99.824 137.272,106.275 138.57,113.921C140.204,123.55 149.697,129.817 149.697,129.817C149.426,145.379 154.813,186.705 191.07,202.87C192.259,182.563 196.855,170.617 196.855,170.617Z"></path>
    <path style="fill:white;fill-opacity:0.25;" d="M214.87,138.825C215.057,136.378 214.739,126.752 219.109,120.81C220.814,118.491 223.915,123.778 229.176,122.399C234.923,120.893 240.886,118.191 246.132,119.22C251.347,120.243 253.71,125.761 256.199,134.056C256.353,134.569 256.892,135.041 257.259,135.074C262.129,135.507 262.041,142.876 258.318,145.713C257.533,146.311 257.948,147.473 256.199,149.979C258.716,152.11 269.36,148.198 264.677,139.885C268.255,136.721 269.439,129.555 263.617,127.168C273.451,117.18 266.64,107.051 255.139,111.802C258.85,103.603 252.335,94.908 240.833,100.145C239.731,96.476 233.958,91.429 227.057,98.026C225.282,99.722 221.783,96.395 218.579,96.966C214.444,97.702 215.001,101.726 212.75,103.324C209.8,105.419 204.797,101.585 201.543,101.735C199.545,101.827 197.482,105.456 198.974,108.093C201.578,112.694 203.552,111.789 204.273,114.451C204.714,116.083 203.898,132.379 214.87,138.825Z"></path>
    <path style="fill:white;fill-opacity:0.95;" d="M181.489,233.67L179.369,264.932C179.303,265.969 177.974,266.063 177.25,264.932L173.011,256.454C172.643,255.665 171.884,255.809 171.618,256.454C165.38,264.721 142.702,281.587 116.316,261.223C114.492,259.815 115.162,258.187 117.376,259.103C132.543,265.377 150.933,265.195 161.884,249.641C162.222,248.672 161.875,248.258 160.824,247.976L151.287,245.857C149.269,245.535 149.328,244.626 150.757,243.974L179.899,232.61C180.958,232.124 181.527,232.489 181.489,233.67Z"></path>
    <path style="fill:white;fill-opacity:0.95;" d="M77.758,276.989C81.703,274.278 86.387,270.684 87.703,268.111C90.095,263.436 90.164,256.953 95.121,258.573C95.121,258.573 97.869,252.086 102.54,255.394C107.21,258.703 107.928,266.268 95.121,273.409C95.121,273.409 91.267,284.039 81.954,290.721C80.478,291.781 78.864,292.741 77.106,293.544C77.106,293.544 76.589,294.09 75.575,294.864C74.644,293.644 73.427,291.896 72.337,289.835C70.197,285.788 71.808,280.827 71.808,280.827C71.808,280.827 74.537,279.202 77.758,276.989Z"></path>
    <path style="fill:white;fill-opacity:0.95;" d="M61.895,268.103C61.501,271.613 59.048,272.716 58.031,273.409C57.037,274.087 54.737,275.244 54.322,278.178C53.716,282.459 64.584,280.42 64.584,280.42C62.27,288.013 54.321,283.443 53.792,281.887L53.263,280.827C53.263,280.827 40.399,278.148 35.247,272.35C35.247,272.35 25.475,274.818 22.001,267.051C19.671,261.842 27.299,261.223 27.299,261.223C27.299,261.223 26.384,253.023 25.71,250.625C24.887,247.698 21.733,234.701 35.247,227.312C35.247,227.312 35.494,228.776 36.837,229.205C40.334,230.32 39.841,228.038 42.135,228.23C43.143,228.314 43.646,229.222 44.785,229.065C47.25,228.725 47.87,226.65 49.553,226.481C50.235,226.412 50.528,227.953 52.733,228.371C53.454,228.508 54.103,228.28 54.69,227.875C57.615,233.081 57.39,239.87 56.972,242.677C56.476,246.003 55.951,250.112 58.031,253.275C61.119,257.969 63.181,258.236 62.27,260.163C61.777,261.207 61.135,261.573 61.74,264.932C61.842,265.498 61.904,266.024 61.932,266.514C61.784,266.519 61.634,266.521 61.481,266.521C57.453,266.521 54.322,266.083 54.322,266.521C54.322,266.96 57.453,268.111 61.481,268.111C61.62,268.111 61.758,268.108 61.895,268.103ZM45.547,241.662C43.761,243.173 43.399,245.899 43.982,245.856C44.858,245.792 44.845,244.718 46.632,243.207C48.418,241.696 50.44,241.929 50.341,240.909C50.284,240.324 47.333,240.152 45.547,241.662ZM50.555,249.054C49.827,249.136 49.382,250.5 49.562,252.099C49.742,253.697 50.479,254.928 51.207,254.846C51.935,254.764 52.38,253.4 52.2,251.802C52.02,250.203 51.283,248.972 50.555,249.054Z"></path>
    <path style="fill:white;fill-opacity:0.5;" d="M75.575,294.864C72.507,297.206 64.886,301.641 53.263,299.373C52.347,299.194 51.496,299.025 50.704,298.866C50.983,298.191 51.308,297.459 51.673,296.723C52.999,294.053 50.174,287.539 48.494,285.066C46.814,282.593 44.255,283.477 44.255,283.477C48.676,280.959 53.792,281.887 53.792,281.887C54.321,283.443 62.27,288.013 64.584,280.42C65.754,280.372 70.557,279.595 71.808,280.827C71.808,280.827 70.197,285.788 72.337,289.835C73.427,291.896 74.644,293.644 75.575,294.864Z"></path>
    <path style="fill:white;fill-opacity:0.85;" d="M61.932,266.514C61.904,266.024 61.842,265.498 61.74,264.932C61.135,261.573 61.777,261.207 62.27,260.163C63.181,258.236 61.119,257.969 58.031,253.275C55.951,250.112 56.476,246.003 56.972,242.677C57.39,239.87 57.615,233.081 54.69,227.875C55.697,227.18 56.521,225.967 57.212,225.192C57.948,224.367 58.741,225.919 60.151,226.034C62.666,226.239 64.371,223.995 65.449,223.073C65.449,223.073 77.036,230.536 79.226,235.789C81.495,241.234 81.409,246.075 81.345,247.446C82.752,246.728 84.496,245.605 86.644,246.916C88.878,248.28 90.152,253.188 80.815,261.223C80.815,261.223 82.748,269.236 79.226,272.88C75.773,276.451 69.065,279.483 64.653,279.755C64.484,279.762 64.39,279.768 64.39,279.768C64.476,279.765 64.495,280.425 64.584,280.42C64.584,280.42 53.716,282.459 54.322,278.178C54.737,275.244 57.037,274.087 58.031,273.409C59.048,272.716 61.501,271.613 61.895,268.103C65.706,267.951 68.402,265.757 68.099,265.461C67.464,264.842 65.654,266.395 61.932,266.514ZM65.047,247.191C64.382,247.244 63.947,248.589 64.076,250.193C64.205,251.796 64.85,253.054 65.515,253C66.18,252.947 66.616,251.602 66.486,249.998C66.357,248.395 65.712,247.137 65.047,247.191ZM66.114,238.6C63.855,237.995 61.409,239.253 61.777,239.707C62.33,240.39 63.205,239.767 65.464,240.372C67.724,240.978 68.686,242.771 69.468,242.108C69.916,241.728 68.374,239.206 66.114,238.6Z"></path>
    <path style="fill:white;fill-opacity:0.25;" d="M35.247,227.312C35.247,227.312 35.494,228.776 36.837,229.205C40.334,230.32 39.841,228.038 42.135,228.23C43.143,228.314 43.646,229.222 44.785,229.065C47.25,228.725 47.87,226.65 49.553,226.481C50.235,226.412 50.528,227.953 52.733,228.371C54.693,228.743 56.118,226.418 57.212,225.192C57.948,224.367 58.741,225.919 60.151,226.034C62.666,226.239 64.371,223.995 65.449,223.073C66.91,220.568 63.86,220.423 63.86,220.423C64.892,217.616 60.245,217.885 59.621,218.304C58.86,218.814 59.074,220.002 57.501,218.618C55.472,216.832 53.749,219.012 53.463,219.364C53.177,219.715 51.421,221.839 50.613,220.423C49.806,219.008 47.381,219.57 46.904,220.423C46.428,221.276 41.912,221.02 40.016,220.953C38.12,220.886 38.197,222.683 38.189,223.073C38.182,223.462 36.465,223.687 35.533,224.662C34.601,225.638 35.247,227.312 35.247,227.312Z"></path>
    <path style="fill:white;fill-opacity:0.95;" d="M44.255,283.477C44.255,283.477 46.814,282.593 48.494,285.066C50.174,287.539 52.999,294.053 51.673,296.723C51.308,297.459 50.983,298.191 50.704,298.866C38.114,296.337 40.546,296.193 40.546,296.193C40.546,296.193 37.991,295.84 38.956,293.544C39.921,291.249 39.834,285.994 44.255,283.477Z"></path>
    <path style="fill:white;fill-opacity:0.95;" d="M139.908,76.545C136.757,71.995 114.841,39.832 114.994,25.564C115.146,11.303 126.849,-0.151 141.109,0.002C141.773,0.009 142.43,0.041 143.081,0.097C156.411,1.249 166.817,12.52 166.672,26.117C166.511,41.105 141.582,75.312 140.332,77.018C140.192,76.901 140.062,76.763 139.947,76.601L139.908,76.545ZM143.084,35.804C148.148,34.762 151.96,30.275 151.96,24.905C151.96,19.535 148.148,15.048 143.084,14.006C142.357,13.856 141.604,13.778 140.833,13.778C134.692,13.778 129.706,18.764 129.706,24.905C129.706,31.046 134.692,36.032 140.833,36.032C141.604,36.032 142.357,35.953 143.084,35.804Z"></path>
    <path style="fill:white;fill-opacity:0.31;" d="M143.081,0.097C143.914,0.025 144.758,-0.008 145.612,0.002C159.872,0.154 171.326,11.856 171.174,26.117C171.009,41.49 144.786,77.084 144.786,77.084C144.786,77.084 141.887,78.317 140.332,77.018C141.582,75.312 166.511,41.105 166.672,26.117C166.817,12.52 156.411,1.249 143.081,0.097Z"></path>
    <path style="fill:white;fill-opacity:0.45;" d="M130.902,72.319L122.741,70.52C122.511,70.47 122.365,70.242 122.416,70.011C122.466,69.781 122.694,69.635 122.925,69.686L131.085,71.485C131.316,71.536 131.461,71.764 131.411,71.994C131.36,72.224 131.132,72.37 130.902,72.319Z"></path>
    <path style="fill:white;fill-opacity:0.45;" d="M133.795,79.964L116.93,76.085C116.7,76.032 116.556,75.803 116.609,75.573C116.662,75.343 116.891,75.2 117.121,75.253L134.54,79.259C134.77,79.312 134.914,79.541 134.861,79.771C134.846,79.834 134.818,79.891 134.781,79.939C134.773,80.012 134.746,80.084 134.698,80.146L128.187,88.699C128.049,88.881 127.788,88.916 127.606,88.777C127.424,88.639 127.389,88.378 127.528,88.196L133.795,79.964Z"></path>
    <path style="fill:white;fill-opacity:0.45;" d="M160.312,69.808L147.73,87.221C147.559,87.458 147.227,87.512 146.99,87.34C146.753,87.169 146.7,86.838 146.871,86.6L159.453,69.187C159.624,68.95 159.956,68.896 160.193,69.068C160.43,69.239 160.483,69.57 160.312,69.808Z"></path>
    <path style="fill:white;fill-opacity:0.45;" d="M175.091,85.815L158.559,80.654C158.333,80.583 158.208,80.344 158.278,80.118C158.348,79.893 158.588,79.768 158.813,79.838L175.345,84.999C175.57,85.069 175.696,85.309 175.626,85.534C175.556,85.759 175.316,85.885 175.091,85.815Z"></path>
    <path style="fill:white;fill-opacity:0.15;" d="M234.919,155.317C232.17,155.42 229.95,154.539 230.236,153.131C230.634,151.172 232.144,152.108 235.506,151.083L235.696,151.023C239.192,149.903 240.988,147.871 242.423,149.422C243.669,150.77 241.015,154.211 236.99,155.06C236.287,155.208 235.588,155.292 234.919,155.317Z"></path>
    <ellipse style="fill:white;fill-opacity:0.15;" ry="2.119" rx="1.06" cy="135.646" cx="228.646"></ellipse>
    <path style="fill:white;fill-opacity:0.15;" d="M225.526,129.007C227.821,128.597 229.772,128.754 229.88,129.357C229.988,129.96 228.212,130.783 225.917,131.193C223.622,131.604 221.671,131.447 221.563,130.844C221.455,130.24 223.231,129.418 225.526,129.007Z"></path>
    <path style="fill:white;fill-opacity:0.15;" d="M50.555,249.054C51.283,248.972 52.02,250.203 52.2,251.802C52.38,253.4 51.935,254.764 51.207,254.846C50.479,254.928 49.742,253.697 49.562,252.099C49.382,250.5 49.827,249.136 50.555,249.054Z"></path>
    <path style="fill:white;fill-opacity:0.15;" d="M45.547,241.662C47.333,240.152 50.284,240.324 50.341,240.909C50.44,241.929 48.418,241.696 46.632,243.207C44.845,244.718 44.858,245.792 43.982,245.856C43.399,245.899 43.761,243.173 45.547,241.662Z"></path>
    <path style="fill:white;fill-opacity:0.15;" d="M65.047,247.191C65.712,247.137 66.357,248.395 66.486,249.998C66.616,251.602 66.18,252.947 65.515,253C64.85,253.054 64.205,251.796 64.076,250.193C63.947,248.589 64.382,247.244 65.047,247.191Z"></path>
    <path style="fill:white;fill-opacity:0.15;" d="M66.114,238.6C68.374,239.206 69.916,241.728 69.468,242.108C68.686,242.771 67.724,240.978 65.464,240.372C63.205,239.767 62.33,240.39 61.777,239.707C61.409,239.253 63.855,237.995 66.114,238.6Z"></path>
    <path style="fill:white;fill-opacity:0.15;" d="M61.481,266.521C65.509,266.521 67.438,264.818 68.099,265.461C68.413,265.768 65.509,268.111 61.481,268.111C57.453,268.111 54.322,266.96 54.322,266.521C54.322,266.083 57.453,266.521 61.481,266.521Z"></path>
</svg>
