<?xml version="1.0" encoding="UTF-8" standalone="no"?>
<!DOCTYPE svg PUBLIC "-//W3C//DTD SVG 1.1//EN" "http://www.w3.org/Graphics/SVG/1.1/DTD/svg11.dtd">
<svg width="100%" height="100%" viewBox="0 0 300 300" version="1.1" xmlns="http://www.w3.org/2000/svg" xmlns:xlink="http://www.w3.org/1999/xlink" xml:space="preserve" xmlns:serif="http://www.serif.com/" style="fill-rule:evenodd;clip-rule:evenodd;stroke-linejoin:round;stroke-miterlimit:2;">
    <path d="M175.443,87.299L169.931,78.52C174.3,72.733 178.302,66.545 181.943,59.958C184.339,55.62 186.365,51.161 188.02,46.578C188.338,45.698 188.449,45 188.258,44.018C187.813,41.736 187.816,39.513 188.267,37.342C188.366,36.867 188.573,36.527 188.891,36.323C189.163,36.15 189.524,36.258 189.657,36.552C190.036,37.395 190.293,38.349 190.422,39.414C190.441,39.575 190.629,39.649 190.753,39.547C191.253,39.13 191.525,38.559 191.565,37.836C191.624,36.851 191.648,35.604 191.642,34.1C191.639,33.424 191.908,31.509 192.544,31.136C192.868,30.947 193.294,30.972 193.637,31.197C197.679,33.85 198.448,39.056 195.879,43.027C195.335,43.87 194.214,45.352 192.516,47.474C192.448,47.56 192.396,47.662 192.362,47.77C192.195,48.323 192.241,48.879 192.09,49.567C189.039,63.386 183.561,76.158 175.659,87.882C175.551,87.777 175.48,87.583 175.443,87.299Z" style="fill:white;fill-opacity:0.85;"/>
    <path d="M177.154,40.319C177.209,40.439 177.12,40.575 176.987,40.566C175.983,40.501 175.088,40.124 174.307,39.43C172.763,38.059 171.407,36.499 170.237,34.755C170.079,34.523 170.085,34.304 170.252,34.1C170.372,33.955 170.592,33.856 170.913,33.81C171.497,33.723 172.197,33.624 173.022,33.51C173.127,33.495 173.232,33.519 173.325,33.572L174.019,33.973C174.1,34.02 174.164,34.091 174.205,34.174L177.154,40.319Z" style="fill:white;fill-opacity:0.95;fill-rule:nonzero;"/>
    <path d="M110.711,38.5C110.843,40.368 110.411,42.042 109.407,43.515C109.355,43.592 109.253,43.614 109.173,43.568L107.193,42.425C107.135,42.391 107.085,42.339 107.061,42.274L105.168,37.512C105.103,37.348 105.26,37.185 105.427,37.243C107.073,37.827 108.774,38.185 110.538,38.324C110.63,38.33 110.704,38.408 110.711,38.5Z" style="fill:white;fill-opacity:0.95;fill-rule:nonzero;"/>
    <path d="M158.237,78.841C158.617,78.501 159.009,77.776 159.407,76.667C159.762,75.682 159.988,74.657 160.077,73.591C160.102,73.298 160.226,73.073 160.451,72.915C161.828,71.946 162.02,69.136 160.812,67.999C160.717,67.91 160.593,67.863 160.463,67.866C160.124,67.876 159.753,67.808 159.349,67.666C158.926,67.518 158.688,67.107 158.821,66.752C158.842,66.699 158.855,66.548 158.858,66.298C158.861,66.205 158.78,66.134 158.691,66.143C157.931,66.218 156.73,65.946 156.313,65.198C156.14,64.893 156.072,64.652 156.112,64.479C156.288,63.667 156.356,62.95 156.319,62.324C156.31,62.182 156.128,62.126 156.044,62.243C154.988,63.735 153.083,63.065 151.409,62.747C151.116,62.691 150.832,62.879 150.77,63.173C150.452,64.661 150.001,65.995 148.337,66.387C147.256,66.514 146.228,66.4 145.252,66.048C144.897,65.918 144.662,65.6 144.452,65.415C144.369,65.341 144.236,65.399 144.23,65.51C144.162,66.699 143.557,67.607 142.411,68.234C141.741,68.601 141.303,68.814 141.102,68.87C140.972,68.904 140.901,69.043 140.948,69.17C141.71,71.248 142.217,73.474 142.467,75.852C142.624,77.337 142.868,78.464 143.199,79.239C143.931,80.944 145.197,82.093 146.994,82.689C146.951,82.852 147.003,83.152 147.151,83.581C147.281,83.961 147.333,84.257 147.306,84.47C147.083,86.283 145.715,87.469 143.989,87.969C143.934,87.987 143.89,88.028 143.869,88.08C143.819,88.197 143.869,88.29 144.017,88.355L141.025,87.861C140.305,87.172 139.966,86.493 140.009,85.823C140.015,85.709 139.953,85.604 139.851,85.557C139.712,85.495 139.57,85.526 139.419,85.647C139.277,85.761 139.123,85.823 138.956,85.835C137.665,85.928 136.671,85.415 135.97,84.3C135.179,83.037 134.759,81.762 134.71,80.468C134.698,80.175 134.741,79.77 134.84,79.255C134.877,79.063 134.651,78.934 134.503,79.06C133.709,79.746 132.595,78.699 132.15,78.02C132.098,77.939 132.067,77.847 132.057,77.751C131.98,76.821 131.94,76.343 131.937,76.315C131.903,75.704 132.258,75.157 132.249,74.577C132.246,74.478 132.199,74.385 132.122,74.326C130.77,73.304 129.887,72.486 129.476,71.872C128.497,70.414 128.386,68.83 129.149,67.122C129.417,66.523 129.945,65.952 130.733,65.405C130.807,65.356 130.819,65.251 130.757,65.186C130.316,64.701 130.168,64.078 130.316,63.309C130.767,60.987 131.069,59.526 132.728,58.146C133.225,57.732 133.629,57.405 133.935,57.161C134.173,56.975 134.537,57.04 134.747,57.306C134.803,57.377 134.883,57.417 134.988,57.432C135.087,57.445 135.182,57.386 135.213,57.29C135.809,55.419 136.834,53.826 138.286,52.51C139.36,51.534 140.883,51.105 141.794,52.489C141.902,52.652 142.158,52.55 142.121,52.356C141.917,51.303 141.831,49.32 143.128,48.99C143.165,48.981 143.646,48.981 144.57,48.996C146.129,49.018 147.435,49.117 148.488,49.299C148.677,49.33 148.859,49.231 148.936,49.058C149.665,47.415 151.703,48.839 152.676,49.151C153.021,49.262 153.392,49.076 153.509,48.734C153.846,47.773 154.247,47.18 155.43,47.217C157.737,47.292 160.053,49.277 161.35,51.062C161.448,51.198 161.658,51.17 161.714,51.013C161.825,50.713 162.02,50.543 162.301,50.509C162.421,50.488 162.541,50.5 162.656,50.546L165.2,51.571C165.299,51.612 165.392,51.67 165.469,51.744C166.778,53.007 167.723,54.52 168.307,56.29C168.344,56.398 168.288,56.642 168.137,57.019C168.097,57.114 168.128,57.225 168.211,57.287C168.362,57.398 168.609,57.466 168.952,57.491C169.054,57.5 169.153,57.531 169.239,57.587C170.555,58.42 171.796,60.119 171.673,61.731C171.546,63.377 170.762,64.921 169.724,66.15C169.653,66.233 169.628,66.347 169.656,66.452C169.684,66.551 169.764,66.637 169.903,66.715C170.005,66.77 170.085,66.869 170.141,67.008C170.518,67.941 170.715,68.444 170.737,68.521C171.073,69.809 170.728,70.775 169.693,71.421C169.597,71.479 169.48,71.489 169.378,71.445L169.153,71.353C168.921,71.254 168.696,71.498 168.807,71.723C169.672,73.462 169.814,75.25 169.23,77.09C168.776,78.535 167.661,79.486 166.136,79.245C165.991,79.221 165.876,79.363 165.929,79.499C166.266,80.382 166.176,81.145 165.66,81.79C164.252,83.538 161.053,83.155 159.543,81.892C158.901,81.351 158.465,80.336 158.237,78.841Z" style="fill:white;fill-opacity:0.35;fill-rule:nonzero;"/>
    <path d="M34.976,67.116C33.84,66.113 32.305,64.985 30.375,63.732C29.646,63.259 28.781,62.438 28.278,61.694C28.207,61.589 28.195,61.453 28.244,61.332L30.041,57.053C30.069,56.988 30.149,56.963 30.208,57.003C30.273,57.046 30.338,57.124 30.409,57.235C30.622,57.571 31.746,57.948 32.867,58.337C34.612,58.942 36.396,59.396 38.215,59.696C38.32,59.711 38.342,59.853 38.246,59.903C35.124,61.478 34.979,63.911 35.102,67.057C35.106,67.125 35.025,67.159 34.976,67.116Z" style="fill:white;fill-opacity:0.75;fill-rule:nonzero;"/>
    <path d="M133.75,86.459C132.69,87.635 131.946,89.084 131.52,90.81C131.045,92.727 131.011,94.596 131.421,96.411C125.823,93.678 120.549,90.544 115.602,87.005C114.901,86.502 114.141,85.925 113.329,85.273C113.341,84.566 113.332,84.029 113.301,83.658C113.076,80.993 112.078,78.761 110.303,76.957C109.133,75.768 108.172,74.808 106.424,74.719C106.069,74.7 105.754,74.941 105.674,75.287C105.455,76.232 105.387,77.387 105.476,78.748C103.831,77.254 102.08,75.555 100.227,73.656C99.316,72.721 98.661,71.958 98.269,71.368C98.149,71.189 95.836,70.207 93.949,69.661C85.772,67.292 87.344,57.469 89.246,57.173C91.372,56.842 92.331,60.066 93.637,62.262C94.02,62.904 94.67,63.878 95.376,63.506C96.137,63.106 94.42,60.541 94.959,59.863C95.016,59.791 95.089,59.736 95.178,59.751C95.54,59.804 96.95,60.502 97.645,61.743C98.364,63.026 100.07,66.443 100.097,66.817C100.107,66.962 100.175,67.098 100.286,67.193C103.148,69.682 106.023,71.853 108.907,73.703C116.68,78.683 124.958,82.936 133.75,86.459Z" style="fill:white;fill-opacity:0.85;fill-rule:nonzero;"/>
    <path d="M66.695,68.274C66.769,68.308 66.85,68.249 66.843,68.169C66.59,65.371 65.142,63.438 62.934,61.774C62.684,61.586 62.675,61.212 62.916,61.011C63.561,60.477 64.929,61.527 65.432,61.981C67.498,63.855 68.999,66.56 68.523,69.407C68.508,69.506 68.539,69.602 68.603,69.673L70.197,71.347C70.453,71.615 70.472,72.032 70.24,72.325L70.231,72.338C69.99,72.656 69.521,72.677 69.252,72.384L68.008,71.029C67.955,70.97 67.862,70.973 67.813,71.035C66.507,72.631 64.901,73.036 62.999,72.245C61.544,71.643 60.664,69.821 61.727,68.466C63.021,66.817 65.102,67.539 66.695,68.274ZM66.257,69.654C65.457,69.089 64.114,68.571 63.2,69.071C62.857,69.259 62.709,69.688 62.851,70.081C62.996,70.485 63.289,70.744 63.737,70.856C64.778,71.115 65.633,70.828 66.303,69.991C66.389,69.886 66.368,69.732 66.257,69.654Z" style="fill:white;fill-opacity:0.75;fill-rule:nonzero;"/>
    <path d="M158.237,78.841C157.771,79.32 157.385,79.653 157.085,79.841C157.054,79.86 157.026,79.882 157.002,79.906C155.529,81.447 154.803,83.76 155.572,85.795C155.606,85.885 155.699,85.937 155.794,85.922C156.959,85.715 158.175,85.628 159.438,85.662C159.728,85.671 160.281,85.492 161.093,85.128C162.643,84.436 164.647,83.198 166.139,82.099C167.232,81.293 169.931,78.52 169.931,78.52L175.443,87.299C175.285,87.333 175.165,87.41 175.079,87.527C173.809,89.269 172.661,90.878 171.639,92.354C169.743,95.084 167.47,97.665 165.951,99.404C165.771,99.607 165.67,99.873 165.666,100.145C165.605,103.146 165.052,106.006 164.777,108.933C164.546,111.422 164.147,113.525 163.517,115.646C163.153,116.866 162.254,118.941 161.942,120.661C161.723,121.881 161.612,122.495 161.609,122.501C161.584,122.594 161.504,122.659 161.408,122.662C160.658,122.683 160.009,122.656 159.46,122.575C158.536,122.443 157.95,122.375 157.703,122.372C157.187,122.368 155.399,122.155 152.333,121.732C149.378,121.328 146.781,120.843 144.542,120.278C144.113,119.889 143.955,119.558 144.073,119.29C144.767,117.696 145.478,116.205 146.197,114.818C146.287,114.646 146.296,114.442 146.219,114.263C144.993,111.304 143.545,108.167 141.874,104.851C141.263,103.64 141.062,102.328 141.269,100.917C141.281,100.824 141.222,100.738 141.13,100.719C139.333,100.385 137.542,99.928 135.754,99.345C134.512,98.94 133.364,98.385 132.304,97.671C132.141,97.56 132.002,97.412 131.903,97.239L131.421,96.411C131.011,94.596 131.045,92.727 131.52,90.81C131.946,89.084 132.69,87.635 133.75,86.459C134.188,86.24 134.586,86.178 134.945,86.274C136.872,86.799 138.897,87.327 141.025,87.861L144.017,88.355L148.318,87.676C148.633,87.694 148.927,87.484 149.202,87.043C149.436,86.669 149.569,86.338 149.603,86.051C149.693,85.248 150.048,84.832 150.536,83.918C151.317,82.457 151.749,80.888 151.833,79.208C152.855,78.856 153.58,78.211 154.006,77.272C154.34,76.537 154.26,75.938 153.766,75.475C153.583,75.305 153.305,75.296 153.111,75.45L151.873,76.454L150.943,74.669C150.798,74.391 150.452,74.292 150.18,74.447L148.989,75.135C148.803,75.244 148.569,75.135 148.532,74.925C148.146,72.736 148.087,70.497 148.362,68.209C148.433,67.607 148.377,66.999 148.337,66.387C150.001,65.995 150.452,64.661 150.77,63.173C150.832,62.879 151.116,62.691 151.409,62.747C153.083,63.065 154.988,63.735 156.044,62.243C156.128,62.126 156.31,62.182 156.319,62.324C156.356,62.95 156.288,63.667 156.112,64.479C156.072,64.652 156.14,64.893 156.313,65.198C156.73,65.946 157.931,66.218 158.691,66.143C158.78,66.134 158.861,66.205 158.858,66.298C158.855,66.548 158.842,66.699 158.821,66.752C158.688,67.107 158.926,67.518 159.349,67.666C159.753,67.808 160.124,67.876 160.463,67.866C160.593,67.863 160.717,67.91 160.812,67.999C162.02,69.136 161.828,71.946 160.451,72.915C160.226,73.073 160.102,73.298 160.077,73.591C159.988,74.657 159.762,75.682 159.407,76.667C159.009,77.776 158.617,78.501 158.237,78.841ZM151.913,67.666C152.444,67.746 152.991,67.882 153.556,68.073C153.682,68.117 153.815,68.046 153.852,67.922C153.917,67.718 153.834,67.558 153.605,67.44C153.068,67.166 152.543,66.989 152.03,66.912C151.514,66.832 150.962,66.844 150.369,66.943C150.116,66.986 149.986,67.116 149.986,67.329C149.986,67.459 150.091,67.564 150.224,67.561C150.82,67.548 151.382,67.585 151.913,67.666ZM151.439,69.779C151.19,69.837 151.095,70.349 151.226,70.929C151.357,71.507 151.663,71.933 151.911,71.876C152.16,71.819 152.256,71.306 152.124,70.727C151.993,70.148 151.687,69.722 151.439,69.779Z" style="fill:white;fill-opacity:0.95;fill-rule:nonzero;"/>
    <path d="M148.337,66.387C148.377,66.999 148.433,67.607 148.362,68.209C148.087,70.497 148.146,72.736 148.532,74.925C148.569,75.135 148.803,75.244 148.989,75.135L150.18,74.447C150.452,74.292 150.798,74.391 150.943,74.669L151.873,76.454C151.326,76.96 150.551,77.365 149.551,77.671C149.381,77.723 149.195,77.893 148.998,78.18C148.627,78.721 149.121,79.23 149.637,79.35C150.415,79.533 151.147,79.486 151.833,79.208C151.749,80.888 151.317,82.457 150.536,83.918C150.048,84.832 149.693,85.248 149.603,86.051C149.569,86.338 149.436,86.669 149.202,87.043C148.927,87.484 148.633,87.694 148.318,87.676C150.273,85.202 149.832,83.541 146.994,82.689C145.197,82.093 143.931,80.944 143.199,79.239C142.868,78.464 142.624,77.337 142.467,75.852C142.217,73.474 141.71,71.248 140.948,69.17C140.901,69.043 140.972,68.904 141.102,68.87C141.303,68.814 141.741,68.601 142.411,68.234C143.557,67.607 144.162,66.699 144.23,65.51C144.236,65.399 144.369,65.341 144.452,65.415C144.662,65.6 144.897,65.918 145.252,66.048C146.228,66.4 147.256,66.514 148.337,66.387ZM142.967,69.698C142.955,69.775 143.032,69.837 143.106,69.809L146.364,68.512C146.595,68.419 146.537,68.08 146.29,68.07C145.295,68.033 143.134,68.521 142.967,69.698ZM146.557,71.261C146.33,71.313 146.246,71.81 146.374,72.372C146.5,72.934 146.787,73.348 147.016,73.297C147.244,73.246 147.327,72.748 147.2,72.186C147.074,71.624 146.787,71.211 146.557,71.261Z" style="fill:white;fill-opacity:0.8;fill-rule:nonzero;"/>
    <path d="M152.03,66.912C152.543,66.989 153.068,67.166 153.605,67.44C153.834,67.558 153.917,67.718 153.852,67.922C153.815,68.046 153.682,68.117 153.556,68.073C152.991,67.882 152.444,67.746 151.913,67.666C151.382,67.585 150.82,67.548 150.224,67.561C150.091,67.564 149.986,67.459 149.986,67.329C149.986,67.116 150.116,66.986 150.369,66.943C150.962,66.844 151.514,66.832 152.03,66.912Z" style="fill:white;fill-opacity:0.15;fill-rule:nonzero;"/>
    <path d="M142.967,69.698C143.134,68.521 145.295,68.033 146.29,68.07C146.537,68.08 146.595,68.419 146.364,68.512L143.106,69.809C143.032,69.837 142.955,69.775 142.967,69.698Z" style="fill:white;fill-opacity:0.15;fill-rule:nonzero;"/>
    <path d="M244.986,69.404C245.026,69.531 245.236,69.852 245.616,70.368C246.709,71.853 248.979,73.357 250.075,74.181C250.674,74.632 251.029,75.206 251.144,75.907C251.159,76 251.11,76.09 251.023,76.127L246.521,78.097C246.481,78.112 246.434,78.097 246.413,78.06C245.338,76.29 244.52,75.157 243.958,74.66C242.797,73.632 241.849,72.758 241.117,72.038C241.046,71.967 241.031,71.856 241.083,71.773C241.759,70.649 242.707,71.146 243.445,70.516C244.159,69.908 244.585,69.519 244.73,69.349C244.807,69.259 244.952,69.29 244.986,69.404Z" style="fill:white;fill-opacity:0.95;fill-rule:nonzero;"/>
    <path d="M151.439,69.779C151.687,69.722 151.993,70.148 152.124,70.727C152.256,71.306 152.16,71.819 151.911,71.876C151.663,71.933 151.357,71.507 151.226,70.929C151.095,70.349 151.19,69.837 151.439,69.779Z" style="fill:white;fill-opacity:0.15;fill-rule:nonzero;"/>
    <path d="M146.557,71.261C146.787,71.211 147.074,71.624 147.2,72.186C147.327,72.748 147.244,73.246 147.016,73.297C146.787,73.348 146.5,72.934 146.374,72.372C146.246,71.81 146.33,71.313 146.557,71.261Z" style="fill:white;fill-opacity:0.15;fill-rule:nonzero;"/>
    <path d="M276.539,78.6C277.32,75.855 275.152,73.298 272.756,72.437C272.333,72.285 272.351,71.683 272.781,71.557C273.485,71.347 274.201,71.461 274.93,71.902C277.413,73.4 279.352,76.664 278.259,79.613C278.212,79.733 278.246,79.866 278.339,79.953C279.732,81.277 280.575,82.914 280.862,84.856C281.081,86.335 281.066,87.765 279.787,88.744C279.627,88.867 279.389,88.772 279.364,88.568C279.16,87.009 279.058,86.113 279.055,85.881C279.031,84.106 278.487,82.673 277.348,81.506C277.261,81.419 277.119,81.419 277.036,81.509C275.875,82.719 273.667,83.88 272.089,82.908C270.517,81.935 270.965,80.175 272.216,79.125C273.432,78.109 274.772,78.236 276.332,78.711C276.421,78.739 276.514,78.69 276.539,78.6ZM274.982,80.34C274.933,80.19 274.498,80.2 274.01,80.362C273.522,80.524 273.167,80.774 273.217,80.924C273.266,81.074 273.701,81.064 274.188,80.902C274.677,80.74 275.032,80.49 274.982,80.34Z" style="fill:white;fill-opacity:0.75;fill-rule:nonzero;"/>
    <path d="M113.329,85.273C113.091,86.564 112.634,87.737 111.958,88.79C111.535,89.451 111.059,90.075 110.538,90.658C110.359,90.859 109.787,91.39 108.827,92.252C107.675,93.283 106.736,94.41 106.008,95.633C105.245,94.756 104.278,94.006 103.108,93.385C102.759,93.2 102.336,93.033 101.845,92.882C101.329,92.724 100.894,92.592 100.539,92.49C100.249,90.168 100.07,87.898 99.998,85.678C99.958,84.396 100.131,83.417 100.449,82.21C100.585,81.691 101.305,81.642 101.508,82.139C101.851,82.979 102.067,84.174 102.157,85.721C102.179,86.119 102.565,86.391 102.947,86.28C104.109,85.943 104.695,84.325 104.914,83.291C105.263,81.639 105.449,80.122 105.476,78.748C105.387,77.387 105.455,76.232 105.674,75.287C105.754,74.941 106.069,74.7 106.424,74.719C108.172,74.808 109.133,75.768 110.303,76.957C112.078,78.761 113.076,80.993 113.301,83.658C113.332,84.029 113.341,84.566 113.329,85.273Z" style="fill:white;fill-opacity:0.75;fill-rule:nonzero;"/>
    <path d="M151.833,79.208C151.147,79.486 150.415,79.533 149.637,79.35C149.121,79.23 148.627,78.721 148.998,78.18C149.195,77.893 149.381,77.723 149.551,77.671C150.551,77.365 151.326,76.96 151.873,76.454L153.111,75.45C153.305,75.296 153.583,75.305 153.766,75.475C154.26,75.938 154.34,76.537 154.006,77.272C153.58,78.211 152.855,78.856 151.833,79.208Z" style="fill:white;fill-opacity:0.15;fill-rule:nonzero;"/>
    <path d="M217.559,126.902C216.818,127.587 215.848,128.177 215.265,128.859C214.354,129.922 213.52,131.036 212.757,132.207C212.205,133.05 211.704,134.217 211.084,135.196C209.401,131.583 208.058,128.316 207.054,125.395C204.445,117.786 202.629,109.93 201.61,101.828C201.409,100.234 201.363,99.209 201.471,98.755C201.508,98.598 201.462,98.431 201.351,98.31C201.224,98.171 200.674,97.294 199.705,95.676C199.696,95.661 199.501,95.355 199.121,94.759C197.852,92.774 197.287,90.594 197.426,88.216C197.435,88.089 197.484,87.972 197.509,87.848C198.118,84.835 200.078,83.007 201.545,82.123C201.996,81.852 202.385,81.725 202.712,81.747C202.824,81.756 202.929,81.812 203,81.901C203.379,82.386 204.315,85.332 203.262,88.478C202.997,89.27 203.398,90.001 203.898,90.554C204.056,90.73 204.346,90.597 204.315,90.362C204.247,89.84 205.485,87.496 205.485,87.496C205.643,87.262 205.989,87.274 206.131,87.518C206.555,88.844 206.927,90.276 206.409,93.549C206.387,93.716 206.075,95.608 205.522,96.093C205.448,96.158 205.433,96.269 205.488,96.35C205.627,96.55 206.906,102.053 207.236,103.063C209.608,110.316 212.452,117.094 215.771,123.4C216.67,125.104 217.266,126.272 217.559,126.902Z" style="fill:white;fill-opacity:0.85;fill-rule:nonzero;"/>
    <path d="M24.968,99.518C24.468,100.003 23.918,100.423 23.319,100.778C23.195,100.849 23.081,100.935 22.976,101.031C22.229,101.719 21.426,102.278 20.753,103.1C20.506,103.402 20.237,103.693 19.95,103.971C19.394,102.989 18.906,102.399 18.489,102.198C16.041,101.025 13.552,99.691 11.73,97.699C9.25,94.991 9.013,90.594 10.578,87.391C11.353,85.798 12.329,84.023 13.996,83.417C14.395,83.272 14.799,83.331 15.012,83.572C15.852,84.52 15.858,86.369 16.297,87.601C16.813,89.053 18.573,94.108 20.651,93.669C20.938,93.607 21.123,93.302 21.074,92.968C20.898,91.718 20.793,90.763 20.759,90.106C20.719,89.306 20.963,88.883 21.494,88.834C21.602,88.824 21.71,88.877 21.766,88.972C23.455,91.764 23.822,94.917 24.085,98.134C24.125,98.613 24.418,99.076 24.968,99.518Z" style="fill:white;fill-opacity:0.95;fill-rule:nonzero;"/>
    <path d="M66.624,94.941L63.403,96.631C62.27,97.23 61.087,97.671 59.862,97.955C58.818,98.199 58.148,98.409 57.848,98.591C55.687,99.91 56.193,101.982 56.048,104.113C56.039,104.221 56.063,104.329 56.113,104.425C57.16,106.497 58.358,108.436 59.707,110.239C60.322,111.057 61.026,111.715 61.819,112.215C63.604,113.339 64.805,112.388 65.698,110.878C66.244,109.952 67.127,109.452 68.184,109.313C69.993,109.063 71.812,108.686 72.392,106.706C72.93,107.716 74.064,112.008 73.655,115.418C73.63,115.627 73.621,116.408 73.004,117.011C72.786,117.223 72.559,117.394 72.346,117.548C71.874,117.897 71.33,118.212 70.719,118.487C69.962,118.827 69.147,119.049 68.279,119.157C68.159,119.172 68.085,119.213 68.054,119.281C68.02,119.355 68.041,119.441 68.125,119.54C66.362,119.904 64.629,119.886 62.922,119.481C62.823,119.46 62.721,119.466 62.628,119.503L61.761,119.855C60.065,120.259 58.333,120.318 56.564,120.031C56.52,119.778 56.323,119.617 55.968,119.552C54.921,119.355 53.88,119.024 52.898,118.407C52.389,118.082 51.246,117.496 49.477,116.643C47.229,115.56 45.543,113.027 44.731,110.653C43.919,108.272 43.804,105.332 43.807,102.192C43.81,99.703 43.82,98.406 43.832,98.301C44.311,94.068 47.624,91.983 51.252,90.35C52.126,89.958 52.867,89.661 53.476,89.46C55.619,88.759 57.824,88.173 60.093,87.7C62.255,87.249 63.768,86.91 64.629,86.681C65.194,86.53 65.698,86.372 66.145,86.206C66.714,85.993 69.351,84.943 69.366,85.048C69.462,85.644 70.799,87.7 70.799,89.791C70.799,90.62 70.484,91.325 69.993,91.912C69.051,93.036 67.927,94.046 66.624,94.941ZM58.185,114.102L54.615,106.663C54.587,106.605 54.519,106.58 54.461,106.601C51.194,107.793 51.817,111.607 53.976,113.577C55.004,114.519 56.579,114.324 58.064,114.297C58.163,114.294 58.228,114.192 58.185,114.102ZM66.803,112.008C66.325,111.975 65.985,112.462 66.183,112.898C66.488,113.574 66.958,114.074 67.588,114.402C69.453,115.365 71.648,114.306 72.917,112.756C73.26,112.336 73.081,111.548 72.451,111.666C71.719,111.802 70.969,112.021 70.197,112.32C69.375,112.641 68.613,112.697 67.822,112.33C67.405,112.135 67.066,112.03 66.803,112.008Z" style="fill:white;fill-opacity:0.25;fill-rule:nonzero;"/>
    <path d="M175.443,87.299C175.48,87.583 175.551,87.777 175.659,87.882C173.735,92.172 171.463,96.257 168.835,100.142C168.77,100.237 168.736,100.352 168.736,100.469C168.739,101.744 168.822,102.85 168.51,104.134C167.772,107.194 167.559,110.993 166.689,113.787C166.185,115.408 164.095,123.202 164.082,123.298C164.067,123.412 164.089,123.526 164.141,123.628C165.849,126.874 167.306,130.286 168.514,133.859C165.225,130.607 161.541,128.004 157.462,126.046C153.222,124.011 148.803,122.331 144.212,121.001L144.542,120.278C146.781,120.843 149.378,121.328 152.333,121.732C155.399,122.155 157.187,122.368 157.703,122.372C157.95,122.375 158.536,122.443 159.46,122.575C160.009,122.656 160.658,122.683 161.408,122.662C161.504,122.659 161.584,122.594 161.609,122.501C161.612,122.495 161.723,121.881 161.942,120.661C162.254,118.941 163.153,116.866 163.517,115.646C164.147,113.525 164.546,111.422 164.777,108.933C165.052,106.006 165.605,103.146 165.666,100.145C165.67,99.873 165.771,99.607 165.951,99.404C167.47,97.665 169.743,95.084 171.639,92.354C172.661,90.878 173.809,89.269 175.079,87.527C175.165,87.41 175.285,87.333 175.443,87.299Z" style="fill:white;fill-opacity:0.5;fill-rule:nonzero;"/>
    <path d="M100.539,92.49C100.894,92.592 101.329,92.724 101.845,92.882C102.336,93.033 102.759,93.2 103.108,93.385C104.278,94.006 105.245,94.756 106.008,95.633L107.178,97.977C107.221,98.06 107.224,98.159 107.187,98.249C107.058,98.567 106.977,98.77 106.946,98.863C105.195,103.825 103.537,107.969 101.972,111.301C99.511,116.538 97.065,120.936 94.635,124.496C91.612,128.921 87.891,132.812 83.472,136.168C83.339,136.27 83.274,136.44 83.305,136.604C84.21,141.193 85.01,145.188 85.297,150.009C85.603,155.172 85.822,158.747 85.948,160.739C86.097,163.067 86.131,165.442 86.047,167.86C86.019,168.654 85.797,169.265 85.374,169.697C84.306,170.302 83.25,170.905 82.209,171.507C80.909,172.251 79.822,172.788 78.948,173.116C74.699,174.706 70.32,175.493 65.809,175.481C64.602,175.478 63.092,175.212 62.066,175.169C59.713,175.067 57.416,174.502 55.214,173.687C55.152,173.662 55.115,173.6 55.122,173.536C55.767,168.428 56.276,164.052 56.65,160.406C57.052,156.465 57.289,153.232 57.366,150.703C57.453,147.785 57.073,144.006 55.403,141.588C54.523,140.319 53.476,139.269 52.262,138.441C46.905,134.782 41.436,131.178 35.856,127.633C31.789,123.74 28.074,119.311 24.712,114.352C22.257,110.73 20.367,107.898 19.039,105.854C18.987,105.771 18.983,105.666 19.033,105.579L19.95,103.971C20.237,103.693 20.506,103.402 20.753,103.1C21.426,102.278 22.229,101.719 22.976,101.031C23.081,100.935 23.195,100.849 23.319,100.778C23.918,100.423 24.468,100.003 24.968,99.518L25.548,99.546C25.641,99.549 25.731,99.589 25.799,99.654C26.716,100.543 27.701,101.543 28.485,102.473C32.422,107.16 35.609,110.906 38.045,113.71C39.432,115.306 40.667,116.501 41.751,117.289C42.745,118.008 44.24,118.836 46.231,119.768C49.928,121.501 53.683,122.986 57.499,124.231C57.641,124.277 57.786,124.175 57.796,124.027C57.867,122.656 57.456,121.325 56.564,120.031C58.333,120.318 60.065,120.259 61.761,119.855C63.586,120.229 65.265,121.025 66.803,122.242C66.945,122.353 67.109,122.436 67.285,122.483L69.712,123.134C69.749,123.245 69.792,123.313 69.842,123.341C70.32,123.604 70.78,123.866 71.216,124.132C71.302,124.181 71.404,124.19 71.497,124.153C71.957,123.965 72.343,123.783 72.661,123.607C77.907,120.723 82.604,117.131 86.748,112.836C89.49,109.995 91.389,106.83 93.369,103.019C95.104,99.675 96.741,96.223 98.275,92.659C98.34,92.505 98.495,92.409 98.661,92.416L100.539,92.49Z" style="fill:white;fill-opacity:0.95;fill-rule:nonzero;"/>
    <path d="M66.624,94.941C66.624,94.941 69.4,99.018 69.375,99.045C69.15,98.999 68.884,99.033 68.579,99.141C68.245,99.258 68.242,99.731 68.576,99.851L70.361,100.497C70.529,100.768 70.646,101.202 70.892,101.673L69.585,102.01C69.311,102.081 69.335,102.479 69.616,102.516C70.194,102.593 70.688,102.59 71.095,102.507L72.392,106.706C71.812,108.686 69.993,109.063 68.184,109.313C68.119,108.822 68.233,108.405 68.523,108.056C68.61,107.951 68.736,107.88 68.872,107.861C69.607,107.759 70.462,107.809 70.503,106.811C70.506,106.734 70.493,106.657 70.459,106.589C69.369,104.27 68.174,102.275 66.868,100.605C66.065,99.576 64.91,98.252 63.403,96.631L66.624,94.941Z" style="fill:white;fill-opacity:0.85;fill-rule:nonzero;"/>
    <path d="M63.403,96.631C64.91,98.252 66.065,99.576 66.868,100.605C68.174,102.275 69.369,104.27 70.459,106.589C70.493,106.657 70.506,106.734 70.503,106.811C70.462,107.809 69.607,107.759 68.872,107.861C68.736,107.88 68.61,107.951 68.523,108.056C68.233,108.405 68.119,108.822 68.184,109.313C67.127,109.452 66.244,109.952 65.698,110.878C64.805,112.388 63.604,113.339 61.819,112.215C61.026,111.715 60.322,111.057 59.707,110.239C58.358,108.436 57.16,106.497 56.113,104.425C56.063,104.329 56.039,104.221 56.048,104.113C56.193,101.982 55.687,99.91 57.848,98.591C58.148,98.409 58.818,98.199 59.862,97.955C61.087,97.671 62.27,97.23 63.403,96.631ZM66.413,100.384C66.223,100.037 65.238,100.206 64.214,100.764C63.19,101.321 62.514,102.056 62.704,102.406C62.894,102.754 63.879,102.584 64.903,102.027C65.926,101.469 66.603,100.734 66.413,100.384ZM66.46,102.877L63.403,104.455C63.397,104.458 63.394,104.468 63.397,104.474L63.4,104.48C63.623,104.912 64.466,104.922 65.284,104.499L65.407,104.437C66.226,104.014 66.707,103.322 66.485,102.89L66.482,102.884C66.476,102.874 66.467,102.874 66.46,102.877Z" style="fill:white;fill-opacity:0.95;fill-rule:nonzero;"/>
    <path d="M69.375,99.045C73.819,98.89 72.579,101.081 70.361,100.497L68.576,99.851C68.242,99.731 68.245,99.258 68.579,99.141C68.884,99.033 69.15,98.999 69.375,99.045Z" style="fill:white;fill-opacity:0.15;fill-rule:nonzero;"/>
    <path d="M66.413,100.384C66.603,100.734 65.926,101.469 64.903,102.027C63.879,102.584 62.894,102.754 62.704,102.406C62.514,102.056 63.19,101.321 64.214,100.764C65.238,100.206 66.223,100.037 66.413,100.384Z" style="fill:white;fill-opacity:0.15;fill-rule:nonzero;"/>
    <path d="M71.095,102.507C70.688,102.59 70.194,102.593 69.616,102.516C69.335,102.479 69.311,102.081 69.585,102.01L70.892,101.673C72.392,101.306 72.868,102.516 71.095,102.507Z" style="fill:white;fill-opacity:0.15;fill-rule:nonzero;"/>
    <path d="M243.192,128.322C243.22,128.248 243.229,128.177 243.226,128.109C243.223,128.056 243.192,127.995 243.137,127.924C242.148,126.651 241.559,124.87 242.05,123.289C242.185,122.853 242.411,122.356 242.723,121.8C242.812,121.64 243.078,121.569 243.513,121.59C244.89,121.655 246.363,121.155 246.629,119.66C246.845,118.459 246.478,117.557 245.53,116.962C245.236,116.776 244.86,116.786 244.572,116.983C243.34,117.835 241.237,118.694 240.882,116.375C240.725,115.35 240.666,114.519 240.7,113.88C240.79,112.24 240.743,110.671 240.558,109.18C240.469,108.476 240.039,107.877 239.264,107.386C238.758,107.154 238.236,107.102 237.702,107.235C237.161,107.367 236.448,107.605 235.562,107.948C234.645,108.303 233.839,108.25 233.138,107.797C232.773,107.157 232.628,106.534 232.706,105.925C232.857,104.699 233.468,103.745 234.54,103.063C234.734,102.939 235.299,102.742 236.238,102.47C236.797,102.309 237.381,102.186 237.992,102.099C242.562,101.454 247.886,102.726 251.323,106.002C252.03,106.676 252.576,107.688 253.015,108.856C253.614,110.446 254.327,112.002 256.257,112.299C256.677,112.364 257.418,112.345 258.48,112.237C260.691,112.015 263.52,112.265 265.401,113.537C267.859,115.201 269.013,117.669 268.868,120.939C268.788,122.745 268.201,124.32 267.108,125.663C266.345,126.599 265.305,127.13 263.986,127.257C263.925,127.263 263.708,127.355 263.338,127.535C262.939,127.726 262.742,128.013 262.739,128.399C262.717,131.231 261.025,133.531 258.156,133.899C256.09,134.164 254.25,133.729 252.629,132.59C251.245,131.614 249.976,131.175 248.818,131.271C248.695,131.28 248.571,131.268 248.454,131.231C246.589,130.663 244.897,129.878 243.655,128.39C243.569,128.285 243.414,128.263 243.192,128.322Z" style="fill:white;fill-opacity:0.25;fill-rule:nonzero;"/>
    <path d="M66.46,102.877C66.467,102.874 66.476,102.874 66.482,102.884L66.485,102.89C66.707,103.322 66.226,104.014 65.407,104.437L65.284,104.499C64.466,104.922 63.623,104.912 63.4,104.48L63.397,104.474C63.394,104.468 63.397,104.458 63.403,104.455L66.46,102.877Z" style="fill:white;fill-opacity:0.15;fill-rule:nonzero;"/>
    <path d="M261.973,146.368C261.266,143.095 260.16,139.976 258.663,137.008C259.642,136.437 260.596,135.897 261.531,135.387C268.995,131.302 275.952,126.621 282.397,121.349C283.789,120.21 285.571,118.573 287.745,116.433C288.029,116.156 288.285,115.865 288.285,115.532C288.285,111.31 291.858,108.349 292.519,108.133C292.63,108.096 292.753,108.142 292.812,108.241C293.019,108.596 292.411,111.61 292.411,111.61C292.337,111.789 292.503,111.975 292.689,111.919C293.464,111.687 294.044,111.107 294.412,110.307C294.625,109.847 297.568,105.098 298.404,105.116C298.503,105.119 298.593,105.172 298.648,105.252C298.942,105.687 299.139,106.018 299.244,106.24C300.026,107.917 300.405,110.795 299.365,113.429C298.83,114.784 297.883,115.624 297.144,116.251C296.104,117.134 294.934,117.857 293.627,118.416C292.587,118.861 291.629,119.537 290.774,119.799C290.641,119.839 290.524,119.923 290.444,120.037C290.209,120.371 289.906,120.979 289.496,121.498C283.283,129.31 276.187,136.19 268.207,142.137C267.077,142.98 264.999,144.389 261.973,146.368Z" style="fill:white;fill-opacity:0.85;fill-rule:nonzero;"/>
    <path d="M58.064,114.297C56.579,114.324 55.004,114.519 53.976,113.577C51.817,111.607 51.194,107.793 54.461,106.601C54.519,106.58 54.587,106.605 54.615,106.663L58.185,114.102C58.228,114.192 58.163,114.294 58.064,114.297Z" style="fill:white;fill-opacity:0.95;fill-rule:nonzero;"/>
    <path d="M231.683,110.038C232.53,108.629 233.138,107.797 233.138,107.797C233.839,108.25 234.645,108.303 235.562,107.948C236.448,107.605 237.161,107.367 237.702,107.235C238.236,107.102 238.758,107.154 239.264,107.386L238.023,107.346C237.782,107.34 237.55,107.445 237.399,107.633C236.865,108.294 236.213,108.939 235.445,109.569C235.318,109.671 235.201,109.782 235.092,109.902C234.234,110.841 233.255,112.033 232.153,113.481C231.418,114.448 230.828,115.43 230.386,116.43C230.272,116.684 230.374,116.983 230.618,117.116C230.976,117.31 231.517,117.301 231.807,117.52C232.338,117.919 232.458,118.41 232.171,118.987C231.859,119.614 231.665,120.056 231.591,120.312C230.717,120.411 229.877,120.33 229.068,120.071C228.852,120 228.623,120.13 228.571,120.352L228.376,121.186C228.342,121.334 228.416,121.485 228.552,121.553L229.852,122.174L229.244,123.628C229.145,123.869 229.086,124.126 229.077,124.388C229.04,125.348 229.195,126.37 229.54,127.448C229.593,127.606 229.719,127.729 229.877,127.779C233.681,128.943 237.791,128.183 241.463,127.047C241.63,126.994 241.812,127.016 241.966,127.102L242.408,127.359C242.661,127.504 242.602,127.884 242.315,127.948C239.082,128.671 235.052,130.326 232.915,133.003C232.221,133.877 231.748,135.041 231.192,136.131C230.884,136.734 230.491,137.154 230.112,137.648C230.05,137.725 229.933,137.725 229.874,137.648C229.262,136.854 229.015,135.983 229.133,135.038L229.303,134.958C229.414,134.905 229.513,134.828 229.587,134.733C231.1,132.818 232.085,131.009 231.554,128.464C231.535,128.381 231.467,128.322 231.384,128.316C230.621,128.254 229.849,128.047 229.068,127.692C227.774,127.102 227.024,126.126 226.817,124.762C226.706,124.027 226.719,122.72 226.909,121.754C227.518,118.671 228.694,115.743 229.862,113.373C229.849,113.573 229.896,113.726 230.006,113.784C230.226,113.9 230.619,113.589 230.879,113.091C231.141,112.594 231.174,112.094 230.953,111.979C230.837,111.918 230.673,111.975 230.506,112.116C230.753,111.652 230.995,111.217 231.226,110.815C231.488,110.852 231.753,110.896 232.023,110.945C232.313,110.999 232.507,110.651 232.304,110.434C232.14,110.256 231.927,110.128 231.683,110.038Z" style="fill:white;fill-opacity:0.85;"/>
    <path d="M239.264,107.386C240.039,107.877 240.469,108.476 240.558,109.18C240.743,110.671 240.79,112.24 240.7,113.88C240.666,114.519 240.725,115.35 240.882,116.375C241.237,118.694 243.34,117.835 244.572,116.983C244.86,116.786 245.236,116.776 245.53,116.962C246.478,117.557 246.845,118.459 246.629,119.66C246.363,121.155 244.89,121.655 243.513,121.59C243.078,121.569 242.812,121.64 242.723,121.8C242.411,122.356 242.185,122.853 242.05,123.289C241.559,124.87 242.148,126.651 243.137,127.924C243.192,127.995 243.223,128.056 243.226,128.109C243.229,128.177 243.22,128.248 243.192,128.322C242.195,129.363 241.62,130.595 241.475,132.015C241.466,132.114 241.466,132.213 241.481,132.312C241.701,133.837 242.189,135.282 242.948,136.647C242.998,136.734 243.078,136.801 243.174,136.839C244.276,137.255 245.134,137.478 245.746,137.512C249.547,137.712 253.602,137.024 257.363,136.082C257.452,136.057 257.545,136.057 257.637,136.079C258.119,136.187 258.462,136.499 258.663,137.008C260.16,139.976 261.266,143.095 261.973,146.368C262.05,146.612 262.053,146.853 261.982,147.084C261.794,147.711 260.049,148.594 259.54,148.823C256.288,150.271 252.925,151.086 249.448,151.272C247.657,151.404 245.974,151.392 244.396,151.231C243.936,151.185 243.485,151.383 243.204,151.75C242.216,153.047 240.95,154.347 240.107,155.61C238.715,157.694 237.566,159.967 236.661,162.428C234.95,167.072 235.309,171.806 236.031,176.71C236.047,176.803 235.969,176.883 235.877,176.874C229.537,176.228 223.479,174.7 217.698,172.291C217.843,170.763 217.902,168.61 217.868,165.834C217.843,163.815 217.772,162.249 217.658,161.141C217.531,159.933 217.365,158.297 217.152,156.237C217.019,154.962 216.948,154.156 216.932,153.822C216.852,151.874 216.729,150.574 217.328,148.925C217.649,148.045 218.063,146.837 218.569,145.306C218.689,144.938 218.714,144.599 218.637,144.28C218.612,144.185 218.544,144.104 218.452,144.064C215.311,142.767 213.035,140.572 210.781,137.873C210.516,137.555 210.411,137.24 210.466,136.928C210.479,136.866 210.5,136.808 210.531,136.752C210.812,136.249 210.997,135.73 211.084,135.196C211.704,134.217 212.205,133.05 212.757,132.207C213.52,131.036 214.354,129.922 215.265,128.859C215.848,128.177 216.818,127.587 217.559,126.902C217.782,126.923 218.013,126.843 218.257,126.655C218.43,126.525 218.68,126.58 218.779,126.772C220.876,130.777 224.513,133.578 228.765,135.023C228.815,135.038 228.938,135.044 229.133,135.038C229.015,135.983 229.262,136.854 229.874,137.648C229.933,137.725 230.05,137.725 230.112,137.648C230.491,137.154 230.884,136.734 231.192,136.131C231.748,135.041 232.221,133.877 232.915,133.003C235.052,130.326 239.082,128.671 242.315,127.948C242.602,127.884 242.661,127.504 242.408,127.359L241.966,127.102C241.812,127.016 241.63,126.994 241.463,127.047C237.791,128.183 233.681,128.943 229.877,127.779C229.719,127.729 229.593,127.606 229.54,127.448C229.195,126.37 229.04,125.348 229.077,124.388C229.086,124.126 229.145,123.869 229.244,123.628L229.852,122.174C230.572,122.396 231.291,122.424 232.008,122.254C232.425,122.155 232.823,121.856 233.206,121.359C233.379,121.133 233.36,120.815 233.163,120.608C232.826,120.266 232.304,120.167 231.591,120.312C231.665,120.056 231.859,119.614 232.171,118.987C232.458,118.41 232.338,117.919 231.807,117.52C231.517,117.301 230.976,117.31 230.618,117.116C230.374,116.983 230.272,116.684 230.386,116.43C230.828,115.43 231.418,114.448 232.153,113.481C233.255,112.033 234.234,110.841 235.092,109.902C235.201,109.782 235.318,109.671 235.445,109.569C236.213,108.939 236.865,108.294 237.399,107.633C237.55,107.445 237.782,107.34 238.023,107.346L239.264,107.386ZM238.051,113.648C238.159,113.719 238.239,113.698 238.295,113.583C238.322,113.525 238.316,113.469 238.27,113.41C237.584,112.527 235.855,111.03 234.626,111.409C234.342,111.496 234.336,111.894 234.614,111.993C235.932,112.462 237.078,113.015 238.051,113.648ZM234.56,113.502C234.339,113.386 233.947,113.698 233.687,114.195C233.425,114.692 233.391,115.192 233.612,115.307C233.833,115.424 234.225,115.112 234.485,114.614C234.747,114.118 234.781,113.617 234.56,113.502Z" style="fill:white;fill-opacity:0.95;fill-rule:nonzero;"/>
    <path d="M238.051,113.648C237.078,113.015 235.932,112.462 234.614,111.993C234.336,111.894 234.342,111.496 234.626,111.409C235.855,111.03 237.584,112.527 238.27,113.41C238.316,113.469 238.322,113.525 238.295,113.583C238.239,113.698 238.159,113.719 238.051,113.648Z" style="fill:white;fill-opacity:0.15;fill-rule:nonzero;"/>
    <path d="M66.803,112.008C67.066,112.03 67.405,112.135 67.822,112.33C68.613,112.697 69.375,112.641 70.197,112.32C70.969,112.021 71.719,111.802 72.451,111.666C73.081,111.548 73.26,112.336 72.917,112.756C71.648,114.306 69.453,115.365 67.588,114.402C66.958,114.074 66.488,113.574 66.183,112.898C65.985,112.462 66.325,111.975 66.803,112.008Z" style="fill:white;fill-opacity:0.95;fill-rule:nonzero;"/>
    <path d="M234.56,113.502C234.781,113.617 234.747,114.118 234.485,114.614C234.225,115.112 233.833,115.424 233.612,115.307C233.391,115.192 233.425,114.692 233.687,114.195C233.947,113.698 234.339,113.386 234.56,113.502Z" style="fill:white;fill-opacity:0.15;fill-rule:nonzero;"/>
    <path d="M231.226,110.815C231.488,110.852 231.753,110.896 232.023,110.945C232.313,110.999 232.507,110.651 232.304,110.434C232.14,110.256 231.927,110.128 231.683,110.038C231.537,110.281 231.384,110.54 231.226,110.815Z" style="fill:white;fill-opacity:0.15;"/>
    <path d="M230.506,112.116C230.673,111.975 230.837,111.918 230.953,111.979C231.174,112.094 231.141,112.594 230.879,113.091C230.619,113.589 230.226,113.9 230.006,113.784C229.896,113.726 229.849,113.573 229.862,113.373C230.078,112.934 230.294,112.514 230.506,112.116Z" style="fill:white;fill-opacity:0.15;"/>
    <path d="M68.125,119.54C68.187,119.562 68.239,119.586 68.282,119.617C68.329,119.645 68.353,119.694 68.356,119.762C68.415,120.747 68.77,121.621 69.416,122.387C69.514,122.504 69.613,122.754 69.712,123.134L67.285,122.483C67.109,122.436 66.945,122.353 66.803,122.242C65.265,121.025 63.586,120.229 61.761,119.855L62.628,119.503C62.721,119.466 62.823,119.46 62.922,119.481C64.629,119.886 66.362,119.904 68.125,119.54Z" style="fill:white;fill-opacity:0.95;fill-rule:nonzero;"/>
    <path d="M231.591,120.312C232.304,120.167 232.826,120.266 233.163,120.608C233.36,120.815 233.379,121.133 233.206,121.359C232.823,121.856 232.425,122.155 232.008,122.254C231.291,122.424 230.572,122.396 229.852,122.174L228.552,121.553C228.416,121.485 228.342,121.334 228.376,121.186L228.571,120.352C228.623,120.13 228.852,120 229.068,120.071C229.877,120.33 230.717,120.411 231.591,120.312Z" style="fill:white;fill-opacity:0.15;fill-rule:nonzero;"/>
    <path d="M168.514,133.859C168.615,134.053 168.776,134.47 168.995,135.115C171.043,141.125 172.355,146.942 172.926,152.565C173.019,153.479 173.111,154.202 173.201,154.73C173.451,156.228 173.352,157.518 173.606,159.093C173.766,160.084 173.735,162.085 173.547,163.549C173.445,164.361 173.352,165.433 173.269,166.758C173.241,167.208 173.111,167.57 172.886,167.838L165.132,163.731C156.986,159.702 148.476,157.08 139.604,155.869C136.229,155.409 132.761,155.252 129.198,155.391C127.954,155.394 127.175,155.403 126.857,155.425C125.736,155.502 124.155,155.675 122.12,155.947C122.222,155.017 122.472,154.18 122.874,153.439C123.664,151.985 124.674,150.549 125.903,149.129C133.222,140.677 140.691,131.932 144.212,121.001C148.803,122.331 153.222,124.011 157.462,126.046C161.541,128.004 165.225,130.607 168.514,133.859Z" style="fill:white;fill-opacity:0.95;fill-rule:nonzero;"/>
    <path d="M85.374,169.697C85.322,169.879 85.402,170.083 85.615,170.306C83.617,171.55 81.44,172.659 79.081,173.637C74.254,175.635 69.308,177.223 64.234,178.402C61.68,178.992 59.037,179.347 56.304,179.461C56.233,179.464 56.175,179.508 56.147,179.572C55.257,181.749 54.306,184.016 53.294,186.372C52.401,188.438 51.506,190.989 50.601,194.018C49.051,199.215 47.482,204.078 45.892,208.608C45.648,209.303 45.055,209.621 44.113,209.562C44.129,209.488 44.135,209.42 44.132,209.356C44.129,209.266 44.132,209.198 44.144,209.155C46.037,202.244 47.698,195.58 49.131,189.164C50.218,184.3 51.055,179.514 51.645,174.808C51.768,173.82 51.753,172.841 51.774,171.945C51.777,171.84 51.756,171.735 51.709,171.643C51.484,171.183 51.394,170.664 51.447,170.08C51.796,166.196 52.274,162.428 52.877,158.778C53.04,157.796 53.087,156.262 53.016,154.177C52.972,152.954 52.852,151.386 52.657,149.468C52.518,148.122 52.339,146.825 51.774,145.503C50.548,142.622 49.026,139.874 47.068,137.468C46.877,137.231 46.651,137.021 46.404,136.848C46.309,136.78 45.206,135.915 43.103,134.254C40.448,132.157 38.033,129.949 35.856,127.633C41.436,131.178 46.905,134.782 52.262,138.441C53.476,139.269 54.523,140.319 55.403,141.588C57.073,144.006 57.453,147.785 57.366,150.703C57.289,153.232 57.052,156.465 56.65,160.406C56.276,164.052 55.767,168.428 55.122,173.536C55.115,173.6 55.152,173.662 55.214,173.687C57.416,174.502 59.713,175.067 62.066,175.169C63.092,175.212 64.602,175.478 65.809,175.481C70.32,175.493 74.699,174.706 78.948,173.116C79.822,172.788 80.909,172.251 82.209,171.507C83.25,170.905 84.306,170.302 85.374,169.697Z" style="fill:white;fill-opacity:0.5;fill-rule:nonzero;"/>
    <path d="M194.026,130.552C194.236,130.431 194.502,130.521 194.6,130.74C195.203,132.086 196.07,133.587 197.207,135.239C197.654,135.891 197.945,136.715 198.084,137.706C198.429,140.177 196.444,141.242 194.588,142.125C193.896,142.452 193.529,142.956 193.134,143.623C192.951,143.932 192.599,144.089 192.269,144.009C191.726,143.879 191.407,143.215 191.506,142.684C191.803,141.1 193.529,140.14 194.832,139.405C195.956,138.772 196.237,137.821 195.672,136.554C195.351,135.835 194.807,134.813 194.045,133.491C193.56,132.657 193.022,131.12 194.026,130.552Z" style="fill:white;fill-opacity:0.5;fill-rule:nonzero;"/>
    <path d="M31.135,138.33L24.387,139.948C24.258,139.979 24.122,139.939 24.032,139.84C23.628,139.395 23.371,139.046 23.263,138.796C22.813,137.74 22.217,136.27 21.472,134.387C21.386,134.171 21.553,133.936 21.784,133.942C23.019,133.97 23.899,133.976 25.206,133.633C25.255,133.621 25.984,133.457 27.395,133.139C27.481,133.121 27.562,133.179 27.568,133.266C27.62,133.899 27.676,134.279 27.738,134.405C28.494,135.937 29.64,137.147 31.178,138.034C31.304,138.108 31.277,138.296 31.135,138.33Z" style="fill:white;fill-opacity:0.75;fill-rule:nonzero;"/>
    <path d="M249.448,151.272C246.672,154.613 244.727,157.166 243.618,158.93C242.176,161.224 241.25,163.765 240.839,166.554C240.598,168.181 240.283,170.389 239.894,173.171C239.866,173.366 240.666,182.04 240.848,183.574C241.055,185.31 241.065,187.215 240.879,189.287C240.771,190.485 240.722,191.529 240.728,192.418C240.737,193.934 240.722,194.978 240.685,195.556C240.277,202.117 239.786,208.395 239.209,214.392C239.196,214.509 239.227,214.617 239.301,214.719L238.372,215.735C238.177,215.948 237.822,215.837 237.785,215.553C237.578,213.991 237.618,212.326 237.535,210.816C236.769,196.982 236.278,188.271 236.059,184.686C235.914,182.311 235.642,179.752 234.219,177.806C234.154,177.72 234.061,177.664 233.959,177.646C229.877,176.942 225.927,176.108 221.814,174.783C220.057,174.215 218.538,173.582 217.263,172.887L217.698,172.291C223.479,174.7 229.537,176.228 235.877,176.874C235.969,176.883 236.047,176.803 236.031,176.71C235.309,171.806 234.95,167.072 236.661,162.428C237.566,159.967 238.715,157.694 240.107,155.61C240.95,154.347 242.216,153.047 243.204,151.75C243.485,151.383 243.936,151.185 244.396,151.231C245.974,151.392 247.657,151.404 249.448,151.272Z" style="fill:white;fill-opacity:0.5;fill-rule:nonzero;"/>
    <path d="M165.132,163.731L164.709,167.434C164.573,168.017 164.487,168.598 164.447,169.172C164.391,169.966 164.237,170.565 164.147,171.315C163.74,174.666 163.23,177.831 162.619,180.811C162.597,180.916 162.69,181.011 162.795,180.987C171.432,179.159 179.439,175.737 186.822,170.726C186.844,170.71 186.865,170.695 186.887,170.676L188.916,168.66C189.385,169.62 190.114,170.383 190.629,171.071C191.874,172.736 193.112,174.403 194.338,176.08C194.817,176.735 195.261,177.42 195.675,178.137C196.635,179.792 196.481,181.308 195.212,182.688L190.027,177.405C189.981,177.358 189.941,177.309 189.907,177.253L189.215,176.182C189.156,176.092 189.027,176.08 188.953,176.16C188.536,176.608 185.874,178.902 180.973,183.043C176.786,186.585 172.275,189.438 167.071,191.069C163.903,192.06 161.322,192.906 158.62,192.798C158.305,192.783 158.005,192.659 157.777,192.446C156.27,191.038 155.041,189.377 154.087,187.462C150.526,180.307 149.06,172.297 148.044,164.445C147.948,163.805 147.871,163.166 147.815,162.533C147.701,161.276 147.377,160.038 147.463,158.732C147.469,158.627 147.33,158.581 147.278,158.673L144.31,163.781C144.233,163.778 144.171,163.815 144.125,163.898C141.849,167.977 139.521,172.594 137.14,177.744C137.097,177.837 137.091,177.945 137.125,178.041C138.678,182.775 139.814,186.035 140.54,187.823C143.072,194.061 146.043,200.234 149.449,206.339C149.501,206.431 149.594,206.496 149.699,206.508C150.622,206.629 151.502,206.987 152.339,207.583C151.545,208.513 150.804,209.816 150.313,210.541C148.05,213.876 147.068,215.482 145.515,217.301C145.252,217.607 144.848,217.897 144.301,218.169C143.208,218.715 142.18,218.681 141.216,218.073C142.319,215.958 143.384,213.808 144.409,211.625C144.551,211.329 144.9,211.051 145.033,210.717C145.073,210.615 145.045,210.501 144.965,210.427C141.371,207.126 138.258,203.204 135.321,199.212C131.468,193.981 127.975,188.669 124.844,183.281C124.263,182.281 123.797,181.32 123.445,180.403C123.408,180.301 123.387,180.199 123.377,180.094C123.241,178.152 123.272,176.512 123.47,175.175C123.998,171.615 124.829,168.07 125.962,164.547C126.502,162.87 127.058,161.236 127.629,159.643L129.198,155.391C132.761,155.252 136.229,155.409 139.604,155.869C148.476,157.08 156.986,159.702 165.132,163.731Z" style="fill:white;fill-opacity:0.75;fill-rule:nonzero;"/>
    <path d="M129.198,155.391L127.629,159.643C125.721,158.939 124.007,157.957 122.491,156.694C122.334,156.564 122.21,156.314 122.12,155.947C124.155,155.675 125.736,155.502 126.857,155.425C127.175,155.403 127.954,155.394 129.198,155.391Z" style="fill:white;fill-opacity:0.5;fill-rule:nonzero;"/>
    <path d="M148.044,164.445L144.31,163.781L147.278,158.673C147.33,158.581 147.469,158.627 147.463,158.732C147.377,160.038 147.701,161.276 147.815,162.533C147.871,163.166 147.948,163.805 148.044,164.445Z" style="fill:white;fill-opacity:0.5;fill-rule:nonzero;"/>
    <path d="M30.063,169.91C30.597,169.623 30.934,168.931 31.07,167.835C31.239,166.449 27.488,166.087 26.691,165.955C23.427,165.417 21.667,163.435 22.553,159.964C22.649,159.594 22.908,159.288 23.26,159.13L23.282,159.121C23.544,159.004 23.835,159.22 23.798,159.504C23.412,162.388 24.313,164.006 26.496,164.361C26.617,164.38 27.867,164.624 30.248,165.093C30.48,165.139 30.85,165.294 31.354,165.556C33.815,166.838 32.898,170.293 30.103,170.102C30.001,170.096 29.973,169.96 30.063,169.91Z" style="fill:white;fill-opacity:0.75;fill-rule:nonzero;"/>
    <path d="M172.886,167.838C172.797,168.156 172.593,168.323 172.281,168.342C171.623,168.382 170.968,168.406 170.311,168.413C170.289,168.413 170.268,168.413 170.246,168.41L164.709,167.434L165.132,163.731L172.886,167.838Z" style="fill:white;fill-opacity:0.5;fill-rule:nonzero;"/>
    <path d="M195.212,182.688C196.481,181.308 196.635,179.792 195.675,178.137C195.261,177.42 194.817,176.735 194.338,176.08C193.112,174.403 191.874,172.736 190.629,171.071C190.114,170.383 189.385,169.62 188.916,168.66C189.613,168.061 190.626,167.381 191.954,166.625C192.939,166.063 193.748,166.186 194.387,166.992C194.835,167.557 195.261,168.487 195.66,169.787C195.703,169.929 195.755,170.068 195.817,170.201C197.648,174.144 199.235,177.68 200.579,180.814C201.091,182.003 201.511,183.266 201.835,184.597C201.934,185.007 201.777,185.433 201.437,185.68C200.551,186.32 199.581,186.468 198.531,186.122C197.126,185.659 196.061,184.109 195.212,182.688Z" style="fill:white;fill-opacity:0.95;fill-rule:nonzero;"/>
    <path d="M85.615,170.306C85.893,170.895 86.199,171.569 86.535,172.325C92.081,184.788 96.413,197.421 99.529,210.22C101.83,219.663 103.364,228.646 104.127,237.172C104.275,238.845 104.532,240.161 104.525,241.39C104.519,243.212 104.862,244.953 104.853,246.809C104.85,247.581 104.847,249.005 104.84,251.08C104.837,252.201 104.652,253.343 104.482,254.492C104.473,254.56 104.442,254.622 104.393,254.671L103.71,255.366C103.015,255.437 102.293,255.517 101.539,255.607C100.733,255.702 100.011,255.761 99.365,255.776C96.929,255.841 94.502,255.795 92.081,255.638L89.731,255.051C89.555,255.004 89.435,254.844 89.441,254.665C89.459,254.038 89.435,253.445 89.364,252.886C88.882,249.008 87.977,244.589 86.652,239.63C84.185,230.4 81.279,221.334 77.935,212.431C75.823,206.805 73.606,201.2 71.281,195.614C71.213,195.451 70.981,195.454 70.916,195.617C70.864,195.744 70.898,196.071 70.824,196.34C69.175,202.293 67.291,207.997 65.176,213.453C63.814,216.973 62.14,220.293 60.161,223.409C58.694,225.719 56.817,227.627 54.532,229.137C54.421,229.211 54.297,229.27 54.167,229.304C53.111,229.591 52.145,229.717 51.265,229.683C49.131,229.606 47.516,229.418 46.426,229.115C46.062,229.013 45.114,228.683 43.585,228.127C42.724,227.815 41.813,227.392 40.858,226.864C38.669,225.651 36.795,224.576 35.235,223.64C29.899,220.438 24.993,216.853 20.518,212.885C20.058,212.477 19.607,212.017 19.159,211.502C19.175,211.4 19.169,211.27 19.135,211.106C18.974,210.276 19.712,208.531 20.123,207.636C21.17,205.357 22.244,203.479 23.353,202.006C23.535,201.762 23.776,201.586 24.079,201.478C24.177,201.441 24.282,201.441 24.381,201.478L25.758,201.982C30.409,204.174 35.102,206.336 39.839,208.466C40.528,208.775 41.856,209.288 43.826,210.007C43.912,210.038 44.005,209.989 44.027,209.902L44.113,209.562C45.055,209.621 45.648,209.303 45.892,208.608C47.482,204.078 49.051,199.215 50.601,194.018C51.506,190.989 52.401,188.438 53.294,186.372C54.306,184.016 55.257,181.749 56.147,179.572C56.175,179.508 56.233,179.464 56.304,179.461C59.037,179.347 61.68,178.992 64.234,178.402C69.308,177.223 74.254,175.635 79.081,173.637C81.44,172.659 83.617,171.55 85.615,170.306Z" style="fill:white;fill-opacity:0.95;fill-rule:nonzero;"/>
    <path d="M108.589,178.427C108.595,178.482 108.537,178.526 108.484,178.501C107.65,178.112 106.613,177.661 105.372,177.148C105.029,177.009 104.655,176.707 104.254,176.241C104.186,176.16 104.152,176.058 104.158,175.956C104.254,174.576 104.587,173.208 105.155,171.85C105.195,171.754 105.304,171.707 105.402,171.745C106.486,172.164 107.465,172.016 108.336,171.303C108.404,171.247 108.503,171.275 108.534,171.355C108.932,172.402 108.706,174.616 108.568,176.796C108.534,177.358 108.54,177.902 108.589,178.427Z" style="fill:white;fill-opacity:0.95;fill-rule:nonzero;"/>
    <path d="M217.263,172.887C218.538,173.582 220.057,174.215 221.814,174.783C225.927,176.108 229.877,176.942 233.959,177.646C234.061,177.664 234.154,177.72 234.219,177.806C235.642,179.752 235.914,182.311 236.059,184.686C236.278,188.271 236.769,196.982 237.535,210.816C237.618,212.326 237.578,213.991 237.785,215.553C237.822,215.837 238.177,215.948 238.372,215.735L239.301,214.719C239.403,214.821 239.564,214.895 239.783,214.942C242.51,215.501 244.498,215.819 245.749,215.893C247.145,215.976 248.445,216.056 249.649,216.137C251.252,216.242 257.326,215.457 257.326,215.457C257.406,215.442 257.486,215.442 257.566,215.463C257.937,215.559 258.224,215.692 258.425,215.856C258.508,215.921 258.564,216.013 258.585,216.112L259.305,219.206C259.614,222.183 259.302,224.446 258.857,227.618C258.49,229.378 257.934,231.357 257.187,233.553C257.051,233.951 256.856,234.244 256.603,234.439C256.535,234.488 256.452,234.516 256.368,234.516C254.08,234.516 251.224,234.071 247.793,233.182C243.411,232.046 238.986,230.551 234.518,228.701C232.366,227.809 230.674,226.935 229.438,226.077C228.157,225.184 227.042,223.755 226.094,221.784C224.76,219.018 223.627,215.516 222.694,211.279C221.901,207.694 221.333,204.433 220.984,201.497C220.678,198.937 220.48,197.263 220.385,196.479C220.348,196.179 220.332,195.803 220.338,195.346C220.338,195.281 220.264,195.241 220.212,195.278C219.708,195.639 219.063,196.3 218.276,197.266C217.896,197.733 217.281,198.409 216.435,199.292C212.705,203.18 209.061,206.542 205.504,209.377C205.322,209.522 205.177,209.711 205.078,209.921C204.797,210.532 204.627,211.227 204.571,212.005C203.781,222.773 204.435,233.512 207.063,244.027C207.153,244.391 206.965,244.768 206.616,244.91C204.593,245.731 202.345,246.077 200.19,246.596L199.572,246.473C199.501,246.457 199.424,246.463 199.353,246.491C198.809,246.704 198.417,246.809 198.173,246.806C196.101,246.781 194.054,246.787 192.031,246.825C189.32,246.877 186.383,246.491 184.012,245.176C183.929,245.129 183.851,245.071 183.783,245C183.487,244.694 183.379,244.147 183.459,243.36C184.494,233.389 185.902,224.351 187.677,216.239C188.369,213.083 189.459,209.649 190.944,205.934C191.939,203.448 193.236,201.006 194.832,198.606C197.034,195.302 199.387,192.199 201.894,189.299C203.972,186.894 205.05,185.646 205.127,185.557C206.038,184.482 206.838,183.602 207.52,182.914C208.678,181.753 209.509,180.7 210.756,179.421C212.927,177.192 215.098,175.015 217.263,172.887Z" style="fill:white;fill-opacity:0.95;fill-rule:nonzero;"/>
    <path d="M262.822,180.276C262.294,181.771 261.599,183.015 260.735,184.007C259.737,185.155 258.261,185.863 257.319,186.9C257.255,186.974 257.137,186.968 257.079,186.888L256.344,185.884C256.307,185.835 256.288,185.779 256.288,185.721C256.223,183.611 255.803,180.882 255.989,178.421C256.013,178.09 256.266,177.822 256.597,177.775C256.702,177.76 256.875,177.812 257.113,177.933C259.005,178.865 260.654,179.816 262.729,180.125C262.801,180.138 262.847,180.209 262.822,180.276Z" style="fill:white;fill-opacity:0.95;fill-rule:nonzero;"/>
    <path d="M280.127,183.192C280.195,183.198 280.257,183.145 280.26,183.074C280.312,181.141 279.373,179.965 277.934,178.859C277.672,178.658 277.703,178.251 277.993,178.093C278.719,177.698 279.692,178.276 280.223,178.813C281.643,180.239 282.205,181.925 281.912,183.871C281.896,183.976 281.93,184.081 282.004,184.158C282.699,184.871 283.184,185.572 283.456,186.258C284.126,187.941 284.734,189.775 285.281,191.754C285.389,192.15 285.126,192.548 284.722,192.607L284.691,192.61C284.252,192.671 283.832,192.418 283.684,192.004C282.687,189.216 282.261,187.465 281.217,186.11C281.155,186.026 281.025,186.029 280.967,186.119C280.133,187.369 278.611,188.688 277.113,187.7C276.31,187.172 276.106,186.4 276.505,185.39C277.15,183.738 278.358,183.006 280.127,183.192ZM279.319,185.054C279.25,184.983 278.963,185.143 278.679,185.413C278.395,185.683 278.222,185.961 278.292,186.035C278.361,186.107 278.648,185.946 278.931,185.676C279.216,185.406 279.389,185.128 279.319,185.054Z" style="fill:white;fill-opacity:0.75;fill-rule:nonzero;"/>
    <path d="M25.758,201.982L24.381,201.478C24.282,201.441 24.177,201.441 24.079,201.478C23.776,201.586 23.535,201.762 23.353,202.006C22.244,203.479 21.17,205.357 20.123,207.636C19.712,208.531 18.974,210.276 19.135,211.106C19.169,211.27 19.175,211.4 19.159,211.502C18.774,211.715 18.409,211.789 18.063,211.724C17.968,211.705 17.869,211.718 17.782,211.764C15.747,212.854 13.7,214.343 10.939,216.121C9.114,217.295 7.154,218.131 5.057,218.635C4.202,218.842 3.241,218.845 2.179,218.644C0.999,218.425 0.274,217.77 0.002,216.686C-0.205,215.871 16.019,194.083 17.776,194.997C18.582,195.42 19.209,195.75 19.657,195.988C19.814,196.071 19.959,196.173 20.092,196.294C20.651,196.797 21.269,196.998 21.849,197.504C21.985,197.625 22.973,198.514 24.814,200.175C25.113,200.444 25.428,201.046 25.758,201.982Z" style="fill:white;fill-opacity:0.75;fill-rule:nonzero;"/>
    <path d="M152.339,207.583C153.568,208.296 154.698,209.176 155.726,210.22C155.801,210.297 155.865,210.39 155.912,210.489C156.193,211.113 156.085,211.758 155.587,212.422C154.763,213.518 153.377,214.407 152.385,215.371C149.609,218.067 146.92,220.589 144.32,222.939C143.532,223.653 142.6,224.295 141.815,224.866C140.565,225.774 139.546,224.372 139.157,223.353C138.468,221.553 140.123,219.459 141.216,218.073C142.18,218.681 143.208,218.715 144.301,218.169C144.848,217.897 145.252,217.607 145.515,217.301C147.068,215.482 148.05,213.876 150.313,210.541C150.804,209.816 151.545,208.513 152.339,207.583Z" style="fill:white;fill-opacity:0.95;fill-rule:nonzero;"/>
    <path d="M272.808,233.361C273.698,233.235 274.269,232.765 274.519,231.95C274.763,231.153 274.865,230.588 274.822,230.252C274.732,229.551 274.365,228.411 273.719,226.836C272.586,224.057 271.505,221.263 270.477,218.456C271.956,217.755 273.411,217.307 274.847,217.109C274.964,217.094 275.087,217.112 275.195,217.165C276.783,217.943 276.542,220.627 276.78,221.957C277.505,226.018 278.151,230.094 278.722,234.189C278.784,234.633 278.824,235.127 278.839,235.671C278.87,236.773 279.096,237.777 278.129,238.113C274.714,239.299 273.645,235.686 272.808,233.361Z" style="fill:white;fill-opacity:0.95;fill-rule:nonzero;"/>
    <path d="M270.477,218.456C271.505,221.263 272.586,224.057 273.719,226.836C274.365,228.411 274.732,229.551 274.822,230.252C274.865,230.588 274.763,231.153 274.519,231.95C274.269,232.765 273.698,233.235 272.808,233.361L269.344,227.324C269.288,227.232 269.251,227.127 269.23,227.022C269.177,226.765 269.084,226.518 268.958,226.281C268.902,226.172 268.779,226.117 268.658,226.148C266.747,226.645 258.857,227.618 258.857,227.618C259.302,224.446 259.614,222.183 259.305,219.206L267.784,220.182C267.893,220.194 268.001,220.151 268.072,220.068C268.748,219.289 269.548,218.752 270.477,218.456Z" style="fill:white;fill-opacity:0.85;fill-rule:nonzero;"/>
    <path d="M138.471,239.083C138.653,238.994 138.752,238.997 138.835,239.111L141.284,242.455C141.386,242.591 141.355,242.782 141.219,242.884C138.968,244.552 136.424,245.003 133.586,244.237C133.475,244.209 133.404,244.104 133.413,243.99C133.509,242.894 133.571,241.89 133.604,240.979C133.62,240.504 133.895,240.21 134.426,240.099C136.013,239.769 137.313,239.651 138.471,239.083Z" style="fill:white;fill-opacity:0.75;fill-rule:nonzero;"/>
    <path d="M200.19,246.596L199.433,254.412C199.421,254.535 199.489,254.649 199.597,254.702C200.239,255.014 200.705,255.888 201.134,256.866C198.377,258.077 195.623,259.263 192.871,260.424C191.42,261.035 190.283,261.375 189.465,261.44C188.045,261.554 186.97,261.066 186.241,259.97C186.186,259.886 186.09,259.837 185.988,259.84L185.608,259.856L192.318,255.956C192.352,255.937 192.386,255.922 192.423,255.909L193.266,255.631C193.396,255.588 193.473,255.455 193.442,255.323C192.779,252.54 192.306,249.709 192.031,246.825C194.054,246.787 196.101,246.781 198.173,246.806C198.417,246.809 198.809,246.704 199.353,246.491C199.424,246.463 199.501,246.457 199.572,246.473L200.19,246.596Z" style="fill:white;fill-opacity:0.85;fill-rule:nonzero;"/>
    <path d="M36.054,248.826C36.094,248.835 36.106,248.884 36.078,248.912C35.316,249.684 34.185,250.913 32.694,252.599C32.021,253.359 31.554,253.439 30.681,252.899C28.3,251.422 26.509,250.326 25.311,249.607C25.042,249.446 24.952,249.1 25.11,248.829C25.585,248.004 27.509,247.266 28.436,247.05C28.445,247.047 28.457,247.047 28.47,247.05L36.054,248.826Z" style="fill:white;fill-opacity:0.95;fill-rule:nonzero;"/>
    <path d="M221.901,253.661C221.904,253.664 221.904,253.677 221.907,253.695C221.91,253.757 221.95,253.813 222.006,253.837C222.231,253.936 222.426,253.93 222.586,253.816C222.685,253.745 222.645,253.59 222.525,253.575L222.237,253.544C222.142,253.532 222.102,253.414 222.169,253.346C222.5,253.019 222.852,252.994 223.232,253.269C224.847,254.449 226.437,255.508 228.003,256.443C228.092,256.499 228.086,256.629 227.993,256.675L221.691,259.701C221.564,259.763 221.416,259.698 221.373,259.565C220.857,257.963 220.051,256.286 218.961,254.529C218.779,254.236 218.921,253.85 219.248,253.745C220.011,253.501 220.817,253.405 221.663,253.454C221.78,253.461 221.879,253.544 221.901,253.661Z" style="fill:white;fill-opacity:0.95;fill-rule:nonzero;"/>
    <path d="M103.71,255.366C104.461,255.82 105.338,256.153 106.341,256.363C107.082,256.518 108.617,256.882 110.942,257.459C113.632,258.123 121.45,260.807 120.16,264.96C120.014,265.426 119.761,265.732 119.406,265.88C119.354,265.902 119.298,265.92 119.239,265.93C117.825,266.192 115.988,266.529 114.694,266.6C113.777,266.649 112.063,266.915 109.559,267.396C108.293,267.64 105.35,268.026 100.733,268.561C99.656,268.684 98.593,268.752 97.547,268.767C97.266,268.77 96.203,268.842 94.36,268.98C93.137,269.073 92.34,268.523 91.973,267.332C91.087,264.463 90.772,261.517 91.022,258.494C91.111,257.404 91.467,256.453 92.081,255.638C94.502,255.795 96.929,255.841 99.365,255.776C100.011,255.761 100.733,255.702 101.539,255.607C102.293,255.517 103.015,255.437 103.71,255.366Z" style="fill:white;fill-opacity:0.75;fill-rule:nonzero;"/>
    <path d="M201.134,256.866C201.91,258.407 202.394,259.868 202.589,261.254C202.811,262.848 199.646,263.129 198.433,263.262C197.821,263.326 197.139,263.435 196.385,263.583C193.266,264.2 189.765,264.815 185.877,265.423C184.833,265.584 183.49,265.602 182.622,265.627C182.202,265.639 181.816,265.383 181.659,264.991C180.547,262.212 183.224,260.325 185.608,259.856L185.988,259.84C186.09,259.837 186.186,259.886 186.241,259.97C186.97,261.066 188.045,261.554 189.465,261.44C190.283,261.375 191.42,261.035 192.871,260.424C195.623,259.263 198.377,258.077 201.134,256.866Z" style="fill:white;fill-opacity:0.95;fill-rule:nonzero;"/>
</svg>
