<?xml version="1.0" encoding="UTF-8" standalone="no"?>
<!DOCTYPE svg PUBLIC "-//W3C//DTD SVG 1.1//EN" "http://www.w3.org/Graphics/SVG/1.1/DTD/svg11.dtd">
<svg width="100%" height="100%" viewBox="0 0 300 300" version="1.1" xmlns="http://www.w3.org/2000/svg" xmlns:xlink="http://www.w3.org/1999/xlink" xml:space="preserve" xmlns:serif="http://www.serif.com/" style="fill-rule:evenodd;clip-rule:evenodd;stroke-linejoin:round;stroke-miterlimit:2;">
    <path d="M241.939,102.557L238.337,102.063L235.282,100.955C230.459,96.68 231.467,86.996 232.993,81.555C233.248,80.641 233.59,79.802 234.011,79.043C234.227,78.651 234.548,78.323 234.94,78.096C236.16,77.388 237.355,76.632 238.517,75.837C241.414,73.854 244.286,70.169 245.023,66.494C245.984,61.708 243.371,57.357 238.265,57.073C235.501,56.918 232.943,57.17 231.201,54.655C227.883,49.865 229.222,43.402 230.906,38.367C232.194,34.52 232.914,32.235 233.065,31.505C233.662,28.622 232.986,26.265 231.032,24.441C227.559,21.198 222.409,19.86 218.116,19.068C213.988,18.373 209.451,17.78 205.258,18.427C203.761,18.658 202.35,19.111 201.023,19.791C199.713,20.464 198.453,21.263 197.248,22.188C196.333,20.644 195.355,19.176 194.307,17.787C193.199,16.315 192.562,15.329 192.4,14.821C191.893,13.234 191.583,11.874 192.105,10.172C192.728,8.146 193.836,6.462 195.423,5.119C198.658,2.384 203.121,0.844 207.216,0.38C210.199,0.042 212.322,-0.07 213.585,0.042C214.881,0.157 216.198,0.301 217.533,0.474C218.53,0.6 219.347,0.754 219.984,0.931C221.305,1.298 225.796,2.633 227.282,3.299C228.905,4.029 230.967,5.08 233.464,6.458C235.235,7.437 238.045,8.455 240.507,9.172C241.612,9.495 243.649,10.208 246.61,11.309C252.764,13.594 258.191,16.714 262.891,20.676C264.179,21.76 266.133,23.519 267.59,25.128C268.652,26.298 269.278,26.985 269.476,27.186C270.977,28.737 272.168,30.407 273.456,31.926C273.708,32.221 273.895,32.563 274.01,32.937C274.687,35.129 275.122,37.403 275.313,39.76C275.396,40.775 275.392,41.721 275.306,42.603C275.281,42.826 275.223,43.773 275.13,45.442C275.061,46.666 274.903,47.828 274.655,48.926C274.295,50.513 274.122,52.046 273.672,53.511C272.974,55.77 272.013,58.473 270.79,61.615C270.527,62.291 269.523,64.548 269.246,65.084C265.701,71.939 262.703,77.128 260.249,80.659C257.791,84.189 255.222,87.669 252.537,91.106C252.35,91.343 244.303,100.62 241.939,102.557Z" style="fill:white;fill-opacity:0.35;fill-rule:nonzero;"/>
    <path d="M218.116,19.068C217.76,19.906 217.198,20.637 216.432,21.263C215.378,22.13 214.237,23.149 213.01,24.318C208.742,28.399 204.869,32.505 201.397,36.633C200.551,37.637 199.918,38.382 199.5,38.871C196.413,42.495 193.487,46.472 190.727,50.794C189.251,53.1 187.995,55.353 186.959,57.552C186.495,58.534 186.171,59.581 185.98,60.697C185.959,60.837 185.987,60.985 186.063,61.104C186.563,61.87 187.103,62.309 187.686,62.421C190.687,62.997 191.774,63.266 193.588,65.562C195.743,68.294 194.934,71.885 194.3,74.976C194.246,75.243 194.07,75.703 193.764,76.362C193.688,76.524 193.577,76.664 193.437,76.772L192.483,77.503C190.392,77.251 188.323,76.733 186.275,75.944C185.962,75.822 185.667,75.657 185.401,75.455C184.627,74.868 184.249,74.494 183.53,74.386C182.864,74.289 182.378,75.174 182.299,75.639C181.777,78.629 182.705,80.86 185.091,82.339C185.063,83.21 185.797,83.829 187.29,84.196C188.773,84.56 190.209,84.776 191.594,84.837C191.796,84.848 191.979,84.948 192.094,85.11C192.35,85.474 192.49,85.819 192.512,86.15C192.609,87.554 192.803,88.81 193.098,89.922C193.505,91.455 193.775,92.703 193.901,93.668C194.156,95.618 194.433,97.126 194.261,98.843C194.041,100.991 193.793,102.438 192.602,104.154C189.899,103.424 187.2,102.621 184.512,101.747C181,100.61 178.193,98.771 176.343,95.514C174.209,91.757 173.518,87.32 173.777,83.009C173.831,82.077 173.997,80.378 174.274,77.906C174.457,76.254 174.767,74.577 175.199,72.875C175.947,69.928 176.296,67.984 177.232,64.767C178.689,59.758 180.463,54.529 182.561,49.077C183.126,47.605 183.72,46.09 184.343,44.528L186.254,44.996C186.516,45.061 186.642,45.363 186.498,45.593C185.782,46.749 185.379,48.692 186.488,49.7C186.725,49.915 187.085,49.923 187.33,49.714C188.204,48.965 188.665,48.149 188.719,47.26C188.73,47.101 188.902,47.008 189.039,47.087L189.917,47.594C190.194,47.756 190.536,47.515 190.471,47.198C190.381,46.734 190.194,46.324 189.917,45.968C188.726,44.435 187.182,43.323 185.293,42.628C186.11,40.444 186.732,38.961 187.168,38.177C187.355,37.835 187.643,37.748 188.035,37.914L191.839,39.436C192.159,39.566 192.53,39.454 192.728,39.17C193.347,38.27 192.404,37.075 191.745,36.489C190.878,35.715 189.903,35.154 188.816,34.812C190.651,31.332 192.505,28.158 194.372,25.294C195.139,24.117 196.1,23.08 197.248,22.188C198.453,21.263 199.713,20.464 201.023,19.791C202.35,19.111 203.761,18.658 205.258,18.427C209.451,17.78 213.988,18.373 218.116,19.068Z" style="fill:white;fill-opacity:0.75;fill-rule:nonzero;"/>
    <path d="M235.282,100.955C234.807,101.283 234.296,101.063 233.745,100.289C233.49,99.933 233.119,99.4 232.633,98.692C232.489,98.483 232.216,98.407 231.985,98.512C230.038,99.386 228.002,100.034 225.878,100.462C224.842,100.671 224.05,101.142 223.104,101.265C222.438,101.355 221.733,101.513 220.988,101.743C219.199,102.301 217.432,102.88 215.68,103.481C214.777,103.791 214.028,104.018 213.434,104.158C212.214,104.449 211.455,104.637 211.156,104.719C209.922,105.05 208.77,105.255 207.702,105.338C204.848,105.554 202.71,105.637 201.296,105.59C199.202,105.518 196.733,105.151 193.886,104.493C193.768,104.464 192.886,104.316 192.602,104.154C193.793,102.438 194.041,100.991 194.261,98.843C194.433,97.126 194.156,95.618 193.901,93.668C193.775,92.703 193.505,91.455 193.098,89.922C192.803,88.81 192.609,87.554 192.512,86.15C192.49,85.819 192.35,85.474 192.094,85.11C191.979,84.948 191.796,84.848 191.594,84.837C190.209,84.776 188.773,84.56 187.29,84.196C185.797,83.829 185.063,83.21 185.091,82.339C185.966,82.962 186.696,83.351 187.276,83.502C188.488,83.815 190,83.995 191.81,84.038C194.477,84.103 196.927,83.61 199.155,82.562C200.242,82.051 201.077,81.195 201.66,79.993C201.746,79.813 201.757,79.608 201.685,79.421C201.4,78.661 200.954,78.219 200.342,78.086C197.741,77.528 195.128,78.071 192.483,77.503L193.437,76.772C193.577,76.664 193.688,76.524 193.764,76.362C194.07,75.703 194.246,75.243 194.3,74.976C194.934,71.885 195.743,68.294 193.588,65.562C191.774,63.266 190.687,62.997 187.686,62.421C187.103,62.309 186.563,61.87 186.063,61.104C185.987,60.985 185.959,60.837 185.98,60.697C186.171,59.581 186.495,58.534 186.959,57.552C187.995,55.353 189.251,53.1 190.727,50.794C193.487,46.472 196.413,42.495 199.5,38.871C199.918,38.382 200.551,37.637 201.397,36.633C204.869,32.505 208.742,28.399 213.01,24.318C214.237,23.149 215.378,22.13 216.432,21.263C217.198,20.637 217.76,19.906 218.116,19.068C222.409,19.86 227.559,21.198 231.032,24.441C232.986,26.265 233.662,28.622 233.065,31.505C232.914,32.235 232.194,34.52 230.906,38.367C229.222,43.402 227.883,49.865 231.201,54.655C232.943,57.17 235.501,56.918 238.265,57.073C243.371,57.357 245.984,61.708 245.023,66.494C244.286,70.169 241.414,73.854 238.517,75.837C237.355,76.632 236.16,77.388 234.94,78.096C234.548,78.323 234.227,78.651 234.011,79.043C233.59,79.802 233.248,80.641 232.993,81.555C231.467,86.996 230.459,96.68 235.282,100.955ZM211.631,43.755C213.24,44.651 214.651,45.763 215.86,47.094C216.155,47.418 216.659,47.476 217.062,47.231C217.767,46.803 217.35,45.378 217.073,44.787C216.23,42.97 214.996,41.822 213.247,40.85C211.498,39.879 209.872,39.436 207.885,39.677C207.237,39.756 205.805,40.152 205.816,40.976C205.82,41.451 206.136,41.847 206.568,41.926C208.335,42.25 210.026,42.862 211.631,43.755ZM211.207,51.682C212.121,52.093 213.082,53.082 214.05,51.884C214.327,51.542 214.284,51.038 213.949,50.747C213.488,50.34 212.858,50.005 212.063,49.739C208.533,48.555 205.1,48.685 201.767,50.135C201.487,50.257 201.307,50.39 201.231,50.534C201.044,50.891 201.372,51.308 201.8,51.251C203.966,50.97 205.557,50.772 206.575,50.66C207.176,50.592 207.774,50.603 208.375,50.693C208.598,50.725 208.72,50.97 208.608,51.168C208.004,52.233 207.432,54.471 208.547,55.414C208.81,55.637 209.209,55.634 209.487,55.403C210.476,54.579 210.955,53.403 210.922,51.87C210.919,51.722 211.074,51.621 211.207,51.682Z" style="fill:white;fill-opacity:0.85;fill-rule:nonzero;"/>
    <path d="M188.816,34.812C189.903,35.154 190.878,35.715 191.745,36.489C192.404,37.075 193.347,38.27 192.728,39.17C192.53,39.454 192.159,39.566 191.839,39.436L188.035,37.914C185.091,36.922 182.22,37.943 181.086,38.472C180.665,38.67 180.19,38.324 180.248,37.864C180.309,37.389 180.502,36.962 180.87,36.626C183.702,34.038 186.303,34.021 188.816,34.812Z" style="fill:white;fill-opacity:0.15;fill-rule:nonzero;"/>
    <path d="M213.247,40.85C214.996,41.822 216.23,42.97 217.073,44.787C217.35,45.378 217.767,46.803 217.062,47.231C216.659,47.476 216.155,47.418 215.86,47.094C214.651,45.763 213.24,44.651 211.631,43.755C210.026,42.862 208.335,42.25 206.568,41.926C206.136,41.847 205.82,41.451 205.816,40.976C205.805,40.152 207.237,39.756 207.885,39.677C209.872,39.436 211.498,39.879 213.247,40.85Z" style="fill:white;fill-opacity:0.15;fill-rule:nonzero;"/>
    <path d="M185.293,42.628C187.182,43.323 188.726,44.435 189.917,45.968C190.194,46.324 190.381,46.734 190.471,47.198C190.536,47.515 190.194,47.756 189.917,47.594L189.039,47.087C188.902,47.008 188.73,47.101 188.719,47.26C188.665,48.149 188.204,48.965 187.33,49.714C187.085,49.923 186.725,49.915 186.488,49.7C185.379,48.692 185.782,46.749 186.498,45.593C186.642,45.363 186.516,45.061 186.254,44.996L184.343,44.528C182.847,44.162 182.555,44.266 181.116,44.162C180.77,44.137 180.457,43.975 180.356,43.655C180.248,43.316 180.457,42.946 180.821,42.834C181.285,42.69 183.704,42.044 185.293,42.628Z" style="fill:white;fill-opacity:0.15;fill-rule:nonzero;"/>
    <path d="M211.207,51.682C211.074,51.621 210.919,51.722 210.922,51.87C210.955,53.403 210.476,54.579 209.487,55.403C209.209,55.634 208.81,55.637 208.547,55.414C207.432,54.471 208.004,52.233 208.608,51.168C208.72,50.97 208.598,50.725 208.375,50.693C207.774,50.603 207.176,50.592 206.575,50.66C205.557,50.772 203.966,50.97 201.8,51.251C201.372,51.308 201.044,50.891 201.231,50.534C201.307,50.39 201.487,50.257 201.767,50.135C205.1,48.685 208.533,48.555 212.063,49.739C212.858,50.005 213.488,50.34 213.949,50.747C214.284,51.038 214.327,51.542 214.05,51.884C213.082,53.082 212.121,52.093 211.207,51.682Z" style="fill:white;fill-opacity:0.15;fill-rule:nonzero;"/>
    <path d="M192.483,77.503C195.128,78.071 197.741,77.528 200.342,78.086C200.954,78.219 201.4,78.661 201.685,79.421C201.757,79.608 201.746,79.813 201.66,79.993C201.077,81.195 200.242,82.051 199.155,82.562C196.927,83.61 194.477,84.103 191.81,84.038C190,83.995 188.488,83.815 187.276,83.502C186.696,83.351 185.966,82.962 185.091,82.339C182.705,80.86 181.777,78.629 182.299,75.639C182.378,75.174 182.864,74.289 183.53,74.386C184.249,74.494 184.627,74.868 185.401,75.455C185.667,75.657 185.962,75.822 186.275,75.944C188.323,76.733 190.392,77.251 192.483,77.503Z" style="fill:white;fill-opacity:0.15;fill-rule:nonzero;"/>
    <path d="M235.282,100.955L238.337,102.063C237.52,102.718 236.548,103.183 235.426,103.46C234.357,103.722 233.785,103.866 233.716,103.888C222.676,107.253 212.92,112.662 204.448,120.114C201.595,122.623 199.414,125.458 197.903,128.614C197.802,128.827 197.528,128.888 197.345,128.744C195.664,127.409 194.253,125.825 193.116,123.99C193.048,123.882 192.962,123.81 192.854,123.778C192.71,123.731 192.627,123.691 192.602,123.652C192.533,123.547 192.53,123.414 192.595,123.306C193.102,122.453 194.649,114.81 194.606,114.374C194.559,111.089 193.768,104.464 193.886,104.493C196.733,105.151 199.202,105.518 201.296,105.59C202.71,105.637 204.848,105.554 207.702,105.338C208.77,105.255 209.922,105.05 211.156,104.719C211.455,104.637 212.214,104.449 213.434,104.158C214.028,104.018 214.777,103.791 215.68,103.481C217.432,102.88 219.199,102.301 220.988,101.743C221.733,101.513 222.438,101.355 223.104,101.265C224.05,101.142 224.842,100.671 225.878,100.462C228.002,100.034 230.038,99.386 231.985,98.512C232.216,98.407 232.489,98.483 232.633,98.692C233.119,99.4 233.49,99.933 233.745,100.289C234.296,101.063 234.807,101.283 235.282,100.955Z" style="fill:white;fill-opacity:0.75;fill-rule:nonzero;"/>
    <path d="M241.939,102.557C240.813,103.632 239.935,104.644 239.309,105.59C239.053,105.982 238.571,106.821 237.866,108.113C235.005,113.352 234.623,118.88 235.023,124.476C235.091,125.458 235.451,126.264 236.099,126.894C237.117,127.884 238.107,128.83 239.06,129.741C248.075,138.331 254.059,144.218 257.014,147.399C259.767,150.368 261.699,152.47 262.811,153.708C267.428,158.85 272.488,165.45 276.263,171.942C278.221,175.303 279.865,179.197 280.276,183.055C280.823,188.154 280.373,193.448 278.779,198.327C276.123,206.468 272.423,213.506 267.875,221.751C263.826,229.081 259.623,236.347 254.265,242.706C253.581,243.516 252.8,244.153 251.925,244.617C251.814,244.674 251.688,244.707 251.562,244.703L248.431,244.682C248.629,244.261 248.975,243.904 249.46,243.62C249.831,243.4 249.971,242.933 249.781,242.548C248.975,240.925 248.291,239.618 247.733,238.636C241.856,228.283 234.004,217.566 226.001,208.45C224.601,206.856 223.079,205.291 221.243,204.719C221.074,204.668 220.894,204.715 220.772,204.841L219.933,205.723C219.361,205.395 218.908,205.024 218.566,204.611C218.274,204.258 218.217,203.772 218.411,203.358C219.43,201.228 220.301,198.831 221.027,196.172C222.003,192.613 222.942,189.385 223.845,186.484C223.888,186.347 223.726,186.239 223.615,186.329C221.51,188.05 219.599,189.86 217.879,191.76C208.389,202.239 201.595,214.277 197.499,227.876C196.999,228.783 196.168,229.51 195.006,230.057C193.901,230.578 179.841,228.927 178.225,228.873C176.948,228.83 176.149,228.56 174.774,228.491C174.285,228.466 173.421,228.365 172.187,228.182C167.508,227.494 164.172,226.976 162.175,226.624C150.937,224.633 139.626,221.643 129.089,217.094C128.348,216.774 127.909,216.346 127.776,215.817C125.471,210.119 131.157,166.596 134.199,161.225C134.458,160.768 134.473,160.174 134.703,159.617C135.7,157.684 138.712,151.638 135.372,150.393C132.889,149.468 128.744,152.509 126.754,153.891C126.117,154.334 125.649,154.866 125.347,155.496C124.645,154.248 124.073,152.801 123.63,151.156L126.642,150.609C126.782,150.584 126.862,150.433 126.8,150.303C125.724,148.011 124.839,145.686 124.148,143.326C122.201,136.693 120.863,129.935 120.128,123.058C120.013,121.978 120.057,121.126 119.761,120.233C119.661,119.931 119.369,119.736 119.049,119.758C118.29,119.812 117.717,119.682 117.329,119.366C117.591,118.254 117.998,117.16 118.552,116.08C119.175,114.867 120.182,114.105 121.572,113.788C135.66,110.585 149.501,106.321 162.852,103.715C167.062,102.895 172.5,102.341 176.419,104.104C178.092,104.856 180.014,105.914 182.176,107.282C187.031,110.348 189.838,112.197 193.987,114.054C194.131,114.119 194.336,114.227 194.606,114.374C194.649,114.81 193.102,122.453 192.595,123.306C192.53,123.414 192.533,123.547 192.602,123.652C192.627,123.691 192.71,123.731 192.854,123.778C192.962,123.81 193.048,123.882 193.116,123.99C194.253,125.825 195.664,127.409 197.345,128.744C197.528,128.888 197.802,128.827 197.903,128.614C199.414,125.458 201.595,122.623 204.448,120.114C212.92,112.662 222.676,107.253 233.716,103.888C233.785,103.866 234.357,103.722 235.426,103.46C236.548,103.183 237.52,102.718 238.337,102.063L241.939,102.557Z" style="fill:white;fill-opacity:0.95;"/>
    <path d="M123.63,151.156C122.687,151.228 122.039,151.293 121.69,151.354C113.532,152.758 106.087,155.205 99.346,158.692C90.26,163.395 81.875,168.804 74.192,174.922C72.011,176.66 69.65,178.769 67.11,181.255C66.948,181.27 66.836,181.23 66.779,181.133C66.761,181.104 66.753,181.068 66.761,181.032C67.196,178.189 66.663,175.623 65.159,173.335C62.899,169.891 59.747,168.376 55.705,168.797C55.317,168.836 54.925,168.757 54.583,168.574C53.129,167.782 51.981,167.419 50.228,167.361C49.573,167.339 48.922,167.3 48.274,167.239C49.163,165.594 50.156,163.6 51.261,161.25C52.866,157.839 54.694,154.481 56.745,151.174C60.056,145.845 64.058,141.645 69.319,137.989C78.147,131.853 87.435,126.405 97.403,123.468C102.599,121.939 107.99,120.769 113.572,119.952C114.838,119.769 115.976,119.7 116.987,119.751C117.106,119.758 117.217,119.697 117.278,119.596C117.325,119.513 117.343,119.438 117.329,119.366C117.717,119.682 118.29,119.812 119.049,119.758C119.369,119.736 119.661,119.931 119.761,120.233C120.057,121.126 120.013,121.978 120.128,123.058C120.863,129.935 122.201,136.693 124.148,143.326C124.839,145.686 125.724,148.011 126.8,150.303C126.862,150.433 126.782,150.584 126.642,150.609L123.63,151.156Z" style="fill:white;fill-opacity:0.85;fill-rule:nonzero;"/>
    <path d="M134.703,159.617L132.198,160.488C132.033,160.545 131.853,160.545 131.684,160.495C131.151,160.333 130.655,160.218 130.194,160.156C127.891,159.836 126.347,157.31 125.347,155.496C125.649,154.866 126.117,154.334 126.754,153.891C128.744,152.509 132.889,149.468 135.372,150.393C138.712,151.638 135.7,157.684 134.703,159.617Z" style="fill:white;fill-opacity:0.5;fill-rule:nonzero;"/>
    <path d="M48.274,167.239C48.922,167.3 49.573,167.339 50.228,167.361C51.981,167.419 53.129,167.782 54.583,168.574C54.925,168.757 55.317,168.836 55.705,168.797C59.747,168.376 62.899,169.891 65.159,173.335C66.663,175.623 67.196,178.189 66.761,181.032C66.753,181.068 66.761,181.104 66.779,181.133C66.836,181.23 66.948,181.27 67.11,181.255C67.03,181.414 67.009,181.536 67.041,181.622C67.657,183.148 67.962,184.195 67.959,184.764C67.919,188.348 65.551,191.925 61.474,190.49C61.15,189.244 61.424,187.884 60.718,186.711C60.646,186.592 60.517,186.52 60.377,186.524C58.437,186.563 56.781,186.135 55.41,185.239C52.15,183.112 50.43,180.118 50.246,176.257C50.243,176.16 50.167,176.081 50.074,176.07L43.272,175.35L42.747,174.317C42.671,174.166 42.628,174 42.621,173.831C42.448,170.139 45.302,168.412 48.274,167.239ZM54.664,171.332C51.844,173.101 51.333,177.362 53.521,180.847C55.709,184.332 59.765,185.728 62.584,183.959C65.404,182.191 65.915,177.93 63.727,174.445C61.539,170.96 57.483,169.563 54.664,171.332Z" style="fill:white;fill-opacity:0.25;fill-rule:nonzero;"/>
    <path d="M54.664,171.332C57.483,169.563 61.539,170.96 63.727,174.445C65.915,177.93 65.404,182.191 62.584,183.959C59.765,185.728 55.709,184.332 53.521,180.847C51.333,177.362 51.844,173.101 54.664,171.332Z" style="fill:white;fill-opacity:0.95;fill-rule:nonzero;"/>
    <path d="M43.272,175.35L50.074,176.07C50.167,176.081 50.243,176.16 50.246,176.257C50.43,180.118 52.15,183.112 55.41,185.239C56.781,186.135 58.437,186.563 60.377,186.524C60.517,186.52 60.646,186.592 60.718,186.711C61.424,187.884 61.15,189.244 61.474,190.49C61.722,194.293 62.075,197.971 61.539,201.768C61.431,202.527 61.24,203.268 60.97,203.988C60.341,205.665 58.905,206.763 57.875,208.353C54.737,213.201 51.056,218.581 46.835,224.486C45.953,225.717 44.877,226.951 43.607,228.185C42.991,228.786 42.29,229.254 41.509,229.592C39.691,230.373 38.23,228.955 37.691,227.268C37.457,226.53 37.313,225.749 37.255,224.918C37.248,224.803 37.144,224.723 37.028,224.741C34.15,225.234 31.134,225.436 27.978,225.342C24.494,225.238 21.137,222.553 20.676,218.969C20.521,217.764 20.237,214.852 19.823,210.228C19.589,207.626 19.521,205.057 19.611,202.523C19.676,200.753 19.442,199.267 19.517,197.73C19.553,196.949 19.895,196.021 20.543,194.952C22.04,192.476 23.973,190.27 26.344,188.338C27.629,187.29 29.597,185.657 32.253,183.433C32.275,183.415 33.401,182.396 35.636,180.374C37.932,178.29 40.476,176.617 43.272,175.35Z" style="fill:white;fill-opacity:0.85;fill-rule:nonzero;"/>
    <path d="M127.776,215.817C127.909,216.346 128.348,216.774 129.089,217.094C139.626,221.643 150.937,224.633 162.175,226.624C164.172,226.976 167.508,227.494 172.187,228.182C173.421,228.365 174.285,228.466 174.774,228.491C176.149,228.56 176.948,228.83 178.225,228.873C179.841,228.927 193.901,230.578 195.006,230.057C196.168,229.51 196.999,228.783 197.499,227.876C197.532,228.088 197.625,228.2 197.78,228.211C197.827,228.214 197.87,228.196 197.903,228.167C200.652,225.789 202.786,223.795 204.308,222.179C206.586,219.761 209.735,216.522 213.751,212.463C215.547,210.646 217.609,208.4 219.933,205.723L220.772,204.841C220.894,204.715 221.074,204.668 221.243,204.719C223.079,205.291 224.601,206.856 226.001,208.45C234.004,217.566 241.856,228.283 247.733,238.636C248.291,239.618 248.975,240.925 249.781,242.548C249.971,242.933 249.831,243.4 249.46,243.62C248.975,243.904 248.629,244.261 248.431,244.682C248.176,244.678 247.992,244.725 247.881,244.815C241.119,250.187 233.885,254.826 226.181,258.731C226.073,258.785 225.591,259.058 225.436,259.134C220.718,261.412 216.662,263.175 213.276,264.424C209.965,265.644 206.615,266.119 202.246,266.705C201.422,266.817 199.925,266.734 197.759,266.457C195.459,266.162 193.858,265.939 192.954,265.788C192.828,265.766 192.735,265.78 192.674,265.827C192.605,265.881 192.562,265.968 192.541,266.086C192.53,266.029 192.501,265.975 192.454,265.921C192.429,265.888 192.393,265.867 192.35,265.863C178.826,264.01 165.615,260.418 152.718,255.092C143.71,251.371 135.398,247.093 127.779,242.252C127.693,242.198 127.588,242.184 127.491,242.213L127.344,242.26C127.268,242.037 127.149,241.875 126.991,241.77C123.31,239.366 119.927,237.229 116.843,235.361C116.735,235.296 116.602,235.285 116.483,235.336C114.489,236.174 112.856,236.164 110.664,236.527C110.484,236.559 110.297,236.563 110.117,236.538L106.213,236.034C106.018,236.009 105.82,236.084 105.687,236.232C104.406,237.668 102.812,238.665 100.901,239.219C100.433,239.352 99.53,239.359 98.188,239.233C98.076,239.222 97.964,239.201 97.856,239.165C96.176,238.611 94.344,237.617 92.365,236.182C89.58,234.159 86.96,232.108 84.592,229.733C82.954,228.092 82.091,225.864 82.339,223.734C82.71,220.542 83.807,217.559 85.632,214.791C87.564,211.865 89.759,209.113 92.221,206.539C93.347,205.363 93.93,203.956 93.963,202.315C93.97,202.002 93.729,201.591 93.243,201.091C89.029,196.744 84.009,193.293 78.183,190.738C77.103,190.263 76.409,189.849 76.103,189.493C75.588,188.895 75.264,187.488 76.167,187.067C78.291,186.078 81.159,185.919 83.444,186.034C87.669,186.239 91.458,187.654 95.557,189.626C100.271,191.889 104.377,194.531 107.875,197.543C108.347,197.95 110.563,199.587 114.525,202.455C115.594,203.229 117.537,204.891 120.362,207.446C122.583,209.458 124.609,211.65 126.433,214.017C126.844,214.55 127.196,215.144 127.491,215.795C127.506,215.824 127.599,215.831 127.776,215.817Z" style="fill:white;fill-opacity:0.8;fill-rule:nonzero;"/>
    <path d="M219.933,205.723C217.609,208.4 215.547,210.646 213.751,212.463C209.735,216.522 206.586,219.761 204.308,222.179C202.786,223.795 200.652,225.789 197.903,228.167C197.87,228.196 197.827,228.214 197.78,228.211C197.625,228.2 197.532,228.088 197.499,227.876C201.595,214.277 208.389,202.239 217.879,191.76C219.599,189.86 221.51,188.05 223.615,186.329C223.726,186.239 223.888,186.347 223.845,186.484C222.942,189.385 222.003,192.613 221.027,196.172C220.301,198.831 219.43,201.228 218.411,203.358C218.217,203.772 218.274,204.258 218.566,204.611C218.908,205.024 219.361,205.395 219.933,205.723Z" style="fill:white;fill-opacity:0.5;fill-rule:nonzero;"/>
    <path d="M192.541,266.086C192.548,269.894 192.53,273.777 192.724,277.498C193.055,283.842 193.573,290.183 194.279,296.527C193.93,296.61 193.375,296.736 192.62,296.909C188.096,297.942 184.123,298.651 180.708,299.028C178.776,299.241 177.71,299.381 177.509,299.442C177.387,299.482 177.253,299.503 177.124,299.507C175.602,299.55 174.871,299.525 173.619,299.748C172.665,299.917 171.506,300 170.135,300C164.982,300 160.214,300 155.831,299.996C154.1,299.996 152.174,299.633 150.271,299.536C143.876,299.208 137.632,297.808 131.536,295.336C130.896,295.077 130.475,294.624 130.269,293.972C129.377,291.14 129.237,288.639 128.942,285.825C128.596,282.518 128.69,279.686 128.697,276.209C128.697,274.115 128.495,272.582 128.344,270.707C128.02,266.727 128.398,263.646 127.977,260.699C127.535,257.597 127.887,254.304 127.614,251.361C127.326,248.215 127.326,245.311 127.344,242.26L127.491,242.213C127.588,242.184 127.693,242.198 127.779,242.252C135.398,247.093 143.71,251.371 152.718,255.092C165.615,260.418 178.826,264.01 192.35,265.863C192.393,265.867 192.429,265.888 192.454,265.921C192.501,265.975 192.53,266.029 192.541,266.086Z" style="fill:white;fill-opacity:0.95;fill-rule:nonzero;"/>
    <path d="M225.436,259.134C225.591,259.058 225.558,259.681 225.547,259.789C225.421,260.883 226.756,274.207 225.558,278.664C225.084,280.429 224.209,281.816 223.327,282.942C220.736,286.26 216.551,288.628 212.866,290.305C207.158,292.9 200.961,294.976 194.279,296.527C193.573,290.183 193.055,283.842 192.724,277.498C192.53,273.777 192.548,269.894 192.541,266.086C192.562,265.968 192.605,265.881 192.674,265.827C192.735,265.78 192.828,265.766 192.954,265.788C193.858,265.939 195.459,266.162 197.759,266.457C199.925,266.734 201.422,266.817 202.246,266.705C206.615,266.119 209.965,265.644 213.276,264.424C216.662,263.175 220.718,261.412 225.436,259.134Z" style="fill:white;fill-opacity:0.5;fill-rule:nonzero;"/>
</svg>
