<?xml version="1.0" encoding="UTF-8" standalone="no"?>
<!DOCTYPE svg PUBLIC "-//W3C//DTD SVG 1.1//EN" "http://www.w3.org/Graphics/SVG/1.1/DTD/svg11.dtd">
<svg width="100%" height="100%" viewBox="0 0 300 300" version="1.1" xmlns="http://www.w3.org/2000/svg" xmlns:xlink="http://www.w3.org/1999/xlink" xml:space="preserve" xmlns:serif="http://www.serif.com/" style="fill-rule:evenodd;clip-rule:evenodd;stroke-linejoin:round;stroke-miterlimit:2;">
    <path d="M92.55,99.536C82.717,88.961 76.7,74.791 76.7,59.226C76.7,26.538 103.238,0 135.926,0C154.967,0 171.921,9.005 182.758,22.984C190.526,33.004 195.152,45.579 195.152,59.226C195.152,91.914 168.614,118.452 135.926,118.452C129.842,118.452 123.972,117.533 118.445,115.826L103.989,126.992L101.041,107.08C97.974,104.839 95.131,102.312 92.55,99.536ZM181.947,65.169C179.23,60.416 172.493,55.163 164.578,50.807C160.112,48.349 138.567,41.881 132.607,41.681C126.392,41.471 120.11,42.108 115.928,41.897C108.829,41.537 99.668,42.835 94.358,47.046C92.168,48.782 90.633,51.014 90.167,53.829C89.372,58.632 94.349,60.93 108.365,67.978C117.517,72.581 137.983,84.977 173.287,77.022C183.15,74.8 184.865,70.273 181.947,65.169Z" style="fill:white;fill-opacity:0.95;"/>
    <path d="M182.758,22.984C192.591,33.559 198.609,47.729 198.609,63.294C198.609,95.982 172.07,122.52 139.383,122.52C133.299,122.52 127.428,121.601 121.902,119.894L107.445,131.06L103.974,126.979L103.977,126.91L103.989,126.992L118.445,115.826C123.972,117.533 129.842,118.452 135.926,118.452C168.614,118.452 195.152,91.914 195.152,59.226C195.152,45.579 190.526,33.004 182.758,22.984Z" style="fill:white;fill-opacity:0.25;"/>
    <path d="M94.358,47.046C93.537,50.135 94.668,53.644 100.676,56.503C127.868,69.438 143.732,74.853 160.427,73.923C168.652,73.465 179.191,74.36 181.947,65.169C184.865,70.273 183.15,74.8 173.287,77.022C137.983,84.977 117.517,72.581 108.365,67.978C94.349,60.93 89.372,58.632 90.167,53.829C90.633,51.014 92.168,48.782 94.358,47.046Z" style="fill:white;fill-opacity:0.35;"/>
    <path d="M105.938,44.737C107.949,44.508 108.738,44.069 109.975,45.457C112.06,47.798 111.895,47.913 114.376,49.878C116.202,51.324 116.64,55.607 116.568,58.392C115.361,54.549 113.978,50.662 112.194,49.192C112.172,49.174 107.784,46.758 105.938,44.737Z" style="fill:white;fill-opacity:0.5;"/>
    <path d="M116.568,58.392C116.532,59.804 116.364,60.832 116.179,60.908C114.515,61.593 113.412,56.506 111.32,55.591C108.953,54.555 108.808,54.506 108.051,52.007C106.533,46.989 102.954,49.155 102.241,44.724C103.837,44.903 105.016,44.842 105.938,44.737C107.784,46.758 112.172,49.174 112.194,49.192C113.978,50.662 115.361,54.549 116.568,58.392Z" style="fill:white;fill-opacity:0.75;"/>
    <path d="M122.811,43.08C123.983,42.576 125.59,42.391 127.263,43.524C130.424,45.665 131.753,44.05 133.596,47.661C134.337,49.114 136.522,54.753 135.457,56.745C135.313,57.014 135.182,57.289 135.061,57.565C133.904,51.465 133.383,50.36 132.841,49.637C130.232,46.164 127.539,45.199 122.811,43.08Z" style="fill:white;fill-opacity:0.5;"/>
    <path d="M135.061,57.565C133.789,60.48 133.744,63.479 133.058,60.644C131.97,56.147 132.638,55.444 129.642,54.03C128.64,53.557 127.363,48.981 126.278,47.714C124.249,45.346 121.784,45.966 120.963,44.529C120.957,44.347 121.682,43.566 122.811,43.08C127.539,45.199 130.232,46.164 132.841,49.637C133.383,50.36 133.904,51.465 135.061,57.565Z" style="fill:white;fill-opacity:0.75;"/>
    <path d="M144.989,46.41C145.365,46.563 145.766,46.712 146.195,46.826C149.617,51.282 154.263,51.753 154.15,58.213C153.784,56.443 153.166,54.782 151.984,53.473C150.871,52.241 146.766,49.251 144.989,46.41Z" style="fill:white;fill-opacity:0.5;"/>
    <path d="M154.15,58.213C154.125,59.65 153.865,61.382 153.303,63.519C152.846,65.261 152.861,67.277 152.267,65.59C151.2,62.557 151.607,61.909 149.267,59.417C146.924,56.924 147.879,53.761 145.644,51.036C145.038,50.298 140.586,48.336 141.765,46.335C142.462,45.151 143.524,45.811 144.989,46.41C146.766,49.251 150.871,52.241 151.984,53.473C153.166,54.782 153.784,56.443 154.15,58.213Z" style="fill:white;fill-opacity:0.75;"/>
    <path d="M170.884,66.431C170.426,70.374 168.62,72.463 167.877,67.664C167.797,67.144 167.383,62.883 166.624,60.983C165.279,57.615 163.413,56.588 162.851,54.89C164.008,54.209 166.37,55.566 168.067,56.952C168.603,58.589 168.697,58.849 169.58,60.875C170.461,62.899 170.663,63.764 170.884,66.431Z" style="fill:white;fill-opacity:0.75;"/>
    <path d="M168.067,56.952C169.05,57.754 169.809,58.567 169.983,59C170.976,61.474 171.139,64.239 170.884,66.431C170.663,63.764 170.461,62.899 169.58,60.875C168.697,58.849 168.603,58.589 168.067,56.952Z" style="fill:white;fill-opacity:0.5;"/>
    <path d="M121.392,55.371C122.257,55.387 122.75,56.919 122.804,57.088C122.658,56.987 121.34,56.068 121.392,55.371Z" style="fill:white;fill-opacity:0.5;"/>
    <path d="M141.638,54.384C141.705,54.337 141.619,54.721 141.652,54.797C141.702,54.91 142.311,56.308 141.068,56.236C140.835,56.223 140.254,55.368 141.638,54.384Z" style="fill:white;fill-opacity:0.5;"/>
    <path d="M140.879,62.436C141.672,63.014 140.672,64.224 139.606,63.456C138.172,62.421 140.748,62.435 140.879,62.436Z" style="fill:white;fill-opacity:0.5;"/>
    <path d="M100.629,50.026C103.143,50.683 101.118,52.217 101.104,52.218C100.078,52.307 99.433,50.108 100.629,50.026Z" style="fill:white;fill-opacity:0.5;"/>
    <path d="M156.975,65.741C157.864,65.907 160.09,67.224 159.826,67.418C159.405,67.726 157.124,66.319 156.975,65.741Z" style="fill:white;fill-opacity:0.5;"/>
    <path d="M159.895,55.134C159.181,56.025 159.335,56.12 158.575,56.974C158.639,56.585 158.677,54.869 159.895,55.134Z" style="fill:white;fill-opacity:0.5;"/>
    <path d="M176.252,58.71C174.8,60.457 177.319,62.47 178.927,61.286C177.319,62.47 174.8,60.457 176.252,58.71C178.769,60.88 180.749,63.073 181.947,65.169C179.191,74.36 168.652,73.465 160.427,73.923C143.732,74.853 127.868,69.438 100.676,56.503C94.668,53.644 93.537,50.135 94.358,47.046C99.17,43.23 107.142,41.807 113.879,41.84C115.895,43.741 116.853,42.964 117.758,42.036C116.853,42.964 115.895,43.741 113.879,41.84C114.577,41.844 115.261,41.863 115.928,41.897C120.11,42.108 126.392,41.471 132.607,41.681C138.567,41.881 160.112,48.349 164.578,50.807C169.003,53.242 173.06,55.958 176.252,58.71ZM159.895,55.134C158.677,54.869 158.639,56.585 158.575,56.974C159.335,56.12 159.181,56.025 159.895,55.134ZM156.975,65.741C157.124,66.319 159.405,67.726 159.826,67.418C160.09,67.224 157.864,65.907 156.975,65.741ZM102.241,44.724C102.954,49.155 106.533,46.989 108.051,52.007C108.808,54.506 108.953,54.555 111.32,55.591C113.412,56.506 114.515,61.593 116.179,60.908C116.728,60.682 117.128,52.058 114.376,49.878C111.895,47.913 112.06,47.798 109.975,45.457C108.171,43.433 107.32,45.294 102.241,44.724ZM100.629,50.026C99.433,50.108 100.078,52.307 101.104,52.218C101.118,52.217 103.143,50.683 100.629,50.026ZM146.195,46.826C144.092,46.27 142.64,44.848 141.765,46.335C140.586,48.336 145.038,50.298 145.644,51.036C147.879,53.761 146.924,56.924 149.267,59.417C151.607,61.909 151.2,62.557 152.267,65.59C152.861,67.277 152.846,65.261 153.303,63.519C156.39,51.766 150.377,52.273 146.195,46.826ZM120.963,44.529C121.784,45.966 124.249,45.346 126.278,47.714C127.363,48.981 128.64,53.557 129.642,54.03C132.638,55.444 131.97,56.147 133.058,60.644C133.809,63.747 133.792,59.86 135.457,56.745C136.522,54.753 134.337,49.114 133.596,47.661C131.753,44.05 130.424,45.665 127.263,43.524C123.979,41.299 120.95,44.158 120.963,44.529ZM121.392,55.371C121.34,56.068 122.658,56.987 122.804,57.088C122.75,56.919 122.257,55.387 121.392,55.371ZM162.851,54.89C163.413,56.588 165.279,57.615 166.624,60.983C167.383,62.883 167.797,67.144 167.877,67.664C169.033,75.13 172.763,65.924 169.983,59C169.509,57.819 164.677,53.814 162.851,54.89ZM141.638,54.384C140.254,55.368 140.835,56.223 141.068,56.236C142.311,56.308 141.702,54.91 141.652,54.797C141.619,54.721 141.705,54.337 141.638,54.384ZM140.879,62.436C140.748,62.435 138.172,62.421 139.606,63.456C140.672,64.224 141.672,63.014 140.879,62.436Z" style="fill:white;fill-opacity:0.6;"/>
    <path d="M179.301,206.838C173.868,195.857 178.033,188.524 183.133,188.333C188.233,188.143 187.452,192.713 188.233,197.271C189.014,201.828 191.851,206.838 191.635,209.195C191.419,211.552 184.734,217.82 179.301,206.838Z" style="fill:white;"/>
    <path d="M209.515,107.605C209.515,107.605 209.109,107.303 208.744,106.715C209.201,107.236 209.522,107.604 209.515,107.605Z" style="fill:white;fill-opacity:0.32;"/>
    <path d="M239.698,128.74C240.624,128.988 241.412,129.129 241.858,129.213C241.858,129.213 238.494,137.507 241.817,143.22C237.364,147.33 232.419,148.706 229.014,149.61C229.619,144.305 229.475,141.864 233.232,136.051C233.674,135.368 236.323,131.267 239.698,128.74Z" style="fill:white;fill-opacity:0.95;"/>
    <path d="M224.524,148.07C226.691,147.293 227.836,145.927 224.882,138.712C224.882,138.712 224.202,138.368 223.481,138.498C226.205,137.001 234.477,132.281 238.148,128.251C238.683,128.448 239.21,128.609 239.698,128.74C236.323,131.267 233.674,135.368 233.232,136.051C229.475,141.864 229.619,144.305 229.014,149.61C232.419,148.706 237.364,147.33 241.817,143.22C242.436,144.284 243.286,145.258 244.434,146.073C244.434,146.073 244.942,146.068 245.817,146.212C245.152,147.8 244.507,149.415 243.756,151.106C239.962,159.648 236.028,167.253 234.763,171.2C224.959,169.177 217.068,170.163 215.143,170.626C218.078,163.89 218.396,164.063 221.232,157.311C223.72,151.387 224.294,149.116 224.524,148.07Z" style="fill:white;fill-opacity:0.75;"/>
    <path d="M264.303,187.229L262.648,184.304L262.258,183.901C264.788,181.065 269.496,176.751 273.702,173.745C277.466,178.055 280.553,181.332 281.588,182.797C283.715,185.808 283.908,189.832 274.641,199.745C271.377,203.238 267.995,206.516 264.977,209.289C259.428,214.387 255.108,217.775 255.007,217.638C254.852,217.426 253.307,220.899 251.615,222.443C250.84,222.595 248.784,225.914 247.257,225.977C244.198,226.104 240.945,223.031 238.145,224.328C228.791,228.662 227.535,228.61 227.141,225.977C226.935,224.602 228.923,217.266 233.724,213.615C236.34,211.624 239.706,211.587 243.169,212.701C246.936,209.393 249.663,206.23 252.046,203.114L264.303,187.229Z" style="fill:white;fill-opacity:0.95;"/>
    <path d="M251.828,148.413C254.718,150.049 258.07,152.83 261.143,157.556C265.004,163.494 269.73,169.195 273.702,173.745C269.496,176.751 264.788,181.065 262.258,183.901L253.33,174.653C253.33,174.653 248.736,179.765 248.531,182.797C248.327,185.829 249.9,191.994 250.973,196.359C252.046,200.723 252.046,203.114 252.046,203.114C250.733,204.831 249.315,206.563 247.676,208.325C246.973,206.4 246.185,204.235 245.105,200.364C243.034,192.942 240.097,178.963 239.846,175.859C239.135,167.072 247.58,153.545 251.828,148.413Z" style="fill:white;fill-opacity:0.75;"/>
    <path d="M247.676,208.325C246.342,209.761 244.86,211.216 243.169,212.701C239.706,211.587 236.34,211.624 233.724,213.615C228.923,217.266 226.935,224.602 227.141,225.977C227.535,228.61 228.791,228.662 238.145,224.328C240.945,223.031 244.198,226.104 247.257,225.977C248.784,225.914 250.84,222.595 251.615,222.443C251.615,222.443 260.982,258.523 263.766,265.627C266.551,272.732 267.87,278.074 262.756,281.408C258.104,284.441 242.681,289.455 218.982,284.767C220.779,283.683 222.22,282.561 223.273,281.408C223.667,280.976 224.007,280.54 224.291,280.1L224.291,268.353C224.984,267.463 225.343,266.553 225.343,265.627C225.343,261.221 217.207,257.16 203.546,253.926L206.693,219.663L219.694,219.113C222.428,219.066 223.821,217.874 222.703,214.532L214.251,181.323C213.45,178.175 212.542,177.491 208.465,177.491L208.358,177.491C208.548,170.91 209.106,167.405 213.01,161.038C216.716,154.992 218.687,151.502 219.759,149.5C220.509,149.379 221.244,149.209 221.941,148.922C222.839,148.552 223.747,148.349 224.524,148.07C224.294,149.116 223.72,151.387 221.232,157.311C218.396,164.063 218.078,163.89 215.143,170.626C217.068,170.163 224.959,169.177 234.763,171.2C236.028,167.253 239.962,159.648 243.756,151.106C244.507,149.415 245.152,147.8 245.817,146.212C247.143,146.43 249.31,146.987 251.828,148.413C247.58,153.545 239.135,167.072 239.846,175.859C240.097,178.963 243.034,192.942 245.105,200.364C246.185,204.235 246.973,206.4 247.676,208.325Z" style="fill:white;fill-opacity:0.5;"/>
    <path d="M269.437,219.545C269.512,219.552 269.542,219.568 269.521,219.594C269.506,219.613 269.478,219.596 269.437,219.545Z" style="fill:white;"/>
    <path d="M208.358,177.491L201.785,177.491C203.353,173.134 209.495,156.244 211.693,152.839C213.704,149.724 216.846,149.973 219.759,149.5C218.687,151.502 216.716,154.992 213.01,161.038C209.106,167.405 208.548,170.91 208.358,177.491Z" style="fill:white;fill-opacity:0.75;"/>
    <path d="M222.593,138.979C222.593,138.979 222.919,138.807 223.481,138.498C223.176,138.553 222.864,138.693 222.593,138.979Z" style="fill:white;"/>
    <path d="M208.884,112.555C208.655,107.412 209.515,107.605 209.515,107.605C209.527,107.604 211.284,107.489 214.897,106.97L215.275,106.914C213.952,110.603 210.537,122.26 215.105,122.56C215.137,122.562 217.533,121.86 217.107,126.524C217.033,127.326 216.945,128.088 216.874,128.832C216.78,128.85 216.687,128.865 216.595,128.877C214.79,129.111 212.435,128.944 212.495,129.409C212.555,129.869 214.956,130.777 216.755,130.569C216.697,132.481 216.935,134.41 218.057,136.797C218.664,138.09 219.408,139.137 220.16,139.974C217.188,140.364 212.389,138.54 210.382,125.56C209.501,119.866 209.082,115.976 208.924,113.32C210.562,112.968 210.927,113.127 210.927,112.745C210.927,112.303 209.963,112.28 208.884,112.555ZM209.781,116.029C210.054,116.029 210.275,116.574 210.275,117.245C210.275,117.916 210.054,118.461 209.781,118.461C209.508,118.461 209.286,117.916 209.286,117.245C209.286,116.574 209.508,116.029 209.781,116.029Z" style="fill:white;fill-opacity:0.75;"/>
    <path d="M215.275,106.914C218.513,106.413 222.195,105.446 224.997,106.97C227.928,108.565 227.187,113.235 228.248,117.511C228.808,119.77 231.614,109.346 233.177,111.012C234.459,112.379 233.177,117.137 233.177,122.703C233.177,125.729 235.745,127.363 238.148,128.251C234.477,132.281 226.205,137.001 223.481,138.498C223.176,138.553 222.864,138.693 222.593,138.979C222.324,139.263 221.402,139.811 220.16,139.974C219.408,139.137 218.664,138.09 218.057,136.797C216.935,134.41 216.697,132.481 216.755,130.569C216.775,130.567 216.794,130.565 216.814,130.562C218.619,130.328 220.575,128.125 220.514,127.66C220.457,127.219 218.605,128.499 216.874,128.832C216.945,128.088 217.033,127.326 217.107,126.524C217.533,121.86 215.137,122.562 215.105,122.56C210.537,122.26 213.952,110.603 215.275,106.914ZM216.759,114.416C217.075,114.416 217.331,115.139 217.331,116.029C217.331,116.92 217.075,117.643 216.759,117.643C216.444,117.643 216.187,116.92 216.187,116.029C216.187,115.139 216.444,114.416 216.759,114.416ZM222.162,111.634C222.153,111.906 220.668,111.437 218.554,111.362C216.44,111.287 214.707,111.906 214.717,111.634C214.726,111.361 216.44,110.504 218.554,110.579C220.668,110.654 222.172,111.361 222.162,111.634Z" style="fill:white;"/>
    <path d="M209.515,107.605C209.527,107.604 211.284,107.489 214.897,106.97C218.224,106.493 222.086,105.386 224.997,106.97C227.928,108.565 227.187,113.235 228.248,117.511C228.808,119.77 231.614,109.346 233.177,111.012C234.459,112.379 233.177,117.137 233.177,122.703C233.177,127.679 240.12,128.889 241.858,129.213C248.897,127.932 255.792,122.162 253.33,108.73C250.867,95.299 240.958,91.161 237.599,91.161C234.241,91.161 240.528,85.39 237.599,79.292C234.671,73.195 226.542,71.73 221.941,78.309C217.34,84.888 227.236,88.968 225.343,91.161C223.451,93.354 219.738,92.183 212.398,98.237C207.274,102.464 207.899,105.355 208.744,106.715C209.201,107.236 209.522,107.604 209.515,107.605Z" style="fill:white;fill-opacity:0.25;"/>
    <path d="M17.208,281.408L17.208,265.627C17.208,267.105 18.123,268.543 19.853,269.925C25.796,274.668 41.361,278.74 62.564,281.408C79.281,283.511 99.502,284.742 121.276,284.742C143.05,284.742 163.271,283.511 179.987,281.408C200.037,278.885 215.046,275.107 221.644,270.693C222.782,269.931 223.671,269.15 224.291,268.353L224.291,280.1C224.007,280.54 223.667,280.976 223.273,281.408C213.592,292.008 171.113,300 120.241,300C69.368,300 26.889,292.008 17.208,281.408Z" style="fill:white;fill-opacity:0.25;"/>
    <path d="M180.389,249.898C207.542,253.349 225.343,259.109 225.343,265.627C225.343,266.553 224.984,267.463 224.291,268.353C223.671,269.15 222.782,269.931 221.644,270.693C215.046,275.107 200.037,278.885 179.987,281.408C163.271,283.511 143.05,284.742 121.276,284.742C99.502,284.742 79.281,283.511 62.564,281.408C41.361,278.74 25.796,274.668 19.853,269.925C18.123,268.543 17.208,267.105 17.208,265.627C17.208,260.842 26.801,256.466 42.644,253.111C43.829,255.7 45.754,257.687 48.757,258.516C58.988,261.337 85.868,259.491 85.868,259.491C85.868,259.491 91.298,262.738 94.939,262.738C98.58,262.738 102.414,260.803 106.028,260.803C109.642,260.803 115.625,264.101 119.819,262.738C121.585,262.165 122.631,261.063 122.926,259.618C125.505,260.037 128.464,260.307 131.907,260.418C146.867,260.897 170.822,262.148 177.345,254.638C178.64,253.147 179.632,251.531 180.389,249.898ZM104.52,248.82L102.931,249.73C98.439,250.335 94.303,250.978 94.303,250.978C90.911,250.043 84.688,249.041 78.595,248.192C86.45,247.541 94.822,247.065 103.566,246.789C103.822,247.477 104.136,248.159 104.52,248.82Z" style="fill:white;fill-opacity:0.35;"/>
    <path d="M104.52,248.82L102.414,250.026C102.414,250.026 103.446,249.815 105.026,249.618C104.845,249.356 104.677,249.09 104.52,248.82Z" style="fill:white;fill-opacity:0.5;"/>
    <path d="M103.587,238.634C105.002,241.767 107.023,245.803 108.825,249.31C107.408,249.36 106.093,249.486 105.026,249.618C104.845,249.356 104.677,249.09 104.52,248.82C104.136,248.159 103.822,247.477 103.566,246.789C102.465,243.831 102.44,240.753 102.602,238.731C102.936,238.695 103.264,238.663 103.587,238.634Z" style="fill:white;fill-opacity:0.75;"/>
    <path d="M103.587,238.634C103.309,238.018 103.054,237.437 102.829,236.901C102.88,236.605 102.917,236.443 102.917,236.443C102.741,236.278 102.583,236.114 102.442,235.95C102.35,235.717 102.267,235.497 102.193,235.291C105.246,235.817 110.407,236.541 119.241,237.45C118.25,237.588 117.324,237.702 116.452,237.797C117.206,238.983 118.307,240.613 119.631,242.495C120.914,240.725 122.099,239.085 123.009,237.827C123.962,237.92 124.952,238.014 125.98,238.111C125.329,239.032 124.06,240.739 121.037,244.473C123.188,247.465 125.729,250.862 128.26,254.046C131.326,249.776 134.153,244.093 135.896,240.378C137.875,240.951 139.879,241.559 141.886,242.2C142.799,243.737 143.926,245.559 145.257,247.579C145.945,246.393 146.632,245.168 147.252,243.997C148.02,244.266 148.784,244.541 149.545,244.82C148.607,246.584 147.66,248.222 146.713,249.748C148.597,252.501 150.809,255.533 153.33,258.671C153.855,258.133 154.375,257.536 154.886,256.868C156.439,254.839 158.263,252.036 159.994,249.127C160.58,249.401 161.159,249.678 161.731,249.958C160.053,253.036 158.138,256.238 156.145,258.951C155.688,259.574 155.289,260.111 154.91,260.601L154.85,260.678C154.158,260.706 153.462,260.729 152.763,260.747C152.497,260.484 152.23,260.216 151.963,259.94C151.525,259.49 151.087,259.022 150.647,258.536C149.383,257.136 147.378,254.633 145.307,251.932C143.016,255.365 140.733,258.194 138.544,260.635C137.657,260.609 136.784,260.58 135.929,260.552C137.835,258.499 139.678,256.324 141.349,253.88C141.937,253.021 142.835,251.619 143.828,249.984C141.35,246.688 139.008,243.416 137.97,241.733C136.5,244.804 133.948,249.274 129.148,255.156C130.707,257.087 132.243,258.909 133.662,260.476L131.927,260.418C130.505,259.189 129.197,257.931 127.941,256.609C126.821,257.941 125.966,259.01 125.213,259.938C124.517,259.855 123.846,259.763 123.198,259.662C124.402,258.624 125.696,257.315 127.044,255.645C124.568,252.928 122.239,249.913 119.554,246.295C118.953,247.029 118.298,247.826 117.583,248.691C117.178,249.18 116.777,249.656 116.381,250.117C115.757,249.914 115.098,249.755 114.418,249.634C115.607,248.022 116.92,246.225 118.201,244.464C116.766,242.516 115.217,240.399 113.488,238.071C109.698,238.359 106.888,238.336 103.587,238.634Z" style="fill:white;fill-opacity:0.75;"/>
    <path d="M147.252,243.997C148.054,242.483 148.747,241.059 149.192,239.922C149.991,239.937 150.837,239.945 151.731,239.944C151.105,240.973 150.506,241.816 150.018,242.249C150.018,242.249 149.601,243.099 149.868,244.208C149.76,244.414 149.653,244.618 149.545,244.82C148.784,244.541 148.02,244.266 147.252,243.997Z" style="fill:white;fill-opacity:0.65;"/>
    <path d="M135.896,240.378C136.121,239.897 136.329,239.449 136.516,239.042L138.323,239.192C138.555,239.211 138.803,239.234 139.068,239.26L140.265,239.378C140.694,240.155 141.236,241.106 141.886,242.2C139.879,241.559 137.875,240.951 135.896,240.378Z" style="fill:white;fill-opacity:0.65;"/>
    <path d="M173.615,257.322C173.269,257.487 172.91,257.645 172.538,257.796C171.91,257.185 171.215,256.486 170.433,255.684L170.396,255.646C169.916,256.271 169.05,257.345 167.341,259.319C166.592,259.476 165.818,259.618 165.024,259.745C166.349,258.323 167.803,256.566 169.235,254.415L169.159,254.333C169.001,254.16 168.838,253.982 168.672,253.799C169.199,254.132 169.713,254.468 170.214,254.809C171.488,255.675 172.617,256.51 173.615,257.322Z" style="fill:white;fill-opacity:0.75;"/>
    <path d="M159.994,249.127C160.643,248.036 161.279,246.93 161.882,245.844C159.888,243.384 158.258,241.245 157.747,240.328L157.979,239.799C158.902,239.759 159.864,239.71 160.866,239.65C161.459,240.579 162.29,241.847 163.267,243.279C164.019,241.841 164.677,240.498 165.19,239.346C165.799,239.297 166.421,239.244 167.056,239.187C166.493,240.422 165.559,242.459 164.367,244.871C166.156,247.426 168.263,250.265 170.259,252.567C171.402,250.684 173.423,247.211 175.391,243.033C172.999,241.41 171.327,239.925 170.205,238.883C171.685,238.728 173.034,238.568 174.266,238.405C174.843,239.024 175.593,239.788 176.486,240.616C176.869,239.735 177.242,238.832 177.6,237.914C178.294,237.801 178.94,237.687 179.541,237.573C179.277,238.406 178.79,239.738 177.831,241.814C179.067,242.87 180.491,243.965 182.049,244.959C181.936,245.46 181.806,245.971 181.656,246.488C180.696,246.124 179.575,245.589 178.052,244.705C177.619,244.453 177.203,244.202 176.804,243.953C175.939,245.689 174.822,247.804 173.375,250.374C172.699,251.573 172.019,252.706 171.343,253.775C171.992,254.469 172.619,255.087 173.209,255.597C173.71,256.03 174.211,256.411 174.706,256.748C174.36,256.948 173.996,257.14 173.615,257.322C172.617,256.51 171.488,255.675 170.214,254.809C169.713,254.468 169.199,254.132 168.672,253.799C166.998,251.952 164.974,249.596 163.115,247.348C162.676,248.198 162.213,249.073 161.731,249.958C161.159,249.678 160.58,249.401 159.994,249.127Z" style="fill:white;fill-opacity:0.65;"/>
    <path d="M102.442,235.95C102.24,235.714 102.073,235.48 101.937,235.246C102.021,235.261 102.106,235.276 102.193,235.291C102.267,235.497 102.35,235.717 102.442,235.95Z" style="fill:white;fill-opacity:0.75;"/>
    <path d="M103.587,238.634C103.264,238.663 102.936,238.695 102.602,238.731C102.667,237.931 102.761,237.297 102.829,236.901C103.054,237.437 103.309,238.018 103.587,238.634Z" style="fill:white;fill-opacity:0.75;"/>
    <path d="M154.91,260.601L154.971,260.673C154.931,260.675 154.891,260.676 154.85,260.678C154.87,260.652 154.89,260.626 154.91,260.601Z" style="fill:white;fill-opacity:0.75;"/>
    <path d="M177.831,241.814C178.79,239.738 179.277,238.406 179.541,237.573C180.772,237.341 181.819,237.11 182.721,236.887C182.795,238.024 182.895,241.219 182.049,244.959C180.491,243.965 179.067,242.87 177.831,241.814ZM181.656,246.488C181.332,247.608 180.918,248.757 180.389,249.898C179.632,251.531 178.64,253.147 177.345,254.638C176.652,255.437 175.761,256.136 174.706,256.748C174.211,256.411 173.71,256.03 173.209,255.597C172.619,255.087 171.992,254.469 171.343,253.775C172.019,252.706 172.699,251.573 173.375,250.374C174.822,247.804 175.939,245.689 176.804,243.953C177.203,244.202 177.619,244.453 178.052,244.705C179.575,245.589 180.696,246.124 181.656,246.488ZM175.391,243.033C173.423,247.211 171.402,250.684 170.259,252.567C168.263,250.265 166.156,247.426 164.367,244.871C165.559,242.459 166.493,240.422 167.056,239.187L167.073,239.186C168.178,239.088 169.221,238.986 170.205,238.883C171.327,239.925 172.999,241.41 175.391,243.033ZM174.266,238.405C175.487,238.243 176.594,238.079 177.6,237.914C177.242,238.832 176.869,239.735 176.486,240.616C175.593,239.788 174.843,239.024 174.266,238.405ZM160.866,239.65C162.232,239.569 163.672,239.468 165.19,239.346C164.677,240.498 164.019,241.841 163.267,243.279C162.29,241.847 161.459,240.579 160.866,239.65ZM152.763,260.747C147.978,260.87 143.07,260.772 138.544,260.635C140.733,258.194 143.016,255.365 145.307,251.932C147.378,254.633 149.383,257.136 150.647,258.536C151.355,259.32 152.061,260.055 152.763,260.747ZM143.828,249.984C142.835,251.619 141.937,253.021 141.349,253.88C139.678,256.324 137.835,258.499 135.929,260.552L133.662,260.476C132.243,258.909 130.707,257.087 129.148,255.156C133.948,249.274 136.5,244.804 137.97,241.733C139.008,243.416 141.35,246.688 143.828,249.984ZM127.941,256.609C129.197,257.931 130.505,259.189 131.927,260.418L131.907,260.418C129.44,260.339 127.221,260.177 125.213,259.938C125.966,259.01 126.821,257.941 127.941,256.609ZM123.198,259.662L122.926,259.618C123.333,257.632 122.323,254.997 119.819,252.192C118.961,251.231 117.758,250.566 116.381,250.117C116.777,249.656 117.178,249.18 117.583,248.691C118.298,247.826 118.953,247.029 119.554,246.295C122.239,249.913 124.568,252.928 127.044,255.645C125.696,257.315 124.402,258.624 123.198,259.662ZM116.452,237.797C117.324,237.702 118.25,237.588 119.241,237.45C120.429,237.572 121.684,237.698 123.009,237.827C122.099,239.085 120.914,240.725 119.631,242.495C118.307,240.613 117.206,238.983 116.452,237.797ZM118.201,244.464C116.92,246.225 115.607,248.022 114.418,249.634C112.595,249.307 110.628,249.247 108.825,249.31C107.023,245.803 105.002,241.767 103.587,238.634C106.888,238.336 109.698,238.359 113.488,238.071C115.217,240.399 116.766,242.516 118.201,244.464ZM170.396,255.646L170.433,255.684C171.215,256.486 171.91,257.185 172.538,257.796C171.005,258.418 169.253,258.918 167.341,259.319C169.05,257.345 169.916,256.271 170.396,255.646Z" style="fill:white;fill-opacity:0.9;"/>
    <path d="M168.672,253.799C168.865,254.012 169.053,254.217 169.235,254.415C167.803,256.566 166.349,258.323 165.024,259.745C161.924,260.243 158.503,260.527 154.971,260.673L154.91,260.601C155.289,260.111 155.688,259.574 156.145,258.951C158.138,256.238 160.053,253.036 161.731,249.958C164.211,251.176 166.546,252.457 168.672,253.799Z" style="fill:white;fill-opacity:0.9;"/>
    <path d="M161.731,249.958C162.213,249.073 162.676,248.198 163.115,247.348C164.974,249.596 166.998,251.952 168.672,253.799C166.546,252.457 164.211,251.176 161.731,249.958Z" style="fill:white;fill-opacity:0.8;"/>
    <path d="M135.896,240.378C134.153,244.093 131.326,249.776 128.26,254.046C125.729,250.862 123.188,247.465 121.037,244.473C124.06,240.739 125.329,239.032 125.98,238.111C126.779,238.185 127.6,238.261 128.445,238.338C130.857,238.962 133.356,239.642 135.896,240.378Z" style="fill:white;fill-opacity:0.9;"/>
    <path d="M128.445,238.338C130.927,238.564 133.612,238.799 136.516,239.042C136.329,239.449 136.121,239.897 135.896,240.378C133.356,239.642 130.857,238.962 128.445,238.338Z" style="fill:white;fill-opacity:0.8;"/>
    <path d="M147.252,243.997C146.632,245.168 145.945,246.393 145.257,247.579C143.926,245.559 142.799,243.737 141.886,242.2C143.678,242.772 145.472,243.371 147.252,243.997Z" style="fill:white;fill-opacity:0.9;"/>
    <path d="M141.886,242.2C141.236,241.106 140.694,240.155 140.265,239.378C142.309,239.58 145.164,239.844 149.192,239.922C148.747,241.059 148.054,242.483 147.252,243.997C145.472,243.371 143.678,242.772 141.886,242.2Z" style="fill:white;fill-opacity:0.8;"/>
    <path d="M149.545,244.82C149.653,244.618 149.76,244.414 149.868,244.208C149.933,244.481 150.04,244.768 150.204,245.063C149.985,244.982 149.765,244.901 149.545,244.82Z" style="fill:white;fill-opacity:0.9;"/>
    <path d="M154.369,246.681C155.2,245.987 155.867,244.62 156.546,243.068L157.747,240.328C158.258,241.245 159.888,243.384 161.882,245.844C161.279,246.93 160.643,248.036 159.994,249.127C158.178,248.279 156.296,247.464 154.369,246.681Z" style="fill:white;fill-opacity:0.8;"/>
    <path d="M159.994,249.127C158.263,252.036 156.439,254.839 154.886,256.868C154.375,257.536 153.855,258.133 153.33,258.671C150.809,255.533 148.597,252.501 146.713,249.748C147.66,248.222 148.607,246.584 149.545,244.82C149.765,244.901 149.985,244.982 150.204,245.063C150.457,245.518 150.848,245.99 151.436,246.446C152.657,247.392 153.586,247.335 154.369,246.681C156.296,247.464 158.178,248.279 159.994,249.127Z" style="fill:white;fill-opacity:0.9;"/>
    <path d="M155.161,233.349C133.918,235.751 127.471,234.207 119.329,231.992C110.327,229.542 106.376,230.562 106.348,230.477C114.292,226.669 116.089,227.907 129.931,230.412C133.468,231.053 143.421,231.043 156.386,229.837C156.245,230.446 156.087,231.07 155.914,231.708C155.914,231.708 155.624,232.362 155.161,233.349Z" style="fill:white;fill-opacity:0.35;"/>
    <path d="M155.161,233.349C154.342,235.098 152.981,237.891 151.731,239.944C144.673,239.954 140.668,239.386 138.323,239.192C116.624,237.402 106.634,236.07 101.937,235.246C100.19,232.244 103.542,229.472 103.542,229.472C105.028,225.105 110.475,224.388 119.09,225.55C119.631,225.623 120.184,225.703 120.75,225.791C130.325,227.269 133.379,226.89 133.379,226.89C133.379,226.89 134.837,226.956 137.187,227.003L137.368,227.049L137.369,227.007C142.008,227.096 149.939,227.105 157.054,226.419C156.884,227.504 156.664,228.643 156.386,229.837C143.421,231.043 133.468,231.053 129.931,230.412C116.089,227.907 114.292,226.669 106.348,230.477C106.376,230.562 110.327,229.542 119.329,231.992C127.471,234.207 133.918,235.751 155.161,233.349Z" style="fill:white;fill-opacity:0.5;"/>
    <path d="M161.159,229.352C161.574,227.835 161.897,226.531 162.008,225.791C162.008,225.791 163.266,226.264 170.167,224.905C177.068,223.546 181.464,227.363 181.935,228.091C182.406,228.818 183.868,230.293 183.868,230.293C187.629,234.795 182.684,236.443 182.684,236.443C182.684,236.443 182.702,236.599 182.721,236.887C179.666,237.643 174.943,238.485 167.073,239.186C163.691,239.487 160.673,239.682 157.979,239.799L158.142,239.426C158.142,239.426 159.183,236.152 160.191,232.738C172.062,231.145 172.196,229.24 180.28,230.489C177.169,227.924 176.08,227.456 167.373,228.602C165.252,228.881 163.177,229.13 161.159,229.352Z" style="fill:white;fill-opacity:0.5;"/>
    <path d="M160.191,232.738C160.531,231.585 160.868,230.416 161.159,229.352C163.177,229.13 165.252,228.881 167.373,228.602C176.08,227.456 177.169,227.924 180.28,230.489C172.196,229.24 172.062,231.145 160.191,232.738Z" style="fill:white;fill-opacity:0.35;"/>
    <path d="M137.187,227.003L137.368,227.049C137.368,227.049 137.368,227.035 137.369,227.007C137.307,227.006 137.247,227.004 137.187,227.003Z" style="fill:white;"/>
    <path d="M133.397,226.042C133.718,215.013 136.961,210.822 136.961,210.822C147.809,196.739 158.238,203.845 161.17,209.561C164.103,215.277 162.008,225.791 162.008,225.791C161.59,228.587 158.142,239.426 158.142,239.426L156.546,243.068C155.226,246.082 153.954,248.397 151.436,246.446C148.918,244.494 150.018,242.249 150.018,242.249C152.031,240.466 155.914,231.708 155.914,231.708C156.427,229.82 156.797,228.057 157.054,226.419C158.374,217.973 156.666,212.815 155.914,210.702C155.016,208.178 151.014,204.54 144.206,209.067C137.622,213.446 137.378,226.177 137.369,227.007L137.187,227.003C134.837,226.956 133.379,226.89 133.379,226.89C133.383,226.603 133.389,226.321 133.397,226.042Z" style="fill:white;"/>
    <path d="M41.966,226.401L36.588,211.447C35.491,208.916 35.475,207.181 37.614,207.035L41.08,206.425C42.688,206.008 43.395,207.358 44.669,210.438L46.737,215.436C44.793,219.557 43.053,223.717 41.966,226.401Z" style="fill:white;fill-opacity:0.35;"/>
    <path d="M99.016,140.149C99.456,140.753 99.819,141.371 100.122,141.995C99.76,141.39 99.391,140.773 99.016,140.149Z" style="fill:white;fill-opacity:0.31;"/>
    <path d="M101.777,234.941C100.746,234.678 99.661,234.404 98.513,234.119C99.661,234.404 100.746,234.678 101.777,234.941C102.011,235.437 102.378,235.941 102.917,236.443C102.917,236.443 101.705,241.788 103.566,246.789C94.822,247.065 86.45,247.541 78.595,248.192C70.114,247.01 61.884,246.123 61.884,246.123L61.884,236.142C54.721,236.311 42.307,231.708 42.307,231.708L40.797,229.35C40.797,229.35 41.233,228.212 41.966,226.401C43.053,223.717 44.793,219.557 46.737,215.436C48.868,210.917 51.245,206.446 53.272,204.024C58.393,197.905 61.356,192.085 71.699,192.549L75.183,192.549C75.183,192.549 77.746,186.805 77.391,183.574C77.391,183.574 79.599,180.153 77.391,176.537C75.183,172.922 74.303,172.588 74.526,170.502C74.75,168.415 76.063,166.345 79.107,166.683C79.107,166.683 79.561,154.759 89.07,153.639C90.673,155.642 93.763,159.792 94.939,163.378C96.558,168.316 98.342,171.487 94.939,171.419C94.939,171.419 91.767,172.132 93.353,174.444C93.692,174.938 94.092,175.636 94.472,176.462C91.464,176.143 90.212,177.025 90.314,177.339C90.429,177.69 90.084,179.08 95.588,179.748C96.15,182.314 95.996,185.136 93.856,187.026C93.856,187.026 87.495,187.71 84.159,185.15C80.822,182.591 79.612,182.591 79.612,182.591C79.612,182.591 77.911,181.998 79.612,183.574C81.312,185.15 81.823,186.742 82.991,189.782C84.159,192.821 88.672,194.705 91.97,195.249L93.531,193.004C97.225,193.636 107.782,193.128 111.488,198.904C113.759,202.446 116.79,214.623 119.09,225.55C110.475,224.388 105.028,225.105 103.542,229.472C103.542,229.472 100.413,232.059 101.777,234.941ZM90.733,163.612C90.369,163.672 90.213,164.569 90.384,165.614C90.555,166.659 90.989,167.459 91.353,167.4C91.717,167.34 91.874,166.443 91.702,165.398C91.531,164.353 91.097,163.553 90.733,163.612ZM92.26,159.951C92.146,159.6 90.32,159.676 88.748,160.188C87.177,160.701 86.107,161.569 86.221,161.92C86.335,162.27 87.474,161.511 89.045,160.999C90.617,160.487 92.374,160.301 92.26,159.951Z" style="fill:white;fill-opacity:0.85;"/>
    <path d="M42.644,253.111C39.794,246.88 41.241,237.159 42.307,231.708C42.307,231.708 54.721,236.311 61.884,236.142L61.884,246.123C61.884,246.123 70.114,247.01 78.595,248.192C84.688,249.041 90.911,250.043 94.303,250.978C94.303,250.978 98.439,250.335 102.931,249.73L102.414,250.026C102.414,250.026 103.446,249.815 105.026,249.618C109.072,249.115 116.71,248.709 119.819,252.192C122.323,254.997 123.333,257.632 122.926,259.618C122.631,261.063 121.585,262.165 119.819,262.738C115.625,264.101 109.642,260.803 106.028,260.803C102.414,260.803 98.58,262.738 94.939,262.738C91.298,262.738 85.868,259.491 85.868,259.491C85.868,259.491 58.988,261.337 48.757,258.516C45.754,257.687 43.829,255.7 42.644,253.111Z" style="fill:white;"/>
    <path d="M101.032,159.598C100.901,158.171 100.837,157.165 100.898,156.886C98.11,153.099 91.371,153.579 91.371,153.579C90.55,153.531 89.784,153.554 89.07,153.639C90.673,155.642 93.763,159.792 94.939,163.378C96.558,168.316 98.342,171.487 94.939,171.419C94.939,171.419 91.767,172.132 93.353,174.444C93.692,174.938 94.092,175.636 94.472,176.462C94.82,176.499 95.192,176.553 95.588,176.625C97.214,176.92 99.626,174.88 99.946,175.632C101.28,178.763 97.623,179.995 95.588,179.748C96.15,182.314 95.996,185.136 93.856,187.026C93.856,187.026 87.495,187.71 84.159,185.15C80.822,182.591 79.612,182.591 79.612,182.591C79.612,182.591 77.911,181.998 79.612,183.574C81.312,185.15 81.823,186.742 82.991,189.782C84.159,192.821 88.672,194.705 91.97,195.249L93.531,193.004C92.906,192.897 92.477,192.757 92.312,192.549C91.169,191.111 94.939,186.999 94.939,186.999C101.961,185.67 102.414,180.343 102.414,175.555C102.414,172.133 101.515,164.637 101.091,160.23C100.441,160.175 99.391,159.972 98.362,159.914C96.712,159.821 95.376,160.115 95.396,159.747C95.417,159.379 96.73,158.958 98.38,159.051C99.366,159.107 100.38,159.34 101.032,159.598ZM97.529,163.384C97.892,163.325 98.327,164.125 98.498,165.17C98.669,166.215 98.512,167.112 98.149,167.172C97.785,167.231 97.35,166.431 97.179,165.386C97.008,164.341 97.165,163.444 97.529,163.384Z" style="fill:white;fill-opacity:0.75;"/>
    <path d="M77.391,183.574C77.391,183.574 76.65,182.223 72.977,182.366C69.304,182.509 40.475,171.673 51.736,148.539C51.736,148.539 60.363,130.954 78.764,132.35C90.739,133.259 96.313,136.438 99.016,140.149L100.122,141.995C100.819,143.429 101.194,144.899 101.433,146.313C102.098,150.253 101.41,154.537 100.898,156.886C98.11,153.099 91.371,153.579 91.371,153.579C79.632,152.899 79.107,166.683 79.107,166.683C76.063,166.345 74.75,168.415 74.526,170.502C74.303,172.588 75.183,172.922 77.391,176.537C79.599,180.153 77.391,183.574 77.391,183.574ZM99.168,142.235C97.576,141.634 98.436,146.307 96.966,148.306C95.252,150.637 92.761,151.012 93.691,151.949C94.488,152.752 96.521,151.605 97.694,150.441C100.96,147.201 99.65,142.417 99.168,142.235ZM57.341,157.768C62.656,152.615 68.454,136.337 80.268,136.629C80.928,136.646 91.687,136.911 88.461,135.638C88.409,135.617 76.921,133.741 71.839,136.821C65.762,140.505 55.515,156.878 56.206,157.451C56.278,157.511 56.977,158.091 57.341,157.768ZM93.342,140.364C94.01,145.357 84.515,144.541 80.044,147.556C68.901,155.07 65.769,163.338 63.822,167.384C61.543,172.117 58.981,169.935 57.432,169.666C54.286,169.12 60.892,176.079 64.377,169.737C66.613,165.669 66.088,165.341 71.744,158.08C81.776,145.201 84.782,149.252 92.919,144.213C97.376,141.453 95.362,137.947 94.407,137.349C93.947,137.061 93.354,136.824 92.919,137.204C92.468,137.597 93.152,138.944 93.342,140.364ZM70.017,177.519C70.521,172.271 73.514,160.407 84.706,153.646C84.994,153.472 91.353,149.838 87.279,150.301C77.663,151.395 65.791,172.765 68.625,178.575C69.481,180.328 70.017,179.431 70.017,177.519ZM59.971,164.509C60.508,163.226 68.053,152.485 70.091,150.288C72.316,147.888 77.05,144.735 78.961,143.66C81.857,142.032 83.783,141.887 87.945,140.702C87.932,140.651 88.32,140.04 86.301,139.896C85.241,139.821 76.613,141.441 69.368,148.243C63.693,153.572 55.366,166.481 58.335,166.643C59.415,166.702 59.899,164.664 59.971,164.509ZM52.279,162.46C54.107,161.127 51.732,154.48 55.395,148.95C58.987,143.527 69.036,136.289 65.52,136.959C61.872,137.655 57.451,143.844 54.411,146.953C48.414,153.084 50.461,164.155 52.279,162.46Z" style="fill:white;fill-opacity:0.4;"/>
    <path d="M93.445,140.873L93.443,140.889" style="fill:none;"/>
    <path d="M177.686,181.323C176.77,178.489 177.754,177.412 179.987,177.491L208.465,177.491C212.542,177.491 213.45,178.175 214.251,181.323L222.703,214.532C223.821,217.874 222.428,219.066 219.694,219.113L191.647,220.298C188.5,220.542 187.393,218.838 186.797,216.645" style="fill:white;fill-opacity:0.23;"/>
    <path d="M94.472,176.462C94.82,176.499 95.192,176.553 95.588,176.625C97.214,176.92 99.626,174.88 99.946,175.632C101.28,178.763 97.623,179.995 95.588,179.748C90.084,179.08 90.429,177.69 90.314,177.339C90.212,177.025 91.464,176.143 94.472,176.462ZM90.733,163.612C91.097,163.553 91.531,164.353 91.702,165.398C91.874,166.443 91.717,167.34 91.353,167.4C90.989,167.459 90.555,166.659 90.384,165.614C90.213,164.569 90.369,163.672 90.733,163.612ZM92.26,159.951C92.374,160.301 90.617,160.487 89.045,160.999C87.474,161.511 86.335,162.27 86.221,161.92C86.107,161.569 87.177,160.701 88.748,160.188C90.32,159.676 92.146,159.6 92.26,159.951ZM101.091,160.23C100.441,160.175 99.391,159.972 98.362,159.914C96.712,159.821 95.376,160.115 95.396,159.747C95.417,159.379 96.73,158.958 98.38,159.051C99.366,159.107 100.38,159.34 101.032,159.598L101.091,160.23ZM97.529,163.384C97.892,163.325 98.327,164.125 98.498,165.17C98.669,166.215 98.512,167.112 98.149,167.172C97.785,167.231 97.35,166.431 97.179,165.386C97.008,164.341 97.165,163.444 97.529,163.384Z" style="fill:white;fill-opacity:0.15;"/>
    <path d="M70.017,177.519C70.017,179.431 69.481,180.328 68.625,178.575C65.791,172.765 77.663,151.395 87.279,150.301C91.353,149.838 84.994,153.472 84.706,153.646C73.514,160.407 70.521,172.271 70.017,177.519ZM93.342,140.364C93.152,138.944 92.468,137.597 92.919,137.204C93.354,136.824 93.947,137.061 94.407,137.349C95.362,137.947 97.376,141.453 92.919,144.213C84.782,149.252 81.776,145.201 71.744,158.08C66.088,165.341 66.613,165.669 64.377,169.737C60.892,176.079 54.286,169.12 57.432,169.666C58.981,169.935 61.543,172.117 63.822,167.384C65.769,163.338 68.901,155.07 80.044,147.556C84.515,144.541 94.01,145.357 93.342,140.364ZM59.971,164.509C59.899,164.664 59.415,166.702 58.335,166.643C55.366,166.481 63.693,153.572 69.368,148.243C76.613,141.441 85.241,139.821 86.301,139.896C88.32,140.04 87.932,140.651 87.945,140.702C83.783,141.887 81.857,142.032 78.961,143.66C77.05,144.735 72.316,147.888 70.091,150.288C68.053,152.485 60.508,163.226 59.971,164.509ZM57.341,157.768C56.977,158.091 56.278,157.511 56.206,157.451C55.515,156.878 65.762,140.505 71.839,136.821C76.921,133.741 88.409,135.617 88.461,135.638C91.687,136.911 80.928,136.646 80.268,136.629C68.454,136.337 62.656,152.615 57.341,157.768ZM52.279,162.46C50.461,164.155 48.414,153.084 54.411,146.953C57.451,143.844 61.872,137.655 65.52,136.959C69.036,136.289 58.987,143.527 55.395,148.95C51.732,154.48 54.107,161.127 52.279,162.46ZM99.168,142.235C99.65,142.417 100.96,147.201 97.694,150.441C96.521,151.605 94.488,152.752 93.691,151.949C92.761,151.012 95.252,150.637 96.966,148.306C98.436,146.307 97.576,141.634 99.168,142.235Z" style="fill:white;fill-opacity:0.25;"/>
    <path d="M208.924,113.32C208.771,113.353 208.607,113.39 208.432,113.432C206.566,113.884 205.52,115.41 205.53,115.138C205.537,114.916 206.458,113.507 207.795,112.926C208.15,112.772 208.524,112.646 208.884,112.555C209.963,112.28 210.927,112.303 210.927,112.745C210.927,113.127 210.562,112.968 208.924,113.32ZM216.755,130.569C214.956,130.777 212.555,129.869 212.495,129.409C212.435,128.944 214.79,129.111 216.595,128.877C216.687,128.865 216.78,128.85 216.874,128.832C218.605,128.499 220.457,127.219 220.514,127.66C220.575,128.125 218.619,130.328 216.814,130.562L216.755,130.569ZM216.759,114.416C217.075,114.416 217.331,115.139 217.331,116.029C217.331,116.92 217.075,117.643 216.759,117.643C216.444,117.643 216.187,116.92 216.187,116.029C216.187,115.139 216.444,114.416 216.759,114.416ZM209.781,116.029C210.054,116.029 210.275,116.574 210.275,117.245C210.275,117.916 210.054,118.461 209.781,118.461C209.508,118.461 209.286,117.916 209.286,117.245C209.286,116.574 209.508,116.029 209.781,116.029ZM222.162,111.634C222.153,111.906 220.668,111.437 218.554,111.362C216.44,111.287 214.707,111.906 214.717,111.634C214.726,111.361 216.44,110.504 218.554,110.579C220.668,110.654 222.172,111.361 222.162,111.634Z" style="fill:white;fill-opacity:0.15;"/>
</svg>
