<?xml version="1.0" encoding="UTF-8" standalone="no"?>
<!DOCTYPE svg PUBLIC "-//W3C//DTD SVG 1.1//EN" "http://www.w3.org/Graphics/SVG/1.1/DTD/svg11.dtd">
<svg width="100%" height="100%" viewBox="0 0 300 300" version="1.1" xmlns="http://www.w3.org/2000/svg" xmlns:xlink="http://www.w3.org/1999/xlink" xml:space="preserve" xmlns:serif="http://www.serif.com/" style="fill-rule:evenodd;clip-rule:evenodd;stroke-linejoin:round;stroke-miterlimit:2;">
    <g transform="matrix(0.377513,0,0,0.377513,-47.2199,-38.8408)">
        <path d="M692.64,677.39C692.64,677.39 686.35,678.59 683.22,678.97C652.49,682.72 628.73,685.53 611.94,687.42C592.48,689.6 570.95,692.44 553.27,694.38C549.67,694.77 531.36,696.9 498.35,700.77L493.76,701.31C466.41,704.67 440.91,707.7 417.27,710.39C411.83,711.01 406.57,710.049 401.49,707.5C391.941,702.708 386.452,694.95 385.02,684.23C382.204,663.149 322.97,160.53 322.82,153.98C321.788,148.333 341.11,135 341.11,135L611.94,103.607C631.832,100.664 642.205,106.305 645.49,128.51C645.613,129.34 669.21,332.04 669.21,332.04C666.84,330.01 664.518,328.093 662.23,326.28C659.357,324.004 655.35,322.04 652.2,319.36C651.93,317.8 630.457,152.541 628.97,149.05C627.557,145.731 625.031,142.838 621.4,140.38C616.122,136.807 610.528,134.531 604.63,133.51C604.23,133.441 368.488,160.553 362.99,161.97C360.019,162.736 359.044,164.063 357.1,165.85C356.287,166.597 354.299,168.52 351.07,171.57C350.772,171.852 350.52,172.18 350.33,172.54L344.23,183.63C344.09,183.88 343.998,184.16 343.95,184.45C343.317,188.315 393.62,616.77 393.85,619.89C394.6,630.06 398.958,637.783 406.94,643.07C412.439,646.712 417.05,649.213 423.75,649.65C426.01,649.798 662.471,622.522 664.9,621.1C669.522,618.394 674.258,614.111 679.01,608.17C679.161,607.981 679.29,607.78 679.38,607.55L683.22,598.37C683.27,598.24 683.308,598.1 683.32,597.97C683.551,595.486 683.704,592.56 683.67,589.17C683.646,586.81 677.79,526.82 677.79,526.82C680.5,531.49 682.579,535.79 684.03,539.72C685.759,544.401 686.847,547.231 687.3,548.21C688.722,551.284 689.84,554.11 690.62,556.7C691.731,560.39 693.505,564.721 695.76,569.8C695.791,569.87 695.82,569.95 695.84,570.02L699.02,582.4C699.1,582.72 706.77,650.4 706.77,650.4L706.856,651.205C707.951,662.062 706.428,674.76 692.64,677.39ZM487.76,135C487.76,132.44 485.68,130.36 483.12,130.36C480.56,130.36 478.48,132.44 478.48,135C478.48,137.56 480.56,139.64 483.12,139.64C485.68,139.64 487.76,137.56 487.76,135ZM580.291,659.691C579.74,655.06 575.53,651.75 570.9,652.3L518.729,658.521C514.1,659.07 510.79,663.28 511.339,667.913L511.389,668.33C511.94,672.96 516.15,676.27 520.78,675.72L572.951,669.499C577.58,668.95 580.89,664.74 580.341,660.108L580.291,659.691Z" style="fill:white;fill-opacity:0.5;"/>
    </g>
    <g transform="matrix(0.377513,0,0,0.377513,-47.2199,-38.8408)">
        <path d="M487.76,135C487.76,132.44 485.68,130.36 483.12,130.36C480.56,130.36 478.48,132.44 478.48,135C478.48,137.56 480.56,139.64 483.12,139.64C485.68,139.64 487.76,137.56 487.76,135Z" style="fill:white;fill-opacity:0.25;"/>
    </g>
    <g transform="matrix(0.377513,0,0,0.377513,-47.2199,-38.8408)">
        <path d="M652.2,319.36C651.93,317.8 630.457,152.541 628.97,149.05C627.557,145.731 625.031,142.838 621.4,140.38C616.122,136.807 610.528,134.531 604.63,133.51C604.23,133.441 368.488,160.553 362.99,161.97C360.019,162.736 359.044,164.063 357.1,165.85C356.287,166.597 354.299,168.52 351.07,171.57C350.772,171.852 350.52,172.18 350.33,172.54L344.23,183.63C344.09,183.88 343.998,184.16 343.95,184.45C343.317,188.315 393.62,616.77 393.85,619.89C394.6,630.06 398.958,637.783 406.94,643.07C412.439,646.712 417.05,649.213 423.75,649.65C426.01,649.798 662.471,622.522 664.9,621.1C669.522,618.394 674.258,614.111 679.01,608.17C679.161,607.981 679.29,607.78 679.38,607.55L683.22,598.37C683.27,598.24 683.308,598.1 683.32,597.97C683.551,595.486 683.704,592.56 683.67,589.17C683.646,586.81 677.79,526.82 677.79,526.82C675.88,522.65 675.171,517.929 673.04,514.17C670.511,509.709 647.78,464.2 645.6,459.91C643.48,455.72 618.746,418.75 623.05,371.43C623.41,366.85 624.79,362.41 625.66,357.63C625.85,356.58 626.179,355.56 626.63,354.59C627.899,351.859 629.024,347.922 630.66,345.25C633.126,341.223 636.078,337.616 639.59,334.5C639.829,334.288 640.09,334.11 640.38,333.97L647.61,330.46C647.07,328.8 646.992,326.85 647.38,324.61C647.923,321.471 649.53,319.72 652.2,319.36ZM509.69,343.59C508.71,342.74 506.732,340.877 503.76,337.99C498.474,332.855 491.55,329.941 483,329.25C477.44,328.801 467.77,333.14 463.71,337.23C457.339,343.649 452.879,351.27 450.31,360.09C447.739,368.92 446.641,378.1 447,387.64C447.13,391.11 448.146,394.09 448.03,397.35C448.02,397.64 447.81,397.88 447.52,397.93L439.49,399.23C439.19,399.28 438.98,399.56 439.01,399.86L454.69,545.08C454.74,545.54 455.21,545.82 455.64,545.66C456.39,545.51 462.25,544.898 473.2,543.82C475.95,543.549 478.77,542.92 482.2,542.92C482.25,542.92 482.3,542.92 482.35,542.91L497.02,541.09L612.16,528.82C612.43,528.79 612.62,528.55 612.59,528.28L597.09,382.86C597.06,382.57 596.8,382.36 596.51,382.39L580.72,384.08C580.42,384.11 580.148,383.88 580.13,383.58C579.299,369.755 575.614,356.998 568.79,345.32C565.622,339.899 560.929,334.282 556.37,330.9C543.476,321.335 530.878,321.548 518.58,331.55C515.79,333.819 512.82,337.83 509.69,343.59ZM483.37,265.7C480.03,263.01 477.1,259.6 474.58,255.48C471.05,249.71 468.18,244.74 465.98,240.58C465.45,239.58 464.03,237.96 461.73,235.72C461.48,235.48 461.16,235.32 460.81,235.26C455.43,234.39 451.51,237.06 447.57,240.86C434.02,253.91 464.73,284.69 474.13,293.67C480.17,299.45 485.8,302.91 492.85,297.15C496.54,294.13 499.23,291.04 500.91,287.88C508.09,274.33 512,267 512.65,265.89C520.14,252.92 529.01,240.2 539.24,227.72C545.31,220.31 548.6,216.33 549.12,215.77C556.32,207.98 558.99,198.47 549.33,191.05C548.92,190.73 548.45,190.52 547.94,190.41C542.67,189.33 537.93,190.8 533.74,194.83C529.35,199.04 524.9,204.23 520.39,210.4C507.82,227.61 495.91,245.96 484.65,265.46C484.39,265.92 483.78,266.03 483.37,265.7Z" style="fill:white;fill-opacity:0.2;"/>
    </g>
    <g transform="matrix(0.377513,0,0,0.377513,-47.2199,-38.8408)">
        <path d="M336.293,346.628C327.76,275.674 315.102,169.054 315.55,167.91C315.58,167.85 315.87,166.38 316.43,163.5C317.22,159.49 319.35,156.31 322.82,153.98C322.97,160.53 382.204,663.149 385.02,684.23C386.452,694.95 391.941,702.708 401.49,707.5C406.57,710.049 411.83,711.01 417.27,710.39C440.91,707.7 466.41,704.67 493.76,701.31L498.35,700.77C531.36,696.9 549.67,694.77 553.27,694.38C570.95,692.44 592.48,689.6 611.94,687.42C628.73,685.53 652.49,682.72 683.22,678.97C686.35,678.59 692.64,677.39 692.64,677.39C689.43,681.34 685.488,684.585 680.81,687.07C679.882,687.563 406.42,720.71 406.42,720.71C406.31,720.74 406.2,720.76 406.09,720.75L398.34,720.2C393.96,718.93 387.14,715.84 384.25,711.75C382.45,709.2 381,706.76 379.89,704.42C379.89,704.42 345.48,419.46 345.04,419.11C345.04,419.11 315.31,401.08 315.35,400.81C313.88,397.22 312.45,394.02 311.06,391.19C310.48,390 310.7,388.58 311.72,386.93C312.61,387 313.298,387.351 313.79,387.98C317.028,392.119 342.93,412.44 342.93,412.44C343.06,412.52 343.231,412.42 343.23,412.27C343.225,411.63 343.391,410.85 343.74,409.92C343.89,409.52 343.92,409.08 343.84,408.66L343.769,408.155C343.263,404.306 340.213,379.232 336.293,346.628Z" style="fill:white;fill-opacity:0.25;"/>
    </g>
    <g transform="matrix(0.377513,0,0,0.377513,-47.2199,-38.8408)">
        <path d="M483.37,265.7C480.03,263.01 477.1,259.6 474.58,255.48C471.05,249.71 468.18,244.74 465.98,240.58C465.45,239.58 464.03,237.96 461.73,235.72C461.48,235.48 461.16,235.32 460.81,235.26C455.43,234.39 451.51,237.06 447.57,240.86C434.02,253.91 464.73,284.69 474.13,293.67C480.17,299.45 485.8,302.91 492.85,297.15C496.54,294.13 499.23,291.04 500.91,287.88C508.09,274.33 512,267 512.65,265.89C520.14,252.92 529.01,240.2 539.24,227.72C545.31,220.31 548.6,216.33 549.12,215.77C556.32,207.98 558.99,198.47 549.33,191.05C548.92,190.73 548.45,190.52 547.94,190.41C542.67,189.33 537.93,190.8 533.74,194.83C529.35,199.04 524.9,204.23 520.39,210.4C507.82,227.61 495.91,245.96 484.65,265.46C484.39,265.92 483.78,266.03 483.37,265.7Z" style="fill:white;fill-opacity:0.95;"/>
    </g>
    <g transform="matrix(0.377513,0,0,0.377513,-47.2199,-38.8408)">
        <path d="M669.21,332.04C671.03,334.18 672.92,336.39 674.89,338.68C677.04,341.19 678.8,343.52 680.16,345.66C682.55,349.43 684.96,353.21 687.38,356.98C688.42,358.6 689.59,360.95 690.88,364.02C691.91,366.47 693.04,368.85 694.27,371.16C695.59,376.17 697.022,381.069 698.57,385.86C699.701,389.36 699.123,392.093 696.84,394.05C695.811,394.932 694.731,395.138 693.6,394.67C688.583,392.592 684.169,389.601 680.37,385.66C675.339,380.441 655.41,346.25 652.89,341.05C651.18,337.52 649.42,333.99 647.61,330.46C647.07,328.8 646.992,326.85 647.38,324.61C647.923,321.471 649.53,319.72 652.2,319.36C655.35,322.04 659.357,324.004 662.23,326.28C664.518,328.093 666.84,330.01 669.21,332.04Z" style="fill:white;fill-opacity:0.3;"/>
    </g>
    <g transform="matrix(0.377513,0,0,0.377513,-47.2199,-38.8408)">
        <path d="M497.02,541.09L612.16,528.82C612.43,528.79 612.62,528.55 612.59,528.28L597.09,382.86C597.06,382.57 596.8,382.36 596.51,382.39L580.72,384.08C580.42,384.11 580.148,383.88 580.13,383.58C579.299,369.755 575.614,356.998 568.79,345.32C565.622,339.899 560.929,334.282 556.37,330.9C543.476,321.335 530.878,321.548 518.58,331.55C515.79,333.819 512.82,337.83 509.69,343.59L504.67,357.4C504.12,358.82 503.64,360.68 503.24,362.99C501.569,372.65 501.51,382.248 503.01,391.78C503.06,392.1 502.84,392.4 502.52,392.43L481.64,394.6L497.02,541.09ZM516.58,355.51C515.26,358.77 514.399,361.54 514,363.82C512.456,372.639 512.315,381.521 513.35,390.48C513.382,390.76 513.64,390.97 513.92,390.95L525.43,390.02L568.83,385.37C569.35,385.31 569.72,384.86 569.67,384.34C568.572,372.841 565.206,358.946 557.64,348.1C554.632,343.788 551.933,340.825 549.54,339.2C539.483,332.37 530.727,333.428 523.32,342.34C519.839,346.529 517.59,350.92 516.58,355.51ZM570.34,455.09C570.34,442.05 559.76,431.47 546.72,431.47C533.68,431.47 523.1,442.05 523.1,455.09C523.1,468.13 533.68,478.71 546.72,478.71C559.76,478.71 570.34,468.13 570.34,455.09Z" style="fill:white;fill-opacity:0.95;"/>
    </g>
    <g transform="matrix(0.377513,0,0,0.377513,-47.2199,-38.8408)">
        <path d="M509.69,343.59C508.71,342.74 506.732,340.877 503.76,337.99C498.474,332.855 491.55,329.941 483,329.25C477.44,328.801 467.77,333.14 463.71,337.23C457.339,343.649 452.879,351.27 450.31,360.09C447.739,368.92 446.641,378.1 447,387.64C447.13,391.11 448.146,394.09 448.03,397.35C448.02,397.64 447.81,397.88 447.52,397.93L439.49,399.23C439.19,399.28 438.98,399.56 439.01,399.86L454.69,545.08C454.74,545.54 455.21,545.82 455.64,545.66C456.39,545.51 462.25,544.898 473.2,543.82C475.95,543.549 478.77,542.92 482.2,542.92C482.25,542.92 482.3,542.92 482.35,542.91L497.02,541.09L481.64,394.6L460.41,397.03C460,397.08 459.598,396.841 459.44,396.46C458.112,393.257 458.879,390.09 458.67,386.33C457.846,371.52 461.984,351.266 475.34,342.85C480.812,339.402 488.577,341.074 493.72,344.52C498.068,347.433 501.72,351.72 504.67,357.4L509.69,343.59Z" style="fill:white;fill-opacity:0.75;"/>
    </g>
    <g transform="matrix(0.377513,0,0,0.377513,-47.2199,-38.8408)">
        <path d="M677.79,526.82C675.88,522.65 675.171,517.929 673.04,514.17C670.511,509.709 647.78,464.2 645.6,459.91C643.48,455.72 618.746,418.75 623.05,371.43C623.466,366.855 624.79,362.41 625.66,357.63C625.85,356.58 626.179,355.56 626.63,354.59C627.899,351.859 629.024,347.922 630.66,345.25C633.126,341.223 636.078,337.616 639.59,334.5C639.829,334.288 640.09,334.11 640.38,333.97L647.61,330.46C649.42,333.99 651.18,337.52 652.89,341.05C655.41,346.25 675.339,380.441 680.37,385.66C684.169,389.601 688.583,392.592 693.6,394.67C694.731,395.138 695.811,394.932 696.84,394.05C699.123,392.093 699.701,389.36 698.57,385.86C697.022,381.069 695.59,376.17 694.27,371.16C695.23,373.34 758.56,492.84 758.73,493.41C758.73,493.41 787.55,593.72 789.97,610.84C791.08,618.71 791.73,623.11 791.94,624.04C792.61,627.06 792.66,630.09 793.24,633.96C794.43,641.88 795.06,649.39 795.11,656.49C795.15,660.94 795.307,664.642 795.88,668.51C798.374,685.347 796.74,752.773 788.85,769.97C788.704,770.288 788.87,770.66 788.94,771C789.86,776 790.1,779.44 791.07,783.81C793.49,794.72 810.301,843.845 782.68,862.96C753.215,883.35 660.55,914.601 587.06,886.15C579.673,883.29 575.01,874.1 571.26,867.03C567.41,859.79 564.44,854.25 562.34,850.4C556.16,839.1 547.58,830.11 536.59,823.42C527.49,817.87 516.37,812.99 508.53,808.47C495.06,800.69 487.76,796.48 486.64,795.85C476.8,790.28 469.55,784.87 460.25,777.83C451.28,771.04 442.43,763.36 433.72,754.78C427.25,748.41 400.66,722.58 398.34,720.2L406.09,720.75C406.2,720.76 406.31,720.74 406.42,720.71C406.42,720.71 679.882,687.563 680.81,687.07C685.488,684.585 689.43,681.34 692.64,677.39C706.428,674.76 707.951,662.062 706.856,651.205L706.87,651.18C706.93,650.91 699.1,582.72 699.02,582.4L695.84,570.02C695.82,569.95 695.791,569.87 695.76,569.8C693.505,564.721 691.731,560.39 690.62,556.7C689.84,554.11 688.722,551.284 687.3,548.21C686.847,547.231 685.759,544.401 684.03,539.72C682.579,535.79 680.5,531.49 677.79,526.82Z" style="fill:white;fill-opacity:0.95;"/>
    </g>
    <g transform="matrix(0.377513,0,0,0.377513,-47.2199,-38.8408)">
        <path d="M525.43,390.02L568.83,385.37C569.35,385.31 569.72,384.86 569.67,384.34C568.572,372.841 565.206,358.946 557.64,348.1C554.632,343.788 551.933,340.825 549.54,339.2C539.483,332.37 530.727,333.428 523.32,342.34C519.839,346.529 517.59,350.92 516.58,355.51C522.4,366.36 525.35,377.87 525.43,390.02Z" style="fill:white;fill-opacity:0.2;"/>
    </g>
    <g transform="matrix(0.377513,0,0,0.377513,-47.2199,-38.8408)">
        <path d="M504.67,357.4C501.72,351.72 498.068,347.433 493.72,344.52C488.577,341.074 480.812,339.402 475.34,342.85C461.984,351.266 457.846,371.52 458.67,386.33C458.879,390.09 458.112,393.257 459.44,396.46C459.598,396.841 460,397.08 460.41,397.03L481.64,394.6L502.52,392.43C502.84,392.4 503.06,392.1 503.01,391.78C501.51,382.248 501.569,372.65 503.24,362.99C503.64,360.68 504.12,358.82 504.67,357.4Z" style="fill:white;fill-opacity:0.2;"/>
    </g>
    <g transform="matrix(0.377513,0,0,0.377513,-47.2199,-38.8408)">
        <path d="M311.72,386.93C311.96,385.93 311.19,373.34 312.14,370.4C313.6,365.86 315.829,360.741 320.08,357.04C325.962,351.92 333.596,347.954 336.293,346.628C340.213,379.232 343.263,404.306 343.769,408.155C343.802,408.421 343.826,408.592 343.84,408.66C343.92,409.08 343.89,409.52 343.74,409.92C343.391,410.85 343.225,411.63 343.23,412.27C343.231,412.42 343.06,412.52 342.93,412.44C342.93,412.44 317.028,392.119 313.79,387.98C313.298,387.351 312.61,387 311.72,386.93Z" style="fill:white;fill-opacity:0.95;"/>
    </g>
    <g transform="matrix(0.377513,0,0,0.377513,-47.2199,-38.8408)">
        <path d="M516.58,355.51C515.26,358.77 514.399,361.54 514,363.82C512.456,372.639 512.315,381.521 513.35,390.48C513.382,390.76 513.64,390.97 513.92,390.95L525.43,390.02C525.35,377.87 522.4,366.36 516.58,355.51Z" style="fill:white;fill-opacity:0.75;"/>
    </g>
    <g transform="matrix(0.377513,0,0,0.377513,-47.2199,-38.8408)">
        <path d="M248.3,426C247.45,425.43 246.99,424.97 246.94,424.6C245.47,414.83 247.63,406.29 253.43,398.97C258.43,392.67 267.06,386.13 275.26,386.17C284.83,386.21 292.8,387.68 299.18,390.57C302.97,392.29 308.36,395.7 315.35,400.81C315.31,401.08 345.04,419.11 345.04,419.11C345.48,419.46 379.89,704.42 379.89,704.42L364.19,690.04C364.12,689.98 364.05,689.93 363.97,689.89C361,688.2 358.41,685.43 355.1,682.59C353.54,681.25 336.9,667.28 305.17,640.67C297.59,634.31 292.66,629.95 290.38,627.6C283.94,620.95 279.26,613.43 276.34,605.03C274.95,601.02 274.29,596.67 274.36,591.98C274.43,586.64 274.81,582.55 275.48,579.71C276.11,577.07 277.81,574.28 280.59,571.35C283.93,567.83 286.66,565.46 288.77,564.25C289.69,563.72 291.52,563.32 294.25,563.03C298.4,562.46 302.134,561.036 305.52,558.81C305.858,558.588 305.929,558.111 305.67,557.8C302.221,553.668 296.382,551.518 292.51,548.72C285.543,543.686 278.328,538.072 270.88,531.85C265.029,526.962 261.397,523.682 260,522C257.736,519.274 255.44,516.57 253.09,513.9C252.99,512.4 251.9,510.77 251.9,509.69C251.92,506.32 253.04,503.52 254.48,499.21C258.28,487.81 268.68,478.61 279.71,474.47C280.07,474.33 280.46,474.27 280.84,474.3L286.2,474.69C286.2,474.69 301.269,475.233 302.86,475.67C303.19,475.761 303.411,475.349 303.16,475.12C299.484,471.765 295.72,468.831 291.9,466.26C286.389,462.551 282.479,459.771 280.18,457.94C272.648,451.943 266.311,446.68 261.2,442.14C259.076,440.254 257.729,438.901 257.15,438.08C254.266,433.993 251.32,429.96 248.3,426Z" style="fill:white;fill-opacity:0.95;"/>
    </g>
    <g transform="matrix(0.377513,0,0,0.377513,-47.2199,-38.8408)">
        <path d="M286.2,474.69C286.77,473.87 285.95,473.16 283.74,472.57C283.44,472.48 283.15,472.35 282.88,472.18C279.46,469.86 275.51,467.13 271.02,463.99C266.42,460.76 261.64,456.48 256.67,451.14C251.34,445.41 247.99,438.39 246.6,430.06C246.54,429.7 246.6,429.34 246.76,429.01L248.3,426C251.32,429.96 254.266,433.993 257.15,438.08C257.729,438.901 259.076,440.254 261.2,442.14C266.311,446.68 272.648,451.943 280.18,457.94C282.479,459.771 286.389,462.551 291.9,466.26C295.72,468.831 299.484,471.765 303.16,475.12C303.411,475.349 303.19,475.761 302.86,475.67C301.269,475.233 286.2,474.69 286.2,474.69Z" style="fill:white;fill-opacity:0.25;"/>
    </g>
    <g transform="matrix(0.377513,0,0,0.377513,-47.2199,-38.8408)">
        <path d="M570.34,455.09C570.34,442.05 559.76,431.47 546.72,431.47C533.68,431.47 523.1,442.05 523.1,455.09C523.1,468.13 533.68,478.71 546.72,478.71C559.76,478.71 570.34,468.13 570.34,455.09Z" style="fill:white;fill-opacity:0.5;"/>
    </g>
    <g transform="matrix(0.377513,0,0,0.377513,-47.2199,-38.8408)">
        <path d="M294.25,563.03C294.54,562.78 294.73,562.54 294.84,562.31C294.99,561.98 294.85,561.59 294.52,561.45C291.05,559.96 287.68,558.11 284.39,555.92C271.51,547.33 258.22,538.34 253.53,522.99C253.02,521.31 252.48,519.67 251.93,518.07C251.51,516.84 251.9,515.45 253.09,513.9C255.44,516.57 257.736,519.274 260,522C261.397,523.682 265.029,526.962 270.88,531.85C278.328,538.072 285.543,543.686 292.51,548.72C296.382,551.518 302.221,553.668 305.67,557.8C305.929,558.111 305.858,558.588 305.52,558.81C302.134,561.036 298.4,562.46 294.25,563.03Z" style="fill:white;fill-opacity:0.25;"/>
    </g>
    <g transform="matrix(0.377513,0,0,0.377513,-47.2199,-38.8408)">
        <path d="M580.291,659.691C579.74,655.06 575.53,651.75 570.9,652.3L518.729,658.521C514.1,659.07 510.79,663.28 511.339,667.913L511.389,668.33C511.94,672.96 516.15,676.27 520.78,675.72L572.951,669.499C577.58,668.95 580.89,664.74 580.341,660.108L580.291,659.691Z" style="fill:white;fill-opacity:0.35;"/>
    </g>
</svg>
