<?xml version="1.0" encoding="UTF-8" standalone="no"?>
<!DOCTYPE svg PUBLIC "-//W3C//DTD SVG 1.1//EN" "http://www.w3.org/Graphics/SVG/1.1/DTD/svg11.dtd">
<svg width="100%" height="100%" viewBox="0 0 300 300" version="1.1" xmlns="http://www.w3.org/2000/svg" xmlns:xlink="http://www.w3.org/1999/xlink" xml:space="preserve" xmlns:serif="http://www.serif.com/" style="fill-rule:evenodd;clip-rule:evenodd;stroke-linejoin:round;stroke-miterlimit:2;">
    <path d="M139.925,68.391C137.089,58.298 134.27,48.315 131.477,38.441C130.526,35.076 128.371,32.108 124.797,31.513C122.382,31.111 120.151,31.651 118.109,32.362C114.178,33.729 112.115,36.293 111.919,40.051C111.861,41.167 112.15,42.852 112.783,45.106C115.442,54.568 118.128,64.051 120.834,73.567C122.044,78.056 123.323,82.562 124.683,87.085C124.746,87.293 124.95,87.705 125.3,88.33C126.745,91.35 129.309,92.945 132.597,92.952C134.56,92.957 136.095,92.435 137.804,91.915C138.805,91.611 139.861,91.022 140.966,90.152C142.954,88.586 143.908,86.48 143.813,83.825C143.787,83.087 143.71,82.415 143.585,81.814C143.225,80.083 142.788,78.374 142.27,76.689L139.925,68.391Z" style="fill:white;fill-opacity:0.75;"/>
    <path d="M177.317,89.834L177.208,90.046L177.156,90.146C177.112,90.231 177.072,90.309 177.058,90.341C175.531,93.688 169.615,105.402 169.615,105.402C169.572,105.516 169.45,105.583 169.333,105.559L169.139,105.52C166.576,105.014 164.175,104.773 161.941,104.797C161.447,104.802 160.983,104.978 160.547,105.319L159.609,105.033L160.74,102.397C163.825,92.29 167.379,82.334 171.3,72.489L171.457,72.094L171.775,71.316L171.807,71.242L171.981,70.81L172.131,70.444C173.007,68.302 174.52,64.612 175.349,62.641C177.721,56.943 180.048,51.767 182.328,47.109C183.024,45.687 184.045,44.467 185.388,43.448C185.486,43.374 185.595,43.314 185.71,43.268C187.133,42.696 188.687,42.769 190.356,43.448C191.879,44.069 193.001,45.007 193.733,46.256C193.784,46.343 193.824,46.433 193.851,46.527C194.658,49.347 193.63,51.825 192.606,54.736C191.375,58.234 188.993,63.934 185.509,71.855L185.456,71.975L185.199,72.554C182.626,78.336 179.943,84.072 177.317,89.834Z" style="fill:white;fill-opacity:0.5;"/>
    <path d="M49.286,93.954C46.526,84.179 43.702,74.235 40.807,64.118C39.755,60.454 37.387,57.124 33.196,56.958C30.867,56.866 28.951,57.392 27.321,57.944C24.573,58.874 22.351,60.771 21.516,63.819C20.934,65.948 21.484,68.572 22.141,70.896C24.787,80.257 27.466,89.716 30.168,99.279L32.462,107.593C33.137,109.871 33.583,111.345 33.801,112.012C34.852,115.227 37.293,118.222 40.862,118.468C43.352,118.639 44.524,118.257 47.225,117.474C47.857,117.291 48.724,116.826 49.821,116.076C52.62,114.162 53.442,111.281 53.061,108.014C52.927,107.126 52.805,106.482 52.695,106.077C51.646,102.202 50.516,98.16 49.286,93.954Z" style="fill:white;fill-opacity:0.75;"/>
    <path d="M164.51,73.716C163.432,74.083 162.403,74.786 161.415,75.798C160.827,76.4 160.33,77.168 159.927,78.103C159.489,79.119 159.185,79.992 159.008,80.719C158.407,83.189 157.868,85.636 157.394,88.059C157.221,88.942 156.879,91.138 157.295,91.366C157.555,91.507 157.689,91.861 157.633,92.253C157.537,92.925 157.523,94.869 157.382,95.489L156.208,100.575C155.787,100.933 155.257,101.103 154.625,101.078C154.35,101.067 154.134,100.842 154.134,100.567L154.134,99.668C154.134,99.593 154.063,99.538 153.993,99.558L7.142,140.972C6.958,140.292 6.765,139.601 6.565,138.902C3.354,127.697 1.231,120.24 0.211,116.528C0.096,116.112 0.028,115.307 0.003,114.113C-0.053,111.45 0.813,109.205 2.975,107.558C3.776,106.948 5.324,106.317 7.622,105.669C10.504,104.856 16.839,103.096 26.622,100.391C27.843,100.053 29.025,99.684 30.168,99.279L32.462,107.593C31.794,108.936 31.665,110.492 32.073,112.259C33.582,118.79 35.642,124.559 43.812,123.212C45.579,122.921 47.46,122.352 49.451,121.508C53.599,119.749 55.328,116.602 54.635,112.07C54.451,110.865 54.125,109.324 53.496,107.495C53.486,107.463 53.461,107.436 53.43,107.424C53.238,107.355 53.112,107.554 53.061,108.014C52.927,107.126 52.805,106.482 52.695,106.077C51.646,102.202 50.516,98.16 49.286,93.954C72.399,87.427 95.503,80.907 118.6,74.392C118.855,74.317 119.267,74.246 119.845,74.176C120.52,74.093 120.85,73.889 120.834,73.567C122.044,78.056 123.323,82.562 124.683,87.085C124.746,87.293 124.95,87.705 125.3,88.33L124.985,88.236C124.817,88.188 124.659,88.33 124.691,88.503C125.558,93.179 128.273,97.534 133.559,97.469C134.867,97.453 135.738,97.377 136.182,97.245C138.839,96.453 141.127,96.087 143.228,94.661C146.166,92.666 147.304,89.803 146.645,86.076C146.224,83.7 145.566,81.468 144.669,79.376C144.179,78.232 143.503,77.278 142.662,76.489C142.571,76.403 142.471,76.393 142.364,76.454C142.306,76.486 142.273,76.564 142.27,76.689L139.925,68.391C149.087,65.795 158.242,63.214 167.389,60.642C170.503,59.766 173.158,60.434 175.349,62.641C174.52,64.612 173.007,68.302 172.131,70.444L171.981,70.81L171.807,71.242L171.775,71.316L171.457,72.094L171.3,72.489C169.075,72.776 164.602,73.685 164.51,73.716Z" style="fill:white;fill-opacity:0.25;"/>
    <path d="M160.74,102.397C160.139,102.37 159.55,102.312 158.976,102.221C157.869,102.045 156.946,101.498 156.208,100.575L157.382,95.489C157.523,94.869 157.537,92.925 157.633,92.253C157.689,91.861 157.555,91.507 157.295,91.366C156.879,91.138 157.221,88.942 157.394,88.059C157.868,85.636 158.407,83.189 159.008,80.719C159.185,79.992 159.489,79.119 159.927,78.103C160.33,77.168 160.827,76.4 161.415,75.798C162.403,74.786 163.432,74.083 164.51,73.716C164.602,73.685 169.075,72.776 171.3,72.489C167.379,82.334 163.825,92.29 160.74,102.397Z" style="fill:white;fill-opacity:0.75;"/>
    <path d="M198.089,110.519C197.042,106.491 194.862,102.707 192.983,99.114C192.108,97.441 191.397,96.341 190.858,95.807C190.771,95.721 190.681,95.639 190.591,95.564C190.52,95.505 190.136,95.245 189.441,94.786C188.753,94.333 178.951,90.792 177.156,90.146L177.208,90.046L177.317,89.834C179.943,84.071 182.626,78.336 185.199,72.554L185.456,71.975C186.226,71.771 201.969,73.482 207.082,73.716C207.581,73.739 207.848,73.756 207.875,73.759C208.527,73.928 211.516,73.993 211.677,73.972C212.428,73.873 213.024,73.712 213.46,73.488C216.047,72.161 221.491,73.658 221.919,73.913C222.708,74.381 227.312,77.969 227.952,78.665C230.997,81.974 232.884,84.054 233.619,84.893C241.721,94.149 246.708,99.79 248.555,101.832C253.164,106.93 256.684,110.755 259.107,113.308C260.222,114.482 261.542,115.719 263.062,117.023C272.777,125.354 283.46,132.195 295.093,137.574C296.535,138.241 297.481,138.777 297.933,139.181C298.835,139.987 299.434,140.893 299.724,141.894C300.113,143.241 300.09,144.703 299.661,146.277C298.465,150.665 296.813,154.744 294.704,158.515C291.884,163.557 288.407,168.586 284.27,173.596C282.028,176.31 279.859,178.596 276.733,179.876C275.304,180.461 273.779,180.449 272.154,179.856L270.39,179.208C269.695,178.952 269.17,178.622 268.812,178.218C266.784,175.93 264.7,173.729 262.567,171.609C256.524,165.599 250.136,159.733 243.402,154.018C241.906,152.749 240.512,151.775 239.219,151.096C236.251,149.539 233.144,148.222 229.904,147.137C227.382,146.293 224.794,146.352 222.363,146.273C221.974,146.261 219.901,146.049 219.783,146.03C215.86,145.403 212.867,144.886 210.821,144.396C207.793,143.672 203.724,142.578 198.623,141.109C193.655,139.715 190.018,138.594 187.72,137.751C185.545,136.953 184.062,136.297 183.231,135.854C181.499,134.93 179.907,133.864 178.507,132.801C176.514,131.288 174.91,129.781 173.845,128.701C172.905,127.748 172.384,127.128 172.384,127.128C172.384,127.128 169.211,124.447 165.822,121.574L165.578,121.366C164.382,120.352 163.167,119.321 162.064,118.382C160.016,116.64 158.351,115.215 157.895,114.802L157.845,114.757C157.755,114.674 157.629,114.643 157.508,114.67L156.911,114.823C157.013,114.482 157.04,114.089 156.997,113.637L161.042,115.99C161.27,116.119 161.541,116.159 161.8,116.1C164.968,115.371 166.802,113.317 167.279,109.965C167.299,109.824 167.291,109.675 167.255,109.533C166.578,106.831 163.045,105.846 160.547,105.319C160.983,104.978 161.447,104.802 161.941,104.797C164.175,104.773 166.576,105.014 169.139,105.52L169.333,105.559C169.45,105.583 175.997,107.817 175.997,107.817C178.047,108.866 179.988,110.082 181.818,111.47C184.96,113.852 188.027,116.229 192.06,116.885C194.141,117.224 196.717,115.966 197.386,115.2C198.055,114.434 198.146,112.095 198.122,111.036C198.116,110.76 198.102,110.571 198.089,110.519Z" style="fill:white;fill-opacity:0.75;"/>
    <path d="M125.3,88.33L124.985,88.236C124.817,88.188 124.659,88.33 124.691,88.503C125.558,93.179 128.273,97.534 133.559,97.469C134.867,97.453 135.738,97.377 136.182,97.245C138.839,96.453 141.127,96.087 143.228,94.661C146.166,92.666 147.304,89.803 146.645,86.076C146.224,83.7 145.566,81.468 144.669,79.376C144.179,78.232 143.503,77.278 142.662,76.489C142.571,76.403 142.471,76.393 142.364,76.454C142.306,76.486 142.273,76.564 142.27,76.689C142.788,78.374 143.225,80.083 143.585,81.814C143.71,82.415 143.787,83.087 143.813,83.825C143.908,86.48 142.954,88.586 140.966,90.152C139.861,91.022 138.805,91.611 137.804,91.915C136.095,92.435 134.56,92.957 132.597,92.952C129.309,92.945 126.745,91.35 125.3,88.33Z" style="fill:white;fill-opacity:0.15;"/>
    <path d="M189.441,94.786C190.136,95.245 190.52,95.505 190.591,95.564C190.681,95.639 190.771,95.721 190.858,95.807C191.397,96.341 192.108,97.441 192.983,99.114C194.862,102.707 197.042,106.491 198.089,110.519C198.102,110.571 198.116,110.76 198.122,111.036C198.114,111.338 198.078,111.744 198.014,112.255C197.558,110.558 196.608,108.756 195.167,106.847C193.568,104.73 191.991,102.582 190.206,100.611C189.904,100.277 188.979,100.277 187.528,100.477L182.195,99.379C181.802,99.407 181.275,101.164 181.095,101.514C179.914,103.806 178.185,106.289 175.997,107.817C175.997,107.817 169.45,105.583 169.333,105.559C169.45,105.583 169.572,105.516 169.615,105.402C169.615,105.402 175.531,93.688 177.058,90.341C177.075,90.303 177.114,90.227 177.156,90.146C178.951,90.792 188.753,94.333 189.441,94.786Z" style="fill:white;fill-opacity:0.25;"/>
    <path d="M165.578,121.366L165.822,121.574C166.179,123.778 167.089,129.272 167.601,131.283C167.719,131.746 168.143,132.394 168.873,133.223L168.378,134.264C168.331,134.358 168.308,134.46 168.312,134.566C168.327,134.994 168.476,135.316 168.759,135.536C169.144,135.835 169.679,135.843 170.075,135.556C170.492,135.254 170.774,134.908 170.927,134.511C173.319,134.574 176.151,133.764 178.507,132.801C179.907,133.864 181.499,134.93 183.231,135.854C184.048,136.322 185.545,136.953 187.72,137.751C190.018,138.594 193.655,139.715 198.623,141.109L201.561,151.512C201.587,151.623 201.619,151.733 201.654,151.841L202.298,154.123C202.365,154.574 202.524,155.047 202.696,155.532L203.361,157.888L203.414,158.078L204.209,160.895C204.29,161.402 204.467,161.915 204.643,162.433L205.062,163.92C205.073,163.983 205.083,164.047 205.091,164.111C205.149,164.582 205.349,165.105 205.548,165.642L206.211,167.993C206.571,169.422 206.959,170.799 207.375,172.123L207.833,173.75C207.872,173.934 207.908,174.125 207.942,174.322C208.012,174.738 208.204,175.209 208.376,175.678L208.79,177.151C209.269,179.105 209.775,180.911 210.31,182.566L210.336,182.644L210.52,183.298C210.592,183.589 210.661,183.908 210.727,184.255C210.832,184.811 211.066,185.346 211.258,185.926L211.461,186.649C212.025,188.918 212.555,190.838 213.056,192.408C213.193,192.836 213.346,193.468 213.523,194.308C213.634,194.852 213.898,195.424 214.093,196.035L214.216,196.475C214.241,196.584 214.264,196.695 214.281,196.806C214.375,197.418 214.609,198.043 214.817,198.627L215.21,200.037C215.327,200.556 215.692,201.94 216.311,204.186C216.417,204.573 216.543,204.936 216.664,205.298C216.929,206.272 217.08,206.845 217.093,206.931C217.128,207.163 217.233,207.552 217.415,208.097C219.175,213.39 220.16,219.274 214.226,222.177C214.035,222.27 208.072,223.981 198.52,226.696C195.547,227.523 192.781,228.299 190.222,229.022C187.08,229.909 184.361,230.688 182.067,231.361L179.39,232.119C178.661,232.289 177.927,232.44 177.243,232.726L175.593,233.193C175.008,233.291 174.43,233.487 173.86,233.683L172.082,234.185L172.046,234.19C171.546,234.264 171.057,234.435 170.575,234.611L167.331,235.527C166.599,235.723 165.68,235.973 164.573,236.276C164.338,236.34 164.096,236.424 163.85,236.511L162.415,236.916L162.322,236.928C161.66,237.003 160.764,237.362 160.211,237.538L152.599,239.686L149.959,240.427C147.867,241.012 146.238,241.473 145.072,241.808L142.18,242.624C141.948,242.678 141.694,242.735 141.417,242.795C141.002,242.885 140.596,243.039 140.177,243.188L138.911,243.545L138.908,243.545C138.336,243.637 137.764,243.829 137.199,244.027L135.125,244.611C134.559,244.707 134.034,244.886 133.508,245.067L131.798,245.548L131.67,245.568C131.246,245.627 130.773,245.794 130.285,245.974L128.253,246.547C127.74,246.585 127.207,246.807 126.647,246.999L125.12,247.428C123.439,247.883 121.436,248.447 119.111,249.119L115.884,250.027C115.009,250.257 114.212,250.462 113.376,250.732L111.557,251.244C111.037,251.324 110.461,251.516 109.868,251.719L104.077,253.346L103.067,253.627C101.868,253.959 100.764,254.271 99.754,254.561L94.257,256.104C94.093,256.147 93.928,256.192 93.764,256.242L81.141,259.782L81.125,259.785C80.82,259.838 80.499,259.938 80.17,260.054L77.633,260.764C77.49,260.798 77.347,260.839 77.204,260.884C61.184,265.369 50.232,268.411 49.687,268.507C47.323,268.92 45.331,268.241 43.714,266.461C41.823,264.381 41.067,262.463 40.258,259.549C29.257,219.997 18.221,180.469 7.142,140.972L153.993,99.558C154.063,99.538 154.134,99.593 154.134,99.668L154.134,100.567C154.134,100.842 154.35,101.067 154.625,101.078C155.257,101.103 155.787,100.933 156.208,100.575C156.946,101.498 157.869,102.045 158.976,102.221C159.55,102.312 160.139,102.37 160.74,102.397L159.609,105.033C157.547,104.64 155.838,104.678 154.487,105.154C153.199,105.609 152.501,106.65 152.437,108.281C152.432,108.414 152.452,108.544 152.496,108.665C153.302,110.89 155.084,112.224 156.997,113.637C157.04,114.089 157.013,114.482 156.911,114.823L157.405,119.159L156.907,119.98C156.836,120.102 156.71,120.18 156.569,120.192C155.842,120.254 155.183,119.841 154.593,119.847C153.655,119.856 152.477,119.521 151.526,119.599C146.833,119.983 142.144,121.355 139.501,124.956C136.874,128.534 136.878,132.182 139.509,135.905C140.632,137.496 142.556,138.905 145.313,140.06C145.419,140.105 145.473,140.221 145.439,140.331C145.205,141.094 145.247,142.007 146.22,142.13C147.297,142.266 147.26,141.607 147.807,141.034C147.897,140.94 148.027,140.898 148.157,140.92C149.8,141.209 151.668,141.245 153.761,141.062C157.056,140.773 159.962,139.597 162.483,137.535C165.091,135.403 166.708,131.648 165.672,128.212C164.592,124.626 161.92,122.331 158.619,120.93C158.497,120.879 158.41,120.77 158.383,120.64C158.339,120.428 158.364,120.129 158.454,119.744L162.064,118.382C163.167,119.321 164.382,120.352 165.578,121.366ZM95.182,170.598C94.38,167.87 91.513,166.307 88.784,167.11L81.95,169.121C79.22,169.924 77.657,172.791 78.462,175.519L80.547,182.602C81.349,185.331 84.216,186.894 86.944,186.09L93.779,184.079C96.508,183.277 98.072,180.41 97.267,177.681L95.182,170.598ZM172.222,173.579C171.453,170.862 168.63,169.288 165.914,170.054L159.014,172.007C156.298,172.775 154.719,175.599 155.488,178.314L157.505,185.441C158.273,188.158 161.097,189.733 163.813,188.967L170.713,187.014C173.429,186.246 175.008,183.422 174.238,180.706L172.222,173.579ZM125.048,186.848C124.267,184.133 121.431,182.57 118.717,183.353L111.79,185.352C109.076,186.136 107.513,188.971 108.295,191.683L110.344,198.785C111.126,201.499 113.961,203.062 116.675,202.279L123.603,200.28C126.317,199.496 127.88,196.661 127.098,193.949L125.048,186.848ZM134.348,191.921C135.114,194.642 137.942,196.225 140.663,195.455L147.693,193.472C150.411,192.702 151.994,189.874 151.228,187.157L149.241,180.123C148.475,177.401 145.647,175.823 142.925,176.588L135.896,178.576C133.174,179.341 131.595,182.169 132.361,184.891L134.348,191.921ZM131.544,128.377C127.958,128.923 124.852,129.677 122.217,130.643C120.328,131.335 119.189,132.61 118.8,134.472C118.619,135.336 118.785,136.639 119.295,138.38C119.582,139.361 120.136,141.369 120.976,144.404C121.191,145.182 121.651,145.877 122.362,146.486C121.844,147.495 121.332,148.508 120.826,149.533C119.875,151.461 121.976,152.498 122.975,150.546C123.544,149.435 124.019,148.52 124.396,147.801C128.65,147.389 132.195,146.527 135.035,145.221C136.582,144.509 137.499,143.403 137.785,141.891C137.954,140.991 137.762,139.549 137.207,137.574C136.678,135.693 136.141,133.821 135.605,131.954C135.329,130.993 134.706,130.144 133.728,129.41C134.116,128.671 135.048,127.171 134.843,126.429C134.569,125.435 133.126,125.333 132.675,126.213C132.16,127.218 131.784,127.941 131.544,128.377ZM165.761,150.746C164.973,148.013 162.118,146.438 159.386,147.227L152.572,149.194C149.841,149.981 148.263,152.836 149.053,155.569L151.1,162.663C151.888,165.396 154.743,166.97 157.475,166.182L164.289,164.215C167.02,163.428 168.598,160.573 167.808,157.84L165.761,150.746ZM189.285,144.058C188.514,141.36 185.702,139.801 183.004,140.576L176.05,142.57C173.354,143.344 171.795,146.156 172.569,148.851L174.641,156.077C175.412,158.774 178.224,160.333 180.922,159.558L187.876,157.564C190.572,156.791 192.131,153.979 191.357,151.283L189.285,144.058ZM66.032,173.678C61.41,174.798 58.488,175.65 57.267,176.239C54.785,177.436 53.793,179.432 54.302,182.224C54.556,183.618 55.421,186.426 56.901,190.644C56.674,191.139 56.362,191.787 55.975,192.592C55.648,193.271 55.712,193.789 56.167,194.14C57.457,195.132 58.245,193.319 58.708,192.396C60.216,193.201 63.337,192.491 63.385,192.525C63.397,192.534 68.609,191.266 70.486,190.44C71.92,189.809 72.84,188.693 73.235,187.09C73.452,186.211 73.238,184.737 72.587,182.672C72.411,182.114 71.898,180.281 71.048,177.17C70.713,175.945 69.846,174.982 68.448,174.287C68.876,173.584 69.097,173.117 69.112,172.885C69.199,171.526 67.59,170.952 66.967,172.041L66.032,173.678ZM77.521,200.238C76.73,197.521 73.891,195.962 71.174,196.749L64.265,198.756C61.547,199.547 59.988,202.387 60.776,205.103L62.831,212.178C63.621,214.895 66.461,216.455 69.178,215.667L76.087,213.66C78.804,212.869 80.363,210.029 79.576,207.313L77.521,200.238ZM36.656,155.455C33.475,155.628 30.375,156.237 27.364,157.29C26.39,157.63 25.496,158.127 24.682,158.782C23.674,159.593 23.15,160.702 23.115,162.112C23.091,163.082 23.119,163.703 23.201,163.982C24.312,167.736 24.93,169.888 25.051,170.442C25.106,170.697 26.001,173.05 26.948,173.604L26.025,175.387C25.99,175.449 25.967,175.516 25.954,175.587C25.801,176.456 26.107,176.958 26.897,177.099C27.36,177.182 27.816,176.973 28.044,176.581C28.487,175.815 28.825,175.218 29.057,174.786C33.129,174.271 36.527,173.431 39.24,172.257C40.819,171.573 41.804,170.371 42.194,168.647C42.382,167.815 42.199,166.483 41.64,164.649C41.033,162.658 40.463,160.668 39.943,158.684C39.754,157.961 39.311,157.372 38.616,156.92C38.985,156.253 39.339,155.53 39.672,154.749C40.289,153.303 38.394,152.448 37.567,153.877L36.656,155.455ZM43.513,180.661C42.041,180.469 40.984,180.497 40.344,180.751C38.346,181.544 35.886,182.117 33.652,182.852C31.888,183.433 30.764,184.629 30.266,186.438C30.2,186.678 30.154,187.396 30.149,188.602C30.148,188.755 33.177,197.914 33.334,198.735C33.047,199.838 33.397,200.399 34.378,200.423C34.834,200.435 35.191,200.239 35.454,199.834C39.782,199.532 43.393,198.721 46.286,197.395C48.663,196.306 49.649,194.52 49.243,192.05C48.891,189.91 48.073,187.014 46.777,183.371C46.581,182.821 46.18,182.322 45.575,181.871C46.109,180.944 47.772,178.749 46.023,178.128C45.568,177.966 45.064,178.128 44.79,178.521C44.342,179.161 43.918,179.872 43.513,180.661ZM142.696,157.215C141.904,154.493 139.061,152.93 136.339,153.721L129.445,155.724C126.725,156.516 125.162,159.359 125.951,162.08L128.019,169.201C128.811,171.923 131.654,173.486 134.376,172.695L141.27,170.692C143.99,169.9 145.553,167.057 144.764,164.336L142.696,157.215ZM155.777,203.434C155.002,200.749 152.198,199.202 149.514,199.976L142.405,202.028C139.721,202.803 138.173,205.607 138.948,208.291L141,215.4C141.775,218.084 144.579,219.632 147.263,218.857L154.371,216.805C157.056,216.03 158.603,213.226 157.829,210.543L155.777,203.434ZM178.807,196.942C178.032,194.242 175.216,192.683 172.516,193.455L165.555,195.451C162.857,196.225 161.293,199.041 162.068,201.742L164.116,208.884C164.891,211.585 167.707,213.144 170.407,212.371L177.368,210.375C180.066,209.601 181.629,206.786 180.855,204.085L178.807,196.942ZM202.329,190.266C201.576,187.597 198.799,186.049 196.133,186.803L189.059,188.805C186.393,189.56 184.842,192.333 185.596,195.001L187.658,202.286C188.412,204.955 191.188,206.503 193.854,205.749L200.928,203.748C203.595,202.992 205.146,200.219 204.391,197.551L202.329,190.266ZM118.593,164.023C117.802,161.295 114.947,159.724 112.217,160.518L105.369,162.508C102.639,163.302 101.072,166.154 101.864,168.884L103.926,175.981C104.717,178.709 107.572,180.28 110.301,179.487L117.15,177.497C119.88,176.702 121.447,173.851 120.655,171.121L118.593,164.023ZM195.71,166.851C194.943,164.178 192.15,162.631 189.477,163.397L182.44,165.414C179.764,166.181 178.22,168.973 178.986,171.647L181.066,178.903C181.833,181.576 184.626,183.123 187.299,182.357L194.336,180.34C197.012,179.573 198.556,176.781 197.79,174.107L195.71,166.851ZM101.652,193.438C100.868,190.723 98.036,189.16 95.321,189.943L88.393,191.943C85.681,192.726 84.114,195.561 84.899,198.273L86.951,205.382C87.735,208.097 90.566,209.66 93.281,208.877L100.209,206.877C102.922,206.094 104.489,203.259 103.704,200.547L101.652,193.438ZM53.568,207.044C52.782,204.327 49.946,202.76 47.227,203.543L40.201,205.571C37.485,206.357 35.918,209.193 36.701,211.912L38.729,218.938C39.515,221.654 42.351,223.221 45.07,222.438L52.096,220.41C54.812,219.624 56.379,216.788 55.596,214.069L53.568,207.044ZM131.631,210.214C130.845,207.516 128.021,205.961 125.323,206.746L118.346,208.773C115.646,209.558 114.095,212.382 114.879,215.081L116.949,222.209C117.736,224.906 120.559,226.461 123.257,225.676L130.234,223.649C132.934,222.864 134.486,220.04 133.702,217.342L131.631,210.214ZM60.13,230.385C59.332,227.679 56.497,226.131 53.791,226.928L46.745,229.002C44.04,229.8 42.492,232.635 43.289,235.341L45.363,242.387C46.16,245.093 48.996,246.64 51.702,245.843L58.747,243.769C61.453,242.972 63.001,240.136 62.204,237.43L60.13,230.385ZM84.116,223.618C83.332,220.916 80.505,219.365 77.803,220.148L70.841,222.171C68.141,222.954 66.586,225.782 67.371,228.483L69.44,235.604C70.223,238.306 73.051,239.857 75.752,239.074L82.714,237.051C85.414,236.268 86.969,233.44 86.184,230.739L84.116,223.618ZM108.269,216.819C107.481,214.126 104.658,212.578 101.965,213.367L94.909,215.431C92.216,216.219 90.669,219.043 91.458,221.735L93.521,228.791C94.309,231.484 97.133,233.032 99.825,232.243L106.882,230.179C109.575,229.391 111.122,226.567 110.333,223.875L108.269,216.819ZM58.83,148.736C57.137,149.038 54.682,149.654 51.458,150.593C49.208,151.249 47.767,152.512 47.193,154.391C47.173,154.458 47.162,154.529 47.162,154.595L47.181,156.854C47.181,156.92 47.193,156.991 47.213,157.058L49.734,165.462L48.238,168.298C47.908,168.922 47.648,169.725 48.301,170.167C49.05,170.675 49.666,170.526 50.146,169.712C50.632,168.888 51.097,168.046 51.541,167.19C52.409,168.192 54.648,168.001 55.759,167.701C56.596,167.475 58.292,166.992 60.845,166.256C63.068,165.614 64.485,164.916 65.102,164.166C66.173,162.865 66.491,161.296 66.048,159.454C65.481,157.094 64.698,154.458 63.696,151.54C63.35,150.534 62.569,149.745 61.355,149.168C61.602,148.744 61.833,148.284 62.05,147.789C62.238,147.361 62.129,146.862 61.783,146.544C60.834,145.675 60.132,146.447 59.615,147.361C59.306,147.908 59.042,148.367 58.83,148.736ZM82.971,141.914L74.889,143.941C74.869,143.948 74.853,143.956 74.834,143.968L72.654,145.339C72.595,145.374 72.547,145.42 72.505,145.472C71.341,146.903 70.954,148.41 71.264,149.922C71.61,151.611 72.571,154.831 74.15,159.583L72.725,162.485C72.689,162.564 72.666,162.646 72.654,162.737C72.462,164.233 74.173,164.706 74.869,163.412C75.386,162.451 75.796,161.665 76.106,161.056C80.32,160.981 84.112,160.18 87.476,158.641C89,157.943 89.949,156.748 90.311,155.055C90.489,154.223 90.307,152.907 89.765,151.104C89.172,149.132 88.628,147.213 88.139,145.347C87.812,144.098 86.926,143.077 85.481,142.287L86.525,140.159C86.553,140.108 86.569,140.057 86.58,139.998C86.748,139.123 86.443,138.61 85.685,138.474C85.174,138.382 84.676,138.616 84.452,139.051C83.861,140.195 83.364,141.148 82.971,141.914ZM107.772,135.442C106.837,135.194 105.977,135.187 105.192,135.414C103.794,135.819 101.642,136.448 98.739,137.292C96.289,138.003 94.928,139.472 94.651,141.69C94.546,142.535 94.729,143.733 95.197,145.284C95.742,147.094 96.298,149.092 96.846,151.285C97.001,151.905 97.553,152.6 98.504,153.37L97.427,155.542C97.384,155.632 97.36,155.734 97.361,155.836C97.372,157.148 98.94,157.6 99.532,156.547C99.945,155.813 100.33,155.082 100.691,154.348C101.363,154.58 101.959,154.626 102.478,154.482C103.644,154.157 104.399,153.956 104.748,153.869C106.461,153.443 107.807,153.071 108.793,152.761C111.679,151.856 113.434,150.887 113.761,148.009C113.841,147.302 113.665,146.254 113.231,144.867C112.753,143.34 112.174,141.25 111.487,138.599C111.263,137.735 110.725,137.06 109.877,136.573L111.57,133.18C111.837,132.646 111.601,131.99 111.043,131.723L111.004,131.703C110.447,131.432 109.779,131.644 109.496,132.178L107.772,135.442Z" style="fill:white;fill-opacity:0.95;"/>
    <path d="M187.528,100.477C187.559,101.204 191.656,116.061 192.06,116.885C188.027,116.229 184.96,113.852 181.818,111.47C179.988,110.082 178.047,108.866 175.997,107.817C178.185,106.289 179.914,103.806 181.095,101.514C181.275,101.164 181.802,99.407 182.195,99.379L187.528,100.477Z" style="fill:white;fill-opacity:0.95;"/>
    <path d="M159.609,105.033C157.547,104.64 155.838,104.678 154.487,105.154C153.199,105.609 152.501,106.65 152.437,108.281C152.432,108.414 152.452,108.544 152.496,108.665C153.302,110.89 155.084,112.224 156.997,113.637L161.042,115.99C161.27,116.119 161.541,116.159 161.8,116.1C164.968,115.371 166.802,113.317 167.279,109.965C167.299,109.824 167.291,109.675 167.255,109.533C166.578,106.831 163.045,105.846 160.547,105.319L159.609,105.033Z" style="fill:white;fill-opacity:0.25;"/>
    <path d="M32.462,107.593C31.794,108.936 31.665,110.492 32.073,112.259C33.582,118.79 35.642,124.559 43.812,123.212C45.579,122.921 47.46,122.352 49.451,121.508C53.599,119.749 55.328,116.602 54.635,112.07C54.451,110.865 54.125,109.324 53.496,107.495C53.486,107.463 53.461,107.436 53.43,107.424C53.238,107.355 53.112,107.554 53.061,108.014C53.442,111.281 52.62,114.162 49.821,116.076C48.724,116.826 47.857,117.291 47.225,117.474C44.524,118.257 43.352,118.639 40.862,118.468C37.293,118.222 34.852,115.227 33.801,112.012C33.583,111.345 33.137,109.871 32.462,107.593Z" style="fill:white;fill-opacity:0.15;"/>
    <path d="M162.064,118.382L158.454,119.744C158.537,119.544 158.518,119.3 158.395,119.006C158.364,118.931 158.312,118.869 158.246,118.825C157.954,118.635 157.676,118.743 157.405,119.159L156.911,114.823L157.508,114.67C157.629,114.643 157.755,114.674 157.845,114.757C157.861,114.771 157.877,114.786 157.895,114.802C158.351,115.215 160.016,116.64 162.064,118.382Z" style="fill:white;fill-opacity:0.5;"/>
    <path d="M157.405,119.159L156.907,119.98C156.836,120.102 156.71,120.18 156.569,120.192C155.842,120.254 155.183,119.841 154.593,119.847C153.655,119.856 152.477,119.521 151.526,119.599C146.833,119.983 142.144,121.355 139.501,124.956C136.874,128.534 136.878,132.182 139.509,135.905C140.632,137.496 142.556,138.905 145.313,140.06C145.419,140.105 145.473,140.221 145.439,140.331C145.205,141.094 145.247,142.007 146.22,142.13C147.297,142.266 147.26,141.607 147.807,141.034C147.897,140.94 148.027,140.898 148.157,140.92C149.8,141.209 151.668,141.245 153.761,141.062C157.056,140.773 159.962,139.597 162.483,137.535C165.091,135.403 166.708,131.648 165.672,128.212C164.592,124.626 161.92,122.331 158.619,120.93C158.497,120.879 158.41,120.77 158.383,120.64C158.339,120.428 158.364,120.129 158.454,119.744C158.537,119.544 158.518,119.3 158.395,119.006C158.364,118.931 158.312,118.869 158.246,118.825C157.954,118.635 157.676,118.743 157.405,119.159ZM158.203,124.229C157.94,123.998 157.688,123.868 157.453,123.837C157.331,123.821 157.209,123.88 157.146,123.99L149.574,137.79C149.527,137.877 149.582,137.987 149.68,137.999C151.832,138.255 153.93,138.094 155.976,137.516C158.03,136.935 159.738,135.925 161.101,134.484C161.847,133.663 162.358,132.756 162.629,131.762C163.51,128.526 161.042,125.529 158.203,124.229ZM142.179,126.629C140.333,129.076 140.275,131.505 142.01,133.91C142.308,134.323 142.733,134.782 143.279,135.285C144.245,136.157 145.456,136.817 146.908,137.28C147.018,137.315 147.136,137.268 147.194,137.166L154.754,123.393C154.861,123.197 154.731,122.953 154.507,122.933C153.396,122.836 152.268,122.777 151.126,122.749C150.002,122.722 148.887,122.861 147.784,123.165C145.505,123.794 143.636,124.952 142.179,126.629Z" style="fill:white;fill-opacity:0.15;"/>
    <path d="M168.873,133.223C168.143,132.394 167.719,131.746 167.601,131.283C167.089,129.272 166.179,123.778 165.822,121.574C169.211,124.447 172.384,127.128 172.384,127.128L168.873,133.223Z" style="fill:white;fill-opacity:0.5;"/>
    <path d="M143.279,135.285C144.245,136.157 145.456,136.817 146.908,137.28C147.018,137.315 147.136,137.268 147.194,137.166L154.754,123.393C154.861,123.197 154.731,122.953 154.507,122.933C153.396,122.836 152.268,122.777 151.126,122.749C150.002,122.722 148.887,122.861 147.784,123.165C145.505,123.794 143.636,124.952 142.179,126.629C141.783,128.345 141.74,129.712 142.05,130.721C142.487,132.15 142.894,133.671 143.279,135.285Z" style="fill:white;fill-opacity:0.5;"/>
    <path d="M158.203,124.229C157.94,123.998 157.688,123.868 157.453,123.837C157.331,123.821 157.209,123.88 157.146,123.99L149.574,137.79C149.527,137.877 149.582,137.987 149.68,137.999C151.832,138.255 153.93,138.094 155.976,137.516C158.03,136.935 159.738,135.925 161.101,134.484L158.203,124.229Z" style="fill:white;fill-opacity:0.5;"/>
    <path d="M161.101,134.484C161.847,133.663 162.358,132.756 162.629,131.762C163.51,128.526 161.042,125.529 158.203,124.229L161.101,134.484Z" style="fill:white;fill-opacity:0.95;"/>
    <path d="M122.362,146.486C121.844,147.495 121.332,148.508 120.826,149.533C119.875,151.461 121.976,152.498 122.975,150.546C123.544,149.435 124.019,148.52 124.396,147.801L133.728,129.41C134.116,128.671 135.048,127.171 134.843,126.429C134.569,125.435 133.126,125.333 132.675,126.213C132.16,127.218 131.784,127.941 131.544,128.377L122.362,146.486Z" style="fill:white;fill-opacity:0.15;"/>
    <path d="M142.179,126.629C140.333,129.076 140.275,131.505 142.01,133.91C142.308,134.323 142.733,134.782 143.279,135.285C142.894,133.671 142.487,132.15 142.05,130.721C141.74,129.712 141.783,128.345 142.179,126.629Z" style="fill:white;fill-opacity:0.95;"/>
    <path d="M170.927,134.511C170.774,134.908 170.492,135.254 170.075,135.556C169.679,135.843 169.144,135.835 168.759,135.536C168.476,135.316 168.327,134.994 168.312,134.566C168.308,134.46 168.331,134.358 168.378,134.264L168.873,133.223L172.384,127.128C172.384,127.128 172.905,127.748 173.845,128.701L173.908,128.95C173.936,129.072 173.916,129.201 173.857,129.311L170.927,134.511Z" style="fill:white;fill-opacity:0.15;"/>
    <path d="M131.544,128.377C127.958,128.923 124.852,129.677 122.217,130.643C120.328,131.335 119.189,132.61 118.8,134.472C118.619,135.336 118.785,136.639 119.295,138.38C119.582,139.361 120.136,141.369 120.976,144.404C121.191,145.182 121.651,145.877 122.362,146.486L131.544,128.377Z" style="fill:white;fill-opacity:0.5;"/>
    <path d="M178.507,132.801C176.151,133.764 173.319,134.574 170.927,134.511L173.857,129.311C173.916,129.201 173.936,129.072 173.908,128.95L173.845,128.701C174.91,129.781 176.514,131.288 178.507,132.801Z" style="fill:white;fill-opacity:0.5;"/>
    <path d="M124.396,147.801C128.65,147.389 132.195,146.527 135.035,145.221C136.582,144.509 137.499,143.403 137.785,141.891C137.954,140.991 137.762,139.549 137.207,137.574C136.678,135.693 136.141,133.821 135.605,131.954C135.329,130.993 134.706,130.144 133.728,129.41L124.396,147.801Z" style="fill:white;fill-opacity:0.5;"/>
    <path d="M98.504,153.37L97.427,155.542C97.384,155.632 97.36,155.734 97.361,155.836C97.372,157.148 98.94,157.6 99.532,156.547C99.945,155.813 100.33,155.082 100.691,154.348L109.877,136.573L111.57,133.18C111.837,132.646 111.601,131.99 111.043,131.723L111.004,131.703C110.447,131.432 109.779,131.644 109.496,132.178L107.772,135.442L98.504,153.37Z" style="fill:white;fill-opacity:0.15;"/>
    <path d="M107.772,135.442C106.837,135.194 105.977,135.187 105.192,135.414C103.794,135.819 101.642,136.448 98.739,137.292C96.289,138.003 94.928,139.472 94.651,141.69C94.546,142.535 94.729,143.733 95.197,145.284C95.742,147.094 96.298,149.092 96.846,151.285C97.001,151.905 97.553,152.6 98.504,153.37L107.772,135.442Z" style="fill:white;fill-opacity:0.5;"/>
    <path d="M100.691,154.348C101.363,154.58 101.959,154.626 102.478,154.482C103.644,154.157 104.399,153.956 104.748,153.869C106.461,153.443 107.807,153.071 108.793,152.761C111.679,151.856 113.434,150.887 113.761,148.009C113.841,147.302 113.665,146.254 113.231,144.867C112.753,143.34 112.174,141.25 111.487,138.599C111.263,137.735 110.725,137.06 109.877,136.573L100.691,154.348Z" style="fill:white;fill-opacity:0.5;"/>
    <path d="M74.15,159.583L72.725,162.485C72.689,162.564 72.666,162.646 72.654,162.737C72.462,164.233 74.173,164.706 74.869,163.412C75.386,162.451 75.796,161.665 76.106,161.056L85.481,142.287L86.525,140.159C86.553,140.108 86.569,140.057 86.58,139.998C86.748,139.123 86.443,138.61 85.685,138.474C85.174,138.382 84.676,138.616 84.452,139.051C83.861,140.195 83.364,141.148 82.971,141.914L74.15,159.583Z" style="fill:white;fill-opacity:0.15;"/>
    <path d="M189.285,144.058C188.514,141.36 185.702,139.801 183.004,140.576L176.05,142.57C173.354,143.344 171.795,146.156 172.569,148.851L174.641,156.077C175.412,158.774 178.224,160.333 180.922,159.558L187.876,157.564C190.572,156.791 192.131,153.979 191.357,151.283L189.285,144.058Z" style="fill:white;fill-opacity:0.5;"/>
    <path d="M82.971,141.914L74.889,143.941C74.869,143.948 74.853,143.956 74.834,143.968L72.654,145.339C72.595,145.374 72.547,145.42 72.505,145.472C71.341,146.903 70.954,148.41 71.264,149.922C71.61,151.611 72.571,154.831 74.15,159.583L82.971,141.914Z" style="fill:white;fill-opacity:0.5;"/>
    <path d="M76.106,161.056C80.32,160.981 84.112,160.18 87.476,158.641C89,157.943 89.949,156.748 90.311,155.055C90.489,154.223 90.307,152.907 89.765,151.104C89.172,149.132 88.628,147.213 88.139,145.347C87.812,144.098 86.926,143.077 85.481,142.287L76.106,161.056Z" style="fill:white;fill-opacity:0.5;"/>
    <path d="M49.734,165.462C49.31,166.267 48.812,167.21 48.238,168.298C47.908,168.922 47.648,169.725 48.301,170.167C49.05,170.675 49.666,170.526 50.146,169.712C50.632,168.888 51.097,168.046 51.541,167.19L61.355,149.168C61.602,148.744 61.833,148.284 62.05,147.789C62.238,147.361 62.129,146.862 61.783,146.544C60.834,145.675 60.132,146.447 59.615,147.361C59.306,147.908 59.042,148.367 58.83,148.736L49.734,165.462Z" style="fill:white;fill-opacity:0.15;"/>
    <path d="M165.761,150.746C164.973,148.013 162.118,146.438 159.386,147.227L152.572,149.194C149.841,149.981 148.263,152.836 149.053,155.569L151.1,162.663C151.888,165.396 154.743,166.97 157.475,166.182L164.289,164.215C167.02,163.428 168.598,160.573 167.808,157.84L165.761,150.746Z" style="fill:white;fill-opacity:0.5;"/>
    <path d="M58.83,148.736C57.137,149.038 54.682,149.654 51.458,150.593C49.208,151.249 47.767,152.512 47.193,154.391C47.173,154.458 47.162,154.529 47.162,154.595L47.181,156.854C47.181,156.92 47.193,156.991 47.213,157.058L49.734,165.462L58.83,148.736Z" style="fill:white;fill-opacity:0.5;"/>
    <path d="M51.541,167.19C52.409,168.192 54.648,168.001 55.759,167.701C56.596,167.475 58.292,166.992 60.845,166.256C63.068,165.614 64.485,164.916 65.102,164.166C66.173,162.865 66.491,161.296 66.048,159.454C65.481,157.094 64.698,154.458 63.696,151.54C63.35,150.534 62.569,149.745 61.355,149.168L51.541,167.19Z" style="fill:white;fill-opacity:0.5;"/>
    <path d="M26.948,173.604L26.025,175.387C25.99,175.449 25.967,175.516 25.954,175.587C25.801,176.456 26.107,176.958 26.897,177.099C27.36,177.182 27.816,176.973 28.044,176.581C28.487,175.815 28.825,175.218 29.057,174.786L38.616,156.92C38.985,156.253 39.339,155.53 39.672,154.749C40.289,153.303 38.394,152.448 37.567,153.877C37.156,154.588 36.853,155.114 36.656,155.455L26.948,173.604Z" style="fill:white;fill-opacity:0.15;"/>
    <path d="M142.696,157.215C141.904,154.493 139.061,152.93 136.339,153.721L129.445,155.724C126.725,156.516 125.162,159.359 125.951,162.08L128.019,169.201C128.811,171.923 131.654,173.486 134.376,172.695L141.27,170.692C143.99,169.9 145.553,167.057 144.764,164.336L142.696,157.215Z" style="fill:white;fill-opacity:0.5;"/>
    <path d="M36.656,155.455C33.475,155.628 30.375,156.237 27.364,157.29C26.39,157.63 25.496,158.127 24.682,158.782C23.674,159.593 23.15,160.702 23.115,162.112C23.091,163.082 23.119,163.703 23.201,163.982C24.312,167.736 24.93,169.888 25.051,170.442C25.106,170.697 26.001,173.05 26.948,173.604L36.656,155.455Z" style="fill:white;fill-opacity:0.5;"/>
    <path d="M29.057,174.786C33.129,174.271 36.527,173.431 39.24,172.257C40.819,171.573 41.804,170.371 42.194,168.647C42.382,167.815 42.199,166.483 41.64,164.649C41.033,162.658 40.463,160.668 39.943,158.684C39.754,157.961 39.311,157.372 38.616,156.92L29.057,174.786Z" style="fill:white;fill-opacity:0.5;"/>
    <path d="M118.593,164.023C117.802,161.295 114.947,159.724 112.217,160.518L105.369,162.508C102.639,163.302 101.072,166.154 101.864,168.884L103.926,175.981C104.717,178.709 107.572,180.28 110.301,179.487L117.15,177.497C119.88,176.702 121.447,173.851 120.655,171.121L118.593,164.023Z" style="fill:white;fill-opacity:0.5;"/>
    <path d="M195.71,166.851C194.943,164.178 192.15,162.631 189.477,163.397L182.44,165.414C179.764,166.181 178.22,168.973 178.986,171.647L181.066,178.903C181.833,181.576 184.626,183.123 187.299,182.357L194.336,180.34C197.012,179.573 198.556,176.781 197.79,174.107L195.71,166.851Z" style="fill:white;fill-opacity:0.5;"/>
    <path d="M95.182,170.598C94.38,167.87 91.513,166.307 88.784,167.11L81.95,169.121C79.22,169.924 77.657,172.791 78.462,175.519L80.547,182.602C81.349,185.331 84.216,186.894 86.944,186.09L93.779,184.079C96.508,183.277 98.072,180.41 97.267,177.681L95.182,170.598Z" style="fill:white;fill-opacity:0.5;"/>
    <path d="M172.222,173.579C171.453,170.862 168.63,169.288 165.914,170.054L159.014,172.007C156.298,172.775 154.719,175.599 155.488,178.314L157.505,185.441C158.273,188.158 161.097,189.733 163.813,188.967L170.713,187.014C173.429,186.246 175.008,183.422 174.238,180.706L172.222,173.579Z" style="fill:white;fill-opacity:0.5;"/>
    <path d="M56.901,190.644C56.674,191.139 56.362,191.787 55.975,192.592C55.648,193.271 55.712,193.789 56.167,194.14C57.457,195.132 58.245,193.319 58.708,192.396L68.448,174.287C68.876,173.584 69.097,173.117 69.112,172.885C69.199,171.526 67.59,170.952 66.967,172.041C66.57,172.735 66.26,173.282 66.032,173.678L56.901,190.644Z" style="fill:white;fill-opacity:0.15;"/>
    <path d="M66.032,173.678C61.41,174.798 58.488,175.65 57.267,176.239C54.785,177.436 53.793,179.432 54.302,182.224C54.556,183.618 55.421,186.426 56.901,190.644L66.032,173.678Z" style="fill:white;fill-opacity:0.5;"/>
    <path d="M58.708,192.396C60.216,193.201 63.337,192.491 63.385,192.525C63.397,192.534 68.609,191.266 70.486,190.44C71.92,189.809 72.84,188.693 73.235,187.09C73.452,186.211 73.238,184.737 72.587,182.672C72.411,182.114 71.898,180.281 71.048,177.17C70.713,175.945 69.846,174.982 68.448,174.287L58.708,192.396Z" style="fill:white;fill-opacity:0.5;"/>
    <path d="M134.348,191.921C135.114,194.642 137.942,196.225 140.663,195.455L147.693,193.472C150.411,192.702 151.994,189.874 151.228,187.157L149.241,180.123C148.475,177.401 145.647,175.823 142.925,176.588L135.896,178.576C133.174,179.341 131.595,182.169 132.361,184.891L134.348,191.921Z" style="fill:white;fill-opacity:0.5;"/>
    <path d="M33.334,198.735C33.047,199.838 33.397,200.399 34.378,200.423C34.834,200.435 35.191,200.239 35.454,199.834L45.575,181.871C46.109,180.944 47.772,178.749 46.023,178.128C45.568,177.966 45.064,178.128 44.79,178.521C44.342,179.161 43.918,179.872 43.513,180.661L33.334,198.735Z" style="fill:white;fill-opacity:0.15;"/>
    <path d="M43.513,180.661C42.041,180.469 40.984,180.497 40.344,180.751C38.346,181.544 35.886,182.117 33.652,182.852C31.888,183.433 30.764,184.629 30.266,186.438C30.2,186.678 30.154,187.396 30.149,188.602C30.148,188.755 33.177,197.914 33.334,198.735L43.513,180.661Z" style="fill:white;fill-opacity:0.5;"/>
    <path d="M35.454,199.834C39.782,199.532 43.393,198.721 46.286,197.395C48.663,196.306 49.649,194.52 49.243,192.05C48.891,189.91 48.073,187.014 46.777,183.371C46.581,182.821 46.18,182.322 45.575,181.871L35.454,199.834Z" style="fill:white;fill-opacity:0.5;"/>
    <path d="M125.048,186.848C124.267,184.133 121.431,182.57 118.717,183.353L111.79,185.352C109.076,186.136 107.513,188.971 108.295,191.683L110.344,198.785C111.126,201.499 113.961,203.062 116.675,202.279L123.603,200.28C126.317,199.496 127.88,196.661 127.098,193.949L125.048,186.848Z" style="fill:white;fill-opacity:0.5;"/>
    <path d="M202.329,190.266C201.576,187.597 198.799,186.049 196.133,186.803L189.059,188.805C186.393,189.56 184.842,192.333 185.596,195.001L187.658,202.286C188.412,204.955 191.188,206.503 193.854,205.749L200.928,203.748C203.595,202.992 205.146,200.219 204.391,197.551L202.329,190.266Z" style="fill:white;fill-opacity:0.5;"/>
    <path d="M101.652,193.438C100.868,190.723 98.036,189.16 95.321,189.943L88.393,191.943C85.681,192.726 84.114,195.561 84.899,198.273L86.951,205.382C87.735,208.097 90.566,209.66 93.281,208.877L100.209,206.877C102.922,206.094 104.489,203.259 103.704,200.547L101.652,193.438Z" style="fill:white;fill-opacity:0.5;"/>
    <path d="M178.807,196.942C178.032,194.242 175.216,192.683 172.516,193.455L165.555,195.451C162.857,196.225 161.293,199.041 162.068,201.742L164.116,208.884C164.891,211.585 167.707,213.144 170.407,212.371L177.368,210.375C180.066,209.601 181.629,206.786 180.855,204.085L178.807,196.942Z" style="fill:white;fill-opacity:0.5;"/>
    <path d="M77.521,200.238C76.73,197.521 73.891,195.962 71.174,196.749L64.265,198.756C61.547,199.547 59.988,202.387 60.776,205.103L62.831,212.178C63.621,214.895 66.461,216.455 69.178,215.667L76.087,213.66C78.804,212.869 80.363,210.029 79.576,207.313L77.521,200.238Z" style="fill:white;fill-opacity:0.5;"/>
    <path d="M155.777,203.434C155.002,200.749 152.198,199.202 149.514,199.976L142.405,202.028C139.721,202.803 138.173,205.607 138.948,208.291L141,215.4C141.775,218.084 144.579,219.632 147.263,218.857L154.371,216.805C157.056,216.03 158.603,213.226 157.829,210.543L155.777,203.434Z" style="fill:white;fill-opacity:0.5;"/>
    <path d="M53.568,207.044C52.782,204.327 49.946,202.76 47.227,203.543L40.201,205.571C37.485,206.357 35.918,209.193 36.701,211.912L38.729,218.938C39.515,221.654 42.351,223.221 45.07,222.438L52.096,220.41C54.812,219.624 56.379,216.788 55.596,214.069L53.568,207.044Z" style="fill:white;fill-opacity:0.5;"/>
    <path d="M131.631,210.214C130.845,207.516 128.021,205.961 125.323,206.746L118.346,208.773C115.646,209.558 114.095,212.382 114.879,215.081L116.949,222.209C117.736,224.906 120.559,226.461 123.257,225.676L130.234,223.649C132.934,222.864 134.486,220.04 133.702,217.342L131.631,210.214Z" style="fill:white;fill-opacity:0.5;"/>
    <path d="M108.269,216.819C107.481,214.126 104.658,212.578 101.965,213.367L94.909,215.431C92.216,216.219 90.669,219.043 91.458,221.735L93.521,228.791C94.309,231.484 97.133,233.032 99.825,232.243L106.882,230.179C109.575,229.391 111.122,226.567 110.333,223.875L108.269,216.819Z" style="fill:white;fill-opacity:0.5;"/>
    <path d="M84.116,223.618C83.332,220.916 80.505,219.365 77.803,220.148L70.841,222.171C68.141,222.954 66.586,225.782 67.371,228.483L69.44,235.604C70.223,238.306 73.051,239.857 75.752,239.074L82.714,237.051C85.414,236.268 86.969,233.44 86.184,230.739L84.116,223.618Z" style="fill:white;fill-opacity:0.5;"/>
    <path d="M60.13,230.385C59.332,227.679 56.497,226.131 53.791,226.928L46.745,229.002C44.04,229.8 42.492,232.635 43.289,235.341L45.363,242.387C46.16,245.093 48.996,246.64 51.702,245.843L58.747,243.769C61.453,242.972 63.001,240.136 62.204,237.43L60.13,230.385Z" style="fill:white;fill-opacity:0.5;"/>
</svg>
