<?xml version="1.0" encoding="UTF-8" standalone="no"?>
<!DOCTYPE svg PUBLIC "-//W3C//DTD SVG 1.1//EN" "http://www.w3.org/Graphics/SVG/1.1/DTD/svg11.dtd">
<svg width="100%" height="100%" viewBox="0 0 300 300" version="1.1" xmlns="http://www.w3.org/2000/svg" xmlns:xlink="http://www.w3.org/1999/xlink" xml:space="preserve" xmlns:serif="http://www.serif.com/" style="fill-rule:evenodd;clip-rule:evenodd;stroke-linejoin:round;stroke-miterlimit:2;">
    <path d="M292.674,127.711C292.536,128.341 292.505,129.028 292.579,129.771C292.892,132.875 293.068,137.081 293.107,142.393C293.11,142.692 293.11,142.861 293.11,142.896C293.054,146.522 292.927,150.122 292.726,153.702C292.635,155.367 292.089,159.851 291.09,167.151C290.886,168.658 290.403,170.214 290.182,171.769C290.079,172.484 289.83,173.638 289.432,175.233C288.538,178.82 287.746,181.748 287.056,184.018C285.546,188.989 283.61,194.557 281.477,199.457C272.473,220.153 259.298,237.833 241.953,252.501C240.661,253.592 238.387,255.394 235.128,257.904C233.723,258.984 232.509,259.65 231.203,260.635C230.481,261.181 229.496,261.853 228.246,262.659C219.971,268.002 211.221,272.469 201.999,276.056C200.2,276.756 198.166,277.326 196.268,278.079C195.135,278.526 193.699,279.009 191.957,279.519C186.311,281.17 181.13,282.426 176.416,283.285C150.084,288.076 124.235,285.725 98.864,276.232C97.065,275.559 93.32,273.919 87.632,271.318C84.914,270.075 82.317,268.446 79.849,267.164C78.216,266.316 76.872,265.32 75.189,264.394C74.003,263.743 72.848,263.039 71.718,262.282C63.901,257.034 56.618,251.163 49.871,244.676C49.561,244.377 49.343,244.145 49.22,243.979C48.385,242.86 48.195,242.293 46.583,242.459C29.135,244.271 17.407,245.475 11.406,246.07C8.505,246.359 5.982,246.661 3.831,246.978C3.771,246.862 3.817,246.608 3.961,246.218C10.023,230.058 15.443,215.497 20.223,202.536C20.258,202.448 20.255,202.35 20.216,202.262C9.92,179.305 5.802,155.437 7.861,130.654C8.139,127.317 8.766,122.252 9.385,118.729C12.247,102.485 17.59,87.36 25.418,73.354C40.913,45.629 65.045,23.858 94.305,11.405C119.377,0.733 147.476,-2.608 174.343,2.053C196.814,5.953 217.194,14.671 235.48,28.209C247.683,37.241 258.176,47.983 266.958,60.433C277.387,75.22 284.75,91.358 289.048,108.856C290.101,113.129 290.864,117.353 291.818,122.579C292.146,124.364 292.431,126.075 292.674,127.711ZM54.591,100.408C53.947,100.795 56.573,120.848 59.434,144.103C59.54,144.959 59.698,145.733 59.913,146.419C60.395,147.979 61.402,149.341 62.936,150.506C62.951,150.517 62.965,150.527 62.982,150.534L65.154,151.565C65.186,151.583 65.224,151.594 65.263,151.597C66.724,151.748 67.706,151.791 68.209,151.731C74.541,150.971 80.603,150.231 86.4,149.517C90.092,149.059 93.848,148.616 97.667,148.186C98.853,147.954 100.085,147.764 101.356,147.613C103.506,147.359 106.136,147.046 109.24,146.669C116.125,145.835 123.358,144.955 130.944,144.033C138.05,143.167 141.918,142.727 142.541,142.71C142.992,142.699 143.516,142.453 143.988,142.4C153.879,141.263 160.992,140.404 165.332,139.827C166.325,139.693 167.289,139.408 168.226,138.971C169.451,138.398 170.848,137.007 171.591,136.293C172.724,135.205 173.425,132.361 173.759,130.904C173.798,130.731 173.815,130.552 173.808,130.376C173.706,128.07 173.498,125.842 173.192,123.692C172.481,118.711 171.851,113.815 171.299,109.003C171.295,108.965 171.27,108.704 171.225,108.215C170.964,105.469 170.57,102.069 170.038,98.011C169.929,97.156 169.82,96.297 169.715,95.438C169.641,94.825 169.356,92.245 168.866,87.701C168.803,87.128 168.384,86.895 167.606,87.004C163.981,85.783 104.619,70.271 102.968,69.694C102.581,69.556 102.183,69.472 101.775,69.437C101.275,69.391 100.792,69.324 100.328,69.236C98.431,68.867 96.583,69.222 94.573,69.835C92.528,70.458 90.902,71.066 89.694,71.658C85.435,73.745 80.768,76.146 76.53,79.011C71.799,82.207 67.474,85.614 63.552,89.236C63.098,89.655 62.725,90.148 62.296,90.556C59.195,93.502 56.604,96.691 54.521,100.116C54.461,100.211 54.485,100.309 54.591,100.408ZM217.662,198.552C219.404,199.062 221.664,199.59 224.441,200.143C224.874,200.231 225.237,200.319 225.532,200.414C226.529,200.731 227.328,200.66 228.274,201.033C229.031,201.333 229.732,201.178 230.534,201.544C230.925,201.723 232.938,202.153 232.875,201.107C232.864,200.97 232.907,200.759 232.995,200.481C234.251,196.507 237.004,194.226 240.393,191.952C241.569,191.167 243.118,190.231 245.036,189.15C248.271,187.331 250.911,185.567 252.956,183.867C256.919,180.569 259.488,176.148 260.661,170.608C260.72,170.323 260.692,169.83 260.773,169.436C261.182,167.458 261.238,165.733 260.946,164.262C260.731,163.199 260.72,162.319 260.414,161.365C259.305,157.873 257.482,154.902 254.944,152.449C253.237,150.798 251.664,149.52 250.224,148.623C245.687,145.789 240.355,143.822 234.226,142.717C233.023,142.498 230.411,142.002 228.697,141.949C226.384,141.879 223.98,141.872 221.485,141.932C220.566,141.953 219.517,142.083 218.341,142.322C217.419,142.509 216.381,142.727 215.23,142.974C214.191,143.195 213.361,143.579 212.403,143.861C211.766,144.047 211.069,144.3 210.32,144.628C207.043,146.05 204.072,147.908 201.411,150.207C201.087,150.485 201.069,150.981 201.372,151.284L210.654,160.569C210.848,160.759 211.157,160.766 211.358,160.583C213.375,158.735 215.751,157.359 218.489,156.455C219.964,155.965 221.351,155.631 222.65,155.451C223.776,155.293 225.846,155.293 228.862,155.444C228.964,155.451 229.066,155.472 229.161,155.504C229.538,155.638 230.46,155.817 231.932,156.039C232.688,156.155 233.772,156.462 235.184,156.965C238.574,158.172 241.604,160.231 243.283,163.378C243.91,164.55 244.244,165.905 244.29,167.444C244.399,171.227 242.878,174.307 239.728,176.683C237.567,178.313 235.138,179.854 232.445,181.315C229.753,182.776 227.025,184.624 224.265,186.855C222.372,188.39 220.985,189.872 220.108,191.298C218.802,193.424 217.887,195.676 217.366,198.052C217.317,198.27 217.447,198.492 217.662,198.552ZM162.386,210.921C168.828,210.921 172.112,210.917 172.238,210.914C172.573,210.896 172.833,210.625 172.833,210.291L172.837,194.201C172.837,194.103 172.914,194.025 173.009,194.025L189.289,194.029C189.679,194.029 189.996,193.712 189.996,193.321L189.996,173.526C189.996,173.308 189.817,173.128 189.595,173.128L173.027,173.128C172.921,173.128 172.837,173.044 172.837,172.938L172.837,156.191C172.837,155.93 172.626,155.719 172.362,155.719C170.591,155.708 167.265,155.705 162.383,155.705C157.504,155.705 154.178,155.712 152.404,155.719C152.144,155.719 151.932,155.93 151.932,156.191L151.932,172.938C151.932,173.044 151.848,173.128 151.742,173.128L135.174,173.128C134.953,173.128 134.773,173.308 134.773,173.526L134.773,193.321C134.773,193.712 135.09,194.029 135.481,194.029L151.76,194.025C151.855,194.025 151.932,194.106 151.932,194.201L151.939,210.291C151.939,210.625 152.2,210.9 152.531,210.914C152.661,210.917 155.945,210.921 162.386,210.921ZM211.103,217.315C210.168,222.557 213.769,227.587 219.142,228.543C224.515,229.502 229.63,226.024 230.564,220.781C231.499,215.539 227.898,210.509 222.525,209.553C217.152,208.594 212.037,212.072 211.103,217.315Z" style="fill:white;fill-opacity:0.95;fill-rule:nonzero;"/>
    <path d="M167.606,87.004C166.476,87.233 164.836,87.472 162.693,87.722C158.127,88.257 154.924,88.641 153.09,88.87C150.275,89.222 147.399,89.51 144.467,89.732C143.703,89.789 140.831,90.137 135.854,90.781C130.852,91.425 122.524,92.407 110.863,93.734C102.63,94.671 94.524,95.617 86.551,96.578C84.517,96.42 55.038,100.239 54.591,100.408C54.485,100.309 54.461,100.211 54.521,100.116C56.604,96.691 59.195,93.502 62.296,90.556C62.725,90.148 63.098,89.655 63.552,89.236C67.474,85.614 71.799,82.207 76.53,79.011C80.768,76.146 85.435,73.745 89.694,71.658C90.902,71.066 92.528,70.458 94.573,69.835C96.583,69.222 98.431,68.867 100.328,69.236C100.792,69.324 101.275,69.391 101.775,69.437C102.183,69.472 102.581,69.556 102.968,69.694C104.619,70.271 163.981,85.783 167.606,87.004Z" style="fill:white;fill-opacity:0.65;fill-rule:nonzero;"/>
    <path d="M97.667,148.186C97.575,147.518 97.185,146.937 96.498,146.448C95.664,145.853 95.238,145.547 95.228,145.536C94.457,144.874 93.915,144.322 93.594,143.875C92.229,141.97 91.44,140.992 90.557,139.44C89.145,136.965 88.022,135.008 87.181,133.565C86.678,132.703 84.094,128.542 84.147,127.595C87.949,128.574 91.299,128.197 94.2,126.469C99.983,123.023 102.088,115.455 98.564,109.553C97.72,108.141 96.864,107.075 96.002,106.36C91.958,103.013 87.389,102.474 82.289,104.751C82.162,103.875 82.327,103.115 82.781,102.478C83.531,101.425 84.133,100.281 84.855,99.253C85.449,98.402 86.016,97.511 86.551,96.578C94.524,95.617 102.63,94.671 110.863,93.734C122.524,92.407 130.852,91.425 135.854,90.781C140.831,90.137 143.703,89.789 144.467,89.732C147.399,89.51 150.275,89.222 153.09,88.87C154.924,88.641 158.127,88.257 162.693,87.722C164.836,87.472 166.476,87.233 167.606,87.004C168.384,86.895 168.803,87.128 168.866,87.701C169.356,92.245 169.641,94.825 169.715,95.438C169.82,96.297 169.929,97.156 170.038,98.011C170.57,102.069 170.964,105.469 171.225,108.215C171.27,108.704 171.295,108.965 171.299,109.003C171.851,113.815 172.481,118.711 173.192,123.692C173.498,125.842 173.706,128.07 173.808,130.376C173.815,130.552 173.798,130.731 173.759,130.904C173.425,132.361 172.724,135.205 171.591,136.293C170.848,137.007 169.451,138.398 168.226,138.971C167.289,139.408 166.325,139.693 165.332,139.827C160.992,140.404 153.879,141.263 143.988,142.4C143.516,142.453 142.992,142.699 142.541,142.71C141.918,142.727 138.05,143.167 130.944,144.033C123.358,144.955 116.125,145.835 109.24,146.669C106.136,147.046 103.506,147.359 101.356,147.613C100.085,147.764 98.853,147.954 97.667,148.186ZM130.884,111.161C129.286,113.991 129.472,117.472 131.179,120.094C132.735,122.484 134.956,123.808 137.839,124.061C139.754,124.23 141.475,123.797 143.006,122.766C143.221,122.622 143.513,122.71 143.608,122.953C144.006,123.998 144.664,124.836 145.579,125.459C147.99,127.11 151.633,126.342 153.122,123.702C154.611,121.062 153.379,117.55 150.722,116.339C149.715,115.878 148.659,115.751 147.557,115.948C147.304,115.994 147.071,115.79 147.086,115.529C147.177,113.688 146.656,111.992 145.523,110.44C143.812,108.102 141.531,106.888 138.68,106.793C135.555,106.687 132.478,108.331 130.884,111.161ZM118.475,134.12C118.163,130.552 114.879,127.926 111.139,128.254C107.399,128.581 104.622,131.738 104.933,135.305C105.245,138.873 108.529,141.499 112.269,141.171C116.009,140.844 118.786,137.687 118.475,134.12Z" style="fill:white;fill-opacity:0.5;fill-rule:nonzero;"/>
    <path d="M86.551,96.578C86.016,97.511 85.449,98.402 84.855,99.253C84.133,100.281 83.531,101.425 82.781,102.478C82.327,103.115 82.162,103.875 82.289,104.751C79.314,106.318 77.308,108.574 76.27,111.52C74.721,115.906 75.608,120.672 78.727,124.153C80.166,125.761 81.972,126.909 84.147,127.595C84.094,128.542 86.678,132.703 87.181,133.565C88.022,135.008 89.145,136.965 90.557,139.44C91.44,140.992 92.229,141.97 93.594,143.875C93.915,144.322 94.457,144.874 95.228,145.536C95.238,145.547 95.664,145.853 96.498,146.448C97.185,146.937 97.575,147.518 97.667,148.186C93.848,148.616 90.092,149.059 86.4,149.517C80.603,150.231 74.541,150.971 68.209,151.731C67.706,151.791 66.724,151.748 65.263,151.597C65.224,151.594 65.186,151.583 65.154,151.565L62.982,150.534C62.965,150.527 62.951,150.517 62.936,150.506C61.402,149.341 60.395,147.979 59.913,146.419C59.698,145.733 59.54,144.959 59.434,144.103C56.573,120.848 53.947,100.795 54.591,100.408C55.038,100.239 84.517,96.42 86.551,96.578Z" style="fill:white;fill-opacity:0.25;fill-rule:nonzero;"/>
    <path d="M84.147,127.595C81.972,126.909 80.166,125.761 78.727,124.153C75.608,120.672 74.721,115.906 76.27,111.52C77.308,108.574 79.314,106.318 82.289,104.751C87.389,102.474 91.958,103.013 96.002,106.36C96.864,107.075 97.72,108.141 98.564,109.553C102.088,115.455 99.983,123.023 94.2,126.469C91.299,128.197 87.949,128.574 84.147,127.595Z" style="fill:white;fill-opacity:0.05;fill-rule:nonzero;"/>
    <path d="M153.122,123.702C151.633,126.342 147.99,127.11 145.579,125.459C144.664,124.836 144.006,123.998 143.608,122.953C143.513,122.71 143.221,122.622 143.006,122.766C141.475,123.797 139.754,124.23 137.839,124.061C134.956,123.808 132.735,122.484 131.179,120.094C129.472,117.472 129.286,113.991 130.884,111.161C132.478,108.331 135.555,106.687 138.68,106.793C141.531,106.888 143.812,108.102 145.523,110.44C146.656,111.992 147.177,113.688 147.086,115.529C147.071,115.79 147.304,115.994 147.557,115.948C148.659,115.751 149.715,115.878 150.722,116.339C153.379,117.55 154.611,121.062 153.122,123.702Z" style="fill:white;fill-opacity:0.05;fill-rule:nonzero;"/>
    <path d="M3.831,246.978C5.982,246.661 8.505,246.359 11.406,246.07C17.407,245.475 29.135,244.271 46.583,242.459C48.195,242.293 48.385,242.86 49.22,243.979C49.343,244.145 49.561,244.377 49.871,244.676C56.618,251.163 63.901,257.034 71.718,262.282C72.848,263.039 74.003,263.743 75.189,264.394C76.872,265.32 78.216,266.316 79.849,267.164C82.317,268.446 84.914,270.075 87.632,271.318C93.32,273.919 97.065,275.559 98.864,276.232C124.235,285.725 150.084,288.076 176.416,283.285C181.13,282.426 186.311,281.17 191.957,279.519C193.699,279.009 195.135,278.526 196.268,278.079C198.166,277.326 200.2,276.756 201.999,276.056C211.221,272.469 219.971,268.002 228.246,262.659C229.496,261.853 230.481,261.181 231.203,260.635C232.509,259.65 233.723,258.984 235.128,257.904C238.387,255.394 240.661,253.592 241.953,252.501C259.298,237.833 272.473,220.153 281.477,199.457C283.61,194.557 285.546,188.989 287.056,184.018C287.746,181.748 288.538,178.82 289.432,175.233C289.83,173.638 290.079,172.484 290.182,171.769C290.403,170.214 290.886,168.658 291.09,167.151C292.089,159.851 292.635,155.367 292.726,153.702C292.927,150.122 293.054,146.522 293.11,142.896C293.11,142.861 293.11,142.692 293.107,142.393C293.068,137.081 292.892,132.875 292.579,129.771C292.505,129.028 292.536,128.341 292.674,127.711C293.268,129.151 293.687,130.608 293.923,132.09C294.265,134.213 294.437,135.286 294.441,135.311C294.944,137.842 295.303,140.337 295.511,142.798C295.683,144.832 295.856,147.127 296.028,149.679C296.113,150.907 296.151,151.653 296.141,151.914C296.095,153.121 296.292,153.684 296.162,154.888C296.095,155.48 296.105,156.057 296.186,156.616C296.384,157.993 296.032,158.943 296.162,160.186C296.32,161.66 295.954,163.536 295.993,164.8C296.017,165.62 295.979,166.553 295.884,167.591C295.518,171.516 294.962,176.109 294.215,181.379C294.085,182.301 293.895,183.209 293.649,184.103C293.191,185.764 293.152,187.376 292.561,189.143C292.36,189.745 292.198,190.516 292.079,191.463C292.047,191.72 291.98,191.973 291.882,192.213C291.459,193.279 291.343,194.416 290.991,195.518C290.569,196.848 290.157,198.172 289.756,199.492C286.454,210.347 282.1,220.245 276.693,229.189C276.211,229.984 275.74,230.801 275.279,231.635C274.712,232.666 274.226,233.476 273.828,234.067C271.776,237.122 270.977,238.647 269.126,240.857C269.115,240.871 268.714,241.466 267.922,242.642C267.75,242.895 267.317,243.465 266.623,244.356C263.417,248.453 260.742,251.642 258.601,253.926C255.177,257.576 252.322,260.438 250.034,262.518C248.894,263.553 248.281,264.113 248.193,264.194C247.352,264.972 246.733,265.524 246.335,265.844C243.48,268.164 240.147,270.769 236.342,273.659C235.817,274.056 235.261,274.415 234.67,274.729C233.906,275.137 233.354,275.693 232.495,276.26C221.777,283.317 210.306,288.875 198.085,292.933C197.778,293.035 197.479,293.13 197.191,293.222C193.072,294.524 190.285,295.33 188.827,295.636C188.233,295.763 187.064,296.027 185.318,296.432C179.049,297.886 172.414,298.917 165.413,299.522C161.049,299.899 155.762,300.054 149.556,299.983C147.955,299.966 146.684,299.888 145.744,299.755C144.893,299.632 143.622,299.575 141.932,299.579C141.045,299.582 137.642,299.202 131.725,298.431C130.912,298.326 130.088,298.157 129.25,297.928C127.378,297.41 125.157,297.294 123.457,296.809C122.014,296.4 120.62,296.249 119.075,295.851C97.741,290.392 78.635,280.642 61.75,266.608C58.058,263.539 54.841,260.378 51.31,256.929C51.152,256.774 50.934,256.7 50.716,256.721L7.344,261.17C7.186,261.188 7.038,261.086 6.999,260.931L3.817,248.544C3.757,248.323 3.74,248.094 3.761,247.869L3.831,246.978Z" style="fill:white;fill-opacity:0.25;fill-rule:nonzero;"/>
    <path d="M118.475,134.12C118.786,137.687 116.009,140.844 112.269,141.171C108.529,141.499 105.245,138.873 104.933,135.305C104.622,131.738 107.399,128.581 111.139,128.254C114.879,127.926 118.163,130.552 118.475,134.12Z" style="fill:white;fill-opacity:0.05;fill-rule:nonzero;"/>
    <path d="M217.662,198.552C217.447,198.492 217.317,198.27 217.366,198.052C217.887,195.676 218.802,193.424 220.108,191.298C220.985,189.872 222.372,188.39 224.265,186.855C227.025,184.624 229.753,182.776 232.445,181.315C235.138,179.854 237.567,178.313 239.728,176.683C242.878,174.307 244.399,171.227 244.29,167.444C244.244,165.905 243.91,164.55 243.283,163.378C241.604,160.231 238.574,158.172 235.184,156.965C233.772,156.462 232.688,156.155 231.932,156.039C230.46,155.817 229.538,155.638 229.161,155.504C229.066,155.472 228.964,155.451 228.862,155.444C225.846,155.293 223.776,155.293 222.65,155.451C221.351,155.631 219.964,155.965 218.489,156.455C215.751,157.359 213.375,158.735 211.358,160.583C211.157,160.766 210.848,160.759 210.654,160.569L201.372,151.284C201.069,150.981 201.087,150.485 201.411,150.207C204.072,147.908 207.043,146.05 210.32,144.628C211.069,144.3 211.766,144.047 212.403,143.861C213.361,143.579 214.191,143.195 215.23,142.974C216.381,142.727 217.419,142.509 218.341,142.322C219.517,142.083 220.566,141.953 221.485,141.932C223.98,141.872 226.384,141.879 228.697,141.949C230.411,142.002 233.023,142.498 234.226,142.717C240.355,143.822 245.687,145.789 250.224,148.623C251.664,149.52 253.237,150.798 254.944,152.449C257.482,154.902 259.305,157.873 260.414,161.365C260.72,162.319 260.731,163.199 260.946,164.262C261.238,165.733 261.182,167.458 260.773,169.436C260.692,169.83 260.72,170.323 260.661,170.608C259.488,176.148 256.919,180.569 252.956,183.867C250.911,185.567 248.271,187.331 245.036,189.15C243.118,190.231 241.569,191.167 240.393,191.952C237.004,194.226 234.251,196.507 232.995,200.481C232.907,200.759 232.864,200.97 232.875,201.107C232.938,202.153 230.925,201.723 230.534,201.544C229.732,201.178 229.031,201.333 228.274,201.033C227.328,200.66 226.529,200.731 225.532,200.414C225.237,200.319 224.874,200.231 224.441,200.143C221.664,199.59 219.404,199.062 217.662,198.552Z" style="fill:white;fill-opacity:0.5;fill-rule:nonzero;"/>
    <path d="M162.383,155.705C167.265,155.705 170.591,155.708 172.362,155.719C172.626,155.719 172.837,155.93 172.837,156.191L172.837,172.938C172.837,173.044 172.921,173.128 173.027,173.128L189.595,173.128C189.817,173.128 189.996,173.308 189.996,173.526L189.996,193.321C189.996,193.712 189.679,194.029 189.289,194.029L173.009,194.025C172.914,194.025 172.837,194.103 172.837,194.201L172.833,210.291C172.833,210.625 172.573,210.896 172.238,210.914C172.112,210.917 168.828,210.921 162.386,210.921C155.945,210.921 152.661,210.917 152.531,210.914C152.2,210.9 151.939,210.625 151.939,210.291L151.932,194.201C151.932,194.106 151.855,194.025 151.76,194.025L135.481,194.029C135.09,194.029 134.773,193.712 134.773,193.321L134.773,173.526C134.773,173.308 134.953,173.128 135.174,173.128L151.742,173.128C151.848,173.128 151.932,173.044 151.932,172.938L151.932,156.191C151.932,155.93 152.144,155.719 152.404,155.719C154.178,155.712 157.504,155.705 162.383,155.705Z" style="fill:white;fill-opacity:0.5;fill-rule:nonzero;"/>
    <path d="M211.103,217.315C212.037,212.072 217.152,208.594 222.525,209.553C227.898,210.509 231.499,215.539 230.564,220.781C229.63,226.024 224.515,229.502 219.142,228.543C213.769,227.587 210.168,222.557 211.103,217.315Z" style="fill:white;fill-opacity:0.5;fill-rule:nonzero;"/>
</svg>
