<?xml version="1.0" encoding="UTF-8" standalone="no"?>
<!DOCTYPE svg PUBLIC "-//W3C//DTD SVG 1.1//EN" "http://www.w3.org/Graphics/SVG/1.1/DTD/svg11.dtd">
<svg width="100%" height="100%" viewBox="0 0 300 300" version="1.1" xmlns="http://www.w3.org/2000/svg" xmlns:xlink="http://www.w3.org/1999/xlink" xml:space="preserve" xmlns:serif="http://www.serif.com/" style="fill-rule:evenodd;clip-rule:evenodd;stroke-linejoin:round;stroke-miterlimit:2;">
    <path d="M111.32,123.489C111.027,123.42 110.842,123.571 110.576,123.483C108.956,122.926 107.263,122.287 105.502,121.57C105.321,121.497 105.222,121.303 105.265,121.112L109.479,102.683C109.515,102.525 109.476,102.357 109.377,102.229C100.164,90.438 95.571,77.027 95.601,61.996C95.601,60.84 95.818,59.793 95.798,58.704C95.792,58.351 95.815,57.913 95.864,57.39C96.822,47.607 99.733,38.658 104.596,30.538C107.293,26.037 110.592,21.856 114.501,17.997C125.923,6.713 141.243,0.5 157.347,0.026C160.169,-0.057 162.757,0.059 165.118,0.368C167.518,0.681 170.06,1.208 172.74,1.942C172.829,1.965 172.856,2.077 172.79,2.14C172.615,2.304 172.605,2.443 172.767,2.554C167.502,2.077 162.698,2.054 158.358,2.489C146.366,3.69 135.407,8.139 125.491,15.853C124.895,16.317 124.434,16.843 123.815,17.256C123.496,17.469 123.08,17.822 122.571,18.313C119.686,21.094 117.79,23.038 116.871,24.134C108.696,33.834 103.8,45 102.176,57.627C102.028,58.779 101.99,59.984 101.844,61.278C101.74,62.19 101.685,63.102 101.676,64.021C101.598,72.098 102.975,79.892 105.778,87.402C107.987,93.319 111.335,99.338 115.409,104.369C115.561,104.556 115.617,104.8 115.564,105.034L111.32,123.489Z" style="fill:white;fill-opacity:0.25;"/>
    <path d="M172.767,2.554C186.332,4.56 198.067,10.17 207.975,19.386C208.995,20.338 209.809,21.164 210.415,21.869C211.442,23.061 212.509,24.128 213.454,25.303C221.027,34.727 225.587,45.372 227.134,57.242C229.62,76.319 222.966,95.686 209.631,109.249C202.95,116.045 195.232,121.049 186.477,124.26C168.23,130.954 148.329,128.929 131.747,118.912C131.658,118.856 131.546,118.837 131.441,118.863C126.999,119.923 120.523,121.464 112.015,123.489C111.695,123.565 111.465,123.565 111.32,123.489L115.564,105.034C115.617,104.8 115.561,104.556 115.409,104.369C111.335,99.338 107.987,93.319 105.778,87.402C102.975,79.892 101.598,72.098 101.676,64.021C101.685,63.102 101.74,62.19 101.844,61.278C101.99,59.984 102.028,58.779 102.176,57.627C103.8,45 108.696,33.834 116.871,24.134C117.79,23.038 119.686,21.094 122.571,18.313C123.08,17.822 123.496,17.469 123.815,17.256C124.434,16.843 124.895,16.317 125.491,15.853C135.407,8.139 146.366,3.69 158.358,2.489C162.698,2.054 167.502,2.077 172.767,2.554ZM159.738,68.025C159.738,66.78 158.73,65.773 157.486,65.773L142.155,65.773C140.911,65.773 139.903,66.78 139.903,68.025L139.903,68.143C139.903,69.388 140.911,70.396 142.155,70.396L157.486,70.396C158.73,70.396 159.738,69.388 159.738,68.143L159.738,68.025ZM183.441,68.008C183.438,66.764 182.431,65.756 181.185,65.759L165.861,65.786C164.617,65.789 163.61,66.797 163.613,68.042L163.613,68.161C163.617,69.405 164.624,70.412 165.869,70.409L181.193,70.382C182.437,70.379 183.445,69.372 183.442,68.126L183.441,68.008ZM136.031,68.028C136.031,66.784 135.02,65.773 133.776,65.773L118.458,65.773C117.214,65.773 116.203,66.784 116.203,68.028L116.203,68.14C116.203,69.385 117.214,70.396 118.458,70.396L133.776,70.396C135.02,70.396 136.031,69.385 136.031,68.14L136.031,68.028ZM187.979,83.375C187.34,86.632 189.533,89.802 192.88,90.46C196.227,91.116 199.457,89.009 200.095,85.752C200.734,82.496 198.541,79.325 195.194,78.667C191.847,78.011 188.617,80.119 187.979,83.375ZM192.206,71.798L200.843,73.774C201.149,73.843 201.455,73.655 201.531,73.352C202.453,69.737 206.045,67.604 209.18,65.872C213.572,63.445 217.25,60.709 218.616,55.674C219.39,52.826 219.529,50.508 218.61,47.897C215.189,38.164 200.431,35.135 191.64,36.808C188.028,37.496 184.745,39.093 181.795,41.602C181.624,41.747 181.614,42.007 181.772,42.165L187.547,47.94C187.719,48.111 187.989,48.118 188.166,47.956C191.969,44.499 197.359,44.065 202.13,45.441C203.638,45.879 204.969,46.544 206.124,47.443C208.34,49.168 209.157,51.384 208.571,54.094C208.258,55.546 207.603,56.679 206.612,57.489C205.291,58.565 204.261,59.316 203.513,59.741C200.448,61.486 199.006,62.299 196.648,64.084C194.1,66.01 192.641,68.186 191.897,71.304C191.844,71.525 191.982,71.749 192.206,71.798Z" style="fill:white;fill-opacity:0.95;"/>
    <path d="M192.206,71.798L200.843,73.774C201.149,73.843 201.455,73.655 201.531,73.352C202.453,69.737 206.045,67.604 209.18,65.872C213.572,63.445 217.25,60.709 218.616,55.674C219.39,52.826 219.529,50.508 218.61,47.897C215.189,38.164 200.431,35.135 191.64,36.808C188.028,37.496 184.745,39.093 181.795,41.602C181.624,41.747 181.614,42.007 181.772,42.165L187.547,47.94C187.719,48.111 187.989,48.118 188.166,47.956C191.969,44.499 197.359,44.065 202.13,45.441C203.638,45.879 204.969,46.544 206.124,47.443C208.34,49.168 209.157,51.384 208.571,54.094C208.258,55.546 207.603,56.679 206.612,57.489C205.291,58.565 204.261,59.316 203.513,59.741C200.448,61.486 199.006,62.299 196.648,64.084C194.1,66.01 192.641,68.186 191.897,71.304C191.844,71.525 191.982,71.749 192.206,71.798Z" style="fill:white;fill-opacity:0.4;"/>
    <path d="M136.031,68.028C136.031,66.784 135.02,65.773 133.776,65.773L118.458,65.773C117.214,65.773 116.203,66.784 116.203,68.028L116.203,68.14C116.203,69.385 117.214,70.396 118.458,70.396L133.776,70.396C135.02,70.396 136.031,69.385 136.031,68.14L136.031,68.028Z" style="fill:white;fill-opacity:0.4;"/>
    <path d="M159.738,68.025C159.738,66.78 158.73,65.773 157.486,65.773L142.155,65.773C140.911,65.773 139.903,66.78 139.903,68.025L139.903,68.143C139.903,69.388 140.911,70.396 142.155,70.396L157.486,70.396C158.73,70.396 159.738,69.388 159.738,68.143L159.738,68.025Z" style="fill:white;fill-opacity:0.4;"/>
    <path d="M183.441,68.008C183.438,66.764 182.431,65.756 181.185,65.759L165.861,65.786C164.617,65.789 163.61,66.797 163.613,68.042L163.613,68.161C163.617,69.405 164.624,70.412 165.869,70.409L181.193,70.382C182.437,70.379 183.445,69.372 183.442,68.126L183.441,68.008Z" style="fill:white;fill-opacity:0.4;"/>
    <path d="M187.979,83.375C187.34,86.632 189.533,89.802 192.88,90.46C196.227,91.116 199.457,89.009 200.095,85.752C200.734,82.496 198.541,79.325 195.194,78.667C191.847,78.011 188.617,80.119 187.979,83.375Z" style="fill:white;fill-opacity:0.4;"/>
    <path d="M149.399,298.531C149.399,299.341 148.74,300 147.93,300L147.917,300C147.107,300 146.449,299.341 146.449,298.531L146.449,139.037C146.449,138.227 147.107,137.568 147.917,137.568L147.93,137.568C148.74,137.568 149.399,138.227 149.399,139.037L149.399,298.531Z" style="fill:white;fill-opacity:0.85;"/>
    <path d="M192.457,171.038C192.216,170.698 191.791,170.644 191.587,170.531C189.641,169.454 187.449,168.815 185.7,167.637C184.278,166.678 183.287,165.951 182.73,165.454C181.173,164.061 180.03,162.214 179.303,159.909C179.072,159.175 179.108,157.011 179.408,156.162C180.172,153.999 181.384,153.208 183.376,151.96C183.774,151.714 185.559,150.732 188.733,149.023C189.938,148.375 192.236,147.44 195.631,146.212C196.882,145.76 197.992,145.622 199.249,145.286C200.826,144.865 202.341,144.862 203.987,144.625C204.985,144.48 205.91,144.47 206.76,144.592C207.652,144.72 208.255,144.792 208.561,144.809C209.2,144.845 209.802,144.921 210.365,145.043C213.022,145.619 215.498,146.531 217.793,147.782C220.437,149.221 223.015,151.737 225.857,152.583C225.989,152.622 226.13,152.642 226.272,152.642L232.044,152.642C232.228,152.642 232.416,152.665 232.597,152.708C234.78,153.225 237.368,153.985 240.368,154.993C242.692,155.773 244.717,157.318 245.55,159.639C245.613,159.81 245.646,159.988 245.652,160.169C245.735,162.033 245.906,163.593 246.163,164.848C246.373,165.888 246.973,166.952 247.786,167.782C248.764,168.779 250.045,170.057 251.628,171.617C254.582,174.522 254.71,179.286 253.041,182.816C252.129,184.745 250.255,186.368 248.5,187.527C247.394,188.258 246.419,189.121 245.837,189.891C245.507,190.326 245.28,190.869 245.158,191.521C244.931,192.736 244.747,193.826 244.605,194.791C244.487,195.601 244.105,196.72 243.815,197.346C242.985,199.16 241.464,200.382 239.251,201.014C238.178,201.63 237.21,202.001 236.351,202.13C235.33,202.284 234.368,201.985 233.463,201.235C233.025,200.977 232.789,200.669 232.756,200.311L235.004,189.76L235.541,187.099C236.143,184.897 235.379,183.691 233.252,183.477L230.891,182.895C230.793,179.612 228.815,177.116 225.495,177.498C225.11,177.542 224.441,177.811 223.496,178.305C222.166,179 220.911,179.395 219.535,178.519C215.83,176.159 215.205,171.841 214.547,167.91C214.003,164.663 213.039,162.49 209.634,162.322C207.287,162.207 204.89,162.592 202.45,163.478C200.682,164.081 198.95,164.815 197.247,165.674C195.631,166.494 194.36,167.64 193.441,169.118C192.946,169.89 192.618,170.528 192.457,171.038Z" style="fill:white;fill-opacity:0.2;"/>
    <path d="M212.624,216.325C211.257,216.891 210.257,217.218 208.247,217.385C208.247,217.385 208.244,217.382 208.238,217.377C208.255,217.376 208.272,217.373 208.288,217.368C208.288,217.368 204.814,213.569 204.251,211.56C203.885,210.266 203.572,206.213 203.609,205.93C205.739,205.041 207.767,203.806 209.697,202.226C209.805,202.137 209.836,201.985 209.773,201.857C209.581,201.47 209.255,201.365 208.804,201.534C206.953,202.228 205.538,203.144 203.885,203.875C203.757,203.875 203.655,203.859 203.579,203.829C203.494,203.796 203.484,203.678 203.566,203.635C203.846,203.49 204.023,203.249 204.106,202.91C204.26,202.281 204.352,201.333 204.382,200.066C204.438,197.731 204.369,196.112 202.42,194.788C202.255,194.676 202.051,194.636 201.857,194.679L200.418,195.002C200.313,195.025 200.208,195.065 200.115,195.12C198.879,195.85 197.95,195.602 197.356,194.419C197.293,194.294 197.258,194.155 197.254,194.017C197.217,192.73 197.074,191.735 197.132,190.237C197.277,186.494 197.796,182.761 198.518,179.006C198.529,178.95 198.953,176.846 198.979,176.701C199.25,175.191 199.608,173.706 200.049,172.253C200.192,171.782 200.67,170.172 201.475,167.423C201.802,166.307 202.194,165.27 202.651,164.308C202.74,164.12 202.674,163.844 202.45,163.478C204.89,162.592 207.287,162.207 209.634,162.322C213.039,162.49 214.003,164.663 214.547,167.91C215.205,171.841 215.83,176.159 219.535,178.519C220.911,179.395 222.166,179 223.496,178.305C224.441,177.811 225.11,177.542 225.495,177.498C228.815,177.116 230.793,179.612 230.891,182.895L218.837,180.343C218.709,180.313 218.577,180.319 218.449,180.356C217.68,180.576 217.107,181.032 216.72,181.706C216.684,181.769 216.657,181.838 216.641,181.91L212.321,202.571C211.979,203.378 211.535,204.136 210.987,204.847C210.589,205.364 210.347,206.269 210.257,207.57C210.182,208.65 210.304,209.868 210.629,211.228C211.064,213.049 211.732,214.747 212.624,216.325ZM203.579,179.243C204.975,179.309 206.389,179.428 207.682,178.99C207.78,178.956 207.867,178.888 207.922,178.799C208.966,177.119 204.544,176.729 203.698,176.691C202.848,176.653 198.428,176.625 199.295,178.4C199.342,178.495 199.421,178.571 199.516,178.614C200.761,179.173 202.183,179.177 203.579,179.243ZM202.29,182.821C201.676,182.881 201.291,184.047 201.424,185.427C201.561,186.806 202.167,187.876 202.78,187.815C203.395,187.755 203.78,186.589 203.646,185.209C203.51,183.83 202.904,182.76 202.29,182.821Z" style="fill:white;fill-opacity:0.95;"/>
    <path d="M208.238,217.377L208.212,217.378C207.981,217.375 207.468,217.375 206.674,217.385C202.967,217.428 200.346,215.027 198.459,211.778C196.793,208.91 195.519,205.604 194.64,201.86C193.444,196.77 192.618,192.084 192.154,187.801C192,186.388 191.755,185.304 191.73,184.04C192.288,183.631 192.951,183.081 193.777,182.332C194.218,181.979 194.635,181.579 195.028,181.143C195.353,180.783 195.331,180.409 194.966,180.023C194.327,179.345 192.471,180.183 191.482,180.86C191.367,177.603 191.673,174.406 192.394,171.268C192.411,171.195 192.432,171.118 192.457,171.038C192.618,170.528 192.946,169.89 193.441,169.118C194.36,167.64 195.631,166.494 197.247,165.674C198.95,164.815 200.682,164.081 202.45,163.478C202.674,163.844 202.74,164.12 202.651,164.308C202.194,165.27 201.802,166.307 201.475,167.423C200.67,170.172 200.192,171.782 200.049,172.253C199.608,173.706 199.25,175.191 198.979,176.701C198.953,176.846 198.529,178.95 198.518,179.006C197.796,182.761 197.277,186.494 197.132,190.237C197.074,191.735 197.217,192.73 197.254,194.017C197.258,194.155 197.293,194.294 197.356,194.419C197.95,195.602 198.879,195.85 200.115,195.12C200.208,195.065 200.313,195.025 200.418,195.002L201.857,194.679C202.051,194.636 202.255,194.676 202.42,194.788C204.369,196.112 204.438,197.731 204.382,200.066C204.352,201.333 204.26,202.281 204.106,202.91C204.023,203.249 203.846,203.49 203.566,203.635C203.484,203.678 203.494,203.796 203.579,203.829C203.655,203.859 203.757,203.875 203.885,203.875C201.804,204.86 199.77,205.067 197.498,205.219C197.241,205.236 197.062,205.486 197.132,205.736C197.197,205.966 197.395,206.128 197.722,206.216C199.673,206.744 201.636,206.644 203.609,205.93C203.572,206.213 203.885,210.266 204.251,211.56C204.814,213.569 208.288,217.368 208.288,217.368C208.272,217.373 208.255,217.376 208.238,217.377ZM193.587,185.381C193.151,185.417 192.871,186.303 192.963,187.354C193.053,188.406 193.481,189.23 193.914,189.193C194.35,189.157 194.63,188.271 194.538,187.219C194.449,186.168 194.021,185.344 193.587,185.381Z" style="fill:white;fill-opacity:0.75;"/>
    <path d="M203.579,179.243C202.183,179.177 200.761,179.173 199.516,178.614C199.421,178.571 199.342,178.495 199.295,178.4C198.428,176.625 202.848,176.653 203.698,176.691C204.544,176.729 208.966,177.119 207.922,178.799C207.867,178.888 207.78,178.956 207.682,178.99C206.389,179.428 204.975,179.309 203.579,179.243ZM191.73,184.04C190.417,185.002 189.683,185.184 188.759,185.341C188.238,185.429 187.85,185.125 188.002,184.62C188.358,183.43 189.919,181.93 191.482,180.86C192.471,180.183 194.327,179.345 194.966,180.023C195.331,180.409 195.353,180.783 195.028,181.143C194.635,181.579 194.218,181.979 193.777,182.332C192.951,183.081 192.288,183.631 191.73,184.04ZM202.29,182.821C202.904,182.76 203.51,183.83 203.646,185.209C203.78,186.589 203.395,187.755 202.78,187.815C202.167,187.876 201.561,186.806 201.424,185.427C201.291,184.047 201.676,182.881 202.29,182.821ZM193.587,185.381C194.021,185.344 194.449,186.168 194.538,187.219C194.63,188.271 194.35,189.157 193.914,189.193C193.481,189.23 193.053,188.406 192.963,187.354C192.871,186.303 193.151,185.417 193.587,185.381ZM203.609,205.93C201.636,206.644 199.673,206.744 197.722,206.216C197.395,206.128 197.197,205.966 197.132,205.736C197.062,205.486 197.241,205.236 197.498,205.219C199.77,205.067 201.804,204.86 203.885,203.875C205.538,203.144 206.953,202.228 208.804,201.534C209.255,201.365 209.581,201.47 209.773,201.857C209.836,201.985 209.805,202.137 209.697,202.226C207.767,203.806 205.739,205.041 203.609,205.93Z" style="fill:white;fill-opacity:0.15;"/>
    <path d="M91.406,224.542C89.731,224.124 85.978,222.573 85.674,222.373C86.237,220.032 86.852,217.734 87.524,215.475C87.978,213.944 88.367,212.051 87.87,209.934C87.672,209.09 87.478,208.418 86.955,207.589C85.958,202.202 82.766,186.582 82.766,186.582C82.888,183.649 83.988,181.39 86.065,179.813C87.172,178.973 88.555,178.4 90.214,178.101C91.798,177.814 93.3,177.798 94.725,178.054C95.566,178.205 97.409,178.689 100.257,179.503L100.243,179.503C100.161,179.51 100.147,179.627 100.227,179.655C100.335,179.693 100.444,179.725 100.55,179.75C100.579,179.757 100.61,179.836 100.642,179.991C100.686,180.204 100.939,181.225 101.402,183.053C102.784,188.501 103.382,194.05 103.204,199.703C103.171,200.741 102.667,201.328 101.696,201.458C101.594,201.472 101.488,201.472 101.386,201.462C101.027,201.425 100.549,201.291 99.957,201.07C97.516,200.158 96.533,202.479 96.464,204.392C96.421,205.541 96.562,206.499 96.766,207.543L96.772,207.58C96.781,207.653 96.799,207.823 96.825,208.082L96.095,207.83C95.909,207.779 94.081,207.281 93.721,207.398C92.852,207.682 92.875,208.796 92.878,208.936C92.885,209.274 94.985,211.664 97.26,212.426C97.708,215.485 97.013,218.205 95.173,220.582L92.021,224.646C91.882,224.646 91.67,224.608 91.406,224.542ZM90.211,184.936C89.977,185.088 90.02,185.437 90.28,185.529C90.599,185.644 91.32,185.588 92.437,185.367C92.601,185.334 92.773,185.325 92.94,185.334C94.942,185.45 97.181,185.697 99.657,186.079C100.138,186.154 100.546,185.726 100.444,185.252C100.411,185.104 100.247,184.943 99.954,184.765C98.992,184.182 97.906,183.849 96.691,183.767C94.883,183.642 92.983,183.896 90.998,184.531C90.794,184.597 90.53,184.732 90.211,184.936ZM97.944,189.107C97.274,189.062 96.655,190.181 96.562,191.604C96.47,193.026 96.938,194.215 97.611,194.259C98.281,194.304 98.9,193.184 98.993,191.761C99.084,190.339 98.617,189.151 97.944,189.107Z" style="fill:white;fill-opacity:0.95;"/>
    <path d="M107.481,179.905C107.94,182.257 108.183,184.518 108.238,186.7C107.319,186.511 106.475,186.506 106.042,186.648C105.736,186.77 105.63,187.149 105.828,187.412C105.982,187.62 106.239,187.811 106.598,187.988C107.151,188.265 107.678,188.505 108.179,188.709L108.235,188.73C108.206,189.767 108.134,190.787 108.024,191.791C107.757,191.49 107.515,191.325 107.298,191.295C106.782,191.206 106.387,191.808 106.223,193.115C106.219,193.137 106.216,193.16 106.215,193.183C105.955,195.421 106.956,195.752 107.437,195.4C107.543,195.323 107.642,195.217 107.761,194.942C107.655,196.17 107.53,197.382 107.388,198.581C106.825,203.306 105.933,207.919 104.712,212.42C104.122,214.586 103.306,216.7 102.255,218.758C101.067,221.099 99.345,223.302 96.944,224.313C96.355,224.559 95.625,224.635 94.778,224.767C93.663,224.941 91.794,224.692 91.406,224.542C91.67,224.608 91.882,224.646 92.021,224.646L95.173,220.582C97.013,218.205 97.708,215.485 97.26,212.426C101.41,214.137 102.174,211.535 102.14,211.432C101.587,209.752 99.562,209.029 99.275,208.926L96.825,208.082C96.799,207.823 96.781,207.653 96.772,207.58C96.77,207.565 96.769,207.552 96.766,207.543C96.562,206.499 96.421,205.541 96.464,204.392C96.533,202.479 97.516,200.158 99.957,201.07C100.549,201.291 101.027,201.425 101.386,201.462C101.488,201.472 101.594,201.472 101.696,201.458C102.667,201.328 103.171,200.741 103.204,199.703C103.382,194.05 102.784,188.501 101.402,183.053C100.939,181.225 100.686,180.204 100.642,179.991C100.61,179.836 100.579,179.757 100.55,179.75C100.444,179.725 100.335,179.693 100.227,179.655C100.147,179.627 100.161,179.51 100.243,179.503C100.248,179.503 100.252,179.503 100.257,179.503C100.299,179.515 100.342,179.527 100.385,179.539C102.779,180.326 105.146,180.448 107.481,179.905Z" style="fill:white;fill-opacity:0.75;"/>
    <path d="M100.385,179.539C100.336,179.516 100.292,179.503 100.257,179.503C100.299,179.515 100.342,179.527 100.385,179.539Z" style="fill:white;fill-opacity:0.2;"/>
    <path d="M231.629,205.601C230.918,206.72 230.618,208.123 230.723,209.812C230.774,210.625 230.763,211.241 230.691,211.656C230.463,212.966 229.65,214.843 228.014,213.694C226.107,212.354 226.069,210.428 225.864,207.984C225.737,206.48 225.734,205.133 225.854,203.941C226.063,201.853 226.055,201.111 226.305,198.87C226.322,198.716 226.301,198.561 226.242,198.419C225.564,196.771 224.366,196.922 222.778,197.468C222.127,197.692 221.494,197.909 220.882,198.116C218.577,198.897 216.344,200.038 214.181,201.541C213.618,201.932 213.097,202.363 212.614,202.828C212.545,202.894 212.433,202.868 212.4,202.779L212.321,202.571L216.641,181.91C216.657,181.838 216.684,181.769 216.72,181.706C217.107,181.032 217.68,180.576 218.449,180.356C218.577,180.319 218.709,180.313 218.837,180.343L230.891,182.895L233.252,183.477C235.379,183.691 236.143,184.897 235.541,187.099L235.004,189.76L231.629,205.601ZM221.54,185.196C221.54,184.149 220.691,183.3 219.644,183.3C218.597,183.3 217.747,184.149 217.747,185.196C217.747,186.243 218.597,187.093 219.644,187.093C220.691,187.093 221.54,186.243 221.54,185.196ZM223.628,188.39C223.628,187.718 223.085,187.175 222.413,187.175C221.741,187.175 221.198,187.718 221.198,188.39C221.198,189.062 221.741,189.605 222.413,189.605C223.085,189.605 223.628,189.062 223.628,188.39Z" style="fill:white;fill-opacity:0.5;"/>
    <path d="M221.54,185.196C221.54,184.149 220.691,183.3 219.644,183.3C218.597,183.3 217.747,184.149 217.747,185.196C217.747,186.243 218.597,187.093 219.644,187.093C220.691,187.093 221.54,186.243 221.54,185.196Z" style="fill:white;fill-opacity:0.95;"/>
    <path d="M97.26,212.426C94.985,211.664 92.885,209.274 92.878,208.936C92.875,208.796 92.852,207.682 93.721,207.398C94.081,207.281 95.909,207.779 96.095,207.83L99.275,208.926C99.562,209.029 101.587,209.752 102.14,211.432C102.174,211.535 101.41,214.137 97.26,212.426ZM90.211,184.936C90.53,184.732 90.794,184.597 90.998,184.531C92.983,183.896 94.883,183.642 96.691,183.767C97.906,183.849 98.992,184.182 99.954,184.765C100.247,184.943 100.411,185.104 100.444,185.252C100.546,185.726 100.138,186.154 99.657,186.079C97.181,185.697 94.942,185.45 92.94,185.334C92.773,185.325 92.601,185.334 92.437,185.367C91.32,185.588 90.599,185.644 90.28,185.529C90.02,185.437 89.977,185.088 90.211,184.936ZM111.692,189.97L108.179,188.709C107.678,188.505 107.151,188.265 106.598,187.988C106.239,187.811 105.982,187.62 105.828,187.412C105.63,187.149 105.736,186.77 106.042,186.648C106.475,186.506 107.319,186.511 108.238,186.7C109.859,187.035 111.712,187.946 111.959,189.648C111.988,189.854 111.889,190.04 111.692,189.97ZM97.944,189.107C98.617,189.151 99.084,190.339 98.993,191.761C98.9,193.184 98.281,194.304 97.611,194.259C96.938,194.215 96.47,193.026 96.562,191.604C96.655,190.181 97.274,189.062 97.944,189.107ZM107.761,194.942C107.642,195.217 107.543,195.323 107.437,195.4C106.956,195.752 105.955,195.421 106.215,193.183C106.216,193.16 106.219,193.137 106.223,193.115C106.387,191.808 106.782,191.206 107.298,191.295C107.521,191.333 107.765,191.499 108.024,191.791L107.761,194.942Z" style="fill:white;fill-opacity:0.15;"/>
    <path d="M76.956,185.137L76.296,184.455C76.267,184.422 76.23,184.396 76.191,184.38C74.76,183.767 74.251,184.843 73.687,185.806L76.956,185.137Z" style="fill:white;fill-opacity:0.95;"/>
    <path d="M82.766,186.582C82.766,186.582 85.958,202.202 86.955,207.589C86.832,207.395 86.692,207.192 86.528,206.977C86.172,206.505 85.707,205.972 85.091,205.334C82.621,202.777 78.897,201.933 75.414,201.014C73.982,200.635 72.783,201.847 72.99,203.253C73.498,206.69 73.59,210.121 73.264,213.542C73.096,215.301 72.536,216.734 70.916,217.566C70.666,217.694 70.389,217.744 70.083,217.711C68.809,217.573 68.542,215.416 68.542,214.51C68.542,212.736 68.766,210.971 67.808,209.532C67.801,209.394 67.689,209.134 67.469,208.752C67.475,208.75 67.482,208.748 67.488,208.745C67.6,208.709 68.151,208.515 68.07,208.223L67.706,206.918C66.55,202.509 65.338,196.816 64.067,189.839C64.011,189.534 64.016,189.22 64.076,188.926C64.215,188.24 64.652,187.656 65.305,187.52L80.407,184.431C81.056,184.316 82.509,185.132 82.766,186.582ZM81.472,189.174C81.472,188.11 80.61,187.247 79.546,187.247C78.483,187.247 77.62,188.11 77.62,189.174C77.62,190.237 78.483,191.1 79.546,191.1C80.61,191.1 81.472,190.237 81.472,189.174ZM78.028,192.331C78.028,191.66 77.482,191.113 76.81,191.113C76.138,191.113 75.592,191.66 75.592,192.331C75.592,193.003 76.138,193.55 76.81,193.55C77.482,193.55 78.028,193.003 78.028,192.331Z" style="fill:white;fill-opacity:0.6;"/>
    <path d="M223.628,188.39C223.628,187.718 223.085,187.175 222.413,187.175C221.741,187.175 221.198,187.718 221.198,188.39C221.198,189.062 221.741,189.605 222.413,189.605C223.085,189.605 223.628,189.062 223.628,188.39Z" style="fill:white;fill-opacity:0.95;"/>
    <path d="M81.472,189.174C81.472,188.11 80.61,187.247 79.546,187.247C78.483,187.247 77.62,188.11 77.62,189.174C77.62,190.237 78.483,191.1 79.546,191.1C80.61,191.1 81.472,190.237 81.472,189.174Z" style="fill:white;fill-opacity:0.95;"/>
    <path d="M78.028,192.331C78.028,191.66 77.482,191.113 76.81,191.113C76.138,191.113 75.592,191.66 75.592,192.331C75.592,193.003 76.138,193.55 76.81,193.55C77.482,193.55 78.028,193.003 78.028,192.331Z" style="fill:white;fill-opacity:0.95;"/>
    <path d="M233.2,232.617C234.215,236.163 236.198,239.291 238.352,242.521C239.521,244.273 240.503,246.544 241.675,248.438C243.193,250.89 245.009,254.151 246.768,256.748C248.433,259.205 250.378,261.667 252.6,264.137C254.039,265.737 255.095,267.031 255.764,268.019C257.445,270.502 258.726,272.362 259.343,274.907C259.402,275.151 259.616,275.326 259.87,275.332C261.674,275.375 263.281,275.233 264.693,274.92C263.301,278.512 261.401,281.884 259,285.028C257.384,287.149 255.313,288.845 252.794,290.116C251.688,290.672 250.585,291.011 249.488,291.136C245.204,291.62 241.395,290.553 238.056,287.936C237.934,287.84 237.826,287.732 237.73,287.61L233.45,282.121C231.056,278.219 228.909,274.262 227.016,270.254C225.399,266.833 223.993,263.33 222.798,259.744C220.747,253.591 219.652,247.272 219.515,240.782C219.492,239.679 219.448,236.956 219.384,232.613C219.339,229.568 218.528,226.868 216.954,224.513C217.01,224.507 212.624,216.325 212.624,216.325C211.732,214.747 211.064,213.049 210.629,211.228C210.304,209.868 210.182,208.65 210.257,207.57C210.347,206.269 210.589,205.364 210.987,204.847C211.535,204.136 211.979,203.378 212.321,202.571L212.4,202.779C212.433,202.868 212.545,202.894 212.614,202.828C213.097,202.363 213.618,201.932 214.181,201.541C216.344,200.038 218.577,198.897 220.882,198.116C221.494,197.909 222.127,197.692 222.778,197.468C224.366,196.922 225.564,196.771 226.242,198.419C226.301,198.561 226.322,198.716 226.305,198.87C226.055,201.111 226.063,201.853 225.854,203.941C225.734,205.133 225.737,206.48 225.864,207.984C226.069,210.428 226.107,212.354 228.014,213.694C229.65,214.843 230.463,212.966 230.691,211.656C230.763,211.241 230.774,210.625 230.723,209.812C230.618,208.123 230.918,206.72 231.629,205.601C232.488,205.805 233.063,206.306 233.351,207.105C234.187,209.428 234.749,211.6 235.03,213.621C235.217,214.968 235.123,216.277 234.767,217.556C234.71,217.76 234.625,217.954 234.513,218.136C233.62,219.584 233.028,220.546 232.735,221.017C231.483,223.031 231.41,224.974 231.728,227.273C231.737,227.338 231.809,227.619 231.917,228.024L231.952,228.154C232.295,229.423 232.935,231.694 233.2,232.617Z" style="fill:white;fill-opacity:0.75;"/>
    <path d="M233.463,201.235C233.223,201.679 232.867,202.002 232.396,202.199L232.359,202.175L232.756,200.311C232.789,200.669 233.025,200.977 233.463,201.235Z" style="fill:white;fill-opacity:0.95;"/>
    <path d="M233.463,201.235C234.368,201.985 235.33,202.284 236.351,202.13C237.21,202.001 238.178,201.63 239.251,201.014C239.143,201.801 239.021,202.502 238.889,203.121C238.695,204.046 238.586,204.748 238.566,205.225C238.51,206.657 238.553,207.807 238.698,208.666C238.771,209.104 238.86,209.46 238.962,209.739C239.09,210.092 239.195,210.395 239.271,210.651C239.452,211.274 241.978,215.031 242.353,215.363C243.989,216.809 245.178,217.8 245.912,218.333C246.449,218.718 247.743,219.578 249.798,220.905C248.346,221.257 247.137,221.623 246.172,221.995C243.687,222.953 241.313,224.374 239.08,226.285C238.958,226.39 238.82,226.479 238.675,226.552C237.158,227.312 234.026,227.761 231.917,228.024C231.809,227.619 231.737,227.338 231.728,227.273C231.41,224.974 231.483,223.031 232.735,221.017C233.028,220.546 233.62,219.584 234.513,218.136C234.625,217.954 234.71,217.76 234.767,217.556C235.123,216.277 235.217,214.968 235.03,213.621C234.749,211.6 234.187,209.428 233.351,207.105C233.063,206.306 232.488,205.805 231.629,205.601L232.359,202.175C232.382,202.191 232.396,202.199 232.396,202.199C232.867,202.002 233.223,201.679 233.463,201.235Z" style="fill:white;fill-opacity:0.65;"/>
    <path d="M67.514,231.68C65.28,231.662 62.495,231.202 60.732,230.325C59.306,229.617 58.579,229.255 58.556,229.245C56.992,228.56 55.682,227.874 54.604,227.226C53.146,226.35 52.251,225.716 50.686,225.386C50.137,225.27 49.642,225.119 49.211,224.935C51.174,224.22 53.162,223.368 55.174,222.376C60.028,219.985 63.053,214.592 63.859,209.077L65.747,209.298C65.786,209.295 65.826,209.288 65.865,209.275L67.469,208.752C67.689,209.134 67.801,209.394 67.808,209.532C66.553,210.846 65.688,212.388 65.203,214.158C65.037,214.768 64.831,215.696 64.584,216.95C64.416,217.803 64.359,218.748 64.416,219.792C64.481,220.957 65.274,222.464 66.145,223.703C67.026,224.957 67.65,226.028 68.025,226.914C68.627,228.343 69.085,230.268 68.501,231.702C68.476,231.688 68.45,231.674 68.423,231.662C68.134,231.677 67.829,231.683 67.514,231.68Z" style="fill:white;fill-opacity:0.75;"/>
    <path d="M231.952,228.154L231.917,228.024C234.026,227.761 237.158,227.312 238.675,226.552C238.82,226.479 238.958,226.39 239.08,226.285C241.313,224.374 243.687,222.953 246.172,221.995C247.137,221.623 248.346,221.257 249.798,220.905C252.33,220.513 254.615,220.546 256.653,220.997C261.453,222.067 265.764,224.293 269.58,227.678C271.75,229.6 273.126,230.911 273.705,231.612C276.642,235.158 278.47,239.119 279.191,243.495C279.784,247.097 280.3,250.611 280.738,254.038C281.048,256.455 281.236,258.042 281.305,258.799L281.364,259.326C281.627,261.555 281.789,262.968 281.851,263.561C282.161,266.554 281.11,268.947 278.7,270.745C278.058,271.226 276.761,271.818 274.808,272.526C271.667,273.666 268.296,274.462 264.693,274.92C263.281,275.233 261.674,275.375 259.87,275.332C259.616,275.326 259.402,275.151 259.343,274.907C258.726,272.362 257.445,270.502 255.764,268.019C255.095,267.031 254.039,265.737 252.6,264.137C250.378,261.667 248.433,259.205 246.768,256.748C245.009,254.151 243.193,250.89 241.675,248.438C240.503,246.544 239.521,244.273 238.352,242.521C236.198,239.291 234.215,236.163 233.2,232.617C232.935,231.694 232.295,229.423 231.952,228.154Z" style="fill:white;fill-opacity:0.95;"/>
    <path d="M233.45,282.121C230.516,282.589 228.224,282.872 226.571,282.967C225.001,283.059 224.112,283.119 223.911,283.145C221.731,283.435 220.401,283.297 217.589,283.323C214.8,283.349 211.356,282.961 209.19,282.635C205.588,282.095 201.936,281.061 198.739,279.168C195.127,277.031 193.062,273.913 192.546,269.817C192.384,268.549 192.48,267.044 192.832,265.299C194.488,257.1 196.763,249.274 200.583,242.093C202.394,238.688 204.491,235.191 206.875,231.599C207.971,229.949 209.47,228.208 211.369,226.38C212.232,225.551 213.194,225.096 214.254,225.014C214.366,225.004 216.954,224.513 216.954,224.513C218.528,226.868 219.339,229.568 219.384,232.613C219.448,236.956 219.492,239.679 219.515,240.782C219.652,247.272 220.747,253.591 222.798,259.744C223.993,263.33 225.399,266.833 227.016,270.254C228.909,274.262 231.056,278.219 233.45,282.121Z" style="fill:white;fill-opacity:0.95;"/>
    <path d="M34.851,278.101C32.873,277.77 30.814,277.436 30.361,277.304C27.733,276.537 24.836,276.03 22.511,274.644C20.918,273.692 19.225,271.818 18.731,269.899C18.636,269.527 18.498,269.128 18.31,268.71C18.214,268.496 18.158,268.266 18.142,268.032C18.037,266.501 18.112,265.003 18.366,263.541C18.847,260.772 18.932,258.352 19.331,255.849C19.887,252.339 20.174,249.597 20.69,246.834C21.349,243.321 22.686,240.081 24.701,237.118C25.824,235.471 27.167,234.296 28.665,232.775C32.574,228.804 38.411,225.511 44.055,224.701C45.649,224.471 47.367,224.55 49.211,224.935C49.642,225.119 50.137,225.27 50.686,225.386C52.251,225.716 53.146,226.35 54.604,227.226C55.682,227.874 56.992,228.56 58.556,229.245C58.579,229.255 59.306,229.617 60.732,230.325C62.495,231.202 65.28,231.662 67.514,231.68C67.829,231.683 68.134,231.677 68.423,231.662C68.45,231.674 68.476,231.688 68.501,231.702C66.177,241.488 40.807,277.116 39.205,278.7C39.182,278.722 39.165,278.738 39.152,278.746C39.017,278.838 38.846,278.865 38.688,278.819C38.164,278.666 36.537,278.384 34.851,278.101Z" style="fill:white;fill-opacity:0.95;"/>
    <path d="M82.401,228.33L86.108,229.228C86.493,229.324 86.852,229.508 87.152,229.768C89.76,232.021 91.732,234.809 93.76,237.957C95.963,241.375 98.1,245.247 100.171,249.577C101.521,252.395 102.104,254.407 103.362,258.161C103.714,259.218 103.958,260.051 104.089,260.663C104.54,262.77 105.149,264.124 105.426,266.175C105.469,266.504 105.676,267.512 106.048,269.194C106.858,272.862 105.871,277.103 103.236,279.899C100.997,282.282 98.051,283.599 95.018,284.594C93.797,284.996 92.529,285.289 91.218,285.476C88.775,285.822 86.882,286.349 84.469,286.405C81.087,286.48 77.972,286.467 75.124,286.365C74.331,286.336 72.793,286.155 70.511,285.822C69.01,285.601 67.469,285.433 65.892,285.315C68.568,280.949 70.676,277.1 72.213,273.764C76.514,264.456 79.636,254.397 79.668,244.73C79.681,240.713 79.774,237.305 79.948,234.51C80.103,232.017 80.919,229.956 82.401,228.33Z" style="fill:white;fill-opacity:0.95;"/>
    <path d="M87.524,215.475C86.852,217.734 86.237,220.032 85.674,222.373L82.401,228.33C80.919,229.956 80.103,232.017 79.948,234.51C79.774,237.305 79.681,240.713 79.668,244.73C79.636,254.397 76.514,264.456 72.213,273.764C70.676,277.1 68.568,280.949 65.892,285.315C56.076,297.183 46.432,293.995 40.364,287.732C37.811,285.097 36.031,281.098 34.851,278.101C36.537,278.384 38.164,278.666 38.688,278.819C38.846,278.865 39.017,278.838 39.152,278.746C40.105,278.101 66.145,241.622 68.501,231.702C69.085,230.268 68.627,228.343 68.025,226.914C67.65,226.028 67.026,224.957 66.145,223.703C65.274,222.464 64.481,220.957 64.416,219.792C64.359,218.748 64.416,217.803 64.584,216.95C64.831,215.696 65.037,214.768 65.203,214.158C65.688,212.388 66.553,210.846 67.808,209.532C68.766,210.971 68.542,212.736 68.542,214.51C68.542,215.416 68.809,217.573 70.083,217.711C70.389,217.744 70.666,217.694 70.916,217.566C72.536,216.734 73.096,215.301 73.264,213.542C73.59,210.121 73.498,206.69 72.99,203.253C72.783,201.847 73.982,200.635 75.414,201.014C78.897,201.933 82.621,202.777 85.091,205.334C85.707,205.972 86.172,206.505 86.528,206.977C86.692,207.192 86.832,207.395 86.955,207.589C87.478,208.418 87.672,209.09 87.87,209.934C88.367,212.051 87.978,213.944 87.524,215.475Z" style="fill:white;fill-opacity:0.85;"/>
    <path d="M63.859,209.077C62.613,208.93 61.174,208.758 60.976,208.725C54.809,207.714 50.604,204.307 48.358,198.508C46.804,194.495 46.439,190.497 46.432,186.026C46.429,183.566 46.676,181.311 47.176,179.263C48.299,174.676 49.972,170.393 52.721,166.586C53.982,164.841 54.97,163.689 55.684,163.129C56.458,162.526 57.133,161.947 57.716,161.397C57.838,161.282 57.969,161.18 58.111,161.091C61.766,158.779 65.296,157.173 69.648,156.61C69.935,156.573 70.221,156.399 70.505,156.093C70.567,156.027 70.57,155.925 70.518,155.849C69.27,154.173 68.756,152.329 68.144,150.057C67.92,149.224 67.814,148.507 67.824,147.907C67.847,146.844 67.673,146.027 67.778,144.974C68.219,140.584 70.126,137.091 74.044,134.911C75.983,133.831 78.054,133.153 80.257,132.88C81.396,132.738 82.559,132.972 83.863,132.952C84.087,132.949 84.314,132.975 84.531,133.034C89.325,134.315 92.298,138.286 92.236,143.265C92.203,145.803 91.301,148.154 89.533,150.317C88.281,151.845 87.096,153.238 85.977,154.492C85.604,154.911 85.354,155.335 85.226,155.767C85.094,156.224 85.318,156.708 85.753,156.906C86.177,157.1 86.678,157.258 87.251,157.38C90.073,157.969 92.825,158.724 95.308,160.083C98.248,161.69 100.869,163.659 103.164,165.994C103.707,166.543 104.903,167.936 106.746,170.172C108.228,171.966 109.12,173.955 109.42,176.135C109.545,177.034 109.301,177.929 108.689,178.828C108.643,178.897 108.574,178.953 108.491,178.986C107.988,179.194 107.652,179.5 107.481,179.905C105.146,180.448 102.779,180.326 100.385,179.539C100.336,179.516 100.292,179.503 100.257,179.503C97.409,178.689 95.566,178.205 94.725,178.054C93.3,177.798 91.798,177.814 90.214,178.101C88.555,178.4 87.172,178.973 86.065,179.813C83.988,181.39 82.888,183.649 82.766,186.582C82.509,185.132 81.056,184.316 80.407,184.431L76.956,185.137L76.296,184.455C76.267,184.422 76.23,184.396 76.191,184.38C74.76,183.767 74.251,184.843 73.687,185.806L65.305,187.52C64.652,187.656 64.215,188.24 64.076,188.926C64.005,189.181 64.002,189.485 64.067,189.839C65.338,196.816 66.55,202.509 67.706,206.918C67.715,206.949 67.934,207.736 68.07,208.223C68.16,208.548 67.469,208.752 67.469,208.752L65.865,209.275C65.826,209.288 65.786,209.295 65.747,209.298L63.859,209.077Z" style="fill:white;fill-opacity:0.15;"/>
</svg>
