<?xml version="1.0" encoding="UTF-8" standalone="no"?>
<!DOCTYPE svg PUBLIC "-//W3C//DTD SVG 1.1//EN" "http://www.w3.org/Graphics/SVG/1.1/DTD/svg11.dtd">
<svg width="100%" height="100%" viewBox="0 0 300 300" version="1.1" xmlns="http://www.w3.org/2000/svg" xmlns:xlink="http://www.w3.org/1999/xlink" xml:space="preserve" xmlns:serif="http://www.serif.com/" style="fill-rule:evenodd;clip-rule:evenodd;stroke-linejoin:round;stroke-miterlimit:2;">
    <path d="M236.511,120.594C234.066,120.311 232.076,119.098 230.539,116.949C229.059,114.878 227.898,112.328 227.056,109.301C226.191,106.199 225.678,103.166 225.518,100.2C225.375,97.609 225.473,95.437 225.808,93.691C226.068,92.329 226.442,91.217 226.933,90.352C227.437,89.458 227.97,88.453 228.679,87.65C231.15,84.844 234.183,83.511 237.695,82.288C239.057,81.813 240.361,81.543 241.6,81.482C242.91,81.413 243.73,81.348 244.061,81.283C245.385,81.02 246.497,80.353 247.397,79.277C250.054,76.101 247.007,72.495 246.113,69.429C245.213,66.343 246.796,64.259 247.449,63.527C248.721,62.1 250.398,61.189 252.479,60.793C256.176,60.087 260.247,60.464 263.274,62.675C264.129,63.299 264.708,64.207 265.007,65.4C265.037,65.523 265.046,65.654 265.037,65.78L263.944,75.684C263.944,75.694 263.944,75.704 263.947,75.714C264.36,77.492 265.18,78.981 266.399,80.175C267.287,81.043 268.912,82.431 271.276,84.34C272.889,85.644 274.007,87.435 274.944,89.51C276.241,92.39 276.758,95.45 276.875,98.643C276.927,100.025 276.891,102.168 276.765,105.065C276.729,105.858 276.638,106.508 276.488,107.012C276.205,107.965 275.88,108.924 275.519,109.89C275.749,108.877 276.421,105.679 274.446,105.115C274.411,105.103 274.375,105.094 274.339,105.087C273.233,104.836 272.808,105.052 272.219,104.105C272.177,104.04 272.147,103.969 272.128,103.894C270.824,98.838 269.12,94.296 266.971,90.274C266.045,88.537 264.799,89.887 263.606,90.807C261.216,92.65 259.236,94.081 257.672,95.105C255.689,96.403 253.497,97.508 251.101,98.419C248.695,98.978 246.341,99.287 244.035,99.342C242.276,99.384 241.207,99.426 240.826,99.462C239.129,99.625 237.666,99.675 236.7,100.145C236.593,100.197 236.528,100.311 236.537,100.428C236.698,102.363 236.655,104.466 236.407,106.739C236.268,108.017 235.797,109.594 235.702,111.077C235.49,114.37 235.757,117.544 236.511,120.594Z" style="fill:white;fill-opacity:0.3;"/>
    <path d="M47.644,120.284C45.572,120.646 43.297,120.097 42.893,117.716C42.801,117.175 42.961,116.25 42.548,116.315C39.444,116.804 34.732,117.135 35.145,113.262C35.186,112.874 34.667,112.663 34.316,112.826L33.886,113.021C31.172,115.267 22.655,108.056 27.894,103.637C28.067,103.492 28.024,103.211 27.819,103.114C23.878,101.684 24.057,93.224 29.991,91.974C21.878,84.363 25.031,74.565 37.109,77.703C38.099,77.961 37.973,76.619 37.668,75.779C35.957,71.074 41.695,62.391 50.531,67.159C51.179,67.509 52.153,67.399 52.96,66.304C57.949,59.528 63.271,64.78 67.189,66.304C70.345,67.531 73.428,63.21 76.594,69.214C77.863,71.619 79.513,72.592 81.204,72.724C83.622,72.912 87.799,70.739 88.505,70.557C89.278,70.358 92.085,71.687 91.339,76.724C91.081,78.462 85.336,81.186 85.336,82.224C85.336,88.515 80.512,85.977 79.352,88.394C77.784,88.781 76.474,88.719 75.417,88.212C74.462,87.754 73.506,87.318 72.546,86.912C71.786,86.505 71.028,86.095 70.277,85.686C67.549,84.199 64.486,83.635 61.631,84.984C59.29,86.089 58.802,88.671 59.105,91.022C59.316,92.657 59.725,95.398 58.965,96.777C58.158,98.24 56.927,99.2 55.265,99.657C53.265,100.208 51.867,100.628 51.074,100.916C48.204,101.957 46.731,104.37 48.245,107.37C48.677,108.225 49.302,109.054 50.121,109.848C50.202,109.926 50.29,109.994 50.384,110.052C51.347,110.643 53.113,111.665 53.064,112.865C52.996,114.494 52.378,116.051 51.217,117.54C51.369,118.427 50.45,119.297 49.169,119.837C48.698,120.036 48.178,120.19 47.644,120.284Z" style="fill:white;fill-opacity:0.35;"/>
    <path d="M70.127,126.118C70.127,126.118 69.045,126.245 68.937,126.238C66.219,126.098 63.403,125.416 61.023,124.021C59.765,123.283 58.861,122.736 58.308,122.375C56.39,121.123 54.904,120.317 53.255,119.072L51.217,117.54C52.378,116.051 52.996,114.494 53.064,112.865C53.113,111.665 51.347,110.643 50.384,110.052C50.29,109.994 50.202,109.926 50.121,109.848C49.302,109.054 48.677,108.225 48.245,107.37C46.731,104.37 48.204,101.957 51.074,100.916C51.867,100.628 53.265,100.208 55.265,99.657C56.927,99.2 58.158,98.24 58.965,96.777C59.725,95.398 59.316,92.657 59.105,91.022C58.802,88.671 59.29,86.089 61.631,84.984C64.486,83.635 67.549,84.199 70.277,85.686C71.028,86.095 71.786,86.505 72.546,86.912C71.938,87.78 74.419,91.574 74.897,92.455C75.716,93.964 76.389,95.954 77.17,97.827C77.778,99.284 78.379,101.26 78.965,103.761C79.229,104.889 79.336,105.725 79.287,106.268C79.277,106.375 79.235,106.473 79.166,106.554C78.591,107.233 77.534,106.946 76.715,106.905C76.526,106.896 76.338,106.929 76.165,107.006C75.121,107.471 74.39,108.082 73.977,108.862C73.369,110.01 73.232,111.268 73.564,112.637C71.786,112.962 71.273,114.197 72.075,116.328C72.155,116.54 72.468,116.877 73.011,117.345C71.942,119.348 71.136,120.971 70.595,122.21C70.04,123.484 69.883,124.788 70.127,126.118ZM70.93,93.028C69.919,93.305 68.412,93.872 67.802,94.796C67.64,95.043 67.751,95.378 68.027,95.479C68.935,95.812 70.644,95.291 71.486,95.06C72.329,94.829 74.07,94.405 74.679,93.655C74.864,93.427 74.79,93.086 74.523,92.956C73.528,92.471 71.944,92.749 70.93,93.028ZM73.192,97.638C72.709,97.703 72.446,98.675 72.6,99.81C72.754,100.942 73.271,101.807 73.754,101.742C74.237,101.677 74.501,100.704 74.346,99.57C74.192,98.438 73.675,97.573 73.192,97.638Z" style="fill:white;fill-opacity:0.95;"/>
    <path d="M79.352,88.394C79.563,88.758 79.83,89.406 80.145,90.335C80.617,91.724 80.919,92.781 81.049,93.506C81.072,93.616 81.158,94.063 80.704,94.221C80.704,94.221 78.465,93.506 78.321,94.221C78.095,95.35 79.904,95.973 80.938,96.393C81.381,96.575 81.67,97.004 81.67,97.479C81.67,97.479 84.612,115.177 79.479,123.546C78.726,124.772 77.459,125.464 75.993,125.845C74.767,126.163 72.813,126.254 70.127,126.118C69.883,124.788 70.04,123.484 70.595,122.21C71.136,120.971 71.942,119.348 73.011,117.345C74.787,118.978 76.845,119.089 79.066,118.74C80.096,118.578 80.642,117.937 80.704,116.822C80.752,115.967 80.493,115.418 79.921,115.177C79.234,114.888 78.455,114.444 77.586,113.857C76.27,112.967 75.092,112.767 73.564,112.637C73.232,111.268 73.369,110.01 73.977,108.862C74.39,108.082 75.121,107.471 76.165,107.006C76.338,106.929 76.526,106.896 76.715,106.905C77.534,106.946 78.591,107.233 79.166,106.554C79.235,106.473 79.277,106.375 79.287,106.268C79.336,105.725 79.229,104.889 78.965,103.761C78.379,101.26 77.778,99.284 77.17,97.827C76.389,95.954 75.716,93.964 74.897,92.455C74.419,91.574 71.938,87.78 72.546,86.912C73.506,87.318 74.462,87.754 75.417,88.212C76.474,88.719 77.784,88.781 79.352,88.394ZM80.63,98.112C80.285,98.162 80.1,98.884 80.219,99.726C80.337,100.568 80.714,101.212 81.059,101.164C81.403,101.114 81.589,100.392 81.469,99.55C81.351,98.708 80.974,98.064 80.63,98.112Z" style="fill:white;fill-opacity:0.75;"/>
    <path d="M275.519,109.89C275.23,111.064 274.693,112.114 273.91,113.04C273.864,113.096 273.812,113.141 273.751,113.18L272.167,114.221C271.926,114.377 271.751,114.617 271.673,114.894C270.967,117.358 269.93,119.667 268.561,121.819C267.83,122.97 267.127,123.816 266.454,124.356C265.554,125.081 264.679,125.757 263.83,126.381C261.535,128.075 261.19,131.18 261.665,134.003C260.046,136.113 257.925,137.392 255.308,137.839C254.967,137.898 254.502,137.94 253.913,137.969C252.821,138.024 251.683,138.189 250.639,137.982C249.212,137.7 247.784,137.488 246.363,137.335L246.845,135.915C247.745,135.137 248.539,134.052 249.439,132.803C251.854,129.451 253.091,125.933 253.716,122.956L253.803,122.944C255.155,122.792 256.316,122.271 257.282,121.384C258.013,120.714 259.093,119.121 257.438,118.799C257.357,118.783 257.275,118.786 257.197,118.812L254.294,119.696L254.207,119.712C254.403,117.632 254.316,116.152 254.3,115.713C254.255,114.452 254.046,112.93 252.385,113.151C251.829,113.225 249.581,113.97 249.511,112.618C249.418,110.826 249.437,109.018 249.569,107.194C249.635,106.29 249.874,104.828 250.285,102.802C250.575,101.368 250.847,99.905 251.101,98.419C253.497,97.508 255.689,96.403 257.672,95.105C259.236,94.081 261.216,92.65 263.606,90.807C264.799,89.887 266.045,88.537 266.971,90.274C269.12,94.296 270.824,98.838 272.128,103.894C272.147,103.969 272.177,104.04 272.219,104.105C272.808,105.052 273.233,104.836 274.339,105.087C274.375,105.094 274.411,105.103 274.446,105.115C276.421,105.679 275.749,108.877 275.519,109.89ZM262.865,101.231C262.952,101.251 263.043,101.205 263.076,101.121C263.108,101.033 263.073,100.938 262.995,100.893C260.676,99.586 256.908,98.617 254.404,100.002C254.105,100.168 254.16,100.613 254.492,100.704C254.856,100.802 255.311,100.825 255.854,100.773C258.228,100.542 260.566,100.695 262.865,101.231ZM261.733,105.084C261.255,105.167 260.501,105.307 259.47,105.513C257.808,105.846 256.127,105.95 254.424,105.803C254.388,105.8 254.354,105.826 254.346,105.861C254.338,105.897 254.356,105.932 254.391,105.946C256.678,106.8 258.884,106.802 261.034,105.9C261.392,105.75 261.661,105.532 261.84,105.243C261.889,105.165 261.824,105.068 261.733,105.084Z" style="fill:white;fill-opacity:0.75;"/>
    <path d="M70.93,93.028C69.919,93.305 68.412,93.872 67.802,94.796C67.64,95.043 67.751,95.378 68.027,95.479C68.935,95.812 70.644,95.291 71.486,95.06C72.329,94.829 74.07,94.405 74.679,93.655C74.864,93.427 74.79,93.086 74.523,92.956C73.528,92.471 71.944,92.749 70.93,93.028Z" style="fill:white;fill-opacity:0.15;"/>
    <path d="M73.192,97.638C72.709,97.703 72.446,98.675 72.6,99.81C72.754,100.942 73.271,101.807 73.754,101.742C74.237,101.677 74.501,100.704 74.346,99.57C74.192,98.438 73.675,97.573 73.192,97.638Z" style="fill:white;fill-opacity:0.15;"/>
    <path d="M80.63,98.112C80.285,98.162 80.1,98.884 80.219,99.726C80.337,100.568 80.714,101.212 81.059,101.164C81.403,101.114 81.589,100.392 81.469,99.55C81.351,98.708 80.974,98.064 80.63,98.112Z" style="fill:white;fill-opacity:0.15;"/>
    <path d="M246.845,135.915C247.053,134.09 246.76,132.377 245.967,130.774C245.177,129.181 244.308,127.984 243.359,127.184C243.284,127.123 243.209,127.067 243.128,127.019C242.179,126.45 241.408,125.955 240.82,125.536C238.979,124.232 237.542,122.584 236.511,120.594C235.757,117.544 235.49,114.37 235.702,111.077C235.797,109.594 236.268,108.017 236.407,106.739C236.655,104.466 236.698,102.363 236.537,100.428C236.528,100.311 236.593,100.197 236.7,100.145C237.666,99.675 239.129,99.625 240.826,99.462C241.207,99.426 242.276,99.384 244.035,99.342C246.341,99.287 248.695,98.978 251.101,98.419C250.847,99.905 250.575,101.368 250.285,102.802C249.874,104.828 249.635,106.29 249.569,107.194C249.437,109.018 249.418,110.826 249.511,112.618C249.581,113.97 251.829,113.225 252.385,113.151C254.046,112.93 254.255,114.452 254.3,115.713C254.316,116.152 254.403,117.632 254.207,119.712C253.915,119.765 253.622,119.811 253.328,119.851C251.936,120.04 250.531,120.085 249.108,119.982C248.952,119.973 248.769,120.083 248.565,120.32C248.266,120.769 248.301,121.189 248.672,121.579C249.573,122.532 250.795,123.051 252.342,123.138L252.372,123.14L253.716,122.956C253.091,125.933 251.854,129.451 249.439,132.803C248.539,134.052 247.745,135.137 246.845,135.915ZM239.942,102.558C241.899,102.099 243.889,101.966 245.908,102.161C246.37,102.203 246.757,102.184 247.069,102.103C247.349,102.024 247.397,101.644 247.141,101.504C245.011,100.327 241.805,101.156 239.831,102.272C239.763,102.307 239.734,102.392 239.763,102.463C239.792,102.535 239.867,102.574 239.942,102.558ZM244.094,106.57C244.949,106.607 246.766,106.585 247.326,105.871C247.392,105.787 247.322,105.665 247.219,105.676C246.219,105.785 245.19,105.835 244.13,105.79C243.066,105.744 242.045,105.618 241.06,105.406C240.956,105.384 240.878,105.5 240.937,105.588C241.439,106.345 243.239,106.533 244.094,106.57Z" style="fill:white;fill-opacity:0.6;"/>
    <path d="M262.865,101.231C262.952,101.251 263.043,101.205 263.076,101.121C263.108,101.033 263.073,100.938 262.995,100.893C260.676,99.586 256.908,98.617 254.404,100.002C254.105,100.168 254.16,100.613 254.492,100.704C254.856,100.802 255.311,100.825 255.854,100.773C258.228,100.542 260.566,100.695 262.865,101.231Z" style="fill:white;fill-opacity:0.15;"/>
    <path d="M239.942,102.558C241.899,102.099 243.889,101.966 245.908,102.161C246.37,102.203 246.757,102.184 247.069,102.103C247.349,102.024 247.397,101.644 247.141,101.504C245.011,100.327 241.805,101.156 239.831,102.272C239.763,102.307 239.734,102.392 239.763,102.463C239.792,102.535 239.867,102.574 239.942,102.558Z" style="fill:white;fill-opacity:0.15;"/>
    <path d="M261.733,105.084C261.255,105.167 260.501,105.307 259.47,105.513C257.808,105.846 256.127,105.95 254.424,105.803C254.388,105.8 254.354,105.826 254.346,105.861C254.338,105.897 254.356,105.932 254.391,105.946C256.678,106.8 258.884,106.802 261.034,105.9C261.392,105.75 261.661,105.532 261.84,105.243C261.889,105.165 261.824,105.068 261.733,105.084Z" style="fill:white;fill-opacity:0.15;"/>
    <path d="M244.094,106.57C244.949,106.607 246.766,106.585 247.326,105.871C247.392,105.787 247.322,105.665 247.219,105.676C246.219,105.785 245.19,105.835 244.13,105.79C243.066,105.744 242.045,105.618 241.06,105.406C240.956,105.384 240.878,105.5 240.937,105.588C241.439,106.345 243.239,106.533 244.094,106.57Z" style="fill:white;fill-opacity:0.15;"/>
    <path d="M73.011,117.345C74.787,118.978 76.845,119.089 79.066,118.74C80.096,118.578 80.642,117.937 80.704,116.822C80.752,115.967 80.493,115.418 79.921,115.177C79.234,114.888 78.455,114.444 77.586,113.857C76.27,112.967 75.092,112.767 73.564,112.637C71.786,112.962 71.273,114.197 72.075,116.328C72.155,116.54 72.468,116.877 73.011,117.345Z" style="fill:white;fill-opacity:0.15;"/>
    <path d="M68.937,126.238C69.045,126.245 68.911,127.9 68.378,128.943C67.903,129.877 67.705,130.842 67.783,131.834L67.783,136.08C67.783,136.269 67.659,136.432 67.481,136.487L64.408,137.413C64.063,135.492 63.532,133.964 62.818,132.835C59.499,127.591 54.954,123.255 49.169,119.837C50.45,119.297 51.369,118.427 51.217,117.54L53.255,119.072C54.904,120.317 56.39,121.123 58.308,122.375C58.861,122.736 59.765,123.283 61.023,124.021C63.403,125.416 66.219,126.098 68.937,126.238Z" style="fill:white;fill-opacity:0.75;"/>
    <path d="M252.342,123.138C250.795,123.051 249.573,122.532 248.672,121.579C248.301,121.189 248.266,120.769 248.565,120.32C248.769,120.083 248.952,119.973 249.108,119.982C250.531,120.085 251.936,120.04 253.328,119.851C253.622,119.811 253.915,119.765 254.207,119.712L254.294,119.696L257.197,118.812C257.275,118.786 257.357,118.783 257.438,118.799C259.093,119.121 258.013,120.714 257.282,121.384C256.316,122.271 255.155,122.792 253.803,122.944L252.372,123.14L252.342,123.138Z" style="fill:white;fill-opacity:0.15;"/>
    <path d="M47.975,129.142C48.502,128.326 48.814,127.36 48.915,126.245C48.957,125.796 48.928,125.224 48.833,124.531C48.62,122.96 48.47,121.813 47.644,120.284C48.178,120.19 48.698,120.036 49.169,119.837C54.954,123.255 59.499,127.591 62.818,132.835C63.532,133.964 64.063,135.492 64.408,137.413C62.19,137.667 47.91,129.73 47.975,129.142Z" style="fill:white;fill-opacity:0.95;"/>
    <path d="M186.741,160.756L173.165,165.061C163.719,168.096 154.257,171.07 144.864,174.051C142.761,174.718 140.662,175.385 138.567,176.054C138.504,176.074 138.43,176.09 138.349,176.102L132.523,177.95L129.024,176.955C108.836,171.671 88.648,166.394 68.459,161.123C68.163,161.048 67.919,161.002 67.724,160.98C67.643,160.971 67.578,160.938 67.529,160.883C67.4,160.736 67.288,160.709 67.201,160.808C67.181,160.83 67.168,160.86 67.168,160.889L67.168,171.167C67.168,171.385 67.315,171.577 67.526,171.632L78.308,174.444L78.304,174.465C77.985,176.127 77.677,177.861 77.376,179.63C76.012,187.657 74.793,196.419 73.284,202.646C72.071,207.651 70.671,211.019 68.856,211.053C66.671,211.771 64.213,212.242 61.485,212.461C53.984,213.061 46.46,212.767 39.401,210.968C35.32,209.928 31.01,208.157 28.291,207.024C27.072,206.516 25.741,205.831 24.301,204.966C22.711,203.883 21.501,202.446 20.672,200.661C19.98,199.169 19.771,197.549 20.321,195.995C20.464,195.592 20.594,195.225 20.711,194.89C21.437,193.56 22.165,192.259 22.896,190.991C23.826,189.375 24.493,188.081 24.899,187.102C27.644,180.518 29.299,173.365 29.744,166.43C29.764,166.137 29.747,165.922 29.695,165.786C29.604,165.542 29.276,165.493 29.123,165.705C28.037,167.184 26.805,168.228 25.429,168.829C25.189,168.481 24.869,168.151 24.47,167.834C23.955,167.426 23.605,167.129 23.413,166.947C21.609,165.233 20.491,164.101 20.055,163.555C18.706,161.867 17.424,160.075 16.221,158.171C15.612,157.206 14.97,155.959 14.293,154.432C13.738,153.179 13.165,151.896 12.576,150.579C12.664,150.12 12.56,149.616 12.271,149.067C11.936,148.433 11.679,147.743 11.497,147.005C11.331,146.326 11.536,145.799 12.108,145.428C12.95,144.882 13.49,144.524 13.734,144.359C13.955,144.209 14.147,144.02 14.303,143.806C16.283,141.104 18.396,138.119 20.643,134.845C21.385,133.772 22.62,132.273 23.384,131.418C25.251,129.327 28.281,127.35 31.168,127.11C33.259,126.937 35.548,127.054 38.035,127.467C41.257,128.004 44.571,128.56 47.975,129.142C47.91,129.73 62.19,137.667 64.408,137.413L67.481,136.487C67.659,136.432 67.783,136.269 67.783,136.08L67.783,131.834C69.019,131.938 70.238,132.117 71.441,132.367C72.842,132.66 73.84,132.809 75.372,133.135C76.643,133.401 77.915,134.156 78.952,134.734C79.358,134.962 79.999,135.596 80.873,136.633C80.935,136.708 80.987,136.789 81.029,136.877C81.029,136.877 87.367,153.391 88.014,154.22C88.079,154.305 88.189,154.341 88.29,154.311L92.982,152.955L131.541,141.588C131.63,141.58 131.71,141.575 131.782,141.573C131.946,141.567 132.068,141.575 132.149,141.595C153.355,146.976 172.019,151.726 188.139,155.849C188.204,155.866 188.269,155.814 188.266,155.745C188.266,155.745 186.15,142.346 187.219,138.6C189.018,132.3 193.499,130.396 196.862,134.021C199.13,136.466 197.937,141.588 200.723,147.568C200.84,148.046 201.438,148.212 201.786,147.86C202.176,147.467 202.693,146.735 203.34,145.669C203.876,144.781 204.257,143.773 204.618,143.022C204.871,142.499 205.138,142.157 205.414,141.992C206.162,141.549 207.603,141.084 207.869,142.346C208.633,145.932 208.305,149.272 206.884,152.367C205.782,154.767 204.267,156.854 202.332,158.626C202.27,158.681 202.257,158.776 202.303,158.847C203.568,160.866 205.021,162.801 206.663,164.648C207.85,165.981 208.715,166.849 209.258,167.249C213.02,170.016 216.73,172.516 220.394,174.75C220.485,174.809 220.609,174.75 220.622,174.64C220.748,173.596 220.852,172.351 220.937,170.9C221.213,166.156 221.558,161.435 221.968,156.734C222.098,155.238 222.472,153.632 223.086,151.918C224.088,153.56 224.569,155.336 224.54,157.247C224.522,158.408 224.434,160.346 224.27,163.061C224.125,165.464 224.209,168.205 224.52,171.284C224.889,174.945 226.133,178.2 228.253,181.048C228.357,181.188 228.441,181.338 228.51,181.494C228.841,182.251 229.124,183.077 229.358,183.971C230.257,187.399 231.01,190.786 231.615,194.139C231.029,195.748 229.862,196.528 228.116,196.473C226.598,196.424 225.349,196.252 224.377,195.956C217.36,193.813 210.922,188.842 206.692,183.077C205.408,181.325 204.234,179.761 203.174,178.382C201.909,176.74 200.485,174.532 198.898,171.759C198.31,170.735 197.256,169.297 195.735,167.447C195.64,167.06 195.595,166.804 195.595,166.677C195.605,163.822 195.592,160.967 195.575,158.112C195.575,158.034 195.501,157.979 195.426,158.002L188.006,160.372C187.593,160.496 187.174,160.622 186.741,160.756ZM132.471,177.299C132.825,177.293 133.988,176.828 134.932,176.503C134.968,176.49 134.991,176.454 134.984,176.415C134.978,176.376 134.945,176.349 134.906,176.35C134.249,176.361 133.433,176.392 132.455,176.408C131.479,176.425 130.66,176.433 130.006,176.431C129.967,176.431 129.933,176.46 129.928,176.499C129.923,176.538 129.948,176.574 129.984,176.584C130.945,176.853 132.117,177.306 132.471,177.299ZM173.68,164.326L175.621,163.754L187.466,159.969L193.722,157.986C193.855,157.943 193.849,157.751 193.712,157.716L131.749,142.005L131.46,142.105L93.235,153.385L69.266,160.512C69.188,160.535 69.191,160.645 69.269,160.668L86.859,165.331L91.272,166.465C91.463,166.049 91.53,165.392 91.457,164.495C91.43,164.16 91.519,163.916 91.727,163.76C91.938,163.009 92.384,162.313 93.06,161.669C94.032,160.743 95.027,160.034 96.041,159.543C95.268,160.775 94.377,161.676 94.975,163.263C95.609,164.944 97.661,166.185 99.296,166.908C101.163,167.733 102.98,168.378 104.752,168.842C107.818,169.646 111.196,170.264 114.88,170.692C117.277,170.971 118.506,171.111 118.571,171.115C120.175,171.209 121.348,171.31 122.099,171.372C123.468,171.485 124.459,171.541 125.08,171.534C126.397,171.521 127.759,171.673 129.054,171.612C131.847,171.482 134.383,171.616 137.16,171.469C142.619,171.181 147.951,170.566 153.15,169.632C156.255,169.075 159.432,168.22 162.68,167.067C164.121,166.556 165.555,165.881 166.982,165.041C168.494,164.151 169.976,162.853 170.107,160.974C170.113,160.883 170.094,160.788 170.055,160.704C169.852,160.27 169.847,159.852 170.045,159.445C170.267,159.471 170.495,159.579 170.725,159.748C172.183,160.822 173.68,164.326 173.68,164.326Z" style="fill:white;fill-opacity:0.85;"/>
    <path d="M280.736,174.751C279.955,174.902 279.142,175.035 278.299,175.147C277.825,175.17 277.382,174.903 277.184,174.47L275.994,171.882C275.926,171.736 275.718,171.729 275.643,171.873C274.674,173.671 273.728,175.667 272.804,177.855C272.349,178.931 272.047,179.995 271.897,181.045C271.344,184.93 271.608,188.592 272.115,192.471C269.335,192.701 266.565,192.793 263.808,192.734C263.086,192.719 262.413,192.588 261.792,192.341C257.821,190.761 255.138,189.735 253.744,189.258C253.357,189.126 252.944,189.034 252.512,188.985C252.255,188.956 252.032,189.151 252.027,189.408C252.02,189.811 252.151,190.204 252.424,190.591C253.66,192.343 254.419,193.434 254.703,193.856C254.846,194.067 254.71,194.354 254.453,194.376C252.584,194.538 250.772,194.468 249.013,194.168C247.394,193.892 245.834,193.565 244.328,193.202C244.26,193.186 243.769,193.193 242.855,193.215C242.712,193.219 242.579,193.281 242.481,193.381C241.538,194.35 241.253,196.096 241.246,197.488C241.24,198.58 241.475,199.615 241.954,200.59C243.352,203.43 245.716,205.027 249.043,205.389C254.427,205.973 259.737,204.625 264.523,202.43C264.728,202.336 264.946,202.284 265.17,202.28C267.14,202.248 268.314,202.261 268.694,202.326C270.84,202.691 272.977,203.002 275.103,203.262C275.763,205.168 276.436,207.707 275.965,209.638C275.864,210.048 275.597,210.477 275.165,210.923C274.076,211.95 272.911,212.801 271.673,213.475C268.313,215.303 264.676,216.786 260.758,217.913C256.694,219.082 252.449,219.62 248.275,218.889C247.465,218.747 245.554,218.394 242.54,217.839C240.049,217.38 237.335,215.935 234.876,214.896C234.844,214.882 234.814,214.867 234.785,214.844L232.587,213.166C231.719,212.266 231.358,211.163 231.504,209.866C231.69,208.208 232.093,206.306 232.089,204.504C232.083,201.116 231.924,197.66 231.615,194.139C231.01,190.786 230.257,187.399 229.358,183.971C229.124,183.077 228.841,182.251 228.51,181.494C228.441,181.338 228.357,181.188 228.253,181.048C226.133,178.2 224.889,174.945 224.52,171.284C224.209,168.205 224.125,165.464 224.27,163.061C224.434,160.346 224.522,158.408 224.54,157.247C224.569,155.336 224.088,153.56 223.086,151.918C223.184,151.525 223.323,151.037 223.502,150.462C223.629,150.042 223.74,149.551 223.834,148.995C224.146,147.113 224.933,145.51 226.191,144.193C227.124,143.221 228.464,142.47 230.217,141.94C232.392,141.283 234.323,140.919 236.011,140.85C238.303,140.756 240.628,140.815 242.985,141.029C243.375,141.065 243.762,140.954 244.078,140.717C245.151,139.904 245.911,138.776 246.363,137.335C247.784,137.488 249.212,137.7 250.639,137.982C251.683,138.189 252.821,138.024 253.913,137.969C254.502,137.94 254.967,137.898 255.308,137.839C257.925,137.392 260.046,136.113 261.665,134.003C263.372,136.659 265.017,138.922 266.604,140.788C266.874,141.107 267.264,141.39 267.781,141.637C267.94,141.712 268.112,141.751 268.288,141.754C272.834,141.793 277.256,141.904 281.606,142.85C283.424,143.243 285.631,145.116 286.688,146.69C289.045,150.205 291.016,153.791 292.599,157.452C293.832,160.307 294.472,161.754 294.514,161.796C294.531,161.812 295.217,163.315 296.569,166.3C296.608,166.391 296.591,166.489 296.54,166.573C296.356,166.873 296.031,167.281 295.558,167.76C293.511,169.832 288.708,173.215 280.736,174.751Z" style="fill:white;fill-opacity:0.95;"/>
    <path d="M176.059,163.614L172.933,162.781C172.362,161.7 171.537,160.346 170.725,159.748C170.495,159.579 170.267,159.471 170.045,159.445L167.011,159.628C166.94,159.631 166.911,159.724 166.969,159.767C167.812,160.391 168.117,161.12 167.912,161.917C167.343,162.616 166.774,163.065 166.198,163.269C164.307,163.941 162.421,163.898 160.538,163.152C160.258,163.041 159.92,162.716 159.526,162.173C159.273,161.556 159.361,160.981 159.79,160.45C160.128,160.031 160.911,159.607 161.37,159.429C161.454,159.396 161.435,159.267 161.344,159.263L159.63,159.185C159.608,159.185 159.585,159.182 159.562,159.176L157.689,158.675C157.668,158.661 157.59,158.64 157.462,158.613L132.138,151.708C132.1,151.696 132.071,151.688 132.052,151.684L132.052,142.081L193.712,157.716C193.849,157.751 193.855,157.943 193.722,157.986L187.466,159.969L176.059,163.614ZM165.125,161.78C165.145,161.848 165.22,161.923 165.353,162.001C165.454,162.063 165.584,161.998 165.584,161.884C165.581,161.777 165.535,161.682 165.447,161.598C165.301,161.465 165.07,161.595 165.125,161.78ZM163.357,160.278C163.305,160.333 163.353,160.463 163.466,160.564C163.578,160.665 163.708,160.704 163.759,160.648C163.812,160.593 163.763,160.463 163.651,160.363C163.539,160.262 163.409,160.223 163.357,160.278ZM162.256,162.2C162.206,162.297 162.303,162.447 162.47,162.532C162.638,162.619 162.814,162.609 162.864,162.511C162.914,162.414 162.817,162.264 162.65,162.179C162.482,162.092 162.306,162.102 162.256,162.2ZM164.257,160.661C164.374,160.704 164.475,160.697 164.56,160.642C164.605,160.613 164.602,160.544 164.556,160.518C164.443,160.453 164.345,160.44 164.261,160.483C164.183,160.522 164.179,160.632 164.257,160.661ZM161.477,160.583C161.429,160.772 161.672,161 162.028,161.092C162.381,161.185 162.71,161.11 162.759,160.922C162.807,160.733 162.563,160.505 162.208,160.413C161.854,160.32 161.526,160.395 161.477,160.583ZM160.529,161.638C160.482,161.786 160.593,161.956 160.782,162.017C160.97,162.076 161.162,162.008 161.21,161.857C161.256,161.708 161.146,161.539 160.956,161.478C160.768,161.419 160.577,161.487 160.529,161.638ZM166.469,160.785C166.394,160.834 166.413,160.996 166.51,161.149C166.608,161.302 166.751,161.387 166.825,161.337C166.901,161.289 166.881,161.126 166.784,160.973C166.686,160.821 166.543,160.736 166.469,160.785Z" style="fill:white;fill-opacity:0.4;"/>
    <path d="M172.933,162.781L176.059,163.614L175.621,163.754L173.68,164.326C173.68,164.326 173.387,163.639 172.933,162.781ZM91.485,165.044C91.495,165.666 91.422,166.139 91.272,166.465L88.937,165.865L91.485,165.044ZM132.052,151.684C132.071,151.688 132.1,151.696 132.138,151.708L157.462,158.613C157.023,158.518 155.998,158.347 154.674,158.138C154.513,158.092 154.36,158.068 154.215,158.067C154.166,158.066 154.118,158.068 154.07,158.073C153.202,158.164 152.585,158.2 152.217,158.168L148.569,158.359L147.473,158.288C147.421,158.285 147.366,158.291 147.317,158.307L146.79,158.493L142.495,158.392L142.482,158.392L133.066,158.841C132.864,158.85 132.669,158.785 132.513,158.655L131.06,157.436C131.018,157.4 130.956,157.403 130.917,157.446C130.545,157.851 130.172,158.119 129.798,158.246C127.525,159.016 125.662,158.685 124.212,157.247C124.869,157.618 125.503,157.898 126.111,158.083C127.425,158.483 128.711,158.421 129.964,157.885C130.062,157.843 130.153,157.784 130.231,157.712C130.543,157.426 130.789,157.019 130.975,156.496C131.037,156.324 131.04,156.142 130.985,155.97L130.67,154.994L130.504,153.723C130.491,153.622 130.455,153.525 130.4,153.44C130.179,153.092 129.883,152.783 129.515,152.52L132.052,151.684Z" style="fill:white;fill-opacity:0.25;"/>
    <path d="M88.937,165.865L86.859,165.331L69.269,160.668C69.191,160.645 69.188,160.535 69.266,160.512L93.235,153.385L131.46,142.105L131.749,142.005L132.052,142.081L132.052,151.684L129.515,152.52C122.655,152.682 115.856,153.474 109.122,154.903C106.075,155.55 103.091,156.41 100.174,157.478C98.689,158.022 97.313,158.711 96.041,159.543C95.027,160.034 94.032,160.743 93.06,161.669C92.384,162.313 91.938,163.009 91.727,163.76C91.519,163.916 91.43,164.16 91.457,164.495C91.473,164.689 91.482,164.873 91.485,165.044L88.937,165.865Z" style="fill:white;fill-opacity:0.65;"/>
    <path d="M40.458,225.733C40.305,225.71 40.194,225.707 40.123,225.723C40.038,225.746 40.002,225.844 40.051,225.915L40.767,226.995C40.776,227.008 40.786,227.021 40.796,227.03C42.47,228.812 43.982,231.515 44.489,234.06C45.728,240.273 35.315,241.343 33.643,236.499C33.595,236.36 33.464,236.271 33.356,236.174C32.612,235.491 31.718,234.788 30.674,234.07C29.188,233.046 27.832,233.15 26.128,233.098C24.724,233.052 22.913,232.73 22.259,231.277C21.391,229.346 20.975,227.313 21.007,225.184C21.014,224.761 20.864,224.351 20.588,224.033C16.371,219.178 12.554,213.986 9.139,208.458C6.841,204.738 4.864,200.869 3.202,196.847C1.603,192.978 0.582,189.122 0.139,185.282C-0.02,183.887 -0.043,181.949 0.071,179.471C0.081,179.244 0.123,179.016 0.195,178.798C2.903,170.471 6.262,162.479 10.271,154.822C10.82,153.775 11.851,152.074 12.576,150.579C13.165,151.896 13.738,153.179 14.293,154.432C14.97,155.959 15.612,157.206 16.221,158.171C17.424,160.075 18.706,161.867 20.055,163.555C20.491,164.101 21.609,165.233 23.413,166.947C23.605,167.129 23.955,167.426 24.47,167.834C24.869,168.151 25.189,168.481 25.429,168.829C24.425,170.166 23.417,171.531 22.412,172.929C20.757,175.222 19.326,177.585 17.545,179.881C17.291,180.209 17.106,180.58 16.989,180.993C16.95,181.139 16.953,181.295 16.998,181.442C17.132,181.868 17.405,182.381 17.538,182.98C18.4,186.917 19.46,190.887 20.711,194.89C20.594,195.225 20.464,195.592 20.321,195.995C19.771,197.549 19.98,199.169 20.672,200.661C21.501,202.446 22.711,203.883 24.301,204.966C26.177,209.798 27.578,213.095 28.508,214.86C29.415,216.58 30.28,218.331 31.093,220.118C31.204,220.362 31.425,220.534 31.688,220.583C34.134,221.039 36.231,221.533 37.977,222.052C39.3,222.446 40.223,223.005 40.747,223.733C41.296,224.498 41.199,225.164 40.458,225.733Z" style="fill:white;fill-opacity:0.95;"/>
    <path d="M157.689,158.675L159.562,159.176C159.585,159.182 159.608,159.185 159.63,159.185L161.344,159.263C161.435,159.267 161.454,159.396 161.37,159.429C160.911,159.607 160.128,160.031 159.79,160.45C159.361,160.981 159.273,161.556 159.526,162.173C159.582,162.781 159.848,163.204 160.326,163.441C162.326,164.434 164.394,164.437 166.53,163.448C167.203,163.136 167.665,162.625 167.912,161.917C168.117,161.12 167.812,160.391 166.969,159.767C166.911,159.724 166.94,159.631 167.011,159.628L170.045,159.445C169.847,159.852 169.852,160.27 170.055,160.704C170.094,160.788 170.113,160.883 170.107,160.974C169.976,162.853 168.494,164.151 166.982,165.041C165.555,165.881 164.121,166.556 162.68,167.067C159.432,168.22 156.255,169.075 153.15,169.632C147.951,170.566 142.619,171.181 137.16,171.469C134.383,171.616 131.847,171.482 129.054,171.612C127.759,171.673 126.397,171.521 125.08,171.534C124.459,171.541 123.468,171.485 122.099,171.372C121.348,171.31 120.175,171.209 118.571,171.115C118.506,171.111 117.277,170.971 114.88,170.692C111.196,170.264 107.818,169.646 104.752,168.842C102.98,168.378 101.163,167.733 99.296,166.908C97.661,166.185 95.609,164.944 94.975,163.263C94.377,161.676 95.268,160.775 96.041,159.543C97.313,158.711 98.689,158.022 100.174,157.478C103.091,156.41 106.075,155.55 109.122,154.903C115.856,153.474 122.655,152.682 129.515,152.52C129.883,152.783 130.179,153.092 130.4,153.44C130.455,153.525 130.491,153.622 130.504,153.723L130.67,154.994C129.906,154.77 129.057,154.378 128.348,154.318C127.045,154.207 125.16,154.486 124.342,155.553C123.961,156.05 123.916,156.613 124.212,157.247C125.662,158.685 127.525,159.016 129.798,158.246C130.172,158.119 130.545,157.851 130.917,157.446C130.956,157.403 131.018,157.4 131.06,157.436L132.513,158.655C132.669,158.785 132.864,158.85 133.066,158.841L142.482,158.392L142.495,158.392L146.79,158.493C146.748,158.964 146.845,159.303 147.08,159.51C147.385,159.781 147.714,159.781 148.065,159.504C148.365,159.267 148.533,158.886 148.569,158.359L152.217,158.168L151.846,159.257C151.986,159.588 152.269,159.737 152.695,159.706C153.28,159.662 154.064,159.536 155.043,159.332C154.903,158.906 154.994,158.6 155.313,158.415C155.086,158.288 154.874,158.196 154.674,158.138C155.998,158.347 157.023,158.518 157.462,158.613L157.689,158.675ZM131.95,159.513C131.203,159.761 130.819,160.639 131.096,161.477C131.372,162.313 132.204,162.791 132.953,162.545C133.7,162.297 134.084,161.419 133.807,160.581C133.531,159.745 132.699,159.267 131.95,159.513ZM155.635,164.173C155.342,164.225 155.153,164.56 155.216,164.922C155.28,165.285 155.569,165.539 155.862,165.487C156.155,165.435 156.343,165.1 156.28,164.738C156.216,164.375 155.927,164.121 155.635,164.173ZM142.18,161.133C142.271,160.531 142.195,160.029 141.946,159.634C141.843,159.471 141.647,159.39 141.458,159.436L139.38,159.943C139.338,159.953 139.298,159.975 139.263,160.005C138.935,160.286 138.805,160.557 138.854,160.795C138.935,161.312 139.214,161.523 139.686,161.432C140.665,161.243 141.497,161.143 142.18,161.133ZM125.38,168.243C125.314,168.862 125.838,169.424 126.548,169.499C127.259,169.574 127.886,169.135 127.954,168.518C128.02,167.899 127.496,167.337 126.787,167.262C126.075,167.187 125.448,167.626 125.38,168.243ZM118.018,164.622C117.885,164.293 117.67,164.129 117.368,164.128C117.296,164.127 117.225,164.15 117.163,164.189C116.314,164.728 116.035,165.613 116.327,166.843C116.396,167.138 116.557,167.451 116.815,167.779C116.903,167.89 117.017,167.981 117.147,168.039C117.495,168.195 117.773,168.395 117.982,168.637C118.05,168.716 118.148,168.758 118.252,168.751L120.727,168.634C120.792,168.631 120.851,168.606 120.899,168.566C121.889,167.738 122.211,166.742 121.92,165.646C121.61,164.479 120.837,164.241 119.592,164.934C119.524,164.918 119.41,164.963 119.257,165.07L118.896,165.087C118.75,165.093 118.646,165.233 118.681,165.376L119.263,167.769C119.286,167.857 119.345,167.929 119.426,167.968L119.598,168.052C119.683,168.091 119.667,168.218 119.572,168.234C118.9,168.347 118.405,168.351 118.086,168.254C117.862,168.185 117.82,167.886 118.018,167.759C118.603,167.388 118.519,166.865 118.373,166.065C118.304,165.692 118.323,165.343 118.431,165.022C118.486,164.859 118.347,164.726 118.018,164.622ZM113.339,163.285C113.339,162.924 113.047,162.632 112.686,162.632C112.325,162.632 112.032,162.924 112.032,163.285C112.032,163.646 112.325,163.939 112.686,163.939C113.047,163.939 113.339,163.646 113.339,163.285ZM101.257,162.941C101.195,162.827 101.052,162.781 100.935,162.837C100.756,162.924 100.61,162.921 100.493,162.83C100.454,162.801 100.431,162.759 100.421,162.713C100.333,162.274 100.203,161.962 100.031,161.777C99.849,161.582 99.55,161.562 99.342,161.728C98.2,162.648 98.048,163.695 98.88,164.875C98.961,164.989 99.153,165.057 99.456,165.087C99.56,165.096 99.654,165.139 99.729,165.21C99.999,165.474 100.249,165.633 100.473,165.688C100.577,165.714 100.688,165.714 100.789,165.685C101.605,165.467 102.031,164.95 102.066,164.134C102.073,163.991 101.998,163.854 101.868,163.786C101.715,163.705 101.51,163.422 101.257,162.941ZM112.442,164.609C111.772,164.888 111.499,165.757 111.828,166.546C112.159,167.337 112.969,167.75 113.639,167.47C114.308,167.19 114.581,166.322 114.252,165.532C113.921,164.742 113.112,164.329 112.442,164.609ZM122.577,155.996C122.577,155.644 122.294,155.362 121.943,155.362C121.592,155.362 121.309,155.644 121.309,155.996C121.309,156.347 121.592,156.63 121.943,156.63C122.294,156.63 122.577,156.347 122.577,155.996ZM110.122,160.755C110.117,160.631 110.097,160.508 110.06,160.389C109.655,159.094 107.467,158.626 105.167,159.342C102.866,160.057 101.332,161.689 101.734,162.982L101.747,163.023C101.755,163.113 101.771,163.202 101.796,163.29C102.169,164.594 104.348,165.117 106.659,164.457C108.97,163.796 110.544,162.201 110.171,160.897C110.158,160.849 110.141,160.801 110.122,160.755ZM155.586,162.609C155.843,162.525 156.259,162.508 156.828,162.56C156.886,162.567 156.942,162.583 156.994,162.609C157.419,162.833 157.836,162.762 158.249,162.395C158.333,162.32 158.366,162.206 158.336,162.099C158.096,161.182 157.335,161.188 156.408,161.009C155.225,160.782 154.968,161.299 155.176,162.372C155.212,162.557 155.404,162.671 155.586,162.609ZM143.614,166.846C144.306,166.283 144.439,165.441 143.971,164.57C143.428,163.559 142.163,162.652 140.661,162.196C139.175,161.745 137.677,161.8 136.734,162.346C135.996,162.772 135.674,163.458 135.852,164.232C135.963,164.71 136.259,165.204 136.714,165.662C138.53,167.488 142.073,168.094 143.614,166.846ZM132.773,164.898C132.777,164.758 132.731,164.615 132.63,164.469C132.543,164.342 132.406,164.261 132.253,164.248L130.644,164.102C130.491,164.085 130.342,164.164 130.266,164.3C130.074,164.646 130.075,164.983 130.279,165.311L130.276,165.47C130.273,165.594 130.413,165.665 130.51,165.591L130.696,165.441C130.744,165.405 130.816,165.389 130.917,165.392L132.276,165.454C132.562,165.467 132.806,165.314 132.858,165.093C132.864,165.067 132.835,165.002 132.773,164.898ZM149.382,168.172C149.476,167.916 149.407,167.603 149.183,167.223C149.157,167.178 149.115,167.138 149.066,167.116L146.803,166.033C146.712,165.991 146.608,165.987 146.514,166.026C146.087,166.206 145.799,166.755 145.639,167.662C146.462,167.916 147.217,168.188 147.902,168.481C148.319,168.66 148.618,168.749 148.797,168.751C149.17,168.756 149.366,168.563 149.382,168.172ZM137.703,168.543C137.173,167.798 136.24,167.502 134.906,167.646C134.23,167.718 134.002,168.667 134.461,169.047C134.461,169.083 134.464,169.112 134.471,169.141C134.49,169.232 134.575,169.292 134.666,169.284C135.131,169.245 135.901,169.233 136.981,169.265C137.433,169.278 137.673,169.037 137.703,168.543ZM102.009,159.696C101.982,159.241 101.507,158.899 100.953,158.933C100.398,158.967 99.969,159.364 99.997,159.819C100.025,160.275 100.499,160.616 101.054,160.582C101.608,160.548 102.037,160.151 102.009,159.696ZM116.299,155.387C115.771,155.547 115.489,156.161 115.671,156.762C115.853,157.361 116.428,157.719 116.955,157.56C117.482,157.4 117.765,156.786 117.582,156.185C117.4,155.586 116.825,155.228 116.299,155.387ZM109.19,166.049C109.103,165.464 108.991,165.094 108.859,164.937C108.689,164.736 108.429,164.633 108.166,164.664C106.835,164.819 106.046,165.253 105.793,165.942C105.802,166.332 105.861,166.557 105.968,166.615C106.192,166.736 106.427,166.773 106.677,166.725C107.525,166.563 108.361,166.339 109.19,166.049ZM149.135,163.103C148.514,163.074 148.2,163.292 148.192,163.75C148.178,164.528 148.641,165.139 149.587,165.584C149.739,165.705 150.062,165.83 150.559,165.965C150.927,166.064 151.237,166.018 151.499,165.822C151.599,165.746 151.723,165.711 151.85,165.724C152.819,165.824 152.822,164.791 153.264,164.368C153.485,164.157 153.69,163.935 153.879,163.711C153.95,163.627 153.992,163.523 154.005,163.415C154.122,162.485 153.833,161.747 153.134,161.204C152.146,160.434 150.744,160.034 150.445,161.822L150.396,162.105C150.383,162.251 150.341,162.362 150.269,162.43C150.162,162.515 150.1,162.599 150.081,162.684C149.85,162.817 149.619,162.889 149.392,162.902C149.304,163.003 149.219,163.068 149.135,163.103ZM157.51,164.052C157.081,164.482 157.137,165.227 157.628,165.717C158.122,166.208 158.866,166.257 159.293,165.829C159.722,165.399 159.666,164.654 159.175,164.164C158.681,163.672 157.936,163.624 157.51,164.052ZM115.469,158.392C115.297,157.894 114.906,157.492 114.298,157.189C113.889,156.985 113.532,157.044 113.235,157.374C113.183,157.432 113.141,157.504 113.118,157.582C113.008,157.956 112.859,158.263 112.673,158.493C112.615,158.565 112.536,158.62 112.448,158.646L111.746,158.88C111.353,159.013 111.207,159.491 111.457,159.819C111.942,160.456 112.515,160.884 113.183,161.091C113.323,161.134 113.43,161.068 113.502,160.896C114.048,160.87 114.347,160.779 114.672,160.291C114.874,159.988 115.139,159.652 115.466,159.283C115.704,159.014 115.706,158.717 115.469,158.392ZM127.034,159.468C126.953,159.306 126.828,159.147 126.657,159.003C126.603,158.957 126.534,158.928 126.459,158.922L125.649,158.847C125.471,158.831 125.292,158.867 125.136,158.948L124.895,159.078C124.424,159.374 124.075,159.761 123.851,160.239C123.783,160.385 123.766,160.668 123.803,161.087C123.812,161.195 123.675,161.247 123.607,161.162C123.096,160.519 121.62,160.805 120.892,160.87C120.792,160.879 120.697,160.914 120.613,160.974C120.249,161.232 120.164,161.549 120.343,161.917C121.006,162.154 121.738,162.208 122.541,162.079C122.704,162.053 122.923,162.124 123.208,162.284C123.33,162.353 123.423,162.363 123.484,162.313C123.546,162.262 123.598,162.173 123.637,162.047C123.653,161.952 123.702,161.891 123.777,161.861C123.832,161.839 123.899,161.859 123.933,161.91C124.633,162.981 125.731,161.952 126.277,163.09L126.348,163.237C126.413,163.572 126.57,163.874 126.81,164.154C126.876,164.231 126.973,164.274 127.077,164.271C127.698,164.253 128.156,164.03 128.449,163.591C129.192,162.481 129.171,161.403 128.384,160.356C128.28,159.793 127.831,159.497 127.034,159.468ZM121.088,157.973C120.935,157.221 120.574,156.836 120.011,156.818C119.914,156.815 119.82,156.836 119.735,156.874C118.649,157.357 117.96,157.937 117.69,158.655C117.94,159.224 118.317,159.358 118.825,159.059C119.699,158.542 120.454,158.181 121.088,157.973Z" style="fill:white;fill-opacity:0.95;"/>
    <path d="M130.67,154.994C129.906,154.77 129.057,154.378 128.348,154.318C127.045,154.207 125.16,154.486 124.342,155.553C123.961,156.05 123.916,156.613 124.212,157.247C124.869,157.618 125.503,157.898 126.111,158.083C127.425,158.483 128.711,158.421 129.964,157.885C130.062,157.843 130.153,157.784 130.231,157.712C130.543,157.426 130.789,157.019 130.975,156.496C131.037,156.324 131.04,156.142 130.985,155.97L130.67,154.994ZM125.044,156.431C125.015,156.555 125.136,156.695 125.315,156.737C125.493,156.779 125.666,156.714 125.695,156.588C125.724,156.464 125.604,156.324 125.425,156.282C125.246,156.239 125.074,156.305 125.044,156.431ZM129.031,156.877C129.161,157.023 129.398,156.893 129.337,156.711C129.304,156.617 129.203,156.513 129.031,156.399C128.959,156.353 128.868,156.418 128.888,156.5C128.93,156.688 128.976,156.815 129.031,156.877ZM128.481,155.84C128.559,155.843 128.592,155.791 128.576,155.687C128.566,155.618 128.501,155.57 128.433,155.579C128.117,155.622 127.828,155.521 127.571,155.28C127.529,155.238 127.46,155.241 127.418,155.287C127.386,155.326 127.369,155.362 127.369,155.397C127.369,155.453 127.392,155.514 127.441,155.576C127.568,155.739 127.916,155.827 128.481,155.84ZM126.527,157.15C126.683,157.254 126.797,157.273 126.869,157.212C126.969,157.124 126.937,156.958 126.813,156.932C126.7,156.909 126.605,156.922 126.531,156.974C126.449,157.036 126.446,157.095 126.527,157.15ZM125.877,155.537C125.835,155.677 126.043,155.862 126.342,155.949C126.641,156.038 126.914,155.996 126.956,155.856C126.999,155.716 126.791,155.531 126.492,155.444C126.192,155.355 125.919,155.397 125.877,155.537Z" style="fill:white;fill-opacity:0.5;"/>
    <path d="M116.299,155.387C115.771,155.547 115.489,156.161 115.671,156.762C115.853,157.361 116.428,157.719 116.955,157.56C117.482,157.4 117.765,156.786 117.582,156.185C117.4,155.586 116.825,155.228 116.299,155.387Z" style="fill:white;fill-opacity:0.65;"/>
    <path d="M128.481,155.84C128.559,155.843 128.592,155.791 128.576,155.687C128.566,155.618 128.501,155.57 128.433,155.579C128.117,155.622 127.828,155.521 127.571,155.28C127.529,155.238 127.46,155.241 127.418,155.287C127.386,155.326 127.369,155.362 127.369,155.397C127.369,155.453 127.392,155.514 127.441,155.576C127.568,155.739 127.916,155.827 128.481,155.84Z" style="fill:white;fill-opacity:0.75;"/>
    <path d="M122.577,155.996C122.577,155.644 122.294,155.362 121.943,155.362C121.592,155.362 121.309,155.644 121.309,155.996C121.309,156.347 121.592,156.63 121.943,156.63C122.294,156.63 122.577,156.347 122.577,155.996Z" style="fill:white;fill-opacity:0.5;"/>
    <path d="M125.877,155.537C125.835,155.677 126.043,155.862 126.342,155.949C126.641,156.038 126.914,155.996 126.956,155.856C126.999,155.716 126.791,155.531 126.492,155.444C126.192,155.355 125.919,155.397 125.877,155.537Z" style="fill:white;fill-opacity:0.75;"/>
    <path d="M125.044,156.431C125.015,156.555 125.136,156.695 125.315,156.737C125.493,156.779 125.666,156.714 125.695,156.588C125.724,156.464 125.604,156.324 125.425,156.282C125.246,156.239 125.074,156.305 125.044,156.431Z" style="fill:white;fill-opacity:0.75;"/>
    <path d="M129.031,156.877C129.161,157.023 129.398,156.893 129.337,156.711C129.304,156.617 129.203,156.513 129.031,156.399C128.959,156.353 128.868,156.418 128.888,156.5C128.93,156.688 128.976,156.815 129.031,156.877Z" style="fill:white;fill-opacity:0.75;"/>
    <path d="M121.088,157.973C120.935,157.221 120.574,156.836 120.011,156.818C119.914,156.815 119.82,156.836 119.735,156.874C118.649,157.357 117.96,157.937 117.69,158.655C118.142,158.928 118.473,158.99 118.685,158.837C119.462,158.275 120.262,157.989 121.088,157.973Z" style="fill:white;fill-opacity:0.7;"/>
    <path d="M126.527,157.15C126.683,157.254 126.797,157.273 126.869,157.212C126.969,157.124 126.937,156.958 126.813,156.932C126.7,156.909 126.605,156.922 126.531,156.974C126.449,157.036 126.446,157.095 126.527,157.15Z" style="fill:white;fill-opacity:0.75;"/>
    <path d="M115.469,158.392C115.297,157.894 114.906,157.492 114.298,157.189C113.889,156.985 113.532,157.044 113.235,157.374C113.183,157.432 113.141,157.504 113.118,157.582C113.008,157.956 112.859,158.263 112.673,158.493C112.615,158.565 112.536,158.62 112.448,158.646L111.746,158.88C111.353,159.013 111.207,159.491 111.457,159.819C111.942,160.456 112.515,160.884 113.183,161.091C113.323,161.134 113.43,161.068 113.502,160.896C113.408,160.925 113.368,160.882 113.391,160.769C113.407,160.694 113.463,160.639 113.538,160.619L114.116,160.476C114.207,160.457 114.285,160.395 114.334,160.314L115.469,158.392Z" style="fill:white;fill-opacity:0.75;"/>
    <path d="M117.69,158.655C117.94,159.224 118.317,159.358 118.825,159.059C119.699,158.542 120.454,158.181 121.088,157.973C120.262,157.989 119.462,158.275 118.685,158.837C118.473,158.99 118.142,158.928 117.69,158.655Z" style="fill:white;fill-opacity:0.6;"/>
    <path d="M173.165,165.061L186.741,160.756C187.174,160.622 187.593,160.496 188.006,160.372L195.426,158.002C195.501,157.979 195.575,158.034 195.575,158.112C195.592,160.967 195.605,163.822 195.595,166.677C195.595,166.804 195.64,167.06 195.735,167.447C195.748,167.555 195.725,167.652 195.666,167.74C195.624,167.808 195.54,167.86 195.419,167.899C187.252,170.491 178.947,173.193 170.51,176.005C169.704,176.275 168.874,176.551 168.026,176.831C161.259,179.062 154.691,181.266 148.224,183.373C143.038,185.064 137.813,186.758 132.546,188.455L132.523,177.95L138.349,176.102C138.43,176.09 138.504,176.074 138.567,176.054C140.662,175.385 142.761,174.718 144.864,174.051C154.257,171.07 163.719,168.096 173.165,165.061Z" style="fill:white;fill-opacity:0.65;"/>
    <path d="M154.215,158.067C154.36,158.068 154.513,158.092 154.674,158.138C154.874,158.196 155.086,158.288 155.313,158.415C154.994,158.6 154.903,158.906 155.043,159.332L151.846,159.257L152.217,158.168C152.585,158.2 153.202,158.164 154.07,158.073C154.118,158.068 154.166,158.066 154.215,158.067Z" style="fill:white;fill-opacity:0.7;"/>
    <path d="M146.79,158.493C146.748,158.964 146.845,159.303 147.08,159.51C147.385,159.781 147.714,159.781 148.065,159.504C148.365,159.267 148.533,158.886 148.569,158.359L147.473,158.288C147.421,158.285 147.366,158.291 147.317,158.307L146.79,158.493Z" style="fill:white;fill-opacity:0.65;"/>
    <path d="M113.502,160.896C114.048,160.87 114.347,160.779 114.672,160.291C114.874,159.988 115.139,159.652 115.466,159.283C115.704,159.014 115.706,158.717 115.469,158.392L114.334,160.314C114.285,160.395 114.207,160.457 114.116,160.476L113.538,160.619C113.463,160.639 113.407,160.694 113.391,160.769C113.368,160.882 113.408,160.925 113.502,160.896Z" style="fill:white;fill-opacity:0.6;"/>
    <path d="M127.034,159.468C126.953,159.306 126.828,159.147 126.657,159.003C126.603,158.957 126.534,158.928 126.459,158.922L125.649,158.847C125.471,158.831 125.292,158.867 125.136,158.948L124.895,159.078C124.424,159.374 124.075,159.761 123.851,160.239C123.783,160.385 123.766,160.668 123.803,161.087C123.812,161.195 123.675,161.247 123.607,161.162C123.096,160.519 121.62,160.805 120.892,160.87C120.792,160.879 120.697,160.914 120.613,160.974C120.249,161.232 120.164,161.549 120.343,161.917C121.517,161.76 122.616,161.803 123.637,162.047C123.653,161.952 123.702,161.891 123.777,161.861C123.832,161.839 123.899,161.859 123.933,161.91C124.633,162.981 125.731,161.952 126.277,163.09L128.345,162.167C128.491,162.102 128.654,162.219 128.641,162.378L128.602,162.785C128.582,162.986 128.488,163.175 128.338,163.311C127.537,164.039 126.872,164.014 126.348,163.237C126.413,163.572 126.57,163.874 126.81,164.154C126.876,164.231 126.973,164.274 127.077,164.271C127.698,164.253 128.156,164.03 128.449,163.591C129.192,162.481 129.171,161.403 128.384,160.356C127.935,160.418 127.554,160.583 127.233,160.84C127.142,160.913 127.087,161.019 127.074,161.133C127.016,161.631 126.878,162.033 126.661,162.339C126.55,162.495 126.345,162.541 126.179,162.45L126.153,162.434C126.004,162.349 125.965,162.154 126.072,162.021C126.619,161.341 126.94,160.489 127.034,159.468Z" style="fill:white;fill-opacity:0.7;"/>
    <path d="M102.009,159.696C101.982,159.241 101.507,158.899 100.953,158.933C100.398,158.967 99.969,159.364 99.997,159.819C100.025,160.275 100.499,160.616 101.054,160.582C101.608,160.548 102.037,160.151 102.009,159.696Z" style="fill:white;fill-opacity:0.65;"/>
    <path d="M110.06,160.389C109.655,159.094 107.467,158.626 105.167,159.342C102.866,160.057 101.332,161.689 101.734,162.982C102.138,164.277 104.326,164.745 106.627,164.029C108.927,163.315 110.462,161.682 110.06,160.389ZM105.354,160.577C105.429,160.716 105.504,160.803 105.572,160.834C105.703,160.893 105.821,160.724 105.728,160.609C105.709,160.586 105.617,160.537 105.454,160.466C105.386,160.437 105.318,160.512 105.354,160.577ZM105.276,162.479C105.071,162.45 104.925,162.458 104.84,162.499C104.698,162.566 104.733,162.776 104.892,162.801C105.064,162.828 105.211,162.782 105.337,162.664C105.403,162.603 105.367,162.492 105.276,162.479ZM108.725,160.661C108.787,160.658 108.823,160.648 108.826,160.635C108.93,160.414 108.764,160.157 108.511,160.157C108.433,160.157 108.394,160.177 108.391,160.216C108.387,160.47 108.543,160.674 108.725,160.661ZM106.459,160.7C106.521,160.59 106.375,160.479 106.277,160.564C106.228,160.606 106.235,160.652 106.297,160.697C106.375,160.756 106.43,160.756 106.459,160.7ZM104.876,161.272C104.872,161.058 104.56,160.889 104.176,160.892C103.793,160.896 103.481,161.074 103.484,161.287C103.487,161.5 103.799,161.669 104.184,161.666C104.567,161.663 104.879,161.484 104.876,161.272ZM102.984,162.454C102.967,162.557 103.087,162.661 103.253,162.688C103.419,162.713 103.565,162.651 103.581,162.55C103.598,162.447 103.478,162.342 103.312,162.316C103.146,162.29 103,162.352 102.984,162.454ZM107.323,161.241C107.259,161.338 107.324,161.497 107.474,161.595C107.623,161.692 107.796,161.695 107.859,161.597C107.922,161.5 107.857,161.341 107.708,161.243C107.558,161.146 107.386,161.143 107.323,161.241Z" style="fill:white;fill-opacity:0.5;"/>
    <path d="M110.122,160.755C110.141,160.801 110.158,160.849 110.171,160.897C110.544,162.201 108.97,163.796 106.659,164.457C104.348,165.117 102.169,164.594 101.796,163.29C101.771,163.202 101.755,163.113 101.747,163.023C102.184,164.287 104.351,164.738 106.627,164.029C108.715,163.381 110.172,161.976 110.122,160.755Z" style="fill:white;fill-opacity:0.35;"/>
    <path d="M151.846,159.257C151.986,159.588 152.269,159.737 152.695,159.706C153.28,159.662 154.064,159.536 155.043,159.332L151.846,159.257Z" style="fill:white;fill-opacity:0.6;"/>
    <path d="M128.384,160.356C128.28,159.793 127.831,159.497 127.034,159.468C126.94,160.489 126.619,161.341 126.072,162.021C125.965,162.154 126.004,162.349 126.153,162.434L126.179,162.45C126.345,162.541 126.55,162.495 126.661,162.339C126.878,162.033 127.016,161.631 127.074,161.133C127.087,161.019 127.142,160.913 127.233,160.84C127.554,160.583 127.935,160.418 128.384,160.356Z" style="fill:white;fill-opacity:0.85;"/>
    <path d="M131.95,159.513C131.203,159.761 130.819,160.639 131.096,161.477C131.372,162.313 132.204,162.791 132.953,162.545C133.7,162.297 134.084,161.419 133.807,160.581C133.531,159.745 132.699,159.267 131.95,159.513Z" style="fill:white;fill-opacity:0.65;"/>
    <path d="M142.18,161.133C142.271,160.531 142.195,160.029 141.946,159.634C141.843,159.471 141.647,159.39 141.458,159.436L139.38,159.943C139.338,159.953 139.298,159.975 139.263,160.005C138.935,160.286 138.805,160.557 138.854,160.795C139.403,161.097 139.982,161.137 140.593,160.918C141.175,160.711 141.705,160.782 142.18,161.133Z" style="fill:white;fill-opacity:0.7;"/>
    <path d="M108.725,160.661C108.787,160.658 108.823,160.648 108.826,160.635C108.93,160.414 108.764,160.157 108.511,160.157C108.433,160.157 108.394,160.177 108.391,160.216C108.387,160.47 108.543,160.674 108.725,160.661Z" style="fill:white;fill-opacity:0.75;"/>
    <path d="M163.357,160.278C163.305,160.333 163.353,160.463 163.466,160.564C163.578,160.665 163.708,160.704 163.759,160.648C163.812,160.593 163.763,160.463 163.651,160.363C163.539,160.262 163.409,160.223 163.357,160.278Z" style="fill:white;fill-opacity:0.75;"/>
    <path d="M161.477,160.583C161.429,160.772 161.672,161 162.028,161.092C162.381,161.185 162.71,161.11 162.759,160.922C162.807,160.733 162.563,160.505 162.208,160.413C161.854,160.32 161.526,160.395 161.477,160.583Z" style="fill:white;fill-opacity:0.75;"/>
    <path d="M105.354,160.577C105.429,160.716 105.504,160.803 105.572,160.834C105.703,160.893 105.821,160.724 105.728,160.609C105.709,160.586 105.617,160.537 105.454,160.466C105.386,160.437 105.318,160.512 105.354,160.577Z" style="fill:white;fill-opacity:0.75;"/>
    <path d="M106.459,160.7C106.521,160.59 106.375,160.479 106.277,160.564C106.228,160.606 106.235,160.652 106.297,160.697C106.375,160.756 106.43,160.756 106.459,160.7Z" style="fill:white;fill-opacity:0.75;"/>
    <path d="M153.134,161.204C152.146,160.434 150.744,160.034 150.445,161.822L153.134,161.204Z" style="fill:white;fill-opacity:0.75;"/>
    <path d="M164.257,160.661C164.374,160.704 164.475,160.697 164.56,160.642C164.605,160.613 164.602,160.544 164.556,160.518C164.443,160.453 164.345,160.44 164.261,160.483C164.183,160.522 164.179,160.632 164.257,160.661Z" style="fill:white;fill-opacity:0.75;"/>
    <path d="M132.546,188.455C131.434,188.045 130.335,187.704 129.245,187.428C124.131,186.137 119.023,184.836 113.915,183.526C113.788,183.493 113.658,183.477 113.528,183.474L112.767,183.464C112.624,183.249 112.468,183.122 112.299,183.08C107.342,181.865 102.396,180.615 97.469,179.27C96.884,179.11 96.12,179.026 95.456,178.814L86.641,176.561L78.308,174.444L67.526,171.632C67.315,171.577 67.168,171.385 67.168,171.167L67.168,160.889C67.168,160.86 67.181,160.83 67.201,160.808C67.288,160.709 67.4,160.736 67.529,160.883C67.578,160.938 67.643,160.971 67.724,160.98C67.919,161.002 68.163,161.048 68.459,161.123C88.648,166.394 108.836,171.671 129.024,176.955L132.523,177.95L132.546,188.455Z" style="fill:white;fill-opacity:0.4;"/>
    <path d="M138.854,160.795C138.935,161.312 139.214,161.523 139.686,161.432C140.665,161.243 141.497,161.143 142.18,161.133C141.705,160.782 141.175,160.711 140.593,160.918C139.982,161.137 139.403,161.097 138.854,160.795Z" style="fill:white;fill-opacity:0.6;"/>
    <path d="M166.469,160.785C166.394,160.834 166.413,160.996 166.51,161.149C166.608,161.302 166.751,161.387 166.825,161.337C166.901,161.289 166.881,161.126 166.784,160.973C166.686,160.821 166.543,160.736 166.469,160.785Z" style="fill:white;fill-opacity:0.75;"/>
    <path d="M104.876,161.272C104.872,161.058 104.56,160.889 104.176,160.892C103.793,160.896 103.481,161.074 103.484,161.287C103.487,161.5 103.799,161.669 104.184,161.666C104.567,161.663 104.879,161.484 104.876,161.272Z" style="fill:white;fill-opacity:0.75;"/>
    <path d="M155.586,162.609C155.843,162.525 156.259,162.508 156.828,162.56C156.886,162.567 156.942,162.583 156.994,162.609C157.419,162.833 157.836,162.762 158.249,162.395C158.333,162.32 158.366,162.206 158.336,162.099C158.096,161.182 157.335,161.188 156.408,161.009C155.225,160.782 154.968,161.299 155.176,162.372C155.212,162.557 155.404,162.671 155.586,162.609Z" style="fill:white;fill-opacity:0.7;"/>
    <path d="M107.323,161.241C107.259,161.338 107.324,161.497 107.474,161.595C107.623,161.692 107.796,161.695 107.859,161.597C107.922,161.5 107.857,161.341 107.708,161.243C107.558,161.146 107.386,161.143 107.323,161.241Z" style="fill:white;fill-opacity:0.75;"/>
    <path d="M149.587,165.584C149.739,165.705 150.062,165.83 150.559,165.965C150.927,166.064 151.237,166.018 151.499,165.822C151.599,165.746 151.723,165.711 151.85,165.724C152.819,165.824 152.822,164.791 153.264,164.368C153.485,164.157 153.69,163.935 153.879,163.711C153.95,163.627 153.992,163.523 154.005,163.415C154.122,162.485 153.833,161.747 153.134,161.204L150.445,161.822L150.396,162.105C151.359,162.375 152.294,162.372 153.202,162.108C153.316,162.075 153.44,162.111 153.518,162.206C153.743,162.479 153.777,162.87 153.615,163.38C153.551,163.582 153.278,163.61 153.173,163.425C152.82,162.8 152.454,162.722 151.681,162.814C151.164,162.875 150.692,162.749 150.269,162.43C150.162,162.515 150.1,162.599 150.081,162.684C150.822,163.376 151.693,163.842 152.689,164.105C152.796,164.133 152.858,164.248 152.819,164.355C152.675,164.743 152.451,165.09 152.155,165.396C151.976,165.581 151.661,165.457 151.655,165.201C151.637,164.459 151.229,163.972 150.416,163.786C150.338,163.768 150.269,163.731 150.214,163.676L149.392,162.902C149.304,163.003 149.219,163.068 149.135,163.103C149.561,164.03 149.71,164.856 149.587,165.584Z" style="fill:white;fill-opacity:0.85;"/>
    <path d="M160.529,161.638C160.482,161.786 160.593,161.956 160.782,162.017C160.97,162.076 161.162,162.008 161.21,161.857C161.256,161.708 161.146,161.539 160.956,161.478C160.768,161.419 160.577,161.487 160.529,161.638Z" style="fill:white;fill-opacity:0.75;"/>
    <path d="M101.257,162.941C101.195,162.827 101.052,162.781 100.935,162.837C100.756,162.924 100.61,162.921 100.493,162.83C100.454,162.801 100.431,162.759 100.421,162.713C100.333,162.274 100.203,161.962 100.031,161.777C99.849,161.582 99.55,161.562 99.342,161.728C98.2,162.648 98.048,163.695 98.88,164.875C98.961,164.989 99.153,165.057 99.456,165.087C99.56,165.096 99.654,165.139 99.729,165.21C99.999,165.474 100.249,165.633 100.473,165.688C100.577,165.714 100.688,165.714 100.789,165.685C101.605,165.467 102.031,164.95 102.066,164.134C102.073,163.991 101.998,163.854 101.868,163.786C101.715,163.705 101.51,163.422 101.257,162.941ZM101.289,164.869L101.039,164.323C101.016,164.274 101.006,164.222 101.01,164.17C101.041,163.753 100.995,163.425 100.847,163.188C100.792,163.1 100.658,163.133 100.652,163.237C100.618,163.844 101.038,164.471 100.47,165.025C100.384,165.108 100.408,165.253 100.516,165.301L100.616,165.353C100.691,165.389 100.782,165.389 100.857,165.353L101.163,165.214C101.293,165.152 101.348,164.999 101.289,164.869Z" style="fill:white;fill-opacity:0.75;"/>
    <path d="M165.125,161.78C165.145,161.848 165.22,161.923 165.353,162.001C165.454,162.063 165.584,161.998 165.584,161.884C165.581,161.777 165.535,161.682 165.447,161.598C165.301,161.465 165.07,161.595 165.125,161.78Z" style="fill:white;fill-opacity:0.75;"/>
    <path d="M120.343,161.917C121.006,162.154 121.738,162.208 122.541,162.079C122.704,162.053 122.923,162.124 123.208,162.284C123.33,162.353 123.423,162.363 123.484,162.313C123.546,162.262 123.598,162.173 123.637,162.047C122.616,161.803 121.517,161.76 120.343,161.917Z" style="fill:white;fill-opacity:0.6;"/>
    <path d="M143.614,166.846C144.306,166.283 144.439,165.441 143.971,164.57C143.428,163.559 142.163,162.652 140.661,162.196C139.175,161.745 137.677,161.8 136.734,162.346C135.996,162.772 135.674,163.458 135.852,164.232C136.76,165.318 137.813,166.082 139.013,166.527C140.424,167.051 141.959,167.158 143.614,166.846ZM142.934,164.877C142.807,164.911 142.752,165.106 142.81,165.311C142.869,165.516 143.015,165.652 143.143,165.615C143.269,165.581 143.324,165.386 143.267,165.181C143.207,164.976 143.061,164.84 142.934,164.877ZM138.509,164.836C138.441,164.914 138.48,165.061 138.595,165.166C138.711,165.269 138.863,165.292 138.931,165.214C139,165.135 138.961,164.989 138.846,164.884C138.73,164.781 138.577,164.758 138.509,164.836ZM141.412,165.298C141.406,165.451 141.416,165.568 141.438,165.656C141.474,165.796 141.669,165.796 141.715,165.659C141.764,165.513 141.744,165.373 141.656,165.233C141.588,165.122 141.416,165.168 141.412,165.298ZM141.113,164.297C141.172,164.248 141.211,164.137 141.23,163.965C141.24,163.887 141.149,163.835 141.087,163.887C140.967,163.988 140.899,164.063 140.889,164.108C140.856,164.258 141.006,164.384 141.113,164.297ZM140.218,163.215C140.102,163.259 140.073,163.471 140.153,163.684C140.235,163.9 140.395,164.037 140.513,163.993C140.629,163.949 140.658,163.737 140.578,163.524C140.496,163.308 140.336,163.172 140.218,163.215ZM138.346,162.916C138.229,163.071 138.379,163.38 138.678,163.605C138.977,163.832 139.315,163.887 139.433,163.732C139.549,163.578 139.4,163.269 139.1,163.044C138.802,162.817 138.463,162.762 138.346,162.916ZM137.52,164.053C137.569,164.037 137.599,164.01 137.615,163.975C137.696,163.757 137.468,163.546 137.241,163.63C137.16,163.659 137.117,163.708 137.117,163.77C137.117,163.968 137.319,164.108 137.52,164.053Z" style="fill:white;fill-opacity:0.5;"/>
    <path d="M167.912,161.917C167.343,162.616 166.774,163.065 166.198,163.269C164.307,163.941 162.421,163.898 160.538,163.152C160.258,163.041 159.92,162.716 159.526,162.173C159.582,162.781 159.848,163.204 160.326,163.441C162.326,164.434 164.394,164.437 166.53,163.448C167.203,163.136 167.665,162.625 167.912,161.917Z" style="fill:white;fill-opacity:0.35;"/>
    <path d="M150.396,162.105C150.383,162.251 150.341,162.362 150.269,162.43C150.692,162.749 151.164,162.875 151.681,162.814C152.454,162.722 152.82,162.8 153.173,163.425C153.278,163.61 153.551,163.582 153.615,163.38C153.777,162.87 153.743,162.479 153.518,162.206C153.44,162.111 153.316,162.075 153.202,162.108C152.294,162.372 151.359,162.375 150.396,162.105Z" style="fill:white;fill-opacity:0.75;"/>
    <path d="M126.277,163.09L126.348,163.237C126.872,164.014 127.537,164.039 128.338,163.311C128.488,163.175 128.582,162.986 128.602,162.785L128.641,162.378C128.654,162.219 128.491,162.102 128.345,162.167L126.277,163.09Z" style="fill:white;fill-opacity:0.85;"/>
    <path d="M162.256,162.2C162.206,162.297 162.303,162.447 162.47,162.532C162.638,162.619 162.814,162.609 162.864,162.511C162.914,162.414 162.817,162.264 162.65,162.179C162.482,162.092 162.306,162.102 162.256,162.2Z" style="fill:white;fill-opacity:0.75;"/>
    <path d="M102.984,162.454C102.967,162.557 103.087,162.661 103.253,162.688C103.419,162.713 103.565,162.651 103.581,162.55C103.598,162.447 103.478,162.342 103.312,162.316C103.146,162.29 103,162.352 102.984,162.454Z" style="fill:white;fill-opacity:0.75;"/>
    <path d="M105.276,162.479C105.071,162.45 104.925,162.458 104.84,162.499C104.698,162.566 104.733,162.776 104.892,162.801C105.064,162.828 105.211,162.782 105.337,162.664C105.403,162.603 105.367,162.492 105.276,162.479Z" style="fill:white;fill-opacity:0.75;"/>
    <path d="M113.339,163.285C113.339,162.924 113.047,162.632 112.686,162.632C112.325,162.632 112.032,162.924 112.032,163.285C112.032,163.646 112.325,163.939 112.686,163.939C113.047,163.939 113.339,163.646 113.339,163.285Z" style="fill:white;fill-opacity:0.5;"/>
    <path d="M150.081,162.684C149.85,162.817 149.619,162.889 149.392,162.902L150.214,163.676C150.269,163.731 150.338,163.768 150.416,163.786C151.229,163.972 151.637,164.459 151.655,165.201C151.661,165.457 151.976,165.581 152.155,165.396C152.451,165.09 152.675,164.743 152.819,164.355C152.858,164.248 152.796,164.133 152.689,164.105C151.693,163.842 150.822,163.376 150.081,162.684Z" style="fill:white;fill-opacity:0.75;"/>
    <path d="M138.346,162.916C138.229,163.071 138.379,163.38 138.678,163.605C138.977,163.832 139.315,163.887 139.433,163.732C139.549,163.578 139.4,163.269 139.1,163.044C138.802,162.817 138.463,162.762 138.346,162.916Z" style="fill:white;fill-opacity:0.75;"/>
    <path d="M101.289,164.869L101.039,164.323C101.016,164.274 101.006,164.222 101.01,164.17C101.041,163.753 100.995,163.425 100.847,163.188C100.792,163.1 100.658,163.133 100.652,163.237C100.618,163.844 101.038,164.471 100.47,165.025C100.384,165.108 100.408,165.253 100.516,165.301L100.616,165.353C100.691,165.389 100.782,165.389 100.857,165.353L101.163,165.214C101.293,165.152 101.348,164.999 101.289,164.869Z" style="fill:white;fill-opacity:0.5;"/>
    <path d="M149.135,163.103C148.514,163.074 148.2,163.292 148.192,163.75C148.178,164.528 148.641,165.139 149.587,165.584C149.71,164.856 149.561,164.03 149.135,163.103Z" style="fill:white;fill-opacity:0.75;"/>
    <path d="M140.218,163.215C140.102,163.259 140.073,163.471 140.153,163.684C140.235,163.9 140.395,164.037 140.513,163.993C140.629,163.949 140.658,163.737 140.578,163.524C140.496,163.308 140.336,163.172 140.218,163.215Z" style="fill:white;fill-opacity:0.75;"/>
    <path d="M137.52,164.053C137.569,164.037 137.599,164.01 137.615,163.975C137.696,163.757 137.468,163.546 137.241,163.63C137.16,163.659 137.117,163.708 137.117,163.77C137.117,163.968 137.319,164.108 137.52,164.053Z" style="fill:white;fill-opacity:0.75;"/>
    <path d="M157.51,164.052C157.081,164.482 157.137,165.227 157.628,165.717C158.122,166.208 158.866,166.257 159.293,165.829C159.722,165.399 159.666,164.654 159.175,164.164C158.681,163.672 157.936,163.624 157.51,164.052Z" style="fill:white;fill-opacity:0.65;"/>
    <path d="M141.113,164.297C141.172,164.248 141.211,164.137 141.23,163.965C141.24,163.887 141.149,163.835 141.087,163.887C140.967,163.988 140.899,164.063 140.889,164.108C140.856,164.258 141.006,164.384 141.113,164.297Z" style="fill:white;fill-opacity:0.75;"/>
    <path d="M118.018,164.622C117.885,164.293 117.67,164.129 117.368,164.128C117.296,164.127 117.225,164.15 117.163,164.189C116.314,164.728 116.035,165.613 116.327,166.843L118.018,164.622Z" style="fill:white;fill-opacity:0.85;"/>
    <path d="M132.773,164.898C132.777,164.758 132.731,164.615 132.63,164.469C132.543,164.342 132.406,164.261 132.253,164.248L130.644,164.102C130.491,164.085 130.342,164.164 130.266,164.3C130.074,164.646 130.075,164.983 130.279,165.311C131.05,164.732 131.895,165.451 132.773,164.898Z" style="fill:white;fill-opacity:0.7;"/>
    <path d="M155.635,164.173C155.342,164.225 155.153,164.56 155.216,164.922C155.28,165.285 155.569,165.539 155.862,165.487C156.155,165.435 156.343,165.1 156.28,164.738C156.216,164.375 155.927,164.121 155.635,164.173Z" style="fill:white;fill-opacity:0.75;"/>
    <path d="M135.852,164.232C135.963,164.71 136.259,165.204 136.714,165.662C138.53,167.488 142.073,168.094 143.614,166.846C141.959,167.158 140.424,167.051 139.013,166.527C137.813,166.082 136.76,165.318 135.852,164.232Z" style="fill:white;fill-opacity:0.35;"/>
    <path d="M112.442,164.609C111.772,164.888 111.499,165.757 111.828,166.546C112.159,167.337 112.969,167.75 113.639,167.47C114.308,167.19 114.581,166.322 114.252,165.532C113.921,164.742 113.112,164.329 112.442,164.609Z" style="fill:white;fill-opacity:0.65;"/>
    <path d="M116.327,166.843C116.396,167.138 116.557,167.451 116.815,167.779C116.903,167.89 117.017,167.981 117.147,168.039C117.495,168.195 117.773,168.395 117.982,168.637C118.05,168.716 118.148,168.758 118.252,168.751L120.727,168.634C120.792,168.631 120.851,168.606 120.899,168.566C121.889,167.738 122.211,166.742 121.92,165.646C121.61,164.479 120.837,164.241 119.592,164.934C119.868,165.867 120.436,166.572 121.299,167.044C121.413,167.106 121.466,167.239 121.429,167.366C121.27,167.917 120.928,168.232 120.411,168.306C120.294,168.322 120.204,168.202 120.255,168.094C120.571,167.433 120.363,166.813 119.637,166.241C119.332,166 119.205,165.61 119.257,165.07L118.896,165.087C118.75,165.093 118.646,165.233 118.681,165.376L119.263,167.769C119.286,167.857 119.345,167.929 119.426,167.968L119.598,168.052C119.683,168.091 119.667,168.218 119.572,168.234C118.9,168.347 118.405,168.351 118.086,168.254C117.862,168.185 117.82,167.886 118.018,167.759C118.603,167.388 118.519,166.865 118.373,166.065C118.304,165.692 118.323,165.343 118.431,165.022C118.486,164.859 118.347,164.726 118.018,164.622L116.327,166.843Z" style="fill:white;fill-opacity:0.75;"/>
    <path d="M109.19,166.049C109.103,165.464 108.991,165.094 108.859,164.937C108.689,164.736 108.429,164.633 108.166,164.664C106.835,164.819 106.046,165.253 105.793,165.942C106.102,166.339 106.391,166.488 106.654,166.391C107.606,166.04 108.452,165.929 109.19,166.049Z" style="fill:white;fill-opacity:0.7;"/>
    <path d="M138.509,164.836C138.441,164.914 138.48,165.061 138.595,165.166C138.711,165.269 138.863,165.292 138.931,165.214C139,165.135 138.961,164.989 138.846,164.884C138.73,164.781 138.577,164.758 138.509,164.836Z" style="fill:white;fill-opacity:0.75;"/>
    <path d="M119.592,164.934C119.524,164.918 119.41,164.963 119.257,165.07C119.205,165.61 119.332,166 119.637,166.241C120.363,166.813 120.571,167.433 120.255,168.094C120.204,168.202 120.294,168.322 120.411,168.306C120.928,168.232 121.27,167.917 121.429,167.366C121.466,167.239 121.413,167.106 121.299,167.044C120.436,166.572 119.868,165.867 119.592,164.934Z" style="fill:white;fill-opacity:0.85;"/>
    <path d="M130.279,165.311L130.276,165.47C130.273,165.594 130.413,165.665 130.51,165.591L130.696,165.441C130.744,165.405 130.816,165.389 130.917,165.392L132.276,165.454C132.562,165.467 132.806,165.314 132.858,165.093C132.864,165.067 132.835,165.002 132.773,164.898C131.895,165.451 131.05,164.732 130.279,165.311Z" style="fill:white;fill-opacity:0.6;"/>
    <path d="M142.934,164.877C142.807,164.911 142.752,165.106 142.81,165.311C142.869,165.516 143.015,165.652 143.143,165.615C143.269,165.581 143.324,165.386 143.267,165.181C143.207,164.976 143.061,164.84 142.934,164.877Z" style="fill:white;fill-opacity:0.75;"/>
    <path d="M141.412,165.298C141.406,165.451 141.416,165.568 141.438,165.656C141.474,165.796 141.669,165.796 141.715,165.659C141.764,165.513 141.744,165.373 141.656,165.233C141.588,165.122 141.416,165.168 141.412,165.298Z" style="fill:white;fill-opacity:0.75;"/>
    <path d="M105.793,165.942C105.802,166.332 105.861,166.557 105.968,166.615C106.192,166.736 106.427,166.773 106.677,166.725C107.525,166.563 108.361,166.339 109.19,166.049C108.452,165.929 107.606,166.04 106.654,166.391C106.391,166.488 106.102,166.339 105.793,165.942Z" style="fill:white;fill-opacity:0.6;"/>
    <path d="M149.382,168.172C149.476,167.916 149.407,167.603 149.183,167.223C149.157,167.178 149.115,167.138 149.066,167.116L146.803,166.033C146.712,165.991 146.608,165.987 146.514,166.026C146.087,166.206 145.799,166.755 145.639,167.662C146.54,167.522 147.407,167.731 148.234,168.296C148.452,168.445 148.836,168.403 149.382,168.172Z" style="fill:white;fill-opacity:0.7;"/>
    <path d="M125.38,168.243C125.314,168.862 125.838,169.424 126.548,169.499C127.259,169.574 127.886,169.135 127.954,168.518C128.02,167.899 127.496,167.337 126.787,167.262C126.075,167.187 125.448,167.626 125.38,168.243Z" style="fill:white;fill-opacity:0.65;"/>
    <path d="M145.639,167.662C146.462,167.916 147.217,168.188 147.902,168.481C148.319,168.66 148.618,168.749 148.797,168.751C149.17,168.756 149.366,168.563 149.382,168.172C148.836,168.403 148.452,168.445 148.234,168.296C147.407,167.731 146.54,167.522 145.639,167.662Z" style="fill:white;fill-opacity:0.6;"/>
    <path d="M137.703,168.543C137.173,167.798 136.24,167.502 134.906,167.646C134.23,167.718 134.002,168.667 134.461,169.047C135.67,168.725 136.76,169.346 137.703,168.543Z" style="fill:white;fill-opacity:0.7;"/>
    <path d="M295.558,167.76C296.156,168.615 296.63,169.742 296.979,171.141C298.215,176.054 299.145,181.39 299.577,186.641C299.801,189.408 299.918,190.835 299.928,190.926C300.104,193.205 299.957,195.742 299.492,198.541C299.092,200.944 297.457,201.958 295.145,202.407C288.519,203.698 281.788,203.851 275.103,203.262C272.977,203.002 270.84,202.691 268.694,202.326C268.314,202.261 267.14,202.248 265.17,202.28C264.946,202.284 264.728,202.336 264.523,202.43C259.737,204.625 254.427,205.973 249.043,205.389C245.716,205.027 243.352,203.43 241.954,200.59C241.475,199.615 241.24,198.58 241.246,197.488C241.253,196.096 241.538,194.35 242.481,193.381C242.579,193.281 242.712,193.219 242.855,193.215C243.769,193.193 244.26,193.186 244.328,193.202C245.834,193.565 247.394,193.892 249.013,194.168C250.772,194.468 252.584,194.538 254.453,194.376C254.71,194.354 254.846,194.067 254.703,193.856C254.419,193.434 253.66,192.343 252.424,190.591C252.151,190.204 252.02,189.811 252.027,189.408C252.032,189.151 252.255,188.956 252.512,188.985C252.944,189.034 253.357,189.126 253.744,189.258C255.138,189.735 257.821,190.761 261.792,192.341C262.413,192.588 263.086,192.719 263.808,192.734C266.565,192.793 269.335,192.701 272.115,192.471C276.878,191.993 281.626,191.326 286.35,190.468C286.392,190.461 286.418,190.419 286.405,190.38C285.056,186.007 283.615,181.682 282.091,177.403C281.661,176.197 281.343,175.384 281.138,174.961C281.073,174.828 280.94,174.779 280.738,174.815C280.737,174.793 280.736,174.772 280.736,174.751C288.708,173.215 293.511,169.832 295.558,167.76Z" style="fill:white;fill-opacity:0.75;"/>
    <path d="M134.461,169.047C134.461,169.083 134.464,169.112 134.471,169.141C134.49,169.232 134.575,169.292 134.666,169.284C135.131,169.245 135.901,169.233 136.981,169.265C137.433,169.278 137.673,169.037 137.703,168.543C136.76,169.346 135.67,168.725 134.461,169.047Z" style="fill:white;fill-opacity:0.6;"/>
    <path d="M78.308,174.444L86.641,176.561C86.105,179.621 85.825,182.719 85.803,185.86C85.803,185.955 85.903,186.013 85.981,185.964C89.379,183.948 92.54,181.565 95.456,178.814C96.12,179.026 96.884,179.11 97.469,179.27C102.396,180.615 107.342,181.865 112.299,183.08C112.468,183.122 112.624,183.249 112.767,183.464C110.439,184.228 108.059,184.537 105.627,184.384C105.588,184.381 105.549,184.4 105.529,184.433C102.587,189.07 99.13,193.427 95.024,197.371C85.247,206.759 76.6,206.263 74.146,203.708L73.284,202.646C74.793,196.419 76.012,187.657 77.376,179.63C77.677,177.861 77.985,176.127 78.304,174.465C78.306,174.458 78.307,174.451 78.308,174.444Z" style="fill:white;fill-opacity:0.95;"/>
    <path d="M132.471,177.299C132.825,177.293 133.988,176.828 134.932,176.503C134.968,176.49 134.991,176.454 134.984,176.415C134.978,176.376 134.945,176.349 134.906,176.35C134.249,176.361 133.433,176.392 132.455,176.408C131.479,176.425 130.66,176.433 130.006,176.431C129.967,176.431 129.933,176.46 129.928,176.499C129.923,176.538 129.948,176.574 129.984,176.584C130.945,176.853 132.117,177.306 132.471,177.299Z" style="fill:white;fill-opacity:0.25;"/>
    <path d="M68.856,211.053C68.459,213.384 67.806,215.657 66.895,217.871C65.728,220.703 63.724,223.5 61.14,225.19C54.466,229.556 41.492,226.195 40.841,226.078C40.744,226.062 40.653,226.01 40.584,225.935C40.529,225.873 40.487,225.805 40.458,225.733C41.199,225.164 41.296,224.498 40.747,223.733C40.223,223.005 39.3,222.446 37.977,222.052C36.231,221.533 34.134,221.039 31.688,220.583C31.425,220.534 31.204,220.362 31.093,220.118C30.28,218.331 29.415,216.58 28.508,214.86C27.578,213.095 26.177,209.798 24.301,204.966C25.741,205.831 27.072,206.516 28.291,207.024C31.01,208.157 35.32,209.928 39.401,210.968C46.46,212.767 53.984,213.061 61.485,212.461C64.213,212.242 66.671,211.771 68.856,211.053Z" style="fill:white;fill-opacity:0.65;"/>
    <path d="M275.165,210.923C276.618,214.229 278.436,217.913 278.433,221.548C278.426,224.67 275.978,226.566 273.282,227.453C269.364,228.741 265.258,229.645 260.963,230.165C255.35,230.844 249.745,230.922 244.143,230.399C244.061,230.392 242.975,230.204 240.888,229.83C239.63,229.606 238.576,229.306 237.728,228.933C235.799,228.09 233.959,227.017 232.203,225.717C230.916,224.764 231.446,220.986 231.774,219.243C232.138,217.296 232.408,215.27 232.587,213.166L234.785,214.844C234.814,214.867 234.844,214.882 234.876,214.896C237.335,215.935 240.049,217.38 242.54,217.839C245.554,218.394 247.465,218.747 248.275,218.889C252.449,219.62 256.694,219.082 260.758,217.913C264.676,216.786 268.313,215.303 271.673,213.475C272.911,212.801 274.076,211.95 275.165,210.923Z" style="fill:white;fill-opacity:0.6;"/>
</svg>
