<?xml version="1.0" encoding="UTF-8" standalone="no"?>
<!DOCTYPE svg PUBLIC "-//W3C//DTD SVG 1.1//EN" "http://www.w3.org/Graphics/SVG/1.1/DTD/svg11.dtd">
<svg width="100%" height="100%" viewBox="0 0 300 300" version="1.1" xmlns="http://www.w3.org/2000/svg" xmlns:xlink="http://www.w3.org/1999/xlink" xml:space="preserve" xmlns:serif="http://www.serif.com/" style="fill-rule:evenodd;clip-rule:evenodd;stroke-linejoin:round;stroke-miterlimit:2;">
    <path d="M235.294,66.263L235.444,65.973C235.48,65.902 235.496,65.82 235.493,65.739C235.311,63.05 236.456,61.221 238.93,60.254C239.647,59.974 240.356,59.795 241.059,59.717C242.28,59.967 243.485,60.163 244.679,60.309C245.421,60.4 247.016,60.906 249.461,61.823C250.87,62.351 251.782,63.144 252.987,63.861C253.244,64.014 253.575,63.868 253.608,63.581C253.616,63.519 253.592,63.431 253.537,63.317C253.304,62.836 252.909,62.389 252.349,61.979C250.006,60.265 247.41,59.244 244.591,58.74C244.559,58.734 244.533,58.737 244.51,58.75C244.494,58.759 244.474,58.75 244.471,58.73L244.442,58.558C245.307,58.174 245.867,57.956 246.121,57.9C254.165,56.178 263.124,58.714 269.719,63.672C270.432,64.206 271.011,64.717 271.464,65.208C272.124,65.924 272.844,66.481 273.518,67.438C275.477,70.228 276.936,72.907 277.089,76.315C277.173,78.203 276.786,80.521 276.779,82.295C276.77,84.242 276.633,86.172 276.363,88.083C276.05,90.31 275.438,92.084 274.143,94.076C272.814,96.117 271.268,97.933 269.507,99.525C266.45,101.671 263.394,103.771 260.331,105.831C256.737,108.247 252.776,110.477 249.455,113.087C247.411,114.692 245.867,116.048 244.822,117.153C242.66,119.44 241.026,122.199 239.94,125.437C239.897,125.564 239.933,125.707 240.027,125.802L240.151,125.929C240.311,126.088 240.584,126.049 240.692,125.851C241.265,124.798 241.73,123.956 242.078,123.315C242.82,121.951 243.708,120.996 244.614,119.685C244.63,119.662 244.647,119.64 244.666,119.62L246.73,117.481C246.847,117.361 246.975,117.25 247.121,117.159C247.31,117.041 247.889,116.573 248.843,115.75C250.633,114.203 252.459,113.079 254.917,111.518C258.061,109.521 261.363,107.244 263.456,105.756C264.865,104.754 266.532,103.49 268.459,101.97C268.42,102.693 268.299,111.765 268.316,114.555C268.413,115.32 268.404,116.082 268.283,116.843C268.121,117.869 267.892,118.545 267.596,118.868C266.438,120.132 265.135,120.831 263.687,120.964C261.603,121.156 259.758,121.776 258.149,122.826C255.136,124.794 253.271,126.893 250.692,129.991C250.22,130.558 249.663,131.079 249.028,131.733C246.956,133.866 244.435,134.726 241.258,134.422C238.253,134.134 235.743,133.631 233.729,132.915C231.004,131.945 230.09,129.17 231.255,126.616C231.836,125.339 232.557,124.22 233.419,123.253C235.701,120.695 237.56,118.676 239.002,117.198C240.155,116.017 241.642,114.138 243.462,111.563C245.307,108.952 246.115,106.143 245.887,103.135C246.32,102.862 246.537,102.579 246.535,102.286C246.513,99.587 247.663,97.551 249.836,95.951C250.171,95.704 251.009,95.136 252.352,94.245C253.391,93.556 254.468,92.663 255.578,91.573C258.061,89.134 259.892,85.932 261.138,82.608C262.308,79.486 262.614,76.468 262.606,73.255C262.605,72.832 262.196,72.536 261.812,72.679C261.698,72.722 261.619,72.819 261.584,72.969C260.896,75.874 260.226,78.539 259.549,80.951C258.882,83.33 257.644,85.816 255.832,88.405C255.34,89.108 254.655,89.872 253.781,90.697C252.493,91.912 251.724,92.588 251.473,92.722C250.806,93.077 250.168,93.503 249.562,94.001C250.135,92.582 250.478,91.244 250.591,89.987C250.955,85.941 250.555,82.035 249.393,78.272C249.123,76.67 248.476,74.957 247.446,73.138C246.503,71.471 245.503,70.058 244.451,68.897C243.823,68.203 243.104,67.863 242.3,67.871C241.027,67.884 240.057,67.868 239.393,67.832C237.788,67.745 236.424,67.223 235.294,66.263Z" style="fill:white;fill-opacity:0.5;"/>
    <path d="M241.059,59.717L244.442,58.558L244.471,58.73C244.474,58.75 244.494,58.759 244.51,58.75C244.533,58.737 244.559,58.734 244.591,58.74C247.41,59.244 250.006,60.265 252.349,61.979C252.909,62.389 253.304,62.836 253.537,63.317C253.592,63.431 253.616,63.519 253.608,63.581C253.575,63.868 253.244,64.014 252.987,63.861C251.782,63.144 250.87,62.351 249.461,61.823C247.016,60.906 245.421,60.4 244.679,60.309C243.485,60.163 242.28,59.967 241.059,59.717Z" style="fill:white;fill-opacity:0.25;"/>
    <path d="M237.817,102.689C235.405,102.725 233.227,100.925 232.537,98.711C231.691,96.01 231.287,93.239 231.326,90.404C231.336,89.512 231.391,87.94 231.486,85.684C231.528,84.685 231.668,83.869 231.723,83.213C231.798,82.337 231.921,81.393 232.075,80.428C232.117,80.474 232.166,80.503 232.219,80.512C232.489,80.559 232.794,80.084 232.902,79.455C233.01,78.824 232.88,78.277 232.609,78.23C232.563,78.222 232.515,78.23 232.468,78.251C232.605,77.559 232.752,76.874 232.903,76.212L232.983,76.21C233.406,76.2 233.754,76.102 234.027,75.92C234.383,75.683 234.268,75.129 233.845,75.054C233.627,75.015 233.412,74.984 233.2,74.96C233.784,72.578 234.368,70.695 234.614,70.241C234.712,70.062 234.747,69.857 234.715,69.655C234.523,68.434 234.526,67.233 235.294,66.263C236.424,67.223 237.788,67.745 239.393,67.832C240.057,67.868 241.027,67.884 242.3,67.871C243.104,67.863 243.823,68.203 244.451,68.897C245.503,70.058 246.503,71.471 247.446,73.138C248.476,74.957 249.123,76.67 249.393,78.272L246.265,74.277C246.199,74.196 246.124,74.121 246.043,74.056C244.771,73.034 243.556,72.295 242.388,71.852C241.785,71.624 240.874,71.466 239.653,71.371C239.367,71.348 239.09,71.484 238.934,71.725C238.383,72.575 238.006,73.226 237.804,73.679C236.378,76.867 235.282,79.983 234.533,83.034C234.379,83.659 234.173,84.291 234.259,84.903C234.323,85.362 234.705,85.71 235.167,85.736C235.76,85.769 237.576,85.437 237.921,86.429C238.451,87.95 237.925,89.395 237.322,90.827C236.43,91.013 235.49,91.219 234.503,91.439C233.875,91.58 233.543,91.898 233.514,92.4C233.439,93.676 235.008,93.838 235.984,93.822C235.734,95.121 235.683,96.352 235.831,97.52C235.918,98.207 236.205,99.08 236.694,100.141C237.084,100.987 237.459,101.837 237.817,102.689Z" style="fill:white;fill-opacity:0.75;"/>
    <path d="M249.562,94.001C248.914,95.134 248.091,96.133 247.104,97.022C247.029,97.09 246.96,97.165 246.899,97.25C245.695,98.931 245.646,101 245.887,103.135C246.32,102.862 246.537,102.579 246.535,102.286C246.513,99.587 247.663,97.551 249.836,95.951C250.171,95.704 251.009,95.136 252.352,94.245C253.391,93.556 254.468,92.663 255.578,91.573C258.061,89.134 259.892,85.932 261.138,82.608C262.308,79.486 262.614,76.468 262.606,73.255C262.605,72.832 262.196,72.536 261.812,72.679C261.698,72.722 261.619,72.819 261.584,72.969C260.896,75.874 260.226,78.539 259.549,80.951C258.882,83.33 257.644,85.816 255.832,88.405C255.34,89.108 254.655,89.872 253.781,90.697C252.493,91.912 251.724,92.588 251.473,92.722C250.806,93.077 250.168,93.503 249.562,94.001Z" style="fill:white;fill-opacity:0.25;"/>
    <path d="M245.33,76.419C243.498,74.756 241.284,74.154 238.69,74.616C238.266,74.691 238.152,75.244 238.507,75.482C238.781,75.664 239.129,75.762 239.552,75.772C241.489,75.82 243.309,76.12 245.011,76.677C245.125,76.712 245.216,76.716 245.285,76.686C245.392,76.641 245.418,76.498 245.33,76.419Z" style="fill:white;fill-opacity:0.15;"/>
    <path d="M232.903,76.212C233.001,75.783 233.1,75.364 233.2,74.96C233.412,74.984 233.627,75.015 233.845,75.054C234.268,75.129 234.383,75.683 234.027,75.92C233.754,76.102 233.406,76.2 232.983,76.21L232.903,76.212Z" style="fill:white;fill-opacity:0.15;"/>
    <path d="M239.402,78.051C239.015,77.985 238.579,78.666 238.423,79.568C238.27,80.472 238.455,81.257 238.843,81.324C239.23,81.39 239.666,80.71 239.822,79.807C239.975,78.903 239.79,78.119 239.402,78.051Z" style="fill:white;fill-opacity:0.15;"/>
    <path d="M232.075,80.428C232.191,79.708 232.324,78.976 232.468,78.251C232.515,78.23 232.563,78.222 232.609,78.23C232.88,78.277 233.01,78.824 232.902,79.455C232.794,80.084 232.489,80.559 232.219,80.512C232.166,80.503 232.117,80.474 232.075,80.428Z" style="fill:white;fill-opacity:0.15;"/>
    <path d="M59.647,78.711C60.259,80.117 60.659,81.553 60.845,83.015L59.631,83.19C59.377,83.226 59.341,83.581 59.582,83.669L61.122,84.239C61.122,84.461 61.176,85.455 61.246,86.833C61.13,86.377 60.919,86.07 60.713,86.099C60.451,86.136 60.299,86.702 60.372,87.364C60.444,88.026 60.715,88.532 60.977,88.495C61.132,88.473 61.25,88.264 61.303,87.958C61.469,91.286 61.671,95.93 61.558,98.044C61.48,99.516 61.235,101.091 60.825,102.768C60.497,104.112 59.946,105.32 59.168,106.391C57.707,108.396 56.011,108.5 53.69,108.402C52.915,108.37 51.128,108.168 51.046,108.321C49.409,111.417 49.331,114.643 50.812,118.002L47.899,117.576C47.72,117.55 47.584,117.4 47.573,117.221C47.443,115.075 46.874,112.913 45.682,111.075C44.163,108.734 42.296,106.941 40.18,104.975C39.151,104.018 37.897,103.094 36.43,102.178C36.306,102.101 36.326,101.915 36.463,101.866L37.531,101.495C37.788,101.404 38.071,101.449 38.289,101.609C41.532,103.995 45.161,106.129 49.012,107.439C49.94,107.754 53.976,108.331 54.884,108.227C54.998,108.214 55.091,108.123 55.106,108.009C55.162,107.583 55.22,107.302 55.295,107.172C56.532,104.949 57.297,103.702 56.89,101.299C56.853,101.079 56.685,100.423 56.507,99.759C56.597,99.783 56.675,99.801 56.737,99.809C57.551,100.001 58.325,99.916 59.061,99.551C59.139,99.512 59.175,99.424 59.149,99.343C59.123,99.258 59.041,99.206 58.957,99.219C58.016,99.346 57.136,99.295 56.32,99.069C56.173,98.534 56.051,98.107 56.034,98.064C55.562,96.915 55.304,95.733 55.269,94.522C55.246,93.731 55.675,92.611 56.633,92.732L58.094,92.894C58.208,92.907 58.321,92.883 58.423,92.826C58.892,92.56 59.109,92.279 59.067,91.97C58.697,89.242 58.049,86.595 57.118,84.027C56.649,82.735 55.985,81.146 55.122,79.258C55.949,79.336 56.74,79.328 57.498,79.229C58.163,79.142 58.879,78.968 59.647,78.711Z" style="fill:white;fill-opacity:0.75;"/>
    <path d="M49.455,84.144L50.809,83.747C50.903,83.718 51.001,83.701 51.099,83.695L55.392,83.422C55.685,83.402 55.78,83.018 55.532,82.865C53.872,81.836 50.845,82.875 49.318,83.838C49.246,83.884 49.22,83.975 49.253,84.05C49.289,84.128 49.373,84.167 49.455,84.144Z" style="fill:white;fill-opacity:0.15;"/>
    <path d="M60.845,83.015C61.877,83.223 62.899,83.623 63.911,84.216C64.175,84.369 64.37,84.574 64.504,84.831C64.549,84.919 64.462,85.348 64.037,85.206C63.075,84.884 61.731,84.464 61.122,84.239L59.582,83.669C59.341,83.581 59.377,83.226 59.631,83.19L60.845,83.015Z" style="fill:white;fill-opacity:0.15;"/>
    <path d="M120.455,93.723C121.064,94.789 121.569,95.376 121.717,95.944C122.181,97.725 119.689,98.609 118.294,97.25C116.969,95.959 115.71,93.679 114.821,91.782C114.219,90.496 113.248,89.109 113.983,87.452C114.821,85.563 121.614,83.788 122.226,83.606C123.853,83.123 124.941,83.816 125.172,84.593C125.48,85.628 125.05,86.451 123.784,87.145C123.444,87.331 122.965,87.618 121.51,88.207C121.256,88.308 121.259,88.669 121.513,88.767C123.089,89.366 128.131,93.431 137.295,92.605C147.284,91.704 152.421,89.071 155.789,85.275C156.681,84.27 158.725,85.712 158.606,86.699C157.797,93.415 135.852,101.64 120.953,93.266C120.455,92.986 120.286,93.427 120.455,93.723Z" style="fill:white;fill-opacity:0.95;"/>
    <path d="M151.46,76.216C150.815,77.261 150.291,77.831 150.124,78.394C149.601,80.159 152.061,81.126 153.501,79.814C154.869,78.568 156.204,76.332 157.156,74.466C157.801,73.201 158.818,71.847 158.139,70.167C157.365,68.251 150.635,66.249 150.029,66.046C148.42,65.508 147.309,66.164 147.052,66.933C146.71,67.958 147.111,68.794 148.353,69.53C148.687,69.728 149.156,70.03 150.591,70.668C150.841,70.777 150.826,71.138 150.569,71.228C148.974,71.773 143.798,75.667 134.667,74.533C124.714,73.298 119.668,70.494 116.429,66.587C115.572,65.552 113.48,66.925 113.566,67.915C114.149,74.655 135.806,83.612 150.978,75.743C151.485,75.48 151.639,75.926 151.46,76.216Z" style="fill:white;fill-opacity:0.95;"/>
    <path d="M54.53,85.634C54.149,85.681 53.927,86.41 54.034,87.261C54.139,88.112 54.533,88.763 54.914,88.716C55.295,88.669 55.516,87.94 55.41,87.089C55.304,86.237 54.91,85.586 54.53,85.634Z" style="fill:white;fill-opacity:0.15;"/>
    <path d="M235.984,93.822C237.039,93.689 238.156,93.256 239.337,92.517C240.018,92.091 240.142,91.563 239.708,90.928C239.575,90.733 239.347,90.625 239.109,90.648L237.322,90.827C236.43,91.013 235.49,91.219 234.503,91.439C233.875,91.58 233.543,91.898 233.514,92.4C233.439,93.676 235.008,93.838 235.984,93.822Z" style="fill:white;fill-opacity:0.15;"/>
    <path d="M56.069,99.617C55.193,99.304 53.904,98.707 53.66,98.51C53.475,98.36 53.622,98.014 53.843,98.103L55.464,98.757C55.741,98.884 56.026,98.988 56.32,99.069C57.136,99.295 58.016,99.346 58.957,99.219C59.041,99.206 59.123,99.258 59.149,99.343C59.175,99.424 59.139,99.512 59.061,99.551C58.325,99.916 57.551,100.001 56.737,99.809C56.675,99.801 56.597,99.783 56.507,99.759C56.382,99.725 56.232,99.676 56.069,99.617Z" style="fill:white;fill-opacity:0.15;"/>
    <path d="M269.507,99.525L268.459,101.97C266.532,103.49 264.865,104.754 263.456,105.756C261.363,107.244 258.061,109.521 254.917,111.518C252.459,113.079 250.633,114.203 248.843,115.75C247.889,116.573 247.31,117.041 247.121,117.159C246.975,117.25 246.847,117.361 246.73,117.481L244.666,119.62C244.647,119.64 244.63,119.662 244.614,119.685C243.708,120.996 242.82,121.951 242.078,123.315C241.73,123.956 241.265,124.798 240.692,125.851C240.584,126.049 240.311,126.088 240.151,125.929L240.027,125.802C239.933,125.707 239.897,125.564 239.94,125.437C241.026,122.199 242.66,119.44 244.822,117.153C245.867,116.048 247.411,114.692 249.455,113.087C252.776,110.477 256.737,108.247 260.331,105.831C263.394,103.771 266.45,101.671 269.507,99.525Z" style="fill:white;fill-opacity:0.25;"/>
    <path d="M142.864,108.91C142.679,108.666 142.864,108.443 143.141,108.344C146.033,107.304 148.926,106.254 151.833,105.229C151.934,105.193 152.041,105.183 152.148,105.202L161.338,106.791C161.302,106.898 161.207,106.986 161.061,107.048C158.284,108.24 155.505,109.486 152.692,110.714C152.593,110.757 152.524,110.849 152.511,110.955C152.495,110.787 152.404,110.69 151.885,110.564L143.254,108.475C143.02,108.418 142.769,108.765 142.864,108.91Z" style="fill:white;fill-opacity:0.95;"/>
    <path d="M152.514,111.072L152.51,111.023C152.507,111 152.508,110.977 152.511,110.955C152.524,110.849 152.593,110.757 152.692,110.714C155.505,109.486 158.284,108.24 161.061,107.048C161.207,106.986 161.302,106.898 161.338,106.791C161.53,106.879 161.634,107.006 161.651,107.165C161.862,109.148 162.184,112.784 162.611,118.08C161.934,118.074 161.165,117.899 160.589,117.976C159.902,118.068 159.198,118.28 158.486,118.611C158.333,118.682 158.164,118.718 157.992,118.718L153.405,118.718C153.278,118.718 153.171,118.621 153.161,118.497L152.741,113.676L152.514,111.072Z" style="fill:white;fill-opacity:0.25;"/>
    <path d="M108.961,114.408C108.915,114.363 108.863,114.336 108.808,114.33C108.746,114.323 108.684,114.327 108.629,114.337C108.573,114.223 108.551,114.115 108.557,114.008C108.564,113.93 108.609,113.865 108.678,113.829L120.322,108.025C120.488,107.943 120.686,107.956 120.836,108.064L129.261,114.115L121.8,117.807L115.878,120.792C115.778,120.842 115.702,120.928 115.66,121.028C115.507,121.106 110.992,116.475 108.961,114.408Z" style="fill:white;fill-opacity:0.65;"/>
    <path d="M143.667,120.364C143.695,120.374 143.724,120.383 143.752,120.393C143.827,120.419 143.902,120.36 143.896,120.282L142.909,108.882C142.814,108.737 143.065,108.39 143.299,108.447L151.93,110.536C152.449,110.662 152.54,110.76 152.556,110.927C152.553,110.949 152.552,110.972 152.555,110.995L152.559,111.044L152.786,113.648L153.206,118.469C153.211,118.539 153.247,118.6 153.301,118.64C153.239,118.63 153.185,118.617 153.141,118.601C147.761,116.667 149.371,119.86 150.724,120.778C151.285,121.158 154.618,121.629 151.267,122.885C149.652,123.489 146.536,123.134 145.72,122.221C144.903,121.308 143.708,120.421 143.708,120.421L143.667,120.364Z" style="fill:white;fill-opacity:0.75;"/>
    <path d="M157.052,128.664C155.97,128.943 154.845,129.242 153.678,129.56C151.122,130.26 148.756,129.814 146.581,128.222C145.523,127.444 143.391,125.504 140.185,122.401C140.136,122.356 139.42,121.191 139.42,121.191C139.299,120.989 139.325,120.732 139.485,120.559C139.674,120.357 139.872,120.23 140.077,120.181C141.254,119.905 142.45,119.964 143.667,120.364L143.708,120.421C143.708,120.421 144.903,121.308 145.72,122.221C146.536,123.134 149.652,123.489 151.267,122.885C154.618,121.629 151.285,121.158 150.724,120.778C149.371,119.86 147.761,116.667 153.141,118.601C153.185,118.617 153.239,118.63 153.301,118.64C153.524,118.678 153.849,118.684 154.148,118.69L158.036,118.69C158.209,118.69 158.378,118.654 158.531,118.583C159.243,118.252 159.947,118.04 160.634,117.948C161.21,117.871 161.979,118.046 162.656,118.052C163.505,118.101 164.342,118.306 165.166,118.664C166.116,119.078 167.018,119.608 167.871,120.256L167.972,121.575C167.988,121.783 167.972,121.991 167.929,122.193C167.333,125.004 165.683,126.685 163.001,127.239C161.186,127.635 159.203,128.111 157.052,128.664Z" style="fill:white;fill-opacity:0.85;"/>
    <path d="M115.66,121.028C115.702,120.928 115.778,120.842 115.878,120.792L121.8,117.807L129.261,114.115L129.339,118.816C128.216,119.321 127.207,120.226 126.308,121.534C125.849,122.202 125.173,123.39 124.404,124.103C123.587,124.859 122.537,125.422 121.259,125.808C121.047,125.872 120.861,125.648 120.963,125.45C121.656,124.102 122.101,123.297 122.379,121.869C122.401,121.755 122.396,121.635 122.36,121.521C121.919,120.13 120.618,120.511 119.602,121.098C118.173,121.924 117.039,122.512 116.188,122.843C116.035,122.902 115.869,122.807 115.842,122.647L115.631,121.27C115.618,121.187 115.63,121.103 115.66,121.028Z" style="fill:white;fill-opacity:0.25;"/>
    <path d="M23.24,171.955C23.494,171.366 23.751,170.789 24.012,170.226C24.184,169.852 27.238,165.405 20.678,153.247C20.217,152.393 19.783,151.515 19.161,150.714L20.717,144.721C20.747,144.611 20.893,144.585 20.955,144.682C23.804,149.13 25.782,153.904 27.238,158.901C28.675,163.85 29.113,169.144 28.134,174.317L27.48,174.319L22.578,174.334L22.465,174.334C22.573,173.51 22.935,172.59 23.24,171.955Z" style="fill:white;fill-opacity:0.5;"/>
    <path d="M273.27,148.826C272.922,148.198 272.36,147.729 271.574,147.426C271.275,147.311 270.936,147.44 270.786,147.723C270.15,148.925 269.624,149.952 269.214,150.812C265.939,157.682 263.098,164.657 260.656,171.72C260.494,172.189 260.151,172.938 260.562,173.267C260.916,173.55 261.213,173.465 261.564,173.501C262.733,173.621 263.885,173.631 265.021,173.534C265.637,172.004 266.18,170.444 266.659,168.859C267.29,166.772 267.661,165.555 267.772,165.207C269.038,161.213 270.311,157.222 271.587,153.234C271.59,153.221 271.74,152.667 272.033,151.57C272.29,150.597 272.704,149.682 273.27,148.826Z" style="fill:white;fill-opacity:0.5;"/>
    <path d="M8.224,174.445C6.944,173.7 5.912,172.525 5.131,170.923C4.581,169.797 4.158,168.446 3.861,166.873C3.142,163.071 2.729,159.471 2.618,156.076C2.543,153.843 2.543,150.965 2.615,147.443L2.865,147.492C2.937,147.505 3.002,147.531 3.061,147.57C6.676,149.948 11.092,152.097 15.16,152.938C15.678,153.045 16.336,153.052 17.14,152.964C16.769,156.642 16.407,160.311 16.059,163.97C16.01,164.474 16.124,164.907 16.394,165.272C18.207,167.733 20.489,169.959 23.24,171.955C22.935,172.59 22.573,173.51 22.465,174.334C14.183,174.362 9.035,174.399 8.224,174.445Z" style="fill:white;fill-opacity:0.75;"/>
    <path d="M220.494,202.709C219.945,202.814 219.324,202.867 218.631,202.867C149.251,202.862 79.869,202.859 10.489,202.864C10.082,202.864 9.441,202.756 8.565,202.541C7.719,201.776 7.296,200.663 7.293,199.208C7.283,191.695 7.283,184.182 7.296,176.665C7.299,176.063 7.608,175.321 8.224,174.445C9.035,174.399 14.183,174.362 22.465,174.334L22.578,174.334L27.48,174.319L28.134,174.317C35.21,174.299 43.865,174.285 53.61,174.274C106.095,174.217 190.209,174.262 229.62,174.286C229.757,174.286 229.878,174.442 229.985,174.751C224.612,181.736 221.835,192.122 220.494,202.709Z" style="fill:white;fill-opacity:0.25;"/>
    <path d="M283.495,203.472C284.078,205.891 284.8,208.339 285.66,210.823C286.36,212.844 286.714,214.192 286.731,214.862C286.819,218.521 284.67,221.012 282.388,223.935C282.326,224.016 282.307,224.124 282.339,224.221C282.369,224.316 282.414,224.371 282.47,224.394C281.815,225.1 281.237,225.817 280.738,226.549C280.046,227.562 279.208,227.908 278.225,227.587C276.94,227.168 276.48,226.088 277.137,224.905C277.552,224.158 278.023,223.123 278.817,221.624C279.115,221.061 279.383,220.566 279.624,220.139C280.34,218.873 280.676,217.642 280.634,216.451C280.588,215.165 280.458,214.196 280.253,213.541C280.21,213.404 280.018,213.401 279.97,213.534L278.944,216.428C278.908,216.532 278.853,216.63 278.785,216.718C277.82,217.961 276.657,218.118 275.272,217.223C275.175,217.16 275.106,217.063 275.077,216.956L274.764,215.849C274.729,215.719 274.722,215.579 274.745,215.445L275.741,209.924C275.751,209.879 275.745,209.83 275.728,209.784C274.459,206.381 274.098,203.263 275.503,199.852C275.65,199.498 275.88,199.232 276.197,199.058C276.275,199.015 276.359,198.987 276.447,198.977C279.951,198.579 282.3,200.067 283.495,203.472Z" style="fill:white;fill-opacity:0.75;"/>
    <path d="M219.414,218.512L8.591,218.427L8.565,202.541C9.441,202.756 10.082,202.864 10.489,202.864C79.869,202.859 149.251,202.862 218.631,202.867C219.324,202.867 219.945,202.814 220.494,202.709C219.816,208.063 219.506,213.469 219.414,218.512Z" style="fill:white;fill-opacity:0.15;"/>
    <path d="M220.483,243.229L10.942,243.229C10.893,243.229 10.844,243.219 10.798,243.196L9.509,242.571C9.418,242.526 9.34,242.451 9.295,242.356L8.617,241.002C8.608,240.979 8.601,240.953 8.601,240.924L8.591,218.427L219.414,218.512C219.172,231.742 220.429,242.474 220.483,243.229Z" style="fill:white;fill-opacity:0.25;"/>
    <path d="M34.966,102.22C31.494,102.887 27.515,101.875 25.782,98.861C25.356,98.119 24.444,97.139 23.592,95.508C22.589,93.588 21.899,91.127 21.525,88.125C21.489,87.849 21.485,86.8 21.515,84.981C21.567,81.524 22.569,77.901 24.2,75.241C26.365,71.706 29.477,69.32 33.54,68.079C33.598,68.063 33.618,67.992 33.579,67.943C31.736,65.846 30.577,63.154 30.643,60.325C30.711,57.36 32.117,55.039 34.861,53.356C38.107,51.37 42.042,51.155 44.708,54.176C46.528,56.237 46.909,59.056 45.685,61.582C45.262,62.454 44.539,63.708 43.514,65.345C43.403,65.521 43.299,65.742 43.198,66.012C43.058,66.383 43.345,66.781 43.745,66.761C49.38,66.507 54.256,69.089 58.397,72.901C59.517,73.932 60.562,75.313 60.705,76.878C60.78,77.663 60.425,78.272 59.647,78.711C58.879,78.968 58.163,79.142 57.498,79.229C56.74,79.328 55.949,79.336 55.122,79.258C52.814,79.086 50.806,78.685 48.589,79.418C46.323,80.166 44.703,82.103 44.614,84.453C44.55,86.156 45.564,88.033 45.505,89.625C45.491,89.983 44.582,90.873 43.277,88.757C42.826,88.026 41.031,84.266 39.676,84.945C38.407,85.581 39.024,88.688 39.272,89.805C39.558,91.087 40.102,92.002 40.613,93.376C40.83,93.958 40.973,94.514 41.052,95.044C41.64,99.013 38.578,101.526 34.966,102.22Z" style="fill:white;fill-opacity:0.25;"/>
    <path d="M61.246,86.833C61.278,86.956 61.302,87.09 61.318,87.23C61.347,87.498 61.34,87.75 61.303,87.958C61.25,88.264 61.132,88.473 60.977,88.495C60.715,88.532 60.444,88.026 60.372,87.364C60.299,86.702 60.451,86.136 60.713,86.099C60.919,86.07 61.13,86.377 61.246,86.833Z" style="fill:white;fill-opacity:0.15;"/>
    <path d="M62.436,149.952C62.386,149.891 62.359,149.858 62.359,149.858C62.254,149.705 62.02,149.744 61.968,149.92C61.792,150.519 58.302,159.998 57.944,160.916C56.639,164.259 55.542,167.277 54.65,169.969C54.406,170.705 53.605,173.542 53.61,174.274C43.865,174.285 35.21,174.299 28.134,174.317C29.113,169.144 28.675,163.85 27.238,158.901C25.782,153.904 23.804,149.13 20.955,144.682C20.893,144.585 20.747,144.611 20.717,144.721L19.161,150.714C18.865,151.339 17.612,153.175 17.14,152.964C16.336,153.052 15.678,153.045 15.16,152.938C11.092,152.097 6.676,149.948 3.061,147.57C3.002,147.531 2.937,147.505 2.865,147.492L2.615,147.443C2.651,147.319 2.582,147.205 2.416,147.104C1.55,146.57 0.779,145.923 0.102,145.164C0.014,145.063 -0.019,144.926 0.01,144.796C1.228,139.786 2.901,135.011 5.027,130.467C6.072,128.233 7.527,125.948 9.386,123.611C9.431,123.552 9.483,123.5 9.545,123.455C9.861,123.211 10.278,122.807 10.795,122.237C11.378,121.599 12.263,120.994 13.455,120.421C14.047,120.138 14.76,119.558 15.157,119.425C17.524,118.624 19.181,118.116 20.125,117.898C21.039,117.69 23.481,117.205 27.446,116.446C27.635,116.41 27.817,116.348 27.986,116.261C31.232,114.61 33.582,112.1 35.044,108.738C35.492,107.71 35.066,103.207 34.966,102.22C38.578,101.526 41.64,99.013 41.052,95.044C40.992,94.496 40.85,93.937 40.613,93.376C40.102,92.002 39.558,91.087 39.272,89.805C39.024,88.688 38.407,85.581 39.676,84.945C41.031,84.266 42.826,88.026 43.277,88.757C44.582,90.873 45.491,89.983 45.505,89.625C45.564,88.033 44.55,86.156 44.614,84.453C44.703,82.103 46.323,80.166 48.589,79.418C50.806,78.685 52.814,79.086 55.122,79.258C55.985,81.146 56.649,82.735 57.118,84.027C58.049,86.595 58.697,89.242 59.067,91.97C59.109,92.279 58.892,92.56 58.423,92.826C58.321,92.883 58.208,92.907 58.094,92.894L56.633,92.732C55.675,92.611 55.246,93.731 55.269,94.522C55.304,95.733 55.562,96.915 56.034,98.064C56.051,98.107 56.173,98.534 56.32,99.069C56.026,98.988 55.741,98.884 55.464,98.757L53.843,98.103C53.622,98.014 53.475,98.36 53.66,98.51C53.904,98.707 55.193,99.304 56.069,99.617C56.232,99.676 56.382,99.725 56.507,99.759C56.685,100.423 56.853,101.079 56.89,101.299C57.297,103.702 56.532,104.949 55.295,107.172C55.22,107.302 55.162,107.583 55.106,108.009C55.091,108.123 54.998,108.214 54.884,108.227C53.976,108.331 49.94,107.754 49.012,107.439C45.161,106.129 41.532,103.995 38.289,101.609C38.071,101.449 37.788,101.404 37.531,101.495L36.463,101.866C36.326,101.915 36.306,102.101 36.43,102.178C37.897,103.094 39.151,104.018 40.18,104.975C42.296,106.941 44.163,108.734 45.682,111.075C46.874,112.913 47.443,115.075 47.573,117.221C47.584,117.4 47.72,117.55 47.899,117.576L50.812,118.002C50.812,118.002 62.267,120.971 64.087,122.104C65.48,122.973 66.587,123.92 67.407,124.939C68.778,126.642 69.92,128.259 70.838,129.799C71.87,131.528 74.237,135.737 77.346,141.337C77.424,141.477 77.017,141.912 76.965,142.003C76.959,142.014 76.953,142.024 76.947,142.034C73.063,145.614 67.13,149.38 62.436,149.952ZM54.53,85.634C54.149,85.681 53.927,86.41 54.034,87.261C54.139,88.112 54.533,88.763 54.914,88.716C55.295,88.669 55.516,87.94 55.41,87.089C55.304,86.237 54.91,85.586 54.53,85.634ZM49.455,84.144L50.809,83.747C50.903,83.718 51.001,83.701 51.099,83.695L55.392,83.422C55.685,83.402 55.78,83.018 55.532,82.865C53.872,81.836 50.845,82.875 49.318,83.838C49.246,83.884 49.22,83.975 49.253,84.05C49.289,84.128 49.373,84.167 49.455,84.144Z" style="fill:white;fill-opacity:0.95;"/>
    <path d="M76.947,142.034C76.664,142.539 76.641,142.988 76.88,143.374C78.934,146.71 80.236,148.82 80.78,149.695C80.832,149.78 80.949,149.8 81.027,149.734C82.369,148.579 89.833,142.283 103.417,130.841C105.295,129.259 106.334,128.084 107.867,126.287C108.639,125.379 109.605,124.747 110.761,124.392C110.986,124.321 111.09,124.06 110.973,123.855C110.947,123.81 110.885,123.757 110.79,123.699C110.68,123.634 110.598,123.523 110.572,123.396L108.629,114.337C108.684,114.327 108.746,114.323 108.808,114.33C108.863,114.336 108.915,114.363 108.961,114.408C110.992,116.475 115.507,121.106 115.66,121.028C115.63,121.103 115.618,121.187 115.631,121.27L115.842,122.647C115.869,122.807 116.035,122.902 116.188,122.843C117.039,122.512 118.173,121.924 119.602,121.098C120.618,120.511 121.919,120.13 122.36,121.521C122.396,121.635 122.401,121.755 122.379,121.869C122.101,123.297 121.656,124.102 120.963,125.45C120.861,125.648 121.047,125.872 121.259,125.808C122.537,125.422 123.587,124.859 124.404,124.103C125.173,123.39 125.849,122.202 126.308,121.534C127.207,120.226 128.216,119.321 129.339,118.816C130.543,118.305 132.48,117.563 131.989,119.871C131.927,120.167 131.842,120.431 131.738,120.665C130.048,124.493 128.837,127.009 128.112,128.211C127.467,129.275 126.5,130.193 125.214,130.971C124.635,131.323 123.753,131.596 122.565,131.791C121.767,131.922 114.397,132.999 113.912,132.989C113.616,132.98 113.336,133.113 113.15,133.347C112.057,134.737 111.37,135.597 111.087,135.922C108.544,138.836 101.5,147.143 89.953,160.851C89.081,161.886 88.205,162.977 87.157,163.599C86.861,163.771 85.914,164.155 84.315,164.751C84.211,164.793 84.097,164.816 83.983,164.826C81.766,164.989 79.677,164.578 77.714,163.599C75.754,162.619 73.957,161.463 72.326,160.129C69.797,158.061 67.639,156.017 65.848,153.989C64.66,152.645 62.831,150.432 62.436,149.952C67.13,149.38 73.063,145.614 76.947,142.034Z" style="fill:white;fill-opacity:0.85;"/>
    <path d="M220.483,243.229C220.369,241.617 214.766,194.537 229.985,174.751C230.14,174.608 231.55,171.801 231.404,171.9C231.404,171.9 229.096,159.842 228.894,159.103C228.048,156.004 226.603,151.108 226.082,147.101C225.675,143.986 225.349,141.17 225.099,138.65C225.086,138.527 224.962,138.445 224.845,138.488L203.132,146.063C203.028,146.098 202.914,146.118 202.804,146.118C200.668,146.128 199.06,146.258 197.481,145.418C193.998,143.562 182.81,137.732 163.919,127.931C163.415,127.67 163.096,127.449 162.956,127.267C165.638,126.713 167.288,125.032 167.884,122.221C167.927,122.019 167.943,121.811 167.927,121.602L167.826,120.284L200.362,130.789C200.496,130.831 200.639,130.808 200.753,130.724C204.854,127.608 209.233,124.623 213.845,122.374C215.86,121.394 217.576,120.496 218.995,119.685C221.498,118.253 224.025,116.86 226.573,115.505C228.95,114.246 231.411,113.438 233.953,113.083C235.154,112.914 242.163,112.673 242.645,110.909C243.071,109.346 243.218,108.031 243.078,106.96C242.886,105.489 242.495,104.109 241.902,102.816C241.824,102.647 241.655,102.543 241.47,102.549L237.817,102.689C237.459,101.837 237.084,100.987 236.694,100.141C236.205,99.08 235.918,98.207 235.831,97.52C235.683,96.352 235.734,95.121 235.984,93.822C237.039,93.689 238.156,93.256 239.337,92.517C240.018,92.091 240.142,91.563 239.708,90.928C239.575,90.733 239.347,90.625 239.109,90.648L237.322,90.827C237.925,89.395 238.451,87.95 237.921,86.429C237.576,85.437 235.76,85.769 235.167,85.736C234.705,85.71 234.323,85.362 234.259,84.903C234.173,84.291 234.379,83.659 234.533,83.034C235.282,79.983 236.378,76.867 237.804,73.679C238.006,73.226 238.383,72.575 238.934,71.725C239.09,71.484 239.367,71.348 239.653,71.371C240.874,71.466 241.785,71.624 242.388,71.852C243.556,72.295 244.771,73.034 246.043,74.056C246.124,74.121 246.199,74.196 246.265,74.277L249.393,78.272C250.555,82.035 250.955,85.941 250.591,89.987C250.478,91.244 250.135,92.582 249.562,94.001C248.914,95.134 248.091,96.133 247.104,97.022C247.029,97.09 246.96,97.165 246.899,97.25C245.695,98.931 245.646,101 245.887,103.135C246.115,106.143 245.307,108.952 243.462,111.563C241.642,114.138 240.155,116.017 239.002,117.198C237.56,118.676 235.701,120.695 233.419,123.253C232.557,124.22 231.836,125.339 231.255,126.616C230.09,129.17 231.004,131.945 233.729,132.915C235.743,133.631 238.253,134.134 241.258,134.422C244.435,134.726 246.956,133.866 249.028,131.733C249.663,131.079 250.22,130.558 250.692,129.991C253.271,126.893 255.136,124.794 258.149,122.826C259.758,121.776 261.603,121.156 263.687,120.964C265.135,120.831 266.438,120.132 267.596,118.868C267.892,118.545 268.121,117.869 268.283,116.843C268.404,116.082 268.413,115.32 268.316,114.555C269.514,114.887 270.607,115.209 271.594,115.525C274.071,116.313 276.307,117.345 278.296,118.621C281.509,120.681 283.772,123.458 285.09,126.944C285.497,128.025 285.761,128.709 285.881,128.998C291.802,143.214 296.106,153.504 298.785,159.865C299.556,161.691 299.954,162.977 299.983,163.726C300.061,165.819 299.898,166.883 298.948,169.002C293.856,180.363 288.707,191.854 283.495,203.472C282.3,200.067 279.951,198.579 276.447,198.977C276.359,198.987 276.275,199.015 276.197,199.058C275.88,199.232 275.65,199.498 275.503,199.852C274.098,203.263 274.459,206.381 275.728,209.784C275.745,209.83 275.751,209.879 275.741,209.924L274.745,215.445C274.722,215.579 274.729,215.719 274.764,215.849L275.077,216.956C275.106,217.063 275.175,217.16 275.272,217.223C276.657,218.118 277.82,217.961 278.785,216.718C278.853,216.63 278.908,216.532 278.944,216.428L279.97,213.534C280.018,213.401 280.21,213.404 280.253,213.541C280.458,214.196 280.588,215.165 280.634,216.451C280.676,217.642 280.34,218.873 279.624,220.139C279.383,220.566 279.115,221.061 278.817,221.624C278.023,223.123 277.552,224.158 277.137,224.905C276.48,226.088 276.94,227.168 278.225,227.587C279.208,227.908 280.046,227.562 280.738,226.549C281.237,225.817 281.815,225.1 282.47,224.394C282.779,225.888 283.049,227.298 283.28,228.616C284.263,234.215 284.95,238.219 285.337,240.625C285.617,242.36 285.686,243.655 285.601,245.257C285.582,245.618 285.422,245.957 285.152,246.198C284.465,246.816 283.681,247.33 282.805,247.737C282.251,247.995 281.333,248.121 280.048,248.118C272.163,248.102 253.13,248.099 222.95,248.108C222.833,248.108 222.716,248.073 222.615,248.004C221.791,247.454 221.193,246.728 220.821,245.827C220.554,245.185 220.603,244.065 220.483,243.229ZM245.33,76.419C243.498,74.756 241.284,74.154 238.69,74.616C238.266,74.691 238.152,75.244 238.507,75.482C238.781,75.664 239.129,75.762 239.552,75.772C241.489,75.82 243.309,76.12 245.011,76.677C245.125,76.712 245.216,76.716 245.285,76.686C245.392,76.641 245.418,76.498 245.33,76.419ZM273.27,148.826C272.922,148.198 272.36,147.729 271.574,147.426C271.275,147.311 270.936,147.44 270.786,147.723C270.15,148.925 269.624,149.952 269.214,150.812C265.939,157.682 263.098,164.657 260.656,171.72C260.494,172.189 260.151,172.938 260.562,173.267C260.916,173.55 261.213,173.465 261.564,173.501C262.733,173.621 263.885,173.631 265.021,173.534C265.728,174.331 266.346,175.194 266.88,176.122C269.387,180.497 271.184,185.562 272.831,189.895C273.817,192.483 275.106,195.084 275.907,197.681C275.966,197.873 276.226,197.903 276.327,197.727C276.493,197.44 276.62,197.112 276.714,196.744C279.218,186.939 281.864,176.668 284.654,165.936C284.693,165.789 284.657,165.633 284.559,165.519C280.139,160.369 276.219,155.011 273.27,148.826ZM239.402,78.051C239.015,77.985 238.579,78.666 238.423,79.568C238.27,80.472 238.455,81.257 238.843,81.324C239.23,81.39 239.666,80.71 239.822,79.807C239.975,78.903 239.79,78.119 239.402,78.051Z" style="fill:white;fill-opacity:0.95;"/>
</svg>
