<?xml version="1.0" encoding="UTF-8" standalone="no"?>
<!DOCTYPE svg PUBLIC "-//W3C//DTD SVG 1.1//EN" "http://www.w3.org/Graphics/SVG/1.1/DTD/svg11.dtd">
<svg width="100%" height="100%" viewBox="0 0 300 300" version="1.1" xmlns="http://www.w3.org/2000/svg" xmlns:xlink="http://www.w3.org/1999/xlink" xml:space="preserve" xmlns:serif="http://www.serif.com/" style="fill-rule:evenodd;clip-rule:evenodd;stroke-linejoin:round;stroke-miterlimit:2;">
    <path d="M299.389,37.462C299.183,38.022 298.938,38.393 298.658,38.576C296.771,39.809 292.089,42.769 284.615,47.448C284.187,46.575 283.321,46.108 282.014,46.04C279.235,45.905 275.841,45.371 273.181,45.126C236.6,41.774 214.623,39.742 207.246,39.037C206.225,38.937 205.443,39.146 204.895,39.661C204.728,38.628 205.369,38.554 206.1,38.257C218.198,33.327 224.982,30.568 226.46,29.978C227.449,29.582 228.776,29.489 230.437,29.698C230.997,29.769 232.363,29.911 234.533,30.127C234.713,30.143 234.932,30.165 235.187,30.191C259.025,32.564 275.284,34.139 283.955,34.921C284.004,34.925 284.049,34.934 284.091,34.95C284.567,35.108 285.15,35.221 285.836,35.288C290.895,35.775 295.155,36.184 298.623,36.515C298.983,36.551 299.238,36.866 299.389,37.462Z" style="fill:white;fill-opacity:0.5;fill-rule:nonzero;"/>
    <path d="M241.295,150.246L240.896,149.914C241.273,149.615 241.466,149.303 241.472,148.984C241.569,144.489 241.569,138.348 241.472,130.562L253.989,122.759C254.491,122.962 254.9,123.03 255.216,122.956C255.29,122.94 255.3,122.837 255.232,122.808C255.216,122.804 255.177,122.798 255.113,122.795C254.997,122.788 254.955,122.64 255.045,122.569C255.322,122.35 255.509,122.115 255.602,121.861C255.625,121.796 255.638,121.729 255.638,121.661L255.628,103.168L269.233,94.577L270.083,94.603C270.189,94.606 270.292,94.558 270.357,94.474L271.004,93.633C271.068,93.55 271.104,93.447 271.104,93.344L271.091,74.834C275.003,72.352 278.935,69.876 282.886,67.406C283.15,67.241 283.575,67.19 284.161,67.254C284.255,67.264 284.332,67.18 284.316,67.087C284.297,66.99 284.242,66.884 284.152,66.771C284.47,66.456 284.631,66.06 284.638,65.583C284.699,59.571 284.689,53.524 284.615,47.448C292.089,42.769 296.771,39.809 298.658,38.576C298.938,38.393 299.183,38.022 299.389,37.462C299.702,37.742 299.856,38.1 299.856,38.534C299.84,48.5 299.834,54.754 299.837,57.291C299.837,57.446 299.888,57.832 299.991,58.447C300.007,58.557 300.001,58.67 299.972,58.779C299.692,59.797 298.752,59.819 297.953,60.228C292.083,63.226 288.28,65.174 286.547,66.076C286.403,66.15 286.312,66.301 286.312,66.462C286.309,69.711 286.309,75.778 286.312,84.662C286.312,84.894 286.364,85.261 286.47,85.767C286.489,85.863 286.486,85.966 286.461,86.063C286.167,87.187 285.356,87.139 284.631,87.506C280.436,89.618 275.953,91.917 271.188,94.4C270.985,94.506 270.856,94.712 270.856,94.941L270.856,112.919C270.856,113.173 270.907,113.569 271.01,114.104C271.027,114.197 271.027,114.29 271.004,114.381C270.717,115.533 269.893,115.472 269.172,115.839C265.205,117.855 261.118,119.948 256.91,122.115C256.774,122.183 256.691,122.321 256.691,122.473C256.681,127.783 256.681,133.721 256.691,140.29C256.691,140.547 256.739,140.956 256.839,141.513C256.861,141.636 256.855,141.761 256.819,141.883C256.536,142.853 255.631,142.895 254.836,143.3C250.308,145.59 245.794,147.905 241.295,150.246Z" style="fill:white;fill-opacity:0.25;fill-rule:nonzero;"/>
    <path d="M284.615,47.448C284.689,53.524 284.699,59.571 284.638,65.583C284.631,66.06 284.47,66.456 284.152,66.771C284.045,66.932 283.93,67.055 283.801,67.138C283.717,67.193 283.617,67.219 283.521,67.209C280.536,66.984 278.539,66.813 277.525,66.694C276.887,66.62 276.124,66.411 275.37,66.34C258.542,64.765 236.478,62.753 209.175,60.296C208.225,60.209 207.288,60.122 206.37,60.032L205.175,59.835C205.085,59.819 205.021,59.742 205.021,59.652L204.895,39.661C205.443,39.146 206.225,38.937 207.246,39.037C214.623,39.742 236.6,41.774 273.181,45.126C275.841,45.371 279.235,45.905 282.014,46.04C283.321,46.108 284.187,46.575 284.615,47.448Z" style="fill:white;fill-opacity:0.75;fill-rule:nonzero;"/>
    <path d="M49.042,52.738L45.098,53.102C44.203,53.096 43.188,53.108 42.055,53.137C41.778,53.144 40.976,53.028 39.653,52.793C38.01,52.5 35.933,53.073 35.057,54.818C34.578,55.775 34.098,56.873 33.618,58.106C33.557,58.257 33.534,58.425 33.55,58.589C33.821,61.336 35.074,72.629 40.049,70.542C40.757,70.243 41.536,69.457 42.109,69.164C42.853,68.787 43.758,68.723 44.827,68.974C45.513,69.077 46.228,69.174 46.969,69.264C48.431,69.441 49.564,69.025 50.372,68.011C50.427,71.415 49.673,74.686 48.105,77.826C47.877,78.286 47.571,78.689 47.191,79.034C47.114,79.104 47.023,79.159 46.927,79.198C45.062,79.935 43.056,80.106 40.908,79.716C40.59,79.661 40.409,79.816 40.367,80.183C38.49,79.932 36.642,79.22 34.819,78.051C34.539,77.874 34.207,77.826 33.821,77.91C32.069,77.768 30.446,77.327 28.949,76.583C28.827,76.525 28.72,76.438 28.633,76.335C28.347,75.994 28.031,75.804 27.69,75.762C27.413,75.305 27.043,74.902 26.579,74.558C25.8,73.978 25.368,73.643 25.284,73.55C24.743,72.948 24.322,72.339 23.719,71.717C21.211,69.138 19.266,67.093 18.864,63.361C18.722,62.051 18.635,61.307 18.606,61.133C18.577,60.959 18.574,60.785 18.596,60.615C18.896,58.138 19.272,56.242 19.72,54.931C19.833,54.612 20.815,51.94 22.666,46.919C22.963,46.114 23.613,45.139 24.334,44.475C26.956,42.064 30.433,41.4 33.924,41.268C37.006,41.152 39.929,41.284 42.696,41.664C45.584,42.06 47.738,42.395 49.161,42.669C50.894,43.004 55.36,42.83 55.457,42.84C55.801,42.878 56.078,43.245 56.12,43.719C56.201,44.675 56.236,45.403 56.233,45.899C56.217,47.238 55.805,48.426 55.128,49.499C54.935,49.808 54.661,50.059 54.336,50.226L51.986,51.44C51.95,51.457 51.915,51.469 51.876,51.479L49.042,52.738ZM31.77,70.191L30.987,60.334C30.984,60.276 30.939,60.231 30.881,60.225C29.091,60.086 27.667,61.007 27.01,62.672C26.376,64.279 26.479,65.924 27.316,67.602C27.664,68.301 28.05,68.752 28.476,68.961C29.213,69.322 30.292,69.747 31.718,70.233C31.744,70.243 31.773,70.22 31.77,70.191ZM48.801,74.525C49.126,74.281 49.129,73.791 48.804,73.543C48.53,73.337 48.16,73.228 47.69,73.212C46.305,73.17 44.467,73.279 43.681,72.616C42.911,71.965 42.419,71.56 42.2,71.399C41.907,71.186 41.517,71.205 41.285,71.447C41.111,71.627 41.047,71.875 41.089,72.191C41.607,76.036 46.209,76.483 48.801,74.525Z" style="fill:white;fill-opacity:0.25;fill-rule:nonzero;"/>
    <path d="M139.498,79.536C139.514,79.468 139.492,79.407 139.427,79.359C139.379,79.32 139.318,79.301 139.241,79.298C137.376,79.227 135.686,79.017 134.166,78.67C132.765,78.348 131.561,77.7 130.546,76.731C130.295,76.49 130.157,76.152 130.17,75.801C130.224,74.258 130.604,72.857 131.316,71.602C132.266,69.924 134.439,68.826 135.006,67.071C135.496,65.548 135.174,64.369 134.037,63.532C132.472,62.376 130.743,65.113 129.738,63.49C128.469,61.436 126.512,60.012 124.39,58.731C123.182,58 122.271,57.362 121.662,56.818C121.611,56.77 121.549,56.77 121.475,56.812C121.443,56.567 121.347,56.403 121.189,56.316C119.46,55.372 118.642,54.802 117.614,53.276C117.164,52.609 116.826,51.933 116.603,51.247C116.275,50.239 116.069,49.17 115.985,48.04C115.934,47.335 116.004,46.636 116.198,45.944C116.697,44.147 117.218,42.392 118.677,41.555C119.047,41.342 119.666,41.262 120.532,41.313C121.598,41.378 122.757,41.732 124.01,42.373C124.412,42.579 124.86,42.679 125.31,42.659C127.294,42.579 128.701,42.366 130.192,42.833C131.367,43.203 132.469,43.799 133.49,44.62C133.586,44.698 133.715,44.707 133.818,44.646L134.456,44.279C134.536,44.234 134.62,44.202 134.71,44.186C136.977,43.789 138.616,43.567 139.624,43.522C143.646,43.342 147.574,45.319 149.954,48.491C152.546,51.949 153.358,55.675 152.395,59.668C152.372,59.761 152.401,59.858 152.469,59.922C154.011,61.391 155.969,62.898 155.876,65.119C155.872,65.155 155.869,65.187 155.86,65.219L155.412,66.694C155.399,66.736 155.364,66.768 155.319,66.775L154.858,66.826C154.797,66.833 154.745,66.862 154.707,66.91C154.555,67.097 154.175,67.274 153.57,67.441C153.541,67.451 153.512,67.464 153.483,67.48C152.585,68.005 151.986,68.526 151.683,69.042C151.248,69.779 150.955,70.574 150.81,71.428C150.807,71.437 150.807,71.444 150.804,71.45L150.005,73.765C149.989,73.817 149.957,73.865 149.918,73.901C148.956,74.78 147.623,75.311 146.418,75.569C146.273,75.601 146.151,75.691 146.077,75.817C145.265,77.221 144.547,78.232 142.837,78.618C142.003,78.808 141.025,78.979 139.907,79.133C139.788,79.149 139.65,79.285 139.498,79.536Z" style="fill:white;fill-opacity:0.5;fill-rule:nonzero;"/>
    <path d="M49.042,52.738C49.902,54.506 50.363,56.287 50.424,58.08L49.487,57.993C49.129,57.961 48.907,58.373 49.133,58.653C49.477,59.079 49.912,59.43 50.437,59.71C50.527,59.758 50.588,59.848 50.601,59.948L50.694,60.692C50.717,61.114 50.685,66.076 50.372,68.011C49.564,69.025 48.431,69.441 46.969,69.264C46.228,69.174 45.513,69.077 44.827,68.974C44.946,68.449 45.175,68.053 45.513,67.779C45.6,67.708 45.71,67.676 45.819,67.686C46.746,67.766 48.566,68.449 48.45,66.707C48.295,64.366 47.758,62.096 47.162,59.629C47.014,59.017 46.798,58.747 46.518,58.814L46.321,58.177L46.45,58.151C46.544,58.132 46.602,58.035 46.573,57.945L45.098,53.102L49.042,52.738ZM48.948,60.676C48.759,60.676 48.611,61.181 48.614,61.799C48.617,62.418 48.775,62.917 48.963,62.917C49.152,62.917 49.3,62.411 49.297,61.794C49.294,61.175 49.136,60.676 48.948,60.676Z" style="fill:white;fill-opacity:0.75;fill-rule:nonzero;"/>
    <path d="M45.098,53.102L46.573,57.945C46.602,58.035 46.544,58.132 46.45,58.151L46.321,58.177C45.471,57.465 42.328,57.89 41.778,58.872C41.626,59.143 41.804,59.481 42.119,59.52C43.726,59.71 45.191,59.475 46.518,58.814C46.798,58.747 47.014,59.017 47.162,59.629C47.758,62.096 48.295,64.366 48.45,66.707C48.566,68.449 46.746,67.766 45.819,67.686C45.71,67.676 45.6,67.708 45.513,67.779C45.175,68.053 44.946,68.449 44.827,68.974C43.758,68.723 42.853,68.787 42.109,69.164C41.536,69.457 40.757,70.243 40.049,70.542C35.074,72.629 33.821,61.336 33.55,58.589C33.534,58.425 33.557,58.257 33.618,58.106C34.098,56.873 34.578,55.775 35.057,54.818C35.933,53.073 38.01,52.5 39.653,52.793C40.976,53.028 41.778,53.144 42.055,53.137C43.188,53.108 44.203,53.096 45.098,53.102ZM43.624,60.653C43.362,60.653 43.15,61.236 43.15,61.955C43.15,62.672 43.365,63.255 43.628,63.255C43.89,63.255 44.103,62.672 44.103,61.953C44.103,61.236 43.887,60.653 43.624,60.653Z" style="fill:white;fill-opacity:0.95;fill-rule:nonzero;"/>
    <path d="M142.32,83.634C142.568,83.887 142.839,84.159 143.134,84.45C143.234,84.55 143.366,84.608 143.504,84.614L146.26,84.733C146.354,84.736 146.444,84.752 146.531,84.775C148.466,85.306 149.693,85.625 150.208,85.738C152.923,86.33 154.533,87.432 156.188,89.528C156.658,90.124 157.08,90.948 157.457,91.994C157.817,93.006 158.178,93.898 158.539,94.667C158.999,95.652 158.6,96.59 158.777,97.646C159.125,99.736 159.247,101.394 159.147,102.624C158.906,105.557 157.949,108.446 156.285,111.283C155.824,110.983 155.264,110.8 154.597,110.739C149.841,110.294 145.52,109.853 141.633,109.415C141.485,109.399 141.356,109.512 141.353,109.663C141.318,114.149 141.685,118.457 142.458,122.589C142.783,124.337 143.124,125.802 143.478,126.981C144.151,129.225 144.544,130.661 144.663,131.296C144.847,132.265 145.275,133.437 145.955,134.815C147.674,138.316 149.719,141.558 152.086,144.537L152.868,146.276C153.38,147.503 153.886,148.729 154.382,149.963C154.604,150.52 154.794,151.083 154.952,151.66C155.116,152.268 155.267,152.845 155.409,153.386C155.963,155.656 156.323,157.533 156.488,159.011C156.655,160.505 156.893,161.861 156.922,163.223C157.006,167.09 157.164,170.868 157.399,174.555C157.511,177.395 157.454,180.216 157.772,182.969C157.859,183.713 157.924,184.476 157.966,185.258C157.872,189.035 157.933,192.829 158.152,196.641C158.275,198.76 158.162,200.518 158.461,202.425C158.616,203.413 158.503,204.985 158.874,206.327L159.572,217.044C159.621,218.448 159.894,219.762 159.865,221.568C159.859,221.913 159.881,222.26 159.933,222.602C160.123,223.887 160.213,225.178 160.204,226.476C160.2,226.868 160.232,227.258 160.297,227.641C160.571,229.261 160.664,230.832 160.58,232.349L160.58,232.365L160.854,234.107C160.864,234.165 160.864,234.223 160.86,234.278C160.767,235.653 160.873,236.944 161.179,238.158L161.556,243.871C161.569,244.073 161.463,244.263 161.285,244.357L160.178,244.943L156.368,246.344C154.224,247.023 152.182,247.4 150.241,247.467C149.671,247.632 149.097,247.696 148.515,247.654C148.411,247.648 148.325,247.574 148.299,247.474C147.706,245.281 146.879,243.156 145.819,241.092C145.774,241.001 145.787,240.889 145.855,240.811C146.132,240.493 146.202,240.1 146.067,239.633C145.929,239.156 145.732,238.184 145.478,236.715C145.04,234.31 144.612,231.898 144.193,229.486C143.965,228.163 143.836,226.701 143.813,225.097C143.775,222.347 143.752,220.876 143.742,220.679C143.662,218.905 143.594,217.186 143.539,215.524C143.568,214.223 143.52,213.003 143.395,211.86C143.205,210.166 143.256,209.016 142.97,207.644C142.815,206.888 142.944,205.796 142.738,204.856C142.599,202.753 142.316,201.059 141.891,199.781C140.068,194.271 138.291,188.759 136.562,183.242L134.662,176.673C134.301,174.783 134.095,174.452 134.047,175.678L133.538,182.808C133.49,183.423 133.464,184.118 133.461,184.894C133.457,185.641 133.399,186.331 133.293,186.965C132.826,189.712 132.511,191.483 132.346,192.272C131.902,194.445 131.052,198.248 129.793,203.68C129.642,204.315 129.503,204.936 129.377,205.545C129.033,207.174 128.505,208.797 127.8,210.233C127.207,211.441 126.653,212.677 126.138,213.946L117.476,234.143C117.366,234.919 117.218,235.666 117.028,236.384L116.455,238.593C115.186,244.544 114.407,250.047 113.689,256.442C113.679,256.542 113.605,256.625 113.509,256.648L112.569,256.877C112.288,256.822 111.863,256.831 111.287,256.902C110.736,256.97 109.741,256.822 108.308,256.461C106.908,256.294 103.523,255.492 102.834,254.207C102.222,252.819 101.987,251.435 102.132,250.05C102.651,245.081 103.575,239.868 104.898,234.416C106.241,228.894 108.215,223.581 109.86,218.171C112.591,209.187 115.035,199.974 116.446,190.671C116.941,187.403 117.028,183.906 117.225,180.67C117.37,178.264 117.424,175.872 117.389,173.486C117.328,169.338 117.486,165.113 117.866,160.814C117.914,160.28 118.043,159.958 118.191,159.543C118.246,159.394 118.281,159.243 118.3,159.085C118.387,158.38 118.59,157.153 118.906,155.401C119.115,154.233 119.817,153.476 121.005,153.125C123.539,152.378 126.045,151.83 128.521,151.486C130.846,151.161 132.878,151.109 134.613,151.331C135.064,151.389 135.48,151.077 135.55,150.629L135.56,150.571C135.628,150.146 135.299,149.76 134.868,149.766C130.875,149.811 127.101,149.467 123.546,148.733C122.802,148.578 121.968,148.24 121.041,147.722C120.841,147.609 120.316,147.383 119.463,147.042C118.342,146.594 117.473,145.76 116.858,144.537C116.842,144.215 116.735,143.442 116.536,142.222C116.21,140.215 115.837,135.83 115.418,129.071C115.418,129.067 115.415,129.067 115.412,129.071L115.405,129.08C115.396,129.096 115.389,129.113 115.389,129.122C115.399,129.171 115.399,129.216 115.396,129.254C115.396,129.261 115.389,129.264 115.383,129.264C115.376,129.261 115.373,129.254 115.373,129.248C115.441,128.678 115.357,128.301 115.116,128.118C115.196,127.85 115.219,127.502 115.183,127.071C115.183,127.058 115.196,127.048 115.209,127.052L115.318,127.084C115.357,127.094 115.393,127.061 115.386,127.023L115.232,126.253C115.225,126.218 115.222,126.179 115.222,126.144L115.151,117.617C115.148,117.436 115.016,117.282 114.835,117.256C112.346,116.902 109.841,116.39 107.317,115.717C107.178,115.681 106.901,115.588 106.486,115.443C106.186,115.34 105.903,115.273 105.636,115.244C105.046,114.928 104.406,114.735 103.713,114.664C103.539,114.645 103.398,114.506 103.378,114.332L103.233,113.07C103.208,112.845 103.211,112.616 103.246,112.391C103.81,108.591 104.847,104.814 105.919,101.449C106.92,98.303 108.254,95.256 109.918,92.316C110.517,91.257 111.551,90.011 113.023,88.571C114.114,87.506 115.579,86.314 117.418,85C119.163,83.754 121.115,83.004 123.269,82.756C123.688,82.708 124.084,82.54 124.409,82.273C124.426,82.259 124.442,82.246 124.459,82.232C126.652,83.474 130.179,84.605 135.857,84.699C137.906,84.733 140.16,84.284 142.32,83.634Z" style="fill:white;fill-opacity:0.95;"/>
    <path d="M124.459,82.232C125.739,81.194 126.635,80.575 127.226,79.481C127.291,79.359 127.207,79.211 127.072,79.204L124.786,79.062C124.747,79.059 124.708,79.053 124.67,79.037C122.905,78.377 122.19,76.309 121.588,74.648C121.45,74.265 121.488,73.843 121.691,73.492L122.625,71.872C122.854,71.479 122.448,71.022 122.029,71.202C121.884,71.263 121.694,71.379 121.459,71.547C121.327,71.64 121.144,71.556 121.124,71.395L120.58,66.668C120.567,66.552 120.599,66.436 120.67,66.346L121.14,65.734C121.179,65.683 121.202,65.619 121.205,65.551L121.25,64.331C121.253,64.224 121.205,64.121 121.121,64.054L120.802,63.809C120.699,63.728 120.641,63.6 120.654,63.471L120.78,62.118C120.789,62.006 120.912,61.935 121.018,61.983L122.796,62.788C122.937,62.849 123.066,62.685 122.973,62.563C122.435,61.877 121.768,61.432 120.973,61.236C120.88,61.213 120.815,61.133 120.809,61.036C120.709,59.568 120.931,58.161 121.475,56.812C121.549,56.77 121.611,56.77 121.662,56.818C122.271,57.362 123.182,58 124.39,58.731C126.512,60.012 128.469,61.436 129.738,63.49C130.743,65.113 132.472,62.376 134.037,63.532C135.174,64.369 135.496,65.548 135.006,67.071C134.439,68.826 132.266,69.924 131.316,71.602C130.604,72.857 130.224,74.258 130.17,75.801C130.157,76.152 130.295,76.49 130.546,76.731C131.561,77.7 132.765,78.348 134.166,78.67C135.686,79.017 137.376,79.227 139.241,79.298C139.318,79.301 139.379,79.32 139.427,79.359C139.492,79.407 139.514,79.468 139.498,79.536C139.869,80.495 140.229,81.217 140.58,81.7C140.878,82.11 141.457,82.755 142.32,83.634C140.16,84.284 137.906,84.733 135.857,84.699C130.179,84.605 126.652,83.474 124.459,82.232Z" style="fill:white;fill-opacity:0.85;"/>
    <path d="M46.321,58.177L46.518,58.814C45.191,59.475 43.726,59.71 42.119,59.52C41.804,59.481 41.626,59.143 41.778,58.872C42.328,57.89 45.471,57.465 46.321,58.177Z" style="fill:white;fill-opacity:0.15;fill-rule:nonzero;"/>
    <path d="M50.424,58.08C52.588,58.951 53.104,59.815 52.565,60.016C52.532,60.028 50.527,59.758 50.437,59.71C49.912,59.43 49.477,59.079 49.133,58.653C48.907,58.373 49.129,57.961 49.487,57.993L50.424,58.08Z" style="fill:white;fill-opacity:0.15;fill-rule:nonzero;"/>
    <path d="M284.152,66.771C284.242,66.884 284.297,66.99 284.316,67.087C284.332,67.18 284.255,67.264 284.161,67.254C283.575,67.19 283.15,67.241 282.886,67.406C278.935,69.876 275.003,72.352 271.091,74.834C270.705,73.997 269.951,73.54 268.827,73.463C265.826,73.26 262.171,72.725 259.167,72.452C236.665,70.394 214.768,68.378 193.48,66.398C192.466,66.304 191.761,66.578 191.364,67.222C191.191,66.485 191.426,66.011 192.07,65.799C192.414,65.686 192.591,65.625 192.601,65.622C197.157,63.738 201.749,61.877 206.37,60.032C207.288,60.122 208.225,60.209 209.175,60.296C236.478,62.753 258.542,64.765 275.37,66.34C276.124,66.411 276.887,66.62 277.525,66.694C278.539,66.813 280.536,66.984 283.521,67.209C283.617,67.219 283.717,67.193 283.801,67.138C283.93,67.055 284.045,66.932 284.152,66.771Z" style="fill:white;fill-opacity:0.5;fill-rule:nonzero;"/>
    <path d="M31.77,70.191C31.773,70.22 31.744,70.243 31.718,70.233C30.292,69.747 29.213,69.322 28.476,68.961C28.05,68.752 27.664,68.301 27.316,67.602C26.479,65.924 26.376,64.279 27.01,62.672C27.667,61.007 29.091,60.086 30.881,60.225C30.939,60.231 30.984,60.276 30.987,60.334L31.77,70.191Z" style="fill:white;fill-opacity:0.95;fill-rule:nonzero;"/>
    <path d="M43.624,60.653C43.887,60.653 44.103,61.236 44.103,61.953C44.103,62.672 43.89,63.255 43.628,63.255C43.365,63.255 43.15,62.672 43.15,61.955C43.15,61.236 43.362,60.653 43.624,60.653Z" style="fill:white;fill-opacity:0.15;fill-rule:nonzero;"/>
    <path d="M48.948,60.676C49.136,60.676 49.294,61.175 49.297,61.794C49.3,62.411 49.152,62.917 48.963,62.917C48.775,62.917 48.617,62.418 48.614,61.799C48.611,61.181 48.759,60.676 48.948,60.676Z" style="fill:white;fill-opacity:0.15;fill-rule:nonzero;"/>
    <path d="M271.091,74.834L271.104,93.344C271.104,93.447 271.068,93.55 271.004,93.633L270.357,94.474C270.292,94.558 270.189,94.606 270.083,94.603L269.233,94.577C267.417,94.377 265.675,94.187 264.007,94.004C263.617,93.962 263.24,93.91 262.876,93.849C262.432,93.775 262.055,93.727 261.746,93.698C241.163,91.801 220.568,89.905 199.959,88.011C198.758,87.898 196.494,87.715 193.168,87.461L191.674,87.225C191.587,87.213 191.522,87.142 191.509,87.055C191.416,86.272 191.368,85.741 191.368,85.467C191.358,79.417 191.355,73.334 191.364,67.222C191.761,66.578 192.466,66.304 193.48,66.398C214.768,68.378 236.665,70.394 259.167,72.452C262.171,72.725 265.826,73.26 268.827,73.463C269.951,73.54 270.705,73.997 271.091,74.834Z" style="fill:white;fill-opacity:0.75;fill-rule:nonzero;"/>
    <path d="M53.728,118.209C55.93,117.275 57.711,116.165 59.07,114.876C60.406,113.611 61.958,112.284 63.043,111.019C64.859,108.894 66.119,106.614 66.817,104.183C67.213,103.577 67.667,103.017 68.186,102.502C69.023,101.664 69.522,101.146 69.686,100.946C72.659,97.279 75.334,93.424 77.721,89.389C77.837,89.196 77.882,88.974 77.856,88.752C77.347,84.675 79.469,80.644 82.155,77.765C82.29,77.62 82.412,77.465 82.519,77.298C83.62,75.591 87.706,69.698 89.484,69.753C89.799,69.763 90.05,70.02 90.047,70.336C90.044,70.848 89.918,71.373 89.667,71.904C89.133,73.038 88.395,74.377 87.458,75.926C87.333,76.132 87.413,76.399 87.629,76.503C88.865,77.089 89.493,77.269 90.26,78.351C90.488,78.676 90.756,78.966 91.061,79.227C92.449,80.399 92.185,83.342 91.712,84.894C90.826,87.821 89.458,90.391 87.61,92.606C86.859,93.505 85.842,94.065 84.554,94.284C84.454,94.3 84.373,94.381 84.354,94.484C84.273,94.918 83.784,96.567 82.889,99.426C80.161,108.15 75.982,116.061 70.356,123.162C70.118,123.461 69.835,123.719 69.516,123.931C64.502,127.242 59.81,124.347 55.995,120.95C54.909,119.984 54.153,119.069 53.728,118.209Z" style="fill:white;fill-opacity:0.75;fill-rule:nonzero;"/>
    <path d="M48.801,74.525C46.209,76.483 41.607,76.036 41.089,72.191C41.047,71.875 41.111,71.627 41.285,71.447C41.517,71.205 41.907,71.186 42.2,71.399C42.419,71.56 42.911,71.965 43.681,72.616C44.467,73.279 46.305,73.17 47.69,73.212C48.16,73.228 48.53,73.337 48.804,73.543C49.129,73.791 49.126,74.281 48.801,74.525Z" style="fill:white;fill-opacity:0.95;fill-rule:nonzero;"/>
    <path d="M33.821,77.91C34.188,78.335 34.954,79.127 36.123,80.289C36.687,80.853 37.276,81.664 37.885,82.724C38.017,82.959 38.458,83.223 39.205,83.516C39.308,83.558 39.398,83.619 39.475,83.696C39.685,83.912 39.904,84.179 40.126,84.498C40.245,84.665 40.458,84.743 40.767,84.733L43.224,85.332C43.323,85.358 43.426,85.342 43.517,85.287C43.868,85.071 44.244,85.013 44.653,85.107C48.617,86.024 50.936,86.598 51.609,86.826C53.48,87.467 55.077,88.758 56.394,90.694C57.949,92.977 59.752,95.466 61.81,98.161C61.91,98.29 62.087,98.509 62.348,98.818C63.723,100.45 65.21,102.238 66.817,104.183C66.119,106.614 64.859,108.894 63.043,111.019C61.958,112.284 60.406,113.611 59.07,114.876C57.711,116.165 55.93,117.275 53.728,118.209L52.613,118.586C52.362,118.235 51.95,118.322 51.377,118.84C51.28,118.924 51.158,118.976 51.032,118.979C49.21,119.047 48.096,118.023 47.236,116.561C45.809,114.133 44.789,112.246 42.786,111.07C42.563,110.938 42.274,111.012 42.145,111.238C42.077,111.354 42.039,111.454 42.026,111.54C41.472,115.16 42.006,118.724 43.633,122.238C44.344,123.774 45.252,124.788 47.097,124.885C48.852,124.975 50.565,124.63 52.237,123.851C52.723,128.137 52.974,130.851 52.993,131.998C53.067,136.284 53.058,141.062 52.971,146.327C52.961,146.984 53.058,147.567 53.344,148.217C54.842,151.611 55.84,155.199 56.346,158.982C56.513,160.228 56.622,161.033 56.674,161.394C56.957,163.336 56.89,165.542 56.986,167.419C57.221,171.966 57.379,175.856 57.46,179.092C57.521,181.446 57.746,183.545 57.775,185.355C57.83,188.665 57.956,193.26 58.152,199.137C58.213,200.963 58.365,203.249 58.609,205.999C58.941,209.699 59.244,213.55 59.511,217.549C59.591,218.76 59.636,219.465 59.646,219.668C59.675,220.554 59.756,221.645 59.891,222.937C59.984,223.825 60.049,224.914 60.091,226.202C60.139,227.696 60.319,229.19 60.635,230.687C60.654,230.781 60.66,230.877 60.654,230.977L60.509,232.645C60.506,232.677 60.506,232.71 60.509,232.739L61.443,244.498C61.465,244.772 61.285,245.017 61.021,245.081C60.657,245.165 60.329,245.349 60.036,245.629L55.956,247.075C53.866,247.696 52.359,248.018 51.435,248.041C50.697,248.06 50.234,248.092 50.037,248.137C49.509,248.289 48.968,248.35 48.418,248.327C48.315,248.324 48.224,248.263 48.183,248.169C48.012,247.793 47.902,247.419 47.851,247.049C47.844,246.994 47.832,246.939 47.812,246.885C47.136,244.898 46.453,243.243 45.764,241.926C45.613,241.639 45.606,241.446 45.739,241.349C45.974,241.179 46.057,240.947 45.996,240.654C45.455,238.126 44.872,235.225 44.244,231.943C43.906,230.163 43.694,228.131 43.613,225.844C43.491,222.341 43.423,219.768 43.41,218.123C43.391,215.331 43.288,212.98 43.098,211.071C42.702,207.045 42.464,204.704 42.386,204.048C42.203,202.499 41.849,200.947 41.324,199.391C39.781,194.819 38.004,189.267 35.991,182.737C35.305,180.512 34.674,178.235 34.095,175.904C34.088,175.885 34.072,175.872 34.053,175.872C34.03,175.875 34.014,175.891 34.014,175.91C33.708,179.958 33.512,183.017 33.431,185.088C33.364,186.849 33.164,188.581 32.832,190.288C31.715,196.033 30.591,201.114 29.467,205.532C28.907,207.728 28.534,209.007 28.344,209.37C28.337,209.383 27.803,210.604 26.743,213.028C24.202,218.847 21.333,225.506 18.136,232.999C17.537,234.4 17.263,235.605 16.857,237.031C16.159,239.485 15.431,243.243 14.668,248.308C14.239,251.164 13.863,254.088 13.541,257.079C13.528,257.199 13.441,257.298 13.322,257.324L12.385,257.53C10.945,257.604 9.512,257.459 8.083,257.096C6.772,256.925 3.246,256.11 2.657,254.78C1.71,252.632 1.952,250.649 2.203,248.73C3.011,242.57 4.206,236.703 5.787,231.135C5.973,230.481 7.091,226.984 9.142,220.65C10.343,216.944 11.699,212.127 13.215,206.205C14.758,200.183 15.843,194.812 16.474,190.088C16.58,189.293 16.648,188.614 16.671,188.053C16.745,186.244 16.948,185.014 16.97,182.949C16.98,182.038 17.041,180.966 17.157,179.733C17.389,177.256 17.221,173.672 17.225,172.172C17.234,168.391 17.424,165.954 17.704,161.33C17.711,161.23 17.73,161.13 17.759,161.033L18.094,159.987C18.139,159.848 18.171,159.707 18.187,159.562C18.326,158.403 18.538,157.169 18.818,155.862C19.034,154.851 19.617,154.191 20.567,153.885C23.607,152.903 26.83,152.252 30.24,151.927C31.538,151.805 32.945,151.821 34.458,151.975C34.909,152.02 35.318,151.708 35.389,151.26L35.392,151.225C35.46,150.8 35.132,150.414 34.7,150.42C31.812,150.452 28.695,150.23 25.352,149.753C23.694,149.518 22.241,149.074 21.002,148.42C20.738,148.282 20.181,148.04 19.33,147.696C18.168,147.222 17.295,146.382 16.716,145.171C16.561,144.17 16.442,143.168 16.358,142.167C16.249,140.882 15.956,139.816 15.975,138.531C15.985,137.91 15.759,137.131 15.74,136.586C15.663,134.419 15.344,131.988 15.251,129.634C15.225,128.948 15.18,128.243 15.112,127.515L15.025,118.37C15.022,118.122 14.838,117.913 14.594,117.881C11.57,117.482 8.562,116.802 5.568,115.839L3.423,115.244C3.32,115.218 3.246,115.131 3.233,115.025C3.124,114.007 3.021,113.386 3.224,112.217C4.019,107.622 5.284,103.123 7.014,98.718C7.97,96.274 8.946,94.271 9.934,92.713C11.683,89.956 14.355,87.731 17.318,85.609C19.704,83.899 22.299,83.487 25.12,83.046C25.22,83.03 25.317,83.049 25.404,83.094C25.632,83.213 25.887,83.113 26.17,82.795C26.212,82.75 26.241,82.698 26.257,82.64C26.708,81.043 27.133,79.298 27.535,77.407C27.642,76.918 27.693,76.37 27.69,75.762C28.031,75.804 28.347,75.994 28.633,76.335C28.72,76.438 28.827,76.525 28.949,76.583C30.446,77.327 32.069,77.768 33.821,77.91Z" style="fill:white;fill-opacity:0.95;fill-rule:nonzero;"/>
    <path d="M40.367,80.183C40.355,81.8 40.213,82.985 40.767,84.733C40.458,84.743 40.245,84.665 40.126,84.498C39.904,84.179 39.685,83.912 39.475,83.696C39.398,83.619 39.308,83.558 39.205,83.516C38.458,83.223 38.017,82.959 37.885,82.724C37.276,81.664 36.687,80.853 36.123,80.289C34.954,79.127 34.188,78.335 33.821,77.91C34.207,77.826 34.539,77.874 34.819,78.051C36.642,79.22 38.49,79.932 40.367,80.183Z" style="fill:white;fill-opacity:0.75;fill-rule:nonzero;"/>
    <path d="M269.233,94.577L255.628,103.168C255.332,102.469 254.813,102.051 254.069,101.909C252.286,101.568 250.389,101.542 248.605,101.32C246.596,101.072 245.172,100.908 244.332,100.834C228.37,99.404 206.438,97.382 178.542,94.767C177.592,94.677 176.301,94.645 175.908,95.594C175.734,94.818 175.972,94.332 176.626,94.129C177.029,94.004 177.241,93.936 177.267,93.926C182.487,91.753 187.787,89.599 193.168,87.461C196.494,87.715 198.758,87.898 199.959,88.011C220.568,89.905 241.163,91.801 261.746,93.698C262.055,93.727 262.432,93.775 262.876,93.849C263.24,93.91 263.617,93.962 264.007,94.004C265.675,94.187 267.417,94.377 269.233,94.577Z" style="fill:white;fill-opacity:0.5;fill-rule:nonzero;"/>
    <path d="M255.628,103.168L255.638,121.661C255.638,121.729 255.625,121.796 255.602,121.861C255.509,122.115 255.322,122.35 255.045,122.569C254.955,122.64 254.997,122.788 255.113,122.795C255.177,122.798 255.216,122.804 255.232,122.808C255.3,122.837 255.29,122.94 255.216,122.956C254.9,123.03 254.491,122.962 253.989,122.759C252.324,122.769 250.508,122.653 248.541,122.408C248.016,122.344 247.41,122.138 246.934,122.093C221.421,119.745 201.263,117.887 186.457,116.525C184.058,116.306 179.911,116.007 176.642,115.601L176.211,115.553C176.114,115.543 176.04,115.459 176.04,115.363L175.908,95.594C176.301,94.645 177.592,94.677 178.542,94.767C206.438,97.382 228.37,99.404 244.332,100.834C245.172,100.908 246.596,101.072 248.605,101.32C250.389,101.542 252.286,101.568 254.069,101.909C254.813,102.051 255.332,102.469 255.628,103.168Z" style="fill:white;fill-opacity:0.75;fill-rule:nonzero;"/>
    <path d="M156.285,111.283C156.12,113.624 156.169,116.152 156.426,118.863C156.649,121.214 156.858,123.577 157.312,125.889C157.737,128.056 158.242,130.162 158.825,132.204C159.572,134.812 160.538,137.356 161.723,139.835L163.295,142.672C163.655,143.255 163.977,143.793 164.261,144.286C164.654,144.962 165.256,145.448 165.488,146.134C165.517,146.215 165.559,146.292 165.613,146.359C165.948,146.755 166.196,146.926 166.38,147.39C166.624,148.015 167.194,148.44 167.497,149.09C167.871,149.892 168.885,150.578 169.39,151.46C169.799,152.175 171.229,153.94 172.369,154.101C173.084,154.2 173.338,154.793 174.015,155.015C174.256,155.092 174.504,155.144 174.758,155.166L175.193,156.332C175.254,156.487 175.341,156.632 175.454,156.754C175.927,157.269 176.259,157.833 176.455,158.444C176.903,159.858 177.454,161.04 178.281,162.254C178.973,163.268 179.115,164.218 179.566,165.174C179.614,165.281 179.65,165.397 179.666,165.513C179.82,166.546 180.101,167.061 179.089,167.747C177.969,168.504 177.434,168.681 176.133,168.14C173.593,167.081 171.239,166.066 169.79,163.619C169.751,163.555 169.374,162.627 168.656,160.834C167.822,158.76 166.602,156.983 164.989,155.501C164.341,154.906 163.623,154.4 162.831,153.991C162.593,153.572 162.306,153.289 161.975,153.144C161.456,152.916 161.186,152.787 161.157,152.751C160.667,152.181 160.229,151.737 159.492,151.418C159.376,151.37 159.266,151.299 159.176,151.209L153.419,145.596C152.971,145.113 152.527,144.759 152.086,144.537C149.719,141.558 147.674,138.316 145.955,134.815C145.275,133.437 144.847,132.265 144.663,131.296C144.544,130.661 144.151,129.225 143.478,126.981C143.124,125.802 142.783,124.337 142.458,122.589C141.685,118.457 141.318,114.149 141.353,109.663C141.356,109.512 141.485,109.399 141.633,109.415C145.52,109.853 149.841,110.294 154.597,110.739C155.264,110.8 155.824,110.983 156.285,111.283Z" style="fill:white;fill-opacity:0.75;fill-rule:nonzero;"/>
    <path d="M52.613,118.586C51.96,118.773 51.667,119.191 51.734,119.842C51.879,121.252 52.047,122.589 52.237,123.851C50.565,124.63 48.852,124.975 47.097,124.885C45.252,124.788 44.344,123.774 43.633,122.238C42.006,118.724 41.472,115.16 42.026,111.54C42.039,111.454 42.077,111.354 42.145,111.238C42.274,111.012 42.563,110.938 42.786,111.07C44.789,112.246 45.809,114.133 47.236,116.561C48.096,118.023 49.21,119.047 51.032,118.979C51.158,118.976 51.28,118.924 51.377,118.84C51.95,118.322 52.362,118.235 52.613,118.586Z" style="fill:white;fill-opacity:0.5;fill-rule:nonzero;"/>
    <path d="M115.116,128.118C114.845,128.823 113.821,145.973 113.937,148.581C113.998,149.921 114.282,151.206 114.787,152.439L113.074,163.548C111.986,161.536 111.19,160.09 111.145,157.839C111.136,157.276 110.788,156.355 110.105,155.07C106.898,149.045 104.898,145.638 104.013,140.409C103.842,139.388 103.449,129.818 103.546,128.211C103.61,127.161 103.762,125.825 104.003,124.199C104.332,121.967 104.876,119.146 105.639,115.73C105.661,115.633 105.658,115.472 105.636,115.244C105.903,115.273 106.186,115.34 106.486,115.443C106.901,115.588 107.178,115.681 107.317,115.717C109.841,116.39 112.346,116.902 114.835,117.256C115.016,117.282 115.148,117.436 115.151,117.617L115.222,126.144C115.222,126.179 115.225,126.218 115.232,126.253L115.386,127.023C115.393,127.061 115.357,127.094 115.318,127.084L115.209,127.052C115.196,127.048 115.183,127.058 115.183,127.071C115.219,127.502 115.196,127.85 115.116,128.118Z" style="fill:white;fill-opacity:0.75;fill-rule:nonzero;"/>
    <path d="M253.989,122.759L241.472,130.562C241.031,129.644 240.114,129.158 238.722,129.103C236.127,129.006 232.868,128.462 230.35,128.233C210.105,126.395 187.832,124.327 163.533,122.038C162.838,121.97 162.239,122.205 161.739,122.743C161.669,122.193 161.826,121.832 162.213,121.664C165.459,120.264 170.237,118.319 176.546,115.83C176.607,115.807 176.649,115.749 176.652,115.681C176.652,115.653 176.649,115.627 176.642,115.601C179.911,116.007 184.058,116.306 186.457,116.525C201.263,117.887 221.421,119.745 246.934,122.093C247.41,122.138 248.016,122.344 248.541,122.408C250.508,122.653 252.324,122.769 253.989,122.759Z" style="fill:white;fill-opacity:0.5;fill-rule:nonzero;"/>
    <path d="M15.112,127.515L14.697,129.457C14.69,129.486 13.653,146.669 13.74,149.051C13.789,150.349 14.091,151.711 14.648,153.141L12.871,164.138C12.597,163.574 12.317,163.03 12.034,162.505C11.357,161.252 11.01,159.887 10.99,158.403C10.984,157.775 10.388,156.487 10.002,155.772C7.802,151.679 6.495,149.171 6.08,148.246C4.402,144.505 3.304,129.824 3.404,128.778C3.536,127.419 3.645,125.954 3.874,124.682C4.396,121.735 4.959,118.786 5.568,115.839C8.562,116.802 11.57,117.482 14.594,117.881C14.838,117.913 15.022,118.122 15.025,118.37L15.112,127.515Z" style="fill:white;fill-opacity:0.75;fill-rule:nonzero;"/>
    <path d="M241.472,130.562C241.569,138.348 241.569,144.489 241.472,148.984C241.466,149.303 241.273,149.615 240.896,149.914C240.394,150.111 239.843,150.166 239.247,150.072C238.033,149.889 236.816,149.744 235.589,149.644C234.52,149.557 233.332,149.419 232.025,149.229C231.616,149.171 231.278,149.138 231.017,149.132C230.585,149.122 230.25,149.097 230.012,149.055C229.6,148.984 227.645,148.787 224.152,148.469C214.275,147.561 196.993,145.915 172.311,143.535C172.205,143.526 170.756,143.358 167.964,143.03C166.444,142.853 164.889,142.734 163.295,142.672L161.723,139.835L161.739,122.743C162.239,122.205 162.838,121.97 163.533,122.038C187.832,124.327 210.105,126.395 230.35,128.233C232.868,128.462 236.127,129.006 238.722,129.103C240.114,129.158 241.031,129.644 241.472,130.562Z" style="fill:white;fill-opacity:0.75;fill-rule:nonzero;"/>
    <path d="M240.896,149.914L241.295,150.246C241.125,150.52 241.173,150.813 241.447,151.122C241.221,151.708 240.877,152.149 240.41,152.442C235.815,155.337 231.229,158.235 226.647,161.133C226.283,160.319 225.607,159.865 224.615,159.771C211.255,158.48 194.636,156.947 174.758,155.166C174.504,155.144 174.256,155.092 174.015,155.015C173.338,154.793 173.084,154.2 172.369,154.101C171.229,153.94 169.799,152.175 169.39,151.46C168.885,150.578 167.871,149.892 167.497,149.09C167.194,148.44 166.624,148.015 166.38,147.39C166.196,146.926 165.948,146.755 165.613,146.359C165.559,146.292 165.517,146.215 165.488,146.134C165.256,145.448 164.654,144.962 164.261,144.286C163.977,143.793 163.655,143.255 163.295,142.672C164.889,142.734 166.444,142.853 167.964,143.03C170.756,143.358 172.205,143.526 172.311,143.535C196.993,145.915 214.275,147.561 224.152,148.469C227.645,148.787 229.6,148.984 230.012,149.055C230.25,149.097 230.585,149.122 231.017,149.132C231.278,149.138 231.616,149.171 232.025,149.229C233.332,149.419 234.52,149.557 235.589,149.644C236.816,149.744 238.033,149.889 239.247,150.072C239.843,150.166 240.394,150.111 240.896,149.914Z" style="fill:white;fill-opacity:0.5;fill-rule:nonzero;"/>
    <path d="M153.419,145.596C153.354,145.844 153.171,146.07 152.868,146.276L152.086,144.537C152.527,144.759 152.971,145.113 153.419,145.596Z" style="fill:white;fill-opacity:0.95;fill-rule:nonzero;"/>
    <path d="M102.834,254.207L102.209,254.255L100.271,252.372C100.194,252.301 100.152,252.201 100.152,252.095C100.136,251.035 100.168,250.127 100.255,249.37C100.509,247.133 100.912,244.798 101.459,242.367C102.113,239.478 102.815,236.393 103.565,233.106C103.597,232.974 103.504,232.845 103.369,232.832L96.388,232.178C96.259,232.165 96.136,232.124 96.027,232.056C95.399,231.653 95.083,230.958 95.083,229.969C95.074,224.022 95.074,218.052 95.083,212.059C95.463,211.48 96.037,211.219 96.803,211.28C100.258,211.554 104.022,211.892 108.102,212.294C108.189,212.301 108.266,212.249 108.292,212.165L110.147,205.761C110.163,205.699 110.16,205.635 110.137,205.577L110.044,205.352C110.173,205.303 110.276,205.149 110.353,204.888C111.425,201.31 113.01,181.938 113.019,180.737C113.039,178.509 113.602,168.494 113.502,166.533C113.435,165.171 113.29,164.176 113.074,163.548L114.787,152.439C115.225,151.953 115.483,151.499 115.56,151.077C115.872,149.386 116.236,147.705 116.658,146.034C116.661,146.025 116.661,146.018 116.661,146.008L116.858,144.537C117.473,145.76 118.342,146.594 119.463,147.042C120.316,147.383 120.841,147.609 121.041,147.722C121.968,148.24 122.802,148.578 123.546,148.733C127.101,149.467 130.875,149.811 134.868,149.766C135.299,149.76 135.628,150.146 135.56,150.571L135.55,150.629C135.48,151.077 135.064,151.389 134.613,151.331C132.878,151.109 130.846,151.161 128.521,151.486C126.045,151.83 123.539,152.378 121.005,153.125C119.817,153.476 119.115,154.233 118.906,155.401C118.59,157.153 118.387,158.38 118.3,159.085C118.281,159.243 118.246,159.394 118.191,159.543C118.043,159.958 117.914,160.28 117.866,160.814C117.486,165.113 117.328,169.338 117.389,173.486C117.424,175.872 117.37,178.264 117.225,180.67C117.028,183.906 116.941,187.403 116.446,190.671C115.035,199.974 112.591,209.187 109.86,218.171C108.215,223.581 106.241,228.894 104.898,234.416C103.575,239.868 102.651,245.081 102.132,250.05C101.987,251.435 102.222,252.819 102.834,254.207Z" style="fill:white;fill-opacity:0.75;fill-rule:nonzero;"/>
    <path d="M2.657,254.78L2.061,254.903L0.126,253.016C0.052,252.945 0.01,252.845 0.007,252.739C-0.016,251.702 0.02,250.823 0.106,250.098C0.406,247.596 0.854,245.033 1.443,242.409C2.586,237.324 3.768,232.278 4.988,227.268C5.568,224.891 5.899,221.938 6.305,219.9C6.653,218.168 7.365,215.437 8.437,211.708C9.989,206.315 11.074,202.805 12.098,198.238C12.391,196.934 12.575,195.373 12.652,193.56C12.745,191.367 12.787,189.229 12.784,187.142C12.784,186.768 12.787,186.392 12.79,186.015C12.807,184.444 12.839,182.885 12.887,181.343C12.922,180.077 13.376,168.105 13.348,166.698C13.325,165.664 13.167,164.811 12.871,164.138L14.648,153.141C15.569,151.966 15.589,150.555 15.879,149.451C16.249,148.04 16.526,146.614 16.716,145.171C17.295,146.382 18.168,147.222 19.33,147.696C20.181,148.04 20.738,148.282 21.002,148.42C22.241,149.074 23.694,149.518 25.352,149.753C28.695,150.23 31.812,150.452 34.7,150.42C35.132,150.414 35.46,150.8 35.392,151.225L35.389,151.26C35.318,151.708 34.909,152.02 34.458,151.975C32.945,151.821 31.538,151.805 30.24,151.927C26.83,152.252 23.607,152.903 20.567,153.885C19.617,154.191 19.034,154.851 18.818,155.862C18.538,157.169 18.326,158.403 18.187,159.562C18.171,159.707 18.139,159.848 18.094,159.987L17.759,161.033C17.73,161.13 17.711,161.23 17.704,161.33C17.424,165.954 17.234,168.391 17.225,172.172C17.221,173.672 17.389,177.256 17.157,179.733C17.041,180.966 16.98,182.038 16.97,182.949C16.948,185.014 16.745,186.244 16.671,188.053C16.648,188.614 16.58,189.293 16.474,190.088C15.843,194.812 14.758,200.183 13.215,206.205C11.699,212.127 10.343,216.944 9.142,220.65C7.091,226.984 5.973,230.481 5.787,231.135C4.206,236.703 3.011,242.57 2.203,248.73C1.952,250.649 1.71,252.632 2.657,254.78Z" style="fill:white;fill-opacity:0.5;fill-rule:nonzero;"/>
    <path d="M162.831,153.991L155.409,153.386C155.267,152.845 155.116,152.268 154.952,151.66C154.794,151.083 154.604,150.52 154.382,149.963C153.886,148.729 153.38,147.503 152.868,146.276C153.171,146.07 153.354,145.844 153.419,145.596L159.176,151.209C159.266,151.299 159.376,151.37 159.492,151.418C160.229,151.737 160.667,152.181 161.157,152.751C161.186,152.787 161.456,152.916 161.975,153.144C162.306,153.289 162.593,153.572 162.831,153.991Z" style="fill:white;fill-opacity:0.5;fill-rule:nonzero;"/>
    <path d="M226.235,181.191L225.839,180.728C226.364,180.348 226.631,179.99 226.644,179.655C226.779,175.781 226.779,169.609 226.647,161.133C231.229,158.235 235.815,155.337 240.41,152.442C240.877,152.149 241.221,151.708 241.447,151.122C241.727,151.425 241.869,151.705 241.869,151.966C241.885,163.51 241.907,169.844 241.933,170.961C241.943,171.431 241.962,171.74 241.988,171.892C242.229,173.37 240.857,173.447 239.927,173.923C235.541,176.168 231.158,178.419 226.776,180.67C226.676,180.721 226.496,180.895 226.235,181.191Z" style="fill:white;fill-opacity:0.25;fill-rule:nonzero;"/>
    <path d="M162.831,153.991C163.623,154.4 164.341,154.906 164.989,155.501C166.602,156.983 167.822,158.76 168.656,160.834C169.374,162.627 169.751,163.555 169.79,163.619C171.239,166.066 173.593,167.081 176.133,168.14C177.434,168.681 177.969,168.504 179.089,167.747C180.101,167.061 179.82,166.546 179.666,165.513C179.65,165.397 179.614,165.281 179.566,165.174C179.115,164.218 178.973,163.268 178.281,162.254C177.454,161.04 176.903,159.858 176.455,158.444C176.259,157.833 175.927,157.269 175.454,156.754C175.341,156.632 175.254,156.487 175.193,156.332L174.758,155.166C194.636,156.947 211.255,158.48 224.615,159.771C225.607,159.865 226.283,160.319 226.647,161.133C226.779,169.609 226.779,175.781 226.644,179.655C226.631,179.99 226.364,180.348 225.839,180.728L225.668,180.811C225.588,180.85 225.498,180.866 225.411,180.856L157.399,174.555C157.164,170.868 157.006,167.09 156.922,163.223C156.893,161.861 156.655,160.505 156.488,159.011C156.323,157.533 155.963,155.656 155.409,153.386L162.831,153.991Z" style="fill:white;fill-opacity:0.75;fill-rule:nonzero;"/>
    <path d="M225.839,180.728L226.235,181.191C226.251,181.278 226.28,181.355 226.325,181.426C226.096,181.996 225.765,182.415 225.33,182.689C220.716,185.59 216.108,188.498 211.509,191.409C210.968,190.095 209.49,190.014 208.383,189.911C191.596,188.356 174.791,186.807 157.966,185.258C157.924,184.476 157.859,183.713 157.772,182.969C157.454,180.216 157.511,177.395 157.399,174.555L225.411,180.856C225.498,180.866 225.588,180.85 225.668,180.811L225.839,180.728Z" style="fill:white;fill-opacity:0.5;fill-rule:nonzero;"/>
    <path d="M134.662,176.673C134.646,176.957 134.51,177.127 134.259,177.182C134.182,177.202 134.105,177.144 134.101,177.063L134.047,175.678C134.095,174.452 134.301,174.783 134.662,176.673Z" style="fill:white;fill-opacity:0.95;fill-rule:nonzero;"/>
    <path d="M134.047,175.678L134.101,177.063C134.105,177.144 134.182,177.202 134.259,177.182C134.51,177.127 134.646,176.957 134.662,176.673L136.562,183.242C135.38,183.262 134.372,183.117 133.538,182.808L134.047,175.678Z" style="fill:white;fill-opacity:0.95;fill-rule:nonzero;"/>
    <path d="M211.728,210.9C211.529,210.961 211.271,210.913 210.952,210.758C211.313,210.491 211.497,210.211 211.506,209.924C211.638,205.406 211.641,199.233 211.509,191.409C216.108,188.498 220.716,185.59 225.33,182.689C225.765,182.415 226.096,181.996 226.325,181.426C226.599,181.7 226.734,181.996 226.734,182.315C226.724,188.482 226.728,194.648 226.744,200.821C226.747,201.269 226.779,201.694 226.847,202.09C227.111,203.651 225.736,203.713 224.741,204.221C220.403,206.437 216.066,208.662 211.728,210.9Z" style="fill:white;fill-opacity:0.25;fill-rule:nonzero;"/>
    <path d="M133.538,182.808C134.372,183.117 135.38,183.262 136.562,183.242C138.291,188.759 140.068,194.271 141.891,199.781C142.316,201.059 142.599,202.753 142.738,204.856L129.793,203.68C131.052,198.248 131.902,194.445 132.346,192.272C132.511,191.483 132.826,189.712 133.293,186.965C133.399,186.331 133.457,185.641 133.461,184.894C133.464,184.118 133.49,183.423 133.538,182.808Z" style="fill:white;fill-opacity:0.95;fill-rule:nonzero;"/>
    <path d="M211.509,191.409C211.641,199.233 211.638,205.406 211.506,209.924C211.497,210.211 211.313,210.491 210.952,210.758C210.856,210.826 210.772,210.916 210.701,211.022C210.65,211.103 210.559,211.148 210.463,211.141L158.874,206.327C158.503,204.985 158.616,203.413 158.461,202.425C158.162,200.518 158.275,198.76 158.152,196.641C157.933,192.829 157.872,189.035 157.966,185.258C174.791,186.807 191.596,188.356 208.383,189.911C209.49,190.014 210.968,190.095 211.509,191.409Z" style="fill:white;fill-opacity:0.75;fill-rule:nonzero;"/>
    <path d="M142.738,204.856C142.944,205.796 142.815,206.888 142.97,207.644C143.256,209.016 143.205,210.166 143.395,211.86C143.52,213.003 143.568,214.223 143.539,215.524L126.138,213.946C126.653,212.677 127.207,211.441 127.8,210.233C128.505,208.797 129.033,207.174 129.377,205.545C129.503,204.936 129.642,204.315 129.793,203.68L142.738,204.856Z" style="fill:white;fill-opacity:0.5;fill-rule:nonzero;"/>
    <path d="M110.044,205.352L110.137,205.577C110.16,205.635 110.163,205.699 110.147,205.761L108.292,212.165C108.266,212.249 108.189,212.301 108.102,212.294C104.022,211.892 100.258,211.554 96.803,211.28C96.037,211.219 95.463,211.48 95.083,212.059C94.839,211.338 95.357,210.935 96.004,210.687C100.677,208.897 105.359,207.12 110.044,205.352Z" style="fill:white;fill-opacity:0.5;fill-rule:nonzero;"/>
    <path d="M210.952,210.758C211.271,210.913 211.529,210.961 211.728,210.9L212.131,211.666C211.922,212.256 211.596,212.684 211.162,212.958C206.541,215.865 201.936,218.77 197.347,221.671C196.977,220.86 196.224,220.399 195.09,220.293C183.282,219.188 171.442,218.103 159.572,217.044L158.874,206.327L210.463,211.141C210.559,211.148 210.65,211.103 210.701,211.022C210.772,210.916 210.856,210.826 210.952,210.758Z" style="fill:white;fill-opacity:0.5;fill-rule:nonzero;"/>
    <path d="M196.288,241.301C196.98,241.098 197.338,240.702 197.354,240.113C197.473,236.336 197.47,230.188 197.347,221.671C201.936,218.77 206.541,215.865 211.162,212.958C211.596,212.684 211.922,212.256 212.131,211.666C212.424,211.966 212.572,212.243 212.569,212.504C212.546,218.986 212.549,225.175 212.575,231.071C212.578,231.686 212.694,232.252 212.717,232.752C212.775,233.875 211.442,234.049 210.717,234.416C206.071,236.79 201.675,239.047 197.524,241.185C197.18,241.362 196.768,241.401 196.288,241.301Z" style="fill:white;fill-opacity:0.25;fill-rule:nonzero;"/>
    <path d="M126.138,213.946L143.539,215.524C143.594,217.186 143.662,218.905 143.742,220.679C143.752,220.876 143.775,222.347 143.813,225.097C143.836,226.701 143.965,228.163 144.193,229.486C144.612,231.898 145.04,234.31 145.478,236.715L117.476,234.143L126.138,213.946Z" style="fill:white;fill-opacity:0.75;fill-rule:nonzero;"/>
    <path d="M197.347,221.671C197.47,230.188 197.473,236.336 197.354,240.113C197.338,240.702 196.98,241.098 196.288,241.301L161.179,238.158C160.873,236.944 160.767,235.653 160.86,234.278C160.864,234.223 160.864,234.165 160.854,234.107L160.58,232.365L160.58,232.349C160.664,230.832 160.571,229.261 160.297,227.641C160.232,227.258 160.2,226.868 160.204,226.476C160.213,225.178 160.123,223.887 159.933,222.602C159.881,222.26 159.859,221.913 159.865,221.568C159.894,219.762 159.621,218.448 159.572,217.044C171.442,218.103 183.282,219.188 195.09,220.293C196.224,220.399 196.977,220.86 197.347,221.671Z" style="fill:white;fill-opacity:0.75;fill-rule:nonzero;"/>
    <path d="M160.178,244.943L160.864,247.438C160.918,247.641 161.018,247.825 161.157,247.983C162.313,249.306 163.749,250.823 165.327,251.454C165.468,251.512 165.62,251.551 165.774,251.567C167.861,251.821 169.21,252.03 169.825,252.191C172.862,252.99 175.608,254.761 175.261,258.48C175.161,258.699 174.974,258.825 174.7,258.854C174.085,258.921 173.612,258.944 173.28,258.921C170.492,258.744 168.141,258.545 166.232,258.326C166.051,258.303 165.877,258.258 165.716,258.184L158.085,254.735C157.84,254.626 157.653,254.413 157.573,254.152L156.661,251.151C156.613,250.987 156.597,250.81 156.62,250.639C156.806,249.168 156.723,247.735 156.368,246.344L160.178,244.943Z" style="fill:white;fill-opacity:0.75;fill-rule:nonzero;"/>
    <path d="M60.036,245.629L60.731,248.166C60.78,248.34 60.87,248.501 60.995,248.633C62.367,250.108 63.407,251.219 65.088,252.053C65.249,252.133 65.423,252.185 65.6,252.207C67.233,252.404 68.369,252.568 69.013,252.707C72.504,253.441 75.489,255.241 75.106,259.205C74.832,259.536 74.172,259.659 73.129,259.578C70.047,259.343 68.115,259.205 67.329,259.16C66.54,259.118 65.797,258.934 65.091,258.615C60.735,256.641 58.419,255.592 58.152,255.469C57.769,255.299 57.482,254.967 57.366,254.565L56.529,251.65C56.494,251.531 56.481,251.409 56.487,251.286C56.532,250.375 56.565,249.467 56.581,248.565C56.597,247.68 56.391,247.181 55.956,247.075L60.036,245.629Z" style="fill:white;fill-opacity:0.75;fill-rule:nonzero;"/>
    <path d="M156.368,246.344C156.723,247.735 156.806,249.168 156.62,250.639C156.597,250.81 156.613,250.987 156.661,251.151L157.573,254.152C157.653,254.413 157.84,254.626 158.085,254.735L165.716,258.184C165.877,258.258 166.051,258.303 166.232,258.326C168.141,258.545 170.492,258.744 173.28,258.921C173.612,258.944 174.085,258.921 174.7,258.854C174.974,258.825 175.161,258.699 175.261,258.48C175.248,259.462 174.849,260.184 174.066,260.638C173.177,261.156 171.271,261.485 169.964,261.478C166.537,261.462 164.457,261.546 161.659,261.108C160.348,260.902 158.99,260.712 157.582,260.538C157.077,260.477 156.101,260.467 154.655,260.512C153.87,260.535 153.309,260.467 152.971,260.306C151.587,259.649 151.245,258.454 151.02,257.009C150.711,255.041 150.553,253.254 150.55,251.647C150.55,251.534 150.559,251.418 150.579,251.306C150.772,250.182 150.865,249.036 150.859,247.87C150.856,247.789 150.827,247.712 150.772,247.654C150.646,247.519 150.469,247.458 150.241,247.467C152.182,247.4 154.224,247.023 156.368,246.344Z" style="fill:white;fill-opacity:0.5;fill-rule:nonzero;"/>
    <path d="M55.956,247.075C56.391,247.181 56.597,247.68 56.581,248.565C56.565,249.467 56.532,250.375 56.487,251.286C56.481,251.409 56.494,251.531 56.529,251.65L57.366,254.565C57.482,254.967 57.769,255.299 58.152,255.469C58.419,255.592 60.735,256.641 65.091,258.615C65.797,258.934 66.54,259.118 67.329,259.16C68.115,259.205 70.047,259.343 73.129,259.578C74.172,259.659 74.832,259.536 75.106,259.205C75.08,260.058 74.632,260.779 73.763,261.369C73.628,261.459 72.958,261.642 71.751,261.922C71.139,262.064 70.443,262.132 69.661,262.125C65.974,262.103 63.935,262.064 63.549,262.013C60.918,261.662 59.121,261.414 58.152,261.266C57.012,261.092 56.242,261.121 54.774,261.143C53.631,261.163 52.852,261.043 52.436,260.789C51.277,260.074 51.148,258.838 50.813,257.601C50.781,257.482 50.762,257.356 50.759,257.231C50.736,256.4 50.688,255.795 50.614,255.415C50.147,253.077 50.675,250.987 50.723,248.701C50.73,248.269 50.424,248.111 50.037,248.137C50.234,248.092 50.697,248.06 51.435,248.041C52.359,248.018 53.866,247.696 55.956,247.075Z" style="fill:white;fill-opacity:0.5;fill-rule:nonzero;"/>
    <path d="M102.834,254.207C103.523,255.492 106.908,256.294 108.308,256.461C108.479,256.564 108.54,256.648 108.489,256.709C107.954,257.376 107.69,258.081 107.697,258.825C107.713,260.399 107.751,261.745 107.816,262.863C107.819,262.927 107.851,262.985 107.903,263.024L114.906,268.408C115.116,268.569 115.354,268.694 115.608,268.772L123.836,271.328C123.559,272.13 122.998,272.607 122.152,272.752C121.318,272.897 119.595,272.835 118.526,272.62C116.049,272.114 113.944,271.573 112.205,270.993C111.651,270.81 109.667,270.06 106.257,268.749C104.238,267.97 101.553,268.356 100.941,265.877C100.934,265.841 100.88,265.413 100.78,264.589C100.738,264.244 100.741,263.819 100.789,263.307C100.805,263.104 100.88,262.354 101.008,261.05C101.018,260.963 101.037,260.876 101.066,260.789C101.388,259.862 101.118,259.089 101.421,258.235C101.456,258.139 101.511,257.591 101.591,256.596C101.639,255.994 101.846,255.215 102.209,254.255L102.834,254.207Z" style="fill:white;fill-opacity:0.5;fill-rule:nonzero;"/>
    <path d="M2.657,254.78C3.246,256.11 6.772,256.925 8.083,257.096L8.186,257.163C8.276,257.224 8.298,257.35 8.234,257.44C7.799,258.049 7.58,258.731 7.571,259.482C7.558,260.567 7.619,261.893 7.757,263.468C7.77,263.616 7.844,263.755 7.967,263.848L14.935,269.206C15.012,269.268 15.102,269.313 15.196,269.342L23.69,271.982C23.417,272.777 22.856,273.251 22.006,273.396C21.243,273.528 19.43,273.483 18.297,273.244C15.354,272.623 13.116,272.03 11.58,271.467C9.918,270.855 8.112,270.169 6.16,269.409C5.548,269.171 4.946,268.997 4.351,268.888C2.654,268.572 1.414,268.385 0.831,266.704C0.808,266.637 0.796,266.563 0.796,266.489C0.799,266.138 0.744,265.861 0.631,265.658C0.593,265.587 0.599,265.497 0.651,265.436C0.75,265.304 0.734,265.165 0.599,265.027C0.564,264.991 0.548,264.94 0.554,264.888L0.693,263.7C0.705,263.594 0.689,263.487 0.651,263.388C0.583,263.22 0.799,262.972 0.792,262.727C0.779,262.058 0.86,261.494 1.037,261.04C1.089,260.905 1.114,260.763 1.114,260.622L1.124,259.469C1.124,259.411 1.137,259.35 1.159,259.292C1.285,258.973 1.372,258.351 1.427,257.427C1.465,256.751 1.678,255.911 2.061,254.903L2.657,254.78Z" style="fill:white;fill-opacity:0.5;fill-rule:nonzero;"/>
    <path d="M112.569,256.877C112.936,257.904 113.451,258.86 114.114,259.742C114.604,260.396 115.193,261.008 115.882,261.581C116.056,261.726 116.256,261.842 116.468,261.926C119.421,263.072 122.219,264.106 123.935,266.943C123.99,267.03 124.026,267.126 124.045,267.229C124.138,267.715 124.254,268.179 124.386,268.62C124.586,269.284 124.402,270.185 123.836,271.328L115.608,268.772C115.354,268.694 115.116,268.569 114.906,268.408L107.903,263.024C107.851,262.985 107.819,262.927 107.816,262.863C107.751,261.745 107.713,260.399 107.697,258.825C107.69,258.081 107.954,257.376 108.489,256.709C108.54,256.648 108.479,256.564 108.308,256.461C109.741,256.822 110.736,256.97 111.287,256.902C111.863,256.831 112.288,256.822 112.569,256.877Z" style="fill:white;fill-opacity:0.75;fill-rule:nonzero;"/>
    <path d="M12.385,257.53C13.132,259.379 14.246,260.944 15.727,262.228C15.875,262.357 16.046,262.46 16.229,262.534C17.405,262.995 18.58,263.491 19.762,264.022C21.572,264.83 22.931,266.054 23.835,267.69C23.884,267.777 23.919,267.873 23.935,267.973C24.016,268.462 24.125,268.917 24.26,269.338C24.45,269.934 24.26,270.813 23.69,271.982L15.196,269.342C15.102,269.313 15.012,269.268 14.935,269.206L7.967,263.848C7.844,263.755 7.77,263.616 7.757,263.468C7.619,261.893 7.558,260.567 7.571,259.482C7.58,258.731 7.799,258.049 8.234,257.44C8.298,257.35 8.276,257.224 8.186,257.163L8.083,257.096C9.512,257.459 10.945,257.604 12.385,257.53Z" style="fill:white;fill-opacity:0.75;fill-rule:nonzero;"/>
</svg>
