<?xml version="1.0" encoding="UTF-8" standalone="no"?>
<!DOCTYPE svg PUBLIC "-//W3C//DTD SVG 1.1//EN" "http://www.w3.org/Graphics/SVG/1.1/DTD/svg11.dtd">
<svg width="100%" height="100%" viewBox="0 0 300 300" version="1.1" xmlns="http://www.w3.org/2000/svg" xmlns:xlink="http://www.w3.org/1999/xlink" xml:space="preserve" xmlns:serif="http://www.serif.com/" style="fill-rule:evenodd;clip-rule:evenodd;stroke-linejoin:round;stroke-miterlimit:2;">
    <path d="M151.76,138.826C151.388,138.005 151.318,137.448 151.555,137.16C151.767,136.899 151.906,135.632 151.687,135.222C151.604,135.069 151.439,135.095 151.277,135.152C140.973,138.791 132.094,120.012 138.074,105.581C138.112,105.49 137.806,105.525 137.489,105.615C136.286,105.96 135.204,105.908 134.247,105.452C131.784,104.283 127.929,99.437 130.364,92.489C131.098,90.395 132.278,88.227 133.221,86.617C133.37,86.359 133.354,86.009 133.127,85.817C119.214,74.044 122.741,54.67 136.268,50.477C136.678,50.35 136.86,49.889 136.578,49.565C135.412,48.229 135.621,45.7 136.07,43.968C136.936,40.617 138.794,37.392 140.513,34.174C141.842,31.687 146.775,25.291 154.133,23.066C155.972,22.51 157.484,22.155 159.042,22.558C160.027,22.813 159.821,24.21 159.821,24.21C159.939,24.513 160.35,24.555 160.527,24.284C162.124,21.827 167.739,14.604 175.456,9.54C177.328,8.311 179.401,7.518 181.641,7.122C184.901,6.541 187.796,7.48 189.765,9.929C189.81,9.981 190.84,12.243 190.84,12.243C190.955,12.5 191.316,12.511 191.449,12.26C191.772,11.63 191.938,11.3 191.953,11.262C192.828,9.001 192.73,6.816 193.383,4.874C193.846,3.495 194.959,1.767 196.013,0.821C197.022,-0.087 198.981,-0.143 200.188,0.178C206.328,1.802 213.029,3.865 220.283,6.36C220.394,6.398 220.516,6.36 220.589,6.266C221.556,5.017 224.723,0.374 234.723,9.487C238.521,12.948 238.679,6.215 243.39,4.843C244.256,4.591 254.543,1.208 266.271,25.059C266.447,25.417 266.609,25.703 266.804,25.901C266.971,26.072 267.259,26.006 267.336,25.779C267.757,24.565 268.53,23.745 270.046,24.04C279.92,25.964 292.561,47.579 285.959,54.805C285.853,54.92 285.882,55.107 285.997,55.212C286.735,55.883 290.409,58.287 291.605,59.623C292.593,60.729 293.38,62.038 293.961,63.544C294.782,65.677 295.237,67.444 295.324,68.846C295.377,69.681 295.753,76.69 292.35,81.391C291.256,82.902 285.576,88.822 283.451,90.6C283.35,90.684 283.18,90.815 283.249,90.924C287.816,98.139 284.453,113.561 275.247,109.446C275.136,109.408 274.92,109.436 274.951,109.55C278.88,124.02 270.038,141.265 257.529,136.613C256.893,136.377 256.506,136.798 256.478,137.441C256.412,139.139 256.415,140.468 255.841,141.912C254.665,144.879 252.616,146.769 249.69,147.579C247.579,148.167 245.272,148.251 242.771,147.837C235.183,146.581 227.025,141.119 227.571,132.386C227.658,131.005 227.881,129.725 228.232,128.542C228.368,128.09 228.816,127.255 228.559,127.237C229.502,126.67 230.166,126.152 230.553,125.689C234.632,120.804 237.836,115.158 240.168,108.747C240.36,108.221 240.649,107.856 241.038,107.647C242.719,106.746 243.8,106.119 244.288,105.765C245.737,104.712 246.86,103.261 247.648,101.402C248.801,98.686 249.367,96.062 249.346,93.536C249.329,91.439 248.651,88.932 246.692,87.862C246.577,87.799 246.452,87.754 246.326,87.726C245.043,87.443 243.957,87.348 242.663,86.283C240.564,84.555 241.265,82.223 242.712,80.354C242.787,80.257 242.732,80.112 242.611,80.087C240.155,79.58 237.97,78.618 236.046,77.244C229.958,72.896 236.578,67.611 236.258,62.483C236.234,62.097 235.747,61.94 235.503,62.239C233.645,64.524 230.758,64.69 227.982,64.16C226.684,63.912 225.699,63.656 225.031,63.391C222.487,62.381 220.143,61.283 217.997,60.1C216.793,59.436 215.752,59.577 214.876,60.528C213.379,62.151 212.559,64.713 211.171,66.355C209.88,67.882 208.63,68.951 207.417,69.563C206.68,69.934 205.437,70.306 203.685,70.67C203.538,70.7 203.391,70.73 203.242,70.759C203.075,70.791 202.905,70.801 202.738,70.787C197.888,70.382 192.201,68.946 189.069,65.099C188.426,64.309 188.034,63.349 187.9,62.225C187.893,62.166 187.841,62.123 187.782,62.121C187.723,62.119 187.67,62.163 187.66,62.222C187.084,65.654 185.346,68.383 182.361,70.398C180.834,71.233 179.596,71.783 178.646,72.047C176.27,72.706 173.877,73.174 171.458,73.431C171.357,73.442 171.284,73.536 171.298,73.637C171.675,76.245 171.893,79.05 171.907,82.052C171.939,89.045 171.498,95.847 170.582,102.457C170.057,106.238 169.823,108.788 169.875,110.114C170.037,114.181 170.766,117.747 172.06,120.812C173.963,125.317 177.059,128.824 181.349,131.336C183.238,140.151 175.992,147.196 170.216,147.986C165.763,144.688 161.07,142.067 156.133,140.131C154.731,139.581 153.274,139.146 151.76,138.826Z" style="fill:white;fill-opacity:0.25;"/>
    <path d="M33.318,45.088C33.217,43.251 34.003,41.4 35.673,39.532C38.192,36.71 40.982,34.136 44.044,31.805C45.188,30.932 46.34,30.414 47.498,30.243C47.557,30.236 48.824,30.121 51.301,29.902C53.621,29.697 56.234,29.693 59.142,29.885C60.892,30 63.595,30.25 64.904,31.109C66.045,31.857 67.102,33.005 67.739,34.421C69.012,37.26 71.214,42.67 73.267,46.786C75.727,51.722 78.145,56.294 80.517,60.507C82.681,64.351 83.965,66.953 86.15,70.025C90.572,76.246 95.307,82.351 100.351,88.342C110.294,100.147 119.315,110.225 127.418,118.582C137.305,128.782 143.807,135.538 146.924,138.854C146.469,139.014 146.119,139.245 145.884,139.55C145.817,139.636 145.783,139.741 145.787,139.852C145.881,142.997 145.499,146.487 144.649,150.324C142.883,158.302 141.368,164.844 138.248,171.678C138.217,171.745 138.14,171.793 138.015,171.824C123.726,160.288 111.627,145.057 102.47,129.332C101.029,126.858 99.273,123.964 97.203,120.655C92.614,113.315 88.244,105.438 84.087,97.026C80.691,90.155 76.913,82.769 72.756,74.861C71.795,73.035 70.759,71.149 69.649,69.204C69.437,68.829 69.162,68.54 68.828,68.338C68.724,68.275 68.609,68.237 68.49,68.227C64.827,67.921 60.917,67.298 58.033,65.774C55.121,64.236 52.101,62.692 48.977,61.14L45.86,59.933C42.471,58.666 40.351,58.414 36.178,57.623C35.266,57.45 34.327,57.163 33.363,56.77C32.191,56.293 31.723,55.445 31.951,54.224C31.975,54.092 32.027,53.963 32.1,53.852C33.292,52.03 35.642,51.301 37.663,51.023C39.963,50.706 42.29,50.609 44.652,50.731L49.012,50.995C50.149,50.957 51.259,51.006 52.334,51.148C53.993,51.368 55.173,51.347 56.7,51.604C57.191,51.688 57.65,51.336 57.692,50.839C57.942,48.017 54.985,44.19 53.037,42.416C52.456,41.887 51.997,41.619 51.659,41.616C50.236,41.598 48.81,41.598 47.38,41.623C46.736,41.585 46.089,41.595 45.432,41.658C44.59,41.738 44.349,41.489 44.002,40.84C43.967,40.774 43.897,40.732 43.821,40.736C40.342,40.881 37.557,42.545 35.054,44.876C34.985,44.939 34.904,44.987 34.814,45.018L34.076,45.269C33.916,45.178 33.662,45.119 33.318,45.088Z" style="fill:white;fill-opacity:0.85;"/>
    <path d="M44.652,50.731C44.294,49.064 43.472,46.432 42.04,45.213C40.306,43.739 37.808,43.931 35.875,44.959C35.505,45.156 35.075,45.374 34.591,45.627C34.546,45.651 34.494,45.662 34.445,45.655C34.233,45.626 34.108,45.498 34.076,45.269L34.814,45.018C34.904,44.987 34.985,44.939 35.054,44.876C37.557,42.545 40.342,40.881 43.821,40.736C43.897,40.732 43.967,40.774 44.002,40.84C44.349,41.489 44.59,41.738 45.432,41.658C46.089,41.595 46.736,41.585 47.38,41.623C48.552,44.597 49.095,47.722 49.012,50.995L44.652,50.731Z" style="fill:white;fill-opacity:0.35;"/>
    <path d="M6.989,113.836C6.53,114.038 5.997,114.104 5.388,114.031C5.079,113.996 4.825,113.767 4.759,113.461C4.404,111.805 4.908,109.422 5.263,107.926C7.66,97.795 10.701,89.654 15.589,78.678C18.612,71.89 20.86,67.093 22.328,64.285C24.474,60.183 27.052,55.591 30.054,50.512C31.185,48.605 32.271,46.796 33.318,45.088C33.662,45.119 33.916,45.178 34.076,45.269C34.108,45.498 34.233,45.626 34.445,45.655C34.494,45.662 34.546,45.651 34.591,45.627C35.075,45.374 35.505,45.156 35.875,44.959C37.808,43.931 40.306,43.739 42.04,45.213C43.472,46.432 44.294,49.064 44.652,50.731C42.29,50.609 39.963,50.706 37.663,51.023C35.642,51.301 33.292,52.03 32.1,53.852C32.027,53.963 31.975,54.092 31.951,54.224C31.723,55.445 32.191,56.293 33.363,56.77C34.327,57.163 35.266,57.45 36.178,57.623C40.351,58.414 42.471,58.666 45.86,59.933C46.169,66.285 46.412,70.7 46.59,73.177C47.206,81.739 48.621,90.056 51.826,98.056C53.181,101.437 54.808,104.349 56.711,106.795L58.554,110.291C58.641,110.458 58.593,110.664 58.44,110.775L50.8,116.293C48.528,109.554 46.368,102.801 44.318,96.027C41.38,86.317 39.315,79.954 38.021,71.681C37.722,69.768 37.559,67.298 37.273,65.565C37.228,65.29 37.165,65.071 37.082,64.901C37.026,64.786 36.86,64.8 36.821,64.918C36.475,65.967 36.198,67.124 36.011,68.401C35.627,71.006 35.378,73.313 35.263,75.317C34.402,90.249 34.992,105.278 37.385,119.751C37.465,120.234 37.566,120.746 37.691,121.288C34.361,121.194 31.495,120.227 29.091,118.39C27.23,109.484 26.768,100.588 27.717,91.706C28.085,88.259 28.48,84.8 28.906,81.332C29.031,80.316 29.589,76.519 27.264,77.745C26.575,78.109 25.845,78.681 25.069,79.464C23.19,81.36 21.588,83.413 20.261,85.622C17.111,90.866 13.929,96.138 11.564,101.695C10.071,105.201 8.768,108.398 7.66,111.29C7.406,111.954 7.184,112.803 6.989,113.836Z" style="fill:white;fill-opacity:0.5;"/>
    <path d="M203.685,70.67C205.437,70.306 206.68,69.934 207.417,69.563C208.63,68.951 209.88,67.882 211.171,66.355C212.559,64.713 213.379,62.151 214.876,60.528C215.752,59.577 216.793,59.436 217.997,60.1C220.143,61.283 222.487,62.381 225.031,63.391C225.699,63.656 226.684,63.912 227.982,64.16C230.758,64.69 233.645,64.524 235.503,62.239C235.747,61.94 236.234,62.097 236.258,62.483C236.578,67.611 229.958,72.896 236.046,77.244C237.97,78.618 240.155,79.58 242.611,80.087C242.732,80.112 242.787,80.257 242.712,80.354C241.265,82.223 240.564,84.555 242.663,86.283C243.957,87.348 245.043,87.443 246.326,87.726C246.452,87.754 246.577,87.799 246.692,87.862C248.651,88.932 249.329,91.439 249.346,93.536C249.367,96.062 248.801,98.686 247.648,101.402C246.86,103.261 245.737,104.712 244.288,105.765C243.8,106.119 242.719,106.746 241.038,107.647C240.649,107.856 240.36,108.221 240.168,108.747C237.836,115.158 234.632,120.804 230.553,125.689C230.166,126.152 229.502,126.67 228.559,127.237L221.976,130.457C220.888,125.295 217.794,110.521 217.194,108.953C214.096,100.847 206.634,106.261 204.717,108.618C204.648,108.68 204.54,108.632 204.544,108.538C204.604,107.08 204.567,106.092 204.411,105.574C203.852,103.713 202.738,102.882 201.058,103.086C199.047,103.331 197.377,105.023 195.359,104.801C195.234,104.788 195.126,104.718 195.063,104.61C194.728,104.03 194.572,103.493 194.59,103.003C194.677,100.661 203.18,71.72 203.685,70.67ZM210.524,86.589C209.501,86.578 208.649,88.471 208.621,90.818C208.593,93.164 209.397,95.078 210.42,95.091C211.442,95.102 212.295,93.209 212.322,90.863C212.35,88.516 211.547,86.603 210.524,86.589ZM214.66,96.441C214.901,96.828 215.481,97.311 215.802,97.826C216.769,99.388 217.465,100.442 217.889,100.981C219.194,102.634 221.392,104.14 223.417,102.867C225.393,101.622 223.713,99.778 222.502,98.911C220.582,97.541 218.435,96.577 216.059,96.02C215.635,95.923 215.241,95.902 214.883,95.958C214.657,95.993 214.542,96.247 214.66,96.441ZM219.775,81.61C215.822,80.723 212.834,79.958 210.809,79.314C210.228,79.13 209.752,78.942 209.372,78.754C208.478,78.309 207.702,77.794 206.836,77.62C206.109,77.474 205.709,77.411 205.629,77.436C203.19,78.128 205.966,80.393 206.948,80.807C210.82,82.445 215.829,83.437 219.799,82.021C220.001,81.948 219.983,81.659 219.775,81.61Z" style="fill:white;fill-opacity:0.95;"/>
    <path d="M48.977,61.14C48.799,65.562 48.792,69.924 48.956,74.221C49.137,79.039 49.77,83.799 50.859,88.492C51.99,93.359 53.938,99.461 56.711,106.795C54.808,104.349 53.181,101.437 51.826,98.056C48.621,90.056 47.206,81.739 46.59,73.177C46.412,70.7 46.169,66.285 45.86,59.933L48.977,61.14Z" style="fill:white;fill-opacity:0.35;"/>
    <path d="M50.8,116.293C48.799,117.743 46.597,118.975 44.2,119.98C42.102,120.86 39.931,121.299 37.691,121.288C37.566,120.746 37.465,120.234 37.385,119.751C34.992,105.278 34.402,90.249 35.263,75.317C35.378,73.313 35.627,71.006 36.011,68.401C36.198,67.124 36.475,65.967 36.821,64.918C36.86,64.8 37.026,64.786 37.082,64.901C37.165,65.071 37.228,65.29 37.273,65.565C37.559,67.298 37.722,69.768 38.021,71.681C39.315,79.954 41.38,86.317 44.318,96.027C46.368,102.801 48.528,109.554 50.8,116.293Z" style="fill:white;fill-opacity:0.35;"/>
    <path d="M181.325,82.014C181.993,82.289 182.709,82.435 183.478,82.449C186.721,82.508 189.869,81.83 192.927,80.407C193.877,79.965 194.437,79.241 194.611,78.232C194.684,77.808 194.441,77.39 194.03,77.251L193.477,77.063C193.112,76.938 192.708,76.997 192.395,77.22C189.038,79.603 185.364,81.089 181.37,81.67C181.189,81.697 181.154,81.944 181.325,82.014Z" style="fill:white;fill-opacity:0.15;"/>
    <path d="M219.775,81.61C215.822,80.723 212.834,79.958 210.809,79.314C210.228,79.13 209.752,78.942 209.372,78.754C208.478,78.309 207.702,77.794 206.836,77.62C206.109,77.474 205.709,77.411 205.629,77.436C203.19,78.128 205.966,80.393 206.948,80.807C210.82,82.445 215.829,83.437 219.799,82.021C220.001,81.948 219.983,81.659 219.775,81.61Z" style="fill:white;fill-opacity:0.15;"/>
    <path d="M29.091,118.39C28.367,117.935 27.842,117.552 27.515,117.242C26.189,116.004 24.384,114.247 22.095,111.975C19.757,109.655 17.127,108.976 14.208,109.947C13.613,110.145 12.743,110.604 11.598,111.318C10.113,112.25 8.693,113.238 6.989,113.836C7.184,112.803 7.406,111.954 7.66,111.29C8.768,108.398 10.071,105.201 11.564,101.695C13.929,96.138 17.111,90.866 20.261,85.622C21.588,83.413 23.19,81.36 25.069,79.464C25.845,78.681 26.575,78.109 27.264,77.745C29.589,76.519 29.031,80.316 28.906,81.332C28.48,84.8 28.085,88.259 27.717,91.706C26.768,100.588 27.23,109.484 29.091,118.39Z" style="fill:white;fill-opacity:0.35;"/>
    <path d="M210.524,86.589C209.501,86.578 208.649,88.471 208.621,90.818C208.593,93.164 209.397,95.078 210.42,95.091C211.442,95.102 212.295,93.209 212.322,90.863C212.35,88.516 211.547,86.603 210.524,86.589Z" style="fill:white;fill-opacity:0.15;"/>
    <path d="M189.187,94.671C189.56,95.612 190.301,96.365 191.393,95.499C192.586,93.47 192.78,91.237 191.984,88.795C191.445,87.139 190.013,86.795 189.299,88.61C188.511,90.611 188.392,92.662 189.187,94.671Z" style="fill:white;fill-opacity:0.15;"/>
    <path d="M214.66,96.441C214.901,96.828 215.481,97.311 215.802,97.826C216.769,99.388 217.465,100.442 217.889,100.981C219.194,102.634 221.392,104.14 223.417,102.867C225.393,101.622 223.713,99.778 222.502,98.911C220.582,97.541 218.435,96.577 216.059,96.02C215.635,95.923 215.241,95.902 214.883,95.958C214.657,95.993 214.542,96.247 214.66,96.441Z" style="fill:white;fill-opacity:0.5;"/>
    <path d="M202.063,121.814C202.075,121.386 202.031,121.049 201.938,120.798C201.621,119.94 201.384,115.545 201.329,114.616C201.321,114.487 201.228,114.376 201.099,114.348C199.076,113.901 197.307,113.976 195.787,114.605C193.018,115.751 189.727,118.703 190.683,122.033C190.986,123.087 191.643,123.788 192.656,124.134C194.015,124.599 195.693,123.314 196.914,122.496C197.812,121.894 199.057,121.631 200.651,121.706C201.033,121.724 201.642,122.012 201.858,122.012C201.969,122.012 202.06,121.925 202.063,121.814Z" style="fill:white;fill-opacity:0.15;"/>
    <path d="M199.892,176.055C195.992,175.168 192.649,173.581 189.866,171.292C183.558,166.105 181.582,159.425 183.934,151.246C185.517,149.367 186.856,147.172 187.949,144.664C188.203,144.083 188.352,143.53 188.401,143.004C188.669,143.223 188.937,143.341 189.212,143.366C189.326,143.376 189.438,143.338 189.521,143.265C191.233,141.775 192.495,140.603 193.292,139.744C193.942,139.045 195.064,137.734 196.653,135.806C197.648,134.599 198.807,132.653 200.118,129.955C200.547,129.071 202.084,123.498 202.084,123.498C202.101,123.428 202.167,123.383 202.237,123.393C202.31,123.404 202.359,123.466 202.355,123.536C202.314,124.291 203.5,130.946 203.375,132.084C202.944,135.987 201.736,139.852 200.17,145.074C199.012,148.939 198.191,152.425 197.707,155.525C197.398,157.505 197.622,166.037 200.198,169.793C200.237,169.876 200.25,169.97 200.247,170.06L199.892,176.055Z" style="fill:white;fill-opacity:0.95;"/>
    <path d="M146.924,138.854C148.368,138.6 149.982,138.593 151.76,138.826C153.274,139.146 154.731,139.581 156.133,140.131C161.07,142.067 165.763,144.688 170.216,147.986L172.29,149.451C172.485,149.587 172.7,149.687 172.93,149.75C175.049,150.317 176.896,150.637 178.465,150.703C180.827,150.804 182.65,150.985 183.934,151.246C181.582,159.425 183.558,166.105 189.866,171.292C192.649,173.581 195.992,175.168 199.892,176.055C199.749,177.154 199.644,178.236 199.572,179.301C199.533,179.878 199.46,180.438 199.353,180.977C199.203,181.729 199.345,182.522 199.134,183.228C198.882,184.07 198.918,185.003 198.768,186.081C198.016,191.491 197.353,196.271 196.799,200.422C196.516,202.544 196.371,203.629 196.364,203.674C196.112,205.357 195.898,207.188 195.714,209.161C195.686,209.463 195.655,209.78 195.62,210.104C195.262,213.43 195.065,215.329 195.032,215.799C194.993,216.349 194.913,216.853 194.806,217.309C194.652,217.966 194.772,218.707 194.649,219.5C194.335,221.533 194.138,223.348 194.065,224.952C193.684,233.34 193.707,241.832 194.131,250.432C194.239,252.62 194.486,255.212 194.868,258.215C195.147,260.406 195.661,262.465 196.399,264.393C196.549,264.786 196.8,265.13 197.126,265.392C199.069,266.951 201.336,267.799 203.823,267.771C205.445,267.754 206.571,267.822 207.817,267.542C211.518,266.709 215.109,265.335 218.588,263.409C225.17,259.765 231.548,255.234 237.399,250.126C242.643,245.548 247.627,240.909 252.341,236.2C252.442,236.099 252.585,236.026 252.762,235.98C251.075,241.046 249.701,245.941 248.515,251.337C247.29,256.914 248.337,262.059 250.905,267.152C253.782,272.861 256.986,278.035 260.228,283.392C261.209,285.017 261.912,286.666 262.333,288.339C262.719,289.874 262.604,291.112 261.62,292.448C260.594,293.843 259.23,294.887 257.536,295.576C253.956,297.03 250.595,298.049 247.447,298.63C236.971,300.564 226.684,300.45 216.577,298.289C209.056,296.678 201.99,294.403 195.282,290.855C191.824,289.028 188.763,286.781 186.101,284.119C185.639,283.657 185.204,283.114 184.797,282.491C184.745,282.408 184.706,282.317 184.685,282.22C182.831,273.352 180.031,265.489 176.277,258.629C172.544,251.806 167.969,245.269 163.043,239.139C161.609,237.355 160.545,235.751 159.852,234.321C158.068,230.651 156.968,227.356 156.558,224.437C156.144,221.522 156.453,218.13 156.972,214.818C157.247,213.057 157.741,209.968 158.454,205.546C158.471,205.438 158.433,205.327 158.353,205.25C152.766,200.056 147.704,194.914 143.167,189.818C140.464,186.777 138.363,184.213 136.867,182.126C136.383,181.447 135.917,180.873 135.468,180.396C135.329,180.247 135.27,180.042 135.308,179.843C135.444,179.182 135.691,178.365 136.053,177.394C136.71,175.634 137.382,173.887 138.07,172.151C138.102,172.075 138.098,171.991 138.063,171.918L138.015,171.824C138.14,171.793 138.217,171.745 138.248,171.678C141.368,164.844 142.883,158.302 144.649,150.324C145.499,146.487 145.881,142.997 145.787,139.852C145.783,139.741 145.817,139.636 145.884,139.55C146.119,139.245 146.469,139.014 146.924,138.854Z" style="fill:white;fill-opacity:0.5;"/>
    <path d="M229.422,158.914C229.234,159.244 228.966,159.62 228.615,160.048C225.025,164.426 221.973,167.754 217.715,171.139L218.421,163.676C218.425,163.628 218.435,163.579 218.453,163.534C219.156,161.45 220.474,157.029 221.57,153.172C223.391,153.82 230.533,156.369 230.521,156.451C230.505,156.57 230.484,156.683 230.459,156.791C230.288,157.533 229.92,158.051 229.422,158.914Z" style="fill:white;fill-opacity:0.95;"/>
    <path d="M230.459,156.791C230.837,155.979 231.164,155.286 231.241,155.303C234.428,155.995 239.64,157.077 246.879,158.545C253.646,159.919 260.594,161.899 266.588,165.329C272.541,168.735 276.329,173.699 277.947,180.226C278.51,182.501 278.778,185.208 278.747,188.349C278.712,192.305 278.114,196.918 276.955,202.189C275.212,210.111 273.226,217.427 270.999,224.138C270.578,225.415 269.688,226.069 268.331,226.093C266.48,226.131 264.918,225.543 263.641,224.336C263.634,224.341 263.627,224.343 263.621,224.343C263.605,224.341 263.591,224.321 263.579,224.284C263.565,224.242 263.576,224.194 263.606,224.162C264.935,222.753 266.224,221.789 264.928,219.866C264.835,219.726 263.944,218.196 262.257,215.273C259.866,211.133 257.073,207.369 253.883,203.984C250.508,200.404 246.252,197.214 241.605,195.906C241.171,195.783 240.772,195.815 240.405,195.993C240.18,196.102 239.906,196.403 239.584,196.894C234.679,204.366 229.403,211.74 223.692,218.979C222.909,219.97 221.95,220.92 221.17,221.87C221.069,221.992 220.87,221.925 220.867,221.769C220.853,221.111 220.676,220.683 220.543,220.13C219.554,216 218.736,212.175 218.185,208.646C218.152,208.434 218.042,207.498 217.858,205.835C217.624,203.73 217.698,201.987 217.503,199.823C217.43,199.013 217.382,197.948 217.357,196.629C217.251,191.06 217.242,185.371 217.336,179.568C217.353,178.483 217.42,177.081 217.534,175.359C217.628,173.936 217.691,172.53 217.715,171.139C221.973,167.754 225.025,164.426 228.615,160.048C228.966,159.62 229.234,159.244 229.422,158.914C229.92,158.051 230.288,157.533 230.459,156.791Z" style="fill:white;fill-opacity:0.5;"/>
    <path d="M221.976,130.457C222.999,135.307 223.85,139.692 223.908,141.066C223.974,142.632 223.775,144.5 223.313,146.668C223.091,147.704 222.393,150.28 221.57,153.172C220.474,157.029 219.156,161.45 218.453,163.534C218.435,163.579 218.425,163.628 218.421,163.676L217.715,171.139C217.691,172.53 217.628,173.936 217.534,175.359C217.42,177.081 217.353,178.483 217.336,179.568C217.242,185.371 217.251,191.06 217.357,196.629C217.382,197.948 217.43,199.013 217.503,199.823C217.698,201.987 217.624,203.73 217.858,205.835C218.042,207.498 218.152,208.434 218.185,208.646C218.736,212.175 219.554,216 220.543,220.13C220.676,220.683 220.853,221.111 220.867,221.769C220.87,221.925 221.069,221.992 221.17,221.87C221.95,220.92 222.909,219.97 223.692,218.979C229.403,211.74 234.679,204.366 239.584,196.894C239.906,196.403 240.18,196.102 240.405,195.993C240.772,195.815 241.171,195.783 241.605,195.906C246.252,197.214 250.508,200.404 253.883,203.984C257.073,207.369 259.866,211.133 262.257,215.273C263.944,218.196 264.835,219.726 264.928,219.866C266.224,221.789 264.935,222.753 263.606,224.162C263.576,224.194 263.565,224.242 263.579,224.284C263.591,224.321 263.605,224.341 263.621,224.343C263.578,224.355 263.542,224.36 263.509,224.357C263.471,224.354 263.436,224.371 263.408,224.399C260.079,228.135 256.648,231.774 253.117,235.319C252.989,235.448 252.87,235.671 252.762,235.98C252.585,236.026 252.442,236.099 252.341,236.2C247.627,240.909 242.643,245.548 237.399,250.126C231.548,255.234 225.17,259.765 218.588,263.409C215.109,265.335 211.518,266.709 207.817,267.542C206.571,267.822 205.445,267.754 203.823,267.771C201.336,267.799 199.069,266.951 197.126,265.392C196.8,265.13 196.549,264.786 196.399,264.393C195.661,262.465 195.147,260.406 194.868,258.215C194.486,255.212 194.239,252.62 194.131,250.432C193.707,241.832 193.684,233.34 194.065,224.952C194.138,223.348 194.335,221.533 194.649,219.5C194.772,218.707 194.652,217.966 194.806,217.309C194.913,216.853 194.993,216.349 195.032,215.799C195.065,215.329 195.262,213.43 195.62,210.104C195.655,209.78 195.686,209.463 195.714,209.161C195.898,207.188 196.112,205.357 196.364,203.674L196.799,200.422C197.353,196.271 198.016,191.491 198.768,186.081C198.918,185.003 198.882,184.07 199.134,183.228C199.345,182.522 199.203,181.729 199.353,180.977C199.46,180.438 199.533,179.878 199.572,179.301C199.644,178.236 199.749,177.154 199.892,176.055L200.247,170.06C200.25,169.97 200.25,169.868 200.198,169.793C197.622,166.037 197.398,157.505 197.707,155.525C198.191,152.425 199.012,148.939 200.17,145.074C201.736,139.852 202.944,135.987 203.375,132.084C203.5,130.946 202.314,124.291 202.355,123.536C202.359,123.466 202.31,123.404 202.237,123.393C202.167,123.383 202.101,123.428 202.084,123.498C202.084,123.498 200.547,129.071 200.118,129.955C198.807,132.653 197.648,134.599 196.653,135.806C195.064,137.734 193.942,139.045 193.292,139.744C192.495,140.603 191.233,141.775 189.521,143.265C189.438,143.338 189.326,143.376 189.212,143.366C188.937,143.341 188.669,143.223 188.401,143.004C188.672,141.644 188.763,140.485 188.676,139.536C188.335,135.931 184.522,132.783 181.349,131.336C177.059,128.824 173.963,125.317 172.06,120.812C170.766,117.747 170.037,114.181 169.875,110.114C169.823,108.788 170.057,106.238 170.582,102.457C171.498,95.847 171.939,89.045 171.907,82.052C171.893,79.05 171.675,76.245 171.298,73.637C171.284,73.536 171.357,73.442 171.458,73.431C173.877,73.174 176.27,72.706 178.646,72.047C179.596,71.783 180.834,71.233 182.361,70.398C185.346,68.383 187.084,65.654 187.66,62.222C187.67,62.163 187.723,62.119 187.782,62.121C187.841,62.123 187.893,62.166 187.9,62.225C188.034,63.349 188.426,64.309 189.069,65.099C192.201,68.946 197.888,70.382 202.738,70.787C202.905,70.801 203.075,70.791 203.242,70.759L203.685,70.67C203.18,71.72 194.677,100.661 194.59,103.003C194.572,103.493 194.728,104.03 195.063,104.61C195.126,104.718 195.234,104.788 195.359,104.801C197.377,105.023 199.047,103.331 201.058,103.086C202.738,102.882 203.852,103.713 204.411,105.574C204.567,106.092 204.604,107.08 204.544,108.538C204.54,108.632 204.648,108.68 204.717,108.618C206.634,106.261 214.096,100.847 217.194,108.953C217.794,110.521 220.888,125.295 221.976,130.457ZM202.063,121.814C202.075,121.386 202.031,121.049 201.938,120.798C201.621,119.94 201.384,115.545 201.329,114.616C201.321,114.487 201.228,114.376 201.099,114.348C199.076,113.901 197.307,113.976 195.787,114.605C193.018,115.751 189.727,118.703 190.683,122.033C190.986,123.087 191.643,123.788 192.656,124.134C194.015,124.599 195.693,123.314 196.914,122.496C197.812,121.894 199.057,121.631 200.651,121.706C201.033,121.724 201.642,122.012 201.858,122.012C201.969,122.012 202.06,121.925 202.063,121.814ZM181.325,82.014C181.993,82.289 182.709,82.435 183.478,82.449C186.721,82.508 189.869,81.83 192.927,80.407C193.877,79.965 194.437,79.241 194.611,78.232C194.684,77.808 194.441,77.39 194.03,77.251L193.477,77.063C193.112,76.938 192.708,76.997 192.395,77.22C189.038,79.603 185.364,81.089 181.37,81.67C181.189,81.697 181.154,81.944 181.325,82.014ZM189.187,94.671C189.56,95.612 190.301,96.365 191.393,95.499C192.586,93.47 192.78,91.237 191.984,88.795C191.445,87.139 190.013,86.795 189.299,88.61C188.511,90.611 188.392,92.662 189.187,94.671Z" style="fill:white;fill-opacity:0.85;"/>
</svg>
