<?xml version="1.0" encoding="UTF-8" standalone="no"?>
<!DOCTYPE svg PUBLIC "-//W3C//DTD SVG 1.1//EN" "http://www.w3.org/Graphics/SVG/1.1/DTD/svg11.dtd">
<svg width="100%" height="100%" viewBox="0 0 300 300" version="1.1" xmlns="http://www.w3.org/2000/svg" xmlns:xlink="http://www.w3.org/1999/xlink" xml:space="preserve" xmlns:serif="http://www.serif.com/" style="fill-rule:evenodd;clip-rule:evenodd;stroke-linejoin:round;stroke-miterlimit:2;">
    <g transform="matrix(0.320014,0,0,0.320014,-8.57297,-7.6585)">
        <path d="M284.95,305.32L272.04,300.69C271.51,300.5 271.21,299.95 271.33,299.41L280.8,257.9C280.93,257.33 280.8,256.73 280.44,256.28C250,217.6 241.07,166.36 257.52,119.59C270.77,81.92 298.87,51.78 335.47,35.83C355.48,27.11 376.78,23.18 399.36,24.05C402.71,24.18 405.81,24.46 408.65,24.87C413.62,25.59 416.68,26.12 417.82,26.46C421.81,27.65 424.92,28.48 427.13,28.95C427.28,28.98 427.42,29.03 427.55,29.1L430.12,30.55C396.16,25.76 365.11,31.21 336.96,46.88C275,81.39 247.56,155.8 272.28,222.41C277.39,236.17 285.05,249.227 294.68,262.04C294.762,262.149 294.79,262.28 294.76,262.41L284.95,305.32Z" style="fill:white;fill-opacity:0.25;"/>
    </g>
    <g transform="matrix(0.320014,0,0,0.320014,-8.57297,-7.6585)">
        <path d="M430.12,30.55C460.63,36.27 486.39,49.62 507.38,70.61C531.91,95.12 545.83,125.63 549.16,162.13C549.37,164.53 549.42,169.11 549.31,175.87C549.22,181.15 548.93,185.71 548.42,189.54C545.15,214.19 536.62,236.18 522.81,255.49C508.2,275.93 489.38,291.54 466.33,302.31C444.12,312.68 420.03,316.88 394.06,314.91C372.26,313.25 351.48,306.44 331.72,294.48C331.43,294.31 331.09,294.25 330.76,294.33L284.95,305.32L294.76,262.41C294.79,262.28 294.762,262.149 294.68,262.04C285.05,249.227 277.39,236.17 272.28,222.41C247.56,155.8 275,81.39 336.96,46.88C365.11,31.21 396.16,25.76 430.12,30.55ZM378.459,217.499L359.57,146.69C359.46,146.27 358.91,146.17 358.66,146.52L349.04,159.68C348.74,160.09 348.17,160.18 347.76,159.88L326.42,144.3C325.81,143.85 325.67,142.99 326.11,142.38C332.52,133.46 337.97,125.9 342.46,119.69C345.83,115.04 350.28,111.35 355.81,108.62C357.43,107.83 359.74,107.03 362.74,106.23C365.46,105.51 367.82,104.87 369.81,104.32C371.01,103.99 371.94,104.15 372.6,104.82C384.57,105.94 395.56,102.79 405.58,95.36C409.48,93.26 413.96,91.85 419.01,91.13C425.36,90.22 431.57,91.08 437.63,93.69C445.48,97.08 454.04,100.81 463.31,104.89C464.18,105.28 464.58,106.3 464.19,107.18L453.63,131.11C453.43,131.57 452.89,131.78 452.43,131.58L437.41,124.95C437.13,124.83 436.84,125.08 436.92,125.37L457.84,202.34C458.15,203.49 457.47,204.68 456.32,204.99L395.84,221.48C395.82,221.471 395.693,221.434 395.476,221.375C400.248,226.733 407.186,235.213 407,235.46C406.58,236.01 398.5,278.78 398.5,278.78C397.68,280.43 395.86,281.35 394.05,281.02C394.05,281.02 364.664,276.099 363.144,274.679C363.166,274.679 363.188,274.679 363.21,274.68C362.922,274.562 356.243,271.803 356.85,267.87C357.21,265.59 363.22,228.98 363.22,228.98C363.26,228.79 363.33,228.6 363.42,228.43C364.297,226.731 372.896,220.839 378.459,217.499Z" style="fill:white;fill-opacity:0.95;"/>
    </g>
    <g transform="matrix(0.320014,0,0,0.320014,-8.57297,-7.6585)">
        <path d="M391.701,217.853C391.505,217.564 391.33,217.302 391.18,217.07C391.351,217.334 391.525,217.595 391.701,217.853Z" style="fill:white;fill-opacity:0.95;"/>
    </g>
    <g transform="matrix(0.320014,0,0,0.320014,-8.57297,-7.6585)">
        <path d="M378.459,217.499L359.57,146.69C359.46,146.27 358.91,146.17 358.66,146.52L349.04,159.68C348.74,160.09 348.17,160.18 347.76,159.88L326.42,144.3C325.81,143.85 325.67,142.99 326.11,142.38C332.52,133.46 337.97,125.9 342.46,119.69C345.83,115.04 350.28,111.35 355.81,108.62C357.43,107.83 359.74,107.03 362.74,106.23C365.46,105.51 367.82,104.87 369.81,104.32C371.01,103.99 371.94,104.15 372.6,104.82C371.39,104.72 371.362,105.398 372.53,106.85C375.826,110.946 381.73,112.787 386.8,112.42C389.45,112.228 393.959,110.989 396.51,109.67C402.219,106.718 405.24,101.95 405.58,95.36C409.48,93.26 413.96,91.85 419.01,91.13C425.36,90.22 431.57,91.08 437.63,93.69C445.48,97.08 454.04,100.81 463.31,104.89C464.18,105.28 464.58,106.3 464.19,107.18L453.63,131.11C453.43,131.57 452.89,131.78 452.43,131.58L437.41,124.95C437.13,124.83 436.84,125.08 436.92,125.37L457.84,202.34C458.15,203.49 457.47,204.68 456.32,204.99L395.84,221.48C395.82,221.471 395.693,221.434 395.476,221.375C393.302,218.935 391.577,217.142 391.18,217.07C390.11,216.62 388.83,215.84 387.32,214.72C386.87,214.38 386.64,214.9 386.65,216.28C386.06,212.95 386.83,210.13 388.96,207.82C389.3,207.46 389.75,207.23 390.23,207.18L392.7,206.94C393.92,206.82 394.27,205.21 393.2,204.6C390.59,203.12 388,203.85 386.02,206.13C383.83,208.65 382.85,211.65 383.08,215.14C382.636,215.122 380.821,216.08 378.459,217.499Z" style="fill:white;fill-opacity:0.5;"/>
    </g>
    <g transform="matrix(0.320014,0,0,0.320014,-8.57297,-7.6585)">
        <path d="M372.6,104.82C384.57,105.94 395.56,102.79 405.58,95.36C405.24,101.95 402.219,106.718 396.51,109.67C393.959,110.989 389.45,112.228 386.8,112.42C381.73,112.787 375.826,110.946 372.53,106.85C371.362,105.398 371.39,104.72 372.6,104.82Z" style="fill:white;fill-opacity:0.35;"/>
    </g>
    <g transform="matrix(0.320014,0,0,0.320014,-8.57297,-7.6585)">
        <path d="M383.648,218.84C383.213,217.669 383.025,216.434 383.08,215.14C382.85,211.65 383.83,208.65 386.02,206.13C388,203.85 390.59,203.12 393.2,204.6C394.27,205.21 393.92,206.82 392.7,206.94L390.23,207.18C389.75,207.23 389.3,207.46 388.96,207.82C386.83,210.13 386.06,212.95 386.65,216.28L388.18,220.33C388.47,221.09 388.05,221.9 387.32,222.04L387.26,222.05C386.31,222.22 385.349,221.821 384.8,221.03C384.312,220.328 383.928,219.597 383.648,218.84Z" style="fill:white;fill-opacity:0.95;"/>
    </g>
    <g transform="matrix(0.320014,0,0,0.320014,-8.57297,-7.6585)">
        <path d="M393.866,220.963C396.794,225.112 400.861,230.774 402.555,233.723C402.735,234.013 402.805,234.353 402.765,234.693C402.006,241.323 396.82,275.19 394.9,277.58C394.71,277.81 394.48,278.01 394.22,278.17C392.755,279.017 369.452,274.809 363.21,274.68C362.922,274.562 356.243,271.803 356.85,267.87C357.21,265.59 363.22,228.98 363.22,228.98C363.26,228.79 363.33,228.6 363.42,228.43C364.297,226.731 372.896,220.839 378.459,217.499C380.821,216.08 382.636,215.122 383.08,215.14C383.025,216.434 383.213,217.669 383.648,218.84C383.928,219.597 384.312,220.328 384.8,221.03C385.349,221.821 386.31,222.22 387.26,222.05L387.32,222.04C388.05,221.9 388.47,221.09 388.18,220.33L386.65,216.28C386.64,214.9 386.87,214.38 387.32,214.72C388.83,215.84 390.11,216.62 391.18,217.07C391.351,217.334 391.525,217.595 391.701,217.853C392.272,218.696 393.022,219.767 393.866,220.963ZM381.02,230.6L380.47,233.03C380.39,233.38 380.12,233.637 379.77,233.7C372.5,235.004 369.19,242.625 372.12,248.98C372.369,249.52 372.759,249.981 373.25,250.31C375.597,251.884 378.53,253.34 382.06,254.69C383.89,255.39 384.517,256.919 383.96,259.27C383.88,259.61 383.671,259.902 383.39,260.1C379.599,262.767 373.65,260.617 371.4,257.52C370.958,256.911 370.06,256.91 369.62,257.52L367.36,260.6C366.85,261.29 366.96,262.26 367.6,262.83C369.409,264.441 371.608,265.784 374.21,266.83C374.41,266.91 374.524,267.119 374.49,267.32C374.153,269.301 374.539,270.442 375.48,270.71C377.608,271.315 380.957,272.91 380.86,269.12C380.843,268.46 381.36,267.903 382.02,267.87C389.012,267.521 391.914,259.806 390.64,254.13C390.548,253.72 390.36,253.33 390.1,253C388.709,251.231 386.95,249.89 384.82,248.99C381.93,247.77 380.361,247.088 380.11,246.94C377.414,245.356 376.786,242.05 379.56,240.42C379.831,240.261 380.15,240.187 380.46,240.2C384.982,240.388 386.83,241.931 389.59,243.47C389.891,243.638 390.27,243.55 390.48,243.27L393.06,239.73C393.34,239.36 393.25,238.84 392.88,238.56L387.45,234.6C387.17,234.39 387.031,234.04 387.11,233.69C387.534,231.821 386.881,230.742 385.17,230.49C384.051,230.325 382.86,229.983 381.83,229.96C381.44,229.951 381.11,230.22 381.02,230.6Z" style="fill:white;fill-opacity:0.35;"/>
    </g>
    <g transform="matrix(0.320014,0,0,0.320014,-8.57297,-7.6585)">
        <path d="M395.476,221.375C400.248,226.733 407.186,235.213 407,235.46C406.58,236.01 398.5,278.78 398.5,278.78C397.68,280.43 395.86,281.35 394.05,281.02C394.05,281.02 364.664,276.099 363.144,274.679L363.21,274.68C369.452,274.809 392.755,279.017 394.22,278.17C394.48,278.01 394.71,277.81 394.9,277.58C396.82,275.19 402.006,241.323 402.765,234.693C402.805,234.353 402.735,234.013 402.555,233.723C400.861,230.774 396.794,225.112 393.866,220.963C393.022,219.767 392.272,218.696 391.701,217.853L391.18,217.07C391.577,217.142 393.302,218.935 395.476,221.375Z" style="fill:white;fill-opacity:0.25;"/>
    </g>
    <g transform="matrix(0.320014,0,0,0.320014,-8.57297,-7.6585)">
        <path d="M381.02,230.6L380.47,233.03C380.39,233.38 380.12,233.637 379.77,233.7C372.5,235.004 369.19,242.625 372.12,248.98C372.369,249.52 372.759,249.981 373.25,250.31C375.597,251.884 378.53,253.34 382.06,254.69C383.89,255.39 384.517,256.919 383.96,259.27C383.88,259.61 383.671,259.902 383.39,260.1C379.599,262.767 373.65,260.617 371.4,257.52C370.958,256.911 370.06,256.91 369.62,257.52L367.36,260.6C366.85,261.29 366.96,262.26 367.6,262.83C369.409,264.441 371.608,265.784 374.21,266.83C374.41,266.91 374.524,267.119 374.49,267.32C374.153,269.301 374.539,270.442 375.48,270.71C377.608,271.315 380.957,272.91 380.86,269.12C380.843,268.46 381.36,267.903 382.02,267.87C389.012,267.521 391.914,259.806 390.64,254.13C390.548,253.72 390.36,253.33 390.1,253C388.709,251.231 386.95,249.89 384.82,248.99C381.93,247.77 380.361,247.088 380.11,246.94C377.414,245.356 376.786,242.05 379.56,240.42C379.831,240.261 380.15,240.187 380.46,240.2C384.982,240.388 386.83,241.931 389.59,243.47C389.891,243.638 390.27,243.55 390.48,243.27L393.06,239.73C393.34,239.36 393.25,238.84 392.88,238.56L387.45,234.6C387.17,234.39 387.031,234.04 387.11,233.69C387.534,231.821 386.881,230.742 385.17,230.49C384.051,230.325 382.86,229.983 381.83,229.96C381.44,229.951 381.11,230.22 381.02,230.6Z" style="fill:white;fill-opacity:0.95;"/>
    </g>
    <g transform="matrix(0.320014,0,0,0.320014,-8.57297,-7.6585)">
        <path d="M807.34,357.94C803.89,355.38 803.45,352.01 802.48,347.27C800.38,337 802.1,327.54 807.63,318.89C809,316.75 811.44,314.07 814.94,310.84C817.45,308.52 820.45,306.51 823.93,304.8C840.69,296.57 860.11,296.23 877.75,301.56C884.36,303.55 892.01,307.26 897.43,311.65C909.34,321.29 916.42,334 918.67,349.78C920.44,362.18 916.16,373.28 908.38,383.7C907.47,384.91 906.12,386.34 904.33,388.01C902.73,389.49 900.94,391.67 898.77,393.56C895.42,396.46 891.1,399.3 885.81,402.08C879.27,405.51 872.5,407.43 865.49,407.83C865.24,407.84 864.99,407.93 864.78,408.09L863.85,408.82C862.18,406.14 861.219,404.38 860.97,403.53C860.058,400.421 859.64,397.23 859.71,393.95C859.73,393.02 860.118,392.138 860.79,391.49C864.09,388.309 865.059,384.4 863.69,379.73C862.459,375.53 859.494,373.799 855.19,374.68C854.84,374.752 854.508,374.52 854.44,374.17C852.486,364.169 849.631,356.229 840.91,351.08C838.86,349.87 835.67,348.65 831.32,347.44C829.76,346.91 827.62,346.819 824.9,347.17C821.43,347.618 818.1,348.509 814.91,349.84C810.98,351.479 808.45,354.18 807.34,357.94ZM901.96,353.6C902.64,353.11 902.89,352.21 902.56,351.43C899.91,345.23 896.43,339.57 892.12,334.45C888.51,330.17 885.09,325.91 883.09,323.22C881.22,320.72 879.32,318.58 877.38,316.81C872.76,312.61 869.25,308.83 864.27,307.23C857.83,305.16 851.61,305.25 843.87,306.21C839.2,306.79 835.02,307.01 831.35,306.86C830.42,306.82 829.87,307.91 830.42,308.71C830.8,309.27 831.42,309.62 832.28,309.76C834.29,310.07 835.78,310.24 836.75,310.27C844.24,310.46 850.23,310.71 854.74,311.01C860.82,311.42 866.2,313.88 870.87,318.39C876.58,323.9 884.74,333.23 895.35,346.38C895.93,347.09 897.42,349.37 899.82,353.22C900.26,353.94 901.22,354.13 901.91,353.63L901.96,353.6ZM901.4,378.79C899.73,379.98 897.75,380.74 895.47,381.07C890.91,381.72 886.55,373.71 884.56,369.86C877.59,356.41 868.7,345.57 857.9,337.34C849.02,330.57 839.06,327.07 827.94,325.35C820.88,324.25 818.32,321.3 821.82,313.62C822.17,312.86 821.72,311.97 820.9,311.79L820.84,311.78C819.93,311.59 819,312.02 818.57,312.85C816.1,317.6 815.38,324.24 820.3,327.47C822.31,328.79 824.04,329.55 825.49,329.76C834.58,331.03 842.44,333.84 849.07,338.19C862.06,346.71 872.06,358.67 879.94,372.34C882.2,376.26 884.43,379.34 886.64,381.58C891.29,386.29 897.46,385.75 902.34,381.42C903.2,380.65 903.28,379.83 902.57,378.95C902.28,378.6 901.77,378.53 901.4,378.79ZM809.25,323.06C808.56,323.37 808.09,324.04 807.84,325.09C806.6,330.36 807.56,335.1 810.73,339.33C813.04,342.41 817.8,345.33 821.56,343.77C822.55,343.36 822.65,342 821.73,341.45C814.38,337.01 812.36,332.63 811.36,324.19C811.24,323.22 810.18,322.65 809.25,323.06ZM912.25,364.12C913.2,364.01 913.83,363.33 914.16,362.07C916.36,353.57 915.68,345.51 912.11,337.9C910.48,334.44 907.74,330.71 903.87,326.71C899.64,322.33 896.2,319.12 893.56,317.07C891.54,315.5 887.54,312.96 881.55,309.44C880.8,309 879.85,309.17 879.3,309.85L879.25,309.9C878.75,310.52 878.87,311.44 879.51,311.91C888.36,318.5 895.87,326.16 903.09,334.63C910,342.73 911.98,352.63 911.08,362.93C911.02,363.62 911.58,364.19 912.25,364.12ZM899.45,372.19C900.88,367.62 896.69,361.16 893.94,357.36C888.66,350.06 884.68,344.81 882,341.6C876.71,335.27 870.15,329.57 862.3,324.5C854.01,319.15 844.63,316.56 834.16,316.73C833.37,316.74 832.74,317.38 832.73,318.17L832.73,318.23C832.72,319.02 833.34,319.68 834.13,319.74C845.04,320.47 854.94,326.12 863.93,332.39C866.57,334.23 869.81,337.16 873.66,341.17C878.7,346.42 881.68,349.66 882.61,350.88C886.26,355.71 890.02,360.53 893.89,365.35C895.43,367.27 896.56,369.54 897.28,372.15C897.58,373.24 899.11,373.27 899.45,372.19ZM832.68,339.95C832.29,340.84 832.67,341.9 833.56,342.36C835.71,343.48 837.78,344.37 839.89,345.86C850.68,353.43 861.68,364.4 867.2,376.53C870.84,384.54 873.59,392.47 875.44,400.31C875.69,401.35 876.94,401.78 877.76,401.1C878.31,400.65 878.55,399.94 878.5,398.99C877.81,386.83 872.67,374.05 866.46,363.59C863.15,358.02 855.47,351.13 850.39,347.11C845.9,343.56 840.51,340.94 834.24,339.25C833.59,339.07 832.94,339.35 832.68,339.95Z" style="fill:white;fill-opacity:0.5;"/>
    </g>
    <g transform="matrix(0.320014,0,0,0.320014,-8.57297,-7.6585)">
        <path d="M901.96,353.6L901.91,353.63C901.22,354.13 900.26,353.94 899.82,353.22C897.42,349.37 895.93,347.09 895.35,346.38C884.74,333.23 876.58,323.9 870.87,318.39C866.2,313.88 860.82,311.42 854.74,311.01C850.23,310.71 844.24,310.46 836.75,310.27C835.78,310.24 834.29,310.07 832.28,309.76C831.42,309.62 830.8,309.27 830.42,308.71C829.87,307.91 830.42,306.82 831.35,306.86C835.02,307.01 839.2,306.79 843.87,306.21C851.61,305.25 857.83,305.16 864.27,307.23C869.25,308.83 872.76,312.61 877.38,316.81C879.32,318.58 881.22,320.72 883.09,323.22C885.09,325.91 888.51,330.17 892.12,334.45C896.43,339.57 899.91,345.23 902.56,351.43C902.89,352.21 902.64,353.11 901.96,353.6ZM912.25,364.12C911.58,364.19 911.02,363.62 911.08,362.93C911.98,352.63 910,342.73 903.09,334.63C895.87,326.16 888.36,318.5 879.51,311.91C878.87,311.44 878.75,310.52 879.25,309.9L879.3,309.85C879.85,309.17 880.8,309 881.55,309.44C887.54,312.96 891.54,315.5 893.56,317.07C896.2,319.12 899.64,322.33 903.87,326.71C907.74,330.71 910.48,334.44 912.11,337.9C915.68,345.51 916.36,353.57 914.16,362.07C913.83,363.33 913.2,364.01 912.25,364.12ZM901.4,378.79C901.77,378.53 902.28,378.6 902.57,378.95C903.28,379.83 903.2,380.65 902.34,381.42C897.46,385.75 891.29,386.29 886.64,381.58C884.43,379.34 882.2,376.26 879.94,372.34C872.06,358.67 862.06,346.71 849.07,338.19C842.44,333.84 834.58,331.03 825.49,329.76C824.04,329.55 822.31,328.79 820.3,327.47C815.38,324.24 816.1,317.6 818.57,312.85C819,312.02 819.93,311.59 820.84,311.78L820.9,311.79C821.72,311.97 822.17,312.86 821.82,313.62C818.32,321.3 820.88,324.25 827.94,325.35C839.06,327.07 849.02,330.57 857.9,337.34C868.7,345.57 877.59,356.41 884.56,369.86C886.55,373.71 890.91,381.72 895.47,381.07C897.75,380.74 899.73,379.98 901.4,378.79ZM899.45,372.19C899.11,373.27 897.58,373.24 897.28,372.15C896.56,369.54 895.43,367.27 893.89,365.35C890.02,360.53 886.26,355.71 882.61,350.88C881.68,349.66 878.7,346.42 873.66,341.17C869.81,337.16 866.57,334.23 863.93,332.39C854.94,326.12 845.04,320.47 834.13,319.74C833.34,319.68 832.72,319.02 832.73,318.23L832.73,318.17C832.74,317.38 833.37,316.74 834.16,316.73C844.63,316.56 854.01,319.15 862.3,324.5C870.15,329.57 876.71,335.27 882,341.6C884.68,344.81 888.66,350.06 893.94,357.36C896.69,361.16 900.88,367.62 899.45,372.19ZM809.25,323.06C810.18,322.65 811.24,323.22 811.36,324.19C812.36,332.63 814.38,337.01 821.73,341.45C822.65,342 822.55,343.36 821.56,343.77C817.8,345.33 813.04,342.41 810.73,339.33C807.56,335.1 806.6,330.36 807.84,325.09C808.09,324.04 808.56,323.37 809.25,323.06ZM832.68,339.95C832.94,339.35 833.59,339.07 834.24,339.25C840.51,340.94 845.9,343.56 850.39,347.11C855.47,351.13 863.15,358.02 866.46,363.59C872.67,374.05 877.81,386.83 878.5,398.99C878.55,399.94 878.31,400.65 877.76,401.1C876.94,401.78 875.69,401.35 875.44,400.31C873.59,392.47 870.84,384.54 867.2,376.53C861.68,364.4 850.68,353.43 839.89,345.86C837.78,344.37 835.71,343.48 833.56,342.36C832.67,341.9 832.29,340.84 832.68,339.95Z" style="fill:white;fill-opacity:0.25;"/>
    </g>
    <g transform="matrix(0.320014,0,0,0.320014,-8.57297,-7.6585)">
        <path d="M126.07,422.76L118.37,416.13C118.08,415.88 117.82,415.59 117.6,415.28C115.96,412.92 113.51,410.18 110.25,407.06C107.09,404.03 105.03,401.59 104.07,399.72C101.57,394.88 100.13,390.55 99.76,386.74C98.99,378.82 99.87,371.1 102.38,363.58C105.47,354.33 107.17,349.21 107.49,348.2C109.43,342.15 111.36,337.91 113.28,335.48C122.86,323.33 143.37,322.54 157.51,323.53C164.44,324.02 170.97,324.72 177.1,325.62C179.94,326.04 182.3,326.02 185.5,326.61C189.18,327.28 195.43,327.37 204.25,326.87C204.52,326.86 204.77,327.02 204.87,327.27L205.9,329.89C205.99,330.1 206.02,330.33 206.01,330.55C205.9,332.42 205.9,334.15 206,335.74C206.37,341.78 204.12,347.18 198.75,349.97C195.68,351.57 191.22,353.34 185.37,355.27L173.9,357.03C169.83,357.34 165.74,357.361 161.64,357.09C156.65,356.761 153.551,356.802 152.36,357.22C145.894,359.49 144.793,366.028 142.25,372.08C142.102,372.431 142.03,372.8 142.03,373.18C142.03,374.25 142.255,375.425 142.67,376.7C142.774,377.019 142.84,377.34 142.87,377.67C143.556,385.18 145.424,392.398 148.46,399.31C150.884,404.828 155.193,410.036 161.4,406.94C161.42,406.93 162.602,406.042 164.94,404.29C167.672,402.243 170.87,401.57 174.56,402.26C178.13,402.91 181.44,403.133 184.48,402.9C186.67,402.732 188.84,401.35 191.01,398.75L188.94,417.9C188.92,418.05 188.88,418.2 188.83,418.34C186.4,424.56 184.62,431.27 178.82,432.83C174.68,433.95 169.5,434.37 163.28,434.1C157.37,433.78 151.775,431.877 146.5,428.37C146.26,428.21 145.96,428.14 145.67,428.19L144.17,428.4C137.9,428.03 131.86,426.15 126.07,422.76ZM185.92,418.1C187.45,416.75 187.171,414.787 185.34,414.48C182.571,414.016 179.38,413.821 175.75,413.91C175.38,413.919 175.009,413.875 174.65,413.78C172.733,413.275 171.651,412.859 171.39,412.6C169.965,411.185 168.751,410.148 167.77,409.48C166.841,408.848 165.643,408.913 164.88,409.62C164.511,409.962 164.348,410.6 164.41,411.54C164.67,415.461 166.629,418.272 170.28,419.97C174.629,421.992 181.83,421.71 185.92,418.1ZM137.67,406.69C138.01,406.78 138.3,406.44 138.15,406.12C137.84,405.47 137.59,404.35 137.4,402.75C136.45,395.09 135.63,387.18 134.96,379.03C134.92,378.53 134.47,378.16 133.97,378.21C127.26,378.94 123.62,382.71 123.05,389.54C122.73,393.36 123.5,396.92 125.36,400.21C127.49,404 134.13,405.68 137.67,406.69Z" style="fill:white;fill-opacity:0.25;"/>
    </g>
    <g transform="matrix(0.320014,0,0,0.320014,-8.57297,-7.6585)">
        <path d="M212.31,432.28C212.91,432.46 213.34,432.46 213.59,432.28C221.31,426.68 226.8,422.35 230.05,419.29C234.84,414.78 238.9,411.01 242.21,407.96C246.6,403.92 252.04,398.02 258.51,390.27C264.08,383.6 272.35,373.3 283.33,359.38C287.29,354.36 289.64,350.1 293.49,346.11C300.06,339.29 305.5,334.11 309.83,330.57C312.44,328.44 316.46,327.87 320.94,327.96C331.01,328.17 338,335.97 340.69,344.82C341.16,346.35 341.18,348.3 340.76,350.67C340.09,354.5 337.88,356.55 334.13,356.82L329.76,356.98L326.53,356.38L319.96,356.28C315.89,356.96 312.28,360.14 309.13,365.83C307.48,367.25 306.18,368.83 305.24,370.56L300.28,376.85L295.87,379.02L290.72,380.04C290.41,380.1 290.16,380.3 290.04,380.59C289.33,382.28 288.59,384.3 287.82,386.66C284.51,396.79 279.33,408.26 272.3,421.08C262.13,439.61 248.48,455.78 231.34,469.59C230.03,470.65 228.68,471.65 227.31,472.58C227.07,472.15 226.932,471.78 226.9,471.47C225.632,459.014 221.77,447.41 215.5,436.64C215.233,436.186 214.821,435.634 214.265,434.979C213.463,433.934 212.536,432.727 212.31,432.28Z" style="fill:white;fill-opacity:0.75;"/>
    </g>
    <g transform="matrix(0.320014,0,0,0.320014,-8.57297,-7.6585)">
        <path d="M457.26,404.23C455.7,390.83 456.99,378.57 461.14,367.44C462.5,363.79 464.98,360.68 468.58,358.11C470.49,356.75 473.18,356.69 475.03,354.79C485.27,344.27 499.09,343.5 511.7,350.32C517.69,353.57 522.49,357.43 526.09,361.92C530.31,367.18 533.86,373.23 538.44,378.4C539.52,379.62 541.51,381.32 544.42,383.51C554.95,391.4 562.39,401.86 554.98,415.22C552.13,420.37 546.94,427.94 545.08,435.07C544.28,438.18 544.85,442.06 545.75,447.04C547.21,455.08 547.71,462.2 541.11,468.07C535.39,463.94 530.05,461.381 525.08,460.39C517.36,458.851 510.859,457.536 505.58,456.43C504.82,456.271 503.63,456.205 502.02,456.18C501.61,456.174 501.22,456.031 500.9,455.77C498.587,453.884 496.96,451.78 496.02,449.46C496.68,445.21 498.69,442.569 502.05,441.54C511.439,438.666 519.281,435.15 521.09,424.6C522.751,414.91 524.589,407.67 526.61,402.89C527.35,401.14 527.585,398.267 527.22,394.26C527.193,393.96 527.123,393.669 527.01,393.39C524.047,386.078 511.02,388.099 504.93,386.11C502.97,385.47 501.53,385.12 500.6,385.06C492.71,381.24 485.706,376.063 479.61,369.53C478.099,367.911 476.364,366.382 474.77,368.82C470.49,375.366 466.986,382.715 464.35,390.89C464.099,391.67 463.38,392.196 462.57,392.21C459.74,392.257 458.105,393.699 457.66,396.5C457.285,398.859 457.15,401.44 457.26,404.23Z" style="fill:white;fill-opacity:0.3;"/>
    </g>
    <g transform="matrix(0.320014,0,0,0.320014,-8.57297,-7.6585)">
        <path d="M823.35,420.15C810.45,421.52 805.87,410.94 804.99,400.31C804.04,388.78 804.33,377.28 805.86,365.81C806.03,364.52 806.28,363.37 806.6,362.38L817.83,361.15C818.05,361.12 818.2,360.91 818.14,360.69L818.05,360.36C817.98,360.1 817.75,359.907 817.47,359.89C813.862,359.676 810.28,360.13 806.73,361.13L807.34,357.94C808.45,354.18 810.98,351.479 814.91,349.84C818.1,348.509 821.43,347.618 824.9,347.17C827.62,346.819 829.76,346.91 831.32,347.44C825.94,355.15 821.506,363.648 818.04,372.95C816.598,376.819 815.688,380.34 815.32,383.52C815.129,385.17 815.77,386.005 817.23,386.01C819.88,386.019 823.703,385.41 824.12,388.44C824.553,391.59 823.77,395.39 821.78,399.85C818.03,401.06 814.546,400.004 811.35,396.67C810.909,396.211 810.47,396.002 810.04,396.04C809.55,396.083 809.23,396.58 809.4,397.04C811.23,401.99 814.82,404.35 820.15,404.13C820.08,407.37 818.969,411.93 820.5,414.73C821.49,416.54 822.44,418.35 823.35,420.15ZM814.372,369.222C813.61,369.14 812.82,370.6 812.599,372.503C812.38,374.4 812.83,376.01 813.588,376.098C814.35,376.18 815.14,374.72 815.361,372.817C815.58,370.92 815.13,369.31 814.372,369.222Z" style="fill:white;fill-opacity:0.75;"/>
    </g>
    <g transform="matrix(0.320014,0,0,0.320014,-8.57297,-7.6585)">
        <path d="M823.8,420.53C823.51,420.48 823.36,420.35 823.35,420.15C822.44,418.35 821.49,416.54 820.5,414.73C818.969,411.93 820.08,407.37 820.15,404.13C824.11,403.72 827.818,402.338 831.29,399.99C832.06,399.469 831.791,398.277 830.88,398.13C830.69,398.099 830.389,398.148 829.96,398.27C827.817,398.879 825.09,399.42 821.78,399.85C823.77,395.39 824.553,391.59 824.12,388.44C823.703,385.41 819.88,386.019 817.23,386.01C815.77,386.005 815.129,385.17 815.32,383.52C815.688,380.34 816.598,376.819 818.04,372.95C821.506,363.648 825.94,355.15 831.32,347.44C835.67,348.65 838.86,349.87 840.91,351.08C849.631,356.229 852.486,364.169 854.44,374.17C854.508,374.52 854.84,374.752 855.19,374.68C859.494,373.799 862.459,375.53 863.69,379.73C865.059,384.4 864.09,388.309 860.79,391.49C860.118,392.138 859.73,393.02 859.71,393.95C859.64,397.23 860.058,400.421 860.97,403.53C861.219,404.38 862.18,406.14 863.85,408.82C860.77,416.95 860.86,424.97 864.11,432.88C864.24,433.19 864.56,433.38 864.89,433.32L865.2,433.26L865.14,435.25C865.13,435.57 864.982,435.872 864.74,436.09C861.522,438.995 855.44,440.218 851.3,440.75C848.05,441.168 843.06,441.228 836.31,440.97C834.94,440.918 833.64,440.23 832.43,438.9C835.23,437.68 838.471,436.672 840.86,435.25C844.602,433.023 847.67,430.12 850.08,426.55C853.53,421.44 854.698,416.362 856.69,409.75C856.75,409.55 856.649,409.332 856.45,409.26C855.557,408.938 849.751,413.182 845.5,415.94C839.112,420.083 831.48,420.51 823.8,420.53ZM826.45,361.92L837.72,365.07C837.79,365.08 837.86,365.04 837.88,364.97L837.89,364.92C838.17,363.92 836.63,362.62 834.45,362.01L830.83,361C828.65,360.39 826.65,360.71 826.37,361.7L826.36,361.76C826.34,361.83 826.38,361.9 826.45,361.92ZM829.025,369.156C828.21,369.06 827.37,370.55 827.131,372.492C826.9,374.43 827.36,376.09 828.175,376.184C828.99,376.28 829.83,374.79 830.069,372.848C830.3,370.91 829.84,369.25 829.025,369.156Z" style="fill:white;fill-opacity:0.95;"/>
    </g>
    <g transform="matrix(0.320014,0,0,0.320014,-8.57297,-7.6585)">
        <path d="M185.37,355.27C188.16,360.48 189.77,365.73 190.2,371.04C188.86,370.62 187.81,370.51 187.04,370.71C186,370.98 185.629,372.261 186.36,373.05C187.837,374.643 189.4,375.66 191.04,376.1C191.07,380.65 191.05,385.2 190.99,389.73C190.98,389.96 190.84,391.47 190.57,394.25C190.41,395.94 190.56,397.44 191.01,398.75C188.84,401.35 186.67,402.732 184.48,402.9C181.44,403.133 178.13,402.91 174.56,402.26C176.28,395.27 181.122,400.973 184.12,397.98C184.36,397.74 184.5,397.42 184.51,397.09C184.559,395.48 184.48,393.87 184.27,392.26C183.201,384.07 181.177,375.645 177.87,367.12C176.575,363.782 175.25,360.42 173.9,357.03L185.37,355.27ZM188.999,381.83C188.24,381.84 187.64,383.35 187.66,385.197C187.68,387.05 188.32,388.54 189.081,388.53C189.84,388.52 190.44,387.01 190.42,385.163C190.4,383.31 189.76,381.82 188.999,381.83Z" style="fill:white;fill-opacity:0.75;"/>
    </g>
    <g transform="matrix(0.320014,0,0,0.320014,-8.57297,-7.6585)">
        <path d="M326.53,356.38L319.96,356.28C320.9,356.63 321.49,357.21 321.73,358.01C327.91,378.49 334.07,398.99 340.21,419.5L345.56,419.67C344.82,419.58 344.37,419.28 344.21,418.75C338.13,398.58 332.05,378.42 325.96,358.25C325.68,357.33 325.87,356.71 326.53,356.38Z" style="fill:white;fill-opacity:0.5;"/>
    </g>
    <g transform="matrix(0.320014,0,0,0.320014,-8.57297,-7.6585)">
        <path d="M173.9,357.03C169.83,357.34 165.74,357.361 161.64,357.09C156.65,356.761 153.551,356.802 152.36,357.22C145.894,359.49 144.793,366.028 142.25,372.08C142.102,372.431 142.03,372.8 142.03,373.18C142.03,374.25 142.255,375.425 142.67,376.7C142.774,377.019 142.84,377.34 142.87,377.67C143.556,385.18 145.424,392.398 148.46,399.31C150.884,404.828 155.193,410.036 161.4,406.94C161.42,406.93 162.602,406.042 164.94,404.29C167.672,402.243 170.87,401.57 174.56,402.26C176.28,395.27 181.122,400.973 184.12,397.98C184.36,397.74 184.5,397.42 184.51,397.09C184.559,395.48 184.48,393.87 184.27,392.26C183.201,384.07 181.177,375.645 177.87,367.12C176.575,363.782 175.25,360.42 173.9,357.03ZM179.142,372.066C178.95,370.83 175.64,370.32 171.755,370.938C167.87,371.55 164.88,373.06 165.078,374.294C165.27,375.53 168.58,376.04 172.465,375.422C176.35,374.81 179.34,373.3 179.142,372.066ZM175.063,380.36C174.17,380.36 173.46,382.08 173.46,384.193C173.46,386.31 174.19,388.02 175.077,388.02C175.97,388.02 176.68,386.3 176.68,384.187C176.68,382.07 175.95,380.36 175.063,380.36Z" style="fill:white;fill-opacity:0.95;"/>
    </g>
    <g transform="matrix(0.320014,0,0,0.320014,-8.57297,-7.6585)">
        <path d="M334.13,356.82L362.52,419.86L358.04,420.02L329.76,356.98L334.13,356.82Z" style="fill:white;fill-opacity:0.5;"/>
    </g>
    <g transform="matrix(0.320014,0,0,0.320014,-8.57297,-7.6585)">
        <path d="M806.6,362.38C806.55,361.82 806.59,361.4 806.73,361.13C810.28,360.13 813.862,359.676 817.47,359.89C817.75,359.907 817.98,360.1 818.05,360.36L818.14,360.69C818.2,360.91 818.05,361.12 817.83,361.15L806.6,362.38Z" style="fill:white;fill-opacity:0.15;"/>
    </g>
    <g transform="matrix(0.320014,0,0,0.320014,-8.57297,-7.6585)">
        <path d="M826.45,361.92L837.72,365.07C837.79,365.08 837.86,365.04 837.88,364.97L837.89,364.92C838.17,363.92 836.63,362.62 834.45,362.01L830.83,361C828.65,360.39 826.65,360.71 826.37,361.7L826.36,361.76C826.34,361.83 826.38,361.9 826.45,361.92Z" style="fill:white;fill-opacity:0.15;"/>
    </g>
    <g transform="matrix(0.320014,0,0,0.320014,-8.57297,-7.6585)">
        <path d="M309.13,365.83C307.48,367.25 306.18,368.83 305.24,370.56L303.9,419.01L307.5,419.06L309.13,365.83Z" style="fill:white;fill-opacity:0.5;"/>
    </g>
    <g transform="matrix(0.320014,0,0,0.320014,-8.57297,-7.6585)">
        <path d="M410.15,563.32C409.965,563.233 410.141,561.024 410.439,558.277C410.467,558.32 410.5,558.345 410.537,558.348C410.66,558.36 410.79,558.11 410.819,557.781C410.85,557.46 410.77,557.18 410.644,557.172C410.615,557.17 410.587,557.18 410.559,557.203C411.053,552.87 411.755,547.768 411.83,547.43C412.8,543.18 413.26,537.13 414.74,531.91C415.15,530.46 415.5,528.93 415.79,527.31C417.66,516.98 419.27,507.05 420.63,497.52C421.66,490.31 423.07,484.66 424.88,480.57C429.07,471.04 436.17,463.91 446.18,459.16C453.62,457.57 461.228,456.125 469.02,454.86C470.33,454.647 471.6,454.555 472.83,454.6C473.32,454.618 473.76,454.31 473.91,453.85C475.032,450.401 475.551,446.94 475.48,443.46C475.361,437.6 472.459,433.761 468.65,429.73C464.249,425.071 462.411,417.037 461.97,410.62C461.943,410.22 461.79,409.85 461.54,409.55L457.51,404.83L457.26,404.23C457.15,401.44 457.285,398.859 457.66,396.5C458.105,393.699 459.74,392.257 462.57,392.21C463.38,392.196 464.099,391.67 464.35,390.89C466.986,382.715 470.49,375.366 474.77,368.82C476.364,366.382 478.099,367.911 479.61,369.53C485.706,376.063 492.71,381.24 500.6,385.06C500.89,388.12 501.098,391.19 501.23,394.26C501.545,401.57 500.886,408.149 499.25,413.98C499.04,414.73 498.27,415.17 497.51,414.98L493.69,413.98C492.74,413.73 491.745,414.192 491.32,415.08C489.866,418.118 489.13,421.6 489.16,425.57C487.02,424.26 485.399,421.85 484.3,418.34C484.25,418.18 484.11,418.07 483.95,418.08L483.57,418.08C483.34,418.08 483.157,418.301 483.2,418.53C483.957,422.57 486.02,425.62 489.23,427.69C488.09,435.82 490.35,443.08 496.02,449.46C496.96,451.78 498.587,453.884 500.9,455.77C501.22,456.031 501.61,456.174 502.02,456.18C503.63,456.205 504.82,456.271 505.58,456.43C510.859,457.536 517.36,458.851 525.08,460.39C530.05,461.381 535.39,463.94 541.11,468.07C545.3,471.16 548.06,474.08 549.4,476.85C553.21,484.73 557.35,493.02 561.8,501.72L552.1,507.39C549.95,509.18 548.283,511.731 547.11,515.06C544.437,522.643 541.95,530.3 539.67,538.04C536.01,533.58 532.9,528.95 530.33,524.15C530.2,523.92 529.86,523.95 529.79,524.21L517.23,572.21C517.19,572.37 517.22,572.55 517.33,572.68C517.9,573.39 519.63,576.51 522.52,582.03C524.19,585.22 525.7,588.43 527.05,591.66C531.66,602.67 536.96,612.42 539.73,622.96C542.05,631.79 543.46,637.48 543.96,640.05C551.53,678.94 556,701.78 557.37,708.57C558.88,716.05 570.77,816.26 571.42,821.15C571.98,825.33 571.71,827.4 572.5,831.23C572.96,833.45 573.36,836.71 573.7,841C573.95,844.07 575.45,857.86 576.12,860.26C576.24,860.7 575.85,861.11 575.4,861.01C574.33,860.76 573.3,860.97 572.33,861.66L557.58,862.93C557.36,862.95 551.39,863.67 549.68,863.9C549.12,863.97 548.61,863.6 548.5,863.04C543.07,833.69 536.76,800.86 529.56,764.54C529.01,761.78 528.51,758.95 528.06,756.05C526.16,743.97 523.72,732.13 520.73,720.52C517.72,708.84 508.8,674.05 493.96,616.14C493.87,615.8 493.64,615.51 493.33,615.34C492,614.63 490.7,614.53 489.43,615.05C488.9,615.27 488.57,615.79 488.6,616.35C488.81,620.74 488.12,627.94 488.11,628.26L479.18,863.46C479.17,863.65 479.01,863.8 478.82,863.81L471.31,863.95L455.09,864.1L450.93,863.9C450.36,863.87 449.91,863.43 449.86,862.86C449.79,862.08 449.92,861.36 450.24,860.7C451.35,853.03 460.913,636.926 463.29,585.98C463.319,585.36 462.82,584.85 462.21,584.87L460.67,584.9C460.53,584.9 460.42,584.79 460.42,584.65L460.42,584.64C460.42,584.54 460.51,584.451 460.61,584.45C473.502,584.315 487.048,582.025 501.24,578C506.889,576.398 511.809,574.344 515.98,571.79C516.451,571.502 516.25,570.78 515.7,570.79L456.7,571.34C456.43,571.35 456.229,571.1 456.28,570.84C456.565,569.389 456.74,568.28 456.79,567.5C458.137,546.689 458.681,523.88 458.44,499.05C458.429,497.93 457.23,497.22 456.25,497.75L455.95,497.91C454.61,498.64 453.73,500.01 453.64,501.53L452.33,521.83C451.73,529.32 450.56,536.73 448.81,544.07C448.1,547.07 447.02,550.14 445.57,553.27C444.2,556.23 442.79,559.17 441.36,562.1C440.87,563.1 440.28,563.92 439.59,564.55C437.4,564.26 435.36,564.651 433.45,565.74C432.59,566.23 430.428,566.532 426.97,566.76C426.58,566.786 426.18,566.76 425.8,566.67L410.15,563.32ZM483.59,392.36C483.63,392.64 483.91,392.82 484.18,392.74C489.08,391.32 493.91,392.83 498.06,392.98C498.58,393 498.91,392.42 498.62,391.98C498.26,391.41 497.63,391.01 496.73,390.76C492.64,389.65 488.38,389.96 483.95,391.71C483.7,391.81 483.55,392.07 483.59,392.33L483.59,392.36ZM492.49,396.755C491.59,396.52 490.45,397.92 489.943,399.88C489.44,401.84 489.77,403.61 490.67,403.845C491.57,404.08 492.71,402.68 493.217,400.72C493.72,398.76 493.39,396.99 492.49,396.755Z" style="fill:white;fill-opacity:0.95;"/>
    </g>
    <g transform="matrix(0.320014,0,0,0.320014,-8.57297,-7.6585)">
        <path d="M814.372,369.222C813.61,369.14 812.82,370.6 812.599,372.503C812.38,374.4 812.83,376.01 813.588,376.098C814.35,376.18 815.14,374.72 815.361,372.817C815.58,370.92 815.13,369.31 814.372,369.222Z" style="fill:white;fill-opacity:0.15;"/>
    </g>
    <g transform="matrix(0.320014,0,0,0.320014,-8.57297,-7.6585)">
        <path d="M829.025,369.156C828.21,369.06 827.37,370.55 827.131,372.492C826.9,374.43 827.36,376.09 828.175,376.184C828.99,376.28 829.83,374.79 830.069,372.848C830.3,370.91 829.84,369.25 829.025,369.156Z" style="fill:white;fill-opacity:0.15;"/>
    </g>
    <g transform="matrix(0.320014,0,0,0.320014,-8.57297,-7.6585)">
        <path d="M190.2,371.04C190.23,371.91 190.57,372.43 191.23,372.61C193.99,373.36 196.04,374.96 197.39,377.39C197.54,377.66 197.24,377.97 196.96,377.83C195.06,376.88 193.09,376.31 191.04,376.1C189.4,375.66 187.837,374.643 186.36,373.05C185.629,372.261 186,370.98 187.04,370.71C187.81,370.51 188.86,370.62 190.2,371.04Z" style="fill:white;fill-opacity:0.15;"/>
    </g>
    <g transform="matrix(0.320014,0,0,0.320014,-8.57297,-7.6585)">
        <path d="M179.142,372.066C178.95,370.83 175.64,370.32 171.755,370.938C167.87,371.55 164.88,373.06 165.078,374.294C165.27,375.53 168.58,376.04 172.465,375.422C176.35,374.81 179.34,373.3 179.142,372.066Z" style="fill:white;fill-opacity:0.15;"/>
    </g>
    <g transform="matrix(0.320014,0,0,0.320014,-8.57297,-7.6585)">
        <path d="M286.94,418.97L295.87,379.02L300.28,376.85L290.93,419.02L286.94,418.97Z" style="fill:white;fill-opacity:0.5;"/>
    </g>
    <g transform="matrix(0.320014,0,0,0.320014,-8.57297,-7.6585)">
        <path d="M137.67,406.69C138.01,406.78 138.3,406.44 138.15,406.12C137.84,405.47 137.59,404.35 137.4,402.75C136.45,395.09 135.63,387.18 134.96,379.03C134.92,378.53 134.47,378.16 133.97,378.21C127.26,378.94 123.62,382.71 123.05,389.54C122.73,393.36 123.5,396.92 125.36,400.21C127.49,404 134.13,405.68 137.67,406.69Z" style="fill:white;fill-opacity:0.95;"/>
    </g>
    <g transform="matrix(0.320014,0,0,0.320014,-8.57297,-7.6585)">
        <path d="M175.063,380.36C174.17,380.36 173.46,382.08 173.46,384.193C173.46,386.31 174.19,388.02 175.077,388.02C175.97,388.02 176.68,386.3 176.68,384.187C176.68,382.07 175.95,380.36 175.063,380.36Z" style="fill:white;fill-opacity:0.15;"/>
    </g>
    <g transform="matrix(0.320014,0,0,0.320014,-8.57297,-7.6585)">
        <path d="M188.999,381.83C188.24,381.84 187.64,383.35 187.66,385.197C187.68,387.05 188.32,388.54 189.081,388.53C189.84,388.52 190.44,387.01 190.42,385.163C190.4,383.31 189.76,381.82 188.999,381.83Z" style="fill:white;fill-opacity:0.15;"/>
    </g>
    <g transform="matrix(0.320014,0,0,0.320014,-8.57297,-7.6585)">
        <path d="M500.6,385.06C500.89,388.12 501.098,391.19 501.23,394.26C501.545,401.57 500.886,408.149 499.25,413.98C499.04,414.73 498.27,415.17 497.51,414.98L493.69,413.98C492.74,413.73 491.745,414.192 491.32,415.08C489.866,418.118 489.13,421.6 489.16,425.57C491.47,427.23 494.209,427.942 497.38,427.73C497.69,427.709 497.97,427.92 498.03,428.23L498.03,428.26C498.08,428.55 497.88,428.831 497.58,428.87C494.772,429.232 491.98,428.82 489.23,427.69C488.09,435.82 490.35,443.08 496.02,449.46C496.68,445.21 498.69,442.569 502.05,441.54C511.439,438.666 519.281,435.15 521.09,424.6C522.751,414.91 524.589,407.67 526.61,402.89C527.35,401.14 527.585,398.267 527.22,394.26C527.193,393.96 527.123,393.669 527.01,393.39C524.047,386.078 511.02,388.099 504.93,386.11C502.97,385.47 501.53,385.12 500.6,385.06ZM519.71,401.31L519.72,401.29C519.85,401.11 519.83,400.85 519.68,400.68C516.95,397.68 513.82,395.84 510.28,395.15C509.5,395 508.86,395.07 508.38,395.37C507.99,395.59 508.02,396.16 508.43,396.34C511.65,397.79 515.91,398.45 519.11,401.38C519.29,401.54 519.57,401.51 519.71,401.31ZM508.396,401.768C507.58,401.57 506.55,402.95 506.092,404.855C505.64,406.76 505.93,408.46 506.744,408.652C507.56,408.85 508.59,407.47 509.048,405.565C509.5,403.66 509.21,401.96 508.396,401.768Z" style="fill:white;fill-opacity:0.75;"/>
    </g>
    <g transform="matrix(0.320014,0,0,0.320014,-8.57297,-7.6585)">
        <path d="M483.59,392.36C483.63,392.64 483.91,392.82 484.18,392.74C489.08,391.32 493.91,392.83 498.06,392.98C498.58,393 498.91,392.42 498.62,391.98C498.26,391.41 497.63,391.01 496.73,390.76C492.64,389.65 488.38,389.96 483.95,391.71C483.7,391.81 483.55,392.07 483.59,392.33L483.59,392.36Z" style="fill:white;fill-opacity:0.15;"/>
    </g>
    <g transform="matrix(0.320014,0,0,0.320014,-8.57297,-7.6585)">
        <path d="M519.71,401.31L519.72,401.29C519.85,401.11 519.83,400.85 519.68,400.68C516.95,397.68 513.82,395.84 510.28,395.15C509.5,395 508.86,395.07 508.38,395.37C507.99,395.59 508.02,396.16 508.43,396.34C511.65,397.79 515.91,398.45 519.11,401.38C519.29,401.54 519.57,401.51 519.71,401.31Z" style="fill:white;fill-opacity:0.15;"/>
    </g>
    <g transform="matrix(0.320014,0,0,0.320014,-8.57297,-7.6585)">
        <path d="M820.15,404.13C824.11,403.72 827.818,402.338 831.29,399.99C832.06,399.469 831.791,398.277 830.88,398.13C830.69,398.099 830.389,398.148 829.96,398.27C827.817,398.879 825.09,399.42 821.78,399.85C818.03,401.06 814.546,400.004 811.35,396.67C810.909,396.211 810.47,396.002 810.04,396.04C809.55,396.083 809.23,396.58 809.4,397.04C811.23,401.99 814.82,404.35 820.15,404.13Z" style="fill:white;fill-opacity:0.15;"/>
    </g>
    <g transform="matrix(0.320014,0,0,0.320014,-8.57297,-7.6585)">
        <path d="M492.49,396.755C491.59,396.52 490.45,397.92 489.943,399.88C489.44,401.84 489.77,403.61 490.67,403.845C491.57,404.08 492.71,402.68 493.217,400.72C493.72,398.76 493.39,396.99 492.49,396.755Z" style="fill:white;fill-opacity:0.15;"/>
    </g>
    <g transform="matrix(0.320014,0,0,0.320014,-8.57297,-7.6585)">
        <path d="M508.396,401.768C507.58,401.57 506.55,402.95 506.092,404.855C505.64,406.76 505.93,408.46 506.744,408.652C507.56,408.85 508.59,407.47 509.048,405.565C509.5,403.66 509.21,401.96 508.396,401.768Z" style="fill:white;fill-opacity:0.15;"/>
    </g>
    <g transform="matrix(0.320014,0,0,0.320014,-8.57297,-7.6585)">
        <path d="M446.18,459.16C444.25,455.41 443.62,451.79 444.29,448.28C444.69,446.23 445.81,443.13 446.89,440.77C450.09,433.82 452.72,427.5 454.79,421.8C456.34,417.51 457.15,414.32 457.2,412.23C457.27,409.87 457.37,407.4 457.51,404.83L461.54,409.55C461.79,409.85 461.943,410.22 461.97,410.62C462.411,417.037 464.249,425.071 468.65,429.73C472.459,433.761 475.361,437.6 475.48,443.46C475.551,446.94 475.032,450.401 473.91,453.85C473.76,454.31 473.32,454.618 472.83,454.6C471.6,454.555 470.33,454.647 469.02,454.86C461.228,456.125 453.62,457.57 446.18,459.16Z" style="fill:white;fill-opacity:0.3;"/>
    </g>
    <g transform="matrix(0.320014,0,0,0.320014,-8.57297,-7.6585)">
        <path d="M185.92,418.1C187.45,416.75 187.171,414.787 185.34,414.48C182.571,414.016 179.38,413.821 175.75,413.91C175.38,413.919 175.009,413.875 174.65,413.78C172.733,413.275 171.651,412.859 171.39,412.6C169.965,411.185 168.751,410.148 167.77,409.48C166.841,408.848 165.643,408.913 164.88,409.62C164.511,409.962 164.348,410.6 164.41,411.54C164.67,415.461 166.629,418.272 170.28,419.97C174.629,421.992 181.83,421.71 185.92,418.1Z" style="fill:white;fill-opacity:0.95;"/>
    </g>
    <g transform="matrix(0.320014,0,0,0.320014,-8.57297,-7.6585)">
        <path d="M827.35,438.71C827.92,432.34 826.73,426.28 823.8,420.53C831.48,420.51 839.112,420.083 845.5,415.94C849.751,413.182 855.557,408.938 856.45,409.26C856.649,409.332 856.75,409.55 856.69,409.75C854.698,416.362 853.53,421.44 850.08,426.55C847.67,430.12 844.602,433.023 840.86,435.25C838.471,436.672 835.23,437.68 832.43,438.9C830.42,439.44 828.73,439.38 827.35,438.71Z" style="fill:white;fill-opacity:0.75;"/>
    </g>
    <g transform="matrix(0.320014,0,0,0.320014,-8.57297,-7.6585)">
        <path d="M489.16,425.57C487.02,424.26 485.399,421.85 484.3,418.34C484.25,418.18 484.11,418.07 483.95,418.08L483.57,418.08C483.34,418.08 483.157,418.301 483.2,418.53C483.957,422.57 486.02,425.62 489.23,427.69C491.98,428.82 494.772,429.232 497.58,428.87C497.88,428.831 498.08,428.55 498.03,428.26L498.03,428.23C497.97,427.92 497.69,427.709 497.38,427.73C494.209,427.942 491.47,427.23 489.16,425.57Z" style="fill:white;fill-opacity:0.15;"/>
    </g>
    <g transform="matrix(0.320014,0,0,0.320014,-8.57297,-7.6585)">
        <path d="M362.52,419.86C363.17,419.63 363.63,420 363.9,420.98C363.39,421.49 363.14,421.92 363.15,422.25C363.319,427.79 364.431,434.46 363.96,439.94C363.91,440.52 363.887,444.54 363.91,451.99C363.945,463.03 364.935,475.35 364.93,484.05C364.923,496.36 365.885,510.8 365.92,524.87C365.932,529.51 366.142,536.43 366.54,545.64C366.912,554.23 367.06,562.89 366.99,571.62L365.49,572.73C365.25,572.91 364.95,572.98 364.66,572.93C359.36,572.06 291.52,567.92 284.46,567.93C280.21,567.94 275.69,567.55 270.9,566.77C270.41,566.69 270.06,566.27 270.05,565.78C270.03,562.52 280.99,425.57 282.23,419.81C282.32,419.39 282.69,419.09 283.11,419.08L286.94,418.97L290.93,419.02L303.9,419.01L307.5,419.06L340.21,419.5L345.56,419.67L358.04,420.02L362.52,419.86Z" style="fill:white;fill-opacity:0.95;"/>
    </g>
    <g transform="matrix(0.320014,0,0,0.320014,-8.57297,-7.6585)">
        <path d="M363.9,420.98L396.59,555.21C396.84,556.26 396.21,557.32 395.16,557.58L392.71,558.18C392.64,558.2 392.57,558.23 392.51,558.26L366.99,571.62C367.06,562.89 366.912,554.23 366.54,545.64C366.142,536.43 365.932,529.51 365.92,524.87C365.885,510.8 364.923,496.36 364.93,484.05C364.935,475.35 363.945,463.03 363.91,451.99C363.887,444.54 363.91,440.52 363.96,439.94C364.431,434.46 363.319,427.79 363.15,422.25C363.14,421.92 363.39,421.49 363.9,420.98Z" style="fill:white;fill-opacity:0.75;"/>
    </g>
    <g transform="matrix(0.320014,0,0,0.320014,-8.57297,-7.6585)">
        <path d="M68.12,512.15C71.49,495.94 76.41,480.14 82.87,464.75C86.46,456.21 92.69,450.56 101.55,447.79C110.77,444.92 119.83,443.86 125.11,437.37C128.03,433.79 127.44,427.04 126.07,422.76C131.86,426.15 137.9,428.03 144.17,428.4C145.6,430.02 147.131,431.548 148.76,432.99C153.714,437.375 157.032,442.792 158.75,449.24C158.899,449.8 159.56,450.041 160.03,449.7C161.722,448.472 163.2,447.45 164.47,446.66C165.13,446.25 165.15,445.299 164.5,444.87C163.711,444.349 163.39,443.45 163.54,442.18L168.73,441.98C169.46,441.95 170.19,441.86 170.9,441.7C186.26,438.31 196.75,436.5 208.54,430.77C210.35,429.89 211.6,430.39 212.31,432.28C212.7,433.05 213.21,433.79 213.85,434.5C213.996,434.665 214.135,434.825 214.265,434.979C214.846,435.734 215.361,436.405 215.5,436.64C221.77,447.41 225.632,459.014 226.9,471.47C226.932,471.78 227.07,472.15 227.31,472.58C227.03,472.93 226.9,473.24 226.93,473.51C227.4,477.91 227.55,482.82 227.39,488.24C227.33,490.49 226.44,492.31 224.73,493.72C218.13,499.15 212.22,503.73 207.01,507.46C205.96,508.21 205.13,509.07 204.51,510.05C204.04,510.8 203.18,511.61 201.95,512.47C201.18,513.01 200.84,513.99 201.12,514.89C201.41,515.84 201.62,516.7 201.75,517.48C205,538.02 207.06,559.42 205.76,580.23C205.51,584.33 204.01,587.68 201.26,590.29C200.62,590.9 200.071,591.991 200.65,592.64C226.392,621.476 195.86,860.15 195.81,860.37C195.17,862.82 194.96,865.1 195.18,867.22C195.21,867.53 195.03,867.81 194.74,867.89C192.11,868.65 188.16,870.46 189.02,874.11C189.07,874.35 189.16,874.58 189.28,874.79C191.7,879.29 194.14,884.39 198.08,887.7C201.32,890.43 207.85,891.91 210.95,893.83C213.98,895.7 218.41,898.76 220.35,902.37C222.54,906.44 222.7,910.82 220.83,915.52C220.74,915.75 220.47,916 220.04,916.27L219.75,916.02C219.55,915.85 219.321,915.717 219.07,915.63C212.484,913.339 205.861,911.106 199.28,908.74C197.97,908.269 196.91,907.73 196.11,907.14C191.66,903.859 185.805,899.226 178.55,893.22C177.259,892.151 176.582,891.07 176.53,889.97C176.289,884.86 176.136,880.02 176.07,875.45C176.062,874.89 175.53,874.48 174.99,874.63L170.42,875.88C170.06,875.97 169.716,875.7 169.73,875.33C169.878,871.438 171.737,838.841 175.11,777.54C175.301,774.07 175.15,770.56 174.66,767.02C170.603,737.74 166.017,703.94 160.92,665.62C160.29,660.88 159.958,657.829 159.88,656.48C159.872,656.34 159.76,656.23 159.62,656.22L159.6,656.22C159.45,656.22 159.323,656.33 159.31,656.48C158.781,662.73 158.159,669.15 157.79,675.77C156.267,703.08 154.74,732.41 153.2,763.76C153.07,766.57 152.43,770.26 151.3,774.82C149.121,783.61 147.35,789.92 145.99,793.73L122.46,884.48C122.27,885.22 121.59,885.73 120.83,885.72C118.96,885.7 117.3,886.19 115.85,887.18C104.32,888.38 93.51,886.57 83.42,881.74L75.77,876.4C85.36,839.04 94.98,801.81 104.61,764.71C105.26,762.18 105.732,759.62 106.02,757.03C108.753,732.413 111.42,707.55 114.09,682.45C116.63,685.9 119.722,687.834 123.36,688.32C123.65,688.359 123.93,688.358 124.21,688.32C129.566,687.588 134.649,686.048 139.45,683.6C142.689,681.949 141.81,679.13 139.5,677.07C136.55,674.44 131.617,669.861 130.02,665.75C128.998,663.121 127.591,660.306 131.06,659.56C132.861,659.173 135.36,659.61 138.57,660.87C141.91,662.18 143.411,659.139 140.84,656.92C136.492,653.168 133.054,650.434 130.5,648.73C128.244,647.225 126.471,646.75 123.8,646.61C123.18,646.578 122.61,646.25 122.28,645.72C121.754,644.874 120.63,642.819 119.32,640.344L119.32,632.77C119.35,632.42 119.63,632.133 119.98,632.1C122.052,631.906 124.14,631.44 126.25,630.74C134.91,627.869 141.748,624.376 151.17,619.81C162.568,614.286 173.604,608.117 184.27,601.26C186.741,599.672 189.314,597.848 191.95,595.72C192.061,595.631 192.086,595.482 192.02,595.36C191.956,595.242 191.81,595.181 191.68,595.23C167.778,604.213 143.377,610.066 118.56,612.13C118.41,612.142 118.281,612.02 118.28,611.87C118.225,599.06 117.29,583 116.47,571.09C115.271,553.68 115.892,536.352 118.06,519.07C118.091,518.82 117.87,518.61 117.62,518.66L108.35,520.74C98.95,522.07 90.53,521.649 83.08,519.48C78.68,518.199 73.69,515.76 68.12,512.15Z" style="fill:white;fill-opacity:0.95;"/>
    </g>
    <g transform="matrix(0.320014,0,0,0.320014,-8.57297,-7.6585)">
        <path d="M214.265,434.979C214.135,434.825 213.996,434.665 213.85,434.5C213.21,433.79 212.7,433.05 212.31,432.28C212.536,432.727 213.463,433.934 214.265,434.979Z" style="fill:white;fill-opacity:0.95;"/>
    </g>
    <g transform="matrix(0.320014,0,0,0.320014,-8.57297,-7.6585)">
        <path d="M163.28,434.1C162.55,437.63 162.64,440.32 163.54,442.18C163.39,443.45 163.711,444.349 164.5,444.87C165.15,445.299 165.13,446.25 164.47,446.66C163.2,447.45 161.722,448.472 160.03,449.7C159.56,450.041 158.899,449.8 158.75,449.24C157.032,442.792 153.714,437.375 148.76,432.99C147.131,431.548 145.6,430.02 144.17,428.4L145.67,428.19C145.96,428.14 146.26,428.21 146.5,428.37C151.775,431.877 157.37,433.78 163.28,434.1Z" style="fill:white;fill-opacity:0.75;"/>
    </g>
    <g transform="matrix(0.320014,0,0,0.320014,-8.57297,-7.6585)">
        <path d="M625.14,435.03C624.94,434.12 624.04,432.89 622.45,431.35C621.44,430.38 622.08,428.68 623.48,428.6L629.33,428.27C629.67,428.25 629.99,428.43 630.16,428.72C631.69,431.32 632.09,433.97 631.34,436.66C629.86,439.35 629.24,441.84 629.47,444.13C628.816,451.445 626.502,456.817 622.934,460.723C621.773,456.952 619.78,450.482 618.94,447.37C618.33,445.14 618.749,443.409 620.18,442.18C622.348,440.318 624,437.94 625.14,435.03Z" style="fill:white;fill-opacity:0.75;"/>
    </g>
    <g transform="matrix(0.320014,0,0,0.320014,-8.57297,-7.6585)">
        <path d="M561.8,501.72C565.33,500.48 567.66,499.59 568.79,499.06C569.74,498.61 571.36,497.65 573.67,496.19C574,495.99 574.29,495.72 574.53,495.4C583.91,482.96 591.57,472.66 597.5,464.51C600.59,460.24 598.41,452.51 598.53,449.09C598.54,448.73 598.64,448.39 598.8,448.07L605.57,434.5C606.01,433.63 606.95,433.12 607.93,433.25C610,433.53 611.57,433.9 613,433.33C613.78,433.01 614.56,432.9 615.33,433C615.61,433.04 615.87,433.14 616.1,433.29L620.48,436.16C616.19,438.89 614.56,442.65 615.6,447.44C615.668,447.757 615.741,448.076 615.818,448.396C616.58,451.604 618.38,458.279 619.404,461.618C619.55,462.192 619.745,462.776 619.99,463.37C615.463,464.387 611.797,466.04 609.512,471.545C606.553,478.675 601.55,481.16 597.45,483.95C595.01,485.6 590.8,488.2 584.82,491.75C584.43,491.99 584.4,492.55 584.77,492.82C584.77,492.82 588.13,498.24 589.7,499.65C590.85,519.396 649.869,519.899 650.15,501.1C652.51,498.73 654.2,496.04 655.22,493.02C656.84,493.9 658.3,493.1 659.86,493.75C667.25,496.86 674.36,499.89 681.19,502.82C682.32,503.31 683.53,503.93 684.84,504.7C686.13,505.45 687.3,506.16 688.37,506.83C683.95,524.67 680.497,538.229 678.01,547.52C675.437,557.129 673.618,565.908 672.59,573.88C672.327,575.92 670.954,577.597 672.33,579.38C672.661,579.809 673.058,580.751 673.51,582.2C675.043,587.112 676.84,591.7 678.87,595.97L678.84,624.91C678.84,627.5 678.95,629.55 679.16,631.08C679.54,633.8 679.23,636.32 679.54,639.31C680.11,644.8 680.82,650.7 681.68,657.03C681.83,658.13 681.38,659.22 680.51,659.89C679.29,660.84 677.95,661.52 676.48,661.95C670.79,663.6 665.62,664.45 660.99,664.49C657.42,664.53 653.25,664.77 648.49,665.21C638.15,666.17 631.48,665.83 619.82,665.91C615.37,665.94 610,665.72 603.71,665.27C596.51,664.74 588.28,664.49 579.03,664.51C575.85,664.51 571.18,663.75 565.03,662.23C563.41,661.82 561.26,660.76 560.21,659.6C558.54,657.76 559.55,656.95 559.67,655.02C559.98,650.39 560.67,646.67 560.98,641.98C561.18,638.87 561.39,635.76 561.61,632.66C561.86,629.05 562,625.94 562.01,623.33C562.06,614.25 562.05,605.1 561.98,595.88L567.91,579.61C568.21,578.78 568.302,577.89 568.17,577.02C565.69,560.694 562.014,544.606 557.23,528.76C556.801,527.34 556.282,525.06 555.67,521.92C555.251,519.77 554.711,517.51 554.05,515.13C553.351,512.61 552.7,510.03 552.1,507.39L561.8,501.72Z" style="fill:white;fill-opacity:0.75;"/>
    </g>
    <g transform="matrix(0.320014,0,0,0.320014,-8.57297,-7.6585)">
        <path d="M770.43,501.62C770.89,501.18 770.69,500.1 769.83,498.39C769.43,497.6 769.37,495.07 769.65,490.82C769.8,488.57 770.48,485.49 771.71,481.58C775.96,468.06 777.71,442.99 794.75,438.86C797.02,438.31 800.37,438.16 804.8,438.41C808.63,438.63 811.99,438.81 814.9,438.95C818.82,439.14 823.12,438.6 827.35,438.71C828.73,439.38 830.42,439.44 832.43,438.9C833.64,440.23 834.94,440.918 836.31,440.97C843.06,441.228 848.05,441.168 851.3,440.75C855.44,440.218 861.522,438.995 864.74,436.09C864.982,435.872 865.13,435.57 865.14,435.25L865.2,433.26C865.45,433.13 865.69,433.09 865.93,433.14C866.14,433.19 866.32,433.35 866.47,433.63C868.02,436.54 870.46,438.51 873.78,439.52C888.67,444.04 901.63,446.38 907.91,461.11C912.62,472.16 916.22,482.37 918.72,491.75C920.4,498.05 921.88,503.81 923.16,509.04C913.01,515.8 902.13,518.899 890.51,518.31C887.98,518.182 885.39,518.08 882.72,518.01L873.41,515.59C873.1,515.51 872.802,515.77 872.85,516.09C875.101,531.224 875.631,547.05 874.77,563.5C873.572,586.38 872.511,595.372 872.8,608.57C872.807,608.91 872.51,609.177 872.18,609.14C848.444,606.488 823.893,601.215 800.91,592.72C800.661,592.628 800.4,592.588 800.11,592.61C799.49,592.656 799.27,593.46 799.79,593.81C808.314,599.555 817.551,605.128 827.51,610.54C832.421,613.209 839.489,616.733 848.71,621.1C857.879,625.443 863.78,627.858 866.43,628.36C867.85,628.629 869.3,628.901 870.79,629.15C871.21,629.22 871.53,629.56 871.58,629.98L872.1,634.37C871.85,637.38 870.648,640.276 868.48,643.05C868.261,643.331 867.93,643.52 867.57,643.56L862.9,644.12C862.72,644.15 862.558,644.206 862.41,644.3C858.131,647.014 854.011,650.432 849.86,654.24C848.78,655.23 848.52,656.22 849.08,657.21C849.64,658.2 851.011,658.532 852.22,657.96C854.812,656.734 857.42,656.307 860.03,656.69C863.741,657.235 861.505,661.142 860.6,663.7C860.441,664.15 860.201,664.571 859.9,664.95C857.341,668.169 854.281,671.421 850.75,674.74C849.1,676.29 848.927,677.897 850.18,679.6C850.363,679.848 850.599,680.062 850.87,680.22C854.173,682.139 858.459,683.635 863.69,684.8C869.059,685.995 873.49,684.17 876.98,679.34C877.38,683.78 877.776,687.83 878.17,691.5C880.387,712.142 882.638,732.78 884.87,753.42C885.25,756.93 885.759,759.91 886.4,762.36C896.119,799.523 905.77,836.73 915.32,873.99L908.48,878.26C901.65,881.76 894.41,883.792 886.76,884.34C884.66,884.49 880.83,884.48 875.28,884.31C873.99,883.74 872.44,883.35 870.62,883.14C869.34,882.99 868.53,882.24 868.18,880.91C860.39,850.8 852.58,820.67 844.75,790.52C842.56,783.47 840.597,776.321 838.87,769.05C838.359,766.9 838.058,764.96 837.97,763.25C835.252,710.682 833.494,676.279 832.49,660.03C832.392,658.45 832.253,656.156 831.95,653.16C831.924,652.9 831.7,652.69 831.43,652.68L831.16,652.67C831.09,652.66 831.03,652.72 831.02,652.79L815.85,768.58C815.72,769.59 815.68,770.61 815.74,771.63L821.29,872.2C821.31,872.6 820.94,872.91 820.55,872.82L815.89,871.76C815.48,871.67 815.08,871.97 815.06,872.39L814.49,887.59C814.46,888.26 814.15,888.88 813.63,889.29L794.45,904.68C794.16,904.91 793.83,905.09 793.47,905.22L770.3,913.17C768.68,910.32 768.12,907.35 768.62,904.26C770.14,894.87 781.64,888.68 789.91,886.48C792.32,885.84 795.57,881.97 797.22,879.11C799.07,875.88 800.48,873.47 801.44,871.88C803.7,868.11 798.45,865.88 795.82,864.96C795.53,864.86 795.35,864.57 795.39,864.27C795.56,862.99 795.52,859.97 795.2,858.41C794.15,853.35 794.74,848.74 793.78,843.86C793.09,840.29 793.51,835.92 792.8,832.18C792.01,827.99 792.3,823.17 791.59,819.18C790.96,815.58 791.32,812.41 790.78,808.95C790.38,806.44 790.14,803.79 790.05,800.98C789.93,796.87 788.94,793.43 789.01,789.43C789.04,787.36 788.86,785.3 788.45,783.24C787.81,780.02 788.08,776 787.59,772.5C787.26,770.18 786.89,768.32 786.89,766.49C786.88,761.54 785.66,756.23 785.7,751.66C785.72,749.03 785.56,746.55 785.21,744.22C784.4,738.78 784.88,732.69 784.21,727.45C783.42,721.37 783.86,716.52 783.16,710.57C782.42,704.34 782.97,698.09 782.04,692.32C781.16,686.84 781.76,680.64 781.07,675.83C780.1,669.02 780.52,664.27 780.08,656.68C779.75,650.85 780.32,645.55 780.37,639.45C780.38,637.87 780.55,635.58 780.87,632.57C782.42,617.95 785.9,604.4 790.18,589.15C790.42,588.29 790.03,587.43 789.01,586.57C784.3,584.01 783.892,577.38 783.72,572.25C783.03,551.72 785.382,531.885 788.67,510.5C788.741,510.04 788.43,509.609 787.97,509.54C781.832,508.618 775.98,505.99 770.43,501.62Z" style="fill:white;fill-opacity:0.95;"/>
    </g>
    <g transform="matrix(0.320014,0,0,0.320014,-8.57297,-7.6585)">
        <path d="M615.818,448.396C615.731,448.028 615.657,447.706 615.6,447.44C614.56,442.65 616.19,438.89 620.48,436.16C621.712,435.428 623.199,434.913 625.14,435.03C624,437.94 622.348,440.318 620.18,442.18C618.749,443.409 618.33,445.14 618.94,447.37C619.78,450.482 621.773,456.952 622.934,460.723C623.363,462.113 623.678,463.137 623.78,463.49C621.98,463.76 620.72,463.72 619.99,463.37C619.859,463.052 619.655,462.435 619.404,461.618C618.38,458.279 616.58,451.604 615.818,448.396ZM631.34,436.66C634.27,438.37 636.4,440.65 637.75,443.5C639.64,447.48 638.62,453.73 633.54,454.64C631.94,454.93 630.63,453.39 631.16,451.85C631.16,451.85 632.53,450.996 632.53,447.29C632.53,445.306 631.34,443.942 629.47,444.13C629.24,441.84 629.86,439.35 631.34,436.66Z" style="fill:white;fill-opacity:0.15;"/>
    </g>
    <g transform="matrix(0.320014,0,0,0.320014,-8.57297,-7.6585)">
        <path d="M619.99,463.37C620.72,463.72 621.98,463.76 623.78,463.49C627.63,464.07 630.22,465.31 631.55,467.2C638.34,476.85 646.23,485.45 655.22,493.02C654.2,496.04 652.51,498.73 650.15,501.1C648.88,500.51 647.86,499.64 647.1,498.49C642.25,493.17 636.94,488.69 631.15,485.06C630.87,484.88 630.56,484.75 630.24,484.68C622.239,482.779 617.364,481.654 604.278,489.895C601.19,491.841 597.643,494.308 593.49,497.41L589.7,499.65C588.13,498.24 584.77,492.82 584.77,492.82C584.4,492.55 584.43,491.99 584.82,491.75C590.8,488.2 595.01,485.6 597.45,483.95C601.55,481.16 606.553,478.675 609.512,471.545C611.797,466.04 615.463,464.387 619.99,463.37Z" style="fill:white;fill-opacity:0.35;"/>
    </g>
    <g transform="matrix(0.320014,0,0,0.320014,-8.57297,-7.6585)">
        <path d="M600.49,499.47L593.49,497.41C597.643,494.308 601.19,491.841 604.278,489.895L600.49,499.47Z" style="fill:white;fill-opacity:0.75;"/>
    </g>
    <g transform="matrix(0.320014,0,0,0.320014,-8.57297,-7.6585)">
        <path d="M650.15,501.1C649.869,519.899 590.85,519.396 589.7,499.65L593.49,497.41L600.49,499.47C603.06,500.44 605.58,501.1 608.07,501.44C620.9,503.17 633.91,502.18 647.1,498.49C647.86,499.64 648.88,500.51 650.15,501.1Z" style="fill:white;fill-opacity:0.5;"/>
    </g>
    <g transform="matrix(0.320014,0,0,0.320014,-8.57297,-7.6585)">
        <path d="M450.24,860.7L439.26,678.21C439.94,678.75 440.462,679.379 440.83,680.11C443.356,685.132 445.748,688.683 450.74,690.42C451.209,690.583 451.731,690.421 452.03,690.03C454.963,686.19 450.72,682.14 449.15,678.99C447.71,676.1 447.15,665.11 447.34,665.01L447.62,664.87C447.9,664.72 448.25,664.82 448.41,665.09C449.955,667.707 450.221,671.128 453.66,672.18C454.77,672.519 455.919,672.179 456.48,671.34C456.969,670.609 457.161,669.74 457.04,668.74C456.813,666.87 456.34,663.391 455.67,658.28C455.589,657.66 456.064,655.029 457.1,650.38C457.448,648.82 457.514,646.47 457.3,643.32C457.162,641.29 456.718,638.98 455.97,636.41C454.366,630.901 452.808,625.401 451.28,619.9C450.95,618.71 450.721,617.84 450.58,617.28C448.345,608.406 446.18,599.52 444.12,590.61C444.21,590.59 444.29,590.57 444.37,590.54C444.49,590.52 444.59,590.42 444.62,590.3C444.62,590.3 449.579,581.937 451.28,570.84C453.85,554.073 453.522,531.01 453.45,520.69C453.45,520.38 453.06,520.24 452.87,520.49C452.67,520.75 452.49,521.2 452.33,521.83L453.64,501.53C453.73,500.01 454.61,498.64 455.95,497.91L456.25,497.75C457.23,497.22 458.429,497.93 458.44,499.05C458.681,523.88 458.137,546.689 456.79,567.5C456.74,568.28 456.565,569.389 456.28,570.84C456.229,571.1 456.43,571.35 456.7,571.34L515.7,570.79C516.25,570.78 516.451,571.502 515.98,571.79C511.809,574.344 506.889,576.398 501.24,578C487.048,582.025 473.502,584.315 460.61,584.45C460.51,584.451 460.42,584.54 460.42,584.64L460.42,584.65C460.42,584.79 460.53,584.9 460.67,584.9L462.21,584.87C462.82,584.85 463.319,585.36 463.29,585.98C460.913,636.926 451.35,853.03 450.24,860.7Z" style="fill:white;fill-opacity:0.5;"/>
    </g>
    <g transform="matrix(0.320014,0,0,0.320014,-8.57297,-7.6585)">
        <path d="M789.01,586.57C787.97,586.82 787.23,587.64 786.78,589.03C782.23,603.24 774.63,616 763.97,627.33C760.13,631.41 754.92,634.85 751,637.84C750.58,638.16 750.38,638.69 750.48,639.21C750.86,641.19 750.78,643.14 750.24,645.05C749.91,646.24 749.68,647.12 749.56,647.7C749.17,649.47 748.81,651.08 748.46,652.55C748.07,654.21 747.38,655.77 746.39,657.23C745.64,658.34 743.91,657.86 743.84,656.53L743.46,649.61C743.44,649.24 743.28,648.89 743,648.63L740.25,646.14C740.01,645.92 739.65,645.87 739.35,646.01C737.1,647.1 735.67,648.1 735.05,649.03C731.88,653.77 729.51,658.79 727.93,664.09C727.54,665.39 725.95,665.86 724.92,664.98C720.29,661.02 716.74,656.55 714.26,651.56C713.29,649.61 713.17,646.87 713.9,643.33C713.96,643.02 714.07,642.72 714.23,642.45C716.77,637.93 720.03,634.03 724.01,630.76C725.99,629.13 728.2,627.36 730.64,625.43C731.63,624.64 732.65,624.22 733.72,624.17C734.53,624.12 735.22,623.77 735.81,623.11C740.57,617.72 744.43,611.72 747.38,605.13C749.32,600.81 751.77,594.36 753.28,589.2C756.2,579.19 759.02,568.61 761.74,557.48C763.38,550.75 764.72,543.17 765.76,534.72C767.06,524.17 768.62,513.14 770.43,501.62C775.98,505.99 781.832,508.618 787.97,509.54C788.43,509.609 788.741,510.04 788.67,510.5C785.382,531.885 783.03,551.72 783.72,572.25C783.892,577.38 784.3,584.01 789.01,586.57Z" style="fill:white;fill-opacity:0.75;"/>
    </g>
    <g transform="matrix(0.320014,0,0,0.320014,-8.57297,-7.6585)">
        <path d="M688.37,506.83C692.7,509.77 693.15,512.71 694.8,517.22C697.04,523.36 699.19,530.13 701.25,537.52C705.56,553.04 709.09,566.59 711.84,578.17C712.68,581.71 713.59,585.96 712.04,588.5C711.83,588.85 711.14,589.32 709.96,589.91C708.29,590.74 701.05,593.51 688.23,598.21C684.56,599.56 681.44,598.81 678.87,595.97C676.84,591.7 675.043,587.112 673.51,582.2C673.058,580.751 672.661,579.809 672.33,579.38C670.954,577.597 672.327,575.92 672.59,573.88C673.618,565.908 675.437,557.129 678.01,547.52C680.497,538.229 683.95,524.67 688.37,506.83Z" style="fill:white;fill-opacity:0.25;"/>
    </g>
    <g transform="matrix(0.320014,0,0,0.320014,-8.57297,-7.6585)">
        <path d="M561.98,595.88L559.27,598.34C558.93,598.64 558.49,598.82 558.04,598.84C555.83,598.95 553.67,598.65 551.56,597.94C546.54,596.24 540,593.71 531.94,590.34C529.92,589.5 528.65,588.48 528.13,587.29C527.58,586.04 527.58,584.29 528.13,582.05C530.38,572.73 532.25,565.15 533.74,559.32C534.6,555.93 535.74,553.39 536.25,550.3C536.52,548.69 537.03,546.63 537.79,544.13C538.41,542.08 539.04,540.05 539.67,538.04C541.95,530.3 544.437,522.643 547.11,515.06C548.283,511.731 549.95,509.18 552.1,507.39C552.7,510.03 553.351,512.61 554.05,515.13C554.711,517.51 555.251,519.77 555.67,521.92C556.282,525.06 556.801,527.34 557.23,528.76C562.014,544.606 565.69,560.694 568.17,577.02C568.302,577.89 568.21,578.78 567.91,579.61L561.98,595.88Z" style="fill:white;fill-opacity:0.25;"/>
    </g>
    <g transform="matrix(0.320014,0,0,0.320014,-8.57297,-7.6585)">
        <path d="M923.16,509.04C923.69,511.06 924.06,512.54 924.26,513.47C926.52,523.78 927.94,532.8 928.53,540.52C928.76,543.44 928.87,548.38 928.88,555.34C928.89,560.16 928.41,565.06 927.44,570.05C924.89,583.26 920.81,595.78 915.18,607.63C912.77,612.71 910.01,616.79 906.84,622C906.31,622.87 904.94,624.74 902.73,627.62C901.35,629.41 900.02,631.31 898.74,633.34C895.79,637.37 892.542,641.422 888.97,645.47C885.942,648.902 884.04,652.74 883.26,657C882.09,663.39 881.039,669.88 878.71,675.3C878.07,676.79 877.49,678.13 876.98,679.34C873.49,684.17 869.059,685.995 863.69,684.8C858.459,683.635 854.173,682.139 850.87,680.22C850.599,680.062 850.363,679.848 850.18,679.6C848.927,677.897 849.1,676.29 850.75,674.74C854.281,671.421 857.341,668.169 859.9,664.95C860.201,664.571 860.441,664.15 860.6,663.7C861.505,661.142 863.741,657.235 860.03,656.69C857.42,656.307 854.812,656.734 852.22,657.96C851.011,658.532 849.64,658.2 849.08,657.21C848.52,656.22 848.78,655.23 849.86,654.24C854.011,650.432 858.131,647.014 862.41,644.3C862.558,644.206 862.72,644.15 862.9,644.12L867.57,643.56C867.93,643.52 868.261,643.331 868.48,643.05C870.648,640.276 871.85,637.38 872.1,634.37C872.68,634.9 873.069,634.99 873.27,634.62C876.356,628.943 878.611,623.99 879.99,619.74C883.172,609.931 885.819,599.6 887.93,588.75C889.559,580.38 890.321,572.33 890.23,564.62C890.042,548.66 886.98,535.91 882.72,518.01C885.39,518.08 887.98,518.182 890.51,518.31C902.13,518.899 913.01,515.8 923.16,509.04Z" style="fill:white;fill-opacity:0.75;"/>
    </g>
    <g transform="matrix(0.320014,0,0,0.320014,-8.57297,-7.6585)">
        <path d="M122.28,645.72C122.61,646.25 123.18,646.578 123.8,646.61C126.471,646.75 128.244,647.225 130.5,648.73C133.054,650.434 136.492,653.168 140.84,656.92C143.411,659.139 141.91,662.18 138.57,660.87C135.36,659.61 132.861,659.173 131.06,659.56C127.591,660.306 128.998,663.121 130.02,665.75C131.617,669.861 136.55,674.44 139.5,677.07C141.81,679.13 142.689,681.949 139.45,683.6C134.649,686.048 129.566,687.588 124.21,688.32C123.93,688.358 123.65,688.359 123.36,688.32C119.722,687.834 116.63,685.9 114.09,682.45C113.51,681.02 112.889,679.51 112.23,677.92C110.076,672.721 109.006,666.661 107.89,661.29C107.248,658.2 106.62,655.99 106,654.68C104.66,651.85 103.489,649.881 102.49,648.77C98.166,643.963 94.95,639.88 92.83,636.52C81.62,622.66 73.42,607.32 68.23,590.51C66.62,585.28 65.06,578.8 63.56,571.07C62.9,567.68 62.6,565.22 62.65,563.68C62.75,560.43 62.05,557.39 62.17,553.76C62.62,539.74 64.6,525.87 68.12,512.15C73.69,515.76 78.68,518.199 83.08,519.48C90.53,521.649 98.95,522.07 108.35,520.74C106.09,529.99 104.37,537.55 103.2,543.44C101.55,551.75 100.743,560.48 100.78,569.61C100.813,577.72 101.834,586.409 103.83,595.68C106.265,606.989 108.44,617.14 112.66,627.06C113.639,629.348 116.748,635.477 119.231,640.176L119.32,640.344C120.63,642.819 121.754,644.874 122.28,645.72Z" style="fill:white;fill-opacity:0.75;"/>
    </g>
    <g transform="matrix(0.320014,0,0,0.320014,-8.57297,-7.6585)">
        <path d="M882.72,518.01L873.41,515.59C873.1,515.51 872.802,515.77 872.85,516.09C875.101,531.224 875.631,547.05 874.77,563.5C873.572,586.38 872.511,595.372 872.8,608.57C872.807,608.91 872.51,609.177 872.18,609.14C848.444,606.488 823.893,601.215 800.91,592.72C800.661,592.628 800.4,592.588 800.11,592.61C799.49,592.656 799.27,593.46 799.79,593.81C808.314,599.555 817.551,605.128 827.51,610.54C832.421,613.209 839.489,616.733 848.71,621.1C857.879,625.443 863.78,627.858 866.43,628.36C867.85,628.629 869.3,628.901 870.79,629.15C871.21,629.22 871.53,629.56 871.58,629.98L872.1,634.37C872.68,634.9 873.069,634.99 873.27,634.62C876.356,628.943 878.611,623.99 879.99,619.74C883.172,609.931 885.819,599.6 887.93,588.75C889.559,580.38 890.321,572.33 890.23,564.62C890.042,548.66 886.98,535.91 882.72,518.01Z" style="fill:white;fill-opacity:0.5;"/>
    </g>
    <g transform="matrix(0.320014,0,0,0.320014,-8.57297,-7.6585)">
        <path d="M119.32,632.77L119.32,640.344L119.231,640.176C116.748,635.477 113.639,629.348 112.66,627.06C108.44,617.14 106.265,606.989 103.83,595.68C101.834,586.409 100.813,577.72 100.78,569.61C100.743,560.48 101.55,551.75 103.2,543.44C104.37,537.55 106.09,529.99 108.35,520.74L117.62,518.66C117.87,518.61 118.091,518.82 118.06,519.07C115.892,536.352 115.271,553.68 116.47,571.09C117.29,583 118.225,599.06 118.28,611.87C118.281,612.02 118.41,612.142 118.56,612.13C143.377,610.066 167.778,604.213 191.68,595.23C191.81,595.181 191.956,595.242 192.02,595.36C192.086,595.482 192.061,595.631 191.95,595.72C189.314,597.848 186.741,599.672 184.27,601.26C173.604,608.117 162.568,614.286 151.17,619.81C141.748,624.376 134.91,627.869 126.25,630.74C124.14,631.44 122.052,631.906 119.98,632.1C119.63,632.133 119.35,632.42 119.32,632.77Z" style="fill:white;fill-opacity:0.35;"/>
    </g>
    <g transform="matrix(0.320014,0,0,0.320014,-8.57297,-7.6585)">
        <path d="M410.439,558.277C410.373,558.174 410.339,557.967 410.361,557.739C410.383,557.485 410.466,557.278 410.559,557.203C410.518,557.568 410.478,557.927 410.439,558.277Z" style="fill:white;fill-opacity:0.95;"/>
    </g>
    <g transform="matrix(0.320014,0,0,0.320014,-8.57297,-7.6585)">
        <path d="M410.559,557.203C410.587,557.18 410.615,557.17 410.644,557.172C410.77,557.18 410.85,557.46 410.819,557.781C410.79,558.11 410.66,558.36 410.537,558.348C410.5,558.345 410.467,558.32 410.439,558.277C410.478,557.927 410.518,557.568 410.559,557.203Z" style="fill:white;fill-opacity:0.95;"/>
    </g>
    <g transform="matrix(0.320014,0,0,0.320014,-8.57297,-7.6585)">
        <path d="M439.26,678.21L436.71,670.47C436.4,669.53 436.38,668.53 436.65,667.58L439.25,658.4L444.98,641.32C445.08,641.01 445.06,640.68 444.92,640.39L439.96,630.04L410.15,563.32L425.8,566.67C426.18,566.76 426.58,566.786 426.97,566.76C430.428,566.532 432.59,566.23 433.45,565.74C435.36,564.651 437.4,564.26 439.59,564.55C439.18,564.81 438.88,565.1 438.69,565.43C438.5,565.72 438.47,566.12 438.59,566.61C440.54,574.58 442.38,582.58 444.12,590.61C446.18,599.52 448.345,608.406 450.58,617.28C450.721,617.84 450.95,618.71 451.28,619.9C452.808,625.401 454.366,630.901 455.97,636.41C456.718,638.98 457.162,641.29 457.3,643.32C457.514,646.47 457.448,648.82 457.1,650.38C456.064,655.029 455.589,657.66 455.67,658.28C456.34,663.391 456.813,666.87 457.04,668.74C457.161,669.74 456.969,670.609 456.48,671.34C455.919,672.179 454.77,672.519 453.66,672.18C450.221,671.128 449.955,667.707 448.41,665.09C448.25,664.82 447.9,664.72 447.62,664.87L447.34,665.01C447.15,665.11 447.71,676.1 449.15,678.99C450.72,682.14 454.963,686.19 452.03,690.03C451.731,690.421 451.209,690.583 450.74,690.42C445.748,688.683 443.356,685.132 440.83,680.11C440.462,679.379 439.94,678.75 439.26,678.21Z" style="fill:white;fill-opacity:0.95;"/>
    </g>
    <g transform="matrix(0.320014,0,0,0.320014,-8.57297,-7.6585)">
        <path d="M439.25,658.4C438.73,655.01 438.62,651.64 438.92,648.31C439.31,644.04 439.51,641.87 439.51,641.8C439.69,637.97 439.84,634.05 439.96,630.04L444.92,640.39C445.06,640.68 445.08,641.01 444.98,641.32L439.25,658.4Z" style="fill:white;fill-opacity:0.5;"/>
    </g>
    <g transform="matrix(0.320014,0,0,0.320014,-8.57297,-7.6585)">
        <path d="M898.74,633.34C898.74,633.34 896.33,755.14 896.88,758.16C898.79,768.63 904.65,798.89 914.48,848.93C914.78,850.45 914.73,851.64 915.28,853C915.47,853.47 915.62,854.09 915.73,854.86C916.23,858.33 916.84,861.44 917.55,864.19C918.14,866.49 917.64,868.48 919.1,870.46C919.33,870.76 919.17,871.2 918.8,871.3C917.27,871.7 916.11,872.6 915.32,873.99C905.77,836.73 896.119,799.523 886.4,762.36C885.759,759.91 885.25,756.93 884.87,753.42C882.638,732.78 880.387,712.142 878.17,691.5C877.776,687.83 877.38,683.78 876.98,679.34C877.49,678.13 878.07,676.79 878.71,675.3C881.039,669.88 882.09,663.39 883.26,657C884.04,652.74 885.942,648.902 888.97,645.47C892.542,641.422 895.79,637.37 898.74,633.34Z" style="fill:white;fill-opacity:0.5;"/>
    </g>
    <g transform="matrix(0.320014,0,0,0.320014,-8.57297,-7.6585)">
        <path d="M75.77,876.4C74.78,875.36 73.7,874.55 72.55,873.96C72.31,873.84 72.21,873.54 72.34,873.3C72.63,872.76 72.8,872.3 72.87,871.92C73.82,866.86 74.87,861.58 76.04,856.07C78.35,845.12 80.13,836.02 81.4,828.79C83.35,817.63 87.35,797.33 93.41,767.9C94.7,761.65 95.13,757.52 94.7,755.5C94.14,752.83 93.87,749.36 93.88,745.07C93.89,740.75 92.83,636.52 92.83,636.52C94.95,639.88 98.166,643.963 102.49,648.77C103.489,649.881 104.66,651.85 106,654.68C106.62,655.99 107.248,658.2 107.89,661.29C109.006,666.661 110.076,672.721 112.23,677.92C112.889,679.51 113.51,681.02 114.09,682.45C111.42,707.55 108.753,732.413 106.02,757.03C105.732,759.62 105.26,762.18 104.61,764.71C94.98,801.81 85.36,839.04 75.77,876.4Z" style="fill:white;fill-opacity:0.35;"/>
    </g>
    <g transform="matrix(0.320014,0,0,0.320014,-8.57297,-7.6585)">
        <path d="M844.75,790.52C843.45,790.91 842.8,791.91 842.8,793.53C842.75,810.22 842.69,820.54 842.63,824.5C842.6,826.38 842.1,828.54 842.02,830.57C841.33,847.61 840.75,857.48 840.28,860.19C839.61,863.98 839.35,866.42 839.51,867.49C839.56,867.81 839.37,868.12 839.06,868.22C836.74,869.02 834.94,870.13 833.66,871.54C833.4,871.83 833.25,872.21 833.25,872.61L833.25,881.31C833.25,881.47 833.3,881.63 833.39,881.77C833.78,882.33 834.01,883.17 834.1,884.29C834.56,889.96 834.58,894.32 834.15,897.37C834.04,898.18 833.53,899.16 832.62,900.33C832.4,900.61 832.12,900.83 831.8,900.97C829.37,901.99 826.61,902.82 823.5,903.45C822.71,903.61 821.95,903.84 821.2,904.14C815.39,906.49 810.13,908.58 805.43,910.4C798.49,913.08 791.56,915.07 784.63,916.36C783.11,916.65 781.52,916.79 779.85,916.8C775.6,916.83 772.44,917.09 770.3,913.17L793.47,905.22C793.83,905.09 794.16,904.91 794.45,904.68L813.63,889.29C814.15,888.88 814.46,888.26 814.49,887.59L815.06,872.39C815.08,871.97 815.48,871.67 815.89,871.76L820.55,872.82C820.94,872.91 821.31,872.6 821.29,872.2L815.74,771.63C815.68,770.61 815.72,769.59 815.85,768.58L831.02,652.79C831.03,652.72 831.09,652.66 831.16,652.67L831.43,652.68C831.7,652.69 831.924,652.9 831.95,653.16C832.253,656.156 832.392,658.45 832.49,660.03C833.494,676.279 835.252,710.682 837.97,763.25C838.058,764.96 838.359,766.9 838.87,769.05C840.597,776.321 842.56,783.47 844.75,790.52Z" style="fill:white;fill-opacity:0.5;"/>
    </g>
    <g transform="matrix(0.320014,0,0,0.320014,-8.57297,-7.6585)">
        <path d="M220.04,916.27C217.2,926.17 179.52,910.88 172.05,907.88C167.4,906.02 161.88,905.2 158.38,902.71C158.05,902.48 157.8,902.17 157.64,901.8C157.02,900.37 156.75,898.51 156.82,896.23C157.05,889.18 157.41,884.09 157.89,880.98C158.12,879.53 158.14,877.76 157.95,875.67C157.92,875.33 157.81,874.99 157.65,874.69C156.85,873.22 155.47,872.22 153.5,871.69C152.49,871.42 151.81,870.47 151.87,869.43C151.96,867.79 151.72,865.96 151.17,863.94C151.03,863.42 150.96,862.89 150.97,862.35C150.98,861.93 150.66,857.2 150.03,848.17C149.71,843.56 149.52,839.61 149.47,836.33C149.38,831.12 148.67,826.3 148.65,820.54C148.6,809.25 148.6,801.59 148.63,797.54C148.64,796.08 148.25,793.22 145.99,793.73C147.35,789.92 149.121,783.61 151.3,774.82C152.43,770.26 153.07,766.57 153.2,763.76C154.74,732.41 156.267,703.08 157.79,675.77C158.159,669.15 158.781,662.73 159.31,656.48C159.323,656.33 159.45,656.22 159.6,656.22L159.62,656.22C159.76,656.23 159.872,656.34 159.88,656.48C159.958,657.829 160.29,660.88 160.92,665.62C166.017,703.94 170.603,737.74 174.66,767.02C175.15,770.56 175.301,774.07 175.11,777.54C171.737,838.841 169.878,871.438 169.73,875.33C169.716,875.7 170.06,875.97 170.42,875.88L174.99,874.63C175.53,874.48 176.062,874.89 176.07,875.45C176.136,880.02 176.289,884.86 176.53,889.97C176.582,891.07 177.259,892.151 178.55,893.22C185.805,899.226 191.66,903.859 196.11,907.14C196.91,907.73 197.97,908.269 199.28,908.74C205.861,911.106 212.484,913.339 219.07,915.63C219.321,915.717 219.55,915.85 219.75,916.02L220.04,916.27Z" style="fill:white;fill-opacity:0.35;"/>
    </g>
    <g transform="matrix(0.320014,0,0,0.320014,-8.57297,-7.6585)">
        <path d="M572.33,861.66L576.38,881.02C576.39,881.05 576.39,881.09 576.39,881.13C576.44,883.08 577.02,884.41 578.14,885.12C582.38,887.83 596.73,896.12 596.78,896.69C593.94,900.84 589.807,901.827 584.39,899.62C582.579,898.882 580.31,897.93 577.56,896.78C572.08,894.489 567.52,891.772 560.92,888.61C560.029,888.183 559.31,887.54 558.76,886.68C560.11,885.53 560.96,884.06 561.31,882.26C561.38,881.95 561.37,881.63 561.29,881.32C559.98,876.17 557.422,862.944 557.58,862.93L572.33,861.66Z" style="fill:white;fill-opacity:0.75;"/>
    </g>
    <g transform="matrix(0.320014,0,0,0.320014,-8.57297,-7.6585)">
        <path d="M440.46,900.75C439.76,900.72 439.208,900.532 438.8,900.2C437.224,898.918 435.83,897.99 434.61,897.45C440.77,894.05 446.83,890.25 452.78,886.05C453.7,885.4 454.46,884.61 455.05,883.68C455.22,883.41 455.31,883.1 455.3,882.78L455.09,864.1L471.31,863.95L470.54,880.84C470.53,881.14 470.55,881.43 470.62,881.72C471.15,884.03 472.05,886.04 473.33,887.77C471.95,888.94 470.64,889.69 469.39,890.04C461.84,894.01 454.731,897.362 448.07,900.07C445.78,901.001 443.25,901.22 440.46,900.75Z" style="fill:white;fill-opacity:0.75;"/>
    </g>
    <g transform="matrix(0.320014,0,0,0.320014,-8.57297,-7.6585)">
        <path d="M908.48,878.26C908.01,879.62 908.21,880.77 909.06,881.72C909.27,881.95 909.38,882.25 909.38,882.56L909.35,885.3C904.8,888.45 901.19,890.6 898.5,891.73C890.43,895.12 882.58,894.79 874.94,890.76L875.28,884.31C880.83,884.48 884.66,884.49 886.76,884.34C894.41,883.792 901.65,881.76 908.48,878.26Z" style="fill:white;fill-opacity:0.35;"/>
    </g>
    <g transform="matrix(0.320014,0,0,0.320014,-8.57297,-7.6585)">
        <path d="M115.85,887.18L115.86,893.78C110.11,896.95 104.15,897.879 97.98,896.55C92.64,895.399 87.29,892.64 81.94,888.25C81.63,886.38 82.13,884.21 83.42,881.74C93.51,886.57 104.32,888.38 115.85,887.18Z" style="fill:white;fill-opacity:0.15;"/>
    </g>
    <g transform="matrix(0.320014,0,0,0.320014,-8.57297,-7.6585)">
        <path d="M909.35,885.3L910.23,886.99C910.37,887.27 910.45,887.59 910.45,887.91C910.36,896.08 910.39,903.52 910.55,910.23C910.61,912.91 911.95,921.32 914.58,935.46C914.77,936.51 914.81,939.55 914.68,944.6C914.67,944.9 914.59,945.2 914.46,945.47L911.38,951.68C911.35,951.74 911.32,951.8 911.27,951.85C907.68,956.14 903.52,958.43 898.79,958.72C891.75,959.15 886.4,958.85 881.25,953.69C877.52,949.96 875.69,945.57 875.74,940.51C875.77,937.33 875.98,932.67 876.37,926.52C876.97,916.97 877.15,911.63 876.91,910.51C876.58,908.98 876.31,907.01 876.09,904.62C875.97,903.31 875.68,901.36 875.22,898.77C874.75,896.12 874.66,893.45 874.94,890.76C882.58,894.79 890.43,895.12 898.5,891.73C901.19,890.6 904.8,888.45 909.35,885.3Z" style="fill:white;fill-opacity:0.5;"/>
    </g>
    <g transform="matrix(0.320014,0,0,0.320014,-8.57297,-7.6585)">
        <path d="M596.78,896.69C598.68,897.4 608.18,902.79 608.21,902.8C610.14,903.77 610.83,905.32 610.29,907.44C610.21,907.77 610.01,908.05 609.73,908.24C609.05,908.69 607.81,908.91 606,908.92C601.65,908.93 563.87,904.11 559.18,903.91C557.15,903.82 555.57,902.76 554.43,900.72C554.19,900.28 554.1,899.77 554.16,899.27L555.68,887.57C555.81,886.56 556.62,885.77 557.64,885.68C557.73,885.67 558.11,886 558.76,886.68C559.31,887.54 560.029,888.183 560.92,888.61C567.52,891.772 572.08,894.489 577.56,896.78C580.31,897.93 582.579,898.882 584.39,899.62C589.807,901.827 593.94,900.84 596.78,896.69Z" style="fill:white;fill-opacity:0.95;"/>
    </g>
    <g transform="matrix(0.320014,0,0,0.320014,-8.57297,-7.6585)">
        <path d="M473.33,887.77C475.63,891.9 476.54,896.91 476.06,902.8C476.03,903.11 475.87,903.39 475.62,903.56C473.18,905.19 461.16,906.45 457.55,907.09C453.81,907.76 450.92,908.17 448.87,908.34C447,908.49 444.1,908.87 440.17,909.5C434.95,910.33 429.01,910.62 422.36,910.39C422.04,910.38 421.72,910.28 421.44,910.12C419.75,909.11 419.37,907.63 420.28,905.66C420.41,905.38 420.63,905.15 420.9,905L434.61,897.45C435.83,897.99 437.224,898.918 438.8,900.2C439.208,900.532 439.76,900.72 440.46,900.75C443.25,901.22 445.78,901.001 448.07,900.07C454.731,897.362 461.84,894.01 469.39,890.04C470.64,889.69 471.95,888.94 473.33,887.77Z" style="fill:white;fill-opacity:0.95;"/>
    </g>
    <g transform="matrix(0.320014,0,0,0.320014,-8.57297,-7.6585)">
        <path d="M115.86,893.78C116.33,896.99 116.08,900.19 115.12,903.38C114.95,903.94 114.87,904.52 114.88,905.11C114.95,908.83 113.98,912.22 113.89,916.01C113.8,920.3 114.07,926.04 114.69,933.25C115.2,939.16 115.69,944.74 113.87,949.8C111.23,957.13 105.87,960.97 97.8,961.34C90.65,961.67 84.23,960.45 80.09,954.45C77.02,950 75.97,944.85 76.92,938.98C77.9,932.99 78.85,927.25 79.78,921.77C80.47,917.74 80.85,912.55 80.94,906.18C81.01,900.94 81.05,895.71 81.07,890.5C81.07,889.94 81.36,889.19 81.94,888.25C87.29,892.64 92.64,895.399 97.98,896.55C104.15,897.879 110.11,896.95 115.86,893.78Z" style="fill:white;fill-opacity:0.5;"/>
    </g>
</svg>
