<?xml version="1.0" encoding="UTF-8" standalone="no"?>
<!DOCTYPE svg PUBLIC "-//W3C//DTD SVG 1.1//EN" "http://www.w3.org/Graphics/SVG/1.1/DTD/svg11.dtd">
<svg width="100%" height="100%" viewBox="0 0 300 300" version="1.1" xmlns="http://www.w3.org/2000/svg" xmlns:xlink="http://www.w3.org/1999/xlink" xml:space="preserve" xmlns:serif="http://www.serif.com/" style="fill-rule:evenodd;clip-rule:evenodd;stroke-linejoin:round;stroke-miterlimit:2;">
    <path d="M59.793,130.095L54.128,112.328C54.082,112.18 53.977,112.06 53.843,111.987C24.328,96.448 14.342,58.898 32.574,30.797C47.018,8.535 74.934,-0.726 99.895,8.476C109.133,11.883 117.097,17.47 123.795,25.241C127.048,29.323 129.645,33.427 131.584,37.555C135.931,46.813 137.625,56.707 136.664,67.249L136.661,67.278C134.077,93.336 113.901,114.483 87.708,117.929C83.225,118.495 78.721,118.577 74.199,118.175C73.647,118.126 73.134,118.042 72.652,117.929C72.529,117.9 72.398,117.936 72.307,118.024L59.793,130.095ZM115.947,69.901C115.901,70.087 115.715,70.2 115.529,70.157L109.709,68.849C109.586,68.821 109.498,68.719 109.488,68.593C109.417,67.759 109.829,67.091 110.286,66.191C111.088,64.605 113.173,62.981 114.449,62.228C117.069,60.688 120.29,59.363 120.824,56.289C121.155,54.377 119.632,52.513 118.088,51.662C114.639,49.767 109.864,49.876 106.84,52.727C106.752,52.808 106.615,52.805 106.531,52.717L102.628,48.645C102.504,48.518 102.515,48.315 102.652,48.202C103.879,47.175 105.244,46.356 106.742,45.741C110.001,44.404 113.753,44.538 117.368,45.252C123.525,46.472 129.632,50.801 127.473,57.988C126.348,61.74 123.451,63.596 120.072,65.386C119.548,65.664 118.735,66.36 118.278,66.655C117.065,67.436 116.288,68.519 115.947,69.901ZM76.569,64.996L75.929,64.981C75.749,64.978 75.598,64.844 75.57,64.669C74.839,60.242 74.48,55.744 74.772,51.191C74.839,50.136 74.955,49.183 75.117,48.332C75.746,45.051 76.168,43.107 76.382,42.506C77.448,39.482 80.081,39.366 82.842,39.468C82.951,39.471 83.056,39.45 83.155,39.404C83.868,39.063 84.111,38.469 83.886,37.622C83.851,37.488 83.77,37.372 83.654,37.298L82.624,36.62C82.589,36.595 82.56,36.567 82.543,36.532C81.92,35.41 81.593,34.756 81.558,34.566C81.14,32.295 80.813,30.512 80.57,29.221C80.489,28.778 80.602,28.167 80.426,27.885C80.37,27.801 80.299,27.727 80.215,27.671C79.34,27.105 78.854,26.317 78.763,25.308C78.749,25.167 78.851,25.044 78.991,25.034C80.254,24.932 82.033,24.714 84.326,24.38C84.853,24.306 85.641,24.355 86.685,24.531C87.947,24.745 88.788,25.452 89.206,26.651C89.287,26.887 89.456,27.08 89.677,27.193C90.423,27.576 90.855,27.934 90.975,28.261C91.024,28.381 91.049,28.511 91.045,28.638L91.024,30.501C91.02,30.617 90.989,30.73 90.933,30.832C90.5,31.602 90.205,32.154 90.043,32.495C89.772,33.061 89.772,33.705 89.319,34.144C89.227,34.232 89.174,34.352 89.164,34.475C89.083,35.755 88.584,36.025 87.687,36.869C87.606,36.947 87.571,37.063 87.599,37.172L88.021,38.771C88.12,39.151 88.454,39.425 88.847,39.447C89.839,39.492 90.63,39.573 91.221,39.682C93.51,40.108 94.393,41.957 94.751,44.049C94.98,45.382 95.17,46.592 95.321,47.678C95.497,48.954 95.613,50.171 95.669,51.328C95.788,53.898 95.767,56.957 95.602,60.505C95.56,61.409 95.5,62.098 95.426,62.569C95.268,63.579 95.191,64.264 95.198,64.626C95.198,64.753 95.141,64.876 95.047,64.957C94.526,65.393 94.983,66.04 95.134,66.532C95.331,67.183 95.483,67.805 95.585,68.406C95.788,69.595 94.92,70.396 94.108,71.254C93.77,71.61 93.714,72 93.935,72.422C93.974,72.492 93.992,72.566 93.995,72.643C94.132,77.457 94.825,94.019 94.86,96.336C94.86,96.462 94.776,96.575 94.656,96.61C94.329,96.712 94.094,96.821 93.949,96.941C93.644,97.197 93.735,97.693 94.115,97.823C95.194,98.199 96.281,98.794 97.381,99.606C97.772,99.894 98.183,100.024 98.531,100.193C98.893,100.369 99.052,100.791 98.897,101.153C98.739,101.515 98.507,101.687 98.197,101.666C96.801,101.571 95.412,101.526 94.03,101.533C93.71,101.533 93.39,101.508 93.074,101.459C91.794,101.258 90.634,101.174 89.596,101.206C89.487,101.209 89.385,101.16 89.326,101.072L88.886,100.46C88.795,100.334 88.781,100.165 88.851,100.024C89.083,99.539 89.203,99.061 89.213,98.59C89.217,98.533 89.234,98.477 89.269,98.428L89.892,97.588C90.039,97.384 89.973,97.095 89.748,96.983L88.844,96.526C88.735,96.469 88.661,96.367 88.64,96.244C88.39,94.634 88.629,92.447 88.443,90.991C88.362,90.358 88.288,88.48 88.214,85.358C88.141,82.225 88.018,79.936 87.845,78.498C87.641,76.81 87.04,72.552 86.045,65.727C85.996,65.386 85.598,65.217 85.317,65.418L85.067,65.597C84.916,65.706 84.825,65.878 84.821,66.064L84.188,96.237C84.185,96.35 84.15,96.459 84.086,96.55C83.914,96.807 83.689,96.962 83.411,97.011C83.039,97.074 82.933,97.563 83.232,97.841C83.39,97.985 83.566,98.161 83.766,98.372C83.854,98.467 83.907,98.59 83.914,98.72C83.939,99.216 84.065,99.701 84.301,100.172C84.354,100.281 84.364,100.404 84.326,100.52C84.171,100.977 83.928,101.202 83.598,101.199C82.272,101.181 81.277,101.258 80.605,101.434C80.461,101.473 80.31,101.494 80.159,101.498C78.014,101.526 76.316,101.582 75.064,101.67C74.765,101.691 74.494,101.484 74.434,101.188C74.396,100.981 74.403,100.78 74.459,100.58C74.494,100.471 74.568,100.376 74.67,100.316C76.685,99.17 78.186,98.386 79.174,97.96C79.652,97.756 79.572,97.057 79.062,96.969C78.671,96.902 78.471,96.575 78.457,95.991C78.334,90.573 78.285,82.401 78.309,71.476C78.309,71.318 78.158,71.198 78.003,71.24L77.908,71.265C77.806,71.29 77.697,71.261 77.627,71.184L76.277,69.778C75.89,69.373 75.742,68.797 75.883,68.259L76.692,65.154C76.713,65.076 76.653,64.999 76.569,64.996ZM62.669,38.719C62.391,38.954 61.983,39.063 61.445,39.039C60.893,39.014 60.601,38.993 60.577,38.982C60.359,38.888 60.289,38.61 60.366,38.142C60.391,37.984 60.253,37.85 60.099,37.882C59.424,38.012 58.864,37.762 58.421,37.133C58.358,37.045 58.323,36.943 58.312,36.838C58.246,36.145 58.26,35.607 58.362,35.224C58.397,35.104 58.33,34.977 58.21,34.939C58.165,34.925 58.066,34.925 57.912,34.939C57.303,34.995 56.983,34.003 57.405,33.624C57.476,33.557 57.528,33.494 57.563,33.427C57.62,33.321 57.599,33.195 57.514,33.114C56.421,32.091 55.591,30.786 57.374,29.759C57.472,29.703 57.528,29.598 57.521,29.489C57.49,28.722 57.789,27.987 58.425,27.28C58.495,27.207 58.594,27.164 58.692,27.171L59.487,27.235C59.578,27.242 59.656,27.305 59.684,27.393C59.744,27.607 59.863,27.713 60.042,27.713C60.137,27.709 60.215,27.646 60.239,27.558C60.461,26.662 62.433,25.245 63.284,26.152C63.495,26.377 63.692,26.44 63.879,26.342L63.882,26.338L64.329,26.064C64.445,25.993 64.578,25.958 64.712,25.962C65.401,25.983 66.298,25.976 67.405,25.944C67.754,25.934 68.19,26.166 68.713,26.64C68.805,26.725 68.812,26.865 68.731,26.957C68.629,27.069 68.562,27.168 68.524,27.252C68.45,27.418 68.562,27.611 68.745,27.625L69.702,27.699C70.039,27.727 70.324,27.97 70.398,28.304C70.602,29.225 70.538,30.276 70.211,31.458C70.183,31.563 70.099,31.648 69.99,31.672C69.775,31.725 69.452,31.693 69.026,31.577C68.931,31.549 68.837,31.626 68.84,31.725C68.858,32.073 69.181,32.868 69.062,32.959C68.903,33.082 68.844,33.16 68.889,33.198C68.942,33.24 68.995,33.276 69.055,33.307C69.118,33.339 69.16,33.402 69.171,33.473C69.396,35.153 69.976,39.939 67.268,39.394C66.864,39.313 66.477,39.601 66.445,40.013L66.379,40.867C66.351,41.205 66.649,41.479 66.983,41.426C67.507,41.342 68.19,41.493 69.023,41.876C69.118,41.922 69.209,41.975 69.294,42.038C70.486,42.966 71.414,44.225 72.078,45.811C72.293,46.321 72.413,46.683 72.434,46.89C72.448,47.014 72.402,47.133 72.314,47.217L71.857,47.657C71.702,47.805 71.628,48.012 71.65,48.223C71.822,49.802 72.089,51.377 72.451,52.949C72.522,53.255 72.539,53.606 72.507,54.011C72.335,56.107 72.001,58.6 71.938,61.033C71.927,61.413 71.973,61.792 72.071,62.161C72.363,63.273 72.926,64.883 72.377,65.776C72.135,66.166 71.65,66.789 70.925,67.64C70.739,67.861 70.637,68.139 70.64,68.427C70.683,71.437 70.542,74.472 70.222,77.531C70.162,78.122 69.265,87.348 68.977,89.996C68.882,90.85 68.559,99.026 68.52,99.163C68.488,99.272 68.573,99.377 68.685,99.374C69.023,99.36 69.508,99.943 69.944,100.14C70.785,100.517 71.614,100.893 72.441,101.276C72.929,101.505 73.249,101.849 73.397,102.31C73.513,102.672 73.211,103.031 72.834,102.974C71.766,102.816 70.591,102.683 69.311,102.574C68.974,102.545 68.492,102.271 68.144,102.486C68.077,102.528 68,102.542 67.926,102.531L65.918,102.243C65.707,102.211 65.559,102.025 65.577,101.814L65.704,100.172C65.707,100.119 65.732,100.07 65.77,100.031L66.227,99.595C66.305,99.525 66.347,99.423 66.351,99.318C66.403,96.835 65.116,78.139 65.116,78.139C65.106,77.949 64.955,77.795 64.765,77.781L59.666,77.376C59.557,77.369 59.455,77.425 59.406,77.52C59.195,77.932 59.082,78.414 59.068,78.966C59.026,80.727 58.981,82.447 58.931,84.127C58.815,88.129 58.724,92.907 58.657,98.463C58.657,98.519 58.668,98.576 58.692,98.628L59.561,100.643C59.821,101.237 59.374,101.902 58.727,101.891C57.701,101.874 56.825,101.976 56.097,102.194C56.087,102.197 56.076,102.197 56.066,102.197L52.419,102.588C52.011,102.633 51.649,102.324 51.625,101.913L51.589,101.269C51.582,101.149 51.649,101.04 51.755,100.991L54.923,99.557C54.972,99.532 55.025,99.525 55.077,99.536C55.535,99.602 55.872,99.458 56.094,99.1C56.16,98.987 56.182,98.857 56.157,98.73C55.928,97.595 55.802,96.262 55.784,94.729C55.784,94.662 55.777,94.595 55.767,94.528L55.605,93.554L55.598,93.502L54.142,78.196C54.061,77.334 54.079,76.469 54.195,75.615C54.895,70.439 55.753,65.896 56.769,61.989C56.804,61.845 56.786,61.69 56.716,61.56C56.129,60.46 55.366,59.134 54.434,57.583C54.044,56.933 53.861,56.289 53.885,55.653C53.952,54.102 54.065,51.767 54.227,48.642C54.234,48.518 54.188,48.399 54.103,48.311L53.678,47.864C53.601,47.78 53.569,47.664 53.601,47.555C54.547,44.267 56.656,42.249 59.926,41.507C60.584,41.359 61.35,41.574 61.755,41.029C62.282,40.326 63.042,39.985 62.848,38.782C62.834,38.698 62.732,38.662 62.669,38.719ZM106.872,76.348C107.483,74.173 109.773,72.914 111.987,73.538C114.199,74.159 115.5,76.427 114.888,78.601C114.277,80.776 111.988,82.035 109.774,81.411C107.561,80.79 106.26,78.523 106.872,76.348Z" style="fill:white;fill-opacity:0.95;"/>
    <path d="M76.569,64.996L75.929,64.981C75.749,64.978 75.598,64.844 75.57,64.669C74.839,60.242 74.48,55.744 74.772,51.191C74.839,50.136 74.955,49.183 75.117,48.332C75.746,45.051 76.168,43.107 76.382,42.506C77.448,39.482 80.081,39.366 82.842,39.468C82.951,39.471 83.056,39.45 83.155,39.404C83.868,39.063 84.111,38.469 83.886,37.622C83.851,37.488 83.77,37.372 83.654,37.298L82.624,36.62C82.589,36.595 82.56,36.567 82.543,36.532C81.92,35.41 81.593,34.756 81.558,34.566C81.14,32.295 80.813,30.512 80.57,29.221C80.489,28.778 80.602,28.167 80.426,27.885C80.37,27.801 80.299,27.727 80.215,27.671C79.34,27.105 78.854,26.317 78.763,25.308C78.749,25.167 78.851,25.044 78.991,25.034C80.254,24.932 82.033,24.714 84.326,24.38C84.853,24.306 85.641,24.355 86.685,24.531C87.947,24.745 88.788,25.452 89.206,26.651C89.287,26.887 89.456,27.08 89.677,27.193C90.423,27.576 90.855,27.934 90.975,28.261C91.024,28.381 91.049,28.511 91.045,28.638L91.024,30.501C91.02,30.617 90.989,30.73 90.933,30.832C90.5,31.602 90.205,32.154 90.043,32.495C89.772,33.061 89.772,33.705 89.319,34.144C89.227,34.232 89.174,34.352 89.164,34.475C89.083,35.755 88.584,36.025 87.687,36.869C87.606,36.947 87.571,37.063 87.599,37.172L88.021,38.771C88.12,39.151 88.454,39.425 88.847,39.447C89.839,39.492 90.63,39.573 91.221,39.682C93.51,40.108 94.393,41.957 94.751,44.049C94.98,45.382 95.17,46.592 95.321,47.678C95.497,48.954 95.613,50.171 95.669,51.328C95.788,53.898 95.767,56.957 95.602,60.505C95.56,61.409 95.5,62.098 95.426,62.569C95.268,63.579 95.191,64.264 95.198,64.626C95.198,64.753 95.141,64.876 95.047,64.957C94.526,65.393 94.983,66.04 95.134,66.532C95.331,67.183 95.483,67.805 95.585,68.406C95.788,69.595 94.92,70.396 94.108,71.254C93.77,71.61 93.714,72 93.935,72.422C93.974,72.492 93.992,72.566 93.995,72.643C94.132,77.457 94.825,94.019 94.86,96.336C94.86,96.462 94.776,96.575 94.656,96.61C94.329,96.712 94.094,96.821 93.949,96.941C93.644,97.197 93.735,97.693 94.115,97.823C95.194,98.199 96.281,98.794 97.381,99.606C97.772,99.894 98.183,100.024 98.531,100.193C98.893,100.369 99.052,100.791 98.897,101.153C98.739,101.515 98.507,101.687 98.197,101.666C96.801,101.571 95.412,101.526 94.03,101.533C93.71,101.533 93.39,101.508 93.074,101.459C91.794,101.258 90.634,101.174 89.596,101.206C89.487,101.209 89.385,101.16 89.326,101.072L88.886,100.46C88.795,100.334 88.781,100.165 88.851,100.024C89.083,99.539 89.203,99.061 89.213,98.59C89.217,98.533 89.234,98.477 89.269,98.428L89.892,97.588C90.039,97.384 89.973,97.095 89.748,96.983L88.844,96.526C88.735,96.469 88.661,96.367 88.64,96.244C88.39,94.634 88.629,92.447 88.443,90.991C88.362,90.358 88.288,88.48 88.214,85.358C88.141,82.225 88.018,79.936 87.845,78.498C87.641,76.81 87.04,72.552 86.045,65.727C85.996,65.386 85.598,65.217 85.317,65.418L85.067,65.597C84.916,65.706 84.825,65.878 84.821,66.064L84.188,96.237C84.185,96.35 84.15,96.459 84.086,96.55C83.914,96.807 83.689,96.962 83.411,97.011C83.039,97.074 82.933,97.563 83.232,97.841C83.39,97.985 83.566,98.161 83.766,98.372C83.854,98.467 83.907,98.59 83.914,98.72C83.939,99.216 84.065,99.701 84.301,100.172C84.354,100.281 84.364,100.404 84.326,100.52C84.171,100.977 83.928,101.202 83.598,101.199C82.272,101.181 81.277,101.258 80.605,101.434C80.461,101.473 80.31,101.494 80.159,101.498C78.014,101.526 76.316,101.582 75.064,101.67C74.765,101.691 74.494,101.484 74.434,101.188C74.396,100.981 74.403,100.78 74.459,100.58C74.494,100.471 74.568,100.376 74.67,100.316C76.685,99.17 78.186,98.386 79.174,97.96C79.652,97.756 79.572,97.057 79.062,96.969C78.671,96.902 78.471,96.575 78.457,95.991C78.334,90.573 78.285,82.401 78.309,71.476C78.309,71.318 78.158,71.198 78.003,71.24L77.908,71.265C77.806,71.29 77.697,71.261 77.627,71.184L76.277,69.778C75.89,69.373 75.742,68.797 75.883,68.259L76.692,65.154C76.713,65.076 76.653,64.999 76.569,64.996Z" style="fill:white;fill-opacity:0.25;"/>
    <path d="M123.795,25.241C124.326,24.97 124.931,25.234 125.61,26.039L126.105,26.619C128.324,29.056 130.367,31.669 132.227,34.461C133.978,37.08 135.49,39.9 136.76,42.914C140.659,52.165 142.118,61.574 141.137,71.145C139.154,90.481 127.34,107.609 109.804,116.241C99.674,121.227 88.809,123.017 77.205,121.607C77.05,121.586 76.899,121.639 76.787,121.744L64.448,133.576C64.388,133.632 64.297,133.636 64.234,133.587L59.793,130.095L72.307,118.024C72.398,117.936 72.529,117.9 72.652,117.929C73.134,118.042 73.647,118.126 74.199,118.175C78.721,118.577 83.225,118.495 87.708,117.929C113.901,114.483 134.077,93.336 136.661,67.278L136.664,67.249C137.625,56.707 135.931,46.813 131.584,37.555C129.645,33.427 127.048,29.323 123.795,25.241Z" style="fill:white;fill-opacity:0.25;"/>
    <path d="M62.669,38.719C62.391,38.954 61.983,39.063 61.445,39.039C60.893,39.014 60.601,38.993 60.577,38.982C60.359,38.888 60.289,38.61 60.366,38.142C60.391,37.984 60.253,37.85 60.099,37.882C59.424,38.012 58.864,37.762 58.421,37.133C58.358,37.045 58.323,36.943 58.312,36.838C58.246,36.145 58.26,35.607 58.362,35.224C58.397,35.104 58.33,34.977 58.21,34.939C58.165,34.925 58.066,34.925 57.912,34.939C57.303,34.995 56.983,34.003 57.405,33.624C57.476,33.557 57.528,33.494 57.563,33.427C57.62,33.321 57.599,33.195 57.514,33.114C56.421,32.091 55.591,30.786 57.374,29.759C57.472,29.703 57.528,29.598 57.521,29.489C57.49,28.722 57.789,27.987 58.425,27.28C58.495,27.207 58.594,27.164 58.692,27.171L59.487,27.235C59.578,27.242 59.656,27.305 59.684,27.393C59.744,27.607 59.863,27.713 60.042,27.713C60.137,27.709 60.215,27.646 60.239,27.558C60.461,26.662 62.433,25.245 63.284,26.152C63.495,26.377 63.692,26.44 63.879,26.342L63.882,26.338L64.329,26.064C64.445,25.993 64.578,25.958 64.712,25.962C65.401,25.983 66.298,25.976 67.405,25.944C67.754,25.934 68.19,26.166 68.713,26.64C68.805,26.725 68.812,26.865 68.731,26.957C68.629,27.069 68.562,27.168 68.524,27.252C68.45,27.418 68.562,27.611 68.745,27.625L69.702,27.699C70.039,27.727 70.324,27.97 70.398,28.304C70.602,29.225 70.538,30.276 70.211,31.458C70.183,31.563 70.099,31.648 69.99,31.672C69.775,31.725 69.452,31.693 69.026,31.577C68.931,31.549 68.837,31.626 68.84,31.725C68.858,32.073 69.181,32.868 69.062,32.959C68.903,33.082 68.844,33.16 68.889,33.198C68.942,33.24 68.995,33.276 69.055,33.307C69.118,33.339 69.16,33.402 69.171,33.473C69.396,35.153 69.976,39.939 67.268,39.394C66.864,39.313 66.477,39.601 66.445,40.013L66.379,40.867C66.351,41.205 66.649,41.479 66.983,41.426C67.507,41.342 68.19,41.493 69.023,41.876C69.118,41.922 69.209,41.975 69.294,42.038C70.486,42.966 71.414,44.225 72.078,45.811C72.293,46.321 72.413,46.683 72.434,46.89C72.448,47.014 72.402,47.133 72.314,47.217L71.857,47.657C71.702,47.805 71.628,48.012 71.65,48.223C71.822,49.802 72.089,51.377 72.451,52.949C72.522,53.255 72.539,53.606 72.507,54.011C72.335,56.107 72.001,58.6 71.938,61.033C71.927,61.413 71.973,61.792 72.071,62.161C72.363,63.273 72.926,64.883 72.377,65.776C72.135,66.166 71.65,66.789 70.925,67.64C70.739,67.861 70.637,68.139 70.64,68.427C70.683,71.437 70.542,74.472 70.222,77.531C70.162,78.122 69.265,87.348 68.977,89.996C68.882,90.85 68.559,99.026 68.52,99.163C68.488,99.272 68.573,99.377 68.685,99.374C69.023,99.36 69.508,99.943 69.944,100.14C70.785,100.517 71.614,100.893 72.441,101.276C72.929,101.505 73.249,101.849 73.397,102.31C73.513,102.672 73.211,103.031 72.834,102.974C71.766,102.816 70.591,102.683 69.311,102.574C68.974,102.545 68.492,102.271 68.144,102.486C68.077,102.528 68,102.542 67.926,102.531L65.918,102.243C65.707,102.211 65.559,102.025 65.577,101.814L65.704,100.172C65.707,100.119 65.732,100.07 65.77,100.031L66.227,99.595C66.305,99.525 66.347,99.423 66.351,99.318C66.403,96.835 65.116,78.139 65.116,78.139C65.106,77.949 64.955,77.795 64.765,77.781L59.666,77.376C59.557,77.369 59.455,77.425 59.406,77.52C59.195,77.932 59.082,78.414 59.068,78.966C59.026,80.727 58.981,82.447 58.931,84.127C58.815,88.129 58.724,92.907 58.657,98.463C58.657,98.519 58.668,98.576 58.692,98.628L59.561,100.643C59.821,101.237 59.374,101.902 58.727,101.891C57.701,101.874 56.825,101.976 56.097,102.194C56.087,102.197 56.076,102.197 56.066,102.197L52.419,102.588C52.011,102.633 51.649,102.324 51.625,101.913L51.589,101.269C51.582,101.149 51.649,101.04 51.755,100.991L54.923,99.557C54.972,99.532 55.025,99.525 55.077,99.536C55.535,99.602 55.872,99.458 56.094,99.1C56.16,98.987 56.182,98.857 56.157,98.73C55.928,97.595 55.802,96.262 55.784,94.729C55.784,94.662 55.777,94.595 55.767,94.528L55.605,93.554L55.598,93.502L54.142,78.196C54.061,77.334 54.079,76.469 54.195,75.615C54.895,70.439 55.753,65.896 56.769,61.989C56.804,61.845 56.786,61.69 56.716,61.56C56.129,60.46 55.366,59.134 54.434,57.583C54.044,56.933 53.861,56.289 53.885,55.653C53.952,54.102 54.065,51.767 54.227,48.642C54.234,48.518 54.188,48.399 54.103,48.311L53.678,47.864C53.601,47.78 53.569,47.664 53.601,47.555C54.547,44.267 56.656,42.249 59.926,41.507C60.584,41.359 61.35,41.574 61.755,41.029C62.282,40.326 63.042,39.985 62.848,38.782C62.834,38.698 62.732,38.662 62.669,38.719ZM57.852,58.691L59.617,55.206C59.719,55.006 59.733,54.774 59.663,54.563L58.168,50.175C58.116,50.016 57.901,49.999 57.824,50.146C57.525,50.706 57.567,51.286 57.331,51.936C56.857,53.248 56.572,54.341 56.47,55.22C56.445,55.456 56.47,55.692 56.547,55.913L57.483,58.666C57.539,58.835 57.771,58.849 57.852,58.691Z" style="fill:white;fill-opacity:0.25;"/>
    <path d="M115.947,69.901C115.901,70.087 115.715,70.2 115.529,70.157L109.709,68.849C109.586,68.821 109.498,68.719 109.488,68.593C109.417,67.759 109.829,67.091 110.286,66.191C111.088,64.605 113.173,62.981 114.449,62.228C117.069,60.688 120.29,59.363 120.824,56.289C121.155,54.377 119.632,52.513 118.088,51.662C114.639,49.767 109.864,49.876 106.84,52.727C106.752,52.808 106.615,52.805 106.531,52.717L102.628,48.645C102.504,48.518 102.515,48.315 102.652,48.202C103.879,47.175 105.244,46.356 106.742,45.741C110.001,44.404 113.753,44.538 117.368,45.252C123.525,46.472 129.632,50.801 127.473,57.988C126.348,61.74 123.451,63.596 120.072,65.386C119.548,65.664 118.735,66.36 118.278,66.655C117.065,67.436 116.288,68.519 115.947,69.901Z" style="fill:white;fill-opacity:0.25;"/>
    <path d="M57.852,58.691L59.617,55.206C59.719,55.006 59.733,54.774 59.663,54.563L58.168,50.175C58.116,50.016 57.901,49.999 57.824,50.146C57.525,50.706 57.567,51.286 57.331,51.936C56.857,53.248 56.572,54.341 56.47,55.22C56.445,55.456 56.47,55.692 56.547,55.913L57.483,58.666C57.539,58.835 57.771,58.849 57.852,58.691Z" style="fill:white;fill-opacity:0.95;"/>
    <path d="M106.872,76.348C107.483,74.173 109.773,72.914 111.987,73.538C114.199,74.159 115.5,76.427 114.888,78.601C114.277,80.776 111.988,82.035 109.774,81.411C107.561,80.79 106.26,78.523 106.872,76.348Z" style="fill:white;fill-opacity:0.25;"/>
    <path d="M125.578,138.432L123.936,136.832C123.809,136.709 123.099,133.597 123.081,133.355C123.067,133.2 123.011,133.063 122.909,132.943C122.266,132.198 121.907,131.333 121.837,130.352C122.1,130.76 122.393,131.005 122.719,131.09C122.825,131.118 122.934,131.045 122.948,130.936C123.147,129.35 122.937,127.845 122.336,126.414C122.29,126.305 122.149,126.283 122.069,126.368C121.482,126.987 121.242,127.648 121.337,128.341C120.159,127.085 119.488,125.587 119.326,123.85C119.238,122.89 119.207,122.134 119.235,121.586C119.358,119.188 120.937,117.936 122.927,117.092C123.271,116.944 123.539,116.663 123.672,116.311C123.957,115.541 124.291,114.894 124.674,114.363C125.673,112.985 127.572,112.022 129.2,111.8C133.279,111.241 137.523,111.944 142.108,113.034C143.113,113.273 146.588,113.259 146.588,113.259C146.742,113.207 146.904,113.319 146.904,113.484L146.904,115.148C146.972,116.933 145.424,120.126 143.007,119.896C142.884,119.984 142.695,120.13 142.695,120.281L142.695,121.948C142.695,121.973 142.692,121.997 142.688,122.022L140.378,132.279C140.371,132.303 140.364,132.331 140.353,132.36L139.959,133.439C139.956,133.45 139.956,133.457 139.952,133.464C139.58,134.912 139.21,135.915 138.841,136.47C138.258,137.349 137.632,138.826 136.591,139.322C136.197,139.508 135.87,139.779 135.61,140.141C133.651,140.004 131.703,139.899 129.766,139.821C128.549,139.772 127.153,139.308 125.578,138.432ZM134.671,121.238C133.233,120.675 131.823,120.038 130.448,119.325C129.045,118.597 127.663,118.362 126.295,118.629C125.866,118.712 125.515,119.012 125.367,119.423C124.586,121.59 124.137,123.766 124.038,125.953C124.02,126.35 124.053,126.748 124.14,127.134C124.456,128.537 124.711,129.588 124.91,130.296C125.375,131.951 126.211,133.339 128.169,132.929C129.123,132.73 130.1,132.637 131.098,132.651C132.674,132.961 134.256,133.239 135.842,133.481C138.792,133.932 139.649,131.804 140.786,129.213C141.724,127.074 140.531,123.361 139.847,121.371C139.64,120.77 139.295,120.61 138.722,120.636C138.63,120.641 138.545,120.667 138.472,120.71C137.313,121.394 136.053,121.586 134.671,121.238ZM131.506,137.24C132.509,137.504 134.589,137.863 134.864,136.498C134.935,136.147 134.625,135.812 134.21,135.791C133.243,135.744 132.491,135.649 131.96,135.51C131.429,135.371 130.732,135.086 129.864,134.649C129.495,134.463 129.06,134.603 128.95,134.944C128.524,136.267 130.504,136.976 131.506,137.24Z" style="fill:white;fill-opacity:0.25;"/>
    <path d="M180.013,114.729C181.247,114.149 182.077,113.826 182.502,113.759C184.805,113.407 187.091,113.449 189.355,113.885C189.194,114.909 188.801,115.291 189.334,116.424C189.821,117.457 190.787,118.274 191.532,119.293L192.19,120.19C192.383,120.366 192.517,120.598 192.569,120.854L193.114,123.527C193.157,123.727 193.155,123.938 193.111,124.139C192.797,125.55 192.446,126.937 192.035,128.291C191.581,129.786 190.671,130.439 189.303,130.26C187.629,130.042 186.532,129.94 186.015,129.951C185.66,129.881 185.346,129.677 185.08,129.339C185.016,129.258 184.929,129.198 184.827,129.174L184.099,128.984C183.874,128.924 183.715,128.72 183.712,128.488L183.694,127.004C183.694,126.959 183.697,126.913 183.705,126.867C183.872,125.839 184.014,125.12 184.109,124.701C184.296,123.878 184.356,123.186 184.296,122.627C184.126,121.062 183.698,119.835 183.019,118.945C181.982,117.585 180.98,116.178 180.013,114.729ZM186.016,121.225C185.948,121.579 186.694,122.018 187.678,122.207C188.663,122.398 189.517,122.264 189.586,121.912C189.654,121.558 188.909,121.118 187.924,120.93C186.94,120.738 186.085,120.872 186.016,121.225ZM186.781,123.523C186.557,123.548 186.419,123.97 186.479,124.462C186.535,124.954 186.768,125.331 186.993,125.303C187.218,125.278 187.355,124.856 187.296,124.364C187.239,123.871 187.007,123.495 186.781,123.523Z" style="fill:white;fill-opacity:0.65;"/>
    <path d="M181.812,140.077C180.633,139.371 179.641,138.229 178.881,136.67C178.395,135.675 177.959,134.42 177.699,132.764C177.33,130.447 177.07,128.794 176.912,127.81C176.873,127.567 176.767,127.338 176.606,127.149C175.055,125.338 174.324,123.21 174.411,120.774C174.436,120.032 174.619,119.42 174.953,118.945C175.793,117.76 176.866,116.857 178.174,116.238C178.656,116.762 178.796,117.371 178.62,118.073C178.594,118.178 178.547,118.277 178.476,118.361L177.509,119.568C177.457,119.634 177.417,119.712 177.393,119.796C177.101,120.824 176.881,122.117 176.701,123.664C176.467,125.668 177.045,126.874 178.04,128.762C178.793,130.19 179.946,130.866 181.5,130.784C182.221,130.746 183.726,130.468 186.015,129.951C186.532,129.94 187.629,130.042 189.303,130.26C190.671,130.439 191.581,129.786 192.035,128.291C192.446,126.937 192.797,125.55 193.111,124.139C193.155,123.938 193.157,123.727 193.114,123.527L192.569,120.854C192.517,120.598 192.383,120.366 192.19,120.19L191.532,119.293C190.787,118.274 189.821,117.457 189.334,116.424C188.801,115.291 189.194,114.909 189.355,113.885C191.265,114.149 192.903,114.87 194.264,116.048C196.121,117.651 197.26,119.42 196.884,121.934C196.669,123.355 196.652,124.518 195.65,125.303C195.555,124.754 195.332,124.346 194.978,124.089C194.894,124.029 194.774,124.061 194.735,124.156C194.187,125.494 194.002,126.871 194.187,128.288C194.201,128.397 194.307,128.464 194.412,128.435C194.623,128.377 194.806,128.232 194.957,128.006C195.435,128.97 194.95,129.237 194.433,129.916C194.31,130.078 194.254,130.274 194.275,130.475C194.356,131.291 194.169,132.989 193.719,135.566C193.564,136.449 193.188,137.143 192.576,137.63C191.696,138.332 190.835,138.919 189.998,139.394C186.821,141.197 183.996,141.385 181.812,140.077ZM185.474,132.374C184.974,132.51 184.398,132.592 183.747,132.613C183.075,132.634 182.417,132.88 182.341,133.541C182.13,135.366 185.058,134.95 186.106,134.663C187.15,134.377 189.878,133.23 188.765,131.772C188.361,131.244 187.672,131.369 187.08,131.695C186.511,132.009 185.976,132.236 185.474,132.374Z" style="fill:white;fill-opacity:0.25;"/>
    <path d="M178.174,116.238L180.013,114.729C180.98,116.178 181.982,117.585 183.019,118.945C183.698,119.835 184.126,121.062 184.296,122.627C184.356,123.186 184.296,123.878 184.109,124.701C184.014,125.12 183.872,125.839 183.705,126.867C183.697,126.913 183.694,126.959 183.694,127.004L183.712,128.488C183.715,128.72 183.874,128.924 184.099,128.984L184.827,129.174C184.929,129.198 185.016,129.258 185.08,129.339C185.346,129.677 185.66,129.881 186.015,129.951C183.726,130.468 182.221,130.746 181.5,130.784C179.946,130.866 178.793,130.19 178.04,128.762C177.045,126.874 176.467,125.668 176.701,123.664C176.881,122.117 177.101,120.824 177.393,119.796C177.417,119.712 177.457,119.634 177.509,119.568L178.476,118.361C178.547,118.277 178.594,118.178 178.62,118.073C178.796,117.371 178.656,116.762 178.174,116.238ZM182.711,121.607C182.646,121.269 181.817,121.143 180.851,121.322C179.886,121.501 179.158,121.923 179.22,122.261C179.285,122.599 180.115,122.725 181.08,122.546C182.045,122.366 182.773,121.945 182.711,121.607ZM182.31,123.82C182.08,123.843 181.936,124.244 181.988,124.714C182.038,125.183 182.263,125.545 182.491,125.519C182.72,125.496 182.865,125.095 182.813,124.625C182.763,124.156 182.537,123.794 182.31,123.82Z" style="fill:white;fill-opacity:0.5;"/>
    <path d="M222.76,149.8C222.883,149.663 222.939,149.529 222.936,149.399C222.932,149.311 222.883,149.23 222.805,149.192C222.44,149.005 221.978,149.035 221.624,148.823C219.167,147.347 220.414,143.932 220.488,143.756C221.455,141.442 221.726,139.483 220.692,137.18C219.905,135.422 219.289,133.928 218.85,132.697C218.751,132.426 218.727,131.674 218.779,130.447C218.783,130.334 218.807,130.218 218.846,130.109C219.286,128.896 220.049,127.81 221.135,126.846C222.025,126.058 222.897,125.781 223.846,125.134C224.384,124.772 224.725,124.518 224.873,124.374C226.244,123.063 227.078,122.205 227.369,121.797C228.881,119.687 231.241,118.2 233.657,117.387C236.642,116.382 239.3,116.762 241.628,118.527C242.106,118.889 242.489,119.269 242.774,119.673C243.505,120.703 244.596,120.805 245.316,121.748C246.301,123.035 246.378,124.16 246.677,125.598C246.73,125.837 246.755,126.083 246.751,126.326C246.74,128.446 246.74,130.552 246.751,132.644C246.755,133.017 246.617,133.499 246.34,134.09C246.392,133.277 246.462,132.497 246.54,131.755C246.595,131.231 246.288,130.733 245.788,130.535C245.608,130.464 245.357,130.279 245.046,129.979C244.918,129.857 244.831,129.701 244.796,129.529C244.467,127.905 243.927,126.266 243.175,124.613C242.911,124.033 242.837,123.525 242.117,123.369C241.814,123.303 241.55,123.368 241.325,123.565C239.537,125.135 237.567,126.312 235.408,127.096C233.681,127.395 231.782,127.52 229.708,127.483C228.491,127.461 227.698,127.979 227.324,129.037C227.121,129.61 227.189,130.222 227.201,130.995C227.203,131.136 227.218,131.277 227.246,131.414L227.911,134.628C227.915,134.659 227.919,134.687 227.918,134.715C227.886,135.919 227.943,137.117 228.182,138.309C228.756,141.182 230.882,141.832 233.178,143.067C233.787,143.394 234.159,143.995 234.296,144.877C233.555,145.943 232.742,146.631 231.853,146.938C230.653,147.352 228.181,148.041 224.433,149.005C224.092,149.093 223.537,149.357 222.76,149.8Z" style="fill:white;fill-opacity:0.2;"/>
    <path d="M134.671,121.238C133.233,120.675 131.823,120.038 130.448,119.325C129.045,118.597 127.663,118.362 126.295,118.629C125.866,118.712 125.515,119.012 125.367,119.423C124.586,121.59 124.137,123.766 124.038,125.953C124.02,126.35 124.053,126.748 124.14,127.134C124.456,128.537 124.711,129.588 124.91,130.296C125.375,131.951 126.211,133.339 128.169,132.929C129.123,132.73 130.1,132.637 131.098,132.651L131.679,132.535C131.833,132.507 131.968,132.409 132.044,132.272C132.321,131.777 132.783,131.526 133.433,131.526C133.581,131.526 133.704,131.417 133.722,131.273C133.885,129.954 133.808,128.797 133.479,127.803C133.416,127.613 133.384,127.412 133.381,127.208C133.359,125.756 133.364,124.687 133.381,124.001C133.392,123.555 133.824,122.634 134.671,121.238ZM130.654,125.98C130.452,125.957 130.241,126.315 130.183,126.784C130.124,127.25 130.244,127.651 130.446,127.677C130.648,127.701 130.859,127.342 130.916,126.874C130.975,126.407 130.856,126.006 130.654,125.98ZM131.126,124.065C131.113,123.847 130.923,123.678 130.705,123.692L128.157,123.848C127.937,123.861 127.772,124.051 127.785,124.269L127.787,124.304C127.8,124.522 127.99,124.691 128.208,124.676L130.756,124.521C130.975,124.508 131.141,124.318 131.128,124.1L131.126,124.065Z" style="fill:white;fill-opacity:0.65;"/>
    <path d="M131.098,132.651C132.674,132.961 134.256,133.239 135.842,133.481C138.792,133.932 139.649,131.804 140.786,129.213C141.724,127.074 140.531,123.361 139.847,121.371C139.64,120.77 139.295,120.61 138.722,120.636C138.63,120.641 138.545,120.667 138.472,120.71C137.313,121.394 136.053,121.586 134.671,121.238C133.824,122.634 133.392,123.555 133.381,124.001C133.364,124.687 133.359,125.756 133.381,127.208C133.384,127.412 133.416,127.613 133.479,127.803C133.808,128.797 133.885,129.954 133.722,131.273C133.704,131.417 133.581,131.526 133.433,131.526C132.783,131.526 132.321,131.777 132.044,132.272C131.968,132.409 131.833,132.507 131.679,132.535L131.098,132.651ZM135.234,126.31C135.037,126.298 134.85,126.635 134.82,127.07C134.787,127.504 134.924,127.866 135.121,127.881C135.318,127.894 135.504,127.556 135.535,127.121C135.568,126.688 135.43,126.326 135.234,126.31ZM138.385,124.649C138.398,124.445 138.247,124.269 138.043,124.255L135.518,124.074C135.314,124.058 135.139,124.212 135.123,124.416L135.12,124.451C135.107,124.656 135.258,124.831 135.462,124.845L137.988,125.026C138.191,125.042 138.367,124.888 138.382,124.684L138.385,124.649Z" style="fill:white;fill-opacity:0.5;"/>
    <path d="M186.016,121.225C185.948,121.579 186.694,122.018 187.678,122.207C188.663,122.398 189.517,122.264 189.586,121.912C189.654,121.558 188.909,121.118 187.924,120.93C186.94,120.738 186.085,120.872 186.016,121.225Z" style="fill:white;fill-opacity:0.15;"/>
    <path d="M182.711,121.607C182.646,121.269 181.817,121.143 180.851,121.322C179.886,121.501 179.158,121.923 179.22,122.261C179.285,122.599 180.115,122.725 181.08,122.546C182.045,122.366 182.773,121.945 182.711,121.607Z" style="fill:white;fill-opacity:0.15;"/>
    <path d="M250.512,186.386C250.503,185.248 250.591,183.79 250.647,182.761C250.686,182.083 250.598,181.439 250.39,180.827C250.39,180.827 248.71,174.952 248.446,174.125C247.939,172.55 247.447,170.841 246.973,169.002C246.108,166.305 245.612,164.305 245.489,162.993C245.384,161.878 245.252,160.029 245.091,157.444C245.05,156.78 244.829,156.201 244.441,155.704C244.257,155.469 243.882,155.563 243.829,155.859L243.843,156.214C244.091,161.86 244.454,167.282 245.119,172.462C245.136,172.589 245.165,172.712 245.207,172.831L245.661,174.139L230.819,174.716L228.333,174.741L225.218,165.961C225.119,165.686 224.736,165.672 224.616,165.936C223.924,167.459 223.101,168.971 222.151,170.469C221.276,171.85 219.796,173.834 217.703,176.415L216.919,176.759C216.814,176.808 216.694,176.822 216.578,176.801C214.127,176.375 212.186,175.156 210.762,173.088C210.762,172.332 210.812,171.84 210.91,171.618C213.357,166.101 215.78,160.574 218.178,155.039C218.793,153.615 219.384,152.588 219.943,151.956C220.731,151.066 221.67,150.345 222.76,149.8C223.537,149.357 224.092,149.093 224.433,149.005C228.181,148.041 230.653,147.352 231.853,146.938C232.742,146.631 233.555,145.943 234.296,144.877C235.865,143.605 236.751,141.252 236.958,139.336C237.633,138.861 238.184,138.308 238.611,137.673C238.691,137.553 238.688,137.391 238.604,137.272L238.47,137.085C238.425,137.022 238.33,137.036 238.305,137.107C238.091,137.715 237.644,138.2 236.972,138.569L236.825,136.46L236.818,136.431C236.522,135.394 235.904,135.048 234.958,135.394C234.648,135.507 234.326,135.275 234.328,134.948C234.328,134.909 234.33,133.995 234.325,132.212C234.32,130.665 234.696,129.364 234.782,127.908C234.789,127.785 234.831,127.669 234.905,127.57C235.035,127.398 235.204,127.24 235.408,127.096C237.567,126.312 239.537,125.135 241.325,123.565C241.55,123.368 241.814,123.303 242.117,123.369C242.837,123.525 242.911,124.033 243.175,124.613C243.927,126.266 244.467,127.905 244.796,129.529C244.831,129.701 244.918,129.857 245.046,129.979C245.357,130.279 245.608,130.464 245.788,130.535C246.288,130.733 246.595,131.231 246.54,131.755C246.462,132.497 246.392,133.277 246.34,134.09L246.195,134.283C245.475,134.821 245.077,135.25 245.007,135.573C244.677,137.102 244.067,138.54 243.171,139.888C242.971,140.19 242.602,140.563 242.067,141.006C240.457,142.339 239.809,144.103 240.169,146.217C240.212,146.47 240.418,146.662 240.675,146.685C243.081,146.894 245.686,146.861 247.89,148.594C250.594,150.405 252.883,153.084 253.467,156.372C253.798,158.232 254.216,160.11 254.663,161.84C254.779,162.293 254.701,162.775 254.8,163.053C254.838,163.158 254.972,163.19 255.053,163.113C256.614,161.597 258.425,160.75 260.489,160.574C261.284,160.504 261.994,160.38 262.62,160.201C263.221,161.478 264.241,162.185 265.682,162.328C266.903,162.45 267.887,162.375 268.636,162.103C269.987,161.613 271.28,161.165 272.518,160.76C273.956,161.087 275.324,161.738 276.73,161.72C277.272,161.713 277.835,161.829 278.418,162.065C279.962,162.698 281.323,163.608 282.504,164.797C282.585,164.878 282.652,164.966 282.708,165.068C283.021,165.616 283.337,166.126 283.534,166.608C285.496,171.4 287.863,177.04 290.63,183.528C290.672,183.63 290.693,183.739 290.693,183.848L290.693,185.402C290.693,185.479 290.676,185.56 290.644,185.631L283.225,202.157C282.167,201.106 280.992,200.585 279.702,200.606C279.519,200.609 279.357,200.722 279.29,200.891C278.696,202.392 278.727,203.902 279.364,205.434C279.421,205.571 279.439,205.719 279.42,205.863C279.349,206.422 279.217,207.171 279.023,208.103C278.795,209.2 280.321,209.891 280.83,208.736C281.093,208.141 281.287,207.733 281.411,207.516C281.481,207.392 281.664,207.428 281.688,207.565C281.858,208.535 281.737,209.425 281.333,210.23C280.689,211.517 280.22,212.384 279.93,212.832C279.867,212.93 279.851,213.053 279.884,213.166C280.041,213.688 280.366,213.944 280.869,213.929C281.017,213.925 281.161,213.866 281.27,213.76C281.727,213.314 282.504,212.175 282.567,212.09L282.701,211.909C283.756,217.195 284.844,223.911 285.848,229C286.309,231.331 286.643,233.469 286.85,235.413C287.128,238.012 287.388,240.167 287.638,241.873C287.757,242.703 287.75,243.705 288.018,244.714C288.028,244.753 288.032,244.791 288.035,244.83L288.24,247.42C280.381,247.422 268.601,247.421 254.766,247.42L254.655,243.596C255.095,243.582 255.805,243.605 256.783,243.673C257.63,243.732 258.802,243.687 260.296,243.532C260.461,243.515 260.626,243.473 260.781,243.406C264.43,241.83 264.332,239.035 264.329,235.086L264.327,234.249C264.313,230.802 264.217,228.491 264.279,225.579L264.264,223.208C264.203,213.561 264.119,200.862 264.102,195.18C264.102,193.57 264.1,192.551 264.104,192.336C264.156,189.562 263.008,187.578 260.626,186.439C260.514,186.386 260.394,186.355 260.271,186.348L258.208,186.356L257.922,182.877C257.897,182.684 257.637,182.645 257.556,182.821L256.406,186.363L250.901,186.384L250.512,186.386ZM278.39,177.399C278.285,177.058 278.045,176.799 277.669,176.618C277.444,176.51 277.177,176.601 277.064,176.822C275.204,180.477 273.599,184.269 272.268,188.208C272.166,188.51 272.391,188.823 272.711,188.823L274.522,188.82C276.273,191.865 277.683,194.97 278.749,198.131C278.925,198.651 279.199,199.238 279.568,199.889C279.603,199.952 279.698,199.949 279.73,199.885C280.187,199.049 280.247,198.282 280.507,197.287C281.776,192.442 282.81,188.479 283.615,185.398C283.668,185.198 283.615,184.984 283.475,184.829C281.463,182.61 279.768,180.131 278.39,177.399ZM239.029,129.452C238.013,129.002 237.064,128.798 236.181,128.836C235.921,128.85 235.696,129.012 235.605,129.255L235.601,129.265C235.524,129.466 235.671,129.684 235.889,129.687L238.97,129.726C239.124,129.726 239.173,129.515 239.029,129.452ZM236.903,130.894C236.67,130.925 236.533,131.329 236.596,131.799C236.659,132.268 236.895,132.627 237.127,132.595C237.359,132.564 237.496,132.159 237.433,131.689C237.37,131.22 237.134,130.862 236.903,130.894Z" style="fill:white;fill-opacity:0.65;"/>
    <path d="M186.781,123.523C186.557,123.548 186.419,123.97 186.479,124.462C186.535,124.954 186.768,125.331 186.993,125.303C187.218,125.278 187.355,124.856 187.296,124.364C187.239,123.871 187.007,123.495 186.781,123.523Z" style="fill:white;fill-opacity:0.15;"/>
    <path d="M131.126,124.065C131.113,123.847 130.923,123.678 130.705,123.692L128.157,123.848C127.937,123.861 127.772,124.051 127.785,124.269L127.787,124.304C127.8,124.522 127.99,124.691 128.208,124.676L130.756,124.521C130.975,124.508 131.141,124.318 131.128,124.1L131.126,124.065Z" style="fill:white;fill-opacity:0.15;"/>
    <path d="M182.31,123.82C182.08,123.843 181.936,124.244 181.988,124.714C182.038,125.183 182.263,125.545 182.491,125.519C182.72,125.496 182.865,125.095 182.813,124.625C182.763,124.156 182.537,123.794 182.31,123.82Z" style="fill:white;fill-opacity:0.15;"/>
    <path d="M138.385,124.649C138.398,124.445 138.247,124.269 138.043,124.255L135.518,124.074C135.314,124.058 135.139,124.212 135.123,124.416L135.12,124.451C135.107,124.656 135.258,124.831 135.462,124.845L137.988,125.026C138.191,125.042 138.367,124.888 138.382,124.684L138.385,124.649Z" style="fill:white;fill-opacity:0.15;"/>
    <path d="M195.65,125.303C195.853,126.34 195.621,127.243 194.957,128.006C194.806,128.232 194.623,128.377 194.412,128.435C194.307,128.464 194.201,128.397 194.187,128.288C194.002,126.871 194.187,125.494 194.735,124.156C194.774,124.061 194.894,124.029 194.978,124.089C195.332,124.346 195.555,124.754 195.65,125.303Z" style="fill:white;fill-opacity:0.65;"/>
    <path d="M130.654,125.98C130.452,125.957 130.241,126.315 130.183,126.784C130.124,127.25 130.244,127.651 130.446,127.677C130.648,127.701 130.859,127.342 130.916,126.874C130.975,126.407 130.856,126.006 130.654,125.98Z" style="fill:white;fill-opacity:0.15;"/>
    <path d="M121.837,130.352C121.471,129.821 121.306,129.149 121.337,128.341C121.242,127.648 121.482,126.987 122.069,126.368C122.149,126.283 122.29,126.305 122.336,126.414C122.937,127.845 123.147,129.35 122.948,130.936C122.934,131.045 122.825,131.118 122.719,131.09C122.393,131.005 122.1,130.76 121.837,130.352Z" style="fill:white;fill-opacity:0.85;"/>
    <path d="M135.234,126.31C135.037,126.298 134.85,126.635 134.82,127.07C134.787,127.504 134.924,127.866 135.121,127.881C135.318,127.894 135.504,127.556 135.535,127.121C135.568,126.688 135.43,126.326 135.234,126.31Z" style="fill:white;fill-opacity:0.15;"/>
    <path d="M234.296,144.877C235.865,143.605 236.751,141.252 236.958,139.336C236.269,139.67 235.506,139.749 234.666,139.578C234.56,139.557 234.497,139.445 234.536,139.346L234.553,139.304C234.595,139.195 234.704,139.126 234.824,139.139C235.657,139.232 236.375,139.037 236.972,138.569L236.825,136.46L236.818,136.431C236.522,135.394 235.904,135.048 234.958,135.394C234.648,135.507 234.326,135.275 234.328,134.948C234.328,134.909 234.33,133.995 234.325,132.212C234.32,130.665 234.696,129.364 234.782,127.908C234.789,127.785 234.831,127.669 234.905,127.57C235.035,127.398 235.204,127.24 235.408,127.096C233.681,127.395 231.782,127.52 229.708,127.483C228.491,127.461 227.698,127.979 227.324,129.037C227.121,129.61 227.189,130.222 227.201,130.995C227.203,131.136 227.218,131.277 227.246,131.414L227.911,134.628C227.915,134.659 227.919,134.687 227.918,134.715C227.886,135.919 227.943,137.117 228.182,138.309C228.756,141.182 230.882,141.832 233.178,143.067C233.787,143.394 234.159,143.995 234.296,144.877ZM232.345,131.766C232.127,131.79 231.993,132.187 232.041,132.657C232.088,133.126 232.303,133.488 232.521,133.466C232.739,133.443 232.872,133.045 232.825,132.576C232.777,132.106 232.563,131.744 232.345,131.766ZM229.764,130.992L232.475,130.095C232.503,130.088 232.517,130.053 232.51,130.025L232.5,129.997C232.412,129.736 231.733,129.726 230.981,129.976L230.889,130.007C230.137,130.253 229.595,130.668 229.683,130.928L229.69,130.957C229.701,130.988 229.732,131.002 229.764,130.992Z" style="fill:white;fill-opacity:0.5;"/>
    <path d="M239.029,129.452C238.013,129.002 237.064,128.798 236.181,128.836C235.921,128.85 235.696,129.012 235.605,129.255L235.601,129.265C235.524,129.466 235.671,129.684 235.889,129.687L238.97,129.726C239.124,129.726 239.173,129.515 239.029,129.452Z" style="fill:white;fill-opacity:0.15;"/>
    <path d="M229.764,130.992L232.475,130.095C232.503,130.088 232.517,130.053 232.51,130.025L232.5,129.997C232.412,129.736 231.733,129.726 230.981,129.976L230.889,130.007C230.137,130.253 229.595,130.668 229.683,130.928L229.69,130.957C229.701,130.988 229.732,131.002 229.764,130.992Z" style="fill:white;fill-opacity:0.15;"/>
    <path d="M258.637,149.314C254.928,147.951 254.087,142.456 256.125,139.638C256.734,138.791 257.134,138.26 257.324,138.042C257.412,137.936 257.465,137.806 257.472,137.669C257.483,137.451 257.423,136.92 257.296,136.08C256.899,133.421 258.397,131.727 260.802,130.855C262.866,130.106 264.99,130.081 267.17,130.788C267.56,130.914 268.386,131.287 269.649,131.91C270.035,132.099 270.623,132.089 271.41,131.878C274.375,131.087 276.509,131.983 277.813,134.571C277.866,134.677 277.894,134.789 277.894,134.909L277.894,136.115C277.894,136.238 277.929,136.358 277.993,136.463C278.499,137.286 278.91,137.827 279.223,138.084C280.479,139.128 281.875,140.366 282.149,142.015C282.585,144.628 281.266,146.28 279.403,147.828C279.315,147.898 279.252,147.996 279.216,148.105C279.114,148.446 279.079,148.759 279.118,149.041C279.132,149.139 279.121,149.241 279.09,149.332C278.833,150.088 278.668,150.51 278.601,150.602C277.859,151.597 276.727,152.152 275.197,152.276C275.556,151.801 275.815,151.266 275.974,150.665C276.027,150.468 276.144,150.293 276.305,150.166C277.648,149.108 278.002,146.889 277.349,145.444C277.106,144.906 276.78,144.776 276.27,145.127C276.147,145.212 275.979,145.134 275.96,144.986C275.663,142.628 275.21,140.615 274.649,138.945C274.477,138.435 274.104,138.202 273.531,138.246C273.432,138.253 273.341,138.285 273.263,138.337C270.961,139.881 268.4,140.777 265.612,141.08L260.285,141.217C260.187,141.221 260.085,141.239 259.99,141.273C259.316,141.517 258.886,141.899 258.706,142.43C258.531,142.944 258.462,143.655 258.457,144.428C258.416,145.839 258.512,147.652 258.637,149.314Z" style="fill:white;fill-opacity:0.4;"/>
    <path d="M236.903,130.894C236.67,130.925 236.533,131.329 236.596,131.799C236.659,132.268 236.895,132.627 237.127,132.595C237.359,132.564 237.496,132.159 237.433,131.689C237.37,131.22 237.134,130.862 236.903,130.894Z" style="fill:white;fill-opacity:0.15;"/>
    <path d="M185.474,132.374C184.974,132.51 184.398,132.592 183.747,132.613C183.075,132.634 182.417,132.88 182.341,133.541C182.13,135.366 185.058,134.95 186.106,134.663C187.15,134.377 189.878,133.23 188.765,131.772C188.361,131.244 187.672,131.369 187.08,131.695C186.511,132.009 185.976,132.236 185.474,132.374Z" style="fill:white;fill-opacity:0.65;"/>
    <path d="M232.345,131.766C232.127,131.79 231.993,132.187 232.041,132.657C232.088,133.126 232.303,133.488 232.521,133.466C232.739,133.443 232.872,133.045 232.825,132.576C232.777,132.106 232.563,131.744 232.345,131.766Z" style="fill:white;fill-opacity:0.15;"/>
    <path d="M246.195,134.283C246.009,135.995 246.016,137.419 246.217,138.555C246.294,138.998 246.519,139.765 246.888,140.855C247.401,142.363 247.778,143.865 248.27,145.644C248.393,146.094 248.428,146.618 248.375,147.212C248.323,147.778 247.88,147.937 247.89,148.594C245.686,146.861 243.081,146.894 240.675,146.685C240.418,146.662 240.212,146.47 240.169,146.217C239.809,144.103 240.457,142.339 242.067,141.006C242.602,140.563 242.971,140.19 243.171,139.888C244.067,138.54 244.677,137.102 245.007,135.573C245.077,135.25 245.475,134.821 246.195,134.283Z" style="fill:white;fill-opacity:0.2;"/>
    <path d="M131.506,137.24C132.509,137.504 134.589,137.863 134.864,136.498C134.935,136.147 134.625,135.812 134.21,135.791C133.243,135.744 132.491,135.649 131.96,135.51C131.429,135.371 130.732,135.086 129.864,134.649C129.495,134.463 129.06,134.603 128.95,134.944C128.524,136.267 130.504,136.976 131.506,137.24Z" style="fill:white;fill-opacity:0.65;"/>
    <path d="M236.958,139.336C237.633,138.861 238.184,138.308 238.611,137.673C238.691,137.553 238.688,137.391 238.604,137.272L238.47,137.085C238.425,137.022 238.33,137.036 238.305,137.107C238.091,137.715 237.644,138.2 236.972,138.569C236.375,139.037 235.657,139.232 234.824,139.139C234.704,139.126 234.595,139.195 234.553,139.304L234.536,139.346C234.497,139.445 234.56,139.557 234.666,139.578C235.506,139.749 236.269,139.67 236.958,139.336Z" style="fill:white;fill-opacity:0.15;"/>
    <path d="M275.197,152.276C274.473,153.45 273.086,155.519 270.598,157.086C269.202,157.525 267.719,157.593 266.143,157.304C266.066,157.29 266.03,157.202 266.073,157.138C266.741,156.144 267.187,155.025 267.409,153.773C267.413,153.754 267.505,153.519 267.576,153.165C268.433,152.835 269.094,152.124 269.571,151.034C269.585,151.003 269.574,150.965 269.543,150.943C269.515,150.923 269.476,150.928 269.452,150.953C268.801,151.63 268.62,152.252 267.644,152.687C267.722,151.729 267.483,150.377 265.753,149.642C265.327,149.46 265.095,148.995 265.204,148.541C265.768,146.203 265.907,143.717 265.612,141.08C268.4,140.777 270.961,139.881 273.263,138.337C273.341,138.285 273.432,138.253 273.531,138.246C274.104,138.202 274.477,138.435 274.649,138.945C275.21,140.615 275.663,142.628 275.96,144.986C275.979,145.134 276.147,145.212 276.27,145.127C276.78,144.776 277.106,144.906 277.349,145.444C278.002,146.889 277.648,149.108 276.305,150.166C276.144,150.293 276.027,150.468 275.974,150.665C275.815,151.266 275.556,151.801 275.197,152.276ZM269.23,149.754C270.268,149.695 271.171,149.972 271.941,150.588C271.991,150.626 272.064,150.616 272.1,150.567L272.163,150.482C272.223,150.398 272.209,150.282 272.128,150.215C271.308,149.529 270.324,149.311 269.174,149.561C269.149,149.568 269.132,149.589 269.132,149.614L269.135,149.666C269.139,149.719 269.181,149.758 269.23,149.754ZM270.893,143.9C270.96,143.935 271.041,143.914 271.087,143.854C271.129,143.791 271.122,143.71 271.066,143.657C270.106,142.771 268.935,142.458 267.553,142.718C267.363,142.754 267.205,142.873 267.117,143.045L267.061,143.158C266.983,143.309 267.092,143.492 267.265,143.492C269.002,143.481 269.793,143.327 270.893,143.9ZM268.084,144.758C267.859,144.775 267.708,145.194 267.751,145.69C267.796,146.185 268.01,146.572 268.238,146.551C268.464,146.534 268.615,146.115 268.571,145.619C268.527,145.124 268.313,144.737 268.084,144.758ZM269.255,148.074C269.751,148.147 270.176,148.122 270.531,148.003C270.668,147.957 270.728,147.796 270.64,147.697C270.612,147.666 270.559,147.654 270.479,147.659C269.743,147.698 269.353,147.722 269.308,147.715C269.262,147.708 268.892,147.58 268.204,147.321C268.13,147.293 268.073,147.29 268.038,147.311C267.926,147.378 267.936,147.549 268.056,147.634C268.362,147.851 268.759,148 269.255,148.074Z" style="fill:white;fill-opacity:0.65;"/>
    <path d="M126.89,140.915L125.578,138.432C127.153,139.308 128.549,139.772 129.766,139.821C131.703,139.899 133.651,140.004 135.61,140.141C135.469,141.593 135.557,143.147 136.461,144.343C135.462,144.29 134.252,144.059 132.828,143.647C130.827,143.068 128.942,142.035 127.195,140.531C127.114,140.461 126.988,140.489 126.939,140.584C126.882,140.693 126.865,140.806 126.89,140.915Z" style="fill:white;fill-opacity:0.5;"/>
    <path d="M117.993,192.941L114.955,192.934C114.625,192.972 114.375,192.955 114.21,192.881C114.105,192.835 114.034,192.73 114.034,192.614L114.034,185.23C114.034,185.152 113.978,185.086 113.901,185.079C113.823,185.068 113.753,185.117 113.732,185.191L108.187,206.443C108.123,206.679 107.884,206.823 107.649,206.767L105.332,206.215L100.701,205.455L99.744,205.184C99.611,205.146 99.526,205.012 99.547,204.875C101.084,194.949 102.909,184.491 105.019,173.507C106.204,167.336 107.589,161.33 109.171,155.496C111.144,148.211 117.6,145 124.804,145.166C124.917,145.169 125.029,145.148 125.135,145.102C126.271,144.621 126.97,143.826 127.231,142.711C127.259,142.592 127.259,142.465 127.227,142.346L126.89,140.915C126.865,140.806 126.882,140.693 126.939,140.584C126.988,140.489 127.114,140.461 127.195,140.531C128.942,142.035 130.827,143.068 132.828,143.647C134.252,144.059 135.462,144.29 136.461,144.343L138.127,145.145C138.198,145.18 138.279,145.194 138.36,145.19C144.038,144.768 147.372,148.675 148.771,153.766C149.344,155.841 149.889,158.07 150.406,160.454C152.041,167.954 153.332,174.329 154.281,179.583C155.083,184.003 155.533,186.024 156.039,189.382C156.218,190.571 156.342,191.137 156.356,191.024C156.51,189.748 156.609,188.989 156.651,188.739C158.079,180.156 159.541,172.329 161.039,165.25C162.186,159.832 163.17,155.743 163.989,152.975C164.995,149.579 166.571,145.99 169.267,143.594C171.497,141.613 173.156,141.825 174.151,141.713C175.421,141.569 176.88,141.583 178.525,141.751C179.422,141.846 180.073,141.794 180.47,141.597C181.033,141.319 181.462,140.827 181.76,140.127L181.812,140.077C183.996,141.385 186.821,141.197 189.998,139.394C190.038,139.434 190.069,139.508 190.09,139.617L190.115,139.948C190.126,140.071 190.178,140.183 190.263,140.268C191.237,141.231 191.732,141.991 193.142,142.233C193.452,142.286 199.823,141.913 202.967,148.752C203.288,149.45 203.607,150.63 204.004,152.254C206.028,160.476 207.77,168.745 209.232,177.064C207.904,180.519 206.117,185.18 205.615,186.546L200.642,186.561L198.322,177.199C198.297,177.1 198.159,177.092 198.111,177.188C198.064,177.282 198.097,177.87 198.213,178.946C198.574,182.302 198.895,184.84 199.177,186.566C191.552,186.588 185.955,186.6 184.696,186.59C183.483,186.58 182.39,186.732 181.409,187.044C179.88,187.531 178.817,188.507 178.227,189.973L177.506,190.019L169.587,190.008L169.246,190.036C169.095,190.047 168.965,189.927 168.965,189.776L168.986,182.578C168.986,182.571 168.982,182.564 168.979,182.557C168.958,182.515 168.937,182.491 168.919,182.48C168.793,182.413 168.641,182.466 168.61,182.589C167.566,186.514 166.526,190.446 165.49,194.389C164.709,194.869 164.309,195.247 164.309,195.247C164.2,195.307 164.063,195.297 163.961,195.223C164.01,192.144 158.578,195.451 157.765,198.828C157.724,198.872 157.705,198.937 157.727,199.003C157.506,200.151 157.567,202.124 157.964,203.969C157.881,204.01 157.792,204.041 157.695,204.066L154.081,204.791L150.413,205.473C150.142,205.522 149.879,205.357 149.805,205.093L148.426,200.216L146.535,192.705L143.251,179.516C143.247,179.502 143.233,179.491 143.215,179.491L143.075,179.491C143.022,179.491 142.983,179.537 142.99,179.586L144.78,192.955L117.993,192.941Z" style="fill:white;fill-opacity:0.6;"/>
    <path d="M267.409,153.773C267.187,155.025 266.741,156.144 266.073,157.138C266.03,157.202 266.066,157.29 266.143,157.304C267.719,157.593 269.202,157.525 270.598,157.086C270.461,158.847 271.101,160.071 272.518,160.76C271.28,161.165 269.987,161.613 268.636,162.103C267.887,162.375 266.903,162.45 265.682,162.328C264.241,162.185 263.221,161.478 262.62,160.201C263.376,159.688 263.763,158.847 263.777,157.684C263.78,157.557 263.692,157.444 263.569,157.413C261.544,156.896 259.845,155.978 259.086,153.928C259.047,153.833 259.026,153.731 259.019,153.629C258.966,152.968 258.782,151.242 258.637,149.314C258.512,147.652 258.416,145.839 258.457,144.428C258.482,143.574 258.557,142.868 258.706,142.43C258.886,141.899 259.316,141.517 259.99,141.273C260.085,141.239 260.187,141.221 260.285,141.217L265.612,141.08C265.907,143.717 265.768,146.203 265.204,148.541C265.095,148.995 265.327,149.46 265.753,149.642C267.483,150.377 267.722,151.729 267.644,152.687L267.5,152.747C266.765,153.137 266.087,152.975 265.38,153.053C265.32,153.06 265.306,153.141 265.359,153.169C265.542,153.264 265.756,153.327 265.999,153.362C266.584,153.41 267.109,153.344 267.576,153.165C267.505,153.519 267.413,153.754 267.409,153.773ZM261.751,148.71C261.741,148.809 261.811,148.897 261.909,148.907C262.644,148.985 263.357,148.819 264.016,148.369C264.041,148.352 264.047,148.316 264.03,148.288L263.97,148.207C263.928,148.151 263.854,148.13 263.791,148.162C263.154,148.481 262.532,148.612 261.924,148.559C261.839,148.551 261.762,148.615 261.751,148.7L261.751,148.71ZM263.154,153.253C263.263,152.381 263.657,151.688 264.336,151.171C264.402,151.119 264.417,151.027 264.371,150.957L264.357,150.932C264.311,150.866 264.223,150.848 264.156,150.89C263.316,151.425 262.831,152.184 262.694,153.165C262.68,153.278 262.753,153.383 262.862,153.411L262.912,153.422C263.024,153.45 263.14,153.373 263.154,153.253ZM260.978,144.178C261.983,143.583 262.732,143.689 264.367,143.612C264.529,143.605 264.624,143.429 264.543,143.288L264.483,143.186C264.395,143.028 264.237,142.922 264.058,142.901C262.746,142.725 261.663,143.077 260.802,143.956C260.753,144.009 260.749,144.086 260.795,144.142C260.837,144.199 260.914,144.213 260.978,144.178ZM263.286,145.555C263.06,145.573 262.909,145.991 262.953,146.487C262.997,146.983 263.211,147.37 263.439,147.349C263.665,147.331 263.816,146.912 263.772,146.417C263.728,145.921 263.514,145.534 263.286,145.555Z" style="fill:white;fill-opacity:0.5;"/>
    <path d="M267.576,153.165C267.109,153.344 266.584,153.41 265.999,153.362C265.756,153.327 265.542,153.264 265.359,153.169C265.306,153.141 265.32,153.06 265.38,153.053C266.087,152.975 266.765,153.137 267.5,152.747L267.644,152.687C268.62,152.252 268.801,151.63 269.452,150.953C269.476,150.928 269.515,150.923 269.543,150.943C269.574,150.965 269.585,151.003 269.571,151.034C269.094,152.124 268.433,152.835 267.576,153.165ZM270.893,143.9C269.793,143.327 269.002,143.481 267.265,143.492C267.092,143.492 266.983,143.309 267.061,143.158L267.117,143.045C267.205,142.873 267.363,142.754 267.553,142.718C268.935,142.458 270.106,142.771 271.066,143.657C271.122,143.71 271.129,143.791 271.087,143.854C271.041,143.914 270.96,143.935 270.893,143.9ZM260.978,144.178C260.914,144.213 260.837,144.199 260.795,144.142C260.749,144.086 260.753,144.009 260.802,143.956C261.663,143.077 262.746,142.725 264.058,142.901C264.237,142.922 264.395,143.028 264.483,143.186L264.543,143.288C264.624,143.429 264.529,143.605 264.367,143.612C262.732,143.689 261.983,143.583 260.978,144.178ZM268.084,144.758C268.313,144.737 268.527,145.124 268.571,145.619C268.615,146.115 268.464,146.534 268.238,146.551C268.01,146.572 267.796,146.185 267.751,145.69C267.708,145.194 267.859,144.775 268.084,144.758ZM263.286,145.555C263.514,145.534 263.728,145.921 263.772,146.417C263.816,146.912 263.665,147.331 263.439,147.349C263.211,147.37 262.997,146.983 262.953,146.487C262.909,145.991 263.06,145.573 263.286,145.555Z" style="fill:white;fill-opacity:0.15;"/>
    <path d="M45.805,189.931C45.084,189.421 44.346,188.915 43.586,188.415C42.866,187.941 42.408,187.438 41.888,187.019C41.698,186.865 41.48,186.752 41.245,186.685C39.23,186.126 37.257,185.592 36.505,183.465C36.132,182.41 36.199,180.43 35.721,179.326C34.958,177.561 32.897,176.794 31.308,175.894C29.279,174.741 28.924,173.123 30.246,171.038C31.452,169.136 32.967,167.564 34.789,166.33C35.017,166.175 35.112,165.883 35.017,165.627C34.49,164.185 34.251,162.599 34.297,160.866C34.388,157.437 36.417,154.494 38.871,152.008C42.236,148.601 46.688,146.122 51.53,145.88C53.608,145.774 56.034,146.882 58.084,147.799C58.435,147.954 58.836,147.951 59.181,147.789C61.139,146.868 63.305,146.351 65.679,146.238C66.801,146.182 67.848,146.083 68.826,145.939C69.125,145.894 69.417,145.813 69.698,145.69C70.869,145.173 72.05,144.67 73.242,144.178C73.907,143.903 74.614,143.735 75.363,143.675C77.574,143.488 79.28,145.152 80.18,147.079C80.764,148.327 81.098,149.737 81.182,151.309C81.284,153.218 81.242,154.667 81.055,155.662C80.563,158.295 78.942,160.191 76.189,161.344C76.087,161.386 75.989,161.442 75.901,161.513C75.208,162.051 74.779,162.55 74.607,163.014C74.188,163.503 73.758,163.878 73.323,164.143C68.803,166.896 65.66,168.332 63.362,172.009C63.182,172.297 62.75,172.458 62.068,172.483C61.959,172.487 61.853,172.463 61.755,172.417C61.554,172.322 61.189,172.135 60.658,171.854C57.749,170.311 55.859,173.236 56.396,175.859C56.671,177.199 58.045,178.591 59.104,179.579C61.533,181.847 62.661,184.698 62.539,188.134C62.535,188.247 62.489,188.355 62.412,188.44C61.675,189.25 60.886,189.847 60.035,190.23C59.807,190.332 59.719,190.456 59.771,190.599C59.758,190.597 59.734,190.617 59.701,190.659C59.663,190.627 59.625,190.601 59.585,190.585C59.547,190.569 59.501,190.573 59.448,190.592C57.138,191.407 54.712,191.734 52.131,191.453C49.888,191.21 47.778,190.701 45.805,189.931Z" style="fill:white;fill-opacity:0.25;"/>
    <path d="M269.255,148.074C269.751,148.147 270.176,148.122 270.531,148.003C270.668,147.957 270.728,147.796 270.64,147.697C270.612,147.666 270.559,147.654 270.479,147.659C269.743,147.698 269.353,147.722 269.308,147.715C269.262,147.708 268.892,147.58 268.204,147.321C268.13,147.293 268.073,147.29 268.038,147.311C267.926,147.378 267.936,147.549 268.056,147.634C268.362,147.851 268.759,148 269.255,148.074Z" style="fill:white;fill-opacity:0.5;"/>
    <path d="M261.751,148.71C261.741,148.809 261.811,148.897 261.909,148.907C262.644,148.985 263.357,148.819 264.016,148.369C264.041,148.352 264.047,148.316 264.03,148.288L263.97,148.207C263.928,148.151 263.854,148.13 263.791,148.162C263.154,148.481 262.532,148.612 261.924,148.559C261.839,148.551 261.762,148.615 261.751,148.7L261.751,148.71Z" style="fill:white;fill-opacity:0.4;"/>
    <path d="M269.23,149.754C270.268,149.695 271.171,149.972 271.941,150.588C271.991,150.626 272.064,150.616 272.1,150.567L272.163,150.482C272.223,150.398 272.209,150.282 272.128,150.215C271.308,149.529 270.324,149.311 269.174,149.561C269.149,149.568 269.132,149.589 269.132,149.614L269.135,149.666C269.139,149.719 269.181,149.758 269.23,149.754Z" style="fill:white;fill-opacity:0.5;"/>
    <path d="M263.154,153.253C263.263,152.381 263.657,151.688 264.336,151.171C264.402,151.119 264.417,151.027 264.371,150.957L264.357,150.932C264.311,150.866 264.223,150.848 264.156,150.89C263.316,151.425 262.831,152.184 262.694,153.165C262.68,153.278 262.753,153.383 262.862,153.411L262.912,153.422C263.024,153.45 263.14,153.373 263.154,153.253Z" style="fill:white;fill-opacity:0.4;"/>
    <path d="M246.973,169.002C246.108,166.305 245.612,164.305 245.489,162.993C245.384,161.878 245.252,160.029 245.091,157.444C245.05,156.78 244.829,156.201 244.441,155.704C244.257,155.469 243.882,155.563 243.829,155.859C243.829,155.862 243.833,155.982 243.843,156.214C244.091,161.86 244.454,167.282 245.119,172.462C245.136,172.589 245.165,172.712 245.207,172.831L245.661,174.139L246.136,173.338L246.973,169.002Z" style="fill:white;fill-opacity:0.25;"/>
    <path d="M74.607,163.014C75.067,164.916 75.282,166.801 75.247,168.675C75.243,168.791 75.166,168.897 75.053,168.932C74.051,169.248 73.116,169.765 72.254,170.486C72.11,170.606 72.075,170.813 72.17,170.975C72.265,171.137 72.465,171.207 72.641,171.137L75.138,170.145C75.208,170.117 75.285,170.17 75.285,170.247L75.285,172.265C75.285,172.378 75.218,172.483 75.113,172.529C74.899,172.624 74.751,172.779 74.663,172.993C74.248,174.006 74.389,174.832 75.088,175.469C75.215,175.585 75.282,175.753 75.268,175.929L74.786,182.002C74.772,182.188 74.586,182.311 74.41,182.248L73.179,181.815C72.715,181.654 72.24,182.033 72.3,182.522C72.448,183.714 73.2,184.41 73.9,185.307C73.981,185.406 74.009,185.539 73.981,185.666C73.316,188.647 71.762,192.03 68.404,192.266C65.327,192.48 62.451,191.932 59.782,190.627C59.782,190.61 59.778,190.601 59.771,190.599C59.719,190.456 59.807,190.332 60.035,190.23C60.886,189.847 61.675,189.25 62.412,188.44C62.489,188.355 62.535,188.247 62.539,188.134C62.661,184.698 61.533,181.847 59.104,179.579C58.045,178.591 56.671,177.199 56.396,175.859C55.859,173.236 57.749,170.311 60.658,171.854C61.189,172.135 61.554,172.322 61.755,172.417C61.853,172.463 61.959,172.487 62.068,172.483C62.75,172.458 63.182,172.297 63.362,172.009C65.66,168.332 68.803,166.896 73.323,164.143C73.758,163.878 74.188,163.503 74.607,163.014Z" style="fill:white;fill-opacity:0.75;"/>
    <path d="M59.771,190.599C59.774,190.609 59.778,190.618 59.782,190.627C59.782,190.61 59.778,190.601 59.771,190.599Z" style="fill:white;fill-opacity:0.95;"/>
    <path d="M206.227,186.544L205.615,186.546C206.117,185.18 207.904,180.519 209.232,177.064L210.762,173.088C212.186,175.156 214.127,176.375 216.578,176.801C216.694,176.822 216.814,176.808 216.919,176.759L217.703,176.415L211.861,186.525L208.99,186.535L206.227,186.544Z" style="fill:white;fill-opacity:0.5;"/>
    <path d="M245.661,174.139L230.819,174.716C231.68,175.078 232.788,175.353 234.142,175.539C237.711,176.029 241.241,176.207 244.733,176.126C244.915,176.122 245.07,176.267 245.081,176.45L246.308,186.402C247.799,186.396 249.206,186.391 250.512,186.386C250.503,185.248 250.591,183.79 250.647,182.761C250.686,182.083 247.982,177.086 246.206,174.333C246.143,174.238 246.115,174.122 246.118,174.006L246.136,173.338L245.661,174.139Z" style="fill:white;fill-opacity:0.25;"/>
    <path d="M245.081,176.45L246.308,186.402L246.291,186.402L223.584,186.485C224.387,184.04 226.174,179.096 226.652,177.888C226.86,177.371 227.12,176.84 227.436,176.288C227.739,175.764 228.038,175.247 228.333,174.741L230.819,174.716C231.68,175.078 232.788,175.353 234.142,175.539C237.711,176.029 241.241,176.207 244.733,176.126C244.915,176.122 245.07,176.267 245.081,176.45Z" style="fill:white;fill-opacity:0.35;"/>
    <path d="M278.39,177.399C278.285,177.058 278.045,176.799 277.669,176.618C277.444,176.51 277.177,176.601 277.064,176.822C275.204,180.477 273.599,184.269 272.268,188.208C272.166,188.51 272.391,188.823 272.711,188.823L274.522,188.82C274.948,186.91 275.507,184.938 276.199,182.905C276.315,182.561 277.55,178.521 277.757,177.751C277.831,177.487 278.042,177.367 278.39,177.399Z" style="fill:white;fill-opacity:0.35;"/>
    <path d="M200.642,186.561L198.322,177.199C198.297,177.1 198.159,177.092 198.111,177.188C198.064,177.282 198.097,177.87 198.213,178.946C198.574,182.302 198.895,184.84 199.177,186.566C199.657,186.564 200.146,186.563 200.642,186.561Z" style="fill:white;fill-opacity:0.35;"/>
    <path d="M146.535,192.705L143.251,179.516C143.247,179.502 143.233,179.491 143.215,179.491L143.075,179.491C143.022,179.491 142.983,179.537 142.99,179.586L144.78,192.955L146.535,192.705Z" style="fill:white;fill-opacity:0.25;"/>
    <path d="M246.308,186.402L246.308,186.404L246.291,186.402C246.296,186.402 246.302,186.402 246.308,186.402Z" style="fill:white;fill-opacity:0.95;"/>
    <path d="M177.506,190.019L169.587,190.008C169.965,190.554 170.088,191.448 169.95,192.689C170.531,192.577 171.156,192.493 171.824,192.448C173.37,192.345 176.372,192.921 178.173,193.783C178.181,193.232 178.187,192.731 178.194,192.287C176.118,191.877 173.347,190.935 171.739,190.465C171.669,190.444 171.625,190.374 171.637,190.3C171.649,190.227 171.715,190.176 171.788,190.181C173.664,190.287 175.568,190.251 177.506,190.019Z" style="fill:white;fill-opacity:0.5;"/>
    <path d="M178.207,191.331L178.194,192.287C176.118,191.877 173.347,190.935 171.739,190.465C171.669,190.444 171.625,190.374 171.637,190.3C171.649,190.227 171.715,190.176 171.788,190.181C173.664,190.287 175.568,190.251 177.506,190.019L178.227,189.973L178.207,191.331Z" style="fill:white;fill-opacity:0.3;"/>
    <path d="M42.377,195.072C44.047,193.774 45.19,192.062 45.805,189.931C47.778,190.701 49.888,191.21 52.131,191.453C54.712,191.734 57.138,191.407 59.448,190.592C59.501,190.573 59.547,190.569 59.585,190.585C59.625,190.601 59.663,190.627 59.701,190.659C59.744,190.915 59.803,191.169 59.881,191.418C60.83,194.495 62.743,197.041 65.619,199.049C63.204,198.989 60.876,198.835 58.632,198.605C58.172,198.558 57.5,198.464 56.618,198.324C55.166,198.094 52.648,197.928 49.058,197.821C46.705,197.752 44.48,196.833 42.377,195.072Z" style="fill:white;fill-opacity:0.75;"/>
    <path d="M157.964,203.969C157.567,202.124 157.506,200.151 157.727,199.003C157.738,198.944 157.751,198.886 157.765,198.828C158.578,195.451 164.01,192.144 163.961,195.223C164.063,195.297 164.2,195.307 164.309,195.247C164.309,195.247 164.709,194.869 165.49,194.389C166.433,193.808 167.93,193.08 169.95,192.689C170.531,192.577 171.156,192.493 171.824,192.448C173.37,192.345 176.372,192.921 178.173,193.783L178.166,194.308C178.136,196.549 178.098,199.52 178.059,202.88C177.297,202.469 175.997,202.471 175.291,202.523C173.888,202.621 172.474,202.66 171.05,202.639C168.87,202.544 166.45,201.401 164.608,200.23C163.536,199.548 162.671,199.112 162.094,200.603C161.507,202.118 161.07,203.711 160.786,205.378C160.754,205.564 160.667,205.736 160.533,205.87L159.214,207.196C158.639,206.362 158.227,205.194 157.964,203.969Z" style="fill:white;fill-opacity:0.25;"/>
    <path d="M146.352,247.401L141.19,196.647C141.165,196.401 140.958,196.211 140.708,196.211C137.115,196.214 133.38,196.035 129.509,195.666C125.94,195.325 122.999,194.649 118.869,193.897C118.391,193.81 117.857,193.625 117.276,193.321C117.184,193.272 117.163,193.151 117.234,193.074C117.292,193.011 117.369,192.966 117.464,192.94L117.993,192.941L144.78,192.955L146.535,192.705L148.426,200.216C148.426,200.216 149.626,224.868 149.703,224.787L149.812,224.671C149.756,227.6 149.59,230.294 150.392,233.286L150.401,247.402C149.028,247.402 147.678,247.402 146.352,247.401Z" style="fill:white;fill-opacity:0.25;"/>
    <path d="M114.927,215.072L114.955,192.934L117.464,192.94C117.369,192.966 117.292,193.011 117.234,193.074C117.163,193.151 117.184,193.272 117.276,193.321C117.857,193.625 118.391,193.81 118.869,193.897C122.999,194.649 125.94,195.325 129.509,195.666C133.38,196.035 137.115,196.214 140.708,196.211C140.958,196.211 141.165,196.401 141.19,196.647L146.352,247.401C142.846,247.401 139.511,247.4 136.384,247.399C136.215,243.478 136.057,239.556 135.916,235.635C135.836,233.42 135.642,231.18 135.336,228.915C135.016,226.549 134.71,224.179 134.418,221.799C136.317,221.099 137.024,219.808 136.538,217.92C135.79,215.015 134.471,212.481 132.586,210.318L131.686,203.324C132.002,202.639 132.366,201.859 132.776,200.986C133.129,200.234 133.352,199.495 133.444,198.774C133.466,198.602 133.338,198.449 133.166,198.433C132.93,198.411 132.688,198.508 132.438,198.721C128.875,201.77 125.427,205.064 122.065,208.592C121.894,208.772 121.707,208.933 121.503,209.073C120.687,209.636 119.579,210.188 118.827,210.796C117.403,211.946 116.102,213.374 114.927,215.072Z" style="fill:white;fill-opacity:0.4;"/>
    <path d="M18.087,208.419C20.274,206.004 22.939,204.442 26.079,203.739C26.276,203.693 26.469,203.623 26.652,203.525C29.947,201.752 33.308,200.103 36.73,198.574C38.291,197.878 40.172,196.71 42.377,195.072C44.48,196.833 46.705,197.752 49.058,197.821C52.648,197.928 55.166,198.094 56.618,198.324C57.5,198.464 58.172,198.558 58.632,198.605C60.876,198.835 63.204,198.989 65.619,199.049C66.066,199.252 66.562,199.492 67.107,199.762C67.609,200.012 68.116,200.223 68.626,200.392C72.525,201.682 75.887,203.852 78.717,206.904C79.596,207.853 80.335,209.256 80.946,210.712C81.745,212.611 82.631,214.316 83.598,215.824C86.196,219.868 88.524,223.69 90.588,227.291C91.235,228.423 91.717,229.601 92.033,230.825C91.917,231.728 91.637,232.387 91.186,232.804C90.547,233.396 87.874,235.706 83.172,239.731C81.882,240.836 80.578,241.817 79.255,242.678C78.974,242.861 78.826,243.188 78.872,243.518L80.317,253.958L82.029,260.625C82.413,261.979 82.838,263.258 83.306,264.468C84.509,267.583 85.827,270.651 87.339,273.635C87.391,273.737 87.42,273.849 87.43,273.962L87.497,274.823C87.131,278.966 84.259,281.923 80.725,283.625C73.696,271.951 68.25,259.826 64.388,247.249C61.945,239.292 59.366,229.759 56.646,218.652C56.382,217.576 55.949,216.781 55.243,216.064C51.336,212.098 46.459,210.042 40.812,209.115C38.611,208.754 37.022,208.539 36.044,208.472C34.599,208.373 32.936,208.269 31.062,208.152C28.639,208.001 25.787,208.032 22.51,208.24C20.418,208.373 18.945,208.433 18.087,208.419Z" style="fill:white;fill-opacity:0.95;"/>
    <path d="M101.467,260.438C101.4,260.47 101.418,260.569 101.492,260.576L102.051,260.625C100.476,260.667 98.939,260.792 97.381,260.727C95.813,260.662 94.241,260.607 92.666,260.562C92.684,260.118 92.413,259.795 91.854,259.595C89.033,258.583 86.319,257.337 83.71,255.857C82.582,255.217 81.449,254.584 80.317,253.958L78.872,243.518C78.826,243.188 78.974,242.861 79.255,242.678C80.578,241.817 81.882,240.836 83.172,239.731C87.874,235.706 90.547,233.396 91.186,232.804C91.637,232.387 91.917,231.728 92.033,230.825L97.3,237.808C97.364,237.889 97.487,237.889 97.547,237.804C101.017,232.906 104.955,228.42 109.365,224.344C109.523,224.197 109.649,224.021 109.741,223.827C111.207,220.624 112.937,217.706 114.927,215.072C116.102,213.374 117.403,211.946 118.827,210.796C119.579,210.188 120.687,209.636 121.503,209.073C121.707,208.933 121.894,208.772 122.065,208.592C125.427,205.064 128.875,201.77 132.438,198.721C132.688,198.508 132.93,198.411 133.166,198.433C133.338,198.449 133.466,198.602 133.444,198.774C133.352,199.495 133.129,200.234 132.776,200.986C132.366,201.859 132.002,202.639 131.686,203.324L129.407,207.308C129.358,207.393 129.386,207.502 129.467,207.554C130.557,208.256 131.601,209.172 132.586,210.318C134.471,212.481 135.79,215.015 136.538,217.92C137.024,219.808 136.317,221.099 134.418,221.799L128.634,223.219C125.321,224.218 122.437,225.833 119.945,228.015C119.816,228.129 119.709,228.268 119.639,228.427L114.864,238.821L109.428,249.886C108.348,252.249 107.181,254.609 105.926,256.964C105.078,258.557 103.092,259.619 101.467,260.438Z" style="fill:white;fill-opacity:0.75;"/>
    <path d="M171.05,202.639C171.117,203.901 171.49,205.255 171.472,206.366C171.447,207.906 171.449,209.042 171.479,209.773C171.483,209.864 171.412,209.938 171.321,209.945L169.942,210.023C169.809,210.03 169.71,210.149 169.724,210.283C169.809,211.053 170.248,211.904 171.036,212.829C169.911,212.762 168.98,212.544 168.237,212.182C168.04,212.086 167.801,212.177 167.724,212.379C167.69,212.466 167.717,212.564 167.804,212.674C168.796,213.917 170.051,214.312 171.591,213.848C172.231,214.724 172.464,215.704 172.295,216.795C172.277,216.911 172.214,217.013 172.122,217.08C170.995,217.91 168.751,217.666 167.53,217.354C166.729,217.149 165.607,216.595 164.545,216.38C162.653,215.244 161.496,213.567 161.071,211.348C160.944,210.677 160.674,210.409 160.132,210.132C158.986,209.552 158.785,208.367 159.214,207.196L160.533,205.87C160.667,205.736 160.754,205.564 160.786,205.378C161.07,203.711 161.507,202.118 162.094,200.603C162.671,199.112 163.536,199.548 164.608,200.23C166.45,201.401 168.87,202.544 171.05,202.639ZM167.388,206.287C167.196,206.3 167.057,206.715 167.081,207.211C167.105,207.708 167.277,208.099 167.471,208.084C167.663,208.071 167.802,207.656 167.778,207.16C167.754,206.663 167.582,206.271 167.388,206.287Z" style="fill:white;fill-opacity:0.7;"/>
    <path d="M167.388,206.287C167.196,206.3 167.057,206.715 167.081,207.211C167.105,207.708 167.277,208.099 167.471,208.084C167.663,208.071 167.802,207.656 167.778,207.16C167.754,206.663 167.582,206.271 167.388,206.287Z" style="fill:white;fill-opacity:0.15;"/>
    <path d="M281.27,213.76C281.161,213.866 281.017,213.925 280.869,213.929C280.366,213.944 280.041,213.688 279.884,213.166C279.851,213.053 279.867,212.93 279.93,212.832C280.22,212.384 280.689,211.517 281.333,210.23C281.737,209.425 281.858,208.535 281.688,207.565C281.664,207.428 281.481,207.392 281.411,207.516C281.287,207.733 281.093,208.141 280.83,208.736C280.321,209.891 278.795,209.2 279.023,208.103C279.217,207.171 279.349,206.422 279.42,205.863C279.439,205.719 279.421,205.571 279.364,205.434C278.727,203.902 278.696,202.392 279.29,200.891C279.357,200.722 279.519,200.609 279.702,200.606C280.992,200.585 282.167,201.106 283.225,202.157C283.274,202.273 283.183,202.498 282.951,202.828C282.891,202.913 282.887,203.025 282.944,203.113L283.144,203.43C283.499,204.615 283.865,205.74 284.234,206.809C284.526,207.649 284.431,208.767 283.953,210.17C283.935,210.223 283.911,210.272 283.875,210.318L282.567,212.09C282.504,212.175 281.727,213.314 281.27,213.76Z" style="fill:white;fill-opacity:0.5;"/>
    <path d="M173.388,216.63C173.085,216.723 172.91,217.041 172.963,217.351C173.162,218.515 173.511,219.467 174.014,220.216C172.681,221.44 171.107,222.241 169.285,222.597C169.12,222.629 168.951,222.636 168.782,222.618C167.534,222.486 166.55,222.083 165.828,221.412C165.632,221.229 165.266,220.691 164.728,219.801C165.301,219.513 165.712,218.912 165.958,217.994C166.275,216.813 165.213,216.83 164.545,216.38C165.607,216.595 166.729,217.149 167.53,217.354C168.751,217.666 170.995,217.91 172.122,217.08C172.214,217.013 172.277,216.911 172.295,216.795C172.464,215.704 172.231,214.724 171.591,213.848C171.968,213.676 172.18,213.448 172.231,213.163C172.25,213.061 172.182,212.966 172.08,212.952L171.036,212.829C170.248,211.904 169.809,211.053 169.724,210.283C169.71,210.149 169.809,210.03 169.942,210.023L171.321,209.945C171.412,209.938 171.483,209.864 171.479,209.773C171.449,209.042 171.447,207.906 171.472,206.366C171.49,205.255 171.117,203.901 171.05,202.639C172.474,202.66 173.888,202.621 175.291,202.523C175.997,202.471 177.297,202.469 178.059,202.88L178.051,203.571L178.015,206.839C177.993,208.951 177.971,211.153 177.952,213.376L177.951,213.422C176.331,215.689 175.098,216.105 173.388,216.63ZM172.546,206.747C172.354,206.76 172.215,207.175 172.239,207.671C172.263,208.168 172.435,208.559 172.629,208.544C172.82,208.531 172.96,208.116 172.936,207.62C172.912,207.123 172.74,206.731 172.546,206.747Z" style="fill:white;fill-opacity:0.65;"/>
    <path d="M172.546,206.747C172.354,206.76 172.215,207.175 172.239,207.671C172.263,208.168 172.435,208.559 172.629,208.544C172.82,208.531 172.96,208.116 172.936,207.62C172.912,207.123 172.74,206.731 172.546,206.747Z" style="fill:white;fill-opacity:0.15;"/>
    <path d="M157.695,204.066L154.081,204.791C154.204,205.132 154.221,205.452 154.133,205.75C153.799,206.872 153.69,208.04 153.806,209.246C154.341,209.179 154.826,209.188 155.259,209.277C155.575,209.343 155.74,209.689 155.596,209.977L154.365,212.407C154.214,212.702 154.425,213.055 154.756,213.061C155.536,213.074 155.973,212.444 156.767,212.284C157.041,212.228 157.245,212.537 157.083,212.765L156.194,214.049C156.384,213.947 156.486,213.898 156.496,213.901C156.721,213.964 156.841,214.203 156.756,214.418C156.257,215.705 155.652,216.82 154.942,217.765C154.685,218.107 154.626,218.676 154.759,219.481C154.784,219.64 154.907,219.759 155.065,219.784C155.519,219.851 155.87,219.844 156.113,219.759C156.222,219.72 156.32,219.654 156.398,219.562C156.545,219.39 157.407,218.293 158.982,216.275C159.96,215.026 160.192,213.585 159.675,211.957C158.912,209.555 158.275,207.118 157.766,204.65C157.699,204.435 157.678,204.242 157.695,204.066Z" style="fill:white;fill-opacity:0.5;"/>
    <path d="M105.332,206.215C105.131,206.211 104.983,206.299 104.881,206.478C104.829,206.573 104.804,206.682 104.815,206.791C104.888,207.632 104.794,208.423 104.523,209.172C104.417,209.464 104.389,209.78 104.445,210.086L104.948,212.836C105.019,213.205 104.779,213.564 104.41,213.644C103.795,213.778 103.32,213.665 102.993,213.303C102.666,212.945 102.589,212.34 102.325,211.992C102.272,211.921 102.167,211.95 102.149,212.034C101.921,213.272 101.865,214.109 102.635,215.262C103.151,216.032 103.626,216.883 104.059,217.808C104.238,218.184 104.045,218.634 103.651,218.768C103.426,218.841 103.116,218.855 102.722,218.81C102.599,218.796 102.487,218.736 102.41,218.637C101.499,217.516 100.729,216.577 100.103,215.814C99.642,215.251 99.354,214.805 99.238,214.471C98.932,213.585 98.64,212.811 98.858,211.985C99.435,209.787 100.05,207.611 100.701,205.455L105.332,206.215Z" style="fill:white;fill-opacity:0.5;"/>
    <path d="M77.251,288.589C71.657,291.089 65.616,292.834 59.135,293.818C54.856,294.469 51.29,294.845 48.442,294.954C43.963,295.123 38.505,295.105 33.681,294.683C25.914,294.004 18.157,292.58 10.407,290.414C9.577,290.182 8.941,289.63 8.582,288.755C7.598,286.339 6.909,284.556 6.515,283.407C3.586,274.894 1.648,266.103 0.695,257.038C0.375,253.969 0.031,250.656 0.013,247.544C-0.011,242.91 -0.001,240.069 0.038,239.021C0.179,235.357 0.622,231.64 1.367,227.871C1.919,225.076 2.745,222.453 3.842,220.002C5.994,215.202 9.486,211.686 14.317,209.46C15.53,208.901 16.789,208.556 18.087,208.419C18.945,208.433 20.418,208.373 22.51,208.24C25.787,208.032 28.639,208.001 31.062,208.152C32.936,208.269 34.599,208.373 36.044,208.472C37.022,208.539 38.611,208.754 40.812,209.115C46.459,210.042 51.336,212.098 55.243,216.064C55.949,216.781 56.382,217.576 56.646,218.652C59.366,229.759 61.945,239.292 64.388,247.249C68.25,259.826 73.696,271.951 80.725,283.625L81.864,285.4C81.942,285.523 81.906,285.685 81.783,285.762L77.251,288.589Z" style="fill:white;fill-opacity:0.25;"/>
    <path d="M149.812,224.671C149.756,227.6 149.59,230.294 150.392,233.286C151.109,236.532 154.51,237.994 157.221,235.751C158.096,235.027 158.659,234.464 158.912,234.063C159.376,233.328 159.921,232.551 160.543,231.732C159.527,231.437 158.837,231.125 158.469,230.797C157.506,229.938 156.48,229.168 155.368,228.515C155.301,228.475 155.252,228.416 155.223,228.342C155.178,228.226 155.16,228.1 155.178,227.963L155.002,228.089C154.882,228.177 154.71,228.117 154.671,227.973C153.687,224.246 153.198,219.953 154.147,216.334C154.225,216.035 154.418,215.779 154.682,215.617C155.269,215.258 155.772,214.734 156.194,214.049L157.083,212.765C157.245,212.537 157.041,212.228 156.767,212.284C155.973,212.444 155.536,213.074 154.756,213.061C154.425,213.055 154.214,212.702 154.365,212.407L155.596,209.977C155.74,209.689 155.575,209.343 155.259,209.277C154.826,209.188 154.341,209.179 153.806,209.246C152.516,209.46 151.725,209.675 151.433,209.893C150.561,210.543 150.174,211.408 150.276,212.484C150.385,213.63 150.483,214.58 150.571,215.336C150.631,215.839 150.585,216.795 150.431,218.205C150.192,220.36 149.984,222.516 149.812,224.671Z" style="fill:white;fill-opacity:0.65;"/>
    <path d="M171.036,212.829C169.911,212.762 168.98,212.544 168.237,212.182C168.04,212.086 167.801,212.177 167.724,212.379C167.69,212.466 167.717,212.564 167.804,212.674C168.796,213.917 170.051,214.312 171.591,213.848C171.968,213.676 172.18,213.448 172.231,213.163C172.25,213.061 172.182,212.966 172.08,212.952L171.036,212.829Z" style="fill:white;fill-opacity:0.15;"/>
    <path d="M177.905,219.573C176.812,219.846 174.985,220.289 174.014,220.216C173.511,219.467 173.162,218.515 172.963,217.351C172.91,217.041 173.09,216.736 173.388,216.63C175.098,216.105 176.331,215.689 177.951,213.422C177.94,214.754 177.929,216.095 177.919,217.427L177.905,219.573Z" style="fill:white;fill-opacity:0.25;"/>
    <path d="M177.903,219.926C177.879,223.735 177.866,227.408 177.873,230.588C177.877,232.622 177.888,234.454 177.91,235.992L176.882,244.279C175.14,246.873 162.62,246.578 161.103,244.306C160.642,240.083 160.456,235.892 160.543,231.732C159.527,231.437 158.837,231.125 158.469,230.797C157.506,229.938 156.48,229.168 155.368,228.515C155.301,228.475 155.252,228.416 155.223,228.342C155.178,228.226 155.16,228.1 155.178,227.963C156.074,226.408 156.911,224.808 157.685,223.159C158.501,221.422 159.689,220.037 161.665,219.998C162.569,219.981 163.592,219.917 164.728,219.801C165.266,220.691 165.632,221.229 165.828,221.412C166.55,222.083 167.534,222.486 168.782,222.618C168.951,222.636 169.12,222.629 169.285,222.597C171.107,222.241 172.681,221.44 174.014,220.216C174.985,220.289 176.812,219.846 177.905,219.573L177.903,219.926Z" style="fill:white;fill-opacity:0.85;"/>
    <path d="M128.634,223.219C125.321,224.218 122.437,225.833 119.945,228.015C119.816,228.129 119.709,228.268 119.639,228.427L114.864,238.821L114.978,247.394C118.208,247.395 122.734,247.396 128.254,247.397C128.408,240.817 128.543,234.261 128.658,227.73L128.75,225.877C128.795,224.974 128.757,224.088 128.634,223.219Z" style="fill:white;fill-opacity:0.4;"/>
    <path d="M160.485,247.404C160.617,246.313 160.823,245.28 161.103,244.306C162.62,246.578 175.14,246.873 176.882,244.279L177.91,235.992C177.95,238.903 178.026,240.762 178.149,240.941L177.224,244.629C177.172,244.84 177.091,245.048 176.989,245.241L176.015,247.045C175.942,247.177 175.854,247.297 175.747,247.407C170.508,247.406 165.397,247.405 160.485,247.404Z" style="fill:white;fill-opacity:0.25;"/>
    <path d="M182.323,242.931C180.628,242.885 179.236,242.224 178.149,240.941L177.224,244.629C177.172,244.84 177.091,245.048 176.989,245.241L176.015,247.045C175.942,247.177 175.854,247.297 175.747,247.407C177.149,247.408 178.561,247.408 179.98,247.408C180.795,245.927 181.577,244.435 182.323,242.931Z" style="fill:white;fill-opacity:0.6;"/>
    <path d="M186.764,242.885L188.128,245.811C188.163,245.888 188.181,245.976 188.174,246.064L188.063,247.41L194.389,247.411C193.904,247.064 193.376,246.815 192.805,246.665C192.696,246.637 192.601,246.57 192.538,246.479C192.153,245.929 191.937,245.586 191.894,245.442C191.503,244.138 190.962,243.297 190.298,242.91L186.764,242.885Z" style="fill:white;fill-opacity:0.6;"/>
    <path d="M190.311,242.918L190.288,242.919L186.754,242.895L182.313,242.94C180.618,242.895 179.226,242.233 178.139,240.95C178.016,240.771 177.94,238.912 177.9,236.001C177.879,234.463 177.867,232.631 177.863,230.597C177.857,227.417 177.869,223.744 177.893,219.935L177.895,219.582L177.91,217.437L177.942,213.431L177.942,213.386C177.961,211.162 177.983,208.96 178.005,206.848L178.041,203.58L178.049,202.889C178.088,199.529 178.126,196.559 178.156,194.317L178.163,193.792L178.184,192.297L178.197,191.34L178.217,189.982C178.807,188.516 179.87,187.54 181.399,187.053C182.38,186.741 183.474,186.589 184.687,186.6C185.945,186.609 191.542,186.597 199.167,186.575L200.632,186.57L206.217,186.553L208.98,186.544L223.574,186.494L246.281,186.411L246.298,186.413L246.298,186.411L250.502,186.395L250.892,186.393L256.396,186.372L258.198,186.365L260.261,186.357C260.384,186.364 260.504,186.395 260.616,186.448C262.998,187.587 264.146,189.571 264.094,192.345C264.063,193.975 264.177,211.031 264.254,223.217L264.269,225.588C264.207,228.501 264.303,230.811 264.317,234.258L264.319,235.096C264.322,239.044 264.421,241.839 260.771,243.415C260.616,243.482 260.451,243.524 260.286,243.542C258.792,243.697 257.62,243.741 256.773,243.682C255.796,243.614 255.085,243.591 254.646,243.605L251.317,243.566L248.066,243.528L247.794,243.524L239.372,243.426L233.583,243.36C233.456,243.35 233.329,243.348 233.201,243.355L232.134,243.343C224.073,243.251 215.121,243.15 207.571,243.07L207.07,243.064L200.088,242.992L198.297,242.974C196.07,242.993 194.207,242.984 192.84,242.926C191.381,242.915 190.485,242.912 190.311,242.918ZM215.982,190.724L182.66,190.724C182.076,190.724 181.603,191.197 181.603,191.781L181.603,199.021C181.603,199.078 181.607,199.133 181.616,199.188C181.438,210.179 181.343,230.572 181.301,235.137C181.297,235.618 181.293,235.924 181.29,236.024C181.287,236.135 181.307,236.259 181.353,236.397C181.414,237.953 182.697,239.198 184.268,239.198L257.228,239.198C257.565,239.198 257.889,239.14 258.191,239.035C258.859,238.801 259.416,238.332 259.763,237.726C259.766,237.666 259.768,237.602 259.769,237.536C259.777,236.73 259.764,233.243 259.742,228.551L259.733,226.702C259.668,213.781 259.55,194.008 259.588,193.285L259.589,193.27C259.611,193.081 259.594,192.742 259.537,192.253L259.537,191.781C259.537,191.398 259.333,191.062 259.027,190.877C258.794,190.645 258.493,190.495 258.176,190.489C256.999,190.464 249.842,190.501 240.38,190.566C234.198,190.608 227.032,190.663 219.908,190.724C218.622,190.734 217.308,190.733 215.982,190.724Z" style="fill:white;fill-opacity:0.95;"/>
    <path d="M233.211,243.346C233.338,243.339 233.466,243.34 233.592,243.351C233.465,243.349 233.338,243.348 233.211,243.346Z" style="fill:white;fill-opacity:0.95;"/>
    <path d="M239.381,243.417L239.528,247.418L248.107,247.419L247.804,243.515C245.431,243.487 242.56,243.454 239.381,243.417Z" style="fill:white;fill-opacity:0.5;"/>
    <path d="M207.581,243.061C215.131,243.141 224.083,243.242 232.143,243.334C232.283,244.673 232.307,246.447 232.245,247.417L218.264,247.415L208.167,244.788C207.328,244.658 207.107,243.637 207.08,243.055L207.581,243.061Z" style="fill:white;fill-opacity:0.35;"/>
    <path d="M248.075,243.518L251.327,243.556L250.798,247.42L248.107,247.419L247.804,243.515L248.075,243.518Z" style="fill:white;fill-opacity:0.35;"/>
    <path d="M205.917,247.413L218.264,247.415L208.167,244.788C208.079,246.052 207.203,246.853 205.917,247.413Z" style="fill:white;fill-opacity:0.75;"/>
    <path d="M288.24,247.42C294.552,247.419 298.335,247.417 298.623,247.414C299.105,247.41 299.467,247.565 299.713,247.882C299.78,247.97 299.819,248.075 299.829,248.184C300.058,251.426 300.057,257.084 299.825,260.175C299.818,260.277 299.748,260.365 299.646,260.389C299.009,260.554 298.492,260.639 298.095,260.635C295.335,260.625 292.578,260.621 289.818,260.632L102.051,260.625L101.492,260.576C101.418,260.569 101.4,260.47 101.467,260.438C103.092,259.619 105.078,258.557 105.926,256.964C107.181,254.609 108.348,252.249 109.428,249.886L110.653,247.393L114.978,247.394L128.254,247.397L136.384,247.399L146.352,247.401L150.401,247.402L160.485,247.404L175.747,247.407L179.98,247.408L188.063,247.41L194.389,247.411L205.917,247.413L218.264,247.415L232.245,247.417L239.528,247.418L248.107,247.419L250.798,247.42L254.766,247.42C268.601,247.421 280.381,247.422 288.24,247.42ZM80.317,253.958C81.449,254.584 82.582,255.217 83.71,255.857C86.319,257.337 89.033,258.583 91.854,259.595C92.413,259.795 92.684,260.118 92.666,260.562L82.029,260.625L80.317,253.958Z" style="fill:white;fill-opacity:0.85;"/>
    <path d="M289.818,260.632C289.941,260.906 290.001,261.089 290.001,261.177C290.011,274.528 290.011,282.373 289.997,284.718C289.997,284.901 289.86,285.056 289.677,285.08C287.55,285.365 285.697,285.506 284.118,285.502C222.457,285.456 160.783,285.432 99.09,285.421C99.217,284.082 98.854,282.978 98,282.109C96.983,281.073 96.066,280.263 95.247,279.679C92.775,277.918 90.194,276.3 87.497,274.823L87.43,273.962C87.42,273.849 87.391,273.737 87.339,273.635C85.827,270.651 84.509,267.583 83.306,264.468C82.838,263.258 82.413,261.979 82.029,260.625L92.666,260.562C94.241,260.607 95.813,260.662 97.381,260.727C98.939,260.792 100.476,260.667 102.051,260.625L289.818,260.632Z" style="fill:white;fill-opacity:0.35;"/>
    <path d="M99.09,285.421C98.703,285.731 98.208,286.153 97.603,286.691C97.096,287.137 96.035,287.626 94.421,288.157C91.966,288.966 89.445,289.423 86.857,289.525C83.64,289.655 80.437,289.345 77.251,288.589L81.783,285.762C81.906,285.685 81.942,285.523 81.864,285.4L80.725,283.625C84.259,281.923 87.131,278.966 87.497,274.823C90.194,276.3 92.775,277.918 95.247,279.679C96.066,280.263 96.983,281.073 98,282.109C98.854,282.978 99.217,284.082 99.09,285.421Z" style="fill:white;fill-opacity:0.5;"/>
    <path d="M216.311,236.131C213.719,234.436 212.474,232.411 211.764,229.524C211.397,228.028 211.274,226.671 211.24,225.273C211.214,224.183 211.242,223.067 211.251,221.841C211.262,220.438 211.983,214.204 212.084,213.384C212.594,209.26 212.406,205.071 211.202,201.169C211.085,200.791 210.957,200.425 210.817,200.069C209.42,196.518 206.86,194.086 203.143,192.779C203.035,192.741 202.927,192.699 202.818,192.654C201.704,192.189 200.39,191.308 199.519,190.714L215.992,190.714C217.318,190.724 218.632,190.725 219.918,190.714C227.042,190.654 234.208,190.599 240.389,190.557L240.38,190.714C240.255,192.838 240.091,194.428 239.887,195.483C239.562,197.171 239.269,198.7 239.008,200.069C238.451,203.002 238.043,205.205 237.785,206.679C237.563,207.941 237.546,209.112 237.327,210.441C237.264,210.824 237.256,211.218 237.303,211.601C237.503,213.241 237.651,214.193 237.735,214.46C238.361,216.43 239.429,218.066 240.932,219.369C242.825,221.01 245.02,222.415 247.521,223.592C248.753,224.172 250,224.732 251.262,225.273C254.019,226.455 256.848,227.544 259.751,228.542C259.774,233.233 259.787,236.721 259.779,237.527C259.778,237.593 259.776,237.656 259.772,237.717C259.426,238.323 258.868,238.792 258.201,239.026C257.899,239.131 257.575,239.189 257.238,239.189L222.549,239.189C221.97,238.938 221.329,238.652 220.682,238.353L220.628,238.329C220.34,238.196 220.05,238.06 219.765,237.925C218.294,237.228 216.923,236.531 216.311,236.131Z" style="fill:white;fill-opacity:0.75;"/>
    <path d="M259.742,226.693L259.751,228.542C256.848,227.544 254.019,226.455 251.262,225.273C250,224.732 248.753,224.172 247.521,223.592C245.02,222.415 242.825,221.01 240.932,219.369C239.429,218.066 238.361,216.43 237.735,214.46C237.651,214.193 237.503,213.241 237.303,211.601C237.256,211.218 237.264,210.824 237.327,210.441C237.546,209.112 237.563,207.941 237.785,206.679C238.043,205.205 238.451,203.002 239.008,200.069C239.269,198.7 239.562,197.171 239.887,195.483C240.091,194.428 240.255,192.838 240.38,190.714L240.389,190.557C249.852,190.492 257.009,190.455 258.186,190.479C258.503,190.486 258.804,190.635 259.037,190.867C259.27,191.099 259.436,191.413 259.483,191.752C259.508,191.93 259.529,192.094 259.547,192.243C259.603,192.733 259.621,193.072 259.599,193.261L259.598,193.276C259.56,193.999 259.678,213.772 259.742,226.693Z" style="fill:white;fill-opacity:0.6;"/>
    <path d="M199.519,190.714L182.67,190.714C182.086,190.714 181.613,191.188 181.613,191.772L181.613,199.012C181.613,199.069 181.617,199.124 181.626,199.178C181.448,210.17 181.353,230.563 181.311,235.128C181.313,235.414 181.31,235.71 181.3,236.015C181.296,236.126 181.317,236.25 181.362,236.387C181.424,237.944 182.707,239.189 184.278,239.189L222.549,239.189C221.97,238.938 221.329,238.652 220.682,238.353L220.628,238.329C220.34,238.196 220.05,238.06 219.765,237.925C218.294,237.228 216.923,236.531 216.311,236.131C213.719,234.436 212.474,232.411 211.764,229.524C211.397,228.028 211.274,226.671 211.24,225.273C211.214,224.183 211.242,223.067 211.251,221.841C211.262,220.438 211.983,214.204 212.084,213.384C212.594,209.26 212.406,205.071 211.202,201.169C211.085,200.791 210.957,200.425 210.817,200.069C209.42,196.518 206.86,194.086 203.143,192.779C203.035,192.741 202.927,192.699 202.818,192.654C201.704,192.189 200.39,191.308 199.519,190.714Z" style="fill:white;fill-opacity:0.6;"/>
    <path d="M207.08,243.065C207.109,243.647 207.333,244.659 208.167,244.788C208.079,246.052 207.203,246.853 205.917,247.413L194.389,247.411C193.904,247.064 193.376,246.815 192.805,246.665C192.696,246.637 192.601,246.57 192.538,246.479C192.153,245.929 191.937,245.586 191.894,245.442C191.505,244.147 190.97,243.308 190.311,242.918C190.485,242.912 191.381,242.915 192.84,242.926C194.207,242.984 196.07,242.993 198.297,242.974L200.088,242.992L207.07,243.064L207.08,243.065Z" style="fill:white;fill-opacity:0.65;"/>
</svg>
