<?xml version="1.0" encoding="UTF-8" standalone="no"?>
<!DOCTYPE svg PUBLIC "-//W3C//DTD SVG 1.1//EN" "http://www.w3.org/Graphics/SVG/1.1/DTD/svg11.dtd">
<svg width="100%" height="100%" viewBox="0 0 300 300" version="1.1" xmlns="http://www.w3.org/2000/svg" xmlns:xlink="http://www.w3.org/1999/xlink" xml:space="preserve" xmlns:serif="http://www.serif.com/" style="fill-rule:evenodd;clip-rule:evenodd;stroke-linejoin:round;stroke-miterlimit:2;">
    <path d="M66.136,203.895C65.962,204.104 65.783,204.309 65.6,204.51C58.001,212.841 49.653,213.939 41.827,226.075C34,238.211 39.884,235.327 29.053,230.701C25.954,229.377 23.062,227.335 20.51,225.087C26.555,221.655 34.647,214.885 53.919,208.067C58.559,206.426 62.6,205.049 66.136,203.895Z" style="fill:white;fill-opacity:0.5;"/>
    <path d="M20.51,225.087C14.142,219.478 9.885,212.584 9.777,212.348C7.358,207.074 2.277,204.51 9.777,202.109C17.276,199.708 21.597,194.562 25.667,179.522C28.871,167.685 33.805,155.85 38.309,146.656L62.325,152.181C65.876,148.361 71.329,147.735 77.999,149.083C85.377,150.575 93.457,151.433 93.457,151.433C95.541,151.544 97.641,151.551 99.606,151.407C101.43,151.273 103.339,151.211 105.185,151.201C103.864,152.68 105.161,154.479 106.71,154.91C108.61,155.44 113.171,155.119 117.4,153.134C118.056,154.349 118.141,156.475 116.735,159.845C116.177,161.18 115.136,162.616 113.804,164.022C109.951,168.088 103.664,171.902 99.606,172.291C99.4,172.311 99.194,172.333 98.988,172.356C93.717,172.942 88.214,174.587 80.61,177.583C72.9,180.621 73.18,195.439 66.136,203.895C62.6,205.049 58.559,206.426 53.919,208.067C34.647,214.885 26.555,221.655 20.51,225.087Z" style="fill:white;fill-opacity:0.75;"/>
    <path d="M106.909,150.092C107.041,150.039 107.181,149.987 107.327,149.938C107.181,149.987 107.041,150.039 106.909,150.092L88.118,145.652C83.989,142.697 83.296,142.943 80.61,142.997C80.196,143.005 79.557,143.167 78.761,143.441L45.371,135.55C52.062,129.946 63.587,128.947 72.742,124.369C78.58,121.45 83.468,122.103 86.792,123.379C89.788,124.529 91.511,126.184 91.511,126.184C91.511,126.184 111.53,139.814 114.043,140.878C113.755,141.623 113.77,142.739 114.868,144.307C116.342,146.412 119.033,147.626 121.653,148.424C121.624,149.396 120.611,149.083 120.611,149.083C120.325,150.296 117.89,152.53 117.89,152.53L117.876,152.524C117.831,152.576 117.791,152.619 117.755,152.656L117.108,152.503C116.779,152.263 116.287,152.052 115.415,151.861C114.842,151.736 111.254,151.095 111.064,151.074L106.909,150.092Z" style="fill:white;fill-opacity:0.75;"/>
    <path d="M117.108,152.503L116.884,152.45C117.078,152.634 117.253,152.861 117.4,153.134C113.171,155.119 108.61,155.44 106.71,154.91C105.161,154.479 103.864,152.68 105.185,151.201C107.989,151.186 110.651,151.292 112.66,151.452L111.064,151.074C111.254,151.095 114.842,151.736 115.415,151.861C116.287,152.052 116.779,152.263 117.108,152.503Z" style="fill:white;fill-opacity:0.25;"/>
    <path d="M114.043,140.878C114.094,140.9 114.138,140.916 114.174,140.927C115.997,141.483 121.372,146.596 121.621,148.034C121.647,148.183 121.657,148.312 121.653,148.424C119.033,147.626 116.342,146.412 114.868,144.307C113.77,142.739 113.755,141.623 114.043,140.878Z" style="fill:white;fill-opacity:0.36;"/>
    <path d="M117.876,152.524L117.89,152.53C117.89,152.53 120.325,150.296 120.611,149.083C120.611,149.083 121.87,149.472 121.621,148.034C121.372,146.596 115.997,141.483 114.174,140.927C112.35,140.372 91.511,126.184 91.511,126.184C91.511,126.184 89.788,124.529 86.792,123.379C81.34,98.817 76.488,72.359 73.029,44.927C72.926,44.112 73.114,43.326 73.187,42.59C73.187,42.59 221.452,26.29 245.15,16.763C245.15,16.763 254.01,13.206 252.994,23.898C251.978,34.59 299.67,242.183 299.67,242.183C299.67,242.183 301.311,244.873 297.273,245.33C293.234,245.787 244.671,256.03 214.123,263.659C201.879,266.716 189.518,268.622 178.505,269.914C163.811,258.562 145.923,241.491 125.219,215.76C123.503,213.627 111.924,199.237 103.625,188.659C102.086,183.411 100.536,177.971 98.988,172.356C99.194,172.333 99.4,172.311 99.606,172.291C103.664,171.902 109.951,168.088 113.804,164.022L123.61,166.278L134.104,164.893L136.151,180.329C136.359,181.905 137.808,183.014 139.384,182.805L178.25,177.651C179.825,177.443 180.934,175.994 180.725,174.418L175.928,138.238C175.719,136.662 174.27,135.553 172.695,135.762L133.829,140.915C132.253,141.124 131.144,142.573 131.353,144.148L133.458,160.023L125.488,154.483L117.755,152.656C117.791,152.619 117.831,152.576 117.876,152.524ZM254.064,125.005C253.855,123.43 252.407,122.32 250.831,122.529L211.965,127.683C210.39,127.892 209.281,129.34 209.489,130.916L214.287,167.097C214.496,168.672 215.945,169.781 217.52,169.573L256.386,164.419C257.962,164.21 259.071,162.761 258.862,161.186L254.064,125.005ZM213.928,88.076C209.117,85.671 207.148,91.301 210.228,93.807L218.537,98.869C218.537,98.869 213.455,105.157 213.445,107.349C210.228,114.901 216.961,116.144 220.07,110.851C220.07,110.851 224.567,103.195 224.451,102.942C224.336,102.689 230.793,107.349 230.793,107.349C237.334,113.434 243.711,107.909 235.905,101.854L228.779,96.625L234.176,89.766C237.176,85.953 232.775,81.041 228.197,85.953C228.197,85.953 222.764,92.576 222.725,92.277L213.928,88.076ZM138.228,117.542L133.991,110.369C132.872,106.601 126.633,108.68 127.641,113.182C130.455,119.995 133.41,123.127 136.381,125.824C136.545,127.208 141.412,126.74 143.245,124.09L158.196,102.473C161.294,98.435 157.39,90.85 151.938,97.957C149.543,100.128 138.228,117.542 138.228,117.542Z" style="fill:white;fill-opacity:0.95;"/>
    <path d="M178.505,269.914C162.039,271.845 148.587,272.401 143.047,273.376C133.802,275.003 134.315,274.016 134.315,274.016C134.315,274.016 132.238,272.989 132.074,271.999C131.985,271.454 118.338,238.829 103.625,188.659C111.924,199.237 123.503,213.627 125.219,215.76C145.923,241.491 163.811,258.562 178.505,269.914Z" style="fill:white;fill-opacity:0.75;"/>
    <path d="M133.458,160.023L131.353,144.148C131.144,142.573 132.253,141.124 133.829,140.915L172.695,135.762C174.27,135.553 175.719,136.662 175.928,138.238L180.725,174.418C180.934,175.994 179.825,177.443 178.25,177.651L139.384,182.805C137.808,183.014 136.359,181.905 136.151,180.329L134.104,164.893L136.349,164.597C138.522,164.31 138.919,163.819 136.968,162.464L133.458,160.023ZM162.214,161.478L160.665,163.457C160.216,164.032 159.385,164.133 158.811,163.684C158.237,163.235 158.135,162.404 158.584,161.83L160.133,159.85C160.582,159.276 161.413,159.174 161.987,159.623C162.561,160.073 162.663,160.903 162.214,161.478ZM145.586,165.742L143.428,164.455C142.802,164.082 142.597,163.27 142.97,162.644C143.343,162.018 144.155,161.813 144.781,162.186L146.94,163.474C147.566,163.847 147.771,164.658 147.398,165.285C147.024,165.911 146.213,166.116 145.586,165.742ZM166.403,155.61L164.855,157.589C164.406,158.164 163.575,158.265 163.001,157.816C162.427,157.367 162.325,156.536 162.774,155.962L164.323,153.982C164.772,153.408 165.603,153.306 166.177,153.755C166.751,154.205 166.853,155.035 166.403,155.61ZM170.172,150.053L168.623,152.032C168.174,152.607 167.343,152.708 166.769,152.259C166.195,151.81 166.093,150.979 166.542,150.405L168.091,148.425C168.54,147.851 169.371,147.749 169.945,148.198C170.519,148.648 170.621,149.478 170.172,150.053ZM151.273,169.477L149.115,168.189C148.489,167.816 148.283,167.005 148.657,166.378C149.03,165.752 149.842,165.547 150.468,165.921L152.626,167.208C153.253,167.581 153.458,168.393 153.084,169.019C152.711,169.645 151.899,169.85 151.273,169.477ZM158.024,167.523L156.475,169.502C156.026,170.077 155.195,170.178 154.621,169.729C154.047,169.28 153.945,168.449 154.394,167.875L155.943,165.895C156.392,165.321 157.223,165.219 157.797,165.668C158.371,166.118 158.473,166.948 158.024,167.523Z" style="fill:white;fill-opacity:0.5;"/>
    <path d="M254.064,125.005L258.862,161.186C259.071,162.761 257.962,164.21 256.386,164.419L217.52,169.573C215.945,169.781 214.496,168.672 214.287,167.097L209.489,130.916C209.281,129.34 210.39,127.892 211.965,127.683L250.831,122.529C252.407,122.32 253.855,123.43 254.064,125.005Z" style="fill:white;fill-opacity:0.5;"/>
    <path d="M62.325,152.181L2.915,138.515C-1.519,135.767 -0.743,131.432 4.212,125.824L112.66,151.452C109.328,151.186 104.202,151.07 99.606,151.407C97.641,151.551 95.541,151.544 93.457,151.433C93.457,151.433 85.377,150.575 77.999,149.083C71.329,147.735 65.876,148.361 62.325,152.181Z" style="fill:white;fill-opacity:0.15;"/>
    <path d="M136.968,162.464C138.919,163.819 138.522,164.31 136.349,164.597L123.61,166.278L113.804,164.022C115.136,162.616 116.177,161.18 116.735,159.845C118.457,155.718 117.942,153.457 116.884,152.45L125.488,154.483L136.968,162.464Z" style="fill:white;fill-opacity:0.15;"/>
    <path d="M138.228,117.542C138.228,117.542 149.543,100.128 151.938,97.957C157.39,90.85 161.294,98.435 158.196,102.473L143.245,124.09C141.412,126.74 136.545,127.208 136.381,125.824C133.41,123.127 130.455,119.995 127.641,113.182C126.633,108.68 132.872,106.601 133.991,110.369L138.228,117.542Z" style="fill:white;fill-opacity:0.25;"/>
    <path d="M213.928,88.076C209.117,85.671 207.148,91.301 210.228,93.807L218.537,98.869C218.537,98.869 213.455,105.157 213.445,107.349C210.228,114.901 216.961,116.144 220.07,110.851C220.07,110.851 224.567,103.195 224.451,102.942C224.336,102.689 230.793,107.349 230.793,107.349C237.334,113.434 243.711,107.909 235.905,101.854L228.779,96.625L234.176,89.766C237.176,85.953 232.775,81.041 228.197,85.953C228.197,85.953 222.764,92.576 222.725,92.277L213.928,88.076Z" style="fill:white;fill-opacity:0.25;"/>
    <path d="M170.172,150.053L168.623,152.032C168.174,152.607 167.343,152.708 166.769,152.259C166.195,151.81 166.093,150.979 166.542,150.405L168.091,148.425C168.54,147.851 169.371,147.749 169.945,148.198C170.519,148.648 170.621,149.478 170.172,150.053Z" style="fill:white;"/>
    <path d="M166.403,155.61L164.855,157.589C164.406,158.164 163.575,158.265 163.001,157.816C162.427,157.367 162.325,156.536 162.774,155.962L164.323,153.982C164.772,153.408 165.603,153.306 166.177,153.755C166.751,154.205 166.853,155.035 166.403,155.61Z" style="fill:white;"/>
    <path d="M162.214,161.478L160.665,163.457C160.216,164.032 159.385,164.133 158.811,163.684C158.237,163.235 158.135,162.404 158.584,161.83L160.133,159.85C160.582,159.276 161.413,159.174 161.987,159.623C162.561,160.073 162.663,160.903 162.214,161.478Z" style="fill:white;"/>
    <path d="M158.024,167.523L156.475,169.502C156.026,170.077 155.195,170.178 154.621,169.729C154.047,169.28 153.945,168.449 154.394,167.875L155.943,165.895C156.392,165.321 157.223,165.219 157.797,165.668C158.371,166.118 158.473,166.948 158.024,167.523Z" style="fill:white;"/>
    <path d="M151.273,169.477L149.115,168.189C148.489,167.816 148.283,167.005 148.657,166.378C149.03,165.752 149.842,165.547 150.468,165.921L152.626,167.208C153.253,167.581 153.458,168.393 153.084,169.019C152.711,169.645 151.899,169.85 151.273,169.477Z" style="fill:white;"/>
    <path d="M145.586,165.742L143.428,164.455C142.802,164.082 142.597,163.27 142.97,162.644C143.343,162.018 144.155,161.813 144.781,162.186L146.94,163.474C147.566,163.847 147.771,164.658 147.398,165.285C147.024,165.911 146.213,166.116 145.586,165.742Z" style="fill:white;"/>
</svg>
