<?xml version="1.0" encoding="UTF-8" standalone="no"?>
<!DOCTYPE svg PUBLIC "-//W3C//DTD SVG 1.1//EN" "http://www.w3.org/Graphics/SVG/1.1/DTD/svg11.dtd">
<svg width="100%" height="100%" viewBox="0 0 300 300" version="1.1" xmlns="http://www.w3.org/2000/svg" xmlns:xlink="http://www.w3.org/1999/xlink" xml:space="preserve" xmlns:serif="http://www.serif.com/" style="fill-rule:evenodd;clip-rule:evenodd;stroke-linejoin:round;stroke-miterlimit:2;">
    <path d="M176.724,64.78C176.784,64.996 176.679,65.223 176.473,65.314C175.243,65.859 171.759,67.59 170.541,67.912C170.436,67.939 170.36,68.027 170.346,68.131L170.115,75.153C170.164,75.257 170.126,75.383 170.028,75.446C169.305,75.91 164.996,76.78 162.968,77.035C162.86,77.048 162.758,77.104 162.689,77.195C161.963,78.146 160.388,83.996 160.388,83.996C160.217,84.381 159.812,84.6 159.397,84.541L152.738,83.602C152.644,83.588 152.55,83.633 152.501,83.714L148.702,89.726C146.297,88.958 143.942,88.004 141.66,86.818C141.481,86.725 141.266,86.751 141.116,86.88L135.613,91.541C135.515,91.625 135.372,91.625 135.274,91.541C133.915,90.373 130.572,87.471 130.184,86.873C130.084,86.719 129.891,86.653 129.72,86.713L122.779,89.076C122.667,89.115 122.541,89.077 122.468,88.979C120.401,86.208 118.523,83.466 118.446,83.27C118.397,83.148 118.275,83.072 118.145,83.085C116.527,83.244 114.483,83.439 112.018,83.71C111.801,83.734 111.608,83.716 111.439,83.656C111.111,83.539 110.875,83.265 110.73,82.834C110.225,81.346 109.17,78.264 108.857,77.349L108.768,77.087C108.792,76.958 108.607,76.839 108.474,76.826C106.275,76.599 103.995,76.253 101.45,75.802C100.797,75.687 100.522,75.317 100.626,74.692C100.795,73.666 100.526,68.906 100.629,68.379C100.653,68.257 100.587,68.135 100.472,68.086L97.913,66.983L93.318,65.063L95.05,58.094C95.074,58.006 95.12,57.93 95.189,57.87L95.266,57.807C95.364,57.724 95.379,57.576 95.301,57.472C94.237,56.061 92.862,54.965 90.836,53.153C90.395,52.759 90.155,52.375 90.144,51.994C90.144,51.984 90.148,51.977 90.151,51.966L94.149,45.964C94.219,45.856 94.212,45.717 94.128,45.619L90.274,39.579C90.218,39.456 90.249,39.313 90.35,39.226L95.207,35.11C95.476,34.879 95.605,34.523 95.542,34.174C95.151,32.019 94.543,29.861 93.72,27.697C93.646,27.505 93.734,27.289 93.919,27.202C95.5,26.447 98.431,25.099 100.327,24.216C100.327,24.216 100.723,23.97 100.678,23.218C100.676,23.179 100.681,22.431 100.688,21.482C100.702,19.751 100.723,17.349 100.723,17.349C100.727,17.237 100.758,17.125 100.811,17.028C101.121,16.462 101.632,16.182 102.336,16.081L107.092,15.401C107.774,15.303 110.021,8.666 110.021,8.666C110.194,8.154 110.548,7.894 111.013,7.96L117.699,8.907C117.754,8.914 117.814,8.889 117.845,8.84L121.532,3.303C121.616,3.181 121.752,3.107 121.899,3.114C122.513,3.139 129.136,5.495 129.136,5.495C129.234,5.569 129.37,5.569 129.468,5.492C129.514,5.461 135.589,0.028 135.589,0.028C135.662,-0.028 135.77,0.004 135.802,0.091C135.819,0.133 137.47,1.543 140.756,4.326C141.147,4.658 141.534,4.748 141.915,4.598C144.153,3.711 146.185,2.786 148.011,1.823C148.095,1.781 148.196,1.805 148.252,1.878C148.252,1.878 152.7,8.208 153.667,8.093C154.498,7.999 157.658,7.534 159.229,7.213C160.046,7.049 160.406,7.597 160.646,8.324C161.628,11.316 162.312,14.276 162.312,14.276C162.305,14.364 162.371,14.444 162.459,14.454L169.214,15.411C169.763,15.488 170.143,15.994 170.066,16.542C170.066,16.542 169.679,22.38 169.948,23.791C170.007,24.101 170.22,24.36 170.513,24.478C172.413,25.243 174.352,26.141 176.326,27.181C177.223,27.653 177.058,28.302 176.724,29.276C176.724,29.276 175.118,33.971 175.101,34.694C175.097,34.844 175.153,34.991 175.251,35.103L175.632,35.536C177.049,36.887 178.427,38.194 179.765,39.446C180.345,39.988 180.312,40.573 179.87,41.22C179.236,42.147 178.263,43.68 176.948,45.821C176.881,45.93 176.892,46.066 176.969,46.163C176.969,46.163 179.685,50.357 180.652,51.519C180.858,51.764 180.649,52.368 180.649,52.368C180.649,52.368 176.424,56.362 175.272,57.378C175.16,57.476 174.858,57.87 174.97,58.284L176.724,64.78ZM108.474,63.146C108.52,64.947 108.557,66.375 108.586,67.433C108.599,67.919 108.684,68.372 108.841,68.791C108.943,69.064 109.187,69.259 109.476,69.301L114.511,70.013C114.595,70.024 114.664,70.08 114.692,70.16C115.364,72.047 115.823,73.526 116.03,74.608C116.18,75.394 116.651,75.567 117.353,75.488C119.067,75.296 120.481,75.093 121.602,74.873C121.745,74.845 121.888,74.855 122.024,74.901C122.524,75.07 122.939,75.46 123.271,76.06C124.204,77.75 124.914,78.903 125.408,79.513C125.543,79.681 125.774,79.733 125.973,79.643L130.676,77.457C130.837,77.384 131.022,77.408 131.155,77.523L135.212,81.004C135.299,81.081 135.425,81.109 135.54,81.074C135.823,80.988 138.168,78.734 139.021,78.061C139.733,77.499 140.509,77.398 141.335,77.785C141.444,77.836 142.502,78.354 144.509,79.339C145.291,79.723 145.885,79.562 146.286,78.861C147.072,77.488 147.807,76.313 148.482,75.334C148.668,75.066 148.992,74.922 149.317,74.968L153.981,75.628C154.362,75.683 154.729,75.456 154.851,75.093L156.596,69.933C156.631,69.835 156.729,69.769 156.834,69.776C156.834,69.776 159.627,69.399 161.174,69.168C161.785,69.078 162.144,68.767 162.253,68.24C162.454,67.265 162.487,66.061 162.347,64.63C162.225,63.39 162.682,62.768 163.834,62.241C164.501,61.937 165.642,61.399 167.252,60.628C167.566,60.478 167.724,60.126 167.629,59.794L166.299,55.025C166.191,54.641 166.345,54.233 166.676,54.016C168.029,53.128 169.193,52.105 170.157,50.947C170.378,50.682 170.384,50.298 170.171,50.028C169.104,48.679 168.274,47.321 167.682,45.954C167.576,45.71 167.601,45.426 167.752,45.207C168.938,43.476 169.709,42.367 170.056,41.869C170.445,41.309 170.54,40.847 170.035,40.361C169.549,39.894 168.41,38.861 166.617,37.274C166.32,37.012 166.198,36.604 166.299,36.22L167.455,31.877C167.483,31.775 167.48,31.67 167.451,31.569C167.291,31.003 166.907,30.577 166.317,30.288C164.607,29.451 163.393,28.845 162.685,28.448C162.58,28.389 162.511,28.28 162.504,28.162L162.28,23.204C162.263,22.799 161.959,22.464 161.558,22.408L156.52,21.699C156.352,21.675 156.219,21.539 156.198,21.367C156.001,19.748 155.5,18.058 154.673,16.305C154.569,16.085 154.337,15.959 154.097,15.991L148.926,16.665C148.636,16.703 148.356,16.553 148.224,16.291C147.482,14.822 146.565,13.455 145.49,12.175C145.353,12.011 145.128,11.952 144.928,12.031C144.165,12.335 142.934,12.892 141.234,13.714C140.392,14.122 139.739,14.088 139.276,13.617C138.332,12.657 137.133,11.813 135.798,10.635C135.687,10.537 135.522,10.523 135.4,10.607C133.94,11.602 132.655,12.705 131.56,13.924C131.343,14.165 131.001,14.242 130.704,14.116C130.093,13.855 128.697,13.217 126.521,12.203C125.673,11.807 125.303,11.908 124.877,12.608L122.576,16.385C122.425,16.633 122.178,16.8 121.892,16.752C120.667,16.544 119.039,16.319 117.004,16.074C116.567,16.022 116.253,16.238 116.068,16.727C115.637,17.869 115.247,19.134 114.888,20.526C114.749,21.064 114.815,21.67 114.047,21.734C112.444,21.868 110.726,22.185 108.89,22.67C108.638,22.736 108.492,22.994 108.562,23.242C108.562,23.242 108.508,26.744 108.743,28.067C108.796,28.364 108.642,28.658 108.37,28.787L103.778,30.92C103.485,31.056 103.322,31.374 103.387,31.692C103.655,32.99 104.038,34.315 104.553,35.665C104.703,36.056 104.747,36.419 104.683,36.758C104.662,36.866 104.613,36.967 104.543,37.051C103.547,38.248 102.618,38.913 100.929,40.214C100.653,40.427 100.584,40.815 100.769,41.108L103.415,45.312C103.586,45.587 103.583,45.937 103.405,46.205L100.811,50.105C100.58,50.451 100.54,50.97 100.866,51.233L101.352,51.623C105.085,54.609 105,54.288 104.609,55.709C104.166,57.322 103.95,58.294 103.569,59.679C103.415,60.237 103.677,60.626 104.082,60.845C105.791,61.768 106.65,62.182 108.001,62.789L108.314,62.929C108.408,62.961 108.471,63.048 108.474,63.146Z" style="fill:white;fill-opacity:0.25;"/>
    <path d="M108.474,63.146C108.471,63.048 108.408,62.961 108.314,62.929L108.001,62.789C106.65,62.182 105.791,61.768 104.082,60.845C103.677,60.626 103.415,60.237 103.569,59.679C103.95,58.294 104.166,57.322 104.609,55.709C105,54.288 105.085,54.609 101.352,51.623L100.866,51.233C100.54,50.97 100.58,50.451 100.811,50.105L103.405,46.205C103.583,45.937 103.586,45.587 103.415,45.312L100.769,41.108C100.584,40.815 100.653,40.427 100.929,40.214C102.618,38.913 103.547,38.248 104.543,37.051C104.613,36.967 104.662,36.866 104.683,36.758C104.747,36.419 104.703,36.056 104.553,35.665C104.038,34.315 103.655,32.99 103.387,31.692C103.322,31.374 103.485,31.056 103.778,30.92L108.37,28.787C108.642,28.658 108.796,28.364 108.743,28.067C108.508,26.744 108.562,23.242 108.562,23.242C108.492,22.994 108.638,22.736 108.89,22.67C110.726,22.185 112.444,21.868 114.047,21.734C114.815,21.67 114.749,21.064 114.888,20.526C115.247,19.134 115.637,17.869 116.068,16.727C116.253,16.238 116.567,16.022 117.004,16.074C119.039,16.319 120.667,16.544 121.892,16.752C122.178,16.8 122.425,16.633 122.576,16.385L124.877,12.608C125.303,11.908 125.673,11.807 126.521,12.203C128.697,13.217 130.093,13.855 130.704,14.116C131.001,14.242 131.343,14.165 131.56,13.924C132.655,12.705 133.94,11.602 135.4,10.607C135.522,10.523 135.687,10.537 135.798,10.635C137.133,11.813 138.332,12.657 139.276,13.617C139.739,14.088 140.392,14.122 141.234,13.714C142.934,12.892 144.165,12.335 144.928,12.031C145.128,11.952 145.353,12.011 145.49,12.175C146.565,13.455 147.482,14.822 148.224,16.291C148.356,16.553 148.636,16.703 148.926,16.665L154.097,15.991C154.337,15.959 154.569,16.085 154.673,16.305C155.5,18.058 156.001,19.748 156.198,21.367C156.219,21.539 156.352,21.675 156.52,21.699L161.558,22.408C161.959,22.464 162.263,22.799 162.28,23.204L162.504,28.162C162.511,28.28 162.58,28.389 162.685,28.448C163.393,28.845 164.607,29.451 166.317,30.288C166.907,30.577 167.291,31.003 167.451,31.569C167.48,31.67 167.483,31.775 167.455,31.877L166.299,36.22C166.198,36.604 166.32,37.012 166.617,37.274C168.41,38.861 169.549,39.894 170.035,40.361C170.54,40.847 170.445,41.309 170.056,41.869C169.709,42.367 168.938,43.476 167.752,45.207C167.601,45.426 167.576,45.71 167.682,45.954C168.274,47.321 169.104,48.679 170.171,50.028C170.384,50.298 170.378,50.682 170.157,50.947C169.193,52.105 168.029,53.128 166.676,54.016C166.345,54.233 166.191,54.641 166.299,55.025L167.629,59.794C167.724,60.126 167.566,60.478 167.252,60.628C165.642,61.399 164.501,61.937 163.834,62.241C162.682,62.768 162.225,63.39 162.347,64.63C162.487,66.061 162.454,67.265 162.253,68.24C162.144,68.767 161.785,69.078 161.174,69.168C159.627,69.399 156.834,69.776 156.834,69.776C156.729,69.769 156.631,69.835 156.596,69.933L154.851,75.093C154.729,75.456 154.362,75.683 153.981,75.628L149.317,74.968C148.992,74.922 148.668,75.066 148.482,75.334C147.807,76.313 147.072,77.488 146.286,78.861C145.885,79.562 145.291,79.723 144.509,79.339C142.502,78.354 141.444,77.836 141.335,77.785C140.509,77.398 139.733,77.499 139.021,78.061C138.168,78.734 135.823,80.988 135.54,81.074C135.425,81.109 135.299,81.081 135.212,81.004L131.155,77.523C131.022,77.408 130.837,77.384 130.676,77.457L125.973,79.643C125.774,79.733 125.543,79.681 125.408,79.513C124.914,78.903 124.204,77.75 123.271,76.06C122.939,75.46 122.524,75.07 122.024,74.901C121.888,74.855 121.745,74.845 121.602,74.873C120.481,75.093 119.067,75.296 117.353,75.488C116.651,75.567 116.18,75.394 116.03,74.608C115.823,73.526 115.364,72.047 114.692,70.16C114.664,70.08 114.595,70.024 114.511,70.013L109.476,69.301C109.187,69.259 108.943,69.064 108.841,68.791C108.684,68.372 108.599,67.919 108.586,67.433C108.557,66.375 108.52,64.947 108.474,63.146ZM129.775,53.97C128.864,53.778 127.995,53.748 127.167,53.88C126.549,53.978 126.06,53.851 125.568,53.977C125.299,54.047 124.898,54.082 124.357,54.079C121.476,54.061 119.016,55.141 116.979,57.322C116.334,58.014 115.533,59.417 115.443,60.237C115.373,60.876 115.494,61.826 115.806,63.083C116.523,65.971 118.774,67.402 121.406,68.393C125.924,70.094 130.711,71.151 135.767,71.567C139.324,71.86 143.887,71.562 147.037,69.888C148.503,69.108 149.424,67.964 149.802,66.452C150.457,63.83 149.863,61.601 148.018,59.766C145.537,57.3 142.495,55.793 138.881,55.255C138.497,54.791 138.541,54.252 139.017,53.635C139.09,53.541 139.202,53.482 139.321,53.475C142.079,53.31 145.338,52.281 147.026,49.854C147.226,49.568 147.411,49.093 147.582,48.429C149.516,46.499 151.194,44.094 152.613,41.22C153.84,38.731 154.552,36.806 154.76,35.445C154.788,35.263 154.879,35.096 155.015,34.97L155.186,34.816C155.298,34.715 155.476,34.802 155.462,34.953C155.005,39.931 153.87,44.717 151.918,49.257C151.88,49.344 151.928,49.446 152.019,49.473C152.755,49.696 153.489,49.718 154.226,49.543C157.351,48.803 160.326,46.202 160.73,42.805C161.188,38.961 161.028,35.312 160.255,31.859C159.917,30.347 158.619,27.507 157.05,26.427C156.213,25.85 155.657,25.539 155.388,25.494C154.083,25.276 152.65,25.84 151.534,26.591C151.325,26.731 151.052,26.731 150.846,26.591C147.918,24.594 145.137,23.561 141.608,22.694C140.33,22.38 138.968,22.254 137.519,22.317C137.121,22.334 136.741,22.143 136.517,21.814C135.745,20.68 134.712,19.856 133.41,19.339C131.601,18.62 130.565,18.009 129.028,19.112C125.664,21.526 122.783,24.029 120.39,26.622C119.382,27.715 118.364,29.083 117.339,30.728C116.58,31.946 116.399,33.193 116.801,34.471C117.754,37.498 119.792,38.663 122.922,37.98C123.292,37.899 123.586,37.62 123.69,37.257C124.648,33.917 125.939,30.735 127.579,27.708C127.897,27.121 128.574,26.173 129.122,25.561C129.167,25.511 129.231,25.487 129.294,25.498L129.419,25.515C129.528,25.533 129.583,25.655 129.524,25.746C128.876,26.74 128.327,27.774 127.869,28.853C127.642,29.387 127.375,30.47 127.063,32.104C126.854,33.197 126.602,34.289 126.308,35.379C125.774,36.101 125.471,36.88 125.401,37.718C125.286,39.09 126.335,40.343 126.396,41.579C126.543,44.575 126.906,47.568 129.297,49.669C129.544,49.886 129.754,50.252 129.926,50.769C129.999,51.725 130.407,53.22 129.775,53.97Z" style="fill:white;fill-opacity:0.6;"/>
    <path d="M147.582,48.429C149.516,46.499 151.194,44.094 152.613,41.22C153.84,38.731 154.552,36.806 154.76,35.445C154.788,35.263 154.879,35.096 155.015,34.97L155.186,34.816C155.298,34.715 155.476,34.802 155.462,34.953C155.005,39.931 153.87,44.717 151.918,49.257C151.88,49.344 151.928,49.446 152.019,49.473C152.755,49.696 153.489,49.718 154.226,49.543C157.351,48.803 160.326,46.202 160.73,42.805C161.188,38.961 161.028,35.312 160.255,31.859C159.917,30.347 158.619,27.507 157.05,26.427C156.213,25.85 155.657,25.539 155.388,25.494C154.083,25.276 152.65,25.84 151.534,26.591C151.325,26.731 151.052,26.731 150.846,26.591C147.918,24.594 145.137,23.561 141.608,22.694C140.33,22.38 138.968,22.254 137.519,22.317C137.121,22.334 136.741,22.143 136.517,21.814C135.745,20.68 134.712,19.856 133.41,19.339C131.601,18.62 130.565,18.009 129.028,19.112C125.664,21.526 122.783,24.029 120.39,26.622C119.382,27.715 118.364,29.083 117.339,30.728C116.58,31.946 116.399,33.193 116.801,34.471C117.754,37.498 119.792,38.663 122.922,37.98C123.292,37.899 123.586,37.62 123.69,37.257C124.648,33.917 125.939,30.735 127.579,27.708C127.897,27.121 128.574,26.173 129.122,25.561C129.167,25.511 129.231,25.487 129.294,25.498L129.419,25.515C129.528,25.533 129.583,25.655 129.524,25.746C128.876,26.74 128.327,27.774 127.869,28.853C127.642,29.387 127.375,30.47 127.063,32.104C126.854,33.197 126.602,34.289 126.308,35.379C126.713,35.2 127.112,35.181 127.506,35.333C127.604,35.371 127.715,35.372 127.813,35.333C128.337,35.127 128.683,34.883 128.85,34.607C130.259,32.275 131.896,30.178 133.78,28.336C133.92,28.2 134.122,28.144 134.311,28.19C134.566,28.252 134.817,28.431 135.058,28.724C137.363,31.531 139.213,33.989 142.624,35.804C144.415,36.471 146.206,37.111 147.994,37.721C149.17,38.123 149.781,38.936 149.834,40.155C149.907,41.848 148.871,43.381 148.221,44.938C147.694,46.199 147.48,47.365 147.582,48.429Z" style="fill:white;fill-opacity:0.25;"/>
    <path d="M52.486,268.807C49.958,270.397 43.76,268.385 40.617,263.384C39.185,261.107 38.194,255.274 38.571,253.115C38.571,253.115 82.589,27.81 84.394,23.735C86.032,20.038 89.598,19.027 93.077,19.803L100.688,21.482C100.681,22.431 100.676,23.179 100.678,23.218C100.723,23.97 100.327,24.216 100.327,24.216C98.431,25.099 95.5,26.447 93.919,27.202C93.734,27.289 93.646,27.505 93.72,27.697C94.543,29.861 95.151,32.019 95.542,34.174C95.605,34.523 95.476,34.879 95.207,35.11L90.35,39.226C90.249,39.313 90.218,39.456 90.274,39.579L94.128,45.619C94.212,45.717 94.219,45.856 94.149,45.964L90.151,51.966C90.148,51.977 90.144,51.984 90.144,51.994C90.155,52.375 90.395,52.759 90.836,53.153C92.862,54.965 94.237,56.061 95.301,57.472C95.379,57.576 95.364,57.724 95.266,57.807L95.189,57.87C95.12,57.93 95.074,58.006 95.05,58.094L93.318,65.063L59.769,240.757C59.734,240.949 59.546,241.075 59.354,241.033C50.101,238.729 42.988,249.667 44.838,259.187C45.153,260.812 45.713,263.098 46.784,264.635C49.481,268.503 51.698,268.659 52.486,268.807Z" style="fill:white;fill-opacity:0.95;"/>
    <path d="M126.308,35.379C125.774,36.101 125.471,36.88 125.401,37.718C125.286,39.09 126.335,40.343 126.396,41.579C126.543,44.575 126.906,47.568 129.297,49.669C129.544,49.886 129.754,50.252 129.926,50.769C130.582,51.044 131.21,51.383 131.814,51.781C132.764,52.406 133.368,52.772 133.626,52.884C134.517,53.271 135.442,53.484 136.402,53.523C136.741,53.537 137.203,53.318 137.802,52.877C137.931,52.783 138.023,52.644 138.061,52.486C138.285,51.552 138.341,50.845 138.235,50.367C138.121,49.854 138.245,49.456 138.605,49.17C138.741,49.061 138.675,48.842 138.504,48.827C138.458,48.824 138.406,48.827 138.347,48.837C138.246,48.879 138.128,48.916 137.994,48.95C136.695,49.093 135.491,48.548 134.377,47.309C133.651,46.502 133.409,45.601 133.651,44.606C133.745,44.219 134.18,44.016 134.534,44.198C134.601,44.232 134.716,44.366 134.88,44.599C135.682,45.742 136.79,46.659 138.197,47.361C137.338,45.961 137.017,44.644 137.254,43.409C137.302,43.161 137.547,43.007 137.788,43.07L138.912,43.37C139.059,43.409 139.212,43.384 139.335,43.301C139.969,42.869 140.439,42.267 140.742,41.488C141.466,39.628 142.093,37.735 142.624,35.804C139.213,33.989 137.363,31.531 135.058,28.724C134.817,28.431 134.566,28.252 134.311,28.19C134.122,28.144 133.92,28.2 133.78,28.336C131.896,30.178 130.259,32.275 128.85,34.607C128.683,34.883 128.337,35.127 127.813,35.333C127.715,35.372 127.604,35.371 127.506,35.333C127.112,35.181 126.713,35.2 126.308,35.379ZM136.095,39.051C136.472,39.303 136.765,39.711 137.058,40.005C137.223,40.169 137.505,40.074 137.537,39.844L137.572,39.596C137.607,39.359 137.532,39.119 137.366,38.943C137.06,38.621 136.807,38.395 136.608,38.28C136.423,38.14 136.119,37.99 135.7,37.833C135.477,37.749 135.225,37.774 135.019,37.899L134.807,38.025C134.604,38.144 134.628,38.441 134.841,38.528C135.225,38.685 135.718,38.8 136.095,39.051Z" style="fill:white;fill-opacity:0.95;"/>
    <path d="M175.632,35.536C176.815,35.742 178.065,36.091 179.071,36.279C210.657,42.211 233.474,46.46 247.513,49.033C248.801,49.271 249.775,49.522 250.435,49.791C250.03,51.429 208.748,267.208 208.413,268.801C208.371,269 208.217,269.15 208.018,269.192L207.609,269.279L64.629,242.06C64.531,242.042 64.462,241.959 64.465,241.861C64.479,241.358 86.848,124.637 97.913,66.983L100.472,68.086C100.587,68.135 100.653,68.257 100.629,68.379C100.526,68.906 100.795,73.666 100.626,74.692C100.522,75.317 100.797,75.687 101.45,75.802C103.995,76.253 106.275,76.599 108.474,76.826C108.607,76.839 108.792,76.958 108.768,77.087C108.768,77.087 108.8,77.182 108.857,77.349C108.388,78.476 93.86,113.376 93.262,114.801C93.081,115.238 93.056,115.636 93.185,115.999C93.273,116.243 93.562,116.344 93.786,116.208C94.111,116.009 94.421,115.765 94.718,115.468C96.523,113.677 97.899,112.347 98.845,111.477C105.856,105.022 109.899,101.296 110.971,100.298C111.205,100.081 111.586,99.653 112.123,99.02C112.328,98.778 112.723,98.922 112.723,99.24L112.727,99.84C112.727,99.858 112.727,99.875 112.73,99.893L116.969,118.855C117.049,119.221 117.503,119.331 117.758,119.057C117.815,118.996 117.876,118.883 117.943,118.715C121.915,108.715 124.346,102.532 125.202,100.158L125.676,98.849C125.739,98.678 125.988,98.716 125.998,98.898C126.045,99.739 127.16,110.985 128.763,125.422C129.021,127.744 129.195,131.221 129.671,133.627C129.713,133.84 129.758,133.983 129.803,134.056C129.97,134.325 130.362,134.311 130.512,134.032C133.819,127.86 137.759,118.88 139.89,114.518C139.943,114.41 140.096,114.41 140.152,114.515C141.298,116.643 142.718,119.061 144.376,121.784C146.894,125.918 148.929,129.384 150.49,132.178C150.877,132.87 151.343,133.326 151.593,134C151.842,134.67 152.433,135.347 152.99,136.137C153.081,136.266 153.192,136.331 153.321,136.333C153.465,136.335 153.562,136.19 153.514,136.057C153.377,135.687 153.294,135.268 153.269,134.797C153.114,131.86 150.043,101.841 148.702,89.726L152.501,83.714C152.55,83.633 152.644,83.588 152.738,83.602L159.397,84.541C159.812,84.6 160.217,84.381 160.388,83.996C160.388,83.996 161.963,78.146 162.689,77.195C162.758,77.104 162.86,77.048 162.968,77.035C164.996,76.78 169.305,75.91 170.028,75.446C170.126,75.383 170.164,75.257 170.115,75.153L170.346,68.131C170.36,68.027 170.436,67.939 170.541,67.912C171.759,67.59 175.243,65.859 176.473,65.314C176.679,65.223 176.784,64.996 176.724,64.78L174.97,58.284C174.858,57.87 175.16,57.476 175.272,57.378C176.424,56.362 180.649,52.368 180.649,52.368C180.649,52.368 180.858,51.764 180.652,51.519C179.685,50.357 176.969,46.163 176.969,46.163C176.892,46.066 176.881,45.93 176.948,45.821C178.263,43.68 179.236,42.147 179.87,41.22C180.312,40.573 180.345,39.988 179.765,39.446C178.427,38.194 177.049,36.887 175.632,35.536Z" style="fill:white;fill-opacity:0.95;"/>
    <path d="M138.881,55.255C138.497,54.791 138.541,54.252 139.017,53.635C139.09,53.541 139.202,53.482 139.321,53.475C142.079,53.31 145.338,52.281 147.026,49.854C147.226,49.568 147.411,49.093 147.582,48.429C147.48,47.365 147.694,46.199 148.221,44.938C148.871,43.381 149.907,41.848 149.834,40.155C149.781,38.936 149.17,38.123 147.994,37.721C146.206,37.111 144.415,36.471 142.624,35.804C142.093,37.735 141.466,39.628 140.742,41.488C140.439,42.267 139.969,42.869 139.335,43.301C139.212,43.384 139.059,43.409 138.912,43.37L137.788,43.07C137.547,43.007 137.302,43.161 137.254,43.409C137.017,44.644 137.338,45.961 138.197,47.361C138.459,47.574 138.651,47.804 138.773,48.059C138.933,48.397 138.791,48.656 138.347,48.837C138.406,48.827 138.458,48.824 138.504,48.827C138.675,48.842 138.741,49.061 138.605,49.17C138.245,49.456 138.121,49.854 138.235,50.367C138.341,50.845 138.285,51.552 138.061,52.486C138.023,52.644 137.931,52.783 137.802,52.877C137.203,53.318 136.741,53.537 136.402,53.523C135.442,53.484 134.517,53.271 133.626,52.884C133.368,52.772 132.764,52.406 131.814,51.781C131.21,51.383 130.582,51.044 129.926,50.769C129.999,51.725 130.407,53.22 129.775,53.97C130.334,57.046 133.48,58.005 136.179,57.42C137.429,57.149 138.329,56.425 138.881,55.255ZM143.532,43.122C143.881,43.381 144.146,43.789 144.415,44.086C144.565,44.254 144.841,44.177 144.883,43.957L144.928,43.72C144.974,43.493 144.914,43.255 144.764,43.081C144.485,42.749 144.251,42.525 144.062,42.403C143.891,42.257 143.608,42.099 143.21,41.928C142.997,41.834 142.756,41.845 142.55,41.956L142.338,42.068C142.138,42.173 142.145,42.459 142.348,42.553C142.711,42.724 143.179,42.861 143.532,43.122Z" style="fill:white;fill-opacity:0.85;"/>
    <path d="M136.095,39.051C136.472,39.303 136.765,39.711 137.058,40.005C137.223,40.169 137.505,40.074 137.537,39.844L137.572,39.596C137.607,39.359 137.532,39.119 137.366,38.943C137.06,38.621 136.807,38.395 136.608,38.28C136.423,38.14 136.119,37.99 135.7,37.833C135.477,37.749 135.225,37.774 135.019,37.899L134.807,38.025C134.604,38.144 134.628,38.441 134.841,38.528C135.225,38.685 135.718,38.8 136.095,39.051Z" style="fill:white;fill-opacity:0.15;"/>
    <path d="M143.532,43.122C143.881,43.381 144.146,43.789 144.415,44.086C144.565,44.254 144.841,44.177 144.883,43.957L144.928,43.72C144.974,43.493 144.914,43.255 144.764,43.081C144.485,42.749 144.251,42.525 144.062,42.403C143.891,42.257 143.608,42.099 143.21,41.928C142.997,41.834 142.756,41.845 142.55,41.956L142.338,42.068C142.138,42.173 142.145,42.459 142.348,42.553C142.711,42.724 143.179,42.861 143.532,43.122Z" style="fill:white;fill-opacity:0.15;"/>
    <path d="M138.347,48.837C138.246,48.879 138.128,48.916 137.994,48.95C136.695,49.093 135.491,48.548 134.377,47.309C133.651,46.502 133.409,45.601 133.651,44.606C133.745,44.219 134.18,44.016 134.534,44.198C134.601,44.232 134.716,44.366 134.88,44.599C135.682,45.742 136.79,46.659 138.197,47.361C138.459,47.574 138.651,47.804 138.773,48.059C138.933,48.397 138.791,48.656 138.347,48.837Z" style="fill:white;fill-opacity:0.15;"/>
    <path d="M209.998,271.043L209.977,271.133L207.609,269.279L208.018,269.192C208.217,269.15 208.371,269 208.413,268.801C208.748,267.208 250.03,51.429 250.435,49.791C250.934,50.667 251.804,51.663 251.975,52.494C252.021,52.723 251.287,56.9 249.983,63.951C241.772,108.345 210.962,266.666 209.998,271.043Z" style="fill:white;fill-opacity:0.75;"/>
    <path d="M129.775,53.97C128.864,53.778 127.995,53.748 127.167,53.88C126.549,53.978 126.06,53.851 125.568,53.977C125.299,54.047 124.898,54.082 124.357,54.079C121.476,54.061 119.016,55.141 116.979,57.322C116.334,58.014 115.533,59.417 115.443,60.237C115.373,60.876 115.494,61.826 115.806,63.083C116.523,65.971 118.774,67.402 121.406,68.393C125.924,70.094 130.711,71.151 135.767,71.567C139.324,71.86 143.887,71.562 147.037,69.888C148.503,69.108 149.424,67.964 149.802,66.452C150.457,63.83 149.863,61.601 148.018,59.766C145.537,57.3 142.495,55.793 138.881,55.255C138.329,56.425 137.429,57.149 136.179,57.42C133.48,58.005 130.334,57.046 129.775,53.97Z" style="fill:white;fill-opacity:0.95;"/>
    <path d="M206.895,272.522L206.855,272.397L209.146,272.952C209.397,273.011 209.648,272.851 209.697,272.596L209.977,271.133L209.998,271.043C210.962,266.666 241.772,108.345 249.983,63.951C250.889,65.029 254.443,71.392 254.443,71.392L255.781,74.388C255.924,74.713 255.973,75.069 255.92,75.422C255.893,75.605 255.678,76.759 255.301,78.752C254.987,80.245 254.642,81.757 254.339,83.448C254.038,85.114 214.117,292.979 213.681,293.038C213.433,292.214 207.958,275.912 206.895,272.522Z" style="fill:white;fill-opacity:0.85;"/>
    <path d="M255.301,78.752C255.533,77.653 255.748,76.564 255.92,75.422C255.973,75.069 255.924,74.713 255.781,74.388L254.443,71.392L255.589,71.281C257.582,71.281 259.696,71.392 260.47,73.033C259.935,74.14 217.026,297.074 217.186,297.577C217.33,298.027 217.71,298.652 218.321,299.445C218.304,299.591 218.223,299.776 218.08,300C218.021,300.094 52.486,268.807 52.486,268.807C51.698,268.659 49.481,268.503 46.784,264.635C45.713,263.098 45.153,260.812 44.838,259.187C42.988,249.667 50.101,238.729 59.354,241.033C59.546,241.075 59.734,240.949 59.769,240.757L93.318,65.063L97.913,66.983C86.848,124.637 64.479,241.358 64.465,241.861C64.462,241.959 64.531,242.042 64.629,242.06L207.609,269.279L209.977,271.133L209.697,272.596C209.648,272.851 209.397,273.011 209.146,272.952L206.855,272.397C203.863,271.74 61.172,244.006 58.942,244.095C58.884,244.079 58.819,244.083 58.747,244.105C47.331,244.739 48.877,260.564 49.693,261.688C50.168,262.345 212.421,292.972 213.681,293.038C214.117,292.979 254.038,85.114 254.339,83.448C254.642,81.757 254.987,80.245 255.301,78.752Z" style="fill:white;fill-opacity:0.5;"/>
    <path d="M260.47,73.033C261.957,74.217 261.527,75.338 261.133,77.251C260.239,81.559 218.723,298.376 218.321,299.445C217.71,298.652 217.33,298.027 217.186,297.577C217.026,297.074 259.935,74.14 260.47,73.033Z" style="fill:white;fill-opacity:0.75;"/>
    <path d="M129.652,86.736L129.72,86.713C129.891,86.653 130.084,86.719 130.184,86.873C130.572,87.471 133.915,90.373 135.274,91.541C135.372,91.625 135.515,91.625 135.613,91.541L141.116,86.88C141.266,86.751 141.481,86.725 141.66,86.818C143.942,88.004 146.297,88.958 148.702,89.726C150.043,101.841 153.114,131.86 153.269,134.797C153.294,135.268 153.377,135.687 153.514,136.057C153.562,136.19 153.465,136.335 153.321,136.333C153.192,136.331 153.081,136.266 152.99,136.137C152.433,135.347 151.842,134.67 151.593,134C151.343,133.326 150.877,132.87 150.49,132.178C148.929,129.384 146.894,125.918 144.376,121.784C142.718,119.061 141.298,116.643 140.152,114.515C140.096,114.41 139.943,114.41 139.89,114.518C137.759,118.88 133.819,127.86 130.512,134.032C130.362,134.311 129.97,134.325 129.803,134.056C129.758,133.983 129.713,133.84 129.671,133.627C129.195,131.221 129.021,127.744 128.763,125.422C127.16,110.985 126.045,99.739 125.998,98.898C125.988,98.716 125.739,98.678 125.676,98.849L129.652,86.736Z" style="fill:white;fill-opacity:0.35;"/>
    <path d="M125.676,98.849L125.202,100.158C124.346,102.532 121.915,108.715 117.943,118.715C117.876,118.883 117.815,118.996 117.758,119.057C117.503,119.331 117.049,119.221 116.969,118.855L112.73,99.893C112.727,99.875 112.727,99.858 112.727,99.84L112.723,99.24C112.723,98.922 112.328,98.778 112.123,99.02C111.586,99.653 111.205,100.081 110.971,100.298C109.899,101.296 105.856,105.022 98.845,111.477C97.899,112.347 96.523,113.677 94.718,115.468C94.421,115.765 94.111,116.009 93.786,116.208C93.562,116.344 93.273,116.243 93.185,115.999C93.056,115.636 93.081,115.238 93.262,114.801C93.86,113.376 108.388,78.476 108.857,77.349C109.17,78.264 110.225,81.346 110.73,82.834C110.875,83.265 111.111,83.539 111.439,83.656C111.608,83.716 111.801,83.734 112.018,83.71C114.483,83.439 116.527,83.244 118.145,83.085C118.275,83.072 118.397,83.148 118.446,83.27C118.523,83.466 120.401,86.208 122.468,88.979C122.541,89.077 122.667,89.115 122.779,89.076L129.652,86.736L125.676,98.849Z" style="fill:white;fill-opacity:0.4;"/>
    <path d="M206.895,272.522C207.958,275.912 213.433,292.214 213.681,293.038C212.421,292.972 50.168,262.345 49.693,261.688C48.877,260.564 47.331,244.739 58.747,244.105L58.942,244.095C61.172,244.006 203.863,271.74 206.855,272.397L206.895,272.522Z" style="fill:white;fill-opacity:0.75;"/>
</svg>
