<?xml version="1.0" encoding="UTF-8" standalone="no"?>
<!DOCTYPE svg PUBLIC "-//W3C//DTD SVG 1.1//EN" "http://www.w3.org/Graphics/SVG/1.1/DTD/svg11.dtd">
<svg width="100%" height="100%" viewBox="0 0 300 300" version="1.1" xmlns="http://www.w3.org/2000/svg" xmlns:xlink="http://www.w3.org/1999/xlink" xml:space="preserve" xmlns:serif="http://www.serif.com/" style="fill-rule:evenodd;clip-rule:evenodd;stroke-linejoin:round;stroke-miterlimit:2;">
    <path d="M55.218,236.122C55.227,236.16 55.242,236.198 55.263,236.233L56.837,238.886C53.987,240.891 51.472,243.205 49.293,245.831C48.413,246.891 47.997,247.928 48.053,248.945C48.105,249.894 48.552,251.005 49.391,252.279C49.643,252.661 51.986,256.374 56.425,263.417C57.589,265.266 59.035,266.666 60.762,267.624C58.94,267.745 57.53,267.124 56.526,265.753C53.768,261.988 51.103,258.327 48.534,254.768C48.364,254.533 48.07,254.421 47.785,254.487C46.771,254.721 45.731,254.673 44.635,254.791C34.144,255.893 22.847,257.089 10.731,258.311C10.368,258.348 9.645,258.537 8.559,258.874C7.518,258.857 6.92,258.504 6.766,257.807C6.779,182.371 6.782,106.954 6.772,31.556L6.736,30.284C6.687,28.697 7.018,27.398 7.721,26.381C8.477,26.332 98.363,22.252 99.086,22.419C99.191,22.445 99.295,22.374 99.312,22.266C99.557,20.607 100.64,20.45 102.207,20.064C104.389,19.531 125.652,14.316 166.004,4.427C166.459,4.316 167.267,4.152 168.421,3.94C168.608,3.904 168.785,3.835 168.948,3.737C170.015,3.073 171.192,3.707 171.568,4.695C171.709,5.068 171.778,5.703 171.778,6.596C171.778,190.477 171.778,283.121 171.781,284.527C171.784,286.69 169.995,288.001 168.153,286.143C167.973,284.799 167.888,283.032 167.898,280.847C167.928,274.013 167.928,258.151 167.895,233.266L167.888,8.062C167.888,7.937 167.774,7.846 167.653,7.875L105.069,23.218C103.44,23.617 101.942,23.993 100.296,24.016C100.12,24.019 99.976,24.166 99.976,24.343L99.999,59.824L99.151,60.942C99.122,60.978 99.099,61.021 99.083,61.067L97.839,64.322C97.813,64.394 97.774,64.459 97.725,64.515C96.243,66.228 93.622,66.667 92.38,68.581C92.238,68.799 92.11,69.033 91.997,69.278L92.395,37.956C92.399,37.576 92.245,37.211 91.969,36.95C91.694,36.689 91.321,36.555 90.942,36.581L25.477,41.013C24.763,41.061 24.208,41.655 24.208,42.37L24.208,130.587L21.431,130.569L21.376,115.299C21.372,114.903 21.052,114.585 20.656,114.582L11.254,114.55C10.358,114.497 9.91,114.821 9.91,115.521C9.908,126.454 9.908,137.39 9.91,148.329C9.91,148.653 10.175,148.913 10.499,148.905C10.744,148.899 11.006,148.993 11.284,149.19C13.338,149.255 15.415,149.274 17.519,149.252C18.772,149.238 19.782,149.041 20.95,148.925C21.183,148.901 21.357,148.709 21.359,148.476C21.412,144.063 21.408,139.228 21.402,133.965C21.401,133.7 21.592,133.566 21.968,133.562L24.208,133.553L24.208,238.276C24.208,238.665 24.374,239.035 24.665,239.293C24.956,239.552 25.343,239.673 25.729,239.627L55.218,236.122ZM91.926,74.808C92.104,75.181 92.326,75.529 92.596,75.84C93.625,77.028 94.929,78.055 94.944,79.828C94.968,82.494 94.435,84.474 97.067,86.118C97.522,86.403 98.071,86.686 98.716,86.966C98.929,87.058 99.155,87.113 99.384,87.126L100.427,87.182C99.39,87.97 98.435,88.501 97.565,88.768C96.05,89.234 94.267,89.501 92.223,89.57C92.062,89.498 91.901,89.429 91.742,89.363L91.926,74.808ZM89.031,88.471C87.885,88.196 86.761,88.059 85.66,88.062C82.193,88.069 78.918,89.269 75.84,91.654C71.744,94.827 68.531,99.485 66.036,104.016C63.274,109.03 60.892,114.114 58.891,119.267C57.015,124.098 55.512,129.516 54.38,135.525C53.897,138.087 53.496,140.564 53.176,142.957L26.929,145.841L26.929,133.542L30.653,133.526C31.425,133.523 32.053,132.885 32.06,132.097L32.06,132.041C32.066,131.266 31.448,130.635 30.679,130.628L26.929,130.604L26.929,43.642L89.655,39.396L89.031,88.471ZM52.838,145.732C52.705,146.936 52.595,148.118 52.506,149.278C52.401,150.635 52.597,152.108 52.663,153.122C52.945,157.518 54.21,162.091 55.793,166.325C59.337,175.804 64.223,184.484 69.801,193.199C71.162,195.325 72.301,197.294 73.216,199.107C75.105,202.845 76.941,206.759 78.738,210.847C78.774,210.929 78.784,211.017 78.764,211.103L78.549,212.071L57.955,233.056L26.929,236.744L26.929,148.579L52.838,145.732Z" style="fill:white;fill-opacity:0.25;"/>
    <path d="M179.721,78.179L190.964,64.381C191.102,64.214 191.167,63.998 191.151,63.785C190.212,51.851 192.799,40.801 198.907,30.634C202.024,25.449 206.097,20.79 211.125,16.662C226.203,4.283 246.897,1.166 265.033,8.084C279.529,13.616 290.877,25.053 296.481,39.705C299.755,48.259 300.743,57.298 299.451,66.818C299.088,69.497 298.597,71.859 297.982,73.907C295.588,81.853 291.815,88.797 286.667,94.748C277.412,105.445 263.617,112.446 249.334,113.329C234.335,114.255 219.978,109.367 208.917,99.364C203.556,94.516 199.291,88.74 196.094,82.049C196.054,81.967 195.982,81.909 195.894,81.889C192.576,81.134 187.799,79.99 181.556,78.48C180.95,78.334 180.339,78.235 179.721,78.179ZM259.295,58.62C257.912,55.312 256.027,52.44 253.643,50.003C251.592,47.909 249.256,46.836 246.632,46.784C245.134,46.755 243.737,47.275 242.815,48.364C242.432,48.812 242.2,49.084 242.118,49.175C242.046,49.254 241.935,49.283 241.833,49.254L237.917,48.119C237.737,48.066 237.551,48.168 237.499,48.348L237.469,48.443C237.427,48.596 237.515,48.757 237.666,48.799L241.081,49.79C241.408,49.885 241.598,50.222 241.513,50.549C240.927,52.823 241.477,54.668 243.168,56.088C244.676,57.357 246.351,58.132 248.193,58.417C251.055,58.859 254.195,58.921 257.614,58.597C258.124,58.548 258.628,58.672 259.138,58.803C259.246,58.832 259.338,58.724 259.295,58.62ZM245.441,69.664C243.436,69.291 241.205,69.651 239.929,71.424C239.811,71.591 239.887,71.823 240.08,71.888C242.396,72.677 244.234,72.058 245.595,70.033C245.69,69.889 245.612,69.696 245.441,69.664ZM211.335,61.78C211.39,61.852 211.495,61.865 211.57,61.813C214.289,59.83 220.301,58.336 225.817,58.155C236.415,57.807 247.712,63.631 251.382,65.221C253.194,66.003 254.55,66.455 255.412,66.703C259.857,67.983 263.915,68.012 266.591,67.77C270.415,67.423 273.27,65.71 275.59,62.977C277.924,60.229 277.729,56.66 277.563,55.273C277.281,52.973 276.323,51.096 274.69,49.647C272.953,48.106 270.215,47.975 268.095,48.364C264.674,48.992 261.764,52.713 263.939,56.056C264.924,57.564 266.414,57.992 268.275,57.422C268.311,57.409 268.334,57.373 268.328,57.337C268.324,57.298 268.292,57.269 268.252,57.269C267.109,57.337 266.476,57.269 266.047,57.102C264.094,56.342 263.617,54.063 264.418,52.201C265.259,50.258 267.558,49.362 269.643,49.362C274.874,49.362 277.122,53.939 275.78,58.911C274.321,64.316 268.171,66.304 265.374,66.386C263.054,66.455 259.839,66.524 255.589,65.1C249.251,62.977 232.74,53.356 219.608,57.298C216.651,58.186 213.896,59.588 211.358,61.551C211.289,61.603 211.276,61.705 211.331,61.773L211.335,61.78ZM224.675,52.067C226.281,52.502 228.117,52.355 229.271,50.998C229.379,50.87 229.333,50.674 229.18,50.608C227.348,49.817 225.814,50.199 224.574,51.757C224.485,51.864 224.538,52.028 224.675,52.067ZM251.284,68.987C252.478,69.484 253.649,70.184 255.089,70.763C258.697,72.209 262.58,72.843 266.731,72.67C269.051,72.572 271.312,72.059 273.14,71.11C278.148,68.507 279.162,63.873 279.149,63.733C279.129,63.55 278.881,63.514 278.809,63.68C278.809,63.68 276.162,68.987 270.709,70.684C267.763,71.602 264.543,71.581 261.18,71.087C259.168,70.789 255.883,70.04 251.33,68.839C251.297,68.83 251.261,68.846 251.251,68.879L251.245,68.895C251.232,68.931 251.248,68.973 251.284,68.987ZM228.061,62.114C226.033,62.263 223.767,62.428 222.215,63.376C222.114,63.438 221.983,63.402 221.927,63.301L221.207,62.061C221.119,61.911 220.923,61.868 220.782,61.973C220.182,62.422 219.62,62.872 219.097,63.314C216.913,65.163 215.85,67.495 215.918,70.298C215.921,70.423 215.97,70.635 216.062,70.94C216.117,71.123 216.039,71.319 215.875,71.414L212.643,73.279C212.457,73.383 212.431,73.642 212.591,73.782L212.715,73.894C212.83,73.995 212.993,74.011 213.127,73.936L215.996,72.281C216.157,72.189 216.359,72.251 216.438,72.415C218.007,75.68 221.823,76.804 225.208,76.628C225.29,76.624 226.088,76.545 227.603,76.403C227.783,76.386 227.855,76.164 227.721,76.046L226.919,75.333C226.684,75.124 226.776,74.735 227.08,74.652C228.962,74.139 230.65,73.377 232.147,72.389C232.261,72.313 232.271,72.153 232.17,72.062L230.043,70.171C229.988,70.125 229.992,70.037 230.05,69.994C231.585,68.858 232.927,67.445 234.096,65.79C234.189,65.66 234.126,65.479 233.972,65.434C231.873,64.812 229.975,64.501 228.283,64.515C228.015,64.517 227.816,64.266 227.878,64.004L228.267,62.356C228.296,62.225 228.195,62.104 228.061,62.114Z" style="fill:white;fill-opacity:0.95;"/>
    <path d="M6.766,257.807C4.535,257.006 2.405,256.476 0.377,256.217C0.22,256.198 0.099,256.07 0.086,255.913C-0.081,253.94 0.047,252.063 0.047,249.976C0.05,209.441 0.05,135.492 0.047,28.138C0.047,27.012 0.626,26.446 1.784,26.44C2.988,26.43 7.011,26.109 7.721,26.381C7.018,27.398 6.687,28.697 6.736,30.284L6.772,31.556C6.782,106.954 6.779,182.371 6.766,257.807Z" style="fill:white;fill-opacity:0.15;"/>
    <path d="M113.355,100.002C111.972,99.459 111.108,99.066 110.764,98.824C110.071,98.33 109.335,97.879 108.556,97.473C106.813,96.299 105.553,95.065 104.778,93.773C103.427,91.523 102.053,89.308 100.659,87.126C102.455,86.086 103.854,84.506 104.843,82.383C105.171,81.68 105.209,81.264 104.925,80.515C104.39,79.099 104.361,77.666 104.827,76.223C105.293,74.781 106.669,73.623 108.229,74.044C109.018,74.257 109.689,74.987 110.388,75.434C110.512,75.514 110.647,75.569 110.787,75.601C114.032,76.351 115.828,71.244 116.738,69.245C117.421,67.743 118.57,67.141 120.176,67.436C121.638,67.704 122.895,68.234 123.941,69.029C124.376,73.108 124.461,77.09 124.197,80.969C124.052,83.079 123.745,85.114 123.277,87.07C122.829,88.948 121.84,88.515 120.618,87.744C120.172,87.464 119.598,87.503 119.195,87.842C118.11,88.757 117.978,90.391 117.752,91.729C117.085,91.464 115.358,91.402 115.492,92.52C115.528,92.821 115.714,93.034 116.054,93.155C116.535,93.326 117.039,93.512 117.562,93.714C117.467,95.474 116.807,96.989 115.573,98.262C115.253,98.592 114.513,99.171 113.355,100.002ZM120.765,81.077C120.316,81.751 120.184,82.408 120.359,83.053C120.452,83.393 120.892,83.482 121.108,83.204C121.602,82.569 121.854,81.882 121.841,81.143C121.839,81.018 121.943,80.917 122.067,80.924C122.332,80.937 122.545,80.888 122.705,80.773C122.855,80.665 122.761,80.428 122.577,80.449C121.485,80.578 120.317,80.06 119.273,79.893C119.191,79.88 119.106,79.883 119.025,79.903C118.612,80.001 118.335,80.142 118.19,80.325C118.063,80.486 118.217,80.712 118.413,80.652C119.12,80.436 119.876,80.498 120.686,80.829C120.784,80.869 120.824,80.989 120.765,81.077ZM121.364,84.78C121.367,84.777 121.367,84.771 121.364,84.767C120.569,83.423 119.456,82.572 118.033,82.219C117.965,82.203 117.893,82.245 117.876,82.314L117.853,82.412C117.827,82.533 117.896,82.654 118.014,82.69C119.283,83.063 120.281,83.835 121.004,85.006C121.043,85.072 121.138,85.078 121.184,85.016L121.364,84.78ZM123.212,76.04C121.789,76.736 120.336,76.972 118.861,76.743C118.668,76.713 118.491,76.861 118.485,77.057L118.485,77.083C118.478,77.289 118.622,77.469 118.825,77.508C120.477,77.832 121.959,77.512 123.271,76.55C123.366,76.481 123.421,76.373 123.421,76.255L123.421,76.17C123.421,76.062 123.31,75.994 123.212,76.04Z" style="fill:white;fill-opacity:0.95;"/>
    <path d="M129.012,74.924C129.022,76.641 128.832,78.369 128.449,80.112C128.41,80.292 128.188,80.354 128.06,80.22C127.507,79.628 127.111,78.872 126.869,77.947C126.836,77.822 126.679,77.786 126.594,77.881L126.486,78.006C126.447,78.048 126.428,78.104 126.437,78.159C126.585,79.373 127.131,80.273 128.076,80.855C128.171,80.911 128.21,81.028 128.168,81.133C127.864,81.849 127.589,82.635 127.35,83.482C127.334,83.541 127.301,83.596 127.245,83.645C127.196,83.694 127.141,83.727 127.079,83.75L127.039,83.629C127.007,83.524 126.935,83.432 126.843,83.371C126.375,83.061 125.981,82.689 125.665,82.245C125.633,82.199 125.572,82.185 125.521,82.213C125.47,82.241 125.45,82.301 125.472,82.353C125.585,82.614 125.747,82.876 125.966,83.135C126.038,83.22 126.035,83.348 125.96,83.429C125.528,83.893 125.342,84.45 125.413,85.114C125.442,85.376 125.767,85.484 125.947,85.288C126.265,84.938 126.484,84.519 126.607,84.031C126.657,83.835 126.856,83.789 127.2,83.891C126.205,86.946 124.972,89.91 123.503,92.782C121.753,96.207 118.223,102.083 113.355,100.002C114.513,99.171 115.253,98.592 115.573,98.262C116.807,96.989 117.467,95.474 117.562,93.714C118.092,93.96 118.671,94.231 119.296,94.529C119.584,94.666 119.927,94.588 120.124,94.339C120.414,93.972 120.251,93.404 119.967,93.063C119.404,92.39 118.665,91.945 117.752,91.729C117.978,90.391 118.11,88.757 119.195,87.842C119.598,87.503 120.172,87.464 120.618,87.744C121.84,88.515 122.829,88.948 123.277,87.07C123.745,85.114 124.052,83.079 124.197,80.969C124.461,77.09 124.376,73.108 123.941,69.029C126.352,70.272 128.59,72.071 129.012,74.924ZM124.203,86.174C124.118,86.158 124.075,86.275 124.151,86.318L125.518,87.11C125.62,87.169 125.724,87.044 125.652,86.953C125.315,86.544 124.831,86.282 124.203,86.174Z" style="fill:white;fill-opacity:0.75;"/>
    <path d="M297.982,73.907C298.208,74.545 298.237,75.261 298.07,76.056C298.061,76.105 298.051,76.144 298.034,76.174C297.989,76.272 297.962,76.354 297.966,76.393C297.982,76.854 297.72,77.966 297.181,79.736C296.301,82.635 295.519,84.833 294.835,86.331C292.758,90.888 290.308,94.922 287.484,98.425C280.281,107.372 271.288,113.48 260.509,116.741C253.276,118.93 245.841,119.558 238.199,118.629C219.595,116.365 203.762,104.706 195.662,87.941C195.537,87.685 195.305,87.496 195.03,87.43L179.161,83.675C179.076,83.655 179.017,83.573 179.027,83.485C179.207,81.961 179.335,80.521 179.407,79.17C179.426,78.81 179.531,78.48 179.721,78.179C180.339,78.235 180.95,78.334 181.556,78.48C187.799,79.99 192.576,81.134 195.894,81.889C195.982,81.909 196.054,81.967 196.094,82.049C199.291,88.74 203.556,94.516 208.917,99.364C219.978,109.367 234.335,114.255 249.334,113.329C263.617,112.446 277.412,105.445 286.667,94.748C291.815,88.797 295.588,81.853 297.982,73.907Z" style="fill:white;fill-opacity:0.25;"/>
    <path d="M123.212,76.04C121.789,76.736 120.336,76.972 118.861,76.743C118.668,76.713 118.491,76.861 118.485,77.057L118.485,77.083C118.478,77.289 118.622,77.469 118.825,77.508C120.477,77.832 121.959,77.512 123.271,76.55C123.366,76.481 123.421,76.373 123.421,76.255L123.421,76.17C123.421,76.062 123.31,75.994 123.212,76.04Z" style="fill:white;fill-opacity:0.15;"/>
    <path d="M120.765,81.077C120.316,81.751 120.184,82.408 120.359,83.053C120.452,83.393 120.892,83.482 121.108,83.204C121.602,82.569 121.854,81.882 121.841,81.143C121.839,81.018 121.943,80.917 122.067,80.924C122.332,80.937 122.545,80.888 122.705,80.773C122.855,80.665 122.761,80.428 122.577,80.449C121.485,80.578 120.317,80.06 119.273,79.893C119.191,79.88 119.106,79.883 119.025,79.903C118.612,80.001 118.335,80.142 118.19,80.325C118.063,80.486 118.217,80.712 118.413,80.652C119.12,80.436 119.876,80.498 120.686,80.829C120.784,80.869 120.824,80.989 120.765,81.077Z" style="fill:white;fill-opacity:0.15;"/>
    <path d="M121.364,84.78C121.367,84.777 121.367,84.771 121.364,84.767C120.569,83.423 119.456,82.572 118.033,82.219C117.965,82.203 117.893,82.245 117.876,82.314L117.853,82.412C117.827,82.533 117.896,82.654 118.014,82.69C119.283,83.063 120.281,83.835 121.004,85.006C121.043,85.072 121.138,85.078 121.184,85.016L121.364,84.78Z" style="fill:white;fill-opacity:0.15;"/>
    <path d="M127.079,83.75L127.2,83.891C126.856,83.789 126.657,83.835 126.607,84.031C126.484,84.519 126.265,84.938 125.947,85.288C125.767,85.484 125.442,85.376 125.413,85.114C125.342,84.45 125.528,83.893 125.96,83.429C126.035,83.348 126.038,83.22 125.966,83.135C125.747,82.876 125.585,82.614 125.472,82.353C125.45,82.301 125.47,82.241 125.521,82.213C125.572,82.185 125.633,82.199 125.665,82.245C125.981,82.689 126.375,83.061 126.843,83.371C126.935,83.432 127.007,83.524 127.039,83.629L127.079,83.75Z" style="fill:white;fill-opacity:0.15;"/>
    <path d="M124.203,86.174C124.118,86.158 124.075,86.275 124.151,86.318L125.518,87.11C125.62,87.169 125.724,87.044 125.652,86.953C125.315,86.544 124.831,86.282 124.203,86.174Z" style="fill:white;fill-opacity:0.15;"/>
    <path d="M100.427,87.182C99.39,87.97 98.435,88.501 97.565,88.768C96.05,89.234 94.267,89.501 92.223,89.57C92.288,89.638 92.383,89.669 92.504,89.668C92.573,89.667 92.612,89.743 92.573,89.799C92.569,89.802 92.553,89.812 92.527,89.822C92.488,89.841 92.478,89.894 92.511,89.926C92.658,90.073 93.616,90.777 95.386,92.04C97.856,93.802 101.582,96.714 106.564,100.767C107.061,99.534 107.725,98.435 108.556,97.473C106.813,96.299 105.553,95.065 104.778,93.773C103.427,91.523 102.053,89.308 100.659,87.126C100.483,87.188 100.404,87.208 100.427,87.182Z" style="fill:white;fill-opacity:0.75;"/>
    <path d="M117.562,93.714C118.092,93.96 118.671,94.231 119.296,94.529C119.584,94.666 119.927,94.588 120.124,94.339C120.414,93.972 120.251,93.404 119.967,93.063C119.404,92.39 118.665,91.945 117.752,91.729C117.085,91.464 115.358,91.402 115.492,92.52C115.528,92.821 115.714,93.034 116.054,93.155C116.535,93.326 117.039,93.512 117.562,93.714Z" style="fill:white;fill-opacity:0.15;"/>
    <path d="M11.284,149.19C13.338,149.255 15.415,149.274 17.519,149.252C18.772,149.238 19.782,149.041 20.95,148.925C21.183,148.901 21.357,148.709 21.359,148.476C21.412,144.063 21.408,139.228 21.402,133.965C21.401,133.7 21.592,133.566 21.968,133.562C20.885,133.484 19.432,133.841 18.471,133.288C17.603,132.788 16.884,132.338 16.308,131.943C15.717,131.537 15.456,130.985 15.517,130.285C15.527,130.167 15.562,130.055 15.618,129.954C16.457,128.453 18.029,129.459 18.988,130.262C19.135,130.385 19.321,130.458 19.514,130.468L21.431,130.569L21.376,115.299C21.372,114.903 21.052,114.585 20.656,114.582L11.254,114.55L11.284,149.19Z" style="fill:white;fill-opacity:0.2;"/>
    <path d="M11.254,114.55C10.358,114.497 9.91,114.821 9.91,115.521C9.908,126.454 9.908,137.39 9.91,148.329C9.91,148.653 10.175,148.913 10.499,148.905C10.744,148.899 11.006,148.993 11.284,149.19L11.254,114.55Z" style="fill:white;fill-opacity:0.1;"/>
    <path d="M83.56,140.174C82.854,144.943 82.67,150.07 83.007,155.556C83.01,155.593 83.027,155.725 83.055,155.923L83.081,156.108C83.262,157.37 83.711,160.309 83.711,160.309C83.675,160.397 83.669,160.488 83.691,160.584C84.377,163.591 85.426,166.406 86.874,169.174C88.013,171.352 88.36,173.136 87.505,175.327C87.394,175.612 87.053,175.725 86.796,175.563C86.555,175.411 86.371,175.157 86.243,174.801C85.869,173.763 85.566,173.031 85.336,172.596C85.16,172.262 84.72,172.179 84.434,172.426C84.17,172.653 83.973,173.018 83.845,173.522C83.484,174.939 83.693,176.47 84.489,178.118C85.218,179.626 85.61,180.46 85.664,180.62C85.704,180.741 85.729,180.862 85.742,180.987C86.013,183.613 82.986,183.293 81.496,182.573C81.172,182.417 80.646,182.109 79.932,181.638C79.834,181.573 79.743,181.494 79.667,181.402C77.294,178.516 76.139,175.216 76.2,171.497C76.233,169.449 76.615,166.335 76.295,163.567C76.175,162.537 75.859,161.071 75.343,159.17L74.669,156.049C73.249,151.362 72.388,147.22 72.084,143.618C71.462,136.251 71.233,128.893 71.653,121.557C71.658,121.462 71.751,121.397 71.842,121.426C76.235,122.825 80.76,123.12 85.415,122.41C85.503,122.397 85.585,122.466 85.582,122.558C85.458,126.365 85.13,130.065 84.561,133.657C84.217,135.829 83.884,138.002 83.56,140.174Z" style="fill:white;fill-opacity:0.75;"/>
    <path d="M108.904,129.272C109.12,132.464 109.27,135.995 109.355,138.78C109.456,142.087 109.286,145.526 108.851,149.101C108.409,152.703 106.724,159.062 106.636,163.652C106.597,165.54 107.097,168.13 106.836,170.195C106.633,171.775 106.384,173.149 106.09,174.323C105.57,176.394 104.546,178.177 103.018,179.672C102.465,180.107 101.831,180.392 101.121,180.529C99.459,180.85 98.824,179.479 99.384,178.17C99.815,177.159 100.077,176.499 100.169,176.188C100.625,174.634 100.067,172.596 99.593,171.019C99.563,170.921 99.439,170.888 99.364,170.96C98.965,171.347 98.566,171.843 98.157,172.445C97.866,172.874 97.493,173.01 97.038,172.851C95.982,172.482 96.377,170.594 96.681,169.835C97.26,168.395 97.8,167.064 98.297,165.837C99.328,163.39 99.939,160.917 100.129,158.418C100.354,155.464 100.345,152.513 100.1,149.562C99.926,147.466 99.536,144.751 98.935,141.414C98.916,141.308 98.857,141.169 98.762,141.001C100.492,136.417 102.272,131.74 102.272,131.74C102.318,131.619 102.42,131.529 102.544,131.498C104.196,131.093 105.722,130.595 107.133,130.059C107.679,129.851 108.268,129.584 108.903,129.254L108.904,129.272Z" style="fill:white;fill-opacity:0.75;"/>
    <path d="M93.453,152.569C94.856,151.345 95.478,149.857 95.68,149.278C96.104,148.066 97.418,144.562 98.762,141.001C98.857,141.169 98.916,141.308 98.935,141.414C99.536,144.751 99.926,147.466 100.1,149.562C100.345,152.513 100.354,155.464 100.129,158.418C99.939,160.917 99.328,163.39 98.297,165.837L93.453,152.569Z" style="fill:white;fill-opacity:0.35;"/>
    <path d="M74.669,156.049C68.224,155.732 61.868,153.883 56.562,150.249C56.533,150.229 56.493,150.233 56.47,150.259C56.447,150.285 56.45,150.325 56.474,150.351C61.054,155.382 68.551,157.93 75.343,159.17L74.669,156.049Z" style="fill:white;fill-opacity:0.5;"/>
    <path d="M103.018,179.672C104.883,185.361 106.623,191.01 108.239,196.62C108.798,198.573 109.171,200.448 109.358,202.247C109.806,206.637 108.605,210.288 105.779,213.837C104.232,215.784 102.661,217.403 101.068,218.695C100.46,219.189 100.093,219.516 99.966,219.67L94.856,223.841C94.843,223.753 94.846,223.664 94.863,223.57C95.54,219.622 96.427,214.386 97.539,207.867C97.796,206.356 97.895,205.172 97.833,204.315C97.517,199.928 96.459,195.381 95.314,191.151C92.605,181.144 89.253,170.979 85.546,160.544C85.512,160.45 85.425,160.384 85.323,160.381L83.711,160.309C83.711,160.309 83.262,157.37 83.081,156.108C85.117,155.825 87.877,155.22 89.557,154.764C91.123,154.335 92.422,153.606 93.453,152.569L98.297,165.837C97.8,167.064 97.26,168.395 96.681,169.835C96.377,170.594 95.982,172.482 97.038,172.851C97.493,173.01 97.866,172.874 98.157,172.445C98.566,171.843 98.965,171.347 99.364,170.96C99.439,170.888 99.563,170.921 99.593,171.019C100.067,172.596 100.625,174.634 100.169,176.188C100.077,176.499 99.815,177.159 99.384,178.17C98.824,179.479 99.459,180.85 101.121,180.529C101.831,180.392 102.465,180.107 103.018,179.672Z" style="fill:white;fill-opacity:0.5;"/>
    <path d="M99.995,241.542C99.999,242.769 99.983,244.012 99.953,245.271C99.918,246.734 101.207,248.379 99.184,249.21C99.086,249.25 91.094,249.93 90.132,250.28C92.105,238.735 93.596,230.115 94.607,224.423C94.634,224.276 94.715,224.08 94.856,223.841L99.966,219.67L99.995,241.542Z" style="fill:white;fill-opacity:0.35;"/>
    <path d="M168.153,286.143C165.18,286.559 162.147,286.945 159.056,287.301C157.077,287.53 155.169,287.753 153.337,287.969C151.983,288.126 150.154,288.338 147.855,288.61C145.983,288.829 144.129,289.045 142.29,289.258C140.376,289.483 138.499,289.703 136.65,289.922C134.75,290.147 132.843,290.37 130.929,290.592C129.094,290.808 127.239,291.024 125.368,291.24C123.559,291.453 121.759,291.662 119.963,291.875C116.277,292.31 114.369,292.532 114.242,292.549C112.263,292.781 110.28,293 108.295,293.2C108.282,293.2 107.912,293.242 107.189,293.327C94.11,294.855 86.782,295.712 85.209,295.898C82.621,296.209 80.806,296.409 79.759,296.5C78.997,296.569 78.208,296.54 77.394,296.412C76.913,296.337 76.19,296.036 75.231,295.509L9.874,259.75C9.615,259.61 9.177,259.319 8.559,258.874C9.645,258.537 10.368,258.348 10.731,258.311C22.847,257.089 34.144,255.893 44.635,254.791C45.731,254.673 46.771,254.721 47.785,254.487C48.07,254.421 48.364,254.533 48.534,254.768C51.103,258.327 53.768,261.988 56.526,265.753C57.53,267.124 58.94,267.745 60.762,267.624C62.647,267.215 63.985,266.088 64.766,264.235C64.809,264.134 64.835,264.029 64.845,263.925C64.939,262.936 64.943,262.204 64.858,261.723C64.548,259.973 63.819,257.829 62.97,255.897C62.575,254.997 62.176,254.097 61.773,253.191C62.156,252.985 74.279,251.664 74.279,251.664L73.779,255.933C73.769,256.018 73.828,256.093 73.913,256.103L75.444,256.279C75.595,256.466 75.686,256.639 75.719,256.793C75.395,257.058 75.241,257.307 75.264,257.539C75.34,258.311 75.355,270.022 75.303,270.359C75.155,271.321 75.608,272.456 76.121,273.166C76.223,273.307 76.37,273.411 76.537,273.46C76.537,273.46 80.233,273.832 81.146,273.935C83.862,274.241 90.44,274.412 91.657,274.445L97.954,274.484C99.645,274.494 100.829,273.771 101.51,272.319C101.866,271.308 101.977,270.232 101.844,269.09C101.63,267.265 100.568,266.149 98.798,265.384C96.806,264.523 95.223,263.944 94.051,263.65C91.742,263.07 90.165,262.684 89.324,262.485C88.307,262.245 87.71,261.746 87.541,260.98C87.436,260.5 87.074,257.873 87.312,257.261L88.791,257.284C88.883,257.287 88.958,257.222 88.974,257.133L90.132,250.28C91.094,249.93 99.086,249.25 99.184,249.21C101.207,248.379 99.918,246.734 99.953,245.271C99.983,244.012 99.999,242.769 99.995,241.542C100.895,241.274 167.1,233.308 167.895,233.266C167.928,258.151 167.928,274.013 167.898,280.847C167.888,283.032 167.973,284.799 168.153,286.143Z" style="fill:white;fill-opacity:0.15;"/>
    <path d="M56.837,238.886C53.987,240.891 51.472,243.205 49.293,245.831C48.413,246.891 47.997,247.928 48.053,248.945C48.105,249.894 48.552,251.005 49.391,252.279C49.643,252.661 51.986,256.374 56.425,263.417C57.589,265.266 59.035,266.666 60.762,267.624C62.647,267.215 63.985,266.088 64.766,264.235C64.809,264.134 64.835,264.029 64.845,263.925C64.939,262.936 64.943,262.204 64.858,261.723C64.548,259.973 63.819,257.829 62.97,255.897C62.575,254.997 62.176,254.097 61.773,253.191L60.674,250.62C60.631,250.519 60.651,250.401 60.73,250.322L62.99,248.055L56.837,238.886Z" style="fill:white;fill-opacity:0.3;"/>
    <path d="M61.773,253.191C62.156,252.985 74.279,251.664 74.279,251.664L75.46,239.975L64.256,249.197C64.142,249.292 63.975,249.272 63.88,249.158L62.99,248.055L60.73,250.322C60.651,250.401 60.631,250.519 60.674,250.62L61.773,253.191Z" style="fill:white;fill-opacity:0.35;"/>
    <path d="M75.444,256.279C75.595,256.466 75.686,256.639 75.719,256.793C76.128,256.989 76.137,257.513 76.262,258.098C76.353,258.527 76.389,258.965 76.37,259.4C76.242,262.312 76.507,265.207 77.158,268.089C77.77,270.794 79.478,271.488 82.055,271.795C84.057,272.034 88.48,272.528 95.327,273.264C97.558,273.504 99.619,273.189 101.51,272.319C101.866,271.308 101.977,270.232 101.844,269.09C101.63,267.265 100.568,266.149 98.798,265.384C96.806,264.523 95.223,263.944 94.051,263.65C91.742,263.07 90.165,262.684 89.324,262.485C88.307,262.245 87.71,261.746 87.541,260.98C87.436,260.5 87.074,257.873 87.312,257.261L75.444,256.279Z" style="fill:white;fill-opacity:0.3;"/>
    <path d="M75.719,256.793C75.395,257.058 75.241,257.307 75.264,257.539C75.34,258.311 75.355,270.022 75.303,270.359C75.155,271.321 75.608,272.456 76.121,273.166C76.223,273.307 76.37,273.411 76.537,273.46C76.537,273.46 80.233,273.832 81.146,273.935C83.862,274.241 90.44,274.412 91.657,274.445L97.954,274.484C99.645,274.494 100.829,273.771 101.51,272.319C99.619,273.189 97.558,273.504 95.327,273.264C88.48,272.528 84.057,272.034 82.055,271.795C79.478,271.488 77.77,270.794 77.158,268.089C76.507,265.207 76.242,262.312 76.37,259.4C76.389,258.965 76.353,258.527 76.262,258.098C76.137,257.513 76.128,256.989 75.719,256.793Z" style="fill:white;fill-opacity:0.25;"/>
    <path d="M21.968,133.562L30.653,133.526C31.425,133.523 32.053,132.885 32.06,132.097L32.06,132.041C32.066,131.266 31.448,130.635 30.679,130.628L21.431,130.569L19.514,130.468C19.321,130.458 19.135,130.385 18.988,130.262C18.029,129.459 16.457,128.453 15.618,129.954C15.562,130.055 15.527,130.167 15.517,130.285C15.456,130.985 15.717,131.537 16.308,131.943C16.884,132.338 17.603,132.788 18.471,133.288C19.432,133.841 20.885,133.484 21.968,133.562Z" style="fill:white;fill-opacity:0.15;"/>
    <path d="M99.999,59.824L99.151,60.942C99.122,60.978 99.099,61.021 99.083,61.067L97.839,64.322C97.813,64.394 97.774,64.459 97.725,64.515C96.243,66.228 93.622,66.667 92.38,68.581C91.074,70.592 90.932,73.921 92.596,75.84C93.625,77.028 94.929,78.055 94.944,79.828C94.968,82.494 94.435,84.474 97.067,86.118C97.522,86.403 98.071,86.686 98.716,86.966C98.929,87.058 99.155,87.113 99.384,87.126L100.427,87.182C100.404,87.208 100.483,87.188 100.659,87.126C102.455,86.086 103.854,84.506 104.843,82.383C105.171,81.68 105.209,81.264 104.925,80.515C104.39,79.099 104.361,77.666 104.827,76.223C105.293,74.781 106.669,73.623 108.229,74.044C109.018,74.257 109.689,74.987 110.388,75.434C110.512,75.514 110.647,75.569 110.787,75.601C114.032,76.351 115.828,71.244 116.738,69.245C117.421,67.743 118.57,67.141 120.176,67.436C121.638,67.704 122.895,68.234 123.941,69.029C126.352,70.272 128.59,72.071 129.012,74.924C131.534,74.446 133.114,74.083 133.752,73.831C135.937,72.974 138.744,71.146 138.793,68.447C138.816,67.328 138.482,66.399 137.795,65.663C135.954,63.687 133.716,61.835 131.083,60.105C129.032,58.76 126.81,57.831 124.412,57.321C121.71,56.749 118.998,56.948 116.28,57.923C114.592,58.528 112.315,59.797 110.585,59.176C109.551,58.806 108.586,58.6 107.689,58.561C106.005,58.486 104.107,58.607 102.001,58.924C101.546,58.993 100.879,59.29 99.999,59.824Z" style="fill:white;fill-opacity:0.3;"/>
    <path d="M89.557,154.764C87.877,155.22 85.117,155.825 83.081,156.108L83.055,155.923C83.027,155.725 83.01,155.593 83.007,155.556C82.67,150.07 82.854,144.943 83.56,140.174C83.884,138.002 84.217,135.829 84.561,133.657C85.13,130.065 85.458,126.365 85.582,122.558C85.585,122.466 85.503,122.397 85.415,122.41C80.76,123.12 76.235,122.825 71.842,121.426C71.751,121.397 71.658,121.462 71.653,121.557C71.233,128.893 71.462,136.251 72.084,143.618C72.388,147.22 73.249,151.362 74.669,156.049C68.224,155.732 61.868,153.883 56.562,150.249C56.533,150.229 56.493,150.233 56.47,150.259C56.447,150.285 56.45,150.325 56.474,150.351C61.054,155.382 68.551,157.93 75.343,159.17C75.859,161.071 76.175,162.537 76.295,163.567C76.615,166.335 76.233,169.449 76.2,171.497C76.139,175.216 77.294,178.516 79.667,181.402C79.743,181.494 79.834,181.573 79.932,181.638C80.646,182.109 81.172,182.417 81.496,182.573C82.986,183.293 86.013,183.613 85.742,180.987C85.729,180.862 85.704,180.741 85.664,180.62C85.61,180.46 85.218,179.626 84.489,178.118C83.693,176.47 83.484,174.939 83.845,173.522C83.973,173.018 84.17,172.653 84.434,172.426C84.72,172.179 85.16,172.262 85.336,172.596C85.566,173.031 85.869,173.763 86.243,174.801C86.371,175.157 86.555,175.411 86.796,175.563C87.053,175.725 87.394,175.612 87.505,175.327C88.36,173.136 88.013,171.352 86.874,169.174C85.426,166.406 84.377,163.591 83.691,160.584C83.669,160.488 83.675,160.397 83.711,160.309L85.323,160.381C85.425,160.384 85.512,160.45 85.546,160.544C89.253,170.979 92.605,181.144 95.314,191.151C96.459,195.381 97.517,199.928 97.833,204.315C97.895,205.172 97.796,206.356 97.539,207.867C96.427,214.386 95.54,219.622 94.863,223.57C94.846,223.664 94.843,223.753 94.856,223.841C94.715,224.08 94.634,224.276 94.607,224.423C93.596,230.115 92.105,238.735 90.132,250.28L88.974,257.133C88.958,257.222 88.883,257.287 88.791,257.284L87.312,257.261L75.444,256.279L73.913,256.103C73.828,256.093 73.769,256.018 73.779,255.933L74.279,251.664L75.46,239.975L78.549,212.071L78.764,211.103C78.784,211.017 78.774,210.929 78.738,210.847C76.941,206.759 75.105,202.845 73.216,199.107C72.301,197.294 71.162,195.325 69.801,193.199C64.223,184.484 59.337,175.804 55.793,166.325C54.21,162.091 52.945,157.518 52.663,153.122C52.597,152.108 52.401,150.635 52.506,149.278C52.834,145.002 53.458,140.419 54.38,135.525C55.512,129.516 57.015,124.098 58.891,119.267C60.892,114.114 63.274,109.03 66.036,104.016C68.531,99.485 71.744,94.827 75.84,91.654C78.918,89.269 82.193,88.069 85.66,88.062C87.764,88.057 89.949,88.559 92.223,89.57C92.288,89.638 92.383,89.669 92.504,89.668C92.573,89.667 92.612,89.743 92.573,89.799C92.569,89.802 92.553,89.812 92.527,89.822C92.488,89.841 92.478,89.894 92.511,89.926C92.658,90.073 93.616,90.777 95.386,92.04C97.856,93.802 101.582,96.714 106.564,100.767C106.427,100.872 109.391,106.859 110.015,109.878C111.075,115.03 111.694,120.314 111.873,125.728C111.877,125.806 111.847,125.885 111.795,125.947L108.998,129.094C108.962,129.133 108.936,129.179 108.919,129.228L108.904,129.272L108.903,129.254C108.268,129.584 107.679,129.851 107.133,130.059C105.722,130.595 104.196,131.093 102.544,131.498C102.42,131.529 102.318,131.619 102.272,131.74C102.272,131.74 96.65,146.507 95.68,149.278C95.478,149.857 94.856,151.345 93.453,152.569C92.422,153.606 91.123,154.335 89.557,154.764Z" style="fill:white;fill-opacity:0.95;"/>
    <path d="M78.549,212.071L55.322,235.739C55.191,235.87 55.168,236.073 55.263,236.233L56.837,238.886L62.99,248.055L63.88,249.158C63.975,249.272 64.142,249.292 64.256,249.197L75.46,239.975L78.549,212.071Z" style="fill:white;fill-opacity:0.5;"/>
    <path d="M55.218,236.122L25.729,239.627C25.343,239.673 24.956,239.552 24.665,239.293C24.374,239.035 24.208,238.665 24.208,238.276L24.208,133.553L26.929,133.542L26.929,145.841L53.176,142.957C53.051,143.895 52.938,144.82 52.838,145.732L26.929,148.579L26.929,236.744L57.955,233.056L55.322,235.739C55.22,235.841 55.184,235.987 55.218,236.122ZM24.208,130.587L24.208,42.37C24.208,41.655 24.763,41.061 25.477,41.013L90.942,36.581C91.321,36.555 91.694,36.689 91.969,36.95C92.245,37.211 92.399,37.576 92.395,37.956L91.997,69.278C91.234,70.931 91.128,73.127 91.926,74.808L91.742,89.363C90.824,88.982 89.921,88.685 89.031,88.471L89.655,39.396L26.929,43.642L26.929,130.604L24.208,130.587Z" style="fill:white;fill-opacity:0.2;"/>
    <path d="M259.295,58.62C257.912,55.312 256.027,52.44 253.643,50.003C251.592,47.909 249.256,46.836 246.632,46.784C245.134,46.755 243.737,47.275 242.815,48.364C242.432,48.812 242.2,49.084 242.118,49.175C242.046,49.254 241.935,49.283 241.833,49.254L237.917,48.119C237.737,48.066 237.551,48.168 237.499,48.348L237.469,48.443C237.427,48.596 237.515,48.757 237.666,48.799L241.081,49.79C241.408,49.885 241.598,50.222 241.513,50.549C240.927,52.823 241.477,54.668 243.168,56.088C244.676,57.357 246.351,58.132 248.193,58.417C251.055,58.859 254.195,58.921 257.614,58.597C258.124,58.548 258.628,58.672 259.138,58.803C259.246,58.832 259.338,58.724 259.295,58.62Z" style="fill:white;fill-opacity:0.25;"/>
    <path d="M211.335,61.78C211.39,61.852 211.495,61.865 211.57,61.813C214.289,59.83 220.301,58.336 225.817,58.155C236.415,57.807 247.712,63.631 251.382,65.221C253.194,66.003 254.55,66.455 255.412,66.703C259.857,67.983 263.915,68.012 266.591,67.77C270.415,67.423 273.27,65.71 275.59,62.977C277.924,60.229 277.729,56.66 277.563,55.273C277.281,52.973 276.323,51.096 274.69,49.647C272.953,48.106 270.215,47.975 268.095,48.364C264.674,48.992 261.764,52.713 263.939,56.056C264.924,57.564 266.414,57.992 268.275,57.422C268.311,57.409 268.334,57.373 268.328,57.337C268.324,57.298 268.292,57.269 268.252,57.269C267.109,57.337 266.476,57.269 266.047,57.102C264.094,56.342 263.617,54.063 264.418,52.201C265.259,50.258 267.558,49.362 269.643,49.362C274.874,49.362 277.122,53.939 275.78,58.911C274.321,64.316 268.171,66.304 265.374,66.386C263.054,66.455 259.839,66.524 255.589,65.1C249.251,62.977 232.74,53.356 219.608,57.298C216.651,58.186 213.896,59.588 211.358,61.551C211.289,61.603 211.276,61.705 211.331,61.773L211.335,61.78Z" style="fill:white;fill-opacity:0.25;"/>
    <path d="M224.675,52.067C226.281,52.502 228.117,52.355 229.271,50.998C229.379,50.87 229.333,50.674 229.18,50.608C227.348,49.817 225.814,50.199 224.574,51.757C224.485,51.864 224.538,52.028 224.675,52.067Z" style="fill:white;fill-opacity:0.25;"/>
    <path d="M228.061,62.114C226.033,62.263 223.767,62.428 222.215,63.376C222.114,63.438 221.983,63.402 221.927,63.301L221.207,62.061C221.119,61.911 220.923,61.868 220.782,61.973C220.182,62.422 219.62,62.872 219.097,63.314C216.913,65.163 215.85,67.495 215.918,70.298C215.921,70.423 215.97,70.635 216.062,70.94C216.117,71.123 216.039,71.319 215.875,71.414L212.643,73.279C212.457,73.383 212.431,73.642 212.591,73.782L212.715,73.894C212.83,73.995 212.993,74.011 213.127,73.936L215.996,72.281C216.157,72.189 216.359,72.251 216.438,72.415C218.007,75.68 221.823,76.804 225.208,76.628C225.29,76.624 226.088,76.545 227.603,76.403C227.783,76.386 227.855,76.164 227.721,76.046L226.919,75.333C226.684,75.124 226.776,74.735 227.08,74.652C228.962,74.139 230.65,73.377 232.147,72.389C232.261,72.313 232.271,72.153 232.17,72.062L230.043,70.171C229.988,70.125 229.992,70.037 230.05,69.994C231.585,68.858 232.927,67.445 234.096,65.79C234.189,65.66 234.126,65.479 233.972,65.434C231.873,64.812 229.975,64.501 228.283,64.515C228.015,64.517 227.816,64.266 227.878,64.004L228.267,62.356C228.296,62.225 228.195,62.104 228.061,62.114Z" style="fill:white;fill-opacity:0.25;"/>
    <path d="M251.284,68.987C252.478,69.484 253.649,70.184 255.089,70.763C258.697,72.209 262.58,72.843 266.731,72.67C269.051,72.572 271.312,72.059 273.14,71.11C278.148,68.507 279.162,63.873 279.149,63.733C279.129,63.55 278.881,63.514 278.809,63.68C278.809,63.68 276.162,68.987 270.709,70.684C267.763,71.602 264.543,71.581 261.18,71.087C259.168,70.789 255.883,70.04 251.33,68.839C251.297,68.83 251.261,68.846 251.251,68.879L251.245,68.895C251.232,68.931 251.248,68.973 251.284,68.987Z" style="fill:white;fill-opacity:0.25;"/>
    <path d="M245.441,69.664C243.436,69.291 241.205,69.651 239.929,71.424C239.811,71.591 239.887,71.823 240.08,71.888C242.396,72.677 244.234,72.058 245.595,70.033C245.69,69.889 245.612,69.696 245.441,69.664Z" style="fill:white;fill-opacity:0.25;"/>
</svg>
