<?xml version="1.0" encoding="UTF-8" standalone="no"?>
<!DOCTYPE svg PUBLIC "-//W3C//DTD SVG 1.1//EN" "http://www.w3.org/Graphics/SVG/1.1/DTD/svg11.dtd">
<svg width="100%" height="100%" viewBox="0 0 300 300" version="1.1" xmlns="http://www.w3.org/2000/svg" xmlns:xlink="http://www.w3.org/1999/xlink" xml:space="preserve" xmlns:serif="http://www.serif.com/" style="fill-rule:evenodd;clip-rule:evenodd;stroke-linejoin:round;stroke-miterlimit:2;">
    <path d="M99.926,44.935C98.524,42.725 96.788,40.026 95.03,37.389C103.294,34.528 111.922,32.449 120.824,31.24L120.824,16.886L114.599,16.886C112.269,16.886 110.378,14.995 110.378,12.665L110.378,4.222C110.378,1.892 112.269,0 114.599,0L136.033,0C133.703,0 131.811,1.892 131.811,4.222L131.811,12.665C131.811,14.995 133.703,16.886 136.033,16.886L142.258,16.886L142.258,31.652C127.214,33.737 112.961,38.307 99.926,44.935Z" style="fill:white;fill-opacity:0.15;"/>
    <path d="M61.342,74.32C45.786,91.352 34.538,112.383 29.328,135.683C29.179,136.249 29.037,136.91 28.903,137.653C27.055,146.543 26.084,155.752 26.084,165.186C26.084,171.855 26.569,178.412 27.507,184.823C27.566,185.314 27.63,185.741 27.699,186.097C37.096,246.333 86.434,293.414 147.738,299.365C144.882,299.545 142.003,299.637 139.102,299.637C64.696,299.637 4.288,239.229 4.288,164.823C4.288,129.763 17.7,97.812 39.668,73.823C37.585,71.299 32.143,64.621 29.093,60.095C25.266,54.417 24.12,50.804 27.759,47.891C27.759,47.891 41.916,34.901 56.865,26.763C56.865,26.763 76.124,25.251 81.793,25.559C79.65,25.759 78.128,26.763 78.128,26.763C63.179,34.901 49.022,47.891 49.022,47.891C45.382,50.804 46.529,54.417 50.356,60.095C53.636,64.962 59.681,72.317 61.342,74.32Z" style="fill:white;fill-opacity:0.15;"/>
    <path d="M221.834,44.917C216.446,42.179 210.849,39.793 205.074,37.788C206.408,35.751 207.775,33.741 208.974,32.133C212.929,26.829 232.411,22.895 238.855,25.885C235.998,25.504 233.444,27.832 230.237,32.133C227.515,35.782 223.931,41.496 221.834,44.917Z" style="fill:white;fill-opacity:0.15;"/>
    <path d="M142.258,31.652L142.258,16.886L180.38,16.886L180.38,31.772C174.018,30.849 167.514,30.372 160.898,30.372C154.574,30.372 148.351,30.808 142.258,31.652Z" style="fill:white;fill-opacity:0.25;"/>
    <path d="M189.259,4.222L189.259,12.665C189.259,14.995 187.368,16.886 185.038,16.886L136.033,16.886C133.703,16.886 131.811,14.995 131.811,12.665L131.811,4.222C131.811,1.892 133.703,0 136.033,0L185.038,0C187.368,0 189.259,1.892 189.259,4.222Z" style="fill:white;fill-opacity:0.6;"/>
    <circle cx="158.383" cy="167.687" r="10.052" style="fill:white;fill-opacity:0.25;"/>
    <path d="M158.192,157.637L159.549,68.619C174.446,68.778 189.121,72.099 202.582,78.358L163.864,159.262C162.287,158.233 160.404,157.635 158.383,157.635C158.319,157.635 158.256,157.635 158.192,157.637Z" style="fill:white;fill-opacity:0.65;"/>
    <path d="M47.44,162.95C47.746,144.109 52.669,126.381 61.126,110.851L68.119,114.888L70.546,110.685L63.538,106.639C72.946,90.999 86.03,77.815 101.591,68.287L105.406,74.896L109.609,72.469L105.783,65.842C122.01,56.84 140.679,51.712 160.535,51.712C180.375,51.712 199.028,56.831 215.246,65.819L210.786,73.543L214.989,75.97L219.439,68.262C235.066,77.821 248.197,91.066 257.62,106.784L250.158,111.092L252.585,115.295L260.026,110.999C268.433,126.494 273.326,144.169 273.631,162.95L265.419,162.95L265.419,167.803L273.608,167.803C273.122,186.534 268.074,204.138 259.534,219.544L253.43,216.019L251.003,220.222L257.09,223.737C247.583,239.276 234.429,252.348 218.824,261.758L215.33,255.707L211.127,258.133L214.615,264.174C199.211,272.584 181.64,277.515 162.962,277.908L162.962,270.19L158.109,270.19L158.109,277.908C139.292,277.512 121.598,272.51 106.112,263.986L109.625,257.9L105.423,255.474L101.912,261.555C86.505,252.191 73.507,239.251 64.075,223.891L70.429,220.222L68.003,216.019L61.625,219.701C53.032,204.259 47.95,186.598 47.463,167.803L55.139,167.803L55.139,162.95L47.44,162.95ZM162.962,51.773L158.109,51.773L158.109,60.932L162.962,60.932L162.962,51.773ZM158.192,157.637C152.732,157.738 148.331,162.202 148.331,167.687C148.331,173.234 152.835,177.738 158.383,177.738C163.93,177.738 168.435,173.234 168.435,167.687C168.435,164.16 166.615,161.056 163.864,159.262L202.582,78.358C189.121,72.099 174.446,68.778 159.549,68.619L158.192,157.637Z" style="fill:white;fill-opacity:0.95;"/>
    <path d="M27.507,184.823C26.569,178.412 26.084,171.855 26.084,165.186C26.084,155.752 27.055,146.543 28.903,137.653C29.04,136.995 29.181,136.338 29.328,135.683C34.538,112.383 45.786,91.352 61.342,74.32C72.276,62.349 85.337,52.354 99.926,44.935C112.961,38.307 127.214,33.737 142.258,31.652C148.351,30.808 154.574,30.372 160.898,30.372C176.368,30.372 191.232,32.983 205.074,37.788C210.849,39.793 216.446,42.179 221.834,44.917C265.657,67.184 295.712,112.703 295.712,165.186C295.712,239.592 235.304,300 160.898,300C156.458,300 152.068,299.785 147.738,299.365C86.434,293.414 37.096,246.333 27.699,186.097C27.633,185.673 27.569,185.249 27.507,184.823ZM160.535,51.712C98.108,51.712 47.425,102.395 47.425,164.823C47.425,227.251 98.108,277.934 160.535,277.934C222.963,277.934 273.646,227.251 273.646,164.823C273.646,102.395 222.963,51.712 160.535,51.712Z" style="fill:white;fill-opacity:0.6;"/>
    <path d="M47.44,162.95L55.139,162.95L55.139,167.803L47.463,167.803C47.437,166.813 47.425,165.82 47.425,164.823C47.425,164.198 47.43,163.573 47.44,162.95ZM61.625,219.701L68.003,216.019L70.429,220.222L64.075,223.891C63.229,222.513 62.412,221.117 61.625,219.701ZM101.912,261.555L105.423,255.474L109.625,257.9L106.112,263.986C104.693,263.205 103.293,262.394 101.912,261.555ZM158.109,277.908L158.109,270.19L162.962,270.19L162.962,277.908C162.155,277.925 161.346,277.934 160.535,277.934C159.725,277.934 158.916,277.925 158.109,277.908ZM214.615,264.174L211.127,258.133L215.33,255.707L218.824,261.758C217.44,262.592 216.037,263.398 214.615,264.174ZM257.09,223.737L251.003,220.222L253.43,216.019L259.534,219.544C258.749,220.96 257.934,222.358 257.09,223.737ZM273.608,167.803L265.419,167.803L265.419,162.95L273.631,162.95C273.641,163.573 273.646,164.198 273.646,164.823C273.646,165.82 273.633,166.813 273.608,167.803ZM260.026,110.999L252.585,115.295L250.158,111.092L257.62,106.784C258.451,108.17 259.253,109.575 260.026,110.999ZM219.439,68.262L214.989,75.97L210.786,73.543L215.246,65.819C216.662,66.604 218.061,67.419 219.439,68.262ZM105.783,65.842L109.609,72.469L105.406,74.896L101.591,68.287C102.969,67.443 104.367,66.628 105.783,65.842ZM63.538,106.639L70.546,110.685L68.119,114.888L61.126,110.851C61.9,109.428 62.705,108.024 63.538,106.639ZM162.962,51.773L162.962,60.932L158.109,60.932L158.109,51.773L162.962,51.773Z" style="fill:white;fill-opacity:0.25;"/>
    <path d="M61.342,74.32C59.681,72.317 53.636,64.962 50.356,60.095C46.529,54.417 45.382,50.804 49.022,47.891C49.022,47.891 63.179,34.901 78.128,26.763C78.128,26.763 84.014,22.877 88.938,28.874C91.925,32.512 96.772,39.962 99.926,44.935C85.337,52.354 72.276,62.349 61.342,74.32ZM221.834,44.917C223.931,41.496 227.515,35.782 230.237,32.133C234.33,26.644 237.361,24.367 241.313,26.838C241.313,26.838 258.254,35.904 270.877,47.321C270.877,47.321 276.491,51.591 272.459,58.221C269.922,62.393 264.177,69.809 260.534,74.407C249.575,62.388 236.473,52.355 221.834,44.917Z" style="fill:white;fill-opacity:0.39;"/>
</svg>
