<?xml version="1.0" encoding="UTF-8" standalone="no"?>
<!DOCTYPE svg PUBLIC "-//W3C//DTD SVG 1.1//EN" "http://www.w3.org/Graphics/SVG/1.1/DTD/svg11.dtd">
<svg width="100%" height="100%" viewBox="0 0 300 300" version="1.1" xmlns="http://www.w3.org/2000/svg" xmlns:xlink="http://www.w3.org/1999/xlink" xml:space="preserve" xmlns:serif="http://www.serif.com/" style="fill-rule:evenodd;clip-rule:evenodd;stroke-linejoin:round;stroke-miterlimit:2;">
    <path d="M24.39,29.42C24.713,28.803 25.098,28.186 25.552,27.566C30.674,20.528 36.985,14.505 44.382,10.351C56.924,3.31 70.194,1.114 84.189,3.764C90.979,5.049 97.348,7.513 103.296,11.157C129.157,27.005 138.519,60.1 124.456,87.163C120.472,94.827 115.075,101.245 108.262,106.423C108.086,106.557 107.968,106.756 107.936,106.978C107.652,109.008 106.764,115.223 105.27,125.625C105.257,125.713 105.185,125.704 105.055,125.593L90.678,115.723C90.59,115.664 90.482,115.647 90.381,115.677C78.841,119.107 67.362,119.152 55.88,115.592C29.434,107.396 12.623,81.338 15.737,53.839C16.709,45.254 19.594,37.117 24.39,29.42ZM50.261,36.761C50.07,38.48 50.096,40.275 50.33,42.142C50.625,44.504 51.238,47.157 51.377,49.496C51.692,54.783 50.39,71.482 50.487,73.103C50.489,73.13 50.491,73.153 50.493,73.171C51.216,78.761 52.938,83.876 55.661,88.523C55.816,88.787 55.978,89.041 56.148,89.285C57.232,90.837 58.637,92.005 60.366,92.778C60.471,92.825 60.577,92.871 60.683,92.918C61.603,93.317 62.599,93.691 63.672,94.04C63.902,94.115 64.137,94.189 64.375,94.262C64.729,94.37 65.092,94.476 65.463,94.579C67.45,95.132 69.215,95.489 70.765,95.649C73.431,95.926 76.218,95.899 79.128,95.568C80.694,95.389 81.973,95.062 82.962,94.586C84.231,93.975 85.308,93.215 86.198,92.298C89.817,88.573 92.655,84.307 94.715,79.505C95.168,78.447 95.385,77.456 95.785,76.493C96.02,75.926 96.235,75.159 96.431,74.189C97.021,71.266 97.192,68.554 97.775,65.863C97.889,65.337 98.137,64 98.516,61.853C98.947,59.409 99.758,56.713 100.937,53.754C101.13,53.268 101.711,51.976 102.676,49.875C103.695,47.653 104.321,45.252 104.523,42.667C104.547,42.357 104.501,42.048 104.395,41.757C100.304,30.116 57.887,24.652 51.021,34.546C50.613,35.116 50.362,35.857 50.261,36.761Z" style="fill:white;"/>
    <path d="M105.055,125.593C105.002,126.079 104.816,126.49 104.497,126.823C103.081,128.288 102.085,129.329 101.511,129.939C101.407,130.046 101.24,130.066 101.116,129.981L86.799,120.222C86.678,120.14 86.525,120.114 86.381,120.157C76.191,123.175 66.158,123.544 56.278,121.256C39.996,117.488 26.172,106.91 18.259,92.139C10.291,77.266 9.381,59.5 15.538,43.75C15.952,42.686 16.533,41.385 17.28,39.841C18.102,38.141 18.768,36.879 19.274,36.047C20.243,34.458 20.993,33.254 21.525,32.435C22.204,31.394 22.85,30.571 23.467,29.971C23.695,29.752 24.002,29.566 24.39,29.42C19.594,37.117 16.709,45.254 15.737,53.839C12.623,81.338 29.434,107.396 55.88,115.592C67.362,119.152 78.841,119.107 90.381,115.677C90.482,115.647 90.59,115.664 90.678,115.723L105.055,125.593Z" style="fill:white;fill-opacity:0.25;"/>
    <path d="M61.054,84.395C61.435,88.308 61.078,91.139 60.683,92.918L60.366,92.778C58.637,92.005 57.232,90.837 56.148,89.285C55.978,89.041 55.816,88.787 55.661,88.523C52.938,83.876 51.216,78.761 50.493,73.171L50.487,73.103C50.391,71.496 51.723,55.295 51.377,49.496C51.238,47.157 50.625,44.504 50.33,42.142C50.096,40.275 50.07,38.48 50.261,36.761C50.362,35.857 50.621,35.122 51.021,34.546C57.887,24.652 100.304,30.116 104.395,41.757C104.501,42.048 104.547,42.357 104.523,42.667C104.321,45.252 103.695,47.653 102.676,49.875C101.711,51.976 101.13,53.268 100.937,53.754C99.758,56.713 98.947,59.409 98.516,61.853C98.137,64 97.889,65.337 97.775,65.863C97.192,68.554 97.021,71.266 96.431,74.189C96.235,75.159 96.02,75.926 95.785,76.493C95.385,77.456 95.168,78.447 94.715,79.505C92.655,84.307 89.817,88.573 86.198,92.298C85.308,93.215 84.231,93.975 82.962,94.586C81.973,95.062 80.694,95.389 79.128,95.568C76.218,95.899 73.431,95.926 70.765,95.649C69.215,95.489 67.45,95.132 65.463,94.579C65.092,94.476 64.729,94.37 64.375,94.262C64.137,94.189 63.902,94.115 63.672,94.04C63.334,91.943 63.61,89.101 64.074,86.216C65.378,86.834 66.868,87.359 68.57,87.761C74.146,89.076 77.527,88.748 79.613,87.523C81.746,86.617 83.668,85.396 85.396,83.906C85.559,83.766 86.254,83.064 87.481,81.805C88.982,80.265 89.576,79.156 91.041,76.917C91.879,75.635 92.53,74.353 92.988,73.064C93.456,71.749 93.934,70.806 94.316,69.367C94.831,67.429 95.319,65.84 95.772,64.597C96.082,63.745 96.281,62.92 96.366,62.12C96.366,62.104 96.369,62.091 96.372,62.074L96.806,60.544L97.025,59.572C97.292,58.534 95.348,56.856 94.578,56.449C93.4,55.828 91.97,55.154 90.271,54.459C86.934,53.095 84.519,52.585 80.603,51.8C78.952,51.468 77.555,51.247 76.413,51.141C74.831,50.993 73.421,50.821 72.191,50.625C72.028,50.599 71.877,50.726 71.874,50.893L71.875,50.691C71.88,49.694 71.939,48.732 72.003,47.828C73.42,48.086 74.882,48.308 76.379,48.488C90.472,50.186 102.393,47.583 102.984,42.68C103.574,37.776 92.612,32.417 78.52,30.719C64.427,29.022 52.506,31.625 51.915,36.528C51.513,39.869 56.472,43.42 64.129,45.882C63.869,47.449 63.693,49.305 63.554,50.533L63.538,50.677C63.515,50.521 63.359,50.423 63.208,50.468C62.625,50.644 61.965,50.736 61.231,50.746C59.609,50.768 57.642,51.202 56.647,51.408C55.593,51.626 55.051,51.96 54.027,52.625C53.142,53.2 52.839,54.015 53.123,55.069C52.93,56.869 54.406,71.644 55.485,75.219C56.021,78.133 57.479,81.681 61.054,84.395Z" style="fill:white;fill-opacity:0.75;"/>
    <path d="M50.487,73.103C50.39,71.482 51.692,54.783 51.377,49.496C51.723,55.295 50.391,71.496 50.487,73.103Z" style="fill:white;fill-opacity:0.75;"/>
    <path d="M71.875,50.691C71.317,50.628 70.712,50.587 69.951,50.553C67.43,50.44 65.186,50.385 63.554,50.533C63.693,49.305 63.869,47.449 64.129,45.882C66.518,46.65 69.17,47.312 72.003,47.828C71.939,48.732 71.88,49.694 71.875,50.691Z" style="fill:white;fill-opacity:0.85;"/>
    <path d="M71.875,50.691C71.874,50.758 71.874,50.825 71.874,50.893C71.854,52.279 71.695,53.663 71.372,55.043L71.088,56.253C70.48,58.842 70.117,60.354 69.998,60.795C69.933,61.04 69.685,61.193 69.434,61.145L63.841,60.042C63.495,59.973 63.256,59.657 63.283,59.308C63.353,58.432 63.414,57.603 63.467,56.821C63.552,55.589 63.618,54.473 63.675,53.474C63.727,52.557 63.679,51.624 63.538,50.677C63.543,50.63 63.549,50.582 63.554,50.533C65.186,50.385 67.43,50.44 69.951,50.553C70.712,50.587 71.317,50.628 71.875,50.691Z" style="fill:white;fill-opacity:0.75;"/>
    <path d="M60.958,83.522C60.894,82.991 60.816,82.442 60.724,81.874C60.716,80.818 60.701,79.868 60.683,79.028C60.631,76.578 60.861,74.268 61.14,72.29C61.689,68.388 62.365,64.379 63.146,60.257C63.219,59.875 62.98,59.504 62.601,59.415C60.156,58.84 57.8,57.895 55.521,56.603C54.823,56.207 54.117,55.595 53.413,54.759C53.348,54.681 53.227,54.687 53.168,54.772C53.113,54.853 53.097,54.952 53.123,55.069C52.839,54.015 53.142,53.2 54.027,52.625C55.051,51.96 55.593,51.626 56.647,51.408C57.642,51.202 59.609,50.768 61.231,50.746C61.965,50.736 62.625,50.644 63.208,50.468C63.359,50.423 63.515,50.521 63.538,50.677C63.679,51.624 63.727,52.557 63.675,53.474C63.583,55.108 63.463,57.054 63.283,59.308C63.256,59.657 63.495,59.973 63.841,60.042L69.434,61.145C69.685,61.193 69.933,61.04 69.998,60.795C70.134,60.289 70.592,58.374 71.372,55.043C71.695,53.663 71.854,52.279 71.874,50.893C71.877,50.726 72.028,50.599 72.191,50.625C73.421,50.821 74.831,50.993 76.413,51.141C77.555,51.247 78.952,51.468 80.603,51.8C84.519,52.585 86.934,53.095 90.271,54.459C91.97,55.154 93.4,55.828 94.578,56.449C95.348,56.856 97.292,58.534 97.025,59.572L96.806,60.544C96.587,60.417 96.295,60.549 95.935,60.942C95.804,61.085 95.635,61.187 95.449,61.236C94.111,61.588 92.848,62.032 91.295,62.225C84.153,63.111 77.222,62.495 70.178,61.262C69.992,61.229 69.812,61.337 69.75,61.513C68.943,63.822 68.122,66.225 67.274,68.718C65.875,72.828 65.098,77.002 65.002,81.234C64.718,82.651 64.417,84.171 64.161,85.691L64.087,86.141C62.425,85.447 61.534,84.856 61.062,84.481C61.032,84.168 60.998,83.848 60.958,83.522Z" style="fill:white;fill-opacity:0.6;"/>
    <path d="M64.087,86.141C63.615,89.051 63.331,91.925 63.672,94.04C62.599,93.691 61.603,93.317 60.683,92.918C61.075,91.152 61.43,88.35 61.062,84.481C61.534,84.856 62.425,85.447 64.087,86.141Z" style="fill:white;fill-opacity:0.85;"/>
    <path d="M79.613,87.523C77.527,88.748 74.146,89.076 68.57,87.761C66.868,87.359 65.378,86.834 64.074,86.216L64.161,85.691C64.417,84.171 64.718,82.651 65.002,81.234C65.098,77.002 65.875,72.828 67.274,68.718L67.468,68.146C68.248,65.857 69.005,63.645 69.75,61.513C69.812,61.337 69.992,61.229 70.178,61.262C77.222,62.495 84.153,63.111 91.295,62.225C92.848,62.032 94.111,61.588 95.449,61.236C95.635,61.187 95.804,61.085 95.935,60.942C96.295,60.549 96.587,60.417 96.806,60.544L96.372,62.074C96.369,62.091 96.366,62.104 96.366,62.12C96.281,62.92 96.082,63.745 95.772,64.597C95.319,65.84 94.831,67.429 94.316,69.367C93.934,70.806 93.456,71.749 92.988,73.064C92.53,74.353 91.879,75.635 91.041,76.917C89.576,79.156 88.982,80.265 87.481,81.805C86.254,83.064 85.559,83.766 85.396,83.906C83.668,85.396 81.746,86.617 79.613,87.523ZM55.485,75.219C54.406,71.644 52.93,56.869 53.123,55.069C53.097,54.952 53.113,54.853 53.168,54.772C53.227,54.687 53.348,54.681 53.413,54.759C54.117,55.595 54.823,56.207 55.521,56.603C57.8,57.895 60.156,58.84 62.601,59.415C62.98,59.504 63.219,59.875 63.146,60.257C62.495,63.694 61.917,67.052 61.424,70.335C61.326,70.99 61.231,71.642 61.14,72.29C60.861,74.268 60.631,76.578 60.683,79.028C60.701,79.868 60.716,80.818 60.724,81.874C60.816,82.442 60.894,82.991 60.958,83.522C60.994,83.819 61.026,84.11 61.054,84.395C57.479,81.681 56.021,78.133 55.485,75.219Z" style="fill:white;fill-opacity:0.5;"/>
    <path d="M239.237,137.042C238.633,136.863 237.938,136.97 237.152,137.359C237.106,137.381 237.057,137.401 237.005,137.417C234.382,138.132 231.81,138.197 229.295,137.607C228.368,137.388 227.526,136.654 226.87,135.838C225.435,134.053 224.208,132.04 223.193,129.805C222.955,129.28 222.342,127.557 221.353,124.63C220.762,122.891 220.426,121.253 220.338,119.713C221.382,120.937 222.511,121.591 223.722,121.671C225.79,121.807 227.787,121.077 229.732,120.369C230.933,120.059 231.778,119.873 232.264,119.817C235.185,119.481 236.802,122.473 239.938,121.71C242.503,121.086 243.677,118.375 244.187,116.091C245.301,111.095 245.307,106.889 245.045,101.046C245.036,100.844 244.973,100.648 244.865,100.478C244.288,99.571 243.544,98.335 242.63,96.769C242.046,95.767 241.031,94.678 240.291,94.129C237.859,92.326 233.937,93.438 231.393,94.423C230.662,94.706 228.825,94.961 225.879,95.186L219.03,95.63C218.942,95.382 218.69,95.248 218.273,95.232C213.953,95.049 208.083,94.093 206.429,89.407C206.181,88.709 205.926,88.018 205.668,87.336C205.659,87.313 205.655,87.287 205.652,87.257L205.208,81.557C205.192,81.365 205.349,81.201 205.541,81.205L207.414,81.244C207.443,81.244 207.469,81.241 207.499,81.237C209.633,80.888 211.737,80.611 213.816,79.975C215.356,79.501 216.296,79.227 216.638,79.149C216.805,79.113 219.682,78.252 225.272,76.565C225.999,76.346 227.439,75.903 229.621,75.338C242.015,72.127 247.942,73.178 250.105,73.609C252.53,74.095 254.775,75.113 256.84,76.666C257.368,77.064 257.822,77.491 258.201,77.952C258.785,78.666 259.254,79.071 259.728,79.847C260.347,80.869 261.013,82.073 261.721,83.456C261.969,83.939 263.499,86.67 266.312,91.652C266.971,92.824 268.158,96.132 268.854,99.075C273.46,118.544 260.746,125.361 259.026,126.8C256.151,129.205 252.941,130.895 249.397,131.87C248.683,131.782 248.187,131.871 247.913,132.141C245.461,134.552 242.562,136.177 239.237,137.042ZM250.755,119.201C252.699,118.137 253.877,117.481 254.292,117.236C256.08,116.173 256.983,115.083 257.401,112.952C257.698,111.435 257.695,110.009 257.391,108.681C256.527,104.89 254.115,102.674 250.027,102.935C249.72,102.955 249.489,103.226 249.521,103.532C250.04,108.423 250.396,113.615 250.585,119.103C250.585,119.188 250.68,119.24 250.755,119.201ZM235.119,123.263C234.633,123.345 233.811,124.301 233.403,124.859C232.43,126.183 231.08,126.963 229.347,127.198C227.856,127.4 226.528,127.697 225.357,128.086C224.916,128.232 224.606,128.552 224.433,129.038C224.146,129.851 225.487,130.494 226.065,130.689C228.221,131.417 230.329,131.401 232.388,130.644C234.688,129.799 236.065,128.187 236.512,125.808C236.711,124.748 236.6,123.015 235.119,123.263Z" style="fill:white;fill-opacity:0.25;"/>
    <path d="M229.732,120.369C230.933,120.059 231.778,119.873 232.264,119.817C235.185,119.481 236.802,122.473 239.938,121.71C242.503,121.086 243.677,118.375 244.187,116.091C245.301,111.095 245.307,106.889 245.045,101.046C245.036,100.844 244.973,100.648 244.865,100.478C244.288,99.571 243.544,98.335 242.63,96.769C242.046,95.767 241.031,94.678 240.291,94.129C237.859,92.326 233.937,93.438 231.393,94.423C230.662,94.706 228.825,94.961 225.879,95.186C225.02,98.53 224.414,101.346 224.064,103.63C223.898,104.717 223.706,106.802 223.484,109.885C223.268,112.877 223.353,115.566 223.741,117.948C224.181,120.643 226.371,118.734 227.689,118.672C228.737,118.623 229.416,119.191 229.732,120.369ZM227.439,108.265C226.91,108.361 226.649,109.386 226.86,110.557C227.07,111.729 227.67,112.6 228.201,112.504C228.73,112.407 228.991,111.383 228.78,110.212C228.57,109.04 227.97,108.169 227.439,108.265ZM232.374,103.928C232.359,103.219 230.561,102.684 228.354,102.73C226.149,102.775 224.374,103.389 224.388,104.096C224.404,104.805 226.202,105.34 228.408,105.294C230.613,105.249 232.388,104.635 232.374,103.928Z" style="fill:white;"/>
    <path d="M220.338,119.713C220.24,118.868 219.953,117.514 219.477,115.657C219.108,114.212 218.638,111.605 218.071,107.833L220.306,105.732C220.748,105.159 220.658,104.55 220.306,104.351C219.722,104.025 219.115,104.09 218.485,104.547C218.469,104.558 218.268,104.738 217.968,105.018C217.952,104.676 217.936,104.431 217.924,104.394C217.777,101.389 218.146,98.468 219.03,95.63L225.879,95.186C225.02,98.53 224.414,101.346 224.064,103.63C223.898,104.717 223.706,106.802 223.484,109.885C223.268,112.877 223.353,115.566 223.741,117.948C224.181,120.643 226.371,118.734 227.689,118.672C228.737,118.623 229.416,119.191 229.732,120.369C227.787,121.077 225.79,121.807 223.722,121.671C222.511,121.591 221.382,120.937 220.338,119.713ZM219.84,110.421C219.379,110.499 219.151,111.416 219.329,112.467C219.506,113.52 220.025,114.31 220.484,114.23C220.945,114.153 221.174,113.236 220.995,112.185C220.818,111.132 220.299,110.342 219.84,110.421Z" style="fill:white;fill-opacity:0.75;"/>
    <path d="M232.374,103.928C232.359,103.219 230.561,102.684 228.354,102.73C226.149,102.775 224.374,103.389 224.388,104.096C224.404,104.805 226.202,105.34 228.408,105.294C230.613,105.249 232.388,104.635 232.374,103.928Z" style="fill:white;fill-opacity:0.15;"/>
    <path d="M250.755,119.201C252.699,118.137 253.877,117.481 254.292,117.236C256.08,116.173 256.983,115.083 257.401,112.952C257.698,111.435 257.695,110.009 257.391,108.681C256.527,104.89 254.115,102.674 250.027,102.935C249.72,102.955 249.489,103.226 249.521,103.532C250.04,108.423 250.396,113.615 250.585,119.103C250.585,119.188 250.68,119.24 250.755,119.201Z" style="fill:white;"/>
    <path d="M218.071,107.833C215.611,110.073 214.506,109.392 215.135,108.165C215.561,107.335 217.139,105.793 217.968,105.018C218.268,104.738 218.469,104.558 218.485,104.547C219.115,104.09 219.722,104.025 220.306,104.351C220.658,104.55 220.748,105.159 220.306,105.732L218.071,107.833Z" style="fill:white;fill-opacity:0.15;"/>
    <path d="M227.439,108.265C226.91,108.361 226.649,109.386 226.86,110.557C227.07,111.729 227.67,112.6 228.201,112.504C228.73,112.407 228.991,111.383 228.78,110.212C228.57,109.04 227.97,108.169 227.439,108.265Z" style="fill:white;fill-opacity:0.15;"/>
    <path d="M219.84,110.421C219.379,110.499 219.151,111.416 219.329,112.467C219.506,113.52 220.025,114.31 220.484,114.23C220.945,114.153 221.174,113.236 220.995,112.185C220.818,111.132 220.299,110.342 219.84,110.421Z" style="fill:white;fill-opacity:0.15;"/>
    <path d="M235.119,123.263C234.633,123.345 233.811,124.301 233.403,124.859C232.43,126.183 231.08,126.963 229.347,127.198C227.856,127.4 226.528,127.697 225.357,128.086C224.916,128.232 224.606,128.552 224.433,129.038C224.146,129.851 225.487,130.494 226.065,130.689C228.221,131.417 230.329,131.401 232.388,130.644C234.688,129.799 236.065,128.187 236.512,125.808C236.711,124.748 236.6,123.015 235.119,123.263Z" style="fill:white;"/>
    <path d="M218.883,261.899L219.46,256.375C220.208,251.667 220.934,246.436 221.63,240.687C222.262,235.476 223.166,229.289 224.355,222.128C224.433,221.658 224.445,221.263 224.391,220.943C223.753,217.177 223.422,213.684 223.353,210.463C223.122,199.598 223.365,188.672 224.27,177.701C224.288,177.479 224.091,177.301 223.872,177.345C221.503,177.826 219.088,177.803 216.641,177.316C214.693,176.928 212.746,176.402 210.801,175.736C210.249,175.394 209.385,174.924 208.21,174.324C207.907,174.167 207.678,173.922 207.525,173.593C207.479,173.495 207.473,173.384 207.502,173.279C208.863,168.242 210.295,163.592 211.796,159.334C212.918,156.143 214.397,153.272 216.234,150.723C218.974,146.919 223.572,144.746 228.267,144.295C229.406,144.188 231.23,144.031 233.736,143.829C235.775,143.662 237.765,143.421 239.71,143.098L239.928,143.007C240.023,142.967 240.092,142.879 240.101,142.775C240.112,142.655 240.121,142.536 240.128,142.416C240.739,143.138 241.584,144.035 242.696,144.995C242.846,145.125 242.993,145.244 243.137,145.353C243.274,145.4 243.416,145.3 243.416,145.154C243.42,143.059 243.791,141.115 244.689,139.15C245.275,137.868 245.713,136.99 246.007,136.517C246.783,135.267 247.913,133.717 249.397,131.87C252.941,130.895 256.151,129.205 259.026,126.8C259.095,127.302 268.4,142.348 268.4,142.348C268.469,142.445 268.58,142.501 268.697,142.501C269.02,142.501 274.521,142.873 276.469,143.01C276.603,143.02 277.389,143.196 278.835,143.545C280.675,143.992 281.615,144.609 283.504,145.77C284.538,146.403 285.331,147.075 285.889,147.79C290.689,153.954 294.862,160.607 298.409,167.746C298.419,167.765 298.428,167.785 298.445,167.801L298.882,168.291C298.921,168.336 298.947,168.388 298.96,168.447C299.035,168.816 298.859,169.312 298.425,169.935C297.743,170.917 297.074,171.671 296.425,172.193C295.387,173.198 294.627,173.844 294.141,174.134C288.67,177.399 282.812,179.913 276.564,181.678C276.091,181.649 275.562,181.713 274.978,181.88C274.808,181.929 274.702,182.096 274.73,182.269C275.743,188.395 276.218,194.397 276.241,200.267C276.267,206.773 275.488,213.736 272.727,219.648C267.207,231.467 253.021,232.49 241.648,230.745C241.534,230.728 241.423,230.748 241.315,230.807C241.233,230.852 241.24,230.974 241.325,231.013C242.207,231.413 243.227,232.314 244.023,232.794C249.376,236.022 256.778,237.554 262.866,237.489C264.403,237.473 265.584,237.572 266.403,237.79C270.879,238.981 274.38,241.764 275.096,246.521C275.268,247.663 275.382,248.972 275.438,250.443C275.576,254.009 275.61,258.277 275.53,263.24C275.401,271.192 275.187,279.244 274.89,287.402C269.709,288.736 264.39,289.105 258.935,288.501C256.204,288.201 253.783,287.454 251.672,286.26C250.996,285.878 250.425,285.219 249.965,284.285C249.711,283.77 249.564,282.905 249.525,281.688C249.41,278.004 249.358,274.549 249.371,271.316C249.374,270.699 249.326,269.851 249.231,268.774L248.624,258.838C248.621,258.773 248.526,258.763 248.507,258.825C245.591,267.993 243.217,277.267 241.433,286.661C241.315,287.514 241.123,287.708 240.898,287.76C238.571,288.296 231.282,289.188 229.693,288.922C223.873,287.946 221.399,285.833 221.585,285.764C223.836,284.918 225.781,284.005 227.415,283.016C229.236,281.914 230.685,280.59 231.471,278.654C231.517,278.54 231.54,278.419 231.54,278.295L231.491,272.184C231.589,271.1 231.572,270.409 231.442,270.108C230.247,267.35 227.846,265.747 225.203,264.506C223.147,263.541 221.12,262.758 219.147,262.088C219.092,262.069 219.04,262.039 218.994,262L218.883,261.899Z" style="fill:white;"/>
    <path d="M240.128,142.416C240.238,140.572 239.942,138.78 239.237,137.042C242.562,136.177 245.461,134.552 247.913,132.141C248.187,131.871 248.683,131.782 249.397,131.87C247.913,133.717 246.783,135.267 246.007,136.517C245.713,136.99 245.275,137.868 244.689,139.15C243.791,141.115 243.42,143.059 243.416,145.154C243.416,145.3 243.274,145.4 243.137,145.353C242.993,145.244 242.846,145.125 242.696,144.995C241.584,144.035 240.739,143.138 240.128,142.416Z" style="fill:white;fill-opacity:0.75;"/>
    <path d="M113.013,198.73C112.66,199.177 108.456,202.131 103.733,202.525C101.166,202.738 99.446,200.717 99.42,198.077C99.416,197.882 99.178,197.793 99.051,197.94C98.552,198.518 96.4,200.544 92.382,197.715C91.058,196.783 90.042,195.317 89.243,193.444C88.443,191.584 88.182,189.594 88.46,187.473C88.482,187.297 88.3,187.166 88.14,187.248C86.384,188.152 84.884,187.949 83.634,186.641C81.953,184.882 82.182,181.926 82.994,179.799C83.033,179.701 82.998,179.59 82.91,179.534C82.417,179.211 81.219,178.435 79.314,177.205C77.464,176.007 76.266,174.51 75.718,172.708C75.167,170.898 75.219,169.172 75.875,167.53C76.55,165.837 77.715,164.542 79.363,163.651C79.493,163.579 79.526,163.403 79.425,163.292C78.89,162.701 78.534,161.964 78.355,161.073C78.335,160.975 78.328,160.877 78.335,160.776C78.495,158.28 79.05,155.957 79.999,153.807C80.834,151.914 82.936,149.8 85.154,150.159C86.587,150.39 87.781,150.544 88.342,152.071C88.411,152.26 88.678,152.257 88.744,152.068C89.08,151.102 89.478,150.142 89.938,149.19C90.466,148.103 90.985,147.203 91.494,146.495C92.431,145.193 93.494,143.989 94.688,142.883C95.941,141.718 97.322,140.98 98.826,140.67C100.323,140.36 101.831,141.388 102.944,142.481C103.205,142.739 103.616,142.762 103.903,142.537C105.032,141.656 106.232,140.664 107.508,139.564C108.637,138.592 110.592,138.292 111.626,139.574C111.73,139.705 111.916,139.737 112.06,139.656L113.43,138.863C113.47,138.84 113.509,138.824 113.551,138.807C114.38,138.523 115.049,138.243 115.558,137.969C117.343,137.003 118.961,136.487 122.044,135.231C122.416,135.078 123.075,135.029 124.025,135.078C124.155,135.088 124.283,135.133 124.39,135.212C125.066,135.721 125.568,136.249 125.891,136.801C127.095,138.846 127.764,140.909 126.704,143.209C126.586,143.46 126.857,143.715 127.102,143.584C128.208,142.99 129.363,142.981 130.58,142.755C131.575,142.569 132.74,142.507 134.075,142.569C135.344,142.631 136.3,143.277 136.936,144.514C137.886,146.345 138.378,148.312 138.414,150.42C138.424,150.886 138.316,151.314 138.091,151.709C138.055,151.771 138.081,151.852 138.147,151.885C139.442,152.492 140.205,153.516 140.431,154.962C140.643,156.332 139.876,157.464 139.037,158.44C138.851,158.659 138.636,159.269 138.391,160.277C138.375,160.342 138.339,160.401 138.287,160.44L137.527,161.034C137.487,161.063 137.442,161.086 137.396,161.096L135.739,161.478C135.709,161.484 135.68,161.484 135.65,161.481L131.373,161.008C130.032,160.701 128.771,160.826 127.578,161.367C127.484,161.41 127.399,161.472 127.327,161.549C126.78,162.138 126.609,162.868 126.821,163.752L126.772,163.856C126.736,163.928 126.661,163.97 126.583,163.961C124.225,163.676 122.163,164.317 120.406,165.856C120.083,166.14 119.747,166.538 119.398,167.051C118.771,167.973 118.253,169.129 117.424,169.524C116.06,170.173 114.859,170.049 114.997,172.053C115.032,172.571 115.131,173.191 115.293,173.906C115.473,174.695 115.228,175.615 114.409,175.955C113.159,176.475 112.392,176.946 112.579,178.5C112.616,178.807 112.753,179.606 113.036,180.885C113.057,180.983 113.068,181.084 113.065,181.185C113.005,183.176 111.252,185.492 111.864,187.878C111.975,188.311 112.335,189.068 112.944,190.149C113.699,191.489 114.256,192.818 114.615,194.126L114.474,195.735C114.132,196.932 113.646,197.93 113.013,198.73Z" style="fill:white;fill-opacity:0.35;"/>
    <path d="M34.048,190.576C32.903,189.44 31.826,188.223 30.815,186.928C26.573,181.492 22.954,175.599 20.527,169.335C18.651,164.499 17.695,159.233 19.554,154.26C19.603,154.13 19.675,154.009 19.763,153.905C21.568,151.8 23.489,149.953 25.532,148.358C29.314,145.405 33.399,144.047 38.492,142.716C39.2,142.53 40.835,141.829 43.403,140.605C43.869,140.38 45.05,140.037 46.943,139.571C50.31,138.739 53.899,138.977 57.087,140.181C60.109,141.323 63.107,144.061 61.244,147.535C61.045,147.914 60.634,148.423 60.011,149.066C59.759,149.324 59.384,149.878 58.885,150.727C58.862,150.736 58.784,150.717 58.653,150.671C57.195,149.226 55.355,148.479 53.133,148.433C51.205,148.393 49.419,148.495 47.775,148.738C47.157,148.83 46.558,148.941 45.98,149.072C43.69,149.591 41.378,150.543 40.427,152.887C40.254,153.314 40.217,153.745 40.313,154.185C40.887,156.826 41.78,159.21 42.006,161.788C42.152,163.455 41.794,164.953 40.929,166.277C39.839,167.948 38.29,167.549 36.75,167.612C34.022,167.724 32.878,170.75 33.64,173.012C34.382,175.211 35.904,176.954 38.208,178.242C39.592,179.016 39.704,183.205 39.644,184.523C39.564,186.266 39.262,187.639 38.74,188.641C38.489,189.183 37.96,189.698 37.161,190.191C36.365,190.54 35.327,190.671 34.048,190.576Z" style="fill:white;fill-opacity:0.35;"/>
    <path d="M47.775,148.738C47.157,148.83 46.558,148.941 45.98,149.072C43.69,149.591 41.378,150.543 40.427,152.887C40.254,153.314 40.217,153.745 40.313,154.185C40.887,156.826 41.78,159.21 42.006,161.788C42.152,163.455 41.794,164.953 40.929,166.277C39.839,167.948 38.29,167.549 36.75,167.612C34.022,167.724 32.878,170.75 33.64,173.012C34.382,175.211 35.904,176.954 38.208,178.242C39.592,179.016 39.704,183.205 39.644,184.523C39.564,186.266 39.262,187.639 38.74,188.641C39.872,189.095 41.008,189.512 42.147,189.894C44.378,190.642 45.716,191.098 46.163,191.261C49.467,192.464 52.402,192.73 55.906,192.824C56.849,192.849 57.831,192.751 58.849,192.534C59.048,192.491 59.139,192.26 59.019,192.093C58.078,190.795 58.704,187.757 59.068,186.533C59.359,185.552 59.564,184.619 59.593,183.734C59.607,183.319 59.582,182.885 59.565,182.452C57.855,182.407 56.143,181.96 54.62,181.228C53.743,180.806 53.027,180.29 52.464,179.675C52.09,179.266 52.545,178.637 53.051,178.862C54.981,179.722 57.219,180.335 59.442,180.426C59.355,179.325 59.264,178.52 59.264,178.52C58.51,176.001 58.45,172.203 61.835,171.602C62.559,171.474 62.97,171.399 63.065,171.381C63.485,171.296 63.756,170.888 63.665,170.47C63.478,169.606 63.162,168.728 62.716,167.84C59.301,161.049 54.288,154.874 48.786,149.49C48.786,149.49 48.339,149.116 47.775,148.738ZM54.633,165.168L55.87,165.524C55.991,165.56 56.118,165.498 56.17,165.383C56.219,165.269 56.18,165.135 56.072,165.07C54.242,163.928 52.144,163.833 49.778,164.786C49.57,164.871 49.455,165.096 49.508,165.315L49.537,165.423C49.599,165.67 49.85,165.824 50.098,165.762L52.924,165.064C53.044,165.034 53.159,165.132 53.146,165.256C53.031,166.284 53.296,167.129 53.935,167.798C54.154,168.026 54.532,167.948 54.647,167.654C54.937,166.91 54.885,166.14 54.487,165.344C54.438,165.246 54.529,165.139 54.633,165.168ZM50.261,159.898C49.052,160.507 48.546,161.006 48.016,162.352C47.901,162.645 47.967,162.914 48.215,163.158C48.346,163.286 48.556,163.28 48.679,163.145C49.277,162.49 50.056,161.915 51.028,161.425C52,160.936 52.93,160.646 53.808,160.564C53.991,160.547 54.122,160.381 54.098,160.202C54.052,159.856 53.873,159.644 53.57,159.562C52.173,159.187 51.469,159.29 50.261,159.898Z" style="fill:white;"/>
    <path d="M58.885,150.727C59.89,151.745 60.683,152.88 61.26,154.13C61.681,155.04 62.194,156.052 62.8,157.164C61.805,157.634 61.103,158.299 60.689,159.161C60.536,159.481 60.853,159.82 61.182,159.69L63.482,158.776L64.429,161.253C64.471,161.357 64.416,161.474 64.308,161.51C63.228,161.866 62.373,162.548 61.743,163.556C61.675,163.664 61.688,163.755 61.776,163.837C61.825,163.879 61.877,163.902 61.939,163.912C62.145,163.938 62.428,163.68 62.771,163.409C62.83,163.364 62.915,163.403 62.918,163.478C62.951,164.424 63.192,165.135 63.646,165.612C63.864,165.843 64.249,165.768 64.37,165.475C64.739,164.548 64.637,163.605 64.066,162.646C64.066,162.643 64.066,162.643 64.07,162.643C64.314,162.499 64.582,162.453 64.869,162.502C64.892,162.506 64.912,162.522 64.918,162.545C66.566,167.038 67.845,171.632 68.755,176.33C69.085,178.027 69.271,179.469 69.307,180.66C69.369,182.709 69.323,184.158 69.17,185.006C68.631,187.956 67.13,190.53 64.086,191.47C62.187,192.057 60.324,192.517 58.497,192.85C58.373,192.873 58.262,192.942 58.19,193.043C55.335,196.932 54.408,201.285 55.417,206.104L52.774,207.761C52.663,207.83 52.513,207.768 52.487,207.637C51.528,203.001 47.845,198.761 44.369,195.653C42.682,194.145 40.28,192.325 37.161,190.191C37.96,189.698 38.489,189.183 38.74,188.641C39.872,189.095 41.008,189.512 42.147,189.894C44.378,190.642 45.716,191.098 46.163,191.261C49.467,192.464 52.402,192.73 55.906,192.824C56.849,192.849 57.831,192.751 58.849,192.534C59.048,192.491 59.139,192.26 59.019,192.093C58.078,190.795 58.704,187.757 59.068,186.533C59.359,185.552 59.564,184.619 59.593,183.734C59.607,183.319 59.582,182.885 59.565,182.452C60.927,182.488 62.288,182.269 63.551,181.74C64.565,181.315 65.28,180.75 65.691,180.037C65.872,179.724 65.784,179.473 65.424,179.293C65.291,179.227 65.133,179.228 65.003,179.296C63.306,180.188 61.38,180.505 59.442,180.426C59.355,179.325 59.264,178.52 59.264,178.52C58.51,176.001 58.45,172.203 61.835,171.602C62.559,171.474 62.97,171.399 63.065,171.381C63.485,171.296 63.756,170.888 63.665,170.47C63.478,169.606 63.162,168.728 62.716,167.84C59.301,161.049 54.288,154.874 48.786,149.49C48.786,149.49 48.339,149.116 47.775,148.738C49.419,148.495 51.205,148.393 53.133,148.433C55.355,148.479 57.195,149.226 58.653,150.671C58.784,150.717 58.862,150.736 58.885,150.727Z" style="fill:white;fill-opacity:0.75;"/>
    <path d="M62.8,157.164C63.79,156.859 63.939,156.893 64.566,156.977C65.977,157.166 66.638,157.875 67.196,159.132C67.274,159.305 67.094,159.484 66.918,159.406C65.724,158.867 64.579,158.659 63.482,158.776L61.182,159.69C60.853,159.82 60.536,159.481 60.689,159.161C61.103,158.299 61.805,157.634 62.8,157.164Z" style="fill:white;fill-opacity:0.15;"/>
    <path d="M50.261,159.898C49.052,160.507 48.546,161.006 48.016,162.352C47.901,162.645 47.967,162.914 48.215,163.158C48.346,163.286 48.556,163.28 48.679,163.145C49.277,162.49 50.056,161.915 51.028,161.425C52,160.936 52.93,160.646 53.808,160.564C53.991,160.547 54.122,160.381 54.098,160.202C54.052,159.856 53.873,159.644 53.57,159.562C52.173,159.187 51.469,159.29 50.261,159.898Z" style="fill:white;fill-opacity:0.15;"/>
    <path d="M131.373,161.008C131.373,161.008 134.469,166.098 134.89,166.594C135.076,166.812 134.988,167.149 134.721,167.253L133.895,167.573C133.38,167.772 133.494,168.535 134.045,168.574L135.471,168.679C135.566,168.685 135.65,168.747 135.683,168.835L136.427,170.754C136.456,170.829 136.382,170.977 136.323,170.92C135.683,170.311 135.518,171.041 135.546,171.263C135.683,172.348 135.928,172.797 136.303,173.169C136.385,173.247 136.496,173.289 136.607,173.286C136.727,173.283 136.881,173.188 137.067,173.002C137.142,172.924 137.236,172.988 137.269,173.09C137.765,174.616 139.794,183.936 140.042,187.558C140.111,188.569 140.072,189.956 139.954,191.088C139.736,193.196 138.871,195.366 137.148,196.668C136.646,197.049 135.732,197.363 134.411,197.611C134.406,197.612 134.402,197.612 134.397,197.612C133.963,197.573 135.276,189.154 135.047,188.227C135.513,188.119 136.036,187.957 136.613,187.734C137.276,187.478 137.661,187.033 137.765,186.396C137.782,186.292 137.752,186.187 137.683,186.109C137.419,185.806 137.132,185.659 136.825,185.662C135.389,185.678 134.293,185.649 133.539,185.567C132.665,184.266 132.098,183.215 131.836,182.416C131.612,181.73 131.599,181.026 131.794,180.301C132.132,179.042 133.569,179.427 134.355,179.198C135.311,178.921 135.611,178.334 135.256,177.44C133.249,172.387 130.607,167.852 127.187,163.944C127.132,163.882 127.105,163.801 127.112,163.716L127.125,163.533C127.131,163.426 126.996,163.375 126.929,163.458C126.878,163.521 126.841,163.618 126.821,163.752C126.609,162.868 126.78,162.138 127.327,161.549C127.399,161.472 127.484,161.41 127.578,161.367C128.771,160.826 130.032,160.701 131.373,161.008Z" style="fill:white;fill-opacity:0.75;"/>
    <path d="M134.397,197.612L130.616,197.973L128.681,197.97C128.606,197.97 128.53,197.944 128.469,197.898C128.341,197.801 128.198,197.745 128.038,197.731C123.41,197.337 118.938,196.12 114.615,194.126C114.256,192.818 113.699,191.489 112.944,190.149C112.335,189.068 111.975,188.311 111.864,187.878C111.252,185.492 113.005,183.176 113.065,181.185C113.068,181.084 113.057,180.983 113.036,180.885C112.753,179.606 112.616,178.807 112.579,178.5C112.392,176.946 113.159,176.475 114.409,175.955C115.228,175.615 115.473,174.695 115.293,173.906C115.131,173.191 115.032,172.571 114.997,172.053C114.859,170.049 116.06,170.173 117.424,169.524C118.253,169.129 118.771,167.973 119.398,167.051C119.747,166.538 120.083,166.14 120.406,165.856C122.163,164.317 124.225,163.676 126.583,163.961C126.661,163.97 126.736,163.928 126.772,163.856L126.821,163.752C126.841,163.618 126.878,163.521 126.929,163.458C126.996,163.375 127.131,163.426 127.125,163.533L127.112,163.716C127.105,163.801 127.132,163.882 127.187,163.944C130.607,167.852 133.249,172.387 135.256,177.44C135.611,178.334 135.311,178.921 134.355,179.198C133.569,179.427 132.132,179.042 131.794,180.301C131.599,181.026 131.612,181.73 131.836,182.416C132.098,183.215 132.665,184.266 133.539,185.567C132.499,185.525 131.713,185.236 130.792,185.939C130.492,186.168 130.472,186.615 130.753,186.869C131.87,187.879 133.301,188.328 135.047,188.227C135.276,189.154 133.963,197.573 134.397,197.612ZM122.384,171.217C122.279,171.345 122.348,171.54 122.511,171.57C122.707,171.606 122.893,171.553 123.066,171.41C123.718,170.868 124.498,170.503 125.402,170.317C126.691,170.049 127.976,169.677 129.252,169.198C129.552,169.083 129.621,168.689 129.373,168.483C128.952,168.131 128.42,168.01 127.777,168.121C125.571,168.503 123.774,169.534 122.384,171.217ZM128.807,171.881C128.4,172.027 128.342,172.901 128.678,173.835C129.014,174.767 129.617,175.404 130.023,175.258C130.43,175.113 130.489,174.239 130.152,173.305C129.816,172.372 129.213,171.736 128.807,171.881Z" style="fill:white;"/>
    <path d="M54.633,165.168L55.87,165.524C55.991,165.56 56.118,165.498 56.17,165.383C56.219,165.269 56.18,165.135 56.072,165.07C54.242,163.928 52.144,163.833 49.778,164.786C49.57,164.871 49.455,165.096 49.508,165.315L49.537,165.423C49.599,165.67 49.85,165.824 50.098,165.762L52.924,165.064C53.044,165.034 53.159,165.132 53.146,165.256C53.031,166.284 53.296,167.129 53.935,167.798C54.154,168.026 54.532,167.948 54.647,167.654C54.937,166.91 54.885,166.14 54.487,165.344C54.438,165.246 54.529,165.139 54.633,165.168Z" style="fill:white;fill-opacity:0.15;"/>
    <path d="M122.384,171.217C122.279,171.345 122.348,171.54 122.511,171.57C122.707,171.606 122.893,171.553 123.066,171.41C123.718,170.868 124.498,170.503 125.402,170.317C126.691,170.049 127.976,169.677 129.252,169.198C129.552,169.083 129.621,168.689 129.373,168.483C128.952,168.131 128.42,168.01 127.777,168.121C125.571,168.503 123.774,169.534 122.384,171.217Z" style="fill:white;fill-opacity:0.15;"/>
    <path d="M128.807,171.881C128.4,172.027 128.342,172.901 128.678,173.835C129.014,174.767 129.617,175.404 130.023,175.258C130.43,175.113 130.489,174.239 130.152,173.305C129.816,172.372 129.213,171.736 128.807,171.881Z" style="fill:white;fill-opacity:0.15;"/>
    <path d="M296.425,172.193C296.213,172.976 299.176,190.119 299.362,193.229C299.371,193.346 299.397,193.46 299.44,193.565C299.694,194.188 299.58,195.069 299.688,195.852C300.05,198.456 300.056,201.199 299.913,204.097C299.362,215.298 293.198,234.892 293.123,235.538C292.914,237.349 292.803,238.83 292.787,239.986C292.784,240.211 292.849,240.667 293.172,241.252C295.412,245.304 294.588,249.755 294.588,250.988C294.588,253.856 289.794,258.777 282.545,255.442C281.889,255.034 281.477,254.666 281.305,254.336C280.794,253.358 280.914,252.48 281.661,251.706C282.17,251.178 282.701,250.75 283.256,250.42C284.597,249.324 285.129,247.869 284.845,246.054C284.711,245.183 284.339,244.462 283.736,243.891C283.641,243.803 283.491,243.842 283.452,243.96L282.995,245.304C282.496,246.616 282.064,247.948 281.68,249.301C281.606,249.562 281.284,249.764 280.714,249.921C280.61,249.95 280.502,249.931 280.414,249.869C278.077,248.214 279.088,244.307 280.368,242.475C281.668,240.616 282.782,238.763 283.71,236.912C283.755,236.821 283.784,236.723 283.788,236.625C284.027,230.518 283.878,224.203 283.592,215.925C283.474,212.509 283.543,208.786 283.808,204.756C283.878,203.673 283.782,202.877 283.517,202.368C280.136,195.861 277.817,188.964 276.564,181.678C282.812,179.913 288.67,177.399 294.141,174.134C294.627,173.844 295.387,173.198 296.425,172.193Z" style="fill:white;fill-opacity:0.85;"/>
    <path d="M219.46,256.375C217.937,256.016 216.798,255.412 216.048,254.564C215.304,253.725 214.723,252.489 214.302,250.861C214.064,249.937 214.074,248.834 214.338,247.552C214.7,245.774 214.961,244.691 215.121,244.296C215.744,242.759 216.07,241.761 216.103,241.294C216.23,239.424 216.044,237.166 215.539,234.514C215.398,233.786 214.886,232.086 213.995,229.407C213.346,227.453 212.84,225.753 212.471,224.301C211.316,219.749 210.475,215.755 209.943,212.323C209.607,210.14 209.271,207.128 208.934,203.285C208.7,200.606 210.116,179.887 210.739,176.614C210.768,176.454 210.791,176.161 210.801,175.736C212.746,176.402 214.693,176.928 216.641,177.316C219.088,177.803 221.503,177.826 223.872,177.345C224.091,177.301 224.288,177.479 224.27,177.701C223.365,188.672 223.122,199.598 223.353,210.463C223.422,213.684 223.753,217.177 224.391,220.943C224.445,221.263 224.433,221.658 224.355,222.128C223.166,229.289 222.262,235.476 221.63,240.687C220.934,246.436 220.208,251.667 219.46,256.375Z" style="fill:white;fill-opacity:0.85;"/>
    <path d="M59.442,180.426C61.38,180.505 63.306,180.188 65.003,179.296C65.133,179.228 65.291,179.227 65.424,179.293C65.784,179.473 65.872,179.724 65.691,180.037C65.28,180.75 64.565,181.315 63.551,181.74C62.288,182.269 60.927,182.488 59.565,182.452C57.855,182.407 56.143,181.96 54.62,181.228C53.743,180.806 53.027,180.29 52.464,179.675C52.09,179.266 52.545,178.637 53.051,178.862C54.981,179.722 57.219,180.335 59.442,180.426Z" style="fill:white;fill-opacity:0.15;"/>
    <path d="M282.545,255.442C282.251,256.535 282.098,257.67 282.085,258.845C282.068,260.277 282.039,261.25 281.99,261.759C281.899,262.734 281.504,279.049 281.099,281.091C280.943,281.874 280.809,282.625 280.701,283.346C280.616,283.894 280.401,284.37 280.055,284.775C278.838,286.191 277.115,287.065 274.89,287.402C275.187,279.244 275.401,271.192 275.53,263.24C275.61,258.277 275.576,254.009 275.438,250.443C275.382,248.972 275.268,247.663 275.096,246.521C274.38,241.764 270.879,238.981 266.403,237.79C265.584,237.572 264.403,237.473 262.866,237.489C256.778,237.554 249.376,236.022 244.023,232.794C243.227,232.314 242.207,231.413 241.325,231.013C241.24,230.974 241.233,230.852 241.315,230.807C241.423,230.748 241.534,230.728 241.648,230.745C253.021,232.49 267.207,231.467 272.727,219.648C275.488,213.736 276.267,206.773 276.241,200.267C276.218,194.397 275.743,188.395 274.73,182.269C274.702,182.096 274.808,181.929 274.978,181.88C275.562,181.713 276.091,181.649 276.564,181.678C277.817,188.964 280.136,195.861 283.517,202.368C283.782,202.877 283.878,203.673 283.808,204.756C283.543,208.786 283.474,212.509 283.592,215.925C283.878,224.203 284.027,230.518 283.788,236.625C283.784,236.723 283.755,236.821 283.71,236.912C282.782,238.763 281.668,240.616 280.368,242.475C279.088,244.307 278.077,248.214 280.414,249.869C280.502,249.931 280.61,249.95 280.714,249.921C281.284,249.764 281.606,249.562 281.68,249.301C282.064,247.948 282.496,246.616 282.995,245.304C282.995,246.801 282.995,249.026 283.256,250.42C282.701,250.75 282.17,251.178 281.661,251.706C280.914,252.48 280.794,253.358 281.305,254.336C281.477,254.666 281.889,255.034 282.545,255.442ZM282.731,235.992C282.786,235.633 282.473,235.323 282.114,235.378C279.484,235.79 278.146,235.998 278.104,236.002C275.376,236.295 270.958,235.763 268.886,233.584C268.625,233.31 268.185,233.329 267.966,233.626C267.395,234.403 268.328,235.173 268.978,235.626C271.239,237.199 273.627,237.591 276.512,237.653C278.342,237.688 280.153,237.447 281.938,236.925C282.352,236.804 282.662,236.452 282.727,236.024L282.731,235.992Z" style="fill:white;fill-opacity:0.5;"/>
    <path d="M135.047,188.227C135.513,188.119 136.036,187.957 136.613,187.734C137.276,187.478 137.661,187.033 137.765,186.396C137.782,186.292 137.752,186.187 137.683,186.109C137.419,185.806 137.132,185.659 136.825,185.662C135.389,185.678 134.293,185.649 133.539,185.567C132.499,185.525 131.713,185.236 130.792,185.939C130.492,186.168 130.472,186.615 130.753,186.869C131.87,187.879 133.301,188.328 135.047,188.227Z" style="fill:white;fill-opacity:0.15;"/>
    <path d="M7.338,240.837L5.948,240.041C5.873,239.995 5.828,239.914 5.831,239.826C6.186,234.341 6.956,229.104 8.138,224.115C8.849,221.11 9.945,218.212 11.423,215.426C14.089,210.398 18.08,206.959 23.392,205.109C26.279,204.101 29.34,203.738 32.27,203.487C33.21,203.409 33.311,203.011 33.816,202.172C35.663,199.089 36.13,195.617 35.219,191.76C35.138,191.415 34.919,191.114 34.616,190.925L34.048,190.576C35.327,190.671 36.365,190.54 37.161,190.191C40.28,192.325 42.682,194.145 44.369,195.653C47.845,198.761 51.528,203.001 52.487,207.637C52.513,207.768 52.663,207.83 52.774,207.761L55.417,206.104C55.446,206.368 55.521,206.603 55.648,206.809C55.707,206.903 55.805,206.965 55.916,206.978C58.533,207.308 61.032,207.895 63.411,208.734C66.373,209.784 68.677,212.274 70.227,215.083C71.705,217.765 72.72,219.681 73.274,220.829C74.067,222.467 74.752,223.782 75.336,224.777C75.398,224.878 75.405,225.006 75.356,225.113L74.521,227.003C72.697,229.189 70.67,231.22 68.455,233.124C68.285,233.27 68.194,233.486 68.21,233.708L68.563,238.214C68.566,238.246 68.586,238.276 68.615,238.292L70.524,239.284C70.318,239.411 70.161,239.467 70.054,239.45C68.703,238.556 67.108,237.945 65.27,237.617C60.582,236.78 56.02,236.792 51.583,237.64C50.796,237.79 50.183,237.943 49.742,238.1C49.38,238.181 49.028,238.234 48.682,238.263C48.17,238.306 47.821,238.361 47.635,238.436C46.615,238.842 45.412,239.754 45.292,240.919C45.161,242.181 45.616,243.822 46.016,245.03C46.298,245.878 46.52,246.788 46.682,247.758C47.092,250.208 47.23,252.685 47.096,255.187L33.891,257.067L31.797,246.701C31.754,246.492 31.575,246.338 31.363,246.329C23.843,245.998 16.536,244.452 9.449,241.643L7.338,240.837Z" style="fill:white;fill-opacity:0.9;"/>
    <path d="M130.616,197.973L128.707,198.025C128.626,198.028 128.56,198.094 128.567,198.175C128.632,199.255 128.772,200.26 128.697,201.402C128.531,203.954 128.534,205.709 128.707,206.668C128.825,207.318 128.955,207.977 129.095,208.646L126.276,208.486C126.149,208.479 126.045,208.391 126.012,208.267L125.819,207.491C125.797,207.403 125.764,207.318 125.718,207.239C125.382,206.662 125.042,206.039 124.694,205.376C124.167,204.375 123.37,203.274 122.292,202.078C120.033,199.567 117.427,197.454 114.474,195.735L114.615,194.126C118.938,196.12 123.41,197.337 128.038,197.731C128.198,197.745 128.341,197.801 128.469,197.898C128.53,197.944 128.606,197.97 128.681,197.97L130.616,197.973Z" style="fill:white;fill-opacity:0.75;"/>
    <path d="M89.618,241.728C89.465,241.32 89.204,241.026 88.753,240.912C87.96,240.716 88.189,240.09 88.127,239.477C87.918,237.32 87.889,234.693 88.039,231.593C88.261,227.045 89.106,222.513 91.318,218.757C93.514,215.028 96.764,212.453 101.067,211.028C102.337,210.607 103.864,210.28 105.648,210.045C105.834,210.023 106.007,209.941 106.148,209.814C108.2,207.947 112.66,199.177 113.013,198.73C113.646,197.93 114.132,196.932 114.474,195.735C117.427,197.454 120.033,199.567 122.292,202.078C123.37,203.274 124.167,204.375 124.694,205.376C125.042,206.039 125.382,206.662 125.718,207.239C125.764,207.318 125.797,207.403 125.819,207.491L126.012,208.267C126.045,208.391 126.149,208.479 126.276,208.486L129.095,208.646C131.438,208.447 133.373,209.096 134.903,210.6C136.443,212.114 137.749,213.605 138.815,215.074C139.889,216.548 140.666,217.831 141.918,219.413C142.878,220.63 144.477,222.702 146.718,225.632C146.78,225.714 146.8,225.821 146.764,225.919C146.535,226.601 146.137,227.273 145.57,227.936C145.446,228.079 145.39,228.262 145.406,228.481L145.119,228.549C145.025,228.569 144.943,228.621 144.884,228.693C142.834,231.183 140.535,233.3 137.993,235.039C137.902,235.101 137.847,235.209 137.85,235.32C137.935,239.016 137.33,242.694 136.887,246.433C136.812,247.063 136.93,248.045 137.233,249.386L137.886,251.624C127.878,251.334 117.878,251.229 107.883,251.311C107.476,251.282 107.25,251.154 107.205,250.926C106.537,247.538 106.043,245.592 106.177,243.095C106.194,242.775 105.896,242.53 105.586,242.612C105.064,242.751 104.413,243.003 103.632,243.359C103.365,243.481 102.829,243.545 102.023,243.549L98.849,243.633C97.468,243.669 96.415,243.617 95.687,243.474C93.817,243.105 92.011,242.507 90.303,241.62C90.211,241.572 90.104,241.565 90.006,241.597L89.618,241.728Z" style="fill:white;fill-opacity:0.95;"/>
    <path d="M145.406,228.481C146.933,231.212 148.627,233.845 150.49,236.383C150.572,236.494 150.728,236.511 150.833,236.422C156.262,231.841 161.12,226.771 164.837,220.777C165.845,219.149 166.612,217.902 167.134,217.031C167.692,216.105 168.171,215.149 168.573,214.166C169.454,212.006 170.455,209.811 172.488,208.359C173.483,207.651 174.019,207.344 175.262,207.36C176.028,207.37 176.893,207.344 177.856,207.288C179.716,207.174 180.897,206.538 182.995,205.536C184.858,204.645 187.223,203.432 190.091,201.901C191.504,201.148 192.663,201.428 193.566,202.737C194.059,203.445 194.336,204.195 194.402,204.982C194.588,207.177 192.904,209.824 191.491,211.595C190.737,212.535 189.801,213.289 188.858,214.274C188.633,214.509 188.111,214.832 187.289,215.243C185.259,216.258 183.132,217.028 180.903,217.55C180.828,217.566 180.756,217.596 180.688,217.632L178.394,218.898C177.986,219.123 177.666,219.478 177.487,219.909C176.639,221.939 175.147,225.714 173.014,231.238C172.984,231.313 172.527,232.35 171.643,234.351C169.839,238.439 167.48,242.172 164.569,245.549C161.92,248.622 159.323,250.169 155.123,252.264C154.784,252.332 154.559,252.363 154.445,252.358C149.389,252.17 144.323,251.892 139.246,251.654L137.233,249.386C136.93,248.045 136.812,247.063 136.887,246.433C137.33,242.694 137.935,239.016 137.85,235.32C137.847,235.209 137.902,235.101 137.993,235.039C140.535,233.3 142.834,231.183 144.884,228.693C144.943,228.621 145.025,228.569 145.119,228.549L145.406,228.481Z" style="fill:white;fill-opacity:0.75;"/>
    <path d="M74.521,227.003C75.085,229.955 75.754,232.807 76.527,235.555C78.041,240.925 79.686,246.283 80.492,251.81L80.492,252.019C80.492,252.136 80.4,252.234 80.283,252.244L69.796,252.988C69.669,251.171 69.867,249.215 70.4,247.125C70.604,246.325 70.898,245.085 71.284,243.408C71.652,241.806 71.401,240.429 70.524,239.284L68.615,238.292C68.586,238.276 68.566,238.246 68.563,238.214L68.21,233.708C68.194,233.486 68.285,233.27 68.455,233.124C70.67,231.22 72.697,229.189 74.521,227.003Z" style="fill:white;fill-opacity:0.75;"/>
    <path d="M282.731,235.992C282.786,235.633 282.473,235.323 282.114,235.378C279.484,235.79 278.146,235.998 278.104,236.002C275.376,236.295 270.958,235.763 268.886,233.584C268.625,233.31 268.185,233.329 267.966,233.626C267.395,234.403 268.328,235.173 268.978,235.626C271.239,237.199 273.627,237.591 276.512,237.653C278.342,237.688 280.153,237.447 281.938,236.925C282.352,236.804 282.662,236.452 282.727,236.024L282.731,235.992Z" style="fill:white;fill-opacity:0.25;"/>
    <path d="M70.054,239.45C68.703,238.556 67.108,237.945 65.27,237.617C60.582,236.78 56.02,236.792 51.583,237.64C50.796,237.79 50.183,237.943 49.742,238.1C48.385,238.576 47.139,239.102 46.418,240.123C45.7,241.138 46.735,242.174 47.651,242.677C48.983,243.41 50.48,243.92 52.147,244.204C57.048,245.041 61.809,244.947 66.429,243.911C67.692,243.627 71.922,242.163 70.732,240.201C70.657,240.077 70.429,239.826 70.054,239.45Z" style="fill:white;fill-opacity:0.65;"/>
    <path d="M69.796,252.988C69.985,257.99 68.562,262.309 65.515,265.932C64.958,266.595 64.305,267.048 63.557,267.292C60.81,268.191 57.854,268.312 54.689,267.661C53.511,267.419 52.613,267.032 51.991,266.5C51.161,265.789 50.431,264.885 49.795,263.791C48.244,261.126 47.348,258.258 47.096,255.187C47.23,252.685 47.092,250.208 46.682,247.758C46.52,246.788 46.298,245.878 46.016,245.03C45.616,243.822 45.161,242.181 45.292,240.919C45.412,239.754 46.615,238.842 47.635,238.436C47.821,238.361 48.17,238.306 48.682,238.263C49.028,238.234 49.38,238.181 49.742,238.1C48.385,238.576 47.139,239.102 46.418,240.123C45.7,241.138 46.735,242.174 47.651,242.677C48.983,243.41 50.48,243.92 52.147,244.204C57.048,245.041 61.809,244.947 66.429,243.911C67.692,243.627 71.922,242.163 70.732,240.201C70.657,240.077 70.429,239.826 70.054,239.45C70.161,239.467 70.318,239.411 70.524,239.284C71.401,240.429 71.652,241.806 71.284,243.408C70.898,245.085 70.604,246.325 70.4,247.125C69.867,249.215 69.669,251.171 69.796,252.988ZM51.276,247.262C49.889,247.337 48.736,247.824 47.811,248.714C47.733,248.789 47.693,248.9 47.703,249.011C47.807,250.133 47.796,250.955 48.003,252.035C48.348,253.826 48.599,255.051 48.76,255.706C49.462,258.556 50.884,260.933 53.002,262.842L55.342,263.958L56.373,264.366C56.474,264.405 56.578,264.429 56.683,264.437C58.14,264.561 59.162,264.561 59.746,264.477C61.812,264.177 63.512,263.266 64.853,261.746C66.533,259.84 67.649,257.612 68.207,255.06C68.596,253.282 68.889,251.468 69.095,249.614C69.219,249.324 69.222,249.082 69.104,248.89C68.084,247.222 63.61,246.64 61.877,246.57C59.916,246.49 58.197,246.48 56.712,246.495C56.676,246.495 56.643,246.524 56.64,246.563L56.275,251.556C56.268,251.637 56.196,251.703 56.115,251.696L53.048,251.471C53.015,251.468 52.986,251.441 52.982,251.406L52.656,247.193C52.643,247.027 52.483,246.916 52.323,246.962L51.276,247.262Z" style="fill:white;fill-opacity:0.8;"/>
    <path d="M11.316,262.486C9.707,256.518 8.441,250.547 7.514,244.567C7.328,243.376 7.27,242.133 7.338,240.837L9.449,241.643C9.753,244.08 10.045,246.436 10.334,248.71C10.636,251.096 11.071,253.064 11.401,255.253C11.462,255.66 11.707,256.773 12.135,258.59C12.395,259.697 12.634,260.809 12.852,261.925L11.316,262.486Z" style="fill:white;fill-opacity:0.7;"/>
    <path d="M91.892,251.389C91.106,248.472 90.453,245.513 89.934,242.514C89.899,242.302 89.791,242.041 89.618,241.728L90.006,241.597C90.104,241.565 90.211,241.572 90.303,241.62C92.011,242.507 93.817,243.105 95.687,243.474C96.415,243.617 97.468,243.669 98.849,243.633L102.023,243.549L104.539,251.092C104.568,251.177 104.523,251.272 104.435,251.301L104.125,251.406L92.294,251.68C92.222,251.683 92.151,251.659 92.094,251.618C92.017,251.561 91.948,251.484 91.892,251.389Z" style="fill:white;fill-opacity:0.85;"/>
    <path d="M33.891,257.067C26.791,258.222 19.78,259.84 12.852,261.925C12.634,260.809 12.395,259.697 12.135,258.59C11.707,256.773 11.462,255.66 11.401,255.253C11.071,253.064 10.636,251.096 10.334,248.71C10.045,246.436 9.753,244.08 9.449,241.643C16.536,244.452 23.843,245.998 31.363,246.329C31.575,246.338 31.754,246.492 31.797,246.701L33.891,257.067Z" style="fill:white;fill-opacity:0.75;"/>
    <path d="M107.883,251.311L104.125,251.406L104.435,251.301C104.523,251.272 104.568,251.177 104.539,251.092L102.023,243.549C102.829,243.545 103.365,243.481 103.632,243.359C104.413,243.003 105.064,242.751 105.586,242.612C105.896,242.53 106.194,242.775 106.177,243.095C106.043,245.592 106.537,247.538 107.205,250.926C107.25,251.154 107.476,251.282 107.883,251.311Z" style="fill:white;fill-opacity:0.5;"/>
    <path d="M53.002,262.842L55.342,263.958C55.061,261.423 54.969,259.442 55.071,258.016C55.162,256.731 55.556,254.683 56.183,251.859C56.204,251.768 56.288,251.705 56.382,251.709C59.914,251.865 63.372,251.589 66.758,250.776C67.355,250.632 68.135,250.244 69.095,249.614C69.219,249.324 69.222,249.082 69.104,248.89C68.084,247.222 63.61,246.64 61.877,246.57C59.916,246.49 58.197,246.48 56.712,246.495C56.676,246.495 56.643,246.524 56.64,246.563L56.275,251.556C56.268,251.637 56.196,251.703 56.115,251.696L53.048,251.471C53.015,251.468 52.986,251.441 52.982,251.406L52.656,247.193C52.643,247.027 52.483,246.916 52.323,246.962L51.276,247.262L48.228,248.701C47.808,248.9 47.73,249.467 48.085,249.768C49.205,250.716 51.118,251.064 52.676,251.285C52.819,251.305 52.921,251.432 52.914,251.575C52.804,253.746 52.716,255.827 52.695,257.82C52.691,258.248 52.76,259.083 52.901,260.326C52.995,261.152 53.031,261.99 53.002,262.842Z" style="fill:white;fill-opacity:0.75;"/>
    <path d="M51.276,247.262C49.889,247.337 48.736,247.824 47.811,248.714C47.733,248.789 47.693,248.9 47.703,249.011C47.807,250.133 47.796,250.955 48.003,252.035C48.348,253.826 48.599,255.051 48.76,255.706C49.462,258.556 50.884,260.933 53.002,262.842C53.031,261.99 52.995,261.152 52.901,260.326C52.76,259.083 52.691,258.248 52.695,257.82C52.716,255.827 52.804,253.746 52.914,251.575C52.921,251.432 52.819,251.305 52.676,251.285C51.118,251.064 49.205,250.716 48.085,249.768C47.73,249.467 47.808,248.9 48.228,248.701L51.276,247.262Z" style="fill:white;fill-opacity:0.65;"/>
    <path d="M55.342,263.958L56.373,264.366C56.474,264.405 56.578,264.429 56.683,264.437C58.14,264.561 59.162,264.561 59.746,264.477C61.812,264.177 63.512,263.266 64.853,261.746C66.533,259.84 67.649,257.612 68.207,255.06C68.596,253.282 68.889,251.468 69.095,249.614C68.135,250.244 67.355,250.632 66.758,250.776C63.372,251.589 59.914,251.865 56.382,251.709C56.288,251.705 56.204,251.768 56.183,251.859C55.556,254.683 55.162,256.731 55.071,258.016C54.969,259.442 55.061,261.423 55.342,263.958Z" style="fill:white;fill-opacity:0.65;"/>
    <path d="M0.542,269.413C1.844,267.413 3.736,265.841 6.213,264.702C8.536,263.632 10.236,262.894 11.316,262.486L12.852,261.925C19.78,259.84 26.791,258.222 33.891,257.067L47.096,255.187C47.348,258.258 48.244,261.126 49.795,263.791C50.431,264.885 51.161,265.789 51.991,266.5C52.613,267.032 53.511,267.419 54.689,267.661C57.854,268.312 60.81,268.191 63.557,267.292C64.305,267.048 64.958,266.595 65.515,265.932C68.562,262.309 69.985,257.99 69.796,252.988L80.283,252.244C80.4,252.234 80.492,252.136 80.492,252.019L80.492,251.81L80.557,252.045C80.583,252.14 80.671,252.205 80.769,252.198C84.423,252.022 88.075,251.849 91.726,251.683C91.837,251.68 91.892,251.582 91.892,251.389C91.948,251.484 92.017,251.561 92.094,251.618C92.151,251.659 92.222,251.683 92.294,251.68L104.125,251.406L107.883,251.311C117.878,251.229 127.878,251.334 137.886,251.624C138.382,251.712 138.835,251.722 139.246,251.654C144.323,251.892 149.389,252.17 154.445,252.358C154.559,252.363 154.784,252.332 155.123,252.264C155.087,252.404 155.133,252.479 155.257,252.486C165.976,253.079 176.975,254.117 188.258,255.595C196.121,256.626 203.91,258.059 211.62,259.896C213.822,260.421 216.145,261.08 218.589,261.879C218.684,261.912 218.782,261.919 218.883,261.899L218.994,262C219.04,262.039 219.092,262.069 219.147,262.088C221.12,262.758 223.147,263.541 225.203,264.506C227.846,265.747 230.247,267.35 231.442,270.108C231.572,270.409 231.589,271.1 231.491,272.184C231.328,272.255 231.207,272.35 231.129,272.464C229.889,274.277 228.257,275.694 226.228,276.709C221.176,279.237 215.813,280.869 210.109,282.194C197.27,285.176 184.512,286.831 171.167,288.057C159.372,289.141 147.38,289.845 135.187,290.175C118.22,290.634 101.638,290.498 85.438,289.764C76.23,289.346 67.124,288.7 58.118,287.826C50.323,287.069 42.952,286.136 36.003,285.029C31.493,284.312 26.765,283.382 21.816,282.243C15.916,280.886 10.607,279.268 5.498,276.706C3.247,275.577 0.618,273.492 0.255,270.885C0.245,270.82 0.248,270.754 0.261,270.692L0.542,269.413Z" style="fill:white;fill-opacity:0.5;"/>
    <path d="M249.231,268.774L249.091,268.542C249.051,268.474 248.947,268.483 248.918,268.558C248.327,270.138 246.288,281.995 245.988,283.16C245.518,284.974 244.898,285.751 243.247,286.782C242.487,287.255 241.883,287.212 241.433,286.661C243.217,277.267 245.591,267.993 248.507,258.825C248.526,258.763 248.621,258.773 248.624,258.838L249.231,268.774Z" style="fill:white;fill-opacity:0.5;"/>
    <path d="M221.585,285.764L220.837,286.041C217.849,287.127 214.941,288.012 212.119,288.697C202.627,291.004 192.627,292.72 182.117,293.839C181.794,293.875 181.36,293.953 180.815,294.077C180.28,294.195 179.748,294.152 179.05,294.244C177.578,294.436 176.012,294.596 174.348,294.72C173.924,294.75 173.425,294.929 173.036,294.913C172.335,294.887 171.754,294.919 171.291,295.007C170.116,295.236 169.036,295.007 168.106,295.278C167.046,295.588 166.011,295.386 164.905,295.562C163.842,295.735 163.065,295.797 162.576,295.754C162.073,295.709 161.551,295.748 161.009,295.872C159.92,296.123 158.624,295.927 157.469,296.097C155.939,296.319 154.556,296.12 153.319,296.348C151.893,296.613 150.408,296.391 148.966,296.567C148.111,296.671 147.38,296.733 146.777,296.75C145.517,296.786 144.251,296.818 142.982,296.851C142.816,296.854 142.509,296.874 142.062,296.903C139.817,297.05 137.948,297.105 136.45,297.069C135.699,297.053 134.809,297.096 133.781,297.2C133.034,297.275 132.146,297.314 131.115,297.317C121.499,297.324 112.174,297.324 103.136,297.321C100.865,297.321 99.322,297.291 98.506,297.236C94.891,296.981 92.708,297.193 89.256,296.89C87.732,296.756 86.071,296.714 84.277,296.766C84.097,296.772 83.914,296.753 83.738,296.707L83.314,296.596C83.086,296.538 82.851,296.508 82.616,296.505C82.518,296.502 81.458,296.495 79.431,296.482C78.984,296.479 78.368,296.241 78.012,296.296C77.986,296.299 77.333,296.283 76.054,296.244C75.281,296.221 74.635,296.162 74.116,296.068C73.284,295.914 72.367,296.035 71.336,295.937C70.021,295.81 67.966,295.65 65.173,295.458C64.491,295.412 63.956,295.35 63.567,295.272C62.572,295.076 61.437,295.285 60.484,295.004C59.923,294.838 59.215,294.942 58.516,294.87C45.449,293.539 33.683,291.979 21.316,289.108C15.923,287.855 11.26,286.344 7.322,284.573C4.418,283.267 1.739,281.692 0.228,278.719C0.098,278.461 0.029,278.177 0.029,277.89C0.023,274.937 0.013,272.474 0,270.5C-0.003,270.177 0.18,269.815 0.542,269.413L0.261,270.692C0.248,270.754 0.245,270.82 0.255,270.885C0.618,273.492 3.247,275.577 5.498,276.706C10.607,279.268 15.916,280.886 21.816,282.243C26.765,283.382 31.493,284.312 36.003,285.029C42.952,286.136 50.323,287.069 58.118,287.826C67.124,288.7 76.23,289.346 85.438,289.764C101.638,290.498 118.22,290.634 135.187,290.175C147.38,289.845 159.372,289.141 171.167,288.057C184.512,286.831 197.27,285.176 210.109,282.194C215.813,280.869 221.176,279.237 226.228,276.709C228.257,275.694 229.889,274.277 231.129,272.464C231.207,272.35 231.328,272.255 231.491,272.184L231.54,278.295C231.54,278.419 231.517,278.54 231.471,278.654C230.685,280.59 229.236,281.914 227.415,283.016C225.781,284.005 223.836,284.918 221.585,285.764Z" style="fill:white;fill-opacity:0.75;"/>
    <path d="M64.129,45.882C56.472,43.42 51.513,39.869 51.915,36.528C52.506,31.625 64.427,29.022 78.52,30.719C92.612,32.417 103.574,37.776 102.984,42.68C102.393,47.583 90.472,50.186 76.379,48.488C74.882,48.308 73.42,48.086 72.003,47.828C69.17,47.312 66.518,46.65 64.129,45.882Z" style="fill:white;fill-opacity:0.5;"/>
</svg>
