<?xml version="1.0" encoding="UTF-8" standalone="no"?>
<!DOCTYPE svg PUBLIC "-//W3C//DTD SVG 1.1//EN" "http://www.w3.org/Graphics/SVG/1.1/DTD/svg11.dtd">
<svg width="100%" height="100%" viewBox="0 0 300 300" version="1.1" xmlns="http://www.w3.org/2000/svg" xmlns:xlink="http://www.w3.org/1999/xlink" xml:space="preserve" xmlns:serif="http://www.serif.com/" style="fill-rule:evenodd;clip-rule:evenodd;stroke-linejoin:round;stroke-miterlimit:2;">
    <path d="M185.522,109.944C185.301,110.5 184.712,110.672 184.186,110.43C176.469,106.878 166.466,102.29 154.181,96.663C153.463,96.332 153.519,95.466 154.038,94.943C154.085,94.897 154.148,94.867 154.214,94.857C156.291,94.576 159.973,94.037 165.262,93.246C165.725,93.177 166.043,92.882 166.211,92.356C166.254,92.224 166.244,92.082 166.185,91.953C165.325,90.114 164.2,88.433 162.807,86.915C154.769,78.123 142.259,74.918 130.53,76.257C126.868,76.674 123.573,77.597 120.643,79.026C120.56,79.066 120.474,79.092 120.384,79.105C119.485,79.241 118.559,78.937 119.104,77.799C119.144,77.719 119.2,77.65 119.27,77.594C119.796,77.177 120.404,76.608 120.95,76.304C122.538,75.42 124.013,74.226 125.786,73.32C128.985,71.682 132.481,70.369 136.279,69.377C142.808,67.67 149.192,67.786 155.428,69.724C163.535,72.242 170.991,77.938 176.393,84.543C177.048,85.344 177.855,85.943 178.566,84.848C179.539,83.349 181.044,80.941 183.078,77.623C183.614,76.75 184.209,76.022 185.119,76.985C185.198,77.071 185.245,77.18 185.245,77.296L185.608,109.494C185.612,109.65 185.582,109.802 185.522,109.944Z" style="fill:white;fill-opacity:0.95;fill-rule:nonzero;"/>
    <path d="M152.543,224.051C151.157,223.228 150.317,222.603 150.019,222.182C149.06,220.823 148.663,219.212 148.829,217.353C148.918,216.371 149.116,214.164 149.431,210.731C149.841,206.275 151.971,182.012 155.818,137.938C155.874,137.3 156.007,136.334 156.218,135.041C156.473,133.47 157.267,132.137 158.597,131.045C159.434,130.357 160.128,129.95 160.677,129.828C161.852,129.566 163.188,129.434 164.693,129.434C190.696,129.454 232.424,129.454 289.871,129.434C291.982,129.434 293.199,129.411 294.641,130.648C295.273,131.187 295.882,131.733 296.467,132.285L296.97,133.86C296.994,133.938 296.589,139.686 296.238,144.371C295.911,148.277 295.502,153.069 295.05,158.319C294.635,162.991 294.328,166.486 294.129,168.807C293.649,174.43 293.312,178.235 293.123,180.219C292.971,181.812 292.844,183.347 292.746,184.827C292.699,185.366 292.651,185.904 292.604,186.439C292.517,187.1 292.409,187.802 292.395,188.509C292.392,188.673 292.386,188.852 292.376,189.043C292.316,189.732 292.256,190.415 292.196,191.092C291.968,193.238 291.757,195.379 291.568,197.519C291.373,199.726 291.188,201.925 291.019,204.115C290.931,205.24 290.843,206.337 290.755,207.406C290.244,213.153 289.89,217.083 289.809,217.902C289.706,218.944 289.556,219.695 289.362,220.155C288.402,222.426 285.687,223.91 283.348,224.28C282.214,224.459 280.729,224.545 278.893,224.541C265.625,224.511 158.921,224.562 155.921,224.743C154.925,224.803 153.797,224.571 152.543,224.051ZM167.984,136.61L161.574,217.74L246.741,217.747L282.634,217.753C282.7,217.753 282.756,217.7 282.763,217.634L288.978,146.648C289.286,144.561 290.066,136.674 290.097,136.518L167.984,136.61ZM155.369,172.47C155.319,174.262 156.751,175.757 158.569,175.809C160.386,175.859 161.898,174.447 161.949,172.653C162,170.861 160.568,169.366 158.75,169.315C156.933,169.264 155.421,170.676 155.369,172.47Z" style="fill:white;fill-opacity:0.5;"/>
    <path d="M137.985,133.651C137.979,134.478 137.913,135.11 137.79,135.547C136.252,140.985 134.956,146.397 133.331,151.904C133.278,152.079 133.149,152.218 132.977,152.278L131.562,152.791C131.446,152.83 131.363,152.933 131.343,153.052C131.125,154.253 131.042,155.133 131.092,155.685C131.347,158.464 131.188,160.432 130.401,163.425C129.339,167.458 126.626,177.871 122.257,194.658C121.529,197.46 121.01,199.147 120.702,199.719C119.637,201.704 117.388,204.019 114.953,204.257C114.321,204.317 112.595,204.446 109.78,204.648C109.601,204.661 109.459,204.505 109.485,204.33C109.938,201.151 110.173,198.062 110.186,195.061C110.186,195.009 110.15,194.962 110.097,194.952C110.044,194.942 109.995,194.972 109.975,195.022L108.612,198.723C108.605,198.75 108.579,198.766 108.552,198.77L108.549,198.77C108.506,198.76 108.48,198.713 108.49,198.67L111.139,187.735C111.166,187.625 111.08,187.523 110.967,187.53L96.489,188.542C96.34,188.552 96.217,188.657 96.184,188.803L93.568,199.891C93.541,200.013 93.637,200.126 93.76,200.119L108.222,199.107C108.341,199.097 108.43,199.209 108.394,199.322L106.667,204.522C106.614,204.684 106.472,204.8 106.303,204.823C104.07,205.114 101.576,205.117 98.907,205.289C90.488,205.842 82.153,206.371 73.906,206.877C72.308,206.976 70.787,206.851 69.173,206.057C68.018,205.491 67.095,205.111 65.974,204.949C65.713,204.912 65.488,205.14 65.531,205.402L65.842,207.271C65.852,207.327 65.809,207.38 65.752,207.383C62.014,207.608 44.212,208.686 12.341,210.615C10.892,210.701 9.446,210.691 8.001,210.585L4.676,210.354C4.587,210.35 4.501,210.321 4.425,210.274L3.466,209.682C3.35,209.609 3.333,209.447 3.433,209.355C4.739,208.127 5.837,207.042 6.734,206.1C7.293,205.511 7.703,204.902 7.961,204.27C8.001,204.175 7.935,204.069 7.832,204.062C7.713,204.052 7.604,204.079 7.508,204.138C3.773,206.46 1.673,207.773 1.203,208.081C1.111,208.144 0.991,208.141 0.902,208.074C0.035,207.443 -0.206,206.748 0.174,205.994C0.38,205.587 0.542,205.17 0.661,204.747C2.444,198.482 3.886,192.941 5.758,187.222C5.791,187.116 5.884,187.04 5.993,187.027C9.297,186.587 12.39,185.955 15.265,185.131C15.344,185.108 15.394,185.032 15.381,184.953C15.367,184.873 15.301,184.814 15.218,184.814L6.863,184.91C6.592,184.913 6.39,184.658 6.459,184.394C6.998,182.326 7.941,178.949 9.294,174.262C11.497,166.624 14.1,157.484 17.107,146.846C17.527,145.358 17.736,144.266 17.726,143.575C17.716,142.708 17.802,142.126 17.981,141.825C18.417,141.094 18.804,140.664 19.145,140.535C19.668,140.333 20.475,140.224 21.57,140.204C22.4,140.188 129.749,131.594 134.357,130.942C136.239,130.674 138.392,131.224 137.985,133.651ZM83.969,157.177C83.942,157.289 84.031,157.398 84.147,157.389L98.589,156.38C98.665,156.373 98.728,156.32 98.745,156.247L101.394,145.017C101.421,144.905 101.331,144.796 101.216,144.806L86.77,145.814C86.694,145.821 86.631,145.874 86.615,145.947L83.969,157.177ZM43.378,149.255C43.398,149.162 43.325,149.076 43.233,149.083L29.111,150.072C29.052,150.075 28.999,150.118 28.986,150.177L26.359,161.325C26.339,161.414 26.412,161.5 26.505,161.494L40.623,160.508C40.682,160.505 40.735,160.462 40.748,160.402L43.378,149.255ZM51.707,191.472C51.727,191.38 51.654,191.291 51.558,191.297L37.288,192.296C37.225,192.299 37.173,192.342 37.159,192.405L34.536,203.516C34.516,203.609 34.589,203.698 34.685,203.692L48.955,202.693C49.018,202.689 49.071,202.646 49.084,202.583L51.707,191.472ZM38.013,188.684C37.986,188.787 38.069,188.882 38.175,188.876L52.455,187.874C52.524,187.87 52.58,187.821 52.597,187.754L55.214,176.647C55.24,176.544 55.157,176.448 55.051,176.455L40.771,177.457C40.702,177.46 40.646,177.51 40.629,177.576L38.013,188.684ZM61.922,147.882C61.942,147.802 61.879,147.726 61.796,147.733L47.43,148.735C47.377,148.739 47.331,148.778 47.321,148.831L44.675,160.055C44.655,160.134 44.718,160.21 44.8,160.203L59.166,159.198C59.219,159.195 59.266,159.155 59.276,159.102L61.922,147.882ZM94.544,173.934C94.56,173.865 94.504,173.802 94.435,173.805L79.89,174.821C79.844,174.824 79.804,174.857 79.794,174.904L77.121,186.233C77.105,186.302 77.161,186.365 77.23,186.362L91.775,185.346C91.821,185.343 91.861,185.31 91.871,185.264L94.544,173.934ZM40.037,163.568C40.06,163.472 39.981,163.379 39.882,163.386L25.807,164.371C25.741,164.375 25.688,164.421 25.671,164.484L23.055,175.595C23.032,175.691 23.111,175.783 23.21,175.777L37.285,174.791C37.351,174.788 37.404,174.741 37.421,174.679L40.037,163.568ZM81.415,146.393C81.431,146.327 81.378,146.261 81.309,146.268L66.811,147.28C66.764,147.283 66.728,147.316 66.718,147.359L64.045,158.695C64.029,158.761 64.082,158.827 64.151,158.821L78.653,157.805C78.699,157.802 78.736,157.769 78.745,157.726L81.415,146.393ZM74.644,175.251C74.657,175.185 74.607,175.122 74.538,175.128L60.05,176.141C60.007,176.144 59.97,176.177 59.96,176.22L57.294,187.52C57.281,187.586 57.331,187.649 57.4,187.642L71.888,186.63C71.931,186.626 71.968,186.593 71.978,186.55L74.644,175.251ZM71.134,190.258C71.157,190.156 71.075,190.057 70.969,190.067L56.603,191.072C56.533,191.076 56.477,191.125 56.461,191.191L53.834,202.325C53.811,202.428 53.894,202.527 54,202.517L68.369,201.512C68.438,201.508 68.494,201.459 68.511,201.393L71.134,190.258ZM104.004,155.735C103.974,155.87 104.08,155.996 104.219,155.986L118.737,154.97C118.83,154.964 118.903,154.901 118.922,154.815L121.575,143.565C121.605,143.429 121.499,143.304 121.36,143.314L106.846,144.332C106.753,144.339 106.68,144.402 106.66,144.488L104.004,155.735ZM123.854,136.419C123.778,135.59 123.047,134.981 122.219,135.057L100.404,137.042C99.575,137.118 98.966,137.849 99.042,138.677L99.046,138.723C99.122,139.553 99.853,140.161 100.681,140.086L122.496,138.101C123.325,138.024 123.934,137.293 123.858,136.465L123.854,136.419ZM47.115,142.871C47.05,142.06 46.339,141.455 45.53,141.521L25.852,143.105C25.043,143.171 24.437,143.879 24.503,144.69L24.511,144.795C24.576,145.606 25.288,146.211 26.097,146.145L45.774,144.561C46.583,144.495 47.189,143.787 47.123,142.976L47.115,142.871ZM16.343,204.598C16.32,204.694 16.396,204.783 16.495,204.777L30.54,203.791C30.603,203.788 30.656,203.741 30.669,203.678L33.276,192.634C33.299,192.538 33.223,192.448 33.124,192.455L19.079,193.437C19.016,193.441 18.963,193.487 18.95,193.55L16.343,204.598ZM80.565,171.632C80.532,171.768 80.641,171.897 80.78,171.887L95.126,170.881C95.215,170.875 95.291,170.812 95.314,170.722L97.938,159.578C97.971,159.443 97.861,159.314 97.723,159.324L83.376,160.329C83.287,160.336 83.211,160.399 83.188,160.488L80.565,171.632ZM41.324,174.424C41.307,174.493 41.364,174.556 41.433,174.553L55.809,173.551C55.855,173.547 55.895,173.514 55.905,173.468L58.558,162.225C58.574,162.155 58.518,162.092 58.449,162.096L44.073,163.101C44.026,163.104 43.987,163.138 43.977,163.184L41.324,174.424ZM114.669,172.747C114.702,172.601 114.586,172.462 114.437,172.472L99.962,173.488C99.866,173.494 99.783,173.561 99.763,173.656L97.13,184.817C97.097,184.963 97.213,185.102 97.362,185.092L111.837,184.076C111.933,184.07 112.016,184.003 112.036,183.907L114.669,172.747ZM78.038,160.921C78.064,160.812 77.975,160.706 77.862,160.716L63.476,161.718C63.404,161.725 63.344,161.778 63.324,161.851L60.688,173.041C60.662,173.15 60.751,173.256 60.863,173.246L75.249,172.241C75.322,172.234 75.381,172.181 75.401,172.108L78.038,160.921ZM36.713,177.897C36.739,177.785 36.65,177.675 36.534,177.685L22.512,178.665C22.436,178.671 22.373,178.724 22.357,178.797L19.757,189.822C19.73,189.934 19.82,190.043 19.935,190.034L33.957,189.054C34.033,189.048 34.096,188.995 34.113,188.922L36.713,177.897ZM118.148,158.08C118.172,157.984 118.092,157.891 117.993,157.898L103.352,158.927C103.286,158.93 103.233,158.976 103.217,159.039L100.551,170.365C100.528,170.461 100.607,170.554 100.706,170.547L115.343,169.522C115.41,169.518 115.462,169.472 115.479,169.409L118.148,158.08ZM73.612,201.201C73.595,201.267 73.648,201.333 73.718,201.327L88.262,200.311C88.308,200.308 88.345,200.275 88.355,200.232L91.021,188.925C91.037,188.859 90.984,188.793 90.915,188.8L76.37,189.815C76.324,189.819 76.288,189.852 76.278,189.895L73.612,201.201Z" style="fill:white;fill-opacity:0.55;"/>
    <path d="M296.97,133.86L296.467,132.285C298.323,133.178 299.494,134.581 299.987,136.496C299.993,136.529 299.997,136.562 300,136.595C300,136.595 293.13,218.18 292.872,219.225C292.832,219.387 292.782,220.036 292.719,221.174C292.663,222.242 292.164,223.254 291.221,224.217C290.632,224.822 288.912,225.841 287.87,226.201C286.292,226.747 284.483,227.018 282.449,227.018C249.605,227.005 162.864,226.76 160.638,226.936C158.411,227.111 157.015,226.992 155.123,226.01C154.425,225.649 153.565,224.994 152.543,224.051C153.797,224.571 154.925,224.803 155.921,224.743C158.921,224.562 265.625,224.511 278.893,224.541C280.729,224.545 282.214,224.459 283.348,224.28C285.687,223.91 288.402,222.426 289.362,220.155C289.556,219.695 289.706,218.944 289.809,217.902C290.122,214.77 290.438,211.27 290.755,207.406C290.843,206.337 290.931,205.24 291.019,204.115C291.188,201.925 291.373,199.726 291.568,197.519C291.757,195.379 291.968,193.238 292.196,191.092L292.23,190.775C292.301,190.109 292.35,189.532 292.376,189.043C292.386,188.852 292.392,188.673 292.395,188.509C292.409,187.802 292.517,187.1 292.604,186.439C292.647,186.115 292.684,185.802 292.703,185.502L292.746,184.827C292.844,183.347 292.971,181.812 293.123,180.219C293.312,178.235 293.649,174.43 294.129,168.807C294.328,166.486 294.635,162.991 295.05,158.319L295.819,149.708C295.907,148.717 296.066,146.672 296.238,144.371C296.589,139.686 296.994,133.938 296.97,133.86Z" style="fill:white;fill-opacity:0.25;"/>
    <path d="M137.985,133.651C139.027,134.77 139.487,135.937 139.371,137.151C139.282,137.737 139.123,138.259 138.889,138.719C138.849,138.802 138.826,138.894 138.829,138.987L138.832,139.295C138.836,139.44 138.826,139.582 138.799,139.725L138.247,142.89C138.244,142.904 138.24,142.917 138.237,142.93C137.89,144.018 137.645,144.898 137.503,145.573C136.183,151.772 134.956,157.997 133.814,164.249C132.716,170.273 131.562,175.244 130.477,181.139C129.59,185.952 128.624,190.761 127.582,195.568C127.476,196.06 127.576,196.474 127.44,196.864C127.351,197.135 127.281,197.403 127.235,197.668C126.663,201.049 125.928,204.892 125.039,209.196C124.966,209.546 124.9,209.778 124.843,209.894C124.546,210.489 124.698,211.104 124.536,211.687C124.169,212.997 123.686,214.121 123.094,215.057C122.984,215.233 122.849,215.395 122.697,215.537C122.468,215.745 121.813,216.314 120.735,217.244C120.259,217.657 119.22,218.249 118.714,218.286C111.88,218.779 108.456,219.027 108.443,219.027C107.285,219.017 106.468,218.858 105.992,218.544C104.811,217.766 103.677,217.009 102.592,216.268C102.347,216.099 102.046,216.38 102.195,216.638L103.531,218.951C103.594,219.06 103.521,219.199 103.395,219.209C99.201,219.543 94.871,219.616 90.882,219.91C83.806,220.426 78.888,220.75 76.126,220.886C70.324,221.167 66.738,221.379 65.369,221.524C63.824,221.69 61.647,221.656 60.41,221.742C55.994,222.053 51.777,222.292 47.758,222.457C46.031,222.53 40.269,222.857 30.474,223.436C29.393,223.499 28.155,223.549 26.756,223.582C26.541,223.585 26.356,223.429 26.32,223.218L25.936,220.902C25.866,220.482 25.35,220.313 25.046,220.615C24.328,221.326 23.736,222.239 23.263,223.347C23.157,223.592 22.922,223.757 22.654,223.77L16.393,224.094C15.592,223.988 14.825,223.922 14.09,223.899C13.257,223.873 12.648,224.19 11.818,224.038C11.729,224.022 11.679,223.926 11.715,223.843C12.089,223.046 12.966,221.266 12.877,220.409C12.843,220.079 12.496,219.88 12.195,220.016L10.465,220.796C10.174,220.925 9.84,220.747 9.787,220.433L9.496,218.673C9.453,218.402 9.119,218.292 8.924,218.488L7.61,219.801C7.465,219.946 7.217,219.857 7.197,219.652C7.098,218.663 7.223,217.796 7.577,217.059C7.601,217.012 7.614,216.963 7.617,216.91C7.617,216.91 9.251,211.045 8.001,210.585C9.446,210.691 10.892,210.701 12.341,210.615C44.212,208.686 62.014,207.608 65.752,207.383C65.809,207.38 65.852,207.327 65.842,207.271L65.531,205.402C65.488,205.14 65.713,204.912 65.974,204.949C67.095,205.111 68.018,205.491 69.173,206.057C70.787,206.851 72.308,206.976 73.906,206.877C82.153,206.371 90.488,205.842 98.907,205.289C101.576,205.117 104.07,205.114 106.303,204.823C106.472,204.8 106.614,204.684 106.667,204.522L108.394,199.322C108.43,199.209 108.341,199.097 108.222,199.107L93.76,200.119C93.637,200.126 93.541,200.013 93.568,199.891L96.184,188.803C96.217,188.657 96.34,188.552 96.489,188.542L110.967,187.53C111.08,187.523 111.166,187.625 111.139,187.735L108.49,198.67C108.48,198.713 108.506,198.76 108.549,198.77L108.552,198.77C108.579,198.766 108.605,198.75 108.612,198.723L109.975,195.022C109.995,194.972 110.044,194.942 110.097,194.952C110.15,194.962 110.186,195.009 110.186,195.061C110.173,198.062 109.938,201.151 109.485,204.33C109.459,204.505 109.601,204.661 109.78,204.648C112.595,204.446 114.321,204.317 114.953,204.257C117.388,204.019 119.637,201.704 120.702,199.719C121.01,199.147 121.529,197.46 122.257,194.658C126.626,177.871 129.339,167.458 130.401,163.425C131.188,160.432 131.347,158.464 131.092,155.685C131.042,155.133 131.125,154.253 131.343,153.052C131.363,152.933 131.446,152.83 131.562,152.791L132.977,152.278C133.149,152.218 133.278,152.079 133.331,151.904C134.956,146.397 136.252,140.985 137.79,135.547C137.913,135.11 137.979,134.478 137.985,133.651Z" style="fill:white;fill-opacity:0.5;fill-rule:nonzero;"/>
    <path d="M123.858,136.465C123.934,137.293 123.325,138.024 122.496,138.101L100.681,140.086C99.853,140.161 99.122,139.553 99.046,138.723L99.042,138.677C98.966,137.849 99.575,137.118 100.404,137.042L122.219,135.057C123.047,134.981 123.778,135.59 123.854,136.419L123.858,136.465Z" style="fill:white;fill-opacity:0.25;fill-rule:nonzero;"/>
    <path d="M290.097,136.518C290.066,136.674 289.286,144.561 288.978,146.648L252.989,146.658L167.19,146.661L167.984,136.61L290.097,136.518ZM181.388,141.028C181.388,139.946 180.511,139.07 179.429,139.07C178.348,139.07 177.471,139.946 177.471,141.028C177.471,142.11 178.348,142.986 179.429,142.986C180.511,142.986 181.388,142.11 181.388,141.028ZM175.543,141.028C175.543,139.943 174.666,139.066 173.581,139.066C172.496,139.066 171.62,139.943 171.62,141.028C171.62,142.113 172.496,142.99 173.581,142.99C174.666,142.99 175.543,142.113 175.543,141.028ZM187.722,141.025C187.722,139.943 186.846,139.066 185.764,139.066C184.682,139.066 183.806,139.943 183.806,141.025C183.806,142.106 184.682,142.983 185.764,142.983C186.846,142.983 187.722,142.106 187.722,141.025Z" style="fill:white;fill-opacity:0.65;"/>
    <path d="M139.371,137.151L139.398,138.124C139.401,138.236 139.388,138.349 139.352,138.454C139.17,139.03 139.11,139.635 139.173,140.267C139.199,140.532 139.107,141.068 138.895,141.878C138.839,142.086 138.806,142.301 138.796,142.516C138.68,145.087 138.574,147.485 138.475,149.704C138.412,151.054 138.088,152.658 138.042,154.038C137.989,155.569 137.747,157.293 137.321,159.214C137.297,159.324 137.301,159.436 137.331,159.545C137.473,160.051 137.539,160.342 137.532,160.412C137.413,161.672 135.677,176.763 135.677,176.763C135.67,176.819 135.67,176.878 135.673,176.938C135.786,178.602 135.584,179.356 135.266,181.212C135.131,182.012 135.061,182.849 135.058,183.719C135.055,184.334 134.975,185.538 134.813,187.334C134.803,187.43 134.77,187.52 134.711,187.596L133.245,189.521C133.199,189.58 133.179,189.653 133.186,189.729C133.229,190.176 133.51,190.391 134.029,190.368C134.181,190.361 134.307,190.487 134.301,190.639C134.301,190.639 133.384,202.22 133.348,203.179C133.345,203.262 133.312,203.341 133.252,203.397L129.345,207.307C129.306,207.347 129.276,207.4 129.266,207.456C129.213,207.737 129.336,207.83 129.633,207.737C130.305,207.529 131.138,207.145 132.141,206.593C132.25,206.533 132.379,206.52 132.494,206.563C132.905,206.712 133.374,207.178 132.997,207.671C132.458,208.366 132.233,208.455 132.375,209.394C132.392,209.517 132.471,209.613 132.607,209.682C132.696,209.732 132.726,209.804 132.69,209.9C132.67,209.953 132.617,210.02 132.534,210.099C132.134,210.473 131.932,210.665 131.926,210.668C131.859,210.751 131.853,210.866 131.909,210.959C132.107,211.28 132.203,211.482 132.2,211.571C132.041,213.969 131.922,215.481 131.843,216.109C131.744,216.92 131.234,218.488 130.755,219.377C129.898,220.955 129.372,221.905 129.18,222.222C128.912,222.662 128.459,223.069 127.817,223.449C127.483,223.644 126.901,223.764 126.071,223.8C122.535,223.955 119.614,224.147 117.308,224.372C116.637,224.435 115.892,224.64 115.208,224.69C113.087,224.842 111.549,224.925 110.597,224.935C109.743,224.944 108.724,225.153 107.679,225.04C107.411,225.011 107.143,225.024 106.882,225.08C105.665,225.335 104.659,225.252 103.429,225.553C103.114,225.632 102.559,225.682 101.768,225.699C99.737,225.742 97.021,225.94 93.617,226.294C91.047,226.562 88.977,226.734 87.399,226.817C86.198,226.876 84.121,227.028 81.167,227.27C80.3,227.339 79.47,227.597 78.765,227.637C75.702,227.809 72.583,228.077 69.411,228.444C68.554,228.543 68.088,228.593 68.018,228.596C64.687,228.686 61.168,228.947 57.46,229.38C55.366,229.625 53.004,229.701 51.046,229.969C50.86,229.992 50.444,229.992 49.792,229.966C49.484,229.949 49.177,229.976 48.872,230.039C47.794,230.267 46.547,230.346 45.128,230.283C44.989,230.28 44.85,230.31 44.724,230.369C44.265,230.594 43.937,230.654 43.742,230.545C41.88,229.496 40.715,228.897 40.252,228.748C40.037,228.679 39.825,228.861 39.862,229.083L40.11,230.584C40.123,230.667 40.05,230.736 39.968,230.723C39.24,230.598 38.582,230.637 37.99,230.846C37.92,230.869 37.847,230.882 37.775,230.879L36.21,230.862C36.081,230.862 35.952,230.885 35.833,230.935C34.692,231.411 33.177,231.1 32.237,231.345C31.361,231.573 30.272,231.448 29.227,231.517C27.801,231.613 26.012,231.712 23.865,231.812C22.482,231.874 21.245,231.636 19.889,231.504C19.654,231.481 19.006,231.219 17.938,230.717C17.802,230.65 17.689,230.548 17.613,230.416L16.942,229.255C16.886,229.159 16.862,229.046 16.879,228.94C16.972,228.226 16.727,224.415 16.393,224.094L22.654,223.77C22.922,223.757 23.157,223.592 23.263,223.347C23.736,222.239 24.328,221.326 25.046,220.615C25.35,220.313 25.866,220.482 25.936,220.902L26.32,223.218C26.356,223.429 26.541,223.585 26.756,223.582C28.155,223.549 29.393,223.499 30.474,223.436C40.269,222.857 46.031,222.53 47.758,222.457C51.777,222.292 55.994,222.053 60.41,221.742C61.647,221.656 63.824,221.69 65.369,221.524C66.738,221.379 70.324,221.167 76.126,220.886C78.888,220.75 83.806,220.426 90.882,219.91C94.871,219.616 99.201,219.543 103.395,219.209C103.521,219.199 103.594,219.06 103.531,218.951L102.195,216.638C102.046,216.38 102.347,216.099 102.592,216.268C103.677,217.009 104.811,217.766 105.992,218.544C106.468,218.858 107.285,219.017 108.443,219.027C108.456,219.027 111.88,218.779 118.714,218.286C119.22,218.249 120.259,217.657 120.735,217.244C121.813,216.314 122.468,215.745 122.697,215.537C122.849,215.395 122.984,215.233 123.094,215.057C123.686,214.121 124.169,212.997 124.536,211.687C124.698,211.104 124.546,210.489 124.843,209.894C124.9,209.778 124.966,209.546 125.039,209.196C125.928,204.892 126.663,201.049 127.235,197.668C127.281,197.403 127.351,197.135 127.44,196.864C127.576,196.474 127.476,196.06 127.582,195.568C128.624,190.761 129.59,185.952 130.477,181.139C131.562,175.244 132.716,170.273 133.814,164.249C134.956,157.997 136.183,151.772 137.503,145.573C137.645,144.898 137.89,144.018 138.237,142.93C138.24,142.917 138.244,142.904 138.247,142.89L138.799,139.725C138.826,139.582 138.836,139.44 138.832,139.295L138.829,138.987C138.826,138.894 138.849,138.802 138.889,138.719C139.123,138.259 139.282,137.737 139.371,137.151Z" style="fill:white;fill-opacity:0.25;fill-rule:nonzero;"/>
    <path d="M175.543,141.028C175.543,142.113 174.666,142.99 173.581,142.99C172.496,142.99 171.62,142.113 171.62,141.028C171.62,139.943 172.496,139.066 173.581,139.066C174.666,139.066 175.543,139.943 175.543,141.028Z" style="fill:white;fill-opacity:0.95;fill-rule:nonzero;"/>
    <path d="M181.388,141.028C181.388,142.11 180.511,142.986 179.429,142.986C178.348,142.986 177.471,142.11 177.471,141.028C177.471,139.946 178.348,139.07 179.429,139.07C180.511,139.07 181.388,139.946 181.388,141.028Z" style="fill:white;fill-opacity:0.95;fill-rule:nonzero;"/>
    <path d="M187.722,141.025C187.722,142.106 186.846,142.983 185.764,142.983C184.682,142.983 183.806,142.106 183.806,141.025C183.806,139.943 184.682,139.066 185.764,139.066C186.846,139.066 187.722,139.943 187.722,141.025Z" style="fill:white;fill-opacity:0.95;fill-rule:nonzero;"/>
    <path d="M47.123,142.976C47.189,143.787 46.583,144.495 45.774,144.561L26.097,146.145C25.288,146.211 24.576,145.606 24.511,144.795L24.503,144.69C24.437,143.879 25.043,143.171 25.852,143.105L45.53,141.521C46.339,141.455 47.05,142.06 47.115,142.871L47.123,142.976Z" style="fill:white;fill-opacity:0.25;fill-rule:nonzero;"/>
    <path d="M104.004,155.735L106.66,144.488C106.68,144.402 106.753,144.339 106.846,144.332L121.36,143.314C121.499,143.304 121.605,143.429 121.575,143.565L118.922,154.815C118.903,154.901 118.83,154.964 118.737,154.97L104.219,155.986C104.08,155.996 103.974,155.87 104.004,155.735Z" style="fill:white;fill-opacity:0.5;fill-rule:nonzero;"/>
    <path d="M83.969,157.177L86.615,145.947C86.631,145.874 86.694,145.821 86.77,145.814L101.216,144.806C101.331,144.796 101.421,144.905 101.394,145.017L98.745,156.247C98.728,156.32 98.665,156.373 98.589,156.38L84.147,157.389C84.031,157.398 83.942,157.289 83.969,157.177Z" style="fill:white;fill-opacity:0.5;fill-rule:nonzero;"/>
    <path d="M81.415,146.393L78.745,157.726C78.736,157.769 78.699,157.802 78.653,157.805L64.151,158.821C64.082,158.827 64.029,158.761 64.045,158.695L66.718,147.359C66.728,147.316 66.764,147.283 66.811,147.28L81.309,146.268C81.378,146.261 81.431,146.327 81.415,146.393Z" style="fill:white;fill-opacity:0.5;fill-rule:nonzero;"/>
    <path d="M253.54,146.658L288.978,146.648L282.763,217.634C282.756,217.7 282.7,217.753 282.634,217.753L247.631,217.747L253.54,146.658ZM259.995,212.011C260.088,212.067 260.197,212.097 260.306,212.097L277.285,212.209C277.361,212.209 277.434,212.196 277.503,212.166C278.096,211.905 278.423,211.617 278.486,211.303C279.253,207.294 279.683,202.435 279.773,196.719C279.779,196.56 279.736,196.401 279.65,196.269C279.078,195.359 278.274,195.485 276.984,195.478C269.78,195.432 264.762,195.399 261.923,195.376C261.808,195.376 261.695,195.402 261.596,195.458C261.087,195.733 260.68,196.1 260.369,196.557C260.313,196.636 260.28,196.732 260.273,196.828L259.099,210.661C259.092,210.764 259.105,210.866 259.138,210.962C259.294,211.419 259.578,211.769 259.995,212.011ZM256.27,212.398C257.207,212.398 257.987,211.68 258.067,210.747L259.195,197.334C259.284,196.282 258.454,195.379 257.398,195.379L254.13,195.379C253.194,195.379 252.413,196.097 252.334,197.03L251.209,210.443C251.12,211.495 251.95,212.398 253.006,212.398L256.27,212.398ZM255.9,174.305C254.964,174.305 254.183,175.023 254.104,175.955L252.976,189.389C252.886,190.44 253.717,191.343 254.772,191.343L258.037,191.343C258.973,191.343 259.754,190.626 259.833,189.693L260.961,176.26C261.05,175.208 260.22,174.305 259.165,174.305L255.9,174.305ZM263.528,169.866C263.624,169.922 263.73,169.952 263.839,169.952L280.821,170.061C280.897,170.064 280.97,170.048 281.039,170.018C281.632,169.76 281.959,169.472 282.022,169.154C282.789,165.149 283.219,160.286 283.312,154.57C283.315,154.411 283.272,154.253 283.186,154.12C282.614,153.211 281.81,153.336 280.52,153.327C273.316,153.283 268.294,153.25 265.456,153.224C265.344,153.224 265.231,153.254 265.129,153.307C264.623,153.585 264.213,153.948 263.902,154.408C263.845,154.488 263.812,154.583 263.806,154.679L262.631,168.513C262.625,168.615 262.638,168.718 262.671,168.814C262.83,169.27 263.114,169.621 263.528,169.866ZM261.768,190.94C261.864,190.996 261.97,191.026 262.079,191.026L279.061,191.125C279.137,191.128 279.214,191.112 279.28,191.082C279.872,190.821 280.199,190.533 280.262,190.219C281.03,186.21 281.456,181.347 281.542,175.631C281.546,175.472 281.503,175.314 281.417,175.181C280.844,174.272 280.041,174.397 278.75,174.391C271.546,174.351 266.525,174.321 263.687,174.298C263.571,174.298 263.458,174.328 263.359,174.381C262.853,174.655 262.443,175.023 262.132,175.482C262.076,175.562 262.043,175.658 262.036,175.754L260.872,189.59C260.865,189.693 260.878,189.795 260.911,189.891C261.067,190.348 261.355,190.698 261.768,190.94ZM257.64,153.227C256.717,153.227 255.946,153.935 255.87,154.855L254.736,168.337C254.65,169.373 255.467,170.263 256.505,170.263L259.849,170.263C260.772,170.263 261.543,169.555 261.619,168.635L262.75,155.152C262.836,154.117 262.019,153.227 260.981,153.227L257.64,153.227Z" style="fill:white;fill-opacity:0.85;"/>
    <path d="M246.741,217.747L161.574,217.74L167.19,146.661L252.989,146.658L253.54,146.658L247.631,217.747L246.741,217.747ZM184.563,164.603C184.94,164.603 185.254,164.312 185.288,163.935L186.316,151.676C186.353,151.252 186.019,150.889 185.592,150.889L173.197,150.889C172.82,150.889 172.506,151.18 172.473,151.557L171.444,163.816C171.408,164.239 171.742,164.603 172.169,164.603L184.563,164.603ZM199.247,164.656C199.597,164.656 199.888,164.388 199.918,164.041L200.957,151.692C200.987,151.302 200.679,150.965 200.285,150.965L187.891,150.965C187.54,150.965 187.249,151.233 187.219,151.58L186.184,163.928C186.154,164.318 186.462,164.656 186.855,164.656L199.247,164.656ZM196.541,197.334C196.895,197.334 197.192,197.063 197.222,196.705L198.254,184.394C198.287,183.997 197.973,183.653 197.573,183.653L185.211,183.653C184.858,183.653 184.56,183.924 184.53,184.281L183.498,196.593C183.465,196.99 183.779,197.334 184.179,197.334L196.541,197.334ZM170.429,183.54C170.098,183.54 169.823,183.792 169.794,184.122L168.745,196.593C168.715,196.963 169.006,197.281 169.38,197.281L181.904,197.281C182.234,197.281 182.509,197.03 182.539,196.699L183.587,184.228C183.617,183.858 183.326,183.54 182.952,183.54L170.429,183.54ZM195.158,213.757C195.532,213.757 195.846,213.47 195.879,213.092L196.911,200.83C196.948,200.41 196.614,200.046 196.19,200.046L183.839,200.046C183.465,200.046 183.151,200.334 183.118,200.711L182.089,212.973C182.052,213.393 182.387,213.757 182.81,213.757L195.158,213.757ZM201.34,167.494C201,167.494 200.712,167.755 200.686,168.096L199.65,180.428C199.617,180.811 199.921,181.142 200.305,181.142L212.686,181.142C213.027,181.142 213.315,180.881 213.341,180.54L214.38,168.208C214.413,167.825 214.109,167.494 213.725,167.494L201.34,167.494ZM183.223,180.977C183.594,180.977 183.902,180.692 183.935,180.325L184.96,168.07C184.996,167.656 184.669,167.299 184.252,167.299L171.768,167.299C171.398,167.299 171.09,167.583 171.057,167.95L170.032,180.206C169.995,180.619 170.323,180.977 170.74,180.977L183.223,180.977ZM227.357,181.258C227.707,181.258 227.998,180.99 228.028,180.643L229.067,168.288C229.097,167.898 228.789,167.56 228.395,167.56L215.991,167.56C215.64,167.56 215.349,167.828 215.319,168.175L214.281,180.53C214.251,180.92 214.559,181.258 214.952,181.258L227.357,181.258ZM243.558,164.924C243.876,164.924 244.141,164.679 244.167,164.361L245.212,151.924C245.242,151.57 244.961,151.262 244.604,151.262L232.117,151.262C231.799,151.262 231.534,151.507 231.508,151.825L230.463,164.262C230.433,164.616 230.714,164.924 231.071,164.924L243.558,164.924ZM209.971,213.814C210.305,213.814 210.586,213.556 210.612,213.221L211.651,200.834C211.684,200.46 211.386,200.136 211.009,200.136L198.569,200.136C198.234,200.136 197.953,200.394 197.927,200.728L196.888,213.116C196.855,213.489 197.153,213.814 197.53,213.814L209.971,213.814ZM226.093,197.546C226.417,197.546 226.688,197.298 226.718,196.973L227.767,184.503C227.797,184.139 227.509,183.825 227.142,183.825L214.602,183.825C214.277,183.825 214.006,184.073 213.976,184.397L212.931,196.868C212.901,197.231 213.189,197.546 213.556,197.546L226.093,197.546ZM180.571,213.671C180.901,213.671 181.176,213.417 181.206,213.086L182.251,200.602C182.284,200.232 181.99,199.911 181.616,199.911L169.079,199.911C168.748,199.911 168.474,200.165 168.444,200.496L167.399,212.98C167.366,213.35 167.66,213.671 168.034,213.671L180.571,213.671ZM228.098,200.271C227.72,200.271 227.406,200.562 227.373,200.939L226.338,213.258C226.301,213.681 226.636,214.045 227.062,214.045L239.437,214.045C239.814,214.045 240.128,213.754 240.161,213.377L241.193,201.059C241.23,200.635 240.896,200.271 240.469,200.271L228.098,200.271ZM211.376,197.42C211.711,197.42 211.992,197.162 212.018,196.828L213.057,184.46C213.09,184.086 212.792,183.762 212.415,183.762L199.925,183.762C199.591,183.762 199.309,184.02 199.283,184.354L198.244,196.722C198.211,197.096 198.509,197.42 198.886,197.42L211.376,197.42ZM228.759,164.815C229.09,164.815 229.364,164.56 229.394,164.229L230.433,151.874C230.466,151.504 230.172,151.183 229.798,151.183L217.35,151.183C217.02,151.183 216.745,151.438 216.715,151.769L215.68,164.123C215.647,164.494 215.941,164.815 216.315,164.815L228.759,164.815ZM240.803,197.668C241.177,197.668 241.484,197.384 241.517,197.013L242.55,184.695C242.586,184.278 242.258,183.921 241.838,183.921L229.47,183.921C229.097,183.921 228.789,184.205 228.756,184.576L227.724,196.894C227.687,197.311 228.015,197.668 228.435,197.668L240.803,197.668ZM224.664,213.923C225.018,213.923 225.312,213.652 225.342,213.298L226.377,200.953C226.411,200.556 226.1,200.215 225.699,200.215L213.308,200.215C212.954,200.215 212.66,200.486 212.63,200.84L211.595,213.185C211.562,213.582 211.873,213.923 212.273,213.923L224.664,213.923ZM214.056,164.782C214.403,164.782 214.694,164.517 214.724,164.17L215.763,151.808C215.796,151.418 215.488,151.084 215.094,151.084L202.693,151.084C202.346,151.084 202.055,151.348 202.025,151.696L200.99,164.057C200.957,164.447 201.264,164.782 201.658,164.782L214.056,164.782ZM186.505,167.395C186.174,167.395 185.9,167.649 185.87,167.98L184.834,180.342C184.801,180.712 185.096,181.033 185.469,181.033L197.88,181.033C198.211,181.033 198.486,180.778 198.516,180.447L199.551,168.086C199.584,167.716 199.29,167.395 198.916,167.395L186.505,167.395ZM230.764,167.663C230.436,167.663 230.165,167.914 230.135,168.238L229.093,180.672C229.063,181.04 229.351,181.354 229.722,181.354L242.199,181.354C242.526,181.354 242.798,181.102 242.827,180.778L243.873,168.344C243.902,167.977 243.615,167.663 243.244,167.663L230.764,167.663Z" style="fill:white;fill-opacity:0.95;"/>
    <path d="M61.922,147.882L59.276,159.102C59.266,159.155 59.219,159.195 59.166,159.198L44.8,160.203C44.718,160.21 44.655,160.134 44.675,160.055L47.321,148.831C47.331,148.778 47.377,148.739 47.43,148.735L61.796,147.733C61.879,147.726 61.942,147.802 61.922,147.882Z" style="fill:white;fill-opacity:0.5;fill-rule:nonzero;"/>
    <path d="M43.378,149.255L40.748,160.402C40.735,160.462 40.682,160.505 40.623,160.508L26.505,161.494C26.412,161.5 26.339,161.414 26.359,161.325L28.986,150.177C28.999,150.118 29.052,150.075 29.111,150.072L43.233,149.083C43.325,149.076 43.398,149.162 43.378,149.255Z" style="fill:white;fill-opacity:0.5;fill-rule:nonzero;"/>
    <path d="M184.563,164.603L172.169,164.603C171.742,164.603 171.408,164.239 171.444,163.816L172.473,151.557C172.506,151.18 172.82,150.889 173.197,150.889L185.592,150.889C186.019,150.889 186.353,151.252 186.316,151.676L185.288,163.935C185.254,164.312 184.94,164.603 184.563,164.603ZM173.273,151.312C173.121,151.312 172.992,151.428 172.979,151.583L171.954,163.789C171.94,163.958 172.076,164.107 172.248,164.107L184.5,164.107C184.652,164.107 184.781,163.991 184.795,163.835L185.82,151.63C185.833,151.461 185.698,151.312 185.526,151.312L173.273,151.312ZM177.557,152.659C177.554,152.966 177.306,153.211 177.002,153.209L173.945,153.193C173.641,153.191 173.393,152.943 173.396,152.638L173.396,152.558C173.399,152.251 173.647,152.007 173.951,152.009L177.008,152.025C177.312,152.027 177.56,152.275 177.557,152.58L177.557,152.659ZM199.247,164.656L186.855,164.656C186.462,164.656 186.154,164.318 186.184,163.928L187.219,151.58C187.249,151.233 187.54,150.965 187.891,150.965L200.285,150.965C200.679,150.965 200.987,151.302 200.957,151.692L199.918,164.041C199.888,164.388 199.597,164.656 199.247,164.656ZM188.007,151.434C187.828,151.434 187.679,151.57 187.663,151.749L186.64,163.895C186.624,164.097 186.783,164.269 186.984,164.269L199.177,164.269C199.356,164.269 199.505,164.133 199.521,163.955L200.543,151.808C200.56,151.606 200.401,151.434 200.199,151.434L188.007,151.434ZM192.261,152.711C192.26,153.009 192.022,153.25 191.723,153.252L188.634,153.262C188.337,153.264 188.093,153.022 188.093,152.725L188.093,152.685C188.093,152.387 188.331,152.146 188.63,152.144L191.719,152.134C192.016,152.132 192.26,152.374 192.26,152.671L192.261,152.711ZM214.056,164.782L201.658,164.782C201.264,164.782 200.957,164.447 200.99,164.057L202.025,151.696C202.055,151.348 202.346,151.084 202.693,151.084L215.094,151.084C215.488,151.084 215.796,151.418 215.763,151.808L214.724,164.17C214.694,164.517 214.403,164.782 214.056,164.782ZM202.73,151.58C202.571,151.58 202.439,151.702 202.425,151.858L201.407,163.955C201.393,164.133 201.532,164.285 201.711,164.285L214.023,164.285C214.181,164.285 214.314,164.163 214.327,164.008L215.343,151.911C215.356,151.732 215.217,151.58 215.038,151.58L202.73,151.58ZM207.004,152.809C207.007,153.118 206.759,153.37 206.449,153.373L203.439,153.399C203.13,153.403 202.879,153.154 202.876,152.845L202.875,152.799C202.872,152.49 203.12,152.238 203.429,152.235L206.439,152.209C206.749,152.205 207,152.453 207.003,152.763L207.004,152.809ZM228.759,164.815L216.315,164.815C215.941,164.815 215.647,164.494 215.68,164.123L216.715,151.769C216.745,151.438 217.02,151.183 217.35,151.183L229.798,151.183C230.172,151.183 230.466,151.504 230.433,151.874L229.394,164.229C229.364,164.56 229.09,164.815 228.759,164.815ZM228.703,164.401C228.888,164.401 229.047,164.259 229.06,164.07L230.076,151.993C230.092,151.785 229.927,151.603 229.715,151.603L217.446,151.603C217.261,151.603 217.102,151.745 217.089,151.934L216.074,164.011C216.057,164.219 216.222,164.401 216.434,164.401L228.703,164.401ZM221.734,152.918C221.737,153.221 221.492,153.465 221.192,153.468L218.089,153.489C217.787,153.492 217.542,153.25 217.539,152.948L217.539,152.862C217.536,152.559 217.78,152.314 218.081,152.312L221.183,152.29C221.485,152.288 221.73,152.529 221.733,152.832L221.734,152.918ZM243.558,164.924L231.071,164.924C230.714,164.924 230.433,164.616 230.463,164.262L231.508,151.825C231.534,151.507 231.799,151.262 232.117,151.262L244.604,151.262C244.961,151.262 245.242,151.57 245.212,151.924L244.167,164.361C244.141,164.679 243.876,164.924 243.558,164.924ZM243.426,164.497C243.608,164.497 243.76,164.358 243.773,164.176L244.792,152.046C244.812,151.841 244.65,151.666 244.445,151.666L232.259,151.666C232.077,151.666 231.925,151.805 231.912,151.987L230.893,164.117C230.873,164.322 231.035,164.497 231.24,164.497L243.426,164.497ZM236.513,152.978C236.513,153.27 236.278,153.505 235.989,153.506L232.846,153.517C232.557,153.518 232.318,153.283 232.318,152.993L232.318,152.96C232.318,152.668 232.553,152.433 232.842,152.432L235.985,152.421C236.275,152.42 236.513,152.655 236.513,152.945L236.513,152.978ZM183.223,180.977L170.74,180.977C170.323,180.977 169.995,180.619 170.032,180.206L171.057,167.95C171.09,167.583 171.398,167.299 171.768,167.299L184.252,167.299C184.669,167.299 184.996,167.656 184.96,168.07L183.935,180.325C183.902,180.692 183.594,180.977 183.223,180.977ZM171.927,167.772C171.768,167.772 171.636,167.894 171.623,168.05L170.604,180.137C170.591,180.315 170.73,180.467 170.908,180.467L183.18,180.467C183.339,180.467 183.472,180.345 183.485,180.189L184.504,168.103C184.517,167.924 184.378,167.772 184.199,167.772L171.927,167.772ZM176.214,168.999C176.214,169.297 175.973,169.538 175.674,169.538L172.505,169.532C172.208,169.532 171.967,169.29 171.967,168.992L171.967,168.959C171.967,168.662 172.208,168.42 172.507,168.421L175.676,168.426C175.973,168.427 176.214,168.668 176.214,168.966L176.214,168.999ZM186.505,167.395L198.916,167.395C199.29,167.395 199.584,167.716 199.551,168.086L198.516,180.447C198.486,180.778 198.211,181.033 197.88,181.033L185.469,181.033C185.096,181.033 184.801,180.712 184.834,180.342L185.87,167.98C185.9,167.649 186.174,167.395 186.505,167.395ZM186.588,167.759C186.429,167.759 186.293,167.881 186.28,168.043L185.251,180.292C185.235,180.474 185.377,180.629 185.559,180.629L197.854,180.629C198.013,180.629 198.148,180.507 198.162,180.345L199.19,168.096C199.207,167.914 199.065,167.759 198.883,167.759L186.588,167.759ZM190.911,169.071C190.911,169.35 190.686,169.578 190.408,169.579L187.212,169.596C186.932,169.598 186.703,169.373 186.703,169.093L186.703,169.053C186.703,168.774 186.928,168.546 187.207,168.544L190.402,168.528C190.683,168.526 190.911,168.751 190.911,169.031L190.911,169.071ZM201.34,167.494L213.725,167.494C214.109,167.494 214.413,167.825 214.38,168.208L213.341,180.54C213.315,180.881 213.027,181.142 212.686,181.142L200.305,181.142C199.921,181.142 199.617,180.811 199.65,180.428L200.686,168.096C200.712,167.755 201,167.494 201.34,167.494ZM201.327,167.855C201.168,167.855 201.039,167.974 201.026,168.129L199.994,180.404C199.981,180.58 200.12,180.732 200.295,180.732L212.62,180.732C212.779,180.732 212.908,180.613 212.921,180.457L213.953,168.182C213.966,168.007 213.828,167.855 213.652,167.855L201.327,167.855ZM205.627,169.171C205.627,169.432 205.416,169.644 205.155,169.645L201.967,169.65C201.704,169.651 201.493,169.439 201.493,169.178L201.493,169.145C201.493,168.883 201.704,168.672 201.965,168.671L205.154,168.665C205.416,168.665 205.627,168.877 205.627,169.138L205.627,169.171ZM227.357,181.258L214.952,181.258C214.559,181.258 214.251,180.92 214.281,180.53L215.319,168.175C215.349,167.828 215.64,167.56 215.991,167.56L228.395,167.56C228.789,167.56 229.097,167.898 229.067,168.288L228.028,180.643C227.998,180.99 227.707,181.258 227.357,181.258ZM227.337,180.755C227.505,180.755 227.648,180.626 227.664,180.454L228.673,168.397C228.69,168.208 228.538,168.043 228.346,168.043L216.054,168.043C215.885,168.043 215.743,168.172 215.726,168.344L214.714,180.401C214.698,180.59 214.85,180.755 215.042,180.755L227.337,180.755ZM220.324,169.26C220.324,169.538 220.099,169.763 219.822,169.764L216.667,169.769C216.388,169.77 216.163,169.545 216.163,169.267L216.163,169.228C216.163,168.949 216.388,168.724 216.665,168.724L219.82,168.718C220.099,168.718 220.324,168.943 220.324,169.22L220.324,169.26ZM230.764,167.663L243.244,167.663C243.615,167.663 243.902,167.977 243.873,168.344L242.827,180.778C242.798,181.102 242.526,181.354 242.199,181.354L229.722,181.354C229.351,181.354 229.063,181.04 229.093,180.672L230.135,168.238C230.165,167.914 230.436,167.663 230.764,167.663ZM230.827,168.063C230.684,168.063 230.565,168.172 230.555,168.314L229.527,180.576C229.51,180.735 229.639,180.874 229.798,180.874L242.106,180.874C242.248,180.874 242.368,180.765 242.377,180.623L243.41,168.361C243.426,168.202 243.297,168.063 243.138,168.063L230.827,168.063ZM235.094,169.376C235.094,169.657 234.865,169.886 234.584,169.886L231.481,169.886C231.2,169.886 230.972,169.657 230.972,169.376L230.972,169.343C230.972,169.062 231.2,168.834 231.481,168.834L234.584,168.834C234.865,168.834 235.094,169.062 235.094,169.343L235.094,169.376ZM170.429,183.54L182.952,183.54C183.326,183.54 183.617,183.858 183.587,184.228L182.539,196.699C182.509,197.03 182.234,197.281 181.904,197.281L169.38,197.281C169.006,197.281 168.715,196.963 168.745,196.593L169.794,184.122C169.823,183.792 170.098,183.54 170.429,183.54ZM170.558,183.997C170.435,183.997 170.333,184.093 170.32,184.215L169.288,196.52C169.274,196.659 169.383,196.778 169.522,196.778L181.88,196.778C182.003,196.778 182.105,196.682 182.119,196.56L183.147,184.255C183.161,184.116 183.051,183.997 182.913,183.997L170.558,183.997ZM174.914,185.283C174.914,185.571 174.683,185.806 174.392,185.807L171.204,185.812C170.915,185.813 170.68,185.578 170.68,185.291L170.68,185.251C170.68,184.963 170.912,184.728 171.202,184.727L174.391,184.722C174.679,184.721 174.914,184.956 174.914,185.243L174.914,185.283ZM196.541,197.334L184.179,197.334C183.779,197.334 183.465,196.99 183.498,196.593L184.53,184.281C184.56,183.924 184.858,183.653 185.211,183.653L197.573,183.653C197.973,183.653 198.287,183.997 198.254,184.394L197.222,196.705C197.192,197.063 196.895,197.334 196.541,197.334ZM196.418,196.934C196.633,196.934 196.812,196.768 196.832,196.553L197.844,184.506C197.864,184.268 197.672,184.06 197.431,184.06L185.334,184.06C185.119,184.06 184.94,184.225 184.92,184.44L183.908,196.487C183.888,196.725 184.08,196.934 184.322,196.934L196.418,196.934ZM189.555,185.376C189.555,185.637 189.343,185.849 189.082,185.849L185.88,185.849C185.618,185.849 185.407,185.637 185.407,185.376L185.407,185.336C185.407,185.075 185.618,184.863 185.88,184.863L189.082,184.863C189.343,184.863 189.555,185.075 189.555,185.336L189.555,185.376ZM211.376,197.42L198.886,197.42C198.509,197.42 198.211,197.096 198.244,196.722L199.283,184.354C199.309,184.02 199.591,183.762 199.925,183.762L212.415,183.762C212.792,183.762 213.09,184.086 213.057,184.46L212.018,196.828C211.992,197.162 211.711,197.42 211.376,197.42ZM199.921,184.232C199.799,184.232 199.7,184.324 199.69,184.447L198.655,196.719C198.645,196.854 198.754,196.973 198.889,196.973L211.376,196.973C211.499,196.973 211.598,196.881 211.608,196.758L212.643,184.486C212.653,184.351 212.544,184.232 212.408,184.232L199.921,184.232ZM204.334,185.479C204.334,185.74 204.122,185.948 203.863,185.948L200.675,185.942C200.414,185.942 200.206,185.73 200.206,185.472L200.206,185.439C200.206,185.178 200.418,184.969 200.676,184.97L203.865,184.975C204.126,184.976 204.334,185.188 204.334,185.446L204.334,185.479ZM226.093,197.546L213.556,197.546C213.189,197.546 212.901,197.231 212.931,196.868L213.976,184.397C214.006,184.073 214.277,183.825 214.602,183.825L227.142,183.825C227.509,183.825 227.797,184.139 227.767,184.503L226.718,196.973C226.688,197.298 226.417,197.546 226.093,197.546ZM214.731,184.294C214.572,184.294 214.443,184.414 214.43,184.569L213.407,196.748C213.394,196.924 213.533,197.076 213.708,197.076L225.934,197.076C226.093,197.076 226.222,196.957 226.235,196.801L227.257,184.622C227.271,184.447 227.132,184.294 226.956,184.294L214.731,184.294ZM219.027,185.575C219.027,185.862 218.793,186.097 218.503,186.096L215.4,186.085C215.111,186.084 214.879,185.849 214.879,185.561L214.88,185.521C214.879,185.234 215.114,184.999 215.404,185L218.507,185.011C218.796,185.012 219.027,185.247 219.028,185.536L219.027,185.575ZM240.803,197.668L228.435,197.668C228.015,197.668 227.687,197.311 227.724,196.894L228.756,184.576C228.789,184.205 229.097,183.921 229.47,183.921L241.838,183.921C242.258,183.921 242.586,184.278 242.55,184.695L241.517,197.013C241.484,197.384 241.177,197.668 240.803,197.668ZM240.76,197.188C240.906,197.188 241.028,197.076 241.041,196.93L242.07,184.678C242.083,184.516 241.954,184.374 241.792,184.374L229.487,184.374C229.341,184.374 229.219,184.486 229.206,184.632L228.177,196.884C228.164,197.046 228.293,197.188 228.455,197.188L240.76,197.188ZM233.767,185.65C233.767,185.912 233.555,186.127 233.292,186.128L230.116,186.133C229.854,186.134 229.639,185.922 229.639,185.658L229.639,185.611C229.639,185.35 229.851,185.135 230.114,185.134L233.29,185.129C233.552,185.128 233.767,185.34 233.767,185.604L233.767,185.65ZM180.571,213.671L168.034,213.671C167.66,213.671 167.366,213.35 167.399,212.98L168.444,200.496C168.474,200.165 168.748,199.911 169.079,199.911L181.616,199.911C181.99,199.911 182.284,200.232 182.251,200.602L181.206,213.086C181.176,213.417 180.901,213.671 180.571,213.671ZM180.438,213.172C180.59,213.172 180.716,213.056 180.729,212.904L181.748,200.787C181.761,200.619 181.629,200.473 181.457,200.473L169.248,200.473C169.096,200.473 168.97,200.589 168.957,200.741L167.938,212.858C167.925,213.026 168.057,213.172 168.229,213.172L180.438,213.172ZM173.515,201.667C173.515,201.958 173.28,202.193 172.989,202.193L169.833,202.193C169.542,202.193 169.307,201.958 169.307,201.667L169.307,201.628C169.307,201.336 169.542,201.102 169.833,201.102L172.989,201.102C173.28,201.102 173.515,201.336 173.515,201.628L173.515,201.667ZM195.158,213.757L182.81,213.757C182.387,213.757 182.052,213.393 182.089,212.973L183.118,200.711C183.151,200.334 183.465,200.046 183.839,200.046L196.19,200.046C196.614,200.046 196.948,200.41 196.911,200.83L195.879,213.092C195.846,213.47 195.532,213.757 195.158,213.757ZM183.868,200.526C183.71,200.526 183.574,200.648 183.561,200.81L182.552,212.841C182.535,213.023 182.678,213.178 182.86,213.178L195.185,213.178C195.343,213.178 195.479,213.056 195.492,212.894L196.501,200.863C196.518,200.681 196.375,200.526 196.193,200.526L183.868,200.526ZM188.152,201.83C188.152,202.077 187.95,202.276 187.705,202.275L184.483,202.27C184.236,202.269 184.037,202.067 184.037,201.822L184.037,201.69C184.037,201.442 184.239,201.244 184.485,201.244L187.706,201.25C187.954,201.25 188.152,201.452 188.152,201.697L188.152,201.83ZM209.971,213.814L197.53,213.814C197.153,213.814 196.855,213.489 196.888,213.116L197.927,200.728C197.953,200.394 198.234,200.136 198.569,200.136L211.009,200.136C211.386,200.136 211.684,200.46 211.651,200.834L210.612,213.221C210.586,213.556 210.305,213.814 209.971,213.814ZM198.724,200.549C198.522,200.549 198.357,200.701 198.34,200.9L197.325,212.993C197.305,213.218 197.48,213.41 197.705,213.41L209.848,213.41C210.05,213.41 210.215,213.258 210.232,213.059L211.244,200.966C211.264,200.741 211.089,200.549 210.864,200.549L198.724,200.549ZM202.928,201.859C202.928,202.117 202.72,202.325 202.464,202.327L199.275,202.338C199.018,202.339 198.807,202.13 198.807,201.873L198.807,201.84C198.807,201.581 199.015,201.373 199.271,201.372L202.46,201.361C202.717,201.36 202.928,201.568 202.928,201.825L202.928,201.859ZM224.664,213.923L212.273,213.923C211.873,213.923 211.562,213.582 211.595,213.185L212.63,200.84C212.66,200.486 212.954,200.215 213.308,200.215L225.699,200.215C226.1,200.215 226.411,200.556 226.377,200.953L225.342,213.298C225.312,213.652 225.018,213.923 224.664,213.923ZM225.885,201.078C225.901,200.87 225.736,200.688 225.524,200.688L213.384,200.688C213.199,200.688 213.04,200.83 213.027,201.019L212.008,213.112C211.992,213.321 212.157,213.503 212.369,213.503L224.512,213.503C224.697,213.503 224.856,213.36 224.869,213.172L225.885,201.078ZM217.638,201.956C217.635,202.226 217.417,202.445 217.145,202.442L213.956,202.42C213.685,202.418 213.467,202.196 213.47,201.927L213.47,201.894C213.474,201.624 213.692,201.406 213.963,201.408L217.152,201.43C217.423,201.432 217.641,201.654 217.638,201.923L217.638,201.956ZM228.098,200.271L240.469,200.271C240.896,200.271 241.23,200.635 241.193,201.059L240.161,213.377C240.128,213.754 239.814,214.045 239.437,214.045L227.062,214.045C226.636,214.045 226.301,213.681 226.338,213.258L227.373,200.939C227.406,200.562 227.72,200.271 228.098,200.271ZM239.374,213.519C239.51,213.519 239.625,213.417 239.635,213.281L240.661,201.082C240.674,200.93 240.552,200.797 240.399,200.797L228.104,200.797C227.969,200.797 227.853,200.9 227.843,201.035L226.817,213.235C226.804,213.387 226.927,213.519 227.079,213.519L239.374,213.519ZM232.342,202.074C232.342,202.349 232.117,202.574 231.842,202.574L228.726,202.574C228.452,202.574 228.227,202.349 228.227,202.074L228.227,202.001C228.227,201.727 228.452,201.502 228.726,201.502L231.842,201.502C232.117,201.502 232.342,201.727 232.342,202.001L232.342,202.074Z" style="fill:white;fill-opacity:0.5;"/>
    <path d="M173.273,151.312L185.526,151.312C185.698,151.312 185.833,151.461 185.82,151.63L184.795,163.835C184.781,163.991 184.652,164.107 184.5,164.107L172.248,164.107C172.076,164.107 171.94,163.958 171.954,163.789L172.979,151.583C172.992,151.428 173.121,151.312 173.273,151.312ZM177.557,152.58C177.56,152.275 177.312,152.027 177.008,152.025L173.951,152.009C173.647,152.007 173.399,152.251 173.396,152.558L173.396,152.638C173.393,152.943 173.641,153.191 173.945,153.193L177.002,153.209C177.306,153.211 177.554,152.966 177.557,152.659L177.557,152.58Z" style="fill:white;fill-opacity:0.95;fill-rule:nonzero;"/>
    <path d="M188.007,151.434L200.199,151.434C200.401,151.434 200.56,151.606 200.543,151.808L199.521,163.955C199.505,164.133 199.356,164.269 199.177,164.269L186.984,164.269C186.783,164.269 186.624,164.097 186.64,163.895L187.663,151.749C187.679,151.57 187.828,151.434 188.007,151.434ZM192.26,152.671C192.26,152.374 192.016,152.132 191.719,152.134L188.63,152.144C188.331,152.146 188.093,152.387 188.093,152.685L188.093,152.725C188.093,153.022 188.337,153.264 188.634,153.262L191.723,153.252C192.022,153.25 192.26,153.009 192.261,152.711L192.26,152.671Z" style="fill:white;fill-opacity:0.95;fill-rule:nonzero;"/>
    <path d="M202.73,151.58L215.038,151.58C215.217,151.58 215.356,151.732 215.343,151.911L214.327,164.008C214.314,164.163 214.181,164.285 214.023,164.285L201.711,164.285C201.532,164.285 201.393,164.133 201.407,163.955L202.425,151.858C202.439,151.702 202.571,151.58 202.73,151.58ZM207.003,152.763C207,152.453 206.749,152.205 206.439,152.209L203.429,152.235C203.12,152.238 202.872,152.49 202.875,152.799L202.876,152.845C202.879,153.154 203.13,153.403 203.439,153.399L206.449,153.373C206.759,153.37 207.007,153.118 207.004,152.809L207.003,152.763Z" style="fill:white;fill-opacity:0.95;fill-rule:nonzero;"/>
    <path d="M228.703,164.401L216.434,164.401C216.222,164.401 216.057,164.219 216.074,164.011L217.089,151.934C217.102,151.745 217.261,151.603 217.446,151.603L229.715,151.603C229.927,151.603 230.092,151.785 230.076,151.993L229.06,164.07C229.047,164.259 228.888,164.401 228.703,164.401ZM221.733,152.832C221.73,152.529 221.485,152.288 221.183,152.29L218.081,152.312C217.78,152.314 217.536,152.559 217.539,152.862L217.539,152.948C217.542,153.25 217.787,153.492 218.089,153.489L221.192,153.468C221.492,153.465 221.737,153.221 221.734,152.918L221.733,152.832Z" style="fill:white;fill-opacity:0.95;fill-rule:nonzero;"/>
    <path d="M243.426,164.497L231.24,164.497C231.035,164.497 230.873,164.322 230.893,164.117L231.912,151.987C231.925,151.805 232.077,151.666 232.259,151.666L244.445,151.666C244.65,151.666 244.812,151.841 244.792,152.046L243.773,164.176C243.76,164.358 243.608,164.497 243.426,164.497ZM236.513,152.945C236.513,152.655 236.275,152.42 235.985,152.421L232.842,152.432C232.553,152.433 232.318,152.668 232.318,152.96L232.318,152.993C232.318,153.283 232.557,153.518 232.846,153.517L235.989,153.506C236.278,153.505 236.513,153.27 236.513,152.978L236.513,152.945Z" style="fill:white;fill-opacity:0.95;fill-rule:nonzero;"/>
    <path d="M257.64,153.227L260.981,153.227C262.019,153.227 262.836,154.117 262.75,155.152L261.619,168.635C261.543,169.555 260.772,170.263 259.849,170.263L256.505,170.263C255.467,170.263 254.65,169.373 254.736,168.337L255.87,154.855C255.946,153.935 256.717,153.227 257.64,153.227Z" style="fill:white;fill-opacity:0.95;fill-rule:nonzero;"/>
    <path d="M263.528,169.866C263.114,169.621 262.83,169.27 262.671,168.814C262.638,168.718 262.625,168.615 262.631,168.513L263.806,154.679C263.812,154.583 263.845,154.488 263.902,154.408C264.213,153.948 264.623,153.585 265.129,153.307C265.231,153.254 265.344,153.224 265.456,153.224C268.294,153.25 273.316,153.283 280.52,153.327C281.81,153.336 282.614,153.211 283.186,154.12C283.272,154.253 283.315,154.411 283.312,154.57C283.219,160.286 282.789,165.149 282.022,169.154C281.959,169.472 281.632,169.76 281.039,170.018C280.97,170.048 280.897,170.064 280.821,170.061L263.839,169.952C263.73,169.952 263.624,169.922 263.528,169.866ZM281.162,159.944C281.162,159.588 280.874,159.297 280.519,159.296L265.779,159.245C265.423,159.244 265.132,159.532 265.132,159.888L265.132,159.908C265.132,160.263 265.42,160.554 265.775,160.555L280.515,160.606C280.871,160.607 281.162,160.319 281.162,159.964L281.162,159.944ZM274.192,163.546C274.192,163.227 273.934,162.966 273.614,162.966L265.418,162.952C265.099,162.952 264.838,163.21 264.838,163.53L264.838,163.609C264.838,163.928 265.096,164.189 265.416,164.189L273.612,164.203C273.931,164.203 274.192,163.945 274.192,163.625L274.192,163.546Z" style="fill:white;fill-opacity:0.5;fill-rule:nonzero;"/>
    <path d="M118.148,158.08L115.479,169.409C115.462,169.472 115.41,169.518 115.343,169.522L100.706,170.547C100.607,170.554 100.528,170.461 100.551,170.365L103.217,159.039C103.233,158.976 103.286,158.93 103.352,158.927L117.993,157.898C118.092,157.891 118.172,157.984 118.148,158.08Z" style="fill:white;fill-opacity:0.5;fill-rule:nonzero;"/>
    <path d="M281.162,159.964C281.162,160.319 280.871,160.607 280.515,160.606L265.775,160.555C265.42,160.554 265.132,160.263 265.132,159.908L265.132,159.888C265.132,159.532 265.423,159.244 265.779,159.245L280.519,159.296C280.874,159.297 281.162,159.588 281.162,159.944L281.162,159.964Z" style="fill:white;fill-opacity:0.95;fill-rule:nonzero;"/>
    <path d="M80.565,171.632L83.188,160.488C83.211,160.399 83.287,160.336 83.376,160.329L97.723,159.324C97.861,159.314 97.971,159.443 97.938,159.578L95.314,170.722C95.291,170.812 95.215,170.875 95.126,170.881L80.78,171.887C80.641,171.897 80.532,171.768 80.565,171.632Z" style="fill:white;fill-opacity:0.5;fill-rule:nonzero;"/>
    <path d="M78.038,160.921L75.401,172.108C75.381,172.181 75.322,172.234 75.249,172.241L60.863,173.246C60.751,173.256 60.662,173.15 60.688,173.041L63.324,161.851C63.344,161.778 63.404,161.725 63.476,161.718L77.862,160.716C77.975,160.706 78.064,160.812 78.038,160.921Z" style="fill:white;fill-opacity:0.5;fill-rule:nonzero;"/>
    <path d="M41.324,174.424L43.977,163.184C43.987,163.138 44.026,163.104 44.073,163.101L58.449,162.096C58.518,162.092 58.574,162.155 58.558,162.225L55.905,173.468C55.895,173.514 55.855,173.547 55.809,173.551L41.433,174.553C41.364,174.556 41.307,174.493 41.324,174.424Z" style="fill:white;fill-opacity:0.5;fill-rule:nonzero;"/>
    <path d="M274.192,163.625C274.192,163.945 273.931,164.203 273.612,164.203L265.416,164.189C265.096,164.189 264.838,163.928 264.838,163.609L264.838,163.53C264.838,163.21 265.099,162.952 265.418,162.952L273.614,162.966C273.934,162.966 274.192,163.227 274.192,163.546L274.192,163.625Z" style="fill:white;fill-opacity:0.95;fill-rule:nonzero;"/>
    <path d="M40.037,163.568L37.421,174.679C37.404,174.741 37.351,174.788 37.285,174.791L23.21,175.777C23.111,175.783 23.032,175.691 23.055,175.595L25.671,164.484C25.688,164.421 25.741,164.375 25.807,164.371L39.882,163.386C39.981,163.379 40.06,163.472 40.037,163.568Z" style="fill:white;fill-opacity:0.5;fill-rule:nonzero;"/>
    <path d="M171.927,167.772L184.199,167.772C184.378,167.772 184.517,167.924 184.504,168.103L183.485,180.189C183.472,180.345 183.339,180.467 183.18,180.467L170.908,180.467C170.73,180.467 170.591,180.315 170.604,180.137L171.623,168.05C171.636,167.894 171.768,167.772 171.927,167.772ZM176.214,168.966C176.214,168.668 175.973,168.427 175.676,168.426L172.507,168.421C172.208,168.42 171.967,168.662 171.967,168.959L171.967,168.992C171.967,169.29 172.208,169.532 172.505,169.532L175.674,169.538C175.973,169.538 176.214,169.297 176.214,168.999L176.214,168.966Z" style="fill:white;fill-opacity:0.95;fill-rule:nonzero;"/>
    <path d="M186.588,167.759L198.883,167.759C199.065,167.759 199.207,167.914 199.19,168.096L198.162,180.345C198.148,180.507 198.013,180.629 197.854,180.629L185.559,180.629C185.377,180.629 185.235,180.474 185.251,180.292L186.28,168.043C186.293,167.881 186.429,167.759 186.588,167.759ZM190.911,169.031C190.911,168.751 190.683,168.526 190.402,168.528L187.207,168.544C186.928,168.546 186.703,168.774 186.703,169.053L186.703,169.093C186.703,169.373 186.932,169.598 187.212,169.596L190.408,169.579C190.686,169.578 190.911,169.35 190.911,169.071L190.911,169.031Z" style="fill:white;fill-opacity:0.95;fill-rule:nonzero;"/>
    <path d="M201.327,167.855L213.652,167.855C213.828,167.855 213.966,168.007 213.953,168.182L212.921,180.457C212.908,180.613 212.779,180.732 212.62,180.732L200.295,180.732C200.12,180.732 199.981,180.58 199.994,180.404L201.026,168.129C201.039,167.974 201.168,167.855 201.327,167.855ZM205.627,169.138C205.627,168.877 205.416,168.665 205.154,168.665L201.965,168.671C201.704,168.672 201.493,168.883 201.493,169.145L201.493,169.178C201.493,169.439 201.704,169.651 201.967,169.65L205.155,169.645C205.416,169.644 205.627,169.432 205.627,169.171L205.627,169.138Z" style="fill:white;fill-opacity:0.95;fill-rule:nonzero;"/>
    <path d="M227.337,180.755L215.042,180.755C214.85,180.755 214.698,180.59 214.714,180.401L215.726,168.344C215.743,168.172 215.885,168.043 216.054,168.043L228.346,168.043C228.538,168.043 228.69,168.208 228.673,168.397L227.664,180.454C227.648,180.626 227.505,180.755 227.337,180.755ZM220.324,169.22C220.324,168.943 220.099,168.718 219.82,168.718L216.665,168.724C216.388,168.724 216.163,168.949 216.163,169.228L216.163,169.267C216.163,169.545 216.388,169.77 216.667,169.769L219.822,169.764C220.099,169.763 220.324,169.538 220.324,169.26L220.324,169.22Z" style="fill:white;fill-opacity:0.95;fill-rule:nonzero;"/>
    <path d="M230.827,168.063L243.138,168.063C243.297,168.063 243.426,168.202 243.41,168.361L242.377,180.623C242.368,180.765 242.248,180.874 242.106,180.874L229.798,180.874C229.639,180.874 229.51,180.735 229.527,180.576L230.555,168.314C230.565,168.172 230.684,168.063 230.827,168.063ZM235.094,169.343C235.094,169.062 234.865,168.834 234.584,168.834L231.481,168.834C231.2,168.834 230.972,169.062 230.972,169.343L230.972,169.376C230.972,169.657 231.2,169.886 231.481,169.886L234.584,169.886C234.865,169.886 235.094,169.657 235.094,169.376L235.094,169.343Z" style="fill:white;fill-opacity:0.95;fill-rule:nonzero;"/>
    <path d="M155.369,172.47C155.421,170.676 156.933,169.264 158.75,169.315C160.568,169.366 162,170.861 161.949,172.653C161.898,174.447 160.386,175.859 158.569,175.809C156.751,175.757 155.319,174.262 155.369,172.47Z" style="fill:white;fill-opacity:0.85;fill-rule:nonzero;"/>
    <path d="M114.669,172.747L112.036,183.907C112.016,184.003 111.933,184.07 111.837,184.076L97.362,185.092C97.213,185.102 97.097,184.963 97.13,184.817L99.763,173.656C99.783,173.561 99.866,173.494 99.962,173.488L114.437,172.472C114.586,172.462 114.702,172.601 114.669,172.747Z" style="fill:white;fill-opacity:0.5;fill-rule:nonzero;"/>
    <path d="M94.544,173.934L91.871,185.264C91.861,185.31 91.821,185.343 91.775,185.346L77.23,186.362C77.161,186.365 77.105,186.302 77.121,186.233L79.794,174.904C79.804,174.857 79.844,174.824 79.89,174.821L94.435,173.805C94.504,173.802 94.56,173.865 94.544,173.934Z" style="fill:white;fill-opacity:0.5;fill-rule:nonzero;"/>
    <path d="M255.9,174.305L259.165,174.305C260.22,174.305 261.05,175.208 260.961,176.26L259.833,189.693C259.754,190.626 258.973,191.343 258.037,191.343L254.772,191.343C253.717,191.343 252.886,190.44 252.976,189.389L254.104,175.955C254.183,175.023 254.964,174.305 255.9,174.305Z" style="fill:white;fill-opacity:0.95;fill-rule:nonzero;"/>
    <path d="M261.768,190.94C261.355,190.698 261.067,190.348 260.911,189.891C260.878,189.795 260.865,189.693 260.872,189.59L262.036,175.754C262.043,175.658 262.076,175.562 262.132,175.482C262.443,175.023 262.853,174.655 263.359,174.381C263.458,174.328 263.571,174.298 263.687,174.298C266.525,174.321 271.546,174.351 278.75,174.391C280.041,174.397 280.844,174.272 281.417,175.181C281.503,175.314 281.546,175.472 281.542,175.631C281.456,181.347 281.03,186.21 280.262,190.219C280.199,190.533 279.872,190.821 279.28,191.082C279.214,191.112 279.137,191.128 279.061,191.125L262.079,191.026C261.97,191.026 261.864,190.996 261.768,190.94ZM279.359,181C279.362,180.649 279.078,180.358 278.726,180.356L263.974,180.228C263.62,180.226 263.333,180.507 263.33,180.86L263.329,180.94C263.326,181.291 263.61,181.582 263.962,181.584L278.715,181.713C279.068,181.714 279.356,181.433 279.358,181.08L279.359,181ZM272.456,184.655C272.459,184.285 272.161,183.98 271.789,183.979L263.691,183.922C263.319,183.921 263.018,184.218 263.015,184.589L263.015,184.615C263.012,184.986 263.309,185.29 263.682,185.292L271.779,185.348C272.151,185.35 272.452,185.052 272.455,184.681L272.456,184.655Z" style="fill:white;fill-opacity:0.5;fill-rule:nonzero;"/>
    <path d="M74.644,175.251L71.978,186.55C71.968,186.593 71.931,186.626 71.888,186.63L57.4,187.642C57.331,187.649 57.281,187.586 57.294,187.52L59.96,176.22C59.97,176.177 60.007,176.144 60.05,176.141L74.538,175.128C74.607,175.122 74.657,175.185 74.644,175.251Z" style="fill:white;fill-opacity:0.5;fill-rule:nonzero;"/>
    <path d="M38.013,188.684L40.629,177.576C40.646,177.51 40.702,177.46 40.771,177.457L55.051,176.455C55.157,176.448 55.24,176.544 55.214,176.647L52.597,187.754C52.58,187.821 52.524,187.87 52.455,187.874L38.175,188.876C38.069,188.882 37.986,188.787 38.013,188.684Z" style="fill:white;fill-opacity:0.5;fill-rule:nonzero;"/>
    <path d="M36.713,177.897L34.113,188.922C34.096,188.995 34.033,189.048 33.957,189.054L19.935,190.034C19.82,190.043 19.73,189.934 19.757,189.822L22.357,178.797C22.373,178.724 22.436,178.671 22.512,178.665L36.534,177.685C36.65,177.675 36.739,177.785 36.713,177.897Z" style="fill:white;fill-opacity:0.5;fill-rule:nonzero;"/>
    <path d="M279.358,181.08C279.356,181.433 279.068,181.714 278.715,181.713L263.962,181.584C263.61,181.582 263.326,181.291 263.329,180.94L263.33,180.86C263.333,180.507 263.62,180.226 263.974,180.228L278.726,180.356C279.078,180.358 279.362,180.649 279.359,181L279.358,181.08Z" style="fill:white;fill-opacity:0.95;fill-rule:nonzero;"/>
    <path d="M170.558,183.997L182.913,183.997C183.051,183.997 183.161,184.116 183.147,184.255L182.119,196.56C182.105,196.682 182.003,196.778 181.88,196.778L169.522,196.778C169.383,196.778 169.274,196.659 169.288,196.52L170.32,184.215C170.333,184.093 170.435,183.997 170.558,183.997ZM174.914,185.243C174.914,184.956 174.679,184.721 174.391,184.722L171.202,184.727C170.912,184.728 170.68,184.963 170.68,185.251L170.68,185.291C170.68,185.578 170.915,185.813 171.204,185.812L174.392,185.807C174.683,185.806 174.914,185.571 174.914,185.283L174.914,185.243Z" style="fill:white;fill-opacity:0.95;fill-rule:nonzero;"/>
    <path d="M272.455,184.681C272.452,185.052 272.151,185.35 271.779,185.348L263.682,185.292C263.309,185.29 263.012,184.986 263.015,184.615L263.015,184.589C263.018,184.218 263.319,183.921 263.691,183.922L271.789,183.979C272.161,183.98 272.459,184.285 272.456,184.655L272.455,184.681Z" style="fill:white;fill-opacity:0.95;fill-rule:nonzero;"/>
    <path d="M196.418,196.934L184.322,196.934C184.08,196.934 183.888,196.725 183.908,196.487L184.92,184.44C184.94,184.225 185.119,184.06 185.334,184.06L197.431,184.06C197.672,184.06 197.864,184.268 197.844,184.506L196.832,196.553C196.812,196.768 196.633,196.934 196.418,196.934ZM189.555,185.336C189.555,185.075 189.343,184.863 189.082,184.863L185.88,184.863C185.618,184.863 185.407,185.075 185.407,185.336L185.407,185.376C185.407,185.637 185.618,185.849 185.88,185.849L189.082,185.849C189.343,185.849 189.555,185.637 189.555,185.376L189.555,185.336Z" style="fill:white;fill-opacity:0.95;fill-rule:nonzero;"/>
    <path d="M199.921,184.232L212.408,184.232C212.544,184.232 212.653,184.351 212.643,184.486L211.608,196.758C211.598,196.881 211.499,196.973 211.376,196.973L198.889,196.973C198.754,196.973 198.645,196.854 198.655,196.719L199.69,184.447C199.7,184.324 199.799,184.232 199.921,184.232ZM204.334,185.446C204.334,185.188 204.126,184.976 203.865,184.975L200.676,184.97C200.418,184.969 200.206,185.178 200.206,185.439L200.206,185.472C200.206,185.73 200.414,185.942 200.675,185.942L203.863,185.948C204.122,185.948 204.334,185.74 204.334,185.479L204.334,185.446Z" style="fill:white;fill-opacity:0.95;fill-rule:nonzero;"/>
    <path d="M214.731,184.294L226.956,184.294C227.132,184.294 227.271,184.447 227.257,184.622L226.235,196.801C226.222,196.957 226.093,197.076 225.934,197.076L213.708,197.076C213.533,197.076 213.394,196.924 213.407,196.748L214.43,184.569C214.443,184.414 214.572,184.294 214.731,184.294ZM219.028,185.536C219.027,185.247 218.796,185.012 218.507,185.011L215.404,185C215.114,184.999 214.879,185.234 214.88,185.521L214.879,185.561C214.879,185.849 215.111,186.084 215.4,186.085L218.503,186.096C218.793,186.097 219.027,185.862 219.027,185.575L219.028,185.536Z" style="fill:white;fill-opacity:0.95;fill-rule:nonzero;"/>
    <path d="M240.76,197.188L228.455,197.188C228.293,197.188 228.164,197.046 228.177,196.884L229.206,184.632C229.219,184.486 229.341,184.374 229.487,184.374L241.792,184.374C241.954,184.374 242.083,184.516 242.07,184.678L241.041,196.93C241.028,197.076 240.906,197.188 240.76,197.188ZM233.767,185.604C233.767,185.34 233.552,185.128 233.29,185.129L230.114,185.134C229.851,185.135 229.639,185.35 229.639,185.611L229.639,185.658C229.639,185.922 229.854,186.134 230.116,186.133L233.292,186.128C233.555,186.127 233.767,185.912 233.767,185.65L233.767,185.604Z" style="fill:white;fill-opacity:0.95;fill-rule:nonzero;"/>
    <path d="M73.612,201.201L76.278,189.895C76.288,189.852 76.324,189.819 76.37,189.815L90.915,188.8C90.984,188.793 91.037,188.859 91.021,188.925L88.355,200.232C88.345,200.275 88.308,200.308 88.262,200.311L73.718,201.327C73.648,201.333 73.595,201.267 73.612,201.201Z" style="fill:white;fill-opacity:0.5;fill-rule:nonzero;"/>
    <path d="M71.134,190.258L68.511,201.393C68.494,201.459 68.438,201.508 68.369,201.512L54,202.517C53.894,202.527 53.811,202.428 53.834,202.325L56.461,191.191C56.477,191.125 56.533,191.076 56.603,191.072L70.969,190.067C71.075,190.057 71.157,190.156 71.134,190.258Z" style="fill:white;fill-opacity:0.5;fill-rule:nonzero;"/>
    <path d="M51.707,191.472L49.084,202.583C49.071,202.646 49.018,202.689 48.955,202.693L34.685,203.692C34.589,203.698 34.516,203.609 34.536,203.516L37.159,192.405C37.173,192.342 37.225,192.299 37.288,192.296L51.558,191.297C51.654,191.291 51.727,191.38 51.707,191.472Z" style="fill:white;fill-opacity:0.5;fill-rule:nonzero;"/>
    <path d="M16.343,204.598L18.95,193.55C18.963,193.487 19.016,193.441 19.079,193.437L33.124,192.455C33.223,192.448 33.299,192.538 33.276,192.634L30.669,203.678C30.656,203.741 30.603,203.788 30.54,203.791L16.495,204.777C16.396,204.783 16.32,204.694 16.343,204.598Z" style="fill:white;fill-opacity:0.5;fill-rule:nonzero;"/>
    <path d="M256.27,212.398L253.006,212.398C251.95,212.398 251.12,211.495 251.209,210.443L252.334,197.03C252.413,196.097 253.194,195.379 254.13,195.379L257.398,195.379C258.454,195.379 259.284,196.282 259.195,197.334L258.067,210.747C257.987,211.68 257.207,212.398 256.27,212.398Z" style="fill:white;fill-opacity:0.95;fill-rule:nonzero;"/>
    <path d="M259.995,212.011C259.578,211.769 259.294,211.419 259.138,210.962C259.105,210.866 259.092,210.764 259.099,210.661L260.273,196.828C260.28,196.732 260.313,196.636 260.369,196.557C260.68,196.1 261.087,195.733 261.596,195.458C261.695,195.402 261.808,195.376 261.923,195.376C264.762,195.399 269.78,195.432 276.984,195.478C278.274,195.485 279.078,195.359 279.65,196.269C279.736,196.401 279.779,196.56 279.773,196.719C279.683,202.435 279.253,207.294 278.486,211.303C278.423,211.617 278.096,211.905 277.503,212.166C277.434,212.196 277.361,212.209 277.285,212.209L260.306,212.097C260.197,212.097 260.088,212.067 259.995,212.011ZM277.596,202.066C277.599,201.71 277.312,201.419 276.954,201.418L262.221,201.341C261.864,201.34 261.576,201.628 261.573,201.983L261.573,202.002C261.57,202.359 261.857,202.65 262.215,202.651L276.947,202.728C277.305,202.729 277.593,202.441 277.596,202.086L277.596,202.066ZM270.636,205.668C270.636,205.316 270.352,205.028 269.999,205.028L261.862,205.014C261.51,205.015 261.222,205.299 261.222,205.652L261.222,205.685C261.222,206.037 261.507,206.325 261.86,206.324L269.997,206.338C270.349,206.338 270.636,206.053 270.636,205.701L270.636,205.668Z" style="fill:white;fill-opacity:0.5;fill-rule:nonzero;"/>
    <path d="M180.438,213.172L168.229,213.172C168.057,213.172 167.925,213.026 167.938,212.858L168.957,200.741C168.97,200.589 169.096,200.473 169.248,200.473L181.457,200.473C181.629,200.473 181.761,200.619 181.748,200.787L180.729,212.904C180.716,213.056 180.59,213.172 180.438,213.172ZM173.515,201.628C173.515,201.336 173.28,201.102 172.989,201.102L169.833,201.102C169.542,201.102 169.307,201.336 169.307,201.628L169.307,201.667C169.307,201.958 169.542,202.193 169.833,202.193L172.989,202.193C173.28,202.193 173.515,201.958 173.515,201.667L173.515,201.628Z" style="fill:white;fill-opacity:0.95;fill-rule:nonzero;"/>
    <path d="M183.868,200.526L196.193,200.526C196.375,200.526 196.518,200.681 196.501,200.863L195.492,212.894C195.479,213.056 195.343,213.178 195.185,213.178L182.86,213.178C182.678,213.178 182.535,213.023 182.552,212.841L183.561,200.81C183.574,200.648 183.71,200.526 183.868,200.526ZM188.152,201.697C188.152,201.452 187.954,201.25 187.706,201.25L184.485,201.244C184.239,201.244 184.037,201.442 184.037,201.69L184.037,201.822C184.037,202.067 184.236,202.269 184.483,202.27L187.705,202.275C187.95,202.276 188.152,202.077 188.152,201.83L188.152,201.697Z" style="fill:white;fill-opacity:0.95;fill-rule:nonzero;"/>
    <path d="M198.724,200.549L210.864,200.549C211.089,200.549 211.264,200.741 211.244,200.966L210.232,213.059C210.215,213.258 210.05,213.41 209.848,213.41L197.705,213.41C197.48,213.41 197.305,213.218 197.325,212.993L198.34,200.9C198.357,200.701 198.522,200.549 198.724,200.549ZM202.928,201.825C202.928,201.568 202.717,201.36 202.46,201.361L199.271,201.372C199.015,201.373 198.807,201.581 198.807,201.84L198.807,201.873C198.807,202.13 199.018,202.339 199.275,202.338L202.464,202.327C202.72,202.325 202.928,202.117 202.928,201.859L202.928,201.825Z" style="fill:white;fill-opacity:0.95;fill-rule:nonzero;"/>
    <path d="M225.885,201.078L224.869,213.172C224.856,213.36 224.697,213.503 224.512,213.503L212.369,213.503C212.157,213.503 211.992,213.321 212.008,213.112L213.027,201.019C213.04,200.83 213.199,200.688 213.384,200.688L225.524,200.688C225.736,200.688 225.901,200.87 225.885,201.078ZM217.638,201.923C217.641,201.654 217.423,201.432 217.152,201.43L213.963,201.408C213.692,201.406 213.474,201.624 213.47,201.894L213.47,201.927C213.467,202.196 213.685,202.418 213.956,202.42L217.145,202.442C217.417,202.445 217.635,202.226 217.638,201.956L217.638,201.923Z" style="fill:white;fill-opacity:0.95;fill-rule:nonzero;"/>
    <path d="M239.374,213.519L227.079,213.519C226.927,213.519 226.804,213.387 226.817,213.235L227.843,201.035C227.853,200.9 227.969,200.797 228.104,200.797L240.399,200.797C240.552,200.797 240.674,200.93 240.661,201.082L239.635,213.281C239.625,213.417 239.51,213.519 239.374,213.519ZM232.342,202.001C232.342,201.727 232.117,201.502 231.842,201.502L228.726,201.502C228.452,201.502 228.227,201.727 228.227,202.001L228.227,202.074C228.227,202.349 228.452,202.574 228.726,202.574L231.842,202.574C232.117,202.574 232.342,202.349 232.342,202.074L232.342,202.001Z" style="fill:white;fill-opacity:0.95;fill-rule:nonzero;"/>
    <path d="M277.596,202.086C277.593,202.441 277.305,202.729 276.947,202.728L262.215,202.651C261.857,202.65 261.57,202.359 261.573,202.002L261.573,201.983C261.576,201.628 261.864,201.34 262.221,201.341L276.954,201.418C277.312,201.419 277.599,201.71 277.596,202.066L277.596,202.086Z" style="fill:white;fill-opacity:0.95;fill-rule:nonzero;"/>
    <path d="M270.636,205.701C270.636,206.053 270.349,206.338 269.997,206.338L261.86,206.324C261.507,206.325 261.222,206.037 261.222,205.685L261.222,205.652C261.222,205.299 261.51,205.015 261.862,205.014L269.999,205.028C270.352,205.028 270.636,205.316 270.636,205.668L270.636,205.701Z" style="fill:white;fill-opacity:0.95;fill-rule:nonzero;"/>
</svg>
