<?xml version="1.0" encoding="UTF-8" standalone="no"?>
<!DOCTYPE svg PUBLIC "-//W3C//DTD SVG 1.1//EN" "http://www.w3.org/Graphics/SVG/1.1/DTD/svg11.dtd">
<svg width="100%" height="100%" viewBox="0 0 300 300" version="1.1" xmlns="http://www.w3.org/2000/svg" xmlns:xlink="http://www.w3.org/1999/xlink" xml:space="preserve" xmlns:serif="http://www.serif.com/" style="fill-rule:evenodd;clip-rule:evenodd;stroke-linejoin:round;stroke-miterlimit:2;">
    <path d="M73.589,292.479L9.305,292.503C9.107,292.503 8.948,292.344 8.948,292.146C8.944,104.269 8.948,7.972 8.951,3.249C8.955,0.996 10.951,0.913 12.607,1.152C12.815,1.184 13.026,1.135 13.2,1.021C13.83,0.605 14.288,0.397 14.572,0.397C103.432,0.393 193.876,0.393 285.904,0.397C286.434,0.397 286.805,0.314 287.016,0.144C287.051,0.116 287.092,0.099 287.134,0.089C288.177,-0.158 289.13,0.109 289.993,0.889C290.668,1.502 291.022,2.199 291.053,2.979C291.064,3.204 290.928,3.613 290.648,4.212C290.422,4.694 290.308,5.297 290.308,6.021C290.312,111.764 290.308,207.136 290.305,292.136C290.305,292.33 290.149,292.486 289.955,292.489C269.312,292.503 248.617,292.503 227.871,292.493C226.363,292.493 224.132,292.642 222.194,292.416C222.191,199.107 222.191,105.797 222.191,12.487C222.191,10.211 222.004,8.703 221.626,7.962C220.891,6.517 219.474,5.792 217.378,5.792C185.691,5.791 139.062,5.791 77.491,5.792C76.406,5.792 75.429,6.312 74.559,7.348C73.804,8.249 73.582,9.57 73.582,10.699C73.589,104.595 73.6,198.521 73.589,292.479Z" style="fill:white;fill-opacity:0.15;"/>
    <path d="M222.194,292.416L222.191,294.049C222.191,294.132 222.122,294.201 222.039,294.201L215.971,294.201C215.86,294.201 215.759,294.135 215.718,294.031C215.624,293.813 215.61,293.529 215.669,293.186L215.666,13.27C215.728,12.948 215.725,12.685 215.659,12.484C215.624,12.383 215.527,12.314 215.42,12.314L80.385,12.314C80.236,12.314 80.114,12.435 80.114,12.584L80.121,47.261L80.118,177.625C80.118,177.629 80.121,177.636 80.125,177.639C80.149,177.664 80.18,177.66 80.225,177.632C80.152,177.934 80.118,178.169 80.118,178.332L80.132,196.151C80.132,196.199 80.177,196.248 80.267,196.3C80.18,196.397 80.135,196.473 80.135,196.525C80.118,215.449 80.097,246.876 80.125,290.802L80.125,294.36C80.125,294.471 80.035,294.561 79.924,294.561L73.821,294.561C73.714,294.561 73.627,294.475 73.624,294.367L73.589,292.479C73.6,198.521 73.589,104.595 73.582,10.699C73.582,9.57 73.804,8.249 74.559,7.348C75.429,6.312 76.406,5.792 77.491,5.792C139.062,5.791 185.691,5.791 217.378,5.792C219.474,5.792 220.891,6.517 221.626,7.962C222.004,8.703 222.191,10.211 222.191,12.487C222.191,105.797 222.191,199.107 222.194,292.416Z" style="fill:white;fill-opacity:0.75;"/>
    <path d="M215.669,293.186L193.623,292.687L193.79,197.461C196.271,193.219 197.378,188.222 197.691,183.44C197.895,180.346 197.936,176.215 197.813,171.055C197.704,166.495 197.013,162.249 196.181,157.513C196.139,157.277 196.157,157.038 196.229,156.809C196.403,156.259 196.798,155.853 197.002,155.177C197.443,153.719 198.166,152.606 198.537,151.324C198.821,150.343 199.435,148.75 200.38,146.549C201.092,144.893 201.605,143.566 201.919,142.567C202.173,141.76 202.714,140.421 203.555,138.547C203.693,138.239 203.869,137.947 204.081,137.685C204.686,136.935 205.419,136.215 206.275,135.522C208.09,134.053 211.243,132.11 209.3,130.089C208.458,129.212 206.549,130.131 205.731,130.733C203.618,132.29 202.46,133.128 202.262,133.246C201.697,133.582 201.234,133.81 200.873,133.925C200.738,133.967 200.599,133.866 200.599,133.724C200.597,132.189 200.902,130.803 201.521,129.562C201.826,128.949 202.072,128.401 202.255,127.919C202.415,127.497 202.873,126.544 203.627,125.061C204.398,123.544 204.647,122.749 204.594,121.152C204.56,120.112 204.204,119.21 203.523,118.445C203.15,118.025 202.557,117.913 202.096,118.168C201.02,118.763 200.151,119.691 199.48,120.954C199.124,121.624 198.7,122.531 198.211,123.678C197.733,124.801 196.16,128.865 195.983,129.69C195.889,130.113 195.605,130.459 195.255,130.65C195.117,130.723 194.968,130.574 195.044,130.435C195.3,129.974 195.675,126.616 195.831,125.123C195.843,125.003 195.856,124.88 195.87,124.752C196.047,123.459 196.216,122.203 196.316,121.581C196.607,119.769 196.711,118.265 196.628,117.063C196.493,115.112 195.526,114.53 193.724,115.313C193.672,114.8 193.658,114.1 193.682,113.209C193.739,111.075 193.755,108.625 193.738,105.859C193.63,91.076 193.691,68.271 193.692,31.058C193.693,24.332 193.637,18.974 194.022,13.343C201.198,13.017 208.451,13.125 215.666,13.27L215.669,293.186Z" style="fill:white;fill-opacity:0.15;"/>
    <path d="M80.121,47.261L80.118,177.625C80.118,177.629 80.121,177.636 80.125,177.639C80.149,177.664 80.18,177.66 80.225,177.632C84.47,171.592 89.563,165.161 93.036,160.545C93.874,159.432 94.738,158.175 95.628,156.778C95.621,154.363 95.648,151.989 95.708,149.657C95.786,146.635 95.827,144.265 95.826,142.543C95.807,99.646 95.789,73.604 95.843,64.418C95.846,63.895 95.882,63.129 95.947,62.121C95.961,61.902 96.11,61.715 96.321,61.656L174.879,39.672C175.101,39.61 175.32,39.783 175.309,40.016C175.052,45.408 175.209,50.928 175.129,55.308C175.049,59.671 175.01,63.545 175.015,66.937C175.04,86.62 175.03,107.266 175.015,128.876C175.013,131.094 175.143,133.436 175.198,135.727C175.718,136.212 176.35,137.015 177.094,138.135C177.84,139.257 179.019,139.989 180.632,140.304C180.777,140.333 180.93,140.308 181.058,140.235L182.108,139.629C182.25,139.549 182.356,139.42 182.413,139.265C182.905,137.913 183.007,136.468 182.69,134.926C182.204,132.559 181.959,130.279 181.956,128.093C181.952,125.282 182.147,123.355 182.236,122.274C182.735,116.245 185.782,115.313 186.828,120.743C187.321,123.306 187.874,125.951 188.02,128.803C188.023,128.879 188.082,128.942 188.162,128.949C188.238,128.955 188.307,128.907 188.325,128.831C188.611,127.579 189.092,125.823 189.759,123.553C189.93,122.975 190.345,121.883 191.003,120.278C191.461,119.163 192.764,115.884 193.724,115.313C193.672,114.8 193.658,114.1 193.682,113.209C193.739,111.075 193.755,108.625 193.738,105.859C193.63,91.076 193.691,68.271 193.692,31.058C193.693,24.332 193.637,18.974 194.022,13.343C192.026,13.652 80.714,46.683 80.121,47.261Z" style="fill:white;fill-opacity:0.25;"/>
    <path d="M128.504,113.694C128.878,113.912 129.255,114.118 129.635,114.311C129.632,115.748 128.915,118.727 128.129,120.015C128.077,120.098 128.001,120.164 127.908,120.199L126.265,120.819C124.55,120.573 122.942,120.298 121.438,119.991C117.058,119.097 111.389,119.416 108.391,123.068C105.262,126.88 103.915,130.567 102.611,136.025C101.316,141.448 99.808,147.034 96.904,151.948C96.807,152.111 96.803,152.312 96.897,152.478L97.652,153.829L95.628,156.778C95.621,154.363 95.648,151.989 95.708,149.657C95.786,146.635 95.827,144.265 95.826,142.543C95.807,99.646 95.789,73.604 95.843,64.418C95.846,63.895 95.882,63.129 95.947,62.121C95.961,61.902 96.11,61.715 96.321,61.656L174.879,39.672C175.101,39.61 175.32,39.783 175.309,40.016C175.052,45.408 175.209,50.928 175.129,55.308C175.049,59.671 175.01,63.545 175.015,66.937C175.04,86.62 175.03,107.266 175.015,128.876C175.013,131.094 175.143,133.436 175.198,135.727C173.268,133.925 170.029,134.261 170.51,137.529C168.34,134.684 166.039,132.103 163.607,129.791C161.059,127.369 158.336,125.338 155.443,123.699C154.303,123.009 152.889,122.434 152.085,121.533C151.557,120.941 151.152,120.266 150.873,119.506C153.348,119.543 155.69,119.116 157.813,118.545C160.106,117.928 161.424,116.72 162.415,113.739C162.713,112.838 164.257,103.008 164.217,101.136C164.206,100.627 164.273,99.996 164.411,99.241C164.491,98.801 164.29,98.444 163.808,98.17C164.012,97.619 163.337,88.363 162.872,85.276L166.41,85.993C166.525,86.017 166.618,85.9 166.566,85.795C165.981,84.615 163.734,83.585 162.515,83.207C162.436,83.182 162.371,83.13 162.328,83.061C162.244,82.925 162.21,82.774 162.242,82.607C162.449,81.682 160.043,76.157 159.123,74.485C159.067,74.384 158.97,74.329 158.828,74.318C158.828,74.318 165.662,70.749 166.722,69.865C167.252,69.425 167.682,68.958 168.004,68.462C168.514,67.679 168.812,67.114 168.898,66.768C169.159,65.721 169.305,64.559 169.397,63.288C169.406,63.17 169.397,63.053 169.373,62.935C169.373,62.935 168.801,58.586 168.32,57.515C168.223,57.304 167.951,57.151 167.758,57.283C164.752,59.345 147.68,57.962 145.452,57.799C145.328,57.789 138.127,58.174 135.607,58.402C133.06,58.635 130.558,59.094 128.098,59.778C126.868,60.12 125.714,60.565 124.636,61.109C121.223,62.831 118.583,64.801 116.999,68.351C116.051,70.475 115.553,73.719 114.94,75.601C114.399,77.264 114.081,79.759 113.482,81.478C113.079,82.632 113.125,83.633 112.827,84.693C112.64,85.359 112.523,86.173 112.48,87.133C112.411,88.685 112.196,89.539 112.428,90.737C112.5,91.108 112.498,91.648 112.435,92.359C112.424,92.483 112.426,92.608 112.442,92.736C112.733,95.014 113.2,97.138 113.897,99.102C114.136,99.774 114.473,100.443 114.909,101.112C115.85,102.556 116.399,103.597 117.363,104.553C117.789,104.976 118.257,105.391 118.77,105.8C120.773,107.4 122.76,109.236 124.747,111.289C124.868,111.415 124.997,111.525 125.139,111.626C126.102,112.284 127.759,113.261 128.504,113.694Z" style="fill:white;fill-opacity:0.15;"/>
    <path d="M125.139,111.626C124.997,111.525 124.868,111.415 124.747,111.289C122.76,109.236 120.773,107.4 118.77,105.8C118.257,105.391 117.789,104.976 117.363,104.553C116.399,103.597 115.85,102.556 114.909,101.112C114.473,100.443 114.136,99.774 113.897,99.102C113.2,97.138 112.733,95.014 112.442,92.736C112.426,92.608 112.424,92.483 112.435,92.359C112.498,91.648 112.5,91.108 112.428,90.737C112.196,89.539 112.411,88.685 112.48,87.133C112.523,86.173 112.64,85.359 112.827,84.693C113.125,83.633 113.079,82.632 113.482,81.478C114.081,79.759 114.399,77.264 114.94,75.601C115.553,73.719 116.051,70.475 116.999,68.351C118.583,64.801 121.223,62.831 124.636,61.109C125.714,60.565 126.868,60.12 128.098,59.778C130.558,59.094 133.06,58.635 135.607,58.402C138.127,58.174 145.328,57.789 145.452,57.799C147.68,57.962 164.752,59.345 167.758,57.283C167.951,57.151 168.223,57.304 168.32,57.515C168.801,58.586 169.373,62.935 169.373,62.935C169.397,63.053 169.406,63.17 169.397,63.288C169.305,64.559 169.159,65.721 168.898,66.768C168.812,67.114 168.514,67.679 168.004,68.462C167.682,68.958 167.252,69.425 166.722,69.865C165.662,70.749 158.828,74.318 158.828,74.318L152.508,75.614L146.679,76.339C146.634,76.346 146.586,76.344 146.537,76.335C144.135,75.881 140.626,76.104 138.809,77.967C138.13,78.664 137.596,79.538 137.226,80.597C137.123,80.891 136.609,82.538 135.684,85.536C135.625,85.726 135.613,85.931 135.652,86.128C136.561,90.707 137.897,94.924 139.592,98.787C140.056,99.844 140.833,101.084 141.925,102.505C143.446,104.487 145.605,105.208 147.85,104.151C148.152,104.009 148.77,103.491 149.704,102.599C151.603,100.786 152.899,100.551 155.578,100.682C157.071,100.831 158.381,100.867 159.507,100.786C161.445,100.647 162.879,99.774 163.808,98.17C164.29,98.444 164.491,98.801 164.411,99.241C164.273,99.996 164.206,100.627 164.217,101.136C164.257,103.008 162.713,112.838 162.415,113.739C161.424,116.72 160.106,117.928 157.813,118.545C155.69,119.116 153.348,119.543 150.873,119.506C147.713,119.46 144.336,118.659 140.916,116.442C140.823,116.383 140.705,116.373 140.597,116.411L140.036,116.619C136.337,116.728 132.871,115.957 129.635,114.311C129.255,114.118 128.878,113.912 128.504,113.694C127.759,113.261 126.102,112.284 125.139,111.626ZM150.435,104.965C150.043,105.335 149.859,105.627 149.877,105.832C150.115,108.504 151.696,110.208 154.261,110.922C156.786,111.625 159.155,110.965 161.438,109.574C162.353,109.017 163.5,107.67 161.871,106.999C161.195,106.722 159.674,106.799 158.606,106.941C157.328,107.111 156.326,107.148 155.599,107.058C154.216,106.888 153.157,106.083 151.905,105.152C151.718,105.014 151.364,104.906 150.844,104.834C150.695,104.813 150.546,104.861 150.435,104.965ZM135.022,104.941L131.969,89.614C131.924,89.392 131.709,89.247 131.484,89.292C127.856,90.009 125.998,92.213 125.905,95.904C125.846,98.208 126.442,100.218 127.693,101.937C129.197,104.002 132.125,104.335 134.921,105.035C134.98,105.049 135.032,105 135.022,104.941Z" style="fill:white;fill-opacity:0.25;"/>
    <path d="M162.242,82.607C162.449,81.682 160.043,76.157 159.123,74.485C159.067,74.384 158.97,74.329 158.828,74.318L152.508,75.614C153.256,77.052 154.008,78.497 154.767,79.949C155.328,81.024 155.725,82.308 156.434,83.373C156.499,83.471 156.548,83.574 156.586,83.682C157.412,86.023 158.004,87.642 158.381,88.536C158.982,89.963 159.285,91.811 159.698,93.069C160.106,94.31 160.115,95.367 160.395,96.915C160.522,97.619 160.236,98.146 159.532,98.499C159.462,98.534 159.383,98.555 159.303,98.551L156.86,98.475C156.773,98.471 156.687,98.485 156.607,98.513C155.613,98.857 155.269,99.58 155.578,100.682C157.071,100.831 158.381,100.867 159.507,100.786C161.445,100.647 162.879,99.774 163.808,98.17C164.012,97.619 163.337,88.363 162.872,85.276C162.002,85.12 161.133,84.7 160.277,84.011C159.981,83.773 159.854,83.533 159.892,83.293C159.968,82.822 160.395,82.488 160.873,82.528C161.306,82.564 161.763,82.59 162.242,82.607ZM162.16,88.63C161.732,88.668 161.458,89.538 161.548,90.578C161.639,91.617 162.054,92.431 162.483,92.393C162.91,92.355 163.184,91.485 163.095,90.445C163.004,89.406 162.588,88.592 162.16,88.63Z" style="fill:white;fill-opacity:0.75;"/>
    <path d="M152.508,75.614L146.679,76.339C146.634,76.346 146.586,76.344 146.537,76.335C144.135,75.881 140.626,76.104 138.809,77.967C138.13,78.664 137.596,79.538 137.226,80.597C137.123,80.891 136.609,82.538 135.684,85.536C135.625,85.726 135.613,85.931 135.652,86.128C136.561,90.707 137.897,94.924 139.592,98.787C140.056,99.844 140.833,101.084 141.925,102.505C143.446,104.487 145.605,105.208 147.85,104.151C148.152,104.009 148.77,103.491 149.704,102.599C151.603,100.786 152.899,100.551 155.578,100.682C155.269,99.58 155.613,98.857 156.607,98.513C156.687,98.485 156.773,98.471 156.86,98.475L159.303,98.551C159.383,98.555 159.462,98.534 159.532,98.499C160.236,98.146 160.522,97.619 160.395,96.915C160.115,95.367 160.106,94.31 159.698,93.069C159.285,91.811 158.982,89.963 158.381,88.536C158.004,87.642 157.412,86.023 156.586,83.682C156.548,83.574 156.499,83.471 156.434,83.373C155.725,82.308 155.328,81.024 154.767,79.949C154.008,78.497 153.256,77.052 152.508,75.614ZM154.337,88.511C153.817,88.561 153.488,89.552 153.6,90.725C153.71,91.898 154.219,92.809 154.739,92.762C155.259,92.712 155.588,91.721 155.477,90.548C155.366,89.375 154.857,88.464 154.337,88.511ZM152.016,83.439C150.959,83.7 148.903,84.39 148.616,85.48C148.525,85.827 148.748,86.177 149.101,86.239C150.255,86.439 151.361,86.129 152.605,85.823C153.852,85.516 154.975,85.273 155.904,84.558C156.185,84.341 156.219,83.924 155.98,83.661C155.221,82.825 153.076,83.177 152.016,83.439Z" style="fill:white;fill-opacity:0.95;"/>
    <path d="M162.872,85.276C162.002,85.12 161.133,84.7 160.277,84.011C159.981,83.773 159.854,83.533 159.892,83.293C159.968,82.822 160.395,82.488 160.873,82.528C161.306,82.564 161.763,82.59 162.242,82.607C162.21,82.774 162.244,82.925 162.328,83.061C162.371,83.13 162.436,83.182 162.515,83.207C163.734,83.585 165.981,84.615 166.566,85.795C166.618,85.9 166.525,86.017 166.41,85.993L162.872,85.276ZM152.016,83.439C153.076,83.177 155.221,82.825 155.98,83.661C156.219,83.924 156.185,84.341 155.904,84.558C154.975,85.273 153.852,85.516 152.605,85.823C151.361,86.129 150.255,86.439 149.101,86.239C148.748,86.177 148.525,85.827 148.616,85.48C148.903,84.39 150.959,83.7 152.016,83.439ZM154.337,88.511C154.857,88.464 155.366,89.375 155.477,90.548C155.588,91.721 155.259,92.712 154.739,92.762C154.219,92.809 153.71,91.898 153.6,90.725C153.488,89.552 153.817,88.561 154.337,88.511ZM162.16,88.63C162.588,88.592 163.004,89.406 163.095,90.445C163.184,91.485 162.91,92.355 162.483,92.393C162.054,92.431 161.639,91.617 161.548,90.578C161.458,89.538 161.732,88.668 162.16,88.63Z" style="fill:white;fill-opacity:0.25;"/>
    <path d="M135.022,104.941L131.969,89.614C131.924,89.392 131.709,89.247 131.484,89.292C127.856,90.009 125.998,92.213 125.905,95.904C125.846,98.208 126.442,100.218 127.693,101.937C129.197,104.002 132.125,104.335 134.921,105.035C134.98,105.049 135.032,105 135.022,104.941Z" style="fill:white;fill-opacity:0.95;"/>
    <path d="M150.435,104.965C150.043,105.335 149.859,105.627 149.877,105.832C150.115,108.504 151.696,110.208 154.261,110.922C156.786,111.625 159.155,110.965 161.438,109.574C162.353,109.017 163.5,107.67 161.871,106.999C161.195,106.722 159.674,106.799 158.606,106.941C157.328,107.111 156.326,107.148 155.599,107.058C154.216,106.888 153.157,106.083 151.905,105.152C151.718,105.014 151.364,104.906 150.844,104.834C150.695,104.813 150.546,104.861 150.435,104.965Z" style="fill:white;fill-opacity:0.95;"/>
    <path d="M132.95,134.923C130.697,134.749 128.154,133.682 127.797,131.211C127.582,129.725 127.396,128.235 127.232,126.741C127.108,125.611 126.738,124.699 126.431,123.64C126.399,123.529 126.379,123.415 126.376,123.3L126.265,120.819L127.908,120.199C128.001,120.164 128.077,120.098 128.129,120.015C128.915,118.727 129.632,115.748 129.635,114.311C132.871,115.957 136.337,116.728 140.036,116.619C135.739,120.372 132.523,124.33 132.021,130.227C131.89,131.766 132.198,133.332 132.95,134.923Z" style="fill:white;fill-opacity:0.5;"/>
    <path d="M175.198,135.727C175.718,136.212 176.35,137.015 177.094,138.135C177.84,139.257 179.019,139.989 180.632,140.304C180.777,140.333 180.93,140.308 181.058,140.235L182.108,139.629C182.25,139.549 182.356,139.42 182.413,139.265C182.905,137.913 183.007,136.468 182.69,134.926C182.204,132.559 181.959,130.279 181.956,128.093C181.952,125.282 182.147,123.355 182.236,122.274C182.735,116.245 185.782,115.313 186.828,120.743C187.321,123.306 187.874,125.951 188.02,128.803C188.023,128.879 188.082,128.942 188.162,128.949C188.238,128.955 188.307,128.907 188.325,128.831C188.611,127.579 189.092,125.823 189.759,123.553C189.93,122.975 190.345,121.883 191.003,120.278C191.461,119.163 192.764,115.884 193.724,115.313C195.526,114.53 196.493,115.112 196.628,117.063C196.711,118.265 196.607,119.769 196.316,121.581C196.116,122.826 195.967,123.884 195.87,124.752L195.831,125.123C195.675,126.616 195.3,129.974 195.044,130.435C194.968,130.574 195.117,130.723 195.255,130.65C195.605,130.459 195.889,130.113 195.983,129.69C196.16,128.865 197.733,124.801 198.211,123.678C198.7,122.531 199.124,121.624 199.48,120.954C200.151,119.691 201.02,118.763 202.096,118.168C202.557,117.913 203.15,118.025 203.523,118.445C204.204,119.21 204.56,120.112 204.594,121.152C204.647,122.749 204.398,123.544 203.627,125.061C202.873,126.544 202.415,127.497 202.255,127.919C202.072,128.401 201.826,128.949 201.521,129.562C200.902,130.803 200.597,132.189 200.599,133.724C200.599,133.866 200.738,133.967 200.873,133.925C201.234,133.81 201.697,133.582 202.262,133.246C202.46,133.128 203.618,132.29 205.731,130.733C206.549,130.131 208.458,129.212 209.3,130.089C211.243,132.11 208.09,134.053 206.275,135.522C205.419,136.215 204.686,136.935 204.081,137.685C203.869,137.947 203.693,138.239 203.555,138.547C202.714,140.421 202.173,141.76 201.919,142.567C201.605,143.566 201.092,144.893 200.38,146.549C199.435,148.75 198.821,150.343 198.537,151.324C198.166,152.606 197.443,153.719 197.002,155.177C196.798,155.853 196.403,156.259 196.229,156.809C196.157,157.038 196.139,157.277 196.181,157.513C197.013,162.249 197.704,166.495 197.813,171.055C197.936,176.215 197.895,180.346 197.691,183.44C197.378,188.222 196.271,193.219 193.79,197.461C193.79,197.461 187.846,202.324 186.27,202.364C184.707,202.404 183.529,202.267 182.735,201.952C180.389,201.02 178.178,199.742 176.106,198.123C174.702,197.025 172.953,195.461 170.856,193.431L170.004,192.467C169.938,192.391 169.876,192.308 169.824,192.221L166.445,186.555C166.414,186.503 166.387,186.448 166.365,186.389C165.609,184.368 164.659,181.84 163.624,178.752C163.34,177.903 162.966,177.383 162.498,177.192C164.31,176.503 166.109,175.72 167.893,174.846C172.129,172.772 176.275,170.467 180.303,167.898C180.4,167.836 180.483,167.753 180.545,167.656C180.784,167.285 180.964,166.831 181.089,166.301C181.584,164.204 181.939,162.354 182.15,160.753C182.313,159.506 182.265,157.669 182.011,155.24C181.77,152.939 181.015,151.308 179.44,149.605C178.652,148.754 178.242,147.754 177.555,146.923C176.88,146.108 176.441,145.541 176.245,145.225C175.931,144.72 175.018,143.673 173.5,142.089C173.268,141.846 172.984,141.531 172.648,141.139C172.305,140.741 171.938,140.388 171.57,140.065C171.493,139.997 171.435,139.913 171.397,139.819L170.51,137.529C170.029,134.261 173.268,133.925 175.198,135.727Z" style="fill:white;fill-opacity:0.75;"/>
    <path d="M155.443,123.699C154.621,125.251 153.467,126.574 151.984,127.673C148.372,130.351 144.399,132.314 140.178,133.81C139.024,134.219 137.804,134.549 136.522,134.795C135.199,135.048 134.006,135.089 132.95,134.923C132.198,133.332 131.89,131.766 132.021,130.227C132.523,124.33 135.739,120.372 140.036,116.619L140.597,116.411C140.705,116.373 140.823,116.383 140.916,116.442C144.336,118.659 147.713,119.46 150.873,119.506C151.152,120.266 151.557,120.941 152.085,121.533C152.889,122.434 154.303,123.009 155.443,123.699Z" style="fill:white;fill-opacity:0.75;"/>
    <path d="M120.374,209.444C120.073,209.385 119.796,209.232 119.556,208.976C119.479,208.894 119.427,208.792 119.407,208.685C119.083,206.924 118.91,205.656 118.842,204.89C118.372,199.542 118.12,194.127 118.111,188.642C118.109,187.352 118.045,185.162 117.917,182.071C117.997,177.307 118.069,172.542 118.135,167.777C118.163,165.795 118.602,163.378 118.416,161.827C118.407,161.747 118.34,161.685 118.26,161.682C118.18,161.678 118.107,161.734 118.09,161.813C118.043,162.038 117.928,162.281 117.737,162.545C116.854,163.765 115.956,164.988 115.048,166.218C113.405,165.94 111.894,165.487 110.519,164.856C105.195,162.412 100.906,158.733 97.652,153.829L96.897,152.478C96.803,152.312 96.807,152.111 96.904,151.948C99.808,147.034 101.316,141.448 102.611,136.025C103.915,130.567 105.262,126.88 108.391,123.068C111.389,119.416 117.058,119.097 121.438,119.991C122.942,120.298 124.55,120.573 126.265,120.819L126.376,123.3C126.379,123.415 126.399,123.529 126.431,123.64C126.738,124.699 127.108,125.611 127.232,126.741C127.396,128.235 127.582,129.725 127.797,131.211C128.154,133.682 130.697,134.749 132.95,134.923C134.006,135.089 135.199,135.048 136.522,134.795C137.804,134.549 139.024,134.219 140.178,133.81C144.399,132.314 148.372,130.351 151.984,127.673C153.467,126.574 154.621,125.251 155.443,123.699C158.336,125.338 161.059,127.369 163.607,129.791C166.039,132.103 168.34,134.684 170.51,137.529L171.397,139.819C171.435,139.913 171.493,139.997 171.57,140.065C171.938,140.388 172.305,140.741 172.648,141.139C172.984,141.531 173.268,141.846 173.5,142.089C175.018,143.673 175.931,144.72 176.245,145.225C176.441,145.541 176.88,146.108 177.555,146.923C178.242,147.754 178.652,148.754 179.44,149.605C181.015,151.308 181.77,152.939 182.011,155.24C182.265,157.669 182.313,159.506 182.15,160.753C181.939,162.354 181.584,164.204 181.089,166.301C180.964,166.831 180.784,167.285 180.545,167.656C180.483,167.753 180.4,167.836 180.303,167.898C176.275,170.467 172.129,172.772 167.893,174.846C166.109,175.72 164.31,176.503 162.498,177.192C158.606,178.007 155.404,177.113 152.885,174.517C152.216,173.828 151.544,172.868 150.868,171.641C149.151,168.52 147.942,166.13 146.059,162.028C146.044,161.997 146.007,161.981 145.972,161.994C145.941,162.005 145.921,162.038 145.93,162.073C146.895,165.528 147.726,169.7 148.883,173.231C149.812,176.069 150.262,178.017 151.173,180.619C153.595,187.533 155.425,192.855 156.666,196.584C157.965,200.489 158.796,203.276 159.154,204.939C159.821,208.041 160.055,211.264 159.812,214.61C159.806,214.701 159.729,214.773 159.639,214.77C159.191,214.764 158.768,214.786 158.367,214.838C155.741,214.951 149.762,215.306 146.974,215.556C144.947,215.688 142.327,215.765 138.892,215.466C132.353,214.638 126.182,212.628 120.374,209.444Z" style="fill:white;fill-opacity:0.95;"/>
    <path d="M80.225,177.632C80.152,177.934 80.118,178.169 80.118,178.332L80.132,196.151C80.132,196.199 80.177,196.248 80.267,196.3C86.137,192.817 91.605,188.936 96.668,184.663C103.477,178.998 109.604,172.85 115.048,166.218C113.405,165.94 111.894,165.487 110.519,164.856C105.195,162.412 100.906,158.733 97.652,153.829L95.628,156.778C94.738,158.175 93.874,159.432 93.036,160.545C89.563,165.161 84.47,171.592 80.225,177.632Z" style="fill:white;fill-opacity:0.75;"/>
    <path d="M117.917,182.071C117.117,182.39 116.289,182.599 115.426,182.699C109.282,183.408 103.027,184.057 96.668,184.663C103.477,178.998 109.604,172.85 115.048,166.218C115.956,164.988 116.854,163.765 117.737,162.545C117.928,162.281 118.043,162.038 118.09,161.813C118.107,161.734 118.18,161.678 118.26,161.682C118.34,161.685 118.407,161.747 118.416,161.827C118.602,163.378 118.163,165.795 118.135,167.777C118.069,172.542 117.997,177.307 117.917,182.071Z" style="fill:white;fill-opacity:0.15;"/>
    <path d="M95.996,291.103L80.125,290.802C80.097,246.876 80.118,215.449 80.135,196.525C80.135,196.473 80.18,196.397 80.267,196.3C86.137,192.817 91.605,188.936 96.668,184.663C103.027,184.057 109.282,183.408 115.426,182.699C116.289,182.599 117.117,182.39 117.917,182.071C118.045,185.162 118.109,187.352 118.111,188.642C118.12,194.127 118.372,199.542 118.842,204.89C118.91,205.656 119.083,206.924 119.407,208.685C119.427,208.792 119.479,208.894 119.556,208.976C119.796,209.232 120.073,209.385 120.374,209.444L120.118,210.816L119.269,214.468C118.444,214.323 117.508,214.111 116.718,214.087C111.441,213.93 105.543,213.626 99.024,213.176C97.961,213.102 97.046,213.086 96.28,213.124C96.068,213.134 95.899,213.301 95.885,213.512C95.871,213.727 95.862,214.451 95.857,215.681C95.84,220.345 95.864,289.869 95.996,291.103Z" style="fill:white;fill-opacity:0.25;"/>
    <path d="M193.623,292.687L179.298,292.51C179.315,288.934 179.275,285.371 179.18,281.82C179.064,277.505 178.999,273.943 178.996,271.129C178.992,267.297 178.969,262.955 178.927,258.103C178.811,244.72 178.953,231.923 178.951,217.809C178.951,217.622 178.812,217.46 178.625,217.435C175.897,217.069 173.202,217.064 170.534,217.448L169.893,213.034C169.872,212.892 169.77,212.785 169.64,212.746C169.629,212.743 169.616,212.739 169.591,212.736C169.481,212.723 169.446,212.583 169.539,212.524L171.944,211.007C172.066,210.93 172.142,210.799 172.149,210.657C172.283,207.701 172.066,204.814 171.522,202.004C171.227,200.482 171.005,197.627 170.856,193.431C172.953,195.461 174.702,197.025 176.106,198.123C178.178,199.742 180.389,201.02 182.735,201.952C183.529,202.267 184.707,202.404 186.27,202.364C187.846,202.324 193.79,197.461 193.79,197.461L193.623,292.687Z" style="fill:white;fill-opacity:0.25;"/>
    <path d="M166.615,298.404C163.409,299.253 159.719,299.77 155.536,299.95C153.8,300.026 152.49,300.016 151.607,299.915C149.798,299.711 147.885,298.484 147.372,296.748C146.883,295.092 146.405,293.449 145.934,291.82C144.18,285.51 143.039,279.099 142.514,272.588C142.215,268.891 141.997,265.193 141.855,261.503C141.737,260.865 141.686,260.345 141.703,259.943C141.852,256.475 142.47,251.179 142.178,246.768C141.954,243.396 141.802,241.021 139.09,239.384C138.293,238.903 136.439,237.9 133.528,236.376C132.277,235.721 131.019,235.685 129.751,236.272C129.557,236.362 129.481,236.597 129.585,236.785C130.601,238.623 131.903,240.437 133.504,242.222C134.959,243.844 136.907,246.141 136.81,248.421C136.547,254.569 136.059,260.452 135.358,266.07C134.882,269.882 134.161,273.233 133.15,277.311C132.697,279.141 132.455,280.201 132.423,280.489C132.348,281.165 132.119,282.277 131.74,283.826C130.806,287.649 129.893,291.491 129.009,295.348L127.98,295.674C127.852,295.712 127.724,295.743 127.592,295.767C124.411,296.311 121.483,296.592 118.808,296.613C116.59,296.63 114.327,296.159 112.016,295.199C111.108,294.821 110.342,294.298 109.718,293.633C108.984,292.853 108.55,292.039 108.419,291.197C108.627,289.391 108.859,287.621 109.115,285.877C109.688,281.976 114.897,236.965 116.999,225.311C117.508,222.49 118.267,218.876 119.269,214.468L120.118,210.816C123.378,212.58 125.457,213.696 126.355,214.16C136.859,219.588 149.546,222.551 161.77,223.087C161.826,223.089 161.871,223.128 161.881,223.18C162.58,226.817 163.263,231.133 164.012,236.113C165.324,244.831 166.071,253.872 166.247,263.232C166.435,273.195 166.318,283.376 166.379,293.466C166.389,295.112 166.469,296.758 166.615,298.404Z" style="fill:white;fill-opacity:0.95;"/>
    <path d="M108.419,291.197L95.996,291.103C95.864,289.869 95.84,220.345 95.857,215.681C95.862,214.451 95.871,213.727 95.885,213.512C95.899,213.301 96.068,213.134 96.28,213.124C97.046,213.086 97.961,213.102 99.024,213.176C105.543,213.626 111.441,213.93 116.718,214.087C117.508,214.111 118.444,214.323 119.269,214.468C118.267,218.876 117.508,222.49 116.999,225.311C114.897,236.965 109.688,281.976 109.115,285.877C108.859,287.621 108.627,289.391 108.419,291.197Z" style="fill:white;fill-opacity:0.15;"/>
    <path d="M179.298,292.51L172.821,292.33L173.157,290.393C173.161,290.382 173.161,290.368 173.161,290.358C174.106,285.443 173.651,241.723 171.958,232.651C170.88,226.872 171.064,221.721 170.534,217.448C173.202,217.064 175.897,217.069 178.625,217.435C178.812,217.46 178.951,217.622 178.951,217.809C178.953,231.923 178.811,244.72 178.927,258.103C178.969,262.955 178.992,267.297 178.996,271.129C178.999,273.943 179.064,277.505 179.18,281.82C179.275,285.371 179.315,288.934 179.298,292.51Z" style="fill:white;fill-opacity:0.15;"/>
    <path d="M133.688,291.699L132.918,293.408C132.884,293.487 132.825,293.557 132.752,293.609C131.626,294.402 130.378,294.984 129.009,295.348C129.893,291.491 130.806,287.649 131.74,283.826C132.119,282.277 132.348,281.165 132.423,280.489C132.455,280.201 132.697,279.141 133.15,277.311C134.161,273.233 134.882,269.882 135.358,266.07C136.059,260.452 136.547,254.569 136.81,248.421C136.907,246.141 134.959,243.844 133.504,242.222C131.903,240.437 130.601,238.623 129.585,236.785C129.481,236.597 129.557,236.362 129.751,236.272C131.019,235.685 132.277,235.721 133.528,236.376C136.439,237.9 138.293,238.903 139.09,239.384C141.802,241.021 141.954,243.396 142.178,246.768C142.47,251.179 141.852,256.475 141.703,259.943C141.686,260.345 141.737,260.865 141.855,261.503C141.595,261.413 141.421,261.425 141.318,261.534C141.301,261.552 141.294,261.569 141.29,261.589C139.47,271.835 136.824,281.851 133.688,291.699Z" style="fill:white;fill-opacity:0.5;"/>
    <path d="M145.934,291.82L133.688,291.699C136.824,281.851 139.47,271.835 141.29,261.589C141.294,261.569 141.301,261.552 141.318,261.534C141.421,261.425 141.595,261.413 141.855,261.503C141.997,265.193 142.215,268.891 142.514,272.588C143.039,279.099 144.18,285.51 145.934,291.82Z" style="fill:white;fill-opacity:0.15;"/>
    <path d="M162.498,177.192C162.966,177.383 163.34,177.903 163.624,178.752C164.659,181.84 165.609,184.368 166.365,186.389C166.387,186.448 166.414,186.503 166.445,186.555L169.824,192.221C169.876,192.308 169.938,192.391 170.004,192.467L170.856,193.431C171.005,197.627 171.227,200.482 171.522,202.004C172.066,204.814 172.283,207.701 172.149,210.657C172.142,210.799 172.066,210.93 171.944,211.007L169.539,212.524C169.446,212.583 169.481,212.723 169.591,212.736C169.616,212.739 169.629,212.743 169.64,212.746C169.77,212.785 169.872,212.892 169.893,213.034L170.534,217.448C171.064,221.721 170.88,226.872 171.958,232.651C173.651,241.723 174.106,285.443 173.161,290.358C173.161,290.368 173.161,290.382 173.157,290.393L172.821,292.33C172.804,292.725 172.755,293.106 172.679,293.473C172.63,293.709 172.499,294.038 172.284,294.461C171.806,295.41 171.265,296.221 170.368,296.835C169.235,297.607 167.984,298.131 166.615,298.404C166.469,296.758 166.389,295.112 166.379,293.466C166.318,283.376 166.435,273.195 166.247,263.232C166.071,253.872 165.324,244.831 164.012,236.113C163.263,231.133 162.58,226.817 161.881,223.18C161.871,223.128 161.826,223.089 161.77,223.087C149.546,222.551 136.859,219.588 126.355,214.16C125.457,213.696 123.378,212.58 120.118,210.816L120.374,209.444C126.182,212.628 132.353,214.638 138.892,215.466C142.327,215.765 144.947,215.688 146.974,215.556C149.762,215.306 155.741,214.951 158.367,214.838C158.768,214.786 159.191,214.764 159.639,214.77C159.729,214.773 159.806,214.701 159.812,214.61C160.055,211.264 159.821,208.041 159.154,204.939C158.796,203.276 157.965,200.489 156.666,196.584C155.425,192.855 153.595,187.533 151.173,180.619C150.262,178.017 149.812,176.069 148.883,173.231C147.726,169.7 146.895,165.528 145.93,162.073C145.921,162.038 145.941,162.005 145.972,161.994C146.007,161.981 146.044,161.997 146.059,162.028C147.942,166.13 149.151,168.52 150.868,171.641C151.544,172.868 152.216,173.828 152.885,174.517C155.404,177.113 158.606,178.007 162.498,177.192Z" style="fill:white;fill-opacity:0.5;"/>
</svg>
