<?xml version="1.0" encoding="UTF-8" standalone="no"?>
<!DOCTYPE svg PUBLIC "-//W3C//DTD SVG 1.1//EN" "http://www.w3.org/Graphics/SVG/1.1/DTD/svg11.dtd">
<svg width="100%" height="100%" viewBox="0 0 300 300" version="1.1" xmlns="http://www.w3.org/2000/svg" xmlns:xlink="http://www.w3.org/1999/xlink" xml:space="preserve" xmlns:serif="http://www.serif.com/" style="fill-rule:evenodd;clip-rule:evenodd;stroke-linejoin:round;stroke-miterlimit:2;">
    <path d="M70.1,48.006L69.362,47.632C69.237,47.567 69.093,47.538 68.952,47.546C68.485,47.571 68.09,47.488 67.762,47.297C65.997,46.255 65.148,44.712 65.216,42.67C65.227,42.386 65.429,41.555 65.821,40.171C66.09,39.218 66.144,37.877 65.979,36.154C65.925,35.615 65.666,35.284 65.202,35.158C64.821,35.054 64.404,35.223 64.163,35.575C63.685,36.28 63.296,37.068 62.998,37.941C62.746,38.668 62.239,39.369 61.628,39.696C61.43,39.804 61.186,39.678 61.153,39.455C61.067,38.84 61.056,38.337 61.121,37.941C61.25,37.154 61.315,36.65 61.311,36.427C61.304,32.889 58.748,31.541 55.468,31.641C55.414,31.645 55.36,31.652 55.307,31.663L52.394,32.368C51.107,32.591 49.949,32.602 48.92,32.404C47.842,31.918 47.59,30.926 48.165,29.427C48.388,28.851 49.244,27.542 49.776,27.06C50.337,26.557 50.596,26.021 51.175,25.489C53.038,23.781 55.918,21.865 58.51,21.566C59.197,21.487 59.841,21.318 60.441,21.056C60.546,21.009 60.574,20.876 60.502,20.789C60.082,20.297 59.78,19.704 59.244,19.085C58.266,17.96 57.665,17.068 57.446,16.41C56.497,13.58 57.186,11.283 59.643,9.725C63.257,7.434 67.014,10.34 68.169,11.635C68.55,12.063 68.988,12.972 69.485,14.36C69.531,14.482 69.553,14.616 69.557,14.749C69.607,17.424 69.488,18.963 68.133,20.822C67.989,21.016 68.118,21.296 68.363,21.311C69.017,21.35 69.726,21.519 70.488,21.814C74.102,23.213 76.658,25.611 78.165,29.009C78.622,30.041 78.96,31.221 79.179,32.54C79.42,34.011 79.571,35.23 79.632,36.194C79.722,37.643 79.52,39.304 79.028,41.181C77.838,45.715 74.864,47.991 70.1,48.006Z" style="fill:white;fill-opacity:0.25;fill-rule:nonzero;"/>
    <path d="M60.1,53.805C59.529,54.102 58.943,54.403 58.338,54.708C57.73,54.683 57.158,54.748 56.623,54.903C56.306,54.992 55.968,54.906 55.738,54.672C54.555,53.482 53.818,52.27 53.519,51.041C53.451,50.764 53.297,50.516 53.077,50.332C52.43,49.793 52.214,49.423 52.426,49.221C52.779,49.642 53.142,49.948 53.512,50.138C53.933,50.354 54.433,50.048 54.433,49.574C54.436,48.714 54.073,48.056 53.347,47.603C54.185,46.366 54.328,45.079 53.778,43.738C53.595,43.288 53.095,43.058 52.635,43.205C51.606,43.536 50.679,43.745 50.747,42.213C50.902,38.696 51.448,35.413 52.394,32.368L55.307,31.663C55.36,31.652 55.414,31.645 55.468,31.641C58.748,31.541 61.304,32.889 61.311,36.427C61.315,36.65 61.25,37.154 61.121,37.941C61.056,38.337 61.067,38.84 61.153,39.455C61.186,39.678 61.43,39.804 61.628,39.696C62.239,39.369 62.746,38.668 62.998,37.941C63.296,37.068 63.685,36.28 64.163,35.575C64.404,35.223 64.821,35.054 65.202,35.158C65.666,35.284 65.925,35.615 65.979,36.154C66.144,37.877 66.09,39.218 65.821,40.171C65.429,41.555 65.227,42.386 65.216,42.67C65.148,44.712 65.997,46.255 67.762,47.297C68.09,47.488 68.485,47.571 68.952,47.546C69.093,47.538 69.237,47.567 69.362,47.632L70.1,48.006C70.139,48.089 70.175,48.171 70.215,48.254C66.901,50.09 63.826,51.866 60.1,53.805ZM57.482,35.471L57.482,35.464C57.468,35.327 57.385,35.209 57.259,35.155C55.86,34.561 54.397,34.515 52.865,35.007C52.646,35.079 52.502,35.194 52.434,35.356C52.362,35.518 52.491,35.694 52.667,35.676C53.577,35.582 54.753,35.514 56.188,35.471C56.464,35.46 56.828,35.518 57.277,35.644C57.388,35.672 57.493,35.582 57.482,35.471ZM53.568,37.33C53.261,37.341 53.027,37.902 53.045,38.586C53.063,39.272 53.329,39.818 53.637,39.811C53.944,39.8 54.177,39.239 54.159,38.555C54.142,37.869 53.875,37.323 53.568,37.33Z" style="fill:white;fill-opacity:0.85;"/>
    <path d="M52.394,32.368C51.448,35.413 50.902,38.696 50.747,42.213C50.679,43.745 51.606,43.536 52.635,43.205C53.095,43.058 53.595,43.288 53.778,43.738C54.328,45.079 54.185,46.366 53.347,47.603C52.948,47.348 52.599,47.244 52.3,47.294C51.894,47.362 51.66,47.79 51.822,48.168C51.991,48.552 52.193,48.901 52.426,49.221C52.214,49.423 52.43,49.793 53.077,50.332C53.297,50.516 53.451,50.764 53.519,51.041C53.818,52.27 54.555,53.482 55.738,54.672C55.968,54.906 56.306,54.992 56.623,54.903C57.158,54.748 57.73,54.683 58.338,54.708C57.043,55.201 55.709,55.431 54.339,55.399C54.217,55.395 54.098,55.37 53.99,55.32C51.455,54.187 50.265,51.494 49.686,48.844C49.079,46.075 48.665,43.191 48.439,40.196C48.428,40.07 48.586,40.002 48.672,40.095C48.705,40.135 48.766,40.142 48.849,40.12C48.96,40.095 49.046,40.009 49.075,39.897C49.172,39.541 49.179,39.146 49.104,38.707C49.079,38.574 48.971,38.47 48.838,38.448C48.751,38.434 48.64,38.473 48.507,38.567C48.41,38.635 48.273,38.563 48.273,38.441L48.273,37.028C48.273,36.855 48.385,36.701 48.55,36.643L49.294,36.392C49.399,36.356 49.463,36.251 49.445,36.143L49.427,36.039C49.42,35.982 49.37,35.938 49.312,35.938L48.564,35.938C48.435,35.938 48.331,35.834 48.331,35.708C48.331,34.576 48.529,33.472 48.92,32.404C49.949,32.602 51.107,32.591 52.394,32.368Z" style="fill:white;fill-opacity:0.75;fill-rule:nonzero;"/>
    <path d="M57.277,35.644C56.828,35.518 56.464,35.46 56.188,35.471C54.753,35.514 53.577,35.582 52.667,35.676C52.491,35.694 52.362,35.518 52.434,35.356C52.502,35.194 52.646,35.079 52.865,35.007C54.397,34.515 55.86,34.561 57.259,35.155C57.385,35.209 57.468,35.327 57.482,35.464L57.482,35.471C57.493,35.582 57.388,35.672 57.277,35.644Z" style="fill:white;fill-opacity:0.15;fill-rule:nonzero;"/>
    <path d="M53.568,37.33C53.875,37.323 54.142,37.869 54.159,38.555C54.177,39.239 53.944,39.8 53.637,39.811C53.329,39.818 53.063,39.272 53.045,38.586C53.027,37.902 53.261,37.341 53.568,37.33Z" style="fill:white;fill-opacity:0.15;fill-rule:nonzero;"/>
    <path d="M53.347,47.603C54.073,48.056 54.436,48.714 54.433,49.574C54.433,50.048 53.933,50.354 53.512,50.138C53.142,49.948 52.779,49.642 52.426,49.221C52.193,48.901 51.991,48.552 51.822,48.168C51.66,47.79 51.894,47.362 52.3,47.294C52.599,47.244 52.948,47.348 53.347,47.603Z" style="fill:white;fill-opacity:0.15;fill-rule:nonzero;"/>
    <path d="M61.373,57.396C61.029,55.633 60.704,54.104 60.704,54.104C60.646,53.939 60.495,53.824 60.323,53.817L60.1,53.805C63.826,51.866 66.901,50.09 70.215,48.254L71.815,50.099C71.851,50.138 71.89,50.178 71.93,50.214L73.019,51.167C72.617,56.032 70.263,59.491 65.957,61.537C64.843,62.066 63.909,62.212 62.66,62.594C62.423,62.666 62.182,62.497 62.167,62.249C62.123,61.393 61.737,59.263 61.373,57.396Z" style="fill:white;fill-opacity:0.75;"/>
    <path d="M73.019,51.167C74.519,50.897 76.09,50.541 77.737,50.099C81.315,49.135 84.99,49.023 88.158,51.274C92.562,54.399 96.298,56.97 99.373,58.987C99.696,59.199 99.876,59.624 99.916,60.257C99.682,61.001 99.56,61.767 99.549,62.547C99.538,63.554 99.225,64.154 99.229,65.003C99.229,65.262 99.143,65.877 98.974,66.844C98.79,67.869 98.603,68.872 98.409,69.861C98.276,70.533 97.848,71.235 97.122,71.957C93.562,71.206 90.203,69.602 87.046,67.146L84.537,65.65C84.252,65.478 83.864,65.614 83.699,65.945C83.623,66.1 83.566,66.398 83.533,66.848C83.508,67.157 83.411,69.192 83.238,72.957C83.21,73.572 83.364,75.014 83.699,77.279C84.191,80.641 85.015,84.69 85.946,87.962C86.669,90.504 87.726,92.982 89.118,95.395C89.215,95.506 89.046,95.697 88.607,95.959C87.147,96.696 85.68,97.423 84.206,98.142C82.39,99.023 80.872,99.627 79.654,99.954C77.047,100.652 74.476,100.885 71.941,100.659C70.909,100.587 70.218,100.123 69.873,99.267C69.438,98.192 69.042,97.095 68.679,95.973C68.33,94.895 67.917,93.841 67.439,92.809C67.144,92.18 66.32,91.31 64.968,90.199L57.482,82.95C57.496,82.824 57.46,82.723 57.378,82.64C54.893,80.224 54.749,77.39 55.102,73.892C55.436,70.58 55.623,68.753 55.655,68.419C55.698,67.995 55.691,67.57 55.63,67.15C55.36,65.208 55.846,63.773 56.134,62.339C56.159,62.224 56.205,62.112 56.27,62.019C57.094,60.843 57.73,60.055 58.172,59.656C58.892,58.998 59.96,58.243 61.373,57.396C61.737,59.263 62.123,61.393 62.167,62.249C62.182,62.497 62.423,62.666 62.66,62.594C63.909,62.212 64.843,62.066 65.957,61.537C70.263,59.491 72.617,56.032 73.019,51.167Z" style="fill:white;fill-opacity:0.95;"/>
    <path d="M99.916,60.257C99.912,60.555 99.944,60.774 100.164,61.005C106.079,67.222 110.822,74.219 114.392,82C115.96,85.42 117.114,89.008 117.855,92.766C117.869,92.845 117.948,92.892 118.024,92.874C120.39,92.327 122.745,92.151 124.759,93.356C127.819,95.19 131.131,98.516 130.749,102.219C130.703,102.658 130.544,103.003 130.275,103.258C130.041,103.481 129.674,103.503 129.387,103.316C129.02,103.075 128.617,102.777 128.182,102.417C125.424,100.152 121.843,99.44 118.24,99.965C117.769,100.033 117.276,100.267 116.758,100.659C116.726,100.684 116.697,100.713 116.676,100.745L114.781,103.676C114.328,104.373 113.497,104.726 112.681,104.564L112.192,104.467C111.53,104.334 111.278,103.525 111.749,103.043C112.778,101.989 113.292,101.043 113.288,100.213C113.288,99.461 113.31,98.109 113.349,96.157C113.385,94.51 113.123,93.496 112.177,91.957C107.758,84.783 102.738,78.117 97.122,71.957C97.848,71.235 98.276,70.533 98.409,69.861C98.603,68.872 98.79,67.869 98.974,66.844C99.143,65.877 99.229,65.262 99.229,65.003C99.225,64.154 99.538,63.554 99.549,62.547C99.56,61.767 99.682,61.001 99.916,60.257Z" style="fill:white;fill-opacity:0.75;fill-rule:nonzero;"/>
    <path d="M87.046,67.146C87.295,70.53 87.406,73.773 87.388,76.876C87.374,78.922 87.74,80.911 87.762,82.755C87.773,83.938 88.362,85.549 89.182,86.862C90.513,88.994 91.458,90.458 92.023,91.252C92.979,92.604 91.991,92.964 91.365,94.014L89.118,95.395C87.726,92.982 86.669,90.504 85.946,87.962C85.015,84.69 84.191,80.641 83.699,77.279C83.364,75.014 83.21,73.572 83.238,72.957C83.411,69.192 83.508,67.157 83.533,66.848C83.566,66.398 83.623,66.1 83.699,65.945C83.864,65.614 84.252,65.478 84.537,65.65L87.046,67.146Z" style="fill:white;fill-opacity:0.65;fill-rule:nonzero;"/>
    <path d="M215.304,110.673L213.463,109.522C213.387,109.476 213.315,109.414 213.254,109.346C212.37,108.346 211.931,107.235 211.938,106.013C211.942,105.668 212.115,105.344 212.402,105.153C213.927,104.139 215.142,103.115 215.006,101.119C214.995,101 214.97,100.882 214.926,100.77C214.294,99.062 212.237,98.875 210.82,98.415C208.17,97.545 208.012,95.999 208.418,93.456C208.745,91.382 208.123,89.778 205.879,89.289C203.959,88.847 202.057,89.803 200.389,90.857C199.101,91.673 197.839,91.896 196.602,91.529C196.228,91.288 195.462,90.957 194.308,90.533C193.442,90.217 193.003,89.591 192.992,88.652C192.981,87.595 192.388,86.919 191.59,86.459C190.82,86.017 190.374,85.725 190.256,85.589C189.12,84.32 188.947,82.942 189.742,81.457C190.04,80.9 190.659,80.684 191.604,80.81C191.716,80.824 191.824,80.86 191.921,80.918C193.668,81.921 195.984,82.536 197.58,81.022C198.213,80.422 198.458,79.07 199.091,78.401C199.357,78.12 199.813,77.933 200.464,77.84C200.572,77.822 200.684,77.829 200.791,77.854C202.143,78.192 203.258,78.516 204.495,78.358C204.671,78.333 204.84,78.257 204.973,78.135C205.416,77.732 205.973,77.006 206.57,76.697C207.936,75.988 209.285,76.017 210.619,76.79C211.575,77.344 212.01,77.995 212.708,78.937C212.826,79.098 213.042,79.149 213.222,79.059C215.973,77.657 219.522,77.732 221.028,80.828C221.064,80.904 221.09,80.979 221.1,81.058L221.464,83.385C221.471,83.431 221.471,83.478 221.46,83.525L221.151,85.071C221.126,85.204 221.251,85.319 221.381,85.28L223.261,84.708C223.337,84.686 223.416,84.676 223.495,84.672C224.513,84.64 225.505,84.862 226.465,85.348C227.314,85.776 227.871,86.416 228.137,87.272C228.26,87.664 228.263,88.419 228.148,89.541C228.141,89.609 228.123,89.677 228.098,89.738C227.393,91.49 226.616,92.791 225.764,93.643C225.656,93.751 225.721,93.935 225.872,93.953C227.026,94.1 227.731,94.765 227.993,95.955C228.295,97.325 228.281,98.555 227.95,99.652C227.792,100.177 227.479,100.457 227.008,100.49C226.81,100.504 226.735,100.752 226.886,100.874C228.957,102.55 226.868,105.437 225.2,106.405C224.516,106.804 223.75,106.843 222.902,106.523C222.754,106.466 222.589,106.556 222.557,106.71C222.122,108.907 219.996,109.145 218.371,107.99C218.26,107.911 218.105,108.001 218.119,108.138C218.306,109.893 217.368,110.738 215.304,110.673Z" style="fill:white;fill-opacity:0.35;fill-rule:nonzero;"/>
    <path d="M64.968,90.199C63.127,93.604 60.837,96.703 58.1,99.501C55.612,102.043 52.879,104.359 49.906,106.448C49.708,106.588 49.525,106.75 49.359,106.93C48.306,108.084 47.058,109.166 45.623,110.177C45.476,110.281 45.343,110.396 45.22,110.529C44.375,111.446 43.926,112.28 42.682,114.294C42.236,115.017 41.664,115.603 40.97,116.059C40.794,116.178 40.553,116.07 40.517,115.862C40.334,114.776 41.168,112.899 41.47,111.806C41.675,111.054 41.42,110.583 40.697,110.389C38.453,109.785 36.314,110.313 33.861,110.817C33.362,110.921 32.876,110.579 32.801,110.072C32.754,109.774 32.815,109.357 32.977,108.814C33.444,107.264 34.304,106.052 35.551,105.182C38.957,102.816 42.398,102.741 46.695,103.082C46.803,103.093 46.907,103.064 46.997,103.007C47.651,102.597 48.111,102.173 48.381,101.734C51.211,97.081 53.631,92.547 55.634,88.131C56.342,86.574 56.957,84.845 57.482,82.95L64.968,90.199Z" style="fill:white;fill-opacity:0.75;fill-rule:nonzero;"/>
    <path d="M205.879,89.289C205.387,89.451 204.862,89.494 204.301,89.415C204.038,89.379 203.776,89.487 203.618,89.699L200.159,94.265C199.756,94.291 199.443,94.445 199.224,94.729C199.069,94.927 199.094,95.193 199.292,95.531C198.217,97.419 197.401,99.429 196.843,101.561C196.732,101.989 196.685,102.342 196.71,102.626C196.746,103.064 197.232,103.338 197.703,103.187C199.26,102.683 199.907,104.183 199.54,105.384C199.385,105.891 199.299,106.311 199.281,106.638C197.821,106.236 196.868,107.145 195.714,107.117C195.401,107.11 195.178,107.415 195.283,107.71L195.466,108.224C195.596,108.595 195.991,108.796 196.365,108.684L198.447,108.059C198.17,109.551 198.087,110.709 198.202,111.529C198.458,113.37 199.321,114.323 200.795,114.387C199.828,114.513 198.911,114.384 198.044,113.992C197.192,113.611 196.523,112.985 196.038,112.115C195.293,110.774 194.873,109.35 194.783,107.843C194.707,106.574 194.722,103.899 194.83,99.817C194.833,99.684 194.93,99.576 195.06,99.555C195.427,99.497 195.624,99.199 195.649,98.659C195.671,98.163 195.527,97.915 195.214,97.919C195.089,97.922 194.991,97.807 195.017,97.681L195.193,96.79C195.214,96.685 195.279,96.595 195.373,96.549C196.016,96.207 196.462,95.848 196.707,95.466C197.005,94.995 196.613,94.384 196.023,94.406C195.926,94.409 195.865,94.406 195.836,94.395C195.729,94.355 195.671,94.244 195.703,94.143L196.602,91.529C197.839,91.896 199.101,91.673 200.389,90.857C202.057,89.803 203.959,88.847 205.879,89.289Z" style="fill:white;fill-opacity:0.75;fill-rule:nonzero;"/>
    <path d="M205.879,89.289C208.123,89.778 208.745,91.382 208.418,93.456C208.012,95.999 208.17,97.545 210.82,98.415C212.237,98.875 214.294,99.062 214.926,100.77C214.97,100.882 214.995,101 215.006,101.119C215.142,103.115 213.927,104.139 212.402,105.153C212.115,105.344 211.942,105.668 211.938,106.013C211.931,107.235 212.37,108.346 213.254,109.346C213.315,109.414 213.387,109.476 213.463,109.522L215.304,110.673C215.545,111.317 215.836,111.816 216.181,112.176C216.44,112.446 216.839,112.518 217.177,112.359C220.726,110.702 224.8,108.591 228.594,108.185C230.108,108.023 231.952,108.062 234.121,108.311C234.689,108.375 235.257,108.382 235.825,108.332L241.309,107.836L242.269,109.645C242.294,109.695 242.315,109.745 242.333,109.799C243.394,113.125 244.016,116.545 244.196,120.058C244.038,121.787 244.311,122.661 242.549,123.567C241.47,124.125 240.399,124.506 239.331,124.707C239.288,124.714 239.255,124.747 239.245,124.79C239.227,124.865 239.248,124.93 239.317,124.991C239.277,125.15 239.216,125.232 239.126,125.239C237.137,125.426 233.819,126.005 232.477,127.85C232.352,128.023 232.377,128.263 232.535,128.407C235.559,131.187 238.105,134.294 240.172,137.735C242.208,141.122 244.43,145.322 246.289,149.299C248.011,152.992 249.32,156.879 250.212,160.96C250.237,161.075 250.205,161.194 250.129,161.28C249.356,162.154 248.633,162.837 247.954,163.329C241.884,167.713 234.286,169.687 226.868,170.323L223.287,170.312C221.64,170.291 220.568,169.503 220.076,167.946C218.716,163.653 217.336,159.557 215.93,155.663C214.347,151.276 212.089,147.303 209.152,143.747C208.587,143.064 206.994,142.636 206.117,142.265C205.768,142.118 205.372,142.15 205.052,142.352L203.636,143.243C201.737,143.786 200.263,143.79 199.213,143.247C198.098,142.668 197.091,141.938 196.196,141.054C194.617,139.497 193.154,137.843 191.802,136.088C191.14,135.412 190.655,134.624 190.342,133.725C190.31,133.621 190.324,133.51 190.385,133.42C192.349,130.644 193.172,127.454 194.377,123.693C195.193,121.14 196.84,118.404 199.612,117.616C199.939,117.523 200.342,117.408 200.82,117.275C202.179,116.897 203.826,117.199 205.096,117.775C205.372,117.9 206.02,118.033 207.041,118.174L207.814,119.45C207.893,119.562 207.972,119.623 208.055,119.637C208.141,119.652 208.209,119.594 208.263,119.468C209.382,116.847 210.525,114.193 211.694,111.507C211.838,111.18 212.007,110.864 212.204,110.565C212.276,110.454 212.15,110.317 212.032,110.385C211.014,110.964 210.011,111.579 209.015,112.237C206.926,113.618 204.614,114.269 202.082,114.193C201.784,114.182 201.608,114.276 201.554,114.466C201.336,114.476 201.092,114.437 200.795,114.387C199.321,114.323 198.458,113.37 198.202,111.529C198.087,110.709 198.17,109.551 198.447,108.059C199.181,107.724 200.029,108.246 200.518,108.767C200.687,108.947 200.989,108.893 201.083,108.663C201.532,107.57 200.932,106.894 199.281,106.638C199.299,106.311 199.385,105.891 199.54,105.384C199.907,104.183 199.26,102.683 197.703,103.187C197.232,103.338 196.746,103.064 196.71,102.626C196.685,102.342 196.732,101.989 196.843,101.561C197.401,99.429 198.217,97.419 199.292,95.531C200.105,96.373 201.183,96.75 202.532,96.667C202.92,96.642 203.197,96.513 203.359,96.279C203.582,95.955 203.528,95.517 203.229,95.261C202.402,94.553 201.378,94.219 200.159,94.265L203.618,89.699C203.776,89.487 204.038,89.379 204.301,89.415C204.862,89.494 205.387,89.451 205.879,89.289ZM200.188,97.608C199.889,97.57 199.58,98.063 199.501,98.703C199.421,99.346 199.598,99.896 199.899,99.934C200.198,99.972 200.507,99.479 200.586,98.839C200.666,98.196 200.489,97.645 200.188,97.608Z" style="fill:white;fill-opacity:0.95;fill-rule:nonzero;"/>
    <path d="M91.365,94.014C91.944,94.661 92.454,95.366 92.893,96.124C96.507,102.385 99.089,109.062 100.635,116.156C101.944,122.161 102.591,128.468 102.336,134.711C102.253,136.706 102.163,138.263 102.059,139.382C101.764,142.621 101.692,145.739 101.843,148.734C101.904,149.932 102.113,151.474 102.469,153.362C102.785,155.023 103.152,156.533 103.565,157.889C105.352,163.747 107.208,168.763 109.132,172.93C110.645,176.213 111.641,178.755 112.113,180.56C112.335,181.416 112.652,182.373 113.062,183.426C113.425,184.357 113.72,185.325 113.946,186.324C113.957,186.378 113.975,186.429 114,186.475C115.252,189.14 115.072,191.682 113.465,194.102C111.095,187.928 108.884,181.765 106.834,175.616C105.557,171.794 104.338,167.849 103.177,163.786C102.177,160.298 101.412,157.375 100.883,155.02C100.469,153.204 100.52,151.636 100.3,149.932C100.189,149.069 100.131,147.792 100.121,146.098C100.103,141.769 100.038,137.857 99.934,134.358C99.75,128.192 98.959,122.104 97.568,116.088C96.78,112.679 96.234,110.666 95.935,110.051C95.856,109.885 95.795,109.583 95.752,109.141C95.734,108.969 95.683,108.8 95.604,108.649C94.817,107.131 93.174,103.967 90.678,99.156C90.099,98.041 89.409,96.977 88.607,95.959C89.046,95.697 89.215,95.506 89.118,95.395L91.365,94.014Z" style="fill:white;fill-opacity:0.5;fill-rule:nonzero;"/>
    <path d="M200.159,94.265C201.378,94.219 202.402,94.553 203.229,95.261C203.528,95.517 203.582,95.955 203.359,96.279C203.197,96.513 202.92,96.642 202.532,96.667C201.183,96.75 200.105,96.373 199.292,95.531C199.094,95.193 199.069,94.927 199.224,94.729C199.443,94.445 199.756,94.291 200.159,94.265Z" style="fill:white;fill-opacity:0.15;fill-rule:nonzero;"/>
    <path d="M88.607,95.959C89.409,96.977 90.099,98.041 90.678,99.156C93.174,103.967 94.817,107.131 95.604,108.649C95.683,108.8 95.734,108.969 95.752,109.141C95.795,109.583 95.856,109.885 95.935,110.051C96.234,110.666 96.78,112.679 97.568,116.088C98.959,122.104 99.75,128.192 99.934,134.358C100.038,137.857 100.103,141.769 100.121,146.098C100.131,147.792 100.189,149.069 100.3,149.932C100.52,151.636 100.469,153.204 100.883,155.02C101.412,157.375 102.177,160.298 103.177,163.786C104.338,167.849 105.557,171.794 106.834,175.616C108.884,181.765 111.095,187.928 113.465,194.102C113.188,194.21 113.112,194.368 113.242,194.573C112.4,195.224 111.501,195.756 110.548,196.166C109.315,196.695 107.97,197.101 106.514,197.381C106.039,197.248 105.565,197.209 105.094,197.263C104.59,197.32 104.101,197.069 103.853,196.626C100.326,190.305 98.308,186.662 97.801,185.695C96.324,182.88 94.763,179.827 93.12,176.533C92.001,174.297 90.301,170.489 88.01,165.109C87.359,163.581 86.885,162.193 86.586,160.953C85.795,157.659 85.058,154.113 84.371,150.313C82.915,142.265 81.642,134.247 80.552,126.261C80.391,125.092 80.211,124.171 80.013,123.499C79.981,123.388 79.876,123.308 79.758,123.305C76.112,123.229 72.196,126.264 69.273,128.49C67.716,129.677 66.367,130.863 65.224,132.05C63.706,133.625 62.3,134.376 60.776,135.869C59.931,136.696 59.014,137.523 58.021,138.346C56.277,139.788 54.889,141.525 53.857,143.553C53.778,143.707 53.739,143.88 53.735,144.052C53.714,145.167 53.728,145.89 53.778,146.221C54.206,148.95 54.868,152.603 55.763,157.177C55.781,157.26 55.918,157.763 56.18,158.684C56.633,160.287 59.467,172.52 59.557,173.466C59.568,173.556 59.639,173.624 59.776,173.674C59.862,173.671 59.924,173.685 59.956,173.714C60.024,173.772 60.01,173.879 59.931,173.919C58.417,174.681 56.81,175.267 55.102,175.677L52.412,175.828C51.966,175.853 51.553,175.598 51.376,175.188C47.583,166.321 44.724,158 41.729,148.371C40.701,145.059 39.877,141.499 39.255,137.692C38.913,135.606 39.726,134.229 41.118,132.319C42.743,130.09 44.908,127.347 47.615,124.085C48.05,123.56 48.676,122.823 49.485,121.877C50.161,121.09 50.812,120.378 51.437,119.738C56.508,114.56 60.164,110.928 62.405,108.839C64.357,107.023 67.536,104.294 71.941,100.659C74.476,100.885 77.047,100.652 79.654,99.954C80.872,99.627 82.39,99.023 84.206,98.142C85.68,97.423 87.147,96.696 88.607,95.959Z" style="fill:white;fill-opacity:0.75;fill-rule:nonzero;"/>
    <path d="M200.188,97.608C200.489,97.645 200.666,98.196 200.586,98.839C200.507,99.479 200.198,99.972 199.899,99.934C199.598,99.896 199.421,99.346 199.501,98.703C199.58,98.063 199.889,97.57 200.188,97.608Z" style="fill:white;fill-opacity:0.15;fill-rule:nonzero;"/>
    <path d="M199.281,106.638C200.932,106.894 201.532,107.57 201.083,108.663C200.989,108.893 200.687,108.947 200.518,108.767C200.029,108.246 199.181,107.724 198.447,108.059L196.365,108.684C195.991,108.796 195.596,108.595 195.466,108.224L195.283,107.71C195.178,107.415 195.401,107.11 195.714,107.117C196.868,107.145 197.821,106.236 199.281,106.638Z" style="fill:white;fill-opacity:0.15;fill-rule:nonzero;"/>
    <path d="M244.196,120.058C244.016,116.545 243.394,113.125 242.333,109.799C242.315,109.745 242.294,109.695 242.269,109.645L241.309,107.836C241.887,108.07 242.481,108.134 243.092,108.037C244.149,107.868 244.689,107.782 244.714,107.778C245.976,107.728 247.288,107.663 248.658,107.588C250.819,107.466 252.79,107.793 254.566,108.569C257.738,109.957 261.017,112.403 264.598,115.171C267.874,117.703 271.189,120.529 274.551,123.646C274.613,123.704 274.922,124.028 275.479,124.614C277.051,126.275 278.985,124.56 280.862,123.33C281.333,123.017 282.103,122.766 283.171,122.575C285.285,122.197 287.09,122.697 288.586,124.082C289.952,125.344 294.785,130.896 291.991,132.46C290.402,133.351 287.734,131.899 286.331,131.065C286.202,130.985 286.047,130.96 285.9,130.989C284.141,131.345 283.124,132.488 282.113,133.186C278.874,135.426 275.317,132.643 274.163,129.558C274.124,129.45 274.03,129.367 273.919,129.339C273.671,129.274 272.897,129.101 271.607,128.824C267.752,127.994 263.937,126.131 260.071,124.398C256.537,122.816 253.189,121.047 250.025,119.087C249.849,118.976 249.633,118.94 249.424,118.983L244.196,120.058Z" style="fill:white;fill-opacity:0.75;fill-rule:nonzero;"/>
    <path d="M207.127,118.156C206.437,116.876 205.416,115.664 204.06,114.517C203.844,114.333 203.546,114.272 203.273,114.359C202.78,114.513 202.208,114.549 201.554,114.466C201.608,114.276 201.784,114.182 202.082,114.193C204.614,114.269 206.926,113.618 209.015,112.237C210.011,111.579 211.014,110.964 212.032,110.385C212.15,110.317 212.276,110.454 212.204,110.565C212.007,110.864 211.838,111.18 211.694,111.507C210.525,114.193 209.382,116.847 208.263,119.468C208.209,119.594 208.141,119.652 208.055,119.637C207.972,119.623 207.893,119.562 207.814,119.45L207.041,118.174C207.07,118.17 207.098,118.163 207.127,118.156Z" style="fill:white;fill-opacity:0.75;"/>
    <path d="M252.013,190.341C250.694,191.991 249.277,193.484 247.763,194.814C246.44,195.979 245.433,196.925 244.739,197.655C242.531,199.981 240.266,202.225 237.943,204.379L236.048,206.238C235.969,206.317 235.936,206.428 235.962,206.536C236.512,208.917 236.994,210.686 237.407,211.847C239.453,217.575 241.431,222.131 243.34,225.518C246.551,231.21 248.532,234.648 249.291,235.838C250.409,237.596 251.01,239.304 251.089,240.962C250.762,241.62 250.284,242.231 249.654,242.792C249.216,242.782 248.86,242.904 248.59,243.166C248.342,243.407 248.097,243.659 247.856,243.921C247.756,244.029 247.637,244.112 247.5,244.17C244.98,245.245 242.398,246.115 239.752,246.773L237.982,246.906C237.813,246.92 237.652,246.841 237.555,246.701C233.79,241.131 230.28,235.457 227.019,229.679C223.33,223.131 219.986,216.011 216.206,208.794C215.958,208.32 215.811,207.802 215.771,207.27C215.699,206.324 215.405,205.411 215.423,204.357C215.43,204.008 215.441,203.523 215.459,202.901C215.527,200.351 216.527,197.284 218.465,193.699C219.77,191.29 221.158,189.054 222.629,186.99C223.373,185.95 224.826,183.984 226.987,181.096L229.234,178.086C229.331,177.957 229.367,177.795 229.338,177.637C228.882,175.088 228.058,172.65 226.868,170.323C234.286,169.687 241.884,167.713 247.954,163.329C248.633,162.837 249.356,162.154 250.129,161.28C250.205,161.194 250.237,161.075 250.212,160.96C249.32,156.879 248.011,152.992 246.289,149.299C244.43,145.322 242.208,141.122 240.172,137.735C238.105,134.294 235.559,131.187 232.535,128.407C232.377,128.263 232.352,128.023 232.477,127.85C233.819,126.005 237.137,125.426 239.126,125.239C239.216,125.232 239.277,125.15 239.317,124.991C243.308,130.554 246.465,137.156 248.935,143.635C250.338,147.317 251.341,151.071 251.945,154.897C252.013,155.332 252.078,156.339 252.132,157.911C252.164,158.802 251.826,159.511 251.111,160.036C250.934,160.169 250.934,160.435 251.111,160.568C251.528,160.884 251.887,161.233 252.186,161.618C254.951,165.16 256.885,168.633 257.986,172.031C259.848,177.788 258.029,182.765 254.541,187.349C253.71,188.446 252.865,189.442 252.013,190.341Z" style="fill:white;fill-opacity:0.6;fill-rule:nonzero;"/>
    <path d="M191.802,136.088C193.154,137.843 194.617,139.497 196.196,141.054C197.091,141.938 198.098,142.668 199.213,143.247C200.263,143.79 201.737,143.786 203.636,143.243C202.632,145.782 200.978,147.824 198.674,149.374C192.496,153.527 185.114,155.814 177.635,156.458C177.236,156.49 176.711,156.623 176.06,156.85C175.661,156.99 175.24,157.048 174.819,157.019C172.014,156.839 169.296,156.864 167.027,158.637C166.65,158.932 166.092,158.756 165.956,158.295L165.938,158.223C165.772,157.673 165.93,157.073 166.348,156.677C166.962,156.098 167.39,155.545 167.631,155.016C167.933,154.362 167.7,154.131 167.29,153.47C166.258,151.805 165.276,150.568 163.485,149.932C163.431,149.91 162.45,149.694 160.548,149.284C159.239,149 159.429,147.936 159.882,146.954C160.886,144.764 162.5,143.269 164.726,142.474C169.767,140.672 172.838,145.901 175.229,149.277C175.387,149.5 175.679,149.583 175.93,149.475C179.673,147.857 183.291,146.163 186.789,144.394C187.34,144.117 187.706,143.83 187.883,143.531C189.048,141.575 190.238,139.227 191.45,136.491C191.5,136.376 191.619,136.242 191.802,136.088Z" style="fill:white;fill-opacity:0.75;fill-rule:nonzero;"/>
    <path d="M226.868,170.323C228.058,172.65 228.882,175.088 229.338,177.637C229.367,177.795 229.331,177.957 229.234,178.086L226.987,181.096C225.538,177.551 224.304,173.955 223.287,170.312L226.868,170.323Z" style="fill:white;fill-opacity:0.5;fill-rule:nonzero;"/>
    <path d="M65.519,183.351C65.767,183.343 68.834,183.34 74.713,183.343C75.54,183.343 76.151,183.606 76.543,184.131C76.813,184.494 76.949,185.145 76.949,186.083C76.939,195.619 76.939,204.138 76.942,211.635C76.942,211.7 76.996,211.754 77.061,211.754C86.097,211.772 94.263,211.764 101.559,211.739L111.911,211.754C119.843,211.761 128.322,211.764 137.348,211.764C138.79,211.764 139.509,212.541 139.509,214.094C139.498,223.264 139.498,229.869 139.509,233.911C139.509,233.986 139.57,234.047 139.645,234.047C158.699,234.065 178.944,234.065 200.374,234.047C201.349,234.044 202.018,234.533 202.381,235.507C202.413,235.59 202.427,235.68 202.427,235.77L202.427,255.133C202.427,255.198 202.481,255.252 202.546,255.252L232.654,255.252L249.18,255.284L253.664,255.237C256.68,255.255 259.597,255.259 262.405,255.248C263.512,255.244 264.25,255.744 264.62,256.755C264.631,256.794 264.638,256.834 264.638,256.873L264.638,284.482C264.638,284.618 264.613,284.755 264.562,284.884L263.958,286.366C261.254,286.434 258.726,286.459 256.375,286.441C254.933,286.431 254.217,285.661 254.228,284.137C254.253,280.501 254.257,274.888 254.243,267.305C254.239,267.24 254.185,267.186 254.12,267.186L193.154,267.053C192.985,267.053 192.823,266.999 192.69,266.898C192.025,266.406 191.694,265.798 191.705,265.072C191.744,262.353 191.748,260.012 191.709,258.046C191.687,256.96 192.018,256.039 192.025,254.953C192.043,251.8 192.047,248.833 192.036,246.061C192.032,246.007 191.993,245.964 191.939,245.964L130.911,245.82C130.793,245.82 130.677,245.788 130.573,245.73C129.944,245.36 129.61,244.86 129.566,244.231C129.484,243.033 129.351,241.969 129.167,241.045C129.135,240.869 129.117,240.689 129.117,240.505L129.117,223.871C129.117,223.728 128.998,223.609 128.854,223.609L68.244,223.609C68.018,223.609 67.795,223.541 67.608,223.415C66.942,222.972 66.604,222.415 66.601,221.736C66.543,212.135 66.525,203.336 66.551,195.339C66.551,195.271 66.497,195.217 66.432,195.217C64.914,195.206 44.872,195.202 6.307,195.199C4.736,195.199 3.966,194.483 3.991,193.048C4.042,190.316 4.052,187.59 4.02,184.868C4.441,183.843 5.167,183.329 6.206,183.333C21.172,183.372 35.451,183.361 49.043,183.297L65.504,183.351C65.509,183.351 65.514,183.351 65.519,183.351Z" style="fill:white;fill-opacity:0.95;"/>
    <path d="M64.358,180.004C61.838,181.015 59.205,181.986 56.059,183.32L49.043,183.297C49.341,183.297 49.636,183.218 49.895,183.067L56.227,179.413C56.475,179.269 56.572,178.96 56.457,178.698L55.102,175.677C56.81,175.267 58.417,174.681 59.931,173.919C60.01,173.879 60.024,173.772 59.956,173.714C59.924,173.685 59.862,173.671 59.776,173.674L60.682,173.559C60.787,173.545 60.884,173.595 60.938,173.682C62.212,175.772 63.352,177.88 64.358,180.004Z" style="fill:white;fill-opacity:0.85;"/>
    <path d="M56.059,183.32C59.205,181.986 61.838,181.015 64.358,180.004C64.456,180.211 64.553,180.418 64.648,180.625C64.94,181.258 65.152,182.103 65.292,183.156C65.309,183.263 65.399,183.347 65.504,183.351L56.059,183.32Z" style="fill:white;fill-opacity:0.95;"/>
    <path d="M104.658,209.481C104.789,209.339 104.912,209.193 105.025,209.039C105.137,208.888 105.223,208.722 105.291,208.546C105.525,207.931 106.309,205.936 107.636,202.563C107.783,202.182 108.355,200.477 108.128,200.082L108.124,200.074C107.672,199.288 107.134,198.392 106.514,197.381C107.97,197.101 109.315,196.695 110.548,196.166C111.501,195.756 112.4,195.224 113.242,194.573L113.885,195.468C113.925,195.526 113.979,195.576 114.043,195.616L115.9,196.73C115.125,198.327 114.692,199.262 114.078,200.301C112.406,203.133 112.391,203.11 110.994,206.083C109.092,210.13 108.048,209.706 104.658,209.481Z" style="fill:white;fill-opacity:0.85;"/>
    <path d="M115.9,196.73L116.075,196.835C116.125,196.867 116.187,196.885 116.248,196.885L116.56,196.885C116.65,196.885 116.733,196.917 116.798,196.971L118.998,198.874C119.031,198.902 119.063,198.935 119.088,198.974C119.595,199.708 120.138,200.333 120.71,200.848C120.807,200.934 120.865,201.056 120.875,201.186C120.922,201.966 120.836,202.541 120.609,202.919C120.271,203.487 119.02,204.641 118.29,205.148C117.089,205.979 116.197,207.025 114.845,208.212C113.569,209.33 112.602,210.251 111.944,210.966C111.796,211.128 111.713,211.311 111.692,211.509C111.677,211.639 111.782,211.754 111.911,211.754L101.559,211.739C101.825,211.739 102.167,211.574 102.58,211.239C103.324,210.646 104.072,210.115 104.658,209.481C108.048,209.706 109.092,210.13 110.994,206.083C112.391,203.11 112.406,203.133 114.078,200.301C114.692,199.262 115.125,198.327 115.9,196.73Z" style="fill:white;fill-opacity:0.95;"/>
    <path d="M4.02,184.868C4.052,187.59 4.042,190.316 3.991,193.048C3.966,194.483 4.736,195.199 6.307,195.199C44.872,195.202 64.914,195.206 66.432,195.217C66.497,195.217 66.551,195.271 66.551,195.339C66.525,203.336 66.543,212.135 66.601,221.736C66.604,222.415 66.942,222.972 67.608,223.415C67.795,223.541 68.018,223.609 68.244,223.609L128.854,223.609C128.998,223.609 129.117,223.728 129.117,223.871L129.117,240.505C129.117,240.689 129.135,240.869 129.167,241.045C129.351,241.969 129.484,243.033 129.566,244.231C129.61,244.86 129.944,245.36 130.573,245.73C130.677,245.788 130.793,245.82 130.911,245.82L191.939,245.964C191.993,245.964 192.032,246.007 192.036,246.061C192.047,248.833 192.043,251.8 192.025,254.953C192.018,256.039 191.687,256.96 191.709,258.046C191.748,260.012 191.744,262.353 191.705,265.072C191.694,265.798 192.025,266.406 192.69,266.898C192.823,266.999 192.985,267.053 193.154,267.053L254.12,267.186C254.185,267.186 254.239,267.24 254.243,267.305C254.257,274.888 254.253,280.501 254.228,284.137C254.217,285.661 254.933,286.431 256.375,286.441C258.726,286.459 261.254,286.434 263.958,286.366C263.038,287.887 261.772,289.394 260.161,290.889C260.007,291.037 259.802,291.116 259.586,291.119C257.202,291.134 254.584,291.13 251.726,291.109C250.78,291.102 250.298,290.569 250.276,289.509C250.266,288.998 250.266,283.288 250.269,272.382C250.269,272.217 250.136,272.08 249.971,272.08C227.839,272.051 208.609,272.051 192.287,272.083C190.968,272.087 189.742,271.922 188.605,271.587C188.073,271.433 187.706,270.944 187.703,270.39C187.692,269.117 187.692,266.55 187.703,262.684C187.706,261.519 188.012,260.394 188.03,259.283C188.059,257.222 188.066,254.515 188.055,251.16C188.052,250.987 187.911,250.847 187.739,250.847C170.274,250.847 151.202,250.847 130.53,250.85C129.106,250.85 127.765,250.71 126.506,250.43C126.017,250.318 125.647,249.912 125.579,249.412C125.323,247.467 125.183,245.579 125.151,243.756C125.133,242.666 125.126,237.679 125.133,228.787C125.136,228.661 125.036,228.56 124.91,228.56L66.82,228.56C65.49,228.575 64.627,228.402 63.544,228.111C62.966,227.953 62.566,227.428 62.566,226.831L62.566,200.416C62.566,200.265 62.444,200.143 62.293,200.143C61.57,200.146 42.096,200.15 3.869,200.15C2.873,200.15 1.881,199.992 0.888,199.679C0.36,199.514 0,199.021 0,198.467L0.004,189.528C0.004,189.208 0.119,188.899 0.327,188.654L3.452,185.041C3.513,184.972 3.581,184.911 3.657,184.864C3.912,184.713 4.031,184.713 4.02,184.868Z" style="fill:white;fill-opacity:0.25;fill-rule:nonzero;"/>
    <path d="M297.305,210.315C297.974,209.729 298.222,209.057 298.053,208.305C297.654,206.558 296.982,205.069 296.029,203.836C291.933,198.543 289.086,194.871 287.478,192.826C286.802,191.959 285.954,191.287 284.932,190.808C284.763,190.729 284.58,190.69 284.393,190.69C282.858,190.704 281.391,191.056 279.988,191.75C278.931,192.272 277.91,192.854 276.921,193.491L275.652,191.981C279.395,189.672 282.178,188.144 283.994,187.392C285.055,186.954 285.993,187.044 286.817,187.662C287.058,187.845 287.64,188.615 288.571,189.978C294.245,198.287 297.514,203.106 298.373,204.44C298.956,205.335 299.193,206.468 299.089,207.834C299.078,207.982 299.035,208.129 298.956,208.255C298.478,209.046 298.431,209.949 297.305,210.315Z" style="fill:white;fill-opacity:0.2;fill-rule:nonzero;"/>
    <path d="M252.013,190.341C253.016,193.933 253.894,197.486 254.638,200.992C254.94,202.405 255.325,203.336 255.835,204.731C255.889,204.871 256.069,204.914 256.177,204.81C257.522,203.544 259.287,202.106 260.916,200.938C267.853,195.961 272.07,192.98 273.57,191.991C274.098,191.642 274.792,191.639 275.652,191.981L276.921,193.491C276.856,193.437 276.864,193.491 276.939,193.645C278.144,196.087 279.107,198.834 279.826,201.894C279.844,201.966 279.87,202.034 279.902,202.103C280.075,202.444 280.179,202.771 280.211,203.091C280.226,203.239 280.315,203.372 280.445,203.447C280.671,203.577 280.991,203.602 281.401,203.527L280.657,203.839C280.56,203.879 280.499,203.972 280.499,204.077L280.499,205.885C280.499,206.044 280.434,206.195 280.315,206.302C279.808,206.766 279.388,207.219 279.053,207.662C278.942,207.809 278.816,207.946 278.676,208.064C273.667,212.404 270.409,215.378 268.895,216.989C265.702,220.383 263.588,222.803 260.488,225.202C259.144,226.245 257.044,227.298 255.408,227.036C253.401,226.716 252.071,225.705 250.794,224.177C249.593,222.735 248.338,221.052 247.026,219.132C243.804,214.418 240.776,209.503 237.943,204.379C240.266,202.225 242.531,199.981 244.739,197.655C245.433,196.925 246.44,195.979 247.763,194.814C249.277,193.484 250.694,191.991 252.013,190.341Z" style="fill:white;fill-opacity:0.5;fill-rule:nonzero;"/>
    <path d="M297.305,210.315C296.838,210.664 296.295,210.995 295.673,211.301C294.346,211.959 293.052,211.962 291.79,211.311C291.16,210.988 290.24,210.38 289.032,209.488C288.338,208.978 287.503,208.255 286.529,207.316C285.386,206.216 284.591,205.421 284.149,204.932C283.145,203.825 282.232,203.358 281.401,203.527C280.991,203.602 280.671,203.577 280.445,203.447C280.315,203.372 280.226,203.239 280.211,203.091C280.179,202.771 280.075,202.444 279.902,202.103C279.87,202.034 279.844,201.966 279.826,201.894C279.107,198.834 278.144,196.087 276.939,193.645C276.864,193.491 276.856,193.437 276.921,193.491C277.91,192.854 278.931,192.272 279.988,191.75C281.391,191.056 282.858,190.704 284.393,190.69C284.58,190.69 284.763,190.729 284.932,190.808C285.954,191.287 286.802,191.959 287.478,192.826C289.086,194.871 291.933,198.543 296.029,203.836C296.982,205.069 297.654,206.558 298.053,208.305C298.222,209.057 297.974,209.729 297.305,210.315Z" style="fill:white;fill-opacity:0.75;fill-rule:nonzero;"/>
    <path d="M251.089,240.962C252.351,243.691 253.61,246.442 254.857,249.207C255.595,250.843 255.933,251.972 255.864,252.602C255.746,253.695 255.012,254.572 253.664,255.237L249.18,255.284C249.065,255.133 249.079,255.018 249.226,254.935C250.345,254.306 251.258,253.486 251.974,252.476C253.567,250.221 250.906,244.95 249.654,242.792C250.284,242.231 250.762,241.62 251.089,240.962Z" style="fill:white;fill-opacity:0.2;fill-rule:nonzero;"/>
    <path d="M249.654,242.792C250.906,244.95 253.567,250.221 251.974,252.476C251.258,253.486 250.345,254.306 249.226,254.935C249.079,255.018 249.065,255.133 249.18,255.284L232.654,255.252L239.521,248.959C239.744,248.754 239.863,248.463 239.845,248.161L239.752,246.773C242.398,246.115 244.98,245.245 247.5,244.17C247.637,244.112 247.756,244.029 247.856,243.921C248.097,243.659 248.342,243.407 248.59,243.166C248.86,242.904 249.216,242.782 249.654,242.792Z" style="fill:white;fill-opacity:0.75;fill-rule:nonzero;"/>
</svg>
