<?xml version="1.0" encoding="UTF-8" standalone="no"?>
<!DOCTYPE svg PUBLIC "-//W3C//DTD SVG 1.1//EN" "http://www.w3.org/Graphics/SVG/1.1/DTD/svg11.dtd">
<svg width="100%" height="100%" viewBox="0 0 300 300" version="1.1" xmlns="http://www.w3.org/2000/svg" xmlns:xlink="http://www.w3.org/1999/xlink" xml:space="preserve" xmlns:serif="http://www.serif.com/" style="fill-rule:evenodd;clip-rule:evenodd;stroke-linejoin:round;stroke-miterlimit:2;">
    <path d="M30.594,67.365C30.633,67.689 30.741,68.005 30.918,68.311C30.964,68.39 30.988,68.477 30.988,68.567L31.033,251.681L23.151,251.72C23.043,251.72 22.953,251.633 22.953,251.524L22.953,67.623C22.953,67.509 23.046,67.416 23.16,67.416L30.594,67.365Z" style="fill:white;fill-opacity:0.5;fill-rule:nonzero;"/>
    <path d="M67.61,82.479L70.532,83.904C70.709,83.991 70.82,84.168 70.823,84.366L70.829,87.063L70.838,130.187L70.817,183.76L70.811,202.406C70.811,202.487 70.916,202.518 70.958,202.448L73.411,198.547C73.438,198.505 73.453,198.459 73.456,198.411L73.685,194.867C73.688,194.858 73.688,194.852 73.691,194.846C74.013,193.863 73.904,192.58 74.031,191.528C74.136,190.635 74.235,189.697 74.325,188.72C76.763,192.595 78.915,196.509 80.779,200.461C82.003,203.062 83.1,205.767 84.065,208.581L71.04,221.822C70.898,221.963 70.82,222.156 70.82,222.354L70.817,230.491L70.817,237.249C70.817,237.339 70.751,237.417 70.661,237.429C70.12,237.507 68.854,237.775 68.485,238.316C68.349,238.517 68.172,238.671 67.958,238.779C67.874,238.821 67.784,238.845 67.691,238.848L66.326,238.911C66.251,238.914 66.182,238.929 66.113,238.953L40.153,248.512L31.033,251.681L30.988,68.567C30.988,68.477 30.964,68.39 30.918,68.311C30.741,68.005 30.633,67.689 30.594,67.365C38.963,70.782 47.334,74.233 55.712,77.717C56.722,78.138 57.281,78.382 57.389,78.448C57.525,78.529 57.669,78.589 57.819,78.634C58.928,78.959 59.812,79.455 60.834,79.857C63.254,80.804 64.649,81.366 65.025,81.55C66.11,82.073 66.972,82.383 67.61,82.479ZM65.169,151.439C65.229,151.448 65.286,151.4 65.286,151.337L65.286,91.343C65.286,91.301 65.259,91.265 65.22,91.25L37.667,80.441C37.601,80.414 37.529,80.465 37.529,80.537L37.529,146.988C37.529,147.039 37.565,147.081 37.616,147.09L65.169,151.439ZM34.748,159.895C36.05,161.798 38.521,162.658 40.535,161.257C41.292,160.731 41.842,160.061 42.185,159.246C42.218,159.045 42.281,158.873 42.371,158.726C42.422,158.642 42.513,158.591 42.609,158.594C45.2,158.603 47.932,158.594 50.809,158.567C52.006,158.555 52.06,157.208 51.909,156.273C51.804,155.624 51.446,155.305 50.83,155.314C47.725,155.362 44.89,155.38 42.323,155.371C42.185,155.371 42.059,155.296 41.996,155.173C40.348,152.047 35.893,152.092 34.577,155.51C34.297,156.234 34.198,157.394 34.186,158.065C34.174,158.663 34.36,159.273 34.748,159.895ZM36.347,167.314C36.266,167.32 36.203,167.389 36.203,167.471L36.203,236.918C36.203,237.023 36.305,237.099 36.404,237.066L65.175,228.195C65.241,228.177 65.286,228.114 65.286,228.048L65.286,165.33C65.286,165.24 65.208,165.168 65.118,165.174L36.347,167.314Z" style="fill:white;fill-opacity:0.75;fill-rule:nonzero;"/>
    <path d="M65.169,151.439L37.616,147.09C37.565,147.081 37.529,147.039 37.529,146.988L37.529,80.537C37.529,80.465 37.601,80.414 37.667,80.441L65.22,91.25C65.259,91.265 65.286,91.301 65.286,91.343L65.286,151.337C65.286,151.4 65.229,151.448 65.169,151.439Z" style="fill:white;fill-opacity:0.5;fill-rule:nonzero;"/>
    <path d="M155.157,100.797C154.108,100.641 153.32,100.794 152.788,101.26C152.469,101.537 152.379,101.997 152.572,102.375C153.23,103.653 153.6,104.919 153.684,106.169C153.684,106.175 153.693,106.25 153.711,106.391C153.75,106.683 153.645,106.848 153.395,106.884C153.287,106.899 153.176,106.848 153.119,106.752L152.283,105.406C152.259,105.366 152.226,105.333 152.184,105.312L151.937,105.18C151.793,105.105 151.628,105.24 151.673,105.396C151.919,106.256 152.214,107.561 152.553,109.313C152.611,109.617 152.794,110.035 153.098,110.564C153.149,110.657 153.161,110.765 153.131,110.867C152.181,114.057 150.876,117.165 149.214,120.195L149.205,87.195C149.205,87.126 149.148,87.072 149.079,87.072L70.829,87.063L70.823,84.366C70.82,84.168 70.709,83.991 70.532,83.904L67.61,82.479L150.239,82.349C150.293,82.349 150.347,82.355 150.398,82.364C152.253,82.74 153.41,83.873 153.876,85.761C153.897,85.842 153.906,85.921 153.906,86.002L153.906,100.476C153.906,100.599 154.023,100.689 154.144,100.656C154.453,100.575 154.793,100.62 155.157,100.797Z" style="fill:white;fill-opacity:0.5;fill-rule:nonzero;"/>
    <path d="M214.18,115.969C213.197,115.304 212.641,114.375 212.511,113.182C212.487,112.939 212.61,112.704 212.827,112.593C213.714,112.124 215.015,110.708 214.402,109.602C213.852,108.604 212.463,108.412 211.477,108.099C208.465,107.143 211.982,103.328 208.751,102.321C206.845,101.888 205.706,103.019 204.308,103.62C203.809,103.836 203.208,103.93 202.504,103.896C199.855,102.22 200.514,101.963 200.054,100.962C199.906,100.641 198.605,100.397 198.175,99.594C197.656,98.625 198.035,97.084 198.388,96.781C199.171,96.108 200.634,99.098 203.043,97.23C204.488,96.109 204.102,94.308 207.303,95.456C208.117,95.748 209.007,93.48 210.847,93.887C212.151,94.175 212.419,96.125 213.282,95.954C215.002,95.613 215.816,94.374 218.004,96.152C218.739,96.749 217.826,99.478 218.639,99.891C219.923,100.542 220.991,98.644 222.318,100.339C223.954,102.428 220.854,104.527 222.029,105.434C223.053,106.226 223.357,109.368 221.482,109.519C220.36,109.609 224.601,109.708 221.654,112.966C220.313,114.449 220.191,112.501 219.59,112.644C218.923,112.803 218.919,115.185 216.742,114.131C216.193,113.865 216.225,115.202 216.069,115.446C215.763,115.921 214.591,115.815 214.18,115.969Z" style="fill:white;fill-opacity:0.25;fill-rule:nonzero;"/>
    <path d="M155.157,100.797C156.966,101.203 158.205,102.282 158.869,104.035C159.557,105.853 158.433,108.171 157.423,109.71C157.249,109.975 157.135,110.275 157.087,110.588C156.864,112.046 156.726,112.963 156.675,113.338C156.533,114.375 156.38,115.289 156.215,116.083C156.107,116.597 155.809,117.823 155.322,119.768C154.844,121.671 154.345,123.553 153.822,125.413C152.214,129.303 151.044,132.015 149.19,135.433C149.217,134.299 148.898,133.013 148.228,131.579C147.702,130.455 146.938,129.745 145.931,129.448C145.64,129.36 145.345,129.354 145.05,129.43C144.801,129.496 144.515,129.592 144.197,129.718C146.051,126.553 147.726,123.378 149.214,120.195C150.876,117.165 152.181,114.057 153.131,110.867C153.161,110.765 153.149,110.657 153.098,110.564C152.794,110.035 152.611,109.617 152.553,109.313C152.214,107.561 151.919,106.256 151.673,105.396C151.628,105.24 151.793,105.105 151.937,105.18L152.184,105.312C152.226,105.333 152.259,105.366 152.283,105.406L153.119,106.752C153.176,106.848 153.287,106.899 153.395,106.884C153.645,106.848 153.75,106.683 153.711,106.391C153.693,106.25 153.684,106.175 153.684,106.169C153.6,104.919 153.23,103.653 152.572,102.375C152.379,101.997 152.469,101.537 152.788,101.26C153.32,100.794 154.108,100.641 155.157,100.797Z" style="fill:white;fill-opacity:0.85;fill-rule:nonzero;"/>
    <path d="M91.52,108.442L88.384,109.052C87.696,109.151 87.002,109.199 86.295,109.196C85.258,109.196 84.615,109.262 84.365,109.394C83.175,110.017 83.043,111.363 82.625,112.575C82.583,112.698 82.574,112.833 82.604,112.963C83.058,115.01 83.614,117.547 84.936,119.218C85.45,119.864 86.106,120.06 86.902,119.804C86.944,119.789 86.983,119.771 87.023,119.744L88.835,118.479C89.698,118.5 90.5,118.524 91.237,118.545C92.166,118.569 93.443,118.016 93.278,116.891C93.588,119.269 93.437,122.368 92.034,124.403C91.976,124.488 91.898,124.56 91.805,124.608C90.753,125.158 89.704,125.404 88.655,125.344C88.574,125.338 88.489,125.356 88.417,125.398L88.309,125.462C88.363,125.441 88.369,125.41 88.327,125.365C88.318,125.353 88.303,125.347 88.285,125.347C86.947,125.341 85.688,125.026 84.501,124.403C84.437,124.37 84.368,124.352 84.299,124.349L82.505,124.31C81.705,124.208 80.974,123.944 80.313,123.517C80.277,123.493 80.235,123.484 80.193,123.493C80.136,123.505 80.103,123.529 80.097,123.568L79.889,123.261C79.847,123.198 79.787,123.15 79.718,123.123C79.015,122.849 78.534,122.585 78.272,122.329C77.283,121.349 76.58,120.694 76.165,120.366C74.205,118.803 73.712,116.982 73.601,114.577C73.52,112.857 73.961,111.291 74.509,109.413C74.704,108.748 74.851,108.156 74.956,107.636C75.311,105.85 76.294,104.414 77.914,103.563C79.039,102.971 80.295,102.571 81.603,102.49C84.311,102.324 85.76,102.099 88.039,102.225C90.236,102.348 91.805,102.396 92.743,102.369C93.714,102.342 94.504,102.243 95.109,102.072C95.187,102.048 95.268,102.093 95.292,102.171C95.493,102.883 95.602,103.647 95.62,104.465C95.65,105.73 95.148,106.668 94.111,107.278C93.428,107.678 92.566,108.066 91.52,108.442ZM82.195,119.849L81.077,114.186C81.062,114.111 80.989,114.057 80.914,114.066C78.467,114.348 78.371,117.141 79.468,118.851C79.874,119.483 81.347,119.834 82.03,120.006C82.126,120.03 82.216,119.946 82.195,119.849ZM92.611,121.503C92.833,121.265 92.668,120.877 92.343,120.877L89.98,120.877C89.815,120.877 89.653,120.829 89.515,120.742L88.489,120.099C88.168,119.894 87.756,120.177 87.831,120.553C88.294,122.882 91.243,122.958 92.611,121.503Z" style="fill:white;fill-opacity:0.25;fill-rule:nonzero;"/>
    <path d="M208.751,102.321C208.219,102.249 207.711,102.285 207.233,102.433C207.143,102.46 207.064,102.514 207.007,102.589L205.177,104.973C205.11,105.057 205.113,105.174 205.183,105.255C205.294,105.393 205.519,105.538 205.856,105.685L204.497,105.733C204.431,105.736 204.371,105.763 204.326,105.808C204.194,105.944 204.182,106.133 204.29,106.373C203.52,107.759 202.943,109.223 202.561,110.762C202.486,111.066 202.715,111.357 203.024,111.357L203.848,111.357C204.07,111.357 204.269,111.487 204.359,111.688C204.566,112.154 204.557,112.614 204.329,113.071C204.073,113.579 204.046,113.979 204.251,114.264C203.58,114.514 202.895,114.583 202.192,114.478C201.774,114.415 201.467,114.057 201.467,113.636L201.467,109.674C201.467,109.536 201.512,109.4 201.593,109.286C201.903,108.859 201.981,108.321 201.828,107.669C201.696,107.107 202.144,106.755 202.525,106.34C202.597,106.262 202.612,106.148 202.561,106.055C202.465,105.877 202.363,105.748 202.258,105.661C202.192,105.604 202.147,105.523 202.138,105.436C202.065,104.771 202.558,104.549 202.504,103.896C203.208,103.93 203.809,103.836 204.308,103.62C205.706,103.019 206.845,101.888 208.751,102.321Z" style="fill:white;fill-opacity:0.75;fill-rule:nonzero;"/>
    <path d="M208.751,102.321C211.982,103.328 208.465,107.143 211.477,108.099C212.463,108.412 213.852,108.604 214.402,109.602C215.015,110.708 213.714,112.124 212.827,112.593C212.61,112.704 212.487,112.939 212.511,113.182C212.641,114.375 213.197,115.304 214.18,115.969L213.738,116.765C213.666,116.894 213.623,117.042 213.617,117.189C213.56,118.268 213.578,118.948 213.669,119.221C214.08,120.496 215.238,121.629 216.266,122.543C216.398,122.657 216.56,122.732 216.732,122.753C216.933,122.777 217.282,122.816 217.781,122.867C221.31,123.231 224.166,124.77 226.348,127.485C227.117,128.444 227.86,129.7 228.575,131.26C229.02,132.225 229.648,133.767 230.46,135.886C230.601,136.256 230.752,136.62 230.911,136.984C230.95,137.071 230.947,137.17 230.902,137.254L229.952,139.052C228.311,140.128 226.618,140.756 224.875,140.94C224.704,140.958 224.574,141.102 224.577,141.273L224.619,164.672L199.525,164.639C199.33,164.639 199.177,164.474 199.192,164.278C199.688,157.761 199.76,151.04 199.405,144.117L200.656,140.81C200.683,140.735 200.616,140.657 200.538,140.675C199.838,140.819 199.243,141.087 198.353,141.18C195.822,141.439 192.621,141.042 190.676,139.229C190.628,139.184 190.564,139.157 190.498,139.154C190.071,139.139 189.813,139.085 189.72,138.989C189.699,138.799 189.657,138.676 189.587,138.616C188.541,137.693 188.779,136.692 189.383,135.496C191.508,131.296 192.747,128.693 195.419,125.6C195.494,125.513 195.578,125.438 195.672,125.368C196.889,124.473 197.83,123.643 199.45,123.099C200.133,122.87 200.998,122.768 202.047,122.789C202.97,122.807 204.29,122.804 206.003,122.777C206.09,122.774 206.175,122.753 206.253,122.714C206.574,122.543 206.725,122.299 206.701,121.981L211.847,117.204C211.859,117.192 211.871,117.183 211.886,117.174L213.401,116.122C213.5,116.053 213.461,115.896 213.341,115.884L213.2,115.869C213.1,115.86 213.001,115.884 212.923,115.942C211.363,117.015 210.317,117.697 209.791,117.983C208.643,118.608 207.212,118.812 205.498,118.593C205.135,118.674 204.771,118.677 204.407,118.602L203.647,116.657C203.613,116.576 203.604,116.483 203.619,116.392C203.731,115.77 203.656,115.319 203.394,115.04C203.914,115.019 204.548,114.769 205.303,114.294C205.42,114.219 205.372,114.039 205.234,114.033C204.975,114.024 204.648,114.099 204.251,114.264C204.046,113.979 204.073,113.579 204.329,113.071C204.557,112.614 204.566,112.154 204.359,111.688C204.269,111.487 204.07,111.357 203.848,111.357L203.024,111.357C202.715,111.357 202.486,111.066 202.561,110.762C202.943,109.223 203.52,107.759 204.29,106.373C204.948,106.969 205.718,107.197 206.598,107.056C206.89,107.011 207.061,106.698 206.938,106.428C206.737,105.992 206.376,105.745 205.856,105.685C205.519,105.538 205.294,105.393 205.183,105.255C205.113,105.174 205.11,105.057 205.177,104.973L207.007,102.589C207.064,102.514 207.143,102.46 207.233,102.433C207.711,102.285 208.219,102.249 208.751,102.321ZM204.855,107.761C204.66,107.738 204.461,108.048 204.413,108.45C204.365,108.853 204.485,109.199 204.681,109.224C204.876,109.247 205.074,108.938 205.123,108.535C205.171,108.132 205.05,107.786 204.855,107.761Z" style="fill:white;fill-opacity:0.85;fill-rule:nonzero;"/>
    <path d="M254.61,122.819C252.227,124.461 249.825,126.069 247.399,127.641C245.111,129.129 242.962,131.08 242.108,133.716C242.075,133.818 242.132,133.926 242.235,133.963L242.241,133.966C242.349,134.002 242.466,133.954 242.514,133.848C243.173,132.457 243.93,131.365 244.793,130.572C245.983,129.478 246.801,128.795 247.246,128.522C249.578,127.091 251.896,125.504 254.196,123.757L254.262,129.105C254.529,130.214 254.268,131.005 253.471,131.48C253.18,131.654 252.575,131.831 251.652,132.012C249.723,132.393 248.298,133.896 246.987,135.487C245.914,136.791 244.94,137.687 243.344,137.708C242.307,137.723 238.859,137.444 238.318,136.244C237.663,134.795 238.766,133.253 239.758,132.234C241.192,130.758 242.382,129.405 243.323,128.17C244.183,127.043 244.742,125.807 244.667,124.518C244.612,123.589 244.6,122.882 244.627,122.398L244.739,123.198C244.742,123.219 244.763,123.234 244.784,123.228C244.823,123.219 244.85,123.21 244.865,123.201C244.898,123.183 244.919,123.144 244.928,123.084C245.036,122.308 245.49,121.623 246.287,121.025C247.483,120.135 248.941,119.122 249.972,117.604C251.286,115.665 251.92,113.462 251.878,110.988C251.878,110.885 251.773,110.819 251.68,110.861L251.655,110.87C251.535,110.925 251.448,111.036 251.43,111.165C251.175,112.93 250.624,114.7 249.78,116.477C249.052,118.007 248,119.068 246.623,119.654C246.626,119.344 246.669,118.596 246.75,117.408C246.867,115.662 246.521,113.87 245.707,112.04C245.385,110.937 244.811,109.942 243.99,109.052C243.81,108.856 243.563,108.736 243.296,108.718C242.193,108.64 241.128,108.739 240.133,108.174C240.29,107.768 240.371,107.278 240.38,106.704C240.38,106.602 240.416,106.506 240.482,106.428C241.062,105.745 241.79,105.378 242.665,105.327C244.579,105.288 246.275,105.826 247.754,106.942C247.88,107.038 248.045,106.887 247.961,106.752C247.354,105.796 245.487,105 244.426,104.901C244.384,104.897 244.372,104.843 244.408,104.822L244.612,104.699L244.928,104.423C245,104.356 245.096,104.32 245.196,104.32C259.166,103.03 262.533,117.886 254.61,122.819Z" style="fill:white;fill-opacity:0.5;fill-rule:nonzero;"/>
    <path d="M244.612,104.699L244.408,104.822C244.372,104.843 244.384,104.897 244.426,104.901C245.487,105 247.354,105.796 247.961,106.752C248.045,106.887 247.88,107.038 247.754,106.942C246.275,105.826 244.579,105.288 242.665,105.327C242.878,105.12 243.154,105.024 243.494,105.036C243.59,105.039 243.684,105.009 243.759,104.952C244.002,104.771 244.288,104.687 244.612,104.699Z" style="fill:white;fill-opacity:0.25;fill-rule:nonzero;"/>
    <path d="M112.631,119.155C112.961,119.435 113.265,119.819 113.539,120.309C113.584,120.384 113.635,120.454 113.698,120.517L114.996,121.809C115.002,121.818 115.008,121.824 115.014,121.833C115.354,122.344 115.799,122.882 116.352,123.445C116.632,123.73 117.071,124.232 117.669,124.948C119,126.538 120.407,127.966 121.889,129.225L123.999,131.657C122.027,132.859 120.633,134.377 119.812,136.214C119.508,136.896 119.124,137.362 118.658,137.612C118.312,136.635 117.792,135.73 117.095,134.891C116.584,134.278 116.274,133.902 116.169,133.767C112.757,129.348 109.784,124.467 107.256,119.125C106.715,117.98 106.141,116.648 105.537,115.136C105.422,114.847 105.239,114.592 105.001,114.39C103.592,113.188 101.947,111.267 102.089,109.304C102.188,107.931 102.786,106.755 103.883,105.784C104.971,104.822 106.168,104.6 107.472,105.114C107.56,105.15 107.626,105.228 107.644,105.321C107.719,105.73 107.713,106.154 107.626,106.593C107.463,107.426 107.304,109.797 107.83,110.48C107.971,110.663 108.26,110.624 108.344,110.408C108.467,110.095 108.609,109.623 108.771,108.992C108.822,108.805 108.984,108.646 109.141,108.58C109.243,108.535 109.357,108.607 109.36,108.715L109.547,113.275C109.547,113.296 109.544,113.32 109.541,113.341L109.363,114.135C109.339,114.249 109.36,114.366 109.426,114.463L112.631,119.155Z" style="fill:white;fill-opacity:0.85;fill-rule:nonzero;"/>
    <path d="M205.856,105.685C206.376,105.745 206.737,105.992 206.938,106.428C207.061,106.698 206.89,107.011 206.598,107.056C205.718,107.197 204.948,106.969 204.29,106.373C204.182,106.133 204.194,105.944 204.326,105.808C204.371,105.763 204.431,105.736 204.497,105.733L205.856,105.685Z" style="fill:white;fill-opacity:0.25;fill-rule:nonzero;"/>
    <path d="M204.855,107.761C205.05,107.786 205.171,108.132 205.123,108.535C205.074,108.938 204.876,109.247 204.681,109.224C204.485,109.199 204.365,108.853 204.413,108.45C204.461,108.048 204.66,107.738 204.855,107.761Z" style="fill:white;fill-opacity:0.25;fill-rule:nonzero;"/>
    <path d="M240.133,108.174C241.128,108.739 242.193,108.64 243.296,108.718C243.563,108.736 243.81,108.856 243.99,109.052C244.811,109.942 245.385,110.937 245.707,112.04C244.552,111.324 243.422,110.194 242.012,110.257C241.781,110.269 241.57,110.401 241.462,110.606C240.909,111.652 240.425,112.921 240.013,114.415C239.866,114.956 239.631,115.533 239.704,116.14C239.722,116.302 239.851,116.429 240.013,116.444L240.759,116.522C241.131,116.558 241.39,116.912 241.312,117.279L240.912,119.179C240.575,119.362 240.133,119.435 239.583,119.389C239.358,119.371 239.28,119.678 239.484,119.774C239.77,119.903 240.07,119.967 240.389,119.964C240.088,121.406 240.392,122.335 241.128,123.637C241.177,123.721 241.261,123.775 241.357,123.781L242.138,123.838C241.155,124.004 240.263,123.745 239.466,123.063C239.382,122.994 239.316,122.906 239.268,122.81C238.889,122.068 238.682,121.515 238.645,121.148C238.468,119.35 238.465,117.225 238.636,114.769C238.645,114.652 238.685,114.541 238.754,114.445C239.066,114.015 239.117,113.48 238.91,112.839C238.85,112.653 238.928,112.452 239.096,112.352L239.478,112.13C239.613,112.052 239.628,111.862 239.505,111.769C239.424,111.706 239.352,111.625 239.283,111.526C239.235,111.457 239.223,111.369 239.256,111.291L239.887,109.677C239.929,109.572 239.944,109.461 239.932,109.349C239.872,108.832 239.938,108.442 240.133,108.174Z" style="fill:white;fill-opacity:0.75;fill-rule:nonzero;"/>
    <path d="M89.304,118.49C89.15,118.486 88.993,118.482 88.835,118.479C89.005,118.499 89.161,118.503 89.304,118.49Z" style="fill:white;fill-opacity:0.75;"/>
    <path d="M89.304,118.49C89.772,118.449 90.095,118.231 90.272,117.832C90.317,117.73 90.41,117.655 90.522,117.637C90.744,117.598 90.999,117.625 91.285,117.712C91.631,117.817 91.967,117.526 91.913,117.168C91.667,115.572 91.255,114.054 90.681,112.611C90.645,112.518 90.549,112.464 90.452,112.479L90.173,112.518C90.323,112.268 90.329,112.085 90.194,111.965C90.161,111.935 90.119,111.92 90.074,111.92L88.76,111.932C89.184,111.736 89.629,111.697 90.095,111.811C90.233,111.844 90.353,111.706 90.293,111.574C90.05,111.024 89.758,110.429 89.424,109.782C89.382,109.701 89.367,109.614 89.382,109.521C89.403,109.373 89.412,109.289 89.406,109.268C89.376,109.169 89.289,109.1 89.19,109.094L88.384,109.052L91.52,108.442C92.154,109.509 92.581,110.558 92.794,111.592C92.807,111.653 92.779,111.709 92.733,111.739L92.083,111.556C92.039,111.544 91.995,111.547 91.955,111.568C91.793,111.648 91.75,111.827 91.83,112.107C92.178,112.366 92.53,112.586 92.888,112.766C92.94,112.818 92.975,112.885 92.986,112.96C93.08,113.555 93.11,114.063 93.083,114.481C93.077,114.58 93.083,114.679 93.104,114.775C93.242,115.464 93.299,116.167 93.278,116.891C93.443,118.016 92.166,118.569 91.237,118.545C90.636,118.528 89.99,118.508 89.304,118.49ZM92.603,113.993C92.448,114.012 92.358,114.33 92.405,114.701C92.451,115.073 92.614,115.361 92.769,115.341C92.923,115.322 93.014,115.004 92.966,114.633C92.92,114.261 92.758,113.973 92.603,113.993Z" style="fill:white;fill-opacity:0.75;"/>
    <path d="M140.547,114.231C139.733,114.384 138.975,114.18 138.281,113.624C136.531,112.304 135.329,112.912 134.755,114.929C134.725,115.034 134.442,116.254 133.904,118.59C133.369,120.926 131.962,119.982 130.802,118.978C130.73,118.914 130.64,118.878 130.543,118.869C130.162,118.839 129.87,118.966 129.666,119.245C128.307,121.1 129.458,122.128 131.205,122.525C131.448,122.579 131.635,122.768 131.689,123.012C132.059,124.701 131.56,126.117 130.192,127.256C130.159,127.148 130.099,127.088 130.008,127.073C129.933,127.061 129.846,127.094 129.753,127.169C129.182,127.635 127.208,129.043 123.798,128.486C122.94,128.345 122.319,128.937 121.889,129.225C120.407,127.966 119,126.538 117.669,124.948C117.071,124.232 116.632,123.73 116.352,123.445C115.799,122.882 115.354,122.344 115.014,121.833C115.008,121.824 115.002,121.818 114.996,121.809L113.698,120.517C113.635,120.454 113.584,120.384 113.539,120.309C113.265,119.819 112.961,119.435 112.631,119.155C113.04,118.731 113.238,118.175 113.223,117.487C113.22,117.396 113.235,117.303 113.265,117.216C113.545,116.383 113.968,115.641 114.534,114.995C116.061,113.242 118.598,112.969 120.792,113.492C121.697,113.711 122.394,114.129 123.419,114.129C125.529,114.132 125.995,111.929 127.309,110.792C128.103,110.104 128.923,109.632 129.774,109.376C133.126,108.375 136.327,108.646 139.378,110.194C140.572,110.801 141.086,111.763 140.92,113.077C140.905,113.191 140.863,113.302 140.794,113.395C140.394,113.928 140.313,114.207 140.547,114.231Z" style="fill:white;fill-opacity:0.25;fill-rule:nonzero;"/>
    <path d="M88.384,109.052L89.19,109.094C89.289,109.1 89.376,109.169 89.406,109.268C89.412,109.289 89.403,109.373 89.382,109.521C89.367,109.614 89.382,109.701 89.424,109.782C89.758,110.429 90.05,111.024 90.293,111.574C90.353,111.706 90.233,111.844 90.095,111.811C89.629,111.697 89.184,111.736 88.76,111.932L87.639,112.485C87.383,112.611 87.47,112.993 87.753,112.996C88.538,113.005 89.343,112.845 90.173,112.518L90.452,112.479C90.549,112.464 90.645,112.518 90.681,112.611C91.255,114.054 91.667,115.572 91.913,117.168C91.967,117.526 91.631,117.817 91.285,117.712C90.999,117.625 90.744,117.598 90.522,117.637C90.41,117.655 90.317,117.73 90.272,117.832C90.041,118.352 89.563,118.566 88.835,118.479L87.023,119.744C86.983,119.771 86.944,119.789 86.902,119.804C86.106,120.06 85.45,119.864 84.936,119.218C83.614,117.547 83.058,115.01 82.604,112.963C82.574,112.833 82.583,112.698 82.625,112.575C83.043,111.363 83.175,110.017 84.365,109.394C84.615,109.262 85.258,109.196 86.295,109.196C87.002,109.199 87.696,109.151 88.384,109.052ZM89.659,113.928C89.466,113.946 89.34,114.303 89.381,114.727C89.421,115.151 89.611,115.479 89.803,115.46C89.995,115.443 90.122,115.085 90.081,114.661C90.041,114.237 89.851,113.909 89.659,113.928Z" style="fill:white;fill-rule:nonzero;"/>
    <path d="M245.707,112.04C246.521,113.87 246.867,115.662 246.75,117.408C246.669,118.596 246.626,119.344 246.623,119.654L244.627,122.398C244.6,122.882 244.612,123.589 244.667,124.518C244.742,125.807 244.183,127.043 243.323,128.17C242.382,129.405 241.192,130.758 239.758,132.234C238.766,133.253 237.663,134.795 238.318,136.244C238.859,137.444 242.307,137.723 243.344,137.708C244.94,137.687 245.914,136.791 246.987,135.487C248.298,133.896 249.723,132.393 251.652,132.012C252.575,131.831 253.18,131.654 253.471,131.48C254.268,131.005 254.529,130.214 254.262,129.105C254.797,129.294 255.254,129.436 255.635,129.535C257.646,130.061 259.297,131.047 260.583,132.496C260.649,132.571 260.707,132.652 260.755,132.739C261.061,133.289 261.26,133.674 261.353,133.896C264.668,141.919 266.761,146.942 267.629,148.966C268.294,150.514 268.21,151.488 267.482,153.099C265.327,157.878 263.174,162.7 261.031,167.561C260.334,166.25 259.276,165.667 257.854,165.814C257.67,165.835 257.517,165.958 257.457,166.133C257,167.495 257.021,168.886 257.517,170.311C257.574,170.477 257.595,170.654 257.574,170.825C257.514,171.348 257.4,172.046 257.232,172.917C257.156,173.314 257.343,173.723 257.704,173.939C258.84,174.628 259.143,172.911 259.447,172.322C259.531,172.16 259.775,172.217 259.778,172.4C259.784,173.197 259.742,173.78 259.651,174.153C259.384,175.247 258.473,176.483 258.058,177.336C258.01,177.435 258.001,177.553 258.037,177.658C258.248,178.334 258.852,178.572 259.489,178.091C259.826,177.838 260.153,177.496 260.475,177.066C261.494,182.035 262.486,186.928 263.451,191.741C263.731,193.13 263.956,194.525 264.13,195.925C265.465,206.573 266.271,213.021 266.55,215.269C267.133,219.991 267.699,224.714 268.249,229.436C268.258,229.526 268.201,229.611 268.113,229.638L266.003,230.236L256.552,231.135C256.468,231.141 256.405,231.213 256.405,231.297L256.405,234.937C256.405,235.211 256.54,235.466 256.766,235.623C258.903,237.09 260.18,237.988 262.441,239.173C263.424,239.69 264.401,240.231 265.372,240.793C265.739,241.006 265.778,241.517 265.45,241.788L264.936,242.212C264.87,242.266 264.789,242.296 264.705,242.299C263.728,242.338 262.838,242.047 261.876,241.974C260.376,241.863 258.046,241.569 254.881,241.094C254.126,240.982 253.582,240.937 252.915,240.916C251.737,240.874 250.835,240.396 251.117,239.028C251.289,238.199 251.415,237.544 251.499,237.066C251.508,237.008 251.526,236.951 251.55,236.897L252.362,235.094C252.44,234.916 252.479,234.724 252.47,234.531L252.35,231.565C252.341,231.327 252.145,231.141 251.908,231.141L246.148,231.141C246.028,231.141 245.914,231.186 245.824,231.27C245.574,231.504 245.406,231.808 245.319,232.184C245.021,233.443 244.757,234.501 244.519,235.352C244.408,235.746 244.48,236.2 244.733,236.708C244.778,236.801 244.859,236.87 244.958,236.906C245.132,236.966 245.232,236.993 245.256,236.987C245.496,236.918 245.664,237.02 245.758,237.288C246.188,238.535 246.347,239.624 246.23,240.556C246.197,240.829 246.028,241.064 245.782,241.187C244.654,241.746 243.62,241.49 242.445,241.725C242.039,241.806 241.456,241.884 240.699,241.965C239.571,242.089 238.3,242.248 236.887,242.446C235.603,242.627 234.284,242.666 233.199,242.783C232.546,242.855 232.053,242.651 231.726,242.173C231.657,242.071 231.548,242.004 231.425,241.986C229.378,241.698 227.812,241.566 226.727,241.593C225.747,241.614 224.656,241.538 223.453,241.364C222.645,241.247 221.334,241.208 219.524,241.247C219.347,241.25 218.622,241.13 217.345,240.88C217.237,240.859 217.141,240.796 217.077,240.706C216.705,240.168 216.602,239.558 216.771,238.869C216.918,238.259 217.192,237.21 217.588,235.719C217.679,235.385 217.937,235.109 218.361,234.892C219.067,235.52 219.807,235.905 220.579,236.05C221.965,236.311 223.351,236.191 224.737,235.683C225.191,235.563 225.623,235.364 226.029,235.091C226.147,235.009 226.291,234.985 226.426,235.024C227.412,235.298 228.251,235.638 228.945,236.047C231.488,237.541 233.616,238.677 235.33,239.455C235.423,239.497 235.528,239.491 235.618,239.443C237.1,238.641 238.45,237.787 239.662,236.888C240.206,236.485 240.527,235.917 240.626,235.181C240.777,234.072 240.999,233.308 241.393,231.589C241.441,231.378 241.282,231.177 241.065,231.177C239.292,231.177 237.554,230.93 235.85,230.44C235.6,229.638 235.48,228.94 235.489,228.345C235.525,225.853 235.444,223.662 235.249,221.765C235.029,219.622 235.216,217.514 235.002,215.248C234.714,212.215 234.876,209.107 234.563,206.341C234.32,204.189 234.521,201.775 234.323,199.689C234.17,198.072 234.085,196.409 234.073,194.702C234.058,192.399 233.995,190.767 233.884,189.802C233.683,188.101 233.737,186.79 233.728,184.587C233.719,182.215 233.403,179.272 233.349,176.588C233.779,176.612 234.082,176.543 234.26,176.377C234.446,176.203 234.434,175.917 234.227,175.518C233.619,174.357 233.147,173.783 233.295,172.8C233.334,172.545 233.595,172.394 233.8,172.512C234.07,172.668 234.392,172.65 234.762,172.454C235.14,172.259 235.243,171.898 235.068,171.369C235.053,171.321 234.927,170.792 234.696,169.779C234.632,169.503 234.635,169.214 234.705,168.937C234.798,168.568 234.879,168.102 234.942,167.54C235.023,166.845 234.804,165.138 234.085,164.771C233.283,164.356 232.519,164.302 231.801,164.606C231.723,163.515 231.602,162.42 231.437,161.329C231.416,161.203 231.38,160.629 231.329,159.607C231.299,159.027 231.17,158.449 230.938,157.869C230.851,156.363 230.755,154.809 230.649,153.201C230.574,152.083 230.601,150.968 230.725,149.855C230.98,147.592 231.218,145.376 231.443,143.203C231.563,142.232 231.714,141.339 231.894,140.528C231.939,140.32 231.984,139.614 232.029,138.408C232.035,138.231 232.059,138.054 232.098,137.879C232.243,137.263 232.327,136.59 232.348,135.862C232.351,135.727 232.372,135.592 232.405,135.46C233.036,133.1 234.26,131.2 236.075,129.763C236.093,129.748 236.114,129.736 236.135,129.724L238.128,128.747C238.171,128.726 238.216,128.714 238.261,128.705L242.761,127.993C243.127,127.936 243.404,127.629 243.428,127.259C243.479,126.487 243.485,125.849 243.446,125.341C243.404,124.782 243.23,124.328 242.92,123.983C242.797,123.841 242.535,123.793 242.138,123.838L241.357,123.781C241.261,123.775 241.177,123.721 241.128,123.637C240.392,122.335 240.088,121.406 240.389,119.964C240.978,119.882 241.522,119.663 242.021,119.305C242.178,119.194 242.072,118.945 241.883,118.984L240.912,119.179L241.312,117.279C241.39,116.912 241.131,116.558 240.759,116.522L240.013,116.444C239.851,116.429 239.722,116.302 239.704,116.14C239.631,115.533 239.866,114.956 240.013,114.415C240.425,112.921 240.909,111.652 241.462,110.606C241.57,110.401 241.781,110.269 242.012,110.257C243.422,110.194 244.552,111.324 245.707,112.04ZM241.336,111.983L244.324,112.554C244.342,112.557 244.357,112.548 244.36,112.53L244.36,112.524C244.42,112.217 243.81,111.844 242.995,111.688L242.89,111.667C242.078,111.514 241.372,111.637 241.315,111.944L241.312,111.95C241.309,111.965 241.321,111.98 241.336,111.983ZM241.867,113.188C241.697,113.155 241.501,113.435 241.431,113.809C241.36,114.186 241.441,114.514 241.61,114.547C241.781,114.58 241.976,114.3 242.046,113.925C242.117,113.549 242.036,113.221 241.867,113.188ZM252.981,154.845C255.275,158.2 256.51,163.151 257.752,165.192C257.806,165.282 257.938,165.273 257.98,165.177C258.073,164.97 258.139,164.792 258.178,164.639C260.042,157.349 261.103,153.225 261.362,152.266C261.461,151.896 261.479,151.569 261.413,151.283C261.395,151.199 261.359,151.121 261.308,151.055C259.639,148.902 258.687,147.628 258.455,147.234C257.842,146.197 257.177,145.07 256.462,143.858L256.104,143.486C255.918,143.29 255.596,143.335 255.473,143.576C254.758,144.968 254.385,145.695 254.352,145.758C253.715,147.042 252.641,149.684 251.129,153.685C251.048,153.898 250.994,154.115 250.967,154.331C250.934,154.587 251.132,154.815 251.391,154.821L252.981,154.845ZM234.711,162.682C235.219,161.197 235.799,159.949 236.286,158.651C236.689,157.581 237.308,156.279 238.146,154.746C238.324,154.424 238.396,154.058 238.36,153.691C238.288,152.997 238.107,151.707 237.816,149.822C237.789,149.63 237.681,149.41 237.497,149.164C237.449,149.098 237.35,149.104 237.308,149.176L235.919,151.578C235.853,151.695 235.82,151.83 235.826,151.963C235.868,152.985 235.462,153.931 235.483,154.839C235.486,154.972 235.345,155.945 235.062,157.761C234.945,158.522 234.852,159.336 234.789,160.202C234.747,160.755 234.666,161.57 234.542,162.646C234.536,162.691 234.566,162.73 234.608,162.739C234.653,162.748 234.696,162.724 234.711,162.682Z" style="fill:white;fill-opacity:0.95;fill-rule:nonzero;"/>
    <path d="M244.627,122.398L246.623,119.654C248,119.068 249.052,118.007 249.78,116.477C250.624,114.7 251.175,112.93 251.43,111.165C251.448,111.036 251.535,110.925 251.655,110.87L251.68,110.861C251.773,110.819 251.878,110.885 251.878,110.988C251.92,113.462 251.286,115.665 249.972,117.604C248.941,119.122 247.483,120.135 246.287,121.025C245.49,121.623 245.036,122.308 244.928,123.084C244.919,123.144 244.898,123.183 244.865,123.201C244.85,123.21 244.823,123.219 244.784,123.228C244.763,123.234 244.742,123.219 244.739,123.198L244.627,122.398Z" style="fill:white;fill-opacity:0.25;fill-rule:nonzero;"/>
    <path d="M241.336,111.983C241.321,111.98 241.309,111.965 241.312,111.95L241.315,111.944C241.372,111.637 242.078,111.514 242.89,111.667L242.995,111.688C243.81,111.844 244.42,112.217 244.36,112.524L244.36,112.53C244.357,112.548 244.342,112.557 244.324,112.554L241.336,111.983Z" style="fill:white;fill-opacity:0.15;fill-rule:nonzero;"/>
    <path d="M88.76,111.932L90.074,111.92C90.119,111.92 90.161,111.935 90.194,111.965C90.329,112.085 90.323,112.268 90.173,112.518C89.343,112.845 88.538,113.005 87.753,112.996C87.47,112.993 87.383,112.611 87.639,112.485L88.76,111.932Z" style="fill:white;fill-opacity:0.15;fill-rule:nonzero;"/>
    <path d="M92.888,112.766C93.266,112.956 93.65,113.101 94.04,113.202C94.314,113.273 94.498,112.928 94.284,112.739L93.347,111.911L92.733,111.739C92.703,111.759 92.664,111.767 92.623,111.757C92.403,111.706 92.217,111.697 92.064,111.73C91.844,111.778 91.793,112.07 91.985,112.19L92.83,112.719C92.851,112.733 92.871,112.748 92.888,112.766Z" style="fill:white;fill-opacity:0.15;"/>
    <path d="M92.733,111.739L92.083,111.556C92.039,111.544 91.995,111.547 91.955,111.568C91.793,111.648 91.75,111.827 91.83,112.107C92.178,112.366 92.53,112.586 92.888,112.766C92.871,112.748 92.851,112.733 92.83,112.719L91.985,112.19C91.793,112.07 91.844,111.778 92.064,111.73C92.217,111.697 92.403,111.706 92.623,111.757C92.664,111.767 92.703,111.759 92.733,111.739Z" style="fill:white;fill-opacity:0.15;"/>
    <path d="M138.281,113.624C138.086,114.054 138.11,114.439 138.359,114.778C138.75,115.319 139.354,116.089 139.679,116.819C140.448,118.56 140.959,119.861 141.215,120.724C141.302,121.025 141.077,121.325 140.764,121.325L140.151,121.325C139.856,121.325 139.607,121.539 139.565,121.83C139.402,122.918 139.805,123.451 140.773,123.427C140.902,123.424 140.977,123.469 140.998,123.556C141.019,123.637 140.989,123.721 140.908,123.811C140.214,123.829 139.534,123.673 138.867,123.339C138.786,123.3 138.69,123.297 138.609,123.33C138.263,123.472 138.11,123.688 138.152,123.98C138.167,124.079 138.206,124.172 138.266,124.25C139.072,125.284 140.091,125.57 141.323,125.107C141.479,125.128 141.422,125.296 141.152,125.615C141.034,125.753 140.977,125.928 140.986,126.108C141.055,127.31 140.553,127.987 140.337,128.723C140.307,128.828 140.211,128.9 140.1,128.897L137.451,128.861C136.994,128.852 136.543,128.78 136.108,128.645C134.418,128.119 132.915,127.47 131.596,126.691C131.43,126.595 131.217,126.637 131.106,126.793L131.082,126.829C130.97,126.983 131.006,127.199 131.163,127.307C131.86,127.8 132.696,128.179 133.426,128.669C135.317,129.932 136.712,131.858 137.614,134.447C137.677,134.63 137.863,134.744 138.056,134.714C139.213,134.537 139.745,133.875 139.655,132.73C141.461,132.378 142.973,131.374 144.197,129.718C144.515,129.592 144.801,129.496 145.05,129.43C145.345,129.354 145.64,129.36 145.931,129.448C146.938,129.745 147.702,130.455 148.228,131.579C148.898,133.013 149.217,134.299 149.19,135.433L148.91,137.053C148.45,138.751 147.645,140.26 146.487,141.574C146.355,141.727 146.292,141.928 146.319,142.13C146.572,144.114 146.683,146.242 146.65,148.512C146.629,150.054 146.385,151.587 145.919,153.114C145.129,155.699 144.78,157.337 144.314,160.25C144.025,162.057 144.095,163.677 144.524,165.108C144.218,165.153 143.902,165.222 143.578,165.318C142.739,165.568 141.969,165.508 141.179,165.793C141.007,165.856 140.827,165.895 140.647,165.907C138.089,166.082 135.927,166.208 134.166,166.286C133.718,166.307 133.231,166.127 132.9,166.265C132.684,166.355 132.377,166.37 131.977,166.31C130.489,166.085 129.104,165.763 127.826,165.345C127.787,165.333 127.748,165.339 127.718,165.363C127.676,165.393 127.625,165.411 127.568,165.414C127.288,164.864 127.553,164.245 127.592,163.77C127.799,161.185 127.733,158.63 127.39,156.105C126.834,151.99 125.629,148.175 124.513,144.132C124.447,143.888 124.285,143.681 124.066,143.558C121.528,142.118 119.578,140.419 118.658,137.612C119.124,137.362 119.508,136.896 119.812,136.214C120.633,134.377 122.027,132.859 123.999,131.657L127.79,133.473C128.274,133.704 128.851,133.617 129.245,133.253C130.297,132.279 131.433,130.361 130.961,128.807C130.796,128.269 130.54,127.752 130.192,127.256C131.56,126.117 132.059,124.701 131.689,123.012C131.635,122.768 131.448,122.579 131.205,122.525C129.458,122.128 128.307,121.1 129.666,119.245C129.87,118.966 130.162,118.839 130.543,118.869C130.64,118.878 130.73,118.914 130.802,118.978C131.962,119.982 133.369,120.926 133.904,118.59C134.442,116.254 134.725,115.034 134.755,114.929C135.329,112.912 136.531,112.304 138.281,113.624ZM136.075,117.646L139.168,116.765C139.177,116.762 139.18,116.753 139.177,116.744L139.174,116.735C139.087,116.429 138.341,116.374 137.508,116.612L137.403,116.642C136.571,116.879 135.966,117.318 136.054,117.622L136.057,117.634C136.057,117.643 136.066,117.646 136.075,117.646ZM138.712,118.039C138.548,118.082 138.503,118.44 138.61,118.836C138.717,119.23 138.936,119.516 139.101,119.472C139.264,119.429 139.309,119.071 139.202,118.675C139.096,118.28 138.876,117.995 138.712,118.039Z" style="fill:white;fill-rule:nonzero;"/>
    <path d="M241.867,113.188C242.036,113.221 242.117,113.549 242.046,113.925C241.976,114.3 241.781,114.58 241.61,114.547C241.441,114.514 241.36,114.186 241.431,113.809C241.501,113.435 241.697,113.155 241.867,113.188Z" style="fill:white;fill-opacity:0.15;fill-rule:nonzero;"/>
    <path d="M138.281,113.624C138.975,114.18 139.733,114.384 140.547,114.231L141.389,115.927C141.437,116.023 141.419,116.137 141.344,116.212L141.052,116.504C140.926,116.63 141.022,116.846 141.2,116.837C141.687,116.813 141.858,117.204 141.717,118.01C141.606,118.641 142.035,118.881 142.3,119.341C142.351,119.435 142.375,119.54 142.372,119.645C142.345,120.171 142.396,120.685 142.522,121.184C142.85,122.492 142.88,123.808 142.916,124.848C142.919,124.966 142.895,125.08 142.847,125.185C142.844,125.194 142.841,125.206 142.832,125.221C142.793,125.311 142.772,125.407 142.769,125.504C142.76,126.135 142.64,126.769 142.402,127.403C141.861,128.855 140.379,129.144 139.008,129.048C138.723,129.027 138.458,129.201 138.359,129.475C138.101,130.199 138.007,130.948 138.083,131.714C138.092,131.807 138.146,131.888 138.227,131.934L139.655,132.73C139.745,133.875 139.213,134.537 138.056,134.714C137.863,134.744 137.677,134.63 137.614,134.447C136.712,131.858 135.317,129.932 133.426,128.669C132.696,128.179 131.86,127.8 131.163,127.307C131.006,127.199 130.97,126.983 131.082,126.829L131.106,126.793C131.217,126.637 131.43,126.595 131.596,126.691C132.915,127.47 134.418,128.119 136.108,128.645C136.543,128.78 136.994,128.852 137.451,128.861L140.1,128.897C140.211,128.9 140.307,128.828 140.337,128.723C140.553,127.987 141.055,127.31 140.986,126.108C140.977,125.928 141.034,125.753 141.152,125.615C141.422,125.296 141.479,125.128 141.323,125.107C141.78,124.857 141.933,124.467 141.786,123.938C141.762,123.85 141.678,123.79 141.588,123.793L140.908,123.811C140.989,123.721 141.019,123.637 140.998,123.556C140.977,123.469 140.902,123.424 140.773,123.427C139.805,123.451 139.402,122.918 139.565,121.83C139.607,121.539 139.856,121.325 140.151,121.325L140.764,121.325C141.077,121.325 141.302,121.025 141.215,120.724C140.959,119.861 140.448,118.56 139.679,116.819C139.354,116.089 138.75,115.319 138.359,114.778C138.11,114.439 138.086,114.054 138.281,113.624Z" style="fill:white;fill-opacity:0.75;fill-rule:nonzero;"/>
    <path d="M89.659,113.928C89.851,113.909 90.041,114.237 90.081,114.661C90.122,115.085 89.995,115.443 89.803,115.46C89.611,115.479 89.421,115.151 89.381,114.727C89.34,114.303 89.466,113.946 89.659,113.928Z" style="fill:white;fill-opacity:0.15;fill-rule:nonzero;"/>
    <path d="M92.603,113.993C92.758,113.973 92.92,114.261 92.966,114.633C93.014,115.004 92.923,115.322 92.769,115.341C92.614,115.361 92.451,115.073 92.405,114.701C92.358,114.33 92.448,114.012 92.603,113.993Z" style="fill:white;fill-opacity:0.15;fill-rule:nonzero;"/>
    <path d="M82.195,119.849C82.216,119.946 82.126,120.03 82.03,120.006C81.347,119.834 79.874,119.483 79.468,118.851C78.371,117.141 78.467,114.348 80.914,114.066C80.989,114.057 81.062,114.111 81.077,114.186L82.195,119.849Z" style="fill:white;fill-rule:nonzero;"/>
    <path d="M203.394,115.04C203.656,115.319 203.731,115.77 203.619,116.392C203.604,116.483 203.613,116.576 203.647,116.657L204.407,118.602C203.078,118.28 202.186,117.264 201.726,115.548C201.657,115.292 201.849,115.043 202.11,115.043L203.394,115.04Z" style="fill:white;fill-opacity:0.75;fill-rule:nonzero;"/>
    <path d="M206.701,121.981C206.803,120.604 206.403,119.474 205.498,118.593C207.212,118.812 208.643,118.608 209.791,117.983C210.317,117.697 211.363,117.015 212.923,115.942C213.001,115.884 213.1,115.86 213.2,115.869L213.341,115.884C213.461,115.896 213.5,116.053 213.401,116.122L211.886,117.174C211.871,117.183 211.859,117.192 211.847,117.204L206.701,121.981Z" style="fill:white;fill-opacity:0.65;fill-rule:nonzero;"/>
    <path d="M136.075,117.646C136.066,117.646 136.057,117.643 136.057,117.634L136.054,117.622C135.966,117.318 136.571,116.879 137.403,116.642L137.508,116.612C138.341,116.374 139.087,116.429 139.174,116.735L139.177,116.744C139.18,116.753 139.177,116.762 139.168,116.765L136.075,117.646Z" style="fill:white;fill-opacity:0.15;fill-rule:nonzero;"/>
    <path d="M138.712,118.039C138.876,117.995 139.096,118.28 139.202,118.675C139.309,119.071 139.264,119.429 139.101,119.472C138.936,119.516 138.717,119.23 138.61,118.836C138.503,118.44 138.548,118.082 138.712,118.039Z" style="fill:white;fill-opacity:0.15;fill-rule:nonzero;"/>
    <path d="M240.389,119.964C240.07,119.967 239.77,119.903 239.484,119.774C239.28,119.678 239.358,119.371 239.583,119.389C240.133,119.435 240.575,119.362 240.912,119.179L241.883,118.984C242.072,118.945 242.178,119.194 242.021,119.305C241.522,119.663 240.978,119.882 240.389,119.964Z" style="fill:white;fill-opacity:0.15;fill-rule:nonzero;"/>
    <path d="M92.611,121.503C91.243,122.958 88.294,122.882 87.831,120.553C87.756,120.177 88.168,119.894 88.489,120.099L89.515,120.742C89.653,120.829 89.815,120.877 89.98,120.877L92.343,120.877C92.668,120.877 92.833,121.265 92.611,121.503Z" style="fill:white;fill-rule:nonzero;"/>
    <path d="M254.61,122.819L254.196,123.757C251.896,125.504 249.578,127.091 247.246,128.522C246.801,128.795 245.983,129.478 244.793,130.572C243.93,131.365 243.173,132.457 242.514,133.848C242.466,133.954 242.349,134.002 242.241,133.966L242.235,133.963C242.132,133.926 242.075,133.818 242.108,133.716C242.962,131.08 245.111,129.129 247.399,127.641C249.825,126.069 252.227,124.461 254.61,122.819Z" style="fill:white;fill-opacity:0.25;fill-rule:nonzero;"/>
    <path d="M140.908,123.811L141.588,123.793C141.678,123.79 141.762,123.85 141.786,123.938C141.933,124.467 141.78,124.857 141.323,125.107C140.091,125.57 139.072,125.284 138.266,124.25C138.206,124.172 138.167,124.079 138.152,123.98C138.11,123.688 138.263,123.472 138.609,123.33C138.69,123.297 138.786,123.3 138.867,123.339C139.534,123.673 140.214,123.829 140.908,123.811Z" style="fill:white;fill-opacity:0.15;fill-rule:nonzero;"/>
    <path d="M94.73,161.068C94.73,162.971 94.486,164.822 93.996,166.617C93.639,167.936 92.893,168.823 91.76,169.277C90.413,169.593 88.853,169.749 87.077,169.74C82.099,169.71 76.961,169.175 71.662,168.132C71.575,168.114 71.494,168.186 71.5,168.276C71.638,169.969 71.869,171.514 72.194,172.911C72.492,174.198 73.411,174.571 74.605,175.286C74.818,175.415 74.99,175.596 75.107,175.812C75.729,176.957 76.048,178.097 76.06,179.236C76.063,179.6 75.582,179.732 75.398,179.416C74.923,178.596 74.445,177.444 73.655,177.478C73.55,177.484 73.453,177.541 73.399,177.631C73.114,178.109 73.054,178.551 73.222,178.956C73.718,180.15 74.406,181.361 75.293,182.594C75.528,182.921 75.35,183.384 74.956,183.471L72.582,183.992L72.44,183.895C72.359,183.841 72.266,183.808 72.167,183.805L70.817,183.76L70.838,130.187C72.894,128.17 75.338,127.283 78.173,127.521C78.314,127.533 78.452,127.479 78.549,127.376C79.535,126.339 80.052,125.071 80.097,123.568C80.103,123.529 80.136,123.505 80.193,123.493C80.235,123.484 80.277,123.493 80.313,123.517C80.974,123.944 81.705,124.208 82.505,124.31C83.169,125.023 83.83,125.723 84.491,126.405C85.508,127.455 86.157,128.69 86.442,130.115C86.46,130.202 86.533,130.271 86.623,130.283C87.365,130.385 87.798,130.187 87.918,129.685C88.27,129.929 88.691,130.127 89.184,130.283C89.671,130.443 90.816,131.693 91.249,132.381C93.434,135.85 95.334,139.145 96.131,143.026C96.188,143.314 96.203,143.87 96.176,144.691C96.173,144.775 96.137,144.856 96.08,144.919L95.536,145.506C95.522,145.522 95.51,145.538 95.498,145.555C92.46,149.649 95.004,155.433 94.733,161.015C94.731,161.032 94.73,161.05 94.73,161.068Z" style="fill:white;"/>
    <path d="M88.309,125.462C87.93,126.075 87.678,126.739 87.552,127.455C87.371,128.477 87.086,129.159 87.918,129.685C87.798,130.187 87.365,130.385 86.623,130.283C86.533,130.271 86.46,130.202 86.442,130.115C86.157,128.69 85.508,127.455 84.491,126.405C83.83,125.723 83.169,125.023 82.505,124.31L84.299,124.349C84.368,124.352 84.437,124.37 84.501,124.403C85.688,125.026 86.947,125.341 88.285,125.347C88.303,125.347 88.318,125.353 88.327,125.365C88.369,125.41 88.363,125.441 88.309,125.462Z" style="fill:white;fill-opacity:0.75;fill-rule:nonzero;"/>
    <path d="M153.822,125.413L153.894,186.225C153.17,184.857 152.623,183.414 152.256,181.893C151.814,180.06 151.492,178.857 151.285,178.283C150.924,177.276 150.224,175.653 149.181,173.416L149.208,137.044C149.208,136.942 149.088,136.89 149.012,136.96L148.91,137.053L149.19,135.433C151.044,132.015 152.214,129.303 153.822,125.413Z" style="fill:white;fill-opacity:0.5;fill-rule:nonzero;"/>
    <path d="M199.405,144.117C198.134,146.982 197.385,149.915 197.16,152.918C196.868,156.823 196.97,160.722 197.463,164.609C197.478,164.726 197.514,164.813 197.565,164.87C197.629,164.939 197.707,164.994 197.806,165.039C197.755,165.03 197.704,165.042 197.656,165.072C197.565,165.126 197.523,165.231 197.55,165.33L198.705,169.638C198.768,169.878 198.936,170.077 199.162,170.179C200.815,170.921 201.915,172.376 202.844,173.951C202.898,174.045 202.904,174.156 202.859,174.255C202.754,174.478 202.546,174.595 202.234,174.607C202.138,174.61 202.044,174.58 201.969,174.52C201.455,174.102 200.89,173.828 200.28,173.696C200.169,173.672 200.051,173.693 199.955,173.756C198.642,174.604 201.073,178.097 201.672,178.95C201.735,179.041 201.765,179.152 201.753,179.263C201.714,179.642 201.485,179.9 201.064,180.036C199.637,180.502 198.224,180.619 196.826,180.39C194.322,179.344 194.755,175.229 194.824,173.098C194.854,172.112 194.49,170.726 193.955,169.674C193.477,168.739 192.63,167.029 191.412,164.543C190.904,163.509 190.3,161.705 189.593,159.135C189.091,157.292 189.371,155.462 189.137,153.417C188.635,149.092 188.788,144.796 189.596,140.531C189.69,140.041 189.678,139.5 189.72,138.989C189.813,139.085 190.071,139.139 190.498,139.154C190.564,139.157 190.628,139.184 190.676,139.229C192.621,141.042 195.822,141.439 198.353,141.18C199.243,141.087 199.838,140.819 200.538,140.675C200.616,140.657 200.683,140.735 200.656,140.81L199.405,144.117Z" style="fill:white;fill-opacity:0.7;fill-rule:nonzero;"/>
    <path d="M229.952,139.052C230.286,140.558 230.782,141.941 231.443,143.203C231.218,145.376 230.98,147.592 230.725,149.855C230.601,150.968 230.574,152.083 230.649,153.201C230.755,154.809 230.851,156.363 230.938,157.869C230.625,158.449 230.235,159.423 229.763,160.791C228.762,163.692 227.166,166.584 224.968,169.46C225.034,167.765 224.917,166.169 224.619,164.672L224.577,141.273C224.574,141.102 224.704,140.958 224.875,140.94C226.618,140.756 228.311,140.128 229.952,139.052Z" style="fill:white;fill-opacity:0.7;fill-rule:nonzero;"/>
    <path d="M256.462,143.858C255.99,144.7 255.69,145.587 255.557,146.519C255.542,146.612 255.518,146.705 255.485,146.795C254.49,149.465 253.654,152.149 252.981,154.845L251.391,154.821C251.132,154.815 250.934,154.587 250.967,154.331C250.994,154.115 251.048,153.898 251.129,153.685C252.641,149.684 253.715,147.042 254.352,145.758C254.385,145.695 254.758,144.968 255.473,143.576C255.596,143.335 255.918,143.29 256.104,143.486L256.462,143.858Z" style="fill:white;fill-rule:nonzero;"/>
    <path d="M199.405,144.117C199.76,151.04 199.688,157.761 199.192,164.278C199.177,164.474 199.33,164.639 199.525,164.639L224.619,164.672C224.917,166.169 225.034,167.765 224.968,169.46C224.968,169.46 226.143,184.076 226.243,184.932C226.375,186.033 226.372,187.067 226.402,188.134C226.423,188.882 226.597,190.16 226.477,191.224C226.213,189.619 225.69,187.809 225.431,186.493C225.191,185.287 224.983,184.178 224.812,183.165C224.126,179.152 223.444,175.178 222.762,171.246C222.458,169.494 222.188,167.979 221.953,166.704C221.932,166.584 221.821,166.503 221.701,166.521C220.522,166.677 219.32,166.767 218.093,166.788C211.273,166.908 204.512,166.325 197.806,165.039C197.707,164.994 197.629,164.939 197.565,164.87C197.514,164.813 197.478,164.726 197.463,164.609C196.97,160.722 196.868,156.823 197.16,152.918C197.385,149.915 198.134,146.982 199.405,144.117Z" style="fill:white;fill-opacity:0.5;fill-rule:nonzero;"/>
    <path d="M42.185,159.246C42.188,159.081 42.176,158.967 42.146,158.897C42.107,158.807 41.984,158.801 41.938,158.888C41.16,160.382 39.762,161.233 38.049,161.194C36.924,161.167 35.869,160.581 34.883,159.435C34.835,159.378 34.745,159.378 34.697,159.435C34.646,159.499 34.661,159.652 34.748,159.895C34.36,159.273 34.174,158.663 34.186,158.065C34.198,157.394 34.297,156.234 34.577,155.51C35.893,152.092 40.348,152.047 41.996,155.173C42.059,155.296 42.185,155.371 42.323,155.371C44.89,155.38 47.725,155.362 50.83,155.314C51.446,155.305 51.804,155.624 51.909,156.273C52.06,157.208 52.006,158.555 50.809,158.567C47.932,158.594 45.2,158.603 42.609,158.594C42.513,158.591 42.422,158.642 42.371,158.726C42.281,158.873 42.218,159.045 42.185,159.246ZM35.656,157.139C35.689,158.182 36.095,158.921 36.952,159.475C38.007,160.16 39.636,159.811 40.457,158.93C40.574,158.804 40.469,158.597 40.297,158.621C40.111,158.648 39.588,158.69 38.731,158.753C37.3,158.858 36.852,158.459 36.807,157.1C36.762,155.744 37.183,155.314 38.617,155.323C39.477,155.326 40,155.338 40.189,155.35C40.36,155.362 40.454,155.149 40.324,155.032C39.446,154.208 37.799,153.968 36.792,154.722C35.975,155.332 35.62,156.096 35.656,157.139Z" style="fill:white;fill-opacity:0.4;fill-rule:nonzero;"/>
    <path d="M36.807,157.1C36.852,158.459 37.3,158.858 38.731,158.753C39.588,158.69 40.111,158.648 40.297,158.621C40.469,158.597 40.574,158.804 40.457,158.93C39.636,159.811 38.007,160.16 36.952,159.475C36.095,158.921 35.689,158.182 35.656,157.139C35.62,156.096 35.975,155.332 36.792,154.722C37.799,153.968 39.446,154.208 40.324,155.032C40.454,155.149 40.36,155.362 40.189,155.35C40,155.338 39.477,155.326 38.617,155.323C37.183,155.314 36.762,155.744 36.807,157.1Z" style="fill:white;fill-opacity:0.15;fill-rule:nonzero;"/>
    <path d="M42.185,159.246C41.842,160.061 41.292,160.731 40.535,161.257C38.521,162.658 36.05,161.798 34.748,159.895C34.661,159.652 34.646,159.499 34.697,159.435C34.745,159.378 34.835,159.378 34.883,159.435C35.869,160.581 36.924,161.167 38.049,161.194C39.762,161.233 41.16,160.382 41.938,158.888C41.984,158.801 42.107,158.807 42.146,158.897C42.176,158.967 42.188,159.081 42.185,159.246Z" style="fill:white;fill-opacity:0.15;fill-rule:nonzero;"/>
    <path d="M233.349,176.588C232.594,175.683 231.825,174.763 231.037,173.822C230.205,172.827 230.024,171.583 230.496,170.089C231.064,168.294 231.497,166.467 231.801,164.606C232.519,164.302 233.283,164.356 234.085,164.771C234.804,165.138 235.023,166.845 234.942,167.54C234.879,168.102 234.798,168.568 234.705,168.937C234.635,169.214 234.632,169.503 234.696,169.779C234.927,170.792 235.053,171.321 235.068,171.369C235.243,171.898 235.14,172.259 234.762,172.454C234.392,172.65 234.07,172.668 233.8,172.512C233.595,172.394 233.334,172.545 233.295,172.8C233.147,173.783 233.619,174.357 234.227,175.518C234.434,175.917 234.446,176.203 234.26,176.377C234.082,176.543 233.779,176.612 233.349,176.588ZM233.229,173.347L233.03,170.873C233.027,170.849 233.006,170.831 232.985,170.834L232.973,170.834C232.769,170.852 232.648,171.378 232.7,172.013L232.721,172.274C232.772,172.908 232.976,173.41 233.178,173.392L233.19,173.392C233.214,173.392 233.232,173.371 233.229,173.347Z" style="fill:white;fill-opacity:0.75;fill-rule:nonzero;"/>
    <path d="M197.806,165.039C204.512,166.325 211.273,166.908 218.093,166.788C219.32,166.767 220.522,166.677 221.701,166.521C221.821,166.503 221.932,166.584 221.953,166.704C222.188,167.979 222.458,169.494 222.762,171.246C223.444,175.178 224.126,179.152 224.812,183.165C224.983,184.178 225.191,185.287 225.431,186.493C225.69,187.809 226.213,189.619 226.477,191.224L227.457,198.631C227.472,198.766 227.409,198.898 227.292,198.967L225.759,199.872C225.726,199.935 225.69,199.98 225.657,200.008C225.641,200.02 225.578,199.971 225.515,199.899C225.491,199.872 225.446,199.863 225.377,199.878C222.5,200.434 219.726,200.597 217.047,200.365L216.1,199.914C215.77,199.758 215.538,199.442 215.487,199.082L211.817,173.035C211.784,172.785 211.57,172.602 211.318,172.602L209.767,172.602C209.638,172.602 209.526,172.695 209.508,172.824C209.211,174.835 209.072,176.633 209.096,178.211C209.114,179.374 209.054,180.52 208.919,181.647C208.655,183.823 208.883,186.123 208.561,188.299C208.447,189.06 208.402,190.136 208.423,191.525C208.438,192.417 208.372,193.605 208.219,195.084C208.065,196.566 208.011,198.111 208.053,199.719C208.068,200.26 207.735,200.741 207.242,200.894C207.149,200.924 207.013,201.057 206.836,201.288C206.105,201.568 205.447,201.733 204.864,201.79C202.802,201.991 200.084,202.034 198.043,201.21C197.544,200.912 197.286,200.609 197.265,200.305C196.868,194.236 196.934,188.113 196.961,182.035C196.964,181.533 196.856,180.943 196.826,180.39C198.224,180.619 199.637,180.502 201.064,180.036C201.485,179.9 201.714,179.642 201.753,179.263C201.765,179.152 201.735,179.041 201.672,178.95C201.073,178.097 198.642,174.604 199.955,173.756C200.051,173.693 200.169,173.672 200.28,173.696C200.89,173.828 201.455,174.102 201.969,174.52C202.044,174.58 202.138,174.61 202.234,174.607C202.546,174.595 202.754,174.478 202.859,174.255C202.904,174.156 202.898,174.045 202.844,173.951C201.915,172.376 200.815,170.921 199.162,170.179C198.936,170.077 198.768,169.878 198.705,169.638L197.55,165.33C197.523,165.231 197.565,165.126 197.656,165.072C197.704,165.042 197.755,165.03 197.806,165.039Z" style="fill:white;fill-rule:nonzero;"/>
    <path d="M144.524,165.108L149.181,173.416C150.224,175.653 150.924,177.276 151.285,178.283C151.492,178.857 151.814,180.06 152.256,181.893C152.623,183.414 153.17,184.857 153.894,186.225C153.843,186.703 153.873,187.115 153.981,187.463C154.438,188.939 156.004,195.06 156.374,196.055C156.407,196.148 156.425,196.247 156.425,196.349L156.374,199.995C156.374,200.074 156.362,200.149 156.338,200.221C155.803,201.835 154.991,203.236 153.906,204.426L150.981,207.063C150.75,207.27 150.506,207.462 150.251,207.637L148.715,208.683L148.357,208.929C148.315,208.668 148.318,208.4 148.369,208.121C149.03,204.547 149.463,202.274 149.665,201.306C150.11,199.199 150.068,197.513 149.731,195.694C148.423,188.705 146.343,182.11 144.11,175.337C143.496,173.474 142.67,171.499 142.111,169.391C142.081,169.28 141.978,169.205 141.864,169.208C136.841,169.373 132.194,168.219 127.916,165.742C127.871,165.715 127.823,165.712 127.775,165.739L127.568,165.414C127.625,165.411 127.676,165.393 127.718,165.363C127.748,165.339 127.787,165.333 127.826,165.345C129.104,165.763 130.489,166.085 131.977,166.31C132.377,166.37 132.684,166.355 132.9,166.265C133.231,166.127 133.718,166.307 134.166,166.286C135.927,166.208 138.089,166.082 140.647,165.907C140.827,165.895 141.007,165.856 141.179,165.793C141.969,165.508 142.739,165.568 143.578,165.318C143.902,165.222 144.218,165.153 144.524,165.108Z" style="fill:white;fill-opacity:0.5;fill-rule:nonzero;"/>
    <path d="M36.347,167.314L65.118,165.174C65.208,165.168 65.286,165.24 65.286,165.33L65.286,228.048C65.286,228.114 65.241,228.177 65.175,228.195L36.404,237.066C36.305,237.099 36.203,237.023 36.203,236.918L36.203,167.471C36.203,167.389 36.266,167.32 36.347,167.314Z" style="fill:white;fill-opacity:0.5;fill-rule:nonzero;"/>
    <path d="M148.369,208.121C148.318,208.4 144.446,228.048 144.335,228.069C143.899,228.144 143.538,228.084 143.247,227.888C142.498,227.666 138.077,227.299 137.003,227.332C135.948,227.564 135.729,226.944 136.342,225.474C136.357,225.441 136.366,225.402 136.369,225.363L136.811,221.013C136.814,220.971 136.823,220.932 136.838,220.893C137.1,220.097 137.187,219.228 137.1,218.284L139.066,202.725L139.318,202.247C139.36,202.169 139.366,202.073 139.33,201.991C137.415,197.549 136.468,195.159 134.205,191.519C132.458,188.708 130.814,186.021 129.867,182.936C128.241,177.634 127.33,172.256 127.55,166.782C127.562,166.482 127.637,166.133 127.775,165.739C127.823,165.712 127.871,165.715 127.916,165.742C132.194,168.219 136.841,169.373 141.864,169.208C141.978,169.205 142.081,169.28 142.111,169.391C142.67,171.499 143.496,173.474 144.11,175.337C146.343,182.11 148.423,188.705 149.731,195.694C150.068,197.513 150.11,199.199 149.665,201.306C149.463,202.274 149.03,204.547 148.369,208.121Z" style="fill:white;fill-rule:nonzero;"/>
    <path d="M261.031,167.561C261.028,167.66 260.989,167.783 260.914,167.927C260.872,168.009 260.866,168.102 260.896,168.189C261.503,169.899 261.9,171.075 262.086,171.718C262.51,173.17 262.155,174.541 261.022,175.824C260.749,176.134 260.565,176.549 260.475,177.066C260.153,177.496 259.826,177.838 259.489,178.091C258.852,178.572 258.248,178.334 258.037,177.658C258.001,177.553 258.01,177.435 258.058,177.336C258.473,176.483 259.384,175.247 259.651,174.153C259.742,173.78 259.784,173.197 259.778,172.4C259.775,172.217 259.531,172.16 259.447,172.322C259.143,172.911 258.84,174.628 257.704,173.939C257.343,173.723 257.156,173.314 257.232,172.917C257.4,172.046 257.514,171.348 257.574,170.825C257.595,170.654 257.574,170.477 257.517,170.311C257.021,168.886 257,167.495 257.457,166.133C257.517,165.958 257.67,165.835 257.854,165.814C259.276,165.667 260.334,166.25 261.031,167.561Z" style="fill:white;fill-opacity:0.75;fill-rule:nonzero;"/>
    <path d="M87.077,169.74L90.473,176.786C95.521,186.995 99.552,195.069 102.564,201.006C103.126,202.109 103.459,202.929 103.667,204.198C104.003,206.233 104.316,208.262 104.602,210.285C105.558,217.031 106.519,223.776 107.487,230.524C107.502,230.936 107.56,231.36 107.653,231.793C107.758,232.265 107.653,232.569 107.337,232.704C104.599,233.603 102.389,234.372 100.709,235.006C100.634,235.033 100.586,235.112 100.565,235.235C100.117,234.829 99.627,235.346 99.131,235.373C98.971,235.382 98.827,235.277 98.788,235.124L97.598,230.663C95.806,224.095 94.057,217.659 92.349,211.355C92.112,210.486 91.604,209.546 90.819,208.533C89.65,207.021 88.492,205.499 87.347,203.966C87.074,203.603 86.731,203.215 86.316,202.806C82.547,197.852 78.801,192.808 75.08,187.674C74.839,187.34 74.623,186.985 74.433,186.61L72.582,183.992L74.956,183.471C75.35,183.384 75.528,182.921 75.293,182.594C74.406,181.361 73.718,180.15 73.222,178.956C73.054,178.551 73.114,178.109 73.399,177.631C73.453,177.541 73.55,177.484 73.655,177.478C74.445,177.444 74.923,178.596 75.398,179.416C75.582,179.732 76.063,179.6 76.06,179.236C76.048,178.097 75.729,176.957 75.107,175.812C74.99,175.596 74.818,175.415 74.605,175.286C73.411,174.571 72.492,174.198 72.194,172.911C71.869,171.514 71.638,169.969 71.5,168.276C71.491,168.186 71.575,168.114 71.662,168.132C76.961,169.175 82.099,169.71 87.077,169.74Z" style="fill:white;fill-opacity:0.75;fill-rule:nonzero;"/>
    <path d="M91.76,169.277L91.159,173.359C91.15,173.422 91.123,173.48 91.081,173.528C91.048,173.567 91.018,173.618 90.984,173.675C90.948,173.741 90.933,173.801 90.942,173.858C90.993,174.192 90.975,174.505 90.891,174.802C90.798,175.13 90.744,175.457 90.729,175.791C90.714,176.161 90.627,176.495 90.473,176.786L87.077,169.74C88.853,169.749 90.413,169.593 91.76,169.277Z" style="fill:white;fill-opacity:0.5;fill-rule:nonzero;"/>
    <path d="M86.316,202.806C85.808,204.168 85.495,205.587 85.375,207.057C85.363,207.198 85.303,207.33 85.204,207.429L84.065,208.581C83.1,205.767 82.003,203.062 80.779,200.461C78.915,196.509 76.763,192.595 74.325,188.72L74.433,186.61C74.623,186.985 74.839,187.34 75.08,187.674C78.801,192.808 82.547,197.852 86.316,202.806Z" style="fill:white;fill-opacity:0.5;fill-rule:nonzero;"/>
    <path d="M225.759,199.872C226.168,203.789 225.765,207.901 225.744,211.629C225.744,211.77 225.714,211.914 225.654,212.044C225.491,212.395 225.611,213.033 225.557,213.456C225.332,215.248 225.494,217.052 225.257,218.852C225.152,219.634 225.094,220.686 225.085,222.005C225.082,222.814 225.004,224.224 224.857,226.229C224.752,227.675 224.71,229.16 224.734,230.684C224.725,231.309 224.719,231.973 224.719,232.677C224.719,232.812 224.665,233.314 224.559,234.183C224.493,234.727 224.553,235.229 224.737,235.683C223.351,236.191 221.965,236.311 220.579,236.05C219.807,235.905 219.067,235.52 218.361,234.892C218.974,234.474 218.656,233.891 218.49,233.365C218.472,233.308 218.463,233.251 218.46,233.194L218.367,230.687C217.928,225.646 217.48,220.578 217.023,215.479C216.936,214.484 216.888,213.976 216.885,213.955C216.614,211.977 216.675,209.984 216.702,207.658C216.705,207.279 216.804,206.137 216.993,204.228C217.116,202.962 217.134,201.676 217.047,200.365C219.726,200.597 222.5,200.434 225.377,199.878C225.446,199.863 225.491,199.872 225.515,199.899C225.578,199.971 225.641,200.02 225.657,200.008C225.69,199.98 225.726,199.935 225.759,199.872Z" style="fill:white;fill-opacity:0.75;fill-rule:nonzero;"/>
    <path d="M206.836,201.288C206.956,203.476 207.118,205.653 207.326,207.814C207.341,207.955 207.353,209.089 207.362,211.214C207.371,212.813 206.95,214.223 207.004,215.918C207.01,216.132 206.989,216.345 206.944,216.553C206.601,218.107 206.746,219.691 206.454,221.323C206.358,221.873 206.319,222.769 206.334,224.01C206.337,224.224 206.316,224.437 206.268,224.642C206.033,225.649 205.946,226.752 206.006,227.954C206.015,228.129 205.994,228.3 205.94,228.468C205.751,229.058 205.661,229.785 205.667,230.648L205.631,232.439C205.628,232.514 205.615,232.587 205.594,232.659C205.279,233.642 205.174,234.655 205.285,235.698C205.294,235.785 205.363,235.887 205.492,236.007C203.268,236.99 201.212,236.834 199.327,235.539L199.351,230.618C199.339,228.408 199.059,225.952 199.026,224.056C198.999,222.676 198.948,221.57 198.87,220.737C198.63,218.227 198.66,216.348 198.452,213.823C198.377,212.888 198.32,211.689 198.284,210.219C198.224,207.82 198.1,205.346 197.917,202.8C197.878,202.259 197.92,201.73 198.043,201.21C200.084,202.034 202.802,201.991 204.864,201.79C205.447,201.733 206.105,201.568 206.836,201.288Z" style="fill:white;fill-opacity:0.75;fill-rule:nonzero;"/>
    <path d="M126.67,217.251C126.202,216.544 125.868,216.033 125.815,215.927C125.776,215.852 125.803,215.759 125.872,215.711C125.971,215.642 139.066,202.725 139.066,202.725L137.1,218.284C136.775,218.567 131.142,223.055 130.694,223.316C130.613,223.361 130.51,223.322 130.48,223.235C130.395,222.982 129.839,222.085 129.139,221.001C128.343,219.769 127.361,218.296 126.67,217.251Z" style="fill:white;fill-opacity:0.5;"/>
    <path d="M153.906,204.426L153.909,230.696L153.909,236.284C153.909,236.395 153.81,236.482 153.699,236.467C153.293,236.41 152.887,236.446 152.475,236.576L148.727,234.438L149.042,234.414C149.136,234.408 149.208,234.33 149.208,234.237L149.199,230.654C149.205,223.493 149.202,216.342 149.19,209.203C149.19,209.056 149.166,208.911 149.118,208.77C149.079,208.647 148.943,208.617 148.715,208.683L150.251,207.637C150.506,207.462 150.75,207.27 150.981,207.063L153.906,204.426Z" style="fill:white;fill-opacity:0.5;fill-rule:nonzero;"/>
    <path d="M129.139,221.001L129.29,221.371C128.968,221.663 128.653,221.921 128.343,222.144C127.922,222.444 128.593,228.363 128.794,229.196C128.015,229.716 127.297,229.626 126.636,228.925C125.863,228.105 124.078,221.269 123.885,220.8C123.831,220.668 123.564,218.945 123.687,218.864C123.996,218.509 124.387,218.314 124.853,218.278C124.913,218.272 124.973,218.248 125.021,218.212L126.32,217.208L126.645,217.247C126.653,217.248 126.662,217.25 126.67,217.251C127.361,218.296 128.343,219.769 129.139,221.001Z" style="fill:white;fill-opacity:0.75;"/>
    <path d="M123.687,218.864C123.564,218.945 123.831,220.668 123.885,220.8C124.078,221.269 125.863,228.105 126.636,228.925C127.297,229.626 128.015,229.716 128.794,229.196L129.119,230.816L129.774,234.477C129.792,234.583 129.786,234.691 129.756,234.793C129.515,235.59 128.587,236.203 127.865,235.457C127.435,235.009 127.023,234.492 126.627,233.903C125.779,232.638 125.046,231.522 124.423,230.564C123.609,229.286 120.621,224.404 119.755,223.331C119.692,223.253 119.647,223.166 119.617,223.076C119.505,222.718 119.409,222.477 119.334,222.354C119.04,221.861 119.112,221.233 119.511,220.821C120.591,219.715 121.886,218.93 123.398,218.467C123.476,218.443 123.555,218.497 123.561,218.579C123.576,218.744 123.618,218.837 123.687,218.864Z" style="fill:white;fill-rule:nonzero;"/>
    <path d="M141.494,233.714L136.61,231.24C136.525,231.195 136.429,231.168 136.333,231.159L136.038,231.126C136.06,231.039 136.138,230.924 136.276,230.786C136.294,230.819 136.958,229.722 136.967,229.418C136.982,228.748 136.994,228.054 137.003,227.332C138.077,227.299 142.498,227.666 143.247,227.888L142.525,227.87C142.291,227.864 142.099,228.054 142.099,228.288L142.099,229.824C142.099,229.929 142.15,230.025 142.237,230.083L143.163,230.69L147.461,233.738C147.473,233.747 147.488,233.756 147.503,233.762L148.195,234.051L147.963,234.069C147.876,234.078 147.804,234.132 147.768,234.21C147.5,234.784 147.11,235.16 146.599,235.337C146.496,235.373 146.391,235.385 146.283,235.376C145.829,235.34 145.366,235.334 144.897,235.358C144.536,235.373 144.001,235.142 143.295,234.658L141.672,233.75L141.494,233.714Z" style="fill:white;fill-opacity:0.75;"/>
    <path d="M266.003,230.236C266.024,230.521 266.325,230.687 266.905,230.732C266.998,230.738 267.088,230.768 267.166,230.819L295.733,248.774C295.835,248.837 295.79,248.996 295.669,248.996C210.936,248.978 126.185,248.969 41.415,248.972C40.959,248.972 40.538,248.819 40.153,248.512L66.113,238.953C66.182,238.929 66.251,238.914 66.326,238.911L67.691,238.848C67.784,238.845 67.874,238.821 67.958,238.779C68.172,238.671 68.349,238.517 68.485,238.316C68.854,237.775 70.12,237.507 70.661,237.429C70.751,237.417 70.817,237.339 70.817,237.249L70.817,230.491C70.868,230.705 71.136,230.789 71.626,230.738C72.086,230.693 72.389,230.669 72.537,230.672C80.86,230.699 89.214,230.696 97.598,230.663L98.788,235.124C98.827,235.277 98.971,235.382 99.131,235.373C99.627,235.346 100.117,234.829 100.565,235.235C100.685,235.454 100.742,235.608 100.739,235.695C100.688,237.008 100.724,238.115 100.847,239.01C100.937,239.657 101.25,240.072 101.788,240.255C102.062,240.348 102.597,240.303 103.396,240.114C106.832,239.305 111.311,238.283 116.839,237.051C118.273,236.732 119.163,235.196 117.537,234.183C117.503,234.162 117.464,234.147 117.428,234.144L107.337,232.704C107.653,232.569 107.758,232.265 107.653,231.793C107.56,231.36 107.502,230.936 107.487,230.524C107.917,230.573 108.353,230.603 108.792,230.615C113.914,230.744 119.124,230.729 124.423,230.564C125.046,231.522 125.779,232.638 126.627,233.903C127.023,234.492 127.435,235.009 127.865,235.457C128.587,236.203 129.515,235.59 129.756,234.793C129.786,234.691 129.792,234.583 129.774,234.477L129.119,230.816C131.496,230.642 133.883,230.633 136.276,230.786C136.138,230.924 136.06,231.039 136.038,231.126C135.452,232.632 135.215,234.114 135.332,235.578C135.365,236.01 135.645,236.386 136.05,236.543C136.943,236.888 146.337,238.166 150.527,238.656C151.222,238.737 151.856,238.674 152.433,238.469C152.526,238.436 152.608,238.373 152.659,238.289C153.01,237.712 152.947,237.141 152.475,236.576C152.887,236.446 153.293,236.41 153.699,236.467C153.81,236.482 153.909,236.395 153.909,236.284L153.909,230.696C168.651,230.684 183.368,230.681 198.058,230.687C198.212,230.687 198.437,230.711 198.735,230.759C199.107,230.816 199.312,230.771 199.351,230.618L199.327,235.539C198.317,235.427 197.34,235.659 196.396,236.233C194.051,237.655 192.085,238.731 190.495,239.464C189.927,239.726 189.53,240.063 189.182,240.393C189.019,240.55 188.953,240.781 189.013,241L189.356,242.284C189.416,242.509 189.633,242.657 189.864,242.633C190.688,242.549 191.872,242.263 192.84,242.284C194.583,242.323 196.068,242.239 197.292,242.031C197.701,241.962 198.112,241.935 198.524,241.944C199.982,241.983 201.287,241.923 202.438,241.758C203.935,241.545 205.39,241.635 206.752,241.554C207.777,241.493 208.303,240.94 208.333,239.897C208.336,239.837 208.327,239.78 208.312,239.723L207.254,235.893C207.137,235.472 206.61,235.331 206.301,235.638C206.063,235.875 205.793,235.998 205.492,236.007C205.363,235.887 205.294,235.785 205.285,235.698C205.174,234.655 205.279,233.642 205.594,232.659C205.615,232.587 205.628,232.514 205.631,232.439L205.667,230.648L218.367,230.687L218.46,233.194C218.463,233.251 218.472,233.308 218.49,233.365C218.656,233.891 218.974,234.474 218.361,234.892C217.937,235.109 217.679,235.385 217.588,235.719C217.192,237.21 216.918,238.259 216.771,238.869C216.602,239.558 216.705,240.168 217.077,240.706C217.141,240.796 217.237,240.859 217.345,240.88C218.622,241.13 219.347,241.25 219.524,241.247C221.334,241.208 222.645,241.247 223.453,241.364C224.656,241.538 225.747,241.614 226.727,241.593C227.812,241.566 229.378,241.698 231.425,241.986C231.548,242.004 231.657,242.071 231.726,242.173C232.053,242.651 232.546,242.855 233.199,242.783C234.284,242.666 235.603,242.627 236.887,242.446C238.3,242.248 239.571,242.089 240.699,241.965C241.456,241.884 242.039,241.806 242.445,241.725C243.62,241.49 244.654,241.746 245.782,241.187C246.028,241.064 246.197,240.829 246.23,240.556C246.347,239.624 246.188,238.535 245.758,237.288C245.664,237.02 245.496,236.918 245.256,236.987C245.232,236.993 245.132,236.966 244.958,236.906C244.859,236.87 244.778,236.801 244.733,236.708C244.48,236.2 244.408,235.746 244.519,235.352C244.757,234.501 245.021,233.443 245.319,232.184C245.406,231.808 245.574,231.504 245.824,231.27C245.914,231.186 246.028,231.141 246.148,231.141L251.908,231.141C252.145,231.141 252.341,231.327 252.35,231.565L252.47,234.531C252.479,234.724 252.44,234.916 252.362,235.094L251.55,236.897C251.526,236.951 251.508,237.008 251.499,237.066C251.415,237.544 251.289,238.199 251.117,239.028C250.835,240.396 251.737,240.874 252.915,240.916C253.582,240.937 254.126,240.982 254.881,241.094C258.046,241.569 260.376,241.863 261.876,241.974C262.838,242.047 263.728,242.338 264.705,242.299C264.789,242.296 264.87,242.266 264.936,242.212L265.45,241.788C265.778,241.517 265.739,241.006 265.372,240.793C264.401,240.231 263.424,239.69 262.441,239.173C260.18,237.988 258.903,237.09 256.766,235.623C256.54,235.466 256.405,235.211 256.405,234.937L256.405,231.297C256.405,231.213 256.468,231.141 256.552,231.135L266.003,230.236Z" style="fill:white;fill-opacity:0.15;fill-rule:nonzero;"/>
    <path d="M224.737,235.683C224.553,235.229 224.493,234.727 224.559,234.183C224.665,233.314 224.719,232.812 224.719,232.677C224.719,231.973 224.725,231.309 224.734,230.684C228.224,230.666 231.72,230.66 235.219,230.663C235.724,230.663 235.934,230.588 235.85,230.44C237.554,230.93 239.292,231.177 241.065,231.177C241.282,231.177 241.441,231.378 241.393,231.589C240.999,233.308 240.777,234.072 240.626,235.181C240.527,235.917 240.206,236.485 239.662,236.888C238.45,237.787 237.1,238.641 235.618,239.443C235.528,239.491 235.423,239.497 235.33,239.455C233.616,238.677 231.488,237.541 228.945,236.047C228.251,235.638 227.412,235.298 226.426,235.024C226.291,234.985 226.147,235.009 226.029,235.091C225.623,235.364 225.191,235.563 224.737,235.683Z" style="fill:white;fill-opacity:0.15;fill-rule:nonzero;"/>
    <path d="M149.199,230.654L149.208,234.237C149.208,234.33 149.136,234.408 149.042,234.414L148.727,234.438L148.195,234.051L147.503,233.762C147.488,233.756 147.473,233.747 147.461,233.738L143.163,230.69L149.199,230.654Z" style="fill:white;fill-opacity:0.25;fill-rule:nonzero;"/>
    <path d="M141.494,233.714L141.672,233.75L143.295,234.658C144.001,235.142 144.536,235.373 144.897,235.358C145.366,235.334 145.829,235.34 146.283,235.376C146.391,235.385 146.496,235.373 146.599,235.337C147.11,235.16 147.5,234.784 147.768,234.21C147.804,234.132 147.876,234.078 147.963,234.069L148.195,234.051L148.727,234.438L152.475,236.576C152.947,237.141 153.01,237.712 152.659,238.289C152.608,238.373 152.526,238.436 152.433,238.469C151.856,238.674 151.222,238.737 150.527,238.656C146.337,238.166 136.943,236.888 136.05,236.543C135.645,236.386 135.365,236.01 135.332,235.578C135.215,234.114 135.452,232.632 136.038,231.126L136.333,231.159C136.429,231.168 136.525,231.195 136.61,231.24L141.494,233.714Z" style="fill:white;fill-rule:nonzero;"/>
    <path d="M107.337,232.704L117.428,234.144C117.464,234.147 117.503,234.162 117.537,234.183C119.163,235.196 118.273,236.732 116.839,237.051C111.311,238.283 106.832,239.305 103.396,240.114C102.597,240.303 102.062,240.348 101.788,240.255C101.25,240.072 100.937,239.657 100.847,239.01C100.724,238.115 100.688,237.008 100.739,235.695C100.742,235.608 100.685,235.454 100.565,235.235C100.586,235.112 100.634,235.033 100.709,235.006C102.389,234.372 104.599,233.603 107.337,232.704Z" style="fill:white;fill-rule:nonzero;"/>
    <path d="M199.327,235.539C201.212,236.834 203.268,236.99 205.492,236.007C205.793,235.998 206.063,235.875 206.301,235.638C206.61,235.331 207.137,235.472 207.254,235.893L208.312,239.723C208.327,239.78 208.336,239.837 208.333,239.897C208.303,240.94 207.777,241.493 206.752,241.554C205.39,241.635 203.935,241.545 202.438,241.758C201.287,241.923 199.982,241.983 198.524,241.944C198.112,241.935 197.701,241.962 197.292,242.031C196.068,242.239 194.583,242.323 192.84,242.284C191.872,242.263 190.688,242.549 189.864,242.633C189.633,242.657 189.416,242.509 189.356,242.284L189.013,241C188.953,240.781 189.019,240.55 189.182,240.393C189.53,240.063 189.927,239.726 190.495,239.464C192.085,238.731 194.051,237.655 196.396,236.233C197.34,235.659 198.317,235.427 199.327,235.539Z" style="fill:white;fill-rule:nonzero;"/>
    <path d="M99.409,161.037L94.73,161.068C94.73,161.05 94.731,161.032 94.733,161.015C94.764,160.701 95.078,160.487 95.388,160.584C95.815,160.716 96.062,160.782 96.125,160.782C97.247,160.793 98.228,161.004 99.409,161.037Z" style="fill:white;fill-opacity:0.19;"/>
    <path d="M94.733,161.015C95.004,155.433 92.46,149.649 95.498,145.555C95.449,145.636 95.433,145.733 95.457,145.824C95.493,145.954 95.815,147.947 96.419,151.797C96.549,152.621 96.431,153.183 97.291,153.652C100.474,155.392 103.847,156.502 107.409,156.983C107.533,157.001 107.656,156.959 107.74,156.871L108.272,156.342C108.368,156.246 108.485,156.171 108.612,156.126C109.709,155.741 110.83,155.449 111.972,155.251C112.234,155.206 112.477,155.203 112.709,155.239C113.024,155.29 113.109,155.708 112.835,155.876C112.014,156.384 111.398,156.895 110.983,157.403C110.911,157.491 110.899,157.614 110.953,157.713C111.173,158.122 111.362,158.356 111.528,158.416C112.985,158.942 114.491,158.711 116.037,158.498C116.244,158.471 116.367,158.462 116.4,158.477C116.671,158.585 116.821,158.873 116.758,159.156C116.478,160.403 115.991,161.573 115.297,162.658C115.093,162.98 114.705,163.331 114.131,163.713C114.05,163.767 113.959,163.8 113.863,163.815C110.971,164.23 108.44,161.84 106.12,161.107C105.975,161.062 105.822,161.038 105.666,161.038C104.596,161.029 102.618,161.032 99.732,161.041C99.623,161.041 99.515,161.039 99.409,161.037C98.228,161.004 97.247,160.793 96.125,160.782C96.062,160.782 95.815,160.716 95.388,160.584C95.078,160.487 94.764,160.701 94.733,161.015Z" style="fill:white;fill-opacity:0.85;"/>
</svg>
