<?xml version="1.0" encoding="UTF-8" standalone="no"?>
<!DOCTYPE svg PUBLIC "-//W3C//DTD SVG 1.1//EN" "http://www.w3.org/Graphics/SVG/1.1/DTD/svg11.dtd">
<svg width="100%" height="100%" viewBox="0 0 300 300" version="1.1" xmlns="http://www.w3.org/2000/svg" xmlns:xlink="http://www.w3.org/1999/xlink" xml:space="preserve" xmlns:serif="http://www.serif.com/" style="fill-rule:evenodd;clip-rule:evenodd;stroke-linejoin:round;stroke-miterlimit:2;">
    <path d="M98.479,82.24C98.554,81.112 98.636,80.143 98.73,79.322C98.827,78.465 98.707,77.068 98.374,75.132C97.996,72.967 97.486,70.866 96.842,68.825C96.561,67.934 95.771,68.095 95.071,68.47C93.468,69.331 91.749,69.612 89.91,69.312C87.083,68.578 84.151,67.002 81.878,66.099C79.578,65.189 75.343,64.811 73.481,66.942C71.268,69.477 69.969,72.379 68.527,75.634C68.298,76.147 67.819,76.36 67.081,76.274C66.902,76.252 66.714,76.297 66.561,76.398C65.269,77.259 65.025,79.101 65.055,80.547C65.085,81.854 65.617,82.921 66.61,83.753C66.872,83.97 67.055,84.168 67.164,84.344C67.235,84.46 67.272,84.599 67.261,84.738C67.156,86.217 67.516,87.745 68.34,89.321C67.415,88.966 67.093,88.235 67.37,87.123C67.407,86.973 67.239,86.853 67.111,86.94C66.801,87.149 66.471,87.262 66.115,87.28C63.666,87.404 62.187,85.73 61.209,83.663C60.636,82.453 60.614,81.262 61.134,80.086C61.374,79.543 61.752,79.491 61.977,79.158C62.048,79.053 62.003,78.91 61.883,78.866C61.187,78.6 60.79,78.158 60.693,77.544C60.356,75.416 60.367,73.514 61.479,71.675C62.074,70.694 62.913,70.151 64.003,70.05C64.104,70.043 64.16,69.926 64.1,69.844C62.621,67.732 61.722,65.8 61.397,64.047C60.962,61.721 61.722,60.029 63.677,58.969C66.119,57.651 68.4,58.036 70.8,59.085C70.89,59.122 70.987,59.051 70.972,58.954C70.759,57.535 70.811,56.153 71.13,54.804C71.976,51.217 75.148,49.625 78.627,50.352C79.754,50.588 80.919,51.026 82.121,51.666C82.376,51.801 82.69,51.737 82.874,51.52C83.469,50.816 83.784,50.445 83.817,50.408C85.742,48.315 88.603,47.693 91.112,49.232C91.794,49.648 92.24,50.356 92.79,50.94C93.622,51.824 94.633,51.853 95.921,51.644C98.243,51.266 100.849,50.786 101.643,53.752C101.819,54.4 101.932,54.782 101.98,54.906C102.033,55.037 102.096,55.156 102.175,55.269C104.055,58.04 107.399,57.291 110.125,56.1C110.579,55.902 111.084,55.894 111.646,56.074C112.874,56.463 113.406,58.115 113.35,59.298C113.271,60.957 112.361,62.511 110.826,63.212C108.815,64.133 107.946,64.47 107.965,66.968C107.987,69.9 106.669,73.207 105.148,75.783C104.171,77.446 103.362,78.633 102.729,79.345C101.576,80.637 100.16,81.599 98.479,82.24Z" style="fill:white;fill-opacity:0.25;fill-rule:nonzero;"/>
    <path d="M221.394,98.197L225.008,94.669C225.049,94.628 225.087,94.587 225.12,94.538C226.832,92.059 228,89.246 228.618,86.101C228.637,86.011 228.678,85.925 228.738,85.857C228.899,85.674 229.199,85.415 229.637,85.086C231.779,83.468 232.135,80.423 231.337,78.03C231.266,77.817 231.022,77.51 230.603,77.102C229.992,76.502 228.727,77.094 228.431,75.798C227.371,71.136 226.03,67.271 224.413,64.204C224.008,63.436 223.349,62.699 222.529,63.373C218.713,66.515 214.751,69.222 210.099,70.615C206.722,71.338 203.276,71.11 200.662,71.282C197.936,71.466 195.749,71.926 195.356,74.877C195,77.562 195.595,79.753 196.21,82.18C196.974,85.179 196.412,89.269 197.453,92.452C198.531,95.759 201.157,97.841 204.284,99.185C201.756,101.451 198.737,102.518 195.225,102.395C192.978,102.312 191.072,101.522 189.502,100.021C187.679,98.275 190.001,94.553 187.072,93.021C185.788,92.347 184.421,92.332 182.979,92.973C181.968,93.418 180.728,93.62 179.256,93.572C179.114,93.568 178.976,93.538 178.841,93.486C175.721,92.227 175.433,89.115 175.695,86.161C175.95,83.337 176.298,80.929 177.684,78.251C179.964,73.844 183.189,69.747 187.548,67.23C189.956,65.841 192.105,64.002 193.996,61.714C196.79,58.328 199.636,55.464 203.55,53.411C206.699,51.756 209.71,50.88 212.586,50.782C217.818,50.599 222.139,52.771 225.547,57.299C225.791,57.621 226.218,57.74 226.588,57.587C228.206,56.928 229.981,56.636 231.91,56.714C241.722,57.115 240.265,69.69 238.928,75.948C238.501,77.955 239.167,78.914 240.74,80.48C243.272,83.007 244.541,86.303 244.545,90.362C244.553,95.133 242.182,98.878 236.842,98.189C235.16,97.972 233.449,97.246 231.861,96.976C229.929,96.646 228.041,96.654 226.203,97.002C226.049,97.032 225.259,97.268 223.825,97.714C223.049,97.957 222.237,98.118 221.394,98.197Z" style="fill:white;fill-opacity:0.25;fill-rule:nonzero;"/>
    <path d="M221.394,98.197L220.72,99.11C220.342,99.579 220.065,100.133 219.885,100.773C219.387,102.792 219.263,104.642 219.507,106.331C219.559,106.705 219.855,107.001 220.229,107.061L225.109,107.829C225.195,107.84 225.281,107.844 225.367,107.832C227.573,107.574 229.169,107.477 230.153,107.537C231.865,107.638 233.779,108.274 235.894,109.443C237.636,110.401 238.924,112.469 239.523,114.135C240.254,116.176 240.688,118.498 240.819,121.104C240.186,121.037 239.568,120.91 238.969,120.719C238.359,120.524 237.842,120.707 237.332,120.445C237.235,120.397 237.127,120.367 237.014,120.363L233.809,120.251C233.722,120.247 233.636,120.232 233.561,120.198C231.929,119.565 230.94,119.142 230.592,118.932C228.91,117.917 226.48,116.745 224.529,117.416C221.825,118.348 220.289,121.146 219.806,123.846C219.683,124.546 219.533,125.684 219.357,127.268C219.327,127.538 219.334,127.815 219.383,128.085C219.469,128.59 219.495,129.141 219.462,129.729C219.451,129.931 219.466,130.137 219.51,130.339C219.93,132.163 220.814,133.736 222.166,135.062C222.214,136.691 222.27,138.346 222.33,140.024C222.383,141.54 222.289,145.173 222.049,150.921C212.253,149.071 202.389,147.603 192.453,146.517C192.203,145.562 191.967,144.664 191.753,143.825C190.929,140.578 190.959,137.043 191.289,133.702C191.326,133.331 191.072,132.994 190.705,132.923C190.087,132.807 189.476,132.575 188.873,132.227L185.964,130.272C185.825,130.178 185.769,130.006 185.825,129.849C187.907,124.16 189.57,119.737 190.813,116.577C191.124,115.779 191.712,114.532 192.577,112.836C193.955,110.124 195.88,108.169 198.614,107.368C201.022,106.664 202.168,106.758 204.965,106.81C206.452,106.836 207.512,105.57 208.347,104.571C209.998,102.919 211.144,101.369 211.792,99.923C213.043,97.137 214.062,94.834 213.871,91.86C215.582,91.531 217.481,90.778 218.552,89.344C218.705,89.142 218.488,88.868 218.256,88.966C216.777,89.591 215.44,90.302 213.811,90.726C213.477,89.651 213.208,88.55 213.006,87.426C212.807,86.31 212.159,85.883 211.062,86.149C210.216,86.355 208.886,87.067 208.729,85.599C208.306,81.674 208.463,77.712 209.193,73.716C209.388,72.641 209.691,71.608 210.099,70.615C214.751,69.222 218.713,66.515 222.529,63.373C223.349,62.699 224.008,63.436 224.413,64.204C226.03,67.271 227.371,71.136 228.431,75.798C228.727,77.094 229.992,76.502 230.603,77.102C231.022,77.51 231.266,77.817 231.337,78.03C232.135,80.423 231.779,83.468 229.637,85.086C229.199,85.415 228.899,85.674 228.738,85.857C228.678,85.925 228.637,86.011 228.618,86.101C228,89.246 226.832,92.059 225.12,94.538C225.087,94.587 225.049,94.628 225.008,94.669L221.394,98.197ZM218.14,74.84C218.297,74.873 218.424,74.712 218.357,74.57C217.908,73.619 215.919,72.971 215.058,72.739C213.638,72.361 212.275,72.544 210.968,73.293C210.654,73.473 210.463,73.716 210.399,74.016C210.335,74.319 210.601,74.6 210.938,74.581C211.912,74.529 213.223,74.417 214.867,74.244C215.005,74.233 215.148,74.241 215.282,74.267L218.14,74.84ZM213.485,77.26C213.017,77.319 212.747,78.206 212.882,79.241C213.017,80.274 213.504,81.064 213.971,81.003C214.44,80.944 214.709,80.056 214.575,79.021C214.44,77.989 213.953,77.199 213.485,77.26Z" style="fill:white;fill-opacity:0.95;fill-rule:nonzero;"/>
    <path d="M89.91,69.312C89.532,69.492 89.146,69.488 88.746,69.301C88.461,69.166 88.117,69.26 87.941,69.522C86.255,72.02 85.51,74.724 85.705,77.633C85.791,78.925 85.956,80.764 86.199,83.15C86.297,84.105 86.218,84.906 85.963,85.558C85.81,85.951 85.454,86.232 85.034,86.284L83.862,86.426C83.398,86.483 83.012,86.82 82.896,87.273C82.773,87.763 82.14,89.149 82.091,89.625C82.05,90.044 81.956,90.404 81.81,90.699L79.121,89.729C78.724,89.587 78.342,89.973 78.488,90.37C78.848,91.332 80.758,92.257 81.675,92.583C81.911,95.118 82.522,97.538 83.507,99.848C83.544,99.938 83.48,100.039 83.383,100.039C79.41,100.095 75.826,98.998 72.635,96.751C72.429,96.605 72.276,96.395 72.201,96.156L72.002,95.519C71.972,95.422 71.837,95.418 71.804,95.515C71.789,95.553 71.777,95.598 71.766,95.654C71.53,95.261 70.587,93.265 70.426,92.815C70.414,92.789 70.403,92.759 70.388,92.733L68.34,89.321C67.516,87.745 67.156,86.217 67.261,84.738C67.272,84.599 67.235,84.46 67.164,84.344C67.055,84.168 66.872,83.97 66.61,83.753C65.617,82.921 65.085,81.854 65.055,80.547C65.025,79.101 65.269,77.259 66.561,76.398C66.714,76.297 66.902,76.252 67.081,76.274C67.819,76.36 68.298,76.147 68.527,75.634C69.969,72.379 71.268,69.477 73.481,66.942C75.343,64.811 79.578,65.189 81.878,66.099C84.151,67.002 87.083,68.578 89.91,69.312ZM83.078,71.378C82.982,70.878 81.469,70.743 79.697,71.081C77.927,71.421 76.567,72.098 76.663,72.602C76.758,73.102 78.271,73.237 80.044,72.898C81.814,72.559 83.173,71.881 83.078,71.378ZM81.162,76.155C80.735,76.072 80.245,76.757 80.068,77.679C79.889,78.603 80.091,79.42 80.518,79.501C80.945,79.585 81.436,78.899 81.612,77.977C81.791,77.053 81.589,76.237 81.162,76.155Z" style="fill:white;fill-opacity:0.85;fill-rule:nonzero;"/>
    <path d="M98.479,82.24C98.243,83.685 97.954,85.281 97.617,87.022C96.812,91.183 94.696,94.564 91.27,97.174C89.337,98.646 87.566,99.313 88.158,102.245C88.454,103.698 88.869,104.893 89.405,105.825C88.764,106.743 87.896,107.372 86.802,107.709C86.69,107.746 86.566,107.754 86.45,107.728C81.409,106.656 77.084,104.29 73.478,100.631C73.466,100.62 73.44,100.627 73.433,100.65C73.429,100.661 73.422,100.668 73.418,100.68C73.369,100.612 73.343,100.545 73.332,100.474L72.942,98.848L71.766,95.654C71.777,95.598 71.789,95.553 71.804,95.515C71.837,95.418 71.972,95.422 72.002,95.519L72.201,96.156C72.276,96.395 72.429,96.605 72.635,96.751C75.826,98.998 79.41,100.095 83.383,100.039C83.48,100.039 83.544,99.938 83.507,99.848C82.522,97.538 81.911,95.118 81.675,92.583C82.975,93.018 84.233,93.047 85.454,92.673C85.922,92.531 86.308,92.19 86.51,91.744L86.529,91.703C86.671,91.396 86.416,91.055 86.079,91.1C84.593,91.306 83.17,91.175 81.81,90.699C81.956,90.404 82.05,90.044 82.091,89.625C82.14,89.149 82.773,87.763 82.896,87.273C83.012,86.82 83.398,86.483 83.862,86.426L85.034,86.284C85.454,86.232 85.81,85.951 85.963,85.558C86.218,84.906 86.297,84.105 86.199,83.15C85.956,80.764 85.791,78.925 85.705,77.633C85.51,74.724 86.255,72.02 87.941,69.522C88.117,69.26 88.461,69.166 88.746,69.301C89.146,69.488 89.532,69.492 89.91,69.312C91.749,69.612 93.468,69.331 95.071,68.47C95.771,68.095 96.561,67.934 96.842,68.825C97.486,70.866 97.996,72.967 98.374,75.132C98.707,77.068 98.827,78.465 98.73,79.322C98.636,80.143 98.554,81.112 98.479,82.24ZM88.552,72.649C88.412,73.132 89.712,73.937 91.46,74.447C93.206,74.96 94.738,74.982 94.878,74.499C95.018,74.016 93.719,73.211 91.971,72.701C90.225,72.188 88.693,72.166 88.552,72.649ZM89.066,77.163C88.675,77.09 88.218,77.772 88.05,78.681C87.881,79.592 88.064,80.39 88.455,80.463C88.847,80.536 89.304,79.854 89.471,78.945C89.641,78.034 89.457,77.236 89.066,77.163Z" style="fill:white;fill-opacity:0.75;fill-rule:nonzero;"/>
    <path d="M210.099,70.615C209.691,71.608 209.388,72.641 209.193,73.716C208.463,77.712 208.306,81.674 208.729,85.599C208.886,87.067 210.216,86.355 211.062,86.149C212.159,85.883 212.807,86.31 213.006,87.426C213.208,88.55 213.477,89.651 213.811,90.726L209.384,91.168C209.193,91.186 209.081,91.385 209.174,91.538C209.736,92.486 212.953,92.115 213.871,91.86C214.062,94.834 213.043,97.137 211.792,99.923C211.144,101.369 209.998,102.919 208.347,104.571C208.703,102.526 208.014,101.032 206.287,100.092C205.587,99.713 204.92,99.41 204.284,99.185C201.157,97.841 198.531,95.759 197.453,92.452C196.412,89.269 196.974,85.179 196.21,82.18C195.595,79.753 195,77.562 195.356,74.877C195.749,71.926 197.936,71.466 200.662,71.282C203.276,71.11 206.722,71.338 210.099,70.615ZM199.063,77.053L201.673,75.911C201.797,75.855 201.932,75.821 202.067,75.802C203.673,75.622 204.946,75.458 205.89,75.304C206.216,75.252 206.411,74.93 206.287,74.652C206.164,74.379 205.931,74.188 205.591,74.08C204.186,73.638 202.846,73.746 201.569,74.405C200.797,74.806 199.03,75.84 198.801,76.84C198.767,76.989 198.921,77.117 199.063,77.053ZM204.878,78.926C204.441,78.985 204.198,79.862 204.332,80.887C204.467,81.914 204.932,82.697 205.367,82.639C205.804,82.58 206.047,81.704 205.913,80.679C205.778,79.652 205.313,78.869 204.878,78.926Z" style="fill:white;fill-opacity:0.75;fill-rule:nonzero;"/>
    <path d="M83.078,71.378C83.173,71.881 81.814,72.559 80.044,72.898C78.271,73.237 76.758,73.102 76.663,72.602C76.567,72.098 77.927,71.421 79.697,71.081C81.469,70.743 82.982,70.878 83.078,71.378Z" style="fill:white;fill-opacity:0.15;fill-rule:nonzero;"/>
    <path d="M88.552,72.649C88.693,72.166 90.225,72.188 91.971,72.701C93.719,73.211 95.018,74.016 94.878,74.499C94.738,74.982 93.206,74.96 91.46,74.447C89.712,73.937 88.412,73.132 88.552,72.649Z" style="fill:white;fill-opacity:0.15;fill-rule:nonzero;"/>
    <path d="M218.14,74.84L215.282,74.267C215.148,74.241 215.005,74.233 214.867,74.244C213.223,74.417 211.912,74.529 210.938,74.581C210.601,74.6 210.335,74.319 210.399,74.016C210.463,73.716 210.654,73.473 210.968,73.293C212.275,72.544 213.638,72.361 215.058,72.739C215.919,72.971 217.908,73.619 218.357,74.57C218.424,74.712 218.297,74.873 218.14,74.84Z" style="fill:white;fill-opacity:0.15;fill-rule:nonzero;"/>
    <path d="M199.063,77.053C198.921,77.117 198.767,76.989 198.801,76.84C199.03,75.84 200.797,74.806 201.569,74.405C202.846,73.746 204.186,73.638 205.591,74.08C205.931,74.188 206.164,74.379 206.287,74.652C206.411,74.93 206.216,75.252 205.89,75.304C204.946,75.458 203.673,75.622 202.067,75.802C201.932,75.821 201.797,75.855 201.673,75.911L199.063,77.053Z" style="fill:white;fill-opacity:0.15;fill-rule:nonzero;"/>
    <path d="M81.162,76.155C81.589,76.237 81.791,77.053 81.612,77.977C81.436,78.899 80.945,79.585 80.518,79.501C80.091,79.42 79.889,78.603 80.068,77.679C80.245,76.757 80.735,76.072 81.162,76.155Z" style="fill:white;fill-opacity:0.15;fill-rule:nonzero;"/>
    <path d="M89.066,77.163C89.457,77.236 89.641,78.034 89.471,78.945C89.304,79.854 88.847,80.536 88.455,80.463C88.064,80.39 87.881,79.592 88.05,78.681C88.218,77.772 88.675,77.09 89.066,77.163Z" style="fill:white;fill-opacity:0.15;fill-rule:nonzero;"/>
    <path d="M213.485,77.26C213.953,77.199 214.44,77.989 214.575,79.021C214.709,80.056 214.44,80.944 213.971,81.003C213.504,81.064 213.017,80.274 212.882,79.241C212.747,78.206 213.017,77.319 213.485,77.26Z" style="fill:white;fill-opacity:0.15;fill-rule:nonzero;"/>
    <path d="M204.878,78.926C205.313,78.869 205.778,79.652 205.913,80.679C206.047,81.704 205.804,82.58 205.367,82.639C204.932,82.697 204.467,81.914 204.332,80.887C204.198,79.862 204.441,78.985 204.878,78.926Z" style="fill:white;fill-opacity:0.15;fill-rule:nonzero;"/>
    <path d="M213.871,91.86C212.953,92.115 209.736,92.486 209.174,91.538C209.081,91.385 209.193,91.186 209.384,91.168L213.811,90.726C215.44,90.302 216.777,89.591 218.256,88.966C218.488,88.868 218.705,89.142 218.552,89.344C217.481,90.778 215.582,91.531 213.871,91.86Z" style="fill:white;fill-opacity:0.15;fill-rule:nonzero;"/>
    <path d="M81.81,90.699C83.17,91.175 84.593,91.306 86.079,91.1C86.416,91.055 86.671,91.396 86.529,91.703L86.51,91.744C86.308,92.19 85.922,92.531 85.454,92.673C84.233,93.047 82.975,93.018 81.675,92.583C80.758,92.257 78.848,91.332 78.488,90.37C78.342,89.973 78.724,89.587 79.121,89.729L81.81,90.699Z" style="fill:white;fill-opacity:0.15;fill-rule:nonzero;"/>
    <path d="M72.942,98.848L73.332,100.474C70.811,100.683 68.332,101.02 65.887,101.489C62.235,102.189 59.079,102.867 56.416,103.529C51.768,104.683 47.75,105.84 43.964,107.705C42.882,108.241 42.384,109.076 42.477,110.218C42.545,111.068 42.612,111.952 42.683,112.869C40.639,112.191 38.59,112.064 36.542,112.48C36.411,111.66 36.336,110.828 36.317,109.978C36.294,108.858 36.302,108.177 36.343,107.926C36.452,107.278 36.86,106.765 37.568,106.394C40.391,104.915 43.653,103.953 47.447,102.986C54.24,101.26 59.127,100.23 62.108,99.893C62.247,99.878 63.041,99.758 64.49,99.53C65.651,99.35 66.445,99.242 66.875,99.208C68.875,99.039 70.897,98.92 72.942,98.848Z" style="fill:white;fill-opacity:0.4;fill-rule:nonzero;"/>
    <path d="M220.72,99.11C223.222,99.354 248.013,103.762 252.833,105.361C253.383,105.544 254.443,105.997 256.016,106.72C256.563,106.971 256.967,107.417 257.225,108.053C257.458,108.623 257.484,109.124 257.304,109.559C257.087,110.072 256.207,120.453 256.274,121.453C254.203,120.91 252.174,120.565 250.189,120.419C250.395,119.168 250.545,117.947 250.634,116.757C250.736,115.446 250.848,114.274 250.968,113.236C251.114,111.997 251.14,110.817 251.046,109.69C251.016,109.308 250.84,108.956 250.559,108.701C250.219,108.39 249.807,108.121 249.32,107.892C247.204,106.9 244.785,106.012 242.055,105.222C236.441,103.604 230.816,102.324 225.18,101.376C224.585,101.275 223.705,101.181 222.533,101.092C221.668,101.028 220.787,100.919 219.885,100.773C220.065,100.133 220.342,99.579 220.72,99.11Z" style="fill:white;fill-opacity:0.4;fill-rule:nonzero;"/>
    <path d="M73.332,100.474C73.343,100.545 73.369,100.612 73.418,100.68L73.5,102.035C73.526,102.47 73.343,102.889 73.01,103.166C71.733,104.219 70.276,104.911 68.636,105.245C66.025,105.773 64.1,106.26 62.018,107.735C59.981,109.177 57.948,112.791 57.105,114.978C56.502,116.536 56.142,118.595 56.026,121.153C52.353,121.288 48.851,122.299 45.529,124.19C45.249,124.351 44.893,124.198 44.818,123.883C44.78,123.73 44.795,123.505 44.863,123.209C45.44,120.749 45.372,118.333 44.657,115.959C44.428,115.206 43.773,114.176 42.683,112.869C42.612,111.952 42.545,111.068 42.477,110.218C42.384,109.076 42.882,108.241 43.964,107.705C47.75,105.84 51.768,104.683 56.416,103.529C59.079,102.867 62.235,102.189 65.887,101.489C68.332,101.02 70.811,100.683 73.332,100.474Z" style="fill:white;fill-opacity:0.25;fill-rule:nonzero;"/>
    <path d="M89.405,105.825C92.539,106.656 94.356,109.315 96.352,112.09C100.198,117.434 103.34,123.576 105.029,130.298C106.343,135.526 106.953,140.555 107.298,146.075C107.317,146.409 107.455,146.828 107.706,147.326C107.556,147.502 107.343,147.607 107.062,147.641C98.441,148.727 90.109,150.154 82.069,151.925C81.286,147.472 80.634,143.076 80.11,138.728C80.039,138.117 79.762,137.589 79.282,137.14C79.451,135.841 79.192,134.56 78.503,133.298C75.152,127.164 67.879,122.999 61.318,121.464C61.157,121.426 60.663,121.352 59.835,121.243C59.434,121.19 56.824,120.827 56.026,121.153C56.142,118.595 56.502,116.536 57.105,114.978C57.948,112.791 59.981,109.177 62.018,107.735C64.1,106.26 66.025,105.773 68.636,105.245C70.276,104.911 71.733,104.219 73.01,103.166C73.343,102.889 73.526,102.47 73.5,102.035L73.418,100.68C73.422,100.668 73.429,100.661 73.433,100.65C73.44,100.627 73.466,100.62 73.478,100.631C77.084,104.29 81.409,106.656 86.45,107.728C86.566,107.754 86.69,107.746 86.802,107.709C87.896,107.372 88.764,106.743 89.405,105.825Z" style="fill:white;fill-opacity:0.95;fill-rule:nonzero;"/>
    <path d="M250.189,120.419C248.133,120.861 246.208,121.565 244.414,122.535C244.276,122.61 244.111,122.614 243.968,122.55L240.819,121.104C240.688,118.498 240.254,116.176 239.523,114.135C238.924,112.469 237.636,110.401 235.894,109.443C233.779,108.274 231.865,107.638 230.153,107.537C229.169,107.477 227.573,107.574 225.367,107.832C225.281,107.844 225.195,107.84 225.109,107.829L220.229,107.061C219.855,107.001 219.559,106.705 219.507,106.331C219.263,104.642 219.387,102.792 219.885,100.773C220.787,100.919 221.668,101.028 222.533,101.092C223.705,101.181 224.585,101.275 225.18,101.376C230.816,102.324 236.441,103.604 242.055,105.222C244.785,106.012 247.204,106.9 249.32,107.892C249.807,108.121 250.219,108.39 250.559,108.701C250.84,108.956 251.016,109.308 251.046,109.69C251.14,110.817 251.114,111.997 250.968,113.236C250.848,114.274 250.736,115.446 250.634,116.757C250.545,117.947 250.395,119.168 250.189,120.419Z" style="fill:white;fill-opacity:0.25;fill-rule:nonzero;"/>
    <path d="M62.603,166.429C62.614,166.355 62.601,166.32 62.565,166.328C61.745,166.474 53.218,167.054 52.165,166.687C52.105,166.665 51.547,166.594 50.491,166.474C49.844,166.399 49.229,166.129 48.649,165.665C48.555,165.59 48.42,165.605 48.342,165.695L48.024,166.066L45.26,164.347L42.077,161.474C42.069,161.467 42.062,161.459 42.05,161.456C41.223,160.834 40.545,160.385 39.818,159.49C39.305,158.861 38.609,158.022 37.725,156.973C32.314,150.551 30.999,140.825 36.032,133.781C36.253,133.47 36.279,133.163 36.107,132.867C36.047,132.766 35.924,132.721 35.815,132.762C30.535,134.728 24.356,134.331 22.277,128.134C22.247,128.044 22.229,127.95 22.221,127.853C22.023,125.467 21.963,123.655 23.169,121.659C24.55,119.374 26.487,117.442 28.977,115.865C31.362,114.356 33.883,113.225 36.542,112.48C38.59,112.064 40.639,112.191 42.683,112.869C43.773,114.176 44.428,115.206 44.657,115.959C45.372,118.333 45.44,120.749 44.863,123.209C44.795,123.505 44.78,123.73 44.818,123.883C44.893,124.198 45.249,124.351 45.529,124.19C48.851,122.299 52.353,121.288 56.026,121.153C56.824,120.827 59.434,121.19 59.835,121.243C60.663,121.352 61.157,121.426 61.318,121.464C67.879,122.999 75.152,127.164 78.503,133.298C79.192,134.56 79.451,135.841 79.282,137.14C78.979,137.825 78.676,138.207 78.372,138.279C78.174,137.919 77.889,137.855 77.511,138.084C75.927,139.042 74.335,140.012 72.732,140.99C70.59,142.293 68.403,143.93 67.063,146.102C66.467,147.068 65.613,147.405 64.501,147.116C64.333,147.072 64.063,146.914 63.7,146.648C63.449,146.469 63.153,146.353 62.805,146.3C61.243,146.072 60.157,146.585 59.543,147.843C59.509,147.91 59.494,147.989 59.494,148.064L59.494,150.873C59.494,150.966 59.52,151.052 59.573,151.127C60.685,152.685 62.011,154.187 63.55,155.632C63.666,155.741 63.763,155.865 63.846,155.999C64.718,157.434 65.269,158.729 65.497,159.894L65.969,162.283C65.995,162.399 65.992,162.519 65.962,162.639C65.662,163.89 63.958,165.178 62.973,165.774C62.973,165.774 62.744,165.902 62.603,166.429Z" style="fill:white;fill-opacity:0.35;"/>
    <path d="M79.069,152.562L82.069,151.925C90.109,150.154 98.441,148.727 107.062,147.641C107.343,147.607 107.556,147.502 107.706,147.326C107.807,147.45 107.927,147.502 108.066,147.483C113.282,146.813 117.589,146.338 120.982,146.057C134.344,144.952 147.17,144.484 159.461,144.66C168.13,144.783 177.571,145.255 187.787,146.075L192.453,146.517C202.389,147.603 212.253,149.071 222.049,150.921L224.532,151.483C224.63,151.506 224.727,151.506 224.824,151.479L225.09,151.408C225.064,151.479 225.147,151.562 225.33,151.655C225.214,151.67 225.154,151.715 225.154,151.786C225.21,154.243 225.315,156.333 225.472,158.055C225.506,158.426 225.656,158.726 225.918,158.954L225.675,158.969C225.562,158.977 225.469,159.063 225.45,159.175C225.221,160.594 225.45,161.898 226.135,163.092C226.319,163.291 226.487,163.778 226.648,164.549C226.798,165.283 227.281,166.272 228.094,167.515C230.034,170.473 232.487,170.077 235.482,169.949C237.527,169.863 239.471,169.35 241.313,168.41L241.433,168.522C240.392,171.912 238.463,174.634 235.647,176.69C234.726,177.218 233.809,177.802 232.824,178.162C231.082,178.795 229.06,179.364 227.244,180.274C225.008,181.394 222.892,182.91 220.9,184.817C219.488,186.168 218.174,188.086 217.683,189.793C217.413,190.741 217.009,192.636 216.466,195.475C216.016,197.838 216.125,200.111 215.882,202.403C215.855,202.665 215.87,202.931 215.93,203.185C215.983,203.414 216.039,203.953 216.099,204.796C216.196,206.207 216.84,208.054 217.009,209.024C217.26,210.458 217.833,211.619 218.256,213.18C218.32,213.405 218.424,213.615 218.567,213.802C219.057,214.435 219.319,214.922 219.353,215.255L218.009,229.194C203.108,231.774 188.008,233.388 172.71,234.036C154.989,234.781 137.437,234.313 120.049,232.624C107.654,231.422 95.355,229.534 83.151,226.962C82.563,225.46 82.533,223.767 82.477,222.172C82.436,221 82.379,220.026 82.308,219.243C82.054,216.558 81.926,213.873 81.93,211.188C82.495,211.068 82.859,210.821 83.02,210.443C83.263,209.859 83.604,208.986 84.035,207.821C84.866,205.571 85.237,203.504 85.813,201.317C85.911,200.953 85.967,200.579 85.986,200.204C86.008,199.676 86.031,198.493 86.053,196.658C86.064,195.68 85.918,194.49 85.607,193.089C85.409,192.179 85.218,190.988 85.042,189.516C84.608,185.921 82.874,183.244 79.99,180.941C78.406,179.671 77.275,178.843 76.601,178.454C73.856,176.866 70.486,176.128 67.512,174.226C66.654,173.391 65.801,172.544 64.951,171.679C64.452,171.166 63.733,169.957 62.793,168.047C62.589,167.628 62.505,167.2 62.545,166.759C62.548,166.699 62.556,166.632 62.573,166.556C62.586,166.508 62.596,166.466 62.603,166.429C62.744,165.902 62.973,165.774 62.973,165.774C62.913,165.811 62.925,165.901 62.992,165.92L63.767,166.126L66.359,166.935C66.389,166.946 66.419,166.953 66.452,166.957C68.048,167.178 69.879,167.253 71.95,167.182C74.691,167.088 76.144,164.043 76.904,161.849C77.477,160.194 76.29,159.692 75.919,158.437L77.414,156.958C77.855,156.805 78.099,156.4 78.148,155.752C78.234,154.555 78.302,153.535 78.352,152.692C78.703,152.626 78.961,152.581 79.042,152.566C79.051,152.565 79.06,152.563 79.069,152.562Z" style="fill:white;fill-opacity:0.5;"/>
    <path d="M77.189,145.109L75.994,145.54C75.844,145.592 75.691,145.465 75.713,145.308L75.773,144.941C75.792,144.813 75.859,144.694 75.957,144.607C75.957,144.607 77.406,143.304 77.874,143.102C78.194,142.966 78.402,142.653 78.406,142.305C78.6,143.711 78.564,144.865 78.507,145.561C78.493,145.505 78.475,145.451 78.455,145.398C78.413,145.289 78.312,145.21 78.196,145.199L77.189,145.109Z" style="fill:white;fill-opacity:0.15;"/>
    <path d="M78.406,142.305C78.406,142.299 78.406,142.292 78.406,142.286L78.372,138.279C78.676,138.207 78.979,137.825 79.282,137.14C79.762,137.589 80.039,138.117 80.11,138.728C80.634,143.076 81.286,147.472 82.069,151.925L79.069,152.562L79.042,152.566C78.961,152.581 78.703,152.626 78.352,152.692C78.399,151.889 78.431,151.248 78.447,150.768C78.451,150.61 78.41,150.457 78.327,150.326C77.537,149.056 77.59,147.802 78.492,146.562C78.577,146.188 78.583,145.854 78.507,145.561C78.564,144.865 78.6,143.711 78.406,142.305Z" style="fill:white;fill-opacity:0.6;"/>
    <path d="M240.819,121.104L243.968,122.55C244.111,122.614 244.276,122.61 244.414,122.535C246.208,121.565 248.133,120.861 250.189,120.419C252.174,120.565 254.203,120.91 256.274,121.453C259.221,122.745 261.865,124.497 264.206,126.714C265.61,128.047 266.876,129.658 268.003,131.541C270.13,135.11 270.333,138.81 268.614,142.641C268.561,142.757 268.591,142.896 268.692,142.978C269.947,144.027 270.995,145.004 271.842,145.911C272.572,146.693 272.92,147.371 273.647,148.334C273.74,148.461 273.815,148.599 273.868,148.746C274.407,150.236 274.651,151.139 273.898,152.592C273.864,152.651 273.819,152.708 273.763,152.749L272.471,153.7C272.4,153.749 272.325,153.79 272.246,153.824C270.43,154.573 269.131,155.254 268.348,155.865C268.037,156.108 267.64,156.79 267.161,157.906C267.105,158.04 267.075,158.183 267.063,158.325C267.045,158.666 266.936,159.576 266.738,161.051C266.629,161.841 266.194,162.557 265.427,163.193C264.944,163.594 264.476,163.984 264.026,164.358L261.045,164.837C260.94,164.856 260.843,164.912 260.776,164.995C259.663,166.335 258.15,167.403 256.237,168.193C254.166,169.02 251.552,169.534 248.399,169.728C246.043,169.874 243.796,169.462 241.654,168.5C241.557,168.455 241.482,168.462 241.433,168.522L241.313,168.41C241.062,168.182 240.662,167.901 240.111,167.571C239.628,167.283 239.066,166.744 238.422,165.957C238.344,165.86 238.306,165.736 238.317,165.609C238.516,163.53 238.696,162.268 238.857,161.819C239.815,159.156 241.081,157.778 243.455,155.546C245.264,153.839 246.309,151.61 244.86,149.281C243.792,147.558 241.957,147.682 240.332,148.551C239.433,149.034 238.535,149.071 238.007,148.225C236.666,146.064 234.872,144.274 232.621,142.855C230.457,141.492 228.378,140.02 226.39,138.44C225.173,137.151 223.765,136.024 222.166,135.062C220.814,133.736 219.93,132.163 219.51,130.339C219.466,130.137 219.451,129.931 219.462,129.729C219.495,129.141 219.469,128.59 219.383,128.085C219.334,127.815 219.327,127.538 219.357,127.268C219.533,125.684 219.683,124.546 219.806,123.846C220.289,121.146 221.825,118.348 224.529,117.416C226.48,116.745 228.91,117.917 230.592,118.932C230.94,119.142 231.929,119.565 233.561,120.198C233.636,120.232 233.722,120.247 233.809,120.251L237.014,120.363C237.127,120.367 237.235,120.397 237.332,120.445C237.842,120.707 238.359,120.524 238.969,120.719C239.568,120.91 240.186,121.037 240.819,121.104Z" style="fill:white;fill-opacity:0.35;fill-rule:nonzero;"/>
    <path d="M192.453,146.517L187.787,146.075C187.716,142.001 187.84,138.522 188.158,135.638C188.214,135.11 188.454,133.976 188.873,132.227C189.476,132.575 190.087,132.807 190.705,132.923C191.072,132.994 191.326,133.331 191.289,133.702C190.959,137.043 190.929,140.578 191.753,143.825C191.967,144.664 192.203,145.562 192.453,146.517Z" style="fill:white;fill-opacity:0.75;fill-rule:nonzero;"/>
    <path d="M226.39,138.44C225.802,140.413 225.484,142.462 225.431,144.585C225.165,145.038 225.105,145.738 225.259,146.686C225.42,147.281 225.427,147.85 225.274,148.397C225,149.3 224.941,150.303 225.09,151.408L224.824,151.479C224.727,151.506 224.63,151.506 224.532,151.483L222.049,150.921C222.289,145.173 222.383,141.54 222.33,140.024C222.27,138.346 222.214,136.691 222.166,135.062C223.765,136.024 225.173,137.151 226.39,138.44Z" style="fill:white;fill-opacity:0.75;fill-rule:nonzero;"/>
    <path d="M226.39,138.44C228.378,140.02 230.457,141.492 232.621,142.855C234.872,144.274 236.666,146.064 238.007,148.225C238.535,149.071 239.433,149.034 240.332,148.551C241.957,147.682 243.792,147.558 244.86,149.281C246.309,151.61 245.264,153.839 243.455,155.546C241.081,157.778 239.815,159.156 238.857,161.819C238.696,162.268 238.516,163.53 238.317,165.609C238.306,165.736 238.344,165.86 238.422,165.957C239.066,166.744 239.628,167.283 240.111,167.571C240.662,167.901 241.062,168.182 241.313,168.41C239.471,169.35 237.527,169.863 235.482,169.949C232.487,170.077 230.034,170.473 228.094,167.515C227.281,166.272 226.798,165.283 226.648,164.549C226.487,163.778 226.319,163.291 226.135,163.092L226.281,162.336C226.307,162.19 226.386,162.059 226.502,161.965C227.322,161.31 227.873,160.411 228.154,159.269C228.236,158.928 227.981,158.602 227.629,158.598C227.06,158.598 226.491,158.718 225.918,158.954C225.656,158.726 225.506,158.426 225.472,158.055C225.315,156.333 225.21,154.243 225.154,151.786C225.154,151.715 225.214,151.67 225.33,151.655C226.203,151.277 226.109,150.3 226.068,149.352C226.049,148.944 225.787,148.626 225.274,148.397C225.427,147.85 225.42,147.281 225.259,146.686C225.281,146.427 225.323,146.236 225.382,146.109C225.442,145.986 225.592,145.933 225.716,145.997C226.525,146.412 227.386,146.768 228.296,147.064C228.461,147.116 228.637,147.03 228.689,146.866C228.734,146.735 228.7,146.611 228.588,146.495C227.753,145.607 226.701,144.971 225.431,144.585C225.484,142.462 225.802,140.413 226.39,138.44Z" style="fill:white;fill-opacity:0.8;fill-rule:nonzero;"/>
    <path d="M225.431,144.585C226.701,144.971 227.753,145.607 228.588,146.495C228.7,146.611 228.734,146.735 228.689,146.866C228.637,147.03 228.461,147.116 228.296,147.064C227.386,146.768 226.525,146.412 225.716,145.997C225.592,145.933 225.442,145.986 225.382,146.109C225.323,146.236 225.281,146.427 225.259,146.686C225.105,145.738 225.165,145.038 225.431,144.585Z" style="fill:white;fill-opacity:0.15;fill-rule:nonzero;"/>
    <path d="M78.372,138.279L78.406,142.286C78.41,142.641 78.2,142.963 77.874,143.102C77.406,143.304 75.957,144.607 75.957,144.607C75.859,144.694 75.792,144.813 75.773,144.941L75.713,145.308C75.691,145.465 75.844,145.592 75.994,145.54L77.189,145.109L78.196,145.199C78.312,145.21 78.413,145.289 78.455,145.398C78.582,145.727 78.593,146.117 78.492,146.562C77.59,147.802 77.537,149.056 78.327,150.326C78.41,150.457 78.451,150.61 78.447,150.768C78.413,151.753 78.316,153.415 78.148,155.752C78.099,156.4 77.855,156.805 77.414,156.958L76.08,156.786C75.972,156.771 75.874,156.842 75.852,156.951C75.762,157.445 75.785,157.939 75.919,158.437C76.29,159.692 77.477,160.194 76.904,161.849C76.144,164.043 74.691,167.088 71.95,167.182C69.879,167.253 68.048,167.178 66.452,166.957C66.419,166.953 66.389,166.946 66.359,166.935L63.767,166.126L62.992,165.92C62.925,165.901 62.913,165.811 62.973,165.774C63.958,165.178 65.662,163.89 65.962,162.639C65.992,162.519 65.995,162.399 65.969,162.283C65.812,161.482 65.655,160.684 65.497,159.894C65.269,158.729 64.718,157.434 63.846,155.999C63.763,155.865 63.666,155.741 63.55,155.632C62.011,154.187 60.685,152.685 59.573,151.127C59.52,151.052 59.494,150.966 59.494,150.873L59.494,148.064C59.494,147.989 59.509,147.91 59.543,147.843C60.157,146.585 61.243,146.072 62.805,146.3C63.153,146.353 63.449,146.469 63.7,146.648C64.063,146.914 64.333,147.072 64.501,147.116C65.613,147.405 66.467,147.068 67.063,146.102C68.403,143.93 70.59,142.293 72.732,140.99C74.335,140.012 75.927,139.042 77.511,138.084C77.889,137.855 78.174,137.919 78.372,138.279Z" style="fill:white;fill-opacity:0.95;fill-rule:nonzero;"/>
    <path d="M225.274,148.397C225.787,148.626 226.049,148.944 226.068,149.352C226.109,150.3 226.203,151.277 225.33,151.655C225.147,151.562 225.064,151.479 225.09,151.408C224.941,150.303 225,149.3 225.274,148.397Z" style="fill:white;fill-opacity:0.15;fill-rule:nonzero;"/>
    <path d="M77.414,156.958L75.919,158.437C75.785,157.939 75.762,157.445 75.852,156.951C75.874,156.842 75.972,156.771 76.08,156.786L77.414,156.958Z" style="fill:white;fill-opacity:0.15;fill-rule:nonzero;"/>
    <path d="M226.135,163.092C225.45,161.898 225.221,160.594 225.45,159.175C225.469,159.063 225.562,158.977 225.675,158.969L225.918,158.954C226.491,158.718 227.06,158.598 227.629,158.598C227.981,158.602 228.236,158.928 228.154,159.269C227.873,160.411 227.322,161.31 226.502,161.965C226.386,162.059 226.307,162.19 226.281,162.336L226.135,163.092Z" style="fill:white;fill-opacity:0.15;fill-rule:nonzero;"/>
    <path d="M45.26,164.347L48.024,166.066C47.657,167.182 47.162,168.129 46.541,168.908C46.207,169.324 45.597,169.927 44.717,170.709C39.564,174.417 32.714,176.911 28.292,179.589C27.625,179.993 26.812,180.132 25.85,180.001C26.655,178.57 27.737,177.169 29.093,175.803C33.77,171.088 39.159,167.272 45.26,164.347Z" style="fill:white;fill-opacity:0.5;fill-rule:nonzero;"/>
    <path d="M264.026,164.358C270.928,167.493 276.8,171.571 281.646,176.589C285.473,180.551 287.454,185.307 287.589,190.857C287.121,190.123 286.713,189.374 286.368,188.61C285.863,187.49 285.481,186.741 285.219,186.367C284.013,184.655 282.59,183.39 280.946,182.57C278.343,181.266 274.688,180.034 269.984,178.87C268.857,178.589 267.258,178.087 265.195,177.357C263.693,176.821 262.285,175.81 261.019,174.967C260.895,174.885 260.783,174.791 260.674,174.69C260.233,174.267 259.783,173.896 259.323,173.578C257.66,172.08 256.63,170.286 256.237,168.193C258.15,167.403 259.663,166.335 260.776,164.995C260.843,164.912 260.94,164.856 261.045,164.837L264.026,164.358Z" style="fill:white;fill-opacity:0.5;fill-rule:nonzero;"/>
    <path d="M62.573,166.556C62.483,167.069 62.558,167.564 62.793,168.047C63.733,169.957 64.452,171.166 64.951,171.679C65.801,172.544 66.654,173.391 67.512,174.226C67.362,174.518 67.209,174.657 67.055,174.642C62.265,174.151 57.472,173.743 52.671,173.417C50.739,173.286 49.331,173.069 48.45,172.769C47.114,172.316 45.87,171.627 44.717,170.709C45.597,169.927 46.207,169.324 46.541,168.908C47.162,168.129 47.657,167.182 48.024,166.066L48.342,165.695C48.42,165.605 48.555,165.59 48.649,165.665C49.229,166.129 49.844,166.399 50.491,166.474C51.547,166.594 52.105,166.665 52.165,166.687C53.218,167.054 61.745,166.474 62.565,166.328C62.617,166.317 62.621,166.395 62.573,166.556Z" style="fill:white;fill-opacity:0.75;fill-rule:nonzero;"/>
    <path d="M256.237,168.193C256.63,170.286 257.66,172.08 259.323,173.578C259.323,173.578 236.587,177.008 235.647,176.69C238.463,174.634 240.392,171.912 241.433,168.522C241.482,168.462 241.557,168.455 241.654,168.5C243.796,169.462 246.043,169.874 248.399,169.728C251.552,169.534 254.166,169.02 256.237,168.193Z" style="fill:white;fill-opacity:0.8;fill-rule:nonzero;"/>
    <path d="M44.717,170.709C45.87,171.627 47.114,172.316 48.45,172.769C49.331,173.069 50.739,173.286 52.671,173.417C57.472,173.743 62.265,174.151 67.055,174.642C67.209,174.657 67.362,174.518 67.512,174.226C70.486,176.128 73.856,176.866 76.601,178.454C77.275,178.843 78.406,179.671 79.99,180.941C82.874,183.244 84.608,185.921 85.042,189.516C85.218,190.988 85.409,192.179 85.607,193.089C85.918,194.49 86.064,195.68 86.053,196.658C86.031,198.493 86.008,199.676 85.986,200.204C85.967,200.579 85.911,200.953 85.813,201.317C85.237,203.504 84.866,205.571 84.035,207.821C83.604,208.986 83.263,209.859 83.02,210.443C82.859,210.821 82.495,211.068 81.93,211.188L64.037,209.177C63.321,205.275 62.531,201.455 61.659,197.714C61.31,196.216 60.94,194.917 60.543,193.812C60.217,192.906 59.839,192.497 59.004,192.142C57.502,191.501 55.88,190.969 54.139,190.546C44.451,188.191 34.617,186.899 24.644,186.67C22.382,186.618 19.824,186.884 16.967,187.472C18.506,185.221 20.367,182.925 22.626,181.596C23.079,181.33 24.153,180.798 25.85,180.001C26.812,180.132 27.625,179.993 28.292,179.589C32.714,176.911 39.564,174.417 44.717,170.709Z" style="fill:white;fill-opacity:0.95;fill-rule:nonzero;"/>
    <path d="M259.323,173.578C259.783,173.896 260.233,174.267 260.674,174.69C260.783,174.791 260.895,174.885 261.019,174.967C262.285,175.81 263.693,176.821 265.195,177.357C267.258,178.087 268.857,178.589 269.984,178.87C274.688,180.034 278.343,181.266 280.946,182.57C282.59,183.39 284.013,184.655 285.219,186.367C285.481,186.741 285.863,187.49 286.368,188.61C286.713,189.374 287.121,190.123 287.589,190.857C287.679,191.385 287.844,191.939 288.083,192.512C288.454,193.419 288.668,193.954 288.72,194.123C289.439,196.411 290.173,198.721 290.926,201.047C291.787,203.728 292.383,206.353 293.124,209.016C293.233,209.409 293.274,209.833 293.244,210.278C293.236,210.379 293.192,210.477 293.12,210.548L290.787,212.87L286.368,216.263C286.821,207.136 286.885,201.822 286.511,194.759C286.398,192.666 286.02,190.711 285.38,188.902C283.784,187.606 281.882,186.921 279.672,186.846C277.673,186.775 275.875,186.633 274.126,186.693C264.992,187 255.922,188.194 246.923,190.28C245.204,190.677 243.354,191.235 241.381,191.954C240.268,192.359 239.534,193.22 239.179,194.538C237.407,201.163 236.265,207.687 235.026,214.308C235.026,214.308 220.353,214.907 219.353,215.255C219.319,214.922 219.057,214.435 218.567,213.802C218.424,213.615 218.32,213.405 218.256,213.18C217.833,211.619 217.26,210.458 217.009,209.024C216.84,208.054 216.196,206.207 216.099,204.796C216.039,203.953 215.983,203.414 215.93,203.185C215.87,202.931 215.855,202.665 215.882,202.403C216.125,200.111 216.016,197.838 216.466,195.475C217.009,192.636 217.413,190.741 217.683,189.793C218.174,188.086 219.488,186.168 220.9,184.817C222.892,182.91 225.008,181.394 227.244,180.274C229.06,179.364 231.082,178.795 232.824,178.162C233.809,177.802 234.726,177.218 235.647,176.69C236.587,177.008 259.323,173.578 259.323,173.578Z" style="fill:white;fill-opacity:0.95;fill-rule:nonzero;"/>
    <path d="M285.38,188.902C281.661,188.648 279.01,188.588 277.425,188.722C275.238,188.91 273.984,188.985 273.666,188.947C273.478,188.928 273.287,188.932 273.1,188.966C271.538,189.228 270.228,189.138 268.67,189.412C268.456,189.449 267.078,189.629 264.536,189.947C260.622,190.441 256.229,191.25 251.35,192.377C249.309,192.846 247.597,193.374 246.208,193.962C244.467,194.696 244.208,195.508 243.688,197.336C242.995,199.759 242.276,202.931 241.531,206.844C238.778,221.322 236.336,235.867 234.205,250.483L229.21,250.367C230.24,243.376 231.314,236.414 232.442,229.49C232.479,229.254 232.427,229.074 232.288,228.947C232.475,228.89 232.584,228.767 232.618,228.572C233.4,223.823 234.205,219.067 235.026,214.308C236.265,207.687 237.407,201.163 239.179,194.538C239.534,193.22 240.268,192.359 241.381,191.954C243.354,191.235 245.204,190.677 246.923,190.28C255.922,188.194 264.992,187 274.126,186.693C275.875,186.633 277.673,186.775 279.672,186.846C281.882,186.921 283.784,187.606 285.38,188.902Z" style="fill:white;fill-opacity:0.35;fill-rule:nonzero;"/>
    <path d="M64.037,209.177L67.606,228.913C67.594,229.1 67.508,229.276 67.538,229.456C68.673,236.41 69.763,243.387 70.811,250.379L65.808,250.48C64.426,241.144 62.954,231.886 61.397,222.708C60.262,216.015 59.105,209.799 57.925,204.05C57.262,200.822 56.599,198.171 55.929,196.096C55.364,194.344 53.791,193.86 52.038,193.325C49.432,192.535 46.642,191.853 43.668,191.284C35.927,189.797 28.22,188.917 20.547,188.644C18.809,188.58 16.885,188.685 14.772,188.958C15.345,188.322 16.079,187.827 16.967,187.472C19.824,186.884 22.382,186.618 24.644,186.67C34.617,186.899 44.451,188.191 54.139,190.546C55.88,190.969 57.502,191.501 59.004,192.142C59.839,192.497 60.217,192.906 60.543,193.812C60.94,194.917 61.31,196.216 61.659,197.714C62.531,201.455 63.321,205.275 64.037,209.177Z" style="fill:white;fill-opacity:0.35;fill-rule:nonzero;"/>
    <path d="M65.808,250.48C55.925,250.895 49.566,251.143 46.739,251.221C41.227,251.375 38.414,251.453 38.298,251.457C35.336,251.596 32.782,251.648 30.628,251.614C25.015,251.528 22.075,251.652 17.963,251.053C17.63,251.004 17.371,250.888 17.18,250.701C16.96,250.483 16.817,250.225 16.754,249.929C16.297,247.019 15.993,244.889 15.84,243.537C15.409,239.747 14.941,234.804 14.432,228.711C13.866,221.247 13.477,213.761 13.271,206.26C13.117,201.463 13.289,196.688 13.788,191.939L14.772,188.958C16.885,188.685 18.809,188.58 20.547,188.644C28.22,188.917 35.927,189.797 43.668,191.284C46.642,191.853 49.432,192.535 52.038,193.325C53.791,193.86 55.364,194.344 55.929,196.096C56.599,198.171 57.262,200.822 57.925,204.05C59.105,209.799 60.262,216.015 61.397,222.708C62.954,231.886 64.426,241.144 65.808,250.48Z" style="fill:white;fill-opacity:0.25;fill-rule:nonzero;"/>
    <path d="M285.38,188.902C286.02,190.711 286.398,192.666 286.511,194.759C286.885,201.822 286.821,207.136 286.368,216.263L285.563,228.684C285.005,235.605 284.462,242.664 283.283,249.532C283.271,249.592 283.286,249.652 283.32,249.701C283.417,249.836 283.515,249.866 283.612,249.794C283.028,250.21 282.886,250.955 282.174,251.049C277.83,251.614 272.61,251.525 269.303,251.596C267.228,251.641 265.086,251.611 262.873,251.506C262.337,251.48 259.615,251.405 254.701,251.274C251.499,251.188 244.669,250.925 234.205,250.483C236.336,235.867 238.778,221.322 241.531,206.844C242.276,202.931 242.995,199.759 243.688,197.336C244.208,195.508 244.467,194.696 246.208,193.962C247.597,193.374 249.309,192.846 251.35,192.377C256.229,191.25 260.622,190.441 264.536,189.947C267.078,189.629 268.456,189.449 268.67,189.412C270.228,189.138 271.538,189.228 273.1,188.966C273.287,188.932 273.478,188.928 273.666,188.947C273.984,188.985 275.238,188.91 277.425,188.722C279.01,188.588 281.661,188.648 285.38,188.902Z" style="fill:white;fill-opacity:0.25;fill-rule:nonzero;"/>
    <path d="M13.788,191.939C13.289,196.688 13.117,201.463 13.271,206.26C13.256,206.249 13.241,206.237 13.23,206.226C11.997,205.234 10.488,203.702 8.694,201.627C8.189,201.043 8.114,200.47 8.462,199.912C10.166,197.197 11.941,194.542 13.788,191.939Z" style="fill:white;fill-opacity:0.95;fill-rule:nonzero;"/>
    <path d="M13.271,206.26C13.477,213.761 13.866,221.247 14.432,228.711L7.234,228.535C6.511,226.243 10.241,213.068 11.159,211.211C11.758,209.997 12.001,209.012 12.649,207.829C12.915,207.342 13.106,206.807 13.23,206.226C13.241,206.237 13.256,206.249 13.271,206.26Z" style="fill:white;fill-opacity:0.95;fill-rule:nonzero;"/>
    <path d="M81.93,211.188C81.926,213.873 82.054,216.558 82.308,219.243C82.379,220.026 82.436,221 82.477,222.172C82.533,223.767 82.563,225.46 83.151,226.962L83.563,230.145L67.606,228.913L64.037,209.177L81.93,211.188Z" style="fill:white;fill-opacity:0.75;fill-rule:nonzero;"/>
    <path d="M290.787,212.87C290.806,218.094 290.491,223.363 289.844,228.681L285.563,228.684L286.368,216.263L290.787,212.87Z" style="fill:white;fill-opacity:0.75;fill-rule:nonzero;"/>
    <path d="M235.026,214.308C234.205,219.067 233.4,223.823 232.618,228.572C232.584,228.767 232.475,228.89 232.288,228.947C230.659,229.01 218.057,230.018 218.057,230.018C217.896,229.898 217.881,229.624 218.009,229.194L219.353,215.255C220.353,214.907 235.026,214.308 235.026,214.308Z" style="fill:white;fill-opacity:0.75;fill-rule:nonzero;"/>
    <path d="M218.009,229.194C217.881,229.624 217.896,229.898 218.057,230.018C214.065,229.744 211.23,230.98 210.575,235.279C210.223,237.59 210.066,239.919 210.099,242.267C209.781,242.233 209.145,242.293 208.19,242.443C202.73,243.308 195.464,244.121 186.398,244.885C181.758,245.274 173.56,245.66 161.809,246.042C161.333,246.061 159.191,246.076 155.383,246.091C150.66,246.113 145.9,245.731 141.789,245.709C137.718,245.686 131.752,245.125 127.865,244.99C127.165,244.964 126.461,244.881 125.745,244.739C124.97,244.585 123.944,244.698 122.91,244.597C111.522,243.454 101.257,242.039 92.124,240.357C91.236,240.196 90.581,240.11 90.165,240.103C90.105,240.103 90.049,240.084 89.996,240.054C89.835,239.957 89.817,239.87 89.937,239.796C89.798,238.294 89.626,236.788 89.42,235.279C89.191,233.62 88.487,231.718 86.959,230.845C86.132,230.373 84.626,230.343 83.563,230.145L83.151,226.962C95.355,229.534 107.654,231.422 120.049,232.624C137.437,234.313 154.989,234.781 172.71,234.036C188.008,233.388 203.108,231.774 218.009,229.194Z" style="fill:white;fill-opacity:0.35;fill-rule:nonzero;"/>
    <path d="M14.432,228.711C14.941,234.804 15.409,239.747 15.84,243.537C15.993,244.889 16.297,247.019 16.754,249.929L6.859,248.109C6.399,248.023 5.979,247.806 5.646,247.48C5.028,246.877 4.504,246.109 4.077,245.177C2.04,240.713 0.688,236.077 0.018,231.268C-0.009,231.1 -0.005,230.677 0.025,229.999C0.033,229.868 0.1,229.752 0.205,229.681C0.744,229.329 1.313,229.119 1.909,229.051C3.789,228.842 5.47,228.707 6.949,228.651C7.073,228.647 7.167,228.606 7.234,228.535L14.432,228.711Z" style="fill:white;fill-opacity:0.5;fill-rule:nonzero;"/>
    <path d="M289.844,228.681C291.907,228.583 293.937,228.639 295.929,228.849C297.337,228.999 298.565,228.89 299.786,229.658C299.884,229.718 299.944,229.823 299.955,229.935C300.011,230.624 300.015,231.13 299.966,231.452C299.228,236.369 297.865,240.99 295.869,245.316C295.341,246.454 294.618,247.342 293.693,247.978C293.63,248.019 293.555,248.049 293.48,248.064L283.612,249.794C283.515,249.866 283.417,249.836 283.32,249.701C283.286,249.652 283.271,249.592 283.283,249.532C284.462,242.664 285.005,235.605 285.563,228.684L289.844,228.681Z" style="fill:white;fill-opacity:0.5;fill-rule:nonzero;"/>
    <path d="M83.563,230.145C84.626,230.343 86.132,230.373 86.959,230.845C88.487,231.718 89.191,233.62 89.42,235.279C89.626,236.788 89.798,238.294 89.937,239.796C89.809,239.825 89.742,239.919 89.738,240.073C89.618,243.447 89.255,246.855 88.645,250.304C88.585,250.652 88.319,250.933 87.974,251.012C86.716,251.304 85.375,251.446 83.956,251.435C79.503,251.401 75.122,251.049 70.811,250.379C69.763,243.387 68.673,236.41 67.538,229.456C67.508,229.276 67.594,229.1 67.606,228.913L83.563,230.145Z" style="fill:white;fill-opacity:0.25;fill-rule:nonzero;"/>
    <path d="M232.288,228.947C232.427,229.074 232.479,229.254 232.442,229.49C231.314,236.414 230.24,243.376 229.21,250.367C225.229,250.993 221.151,251.36 216.971,251.465C215.35,251.506 213.702,251.36 212.021,251.019C211.672,250.952 211.406,250.663 211.365,250.311L210.403,242.466C210.395,242.413 210.369,242.368 210.332,242.338C210.261,242.275 210.186,242.252 210.099,242.267C210.066,239.919 210.223,237.59 210.575,235.279C211.23,230.98 214.065,229.744 218.057,230.018C218.057,230.018 230.659,229.01 232.288,228.947Z" style="fill:white;fill-opacity:0.25;fill-rule:nonzero;"/>
</svg>
