<?xml version="1.0" encoding="UTF-8" standalone="no"?>
<!DOCTYPE svg PUBLIC "-//W3C//DTD SVG 1.1//EN" "http://www.w3.org/Graphics/SVG/1.1/DTD/svg11.dtd">
<svg width="100%" height="100%" viewBox="0 0 300 300" version="1.1" xmlns="http://www.w3.org/2000/svg" xmlns:xlink="http://www.w3.org/1999/xlink" xml:space="preserve" xmlns:serif="http://www.serif.com/" style="fill-rule:evenodd;clip-rule:evenodd;stroke-linejoin:round;stroke-miterlimit:2;">
    <path d="M149.102,39.051C149.038,38.383 148.514,37.574 147.537,36.62C147.463,36.177 147.413,35.707 147.39,35.21C147.363,34.603 147.551,34.022 147.601,33.384C147.957,32.32 148.128,31.515 148.118,30.971C148.088,29.789 147.047,28.644 146.601,27.762C146.523,27.607 146.476,27.443 146.46,27.268C146.349,26.093 146.557,24.341 145.171,24.247C144.654,24.21 144.227,23.854 144.127,23.374C144.076,23.143 144.026,22.575 143.969,21.666C143.942,21.199 143.59,20.816 143.126,20.746L142.22,20.608C142.025,20.581 141.844,20.487 141.703,20.346L140.565,19.192C140.542,19.168 140.518,19.148 140.495,19.131C139.37,18.309 138.101,18.003 136.695,18.211L135.862,18.265C135.761,18.272 135.671,18.201 135.654,18.101C135.537,17.399 135.201,17 134.647,16.896C133.784,16.738 133.019,16.892 132.351,17.365C131.059,17.879 129.877,18.127 128.813,18.104C128.494,18.097 128.202,17.929 128.037,17.658C127.685,17.084 127.265,16.597 126.775,16.197C126.319,15.825 126.067,15.492 126.02,15.2C125.899,14.435 125.976,13.747 126.46,13.106C126.745,12.726 126.889,12.528 126.896,12.512C126.933,12.414 126.926,12.303 126.873,12.213C126.104,10.93 126.393,9.218 126.735,7.778C127.108,6.214 128.313,6.09 129.823,5.889C130.662,5.774 131.565,5.748 132.529,5.808C132.713,5.821 132.814,5.6 132.69,5.466C132.361,5.116 132.173,4.683 132.123,4.166C131.978,2.649 132.401,-0.251 134.486,0.017C136.661,0.296 138.947,0.712 141.344,1.266C141.445,1.29 141.552,1.249 141.609,1.162C142.734,-0.57 145.224,1.249 146.466,1.964C146.829,2.173 147.289,2.052 147.504,1.692C148.863,-0.587 151.283,0.081 153.106,1.32C154.795,2.465 156.184,3.901 157.275,5.627C157.376,5.788 157.618,5.768 157.692,5.59C158.098,4.63 158.873,4.133 160.025,4.099C162.599,4.019 164.029,6.926 164.842,9.088C165.117,9.823 165.097,10.601 164.785,11.427C164.751,11.515 164.791,11.609 164.879,11.645C167.329,12.696 168.484,14.522 168.343,17.124C168.259,18.665 166.027,20.863 164.872,21.877C164.734,21.998 164.711,22.203 164.815,22.354C165.691,23.596 166.134,25.536 165.134,26.771C164.509,27.54 163.714,27.839 162.75,27.664C162.636,27.641 162.536,27.748 162.566,27.862C163.126,29.933 163.052,31.961 161.951,33.841C160.907,35.623 159.397,36.288 157.426,35.838C157.332,35.818 157.245,35.895 157.255,35.993C157.376,36.953 157.114,37.758 156.466,38.406C154.832,40.044 151.404,39.41 149.528,38.47C149.518,38.466 149.504,38.463 149.494,38.46C149.216,38.416 149.085,38.611 149.102,39.051Z" style="fill:white;fill-opacity:0.35;fill-rule:nonzero;"/>
    <path d="M136.695,18.211C136.416,18.409 136.144,18.487 135.876,18.443C135.607,18.396 135.406,18.503 135.275,18.762C134.311,20.648 133.667,22.183 133.348,23.367C132.868,25.143 132.519,26.644 132.294,27.872C132.16,28.628 132.502,28.957 133.254,28.856C133.559,28.816 133.815,28.802 134.013,28.812C134.486,28.839 134.879,29.185 134.966,29.651C135.184,30.81 134.731,31.8 134.231,33.203C134.137,33.472 134.399,33.723 134.664,33.623C134.761,33.586 134.902,33.576 135.087,33.596C133.966,34.16 132.844,34.14 131.72,33.539C131.565,33.455 131.408,33.639 131.508,33.78C131.706,34.059 131.985,34.24 132.351,34.328C132.932,34.469 133.472,34.526 133.966,34.495C133.633,35.368 133.563,36.13 133.757,36.778C134.076,37.852 134.58,38.906 135.268,39.937C135.339,40.044 135.459,40.108 135.59,40.111C137.336,40.128 139.008,39.823 140.605,39.195C142.334,38.517 144.449,37.298 146.956,35.536C146.98,35.519 147.014,35.516 147.04,35.529C147.131,35.57 147.215,35.519 147.285,35.378C147.306,35.338 147.312,35.294 147.302,35.251C147.161,34.512 147.262,33.891 147.601,33.384C147.551,34.022 147.363,34.603 147.39,35.21C147.413,35.707 147.463,36.177 147.537,36.62C145.419,38.044 143.6,39.866 142.076,42.089C141.482,42.951 141.059,43.834 140.8,44.73C140.713,45.043 140.451,45.274 140.129,45.324C139.387,45.442 138.705,45.375 138.091,45.13C138.289,45.173 138.457,45.183 138.588,45.153C138.702,45.126 138.793,45.032 138.809,44.918C139.075,43.324 138.799,41.783 137.98,40.296C137.93,40.202 137.826,40.148 137.719,40.165C137.604,40.182 137.024,40.239 135.98,40.34C135.557,40.38 133.318,39.933 132.985,39.635C131.126,37.953 130.622,35.328 130.481,32.861C130.36,30.712 130.367,28.376 130.505,25.855C130.511,25.737 130.575,25.63 130.676,25.573C131.116,25.311 131.294,24.875 131.206,24.267C131.189,24.156 131.106,24.072 130.998,24.056L130.871,24.036C130.736,24.015 130.642,23.891 130.662,23.757L130.918,22.078C130.931,21.991 130.998,21.924 131.085,21.914C131.337,21.887 131.549,21.833 131.72,21.756C131.811,21.716 131.794,21.578 131.693,21.565L131.226,21.494C131.102,21.474 131.022,21.35 131.062,21.229L132.351,17.365C133.019,16.892 133.784,16.738 134.647,16.896C135.201,17 135.537,17.399 135.654,18.101C135.671,18.201 135.761,18.272 135.862,18.265L136.695,18.211Z" style="fill:white;fill-opacity:0.75;fill-rule:nonzero;"/>
    <path d="M147.601,33.384C147.262,33.891 147.161,34.512 147.302,35.251C147.312,35.294 147.306,35.338 147.285,35.378C147.215,35.519 147.131,35.57 147.04,35.529C147.014,35.516 146.98,35.519 146.956,35.536C144.449,37.298 142.334,38.517 140.605,39.195C139.008,39.823 137.336,40.128 135.59,40.111C135.459,40.108 135.339,40.044 135.268,39.937C134.58,38.906 134.076,37.852 133.757,36.778C133.563,36.13 133.633,35.368 133.966,34.495C135.365,34.361 136.523,33.747 137.437,32.652C137.524,32.545 137.52,32.391 137.426,32.29L137.42,32.283C137.332,32.189 137.181,32.189 137.094,32.287C136.564,32.887 135.896,33.324 135.087,33.596C134.902,33.576 134.761,33.586 134.664,33.623C134.399,33.723 134.137,33.472 134.231,33.203C134.731,31.8 135.184,30.81 134.966,29.651C134.879,29.185 134.486,28.839 134.013,28.812C133.815,28.802 133.559,28.816 133.254,28.856C132.502,28.957 132.16,28.628 132.294,27.872C132.519,26.644 132.868,25.143 133.348,23.367C133.667,22.183 134.311,20.648 135.275,18.762C135.406,18.503 135.607,18.396 135.876,18.443C136.144,18.487 136.416,18.409 136.695,18.211C138.101,18.003 139.37,18.309 140.495,19.131C140.518,19.148 140.542,19.168 140.565,19.192L141.703,20.346C141.844,20.487 142.025,20.581 142.22,20.608L143.126,20.746C143.59,20.816 143.942,21.199 143.969,21.666C144.026,22.575 144.076,23.143 144.127,23.374C144.227,23.854 144.654,24.21 145.171,24.247C146.557,24.341 146.349,26.093 146.46,27.268C146.476,27.443 146.523,27.607 146.601,27.762C147.047,28.644 148.088,29.789 148.118,30.971C148.128,31.515 147.957,32.32 147.601,33.384ZM138.225,22.981C137.554,21.864 136.631,21.296 135.456,21.273C135.255,21.269 135.07,21.377 134.976,21.555L134.946,21.612C134.879,21.743 134.979,21.897 135.127,21.884C136.339,21.773 137.299,22.172 138.007,23.089C138.044,23.139 138.115,23.153 138.168,23.119L138.195,23.099C138.235,23.075 138.249,23.022 138.225,22.981ZM135.494,23.634C135.208,23.599 134.912,24.079 134.839,24.705C134.765,25.331 134.936,25.865 135.224,25.901C135.51,25.935 135.805,25.455 135.879,24.829C135.953,24.203 135.782,23.67 135.494,23.634Z" style="fill:white;fill-opacity:0.95;fill-rule:nonzero;"/>
    <path d="M138.225,22.981C138.249,23.022 138.235,23.075 138.195,23.099L138.168,23.119C138.115,23.153 138.044,23.139 138.007,23.089C137.299,22.172 136.339,21.773 135.127,21.884C134.979,21.897 134.879,21.743 134.946,21.612L134.976,21.555C135.07,21.377 135.255,21.269 135.456,21.273C136.631,21.296 137.554,21.864 138.225,22.981Z" style="fill:white;fill-opacity:0.15;fill-rule:nonzero;"/>
    <path d="M135.494,23.634C135.782,23.67 135.953,24.203 135.879,24.829C135.805,25.455 135.51,25.935 135.224,25.901C134.936,25.865 134.765,25.331 134.839,24.705C134.912,24.079 135.208,23.599 135.494,23.634Z" style="fill:white;fill-opacity:0.15;fill-rule:nonzero;"/>
    <path d="M133.966,34.495C133.472,34.526 132.932,34.469 132.351,34.328C131.985,34.24 131.706,34.059 131.508,33.78C131.408,33.639 131.565,33.455 131.72,33.539C132.844,34.14 133.966,34.16 135.087,33.596C135.896,33.324 136.564,32.887 137.094,32.287C137.181,32.189 137.332,32.189 137.42,32.283L137.426,32.29C137.52,32.391 137.524,32.545 137.437,32.652C136.523,33.747 135.365,34.361 133.966,34.495Z" style="fill:white;fill-opacity:0.15;fill-rule:nonzero;"/>
    <path d="M147.537,36.62C148.514,37.574 149.038,38.383 149.102,39.051C149.276,41.535 151.28,43.488 153.14,45.153C153.254,45.254 153.395,45.318 153.543,45.338C155.325,45.586 156.453,45.784 158.098,45.899C163.62,46.281 168.068,53.042 170.045,57.506C170.777,59.158 171.27,60.293 171.528,60.91C171.565,60.997 171.586,61.088 171.589,61.182C171.656,62.511 170.253,63.539 169.209,64.089C166.03,65.717 161.851,66.378 158.628,64.421C158.491,64.338 158.383,64.314 158.309,64.351C158.225,64.395 158.165,64.492 158.135,64.646C158.081,65.653 158.021,66.321 157.957,66.647C157.51,68.933 156.923,72.297 156.198,76.741C155.866,78.789 155.58,81.323 155.345,84.344C155.291,85.039 155.285,85.606 155.322,86.046C155.338,86.241 155.389,86.429 155.466,86.607C156.923,89.917 157.718,91.8 157.853,92.253C158.964,95.999 159.813,99.846 160.401,103.794L160.354,104.102C160.337,104.203 160.273,104.287 160.179,104.331C158.524,105.063 157.03,105.529 155.701,105.727C153.838,106.006 151.21,106.241 147.816,106.432C144.321,106.63 140.407,106.197 136.077,105.136L131.189,103.354C129.917,102.793 128.994,102.078 128.417,101.209C127.893,100.42 127.853,99.49 128.299,98.419C129.964,94.431 131.696,90.843 133.499,87.651C134.174,86.459 134.627,85.643 134.859,85.207C134.912,85.103 134.922,84.979 134.885,84.868L133.724,81.333C133.593,80.168 133.23,78.923 132.633,77.6C132.62,77.57 132.609,77.54 132.599,77.51L129.551,67.469C129.478,67.224 129.222,67.08 128.974,67.144L125.876,67.926C125.412,68.097 124.966,68.07 124.54,67.845C124.442,67.792 124.368,67.701 124.342,67.594C123.885,65.798 123.663,64.435 123.677,63.512C123.747,59.128 124.6,54.858 126.242,50.699C126.5,50.041 127.259,49.507 127.725,49.094C129.911,47.161 132.076,46.402 134.771,45.553C135.923,45.19 137.03,45.049 138.091,45.13C138.705,45.375 139.387,45.442 140.129,45.324C140.451,45.274 140.713,45.043 140.8,44.73C141.059,43.834 141.482,42.951 142.076,42.089C143.6,39.866 145.419,38.044 147.537,36.62Z" style="fill:white;fill-opacity:0.95;fill-rule:nonzero;"/>
    <path d="M169.209,64.089C169.931,69.668 170.783,75.214 171.76,80.729C171.884,81.417 171.844,82.203 171.646,83.089C171.24,84.264 170.938,84.995 170.74,85.281C169.283,87.389 167.836,89.5 166.403,91.618L166.201,91.904L163.405,95.962C163.381,95.435 163.301,95.002 163.17,94.656C162.405,92.672 161.552,90.739 160.612,88.862C161.008,88.45 161.142,88.006 161.018,87.533C161.28,86.929 161.438,86.476 161.492,86.177C161.918,83.841 162.368,81.964 162.841,80.544C162.871,80.447 162.878,80.346 162.858,80.249L161.132,72.015C160.803,71.038 160.488,70.054 160.189,69.057C159.702,67.439 158.981,66.234 158.564,64.74C158.534,64.633 158.427,64.573 158.319,64.599L158.135,64.646C158.165,64.492 158.225,64.395 158.309,64.351C158.383,64.314 158.491,64.338 158.628,64.421C161.851,66.378 166.03,65.717 169.209,64.089Z" style="fill:white;fill-opacity:0.75;fill-rule:nonzero;"/>
    <path d="M161.132,72.015L160.854,71.803C160.787,71.753 160.693,71.79 160.679,71.874L158.568,85.811C158.554,85.915 158.578,86.019 158.638,86.107L159.897,87.866C160.075,88.369 160.313,88.701 160.612,88.862C161.552,90.739 162.405,92.672 163.17,94.656C163.301,95.002 163.381,95.435 163.405,95.962C164.127,97.748 164.472,98.967 164.449,99.614C164.392,101.182 163.345,101.978 162.344,103.058C162.307,103.099 162.307,103.163 162.348,103.203L162.358,103.216C162.391,103.246 162.442,103.25 162.475,103.22C163.338,102.471 163.945,101.85 164.298,101.357C164.885,100.534 165.023,99.577 164.717,98.487C164.623,98.154 164.415,97.604 164.096,96.838C163.908,96.388 163.955,95.872 164.224,95.459L166.403,92.115C166.436,92.065 166.426,91.998 166.382,91.957C166.332,91.914 166.272,91.894 166.201,91.904L166.403,91.618C166.483,91.783 166.574,91.813 166.674,91.702C166.678,91.699 166.678,91.692 166.681,91.689L167.718,90.105C167.839,89.92 168.047,89.819 168.266,89.839C199.863,92.746 220.327,94.63 229.655,95.489C232.146,95.717 235.61,96.201 238.615,96.425C239.635,96.503 240.367,96.966 240.81,97.818L240.807,117.224C240.807,117.312 240.776,117.395 240.723,117.463L240.28,118.01C240.206,118.1 240.273,118.238 240.39,118.231C240.461,118.228 240.498,118.228 240.501,118.231C240.592,118.295 240.558,118.436 240.451,118.456C240.162,118.507 239.826,118.483 239.44,118.386C237.477,118.275 235.416,118.09 233.26,117.825C232.935,117.785 232.616,117.735 232.297,117.671C231.928,117.597 231.609,117.547 231.34,117.523C210.293,115.6 188.846,113.626 166.997,111.602C165.735,111.484 163.818,111.44 162.193,111.105C162.458,108.58 162.546,106.113 162.448,103.7C162.438,103.455 162.143,103.34 161.968,103.512C160.907,104.559 160.384,104.653 160.401,103.794C159.813,99.846 158.964,95.999 157.853,92.253C157.718,91.8 156.923,89.917 155.466,86.607C155.389,86.429 155.338,86.241 155.322,86.046C155.285,85.606 155.291,85.039 155.345,84.344C155.58,81.323 155.866,78.789 156.198,76.741C156.923,72.297 157.51,68.933 157.957,66.647C158.021,66.321 158.081,65.653 158.135,64.646L158.319,64.599C158.427,64.573 158.534,64.633 158.564,64.74C158.981,66.234 159.702,67.439 160.189,69.057C160.488,70.054 160.803,71.038 161.132,72.015Z" style="fill:white;fill-opacity:0.6;fill-rule:nonzero;"/>
    <path d="M133.724,81.333C132.935,84.254 132.045,87.093 131.049,89.856C129.87,93.129 128.709,95.61 127.571,97.305C126.104,99.49 124.254,101.511 122.029,103.371C121.905,103.475 121.223,103.921 119.984,104.717C119.884,104.781 119.827,104.895 119.833,105.012C119.847,105.23 120.031,105.391 119.981,105.677C119.679,107.325 119.236,108.859 118.648,110.286C118.454,110.762 117.762,110.702 117.648,110.202C117.517,109.614 117.45,109.04 117.45,108.48C117.453,107.667 117.175,107.479 116.621,107.154C116.52,107.093 116.393,107.093 116.289,107.15C115.782,107.443 115.379,107.812 115.08,108.258C114.375,109.309 113.724,110.591 113.13,112.102C112.989,112.461 112.754,112.609 112.421,112.552C111.32,112.36 109.353,109.185 109.085,108.577C108.93,108.225 108.846,107.627 108.836,106.778C108.833,106.65 108.857,106.523 108.907,106.402C109.461,105.036 110.297,103.898 111.408,102.985C112.972,101.706 113.962,100.934 114.379,100.672C114.473,100.615 114.66,100.588 114.939,100.591C115.05,100.595 115.154,100.554 115.235,100.477C116.124,99.611 116.618,99.108 116.715,98.97C118.35,96.65 119.605,94.129 120.481,91.41C122.257,85.905 123.345,82.213 123.751,80.336C124.462,77.023 125.006,74.029 125.382,71.347C125.543,70.192 125.708,69.051 125.876,67.926L128.974,67.144C129.222,67.08 129.478,67.224 129.551,67.469L132.599,77.51C132.609,77.54 132.62,77.57 132.633,77.6C133.23,78.923 133.593,80.168 133.724,81.333Z" style="fill:white;fill-opacity:0.75;fill-rule:nonzero;"/>
    <path d="M256.211,87.426C255.946,88.043 255.674,88.44 255.395,88.617C250.551,91.702 245.691,94.771 240.81,97.818C240.367,96.966 239.635,96.503 238.615,96.425C235.61,96.201 232.146,95.717 229.655,95.489C220.327,94.63 199.863,92.746 168.266,89.839C168.047,89.819 167.839,89.92 167.718,90.105L166.681,91.689C166.678,91.692 166.678,91.699 166.674,91.702C166.574,91.813 166.483,91.783 166.403,91.618C167.836,89.5 169.283,87.389 170.74,85.281C170.938,84.995 171.24,84.264 171.646,83.089C172.032,83.129 172.207,82.807 172.535,82.716C172.868,82.626 173.126,82.542 173.304,82.468C177.604,80.635 180.088,79.625 180.76,79.437C181.565,79.208 182.723,79.175 184.237,79.336C185.792,79.5 187.245,79.648 188.595,79.779C188.816,79.799 189.044,79.823 189.279,79.846C205.926,81.528 222.838,83.166 240.014,84.764C240.085,84.771 240.152,84.784 240.219,84.804C240.8,84.992 241.397,85.113 242.012,85.17C242.435,85.207 246.899,85.627 255.405,86.436C255.785,86.472 256.053,86.801 256.211,87.426Z" style="fill:white;fill-opacity:0.4;fill-rule:nonzero;"/>
    <path d="M195.637,204.999L195.241,204.623C195.614,204.341 195.802,204.055 195.808,203.763C195.926,199.302 195.933,192.864 195.828,184.445L208.799,176.348C209.269,176.539 209.628,176.596 209.873,176.519C209.92,176.506 209.954,176.462 209.951,176.415C209.951,176.412 209.931,176.392 209.887,176.361C209.833,176.325 209.837,176.244 209.89,176.21C210.364,175.918 210.602,175.422 210.605,174.727C210.652,166.402 210.649,160.131 210.592,155.912L224.774,146.952C225.013,146.929 225.348,146.949 225.785,147.013C226.124,146.677 226.402,146.301 226.621,145.888C226.684,145.764 226.718,145.63 226.718,145.492L226.708,126.395L239.44,118.386C239.826,118.483 240.162,118.507 240.451,118.456C240.558,118.436 240.592,118.295 240.501,118.231C240.498,118.228 240.461,118.228 240.39,118.231C240.273,118.238 240.206,118.1 240.28,118.01L240.723,117.463C240.776,117.395 240.807,117.312 240.807,117.224L240.81,97.818C245.691,94.771 250.551,91.702 255.395,88.617C255.674,88.44 255.946,88.043 256.211,87.426C256.517,87.684 256.668,87.973 256.671,88.292C256.674,92.968 256.674,99.426 256.674,107.674C256.674,108.111 256.711,108.554 256.788,109.007C257.06,110.598 255.614,110.692 254.59,111.212C248.685,114.223 244.768,116.231 242.837,117.234C242.68,117.318 242.582,117.479 242.582,117.657C242.566,123.223 242.566,129.547 242.582,136.627C242.582,136.899 242.626,137.261 242.713,137.721C242.801,138.174 242.609,138.651 242.223,138.946C241.904,139.188 241.481,139.379 240.948,139.517C240.921,139.524 240.894,139.534 240.87,139.547L226.829,146.744C226.607,146.855 226.47,147.083 226.466,147.332C226.46,151.142 226.46,157.422 226.47,166.167C226.47,166.929 226.94,167.704 226.178,168.423C225.886,168.694 225.466,168.896 224.912,169.02C224.872,169.03 224.835,169.044 224.798,169.064L212.035,175.603C211.827,175.714 211.696,175.928 211.693,176.163L211.693,194.616C211.693,194.868 211.747,195.297 211.854,195.912C211.871,196.019 211.867,196.126 211.837,196.231C211.549,197.281 210.652,197.301 209.837,197.714C205.087,200.114 200.353,202.541 195.637,204.999Z" style="fill:white;fill-opacity:0.25;fill-rule:nonzero;"/>
    <path d="M161.018,87.533C161.142,88.006 161.008,88.45 160.612,88.862C160.313,88.701 160.075,88.369 159.897,87.866C160.297,87.822 160.672,87.711 161.018,87.533Z" style="fill:white;fill-opacity:0.4;fill-rule:nonzero;"/>
    <path d="M163.405,95.962L166.201,91.904C166.272,91.894 166.332,91.914 166.382,91.957C166.426,91.998 166.436,92.065 166.403,92.115L164.224,95.459C163.955,95.872 163.908,96.388 164.096,96.838C164.415,97.604 164.623,98.154 164.717,98.487C165.023,99.577 164.885,100.534 164.298,101.357C163.945,101.85 163.338,102.471 162.475,103.22C162.442,103.25 162.391,103.246 162.358,103.216L162.348,103.203C162.307,103.163 162.307,103.099 162.344,103.058C163.345,101.978 164.392,101.182 164.449,99.614C164.472,98.967 164.127,97.748 163.405,95.962Z" style="fill:white;fill-opacity:0.35;fill-rule:nonzero;"/>
    <path d="M136.077,105.136C135.691,106.053 135.58,107.009 135.745,108.013C135.909,108.997 135.99,109.5 135.993,109.524C137.074,120.467 138.209,131.404 139.4,142.337C139.417,142.481 139.414,142.625 139.397,142.77L139.246,142.387C139.209,142.293 139.075,142.286 139.028,142.377L136.342,147.698L133.841,152.528C133.727,152.756 133.707,153.021 133.794,153.26L139.894,170.03L142.804,178.188C143.432,180.104 144.096,181.894 144.805,183.548C145.11,184.26 145.221,184.878 145.144,185.401C145.134,185.465 145.218,185.68 145.389,186.039C145.443,186.157 145.446,186.288 145.402,186.408C145.352,186.553 145.275,186.657 145.171,186.727C145.097,186.781 145.053,186.865 145.05,186.952L145.036,187.499C144.946,187.389 144.845,187.328 144.734,187.318C144.657,187.315 144.553,187.365 144.422,187.473C142.609,188.99 140.918,189.346 138.145,190.316C137.45,190.557 136.799,190.873 136.184,191.262C136.168,191.027 136.017,190.923 135.728,190.954C135.342,190.991 135.013,191.027 134.738,191.068C134.479,191.105 134.224,190.984 134.09,190.759L125.624,176.59L122.421,171.383L114.244,157.872C114.107,157.644 114.023,157.389 113.999,157.127C113.768,154.646 113.828,152.233 114.187,149.89C114.963,144.838 116.164,139.863 117.92,134.733C118.83,132.078 119.595,129.796 120.213,127.886C121.988,122.401 124.053,116.973 126.406,111.605C127.675,108.708 129.034,105.999 131.042,103.774C131.112,103.696 131.156,103.602 131.169,103.498C131.176,103.455 131.183,103.408 131.189,103.354L136.077,105.136Z" style="fill:white;fill-opacity:0.7;fill-rule:nonzero;"/>
    <path d="M162.193,111.105C161.985,111.968 161.962,112.827 162.126,113.679C162.129,113.686 162.129,113.693 162.129,113.7L161.935,118.372C161.931,118.433 161.921,118.49 161.901,118.544L161.693,119.074C161.723,119.775 161.656,120.353 161.485,120.813C161.445,120.92 161.441,121.041 161.475,121.152L161.599,121.561C161.616,121.618 161.619,121.675 161.616,121.733C161.451,123.401 161.344,124.858 161.297,126.106C161.26,127.067 161.179,128.147 161.055,129.352C161.015,129.732 160.961,130.816 160.894,132.599C160.877,133.082 160.82,133.481 160.726,133.8C160.595,134.24 160.904,134.593 160.656,135.015C160.592,135.12 160.589,135.247 160.646,135.355C160.884,135.814 160.444,136.039 160.619,136.492C160.696,136.684 160.676,136.875 160.565,137.066C160.508,137.164 160.491,137.261 160.521,137.352C160.531,137.382 160.558,137.473 160.605,137.62C160.639,137.728 160.632,137.842 160.592,137.946C160.427,138.379 160.357,138.819 160.384,139.258C160.394,139.393 160.37,139.655 160.32,140.041C160.283,140.292 160.323,140.554 160.441,140.829C160.236,140.997 160.166,141.222 160.233,141.504C160.253,141.581 160.253,141.632 160.229,141.655C160.203,141.685 160.169,141.722 160.132,141.766C160.058,141.853 160.048,141.978 160.102,142.078C160.263,142.367 160.263,142.609 160.098,142.807C160.038,142.884 160.018,142.981 160.045,143.075L160.179,143.515C160.206,143.602 160.182,143.7 160.119,143.763C159.998,143.888 159.968,144.042 160.031,144.223C160.062,144.311 160.041,144.404 159.978,144.468C159.83,144.616 159.84,144.747 160.004,144.861C160.102,144.925 160.156,145.039 160.145,145.153L159.766,149.91L159.182,156.664C159.169,156.831 159.122,156.996 159.041,157.15C158.769,157.677 158.648,158.305 158.685,159.034C158.863,162.635 158.984,166.053 159.051,169.292C159.068,170.051 159.088,170.86 159.118,171.722L159.347,179.765L159.736,196.778C159.739,196.862 159.662,196.929 159.578,196.912C158.836,196.774 158.125,196.838 157.45,197.097L147.833,196.784C147.544,196.452 147.195,196.348 146.789,196.472C146.272,196.63 145.745,196.774 145.211,196.912C145.516,196.677 145.879,196.516 146.299,196.429C146.614,196.361 146.822,196.063 146.775,195.747L145.782,189.087C146.107,188.976 146.151,188.621 145.906,188.026C145.845,187.879 145.812,187.721 145.812,187.56C145.808,186.791 145.714,186.137 145.537,185.603C145.318,184.945 145.627,184.384 145.305,183.72C145.181,183.468 145.12,183.055 145.12,182.481C145.12,181.93 144.999,181.35 144.761,180.739C144.711,180.611 144.697,180.474 144.724,180.339C144.838,179.779 144.751,179.258 144.466,178.778L143.281,170.977C143.452,170.185 143.016,169.561 143.036,168.862C143.053,168.261 142.985,167.741 142.828,167.305C142.724,167.016 142.683,166.751 142.707,166.506C142.777,165.804 142.442,165.224 142.385,164.572C142.334,163.992 142.015,161.883 141.428,158.245C141.404,158.094 141.361,157.946 141.3,157.805C141.062,157.238 140.921,156.751 140.884,156.341C140.592,153.354 140.27,150.36 139.914,147.359L139.397,142.77C139.414,142.625 139.417,142.481 139.4,142.337C138.209,131.404 137.074,120.467 135.993,109.524C135.99,109.5 135.909,108.997 135.745,108.013C135.58,107.009 135.691,106.053 136.077,105.136C140.407,106.197 144.321,106.63 147.816,106.432C151.21,106.241 153.838,106.006 155.701,105.727C157.03,105.529 158.524,105.063 160.179,104.331C160.273,104.287 160.337,104.203 160.354,104.102L160.401,103.794C160.384,104.653 160.907,104.559 161.968,103.512C162.143,103.34 162.438,103.455 162.448,103.7C162.546,106.113 162.458,108.58 162.193,111.105Z" style="fill:white;fill-opacity:0.85;fill-rule:nonzero;"/>
    <path d="M162.193,111.105C163.818,111.44 165.735,111.484 166.997,111.602C188.846,113.626 210.293,115.6 231.34,117.523C231.609,117.547 231.928,117.597 232.297,117.671C232.616,117.735 232.935,117.785 233.26,117.825C235.416,118.09 237.477,118.275 239.44,118.386L226.708,126.395C226.339,125.553 225.721,125.089 224.858,125.012C221.401,124.703 217.634,124.213 214.503,123.925C196.899,122.296 179.296,120.682 161.693,119.074L161.901,118.544C161.921,118.49 161.931,118.433 161.935,118.372L162.129,113.7C162.129,113.693 162.129,113.686 162.126,113.679C161.962,112.827 161.985,111.968 162.193,111.105Z" style="fill:white;fill-opacity:0.4;fill-rule:nonzero;"/>
    <path d="M226.708,126.395L226.718,145.492C226.718,145.63 226.684,145.764 226.621,145.888C226.402,146.301 226.124,146.677 225.785,147.013C225.348,146.949 225.013,146.929 224.774,146.952C222.874,146.748 221.055,146.58 219.316,146.442C218.709,146.395 217.906,146.12 217.185,146.056C198.266,144.321 179.35,142.578 160.441,140.829C160.323,140.554 160.283,140.292 160.32,140.041C160.37,139.655 160.394,139.393 160.384,139.258C160.357,138.819 160.427,138.379 160.592,137.946C160.632,137.842 160.639,137.728 160.605,137.62C160.558,137.473 160.531,137.382 160.521,137.352C160.491,137.261 160.508,137.164 160.565,137.066C160.676,136.875 160.696,136.684 160.619,136.492C160.444,136.039 160.884,135.814 160.646,135.355C160.589,135.247 160.592,135.12 160.656,135.015C160.904,134.593 160.595,134.24 160.726,133.8C160.82,133.481 160.877,133.082 160.894,132.599C160.961,130.816 161.015,129.732 161.055,129.352C161.179,128.147 161.26,127.067 161.297,126.106C161.344,124.858 161.451,123.401 161.616,121.733C161.619,121.675 161.616,121.618 161.599,121.561L161.475,121.152C161.441,121.041 161.445,120.92 161.485,120.813C161.656,120.353 161.723,119.775 161.693,119.074C179.296,120.682 196.899,122.296 214.503,123.925C217.634,124.213 221.401,124.703 224.858,125.012C225.721,125.089 226.339,125.553 226.708,126.395Z" style="fill:white;fill-opacity:0.6;fill-rule:nonzero;"/>
    <path d="M224.774,146.952L210.592,155.912C210.216,155.076 209.602,154.623 208.749,154.549C205.563,154.28 202.045,153.81 199.216,153.545C186.074,152.327 172.922,151.115 159.766,149.91L160.145,145.153C160.156,145.039 160.102,144.925 160.004,144.861C159.84,144.747 159.83,144.616 159.978,144.468C160.041,144.404 160.062,144.311 160.031,144.223C159.968,144.042 159.998,143.888 160.119,143.763C160.182,143.7 160.206,143.602 160.179,143.515L160.045,143.075C160.018,142.981 160.038,142.884 160.098,142.807C160.263,142.609 160.263,142.367 160.102,142.078C160.048,141.978 160.058,141.853 160.132,141.766C160.169,141.722 160.203,141.685 160.229,141.655C160.253,141.632 160.253,141.581 160.233,141.504C160.166,141.222 160.236,140.997 160.441,140.829C179.35,142.578 198.266,144.321 217.185,146.056C217.906,146.12 218.709,146.395 219.316,146.442C221.055,146.58 222.874,146.748 224.774,146.952Z" style="fill:white;fill-opacity:0.4;fill-rule:nonzero;"/>
    <path d="M139.397,142.77L139.914,147.359L139.79,147.855C139.763,147.966 139.659,148.037 139.548,148.027L136.342,147.698L139.028,142.377C139.075,142.286 139.209,142.293 139.246,142.387L139.397,142.77Z" style="fill:white;fill-opacity:0.4;fill-rule:nonzero;"/>
    <path d="M143.281,170.977C143.217,170.464 142.922,170.192 142.391,170.158C141.596,170.108 140.763,170.067 139.894,170.03L133.794,153.26C133.707,153.021 133.727,152.756 133.841,152.528L136.342,147.698L139.548,148.027C139.659,148.037 139.763,147.966 139.79,147.855L139.914,147.359C140.27,150.36 140.592,153.354 140.884,156.341C140.921,156.751 141.062,157.238 141.3,157.805C141.361,157.946 141.404,158.094 141.428,158.245C142.015,161.883 142.334,163.992 142.385,164.572C142.442,165.224 142.777,165.804 142.707,166.506C142.683,166.751 142.724,167.016 142.828,167.305C142.985,167.741 143.053,168.261 143.036,168.862C143.016,169.561 143.452,170.185 143.281,170.977Z" style="fill:white;fill-opacity:0.6;fill-rule:nonzero;"/>
    <path d="M159.766,149.91C172.922,151.115 186.074,152.327 199.216,153.545C202.045,153.81 205.563,154.28 208.749,154.549C209.602,154.623 210.216,155.076 210.592,155.912C210.649,160.131 210.652,166.402 210.605,174.727C210.602,175.422 210.364,175.918 209.89,176.21C209.837,176.244 209.833,176.325 209.887,176.361C209.931,176.392 209.951,176.412 209.951,176.415C209.954,176.462 209.92,176.506 209.873,176.519C209.628,176.596 209.269,176.539 208.799,176.348C207.044,176.348 205.107,176.214 202.989,175.942C202.425,175.871 201.77,175.657 201.142,175.599C187.134,174.321 173.126,173.028 159.118,171.722C159.088,170.86 159.068,170.051 159.051,169.292C158.984,166.053 158.863,162.635 158.685,159.034C158.648,158.305 158.769,157.677 159.041,157.15C159.122,156.996 159.169,156.831 159.182,156.664L159.766,149.91Z" style="fill:white;fill-opacity:0.6;fill-rule:nonzero;"/>
    <path d="M143.281,170.977L144.466,178.778C144.368,179.01 144.248,178.94 144.1,178.567C144.063,178.47 143.976,178.399 143.872,178.379L142.804,178.188L139.894,170.03C140.763,170.067 141.596,170.108 142.391,170.158C142.922,170.192 143.217,170.464 143.281,170.977Z" style="fill:white;fill-opacity:0.4;fill-rule:nonzero;"/>
    <path d="M125.624,176.59L112.915,175.542C112.932,175.398 112.992,175.304 113.093,175.264C116.178,173.992 119.286,172.696 122.421,171.383L125.624,176.59Z" style="fill:white;fill-opacity:0.4;fill-rule:nonzero;"/>
    <path d="M208.799,176.348L195.828,184.445C195.335,183.508 194.378,183.011 192.965,182.958C190.239,182.854 186.738,182.286 184.039,182.038C175.839,181.279 167.608,180.521 159.347,179.765L159.118,171.722C173.126,173.028 187.134,174.321 201.142,175.599C201.77,175.657 202.425,175.871 202.989,175.942C205.107,176.214 207.044,176.348 208.799,176.348Z" style="fill:white;fill-opacity:0.4;fill-rule:nonzero;"/>
    <path d="M125.624,176.59L134.09,190.759C134.224,190.984 134.479,191.105 134.738,191.068C135.013,191.027 135.342,190.991 135.728,190.954C136.017,190.923 136.168,191.027 136.184,191.262L127.588,198.506C125.345,198.147 123.167,197.889 121.052,197.734C120.656,197.704 120.229,197.56 119.763,197.516C117.034,197.261 114.721,197.086 112.831,196.989C112.767,196.331 112.734,195.707 112.73,195.119C112.693,185.603 112.69,179.225 112.727,175.985C112.73,175.798 112.791,175.65 112.915,175.542L125.624,176.59Z" style="fill:white;fill-opacity:0.6;fill-rule:nonzero;"/>
    <path d="M144.466,178.778C144.751,179.258 144.838,179.779 144.724,180.339C144.697,180.474 144.711,180.611 144.761,180.739C144.999,181.35 145.12,181.93 145.12,182.481C145.12,183.055 145.181,183.468 145.305,183.72C145.627,184.384 145.318,184.945 145.537,185.603C145.714,186.137 145.808,186.791 145.812,187.56C145.812,187.721 145.845,187.879 145.906,188.026C146.151,188.621 146.107,188.976 145.782,189.087L145.036,187.499L145.05,186.952C145.053,186.865 145.097,186.781 145.171,186.727C145.275,186.657 145.352,186.553 145.402,186.408C145.446,186.288 145.443,186.157 145.389,186.039C145.218,185.68 145.134,185.465 145.144,185.401C145.221,184.878 145.11,184.26 144.805,183.548C144.096,181.894 143.432,180.104 142.804,178.188L143.872,178.379C143.976,178.399 144.063,178.47 144.1,178.567C144.248,178.94 144.368,179.01 144.466,178.778Z" style="fill:white;fill-opacity:0.6;fill-rule:nonzero;"/>
    <path d="M195.828,184.445C195.933,192.864 195.926,199.302 195.808,203.763C195.802,204.055 195.614,204.341 195.241,204.623C194.889,204.8 194.519,204.878 194.14,204.847C192.243,204.696 190.327,204.498 188.386,204.247C186.302,203.975 184.59,203.783 183.257,203.666C181.253,203.488 179.538,203.327 178.108,203.189C173.391,202.736 169.34,202.337 165.953,201.998C163.519,201.752 161.075,201.554 158.625,201.407C158.071,200.014 157.682,198.577 157.45,197.097C158.125,196.838 158.836,196.774 159.578,196.912C159.662,196.929 159.739,196.862 159.736,196.778L159.347,179.765C167.608,180.521 175.839,181.279 184.039,182.038C186.738,182.286 190.239,182.854 192.965,182.958C194.378,183.011 195.335,183.508 195.828,184.445Z" style="fill:white;fill-opacity:0.6;fill-rule:nonzero;"/>
    <path d="M145.036,187.499L145.782,189.087L146.775,195.747C146.822,196.063 146.614,196.361 146.299,196.429C145.879,196.516 145.516,196.677 145.211,196.912L138.873,199.255C135.59,200.477 132.287,201.685 128.961,202.884C126.943,203.612 124.906,202.471 125.943,200.061C125.976,199.987 126.023,199.923 126.08,199.869L127.588,198.506L136.184,191.262C136.799,190.873 137.45,190.557 138.145,190.316C140.918,189.346 142.609,188.99 144.422,187.473C144.553,187.365 144.657,187.315 144.734,187.318C144.845,187.328 144.946,187.389 145.036,187.499Z" style="fill:white;fill-opacity:0.95;fill-rule:nonzero;"/>
    <path d="M147.833,196.784L140.599,200.051L138.873,199.255L145.211,196.912C145.745,196.774 146.272,196.63 146.789,196.472C147.195,196.348 147.544,196.452 147.833,196.784Z" style="fill:white;fill-opacity:0.95;fill-rule:nonzero;"/>
    <path d="M157.45,197.097C157.682,198.577 158.071,200.014 158.625,201.407C159.024,203.454 158.272,204.529 156.369,204.633C153.814,204.77 147.581,205.217 137.661,205.965C136.255,206.069 135.288,205.65 134.754,204.7C134.701,204.599 134.674,204.485 134.677,204.371C134.728,203.367 135.013,202.709 135.537,202.394C136.278,201.947 137.964,201.165 140.599,200.051L147.833,196.784L157.45,197.097Z" style="fill:white;fill-opacity:0.95;fill-rule:nonzero;"/>
    <path d="M112.831,196.989C114.721,197.086 117.034,197.261 119.763,197.516C120.229,197.56 120.656,197.704 121.052,197.734C123.167,197.889 125.345,198.147 127.588,198.506L126.08,199.869C126.023,199.923 125.976,199.987 125.943,200.061C124.906,202.471 126.943,203.612 128.961,202.884C132.287,201.685 135.59,200.477 138.873,199.255L140.599,200.051C137.964,201.165 136.278,201.947 135.537,202.394C135.013,202.709 134.728,203.367 134.677,204.371C134.674,204.485 134.701,204.599 134.754,204.7C135.288,205.65 136.255,206.069 137.661,205.965C147.581,205.217 153.814,204.77 156.369,204.633C158.272,204.529 159.024,203.454 158.625,201.407C161.075,201.554 163.519,201.752 165.953,201.998C169.34,202.337 173.391,202.736 178.108,203.189C179.538,203.327 181.253,203.488 183.257,203.666C184.59,203.783 186.302,203.975 188.386,204.247C190.327,204.498 192.243,204.696 194.14,204.847C194.519,204.878 194.889,204.8 195.241,204.623L195.637,204.999C195.473,205.311 195.533,205.609 195.812,205.898C195.526,206.526 195.248,206.932 194.969,207.11C190.115,210.205 185.251,213.276 180.38,216.328C179.994,215.505 179.31,215.046 178.323,214.948C175.399,214.663 172.609,214.394 169.961,214.149C144.533,211.803 119.112,209.43 93.69,207.026C92.754,206.935 91.827,206.888 90.918,206.882C89.901,206.875 89.333,207.127 89.212,207.64C89.115,207.107 89.233,206.714 89.572,206.465C89.582,206.455 89.984,206.291 90.773,205.969C97.01,203.414 103.257,200.883 109.511,198.376C110.626,197.929 111.733,197.466 112.831,196.989Z" style="fill:white;fill-opacity:0.4;fill-rule:nonzero;"/>
    <path d="M180.313,236.815L180.001,236.324C180.246,236.079 180.37,235.854 180.374,235.653C180.498,230.567 180.498,224.126 180.38,216.328C185.251,213.276 190.115,210.205 194.969,207.11C195.248,206.932 195.526,206.526 195.812,205.898C196.107,206.23 196.255,206.529 196.251,206.788C196.228,218.05 196.245,224.649 196.302,226.59C196.312,227.023 196.342,227.392 196.389,227.697C196.463,228.167 196.268,228.641 195.886,228.923C195.6,229.131 195.214,229.309 194.721,229.453C194.644,229.476 194.566,229.507 194.496,229.544L180.313,236.815Z" style="fill:white;fill-opacity:0.25;fill-rule:nonzero;"/>
    <path d="M180.38,216.328C180.498,224.126 180.498,230.567 180.374,235.653C180.37,235.854 180.246,236.079 180.001,236.324L179.417,236.788C179.33,236.858 179.222,236.888 179.112,236.878L89.31,228.5L89.212,207.64C89.333,207.127 89.901,206.875 90.918,206.882C91.827,206.888 92.754,206.935 93.69,207.026C119.112,209.43 144.533,211.803 169.961,214.149C172.609,214.394 175.399,214.663 178.323,214.948C179.31,215.046 179.994,215.505 180.38,216.328Z" style="fill:white;fill-opacity:0.6;fill-rule:nonzero;"/>
    <path d="M89.31,228.5L179.112,236.878C179.222,236.888 179.33,236.858 179.417,236.788L180.001,236.324L180.313,236.815C180.021,237.093 179.917,237.311 179.998,237.472C179.82,238.04 179.538,238.446 179.145,238.698C176.92,240.134 172.072,243.196 164.607,247.885C164.063,246.724 163.012,246.509 161.831,246.398C112.875,241.853 81.545,238.966 67.843,237.738C66.819,237.647 66.111,237.902 65.711,238.506C65.611,238.167 65.678,237.865 65.913,237.593C66.06,237.425 66.336,237.264 66.742,237.11C74.261,234.23 81.784,231.36 89.31,228.5Z" style="fill:white;fill-opacity:0.4;fill-rule:nonzero;"/>
    <path d="M164.838,268.224C164.691,268.278 164.439,268.214 164.08,268.033C164.435,267.701 164.617,267.174 164.623,266.452C164.694,260.269 164.691,254.079 164.607,247.885C172.072,243.196 176.92,240.134 179.145,238.698C179.538,238.446 179.82,238.04 179.998,237.472C180.303,237.754 180.454,238.127 180.454,238.59C180.444,243.75 180.451,250.296 180.478,258.228C180.478,258.399 180.528,258.758 180.632,259.305C180.649,259.386 180.646,259.473 180.629,259.554C180.505,260.114 180.263,260.47 179.904,260.621C179.471,260.806 179.085,260.98 178.742,261.151C174.093,263.464 169.457,265.824 164.838,268.224Z" style="fill:white;fill-opacity:0.25;fill-rule:nonzero;"/>
    <path d="M164.607,247.885C164.691,254.079 164.694,260.269 164.623,266.452C164.617,267.174 164.435,267.701 164.08,268.033C163.955,268.107 163.848,268.211 163.757,268.342C163.7,268.426 163.6,268.473 163.499,268.463L66.718,259.396C66.05,258.892 65.718,258.14 65.715,257.137C65.711,250.984 65.708,244.774 65.711,238.506C66.111,237.902 66.819,237.647 67.843,237.738C81.545,238.966 112.875,241.853 161.831,246.398C163.012,246.509 164.063,246.724 164.607,247.885Z" style="fill:white;fill-opacity:0.6;fill-rule:nonzero;"/>
    <path d="M164.08,268.033C164.439,268.214 164.691,268.278 164.838,268.224L165.271,269.023C164.993,269.651 164.66,270.087 164.281,270.329C159.447,273.38 154.627,276.422 149.82,279.456C149.494,278.731 149.115,278.325 148.675,278.241C148.249,278.161 147.823,278.1 147.393,278.06C113.439,274.898 79.478,271.759 45.517,268.641C44.728,268.57 44.019,268.704 43.388,269.043C43.194,268.832 43.251,268.6 43.56,268.349C43.751,268.191 44.211,267.973 44.933,267.701C52.18,264.965 59.444,262.195 66.718,259.396L163.499,268.463C163.6,268.473 163.7,268.426 163.757,268.342C163.848,268.211 163.955,268.107 164.08,268.033Z" style="fill:white;fill-opacity:0.4;fill-rule:nonzero;"/>
    <path d="M149.82,279.456C149.887,285.861 149.887,292.269 149.82,298.677C149.817,299.231 149.441,299.674 148.692,300L44.627,290.349C44.583,290.346 44.489,290.319 44.375,290.282C43.613,290.02 43.224,289.295 43.207,288.103C43.15,283.112 43.177,276.965 43.291,269.658C43.294,269.453 43.325,269.248 43.388,269.043C44.019,268.704 44.728,268.57 45.517,268.641C79.478,271.759 113.439,274.898 147.393,278.06C147.823,278.1 148.249,278.161 148.675,278.241C149.115,278.325 149.494,278.731 149.82,279.456Z" style="fill:white;fill-opacity:0.6;fill-rule:nonzero;"/>
    <path d="M148.692,300C149.441,299.674 149.817,299.231 149.82,298.677C149.887,292.269 149.887,285.861 149.82,279.456C154.627,276.422 159.447,273.38 164.281,270.329C164.66,270.087 164.993,269.651 165.271,269.023C165.563,269.342 165.708,269.688 165.708,270.06C165.661,280.893 165.678,287.466 165.755,289.782C165.795,291.007 166.174,291.766 164.751,292.336C164.556,292.417 164.258,292.555 163.851,292.746C162.378,293.441 157.765,295.791 150.015,299.792C149.796,299.903 149.353,299.973 148.692,300Z" style="fill:white;fill-opacity:0.25;fill-rule:nonzero;"/>
</svg>
