<?xml version="1.0" encoding="UTF-8" standalone="no"?>
<!DOCTYPE svg PUBLIC "-//W3C//DTD SVG 1.1//EN" "http://www.w3.org/Graphics/SVG/1.1/DTD/svg11.dtd">
<svg width="100%" height="100%" viewBox="0 0 300 300" version="1.1" xmlns="http://www.w3.org/2000/svg" xmlns:xlink="http://www.w3.org/1999/xlink" xml:space="preserve" xmlns:serif="http://www.serif.com/" style="fill-rule:evenodd;clip-rule:evenodd;stroke-linejoin:round;stroke-miterlimit:2;">
    <path d="M183.194,101.576C184.749,101.41 189.028,101.365 196.041,101.439C199.491,101.477 202.493,101.875 203.414,105.64C204.467,109.949 202.547,114.174 197.571,114.224C192.022,114.278 187.233,114.266 183.198,114.187C183.057,114.183 182.945,114.295 182.945,114.436L182.945,132.362C182.945,132.453 183.015,132.524 183.102,132.524C186.677,132.524 189.157,132.524 190.542,132.528C191.972,132.532 193.171,132.636 194.137,132.847C198.043,133.689 198.811,137.824 197.936,141.261C197.538,142.816 196.571,143.986 195.041,144.765C194.183,145.201 192.657,145.404 190.463,145.371C188.344,145.338 185.889,145.329 183.094,145.346C183.011,145.346 182.945,145.412 182.945,145.495L182.945,175.07C182.945,175.22 183.032,175.356 183.165,175.423C193.913,180.685 202.58,188.373 209.165,198.479C215.8,208.668 219.346,219.86 219.802,232.064C219.947,235.933 219.706,239.968 219.084,244.169C217.21,256.862 211.438,268.975 202.771,278.488C196.02,285.898 187.925,291.509 178.483,295.328C162.961,301.606 144.927,301.573 129.318,295.133C120.502,291.496 112.864,286.246 106.399,279.387C100.875,273.528 97.268,267.76 93.967,260.619C91.657,255.622 90.027,249.783 89.078,243.103C87.378,231.127 89.244,218.197 94.303,207.225C100.063,194.722 108.85,184.902 120.66,177.766C120.747,177.716 120.801,177.621 120.801,177.517L120.801,41.721C120.801,36.094 120.817,32.967 120.851,32.337C121.659,17.811 127.56,4.537 142.895,0.991C147.233,-0.008 151.757,-0.253 156.468,0.261C175.783,2.368 182.941,17.724 182.949,35.41C182.949,35.526 183.044,35.617 183.161,35.613C189.605,35.397 194.751,35.406 198.595,35.634C201.033,35.779 202.937,37.384 203.455,39.909C204.342,44.234 202.481,48.244 197.575,48.286C191.342,48.34 186.548,48.327 183.198,48.248C183.057,48.244 182.945,48.356 182.945,48.497L182.945,68.414C182.945,68.572 183.078,68.705 183.235,68.7C187.336,68.601 190.712,68.642 193.362,68.825C199.341,69.231 199.876,78.533 195.116,80.9C194.22,81.344 192.578,81.547 190.194,81.506C188.108,81.468 185.744,81.464 183.094,81.497C183.011,81.497 182.945,81.564 182.945,81.647L182.945,101.352C182.945,101.485 183.061,101.589 183.194,101.576ZM173.847,181.912L173.428,181.096C173.337,180.917 173.283,180.722 173.266,180.519C173.187,179.445 173.051,178.325 173.051,177.26C173.046,90.16 173.046,43.421 173.051,37.044C173.055,33.386 172.756,29.667 172.171,26.673C170.579,18.503 166.557,12.32 157.998,10.579C152.205,9.397 144.438,9.77 139.428,13.112C134.046,16.699 131.798,23.334 131.13,29.671C130.931,31.562 130.695,33.834 130.695,36.032L130.695,182.986C130.695,183.521 130.388,184.007 129.903,184.231C118.155,189.638 108.655,199.744 103.388,211.384C101.771,214.958 100.564,218.608 99.768,222.331C98.86,226.569 98.412,230.393 98.416,233.797C98.429,242.294 100.15,250.248 103.579,257.662C106.967,264.981 111.765,271.318 117.977,276.671C123.907,281.776 130.911,285.533 138.989,287.934C141.68,288.734 145.08,289.356 149.182,289.792C155.539,290.472 162.298,289.754 168.157,288.228C176.886,285.952 184.658,281.764 191.462,275.664C198.885,269.012 204.214,260.656 207.448,250.596C208.514,247.283 209.277,243.157 209.737,238.222C209.999,235.448 209.974,232.57 209.667,229.592C209.331,226.321 208.862,223.476 208.261,221.054C204.38,205.321 193.851,191.977 179.358,184.654C177.641,183.787 176.09,183.119 174.705,182.651C174.332,182.522 174.025,182.257 173.847,181.912Z" style="fill:white;fill-rule:nonzero;"/>
    <path d="M219.387,122.955C220.381,122.897 221.439,122.98 222.561,123.206C226.911,124.417 229.146,128.041 229.822,132.296C230.424,136.09 230.403,139.926 229.756,143.803C229.097,147.763 226.526,151.147 222.499,152.167C221.454,152.371 220.47,152.439 219.549,152.383C220.092,152.352 220.655,152.281 221.237,152.167C225.263,151.147 227.834,147.763 228.493,143.803C229.14,139.926 229.161,136.09 228.56,132.296C227.884,128.041 225.649,124.417 221.299,123.206C220.639,123.073 220.002,122.99 219.387,122.955ZM219.525,126.934C216.498,127.577 216.011,130.716 215.723,133.424C215.354,136.944 215.466,140.507 216.059,144.106C216.25,145.251 216.631,146.221 217.199,147.013C217.784,147.828 218.552,148.303 219.504,148.442C217.95,148.637 216.761,148.161 215.937,147.013C215.369,146.221 214.987,145.251 214.797,144.106C214.204,140.507 214.092,136.944 214.461,133.424C214.759,130.612 215.273,127.336 218.62,126.872C218.772,126.851 219.073,126.871 219.525,126.934Z" style="fill:white;fill-opacity:0.25;"/>
    <path d="M159.702,192.566C160.121,192.719 160.473,192.819 160.768,192.872C167.473,194.058 173.403,196.679 178.558,200.739C179.491,201.473 180.084,201.971 180.337,202.228C181.112,203.016 181.979,203.521 182.663,204.239C191.006,212.935 195.062,223.293 194.834,235.319C194.821,236.008 194.651,237.534 194.328,239.897C192.586,252.591 184.985,263.53 173.963,269.991C168.904,272.956 163.55,274.449 157.741,275.195C155.721,275.456 153.88,275.543 152.221,275.464C144.844,275.116 138.234,273.204 132.383,269.729C122.215,263.688 114.941,253.569 112.781,241.921C111.441,234.685 111.84,227.677 113.979,220.892C115.924,214.718 119.358,209.161 124.272,204.218C129.799,198.657 136.443,194.992 144.193,193.221C144.409,193.171 144.562,192.976 144.566,192.756C144.595,191.23 144.612,189.912 144.612,188.8C144.599,183.331 144.597,198.376 144.597,168.668C144.597,164.658 145.43,160.196 150.158,159.396C156.685,158.289 159.525,162.038 159.538,168.046C159.55,176.112 159.549,162.451 159.54,192.338C159.54,192.441 159.607,192.532 159.702,192.566ZM174.84,231.299C168.452,231.434 163.384,236.812 163.52,243.312C163.654,249.812 168.945,254.975 175.333,254.84C181.722,254.706 186.789,249.327 186.654,242.827C186.519,236.327 181.228,231.164 174.84,231.299Z" style="fill:white;fill-opacity:0.5;fill-rule:nonzero;"/>
    <path d="M174.84,231.299C181.228,231.164 186.519,236.327 186.654,242.827C186.789,249.327 181.722,254.706 175.333,254.84C168.945,254.975 163.654,249.812 163.52,243.312C163.384,236.812 168.452,231.434 174.84,231.299Z" style="fill:white;fill-opacity:0.75;fill-rule:nonzero;"/>
    <path d="M48.565,24.324C47.855,24.353 47.257,24.275 46.881,24.11C47.328,23.505 48.562,22.78 50.072,22.375C50.312,22.311 50.549,22.257 50.782,22.213C47.181,19.754 44.225,17.635 44.367,17.395C44.4,17.34 44.604,17.374 44.948,17.482C45.241,17.961 48.016,19.942 51.342,22.213C51.109,22.257 50.872,22.311 50.632,22.375C49.122,22.78 47.888,23.505 47.44,24.11C47.713,24.229 48.102,24.303 48.565,24.324ZM52.445,20.447C52.263,20.035 52.099,19.577 51.969,19.09C51.564,17.58 51.575,16.149 51.876,15.458C52.014,15.561 52.159,15.705 52.305,15.883C52.143,16.65 52.194,17.843 52.528,19.09C52.695,19.71 52.915,20.284 53.159,20.776L52.445,20.447ZM59.714,23.856C58.29,20.24 58.359,17.012 59.191,16.549C59.348,16.461 59.581,16.446 59.872,16.5C59.828,16.512 59.787,16.529 59.75,16.549C58.894,17.026 58.847,20.439 60.408,24.187L59.714,23.856ZM65.647,20.186C65.812,17.863 66.009,15.212 66.216,12.738C65.595,12.409 64.891,11.894 64.236,11.239C63.13,10.133 62.424,8.888 62.339,8.14C62.511,8.159 62.708,8.211 62.924,8.293C63.078,9.051 63.762,10.206 64.795,11.239C65.451,11.894 66.155,12.409 66.776,12.738C66.551,15.428 66.337,18.325 66.165,20.785C65.994,20.579 65.821,20.379 65.647,20.186ZM66.413,10.479C66.746,6.817 67.084,3.99 67.335,3.99C67.419,3.99 67.513,4.312 67.614,4.88C67.4,6.089 67.156,8.409 66.917,11.103C66.764,10.896 66.596,10.686 66.413,10.479ZM68.816,10.479C68.947,10.33 69.085,10.182 69.231,10.036C70.336,8.931 71.582,8.225 72.33,8.14C72.324,8.189 72.316,8.24 72.305,8.293C71.579,8.569 70.643,9.184 69.791,10.036C69.442,10.385 69.134,10.747 68.872,11.103L68.816,10.479ZM69.564,19.93C71.693,17.671 73.981,16.501 74.892,16.73C73.678,16.937 71.522,18.276 69.604,20.506L69.564,19.93ZM75.381,23.92C77.091,23.105 79.001,22.202 80.868,21.333C80.836,20.622 80.928,19.735 81.174,18.818C81.579,17.308 82.304,16.074 82.91,15.627C82.962,15.747 83.006,15.89 83.04,16.052C82.548,16.654 82.046,17.654 81.734,18.818C81.488,19.735 81.396,20.622 81.428,21.333C79.309,22.318 77.136,23.348 75.262,24.243L75.381,23.92ZM83.016,20.341C86.911,18.557 90.162,17.158 90.302,17.395C90.313,17.413 90.305,17.443 90.281,17.482C89.074,17.863 86.146,19.156 82.88,20.66C82.927,20.557 82.972,20.45 83.016,20.341ZM86.78,24.492C86.071,24.523 85.186,24.431 84.273,24.186C83.623,24.012 83.025,23.779 82.518,23.521L82.767,23.353C83.332,23.676 84.045,23.975 84.833,24.186C85.519,24.37 86.189,24.468 86.78,24.492ZM82.445,37.183C82.967,36.911 83.592,36.663 84.273,36.48C85.186,36.236 86.071,36.143 86.78,36.174C86.189,36.198 85.519,36.297 84.833,36.48C84.012,36.7 83.273,37.015 82.697,37.353L82.445,37.183ZM90.281,43.271C90.305,43.311 90.313,43.34 90.302,43.358C90.163,43.594 86.934,42.207 83.058,40.432C83.016,40.324 82.973,40.218 82.928,40.115C86.175,41.61 89.08,42.892 90.281,43.271ZM83.04,44.615C83.006,44.777 82.962,44.919 82.91,45.04C82.304,44.592 81.579,43.358 81.174,41.848C80.938,40.968 80.844,40.115 80.865,39.419C79.117,38.606 77.332,37.763 75.709,36.99L75.589,36.666C77.385,37.523 79.429,38.491 81.425,39.419C81.403,40.115 81.498,40.968 81.734,41.848C82.046,43.012 82.548,44.013 83.04,44.615ZM75.357,43.83C74.445,44.088 71.917,42.725 69.602,40.166L69.645,39.57C71.721,42.07 74.091,43.598 75.357,43.83ZM72.305,51.997C72.316,52.05 72.324,52.101 72.33,52.15C71.582,52.065 70.336,51.359 69.231,50.253C69.09,50.113 68.956,49.97 68.829,49.826L68.886,49.206C69.145,49.556 69.449,49.911 69.791,50.253C70.643,51.106 71.579,51.721 72.305,51.997ZM67.614,55.466C67.513,56.023 67.419,56.34 67.335,56.34C67.081,56.34 66.737,53.49 66.4,49.826C66.582,49.62 66.75,49.412 66.903,49.206C67.146,51.914 67.395,54.257 67.614,55.466ZM62.924,51.997C62.708,52.078 62.511,52.13 62.339,52.15C62.424,51.402 63.13,50.156 64.236,49.051C64.885,48.401 65.583,47.889 66.2,47.561C65.998,45.18 65.806,42.646 65.645,40.421C65.819,40.237 65.993,40.046 66.164,39.847C66.332,42.204 66.54,44.972 66.76,47.561C66.143,47.889 65.445,48.401 64.795,49.051C63.762,50.084 63.078,51.239 62.924,51.997ZM60.337,43.6C60.029,43.652 59.782,43.632 59.615,43.536C58.822,43.078 58.622,40.213 59.678,36.915L60.342,36.598C59.17,40.027 59.357,43.063 60.175,43.536C60.223,43.563 60.277,43.585 60.337,43.6ZM52.305,44.446C52.159,44.625 52.014,44.769 51.876,44.871C51.575,44.181 51.564,42.75 51.969,41.239C52.046,40.949 52.136,40.669 52.234,40.403L52.917,40.089C52.77,40.446 52.637,40.833 52.528,41.239C52.194,42.486 52.143,43.68 52.305,44.446ZM44.948,43.271C44.604,43.379 44.4,43.414 44.367,43.358C44.219,43.107 47.461,40.799 51.286,38.197C50.897,38.146 50.487,38.066 50.072,37.955C48.562,37.55 47.328,36.825 46.881,36.219C47.257,36.055 47.855,35.977 48.565,36.006C48.102,36.027 47.713,36.1 47.44,36.219C47.888,36.825 49.122,37.55 50.632,37.955C51.047,38.066 51.456,38.146 51.846,38.197C48.3,40.609 45.256,42.768 44.948,43.271ZM52.975,37.054C54.878,35.772 56.823,34.481 58.491,33.381C54.461,32.731 51.486,30.898 51.471,29.92C51.457,29.006 54.005,27.425 57.613,26.792C56.049,25.758 54.307,24.598 52.615,23.456C52.726,23.404 52.833,23.35 52.937,23.296C54.703,24.489 56.535,25.709 58.173,26.792C54.565,27.425 52.016,29.006 52.031,29.92C52.046,30.898 55.021,32.731 59.051,33.381C57.308,34.531 55.263,35.889 53.278,37.227C53.182,37.169 53.081,37.111 52.975,37.054ZM65.222,26.502L65.361,24.36C65.275,24.195 65.185,24.03 65.09,23.865C64.122,22.188 62.867,20.9 61.845,20.323C61.854,20.24 61.866,20.16 61.882,20.084C62.968,20.45 64.508,21.888 65.65,23.865C65.745,24.03 65.835,24.195 65.921,24.36C65.823,25.839 65.765,26.766 65.765,26.766L65.222,26.502ZM61.845,40.233C62.867,39.657 64.122,38.368 65.09,36.691C65.181,36.532 65.269,36.373 65.352,36.214L65.222,34.251L65.765,33.987C65.765,33.987 65.819,34.841 65.912,36.214C65.829,36.373 65.741,36.532 65.65,36.691C64.508,38.668 62.968,40.106 61.882,40.472C61.866,40.396 61.854,40.316 61.845,40.233ZM73.918,31.528C75.995,31.448 77.787,30.868 78.584,30.165C77.863,29.53 76.33,28.995 74.508,28.838L74.559,28.805C76.602,28.897 78.357,29.471 79.144,30.165C78.284,30.922 76.269,31.538 73.986,31.538L73.932,31.537L73.918,31.528ZM73.517,40.233C73.64,39.072 73.155,37.162 72.091,35.318L72.041,35.234L70.007,34.251L70.024,33.987C70.024,33.987 71.03,34.478 72.601,35.234L72.65,35.318C73.792,37.296 74.267,39.348 74.041,40.472C73.876,40.416 73.7,40.336 73.517,40.233ZM60.585,31.421C60.92,31.414 61.247,31.394 61.566,31.362L63.076,30.377C63.076,30.377 62.053,29.713 60.486,28.685C60.611,28.681 60.738,28.679 60.865,28.679L61.039,28.68C62.61,29.711 63.635,30.377 63.635,30.377L62.125,31.362C61.719,31.402 61.297,31.424 60.865,31.424L60.585,31.421ZM70.007,26.502L71.716,25.676C71.806,25.533 71.895,25.387 71.981,25.238C73.046,23.394 73.53,21.484 73.407,20.323C73.59,20.22 73.766,20.14 73.931,20.084C74.157,21.208 73.682,23.261 72.541,25.238C72.454,25.387 72.366,25.533 72.275,25.676C70.893,26.343 70.024,26.766 70.024,26.766L70.007,26.502ZM13.236,173.026C7.741,169.265 3.329,166.085 3.548,165.713C3.618,165.594 4.181,165.734 5.114,166.071C6.739,167.424 10.318,169.95 14.424,172.753C14.052,172.823 13.673,172.908 13.291,173.011L13.236,173.026ZM16.161,169.927C15.978,169.45 15.812,168.944 15.671,168.417C15.026,166.009 15.043,163.725 15.523,162.625C15.647,162.717 15.775,162.83 15.904,162.962C15.717,164.183 15.825,165.942 16.315,167.773C16.58,168.761 16.931,169.676 17.32,170.46L16.161,169.927ZM27.779,175.374C25.762,169.873 25.912,165.075 27.188,164.364C27.235,164.338 27.286,164.316 27.341,164.298C26.495,166.006 26.738,170.755 28.881,175.9L27.779,175.374ZM37.509,169.826C37.767,166.203 38.073,162.113 38.393,158.286C37.403,157.762 36.279,156.941 35.234,155.896C33.471,154.133 32.344,152.147 32.21,150.954C32.465,150.982 32.755,151.056 33.073,151.172C33.499,152.34 34.492,153.865 35.878,155.251C36.924,156.297 38.047,157.118 39.037,157.642C38.679,161.931 38.337,166.553 38.062,170.475C37.879,170.254 37.694,170.038 37.509,169.826ZM38.736,154.363C39.258,148.679 39.785,144.335 40.176,144.335C40.254,144.335 40.338,144.508 40.426,144.831C40.071,146.664 39.662,150.521 39.262,155.034C39.098,154.811 38.922,154.587 38.736,154.363ZM42.366,154.882C42.625,154.578 42.904,154.275 43.2,153.978C43.309,153.87 43.418,153.764 43.527,153.661C43.1,154.114 42.716,154.577 42.379,155.034L42.366,154.882ZM45.436,155.569C45.332,155.678 45.226,155.788 45.118,155.896C44.301,156.713 43.437,157.393 42.625,157.901L42.604,157.642C43.491,157.172 44.486,156.463 45.436,155.569ZM43.543,169.958C43.892,169.579 44.245,169.219 44.599,168.877C44.245,169.243 43.894,169.628 43.548,170.031L43.543,169.958ZM61.75,171.653C61.739,170.583 61.894,169.302 62.247,167.983C62.885,165.604 64.021,163.654 64.98,162.92C64.194,163.879 63.39,165.478 62.892,167.339C62.5,168.8 62.352,170.216 62.404,171.349L61.75,171.653ZM76.754,165.879C76.228,166.655 72.155,169.576 67.181,172.981L66.94,172.942C71.366,169.924 75.224,167.202 76.754,165.879ZM72.645,176.31C72.776,176.439 72.889,176.567 72.981,176.691C71.881,177.171 69.598,177.189 67.189,176.543C65.933,176.207 64.796,175.731 63.894,175.215C61.229,177.015 58.477,178.848 55.987,180.497L55.732,180.447C58.449,178.652 61.549,176.59 64.539,174.571C65.44,175.086 66.577,175.562 67.834,175.899C69.664,176.389 71.423,176.497 72.645,176.31ZM65.087,187.366C63.983,188.756 60.611,190.512 56.147,191.371L55.501,190.944C59.902,190.303 63.428,188.755 65.087,187.366ZM72.955,196.038C72.22,196.996 70.27,198.133 67.891,198.77C67.718,198.816 67.546,198.859 67.375,198.899L66.773,198.488C67.342,198.406 67.935,198.287 68.536,198.126C70.397,197.627 71.995,196.823 72.955,196.038ZM75.883,206.117C76.531,206.657 76.869,207.01 76.804,207.119C76.582,207.495 71.423,205.278 65.234,202.444C65.099,202.045 64.953,201.663 64.797,201.303C69.467,203.453 73.694,205.327 75.883,206.117ZM65.278,208.819C65.219,209.205 65.13,209.536 65.015,209.8C64.049,209.087 62.892,207.119 62.247,204.71C61.871,203.307 61.72,201.946 61.754,200.837C58.956,199.535 56.098,198.185 53.501,196.949C53.375,196.57 53.239,196.188 53.092,195.802C55.957,197.169 59.216,198.712 62.399,200.192C62.364,201.302 62.516,202.662 62.892,204.066C63.454,206.164 64.404,207.928 65.278,208.819ZM53.656,207.214C53.519,207.49 53.354,207.687 53.164,207.793C51.881,208.507 47.463,206.204 43.519,201.722L43.612,200.433C47.543,205.166 52.134,207.715 53.656,207.214ZM47.924,220.277C48.04,220.594 48.114,220.885 48.142,221.139C46.949,221.005 44.963,219.878 43.2,218.115C42.871,217.786 42.564,217.449 42.282,217.111L42.401,215.8C42.815,216.358 43.299,216.925 43.845,217.471C45.231,218.857 46.756,219.85 47.924,220.277ZM40.572,226.695C40.43,227.418 40.297,227.822 40.176,227.822C39.753,227.822 39.171,222.835 38.609,216.592C38.834,216.328 39.045,216.063 39.24,215.8C39.703,220.961 40.18,225.289 40.572,226.695ZM37.469,217.788C37.366,217.898 37.26,218.007 37.152,218.115C35.389,219.878 33.403,221.005 32.21,221.139C32.344,219.946 33.471,217.96 35.234,216.197C35.342,216.089 35.451,215.983 35.561,215.88C33.981,217.557 32.981,219.375 32.854,220.495C33.974,220.369 35.792,219.368 37.469,217.788ZM38.345,213.564C38.005,209.537 37.684,205.256 37.421,201.59C37.636,201.359 37.849,201.12 38.061,200.875C38.33,204.634 38.661,209.049 39.011,213.176C38.795,213.292 38.572,213.421 38.345,213.564ZM36.398,202.635C32.84,206.318 29.066,208.095 27.865,207.402C26.56,206.649 26.263,201.807 28.132,196.338C25.461,197.613 22.43,199.049 19.43,200.449C19.433,200.332 19.433,200.217 19.432,200.104C22.639,198.611 25.914,197.06 28.777,195.693C26.907,201.163 27.205,206.004 28.509,206.757C29.638,207.409 33.04,205.878 36.398,202.635ZM16.202,208.861C15.972,209.143 15.742,209.37 15.523,209.532C15.043,208.431 15.026,206.148 15.671,203.74C15.845,203.091 16.056,202.475 16.29,201.906C9.593,204.991 3.784,207.519 3.548,207.119C3.492,207.023 3.743,206.741 4.242,206.309C4.19,206.386 4.173,206.441 4.192,206.475C4.428,206.875 10.237,204.347 16.934,201.261C16.7,201.83 16.489,202.447 16.315,203.095C15.67,205.504 15.687,207.787 16.167,208.888L16.202,208.861ZM14.333,198.853C13.787,198.772 13.221,198.655 12.647,198.502C10.238,197.856 8.27,196.7 7.556,195.734C7.82,195.619 8.152,195.53 8.538,195.471C9.429,196.345 11.193,197.295 13.291,197.857C13.953,198.035 14.606,198.162 15.227,198.243L14.333,198.853ZM25.808,191.163C19.516,190.09 14.901,187.226 14.877,185.688C14.87,185.247 15.236,184.71 15.909,184.146C15.652,184.471 15.517,184.775 15.522,185.043C15.546,186.603 20.291,189.526 26.718,190.563L25.808,191.163ZM24.072,180.303C21.617,178.677 18.925,176.882 16.322,175.124C15.478,175.57 14.46,175.977 13.349,176.275C10.94,176.92 8.657,176.903 7.556,176.423C7.718,176.204 7.945,175.974 8.227,175.743L8.201,175.779C9.301,176.259 11.585,176.276 13.993,175.631C15.104,175.333 16.122,174.926 16.966,174.479C19.784,176.383 22.705,178.328 25.317,180.056C24.893,180.13 24.477,180.213 24.072,180.303ZM57.996,185.977C56.689,184.917 53.962,184.052 50.805,183.91C49.5,184.766 48.454,185.449 47.785,185.884L47.613,185.772C47.613,185.772 49.117,184.795 51.45,183.265C54.707,183.412 57.506,184.328 58.761,185.434C58.549,185.621 58.292,185.803 57.996,185.977ZM50.065,201.637C50.094,199.767 49.315,196.988 47.761,194.297L47.683,194.163C46.074,193.388 44.836,192.788 44.157,192.459L44.217,191.53C44.217,191.53 45.822,192.312 48.327,193.518L48.405,193.653C50.226,196.806 50.984,200.08 50.623,201.871C50.444,201.811 50.258,201.733 50.065,201.637ZM47.454,178.446L47.586,178.221C49.406,175.067 50.164,171.794 49.803,170.002C49,170.272 48.042,170.91 47.064,171.83C48.259,170.562 49.469,169.687 50.448,169.358C50.808,171.149 50.051,174.423 48.23,177.576C48.093,177.815 47.952,178.048 47.808,178.276L47.454,178.446ZM33.211,186.304C32.729,185.99 31.271,185.041 29.243,183.711L28.966,183.709C25.889,183.709 23.117,184.409 21.505,185.355L21.384,185.253C22.755,184.045 25.969,183.064 29.61,183.064L29.888,183.066C32.393,184.71 34.028,185.772 34.028,185.772L33.211,186.304ZM33.971,200.043C34.892,199.067 35.804,197.858 36.596,196.486C36.742,196.233 36.882,195.979 37.014,195.725C36.867,193.535 36.78,192.175 36.78,192.175C36.78,192.175 35.459,192.818 33.343,193.838L33.449,193.653L33.612,193.374C35.946,192.25 37.424,191.53 37.424,191.53C37.424,191.53 37.511,192.891 37.658,195.081C37.526,195.335 37.387,195.589 37.241,195.842C36.264,197.534 35.104,198.978 33.971,200.043ZM36.839,179.729L37.029,176.82C36.892,176.557 36.748,176.294 36.596,176.032C34.963,173.204 32.819,171.068 31.145,170.236C31.15,169.915 31.179,169.62 31.232,169.358C32.963,169.941 35.42,172.234 37.241,175.387C37.392,175.65 37.536,175.913 37.673,176.176C37.517,178.536 37.424,180.013 37.424,180.013L36.839,179.729ZM236.136,74.158C235.094,74.207 234.218,74.096 233.67,73.857C234.307,72.994 236.065,71.961 238.217,71.385C238.558,71.293 238.896,71.217 239.228,71.154C234.098,67.652 229.887,64.633 230.089,64.29C230.14,64.203 230.491,64.272 231.079,64.468C231.65,65.233 235.528,67.997 240.152,71.154C239.821,71.217 239.482,71.293 239.141,71.385C236.989,71.961 235.231,72.994 234.594,73.857C234.97,74.022 235.502,74.125 236.136,74.158ZM241.565,68.566C241.318,67.998 241.096,67.37 240.918,66.705C240.342,64.554 240.357,62.515 240.786,61.531C241.016,61.701 241.257,61.95 241.499,62.265C241.3,63.359 241.384,64.997 241.842,66.705C242.079,67.589 242.393,68.406 242.74,69.107L241.565,68.566ZM251.923,73.42C249.925,68.3 250.028,63.741 251.207,63.085C251.445,62.953 251.804,62.936 252.255,63.03C252.211,63.045 252.169,63.064 252.131,63.085C250.91,63.764 250.843,68.627 253.067,73.966L251.923,73.42ZM260.414,68.137C260.647,64.858 260.925,61.135 261.216,57.656C260.331,57.188 259.328,56.454 258.394,55.52C256.819,53.945 255.813,52.171 255.692,51.105C255.973,51.137 256.302,51.23 256.663,51.378C256.904,52.458 257.871,54.073 259.318,55.52C260.252,56.454 261.255,57.188 262.14,57.656C261.819,61.488 261.515,65.616 261.269,69.12C260.987,68.779 260.701,68.452 260.414,68.137ZM261.508,54.308C261.979,49.154 262.455,45.193 262.809,45.193C262.947,45.193 263.103,45.795 263.271,46.836C262.981,48.637 262.657,51.751 262.34,55.326C262.091,54.988 261.813,54.646 261.508,54.308ZM265.034,54.308C265.186,54.14 265.345,53.972 265.51,53.807C267.085,52.232 268.859,51.226 269.925,51.105C269.915,51.192 269.9,51.283 269.879,51.378C268.865,51.794 267.595,52.646 266.434,53.807C265.938,54.303 265.499,54.819 265.125,55.326L265.034,54.308ZM266.102,67.777C269.142,64.599 272.38,62.977 273.625,63.357C271.883,63.694 268.861,65.592 266.169,68.722L266.102,67.777ZM274.424,73.513C276.821,72.371 279.484,71.112 282.089,69.9C282.043,68.888 282.175,67.624 282.525,66.318C283.101,64.167 284.135,62.408 284.997,61.771C285.086,61.974 285.156,62.221 285.208,62.504C284.541,63.372 283.872,64.739 283.449,66.318C283.099,67.624 282.967,68.888 283.013,69.9C279.995,71.304 276.899,72.772 274.23,74.046C274.297,73.868 274.362,73.69 274.424,73.513ZM285.304,68.416C290.784,65.908 295.332,63.956 295.529,64.29C295.549,64.324 295.526,64.384 295.463,64.468C293.653,65.069 289.594,66.864 285.082,68.942C285.158,68.772 285.233,68.597 285.304,68.416ZM290.572,74.398C289.551,74.451 288.267,74.32 286.94,73.965C286.045,73.725 285.219,73.406 284.512,73.054L284.921,72.779C285.726,73.239 286.741,73.664 287.864,73.965C288.816,74.22 289.745,74.359 290.572,74.398ZM284.407,92.444C285.136,92.07 286,91.731 286.94,91.48C288.267,91.124 289.551,90.994 290.572,91.047C289.745,91.086 288.816,91.225 287.864,91.48C286.695,91.793 285.642,92.241 284.822,92.723L284.407,92.444ZM295.463,101.101C295.526,101.185 295.549,101.244 295.529,101.278C295.332,101.611 290.816,99.674 285.363,97.179C285.294,97.001 285.224,96.827 285.151,96.658C289.635,98.723 293.663,100.503 295.463,101.101ZM285.208,102.94C285.156,103.224 285.086,103.471 284.997,103.673C284.135,103.036 283.101,101.278 282.525,99.126C282.189,97.873 282.054,96.657 282.085,95.666C279.649,94.533 277.163,93.359 274.892,92.278C274.829,92.101 274.763,91.923 274.695,91.744C277.254,92.965 280.166,94.344 283.009,95.666C282.978,96.657 283.113,97.873 283.449,99.126C283.872,100.705 284.541,102.072 285.208,102.94ZM274.286,101.935C273.046,102.362 269.464,100.467 266.156,96.859L266.226,95.881C269.143,99.392 272.464,101.557 274.286,101.935ZM269.879,113.53C269.9,113.625 269.915,113.716 269.925,113.803C268.859,113.682 267.085,112.676 265.51,111.101C265.352,110.943 265.199,110.782 265.053,110.621L265.145,109.608C265.514,110.107 265.947,110.614 266.434,111.101C267.595,112.262 268.865,113.114 269.879,113.53ZM263.271,118.159C263.103,119.181 262.947,119.772 262.809,119.772C262.451,119.772 261.966,115.779 261.489,110.621C261.793,110.285 262.072,109.945 262.321,109.608C262.644,113.209 262.975,116.355 263.271,118.159ZM256.663,113.53C256.302,113.678 255.973,113.771 255.692,113.803C255.813,112.737 256.819,110.963 258.394,109.388C259.319,108.462 260.314,107.733 261.192,107.265C260.909,103.917 260.638,100.357 260.411,97.217C260.699,96.917 260.985,96.603 261.268,96.276C261.508,99.634 261.804,103.578 262.117,107.265C261.238,107.733 260.244,108.462 259.318,109.388C257.871,110.835 256.904,112.45 256.663,113.53ZM252.917,101.608C252.443,101.7 252.063,101.676 251.811,101.531C250.687,100.882 250.4,96.838 251.878,92.17L252.974,91.647C251.304,96.533 251.57,100.858 252.735,101.531C252.79,101.562 252.85,101.588 252.917,101.608ZM241.499,102.7C241.257,103.015 241.016,103.264 240.786,103.434C240.357,102.45 240.342,100.411 240.918,98.259C241.022,97.871 241.141,97.496 241.271,97.137L242.395,96.621C242.186,97.129 241.997,97.68 241.842,98.259C241.384,99.968 241.3,101.606 241.499,102.7ZM231.079,101.101C230.491,101.296 230.14,101.366 230.089,101.278C229.878,100.92 234.497,97.632 239.946,93.925C239.391,93.852 238.808,93.739 238.217,93.58C236.065,93.004 234.307,91.971 233.67,91.108C234.218,90.869 235.094,90.758 236.136,90.807C235.502,90.84 234.97,90.943 234.594,91.108C235.231,91.971 236.989,93.004 239.141,93.58C239.732,93.739 240.315,93.852 240.87,93.925C235.934,97.283 231.68,100.296 231.079,101.101ZM242.407,92.26C245.101,90.446 247.85,88.621 250.211,87.064C244.469,86.138 240.231,83.527 240.209,82.133C240.189,80.831 243.819,78.579 248.96,77.678C246.747,76.214 244.286,74.576 241.891,72.96C242.076,72.875 242.254,72.787 242.424,72.697C244.941,74.397 247.55,76.135 249.884,77.678C244.743,78.579 241.113,80.831 241.133,82.133C241.155,83.527 245.393,86.138 251.135,87.064C248.651,88.702 245.737,90.637 242.91,92.544C242.752,92.447 242.584,92.353 242.407,92.26ZM255.109,96.756C256.541,95.904 258.269,94.103 259.611,91.78C259.741,91.554 259.866,91.327 259.984,91.1C259.899,89.836 259.837,88.881 259.803,88.363L260.699,87.928C260.699,87.928 260.776,89.144 260.908,91.1C260.79,91.327 260.665,91.554 260.535,91.78C258.909,94.597 256.714,96.645 255.167,97.166C255.141,97.038 255.122,96.901 255.109,96.756ZM253.257,84.271C253.711,84.259 254.157,84.231 254.59,84.187C255.93,83.311 256.741,82.784 256.741,82.784C256.741,82.784 255.287,81.84 253.058,80.378C253.276,80.37 253.497,80.366 253.719,80.366L253.966,80.367C256.204,81.835 257.665,82.784 257.665,82.784C257.665,82.784 256.854,83.311 255.514,84.187C254.935,84.245 254.334,84.277 253.719,84.277C253.564,84.277 253.41,84.275 253.257,84.271ZM266.739,77.205L269.05,76.088C269.179,75.884 269.305,75.676 269.428,75.463C270.924,72.872 271.616,70.19 271.467,68.532C271.771,68.351 272.062,68.213 272.333,68.121C272.655,69.722 271.978,72.646 270.352,75.463C270.229,75.676 270.103,75.884 269.974,76.088C268.004,77.038 266.767,77.64 266.767,77.64L266.739,77.205ZM272.306,84.42C275.215,84.288 277.715,83.47 278.835,82.482C277.823,81.591 275.687,80.837 273.14,80.603L273.228,80.545C276.138,80.677 278.638,81.494 279.759,82.482C278.535,83.562 275.664,84.438 272.411,84.438L272.334,84.438L272.306,84.42ZM259.803,77.205C259.838,76.653 259.905,75.605 259.997,74.212C259.875,73.977 259.746,73.742 259.611,73.508C258.269,71.184 256.541,69.383 255.109,68.532C255.122,68.387 255.141,68.25 255.167,68.121C256.714,68.642 258.909,70.691 260.535,73.508C260.67,73.742 260.799,73.977 260.921,74.212C260.781,76.32 260.699,77.64 260.699,77.64L259.803,77.205ZM271.623,96.756C271.773,95.097 271.08,92.415 269.584,89.824L269.514,89.704C268.335,89.136 267.379,88.674 266.739,88.363L266.767,87.928C266.767,87.928 268.201,88.627 270.438,89.704L270.508,89.824C272.135,92.641 272.811,95.566 272.489,97.166C272.218,97.075 271.927,96.937 271.623,96.756ZM238.64,252.752C237.955,252.784 237.379,252.71 237.018,252.553C237.439,251.982 238.602,251.299 240.025,250.918C240.251,250.857 240.475,250.807 240.695,250.765C237.301,248.449 234.516,246.452 234.65,246.226C234.683,246.169 234.907,246.212 235.281,246.335C235.639,246.83 238.214,248.667 241.288,250.765C241.069,250.807 240.845,250.857 240.619,250.918C239.196,251.299 238.033,251.982 237.612,252.553C237.862,252.662 238.217,252.731 238.64,252.752ZM242.244,249.063C242.079,248.685 241.931,248.267 241.812,247.823C241.431,246.4 241.441,245.051 241.725,244.401C241.872,244.51 242.027,244.668 242.182,244.868C242.046,245.592 242.1,246.684 242.406,247.823C242.562,248.407 242.77,248.948 242.999,249.411L242.244,249.063ZM249.095,252.274C247.769,248.883 247.836,245.863 248.617,245.429C248.772,245.342 249.006,245.331 249.299,245.39C249.267,245.4 249.238,245.413 249.21,245.429C248.403,245.878 248.359,249.094 249.83,252.625L249.095,252.274ZM254.705,248.787C254.859,246.615 255.043,244.145 255.237,241.838C254.651,241.528 253.988,241.043 253.37,240.425C252.329,239.384 251.663,238.21 251.583,237.506C251.764,237.526 251.975,237.585 252.206,237.678C252.362,238.392 253.003,239.465 253.964,240.425C254.581,241.043 255.245,241.528 255.83,241.838C255.618,244.372 255.417,247.102 255.254,249.42C255.073,249.201 254.89,248.99 254.705,248.787ZM255.428,239.641C255.74,236.224 256.056,233.595 256.29,233.595C256.379,233.595 256.479,233.973 256.587,234.628C256.393,235.811 256.175,237.897 255.963,240.297C255.802,240.079 255.624,239.859 255.428,239.641ZM257.746,239.641C257.851,239.524 257.962,239.407 258.077,239.292C259.118,238.251 260.292,237.585 260.997,237.506C260.99,237.56 260.981,237.618 260.968,237.678C260.294,237.95 259.446,238.517 258.67,239.292C258.342,239.62 258.052,239.962 257.805,240.297L257.746,239.641ZM258.452,248.549C260.462,246.441 262.606,245.363 263.437,245.606C262.286,245.824 260.281,247.08 258.495,249.157L258.452,248.549ZM263.951,252.335C265.542,251.578 267.311,250.741 269.042,249.936C269.011,249.266 269.098,248.43 269.33,247.567C269.711,246.144 270.394,244.981 270.965,244.56C271.021,244.689 271.067,244.846 271.101,245.026C270.655,245.599 270.206,246.512 269.923,247.567C269.692,248.43 269.605,249.266 269.635,249.936C267.639,250.865 265.591,251.835 263.826,252.678C263.869,252.563 263.911,252.449 263.951,252.335ZM271.146,248.964C274.78,247.301 277.8,246.004 277.93,246.226C277.943,246.247 277.929,246.284 277.892,246.335C276.707,246.725 274.007,247.919 271.004,249.302C271.053,249.193 271.1,249.08 271.146,248.964ZM274.643,252.911C273.97,252.945 273.124,252.858 272.25,252.624C271.654,252.464 271.103,252.252 270.634,252.017L270.897,251.84C271.429,252.144 272.101,252.425 272.843,252.624C273.476,252.794 274.095,252.886 274.643,252.911ZM270.565,264.851C271.049,264.602 271.624,264.376 272.25,264.208C273.124,263.974 273.97,263.887 274.643,263.921C274.095,263.946 273.476,264.038 272.843,264.208C272.07,264.415 271.374,264.712 270.831,265.031L270.565,264.851ZM277.892,270.579C277.929,270.63 277.943,270.667 277.93,270.688C277.8,270.909 274.802,269.623 271.185,267.968C271.141,267.853 271.096,267.741 271.049,267.633C274.034,269.008 276.713,270.191 277.892,270.579ZM271.101,271.806C271.067,271.986 271.021,272.143 270.965,272.273C270.394,271.851 269.711,270.688 269.33,269.265C269.108,268.436 269.018,267.632 269.039,266.977C267.42,266.224 265.768,265.444 264.26,264.726L264.134,264.383C265.826,265.191 267.752,266.102 269.632,266.977C269.612,267.632 269.701,268.436 269.923,269.265C270.206,270.321 270.655,271.233 271.101,271.806ZM263.874,271.125C263.046,271.399 260.674,270.14 258.488,267.748L258.533,267.119C260.467,269.448 262.672,270.882 263.874,271.125ZM260.968,278.799C260.981,278.859 260.99,278.917 260.997,278.972C260.292,278.892 259.118,278.227 258.077,277.185C257.966,277.075 257.86,276.963 257.758,276.85L257.818,276.198C258.062,276.528 258.348,276.863 258.67,277.185C259.446,277.96 260.294,278.527 260.968,278.799ZM256.587,281.906C256.479,282.549 256.379,282.92 256.29,282.92C256.053,282.92 255.731,280.27 255.415,276.85C255.611,276.634 255.789,276.415 255.95,276.198C256.167,278.615 256.389,280.722 256.587,281.906ZM252.206,278.799C251.975,278.893 251.764,278.952 251.583,278.972C251.663,278.267 252.329,277.094 253.37,276.052C253.982,275.44 254.64,274.958 255.221,274.648C255.033,272.428 254.854,270.067 254.703,267.986C254.888,267.793 255.072,267.591 255.253,267.38C255.412,269.601 255.608,272.209 255.815,274.648C255.233,274.958 254.576,275.44 253.964,276.052C253.003,277.013 252.362,278.085 252.206,278.799ZM249.737,270.909C249.428,270.967 249.181,270.951 249.016,270.856C248.272,270.426 248.083,267.746 249.064,264.655L249.768,264.319C248.663,267.55 248.839,270.411 249.61,270.856C249.648,270.878 249.69,270.895 249.737,270.909ZM242.182,271.647C242.027,271.847 241.872,272.005 241.725,272.114C241.441,271.464 241.431,270.115 241.812,268.692C241.882,268.432 241.962,268.18 242.049,267.94L242.771,267.608C242.633,267.944 242.508,268.309 242.406,268.692C242.1,269.832 242.046,270.924 242.182,271.647ZM235.281,270.579C234.907,270.702 234.683,270.745 234.65,270.688C234.51,270.452 237.565,268.277 241.169,265.825C240.802,265.777 240.416,265.702 240.025,265.597C238.602,265.216 237.439,264.533 237.018,263.962C237.379,263.805 237.955,263.731 238.64,263.763C238.217,263.784 237.862,263.853 237.612,263.962C238.033,264.533 239.196,265.216 240.619,265.597C241.01,265.702 241.396,265.777 241.763,265.825C238.482,268.057 235.657,270.059 235.281,270.579ZM242.789,264.729C244.574,263.528 246.395,262.319 247.958,261.288C244.161,260.675 241.358,258.948 241.343,258.027C241.33,257.165 243.731,255.676 247.13,255.08C245.665,254.11 244.034,253.025 242.448,251.955C242.567,251.9 242.681,251.843 242.79,251.785C244.455,252.91 246.181,254.059 247.724,255.08C244.324,255.676 241.923,257.165 241.937,258.027C241.951,258.948 244.754,260.675 248.552,261.288C246.909,262.371 244.982,263.651 243.112,264.912C243.01,264.85 242.902,264.789 242.789,264.729ZM262.555,259.539C264.486,259.455 266.146,258.913 266.89,258.258C266.218,257.666 264.799,257.166 263.108,257.013L263.163,256.976C265.088,257.063 266.742,257.604 267.483,258.258C266.673,258.971 264.774,259.551 262.623,259.551L262.573,259.551L262.555,259.539ZM258.872,254.775L260.418,254.028C260.503,253.894 260.587,253.756 260.668,253.615C261.66,251.897 262.118,250.117 262.015,249.021C262.211,248.906 262.397,248.818 262.571,248.759C262.785,249.818 262.337,251.752 261.261,253.615C261.18,253.756 261.097,253.894 261.012,254.028C259.709,254.656 258.89,255.055 258.89,255.055L258.872,254.775ZM249.964,259.441C250.267,259.433 250.565,259.414 250.854,259.385L252.277,258.457C252.277,258.457 251.315,257.832 249.84,256.865C249.979,256.86 250.119,256.857 250.261,256.857L250.424,256.859C251.905,257.83 252.871,258.457 252.871,258.457L251.448,259.385C251.065,259.424 250.667,259.444 250.261,259.444L249.964,259.441ZM254.301,254.775L254.43,252.788C254.35,252.632 254.264,252.477 254.175,252.322C253.282,250.776 252.131,249.58 251.181,249.021C251.189,248.929 251.202,248.842 251.218,248.759C252.242,249.104 253.693,250.459 254.769,252.322C254.858,252.477 254.943,252.632 255.024,252.788C254.932,254.182 254.877,255.055 254.877,255.055L254.301,254.775ZM251.181,267.707C252.131,267.148 253.282,265.952 254.175,264.407C254.261,264.257 254.344,264.107 254.422,263.957L254.302,262.139L254.877,261.859C254.877,261.859 254.928,262.663 255.016,263.957C254.937,264.107 254.855,264.257 254.769,264.407C253.693,266.27 252.242,267.624 251.218,267.969C251.202,267.887 251.189,267.8 251.181,267.707ZM262.119,267.707C262.221,266.611 261.763,264.832 260.771,263.113L260.725,263.034L258.872,262.139L258.89,261.859C258.89,261.859 259.839,262.321 261.319,263.034L261.365,263.113C262.441,264.976 262.888,266.91 262.675,267.969C262.501,267.91 262.314,267.822 262.119,267.707Z" style="fill:white;fill-opacity:0.5;"/>
    <path d="M14.424,172.753C8.68,168.832 3.966,165.452 4.192,165.069C4.433,164.661 10.462,167.295 17.32,170.46C16.931,169.676 16.58,168.761 16.315,167.773C15.67,165.364 15.687,163.081 16.167,161.98C17.133,162.694 18.29,164.662 18.935,167.071C19.367,168.684 19.502,170.241 19.4,171.425C22.656,172.94 25.985,174.517 28.881,175.9C26.391,169.924 26.466,164.48 27.833,163.72C29.179,162.97 33.982,165.545 38.062,170.475C38.337,166.553 38.679,161.931 39.037,157.642C38.047,157.118 36.924,156.297 35.878,155.251C34.115,153.488 32.989,151.502 32.854,150.309C34.047,150.444 36.033,151.571 37.796,153.334C38.352,153.889 38.844,154.466 39.262,155.034C39.821,148.719 40.399,143.691 40.821,143.691C41.242,143.691 41.82,148.719 42.379,155.034C42.797,154.466 43.289,153.889 43.845,153.334C45.608,151.571 47.594,150.444 48.787,150.309C48.652,151.502 47.526,153.488 45.763,155.251C44.717,156.297 43.594,157.118 42.604,157.642C42.949,161.77 43.278,166.206 43.548,170.031C47.381,165.572 51.811,163.348 53.132,164.111C54.501,164.901 54.761,170.194 52.571,175.99C55.559,174.563 59.025,172.921 62.404,171.349C62.352,170.216 62.5,168.8 62.892,167.339C63.537,164.931 64.693,162.962 65.659,162.249C66.139,163.349 66.157,165.633 65.511,168.041C65.296,168.845 65.023,169.601 64.72,170.276C71.411,167.194 77.213,164.669 77.449,165.069C77.678,165.458 72.809,168.941 66.94,172.942C67.458,173.022 67.993,173.134 68.536,173.279C70.944,173.924 72.913,175.081 73.626,176.047C72.525,176.527 70.242,176.544 67.834,175.899C66.577,175.562 65.44,175.086 64.539,174.571C61.549,176.59 58.449,178.652 55.732,180.447C61.744,181.588 66.096,184.331 66.12,185.825C66.144,187.351 61.687,190.043 55.501,190.944C58.239,192.753 61.387,194.845 64.428,196.898C65.346,196.358 66.525,195.857 67.834,195.506C70.242,194.861 72.525,194.878 73.626,195.358C72.913,196.324 70.944,197.48 68.536,198.126C67.935,198.287 67.342,198.406 66.773,198.488C72.716,202.537 77.68,206.081 77.449,206.475C77.214,206.873 71.455,204.369 64.797,201.303C65.069,201.933 65.314,202.628 65.511,203.364C66.157,205.772 66.139,208.055 65.659,209.156C64.693,208.443 63.537,206.474 62.892,204.066C62.516,202.662 62.364,201.302 62.399,200.192C59.216,198.712 55.957,197.169 53.092,195.802C55.24,201.443 55.111,206.423 53.808,207.148C52.465,207.896 47.685,205.336 43.612,200.433C43.338,204.284 42.993,208.886 42.63,213.176C43.614,213.701 44.727,214.517 45.763,215.553C47.526,217.316 48.652,219.302 48.787,220.495C47.594,220.36 45.608,219.234 43.845,217.471C43.299,216.925 42.815,216.358 42.401,215.8C41.835,222.112 41.247,227.177 40.821,227.177C40.394,227.177 39.806,222.112 39.24,215.8C38.827,216.358 38.342,216.925 37.796,217.471C36.033,219.234 34.047,220.36 32.854,220.495C32.989,219.302 34.115,217.316 35.878,215.553C36.914,214.517 38.027,213.701 39.011,213.176C38.661,209.049 38.33,204.634 38.061,200.875C34.235,205.308 29.826,207.518 28.509,206.757C27.205,206.004 26.907,201.163 28.777,195.693C25.914,197.06 22.639,198.611 19.432,200.104C19.445,201.179 19.291,202.469 18.935,203.797C18.29,206.206 17.133,208.174 16.167,208.888C15.687,207.787 15.67,205.504 16.315,203.095C16.489,202.447 16.7,201.83 16.934,201.261C10.237,204.347 4.428,206.875 4.192,206.475C3.956,206.074 9.127,202.393 15.227,198.243C14.606,198.162 13.953,198.035 13.291,197.857C10.883,197.212 8.914,196.055 8.201,195.089C9.301,194.61 11.585,194.592 13.993,195.238C15.356,195.603 16.578,196.131 17.511,196.697C20.676,194.563 23.937,192.397 26.718,190.563C20.291,189.526 15.546,186.603 15.522,185.043C15.499,183.586 19.563,181.064 25.317,180.056C22.705,178.328 19.784,176.383 16.966,174.479C16.122,174.926 15.104,175.333 13.993,175.631C11.585,176.276 9.301,176.259 8.201,175.779C8.914,174.813 10.883,173.656 13.291,173.011C13.673,172.908 14.052,172.823 14.424,172.753ZM37.673,176.176C37.536,175.913 37.392,175.65 37.241,175.387C35.42,172.234 32.963,169.941 31.232,169.358C30.871,171.149 31.628,174.423 33.449,177.576C33.592,177.824 33.738,178.066 33.888,178.302C36.062,179.35 37.424,180.013 37.424,180.013C37.424,180.013 37.517,178.536 37.673,176.176ZM47.808,178.276C47.952,178.048 48.093,177.815 48.23,177.576C50.051,174.423 50.808,171.149 50.448,169.358C48.716,169.941 46.259,172.234 44.439,175.387C44.275,175.671 44.119,175.956 43.972,176.241C44.126,178.563 44.217,180.013 44.217,180.013C44.217,180.013 45.602,179.339 47.808,178.276ZM50.449,187.623C50.478,187.623 50.507,187.623 50.535,187.623C54.176,187.623 57.39,186.642 58.761,185.434C57.506,184.328 54.707,183.412 51.45,183.265C49.117,184.795 47.613,185.772 47.613,185.772C47.613,185.772 48.696,186.475 50.449,187.623ZM44.007,194.711C44.194,195.088 44.396,195.466 44.614,195.842C46.434,198.995 48.891,201.288 50.623,201.871C50.984,200.08 50.226,196.806 48.405,193.653C48.379,193.608 48.353,193.563 48.327,193.518C45.822,192.312 44.217,191.53 44.217,191.53C44.217,191.53 44.14,192.739 44.007,194.711ZM33.612,193.374C33.557,193.466 33.503,193.559 33.449,193.653C31.628,196.806 30.871,200.08 31.232,201.871C32.963,201.288 35.42,198.995 37.241,195.842C37.387,195.589 37.526,195.335 37.658,195.081C37.511,192.891 37.424,191.53 37.424,191.53C37.424,191.53 35.946,192.25 33.612,193.374ZM29.888,183.066C29.795,183.065 29.703,183.064 29.61,183.064C25.969,183.064 22.755,184.045 21.384,185.253C22.755,186.462 25.969,187.443 29.61,187.443C30.299,187.443 30.972,187.408 31.62,187.343C33.12,186.362 34.028,185.772 34.028,185.772C34.028,185.772 32.393,184.71 29.888,183.066Z" style="fill:white;"/>
    <path d="M51.342,22.213C47.741,19.754 44.785,17.635 44.927,17.395C45.078,17.14 48.858,18.791 53.159,20.776C52.915,20.284 52.695,19.71 52.528,19.09C52.124,17.58 52.135,16.149 52.436,15.458C53.041,15.906 53.766,17.14 54.171,18.65C54.442,19.662 54.527,20.638 54.463,21.38C56.504,22.331 58.592,23.32 60.408,24.187C58.847,20.439 58.894,17.026 59.75,16.549C60.595,16.079 63.606,17.694 66.165,20.785C66.337,18.325 66.551,15.428 66.776,12.738C66.155,12.409 65.451,11.894 64.795,11.239C63.69,10.133 62.983,8.888 62.899,8.14C63.647,8.225 64.892,8.931 65.998,10.036C66.346,10.385 66.655,10.747 66.917,11.103C67.268,7.143 67.63,3.99 67.894,3.99C68.158,3.99 68.521,7.143 68.872,11.103C69.134,10.747 69.442,10.385 69.791,10.036C70.896,8.931 72.141,8.225 72.89,8.14C72.805,8.888 72.099,10.133 70.993,11.239C70.338,11.894 69.633,12.409 69.012,12.738C69.229,15.327 69.435,18.108 69.604,20.506C72.008,17.711 74.786,16.316 75.614,16.794C76.473,17.29 76.636,20.609 75.262,24.243C77.136,23.348 79.309,22.318 81.428,21.333C81.396,20.622 81.488,19.735 81.734,18.818C82.138,17.308 82.864,16.074 83.469,15.627C83.77,16.317 83.781,17.748 83.377,19.259C83.241,19.763 83.07,20.237 82.88,20.66C87.076,18.727 90.714,17.144 90.862,17.395C91.006,17.639 87.952,19.823 84.273,22.332C84.597,22.382 84.933,22.452 85.273,22.543C86.783,22.948 88.017,23.673 88.465,24.279C87.775,24.58 86.343,24.591 84.833,24.186C84.045,23.975 83.332,23.676 82.767,23.353C80.892,24.62 78.948,25.912 77.244,27.038C81.015,27.753 83.743,29.473 83.758,30.41C83.773,31.367 80.978,33.055 77.1,33.62C78.817,34.754 80.791,36.066 82.697,37.353C83.273,37.015 84.012,36.7 84.833,36.48C86.343,36.076 87.775,36.087 88.465,36.388C88.017,36.993 86.783,37.718 85.273,38.123C84.896,38.224 84.524,38.299 84.168,38.35C87.894,40.889 91.007,43.112 90.862,43.358C90.714,43.608 87.104,42.038 82.928,40.115C83.099,40.51 83.253,40.946 83.377,41.408C83.781,42.918 83.77,44.349 83.469,45.04C82.864,44.592 82.138,43.358 81.734,41.848C81.498,40.968 81.403,40.115 81.425,39.419C79.429,38.491 77.385,37.523 75.589,36.666C76.936,40.203 76.855,43.326 76.038,43.781C75.196,44.249 72.199,42.644 69.645,39.57C69.473,41.985 69.257,44.87 69.029,47.561C69.646,47.889 70.344,48.401 70.993,49.051C72.099,50.156 72.805,51.402 72.89,52.15C72.141,52.065 70.896,51.359 69.791,50.253C69.449,49.911 69.145,49.556 68.886,49.206C68.53,53.164 68.162,56.34 67.894,56.34C67.627,56.34 67.258,53.164 66.903,49.206C66.644,49.556 66.34,49.911 65.998,50.253C64.892,51.359 63.647,52.065 62.899,52.15C62.983,51.402 63.69,50.156 64.795,49.051C65.445,48.401 66.143,47.889 66.76,47.561C66.54,44.972 66.332,42.204 66.164,39.847C63.765,42.627 61,44.012 60.175,43.536C59.357,43.063 59.17,40.027 60.342,36.598C58.547,37.455 56.493,38.428 54.483,39.364C54.491,40.038 54.394,40.847 54.171,41.68C53.766,43.19 53.041,44.424 52.436,44.871C52.135,44.181 52.124,42.75 52.528,41.239C52.637,40.833 52.77,40.446 52.917,40.089C48.717,42.024 45.075,43.609 44.927,43.358C44.779,43.107 48.021,40.799 51.846,38.197C51.456,38.146 51.047,38.066 50.632,37.955C49.122,37.55 47.888,36.825 47.44,36.219C48.13,35.918 49.562,35.907 51.072,36.312C51.927,36.541 52.693,36.873 53.278,37.227C55.263,35.889 57.308,34.531 59.051,33.381C55.021,32.731 52.046,30.898 52.031,29.92C52.016,29.006 54.565,27.425 58.173,26.792C56.535,25.709 54.703,24.489 52.937,23.296C52.407,23.576 51.769,23.831 51.072,24.018C49.562,24.422 48.13,24.411 47.44,24.11C47.888,23.505 49.122,22.78 50.632,22.375C50.872,22.311 51.109,22.257 51.342,22.213ZM65.921,24.36C65.835,24.195 65.745,24.03 65.65,23.865C64.508,21.888 62.968,20.45 61.882,20.084C61.655,21.208 62.13,23.261 63.272,25.238C63.361,25.393 63.453,25.545 63.547,25.693C64.91,26.35 65.765,26.766 65.765,26.766C65.765,26.766 65.823,25.839 65.921,24.36ZM72.275,25.676C72.366,25.533 72.454,25.387 72.541,25.238C73.682,23.261 74.157,21.208 73.931,20.084C72.845,20.45 71.305,21.888 70.163,23.865C70.06,24.043 69.963,24.222 69.871,24.401C69.967,25.856 70.024,26.766 70.024,26.766C70.024,26.766 70.893,26.343 72.275,25.676ZM73.932,31.537C73.95,31.538 73.968,31.538 73.986,31.538C76.269,31.538 78.284,30.922 79.144,30.165C78.357,29.471 76.602,28.897 74.559,28.805C73.096,29.764 72.153,30.377 72.153,30.377C72.153,30.377 72.832,30.818 73.932,31.537ZM69.893,35.982C70.01,36.218 70.137,36.455 70.273,36.691C71.414,38.668 72.955,40.106 74.041,40.472C74.267,39.348 73.792,37.296 72.65,35.318C72.634,35.29 72.618,35.262 72.601,35.234C71.03,34.478 70.024,33.987 70.024,33.987C70.024,33.987 69.976,34.745 69.893,35.982ZM63.375,35.144C63.34,35.202 63.306,35.26 63.272,35.318C62.13,37.296 61.655,39.348 61.882,40.472C62.968,40.106 64.508,38.668 65.65,36.691C65.741,36.532 65.829,36.373 65.912,36.214C65.819,34.841 65.765,33.987 65.765,33.987C65.765,33.987 64.838,34.439 63.375,35.144ZM61.039,28.68C60.981,28.679 60.923,28.679 60.865,28.679C58.582,28.679 56.566,29.294 55.707,30.052C56.566,30.809 58.582,31.424 60.865,31.424C61.297,31.424 61.719,31.402 62.125,31.362C63.066,30.747 63.635,30.377 63.635,30.377C63.635,30.377 62.61,29.711 61.039,28.68Z" style="fill:white;"/>
    <path d="M240.152,71.154C235.022,67.652 230.811,64.633 231.013,64.29C231.228,63.926 236.614,66.279 242.74,69.107C242.393,68.406 242.079,67.589 241.842,66.705C241.266,64.554 241.281,62.515 241.71,61.531C242.573,62.168 243.606,63.927 244.182,66.078C244.569,67.52 244.689,68.911 244.598,69.968C247.507,71.322 250.48,72.731 253.067,73.966C250.843,68.627 250.91,63.764 252.131,63.085C253.334,62.416 257.624,64.716 261.269,69.12C261.515,65.616 261.819,61.488 262.14,57.656C261.255,57.188 260.252,56.454 259.318,55.52C257.743,53.945 256.737,52.171 256.617,51.105C257.682,51.226 259.456,52.232 261.031,53.807C261.527,54.303 261.967,54.819 262.34,55.326C262.84,49.685 263.357,45.193 263.733,45.193C264.109,45.193 264.625,49.685 265.125,55.326C265.499,54.819 265.938,54.303 266.434,53.807C268.009,52.232 269.783,51.226 270.849,51.105C270.729,52.171 269.723,53.945 268.148,55.52C267.214,56.454 266.21,57.188 265.326,57.656C265.634,61.344 265.928,65.306 266.169,68.722C269.594,64.74 273.551,62.753 274.73,63.434C275.954,64.14 276.186,68.869 274.23,74.046C276.899,72.772 279.995,71.304 283.013,69.9C282.967,68.888 283.099,67.624 283.449,66.318C284.025,64.167 285.059,62.408 285.921,61.771C286.35,62.754 286.366,64.794 285.789,66.945C285.597,67.664 285.353,68.338 285.082,68.942C291.06,66.188 296.242,63.933 296.453,64.29C296.658,64.638 292.308,67.749 287.066,71.323C287.528,71.395 288.007,71.495 288.491,71.625C290.642,72.201 292.401,73.234 293.038,74.097C292.055,74.526 290.015,74.541 287.864,73.965C286.741,73.664 285.726,73.239 284.921,72.779C282.249,74.582 279.48,76.424 277.053,78.028C282.424,79.047 286.312,81.497 286.333,82.832C286.354,84.195 282.373,86.6 276.847,87.405C279.293,89.02 282.105,90.889 284.822,92.723C285.642,92.241 286.695,91.793 287.864,91.48C290.015,90.903 292.055,90.919 293.038,91.347C292.401,92.21 290.642,93.243 288.491,93.82C287.954,93.964 287.425,94.071 286.917,94.144C292.225,97.76 296.66,100.927 296.453,101.278C296.243,101.634 291.099,99.397 285.151,96.658C285.394,97.221 285.613,97.842 285.789,98.499C286.366,100.651 286.35,102.69 285.921,103.673C285.059,103.036 284.025,101.278 283.449,99.126C283.113,97.873 282.978,96.657 283.009,95.666C280.166,94.344 277.254,92.965 274.695,91.744C276.614,96.783 276.498,101.232 275.335,101.88C274.135,102.548 269.865,100.261 266.226,95.881C265.981,99.322 265.674,103.432 265.349,107.265C266.228,107.733 267.222,108.462 268.148,109.388C269.723,110.963 270.729,112.737 270.849,113.803C269.783,113.682 268.009,112.676 266.434,111.101C265.947,110.614 265.514,110.107 265.145,109.608C264.639,115.247 264.114,119.772 263.733,119.772C263.352,119.772 262.827,115.247 262.321,109.608C261.952,110.107 261.519,110.614 261.031,111.101C259.456,112.676 257.682,113.682 256.617,113.803C256.737,112.737 257.743,110.963 259.318,109.388C260.244,108.462 261.238,107.733 262.117,107.265C261.804,103.578 261.508,99.634 261.268,96.276C257.85,100.236 253.911,102.21 252.735,101.531C251.57,100.858 251.304,96.533 252.974,91.647C250.417,92.868 247.491,94.254 244.626,95.587C244.638,96.548 244.5,97.7 244.182,98.887C243.606,101.038 242.573,102.797 241.71,103.434C241.281,102.45 241.266,100.411 241.842,98.259C241.997,97.68 242.186,97.129 242.395,96.621C236.413,99.377 231.224,101.635 231.013,101.278C230.802,100.92 235.421,97.632 240.87,93.925C240.315,93.852 239.732,93.739 239.141,93.58C236.989,93.004 235.231,91.971 234.594,91.108C235.577,90.679 237.616,90.664 239.768,91.24C240.985,91.566 242.077,92.039 242.91,92.544C245.737,90.637 248.651,88.702 251.135,87.064C245.393,86.138 241.155,83.527 241.133,82.133C241.113,80.831 244.743,78.579 249.884,77.678C247.55,76.135 244.941,74.397 242.424,72.697C241.67,73.096 240.761,73.459 239.768,73.725C237.616,74.301 235.577,74.286 234.594,73.857C235.231,72.994 236.989,71.961 239.141,71.385C239.482,71.293 239.821,71.217 240.152,71.154ZM260.921,74.212C260.799,73.977 260.67,73.742 260.535,73.508C258.909,70.691 256.714,68.642 255.167,68.121C254.845,69.722 255.521,72.646 257.148,75.463C257.275,75.684 257.406,75.9 257.54,76.112C259.482,77.047 260.699,77.64 260.699,77.64C260.699,77.64 260.781,76.32 260.921,74.212ZM269.974,76.088C270.103,75.884 270.229,75.676 270.352,75.463C271.978,72.646 272.655,69.722 272.333,68.121C270.786,68.642 268.591,70.691 266.965,73.508C266.818,73.761 266.68,74.016 266.548,74.271C266.686,76.344 266.767,77.64 266.767,77.64C266.767,77.64 268.004,77.038 269.974,76.088ZM272.334,84.438C272.36,84.438 272.385,84.438 272.411,84.438C275.664,84.438 278.535,83.562 279.759,82.482C278.638,81.494 276.138,80.677 273.228,80.545C271.144,81.912 269.8,82.784 269.8,82.784C269.8,82.784 270.768,83.413 272.334,84.438ZM266.58,90.769C266.747,91.106 266.927,91.444 267.121,91.78C268.748,94.597 270.942,96.645 272.489,97.166C272.811,95.566 272.135,92.641 270.508,89.824C270.485,89.784 270.462,89.744 270.438,89.704C268.201,88.627 266.767,87.928 266.767,87.928C266.767,87.928 266.698,89.008 266.58,90.769ZM257.294,89.576C257.245,89.658 257.196,89.741 257.148,89.824C255.521,92.641 254.845,95.566 255.167,97.166C256.714,96.645 258.909,94.597 260.535,91.78C260.665,91.554 260.79,91.327 260.908,91.1C260.776,89.144 260.699,87.928 260.699,87.928C260.699,87.928 259.378,88.571 257.294,89.576ZM253.966,80.367C253.884,80.366 253.802,80.366 253.719,80.366C250.466,80.366 247.595,81.242 246.37,82.321C247.595,83.401 250.466,84.277 253.719,84.277C254.334,84.277 254.935,84.245 255.514,84.187C256.854,83.311 257.665,82.784 257.665,82.784C257.665,82.784 256.204,81.835 253.966,80.367Z" style="fill:white;"/>
    <path d="M241.288,250.765C237.895,248.449 235.11,246.452 235.244,246.226C235.386,245.985 238.948,247.541 242.999,249.411C242.77,248.948 242.562,248.407 242.406,247.823C242.025,246.4 242.035,245.051 242.318,244.401C242.889,244.822 243.572,245.985 243.954,247.408C244.209,248.362 244.289,249.282 244.228,249.981C246.152,250.876 248.119,251.808 249.83,252.625C248.359,249.094 248.403,245.878 249.21,245.429C250.006,244.986 252.843,246.507 255.254,249.42C255.417,247.102 255.618,244.372 255.83,241.838C255.245,241.528 254.581,241.043 253.964,240.425C252.922,239.384 252.257,238.21 252.177,237.506C252.882,237.585 254.055,238.251 255.097,239.292C255.425,239.62 255.716,239.962 255.963,240.297C256.293,236.566 256.635,233.595 256.884,233.595C257.133,233.595 257.474,236.566 257.805,240.297C258.052,239.962 258.342,239.62 258.67,239.292C259.712,238.251 260.885,237.585 261.59,237.506C261.511,238.21 260.845,239.384 259.804,240.425C259.186,241.043 258.522,241.528 257.937,241.838C258.141,244.277 258.336,246.898 258.495,249.157C260.76,246.523 263.377,245.209 264.157,245.659C264.966,246.126 265.12,249.254 263.826,252.678C265.591,251.835 267.639,250.865 269.635,249.936C269.605,249.266 269.692,248.43 269.923,247.567C270.305,246.144 270.988,244.981 271.559,244.56C271.842,245.21 271.852,246.559 271.471,247.982C271.344,248.457 271.183,248.903 271.004,249.302C274.957,247.481 278.385,245.99 278.524,246.226C278.66,246.456 275.783,248.513 272.316,250.877C272.621,250.925 272.938,250.991 273.258,251.076C274.681,251.458 275.844,252.141 276.265,252.712C275.615,252.995 274.266,253.005 272.843,252.624C272.101,252.425 271.429,252.144 270.897,251.84C269.13,253.033 267.299,254.251 265.693,255.311C269.246,255.985 271.817,257.606 271.831,258.488C271.845,259.39 269.212,260.981 265.557,261.513C267.175,262.581 269.035,263.818 270.831,265.031C271.374,264.712 272.07,264.415 272.843,264.208C274.266,263.827 275.615,263.837 276.265,264.121C275.844,264.691 274.681,265.375 273.258,265.756C272.903,265.851 272.553,265.922 272.217,265.97C275.728,268.362 278.661,270.456 278.524,270.688C278.385,270.924 274.983,269.445 271.049,267.633C271.21,268.005 271.355,268.416 271.471,268.851C271.852,270.274 271.842,271.622 271.559,272.273C270.988,271.851 270.305,270.688 269.923,269.265C269.701,268.436 269.612,267.632 269.632,266.977C267.752,266.102 265.826,265.191 264.134,264.383C265.403,267.716 265.327,270.658 264.557,271.086C263.764,271.528 260.939,270.016 258.533,267.119C258.371,269.395 258.168,272.113 257.953,274.648C258.534,274.958 259.191,275.44 259.804,276.052C260.845,277.094 261.511,278.267 261.59,278.972C260.885,278.892 259.712,278.227 258.67,277.185C258.348,276.863 258.062,276.528 257.818,276.198C257.483,279.927 257.136,282.92 256.884,282.92C256.632,282.92 256.284,279.927 255.95,276.198C255.706,276.528 255.419,276.863 255.097,277.185C254.055,278.227 252.882,278.892 252.177,278.972C252.257,278.267 252.922,277.094 253.964,276.052C254.576,275.44 255.233,274.958 255.815,274.648C255.608,272.209 255.412,269.601 255.253,267.38C252.993,269.999 250.388,271.305 249.61,270.856C248.839,270.411 248.663,267.55 249.768,264.319C248.077,265.126 246.142,266.043 244.247,266.925C244.255,267.56 244.164,268.322 243.954,269.107C243.572,270.53 242.889,271.693 242.318,272.114C242.035,271.464 242.025,270.115 242.406,268.692C242.508,268.309 242.633,267.944 242.771,267.608C238.815,269.431 235.383,270.925 235.244,270.688C235.104,270.452 238.159,268.277 241.763,265.825C241.396,265.777 241.01,265.702 240.619,265.597C239.196,265.216 238.033,264.533 237.612,263.962C238.262,263.678 239.611,263.668 241.034,264.05C241.839,264.265 242.561,264.578 243.112,264.912C244.982,263.651 246.909,262.371 248.552,261.288C244.754,260.675 241.951,258.948 241.937,258.027C241.923,257.165 244.324,255.676 247.724,255.08C246.181,254.059 244.455,252.91 242.79,251.785C242.292,252.049 241.69,252.29 241.034,252.466C239.611,252.847 238.262,252.837 237.612,252.553C238.033,251.982 239.196,251.299 240.619,250.918C240.845,250.857 241.069,250.807 241.288,250.765ZM255.024,252.788C254.943,252.632 254.858,252.477 254.769,252.322C253.693,250.459 252.242,249.104 251.218,248.759C251.005,249.818 251.453,251.752 252.528,253.615C252.613,253.761 252.699,253.904 252.788,254.044C254.072,254.663 254.877,255.055 254.877,255.055C254.877,255.055 254.932,254.182 255.024,252.788ZM261.012,254.028C261.097,253.894 261.18,253.756 261.261,253.615C262.337,251.752 262.785,249.818 262.571,248.759C261.548,249.104 260.097,250.459 259.021,252.322C258.924,252.49 258.833,252.658 258.746,252.826C258.837,254.198 258.89,255.055 258.89,255.055C258.89,255.055 259.709,254.656 261.012,254.028ZM262.573,259.551C262.589,259.551 262.606,259.551 262.623,259.551C264.774,259.551 266.673,258.971 267.483,258.258C266.742,257.604 265.088,257.063 263.163,256.976C261.785,257.88 260.896,258.457 260.896,258.457C260.896,258.457 261.536,258.873 262.573,259.551ZM258.767,263.738C258.877,263.961 258.996,264.184 259.125,264.407C260.2,266.27 261.652,267.624 262.675,267.969C262.888,266.91 262.441,264.976 261.365,263.113C261.35,263.087 261.334,263.06 261.319,263.034C259.839,262.321 258.89,261.859 258.89,261.859C258.89,261.859 258.845,262.573 258.767,263.738ZM252.625,262.949C252.593,263.003 252.56,263.058 252.528,263.113C251.453,264.976 251.005,266.91 251.218,267.969C252.242,267.624 253.693,266.27 254.769,264.407C254.855,264.257 254.937,264.107 255.016,263.957C254.928,262.663 254.877,261.859 254.877,261.859C254.877,261.859 254.004,262.285 252.625,262.949ZM250.424,256.859C250.37,256.858 250.315,256.857 250.261,256.857C248.109,256.857 246.21,257.437 245.4,258.151C246.21,258.865 248.109,259.444 250.261,259.444C250.667,259.444 251.065,259.424 251.448,259.385C252.334,258.806 252.871,258.457 252.871,258.457C252.871,258.457 251.905,257.83 250.424,256.859Z" style="fill:white;"/>
    <path d="M221.299,123.206C225.649,124.417 227.884,128.041 228.56,132.296C229.161,136.09 229.14,139.926 228.493,143.803C227.834,147.763 225.263,151.147 221.237,152.167C214.44,153.494 210.218,149.041 209.252,142.655C208.688,138.935 208.738,135.095 209.406,131.143C209.675,129.555 210.6,127.593 211.624,126.341C214.017,123.434 217.239,122.389 221.299,123.206ZM220.167,148.323C221.734,147.631 222.696,146.291 223.049,144.309C223.327,142.738 223.468,141.954 223.468,141.95C223.712,140.784 223.725,138.122 223.513,133.959C223.459,132.889 223.219,131.612 222.796,130.123C222.344,128.539 221.452,127.506 220.125,127.029C219.333,126.893 218.831,126.843 218.62,126.872C215.273,127.336 214.759,130.612 214.461,133.424C214.092,136.944 214.204,140.507 214.797,144.106C214.987,145.251 215.369,146.221 215.937,147.013C216.874,148.319 218.284,148.755 220.167,148.323Z" style="fill:white;fill-rule:nonzero;"/>
</svg>
