<?xml version="1.0" encoding="UTF-8" standalone="no"?>
<!DOCTYPE svg PUBLIC "-//W3C//DTD SVG 1.1//EN" "http://www.w3.org/Graphics/SVG/1.1/DTD/svg11.dtd">
<svg width="100%" height="100%" viewBox="0 0 300 300" version="1.1" xmlns="http://www.w3.org/2000/svg" xmlns:xlink="http://www.w3.org/1999/xlink" xml:space="preserve" xmlns:serif="http://www.serif.com/" style="fill-rule:evenodd;clip-rule:evenodd;stroke-linejoin:round;stroke-miterlimit:2;">
    <path d="M205.111,49.117C205.045,48.94 204.945,48.786 204.814,48.655C204.725,48.566 204.606,48.516 204.482,48.505C201.958,48.323 200.146,48.212 198.87,45.652C198.238,44.384 197.166,41.651 196.056,41.227C192.714,39.963 189.985,39.092 188.579,35.496C187.391,32.462 188.397,30.203 189.951,27.667C190.968,26.01 191.616,25.05 191.419,23.327C191.211,21.515 191.053,20.027 190.949,18.863C190.934,18.701 190.964,18.54 191.042,18.397C192.472,15.668 194.11,14.851 197.112,13.051C198.176,12.411 199.213,11.952 200.223,11.671C202.578,11.016 204.292,10.905 205.438,9.057C212.773,-2.77 229.678,-0.736 236.784,2.516C241.484,4.667 239.319,12.981 231.718,17.252C231.275,16.817 230.801,16.343 230.288,15.838C228.749,14.32 224.938,13.899 223.08,13.918C221.928,13.721 220.717,13.743 219.449,13.987C218.038,14.259 216.972,14.786 216.25,15.568C215.349,16.544 214.932,17.792 215.001,19.314C215.121,21.951 215.653,24.78 216.601,27.802C217.025,29.155 217.382,31.699 217.661,35.426C217.711,36.101 217.809,36.796 217.48,37.396C217.242,37.828 216.702,37.958 216.358,37.669C216.031,37.395 215.768,37.018 215.576,36.532C214.883,34.78 214.301,33.182 213.81,31.737C213.576,31.047 213.104,30.238 212.399,29.305C210.775,27.155 208.33,28.138 206.787,29.691C205.416,31.071 205.837,33.685 206.606,35.195C207.071,36.109 207.76,37.04 208.676,37.989C209.652,39.002 209.655,39.369 209.64,40.865C209.613,43.498 208.996,45.772 207.793,47.691C207.153,48.397 206.259,48.871 205.111,49.117Z" style="fill:white;fill-opacity:0.3;"/>
    <path d="M227.424,54.591C226.491,54.591 226.077,54.622 225.088,54.622C223.057,54.741 221.054,54.515 219.075,53.943C217.789,53.571 216.706,52.855 215.525,52.267C214.913,51.961 214.058,51.475 212.958,50.802C211.237,49.747 209.516,48.713 207.793,47.691C208.996,45.772 209.613,43.498 209.64,40.865C209.655,39.369 209.652,39.002 208.676,37.989C207.76,37.04 207.071,36.109 206.606,35.195C205.837,33.685 205.416,31.071 206.787,29.691C208.33,28.138 210.775,27.155 212.399,29.305C213.104,30.238 213.576,31.047 213.81,31.737C214.301,33.182 214.883,34.78 215.576,36.532C215.768,37.018 216.031,37.395 216.358,37.669C216.702,37.958 217.242,37.828 217.48,37.396C217.809,36.796 217.711,36.101 217.661,35.426C217.382,31.699 217.025,29.155 216.601,27.802C215.653,24.78 215.121,21.951 215.001,19.314C214.932,17.792 215.349,16.544 216.25,15.568C216.972,14.786 218.038,14.259 219.449,13.987C220.717,13.743 221.928,13.721 223.08,13.918L228.943,23.882C228.951,23.893 228.958,23.909 228.962,23.92L229.247,24.915C229.328,25.196 229.431,25.463 229.56,25.72C231.066,28.749 232.159,31.857 232.794,35.068C233.199,37.122 231.001,36.673 229.937,36.748C229.155,36.804 228.712,37.103 228.6,37.654C228.451,38.389 228.42,39.127 228.506,39.869C228.675,41.318 229.293,42.781 230.361,44.257L226.815,43.347C226.696,43.316 226.572,43.378 226.526,43.494C226.48,43.609 226.526,43.741 226.634,43.802C227.805,44.461 230.704,45.274 230.793,45.193C230.62,45.405 230.551,45.575 230.585,45.695C230.792,46.434 230.959,47.115 231.054,47.777C231.257,49.184 231.135,50.499 230.377,52.074C230.061,52.729 227.424,54.591 227.424,54.591ZM228.126,23.685C227.667,23.335 227.12,23.227 226.491,23.365C224.988,23.693 222.961,24.225 221.974,25.339C221.696,25.651 221.851,26.148 222.255,26.249C223.446,26.545 226.727,25.1 228.037,24.487C228.357,24.337 228.407,23.901 228.126,23.685ZM226.911,28.037C226.468,28.118 226.26,29.008 226.447,30.021C226.634,31.032 227.147,31.787 227.591,31.706C228.033,31.626 228.241,30.735 228.054,29.723C227.868,28.712 227.355,27.956 226.911,28.037Z" style="fill:white;fill-opacity:0.9;"/>
    <path d="M231.718,17.252C232.598,19.183 233.374,21.222 234.026,23.347C233.655,23.267 233.292,23.231 232.947,23.256C232.531,23.286 232.294,23.75 232.515,24.104C232.81,24.582 233.674,25.103 234.654,25.573C234.907,26.553 235.134,27.548 235.332,28.557C235.142,28.31 234.929,28.179 234.73,28.215C234.288,28.296 234.079,29.186 234.267,30.199C234.453,31.21 234.966,31.965 235.41,31.884C235.586,31.852 235.724,31.692 235.816,31.448C236.307,34.999 236.442,38.69 236.143,42.441C236.116,42.779 236.075,43.117 235.831,43.355C234.727,44.429 233.306,44.793 231.583,44.465L230.361,44.257C229.293,42.781 228.675,41.318 228.506,39.869C228.42,39.127 228.451,38.389 228.6,37.654C228.712,37.103 229.155,36.804 229.937,36.748C231.001,36.673 233.199,37.122 232.794,35.068C232.159,31.857 231.066,28.749 229.56,25.72C229.431,25.463 229.328,25.196 229.247,24.915L228.962,23.92C228.958,23.909 228.951,23.893 228.943,23.882L223.08,13.918C224.938,13.899 228.749,14.32 230.288,15.838C230.801,16.343 231.275,16.817 231.718,17.252Z" style="fill:white;fill-opacity:0.75;"/>
    <path d="M228.126,23.685C227.667,23.335 227.12,23.227 226.491,23.365C224.988,23.693 222.961,24.225 221.974,25.339C221.696,25.651 221.851,26.148 222.255,26.249C223.446,26.545 226.727,25.1 228.037,24.487C228.357,24.337 228.407,23.901 228.126,23.685Z" style="fill:white;fill-opacity:0.15;"/>
    <path d="M234.654,25.573C233.674,25.103 232.81,24.582 232.515,24.104C232.294,23.75 232.531,23.286 232.947,23.256C233.292,23.231 233.655,23.267 234.026,23.347C234.25,24.079 234.46,24.821 234.654,25.573Z" style="fill:white;fill-opacity:0.15;"/>
    <path d="M226.911,28.037C226.468,28.118 226.26,29.008 226.447,30.021C226.634,31.032 227.147,31.787 227.591,31.706C228.033,31.626 228.241,30.735 228.054,29.723C227.868,28.712 227.355,27.956 226.911,28.037Z" style="fill:white;fill-opacity:0.15;"/>
    <path d="M235.816,31.448C235.724,31.692 235.586,31.852 235.41,31.884C234.966,31.965 234.453,31.21 234.267,30.199C234.079,29.186 234.288,28.296 234.73,28.215C234.929,28.179 235.142,28.31 235.332,28.557C235.52,29.509 235.681,30.473 235.816,31.448Z" style="fill:white;fill-opacity:0.15;"/>
    <path d="M236.105,44.612L236.105,44.662L236.064,44.99C235.893,46.284 235.599,47.662 235.18,49.125C234.829,50.343 234.174,51.507 233.21,52.617C232.408,53.539 229.887,54.313 229.88,54.321C229.745,54.433 227.424,54.591 227.424,54.591C227.424,54.591 230.061,52.729 230.377,52.074C231.135,50.499 231.257,49.184 231.054,47.777C230.959,47.115 230.792,46.434 230.585,45.695C230.551,45.575 230.62,45.405 230.793,45.193C232.636,45.606 234.289,45.354 235.765,44.446C235.909,44.358 236.091,44.455 236.105,44.612Z" style="fill:white;fill-opacity:0.75;"/>
    <path d="M236.143,42.441L236.105,44.612C236.091,44.455 235.909,44.358 235.765,44.446C234.289,45.354 232.636,45.606 230.793,45.193C230.704,45.274 227.805,44.461 226.634,43.802C226.526,43.741 226.48,43.609 226.526,43.494C226.572,43.378 226.696,43.316 226.815,43.347L230.361,44.257L231.583,44.465C233.306,44.793 234.727,44.429 235.831,43.355C236.075,43.117 236.116,42.779 236.143,42.441Z" style="fill:white;fill-opacity:0.15;"/>
    <path d="M205.18,49.345C205.184,49.256 205.161,49.179 205.111,49.117C206.259,48.871 207.153,48.397 207.793,47.691C209.516,48.713 211.237,49.747 212.958,50.802C214.058,51.475 214.913,51.961 215.525,52.267C216.706,52.855 217.789,53.571 219.075,53.943C221.054,54.515 223.057,54.741 225.088,54.622C224.587,55.196 224.175,55.905 223.851,56.742C223.431,57.821 223.103,58.927 222.868,60.056C222.506,61.795 222.598,63.356 223.142,64.74C223.458,64.99 223.353,65.367 222.834,65.865C222.359,66.32 221.612,66.721 220.598,67.072C220.162,64.983 219.806,63.606 219.523,62.944C219.32,62.469 218.835,61.634 218.069,60.43C217.513,59.556 216.939,58.781 216.35,58.106C213.368,54.69 210.004,51.92 206.228,49.838C206.024,49.726 205.823,49.523 205.619,49.233C205.565,49.156 205.465,49.129 205.38,49.164C205.303,49.195 205.238,49.256 205.18,49.345Z" style="fill:white;fill-opacity:0.75;"/>
    <path d="M202.343,60.623C202.258,60.558 202.239,60.438 202.297,60.346C203.442,58.522 205.249,51.272 205.18,49.345C205.238,49.256 205.303,49.195 205.38,49.164C205.465,49.129 205.565,49.156 205.619,49.233C205.823,49.523 206.024,49.726 206.228,49.838C210.004,51.92 213.368,54.69 216.35,58.106C216.939,58.781 217.513,59.556 218.069,60.43C218.835,61.634 219.32,62.469 219.523,62.944C219.806,63.606 220.162,64.983 220.598,67.072C217.827,67.457 215.024,67.328 212.199,66.682C208.147,65.756 205.072,62.785 202.343,60.623Z" style="fill:white;fill-opacity:0.85;"/>
    <path d="M193.875,148.248L193.793,147.913C193.458,144.041 193.244,138.983 193.146,132.101C193.132,131.081 193.524,125.013 193.909,122.515C194.075,121.463 194.314,119.813 194.634,117.558C194.935,115.427 195.283,113.359 195.694,111.368C195.797,110.87 195.932,109.914 196.118,108.508C196.156,108.222 196.234,107.945 196.353,107.683L196.727,106.858C196.87,106.546 196.615,106.195 196.272,106.234C194.441,106.44 192.487,106.519 190.417,106.469C189.014,106.434 187.087,106.182 184.635,105.717C182.943,105.396 180.742,104.963 178.04,104.41C176.949,104.187 175.859,104.087 174.768,104.11C174.078,103.605 173.226,103.331 172.205,103.289C172.097,103.281 172.023,103.181 172.054,103.081C172.451,101.708 176.791,57.321 198.084,60.326C198.955,60.449 202.258,60.558 202.343,60.623C205.072,62.785 208.147,65.756 212.199,66.682C215.024,67.328 217.827,67.457 220.598,67.072C221.612,66.721 222.359,66.32 222.834,65.865C223.353,65.367 223.458,64.99 223.142,64.74C223.978,64.956 224.649,65.156 225.154,65.345C226.283,65.765 227.239,66.467 228.022,67.442C230.812,70.915 233.53,74.75 236.174,78.947C238.302,82.328 239.94,85.924 241.089,89.74C241.316,90.492 241.455,91.783 241.505,93.606C241.509,93.729 241.47,93.849 241.401,93.945C241.069,94.408 240.58,94.77 239.932,95.032L237.276,96.478C237.145,96.551 237.079,96.702 237.118,96.848C237.652,98.832 238.116,100.699 238.475,102.452C239.387,106.901 240.219,110.339 240.688,114.158C241.159,118.002 240.661,142.612 240.41,143.179C240.179,143.699 239.617,146.924 236.452,147.326L236.503,147.514C236.025,148.087 230.085,148.806 222.722,149.259C211.926,149.924 198.069,150.018 193.875,148.248Z" style="fill:white;fill-opacity:0.95;"/>
    <path d="M236.452,147.326C236.542,147.387 236.557,147.45 236.503,147.514C236.486,147.452 236.469,147.389 236.452,147.326Z" style="fill:white;fill-opacity:0.95;"/>
    <path d="M239.932,95.032C240.221,97.472 240.568,99.92 240.981,102.371C241.069,102.899 241.189,103.389 241.339,103.84C241.412,104.063 241.455,104.291 241.466,104.522C241.524,105.598 241.717,106.546 242.048,107.367C242.149,107.617 242.195,107.883 242.183,108.149C242.179,108.327 242.349,109.213 242.692,110.805C243.806,115.935 248.825,133.261 249.41,135.324C250.416,138.874 251.349,141.826 252.201,144.177C254.178,149.608 255.246,152.515 255.412,152.892C255.99,154.207 256.622,155.749 257.621,157.179C258.596,158.586 259.003,159.148 259.717,160.644C264.806,171.302 251.298,178.414 250.74,173.888C250.557,172.403 250.521,165.227 250.497,165.077C250.266,163.596 248.605,162.591 247.193,163.058C245.856,163.499 245.709,165.15 246.535,167.618C246.975,168.935 245.473,168.8 245.224,168.056C244.613,166.229 243.979,164.46 243.49,162.698C243.37,162.278 243.313,161.53 243.313,160.455C243.313,160.316 243.343,160.181 243.405,160.058C244.211,158.397 244.974,156.778 245.695,155.201C245.895,154.766 245.837,154.276 245.525,153.733C243.721,150.626 240.179,143.699 240.41,143.179C240.661,142.612 241.159,118.002 240.688,114.158C240.219,110.339 239.387,106.901 238.475,102.452C238.116,100.699 237.652,98.832 237.118,96.848C237.079,96.702 237.145,96.551 237.276,96.478L239.932,95.032Z" style="fill:white;fill-opacity:0.65;"/>
    <path d="M184.244,157.598C183.626,156.341 183.144,155.413 182.989,155.178C173.22,140.308 172.93,117.558 174.409,107.625C174.578,106.49 174.656,105.312 174.768,104.11C175.859,104.087 176.949,104.187 178.04,104.41C180.742,104.963 182.943,105.396 184.635,105.717C187.087,106.182 189.014,106.434 190.417,106.469C192.487,106.519 194.441,106.44 196.272,106.234C196.615,106.195 196.87,106.546 196.727,106.858L196.353,107.683C196.234,107.945 196.156,108.222 196.118,108.508C195.932,109.914 195.797,110.87 195.694,111.368C195.283,113.359 194.935,115.427 194.634,117.558C194.314,119.813 194.075,121.463 193.909,122.515C193.524,125.013 193.132,131.081 193.146,132.101C193.244,138.983 193.458,144.041 193.793,147.913L193.825,148.28C194.444,155.148 195.46,158.206 196.908,161.241C198.014,162.136 199.017,162.756 199.915,163.103C200.782,163.438 201.325,163.78 201.665,163.955C203.851,165.085 205.691,170.47 204.899,170.912C204.633,171.061 204.49,171.321 204.34,171.055C203.939,170.349 203.368,169.525 202.628,168.573C201.927,167.674 200.786,167.15 199.764,167.389C199.629,167.42 199.51,167.501 199.429,167.617C198.812,168.499 198.515,169.104 198.542,169.432C198.639,170.639 204.453,179.507 204.453,179.507C204.538,179.623 204.553,179.777 204.495,179.912C204.352,180.228 199.023,184.094 194.786,183.245C194.432,183.174 194.085,183.07 193.75,182.928C191.939,182.163 190.458,180.295 189.885,176.563C189.861,176.403 188.848,168.846 188.266,166.88C187.65,164.795 185.613,160.386 184.244,157.598Z" style="fill:white;fill-opacity:0.8;"/>
    <path d="M124.933,152.492C129.134,149.874 133.444,147.839 137.861,146.39C137.953,146.359 138.011,146.266 138.003,146.17C137.957,145.723 137.869,145.357 137.734,145.068C137.668,144.921 137.564,144.794 137.437,144.694C136.412,143.919 133.525,141.757 128.78,138.203C128.013,137.629 128.336,136.877 129.026,136.322C129.13,136.241 129.261,136.206 129.392,136.222C129.504,136.241 141.981,137.151 166.816,138.954C167.487,139.005 167.837,139.328 167.872,139.93C167.887,140.196 167.718,140.643 167.367,141.263C158.105,157.649 151.922,168.607 148.823,174.131C148.765,174.231 148.692,174.323 148.607,174.397C148.006,174.917 147.432,174.882 146.88,174.3C146.784,174.2 146.73,174.069 146.719,173.93C146.399,169.428 146.148,165.304 145.967,161.561C145.924,160.69 145.527,159.457 144.41,159.838C142.583,160.459 140.729,161.473 138.851,162.872C133.868,166.584 130.036,171.309 127.35,177.049C126.814,177.889 126.233,179.181 125.611,180.926C123.318,187.368 122.335,194.025 122.724,200.904C122.732,201.035 122.609,201.139 122.481,201.108C121.13,200.789 119.741,200.351 118.326,199.783C113.487,197.838 109.003,195.239 104.905,191.946C104.584,191.689 104.403,191.295 104.415,190.886C104.479,188.728 104.582,186.847 104.716,185.247C105.796,172.343 111.557,162.126 122.027,154.604C123.121,153.817 124.089,153.112 124.933,152.492Z" style="fill:white;fill-opacity:0.95;"/>
    <path d="M47.492,200.052L46.617,191.823C46.864,191.576 47.252,191.532 47.785,191.684C48.031,191.755 48.193,191.992 48.166,192.247C47.937,194.463 47.823,196.614 47.808,198.707C47.804,199.22 47.7,199.671 47.492,200.052Z" style="fill:white;fill-opacity:0.5;"/>
    <path d="M85.166,199.835L85.189,198.071C85.193,197.936 85.312,197.836 85.447,197.859L90.296,198.669C92.062,198.753 93.839,198.609 95.639,198.291C95.777,198.266 95.878,198.144 95.874,198.002L95.839,195.643C95.835,195.465 95.689,195.323 95.511,195.331L90.774,195.512C74.389,192.713 57.946,190.207 41.587,187.205C41.567,187.202 41.278,187.18 40.716,187.128C40.345,187.094 40.026,186.989 39.756,186.816L43.788,186.546L45.892,186.828C46.016,186.847 46.127,186.739 46.112,186.616C44.81,175.612 43.665,164.573 42.52,153.517C42.437,152.723 42.527,151.832 42.785,150.846C43.391,148.298 45.133,146.004 47.661,145.168C49.034,144.717 118.029,141.599 118.781,141.768C121.861,142.466 123.094,144.597 124.204,147.357C124.224,147.404 124.235,147.45 124.239,147.5L124.933,152.492C124.089,153.112 123.121,153.817 122.027,154.604C111.557,162.126 105.796,172.343 104.716,185.247C104.582,186.847 104.479,188.728 104.415,190.886C104.403,191.295 104.584,191.689 104.905,191.946C107.69,194.184 110.653,196.101 113.785,197.711L85.166,199.835ZM48.725,171.132C48.941,171.444 49.427,171.313 49.458,170.935C49.527,170.11 49.481,168.927 49.342,167.898C48.463,161.291 49.766,151.104 57.818,149.269C59.271,148.938 60.37,148.645 61.114,148.386C61.326,148.313 61.306,148.009 61.087,147.966C60.219,147.793 59.36,147.789 58.512,147.962C51.535,149.373 48.24,154.951 47.85,161.708C47.735,163.716 47.773,166.981 48.082,169.424C48.163,170.06 48.375,170.627 48.725,171.132Z" style="fill:white;fill-opacity:0.45;"/>
    <path d="M93.769,242.907L86.245,239.314C86.187,239.287 86.118,239.33 86.118,239.395L85.979,247.062C85.863,250.026 85.254,287.245 85.254,287.245C85.251,287.372 85.235,287.504 85.208,287.631C84.834,289.207 83.855,289.909 82.271,289.728C82.475,289.485 82.769,289.239 83.15,288.984C83.455,288.78 83.708,288.453 83.925,288.008C83.974,287.908 83.998,287.796 84.002,287.685L84.911,219.028L93.652,223.452L93.769,242.907Z" style="fill:white;fill-opacity:0.45;"/>
    <path d="M93.652,223.452L93.769,242.907C93.923,242.98 94.085,243.027 94.251,243.049C94.571,243.093 147.779,236 170.859,232.924C172.613,232.688 173.326,231.679 173.002,229.89C172.952,225.546 172.933,221.167 172.952,216.754C172.952,216.434 172.983,215.979 173.049,215.382L93.652,223.452Z" style="fill:white;fill-opacity:0.5;"/>
    <path d="M122.65,197.053C122.75,191.533 123.748,186.159 125.611,180.926C126.233,179.181 126.814,177.889 127.35,177.049L127.878,181.373C127.893,181.508 127.982,181.624 128.105,181.682C128.703,181.952 129.308,181.531 129.921,181.547C131.933,181.597 133.193,181.609 133.706,181.585C134.519,181.551 135.776,181.662 137.472,181.921C142.22,182.645 151.039,183.921 163.933,185.752C166.03,186.049 167.394,186.253 168.026,186.361C171.649,186.989 175.284,187.498 178.931,187.888C179.05,187.899 179.111,187.968 179.116,188.092C179.119,188.177 179.054,188.25 178.969,188.258L174.61,188.612L128.34,182.245C128.194,182.225 128.063,182.345 128.074,182.495L128.325,185.779L129.146,195.982C129.161,196.186 129.3,196.364 129.497,196.429L129.779,196.523L122.65,197.053Z" style="fill:white;fill-opacity:0.5;"/>
    <path d="M135.45,196.102L136.92,187.047C136.943,186.897 137.067,186.782 137.221,186.774C137.842,186.741 138.158,186.928 138.162,187.34L136.601,196.017L135.45,196.102Z" style="fill:white;fill-opacity:0.5;"/>
    <path d="M236.503,147.514C237.129,149.786 237.679,152.094 238.151,154.438C239.42,160.756 239.978,167.073 239.828,173.391C239.801,174.528 239.751,175.522 239.67,176.374C239.57,177.43 239.539,178.429 239.578,179.373C239.589,179.612 239.558,179.847 239.493,180.074C239.35,180.572 239.281,181.416 239.292,182.615C239.296,183.297 239.246,184.133 239.134,185.124C238.961,186.685 238.826,188.878 238.73,191.7C238.695,192.644 238.645,193.334 238.572,193.769C238.309,195.334 238.579,196.888 238.24,198.565C238.024,199.651 238.182,200.977 238.059,202.23C237.882,204.019 237.724,206.62 237.589,210.036C237.565,210.625 237.496,211.485 237.377,212.61C237.342,212.942 237.334,213.678 237.346,214.815C237.35,215.07 237.327,215.324 237.28,215.574C237.061,216.819 236.891,218.612 236.764,220.959C236.698,222.15 236.367,223.453 236.513,224.467C236.54,224.633 236.459,225.253 236.278,226.321C236.112,227.3 236.309,228.159 236.008,229.138C235.97,229.266 235.947,229.397 235.943,229.532C235.931,230.056 235.781,231.921 235.492,235.128C235.395,236.173 235.353,236.805 235.365,237.029C235.419,238.177 234.987,238.917 235.052,240.02C235.06,240.17 235.033,240.571 234.968,241.23C234.524,245.751 234.285,248.635 234.247,249.88C234.235,250.3 234.181,250.658 234.085,250.955C234.077,250.982 234.073,251.009 234.069,251.036L232.551,268.243C232.539,268.343 232.485,268.435 232.397,268.485L229.849,269.958C229.752,270.012 229.691,270.112 229.679,270.224C229.621,271.025 229.66,271.546 229.799,271.785C230.566,273.091 231.356,274.394 232.161,275.693C232.944,276.958 233.908,277.844 235.357,278.438C237.693,279.39 239.385,279.929 240.93,281.051C241.96,281.803 242.819,282.558 243.509,283.318C244.03,283.888 244.457,284.651 244.8,285.607C245.09,286.413 245.178,287.276 245.074,288.197C244.962,289.146 244.677,289.99 244.211,290.73L233.869,287.137C233.36,286.96 232.886,286.698 232.466,286.366C229.842,284.299 227.071,282.119 224.179,279.798C223.858,279.541 223.686,279.143 223.662,278.603C223.563,276.295 223.494,274.063 223.443,271.908C223.439,271.762 223.3,271.658 223.161,271.692L220.852,272.259C220.721,272.29 220.598,272.19 220.606,272.058C221.303,259.618 222.121,244.171 223.146,225.727C223.192,224.891 223.103,224.159 222.98,223.283C221.431,212.249 219.214,196.125 216.304,174.913C216.208,174.192 216.126,173.089 216.003,171.598C215.997,171.517 215.919,171.46 215.838,171.479L215.61,171.537C215.579,171.544 215.556,171.571 215.556,171.602L212.785,223.029C212.777,223.164 212.758,223.299 212.723,223.434L209.936,233.722L198.758,276.534C198.731,276.641 198.646,276.722 198.539,276.749L195.698,277.412C193.655,277.559 191.994,277.601 190.71,277.543C187.037,277.378 183.429,276.426 179.879,274.691L176.791,272.733C181.178,256.101 185.572,239.526 189.978,223.01C190.475,221.137 190.83,219.236 191.042,217.313C192.256,206.2 193.478,195.126 194.707,184.095L194.786,183.245C199.023,184.094 204.352,180.228 204.495,179.912C204.553,179.777 204.538,179.623 204.453,179.507C204.453,179.507 198.639,170.639 198.542,169.432C198.515,169.104 198.812,168.499 199.429,167.617C199.51,167.501 199.629,167.42 199.764,167.389C200.786,167.15 201.927,167.674 202.628,168.573C203.368,169.525 203.939,170.349 204.34,171.055C204.49,171.321 204.633,171.061 204.899,170.912C205.691,170.47 203.851,165.085 201.665,163.955C201.325,163.78 200.782,163.438 199.915,163.103C199.017,162.756 198.014,162.136 196.908,161.241L197.205,160.902C197.286,160.813 197.394,160.751 197.513,160.729C198.856,160.481 199.706,160.316 200.057,160.189C207.558,157.478 215.117,153.843 222.722,149.259C230.085,148.806 236.025,148.087 236.503,147.514Z" style="fill:white;fill-opacity:0.85;"/>
    <path d="M48.725,171.132C48.941,171.444 49.427,171.313 49.458,170.935C49.527,170.11 49.481,168.927 49.342,167.898C48.463,161.291 49.766,151.104 57.818,149.269C59.271,148.938 60.37,148.645 61.114,148.386C61.326,148.313 61.306,148.009 61.087,147.966C60.219,147.793 59.36,147.789 58.512,147.962C51.535,149.373 48.24,154.951 47.85,161.708C47.735,163.716 47.773,166.981 48.082,169.424C48.163,170.06 48.375,170.627 48.725,171.132Z" style="fill:white;fill-opacity:0.35;"/>
    <path d="M196.908,161.241L197.205,160.902C197.286,160.813 197.394,160.751 197.513,160.729C198.856,160.481 199.706,160.316 200.057,160.189C207.558,157.478 215.117,153.843 222.722,149.259C211.926,149.924 198.069,150.018 193.875,148.248C193.858,148.258 193.841,148.268 193.825,148.28C194.444,155.148 195.46,158.206 196.908,161.241Z" style="fill:white;fill-opacity:0.35;"/>
    <path d="M43.788,186.546C43.722,185.895 43.668,185.255 43.626,184.619C43.583,183.967 43.499,183.347 43.367,182.761C43.182,181.936 43.402,181.165 43.125,180.279C42.997,179.866 42.94,179.192 42.951,178.247C42.955,178.055 42.94,177.862 42.905,177.673C42.485,175.295 42.188,173.279 42.007,171.633C41.791,169.64 41.34,165.605 40.65,159.526C40.642,159.46 40.627,159.399 40.604,159.337C40.284,158.474 40.538,157.502 40.191,156.785C39.891,156.169 40.195,155.244 39.902,154.38C39.683,153.733 39.771,152.946 40.176,152.017C40.226,151.902 40.303,151.798 40.396,151.713C41.386,150.834 41.772,151.088 42.785,150.846C42.527,151.832 42.437,152.723 42.52,153.517C43.665,164.573 44.81,175.612 46.112,186.616C46.127,186.739 46.016,186.847 45.892,186.828L43.788,186.546Z" style="fill:white;fill-opacity:0.25;"/>
    <path d="M191.042,217.313C190.83,219.236 190.475,221.137 189.978,223.01C185.572,239.526 181.178,256.101 176.791,272.733C176.34,272.22 175.878,271.885 175.396,271.723C175.257,271.677 175.173,271.542 175.192,271.399C175.327,270.316 175.516,269.264 175.751,268.243C175.924,267.506 176.121,266.57 176.344,265.429C178.869,252.532 181.687,238.278 184.793,222.667C185.167,220.793 184.743,184.684 184.728,179.99C184.728,179.203 184.497,170.812 184.508,168.183C184.512,167.738 184.193,159.91 184.244,157.598C185.613,160.386 187.65,164.795 188.266,166.88C188.848,168.846 189.861,176.403 189.885,176.563C190.458,180.295 191.939,182.163 193.75,182.928C194.085,183.07 194.432,183.174 194.786,183.245L194.707,184.095C193.478,195.126 192.256,206.2 191.042,217.313Z" style="fill:white;fill-opacity:0.35;"/>
    <path d="M244.211,290.73C243.794,291.805 243.07,292.364 242.041,292.414C239.924,292.514 238.34,292.453 237.284,292.225C235.777,291.902 233.715,291.451 232.019,290.899C228.315,289.693 224.761,288.351 221.357,286.875C220.987,286.713 219.762,286.405 217.68,285.946C217.175,285.834 216.343,285.434 215.186,284.736C215.063,284.663 214.963,284.559 214.893,284.435C213.837,282.539 214.192,279.717 214.558,277.405C214.808,275.84 214.886,274.059 214.797,272.058C214.793,271.904 214.739,271.758 214.647,271.634C214.223,271.068 213.563,270.628 212.673,270.316C212.272,270.177 211.991,269.819 211.948,269.399L211.675,266.674C211.536,265.309 211.467,264.457 211.467,264.114C211.463,263.351 211.409,262.781 211.301,262.399C210.95,261.173 211.208,259.543 211.058,258.267C210.958,257.423 210.896,256.621 210.869,255.862C210.727,251.394 210.58,246.892 210.422,242.363C210.422,242.352 210.426,241.13 210.437,238.698C210.445,237.044 210.279,235.383 209.936,233.722L212.723,223.434C212.758,223.299 212.777,223.164 212.785,223.029L215.556,171.602C215.556,171.571 215.579,171.544 215.61,171.537L215.838,171.479C215.919,171.46 215.997,171.517 216.003,171.598C216.126,173.089 216.208,174.192 216.304,174.913C219.214,196.125 221.431,212.249 222.98,223.283C223.103,224.159 223.192,224.891 223.146,225.727C222.121,244.171 221.303,259.618 220.606,272.058C220.598,272.19 220.721,272.29 220.852,272.259L223.161,271.692C223.3,271.658 223.439,271.762 223.443,271.908C223.494,274.063 223.563,276.295 223.662,278.603C223.686,279.143 223.858,279.541 224.179,279.798C227.071,282.119 229.842,284.299 232.466,286.366C232.886,286.698 233.36,286.96 233.869,287.137L244.211,290.73Z" style="fill:white;fill-opacity:0.35;"/>
    <path d="M169.657,191.734C169.51,191.773 169.41,191.904 169.414,192.05L169.699,211.751C169.699,211.809 169.641,211.847 169.591,211.828L162.337,209.03C162.464,207.892 161.79,192.875 161.778,191.091C161.778,190.963 161.732,190.836 161.643,190.74C161.346,190.405 160.98,190.204 160.545,190.135C157.099,189.591 143.095,187.956 138.162,187.34C138.158,186.928 137.842,186.741 137.221,186.774C137.067,186.782 136.943,186.897 136.92,187.047L135.113,198.183C135.089,198.322 134.947,198.403 134.816,198.353L131.435,197.077C131.435,197.077 132.923,187.032 132.923,186.65C132.919,186.253 132.63,185.918 132.237,185.864C130.722,185.644 129.658,185.482 129.038,185.374C128.598,185.297 128.359,185.432 128.325,185.779L128.074,182.495C128.063,182.345 128.194,182.225 128.34,182.245L174.61,188.612L174.822,192.401C173.789,192.092 172.126,191.861 170.958,191.763C170.304,191.708 169.805,191.696 169.657,191.734Z" style="fill:white;fill-opacity:0.35;"/>
    <path d="M44.447,191.426C42.97,190.759 41.398,190.405 39.721,190.354C39.393,190.343 39.135,190.073 39.139,189.745L39.174,187.063C39.178,186.966 39.228,186.881 39.313,186.839C39.451,186.766 39.598,186.758 39.756,186.816C40.026,186.989 40.345,187.094 40.716,187.128C41.278,187.18 41.567,187.202 41.587,187.205C57.946,190.207 74.389,192.713 90.774,195.512C90.786,196.603 90.624,197.655 90.296,198.669L85.447,197.859C85.312,197.836 85.193,197.936 85.189,198.071L84.002,287.685C83.998,287.796 83.974,287.908 83.925,288.008C83.708,288.453 83.455,288.78 83.15,288.984C82.769,289.239 82.475,289.485 82.271,289.728L80.521,289.597C80.409,289.589 80.305,289.55 80.217,289.489C79.538,289.011 79.095,288.405 78.887,287.673C78.875,287.623 78.868,287.573 78.868,287.523L77.665,242.479L77.422,235.121C77.542,231.374 77.508,227.654 77.287,223.966C77.262,223.538 77.245,223.021 77.237,222.416C77.139,214.819 77.036,209.569 76.94,206.667C76.832,203.387 76.803,200.087 76.767,196.768C76.765,196.572 76.62,196.406 76.428,196.375L55.559,192.987C55.455,192.972 55.359,193.045 55.351,193.149C54.68,202.322 53.695,212.071 53.104,220.516C52.821,224.552 49.922,261.594 49.589,262.731C49.454,263.189 48.995,263.771 48.213,264.481L46.617,264.473C46.509,264.473 46.405,264.454 46.308,264.415C45.626,264.153 45.071,263.702 44.643,263.066C44.582,262.97 44.547,262.858 44.547,262.742L46.813,216.607C46.817,216.565 46.821,216.527 46.829,216.488C47.38,213.678 46.844,210.664 46.613,207.769C47.18,205.152 47.473,202.581 47.492,200.052C47.7,199.671 47.804,199.22 47.808,198.707C47.823,196.614 47.937,194.463 48.166,192.247C48.193,191.992 48.031,191.755 47.785,191.684C47.252,191.532 46.864,191.576 46.617,191.823L44.447,191.426Z" style="fill:white;fill-opacity:0.35;"/>
    <path d="M178.931,187.888C179.127,187.826 179.297,187.826 179.443,187.891C179.559,187.941 179.636,188.057 179.632,188.184L179.586,191.761C179.582,191.881 179.49,191.973 179.37,191.977C179.37,191.977 175.616,192.355 174.822,192.401L174.61,188.612L178.969,188.258C179.054,188.25 179.119,188.177 179.116,188.092C179.111,187.968 179.05,187.899 178.931,187.888Z" style="fill:white;fill-opacity:0.4;"/>
    <path d="M46.613,207.769L44.447,191.426L46.617,191.823L47.492,200.052C47.473,202.581 47.18,205.152 46.613,207.769Z" style="fill:white;fill-opacity:0.25;"/>
    <path d="M54.631,202.102C54.888,199.1 55.136,196.095 55.351,193.149C55.359,193.045 55.455,192.972 55.559,192.987L76.428,196.375C76.62,196.406 76.765,196.572 76.767,196.768C76.78,198 76.793,199.229 76.809,200.455L54.631,202.102Z" style="fill:white;fill-opacity:0.45;"/>
    <path d="M77.129,215.089C77.165,217.224 77.201,219.666 77.237,222.416C77.245,223.021 77.262,223.538 77.287,223.966C77.508,227.654 77.542,231.374 77.422,235.121L55.505,224.752C55.486,224.744 55.471,224.737 55.459,224.725L54.758,224.178C54.65,224.093 54.492,224.166 54.48,224.301L53.971,230.106C53.705,231.605 51.254,260.877 51.161,262.495C51.157,262.607 51.134,262.715 51.096,262.819C50.61,264.122 49.65,264.677 48.213,264.481C48.995,263.771 49.454,263.189 49.589,262.731C49.922,261.594 52.821,224.552 53.104,220.516C53.473,215.245 53.995,209.466 54.499,203.637L77.129,215.089Z" style="fill:white;fill-opacity:0.45;"/>
    <path d="M84.911,219.028L85.166,199.835L113.785,197.711C115.262,198.469 116.776,199.159 118.326,199.783C119.741,200.351 121.13,200.789 122.481,201.108C122.609,201.139 122.732,201.035 122.724,200.904C122.651,199.612 122.626,198.329 122.65,197.053L129.779,196.523L131.435,197.077L134.816,198.353C134.947,198.403 135.089,198.322 135.113,198.183L135.45,196.102L136.601,196.017L136.196,198.268C136.126,198.657 136.342,199.042 136.712,199.185L160.017,208.093C160.024,208.097 160.032,208.097 160.036,208.101C160.787,208.505 161.555,208.818 162.337,209.03L169.591,211.828C169.641,211.847 169.699,211.809 169.699,211.751L169.414,192.05C169.41,191.904 169.51,191.773 169.657,191.734C169.805,191.696 170.304,191.708 170.958,191.763L171.052,212.136C171.052,212.283 171.141,212.418 171.276,212.475C172.605,213.065 173.195,214.037 173.049,215.382L93.652,223.452L84.911,219.028Z" style="fill:white;fill-opacity:0.55;"/>
    <path d="M54.499,203.637C54.543,203.125 54.587,202.614 54.631,202.102L76.809,200.455C76.835,202.533 76.872,204.604 76.94,206.667C77.002,208.519 77.065,211.326 77.129,215.089L54.499,203.637Z" style="fill:white;fill-opacity:0.55;"/>
    <path d="M90.774,195.512C90.786,196.603 90.624,197.655 90.296,198.669C92.062,198.753 93.839,198.609 95.639,198.291C95.777,198.266 95.878,198.144 95.874,198.002L95.839,195.643C95.835,195.465 95.689,195.323 95.511,195.331L90.774,195.512Z" style="fill:white;fill-opacity:0.4;"/>
    <path d="M77.665,242.479L53.971,230.106L54.48,224.301C54.492,224.166 54.65,224.093 54.758,224.178L55.459,224.725C55.471,224.737 55.486,224.744 55.505,224.752L77.422,235.121L77.665,242.479Z" style="fill:white;fill-opacity:0.25;"/>
    <path d="M173.002,229.89C174.059,230.572 174.756,231.47 175.099,232.588C175.134,232.704 175.149,232.823 175.153,232.943C175.173,235.032 174.887,237.642 174.479,238.501C174.425,238.613 174.344,238.709 174.244,238.779C173.426,239.368 172.49,239.758 171.434,239.943L170.081,240.205L163.917,240.91C158.629,241.481 93.576,250.323 92.289,250.13C92.169,250.111 92.054,250.076 91.946,250.022L85.979,247.062L86.118,239.395C86.118,239.33 86.187,239.287 86.245,239.314L93.769,242.907C93.923,242.98 94.085,243.027 94.251,243.049C94.571,243.093 147.779,236 170.859,232.924C172.613,232.688 173.326,231.679 173.002,229.89Z" style="fill:white;fill-opacity:0.25;"/>
    <path d="M171.434,239.943C171.353,241.064 171.827,271.846 171.908,272.664C172.081,274.437 170.597,276.372 168.651,275.898C169.795,275.188 170.407,274.294 170.485,273.215C170.619,271.372 170.031,241.901 170.081,240.205L171.434,239.943Z" style="fill:white;fill-opacity:0.5;"/>
    <path d="M168.651,275.898C167.905,275.898 166.569,275.593 166.149,275.258C165.567,274.791 165.274,274.259 165.263,273.67C165.239,272.317 163.917,240.91 163.917,240.91L170.081,240.205C170.031,241.901 170.619,271.372 170.485,273.215C170.407,274.294 169.795,275.188 168.651,275.898Z" style="fill:white;fill-opacity:0.35;"/>
    <path d="M195.698,277.412C196.025,278.264 196.122,279.247 195.979,280.353C191.446,282.558 187.004,282.411 182.658,279.906C181.783,279.402 180.677,278.634 179.343,277.601L179.879,274.691C183.429,276.426 187.037,277.378 190.71,277.543C191.994,277.601 193.655,277.559 195.698,277.412Z" style="fill:white;fill-opacity:0.35;"/>
    <path d="M195.979,280.353C196.118,281.521 195.767,282.693 195.725,283.641C195.706,283.984 195.59,284.593 195.374,285.476C195.308,285.734 195.235,286.347 195.15,287.322C194.95,289.593 194.873,291.859 194.919,294.122C194.923,294.214 194.911,294.307 194.892,294.395C194.079,297.783 190.907,299.745 187.65,299.977C185.769,300.112 184.022,299.661 182.407,298.624C180.353,297.302 178.191,294.7 178.557,292.083C178.719,290.93 178.792,290.225 178.776,289.967C178.765,289.774 178.857,289.076 179.062,287.874C179.189,287.106 179.216,286.232 179.139,285.241C178.942,282.778 179.012,280.23 179.343,277.601C180.677,278.634 181.783,279.402 182.658,279.906C187.004,282.411 191.446,282.558 195.979,280.353Z" style="fill:white;fill-opacity:0.75;"/>
</svg>
