<?xml version="1.0" encoding="UTF-8" standalone="no"?>
<!DOCTYPE svg PUBLIC "-//W3C//DTD SVG 1.1//EN" "http://www.w3.org/Graphics/SVG/1.1/DTD/svg11.dtd">
<svg width="100%" height="100%" viewBox="0 0 300 300" version="1.1" xmlns="http://www.w3.org/2000/svg" xmlns:xlink="http://www.w3.org/1999/xlink" xml:space="preserve" xmlns:serif="http://www.serif.com/" style="fill-rule:evenodd;clip-rule:evenodd;stroke-linejoin:round;stroke-miterlimit:2;">
    <path d="M144.026,122.764C143.803,123.664 143.491,124.472 143.115,125.197C141.395,128.507 138.322,130.1 136.207,130.927C135.366,131.256 134.676,131.463 134.282,131.61C131.548,132.624 128.992,133.197 126.62,133.323C125.19,133.398 124.279,133.438 123.896,133.441C119.767,133.473 116.036,132.323 112.703,129.997C110.675,128.578 109.682,124.854 109.732,122.696C109.757,121.711 109.915,120.93 110.205,120.353C110.46,119.847 109.922,119.31 109.42,119.568C108.621,119.973 100.923,119.191 99.227,117.962C97.102,116.424 93.64,112.788 92.099,108.438C88.203,97.443 93.464,92.469 94.328,90.975C94.489,90.695 94.331,90.136 94.034,90.254C86.378,93.315 77.938,76.063 88.096,71.055C88.178,71.015 88.157,70.879 88.096,70.811C83.673,65.665 65.487,46.663 86.576,36.882C88.137,36.158 89.569,35.667 90.888,35.434C91.207,35.38 91.393,35.04 91.267,34.739L90.35,32.549C90.339,32.524 90.336,32.499 90.332,32.474C90.131,30.327 90.688,27.913 92.099,25.28C103.057,4.828 111.522,9.605 115.223,13.797C116.242,14.951 116.728,17.465 116.986,17.237C120.621,14.028 127.126,4.052 142.97,0.218C149.553,-1.375 153.009,6.253 153.983,7.221C154.069,7.307 154.18,7.368 154.299,7.393C154.99,7.554 155.446,7.586 155.664,7.493C157.331,6.78 170.344,-2.014 173.667,6.457C173.717,6.587 173.86,6.655 174,6.633C175.408,6.429 176.371,6.311 176.874,6.232C194.522,3.457 208.295,-1.475 205.406,18.826C205.155,20.593 203.897,22.524 202.525,23.729C202.399,23.836 202.353,24.008 202.406,24.162C202.589,24.696 203.274,24.893 203.851,24.65C204.22,24.496 204.511,24.487 204.732,24.471C221.695,23.226 227.318,35.975 220.717,48.713C220.64,48.86 220.656,49.035 220.778,49.143C222.025,50.229 225.208,56.461 221.226,61.034C220.576,61.78 219.584,62.436 218.635,63.102C216.273,64.762 216.327,67.532 213.18,67.65C211.95,67.697 209.742,67.533 208.295,66.933C208.295,66.933 204.901,65.479 200.949,64.533C196.979,63.583 192.447,63.147 190.229,65.215C189.821,65.596 189.49,66.062 189.257,66.625C189.247,66.663 189.228,66.696 189.203,66.723L189.199,66.716C189.131,66.789 189.029,66.82 188.931,66.772C183.651,64.199 177.677,64.595 172.702,67.7C172.204,68.012 171.419,68.672 170.344,69.686C169.276,70.693 168.04,71.5 166.631,72.105C165.054,72.783 163.083,72.08 161.807,72.682C160.578,73.263 159.8,74.298 159.467,75.793C159.248,76.775 159.008,78.18 158.743,80.008C158.431,82.162 157.707,83.58 155.392,83.728C154.005,83.817 153.173,83.913 152.897,84.018C151.605,84.511 150.798,85.445 150.471,86.799C150.239,87.764 149.988,89.397 149.722,91.695C149.563,93.068 149.267,94.225 148.833,95.168C148.285,96.358 147.586,97.454 146.733,98.454C146.012,99.3 145.429,100.032 144.984,100.651C143.577,102.61 142.987,104.193 142.73,106.318C142.634,107.11 142.701,108.221 142.927,109.654C143.027,110.289 143.607,112.672 144.21,116.88C144.364,117.953 144.422,118.948 144.4,119.869C144.375,120.927 144.242,121.889 144.026,122.764Z" style="fill:white;fill-opacity:0.35;"/>
    <path d="M189.203,66.723C189.562,67.339 189.928,67.939 190.11,68.313C192.143,72.491 195.744,83.99 196.604,88.362C197.073,90.745 197.253,93.139 197.64,95.064C197.981,96.763 197.96,98.533 198.106,100.666C198.156,101.411 198.005,102.386 197.271,102.798C196.313,103.336 195.489,103.523 194.805,103.361C193.977,103.165 192.848,102.995 191.422,102.863C190.493,102.777 189.791,103.078 189.314,103.766C188.012,105.647 187.582,107.716 188.017,109.97C188.357,111.733 190.196,118.869 190.637,119.618C187.791,119.378 185.265,118.8 183.06,117.89C181.652,117.309 181.075,118.772 182.286,119.392C183.265,119.893 184.39,120.287 185.666,120.578C187.408,120.975 189.117,121.259 190.798,121.435C190.823,122.446 190.858,123.445 190.898,124.438C190.944,125.578 190.91,126.574 190.794,127.431C190.535,129.349 190.303,130.57 190.11,131.097C189.423,132.974 188.044,135.116 186.766,137C185.757,138.488 184.942,140.05 184.329,141.684C183.766,141.537 177.007,140.387 175.351,140.046C174.566,139.706 173.19,139.162 171.222,138.419C167.064,136.851 162.079,134.281 156.27,130.71C153.858,129.227 152.005,127.964 150.715,126.926C148.973,125.524 147.099,124.016 145.113,122.374C144.962,122.249 144.736,122.28 144.622,122.442C144.451,122.685 144.251,122.794 144.026,122.764C144.242,121.889 144.375,120.927 144.4,119.869C144.422,118.948 144.364,117.953 144.21,116.88C143.607,112.672 143.027,110.289 142.927,109.654C142.701,108.221 142.634,107.11 142.73,106.318C142.987,104.193 143.577,102.61 144.984,100.651C145.429,100.032 146.012,99.3 146.733,98.454C147.586,97.454 148.285,96.358 148.833,95.168C149.267,94.225 149.563,93.068 149.722,91.695C149.988,89.397 150.239,87.764 150.471,86.799C150.798,85.445 151.605,84.511 152.897,84.018C153.173,83.913 154.005,83.817 155.392,83.728C157.707,83.58 158.431,82.162 158.743,80.008C159.008,78.18 159.248,76.775 159.467,75.793C159.8,74.298 160.578,73.263 161.807,72.682C163.083,72.08 165.054,72.783 166.631,72.105C168.04,71.5 169.276,70.693 170.344,69.686C171.419,68.672 172.204,68.012 172.702,67.7C177.677,64.595 183.651,64.199 188.931,66.772C189.007,66.848 189.137,66.794 189.203,66.723ZM174.211,78.345C173.484,78.714 172.688,79.115 171.828,79.556C171.559,79.696 171.387,79.868 171.315,80.079C171.19,80.456 171.552,80.818 171.943,80.707C176.003,79.581 179.516,79.986 184.239,80.251C185.182,80.305 187.286,80.266 187.82,79.445C188.368,79.022 187.837,78.335 187.418,78.097C185.607,77.072 183.745,76.585 181.82,76.646C179.215,76.728 176.677,77.295 174.211,78.345ZM180.106,83.119C179.003,83.14 178.139,85.108 178.183,87.515C178.225,89.925 179.154,91.86 180.258,91.841C181.361,91.821 182.225,89.853 182.182,87.445C182.139,85.036 181.211,83.101 180.106,83.119Z" style="fill:white;fill-opacity:0.95;"/>
    <path d="M190.229,65.215C192.447,63.147 196.979,63.583 200.949,64.533C201.71,66.845 202.566,69.178 203.059,71.449C203.575,73.84 203.994,76.266 204.313,78.721C202.374,78.341 201.361,77.501 199.582,79.022C199.2,79.349 199.067,79.685 199.184,80.029C199.34,80.487 199.575,80.783 199.894,80.914C202.132,81.838 203.743,82.592 204.714,83.19C204.74,85.667 204.417,102.626 204.256,105.465C204.048,109.181 201.044,126.241 200.288,128.459C199.403,131.043 198.202,133.488 196.686,135.796C193.801,140.193 189.68,142.154 184.329,141.684C184.942,140.05 185.757,138.488 186.766,137C188.044,135.116 189.423,132.974 190.11,131.097C190.303,130.57 190.535,129.349 190.794,127.431C190.91,126.574 190.944,125.578 190.898,124.438C190.858,123.445 190.823,122.446 190.798,121.435C190.798,121.435 195.461,121.502 196.962,121.464C197.83,121.441 199.878,121.162 200.432,120.356C200.653,120.033 200.389,119.6 200.002,119.65C197.64,119.948 190.963,119.668 190.637,119.618C190.196,118.869 188.357,111.733 188.017,109.97C187.582,107.716 188.012,105.647 189.314,103.766C189.791,103.078 190.493,102.777 191.422,102.863C192.848,102.995 193.977,103.165 194.805,103.361C195.489,103.523 196.313,103.336 197.271,102.798C198.005,102.386 198.156,101.411 198.106,100.666C197.96,98.533 197.981,96.763 197.64,95.064C197.253,93.139 197.073,90.745 196.604,88.362C195.744,83.99 192.143,72.491 190.11,68.313C189.928,67.939 189.562,67.339 189.203,66.723C189.228,66.696 189.247,66.663 189.257,66.625C189.49,66.062 189.821,65.596 190.229,65.215ZM201.078,85.054C200.127,85.065 199.374,86.749 199.4,88.817C199.425,90.882 200.217,92.548 201.169,92.537C202.12,92.527 202.872,90.842 202.847,88.775C202.822,86.71 202.03,85.043 201.078,85.054Z" style="fill:white;fill-opacity:0.75;"/>
    <path d="M204.313,78.721C204.603,79.746 205.012,82.879 204.714,83.19C203.743,82.592 202.132,81.838 199.894,80.914C199.575,80.783 199.34,80.487 199.184,80.029C199.067,79.685 199.2,79.349 199.582,79.022C201.361,77.501 202.374,78.341 204.313,78.721Z" style="fill:white;fill-opacity:0.15;"/>
    <path d="M180.106,83.119C179.003,83.14 178.139,85.108 178.183,87.515C178.225,89.925 179.154,91.86 180.258,91.841C181.361,91.821 182.225,89.853 182.182,87.445C182.139,85.036 181.211,83.101 180.106,83.119Z" style="fill:white;fill-opacity:0.15;"/>
    <path d="M201.078,85.054C200.127,85.065 199.374,86.749 199.4,88.817C199.425,90.882 200.217,92.548 201.169,92.537C202.12,92.527 202.872,90.842 202.847,88.775C202.822,86.71 202.03,85.043 201.078,85.054Z" style="fill:white;fill-opacity:0.15;"/>
    <path d="M190.637,119.618C190.963,119.668 197.64,119.948 200.002,119.65C200.389,119.6 200.653,120.033 200.432,120.356C199.878,121.162 197.83,121.441 196.962,121.464C195.461,121.502 190.798,121.435 190.798,121.435C189.117,121.259 187.408,120.975 185.666,120.578C184.39,120.287 183.265,119.893 182.286,119.392C181.075,118.772 181.652,117.309 183.06,117.89C185.265,118.8 187.791,119.378 190.637,119.618Z" style="fill:white;fill-opacity:0.15;"/>
    <path d="M175.351,140.046C172.86,143.763 171.305,147.748 170.685,152.003C170.48,153.425 170.72,154.769 170.595,156.192C168.441,156.404 166.316,156.318 164.226,155.938C163.463,152.415 162.359,149.322 160.908,146.655C158.402,142.05 155.284,137.659 151.557,133.481C150.55,132.352 149.138,130.928 147.324,129.212C145.921,127.885 144.518,126.545 143.115,125.197C143.491,124.472 143.803,123.664 144.026,122.764C144.251,122.794 144.451,122.685 144.622,122.442C144.736,122.28 144.962,122.249 145.113,122.374C147.099,124.016 148.973,125.524 150.715,126.926C152.005,127.964 153.858,129.227 156.27,130.71C162.079,134.281 167.064,136.851 171.222,138.419C173.19,139.162 174.566,139.706 175.351,140.046Z" style="fill:white;fill-opacity:0.75;"/>
    <path d="M119.093,155.196C120.165,154.189 121.272,153.261 122.416,152.418C124.319,151.017 125.466,150.139 125.849,149.784C127.77,148.021 129.508,146.329 131.067,144.713C132.962,142.746 135.222,134.537 136.207,130.927C138.322,130.1 141.395,128.507 143.115,125.197C144.518,126.545 145.921,127.885 147.324,129.212C149.138,130.928 150.55,132.352 151.557,133.481C155.284,137.659 158.402,142.05 160.908,146.655C162.359,149.322 163.463,152.415 164.226,155.938C164.226,155.938 150.758,157.046 145.801,157.246C144.998,157.278 142.49,157.342 138.275,157.432C131.799,157.571 125.405,156.827 119.093,155.196Z" style="fill:white;fill-opacity:0.95;"/>
    <path d="M170.595,156.192C171.251,156.483 196.16,155.196 199.718,169.138C200.26,171.259 204.456,215.22 204.435,215.98C204.431,216.098 199.554,218.166 199.378,218.249C190.081,222.639 180.691,226.438 171.204,229.639C166.785,231.129 162.392,232.4 158.019,233.448C157.854,233.488 157.754,233.653 157.786,233.817C160.499,246.834 164.056,259.503 168.448,271.822C170.273,276.94 172.47,281.936 175.036,286.814C176.749,290.071 178.925,292.641 181.44,295.465C182.021,296.118 183.036,296.923 183.626,297.236C184.469,297.682 185.422,298.221 186.483,298.856C182.992,299.515 180.3,299.866 178.405,299.913C174.172,300.017 170.172,300.028 166.409,299.945C165.345,299.92 163.151,299.745 159.829,299.418C148.665,298.318 137.97,295.662 127.745,291.458C121.341,288.828 115.133,285.398 109.836,281.273C109.664,281.137 109.741,280.931 109.757,280.714C111.543,256.074 99.658,205.093 99.658,195.9C99.658,168.522 112.642,157.346 113.707,155.934C113.85,155.744 115.73,153.446 119.093,155.196C125.405,156.827 131.799,157.571 138.275,157.432C142.49,157.342 144.998,157.278 145.801,157.246C150.758,157.046 164.226,155.938 164.226,155.938C166.316,156.318 168.441,156.404 170.595,156.192Z" style="fill:white;fill-opacity:0.95;"/>
    <path d="M199.378,218.249C199.554,218.166 199.564,297.985 199.432,298.057C195.801,300.046 186.759,298.867 186.483,298.856C185.422,298.221 184.469,297.682 183.626,297.236C183.036,296.923 182.021,296.118 181.44,295.465C178.925,292.641 176.749,290.071 175.036,286.814C172.47,281.936 170.273,276.94 168.448,271.822C164.056,259.503 160.499,246.834 157.786,233.817C157.754,233.653 157.854,233.488 158.019,233.448C162.392,232.4 166.785,231.129 171.204,229.639C180.691,226.438 190.081,222.639 199.378,218.249Z" style="fill:white;fill-opacity:0.85;"/>
    <path d="M174.211,78.345C176.677,77.295 179.215,76.728 181.82,76.646C183.745,76.585 185.607,77.072 187.418,78.097C187.837,78.335 188.368,79.022 187.82,79.445C187.286,80.266 185.182,80.305 184.239,80.251C179.516,79.986 176.003,79.581 171.943,80.707C171.552,80.818 171.19,80.456 171.315,80.079C171.387,79.868 171.559,79.696 171.828,79.556C172.688,79.115 173.484,78.714 174.211,78.345Z" style="fill:white;fill-opacity:0.15;"/>
</svg>
