<?xml version="1.0" encoding="UTF-8" standalone="no"?>
<!DOCTYPE svg PUBLIC "-//W3C//DTD SVG 1.1//EN" "http://www.w3.org/Graphics/SVG/1.1/DTD/svg11.dtd">
<svg width="100%" height="100%" viewBox="0 0 300 300" version="1.1" xmlns="http://www.w3.org/2000/svg" xmlns:xlink="http://www.w3.org/1999/xlink" xml:space="preserve" xmlns:serif="http://www.serif.com/" style="fill-rule:evenodd;clip-rule:evenodd;stroke-linejoin:round;stroke-miterlimit:2;">
    <path d="M141.013,20.883C140.992,20.771 140.887,20.711 140.701,20.701C139.635,20.655 138.615,20.841 137.641,21.262C137.073,21.507 136.487,21.693 135.884,21.819C135.779,21.84 135.688,21.935 135.614,22.1L135.376,21.966C135.281,21.914 135.173,21.903 135.071,21.935L133.988,22.268C133.928,22.285 133.865,22.296 133.806,22.299C131.59,22.345 130.132,22.331 129.431,22.25C128.596,22.156 127.913,21.767 127.376,21.076C127.296,20.974 127.243,20.848 127.233,20.715C127.215,20.55 127.201,20.175 127.191,19.583C127.159,18.072 125.816,17.746 124.533,18.272C123.289,18.783 122.356,18.468 121.743,17.322C121.687,17.216 121.655,17.104 121.648,16.989C121.557,15.229 121.606,13.455 122.448,11.832C123.24,10.307 124.232,9.017 125.42,7.962C125.427,7.955 126.02,7.562 127.198,6.787C128.382,6.006 129.539,4.768 130.367,3.724C130.871,3.082 131.38,2.581 131.892,2.22C135.096,-0.055 138.868,-1.149 142.128,1.743C142.531,2.1 142.755,2.504 143.172,2.917C143.264,3.008 143.4,3.033 143.519,2.987C145.423,2.248 147.442,2.395 148.522,4.102C149.707,5.974 149.202,9.192 148.785,11.313C148.715,11.674 148.823,12.042 149.079,12.305C149.675,12.922 150.559,13.851 150.825,14.685C151.274,16.098 151.365,17.315 151.102,18.335C150.436,20.911 148.725,21.956 145.973,21.476C144.767,21.262 143.264,21.027 141.462,20.764C141.356,20.75 141.248,20.768 141.153,20.813L141.013,20.883Z" style="fill:white;fill-opacity:0.25;fill-rule:nonzero;"/>
    <path d="M141.013,20.883C140.466,21.952 140.263,23.015 140.406,24.07C140.456,24.448 140.715,24.767 141.08,24.894C142.443,25.36 143.982,25.71 145.696,25.945C149.517,26.461 150.629,31.204 151.484,34.288C151.526,34.443 151.424,34.569 151.183,34.664C150.594,35.046 149.917,35.424 149.156,35.796C148.764,35.989 148.497,36.209 148.357,36.458C148.115,36.89 147.835,37.145 147.512,37.226C147.39,37.258 147.302,37.37 147.305,37.496C147.319,37.99 147.295,38.306 147.232,38.45C146.394,40.297 145.809,42.172 145.483,44.072C145.164,45.443 144.971,46.824 144.911,48.216C144.841,49.822 144.75,51.073 143.8,52.076C143.53,52.36 143.151,52.521 142.762,52.51C140.526,52.468 138.061,52.545 135.366,52.738C134.601,52.794 132.47,52.686 131.853,51.753C131.429,51.112 131.211,50.673 131.201,50.435C131.103,48.16 130.808,45.874 130.318,43.578C130.181,42.509 130.325,41.152 130.756,39.515C130.805,39.329 130.703,39.137 130.521,39.077C128.793,38.499 127.18,37.671 125.676,36.602C124.74,35.94 123.983,35.456 123.398,35.154C123.138,33.121 123.552,31.161 124.642,29.272C125.494,27.793 126.893,26.797 128.831,26.282C129.077,26.215 129.315,26.128 129.543,26.012C130.777,25.398 132.186,24.964 133.767,24.711C133.963,24.68 134.146,24.603 134.3,24.48C135.11,23.859 136.035,23.358 135.614,22.1C135.688,21.935 135.779,21.84 135.884,21.819C136.487,21.693 137.073,21.507 137.641,21.262C138.615,20.841 139.635,20.655 140.701,20.701C140.887,20.711 140.992,20.771 141.013,20.883Z" style="fill:white;fill-opacity:0.95;fill-rule:nonzero;"/>
    <path d="M151.183,34.664C152.062,36.76 152.707,38.923 153.121,41.152C153.174,41.419 153.174,41.692 153.121,41.959C152.332,46.025 149.766,49.839 146.58,52.64C146.506,52.601 146.447,52.542 146.397,52.454C146.345,52.367 146.331,52.286 146.348,52.205C146.527,51.483 146.412,50.863 146.005,50.344C145.914,50.225 145.851,50.084 145.823,49.937C145.472,48.065 145.504,46.253 145.914,44.504L146.653,41.871C146.706,41.682 146.029,41.966 146.068,42.295L145.483,44.072C145.809,42.172 146.394,40.297 147.232,38.45C147.295,38.306 147.319,37.99 147.305,37.496C147.302,37.37 147.39,37.258 147.512,37.226C147.835,37.145 148.115,36.89 148.357,36.458C148.497,36.209 148.764,35.989 149.156,35.796C149.917,35.424 150.594,35.046 151.183,34.664Z" style="fill:white;fill-opacity:0.75;fill-rule:nonzero;"/>
    <path d="M130.318,43.578C129.715,44.444 129.35,45.45 129.227,46.589C127.783,49.611 125.936,52.191 123.682,54.33C123.191,54.792 121.666,55.984 119.103,57.905C118.679,58.224 118.111,59.055 117.4,60.394C117.361,60.464 117.333,60.538 117.312,60.619C116.639,63.094 115.289,63.493 113.102,64.398C113.049,64.419 112.986,64.422 112.926,64.401L111.833,64.019C111.549,63.917 111.384,63.626 111.447,63.335C111.598,62.61 111.896,61.863 112.345,61.095C113.305,59.455 113.515,57.436 115.64,56.77C115.906,56.689 116.141,56.524 116.344,56.279C120.719,50.982 123.079,44.879 123.426,37.962C123.485,36.83 123.475,35.894 123.398,35.154C123.983,35.456 124.74,35.94 125.676,36.602C127.18,37.671 128.793,38.499 130.521,39.077C130.703,39.137 130.805,39.329 130.756,39.515C130.325,41.152 130.181,42.509 130.318,43.578Z" style="fill:white;fill-opacity:0.75;fill-rule:nonzero;"/>
    <path d="M146.068,42.295C145.766,43.284 145.714,44.02 145.914,44.504C145.504,46.253 145.472,48.065 145.823,49.937C145.851,50.084 145.914,50.225 146.005,50.344C146.412,50.863 146.527,51.483 146.348,52.205C146.331,52.286 146.345,52.367 146.397,52.454C146.447,52.542 146.506,52.601 146.58,52.64C146.471,52.843 146.468,53.008 146.573,53.131C147.064,53.713 147.249,54.27 147.127,54.803C147.099,54.919 147.12,55.041 147.183,55.139C147.544,55.711 147.281,56.573 147.568,56.931C147.579,56.945 147.621,57.201 147.695,57.699C147.877,58.961 148.136,60.875 148.476,63.444C148.613,64.482 148.676,65.495 148.666,66.487C148.648,68.085 148.655,69.221 148.683,69.898C148.687,69.915 148.69,69.936 148.694,69.957L148.974,71.009L148.974,71.02C148.974,74.932 148.799,76.506 149.156,79.04C149.332,80.281 149.055,81.95 149.353,83.503C149.451,84.011 149.479,84.635 149.437,85.375C149.37,86.486 149.7,87.313 149.682,88.474C149.679,88.667 149.703,88.859 149.752,89.045C149.97,89.879 149.907,90.528 150.04,91.257C150.317,92.733 150.864,96.354 151.68,102.121C151.764,102.699 151.81,102.997 151.817,103.008C152.171,103.485 151.856,103.989 152.083,104.463C152.402,105.125 152.083,105.763 152.406,106.285C152.455,106.366 152.48,106.457 152.483,106.548C152.494,107.439 153.041,108.49 152.469,109.5C152.522,109.518 152.574,109.539 152.627,109.556C151.053,107.547 150.162,105.549 149.959,103.562C149.454,98.629 148.9,93.592 148.294,88.456C148.098,86.795 147.74,81.883 147.225,73.719C146.955,69.484 146.534,65.73 146.352,61.818C146.282,60.282 146.005,57.87 145.5,56.836C144.659,55.132 143.491,54.929 141.707,54.407C139.807,53.853 138.198,54.07 136.421,54.225C136.203,54.242 135.986,54.225 135.776,54.172C134.531,53.86 133.269,53.678 131.983,53.625C131.39,53.601 130.545,53.327 129.448,52.798C129.62,51.161 129.655,49.986 129.55,49.271C129.35,47.908 129.245,47.014 129.227,46.589C129.35,45.45 129.715,44.444 130.318,43.578C130.808,45.874 131.103,48.16 131.201,50.435C131.211,50.673 131.429,51.112 131.853,51.753C132.47,52.686 134.601,52.794 135.366,52.738C138.061,52.545 140.526,52.468 142.762,52.51C143.151,52.521 143.53,52.36 143.8,52.076C144.75,51.073 144.841,49.822 144.911,48.216C144.971,46.824 145.164,45.443 145.483,44.072L146.068,42.295Z" style="fill:white;fill-opacity:0.5;fill-rule:nonzero;"/>
    <path d="M129.448,52.798C130.545,53.327 131.39,53.601 131.983,53.625C133.269,53.678 134.531,53.86 135.776,54.172C135.986,54.225 136.203,54.242 136.421,54.225C138.198,54.07 139.807,53.853 141.707,54.407C143.491,54.929 144.659,55.132 145.5,56.836C146.005,57.87 146.282,60.282 146.352,61.818C146.534,65.73 146.955,69.484 147.225,73.719C147.74,81.883 148.098,86.795 148.294,88.456C148.9,93.592 149.454,98.629 149.959,103.562C150.162,105.549 151.053,107.547 152.627,109.556C150.678,110.685 148.638,110.734 146.503,109.707L145.598,108.799C145.507,108.704 145.44,108.589 145.409,108.459C145.188,107.505 144.873,106.811 144.701,105.711C144.561,104.827 144.35,103.849 144.073,102.776C143.604,100.971 142.741,97.893 141.49,93.536C140.683,90.724 140.14,87.608 139.818,84.085C139.435,79.857 139.134,76.302 138.282,72.05C138.279,72.033 138.279,72.015 138.275,71.998L138.184,70.427C138.18,70.385 138.149,70.35 138.107,70.35C138.065,70.347 138.026,70.375 138.019,70.417C137.756,71.815 136.982,75.486 135.695,81.428C134.913,85.035 134.458,88.337 134.331,91.327C134.282,92.46 133.802,94.475 132.894,97.374C131.618,101.441 130.072,105.507 128.26,109.574C126.465,110.236 124.765,109.78 123.163,108.207C122.717,107.765 122.563,107.376 122.693,107.036C122.798,106.766 122.851,106.626 122.854,106.608C123.576,102.843 124.305,99.071 125.038,95.292C125.301,93.935 125.511,91.871 125.666,89.091C125.732,87.871 125.802,86.917 125.872,86.227C125.999,84.954 125.943,83.927 126.048,82.409C126.367,77.806 126.542,74.651 127.068,70.518C127.555,66.69 128.077,62.736 128.631,58.659C128.754,57.765 128.863,56.591 128.964,55.136C128.996,54.715 129.056,54.323 129.147,53.955C129.248,53.534 129.35,53.148 129.448,52.798Z" style="fill:white;fill-opacity:0.95;fill-rule:nonzero;"/>
    <path d="M123.163,108.207C124.765,109.78 126.465,110.236 128.26,109.574L128.463,112.662C128.467,112.75 128.505,112.83 128.572,112.886C128.698,112.995 128.761,113.146 128.761,113.346C128.765,114.268 128.649,115.049 128.414,115.691C128.211,116.245 127.727,116.63 127.17,116.676C126.977,116.693 126.766,116.743 126.546,116.823C126.405,116.876 126.255,116.89 126.104,116.862C123.226,116.339 120.66,115.204 118.406,113.458C117.322,112.62 116.618,111.582 116.295,110.345C116.166,109.851 116.246,109.272 116.541,108.617C116.59,108.504 116.677,108.41 116.79,108.354C117.589,107.947 118.458,107.796 119.401,107.902C119.503,107.912 119.605,107.94 119.703,107.979C120.656,108.364 121.238,108.589 121.448,108.655C122.349,108.939 122.921,108.788 123.163,108.207Z" style="fill:white;fill-opacity:0.35;fill-rule:nonzero;"/>
    <path d="M152.469,109.5C152.62,111.337 152.788,112.616 152.977,113.342C153.444,115.112 153.612,116.367 153.482,117.111C153.458,117.258 153.398,117.398 153.307,117.517C153.009,117.906 152.515,118.117 151.817,118.148C151.351,118.169 149.265,118.162 145.567,118.124C145.447,118.12 145.328,118.096 145.22,118.05C144.946,117.931 144.62,117.868 144.242,117.857C143.597,117.84 142.966,117.615 142.45,117.212C142.345,117.132 142.254,117.083 142.177,117.065C142.019,117.044 141.882,116.946 141.812,116.802L141.248,115.652C141.195,115.544 141.188,115.417 141.234,115.305C141.497,114.643 141.973,114.247 142.661,114.117C143.961,113.875 145.027,113.307 145.861,112.413C145.949,112.319 146.008,112.199 146.033,112.07L146.503,109.707C148.638,110.734 150.678,110.685 152.627,109.556C152.574,109.539 152.522,109.518 152.469,109.5Z" style="fill:white;fill-opacity:0.35;fill-rule:nonzero;"/>
    <path d="M133.154,128.248L126.563,129.036C126.486,129.047 126.409,129.029 126.342,128.987C125.771,128.633 125.319,128.202 124.979,127.697C124.73,127.329 124.74,126.846 125,126.488C125.911,125.247 127.299,124.844 128.814,124.619C130.654,124.35 134.44,125.475 133.22,128.199C133.206,128.227 133.182,128.244 133.154,128.248Z" style="fill:white;fill-opacity:0.5;fill-rule:nonzero;"/>
    <path d="M146.738,131.75L140.109,131.894C139.909,131.897 139.723,131.781 139.635,131.599C139.134,130.533 139.351,129.587 140.287,128.76C141.896,127.336 144.077,127.084 146.036,127.69C146.913,127.964 148.571,128.907 148.101,130.046C147.782,130.821 147.372,131.375 146.867,131.708C146.829,131.736 146.783,131.75 146.738,131.75Z" style="fill:white;fill-opacity:0.5;fill-rule:nonzero;"/>
    <path d="M133.781,129.832L133.813,130.078C133.858,130.414 133.658,130.737 133.339,130.838C131.562,131.42 127.51,132.213 126.742,130.211C126.693,130.081 126.777,129.941 126.914,129.92L132.806,129.096C133.28,129.029 133.714,129.359 133.781,129.832Z" style="fill:white;fill-opacity:0.5;fill-rule:nonzero;"/>
    <path d="M146.734,133.082C146.615,133.958 146.135,134.54 145.297,134.828C143.765,135.35 141.069,135.595 139.572,134.838C139.449,134.775 139.362,134.666 139.32,134.54C139.159,134.039 139.306,133.569 139.765,133.127C139.835,133.061 139.926,133.022 140.024,133.019L146.552,132.879C146.66,132.875 146.748,132.973 146.734,133.082Z" style="fill:white;fill-opacity:0.5;fill-rule:nonzero;"/>
    <path d="M132.014,144.941C131.993,144.983 131.955,145.011 131.909,145.018L123.212,146.235C123.138,146.245 123.065,146.221 123.012,146.168C122.251,145.464 121.739,144.745 121.473,144.012C120.912,142.48 122.717,140.843 123.892,140.272C126.721,138.891 129.571,138.642 131.87,141.236C131.948,141.323 132.011,141.418 132.06,141.523C132.582,142.61 132.568,143.749 132.014,144.941Z" style="fill:white;fill-opacity:0.5;fill-rule:nonzero;"/>
    <path d="M150.271,151.332C147.074,151.174 144.028,151.213 141.136,151.454C140.985,151.469 140.841,151.388 140.775,151.251C139.916,149.484 139.965,147.658 141.234,146.063C142.899,143.97 145.213,143.304 148.175,144.065C149.651,144.443 150.8,145.236 151.628,146.445C151.701,146.55 151.754,146.666 151.789,146.792C152.301,148.682 151.684,149.379 150.611,151.15C150.541,151.269 150.408,151.339 150.271,151.332Z" style="fill:white;fill-opacity:0.5;fill-rule:nonzero;"/>
    <path d="M123.517,147.844C123.499,147.707 123.597,147.581 123.734,147.563L131.292,146.508C132.021,146.406 132.684,146.939 132.74,147.676L132.747,147.788C132.831,148.583 132.344,149.327 131.58,149.565C129.115,150.336 123.972,151.388 123.517,147.844Z" style="fill:white;fill-opacity:0.5;fill-rule:nonzero;"/>
    <path d="M150.162,153.351C150.324,155.514 148.315,156.674 146.415,156.888C144.582,157.095 141.952,157.302 140.526,156.068C140.371,155.931 140.27,155.742 140.249,155.535C140.172,154.802 140.336,154.042 140.743,153.253C140.824,153.095 140.985,152.997 141.16,152.997L149.78,152.997C149.98,152.997 150.145,153.151 150.162,153.351Z" style="fill:white;fill-opacity:0.5;fill-rule:nonzero;"/>
    <path d="M130.787,169.852C126.745,170.164 122.717,170.837 118.7,171.871C118.619,171.888 118.535,171.86 118.486,171.797C116.762,169.533 115.587,166.854 117.056,164.078C118.357,161.624 120.439,160.005 123.31,159.216C126.409,158.364 128.866,159.503 130.696,162.003C132.182,164.032 132.074,167.24 131.145,169.589C131.085,169.736 130.945,169.838 130.787,169.852Z" style="fill:white;fill-opacity:0.5;fill-rule:nonzero;"/>
    <path d="M158.011,180.82C157.85,180.828 157.724,180.722 157.468,180.775C153.384,181.588 149.142,182.664 145.181,184.196C144.932,184.291 144.652,184.207 144.497,183.99C141.893,180.316 140.827,176.326 142.759,172.015C144.852,167.335 150.331,166.644 154.422,169.031C155.827,169.848 156.897,170.868 157.636,172.088C159.077,174.465 158.975,177.9 158.292,180.589C158.257,180.719 158.145,180.813 158.011,180.82Z" style="fill:white;fill-opacity:0.5;fill-rule:nonzero;"/>
    <path d="M118.935,174.763C118.938,174.588 119.065,174.437 119.236,174.405L130.868,172.288C131.068,172.249 131.271,172.341 131.373,172.516C132,173.568 132.326,174.591 132.358,175.587C132.361,175.716 132.351,175.843 132.323,175.969C131.853,177.995 130.265,178.703 128.302,179.264C126.244,179.849 124.362,180.018 122.647,179.762C120.064,179.38 118.917,177.15 118.935,174.763Z" style="fill:white;fill-opacity:0.5;fill-rule:nonzero;"/>
    <path d="M158.797,183.997C158.877,183.975 158.961,184.014 158.996,184.091C159.533,185.287 159.81,186.535 159.824,187.835C159.876,192.347 155.309,194.159 151.512,194.688C149.191,195.007 146.727,194.632 145.935,192.161C145.483,190.748 145.367,189.293 145.591,187.793C145.626,187.569 145.791,187.383 146.012,187.327L158.797,183.997Z" style="fill:white;fill-opacity:0.5;fill-rule:nonzero;"/>
    <path d="M106.862,227.472C106.704,227.486 106.567,227.371 106.553,227.213C106.059,221.345 106.066,215.073 109.039,209.801C112.236,204.139 118.293,198.418 125.248,198.594C127.411,198.646 129.245,199.652 130.507,201.587C133.224,205.766 133.497,211.382 132.442,216.146C131.625,219.837 130.303,223.483 128.47,227.083C128.361,227.297 128.134,227.42 127.899,227.392C121.554,226.645 115.138,226.561 108.653,227.143C107.998,227.202 107.419,227.427 106.862,227.472Z" style="fill:white;fill-opacity:0.5;fill-rule:nonzero;"/>
    <path d="M188.706,260.414C186.298,260.544 184.902,260.642 184.52,260.712C178.55,261.802 174.516,262.661 172.416,263.285C169.092,264.277 166.768,264.856 164.458,266.065C164.097,266.254 163.652,266.132 163.434,265.785C160.153,260.537 157.72,254.973 156.136,249.095C154.916,244.562 154.671,239.447 155.635,234.666C155.947,233.127 156.343,231.83 156.826,230.782C158.825,226.452 162.884,225.211 167.371,226.032C170.326,226.575 173.092,227.865 175.662,229.909C180.577,233.814 184.289,238.746 186.15,244.737C187.738,249.852 188.461,254.959 188.864,260.235C188.871,260.33 188.801,260.411 188.706,260.414Z" style="fill:white;fill-opacity:0.5;fill-rule:nonzero;"/>
    <path d="M105.007,234.848C105.078,234.666 105.253,234.543 105.449,234.54L126.02,234.094C126.111,234.091 126.202,234.126 126.269,234.193C127.054,234.943 126.728,235.977 126.759,236.892C126.861,239.623 126.517,242.252 125.722,244.779C124.298,249.315 120.951,251.91 116.232,252.709C113.922,253.101 111.71,253.108 109.596,252.73C107.034,252.271 105.197,251.04 104.078,249.035C101.996,245.291 103.444,238.809 105.007,234.848Z" style="fill:white;fill-opacity:0.5;fill-rule:nonzero;"/>
    <path d="M192.11,270.079C192.205,270.177 192.303,270.335 192.408,270.556C194.367,274.601 195.749,278.671 196.548,282.765C196.695,283.516 196.821,284.732 196.926,286.418C197.133,289.706 196.299,292.602 194.424,295.105C194.273,295.305 194.083,295.473 193.863,295.592C193.34,295.876 192.394,296.423 191.03,297.226C189.014,298.411 186.848,299.259 184.531,299.771C183.518,299.995 182.571,300.055 181.691,299.95C180.57,299.816 179.623,299.676 178.848,299.532C175.367,298.88 172.437,295.883 170.821,292.76C169.958,291.098 169.38,289.692 169.089,288.539C168.686,286.958 168.107,285.419 167.823,283.905C167.34,281.297 166.993,278.681 166.786,276.059C166.754,275.691 167.003,275.355 167.368,275.278L191.854,269.998C191.949,269.977 192.043,270.009 192.11,270.079Z" style="fill:white;fill-opacity:0.5;fill-rule:nonzero;"/>
</svg>
