<?xml version="1.0" encoding="UTF-8" standalone="no"?>
<!DOCTYPE svg PUBLIC "-//W3C//DTD SVG 1.1//EN" "http://www.w3.org/Graphics/SVG/1.1/DTD/svg11.dtd">
<svg width="100%" height="100%" viewBox="0 0 300 300" version="1.1" xmlns="http://www.w3.org/2000/svg" xmlns:xlink="http://www.w3.org/1999/xlink" xml:space="preserve" xmlns:serif="http://www.serif.com/" style="fill-rule:evenodd;clip-rule:evenodd;stroke-linejoin:round;stroke-miterlimit:2;">
    <path d="M192.151,92.521C190.139,93.755 188.266,94.481 186.526,94.701C184.694,94.935 181.145,95.075 175.875,95.13C174.532,94.468 173.496,93.713 172.767,92.869C171.82,91.772 170.903,90.404 170.014,88.76C169.32,87.475 168.744,85.934 168.281,84.14C167.641,81.668 167.133,79.778 166.752,78.474C166.356,77.102 166.385,75.759 165.946,74.339C165.528,72.983 165.195,71.778 164.955,70.723C164.188,67.359 163.631,65.252 163.977,62.428C163.99,62.316 163.932,62.208 163.83,62.156C160.469,60.529 157.575,57.584 157.064,53.744C157.048,53.632 157.041,52.724 157.044,51.026C157.044,50.942 157.128,50.885 157.207,50.914C158.746,51.496 160.191,51.358 161.914,51.077C165.863,50.437 171.21,49.085 176.134,48.41C184.003,47.326 192.822,47.863 195.725,56.813C195.767,56.938 195.86,57.037 195.978,57.088C198.923,58.278 201.36,59.566 202.386,62.575C202.626,63.282 202.789,64.478 202.882,66.169C203.003,68.424 202.53,70.579 201.465,72.635C200.279,74.921 199.524,76.376 199.208,76.993C199.022,77.351 198.76,78.56 198.421,80.622C198.405,80.718 198.376,80.811 198.341,80.897C198.044,81.604 197.602,82.234 197.017,82.79C196.861,82.944 196.777,83.158 196.79,83.376C197.008,86.701 195.841,89.429 193.289,91.555C192.87,91.907 192.49,92.23 192.151,92.521ZM177.295,64.331C175.833,64.714 174.43,64.766 173.087,64.487C172.581,64.382 171.923,64.072 171.114,63.557C170.698,63.295 170.378,63.164 170.158,63.167C169.71,63.17 169.425,63.336 169.304,63.659C168.098,66.847 167.267,69.974 166.803,73.044C166.634,74.173 166.714,74.915 166.966,75.922C167.488,78.016 168.463,80.04 169.892,82.001C170.618,82.995 171.283,83.599 171.891,83.82C173.774,84.501 176.128,84.293 177.774,83.878C180.16,83.273 182.308,82.896 184.221,82.742C185.557,82.889 186.884,83.078 188.205,83.312C191.268,83.846 192.685,81.073 193.247,78.646C193.666,76.84 194.015,75.407 194.299,74.352C194.664,72.983 194.689,71.701 194.504,70.336C194.13,67.611 193.538,64.951 192.729,62.355C192.512,61.661 192.211,61.05 191.828,60.519C191.767,60.433 191.687,60.363 191.594,60.318C189.602,59.327 187.389,59.752 185.42,60.59C184.054,61.168 182.446,61.955 180.591,62.953C179.581,63.496 178.43,63.909 177.295,64.331ZM196.694,80.427C197.638,79.663 198.271,78.937 198.597,78.247C198.642,78.151 198.674,78.052 198.696,77.946C198.91,76.824 199.009,76.082 198.997,75.714C198.952,74.489 198.552,73.508 197.801,72.769C197.66,72.632 197.427,72.699 197.379,72.891L196.474,76.52C196.426,76.702 196.41,76.891 196.423,77.083L196.646,80.408C196.65,80.431 196.675,80.443 196.694,80.427ZM181.963,87.814L177.867,88.335C177.8,88.345 177.739,88.364 177.678,88.392C177.259,88.594 177.061,88.933 177.09,89.406C177.151,90.509 178.241,90.602 179.172,90.672C180.019,90.733 180.828,90.672 181.602,90.484C183.399,90.116 184.962,89.397 186.296,88.329C187.172,87.631 187.102,86.41 185.903,86.186C185.794,86.164 185.682,86.177 185.583,86.221L181.963,87.814Z" style="fill:white;fill-opacity:0.25;fill-rule:nonzero;"/>
    <path d="M140.075,99.84C140.439,101.573 140.433,103.322 140.056,105.087L138.646,107.476C135.947,106.011 133.36,105.72 130.252,105.477C129.299,105.4 128.078,105.257 126.588,105.049C125.331,104.873 124.103,104.764 122.904,104.723C120.566,104 118.734,102.529 117.401,100.313C117.302,98.35 118.162,97.068 119.981,96.466C120.886,96.169 121.877,95.814 122.952,95.402C126.012,94.228 127.915,92.079 128.653,88.962C128.887,87.99 129.107,86.688 129.321,85.057C129.433,84.21 129.897,82.643 130.706,80.357C131.531,78.023 132.561,74.109 129.459,72.868C128.989,72.683 127.95,72.414 127.371,72.347C125.734,72.158 124.132,71.954 122.565,71.727C121.571,71.583 120.387,71.177 119.259,70.927C116.675,69.795 114.21,68.155 111.863,66.006C110.807,65.041 110.05,64.324 109.592,63.861C108.278,62.537 107.789,63.378 106.999,64.67C105.282,67.484 103.888,70.483 102.823,73.671C102.689,74.071 102.286,74.317 101.87,74.253C100.674,74.067 99.907,74.937 99.571,76.859C99.395,74.832 99.402,72.852 99.597,70.918C100.048,66.38 101.336,59.643 106.564,58.172C106.657,58.143 106.747,58.105 106.83,58.054C107.258,57.782 107.543,57.577 107.683,57.434C110.04,55.071 112.975,53.539 116.333,53.446C118.383,53.392 120.093,53.587 121.932,54.294C125.938,55.832 129.548,58.498 132.075,62.035C133.667,64.264 135.678,67.544 137.689,69.082C139.125,70.176 140.011,70.857 140.353,71.129C143.762,73.821 146.339,77.709 145.098,82.064C144.152,85.39 141.252,88.652 139.893,92.31C139.503,93.362 139.343,94.557 139.416,95.891C139.49,97.218 139.707,98.532 140.075,99.84Z" style="fill:white;fill-opacity:0.35;fill-rule:nonzero;"/>
    <path d="M184.221,82.742L182.337,82.666C182.094,82.656 181.874,82.522 181.752,82.311C181.356,81.626 180.697,81.367 179.885,81.281C178.232,81.099 178.631,78.384 178.81,77.418C179.191,75.343 179.447,73.648 179.575,72.331C179.766,70.342 179.418,68.341 178.532,66.326C178.305,65.808 177.893,65.143 177.295,64.331C178.43,63.909 179.581,63.496 180.591,62.953C182.446,61.955 184.054,61.168 185.42,60.59C187.389,59.752 189.602,59.327 191.594,60.318C191.687,60.363 191.767,60.433 191.828,60.519C192.211,61.05 192.512,61.661 192.729,62.355C193.538,64.951 194.13,67.611 194.504,70.336C194.689,71.701 194.664,72.983 194.299,74.352C194.015,75.407 193.666,76.84 193.247,78.646C192.685,81.073 191.268,83.846 188.205,83.312C186.884,83.078 185.557,82.889 184.221,82.742ZM185.707,69.853C185.883,69.863 188.259,70.125 188.812,69.546C189.001,69.348 188.924,69.002 188.652,68.843C187.856,68.372 186.686,68.2 185.794,68.152C184.905,68.107 183.722,68.161 182.881,68.545C182.593,68.676 182.481,69.012 182.651,69.229C183.143,69.859 185.532,69.847 185.707,69.853ZM183.857,71.713C183.444,71.762 183.201,72.545 183.308,73.459C183.418,74.374 183.84,75.078 184.252,75.028C184.665,74.979 184.908,74.195 184.8,73.281C184.691,72.366 184.269,71.663 183.857,71.713Z" style="fill:white;fill-opacity:0.95;fill-rule:nonzero;"/>
    <path d="M119.259,70.927C119.495,72.475 119.607,74.432 119.594,76.801C119.582,79.679 119.323,82.055 118.817,83.929C118.642,84.575 118.207,84.725 117.506,84.383C116.544,83.913 115.415,83.532 114.92,84.907C114.443,86.221 114.162,87.644 114.069,89.173C113.004,88.242 112.278,87.139 111.888,85.863C111.856,85.754 111.722,85.719 111.639,85.793L111.613,85.815C111.501,85.914 111.45,86.065 111.479,86.209C111.831,88.006 112.742,89.329 114.213,90.177C114.056,91.852 114.079,93.141 114.277,94.039C114.74,96.147 115.78,98.238 117.401,100.313C118.734,102.529 120.566,104 122.904,104.723L122.68,109.835C120.192,110.932 117.599,111.623 114.904,111.911C113.039,112.112 111.23,111.879 109.48,111.21C108.662,110.9 107.837,110.561 107.002,110.194L106.599,103.623C107.626,101.24 108.074,99.044 107.936,97.029C107.725,93.918 105.96,92.338 104.105,90.154C103.923,89.943 103.766,89.707 103.642,89.457C102.532,87.261 101.886,84.866 101.698,82.279C101.685,82.109 101.602,81.953 101.464,81.85C100.636,81.24 100.012,80.386 99.59,79.289L99.571,76.859C99.907,74.937 100.674,74.067 101.87,74.253C102.286,74.317 102.689,74.071 102.823,73.671C103.888,70.483 105.282,67.484 106.999,64.67C107.789,63.378 108.278,62.537 109.592,63.861C110.05,64.324 110.807,65.041 111.863,66.006C114.21,68.155 116.675,69.795 119.259,70.927ZM111.623,74.23C111.61,74.323 111.687,74.403 111.78,74.39C113.621,74.163 115.495,74.221 117.398,74.557C117.669,74.605 117.938,74.608 118.21,74.566C118.514,74.518 118.606,74.122 118.354,73.946C116.63,72.734 113.522,73.223 111.805,74.019C111.696,74.071 111.636,74.141 111.623,74.23ZM115.664,76.22C115.259,76.117 114.747,76.75 114.518,77.636C114.29,78.522 114.434,79.324 114.84,79.429C115.246,79.532 115.757,78.899 115.986,78.013C116.215,77.127 116.071,76.325 115.664,76.22Z" style="fill:white;fill-opacity:0.95;fill-rule:nonzero;"/>
    <path d="M177.295,64.331C177.893,65.143 178.305,65.808 178.532,66.326C179.418,68.341 179.766,70.342 179.575,72.331C179.447,73.648 179.191,75.343 178.81,77.418C178.631,78.384 178.232,81.099 179.885,81.281C180.697,81.367 181.356,81.626 181.752,82.311C181.874,82.522 182.094,82.656 182.337,82.666L184.221,82.742C182.308,82.896 180.16,83.273 177.774,83.878C176.128,84.293 173.774,84.501 171.891,83.82C171.283,83.599 170.618,82.995 169.892,82.001C168.463,80.04 167.488,78.016 166.966,75.922C166.714,74.915 166.634,74.173 166.803,73.044C167.267,69.974 168.098,66.847 169.304,63.659C169.425,63.336 169.71,63.17 170.158,63.167C170.378,63.164 170.698,63.295 171.114,63.557C171.923,64.072 172.581,64.382 173.087,64.487C174.43,64.766 175.833,64.714 177.295,64.331ZM173.963,70.419C174.135,70.406 176.454,70.377 176.921,69.757C177.08,69.54 176.965,69.22 176.684,69.095C175.862,68.737 174.711,68.708 173.848,68.766C172.984,68.827 171.849,69.018 171.082,69.488C170.823,69.648 170.756,69.984 170.944,70.176C171.491,70.726 173.79,70.432 173.963,70.419ZM176.244,72.248C175.856,72.296 175.629,73.057 175.74,73.944C175.849,74.832 176.255,75.513 176.645,75.465C177.032,75.417 177.259,74.656 177.149,73.769C177.039,72.881 176.633,72.2 176.244,72.248Z" style="fill:white;fill-opacity:0.85;fill-rule:nonzero;"/>
    <path d="M185.794,68.152C186.686,68.2 187.856,68.372 188.652,68.843C188.924,69.002 189.001,69.348 188.812,69.546C188.259,70.125 185.883,69.863 185.707,69.853C185.532,69.847 183.143,69.859 182.651,69.229C182.481,69.012 182.593,68.676 182.881,68.545C183.722,68.161 184.905,68.107 185.794,68.152Z" style="fill:white;fill-opacity:0.15;fill-rule:nonzero;"/>
    <path d="M173.963,70.419C173.79,70.432 171.491,70.726 170.944,70.176C170.756,69.984 170.823,69.648 171.082,69.488C171.849,69.018 172.984,68.827 173.848,68.766C174.711,68.708 175.862,68.737 176.684,69.095C176.965,69.22 177.08,69.54 176.921,69.757C176.454,70.377 174.135,70.406 173.963,70.419Z" style="fill:white;fill-opacity:0.15;fill-rule:nonzero;"/>
    <path d="M117.401,100.313C115.78,98.238 114.74,96.147 114.277,94.039C114.079,93.141 114.056,91.852 114.213,90.177C115.447,90.762 116.688,90.919 117.938,90.65C118.095,90.618 118.2,90.557 118.261,90.471C118.351,90.34 118.251,90.161 118.092,90.167C116.55,90.234 115.211,89.905 114.069,89.173C114.162,87.644 114.443,86.221 114.92,84.907C115.415,83.532 116.544,83.913 117.506,84.383C118.207,84.725 118.642,84.575 118.817,83.929C119.323,82.055 119.582,79.679 119.594,76.801C119.607,74.432 119.495,72.475 119.259,70.927C120.387,71.177 121.571,71.583 122.565,71.727C124.132,71.954 125.734,72.158 127.371,72.347C127.95,72.414 128.989,72.683 129.459,72.868C132.561,74.109 131.531,78.023 130.706,80.357C129.897,82.643 129.433,84.21 129.321,85.057C129.107,86.688 128.887,87.99 128.653,88.962C127.915,92.079 126.012,94.228 122.952,95.402C121.877,95.814 120.886,96.169 119.981,96.466C118.162,97.068 117.302,98.35 117.401,100.313ZM128.017,78.25C128.042,78.176 128.02,78.1 127.956,78.02C126.933,76.776 124.727,75.257 122.958,75.554C122.699,75.596 122.626,75.932 122.84,76.082C123.032,76.213 123.243,76.312 123.467,76.373C125.053,76.814 126.511,77.463 127.838,78.314C127.905,78.355 127.994,78.323 128.017,78.25ZM122.899,78.513C122.52,78.416 122.034,79.036 121.816,79.898C121.599,80.76 121.73,81.537 122.11,81.632C122.488,81.729 122.974,81.108 123.192,80.247C123.409,79.385 123.278,78.608 122.899,78.513Z" style="fill:white;fill-opacity:0.86;fill-rule:nonzero;"/>
    <path d="M183.857,71.713C184.269,71.663 184.691,72.366 184.8,73.281C184.908,74.195 184.665,74.979 184.252,75.028C183.84,75.078 183.418,74.374 183.308,73.459C183.201,72.545 183.444,71.762 183.857,71.713Z" style="fill:white;fill-opacity:0.15;fill-rule:nonzero;"/>
    <path d="M176.244,72.248C176.633,72.2 177.039,72.881 177.149,73.769C177.259,74.656 177.032,75.417 176.645,75.465C176.255,75.513 175.849,74.832 175.74,73.944C175.629,73.057 175.856,72.296 176.244,72.248Z" style="fill:white;fill-opacity:0.15;fill-rule:nonzero;"/>
    <path d="M196.694,80.427C196.675,80.443 196.65,80.431 196.646,80.408L196.423,77.083C196.41,76.891 196.426,76.702 196.474,76.52L197.379,72.891C197.427,72.699 197.66,72.632 197.801,72.769C198.552,73.508 198.952,74.489 198.997,75.714C199.009,76.082 198.91,76.824 198.696,77.946C198.674,78.052 198.642,78.151 198.597,78.247C198.271,78.937 197.638,79.663 196.694,80.427Z" style="fill:white;fill-opacity:0.95;fill-rule:nonzero;"/>
    <path d="M111.623,74.23C111.636,74.141 111.696,74.071 111.805,74.019C113.522,73.223 116.63,72.734 118.354,73.946C118.606,74.122 118.514,74.518 118.21,74.566C117.938,74.608 117.669,74.605 117.398,74.557C115.495,74.221 113.621,74.163 111.78,74.39C111.687,74.403 111.61,74.323 111.623,74.23Z" style="fill:white;fill-opacity:0.15;fill-rule:nonzero;"/>
    <path d="M128.017,78.25C127.994,78.323 127.905,78.355 127.838,78.314C126.511,77.463 125.053,76.814 123.467,76.373C123.243,76.312 123.032,76.213 122.84,76.082C122.626,75.932 122.699,75.596 122.958,75.554C124.727,75.257 126.933,76.776 127.956,78.02C128.02,78.1 128.042,78.176 128.017,78.25Z" style="fill:white;fill-opacity:0.15;fill-rule:nonzero;"/>
    <path d="M115.664,76.22C116.071,76.325 116.215,77.127 115.986,78.013C115.757,78.899 115.246,79.532 114.84,79.429C114.434,79.324 114.29,78.522 114.518,77.636C114.747,76.75 115.259,76.117 115.664,76.22Z" style="fill:white;fill-opacity:0.15;fill-rule:nonzero;"/>
    <path d="M122.899,78.513C123.278,78.608 123.409,79.385 123.192,80.247C122.974,81.108 122.488,81.729 122.11,81.632C121.73,81.537 121.599,80.76 121.816,79.898C122.034,79.036 122.52,78.416 122.899,78.513Z" style="fill:white;fill-opacity:0.15;fill-rule:nonzero;"/>
    <path d="M106.599,103.623C104.134,103.539 102.017,103.84 100.255,104.524C98.775,105.097 97.291,105.627 95.804,106.113L94.669,105.065C93.982,103.319 93.659,101.57 93.697,99.821C93.988,98.439 94.302,97.39 94.641,96.671C95.884,94.059 97.09,91.267 98.263,88.303C99.181,85.978 99.901,83.344 99.68,80.91C99.632,80.386 99.6,79.845 99.59,79.289C100.012,80.386 100.636,81.24 101.464,81.85C101.602,81.953 101.685,82.109 101.698,82.279C101.886,84.866 102.532,87.261 103.642,89.457C103.766,89.707 103.923,89.943 104.105,90.154C105.96,92.338 107.725,93.918 107.936,97.029C108.074,99.044 107.626,101.24 106.599,103.623Z" style="fill:white;fill-opacity:0.35;fill-rule:nonzero;"/>
    <path d="M114.069,89.173C115.211,89.905 116.55,90.234 118.092,90.167C118.251,90.161 118.351,90.34 118.261,90.471C118.2,90.557 118.095,90.618 117.938,90.65C116.688,90.919 115.447,90.762 114.213,90.177C112.742,89.329 111.831,88.006 111.479,86.209C111.45,86.065 111.501,85.914 111.613,85.815L111.639,85.793C111.722,85.719 111.856,85.754 111.888,85.863C112.278,87.139 113.004,88.242 114.069,89.173Z" style="fill:white;fill-opacity:0.15;fill-rule:nonzero;"/>
    <path d="M181.602,90.484C181.88,89.579 181.998,88.69 181.963,87.814L185.583,86.221C185.682,86.177 185.794,86.164 185.903,86.186C187.102,86.41 187.172,87.631 186.296,88.329C184.962,89.397 183.399,90.116 181.602,90.484Z" style="fill:white;fill-opacity:0.95;fill-rule:nonzero;"/>
    <path d="M181.963,87.814C181.998,88.69 181.88,89.579 181.602,90.484C180.828,90.672 180.019,90.733 179.172,90.672C178.241,90.602 177.151,90.509 177.09,89.406C177.061,88.933 177.259,88.594 177.678,88.392C177.739,88.364 177.8,88.345 177.867,88.335L181.963,87.814Z" style="fill:white;fill-opacity:0.95;fill-rule:nonzero;"/>
    <path d="M192.151,92.521L190.76,94.759C187.917,97.566 184.703,99.558 181.125,100.738C179.05,101.419 176.892,101.816 174.647,101.925C175.124,101.1 175.411,100.393 175.507,99.801C175.798,98.222 175.92,96.665 175.875,95.13C181.145,95.075 184.694,94.935 186.526,94.701C188.266,94.481 190.139,93.755 192.151,92.521Z" style="fill:white;fill-opacity:0.85;fill-rule:nonzero;"/>
    <path d="M190.76,94.759C190.008,96.441 189.647,98.011 189.669,99.472C189.471,100.054 189.999,100.847 190.318,101.365C188.736,102.257 187.21,103.213 185.739,104.236C184.214,105.298 182.868,106.599 181.701,108.144C179.434,105.973 176.924,104.054 174.177,102.388C174.548,101.957 174.705,101.8 174.647,101.925C176.892,101.816 179.05,101.419 181.125,100.738C184.703,99.558 187.917,97.566 190.76,94.759Z" style="fill:white;fill-opacity:0.95;fill-rule:nonzero;"/>
    <path d="M189.669,99.472C189.765,99.709 189.97,99.827 190.283,99.827C203.87,99.824 217.459,99.821 231.049,99.824C234.199,99.824 236.594,99.971 238.228,100.268C242.445,101.039 246.426,102.644 250.177,105.087L209.248,105.157C207.128,103.824 204.701,102.81 201.974,102.12C200.161,101.662 198.152,101.253 195.949,100.898C195.55,100.834 195.073,100.789 194.523,100.764C193.637,100.722 192.653,100.156 191.84,100.655C191.409,100.921 190.9,101.157 190.318,101.365C189.999,100.847 189.471,100.054 189.669,99.472Z" style="fill:white;fill-opacity:0.35;fill-rule:nonzero;"/>
    <path d="M147.997,104.922C148.586,104.734 149.079,99.897 154.071,99.897C155.133,99.897 156.283,99.897 158.154,99.923C158.154,99.923 152.574,104.112 153.201,105.336L150.32,107.095L148.275,108.523L147.997,104.922Z" style="fill:white;fill-opacity:0.15;"/>
    <path d="M148.03,108.694C147.074,109.596 146.291,110.667 145.683,111.911C145.095,113.113 144.763,114.632 144.376,116.023C144.04,115.022 143.528,113.765 142.844,112.253C141.894,110.158 140.494,108.566 138.646,107.476L140.056,105.087L146.64,105.065C146.806,105.065 146.902,104.879 146.809,104.742C146.678,104.547 146.662,104.307 146.761,104.022C146.899,104.556 147.17,104.873 147.583,104.978C147.741,104.98 147.878,104.96 147.997,104.922L148.275,108.523L148.03,108.694Z" style="fill:white;fill-opacity:0.25;"/>
    <path d="M175.507,99.801C175.411,100.393 175.124,101.1 174.647,101.925C174.705,101.8 174.548,101.957 174.177,102.388C173.624,102.027 172.933,102.017 172.108,102.36C172.051,102.385 171.987,102.395 171.923,102.388L171.155,102.302C169.787,101.873 168.3,101.688 166.698,101.746C161.834,101.928 157.553,103.216 153.201,105.336C152.574,104.112 158.154,99.923 158.154,99.923L175.507,99.801Z" style="fill:white;fill-opacity:0.35;fill-rule:nonzero;"/>
    <path d="M93.697,99.821C93.659,101.57 93.982,103.319 94.669,105.065C80.239,105.119 65.878,105.138 51.588,105.116C50.834,105.113 50.332,105.026 50.082,104.85C50.827,104.451 51.505,104.083 52.119,103.744C55.198,102.046 58.441,100.892 61.843,100.278C63.531,99.974 66.083,99.824 69.501,99.821C77.565,99.817 85.63,99.817 93.697,99.821Z" style="fill:white;fill-opacity:0.35;fill-rule:nonzero;"/>
    <path d="M146.761,104.022C146.662,104.307 146.678,104.547 146.809,104.742C146.902,104.879 146.806,105.065 146.64,105.065L140.056,105.087C140.433,103.322 140.439,101.573 140.075,99.84C145.748,99.656 146.278,101.829 146.761,104.022Z" style="fill:white;fill-opacity:0.35;fill-rule:nonzero;"/>
    <path d="M209.248,105.157C211.004,106.494 212.378,107.917 213.376,109.426C215.893,113.225 217.472,117.548 218.547,121.993C219.717,126.843 220.34,131.198 220.855,135.889C221.073,137.869 221.815,140.254 221.885,142.192C222.07,147.458 222.042,152.811 221.802,158.256C221.754,159.34 221.712,160.3 221.683,161.137C221.584,163.711 221.562,167.238 221.613,171.715C221.616,171.836 221.715,171.936 221.837,171.932C226.534,171.833 231.068,171.897 235.446,172.124C237.112,172.211 239.299,172.495 241.185,172.514C241.918,172.524 243.155,172.677 244.904,172.975C246.161,173.483 247.35,173.806 248.479,173.944C254.084,174.628 258.986,175.443 263.182,176.387C263.933,176.556 264.544,176.857 265.212,177.192C265.401,177.288 265.624,177.141 265.612,176.93C265.295,171.222 265.426,165.585 266.011,160.021C266.542,154.96 267.572,150.237 269.442,145.568C270.523,142.876 272.384,140.344 273.596,137.949C273.66,137.824 273.74,137.709 273.839,137.603C275.793,135.522 277.436,134.115 278.767,133.389C280.407,132.497 282.076,131.541 283.774,130.524C285.9,130.632 288.263,131 290.866,131.627C294.457,132.493 297.153,134.46 298.95,137.53C299.362,138.236 299.653,139.231 299.823,140.516C300.146,142.966 300.027,145.335 299.471,147.624C298.911,149.92 298.348,151.727 297.776,153.047C297.258,154.24 296.852,155.244 296.555,156.06C296.395,156.494 296.021,156.99 295.874,157.291C294.364,160.396 292.839,163.024 291.298,165.182C291.128,165.422 291.036,165.707 291.036,166.001C291.016,197.308 291.02,218.703 291.048,230.186C291.052,231.935 290.908,233.15 290.623,233.831C289.964,235.398 288.877,236.511 287.358,237.166C286.706,237.447 285.469,237.595 283.646,237.604C277.842,237.639 271.988,237.646 266.082,237.63L266.005,201.513C266.005,201.379 266.066,201.254 266.168,201.171C267.188,200.349 268.096,199.876 268.969,198.901C270.948,196.688 272.189,194.13 272.698,191.23C273.292,187.837 272.154,185.205 270.99,182.104C270.907,181.874 270.686,181.723 270.443,181.723L222.15,181.768C222.093,180.735 221.811,179.961 221.303,179.443C218.188,176.265 214.566,173.809 211.483,171.207C209.99,169.943 208.596,168.514 207.301,166.915C205.759,165.006 205.018,163.197 204.989,160.818C204.966,158.618 205.325,156.367 206.07,154.064C206.095,153.984 206.201,153.968 206.249,154.036L208.656,157.348C208.781,157.518 209.05,157.476 209.114,157.275C209.245,156.881 209.299,156.408 209.28,155.861C209.12,151.596 207.298,147.199 205.344,143.282C200.49,133.571 194.645,124.416 187.898,116.154C187.77,115.994 187.664,115.821 187.578,115.636C186.948,114.239 186.472,113.327 186.155,112.908C185.205,111.652 183.719,110.062 181.701,108.144C182.868,106.599 184.214,105.298 185.739,104.236C187.21,103.213 188.736,102.257 190.318,101.365C190.9,101.157 191.409,100.921 191.84,100.655C192.653,100.156 193.637,100.722 194.523,100.764C195.073,100.789 195.55,100.834 195.949,100.898C198.152,101.253 200.161,101.662 201.974,102.12C204.701,102.81 207.128,103.824 209.248,105.157Z" style="fill:white;fill-opacity:0.6;fill-rule:nonzero;"/>
    <path d="M171.155,102.302C172.745,103.629 174.068,104.87 175.127,106.024C177.432,108.537 179.571,110.935 181.538,113.215C182.705,114.568 183.578,115.751 184.157,116.758C187.847,123.182 189.941,126.981 193.126,131.275C193.577,131.886 193.912,132.541 194.127,133.242C194.219,133.539 194.044,133.856 193.74,133.936C193.289,134.054 192.806,134.083 192.294,134.022C192.167,134.006 192.045,133.961 191.94,133.888C189.02,131.819 186.216,129.59 183.527,127.205C180.352,124.388 177.144,121.257 173.905,117.807C173.713,117.602 173.371,117.695 173.307,117.967L173.183,118.504C173.138,118.693 173.151,118.894 173.221,119.076C173.435,119.777 174.535,121.945 176.518,125.577C180.077,132.097 184.812,137.574 190.718,142.009C190.814,142.08 190.82,142.22 190.734,142.3C188.94,143.918 187.875,145.879 187.546,148.181C187.345,149.581 187.629,151.567 187.757,153.287C188.099,157.78 186.267,162.177 182.372,164.572C178.74,166.807 175.2,167.254 170.938,167.126C170.711,167.12 168.741,167.046 165.022,166.903C162.634,166.81 160.28,166.903 157.962,167.178C156.044,167.408 154.199,168.057 153.079,169.694C153.031,169.764 152.923,169.726 152.926,169.643C153.287,161.476 151.957,153.613 148.935,146.058C146.47,139.889 144.679,133.776 143.563,127.716C143.503,125.89 143.535,124.586 143.659,123.806C143.867,122.523 143.995,121.222 144.04,119.908C144.238,119.959 144.398,119.86 144.516,119.607C147.122,114.082 149.057,109.912 150.32,107.095L153.201,105.336C157.553,103.216 161.834,101.928 166.698,101.746C168.3,101.688 169.787,101.873 171.155,102.302Z" style="fill:white;fill-opacity:0.6;fill-rule:nonzero;"/>
    <path d="M174.177,102.388C176.924,104.054 179.434,105.973 181.701,108.144C183.719,110.062 185.205,111.652 186.155,112.908C186.472,113.327 186.948,114.239 187.578,115.636C187.664,115.821 187.77,115.994 187.898,116.154C194.645,124.416 200.49,133.571 205.344,143.282C207.298,147.199 209.12,151.596 209.28,155.861C209.299,156.408 209.245,156.881 209.114,157.275C209.05,157.476 208.781,157.518 208.656,157.348L206.249,154.036C206.201,153.968 206.095,153.984 206.07,154.064C205.325,156.367 204.966,158.618 204.989,160.818C205.018,163.197 205.759,165.006 207.301,166.915C208.596,168.514 209.99,169.943 211.483,171.207C214.566,173.809 218.188,176.265 221.303,179.443C221.811,179.961 222.093,180.735 222.15,181.768C222.003,182.085 221.862,182.414 221.725,182.763C220.625,185.599 218.355,184.946 216.206,183.834C214.498,182.587 212.916,181.18 211.461,179.613C210.179,178.232 209.229,177.25 208.615,176.668C205.568,173.774 201.903,172.083 197.622,171.59C196.132,171.418 194.405,171.357 192.442,171.411C190.251,171.469 188.33,171.718 186.67,172.163C184.358,172.876 182.033,173.39 179.69,173.704C178.523,173.72 177.359,173.605 176.198,173.365C175.05,173.128 173.947,172.751 172.892,172.23C171.206,171.402 169.864,170.772 168.863,170.346C168.549,170.212 168.191,170.238 167.897,170.41C166.116,171.456 164.456,172.863 162.915,174.628C161.326,176.447 159.708,178.555 158.061,180.953C157.009,182.484 156.351,183.559 156.082,184.176C155.075,186.501 154.074,188.697 153.086,190.769C152.478,191.268 151.935,190.948 151.452,189.81C151.065,188.899 150.771,188.262 150.566,187.901C150.067,187.019 149.616,186.11 149.214,185.18C149.156,185.049 149.038,184.889 148.855,184.703L148.907,184.614C148.945,184.55 148.955,184.47 148.932,184.397C147.938,181.039 148.04,177.483 147.845,173.889C147.803,173.16 147.839,172.105 147.954,171.491C148.667,167.715 148.609,163.926 147.784,160.127C147.752,159.977 147.704,159.83 147.64,159.686C146.55,157.271 145.738,155.436 145.204,154.173C144.561,152.654 143.992,150.547 143.496,147.855C143.266,146.595 143.349,145.738 143.161,144.667C143.052,144.037 142.997,143.237 142.997,142.268C143.004,139.455 143.065,136.877 143.183,134.537C143.189,134.418 143.205,133.283 143.234,131.138C143.25,130.035 143.359,128.893 143.563,127.716C144.679,133.776 146.47,139.889 148.935,146.058C151.957,153.613 153.287,161.476 152.926,169.643C152.923,169.726 153.031,169.764 153.079,169.694C154.199,168.057 156.044,167.408 157.962,167.178C160.28,166.903 162.634,166.81 165.022,166.903C168.741,167.046 170.711,167.12 170.938,167.126C175.2,167.254 178.74,166.807 182.372,164.572C186.267,162.177 188.099,157.78 187.757,153.287C187.629,151.567 187.345,149.581 187.546,148.181C187.875,145.879 188.94,143.918 190.734,142.3C190.82,142.22 190.814,142.08 190.718,142.009C184.812,137.574 180.077,132.097 176.518,125.577C174.535,121.945 173.435,119.777 173.221,119.076C173.151,118.894 173.138,118.693 173.183,118.504L173.307,117.967C173.371,117.695 173.713,117.602 173.905,117.807C177.144,121.257 180.352,124.388 183.527,127.205C186.216,129.59 189.02,131.819 191.94,133.888C192.045,133.961 192.167,134.006 192.294,134.022C192.806,134.083 193.289,134.054 193.74,133.936C194.044,133.856 194.219,133.539 194.127,133.242C193.912,132.541 193.577,131.886 193.126,131.275C189.941,126.981 187.847,123.182 184.157,116.758C183.578,115.751 182.705,114.568 181.538,113.215C179.571,110.935 177.432,108.537 175.127,106.024C174.068,104.87 172.745,103.629 171.155,102.302L171.923,102.388C171.987,102.395 172.051,102.385 172.108,102.36C172.933,102.017 173.624,102.027 174.177,102.388Z" style="fill:white;fill-opacity:0.5;fill-rule:nonzero;"/>
    <path d="M106.599,103.623L107.002,110.194C106.974,118.466 105.519,126.472 102.634,134.211C102.529,134.498 102.388,134.77 102.219,135.023C100.214,138.025 98.062,140.919 95.766,143.707C95.734,143.743 95.734,143.797 95.766,143.832C95.808,143.877 95.843,143.883 95.875,143.851C95.82,143.906 95.753,143.947 95.67,143.976C95.584,144.008 95.52,144.046 95.472,144.094C94.477,145.111 94.014,146.342 94.078,147.787C94.164,149.725 94.218,150.892 94.247,151.292C94.257,151.449 94.302,151.573 94.375,151.66C94.298,151.727 94.263,151.797 94.266,151.864C94.34,152.948 94.308,154.333 94.17,156.018C94.049,157.511 93.509,158.825 92.549,159.967C91.258,161.224 90.289,162.256 89.646,163.065C87.961,165.179 87.296,168.351 87.19,171.184C87.177,171.497 87.2,171.788 87.254,172.06C87.814,174.81 88.517,177.531 89.358,180.22C89.345,180.7 89.275,181.036 89.144,181.228C89.083,181.317 88.984,181.372 88.879,181.381C86.87,181.528 85.374,180.844 82.643,179.971C81.758,179.686 80.558,179.875 79.817,179.827C75.414,179.539 70.895,178.948 67.071,178.599C65.245,178.433 63.333,178.379 61.341,178.436C57.043,178.558 57.958,175.108 59.199,172.581C60.494,169.755 61.619,167.923 63.451,165.115C64.257,163.878 65.002,162.595 65.683,161.275C66.966,158.79 69.255,155.158 71.359,151.88C72.485,150.125 73.565,147.797 74.192,146.006C75.823,141.37 77.041,136.356 78.068,131.195C78.765,127.694 79.583,125.088 80.721,121.276C81.873,117.43 83.9,114.235 86.803,111.687C87.401,111.162 87.958,110.606 88.472,110.015C89.141,109.244 89.962,108.624 90.938,108.154C92.46,107.415 94.139,106.699 95.804,106.113C97.291,105.627 98.775,105.097 100.255,104.524C102.017,103.84 104.134,103.539 106.599,103.623Z" style="fill:white;fill-opacity:0.85;fill-rule:nonzero;"/>
    <path d="M138.646,107.476C140.494,108.566 141.894,110.158 142.844,112.253C143.528,113.765 144.04,115.022 144.376,116.023L144.04,119.908C143.995,121.222 143.867,122.523 143.659,123.806C143.535,124.586 143.503,125.89 143.563,127.716C143.359,128.893 143.25,130.035 143.234,131.138C143.205,133.283 143.189,134.418 143.183,134.537C143.065,136.877 143.004,139.455 142.997,142.268C142.997,143.237 143.052,144.037 143.161,144.667C143.349,145.738 143.266,146.595 143.496,147.855C143.992,150.547 144.561,152.654 145.204,154.173C145.738,155.436 146.55,157.271 147.64,159.686C147.704,159.83 147.752,159.977 147.784,160.127C148.609,163.926 148.667,167.715 147.954,171.491C147.839,172.105 147.803,173.16 147.845,173.889C148.04,177.483 147.938,181.039 148.932,184.397C148.955,184.47 148.945,184.55 148.907,184.614L148.855,184.703C147.42,186.344 146.787,188.16 145.856,190.274C145.658,190.728 145.335,191.115 144.926,191.393L142.825,192.822C142.764,192.86 142.694,192.886 142.623,192.889C141.789,192.931 141.268,192.918 141.06,192.854C139.039,192.24 137.108,191.22 135.266,189.791C134.399,189.119 133.971,188.825 133.597,187.927C132.884,186.229 132.452,184.716 132.298,183.396C132.292,183.345 132.222,183.332 132.202,183.38C132.046,183.754 131.902,184.307 131.771,185.039C131.64,185.778 131.285,188.026 130.706,191.777C130.063,195.927 129.747,200.065 129.75,204.193L129.852,211.087C129.839,214.252 129.939,217.418 129.66,220.577C129.488,222.534 129.497,224.315 129.689,225.92C129.718,226.17 129.712,226.422 129.67,226.672C129.526,227.554 129.44,228.027 129.414,228.088C129.331,228.29 129.165,228.45 128.915,228.571C128.001,229.012 127.115,229.422 126.255,229.802C124.225,230.701 122.117,230.889 119.937,230.371C119.435,230.263 118.971,230.08 118.546,229.821C118.459,229.767 118.395,229.681 118.376,229.578C117.084,223.369 116.208,217.127 115.354,210.847C115.057,209.159 114.929,207.518 114.27,205.91C114.226,205.801 114.2,205.683 114.197,205.568L114.149,204.212C113.525,202.284 113.1,200.391 112.873,198.536C113.599,195.614 114.002,192.394 114.088,188.876C114.232,182.919 114.315,179.747 114.341,179.364C114.379,178.746 114.568,178.168 114.91,177.621C115.204,177.148 115.898,175.977 116.995,174.113C117.068,173.988 117.196,173.908 117.337,173.896C119.335,173.713 121.206,174.078 122.945,174.989C126.178,176.681 129.11,178.807 131.745,181.375C131.79,181.42 131.867,181.384 131.864,181.32C131.745,179.616 131.793,178.084 132.004,176.726C132.768,171.798 133.283,167.21 133.542,162.963C132.9,161.157 132.145,159.545 131.282,158.135C131.144,157.62 130.971,157.134 130.77,156.683C129.194,153.156 127.962,149.383 126.731,145.722C126.699,145.626 126.562,145.447 126.322,145.181C126.344,145.194 126.37,145.194 126.405,145.185C126.463,145.165 126.495,145.105 126.476,145.047C125.203,141.172 124.592,137.261 123.889,133.395C123.55,131.531 123.304,129.766 123.153,128.1C122.607,122.021 122.45,115.933 122.68,109.835L122.904,104.723C124.103,104.764 125.331,104.873 126.588,105.049C128.078,105.257 129.299,105.4 130.252,105.477C133.36,105.72 135.947,106.011 138.646,107.476Z" style="fill:white;fill-opacity:0.85;fill-rule:nonzero;"/>
    <path d="M50.082,104.85C50.332,105.026 50.834,105.113 51.588,105.116C65.878,105.138 80.239,105.119 94.669,105.065L95.804,106.113C94.139,106.699 92.46,107.415 90.938,108.154C89.962,108.624 89.141,109.244 88.472,110.015C87.958,110.606 87.401,111.162 86.803,111.687C83.9,114.235 81.873,117.43 80.721,121.276C79.583,125.088 78.765,127.694 78.068,131.195C77.041,136.356 75.823,141.37 74.192,146.006C73.565,147.797 72.485,150.125 71.359,151.88C69.255,155.158 66.966,158.79 65.683,161.275C65.002,162.595 64.257,163.878 63.451,165.115C61.619,167.923 60.494,169.755 59.199,172.581C57.987,172.591 56.465,172.454 55.339,172.898C55.141,172.959 54.991,172.936 54.888,172.834C54.837,172.78 54.824,172.7 54.856,172.633C55.071,172.201 55.173,171.91 55.17,171.76C55.08,168.389 55.083,164.712 55.176,160.731C55.179,160.587 55.16,160.443 55.119,160.303C55.013,159.932 54.933,159.721 54.901,159.257C54.623,154.956 54.041,150.784 53.152,146.735C52.771,144.993 52.058,143.122 51.604,141.6C51.173,140.152 50.69,138.908 50.153,137.862C49.203,136.017 47.87,133.862 46.13,132.554C45.718,132.244 45.177,131.828 44.509,131.301C43.655,130.632 42.501,129.916 41.046,129.158C39.751,128.484 37.903,127.982 35.508,127.656C35.457,127.169 35.444,126.847 35.473,126.69C36.269,122.242 37.896,118.13 40.352,114.35C40.717,113.788 41.132,113.359 41.5,112.742C41.634,112.518 41.785,112.301 41.948,112.09C42.824,110.958 44.228,109.484 46.159,107.664C46.517,107.325 46.926,107.191 47.268,106.843C48.125,105.966 49.062,105.301 50.082,104.85Z" style="fill:white;fill-opacity:0.25;fill-rule:nonzero;"/>
    <path d="M264.505,127.643C261.656,127.982 259.092,128.896 256.809,130.383C255.341,131.336 254.203,132.193 253.391,132.957C251.686,134.559 250.318,136.618 249.288,139.141C247.561,143.372 246.401,147.781 245.809,152.373C245.298,156.347 244.994,159.056 244.901,160.501C244.725,163.209 244.703,167.053 244.84,172.031C244.843,172.175 244.927,172.367 245.086,172.613C245.154,172.719 245.173,172.799 245.144,172.86C245.106,172.927 245.026,172.965 244.904,172.975C243.155,172.677 241.918,172.524 241.185,172.514C239.299,172.495 237.112,172.211 235.446,172.124C231.068,171.897 226.534,171.833 221.837,171.932C221.715,171.936 221.616,171.836 221.613,171.715C221.562,167.238 221.584,163.711 221.683,161.137C221.712,160.3 221.754,159.34 221.802,158.256C222.042,152.811 222.07,147.458 221.885,142.192C221.815,140.254 221.073,137.869 220.855,135.889C220.34,131.198 219.717,126.843 218.547,121.993C217.472,117.548 215.893,113.225 213.376,109.426C212.378,107.917 211.004,106.494 209.248,105.157L250.177,105.087C250.481,105.145 250.97,105.426 251.645,105.934C255.789,109.046 258.913,112.672 261.324,117.27C262.849,120.176 263.904,123.281 264.489,126.578C264.512,126.706 264.518,126.882 264.509,127.109C264.502,127.249 264.502,127.429 264.505,127.643Z" style="fill:white;fill-opacity:0.25;fill-rule:nonzero;"/>
    <path d="M150.32,107.095C149.057,109.912 147.122,114.082 144.516,119.607C144.398,119.86 144.238,119.959 144.04,119.908L144.376,116.023C144.763,114.632 145.095,113.113 145.683,111.911C146.291,110.667 147.074,109.596 148.03,108.694L150.32,107.095Z" style="fill:white;fill-opacity:0.5;fill-rule:nonzero;"/>
    <path d="M122.68,109.835C122.45,115.933 122.607,122.021 123.153,128.1C123.304,129.766 123.55,131.531 123.889,133.395C124.592,137.261 125.203,141.172 126.476,145.047C126.495,145.105 126.463,145.165 126.405,145.185C126.37,145.194 126.344,145.194 126.322,145.181C124.535,143.826 122.642,142.636 120.646,141.616C120.592,141.587 120.582,141.514 120.624,141.472C122.392,139.739 121.152,137.424 119.089,136.801C118.044,136.484 117.056,136.353 116.125,136.404C112.678,136.59 108.918,137.363 106.101,139.064C104.332,140.132 102.097,141.552 99.402,143.32C99.21,143.448 98.989,143.528 98.759,143.551L95.875,143.851C95.843,143.883 95.808,143.877 95.766,143.832C95.734,143.797 95.734,143.743 95.766,143.707C98.062,140.919 100.214,138.025 102.219,135.023C102.388,134.77 102.529,134.498 102.634,134.211C105.519,126.472 106.974,118.466 107.002,110.194C107.837,110.561 108.662,110.9 109.48,111.21C111.23,111.879 113.039,112.112 114.904,111.911C117.599,111.623 120.192,110.932 122.68,109.835Z" style="fill:white;fill-opacity:0.5;fill-rule:nonzero;"/>
    <path d="M264.505,127.643C264.473,127.777 264.512,127.886 264.62,127.966C264.697,128.023 264.812,128.042 264.966,128.02C266.21,127.857 267.549,127.883 268.982,128.094C272.605,128.621 276.18,129.187 279.71,129.798C280.861,129.996 282.399,130.191 283.774,130.524C282.076,131.541 280.407,132.497 278.767,133.389C277.436,134.115 275.793,135.522 273.839,137.603C273.74,137.709 273.66,137.824 273.596,137.949C272.384,140.344 270.523,142.876 269.442,145.568C267.572,150.237 266.542,154.96 266.011,160.021C265.426,165.585 265.295,171.222 265.612,176.93C265.624,177.141 265.401,177.288 265.212,177.192C264.544,176.857 263.933,176.556 263.182,176.387C258.986,175.443 254.084,174.628 248.479,173.944C247.35,173.806 246.161,173.483 244.904,172.975C245.026,172.965 245.106,172.927 245.144,172.86C245.173,172.799 245.154,172.719 245.086,172.613C244.927,172.367 244.843,172.175 244.84,172.031C244.703,167.053 244.725,163.209 244.901,160.501C244.994,159.056 245.298,156.347 245.809,152.373C246.401,147.781 247.561,143.372 249.288,139.141C250.318,136.618 251.686,134.559 253.391,132.957C254.203,132.193 255.341,131.336 256.809,130.383C259.092,128.896 261.656,127.982 264.505,127.643Z" style="fill:white;fill-opacity:0.5;fill-rule:nonzero;"/>
    <path d="M55.339,172.898C54.738,173.275 54.22,173.502 53.788,173.576C52.864,173.733 50.901,174.014 47.892,174.417C44.48,174.871 41.02,175.498 38.136,176.067C36.924,176.307 35.818,176.668 34.814,177.157C34.593,177.266 34.337,177.093 34.35,176.847C34.776,170.02 34.51,163.34 33.548,156.801C32.931,152.603 31.891,148.766 30.43,145.29C29.954,144.155 29.445,143.145 28.911,142.265C27.936,140.66 27.367,139.685 27.21,139.336C26.766,138.367 26.126,137.475 25.285,136.66C23.706,135.131 22.331,134.035 21.16,133.37C18.855,132.062 17.25,131.103 16.338,130.492C21.905,129.478 26.961,128.653 31.501,128.017C32.624,127.86 33.8,127.86 35.028,128.017C35.175,128.036 35.284,128.017 35.357,127.962C35.453,127.892 35.505,127.79 35.508,127.656C37.903,127.982 39.751,128.484 41.046,129.158C42.501,129.916 43.655,130.632 44.509,131.301C45.177,131.828 45.718,132.244 46.13,132.554C47.87,133.862 49.203,136.017 50.153,137.862C50.69,138.908 51.173,140.152 51.604,141.6C52.058,143.122 52.771,144.993 53.152,146.735C54.041,150.784 54.623,154.956 54.901,159.257C54.933,159.721 55.013,159.932 55.119,160.303C55.16,160.443 55.179,160.587 55.176,160.731C55.083,164.712 55.08,168.389 55.17,171.76C55.173,171.91 55.071,172.201 54.856,172.633C54.824,172.7 54.837,172.78 54.888,172.834C54.991,172.936 55.141,172.959 55.339,172.898Z" style="fill:white;fill-opacity:0.5;fill-rule:nonzero;"/>
    <path d="M16.338,130.492C17.25,131.103 18.855,132.062 21.16,133.37C22.331,134.035 23.706,135.131 25.285,136.66C26.126,137.475 26.766,138.367 27.21,139.336C27.367,139.685 27.936,140.66 28.911,142.265C29.445,143.145 29.954,144.155 30.43,145.29C31.891,148.766 32.931,152.603 33.548,156.801C34.51,163.34 34.776,170.02 34.35,176.847C34.337,177.093 34.593,177.266 34.814,177.157C35.818,176.668 36.924,176.307 38.136,176.067C41.02,175.498 44.48,174.871 47.892,174.417C50.901,174.014 52.864,173.733 53.788,173.576C54.22,173.502 54.738,173.275 55.339,172.898C56.465,172.454 57.987,172.591 59.199,172.581C57.958,175.108 57.043,178.558 61.341,178.436C63.333,178.379 65.245,178.433 67.071,178.599C70.895,178.948 75.414,179.539 79.817,179.827C80.558,179.875 81.758,179.686 82.643,179.971C85.374,180.844 86.87,181.528 88.879,181.381C88.984,181.372 89.083,181.317 89.144,181.228C89.275,181.036 89.345,180.7 89.358,180.22C89.745,180.598 90.036,181.093 90.228,181.707L29.621,181.733C29.311,181.733 29.033,181.922 28.924,182.209C27.898,184.902 26.772,187.575 27.197,190.638C27.664,193.967 29.039,196.819 31.319,199.195C32.058,199.966 33.068,200.531 33.893,201.232C33.957,201.283 33.995,201.363 33.995,201.446L34.005,237.633C28.067,237.649 22.142,237.639 16.23,237.601C14.487,237.591 13.297,237.447 12.658,237.172C11.139,236.517 10.052,235.43 9.393,233.911C9.089,233.211 8.939,231.727 8.942,229.46C8.961,213.312 8.965,192.176 8.952,166.055C8.949,165.751 8.859,165.454 8.69,165.205C6.109,161.403 3.97,157.399 2.266,153.201C1.393,151.046 0.514,148.194 0.235,146.371C0.031,145.031 -0.04,143.477 0.021,141.712C0.197,136.804 3.836,133.082 8.434,131.809C11.069,131.08 13.704,130.642 16.338,130.492Z" style="fill:white;fill-opacity:0.6;fill-rule:nonzero;"/>
    <path d="M126.322,145.181C126.562,145.447 126.699,145.626 126.731,145.722C127.962,149.383 129.194,153.156 130.77,156.683C130.971,157.134 131.144,157.62 131.282,158.135C128.739,156.271 126.117,154.809 123.422,153.745C121.011,152.792 118.619,152.382 115.62,151.708C113.234,151.167 111.955,149.623 110.286,148.203C110.251,148.174 110.203,148.174 110.168,148.2C106.98,150.601 103.427,151.417 99.507,150.64C99.239,150.589 98.964,150.592 98.698,150.656L94.375,151.66C94.302,151.573 94.257,151.449 94.247,151.292C94.218,150.892 94.164,149.725 94.078,147.787C94.014,146.342 94.477,145.111 95.472,144.094C95.52,144.046 95.584,144.008 95.67,143.976C95.753,143.947 95.82,143.906 95.875,143.851L98.759,143.551C98.989,143.528 99.21,143.448 99.402,143.32C102.097,141.552 104.332,140.132 106.101,139.064C108.918,137.363 112.678,136.59 116.125,136.404C117.056,136.353 118.044,136.484 119.089,136.801C121.152,137.424 122.392,139.739 120.624,141.472C120.582,141.514 120.592,141.587 120.646,141.616C122.642,142.636 124.535,143.826 126.322,145.181Z" style="fill:white;fill-opacity:0.95;fill-rule:nonzero;"/>
    <path d="M131.282,158.135C132.145,159.545 132.9,161.157 133.542,162.963C131.118,162.097 128.794,161.281 126.565,160.52C123.607,159.51 120.646,159.232 117.689,159.682C116.183,159.913 114.824,160.341 113.154,160.862C112.115,161.189 111.124,161.189 110.165,160.834C107.69,159.916 106.248,159.407 105.835,159.305C102.398,158.464 98.992,158.323 95.613,158.883C94.695,159.037 93.672,159.398 92.549,159.967C93.509,158.825 94.049,157.511 94.17,156.018C94.308,154.333 94.34,152.948 94.266,151.864C94.263,151.797 94.298,151.727 94.375,151.66L98.698,150.656C98.964,150.592 99.239,150.589 99.507,150.64C103.427,151.417 106.98,150.601 110.168,148.2C110.203,148.174 110.251,148.174 110.286,148.203C111.955,149.623 113.234,151.167 115.62,151.708C118.619,152.382 121.011,152.792 123.422,153.745C126.117,154.809 128.739,156.271 131.282,158.135Z" style="fill:white;fill-opacity:0.5;fill-rule:nonzero;"/>
    <path d="M133.542,162.963C133.283,167.21 132.768,171.798 132.004,176.726C131.793,178.084 131.745,179.616 131.864,181.32C131.867,181.384 131.79,181.42 131.745,181.375C129.11,178.807 126.178,176.681 122.945,174.989C121.206,174.078 119.335,173.713 117.337,173.896C117.196,173.908 117.068,173.988 116.995,174.113C115.898,175.977 115.204,177.148 114.91,177.621C114.568,178.168 114.379,178.746 114.341,179.364C114.315,179.747 114.232,182.919 114.088,188.876C114.002,192.394 113.599,195.614 112.873,198.536C112.793,198.312 112.697,198.21 112.579,198.229C112.505,198.239 112.454,198.296 112.419,198.399C112.393,198.472 112.374,198.555 112.362,198.642C112.237,197.711 112.224,196.787 112.317,195.863C112.333,195.726 112.333,195.591 112.32,195.454C111.783,189.164 111.364,183.146 111.06,177.397C111.012,176.483 110.788,176.236 110.235,175.552C108.975,173.998 107.383,173.448 105.282,173.659C103.52,173.835 101.928,174.359 100.505,175.235C97.803,176.895 95.175,178.826 92.613,181.023C92.469,181.145 92.386,181.32 92.383,181.509L92.23,186.964C91.68,185.474 91.2,184.016 90.787,182.59C90.644,182.091 90.458,181.797 90.228,181.707C90.036,181.093 89.745,180.598 89.358,180.22C88.517,177.531 87.814,174.81 87.254,172.06C87.2,171.788 87.177,171.497 87.19,171.184C87.296,168.351 87.961,165.179 89.646,163.065C90.289,162.256 91.258,161.224 92.549,159.967C93.672,159.398 94.695,159.037 95.613,158.883C98.992,158.323 102.398,158.464 105.835,159.305C106.248,159.407 107.69,159.916 110.165,160.834C111.124,161.189 112.115,161.189 113.154,160.862C114.824,160.341 116.183,159.913 117.689,159.682C120.646,159.232 123.607,159.51 126.565,160.52C128.794,161.281 131.118,162.097 133.542,162.963Z" style="fill:white;fill-opacity:0.6;fill-rule:nonzero;"/>
    <path d="M179.69,173.704C179.786,175.69 180.035,177.56 180.438,179.316L180.057,181.746C178.977,186.293 178.235,190.721 177.835,195.035C177.726,196.215 177.522,197.12 177.499,198.095C177.451,200.042 177.074,201.919 177.215,204.19L177.135,210.917C177.167,212.9 177.314,214.905 177.573,216.935C177.8,218.691 178.043,220.443 178.305,222.198C178.526,223.682 178.331,224.539 177.394,225.607C176.041,226.205 174.474,226.445 172.697,226.333C169.716,226.144 167.062,225.824 164.738,225.37C163.99,225.172 163.229,224.907 162.455,224.574C161.921,224.344 161.505,223.97 161.214,223.452C160.527,222.224 159.932,220.948 159.43,219.624C158.375,216.826 157.479,213.971 156.741,211.058L155.052,204.138C154.605,202.14 154.231,200.145 153.927,198.146C153.565,195.777 153.287,193.318 153.086,190.769C154.074,188.697 155.075,186.501 156.082,184.176C156.351,183.559 157.009,182.484 158.061,180.953C159.708,178.555 161.326,176.447 162.915,174.628C164.456,172.863 166.116,171.456 167.897,170.41C168.191,170.238 168.549,170.212 168.863,170.346C169.864,170.772 171.206,171.402 172.892,172.23C173.947,172.751 175.05,173.128 176.198,173.365C177.359,173.605 178.523,173.72 179.69,173.704Z" style="fill:white;fill-opacity:0.85;fill-rule:nonzero;"/>
    <path d="M216.206,183.834C215.48,190.574 214.3,197.382 212.673,204.253L210.94,210.885C209.267,216.705 207.298,222.464 205.03,228.165C204.976,228.299 204.906,228.424 204.816,228.542C204.173,229.383 202.789,229.14 201.788,228.936C198.293,228.229 194.917,227.378 191.655,226.39C191.031,226.157 190.475,225.949 189.992,225.76C188.314,225.114 187.466,223.877 187.444,222.048C187.399,218.297 187.45,214.572 187.594,210.872L187.441,204.148C187.271,202.875 187.162,201.641 187.118,200.445C187.079,199.4 187.006,198.514 186.9,197.782C186.782,196.963 186.728,196.068 186.744,195.092C186.75,194.702 186.721,194.309 186.654,193.925C186.296,191.789 186.494,189.589 186.302,187.521C186.213,186.558 186.162,185.596 186.146,184.633C186.13,183.645 186.12,182.679 186.12,181.736L186.075,178.922L186.67,172.163C188.33,171.718 190.251,171.469 192.442,171.411C194.405,171.357 196.132,171.418 197.622,171.59C201.903,172.083 205.568,173.774 208.615,176.668C209.229,177.25 210.179,178.232 211.461,179.613C212.916,181.18 214.498,182.587 216.206,183.834Z" style="fill:white;fill-opacity:0.85;fill-rule:nonzero;"/>
    <path d="M186.67,172.163L186.075,178.922L185.564,180.185C185.522,180.291 185.413,180.355 185.301,180.342C184.233,180.23 183.162,180.16 182.091,180.134C181.483,180.118 180.934,179.846 180.438,179.316C180.035,177.56 179.786,175.69 179.69,173.704C182.033,173.39 184.358,172.876 186.67,172.163Z" style="fill:white;fill-opacity:0.75;fill-rule:nonzero;"/>
    <path d="M112.362,198.642L112.15,204.237L111.645,210.924C111.309,215.298 110.718,219.631 109.874,223.922C109.269,226.995 108.189,229.863 107.309,232.865C107.245,233.086 107.028,233.223 106.801,233.182L105.541,232.955C102.961,232.421 100.502,231.542 98.161,230.317C97.432,229.936 96.748,229.585 96.108,229.262L95.59,228.984C95.366,228.865 95.248,228.613 95.296,228.363C96.028,224.539 96.677,220.807 97.243,217.172C97.522,215.391 97.617,213.06 97.883,211.01C97.845,209.434 97.944,207.867 98.177,206.303C98.254,205.791 98.244,205.101 98.148,204.234C97.995,203.448 97.781,202.709 97.509,202.018C96.984,200.685 96.709,199.972 96.684,199.873C96.348,198.613 95.974,197.433 95.443,196.096C94.58,193.922 93.768,191.751 93.003,189.583C92.68,188.668 92.421,187.796 92.23,186.964L92.383,181.509C92.386,181.32 92.469,181.145 92.613,181.023C95.175,178.826 97.803,176.895 100.505,175.235C101.928,174.359 103.52,173.835 105.282,173.659C107.383,173.448 108.975,173.998 110.235,175.552C110.788,176.236 111.012,176.483 111.06,177.397C111.364,183.146 111.783,189.164 112.32,195.454C112.333,195.591 112.333,195.726 112.317,195.863C112.224,196.787 112.237,197.711 112.362,198.642Z" style="fill:white;fill-opacity:0.85;fill-rule:nonzero;"/>
    <path d="M186.075,178.922L186.12,181.736L180.057,181.746L180.438,179.316C180.934,179.846 181.483,180.118 182.091,180.134C183.162,180.16 184.233,180.23 185.301,180.342C185.413,180.355 185.522,180.291 185.564,180.185L186.075,178.922Z" style="fill:white;fill-opacity:0.6;fill-rule:nonzero;"/>
    <path d="M90.228,181.707C90.458,181.797 90.644,182.091 90.787,182.59C91.2,184.016 91.68,185.474 92.23,186.964C92.421,187.796 92.68,188.668 93.003,189.583C93.768,191.751 94.58,193.922 95.443,196.096C95.974,197.433 96.348,198.613 96.684,199.873C96.709,199.972 96.984,200.685 97.509,202.018C97.781,202.709 97.995,203.448 98.148,204.234L45.532,204.276C45.417,204.276 45.324,204.369 45.328,204.48C45.497,214.214 45.539,223.928 45.455,233.623C45.446,234.816 45.385,235.948 45.273,237.025C45.244,237.393 45.03,237.579 44.634,237.582C43.121,237.598 39.578,237.617 34.005,237.633L33.995,201.446C33.995,201.363 33.957,201.283 33.893,201.232C33.068,200.531 32.058,199.966 31.319,199.195C29.039,196.819 27.664,193.967 27.197,190.638C26.772,187.575 27.898,184.902 28.924,182.209C29.033,181.922 29.311,181.733 29.621,181.733L90.228,181.707Z" style="fill:white;fill-opacity:0.4;fill-rule:nonzero;"/>
    <path d="M186.12,181.736C186.12,182.679 186.13,183.645 186.146,184.633C186.162,185.596 186.213,186.558 186.302,187.521C186.494,189.589 186.296,191.789 186.654,193.925C186.721,194.309 186.75,194.702 186.744,195.092C186.728,196.068 186.782,196.963 186.9,197.782C187.006,198.514 187.079,199.4 187.118,200.445C187.162,201.641 187.271,202.875 187.441,204.148L177.215,204.19C177.074,201.919 177.451,200.042 177.499,198.095C177.522,197.12 177.726,196.215 177.835,195.035C178.235,190.721 178.977,186.293 180.057,181.746L186.12,181.736Z" style="fill:white;fill-opacity:0.4;fill-rule:nonzero;"/>
    <path d="M266.082,237.63L255.041,237.601C254.804,237.313 254.686,237.112 254.686,237C254.676,224.19 254.676,213.399 254.692,204.624C254.692,204.512 254.679,204.42 254.65,204.353C254.618,204.282 254.548,204.234 254.468,204.234L212.673,204.253C214.3,197.382 215.48,190.574 216.206,183.834C218.355,184.946 220.625,185.599 221.725,182.763C221.862,182.414 222.003,182.085 222.15,181.768L270.443,181.723C270.686,181.723 270.907,181.874 270.99,182.104C272.154,185.205 273.292,187.837 272.698,191.23C272.189,194.13 270.948,196.688 268.969,198.901C268.096,199.876 267.188,200.349 266.168,201.171C266.066,201.254 266.005,201.379 266.005,201.513L266.082,237.63Z" style="fill:white;fill-opacity:0.4;fill-rule:nonzero;"/>
    <path d="M148.855,184.703C149.038,184.889 149.156,185.049 149.214,185.18C149.616,186.11 150.067,187.019 150.566,187.901C150.771,188.262 151.065,188.899 151.452,189.81C151.935,190.948 152.478,191.268 153.086,190.769C153.287,193.318 153.565,195.777 153.927,198.146C154.231,200.145 154.605,202.14 155.052,204.138C152.677,204.506 150.732,203.249 150.253,200.861C150.198,200.586 149.812,200.576 149.738,200.845C149.249,202.664 148.27,204.014 146.24,204.167C145.712,204.209 144.577,204.231 142.838,204.234C138.498,204.244 134.134,204.231 129.75,204.193C129.747,200.065 130.063,195.927 130.706,191.777C131.285,188.026 131.64,185.778 131.771,185.039C131.902,184.307 132.046,183.754 132.202,183.38C132.222,183.332 132.292,183.345 132.298,183.396C132.452,184.716 132.884,186.229 133.597,187.927C133.971,188.825 134.399,189.119 135.266,189.791C137.108,191.22 139.039,192.24 141.06,192.854C141.268,192.918 141.789,192.931 142.623,192.889C142.694,192.886 142.764,192.86 142.825,192.822L144.926,191.393C145.335,191.115 145.658,190.728 145.856,190.274C146.787,188.16 147.42,186.344 148.855,184.703Z" style="fill:white;fill-opacity:0.4;fill-rule:nonzero;"/>
    <path d="M112.873,198.536C113.1,200.391 113.525,202.284 114.149,204.212L112.15,204.237L112.362,198.642C112.374,198.555 112.393,198.472 112.419,198.399C112.454,198.296 112.505,198.239 112.579,198.229C112.697,198.21 112.793,198.312 112.873,198.536Z" style="fill:white;fill-opacity:0.5;fill-rule:nonzero;"/>
    <path d="M155.052,204.138L156.741,211.058C154.355,210.94 151.733,210.895 148.875,210.924C146.006,210.952 140.465,210.956 132.25,210.94C131.464,210.936 130.664,210.988 129.852,211.087L129.75,204.193C134.134,204.231 138.498,204.244 142.838,204.234C144.577,204.231 145.712,204.209 146.24,204.167C148.27,204.014 149.249,202.664 149.738,200.845C149.812,200.576 150.198,200.586 150.253,200.861C150.732,203.249 152.677,204.506 155.052,204.138Z" style="fill:white;fill-opacity:0.15;fill-rule:nonzero;"/>
    <path d="M187.441,204.148L187.594,210.872L177.135,210.917L177.215,204.19L187.441,204.148Z" style="fill:white;fill-opacity:0.15;fill-rule:nonzero;"/>
    <path d="M255.041,237.601C253.656,237.655 252.284,237.655 250.925,237.598C250.382,237.575 250.26,237.067 249.749,236.955C249.995,236.702 250.116,236.367 250.113,235.945C250.068,227.637 250.056,219.336 250.071,211.045C250.071,210.975 250.014,210.917 249.944,210.917L210.94,210.885L212.673,204.253L254.468,204.234C254.548,204.234 254.618,204.282 254.65,204.353C254.679,204.42 254.692,204.512 254.692,204.624C254.676,213.399 254.676,224.19 254.686,237C254.686,237.112 254.804,237.313 255.041,237.601Z" style="fill:white;fill-opacity:0.15;fill-rule:nonzero;"/>
    <path d="M98.148,204.234C98.244,205.101 98.254,205.791 98.177,206.303C97.944,207.867 97.845,209.434 97.883,211.01L51.745,210.93C51.512,210.93 51.323,211.119 51.326,211.352L51.441,236.894L45.273,237.025C45.385,235.948 45.446,234.816 45.455,233.623C45.539,223.928 45.497,214.214 45.328,204.48C45.324,204.369 45.417,204.276 45.532,204.276L98.148,204.234Z" style="fill:white;fill-opacity:0.15;fill-rule:nonzero;"/>
    <path d="M114.149,204.212L114.197,205.568C114.2,205.683 114.226,205.801 114.27,205.91C114.929,207.518 115.057,209.159 115.354,210.847L111.645,210.924L112.15,204.237L114.149,204.212Z" style="fill:white;fill-opacity:0.15;fill-rule:nonzero;"/>
    <path d="M97.883,211.01C97.617,213.06 97.522,215.391 97.243,217.172C96.677,220.807 96.028,224.539 95.296,228.363C95.248,228.613 95.366,228.865 95.59,228.984L96.108,229.262L94.062,236.888L51.441,236.894L51.326,211.352C51.323,211.119 51.512,210.93 51.745,210.93L97.883,211.01Z" style="fill:white;fill-opacity:0.35;fill-rule:nonzero;"/>
    <path d="M115.354,210.847C116.208,217.127 117.084,223.369 118.376,229.578C118.395,229.681 118.459,229.767 118.546,229.821C118.971,230.08 119.435,230.263 119.937,230.371C119.773,231.036 119.69,231.462 119.694,231.644C119.7,233.409 119.598,235.155 119.383,236.882L105.79,236.885C105.4,235.705 105.544,234.18 105.541,232.955L106.801,233.182C107.028,233.223 107.245,233.086 107.309,232.865C108.189,229.863 109.269,226.995 109.874,223.922C110.718,219.631 111.309,215.298 111.645,210.924L115.354,210.847Z" style="fill:white;fill-opacity:0.35;fill-rule:nonzero;"/>
    <path d="M187.594,210.872C187.45,214.572 187.399,218.297 187.444,222.048C187.466,223.877 188.314,225.114 189.992,225.76C190.475,225.949 191.031,226.157 191.655,226.39C191.188,228.565 190.261,230.621 188.876,232.555C187.594,234.343 186.485,235.785 185.548,236.888L182.564,236.961C181.563,235.727 180.639,234.391 179.786,232.955C178.849,231.375 178.219,229.681 177.896,227.871C177.755,227.081 177.589,226.326 177.394,225.607C178.331,224.539 178.526,223.682 178.305,222.198C178.043,220.443 177.8,218.691 177.573,216.935C177.314,214.905 177.167,212.9 177.135,210.917L187.594,210.872Z" style="fill:white;fill-opacity:0.35;fill-rule:nonzero;"/>
    <path d="M210.94,210.885L249.944,210.917C250.014,210.917 250.071,210.975 250.071,211.045C250.056,219.336 250.068,227.637 250.113,235.945C250.116,236.367 249.995,236.702 249.749,236.955L202.591,236.891C203.441,235.468 204.084,234.071 204.522,232.699C204.922,231.442 205.088,230.16 205.024,228.846C205.021,228.76 204.951,228.661 204.816,228.542C204.906,228.424 204.976,228.299 205.03,228.165C207.298,222.464 209.267,216.705 210.94,210.885Z" style="fill:white;fill-opacity:0.35;fill-rule:nonzero;"/>
    <path d="M156.741,211.058C157.479,213.971 158.375,216.826 159.43,219.624C159.932,220.948 160.527,222.224 161.214,223.452C161.505,223.97 161.921,224.344 162.455,224.574C163.229,224.907 163.99,225.172 164.738,225.37C164.754,227.382 164.763,229.361 164.767,231.308C164.77,232.485 164.869,233.444 165.07,234.186C165.323,235.123 165.681,236.025 166.138,236.888L131.157,236.882C130.565,234.071 129.82,231.302 128.915,228.571C129.165,228.45 129.331,228.29 129.414,228.088C129.44,228.027 129.526,227.554 129.67,226.672C129.712,226.422 129.718,226.17 129.689,225.92C129.497,224.315 129.488,222.534 129.66,220.577C129.939,217.418 129.839,214.252 129.852,211.087C130.664,210.988 131.464,210.936 132.25,210.94C140.465,210.956 146.006,210.952 148.875,210.924C151.733,210.895 154.355,210.94 156.741,211.058Z" style="fill:white;fill-opacity:0.35;fill-rule:nonzero;"/>
    <path d="M177.394,225.607C177.589,226.326 177.755,227.081 177.896,227.871C178.219,229.681 178.849,231.375 179.786,232.955C180.639,234.391 181.563,235.727 182.564,236.961L184.051,238.826C184.46,239.328 185.356,240.511 186.737,242.381C188.985,245.429 190.047,248.709 189.915,252.227C189.871,253.397 189.573,254.561 189.02,255.718C188.505,256.048 187.943,256.425 187.335,256.847C186.859,257.177 185.848,257.468 184.31,257.723C183.002,257.941 181.854,257.909 180.87,257.624C176.924,256.479 173.614,254.468 171.517,251.06C169.553,247.878 168.479,244.012 167.807,240.421C167.769,240.207 167.699,239.999 167.6,239.801L166.138,236.888C165.681,236.025 165.323,235.123 165.07,234.186C164.869,233.444 164.77,232.485 164.767,231.308C164.763,229.361 164.754,227.382 164.738,225.37C167.062,225.824 169.716,226.144 172.697,226.333C174.474,226.445 176.041,226.205 177.394,225.607Z" style="fill:white;fill-opacity:0.75;fill-rule:nonzero;"/>
    <path d="M204.816,228.542C204.951,228.661 205.021,228.76 205.024,228.846C205.088,230.16 204.922,231.442 204.522,232.699C204.084,234.071 203.441,235.468 202.591,236.891C202.188,238.122 201.619,240.175 200.886,243.05C200.535,244.428 199.921,245.982 199.048,247.712C196.969,251.824 193.628,254.494 189.02,255.718C189.573,254.561 189.871,253.397 189.915,252.227C190.047,248.709 188.985,245.429 186.737,242.381C185.356,240.511 184.46,239.328 184.051,238.826L185.548,236.888C186.485,235.785 187.594,234.343 188.876,232.555C190.261,230.621 191.188,228.565 191.655,226.39C194.917,227.378 198.293,228.229 201.788,228.936C202.789,229.14 204.173,229.383 204.816,228.542Z" style="fill:white;fill-opacity:0.5;fill-rule:nonzero;"/>
    <path d="M128.915,228.571C129.82,231.302 130.565,234.071 131.157,236.882C131.275,238.522 131.259,239.647 131.102,240.258C130.118,244.134 128.525,247.756 126.325,251.124C124.938,253.25 123.348,254.743 120.96,255.117C117.928,255.594 115.581,253.128 115.418,250.161C115.243,246.97 117.081,244.14 118.386,241.361C118.875,240.316 119.208,238.822 119.383,236.882C119.598,235.155 119.7,233.409 119.694,231.644C119.69,231.462 119.773,231.036 119.937,230.371C122.117,230.889 124.225,230.701 126.255,229.802C127.115,229.422 128.001,229.012 128.915,228.571Z" style="fill:white;fill-opacity:0.6;fill-rule:nonzero;"/>
    <path d="M105.541,232.955C105.544,234.18 105.4,235.705 105.79,236.885C105.925,240.284 107.006,242.221 108.745,245.793C109.688,247.724 109.96,249.681 109.567,251.664C109.311,252.946 108.569,253.979 107.345,254.762C104.403,256.643 100.981,254.599 99.207,252.038C97.621,249.745 96.191,246.868 94.916,243.401C94.065,241.093 93.78,238.922 94.062,236.888L96.108,229.262C96.748,229.585 97.432,229.936 98.161,230.317C100.502,231.542 102.961,232.421 105.541,232.955Z" style="fill:white;fill-opacity:0.6;fill-rule:nonzero;"/>
</svg>
