<?xml version="1.0" encoding="UTF-8" standalone="no"?>
<!DOCTYPE svg PUBLIC "-//W3C//DTD SVG 1.1//EN" "http://www.w3.org/Graphics/SVG/1.1/DTD/svg11.dtd">
<svg width="100%" height="100%" viewBox="0 0 300 300" version="1.1" xmlns="http://www.w3.org/2000/svg" xmlns:xlink="http://www.w3.org/1999/xlink" xml:space="preserve" xmlns:serif="http://www.serif.com/" style="fill-rule:evenodd;clip-rule:evenodd;stroke-linejoin:round;stroke-miterlimit:2;">
    <path d="M95.086,37.44C95.256,35.16 95.509,33.176 95.848,31.488C96.297,29.271 97.229,27.078 98.644,24.904C99.127,24.165 99.699,23.576 100.368,23.133C101.75,22.218 103.031,21.838 104.103,20.46C105.531,18.626 106.846,17.195 108.051,16.17C112.711,12.192 118.789,10.957 124.804,12.015C127.23,12.445 129.734,13.234 132.313,14.389C133.974,15.131 135.029,15.647 135.479,15.93C137.027,16.902 138.195,17.651 138.984,18.177C139.833,18.743 140.878,19.645 142.113,20.883L147.472,26.249C149.133,27.916 150.617,29.208 151.926,30.13C152.848,30.779 154.522,31.724 156.949,32.969C158.793,33.911 160.946,35.402 163.409,37.44C163.606,37.809 164.015,38.332 164.641,39.014C165.173,39.594 165.809,40.579 166.548,41.973C166.785,42.522 166.972,43.049 167.118,43.551C167.242,43.978 167.519,44.343 167.5,44.729C167.49,44.946 167.523,45.252 167.6,45.651C167.827,46.817 167.87,47.828 167.72,48.684C167.367,50.704 166.736,52.884 165.829,55.221C165.182,56.888 164.578,58.434 164.012,59.855C162.961,62.491 162.331,64.814 161.998,67.387C161.808,68.855 161.988,70.526 162.531,72.407C163.05,74.205 163.492,75.543 163.859,76.425C165.203,79.66 165.839,82.822 165.347,86.194C164.964,88.817 163.625,90.766 161.326,92.049C160.17,92.694 158.962,93.331 157.707,93.96C157.571,93.837 157.441,93.743 157.315,93.684C155.7,92.928 153.969,92.253 152.132,91.636C144.719,89.151 138.192,87.147 132.53,85.705C132.463,85.688 132.223,85.634 131.814,85.542C131.714,85.519 131.624,85.472 131.551,85.399L129.853,83.751C129.61,82.676 129.587,81.694 129.777,80.808C130.159,79.027 131.897,77.566 133.475,76.874C137.639,75.047 141.939,72.353 143.491,67.787C144.825,63.862 144.385,59.246 144.493,56.1C144.53,55.018 144.91,52.435 145.638,48.351C146.003,46.304 146.039,42.251 144.543,40.519C143.014,38.749 141.101,38.491 138.907,38.501C137.969,38.506 135.639,38.571 131.917,38.695C129.927,38.761 127.813,38.591 125.573,38.182C122.66,37.473 119.752,36.34 116.845,34.793C113.86,33.205 110.876,31.324 107.938,29.095C107.851,29.029 107.748,28.981 107.641,28.952C106.631,28.675 105.867,29.141 105.355,30.333C103.115,35.536 101.563,40.874 100.715,46.347C100.668,46.65 100.367,47.036 99.803,47.489C99.706,47.566 99.59,47.613 99.47,47.622C98.618,47.684 97.771,47.903 97.243,48.804C96.961,49.284 96.69,50.082 96.434,51.2C96.174,50.545 95.606,45.75 95.286,41.97C95.103,39.8 95.001,37.965 95.086,37.44ZM97.639,56.962C98.521,57.984 99.276,58.687 99.906,59.069C100.351,59.339 100.679,59.564 100.891,59.738C100.973,59.806 101.031,59.898 101.054,59.998C101.907,63.624 103.365,66.968 105.411,70.034C106.533,71.714 108.651,73.231 109.908,74.241C111.653,75.643 112.935,77.313 113.736,79.211C114.465,80.938 114.791,82.854 114.711,84.936C114.708,85.029 114.728,85.122 114.771,85.209C114.901,85.466 115.094,85.672 115.354,85.828C115.264,85.958 115.041,85.931 114.682,85.741C114.655,85.725 114.628,85.709 114.602,85.698C114.521,85.666 114.433,85.676 114.365,85.731C114.047,85.993 113.676,86.178 113.273,86.297C113.143,86.279 113.052,86.263 113,86.25L113.037,86.211C112.976,86.214 112.947,86.221 112.951,86.229C106.393,87.62 99.988,89.215 93.728,91.021C92.463,88.82 93.495,86.072 94.514,82.35L94.723,81.571C96.277,75.802 97.339,71.298 97.915,68.053C98.305,65.859 98.427,63.402 98.251,60.687C98.245,60.59 98.229,60.497 98.205,60.404C97.914,59.295 97.715,58.15 97.639,56.962Z" style="fill:white;fill-opacity:0.3;"/>
    <path d="M157.707,93.96C157.571,93.837 157.441,93.743 157.315,93.684C155.7,92.928 153.969,92.253 152.132,91.636C144.719,89.151 138.192,87.147 132.53,85.705C132.463,85.688 132.223,85.634 131.814,85.542C131.714,85.519 131.624,85.472 131.551,85.399L129.853,83.751C128.958,82.922 127.441,81.896 126.299,80.461C124.475,78.168 122.401,71.637 122.55,71.653C121.619,71.478 120.746,71.24 120.064,71.026C119.904,70.975 119.748,70.922 119.597,70.865C116.373,69.653 115.544,67.384 116.779,64.675C117.241,63.659 118.083,63.276 119.308,63.533C119.768,63.629 120.626,64.262 121.885,65.427C122.071,65.394 122.134,65.161 122.074,64.724C122.024,64.355 121.999,64.092 122.001,63.939C122.024,62.618 122.2,61.379 122.55,60.227C122.929,58.982 123.908,58.767 125.12,59.059C126.155,59.309 126.784,59.456 127.007,59.498C127.34,59.562 127.675,59.406 127.84,59.112C128.024,58.784 128.129,58.383 128.156,57.907C128.533,51.253 127.68,44.676 125.573,38.182C122.66,37.473 119.752,36.34 116.845,34.793C113.86,33.205 110.876,31.324 107.938,29.095C107.851,29.029 107.748,28.981 107.641,28.952C106.631,28.675 105.867,29.141 105.355,30.333C103.115,35.536 101.563,40.874 100.715,46.347C100.668,46.65 100.367,47.036 99.803,47.489C99.706,47.566 99.59,47.613 99.47,47.622C98.618,47.684 97.771,47.903 97.243,48.804C96.961,49.284 96.69,50.082 96.434,51.2C96.504,53.184 96.903,55.105 97.639,56.962C98.521,57.984 99.276,58.687 99.906,59.069C100.351,59.339 100.679,59.564 100.891,59.738C100.973,59.806 101.031,59.898 101.054,59.998C101.907,63.624 103.365,66.968 105.411,70.034C106.533,71.714 108.651,73.231 109.908,74.241C111.653,75.643 112.935,77.313 113.736,79.211C114.465,80.938 114.791,82.854 114.711,84.936C114.708,85.029 114.728,85.122 114.771,85.209C114.901,85.466 115.094,85.672 115.354,85.828C115.805,86.055 116.275,86.257 116.763,86.433C118.285,86.982 119.982,87.284 121.858,87.336C125.386,87.434 128.632,86.857 131.594,85.605C134.167,87.392 136.522,89.458 138.658,91.79C138.954,92.113 139.187,92.459 139.363,92.821C139.477,93.054 139.424,93.335 139.234,93.51C138.519,94.171 137.497,94.27 136.464,94.343C136.304,94.354 136.268,94.569 136.411,94.636L140.572,96.553C140.678,96.599 140.735,96.719 140.705,96.836C138.491,105.362 136.306,113.662 134.217,121.751C134.137,122.06 133.951,122.29 133.788,122.576C137.849,122.799 141.906,122.977 145.957,123.122C146.786,123.152 147.367,123.463 147.705,124.054C147.92,124.431 148.01,125.106 147.975,126.075C147.88,128.681 147.778,131.281 147.658,133.877C147.758,133.94 147.865,133.947 147.978,133.9C150.507,132.842 153.067,131.996 155.677,131.4C156.619,131.194 157.847,130.971 159.355,130.731C164.381,129.932 169.356,129.904 174.274,130.671C174.401,130.691 174.657,130.651 175.046,130.548C174.79,128.727 174.484,127.123 174.124,125.735C172.384,119.014 169.76,112.394 166.252,105.88C164.055,101.799 161.649,98.187 159.036,95.048C158.869,94.849 158.426,94.486 157.707,93.96ZM114.365,45.192C114.325,45.325 114.455,45.448 114.585,45.402C116.619,44.646 118.476,44.31 120.899,44.237C122.437,44.19 123.665,44.107 124.588,43.984C124.89,43.944 125.087,43.664 125,43.408C124.934,43.218 124.757,43.075 124.474,42.982C121.435,41.993 117.101,43.032 114.595,44.926C114.465,45.022 114.389,45.112 114.365,45.192ZM121.116,47.314C120.503,47.262 119.911,48.351 119.798,49.741C119.684,51.13 120.087,52.299 120.702,52.35C121.315,52.402 121.908,51.313 122.021,49.924C122.134,48.534 121.732,47.366 121.116,47.314Z" style="fill:white;fill-opacity:0.85;"/>
    <path d="M56.993,217.745C50.059,217.729 43.159,217.722 36.292,217.725C34.525,217.729 33.336,217.569 32.727,217.249C31.652,216.69 31.113,215.675 31.113,214.2C31.109,155.29 31.106,98.067 31.109,42.532C31.109,40.169 31.146,38.728 33.077,37.729C33.443,37.539 34.165,37.443 35.247,37.443C55.036,37.43 74.981,37.43 95.086,37.44C95.001,37.965 95.103,39.8 95.286,41.97L35.829,41.977C35.73,41.977 35.646,42.06 35.646,42.16L35.646,212.962C35.646,213.082 35.746,213.182 35.866,213.182L59.829,213.195C58.534,214.643 57.589,216.157 56.993,217.745Z" style="fill:white;fill-opacity:0.25;"/>
    <path d="M163.409,37.44C205.527,37.436 247.594,37.433 289.615,37.436C291.409,37.436 292.541,37.593 293.01,37.902C294.494,38.884 294.628,40.099 294.628,42.03C294.624,100.64 294.628,157.514 294.631,212.649C294.631,214.44 294.491,215.562 294.215,216.011C293.296,217.512 292.111,217.722 290.21,217.725C285.78,217.735 281.346,217.732 276.903,217.712L276.496,213.195L289.801,213.198C289.958,213.198 290.084,213.072 290.084,212.919L290.084,42.18C290.084,42.066 289.991,41.973 289.874,41.973L166.548,41.973C165.809,40.579 165.173,39.594 164.641,39.014C164.015,38.332 163.606,37.809 163.409,37.44Z" style="fill:white;fill-opacity:0.25;"/>
    <path d="M129.853,83.751C129.61,82.676 129.587,81.694 129.777,80.808C130.159,79.027 131.897,77.566 133.475,76.874C137.639,75.047 141.939,72.353 143.491,67.787C144.825,63.862 144.385,59.246 144.493,56.1C144.53,55.018 144.91,52.435 145.638,48.351C146.003,46.304 146.039,42.251 144.543,40.519C143.014,38.749 141.101,38.491 138.907,38.501C137.969,38.506 135.639,38.571 131.917,38.695C129.927,38.761 127.813,38.591 125.573,38.182C127.68,44.676 128.533,51.253 128.156,57.907C128.129,58.383 128.024,58.784 127.84,59.112C127.675,59.406 127.34,59.562 127.007,59.498C126.784,59.456 126.155,59.309 125.12,59.059C123.908,58.767 122.929,58.982 122.55,60.227C122.2,61.379 122.024,62.618 122.001,63.939C121.999,64.092 122.024,64.355 122.074,64.724C122.134,65.161 122.071,65.394 121.885,65.427C122.687,65.766 124.029,66.177 125.906,66.668C127.108,66.983 128.808,67.835 128.808,69.188C128.808,71.996 125.752,72.178 122.997,71.732C122.847,71.707 122.698,71.681 122.55,71.653C122.401,71.637 124.475,78.168 126.299,80.461C127.441,81.896 128.958,82.922 129.853,83.751ZM140.725,47.199C140.718,47.153 140.691,47.106 140.642,47.063C138.761,45.442 136.574,44.483 134.087,44.187C133.375,44.104 132.699,44.197 132.064,44.466C131.801,44.58 131.734,44.922 131.94,45.122C132.167,45.345 132.506,45.495 132.956,45.578C135.093,45.961 136.228,46.161 136.361,46.177C137.679,46.36 138.984,46.863 140.332,47.472C140.535,47.562 140.758,47.409 140.725,47.199ZM132.875,49.023C132.257,48.967 131.654,50.039 131.532,51.416C131.408,52.795 131.811,53.953 132.43,54.01C133.049,54.066 133.651,52.994 133.773,51.616C133.898,50.238 133.495,49.08 132.875,49.023Z" style="fill:white;fill-opacity:0.75;"/>
    <path d="M77.241,203.918C77.048,204.304 76.619,204.598 75.953,204.797C75.041,205.068 74.532,205.224 74.428,205.266C71.612,206.419 68.783,207.527 65.967,208.665C63.724,209.571 61.676,211.081 59.829,213.195L35.866,213.182C35.746,213.182 35.646,213.082 35.646,212.962L35.646,42.16C35.646,42.06 35.73,41.977 35.829,41.977L95.286,41.97C95.606,45.75 96.174,50.545 96.434,51.2C96.504,53.184 96.903,55.105 97.639,56.962C97.715,58.15 97.914,59.295 98.205,60.404C98.229,60.497 98.245,60.59 98.251,60.687C98.427,63.402 98.305,65.859 97.915,68.053C97.339,71.298 96.277,75.802 94.723,81.571L94.514,82.35C93.495,86.072 92.463,88.82 93.728,91.021C92.137,91.623 90.529,92.185 88.901,92.708C87.093,93.29 85.774,94.803 84.7,96.416C79.797,103.787 76.932,111.988 74.844,120.695C72.808,129.187 72.355,138.181 73.49,147.684C73.283,147.724 73.09,147.77 72.907,147.821C72.494,147.933 72.194,148.349 71.699,148.19C71.555,148.144 71.405,147.977 71.249,147.694C70.508,146.347 69.686,145.317 68.776,144.615C67.515,143.642 65.927,143.402 64.013,143.883C63.88,143.916 63.753,143.969 63.637,144.039C61.05,145.614 58.918,147.718 57.203,150.297C56.647,151.133 56.506,151.922 56.777,152.667C57.586,154.898 59.496,156.563 61.74,157.427C61.879,157.481 61.948,157.64 61.889,157.78C61.027,159.828 60.565,161.971 60.461,164.194C60.342,166.741 60.405,168.741 60.654,170.202C61.094,172.782 61.357,174.583 61.443,175.611C60.814,177.329 60.724,179.123 61.167,180.997C61.017,181.3 59.549,195.796 59.549,195.796C59.606,196.156 59.835,196.469 60.165,196.628C60.89,196.979 61.789,197.277 62.858,197.52C66.736,198.402 70.684,198.829 74.695,198.802C75.76,200.08 76.908,202.151 77.241,203.918ZM220.209,173.744C220.332,175.571 220.398,177.519 220.412,179.586C220.476,189.059 218.202,197.89 213.582,206.082C212.334,206.135 211.299,206.508 210.476,207.2C210.739,206.661 211.229,205.743 211.948,204.447C213.791,201.123 215.29,197.181 216.451,192.617C217.759,187.009 218.142,181.393 217.6,175.778C216.631,165.755 212.937,156.773 206.522,148.832C204.707,146.586 203.053,144.801 201.566,143.483C198.623,140.93 195.576,138.703 192.415,136.813C191.623,136.339 190.172,135.601 188.065,134.599L189.22,131.89C189.316,131.663 189.582,131.557 189.809,131.653L192.076,132.639C195.328,134.419 198.407,136.503 201.316,138.893C204.005,141.43 205.807,143.21 206.715,144.232C212.284,150.501 216.179,157.56 218.412,165.399C219.018,167.526 219.617,170.305 220.209,173.744ZM166.548,41.973L289.874,41.973C289.991,41.973 290.084,42.066 290.084,42.18L290.084,212.919C290.084,213.072 289.958,213.198 289.801,213.198L276.496,213.195C275.931,209.687 274.425,206.686 271.98,204.191C270.577,202.76 268.758,201.751 266.94,200.846C265.476,200.116 264.021,199.374 262.576,198.612C260.429,197.198 258.958,195.127 258.156,192.398C259.863,192.707 261.528,192.794 263.155,192.657C265.808,192.435 268.284,191.788 270.582,190.72C272.272,189.934 274.486,188.404 275.628,187.411C277.595,185.701 279.277,183.585 280.684,181.067C281.365,179.848 281.848,178.9 282.132,178.221C282.175,178.118 282.212,178.011 282.242,177.901C282.435,177.189 282.656,176.602 282.911,176.144C282.97,176.037 283.011,175.924 283.034,175.808L283.337,174.213C283.347,174.163 283.363,174.117 283.39,174.073C283.605,173.727 283.812,173.038 284.003,172.003C284.42,169.736 284.762,168.331 284.645,167.04C284.629,166.867 284.643,166.697 284.682,166.531C284.874,165.707 285.008,165.076 284.881,164.164C284.848,163.924 284.854,163.618 284.901,163.245C284.963,162.763 284.851,161.407 284.548,159.175C284.519,158.958 284.434,158.652 284.292,158.256C283.579,156.27 282.978,154.373 280.677,153.939C279.982,153.807 279.376,153.805 278.866,153.929C278.757,153.955 278.65,153.875 278.643,153.762C278.581,152.584 278.345,151.558 277.918,150.686C277.194,149.208 275.88,147.761 274.203,146.745C272.495,145.711 270.921,144.93 269.48,144.402C264.485,142.571 260.938,141.228 258.855,140.338C258.731,140.285 258.602,140.244 258.469,140.221C257.334,140.024 256.358,139.528 255.256,139.333C253.885,139.089 252.893,138.923 252.284,138.827C251.588,138.717 250.957,138.9 250.3,138.753C250.071,138.702 249.837,138.697 249.608,138.733C248.087,138.976 246.683,139.114 245.134,139.915C242.885,141.078 241.184,143.314 240.101,145.637C239.007,147.984 238.201,150.387 237.691,152.85L235.631,155.969C235.564,156.069 235.572,156.198 235.647,156.289C236,156.709 236.098,157.32 235.957,158.116C235.741,159.33 235.238,160.239 234.443,160.839C234.156,161.055 233.743,160.892 233.68,160.539L233.65,160.369C233.644,160.326 233.61,160.29 233.567,160.273L233.481,160.243C233.371,160.203 233.253,160.29 233.258,160.406C233.277,160.972 232.969,161.155 232.805,161.525C231.448,164.577 230.388,167.726 229.646,170.978C228.917,171.001 228.502,171.155 228.394,171.444C228.077,172.3 228.311,173.288 229.107,174.413C228.82,176.154 228.724,177.741 228.81,179.183C228.852,179.879 228.948,180.563 229.093,181.24C229.131,181.416 229.271,181.902 229.513,182.701C229.877,183.903 230.541,184.908 231.51,185.724C232.698,186.236 233.907,186.709 235.132,187.138C236.553,187.637 237.495,188.08 237.954,188.463C239.614,189.849 240.93,192.088 241.383,194.112C241.659,195.347 241.377,196.43 240.541,197.357C240.477,197.427 240.387,197.47 240.291,197.48L239.192,197.59C237.728,197.71 235.824,197.795 233.477,197.843C228.062,197.954 222.962,201.658 219.623,205.676L217.223,205.506C220.845,198.253 222.843,190.693 223.215,182.828C224.215,161.681 213.472,141.709 195.105,131.197C190.504,128.564 185.612,126.6 180.422,125.302C180.316,125.276 180.209,125.275 180.103,125.302C179.162,125.547 178.764,126.075 178.908,126.857C178.904,127.509 179.234,127.926 179.896,128.108C181.304,128.496 182.663,128.882 183.964,129.273C184.184,129.34 184.3,129.58 184.217,129.796L183.092,132.665L180.093,131.816C178.608,131.347 177.029,131.018 175.356,130.811C175.226,130.795 175.123,130.708 175.046,130.548C174.79,128.727 174.484,127.123 174.124,125.735C172.384,119.014 169.76,112.394 166.252,105.88C164.055,101.799 161.649,98.187 159.036,95.048C158.869,94.849 158.426,94.486 157.707,93.96C158.962,93.331 160.17,92.694 161.326,92.049C163.625,90.766 164.964,88.817 165.347,86.194C165.839,82.822 165.203,79.66 163.859,76.425C163.492,75.543 163.05,74.205 162.531,72.407C161.988,70.526 161.808,68.855 161.998,67.387C162.331,64.814 162.961,62.491 164.012,59.855C164.578,58.434 165.182,56.888 165.829,55.221C166.736,52.884 167.367,50.704 167.72,48.684C167.87,47.828 167.827,46.817 167.6,45.651C167.523,45.252 167.49,44.946 167.5,44.729C167.519,44.343 167.242,43.978 167.118,43.551C166.972,43.049 166.785,42.522 166.548,41.973Z" style="fill:white;fill-opacity:0.1;"/>
    <path d="M121.885,65.427C120.626,64.262 119.768,63.629 119.308,63.533C118.083,63.276 117.241,63.659 116.779,64.675C115.544,67.384 116.373,69.653 119.597,70.865C119.748,70.922 119.904,70.975 120.064,71.026C120.746,71.24 121.619,71.478 122.55,71.653C122.698,71.681 122.847,71.707 122.997,71.732C125.752,72.178 128.808,71.996 128.808,69.188C128.808,67.835 127.108,66.983 125.906,66.668C124.029,66.177 122.687,65.766 121.885,65.427Z" style="fill:white;fill-opacity:0.15;"/>
    <path d="M140.725,47.199C140.718,47.153 140.691,47.106 140.642,47.063C138.761,45.442 136.574,44.483 134.087,44.187C133.375,44.104 132.699,44.197 132.064,44.466C131.801,44.58 131.734,44.922 131.94,45.122C132.167,45.345 132.506,45.495 132.956,45.578C135.093,45.961 136.228,46.161 136.361,46.177C137.679,46.36 138.984,46.863 140.332,47.472C140.535,47.562 140.758,47.409 140.725,47.199Z" style="fill:white;fill-opacity:0.15;"/>
    <path d="M132.875,49.023C132.257,48.967 131.654,50.039 131.532,51.416C131.408,52.795 131.811,53.953 132.43,54.01C133.049,54.066 133.651,52.994 133.773,51.616C133.898,50.238 133.495,49.08 132.875,49.023Z" style="fill:white;fill-opacity:0.15;"/>
    <path d="M114.365,45.192C114.325,45.325 114.455,45.448 114.585,45.402C116.619,44.646 118.476,44.31 120.899,44.237C122.437,44.19 123.665,44.107 124.588,43.984C124.89,43.944 125.087,43.664 125,43.408C124.934,43.218 124.757,43.075 124.474,42.982C121.435,41.993 117.101,43.032 114.595,44.926C114.465,45.022 114.389,45.112 114.365,45.192Z" style="fill:white;fill-opacity:0.15;"/>
    <path d="M121.116,47.314C120.503,47.262 119.911,48.351 119.798,49.741C119.684,51.13 120.087,52.299 120.702,52.35C121.315,52.402 121.908,51.313 122.021,49.924C122.134,48.534 121.732,47.366 121.116,47.314Z" style="fill:white;fill-opacity:0.15;"/>
    <path d="M113,86.25C113.052,86.263 113.143,86.279 113.273,86.297C113.676,86.178 114.047,85.993 114.365,85.731C114.433,85.676 114.521,85.666 114.602,85.698C114.628,85.709 114.655,85.725 114.682,85.741C114.585,85.974 114.534,86.134 114.535,86.221C114.545,87.36 114.559,88.5 114.575,89.64C114.689,97.411 114.947,105.181 115.184,112.95C115.231,114.501 115.251,115.985 115.247,117.407C115.244,118.905 115.237,120.393 115.227,121.867L110.95,121.731C110.744,120.905 110.538,120.076 110.334,119.244C109.885,117.407 109.261,116.009 108.96,114.231C108.632,112.301 107.775,110.057 107.455,108.519C106.9,105.856 106.062,103.456 105.528,100.764C105.192,99.072 104.947,97.901 104.782,97.252C104.749,97.122 104.686,96.902 104.592,96.593C105.701,95.821 107.219,95.218 109.146,94.782C108.231,94.666 107.638,94.575 107.365,94.519C106.829,94.409 106.36,94.169 105.957,93.8C105.877,93.727 105.845,93.614 105.874,93.507C105.902,93.404 105.951,93.299 106.037,93.194C106.788,92.28 107.524,91.523 108.179,90.866C108.507,90.536 108.821,90.236 109.119,89.966C110.752,88.486 112.048,87.248 113,86.25Z" style="fill:white;fill-opacity:0.65;"/>
    <path d="M133.788,122.576C133.951,122.29 134.137,122.06 134.217,121.751C136.306,113.662 138.491,105.362 140.705,96.836C140.735,96.719 140.678,96.599 140.572,96.553L136.411,94.636C136.268,94.569 136.304,94.354 136.464,94.343C137.497,94.27 138.519,94.171 139.234,93.51C139.424,93.335 139.477,93.054 139.363,92.821C139.187,92.459 138.954,92.113 138.658,91.79C136.522,89.458 134.167,87.392 131.594,85.605L129.677,122.27L133.788,122.576Z" style="fill:white;fill-opacity:0.65;"/>
    <path d="M131.594,85.605C128.632,86.857 125.386,87.434 121.858,87.336C119.982,87.284 118.285,86.982 116.763,86.433C116.275,86.257 115.805,86.055 115.354,85.828C115.264,85.958 115.041,85.931 114.682,85.741C114.585,85.974 114.534,86.134 114.535,86.221C114.545,87.36 114.559,88.5 114.575,89.64C114.689,97.411 114.947,105.181 115.184,112.95C115.231,114.501 115.251,115.985 115.247,117.407C115.244,118.905 115.237,120.393 115.227,121.867C116.838,121.791 118.5,121.786 120.214,121.857C123.126,121.978 124.604,122.041 124.654,122.044C126.327,122.124 128.003,122.17 129.677,122.27L131.594,85.605Z" style="fill:white;fill-opacity:0.5;"/>
    <path d="M93.728,91.021C92.137,91.623 90.529,92.185 88.901,92.708C87.093,93.29 85.774,94.803 84.7,96.416C79.797,103.787 76.932,111.988 74.844,120.695C72.808,129.187 72.355,138.181 73.49,147.684C74.072,147.524 74.651,147.358 75.231,147.185C75.863,146.995 76.376,146.869 76.772,146.812C77.481,146.71 78.1,146.442 78.845,146.386C80.03,146.296 81.335,146.193 82.757,146.083C83.878,145.996 85.093,145.978 86.408,146.033C88.489,146.12 90.456,146.113 92.38,146.582C92.583,146.599 92.769,146.572 92.942,146.502C93.042,146.462 93.117,146.379 93.149,146.279C94.788,141.077 96.606,136.098 98.964,131.553C99.003,131.477 99.12,131.504 99.12,131.59L99.157,146.982C99.746,146.03 100.561,145.213 101.6,144.535C102.887,143.695 104.147,143.335 105.375,143.457C105.804,143.499 106.539,143.764 107.568,144.272C107.648,144.312 107.745,144.256 107.751,144.166C107.97,141.193 107.91,138.461 108.151,135.538C108.228,134.599 108.267,133.624 108.264,132.615C108.255,130.012 108.558,127.712 108.557,124.903C108.556,123.149 108.963,121.677 110.95,121.731C110.744,120.905 110.538,120.076 110.334,119.244C109.885,117.407 109.261,116.009 108.96,114.231C108.632,112.301 107.775,110.057 107.455,108.519C106.9,105.856 106.062,103.456 105.528,100.764C105.192,99.072 104.947,97.901 104.782,97.252C104.749,97.122 104.686,96.902 104.592,96.593C105.701,95.821 107.219,95.218 109.146,94.782C108.231,94.666 107.638,94.575 107.365,94.519C106.829,94.409 106.36,94.169 105.957,93.8C105.877,93.727 105.845,93.614 105.874,93.507C105.902,93.404 105.951,93.299 106.037,93.194C106.788,92.28 107.524,91.523 108.179,90.866C108.507,90.536 108.821,90.236 109.119,89.966C110.752,88.486 112.048,87.248 113,86.25C112.969,86.242 112.953,86.235 112.951,86.229C106.393,87.62 99.988,89.215 93.728,91.021Z" style="fill:white;fill-opacity:0.85;"/>
    <path d="M113.037,86.211C112.976,86.214 112.947,86.221 112.951,86.229L113.037,86.211Z" style="fill:white;fill-opacity:0.95;"/>
    <path d="M113.037,86.211L113,86.25C112.969,86.242 112.953,86.235 112.951,86.229L113.037,86.211Z" style="fill:white;fill-opacity:0.95;"/>
    <path d="M73.49,147.684C73.283,147.724 73.09,147.77 72.907,147.821C72.494,147.933 72.194,148.349 71.699,148.19C71.555,148.144 71.405,147.977 71.249,147.694C70.508,146.347 69.686,145.317 68.776,144.615C67.515,143.642 65.927,143.402 64.013,143.883C63.88,143.916 63.753,143.969 63.637,144.039C61.05,145.614 58.918,147.718 57.203,150.297C56.647,151.133 56.506,151.922 56.777,152.667C57.586,154.898 59.496,156.563 61.74,157.427C61.879,157.481 61.948,157.64 61.889,157.78C61.027,159.828 60.565,161.971 60.461,164.194C60.342,166.741 60.405,168.741 60.654,170.202C61.094,172.782 61.357,174.583 61.443,175.611C61.796,175.102 62.156,174.789 62.525,174.679C63.857,174.283 64.538,174.416 64.918,172.762C65.968,168.198 67.549,163.878 69.652,159.807C70.344,158.466 71.389,158.939 72.418,159.69C74.255,161.033 76.421,162.415 78.922,163.835C81.943,165.55 85.09,166.701 88.359,167.286C91.218,167.563 93.332,167.655 94.7,167.566C96.51,167.448 98.218,167.535 99.822,167.819C100.761,167.985 101.592,168.426 102.319,169.14C103.685,170.484 104.05,172.15 104.146,174.034C104.168,174.46 104.06,175.278 103.823,176.487C103.38,178.753 103.179,180.731 103.218,182.418C103.235,183.157 103.428,184.396 103.797,186.13C104.593,189.868 101.64,193.763 98.737,195.919C97.742,196.658 96.491,197.444 94.979,198.279C95.139,198.502 95.436,198.537 95.865,198.386C96.275,198.241 96.577,198.178 96.773,198.203C97.516,198.297 108.747,195.966 108.747,195.966C108.806,195.936 108.87,195.919 108.933,195.909C110.805,195.629 112.981,194.729 113.297,192.711C113.3,192.687 113.303,192.667 113.3,192.644L113.094,190.88C113.08,190.77 113.04,190.667 112.974,190.577C112.546,189.988 111.84,188.992 110.844,187.598C110.059,186.499 109.326,184.961 108.65,182.981C108.298,181.949 108.127,181.01 108.137,180.165C108.137,180.165 108.027,174.649 107.974,174.406C107.947,174.283 108.044,174.163 108.171,174.17L114.339,174.393C114.562,173.894 115.138,173.73 116.066,173.917C116.163,173.937 116.253,173.983 116.326,174.054C116.523,174.243 116.719,174.29 116.918,174.2L118.207,167.609L119.411,163.891C119.445,163.785 119.338,163.685 119.235,163.731C116.073,165.159 112.76,166.361 109.359,165.988C109.263,165.978 109.186,165.895 109.183,165.795C109.114,163.864 109.134,162.144 108.637,160.273C108.453,159.581 108.572,158.866 108.217,158.389C108.047,158.16 108.005,157.824 108.068,157.377C108.082,157.271 108.145,157.175 108.237,157.117C108.937,156.684 109.429,156.391 109.728,156.255C110.251,156.018 110.643,155.558 111.163,155.337C111.728,155.096 112.47,155.234 113.034,155.007C113.26,154.916 113.267,154.601 113.047,154.498L112.518,154.255C112.385,154.195 112.338,154.029 112.421,153.909C112.956,153.134 113.238,152.431 113.26,151.805C113.264,151.692 113.367,151.605 113.48,151.622C115.247,151.88 116.865,153.01 118.34,154.135L118.39,154.165L119.458,154.704C119.568,154.761 119.694,154.781 119.821,154.761L123.502,154.192L123.236,154.967C123.223,155.004 123.243,155.044 123.279,155.057L123.386,155.094C123.416,155.104 123.446,155.094 123.462,155.067L124.701,152.95C125.09,152.527 125.456,152.068 125.792,151.575C131.067,143.864 138.818,137.679 147.432,134.107C147.488,134.083 147.562,134.007 147.658,133.877C147.778,131.281 147.88,128.681 147.975,126.075C148.01,125.106 147.92,124.431 147.705,124.054C147.367,123.463 146.786,123.152 145.957,123.122C141.906,122.977 137.849,122.799 133.788,122.576L129.677,122.27C128.003,122.17 126.327,122.124 124.654,122.044C124.604,122.041 123.126,121.978 120.214,121.857C118.5,121.786 116.838,121.791 115.227,121.867L110.95,121.731C108.963,121.677 108.556,123.149 108.557,124.903C108.558,127.712 108.255,130.012 108.264,132.615C108.267,133.624 108.228,134.599 108.151,135.538C107.91,138.461 107.97,141.193 107.751,144.166C107.745,144.256 107.648,144.312 107.568,144.272C106.539,143.764 105.804,143.499 105.375,143.457C104.147,143.335 102.887,143.695 101.6,144.535C100.561,145.213 99.746,146.03 99.157,146.982L98.631,148.21C98.624,148.227 98.608,148.233 98.591,148.227C96.32,147.347 94.24,146.825 92.38,146.582C90.456,146.113 88.489,146.12 86.408,146.033C85.093,145.978 83.878,145.996 82.757,146.083C81.335,146.193 80.03,146.296 78.845,146.386C78.1,146.442 77.481,146.71 76.772,146.812C76.376,146.869 75.863,146.995 75.231,147.185C74.651,147.358 74.072,147.524 73.49,147.684Z" style="fill:white;fill-opacity:0.25;"/>
    <path d="M163.273,248.082L163.356,240.4L163.369,236.539C163.373,236.336 163.213,236.169 163.013,236.159C157.957,235.896 152.987,234.881 148.111,233.12C144.509,231.892 141.013,230.236 137.632,228.134C137.179,227.852 137.12,227.591 137.26,227.105C141.72,229.655 146.49,231.358 151.566,232.208C152.701,232.398 154.435,232.547 155.967,232.801C156.516,232.891 157.132,232.89 157.811,232.801C160.547,233.203 162.291,233.41 163.043,233.413C165.017,233.426 167.307,233.43 169.91,233.426C170.579,233.426 171.099,233.393 171.475,233.323C172.746,233.09 173.928,233.097 175.359,232.857C186.58,230.977 196.313,226.01 204.558,217.962L207.917,214.21C209.551,212.449 210.942,210.512 212.097,208.398L213.582,206.082C218.202,197.89 220.476,189.059 220.412,179.586C220.398,177.519 220.332,175.571 220.209,173.744C220.585,172.339 220.66,170.721 220.429,168.887C219.514,161.614 216.891,155.246 212.567,149.784C210.097,146.665 207.563,144.22 204.132,140.99C203.662,140.548 202.724,139.848 201.316,138.893C198.407,136.503 195.328,134.419 192.076,132.639C190.674,131.51 188.954,130.521 186.92,129.666C183.978,128.43 181.307,127.493 178.908,126.857C178.764,126.075 179.162,125.547 180.103,125.302C180.209,125.275 180.316,125.276 180.422,125.302C185.612,126.6 190.504,128.564 195.105,131.197C213.472,141.709 224.215,161.681 223.215,182.828C222.843,190.693 220.845,198.253 217.223,205.506L215.07,209.37C213.712,211.587 212.192,213.713 210.513,215.751C210.332,215.971 209.886,216.481 209.381,217.05C208.637,217.889 207.767,218.856 207.434,219.213C206.802,219.895 206.242,220.461 205.76,220.914C197.138,228.986 186.976,233.932 175.269,235.756C173.888,235.973 172.427,236.096 170.886,236.129C170.709,236.133 170.569,236.279 170.569,236.455L170.563,240.403L170.559,247.999L170.546,250.129C170.543,250.562 170.253,250.943 169.837,251.062C168.091,251.559 165.081,251.808 163.503,250.872C163.279,250.739 163.135,250.512 163.11,250.259C163.029,249.457 163.087,248.731 163.273,248.082Z" style="fill:white;fill-opacity:0.5;"/>
    <path d="M192.076,132.639C190.674,131.51 188.954,130.521 186.92,129.666C183.978,128.43 181.307,127.493 178.908,126.857C178.904,127.509 179.234,127.926 179.896,128.108C181.304,128.496 182.663,128.882 183.964,129.273C184.184,129.34 184.3,129.58 184.217,129.796L183.092,132.665L188.065,134.599L189.22,131.89C189.316,131.663 189.582,131.557 189.809,131.653L192.076,132.639Z" style="fill:white;fill-opacity:0.35;"/>
    <path d="M118.899,196.182C118.486,194.824 118.214,193.875 118.08,193.336C116.512,187.014 116.116,180.634 116.918,174.2L118.207,167.609C120.427,168.238 121.064,169.807 122.337,172.09C122.979,173.239 124.081,173.973 125.643,174.287C126.378,174.434 127.84,174.187 128.402,174.07C130.865,173.56 133.355,172.908 135.872,172.12C136.933,171.787 137.894,171.377 138.761,170.901C139.023,170.757 139.054,170.392 138.821,170.206C137.96,169.519 136.936,169.087 135.752,168.901C135.565,168.871 135.382,168.812 135.213,168.728C134.07,168.157 132.969,167.476 133.978,166.008C135.103,164.371 136.421,163.827 138.441,163.046C139.733,162.546 140.368,162.873 141.657,163.528C142.862,164.141 143.842,164.172 144.939,163.319C146.062,162.445 146.879,161.481 147.389,160.433C148.12,158.928 148.738,157.352 149.888,156.445C155.012,152.409 160.33,149.039 160.38,142.714C160.414,138.51 158.889,134.236 155.677,131.4C156.619,131.194 157.847,130.971 159.355,130.731C164.381,129.932 169.356,129.904 174.274,130.671C174.401,130.691 174.657,130.651 175.046,130.548C175.123,130.708 175.226,130.795 175.356,130.811C177.029,131.018 178.608,131.347 180.093,131.816C181.171,132.469 182.223,133.091 183.248,133.684C186.368,135.489 189.133,137.309 191.543,139.143C193.194,140.398 194.688,141.905 195.953,143.27C196.006,143.327 195.973,143.419 195.897,143.43C195.01,143.555 194.116,143.813 193.207,144.182C188.635,146.039 188.732,151.172 188.784,155.257C188.801,156.591 188.866,157.83 188.98,158.975C189.17,160.875 189.333,162.623 188.69,164.321C188.636,164.463 188.551,164.59 188.441,164.693C185.128,167.799 182.021,171.151 180.592,175.571C180.223,176.713 180.179,177.605 180.309,178.807C180.452,180.135 180.639,181.283 180.868,182.245C181.032,182.934 181.491,183.941 182.256,185.264C182.555,185.781 182.803,186.549 182.998,187.571C183.332,189.315 184.044,192.398 185.658,193.42L187.416,194.535C187.745,194.744 187.889,195.151 187.768,195.523C187.576,196.119 187.259,196.792 186.823,197.547C186.158,198.699 185.425,199.93 184.593,201.105C183.411,202.773 182.598,204.074 182.15,205.01C181.433,206.504 181.416,207.94 182.096,209.317C182.861,210.865 183.358,212.406 183.588,213.941C183.618,214.14 183.521,214.337 183.348,214.437L180.336,216.177C180.216,216.247 180.079,216.286 179.939,216.287C179.936,216.287 179.896,216.28 179.823,216.264C179.697,216.236 179.564,216.268 179.457,216.347C179.162,216.565 178.842,216.732 178.498,216.846C177.175,217.289 175.808,218.071 174.381,218.421C173.798,218.564 172.676,218.869 171.009,219.34C169.148,219.864 167.187,220.231 165.12,220.441C164.664,220.488 164.222,220.691 163.769,220.721C160.064,220.965 156.456,220.97 152.944,220.724C152.758,220.711 152.571,220.672 152.395,220.608C152.185,220.532 152.036,220.487 151.949,220.478C149.651,220.231 147.259,219.795 144.776,219.12C144.237,218.973 143.783,218.523 143.125,218.704C142.848,218.78 142.628,218.467 142.792,218.231C144.417,215.895 146.299,213.533 148.67,212.07C150.301,211.064 151.903,210.28 153.264,209.211C154.619,208.146 156.036,207.44 156.952,206.095C158.01,204.54 159.116,201.977 158.836,200.077C158.474,197.623 158.3,195.09 159.099,192.86C159.688,191.216 160.616,189.352 161.888,187.268C162.264,186.652 162.617,185.73 162.284,185.155C161.137,183.17 159.725,181.253 158.163,179.519C156.576,177.758 155.316,176.225 154.382,174.909C154.012,174.387 153.583,174.148 153.021,173.96C150.796,173.219 148.45,172.884 145.981,172.972C143.088,173.074 141.53,173.124 141.307,173.128C139.297,173.163 138.188,173.51 136.867,174.882C135.685,176.11 134.851,177.226 134.367,178.224C133.962,179.06 133.515,179.413 132.829,179.992C131.815,180.848 132.144,183.986 132.307,185.075C132.37,185.501 132.803,186.219 133.608,187.222C133.678,187.308 133.701,187.421 133.675,187.528C133.361,188.802 133.135,189.861 132.989,190.703C132.835,191.592 132.813,192.188 132.919,192.494C133.264,193.492 133.865,194.358 134.723,195.087C135.972,196.148 137.256,197.125 138.571,198.013C140.371,199.229 141.46,200.233 140.771,202.427C140.092,204.594 139.552,205.978 139.53,207.796C139.526,208.082 139.486,208.365 139.41,208.638C138.554,211.694 137.848,214.114 139.184,216.91C139.247,217.043 139.123,217.19 138.981,217.149C138.17,216.918 137.594,216.592 137.26,216.177C137.179,216.078 137.024,216.091 136.96,216.201C136.878,216.341 136.797,216.421 136.727,216.44C136.584,216.479 136.434,216.434 136.334,216.327C135.886,215.844 135.575,215.555 135.396,215.465C132.732,214.124 130.822,212.838 129.66,211.627C126.469,208.301 123.326,204.009 120.274,198.719C120.157,198.516 119.993,198.344 119.788,198.196C119.701,198.133 119.641,198.043 119.618,197.94C119.48,197.321 119.242,196.735 118.899,196.182ZM161.609,155.616C162.054,156.252 162.787,156.329 163.796,155.856C165.733,154.947 167.407,154.132 168.818,153.416C169.784,152.927 170.589,152.681 171.238,152.677C172.963,152.668 174.027,152.748 175.412,152.091C178.097,150.819 182.566,147.026 180.928,143.69C180.766,143.36 180.803,142.968 181.021,142.674C182.002,141.357 184.803,137.691 183.667,136.19C182.726,134.945 181.367,134.29 179.593,134.223C177.496,134.144 174.225,134.043 171.974,134.626C169.741,135.204 167.666,136.059 165.753,137.196C165.277,137.478 164.887,137.854 164.588,138.317C164.528,138.41 164.498,138.52 164.495,138.633C164.472,139.489 164.671,140.261 165.087,140.947C165.307,141.31 165.697,141.562 166.012,141.856C166.125,141.96 166.199,142.099 166.222,142.248L166.488,143.953C166.508,144.076 166.505,144.202 166.482,144.322C166.263,145.428 165.27,146.748 164.831,147.654C164.121,149.118 163.214,150.875 162.095,152.92C161.673,153.69 161.476,154.478 161.499,155.287C161.502,155.406 161.541,155.52 161.609,155.616Z" style="fill:white;fill-opacity:0.95;"/>
    <path d="M99.157,146.982L99.12,131.59C99.12,131.504 99.003,131.477 98.964,131.553C96.606,136.098 94.788,141.077 93.149,146.279C93.117,146.379 93.042,146.462 92.942,146.502C92.769,146.572 92.583,146.599 92.38,146.582C94.24,146.825 96.32,147.347 98.591,148.227C98.608,148.233 98.624,148.227 98.631,148.21L99.157,146.982Z" style="fill:white;fill-opacity:0.75;"/>
    <path d="M155.677,131.4C153.067,131.996 150.507,132.842 147.978,133.9C147.865,133.947 147.758,133.94 147.658,133.877C147.562,134.007 147.488,134.083 147.432,134.107C138.818,137.679 131.067,143.864 125.792,151.575C125.456,152.068 125.09,152.527 124.701,152.95L123.462,155.067C123.446,155.094 123.416,155.104 123.386,155.094L123.279,155.057C123.243,155.044 123.223,155.004 123.236,154.967L123.502,154.192L119.821,154.761C119.694,154.781 119.568,154.761 119.458,154.704L118.39,154.165L118.34,154.135C116.865,153.01 115.247,151.88 113.48,151.622C113.367,151.605 113.264,151.692 113.26,151.805C113.238,152.431 112.956,153.134 112.421,153.909C112.338,154.029 112.385,154.195 112.518,154.255L113.047,154.498C113.267,154.601 113.26,154.916 113.034,155.007C112.47,155.234 111.728,155.096 111.163,155.337C110.643,155.558 110.251,156.018 109.728,156.255C109.429,156.391 108.937,156.684 108.237,157.117C108.145,157.175 108.082,157.271 108.068,157.377C108.005,157.824 108.047,158.16 108.217,158.389C108.572,158.866 108.453,159.581 108.637,160.273C109.134,162.144 109.114,163.864 109.183,165.795C109.186,165.895 109.263,165.978 109.359,165.988C112.76,166.361 116.073,165.159 119.235,163.731C119.338,163.685 119.445,163.785 119.411,163.891L118.207,167.609C120.427,168.238 121.064,169.807 122.337,172.09C122.979,173.239 124.081,173.973 125.643,174.287C126.378,174.434 127.84,174.187 128.402,174.07C130.865,173.56 133.355,172.908 135.872,172.12C136.933,171.787 137.894,171.377 138.761,170.901C139.023,170.757 139.054,170.392 138.821,170.206C137.96,169.519 136.936,169.087 135.752,168.901C135.565,168.871 135.382,168.812 135.213,168.728C134.07,168.157 132.969,167.476 133.978,166.008C135.103,164.371 136.421,163.827 138.441,163.046C139.733,162.546 140.368,162.873 141.657,163.528C142.862,164.141 143.842,164.172 144.939,163.319C146.062,162.445 146.879,161.481 147.389,160.433C148.12,158.928 148.738,157.352 149.888,156.445C155.012,152.409 160.33,149.039 160.38,142.714C160.414,138.51 158.889,134.236 155.677,131.4Z" style="fill:white;fill-opacity:0.75;"/>
    <path d="M144.702,226.067C144.047,225.85 143.44,225.539 142.878,225.125C142.658,224.962 142.503,225.074 142.249,224.925C138.189,222.539 134.467,219.695 131.108,216.36C126.725,212.009 123.217,206.861 120.59,200.909C120.353,200.373 119.902,199.266 119.218,197.597C119.04,197.16 118.932,196.688 118.899,196.182C119.242,196.735 119.48,197.321 119.618,197.94C119.641,198.043 119.701,198.133 119.788,198.196C119.993,198.344 120.157,198.516 120.274,198.719C123.326,204.009 126.469,208.301 129.66,211.627C130.822,212.838 132.732,214.124 135.396,215.465C135.575,215.555 135.886,215.844 136.334,216.327C136.434,216.434 136.584,216.479 136.727,216.44C136.797,216.421 136.878,216.341 136.96,216.201C137.024,216.091 137.179,216.078 137.26,216.177C137.594,216.592 138.17,216.918 138.981,217.149C139.123,217.19 139.247,217.043 139.184,216.91C137.848,214.114 138.554,211.694 139.41,208.638C139.486,208.365 139.526,208.082 139.53,207.796C139.552,205.978 140.092,204.594 140.771,202.427C141.46,200.233 140.371,199.229 138.571,198.013C137.256,197.125 135.972,196.148 134.723,195.087C133.865,194.358 133.264,193.492 132.919,192.494C132.813,192.188 132.835,191.592 132.989,190.703C133.135,189.861 133.361,188.802 133.675,187.528C133.701,187.421 133.678,187.308 133.608,187.222C132.803,186.219 132.37,185.501 132.307,185.075C132.144,183.986 131.815,180.848 132.829,179.992C133.515,179.413 133.962,179.06 134.367,178.224C134.851,177.226 135.685,176.11 136.867,174.882C138.188,173.51 139.297,173.163 141.307,173.128C141.53,173.124 143.088,173.074 145.981,172.972C148.45,172.884 150.796,173.219 153.021,173.96C153.583,174.148 154.012,174.387 154.382,174.909C155.316,176.225 156.576,177.758 158.163,179.519C159.725,181.253 161.137,183.17 162.284,185.155C162.617,185.73 162.264,186.652 161.888,187.268C160.616,189.352 159.688,191.216 159.099,192.86C158.3,195.09 158.474,197.623 158.836,200.077C159.116,201.977 158.01,204.54 156.952,206.095C156.036,207.44 154.619,208.146 153.264,209.211C151.903,210.28 150.301,211.064 148.67,212.07C146.299,213.533 144.417,215.895 142.792,218.231C142.628,218.467 142.848,218.78 143.125,218.704C143.783,218.523 144.237,218.973 144.776,219.12C147.259,219.795 149.651,220.231 151.949,220.478C152.036,220.487 152.185,220.532 152.395,220.608C152.571,220.672 152.758,220.711 152.944,220.724C156.456,220.97 160.064,220.965 163.769,220.721C164.222,220.691 164.664,220.488 165.12,220.441C167.187,220.231 169.148,219.864 171.009,219.34C172.676,218.869 173.798,218.564 174.381,218.421C175.808,218.071 177.175,217.289 178.498,216.846C178.842,216.732 179.162,216.565 179.457,216.347C179.564,216.268 179.697,216.236 179.823,216.264C179.896,216.28 179.936,216.287 179.939,216.287C180.079,216.286 180.216,216.247 180.336,216.177L183.348,214.437C183.521,214.337 183.618,214.14 183.588,213.941C183.358,212.406 182.861,210.865 182.096,209.317C181.416,207.94 181.433,206.504 182.15,205.01C182.598,204.074 183.411,202.773 184.593,201.105C185.425,199.93 186.158,198.699 186.823,197.547C187.259,196.792 187.576,196.119 187.768,195.523C187.889,195.151 187.745,194.744 187.416,194.535L185.658,193.42C184.044,192.398 183.332,189.315 182.998,187.571C182.803,186.549 182.555,185.781 182.256,185.264C181.491,183.941 181.032,182.934 180.868,182.245C180.639,181.283 180.452,180.135 180.309,178.807C180.179,177.605 180.223,176.713 180.592,175.571C182.021,171.151 185.128,167.799 188.441,164.693C188.551,164.59 188.636,164.463 188.69,164.321C189.333,162.623 189.17,160.875 188.98,158.975C188.866,157.83 188.801,156.591 188.784,155.257C188.732,151.172 188.635,146.039 193.207,144.182C194.116,143.813 195.01,143.555 195.897,143.43C195.973,143.419 196.006,143.327 195.953,143.27C194.688,141.905 193.194,140.398 191.543,139.143C189.133,137.309 186.368,135.489 183.248,133.684C182.223,133.091 181.171,132.469 180.093,131.816L183.092,132.665L188.065,134.599C190.172,135.601 191.623,136.339 192.415,136.813C195.576,138.703 198.623,140.93 201.566,143.483C199.692,143.294 197.941,143.269 196.32,143.397C196.187,143.407 196.117,143.56 196.196,143.666C197.26,145.087 198.32,146.602 199.375,148.21C200.284,149.595 200.993,151.202 201.759,152.8C201.811,152.91 201.854,153.023 201.885,153.14C202.07,153.84 202.198,154.255 202.248,154.388C203.423,157.499 204.148,159.571 204.398,160.609C206.697,170.141 206.546,180.373 203.23,189.548C202.485,191.609 202.066,192.797 201.975,193.113C201.639,194.279 201.081,195.189 200.427,196.518C200.026,197.333 199.557,198.145 199.016,198.948C196.831,202.188 194.937,204.772 193.307,206.687C192.765,207.324 192.345,207.766 192.046,208.012C189.398,210.191 186.674,212.233 183.884,214.15C183.734,214.253 183.737,214.476 183.894,214.573C185.156,215.354 188.191,214.313 189.426,213.618C191.819,212.272 193.666,211.32 194.972,210.762C195.541,210.518 196.519,210.253 197.904,209.96C200.59,209.391 203.069,208.315 205.33,206.731C206.483,205.923 207.883,204.351 207.863,203.033C207.846,201.868 207.837,201.035 207.84,200.533C207.843,200.037 208.04,199.614 208.433,199.265C210.226,197.67 211.987,195.989 213.712,194.222C214.547,193.366 215.463,192.83 216.451,192.617C215.29,197.181 213.791,201.123 211.948,204.447C211.229,205.743 210.739,206.661 210.476,207.2L210.1,207.699L206.795,212.273L202.165,217.422C200.144,219.226 198.22,220.781 196.386,222.089C189.929,226.693 182.722,229.582 174.77,230.763C170.746,231.359 167.53,231.556 165.12,231.349C162.607,231.136 160.766,230.95 159.605,230.793C156.286,230.351 152.987,229.505 149.712,228.264L144.702,226.067ZM139.496,217.828C139.794,218.497 140.921,220.741 141.893,219.606C142.14,219.317 142.307,219.037 142.396,218.76C142.473,218.521 142.293,218.28 142.043,218.281C141.394,218.283 140.891,218.119 140.528,217.775C140.188,217.453 139.984,217.432 139.596,217.582C139.5,217.619 139.453,217.732 139.496,217.828Z" style="fill:white;fill-opacity:0.75;"/>
    <path d="M161.609,155.616C162.054,156.252 162.787,156.329 163.796,155.856C165.733,154.947 167.407,154.132 168.818,153.416C169.784,152.927 170.589,152.681 171.238,152.677C172.963,152.668 174.027,152.748 175.412,152.091C178.097,150.819 182.566,147.026 180.928,143.69C180.766,143.36 180.803,142.968 181.021,142.674C182.002,141.357 184.803,137.691 183.667,136.19C182.726,134.945 181.367,134.29 179.593,134.223C177.496,134.144 174.225,134.043 171.974,134.626C169.741,135.204 167.666,136.059 165.753,137.196C165.277,137.478 164.887,137.854 164.588,138.317C164.528,138.41 164.498,138.52 164.495,138.633C164.472,139.489 164.671,140.261 165.087,140.947C165.307,141.31 165.697,141.562 166.012,141.856C166.125,141.96 166.199,142.099 166.222,142.248L166.488,143.953C166.508,144.076 166.505,144.202 166.482,144.322C166.263,145.428 165.27,146.748 164.831,147.654C164.121,149.118 163.214,150.875 162.095,152.92C161.673,153.69 161.476,154.478 161.499,155.287C161.502,155.406 161.541,155.52 161.609,155.616Z" style="fill:white;fill-opacity:0.75;"/>
    <path d="M258.156,192.398C259.863,192.707 261.528,192.794 263.155,192.657C265.808,192.435 268.284,191.788 270.582,190.72C272.272,189.934 274.486,188.404 275.628,187.411C277.595,185.701 279.277,183.585 280.684,181.067C281.365,179.848 281.848,178.9 282.132,178.221C282.175,178.118 282.212,178.011 282.242,177.901C282.435,177.189 282.656,176.602 282.911,176.144C282.97,176.037 283.011,175.924 283.034,175.808L283.337,174.213C283.347,174.163 283.363,174.117 283.39,174.073C283.605,173.727 283.812,173.038 284.003,172.003C284.42,169.736 284.762,168.331 284.645,167.04C284.629,166.867 284.643,166.697 284.682,166.531C284.874,165.707 285.008,165.076 284.881,164.164C284.848,163.924 284.854,163.618 284.901,163.245C284.963,162.763 284.851,161.407 284.548,159.175C284.519,158.958 284.434,158.652 284.292,158.256C283.579,156.27 282.978,154.373 280.677,153.939C279.982,153.807 279.376,153.805 278.866,153.929C278.757,153.955 278.65,153.875 278.643,153.762C278.581,152.584 278.345,151.558 277.918,150.686C277.194,149.208 275.88,147.761 274.203,146.745C272.495,145.711 270.921,144.93 269.48,144.402C264.485,142.571 260.938,141.228 258.855,140.338C258.731,140.285 258.602,140.244 258.469,140.221C257.334,140.024 256.358,139.528 255.256,139.333C253.885,139.089 252.893,138.923 252.284,138.827C251.588,138.717 250.957,138.9 250.3,138.753C250.071,138.702 249.837,138.697 249.608,138.733C248.087,138.976 246.683,139.114 245.134,139.915C242.885,141.078 241.184,143.314 240.101,145.637C239.007,147.984 238.201,150.387 237.691,152.85C238.24,152.231 238.759,151.651 239.252,151.109C241.104,149.074 243.276,147.384 245.787,146.08C245.923,146.009 246.089,146.07 246.149,146.213L247.348,149.172C248.403,151.785 249.082,154.378 249.385,156.954C249.601,158.792 249.401,161.116 248.196,162.793C248.151,162.857 248.207,162.943 248.283,162.933C250.273,162.651 252.234,162.164 254.178,161.541C254.521,161.431 254.891,161.262 255.293,161.029C255.396,160.969 255.523,161.059 255.499,161.175C255.19,162.726 254.714,164.171 254.065,165.509C253.409,166.86 252.303,168.191 250.786,168.628C250.68,168.658 250.645,168.796 250.726,168.874C250.992,169.131 251.315,169.294 251.678,169.377C254.366,169.986 255.618,170.357 257.68,169.846C257.77,169.824 257.853,169.903 257.836,169.996C257.597,171.353 257.418,172.393 257.294,173.115C257.069,174.423 256.494,175.66 255.985,176.923C255.949,177.013 255.949,177.109 255.979,177.216C256.012,177.332 256.132,177.405 256.252,177.382C258.359,176.973 259.624,176.626 261.381,177.009C263.861,177.551 264.778,180.295 264.78,182.575C264.783,186.599 261.121,187.892 257.723,187.588C257.52,187.57 257.35,187.731 257.357,187.934C257.41,189.562 257.676,191.05 258.156,192.398Z" style="fill:white;fill-opacity:0.25;"/>
    <path d="M220.209,173.744C220.585,172.339 220.66,170.721 220.429,168.887C219.514,161.614 216.891,155.246 212.567,149.784C210.097,146.665 207.563,144.22 204.132,140.99C203.662,140.548 202.724,139.848 201.316,138.893C204.005,141.43 205.807,143.21 206.715,144.232C212.284,150.501 216.179,157.56 218.412,165.399C219.018,167.526 219.617,170.305 220.209,173.744Z" style="fill:white;fill-opacity:0.4;"/>
    <path d="M201.566,143.483C199.692,143.294 197.941,143.269 196.32,143.397C196.187,143.407 196.117,143.56 196.196,143.666C197.26,145.087 198.32,146.602 199.375,148.21C200.284,149.595 200.993,151.202 201.759,152.8C201.811,152.91 201.854,153.023 201.885,153.14C202.07,153.84 202.198,154.255 202.248,154.388C203.423,157.499 204.148,159.571 204.398,160.609C206.697,170.141 206.546,180.373 203.23,189.548C202.485,191.609 202.066,192.797 201.975,193.113C201.639,194.279 201.081,195.189 200.427,196.518C200.026,197.333 199.557,198.145 199.016,198.948C196.831,202.188 194.937,204.772 193.307,206.687C192.765,207.324 192.345,207.766 192.046,208.012C189.398,210.191 186.674,212.233 183.884,214.15C183.734,214.253 183.737,214.476 183.894,214.573C185.156,215.354 188.191,214.313 189.426,213.618C191.819,212.272 193.666,211.32 194.972,210.762C195.541,210.518 196.519,210.253 197.904,209.96C200.59,209.391 203.069,208.315 205.33,206.731C206.483,205.923 207.883,204.351 207.863,203.033C207.846,201.868 207.837,201.035 207.84,200.533C207.843,200.037 208.04,199.614 208.433,199.265C210.226,197.67 211.987,195.989 213.712,194.222C214.547,193.366 215.463,192.83 216.451,192.617C217.759,187.009 218.142,181.393 217.6,175.778C216.631,165.755 212.937,156.773 206.522,148.832C204.707,146.586 203.053,144.801 201.566,143.483Z" style="fill:white;fill-opacity:0.6;"/>
    <path d="M237.691,152.85L235.631,155.969C235.564,156.069 235.572,156.198 235.647,156.289C236,156.709 236.098,157.32 235.957,158.116C235.741,159.33 235.238,160.239 234.443,160.839C234.156,161.055 233.743,160.892 233.68,160.539L233.65,160.369C233.644,160.326 233.61,160.29 233.567,160.273L233.481,160.243C233.371,160.203 233.253,160.29 233.258,160.406C233.277,160.972 232.969,161.155 232.805,161.525C231.448,164.577 230.388,167.726 229.646,170.978C231.24,172.033 232.762,172.745 234.21,173.112C234.642,172.609 235.011,172.113 235.315,171.624C235.883,170.708 236.533,169.763 235.341,169.164C234.652,168.817 234.256,168.627 234.15,168.595C234.073,168.571 234.004,168.53 233.95,168.471C233.332,167.805 233.195,167.127 233.584,166.398C234.492,164.691 235.8,162.786 237.515,160.692C240.697,156.807 243.976,152.97 247.348,149.172L246.149,146.213C246.089,146.07 245.923,146.009 245.787,146.08C243.276,147.384 241.104,149.074 239.252,151.109C238.759,151.651 238.24,152.231 237.691,152.85Z" style="fill:white;fill-opacity:0.75;"/>
    <path d="M262.576,198.612C262.559,198.872 262.403,199.088 262.11,199.265C259.011,201.132 255.703,202.354 252.177,202.926C251.658,201.977 250.647,200.36 249.142,198.08C248.806,197.57 248.379,197.373 247.857,197.49C247.74,197.517 247.636,197.59 247.567,197.69C247.193,198.236 246.785,198.619 246.322,198.825C245.816,198.366 245.27,197.947 244.688,197.564C244.268,197.288 243.863,197.297 243.47,197.597L243.303,197.723L241.184,199.327C240.36,198.836 239.694,198.257 239.192,197.59L240.291,197.48C240.387,197.47 240.477,197.427 240.541,197.357C241.377,196.43 241.659,195.347 241.383,194.112C240.93,192.088 239.614,189.849 237.954,188.463C237.495,188.08 236.553,187.637 235.132,187.138C233.907,186.709 232.698,186.236 231.51,185.724L231.67,185.331C231.706,185.238 231.703,185.131 231.66,185.041C231.559,184.829 231.477,184.529 231.407,184.146C231.04,182.136 231.152,180.185 231.74,178.298C231.923,177.708 232.116,177.113 232.322,176.507C234.136,176.89 235.877,176.733 237.541,176.037C238.171,175.774 239.237,174.938 238.763,174.14C238.494,173.687 238.051,173.452 237.435,173.434C236.453,173.406 235.378,173.295 234.21,173.112C234.642,172.609 235.011,172.113 235.315,171.624C235.883,170.708 236.533,169.763 235.341,169.164C234.652,168.817 234.256,168.627 234.15,168.595C234.073,168.571 234.004,168.53 233.95,168.471C233.332,167.805 233.195,167.127 233.584,166.398C234.492,164.691 235.8,162.786 237.515,160.692C240.697,156.807 243.976,152.97 247.348,149.172C248.403,151.785 249.082,154.378 249.385,156.954C249.601,158.792 249.401,161.116 248.196,162.793C248.151,162.857 248.207,162.943 248.283,162.933C250.273,162.651 252.234,162.164 254.178,161.541C254.521,161.431 254.891,161.262 255.293,161.029C255.396,160.969 255.523,161.059 255.499,161.175C255.19,162.726 254.714,164.171 254.065,165.509C253.409,166.86 252.303,168.191 250.786,168.628C250.68,168.658 250.645,168.796 250.726,168.874C250.992,169.131 251.315,169.294 251.678,169.377C254.366,169.986 255.618,170.357 257.68,169.846C257.77,169.824 257.853,169.903 257.836,169.996C257.597,171.353 257.418,172.393 257.294,173.115C257.069,174.423 256.494,175.66 255.985,176.923C255.949,177.013 255.949,177.109 255.979,177.216C256.012,177.332 256.132,177.405 256.252,177.382C258.359,176.973 259.624,176.626 261.381,177.009C263.861,177.551 264.778,180.295 264.78,182.575C264.783,186.599 261.121,187.892 257.723,187.588C257.52,187.57 257.35,187.731 257.357,187.934C257.41,189.562 257.676,191.05 258.156,192.398C258.958,195.127 260.429,197.198 262.576,198.612ZM243.872,162.281C243.287,162.08 242.455,162.953 242.013,164.235C241.572,165.516 241.689,166.717 242.275,166.92C242.861,167.12 243.693,166.248 244.134,164.965C244.575,163.685 244.458,162.483 243.872,162.281Z" style="fill:white;fill-opacity:0.95;"/>
    <path d="M61.443,175.611C60.814,177.329 60.724,179.123 61.167,180.997C61.686,181.809 62.458,182.821 63.48,184.033C64.202,184.888 64.731,185.98 65.191,187.258C66.957,192.165 69.279,196.179 74.328,198.293C75.969,198.832 77.804,199.761 79.098,200.177C81.212,200.856 83.382,201.163 85.606,201.109C87.17,201.07 88.486,200.527 89.557,199.484C90.012,199.041 90.265,198.542 90.309,197.986C90.436,196.395 89.528,194.69 88.625,192.917C88.569,192.807 88.54,192.68 88.548,192.557C88.551,192.514 88.551,192.477 88.555,192.444C88.564,192.358 88.492,192.281 88.405,192.288L87.849,192.338C85.363,193.187 83.005,192.809 80.783,191.193C79.787,190.468 77.41,187.594 78.812,186.366C79.196,186.031 79.664,186.031 80.22,186.373C80.899,186.79 81.642,187.247 82.45,187.751C83.663,188.508 85.1,189.056 86.761,189.392C85.376,187.441 84.385,185.436 83.712,183.404C83.68,183.307 83.682,183.201 83.719,183.107C83.865,182.735 84.106,182.471 84.448,182.325C84.527,182.291 84.617,182.285 84.7,182.305L86.285,182.691C86.385,182.715 86.488,182.702 86.578,182.651C87.863,181.929 87.979,181.166 88.532,179.582C88.565,179.486 88.592,179.386 88.608,179.286C89.215,175.615 89.069,171.77 88.668,168.352C88.638,168.095 88.696,167.903 88.831,167.769C88.898,167.703 88.899,167.595 88.828,167.529C88.716,167.425 88.558,167.346 88.359,167.286C85.09,166.701 81.943,165.55 78.922,163.835C76.421,162.415 74.255,161.033 72.418,159.69C71.389,158.939 70.344,158.466 69.652,159.807C67.549,163.878 65.968,168.198 64.918,172.762C64.538,174.416 63.857,174.283 62.525,174.679C62.156,174.789 61.796,175.102 61.443,175.611ZM80.405,174.121C79.787,174.047 79.155,175.105 78.99,176.487C78.825,177.868 79.192,179.046 79.809,179.119C80.427,179.193 81.059,178.134 81.224,176.753C81.388,175.372 81.022,174.193 80.405,174.121Z" style="fill:white;fill-opacity:0.9;"/>
    <path d="M243.872,162.281C243.287,162.08 242.455,162.953 242.013,164.235C241.572,165.516 241.689,166.717 242.275,166.92C242.861,167.12 243.693,166.248 244.134,164.965C244.575,163.685 244.458,162.483 243.872,162.281Z" style="fill:white;fill-opacity:0.15;"/>
    <path d="M92.796,202.417C92.336,203.812 92.177,204.913 90.928,206.008C87.966,208.608 83.911,209.083 80.213,207.813C79.295,207.497 78.504,206.785 77.82,205.692C77.797,205.655 77.777,205.612 77.764,205.569L77.241,203.918C76.908,202.151 75.76,200.08 74.695,198.802L74.328,198.293C75.969,198.832 77.804,199.761 79.098,200.177C81.212,200.856 83.382,201.163 85.606,201.109C87.17,201.07 88.486,200.527 89.557,199.484C90.012,199.041 90.265,198.542 90.309,197.986C90.436,196.395 89.528,194.69 88.625,192.917C88.569,192.807 88.54,192.68 88.548,192.557C88.551,192.514 88.551,192.477 88.555,192.444C88.564,192.358 88.492,192.281 88.405,192.288L87.849,192.338C88.648,191.978 89.077,191.609 89.134,191.229C89.256,190.427 88.924,189.931 88.136,189.748C87.506,189.602 87.05,189.482 86.761,189.392C85.376,187.441 84.385,185.436 83.712,183.404C83.68,183.307 83.682,183.201 83.719,183.107C83.865,182.735 84.106,182.471 84.448,182.325C84.527,182.291 84.617,182.285 84.7,182.305L86.285,182.691C86.385,182.715 86.488,182.702 86.578,182.651C87.863,181.929 87.979,181.166 88.532,179.582C88.565,179.486 88.592,179.386 88.608,179.286C89.215,175.615 89.069,171.77 88.668,168.352C88.638,168.095 88.696,167.903 88.831,167.769C88.898,167.703 88.899,167.595 88.828,167.529C88.716,167.425 88.558,167.346 88.359,167.286C91.218,167.563 93.332,167.655 94.7,167.566C96.51,167.448 98.218,167.535 99.822,167.819C100.761,167.985 101.592,168.426 102.319,169.14C103.685,170.484 104.05,172.15 104.146,174.034C104.168,174.46 104.06,175.278 103.823,176.487C103.38,178.753 103.179,180.731 103.218,182.418C103.235,183.157 103.428,184.396 103.797,186.13C104.593,189.868 101.64,193.763 98.737,195.919C97.742,196.658 96.491,197.444 94.979,198.279L92.609,199.165C92.43,199.231 92.323,199.414 92.353,199.601L92.796,202.417ZM91.916,176.15C91.321,176.081 90.712,177.136 90.556,178.501C90.399,179.869 90.755,181.03 91.352,181.098C91.947,181.167 92.556,180.112 92.712,178.747C92.869,177.379 92.513,176.217 91.916,176.15Z" style="fill:white;fill-opacity:0.75;"/>
    <path d="M229.646,170.978C228.917,171.001 228.502,171.155 228.394,171.444C228.077,172.3 228.311,173.288 229.107,174.413C229.912,175.475 230.984,176.171 232.322,176.507C234.136,176.89 235.877,176.733 237.541,176.037C238.171,175.774 239.237,174.938 238.763,174.14C238.494,173.687 238.051,173.452 237.435,173.434C236.453,173.406 235.378,173.295 234.21,173.112C232.762,172.745 231.24,172.033 229.646,170.978Z" style="fill:white;fill-opacity:0.15;"/>
    <path d="M126.561,228.177C126.385,227.724 126.501,227.1 126.921,226.306C126.997,226.163 127.017,226 126.984,225.844C126.631,224.17 125.233,222.509 123.765,220.328C121.854,217.489 120.157,214.496 118.376,211.953C117.964,211.364 117.309,210.501 116.412,209.367C115.644,208.395 114.674,207.75 113.906,207.004C111.733,204.892 108.44,203.493 105.511,202.75C103.181,202.158 101.946,201.784 99.809,201.838C99.526,201.845 99.14,201.695 98.821,201.721C96.887,201.88 95.092,201.811 92.796,202.417L92.353,199.601C92.323,199.414 92.43,199.231 92.609,199.165L94.979,198.279C95.139,198.502 95.436,198.537 95.865,198.386C96.275,198.241 96.577,198.178 96.773,198.203C97.516,198.297 108.747,195.966 108.747,195.966C108.806,195.936 108.87,195.919 108.933,195.909C110.805,195.629 112.981,194.729 113.297,192.711C113.3,192.687 113.303,192.667 113.3,192.644L113.094,190.88C113.08,190.77 113.04,190.667 112.974,190.577C112.546,189.988 111.84,188.992 110.844,187.598C110.059,186.499 109.326,184.961 108.65,182.981C108.298,181.949 108.127,181.01 108.137,180.165C108.201,180.621 108.354,180.834 108.597,180.797C110.358,180.53 111.726,179.659 112.701,178.184C113.563,176.88 114.109,175.615 114.339,174.393C114.562,173.894 115.138,173.73 116.066,173.917C116.163,173.937 116.253,173.983 116.326,174.054C116.523,174.243 116.719,174.29 116.918,174.2C116.116,180.634 116.512,187.014 118.08,193.336C118.214,193.875 118.486,194.824 118.899,196.182C118.932,196.688 119.04,197.16 119.218,197.597C119.902,199.266 120.353,200.373 120.59,200.909C123.217,206.861 126.725,212.009 131.108,216.36C134.467,219.695 138.189,222.539 142.249,224.925C142.503,225.074 142.658,224.962 142.878,225.125C143.44,225.539 144.047,225.85 144.702,226.067L143.967,227.927C143.907,228.084 143.737,228.167 143.577,228.124C143.365,228.067 143.148,227.973 142.925,227.844C141.736,227.158 140.605,226.54 139.54,225.984C138.624,225.505 136.644,225.637 137.26,227.105C137.12,227.591 137.179,227.852 137.632,228.134C141.013,230.236 144.509,231.892 148.111,233.12L148.271,240.403L144.323,240.56C144.027,238.572 143.078,237.054 141.477,236.006C138.635,234.145 134.496,233.771 131.065,234.312C130.952,234.33 130.842,234.282 130.775,234.189L126.561,228.177Z" style="fill:white;fill-opacity:0.5;"/>
    <path d="M108.137,180.165C108.201,180.621 108.354,180.834 108.597,180.797C110.358,180.53 111.726,179.659 112.701,178.184C113.563,176.88 114.109,175.615 114.339,174.393L108.171,174.17C108.044,174.163 107.947,174.283 107.974,174.406C108.027,174.649 108.137,180.165 108.137,180.165Z" style="fill:white;fill-opacity:0.75;"/>
    <path d="M87.849,192.338C88.648,191.978 89.077,191.609 89.134,191.229C89.256,190.427 88.924,189.931 88.136,189.748C87.506,189.602 87.05,189.482 86.761,189.392C85.1,189.056 83.663,188.508 82.45,187.751C81.642,187.247 80.899,186.79 80.22,186.373C79.664,186.031 79.196,186.031 78.812,186.366C77.41,187.594 79.787,190.468 80.783,191.193C83.005,192.809 85.363,193.187 87.849,192.338Z" style="fill:white;fill-opacity:0.15;"/>
    <path d="M80.405,174.121C79.787,174.047 79.155,175.105 78.99,176.487C78.825,177.868 79.192,179.046 79.809,179.119C80.427,179.193 81.059,178.134 81.224,176.753C81.388,175.372 81.022,174.193 80.405,174.121Z" style="fill:white;fill-opacity:0.15;"/>
    <path d="M91.916,176.15C91.321,176.081 90.712,177.136 90.556,178.501C90.399,179.869 90.755,181.03 91.352,181.098C91.947,181.167 92.556,180.112 92.712,178.747C92.869,177.379 92.513,176.217 91.916,176.15Z" style="fill:white;fill-opacity:0.15;"/>
    <path d="M229.107,174.413C228.82,176.154 228.724,177.741 228.81,179.183C228.852,179.879 228.948,180.563 229.093,181.24C229.131,181.416 229.271,181.902 229.513,182.701C229.877,183.903 230.541,184.908 231.51,185.724L231.67,185.331C231.706,185.238 231.703,185.131 231.66,185.041C231.559,184.829 231.477,184.529 231.407,184.146C231.04,182.136 231.152,180.185 231.74,178.298C231.923,177.708 232.116,177.113 232.322,176.507C230.984,176.171 229.912,175.475 229.107,174.413Z" style="fill:white;fill-opacity:0.75;"/>
    <path d="M61.167,180.997C61.017,181.3 59.549,195.796 59.549,195.796C59.606,196.156 59.835,196.469 60.165,196.628C60.89,196.979 61.789,197.277 62.858,197.52C66.736,198.402 70.684,198.829 74.695,198.802L74.328,198.293C69.279,196.179 66.957,192.165 65.191,187.258C64.731,185.98 64.202,184.888 63.48,184.033C62.458,182.821 61.686,181.809 61.167,180.997Z" style="fill:white;fill-opacity:0.25;"/>
    <path d="M217.223,205.506L215.07,209.37L224.254,212.376C224.566,212.476 224.815,212.716 224.929,213.025C225.174,213.691 225.618,214.263 226.257,214.743L246.322,198.825C245.816,198.366 245.27,197.947 244.688,197.564C244.268,197.288 243.863,197.297 243.47,197.597L243.303,197.723L241.184,199.327C236.61,202.786 226.849,210.141 226.71,209.966C226.557,209.942 226.427,209.886 226.322,209.797C226.27,209.753 226.224,209.701 226.184,209.64C225.172,208.112 223.81,207.202 221.973,206.578C221.867,206.542 220.617,206.08 219.623,205.676L217.223,205.506Z" style="fill:white;fill-opacity:0.85;"/>
    <path d="M212.097,208.398L213.582,206.082C212.334,206.135 211.299,206.508 210.476,207.2L210.1,207.699L212.097,208.398Z" style="fill:white;fill-opacity:0.85;"/>
    <path d="M252.177,202.926C255.563,208.115 258.995,213.243 262.45,218.331C262.973,219.102 263.412,219.885 263.764,220.678C263.938,221.067 263.811,221.527 263.462,221.773C263.462,221.773 259.664,224.4 255.925,227.009L254.862,227.75C253.823,228.477 252.818,229.182 251.932,229.806L251.729,229.949C250.138,231.072 248.971,231.91 248.759,232.098C248.696,232.155 248.543,232.175 248.3,232.162C250.22,229.139 251.794,226.539 251.991,222.938C252.187,219.353 250.229,215.511 246.968,213.934C246.147,213.537 245.444,213.354 244.861,213.388C243.233,213.483 241.869,215.429 241.359,216.8C240.625,218.774 239.891,220.504 239.159,221.996C237.983,224.392 236.393,226.323 234.379,227.788C233.674,227.481 233.884,227.155 233.507,226.713C233.271,226.436 233.131,226.253 233.088,226.163C232.938,225.851 232.795,225.554 232.652,225.278C232.615,225.208 232.57,225.144 232.519,225.082C232.216,224.713 231.937,224.27 231.713,223.727C231.676,223.637 231.626,223.551 231.563,223.474C231.396,223.268 231.303,223.145 231.28,223.108C229.463,220.057 227.878,217.216 226.257,214.743L246.322,198.825C246.785,198.619 247.193,198.236 247.567,197.69C247.636,197.59 247.74,197.517 247.857,197.49C248.379,197.373 248.806,197.57 249.142,198.08C250.647,200.36 251.658,201.977 252.177,202.926Z" style="fill:white;fill-opacity:0.5;"/>
    <path d="M276.903,217.712C276.926,220.631 276.693,223.454 276.197,226.183C275.974,227.425 275.698,228.723 274.553,229.276C274.28,229.407 273.73,230.091 271.788,230.387C271.424,230.443 271.011,230.484 270.542,230.507C268.688,230.594 265.955,230.372 261.891,229.459C259.576,228.939 257.506,228.005 255.925,227.009L263.462,221.773C263.811,221.527 263.938,221.067 263.764,220.678C263.412,219.885 262.973,219.102 262.45,218.331C258.995,213.243 255.563,208.115 252.177,202.926C255.703,202.354 259.011,201.132 262.11,199.265C262.403,199.088 262.559,198.872 262.576,198.612C264.021,199.374 265.476,200.116 266.94,200.846C268.758,201.751 270.577,202.76 271.98,204.191C274.425,206.686 275.931,209.687 276.496,213.195L276.903,217.712Z" style="fill:white;fill-opacity:0.75;"/>
    <path d="M239.192,197.59C237.728,197.71 235.824,197.795 233.477,197.843C228.062,197.954 222.962,201.658 219.623,205.676C220.617,206.08 221.867,206.542 221.973,206.578C223.81,207.202 225.172,208.112 226.184,209.64C226.204,209.67 226.253,209.726 226.322,209.797C226.427,209.886 226.557,209.942 226.71,209.966C226.849,210.141 236.61,202.786 241.184,199.327C240.36,198.836 239.694,198.257 239.192,197.59Z" style="fill:white;fill-opacity:0.75;"/>
    <path d="M1.122,277.241L48.159,241.129C48.182,241.112 48.205,241.096 48.232,241.086L49.68,240.5C49.846,240.433 50.023,240.4 50.202,240.4L58.364,240.4C58.494,240.4 58.584,240.267 58.534,240.147C58.354,239.711 58.195,239.208 58.051,238.646C57.352,235.893 56.8,233.117 56.39,230.321C56.254,229.392 56.174,228.563 56.151,227.841C56.111,226.503 55.964,225.651 56.048,224.526C56.124,223.467 56.164,222.119 56.174,220.481C56.174,220.322 56.201,220.162 56.251,220.012L56.993,217.745C57.589,216.157 58.534,214.643 59.829,213.195C61.676,211.081 63.724,209.571 65.967,208.665C68.783,207.527 71.612,206.419 74.428,205.266C74.532,205.224 75.041,205.068 75.953,204.797C76.619,204.598 77.048,204.304 77.241,203.918L77.764,205.569C77.777,205.612 77.797,205.655 77.82,205.692C78.504,206.785 79.295,207.497 80.213,207.813C83.911,209.083 87.966,208.608 90.928,206.008C92.177,204.913 92.336,203.812 92.796,202.417C95.092,201.811 96.887,201.88 98.821,201.721C99.14,201.695 99.526,201.845 99.809,201.838C101.946,201.784 103.181,202.158 105.511,202.75C108.44,203.493 111.733,204.892 113.906,207.004C114.674,207.75 115.644,208.395 116.412,209.367C117.309,210.501 117.964,211.364 118.376,211.953C120.157,214.496 121.854,217.489 123.765,220.328C125.233,222.509 126.631,224.17 126.984,225.844C127.017,226 126.997,226.163 126.921,226.306C126.501,227.1 126.385,227.724 126.561,228.177C126.192,228.893 125.845,229.591 125.523,230.274C125.156,231.053 124.656,231.482 124.268,232.105C123.657,233.086 121.938,234.642 121.395,235.124C121.323,235.188 121.318,235.298 121.382,235.37C121.588,235.6 121.665,235.92 121.602,236.336C121.582,236.465 121.622,236.595 121.705,236.698L121.875,236.905C121.948,236.991 121.921,237.125 121.821,237.174L118.809,238.706C118.469,238.875 118.1,238.976 117.721,238.999C113.281,239.263 108.653,238.935 101.823,238.652C100.438,238.595 98.697,238.373 97.06,238.21C96.098,238.113 95.406,237.96 94.983,237.744C87.167,233.752 79.813,229.118 72.944,223.803C72.811,223.7 72.625,223.688 72.478,223.777C71.567,224.326 70.984,225.049 70.294,225.787C67.638,228.63 65.519,231.543 63.94,234.532C63.634,235.111 63.411,235.884 63.264,236.845C63.238,237.015 63.284,237.191 63.394,237.321L65.371,239.714C65.444,239.804 65.527,239.884 65.617,239.957C69.229,242.864 72.626,244.404 77.261,246.604C79.108,247.481 80.659,248.153 81.914,248.622C85.579,249.991 87.889,250.999 91.038,251.351C95.721,251.875 100.511,251.845 105.411,251.268C109.462,250.79 113.969,250.107 118.929,249.217C122.953,248.496 126.561,247.568 129.737,246.408C129.927,246.339 130.123,246.298 130.323,246.288C130.839,246.262 131.178,246.261 131.338,246.288C132.547,246.492 134.154,246.738 136.161,247.014C140.445,247.603 145.335,245.972 144.323,240.56L148.271,240.403L163.356,240.4L163.273,248.082C157.877,248.066 152.449,248.484 146.986,249.331C145.671,249.534 144.559,250.003 143.651,250.739C142.572,251.421 141.904,252.472 141.657,253.894C141.553,254.493 141.78,254.878 142.339,255.049C144.378,255.673 146.507,256.121 148.73,256.377C152.874,256.854 157.062,257.136 161.286,257.216C163.306,257.254 165.966,257.486 168.286,257.376C170.39,257.276 171.831,257.223 172.613,257.216C175.995,257.187 179.6,256.971 183.428,256.574C186.084,256.298 188.415,255.913 190.418,255.405C190.691,255.336 191.216,255.1 192.009,254.72C192.102,254.675 192.162,254.58 192.165,254.473C192.202,253.232 191.812,252.237 191.004,251.484C190.511,251.025 190.162,250.649 189.952,250.356C188.288,249.647 186.334,249.171 184.09,248.931C178.891,248.376 174.381,248.062 170.559,247.999L170.563,240.403L298.009,240.4C298.156,240.4 299.89,240.347 299.89,240.64C283.956,252.886 268.048,265.165 252.094,277.381C251.898,277.531 251.519,277.742 250.953,278.003C250.873,278.04 250.786,278.06 250.7,278.06L0.839,278.057C0.666,278.057 0.599,277.834 0.742,277.737C0.905,277.627 1.032,277.464 1.122,277.241Z" style="fill:white;fill-opacity:0.35;"/>
    <path d="M207.917,214.21C209.551,212.449 210.942,210.512 212.097,208.398L210.1,207.699L206.795,212.273L207.917,214.21Z" style="fill:white;fill-opacity:0.25;"/>
    <path d="M215.07,209.37C213.712,211.587 212.192,213.713 210.513,215.751C210.332,215.971 209.886,216.481 209.381,217.05C210.476,218.514 212.522,221.067 213.512,222.702L216.571,227.355C216.728,227.595 216.961,227.774 217.227,227.871L227.659,231.572C227.729,231.596 227.795,231.533 227.772,231.463C227.165,229.605 224.919,223.897 227.229,223.234C227.832,223.061 228.29,223.245 228.611,223.783C229.135,224.666 229.695,225.852 230.302,227.335C230.464,227.732 230.714,228.074 231.041,228.37C231.125,228.446 231.234,228.489 231.347,228.497C232.316,228.56 233.324,228.33 234.379,227.788C233.674,227.481 233.884,227.155 233.507,226.713C233.271,226.436 233.131,226.253 233.088,226.163C232.938,225.851 232.795,225.554 232.652,225.278C232.615,225.208 232.57,225.144 232.519,225.082C232.216,224.713 231.937,224.27 231.713,223.727C231.676,223.637 231.626,223.551 231.563,223.474C231.396,223.268 231.303,223.145 231.28,223.108C229.463,220.057 227.878,217.216 226.257,214.743C225.618,214.263 225.174,213.691 224.929,213.025C224.815,212.716 224.566,212.476 224.254,212.376L215.07,209.37Z" style="fill:white;fill-opacity:0.25;"/>
    <path d="M204.558,217.962L207.917,214.21L206.795,212.273L202.165,217.422L204.558,217.962Z" style="fill:white;fill-opacity:0.15;"/>
    <path d="M215.361,240.402L241.63,240.401C244.118,238.327 246.395,234.67 248.3,232.162C250.22,229.139 251.794,226.539 251.991,222.938C252.187,219.353 250.229,215.511 246.968,213.934C246.147,213.537 245.444,213.354 244.861,213.388C243.233,213.483 241.869,215.429 241.359,216.8C240.625,218.774 239.891,220.504 239.159,221.996C237.983,224.392 236.393,226.323 234.379,227.788C233.324,228.33 232.316,228.56 231.347,228.497C231.234,228.489 231.125,228.446 231.041,228.37C230.714,228.074 230.464,227.732 230.302,227.335C229.695,225.852 229.135,224.666 228.611,223.783C228.29,223.245 227.832,223.061 227.229,223.234C224.919,223.897 227.165,229.605 227.772,231.463C227.795,231.533 227.729,231.596 227.659,231.572L217.227,227.871C216.961,227.774 216.728,227.595 216.571,227.355L213.512,222.702C213.518,228.064 213.726,235.056 215.361,240.402Z" style="fill:white;fill-opacity:0.85;"/>
    <path d="M139.496,217.828C139.794,218.497 140.921,220.741 141.893,219.606C142.14,219.317 142.307,219.037 142.396,218.76C142.473,218.521 142.293,218.28 142.043,218.281C141.394,218.283 140.891,218.119 140.528,217.775C140.188,217.453 139.984,217.432 139.596,217.582C139.5,217.619 139.453,217.732 139.496,217.828Z" style="fill:white;fill-opacity:0.65;"/>
    <path d="M126.561,228.177C126.192,228.893 125.845,229.591 125.523,230.274C125.156,231.053 124.656,231.482 124.268,232.105C123.657,233.086 121.938,234.642 121.395,235.124C121.323,235.188 121.318,235.298 121.382,235.37C121.588,235.6 121.665,235.92 121.602,236.336C121.582,236.465 121.622,236.595 121.705,236.698L121.875,236.905C121.948,236.991 121.921,237.125 121.821,237.174L118.809,238.706C118.469,238.875 118.1,238.976 117.721,238.999C113.281,239.263 108.653,238.935 101.823,238.652C100.438,238.595 98.697,238.373 97.06,238.21C96.098,238.113 95.406,237.96 94.983,237.744C87.167,233.752 79.813,229.118 72.944,223.803C72.811,223.7 72.625,223.688 72.478,223.777C71.567,224.326 70.984,225.049 70.294,225.787C67.638,228.63 65.519,231.543 63.94,234.532C63.634,235.111 63.411,235.884 63.264,236.845C63.238,237.015 63.284,237.191 63.394,237.321L65.371,239.714C65.444,239.804 65.527,239.884 65.617,239.957C69.229,242.864 72.626,244.404 77.261,246.604C79.108,247.481 80.659,248.153 81.914,248.622C85.579,249.991 87.889,250.999 91.038,251.351C95.721,251.875 100.511,251.845 105.411,251.268C109.462,250.79 113.969,250.107 118.929,249.217C122.953,248.496 126.561,247.568 129.737,246.408C129.927,246.339 130.123,246.298 130.323,246.288C130.839,246.262 131.178,246.261 131.338,246.288C132.547,246.492 134.154,246.738 136.161,247.014C140.445,247.603 145.335,245.972 144.323,240.56C144.027,238.572 143.078,237.054 141.477,236.006C138.635,234.145 134.496,233.771 131.065,234.312C130.952,234.33 130.842,234.282 130.775,234.189L126.561,228.177Z" style="fill:white;fill-opacity:0.85;"/>
    <path d="M144.702,226.067L143.967,227.927C143.907,228.084 143.737,228.167 143.577,228.124C143.365,228.067 143.148,227.973 142.925,227.844C141.736,227.158 140.605,226.54 139.54,225.984C138.624,225.505 136.644,225.637 137.26,227.105C141.72,229.655 146.49,231.358 151.566,232.208C152.701,232.398 154.435,232.547 155.967,232.801C156.516,232.891 157.132,232.89 157.811,232.801C154.941,232.278 152.039,231.489 149.1,230.434C148.91,230.364 148.803,230.164 148.853,229.968C149.003,229.365 149.289,228.8 149.712,228.264L144.702,226.067Z" style="fill:white;fill-opacity:0.4;"/>
    <path d="M244.738,240.401L263.238,240.401C265.725,237.323 268.796,233.882 270.542,230.507C268.688,230.594 265.955,230.372 261.891,229.459C259.576,228.939 257.506,228.005 255.925,227.009C255.689,227.196 255.305,227.458 254.862,227.75C253.823,228.477 252.818,229.182 251.932,229.806L244.738,240.401Z" style="fill:white;fill-opacity:0.85;"/>
    <path d="M271.788,230.387C270.784,233.657 268.794,237.109 267.579,240.401L263.238,240.401C265.725,237.323 268.796,233.882 270.542,230.507C271.011,230.484 271.424,230.443 271.788,230.387Z" style="fill:white;fill-opacity:0.4;"/>
    <path d="M251.729,229.949L251.932,229.806L244.738,240.401L241.63,240.401C244.118,238.327 246.395,234.67 248.3,232.162C248.543,232.175 248.696,232.155 248.759,232.098C248.971,231.91 250.138,231.072 251.729,229.949Z" style="fill:white;fill-opacity:0.4;"/>
    <path d="M299.89,240.64L300,250.499C300.003,250.709 279.246,266.776 274.569,270.358C274.445,270.453 255.998,284.581 252.68,287.294C251.825,287.989 250.906,288.339 249.917,288.339C246.402,288.342 163.333,288.346 0.709,288.346C0.316,288.346 0,288.029 0,287.64L0,278.246C0,278.143 0.027,278.043 0.077,277.957C0.323,277.504 0.672,277.265 1.122,277.241C1.032,277.464 0.905,277.627 0.742,277.737C0.599,277.834 0.666,278.057 0.839,278.057L250.7,278.06C250.786,278.06 250.873,278.04 250.953,278.003C251.519,277.742 251.898,277.531 252.094,277.381C268.048,265.165 283.956,252.886 299.89,240.64Z" style="fill:white;fill-opacity:0.25;"/>
    <path d="M163.273,248.082C157.877,248.066 152.449,248.484 146.986,249.331C145.671,249.534 144.559,250.003 143.651,250.739C145.531,251.78 147.758,252.462 150.331,252.792C153.31,253.175 155.797,253.427 157.797,253.551C165.483,254.029 173.159,253.884 180.825,253.112C182.386,252.955 184.513,252.559 187.209,251.927C188.331,251.664 189.243,251.141 189.952,250.356C188.288,249.647 186.334,249.171 184.09,248.931C178.891,248.376 174.381,248.062 170.559,247.999L170.546,250.129C170.543,250.562 170.253,250.943 169.837,251.062C168.091,251.559 165.081,251.808 163.503,250.872C163.279,250.739 163.135,250.512 163.11,250.259C163.029,249.457 163.087,248.731 163.273,248.082Z" style="fill:white;fill-opacity:0.75;"/>
    <path d="M143.651,250.739C142.572,251.421 141.904,252.472 141.657,253.894C141.553,254.493 141.78,254.878 142.339,255.049C144.378,255.673 146.507,256.121 148.73,256.377C152.874,256.854 157.062,257.136 161.286,257.216C163.306,257.254 165.966,257.486 168.286,257.376C170.39,257.276 171.831,257.223 172.613,257.216C175.995,257.187 179.6,256.971 183.428,256.574C186.084,256.298 188.415,255.913 190.418,255.405C190.691,255.336 191.216,255.1 192.009,254.72C192.102,254.675 192.162,254.58 192.165,254.473C192.202,253.232 191.812,252.237 191.004,251.484C190.511,251.025 190.162,250.649 189.952,250.356C189.243,251.141 188.331,251.664 187.209,251.927C184.513,252.559 182.386,252.955 180.825,253.112C173.159,253.884 165.483,254.029 157.797,253.551C155.797,253.427 153.31,253.175 150.331,252.792C147.758,252.462 145.531,251.78 143.651,250.739Z" style="fill:white;fill-opacity:0.5;"/>
</svg>
