<?xml version="1.0" encoding="UTF-8" standalone="no"?>
<!DOCTYPE svg PUBLIC "-//W3C//DTD SVG 1.1//EN" "http://www.w3.org/Graphics/SVG/1.1/DTD/svg11.dtd">
<svg width="100%" height="100%" viewBox="0 0 300 300" version="1.1" xmlns="http://www.w3.org/2000/svg" xmlns:xlink="http://www.w3.org/1999/xlink" xml:space="preserve" xmlns:serif="http://www.serif.com/" style="fill-rule:evenodd;clip-rule:evenodd;stroke-linejoin:round;stroke-miterlimit:2;">
    <path d="M223.344,43.067C227.109,40.656 230.982,39.727 234.953,40.284C236.552,40.508 237.443,40.615 237.629,40.605C241.781,40.363 244.204,37.976 243.96,33.731C243.705,29.281 241.893,25.832 238.516,23.39C237.301,22.51 236.647,21.592 236.711,20.266C236.894,16.413 236.868,12.723 235.796,9.065C235.102,6.697 233.516,4.261 231.175,3.482C228.48,2.586 225.39,3.267 222.952,4.595C222.56,4.808 222.069,4.737 221.752,4.416C219.226,1.859 216.285,0.408 212.927,0.065C209.886,-0.245 206.703,0.553 203.373,2.449C200.305,4.195 197.76,6.496 195.736,9.342C193.856,11.984 191.958,15.759 188.91,18.195C187.686,19.173 186.633,19.992 185.687,21.133C182.787,24.631 179.952,29.855 179.835,34.571C179.777,36.903 179.787,39.793 180.726,41.559C181.799,43.578 183.354,44.34 185.402,43.851C185.635,43.796 186.256,43.509 187.271,42.992C187.903,42.67 188.557,42.462 189.23,42.363C191.562,40.755 193.74,39.795 195.771,39.484C197.07,39.285 198.016,39.714 198.614,40.771C199.248,41.891 198.704,43.542 197.882,44.778C197.497,45.355 197.177,45.989 196.915,46.682C196.86,46.829 196.848,46.987 196.88,47.141L197.47,50.012C201.892,50.345 205.349,48.947 207.831,45.819C202.981,44.453 200.224,41.46 199.556,36.835C199.235,34.606 198.844,32.892 198.388,31.7C197.276,28.79 196.266,26.81 196.48,24.245C196.733,21.22 199.988,20.729 202.451,20.44C204.64,20.183 206.909,19.676 209.265,18.912C211.842,17.732 214.292,16.056 216.613,13.875C217.56,12.986 218.697,11.826 220.038,10.411C220.125,10.319 220.24,10.257 220.363,10.229C220.869,10.114 221.268,10.265 221.558,10.68C223.802,13.889 225.626,17.361 227.006,21.109C227.196,21.624 227.703,21.94 228.234,21.877C229.029,21.782 229.616,22.103 229.992,22.839C231.061,24.934 231.049,26.929 229.952,28.822C229.663,29.321 229.091,29.698 228.74,30.188C228.626,30.347 228.562,30.532 228.554,30.73C228.446,33.383 227.864,35.886 226.785,38.225C226.757,38.285 226.725,38.336 226.689,38.387L223.344,43.067Z" style="fill:white;fill-opacity:0.25;"/>
    <path d="M224.441,51.045L223.34,51.018C223.221,51.014 223.118,50.934 223.087,50.82C222.728,49.525 222.516,48.317 222.457,47.189C222.373,45.562 222.671,44.188 223.344,43.067L226.689,38.387C226.725,38.336 226.757,38.285 226.785,38.225C227.864,35.886 228.446,33.383 228.554,30.73C228.562,30.532 228.626,30.347 228.74,30.188C229.091,29.698 229.663,29.321 229.952,28.822C231.049,26.929 231.061,24.934 229.992,22.839C229.616,22.103 229.029,21.782 228.234,21.877C227.703,21.94 227.196,21.624 227.006,21.109C225.626,17.361 223.802,13.889 221.558,10.68C221.268,10.265 220.869,10.114 220.363,10.229C220.24,10.257 220.125,10.319 220.038,10.411C218.697,11.826 217.56,12.986 216.613,13.875C214.292,16.056 211.842,17.732 209.265,18.912C208.738,23.746 209.082,28.451 210.302,33.023C210.404,33.407 210.817,33.612 211.185,33.466L212.998,32.749C213.469,32.559 214.004,32.801 214.178,33.28L215.497,36.911C216.546,36.827 217.325,37.149 217.829,37.873C219.255,39.922 217.789,41.899 215.54,42.406C215.504,43.531 215.283,44.631 214.867,45.704C214.23,47.347 213.386,48.911 212.329,50.396C211.399,51.639 210.385,53.124 208.936,53.841C210.991,55.171 213.05,56.441 215.112,57.653C216.304,58.354 217.658,58.886 219.163,59.289C219.306,59.327 219.456,59.273 219.543,59.15C221.145,56.878 222.698,54.482 224.219,51.976C224.476,51.552 224.548,51.243 224.441,51.045ZM213.463,24.456C213.046,24.575 212.927,25.428 213.195,26.365C213.462,27.301 214.019,27.961 214.434,27.843C214.851,27.724 214.969,26.87 214.702,25.933C214.435,24.997 213.878,24.337 213.463,24.456ZM218.561,21.976C216.662,20.556 213.45,19.98 211.521,21.731C211.287,21.943 211.16,22.15 211.133,22.348C211.092,22.661 211.387,22.916 211.707,22.847C214.315,22.29 215.987,21.786 218.355,22.396C218.608,22.461 218.767,22.13 218.561,21.976Z" style="fill:white;fill-opacity:0.95;"/>
    <path d="M209.265,18.912C206.909,19.676 204.64,20.183 202.451,20.44C199.988,20.729 196.733,21.22 196.48,24.245C196.266,26.81 197.276,28.79 198.388,31.7C198.844,32.892 199.235,34.606 199.556,36.835C200.224,41.46 202.981,44.453 207.831,45.819C208.556,45.902 209.387,46.16 210.334,46.587C211.858,47.276 212.523,48.547 212.329,50.396C213.386,48.911 214.23,47.347 214.867,45.704C215.283,44.631 215.504,43.531 215.54,42.406C213.842,42.236 212.476,41.412 211.442,39.935C210.979,39.274 210.909,38.636 211.232,38.023C211.59,37.345 212.603,37.563 213.232,37.6C213.287,37.603 213.343,37.596 213.394,37.576L215.497,36.911L214.178,33.28C214.004,32.801 213.469,32.559 212.998,32.749L211.185,33.466C210.817,33.612 210.404,33.407 210.302,33.023C209.082,28.451 208.738,23.746 209.265,18.912ZM205.778,27.224C205.412,27.329 205.322,28.133 205.577,29.023C205.833,29.914 206.335,30.548 206.701,30.443C207.067,30.339 207.157,29.535 206.902,28.644C206.647,27.753 206.144,27.119 205.778,27.224ZM200.641,26.082C200.523,26.304 200.8,26.529 200.994,26.367C202.823,24.835 204.517,24.587 207.051,24.007C207.364,23.936 207.518,23.588 207.352,23.33C207.245,23.164 207.048,23.036 206.754,22.946C204.322,22.2 201.731,24.044 200.641,26.082Z" style="fill:white;fill-opacity:0.75;"/>
    <path d="M218.561,21.976C216.662,20.556 213.45,19.98 211.521,21.731C211.287,21.943 211.16,22.15 211.133,22.348C211.092,22.661 211.387,22.916 211.707,22.847C214.315,22.29 215.987,21.786 218.355,22.396C218.608,22.461 218.767,22.13 218.561,21.976Z" style="fill:white;fill-opacity:0.15;"/>
    <path d="M104.557,24.3C104.066,23.94 103.71,23.729 103.484,23.663C103.108,23.553 102.51,23.393 101.694,23.18C100.277,22.81 98.8,22.836 97.556,22.633C96.856,22.519 96.08,22.494 95.228,22.57C92.164,22.842 90.15,23.043 88.169,23.797C87.968,23.874 87.825,23.987 87.741,24.138C88.703,25.104 89.507,25.69 90.161,25.896C93.609,26.982 97.093,27.095 100.613,26.244C101.417,26.05 102.126,25.781 102.735,25.436C103.436,25.041 103.4,24.304 104.557,24.3Z" style="fill:white;fill-opacity:0.75;"/>
    <path d="M200.641,26.082C200.523,26.304 200.8,26.529 200.994,26.367C202.823,24.835 204.517,24.587 207.051,24.007C207.364,23.936 207.518,23.588 207.352,23.33C207.245,23.164 207.048,23.036 206.754,22.946C204.322,22.2 201.731,24.044 200.641,26.082Z" style="fill:white;fill-opacity:0.15;"/>
    <path d="M104.814,36.392C104.343,34.899 104.091,33.284 104.058,31.546C104.008,28.968 104.173,26.553 104.557,24.3C103.4,24.304 103.436,25.041 102.735,25.436C102.126,25.781 101.417,26.05 100.613,26.244C97.093,27.095 93.609,26.982 90.161,25.896C89.507,25.69 88.703,25.104 87.741,24.138C87.488,24.391 87.382,24.621 87.425,24.823C88.204,28.51 88.272,32.912 87.179,36.396L95.66,42.588C95.862,42.735 96.131,42.735 96.333,42.588L104.814,36.392Z" style="fill:white;fill-opacity:0.6;"/>
    <path d="M213.463,24.456C213.046,24.575 212.927,25.428 213.195,26.365C213.462,27.301 214.019,27.961 214.434,27.843C214.851,27.724 214.969,26.87 214.702,25.933C214.435,24.997 213.878,24.337 213.463,24.456Z" style="fill:white;fill-opacity:0.15;"/>
    <path d="M205.778,27.224C205.412,27.329 205.322,28.133 205.577,29.023C205.833,29.914 206.335,30.548 206.701,30.443C207.067,30.339 207.157,29.535 206.902,28.644C206.647,27.753 206.144,27.119 205.778,27.224Z" style="fill:white;fill-opacity:0.15;"/>
    <path d="M114.079,43C112.99,41.309 111.676,39.709 110.139,38.193C109.344,37.409 108.522,36.647 107.684,35.901C107.228,35.494 106.726,35.429 106.184,35.703C105.74,35.928 105.285,36.158 104.814,36.392L96.333,42.588C96.131,42.735 95.862,42.735 95.66,42.588L87.179,36.396C86.292,35.913 85.167,34.99 84.218,35.893C82.503,37.524 80.641,39.205 79.272,41.135C78.814,41.781 78.374,42.39 77.95,42.964C77.277,44.295 77.021,45.439 77.178,46.401C77.338,47.379 78.005,47.87 79.181,47.878C79.415,47.779 79.68,47.755 79.977,47.807C80.452,47.676 80.948,47.631 81.466,47.684C81.644,47.702 81.814,47.779 81.941,47.902C82.404,48.349 82.883,48.912 83.39,49.177C84.644,49.829 85.793,50.003 86.835,49.707C88.62,49.199 90.45,48.076 92.326,46.33L93.292,45.439C93.74,44.798 94.418,44.222 95.331,43.705C95.526,43.595 95.763,43.587 95.965,43.689C96.241,43.829 96.531,43.9 96.832,43.895C96.994,43.892 97.157,43.95 97.283,44.053C98.101,44.723 99.194,45.729 100.566,47.066C101.113,47.6 102.086,48.246 103.484,49.01C104.584,49.612 105.717,49.861 106.881,49.755C108.053,49.647 109.049,49.077 109.878,48.044C110.008,47.882 110.191,47.775 110.397,47.739C111.09,47.618 111.739,47.644 112.345,47.818C113.037,47.842 113.615,47.771 114.075,47.609C114.811,46.943 115,45.977 114.637,44.714C114.488,44.195 114.3,43.622 114.079,43Z" style="fill:white;fill-opacity:0.95;"/>
    <path d="M215.54,42.406C217.789,41.899 219.255,39.922 217.829,37.873C217.325,37.149 216.546,36.827 215.497,36.911L213.394,37.576C213.343,37.596 213.287,37.603 213.232,37.6C212.603,37.563 211.59,37.345 211.232,38.023C210.909,38.636 210.979,39.274 211.442,39.935C212.476,41.412 213.842,42.236 215.54,42.406Z" style="fill:white;fill-opacity:0.15;"/>
    <path d="M189.23,42.363C187.338,43.661 185.477,45.138 184.943,47.035C184.855,47.343 184.834,48.247 184.907,49.743C184.917,49.957 184.95,50.17 185.01,50.38C185.849,53.331 186.352,55.662 186.51,57.376C186.697,59.392 186.693,61.937 186.502,65.018L186.704,65.56C186.748,65.671 186.831,65.766 186.942,65.818C189.354,66.94 191.879,67.397 194.524,67.18C195.106,65.319 195.25,63.448 195.007,61.557C194.99,61.427 195.05,61.296 195.161,61.225C196.438,60.409 197.295,59.403 197.731,58.196C197.988,57.483 198.158,56.668 198.246,55.749C198.305,55.127 198.252,54.304 198.091,53.286C197.927,52.245 197.719,51.152 197.47,50.012L196.88,47.141C196.848,46.987 196.86,46.829 196.915,46.682C197.177,45.989 197.497,45.355 197.882,44.778C198.704,43.542 199.248,41.891 198.614,40.771C198.016,39.714 197.07,39.285 195.771,39.484C193.74,39.795 191.562,40.755 189.23,42.363Z" style="fill:white;fill-opacity:0.95;"/>
    <path d="M77.95,42.964C75.602,43.78 73.359,44.586 71.211,45.364C70.693,45.551 70.202,46.013 69.734,46.753L68.539,52.443C69.081,52.692 69.519,53.022 69.865,53.425C69.94,53.512 70.035,53.583 70.138,53.631C70.728,53.901 71.275,54.054 71.777,54.098C73.915,54.32 75.907,54.074 77.752,53.362C78.972,52.89 79.767,52.657 80.143,52.669C80.979,52.694 81.732,53.021 82.408,53.655C83.308,54.497 83.94,55.504 84.317,56.672C85.097,57.174 85.978,57.528 86.965,57.705C87.175,57.742 87.504,57.843 87.951,58.014C88.315,58.152 88.656,58.172 88.969,58.081C89.804,57.837 90.647,57.582 91.495,57.321L91.424,56.957C91.4,56.822 91.471,56.686 91.602,56.636C92.826,56.164 93.866,55.5 94.718,54.625C95.28,54.047 95.692,53.735 95.949,53.686C97.051,53.478 98.483,54.043 99.188,54.731C99.306,54.847 99.409,54.969 99.497,55.104L100.403,56.493C100.427,56.529 100.455,56.561 100.486,56.588L101.852,57.784C102.814,58.109 103.472,58.211 103.828,58.093C104.655,57.819 105.586,57.543 106.627,57.269C105.083,55.781 103.595,54.291 102.165,52.803C99.589,50.122 97.711,47.69 96.547,45.49C96.352,45.123 96.307,44.805 96.416,44.544C96.533,44.266 96.91,44.228 97.085,44.473C99.028,47.191 101.545,50.533 104.604,54.518C105.282,55.4 105.938,56.181 106.576,56.85C106.659,56.937 106.801,56.929 106.873,56.83C107.177,56.41 107.529,56.078 107.914,55.82C108.054,55.727 108.167,55.598 108.239,55.444C108.819,54.192 110.176,50.889 112.012,51.722C113.275,52.295 114.482,53.227 115.746,53.959C116.169,54.205 116.561,54.49 116.925,54.815C117.428,55.009 117.938,54.947 118.466,54.636C118.608,54.553 118.778,54.518 118.941,54.537C119.269,54.577 119.57,54.525 119.836,54.379C120.452,54.041 121.166,53.944 121.776,53.397C121.641,53.255 121.487,53.14 121.316,53.057C118.708,51.784 116.921,50.899 115.951,50.396C114.747,49.771 113.544,48.911 112.345,47.818C111.739,47.644 111.09,47.618 110.397,47.739C110.191,47.775 110.008,47.882 109.878,48.044C109.049,49.077 108.053,49.647 106.881,49.755C105.717,49.861 104.584,49.612 103.484,49.01C102.086,48.246 101.113,47.6 100.566,47.066C99.194,45.729 98.101,44.723 97.283,44.053C97.157,43.95 96.994,43.892 96.832,43.895C96.531,43.9 96.241,43.829 95.965,43.689C95.763,43.587 95.526,43.595 95.331,43.705C94.418,44.222 93.74,44.798 93.292,45.439C92.378,47.961 91.596,49.96 90.944,51.429C90.301,52.882 89.395,54.308 88.236,55.717C88.077,55.911 87.813,55.983 87.575,55.903L87.567,55.899C87.361,55.828 87.294,55.571 87.44,55.408C88.095,54.681 88.421,53.705 88.941,52.859C90.012,51.115 91.056,49.396 92.073,47.7C92.341,47.252 92.425,46.797 92.326,46.33C90.45,48.076 88.62,49.199 86.835,49.707C85.793,50.003 84.644,49.829 83.39,49.177C82.883,48.912 82.404,48.349 81.941,47.902C81.814,47.779 81.644,47.702 81.466,47.684C80.948,47.631 80.452,47.676 79.977,47.807C78.92,49.79 76.845,52.588 74.557,53.152C74.173,53.246 73.935,52.748 74.248,52.506C75.804,51.306 77.278,50.025 78.667,48.662C78.904,48.428 79.074,48.167 79.181,47.878C78.005,47.87 77.338,47.379 77.178,46.401C77.021,45.439 77.277,44.295 77.95,42.964Z" style="fill:white;fill-opacity:0.7;"/>
    <path d="M122.227,46.595C121.72,45.926 121.197,45.496 120.655,45.3C118.574,44.55 116.383,43.776 114.079,43C114.3,43.622 114.488,44.195 114.637,44.714C115,45.977 114.811,46.943 114.075,47.609C115.393,48.563 116.701,49.536 117.998,50.523C119.231,51.46 120.651,52.348 122.278,53.128C122.338,53.156 122.33,53.248 122.263,53.263C122.168,53.284 122.088,53.33 122.021,53.401L122.758,53.563C122.837,53.579 122.881,53.472 122.813,53.429C122.75,53.389 122.647,53.361 122.504,53.342C122.346,53.321 122.31,53.108 122.453,53.033L123.538,52.483L122.449,46.674C122.373,46.647 122.302,46.623 122.227,46.595Z" style="fill:white;fill-opacity:0.75;"/>
    <path d="M116.925,54.815C116.561,54.49 116.169,54.205 115.746,53.959C114.482,53.227 113.275,52.295 112.012,51.722C110.176,50.889 108.819,54.192 108.239,55.444C108.167,55.598 108.054,55.727 107.914,55.82C107.529,56.078 107.177,56.41 106.873,56.83C106.801,56.929 106.659,56.937 106.576,56.85C105.938,56.181 105.282,55.4 104.604,54.518C101.545,50.533 99.028,47.191 97.085,44.473C96.91,44.228 96.533,44.266 96.416,44.544C96.307,44.805 96.352,45.123 96.547,45.49C97.711,47.69 99.589,50.122 102.165,52.803C103.595,54.291 105.083,55.781 106.627,57.269C107.079,56.965 107.793,56.305 108.769,55.29C109.527,54.503 110.451,54.432 111.565,55.048C111.659,55.1 111.762,55.14 111.869,55.163C113.345,55.483 114.384,55.539 114.977,55.349C115.52,55.175 116.169,54.997 116.925,54.815Z" style="fill:white;fill-opacity:0.5;"/>
    <path d="M93.292,45.439L92.326,46.33C92.425,46.797 92.341,47.252 92.073,47.7C91.056,49.396 90.012,51.115 88.941,52.859C88.421,53.705 88.095,54.681 87.44,55.408C87.294,55.571 87.361,55.828 87.567,55.899L87.575,55.903C87.813,55.983 88.077,55.911 88.236,55.717C89.395,54.308 90.301,52.882 90.944,51.429C91.596,49.96 92.378,47.961 93.292,45.439Z" style="fill:white;fill-opacity:0.5;"/>
    <path d="M69.556,46.722C69.362,46.552 69.168,46.515 68.97,46.615C67.705,47.252 66.417,47.775 65.363,48.559C63.451,49.981 61.722,51.537 60.173,53.227C56.963,56.728 53.766,60.825 50.591,65.517C48.544,68.541 46.3,72.248 45.65,76.116C45.266,78.4 46.022,80.063 47.222,81.912C48.897,83.484 50.497,84.397 52.82,85.301C54.21,85.843 55.441,86.664 56.51,87.76C56.843,88.101 57.575,88.485 58.704,88.908C62.92,90.489 66.959,90.159 70.811,87.926L72.312,86.517C69.79,84.05 68.122,81.224 67.307,78.04C66.399,74.489 66.061,70.668 66.294,66.586C66.67,59.993 67.692,53.501 69.259,47.082C69.28,46.999 69.378,46.876 69.556,46.722ZM64.849,70.961C60.87,72.865 58.741,76.431 57.845,80.594C57.733,81.112 58.154,81.583 58.648,81.488C58.747,81.469 58.878,81.338 59.036,81.093C61.396,77.443 63.095,74.495 64.14,72.247C64.278,71.95 64.556,71.574 64.983,71.139C65.022,71.099 65.026,71.04 64.991,70.992C64.959,70.949 64.9,70.936 64.849,70.961ZM63.087,62.131C63.221,62.088 63.237,61.901 63.107,61.838C62.925,61.751 62.719,61.736 62.485,61.795C60.116,62.387 58.162,64.412 56.562,66.34C55.034,68.181 53.599,70.144 52.258,72.24C51.141,73.985 50.375,75.913 49.977,78.024C49.957,78.131 50.017,78.238 50.12,78.277C50.223,78.317 50.338,78.274 50.393,78.179C52.377,74.739 54.728,71.387 57.48,68.15C58.055,67.473 59.207,66.083 60.929,63.98C61.555,63.216 62.096,62.666 62.548,62.317C62.66,62.231 62.786,62.173 62.924,62.155C63.027,62.142 63.083,62.135 63.087,62.131Z" style="fill:white;fill-opacity:0.7;"/>
    <path d="M144.755,81.9C146.327,79.845 146.755,77.747 146.169,75.173C145.445,71.994 143.661,68.956 141.881,66.241C138.76,61.48 135.372,57.111 131.733,53.128C129.841,51.057 127.836,49.333 125.723,47.941C124.721,47.281 123.557,46.833 122.227,46.595C122.302,46.623 122.373,46.647 122.449,46.674C123.058,48.618 123.561,50.57 123.953,52.53C124.203,53.777 124.542,55.765 124.967,58.497C126.006,65.184 126.338,72.967 124.306,79.24C123.437,81.92 121.902,84.347 119.705,86.525L121.134,87.942C125.39,90.326 129.744,90.535 134.208,88.584C134.889,88.286 135.824,87.563 137.027,86.426C137.552,85.929 138.67,85.4 140.376,84.838C141.711,84.399 143.172,83.421 144.755,81.9ZM135.249,81.203C135.263,79.477 134.956,77.573 134.291,75.49C133.209,72.101 131.603,68.781 129.488,65.525C129.35,65.311 129.081,65.232 128.851,65.334L128.728,65.39C128.443,65.517 128.312,65.853 128.439,66.138L135.178,81.219C135.194,81.255 135.249,81.243 135.249,81.203ZM138.975,78.06C139.011,78.048 139.031,78.02 139.034,77.984C139.227,75.578 138.865,73.324 138.167,71.234C136.945,67.571 134.727,63.238 131.523,58.22C130.659,56.866 126.948,51.448 125.113,52.459C124.868,52.594 124.849,52.941 125.074,53.128C126.611,54.405 128.011,55.955 129.282,57.756C132.812,62.755 135.139,67.69 137.498,73.629C138.393,75.882 138.788,77.338 138.706,78C138.697,78.071 138.765,78.131 138.836,78.107L138.975,78.06Z" style="fill:white;fill-opacity:0.7;"/>
    <path d="M69.734,46.753C69.675,46.742 69.616,46.734 69.556,46.722C69.378,46.876 69.28,46.999 69.259,47.082C67.692,53.501 66.67,59.993 66.294,66.586C66.061,70.668 66.399,74.489 67.307,78.04C68.122,81.224 69.79,84.05 72.312,86.517C73.678,84.989 74.818,83.254 75.737,81.31C74.644,80.752 73.872,80.202 73.424,79.659C71.532,77.366 69.455,74.537 68.269,71.658C67.927,70.825 67.697,69.864 67.577,68.775C67.287,66.15 67.233,63.901 67.422,62.032C67.625,60.025 67.739,58.552 67.763,57.618C67.767,57.463 67.79,57.309 67.834,57.159L68.269,55.713L68.539,52.443L69.734,46.753Z" style="fill:white;fill-opacity:0.5;"/>
    <path d="M119.705,86.525C121.902,84.347 123.437,81.92 124.306,79.24C126.338,72.967 126.006,65.184 124.967,58.497C124.542,55.765 124.203,53.777 123.953,52.53C123.561,50.57 123.058,48.618 122.449,46.674L123.538,52.483C123.605,53.342 123.693,54.185 123.803,55.017C124.182,57.891 124.44,60.33 124.587,62.329C124.801,65.247 124.652,67.908 124.151,70.311C123.941,71.321 123.478,72.437 122.765,73.657C121.431,75.941 120.059,77.899 118.66,79.541C118.029,80.28 117.25,80.804 116.328,81.108L115.92,81.548C116.252,81.39 116.497,81.497 116.652,81.869C117.376,83.597 118.398,85.147 119.705,86.525Z" style="fill:white;fill-opacity:0.5;"/>
    <path d="M122.021,53.401C122.088,53.33 122.168,53.284 122.263,53.263C122.33,53.248 122.338,53.156 122.278,53.128C120.651,52.348 119.231,51.46 117.998,50.523C116.701,49.536 115.393,48.563 114.075,47.609C113.615,47.771 113.037,47.842 112.345,47.818C113.544,48.911 114.747,49.771 115.951,50.396C116.921,50.899 118.708,51.784 121.316,53.057C121.487,53.14 121.641,53.255 121.776,53.397L122.021,53.401Z" style="fill:white;fill-opacity:0.5;"/>
    <path d="M79.977,47.807C79.68,47.755 79.415,47.779 79.181,47.878C79.074,48.167 78.904,48.428 78.667,48.662C77.278,50.025 75.804,51.306 74.248,52.506C73.935,52.748 74.173,53.246 74.557,53.152C76.845,52.588 78.92,49.79 79.977,47.807Z" style="fill:white;fill-opacity:0.5;"/>
    <path d="M231.401,50.178C230.653,49.569 229.802,49.138 228.847,48.895C227.779,48.623 226.679,48.322 226.056,49.256C225.412,50.222 224.872,50.82 224.441,51.045C224.548,51.243 224.476,51.552 224.219,51.976C222.698,54.482 221.145,56.878 219.543,59.15C219.456,59.273 219.306,59.327 219.163,59.289C217.658,58.886 216.304,58.354 215.112,57.653C213.05,56.441 210.991,55.171 208.936,53.841C208.532,53.567 208.144,53.38 207.768,53.286C206.458,52.959 205.713,53.821 204.794,54.545C203.908,56.347 204.327,57.591 206.058,58.275C207.21,58.731 208.722,59.168 210.599,59.578C212.732,60.043 215.101,60.542 217.698,61.086C217.999,61.149 218.541,61.19 219.321,61.205C219.943,61.217 219.99,60.725 220.64,60.777C221.261,60.828 222.108,60.258 222.52,59.875C226.49,56.183 229.24,53.623 230.756,52.174C231.31,51.643 231.524,50.978 231.401,50.178Z" style="fill:white;fill-opacity:0.75;"/>
    <path d="M186.502,65.018C186.071,65.525 185.825,65.913 185.762,66.178C184.582,71.123 183.763,75.383 183.303,78.962C182.841,82.562 182.431,85.701 182.084,88.382C181.611,92.032 181.554,95.528 181.807,98.751C182.096,102.445 183.334,107.974 186.38,110.289C188.513,111.909 190.727,111.994 193.023,110.558C193.308,110.38 193.823,109.948 194.564,109.259C195.914,107.363 196.895,105.399 197.505,103.364C198.392,100.406 199.009,97.385 199.35,94.297C199.486,93.07 199.654,91.296 199.849,88.976C200.006,87.111 199.959,85.333 199.711,83.638C199.42,81.651 199.716,79.504 199.117,77.581C199.082,77.469 199.09,77.316 199.133,77.117C199.185,76.876 199.481,76.785 199.663,76.951C200.166,77.41 200.553,78.02 200.827,78.776C201.337,80.182 201.854,81.555 202.371,82.894C202.471,83.151 202.842,83.128 202.91,82.862C203.821,79.286 203.398,75.739 202.949,71.562C202.863,70.755 202.912,69.999 203.088,69.294C203.16,69.005 203.516,68.906 203.725,69.116C204.331,69.721 204.814,70.462 205.171,71.337C205.752,72.762 206.541,74.999 207.538,78.052C209.11,82.862 209.823,87.76 209.68,92.737C209.858,96.716 209.928,100.699 209.882,104.694C209.856,106.986 209.988,109.101 210.278,111.037C210.63,113.385 212.047,116.052 214.368,116.75C214.724,116.857 214.892,117.27 214.705,117.593C214.489,117.967 214.392,118.294 214.42,118.583C215.449,118.56 216.494,118.588 217.559,118.666C220.315,118.87 222.901,118.419 225.32,117.32C228.088,116.063 229.861,115.052 232.731,115.261C237.063,115.578 240.638,115.611 243.461,115.352C246.304,115.092 249.353,114.287 252.607,112.945C252.449,112.767 252.401,112.605 252.465,112.458C251.534,111.631 250.81,110.605 250.295,109.374C250.449,109.445 250.572,109.481 250.663,109.485C250.782,109.489 250.865,109.366 250.818,109.259C247.932,102.769 245.364,96.146 243.576,89.047C243.148,87.348 242.352,84.387 241.189,80.158C240.864,78.978 240.617,77.327 240.44,75.201C240.296,73.463 240.592,71.84 241.331,70.331C241.498,69.991 241.964,69.94 242.194,70.24C244.229,72.891 245.483,75.995 246.72,79.671C246.917,80.257 247.189,80.77 247.527,81.215C247.659,81.389 247.911,81.405 248.066,81.251L249.266,80.051C249.428,79.889 249.7,79.957 249.768,80.174C251.04,84.193 251.818,88.168 252.017,92.123C252.166,95.085 252.397,97.734 253.039,100.79C253.522,103.091 253.984,105.688 254.424,108.59C254.622,109.889 255.046,111.144 255.798,112.383C256.515,113.563 257.208,114.759 257.877,115.966C258.067,115.958 258.189,115.938 258.249,115.903C261.676,113.897 264.514,111.314 266.726,108.059C266.896,107.81 267.098,107.58 267.32,107.371C267.806,106.914 268.457,106.468 268.939,105.822C269.957,104.461 270.779,102.908 271.414,101.162C272.923,97.016 271.341,93.579 269.07,90.175C267.46,87.763 265.633,85.278 263.594,82.72C255.655,72.759 249.681,65.038 245.666,59.554C242.55,55.298 238.981,51.317 233.515,50.234C232.842,50.1 232.11,50.158 231.401,50.178C231.524,50.978 231.31,51.643 230.756,52.174C229.24,53.623 226.49,56.183 222.52,59.875C222.108,60.258 221.261,60.828 220.64,60.777C219.99,60.725 219.943,61.217 219.321,61.205C218.541,61.19 217.999,61.149 217.698,61.086C215.101,60.542 212.732,60.043 210.599,59.578C208.722,59.168 207.21,58.731 206.058,58.275C204.327,57.591 203.908,56.347 204.794,54.545C200.641,55.009 199.222,57.63 198.028,61.221C197.202,63.704 196.619,65.729 196.242,67.29C196.216,67.401 196.104,67.476 195.993,67.453L194.524,67.18C191.879,67.397 189.354,66.94 186.942,65.818C186.831,65.766 186.748,65.671 186.704,65.56L186.502,65.018Z" style="fill:white;fill-opacity:0.6;"/>
    <path d="M138.975,78.06C139.011,78.048 139.031,78.02 139.034,77.984C139.227,75.578 138.865,73.324 138.167,71.234C136.945,67.571 134.727,63.238 131.523,58.22C130.659,56.866 126.948,51.448 125.113,52.459C124.868,52.594 124.849,52.941 125.074,53.128C126.611,54.405 128.011,55.955 129.282,57.756C132.812,62.755 135.139,67.69 137.498,73.629C138.393,75.882 138.788,77.338 138.706,78C138.697,78.071 138.765,78.131 138.836,78.107L138.975,78.06Z" style="fill:white;fill-opacity:0.5;"/>
    <path d="M123.538,52.483L122.453,53.033C122.31,53.108 122.346,53.321 122.504,53.342C122.647,53.361 122.75,53.389 122.813,53.429C122.881,53.472 122.837,53.579 122.758,53.563L122.021,53.401L121.776,53.397C121.166,53.944 120.452,54.041 119.836,54.379C119.57,54.525 119.269,54.577 118.941,54.537C118.778,54.518 118.608,54.553 118.466,54.636C117.938,54.947 117.428,55.009 116.925,54.815C116.169,54.997 115.52,55.175 114.977,55.349C114.384,55.539 113.345,55.483 111.869,55.163C111.762,55.14 111.659,55.1 111.565,55.048C110.451,54.432 109.527,54.503 108.769,55.29C107.793,56.305 107.079,56.965 106.627,57.269C105.586,57.543 104.655,57.819 103.828,58.093C103.472,58.211 102.814,58.109 101.852,57.784C100.692,57.61 99.742,57.266 99.01,56.751C97.413,55.627 96.138,54.663 94.247,55.638C93.387,56.081 92.64,56.629 91.994,57.277C91.903,57.368 91.771,57.406 91.649,57.38C91.582,57.366 91.53,57.345 91.495,57.321C90.647,57.582 89.804,57.837 88.969,58.081C88.656,58.172 88.315,58.152 87.951,58.014C87.504,57.843 87.175,57.742 86.965,57.705C85.978,57.528 85.097,57.174 84.317,56.672C83.382,55.971 82.428,55.452 81.454,55.112C80.674,54.839 79.601,54.734 78.239,54.803C77.095,54.861 75.955,54.915 74.818,54.961C73.686,55.007 72.672,54.72 71.777,54.098C71.275,54.054 70.728,53.901 70.138,53.631C70.035,53.583 69.94,53.512 69.865,53.425C69.519,53.022 69.081,52.692 68.539,52.443L68.269,55.713C68.345,56.375 68.412,57.491 68.471,59.063C68.546,61.039 68.823,63.228 69.295,65.635C69.809,68.261 70.554,70.323 71.528,71.824C73.861,75.419 78.115,78.563 82.452,79.034C83.453,79.142 84.507,79.019 85.611,78.665C88.78,77.651 90.842,77.007 91.796,76.745C95.217,75.808 97.48,76.819 100.732,78.4C104.017,79.998 107.49,80.845 111.145,80.954C112.843,81.005 114.574,81.057 116.328,81.108C117.25,80.804 118.029,80.28 118.66,79.541C120.059,77.899 121.431,75.941 122.765,73.657C123.478,72.437 123.941,71.321 124.151,70.311C124.652,67.908 124.801,65.247 124.587,62.329C124.44,60.33 124.182,57.891 123.803,55.017C123.693,54.185 123.605,53.342 123.538,52.483Z" style="fill:white;fill-opacity:0.85;"/>
    <path d="M84.317,56.672C83.94,55.504 83.308,54.497 82.408,53.655C81.732,53.021 80.979,52.694 80.143,52.669C79.767,52.657 78.972,52.89 77.752,53.362C75.907,54.074 73.915,54.32 71.777,54.098C72.672,54.72 73.686,55.007 74.818,54.961C75.955,54.915 77.095,54.861 78.239,54.803C79.601,54.734 80.674,54.839 81.454,55.112C82.428,55.452 83.382,55.971 84.317,56.672Z" style="fill:white;fill-opacity:0.5;"/>
    <path d="M101.852,57.784L100.486,56.588C100.455,56.561 100.427,56.529 100.403,56.493L99.497,55.104C99.409,54.969 99.306,54.847 99.188,54.731C98.483,54.043 97.051,53.478 95.949,53.686C95.692,53.735 95.28,54.047 94.718,54.625C93.866,55.5 92.826,56.164 91.602,56.636C91.471,56.686 91.4,56.822 91.424,56.957L91.495,57.321C91.53,57.345 91.582,57.366 91.649,57.38C91.771,57.406 91.903,57.368 91.994,57.277C92.64,56.629 93.387,56.081 94.247,55.638C96.138,54.663 97.413,55.627 99.01,56.751C99.742,57.266 100.692,57.61 101.852,57.784Z" style="fill:white;fill-opacity:0.5;"/>
    <path d="M68.269,55.713L67.834,57.159C67.79,57.309 67.767,57.463 67.763,57.618C67.739,58.552 67.625,60.025 67.422,62.032C67.233,63.901 67.287,66.15 67.577,68.775C67.697,69.864 67.927,70.825 68.269,71.658C69.455,74.537 71.532,77.366 73.424,79.659C73.872,80.202 74.644,80.752 75.737,81.31L78.025,82.55C79.423,83.001 80.86,83.157 82.341,83.017C84.333,82.829 86.261,82.498 88.125,82.027L88.676,81.869L92.726,80.645C92.881,80.689 93.039,80.693 93.201,80.649L95.664,79.675C95.878,79.592 96.115,79.592 96.329,79.675L98.792,80.637C98.946,80.617 99.192,80.681 99.532,80.823L103.199,81.896C103.44,81.9 103.654,81.948 103.836,82.043C107.035,82.799 110.69,83.543 113.928,82.593L115.92,81.548L116.328,81.108C114.574,81.057 112.843,81.005 111.145,80.954C107.49,80.845 104.017,79.998 100.732,78.4C97.48,76.819 95.217,75.808 91.796,76.745C90.842,77.007 88.78,77.651 85.611,78.665C84.507,79.019 83.453,79.142 82.452,79.034C78.115,78.563 73.861,75.419 71.528,71.824C70.554,70.323 69.809,68.261 69.295,65.635C68.823,63.228 68.546,61.039 68.471,59.063C68.412,57.491 68.345,56.375 68.269,55.713Z" style="fill:white;fill-opacity:0.75;"/>
    <path d="M63.087,62.131C63.221,62.088 63.237,61.901 63.107,61.838C62.925,61.751 62.719,61.736 62.485,61.795C60.116,62.387 58.162,64.412 56.562,66.34C55.034,68.181 53.599,70.144 52.258,72.24C51.141,73.985 50.375,75.913 49.977,78.024C49.957,78.131 50.017,78.238 50.12,78.277C50.223,78.317 50.338,78.274 50.393,78.179C52.377,74.739 54.728,71.387 57.48,68.15C58.055,67.473 59.207,66.083 60.929,63.98C61.555,63.216 62.096,62.666 62.548,62.317C62.66,62.231 62.786,62.173 62.924,62.155C63.027,62.142 63.083,62.135 63.087,62.131Z" style="fill:white;fill-opacity:0.5;"/>
    <path d="M135.249,81.203C135.263,79.477 134.956,77.573 134.291,75.49C133.209,72.101 131.603,68.781 129.488,65.525C129.35,65.311 129.081,65.232 128.851,65.334L128.728,65.39C128.443,65.517 128.312,65.853 128.439,66.138L135.178,81.219C135.194,81.255 135.249,81.243 135.249,81.203Z" style="fill:white;fill-opacity:0.5;"/>
    <path d="M194.564,109.259C195.296,109.101 195.973,108.807 196.591,108.376C198.486,107.055 199.948,105.811 200.97,104.639C204.237,100.89 206.773,96.698 208.742,92.127C208.788,92.02 208.916,91.973 209.019,92.028C209.261,92.159 209.482,92.392 209.68,92.737C209.823,87.76 209.11,82.862 207.538,78.052C206.541,74.999 205.752,72.762 205.171,71.337C204.814,70.462 204.331,69.721 203.725,69.116C203.516,68.906 203.16,69.005 203.088,69.294C202.912,69.999 202.863,70.755 202.949,71.562C203.398,75.739 203.821,79.286 202.91,82.862C202.842,83.128 202.471,83.151 202.371,82.894C201.854,81.555 201.337,80.182 200.827,78.776C200.553,78.02 200.166,77.41 199.663,76.951C199.481,76.785 199.185,76.876 199.133,77.117C199.09,77.316 199.082,77.469 199.117,77.581C199.716,79.504 199.42,81.651 199.711,83.638C199.959,85.333 200.006,87.111 199.849,88.976C199.654,91.296 199.486,93.07 199.35,94.297C199.009,97.385 198.392,100.406 197.505,103.364C196.895,105.399 195.914,107.363 194.564,109.259Z" style="fill:white;fill-opacity:0.35;"/>
    <path d="M254.23,114.533C254.698,114.703 255.13,114.999 255.525,115.424C255.989,115.922 257.279,116.695 257.877,115.966C257.208,114.759 256.515,113.563 255.798,112.383C255.046,111.144 254.622,109.889 254.424,108.59C253.984,105.688 253.522,103.091 253.039,100.79C252.397,97.734 252.166,95.085 252.017,92.123C251.818,88.168 251.04,84.193 249.768,80.174C249.7,79.957 249.428,79.889 249.266,80.051L248.066,81.251C247.911,81.405 247.659,81.389 247.527,81.215C247.189,80.77 246.917,80.257 246.72,79.671C245.483,75.995 244.229,72.891 242.194,70.24C241.964,69.94 241.498,69.991 241.331,70.331C240.592,71.84 240.296,73.463 240.44,75.201C240.617,77.327 240.864,78.978 241.189,80.158C242.352,84.387 243.148,87.348 243.576,89.047C245.364,96.146 247.932,102.769 250.818,109.259C250.865,109.366 250.782,109.489 250.663,109.485C250.572,109.481 250.449,109.445 250.295,109.374C251.352,110.368 252.108,111.365 252.56,112.375C252.564,112.387 252.56,112.399 252.552,112.407C252.508,112.434 252.48,112.45 252.465,112.458C252.401,112.605 252.449,112.767 252.607,112.945L254.23,114.533Z" style="fill:white;fill-opacity:0.35;"/>
    <path d="M64.849,70.961C60.87,72.865 58.741,76.431 57.845,80.594C57.733,81.112 58.154,81.583 58.648,81.488C58.747,81.469 58.878,81.338 59.036,81.093C61.396,77.443 63.095,74.495 64.14,72.247C64.278,71.95 64.556,71.574 64.983,71.139C65.022,71.099 65.026,71.04 64.991,70.992C64.959,70.949 64.9,70.936 64.849,70.961Z" style="fill:white;fill-opacity:0.5;"/>
    <path d="M98.792,80.637L96.329,79.675C96.115,79.592 95.878,79.592 95.664,79.675L93.201,80.649L95.803,81.516C95.929,81.556 96.064,81.556 96.187,81.516L98.792,80.637Z" style="fill:white;fill-opacity:0.5;"/>
    <path d="M92.726,80.645L88.676,81.869C89.095,82.387 89.404,83.039 89.582,83.828C89.616,83.975 89.772,84.058 89.915,84.003L94.718,82.098C94.825,82.055 94.821,81.904 94.714,81.869L92.786,81.196C92.698,81.168 92.634,81.093 92.615,81.005C92.582,80.851 92.619,80.732 92.726,80.645Z" style="fill:white;fill-opacity:0.5;"/>
    <path d="M106.485,111.647C106.093,111.872 105.657,111.951 105.174,111.876L103.864,109.386C103.808,109.279 103.713,109.196 103.602,109.148L96.495,106.345C96.175,106.218 95.818,106.218 95.498,106.345L88.45,109.136C88.256,109.212 88.098,109.358 88.003,109.544L86.819,111.876C86.415,111.951 85.987,111.884 85.532,111.674C86.17,110.154 86.8,108.634 87.425,107.117C88.828,103.709 89.649,100.161 89.891,96.478C90.061,93.901 89.879,90.884 89.337,87.427L88.929,85.404C88.901,85.262 88.813,85.145 88.692,85.072C88.647,85.045 88.62,85.025 88.601,85.012C88.463,84.925 88.406,84.751 88.466,84.597C88.742,83.883 88.276,82.763 88.125,82.027L88.676,81.869C89.095,82.387 89.404,83.039 89.582,83.828C89.616,83.975 89.772,84.058 89.915,84.003L94.718,82.098C94.825,82.055 94.821,81.904 94.714,81.869L92.786,81.196C92.698,81.168 92.634,81.093 92.615,81.005C92.582,80.851 92.619,80.732 92.726,80.645C92.881,80.689 93.039,80.693 93.201,80.649L95.803,81.516C95.929,81.556 96.064,81.556 96.187,81.516L98.792,80.637C98.946,80.617 99.192,80.681 99.532,80.823C98.871,81.35 98.119,81.694 97.275,81.857C97.153,81.88 97.137,82.051 97.252,82.094L102.038,83.983C102.217,84.054 102.415,83.947 102.454,83.757C102.593,83.092 102.838,82.47 103.199,81.896C103.44,81.9 103.654,81.948 103.836,82.043C103.697,82.744 103.224,83.936 103.519,84.585C103.586,84.731 103.595,84.827 103.547,84.878C103.489,84.938 103.404,84.996 103.29,85.052C103.186,85.103 103.111,85.198 103.088,85.309L102.755,86.794C102.446,88.722 102.23,90.472 102.11,92.052C102.037,93.002 102.188,93.64 102.118,94.344C102.057,94.95 102.044,95.52 102.074,96.055C102.301,100.029 103.162,103.839 104.691,107.477C105.277,108.871 105.875,110.261 106.485,111.647ZM91.051,92.693C91.051,92.717 91.079,92.729 91.099,92.717L95.209,89.839C95.3,89.771 95.3,89.637 95.209,89.573L90.818,86.56C90.612,86.422 90.339,86.588 90.366,86.834L91.051,92.693ZM95.997,97.979C96.064,97.979 96.1,97.975 96.107,97.971C98.335,96.831 99.851,96.047 100.692,95.687C100.823,95.631 100.91,95.504 100.914,95.366L100.954,93.699C100.958,93.549 100.868,93.415 100.732,93.355C100.458,93.234 98.894,92.189 96.064,90.195C96.036,90.175 96.048,90.183 95.997,90.183C95.949,90.183 95.961,90.175 95.933,90.195C93.1,92.19 91.535,93.23 91.261,93.351C91.125,93.411 91.036,93.545 91.039,93.695L91.079,95.362C91.083,95.5 91.17,95.627 91.301,95.683C92.138,96.043 93.654,96.831 95.882,97.971C95.89,97.975 95.925,97.979 95.997,97.979ZM90.75,100.628C90.743,100.727 90.845,100.794 90.933,100.747L94.975,98.533C95.062,98.486 95.062,98.363 94.975,98.316L91.281,96.372C91.202,96.332 91.111,96.383 91.103,96.471L90.75,100.628ZM97.042,98.308C96.955,98.355 96.955,98.478 97.042,98.525L101.057,100.723C101.144,100.77 101.247,100.703 101.239,100.608L100.894,96.467C100.886,96.376 100.791,96.324 100.716,96.368L97.042,98.308ZM96,105.276C96.179,105.276 96.282,105.272 96.301,105.264C98.374,104.419 100.118,103.711 101.563,103.229C101.698,103.184 101.773,103.043 101.738,102.904L101.429,101.728C101.393,101.602 101.29,101.505 101.163,101.475C101.084,101.456 99.34,100.683 96.096,98.866C96.075,98.855 96.044,98.85 96,98.85C95.953,98.85 95.922,98.855 95.902,98.866C92.657,100.683 90.913,101.456 90.834,101.475C90.707,101.505 90.604,101.598 90.568,101.728L90.259,102.904C90.224,103.043 90.299,103.184 90.434,103.229C91.879,103.711 93.623,104.419 95.696,105.264C95.715,105.272 95.818,105.276 96,105.276ZM88.751,108.265L94.829,105.858C94.947,105.811 94.947,105.64 94.829,105.593L90.287,103.799C90.224,103.775 90.153,103.811 90.133,103.874L88.64,108.158C88.616,108.226 88.684,108.293 88.751,108.265ZM103.25,108.277C103.321,108.305 103.389,108.238 103.365,108.17L101.876,103.87C101.856,103.807 101.785,103.772 101.722,103.795L97.165,105.585C97.042,105.628 97.042,105.799 97.165,105.85L103.25,108.277ZM100.934,92.543L101.749,86.469C101.769,86.323 101.603,86.22 101.48,86.307L96.82,89.577C96.713,89.653 96.713,89.811 96.82,89.882L100.791,92.606C100.847,92.646 100.926,92.61 100.934,92.543ZM100.665,86.006C101.167,85.804 101.646,85.422 102.07,84.846C102.131,84.764 102.098,84.648 102.003,84.612L96.59,82.474C96.206,82.324 95.779,82.324 95.395,82.478L89.911,84.648C89.816,84.688 89.796,84.814 89.879,84.878L92.053,86.529L95.822,89.134C95.941,89.213 96.092,89.213 96.21,89.13L100.665,86.006Z" style="fill:white;fill-opacity:0.35;"/>
    <path d="M103.199,81.896L99.532,80.823C98.871,81.35 98.119,81.694 97.275,81.857C97.153,81.88 97.137,82.051 97.252,82.094L102.038,83.983C102.217,84.054 102.415,83.947 102.454,83.757C102.593,83.092 102.838,82.47 103.199,81.896Z" style="fill:white;fill-opacity:0.5;"/>
    <path d="M47.222,81.912C45.48,83.322 44.079,84.969 43.041,86.865C42.913,87.098 42.827,87.352 42.787,87.614C42.314,90.757 44.057,90.172 46.054,91.019C46.243,91.099 46.414,91.217 46.557,91.359L50.552,95.326C52.436,96.265 54.462,96.286 56.629,95.402C57.476,95.056 58.594,95.321 59.492,95.912C60.181,96.366 61.146,96.975 62.39,97.738C63.664,98.519 65.074,98.783 66.614,98.537C70.051,97.155 70.904,93.243 71.108,89.93C71.12,89.744 71.108,89.554 71.073,89.371L70.811,87.926C66.959,90.159 62.92,90.489 58.704,88.908C57.575,88.485 56.843,88.101 56.51,87.76C55.441,86.664 54.21,85.843 52.82,85.301C50.497,84.397 48.897,83.484 47.222,81.912Z" style="fill:white;fill-opacity:0.6;"/>
    <path d="M141.481,95.267C142.653,94.245 143.768,93.162 144.819,92.012C145.505,91.261 146.185,90.723 147.088,90.627C148.568,90.468 149.415,89.847 149.281,88.239C149.086,85.903 146.498,83.334 144.755,81.9C143.172,83.421 141.711,84.399 140.376,84.838C138.67,85.4 137.552,85.929 137.027,86.426C135.824,87.563 134.889,88.286 134.208,88.584C129.744,90.535 125.39,90.326 121.134,87.942C120.77,89.989 120.95,92.095 121.673,94.269C122.375,96.383 123.644,97.84 125.485,98.636C128.324,98.838 130.291,97.363 132.525,95.885C134.076,94.858 135.281,95.426 136.884,95.908C138.385,96.36 140.115,96.007 141.481,95.267Z" style="fill:white;fill-opacity:0.6;"/>
    <path d="M78.025,82.55L78.975,87.249C81.094,88.196 83.109,88.569 85.013,88.366C85.786,88.283 87.227,87.97 89.337,87.427L88.929,85.404C88.901,85.262 88.813,85.145 88.692,85.072C88.647,85.045 88.62,85.025 88.601,85.012C88.463,84.925 88.406,84.751 88.466,84.597C88.742,83.883 88.276,82.763 88.125,82.027C86.261,82.498 84.333,82.829 82.341,83.017C80.86,83.157 79.423,83.001 78.025,82.55Z" style="fill:white;fill-opacity:0.5;"/>
    <path d="M112.796,89.664C112.938,87.273 113.315,84.917 113.928,82.593C110.69,83.543 107.035,82.799 103.836,82.043C103.697,82.744 103.224,83.936 103.519,84.585C103.586,84.731 103.595,84.827 103.547,84.878C103.489,84.938 103.404,84.996 103.29,85.052C103.186,85.103 103.111,85.198 103.088,85.309L102.755,86.794C104.374,87.241 106.432,87.911 108.924,88.797C110.032,89.191 111.323,89.478 112.796,89.664Z" style="fill:white;fill-opacity:0.5;"/>
    <path d="M100.665,86.006C101.167,85.804 101.646,85.422 102.07,84.846C102.131,84.764 102.098,84.648 102.003,84.612L96.59,82.474C96.206,82.324 95.779,82.324 95.395,82.478L89.911,84.648C89.816,84.688 89.796,84.814 89.879,84.878L92.053,86.529C94.86,85.163 97.731,84.989 100.665,86.006Z" style="fill:white;fill-opacity:0.5;"/>
    <path d="M92.053,86.529L95.822,89.134C95.941,89.213 96.092,89.213 96.21,89.13L100.665,86.006C97.731,84.989 94.86,85.163 92.053,86.529Z" style="fill:white;fill-opacity:0.65;"/>
    <path d="M100.934,92.543L101.749,86.469C101.769,86.323 101.603,86.22 101.48,86.307L96.82,89.577C96.713,89.653 96.713,89.811 96.82,89.882L100.791,92.606C100.847,92.646 100.926,92.61 100.934,92.543Z" style="fill:white;fill-opacity:0.65;"/>
    <path d="M91.051,92.693C91.051,92.717 91.079,92.729 91.099,92.717L95.209,89.839C95.3,89.771 95.3,89.637 95.209,89.573L90.818,86.56C90.612,86.422 90.339,86.588 90.366,86.834L91.051,92.693Z" style="fill:white;fill-opacity:0.65;"/>
    <path d="M118.188,106.345C118.398,105.49 118.208,104.726 117.626,104.057C117.04,103.383 115.833,102.109 115.183,101.095C113.869,99.044 113.091,96.78 112.859,94.301C112.791,93.576 112.768,92.028 112.796,89.664C111.323,89.478 110.032,89.191 108.924,88.797C106.432,87.911 104.374,87.241 102.755,86.794C102.446,88.722 102.23,90.472 102.11,92.052C102.037,93.002 102.188,93.64 102.118,94.344C102.057,94.95 102.044,95.52 102.074,96.055C102.301,100.029 103.162,103.839 104.691,107.477C105.277,108.871 105.875,110.261 106.485,111.647C107.498,111.476 108.508,111.228 109.518,110.898C112.096,110.057 114.469,109.025 116.625,107.798C117.207,107.467 117.729,106.983 118.188,106.345Z" style="fill:white;fill-opacity:0.65;"/>
    <path d="M85.532,111.674C81.846,110.894 78.321,109.511 74.965,107.517C74.652,107.331 74.264,106.939 73.793,106.349C73.611,105.577 73.773,104.88 74.28,104.262C74.965,103.427 75.634,102.58 76.283,101.721C77.792,99.722 78.717,97.477 79.051,94.986C79.343,92.805 79.316,90.227 78.975,87.249C81.094,88.196 83.109,88.569 85.013,88.366C85.786,88.283 87.227,87.97 89.337,87.427C89.879,90.884 90.061,93.901 89.891,96.478C89.649,100.161 88.828,103.709 87.425,107.117C86.8,108.634 86.17,110.154 85.532,111.674Z" style="fill:white;fill-opacity:0.65;"/>
    <path d="M95.997,97.979C96.064,97.979 96.1,97.975 96.107,97.971C98.335,96.831 99.851,96.047 100.692,95.687C100.823,95.631 100.91,95.504 100.914,95.366L100.954,93.699C100.958,93.549 100.868,93.415 100.732,93.355C100.458,93.234 98.894,92.189 96.064,90.195C96.036,90.175 96.048,90.183 95.997,90.183C95.949,90.183 95.961,90.175 95.933,90.195C93.1,92.19 91.535,93.23 91.261,93.351C91.125,93.411 91.036,93.545 91.039,93.695L91.079,95.362C91.083,95.5 91.17,95.627 91.301,95.683C92.138,96.043 93.654,96.831 95.882,97.971C95.89,97.975 95.925,97.979 95.997,97.979Z" style="fill:white;fill-opacity:0.65;"/>
    <path d="M50.552,95.326L50.164,98.288C51.427,99.709 52.828,100.188 54.372,99.725C56.371,99.126 57.587,98.782 58.019,98.688C60.378,98.173 61.226,99.788 62.711,101.154C63.566,101.942 64.591,102.382 65.787,102.473L66.614,98.537C65.074,98.783 63.664,98.519 62.39,97.738C61.146,96.975 60.181,96.366 59.492,95.912C58.594,95.321 57.476,95.056 56.629,95.402C54.462,96.286 52.436,96.265 50.552,95.326Z" style="fill:white;fill-opacity:0.5;"/>
    <path d="M141.806,98.074L141.481,95.267C140.115,96.007 138.385,96.36 136.884,95.908C135.281,95.426 134.076,94.858 132.525,95.885C130.291,97.363 128.324,98.838 125.485,98.636L126.21,102.449C128.407,102.334 129.345,101.181 130.767,99.658C131.716,98.642 132.893,98.343 134.303,98.763C135.606,99.151 136.825,99.484 137.957,99.765C139.553,100.161 140.836,99.598 141.806,98.074Z" style="fill:white;fill-opacity:0.5;"/>
    <path d="M90.75,100.628C90.743,100.727 90.845,100.794 90.933,100.747L94.975,98.533C95.062,98.486 95.062,98.363 94.975,98.316L91.281,96.372C91.202,96.332 91.111,96.383 91.103,96.471L90.75,100.628Z" style="fill:white;fill-opacity:0.65;"/>
    <path d="M97.042,98.308C96.955,98.355 96.955,98.478 97.042,98.525L101.057,100.723C101.144,100.77 101.247,100.703 101.239,100.608L100.894,96.467C100.886,96.376 100.791,96.324 100.716,96.368L97.042,98.308Z" style="fill:white;fill-opacity:0.65;"/>
    <path d="M154.547,144.913C153.64,144.291 153.085,143.721 152.888,143.198C150.841,137.773 148.984,131.665 147.285,124.883C144.914,115.388 143.085,106.452 141.806,98.074C140.836,99.598 139.553,100.161 137.957,99.765C136.825,99.484 135.606,99.151 134.303,98.763C132.893,98.343 131.716,98.642 130.767,99.658C129.345,101.181 128.407,102.334 126.21,102.449L128.649,112.981C129.35,113.618 130.181,114.355 131.143,115.19C132.153,116.066 133.143,117.154 134.113,118.449C134.901,119.502 135.446,120.595 135.752,121.731C136.21,123.43 135.879,124.879 134.75,126.07C136.536,129.008 138.918,133.368 141.909,139.148C142.831,140.93 143.188,142.561 142.982,144.038L144.233,146.112C147.673,147.562 151.72,147.759 154.547,144.913Z" style="fill:white;fill-opacity:0.65;"/>
    <path d="M50.164,98.288C48.532,108.736 46.386,118.92 43.73,128.83C42.605,133.027 41.171,137.563 39.402,142.426C39.012,143.5 38.365,144.315 37.466,144.881C40.744,148.322 45.634,147.241 49.578,145.475L53.735,139.449C53.834,139.306 54.032,139.275 54.166,139.382C56.311,141.082 58.577,142.585 60.965,143.895C62.576,144.754 64.232,145.421 65.949,145.875C66.179,145.935 66.413,145.97 66.65,145.974L68.776,146.029C69.045,146.037 69.315,146.077 69.576,146.148C72.439,146.93 73.579,147.298 75.598,147.668C76.097,147.76 76.94,147.898 78.128,148.076C79.32,148.255 80.207,148.353 80.785,148.365C81.462,148.38 82.186,148.475 82.959,148.638C83.283,148.707 83.612,148.741 83.94,148.737C85.378,148.723 86.962,148.814 88.684,149.003C89.535,149.096 91.281,149.09 93.922,148.983C97.054,148.611 100.136,148.015 103.163,147.177C103.575,147.063 104.632,147.003 106.334,146.991C109.767,146.968 112.837,145.8 115.872,144.109C116.086,143.99 116.201,143.745 116.149,143.503L113.928,132.52C112.317,132.528 110.777,132.555 109.209,132.255C105.333,131.513 101.691,130.288 98.269,128.616C98.139,128.552 97.988,128.524 97.838,128.541C97.382,128.593 96.979,128.68 96.626,128.786C95.807,129.033 94.963,128.637 94.179,128.553C94.005,128.534 93.831,128.565 93.672,128.644C90.295,130.323 86.617,131.529 82.65,132.283C80.975,132.6 78.805,132.564 77.396,132.48C75.21,132.351 73.226,131.514 71.425,129.998C71.33,129.918 71.211,129.884 71.088,129.899C68.191,130.264 66.353,130.454 65.577,130.497C64.991,130.529 64.219,130.291 63.273,129.76C63.189,129.714 63.099,129.677 63.004,129.65C60.87,129.03 59.143,127.73 57.413,126.173C55.31,124.281 55.895,121.396 57.33,119.276C58.642,117.337 59.805,115.959 60.814,115.139C61.816,114.324 62.671,113.595 63.376,112.949L65.787,102.473C64.591,102.382 63.566,101.942 62.711,101.154C61.226,99.788 60.378,98.173 58.019,98.688C57.587,98.782 56.371,99.126 54.372,99.725C52.828,100.188 51.427,99.709 50.164,98.288ZM62.738,129.772C61.484,130.957 60.501,132.041 59.496,133.696C58.129,135.945 57.319,137.287 57.057,137.719C56.903,137.972 57.1,138.289 57.393,138.265L57.433,138.261C57.856,138.229 58.245,138.016 58.506,137.679C59.983,135.775 61.007,134.194 61.586,132.94C62.206,131.597 62.693,130.621 63.043,130.014C63.091,129.931 63.072,129.823 62.996,129.76C62.921,129.7 62.81,129.705 62.738,129.772ZM68.309,134.504C67.908,135.03 67.227,136 66.254,137.406C65.81,138.047 65.452,138.867 65.177,139.869C65.055,140.312 65.359,140.743 65.779,140.728C66.001,140.72 66.229,140.533 66.464,140.169C67.004,139.333 67.356,138.443 67.513,137.497C67.704,136.349 68.012,135.802 68.38,134.543C68.393,134.5 68.336,134.468 68.309,134.504Z" style="fill:white;fill-opacity:0.65;"/>
    <path d="M96,105.276C96.179,105.276 96.282,105.272 96.301,105.264C98.374,104.419 100.118,103.711 101.563,103.229C101.698,103.184 101.773,103.043 101.738,102.904L101.429,101.728C101.393,101.602 101.29,101.505 101.163,101.475C101.084,101.456 99.34,100.683 96.096,98.866C96.075,98.855 96.044,98.85 96,98.85C95.953,98.85 95.922,98.855 95.902,98.866C92.657,100.683 90.913,101.456 90.834,101.475C90.707,101.505 90.604,101.598 90.568,101.728L90.259,102.904C90.224,103.043 90.299,103.184 90.434,103.229C91.879,103.711 93.623,104.419 95.696,105.264C95.715,105.272 95.818,105.276 96,105.276Z" style="fill:white;fill-opacity:0.65;"/>
    <path d="M88.751,108.265L94.829,105.858C94.947,105.811 94.947,105.64 94.829,105.593L90.287,103.799C90.224,103.775 90.153,103.811 90.133,103.874L88.64,108.158C88.616,108.226 88.684,108.293 88.751,108.265Z" style="fill:white;fill-opacity:0.65;"/>
    <path d="M103.25,108.277C103.321,108.305 103.389,108.238 103.365,108.17L101.876,103.87C101.856,103.807 101.785,103.772 101.722,103.795L97.165,105.585C97.042,105.628 97.042,105.799 97.165,105.85L103.25,108.277Z" style="fill:white;fill-opacity:0.65;"/>
    <path d="M105.174,111.876C102.708,112.078 101.116,112.074 100.399,111.868C99.212,111.527 98.261,111.195 97.545,110.875C97.129,110.688 96.792,110.447 96.539,110.154C96.258,109.829 95.752,109.83 95.466,110.158C95.193,110.471 94.837,110.72 94.405,110.902C93.586,111.247 92.651,111.57 91.602,111.868C90.893,112.07 89.297,112.07 86.819,111.876L88.003,109.544C88.098,109.358 88.256,109.212 88.45,109.136L95.498,106.345C95.818,106.218 96.175,106.218 96.495,106.345L103.602,109.148C103.713,109.196 103.808,109.279 103.864,109.386L105.174,111.876Z" style="fill:white;fill-opacity:0.65;"/>
    <path d="M134.75,126.07C135.879,124.879 136.21,123.43 135.752,121.731C135.446,120.595 134.901,119.502 134.113,118.449C133.143,117.154 132.153,116.066 131.143,115.19C130.181,114.355 129.35,113.618 128.649,112.981C125.224,110.419 121.736,108.21 118.188,106.345C117.729,106.983 117.207,107.467 116.625,107.798C114.469,109.025 112.096,110.057 109.518,110.898C108.508,111.228 107.498,111.476 106.485,111.647C106.093,111.872 105.657,111.951 105.174,111.876C102.708,112.078 101.116,112.074 100.399,111.868C99.212,111.527 98.261,111.195 97.545,110.875C97.129,110.688 96.792,110.447 96.539,110.154C96.258,109.829 95.752,109.83 95.466,110.158C95.193,110.471 94.837,110.72 94.405,110.902C93.586,111.247 92.651,111.57 91.602,111.868C90.893,112.07 89.297,112.07 86.819,111.876C86.415,111.951 85.987,111.884 85.532,111.674C81.846,110.894 78.321,109.511 74.965,107.517C74.652,107.331 74.264,106.939 73.793,106.349C70.273,108.206 66.801,110.403 63.376,112.949C62.671,113.595 61.816,114.324 60.814,115.139C59.805,115.959 58.642,117.337 57.33,119.276C55.895,121.396 55.31,124.281 57.413,126.173C59.143,127.73 60.87,129.03 63.004,129.65C63.099,129.677 63.189,129.714 63.273,129.76C64.219,130.291 64.991,130.529 65.577,130.497C66.353,130.454 68.191,130.264 71.088,129.899C71.211,129.884 71.33,129.918 71.425,129.998C73.226,131.514 75.21,132.351 77.396,132.48C78.805,132.564 80.975,132.6 82.65,132.283C86.617,131.529 90.295,130.323 93.672,128.644C93.831,128.565 94.005,128.534 94.179,128.553C94.963,128.637 95.807,129.033 96.626,128.786C96.979,128.68 97.382,128.593 97.838,128.541C97.988,128.524 98.139,128.552 98.269,128.616C101.691,130.288 105.333,131.513 109.209,132.255C110.777,132.555 112.317,132.528 113.928,132.52C116.486,132.469 118.707,131.629 120.596,129.998C120.683,129.923 120.802,129.887 120.92,129.903C123.382,130.225 125.209,130.418 126.392,130.505C126.966,130.547 127.709,130.305 128.645,129.808C128.759,129.747 128.875,129.698 128.997,129.661C131.329,128.958 132.834,127.713 134.75,126.07ZM127.996,125.457C128.194,125.626 128.504,125.496 128.522,125.235C128.68,123.007 127.402,121.022 126.151,119.284C123.794,116.01 121.065,112.852 117.987,109.786C117.59,109.391 117.005,109.239 116.466,109.402L116.431,109.41C115.983,109.544 115.812,110.083 116.098,110.447C118.383,113.36 121.055,116.956 124.108,121.236C125.212,122.784 126.51,124.186 127.996,125.457ZM73.856,111.856C72.639,112.275 71.543,113.035 70.566,114.125C67.902,117.096 65.907,119.644 64.556,121.755C64.335,122.1 62.488,124.739 62.786,125.837C62.874,126.161 63.305,126.225 63.483,125.94C65.17,123.23 67.158,120.56 69.457,117.934C71.01,116.161 72.551,114.24 74.109,112.201C74.243,112.026 74.066,111.784 73.856,111.856ZM118.323,128.406C118.031,126.634 117.545,124.906 116.898,123.208C115.74,120.17 113.929,116.606 111.489,112.506C111.251,112.106 110.753,111.947 110.329,112.134L110.302,112.141C109.906,112.316 109.735,112.787 109.925,113.175C110.94,115.239 112.104,117.581 113.406,120.211C114.911,123.251 116.202,125.228 118.196,128.454C118.236,128.517 118.335,128.481 118.323,128.406ZM77.823,128.874C78.024,129.073 78.361,129.008 78.477,128.751C80.115,125.104 81.959,121.431 83.976,117.716C84.464,116.818 84.707,115.919 84.705,115.016C84.704,114.644 84.297,114.418 83.98,114.612C83.144,115.126 82.487,115.839 82.008,116.754C80.21,120.19 78.412,123.905 77.681,127.646C77.562,128.252 77.608,128.661 77.823,128.874ZM101.837,127.516C101.888,127.504 101.908,126.245 101.896,123.73C101.884,121.113 101.256,118.398 100.019,115.582C99.864,115.23 99.576,115.099 99.152,115.19C98.732,115.281 98.524,115.523 98.53,115.907C98.584,118.983 99.135,121.716 100.209,124.099C101.241,126.388 101.785,127.527 101.837,127.516Z" style="fill:white;fill-opacity:0.85;"/>
    <path d="M127.996,125.457C128.194,125.626 128.504,125.496 128.522,125.235C128.68,123.007 127.402,121.022 126.151,119.284C123.794,116.01 121.065,112.852 117.987,109.786C117.59,109.391 117.005,109.239 116.466,109.402L116.431,109.41C115.983,109.544 115.812,110.083 116.098,110.447C118.383,113.36 121.055,116.956 124.108,121.236C125.212,122.784 126.51,124.186 127.996,125.457Z" style="fill:white;fill-opacity:0.65;"/>
    <path d="M73.856,111.856C72.639,112.275 71.543,113.035 70.566,114.125C67.902,117.096 65.907,119.644 64.556,121.755C64.335,122.1 62.488,124.739 62.786,125.837C62.874,126.161 63.305,126.225 63.483,125.94C65.17,123.23 67.158,120.56 69.457,117.934C71.01,116.161 72.551,114.24 74.109,112.201C74.243,112.026 74.066,111.784 73.856,111.856Z" style="fill:white;fill-opacity:0.65;"/>
    <path d="M118.323,128.406C118.031,126.634 117.545,124.906 116.898,123.208C115.74,120.17 113.929,116.606 111.489,112.506C111.251,112.106 110.753,111.947 110.329,112.134L110.302,112.141C109.906,112.316 109.735,112.787 109.925,113.175C110.94,115.239 112.104,117.581 113.406,120.211C114.911,123.251 116.202,125.228 118.196,128.454C118.236,128.517 118.335,128.481 118.323,128.406Z" style="fill:white;fill-opacity:0.65;"/>
    <path d="M214.42,118.583C212.848,124.641 210.335,130.213 206.877,135.3C205.868,136.784 204.815,138.301 203.71,139.857C203.358,140.352 202.71,141.575 202.601,142.335C202.36,144.022 202.988,145.335 204.498,146.267C205.803,147.073 206.619,147.543 206.94,147.68C208.185,148.212 209.518,148.773 210.931,149.379C211.664,147.09 212.281,144.726 212.792,142.292C213.729,137.833 214.694,132.987 215.694,127.753C215.821,127.092 216.467,126.664 217.124,126.815L217.171,126.827C217.868,126.985 218.351,127.614 218.32,128.327C217.938,137.033 216.756,145.309 214.752,153.152C215.754,154.946 217.269,156.247 219.309,157.044C219.381,157.072 219.448,157.115 219.503,157.171L219.773,157.448C219.887,157.369 220.038,157.369 220.224,157.448C221.522,157.999 222.671,158.37 223.669,158.56C226.619,159.125 228.483,159.424 229.267,159.447C230.083,159.472 230.784,159.482 231.46,159.582C232.906,159.797 234.327,159.871 235.717,159.796C235.642,159.079 235.601,158.359 235.59,157.638C235.573,156.557 235.556,155.836 235.535,155.484C235.003,146.653 234.004,137.884 232.625,129.178C232.376,127.61 231.672,124.582 231.552,122.812C231.543,122.693 231.559,122.57 231.603,122.452C231.658,122.305 231.705,122.205 231.742,122.159C232.076,121.735 232.728,121.774 233.005,122.222C233.421,122.895 233.749,123.655 233.987,124.499C234.747,127.199 235.364,129.737 235.839,132.116C237.636,141.108 238.52,150.234 238.484,159.495C240.357,159.376 241.988,159.159 243.386,158.842C244.744,158.533 246.351,158.022 248.216,157.313C249.535,156.743 250.504,156.267 251.126,155.884C252.048,155.316 253.011,154.736 254.021,154.13C254.67,153.477 255.343,152.811 256.044,152.127C256.721,151.465 257.358,150.764 257.964,150.032C259.096,148.665 260.24,147.316 261.401,145.974C262.244,144.999 262.929,143.757 263.448,142.24C262.351,138.784 261.093,135.493 259.667,132.374C258.226,129.222 256.687,126.085 255.05,122.966C254.888,122.657 254.991,122.277 255.284,122.091L255.303,122.079C255.608,121.885 256.008,121.968 256.21,122.261C256.943,123.326 257.607,124.155 258.202,124.752C258.293,124.843 258.371,124.947 258.439,125.057C260.563,128.466 262.722,131.806 264.798,135.145C265.317,135.98 265.808,136.867 266.263,137.806C267.284,136.816 267.837,135.869 267.922,134.963C268.248,131.482 266.026,127.863 263.828,125.132C260.872,121.46 257.671,117.93 254.23,114.533L252.607,112.945C249.353,114.287 246.304,115.092 243.461,115.352C240.638,115.611 237.063,115.578 232.731,115.261C229.861,115.052 228.088,116.063 225.32,117.32C222.901,118.419 220.315,118.87 217.559,118.666C216.494,118.588 215.449,118.56 214.42,118.583Z" style="fill:white;fill-opacity:0.75;"/>
    <path d="M77.823,128.874C78.024,129.073 78.361,129.008 78.477,128.751C80.115,125.104 81.959,121.431 83.976,117.716C84.464,116.818 84.707,115.919 84.705,115.016C84.704,114.644 84.297,114.418 83.98,114.612C83.144,115.126 82.487,115.839 82.008,116.754C80.21,120.19 78.412,123.905 77.681,127.646C77.562,128.252 77.608,128.661 77.823,128.874Z" style="fill:white;fill-opacity:0.65;"/>
    <path d="M101.837,127.516C101.888,127.504 101.908,126.245 101.896,123.73C101.884,121.113 101.256,118.398 100.019,115.582C99.864,115.23 99.576,115.099 99.152,115.19C98.732,115.281 98.524,115.523 98.53,115.907C98.584,118.983 99.135,121.716 100.209,124.099C101.241,126.388 101.785,127.527 101.837,127.516Z" style="fill:white;fill-opacity:0.65;"/>
    <path d="M238.484,159.495C238.52,150.234 237.636,141.108 235.839,132.116C235.364,129.737 234.747,127.199 233.987,124.499C233.749,123.655 233.421,122.895 233.005,122.222C232.728,121.774 232.076,121.735 231.742,122.159C231.705,122.205 231.658,122.305 231.603,122.452C231.559,122.57 231.543,122.693 231.552,122.812C231.672,124.582 232.376,127.61 232.625,129.178C234.004,137.884 235.003,146.653 235.535,155.484C235.556,155.836 235.573,156.557 235.59,157.638C235.601,158.359 235.642,159.079 235.717,159.796L238.484,159.495Z" style="fill:white;fill-opacity:0.6;"/>
    <path d="M263.448,142.24L264.105,140.344C264.176,140.142 264.287,139.952 264.43,139.793L266.263,137.806C265.808,136.867 265.317,135.98 264.798,135.145C262.722,131.806 260.563,128.466 258.439,125.057C258.371,124.947 258.293,124.843 258.202,124.752C257.607,124.155 256.943,123.326 256.21,122.261C256.008,121.968 255.608,121.885 255.303,122.079L255.284,122.091C254.991,122.277 254.888,122.657 255.05,122.966C256.687,126.085 258.226,129.222 259.667,132.374C261.093,135.493 262.351,138.784 263.448,142.24Z" style="fill:white;fill-opacity:0.6;"/>
    <path d="M142.982,144.038C139.747,148.068 133.535,149.073 128.879,150.167C127.291,150.54 125.977,151.027 124.595,151.604C123.625,152.009 122.536,152.284 121.32,152.431C119.368,152.668 117.619,152.663 116.078,152.42C114.716,152.204 113.181,152.468 111.755,152.02C111.644,151.985 111.529,151.964 111.414,151.956C110.111,151.866 108.341,151.658 106.097,151.331C104.727,151.131 103.179,151.216 102.217,150.891C101.302,150.583 100.167,150.825 99.069,150.468C98.946,150.428 98.823,150.4 98.701,150.388C97.034,150.227 95.442,149.755 93.922,148.983C97.054,148.611 100.136,148.015 103.163,147.177C103.575,147.063 104.632,147.003 106.334,146.991C109.767,146.968 112.837,145.8 115.872,144.109C116.086,143.99 116.201,143.745 116.149,143.503L113.928,132.52C116.486,132.469 118.707,131.629 120.596,129.998C120.683,129.923 120.802,129.887 120.92,129.903C123.382,130.225 125.209,130.418 126.392,130.505C126.966,130.547 127.709,130.305 128.645,129.808C128.759,129.747 128.875,129.698 128.997,129.661C131.329,128.958 132.834,127.713 134.75,126.07C136.536,129.008 138.918,133.368 141.909,139.148C142.831,140.93 143.188,142.561 142.982,144.038Z" style="fill:white;fill-opacity:0.5;"/>
    <path d="M210.931,149.379L214.186,150.523C214.38,150.59 214.495,150.792 214.455,150.99C214.311,151.699 214.408,152.42 214.752,153.152C216.756,145.309 217.938,137.033 218.32,128.327C218.351,127.614 217.868,126.985 217.171,126.827L217.124,126.815C216.467,126.664 215.821,127.092 215.694,127.753C214.694,132.987 213.729,137.833 212.792,142.292C212.281,144.726 211.664,147.09 210.931,149.379Z" style="fill:white;fill-opacity:0.6;"/>
    <path d="M62.738,129.772C61.484,130.957 60.501,132.041 59.496,133.696C58.129,135.945 57.319,137.287 57.057,137.719C56.903,137.972 57.1,138.289 57.393,138.265L57.433,138.261C57.856,138.229 58.245,138.016 58.506,137.679C59.983,135.775 61.007,134.194 61.586,132.94C62.206,131.597 62.693,130.621 63.043,130.014C63.091,129.931 63.072,129.823 62.996,129.76C62.921,129.7 62.81,129.705 62.738,129.772Z" style="fill:white;fill-opacity:0.55;"/>
    <path d="M68.309,134.504C67.908,135.03 67.227,136 66.254,137.406C65.81,138.047 65.452,138.867 65.177,139.869C65.055,140.312 65.359,140.743 65.779,140.728C66.001,140.72 66.229,140.533 66.464,140.169C67.004,139.333 67.356,138.443 67.513,137.497C67.704,136.349 68.012,135.802 68.38,134.543C68.393,134.5 68.336,134.468 68.309,134.504Z" style="fill:white;fill-opacity:0.55;"/>
    <path d="M42.003,156.735C40.103,159.61 38.224,162.438 36.357,165.22C35.42,166.618 34.647,168.019 34.041,169.425C33.681,170.26 33.764,171.039 34.299,171.761C34.369,171.856 34.464,171.928 34.576,171.975C34.997,172.15 35.336,172.359 35.585,172.616L38.99,173.606C39.133,173.649 39.279,173.67 39.426,173.673C40.253,173.69 40.99,173.697 41.639,173.713C42.284,173.729 43.004,173.612 43.809,173.364C44.885,173.033 45.947,172.544 46.992,171.891C47.645,171.484 48.505,170.855 49.574,170.003C50.457,169.299 51.482,168.589 52.65,167.877C53.339,167.243 54.131,166.93 55.03,166.938C57.52,166.961 59.294,166.974 60.359,166.974C62.232,166.974 63.728,166.807 64.841,166.475C66.757,165.904 68.412,165.264 69.822,164.575C70.058,164.459 70.34,164.468 70.566,164.602C71.009,164.867 71.468,165.216 71.948,165.656C74.144,167.668 76.418,169.78 78.774,172.002C79.764,172.936 80.797,173.363 82.293,173.57C86.772,174.189 91.143,175.553 95.403,177.664C95.874,177.898 97.066,178.325 98.978,178.939C100.811,179.528 102.022,179.89 102.605,180.024C105.383,180.664 108.31,180.445 111.386,179.371C114.162,178.401 116.157,177.648 117.365,177.11C114.926,176.71 112.622,176.417 110.456,176.231C102.058,175.494 95.368,174.957 88.161,173.321C85.592,172.738 83.184,171.944 80.931,170.941C79.058,170.107 77.383,168.942 75.911,167.457C74.22,165.751 73.497,163.509 71.674,161.633C69.265,159.153 67.831,157.736 67.383,157.377C66,156.269 64.838,155.234 63.898,154.265C63.491,153.844 62.815,153.428 62.366,153.077C62.046,152.826 60.725,151.499 58.399,149.098C57.762,148.44 57.577,147.764 57.849,147.067C58.024,146.616 58.502,146.054 59.282,145.38C59.84,144.897 60.398,144.402 60.965,143.895C58.577,142.585 56.311,141.082 54.166,139.382C54.032,139.275 53.834,139.306 53.735,139.449L49.578,145.475L42.003,156.735ZM41.904,169.718C43.892,167.326 45.548,164.888 46.881,162.405C48.76,158.906 50.772,154.716 52.302,150.575C52.891,148.979 53.341,147.374 53.668,145.768C53.714,145.538 53.474,145.36 53.268,145.467C53.153,145.527 53.061,145.641 52.987,145.811C50.3,151.93 47.832,157.076 45.547,161.233C44.09,163.882 42.828,166.679 41.691,169.591C41.667,169.651 41.69,169.715 41.742,169.746C41.797,169.778 41.865,169.765 41.904,169.718ZM57.67,153.453C56.424,156.173 55.21,158.993 54.056,161.922C53.751,162.694 53.311,163.371 52.717,163.949C52.619,164.045 52.725,164.206 52.852,164.151C55.951,162.798 57.077,156.736 57.849,153.516C57.86,153.469 57.833,153.421 57.789,153.405C57.742,153.389 57.69,153.409 57.67,153.453Z" style="fill:white;fill-opacity:0.6;"/>
    <path d="M154.575,171.016C155.26,171.195 155.965,171.1 156.685,170.723C158.273,169.893 156.319,166.753 155.521,165.418C153.934,162.763 152.274,159.99 150.536,157.107L144.233,146.112L142.982,144.038C139.747,148.068 133.535,149.073 128.879,150.167C127.291,150.54 125.977,151.027 124.595,151.604C123.625,152.009 122.536,152.284 121.32,152.431C119.368,152.668 117.619,152.663 116.078,152.42C114.716,152.204 113.181,152.468 111.755,152.02C111.644,151.985 111.529,151.964 111.414,151.956C110.111,151.866 108.341,151.658 106.097,151.331C104.727,151.131 103.179,151.216 102.217,150.891C101.302,150.583 100.167,150.825 99.069,150.468C98.946,150.428 98.823,150.4 98.701,150.388C97.034,150.227 95.442,149.755 93.922,148.983C91.281,149.09 89.535,149.096 88.684,149.003C86.962,148.814 85.378,148.723 83.94,148.737C83.612,148.741 83.283,148.707 82.959,148.638C82.186,148.475 81.462,148.38 80.785,148.365C80.207,148.353 79.32,148.255 78.128,148.076C76.94,147.898 76.097,147.76 75.598,147.668C73.579,147.298 72.439,146.93 69.576,146.148C69.315,146.077 69.045,146.037 68.776,146.029L66.65,145.974C66.413,145.97 66.179,145.935 65.949,145.875C64.232,145.421 62.576,144.754 60.965,143.895C60.398,144.402 59.84,144.897 59.282,145.38C58.502,146.054 58.024,146.616 57.849,147.067C57.577,147.764 57.762,148.44 58.399,149.098C60.725,151.499 62.046,152.826 62.366,153.077C62.815,153.428 63.491,153.844 63.898,154.265C64.838,155.234 66,156.269 67.383,157.377C67.831,157.736 69.265,159.153 71.674,161.633C73.497,163.509 74.22,165.751 75.911,167.457C77.383,168.942 79.058,170.107 80.931,170.941C83.184,171.944 85.592,172.738 88.161,173.321C95.368,174.957 102.058,175.494 110.456,176.231C112.622,176.417 114.926,176.71 117.365,177.11C118.866,177.32 120.481,177.6 122.219,177.945C122.857,178.072 123.509,178.027 124.104,178.298C124.297,178.386 124.508,178.432 124.721,178.432L129.944,178.432C130.055,178.432 130.162,178.401 130.253,178.345C130.92,177.933 131.482,178.147 132.141,177.807C132.398,177.674 132.715,177.613 133.091,177.625C133.456,177.636 133.704,177.265 133.555,176.936C132.586,174.804 131.741,172.644 131.005,170.462C129.404,165.719 127.871,161.017 126.38,156.359C126.274,156.026 126.432,155.666 126.749,155.52L126.768,155.512C127.069,155.373 127.426,155.515 127.548,155.825C129.513,160.804 131.235,165.798 132.747,170.791C133.376,172.869 133.806,174.944 134.022,177.015C134.034,177.13 134.121,177.218 134.236,177.233C134.315,177.243 134.435,177.17 134.596,177.011C134.632,176.975 134.671,176.951 134.715,176.936L136.956,176.076C136.983,176.069 137.007,176.065 137.035,176.065C137.399,176.059 137.916,175.857 138.567,175.447C138.659,175.389 138.762,175.35 138.872,175.328C139.23,175.256 139.629,175.112 140.068,174.916C140.797,174.591 141.164,174.425 141.168,174.421C142.273,173.927 144.213,173.241 146.989,172.371C148.176,171.998 149.377,171.66 150.588,171.349C151.122,171.212 152.448,171.1 154.575,171.016ZM142.277,159.131C144.727,164.326 146.019,167.057 146.149,167.318C146.476,167.979 146.81,168.543 147.163,169.013C147.38,169.302 147.784,169.342 147.974,169.092C148.489,168.415 147.712,166.595 147.27,165.671C147.059,165.232 145.915,162.809 143.833,158.394C141.753,153.984 140.612,151.556 140.408,151.113C139.981,150.185 139.066,148.434 138.215,148.397C137.902,148.383 137.674,148.718 137.759,149.074C137.895,149.641 138.122,150.261 138.421,150.931C138.54,151.2 139.825,153.932 142.277,159.131ZM95.826,172.058C96.058,170.402 96.355,168.467 96.777,166.261C97.003,165.074 97.371,161.413 97.956,155.29C97.983,155.013 97.751,154.783 97.473,154.811L97.45,154.815C97.149,154.847 96.906,155.076 96.856,155.373C95.838,161.337 94.862,166.526 95.62,172.054C95.627,172.105 95.672,172.143 95.723,172.145C95.775,172.147 95.819,172.109 95.826,172.058Z" style="fill:white;fill-opacity:0.75;"/>
    <path d="M37.466,144.881L33.198,147.51C33.138,147.546 33.079,147.589 33.028,147.633C32.475,148.105 31.728,148.843 30.787,149.842C29.669,151.029 28.833,153.026 30.581,154.055C31.298,154.477 32.05,154.695 32.838,154.716C32.972,154.72 33.051,154.87 32.976,154.985C31.203,157.69 34.385,158.892 36.488,158.509C38.341,158.172 40.178,157.579 42.003,156.735L49.578,145.475C45.634,147.241 40.744,148.322 37.466,144.881Z" style="fill:white;fill-opacity:0.5;"/>
    <path d="M150.536,157.107C152.979,157.99 154.824,158.481 156.071,158.584C157.782,158.726 159.825,157.95 159.472,155.856C159.465,155.813 159.389,155.67 159.243,155.433C159.128,155.247 159.052,155.092 159.021,154.977C158.989,154.859 159.068,154.74 159.187,154.724C161.143,154.461 162.957,153.804 162.264,151.39C162.233,151.283 162.188,151.181 162.129,151.085C161.726,150.434 161.048,149.616 160.078,148.631C159.536,148.08 158.693,147.465 157.552,146.785C156.519,146.171 155.517,145.546 154.547,144.913C151.72,147.759 147.673,147.562 144.233,146.112L150.536,157.107Z" style="fill:white;fill-opacity:0.5;"/>
    <path d="M41.904,169.718C43.892,167.326 45.548,164.888 46.881,162.405C48.76,158.906 50.772,154.716 52.302,150.575C52.891,148.979 53.341,147.374 53.668,145.768C53.714,145.538 53.474,145.36 53.268,145.467C53.153,145.527 53.061,145.641 52.987,145.811C50.3,151.93 47.832,157.076 45.547,161.233C44.09,163.882 42.828,166.679 41.691,169.591C41.667,169.651 41.69,169.715 41.742,169.746C41.797,169.778 41.865,169.765 41.904,169.718Z" style="fill:white;fill-opacity:0.5;"/>
    <path d="M142.277,159.131C144.727,164.326 146.019,167.057 146.149,167.318C146.476,167.979 146.81,168.543 147.163,169.013C147.38,169.302 147.784,169.342 147.974,169.092C148.489,168.415 147.712,166.595 147.27,165.671C147.059,165.232 145.915,162.809 143.833,158.394C141.753,153.984 140.612,151.556 140.408,151.113C139.981,150.185 139.066,148.434 138.215,148.397C137.902,148.383 137.674,148.718 137.759,149.074C137.895,149.641 138.122,150.261 138.421,150.931C138.54,151.2 139.825,153.932 142.277,159.131Z" style="fill:white;fill-opacity:0.65;"/>
    <path d="M57.67,153.453C56.424,156.173 55.21,158.993 54.056,161.922C53.751,162.694 53.311,163.371 52.717,163.949C52.619,164.045 52.725,164.206 52.852,164.151C55.951,162.798 57.077,156.736 57.849,153.516C57.86,153.469 57.833,153.421 57.789,153.405C57.742,153.389 57.69,153.409 57.67,153.453Z" style="fill:white;fill-opacity:0.5;"/>
    <path d="M245.005,208.935C245.14,203.871 245.086,198.815 244.843,193.775C244.642,189.621 244.483,185.694 244.673,182.692C244.859,179.751 245.53,176.826 246.676,173.911C247.457,171.924 249.133,167.662 251.704,161.126C252.583,158.893 253.355,156.561 254.021,154.13C253.011,154.736 252.048,155.316 251.126,155.884C250.504,156.267 249.535,156.743 248.216,157.313C243.798,166.681 239.146,175.394 234.248,183.441C232.859,185.722 230.837,188.651 228.321,192.326C228.256,192.42 228.274,192.546 228.36,192.615C228.548,192.763 228.737,192.923 228.923,193.086C234.811,198.239 239.948,203.369 244.364,208.44C244.578,208.685 244.791,208.852 245.005,208.935Z" style="fill:white;fill-opacity:0.6;"/>
    <path d="M95.826,172.058C96.058,170.402 96.355,168.467 96.777,166.261C97.003,165.074 97.371,161.413 97.956,155.29C97.983,155.013 97.751,154.783 97.473,154.811L97.45,154.815C97.149,154.847 96.906,155.076 96.856,155.373C95.838,161.337 94.862,166.526 95.62,172.054C95.627,172.105 95.672,172.143 95.723,172.145C95.775,172.147 95.819,172.109 95.826,172.058Z" style="fill:white;fill-opacity:0.65;"/>
    <path d="M166.5,204.849C167.589,204.108 170.12,202.666 169.141,200.973C167.318,197.82 165.384,194.198 163.352,190.1C160.265,183.876 157.338,177.514 154.575,171.016C152.448,171.1 151.122,171.212 150.588,171.349C149.377,171.66 148.176,171.998 146.989,172.371C144.213,173.241 142.273,173.927 141.168,174.421C141.164,174.425 140.797,174.591 140.068,174.916C139.629,175.112 139.23,175.256 138.872,175.328C138.762,175.35 138.659,175.389 138.567,175.447C137.916,175.857 137.399,176.059 137.035,176.065C137.007,176.065 136.983,176.069 136.956,176.076L134.715,176.936C134.671,176.951 134.632,176.975 134.596,177.011C134.435,177.17 134.315,177.243 134.236,177.233C134.121,177.218 134.034,177.13 134.022,177.015C133.806,174.944 133.376,172.869 132.747,170.791C131.235,165.798 129.513,160.804 127.548,155.825C127.426,155.515 127.069,155.373 126.768,155.512L126.749,155.52C126.432,155.666 126.274,156.026 126.38,156.359C127.871,161.017 129.404,165.719 131.005,170.462C131.741,172.644 132.586,174.804 133.555,176.936C133.704,177.265 133.456,177.636 133.091,177.625C132.715,177.613 132.398,177.674 132.141,177.807C131.482,178.147 130.92,177.933 130.253,178.345C130.162,178.401 130.055,178.432 129.944,178.432L124.721,178.432C124.508,178.432 124.297,178.386 124.104,178.298C123.509,178.027 122.857,178.072 122.219,177.945C120.481,177.6 118.866,177.32 117.365,177.11C116.157,177.648 114.162,178.401 111.386,179.371C108.31,180.445 105.383,180.664 102.605,180.024C102.022,179.89 100.811,179.528 98.978,178.939C97.066,178.325 95.874,177.898 95.403,177.664C91.143,175.553 86.772,174.189 82.293,173.57C80.797,173.363 79.764,172.936 78.774,172.002C76.418,169.78 74.144,167.668 71.948,165.656C71.468,165.216 71.009,164.867 70.566,164.602C70.34,164.468 70.058,164.459 69.822,164.575C68.412,165.264 66.757,165.904 64.841,166.475C63.728,166.807 62.232,166.974 60.359,166.974C59.294,166.974 57.52,166.961 55.03,166.938C54.131,166.93 53.339,167.243 52.65,167.877C52.44,169.662 52.278,171.369 52.163,172.992C52.036,174.786 53.528,175.657 54.329,176.979C55.938,179.637 57.905,182.043 60.22,184.201C62.806,186.612 66.221,189.397 66.824,192.622C66.946,193.272 67.084,193.806 67.232,194.23C67.276,194.356 67.297,194.456 67.292,194.527C67.282,194.658 67.244,194.757 67.177,194.82C67.307,194.887 67.387,194.958 67.414,195.034C69.405,200.47 75.36,201.085 80.076,202.687C82,203.341 82.621,204.165 84.103,206.064C85.159,207.419 86.423,208.59 87.892,209.58C91.348,210.966 94.987,211.58 98.8,211.421C99.968,211.445 101.108,211.431 102.217,211.382C104.984,211.258 108.441,211.19 111.137,211.354C114.36,211.55 117.103,212.092 119.368,212.981C122.372,214.16 123.886,214.752 123.914,214.763C125.12,215.253 126.946,215.66 128.578,215.67C130.161,215.679 131.476,215.66 132.521,215.618C133.143,215.593 134.54,215.287 136.71,214.704C137.791,214.413 139.145,213.948 140.772,213.306C144.823,211.708 147.725,210.551 149.487,209.842C150.881,209.28 152.702,208.717 154.955,208.151C156.645,207.652 158.807,207.123 161.436,206.555C163.083,206.2 164.77,205.629 166.5,204.849ZM143.001,175.661C142.559,176.497 143.755,179.002 144.154,179.85C147.555,187.086 151.388,193.728 155.679,199.773C156.345,200.711 158.127,202.79 158.95,203.083C159.136,203.149 159.251,203.174 159.298,203.158C159.464,203.103 159.534,202.972 159.508,202.762C159.397,201.86 158.629,200.477 158.051,199.619C152.825,191.86 148.159,183.883 144.063,175.685C143.845,175.249 143.228,175.233 143.001,175.661ZM83.244,178.341C82.496,179.011 81.8,179.837 81.157,180.816C78.341,185.102 76.122,188.288 74.462,190.354C73.5,191.55 72.468,192.629 71.358,193.581C71.196,193.72 71.263,193.984 71.469,194.032L71.484,194.036C71.793,194.107 72.114,194.048 72.375,193.866C73.361,193.18 74.078,192.591 74.525,192.1C77.648,188.674 80.341,184.957 82.598,180.946C82.97,180.285 83.248,179.406 83.56,178.555C83.632,178.361 83.398,178.203 83.244,178.341ZM130.466,208.127C129.579,206.173 128.487,203.756 127.592,201.99C123.939,194.787 120.696,187.586 117.895,180.372C117.78,180.076 117.464,179.913 117.159,179.996C116.712,180.119 116.542,180.479 116.64,181.077C116.74,181.683 116.887,182.253 117.08,182.791C118.563,186.941 120.463,191.537 122.809,196.57C124.837,200.921 126.837,205.221 130.245,208.289C130.359,208.393 130.529,208.266 130.466,208.127ZM90.996,207.894C91.265,207.894 91.511,207.735 91.621,207.49C92.219,206.171 92.639,205.11 92.877,204.298C94.741,197.944 96.448,191.193 97.992,184.039C98.087,183.591 97.766,183.16 97.311,183.128L97.267,183.124C96.78,183.088 96.341,183.421 96.246,183.904C94.86,190.928 93.391,197.52 91.843,203.681C91.669,204.374 91.285,205.688 90.687,207.616C90.644,207.755 90.746,207.894 90.889,207.894L90.996,207.894Z" style="fill:white;fill-opacity:0.65;"/>
    <path d="M219.773,157.448C218.312,167.414 215.78,177.09 213.26,186.901C212.024,191.712 211.124,195.834 211.434,200.212C211.596,202.493 213.22,203.123 214.653,204.508C219.064,208.773 224.349,212.84 228.835,216.252C229.033,216.402 229.188,216.572 229.295,216.758L244.261,227.096L252.378,219.617C250.236,216.062 247.863,212.723 245.294,209.584C245.155,209.414 245.057,209.196 245.005,208.935C244.791,208.852 244.578,208.685 244.364,208.44C239.948,203.369 234.811,198.239 228.923,193.086C228.737,192.923 228.548,192.763 228.36,192.615C228.274,192.546 228.256,192.42 228.321,192.326C230.837,188.651 232.859,185.722 234.248,183.441C239.146,175.394 243.798,166.681 248.216,157.313C246.351,158.022 244.744,158.533 243.386,158.842C241.988,159.159 240.357,159.376 238.484,159.495L235.717,159.796C234.327,159.871 232.906,159.797 231.46,159.582C230.784,159.482 230.083,159.472 229.267,159.447C228.483,159.424 226.619,159.125 223.669,158.56C222.671,158.37 221.522,157.999 220.224,157.448C220.038,157.369 219.887,157.369 219.773,157.448Z" style="fill:white;fill-opacity:0.95;"/>
    <path d="M35.585,172.616C32.715,178.155 29.953,183.66 27.295,189.13C26.586,190.588 25.989,192.092 25.505,193.648C25.066,195.058 25.43,196.134 26.59,196.883C27.869,197.709 29.583,198.621 31.733,199.615C36.021,201.574 40.483,202.644 45.119,202.826C46.307,202.872 47.214,202.635 48.287,202.612C49.566,202.584 50.872,202.244 52.218,201.99C55.501,200.886 58.807,199.432 62.129,197.635L67.177,194.82C67.244,194.757 67.282,194.658 67.292,194.527C67.297,194.456 67.276,194.356 67.232,194.23C67.084,193.806 66.946,193.272 66.824,192.622C66.221,189.397 62.806,186.612 60.22,184.201C57.905,182.043 55.938,179.637 54.329,176.979C53.528,175.657 52.036,174.786 52.163,172.992C52.278,171.369 52.44,169.662 52.65,167.877C51.482,168.589 50.457,169.299 49.574,170.003C48.505,170.855 47.645,171.484 46.992,171.891C45.947,172.544 44.885,173.033 43.809,173.364C43.004,173.612 42.284,173.729 41.639,173.713C40.99,173.697 40.253,173.69 39.426,173.673C39.279,173.67 39.133,173.649 38.99,173.606L35.585,172.616ZM48.762,174.845C48.81,174.948 48.997,177.157 49.316,181.477C49.578,185.021 49.475,189.934 49.993,193.482C50.196,194.867 50.565,196.608 51.494,197.473C51.613,197.583 51.804,197.5 51.803,197.338C51.769,191.126 51.301,184.953 50.488,178.812C50.188,176.544 49.807,175.106 49.348,174.493C49.241,174.35 49.048,174.315 48.897,174.406C48.743,174.498 48.688,174.686 48.762,174.845ZM33.883,195.719C34.057,195.616 34.222,195.409 34.378,195.101C35.57,192.737 36.041,191.193 37.098,188.006C38.385,184.122 39.436,180.184 40.285,176.207C40.348,175.914 40.226,175.613 39.98,175.443L39.964,175.435C39.747,175.285 39.447,175.38 39.355,175.625C37.317,181.039 35.387,186.296 33.657,191.435C33.327,192.416 32.961,194.119 33.15,195.073C33.246,195.552 33.614,195.877 33.883,195.719Z" style="fill:white;fill-opacity:0.75;"/>
    <path d="M48.762,174.845C48.81,174.948 48.997,177.157 49.316,181.477C49.578,185.021 49.475,189.934 49.993,193.482C50.196,194.867 50.565,196.608 51.494,197.473C51.613,197.583 51.804,197.5 51.803,197.338C51.769,191.126 51.301,184.953 50.488,178.812C50.188,176.544 49.807,175.106 49.348,174.493C49.241,174.35 49.048,174.315 48.897,174.406C48.743,174.498 48.688,174.686 48.762,174.845Z" style="fill:white;fill-opacity:0.65;"/>
    <path d="M33.883,195.719C34.057,195.616 34.222,195.409 34.378,195.101C35.57,192.737 36.041,191.193 37.098,188.006C38.385,184.122 39.436,180.184 40.285,176.207C40.348,175.914 40.226,175.613 39.98,175.443L39.964,175.435C39.747,175.285 39.447,175.38 39.355,175.625C37.317,181.039 35.387,186.296 33.657,191.435C33.327,192.416 32.961,194.119 33.15,195.073C33.246,195.552 33.614,195.877 33.883,195.719Z" style="fill:white;fill-opacity:0.65;"/>
    <path d="M143.001,175.661C142.559,176.497 143.755,179.002 144.154,179.85C147.555,187.086 151.388,193.728 155.679,199.773C156.345,200.711 158.127,202.79 158.95,203.083C159.136,203.149 159.251,203.174 159.298,203.158C159.464,203.103 159.534,202.972 159.508,202.762C159.397,201.86 158.629,200.477 158.051,199.619C152.825,191.86 148.159,183.883 144.063,175.685C143.845,175.249 143.228,175.233 143.001,175.661Z" style="fill:white;fill-opacity:0.5;"/>
    <path d="M83.244,178.341C82.496,179.011 81.8,179.837 81.157,180.816C78.341,185.102 76.122,188.288 74.462,190.354C73.5,191.55 72.468,192.629 71.358,193.581C71.196,193.72 71.263,193.984 71.469,194.032L71.484,194.036C71.793,194.107 72.114,194.048 72.375,193.866C73.361,193.18 74.078,192.591 74.525,192.1C77.648,188.674 80.341,184.957 82.598,180.946C82.97,180.285 83.248,179.406 83.56,178.555C83.632,178.361 83.398,178.203 83.244,178.341Z" style="fill:white;fill-opacity:0.5;"/>
    <path d="M130.466,208.127C129.579,206.173 128.487,203.756 127.592,201.99C123.939,194.787 120.696,187.586 117.895,180.372C117.78,180.076 117.464,179.913 117.159,179.996C116.712,180.119 116.542,180.479 116.64,181.077C116.74,181.683 116.887,182.253 117.08,182.791C118.563,186.941 120.463,191.537 122.809,196.57C124.837,200.921 126.837,205.221 130.245,208.289C130.359,208.393 130.529,208.266 130.466,208.127Z" style="fill:white;fill-opacity:0.5;"/>
    <path d="M90.996,207.894C91.265,207.894 91.511,207.735 91.621,207.49C92.219,206.171 92.639,205.11 92.877,204.298C94.741,197.944 96.448,191.193 97.992,184.039C98.087,183.591 97.766,183.16 97.311,183.128L97.267,183.124C96.78,183.088 96.341,183.421 96.246,183.904C94.86,190.928 93.391,197.52 91.843,203.681C91.669,204.374 91.285,205.688 90.687,207.616C90.644,207.755 90.746,207.894 90.889,207.894L90.996,207.894Z" style="fill:white;fill-opacity:0.5;"/>
    <path d="M87.892,209.58C85.797,209.687 83.731,209.922 81.688,210.281C79.835,210.607 78.159,210.23 76.667,209.157C75.435,208.27 74.572,207.613 74.078,207.185C70.184,203.817 66.203,200.632 62.129,197.635L67.177,194.82C67.307,194.887 67.387,194.958 67.414,195.034C69.405,200.47 75.36,201.085 80.076,202.687C82,203.341 82.621,204.165 84.103,206.064C85.159,207.419 86.423,208.59 87.892,209.58Z" style="fill:white;fill-opacity:0.45;"/>
    <path d="M74.387,242.898L76.232,244.501C76.327,244.581 76.386,244.699 76.394,244.826C76.427,245.388 76.405,245.796 76.335,246.053C75.865,247.774 75.613,249.72 75.57,251.885C75.514,254.728 77.891,255.286 80.116,255.714C82.967,256.263 85.813,256.656 88.66,256.89C90.311,256.854 91.95,256.828 93.581,256.791C94.049,256.781 95.129,256.676 96.82,256.478C98.922,256.232 100.925,256.47 102.822,257.211C102.993,257.277 103.072,257.417 103.068,257.63C103.175,257.436 103.317,257.366 103.503,257.425C106.285,258.306 108.828,258.607 111.121,258.351C118.295,257.55 124.283,255.76 131.959,253.707C134.339,253.07 136.766,252.673 139.24,252.511C140.266,252.444 141.719,252.52 143.599,252.741C147.685,253.221 151.411,253.062 155.295,251.589C159.477,250.002 162.521,248.756 165.874,248.009C168.012,247.533 170.792,247.731 172.613,247.285C175.836,246.495 178.407,244.7 180.322,241.9C180.647,241.425 180.646,240.804 180.326,240.328C179.66,239.339 179.083,238.257 178.592,237.089C174.146,226.514 170.115,215.765 166.5,204.849C164.77,205.629 163.083,206.2 161.436,206.555C158.807,207.123 156.645,207.652 154.955,208.151C150.841,210.507 146.62,212.538 142.297,214.244C133.487,217.721 124.449,218.669 115.247,216.861C115.14,216.84 115.057,216.952 115.112,217.047C115.279,217.336 115.486,217.645 115.619,217.99C116.266,219.673 117.626,223.56 119.721,229.638C121.784,235.625 124.495,241.92 127.853,248.528C128.209,249.229 128.507,249.932 128.736,250.638C128.785,250.788 128.626,250.926 128.487,250.852C127.366,250.254 126.265,249.059 125.616,247.954C123.812,244.879 122.29,241.758 121.047,238.602C118.591,232.363 116.365,225.679 114.372,218.556C114.193,217.919 114.156,217.344 114.265,216.842C114.288,216.735 114.225,216.631 114.118,216.6C108.999,215.1 103.887,213.389 98.8,211.421C94.987,211.58 91.348,210.966 87.892,209.58C85.797,209.687 83.731,209.922 81.688,210.281C79.835,210.607 78.159,210.23 76.667,209.157C75.435,208.27 74.572,207.613 74.078,207.185C70.184,203.817 66.203,200.632 62.129,197.635C58.807,199.432 55.501,200.886 52.218,201.99L49.993,205.601C49.922,205.712 49.882,205.843 49.874,205.973C49.833,206.682 49.977,207.323 50.298,207.897C52.846,212.456 55.75,217.008 59.005,221.549C59.919,222.883 60.443,223.79 60.58,224.265C60.871,225.267 59.912,226.281 59.686,226.962C59.239,228.304 59.439,229.508 60.291,230.58C61.292,231.84 62.742,233.261 64.631,234.845C67.814,237.513 71.065,240.198 74.387,242.898ZM63.217,221.474C64.393,219.451 64.321,219.609 62.996,221.953C62.754,222.381 63.166,222.875 63.629,222.717C63.934,222.614 64.223,222.361 64.504,221.953C67.233,217.991 69.164,213.662 70.305,208.97C70.305,208.963 70.305,208.959 70.297,208.955C70.293,208.955 70.285,208.959 70.281,208.963C67.925,213.132 65.573,217.305 63.217,221.474ZM170.954,244.212C170.975,244.114 170.975,243.967 170.954,243.781C170.777,242.204 170.293,240.32 169.533,238.127C166.489,229.345 163.11,220.718 159.377,212.261C159.089,211.607 158.8,211.131 158.506,210.827C158.195,210.506 157.651,210.768 157.706,211.211C157.798,211.944 157.97,212.621 158.225,213.243C160.385,218.513 163.341,226.094 167.062,236.005C168.183,238.99 169.422,241.658 170.701,244.244C170.757,244.358 170.928,244.335 170.954,244.212ZM88.537,253.034C89.836,251.874 90.874,250.397 91.653,248.607C92.974,245.571 93.827,243.492 94.215,242.371C97.095,234.046 99.271,225.584 100.807,216.992C100.913,216.402 101.054,215.262 101.215,213.575C101.244,213.274 101.096,212.981 100.835,212.831L100.819,212.819C100.605,212.692 100.329,212.811 100.273,213.053C98.123,222.213 95.759,230.359 93.316,237.525C92.283,240.542 91.061,243.942 89.658,247.732C89.075,249.308 88.63,251.093 88.141,252.784C88.074,253.018 88.355,253.196 88.537,253.034ZM151.197,246.778C151.352,246.964 151.649,246.92 151.744,246.695C152.456,245.004 152.219,242.925 151.858,240.847C150.491,232.975 148.487,225.308 145.892,217.823C145.609,217.008 145.123,215.826 144.419,214.28C144.269,213.951 143.884,213.801 143.552,213.943L143.54,213.951C143.223,214.086 143.057,214.438 143.152,214.767C145.827,224.042 147.817,232.658 149.131,240.617C149.449,242.545 149.997,245.33 151.197,246.778ZM82.559,215.887C81.68,216.347 81.12,218.944 80.959,219.914C79.744,227.226 78.543,234.054 77.305,240.388C77.116,241.354 76.757,242.117 76.564,243.096C76.528,243.282 76.541,243.412 76.608,243.488C76.775,243.677 77.084,243.651 77.261,243.436C78.269,242.214 78.739,240.043 79.027,238.772C80.176,233.701 81.371,227.547 82.638,220.31C82.898,218.821 82.993,217.42 82.931,216.101C82.922,215.915 82.725,215.8 82.559,215.887Z" style="fill:white;fill-opacity:0.55;"/>
    <path d="M31.733,199.615C29.243,209.188 26.507,218.651 23.525,227.999C22.326,231.772 21.244,235.576 20.294,239.414C19.821,241.325 19.514,243.302 19.372,245.345C22.381,243.226 25.493,241.847 28.704,241.207C32.232,240.505 35.209,239.783 37.644,239.049C40.4,238.219 44.085,236.59 45.345,233.938C45.413,233.796 45.448,233.645 45.448,233.49L45.448,231.471C45.448,230.968 45.745,230.513 46.204,230.311C49.634,228.801 52.921,226.998 56.079,224.915C57.491,223.983 58.466,222.86 59.005,221.549C55.75,217.008 52.846,212.456 50.298,207.897C49.977,207.323 49.833,206.682 49.874,205.973C49.882,205.843 49.922,205.712 49.993,205.601L52.218,201.99C50.872,202.244 49.566,202.584 48.287,202.612C47.214,202.635 46.307,202.872 45.119,202.826C40.483,202.644 36.021,201.574 31.733,199.615ZM29.492,237.22C30.082,235.511 30.573,233.76 30.933,231.958C32.671,223.268 33.775,215.194 34.251,207.739C34.365,205.961 34.289,204.628 34.029,203.736C33.898,203.285 33.266,203.277 33.119,203.724C33.115,203.736 33.091,203.958 33.051,204.39C32.503,210.301 31.582,216.845 30.312,224.016C29.42,229.044 28.434,232.786 29.128,237.188C29.158,237.383 29.428,237.406 29.492,237.22ZM46.901,228.308C46.992,228.281 47.007,227.951 46.945,227.318C46.721,225.057 46.299,222.836 45.67,220.65C44.458,216.442 43.158,212.41 41.766,208.559C41.485,207.782 41.137,207.46 40.717,207.585C40.297,207.709 40.182,208.175 40.372,208.974C41.319,212.957 42.442,217.043 43.734,221.228C44.404,223.402 45.262,225.495 46.319,227.504C46.615,228.067 46.806,228.336 46.901,228.308Z" style="fill:white;fill-opacity:0.5;"/>
    <path d="M29.492,237.22C30.082,235.511 30.573,233.76 30.933,231.958C32.671,223.268 33.775,215.194 34.251,207.739C34.365,205.961 34.289,204.628 34.029,203.736C33.898,203.285 33.266,203.277 33.119,203.724C33.115,203.736 33.091,203.958 33.051,204.39C32.503,210.301 31.582,216.845 30.312,224.016C29.42,229.044 28.434,232.786 29.128,237.188C29.158,237.383 29.428,237.406 29.492,237.22Z" style="fill:white;fill-opacity:0.4;"/>
    <path d="M46.901,228.308C46.992,228.281 47.007,227.951 46.945,227.318C46.721,225.057 46.299,222.836 45.67,220.65C44.458,216.442 43.158,212.41 41.766,208.559C41.485,207.782 41.137,207.46 40.717,207.585C40.297,207.709 40.182,208.175 40.372,208.974C41.319,212.957 42.442,217.043 43.734,221.228C44.404,223.402 45.262,225.495 46.319,227.504C46.615,228.067 46.806,228.336 46.901,228.308Z" style="fill:white;fill-opacity:0.4;"/>
    <path d="M98.8,211.421C103.887,213.389 108.999,215.1 114.118,216.6C114.225,216.631 114.288,216.735 114.265,216.842C114.156,217.344 114.193,217.919 114.372,218.556C116.365,225.679 118.591,232.363 121.047,238.602C122.29,241.758 123.812,244.879 125.616,247.954C126.265,249.059 127.366,250.254 128.487,250.852C128.626,250.926 128.785,250.788 128.736,250.638C128.507,249.932 128.209,249.229 127.853,248.528C124.495,241.92 121.784,235.625 119.721,229.638C117.626,223.56 116.266,219.673 115.619,217.99C115.486,217.645 115.279,217.336 115.112,217.047C115.057,216.952 115.14,216.84 115.247,216.861C124.449,218.669 133.487,217.721 142.297,214.244C146.62,212.538 150.841,210.507 154.955,208.151C152.702,208.717 150.881,209.28 149.487,209.842C147.725,210.551 144.823,211.708 140.772,213.306C139.145,213.948 137.791,214.413 136.71,214.704C134.54,215.287 133.143,215.593 132.521,215.618C131.476,215.66 130.161,215.679 128.578,215.67C126.946,215.66 125.12,215.253 123.914,214.763C123.886,214.752 122.372,214.16 119.368,212.981C117.103,212.092 114.36,211.55 111.137,211.354C108.441,211.19 104.984,211.258 102.217,211.382C101.108,211.431 99.968,211.445 98.8,211.421Z" style="fill:white;fill-opacity:0.45;"/>
    <path d="M63.217,221.474C64.393,219.451 64.321,219.609 62.996,221.953C62.754,222.381 63.166,222.875 63.629,222.717C63.934,222.614 64.223,222.361 64.504,221.953C67.233,217.991 69.164,213.662 70.305,208.97C70.305,208.963 70.305,208.959 70.297,208.955C70.293,208.955 70.285,208.959 70.281,208.963C67.925,213.132 65.573,217.305 63.217,221.474Z" style="fill:white;fill-opacity:0.45;"/>
    <path d="M170.954,244.212C170.975,244.114 170.975,243.967 170.954,243.781C170.777,242.204 170.293,240.32 169.533,238.127C166.489,229.345 163.11,220.718 159.377,212.261C159.089,211.607 158.8,211.131 158.506,210.827C158.195,210.506 157.651,210.768 157.706,211.211C157.798,211.944 157.97,212.621 158.225,213.243C160.385,218.513 163.341,226.094 167.062,236.005C168.183,238.99 169.422,241.658 170.701,244.244C170.757,244.358 170.928,244.335 170.954,244.212Z" style="fill:white;fill-opacity:0.45;"/>
    <path d="M88.537,253.034C89.836,251.874 90.874,250.397 91.653,248.607C92.974,245.571 93.827,243.492 94.215,242.371C97.095,234.046 99.271,225.584 100.807,216.992C100.913,216.402 101.054,215.262 101.215,213.575C101.244,213.274 101.096,212.981 100.835,212.831L100.819,212.819C100.605,212.692 100.329,212.811 100.273,213.053C98.123,222.213 95.759,230.359 93.316,237.525C92.283,240.542 91.061,243.942 89.658,247.732C89.075,249.308 88.63,251.093 88.141,252.784C88.074,253.018 88.355,253.196 88.537,253.034Z" style="fill:white;fill-opacity:0.45;"/>
    <path d="M151.197,246.778C151.352,246.964 151.649,246.92 151.744,246.695C152.456,245.004 152.219,242.925 151.858,240.847C150.491,232.975 148.487,225.308 145.892,217.823C145.609,217.008 145.123,215.826 144.419,214.28C144.269,213.951 143.884,213.801 143.552,213.943L143.54,213.951C143.223,214.086 143.057,214.438 143.152,214.767C145.827,224.042 147.817,232.658 149.131,240.617C149.449,242.545 149.997,245.33 151.197,246.778Z" style="fill:white;fill-opacity:0.45;"/>
    <path d="M82.559,215.887C81.68,216.347 81.12,218.944 80.959,219.914C79.744,227.226 78.543,234.054 77.305,240.388C77.116,241.354 76.757,242.117 76.564,243.096C76.528,243.282 76.541,243.412 76.608,243.488C76.775,243.677 77.084,243.651 77.261,243.436C78.269,242.214 78.739,240.043 79.027,238.772C80.176,233.701 81.371,227.547 82.638,220.31C82.898,218.821 82.993,217.42 82.931,216.101C82.922,215.915 82.725,215.8 82.559,215.887Z" style="fill:white;fill-opacity:0.45;"/>
    <path d="M229.295,216.758L232.617,259.594C235.788,260.073 238.912,260.845 241.984,261.91C243.406,252.091 244.304,242.359 244.689,232.718C243.394,231.792 242.109,230.699 242.677,229.092C242.965,228.276 243.493,227.611 244.261,227.096L229.295,216.758Z" style="fill:white;fill-opacity:0.6;"/>
    <path d="M244.689,232.718C247.607,234.251 250.569,235.715 253.577,237.105C255.375,237.936 257.065,238.923 258.352,240.186C262.789,244.538 267.383,249.51 272.142,255.096C273.064,256.178 275.096,258.509 276.806,258.763C278.517,259.016 279.829,257.464 280.148,255.861C280.383,254.681 280.536,253.449 280.607,252.171C280.73,249.985 280.267,247.776 280.31,245.515C280.321,244.953 280.231,243.983 280.037,242.605C279.457,238.472 278.952,234.289 277.935,231.067C277.189,228.703 274.443,228.314 272.305,228.324C271.006,228.329 269.589,228.252 268.052,228.094C266.698,227.955 265.704,227.707 265.075,227.35C264.136,226.816 263.286,226.162 262.529,225.39C258.622,221.402 256.437,219.164 255.98,218.675C255.885,218.572 255.763,218.493 255.628,218.445C254.896,218.187 254.183,218.283 253.486,218.73C253.047,219.012 252.678,219.304 252.378,219.617L244.261,227.096C243.493,227.611 242.965,228.276 242.677,229.092C242.109,230.699 243.394,231.792 244.689,232.718Z" style="fill:white;fill-opacity:0.85;"/>
    <path d="M19.372,245.345C19.582,246.901 20.385,247.924 21.787,248.405C22.923,248.795 24.63,249.193 26.907,249.601C34.909,251.036 43.029,252.068 51.26,252.681C54.629,252.932 58.815,252.996 63.807,252.867C65.613,252.821 67.095,252.473 68.198,251.2C70.193,248.899 72.253,246.129 74.387,242.898C71.065,240.198 67.814,237.513 64.631,234.845C62.742,233.261 61.292,231.84 60.291,230.58C59.439,229.508 59.239,228.304 59.686,226.962C59.912,226.281 60.871,225.267 60.58,224.265C60.443,223.79 59.919,222.883 59.005,221.549C58.466,222.86 57.491,223.983 56.079,224.915C52.921,226.998 49.634,228.801 46.204,230.311C45.745,230.513 45.448,230.968 45.448,231.471L45.448,233.49C45.448,233.645 45.413,233.796 45.345,233.938C44.085,236.59 40.4,238.219 37.644,239.049C35.209,239.783 32.232,240.505 28.704,241.207C25.493,241.847 22.381,243.226 19.372,245.345Z" style="fill:white;fill-opacity:0.35;"/>
    <path d="M88.66,256.89C88.838,257.377 88.941,257.69 88.965,257.82C89.753,262.064 90.41,266.531 90.901,271.231C90.909,271.306 90.958,272.201 91.055,273.915C91.106,274.798 91.222,275.685 91.408,276.576C91.459,279.525 91.482,282.507 91.459,285.512C91.456,285.967 91.668,286.411 92.093,286.834C92.678,287.417 94.065,287.388 94.947,287.654C95.288,287.757 95.648,287.788 96.004,287.745C97.802,287.528 98.938,287.328 99.417,287.135C100.141,286.844 100.504,286.24 100.506,285.322C100.514,282.416 100.542,279.517 100.609,276.627L101.041,271.516C101.041,271.492 101.044,271.468 101.049,271.444C101.244,270.46 101.367,269.465 101.357,268.447C101.357,268.42 101.361,268.392 101.365,268.364L103.068,257.63C103.072,257.417 102.993,257.277 102.822,257.211C100.925,256.47 98.922,256.232 96.82,256.478C95.129,256.676 94.049,256.781 93.581,256.791C91.95,256.828 90.311,256.854 88.66,256.89Z" style="fill:white;fill-opacity:0.95;"/>
    <path d="M232.617,259.594C231.492,259.21 230.634,259.196 230.039,259.547C229.79,259.694 229.611,259.947 229.501,260.303C229.129,261.499 229.22,262.833 229.045,263.87C228.891,264.785 228.819,265.656 228.824,266.487C228.844,269.987 228.668,272.913 228.796,276.837C228.836,278.076 228.855,280.642 228.855,284.534C228.855,284.772 228.744,284.993 228.554,285.132C225.331,287.49 221.433,290.386 216.859,293.819C216.252,294.273 215.541,294.987 215.469,295.644C215.348,296.733 215.774,297.484 216.76,297.897C217.496,298.205 218.098,298.365 218.565,298.372C221.946,298.422 224.292,298.564 227.129,298.13C227.477,298.077 228.57,298.02 230.407,297.952C232.209,297.885 235.504,297.377 240.294,296.408C241.09,296.247 241.801,295.947 242.424,295.513C242.708,295.315 242.895,294.998 242.931,294.65C243.115,292.864 243.169,290.722 243.105,288.228C243.092,287.741 242.974,286.284 242.756,283.857C242.554,281.596 242.595,279.684 242.879,278.112C243.646,273.868 244.213,269.976 244.582,266.432C244.815,264.183 243.948,262.675 241.984,261.91C238.912,260.845 235.788,260.073 232.617,259.594Z" style="fill:white;fill-opacity:0.85;"/>
    <path d="M91.408,276.576C87.619,276.683 82.689,277.143 76.612,277.954C72.451,278.509 68.408,279.524 64.492,281.01C62.564,281.742 61.035,282.799 59.907,284.182C59.262,284.973 59.151,285.928 59.567,287.04C60.778,288.525 62.283,289.63 64.077,290.35C66.436,291.297 68.388,291.947 69.932,292.306C76.147,293.75 81.937,294.57 87.294,294.781C91.325,294.939 96.088,295.353 99.168,295.169C102.026,294.997 104.335,294.885 106.097,294.832C109.882,294.719 115.12,294.045 121.815,292.809C126.919,291.867 131.092,290.057 134.342,287.377C134.786,285.983 134.644,284.843 133.919,283.96C131.793,281.37 126.74,279.904 123.565,279.165C119.649,278.254 115.702,277.596 111.723,277.193C110.092,277.028 109.05,277.084 107.787,276.869C105.633,276.502 102.945,276.592 100.609,276.627C100.542,279.517 100.514,282.416 100.506,285.322C100.504,286.24 100.141,286.844 99.417,287.135C98.938,287.328 97.802,287.528 96.004,287.745C95.648,287.788 95.288,287.757 94.947,287.654C94.065,287.388 92.678,287.417 92.093,286.834C91.668,286.411 91.456,285.967 91.459,285.512C91.482,282.507 91.459,279.525 91.408,276.576Z" style="fill:white;fill-opacity:0.85;"/>
    <path d="M59.567,287.04C59.496,287.931 59.642,288.802 59.44,289.661C59.127,290.995 59.549,292.15 60.707,293.122C63.078,295.11 66.548,296.228 69.505,296.982C74.142,298.164 79.446,298.983 85.417,299.429C87.385,299.576 89.986,299.737 93.221,299.916C95.296,300.03 97.751,300.028 100.589,299.908C101.975,299.849 104.426,299.705 107.942,299.472C113.057,299.134 118.034,298.429 122.868,297.362C126.032,296.664 128.957,295.638 131.654,294.282C132.782,293.715 133.735,292.845 134.461,291.653C134.526,291.547 134.566,291.423 134.576,291.296C134.696,289.801 134.596,288.493 134.342,287.377C131.092,290.057 126.919,291.867 121.815,292.809C115.12,294.045 109.882,294.719 106.097,294.832C104.335,294.885 102.026,294.997 99.168,295.169C96.088,295.353 91.325,294.939 87.294,294.781C81.937,294.57 76.147,293.75 69.932,292.306C68.388,291.947 66.436,291.297 64.077,290.35C62.283,289.63 60.778,288.525 59.567,287.04Z" style="fill:white;fill-opacity:0.7;"/>
</svg>
