<?xml version="1.0" encoding="UTF-8" standalone="no"?>
<!DOCTYPE svg PUBLIC "-//W3C//DTD SVG 1.1//EN" "http://www.w3.org/Graphics/SVG/1.1/DTD/svg11.dtd">
<svg width="100%" height="100%" viewBox="0 0 300 300" version="1.1" xmlns="http://www.w3.org/2000/svg" xmlns:xlink="http://www.w3.org/1999/xlink" xml:space="preserve" xmlns:serif="http://www.serif.com/" style="fill-rule:evenodd;clip-rule:evenodd;stroke-linejoin:round;stroke-miterlimit:2;">
    <path d="M155.918,45.221C156.379,42.897 156.571,40.585 156.497,38.287C156.491,38.079 156.561,37.874 156.692,37.714C158.032,36.074 158.364,34.223 157.693,32.168C157.312,31.004 157.018,30.186 155.947,29.815C155.839,29.776 155.723,29.764 155.608,29.776C154.624,29.901 153.613,30.099 153.092,29.303C152.808,28.865 152.923,28.434 152.968,27.781C152.974,27.705 152.907,27.641 152.83,27.65C151.014,27.833 148.38,27.954 148.348,25.38C148.345,25.061 148.3,24.121 148.22,22.561C148.204,22.244 147.779,22.152 147.635,22.436C147.111,23.469 146.308,24.06 145.097,24.246C143.879,24.434 142.616,24.444 141.315,24.278C140.691,24.198 140.094,24.463 140.042,25.093C139.854,27.452 139.349,29.626 136.954,30.553C134.819,31.1 132.594,31.397 130.794,29.84C130.711,29.77 130.586,29.84 130.608,29.946C131.206,32.733 129.074,34.917 126.746,36.033C126.609,36.1 126.558,36.266 126.628,36.397C128.751,40.307 129.943,44.022 131.344,48.606C131.89,50.4 132.916,51.957 134.422,53.274C135.81,54.489 137.373,55.176 139.109,55.333C138.94,55.365 139.646,56.538 139.79,57.091C140.119,58.347 139.899,59.671 139.131,61.062C138.23,62.161 137.351,62.999 136.491,63.574C135.567,64.195 134.62,64.575 133.658,64.719C131.619,65.019 130.199,64.188 129.4,62.225C129.384,62.19 129.377,62.152 129.374,62.113L129.355,61.579C129.345,61.301 129.019,61.157 128.805,61.336C127.913,62.091 126.855,62.344 125.637,62.097C125.372,62.152 125.097,62.152 124.809,62.104C123.987,62.117 121.268,59.067 121.203,58.61C120.698,56.995 120.199,55.381 119.704,53.773C119.118,51.867 118.549,50.336 117.99,49.175C117.693,48.552 117.194,48.018 116.497,47.574C114.838,46.547 113.057,45.662 111.155,44.914C111.344,44.907 111.484,44.882 111.577,44.837C111.705,44.776 111.727,44.607 111.618,44.517C110.631,43.699 109.953,43.124 109.588,42.788C109.387,42.606 109.067,42.085 108.629,41.228C108.409,40.793 108.281,40.202 108.252,39.45C108.214,38.424 108.242,37.609 108.335,37.005C108.597,35.323 109.288,34.466 110.528,33.446C110.653,33.344 110.653,33.155 110.531,33.05C109.774,32.395 109.425,31.691 109.387,30.643C109.297,28.165 109.352,25.253 110.707,23.318C111.641,21.989 112.482,20.997 113.233,20.342C113.786,19.859 114.329,19.856 114.863,20.326C115.004,20.448 115.221,20.358 115.234,20.173C115.375,18.066 116.078,16.714 117.079,14.508C117.574,13.418 118.422,12.321 119.624,11.218C120.778,10.16 122.629,9.891 123.78,11.167C123.815,11.208 123.86,11.237 123.907,11.26L123.987,11.295C124.237,11.403 124.489,11.148 124.381,10.898C123.93,9.869 123.751,8.734 123.84,7.49C123.949,5.988 125.007,5.627 126.427,5.46C129.218,5.131 131.567,4.894 133.476,4.751C133.639,4.738 133.773,4.623 133.815,4.463C134.013,3.676 134.531,3.171 135.372,2.948C136.861,2.548 138.255,3.718 139.752,3.648C140.135,3.632 140.455,3.35 140.525,2.973C140.618,2.481 140.704,2.107 140.791,1.854C141.877,-1.416 147.392,0.326 149.589,1.87C150.186,2.292 150.976,2.797 151.954,3.389C152.005,3.421 152.05,3.459 152.089,3.501L153.051,4.568C153.169,4.699 153.383,4.613 153.38,4.437C153.358,3.577 153.792,3.2 154.681,3.306C155.084,3.354 155.918,3.529 157.188,3.836C160.186,4.562 161.133,5.93 163.204,8.235C163.316,8.36 163.415,8.494 163.498,8.638C164.231,9.891 164.761,10.46 164.47,11.928C164.448,12.046 164.537,12.155 164.656,12.155C167.069,12.168 168.818,13.539 170.142,15.691C171.932,18.6 170.589,22.427 169.042,25.099C168.962,25.237 168.994,25.412 169.115,25.515C170.586,26.765 171.804,28.693 171.583,30.716C171.42,32.248 170.599,33.044 169.125,33.101C168.956,33.108 168.863,33.299 168.962,33.437C170.484,35.505 171.2,37.813 171.114,40.365C171.018,43.251 169.79,45.342 166.778,45.595C166.667,45.604 166.596,45.719 166.641,45.825L167.149,47.014C167.159,47.037 167.168,47.062 167.172,47.085C167.411,48.283 167.089,49.326 166.209,50.205C165.592,50.822 165.065,51.218 164.621,51.4C161.462,52.692 156.759,52.187 155.528,48.325C155.385,47.871 155.349,47.452 155.426,47.065C155.445,46.976 155.48,46.893 155.532,46.819C156.034,46.09 156.161,45.556 155.918,45.221Z" style="fill:white;fill-opacity:0.3;fill-rule:nonzero;"/>
    <path d="M87.875,17.634C87.283,18.379 86.484,18.715 85.474,18.638C84.326,18.552 83.386,18.274 82.654,17.807C82.568,17.753 82.459,17.756 82.379,17.817C80.365,19.329 79.019,21.336 80.042,23.811C80.34,24.524 80.822,24.962 81.49,25.125C82.434,25.352 83.169,24.776 82.817,23.769C82.673,23.363 82.491,22.88 82.271,22.321C82.226,22.212 82.219,22.091 82.251,21.979C82.539,20.905 83.258,20.102 84.412,19.568C85.579,19.028 86.612,19.146 87.51,19.93C86.817,20.56 86.574,21.311 86.778,22.184C86.909,22.749 87.021,23.318 87.107,23.891C87.13,24.019 87.171,24.134 87.235,24.233L87.277,24.46C87.293,24.549 87.287,24.639 87.258,24.725L86.068,28.2C86.027,28.45 85.96,28.667 85.864,28.849C85.816,28.939 85.739,29.006 85.643,29.038C85.183,29.194 84.723,29.348 84.262,29.492C83.69,29.671 83.188,30.042 82.756,30.604C81.73,31.944 80.694,33.245 79.646,34.508C77.942,33.382 76.634,32.295 75.726,31.247C75.276,30.729 74.927,29.939 74.675,28.875C74.205,26.896 73.901,24.735 73.763,22.395C73.69,21.122 73.776,20.077 74.026,19.262C74.323,18.286 74.969,17.884 75.969,18.047C76.094,18.066 76.212,17.983 76.235,17.861L76.263,17.727C76.27,17.692 76.283,17.66 76.305,17.631C78.204,15.221 80.854,13.852 83.815,14.779C83.92,14.815 84.572,15.045 85.774,15.47C86.973,15.895 87.673,16.618 87.875,17.634Z" style="fill:white;fill-opacity:0.95;fill-rule:nonzero;"/>
    <path d="M228.786,32.452C228.067,31.72 227.581,31.244 227.332,31.017C226.353,30.134 225.142,29.46 223.694,28.996C224.336,27.196 224.979,25.467 225.621,23.808C226.162,22.411 226.325,21.173 226.107,20.096C225.88,18.964 225.142,18.047 223.895,17.347C223.783,17.286 223.646,17.299 223.553,17.382C222.309,18.478 220.826,18.862 219.096,18.529C219.048,18.52 219.004,18.497 218.969,18.466C218.658,18.2 218.252,18.28 217.744,18.705L217.984,17.193C218,17.081 218.045,16.979 218.112,16.889C218.642,16.183 219.269,15.703 219.988,15.444C220.871,15.128 221.644,14.872 222.309,14.677C223.336,14.377 224.451,14.415 225.663,14.792C227.204,15.269 228.54,16.32 229.675,17.948C229.726,18.021 229.813,18.06 229.902,18.047C230.864,17.935 231.465,18.264 231.702,19.038C232.025,20.09 232.13,21.263 232.025,22.558C231.951,23.462 231.859,24.441 231.747,25.492C231.744,25.515 231.558,26.48 231.19,28.386C230.855,30.144 230.052,31.499 228.786,32.452Z" style="fill:white;fill-opacity:0.95;fill-rule:nonzero;"/>
    <path d="M223.694,28.996C223.32,29.108 222.914,29.092 222.476,28.945C222.859,27.401 223.348,25.902 223.94,24.453C224.614,22.804 225.573,20.278 223.345,19.437C221.763,18.84 220.008,19.783 219.205,21.09C219.154,21.17 219.125,21.26 219.122,21.352L219.052,22.743C219.048,22.82 219.061,22.9 219.096,22.973C219.285,23.398 219.413,23.795 219.48,24.162C219.557,24.572 219.327,24.968 218.949,25.083C218.7,25.157 218.495,25.262 218.336,25.4C217.418,24.974 216.836,24.431 216.59,23.769C216.066,22.369 216.219,21.055 217.05,19.827C217.325,19.421 217.555,19.047 217.744,18.705C218.252,18.28 218.658,18.2 218.969,18.466C219.004,18.497 219.048,18.52 219.096,18.529C220.826,18.862 222.309,18.478 223.553,17.382C223.646,17.299 223.783,17.286 223.895,17.347C225.142,18.047 225.88,18.964 226.107,20.096C226.325,21.173 226.162,22.411 225.621,23.808C224.979,25.467 224.336,27.196 223.694,28.996Z" style="fill:white;fill-opacity:0.25;fill-rule:nonzero;"/>
    <path d="M87.875,17.634C89.464,18.884 89.966,20.553 89.387,22.634C88.968,24.134 88.453,25.595 87.84,27.021L87.226,28.872C86.871,29.086 86.529,29.131 86.203,29.006C86.11,28.971 86.049,28.884 86.053,28.785L86.068,28.2C86.068,28.2 88.092,22.318 88.172,21.592C88.252,20.898 88.031,20.345 87.51,19.93C86.612,19.146 85.579,19.028 84.412,19.568C83.258,20.102 82.539,20.905 82.251,21.979C82.219,22.091 82.226,22.212 82.271,22.321C82.491,22.88 82.673,23.363 82.817,23.769C83.169,24.776 82.434,25.352 81.49,25.125C80.822,24.962 80.34,24.524 80.042,23.811C79.019,21.336 80.365,19.329 82.379,17.817C82.459,17.756 82.568,17.753 82.654,17.807C83.386,18.274 84.326,18.552 85.474,18.638C86.484,18.715 87.283,18.379 87.875,17.634Z" style="fill:white;fill-opacity:0.25;fill-rule:nonzero;"/>
    <path d="M222.476,28.945C222.223,29.051 221.756,29.201 221.082,29.396C220.254,29.636 219.627,30.141 219.039,30.905C218.083,32.142 217.386,33.056 216.948,33.645C216.775,33.878 217.159,28.977 218.128,26.451C218.157,26.372 218.176,26.292 218.179,26.209C218.188,25.978 218.243,25.71 218.336,25.4C218.495,25.262 218.7,25.157 218.949,25.083C219.327,24.968 219.557,24.572 219.48,24.162C219.413,23.795 219.285,23.398 219.096,22.973C219.061,22.9 219.048,22.82 219.052,22.743L219.122,21.352C219.125,21.26 219.154,21.17 219.205,21.09C220.008,19.783 221.763,18.84 223.345,19.437C225.573,20.278 224.614,22.804 223.94,24.453C223.348,25.902 222.859,27.401 222.476,28.945Z" style="fill:white;fill-opacity:0.85;fill-rule:nonzero;"/>
    <path d="M144.491,45.656C144.491,45.624 144.491,45.592 144.49,45.559C144.491,45.592 144.491,45.624 144.491,45.656C144.49,45.643 144.488,45.63 144.486,45.617C144.352,44.716 143.243,41.177 141.74,42.212C141.411,42.439 140.88,42.909 140.148,43.616C139.956,43.801 139.64,43.737 139.534,43.491C138.908,42.021 138.383,40.368 138.096,38.517C137.731,36.135 137.53,33.725 137.491,31.282C137.488,31.18 137.45,31.081 137.379,31.007L136.954,30.553C139.349,29.626 139.854,27.452 140.042,25.093C140.094,24.463 140.691,24.198 141.315,24.278C142.616,24.444 143.879,24.434 145.097,24.246C146.308,24.06 147.111,23.469 147.635,22.436C147.779,22.152 148.204,22.244 148.22,22.561C148.3,24.121 148.345,25.061 148.348,25.38C148.38,27.954 151.014,27.833 152.83,27.65C152.907,27.641 152.974,27.705 152.968,27.781C152.923,28.434 152.808,28.865 153.092,29.303C153.613,30.099 154.624,29.901 155.608,29.776C155.723,29.764 155.839,29.776 155.947,29.815C157.018,30.186 157.312,31.004 157.693,32.168C158.364,34.223 158.032,36.074 156.692,37.714C156.561,37.874 156.491,38.079 156.497,38.287C156.571,40.585 156.379,42.897 155.918,45.221C155.404,46.33 154.598,47.436 153.505,48.539C151.846,50.214 153.265,54.965 154.115,56.835C154.569,57.833 156.363,59.354 157.012,59.815C157.949,60.477 159.112,60.883 160.503,61.033C159.477,62.797 158.051,64.092 156.225,64.92C151.302,67.149 146.315,67.033 141.267,64.575C140.778,64.335 140.359,64.038 140.017,63.677C139.943,63.597 139.95,63.469 140.033,63.399L142.031,61.682C143.102,61.03 143.569,59.981 143.431,58.536C144.777,56.496 145.471,54.172 145.512,51.56C145.541,49.78 145.03,48.891 143.975,48.891C144.771,48.325 145.666,47.797 146.66,47.308C146.999,47.142 147.104,46.704 146.874,46.4C146.724,46.199 146.507,46.125 146.222,46.186C145.633,46.304 144.943,46.549 144.355,46.933C144.425,46.651 144.475,46.319 144.488,45.924C144.5,45.836 144.502,45.746 144.491,45.656ZM142.753,31.631C143.406,31.611 144.326,31.64 145.516,31.72C145.803,31.739 145.97,31.397 145.775,31.183C145.273,30.623 143.415,30.425 142.715,30.448C142.015,30.467 140.177,30.777 139.707,31.365C139.528,31.592 139.713,31.925 140.001,31.886C141.184,31.736 142.101,31.65 142.753,31.631ZM142.508,34.88C142.13,35.042 142.108,35.841 142.458,36.669C142.808,37.497 143.399,38.037 143.779,37.876C144.157,37.714 144.179,36.915 143.829,36.087C143.479,35.259 142.888,34.719 142.508,34.88Z" style="fill:white;fill-opacity:0.95;"/>
    <path d="M143.022,48.971C143.156,49.29 143.473,49.265 143.975,48.891C145.03,48.891 145.541,49.78 145.512,51.56C145.471,54.172 144.777,56.496 143.431,58.536C143.246,57.772 143.041,57.27 142.821,57.024C141.81,55.914 140.573,55.349 139.109,55.333C137.373,55.176 135.81,54.489 134.422,53.274C132.916,51.957 131.89,50.4 131.344,48.606C129.943,44.022 128.751,40.307 126.628,36.397C126.558,36.266 126.609,36.1 126.746,36.033C129.074,34.917 131.206,32.733 130.608,29.946C130.586,29.84 130.711,29.77 130.794,29.84C132.594,31.397 134.819,31.1 136.954,30.553L137.379,31.007C137.45,31.081 137.488,31.18 137.491,31.282C137.53,33.725 137.731,36.135 138.096,38.517C138.383,40.368 138.908,42.021 139.534,43.491C139.64,43.737 139.956,43.801 140.148,43.616C140.88,42.909 141.411,42.439 141.74,42.212C143.243,41.177 144.352,44.716 144.486,45.617C144.502,45.72 144.502,45.823 144.488,45.924C144.475,46.319 144.425,46.651 144.355,46.933C143.639,47.4 143.073,48.072 143.022,48.971ZM129.899,37.056C129.927,37.059 129.956,37.059 129.982,37.059C129.985,37.059 129.985,37.059 129.988,37.056C131.379,36.045 132.984,35.115 134.796,34.265C135.161,34.095 135.11,33.561 134.723,33.462C134.652,33.446 134.493,33.462 134.243,33.514C132.801,33.811 130.026,35.045 129.723,36.835C129.704,36.947 129.787,37.049 129.899,37.056ZM135.596,38.183C135.241,38.319 135.215,39.121 135.541,39.981C135.864,40.841 136.417,41.426 136.771,41.293C137.127,41.157 137.152,40.355 136.827,39.495C136.503,38.635 135.95,38.05 135.596,38.183Z" style="fill:white;fill-opacity:0.85;"/>
    <path d="M87.84,27.021L88.642,29.447C87.929,29.421 87.459,29.23 87.226,28.872L87.84,27.021Z" style="fill:white;fill-opacity:0.95;fill-rule:nonzero;"/>
    <path d="M74.86,45.368C73.847,44.319 73.022,43.092 72.386,41.688C75.02,39.543 77.44,37.152 79.646,34.508C80.694,33.245 81.73,31.944 82.756,30.604C83.188,30.042 83.69,29.671 84.262,29.492C84.723,29.348 85.183,29.194 85.643,29.038C85.739,29.006 85.816,28.939 85.864,28.849C85.96,28.667 86.027,28.45 86.068,28.2L86.053,28.785C86.049,28.884 86.11,28.971 86.203,29.006C86.529,29.131 86.871,29.086 87.226,28.872C87.459,29.23 87.929,29.421 88.642,29.447C90.097,30.422 91.241,31.381 92.076,32.321C93.15,33.533 94.381,34.917 95.771,36.474C95.842,36.554 95.918,36.624 96.005,36.688C96.324,36.931 96.74,37.235 97.251,37.602C99.339,39.102 101.366,40.297 103.332,41.196C102.536,41.762 101.772,42.775 101.037,44.233C100.675,44.313 100.372,44.267 100.129,44.092C99.723,43.8 99.333,43.571 98.959,43.395C97.993,42.673 96.433,41.551 94.281,40.029C93.556,39.514 91.487,38.51 91.414,38.478C89.665,37.743 87.712,37.448 85.551,37.599C84.227,37.692 83.198,37.967 82.462,38.424C80.125,39.904 78.022,41.685 76.152,43.766L74.86,45.368Z" style="fill:white;fill-opacity:0.35;"/>
    <path d="M222.476,28.945C222.914,29.092 223.32,29.108 223.694,28.996C225.142,29.46 226.353,30.134 227.332,31.017C227.581,31.244 228.067,31.72 228.786,32.452C229.646,33.437 230.506,34.409 231.366,35.368C232.306,36.42 233.163,37.212 233.94,37.743C235.593,38.875 237.364,39.811 239.033,40.918C239.432,41.183 239.768,41.231 240.04,41.055C239.093,41.8 238.243,42.925 237.485,44.428L235.538,43.392C234.41,42.542 232.814,41.407 230.759,39.984C228.569,38.466 226.251,37.663 223.809,37.574L220.04,37.871C219.963,37.877 219.892,37.903 219.829,37.941C217.233,39.508 214.828,41.461 212.616,43.804L211.219,45.17C210.276,44.124 209.525,42.976 208.965,41.726C209.931,40.863 210.935,39.978 211.977,39.073C212.773,38.382 214.237,36.81 216.369,34.358C216.43,34.287 216.775,33.878 216.948,33.645C217.386,33.056 218.083,32.142 219.039,30.905C219.627,30.141 220.254,29.636 221.082,29.396C221.756,29.201 222.223,29.051 222.476,28.945Z" style="fill:white;fill-opacity:0.35;fill-rule:nonzero;"/>
    <path d="M142.715,30.448C143.415,30.425 145.273,30.623 145.775,31.183C145.97,31.397 145.803,31.739 145.516,31.72C144.326,31.64 143.406,31.611 142.753,31.631C142.101,31.65 141.184,31.736 140.001,31.886C139.713,31.925 139.528,31.592 139.707,31.365C140.177,30.777 142.015,30.467 142.715,30.448Z" style="fill:white;fill-opacity:0.15;fill-rule:nonzero;"/>
    <path d="M129.899,37.056C129.787,37.049 129.704,36.947 129.723,36.835C130.026,35.045 132.801,33.811 134.243,33.514C134.493,33.462 134.652,33.446 134.723,33.462C135.11,33.561 135.161,34.095 134.796,34.265C132.984,35.115 131.379,36.045 129.988,37.056C129.985,37.059 129.985,37.059 129.982,37.059C129.956,37.059 129.927,37.059 129.899,37.056Z" style="fill:white;fill-opacity:0.15;fill-rule:nonzero;"/>
    <path d="M142.508,34.88C142.888,34.719 143.479,35.259 143.829,36.087C144.179,36.915 144.157,37.714 143.779,37.876C143.399,38.037 142.808,37.497 142.458,36.669C142.108,35.841 142.13,35.042 142.508,34.88Z" style="fill:white;fill-opacity:0.15;fill-rule:nonzero;"/>
    <path d="M91.414,38.478C89.665,37.743 87.712,37.448 85.551,37.599C84.227,37.692 83.198,37.967 82.462,38.424L86.251,45.333C89.681,45.611 96.535,44.127 96.577,44.06C96.577,44.06 91.487,38.51 91.414,38.478Z" style="fill:white;fill-opacity:0.85;"/>
    <path d="M223.809,37.574L219.64,45.182C217.274,44.965 214.934,44.505 212.616,43.804C214.828,41.461 217.233,39.508 219.829,37.941C219.892,37.903 219.963,37.877 220.04,37.871L223.809,37.574Z" style="fill:white;fill-opacity:0.85;fill-rule:nonzero;"/>
    <path d="M135.596,38.183C135.95,38.05 136.503,38.635 136.827,39.495C137.152,40.355 137.127,41.157 136.771,41.293C136.417,41.426 135.864,40.841 135.541,39.981C135.215,39.121 135.241,38.319 135.596,38.183Z" style="fill:white;fill-opacity:0.15;fill-rule:nonzero;"/>
    <path d="M103.332,41.196C105.228,41.928 106.967,42.74 108.543,43.629C108.955,43.859 109.39,44.076 109.847,44.281C110.298,44.482 110.733,44.693 111.155,44.914C113.057,45.662 114.838,46.547 116.497,47.574C116.59,47.919 116.625,48.152 116.596,48.274C115.774,51.816 115.135,54.422 114.684,56.087C112.392,64.559 110.953,70.182 109.927,77.292C109.883,77.622 109.918,77.957 110.033,78.267C111.212,81.404 111.871,83.13 112.008,83.453C112.255,84.032 112.2,85.358 112.277,85.464C112.223,85.659 112.197,85.806 112.197,85.902C112.188,87.555 112.184,91.57 112.191,97.948C112.194,98.776 112.255,99.582 112.373,100.365C112.536,101.417 112.424,102.388 112.536,103.587C112.817,106.621 113.105,109.211 113.399,111.356C113.453,111.749 113.278,112.142 112.945,112.363C111.861,113.082 110.573,113.559 109.077,113.786C104.441,114.489 99.381,114.204 94.914,114.534C91.644,114.773 89.291,114.872 87.862,114.828C86.992,114.799 84.444,114.796 80.221,114.812C78.898,114.815 77.82,114.761 76.986,114.649C76.855,114.63 75.778,114.55 73.754,114.409C71.231,114.236 69.246,114.22 66.612,113.897C64.86,113.68 63.15,113.319 61.858,112.277C61.558,112.034 61.407,111.647 61.462,111.263C61.753,109.227 62.012,106.97 62.242,104.486C62.366,103.159 62.421,102.235 62.405,101.714C62.37,100.461 62.705,99.358 62.705,98.025C62.708,94.735 62.708,90.835 62.708,86.317C62.708,85.918 62.561,85.509 62.51,85.071L65.132,78.252C65.237,77.98 65.269,77.689 65.228,77.404C64.208,70.256 62.36,63.037 60.477,56.173C60.132,54.914 59.774,53.475 59.4,51.861C59.064,50.413 58.725,48.968 58.386,47.532C59.579,46.832 60.765,46.103 61.996,45.588C64.086,44.709 65.618,44.044 66.593,43.593C67.859,43.005 69.31,42.58 70.71,41.883C70.8,41.838 70.899,41.819 70.998,41.826C71.532,41.861 71.992,41.813 72.386,41.688C73.022,43.092 73.847,44.319 74.86,45.368C77.322,48.076 80.87,49.853 84.422,50.435C85.883,50.671 89.886,50.531 90.714,50.377C94.902,49.594 98.342,47.548 101.037,44.233C101.772,42.775 102.536,41.762 103.332,41.196Z" style="fill:white;fill-opacity:0.85;fill-rule:nonzero;"/>
    <path d="M240.04,41.055C243.16,42.711 246.36,44.255 249.64,45.684C250.82,46.199 251.836,46.813 252.898,47.465L253.166,48.028C253.205,48.101 253.211,48.187 253.192,48.267C252.428,51.269 251.836,54.076 250.944,57.292C249.608,62.097 248.508,66.576 247.642,70.732C247.255,72.596 246.871,74.802 246.497,77.353C246.462,77.593 246.488,77.839 246.571,78.069L248.882,84.246C248.917,84.335 248.927,84.434 248.914,84.533L248.79,85.47C248.729,89.444 248.716,93.437 248.745,97.456C248.754,98.472 248.809,99.358 248.908,100.115C249.068,101.317 249.013,102.475 249.132,103.674C249.397,106.407 249.682,108.965 249.985,111.34C250.03,111.701 249.88,112.056 249.589,112.277C248.722,112.935 247.661,113.386 246.411,113.629C244.32,114.038 242.198,114.243 240.043,114.243C237.025,114.246 234.045,114.351 231.101,114.562C228.454,114.751 226.315,114.841 224.685,114.828C220.839,114.799 218.697,114.796 218.256,114.818C217.127,114.876 214.979,114.777 211.811,114.524C210.318,114.406 208.169,114.271 205.359,114.121C203.061,113.997 200.103,113.648 198.499,112.35C198.166,112.082 198,111.66 198.054,111.238C198.313,109.31 198.578,106.989 198.853,104.271C198.943,103.392 198.991,102.504 198.997,101.605C199.01,100.374 199.25,99.364 199.25,98.063C199.256,95.33 199.259,91.413 199.256,86.321C199.256,86.001 199.227,85.688 199.167,85.377L201.673,78.309C201.811,77.916 201.852,77.494 201.791,77.081C201.104,72.526 200.097,67.75 198.77,62.753C197.466,57.839 196.162,52.727 194.86,47.42C195.426,47.228 195.989,46.973 196.542,46.65C197.344,46.186 197.885,45.892 198.163,45.771C201.229,44.434 204.314,43.136 207.415,41.874C207.453,41.858 207.492,41.848 207.53,41.845L208.965,41.726C209.525,42.976 210.276,44.124 211.219,45.17C213.636,47.794 216.654,49.501 220.276,50.285C222.05,50.671 223.259,50.863 223.898,50.863C225.286,50.863 227.054,50.544 229.205,49.901C232.552,48.904 235.311,47.078 237.485,44.428C238.243,42.925 239.093,41.8 240.04,41.055Z" style="fill:white;fill-opacity:0.85;fill-rule:nonzero;"/>
    <path d="M96.577,44.06L98.959,43.395C99.333,43.571 99.723,43.8 100.129,44.092C100.372,44.267 100.675,44.313 101.037,44.233C98.342,47.548 94.902,49.594 90.714,50.377C89.886,50.531 85.883,50.671 84.422,50.435C80.87,49.853 77.322,48.076 74.86,45.368L76.152,43.766C76.669,43.999 77.191,44.172 77.712,44.29C80.531,44.92 86.145,45.39 86.251,45.333C89.681,45.611 96.535,44.127 96.577,44.06Z" style="fill:white;fill-opacity:0.5;"/>
    <path d="M235.538,43.392L237.485,44.428C235.311,47.078 232.552,48.904 229.205,49.901C227.054,50.544 225.286,50.863 223.898,50.863C223.259,50.863 222.05,50.671 220.276,50.285C216.654,49.501 213.636,47.794 211.219,45.17L212.616,43.804C214.934,44.505 217.274,44.965 219.64,45.182C220.551,45.301 221.462,45.384 222.38,45.425C225.775,45.579 229.208,45.301 232.472,44.332C233.47,44.035 234.493,43.721 235.538,43.392Z" style="fill:white;fill-opacity:0.5;fill-rule:nonzero;"/>
    <path d="M143.975,48.891C143.473,49.265 143.156,49.29 143.022,48.971C143.115,47.334 144.915,46.448 146.222,46.186C146.507,46.125 146.724,46.199 146.874,46.4C147.104,46.704 146.999,47.142 146.66,47.308C145.666,47.797 144.771,48.325 143.975,48.891Z" style="fill:white;fill-opacity:0.15;fill-rule:nonzero;"/>
    <path d="M248.79,85.47L248.914,84.533C248.927,84.434 248.917,84.335 248.882,84.246L246.571,78.069C246.488,77.839 246.462,77.593 246.497,77.353C246.871,74.802 247.255,72.596 247.642,70.732C248.508,66.576 249.608,62.097 250.944,57.292C251.836,54.076 252.428,51.269 253.192,48.267C253.211,48.187 253.205,48.101 253.166,48.028L252.898,47.465C253.732,47.932 254.295,48.498 254.592,49.166C255.34,50.844 256.162,53.184 257.06,56.183C259.493,64.306 261.568,72.171 263.291,79.783C263.707,81.615 263.15,82.197 261.481,82.874C258.738,83.984 256.063,85 253.457,85.924C252.677,86.199 252.015,86.26 251.312,86.509C251.149,86.564 250.97,86.564 250.807,86.503C250.151,86.263 249.675,85.838 249.375,85.23C249.314,85.106 249.144,85.083 249.052,85.186L248.79,85.47Z" style="fill:white;fill-opacity:0.75;fill-rule:nonzero;"/>
    <path d="M58.386,47.532C58.725,48.968 59.064,50.413 59.4,51.861C59.774,53.475 60.132,54.914 60.477,56.173C62.36,63.037 64.208,70.256 65.228,77.404C65.269,77.689 65.237,77.98 65.132,78.252L62.51,85.071C62.277,85.077 62.047,85.24 61.823,85.563C61.583,85.905 61.395,86.119 61.257,86.199C60.988,86.359 60.736,86.464 60.499,86.512C60.387,86.535 60.272,86.535 60.164,86.506C56.66,85.646 53.22,84.195 49.582,82.724C47.318,81.813 48.082,80.189 48.479,78.408C49.387,74.319 50.829,68.702 52.801,61.557C53.84,57.788 55.029,54.051 56.369,50.345C56.823,49.086 57.494,48.149 58.386,47.532Z" style="fill:white;fill-opacity:0.75;fill-rule:nonzero;"/>
    <path d="M121.203,58.61C121.481,59.505 126.583,79.406 126.762,80.01C127.04,80.931 126.746,81.807 125.877,82.641C125.701,82.682 125.477,82.734 125.205,82.794C124.953,82.852 124.735,82.919 124.55,82.996C123.131,83.594 121.299,84.31 119.051,85.147C117.539,85.713 116.2,86.145 115.036,86.442C113.885,86.736 112.322,85.288 112.277,85.464C112.2,85.358 112.255,84.032 112.008,83.453C111.871,83.13 111.212,81.404 110.033,78.267C109.918,77.957 109.883,77.622 109.927,77.292C110.953,70.182 112.392,64.559 114.684,56.087C115.135,54.422 115.774,51.816 116.596,48.274C116.625,48.152 116.59,47.919 116.497,47.574C117.194,48.018 117.693,48.552 117.99,49.175C118.549,50.336 119.118,51.867 119.704,53.773C120.199,55.381 120.698,56.995 121.203,58.61Z" style="fill:white;fill-opacity:0.75;fill-rule:nonzero;"/>
    <path d="M194.86,47.42C196.162,52.727 197.466,57.839 198.77,62.753C200.097,67.75 201.104,72.526 201.791,77.081C201.852,77.494 201.811,77.916 201.673,78.309L199.167,85.377L199.122,85.237C199.058,85.042 198.789,85.016 198.687,85.195C198.335,85.815 197.894,86.234 197.367,86.448C196.692,86.723 196.225,86.253 195.538,86.215C195.452,86.209 195.366,86.193 195.282,86.164C193.182,85.47 190.087,84.303 185.998,82.66C184.991,82.254 184.506,81.532 184.547,80.486C184.55,80.358 184.605,80.205 184.704,80.026C184.803,79.844 184.828,79.69 184.774,79.559C185.033,78.309 188.678,64.252 188.678,64.252C188.681,64.204 188.69,64.156 188.703,64.108C189.333,61.621 190.033,59.153 190.797,56.704C190.803,56.685 191.053,55.799 191.548,54.044C192.242,51.592 193.345,49.383 194.86,47.42Z" style="fill:white;fill-opacity:0.75;fill-rule:nonzero;"/>
    <path d="M186.027,63.52C185.621,65.234 184.953,68.2 184.029,72.42C183.546,74.623 182.878,77.056 182.031,79.716C181.101,79.847 179.934,80.17 178.53,80.684C175.976,81.624 173.863,83.712 173.319,86.42C172.53,90.371 172.015,92.894 171.775,93.984C171.44,95.531 171.289,97.075 171.174,98.552C170.752,103.98 170.618,108.881 170.768,113.255C170.867,116.062 171.12,119.978 171.532,125C168.895,126.078 166.315,126.816 163.796,127.219C163.703,127.235 163.629,127.325 163.572,127.494C163.415,127.436 163.307,127.414 163.239,127.424C160.212,127.897 157.782,127.871 154.768,128.105C153.581,128.197 152.443,128.191 151.347,128.082C148.741,127.83 146.088,127.916 143.508,127.599C142.59,127.488 142.053,127.44 141.903,127.456C141.561,127.491 141.177,127.44 140.746,127.302C140.631,127.267 140.241,127.222 139.579,127.174C138.073,127.069 135.372,126.513 131.471,125.509C131.094,125.413 130.816,125.432 130.64,125.569C129.72,124.809 129,124.61 128.533,123.252C128.345,122.692 128.243,121.813 128.227,120.608C128.185,117.107 128.239,114.23 128.39,111.982C128.578,109.207 128.447,106.957 128.681,104.447C128.78,103.383 128.831,102.379 128.84,101.436C128.876,97.245 128.872,92.257 128.837,86.48C128.831,85.33 128.636,84.239 128.252,83.213L125.637,62.097C126.855,62.344 127.913,62.091 128.805,61.336C129.019,61.157 129.345,61.301 129.355,61.579L129.374,62.113C129.377,62.152 129.384,62.19 129.4,62.225C130.199,64.188 131.619,65.019 133.658,64.719C134.62,64.575 135.567,64.195 136.491,63.574C137.351,62.999 138.23,62.161 139.131,61.062C139.39,60.94 141.571,61.429 142.031,61.682L140.033,63.399C139.95,63.469 139.943,63.597 140.017,63.677C140.359,64.038 140.778,64.335 141.267,64.575C146.315,67.033 151.302,67.149 156.225,64.92C158.051,64.092 159.477,62.797 160.503,61.033C163.655,59.821 166.916,59.549 170.286,60.221C174.01,60.966 176.903,61.512 178.962,61.861C180.417,62.107 181.603,62.347 182.517,62.577C183.716,62.881 184.886,63.194 186.027,63.52Z" style="fill:white;fill-opacity:0.75;fill-rule:nonzero;"/>
    <path d="M124.809,62.104C125.097,62.152 125.372,62.152 125.637,62.097L128.252,83.213L125.877,82.641C126.746,81.807 127.04,80.931 126.762,80.01C126.594,79.443 122.261,62.83 122.315,62.83C122.421,62.989 122.651,63.008 122.942,62.887C123.562,62.628 124.186,62.369 124.809,62.104Z" style="fill:white;fill-opacity:0.65;fill-rule:nonzero;"/>
    <path d="M188.678,64.252C188.678,64.252 185.033,78.309 184.774,79.559C183.895,79.447 182.981,79.498 182.031,79.716C182.878,77.056 183.546,74.623 184.029,72.42C184.953,68.2 185.621,65.234 186.027,63.52L188.678,64.252Z" style="fill:white;fill-opacity:0.65;fill-rule:nonzero;"/>
    <path d="M171.532,125C172.028,127.126 173.013,130.812 174.486,136.055C174.496,136.091 174.643,136.829 174.931,138.274C175.202,139.662 175.148,140.803 175.439,142.328C175.81,144.272 175.628,147.452 175.787,149.956C176.002,153.36 176.062,189.342 176.075,193.898C176.075,194.649 176.043,195.343 175.979,195.979C175.541,200.231 175.653,204.016 175.302,208.009C175.138,209.879 175.183,211.513 175.02,213.268C174.79,215.739 174.141,226.836 174.087,227.545C173.268,238.476 172.488,249.32 171.747,260.071C171.692,260.902 170.768,272.063 170.528,273.537C170.311,272.207 170.113,270.886 169.931,269.576C169.723,268.086 169.598,266.759 169.557,265.592C169.464,263.124 169.221,261.152 169.147,258.553C169.036,254.445 168.917,251.471 168.799,249.627C168.61,246.74 168.719,243.936 168.473,241.232C168.316,239.521 168.211,237.427 168.156,234.95C168.064,230.838 166.699,198.882 166.619,197.744C166.261,192.776 163.793,130.828 163.582,128.117C163.566,127.91 163.562,127.702 163.572,127.494C163.629,127.325 163.703,127.235 163.796,127.219C166.315,126.816 168.895,126.078 171.532,125Z" style="fill:white;fill-opacity:0.5;fill-rule:nonzero;"/>
    <path d="M163.572,127.494C163.562,127.702 163.566,127.91 163.582,128.117C163.793,130.828 166.261,192.776 166.619,197.744C166.699,198.882 168.064,230.838 168.156,234.95C168.211,237.427 168.316,239.521 168.473,241.232C168.719,243.936 168.61,246.74 168.799,249.627C168.917,251.471 169.036,254.445 169.147,258.553C169.221,261.152 169.464,263.124 169.557,265.592C169.598,266.759 169.723,268.086 169.931,269.576C170.113,270.886 170.311,272.207 170.528,273.537L170.637,275.132C170.653,275.365 170.458,275.557 170.225,275.538C169.429,275.474 168.655,275.541 167.901,275.739L160.426,275.647C160.317,275.647 159.058,275.535 158.84,275.538C157.424,275.557 156.315,275.557 155.516,275.535C155.359,275.528 155.231,275.404 155.225,275.247L150.247,146.052C150.234,145.758 150.026,145.512 149.739,145.451C149.272,145.355 148.789,145.339 148.287,145.4C148.175,145.416 148.07,145.464 147.984,145.538C147.814,145.688 147.67,145.979 147.558,146.417C142.613,165.71 137.795,184.492 133.105,202.766C132.59,204.777 132.264,206.136 132.13,206.836C128.434,226.148 124.879,244.809 121.465,262.814C120.902,265.774 120.589,267.389 120.525,267.661C120.311,268.588 120.276,269.755 119.975,270.538C119.726,271.196 119.876,271.919 119.62,272.539C119.326,273.255 119.393,274.106 119.243,274.905C119.144,275.442 118.812,275.659 118.252,275.554C117.347,275.384 116.465,275.218 115.605,275.058C115.429,275.026 115.186,275.1 114.873,275.279C112.101,274.831 109.307,274.569 106.494,274.496C106.315,274.23 106.078,274.099 105.781,274.103C105.234,274.106 104.835,274.093 104.576,274.064C104.46,274.051 104.39,273.933 104.432,273.824C104.684,273.198 104.803,272.204 104.79,270.838C104.787,270.583 104.825,270.33 104.898,270.087C105.32,268.703 112.705,203.345 112.961,202.264C113.198,201.276 113.188,200.272 113.396,199.189C116.395,183.619 119.835,166.314 122.613,151.577C123.831,145.116 126.257,138.498 128.732,132.13C129.166,131.017 129.803,128.83 130.64,125.569C130.816,125.432 131.094,125.413 131.471,125.509C135.372,126.513 138.073,127.069 139.579,127.174C140.241,127.222 140.631,127.267 140.746,127.302C141.177,127.44 141.561,127.491 141.903,127.456C142.053,127.44 142.59,127.488 143.508,127.599C146.088,127.916 148.741,127.83 151.347,128.082C152.443,128.191 153.581,128.197 154.768,128.105C157.782,127.871 160.212,127.897 163.239,127.424C163.307,127.414 163.415,127.436 163.572,127.494Z" style="fill:white;fill-opacity:0.95;fill-rule:nonzero;"/>
    <path d="M114.873,275.279L112.341,284.892C112.315,284.988 112.82,286.42 112.878,286.507L113.463,287.399C113.332,287.773 113.038,288.073 112.581,288.307C111.248,288.987 109.576,289.828 107.568,290.829C106.57,291.324 103.802,292.622 102.836,293.083C101.702,293.623 100.567,294.071 99.429,294.419C97.04,295.154 95.087,294.547 93.569,292.594C93.869,292.296 98.84,289.64 100.899,288.275C101.711,287.737 102.514,287.191 103.303,286.635C104.46,285.819 104.218,285.055 104.496,283.92C104.966,281.98 105.346,280.221 105.637,278.649C105.774,277.904 105.915,277.21 106.062,276.567C106.209,275.922 106.353,275.231 106.494,274.496C109.307,274.569 112.101,274.831 114.873,275.279Z" style="fill:white;fill-opacity:0.75;fill-rule:nonzero;"/>
    <path d="M170.816,293.972C166.408,292.028 158.719,288.297 158.268,287.942C159.026,286.903 159.48,285.733 159.624,284.432C159.656,284.154 160.11,275.698 160.11,275.698C160.212,275.663 160.317,275.647 160.426,275.647L167.901,275.739C167.865,278.831 167.859,281.922 167.881,285.014C167.885,285.746 168.192,286.318 168.796,286.724C170.72,288.025 172.648,289.326 174.576,290.621C175.711,291.385 176.836,292.041 177.958,292.594C177.322,294.013 176.449,294.681 175.343,294.598C173.818,294.838 172.309,294.627 170.816,293.972Z" style="fill:white;fill-opacity:0.75;"/>
    <path d="M93.569,292.594C95.087,294.547 97.04,295.154 99.429,294.419C100.567,294.071 101.702,293.623 102.836,293.083C103.802,292.622 106.57,291.324 107.568,290.829C109.576,289.828 111.248,288.987 112.581,288.307C113.038,288.073 113.332,287.773 113.463,287.399L114.106,286.887C114.317,286.721 114.624,286.782 114.758,287.015C115.225,287.849 115.602,288.671 115.637,289.659C115.64,289.825 115.72,290.269 115.877,290.992C116.088,291.967 116.104,293.655 116.033,294.371C115.883,295.883 114.643,296.161 113.147,296.641C113.07,296.663 112.993,296.676 112.913,296.679C112.913,296.679 90.647,299.058 89.227,299.119C88.559,299.147 87.955,299.099 87.414,298.975C86.983,298.872 86.641,298.514 86.538,298.048C86.241,296.724 87.12,296.081 88.249,295.503C89.975,294.614 91.749,293.645 93.569,292.594Z" style="fill:white;fill-opacity:0.95;fill-rule:nonzero;"/>
    <path d="M158.268,287.942C158.719,288.297 166.408,292.028 170.816,293.972C172.309,294.627 173.818,294.838 175.343,294.598C176.449,294.681 177.322,294.013 177.958,292.594C180.308,293.812 182.594,295.052 184.819,296.315C185.676,296.801 186.168,297.239 186.299,297.626C186.513,298.268 186.363,298.911 185.845,299.553C185.666,299.774 185.404,299.911 185.119,299.927C182.731,300.074 180.605,299.998 178.745,299.7C177.885,299.563 177.188,299.489 176.66,299.48C175.749,299.464 174.806,299.16 173.885,299.08C171.996,298.917 169.806,298.636 167.312,298.23C166.238,298.057 165.25,298.041 164.112,297.808C163.006,297.581 162.261,297.645 160.615,297.603C160.385,297.597 160.158,297.562 159.937,297.501C158.553,297.117 157.734,297.009 157.015,296.184C156.941,296.104 156.897,296.002 156.884,295.893C156.561,292.993 157.021,290.343 158.268,287.942Z" style="fill:white;fill-opacity:0.95;fill-rule:nonzero;"/>
</svg>
