<?xml version="1.0" encoding="UTF-8" standalone="no"?>
<!DOCTYPE svg PUBLIC "-//W3C//DTD SVG 1.1//EN" "http://www.w3.org/Graphics/SVG/1.1/DTD/svg11.dtd">
<svg width="100%" height="100%" viewBox="0 0 300 300" version="1.1" xmlns="http://www.w3.org/2000/svg" xmlns:xlink="http://www.w3.org/1999/xlink" xml:space="preserve" xmlns:serif="http://www.serif.com/" style="fill-rule:evenodd;clip-rule:evenodd;stroke-linejoin:round;stroke-miterlimit:2;">
    <path d="M236.073,78.519C234.093,78.418 231.936,78.435 229.597,78.567C227.52,78.684 226.057,79.035 225.202,79.619C221.971,81.83 222.512,87.602 223.35,90.96C224.034,93.7 224.677,96.938 224.736,98.714C224.858,102.346 224.96,104.556 225.046,105.339C225.476,109.257 226.853,112.334 229.164,114.571C230.75,116.106 232.856,117.423 235.475,118.524C234.599,119.428 233.796,120.095 233.064,120.516C227.404,123.791 219.02,124.646 214.155,119.54C212.893,118.219 213.102,115.921 213.09,113.711C213.066,110.264 210.688,108.922 207.566,108.766C206.389,108.705 204.578,109.416 203.52,109.959C201.307,111.095 198.211,110.573 196.41,108.388C193.307,104.626 194.32,96.974 195.65,92.841C197.48,87.158 201.395,81.544 205.019,77.767C207.032,75.666 209.241,73.931 211.644,72.561C213.52,71.488 214.825,70.644 215.561,70.034C219.18,67.029 223.093,62.425 224.981,60.336C226.649,58.492 228.505,56.865 230.546,55.463C233.603,53.358 236.696,51.759 239.83,50.662C244.594,48.999 250.167,48.46 254.995,50.035C259.145,51.389 262.604,53.808 265.376,57.287C265.923,57.97 266.578,58.636 267.088,59.135C267.18,59.227 267.317,59.255 267.437,59.207C270.053,58.211 272.624,57.749 275.151,57.817C288.822,58.187 287.669,74.397 285.893,83.259C285.52,85.119 285.415,86.652 285.335,87.843C285.256,89.017 285.714,89.761 286.359,90.378C288.162,92.102 290.362,94.314 291.606,97.204C293.526,101.665 293.668,105.092 293.205,107.922C292.368,113.032 289.758,117.672 284.383,117.596C282.362,117.568 280.831,117.387 279.783,117.053C278.14,116.527 276.882,116.166 276.014,115.969C271.937,115.033 268.225,115.101 264.878,116.17C262.319,116.985 260.62,117.491 259.776,117.684C260.343,116.82 261.058,116.081 261.921,115.459C262.404,114.884 262.935,114.359 263.516,113.88C264.796,112.826 265.636,112.011 266.361,110.831C268.479,107.378 269.875,103.743 270.551,99.927C270.591,99.702 270.732,99.509 270.932,99.401C274.829,97.299 275.735,92.706 274.568,88.667C274.344,87.891 273.929,87.314 273.323,86.927C273.222,86.863 273.11,86.819 272.989,86.798C271.28,86.501 270.487,86.216 270.121,84.36C268.993,78.643 267.148,73.232 264.585,68.13C263.283,65.538 261.166,68.19 259.909,69.042C257.265,70.833 254.802,72.788 251.998,74.28C249.519,75.6 246.856,76.727 244.008,77.655C243.772,77.635 243.483,77.664 243.139,77.742C242.913,77.792 242.665,77.864 242.393,77.956C239.52,78.398 237.415,78.587 236.073,78.519Z" style="fill:white;fill-opacity:0.25;"/>
    <path d="M277.417,175.911C275.945,176.219 274.84,176.322 274.657,176.033C273.873,174.796 273.174,173.699 272.568,172.739C272.515,172.654 272.387,172.666 272.351,172.763C271.23,175.728 271.117,178.737 272.013,181.79C273.708,187.567 276.107,192.934 279.204,197.892C279.819,198.876 280.261,199.977 280.867,201.001L280.389,202.913C280.353,203.07 280.297,203.219 280.225,203.359C279.329,205.103 278.023,206.666 276.304,208.048C270.68,212.567 264.03,214.325 256.823,214.99C251.83,215.45 246.889,215.015 241.991,213.696C241.123,213.463 239.842,213.202 238.15,212.909C235.897,212.518 233.731,211.852 231.662,210.904C229.312,209.096 228.935,207.333 228.927,204.271C228.922,203.138 228.995,200.298 229.143,195.746C229.204,193.934 228.979,191.231 228.477,187.627C228.063,184.678 228.227,181.665 227.536,179.09C227.095,177.435 226.408,176.977 224.789,175.892C220.104,172.755 218.333,168.303 217.589,162.784C217.537,162.39 217.212,162.089 216.814,162.064C214.544,161.932 212.503,161.864 210.688,161.852C209.772,161.848 208.984,161.803 208.329,161.727C207.51,161.635 206.73,161.534 205.987,161.426C206.321,159.55 206.369,158.071 206.124,156.99C204.667,150.57 203.512,144.287 203.468,137.671C203.472,137.277 203.541,136.928 203.665,136.622C203.717,136.502 203.822,136.413 203.946,136.381C209.884,134.995 213.684,133.73 219.618,131.797C221.78,131.094 224.222,130.833 226.95,131.006C230.011,131.203 233.402,131.251 235.844,130.705C236.64,130.528 237.371,130.126 238.034,129.503L240.926,126.772C241.063,126.643 241.224,126.338 241.405,125.852C242.505,125.032 243.634,123.755 244.795,122.019C246.832,118.974 248.013,115.872 248.343,112.711C248.358,112.57 248.456,111.663 248.55,110.402C251.167,109.22 252.929,107.259 253.83,104.511C254.032,103.897 254.093,103.446 254.015,103.161C253.765,102.24 252.774,101.812 252.015,102.567C250.976,103.599 249.881,104.636 248.733,105.677C248.729,105.243 248.718,104.816 248.698,104.405C248.702,104.321 248.697,104.237 248.684,104.154C248.577,102.385 248.143,99.529 246.107,99.751C246.012,99.762 245.914,99.779 245.812,99.803C245.575,99.859 244.804,100.062 243.498,100.409C242.674,100.628 242.215,100.325 242.116,99.509C241.198,91.986 241.838,84.701 244.008,77.655C246.856,76.727 249.519,75.6 251.998,74.28C254.802,72.788 257.265,70.833 259.909,69.042C261.166,68.19 263.283,65.538 264.585,68.13C267.148,73.232 268.993,78.643 270.121,84.36C270.487,86.216 271.28,86.501 272.989,86.798C273.11,86.819 273.222,86.863 273.323,86.927C273.929,87.314 274.344,87.891 274.568,88.667C275.735,92.706 274.829,97.299 270.932,99.401C270.732,99.509 270.591,99.702 270.551,99.927C269.875,103.743 268.479,107.378 266.361,110.831C265.636,112.011 264.796,112.826 263.516,113.88C262.935,114.359 262.404,114.884 261.921,115.459C261.058,116.081 260.343,116.82 259.776,117.684C257.028,121.38 256.855,125.623 257.434,130.002C257.454,130.162 257.583,130.287 257.743,130.307C260.961,130.689 264.368,131.09 267.96,131.504C270.266,131.769 272.724,132.408 274.315,133.485C274.448,133.577 275.721,134.517 278.128,136.305C280.132,137.795 281.711,141.078 282.792,143.596C284.797,148.273 286.701,152.503 288.505,156.283C290.417,160.293 292.59,163.615 294.944,167.074C295.081,167.275 295.041,167.548 294.852,167.705L293.816,168.561C290.678,170.686 288.087,172.232 286.05,173.205C285.841,173.305 285.586,173.415 285.295,173.532C283.377,174.307 279.882,175.396 277.417,175.911ZM248.936,87.171C248.278,87.248 247.889,88.526 248.066,90.023C248.242,91.523 248.917,92.676 249.573,92.597C250.231,92.519 250.62,91.242 250.444,89.744C250.267,88.245 249.592,87.092 248.936,87.171ZM256.964,85.208C257.221,85.175 257.35,84.886 257.205,84.673C256.843,84.151 256.397,83.721 255.863,83.38C253.059,81.588 248.829,80.559 246.097,82.789C245.599,83.199 245.635,83.958 246.169,84.215C246.398,84.324 246.716,84.368 247.129,84.344C251.078,84.103 253.2,83.673 256.683,85.131C256.819,85.191 256.912,85.216 256.964,85.208Z" style="fill:white;fill-opacity:0.95;"/>
    <path d="M242.488,108.854L242.163,108.957C241.955,109.022 241.835,109.057 241.835,109.057C240.664,109.549 241.19,110.451 242.148,110.839C244.116,111.634 246.229,111.184 248.162,110.569C248.293,110.516 248.422,110.46 248.55,110.402C248.456,111.663 248.358,112.57 248.343,112.711C248.013,115.872 246.832,118.974 244.795,122.019C243.634,123.755 242.505,125.032 241.405,125.852C241.569,123.341 240.661,121.428 238.681,120.115C238.146,119.757 237.078,119.227 235.475,118.524C232.856,117.423 230.75,116.106 229.164,114.571C226.853,112.334 225.476,109.257 225.046,105.339C224.96,104.556 224.858,102.346 224.736,98.714C224.677,96.938 224.034,93.7 223.35,90.96C222.512,87.602 221.971,81.83 225.202,79.619C226.057,79.035 227.52,78.684 229.597,78.567C231.936,78.435 234.093,78.418 236.073,78.519C237.415,78.587 239.52,78.398 242.393,77.956C242.665,77.864 242.913,77.792 243.139,77.742C243.609,77.683 243.929,77.648 244.008,77.655C241.838,84.701 241.198,91.986 242.116,99.509C242.215,100.325 242.674,100.628 243.498,100.409C244.804,100.062 245.575,99.859 245.812,99.803C245.914,99.779 246.012,99.762 246.107,99.751C248.143,99.529 248.577,102.385 248.684,104.154L248.698,104.405C248.718,104.816 248.729,105.243 248.733,105.677L248.27,106.094C247.217,107.035 245.222,107.881 243.731,108.426C243.247,108.603 242.816,108.748 242.488,108.854ZM229.196,87.236C229.244,87.236 229.332,87.2 229.457,87.124C232.671,85.248 234.8,85.392 238.689,85.115C239.095,85.083 239.4,84.999 239.609,84.862C240.095,84.545 240.035,83.793 239.492,83.46C236.535,81.64 232.538,83.195 230.031,85.308C229.553,85.71 229.176,86.188 228.89,86.746C228.774,86.971 228.939,87.24 229.196,87.236ZM236.51,89.468C235.881,89.55 235.523,90.812 235.713,92.292C235.901,93.769 236.568,94.906 237.196,94.823C237.825,94.741 238.183,93.479 237.993,92C237.805,90.523 237.138,89.386 236.51,89.468Z" style="fill:white;fill-opacity:0.75;"/>
    <path d="M205.987,161.426C205.36,161.345 193.3,161.996 191.183,161.952C186.599,161.864 181.991,161.49 177.355,160.835C171.723,160.04 167.111,157.565 163.515,153.411C159.18,148.405 157.352,141.166 156.063,134.802C155.681,132.918 155.219,131.54 154.834,129.676C154.468,127.929 153.769,125.659 153.335,124.325C153.219,123.967 153.07,123.622 152.889,123.297C152.154,121.979 150.443,119.159 147.747,114.836C146.747,113.225 145.899,111.457 145.204,109.533C144.545,107.701 143.886,106.508 143.034,104.7C141.938,102.37 140.287,100.229 138.085,98.276C138.025,98.22 137.137,97.497 135.426,96.111C134.779,95.584 134.461,94.977 134.514,94.295C134.561,93.672 135.215,93.038 135.653,92.978C137.344,92.749 138.519,93.459 139.825,94.524C142.078,96.368 143.051,97.481 145.079,98.019C145.336,98.087 145.565,97.838 145.473,97.589C144.999,96.312 144.224,94.974 143.356,93.552C141.448,90.43 140.346,87.956 139.663,85.376C139.305,84.031 139.665,83.14 140.422,82.748C141.44,82.221 142.304,82.781 142.814,83.311C143.256,83.772 143.942,84.794 144.838,86.405C145.718,87.988 146.654,89.795 147.638,91.828C148.1,92.78 148.735,93.604 149.386,94.612C149.502,94.793 149.78,94.693 149.752,94.48C149.571,93.118 149.318,91.463 148.699,89.735C147.94,87.626 147.245,85.175 146.61,82.379C146.578,82.243 145.633,78.866 147.57,78.053C149.033,77.438 150.33,78.985 150.768,79.768C151.688,81.403 152.455,83.629 153.07,86.445C153.62,88.968 154.58,91.161 155.942,93.025C156.051,93.17 156.276,93.134 156.332,92.961C156.332,92.961 155.971,85.77 155.834,82.761C155.782,81.572 156.069,79.42 157.832,79.267C159.028,79.162 159.866,80.034 160.104,81.524C160.105,81.529 160.108,81.528 160.108,81.532L161.073,91.776C161.044,92.001 161.177,97.613 161.615,99.461C161.944,100.851 162.724,102.286 164.399,102.121C164.548,102.105 164.688,102.053 164.805,101.964C165.998,101.076 166.858,100.257 167.388,99.505C168.609,97.782 170.188,96.557 172.124,95.838C172.988,95.512 174.643,95.938 173.948,97.26C172.751,99.538 171.112,102.225 169.027,105.323C168.372,106.299 167.918,107.022 167.669,107.496C167.095,108.581 166.36,109.336 165.797,110.365C164.612,112.53 163.166,114.92 164.206,117.435C165.604,120.822 166.749,123.236 167.641,124.683C169.405,127.539 171.815,130.99 174.864,135.031C175.555,135.951 175.937,137.02 177.062,138.032C177.656,138.567 178.094,138.125 178.701,138.117C184.217,138.04 190.355,137.984 197.113,137.952C197.784,137.948 198.844,137.892 200.286,137.775C201.323,137.691 202.384,137.659 203.468,137.671C203.512,144.287 204.667,150.57 206.124,156.99C206.369,158.071 206.321,159.55 205.987,161.426Z" style="fill:white;fill-opacity:0.75;"/>
    <path d="M256.964,85.208C256.912,85.216 256.819,85.191 256.683,85.131C253.2,83.673 251.078,84.103 247.129,84.344C246.716,84.368 246.398,84.324 246.169,84.215C245.635,83.958 245.599,83.199 246.097,82.789C248.829,80.559 253.059,81.588 255.863,83.38C256.397,83.721 256.843,84.151 257.205,84.673C257.35,84.886 257.221,85.175 256.964,85.208ZM229.196,87.236C228.939,87.24 228.774,86.971 228.89,86.746C229.176,86.188 229.553,85.71 230.031,85.308C232.538,83.195 236.535,81.64 239.492,83.46C240.035,83.793 240.095,84.545 239.609,84.862C239.4,84.999 239.095,85.083 238.689,85.115C234.8,85.392 232.671,85.248 229.457,87.124C229.332,87.2 229.244,87.236 229.196,87.236ZM248.936,87.171C249.592,87.092 250.267,88.245 250.444,89.744C250.62,91.242 250.231,92.519 249.573,92.597C248.917,92.676 248.242,91.523 248.066,90.023C247.889,88.526 248.278,87.248 248.936,87.171ZM236.51,89.468C237.138,89.386 237.805,90.523 237.993,92C238.183,93.479 237.825,94.741 237.196,94.823C236.568,94.906 235.901,93.769 235.713,92.292C235.523,90.812 235.881,89.55 236.51,89.468ZM242.488,108.854C242.816,108.748 243.247,108.603 243.731,108.426C245.222,107.881 247.217,107.035 248.27,106.094L248.733,105.677C249.881,104.636 250.976,103.599 252.015,102.567C252.774,101.812 253.765,102.24 254.015,103.161C254.093,103.446 254.032,103.897 253.83,104.511C252.929,107.259 251.167,109.22 248.55,110.402C248.422,110.46 248.293,110.516 248.162,110.569C246.229,111.184 244.116,111.634 242.148,110.839C241.19,110.451 240.664,109.549 241.835,109.057C241.835,109.057 241.955,109.022 242.163,108.957L242.488,108.854Z" style="fill:white;fill-opacity:0.15;"/>
    <path d="M15.904,215.809L10.283,213.805C9.962,213.692 9.805,213.322 9.95,213.013C9.95,213.013 12.762,200.599 14.168,194.891C14.293,194.372 14.148,193.842 13.734,193.3C6.845,184.337 2.071,174.321 0.634,163.073C-0.663,152.925 0.429,144.557 0.449,144.424C1.755,135.084 4.828,126.502 9.669,118.672C11.561,115.611 13.835,112.546 16.49,109.477C18.824,106.781 21.621,104.194 24.875,101.715C28.133,99.236 31.507,97.083 34.991,95.259C36.152,94.652 39.233,93.279 39.928,92.997C44.889,90.989 49.928,89.385 55.122,88.791C68.25,87.289 75.185,89.836 75.377,89.912C70.733,89.844 66.692,90.024 63.257,90.454C29.941,94.612 5.298,123.136 5.949,156.713C6.198,169.585 10.044,181.536 17.483,192.565C18.314,193.798 19.163,194.926 20.018,195.943C20.227,196.192 20.307,196.522 20.235,196.839L15.904,215.809Z" style="fill:white;fill-opacity:0.25;"/>
    <path d="M75.377,89.912C79.56,90.29 83.207,90.884 86.321,91.692C87.667,92.041 89.82,92.724 92.789,93.736C95.159,94.544 97.256,95.388 99.08,96.275C109.951,101.55 118.697,109.083 125.322,118.877C128.572,123.678 131.131,128.845 132.995,134.373C134.771,139.631 135.892,145.292 136.354,151.346C136.402,151.957 136.418,153.724 136.398,156.645C136.382,158.834 136.293,160.594 136.137,161.924C135.104,170.549 132.85,178.23 129.375,184.964C121.999,199.25 110.819,209.546 95.83,215.853C89.563,218.489 82.263,220.112 75.671,220.55C75.257,220.578 73.2,220.598 69.496,220.602C67.556,220.606 65.724,220.498 64.004,220.277C61.288,219.923 59.469,219.654 58.549,219.469C51.092,217.959 43.708,215.158 37.369,211.177C37.124,211.02 36.822,210.972 36.541,211.045C32.512,212.041 16.089,216.082 15.984,216.002C15.904,215.942 15.876,215.878 15.904,215.809L20.235,196.839C20.307,196.522 20.227,196.192 20.018,195.943C19.163,194.926 18.314,193.798 17.483,192.565C10.044,181.536 6.198,169.585 5.949,156.713C5.298,123.136 29.941,94.612 63.257,90.454C66.692,90.024 70.733,89.844 75.377,89.912ZM60.132,186.491C59.698,190.853 62.98,194.753 67.462,195.201C71.947,195.649 75.936,192.476 76.37,188.112C76.804,183.75 73.521,179.849 69.039,179.403C64.555,178.954 60.565,182.127 60.132,186.491ZM76.675,171.622C76.619,171.975 76.293,172.22 75.94,172.176L64.386,170.766C63.96,170.714 63.671,170.308 63.759,169.89C64.41,166.709 65.354,163.836 67.628,161.482C69.922,159.112 72.368,157.039 74.976,155.259C76.735,154.058 77.828,153.27 78.258,152.901C81.231,150.33 83.358,148.682 83.669,144.918C83.824,143.049 83.32,141.435 83.276,141.327C81.078,136.072 75.538,134.698 70.444,134.336C68.307,134.184 66.278,134.352 64.362,134.839C60.947,135.71 58.091,137.382 55.797,139.852C55.588,140.077 55.238,140.097 55.005,139.9L46.725,132.862C46.545,132.709 46.528,132.436 46.693,132.263C50.602,128.154 54.883,125.849 60.336,124.317C69.786,121.662 90.574,121.627 96.593,137.454C97.404,139.584 97.533,142.066 97.176,144.83C96.513,149.94 94.155,154.166 90.093,157.513C88.486,158.834 86.405,160.373 83.854,162.129C82.838,162.832 81.508,163.977 79.857,165.568C78.121,167.243 77.061,169.264 76.675,171.622Z" style="fill:white;fill-opacity:0.95;"/>
    <path d="M76.675,171.622C76.619,171.975 76.293,172.22 75.94,172.176L64.386,170.766C63.96,170.714 63.671,170.308 63.759,169.89C64.41,166.709 65.354,163.836 67.628,161.482C69.922,159.112 72.368,157.039 74.976,155.259C76.735,154.058 77.828,153.27 78.258,152.901C81.231,150.33 83.358,148.682 83.669,144.918C83.824,143.049 83.32,141.435 83.276,141.327C81.078,136.072 75.538,134.698 70.444,134.336C68.307,134.184 66.278,134.352 64.362,134.839C60.947,135.71 58.091,137.382 55.797,139.852C55.588,140.077 55.238,140.097 55.005,139.9L46.725,132.862C46.545,132.709 46.528,132.436 46.693,132.263C50.602,128.154 54.883,125.849 60.336,124.317C69.786,121.662 90.574,121.627 96.593,137.454C97.404,139.584 97.533,142.066 97.176,144.83C96.513,149.94 94.155,154.166 90.093,157.513C88.486,158.834 86.405,160.373 83.854,162.129C82.838,162.832 81.508,163.977 79.857,165.568C78.121,167.243 77.061,169.264 76.675,171.622Z" style="fill:white;fill-opacity:0.25;"/>
    <path d="M293.816,168.561C297.174,174.587 299.408,181.143 299.938,188.033C300.071,189.789 299.99,191.572 299.697,193.384C299.5,194.609 299.235,196.385 298.906,198.711C298.653,200.467 298.118,202.23 297.829,203.845C297.648,204.858 297.383,205.922 297.034,207.035C296.543,208.59 296.218,209.639 296.061,210.173C293.896,217.444 292.779,221.237 292.711,221.55C292.586,222.125 292.048,230.782 292.168,232.425C292.458,236.338 290.457,237.772 287.593,240.179C287.484,240.275 287.432,240.42 287.46,240.56C287.709,241.858 287.906,242.649 288.047,242.935C289.039,244.931 289.573,246.153 289.65,246.603C290.156,249.535 288.01,251.484 285.102,250.749C280.944,249.7 274.829,247.852 272.853,243.557C272.11,241.946 271.901,240.412 272.222,238.945C272.339,238.419 272.833,237.351 273.708,235.74C274.54,234.088 275.457,232.434 276.464,230.782C278.45,227.529 279.605,225.402 281.237,222.526C283.007,219.408 283.226,216.557 283.583,212.539C283.785,210.273 283.937,208.06 284.037,205.894C284.122,201.805 284.146,197.795 284.114,193.862C284.101,192.227 284.101,191.13 284.114,190.58C284.15,189.049 284.057,187.957 283.836,187.31C282.684,183.943 278.365,177.618 277.417,175.911C279.882,175.396 283.377,174.307 285.295,173.532C285.551,173.431 285.803,173.323 286.05,173.205C288.087,172.232 290.678,170.686 293.816,168.561Z" style="fill:white;fill-opacity:0.75;"/>
    <path d="M60.132,186.491C60.565,182.127 64.555,178.954 69.039,179.403C73.521,179.849 76.804,183.75 76.37,188.112C75.936,192.476 71.947,195.649 67.462,195.201C62.98,194.753 59.698,190.853 60.132,186.491Z" style="fill:white;fill-opacity:0.25;"/>
    <path d="M273.708,235.74C273.222,235.719 272.479,235.764 271.475,235.864C270.973,235.912 269.595,235.948 267.333,235.973C266.252,235.985 265.396,235.924 264.766,235.784C264.44,235.715 263.581,235.695 262.191,235.723C261.769,235.732 259.579,235.422 255.622,234.791C254.349,234.587 252.91,234.125 251.179,233.735C249.238,233.297 246.86,232.638 244.04,231.758C240.436,230.633 236.339,229.179 233.984,226.861C231.349,224.274 230.823,221.405 230.843,217.247C230.855,215.066 230.907,213.138 230.999,211.458C231.02,211.097 231.241,210.912 231.662,210.904C233.731,211.852 235.897,212.518 238.15,212.909C239.842,213.202 241.123,213.463 241.991,213.696C246.889,215.015 251.83,215.45 256.823,214.99C264.03,214.325 270.68,212.567 276.304,208.048C278.023,206.666 279.329,205.103 280.225,203.359C280.297,203.219 280.353,203.07 280.389,202.913L280.867,201.001L284.037,205.894C283.937,208.06 283.785,210.273 283.583,212.539C283.226,216.557 283.007,219.408 281.237,222.526C279.605,225.402 278.45,227.529 276.464,230.782C275.457,232.434 274.54,234.088 273.708,235.74Z" style="fill:white;fill-opacity:0.5;"/>
</svg>
