<?xml version="1.0" encoding="utf-8"?>
<!-- Generator: Adobe Illustrator 24.1.2, SVG Export Plug-In . SVG Version: 6.00 Build 0)  -->
<svg version="1.1" id="Layer_1" xmlns="http://www.w3.org/2000/svg" xmlns:xlink="http://www.w3.org/1999/xlink" x="0px" y="0px"
	 viewBox="0 0 300 300" style="enable-background:new 0 0 300 300;" xml:space="preserve">
<style type="text/css">
	.st0{opacity:0.2;fill:#FFFFFF;enable-background:new    ;}
	.st1{opacity:0.7;fill:#FFFFFF;enable-background:new    ;}
	.st2{opacity:0.4;fill:#FFFFFF;enable-background:new    ;}
	.st3{fill:#FFFFFF;}
	.st4{opacity:0.2;fill:#FFFFFF;}
	.st5{opacity:0.8;fill:#FFFFFF;}
</style>
<path class="st0" d="M247.1,140.32l3.32,0.63l1.86,0.34l3.84,0.72C252.036,90.169,209.951,49.503,158,47.2l0.15,0.78
	C205.678,54.305,242.557,92.588,247.1,140.32z"/>
<path class="st0" d="M252,158.82l-4.93,0.94c-4.688,47.587-41.511,85.689-88.91,92l-0.15,0.79
	c51.848-2.303,93.883-42.822,98.09-94.55l-3.6,0.68L252,158.82z"/>
<path class="st0" d="M27.83,144.72l3.14-0.58C33.971,82.301,82.468,32.33,144.19,27.48l0.07-0.37
	C78.25,27.431,24.276,79.828,22,145.8l5.32-1L27.83,144.72z"/>
<path class="st0" d="M31,155.87l-3.49-0.67h-0.18l-5.26-1c2.384,65.855,56.273,118.116,122.17,118.48l-0.07-0.37
	C82.547,267.448,34.105,217.606,31,155.87z"/>
<path class="st1" d="M51.3,159.73L48,159.1l-0.5-0.1L31,155.87c3.105,61.736,51.547,111.578,113.17,116.44l-0.25-1.33l-2.37-12.69
	l-1.2-6.47C92.866,245.561,55.962,207.397,51.3,159.73z"/>
<path class="st1" d="M48.56,140.86l2.72-0.51C55.834,92.563,92.796,54.257,140.39,48l0.3-1.65l2.36-12.71l1.14-6.13
	C82.491,32.373,34.014,82.323,31,144.14L47.69,141L48.56,140.86z"/>
<path class="st1" d="M276.34,154.18l-3.7,0.7h-0.16L256.1,158c-4.188,51.747-46.234,92.289-98.1,94.59L154.54,271
	c0,0-0.14,0.69-0.32,1.65C220.092,272.254,273.946,220.009,276.34,154.18z"/>
<path class="st1" d="M157.8,46.19l0.19,1c51.955,2.298,94.046,42.965,98.13,94.81l16,3l0.45,0.08l3.74,0.7
	c-2.279-65.905-56.157-118.269-122.1-118.67l1.21,6.43L157.8,46.19z"/>
<polygon class="st0" points="215.93,83.16 215.93,83.16 215.93,83.16 "/>
<polygon class="st2" points="215.93,83.16 215.93,83.16 215.93,83.16 "/>
<polygon class="st3" points="149.17,149.92 149.17,149.92 149.17,149.92 "/>
<polygon class="st3" points="125.72,126.47 148.11,148.85 125.82,126.45 "/>
<polygon class="st2" points="113.38,171.53 82.45,216.63 125.29,173.79 "/>
<polygon class="st2" points="82.45,83.2 125.82,126.45 128.04,114.46 "/>
<path class="st4" d="M154.54,271l3.85-20.37l12.23-64.8l2.27-12L149.2,150v149.31l3.89-20.59c0,0,1.44-7.69,1.45-7.69V271z"/>
<polygon class="st0" points="82.45,216.63 127.99,185.56 125.29,173.79 "/>
<polygon class="st2" points="215.88,216.63 172.89,173.88 170.62,185.86 "/>
<polygon class="st2" points="149.17,149.92 149.19,149.94 149.17,149.97 149.17,149.97 125.29,173.79 127.99,185.56 140.1,250.53 
	141.55,258.29 143.92,270.98 145.35,278.67 149.2,299.31 149.2,278.75 149.2,271.12 149.2,258.63 149.2,251 149.2,171.3 
	149.2,149.95 172.89,173.88 185.03,171.58 252.01,158.82 252.5,158.72 272.48,154.91 272.64,154.88 298.55,149.95 272.63,149.95 
	272.5,149.95 252.51,149.95 252.34,149.95 170.3,149.95 160.39,149.95 155.94,149.95 149.2,149.95 149.19,149.95 149.19,149.94 
	149.17,149.91 "/>
<polygon class="st0" points="185.03,171.58 172.89,173.88 215.88,216.63 "/>
<polygon class="st0" points="170.62,114.28 172.91,126.45 215.93,83.16 "/>
<polygon class="st2" points="215.93,83.16 172.91,126.45 184.83,128.68 "/>
<polygon class="st2" points="149.2,25.79 149.2,33.42 149.2,45.91 149.2,53.54 149.2,128.96 149.2,137.26 149.19,149.95 
	172.91,126.45 170.62,114.28 159.26,53.96 157.8,46.19 155.42,33.54 153.97,25.85 149.2,0.48 "/>
<polygon class="st3" points="149.16,149.91 149.17,149.91 148.11,148.85 "/>
<polygon class="st0" points="113.45,128.75 125.82,126.45 82.45,83.2 "/>
<polygon class="st5" points="27.31,155.17 27.49,155.2 47.47,159 47.97,159.1 113.38,171.53 125.29,173.79 149.19,149.94 
	149.14,149.94 147.11,149.94 127.88,149.94 47.61,149.94 47.44,149.94 27.46,149.94 27.32,149.94 -0.17,149.94 "/>
<polygon class="st3" points="113.45,128.75 48.55,140.86 47.7,141.02 27.83,144.72 27.36,144.81 -0.17,149.94 27.32,149.94 
	27.46,149.94 47.44,149.94 47.61,149.94 127.88,149.94 146.62,149.94 149.19,149.94 148.11,148.85 125.72,126.47 "/>
<polygon class="st0" points="144.48,25.91 143.05,33.61 140.69,46.32 140.69,46.32 128.04,114.46 125.82,126.45 149.19,149.94 
	149.2,137.26 149.2,128.96 149.2,53.54 149.2,45.91 149.2,33.42 149.2,25.79 149.2,0.48 "/>
<polygon class="st0" points="184.83,128.68 172.91,126.45 149.19,149.94 149.19,149.95 149.2,149.95 155.94,149.95 160.39,149.95 
	170.3,149.95 252.34,149.95 252.51,149.95 272.5,149.95 272.63,149.95 298.55,149.95 272.61,145.09 272.15,145.01 252.28,141.29 
	250.42,140.95 "/>
</svg>
