<?xml version="1.0" encoding="UTF-8" standalone="no"?>
<!DOCTYPE svg PUBLIC "-//W3C//DTD SVG 1.1//EN" "http://www.w3.org/Graphics/SVG/1.1/DTD/svg11.dtd">
<svg width="100%" height="100%" viewBox="0 0 300 300" version="1.1" xmlns="http://www.w3.org/2000/svg" xmlns:xlink="http://www.w3.org/1999/xlink" xml:space="preserve" xmlns:serif="http://www.serif.com/" style="fill-rule:evenodd;clip-rule:evenodd;stroke-linejoin:round;stroke-miterlimit:2;">
    <path d="M126.048,96.627C125.076,78.308 124.386,59.976 124.386,41.604C124.386,37.306 128.755,31.659 134.074,30.288C134.377,53.993 135.209,77.689 136.146,101.384C133.478,99.884 130.697,98.528 127.81,97.332C127.224,97.089 126.636,96.854 126.048,96.627Z" style="fill:white;fill-opacity:0.25;"/>
    <path d="M136.146,101.384C134.966,71.544 133.953,41.7 133.953,11.842C133.953,7.186 136.897,2.183 142.384,0.565C140.897,1.367 139.994,2.949 140.047,4.82L142.901,105.657C140.739,104.128 138.486,102.7 136.146,101.384Z" style="fill:white;fill-opacity:0.42;"/>
    <path d="M272.709,181.579L274.437,181.345L274.437,218.735L274.029,219.684L231.647,240.244L192.518,217.931L272.964,182.383L272.709,181.579ZM32.881,223.36C41.247,235.41 52.928,245.231 67.225,251.155C98.335,264.048 132.658,254.687 153.586,230.387C154.49,231.912 155.777,233.225 157.398,234.154C162.376,237.009 168.633,235.175 171.362,230.062L171.839,229.168L178.38,233.518C178.188,233.957 178,234.397 177.816,234.838C176.995,236.387 177.551,238.342 179.059,239.202L200.168,255.514L114.888,296.884L107.107,295.629L32.569,245.92L32.881,223.36Z" style="fill:white;fill-opacity:0.1;"/>
    <path d="M140.311,188.973C142.349,189.207 148.082,189.242 160.763,185.559L162.246,185.128C161.615,191.132 160.204,197.142 157.953,203.017C156.508,206.79 154.774,210.356 152.788,213.699C135.062,237.54 103.416,247.301 74.884,235.478C54.287,226.942 39.95,209.079 34.658,188.522L119.263,164.293C119.751,167.161 120.532,170.421 121.817,173.631C121.087,173.153 120.381,172.692 119.699,172.248C117.762,170.985 116.385,169.817 114.016,169.561C113.665,169.523 113.305,169.555 112.963,169.659C111.099,170.224 109.302,170.775 107.557,171.29C88.067,177.041 72.805,181.574 61.752,184.854C61.244,185.005 60.82,185.385 60.489,185.998C59.64,186.914 59.895,188.63 60.022,189.639C60.081,190.101 60.34,190.514 60.726,190.77C68.916,196.216 76.551,201.235 83.596,205.888C85.066,206.859 86.774,207.06 88.712,206.492C103.346,202.202 119.849,197.272 138.247,191.77C139.117,191.51 139.794,190.818 140.266,189.686C140.312,189.577 140.334,189.452 140.33,189.328L140.311,188.973ZM185.626,181.419L217.05,173.949C219.814,173.567 222.067,170.463 221.986,167.97L221.854,163.885L272.071,179.563L272.964,182.383L192.518,217.931L190.851,216.98C189.399,216.152 187.592,216.64 186.726,218.06L179.602,214.659L180.607,212.777C181.198,211.668 181.576,210.496 181.754,209.311L214.616,197.64C219.421,195.909 219.677,190.562 211.589,189.233L185.594,185.944L185.626,181.419Z" style="fill:white;fill-opacity:0.25;"/>
    <path d="M153.453,114.628L150,9.005L210.536,23.419L216.578,165.326L176.748,174.989C177.577,152.443 169.018,130.432 153.453,114.628Z" style="fill:white;fill-opacity:0.25;"/>
    <path d="M185.626,181.419L185.594,185.944L211.589,189.233C219.677,190.562 219.421,195.909 214.616,197.64L181.754,209.311C182.396,205.028 180.431,200.575 176.532,198.339C175.352,197.662 174.1,197.249 172.84,197.08C174.271,192.663 175.303,188.195 175.955,183.718L185.626,181.419Z" style="fill:white;fill-opacity:0.6;"/>
    <path d="M153.453,114.628C150.229,111.355 146.705,108.348 142.901,105.657L140.047,4.82C139.957,1.639 142.63,-0.707 146.24,0.195L211.999,16.625C214.789,17.322 217.216,20.672 217.295,23.123L221.986,167.97C222.067,170.463 219.814,173.567 217.05,173.949L175.955,183.718C176.378,180.808 176.641,177.894 176.748,174.989L216.578,165.326L210.536,23.419L150,9.005L153.453,114.628Z" style="fill:white;fill-opacity:0.75;"/>
    <path d="M118.067,147.825L117.699,148.099C109.507,146.47 102.148,140.645 99.251,132.199C96.962,125.529 96.212,112.974 95.998,107.991C102.989,108.088 110.075,109.323 117.016,111.801C117.197,118.647 117.678,136.447 118.067,147.825Z" style="fill:white;fill-opacity:0.45;"/>
    <path d="M153.021,229.298C131.89,250.015 100.109,257.325 71.117,245.311C31.41,228.856 11.875,182.343 27.52,141.507C29.254,136.981 31.348,132.714 33.755,128.725C53.062,96.729 92.504,82.701 127.81,97.332C166.208,113.244 185.742,157.266 172.84,197.08C172.434,198.332 171.996,199.58 171.526,200.823L171.407,201.135C168.794,207.954 165.365,214.187 161.28,219.762C159.485,222.211 157.563,224.534 155.528,226.724C154.71,227.603 153.874,228.462 153.021,229.298ZM152.788,213.699C156.452,208.77 159.522,203.239 161.846,197.173C175.411,161.764 158.472,121.433 124.043,107.165C93.282,94.417 58.9,106.76 42.247,134.788C40.261,138.131 38.527,141.697 37.081,145.47C23.516,180.879 40.455,221.21 74.884,235.478C103.416,247.301 135.062,237.54 152.788,213.699Z" style="fill:white;fill-opacity:0.95;"/>
    <path d="M153.586,230.387C132.658,254.687 98.335,264.048 67.225,251.155C27.518,234.7 7.983,188.188 23.627,147.352C26.24,140.532 29.669,134.3 33.755,128.725C31.348,132.714 29.254,136.981 27.52,141.507C11.875,182.343 31.41,228.856 71.117,245.311C100.109,257.325 131.89,250.015 153.021,229.298C153.874,228.462 154.71,227.603 155.528,226.724C157.563,224.534 159.485,222.211 161.28,219.762C159.656,222.453 157.889,225.017 155.994,227.448C155.213,228.451 154.41,229.431 153.586,230.387Z" style="fill:white;fill-opacity:0.37;"/>
    <path d="M42.247,134.788C58.9,106.76 93.282,94.417 124.043,107.165C158.472,121.433 175.411,161.764 161.846,197.173C159.522,203.239 156.452,208.77 152.788,213.699C154.774,210.356 156.508,206.79 157.953,203.017C171.519,167.608 154.58,127.277 120.15,113.009C91.619,101.185 59.972,110.946 42.247,134.788Z" style="fill:white;fill-opacity:0.37;"/>
    <path d="M171.839,229.168L171.362,230.062C168.633,235.175 162.376,237.009 157.398,234.154C155.777,233.225 154.49,231.912 153.586,230.387C154.41,229.431 155.213,228.451 155.994,227.448C156.857,228.677 157.988,229.735 159.357,230.52C163.413,232.846 168.317,232.06 171.471,228.923L171.839,229.168Z" style="fill:white;fill-opacity:0.3;"/>
    <path d="M173.019,226.958C172.573,227.69 172.052,228.346 171.471,228.923C168.317,232.06 163.413,232.846 159.357,230.52C157.988,229.735 156.857,228.677 155.994,227.448C157.889,225.017 159.656,222.453 161.28,219.762C165.365,214.187 168.794,207.954 171.407,201.135L171.526,200.823C171.996,199.58 172.434,198.332 172.84,197.08C174.1,197.249 175.352,197.662 176.532,198.339C181.51,201.194 183.336,207.663 180.607,212.777L173.321,226.427C173.225,226.608 173.124,226.785 173.019,226.958Z" style="fill:white;fill-opacity:0.75;"/>
    <path d="M182.86,224.613C184.058,222.474 185.325,220.348 186.63,218.229C186.66,218.171 186.692,218.115 186.726,218.06C187.592,216.64 189.399,216.152 190.851,216.98L273.438,264.076C284.67,272.067 283.343,285.45 276.539,293.43C269.802,292.509 261.234,290.528 250.991,286.378C249.648,285.834 231.669,278.902 218.381,266.98C193.545,244.698 186.325,231.747 182.86,224.613Z" style="fill:white;fill-opacity:0.45;"/>
    <path d="M276.539,293.43C271.258,299.625 262.677,302.564 254.109,297.199L179.059,239.202C177.551,238.342 176.995,236.387 177.816,234.838C178,234.397 178.188,233.957 178.38,233.518C179.695,230.515 181.213,227.552 182.86,224.613C186.325,231.747 193.545,244.698 218.381,266.98C231.669,278.902 249.648,285.834 250.991,286.378C261.234,290.528 269.802,292.509 276.539,293.43Z" style="fill:white;fill-opacity:0.25;"/>
    <path d="M178.38,233.518L171.471,228.923C172.052,228.346 172.573,227.69 173.019,226.958C173.124,226.785 173.225,226.608 173.321,226.427L179.602,214.659L186.726,218.06C186.692,218.115 186.66,218.171 186.63,218.229C183.532,223.258 180.653,228.329 178.38,233.518Z" style="fill:white;fill-opacity:0.4;"/>
    <path d="M135.801,187.098L135.844,188.32C120.465,182.58 118.88,163.391 118.454,157.151C118.096,151.893 117.268,121.301 117.016,111.801C118.064,112.175 119.109,112.578 120.15,113.009C122.852,114.128 125.445,115.408 127.925,116.834L129.583,171.886C129.583,171.886 129.528,182.483 135.801,187.098Z" style="fill:white;fill-opacity:0.3;"/>
    <path d="M137.721,188.218C129.736,190.676 121.724,193.117 113.689,195.541C101.142,199.326 92.552,201.834 87.914,203.058C86.562,203.413 85.113,203.082 83.556,202.064C72.266,194.657 64.826,189.741 61.242,187.305C60.906,187.079 60.655,186.645 60.489,185.998C60.82,185.385 61.245,185.005 61.752,184.854C72.807,181.579 88.073,177.061 107.557,171.29C109.303,170.777 111.101,170.23 112.963,169.659C113.305,169.557 113.665,169.524 114.016,169.561C116.384,169.82 117.763,170.984 119.699,172.248C120.381,172.691 121.086,173.152 121.816,173.63C122.401,175.093 123.091,176.546 123.905,177.947C120.613,175.771 117.33,173.588 114.058,171.397C113.579,171.078 112.915,171.029 112.06,171.25C110.932,171.544 109.075,172.109 106.489,172.951C105.284,173.344 103.415,173.894 100.889,174.604C95.191,176.201 91.315,177.347 89.263,178.037C87.125,178.756 85.551,179.248 84.541,179.511C82.088,180.144 80.57,180.553 79.989,180.738C76.74,181.751 73.319,182.781 69.72,183.832C69.032,184.031 68.281,184.33 67.464,184.727C67.236,184.837 67.118,185.013 67.12,185.256C67.118,185.369 67.181,185.475 67.297,185.579C68.554,186.654 69.851,187.621 71.193,188.478C73.244,189.787 74.498,190.615 74.956,190.962C76.01,191.753 77.26,192.586 78.705,193.462C79.655,194.035 80.734,195.122 81.862,195.674C82.261,195.871 82.706,196.126 83.195,196.45C86.359,198.516 88.406,199.869 89.326,200.502C89.794,200.827 90.384,200.922 90.934,200.759L134.676,187.847C135.056,188.013 135.446,188.171 135.844,188.32L135.815,187.511L135.881,187.491C135.987,187.459 136.08,187.411 136.159,187.35C136.643,187.677 137.163,187.968 137.721,188.218ZM75.715,193.33C74.797,192.734 73.702,191.492 72.415,191.877C72.17,191.95 72.126,192.28 72.346,192.413C73.318,193.007 74.275,193.613 75.216,194.224C76.129,194.815 77.224,196.063 78.51,195.672C78.756,195.599 78.799,195.275 78.58,195.136C77.607,194.542 76.651,193.942 75.715,193.33Z" style="fill:white;fill-opacity:0.95;"/>
    <path d="M136.159,187.35C136.08,187.411 135.987,187.459 135.881,187.491L135.815,187.511L135.801,187.098C135.918,187.184 136.037,187.268 136.159,187.35ZM134.676,187.847L90.934,200.759C90.384,200.922 89.794,200.827 89.326,200.502C88.406,199.869 86.359,198.516 83.195,196.45C82.706,196.126 82.261,195.871 81.862,195.674C80.734,195.122 79.655,194.035 78.705,193.462C77.26,192.586 76.01,191.753 74.956,190.962C74.498,190.615 73.244,189.787 71.193,188.478C69.851,187.621 68.554,186.654 67.297,185.579C67.181,185.475 67.118,185.369 67.12,185.256C67.118,185.013 67.236,184.837 67.464,184.727C68.281,184.33 69.032,184.031 69.72,183.832C73.319,182.781 76.74,181.751 79.989,180.738C80.57,180.553 82.088,180.144 84.541,179.511C85.551,179.248 87.125,178.756 89.263,178.037C91.315,177.347 95.191,176.201 100.889,174.604C103.415,173.894 105.284,173.344 106.489,172.951C109.075,172.109 110.932,171.544 112.06,171.25C112.915,171.029 113.579,171.078 114.058,171.397C117.33,173.588 120.613,175.771 123.905,177.947C126.276,182.028 129.702,185.671 134.676,187.847Z" style="fill:white;fill-opacity:0.25;"/>
    <path d="M162.302,170.903C162.755,175.593 162.747,180.359 162.246,185.128L160.763,185.559C144.012,190.424 139.384,188.802 139.384,188.802C129.509,186.204 129.583,171.886 129.583,171.886L127.925,116.834C135.289,121.067 141.648,126.582 146.837,132.989L148.185,174.522L162.302,170.903Z" style="fill:white;fill-opacity:0.75;"/>
    <path d="M140.311,188.973L140.33,189.328C140.334,189.452 140.311,189.576 140.266,189.686C139.79,190.816 139.117,191.511 138.247,191.77C119.855,197.291 103.345,202.199 88.712,206.492C86.774,207.059 85.065,206.86 83.596,205.888C76.547,201.24 68.926,196.201 60.726,190.77C60.341,190.513 60.08,190.101 60.022,189.639C59.894,188.63 59.64,186.914 60.489,185.998C60.655,186.645 60.906,187.079 61.242,187.305C64.826,189.741 72.266,194.657 83.556,202.064C85.113,203.082 86.562,203.413 87.914,203.058C92.552,201.834 101.142,199.326 113.689,195.541C121.724,193.117 129.736,190.676 137.721,188.218C138.241,188.45 138.795,188.647 139.384,188.802C139.384,188.802 139.657,188.898 140.311,188.973Z" style="fill:white;fill-opacity:0.5;"/>
    <path d="M75.715,193.33C74.797,192.734 73.702,191.492 72.415,191.877C72.17,191.95 72.126,192.28 72.346,192.413C73.318,193.007 74.275,193.613 75.216,194.224C76.129,194.815 77.224,196.063 78.51,195.672C78.756,195.599 78.799,195.275 78.58,195.136C77.607,194.542 76.651,193.942 75.715,193.33Z" style="fill:white;fill-opacity:0.5;fill-rule:nonzero;"/>
    <path d="M146.837,132.989C155.542,143.737 160.956,156.991 162.302,170.903L148.185,174.522L146.837,132.989Z" style="fill:white;fill-opacity:0.25;"/>
</svg>
