<?xml version="1.0" encoding="utf-8"?>
<!-- Generator: Adobe Illustrator 24.1.2, SVG Export Plug-In . SVG Version: 6.00 Build 0)  -->
<svg version="1.1" id="Layer_1" xmlns="http://www.w3.org/2000/svg" xmlns:xlink="http://www.w3.org/1999/xlink" x="0px" y="0px"
	 viewBox="0 0 300 300" style="enable-background:new 0 0 300 300;" xml:space="preserve">
<style type="text/css">
	.st0{opacity:0.2;fill:#FFFFFF;enable-background:new    ;}
	.st1{opacity:0.7;fill:#FFFFFF;enable-background:new    ;}
	.st2{fill:#FFFFFF;}
	.st3{opacity:0.4;fill:#FFFFFF;enable-background:new    ;}
	.st4{opacity:0.8;fill:#FFFFFF;enable-background:new    ;}
</style>
<path class="st0" d="M247.1,160.7c-4.6,47.7-41.5,86-89.1,92.3l-0.1,0.8c52-2.2,94.1-42.8,98.2-94.7l-3.2,0.6L247.1,160.7z"/>
<path class="st0" d="M247.1,141.5l5.7,1l3.4,0.6c-4.1-51.9-46.3-92.6-98.3-94.8l0.1,0.8C205.6,55.3,242.6,93.7,247.1,141.5z"/>
<path class="st0" d="M31,145.2C34,83.5,82.4,33.6,144,28.6l0.1-0.4C78.2,28.7,24.3,81,22,146.9l6.1-1.1L31,145.2z"/>
<path class="st0" d="M31,156.9l-3-0.6l-6-1.1c2.4,65.8,56.1,118.1,122,118.6l-0.1-0.4C82.4,268.5,34.1,218.6,31,156.9z"/>
<path class="st1" d="M276.3,155.2l-3.1,0.6l-7.7,1.4l-9.4,1.8c-4.1,51.9-46.3,92.5-98.2,94.7l-0.1,0.4l-3.7,19.7
	C220.1,273.5,274,221.2,276.3,155.2z"/>
<path class="st1" d="M48.5,142l2.7-0.5c4.6-47.7,41.4-85.9,88.8-92.3l3.8-19.8v-0.2l0.1-0.5C82.4,33.7,34,83.5,31,145.2l9.8-1.8
	L48.5,142z"/>
<path class="st1" d="M154.4,29.7l3.5,18.7c52,2.2,94.2,42.9,98.3,94.8l9.4,1.7l7.7,1.4l3.2,0.6C274,81,220.1,28.6,154.1,28.3l0.2,1
	L154.4,29.7z"/>
<path class="st1" d="M140.3,253.9l-0.2-0.9c-47.4-6.4-84.2-44.5-88.8-92.2l-2.9-0.5L31,156.9c3.1,61.7,51.4,111.6,113,116.5
	l-3.6-19.1L140.3,253.9z"/>
<polygon class="st2" points="149.2,151 149.2,151 149.2,151 "/>
<polygon class="st2" points="172.6,127.6 150.2,150 172.6,127.7 "/>
<polygon class="st3" points="127.6,115.2 82.4,84.3 125.3,127.1 "/>
<polygon class="st3" points="215.9,84.3 172.6,127.7 184.6,129.9 "/>
<path class="st0" d="M28,156.4l20.4,3.9l64.8,12.2l12,2.3l23.9-23.7H-0.2l20.6,3.9C20.4,154.9,28,156.4,28,156.4z"/>
<polygon class="st0" points="82.4,84.3 113.5,129.8 125.3,127.1 "/>
<polygon class="st3" points="82.4,217.7 125.2,174.7 113.2,172.5 "/>
<polygon class="st3" points="149.2,151 149.1,151 149.1,151 149.1,151 125.3,127.1 113.5,129.8 48.5,141.9 40.8,143.4 28.1,145.8 
	20.4,147.2 -0.2,151.1 20.3,151.1 28,151.1 40.5,151.1 48.1,151.1 127.8,151.1 149.1,151.1 125.2,174.7 127.5,186.9 140.3,253.9 
	140.4,254.4 144.2,274.3 144.2,274.5 149.1,300.4 149.1,274.5 149.1,274.4 149.1,254.4 149.1,254.2 149.1,172.1 149.1,162.2 
	149.1,157.8 149.1,151.1 149.1,151 149.1,151 "/>
<polygon class="st0" points="127.5,186.9 125.2,174.7 82.4,217.7 "/>
<polygon class="st0" points="184.8,172.5 172.6,174.8 215.9,217.8 "/>
<polygon class="st3" points="215.9,217.8 172.6,174.8 170.4,186.7 "/>
<polygon class="st3" points="273.3,151.1 265.7,151.1 253.2,151.1 245.5,151.1 170.1,151.1 161.8,151.1 149.1,151 172.6,174.8 
	184.8,172.5 245.1,161.1 252.9,159.6 265.5,157.3 273.2,155.8 298.6,151.1 "/>
<polygon class="st2" points="149.2,151 149.2,151 150.2,150 "/>
<polygon class="st0" points="170.3,115.3 172.6,127.7 215.9,84.3 "/>
<polygon class="st4" points="143.9,29.2 143.9,29.3 140.1,49.3 140,49.8 127.6,115.2 125.3,127.1 149.1,151 149.1,151 149.1,149 
	149.1,129.7 149.1,49.5 149.1,49.3 149.1,29.3 149.1,29.2 149.1,1.7 "/>
<polygon class="st2" points="170.3,115.3 158.2,50.4 158.1,49.5 154.4,29.7 154.3,29.2 149.1,1.7 149.1,29.2 149.1,29.3 149.1,49.3 
	149.1,49.5 149.1,129.7 149.1,148.5 149.1,151 150.2,150 172.6,127.6 "/>
<polygon class="st0" points="273.2,146.3 265.5,144.9 252.8,142.5 252.8,142.5 184.6,129.9 172.6,127.7 149.1,151 161.8,151.1 
	170.1,151.1 245.5,151.1 253.2,151.1 265.7,151.1 273.3,151.1 298.6,151.1 "/>
<polygon class="st0" points="170.4,186.7 172.6,174.8 149.1,151 149.1,151 149.1,151.1 149.1,157.8 149.1,162.2 149.1,172.1 
	149.1,254.2 149.1,254.4 149.1,274.4 149.1,274.5 149.1,300.4 154,274.5 154.1,274 157.8,254.1 158.1,252.3 "/>
</svg>
