<?xml version="1.0" encoding="UTF-8" standalone="no"?>
<!DOCTYPE svg PUBLIC "-//W3C//DTD SVG 1.1//EN" "http://www.w3.org/Graphics/SVG/1.1/DTD/svg11.dtd">
<svg width="100%" height="100%" viewBox="0 0 300 300" version="1.1" xmlns="http://www.w3.org/2000/svg" xmlns:xlink="http://www.w3.org/1999/xlink" xml:space="preserve" xmlns:serif="http://www.serif.com/" style="fill-rule:evenodd;clip-rule:evenodd;stroke-linejoin:round;stroke-miterlimit:2;">
    <path d="M113.774,193.718L113.759,193.626C113.596,193.037 112.132,192.326 110.505,191.843L76.881,182.942C78.332,182.914 79.798,182.9 81.276,182.9C91.788,182.9 101.662,183.623 110.214,184.89C115.505,185.674 120.291,186.666 124.408,187.824C134.247,190.592 140.271,194.305 140.271,198.385C140.271,199.866 139.477,201.298 137.996,202.655C135.396,205.036 130.676,207.183 124.408,208.946C120.291,210.104 115.505,211.097 110.214,211.881C108.829,212.086 107.409,212.277 105.957,212.453C103.881,212.705 101.739,212.926 99.541,213.113C93.789,213.605 87.65,213.871 81.276,213.871C57.311,213.871 36.665,210.112 27.434,204.72C26.296,204.055 25.331,203.365 24.555,202.655C23.074,201.298 22.281,199.866 22.281,198.385C22.281,196.129 24.123,193.985 27.434,192.051C34.265,188.06 47.348,184.964 63.401,183.624L48.655,194.029C47.238,195.177 46.665,195.876 46.735,196.367C46.735,196.367 46.789,199.853 49.007,200.428L89.786,210.999C92.727,212.031 94.349,211.665 95.688,210.999L113.63,196.916C114.16,196.427 113.848,194.2 113.774,193.718Z" style="fill:white;fill-opacity:0.75;"/>
    <path d="M58.086,188.146C58.435,188.045 58.761,188.109 58.813,188.289C58.865,188.468 58.624,188.696 58.275,188.798C57.927,188.899 57.601,188.835 57.549,188.655C57.497,188.475 57.738,188.247 58.086,188.146ZM99.24,201.397L102.798,198.827C103.536,198.294 104.547,198.918 104.029,199.293L100.331,201.847C99.176,202.645 98.511,201.923 99.24,201.397Z" style="fill:white;fill-opacity:0.5;"/>
    <path d="M46.735,196.367C46.735,196.367 46.789,199.853 49.007,200.428L89.786,210.999C92.727,212.031 94.349,211.665 95.688,210.999L113.63,196.916C114.16,196.427 113.848,194.2 113.774,193.718C113.778,193.827 113.733,193.932 113.63,194.029L95.688,208.112C94.349,208.777 92.727,209.144 89.786,208.112L49.007,197.54C47.657,197.19 46.812,196.904 46.735,196.367Z" style="fill:white;fill-opacity:0.32;"/>
    <path d="M113.759,193.626L113.774,193.718C113.778,193.827 113.733,193.932 113.63,194.029L95.688,208.112C94.349,208.777 92.727,209.144 89.786,208.112L49.007,197.54C47.657,197.19 46.812,196.904 46.735,196.367C46.665,195.876 47.238,195.177 48.655,194.029L64.897,182.568C66.638,181.341 67.337,180.815 68.286,180.815C69.733,180.815 71.838,181.607 71.838,181.607L110.505,191.843C112.132,192.326 113.596,193.037 113.759,193.626ZM99.24,201.397C98.511,201.923 99.176,202.645 100.331,201.847L104.029,199.293C104.547,198.918 103.536,198.294 102.798,198.827L99.24,201.397ZM107.484,193.669C107.35,193.188 106.113,192.596 104.735,192.188L71.968,183.497C71.968,183.497 70.186,182.834 68.957,182.82C68.151,182.811 67.551,183.232 66.061,184.215L52.157,193.391C50.943,194.313 50.45,194.877 50.505,195.276C50.565,195.714 51.281,195.955 52.425,196.252L86.983,205.236C89.473,206.103 90.854,205.82 91.998,205.291L107.371,193.996C107.459,193.918 107.498,193.834 107.495,193.744L107.484,193.669ZM58.086,188.146C57.738,188.247 57.497,188.475 57.549,188.655C57.601,188.835 57.927,188.899 58.275,188.798C58.624,188.696 58.865,188.468 58.813,188.289C58.761,188.109 58.435,188.045 58.086,188.146Z" style="fill:white;fill-opacity:0.95;"/>
    <path d="M27.434,213.259C24.123,211.325 22.281,209.18 22.281,206.924C22.281,205.444 23.074,204.011 24.555,202.655C25.331,203.365 26.296,204.055 27.434,204.72C36.665,210.112 57.311,213.871 81.276,213.871C87.65,213.871 93.789,213.605 99.541,213.113C101.739,212.926 103.881,212.705 105.957,212.453C107.409,212.277 108.829,212.086 110.214,211.881C115.505,211.097 120.291,210.104 124.408,208.946C130.676,207.183 135.396,205.036 137.996,202.655C139.477,204.011 140.271,205.444 140.271,206.924C140.271,211.004 134.247,214.718 124.408,217.485C120.291,218.643 115.505,219.635 110.214,220.419C109.386,220.542 108.546,220.66 107.694,220.772C104.574,221.183 101.295,221.524 97.889,221.786C92.619,222.192 87.044,222.41 81.276,222.41C77.095,222.41 73.016,222.296 69.08,222.078C65.679,221.89 62.386,221.625 59.228,221.291C45.09,219.793 33.663,216.898 27.434,213.259Z" style="fill:white;fill-opacity:0.5;"/>
    <path d="M67.438,183.329C49.552,184.459 34.83,187.731 27.434,192.051L27.434,159.93C42.527,143.55 65.576,135.227 88.974,139.993C96.71,141.569 103.85,144.446 110.214,148.35L110.214,184.89C101.662,183.623 91.788,182.9 81.276,182.9C77.716,182.9 74.229,182.982 70.843,183.141C70.258,182.981 69.544,182.826 68.957,182.82C68.458,182.815 68.038,182.974 67.438,183.329ZM27.434,142.337L27.434,27.316C27.434,17.809 35.152,10.091 44.659,10.091L282.775,10.091C292.282,10.091 300,17.809 300,27.316L300,219.93C300,229.436 292.282,237.155 282.775,237.155L220.489,237.155L220.489,18.099C220.489,16.834 219.462,15.806 218.196,15.806L112.508,15.806C111.242,15.806 110.214,16.834 110.214,18.099L110.214,129.299C105.062,126.944 99.564,125.133 93.777,123.954C69.084,118.925 44.73,126.534 27.434,142.337ZM110.214,232.838L107.694,220.772C108.546,220.66 109.386,220.542 110.214,220.419L110.214,232.838ZM97.889,221.786L101.022,236.784C95.945,235.391 89.059,234.534 81.481,234.534C75.857,234.534 70.615,235.006 66.21,235.819L69.08,222.078C73.016,222.296 77.095,222.41 81.276,222.41C87.044,222.41 92.619,222.192 97.889,221.786ZM55.914,237.155L44.659,237.155C35.152,237.155 27.434,229.436 27.434,219.93L27.434,213.259C33.663,216.898 45.09,219.793 59.228,221.291L55.914,237.155Z" style="fill:white;fill-opacity:0.1;"/>
    <path d="M107.484,193.669L107.495,193.744C107.498,193.834 107.459,193.918 107.371,193.996L91.998,205.291C90.854,205.82 89.473,206.103 86.983,205.236L52.425,196.252C51.281,195.955 50.565,195.714 50.505,195.276C50.45,194.877 50.943,194.313 52.157,193.391L66.061,184.215C67.551,183.232 68.151,182.811 68.957,182.82C70.186,182.834 71.968,183.497 71.968,183.497L104.735,192.188C106.113,192.596 107.35,193.188 107.484,193.669Z" style="fill:white;fill-opacity:0.2;"/>
    <path d="M110.214,129.299L110.214,18.099C110.214,16.834 111.242,15.806 112.508,15.806L218.196,15.806C219.462,15.806 220.489,16.834 220.489,18.099L220.489,237.155L211.071,237.155L206.029,235.457C206.2,235.086 206.296,234.673 206.296,234.237L206.296,134.925C206.296,133.315 204.988,132.007 203.378,132.007L127.325,132.007C125.715,132.007 124.408,133.315 124.408,134.925L124.408,137.786C120.05,134.481 115.301,131.625 110.214,129.299ZM124.408,160.097L124.408,187.824C120.291,186.666 115.505,185.674 110.214,184.89L110.214,148.35C115.52,151.605 120.287,155.574 124.408,160.097ZM204.152,119.65C204.718,122.293 207.069,124.277 209.88,124.277C210.018,124.277 210.155,124.273 210.29,124.263C210.423,124.273 210.557,124.277 210.692,124.277C213.936,124.277 216.57,121.517 216.57,118.117C216.57,114.716 213.936,111.956 210.692,111.956C209.304,111.956 208.028,112.461 207.022,113.305C206.289,113.716 205.653,114.28 205.158,114.953L192.5,114.953C192.304,114.953 192.144,115.113 192.144,115.309L192.144,119.293C192.144,119.49 192.304,119.65 192.5,119.65L204.152,119.65ZM206.209,33.772C206.209,32.407 205.101,31.299 203.737,31.299L126.794,31.299C125.429,31.299 124.321,32.407 124.321,33.772L124.321,98.218C124.321,99.583 125.429,100.69 126.794,100.69L203.737,100.69C205.101,100.69 206.209,99.583 206.209,98.218L206.209,33.772Z" style="fill:white;fill-opacity:0.35;"/>
    <path d="M210.29,124.263C210.155,124.273 210.018,124.277 209.88,124.277C207.069,124.277 204.718,122.293 204.152,119.65L204.997,119.65C205.616,122.178 207.729,124.082 210.29,124.263Z" style="fill:white;fill-opacity:0.15;"/>
    <path d="M205.158,114.953C205.653,114.28 206.289,113.716 207.022,113.305C206.476,113.763 206.009,114.321 205.647,114.953L205.158,114.953Z" style="fill:white;fill-opacity:0.15;"/>
    <path d="M212.304,119.65L192.5,119.65C192.304,119.65 192.144,119.49 192.144,119.293L192.144,115.309C192.144,115.113 192.304,114.953 192.5,114.953L212.304,114.953C212.501,114.953 212.66,115.113 212.66,115.309L212.66,119.293C212.66,119.49 212.501,119.65 212.304,119.65Z" style="fill:white;fill-opacity:0.65;"/>
    <path d="M207.914,114.953C208.645,114.248 209.621,113.817 210.692,113.817C212.956,113.817 214.794,115.744 214.794,118.117C214.794,120.49 212.956,122.416 210.692,122.416C208.943,122.416 207.448,121.267 206.858,119.65L212.304,119.65C212.501,119.65 212.66,119.49 212.66,119.293L212.66,115.309C212.66,115.113 212.501,114.953 212.304,114.953L207.914,114.953Z" style="fill:white;fill-opacity:0.15;"/>
    <path d="M127.325,237.155L111.116,237.155L110.214,232.838L110.214,220.419C115.505,219.635 120.291,218.643 124.408,217.485L124.408,234.237C124.408,235.847 125.715,237.155 127.325,237.155Z" style="fill:white;fill-opacity:0.26;"/>
    <path d="M210.29,124.263C207.729,124.082 205.616,122.178 204.997,119.65L206.858,119.65C207.448,121.267 208.943,122.416 210.692,122.416C212.956,122.416 214.794,120.49 214.794,118.117C214.794,115.744 212.956,113.817 210.692,113.817C209.621,113.817 208.645,114.248 207.914,114.953L205.647,114.953C206.009,114.321 206.476,113.763 207.022,113.305C208.028,112.461 209.304,111.956 210.692,111.956C213.936,111.956 216.57,114.716 216.57,118.117C216.57,121.517 213.936,124.277 210.692,124.277C210.557,124.277 210.423,124.273 210.29,124.263Z" style="fill:white;fill-opacity:0.75;"/>
    <path d="M206.209,33.772L206.209,98.218C206.209,99.583 205.101,100.69 203.737,100.69L126.794,100.69C125.429,100.69 124.321,99.583 124.321,98.218L124.321,33.772C124.321,32.407 125.429,31.299 126.794,31.299L203.737,31.299C205.101,31.299 206.209,32.407 206.209,33.772Z" style="fill:white;fill-opacity:0.15;"/>
    <path d="M124.408,137.786L124.408,134.925C124.408,133.315 125.715,132.007 127.325,132.007L203.378,132.007C204.988,132.007 206.296,133.315 206.296,134.925L206.296,234.237C206.296,234.673 206.2,235.086 206.029,235.457L174.319,224.784C172.782,224.267 171.119,225.045 170.518,226.528L163.086,224.609L163.744,222.668C165.533,217.395 162.705,211.662 157.432,209.873C156.182,209.449 154.906,209.285 153.663,209.351C157.837,181.255 145.887,154.077 124.408,137.786ZM131.675,237.155L127.325,237.155C125.715,237.155 124.408,235.847 124.408,234.237L124.408,217.485C134.247,214.718 140.271,211.004 140.271,206.924C140.271,205.444 139.477,204.011 137.996,202.655C139.477,201.298 140.271,199.866 140.271,198.385C140.271,194.305 134.247,190.592 124.408,187.824L124.408,160.097C138.067,175.091 144.638,196.176 140.284,217.553C139.512,221.343 138.428,224.99 137.063,228.472C135.485,231.526 133.68,234.426 131.675,237.155Z" style="fill:white;fill-opacity:0.15;"/>
    <path d="M51.522,258.184L59.228,221.291C62.386,221.625 65.679,221.89 69.08,222.078L66.21,235.819C70.615,235.006 75.857,234.534 81.481,234.534C89.059,234.534 95.945,235.391 101.022,236.784L97.889,221.786C101.295,221.524 104.574,221.183 107.694,220.772L114.502,253.368C111.64,255.231 108.633,256.873 105.51,258.275L103.316,247.769C98.131,249.575 90.272,250.728 81.481,250.728C74.646,250.728 68.374,250.031 63.484,248.872L60.917,261.162L56.828,260.308C55.017,259.673 53.248,258.964 51.522,258.184ZM81.481,239.781C75.992,239.781 71.535,241.058 71.535,242.631C71.535,244.204 75.992,245.481 81.481,245.481C86.971,245.481 91.428,244.204 91.428,242.631C91.428,241.058 86.971,239.781 81.481,239.781Z" style="fill:white;fill-opacity:0.24;"/>
    <path d="M139.861,243.037C122.897,266.186 93.448,278.676 63.503,272.576C22.489,264.221 -4.025,224.141 4.329,183.128C5.255,178.582 6.571,174.215 8.234,170.053C21.579,136.666 57.309,116.526 93.777,123.954C133.438,132.033 159.541,169.781 153.663,209.351C153.479,210.595 153.262,211.841 153.013,213.088L152.95,213.402C151.555,220.251 149.275,226.695 146.254,232.64C144.927,235.253 143.456,237.769 141.855,240.181C141.211,241.15 140.546,242.102 139.861,243.037ZM137.063,228.472C139.785,223.207 141.833,217.483 143.074,211.39C150.318,175.828 127.327,141.074 91.765,133.83C59.992,127.358 28.864,145.021 17.425,174.221C16.061,177.703 14.977,181.35 14.205,185.14C6.961,220.702 29.952,255.456 65.514,262.7C94.984,268.703 123.899,253.943 137.063,228.472Z" style="fill:white;fill-opacity:0.95;"/>
    <path d="M140.586,243.956C124.408,270.424 92.846,285.285 60.712,278.739C19.699,270.384 -6.816,230.304 1.538,189.291C2.933,182.442 5.213,175.998 8.234,170.053C6.571,174.215 5.255,178.582 4.329,183.128C-4.025,224.141 22.489,264.221 63.503,272.576C93.448,278.676 122.897,266.186 139.861,243.037C140.546,242.102 141.211,241.15 141.855,240.181C143.456,237.769 144.927,235.253 146.254,232.64C145.132,235.449 143.851,238.164 142.424,240.776C141.836,241.854 141.223,242.914 140.586,243.956Z" style="fill:white;fill-opacity:0.37;"/>
    <path d="M17.425,174.221C28.864,145.021 59.992,127.358 91.765,133.83C127.327,141.074 150.318,175.828 143.074,211.39C141.833,217.483 139.785,223.207 137.063,228.472C138.428,224.99 139.512,221.343 140.284,217.553C147.528,181.991 124.537,147.237 88.974,139.993C59.504,133.99 30.59,148.75 17.425,174.221Z" style="fill:white;fill-opacity:0.37;"/>
    <path d="M157.991,239.572L157.678,240.494C155.889,245.766 150.156,248.595 144.884,246.806C143.167,246.223 141.709,245.223 140.586,243.956C141.223,242.914 141.836,241.854 142.424,240.776C143.459,241.773 144.724,242.563 146.174,243.055C150.47,244.512 155.071,242.905 157.596,239.409L157.991,239.572Z" style="fill:white;fill-opacity:0.3;"/>
    <path d="M158.764,237.294C158.455,238.058 158.061,238.765 157.596,239.409C155.071,242.905 150.47,244.512 146.174,243.055C144.724,242.563 143.459,241.773 142.424,240.776C143.851,238.164 145.132,235.449 146.254,232.64C149.275,226.695 151.555,220.251 152.95,213.402L153.013,213.088C153.262,211.841 153.479,210.595 153.663,209.351C154.906,209.285 156.182,209.449 157.432,209.873C162.705,211.662 165.533,217.395 163.744,222.668L158.969,236.743C158.905,236.93 158.837,237.113 158.764,237.294Z" style="fill:white;fill-opacity:0.75;"/>
    <path d="M167.869,233.35C168.673,231.134 169.543,228.919 170.453,226.703C170.473,226.644 170.494,226.585 170.518,226.528C171.119,225.045 172.782,224.267 174.319,224.784L261.746,254.211C273.898,259.699 274.825,272.465 269.579,281.145C262.928,281.479 254.338,281.146 243.774,279.08C242.389,278.809 223.903,275.512 209.12,266.71C181.489,250.258 172.389,239.414 167.869,233.35Z" style="fill:white;fill-opacity:0.45;"/>
    <path d="M269.579,281.145C265.507,287.883 257.715,292.159 248.565,288.658L166.61,247.685C165.014,247.148 164.154,245.415 164.692,243.819C164.796,243.374 164.904,242.928 165.018,242.483C165.791,239.438 166.766,236.394 167.869,233.35C172.389,239.414 181.489,250.258 209.12,266.71C223.903,275.512 242.389,278.809 243.774,279.08C254.338,281.146 262.928,281.479 269.579,281.145Z" style="fill:white;fill-opacity:0.35;"/>
    <path d="M165.018,242.483L157.596,239.409C158.061,238.765 158.455,238.058 158.764,237.294C158.837,237.113 158.905,236.93 158.969,236.743L163.086,224.609L170.518,226.528C170.494,226.585 170.473,226.644 170.453,226.703C168.294,231.962 166.354,237.221 165.018,242.483Z" style="fill:white;fill-opacity:0.4;"/>
    <path d="M113.774,193.718C113.773,193.687 113.768,193.657 113.759,193.626C113.759,193.626 113.765,193.658 113.774,193.718Z" style="fill:white;fill-opacity:0.32;"/>
</svg>
