<?xml version="1.0" encoding="UTF-8" standalone="no"?>
<!DOCTYPE svg PUBLIC "-//W3C//DTD SVG 1.1//EN" "http://www.w3.org/Graphics/SVG/1.1/DTD/svg11.dtd">
<svg width="100%" height="100%" viewBox="0 0 300 300" version="1.1" xmlns="http://www.w3.org/2000/svg" xmlns:xlink="http://www.w3.org/1999/xlink" xml:space="preserve" xmlns:serif="http://www.serif.com/" style="fill-rule:evenodd;clip-rule:evenodd;stroke-linejoin:round;stroke-miterlimit:2;">
    <path d="M193.97,128.427C192.82,128.476 191.56,128.502 190.916,128.425C188.761,128.168 186.71,127.702 184.761,127.032C184.179,126.832 183.362,126.433 182.316,125.833C181.529,125.381 180.721,124.974 179.888,124.604C179.319,124.18 178.74,123.755 178.145,123.334C177.486,122.868 176.933,122.424 176.489,122.006C174.736,120.356 173.006,118.899 171.295,117.632C169.601,116.372 168.42,115.378 167.761,114.654C164.709,111.287 162.905,107.087 162.317,102.582C162.217,101.816 162.12,100.935 162.027,99.938C161.895,98.533 161.937,96.918 161.824,95.397L164.847,96.365C164.934,96.394 165.029,96.349 165.06,96.262C165.21,95.835 165.117,95.501 164.754,95.252C164.052,94.772 163.133,94.375 161.995,94.063C162.728,88.914 163.841,83.849 164.88,78.732C167.79,79.295 170.658,80.072 173.453,81.128C173.611,81.188 173.714,81.234 173.762,81.266C173.918,81.374 174.128,81.244 174.1,81.057C173.885,79.621 171.736,78.942 170.536,78.6C168.748,78.091 166.938,77.668 165.105,77.33C165.761,72.619 168.012,68.882 171.861,66.119C174.347,64.335 177.065,63.003 180.014,62.119C185.082,60.601 190.067,60.009 195.511,59.475C197.152,59.314 200.583,59.202 205.809,59.134C210.938,59.067 214.913,58.938 217.74,58.742C220.67,58.539 223.342,58.041 225.764,57.24C225.834,57.214 225.912,57.256 225.934,57.33C226.999,60.893 228.063,64.563 227.134,68.313C226.995,68.875 226.622,69.876 226.015,71.32C224.217,73.056 222.203,74.464 219.981,75.548C218.743,76.153 217.644,76.649 216.695,77.05C216.672,77.06 216.653,77.07 216.637,77.082L215.508,77.867C215.334,77.989 215.141,78.084 214.942,78.16C214.164,78.457 212.652,78.879 210.401,79.401C207.754,80.015 205.387,80.477 203.307,80.787C202.554,80.899 201.699,80.945 200.741,80.922C200.062,80.906 199.2,80.923 198.158,80.977C197.261,81.023 196.219,81.246 195.035,81.649C192.024,82.675 190.771,85.312 190.208,88.235C189.932,89.673 189.584,91.085 189.163,92.467C189.096,92.689 189.097,92.927 189.166,93.149C189.615,94.584 190.176,96.475 190.868,98.819C191.421,100.694 192.331,103.054 193.601,105.9C194.376,107.637 195.425,109.374 196.746,111.113C198.695,113.68 200.96,114.859 204.056,113.718C204.223,113.657 204.384,113.57 204.529,113.461C206.434,112.027 207.463,109.842 210.044,109.277C210.903,109.089 212.17,109.01 213.07,109.026C214.691,109.055 216.097,109.029 217.283,108.946C218.946,108.829 220.362,108.298 221.532,107.344C221.744,107.171 221.927,106.965 222.072,106.733L222.995,105.244C223.255,105.894 223.406,106.553 223.455,107.222C223.726,111.209 225.432,121.116 221.365,127.115C219.409,130 213.182,131.395 206.165,130.94C205.837,130.918 205.514,130.891 205.199,130.859C199.794,130.31 196.407,128.288 196.407,128.288C196.407,128.288 195.257,128.372 193.97,128.427ZM189.443,115.249C189.546,115.272 189.636,115.175 189.607,115.072C187.854,109.171 186.352,103.215 185.108,97.198C185.079,97.047 184.931,96.947 184.777,96.976C181.818,97.51 179.856,98.98 178.891,101.389C178.219,103.061 178.071,104.926 178.444,106.981C178.763,108.734 179.544,110.445 180.782,112.114C181.744,113.413 183.31,114.017 184.722,114.294C186.822,114.709 188.398,115.027 189.443,115.249ZM220.988,115.497C221.023,115.33 220.917,115.166 220.753,115.133C217.772,114.506 214.858,114.722 212.009,115.783C211.726,115.889 211.398,116.172 211.028,116.638C210.958,116.729 210.925,116.841 210.935,116.954C211.083,118.581 213.209,117.539 214.116,117.282C215.81,116.806 218.412,117.272 220.062,117.256C220.377,117.253 220.647,117.034 220.715,116.729L220.988,115.497Z" style="fill:white;fill-opacity:0.1;"/>
    <path d="M94.342,84.335C94.294,84.33 94.246,84.323 94.198,84.315C93.237,84.185 92.186,84.023 91.104,83.825C88.524,83.352 85.764,82.674 83.613,81.738C83.295,81.6 82.99,81.456 82.701,81.306C78.442,79.097 75.365,77.506 73.642,75.219C71.531,72.417 71.45,68.57 73.711,61.257C73.711,61.257 91.255,62.848 91.383,62.846C115.832,62.405 130.816,67.958 133.872,77.652C132.563,77.886 131.212,78.162 129.813,78.475C128.681,78.728 127.57,79.09 126.481,79.565C126.24,79.671 126.047,79.864 125.948,80.105L125.938,80.131C125.874,80.279 126.012,80.433 126.166,80.388C128.736,79.639 131.376,79.063 134.087,78.668C134.399,79.97 134.653,81.282 134.849,82.601C134.991,83.54 135.145,84.36 135.309,85.058C135.502,85.865 135.666,86.682 135.798,87.505C135.943,88.403 136.091,89.1 136.235,89.596C136.329,89.911 136.319,90.3 136.21,90.76C133.852,90.85 131.195,90.86 128.913,91.506C128.652,91.58 128.421,91.734 128.253,91.95L128.125,92.114C128.019,92.249 128.134,92.442 128.305,92.413C131.023,91.946 133.804,91.763 136.653,91.879C136.653,91.879 141.594,108.347 132.103,118.311C131.392,119.057 130.099,120.224 128.102,121.704C126.433,122.942 121.876,126.952 121.236,127.354C120.744,127.663 120.259,128.016 119.773,128.415C119.04,128.798 118.284,129.199 117.506,129.628C116.602,130.125 115.83,130.495 115.19,130.74C112.693,131.698 110.241,132.233 107.832,132.332C106.427,132.297 105.214,132.287 104.188,132.303C103.77,132.31 103.549,132.177 103.214,131.972C103.098,131.901 102.957,131.883 102.828,131.924C102.523,132.02 102.259,132.345 101.924,132.487C100.436,133.115 99.545,133.468 99.255,133.548C98.326,133.804 96.683,134.104 94.322,134.448C94.225,134.417 82.703,135.594 79.633,131.822C73.924,124.808 76.375,109.476 76.663,109.03C77.586,110.326 77.808,111.388 79.571,112.127C80.699,112.6 81.876,112.855 83.102,112.892C84.314,112.929 85.491,112.908 86.633,112.828C88.038,112.911 89,113.001 89.521,113.095C91.479,113.445 92.671,114.862 94.19,116.491C94.67,117.005 95.091,117.339 95.454,117.491C99.156,119.033 101.651,116.96 103.639,114.056C107.141,108.939 108.817,102.893 110.495,96.999C110.554,96.79 110.556,96.568 110.498,96.359C110.148,95.095 109.772,93.535 109.366,91.673C108.888,89.48 107.978,87.398 106.279,86.286C104.28,84.979 101.423,84.662 98.818,84.752C98.445,84.765 96.67,84.645 94.342,84.335ZM78.693,119.356L78.966,120.584C79.033,120.89 79.304,121.109 79.619,121.112C81.269,121.128 83.867,120.662 85.559,121.138C86.465,121.395 88.588,122.437 88.736,120.81C88.746,120.697 88.713,120.584 88.643,120.494C88.273,120.031 87.945,119.745 87.662,119.642C84.816,118.581 81.905,118.365 78.927,118.993C78.763,119.025 78.657,119.189 78.693,119.356ZM110.244,119.095C111.289,118.874 112.862,118.558 114.962,118.144C116.374,117.867 117.937,117.262 118.898,115.966C120.136,114.297 120.918,112.59 121.236,110.84C121.609,108.785 121.461,106.923 120.792,105.254C119.831,102.845 117.872,101.376 114.917,100.842C114.762,100.813 114.615,100.913 114.586,101.064C113.338,107.074 111.836,113.024 110.08,118.919C110.051,119.021 110.141,119.118 110.244,119.095Z" style="fill:white;fill-opacity:0.25;"/>
    <path d="M247,101.432C246.578,100.819 246.159,100.201 245.741,99.578C244.863,98.269 242.413,94.474 238.383,88.2C238.026,87.644 237.563,87.126 237.203,86.524C237.142,86.422 237.003,86.399 236.913,86.476C236.408,86.904 235.875,87.216 235.312,87.409C232.617,88.338 229.478,88.451 226.172,88.393C225.281,88.377 222.106,87.69 220.945,87.423L216.739,77.031C217.679,76.634 218.762,76.143 219.981,75.548C222.203,74.464 224.217,73.056 226.015,71.32C228.61,71.467 231.157,71.635 233.652,71.818C235.685,71.969 237.56,72.374 239.351,73.612C240.409,74.342 241.84,75.365 243.644,76.674C244.87,77.565 246.455,78.996 248.401,80.967C249.204,81.783 249.91,82.495 250.519,83.105C251.858,84.446 252.728,85.29 253.128,85.637C253.498,85.958 254.115,86.402 254.55,86.836C258.467,90.734 262.361,94.629 266.233,98.517C266.612,98.899 267.076,99.433 267.622,100.125C268.127,100.765 269.259,101.633 269.854,102.63C269.918,102.739 269.992,102.839 270.076,102.932C273.334,106.518 276.218,110.187 278.73,113.944C280.135,116.04 281.303,117.996 281.66,120.285C281.782,121.064 281.287,122.324 280.846,123.131C279.618,125.392 278.206,127.553 276.611,129.615C274.688,132.104 272.591,134.532 270.317,136.899C269.188,138.073 268.047,138.918 266.822,140.102C266.49,140.424 266.021,140.848 265.413,141.379C264.572,142.112 263.723,142.83 262.865,143.535C257.683,147.796 252.2,151.547 246.416,154.789C245.108,155.526 243.789,156.278 242.464,157.05C242.171,157.22 241.367,157.609 240.052,158.211C239.949,158.259 239.882,158.362 239.882,158.475C238.028,148.613 229.51,136.24 229.51,136.24C229.62,136.256 229.732,136.236 229.832,136.191C231.903,135.252 235.17,133.461 239.631,130.818C243.251,128.673 246.571,126.518 249.591,124.35C251.413,123.042 253.126,121.729 254.73,120.411C256.206,119.198 257.357,117.925 258.653,117.085C258.875,116.941 258.917,116.635 258.746,116.436C258.184,115.78 257.293,114.998 256.601,114.162C253.303,110.19 250.102,105.946 247,101.432Z" style="fill:white;fill-opacity:0.3;"/>
    <path d="M211.136,79.228C212.985,78.786 214.252,78.424 214.942,78.16C215.141,78.084 215.334,77.989 215.508,77.867L216.637,77.082C216.653,77.07 216.672,77.06 216.695,77.05L216.739,77.031L220.945,87.423C220.992,87.492 221.077,87.811 221.188,88.319C220.117,87.843 219.138,87.432 218.949,87.425C218.422,87.406 217.937,87.52 217.627,87.898C217.333,88.256 217.399,88.785 217.769,89.046C218.828,89.794 219.952,90.367 221.139,90.766C221.139,90.766 221.351,90.83 221.683,90.923C222.452,95.359 223.452,102.717 222.995,105.244L222.072,106.733C221.927,106.965 221.744,107.171 221.532,107.344C220.362,108.298 218.946,108.829 217.283,108.946C216.254,109.018 215.061,109.047 213.705,109.035C213.717,108.038 214.215,107.475 214.446,107.37C215.826,106.741 218.859,107.769 219.417,104.327C219.956,101.002 212.569,82.876 211.136,79.228ZM220.311,94.459C219.792,94.532 219.512,95.609 219.692,96.866C219.872,98.121 220.438,99.079 220.958,99.005C221.477,98.932 221.757,97.854 221.577,96.598C221.396,95.343 220.83,94.384 220.311,94.459Z" style="fill:white;fill-opacity:0.25;"/>
    <path d="M213.705,109.035C213.497,109.033 213.286,109.03 213.07,109.026C212.17,109.01 210.903,109.089 210.044,109.277C207.463,109.842 206.434,112.027 204.529,113.461C204.384,113.57 204.223,113.657 204.056,113.718C200.96,114.859 198.695,113.68 196.746,111.113C195.425,109.374 194.376,107.637 193.601,105.9C192.331,103.054 191.421,100.694 190.868,98.819C190.176,96.475 189.615,94.584 189.166,93.149C189.097,92.927 189.096,92.689 189.163,92.467C189.584,91.085 189.932,89.673 190.208,88.235C190.771,85.312 192.024,82.675 195.035,81.649C196.219,81.246 197.261,81.023 198.158,80.977C199.2,80.923 200.062,80.906 200.741,80.922C201.699,80.945 202.554,80.899 203.307,80.787C205.387,80.477 207.754,80.015 210.401,79.401C210.656,79.342 210.901,79.285 211.136,79.228C212.569,82.876 219.956,101.002 219.417,104.327C218.859,107.769 215.826,106.741 214.446,107.37C214.215,107.475 213.717,108.038 213.705,109.035ZM211.208,94.793C210.604,94.87 210.256,96.05 210.432,97.429C210.607,98.809 211.237,99.864 211.839,99.79C212.443,99.713 212.791,98.533 212.615,97.154C212.44,95.773 211.81,94.719 211.208,94.793ZM209.025,91.779C210.157,91.438 212.739,90.631 213.022,89.686C213.119,89.367 212.971,89.02 212.668,88.859C211.388,88.171 209.552,88.55 208.176,88.969C206.796,89.387 205.06,90.088 204.378,91.371C204.214,91.673 204.284,92.043 204.539,92.255C205.301,92.886 207.896,92.12 209.025,91.779Z" style="fill:white;fill-opacity:0.3;"/>
    <path d="M239.882,158.475L239.882,160.23C239.882,160.353 239.846,160.472 239.782,160.571C239.399,161.153 239.091,161.514 238.853,161.649C234.961,163.858 231.321,165.817 227.928,167.524C224.124,169.434 220.949,170.888 218.402,171.882C218.164,171.975 217.791,172.094 217.283,172.232C217.074,172.29 216.913,172.457 216.865,172.67C216.328,174.943 215.482,177.002 214.183,180.623C213.44,182.694 212.71,184.659 211.99,186.518C208.144,196.435 204.838,204.948 202.014,214.274C200.342,219.796 199.165,225.43 198.486,231.174C198.287,232.862 198.776,234.625 196.756,235.229C193.881,236.088 191.025,236.738 188.189,237.185C184.487,237.767 181.889,238.111 180.39,238.214C179.683,238.262 179.258,238.294 179.117,238.31C177.644,238.487 176.66,238.574 176.168,238.567C175.148,238.551 174.164,238.596 173.209,238.696C169.835,239.053 166.24,238.866 162.69,238.764C162.297,238.754 161.725,238.632 160.972,238.397C162.082,237.808 163.468,237.127 164.32,236.413C165.546,235.384 166.574,234.084 167.404,232.512C167.861,231.647 168.198,230.341 168.414,228.598C168.764,225.771 168.984,223.652 169.07,222.24C169.171,220.59 169.26,219.468 169.343,218.873C169.586,217.133 169.372,215.75 169.533,214.068C169.764,211.666 169.825,209.177 169.716,206.604C169.526,202.102 169.421,199.613 169.395,199.14C169.097,193.708 168.391,188.338 167.288,183.035C165.693,174.979 163.08,167.318 159.448,160.05C156.5,154.152 152.881,149.033 147.8,144.929C149.051,143.479 150.44,142.179 151.968,141.031C157.441,136.918 163.744,136.461 170.427,137.233C170.877,137.285 172.328,137.301 174.778,137.278C174.933,137.275 175.081,137.217 175.193,137.111C176.637,135.751 177.734,134.39 178.489,133.03C179.882,130.522 180.348,127.714 179.888,124.604C180.721,124.974 181.529,125.381 182.316,125.833C183.362,126.433 184.179,126.832 184.761,127.032C186.71,127.702 188.761,128.168 190.916,128.425C191.228,128.462 191.661,128.48 192.149,128.481C193.751,131.282 199.963,142.562 200.164,149.355L202.649,149.38C202.649,149.38 202.234,143.822 203.08,138.554C206.298,138.703 209.411,138.959 213.035,138.616C213.379,138.581 217.849,138.314 219.062,138.195C221.21,137.979 223.606,137.584 226.253,137.008C227.224,136.796 227.812,136.429 228.597,136.195C228.709,136.159 228.825,136.15 228.941,136.166L229.51,136.24C229.51,136.24 238.028,148.613 239.882,158.475Z" style="fill:white;fill-opacity:0.25;"/>
    <path d="M224.297,89.776C224.06,89.621 219.386,87.441 218.949,87.425C218.422,87.406 217.937,87.52 217.627,87.898C217.333,88.256 217.399,88.785 217.769,89.046C218.828,89.794 219.952,90.367 221.139,90.766C221.139,90.766 225.552,92.086 225.762,91.576C226.029,90.932 225.005,90.237 224.297,89.776Z" style="fill:white;fill-opacity:0.1;"/>
    <path d="M79.673,90.033L79.667,90.057C79.588,90.345 79.5,90.687 79.409,91.051C77.548,91.712 75.982,92.096 74.711,92.207C73.364,92.323 71.318,92.297 68.569,92.133C67.115,92.046 65.543,91.689 63.851,91.069C63.43,90.917 63.066,90.477 62.774,90.335C62.677,90.29 62.561,90.319 62.497,90.409C61.587,91.696 61.127,92.345 61.117,92.361C55.3,101.469 50.823,108.386 44.549,116.236C43.391,117.687 42.179,119.047 40.912,120.321C40.764,120.472 40.777,120.719 40.944,120.848C42.771,122.279 44.848,124.238 46.884,125.823C50.598,128.714 55.142,131.75 60.519,134.931C64.276,137.153 67.466,138.883 70.087,140.121C69.73,140.298 69.44,140.584 69.218,140.986C66.695,145.557 64.341,150.515 62.159,155.863C61.153,158.33 60.391,160.456 59.873,162.24C50.058,157.349 41.114,151.319 33.042,144.151C28.071,139.732 23.674,134.841 20.401,129.666C19.188,127.743 17.995,126.074 18.011,124.045C18.011,123.939 18.024,123.833 18.05,123.73C18.448,122.048 19.33,120.199 20.69,118.182C22.713,115.188 24.536,112.725 26.16,110.789C29.444,106.878 32.65,103.138 36.522,99.269C41.169,94.629 43.951,91.815 46.887,89.142C49.823,86.476 52.335,83.479 55.338,81.099C57.175,79.642 59.214,78.186 61.449,76.735C61.7,76.574 61.973,76.452 62.262,76.375C64.182,75.873 65.533,75.606 66.308,75.574C69.103,75.462 71.328,75.343 72.981,75.217C73.205,75.202 73.424,75.201 73.642,75.219C75.365,77.506 78.442,79.097 82.701,81.306C82.99,81.456 83.295,81.6 83.613,81.738L83.439,82.086C83.295,82.376 83.118,82.646 82.912,82.897C82.475,83.428 82.179,83.852 82.021,84.164C81.098,86 80.313,87.959 79.673,90.033Z" style="fill:white;fill-opacity:0.85;"/>
    <path d="M133.872,77.652C144.134,75.876 154.865,75.597 165.105,77.33C166.938,77.668 168.748,78.091 170.536,78.6C171.736,78.942 173.885,79.621 174.1,81.057C174.128,81.244 173.918,81.374 173.762,81.266C173.714,81.234 173.611,81.188 173.453,81.128C170.658,80.072 167.79,79.295 164.88,78.732C154.827,76.867 144.22,77.015 134.087,78.668C131.376,79.063 128.736,79.639 126.166,80.388C126.012,80.433 125.874,80.279 125.938,80.131L125.948,80.105C126.047,79.864 126.24,79.671 126.481,79.565C127.57,79.09 128.681,78.728 129.813,78.475C131.212,78.162 132.563,77.886 133.872,77.652Z" style="fill:white;fill-opacity:0.95;"/>
    <path d="M79.409,91.051C79.5,90.687 79.588,90.345 79.667,90.057L79.673,90.033C80.313,87.959 81.098,86 82.021,84.164C82.179,83.852 82.475,83.428 82.912,82.897C83.118,82.646 83.295,82.376 83.439,82.086L83.613,81.738C85.764,82.674 88.524,83.352 91.104,83.825C90.712,84.689 90.279,85.521 89.81,86.325C88.871,87.933 88.367,88.811 88.299,88.956C87.811,89.99 87.334,90.876 86.88,91.618C86.456,92.313 86.01,93.211 85.543,94.313C84.839,95.973 84.165,97.539 83.533,99.012C82.753,100.825 81.944,103.488 81.105,107.004C80.764,108.431 80.561,109.936 82.41,110.248C82.677,110.293 83.169,110.278 83.88,110.203C85.636,110.019 86.835,110.808 86.633,112.828C85.491,112.908 84.314,112.929 83.102,112.892C81.876,112.855 80.699,112.6 79.571,112.127C77.808,111.388 77.586,110.326 76.663,109.03C76.663,109.03 77.985,98.005 78.175,96.677C78.272,95.999 78.542,94.774 78.571,94.643L78.82,94.55C79.929,94.131 82.463,93.157 82.684,92.19C82.759,91.865 82.586,91.528 82.272,91.388C81.546,91.058 80.677,91.057 79.817,91.208L79.682,91.233C79.57,91.255 79.457,91.279 79.346,91.305L79.409,91.051ZM79.38,98.356C78.847,98.275 78.265,99.205 78.077,100.434C77.889,101.662 78.168,102.726 78.699,102.807C79.233,102.887 79.815,101.958 80.003,100.729C80.191,99.501 79.911,98.436 79.38,98.356Z" style="fill:white;fill-opacity:0.75;"/>
    <path d="M91.104,83.825C90.712,84.689 90.279,85.521 89.81,86.325C88.871,87.933 88.367,88.811 88.299,88.956C87.811,89.99 87.334,90.876 86.88,91.618C86.456,92.313 86.01,93.211 85.543,94.313C84.839,95.973 84.165,97.539 83.533,99.012C82.753,100.825 81.944,103.488 81.105,107.004C80.764,108.431 80.561,109.936 82.41,110.248C82.677,110.293 83.169,110.278 83.88,110.203C85.636,110.019 86.835,110.808 86.633,112.828C88.038,112.911 89,113.001 89.521,113.095C91.479,113.445 92.671,114.862 94.19,116.491C94.67,117.005 95.091,117.339 95.454,117.491C99.156,119.033 101.651,116.96 103.639,114.056C107.141,108.939 108.817,102.893 110.495,96.999C110.554,96.79 110.556,96.568 110.498,96.359C110.148,95.095 109.772,93.535 109.366,91.673C108.888,89.48 107.978,87.398 106.279,86.286C104.28,84.979 101.423,84.662 98.818,84.752C98.445,84.765 96.67,84.645 94.342,84.335C94.294,84.33 94.246,84.323 94.198,84.315C93.237,84.185 92.186,84.023 91.104,83.825ZM88.487,98.663C87.871,98.584 87.228,99.633 87.05,101.009C86.871,102.385 87.224,103.566 87.84,103.644C88.456,103.723 89.099,102.675 89.276,101.298C89.456,99.922 89.103,98.742 88.487,98.663ZM90.656,95.645C91.791,95.986 94.395,96.75 95.158,96.118C95.415,95.905 95.482,95.533 95.319,95.23C94.627,93.946 92.891,93.242 91.508,92.824C90.122,92.406 88.287,92.033 86.999,92.722C86.697,92.883 86.55,93.229 86.646,93.548C86.931,94.499 89.524,95.304 90.656,95.645Z" style="fill:white;fill-opacity:0.95;"/>
    <path d="M209.025,91.779C210.157,91.438 212.739,90.631 213.022,89.686C213.119,89.367 212.971,89.02 212.668,88.859C211.388,88.171 209.552,88.55 208.176,88.969C206.796,89.387 205.06,90.088 204.378,91.371C204.214,91.673 204.284,92.043 204.539,92.255C205.301,92.886 207.896,92.12 209.025,91.779Z" style="fill:white;fill-opacity:0.1;"/>
    <path d="M136.21,90.76C133.852,90.85 131.195,90.86 128.913,91.506C128.652,91.58 128.421,91.734 128.253,91.95L128.125,92.114C128.019,92.249 128.134,92.442 128.305,92.413C131.023,91.946 133.804,91.763 136.653,91.879C145.169,92.069 153.72,93.104 161.824,95.397L164.847,96.365C164.934,96.394 165.029,96.349 165.06,96.262C165.21,95.835 165.117,95.501 164.754,95.252C164.052,94.772 163.133,94.375 161.995,94.063C160.432,93.571 158.856,93.162 157.267,92.834C150.324,91.4 143.307,90.708 136.21,90.76Z" style="fill:white;fill-opacity:0.95;"/>
    <path d="M90.656,95.645C91.791,95.986 94.395,96.75 95.158,96.118C95.415,95.905 95.482,95.533 95.319,95.23C94.627,93.946 92.891,93.242 91.508,92.824C90.122,92.406 88.287,92.033 86.999,92.722C86.697,92.883 86.55,93.229 86.646,93.548C86.931,94.499 89.524,95.304 90.656,95.645Z" style="fill:white;fill-opacity:0.15;"/>
    <path d="M79.817,91.208C80.677,91.057 81.546,91.058 82.272,91.388C82.586,91.528 82.759,91.865 82.684,92.19C82.463,93.157 79.929,94.131 78.82,94.55L78.571,94.643C77.37,95.089 75.108,95.864 74.361,95.321C74.091,95.126 73.997,94.76 74.14,94.449C74.742,93.118 76.429,92.302 77.784,91.792C78.261,91.612 78.796,91.434 79.346,91.305C79.457,91.279 79.57,91.255 79.682,91.233L79.817,91.208Z" style="fill:white;fill-opacity:0.15;"/>
    <path d="M220.311,94.459C219.792,94.532 219.512,95.609 219.692,96.866C219.872,98.121 220.438,99.079 220.958,99.005C221.477,98.932 221.757,97.854 221.577,96.598C221.396,95.343 220.83,94.384 220.311,94.459Z" style="fill:white;fill-opacity:0.1;"/>
    <path d="M211.208,94.793C210.604,94.87 210.256,96.05 210.432,97.429C210.607,98.809 211.237,99.864 211.839,99.79C212.443,99.713 212.791,98.533 212.615,97.154C212.44,95.773 211.81,94.719 211.208,94.793Z" style="fill:white;fill-opacity:0.1;"/>
    <path d="M189.443,115.249C189.546,115.272 189.636,115.175 189.607,115.072C187.854,109.171 186.352,103.215 185.108,97.198C185.079,97.047 184.931,96.947 184.777,96.976C181.818,97.51 179.856,98.98 178.891,101.389C178.219,103.061 178.071,104.926 178.444,106.981C178.763,108.734 179.544,110.445 180.782,112.114C181.744,113.413 183.31,114.017 184.722,114.294C186.822,114.709 188.398,115.027 189.443,115.249Z" style="fill:white;fill-opacity:0.3;"/>
    <path d="M79.38,98.356C78.847,98.275 78.265,99.205 78.077,100.434C77.889,101.662 78.168,102.726 78.699,102.807C79.233,102.887 79.815,101.958 80.003,100.729C80.191,99.501 79.911,98.436 79.38,98.356Z" style="fill:white;fill-opacity:0.15;"/>
    <path d="M88.487,98.663C87.871,98.584 87.228,99.633 87.05,101.009C86.871,102.385 87.224,103.566 87.84,103.644C88.456,103.723 89.099,102.675 89.276,101.298C89.456,99.922 89.103,98.742 88.487,98.663Z" style="fill:white;fill-opacity:0.15;"/>
    <path d="M155.875,100.813C155.91,100.845 155.917,100.9 155.891,100.941C155.862,100.98 155.811,100.996 155.766,100.974C155.45,100.819 155.155,100.713 154.878,100.655C152.778,100.215 150.62,99.848 148.401,99.559C148.318,99.549 148.253,99.475 148.253,99.391C148.253,99.308 148.318,99.234 148.401,99.224C150.8,98.919 153.984,99.076 155.875,100.813Z" style="fill:white;fill-opacity:0.95;"/>
    <path d="M110.244,119.095C111.289,118.874 112.862,118.558 114.962,118.144C116.374,117.867 117.937,117.262 118.898,115.966C120.136,114.297 120.918,112.59 121.236,110.84C121.609,108.785 121.461,106.923 120.792,105.254C119.831,102.845 117.872,101.376 114.917,100.842C114.762,100.813 114.615,100.913 114.586,101.064C113.338,107.074 111.836,113.024 110.08,118.919C110.051,119.021 110.141,119.118 110.244,119.095Z" style="fill:white;fill-opacity:0.95;"/>
    <path d="M220.988,115.497C221.023,115.33 220.917,115.166 220.753,115.133C217.772,114.506 214.858,114.722 212.009,115.783C211.726,115.889 211.398,116.172 211.028,116.638C210.958,116.729 210.925,116.841 210.935,116.954C211.083,118.581 213.209,117.539 214.116,117.282C215.81,116.806 218.412,117.272 220.062,117.256C220.377,117.253 220.647,117.034 220.715,116.729L220.988,115.497Z" style="fill:white;fill-opacity:0.3;"/>
    <path d="M25.906,159.996C25.945,160.041 25.942,160.111 25.9,160.153C25.884,160.166 25.858,160.166 25.845,160.153C21.88,156.548 18.365,152.091 15.306,146.778C10.396,138.25 7.125,129.792 5.916,120.308C5.81,119.488 5.8,118.568 5.881,117.552C5.9,117.333 6.106,117.182 6.318,117.233L6.34,117.237C6.588,117.295 6.768,117.507 6.784,117.761C7.328,125.894 9.431,133.66 13.091,141.054C16.548,148.036 20.819,154.349 25.906,159.996Z" style="fill:white;fill-opacity:0.95;"/>
    <path d="M274.102,159.989C279.19,154.342 283.461,148.026 286.918,141.044C290.574,133.651 292.678,125.884 293.221,117.751C293.237,117.497 293.417,117.285 293.665,117.227L293.687,117.224C293.896,117.172 294.106,117.323 294.125,117.542C294.205,118.558 294.192,119.478 294.089,120.298C292.88,129.782 289.613,138.24 284.702,146.772C281.644,152.084 278.132,156.542 274.164,160.147C274.151,160.163 274.125,160.163 274.109,160.147C274.067,160.105 274.064,160.034 274.102,159.989Z" style="fill:white;fill-opacity:0.95;"/>
    <path d="M78.693,119.356L78.966,120.584C79.033,120.89 79.304,121.109 79.619,121.112C81.269,121.128 83.867,120.662 85.559,121.138C86.465,121.395 88.588,122.437 88.736,120.81C88.746,120.697 88.713,120.584 88.643,120.494C88.273,120.031 87.945,119.745 87.662,119.642C84.816,118.581 81.905,118.365 78.927,118.993C78.763,119.025 78.657,119.189 78.693,119.356Z" style="fill:white;fill-opacity:0.95;"/>
    <path d="M147.214,241.777C146.552,241.742 146.079,241.761 145.799,241.835C145.108,242.012 144.487,242.099 143.944,242.095C142.378,242.086 141.468,242.42 139.754,242.41C139.403,242.407 138.625,242.449 137.425,242.533C133.318,242.819 129.839,242.845 126.989,242.603C125.14,242.446 123.455,242.452 121.873,242.308C115.425,241.722 109.112,240.915 102.931,239.095C100.998,238.529 101.362,236.828 101.201,235.278C100.246,226.048 97.422,216.422 94.107,207.392C91.99,201.629 89.392,194.721 86.308,186.665C84.832,182.806 83.642,179.394 82.741,176.432C82.7,176.288 82.587,176.172 82.446,176.124C80.326,175.394 78.091,174.464 75.744,173.335C70.524,170.821 65.703,168.299 61.285,165.768C60.703,165.437 60.243,164.993 59.899,164.437C59.841,164.344 59.812,164.234 59.815,164.125L59.873,162.24C60.391,160.456 61.153,158.33 62.159,155.863C64.341,150.515 66.695,145.557 69.218,140.986C69.44,140.584 69.73,140.298 70.087,140.121C70.714,140.044 71.347,140.124 71.994,140.359C73.007,140.729 73.576,140.928 73.695,140.951C75.673,141.359 77.77,141.707 79.982,141.993C82.346,142.298 84.102,142.446 85.25,142.437C87.157,142.417 89.434,142.81 91.473,142.688C94.283,142.517 96.239,142.424 97.335,142.408C98.024,145.63 98.319,148.857 97.696,152.117C97.654,152.332 97.795,152.544 98.011,152.589L100.066,153.046C100.265,153.091 100.451,152.937 100.448,152.734C100.409,149.56 100.984,146.517 102.146,143.601C103.569,140.034 105.465,136.278 107.832,132.332C110.241,132.233 112.693,131.698 115.19,130.74C115.83,130.495 116.602,130.125 117.506,129.628C118.284,129.199 119.04,128.798 119.773,128.415C119.12,133.448 120.693,137.626 124.491,140.941C124.629,141.06 124.803,141.131 124.983,141.141C126.549,141.221 128.736,141.141 131.537,140.893C133.454,140.726 135.721,140.777 138.339,141.051C141.648,141.395 144.803,142.688 147.8,144.929C152.881,149.033 156.5,154.152 159.448,160.05C163.08,167.318 165.693,174.979 167.288,183.035C166.861,182.755 166.617,182.218 166.568,181.43C166.554,181.211 166.33,181.067 166.121,181.147C161.681,182.851 157.113,183.976 152.415,184.53C149.376,184.888 146.32,185.144 143.243,185.302C141.921,185.421 140.599,185.354 139.284,185.09C139.094,185.052 138.924,184.951 138.802,184.803C137.21,182.884 135.375,181.308 133.315,180.057C133.183,179.977 133.029,180.118 133.097,180.256C136.109,186.433 138.358,192.981 139.847,199.896C141.117,205.797 141.725,208.177 143.047,214.316C145.024,223.523 146.414,232.676 147.214,241.777Z" style="fill:white;fill-opacity:0.95;"/>
    <path d="M107.832,132.332C106.427,132.297 105.214,132.287 104.188,132.303C103.77,132.31 103.549,132.177 103.214,131.972C103.098,131.901 102.957,131.883 102.828,131.924C102.523,132.02 102.259,132.345 101.924,132.487C100.436,133.115 99.545,133.468 99.255,133.548C98.326,133.804 96.683,134.104 94.322,134.448C95.856,136.957 96.863,139.61 97.335,142.408C98.024,145.63 98.319,148.857 97.696,152.117C97.654,152.332 97.795,152.544 98.011,152.589L100.066,153.046C100.265,153.091 100.451,152.937 100.448,152.734C100.409,149.56 100.984,146.517 102.146,143.601C103.569,140.034 105.465,136.278 107.832,132.332Z" style="fill:white;fill-opacity:0.75;"/>
    <path d="M9.753,153.76C8.582,152.882 7.643,151.509 6.755,150.161C3.729,145.569 1.526,140.62 0.143,135.31C-0.001,134.757 -0.05,133.924 0.06,133.439C0.105,133.233 0.368,133.175 0.497,133.342C0.603,133.48 0.674,133.615 0.703,133.747C2.311,140.395 5.073,146.421 8.987,151.824C9.367,152.345 9.701,152.927 9.991,153.57C10.058,153.718 9.881,153.856 9.753,153.76Z" style="fill:white;fill-opacity:0.95;"/>
    <path d="M290.256,153.754C290.127,153.853 289.951,153.715 290.018,153.564C290.307,152.924 290.642,152.342 291.021,151.821C294.932,146.421 297.691,140.398 299.299,133.754C299.328,133.622 299.396,133.487 299.505,133.348C299.634,133.184 299.897,133.242 299.939,133.445C300.049,133.931 300.004,134.763 299.859,135.317C298.476,140.62 296.273,145.569 293.25,150.158C292.366,151.506 291.427,152.879 290.256,153.754Z" style="fill:white;fill-opacity:0.95;"/>
    <path d="M153.614,240.413C151.569,241.227 149.437,241.397 147.214,241.777C146.414,232.676 145.024,223.523 143.047,214.316C141.725,208.177 141.117,205.797 139.847,199.896C138.358,192.981 136.109,186.433 133.097,180.256C133.029,180.118 133.183,179.977 133.315,180.057C135.375,181.308 137.21,182.884 138.802,184.803C138.924,184.951 139.094,185.052 139.284,185.09C140.599,185.354 141.921,185.421 143.243,185.302C145.59,194.223 147.459,201.642 148.851,207.556C150.61,215.027 151.977,222.922 152.958,231.242C153.208,233.361 153.428,235.48 153.611,237.606C153.691,238.538 153.695,239.474 153.614,240.413Z" style="fill:white;fill-opacity:0.5;"/>
    <path d="M160.972,238.397C158.596,239.256 156.145,239.928 153.614,240.413C153.695,239.474 153.691,238.538 153.611,237.606C153.428,235.48 153.208,233.361 152.958,231.242C151.977,222.922 150.61,215.027 148.851,207.556C147.459,201.642 145.59,194.223 143.243,185.302C146.32,185.144 149.376,184.888 152.415,184.53C157.113,183.976 161.681,182.851 166.121,181.147C166.33,181.067 166.554,181.211 166.568,181.43C166.617,182.218 166.861,182.755 167.288,183.035C168.391,188.338 169.097,193.708 169.395,199.14C169.421,199.613 169.526,202.102 169.716,206.604C169.825,209.177 169.764,211.666 169.533,214.068C169.372,215.75 169.586,217.133 169.343,218.873C169.26,219.468 169.171,220.59 169.07,222.24C168.984,223.652 168.764,225.771 168.414,228.598C168.198,230.341 167.861,231.647 167.404,232.512C166.574,234.084 165.546,235.384 164.32,236.413C163.468,237.127 162.082,237.808 160.972,238.397Z" style="fill:white;fill-opacity:0.75;"/>
    <path d="M192.149,128.481C193.751,131.282 199.963,142.562 200.164,149.355L202.649,149.38C202.649,149.38 202.234,143.822 203.08,138.554C202.891,138.546 202.702,138.537 202.512,138.529C202.429,138.526 202.365,138.449 202.381,138.365C202.85,135.694 203.789,133.191 205.199,130.859C199.794,130.31 196.407,128.288 196.407,128.288C196.407,128.288 195.257,128.372 193.97,128.427C193.354,128.462 192.714,128.482 192.149,128.481Z" style="fill:white;fill-opacity:0.2;"/>
</svg>
