<?xml version="1.0" encoding="UTF-8" standalone="no"?>
<!DOCTYPE svg PUBLIC "-//W3C//DTD SVG 1.1//EN" "http://www.w3.org/Graphics/SVG/1.1/DTD/svg11.dtd">
<svg width="100%" height="100%" viewBox="0 0 300 300" version="1.1" xmlns="http://www.w3.org/2000/svg" xmlns:xlink="http://www.w3.org/1999/xlink" xml:space="preserve" xmlns:serif="http://www.serif.com/" style="fill-rule:evenodd;clip-rule:evenodd;stroke-linejoin:round;stroke-miterlimit:2;">
    <path d="M61.373,208.299C51.458,201.544 44.943,190.164 44.943,177.273C44.943,175.077 45.132,172.925 45.495,170.831L115.328,170.831C119.727,184.445 129.133,196.469 142.662,203.872C164.664,215.912 191.083,212.182 208.881,196.495C209.416,197.674 210.255,198.735 211.378,199.548C214.827,202.046 219.655,201.274 222.152,197.826L222.589,197.223L227.066,200.937C226.883,201.237 226.703,201.537 226.526,201.839C225.773,202.884 226.01,204.344 227.055,205.097L237.182,214.788L82.458,214.788C82.203,214.788 81.949,214.785 81.696,214.78L81.696,275.508C81.434,275.612 81.216,275.575 81.216,275.575L61.373,275.575L61.373,208.299Z" style="fill:white;fill-opacity:0.55;"/>
    <path d="M227.948,174.812C228.829,174.503 229.433,174.27 229.683,174.186C229.433,174.27 228.829,174.503 227.948,174.812C227.402,174.525 226.833,174.309 226.252,174.163C226.781,173.061 227.271,171.95 227.724,170.831L272.883,170.831C273.35,175.321 273.806,181.269 273.951,188.228C274.197,199.967 270.932,208.849 269.206,212.694L237.859,190.105C236.853,189.38 235.463,189.572 234.688,190.52L229.691,187.44L230.611,186.17C233.109,182.721 232.337,177.894 228.888,175.396C228.584,175.176 228.27,174.981 227.948,174.812Z" style="fill:white;fill-opacity:0.55;"/>
    <path d="M202.373,114.075C212.384,122.26 218.627,133.84 220.327,146.175C216.639,144.491 213.113,142.142 210.332,138.984C208.985,137.456 202.59,131.225 202.373,114.075Z" style="fill:white;fill-opacity:0.5;"/>
    <path d="M159.731,165.634L160.068,166.884C161.387,170.479 161.913,171.246 165.94,170.479L192.872,165.351C192.672,166.829 192.754,168.845 194.019,170.831C195.858,173.718 200.193,176.545 209.787,177.581C211.292,177.744 212.814,177.769 214.311,177.696C212.968,180.079 211.458,182.311 209.804,184.386C206.231,188.021 202.167,191.041 197.78,193.396L150.087,193.396L149.793,193.237C140.335,188.061 133.2,180.281 128.792,171.273C133.535,171.138 141.449,170.624 149.888,168.775C152.258,168.256 153.681,167.928 159.731,165.634Z" style="fill:white;fill-opacity:0.55;"/>
    <path d="M125.7,163.316C122.057,150.94 123.142,137.175 129.818,124.976C131.238,122.381 132.854,119.961 134.637,117.725C144.775,107.411 158.865,102.049 173.074,102.76C173.517,107.52 175.198,115.869 180.434,123.044C181.899,125.052 183.307,126.83 184.63,128.471L156.319,133.097C153.382,133.415 151.132,134.335 152.353,138.292L158.895,162.539C157.746,162.732 156.529,162.92 155.24,163.102C153.578,163.335 136.065,164.952 125.7,163.316Z" style="fill:white;fill-opacity:0.5;"/>
    <path d="M158.895,162.539L159.731,165.634C153.681,167.928 152.258,168.256 149.888,168.775C141.449,170.624 133.535,171.138 128.792,171.273L128.578,170.831C127.419,168.404 126.457,165.89 125.7,163.316C136.065,164.952 153.578,163.335 155.24,163.102C156.529,162.92 157.746,162.732 158.895,162.539Z" style="fill:white;fill-opacity:0.35;"/>
    <path d="M193.215,163.787C193.096,164.179 192.958,164.716 192.872,165.351L165.94,170.479C161.913,171.246 161.387,170.479 160.068,166.884L152.353,138.292C151.132,134.335 153.382,133.415 156.319,133.097L184.63,128.471C185.243,129.231 185.837,129.962 186.41,130.673L162.521,134.576C159.895,134.861 157.883,135.683 158.975,139.221L165.872,164.78C167.051,167.994 167.521,168.68 171.121,167.994L193.215,163.787ZM159.855,148.613C159.743,148.176 159.298,147.913 158.861,148.025C158.425,148.137 158.161,148.582 158.273,149.018L160.024,155.849C160.135,156.286 160.581,156.55 161.017,156.438C161.454,156.326 161.717,155.881 161.605,155.444L159.855,148.613Z" style="fill:white;fill-opacity:0.95;"/>
    <path d="M159.855,148.613L161.605,155.444C161.717,155.881 161.454,156.326 161.017,156.438C160.581,156.55 160.135,156.286 160.024,155.849L158.273,149.018C158.161,148.582 158.425,148.137 158.861,148.025C159.298,147.913 159.743,148.176 159.855,148.613Z" style="fill:white;fill-opacity:0.5;"/>
    <path d="M220.327,146.175C221.449,154.318 220.592,162.79 217.532,170.831C216.719,172.968 215.751,175.074 214.623,177.135C214.52,177.323 214.416,177.51 214.311,177.696C212.814,177.769 211.292,177.744 209.787,177.581C200.193,176.545 195.858,173.718 194.019,170.831C191.68,167.159 193.384,163.39 193.442,163.091C198.006,139.814 190.608,136.986 180.434,123.044C175.198,115.869 173.517,107.52 173.074,102.76C180.41,103.127 187.777,105.114 194.648,108.874C197.427,110.394 200.005,112.14 202.373,114.075C202.59,131.225 208.985,137.456 210.332,138.984C213.113,142.142 216.639,144.491 220.327,146.175Z" style="fill:white;fill-opacity:0.35;"/>
    <path d="M197.78,193.396C191.458,196.791 184.465,198.806 177.304,199.296C168.158,199.921 158.736,198.057 150.087,193.396L197.78,193.396Z" style="fill:white;fill-opacity:0.4;"/>
    <path d="M251.118,228.123L92.989,228.123L92.989,273.391L82.569,273.391C82.593,274.856 82.094,275.348 81.696,275.508L81.696,214.78C81.949,214.785 82.203,214.788 82.458,214.788L237.182,214.788L251.118,228.123Z" style="fill:white;fill-opacity:0.15;"/>
    <path d="M269.21,245.435C268.198,262.399 264.46,270.243 263.888,271.81C263.044,274.122 258.845,273.391 258.845,273.391L92.989,273.391L92.989,228.123L251.118,228.123L269.21,245.435Z" style="fill:white;fill-opacity:0.25;"/>
    <path d="M115.328,170.831L45.495,170.831C45.132,172.925 44.943,175.077 44.943,177.273C44.943,190.164 51.458,201.544 61.373,208.299L61.373,275.575L28.664,275.575C12.385,275.482 14.146,257.237 14.146,257.237L14.146,143.237C-16.651,94.881 12.434,82.656 12.434,82.656C12.434,82.656 43.426,79.901 54.519,107.496C65.611,135.091 62.627,163.126 62.627,163.126L96.674,156.914C97.533,160.195 98.818,163.511 103.584,163.956C106.886,164.266 110.631,164.274 113.608,164.202C114.051,166.444 114.626,168.658 115.328,170.831ZM158.672,93.175C158.118,92.319 157.477,91.413 156.775,90.576C154.465,87.822 154.57,85.671 154.754,83.703C154.938,81.735 151.976,78.482 148.82,80.99C145.664,83.499 136.178,76.569 129.446,77.483C122.713,78.397 94.711,80.396 86.987,84.307C81.317,79.299 74.083,75.695 64.867,74.396C65.116,74.423 65.364,74.453 65.611,74.487C66.547,58.11 74.914,43.709 87.387,34.607L269.908,34.607L269.908,129.859L268.425,157.384C270.526,158.268 271.666,161.704 271.666,161.704C271.666,161.704 272.284,165.063 272.883,170.831L227.724,170.831C229.012,167.649 229.998,164.404 230.69,161.131C238.025,161.049 253.206,160.725 258.832,159.447C266.368,157.735 264.98,161.703 265.047,147.439C265.113,133.176 258.832,115.449 255.219,104.118C251.605,92.786 246.974,92.967 247.349,85.879C247.723,78.791 246.311,81.153 240.221,82.133C234.131,83.113 232.735,81.063 212.621,79.733C192.506,78.403 181.381,82.694 174.892,83.564C168.402,84.434 169.097,82.404 169.488,84.091C169.878,85.779 169.488,86.005 168.68,88.695C168.37,89.73 168.359,90.646 168.465,91.381C165.15,91.699 161.873,92.301 158.672,93.175Z" style="fill:white;fill-opacity:0.65;"/>
    <path d="M265.094,153.671C265.187,160.421 264.963,158.054 258.832,159.447C253.206,160.725 238.025,161.049 230.69,161.131C230.94,159.953 231.151,158.772 231.325,157.588C234.261,157.685 237.56,157.896 250.758,156.591C250.959,156.571 255.81,156.521 265.094,153.671Z" style="fill:white;fill-opacity:0.25;"/>
    <path d="M231.325,157.588C234.755,134.265 223.656,110.21 201.779,98.239C193.007,93.438 183.532,91.144 174.181,91.116C173.654,89.841 172.882,88.409 171.712,86.611C170.865,85.309 170.159,84.296 169.565,83.507C170.123,83.693 171.562,84.011 174.892,83.564C181.381,82.694 192.506,78.403 212.621,79.733C232.735,81.063 234.131,83.113 240.221,82.133C246.311,81.153 247.723,78.791 247.349,85.879C246.974,92.967 251.605,92.786 255.219,104.118C258.832,115.449 265.113,133.176 265.047,147.439C265.034,150.099 265.072,152.124 265.094,153.671C255.81,156.521 250.959,156.571 250.758,156.591C237.56,157.896 234.261,157.685 231.325,157.588Z" style="fill:white;fill-opacity:0.5;"/>
    <path d="M174.181,91.116C172.268,91.11 170.36,91.2 168.465,91.381C168.359,90.646 168.37,89.73 168.68,88.695C169.488,86.005 169.878,85.779 169.488,84.091C169.298,83.27 169.035,83.329 169.565,83.507C170.159,84.296 170.865,85.309 171.712,86.611C172.882,88.409 173.654,89.841 174.181,91.116Z" style="fill:white;fill-opacity:0.25;"/>
    <path d="M86.987,84.307C79.263,88.217 78.065,83.064 77.412,86.545C77.412,86.545 78.465,87.983 78.465,92.087C78.465,96.191 75.434,117.238 85.315,136.164C95.195,155.091 94.072,149.067 95.571,152.954C96.019,154.117 96.308,155.512 96.674,156.914L62.627,163.126C62.627,163.126 65.611,135.091 54.519,107.496C43.426,79.901 12.434,82.656 12.434,82.656L64.388,74.35C64.548,74.364 64.708,74.379 64.867,74.396C74.083,75.695 81.317,79.299 86.987,84.307Z" style="fill:white;fill-opacity:0.4;"/>
    <path d="M87.387,34.607C96.166,28.201 106.978,24.419 118.667,24.419L260.41,24.419C263.651,24.419 269.908,34.607 269.908,34.607L87.387,34.607Z" style="fill:white;fill-opacity:0.46;"/>
    <path d="M112.52,154.347C112.602,157.666 112.968,160.963 113.608,164.202C110.631,164.274 106.886,164.266 103.584,163.956C96.783,163.32 97.07,156.841 95.571,152.954C94.072,149.067 95.195,155.091 85.315,136.164C75.434,117.238 78.465,96.191 78.465,92.087C78.465,87.983 77.412,86.545 77.412,86.545C77.542,85.849 77.695,85.499 77.917,85.351C86.408,104.195 86.968,107.051 89.136,122.681C92.283,145.372 104.033,152.322 112.52,154.347Z" style="fill:white;fill-opacity:0.25;"/>
    <path d="M77.917,85.351C78.805,84.762 80.807,87.436 86.987,84.307C94.711,80.396 122.713,78.397 129.446,77.483C136.178,76.569 145.664,83.499 148.82,80.99C151.976,78.482 154.938,81.735 154.754,83.703C154.57,85.671 154.465,87.822 156.775,90.576C157.477,91.413 158.118,92.319 158.672,93.175C147.182,96.312 136.662,102.958 128.862,112.603C125.312,116.265 122.191,120.459 119.625,125.149C114.55,134.422 112.277,144.48 112.52,154.347C104.033,152.322 92.283,145.372 89.136,122.681C86.968,107.051 86.408,104.195 77.917,85.351Z" style="fill:white;fill-opacity:0.5;"/>
    <path d="M208.559,195.66C190.935,208.744 166.597,211.219 146.093,199.999C118.011,184.632 107.689,149.357 123.056,121.276C124.759,118.163 126.707,115.269 128.862,112.603C146.154,91.221 176.81,84.575 201.779,98.239C228.935,113.099 239.483,146.577 226.252,174.163C225.836,175.03 225.397,175.892 224.933,176.747L224.816,176.962C222.25,181.651 219.129,185.845 215.579,189.507C214.019,191.116 212.376,192.623 210.661,194.023C209.972,194.586 209.271,195.131 208.559,195.66ZM209.804,184.386C212.982,181.153 215.771,177.433 218.054,173.262C231.379,148.912 222.428,118.325 198.079,105C176.324,93.096 149.59,98.972 134.637,117.725C132.854,119.961 131.238,122.381 129.818,124.976C116.493,149.325 125.444,179.912 149.793,193.237C169.971,204.279 194.432,200.024 209.804,184.386Z" style="fill:white;fill-opacity:0.95;"/>
    <path d="M208.881,196.495C191.083,212.182 164.664,215.912 142.662,203.872C114.58,188.505 104.258,153.23 119.625,125.149C122.191,120.459 125.312,116.265 128.862,112.603C126.707,115.269 124.759,118.163 123.056,121.276C107.689,149.357 118.011,184.632 146.093,199.999C166.597,211.219 190.935,208.744 208.559,195.66C209.271,195.131 209.972,194.586 210.661,194.023C212.376,192.623 214.019,191.116 215.579,189.507C214.124,191.306 212.575,193 210.943,194.587C210.269,195.241 209.582,195.877 208.881,196.495Z" style="fill:white;fill-opacity:0.37;"/>
    <path d="M134.637,117.725C149.59,98.972 176.324,93.096 198.079,105C222.428,118.325 231.379,148.912 218.054,173.262C215.771,177.433 212.982,181.153 209.804,184.386C211.588,182.149 213.203,179.729 214.623,177.135C227.948,152.785 218.997,122.198 194.648,108.874C174.47,97.832 150.009,102.086 134.637,117.725Z" style="fill:white;fill-opacity:0.37;"/>
    <path d="M222.589,197.223L222.152,197.826C219.655,201.274 214.827,202.046 211.378,199.548C210.255,198.735 209.416,197.674 208.881,196.495C209.582,195.877 210.269,195.241 210.943,194.587C211.474,195.549 212.22,196.412 213.168,197.099C215.978,199.134 219.703,198.999 222.337,197.014L222.589,197.223Z" style="fill:white;fill-opacity:0.3;"/>
    <path d="M223.669,195.732C223.27,196.221 222.822,196.649 222.337,197.014C219.703,198.999 215.978,199.134 213.168,197.099C212.22,196.412 211.474,195.549 210.943,194.587C212.575,193 214.124,191.306 215.579,189.507C219.129,185.845 222.25,181.651 224.816,176.962L224.933,176.747C225.397,175.892 225.836,175.03 226.252,174.163C227.175,174.395 228.07,174.804 228.888,175.396C232.337,177.894 233.109,182.721 230.611,186.17L223.942,195.376C223.854,195.498 223.763,195.617 223.669,195.732Z" style="fill:white;fill-opacity:0.75;"/>
    <path d="M231.212,194.908C232.3,193.47 233.436,192.047 234.601,190.634C234.629,190.595 234.658,190.557 234.688,190.52C235.463,189.572 236.853,189.38 237.859,190.105L295.097,231.352C302.737,238.106 300.531,247.644 294.737,252.802C289.802,251.544 283.6,249.36 276.348,245.465C275.397,244.954 262.635,238.369 253.82,228.599C237.346,210.338 233.145,200.359 231.212,194.908Z" style="fill:white;fill-opacity:0.45;"/>
    <path d="M294.737,252.802C290.24,256.805 283.581,258.17 277.686,253.545L227.055,205.097C226.01,204.344 225.773,202.884 226.526,201.839C226.703,201.537 226.883,201.237 227.066,200.937C228.319,198.886 229.719,196.882 231.212,194.908C233.145,200.359 237.346,210.338 253.82,228.599C262.635,238.369 275.397,244.954 276.348,245.465C283.6,249.36 289.802,251.544 294.737,252.802Z" style="fill:white;fill-opacity:0.25;"/>
    <path d="M227.066,200.937L222.337,197.014C222.822,196.649 223.27,196.221 223.669,195.732C223.763,195.617 223.854,195.498 223.942,195.376L229.691,187.44L234.688,190.52C234.658,190.557 234.629,190.595 234.601,190.634C231.837,193.989 229.231,197.394 227.066,200.937Z" style="fill:white;fill-opacity:0.4;"/>
    <path d="M193.215,163.787L171.121,167.994C167.521,168.68 167.051,167.994 165.872,164.78L158.975,139.221C157.883,135.683 159.895,134.861 162.521,134.576L186.41,130.673C193.195,139.086 197.044,144.719 193.442,163.091C193.429,163.159 193.331,163.405 193.215,163.787Z" style="fill:white;fill-opacity:0.15;"/>
</svg>
