<?xml version="1.0" encoding="utf-8"?>
<!-- Generator: Adobe Illustrator 24.1.2, SVG Export Plug-In . SVG Version: 6.00 Build 0)  -->
<svg version="1.1" id="Layer_1" xmlns="http://www.w3.org/2000/svg" xmlns:xlink="http://www.w3.org/1999/xlink" x="0px" y="0px"
	 viewBox="0 0 300 300" style="enable-background:new 0 0 300 300;" xml:space="preserve">
<style type="text/css">
	.st0{opacity:0.2;fill:#FFFFFF;enable-background:new    ;}
	.st1{opacity:0.7;fill:#FFFFFF;enable-background:new    ;}
	.st2{opacity:0.4;fill:#FFFFFF;enable-background:new    ;}
	.st3{fill:#FFFFFF;}
	.st4{opacity:0.8;fill:#FFFFFF;enable-background:new    ;}
</style>
<path class="st0" d="M245.8,141.2l3.3,0.6l0.5,0.1l5.2,1c-4.2-51.8-46.3-92.4-98.2-94.6l0.1,0.8C204.2,55.3,241.1,93.5,245.8,141.2z
	"/>
<path class="st0" d="M248.6,160l-2.7,0.5c-4.5,47.8-41.5,86.1-89.1,92.4l-0.1,0.8c52-2.2,94.2-42.9,98.3-94.8l-5.4,1L248.6,160z"/>
<path class="st0" d="M29.7,156.8l-4.7-0.9l-0.5-0.1l-3.7-0.7c2.3,65.9,56.1,118.3,122.1,118.7l-0.1-0.4
	C81.1,268.5,32.7,218.6,29.7,156.8z"/>
<path class="st0" d="M24.6,146l5.1-1C32.8,83.3,81.2,33.5,142.8,28.6c0-0.1,0.1-0.3,0.1-0.4C77,28.6,23.1,80.9,20.8,146.7l3.7-0.7
	L24.6,146z"/>
<path class="st1" d="M139.3,254.7l-0.3-1.8c-47.5-6.3-84.5-44.6-89-92.3l-3.3-0.6l-1.9-0.4l-15.1-2.8c3,61.8,51.5,111.7,113.1,116.6
	l-1.1-6L139.3,254.7z"/>
<path class="st1" d="M275.1,155.1l-5.3,1l-0.5,0.1l-14.4,2.7c-4.1,51.9-46.2,92.6-98.3,94.8l-0.2,0.9l-2.4,12.7l-1.2,6.5
	C218.8,273.5,272.8,221.1,275.1,155.1z"/>
<path class="st1" d="M45.1,142.1l4.9-0.9c4.7-47.6,41.5-85.7,88.9-92l3.6-19.2c0,0,0.1-0.5,0.3-1.3C81.2,33.5,32.8,83.3,29.7,145
	l14.9-2.8L45.1,142.1z"/>
<path class="st1" d="M155.6,42.6l1.1,5.7c51.9,2.2,94,42.8,98.2,94.6l14.8,2.8h0.2l5.3,1c-2.4-65.9-56.3-118.1-122.2-118.5l0.3,1.7
	L155.6,42.6z"/>
<path class="st0" d="M81.2,217.7L81.2,217.7L81.2,217.7z"/>
<path class="st2" d="M81.2,217.7L81.2,217.7L81.2,217.7z"/>
<path class="st3" d="M147.9,151L147.9,151L147.9,151z"/>
<polygon class="st3" points="171.4,174.4 149,152 171.3,174.4 "/>
<polygon class="st2" points="183.7,129.4 214.6,84.3 171.8,127.1 "/>
<polygon class="st2" points="214.6,217.7 171.3,174.4 169.1,186.4 "/>
<path class="st0" d="M142.6,29.9l-3.8,20.4L126.5,115l-2.3,12l23.7,23.9V1.6L144,22.2C144,22.2,142.6,29.9,142.6,29.9L142.6,29.9z"
	/>
<polygon class="st0" points="214.6,84.3 169.1,115.3 171.8,127.1 "/>
<polygon class="st2" points="81.2,84.3 124.2,127 126.5,115 "/>
<polygon class="st2" points="147.9,151 147.9,150.9 147.9,150.9 147.9,150.9 171.8,127.1 169.1,115.3 157,50.4 155.6,42.6 
	153.2,29.9 151.8,22.2 147.9,1.6 147.9,22.1 147.9,29.8 147.9,42.3 147.9,49.9 147.9,129.6 147.9,150.9 124.2,127 112.1,129.3 
	45.1,142.1 44.6,142.2 24.6,146 24.5,146 -1.5,150.9 24.5,150.9 24.6,150.9 44.6,150.9 44.8,150.9 126.8,150.9 136.7,150.9 
	141.2,150.9 147.9,150.9 147.9,150.9 147.9,150.9 "/>
<polygon class="st0" points="112.1,129.3 124.2,127 81.2,84.3 "/>
<polygon class="st0" points="126.5,186.6 124.2,174.4 81.2,217.7 "/>
<polygon class="st2" points="81.2,217.7 124.2,174.4 112.3,172.2 "/>
<polygon class="st2" points="147.9,275.1 147.9,267.5 147.9,255 147.9,247.4 147.9,171.9 147.9,163.6 147.9,150.9 124.2,174.4 
	126.5,186.6 137.8,246.9 139.3,254.7 141.7,267.4 143.1,275 147.9,300.4 "/>
<polygon class="st3" points="147.9,151 147.9,151 149,152 "/>
<polygon class="st0" points="183.6,172.1 171.3,174.4 214.6,217.7 "/>
<polygon class="st4" points="269.8,145.7 269.6,145.7 249.6,141.9 249.1,141.8 183.7,129.4 171.8,127.1 147.9,150.9 148,150.9 
	150,150.9 169.2,150.9 249.5,150.9 249.7,150.9 269.6,150.9 269.8,150.9 297.3,150.9 "/>
<polygon class="st3" points="183.6,172.1 248.6,160 249.4,159.9 269.3,156.2 269.7,156.1 297.3,150.9 269.8,150.9 269.6,150.9 
	249.7,150.9 249.5,150.9 169.2,150.9 150.5,150.9 147.9,150.9 149,152 171.4,174.4 "/>
<polygon class="st0" points="152.6,275 154.1,267.3 156.4,254.6 156.4,254.6 169.1,186.4 171.3,174.4 147.9,150.9 147.9,163.6 
	147.9,171.9 147.9,247.4 147.9,255 147.9,267.5 147.9,275.1 147.9,300.4 "/>
<polygon class="st0" points="112.3,172.2 124.2,174.4 147.9,150.9 147.9,150.9 147.9,150.9 141.2,150.9 136.7,150.9 126.8,150.9 
	44.8,150.9 44.6,150.9 24.6,150.9 24.5,150.9 -1.5,150.9 24.5,155.8 25,155.9 44.8,159.6 46.7,159.9 "/>
</svg>
