<?xml version="1.0" encoding="UTF-8" standalone="no"?>
<!DOCTYPE svg PUBLIC "-//W3C//DTD SVG 1.1//EN" "http://www.w3.org/Graphics/SVG/1.1/DTD/svg11.dtd">
<svg width="100%" height="100%" viewBox="0 0 300 300" version="1.1" xmlns="http://www.w3.org/2000/svg" xmlns:xlink="http://www.w3.org/1999/xlink" xml:space="preserve" xmlns:serif="http://www.serif.com/" style="fill-rule:evenodd;clip-rule:evenodd;stroke-linejoin:round;stroke-miterlimit:2;">
    <path d="M276.239,65.13C276.538,65.965 276.59,66.893 276.397,67.907C276.38,67.992 276.349,68.075 276.301,68.147C267.847,80.832 257.478,96.998 247.632,111.672C238.728,124.941 229.205,138.354 219.064,151.919C212.537,160.644 205.757,169.295 198.715,177.876C197.918,178.852 196.98,179.794 196.179,180.845C196.103,180.945 195.966,180.983 195.852,180.931L21.769,106.662C21.814,106.005 22.082,105.49 22.566,105.108C23.23,104.589 23.563,104.328 23.57,104.321C46.867,80.715 70.92,56.353 95.729,31.241C96.434,30.53 96.801,30.155 96.836,30.114C97.612,29.206 98.31,28.76 98.977,27.962C99.124,27.784 99.461,27.433 99.984,26.907C107.634,19.206 115.476,11.267 123.507,3.091C123.556,3.04 123.621,3.005 123.69,2.995C124.294,2.885 124.82,2.923 125.27,3.105C144.588,11.016 194.801,31.626 275.909,64.937C275.974,64.965 276.084,65.03 276.239,65.13Z" style="fill:white;fill-opacity:0.75;fill-rule:nonzero;"/>
    <path d="M262.142,106.49C261.42,107.304 260.802,108.129 260.29,108.957C259.379,110.428 258.918,111.174 258.905,111.195C256.973,114.037 255.1,116.91 253.286,119.814L241.807,136.835C240.787,138.148 239.701,139.513 238.848,140.856C238.329,141.678 237.872,142.317 237.484,142.767C237.037,143.293 236.694,144.173 236.326,144.609C235.312,145.815 234.147,147.386 232.831,149.324C230.363,152.957 228.356,155.562 225.239,159.813C224.026,161.469 220.572,166.061 214.871,173.587C213.214,175.773 209.245,180.821 202.959,188.729C202.406,189.426 201.605,190.347 200.55,191.495C199.695,192.43 198.918,193.379 198.213,194.337C198.145,194.43 198.042,194.489 197.925,194.495C197.096,194.554 196.306,194.358 195.553,193.915C193.921,192.949 192.227,192.217 190.474,191.719C190.361,191.688 190.251,191.643 190.144,191.592L187.419,190.286C186.563,189.774 185.518,189.365 184.288,189.066C184.123,189.024 183.965,188.966 183.814,188.894L179.951,186.969C179.899,186.945 179.844,186.925 179.789,186.907L177.624,186.251C176.384,185.567 175.116,184.959 173.82,184.426C171.7,183.553 170.404,183.01 169.93,182.797C167.662,181.776 165.359,180.825 163.022,179.941C162.139,179.429 161.197,178.993 160.197,178.632C158.943,178.182 158.036,177.814 157.482,177.536C156.303,176.938 155.362,176.518 154.654,176.278C153.492,175.879 152.544,175.487 151.805,175.102C150.654,174.501 149.286,173.944 147.701,173.436C147.416,173.343 147.138,173.23 146.873,173.089C145.241,172.226 143.66,171.511 142.124,170.948C141.096,170.57 140.23,170.212 139.526,169.879C138.261,169.277 137.405,168.892 136.962,168.731C135.079,168.044 133.168,167.212 131.23,166.236L124.26,163.28L113.603,158.878C112.706,158.225 111.675,157.802 110.51,157.607C110.479,157.603 110.448,157.593 110.417,157.579L105.688,155.345C105.658,155.331 105.627,155.321 105.596,155.311C104.386,154.964 103.489,154.644 102.908,154.345C101.107,153.417 99.884,152.85 99.234,152.647C97.709,152.17 96.674,151.764 96.135,151.434C94.815,150.63 93.451,150.056 92.042,149.709C91.918,149.678 91.798,149.637 91.681,149.585C90.22,148.939 88.175,147.733 86.038,147.132C85.715,147.039 85.402,146.919 85.106,146.764C83.068,145.699 81.195,144.887 79.494,144.327C79.151,144.214 78.821,144.076 78.501,143.908C76.601,142.905 75.003,142.214 73.7,141.836C73.315,141.726 72.944,141.578 72.587,141.392C70.466,140.3 68.999,139.633 68.184,139.396C67.095,139.076 66.249,138.729 65.645,138.358L55.513,134.031L40.932,127.855C39.334,127.041 38.313,126.556 37.87,126.405C36.567,125.962 35.766,125.666 35.471,125.512C34.718,125.123 34.155,124.869 33.777,124.749C33.021,124.505 32.079,123.872 30.996,123.587C30.811,123.539 30.629,123.474 30.453,123.395C27.9,122.237 26.618,121.656 26.608,121.652C25.292,120.986 24.302,120.827 22.494,120.271C22.099,120.15 21.827,119.786 21.827,119.37L21.769,106.662L195.852,180.931C195.966,180.983 196.103,180.945 196.179,180.845C196.98,179.794 197.918,178.852 198.715,177.876C205.757,169.295 212.537,160.644 219.064,151.919C229.205,138.354 238.728,124.941 247.632,111.672C257.478,96.998 267.847,80.832 276.301,68.147C276.349,68.075 276.38,67.992 276.397,67.907C276.59,66.893 276.538,65.965 276.239,65.13C276.6,65.102 276.919,65.198 277.198,65.415C277.315,65.508 277.377,65.652 277.359,65.8C277.273,66.614 277.335,67.367 277.552,68.065C277.597,68.209 277.621,68.364 277.621,68.515L277.621,71.525C277.621,71.656 277.641,71.79 277.679,71.917L277.844,72.453C277.896,72.625 277.923,72.8 277.923,72.979C277.92,74.44 277.892,75.206 278.078,76.656C278.219,77.746 278.263,79.165 278.208,80.914C278.188,81.523 278.009,82.083 277.672,82.595C273.854,88.331 270.63,93.214 268.008,97.245C267.321,98.3 266.826,99.263 266.094,100.139C265.376,100.998 264.874,102.187 264.104,103.218C263.29,104.301 262.637,105.393 262.142,106.49Z" style="fill:white;fill-opacity:0.5;fill-rule:nonzero;"/>
    <path d="M262.142,106.49C262.269,108.081 262.334,109.652 262.338,111.198C262.348,113.985 262.358,115.559 262.369,115.917C262.596,121.917 262.688,127.436 262.647,132.478C262.609,137.451 262.675,142.193 262.843,146.705C262.963,149.802 262.974,153.184 262.881,156.854C262.84,158.455 262.912,161.837 263.094,167.002C263.224,170.704 263.266,176.883 263.221,185.54C263.218,186.684 263.101,187.629 262.87,188.375C262.829,188.512 262.736,188.629 262.613,188.705C260.802,189.78 258.994,190.822 257.186,191.836C256.922,191.983 256.537,191.915 256.038,191.626C256.619,191.289 256.898,190.887 256.874,190.416C256.623,185.213 256.441,179.474 256.121,174.154C255.681,166.896 255.43,162.414 255.368,160.713C255.124,153.85 254.897,148.987 254.695,146.121C254.258,140.073 254.025,136.038 253.987,134.014C253.976,133.553 253.791,129.515 253.427,121.9C253.392,121.216 253.344,120.522 253.286,119.814C255.1,116.91 256.973,114.037 258.905,111.195C258.918,111.174 259.379,110.428 260.29,108.957C260.802,108.129 261.42,107.304 262.142,106.49Z" style="fill:white;fill-opacity:0.25;fill-rule:nonzero;"/>
    <path d="M253.286,119.814C253.344,120.522 253.392,121.216 253.427,121.9C253.791,129.515 253.976,133.553 253.987,134.014C254.025,136.038 254.258,140.073 254.695,146.121C254.897,148.987 255.124,153.85 255.368,160.713C255.43,162.414 255.681,166.896 256.121,174.154C256.441,179.474 256.623,185.213 256.874,190.416C256.898,190.887 256.619,191.289 256.038,191.626C255.702,191.846 255.303,191.836 254.846,191.598C251.846,190.042 249.519,188.853 247.859,188.038C247.756,187.99 247.67,187.914 247.605,187.825C246.653,186.509 246.505,183.828 246.498,182.127C246.495,181.904 246.423,181.443 246.275,180.752C246.196,180.381 246.151,180.007 246.137,179.629C246.086,178.257 245.99,177.109 245.849,176.185C245.629,174.762 245.533,173.79 245.557,173.267C245.615,172.085 245.275,170.858 245.144,169.377C244.945,167.112 244.673,164.5 244.326,161.535C244.106,159.662 244.124,158.084 243.759,156.359C243.553,155.4 243.653,153.596 243.429,152.345C243.154,150.799 243.237,148.939 242.938,147.486C242.622,145.943 242.69,144.396 242.385,142.585C242.227,141.64 242.141,140.633 242.127,139.568C242.117,138.732 241.9,137.75 241.807,136.835L253.286,119.814Z" style="fill:white;fill-opacity:0.35;fill-rule:nonzero;"/>
    <path d="M47.609,194.027C47.519,193.371 47.436,192.72 47.406,192.042C47.32,190.055 46.901,188.334 46.853,186.213C46.839,185.546 46.612,184.739 46.557,184.127C46.313,181.361 46.032,178.488 45.709,175.508C45.568,174.226 45.485,173.247 45.454,172.57C45.389,171.123 45.056,170.04 45.004,168.666C44.966,167.604 44.822,166.284 44.568,164.703C44.427,163.827 44.489,162.414 44.276,161.407C43.935,159.768 44.042,157.826 43.75,156.235C43.519,154.995 43.581,153.816 43.416,152.489C43.09,149.874 42.798,147.169 42.543,144.375C42.382,142.616 42.104,141.396 42.09,140.028C42.073,138.303 41.585,136.581 41.571,134.725C41.567,134.258 41.502,133.553 41.372,132.608C41.155,131.027 41.011,129.443 40.932,127.855L55.513,134.031C55.599,134.581 55.654,135.138 55.678,135.705C55.881,140.403 56.218,146.413 56.696,153.737C57.043,159.122 57.232,167.219 57.685,173.999C57.931,177.682 58.11,181.195 58.268,184.658C54.365,187.368 50.789,190.515 47.609,194.027ZM58.922,198.901C59.028,200.881 59.147,202.896 59.287,204.967C59.641,210.163 59.916,216.329 60.115,223.463C60.119,223.57 60.081,223.676 60.005,223.755C59.806,223.972 59.565,224.143 59.287,224.271L58.802,224.408C58.692,224.439 58.579,224.429 58.476,224.377L51.183,220.679C51.032,220.604 50.905,220.49 50.809,220.353C50.571,219.999 50.42,219.714 50.362,219.494C49.998,218.164 49.812,216.741 49.802,215.229C49.795,214.39 49.544,213.297 49.496,212.723C49.39,211.48 49.275,210.24 49.152,209.002C51.955,205.224 55.243,201.827 58.922,198.901Z" style="fill:white;fill-opacity:0.35;"/>
    <path d="M58.268,184.658C58.11,181.195 57.931,177.682 57.685,173.999C57.232,167.219 57.043,159.122 56.696,153.737C56.218,146.413 55.881,140.403 55.678,135.705C55.654,135.138 55.599,134.581 55.513,134.031L65.645,138.358C65.545,142.19 65.559,146.004 65.686,149.798C65.847,154.63 65.923,157.802 65.92,159.315C65.902,166.662 65.834,169.356 66.026,174.618C66.091,176.393 66.134,178.2 66.162,180.001C63.409,181.361 60.772,182.919 58.268,184.658ZM66.194,194.027C66.192,194.458 66.192,194.881 66.191,195.293C66.191,197.056 66.432,199.599 66.452,201.297C66.538,208.634 66.545,214.741 66.473,219.617C66.469,219.782 66.359,220.263 66.136,221.057C66.098,221.195 66.005,221.308 65.882,221.374C65.318,221.659 63.531,222.679 60.521,224.436C60.249,224.594 59.84,224.539 59.287,224.271C59.565,224.143 59.806,223.972 60.005,223.755C60.081,223.676 60.119,223.57 60.115,223.463C59.916,216.329 59.641,210.163 59.287,204.967C59.147,202.896 59.028,200.881 58.922,198.901C61.203,197.088 63.634,195.456 66.194,194.027Z" style="fill:white;fill-opacity:0.25;"/>
    <path d="M124.26,163.28C124.459,167.25 124.621,171.233 124.748,175.23C124.782,176.34 124.487,177.223 123.865,177.872C123.635,177.976 123.363,178.031 123.123,177.907C120.789,176.728 118.359,175.498 115.837,174.223C115.675,174.14 115.541,174.01 115.455,173.848C115.002,172.992 114.737,172.047 114.662,171.013C114.507,168.917 114.414,167.776 114.376,167.587C114.194,166.607 114.067,165.466 113.998,164.167C113.919,162.61 113.387,160.699 113.603,158.878L124.26,163.28Z" style="fill:white;fill-opacity:0.35;fill-rule:nonzero;"/>
    <path d="M124.26,163.28L131.23,166.236C131.164,169.026 131.154,171.027 131.195,172.24C131.226,173.099 131.099,173.889 130.814,174.611C130.759,174.752 130.656,174.869 130.525,174.944L125.36,177.921C125.277,177.969 125.188,177.996 125.092,178C124.669,178.027 124.26,177.986 123.865,177.872C124.487,177.223 124.782,176.34 124.748,175.23C124.621,171.233 124.459,167.25 124.26,163.28Z" style="fill:white;fill-opacity:0.25;fill-rule:nonzero;"/>
    <path d="M169.464,243.112C169.298,241.544 169.119,239.943 168.926,238.309C168.758,236.866 168.662,235.832 168.638,235.209C168.579,233.732 168.308,232.615 168.198,231.079C168.108,229.817 167.864,227.412 167.466,223.858C167.318,222.563 167.239,221.769 167.222,221.48C167.101,219.456 166.741,217.803 166.682,216.088C166.658,215.359 166.586,214.686 166.466,214.071C166.198,212.665 166.283,211.208 166.064,209.809C165.868,208.582 165.758,207.531 165.74,206.654C165.72,205.799 165.648,205.094 165.527,204.537C165.191,202.987 165.29,201.654 165.019,199.874C164.926,199.255 164.83,198.4 164.73,197.307C164.397,193.708 164.111,190.822 163.874,188.646C163.799,187.959 163.809,186.87 163.634,185.938C163.445,184.935 163.338,183.866 163.311,182.735C163.294,181.904 163.036,180.907 163.022,179.941C165.359,180.825 167.662,181.776 169.93,182.797C170.404,183.01 171.7,183.553 173.82,184.426C175.116,184.959 176.384,185.567 177.624,186.251C177.655,187.553 177.652,188.88 177.741,190.193C178.305,198.348 178.707,206.239 178.944,213.871C179.126,219.666 179.896,228.133 180.13,235.378C180.196,237.413 180.285,239.604 180.396,241.949L174.471,241.213C173.156,241.049 171.952,241.943 171.712,243.228L169.464,243.112ZM181.553,263.362C181.638,265.61 181.712,267.729 181.79,269.267C181.855,270.5 181.693,271.586 181.312,272.525C180.704,272.635 180.281,272.628 180.037,272.501C177.394,271.136 175.088,269.968 173.116,268.988C172.129,268.5 172.009,267.39 171.782,266.146C171.514,264.692 171.607,263.17 171.363,261.819C171.288,261.4 171.232,260.973 171.186,260.539C171.444,260.674 171.729,260.765 172.035,260.803L181.553,263.362Z" style="fill:white;fill-opacity:0.35;"/>
    <path d="M180.396,241.949C180.285,239.604 180.196,237.413 180.13,235.378C179.896,228.133 179.126,219.666 178.944,213.871C178.707,206.239 178.305,198.348 177.741,190.193C177.652,188.88 177.655,187.553 177.624,186.251L179.789,186.907C179.844,186.925 179.899,186.945 179.951,186.969L183.814,188.894C183.965,188.966 184.123,189.024 184.288,189.066C185.518,189.365 186.563,189.774 187.419,190.286C187.34,192.585 187.388,195.994 187.567,200.506C187.632,202.176 187.659,207.867 187.649,217.576C187.646,220.916 187.924,224.02 187.924,227.333C187.931,234.661 187.869,239.356 187.926,242.886L180.396,241.949ZM188.235,265.159C188.233,266.077 188.23,266.917 188.226,267.679C188.223,268.198 188.099,268.724 187.855,269.249C187.787,269.397 187.677,269.521 187.539,269.6C185.824,270.607 184.144,271.569 182.504,272.49C182.116,272.707 181.717,272.72 181.312,272.525C181.693,271.586 181.855,270.5 181.79,269.267C181.712,267.729 181.638,265.61 181.553,263.362L188.235,265.159Z" style="fill:white;fill-opacity:0.25;"/>
    <path d="M127.696,249.092C112.368,256.078 97.081,263.131 81.84,270.25C79.888,271.162 77.625,272.069 75.506,273.047C73.793,273.837 72.479,273.48 71.567,271.972C67.251,264.828 62.613,257.123 57.645,248.858C57.029,247.834 56.82,246.825 57.013,245.831C57.497,244.858 58.002,244.251 58.537,244.007C74.043,236.924 89.672,229.708 105.417,222.365C106.543,221.84 108.352,221.117 110.049,220.312C112.429,219.18 113.82,219.333 115.176,221.545C116.332,223.44 120.929,231.069 128.965,244.425C130.081,246.274 129.658,247.828 127.696,249.092ZM111.935,222.941C111.553,222.314 110.763,222.07 110.095,222.375L63.989,243.599C63.21,243.956 62.914,244.914 63.357,245.653L77.197,268.695C77.58,269.322 78.369,269.567 79.037,269.261L125.143,248.037C125.922,247.681 126.218,246.723 125.775,245.984L111.935,222.941ZM120.226,233.155C119.889,233.25 119.706,233.642 119.816,234.028C119.925,234.417 120.287,234.651 120.623,234.557C120.959,234.462 121.143,234.07 121.032,233.684C120.924,233.295 120.562,233.061 120.226,233.155ZM66.98,255.518C66.7,255.049 66.089,254.901 65.623,255.182L65.562,255.219C65.095,255.503 64.942,256.109 65.226,256.576L67.969,261.123C68.249,261.592 68.861,261.74 69.326,261.459L69.387,261.422C69.854,261.138 70.007,260.532 69.723,260.065L66.98,255.518Z" style="fill:white;fill-opacity:0.95;fill-rule:nonzero;"/>
    <path d="M111.935,222.941L125.775,245.984C126.218,246.723 125.922,247.681 125.143,248.037L79.037,269.261C78.369,269.567 77.58,269.322 77.197,268.695L63.357,245.653C62.914,244.914 63.21,243.956 63.989,243.599L110.095,222.375C110.763,222.07 111.553,222.314 111.935,222.941Z" style="fill:white;fill-opacity:0.15;fill-rule:nonzero;"/>
    <path d="M120.226,233.155C120.562,233.061 120.924,233.295 121.032,233.684C121.143,234.07 120.959,234.462 120.623,234.557C120.287,234.651 119.925,234.417 119.816,234.028C119.706,233.642 119.889,233.25 120.226,233.155Z" style="fill:white;fill-opacity:0.5;fill-rule:nonzero;"/>
    <path d="M57.013,245.831C56.82,246.825 57.029,247.834 57.645,248.858C62.613,257.123 67.251,264.828 71.567,271.972C72.479,273.48 73.793,273.837 75.506,273.047C77.625,272.069 79.888,271.162 81.84,270.25C97.081,263.131 112.368,256.078 127.696,249.092C127.451,250.004 126.967,250.631 126.238,250.967C104.607,260.991 87.562,268.853 75.093,274.566C74.588,274.795 73.931,274.922 73.126,274.943C72.958,274.948 72.79,274.897 72.652,274.8C71.607,274.056 70.981,273.511 70.772,273.164C64.825,263.294 60.035,255.339 56.407,249.306C55.688,248.114 55.892,246.957 57.013,245.831Z" style="fill:white;fill-opacity:0.5;fill-rule:nonzero;"/>
    <path d="M69.723,260.065C70.007,260.532 69.854,261.138 69.387,261.422L69.326,261.459C68.861,261.74 68.249,261.592 67.969,261.123L65.226,256.576C64.942,256.109 65.095,255.503 65.562,255.219L65.623,255.182C66.089,254.901 66.7,255.049 66.98,255.518L69.723,260.065Z" style="fill:white;fill-opacity:0.5;fill-rule:nonzero;"/>
    <path d="M149.862,261.444C140.056,282.743 118.517,297.544 93.549,297.544C59.352,297.544 31.589,269.781 31.589,235.585C31.589,231.795 31.93,228.084 32.583,224.481C37.823,195.576 63.143,173.626 93.549,173.626C126.618,173.626 153.671,199.589 155.418,232.225C155.473,233.252 155.503,234.285 155.507,235.323L155.508,235.585C155.508,241.295 154.734,246.826 153.285,252.079C152.648,254.387 151.881,256.641 150.992,258.833C150.635,259.713 150.258,260.584 149.862,261.444ZM145.247,250.241C146.567,245.581 147.274,240.665 147.274,235.585C147.274,205.933 123.2,181.86 93.549,181.86C67.057,181.86 45.017,201.076 40.621,226.319C40.097,229.329 39.824,232.425 39.824,235.585C39.824,265.237 63.897,289.31 93.549,289.31C118.12,289.31 138.862,272.779 145.247,250.241Z" style="fill:white;fill-opacity:0.95;"/>
    <path d="M150.592,262.062C141.957,285.89 119.113,302.934 92.32,302.934C58.123,302.934 30.36,275.17 30.36,240.974C30.36,235.264 31.134,229.733 32.583,224.481C31.93,228.084 31.589,231.795 31.589,235.585C31.589,269.781 59.352,297.544 93.549,297.544C118.517,297.544 140.056,282.743 149.862,261.444C150.258,260.584 150.635,259.713 150.992,258.833C151.881,256.641 152.648,254.387 153.285,252.079C152.844,254.51 152.261,256.892 151.545,259.216C151.25,260.175 150.932,261.124 150.592,262.062Z" style="fill:white;fill-opacity:0.37;"/>
    <path d="M40.621,226.319C45.017,201.076 67.057,181.86 93.549,181.86C123.2,181.86 147.274,205.933 147.274,235.585C147.274,240.665 146.567,245.581 145.247,250.241C145.771,247.23 146.045,244.134 146.045,240.974C146.045,211.323 121.971,187.249 92.32,187.249C67.748,187.249 47.007,203.781 40.621,226.319Z" style="fill:white;fill-opacity:0.37;"/>
    <path d="M163.811,255.714L163.711,256.503C163.139,261.016 159.011,264.215 154.498,263.643C153.028,263.456 151.698,262.893 150.592,262.062C150.932,261.124 151.25,260.175 151.545,259.216C152.537,259.846 153.678,260.272 154.919,260.429C158.596,260.896 162.017,258.859 163.468,255.648L163.811,255.714Z" style="fill:white;fill-opacity:0.3;"/>
    <path d="M164.059,253.764C163.936,254.426 163.735,255.057 163.468,255.648C162.017,258.859 158.596,260.896 154.919,260.429C153.678,260.272 152.537,259.846 151.545,259.216C152.261,256.892 152.844,254.51 153.285,252.079C154.734,246.826 155.508,241.295 155.508,235.585L155.507,235.323C155.503,234.285 155.473,233.252 155.418,232.225C156.403,231.97 157.451,231.894 158.521,232.029C163.033,232.602 166.233,236.73 165.66,241.243L164.133,253.29C164.112,253.449 164.088,253.608 164.059,253.764Z" style="fill:white;fill-opacity:0.75;"/>
    <path d="M170.705,249.122C170.987,247.217 171.322,245.301 171.689,243.379C171.695,243.328 171.703,243.278 171.712,243.228C171.952,241.943 173.156,241.049 174.471,241.213L249.262,250.514C259.885,252.925 262.709,262.994 259.925,270.799C254.655,272.151 247.723,273.285 238.929,273.354C237.776,273.363 222.44,273.737 209.169,269.102C184.366,260.437 175.312,253.24 170.705,249.122Z" style="fill:white;fill-opacity:0.45;"/>
    <path d="M259.925,270.799C257.764,276.857 252.223,281.551 244.327,280.24L172.035,260.803C170.669,260.633 169.698,259.387 169.868,258.021C169.879,257.648 169.893,257.274 169.911,256.899C170.034,254.335 170.318,251.739 170.705,249.122C175.312,253.24 184.366,260.437 209.169,269.102C222.44,273.737 237.776,273.363 238.929,273.354C247.723,273.285 254.655,272.151 259.925,270.799Z" style="fill:white;fill-opacity:0.35;"/>
    <path d="M169.911,256.899L163.468,255.648C163.735,255.057 163.936,254.426 164.059,253.764C164.088,253.608 164.112,253.449 164.133,253.29L165.45,242.904L171.712,243.228C171.703,243.278 171.695,243.328 171.689,243.379C170.819,247.941 170.123,252.468 169.911,256.899Z" style="fill:white;fill-opacity:0.4;"/>
</svg>
