<?xml version="1.0" encoding="UTF-8" standalone="no"?>
<!DOCTYPE svg PUBLIC "-//W3C//DTD SVG 1.1//EN" "http://www.w3.org/Graphics/SVG/1.1/DTD/svg11.dtd">
<svg width="100%" height="100%" viewBox="0 0 300 300" version="1.1" xmlns="http://www.w3.org/2000/svg" xmlns:xlink="http://www.w3.org/1999/xlink" xml:space="preserve" xmlns:serif="http://www.serif.com/" style="fill-rule:evenodd;clip-rule:evenodd;stroke-linejoin:round;stroke-miterlimit:2;">
    <path d="M19.991,259.871L19.991,274.981C19.991,276.399 18.84,277.551 17.421,277.551C16.003,277.551 14.851,276.399 14.851,274.981L14.851,72.036C14.851,70.617 16.003,69.466 17.421,69.466C18.84,69.466 19.991,70.617 19.991,72.036L19.991,75.915L16.653,76.287L16.653,81.734L19.991,83.04L19.991,161.636L16.653,162.008L16.653,167.455L19.991,168.762L19.991,252.745L16.653,253.118L16.653,258.565L19.991,259.871Z" style="fill:white;fill-opacity:0.5;"/>
    <path d="M202.981,101.388L202.981,88.666L208.121,87.832L208.121,115.147C207.798,115.32 207.506,115.56 207.267,115.863L202.981,113.317L202.981,109.839C204.4,107.145 204.338,103.978 202.981,101.388ZM203.094,137.368L202.981,137.383L202.981,137.263L203.094,137.368ZM208.121,173.554L208.121,230.06L203.411,228.436L202.981,228.493L202.981,174.387L208.121,173.554ZM202.981,51.662L202.981,47.806C202.981,46.388 204.133,45.236 205.551,45.236C206.969,45.236 208.121,46.388 208.121,47.806L208.121,53.229L203.411,51.605L202.981,51.662Z" style="fill:white;fill-opacity:0.35;"/>
    <path d="M66.665,95.859L16.653,76.287L22.427,75.643L62.729,70.29C62.401,79.029 63.763,87.712 66.665,95.859ZM201.223,51.896L203.411,51.605L261.601,71.67L261.601,73.713L201.546,83.452C203.949,72.903 203.752,62.097 201.223,51.896ZM232.094,164.219L83.768,188.273L77.675,185.889L77.675,154.026L203.094,137.368L232.094,164.219ZM75.723,68.564L86.038,67.194L86.035,68.023C86.038,68.103 86.049,68.186 86.067,68.271C86.214,68.966 86.868,69.843 87.977,70.896L100.777,83.05C103.008,85.342 103.696,86.737 108.127,86.037L184.969,74.327C186.854,74.03 187.694,73.461 187.571,72.686L187.583,72.687L187.583,67.782L187.568,67.782C187.709,67.041 186.813,66.072 184.969,64.946L168.222,56.279L187.004,53.784C190.441,63.85 191.18,74.822 188.853,85.51L86.341,102.135C79.502,92.288 75.791,80.545 75.723,68.564ZM261.601,250.543L83.768,279.383L77.675,276.998L77.675,245.136L203.411,228.436L261.601,248.5L261.601,250.543ZM72.535,274.987L16.653,253.118L22.427,252.474L72.535,245.818L72.535,274.987ZM72.535,183.877L16.653,162.008L22.427,161.364L72.535,154.709L72.535,183.877Z" style="fill:white;fill-opacity:0.75;"/>
    <path d="M187.571,72.686C187.694,73.461 186.854,74.03 184.969,74.327L108.127,86.037C103.696,86.737 103.008,85.342 100.777,83.05L87.977,70.896C86.868,69.843 86.214,68.966 86.067,68.271C86.049,68.186 86.038,68.103 86.035,68.023L86.05,62.974C86.156,63.683 86.818,64.591 87.977,65.691L100.777,77.845C103.008,80.137 103.696,81.532 108.127,80.833L184.969,69.123C186.602,68.865 187.45,68.404 187.568,67.782L187.583,67.782L187.583,72.687L187.571,72.686Z" style="fill:white;fill-opacity:0.5;"/>
    <path d="M77.675,115.632L77.675,297.43C77.675,298.848 76.523,300 75.105,300C73.686,300 72.535,298.848 72.535,297.43L72.535,108.254C74.078,110.813 75.793,113.278 77.675,115.632Z" style="fill:white;fill-opacity:0.5;"/>
    <path d="M261.601,150.533L261.601,70.838C261.601,69.419 262.752,68.268 264.17,68.268C265.589,68.268 266.74,69.419 266.74,70.838L266.74,154.111L261.601,150.533ZM266.74,192.414L266.74,264.79C266.74,266.208 265.589,267.36 264.17,267.36C262.752,267.36 261.601,266.208 261.601,264.79L261.601,190.816C263.307,191.705 265.036,192.22 266.74,192.414Z" style="fill:white;fill-opacity:0.35;"/>
    <path d="M69.365,102.363L16.653,81.734L16.653,76.287L66.665,95.859C67.453,98.07 68.354,100.241 69.365,102.363ZM201.546,83.452L261.601,73.713L261.601,79.16L199.983,89.152C200.59,87.264 201.11,85.362 201.546,83.452ZM237.101,168.854L83.768,193.72L77.675,191.336L77.675,185.889L83.768,188.273L232.094,164.219L237.101,168.854ZM187.309,91.208L90.088,106.974C88.751,105.421 87.501,103.805 86.341,102.135L188.853,85.51C188.437,87.421 187.923,89.322 187.309,91.208ZM261.601,255.99L83.768,284.83L77.675,282.445L77.675,276.998L83.768,279.383L261.601,250.543L261.601,255.99ZM72.535,280.434L16.653,258.565L16.653,253.118L72.535,274.987L72.535,280.434ZM72.535,189.324L16.653,167.455L16.653,162.008L72.535,183.877L72.535,189.324Z" style="fill:white;fill-opacity:0.36;"/>
    <path d="M184.969,69.123L108.127,80.833C103.696,81.532 103.008,80.137 100.777,77.845L87.977,65.691C86.818,64.591 86.156,63.683 86.05,62.974L86.051,62.585C86.168,61.915 86.923,61.468 88.386,61.25L151.971,52.088C157.042,51.061 158.944,51.818 161.861,52.987L184.969,64.946C186.813,66.072 187.709,67.041 187.568,67.782C187.45,68.404 186.602,68.865 184.969,69.123ZM176.142,68.324C177.488,68.109 178.188,67.725 178.286,67.207C178.402,66.59 177.663,65.783 176.142,64.845L157.079,54.882C154.673,53.909 153.104,53.278 148.92,54.134L96.467,61.766C95.261,61.947 94.638,62.319 94.541,62.878L94.54,63.202C94.628,63.793 95.174,64.549 96.13,65.466L106.689,75.591C108.529,77.5 109.097,78.662 112.752,78.079L176.142,68.324ZM96.742,68.577L96.159,68.457L95.457,68.673C95.296,68.722 95.188,68.864 95.338,69.01L99.289,72.846L99.879,72.964L100.577,72.739C100.743,72.685 100.833,72.539 100.684,72.395L96.742,68.577ZM170.932,59.058C170.326,59.058 169.834,59.25 169.834,59.488C169.834,59.725 170.326,59.918 170.932,59.918C171.538,59.918 172.03,59.725 172.03,59.488C172.03,59.25 171.538,59.058 170.932,59.058Z" style="fill:white;fill-opacity:0.95;"/>
    <ellipse cx="170.932" cy="59.488" rx="1.098" ry="0.43" style="fill:white;fill-opacity:0.5;"/>
    <path d="M176.142,68.324L112.752,78.079C109.097,78.662 108.529,77.5 106.689,75.591L96.13,65.466C95.174,64.549 94.628,63.793 94.54,63.202L94.541,62.878C94.638,62.319 95.261,61.947 96.467,61.766L148.92,54.134C153.104,53.278 154.673,53.909 157.079,54.882L176.142,64.845C177.663,65.783 178.402,66.59 178.286,67.207C178.188,67.725 177.488,68.109 176.142,68.324Z" style="fill:white;fill-opacity:0.2;"/>
    <path d="M96.742,68.577L100.684,72.395C100.833,72.539 100.743,72.685 100.577,72.739L99.879,72.964L99.289,72.846L95.338,69.01C95.188,68.864 95.296,68.722 95.457,68.673L96.159,68.457L96.742,68.577Z" style="fill:white;fill-opacity:0.5;"/>
    <path d="M176.605,122.42C156.109,138.164 127.503,141.55 103.147,128.737C69.79,111.189 56.954,69.86 74.502,36.502C76.447,32.805 78.684,29.36 81.17,26.18C101.114,0.672 137.077,-7.746 166.737,7.857C198.995,24.827 212.062,64.036 197.019,96.769C196.546,97.798 196.045,98.821 195.516,99.836L195.382,100.092C192.452,105.662 188.858,110.66 184.75,115.04C182.944,116.965 181.039,118.77 179.047,120.452C178.247,121.128 177.433,121.784 176.605,122.42ZM177.852,109.123C181.531,105.255 184.743,100.822 187.35,95.866C202.566,66.942 191.436,31.105 162.512,15.889C136.669,2.295 105.309,9.73 88.068,32.098C86.012,34.765 84.156,37.645 82.535,40.728C67.319,69.652 78.448,105.489 107.373,120.705C131.342,133.314 160.058,127.831 177.852,109.123Z" style="fill:white;fill-opacity:0.95;"/>
    <path d="M177,123.397C156.349,142.209 125.319,147.112 99.183,133.363C65.825,115.815 52.99,74.486 70.538,41.128C73.468,35.558 77.062,30.56 81.17,26.18C78.684,29.36 76.447,32.805 74.502,36.502C56.954,69.86 69.79,111.189 103.147,128.737C127.503,141.55 156.109,138.164 176.605,122.42C177.433,121.784 178.247,121.128 179.047,120.452C181.039,118.77 182.944,116.965 184.75,115.04C183.072,117.186 181.281,119.211 179.39,121.11C178.61,121.894 177.813,122.656 177,123.397Z" style="fill:white;fill-opacity:0.37;"/>
    <path d="M88.068,32.098C105.309,9.73 136.669,2.295 162.512,15.889C191.436,31.105 202.566,66.942 187.35,95.866C184.743,100.822 181.531,105.255 177.852,109.123C179.908,106.455 181.764,103.575 183.385,100.493C198.601,71.568 187.472,35.732 158.547,20.516C134.578,7.907 105.862,13.389 88.068,32.098Z" style="fill:white;fill-opacity:0.37;"/>
    <path d="M193.152,123.988L192.65,124.706C189.776,128.815 184.107,129.817 179.999,126.943C178.661,126.007 177.652,124.775 177,123.397C177.813,122.656 178.61,121.894 179.39,121.11C180.034,122.233 180.929,123.234 182.059,124.025C185.406,126.366 189.788,126.135 192.852,123.747L193.152,123.988Z" style="fill:white;fill-opacity:0.3;"/>
    <path d="M194.394,122.213C193.935,122.795 193.416,123.308 192.852,123.747C189.788,126.135 185.406,126.366 182.059,124.025C180.929,123.234 180.034,122.233 179.39,121.11C181.281,119.211 183.072,117.186 184.75,115.04C188.858,110.66 192.452,105.662 195.382,100.092L195.516,99.836C196.045,98.821 196.546,97.798 197.019,96.769C198.11,97.025 199.172,97.488 200.145,98.169C204.254,101.043 205.256,106.712 202.382,110.821L194.71,121.788C194.608,121.934 194.503,122.075 194.394,122.213Z" style="fill:white;fill-opacity:0.75;"/>
    <path d="M203.26,121.095C204.512,119.382 205.823,117.685 207.167,115.998C207.199,115.952 207.232,115.907 207.267,115.863C208.16,114.732 209.794,114.478 210.992,115.312L279.176,162.765C288.301,170.569 285.889,181.84 279.168,188.025C273.334,186.639 265.99,184.188 257.376,179.743C256.247,179.16 241.094,171.655 230.528,160.323C210.779,139.143 205.641,127.476 203.26,121.095Z" style="fill:white;fill-opacity:0.45;"/>
    <path d="M279.168,188.025C273.951,192.825 266.137,194.56 259.108,189.23L198.563,133.172C197.318,132.306 197.01,130.592 197.877,129.347C198.079,128.988 198.285,128.63 198.495,128.274C199.93,125.836 201.54,123.449 203.26,121.095C205.641,127.476 210.779,139.143 230.528,160.323C241.094,171.655 256.247,179.16 257.376,179.743C265.99,184.188 273.334,186.639 279.168,188.025Z" style="fill:white;fill-opacity:0.35;"/>
    <path d="M198.495,128.274L192.852,123.747C193.416,123.308 193.935,122.795 194.394,122.213C194.503,122.075 194.608,121.934 194.71,121.788L201.324,112.333L207.267,115.863C207.232,115.907 207.199,115.952 207.167,115.998C203.977,120.002 200.975,124.061 198.495,128.274Z" style="fill:white;fill-opacity:0.4;"/>
</svg>
