<?xml version="1.0" encoding="UTF-8" standalone="no"?>
<!DOCTYPE svg PUBLIC "-//W3C//DTD SVG 1.1//EN" "http://www.w3.org/Graphics/SVG/1.1/DTD/svg11.dtd">
<svg width="100%" height="100%" viewBox="0 0 300 300" version="1.1" xmlns="http://www.w3.org/2000/svg" xmlns:xlink="http://www.w3.org/1999/xlink" xml:space="preserve" xmlns:serif="http://www.serif.com/" style="fill-rule:evenodd;clip-rule:evenodd;stroke-linejoin:round;stroke-miterlimit:2;">
    <path d="M212.977,72.45C212.808,70.961 212.806,69.645 213.193,69.223C213.4,68.997 213.73,68.931 214.011,69.06C218.744,71.275 222.897,76.659 225.167,81.175C225.474,81.785 225.67,82.143 225.748,82.251C226.021,82.609 226.225,82.961 226.362,83.312C226.65,84.063 229.168,90.253 229.168,90.253C229.427,91.292 229.701,92.313 229.993,93.319C230.134,93.803 230.233,94.269 230.293,94.716C230.518,96.443 231.568,98.488 229.945,99.967C229.468,100.4 228.951,100.386 228.296,100.152C225.272,99.075 220.871,92.67 219.561,90.693C219.143,90.063 214.979,79.832 214.11,77.828C213.839,77.207 213.226,74.642 212.977,72.45Z" style="fill:white;fill-opacity:0.25;"/>
    <path d="M49.634,94.552C48.981,99.312 51.927,102.319 54.068,104.335C57.919,107.962 69.769,119.171 69.625,119.282C69.625,119.282 66.713,118.803 63.055,119.206C48.906,110.365 48.674,99.757 49.634,94.552ZM50.548,91.351C50.517,91.423 50.488,91.494 50.459,91.565C50.514,91.425 50.548,91.351 50.548,91.351ZM49.385,132.175C49.896,135.614 52.548,137.94 53.328,138.751C55.888,141.413 68.331,152.722 68.05,152.8C68.05,152.8 62.689,153.84 61.693,154.26C61.628,154.288 61.563,154.316 61.498,154.345C55.178,146.418 49.05,138.536 49.385,132.175Z" style="fill:white;fill-opacity:0.35;"/>
    <path d="M204.384,229.922C202.269,233.786 198.218,236.462 193.5,236.602L89.544,239.684C82.465,239.894 76.547,234.317 76.337,227.238L70.214,20.757C70.079,16.216 72.325,12.154 75.821,9.768C74.762,11.702 74.188,13.934 74.258,16.296L80.381,222.777C80.591,229.856 86.509,235.433 93.589,235.223L197.545,232.141C200.084,232.065 202.43,231.256 204.384,229.922Z" style="fill:white;fill-opacity:0.25;"/>
    <path d="M204.384,229.922C202.43,231.256 200.084,232.065 197.545,232.141L93.589,235.223C86.509,235.433 80.591,229.856 80.381,222.777L74.258,16.296C74.049,9.216 79.626,3.298 86.705,3.088L190.661,0.006C197.74,-0.204 203.659,5.373 203.868,12.452L205.747,75.798C205.622,75.922 205.514,76.037 205.427,76.142C191.132,93.479 207.207,125.049 207.207,125.049L209.991,218.933C210.126,223.474 207.88,227.536 204.384,229.922ZM88.296,194.091C88.469,200.48 93.796,205.526 100.185,205.353L189.285,202.941C195.673,202.768 200.72,197.44 200.547,191.051L195.954,21.455C195.781,15.066 190.453,10.019 184.065,10.192L94.965,12.605C88.576,12.778 83.53,18.106 83.703,24.494L88.296,194.091ZM159.781,217.29L159.774,217.112C159.706,215.257 158.149,213.807 156.292,213.876L135.339,214.645C133.484,214.713 132.034,216.274 132.103,218.127L132.11,218.304C132.178,220.16 133.735,221.61 135.592,221.54L156.545,220.772C158.4,220.704 159.85,219.143 159.781,217.29ZM140.087,5.19C140.055,4.309 139.293,3.621 138.379,3.651C137.466,3.684 136.753,4.423 136.783,5.306C136.816,6.187 137.577,6.875 138.491,6.844C139.404,6.812 140.118,6.073 140.087,5.19Z" style="fill:white;fill-opacity:0.5;"/>
    <path d="M204.384,229.922C207.88,227.536 210.126,223.474 209.991,218.933L207.207,125.049C207.207,125.049 191.378,93.679 205.427,76.142C206.443,74.944 209.983,72.221 212.977,72.45C213.226,74.642 213.839,77.207 214.11,77.828C214.979,79.832 219.143,90.063 219.561,90.693C220.871,92.67 225.272,99.075 228.296,100.152C228.951,100.386 229.468,100.4 229.945,99.967C231.568,98.488 230.518,96.443 230.293,94.716C230.233,94.269 230.134,93.803 229.993,93.319C229.701,92.313 229.427,91.292 229.168,90.253C251.666,137.581 253.941,151.817 254.976,157.485C260.736,189.019 261.185,204.448 261.177,210.581C261.159,224.576 254.08,250.802 254.07,252.725C254.06,254.703 256.233,266.333 256.119,272.409C255.861,286.119 250.183,297.142 217.532,299.578C185.479,301.971 170.771,293.517 168.358,290.927C164.442,286.723 161.133,275.255 156.822,270.32C152.951,265.887 126.979,250.199 116.271,238.892L193.5,236.602C198.218,236.462 202.269,233.786 204.384,229.922Z" style="fill:white;fill-opacity:0.85;"/>
    <path d="M140.087,5.19C140.118,6.073 139.404,6.812 138.491,6.844C137.577,6.875 136.816,6.187 136.783,5.306C136.753,4.423 137.466,3.684 138.379,3.651C139.293,3.621 140.055,4.309 140.087,5.19Z" style="fill:white;"/>
    <path d="M159.781,217.29C159.85,219.143 158.4,220.704 156.545,220.772L135.592,221.54C133.735,221.61 132.178,220.16 132.11,218.304L132.103,218.127C132.034,216.274 133.484,214.713 135.339,214.645L156.292,213.876C158.149,213.807 159.706,215.257 159.774,217.112L159.781,217.29Z" style="fill:white;"/>
    <path d="M116.014,204.925L100.185,205.353C93.796,205.526 88.469,200.48 88.296,194.091L87.272,156.268L110.653,134.006C110.716,133.943 110.819,133.958 110.867,134.032L134.663,172.442C134.891,172.812 120.548,197.227 116.014,204.925ZM180.131,203.188L125.03,204.681C128.481,198.088 139.855,178.521 139.855,178.521L159.391,167.568L161.011,170.319C161.06,170.406 151.773,175.275 151.389,183.577C150.815,195.987 167.904,201.349 172.031,201.349L178.628,201.349C178.861,201.349 179.075,201.471 179.197,201.667L180.131,203.188ZM122.49,82.897C124.291,79.898 126.036,76.688 127.733,73.26C129.227,70.243 130.389,67.366 131.213,64.633C131.49,63.721 131.605,60.391 131.576,59.482C131.557,58.96 131.494,58.457 131.38,57.977C130.562,54.515 128.617,51.557 125.548,49.098C126.188,48.857 133.516,46.101 133.624,46.299L146.774,70.483C146.807,70.55 146.781,70.631 146.715,70.664L122.49,82.897ZM128.673,107.033C127.811,106.353 126.965,106.298 126.125,106.871C125.012,107.629 124.86,108.631 125.677,109.873L120.341,114.991C120.278,115.05 120.175,115.036 120.138,114.958L110.986,96.986C110.986,96.986 112.762,95.963 112.938,95.947C113.104,96.794 113.511,97.356 114.155,97.641C116.37,98.62 118.208,95.684 116.214,94.068L150.124,76.869C150.184,76.84 150.257,76.862 150.287,76.921L153.608,83.026C153.66,83.119 153.641,83.233 153.563,83.304L128.673,107.033ZM123.211,102.167C123.211,101.028 122.286,100.103 121.147,100.103C120.008,100.103 119.084,101.028 119.084,102.167C119.084,103.306 120.008,104.23 121.147,104.23C122.286,104.23 123.211,103.306 123.211,102.167ZM131.383,114.618C131.246,115.986 131.768,116.792 132.955,117.036C134.593,117.373 135.911,115.757 135.336,114.241C135.021,113.409 134.22,112.939 132.929,112.839L142.399,103.709C142.47,103.642 142.584,103.661 142.632,103.746L165.045,145.081C163.685,144.87 162.782,145.184 162.335,146.02C160.821,148.852 165.256,150.665 166.144,147.333C167.286,148.897 168.122,150.517 168.651,152.192C168.3,152.606 168.13,153.083 168.144,153.62C168.044,153.912 167.83,154.156 167.508,154.352C142.718,169.104 141.661,170.12 141.342,169.745L141.309,169.698L116.126,129.051C116.066,128.955 116.081,128.833 116.163,128.759L130.88,114.729C130.954,114.658 131.054,114.618 131.158,114.618L131.383,114.618ZM160.005,140.655C160.005,139.516 159.081,138.591 157.942,138.591C156.803,138.591 155.878,139.516 155.878,140.655C155.878,141.794 156.803,142.718 157.942,142.718C159.081,142.718 160.005,141.794 160.005,140.655ZM153.874,134.239C153.874,133.1 152.95,132.175 151.811,132.175C150.672,132.175 149.747,133.1 149.747,134.239C149.747,135.378 150.672,136.302 151.811,136.302C152.95,136.302 153.874,135.378 153.874,134.239ZM141.604,121.411C141.604,120.272 140.68,119.347 139.541,119.347C138.402,119.347 137.477,120.272 137.477,121.411C137.477,122.55 138.402,123.474 139.541,123.474C140.68,123.474 141.604,122.55 141.604,121.411ZM147.747,127.827C147.747,126.684 146.822,125.76 145.679,125.76C144.537,125.76 143.612,126.684 143.612,127.827C143.612,128.969 144.537,129.894 145.679,129.894C146.822,129.894 147.747,128.969 147.747,127.827ZM182.829,55.296C182.847,55.34 182.84,55.392 182.803,55.425L159.103,78.016C159.051,78.067 158.966,78.053 158.929,77.99L144.792,51.986C144.712,51.813 172.46,33.449 172.545,33.618L182.829,55.296ZM113.119,45.126C112.942,45.178 112.753,45.071 112.705,44.893C108.28,28.811 104.501,15.278 103.59,12.372L115.309,12.054C116.931,15.412 125.664,31.65 130.204,40.001C130.255,40.093 130.207,40.212 130.104,40.241L113.119,45.126ZM122.977,11.847L161.673,10.799L169.379,26.929C169.405,26.984 169.387,27.047 169.335,27.08L141.475,45.552C141.401,45.6 141.301,45.574 141.257,45.496L122.977,11.847ZM199.264,143.677L200.221,179.007C197.195,172.673 186.47,165.695 173.621,166.91C171.601,166.91 167.815,167.926 167.778,167.864L165.519,164.026C165.467,163.933 165.497,163.815 165.585,163.763L199.264,143.677ZM84.485,53.387L83.703,24.494C83.53,18.106 88.576,12.778 94.965,12.605L96.479,12.564L105.882,46.827C105.938,47.027 105.82,47.234 105.62,47.293L84.485,53.387ZM169.475,10.588L184.065,10.192C190.453,10.019 195.781,15.066 195.954,21.455L196.527,42.616C195.611,43.402 193.575,45.349 188.394,50.085C188.32,50.153 188.142,50.12 188.098,50.03L169.475,10.588ZM196.779,51.929L198.007,97.264L180.558,67.599C180.506,67.51 180.521,67.399 180.595,67.329L196.779,51.929ZM198.404,111.947L199.046,135.631L183.021,145.07C185.321,141.184 187.389,137.403 189.215,133.725C189.982,132.18 190.879,130.082 191.911,127.435C192.983,124.683 193.304,121.988 192.876,119.344C192.487,116.944 191.47,114.696 189.818,112.599C188.253,110.613 186.312,109.082 183.994,108.01L191.785,100.995C191.834,100.948 196.417,108.616 198.404,111.947ZM85.79,101.569L84.685,60.758L98.705,56.712C97.178,61.63 98.293,65.288 100.343,69.947C103.267,76.593 106.87,82.79 110.682,88.95L85.79,101.569ZM87.013,146.734L85.999,109.293L104.44,100.015C104.499,99.985 104.573,100.007 104.603,100.07L114.772,120.039C114.817,120.131 114.798,120.242 114.724,120.312L87.013,146.734ZM188.109,94.764L174.588,107.102C174.144,107.11 173.64,107.131 173.099,107.171C172.92,107.185 172.736,107.201 172.55,107.219C171.633,107.307 170.893,107.477 170.316,107.651C167.034,108.658 164.449,110.387 162.563,112.836C161.1,114.727 160.055,117.049 159.428,119.802L147.968,98.724C147.909,98.609 147.931,98.473 148.024,98.384L175.078,72.591C175.137,72.535 175.237,72.55 175.278,72.62C175.278,72.62 188.183,94.697 188.109,94.764ZM115.719,67.345L115.626,67.392C115.358,67.524 114.635,67.33 114.61,67.321C111.226,66.127 109.682,63.738 109.976,60.158C110.184,57.625 112.067,55.67 114.612,54.601C117.795,55.459 119.897,58.21 119.731,61.545C119.603,64.125 118.266,66.058 115.719,67.345ZM200.413,186.121L200.547,191.051C200.72,197.44 195.673,202.768 189.285,202.941L188.032,202.974L186.501,200.239C185.477,198.321 196.855,199.713 200.413,186.121Z" style="fill:white;fill-opacity:0.95;"/>
    <path d="M176.776,128.038L176.574,128.109C176.327,128.191 175.981,128.3 175.937,128.308C173.737,128.641 171.873,128.227 170.346,127.062C168.844,125.919 168.001,124.381 167.816,122.447C167.796,122.234 167.784,122.023 167.781,121.816L167.782,121.561C167.864,117.519 171.244,114.727 175.371,115.11L175.621,115.142C175.705,115.153 175.793,115.166 175.86,115.179L175.937,115.195C177.568,115.669 178.818,116.429 179.686,117.474C180.288,118.199 180.706,119.06 180.94,120.058C181.452,122.238 181.028,124.279 179.826,125.827C179.09,126.776 178.061,127.54 176.776,128.038ZM115.035,46.132C118.866,45.773 122.371,46.761 125.548,49.098C128.617,51.557 130.562,54.515 131.38,57.977C131.494,58.457 131.557,58.96 131.576,59.482C131.605,60.391 131.49,63.721 131.213,64.633C130.389,67.366 129.227,70.243 127.733,73.26C126.036,76.688 124.291,79.898 122.49,82.897C120.829,85.992 119.243,88.688 117.734,90.977C117.413,91.465 116.936,91.857 116.296,92.157C116.189,92.205 116.074,92.234 115.956,92.245C115.001,92.323 114.162,92.253 113.434,92.027C117.183,86.325 120.611,80.434 123.714,74.351C124.908,72.01 125.869,69.91 126.591,68.05C127.736,65.098 128.403,62.477 128.007,59.389C127.807,57.832 127.326,56.291 126.561,54.763C124.599,50.841 121.371,48.189 116.869,46.831C116.795,46.809 116.207,46.698 115.109,46.495C114.95,46.465 113.837,46.424 113.234,46.454L111.851,46.526C113.514,46.251 114.728,46.227 115.035,46.132ZM183.994,108.01C186.312,109.082 188.253,110.613 189.818,112.599C191.47,114.696 192.487,116.944 192.876,119.344C193.304,121.988 192.983,124.683 191.911,127.435C190.879,130.082 189.982,132.18 189.215,133.725C187.389,137.403 185.321,141.184 183.021,145.07C182.607,145.855 178.309,152.235 174.838,152.566L174.857,152.541C175.172,152.149 175.471,151.727 175.756,151.279C179.801,144.893 183.747,138.263 186.96,131.148C188.155,128.496 188.935,126.23 189.301,124.347C190.732,116.904 185.706,109.659 178.661,107.6C177.932,107.387 177.181,107.23 176.414,107.134C176.399,107.131 176.255,107.121 176.011,107.112C177.564,106.852 180.081,107.049 181.98,107.427C182.441,107.519 182.866,107.622 183.231,107.732C183.529,107.82 183.787,107.914 183.994,108.01ZM114.612,54.601C112.067,55.67 110.184,57.625 109.976,60.158C109.682,63.738 111.226,66.127 114.61,67.321C114.635,67.33 115.358,67.524 115.626,67.392C115.358,67.524 114.643,67.642 114.547,67.661C112.963,67.988 111.133,67.762 109.721,66.937C103.577,63.346 106.372,53.899 113.796,54.493C113.914,54.503 114.315,54.546 114.584,54.596L114.612,54.601Z" style="fill:white;fill-opacity:0.25;"/>
    <path d="M174.243,128.414C172.656,126.899 171.666,124.762 171.666,122.397C171.666,119.31 173.351,116.613 175.849,115.177C175.853,115.177 175.857,115.178 175.86,115.179L175.937,115.195C177.568,115.669 178.818,116.429 179.686,117.474C180.288,118.199 180.706,119.06 180.94,120.058C181.452,122.238 181.028,124.279 179.826,125.827C179.09,126.776 178.061,127.54 176.776,128.038L176.605,128.098L176.574,128.109C176.327,128.191 175.981,128.3 175.937,128.308C175.348,128.397 174.783,128.433 174.243,128.414Z" style="fill:white;fill-opacity:0.95;"/>
    <path d="M191.785,100.995L183.994,108.01C183.787,107.914 183.529,107.82 183.231,107.732C182.866,107.622 182.441,107.519 181.98,107.427C180.081,107.049 177.564,106.852 176.011,107.112C175.69,107.1 175.196,107.09 174.588,107.102L188.109,94.764C188.183,94.697 175.278,72.62 175.278,72.62C175.237,72.55 175.137,72.535 175.078,72.591L148.024,98.384C147.931,98.473 147.909,98.609 147.968,98.724L159.428,119.802C159.415,120.033 159.41,120.269 159.411,120.51C159.45,126.065 163.305,134.377 167.061,141.13C168.412,143.559 169.749,145.787 170.892,147.612C171.942,149.351 172.889,150.855 173.885,152.263C173.935,152.334 174.01,152.389 174.093,152.417C174.115,152.444 174.129,152.458 174.135,152.459L174.838,152.566C178.309,152.235 182.607,145.855 183.021,145.07L199.046,135.631L199.264,143.677L165.585,163.763C165.497,163.815 165.467,163.933 165.519,164.026L167.778,167.864C167.815,167.926 171.601,166.91 173.621,166.91C186.47,165.695 197.195,172.673 200.221,179.007L200.413,186.121C196.855,199.713 185.477,198.321 186.501,200.239L188.032,202.974L180.131,203.188L179.197,201.667C179.075,201.471 178.861,201.349 178.628,201.349L172.031,201.349C167.904,201.349 150.815,195.987 151.389,183.577C151.773,175.275 161.06,170.406 161.011,170.319L159.391,167.568L139.855,178.521C139.855,178.521 128.481,198.088 125.03,204.681L116.014,204.925C120.548,197.227 134.891,172.812 134.663,172.442L110.867,134.032C110.819,133.958 110.716,133.943 110.653,134.006L87.272,156.268L87.013,146.734L114.724,120.312C114.798,120.242 114.817,120.131 114.772,120.039L104.603,100.07C104.573,100.007 104.499,99.985 104.44,100.015L85.999,109.293L85.79,101.569L110.682,88.95L112.446,91.565C112.505,91.654 112.594,91.72 112.694,91.757L113.434,92.027C114.162,92.253 115.001,92.323 115.956,92.245C116.074,92.234 116.189,92.205 116.296,92.157C116.936,91.857 117.413,91.465 117.734,90.977C119.243,88.688 120.829,85.992 122.49,82.897L146.715,70.664C146.781,70.631 146.807,70.55 146.774,70.483L133.624,46.299C133.516,46.101 126.188,48.857 125.548,49.098C122.371,46.761 118.866,45.773 115.035,46.132C114.728,46.227 113.514,46.251 111.851,46.526C111.579,46.541 111.43,46.55 111.403,46.554C105.202,47.46 100.968,50.847 98.705,56.712L84.685,60.758L84.485,53.387L105.62,47.293C105.82,47.234 105.938,47.027 105.882,46.827L96.479,12.564L103.59,12.372C104.501,15.278 108.28,28.811 112.705,44.893C112.753,45.071 112.942,45.178 113.119,45.126L130.104,40.241C130.207,40.212 130.255,40.093 130.204,40.001C125.664,31.65 116.931,15.412 115.309,12.054L122.977,11.847L141.257,45.496C141.301,45.574 141.401,45.6 141.475,45.552L169.335,27.08C169.387,27.047 169.405,26.984 169.379,26.929L161.673,10.799L169.475,10.588L188.098,50.03C188.142,50.12 188.32,50.153 188.394,50.085C193.575,45.349 195.611,43.402 196.527,42.616L196.779,51.929L180.595,67.329C180.521,67.399 180.506,67.51 180.558,67.599L198.007,97.264L198.404,111.947C196.417,108.616 191.834,100.948 191.785,100.995ZM172.748,181.38C172.674,181.443 172.56,181.398 172.549,181.302C172.297,179.457 169.849,179.697 169.838,181.546C169.823,184.279 169.823,187.141 169.842,190.129C169.845,190.917 170.478,191.557 171.262,191.571L171.321,191.575C172.109,191.59 172.756,190.965 172.77,190.177C172.804,188.28 172.815,186.576 172.796,185.063C172.793,184.667 172.918,184.153 173.17,183.521C173.591,182.449 174.438,182.271 175.463,182.449C175.862,182.519 176.173,182.83 176.243,183.229C176.59,185.244 176.398,187.578 176.394,189.508C176.391,190.573 176.616,191.449 177.692,191.705C178.554,191.908 179.523,191.043 179.527,190.292C179.53,187.685 179.538,185.81 179.549,184.667C179.56,183.699 180.192,182.844 181.117,182.556L181.324,182.482C182.108,182.201 182.932,182.781 182.932,183.614L182.932,190.118C182.932,190.972 183.609,191.668 184.463,191.693L184.574,191.697C185.425,191.756 186.15,191.094 186.175,190.244C186.231,188.454 186.238,186.302 186.198,183.787C186.175,182.075 185.88,181.247 184.463,180.422C182.884,179.501 181.202,179.764 179.419,181.217C179.242,181.358 178.99,181.35 178.824,181.195C176.968,179.461 174.941,179.524 172.748,181.38ZM141.342,169.745C141.661,170.12 142.718,169.104 167.508,154.352C167.83,154.156 168.044,153.912 168.144,153.62C168.385,154.888 169.073,155.524 170.208,155.524C171.533,155.526 172.216,154.559 172.247,153.561L172.248,153.505C172.255,152.525 171.635,151.534 170.382,151.416C169.653,151.345 169.076,151.604 168.651,152.192C168.122,150.517 167.286,148.897 166.144,147.333C166.173,146.512 165.807,145.762 165.045,145.081L142.632,103.746C142.584,103.661 142.47,103.642 142.399,103.709L132.929,112.839C132.09,113.29 131.576,113.882 131.383,114.618L131.158,114.618C131.054,114.618 130.954,114.658 130.88,114.729L116.163,128.759C116.081,128.833 116.066,128.955 116.126,129.051L141.309,169.698L141.342,169.745ZM161.788,181.154L161.788,190.31C161.788,191.072 162.394,191.693 163.156,191.712L163.3,191.716C164.095,191.775 164.772,191.142 164.768,190.344C164.739,182.486 164.735,178.166 164.753,177.39C164.794,175.896 163.577,175.16 162.501,176.395C161.891,177.094 161.259,178.159 160.379,178.762C159.613,179.287 158.704,179.786 157.653,180.263C157.568,180.304 157.491,180.359 157.42,180.426C156.873,180.958 156.88,181.565 157.439,182.249C157.535,182.364 157.672,182.441 157.82,182.46C159.288,182.648 160.323,181.805 161.366,180.951C161.532,180.814 161.788,180.936 161.788,181.154ZM191.741,190.31L191.741,181.339C191.741,180.552 191.101,179.912 190.313,179.912L190.21,179.912C189.422,179.912 188.782,180.552 188.782,181.339L188.782,190.31C188.782,191.098 189.422,191.738 190.21,191.738L190.313,191.738C191.101,191.738 191.741,191.098 191.741,190.31ZM144.792,51.986L158.929,77.99C158.966,78.053 159.051,78.067 159.103,78.016L182.803,55.425C182.84,55.392 182.847,55.34 182.829,55.296L172.545,33.618C172.46,33.449 144.712,51.813 144.792,51.986ZM110.986,96.986L120.138,114.958C120.175,115.036 120.278,115.05 120.341,114.991L125.677,109.873C126.177,110.435 126.746,110.687 127.393,110.631C128.063,110.568 128.602,110.25 129.013,109.674C129.564,108.893 129.449,108.013 128.673,107.033L153.563,83.304C153.641,83.233 153.66,83.119 153.608,83.026L150.287,76.921C150.257,76.862 150.184,76.84 150.124,76.869L116.214,94.068C115.29,93.477 114.432,93.521 113.644,94.201C113.263,94.532 113.035,94.932 112.96,95.402C112.932,95.574 112.925,95.756 112.938,95.947C112.762,95.963 110.986,96.986 110.986,96.986ZM191.837,177.294C191.837,176.447 191.153,175.763 190.306,175.763C189.459,175.763 188.775,176.447 188.775,177.294C188.775,178.141 189.459,178.825 190.306,178.825C191.153,178.825 191.837,178.141 191.837,177.294Z" style="fill:white;fill-opacity:0.75;"/>
    <path d="M111.851,46.526L113.234,46.454C113.837,46.424 114.95,46.465 115.109,46.495C116.207,46.698 116.795,46.809 116.869,46.831C121.371,48.189 124.599,50.841 126.561,54.763C127.326,56.291 127.807,57.832 128.007,59.389C128.403,62.477 127.736,65.098 126.591,68.05C125.869,69.91 124.908,72.01 123.714,74.351C120.611,80.434 117.183,86.325 113.434,92.027L112.694,91.757C112.594,91.72 112.505,91.654 112.446,91.565L110.682,88.95C106.87,82.79 103.267,76.593 100.343,69.947C98.293,65.288 97.178,61.63 98.705,56.712C100.968,50.847 105.202,47.46 111.403,46.554C111.43,46.55 111.579,46.541 111.851,46.526ZM115.719,67.345C118.266,66.058 119.603,64.125 119.731,61.545C119.897,58.21 117.795,55.459 114.612,54.601L114.584,54.596C114.315,54.546 113.914,54.503 113.796,54.493C106.372,53.899 103.577,63.346 109.721,66.937C111.133,67.762 112.963,67.988 114.547,67.661C114.643,67.642 115.358,67.524 115.626,67.392L115.719,67.345Z" style="fill:white;fill-opacity:0.52;"/>
    <path d="M162.563,112.836C164.449,110.387 167.034,108.658 170.316,107.651C170.893,107.477 171.633,107.307 172.55,107.219C172.736,107.201 172.92,107.185 173.099,107.171C173.64,107.131 174.144,107.11 174.588,107.102C175.196,107.09 175.69,107.1 176.011,107.112C176.255,107.121 176.399,107.131 176.414,107.134C177.181,107.23 177.932,107.387 178.661,107.6C185.706,109.659 190.732,116.904 189.301,124.347C188.935,126.23 188.155,128.496 186.96,131.148C185.253,134.927 183.34,138.57 181.314,142.112C180.328,143.838 179.315,145.539 178.286,147.22C177.451,148.585 176.606,149.938 175.756,151.279C175.471,151.727 175.172,152.149 174.857,152.541L174.838,152.566L174.135,152.459C174.129,152.458 174.115,152.444 174.093,152.417C174.01,152.389 173.935,152.334 173.885,152.263C172.889,150.855 171.942,149.351 170.892,147.612C169.749,145.787 168.412,143.559 167.061,141.13C163.305,134.377 159.45,126.065 159.411,120.51C159.41,120.269 159.415,120.033 159.428,119.802C160.055,117.049 161.1,114.727 162.563,112.836ZM175.849,115.177C175.784,115.165 175.7,115.153 175.621,115.142L175.371,115.11C171.244,114.727 167.864,117.519 167.782,121.561L167.781,121.816C167.784,122.023 167.796,122.234 167.816,122.447C168.001,124.381 168.844,125.919 170.346,127.062C171.464,127.915 172.763,128.365 174.243,128.414C174.783,128.433 175.348,128.397 175.937,128.308C175.981,128.3 176.327,128.191 176.574,128.109L176.776,128.038C178.061,127.54 179.09,126.776 179.826,125.827C181.028,124.279 181.452,122.238 180.94,120.058C180.706,119.06 180.288,118.199 179.686,117.474C178.818,116.429 177.568,115.669 175.937,115.195L175.849,115.177Z" style="fill:white;fill-opacity:0.52;"/>
    <path d="M112.938,95.947C112.925,95.756 112.932,95.574 112.96,95.402C113.035,94.932 113.263,94.532 113.644,94.201C114.432,93.521 115.29,93.477 116.214,94.068C118.208,95.684 116.37,98.62 114.155,97.641C113.511,97.356 113.104,96.794 112.938,95.947Z" style="fill:white;fill-opacity:0.52;"/>
    <path d="M123.211,102.167C123.211,101.028 122.286,100.103 121.147,100.103C120.008,100.103 119.084,101.028 119.084,102.167C119.084,103.306 120.008,104.23 121.147,104.23C122.286,104.23 123.211,103.306 123.211,102.167Z" style="fill:white;fill-opacity:0.52;"/>
    <path d="M128.673,107.033C129.449,108.013 129.564,108.893 129.013,109.674C128.602,110.25 128.063,110.568 127.393,110.631C126.746,110.687 126.177,110.435 125.677,109.873C127.098,111.472 130.65,109.529 128.673,107.033Z" style="fill:white;fill-opacity:0.52;"/>
    <path d="M128.673,107.033C127.811,106.353 126.965,106.298 126.125,106.871C125.012,107.629 124.86,108.631 125.677,109.873C127.098,111.472 130.65,109.529 128.673,107.033Z" style="fill:white;fill-opacity:0.52;"/>
    <path d="M141.604,121.411C141.604,120.272 140.68,119.347 139.541,119.347C138.402,119.347 137.477,120.272 137.477,121.411C137.477,122.55 138.402,123.474 139.541,123.474C140.68,123.474 141.604,122.55 141.604,121.411Z" style="fill:white;fill-opacity:0.52;"/>
    <path d="M147.747,127.827C147.747,126.684 146.822,125.76 145.679,125.76C144.537,125.76 143.612,126.684 143.612,127.827C143.612,128.969 144.537,129.894 145.679,129.894C146.822,129.894 147.747,128.969 147.747,127.827Z" style="fill:white;fill-opacity:0.52;"/>
    <path d="M160.005,140.655C160.005,139.516 159.081,138.591 157.942,138.591C156.803,138.591 155.878,139.516 155.878,140.655C155.878,141.794 156.803,142.718 157.942,142.718C159.081,142.718 160.005,141.794 160.005,140.655Z" style="fill:white;fill-opacity:0.52;"/>
    <path d="M153.874,134.239C153.874,133.1 152.95,132.175 151.811,132.175C150.672,132.175 149.747,133.1 149.747,134.239C149.747,135.378 150.672,136.302 151.811,136.302C152.95,136.302 153.874,135.378 153.874,134.239Z" style="fill:white;fill-opacity:0.52;"/>
    <path d="M168.144,153.62C168.13,153.083 168.3,152.606 168.651,152.192C169.076,151.604 169.653,151.345 170.382,151.416C171.635,151.534 172.255,152.525 172.248,153.505L172.247,153.561C172.216,154.559 171.533,155.526 170.208,155.524C169.073,155.524 168.385,154.888 168.144,153.62Z" style="fill:white;fill-opacity:0.52;"/>
    <path d="M166.144,147.333C166.173,146.512 165.807,145.762 165.045,145.081C163.685,144.87 162.782,145.184 162.335,146.02C160.821,148.852 165.256,150.665 166.144,147.333Z" style="fill:white;fill-opacity:0.52;"/>
    <path d="M132.929,112.839C132.09,113.29 131.576,113.882 131.383,114.618C131.246,115.986 131.768,116.792 132.955,117.036C134.593,117.373 135.911,115.757 135.336,114.241C135.021,113.409 134.22,112.939 132.929,112.839Z" style="fill:white;fill-opacity:0.52;"/>
    <path d="M191.741,190.31C191.741,191.098 191.101,191.738 190.313,191.738L190.21,191.738C189.422,191.738 188.782,191.098 188.782,190.31L188.782,181.339C188.782,180.552 189.422,179.912 190.21,179.912L190.313,179.912C191.101,179.912 191.741,180.552 191.741,181.339L191.741,190.31ZM172.748,181.38C174.941,179.524 176.968,179.461 178.824,181.195C178.99,181.35 179.242,181.358 179.419,181.217C181.202,179.764 182.884,179.501 184.463,180.422C185.88,181.247 186.175,182.075 186.198,183.787C186.238,186.302 186.231,188.454 186.175,190.244C186.15,191.094 185.425,191.756 184.574,191.697L184.463,191.693C183.609,191.668 182.932,190.972 182.932,190.118L182.932,183.614C182.932,182.781 182.108,182.201 181.324,182.482L181.117,182.556C180.192,182.844 179.56,183.699 179.549,184.667C179.538,185.81 179.53,187.685 179.527,190.292C179.523,191.043 178.554,191.908 177.692,191.705C176.616,191.449 176.391,190.573 176.394,189.508C176.398,187.578 176.59,185.244 176.243,183.229C176.173,182.83 175.862,182.519 175.463,182.449C174.438,182.271 173.591,182.449 173.17,183.521C172.918,184.153 172.793,184.667 172.796,185.063C172.815,186.576 172.804,188.28 172.77,190.177C172.756,190.965 172.109,191.59 171.321,191.575L171.262,191.571C170.478,191.557 169.845,190.917 169.842,190.129C169.823,187.141 169.823,184.279 169.838,181.546C169.849,179.697 172.297,179.457 172.549,181.302C172.56,181.398 172.674,181.443 172.748,181.38ZM191.837,177.294C191.837,178.141 191.153,178.825 190.306,178.825C189.459,178.825 188.775,178.141 188.775,177.294C188.775,176.447 189.459,175.763 190.306,175.763C191.153,175.763 191.837,176.447 191.837,177.294ZM161.788,181.154C161.788,180.936 161.532,180.814 161.366,180.951C160.323,181.805 159.288,182.648 157.82,182.46C157.672,182.441 157.535,182.364 157.439,182.249C156.88,181.565 156.873,180.958 157.42,180.426C157.491,180.359 157.568,180.304 157.653,180.263C158.704,179.786 159.613,179.287 160.379,178.762C161.259,178.159 161.891,177.094 162.501,176.395C163.577,175.16 164.794,175.896 164.753,177.39C164.735,178.166 164.739,182.486 164.768,190.344C164.772,191.142 164.095,191.775 163.3,191.716L163.156,191.712C162.394,191.693 161.788,191.072 161.788,190.31L161.788,181.154Z" style="fill:white;fill-opacity:0.35;"/>
    <path d="M75.378,194.907C74.427,193.954 73.468,193.004 72.502,192.057C67.362,187.024 63.76,183.444 61.701,181.325C59.127,178.681 57.182,175.512 55.865,171.822C55.396,170.505 54.993,165.191 55.192,163.783C55.462,161.882 55.684,160.713 55.85,160.273C56.853,157.637 59.074,155.366 61.693,154.26C62.689,153.84 68.05,152.8 68.05,152.8C68.331,152.722 55.888,141.413 53.328,138.751C52.108,137.483 46.317,132.516 51.272,125.38C56.953,117.199 69.625,119.282 69.625,119.282C69.769,119.171 57.919,107.962 54.068,104.335C51.482,101.9 47.721,98.019 50.548,91.351C52.155,87.559 55.936,84.19 59.896,83.179C64.241,82.07 68.781,83.433 72.119,84.982L75.378,194.907Z" style="fill:white;fill-opacity:0.85;"/>
</svg>
