<?xml version="1.0" encoding="UTF-8" standalone="no"?>
<!DOCTYPE svg PUBLIC "-//W3C//DTD SVG 1.1//EN" "http://www.w3.org/Graphics/SVG/1.1/DTD/svg11.dtd">
<svg width="100%" height="100%" viewBox="0 0 300 300" version="1.1" xmlns="http://www.w3.org/2000/svg" xmlns:xlink="http://www.w3.org/1999/xlink" xml:space="preserve" xmlns:serif="http://www.serif.com/" style="fill-rule:evenodd;clip-rule:evenodd;stroke-linejoin:round;stroke-miterlimit:2;">
    <path d="M156.305,118.332C155.356,113.631 154.636,110.296 154.144,108.328C151.236,96.68 148.484,84.839 145.888,72.801C144.836,67.929 143.279,62.26 140.924,57.34C140.482,56.416 139.929,55.529 139.265,54.68C141.544,53.482 143.975,52.615 146.558,52.081C147.216,51.944 147.896,51.814 148.595,51.687C150.804,51.315 152.218,51.105 152.838,51.051C154.386,50.921 155.26,50.822 155.46,50.759C155.568,50.724 155.686,50.702 155.8,50.698C156.966,50.657 159.229,50.8 161.19,50.485C161.867,50.374 163.745,50.339 166.818,50.381C174.242,50.476 178.049,50.52 178.243,50.514C181.742,50.381 185.196,50.323 188.603,50.339C188.898,50.342 192.35,50.352 198.963,50.368C199.278,50.368 199.376,49.945 199.097,49.805C194.317,47.441 188.803,47.505 183.753,48.639C181.408,49.17 179.45,49.503 177.877,49.646C170.549,50.311 168.671,41.749 168.035,36.359C167.425,31.186 166.926,22.151 165.426,15.531C164.422,11.085 162.27,7.58 157.684,6.201C159.588,4.755 161.654,3.61 163.881,2.768C167.323,1.469 170.86,0.626 174.486,0.242C175.773,0.105 176.879,0.181 178.154,0.054C178.742,-0.003 179.66,-0.016 180.909,0.019C184.141,0.112 187.201,0.502 190.09,1.198C191.981,1.653 193.427,2.165 194.428,2.737C196.112,3.693 197.492,5.26 198.563,7.43C201.744,13.878 204.003,20.905 205.348,28.513C205.913,31.71 206.139,34.624 206.024,37.256C205.961,38.74 205.786,39.985 205.5,40.999C204.591,44.199 202.386,47.323 200.307,49.878C200.263,49.933 200.298,50.015 200.368,50.021C201.312,50.11 202.065,50.053 202.63,49.847C202.742,49.805 202.866,49.809 202.977,49.853L203.304,49.983C203.349,49.999 203.396,50.009 203.447,50.012C206.285,50.06 208.395,50.241 209.778,50.555C213.019,51.289 215.066,53.066 217.23,55.478C220.417,59.025 223.166,62.813 225.48,66.846C227.612,70.567 228.925,72.966 229.411,74.044C230.682,76.844 232.16,80.034 233.558,83.409C235.465,88.02 237.648,94.122 240.111,101.717C243.321,111.626 245.803,121.408 247.557,131.066C248.956,138.769 249.483,147.032 249.137,155.851C248.943,155.886 248.809,155.784 248.739,155.539C246.483,147.655 243.505,139.828 239.803,132.057C239.759,131.965 239.628,131.968 239.587,132.061L239.52,132.213C239.266,129.814 238.856,127.961 238.294,126.658C237.737,125.371 236.781,124.163 235.427,123.035C232.684,117.378 229.821,111.89 226.831,106.567C226.179,105.41 225.677,104.358 225.321,103.414C222.664,96.382 219.277,89.199 214.535,83.123C211.519,79.256 207.699,76.64 203.075,75.277C199.22,74.142 194.241,72.976 190.456,72.207C187.233,71.549 183.992,71.203 180.734,71.171C179.209,71.155 177.706,71.323 176.228,71.676C171.887,72.712 170.625,76.557 170.431,80.546C170.291,83.403 170.419,86.419 170.816,89.597C171.327,93.706 172.036,98.075 172.942,102.706C173.977,108 174.991,113.155 175.984,118.173C169.533,117.302 162.911,117.329 156.305,118.332Z" style="fill:white;fill-opacity:0.75;"/>
    <path d="M148.595,51.687C150.804,51.315 152.218,51.105 152.838,51.051C154.386,50.921 155.26,50.822 155.46,50.759C155.568,50.724 155.686,50.702 155.8,50.698C156.966,50.657 159.229,50.8 161.19,50.485C161.867,50.374 163.745,50.339 166.818,50.381C174.242,50.476 178.049,50.52 178.243,50.514C181.742,50.381 185.196,50.323 188.603,50.339C188.898,50.342 192.35,50.352 198.963,50.368C199.278,50.368 199.376,49.945 199.097,49.805C194.317,47.441 188.803,47.505 183.753,48.639C181.408,49.17 179.45,49.503 177.877,49.646C170.549,50.311 168.671,41.749 168.035,36.359C167.425,31.186 166.926,22.151 165.426,15.531C164.422,11.085 162.27,7.58 157.684,6.201C154.831,8.419 152.743,11.117 151.417,14.298C150.232,17.142 149.415,20.279 148.967,23.711C148.437,27.747 148.097,31.802 147.941,35.873C147.741,41.11 147.957,46.383 148.595,51.687Z" style="fill:white;fill-opacity:0.6;fill-rule:nonzero;"/>
    <path d="M121.891,133.872C119.294,128.665 116.597,123.547 113.797,118.519C113.037,117.156 112.459,115.936 112.062,114.862C109.659,108.394 106.586,102.258 102.693,96.604C99.502,91.971 95.339,88.583 89.876,87.019C86.04,85.923 81.34,84.769 77.514,84.003C74.155,83.333 71.005,82.977 68.072,82.939C63.776,82.885 59.508,83.511 58.014,88.224C57.591,89.555 57.35,90.941 57.286,92.384C57.162,95.228 57.293,98.244 57.68,101.435C58.135,105.175 58.866,109.557 59.867,114.585C61.824,124.408 63.702,134.234 65.501,144.07C64.462,144.045 63.197,143.682 62.463,143.562C59.597,143.088 56.527,142.51 53.253,141.833C52.087,141.591 50.73,141.525 49.475,141.315C48.817,141.204 47.501,141.467 45.521,142.103C43.383,130.932 41.879,123.595 41.005,120.086C38.164,108.68 35.4,96.798 32.711,84.432C31.783,80.164 30.642,76.195 29.288,72.525C28.535,70.481 27.544,68.288 26.152,66.455C28.316,65.276 30.652,64.427 33.165,63.909C33.969,63.741 34.77,63.591 35.571,63.458C38.822,62.845 42.092,62.501 45.388,62.428C46.151,62.412 47.12,62.342 48.299,62.212C49.16,62.12 50.133,62.079 51.223,62.095C56.155,62.155 61.055,62.349 65.946,62.238C67.233,62.209 68.628,62.174 70.132,62.139C72.652,62.082 77.883,62.076 85.821,62.117C86.126,62.12 86.228,61.707 85.955,61.567C79.602,58.332 73.033,59.899 66.477,61.23C57.461,63.064 55.398,53.749 54.795,47.174C54.553,44.52 54.137,40.389 53.543,34.78C53.202,31.558 52.65,28.542 51.884,25.729C50.816,21.798 48.385,19.202 44.587,17.934C48.782,14.752 53.943,13.138 59.066,12.29C59.644,12.194 60.165,12.242 60.76,12.083C61.195,11.965 61.621,11.915 62.031,11.924C62.733,11.94 63.826,11.895 65.311,11.791C66.086,11.737 67.179,11.743 68.593,11.803C71.527,11.934 74.358,12.328 77.088,12.992C79.068,13.472 80.52,14.002 81.445,14.578C82.97,15.528 84.2,16.894 85.135,18.671C88.996,26.021 91.376,34.392 92.587,42.604C92.762,43.802 92.86,45.077 92.879,46.427C92.908,48.515 92.892,49.793 92.835,50.263C92.533,52.742 91.697,55.055 90.327,57.204C89.32,58.78 88.265,60.27 87.162,61.675C87.134,61.71 87.156,61.764 87.2,61.767C88.132,61.878 88.904,61.821 89.517,61.592C89.635,61.545 89.765,61.558 89.873,61.621L90.057,61.726C90.127,61.767 90.21,61.789 90.293,61.786C92.711,61.764 94.758,61.926 96.439,62.273C99.69,62.94 101.819,64.707 103.986,67.109C107.476,70.98 110.511,75.248 113.091,79.913C114.566,82.577 115.271,83.714 116.342,85.971C118.704,90.941 120.788,95.873 122.603,100.764C125.871,109.577 128.68,118.45 131.034,127.382C127.78,129.317 124.728,131.491 121.891,133.872Z" style="fill:white;fill-opacity:0.75;"/>
    <path d="M35.571,63.458C38.822,62.845 42.092,62.501 45.388,62.428C46.151,62.412 47.12,62.342 48.299,62.212C49.16,62.12 50.133,62.079 51.223,62.095C56.155,62.155 61.055,62.349 65.946,62.238C67.233,62.209 68.628,62.174 70.132,62.139C72.652,62.082 77.883,62.076 85.821,62.117C86.126,62.12 86.228,61.707 85.955,61.567C79.602,58.332 73.033,59.899 66.477,61.23C57.461,63.064 55.398,53.749 54.795,47.174C54.553,44.52 54.137,40.389 53.543,34.78C53.202,31.558 52.65,28.542 51.884,25.729C50.816,21.798 48.385,19.202 44.587,17.934C39.528,21.836 37.233,27.267 36.194,33.493C35.689,36.528 35.339,39.356 35.148,41.978C34.662,48.684 34.627,54.903 35.244,61.497C35.301,62.098 35.409,62.752 35.571,63.458Z" style="fill:white;fill-opacity:0.6;fill-rule:nonzero;"/>
    <path d="M132.359,126.615C132.217,124.87 132.084,123.079 131.898,121.135C131.533,117.28 131.263,112.942 131.088,108.118C130.97,104.825 130.897,102.989 130.869,102.607C130.713,100.488 130.649,98.651 130.672,97.1C130.719,93.906 130.564,91.268 130.831,88.386C130.993,86.628 131.05,84.989 130.999,83.473C130.955,82.167 131.371,80.759 131.317,79.341C131.295,78.779 131.349,78.175 131.485,77.527C131.498,77.463 131.558,76.856 131.666,75.703C132.057,71.524 132.753,66.785 133.853,62.358C133.891,62.203 134.005,61.701 134.199,60.852C134.857,57.947 136.793,56.187 139.265,54.68C139.929,55.529 140.482,56.416 140.924,57.34C143.279,62.26 144.836,67.929 145.888,72.801C148.484,84.839 151.236,96.68 154.144,108.328C154.636,110.296 155.356,113.631 156.305,118.332C151.028,119.133 145.761,120.557 140.599,122.644C137.731,123.803 134.982,125.132 132.359,126.615Z" style="fill:white;fill-opacity:0.35;"/>
    <path d="M55.968,243.299C50.56,237.825 47.74,230.483 45.108,223.081C45.035,222.884 44.647,221.988 43.939,220.389C43.395,219.159 42.855,218.682 41.73,217.472C38.377,213.855 36.671,207.966 38.168,203.263C38.625,201.823 38.994,200.689 39.273,199.856C39.318,199.726 39.254,199.583 39.13,199.522C36.327,198.185 33.718,196.599 31.3,194.771C31.049,194.584 30.48,194.053 29.59,193.186C29.523,193.119 29.447,193.059 29.361,193.011L28.265,192.378C28.049,192.254 27.887,192.051 27.811,191.813C27.073,189.471 26.425,187.081 25.869,184.643C24.308,177.792 23.018,170.501 22.004,162.769C21.347,157.745 20.924,154.303 20.736,152.444C20.428,149.381 20.247,147.731 20.19,147.496C20.005,146.727 20.142,145.834 19.948,144.992C19.831,144.483 19.77,143.86 19.764,143.126C19.751,142.039 19.408,141.258 19.456,140.257C19.487,139.608 19.43,138.935 19.284,138.232C19.058,137.149 19.243,136.151 19.046,135.172C18.88,134.368 18.801,133.608 18.811,132.893C18.826,131.479 18.439,130.43 18.499,129.064C18.563,127.646 18.086,126.293 18.175,124.952C18.245,123.842 18.191,122.638 18.01,121.338C17.787,119.762 17.854,118.198 17.873,116.689C17.889,115.128 17.546,112.936 17.549,111.051C17.552,107.19 17.371,103.252 17.749,99.401C17.876,98.107 17.911,96.652 17.857,95.041C17.806,93.661 18.172,92.635 18.172,91.144C18.172,90 18.391,89.041 18.509,87.753C18.944,82.971 19.704,78.274 20.787,73.669C21.172,72.026 21.664,70.761 22.262,69.871C23.206,68.47 24.502,67.329 26.152,66.455C27.544,68.288 28.535,70.481 29.288,72.525C30.642,76.195 31.783,80.164 32.711,84.432C35.4,96.798 38.164,108.68 41.005,120.086C41.879,123.595 43.383,130.932 45.521,142.103L44.206,143.104C42.868,144.372 41.914,146.13 41.342,148.376C41.126,149.228 41.021,149.797 41.025,150.083C41.028,150.15 41.018,150.213 41.002,150.274C40.548,152.082 40.885,153.216 41.037,154.656C41.26,156.766 42.092,159.023 43.058,160.77C45.115,164.479 48.038,167.981 50.148,171.229C52.939,175.523 53.943,180.55 54.324,185.409C54.429,186.753 54.537,187.739 54.652,188.371C54.706,188.686 54.728,189.007 54.715,189.324C54.668,190.523 54.763,191.695 55.008,192.842C55.03,192.944 55.039,193.046 55.039,193.148L55.039,195.483C55.039,195.62 55.055,195.757 55.084,195.893C55.332,197.015 55.306,198.042 55.449,199.09C56.384,205.92 57.668,212.727 62.285,218.129C63.594,219.664 65.409,220.847 67.726,221.676C68.663,222.01 69.76,221.997 70.719,222.143C71.113,222.204 71.517,222.197 71.911,222.124C72.709,221.975 73.786,221.962 74.809,221.708C78.207,220.872 81.49,218.832 83.975,216.397C84.534,215.848 85.173,215.285 85.894,214.704C85.951,214.656 86.034,214.646 86.104,214.675C88.443,215.685 90.663,216.757 92.763,217.892C92.506,219.812 92.846,221.827 93.864,223.645L94.784,225.29L88.384,228.272C87.592,227.031 85.958,226.606 84.655,227.332L55.968,243.299ZM138.858,254.672C136.883,254.685 134.897,254.683 132.899,254.667C132.49,254.663 129.823,254.825 124.907,255.153C120.264,255.461 116.291,256.287 110.844,257.117C109.036,257.39 106.322,257.682 102.699,257.991C100.484,258.178 98.523,258.229 96.811,258.143C91.999,257.904 87.299,257.425 82.616,256.453L95.464,246.751C96.817,245.998 97.305,244.287 96.551,242.933C96.382,242.548 96.209,242.163 96.033,241.78L101.9,237.97L102.337,238.751C103.377,240.609 104.963,241.971 106.783,242.748C106.725,244.078 106.61,245.417 106.437,246.763C106.421,246.887 106.475,247.014 106.576,247.087C109.475,249.175 113.199,250.024 116.689,250.325C121.664,250.76 126.783,250.898 132.043,250.74C134.242,252.179 136.518,253.491 138.858,254.672Z" style="fill:white;fill-opacity:0.25;"/>
    <path d="M175.984,118.173C174.991,113.155 173.977,108 172.942,102.706C172.036,98.075 171.327,93.706 170.816,89.597C170.419,86.419 170.291,83.403 170.431,80.546C170.625,76.557 171.887,72.712 176.228,71.676C177.706,71.323 179.209,71.155 180.734,71.171C183.992,71.203 187.233,71.549 190.456,72.207C194.241,72.976 199.22,74.142 203.075,75.277C207.699,76.64 211.519,79.256 214.535,83.123C219.277,89.199 222.664,96.382 225.321,103.414C225.677,104.358 226.179,105.41 226.831,106.567C229.821,111.89 232.684,117.378 235.427,123.035C234.045,122.301 232.834,122.031 231.801,122.228C229.866,122.6 228.169,123.48 226.71,124.863C225.658,125.86 224.466,127.039 223.138,128.4C222.877,128.667 222.578,128.892 222.258,129.073C219.261,130.748 216.401,132.229 213.674,133.519C213.253,133.719 212.532,133.91 211.804,134.062C201.626,125.471 189.16,119.951 175.984,118.173Z" style="fill:white;fill-opacity:0.5;"/>
    <path d="M121.333,134.346C120.479,133.967 119.612,133.845 118.732,133.98C116.937,134.257 115.344,135.029 113.956,136.3C112.472,137.657 111.159,138.941 110.012,140.152C109.754,140.422 109.459,140.651 109.135,140.829C106.487,142.281 104.142,143.517 102.095,144.544C99.264,145.964 96.134,146.361 92.851,146.603C90.2,146.797 88.773,146.908 88.573,146.94C87.954,147.038 86.523,146.988 84.283,146.781C78.896,146.285 74.555,145.732 71.26,145.122C70.494,144.553 69.674,144.359 68.8,144.537L65.501,144.07C63.702,134.234 61.824,124.408 59.867,114.585C58.866,109.557 58.135,105.175 57.68,101.435C57.293,98.244 57.162,95.228 57.286,92.384C57.35,90.941 57.591,89.555 58.014,88.224C59.508,83.511 63.776,82.885 68.072,82.939C71.005,82.977 74.155,83.333 77.514,84.003C81.34,84.769 86.04,85.923 89.876,87.019C95.339,88.583 99.502,91.971 102.693,96.604C106.586,102.258 109.659,108.394 112.062,114.862C112.459,115.936 113.037,117.156 113.797,118.519C116.597,123.547 119.294,128.665 121.891,133.872C121.704,134.029 121.518,134.187 121.333,134.346Z" style="fill:white;fill-opacity:0.5;"/>
    <path d="M211.804,134.062C212.532,133.91 213.253,133.719 213.674,133.519C216.401,132.229 219.261,130.748 222.258,129.073C222.578,128.892 222.877,128.667 223.138,128.4C224.466,127.039 225.658,125.86 226.71,124.863C228.169,123.48 229.866,122.6 231.801,122.228C232.834,122.031 234.045,122.301 235.427,123.035C236.781,124.163 237.737,125.371 238.294,126.658C238.856,127.961 239.266,129.814 239.52,132.213C239.835,134.015 240.115,135.827 240.359,137.648C240.661,139.901 240.988,141.699 241.341,143.037C242.209,146.333 243.264,149.282 244.513,151.891C245.317,153.569 246.715,156.038 248.708,159.302L250.522,163.052C249.912,164.323 249.162,165.664 248.269,167.075C245.921,170.791 242.625,173.104 238.379,174.016C238.118,174.072 237.866,174.117 237.624,174.149C237.029,171.967 236.323,169.794 235.502,167.638C235.476,167.451 235.441,167.263 235.392,167.075C235.214,166.383 235.29,165.661 235.163,164.73C234.976,163.306 234.626,161.171 234.118,158.32C232.554,149.552 229.386,141.448 224.612,134.009C223.827,132.785 222.868,131.781 222.006,131.015C221.921,130.942 221.533,130.704 220.837,130.3C220.732,130.24 220.605,130.335 220.634,130.453C220.7,130.723 220.815,130.967 220.974,131.187C221.762,132.251 223.033,133.824 223.891,135.331C225.868,138.804 227.479,142.303 228.725,145.834C230.338,150.404 231.569,155.354 232.42,160.684C230.476,156.871 228.217,153.302 225.688,149.999C221.84,143.908 217.136,138.564 211.804,134.062Z" style="fill:white;fill-opacity:0.85;"/>
    <path d="M252.388,173.187C252.397,173.279 252.47,173.349 252.563,173.355C253.465,173.412 254.797,173.085 255.88,173.06C261.194,172.939 264.982,172.945 267.242,173.082C268.767,173.174 270.83,173.422 273.432,173.832C277.176,174.42 280.7,175.472 284.005,176.988C289.382,179.457 293.005,183.385 294.871,188.771C295.481,190.532 295.9,192.15 296.126,193.621C296.504,196.074 296.813,198.671 296.863,201.124C297.032,209.447 295.786,217.44 293.123,225.102C292.239,227.647 291.07,230.028 289.618,232.243C284.695,233.657 281.317,234.553 279.483,234.935C268.885,237.14 258.064,238.418 247.281,238.904C243.623,239.069 239.685,239.082 235.468,238.942C232.274,238.837 229.243,238.538 226.37,238.049C225.432,237.889 224.527,237.658 223.656,237.355C231.127,228.462 236.259,217.833 238.609,206.517C242.795,207.075 246.937,207.454 251.034,207.655C256.894,207.941 263.651,207.261 269.396,204.966C274.297,203.012 278.139,199.78 280.923,195.27C281.898,193.694 282.137,191.883 280.576,190.634C278.832,189.239 276.658,188.129 274.062,187.31C271.456,186.486 269.009,185.841 266.724,185.371C260.063,184.001 254.206,182.616 249.153,181.217C249.064,181.192 248.965,181.217 248.902,181.287C248.902,181.287 252.213,176.534 252.388,173.187Z" style="fill:white;fill-opacity:0.65;"/>
    <path d="M92.763,217.892C90.663,216.757 88.443,215.685 86.104,214.675C86.034,214.646 85.951,214.656 85.894,214.704C85.173,215.285 84.534,215.848 83.975,216.397C81.49,218.832 78.207,220.872 74.809,221.708C73.786,221.962 72.709,221.975 71.911,222.124C71.517,222.197 71.113,222.204 70.719,222.143C69.76,221.997 68.663,222.01 67.726,221.676C65.409,220.847 63.594,219.664 62.285,218.129C57.668,212.727 56.384,205.92 55.449,199.09C55.306,198.042 55.332,197.015 55.084,195.893C55.055,195.757 55.039,195.62 55.039,195.483L55.039,193.148C55.039,193.046 55.03,192.944 55.008,192.842C54.763,191.695 54.668,190.523 54.715,189.324C54.728,189.007 54.706,188.686 54.652,188.371C54.537,187.739 54.429,186.753 54.324,185.409C53.943,180.55 52.939,175.523 50.148,171.229C48.038,167.981 45.115,164.479 43.058,160.77C42.092,159.023 41.26,156.766 41.037,154.656C40.885,153.216 40.548,152.082 41.002,150.274C41.018,150.213 41.028,150.15 41.025,150.083C41.021,149.797 41.126,149.228 41.342,148.376C41.914,146.13 42.868,144.372 44.206,143.104C46.027,143.857 47.647,144.722 49.074,145.697C55.322,149.978 59.59,156.197 63.343,163.039C65.717,167.365 69.07,173.628 73.402,181.824C75.499,185.797 79.688,190.008 83.892,191.47C86.612,192.413 89.495,192.486 92.543,191.682C92.733,191.632 92.851,191.444 92.813,191.25C91.303,183.696 89.069,176.371 86.104,169.281C85.341,167.457 83.838,164.45 81.594,160.265C79.608,156.563 77.326,153.267 74.746,150.372C73.281,148.729 71.301,146.784 68.8,144.537C69.674,144.359 70.494,144.553 71.26,145.122C73.259,146.835 74.879,148.389 76.128,149.787C80.927,155.168 84.461,161.524 87.572,168.693C90.124,174.575 92.272,181.408 94.017,189.197C94.112,189.62 94.173,190.087 94.201,190.599C94.214,190.882 94.497,191.069 94.764,190.977C95.589,190.685 96.298,190.326 97.023,189.881C97.165,193.794 97.64,197.727 98.466,201.642C97.967,202.044 97.484,202.472 97.017,202.926C96.906,203.037 96.915,203.193 97.046,203.393C96.756,203.282 96.464,203.361 96.162,203.632C95.93,202.65 95.775,201.299 95.698,199.58C95.625,197.959 95.19,195.188 94.392,191.269C94.386,191.231 94.348,191.206 94.309,191.218L92.94,191.613C92.889,191.628 92.857,191.682 92.867,191.733C93.861,196.548 94.246,201.432 94.02,206.387C93.82,206.206 93.633,206.241 93.451,206.492C93.401,206.562 93.42,206.663 93.493,206.711C93.744,206.879 93.75,206.905 93.515,206.787C92.393,207.471 91.519,208.246 90.893,209.12C90.115,210.21 89.218,211.217 88.208,212.149C88.135,212.218 88.176,212.342 88.278,212.349C89.434,212.441 90.563,212.574 91.659,212.752C92.617,212.908 93.661,213.074 94.768,213.248C93.676,214.589 92.989,216.204 92.763,217.892Z" style="fill:white;fill-opacity:0.35;"/>
    <path d="M110.295,146.337L110.171,146.13C109.901,145.685 109.516,145.141 109.017,144.496C108.226,143.473 107.743,142.974 107.517,142.259C107.479,142.138 107.603,142.03 107.717,142.084C108.429,142.408 109.189,142.996 109.999,143.845C110.365,144.229 110.738,144.689 111.117,145.225C110.839,145.593 110.565,145.963 110.295,146.337Z" style="fill:white;fill-opacity:0.35;"/>
    <path d="M132.043,250.74C126.783,250.898 121.664,250.76 116.689,250.325C113.199,250.024 109.475,249.175 106.576,247.087C106.475,247.014 106.421,246.887 106.437,246.763C106.61,245.417 106.725,244.078 106.783,242.748C109.339,243.839 112.355,243.776 114.966,242.315C116.421,241.5 117.571,240.351 118.375,239.017C122.437,243.539 127.041,247.467 132.043,250.74Z" style="fill:white;fill-opacity:0.35;"/>
    <path d="M248.902,181.287C248.902,181.287 252.213,176.534 252.388,173.187C252.28,172.157 252.474,170.114 252.235,168.636C251.93,166.751 251.358,164.889 250.522,163.052C249.912,164.323 249.162,165.664 248.269,167.075C245.921,170.791 242.625,173.104 238.379,174.016C238.118,174.072 237.866,174.117 237.624,174.149C238.671,177.995 239.374,181.872 239.746,185.741C239.849,185.738 239.945,185.731 240.035,185.721C241.268,185.578 242.139,185.428 242.644,185.273C245.015,184.548 247.1,183.22 248.902,181.287Z" style="fill:white;fill-opacity:0.5;"/>
    <path d="M239.52,132.213C239.835,134.015 240.115,135.827 240.359,137.648C240.661,139.901 240.988,141.699 241.341,143.037C242.209,146.333 243.264,149.282 244.513,151.891C245.317,153.569 246.715,156.038 248.708,159.302L249.137,155.851C248.943,155.886 248.809,155.784 248.739,155.539C246.483,147.655 243.505,139.828 239.803,132.057C239.759,131.965 239.628,131.968 239.587,132.061L239.52,132.213Z" style="fill:white;fill-opacity:0.5;fill-rule:nonzero;"/>
    <path d="M97.023,189.881C96.298,190.326 95.589,190.685 94.764,190.977C94.497,191.069 94.214,190.882 94.201,190.599C94.173,190.087 94.112,189.62 94.017,189.197C92.272,181.408 90.124,174.575 87.572,168.693C84.461,161.524 80.927,155.168 76.128,149.787C74.879,148.389 73.259,146.835 71.26,145.122C74.555,145.732 78.896,146.285 84.283,146.781C86.523,146.988 87.954,147.038 88.573,146.94C88.773,146.908 90.2,146.797 92.851,146.603C96.134,146.361 99.264,145.964 102.095,144.544C104.142,143.517 106.487,142.281 109.135,140.829C109.459,140.651 109.754,140.422 110.012,140.152C111.159,138.941 112.472,137.657 113.956,136.3C115.344,135.029 116.937,134.257 118.732,133.98C119.612,133.845 120.479,133.967 121.333,134.346C117.516,137.621 114.099,141.274 111.117,145.225C110.738,144.689 110.365,144.229 109.999,143.845C109.189,142.996 108.429,142.408 107.717,142.084C107.603,142.03 107.479,142.138 107.517,142.259C107.743,142.974 108.226,143.473 109.017,144.496C109.516,145.141 109.901,145.685 110.171,146.13C110.212,146.198 110.254,146.267 110.295,146.337C101.23,158.857 96.452,174.205 97.023,189.881Z" style="fill:white;fill-opacity:0.85;"/>
    <path d="M45.521,142.103L44.206,143.104C46.027,143.857 47.647,144.722 49.074,145.697C55.322,149.978 59.59,156.197 63.343,163.039C65.717,167.365 69.07,173.628 73.402,181.824C75.499,185.797 79.688,190.008 83.892,191.47C86.612,192.413 89.495,192.486 92.543,191.682C92.733,191.632 92.851,191.444 92.813,191.25C91.303,183.696 89.069,176.371 86.104,169.281C85.341,167.457 83.838,164.45 81.594,160.265C79.608,156.563 77.326,153.267 74.746,150.372C73.281,148.729 71.301,146.784 68.8,144.537L65.501,144.07C64.462,144.045 63.197,143.682 62.463,143.562C59.597,143.088 56.527,142.51 53.253,141.833C52.087,141.591 50.73,141.525 49.475,141.315C48.817,141.204 47.501,141.467 45.521,142.103Z" style="fill:white;fill-opacity:0.85;fill-rule:nonzero;"/>
    <path d="M239.746,185.741C239.849,185.738 239.945,185.731 240.035,185.721C241.268,185.578 242.139,185.428 242.644,185.273C245.015,184.548 247.1,183.22 248.902,181.287C248.965,181.217 249.064,181.192 249.153,181.217C254.206,182.616 260.063,184.001 266.724,185.371C269.009,185.841 271.456,186.486 274.062,187.31C276.658,188.129 278.832,189.239 280.576,190.634C282.137,191.883 281.898,193.694 280.923,195.27C278.139,199.78 274.297,203.012 269.396,204.966C263.651,207.261 256.894,207.941 251.034,207.655C246.937,207.454 242.795,207.075 238.609,206.517C240.011,199.762 240.421,192.763 239.746,185.741Z" style="fill:white;fill-opacity:0.75;"/>
    <path d="M98.466,201.642C99.05,204.412 99.809,207.174 100.749,209.912C99.613,210.061 98.487,210.423 97.428,211.016C96.377,211.605 95.485,212.367 94.768,213.248C93.661,213.074 92.617,212.908 91.659,212.752C90.563,212.574 89.434,212.441 88.278,212.349C88.176,212.342 88.135,212.218 88.208,212.149C89.218,211.217 90.115,210.21 90.893,209.12C91.519,208.246 92.393,207.471 93.515,206.787L93.593,206.825C93.745,206.896 93.712,206.858 93.493,206.711C93.42,206.663 93.401,206.562 93.451,206.492C93.633,206.241 93.82,206.206 94.02,206.387C94.246,206.635 94.611,206.756 95.11,206.746C96.223,205.748 95.902,204.849 96.162,203.632C96.464,203.361 96.756,203.282 97.046,203.393C96.915,203.193 96.906,203.037 97.017,202.926C97.484,202.472 97.967,202.044 98.466,201.642Z" style="fill:white;fill-opacity:0.5;"/>
    <path d="M94.02,206.387C94.246,206.635 94.611,206.756 95.11,206.746C96.223,205.748 95.902,204.849 96.162,203.632C95.93,202.65 95.775,201.299 95.698,199.58C95.625,197.959 95.19,195.188 94.392,191.269C94.386,191.231 94.348,191.206 94.309,191.218L92.94,191.613C92.889,191.628 92.857,191.682 92.867,191.733C93.861,196.548 94.246,201.432 94.02,206.387Z" style="fill:white;fill-opacity:0.25;fill-rule:nonzero;"/>
    <path d="M223.656,237.355C224.527,237.658 225.432,237.889 226.37,238.049C229.243,238.538 232.274,238.837 235.468,238.942C239.685,239.082 243.623,239.069 247.281,238.904C258.064,238.418 268.885,237.14 279.483,234.935C281.317,234.553 284.695,233.657 289.618,232.243C287.565,235.824 284.87,238.303 281.53,239.673C277.004,241.529 271.672,242.209 266.962,242.476C261.439,242.787 256.001,242.937 250.649,242.921C247.255,242.911 244.551,242.965 242.536,243.086C238.23,243.343 235.529,243.556 234.439,243.725C227.819,244.758 223.325,245.543 217.046,246.137C216.212,246.217 215.394,246.279 214.593,246.323C217.909,243.597 220.937,240.591 223.656,237.355Z" style="fill:white;fill-opacity:0.35;"/>
    <path d="M232.42,160.684C231.569,155.354 230.338,150.404 228.725,145.834C227.479,142.303 225.868,138.804 223.891,135.331C223.033,133.824 221.762,132.251 220.974,131.187C220.815,130.967 220.7,130.723 220.634,130.453C220.605,130.335 220.732,130.24 220.837,130.3C221.533,130.704 221.921,130.942 222.006,131.015C222.868,131.781 223.827,132.785 224.612,134.009C229.386,141.448 232.554,149.552 234.118,158.32C234.626,161.171 234.976,163.306 235.163,164.73C235.29,165.661 235.214,166.383 235.392,167.075C235.441,167.263 235.476,167.451 235.502,167.638C235.329,167.183 235.151,166.729 234.968,166.276C234.193,164.358 233.342,162.494 232.42,160.684Z" style="fill:white;fill-opacity:0.35;"/>
    <path d="M115.353,162.305L115.313,162.275" style="fill:none;"/>
    <path d="M224.912,203.851C224.272,203.435 223.575,203.004 222.816,202.559C220.56,201.234 215.177,198.494 210.758,196.51C211.977,195.305 213.207,194.006 214.445,192.609C217.692,188.947 220.167,186.127 222.061,183.932C222.264,184.671 222.638,185.195 223.265,185.606C224.139,186.18 226.223,186.208 226.642,183.529C226.779,182.653 226.833,181.565 226.831,180.312C227.765,188.315 227.064,196.308 224.912,203.851Z" style="fill:white;fill-opacity:0.75;"/>
    <path d="M118.876,238.064C138.099,256.158 166.825,262.518 192.885,251.983C228.577,237.554 245.84,196.862 231.411,161.17C229.812,157.214 227.89,153.484 225.688,149.999C208.024,122.04 172.335,109.814 140.599,122.644C106.083,136.597 88.802,175.111 100.749,209.912C101.124,211.006 101.529,212.097 101.963,213.183L102.073,213.457C104.482,219.417 107.624,224.863 111.352,229.733C112.991,231.874 114.742,233.903 116.595,235.815C117.34,236.584 118.1,237.334 118.876,238.064ZM118.966,224.424C115.622,220.117 112.81,215.284 110.667,209.982C98.156,179.033 113.124,143.75 144.073,131.238C171.724,120.06 202.835,130.818 218.075,155.309C219.892,158.23 221.484,161.346 222.817,164.644C235.328,195.593 220.36,230.877 189.411,243.388C163.764,253.756 135.141,245.253 118.966,224.424Z" style="fill:white;fill-opacity:0.95;"/>
    <path d="M118.375,239.017C137.442,260.244 168.477,268.394 196.442,257.089C232.134,242.66 249.397,201.968 234.968,166.276C232.559,160.316 229.417,154.87 225.688,149.999C227.89,153.484 229.812,157.214 231.411,161.17C245.84,196.862 228.577,237.554 192.885,251.983C166.825,262.518 138.099,256.158 118.876,238.064C118.1,237.334 117.34,236.584 116.595,235.815C114.742,233.903 112.991,231.874 111.352,229.733C112.838,232.085 114.452,234.326 116.18,236.449C116.892,237.325 117.625,238.181 118.375,239.017Z" style="fill:white;fill-opacity:0.37;"/>
    <path d="M218.075,155.309C202.835,130.818 171.724,120.06 144.073,131.238C113.124,143.75 98.156,179.033 110.667,209.982C112.81,215.284 115.622,220.117 118.966,224.424C117.149,221.503 115.557,218.386 114.224,215.088C101.712,184.14 116.681,148.856 147.63,136.344C173.276,125.977 201.9,134.48 218.075,155.309Z" style="fill:white;fill-opacity:0.37;"/>
    <path d="M101.9,237.97L102.337,238.751C104.838,243.219 110.497,244.816 114.966,242.315C116.421,241.5 117.571,240.351 118.375,239.017C117.625,238.181 116.892,237.325 116.18,236.449C115.411,237.524 114.399,238.451 113.17,239.139C109.53,241.177 105.099,240.494 102.229,237.755L101.9,237.97Z" style="fill:white;fill-opacity:0.3;"/>
    <path d="M100.818,236.038C101.226,236.678 101.701,237.251 102.229,237.755C105.099,240.494 109.53,241.177 113.17,239.139C114.399,238.451 115.411,237.524 116.18,236.449C114.452,234.326 112.838,232.085 111.352,229.733C107.624,224.863 104.482,219.417 102.073,213.457L101.963,213.183C101.529,212.097 101.124,211.006 100.749,209.912C99.613,210.061 98.487,210.423 97.428,211.016C92.959,213.518 91.362,219.177 93.864,223.645L100.541,235.575C100.63,235.733 100.722,235.887 100.818,236.038Z" style="fill:white;fill-opacity:0.75;"/>
    <path d="M91.923,233.998C90.825,232.128 89.666,230.27 88.472,228.419C88.444,228.369 88.415,228.319 88.384,228.272C87.592,227.031 85.958,226.606 84.655,227.332L10.517,268.597C0.447,275.596 1.747,287.298 7.947,294.269C14.018,293.456 21.731,291.715 30.939,288.076C32.146,287.599 48.312,281.519 60.206,271.081C82.439,251.571 88.852,240.24 91.923,233.998Z" style="fill:white;fill-opacity:0.45;"/>
    <path d="M7.947,294.269C12.759,299.68 20.522,302.241 28.211,297.541L95.464,246.751C96.817,245.998 97.305,244.287 96.551,242.933C96.382,242.548 96.209,242.163 96.033,241.78C94.823,239.155 93.431,236.566 91.923,233.998C88.852,240.24 82.439,251.571 60.206,271.081C48.312,281.519 32.146,287.599 30.939,288.076C21.731,291.715 14.018,293.456 7.947,294.269Z" style="fill:white;fill-opacity:0.35;"/>
    <path d="M96.033,241.78L102.229,237.755C101.701,237.251 101.226,236.678 100.818,236.038C100.722,235.887 100.63,235.733 100.541,235.575L94.784,225.29L88.384,228.272C88.415,228.319 88.444,228.369 88.472,228.419C91.306,232.813 93.942,237.245 96.033,241.78Z" style="fill:white;fill-opacity:0.4;"/>
    <path d="M121.939,203.563C124.268,199.75 125.407,196.045 125.691,192.406C189.49,192.478 195.525,203.587 193.973,236.889C193.895,238.558 193.771,240.102 193.569,241.525C192.217,242.192 190.831,242.814 189.411,243.388C175.424,249.042 160.552,249.084 147.297,244.575C154.31,243.094 162.241,240.645 168.208,236.333C177.551,229.581 175.839,224.21 175.785,223.716C174.557,212.37 167.131,211.378 121.939,203.563Z" style="fill:white;fill-opacity:0.75;"/>
    <path d="M164.563,162.798C163.808,157.657 162.405,151.054 159.833,141.159C158.997,137.944 158.301,135.351 157.719,133.25C167.7,131.118 177.823,131.611 187.232,134.364C188.634,140.959 191.278,147.867 202.915,157.336C208.46,161.848 217.54,163.918 221.868,162.423C222.153,163.055 222.428,163.693 222.693,164.339C222.7,176.272 221.362,181.384 222.061,183.932C220.167,186.127 217.692,188.947 214.445,192.609C205.754,202.411 197.507,207.384 190.344,209.005C188.262,205.265 185.158,202.247 180.635,199.864L198.991,171.53C199.155,171.276 200.547,169.105 198.163,167.909L197.794,167.729C197.586,167.503 197.305,167.291 196.929,167.103L172.206,154.992C169.951,153.913 168.693,156 168.53,156.271L164.563,162.798Z" style="fill:white;fill-opacity:0.5;"/>
    <circle cx="183.898" cy="162.613" r="0.799" style="fill:white;fill-opacity:0.5;"/>
    <path d="M179.307,199.202L197.757,170.723C197.895,170.509 198.905,168.934 197.794,167.729L198.163,167.909C200.547,169.105 199.155,171.276 198.991,171.53L180.635,199.864C180.205,199.638 179.763,199.417 179.307,199.202Z" style="fill:white;fill-opacity:0.4;"/>
    <path d="M222.693,164.339C222.734,164.441 222.776,164.542 222.817,164.644C224.897,169.789 226.217,175.053 226.831,180.312C226.833,181.565 226.779,182.653 226.642,183.529C226.223,186.208 224.139,186.18 223.265,185.606C220.474,183.775 222.702,179.732 222.693,164.339Z" style="fill:white;fill-opacity:0.23;"/>
    <path d="M187.232,134.364C199.286,137.89 210.168,145.127 218.075,155.309C219.479,157.566 220.748,159.94 221.868,162.423C217.54,163.918 208.46,161.848 202.915,157.336C191.278,147.867 188.634,140.959 187.232,134.364Z" style="fill:white;fill-opacity:0.75;"/>
    <path d="M146.25,192.928C143.945,192.797 141.532,192.692 139.008,192.611C136.214,184.815 141.513,175.661 141.949,174.632C143.508,170.95 134.666,171.248 128.103,164.318C125.126,161.174 124.578,156.632 125.522,151.749C131.449,145.209 138.904,139.872 147.63,136.344C150.954,135 154.329,133.974 157.719,133.25C158.301,135.351 158.997,137.944 159.833,141.159C162.405,151.054 163.808,157.657 164.563,162.798L146.25,192.928Z" style="fill:white;fill-opacity:0.23;"/>
    <path d="M148.711,193.081L168.897,159.867C169.039,159.632 170.13,157.821 172.087,158.757L193.537,169.265C195.606,170.302 194.398,172.185 194.256,172.406L177.429,198.379C170.702,195.636 161.422,193.935 148.711,193.081Z" style="fill:white;fill-opacity:0.15;"/>
    <path d="M146.25,192.928L168.53,156.271C168.693,156 169.951,153.913 172.206,154.992L196.929,167.103C199.313,168.298 197.921,170.469 197.757,170.723L179.307,199.202C178.704,198.918 178.079,198.644 177.429,198.379L194.256,172.406C194.398,172.185 195.606,170.302 193.537,169.265L172.087,158.757C170.13,157.821 169.039,159.632 168.897,159.867L148.711,193.081C147.904,193.027 147.084,192.976 146.25,192.928ZM183.898,161.814C183.457,161.814 183.099,162.172 183.099,162.613C183.099,163.054 183.457,163.412 183.898,163.412C184.339,163.412 184.698,163.054 184.698,162.613C184.698,162.172 184.339,161.814 183.898,161.814Z" style="fill:white;fill-opacity:0.95;"/>
    <path d="M147.297,244.575C136.246,240.815 126.32,233.893 118.966,224.424C117.149,221.503 115.557,218.386 114.224,215.088C113.911,214.316 113.616,213.541 113.338,212.763C114.817,211.997 116.469,210.597 118.31,208.476C119.751,206.817 120.952,205.18 121.939,203.563C167.131,211.378 174.557,212.37 175.785,223.716C175.839,224.21 177.551,229.581 168.208,236.333C162.241,240.645 154.31,243.094 147.297,244.575Z" style="fill:white;fill-opacity:0.65;"/>
    <path d="M122.453,176.667C126.829,186.889 128.14,197.153 118.31,208.476C116.469,210.597 114.817,211.997 113.338,212.763C110.757,205.55 109.634,198.141 109.826,190.872C114.581,187.204 119.341,181.174 122.453,176.667Z" style="fill:white;fill-opacity:0.5;"/>
    <path d="M109.826,190.872C110.068,181.742 112.385,172.834 116.494,164.815C118.627,168.798 120.767,172.729 122.453,176.667C119.341,181.174 114.581,187.204 109.826,190.872Z" style="fill:white;fill-opacity:0.75;"/>
</svg>
