<?xml version="1.0" encoding="utf-8"?>
<!-- Generator: Adobe Illustrator 24.1.2, SVG Export Plug-In . SVG Version: 6.00 Build 0)  -->
<svg version="1.1" id="Layer_1" xmlns="http://www.w3.org/2000/svg" xmlns:xlink="http://www.w3.org/1999/xlink" x="0px" y="0px"
	 viewBox="0 0 300 300" style="enable-background:new 0 0 300 300;" xml:space="preserve">
<style type="text/css">
	.st0{opacity:0.6;fill:#FFFFFF;enable-background:new    ;}
	.st1{opacity:0.5;fill:#FFFFFF;enable-background:new    ;}
	.st2{opacity:0.4;fill:#FFFFFF;enable-background:new    ;}
	.st3{opacity:0.1;fill:#FFFFFF;enable-background:new    ;}
	.st4{fill:#FFFFFF;}
	.st5{opacity:0.8;fill:#FFFFFF;enable-background:new    ;}
</style>
<polygon class="st0" points="222.69,9.03 126.35,4.34 100.54,20.56 199.61,23.31 "/>
<polygon class="st0" points="198.89,49.2 99.82,46.45 75.55,59.62 174.61,62.37 "/>
<path class="st1" d="M150.18,172.23c-1.866-1.642-3.826-3.175-5.87-4.59c-0.45-0.31-0.9-0.62-1.37-0.92
	c-5.771-3.711-12.059-6.548-18.66-8.42c-3.428-0.947-6.936-1.574-10.48-1.87c-7.074-0.48-14.179,0.265-21,2.2
	c-6.945,2.097-13.545,5.2-19.59,9.21c-4.228,2.783-8.24,5.882-12,9.27l78.8,2.21l10.69-6.65L150.18,172.23z"/>
<path class="st0" d="M131.25,139.8l15.86-9.91l0.1-1.7l-97.63-2.72L26.3,139.74l53.35,1.48
	C96.124,134.577,114.436,134.073,131.25,139.8z"/>
<polygon class="st0" points="173.89,88.26 74.83,85.51 50.33,98.67 148.75,101.41 "/>
<path class="st0" d="M25.55,166.54L0.69,179.87l38.56,1.07c0.09-0.22,0.2-0.44,0.29-0.66c2.01-4.623,4.486-9.029,7.39-13.15
	L25.55,166.54z"/>
<path class="st1" d="M70.59,240.84v0.09C70.59,240.93,70.59,240.87,70.59,240.84z"/>
<path class="st2" d="M71.46,245l46.17,12.56c0.77,0.21,1.594,0.06,2.24-0.41l21.23-15.52c0.43-0.308,0.591-0.871,0.39-1.36v-2
	c-0.077,0.204-0.213,0.382-0.39,0.51l-21.78,16.35c-0.288,0.209-0.653,0.283-1,0.2l-46.86-13.08c-0.468-0.124-0.812-0.52-0.87-1
	v2.47c-0.01,0.106-0.01,0.214,0,0.32l0,0l0,0C70.658,244.507,71.002,244.887,71.46,245z"/>
<path class="st1" d="M141.49,237.37L141.49,237.37L141.49,237.37z"/>
<path class="st2" d="M198.89,49.2l-24.28,13.17l-0.72,25.89l-25.14,13.15l-1.54,26.78l-0.1,1.7l-15.86,9.91
	c12.839,4.349,24.225,12.164,32.9,22.58c0.8,1,1.57,1.93,2.33,2.93c0.11,0.14,0.21,0.29,0.32,0.44l50.83-32.93L222.69,9
	l-23.08,14.31L198.89,49.2z"/>
<path class="st2" d="M150.67,172.67l-9.4,5.84l-1.29,0.81v0.11L139,215l26.83-16.28C163.452,188.733,158.179,179.671,150.67,172.67z
	"/>
<path class="st2" d="M195.41,239.49l1.92-7.18c0.266-0.994,0.755-1.913,1.43-2.69l-6.76-1.08c0,0.12,0,0.24,0,0.37
	c-0.472,3.795-1.402,7.519-2.77,11.09c-0.25,0.91-0.54,1.82-0.87,2.71l6.6,1.75c0.02-0.774,0.117-1.545,0.29-2.3
	C195.123,241.268,195.178,240.36,195.41,239.49z"/>
<path class="st1" d="M142.94,166.74c0.47,0.3,0.92,0.61,1.37,0.92C143.85,167.34,143.39,167,142.94,166.74z"/>
<path class="st3" d="M142.94,166.74c0.47,0.3,0.92,0.61,1.37,0.92C143.85,167.34,143.39,167,142.94,166.74z"/>
<path class="st3" d="M183,222.93c0.07-1.33,0.12-2.66,0.12-4c0.043-6.489-0.775-12.955-2.43-19.23
	c0.836,6.09,0.913,12.261,0.23,18.37c-0.15,1.29-0.32,2.57-0.53,3.85c-1.321,7.993-3.942,15.715-7.76,22.86
	c-0.6,1.12-1.23,2.23-1.89,3.32c-3.365,5.58-7.458,10.689-12.17,15.19l0,0c-29.509,28.275-76.353,27.275-104.628-2.235
	c-8.685-9.064-14.921-20.188-18.122-32.325c5.584,40.486,42.931,68.779,83.417,63.195c24.821-3.423,46.224-19.175,56.873-41.855
	c0.53-1.14,1-2.3,1.51-3.46C180.702,239.066,182.519,231.065,183,222.93z"/>
<path class="st4" d="M177.62,246.61L177.62,246.61c5,1.82,8.18-0.46,10.31-4c0.497-0.832,0.929-1.701,1.29-2.6
	c1.347-3.571,2.257-7.291,2.71-11.08c0-0.13,0-0.25,0-0.37c0.281-3.078-1.212-6.049-3.85-7.66l-5-1.95c0,1.34-0.05,2.67-0.12,4
	C182.49,231.076,180.686,239.07,177.62,246.61z"/>
<path class="st4" d="M151.92,268.94c2.326-1.751,4.546-3.638,6.65-5.65l0,0c4.712-4.501,8.805-9.61,12.17-15.19
	c0.66-1.09,1.29-2.2,1.89-3.32c3.818-7.145,6.439-14.867,7.76-22.86c0.21-1.28,0.38-2.56,0.53-3.85
	c2.096-18.599-2.951-37.301-14.12-52.32c-0.11-0.15-0.21-0.3-0.32-0.44c-0.76-1-1.53-2-2.33-2.93
	c-20.592-24.64-54.726-33.188-84.5-21.16c-13.155,5.339-24.508,14.329-32.72,25.91c-3.004,4.342-5.576,8.967-7.68,13.81
	c-6.386,15.115-7.592,31.918-3.43,47.79c10.426,39.517,50.913,63.099,90.43,52.673C135.534,278.954,144.253,274.72,151.92,268.94
	L151.92,268.94z M51,187.44c0.987-2.403,2.126-4.742,3.41-7c0.67-1.17,1.37-2.31,2.11-3.44c2.222-3.37,4.768-6.514,7.6-9.39
	c2.143-2.181,4.443-4.203,6.88-6.05c25.609-19.291,61.688-15.943,83.31,7.73l0.63,0.7c1.08,1.22,2.11,2.48,3.11,3.8
	c20.676,27.405,15.221,66.383-12.184,87.059s-66.383,15.221-87.059-12.184C45.541,231.081,42.571,207.79,51,187.44z"/>
<path class="st4" d="M39.25,180.94c2.104-4.843,4.676-9.468,7.68-13.81c-2.904,4.121-5.38,8.527-7.39,13.15
	C39.45,180.5,39.34,180.72,39.25,180.94z"/>
<path class="st3" d="M273.31,271.55l-73.05-23.68c-1.717-0.462-3.188-1.574-4.1-3.1c-0.477-0.803-0.786-1.694-0.91-2.62
	c-0.173,0.755-0.27,1.526-0.29,2.3c-0.05,2.25,0.71,4.18,2.95,4.92l73.56,27.93c3.57,1.18,24.43,9.64,28.25-14.71
	C297.07,275.86,276.86,272.49,273.31,271.55z"/>
<path class="st2" d="M187.94,242.59c-2.13,3.56-5.36,5.84-10.31,4l0,0c-0.47,1.16-1,2.32-1.51,3.46l0.3,0.11
	c6.44,2.37,10-2.19,12-7.48c0.33-0.89,0.62-1.8,0.87-2.71C188.91,240.878,188.459,241.754,187.94,242.59z"/>
<path class="st2" d="M281.82,245l-76.11-17.55c-2.555-0.69-5.279,0.15-7,2.16c-0.675,0.777-1.164,1.696-1.43,2.69l-1.92,7.18
	c-0.231,0.867-0.285,1.772-0.16,2.66c0.124,0.926,0.433,1.817,0.91,2.62c0.912,1.526,2.383,2.638,4.1,3.1l73.05,23.68
	c3.55,0.94,23.76,4.31,26.41-9c0.07-0.33,0.12-0.66,0.17-1C301.49,248.63,285.45,246,281.82,245z"/>
<path class="st4" d="M71.46,242.25l46.81,13.09c0.347,0.083,0.712,0.009,1-0.2l21.78-16.35c0.177-0.128,0.313-0.306,0.39-0.51
	c0.115-0.286,0.115-0.604,0-0.89l0,0c-0.139-0.35-0.436-0.613-0.8-0.71L94,224.25c-0.344-0.091-0.71-0.025-1,0.18l-21.92,15.68
	c-0.242,0.176-0.41,0.437-0.47,0.73c0,0,0,0.06,0,0.09c-0.01,0.096-0.01,0.194,0,0.29C70.653,241.706,70.991,242.115,71.46,242.25z
	 M126.23,247.44l-0.89-0.36l4.54-3.47l0.91,0.26L126.23,247.44z M74.3,240l0.89-0.62l18.36-12.82c0.136-0.097,0.308-0.13,0.47-0.09
	l40.18,10.42c0.27,0.08,0.446,0.34,0.42,0.62c-0.017,0.157-0.101,0.299-0.23,0.39l-19.12,14c-0.141,0.104-0.322,0.137-0.49,0.09
	l-40.3-11c-0.3-0.096-0.465-0.417-0.369-0.717C74.145,240.166,74.211,240.07,74.3,240z"/>
<path class="st3" d="M74.48,241l40.3,11c0.168,0.047,0.349,0.014,0.49-0.09l19.12-14c0.129-0.091,0.213-0.233,0.23-0.39
	c0.026-0.28-0.15-0.54-0.42-0.62L94,226.47c-0.162-0.04-0.334-0.007-0.47,0.09l-18.34,12.82L74.3,240
	c-0.251,0.19-0.3,0.548-0.11,0.799C74.263,240.895,74.365,240.965,74.48,241z"/>
<polygon class="st2" points="125.34,247.08 126.23,247.44 130.79,243.87 129.88,243.61 "/>
<rect x="112.076" y="24.476" transform="matrix(0.03 -0.9996 0.9996 0.03 47.2674 196.8031)" class="st5" width="25.912" height="99.145"/>
<polygon class="st5" points="148.75,101.41 50.33,98.67 49.58,125.47 147.21,128.19 "/>
<path class="st5" d="M62.84,150.75c5.165-3.895,10.816-7.098,16.81-9.53l-53.35-1.48l-0.75,26.8l21.38,0.59
	C51.357,160.883,56.724,155.357,62.84,150.75z"/>
<path class="st5" d="M140,179.43v-0.11l-78.8-2.19c-1.26,1.12-2.45,2.24-3.58,3.34c-2.54,2.48-4.75,4.86-6.59,7
	c-3.269,7.922-4.872,16.432-4.71,25L139,215L140,179.43z"/>
<path class="st5" d="M0.69,179.87L0,204.7l33.51,0.93c0.49-8.497,2.431-16.848,5.74-24.69L0.69,179.87z"/>
<rect x="136.761" y="-14.675" transform="matrix(0.0277 -0.9996 0.9996 0.0277 110.6948 183.561)" class="st5" width="25.9" height="99.1"/>
</svg>
