<?xml version="1.0" encoding="UTF-8" standalone="no"?>
<!DOCTYPE svg PUBLIC "-//W3C//DTD SVG 1.1//EN" "http://www.w3.org/Graphics/SVG/1.1/DTD/svg11.dtd">
<svg width="100%" height="100%" viewBox="0 0 300 300" version="1.1" xmlns="http://www.w3.org/2000/svg" xmlns:xlink="http://www.w3.org/1999/xlink" xml:space="preserve" xmlns:serif="http://www.serif.com/" style="fill-rule:evenodd;clip-rule:evenodd;stroke-linejoin:round;stroke-miterlimit:2;">
    <path d="M7.686,146.56C7.524,146.205 7.445,145.941 7.445,145.766C7.511,108.691 7.565,71.77 7.61,35.006C7.61,34.593 7.616,33.996 7.632,33.214C7.635,33.119 7.661,33.024 7.712,32.938C7.978,32.484 8.318,32.239 8.728,32.211C48.595,29.302 88.488,26.389 128.4,23.477L118.888,18.831C118.799,18.786 118.704,18.761 118.602,18.758C117.701,18.71 8.661,26.545 7.124,26.926C6.87,26.99 6.61,27.015 6.349,26.999C5.641,26.961 4.094,26.917 3.243,27.158C1.798,27.564 0.15,26.745 0.153,29.064C0.181,100.09 0.172,137.223 0.124,140.459C0.121,140.682 0.086,140.999 0.013,141.415C-0.05,141.781 0.121,142.149 0.445,142.336L7.686,146.56Z" style="fill:white;fill-opacity:0.25;fill-rule:nonzero;"/>
    <path d="M26.011,145.541C18.901,146.079 12.928,146.504 8.093,146.814C7.978,146.824 7.842,146.738 7.686,146.56C7.524,146.205 7.445,145.941 7.445,145.766C7.511,108.691 7.565,71.77 7.61,35.006C7.61,34.593 7.616,33.996 7.632,33.214C7.635,33.119 7.661,33.024 7.712,32.938C7.978,32.484 8.318,32.239 8.728,32.211L128.4,23.477C128.845,23.36 129.191,23.547 129.439,24.046C129.467,24.1 129.48,24.16 129.48,24.217L129.413,71.418L126.171,71.894L125.558,69.906C124.907,67.883 124.256,65.898 123.611,63.948C123.071,62.312 122.665,60.794 122.395,59.387C121.677,55.649 120.873,52.029 119.981,48.526C119.32,45.94 118.86,43.571 118.164,40.456C117.932,39.411 117.402,37.696 116.201,37.273C115.16,36.622 114.293,36.899 113.156,37.149C112.81,37.226 112.508,37.321 112.251,37.432C110.767,38.083 109.846,38.477 109.488,38.614C109.389,38.652 109.284,38.677 109.18,38.69C106.982,38.953 105.152,39.08 103.695,39.071C102.265,39.061 100.855,39.462 99.525,39.388C98.959,39.36 98.391,39.417 97.816,39.56C96.733,39.83 95.628,39.614 94.367,39.868C93.217,40.103 92.182,39.909 91.077,40.214C90.762,40.3 90.238,40.344 89.508,40.341C88.908,40.341 88.53,40.44 87.955,40.573C87.167,40.751 86.291,40.611 85.697,40.767C84.617,41.056 83.607,40.872 82.584,41.157C81.771,41.383 80.822,41.215 79.955,41.456C79.145,41.682 78.446,41.532 77.633,41.732C76.715,41.958 75.759,41.821 74.972,42.082C74.216,42.329 73.472,42.177 72.685,42.371C71.802,42.59 70.875,42.456 70.112,42.714C69.36,42.971 68.588,42.79 67.873,43.012C67.038,43.273 66.088,43.136 65.225,43.397C64.748,43.539 64.243,43.492 63.716,43.568C58.536,44.324 53.648,45.042 49.059,45.724C48.097,45.867 47.157,46.026 46.239,46.201C44.222,45.861 42.428,45.563 40.487,46.02C38.785,46.423 38.509,47.503 38.636,49.269C38.867,52.556 39.239,55.316 39.75,57.555C40.154,59.327 40.459,60.947 40.659,62.417C41.329,67.273 42.224,72.539 43.346,78.214C43.428,78.63 43.508,79.231 43.581,80.009C41.519,80.234 39.455,80.457 37.391,80.672C33.227,81.108 29.336,81.657 25.713,82.324C22.902,82.842 20.164,83.572 17.493,84.522C14.67,85.525 11.672,87.097 10.468,89.718C9.401,92.042 9.719,94.901 9.674,97.397C9.658,98.22 9.731,99.283 9.887,100.589C10.271,103.73 10.732,106.775 11.275,109.723L11.227,131.684C11.227,132.107 11.481,132.485 11.869,132.65L27.883,139.333C27.154,141.385 26.53,143.457 26.011,145.541ZM38.485,143.758L40.125,144.442C39.509,144.491 38.898,144.54 38.293,144.588C38.355,144.311 38.419,144.034 38.485,143.758Z" style="fill:white;fill-opacity:0.45;"/>
    <path d="M42.937,115.065C59.899,94.091 87.994,85.391 113.745,92.908C118.319,94.243 122.819,96.09 127.17,98.471C153.326,112.785 166.145,142.05 160.823,169.855C159.762,175.397 157.981,180.882 155.441,186.178C154.96,187.18 154.452,188.175 153.917,189.163L153.782,189.411C150.817,194.828 147.212,199.673 143.111,203.904C141.309,205.762 139.411,207.502 137.43,209.12C136.634,209.77 135.824,210.401 135.002,211.011C114.643,226.125 86.527,228.985 62.842,216.023C30.402,198.272 18.478,157.523 36.23,125.083C38.197,121.488 40.447,118.144 42.937,115.065ZM46.635,125.062C45.718,126.444 44.852,127.876 44.041,129.358C41.499,134.002 39.659,138.843 38.485,143.758C32.547,168.61 43.632,195.361 67.116,208.212C90.425,220.968 118.683,216.053 136.44,197.987C140.111,194.253 143.333,189.956 145.97,185.137C161.363,157.009 151.023,121.675 122.895,106.282C100.655,94.112 73.91,98.028 56.079,114.105C53.762,116.195 51.595,118.49 49.608,120.981C48.647,122.186 47.729,123.436 46.856,124.732L46.635,125.062Z" style="fill:white;"/>
    <path d="M135.374,211.976C114.813,230.097 84.295,234.406 58.878,220.498C29.627,204.49 17.056,169.785 27.883,139.333C29.063,136.014 30.521,132.746 32.266,129.557C33.868,126.63 35.658,123.869 37.612,121.282C39.273,119.083 41.053,117.009 42.937,115.065C40.447,118.144 38.197,121.488 36.23,125.083C18.478,157.523 30.402,198.272 62.842,216.023C86.527,228.985 114.643,226.125 135.002,211.011C135.824,210.401 136.634,209.77 137.43,209.12C139.411,207.502 141.309,205.762 143.111,203.904C141.43,205.981 139.641,207.939 137.755,209.772C136.977,210.528 136.183,211.262 135.374,211.976Z" style="fill:white;fill-opacity:0.75;"/>
    <path d="M148.573,153.683C146.103,136.127 135.665,119.914 118.932,110.757C107.178,104.325 94.167,102.386 81.878,104.36C73.055,105.778 64.604,109.212 57.259,114.45C54.545,116.385 51.983,118.566 49.608,120.981C51.595,118.49 53.762,116.195 56.079,114.105C73.91,98.028 100.655,94.112 122.895,106.282C151.023,121.675 161.363,157.009 145.97,185.137C143.333,189.956 140.111,194.253 136.44,197.987C138.5,195.404 140.367,192.608 142.007,189.611C142.409,188.876 142.794,188.136 143.161,187.391C145.783,182.077 147.516,176.538 148.413,170.948C148.656,169.43 148.838,167.908 148.959,166.385C149.298,162.127 149.162,157.867 148.573,153.683Z" style="fill:white;fill-opacity:0.6;"/>
    <path d="M151.209,212.817L150.705,213.513C147.819,217.497 142.242,218.388 138.258,215.503C136.961,214.563 135.992,213.338 135.374,211.976C136.183,211.262 136.977,210.528 137.755,209.772C138.369,210.883 139.231,211.88 140.326,212.674C143.572,215.024 147.875,214.868 150.918,212.575L151.209,212.817Z" style="fill:white;fill-opacity:0.25;"/>
    <path d="M162.156,195.312C162.067,196.964 161.517,198.61 160.475,200.049L152.772,210.684C152.67,210.825 152.565,210.962 152.456,211.095C151.996,211.659 151.478,212.153 150.918,212.575C147.875,214.868 143.572,215.024 140.326,212.674C139.231,211.88 138.369,210.883 137.755,209.772C139.641,207.939 141.43,205.981 143.111,203.904C147.212,199.673 150.817,194.828 153.782,189.411L153.917,189.163C154.452,188.175 154.96,187.18 155.441,186.178C156.507,186.446 157.541,186.918 158.485,187.602C161.031,189.446 162.314,192.388 162.156,195.312Z" style="fill:white;fill-opacity:0.85;"/>
    <path d="M165.186,205.074C166.08,203.979 167.687,203.756 168.849,204.594L234.969,252.242C243.795,260.044 241.247,271.062 234.554,277.021C228.853,275.567 221.689,273.045 213.31,268.545C212.212,267.955 197.469,260.349 187.287,249.062C168.256,227.967 163.403,216.44 161.171,210.142C162.427,208.481 163.793,206.881 165.085,205.205C165.119,205.161 165.151,205.116 165.186,205.074Z" style="fill:white;fill-opacity:0.5;"/>
    <path d="M234.554,277.021C229.359,281.645 221.666,283.222 214.856,277.879L156.368,221.913C155.161,221.043 154.887,219.357 155.757,218.149C155.961,217.801 156.169,217.453 156.381,217.107C157.828,214.738 159.445,212.423 161.171,210.142C163.403,216.44 168.256,227.967 187.287,249.062C197.469,260.349 212.212,267.955 213.31,268.545C221.689,273.045 228.853,275.567 234.554,277.021Z" style="fill:white;fill-opacity:0.25;"/>
    <path d="M159.413,201.515L165.186,205.074C165.151,205.116 165.119,205.161 165.085,205.205C163.793,206.881 162.427,208.481 161.171,210.142C159.445,212.423 157.828,214.738 156.381,217.107L150.918,212.575C151.478,212.153 151.996,211.659 152.456,211.095C152.565,210.962 152.67,210.825 152.772,210.684L159.413,201.515Z" style="fill:white;fill-opacity:0.5;"/>
    <path d="M46.239,46.201C45.696,46.912 45.257,47.436 44.924,47.77C43.457,49.237 42.545,50.99 42.19,53.029C42.155,53.236 42.155,53.445 42.193,53.648C43.968,63.192 45.169,69.239 45.788,71.789C46.877,76.283 48.522,81.057 52.06,84.163C54.004,85.868 57.529,86.059 60.086,86.24C66.816,86.723 75.565,87.672 83.448,88.041C83.527,88.044 83.575,88.13 83.54,88.199C83.531,88.212 83.496,88.228 83.429,88.244C94.557,87.028 105.921,85.243 116.427,82.162C117.932,81.721 119.149,81.406 120.076,81.219C122.557,80.714 124.326,80.234 126.612,78.97C126.707,78.916 126.777,78.83 126.815,78.726C126.974,78.265 127.044,77.878 127.028,77.563C126.943,75.823 126.657,73.933 126.171,71.894L125.558,69.906C125.024,69.388 124.281,68.569 123.325,67.454C122.296,66.251 120.044,64.434 119.263,63.062C118.326,61.42 117.942,59.143 118.056,57.237C118.193,54.941 118.301,52.797 118.387,50.806C118.475,48.63 118.39,47.027 118.129,45.998C117.399,43.13 116.757,40.221 116.201,37.273C115.16,36.622 114.293,36.899 113.156,37.149C112.81,37.226 112.508,37.321 112.251,37.432C110.767,38.083 109.846,38.477 109.488,38.614C109.389,38.652 109.284,38.677 109.18,38.69C106.982,38.953 105.152,39.08 103.695,39.071C102.265,39.061 100.855,39.462 99.525,39.388C98.959,39.36 98.391,39.417 97.816,39.56C96.733,39.83 95.628,39.614 94.367,39.868C93.217,40.103 92.182,39.909 91.077,40.214C90.762,40.3 90.238,40.344 89.508,40.341C88.908,40.341 88.53,40.44 87.955,40.573C87.167,40.751 86.291,40.611 85.697,40.767C84.617,41.056 83.607,40.872 82.584,41.157C81.771,41.383 80.822,41.215 79.955,41.456C79.145,41.682 78.446,41.532 77.633,41.732C76.715,41.958 75.759,41.821 74.972,42.082C74.216,42.329 73.472,42.177 72.685,42.371C71.802,42.59 70.875,42.456 70.112,42.714C69.36,42.971 68.588,42.79 67.873,43.012C67.038,43.273 66.088,43.136 65.225,43.397C64.748,43.539 64.243,43.492 63.716,43.568C58.536,44.324 53.648,45.042 49.059,45.724C48.097,45.867 47.157,46.026 46.239,46.201Z" style="fill:white;fill-opacity:0.75;fill-rule:nonzero;"/>
    <path d="M116.201,37.273C116.757,40.221 117.399,43.13 118.129,45.998C118.39,47.027 118.475,48.63 118.387,50.806C118.301,52.797 118.193,54.941 118.056,57.237C117.942,59.143 118.326,61.42 119.263,63.062C120.044,64.434 122.296,66.251 123.325,67.454C124.281,68.569 125.024,69.388 125.558,69.906C124.907,67.883 124.256,65.898 123.611,63.948C123.071,62.312 122.665,60.794 122.395,59.387C121.677,55.649 120.873,52.029 119.981,48.526C119.32,45.94 118.86,43.571 118.164,40.456C117.932,39.411 117.402,37.696 116.201,37.273Z" style="fill:white;fill-opacity:0.5;fill-rule:nonzero;"/>
    <path d="M43.581,80.009C44.222,82.591 43.984,85.217 43.974,87.856C43.971,88.939 44.028,89.641 44.143,89.965C44.845,91.976 46.607,91.788 48.64,91.363C50.625,90.95 52.222,90.683 53.439,90.559C57.015,90.197 61.223,90.334 64.65,90.14C70.932,89.787 77.191,89.155 83.429,88.244C83.496,88.228 83.531,88.212 83.54,88.199C83.575,88.13 83.527,88.044 83.448,88.041C75.565,87.672 66.816,86.723 60.086,86.24C57.529,86.059 54.004,85.868 52.06,84.163C48.522,81.057 46.877,76.283 45.788,71.789C45.169,69.239 43.968,63.192 42.193,53.648C42.155,53.445 42.155,53.236 42.19,53.029C42.545,50.99 43.457,49.237 44.924,47.77C45.257,47.436 45.696,46.912 46.239,46.201C44.222,45.861 42.428,45.563 40.487,46.02C38.785,46.423 38.509,47.503 38.636,49.269C38.867,52.556 39.239,55.316 39.75,57.555C40.154,59.327 40.459,60.947 40.659,62.417C41.329,67.273 42.224,72.539 43.346,78.214C43.428,78.63 43.508,79.231 43.581,80.009Z" style="fill:white;fill-opacity:0.5;fill-rule:nonzero;"/>
    <path d="M11.275,109.723C10.732,106.775 10.271,103.73 9.887,100.589C9.731,99.283 9.658,98.22 9.674,97.397C9.719,94.901 9.401,92.042 10.468,89.718C11.672,87.097 14.67,85.525 17.493,84.522C20.164,83.572 22.902,82.842 25.713,82.324C29.336,81.657 33.227,81.108 37.391,80.672C39.455,80.457 41.519,80.234 43.581,80.009C44.222,82.591 43.984,85.217 43.974,87.856C43.971,88.939 44.028,89.641 44.143,89.965C44.845,91.976 46.607,91.788 48.64,91.363C50.625,90.95 52.222,90.683 53.439,90.559C57.015,90.197 61.223,90.334 64.65,90.14C70.932,89.787 77.191,89.155 83.429,88.244C94.557,87.028 105.921,85.243 116.427,82.162C117.932,81.721 119.149,81.406 120.076,81.219C122.557,80.714 124.326,80.234 126.612,78.97C126.707,78.916 126.777,78.83 126.815,78.726C126.974,78.265 127.044,77.878 127.028,77.563C126.943,75.823 126.657,73.933 126.171,71.894L129.413,71.418C130.182,71.421 130.976,71.434 131.799,71.462C132.634,71.491 133.425,71.564 134.165,71.688C137.423,72.231 140.605,73.072 143.711,74.216C144.836,74.629 146.17,75 147.097,75.216C158.292,77.843 169.516,80.796 180.768,84.071C177.665,84.261 174.597,84.428 171.568,84.569C167.045,84.781 163.98,84.94 162.37,85.058C146.049,86.255 129.841,88.875 113.745,92.908C87.994,85.391 59.899,94.091 42.937,115.065C41.053,117.009 39.273,119.083 37.612,121.282L12.209,111.803C11.866,111.673 11.646,111.339 11.662,110.977C11.678,110.637 11.551,110.221 11.275,109.723Z" style="fill:white;fill-opacity:0.9;"/>
    <path d="M81.878,104.36C73.055,105.778 64.604,109.212 57.259,114.45L70.945,118.454L70.945,124.171C70.945,124.441 71.113,124.686 71.367,124.781C72.552,125.224 73.747,125.672 74.95,126.122C75.09,123.879 75.296,121.654 75.565,119.447C76.002,115.881 76.743,112.465 77.77,109.202C77.865,108.897 78.037,108.618 78.268,108.395C78.571,108.104 78.905,107.602 79.272,106.89C79.345,106.747 79.437,106.61 79.542,106.486C80.206,105.704 81.004,105 81.878,104.36Z" style="fill:white;fill-opacity:0.9;"/>
    <path d="M180.768,84.071C182.988,84.137 185.297,84.15 187.692,84.112C189.121,84.09 190.534,84.182 191.744,84.541C194.218,85.274 195.552,85.668 195.746,85.716C208.386,88.844 221.169,92.125 234.099,95.555C245.811,98.664 257.524,102.008 268.983,105.934C277.117,108.719 283.637,111.047 290.186,114.569C292.336,115.728 294.333,117.237 296.179,119.101C297.728,120.67 298.697,122.528 299.04,124.697C299.866,129.938 300.158,135.365 299.92,140.983C299.828,143.165 299.631,145.188 299.335,147.05C299.126,148.348 298.748,149.625 297.516,150.213L163.047,169.573C162.29,169.685 161.555,169.797 160.823,169.855C166.145,142.05 153.326,112.785 127.17,98.471C122.819,96.09 118.319,94.243 113.745,92.908C129.841,88.875 146.049,86.255 162.37,85.058C163.98,84.94 167.045,84.781 171.568,84.569C174.597,84.428 177.665,84.261 180.768,84.071Z" style="fill:white;fill-opacity:0.5;"/>
    <path d="M148.573,153.683C146.103,136.127 135.665,119.914 118.932,110.757C107.178,104.325 94.167,102.386 81.878,104.36C81.004,105 80.206,105.704 79.542,106.486C79.437,106.61 79.345,106.747 79.272,106.89C78.905,107.602 78.571,108.104 78.268,108.395C78.037,108.618 77.865,108.897 77.77,109.202C76.743,112.465 76.002,115.881 75.565,119.447C75.296,121.654 75.09,123.879 74.95,126.122C99.106,135.165 126.841,145.539 148.573,153.683Z" style="fill:white;fill-opacity:0.5;"/>
    <path d="M163.047,169.573C163.027,169.85 162.919,170.062 162.919,170.339C162.913,178.583 162.919,186.844 162.939,195.124C207.621,187.616 252.239,180.108 296.792,172.603C297.287,172.521 297.42,171.831 297.424,171.342C297.433,164.768 297.43,159.023 297.417,154.103C297.414,152.792 297.449,151.496 297.516,150.213L163.047,169.573Z" style="fill:white;fill-opacity:0.4;fill-rule:nonzero;"/>
    <path d="M122.889,178.94C122.172,179.149 121.481,179.337 120.818,179.503C114.575,181.102 107.838,182.892 100.612,184.864C100.42,184.919 100.062,185.01 99.543,185.146C96.139,186.039 87.774,188.222 74.446,191.696C72.121,192.307 69.297,189.911 67.331,188.52C61.567,184.45 55.813,180.366 50.075,176.261C49.596,175.918 49.349,175.444 49.334,174.834C49.682,174.234 50.226,173.891 50.973,173.8C51.003,173.795 85.2,164.625 87.304,164.107C87.977,164.387 88.654,164.669 89.332,164.952C88.932,165.092 56.635,173.568 55.733,173.982C55.466,174.108 55.405,174.461 55.617,174.668C57.74,176.72 73.73,187.849 75.989,189.427C76.297,189.639 76.907,189.664 77.824,189.508C79.418,189.231 117.227,179.256 119.723,178.495C119.88,178.449 120.011,178.359 120.112,178.233C120.211,178.104 120.27,177.979 120.288,177.856C121.16,178.219 122.028,178.581 122.889,178.94ZM63.327,182.196C62.243,181.384 61.194,180.381 60.206,180.784C59.984,180.87 59.958,181.173 60.155,181.299C61.073,181.878 61.945,182.479 62.782,183.109C63.861,183.921 64.91,184.924 65.899,184.521C66.121,184.43 66.146,184.133 65.949,184.006C65.031,183.427 64.159,182.821 63.327,182.196Z" style="fill:white;"/>
    <path d="M120.288,177.856C120.27,177.979 120.211,178.104 120.112,178.233C120.011,178.359 119.88,178.449 119.723,178.495C117.227,179.256 79.418,189.231 77.824,189.508C76.907,189.664 76.297,189.639 75.989,189.427C73.73,187.849 57.74,176.72 55.617,174.668C55.405,174.461 55.466,174.108 55.733,173.982C56.635,173.568 88.932,165.092 89.332,164.952C99.546,169.209 110.253,173.672 120.288,177.856Z" style="fill:white;fill-opacity:0.15;"/>
    <path d="M123.741,179.295C123.743,179.299 123.745,179.303 123.747,179.307C124.368,181.253 122.623,182.423 121.014,182.847C101.121,188.101 86.004,192.085 75.661,194.803C74.426,195.13 73.301,195.206 72.283,195.035C71.486,194.898 70.482,194.394 69.267,193.522C67.729,192.407 61.103,187.713 49.394,179.428C49.006,179.15 48.764,178.717 48.724,178.243C48.653,177.285 48.446,175.621 49.334,174.834C49.349,175.444 49.596,175.918 50.075,176.261C55.813,180.366 61.567,184.45 67.331,188.52C69.297,189.911 72.121,192.307 74.446,191.696C87.774,188.222 96.139,186.039 99.543,185.146C100.062,185.01 100.42,184.919 100.612,184.864C107.838,182.892 114.575,181.102 120.818,179.503C121.481,179.337 122.172,179.149 122.889,178.94C123.174,179.059 123.458,179.177 123.741,179.295Z" style="fill:white;fill-opacity:0.75;"/>
    <path d="M163.047,169.573C163.027,169.85 162.919,170.062 162.919,170.339C162.913,178.583 162.919,186.844 162.939,195.124C162.767,195.394 162.519,195.463 162.192,195.327L162.156,195.312C162.314,192.388 161.031,189.446 158.485,187.602C157.541,186.918 156.507,186.446 155.441,186.178C157.981,180.882 159.762,175.397 160.823,169.855C161.555,169.797 162.29,169.685 163.047,169.573Z" style="fill:white;fill-opacity:0.2;"/>
    <path d="M46.856,124.732C47.729,123.436 48.647,122.186 49.608,120.981C51.983,118.566 54.545,116.385 57.259,114.45L70.945,118.454L70.945,124.171C70.945,124.441 71.113,124.686 71.367,124.781L74.95,126.122C99.106,135.165 126.841,145.539 148.573,153.683C149.162,157.867 149.298,162.127 148.959,166.385C148.838,167.908 148.656,169.43 148.413,170.948C146.814,177.46 144.851,183.966 143.161,187.391C107.437,172.497 40.125,144.442 40.125,144.442L38.485,143.758C39.659,138.843 41.499,134.002 44.041,129.358C44.323,128.841 45.346,127.157 46.635,125.062L46.856,124.732Z" style="fill:white;fill-opacity:0.2;"/>
    <path d="M27.883,139.333L11.869,132.65C11.481,132.485 11.227,132.107 11.227,131.684L11.275,109.723C11.551,110.221 11.678,110.637 11.662,110.977C11.646,111.339 11.866,111.673 12.209,111.803L37.612,121.282C35.658,123.869 33.868,126.63 32.266,129.557C30.521,132.746 29.063,136.014 27.883,139.333Z" style="fill:white;fill-opacity:0.2;"/>
    <path d="M62.782,183.109C63.861,183.921 64.91,184.924 65.899,184.521C66.121,184.43 66.146,184.133 65.949,184.006C65.031,183.427 64.159,182.821 63.327,182.196C62.243,181.384 61.194,180.381 60.206,180.784C59.984,180.87 59.958,181.173 60.155,181.299C61.073,181.878 61.945,182.479 62.782,183.109Z" style="fill:white;fill-opacity:0.5;fill-rule:nonzero;"/>
</svg>
