<?xml version="1.0" encoding="UTF-8" standalone="no"?>
<!DOCTYPE svg PUBLIC "-//W3C//DTD SVG 1.1//EN" "http://www.w3.org/Graphics/SVG/1.1/DTD/svg11.dtd">
<svg width="100%" height="100%" viewBox="0 0 300 300" version="1.1" xmlns="http://www.w3.org/2000/svg" xmlns:xlink="http://www.w3.org/1999/xlink" xml:space="preserve" xmlns:serif="http://www.serif.com/" style="fill-rule:evenodd;clip-rule:evenodd;stroke-linejoin:round;stroke-miterlimit:2;">
    <path d="M155.787,13.052C158.134,12.932 160.496,12.871 162.871,12.871C238.555,12.871 300,74.317 300,150C300,225.683 238.555,287.129 162.871,287.129C160.496,287.129 158.134,287.068 155.787,286.948C228.184,283.257 285.832,223.308 285.832,150C285.832,76.692 228.184,16.743 155.787,13.052Z" style="fill:white;fill-opacity:0.15;"/>
    <path d="M105.995,130.886C103.268,128.754 99.295,126.228 94.777,124.126C94.043,123.784 93.31,123.461 92.582,123.156C92.666,122.013 92.244,120.984 91.58,120.078C101.891,98.206 124.145,83.054 149.911,83.054C185.482,83.054 214.361,111.933 214.361,147.503C214.361,183.074 185.482,211.953 149.911,211.953C117.426,211.953 90.522,187.867 86.099,156.595C100.048,143.126 109.227,132.382 107.798,130.802C107.533,130.509 106.917,130.548 105.995,130.886ZM151.043,117.188C133.602,117.188 119.443,131.347 119.443,148.788C119.443,166.228 133.602,180.388 151.043,180.388C168.483,180.388 182.643,166.228 182.643,148.788C182.643,131.347 168.483,117.188 151.043,117.188Z" style="fill:white;fill-opacity:0.5;"/>
    <path d="M84.752,114.877C78.023,110.744 69.307,106.382 60.107,102.266C77.284,70.657 110.783,49.18 149.258,49.18C205.218,49.18 250.65,94.613 250.65,150.573C250.65,206.533 205.218,251.965 149.258,251.965C105.353,251.965 67.928,223.998 53.842,184.923C60.056,180.042 67.398,173.835 75.084,166.881C76.346,165.739 77.588,164.603 78.806,163.479C86.097,196.021 115.183,220.369 149.911,220.369C190.127,220.369 222.776,187.719 222.776,147.503C222.776,107.288 190.127,74.638 149.911,74.638C121.422,74.638 96.73,91.024 84.752,114.877Z" style="fill:white;fill-opacity:0.5;"/>
    <path d="M51.19,176.399C49.021,168.152 47.866,159.496 47.866,150.573C47.866,137.884 50.202,125.736 54.466,114.537C63.546,118.801 72.671,122.477 80.692,124.697C78.326,131.873 77.046,139.54 77.046,147.503C77.046,149.079 77.096,150.643 77.195,152.193C74.42,154.585 71.553,157.117 68.637,159.755C62.132,165.641 56.184,171.334 51.19,176.399Z" style="fill:white;fill-opacity:0.5;"/>
    <path d="M88.984,126.451C89.869,126.455 90.672,126.294 91.285,125.845C91.999,126.212 92.731,126.571 93.477,126.919C97.842,128.95 102.182,130.338 105.525,131.073C101.923,132.606 94.591,137.807 85.501,145.22C85.73,138.669 86.938,132.365 88.984,126.451Z" style="fill:white;fill-opacity:0.5;"/>
    <path d="M46.629,190.354C62.59,231.455 102.545,260.623 149.258,260.623C209.996,260.623 259.308,211.311 259.308,150.573C259.308,89.834 209.996,40.523 149.258,40.523C107.228,40.523 70.669,64.136 52.136,98.808C44.824,95.731 37.481,92.887 30.823,90.504C29.965,88.653 28.969,86.837 27.839,85.209C50.981,42.163 96.448,12.871 148.704,12.871C224.387,12.871 285.832,74.317 285.832,150C285.832,225.683 224.387,287.129 148.704,287.129C73.02,287.129 11.575,225.683 11.575,150C11.575,132.895 14.714,116.516 20.446,101.411C22.616,101.156 24.85,100.623 26.994,99.947C32.96,103.473 39.694,107.201 46.656,110.723C41.847,123.082 39.208,136.522 39.208,150.573C39.208,162.103 40.985,173.222 44.28,183.67C38.291,190.264 35.027,194.845 35.922,195.834C36.721,196.717 40.696,194.589 46.629,190.354Z" style="fill:white;fill-opacity:0.5;"/>
    <path d="M92.582,123.156C93.31,123.461 94.043,123.784 94.777,124.126C99.569,126.356 103.749,129.062 106.478,131.27C103.032,130.604 98.269,129.149 93.477,126.919C92.731,126.571 91.999,126.212 91.285,125.845C91.589,125.623 91.846,125.329 92.045,124.95C92.371,124.324 92.539,123.726 92.582,123.156Z" style="fill:white;fill-opacity:0.75;"/>
    <path d="M151.043,117.188C168.483,117.188 182.643,131.347 182.643,148.788C182.643,166.228 168.483,180.388 151.043,180.388C133.602,180.388 119.443,166.228 119.443,148.788C119.443,131.347 133.602,117.188 151.043,117.188ZM132.505,131.686C127.304,136.42 124.038,143.243 124.038,150.823C124.038,165.102 135.631,176.696 149.911,176.696C157.821,176.696 164.907,173.138 169.655,167.538C174.856,162.804 178.122,155.981 178.122,148.401C178.122,144.179 177.089,140.021 175.113,136.29L170.22,138.882C170.384,139.191 170.539,139.503 170.686,139.819L167.883,141.304C169.436,144.236 170.248,147.504 170.248,150.823C170.248,155.7 168.528,160.178 165.661,163.683C162.08,166.829 157.385,168.738 152.249,168.738C141.025,168.738 131.912,159.625 131.912,148.401C131.912,143.524 133.632,139.045 136.499,135.54C140.08,132.394 144.775,130.486 149.911,130.486C150.256,130.486 150.601,130.494 150.945,130.512C150.18,131.406 149.472,132.015 149.472,132.015C148.705,132.974 148.99,134.184 150.305,134.184L161.453,131.579C162.646,131.282 162.697,130.765 161.739,129.637L163.79,129.158C165.048,128.844 165.037,128.286 163.912,127.026L157.477,119.177C156.901,118.443 155.49,117.763 155.503,119.867C155.506,120.403 155.507,121.168 155.467,121.998L155.14,121.598C154.563,120.865 153.152,120.184 153.165,122.289L153.166,122.52C152.752,122.524 152.42,122.527 152.249,122.527C144.339,122.527 137.253,126.085 132.505,131.686Z" style="fill:white;fill-opacity:0.15;"/>
    <path d="M153.283,128.09C152.938,128.073 152.594,128.064 152.249,128.064C141.025,128.064 131.912,137.177 131.912,148.401C131.912,159.625 141.025,168.738 152.249,168.738C163.473,168.738 172.586,159.625 172.586,148.401C172.586,145.082 171.774,141.814 170.22,138.882L175.113,136.29C177.089,140.021 178.122,144.179 178.122,148.401C178.122,162.681 166.529,174.274 152.249,174.274C137.969,174.274 126.375,162.681 126.375,148.401C126.375,134.121 137.969,122.527 152.249,122.527C152.689,122.527 154.189,122.505 155.437,122.502C155.508,121.482 155.507,120.51 155.503,119.867C155.49,117.763 156.901,118.443 157.477,119.177L163.912,127.026C165.037,128.286 165.048,128.844 163.79,129.158L152.643,131.762C151.327,131.762 151.043,130.553 151.81,129.593C151.81,129.593 152.518,128.985 153.283,128.09Z" style="fill:white;"/>
    <path d="M169.655,167.538C164.907,173.138 157.821,176.696 149.911,176.696C135.631,176.696 124.038,165.102 124.038,150.823C124.038,143.243 127.304,136.42 132.505,131.686C128.682,136.196 126.375,142.031 126.375,148.401C126.375,162.681 137.969,174.274 152.249,174.274C158.949,174.274 165.058,171.722 169.655,167.538ZM153.166,122.52C153.166,122.439 153.166,122.362 153.165,122.289C153.152,120.184 154.563,120.865 155.14,121.598L155.467,121.998C155.459,122.163 155.449,122.332 155.437,122.502C154.675,122.504 153.818,122.513 153.166,122.52ZM161.739,129.637C162.697,130.765 162.646,131.282 161.453,131.579L150.305,134.184C148.99,134.184 148.705,132.974 149.472,132.015C149.472,132.015 150.18,131.406 150.945,130.512C150.601,130.494 150.256,130.486 149.911,130.486C144.775,130.486 140.08,132.394 136.499,135.54C140.23,130.978 145.902,128.064 152.249,128.064C152.594,128.064 152.938,128.073 153.283,128.09C152.518,128.985 151.81,129.593 151.81,129.593C151.043,130.553 151.327,131.762 152.643,131.762L161.739,129.637ZM165.661,163.683C168.528,160.178 170.248,155.7 170.248,150.823C170.248,147.504 169.436,144.236 167.883,141.304L170.686,139.819C171.936,142.503 172.586,145.432 172.586,148.401C172.586,154.488 169.905,159.955 165.661,163.683Z" style="fill:white;fill-opacity:0.25;"/>
    <path d="M44.28,183.67C40.985,173.222 39.208,162.103 39.208,150.573C39.208,136.522 41.847,123.082 46.656,110.723C49.237,112.03 51.85,113.308 54.466,114.537C50.202,125.736 47.866,137.884 47.866,150.573C47.866,159.496 49.021,168.152 51.19,176.399C48.615,179.01 46.294,181.454 44.28,183.67ZM53.842,184.923C67.928,223.998 105.353,251.965 149.258,251.965C205.218,251.965 250.65,206.533 250.65,150.573C250.65,94.613 205.218,49.18 149.258,49.18C110.783,49.18 77.284,70.657 60.107,102.266C57.478,101.089 54.809,99.933 52.136,98.808C70.669,64.136 107.228,40.523 149.258,40.523C209.996,40.523 259.308,89.834 259.308,150.573C259.308,211.311 209.996,260.623 149.258,260.623C102.545,260.623 62.59,231.455 46.629,190.354C48.793,188.809 51.217,186.984 53.842,184.923Z" style="fill:white;fill-opacity:0.15;"/>
    <path d="M44.28,183.67C46.294,181.454 48.615,179.01 51.19,176.399C51.951,179.292 52.837,182.136 53.842,184.923C51.217,186.984 48.793,188.809 46.629,190.354C45.777,188.159 44.993,185.93 44.28,183.67Z" style="fill:white;fill-opacity:0.05;"/>
    <path d="M91.58,120.078C90.766,118.968 89.587,118.042 88.527,117.317C87.355,116.515 86.093,115.7 84.752,114.877C96.73,91.024 121.422,74.638 149.911,74.638C190.127,74.638 222.776,107.288 222.776,147.503C222.776,187.719 190.127,220.369 149.911,220.369C115.183,220.369 86.097,196.021 78.806,163.479C81.35,161.129 83.79,158.825 86.099,156.595C90.522,187.867 117.426,211.953 149.911,211.953C185.482,211.953 214.361,183.074 214.361,147.503C214.361,111.933 185.482,83.054 149.911,83.054C124.145,83.054 101.891,98.206 91.58,120.078Z" style="fill:white;fill-opacity:0.15;"/>
    <path d="M80.692,124.697C81.809,125.006 82.904,125.287 83.975,125.537C85.499,125.893 87.378,126.443 88.984,126.451C86.938,132.365 85.73,138.669 85.501,145.22C82.864,147.37 80.079,149.706 77.195,152.193C77.096,150.643 77.046,149.079 77.046,147.503C77.046,139.54 78.326,131.873 80.692,124.697Z" style="fill:white;fill-opacity:0.15;"/>
    <path d="M92.59,122.995C92.57,123.613 92.402,124.265 92.045,124.95C90.722,127.482 86.757,126.187 83.975,125.537C53.686,118.458 3.794,86.931 4.508,83.878C4.555,83.677 4.771,83.547 5.14,83.484C33.533,101.013 41.018,104.701 49.816,108.742C71.402,118.657 78.444,117.714 92.59,122.995Z" style="fill:white;fill-opacity:0.35;"/>
    <path d="M5.14,83.484C11.676,82.368 66.366,102.15 88.527,117.317C90.412,118.607 92.671,120.531 92.59,122.995C78.444,117.714 71.402,118.657 49.816,108.742C41.018,104.701 33.533,101.013 5.14,83.484Z" style="fill:white;fill-opacity:0.95;"/>
    <path d="M26.994,99.947C23.496,101.05 19.756,101.772 16.451,101.525C9.051,101.138 2.741,98.314 0.676,94.466C-1.057,91.234 0.202,87.281 8.474,87.865C12.42,90.886 19.022,95.237 26.994,99.947ZM8.296,83.72C4.106,78.801 6.147,75.756 9.4,74.97C13.646,73.945 19.956,76.769 25.175,82.029C27.458,84.229 29.344,87.314 30.823,90.504C21.108,87.026 12.854,84.529 8.296,83.72Z" style="fill:white;fill-opacity:0.75;"/>
    <path d="M53.842,184.923C52.837,182.136 51.951,179.292 51.19,176.399C56.184,171.334 62.132,165.641 68.637,159.755C71.553,157.117 74.42,154.585 77.195,152.193C77.44,156.044 77.985,159.813 78.806,163.479C77.588,164.603 76.346,165.739 75.084,166.881C67.398,173.835 60.056,180.042 53.842,184.923Z" style="fill:white;fill-opacity:0.45;"/>
    <path d="M85.501,145.22C94.591,137.807 101.923,132.606 105.525,131.073C105.853,131.145 106.171,131.21 106.478,131.27C106.322,131.144 106.161,131.015 105.995,130.886C106.917,130.548 107.533,130.509 107.798,130.802C109.227,132.382 100.048,143.126 86.099,156.595C85.679,153.624 85.461,150.589 85.461,147.503C85.461,146.739 85.475,145.978 85.501,145.22Z" style="fill:white;fill-opacity:0.45;"/>
    <path d="M77.195,152.193C80.079,149.706 82.864,147.37 85.501,145.22C85.475,145.978 85.461,146.739 85.461,147.503C85.461,150.589 85.679,153.624 86.099,156.595C83.79,158.825 81.35,161.129 78.806,163.479C77.985,159.813 77.44,156.044 77.195,152.193Z" style="fill:white;fill-opacity:0.05;"/>
    <path d="M105.525,131.073C105.69,131.003 105.847,130.941 105.995,130.886C106.161,131.015 106.322,131.144 106.478,131.27C106.171,131.21 105.853,131.145 105.525,131.073Z" style="fill:white;fill-opacity:0.28;"/>
    <path d="M46.629,190.354C40.696,194.589 36.721,196.717 35.922,195.834C35.027,194.845 38.291,190.264 44.28,183.67C44.993,185.93 45.777,188.159 46.629,190.354Z" style="fill:white;fill-opacity:0.45;"/>
</svg>
