<?xml version="1.0" encoding="UTF-8" standalone="no"?>
<!DOCTYPE svg PUBLIC "-//W3C//DTD SVG 1.1//EN" "http://www.w3.org/Graphics/SVG/1.1/DTD/svg11.dtd">
<svg width="100%" height="100%" viewBox="0 0 300 300" version="1.1" xmlns="http://www.w3.org/2000/svg" xmlns:xlink="http://www.w3.org/1999/xlink" xml:space="preserve" xmlns:serif="http://www.serif.com/" style="fill-rule:evenodd;clip-rule:evenodd;stroke-linejoin:round;stroke-miterlimit:2;">
    <path d="M136.849,117.476C136.811,117.006 136.773,116.515 136.733,116.001C136.255,110.001 135.719,103.955 135.119,97.863C135.022,96.877 135.025,95.921 135.016,94.922C135.006,94.396 134.708,92.307 134.117,88.654C133.865,87.107 133.509,85.938 133.046,85.147C131.895,83.18 130.275,81.844 128.19,81.134C126.875,80.687 125.438,80.331 123.98,80.251C120.731,80.075 42.854,70.817 36.683,70.105C36.564,70.089 36.466,70.001 36.445,69.882C35.623,65.541 35.486,61.124 34.944,56.606C34.728,54.813 34.564,52.593 34.451,49.951C34.341,48.663 34.287,47.342 34.29,45.987C34.29,45.491 34.262,44.632 34.211,43.412C34.147,41.953 34.39,40.69 34.947,39.618C35.294,38.946 35.925,38.172 36.838,37.292C37.998,36.178 39.8,35.484 41.267,34.933C42.065,34.635 43.194,34.738 44.044,34.616C45.721,34.379 46.857,34.199 47.451,34.081C49,33.764 108.158,26.293 112.576,25.846C115.711,25.529 118.098,25.465 121.31,25.222C125.514,24.902 129.983,24.829 133.612,24.701C140.081,24.479 149.531,24.811 153.93,24.795C155.23,24.789 157.236,24.844 159.943,24.963C160.518,24.987 160.877,25.118 161.024,25.356C161.084,25.456 161.215,25.496 161.322,25.444L161.879,25.176C161.922,25.155 161.97,25.145 162.019,25.149L172.072,25.806C172.239,25.815 172.397,25.876 172.531,25.977C172.833,26.202 173.204,26.357 173.652,26.439C173.88,26.482 174.096,26.573 174.285,26.71C175.576,27.633 176.72,28.744 177.719,30.041C178.416,30.948 179.247,32.562 179.716,33.423C180.157,34.233 184.45,49.957 184.809,50.012C185.461,52.916 185.905,55.83 186.143,58.752C186.222,59.723 186.158,60.765 186.127,61.894C186.094,63.093 186.216,65.605 186.493,69.429C186.642,71.478 186.706,73.003 186.688,74.004C186.663,75.508 186.672,77.037 186.718,78.586C186.767,80.3 186.63,82.066 186.572,83.661C186.551,84.234 186.593,84.736 186.703,85.168C186.748,85.345 186.904,85.47 187.083,85.479C191.488,85.692 196.372,85.972 201.733,86.316C201.858,86.325 214.991,87.205 241.136,88.961C243.307,89.108 246.037,89.409 247.992,90.35C248.117,90.407 248.613,90.611 249.487,90.959C249.998,91.162 250.458,91.443 250.869,91.796C251.368,92.91 251.636,93.726 251.669,94.243C251.813,96.399 251.883,97.617 251.883,97.894C251.886,100.582 251.858,103.8 251.8,107.553C251.767,109.94 251.447,111.523 249.727,113.064C248.299,114.339 246.747,115.237 245.066,115.758C242.402,116.58 239.06,117.965 233.33,120.035C229.577,121.39 224.742,123.18 218.827,125.409C217.189,126.027 216.157,126.404 215.728,126.547C212.963,127.467 210.4,128.526 207.977,129.363C206.782,129.777 205.524,130.232 204.229,130.71C200.202,126.722 195.558,123.225 190.341,120.37C173.221,111.001 153.601,110.56 136.849,117.476Z" style="fill:white;fill-opacity:0.8;"/>
    <path d="M126.713,134.4C122.331,167.598 126.924,172.158 129.005,173.036C128.898,173.086 128.776,173.128 128.636,173.163C127.294,173.494 116.625,172.574 106.874,171.402C107.347,163.768 109.464,156.116 113.376,148.966C114.895,146.191 116.623,143.603 118.531,141.211C121.048,138.65 123.792,136.375 126.713,134.4ZM17.378,158.635C16.967,158.486 16.502,158.364 15.984,158.269C15.378,158.16 14.925,158.02 14.629,157.849C13.274,157.073 12.197,156.071 11.39,154.838C10.233,153.073 2.574,101.224 2.275,98.554C2.199,97.881 2.01,96.752 1.715,95.169C1.405,93.516 1.417,91.412 0.914,89.847C0.853,89.659 0.82,89.464 0.814,89.266C0.774,88.085 0.573,86.696 0.205,85.104C0.184,85.001 0.172,84.897 0.175,84.791L0.235,82.401C0.239,82.261 0.223,82.121 0.184,81.984C0.062,81.545 0.001,81.265 0.001,81.147C-0.014,79.664 0.135,78.428 0.446,77.432C0.598,76.942 0.698,76.422 0.744,75.877C0.866,74.385 1.505,73.316 1.855,71.995C1.889,71.876 1.934,71.761 1.992,71.654C2.534,70.668 3.249,69.812 4.138,69.091C4.114,69.371 4.038,69.946 3.91,70.814C3.469,73.813 6.814,74.638 9.049,74.89C12.066,75.228 15.329,75.414 19.19,75.84C43.164,78.489 117.663,87.113 122.15,87.524C125.471,87.826 126.68,90.758 126.781,93.759C126.911,97.714 127.347,100.908 127.615,105.401C127.947,110.963 128.205,114.494 128.613,119.627C128.662,120.228 128.695,120.882 128.721,121.549C122.576,125.214 117.012,129.974 112.355,135.733C108.558,139.65 105.219,144.136 102.475,149.151C98.73,155.994 96.412,163.235 95.42,170.534L95.366,170.529C94.928,170.491 54.212,164.249 31.777,160.822C23.664,159.583 17.941,158.712 17.378,158.635Z" style="fill:white;fill-opacity:0.6;"/>
    <path d="M197.821,144.014C158.852,162.948 138.678,175.654 129.61,173.231C129.454,173.19 129.247,173.137 129.005,173.036C126.924,172.158 122.331,167.598 126.713,134.4C130.156,132.073 133.843,130.163 137.692,128.695C137.64,130.123 137.615,131.375 137.61,131.624C137.335,145.389 146.979,136.764 170.419,127.758C170.511,127.723 171.12,127.557 171.889,127.264C175.578,128.337 179.206,129.825 182.714,131.744C188.628,134.98 193.692,139.168 197.821,144.014Z" style="fill:white;fill-opacity:0.5;"/>
    <path d="M171.889,127.264C171.12,127.557 170.511,127.723 170.419,127.758C146.979,136.764 137.335,145.389 137.61,131.624C137.615,131.375 137.64,130.123 137.692,128.695C148.444,124.593 160.453,123.937 171.889,127.264Z" style="fill:white;fill-opacity:0.85;"/>
    <path d="M253.7,58.481C254.51,61.255 254.79,64.189 254.537,67.286C253.843,75.813 252.705,81.746 250.869,91.796C250.458,91.443 249.998,91.162 249.487,90.959C248.613,90.611 248.117,90.407 247.992,90.35C246.037,89.409 243.307,89.108 241.136,88.961C214.991,87.205 201.858,86.325 201.733,86.316C196.372,85.972 191.488,85.692 187.083,85.479C186.904,85.47 186.748,85.345 186.703,85.168C186.593,84.736 186.551,84.234 186.572,83.661C186.63,82.066 186.767,80.3 186.718,78.586C186.672,77.037 186.663,75.508 186.688,74.004C186.706,73.003 186.642,71.478 186.493,69.429C186.216,65.605 186.094,63.093 186.127,61.894C186.158,60.765 186.222,59.723 186.143,58.752C185.905,55.83 185.461,52.916 184.809,50.012C185.701,50.024 186.572,50.061 187.418,50.124C191.507,50.426 194.822,50.694 197.364,50.928C206.138,51.744 210.711,52.03 221.579,52.898C223.043,53.014 223.67,53.175 225.028,53.446C225.369,53.516 225.719,53.555 226.069,53.565C227.607,53.61 229.138,53.802 230.66,54.134C231.476,54.314 232.189,54.432 232.797,54.496C234.679,54.688 236.241,55.154 237.851,55.312C238.384,55.364 238.907,55.452 239.428,55.583C240.917,55.957 242.022,55.942 243.532,56.295C245.307,56.709 246.047,56.789 247.599,57.139C248.147,57.264 248.802,57.373 249.566,57.467C250.975,57.647 252.354,57.985 253.7,58.481Z" style="fill:white;fill-opacity:0.65;fill-rule:nonzero;"/>
    <path d="M128.721,121.549C128.695,120.882 128.662,120.228 128.613,119.627C128.205,114.494 127.947,110.963 127.615,105.401C127.347,100.908 126.911,97.714 126.781,93.759C126.68,90.758 125.471,87.826 122.15,87.524C117.663,87.113 43.164,78.489 19.19,75.84C15.329,75.414 12.066,75.228 9.049,74.89C6.814,74.638 3.469,73.813 3.91,70.814C4.038,69.946 4.114,69.371 4.138,69.091C5.411,68.229 6.686,67.2 7.993,66.476C9.32,65.739 10.705,64.698 11.844,64.074C12.879,63.507 13.631,62.853 14.864,62.089C20.538,58.576 24.481,56.107 26.694,54.685C29.382,52.956 31.97,51.379 34.451,49.951C34.564,52.593 34.728,54.813 34.944,56.606C35.486,61.124 35.623,65.541 36.445,69.882C36.466,70.001 36.564,70.089 36.683,70.105C42.854,70.817 120.731,80.075 123.98,80.251C125.438,80.331 126.875,80.687 128.19,81.134C130.275,81.844 131.895,83.18 133.046,85.147C133.509,85.938 133.865,87.107 134.117,88.654C134.708,92.307 135.006,94.396 135.016,94.922C135.025,95.921 135.022,96.877 135.119,97.863C135.719,103.955 136.255,110.001 136.733,116.001C136.773,116.515 136.811,117.006 136.849,117.476C134.052,118.631 131.334,119.991 128.721,121.549ZM204.229,130.71C205.524,130.232 206.782,129.777 207.977,129.363C210.4,128.526 212.963,127.467 215.728,126.547C216.157,126.404 217.189,126.027 218.827,125.409C224.742,123.18 229.577,121.39 233.33,120.035C239.06,117.965 242.402,116.58 245.066,115.758C246.747,115.237 248.299,114.339 249.727,113.064C251.447,111.523 251.767,109.94 251.8,107.553C251.858,103.8 251.886,100.582 251.883,97.894C251.883,97.617 251.813,96.399 251.669,94.243C251.636,93.726 251.368,92.91 250.869,91.796C252.705,81.746 253.843,75.813 254.537,67.286C254.79,64.189 254.51,61.255 253.7,58.481C254.82,58.673 255.691,59.066 256.315,59.666C257.42,60.728 258.812,62.098 258.854,63.812C258.863,64.192 258.924,64.588 259.04,64.993C259.079,65.139 259.095,65.288 259.082,65.441C258.878,67.776 258.775,69.112 258.769,69.456C258.748,70.452 258.601,71.487 258.324,72.568C258.145,73.274 258.017,74.467 257.947,76.151C257.944,76.202 257.932,76.251 257.916,76.303L257.481,77.515C257.454,77.591 257.439,77.673 257.429,77.755L257.152,80.952C257.143,81.064 257.113,81.174 257.064,81.277L256.589,82.279C256.556,82.346 256.537,82.422 256.537,82.498C256.522,83.737 256.367,84.782 256.075,85.631C255.989,85.874 255.944,86.13 255.935,86.392C255.895,87.512 255.831,88.706 255.326,89.823C254.945,90.666 255.177,91.79 254.784,92.825C254.181,94.42 254.385,96.481 254.312,98.131C254.151,101.863 253.225,105.343 253.189,109.015C253.179,110.12 253.073,111.441 252.869,112.972C252.494,115.779 252.51,118.988 252.351,121.484C252.251,123.089 251.864,124.727 250.704,125.865C249.825,126.727 248.99,127.509 248.208,128.206C247.675,128.684 246.744,129.336 245.413,130.164C244.25,130.888 243.103,131.637 241.97,132.414C241.839,132.182 241.574,132.152 241.176,132.319C238.85,133.306 236.548,134.392 234.189,135.287C233.775,135.446 233.388,135.635 233.029,135.854C232.904,135.82 232.779,135.659 232.657,135.37C232.615,135.269 232.502,135.224 232.405,135.269C230.554,136.122 228.584,136.965 226.496,137.799C225.768,138.091 225.074,138.591 224.325,138.916C220.771,140.46 217.327,141.91 213.991,143.269C211.319,138.727 208.053,134.497 204.229,130.71Z" style="fill:white;fill-opacity:0.5;"/>
    <path d="M241.97,132.414C242.244,133.001 242.375,133.394 242.36,133.589C242.265,134.843 242.214,136.097 242.201,137.349C242.18,139.452 241.915,140.904 241.827,142.932C241.806,143.459 241.69,144.229 241.48,145.249C241.078,147.224 240.695,149.359 239.949,151.331C239.702,151.986 239.264,152.442 238.633,152.704C238.536,152.744 238.426,152.738 238.335,152.689C237.675,152.33 237.193,151.821 236.892,151.161C236.204,149.66 235.592,148.354 235.193,146.676C234.618,144.265 234.216,142.375 233.988,141.002C233.796,139.842 233.662,139.169 233.589,138.983C233.549,138.88 233.525,138.773 233.519,138.664C233.47,137.732 233.61,136.91 233.029,135.854C233.388,135.635 233.775,135.446 234.189,135.287C236.548,134.392 238.85,133.306 241.176,132.319C241.574,132.152 241.839,132.182 241.97,132.414Z" style="fill:white;fill-rule:nonzero;"/>
    <path d="M31.777,160.822C30.542,165.48 24.809,187.091 24.676,187.523C24.198,189.087 22.84,191.279 21.29,191.767C21.095,191.827 20.882,191.751 20.773,191.578L19.665,189.83C19.598,189.727 19.552,189.614 19.531,189.495C19.531,189.495 17.476,159.198 17.378,158.635C17.941,158.712 23.664,159.583 31.777,160.822Z" style="fill:white;fill-opacity:0.5;"/>
    <path d="M196.988,186.527C196.873,187.043 196.685,187.393 196.424,187.581C193.645,189.601 187.871,193.683 179.109,199.837C177.901,200.682 176.76,200.981 175.68,200.733C171.974,199.879 165.103,198.107 155.064,195.421C147.963,193.521 140.883,191.604 133.829,189.669C133.709,188.918 133.858,188.393 134.277,188.089C140.52,183.593 145.665,179.933 149.718,177.111C151.221,176.06 152.284,175.104 154.154,174.839C154.432,174.801 154.718,174.818 154.991,174.89C156.482,175.296 157.921,175.685 159.317,176.048C174.903,180.134 187.116,183.332 195.959,185.651C196.365,185.758 196.711,186.048 196.988,186.527ZM191.715,186.104C191.71,185.912 191.612,185.775 191.428,185.694C190.771,185.399 190.169,185.181 189.618,185.041C186.74,184.298 184.003,183.567 181.402,182.846C180.937,182.713 179.724,182.427 177.764,181.987C176.957,181.804 175.697,181.454 173.985,180.937C172.341,180.442 169.241,179.63 164.685,178.507C162.665,178.008 161.17,177.619 160.205,177.337C158.134,176.735 156.648,176.334 155.747,176.129C155.064,175.975 154.539,176.031 154.167,176.295C148.505,180.352 142.8,184.379 137.057,188.38C136.583,188.713 136.715,189.447 137.275,189.597L173.229,198.987C173.669,199.102 174.134,199.012 174.497,198.743C175.21,198.218 176.799,197.095 179.254,195.379C179.634,195.11 179.98,194.896 180.292,194.729C181.172,194.264 182,193.376 182.739,192.898C183.862,192.167 184.831,191.476 185.647,190.822C186.001,190.536 186.975,189.849 188.567,188.76C189.609,188.047 190.613,187.248 191.582,186.364C191.672,186.279 191.719,186.193 191.715,186.104ZM144.871,181.947C144.82,181.821 144.508,181.829 144.17,181.967C143.833,182.103 143.599,182.312 143.65,182.438C143.701,182.564 144.013,182.555 144.351,182.418C144.687,182.282 144.922,182.073 144.871,181.947ZM185.104,192.718C184.378,193.226 183.635,193.726 182.88,194.221C182.709,194.337 182.751,194.593 182.948,194.644C183.977,194.922 184.814,193.905 185.523,193.414C186.253,192.906 186.996,192.402 187.752,191.907C187.923,191.796 187.88,191.535 187.683,191.484C186.654,191.211 185.817,192.223 185.104,192.718Z" style="fill:white;fill-rule:nonzero;"/>
    <path d="M191.715,186.104C191.719,186.193 191.672,186.279 191.582,186.364C190.613,187.248 189.609,188.047 188.567,188.76C186.975,189.849 186.001,190.536 185.647,190.822C184.831,191.476 183.862,192.167 182.739,192.898C182,193.376 181.172,194.264 180.292,194.729C179.98,194.896 179.634,195.11 179.254,195.379C176.799,197.095 175.21,198.218 174.497,198.743C174.134,199.012 173.669,199.102 173.229,198.987L137.275,189.597C136.715,189.447 136.583,188.713 137.057,188.38C142.8,184.379 148.505,180.352 154.167,176.295C154.539,176.031 155.064,175.975 155.747,176.129C156.648,176.334 158.134,176.735 160.205,177.337C161.17,177.619 162.665,178.008 164.685,178.507C169.241,179.63 172.341,180.442 173.985,180.937C175.697,181.454 176.957,181.804 177.764,181.987C179.724,182.427 180.937,182.713 181.402,182.846C184.003,183.567 186.74,184.298 189.618,185.041C190.169,185.181 190.771,185.399 191.428,185.694C191.612,185.775 191.71,185.912 191.715,186.104Z" style="fill:white;fill-opacity:0.15;fill-rule:nonzero;"/>
    <path d="M144.871,181.947C144.922,182.073 144.687,182.282 144.351,182.418C144.013,182.555 143.701,182.564 143.65,182.438C143.599,182.312 143.833,182.103 144.17,181.967C144.508,181.829 144.82,181.821 144.871,181.947Z" style="fill:white;fill-opacity:0.5;fill-rule:nonzero;"/>
    <path d="M196.988,186.527C197.684,187.231 197.526,188.598 197.449,189.4C197.415,189.768 197.219,190.101 196.92,190.314C190.557,194.823 184.643,199.008 179.173,202.868C178.033,203.675 176.684,203.876 175.134,203.475C163.429,200.439 150.222,196.963 135.507,193.047C134.811,192.863 134.26,192.33 133.854,191.446C133.816,191.36 133.794,191.262 133.794,191.164L133.829,189.669C140.883,191.604 147.963,193.521 155.064,195.421C165.103,198.107 171.974,199.879 175.68,200.733C176.76,200.981 177.901,200.682 179.109,199.837C187.871,193.683 193.645,189.601 196.424,187.581C196.685,187.393 196.873,187.043 196.988,186.527Z" style="fill:white;fill-opacity:0.75;fill-rule:nonzero;"/>
    <path d="M185.104,192.718C185.817,192.223 186.654,191.211 187.683,191.484C187.88,191.535 187.923,191.796 187.752,191.907C186.996,192.402 186.253,192.906 185.523,193.414C184.814,193.905 183.977,194.922 182.948,194.644C182.751,194.593 182.709,194.337 182.88,194.221C183.635,193.726 184.378,193.226 185.104,192.718Z" style="fill:white;fill-opacity:0.5;fill-rule:nonzero;"/>
    <path d="M197.593,224.565C178.743,238.559 152.713,241.206 130.783,229.206C100.749,212.77 89.709,175.043 106.144,145.009C107.966,141.68 110.049,138.584 112.355,135.733C130.849,112.865 163.636,105.756 190.341,120.37C219.386,136.264 230.667,172.069 216.516,201.573C216.071,202.501 215.601,203.422 215.106,204.337L214.98,204.567C212.236,209.582 208.897,214.068 205.1,217.984C203.432,219.705 201.675,221.317 199.841,222.814C199.104,223.416 198.354,224 197.593,224.565ZM198.924,212.507C202.323,209.049 205.307,205.071 207.748,200.609C222,174.567 212.426,141.853 186.384,127.602C163.116,114.869 134.524,121.154 118.531,141.211C116.623,143.603 114.895,146.191 113.376,148.966C99.125,175.009 108.698,207.722 134.741,221.974C156.322,233.783 182.484,229.233 198.924,212.507Z" style="fill:white;fill-opacity:0.95;"/>
    <path d="M197.937,225.458C178.901,242.236 150.646,246.226 127.114,233.348C97.079,216.913 86.039,179.185 102.475,149.151C105.219,144.136 108.558,139.65 112.355,135.733C110.049,138.584 107.966,141.68 106.144,145.009C89.709,175.043 100.749,212.77 130.783,229.206C152.713,241.206 178.743,238.559 197.593,224.565C198.354,224 199.104,223.416 199.841,222.814C201.675,221.317 203.432,219.705 205.1,217.984C203.545,219.908 201.888,221.72 200.142,223.417C199.422,224.117 198.687,224.798 197.937,225.458Z" style="fill:white;fill-opacity:0.37;"/>
    <path d="M118.531,141.211C134.524,121.154 163.116,114.869 186.384,127.602C212.426,141.853 222,174.567 207.748,200.609C205.307,205.071 202.323,209.049 198.924,212.507C200.832,210.115 202.56,207.527 204.079,204.752C218.33,178.709 208.757,145.996 182.714,131.744C161.133,119.935 134.971,124.485 118.531,141.211Z" style="fill:white;fill-opacity:0.37;"/>
    <path d="M212.598,226.237L212.131,226.881C209.46,230.57 204.296,231.395 200.608,228.724C199.407,227.854 198.509,226.72 197.937,225.458C198.687,224.798 199.422,224.117 200.142,223.417C200.71,224.446 201.508,225.37 202.522,226.104C205.527,228.281 209.511,228.136 212.329,226.013L212.598,226.237Z" style="fill:white;fill-opacity:0.3;"/>
    <path d="M213.753,224.643C213.327,225.165 212.848,225.623 212.329,226.013C209.511,228.136 205.527,228.281 202.522,226.104C201.508,225.37 200.71,224.446 200.142,223.417C201.888,221.72 203.545,219.908 205.1,217.984C208.897,214.068 212.236,209.582 214.98,204.567L215.106,204.337C215.601,203.422 216.071,202.501 216.516,201.573C217.504,201.822 218.461,202.259 219.335,202.892C223.024,205.563 223.849,210.727 221.178,214.415L214.046,224.262C213.951,224.392 213.854,224.519 213.753,224.643Z" style="fill:white;fill-opacity:0.75;"/>
    <path d="M221.821,223.76C222.984,222.223 224.2,220.701 225.446,219.189C225.476,219.148 225.507,219.107 225.539,219.068C226.367,218.054 227.854,217.848 228.931,218.624L290.147,262.739C298.319,269.963 295.96,280.164 289.763,285.68C284.485,284.335 277.852,281.999 270.095,277.833C269.078,277.287 255.428,270.244 246.001,259.795C228.381,240.263 223.888,229.591 221.821,223.76Z" style="fill:white;fill-opacity:0.45;"/>
    <path d="M289.763,285.68C284.953,289.962 277.831,291.421 271.526,286.475L217.375,234.659C216.257,233.853 216.004,232.292 216.809,231.174C216.998,230.851 217.191,230.529 217.387,230.209C218.726,228.016 220.224,225.873 221.821,223.76C223.888,229.591 228.381,240.263 246.001,259.795C255.428,270.244 269.078,277.287 270.095,277.833C277.852,281.999 284.485,284.335 289.763,285.68Z" style="fill:white;fill-opacity:0.35;"/>
    <path d="M217.387,230.209L212.329,226.013C212.848,225.623 213.327,225.165 213.753,224.643C213.854,224.519 213.951,224.392 214.046,224.262L220.194,215.773L225.539,219.068C225.507,219.107 225.476,219.148 225.446,219.189C222.489,222.778 219.702,226.419 217.387,230.209Z" style="fill:white;fill-opacity:0.4;"/>
</svg>
