<?xml version="1.0" encoding="UTF-8" standalone="no"?>
<!DOCTYPE svg PUBLIC "-//W3C//DTD SVG 1.1//EN" "http://www.w3.org/Graphics/SVG/1.1/DTD/svg11.dtd">
<svg width="100%" height="100%" viewBox="0 0 300 300" version="1.1" xmlns="http://www.w3.org/2000/svg" xmlns:xlink="http://www.w3.org/1999/xlink" xml:space="preserve" xmlns:serif="http://www.serif.com/" style="fill-rule:evenodd;clip-rule:evenodd;stroke-linejoin:round;stroke-miterlimit:2;">
    <path d="M109.573,88.297C108.834,88.749 106.708,87.839 106.149,87.452C104.99,86.645 104.213,86.029 103.812,85.603C102.187,83.876 100.577,82.16 98.983,80.453C98.436,79.869 97.687,79.391 96.736,79.023C95.12,77.858 93.271,77.307 91.192,77.368C87.728,77.471 85.981,79.523 85.009,82.85C84.648,84.083 84.62,85.441 84.288,86.645C83.849,88.223 83.576,89.149 83.461,89.42C82.585,91.534 80.95,92.792 78.772,93.105C76.5,93.431 74.278,93.179 72.016,93.231C70.434,93.266 69.325,93.46 68.688,93.812C66.308,95.125 65.307,97.129 65.689,99.823C66.003,102.056 66.91,104.031 68.408,105.748C68.741,106.125 69.076,106.671 69.421,107.384C69.474,107.493 69.496,107.616 69.487,107.735C69.446,108.236 69.328,108.742 69.129,109.258C68.331,111.34 66.966,113.011 65.043,114.27C64.452,114.657 63.8,115.044 63.085,115.431L62.538,115.625L61.541,115.735C58.809,116.442 51.696,114.967 55.183,108.439C55.223,108.364 55.077,108.31 54.996,108.316C53.833,110.844 44.644,109.411 47.737,102.453C47.868,102.159 47.582,101.837 47.268,101.85C44.4,102.946 42.201,102.868 41.814,99.607C43.924,99.394 45.686,98.397 47.103,96.613C48.129,95.319 49.045,93.992 49.85,92.627C51.587,89.681 53.048,87.3 54.232,85.477C55.021,84.254 56.441,82.311 57.669,82.027C58.669,81.795 60.046,81.743 61.096,81.811C63.918,81.995 66.494,82.011 68.828,81.856C71.05,81.711 71.718,79.898 71.892,77.904C72.134,75.158 71.295,72.699 70.009,70.143C69.173,68.488 68.042,66.916 66.612,65.422C64.173,62.873 61.336,59.959 57.703,59.227C57.349,59.156 56.646,58.985 55.593,58.717C54.173,58.356 52.423,58.807 50.972,59.743C49.996,60.372 48.903,60.956 47.728,61.315C47.753,59.992 48.307,59.053 48.909,58.246C51.789,54.383 56.949,54.369 63.393,59.227C63.608,59.389 64.64,59.381 64.134,57.884C63.078,54.757 68.408,40.508 80.824,49.171C81.979,49.976 84.553,52.742 85.879,51.024C87.577,48.824 96.191,44.907 100.96,54.524C101.32,55.249 103.23,56.592 104.081,56.761C106.889,57.32 113.516,55.397 113.746,63.983C113.767,64.787 115.182,69.001 118.276,69.387C125.371,70.27 127.903,69.387 129.366,71.648C133.442,77.949 124.727,81.43 122.563,81.172C119.124,80.763 120.092,85.277 117.101,86.977C113.957,88.764 109.572,88.277 109.573,88.297Z" style="fill:white;fill-opacity:0.35;fill-rule:nonzero;"/>
    <path d="M236.981,127.909C236.679,127.648 236.313,127.312 235.884,126.899C235.004,126.051 234.392,125.199 234.047,124.35L233.463,122.64C233.423,121.256 233.466,120.349 233.59,119.917C234.377,117.187 235.483,114.15 234.709,111.278C234.575,110.782 234.29,110.191 233.851,109.507C232.826,107.91 231.807,106.432 231.766,104.438C231.726,102.447 231.925,99.788 229.684,99.552C225.436,99.1 228.457,94.38 226.008,92.621C225.439,92.211 224.274,92.256 223.743,92.156C222.043,91.83 220.946,89.785 219.678,88.884C216.925,86.935 214.004,86.513 210.915,87.616C210.707,87.69 210.486,87.539 210.467,87.31C210.43,86.816 210.272,86.261 209.989,85.641C209.731,84.967 209.134,84.583 208.199,84.489C206.981,84.37 205.701,84.615 204.358,85.225C204.33,85.177 204.308,85.145 204.299,85.128C204.259,85.061 204.172,85.041 204.106,85.083C202.348,86.203 200.424,86.848 198.336,87.026C197.348,87.11 195.999,87.042 195.505,86.042C194.787,84.586 194.1,83.867 192.832,82.85C192.755,82.786 192.686,82.708 192.63,82.618L191.913,81.447C191.866,81.369 191.838,81.282 191.835,81.192C191.757,79.746 191.77,78.807 191.872,78.371C192.102,77.413 192.677,76.522 193.597,75.703C193.69,75.622 193.706,75.48 193.634,75.377C191.959,73.015 192.571,69.143 193.053,66.271C193.1,65.977 193.24,65.58 193.473,65.08C194.066,63.793 195.036,62.999 196.378,62.699C198.14,62.302 200.191,62.041 202.525,61.908C203.14,61.873 203.892,61.924 204.784,62.063C204.945,62.089 205.07,62.07 205.154,62.002C205.278,61.902 205.297,61.718 205.194,61.608C202.944,59.172 203.594,55.045 204.796,52.254C205.791,49.937 207.727,50.066 209.824,50.427C214.141,51.176 218.187,51.999 221.956,52.896C222.105,52.931 222.257,52.864 222.335,52.728C223.491,50.727 226.014,50.763 227.72,51.815C229.234,52.747 230.902,53.519 232.108,54.19C233.308,54.861 234.004,53.632 234.467,52.802C235.107,51.657 236.645,50.802 237.73,50.689C239.579,50.495 241.403,50.905 243.202,51.918C247.4,54.28 250.753,57.639 253.258,61.995C253.394,62.231 253.733,62.192 253.817,61.931L254.23,60.621C254.293,60.418 254.411,60.237 254.572,60.101C255.414,59.385 256.353,58.888 257.388,58.61C258.354,58.352 259.314,58.388 260.274,58.714C262.018,59.307 263.429,60.408 264.504,62.018C265.936,64.161 267.064,66.455 267.888,68.898C268.177,69.756 268.307,70.676 268.273,71.66C268.248,72.441 268.006,72.925 267.568,73.463C267.409,73.657 267.493,73.951 267.726,74.025C271.272,75.158 273.503,77.552 274.417,81.208C274.581,81.866 274.501,82.695 274.681,83.231C274.731,83.386 274.743,83.554 274.712,83.715C274.544,84.58 274.594,85.706 274.264,86.555C272.906,90.056 270.75,91.866 267.695,94.986C267.627,95.057 267.617,95.17 267.677,95.251C268.979,97.042 269.24,98.884 269.541,101.033C269.557,101.143 269.541,101.256 269.501,101.359C269.274,101.924 269.423,102.727 269.131,103.386C268.009,105.893 266.104,106.861 263.41,106.29C263.286,106.264 263.18,106.387 263.22,106.512C263.885,108.536 264.314,110.882 264.013,113.063C263.823,114.441 263.714,115.189 263.69,115.305C263.133,117.835 261.94,119.933 260.104,121.598C259.193,122.424 258.283,122.911 257.378,123.063C256.692,123.176 256.166,123.272 255.803,123.353C255.697,123.376 255.588,123.382 255.483,123.369C254.426,123.247 253.652,123.047 253.164,122.769C252.953,122.65 252.711,122.866 252.795,123.101C253.426,124.867 252.419,127.335 251.362,128.335C249.087,130.491 245.315,130.623 242.307,130.007C241.577,129.855 240.675,129.549 239.603,129.087C238.752,128.716 237.879,128.326 236.981,127.909Z" style="fill:white;fill-opacity:0.35;fill-rule:nonzero;"/>
    <path d="M41.814,99.607C41.504,99.43 41.298,99.404 41.202,99.533C40.484,100.459 39.993,101.527 39.726,102.731C39.655,103.05 39.54,104.238 39.381,106.29C38.812,113.608 38.461,117.88 38.328,119.11C37.597,125.844 36.56,132.582 35.217,139.329C35.012,140.365 34.804,141.426 34.596,142.511L31.292,157.154C31.184,157.632 31.193,158.132 31.314,158.603C31.88,160.771 32.24,162.953 32.392,165.15C32.625,168.483 32.722,170.694 32.684,171.784C32.619,173.811 32.52,176.095 32.386,178.641C32.333,179.7 32.066,181.62 31.584,184.404C30.612,185.15 29.207,185.521 27.374,185.511C25.839,185.288 24.161,185.814 22.977,185.818C21.249,185.824 19.642,186.189 17.815,186.195C13.76,186.215 11.522,186.331 8.176,185.543C7.536,185.395 6.992,185.424 6.442,185.292C6.274,185.253 6.119,185.169 5.988,185.056C4.785,184.011 3.897,183.059 3.325,182.204C1.815,179.942 0.795,177.589 0.27,175.153C0.015,173.975 -0.059,172.333 0.046,170.229C0.367,163.892 1.784,157.848 4.074,151.575C5.68,147.177 7.436,142.869 9.347,138.651C11.485,133.937 14.655,127.009 17.666,120.994C20.686,114.96 22.942,110.759 25.171,105.719C29.015,97.022 31.532,91.192 32.716,88.233C33.555,86.138 34.102,84.657 34.353,83.792C34.76,82.392 34.673,80.863 34.875,79.646C35.233,77.494 35.851,75.609 36.724,73.989C38.614,70.488 40.693,67.51 42.961,65.058C44.232,63.686 45.82,62.437 47.728,61.315C48.903,60.956 49.996,60.372 50.972,59.743C52.423,58.807 54.173,58.356 55.593,58.717C56.646,58.985 57.349,59.156 57.703,59.227C61.336,59.959 64.173,62.873 66.612,65.422C68.042,66.916 69.173,68.488 70.009,70.143C71.295,72.699 72.134,75.158 71.892,77.904C71.718,79.898 71.05,81.711 68.828,81.856C66.494,82.011 63.918,81.995 61.096,81.811C60.046,81.743 58.669,81.795 57.669,82.027C56.441,82.311 55.021,84.254 54.232,85.477C53.048,87.3 51.587,89.681 49.85,92.627C49.045,93.992 48.129,95.319 47.103,96.613C45.686,98.397 43.924,99.394 41.814,99.607ZM24.419,183.149C24.437,183.236 24.484,183.291 24.555,183.31C24.667,183.339 24.76,183.217 24.701,183.117C24.649,183.03 24.571,183.007 24.474,183.043C24.431,183.059 24.409,183.104 24.419,183.149Z" style="fill:white;fill-opacity:0.75;fill-rule:nonzero;"/>
    <path d="M100.746,90.947C100.836,91.248 100.924,91.546 101.009,91.839C100.202,91.465 99.167,91.215 98.03,91.162C95.381,91.037 93.187,92.027 93.127,93.376C93.069,94.725 95.167,95.919 97.817,96.042C99.493,96.121 100.987,95.754 101.873,95.131C101.946,95.469 102.003,95.768 102.039,96.02C102.043,96.056 102.047,96.091 102.053,96.125C102.926,100.391 103.378,103.999 103.265,108.032C103.222,109.578 103.06,110.766 102.777,111.591C102.172,113.357 100.636,112.611 99.337,112.024C98.147,111.485 97.443,111.277 96.534,112.305C94.894,114.158 95.201,115.983 95.279,118.581C95.294,119.078 95.586,119.723 96.161,120.52C95.176,120.159 94.312,119.72 93.57,119.203C92.979,118.794 92.51,118.681 91.929,119.055C89.608,120.556 94.685,123.172 95.496,123.553C95.033,124.182 94.763,124.85 94.682,125.554C94.549,126.745 94.359,127.79 94.113,128.69C93.812,129.8 93.271,130.765 92.498,131.585C91.587,132.55 90.788,133.592 90.105,134.715C90.105,134.715 87.953,134.46 85.394,133.905C84.145,133.356 82.895,132.84 81.649,132.353C79.813,131.636 78.579,131.097 77.945,130.736C75.568,129.378 73.604,127.745 72.05,125.831C69.002,122.072 66.317,118.868 63.996,116.219C63.756,115.944 63.452,115.68 63.085,115.431C63.8,115.044 64.452,114.657 65.043,114.27C66.966,113.011 68.331,111.34 69.129,109.258C69.328,108.742 69.446,108.236 69.487,107.735C69.496,107.616 69.474,107.493 69.421,107.384C69.076,106.671 68.741,106.125 68.408,105.748C66.91,104.031 66.003,102.056 65.689,99.823C65.307,97.129 66.308,95.125 68.688,93.812C69.325,93.46 70.434,93.266 72.016,93.231C74.278,93.179 76.5,93.431 78.772,93.105C80.95,92.792 82.585,91.534 83.461,89.42C83.576,89.149 83.849,88.223 84.288,86.645C84.62,85.441 84.648,84.083 85.009,82.85C85.981,79.523 87.728,77.471 91.192,77.368C93.271,77.307 95.12,77.858 96.736,79.023C97.134,80.562 97.665,82.018 98.327,83.386C98.327,83.386 98.558,84.065 98.906,85.119C99.104,85.761 99.306,86.384 99.514,86.988C99.673,87.48 99.839,88.001 100.007,88.537C100.255,89.325 100.507,90.144 100.746,90.947ZM98.811,98.843C98.209,98.726 97.513,99.801 97.252,101.245C96.991,102.689 97.268,103.954 97.869,104.07C98.47,104.186 99.166,103.111 99.427,101.667C99.688,100.223 99.412,98.958 98.811,98.843Z" style="fill:white;fill-opacity:0.95;"/>
    <path d="M98.906,85.119C98.558,84.065 98.327,83.386 98.327,83.386C97.665,82.018 97.134,80.562 96.736,79.023C97.687,79.391 98.436,79.869 98.983,80.453C100.577,82.16 102.187,83.876 103.812,85.603C104.213,86.029 104.99,86.645 106.149,87.452C106.708,87.839 108.834,88.749 109.573,88.297C109.667,88.3 109.741,88.323 109.8,88.365C109.859,88.407 109.893,88.475 109.909,88.571C110.011,89.255 110.154,93.944 110.182,94.476C110.189,94.58 110.142,94.68 110.058,94.738C109.9,94.851 109.694,94.919 109.449,94.944C108.178,94.628 107.42,95.064 107.174,96.254C107.149,96.371 107.153,96.493 107.184,96.609C107.417,97.497 107.836,98.281 108.442,98.958C108.806,99.468 109.465,99.927 109.362,100.624C109.281,101.143 109.129,102.282 108.952,102.795C108.921,102.889 108.786,102.969 108.731,102.886C108.442,102.443 107.816,102.508 107.442,103.631C107.094,104.673 107.043,105.472 107.248,106.258C107.344,106.628 107.826,106.889 108.072,106.63C108.252,106.691 108.243,106.864 108.187,107.055L103.98,121.194C101,121.737 98.396,121.511 96.161,120.52C95.586,119.723 95.294,119.078 95.279,118.581C95.201,115.983 94.894,114.158 96.534,112.305C97.443,111.277 98.147,111.485 99.337,112.024C100.636,112.611 102.172,113.357 102.777,111.591C103.06,110.766 103.222,109.578 103.265,108.032C103.378,103.999 102.926,100.391 102.053,96.125C102.047,96.091 102.043,96.056 102.039,96.02C102.003,95.768 101.946,95.469 101.873,95.131C102.387,94.77 102.697,94.323 102.719,93.828C102.752,93.058 102.083,92.338 101.009,91.839C100.924,91.546 100.836,91.248 100.746,90.947C100.507,90.144 100.255,89.325 100.007,88.537C99.839,88.001 99.673,87.48 99.514,86.988C99.306,86.384 99.104,85.761 98.906,85.119Z" style="fill:white;fill-opacity:0.85;"/>
    <path d="M209.989,85.641C209.973,86.561 209.952,87.397 209.93,88.149C207.155,93.66 205.25,99.504 204.215,105.68C203.973,107.116 203.497,108.836 205.486,108.962C206.434,109.02 208.215,108.358 208.867,109.642C209.591,111.065 209.653,112.553 209.05,114.105C208.497,115.531 208.009,117.003 207.584,118.519C205.952,118.639 204.2,118.368 202.323,117.706C201.965,117.58 201.62,117.919 201.72,118.297C202.04,119.516 206.207,119.784 207.292,119.733C207.17,120.846 207.059,121.94 206.956,123.021C206.798,124.663 206.959,125.625 207.568,126.948C208.121,128.155 208.768,129.445 209.504,130.82C209.656,131.101 209.719,131.543 209.697,132.143C207.643,132.262 205.946,131.611 204.601,130.181C201.602,126.993 200.626,120.768 200.433,116.367C200.225,111.575 200.29,106.842 200.632,102.163C200.638,102.056 200.753,101.995 200.84,102.05C201.185,102.266 201.561,102.195 201.735,101.753C202.093,100.846 202.143,99.981 201.881,99.159C201.782,98.839 201.366,98.775 201.111,99.036C201.046,99.104 201.002,99.146 200.98,99.168C200.918,99.23 200.819,99.175 200.828,99.088L201.126,96.4C201.139,96.29 201.207,96.193 201.31,96.151L203.184,95.377C203.603,95.202 203.615,94.589 203.202,94.399C202.72,94.176 202.251,94.063 201.798,94.063C201.661,94.063 201.558,93.931 201.586,93.792C202.198,90.769 203.124,87.913 204.358,85.225C205.701,84.615 206.981,84.37 208.199,84.489C209.134,84.583 209.731,84.967 209.989,85.641Z" style="fill:white;fill-opacity:0.75;fill-rule:nonzero;"/>
    <path d="M209.989,85.641C210.272,86.261 210.43,86.816 210.467,87.31C210.486,87.539 210.707,87.69 210.915,87.616C214.004,86.513 216.925,86.935 219.678,88.884C220.946,89.785 222.043,91.83 223.743,92.156C224.274,92.256 225.439,92.211 226.008,92.621C228.457,94.38 225.436,99.1 229.684,99.552C231.925,99.788 231.726,102.447 231.766,104.438C231.807,106.432 232.826,107.91 233.851,109.507C234.29,110.191 234.575,110.782 234.709,111.278C235.483,114.15 234.377,117.187 233.59,119.917C233.466,120.349 233.423,121.256 233.463,122.64C232.845,122.798 232.288,123.063 231.791,123.44C228.413,125.989 224.771,128.026 220.862,129.552C218.935,130.304 216.987,131.023 215.014,131.711L214.921,131.659C214.855,131.623 214.784,131.611 214.712,131.627C213.106,131.965 211.434,132.137 209.697,132.143C209.719,131.543 209.656,131.101 209.504,130.82C208.768,129.445 208.121,128.155 207.568,126.948C206.959,125.625 206.798,124.663 206.956,123.021C207.059,121.94 207.17,120.846 207.292,119.733C208.485,119.755 209.743,119.597 211.07,119.265C211.751,119.094 212.444,118.765 213.149,118.274C213.361,118.129 213.432,117.842 213.317,117.609L213.311,117.59C213.199,117.361 212.932,117.261 212.705,117.367C211.117,118.093 209.411,118.477 207.584,118.519C208.009,117.003 208.497,115.531 209.05,114.105C209.653,112.553 209.591,111.065 208.867,109.642C208.215,108.358 206.434,109.02 205.486,108.962C203.497,108.836 203.973,107.116 204.215,105.68C205.25,99.504 207.155,93.66 209.93,88.149C209.952,87.397 209.973,86.561 209.989,85.641ZM217.978,95.761C217.714,95.386 217.31,95.048 216.773,94.744C214.311,93.357 211.251,92.411 208.814,93.844C208.46,94.054 208.435,94.573 208.768,94.815C209.579,95.406 212.379,95.325 213.64,95.348C215.16,95.377 216.164,95.609 217.571,96.141C217.739,96.203 217.876,96.154 217.978,95.996C218.031,95.916 218.031,95.835 217.978,95.761ZM210.278,98.284C209.75,98.22 209.203,99.184 209.057,100.44C208.914,101.698 209.224,102.769 209.756,102.834C210.284,102.898 210.831,101.934 210.977,100.678C211.12,99.42 210.809,98.349 210.278,98.284Z" style="fill:white;fill-opacity:0.95;fill-rule:nonzero;"/>
    <path d="M217.978,95.761C218.031,95.835 218.031,95.916 217.978,95.996C217.876,96.154 217.739,96.203 217.571,96.141C216.164,95.609 215.16,95.377 213.64,95.348C212.379,95.325 209.579,95.406 208.768,94.815C208.435,94.573 208.46,94.054 208.814,93.844C211.251,92.411 214.311,93.357 216.773,94.744C217.31,95.048 217.714,95.386 217.978,95.761Z" style="fill:white;fill-opacity:0.15;fill-rule:nonzero;"/>
    <path d="M109.449,94.944C112.33,96.17 110.961,102.579 108.442,98.958C107.836,98.281 107.417,97.497 107.184,96.609C107.153,96.493 107.149,96.371 107.174,96.254C107.42,95.064 108.178,94.628 109.449,94.944Z" style="fill:white;fill-opacity:0.15;fill-rule:nonzero;"/>
    <path d="M210.278,98.284C210.809,98.349 211.12,99.42 210.977,100.678C210.831,101.934 210.284,102.898 209.756,102.834C209.224,102.769 208.914,101.698 209.057,100.44C209.203,99.184 209.75,98.22 210.278,98.284Z" style="fill:white;fill-opacity:0.15;fill-rule:nonzero;"/>
    <path d="M98.811,98.843C99.412,98.958 99.688,100.223 99.427,101.667C99.166,103.111 98.47,104.186 97.869,104.07C97.268,103.954 96.991,102.689 97.252,101.245C97.513,99.801 98.209,98.726 98.811,98.843Z" style="fill:white;fill-opacity:0.15;fill-rule:nonzero;"/>
    <path d="M63.085,115.431C63.452,115.68 63.756,115.944 63.996,116.219C66.317,118.868 69.002,122.072 72.05,125.831C73.604,127.745 75.568,129.378 77.945,130.736C78.579,131.097 79.813,131.636 81.649,132.353C82.895,132.84 84.145,133.356 85.394,133.905C84.62,134.886 82.429,138.522 81.771,139.287C81.683,139.387 81.662,139.49 81.708,139.59C81.749,139.674 81.836,139.726 81.976,139.742C81.351,140.268 80.869,142.478 80.683,143.314C80.677,143.346 80.695,143.382 80.726,143.392C80.764,143.401 80.801,143.382 80.813,143.346C81.239,142.169 81.811,141.088 82.532,140.107C82.634,139.965 82.55,139.761 82.38,139.745L82.109,139.72C82.274,139.723 82.429,139.7 82.575,139.652C82.672,139.619 82.739,139.545 82.805,139.465C85.543,136.144 95.858,134.658 101.369,135.754C107.26,136.925 112.976,139.945 116.969,144.46C117.084,144.592 117.445,144.737 118.051,144.899C123.352,146.315 129.508,147.893 136.515,149.635C137.535,149.89 138.56,150.2 139.595,150.565C140.244,150.794 141.26,151.152 142.637,151.636C142.883,151.723 149.387,154.118 162.152,158.819C163.877,159.455 164.989,159.852 165.483,160.006C165.729,160.084 165.99,160.081 166.232,160C168.905,159.09 171.835,158.006 175.026,156.747C180.253,154.685 185.489,152.223 190.735,149.364C189.632,153.821 188.951,158.241 188.696,162.623C188.637,163.614 188.383,164.672 188.361,165.734C188.302,168.583 188.268,170.629 188.264,171.865C188.264,172.191 188.131,172.297 187.867,172.178C186.67,172.514 185.44,172.83 184.181,173.123C178.942,174.346 173.684,175.311 168.411,176.011C166.922,176.211 165.701,176.173 164.43,176.524C164.268,176.57 164.097,176.595 163.927,176.599C160.023,176.715 157.494,176.938 154.489,175.698C152.27,174.782 150.751,174.146 149.93,173.791C139.489,169.267 128.05,164.121 115.614,158.348C115.319,158.209 115.046,158.067 114.791,157.922C113.38,157.096 111.279,157.509 110.018,157.667C109.844,157.69 109.663,157.693 109.486,157.673C106.721,157.383 104.76,156.386 102.199,155.005C100.207,153.943 98.225,152.875 96.248,151.794C94.2,150.675 92.106,149.881 89.971,149.416C88.358,149.061 87.069,149.11 85.217,149.042C82.992,148.961 82.038,147.683 81.087,145.802C81.009,145.65 80.848,145.566 80.683,145.596C79.142,145.867 78.865,144.799 78.408,143.434C78.212,142.837 78.004,142.291 77.79,141.804C76.892,139.768 76.342,138.577 76.134,138.229C73.921,134.495 71.963,130.939 70.257,127.564C69.574,126.212 68.94,125.041 68.355,124.05C67.109,121.937 66.423,120.788 66.298,120.604C65.823,119.894 64.567,118.235 62.538,115.625L63.085,115.431Z" style="fill:white;fill-opacity:0.75;fill-rule:nonzero;"/>
    <path d="M62.538,115.625C64.567,118.235 65.823,119.894 66.298,120.604C66.423,120.788 67.109,121.937 68.355,124.05C68.94,125.041 69.574,126.212 70.257,127.564C71.963,130.939 73.921,134.495 76.134,138.229C76.342,138.577 76.892,139.768 77.79,141.804C78.004,142.291 78.212,142.837 78.408,143.434C78.865,144.799 79.142,145.867 80.683,145.596C80.848,145.566 81.009,145.65 81.087,145.802C82.038,147.683 82.992,148.961 85.217,149.042C87.069,149.11 88.358,149.061 89.971,149.416C92.106,149.881 94.2,150.675 96.248,151.794C98.225,152.875 100.207,153.943 102.199,155.005C102.967,158.225 103.495,161.668 103.781,165.334C104.325,172.32 104.682,177.105 104.853,179.684C104.862,179.829 104.8,179.971 104.691,180.061C104.129,180.529 103.7,181.107 103.405,181.794L98.365,186.366C98.278,186.444 98.178,186.502 98.072,186.537C97.37,186.776 96.966,187.331 96.236,187.647C95.596,187.922 95.071,188.222 94.664,188.544C94.573,188.615 94.452,188.625 94.356,188.567L93.337,187.954C93.122,187.828 92.858,187.989 92.864,188.244C92.892,189.348 92.843,190.416 92.712,191.448C92.401,193.946 92.485,196.327 92.302,198.986C92.205,200.393 92.168,201.836 92.19,203.313C92.292,210.487 92.37,215.911 92.417,219.586C92.42,219.838 92.541,222.871 92.774,228.689C92.898,231.738 92.945,234.772 92.911,237.795C91.627,240.031 90.639,241.964 88.424,243.552C85.658,245.533 82.684,247.192 79.502,248.527C76.454,249.809 73.486,251.031 70.599,252.2C69.393,252.687 67.24,253.145 64.139,253.571C64.048,253.584 63.955,253.587 63.862,253.584L59.12,253.397C59.098,253.397 59.073,253.393 59.052,253.387C58.169,253.158 57.05,252.993 55.699,252.9C55.09,252.858 54.471,252.629 53.906,252.596C53.237,252.561 51.547,252.361 48.831,251.996C47.908,251.87 47.134,251.703 46.507,251.486C45.453,246.872 44.418,242.28 43.399,237.711C41.519,229.289 39.76,220.767 38.12,212.142C36.805,205.224 35.78,198.357 35.043,191.545C34.875,189.993 34.785,188.583 34.773,187.318C34.76,186.047 34.763,184.63 34.785,183.068C34.785,182.949 34.667,182.868 34.561,182.92L31.584,184.404C32.066,181.62 32.333,179.7 32.386,178.641C32.52,176.095 32.619,173.811 32.684,171.784C32.722,170.694 32.625,168.483 32.392,165.15C32.24,162.953 31.88,160.771 31.314,158.603C31.193,158.132 31.184,157.632 31.292,157.154L34.596,142.511C36.702,141.578 38.048,141.026 38.635,140.855C43.977,139.306 48.828,136.78 53.188,133.276C53.688,132.872 54.71,132.001 56.255,130.662C57.544,129.542 58.486,128.581 59.08,127.777C60.667,125.622 61.718,122.963 61.681,120.236C61.671,119.516 61.805,117.993 61.59,116.809C61.522,116.422 61.507,116.064 61.541,115.735L62.538,115.625Z" style="fill:white;fill-opacity:0.95;fill-rule:nonzero;"/>
    <path d="M207.292,119.733C206.207,119.784 202.04,119.516 201.72,118.297C201.62,117.919 201.965,117.58 202.323,117.706C204.2,118.368 205.952,118.639 207.584,118.519C209.411,118.477 211.117,118.093 212.705,117.367C212.932,117.261 213.199,117.361 213.311,117.59L213.317,117.609C213.432,117.842 213.361,118.129 213.149,118.274C212.444,118.765 211.751,119.094 211.07,119.265C209.743,119.597 208.485,119.755 207.292,119.733Z" style="fill:white;fill-opacity:0.15;fill-rule:nonzero;"/>
    <path d="M96.161,120.52C98.396,121.511 101,121.737 103.98,121.194C103.958,121.74 103.277,123.789 103.094,124.186C101.525,124.615 100.064,124.676 98.716,124.373C98.274,124.273 97.202,124.002 95.496,123.553C94.685,123.172 89.608,120.556 91.929,119.055C92.51,118.681 92.979,118.794 93.57,119.203C94.312,119.72 95.176,120.159 96.161,120.52Z" style="fill:white;fill-opacity:0.15;fill-rule:nonzero;"/>
    <path d="M233.463,122.64L234.047,124.35C231.477,126.315 229.128,128.5 227.006,130.897C223.973,134.324 221.692,137.37 220.573,141.646C220.48,141.994 220.191,142.253 219.843,142.288L216.813,142.604C216.909,141.401 217.093,140.123 217.062,139.019C216.984,136.457 216.303,134.021 215.014,131.711C216.987,131.023 218.935,130.304 220.862,129.552C224.771,128.026 228.413,125.989 231.791,123.44C232.288,123.063 232.845,122.798 233.463,122.64Z" style="fill:white;fill-opacity:0.75;fill-rule:nonzero;"/>
    <path d="M103.094,124.186L102.053,126.357C102.038,126.39 102.019,126.422 101.997,126.454C101.034,127.864 100.049,129.258 99.045,130.636C98.097,131.936 96.873,133.053 95.372,133.992C93.921,134.899 92.165,135.141 90.105,134.715C90.788,133.592 91.587,132.55 92.498,131.585C93.271,130.765 93.812,129.8 94.113,128.69C94.359,127.79 94.549,126.745 94.682,125.554C94.763,124.85 95.033,124.182 95.496,123.553C97.202,124.002 98.274,124.273 98.716,124.373C100.064,124.676 101.525,124.615 103.094,124.186Z" style="fill:white;fill-opacity:0.85;fill-rule:nonzero;"/>
    <path d="M234.047,124.35C234.392,125.199 235.004,126.051 235.884,126.899C236.313,127.312 236.679,127.648 236.981,127.909C236.9,130.41 237.31,132.443 238.214,134.002C239.976,137.048 242.173,139.716 244.808,142.004C245.477,142.588 246.496,142.749 247.86,142.491C246.62,144.431 245.411,146.318 244.23,148.154C242.583,150.72 241.076,152.578 239.417,154.782C238.609,155.854 237.627,156.68 236.9,157.909C236.85,157.996 236.791,158.074 236.723,158.141L233.559,161.429C233.469,161.523 233.373,161.6 233.267,161.668C232.786,161.968 232.478,162.191 232.344,162.33C231.776,162.94 230.644,163.885 228.945,165.173C225.604,167.702 221.247,169.571 217.344,168.264C216.912,168.119 215.958,167.618 214.482,166.76C214.361,166.689 214.249,166.602 214.153,166.502C212.733,165.024 211.72,163.23 211.114,161.116C210.527,159.067 210.62,156.641 210.663,154.598C210.71,152.278 211.241,149.997 212.251,147.754C212.997,146.096 213.867,144.498 214.861,142.962L216.813,142.604L219.843,142.288C220.191,142.253 220.48,141.994 220.573,141.646C221.692,137.37 223.973,134.324 227.006,130.897C229.128,128.5 231.477,126.315 234.047,124.35Z" style="fill:white;fill-opacity:0.95;fill-rule:nonzero;"/>
    <path d="M81.976,139.742L82.109,139.72L82.38,139.745C82.55,139.761 82.634,139.965 82.532,140.107C81.811,141.088 81.239,142.169 80.813,143.346C80.801,143.382 80.764,143.401 80.726,143.392C80.695,143.382 80.677,143.346 80.683,143.314C80.869,142.478 81.351,140.268 81.976,139.742Z" style="fill:white;fill-opacity:0.95;fill-rule:nonzero;"/>
    <path d="M187.998,172.221C188.175,172.251 188.264,172.132 188.264,171.865C188.268,170.629 188.302,168.583 188.361,165.734C188.383,164.672 188.637,163.614 188.696,162.623C188.951,158.241 189.632,153.821 190.735,149.364C191.123,148.348 191.425,147.674 191.642,147.338C191.882,146.967 192.338,146.631 193.01,146.331C194.548,145.644 195.778,145.118 196.695,144.757C200.545,143.237 204.535,142.407 208.659,142.262C208.923,142.253 209.187,142.278 209.445,142.333C210.673,142.598 211.934,142.701 213.224,142.64C213.339,142.637 213.451,142.646 213.563,142.672L214.861,142.962C213.867,144.498 212.997,146.096 212.251,147.754C211.241,149.997 210.71,152.278 210.663,154.598C210.62,156.641 210.527,159.067 211.114,161.116C211.72,163.23 212.733,165.024 214.153,166.502C214.249,166.602 214.361,166.689 214.482,166.76C215.958,167.618 216.912,168.119 217.344,168.264C221.247,169.571 225.604,167.702 228.945,165.173C230.644,163.885 231.776,162.94 232.344,162.33C232.478,162.191 232.786,161.968 233.267,161.668C233.373,161.6 233.469,161.523 233.559,161.429L236.723,158.141C236.791,158.074 236.85,157.996 236.9,157.909C237.627,156.68 238.609,155.854 239.417,154.782C241.076,152.578 242.583,150.72 244.23,148.154C245.411,146.318 246.62,144.431 247.86,142.491C248.323,142.149 248.945,141.946 249.724,141.878C250.865,141.781 252.674,142.023 253.861,142.369C258.071,143.598 261.735,145.605 264.846,148.39C265.066,148.587 265.809,149.352 267.08,150.681C267.847,151.484 268.537,152.304 269.153,153.137C269.836,154.063 271.291,156.147 273.515,159.384C275.029,161.588 275.824,163.853 275.905,166.179C275.812,166.07 275.709,166.066 275.594,166.173C275.041,166.673 274.479,167.354 273.904,168.215C272.422,170.445 270.806,173.101 269.056,176.186C268.295,177.528 267.754,178.919 267.024,180.106C265.964,181.826 265.305,184.059 264.23,186.008C264.181,186.098 264.153,186.202 264.156,186.308C264.159,186.499 264.202,186.686 264.286,186.866C264.038,186.899 263.746,187.183 263.41,187.722C263.211,188.041 262.953,188.218 262.633,188.254C262.338,188.289 261.946,188.283 261.462,188.235C261.334,188.222 261.216,188.173 261.117,188.096L259.448,186.753C259.352,186.676 259.283,186.566 259.258,186.44C259.199,186.15 259.016,185.821 258.714,185.45C258.649,185.369 258.528,185.369 258.46,185.447C258.093,185.856 257.875,186.131 257.81,186.263C257.086,187.741 255.974,189.819 254.473,192.494C253.941,193.443 253.41,194.827 252.879,196.647C251.953,199.819 251.294,202.7 251.443,205.614C251.455,205.846 251.406,206.685 251.297,208.131C251.213,209.251 251.204,210.635 251.269,212.278C251.483,217.728 252.083,222.858 253.065,227.676L253.749,229.615L254.429,231.477C253.45,230.819 252.412,230.293 251.316,229.896C250.24,229.509 249.106,229.325 247.913,229.347C244.69,229.409 241.629,230.206 238.733,231.732C236.95,232.671 235.651,233.581 234.833,234.455C233.724,235.64 232.562,237.414 231.347,239.776C230.07,239.847 228.811,239.931 227.568,240.025C226.111,240.138 224.852,240.196 223.789,240.193C218.218,240.176 215.3,240.173 215.039,240.176C214.06,240.189 213.233,239.896 212.251,239.802C209.905,239.573 207.776,239.196 205.865,238.673C201.804,237.563 200.763,234.601 201.735,230.509C201.782,230.315 201.81,230.115 201.813,229.915C201.819,229.673 201.829,227.492 201.838,223.371C201.844,220.825 201.325,218.266 201.4,215.795C201.409,215.453 201.381,215.107 201.316,214.772C200.983,213.065 201.12,211.264 200.85,209.748C200.816,209.551 200.701,208.457 200.505,206.472C200.334,204.72 199.89,203.059 199.175,201.487C197.127,196.966 195.399,192.768 193.992,188.886C192.559,184.927 191.773,181.003 191.636,177.115C191.608,176.318 191.658,175.595 191.791,174.947C191.823,174.798 191.717,174.656 191.571,174.65L190.238,174.598C190.176,174.595 190.12,174.575 190.07,174.537C189.271,173.888 188.712,173.236 188.398,172.581C188.319,172.415 188.186,172.295 187.998,172.221ZM187.998,172.221C187.958,172.214 187.915,172.2 187.867,172.178C187.913,172.19 187.957,172.204 187.998,172.221Z" style="fill:white;fill-opacity:0.5;"/>
    <path d="M275.905,166.179C281.132,175.047 286.458,183.924 291.884,192.813C294.041,196.344 295.98,199.693 297.701,202.858C298.779,204.84 299.5,206.482 299.87,207.789C300.196,208.938 299.907,210.006 299.006,210.99C297.471,212.671 296.222,214.004 295.259,214.991C294.106,216.179 292.732,217.379 291.141,218.589C286.654,222.006 282.788,224.701 279.547,226.672C272.241,231.116 266.474,234.736 262.245,237.537C261.906,237.763 261.654,238.102 261.533,238.499C260.759,240.993 259.659,243.252 258.227,245.275C256.925,247.117 255.172,247.705 252.972,247.04C252.875,247.011 251.316,246.553 248.292,245.665C246.934,245.265 244.364,244.868 242.674,245.133C240.303,245.51 238.074,246.078 235.989,246.837C233.553,247.721 231.925,247.014 231.104,244.717C230.585,243.261 230.666,241.616 231.347,239.776C232.562,237.414 233.724,235.64 234.833,234.455C235.651,233.581 236.95,232.671 238.733,231.732C241.629,230.206 244.69,229.409 247.913,229.347C249.106,229.325 250.24,229.509 251.316,229.896C252.412,230.293 253.45,230.819 254.429,231.477L254.97,232.077C255.035,232.148 255.141,232.161 255.219,232.106C257.186,230.725 259.171,229.063 261.182,227.118C262.241,226.088 263.453,224.672 264.821,222.861C266.064,221.213 267.291,219.709 268.506,218.347C270.433,216.185 271.635,214.665 273.515,212.691C276.123,209.961 278.043,207.983 279.277,206.756C279.311,206.724 279.317,206.669 279.289,206.631C274.476,199.774 269.451,193.323 264.286,186.866C264.202,186.686 264.159,186.499 264.156,186.308C264.153,186.202 264.181,186.098 264.23,186.008C265.305,184.059 265.964,181.826 267.024,180.106C267.754,178.919 268.295,177.528 269.056,176.186C270.806,173.101 272.422,170.445 273.904,168.215C274.479,167.354 275.041,166.673 275.594,166.173C275.709,166.066 275.812,166.07 275.905,166.179Z" style="fill:white;fill-opacity:0.85;fill-rule:nonzero;"/>
    <path d="M103.405,181.794L102.078,199.115L102.078,199.125C101.506,203.53 101.056,207.647 100.726,211.471C100.546,213.555 100.005,216.101 99.875,218.102C99.747,220.054 99.101,222.09 99.02,224.107C99.011,224.278 98.983,224.446 98.933,224.607C98.741,225.223 98.61,225.791 98.542,226.311C98.402,227.382 98.128,228.205 97.877,229.225C97.277,231.648 96.438,233.626 95.366,235.156C94.897,235.824 94.079,236.701 92.911,237.795C92.945,234.772 92.898,231.738 92.774,228.689C92.541,222.871 92.42,219.838 92.417,219.586C92.37,215.911 92.292,210.487 92.19,203.313C92.168,201.836 92.205,200.393 92.302,198.986C92.485,196.327 92.401,193.946 92.712,191.448C92.843,190.416 92.892,189.348 92.864,188.244C92.858,187.989 93.122,187.828 93.337,187.954L94.356,188.567C94.452,188.625 94.573,188.615 94.664,188.544C95.071,188.222 95.596,187.922 96.236,187.647C96.966,187.331 97.37,186.776 98.072,186.537C98.178,186.502 98.278,186.444 98.365,186.366L103.405,181.794Z" style="fill:white;fill-opacity:0.65;fill-rule:nonzero;"/>
    <path d="M46.507,251.486C43.822,251.028 40.823,249.915 39.142,247.627C37.032,244.749 36.031,240.512 35.621,236.94C35.537,236.208 35.354,235.623 35.115,234.778C31.525,222.093 29.111,209.515 27.877,197.037C27.501,193.22 27.333,189.38 27.374,185.511C29.207,185.521 30.612,185.15 31.584,184.404L34.561,182.92C34.667,182.868 34.785,182.949 34.785,183.068C34.763,184.63 34.76,186.047 34.773,187.318C34.785,188.583 34.875,189.993 35.043,191.545C35.78,198.357 36.805,205.224 38.12,212.142C39.76,220.767 41.519,229.289 43.399,237.711C44.418,242.28 45.453,246.872 46.507,251.486Z" style="fill:white;fill-opacity:0.5;fill-rule:nonzero;"/>
    <path d="M24.474,183.043C24.571,183.007 24.649,183.03 24.701,183.117C24.76,183.217 24.667,183.339 24.555,183.31C24.484,183.291 24.437,183.236 24.419,183.149C24.409,183.104 24.431,183.059 24.474,183.043Z" style="fill:white;fill-opacity:0.95;fill-rule:nonzero;"/>
    <path d="M93.127,93.376C93.187,92.027 95.381,91.037 98.03,91.162C100.68,91.285 102.777,92.479 102.719,93.828C102.659,95.177 100.465,96.167 97.817,96.042C95.167,95.919 93.069,94.725 93.127,93.376Z" style="fill:white;fill-opacity:0.15;fill-rule:nonzero;"/>
</svg>
