<?xml version="1.0" encoding="UTF-8" standalone="no"?>
<!DOCTYPE svg PUBLIC "-//W3C//DTD SVG 1.1//EN" "http://www.w3.org/Graphics/SVG/1.1/DTD/svg11.dtd">
<svg width="100%" height="100%" viewBox="0 0 300 300" version="1.1" xmlns="http://www.w3.org/2000/svg" xmlns:xlink="http://www.w3.org/1999/xlink" xml:space="preserve" xmlns:serif="http://www.serif.com/" style="fill-rule:evenodd;clip-rule:evenodd;stroke-linejoin:round;stroke-miterlimit:2;">
    <path d="M269.981,50.449C269.96,51.353 270.168,52.236 270.168,53.047C270.181,59.48 270.181,65.904 270.172,72.324C268.699,72.914 267.094,73.207 265.357,73.207C176.978,73.203 88.583,73.203 0.161,73.207C0.149,66.214 0.161,59.238 0.2,52.287C0.204,51.222 0.548,49.757 1.223,47.889C2.11,45.435 3.609,43.745 5.715,42.819C6.653,42.407 8.734,42.203 11.961,42.203C116.466,42.225 198.692,42.225 258.649,42.212C261.481,42.212 263.446,42.437 264.546,42.883C267.748,44.186 269.166,47.184 269.981,50.449ZM31.59,58.389C31.59,54.415 28.371,51.196 24.397,51.196C20.423,51.196 17.204,54.415 17.204,58.389C17.204,62.363 20.423,65.581 24.397,65.581C28.371,65.581 31.59,62.363 31.59,58.389ZM54.942,58.393C54.942,54.419 51.724,51.2 47.75,51.2C43.775,51.2 40.557,54.419 40.557,58.393C40.557,62.367 43.775,65.586 47.75,65.586C51.724,65.586 54.942,62.367 54.942,58.393ZM78.295,58.393C78.295,54.419 75.076,51.2 71.102,51.2C67.128,51.2 63.91,54.419 63.91,58.393C63.91,62.367 67.128,65.586 71.102,65.586C75.076,65.586 78.295,62.367 78.295,58.393Z" style="fill:white;fill-opacity:0.4;fill-rule:nonzero;"/>
    <path d="M270.151,102.65L270.172,72.324C270.181,65.904 270.181,59.48 270.168,53.047C270.168,52.236 269.96,51.353 269.981,50.449C272.686,55.387 274.363,58.627 275.012,60.159C275.314,60.864 275.607,62.011 275.891,63.594C276.078,64.652 276.171,65.823 276.176,67.118C276.188,79.388 276.184,91.7 276.172,104.063C274.021,103.559 271.954,103.074 270.151,102.65Z" style="fill:white;fill-opacity:0.25;"/>
    <path d="M31.59,58.389C31.59,62.363 28.371,65.581 24.397,65.581C20.423,65.581 17.204,62.363 17.204,58.389C17.204,54.415 20.423,51.196 24.397,51.196C28.371,51.196 31.59,54.415 31.59,58.389Z" style="fill:white;fill-opacity:0.15;fill-rule:nonzero;"/>
    <path d="M54.942,58.393C54.942,62.367 51.724,65.586 47.75,65.586C43.775,65.586 40.557,62.367 40.557,58.393C40.557,54.419 43.775,51.2 47.75,51.2C51.724,51.2 54.942,54.419 54.942,58.393Z" style="fill:white;fill-opacity:0.15;fill-rule:nonzero;"/>
    <path d="M78.295,58.393C78.295,62.367 75.076,65.586 71.102,65.586C67.128,65.586 63.91,62.367 63.91,58.393C63.91,54.419 67.128,51.2 71.102,51.2C75.076,51.2 78.295,54.419 78.295,58.393Z" style="fill:white;fill-opacity:0.15;fill-rule:nonzero;"/>
    <path d="M202.788,182.909L7.371,182.917C7.256,182.917 7.142,182.905 7.027,182.875C4.365,182.174 2.306,180.353 0.849,177.419C0.284,174.527 -0,172.625 -0,171.704C0.047,138.849 0.098,106.015 0.161,73.207C88.583,73.203 176.978,73.203 265.357,73.207C267.094,73.207 268.699,72.914 270.172,72.324L270.151,102.65C266.508,101.793 263.942,101.188 263.942,101.188C263.797,101.154 263.653,101.234 263.611,101.375C263.378,102.12 254.112,156.677 249.67,182.866L230.006,182.917C229.837,182.931 229.689,182.906 229.565,182.843L229.549,181.877C229.163,158.569 228.545,122.098 228.422,120.256L228.418,120.205C228.388,119.955 228.265,119.725 228.074,119.56C227.128,118.743 221.446,113.412 220.597,113.195L195.194,114.851C194.986,114.864 194.82,115.034 194.803,115.242C194.773,115.617 195.134,119.042 195.733,124.281C163.512,124.29 131.312,124.29 99.129,124.281C98.348,124.277 97.491,124.43 97.002,124.982C95.784,126.37 96.858,128.264 98.522,128.268C131.065,128.281 163.62,128.277 196.192,128.26C197.121,136.248 198.402,146.918 199.673,157.391C165.932,157.438 132.225,157.446 98.544,157.408C97.223,157.404 95.847,158.958 96.684,160.282C97.253,161.178 98.098,161.382 99.163,161.382C132.766,161.382 166.432,161.382 200.158,161.386C201.122,169.319 202.053,176.922 202.788,182.909ZM6.624,120.171C6.178,121.012 7.609,122.065 8.267,122.438C12.797,125.016 17.362,127.393 21.968,129.572C22.423,129.788 22.711,130.247 22.711,130.748C22.724,139.061 22.711,146.241 22.673,152.283C22.669,152.958 22.928,153.557 23.454,154.071C24.478,155.068 25.301,154.911 26.253,153.973C26.949,153.285 27.79,152.793 28.528,152.067C31.653,148.997 34.6,146.305 37.368,143.982C38.6,142.951 39.449,141.961 40.566,140.925C40.867,140.645 41.317,140.594 41.674,140.802C46.654,143.723 50.038,145.906 53.707,147.914C55.855,149.094 56.866,147.6 57.795,145.986C60.152,141.902 67.697,129.024 80.422,107.357C81.284,105.884 81.815,104.86 82.014,104.283C82.808,101.96 80.855,101.434 79.08,101.782C73.386,102.912 66.869,104.669 61.23,105.952C60.649,106.083 57.057,106.92 50.454,108.469C39.232,111.098 25.552,114.342 9.413,118.193C8.084,118.511 7.154,119.169 6.624,120.171ZM216.848,96.963C216.848,95.872 215.96,94.984 214.869,94.984L98.446,94.984C97.355,94.984 96.467,95.872 96.467,96.963L96.467,96.988C96.467,98.08 97.355,98.967 98.446,98.967L214.869,98.967C215.96,98.967 216.848,98.08 216.848,96.988L216.848,96.963Z" style="fill:white;fill-opacity:0.65;"/>
    <path d="M216.848,96.988C216.848,98.08 215.96,98.967 214.869,98.967L98.446,98.967C97.355,98.967 96.467,98.08 96.467,96.988L96.467,96.963C96.467,95.872 97.355,94.984 98.446,94.984L214.869,94.984C215.96,94.984 216.848,95.872 216.848,96.963L216.848,96.988Z" style="fill:white;fill-opacity:0.25;fill-rule:nonzero;"/>
    <path d="M276.172,104.063C282.823,105.621 290.274,107.356 293.185,107.994C293.427,108.049 293.576,108.138 293.631,108.266C293.686,108.41 293.669,108.588 293.571,108.796L267.242,200.895C267.208,201.018 267.081,201.09 266.958,201.064L247.83,196.84L247.342,196.602L249.677,182.866L249.67,182.866C254.112,156.677 263.378,102.12 263.611,101.375C263.653,101.234 263.797,101.154 263.942,101.188C263.942,101.188 266.508,101.793 270.151,102.65L276.172,104.063Z" style="fill:white;fill-opacity:0.85;"/>
    <path d="M6.624,120.171C7.154,119.169 8.084,118.511 9.413,118.193C25.552,114.342 39.232,111.098 50.454,108.469C57.057,106.92 60.649,106.083 61.23,105.952C66.869,104.669 73.386,102.912 79.08,101.782C80.855,101.434 82.808,101.96 82.014,104.283C81.815,104.86 81.284,105.884 80.422,107.357C67.697,129.024 60.152,141.902 57.795,145.986C56.866,147.6 55.855,149.094 53.707,147.914C50.038,145.906 46.654,143.723 41.674,140.802C41.317,140.594 40.867,140.645 40.566,140.925C39.449,141.961 38.6,142.951 37.368,143.982C34.6,146.305 31.653,148.997 28.528,152.067C27.79,152.793 26.949,153.285 26.253,153.973C25.301,154.911 24.478,155.068 23.454,154.071C22.928,153.557 22.669,152.958 22.673,152.283C22.711,146.241 22.724,139.061 22.711,130.748C22.711,130.247 22.423,129.788 21.968,129.572C17.362,127.393 12.797,125.016 8.267,122.438C7.609,122.065 6.178,121.012 6.624,120.171ZM69.756,111.573C69.705,111.476 69.586,111.433 69.489,111.484L26.669,132.888C26.584,132.93 26.533,133.015 26.533,133.108C26.524,135.452 26.537,137.834 26.571,140.254C26.592,141.936 26.987,143.061 26.826,144.887C26.762,145.6 26.843,146.568 27.076,147.791C27.119,147.999 27.382,148.067 27.518,147.906C27.904,147.443 28.223,146.971 28.477,146.487C29.798,143.995 31.182,141.554 32.621,139.163C33.284,138.063 33.989,137.244 34.736,136.709C43.606,130.37 55.29,122.061 69.782,111.781C69.816,111.756 69.828,111.713 69.807,111.675L69.756,111.573Z" style="fill:white;fill-opacity:0.25;fill-rule:nonzero;"/>
    <path d="M293.571,108.796C294.111,108.945 294.616,109.429 295.079,110.253C296.552,112.872 298.153,115.488 299.881,118.099C299.995,118.273 300.029,118.49 299.974,118.694L273.565,211.178C273.514,211.361 273.327,211.467 273.14,211.424C265.646,209.696 259.268,208.236 254.012,207.038C253.592,206.941 253.184,206.529 252.789,205.799C251.859,204.083 250.331,201.582 248.208,198.292C248.034,198.02 247.906,197.536 247.83,196.84L266.958,201.064C267.081,201.09 267.208,201.018 267.242,200.895L293.571,108.796Z" style="fill:white;fill-opacity:0.35;"/>
    <path d="M69.756,111.573L69.807,111.675C69.828,111.713 69.816,111.756 69.782,111.781C55.29,122.061 43.606,130.37 34.736,136.709C33.989,137.244 33.284,138.063 32.621,139.163C31.182,141.554 29.798,143.995 28.477,146.487C28.223,146.971 27.904,147.443 27.518,147.906C27.382,148.067 27.119,147.999 27.076,147.791C26.843,146.568 26.762,145.6 26.826,144.887C26.987,143.061 26.592,141.936 26.571,140.254C26.537,137.834 26.524,135.452 26.533,133.108C26.533,133.015 26.584,132.93 26.669,132.888L69.489,111.484C69.586,111.433 69.705,111.476 69.756,111.573Z" style="fill:white;fill-opacity:0.75;fill-rule:nonzero;"/>
    <path d="M229.549,181.877L229.565,182.883L229.793,196.75L229.862,201.059C229.867,201.221 229.744,201.357 229.582,201.365L212.075,202.334C211.867,202.347 211.663,202.279 211.51,202.139L204.309,195.269L221.204,194.458C221.297,194.454 221.374,194.373 221.374,194.275L220.597,113.195C221.446,113.412 227.128,118.743 228.074,119.56C228.265,119.725 228.388,119.955 228.418,120.205L228.422,120.256C228.545,122.098 229.163,158.569 229.549,181.877Z" style="fill:white;fill-opacity:0.35;"/>
    <path d="M200.158,161.386L199.673,157.391C198.402,146.918 197.121,136.248 196.192,128.26C196.027,126.844 195.873,125.513 195.733,124.281C195.134,119.042 194.773,115.617 194.803,115.242C194.82,115.034 194.986,114.864 195.194,114.851L220.597,113.195L221.374,194.275C221.374,194.373 221.297,194.454 221.204,194.458L204.309,195.269C204.309,195.269 203.699,190.331 202.788,182.909C202.053,176.922 201.122,169.319 200.158,161.386Z" style="fill:white;fill-opacity:0.85;"/>
    <path d="M196.192,128.26C163.62,128.277 131.065,128.281 98.522,128.268C96.858,128.264 95.784,126.37 97.002,124.982C97.491,124.43 98.348,124.277 99.129,124.281C131.312,124.29 163.512,124.29 195.733,124.281C195.873,125.513 196.027,126.844 196.192,128.26Z" style="fill:white;fill-opacity:0.25;"/>
    <path d="M200.158,161.386C166.432,161.382 132.766,161.382 99.163,161.382C98.098,161.382 97.253,161.178 96.684,160.282C95.847,158.958 97.223,157.404 98.544,157.408C132.225,157.446 165.932,157.438 199.673,157.391L200.158,161.386Z" style="fill:white;fill-opacity:0.25;"/>
    <path d="M205.566,196.468C202.779,196.554 195.382,196.768 190.841,196.768C97.724,196.755 39.483,196.759 16.122,196.785C15.54,196.785 14.593,196.759 13.281,196.708C10.555,196.602 8.148,194.19 7.197,191.876C6.437,190.017 5.757,188.598 5.163,187.626C3.172,184.352 1.737,180.951 0.849,177.419C2.306,180.353 4.365,182.174 7.027,182.875C7.142,182.905 7.256,182.917 7.371,182.917L202.788,182.909C203.699,190.331 204.309,195.269 204.309,195.269L205.566,196.468Z" style="fill:white;fill-opacity:0.25;"/>
    <path d="M249.67,182.866L247.342,196.602L229.793,196.75L229.565,182.883C229.565,182.87 229.565,182.857 229.565,182.843C229.689,182.906 229.837,182.931 230.006,182.917L249.67,182.866Z" style="fill:white;fill-opacity:0.25;"/>
    <path d="M247.342,196.602C247.342,196.602 248.264,191.155 249.67,182.866L249.677,182.866L247.342,196.602Z" style="fill:white;"/>
    <path d="M208.305,235.376C204.488,233.308 202.059,230.272 201.019,226.272C200.208,223.16 200.573,219.042 202.399,216.205C205.418,211.522 210.186,209.268 215.756,209.607C220.278,209.887 223.942,212.006 226.741,215.968C228.613,219.865 228.988,223.538 227.853,226.99C226.831,230.098 224.375,233.468 221.357,234.9C217.233,236.856 212.886,237.019 208.305,235.376Z" style="fill:white;fill-opacity:0.85;"/>
    <path d="M234.901,223.895C238.582,216.575 246.722,213.781 254.415,216.108C260.092,217.827 263.88,221.487 265.769,227.083C266.474,230.624 266.281,233.927 265.192,236.989C262.568,244.359 255.329,248.253 247.686,247.196C243.954,246.68 240.616,245.116 237.67,242.505C236.383,241.069 235.198,239.222 234.116,236.968C233.674,235.779 233.391,234.62 233.262,233.486C232.879,230.11 233.424,226.914 234.901,223.895Z" style="fill:white;fill-opacity:0.85;"/>
    <path d="M226.741,215.968C228.783,217.203 230.621,218.655 232.256,220.324C232.702,220.782 233.165,221.36 233.636,222.056C234.043,222.659 234.464,223.271 234.901,223.895C233.424,226.914 232.879,230.11 233.262,233.486C233.391,234.62 233.674,235.779 234.116,236.968C231.827,240.25 228.982,242.25 225.573,242.959C221.828,243.74 217.45,243.32 214.219,241.095C211.922,239.515 209.948,237.609 208.305,235.376C212.886,237.019 217.233,236.856 221.357,234.9C224.375,233.468 226.831,230.098 227.853,226.99C228.988,223.538 228.613,219.865 226.741,215.968Z" style="fill:white;fill-opacity:0.35;"/>
    <path d="M265.769,227.083C267.268,228.71 268.571,230.459 269.684,232.331C270.597,233.86 271.242,235.112 271.62,236.089C272.796,239.116 272.792,242.831 271.926,245.995C270.011,252.996 263.701,258.006 256.352,257.79C250.233,257.607 245.431,255.077 241.954,250.194C240.26,247.816 238.829,245.252 237.67,242.505C240.616,245.116 243.954,246.68 247.686,247.196C255.329,248.253 262.568,244.359 265.192,236.989C266.281,233.927 266.474,230.624 265.769,227.083Z" style="fill:white;fill-opacity:0.35;"/>
</svg>
