<?xml version="1.0" encoding="UTF-8" standalone="no"?>
<!DOCTYPE svg PUBLIC "-//W3C//DTD SVG 1.1//EN" "http://www.w3.org/Graphics/SVG/1.1/DTD/svg11.dtd">
<svg width="100%" height="100%" viewBox="0 0 300 300" version="1.1" xmlns="http://www.w3.org/2000/svg" xmlns:xlink="http://www.w3.org/1999/xlink" xml:space="preserve" xmlns:serif="http://www.serif.com/" style="fill-rule:evenodd;clip-rule:evenodd;stroke-linejoin:round;stroke-miterlimit:2;">
    <path d="M182.628,77.646C182.176,76.305 181.28,74.305 179.878,73.627C178.974,73.193 177.902,73.544 176.977,73.136C176.307,72.838 175.844,72.307 175.589,71.54C173.062,63.921 169.641,56.8 165.328,50.181C165.274,50.099 165.213,50.023 165.138,49.955C163.954,48.851 162.811,48.88 161.71,50.045C156.701,55.334 151.247,59.823 145.342,63.512C143.969,64.373 142.09,65.265 139.713,66.187C139.225,66.291 138.35,66.528 137.085,66.904C135.543,67.363 133.452,67.772 130.817,68.134C127.239,68.625 124.976,68.923 124.03,69.02C118.537,69.59 113.52,71.009 113.56,77.689C113.571,79.669 113.797,81.465 114.234,83.078C115.012,85.954 116.561,89.539 117.386,92.619C117.999,94.911 118.336,96.291 118.397,96.764C118.942,100.941 119.397,104.706 120.695,108.217C123.528,115.882 129.942,119.181 137.518,121.275C139.731,121.885 142.115,123.179 143.248,125.187C144.101,126.703 144.058,128.238 144.191,129.948C142.843,133.032 138.322,137.682 135.041,138.676C132.022,139.586 129.946,139.547 125.837,139.583C123.667,139.601 121.86,139.726 120.415,139.956C114.069,140.967 108.762,143.943 104.499,148.887C103.137,148.518 102.144,148.177 101.516,147.865C99.447,146.836 97.866,145.277 96.772,143.186C93.341,136.625 95.353,129.873 96.532,123.079C96.923,120.838 97.023,118.987 96.837,117.521C96.349,113.652 94.883,109.999 92.95,106.585C91.993,104.893 90.164,101.766 87.468,97.202C83.897,91.16 82.545,84.821 85.195,78.41C86.934,74.208 90.24,70.386 93.847,67.313C95.933,65.531 99.354,63.286 101.591,61.052C103.961,58.682 105.786,56.571 107.063,54.713C109.956,50.507 111.885,47.747 112.85,46.438C116.841,41.027 121.771,36.628 127.637,33.247C134.693,29.174 142.23,27.158 150.229,28.618C155.589,29.597 160.283,32.099 164.317,36.119C164.636,36.438 165.525,37.116 166.988,38.145C167.085,38.213 167.192,38.266 167.303,38.313C168.795,38.887 170.326,39.263 171.584,40.135C173.47,41.447 174.948,42.903 176.013,44.498C177.716,47.047 179.06,49.919 180.046,53.121C181.233,56.99 182.018,61.232 182.395,65.846C182.502,67.173 182.567,68.209 182.592,68.955C182.614,69.625 182.696,70.658 182.839,72.049C183.029,73.907 182.961,75.771 182.628,77.646Z" style="fill:white;fill-opacity:0.35;fill-rule:nonzero;"/>
    <path d="M182.628,77.646C183.119,80.733 182.936,83.652 182.086,86.399L178.691,90.034C178.404,90.343 178.228,90.741 178.2,91.16C177.87,95.631 176.816,100.045 175.034,104.398C174.399,105.943 173.531,107.41 172.431,108.79C171.111,110.443 168.867,112.612 167.583,114.552C166.117,116.761 165.195,119.217 164.811,121.917C164.528,123.925 164.686,126.452 165.288,129.497C165.815,132.153 166.472,134.61 167.26,136.861C167.368,137.166 167.605,137.403 167.909,137.503C168.673,137.761 169.577,137.976 170.423,138.001C174.349,138.127 177.927,138.206 181.158,138.238C183.721,138.263 186.142,138.79 188.419,139.812C189.451,140.278 190.624,141.078 191.692,141.727C195.296,144.222 198.702,147.374 201.907,151.182C204.051,153.728 206.619,156.786 209.613,160.361C213.345,164.818 215.801,168.12 219.476,172.874C219.691,173.15 219.903,173.459 220.111,173.792C220.29,174.079 220.337,174.427 220.247,174.753C219.978,175.71 219.577,176.56 219.035,177.302C218.946,177.428 218.849,177.6 218.745,177.815C218.648,178.023 218.544,178.195 218.44,178.328C216.35,181.601 214.034,184.646 211.491,187.467C211.165,187.83 210.964,188.048 210.889,188.124C208.526,190.572 206.142,193.003 203.736,195.417C203.352,195.8 202.915,196.195 202.431,196.593C201.968,196.973 201.52,197.349 201.083,197.722C200.792,197.98 200.398,198.106 199.896,198.102C199.756,198.099 199.62,198.152 199.512,198.246L199.05,198.654C198.942,198.747 198.809,198.805 198.67,198.819C197.58,198.93 196.708,198.654 196.056,197.998C194.163,196.094 192.434,194.463 190.875,193.104C190.728,192.978 190.502,193.025 190.419,193.201C189.713,194.656 188.87,195.8 188.121,197.213C186.095,201.017 183.23,206.356 179.523,213.226C178.236,215.603 177.164,217.973 176.303,220.329C176.253,220.465 176.224,220.605 176.217,220.745C176.192,221.175 176.206,221.935 176.285,222.548C176.701,225.786 177.558,229.612 178.856,234.022C181.169,241.871 183.929,249.752 187.138,257.661C187.217,257.858 187.189,258.081 187.06,258.249C183.582,262.738 177.615,265.912 172.216,267.869C166.809,269.831 161.968,271.254 157.361,271.509C155.959,271.584 154.765,271.849 153.291,271.842C148.63,271.828 145.123,271.968 140.713,271.591C138.684,271.415 136.894,271.243 135.342,271.075C128.264,270.3 121.244,268.568 113.381,266.342C112.606,266.123 112.09,265.797 111.832,265.37C111.269,264.445 110.767,262.66 111.025,261.537C112.574,254.786 113.495,248.773 113.793,243.506C113.804,243.305 113.883,242.025 114.022,239.669C114.148,237.55 114.266,235.574 114.377,233.739C114.499,231.706 114.51,229.73 114.413,227.819C114.227,224.187 114.212,222.423 113.893,219.576C113.115,212.652 111.882,205.66 110.197,198.608C109.616,196.162 109.229,194.086 107.357,192.441C107.271,192.365 107.145,192.354 107.049,192.412C105.338,193.416 103.549,194.162 101.685,194.649C100.512,194.567 99.555,194.097 98.805,193.247C98.239,192.602 97.798,192.147 97.343,191.562C92.828,185.779 88.691,179.698 84.922,173.319C84.84,172.297 85.263,171.415 86.192,170.673C87.21,169.859 87.726,169.447 87.744,169.429C93.043,164.022 96.962,158.557 101.979,151.852C102.638,150.974 103.728,149.959 104.499,148.887C108.762,143.943 114.069,140.967 120.415,139.956C121.86,139.726 123.667,139.601 125.837,139.583C129.946,139.547 132.022,139.586 135.041,138.676C138.322,137.682 142.843,133.032 144.191,129.948C144.654,129.468 145.091,129.041 145.453,128.482C146.999,126.105 148.332,123.631 149.451,121.06C150.91,117.7 151.52,114.208 151.28,110.576C151.194,109.26 151.054,107.93 150.864,106.589C152.477,106.083 154.159,106.04 155.905,106.463C156.644,106.642 157.59,106.818 158.325,106.625C158.684,106.528 158.91,106.209 158.849,105.893C158.741,105.352 158.447,104.914 157.97,104.581C155.719,103.014 153.291,102.3 150.688,102.437C150.785,100.353 150.29,98.224 149.204,96.051C148.189,94.025 146.74,94.229 144.858,95.036C144.03,95.391 143.252,95.664 142.524,95.861C142.205,95.947 141.868,95.814 141.688,95.538C141.419,95.122 141.204,94.581 141.043,93.91C138.96,85.223 138.583,76.434 139.917,67.546C139.989,67.069 139.921,66.614 139.713,66.187C142.09,65.265 143.969,64.373 145.342,63.512C151.247,59.823 156.701,55.334 161.71,50.045C162.811,48.88 163.954,48.851 165.138,49.955C165.213,50.023 165.274,50.099 165.328,50.181C169.641,56.8 173.062,63.921 175.589,71.54C175.844,72.307 176.307,72.838 176.977,73.136C177.902,73.544 178.974,73.193 179.878,73.627C181.28,74.305 182.176,76.305 182.628,77.646ZM155.654,72.852C155.152,72.752 154.79,72.727 154.564,72.781C150.874,73.631 147.407,74.032 144.044,73.053C143.625,72.928 143.309,72.942 143.105,73.093C142.782,73.329 142.764,73.803 143.069,74.061C143.503,74.423 144.04,74.695 144.679,74.878C147.21,75.599 149.795,75.753 152.434,75.348C153.686,75.158 155.715,74.645 155.84,73.1C155.851,72.982 155.769,72.874 155.654,72.852ZM145.403,82.637C145.891,83.423 147.898,83.652 148.669,83.674C151.258,83.745 153.671,83.2 155.905,82.042C156.507,81.73 156.891,81.379 157.052,80.995C157.583,79.744 156.081,79.568 155.303,79.916C152.366,81.239 149.275,81.816 146.03,81.641C145.485,81.612 145.123,82.189 145.403,82.637Z" style="fill:white;fill-opacity:0.95;fill-rule:nonzero;"/>
    <path d="M139.713,66.187C139.921,66.614 139.989,67.069 139.917,67.546C138.583,76.434 138.96,85.223 141.043,93.91C141.204,94.581 141.419,95.122 141.688,95.538C141.868,95.814 142.205,95.947 142.524,95.861C143.252,95.664 144.03,95.391 144.858,95.036C146.74,94.229 148.189,94.025 149.204,96.051C150.29,98.224 150.785,100.353 150.688,102.437C147.042,102.906 144.295,104.599 142.448,107.517C141.893,108.396 141.789,109.03 142.033,109.93C142.09,110.156 142.28,110.321 142.513,110.35C143.14,110.425 143.736,110.267 144.306,109.877C145.525,109.045 146.765,108.256 148.024,107.51C148.73,107.094 149.677,106.786 150.864,106.589C151.054,107.93 151.194,109.26 151.28,110.576C151.52,114.208 150.91,117.7 149.451,121.06C148.332,123.631 146.999,126.105 145.453,128.482C145.091,129.041 144.654,129.468 144.191,129.948C144.058,128.238 144.101,126.703 143.248,125.187C142.115,123.179 139.731,121.885 137.518,121.275C129.942,119.181 123.528,115.882 120.695,108.217C119.397,104.706 118.942,100.941 118.397,96.764C118.336,96.291 117.999,94.911 117.386,92.619C116.561,89.539 115.012,85.954 114.234,83.078C113.797,81.465 113.571,79.669 113.56,77.689C113.52,71.009 118.537,69.59 124.03,69.02C124.976,68.923 127.239,68.625 130.817,68.134C133.452,67.772 135.543,67.363 137.085,66.904C138.35,66.528 139.225,66.291 139.713,66.187ZM133.284,76.671C132.911,76.746 132.631,76.84 132.445,76.954C130.842,77.944 129.343,78.794 127.952,79.5C126.342,80.318 125.141,80.637 123.018,81.286C122.524,81.436 122.248,81.942 122.423,82.376C122.775,83.25 124.955,82.809 125.891,82.498C128.78,81.54 131.362,79.966 133.632,77.783C133.922,77.503 134.037,77.241 133.972,76.994C133.897,76.703 133.668,76.596 133.284,76.671ZM129.799,87.008C128.547,87.241 127.185,87.245 125.718,87.019C125.285,86.954 124.904,87.04 124.575,87.277C124.27,87.499 124.266,87.983 124.571,88.324C125.582,89.457 128.619,89.163 130.147,88.876C131.678,88.593 134.614,87.775 135.152,86.352C135.313,85.925 135.134,85.474 134.772,85.377C134.377,85.276 133.99,85.334 133.61,85.549C132.323,86.287 131.054,86.771 129.799,87.008Z" style="fill:white;fill-opacity:0.75;fill-rule:nonzero;"/>
    <path d="M155.84,73.1C155.715,74.645 153.686,75.158 152.434,75.348C149.795,75.753 147.21,75.599 144.679,74.878C144.04,74.695 143.503,74.423 143.069,74.061C142.764,73.803 142.782,73.329 143.105,73.093C143.309,72.942 143.625,72.928 144.044,73.053C147.407,74.032 150.874,73.631 154.564,72.781C154.79,72.727 155.152,72.752 155.654,72.852C155.769,72.874 155.851,72.982 155.84,73.1Z" style="fill:white;fill-opacity:0.15;fill-rule:nonzero;"/>
    <path d="M133.972,76.994C134.037,77.241 133.922,77.503 133.632,77.783C131.362,79.966 128.78,81.54 125.891,82.498C124.955,82.809 122.775,83.25 122.423,82.376C122.248,81.942 122.524,81.436 123.018,81.286C125.141,80.637 126.342,80.318 127.952,79.5C129.343,78.794 130.842,77.944 132.445,76.954C132.631,76.84 132.911,76.746 133.284,76.671C133.668,76.596 133.897,76.703 133.972,76.994Z" style="fill:white;fill-opacity:0.15;fill-rule:nonzero;"/>
    <path d="M145.403,82.637C145.123,82.189 145.485,81.612 146.03,81.641C149.275,81.816 152.366,81.239 155.303,79.916C156.081,79.568 157.583,79.744 157.052,80.995C156.891,81.379 156.507,81.73 155.905,82.042C153.671,83.2 151.258,83.745 148.669,83.674C147.898,83.652 145.891,83.423 145.403,82.637Z" style="fill:white;fill-opacity:0.15;fill-rule:nonzero;"/>
    <path d="M130.147,88.876C128.619,89.163 125.582,89.457 124.571,88.324C124.266,87.983 124.27,87.499 124.575,87.277C124.904,87.04 125.285,86.954 125.718,87.019C127.185,87.245 128.547,87.241 129.799,87.008C131.054,86.771 132.323,86.287 133.61,85.549C133.99,85.334 134.377,85.276 134.772,85.377C135.134,85.474 135.313,85.925 135.152,86.352C134.614,87.775 131.678,88.593 130.147,88.876Z" style="fill:white;fill-opacity:0.15;fill-rule:nonzero;"/>
    <path d="M182.086,86.399C182.187,87.872 182.251,89.303 182.28,90.698C182.312,92.372 182.434,93.717 182.646,94.728C183.41,98.381 184.507,101.935 185.934,105.395C188.462,111.519 189.369,113.982 191.588,118.586C192.599,120.687 193.42,122.637 194.055,124.441C194.428,125.495 195.138,127.901 195.166,129.586C195.206,131.799 195.195,133.061 195.134,133.365C194.808,135.04 194.539,136.098 194.32,136.539C194.18,136.822 193.933,137.456 193.571,138.45C193.234,139.371 192.606,140.465 191.692,141.727C190.624,141.078 189.451,140.278 188.419,139.812C186.142,138.79 183.721,138.263 181.158,138.238C177.927,138.206 174.349,138.127 170.423,138.001C169.577,137.976 168.673,137.761 167.909,137.503C167.605,137.403 167.368,137.166 167.26,136.861C166.472,134.61 165.815,132.153 165.288,129.497C164.686,126.452 164.528,123.925 164.811,121.917C165.195,119.217 166.117,116.761 167.583,114.552C168.867,112.612 171.111,110.443 172.431,108.79C173.531,107.41 174.399,105.943 175.034,104.398C176.816,100.045 177.87,95.631 178.2,91.16C178.228,90.741 178.404,90.343 178.691,90.034L182.086,86.399Z" style="fill:white;fill-opacity:0.35;fill-rule:nonzero;"/>
    <path d="M150.864,106.589C149.677,106.786 148.73,107.094 148.024,107.51C146.765,108.256 145.525,109.045 144.306,109.877C143.736,110.267 143.14,110.425 142.513,110.35C142.28,110.321 142.09,110.156 142.033,109.93C141.789,109.03 141.893,108.396 142.448,107.517C144.295,104.599 147.042,102.906 150.688,102.437C153.291,102.3 155.719,103.014 157.97,104.581C158.447,104.914 158.741,105.352 158.849,105.893C158.91,106.209 158.684,106.528 158.325,106.625C157.59,106.818 156.644,106.642 155.905,106.463C154.159,106.04 152.477,106.083 150.864,106.589Z" style="fill:white;fill-opacity:0.15;fill-rule:nonzero;"/>
    <path d="M84.922,173.319C88.691,179.698 92.828,185.779 97.343,191.562C97.798,192.147 98.239,192.602 98.805,193.247C99.555,194.097 100.512,194.567 101.685,194.649C99.221,197.034 96.668,199.755 94.012,201.691C92.409,202.86 91.193,204.094 89.483,205.37C86.174,207.844 82.957,209.949 79.827,211.684C77.791,212.814 75.643,213.437 73.38,213.549C70.326,213.703 68.235,212.864 65.837,210.755C63.445,208.658 61.473,206.585 59.924,204.538C59.368,203.807 58.07,201.971 56.03,199.027C54.911,197.417 53.674,195.506 52.323,193.301C47.984,186.22 44.904,181.135 41.412,175.621C39.737,172.971 37.981,170.838 36.098,168.242C35.965,168.059 35.736,167.966 35.51,168.009C33.488,168.385 31.179,168.597 28.579,168.651C24.244,168.74 19.719,168.633 15.704,167.417C11.096,166.022 6.797,163.527 2.81,159.923C1.243,158.507 0.318,157.098 0.107,155.126C-0.169,152.544 -0.087,149.608 2.573,148.238C6.163,146.392 10.648,147.008 14.295,148.41C17.102,149.486 19.361,150.465 21.964,150.92C22.032,150.931 22.104,150.934 22.176,150.927L24.736,150.608C25.012,150.572 25.198,150.303 25.126,150.035C25.123,150.024 25.03,149.948 24.847,149.805C23.642,148.866 21.903,147.639 19.633,146.123C18.909,145.639 18.497,145 18.396,144.201C18.142,142.222 20.752,142.795 21.749,143.186C24.513,144.28 26.08,144.997 28.285,145.345C29.813,145.585 32.384,145.997 35.998,146.578C37.611,146.84 39.139,147.517 40.379,148.866C42.025,150.648 43.456,152.53 44.671,154.506C45.955,156.589 47.145,157.944 48.877,160.174C53.753,166.442 59.311,172.114 65.546,177.195C68.974,179.988 72.136,182.788 75.03,185.603C75.209,185.779 75.503,185.754 75.657,185.553L84.922,173.319Z" style="fill:white;fill-opacity:0.75;fill-rule:nonzero;"/>
    <path d="M201.083,197.722C201.52,197.349 201.968,196.973 202.431,196.593C202.915,196.195 203.352,195.8 203.736,195.417C206.142,193.003 208.526,190.572 210.889,188.124C210.964,188.048 211.165,187.83 211.491,187.467C214.034,184.646 216.35,181.601 218.44,178.328L224.579,186.037C224.668,186.148 224.83,186.159 224.93,186.058C226.644,184.377 228.168,182.86 229.562,181.695C236.203,176.148 242.635,170.755 247.967,164.427C249.078,163.107 250.767,161.01 253.033,158.138C253.768,157.206 254.733,155.839 255.927,154.036C257.562,151.566 258.985,149.784 260.201,148.694C261.23,147.768 262.65,147.155 264.46,146.851C266.762,146.46 269.111,146.098 271.502,145.757C274.131,145.38 277.006,143.882 278.591,143.419C279.394,143.186 281.495,142.849 281.599,144.047C281.682,145.047 281.294,145.843 280.437,146.427C277.637,148.339 275.934,149.54 275.332,150.024C275.109,150.199 274.973,150.332 274.919,150.415C274.772,150.644 274.916,150.945 275.185,150.981L277.677,151.3C277.924,151.332 278.179,151.315 278.422,151.254C280.308,150.784 282.607,150.002 285.317,148.909C287.763,147.923 290.283,147.442 292.883,147.467C295.697,147.5 299.34,148.636 299.821,151.874C300.248,154.732 300.007,157.349 298.05,159.378C295.801,161.713 293.173,163.692 290.165,165.312C286.174,167.467 282.037,168.665 277.756,168.905C272.51,169.196 268.067,169.016 264.425,168.36C264.285,168.335 264.141,168.392 264.052,168.504C261.248,172.136 259.57,174.398 259.014,175.298C255.314,181.282 253.399,184.38 253.27,184.592C251.323,187.772 249.168,191.272 246.805,195.097C244.686,198.529 242.029,202.229 240.358,204.506C238.544,206.991 236.328,209.318 233.714,211.487C231.875,213.018 230.172,213.807 227.78,213.871C223.506,213.986 220.477,212.423 216.974,210.153C213.75,208.063 211.477,206.481 210.154,205.406C208.451,204.022 206.751,202.645 205.055,201.275C203.639,200.135 202.406,198.938 201.083,197.722Z" style="fill:white;fill-opacity:0.75;fill-rule:nonzero;"/>
</svg>
