<svg id="illustrations" xmlns="http://www.w3.org/2000/svg" viewBox="0 0 300 300"><path d="M141.78.65h.3l-.35-.27c-2.67.22-7,14.41-10.93,27.9l9,4a5.369,5.369,0,0,0,7.092-2.715c.042-.094.082-.189.118-.285A42.394,42.394,0,0,0,149.7,9.84c-.06-.47-.12-.94-.21-1.41C148.86,4.82,143.38,2,141.78.65Z" style="fill:#fff;opacity:0.30000001192092896;isolation:isolate"/><path d="M29.86,166.92c-1.08,3.71-1.74,12.73-1.57,24.48a24.256,24.256,0,0,0,3.07-.13c15.13-1.4,28.4-10.64,39.5-21a174.82,174.82,0,0,0,17.6-19.1A162.5,162.5,0,0,0,114.24,105a73.7,73.7,0,0,0,2.9-11.31C106.23,121.64,83.2,150.56,29.86,166.92Z" style="fill:#fff;opacity:0.800000011920929;isolation:isolate"/><path d="M240.77,143.29c-9.92,3.21-17.79,4.53-13.36,6.33,7.28,2.95,15.32,3.36,23.16,3.11,2.67-.09,4.74-.17,6.36-.24-5.12-4.29-12.43-5.58-20.22-6.89A40.84,40.84,0,0,0,240.77,143.29Z" style="fill:#fff;opacity:0.800000011920929;isolation:isolate"/><path d="M49.35,287.15c18.86.44,105.22,25.43,165.52,4.52,15.79-5.48,21.34-8.23,34.77-18.22,7.46-5.55,15.08-11.14,20-18.87,2.39-3.78,2.84-9.39,1-15.35A25.775,25.775,0,0,0,269,235.3c-6.92.94-14,1.2-20.72-.59-3.29-.88,2.4-2.58,12.17-5.38-.81-.12-1.69-.21-2.64-.26,7.06-3.78,12.37-10.79,11.41-18.5-.53-4.29-1.2-9.22-2.57-11.95a14.081,14.081,0,0,0-2.36-3.38l-2.63.14c-7.84.42-15.88.17-23.21-2.63-2.75-1.05,1.24-2,8.84-3.4-.85,0-1.71-.1-2.61-.13,10.74-4.06,19.92-11,19.42-19.61s-3.18-13.75-7.21-17.12c-1.62.07-3.69.15-6.36.24-7.84.25-15.88-.16-23.16-3.11-4.43-1.8,3.44-3.12,13.36-6.33,5.76-3.77,12.87-11,9.89-24.43a25.25,25.25,0,0,0-1.91-5.52,24.39,24.39,0,0,0-26.58-13.41c-14.38,2.83-27,6.87-35.82,9.29-.88.28-1.87.54-2.91.77a40.359,40.359,0,0,1-6.36,1.23c-.85.16-1.56.3-2.05.42-6.17,1.59-14.84-5-16.58-11.09-1.41-5-1.55-10.15-1.68-15.29q-.949-35.81-1.88-71.62c-.12-4.7-.7-9.06.09-12.92A9,9,0,0,0,151.26,0c-2,0-7.76.5-9.18.62,1.93,1.44,6.78,4.13,7.36,7.46.1.57.18,1.13.24,1.69A41.994,41.994,0,0,1,147,29.48a5.349,5.349,0,0,1-6.894,3.117c-.1-.036-.192-.075-.286-.117l-9-4c-3.93,13.46-3.5,38.9-13.73,65.15a73.7,73.7,0,0,1-2.9,11.31,162.478,162.478,0,0,1-25.78,46.19,174.82,174.82,0,0,1-17.6,19.1c-11.1,10.38-24.37,19.62-39.5,21-1,.09-2,.12-3.07.13C28.69,219.4,33.83,262.93,49.35,287.15Z" style="fill:#fff"/><path d="M238.49,192.75c7.33,2.8,15.37,3.05,23.21,2.63l2.63-.14c-3.69-3.92-9.52-5.43-17-5.89C239.73,190.73,235.74,191.7,238.49,192.75Z" style="fill:#fff;opacity:0.800000011920929;isolation:isolate"/><path d="M260.49,229.33c-9.77,2.8-15.46,4.5-12.17,5.38,6.72,1.79,13.8,1.53,20.72.59C267.22,231.65,264.77,230,260.49,229.33Z" style="fill:#fff;opacity:0.800000011920929;isolation:isolate"/><path d="M154.89,13.64q.95,35.8,1.88,71.62c.13,5.14.27,10.34,1.68,15.29,1.74,6.12,10.41,12.68,16.58,11.09.49-.12,1.2-.26,2.05-.42-2.65.22-4-.36-3.61-2.2C176.74,92.18,175.42,9.25,155,.72,154.19,4.58,154.77,8.94,154.89,13.64Z" style="fill:#fff;opacity:0.800000011920929;isolation:isolate"/></svg>