<?xml version="1.0" encoding="utf-8"?>
<!-- Generator: Adobe Illustrator 24.3.0, SVG Export Plug-In . SVG Version: 6.00 Build 0)  -->
<svg version="1.1" id="illustrations" xmlns="http://www.w3.org/2000/svg" xmlns:xlink="http://www.w3.org/1999/xlink" x="0px"
	 y="0px" viewBox="0 0 300 300" style="enable-background:new 0 0 300 300;" xml:space="preserve">
<style type="text/css">
	.st0{fill:#FFFFFF;}
	.st1{opacity:0.5;fill:#FFFFFF;enable-background:new    ;}
	.st2{opacity:0.3;fill:#FFFFFF;enable-background:new    ;}
	.st3{opacity:0.15;fill:#FFFFFF;enable-background:new    ;}
	.st4{opacity:0.8;fill:#FFFFFF;enable-background:new    ;}
	.st5{opacity:0.7;fill:#FFFFFF;enable-background:new    ;}
	.st6{opacity:0.9;fill:#FFFFFF;enable-background:new    ;}
	.st7{opacity:0.3;fill-rule:evenodd;clip-rule:evenodd;fill:#FFFFFF;enable-background:new    ;}
	.st8{opacity:0.4;fill:#FFFFFF;enable-background:new    ;}
	.st9{opacity:0.2;fill-rule:evenodd;clip-rule:evenodd;fill:#FFFFFF;enable-background:new    ;}
</style>
<path class="st0" d="M247.3,272.9c-0.2-8.2,2.2-16,5.8-23.4c-3.1,1.9-6.7,2.8-10.3,2.6c-9.1,2.1-18.4,3.3-27.7,3.8
	c-0.1,1.7-0.4,3.4-0.7,5.1c-2.6,12.9,9.9,30.6,35.7,32.9c0.8,0.1,1.6,0.1,2.3,0.2C249.7,287.2,247.4,280.2,247.3,272.9z"/>
<path class="st1" d="M297.2,272.4c6.2-11.5-1.7-27.8-0.2-46c1.7-21.2,5.8-46.5,0.4-69.5c-0.4-1.6-0.8-3.1-1.3-4.6
	c-0.1,0.1-0.3,0.1-0.4,0.1c1.1,3.6,1.5,7.4,1.3,11.2c-1.3,21.6-3.3,38.6-3.3,38.6c-4,1-8,1.7-12.1,1.9l0,0c-0.5,1.6-1.1,3.2-1.7,4.9
	c-1.4,3.8-2.9,7.6-4.7,11.3c-3.5,7.4-7.4,14.7-12.7,20.8l0,0c-0.4,0.5-0.8,1-1.2,1.4l-0.5,0.6c-0.2,0.2-0.4,0.5-0.6,0.7l-0.7,0.7
	L259,245l-0.8,0.8l-0.4,0.3c-0.3,0.3-0.6,0.5-0.9,0.8l-0.2,0.2c-0.3,0.3-0.7,0.5-1,0.8l-0.1,0.1c-0.3,0.3-0.7,0.5-1.1,0.7h-0.1
	c-0.4,0.2-0.7,0.4-1.1,0.7c-3.6,7.4-6,15.3-5.8,23.4c0.2,7.3,2.5,14.3,5.2,21.1C276.4,295.4,291.2,283.4,297.2,272.4z"/>
<path class="st2" d="M39.1,65.7c2.5,2,5.7,3.4,7,6.2c1.2,4.7,0.7,10.7,5.9,13.5c2.3,1.1,4.6,2,7.1,2.6c7.1,1.4,12.7-14.6,11.4-16.9
	c-0.2-0.4-0.5-0.8-0.7-1.2c-1.9-2.9-2.9-6.3-2.7-9.8c0.4-5.2,4.6-8.9,9.7-6.4c1.4,0.7,2.8,1.6,4.3,1.5c0.8-0.1,1.7-0.4,2.4-0.8
	c2.9-1.8,4.6-5,5.5-8.2s1.2-6.6,2.1-9.9c2.5-9.3,18.1-3,23.3-0.4c5.6,2.8,6.5,5.8,7.8,8.4c1-0.8,2.1-1.5,3.3-2
	c14.3-4.8,21.3-18.5,10.8-24.9c-25.6-15.8-42.2-14-56.8-3c-8,6.1-9.4,0.8-19.1,4.1c-5.9,2-12.1,2.5-14.7,9.1
	c-0.8,11.1-1,9.6-9.1,17.5C31.7,51,32.9,60.7,39.1,65.7z"/>
<ellipse transform="matrix(9.567198e-02 -0.9954 0.9954 9.567198e-02 41.7711 179.928)" class="st3" cx="119.9" cy="67" rx="2.7" ry="1.2"/>
<ellipse transform="matrix(9.567198e-02 -0.9954 0.9954 9.567198e-02 33.2047 164.9557)" class="st3" cx="107.4" cy="64.2" rx="3.5" ry="1.6"/>
<path class="st3" d="M111.6,54.7c-0.9,0.4-1.8,0.6-2.8,0.6c-0.9,0.1-1.9,0.2-2.8,0.2c-0.9,0-1.9,0-2.8,0.1c-1,0-1.9-0.1-2.9-0.3l0,0
	c-0.6-0.1-0.9-0.7-0.8-1.3c0,0,0,0,0,0c0.1-0.3,0.2-0.5,0.5-0.6c0.9-0.5,1.8-0.9,2.8-1.1c1-0.2,2-0.3,3-0.3c1,0,2,0,3,0.1
	c1,0.1,2,0.4,2.9,0.9c0.4,0.2,0.6,0.8,0.4,1.2c0,0,0,0.1-0.1,0.1C112,54.5,111.9,54.6,111.6,54.7z"/>
<path class="st3" d="M123.3,58c-0.5-0.3-0.9-0.5-1.4-0.8c-0.9-0.5-1.9-0.8-2.9-0.9c-0.3,0-0.5,0.1-0.8,0.2c-0.5,0.3-0.6,0.9-0.3,1.4
	c0,0,0,0.1,0.1,0.1l0,0c0.6,0.8,1.3,1.4,2.1,2c0.8,0.5,1.5,1.1,2.2,1.6c0.2,0.2,0.4,0.3,0.7,0.4C123.2,60.7,123.3,59.3,123.3,58z"/>
<path class="st3" d="M114.7,93.7c-1.5,0.6-3.2,0.8-4.8,0.7c-1.6-0.1-3.2-0.5-4.7-1.1c-1.5-0.6-2.9-1.4-4.2-2.2
	c-1.3-0.8-2.5-1.8-3.6-2.6h-0.1c-0.3-0.2-0.4-0.7-0.2-1l0,0c0.2-0.3,0.5-0.4,0.8-0.3c1.5,0.4,3,1,4.3,1.8c1.3,0.7,2.6,1.3,3.9,1.9
	c1.3,0.6,2.6,1,4,1.2c1.4,0.2,2.8,0.3,4.3,0.4l0,0c0.4,0,0.6,0.3,0.6,0.7C115.1,93.4,114.9,93.6,114.7,93.7L114.7,93.7z"/>
<ellipse transform="matrix(0.1661 -0.9861 0.9861 0.1661 108.4266 255.3002)" class="st3" cx="205.2" cy="63.5" rx="2.4" ry="1.1"/>
<ellipse transform="matrix(0.1661 -0.9861 0.9861 0.1661 118.0068 267.9445)" class="st3" cx="217.4" cy="64.2" rx="3.1" ry="1.4"/>
<path class="st3" d="M207.6,88.4c0.9,0.1,1.8,0.2,2.7,0.2c0.9,0,1.7-0.1,2.6-0.3c0.9-0.2,1.7-0.5,2.6-0.8c0.9-0.4,1.8-0.6,2.8-0.7
	c0.2,0,0.4,0.2,0.5,0.4c0,0.2-0.1,0.3-0.2,0.4l0,0c-0.8,0.4-1.6,0.8-2.5,1.2c-0.9,0.4-1.8,0.8-2.8,1c-1,0.2-2,0.3-3,0.2
	c-1-0.1-2-0.4-2.9-0.9c-0.2-0.1-0.3-0.3-0.2-0.5c0,0,0,0,0,0l0,0C207.3,88.5,207.4,88.4,207.6,88.4L207.6,88.4z"/>
<path class="st3" d="M216.3,55.2c1.1-0.4,2.2-0.6,3.4-0.6c1.1,0,2.2,0.2,3.3,0.5c2.2,0.5,4.2,1.5,6,2.9c0.1,0.1,0.2,0.3,0.1,0.4
	s-0.3,0.2-0.4,0.1l0,0c-1.9-0.9-4-1.4-6.1-1.7c-1-0.1-2.1-0.2-3.1-0.3s-2.1-0.2-3.1-0.4l0,0c-0.3-0.1-0.5-0.4-0.4-0.7c0,0,0,0,0,0
	C216.1,55.3,216.2,55.3,216.3,55.2z"/>
<path class="st3" d="M208.4,56.1c0.1-0.3,0-0.6-0.3-0.7c0,0,0,0,0,0c-0.8-0.3-1.7-0.4-2.6-0.4c-0.2,0.7-0.3,1.3-0.5,2h0.3
	c0.9-0.1,1.7-0.3,2.6-0.5l0,0C208.2,56.4,208.4,56.3,208.4,56.1z"/>
<path class="st4" d="M175.7,234.8c-3.5,1.4-7.1,2.5-10.8,3.3l-0.4,0.1c-0.5,0.3-1,0.5-1.5,0.6c-1.2,0.5-2.3,1.1-3.4,1.7l-2.4,1.5
	c-0.5,0.4-1,0.7-1.6,1c-1.4,0.9-3.2,0.9-4.7,0.1c-0.6-0.4-0.9-1-0.9-1.7c-0.2-1.4,0.1-2.7,0.9-3.9c0.9-1.3,2.1-2.4,3.4-3.3
	c0.8-0.8,1.9-1.4,3-1.7c1.3-0.4,9.7-1.7,6.4-4.3c-0.8-0.5-1.7-0.8-2.6-0.8c-2.5-0.2-5.1-0.3-7.6-0.2c-2.3,0-4.6,0.5-6.7,1.6
	c-2.7,1.6-4.2,4.5-6.8,6.2c-3,2-6.4,1.5-9.9,1.6c-3.1,0.1-6.2-0.1-9.3-0.6c-5.3-1-10.3-3.4-15.6-4.7l-2.7-0.6c0,0-12.8-3.9-15.6-4.9
	c-5.6-2.2-11-4.8-16.2-7.8l-0.8-0.3c0-0.1-0.1-0.2-0.1-0.3c-2.7-5.3-5-10.7-6.9-16.3c-1-2.8-1.8-5.6-2.5-8.4
	c-0.4,0.3-0.9,0.6-1.3,0.9c-14.5,9.2-30,10.4-41.2,9.5c1.3,4.3,2.9,8.5,4.6,12.6c3.5,8.3,7.4,16.5,13,23.5l0,0
	c2.8,4,6.4,7.5,10.5,10.1l0,0c2.5,2.1,5.2,4,7.9,5.8c50.1,26,69.9-0.4,83.6,0.6c7.6,0.5,21.6,7.9,31.9,4.9
	c8.1-2.4,9.8-15.7,10.2-22.8c0.1-1.6-1.1-2.9-2.7-3c0,0-0.1,0-0.1,0C176.4,234.6,176,234.6,175.7,234.8z"/>
<path class="st5" d="M244.5,194.5c-0.5-0.4-1.1-0.8-1.6-1.2l-1.5,4.6c-0.8,2.5-1.7,5.1-2.6,7.6c-1.5,4-3.3,7.9-5.3,11.6l-0.5,0.2
	c-6,3.3-12.2,6.3-18.5,8.9c-9,3.7-19.6,8.3-29.4,8.1c-1,0-2-0.1-3-0.4c-1.1-0.4-2.2-0.8-3.2-1.4c-4.4-2.2-9.4-3-14.3-2.4
	c-1.1,1.5-6,2.3-7,2.6c-1.1,0.3-2.2,0.9-3,1.7c-1.4,0.8-2.6,1.9-3.4,3.3c-0.8,1.1-1.1,2.5-0.9,3.9c0,0.7,0.4,1.3,0.9,1.7
	c1.5,0.8,3.3,0.7,4.7-0.1c0.6-0.3,1.1-0.6,1.6-1c0.7-0.6,1.5-1.1,2.4-1.5c1.1-0.6,2.3-1.2,3.4-1.7c0.5-0.1,1-0.3,1.5-0.6l0.4-0.1
	c3.7-0.8,7.3-1.9,10.8-3.3c1.5-0.6,3.2,0.1,3.8,1.6c0,0,0,0,0,0c0.2,0.4,0.2,0.8,0.2,1.2c-0.2,4.1-0.9,10.3-2.9,15.2
	c0.9-0.2,1.8-0.4,2.7-0.4c11.9-1,22.1,8.6,63.3-0.3c6,0.4,13-2.7,19.5-11l0,0c5.3-6.2,9.2-13.5,12.7-20.8c1.8-3.7,3.3-7.5,4.7-11.3
	c0.6-1.7,1.2-3.3,1.7-4.9C271.7,204.7,257.4,203.5,244.5,194.5z"/>
<path class="st0" d="M54.1,255c-2.2-1.1-7.9-5.8-7.9-5.8l0,0l-0.3-0.2l0,0l12.5,42.4h-4.6c8,0.3,16.8-0.9,25.9-2.2
	c15.1-2.2,24.9-11.7,31-24.9C97.6,267.9,79.9,268.4,54.1,255z"/>
<path class="st0" d="M109,154.9c-2.9-8.1-14.5-32.3-20.7-33.4c-4.2-0.8-4.5-0.8-4.5-0.8s-0.6,5-10.8,5.5c-4.7,0.1-9.4-0.3-14-1.3
	l-1.2-0.4c-3.2-1.3-6.3-2.9-9.1-4.9c-1.9-1.6-4-3-6.2-4.2l-1.8-0.1l0,0c-0.8-0.2-1.7-0.3-2.5-0.1l-3.2-0.1c-8,0.1-15.7,3.5-21.1,9.4
	C7.2,131.7-0.3,140.4,0,155.2c0.5,25.1,1.9,45,1.9,45c3.5,1.1,7.1,1.9,10.7,2.4l0,0c1.7,0.2,3.6,0.5,5.6,0.6c3.8,0.3,7.5,0.3,11.3,0
	l0.5-0.1l1.9-0.2c0.3,0,0.5-0.1,0.8-0.1l1.7-0.2l0.9-0.1l1.6-0.3l1-0.2l1.5-0.3l1.1-0.3L42,201l1.1-0.3l1.5-0.5l1.2-0.4
	c0.5-0.2,1-0.3,1.5-0.5l1.2-0.4l1.5-0.6c0.4-0.1,0.8-0.3,1.1-0.5c0.5-0.2,1.1-0.5,1.6-0.7c0.4-0.2,0.7-0.3,1.1-0.5l1.8-0.9l0.9-0.5
	c0.9-0.5,1.8-1,2.6-1.6c0.4-0.3,0.9-0.6,1.3-0.9c0.8,2.8,1.6,5.6,2.5,8.4c1.9,5.6,4.2,11,6.9,16.3c0,0.1,0.1,0.2,0.1,0.3L71,218
	c5.2,3,10.6,5.6,16.2,7.8c2.8,1.1,15.6,4.9,15.6,4.9l2.7,0.6c4.2,1,8.3,2.7,12.5,3.9C121.2,206.1,115.4,172.6,109,154.9z"/>
<path class="st4" d="M70.4,94.3c-2.4-2.4-4.8-4.7-7.1-7.3h-0.1c-1.2,0.9-2.7,1.3-4.1,1c-0.7-0.2-1.5-0.4-2.2-0.6l0,0
	c0.8,0.8,1.7,1.6,2.5,2.4c6.3,6.1,11.4,13.3,15,21.2c1.8,3.7,2.9,7.7,3.2,11.8c0,0.9,0,1.7-0.1,2.6c6-1.4,6.4-4.9,6.4-4.9l0,0
	c1.3-4.8,3.9-9.1,7.4-12.6C80,105.1,77,101,70.4,94.3z"/>
<path class="st6" d="M40.6,115.3L40.6,115.3l1.8,0.1c2.2,1.2,4.3,2.6,6.2,4.2c2.9,2,5.9,3.6,9.2,4.9l1.2,0.4
	c4.6,0.9,9.4,1.4,14.1,1.3c1.5-0.1,2.9-0.3,4.4-0.6c0.1-0.9,0.1-1.7,0.1-2.6c-0.2-4.1-1.3-8.1-3.2-11.8c-3.6-7.9-8.7-15.1-15-21.2
	c-0.8-0.8-1.7-1.6-2.5-2.4c-0.7-0.2-1.4-0.5-2-0.7c0.2,0.9,0.4,1.7,0.6,2.5v0.1c0.6,2.8,0.7,5.7,0.2,8.5v0.1
	c-0.1,0.6-0.3,1.2-0.5,1.8v0.1c-0.6,1.8-1.5,3.4-2.6,4.9l-0.1,0.1c-0.4,0.5-0.8,1-1.2,1.4l-0.1,0.1c-0.4,0.5-0.9,1-1.4,1.4l-0.1,0.1
	c-0.5,0.5-1,1-1.6,1.4l0,0c-0.5,0.4-1.1,0.9-1.7,1.3l-0.2,0.2c-0.6,0.4-1.2,0.8-1.8,1.3l-0.3,0.2c-0.6,0.4-1.3,0.8-2,1.3l-0.3,0.2
	c-0.7,0.4-1.4,0.9-2.2,1.3l-0.3,0.2C39.6,115.1,40.1,115.2,40.6,115.3z"/>
<path class="st0" d="M105.7,93.4l-0.4-0.2c-1.5-0.6-2.9-1.4-4.2-2.2c-1.3-0.8-2.5-1.8-3.6-2.6h-0.1c-0.3-0.2-0.4-0.7-0.2-1l0,0
	c0.2-0.3,0.5-0.4,0.8-0.3c1.5,0.4,3,1,4.3,1.8c1,0.6,2.1,1.1,3.2,1.5c-0.2-2-0.5-4-0.6-6c-0.2-1.7,0.2-3.5,1-5
	c2.5-4.1,5.2,0.4,8.2-1.1c1-0.5,1.1-2.2,1.1-3.2c0.6-12.5-3.5-29.7-8.2-42.3c-6.4-2-14.3-2.9-16,3.4c-0.9,3.2-1.2,6.6-2.1,9.9
	s-2.6,6.5-5.5,8.2c-0.7,0.5-1.5,0.8-2.4,0.8c-1.5,0.1-2.9-0.8-4.3-1.5C71.6,51,67.4,54.8,67,60c-0.2,3.5,0.8,6.9,2.7,9.8
	c0.2,0.4,0.5,0.8,0.7,1.2c1,1.8-2.2,12.3-7.2,15.9c2.3,2.6,4.7,4.9,7.2,7.4c7.9,7.9,10.6,12.3,28.3,15.4c0.2,0,0.4,0.1,0.6,0.1
	c1.6-2,3.5-3.8,4.7-6c0.4-0.8,0.7-1.6,1-2.4c0.6-2.3,0.9-4.7,0.7-7.1C105.7,94,105.7,93.7,105.7,93.4z M109,64.3
	c-0.2,1.9-1,3.4-1.9,3.4s-1.4-1.7-1.2-3.7s1-3.4,1.9-3.4S109.2,62.4,109,64.3z M99.6,54c0.1-0.3,0.2-0.5,0.5-0.6
	c0.9-0.5,1.8-0.9,2.8-1.1c1-0.2,2-0.3,3-0.3c1,0,2,0,3,0.1c1,0.1,2,0.4,2.9,0.9c0.4,0.2,0.6,0.8,0.4,1.2c0,0,0,0.1-0.1,0.1
	c-0.1,0.2-0.3,0.3-0.5,0.4l0,0c-0.9,0.4-1.8,0.6-2.8,0.6c-0.9,0.1-1.9,0.2-2.8,0.2c-0.9,0-1.9,0-2.8,0.1c-1,0-1.9-0.1-2.9-0.3l0,0
	C99.7,55.1,99.4,54.5,99.6,54z"/>
<path class="st4" d="M119,56.3c1,0.1,2,0.4,2.9,0.9c0.5,0.2,1,0.5,1.4,0.8c0.2-4.6-0.2-9.3-1.3-13.8c-1.3-2.6-2.2-5.6-7.8-8.4
	c-2.4-1.2-4.8-2.2-7.3-3c4.7,12.6,8.8,29.8,8.2,42.3c0,0.9-0.1,2.7-1.1,3.2c-3,1.5-5.6-3-8.2,1.1c-0.8,1.5-1.2,3.3-1,5
	c0.1,2,0.3,4,0.6,6c0.3,0.1,0.5,0.2,0.8,0.3c1.3,0.6,2.6,1,4,1.2c1.4,0.2,2.8,0.3,4.3,0.4l0,0c0.4,0,0.6,0.4,0.6,0.8
	c0,0.2-0.2,0.4-0.4,0.5c-1.5,0.6-3.2,0.8-4.8,0.7c-1.5-0.1-2.9-0.5-4.3-1c0,0.3,0.1,0.6,0.1,0.9c0.2,2.4,0,4.8-0.7,7.1
	c-0.3,0.8-0.6,1.6-1,2.4c-1.2,2.2-3.1,4-4.7,6c14.7,2.5,20.5-19,23.6-46.2c0-0.5,0.1-1,0.1-1.4c-0.2-0.2-0.5-0.3-0.7-0.4
	c-0.8-0.5-1.5-1.1-2.2-1.6c-0.8-0.6-1.5-1.2-2.1-2l0,0c-0.4-0.4-0.3-1.1,0.1-1.4c0,0,0.1,0,0.1-0.1l0,0
	C118.3,56.4,118.7,56.2,119,56.3z M118.8,66.9c0.1-1.5,0.8-2.6,1.4-2.6s1.1,1.3,0.9,2.8s-0.8,2.6-1.4,2.6S118.6,68.4,118.8,66.9z"/>
<path class="st1" d="M45.9,249.1c-0.9-0.5-1.8-1.1-2.6-1.8l0,0c-0.4-0.4-0.8-0.7-1.3-1l-0.1-0.1c-0.4-0.4-0.8-0.7-1.2-1.1l-0.2-0.2
	l-1.1-1.1l-0.4-0.4c-0.3-0.3-0.6-0.6-0.9-1l-0.6-0.7c-0.2-0.3-0.4-0.6-0.7-0.8c-0.4-0.5-0.8-1.1-1.2-1.7l0,0
	c-5.5-7-9.5-15.2-13-23.5c-1.8-4.1-3.3-8.4-4.6-12.7h0.2c-2-0.1-3.9-0.4-5.6-0.6c-0.3,6.4-0.4,12.8-0.2,19.1
	c1.9,59.8,20.9,70.6,46,69.9L45.9,249.1z"/>
<path class="st0" d="M295.6,152.4c0.1-0.1,0.3-0.1,0.4-0.1c0.2,0.7,0.5,1.5,0.7,2.2c-4.6-16.3-14.7-24.4-23.7-31.5
	c0,0.8-0.1,1.6-0.1,2.3c-0.2,3.6-0.1,7.7-1.2,11.1c-1.2,3.7-6.4,5.2-8.7,5.4c-7.3,0.5-13.4,5.6-18.3,10.6
	c-4.4,4.6-8.8,11.9-15.2,13.8c-2.8,0.8-5.8,1-8.7,0.6c-3.9-0.3-7.7-1-11.4-2.1c-1.6-0.4-3.1-1-4.4-1.9c-2.2,6.1-3.6,11.6-3.5,15.5
	c0.4,11.7,12.4,41.3,12.4,41.3s0.3,2.6,0.6,6.6h0.1c6.4-2.6,12.6-5.5,18.6-8.9l0.5-0.2c2-3.8,3.8-7.6,5.3-11.6c1-2.5,1.8-5,2.6-7.6
	l1.5-4.6c0.5,0.4,1,0.8,1.6,1.2c13,9,27.2,10.2,37,9.6l0,0c4.1-0.2,8.1-0.8,12.1-1.9c0,0,2-17,3.3-38.6
	C297.1,159.8,296.6,156,295.6,152.4z"/>
<path class="st4" d="M230,105.5c-2.5,0.9-5.1,1.5-7.8,1.9c1.8,3.7,3.5,9.2,1.8,14.8c-0.8,2.8-1.9,5.6-3.1,8.3c2.1-2.5,4.1-5.2,5.8-8
	c1.7-2.6,2.8-5.5,3.3-8.6C230.5,111.1,230.1,108.3,230,105.5z"/>
<path class="st7" d="M224.4,49.5c4,1.7,7.4,4.6,9.8,8.2c2.3,3.6,3.8,7.7,4.5,11.9c-0.3-2.3-0.6-4.5-1-6.2
	c-1.5-6.9-4.8-12.6-9.1-18.1c-2-2.6-2.9-3.2-6.3-3.3s-7.1,0.2-10.2-1.6c-0.7-0.4-1.3-0.9-1.7-1.5v-0.1c-0.8,1.3-1.3,2.7-1.5,4.2
	C207.9,49.3,221,48.1,224.4,49.5z"/>
<path class="st0" d="M238.6,69.6c-0.7-4.2-2.2-8.3-4.5-11.9c-2.4-3.6-5.8-6.5-9.8-8.2c-1.3-0.5-4.1-0.7-6.9-1
	c-4.1,7.3-7.1,15.3-8.9,23.5c-0.2,0.8-0.5,2.3,0.2,3c2.2,1.9,5.5-1.3,6.8,2.8c0.3,1.5,0.2,3.1-0.3,4.6c-0.6,2-1.4,4-2.2,5.9
	c0.8-0.2,1.6-0.4,2.4-0.7c0.9-0.4,1.8-0.6,2.8-0.7c0.2,0,0.4,0.2,0.5,0.4c0,0.2-0.1,0.3-0.2,0.4l0,0c-0.8,0.4-1.6,0.8-2.5,1.2
	c-0.9,0.4-1.8,0.8-2.8,1c-0.3,0.1-0.5,0.1-0.8,0.2l-0.2,0.5c-0.7,2-1,4.1-1,6.2c0,0.8,0.1,1.6,0.3,2.3c0.8,3,2.9,5.8,3.6,8.8
	c5.1,0.2,10.2-0.6,15-2.3c-0.1-1.8,0.1-3.6,0.6-5.3c1.1-3.6,3.9-4.7,5.8-7.6C239.7,87.5,239.6,77.4,238.6,69.6z M218.9,64.4
	c-0.3,1.7-1.1,3-1.9,2.9s-1.1-1.6-0.8-3.3s1.1-3,1.9-2.9S219.1,62.8,218.9,64.4L218.9,64.4z M229.1,58.4c-0.1,0.1-0.2,0.1-0.4,0.1
	l0,0c-1.9-0.9-4-1.4-6.1-1.7c-1-0.1-2.1-0.2-3.1-0.3s-2.1-0.2-3.1-0.4l0,0c-0.3-0.1-0.5-0.4-0.4-0.7c0,0,0,0,0,0
	c0-0.2,0.2-0.3,0.3-0.4c1.1-0.4,2.2-0.6,3.4-0.6c1.1,0,2.2,0.2,3.3,0.5c2.2,0.5,4.2,1.5,6,2.9C229.2,58.1,229.2,58.3,229.1,58.4z"/>
<path class="st4" d="M211.2,96.7c0-2.1,0.3-4.2,1-6.2l0.2-0.5c-0.7,0.1-1.5,0.1-2.2,0.1c-1-0.1-2-0.4-2.9-0.9
	c-0.2-0.1-0.3-0.3-0.2-0.5c0,0,0,0,0,0l0,0c0.1-0.1,0.2-0.2,0.4-0.2l0,0c0.9,0.1,1.8,0.2,2.7,0.2c0.9,0,1.7-0.1,2.6-0.3h0.2
	c0.8-2,1.6-3.9,2.2-5.9c0.6-1.5,0.7-3.1,0.3-4.6c-1.2-4.1-4.5-0.8-6.8-2.8c-0.7-0.7-0.4-2.2-0.2-3c1.8-8.2,4.8-16.1,8.9-23.5
	c-3.6-0.4-7.3-1.2-8.4-3.4c-1.5,3.2-2.7,6.6-3.5,10c0.9,0,1.8,0.1,2.6,0.4c0.3,0.1,0.4,0.4,0.3,0.7c-0.1,0.2-0.2,0.3-0.3,0.3l0,0
	c-0.8,0.3-1.7,0.4-2.6,0.5h-0.3c-0.2,1-0.4,2-0.6,3.1c-3.7,24.3-3.8,46.7,9.8,47.6h0.7c-0.7-3-2.8-5.7-3.6-8.8
	C211.2,98.3,211.1,97.5,211.2,96.7z M206.2,63.8c-0.2,1.3-0.9,2.3-1.4,2.2s-0.9-1.2-0.6-2.5s0.9-2.3,1.4-2.2S206.4,62.4,206.2,63.8z
	"/>
<path class="st8" d="M277.7,36c-8.1-7-18-11.8-28.6-13.5c-5.3-0.8-10.7-1.1-16-0.3c-2.5,0.6-5,1.1-7.6,2c-2.8,0.6-5.6,1.4-8.1,2.2
	c-0.8,0.6-1.7,0.8-2.5,1.4c-0.6,0.3-0.8,0.6-1.4,1.1c-2,1.7-3.1,3.9-3.4,6.2c-0.3,1.1,0,2.2,0.3,3.4c0.6,0.6,1.1,1.1,1.7,1.7
	c3.1,1.4,6.7,2,10.1,1.7c2.5-0.3,5,1.1,6.5,3.4c4.5,5.3,7.6,11.5,9,18.2c1.7,7.6,3.1,22.4-1.4,29.2c-1.1,1.4-2.5,3.1-3.9,4.2
	c1.4-1.4,2.8-2.8,3.9-4.2c0.3-0.3,0.6-0.8,0.6-1.1c2.2-1.7,4.8-3.6,7.3-5.9c10.1-9.3,12.3-21.3,15.4-33.9c0.3-1.1,1.7-0.8,2,0.3
	c0.3,9.8-2.2,19.6-7.9,27.8c-2.2,3.6-5,6.7-8.1,9.3c-6.5,5.3-14,7.3-14,17.4c0,0.6-0.6,1.1-1.1,1.1c0,0,0,0-0.3,0
	c0.3,2,0.3,4.2,0,6.2c-0.6,3.1-1.7,5.9-3.4,8.7c-0.3,0.6-0.8,1.1-1.1,1.7c-1.4,2.2-3.1,4.5-4.8,6.5c-3.4,3.9-6.7,7.6-10.4,11.2
	c1.1-0.6,2-1.1,3.1-2l0,0c-0.8,0.8-2,1.4-3.1,2l-0.3,0.3c-1.1,1.1-2.2,2.5-3.4,3.6c-2.2,2.2-3.9,5-4.8,7.9c-1.1,3.1-0.3,6.5,2,8.7
	c1.4,1.1,3.1,2,5,2.5c3.6,1.1,7.6,1.7,11.5,2.2c2.8,0.3,5.9,0.3,8.7-0.6c6.5-2,10.7-9.3,15.1-13.7c3.1-3.1,6.5-5.9,10.1-8.1
	c2.5-1.4,5.3-2.2,8.1-2.5c2.2-0.3,7.6-1.7,8.7-5.3c0.3-1.1,0.6-2.2,0.8-3.6c0.3-1.1,0.3-2.2,0.3-3.4c0-1.4,0.3-2.8,0.3-4.2
	c0-2.2,0.3-4.8,0.3-7.3c0-2.5-0.8-5-0.8-7.6c0-2,0.6-3.6,1.4-5.3c-1.7,1.4-3.6,2.8-5.3,4.2c-5.9,4.5-11.8,8.4-18,12.3
	c-3.1,2-6.2,3.9-9,5.9s-5.6,4.2-8.4,6.5c-5.3,4.5-9.5,10.4-12.6,16.5c-0.3,0.6-0.6,0.6-1.1,0.6c-0.3-0.3-0.6-0.6-0.6-1.1
	c2.2-7,6.5-13.5,12.1-18.5c5.3-4.8,11.5-9.3,17.7-12.9c6.2-3.9,12.1-7.9,18-12.1c4.2-3.1,8.4-5.9,12.3-9.3c2-2.2,3.9-4.8,5.6-7.3
	c5.9-9.5,3.6-19.4,5-30C290.3,51.7,284.1,41.9,277.7,36z M244,34.3c-0.3,0.3-0.8,0.3-1.1,0l0,0c-1.4-1.1-2.8-2-4.2-2.8
	c-1.7-0.8-3.1-1.4-4.8-2c-3.4-1.1-6.7-2-10.1-2.2c-0.8,0-1.7,0-2.5-0.3c-0.8,0-1.7,0-2.5,0.3c-1.1,0.3-2.2,0.3-3.4,0.6
	c0.6-0.6,1.4-0.8,2.2-1.1c2.8-1.1,5.3-1.7,8.1-2.2h0.3c3.1,0.6,6.2,1.1,9,2.2c1.7,0.8,3.4,1.7,5,2.5c1.7,1.1,3.1,2.2,4.5,3.9
	C244.6,33.4,244.6,34,244,34.3z"/>
<path class="st9" d="M266.2,106.9c-5.9,4.2-11.8,8.1-18,12.1c-6.2,3.6-12.3,8.1-17.7,12.9c-5.6,5-9.8,11.2-12.1,18.5
	c0,0.3,0,0.8,0.6,1.1c0.6,0.3,0.8,0,1.1-0.6c2.8-6.5,7.3-12.1,12.6-16.5c2.5-2.2,5.3-4.5,8.4-6.5c2.8-2,5.9-3.9,9-5.9
	c6.2-3.9,12.1-7.9,18-12.3c2-1.4,3.6-2.8,5.3-4.2c1.4-2.8,3.1-5.3,5.3-7.6C274.9,100.8,270.7,103.9,266.2,106.9z"/>
<path class="st9" d="M259.5,51.7c-2.8,12.6-5.3,24.7-15.4,33.9c-2.5,2.2-5,3.9-7.3,5.9c-0.3,0.6-0.6,0.8-0.6,1.1
	c-2,2.8-4.8,3.9-5.9,7.6c-0.6,2.5-0.8,5-0.6,7.6c0.6,0,1.4-0.3,1.4-1.1c0,0,0,0,0-0.3c0-10.1,7.6-12.3,14-17.4
	c3.1-2.5,5.9-5.9,8.1-9.3c5.3-8.1,8.1-18,7.9-27.8C261.1,50.8,259.7,50.6,259.5,51.7z"/>
<path class="st9" d="M244.3,33.2c-1.1-1.7-2.8-2.8-4.5-3.9c-1.7-1.1-3.4-2-5-2.5c-2.8-1.1-5.9-2-9-2.2h-0.3
	c-2.8,0.6-5.6,1.4-8.1,2.2c-0.8,0.3-1.4,0.8-2.2,1.1c1.1-0.3,2.2-0.3,3.4-0.6c0.8,0,1.7-0.3,2.5-0.3c0.8,0,1.7,0,2.5,0.3
	c3.4,0.3,7,1.1,10.1,2.2c1.7,0.6,3.4,1.1,4.8,2c1.4,0.8,3.1,1.7,4.2,2.8l0,0c0.3,0.3,1.1,0.3,1.4,0
	C244.6,33.7,244.6,33.4,244.3,33.2L244.3,33.2z"/>
</svg>
