<svg id="illustrations" xmlns="http://www.w3.org/2000/svg" viewBox="0 0 300 300"><path d="M257.9,184.29c-7-17.62-16.24-35.29-14.67-54.88,8.34-104.12-32.64-106.24-32.64-106.24a48.77,48.77,0,0,1-5.78-4.3s-36.94-43.09-95.06,2.71C86.2,40.15,82.54,62.31,58.38,79.39s-35.26,38.1-27.08,59.26c6.19,16,17.91,29.26,23.49,45.59,6.69,19.62-4.43,34-1.71,53.48,1.19,8.49,5.42,17,12.88,21.23s15.63,3.42,24.15,1.67c-3.42-4.32-5.16-8.43-4.9-12,.6-8.09,12.17-9.84,19-8.77l16.68,2.61c25.17,3.68,38.76-21.1,38.76-21.1,2.93-17.21-14.74-19.44-19.59-21.08-26-8.77-32.15-22.62-35-45.93-2.13-17.16-8.77-28.19-10.46-37.86-6-34.54,22.85-22.84,54-32.87C168.58,77.2,189.63,57,198.22,48a4.859,4.859,0,0,1,7.55.64A196.818,196.818,0,0,1,228.08,94.9a5.44,5.44,0,0,0,6,3.64h0v.08a5.512,5.512,0,0,1,1.72,0c5.71,1.14,9.17,11.09,7.73,22.23-.73,5.56-4.39,9.95-8,12.87a9.36,9.36,0,0,0-1.7,1.8,93.713,93.713,0,0,1-8.06,32.29c-3.22,7.1-9.42,11.92-14,18.05C200.46,201.29,205,216.7,207.72,228c1.45,5.95,8.85,29.47,28,32.54l12.37,1.94c.5.09,1,.19,1.44.3a55.215,55.215,0,0,0,9.08-9.56c5.77-7.46,10.68-15.88,12.32-25.17C273.56,213.19,263.3,197.78,257.9,184.29Z" style="fill:#fff;opacity:0.30000001192092896;isolation:isolate"/><path d="M248.1,262.47l-12.37-1.94c-19.16-3.07-26.56-26.59-28-32.54-2.76-11.29-7.26-26.7,4.12-42.05,4.55-6.13,10.75-10.95,14-18.05a93.713,93.713,0,0,0,8.06-32.29,9.36,9.36,0,0,1,1.7-1.8c3.57-2.92,7.23-7.31,8-12.87,1.44-11.14-2-21.09-7.73-22.23a5.512,5.512,0,0,0-1.72,0v-.08h0a5.44,5.44,0,0,1-6-3.64,196.818,196.818,0,0,0-22.31-46.26,4.86,4.86,0,0,0-7.55-.64c-8.25,8.58-28,27.58-47.3,34.8a155.828,155.828,0,0,0,1.55,59.4c.33,1.49,1,4.34,2.74,4.86s6-1.58,7.71-2.2a7.4,7.4,0,0,1,4.16-.66c1.9.47,3,2.38,3.81,4.16,2.87,6.51,3.68,13.55,3.93,20.69l.09-.05a23.44,23.44,0,0,0,6.53-6.63,49.943,49.943,0,0,0,4.25-8.71v-.07a1.037,1.037,0,0,1,2,.55,27.014,27.014,0,0,1-3.29,10.08,24.434,24.434,0,0,1-7.42,7.93c-.68.45-1.39.86-2.11,1.24,0,3,0,6.09.06,9.11.23,16.69-10.79,32.26-15.3,38.6h0a2.18,2.18,0,0,0,0,.28S146,246.18,120.87,242.5l-16.68-2.61c-6.81-1.07-18.38.68-19,8.77-1.13,15.24,34.55,41.11,84.39,48.61s93.38-5.09,95.65-20.2C265.25,277.07,266.74,265.92,248.1,262.47ZM172,122.78c-1.79.45-4.06-2.48-5.08-6.53s-.39-7.71,1.4-8.16,4.07,2.47,5.08,6.53S173.82,122.33,172,122.78Zm-.7-24.39c-2.5.26-5,.57-7.45.88a65.663,65.663,0,0,1-7.58.65h0a1.361,1.361,0,0,1-1.36-1.34,1.378,1.378,0,0,1,.58-1.12,19.068,19.068,0,0,1,7.65-3,32.3,32.3,0,0,1,8.15-.39,50.841,50.841,0,0,1,8.06,1.15A31.719,31.719,0,0,1,187,98a.71.71,0,0,1-.5,1.32h0a48.453,48.453,0,0,0-15.17-.93Z" style="fill:#fff"/><path d="M173,174.3h-.11c-.63.27-1.26.5-1.91.71h0c-.62.2-1.24.37-1.87.53l-.36.08c-.62.15-1.23.28-1.85.38a23.9,23.9,0,0,1-10.58-.52.94.94,0,0,1,.26-1.84h0c1.65,0,3.28-.13,4.89-.25a43.724,43.724,0,0,0,4.76-.77c.77-.17,1.53-.38,2.28-.61a22.094,22.094,0,0,0,2.12-.78h.07a24.157,24.157,0,0,0,4.07-2.18h0c-.25-7.14-1.06-14.18-3.93-20.69-.78-1.78-1.91-3.69-3.81-4.16a7.4,7.4,0,0,0-4.16.66c-1.74.62-5.9,2.72-7.71,2.2s-2.41-3.37-2.74-4.86a155.828,155.828,0,0,1-1.55-59.4c-.8.29-1.6.58-2.39.83-31.13,10-60-1.67-54,32.87,1.69,9.67,8.33,20.7,10.46,37.86,2.88,23.31,9,37.16,35,45.93,4.83,1.63,22.33,3.85,19.62,20.81,4.51-6.34,15.53-21.91,15.3-38.6,0-3,0-6.07-.06-9.11A12.076,12.076,0,0,1,173,174.3Zm-50.39-62.49a48.264,48.264,0,0,0-11.38,5.93.711.711,0,0,1-.992-.158l-.008-.012a.74.74,0,0,1,0-.85,35.909,35.909,0,0,1,10.54-8.8,26,26,0,0,1,6.4-2.72,15.742,15.742,0,0,1,6.94-.47,1.38,1.38,0,0,1,1.11,1.6,1.349,1.349,0,0,1-.66.94h0a31.578,31.578,0,0,1-6,2.55ZM138,133.35c-1.79.44-4.07-2.48-5.08-6.54s-.39-7.71,1.4-8.16,4.06,2.48,5.08,6.54S139.74,132.9,138,133.35Z" style="fill:#fff;opacity:0.800000011920929;isolation:isolate"/><path d="M134.27,118.65c-1.79.45-2.42,4.11-1.4,8.16s3.29,7,5.08,6.54,2.42-4.11,1.4-8.16S136.06,118.21,134.27,118.65Z" style="fill:#fff;opacity:0.15000000596046448;isolation:isolate"/><path d="M168.35,108.09c-1.79.45-2.42,4.1-1.4,8.16s3.29,7,5.08,6.53,2.42-4.1,1.4-8.16S170.14,107.64,168.35,108.09Z" style="fill:#fff;opacity:0.15000000596046448;isolation:isolate"/><path d="M187.09,153.06a1.05,1.05,0,0,0-1.37.56v.07a49.943,49.943,0,0,1-4.25,8.71,23.44,23.44,0,0,1-6.53,6.63,25.587,25.587,0,0,1-8.64,3.64,43.724,43.724,0,0,1-4.76.77c-1.61.12-3.24.24-4.89.25h0a.94.94,0,0,0-.26,1.84,23.9,23.9,0,0,0,10.58.52A25.859,25.859,0,0,0,177,172.18a24.434,24.434,0,0,0,7.42-7.93,27.014,27.014,0,0,0,3.29-10.08A1.06,1.06,0,0,0,187.09,153.06Z" style="fill:#fff;opacity:0.15000000596046448;isolation:isolate"/><path d="M156.3,99.92a65.663,65.663,0,0,0,7.58-.65c2.47-.31,5-.62,7.45-.88a48.481,48.481,0,0,1,15.12,1h0A.747.747,0,1,0,187,98h0a31.7,31.7,0,0,0-7.61-2.78,50.841,50.841,0,0,0-8.06-1.15,32.3,32.3,0,0,0-8.15.39,19.068,19.068,0,0,0-7.65,3,1.378,1.378,0,0,0-.58,1.12,1.361,1.361,0,0,0,1.36,1.34Z" style="fill:#fff;opacity:0.15000000596046448;isolation:isolate"/><path d="M134.61,107.27a1.349,1.349,0,0,0,.66-.94,1.38,1.38,0,0,0-1.11-1.6,15.742,15.742,0,0,0-6.94.47,26,26,0,0,0-6.4,2.72,35.909,35.909,0,0,0-10.54,8.8.74.74,0,0,0,0,.85.71.71,0,0,0,.988.178l.012-.008a48.264,48.264,0,0,1,11.38-5.93l6-2a31.578,31.578,0,0,0,6-2.55Z" style="fill:#fff;opacity:0.15000000596046448;isolation:isolate"/></svg>