<svg id="illustrations" xmlns="http://www.w3.org/2000/svg" viewBox="0 0 300 300"><path d="M245,251.4l-29.92,1.34c-14.13,1-21.38-2.51-25.31-7.33h0c-16.1-.56-50.81-6.3-75.37-34.79-1.43-2.49-3-5-4.67-7.47l-.87-.58c6.73,10.17,12.44,19.95,12,31.55-.66,17-30.77,26.25-50.78,27.85l-12.92,1c-19.48,2-18.53,12.09-18.53,12.09,1.56,13.73,71,27.69,123.06,24s102.88-24.81,102.51-38.59C264,253.14,252.13,250.85,245,251.4Z" style="fill:#fff"/><path d="M88.68,126.54c-1.07-4.8-3.57-8.75-3.36-13.68h-.08a4.768,4.768,0,0,0-.53.09c-5.5,1.44-8.29,11.34-6.23,22.1.92,4.84,4.25,8.5,7.63,11.05a10,10,0,0,1,2.53,2.71l1-17.35C89.29,129.81,89,128.14,88.68,126.54Z" style="fill:#fff"/><path d="M177.11,74.75h0c-10.73-3-21.27-9.52-31.74-14.46l-.6-.28-1.08-.5-.87-.39-1.43-.62-1-.42-.83-.33-1.09-.42-.69-.27-1.66-.58-.66-.22-1.19-.37-.66-.2c-.58-.16-1.15-.32-1.73-.46l-.36-.08c-.48-.12-1-.22-1.45-.32l-.61-.12-1.36-.23-.48-.07c-.58-.08-1.17-.14-1.76-.19h-.49l-1.37-.1h-2.49a9.539,9.539,0,0,0-1.68.15l-.53.06-1.44.23-.42.08c-.6.12-1.2.26-1.8.43l-.43.12c-.48.14-1,.3-1.44.47l-.52.18c-.6.23-1.21.47-1.82.74h0c-6.66,3.07-15.52,51.31-13.52,56.25a37.037,37.037,0,0,0,1.61,8.71c.12.46.23.9.31,1.33.61,2.26,1.22,5.08,1.92,8.14a8.869,8.869,0,0,1,.92,3.91c2,8.27,4.92,17.4,10.21,22.42,6.38,6.06,14.22,4,22.89,2.42l2.61-.36a62.723,62.723,0,0,1,18.14.06c.08-.3.15-.6.23-.89a9.147,9.147,0,0,1,2.63-4.73c2.55-2.05,6.5-1.28,9.18-3.16s3.13-5.78,2.91-9.11c-.5-7.64-2.24-15.14-3.46-22.7-2.66-16.46.27-28.38,4.82-37.18A53.14,53.14,0,0,1,177.11,74.75ZM124.23,96.82a2.188,2.188,0,0,1,1-1.33,18.816,18.816,0,0,1,6.27-2.31,53.908,53.908,0,0,1,6.58-.82,49.059,49.059,0,0,1,6.64.17,19.583,19.583,0,0,1,3.29.54,13.374,13.374,0,0,1,3.22,1.2,2,2,0,0,1,.854,2.7c-.02.038-.042.076-.064.113a2.164,2.164,0,0,1-1,.84h0a15.789,15.789,0,0,1-3.18.92,25.7,25.7,0,0,1-3.1.44c-2.06.16-4.11.4-6.16.51s-4.1.15-6.16.24a25.6,25.6,0,0,1-6.38-.53h0a2.221,2.221,0,0,1-1.836-2.547C124.211,96.908,124.22,96.864,124.23,96.82Zm25,19.51c-.41,3.6-1.89,6.45-3.47,6.91a1.594,1.594,0,0,1-.61.06.971.971,0,0,1-.25-.06c-1.64-.49-2.59-3.79-2.15-7.65a12.405,12.405,0,0,1,1.93-5.66,3.236,3.236,0,0,1,1.49-1.24,1.342,1.342,0,0,1,.44-.07.885.885,0,0,1,.23,0,1.957,1.957,0,0,1,.33.07,1.678,1.678,0,0,1,.51.31.486.486,0,0,1,.09.06,3.7,3.7,0,0,1,.69.93.451.451,0,0,0,0,.09,11.73,11.73,0,0,1,.8,6.25Z" style="fill:#fff"/><path d="M148.54,110.08a.451.451,0,0,1,0-.09,3.7,3.7,0,0,0-.69-.93.486.486,0,0,0-.09-.06,1.678,1.678,0,0,0-.51-.31,1.957,1.957,0,0,0-.33-.07.885.885,0,0,0-.23,0,1.342,1.342,0,0,0-.44.07,3.236,3.236,0,0,0-1.49,1.24h0a12.3,12.3,0,0,0-1.92,5.66c-.45,3.86.5,7.16,2.14,7.65a.971.971,0,0,0,.25.06,1.594,1.594,0,0,0,.61-.06c1.58-.46,3.06-3.31,3.47-6.91A11.723,11.723,0,0,0,148.54,110.08Z" style="fill:#fff;opacity:0.15000000596046448;isolation:isolate"/><path d="M135.75,212.9a62.139,62.139,0,0,1-26-9.74c1.66,2.5,3.24,5,4.67,7.47,24.56,28.49,59.27,34.23,75.37,34.79-3.39-4.15-4.31-9.3-5-13.5s-1.82-11.69-1-18a25.75,25.75,0,0,1-4.64,1.09Z" style="fill:#fff;opacity:0.800000011920929;isolation:isolate"/><path d="M213.72,72.58a4.037,4.037,0,0,0-.21-.52.409.409,0,0,0,0-.07,5.033,5.033,0,0,0-.46-.73l-.12-.16a4.982,4.982,0,0,0-1.61-1.28l-.48-.2a4.352,4.352,0,0,0-4,.49h0c-.57.4-1.14.77-1.71,1.13l-.57.34-1.19.69-.64.34-.86.44-.28.13-.62.29c-.42.2-.85.38-1.28.55l-.45.19c-.58.22-1.17.43-1.75.62h-.14c-.53.17-1.07.32-1.6.46l-.47.11c-.43.1-.86.2-1.29.28l-.5.1c-.44.08-.88.14-1.32.2l-.42.06c-.55.07-1.11.12-1.66.15h0a33.071,33.071,0,0,1-3.59,0h-.25c-.52,0-1-.06-1.54-.11h-.26q-.82-.09-1.65-.21h-.08c-.83-.12-1.65-.27-2.47-.44-1-.21-2-.45-3-.73h0a53.163,53.163,0,0,0-4.3,7c-4.55,8.8-7.48,20.72-4.82,37.18,1.22,7.56,3,15.06,3.46,22.7.22,3.33-.17,7.2-2.91,9.11s-6.63,1.11-9.18,3.16a9.147,9.147,0,0,0-2.63,4.73c-.08.29-.15.59-.23.89,2.17.33,4.38.78,6.72,1.34,13.2,3.13,36.37,9.65,45.67-3.46,6.15-8.66,13-17.53,16.43-37.31C223,98.33,216.49,80.5,213.72,72.58ZM184,118.41c-.46,4-2.29,7.17-4.08,7-.9-.11-1.61-1-2-2.42a13.26,13.26,0,0,1-.36-5.3c.47-4,2.3-7.17,4.09-7,1.45.16,2.43,2.47,2.5,5.51A16.677,16.677,0,0,1,184,118.41Zm22-17.13a2.39,2.39,0,0,1-1.43.92h-.05a26.018,26.018,0,0,1-6.38.48c-2.06-.11-4.11-.16-6.16-.3s-4.09-.38-6.15-.56a25.717,25.717,0,0,1-3.1-.46,15.755,15.755,0,0,1-3.16-1h0a2,2,0,0,1-1.142-2.588c.019-.048.04-.095.062-.142a2.182,2.182,0,0,1,.91-.92,13.5,13.5,0,0,1,3.23-1.17,20.548,20.548,0,0,1,3.3-.51,48.889,48.889,0,0,1,6.64-.11,53.605,53.605,0,0,1,6.57.87,18.991,18.991,0,0,1,6.25,2.36,2.129,2.129,0,0,1,.754,2.916A2.223,2.223,0,0,1,206,101.28Z" style="fill:#fff;opacity:0.800000011920929;isolation:isolate"/><path d="M181.63,110.7c-1.79-.21-3.62,2.91-4.09,7a14.484,14.484,0,0,0,.08,4.09,7.952,7.952,0,0,0,.28,1.21c.43,1.4,1.14,2.31,2,2.42,1.79.2,3.62-2.92,4.08-7a16.67,16.67,0,0,0,.11-2.2C184.06,113.17,183.08,110.86,181.63,110.7Z" style="fill:#fff;opacity:0.15000000596046448;isolation:isolate"/><path d="M205.33,98.19a18.991,18.991,0,0,0-6.25-2.36,53.605,53.605,0,0,0-6.57-.87,48.889,48.889,0,0,0-6.64.11,20.548,20.548,0,0,0-3.3.51,13.5,13.5,0,0,0-3.23,1.17,2.177,2.177,0,0,0-.91.92,2,2,0,0,0,.938,2.668c.046.023.094.043.142.062h0a15.755,15.755,0,0,0,3.16,1,25.717,25.717,0,0,0,3.1.46c2.06.18,4.11.44,6.15.56s4.1.19,6.16.3a26.018,26.018,0,0,0,6.38-.48h.05a2.39,2.39,0,0,0,1.43-.92,2.13,2.13,0,0,0-.4-2.986A2.354,2.354,0,0,0,205.33,98.19Z" style="fill:#fff;opacity:0.15000000596046448;isolation:isolate"/><path d="M126,99.5h0a25.6,25.6,0,0,0,6.38.53c2.06-.09,4.12-.12,6.16-.24s4.1-.35,6.16-.51a25.7,25.7,0,0,0,3.1-.44,15.789,15.789,0,0,0,3.18-.92h0a2.164,2.164,0,0,0,1-.84,2,2,0,0,0-.677-2.746c-.037-.023-.074-.044-.113-.064a13.374,13.374,0,0,0-3.22-1.2,19.583,19.583,0,0,0-3.29-.54,49.059,49.059,0,0,0-6.64-.17,53.908,53.908,0,0,0-6.58.82,18.816,18.816,0,0,0-6.27,2.31,2.19,2.19,0,0,0-1,1.33,2.22,2.22,0,0,0,1.677,2.654C125.911,99.484,125.955,99.493,126,99.5Z" style="fill:#fff;opacity:0.15000000596046448;isolation:isolate"/><path d="M268.94,13.13C246.15,27.64,122.45-37.35,93.7,37.33v.11c-.26.66-.49,1.3-.72,1.92-.29.84-.59,1.67-.86,2.54h0C65,51.45,61.65,64.4,60.32,77.46,56.65,113.4,76.51,118,80.25,147.54c.64,5.06,4,9,7.78,12.56l-.14,2.56a42.35,42.35,0,0,0,8.24,27.8,54.832,54.832,0,0,0,12.75,12.12l.87.58a62.139,62.139,0,0,0,26,9.74l43.38,2.1a25.75,25.75,0,0,0,4.64-1.09c17.84-5.88,26.77-29.81,31.5-38.59l10.47-39.11c.16-.59,1.87-11.78,1.87-12.39h0c4-13.12,11.11-38.66,10.51-52.34a47.852,47.852,0,0,0-.69-6.43C261,54.16,272.23,33.74,268.94,13.13ZM88.64,148.82a10,10,0,0,0-2.53-2.71c-3.38-2.55-6.71-6.21-7.63-11.05-2.06-10.76.73-20.66,6.23-22.1a4.768,4.768,0,0,1,.53-.09h.08c-.21,4.93,2.29,8.88,3.36,13.68.35,1.6.61,3.27.91,4.93Zm89.5,40.38a5,5,0,0,1-2.17,3.46l-.07.06a3.515,3.515,0,0,1-.33.18c-.13.07-.25.15-.39.21l-.26.08a3.009,3.009,0,0,1-.53.18h0a31.276,31.276,0,0,1-3.72.67l-.4.06-1.08.09-1.08.09h-2.25c-.76,0-1.52,0-2.3-.06h-.05c-.29,0-.57-.05-.86-.07q-1.121-.071-2.25-.21h-.24c-1-.13-2-.29-3-.47-1.34-.25-2.66-.54-4-.89a50.846,50.846,0,0,1-9.82-3.82,35.514,35.514,0,0,1-8.87-6.31,4.91,4.91,0,0,1,5.73-7.83h0c2.75,1.42,5.34,2.76,8,3.93a55.35,55.35,0,0,0,7,2.52h0l1,.27,1.59.4h.15l.34.08,1,.2,1.11.24c.95.18,1.91.32,2.85.45l1.29.17c2.28.26,4.61.4,6.75.48l1.84.07h.24a6.145,6.145,0,0,1,.62.08h.38a5,5,0,0,1,3.41,2.86,1.148,1.148,0,0,1,.1.19,1.28,1.28,0,0,0,.09.32,4.91,4.91,0,0,1,.26,1.63c-.03.32-.06.49-.08.69Zm30.75-31.82c-9.3,13.1-32.47,6.58-45.67,3.45-2.34-.56-4.55-1-6.72-1.34a62.723,62.723,0,0,0-18.14-.06l-2.61.36c-8.67,1.59-16.51,3.64-22.89-2.41-5.29-5-8.18-14.16-10.21-22.43a8.869,8.869,0,0,0-.92-3.91c-.7-3.06-1.31-5.88-1.92-8.14-.08-.43-.19-.87-.31-1.33a37.027,37.027,0,0,1-1.61-8.71c-2-4.94,6.86-53.18,13.52-56.25h0c.61-.27,1.22-.51,1.82-.74l.52-.18c.48-.17,1-.33,1.44-.47l.43-.12c.6-.17,1.2-.31,1.8-.43l.42-.08,1.44-.23.53-.06q.84-.1,1.68-.15h2.49l1.37.06h.49c.59.05,1.18.11,1.76.19l.48.07,1.36.23.61.12c.48.1,1,.2,1.45.32l.36.08c.58.14,1.15.3,1.73.46l.66.2,1.19.37.66.22,1.66.58.69.27,1.09.42.83.33,1,.42,1.43.62.87.39,1.08.5.6.28c10.47,4.94,21,11.5,31.74,14.46h0c1,.28,2,.51,3,.72.82.17,1.64.33,2.47.45h.08q.83.12,1.65.21h.26c.51,0,1,.09,1.54.11h.25a33.071,33.071,0,0,0,3.59,0h0a13.3,13.3,0,0,0,1.66-.15l.42-.06c.44-.06.88-.12,1.32-.2l.5-.1c.43-.08.86-.18,1.29-.28l.47-.11c.53-.14,1.07-.29,1.6-.46h.14c.58-.19,1.17-.4,1.75-.62l.45-.19c.43-.17.86-.35,1.28-.55l.62-.29.26-.13.88-.44.64-.34,1.19-.69.57-.34c.57-.36,1.14-.73,1.71-1.13h0a4.352,4.352,0,0,1,4-.49l.48.2a4.982,4.982,0,0,1,1.61,1.28l.12.16a5.033,5.033,0,0,1,.46.73.409.409,0,0,1,0,.07,4.037,4.037,0,0,1,.21.52c2.77,7.92,9.32,25.75,11.6,47.48C221.91,139.84,215,148.71,208.89,157.38Z" style="fill:#fff;opacity:0.30000001192092896;isolation:isolate"/><path d="M157.16,193.49v-.08q-.16-.63-.3-1.29h0q-.3-1.37-.57-2.85c-.08-.5-.17-1-.25-1.53v-.12c-.12-.73-.22-1.47-.31-2.23-.18-1.39-.32-2.82-.43-4.26a55.35,55.35,0,0,1-7-2.52c-2.66-1.17-5.25-2.51-8-3.93h0a4.91,4.91,0,0,0-5.73,7.83,35.514,35.514,0,0,0,8.87,6.31,50.846,50.846,0,0,0,9.82,3.82c1.31.35,2.63.64,4,.89Z" style="fill:#fff"/><path d="M177.94,187a.963.963,0,0,0-.09-.32,1.148,1.148,0,0,0-.1-.19,5,5,0,0,0-3.41-2.86h-.38a6.145,6.145,0,0,0-.62-.08h-.24l-1.84-.07c-2.18-.09-4.46-.22-6.74-.48l-1.3-.17c-.94-.13-1.9-.27-2.85-.45l-1.11-.24-1-.2-.34-.08h-.15l-1.59-.4-1-.27c.11,1.45.26,2.87.43,4.26.1.76.19,1.5.31,2.23v.12c.08.52.17,1,.26,1.53.17,1,.36,1.94.56,2.85h0q.139.66.3,1.29v.08c1,.18,2,.34,3,.47h.24c.75.09,1.5.15,2.25.21.29,0,.57.06.86.07h.05c.78,0,1.54.06,2.3.06h2.25l1.08-.09,1.08-.09.4-.06a31.276,31.276,0,0,0,3.72-.67,3.009,3.009,0,0,0,.53-.18l.26-.08c.14-.06.26-.14.39-.21a3.515,3.515,0,0,0,.33-.18l.07-.06a5,5,0,0,0,2.17-3.46c0-.18.05-.37.06-.56A4.937,4.937,0,0,0,177.94,187Z" style="fill:#fff;opacity:0.800000011920929;isolation:isolate"/></svg>