<svg id="illustrations" xmlns="http://www.w3.org/2000/svg" viewBox="0 0 300 300"><path d="M153.38,43.63q-8.69-7.25-24-7.25-16.53,0-26.2,8.26T93.51,66.21a34.891,34.891,0,0,0,5.24,18.34q5.23,8.67,20.16,23.59a1.973,1.973,0,0,1,.25-.14,97.362,97.362,0,0,1-11.25-14.3,34.8,34.8,0,0,1-5.24-18.34q0-13.31,9.67-21.57t26.2-8.26c8.25,0,15,1.61,20.38,4.76A23.672,23.672,0,0,0,153.38,43.63Z" style="fill:#fff;opacity:0.30000001192092896;isolation:isolate"/><path d="M248.36,232.72q17.19-26.921,25.23-64.24l-9.15-9.15q-8.07,37.5-25.4,64.5Z" style="fill:#fff;opacity:0.30000001192092896;isolation:isolate"/><polygon points="246.56 290.52 274.32 257.92 283.67 266.85 255.85 299.5 246.56 290.52" style="fill:#fff;opacity:0.30000001192092896;isolation:isolate"/><path d="M211.23,256.08Q171.71,290,116.49,289.94q-29.43,0-52.81-9.67A95.941,95.941,0,0,1,38.09,265q13,15.44,34.74,24.42,23.39,9.679,52.81,9.68,55.23,0,94.74-33.86l.15-.17Z" style="fill:#fff;opacity:0.30000001192092896;isolation:isolate"/><path d="M77.71,237.29A32.212,32.212,0,0,1,72,218.47a43,43,0,0,1,9.87-27.61q9.88-12.3,34.07-25.6l-9.15-9.15q-24.191,13.3-34.07,25.6a42.935,42.935,0,0,0-9.87,27.61Q62.88,226.54,77.71,237.29Z" style="fill:#fff;opacity:0.30000001192092896;isolation:isolate"/><path d="M204.78,62.58a60.387,60.387,0,0,1-13.51,38.7q-13.52,16.93-44.14,34.27l9.43,9q30.409-17.25,43.86-34.11a60.352,60.352,0,0,0,13.51-38.7q0-28.609-20.56-45.35l-.34-.26Q204.779,41,204.78,62.58Z" style="fill:#fff;opacity:0.30000001192092896;isolation:isolate"/><path d="M246.7,290.35l-35.47-34.27Q171.71,290,116.49,289.94q-29.43,0-52.81-9.67T27,253.46a61.751,61.751,0,0,1-13.31-38.9q0-26.2,15.32-46.16t50-39.3q-16.95-16.93-24.2-31.65A68,68,0,0,1,47.56,67q0-29.83,22.37-48.18T129.39.5q34.26,0,54.83,16.73t20.56,45.35a60.387,60.387,0,0,1-13.51,38.7q-13.52,16.93-44.14,34.27l60.87,58q10.06-19.75,15.72-47.57l40.72,13.3q-8.07,37.5-25.4,64.5l35.48,33.86Zm-65.31-62.89-74.57-71.35q-24.19,13.3-34.07,25.6a42.935,42.935,0,0,0-9.87,27.61q0,17.75,15.72,28.62t41.52,10.89Q155.19,248.83,181.39,227.46ZM103.19,44.64q-9.68,8.269-9.68,21.57a34.891,34.891,0,0,0,5.24,18.34q5.23,8.67,20.16,23.59,24.18-13.3,33.66-23.14T162,63.39q0-12.49-8.66-19.76t-24-7.25Q112.86,36.38,103.19,44.64Z" style="fill:#fff"/></svg>