<svg id="illustrations" xmlns="http://www.w3.org/2000/svg" viewBox="0 0 300 300"><rect x="257.652" y="128.281" width="26.46" height="26.46" rx="2.64" transform="translate(-0.751 281.574) rotate(-54.86)" style="fill:#fff"/><path d="M36.36,100.52a18.4,18.4,0,1,0-.058.031Z" style="fill:#fff"/><path d="M290.55,165.79c-16,7.26-21.06,5.4-21.06,5.4l-4.8-1.28c-4.12.24-7.7,1.82-7.6,6.5-7.69,9-13.71,13.41-21,18.9l-1.63,1.23s-8,5.4-9.84,6.48a87.385,87.385,0,0,1-8.46,4.29,93.14,93.14,0,0,1-7-9.93c-1.14-1.83-2.19-3.75-3.23-5.66l-1.11-2c-.29.35-.6.7-.92,1.07l-.23.25-.77.85-.31.33c-.26.27-.51.54-.78.81l-.34.34c-.27.28-.55.55-.83.82l-.35.33-.91.85-.33.3-1.06.92-.25.21c-.42.36-.86.71-1.3,1.06l-.08.06a47.206,47.206,0,0,1-6.47,4.24h-.09c-.55.29-1.11.57-1.67.84l-.2.1c-.54.25-1.09.49-1.64.72l-.25.1c-.56.23-1.12.44-1.69.64l-.24.09c-.59.2-1.19.39-1.8.56l-.18.06q-1,.27-2,.51c.66,1.17,1.34,2.35,2.07,3.57,1.68,2.86,3.43,5.65,5.35,8.28,3.79,5.3,7.81,10.46,12.57,14.37h0c.6.54,1.19,1,1.77,1.48a10.348,10.348,0,0,0,2.83,2.64,12.277,12.277,0,0,0,9.78,1.14,54.267,54.267,0,0,0,6.41-1.75c27.33-12.2,36.81-33.1,43-45.66,3.06.67,11.76,1.5,24.72-6.15C300.89,176.39,304.57,159.42,290.55,165.79Z" style="fill:#fff;opacity:0.800000011920929;isolation:isolate"/><path d="M138.15,102.86a18.225,18.225,0,0,0,1.74-.94l.3-.18c.45-.3.9-.61,1.32-.95a11.419,11.419,0,0,0,1.43-1.36.441.441,0,0,0,.09-.27.381.381,0,0,0-.13-.25h-.09a.392.392,0,0,0-.35,0c-.54.33-1.07.66-1.61,1s-1.07.62-1.62.91-1.1.55-1.67.8-1.14.46-1.73.66c-.33.12-.67.22-1,.32h0l-.42.12-.54.14h0c-.52.13-1,.25-1.57.35.4-.07.79-.16,1.19-.25-.4.09-.79.18-1.19.25-1.21.22-2.44.37-3.69.5a.42.42,0,0,0-.38.45.37.37,0,0,0,.12.24.4.4,0,0,0,.23.12h.12a13.508,13.508,0,0,0,3.81,0c.56-.07,1.11-.18,1.66-.3l.5-.11a17.5,17.5,0,0,0,3.52-1.24Z" style="fill:#fff;opacity:0.15000000596046448;isolation:isolate"/><path d="M139.72,79.13a3.78,3.78,0,0,0-1.21-2.67.734.734,0,0,0-.44-.13c-.54.07-.91.87-1,2a7.48,7.48,0,0,0,0,1.14,4.724,4.724,0,0,0,.86,2.38,1.207,1.207,0,0,0,.38.32.6.6,0,0,0,.4.1c.36,0,.65-.4.82-1A5.3,5.3,0,0,0,139.72,79.13Z" style="fill:#fff;opacity:0.15000000596046448;isolation:isolate"/><path d="M125.75,80a4.38,4.38,0,0,0-1-2.5l-.22-.18a.689.689,0,0,0-.44-.12c-.45,0-.79.61-.93,1.42a5.28,5.28,0,0,0-.08,1.08v.6a5.642,5.642,0,0,0,.42,1.62c.32.76.78,1.23,1.23,1.18a.86.86,0,0,0,.56-.42A4.377,4.377,0,0,0,125.75,80Z" style="fill:#fff;opacity:0.15000000596046448;isolation:isolate"/><path d="M106.52,84.92c0-.44.06-.88.1-1.32v-.59a12,12,0,0,1,.14-1.33l.06-.52c.06-.45.12-.91.18-1.35a1.012,1.012,0,0,1,.07-.45c.07-.46.14-.92.22-1.36a.754.754,0,0,1,.07-.39c.08-.46.16-.92.25-1.37l.06-.32c.1-.46.19-.92.29-1.37l.06-.25c.1-.46.2-.91.31-1.36a1.687,1.687,0,0,0,.05-.21c.11-.45.22-.89.34-1.32v-.17c.12-.44.24-.87.35-1.29v-.11c.13-.43.25-.86.37-1.26v-.06c.12-.42.25-.83.37-1.22h0c.64-2,1.23-3.69,1.63-4.84a2,2,0,0,1,2.579-1.162,2.029,2.029,0,0,1,.331.162,15.363,15.363,0,0,0,4.76,2.23,11.928,11.928,0,0,0,5.87.27,6.016,6.016,0,0,0,1.13-.39l.46-.22.73-.36.27-.14.9-.47h0c1.85-1,4-2.23,6.2-3.4l.24-.13L136,58.3l.38-.19,1-.5.44-.21,1-.44.49-.21c.33-.14.65-.26,1-.38l.53-.21.94-.31.56-.19.92-.24c.19-.05.38-.11.57-.15s.62-.13.92-.18.37-.08.54-.1c.33,0,.65-.08,1-.1l.47-.05h1.41a11.883,11.883,0,0,1,6,1c4.36,2,7.11,18.56,8.13,22a1.66,1.66,0,0,0,.54.66c1.35.36,2.29,2,2.64,4.16.73-5.94,1.17-14.47,2.73-16.81,5.66-8.51,1.21-17.74-6.6-18a12.917,12.917,0,0,1-6-1.7c-5.67-4.29-6.15-13-12.46-16.41-11.15-5.82-24.73,1.94-30.78,12.08a22.1,22.1,0,0,0-2.3,6.8,3.661,3.661,0,0,1-2.57,2.9c-2.43.74-6,3.11-6.28,10.58-.3,6.8,4,20.62,5.17,24.38-.06-.32-.1-.51-.1-.51v-.42h0Z" style="fill:#fff;opacity:0.30000001192092896;isolation:isolate"/><path d="M163.05,78.39a1.66,1.66,0,0,1-.54-.66c-1-3.41-3.77-20-8.13-22a11.883,11.883,0,0,0-6-1h-1.41l-.47.05a3.538,3.538,0,0,0-1,.1,3.636,3.636,0,0,0-.54.1c-.18.03-.61.1-.92.18s-.38.1-.57.15l-.92.24-.56.19-.94.31-.53.21c-.32.12-.64.24-1,.38l-.49.21-1,.44-.44.21-1,.5-.38.19-1.09.55-.24.13c-2.24,1.17-4.35,2.4-6.2,3.4h0l-.9.47-.27.14-.73.36-.29.14c.3.46.6,1,.89,1.46.15.26.29.52.42.79a22.257,22.257,0,0,1,2.19,11.83,12.344,12.344,0,0,1-.14,1.48c-.06.48-.12,1-.2,1.47-.49,3-1.19,6-1.39,9.12-.09,1.34.06,2.89,1.16,3.66s2.67.44,3.69,1.27a3.633,3.633,0,0,1,1.06,1.9,18.04,18.04,0,0,1,.54,2.85c0,.35.06.73.09,1.1v2.15c.34-.1.68-.19,1-.31.59-.2,1.16-.42,1.73-.66s1.12-.51,1.67-.8,1.08-.59,1.62-.91,1.07-.64,1.61-1a.392.392,0,0,1,.35,0h.09a.381.381,0,0,1,.13.25.441.441,0,0,1-.09.27,11.419,11.419,0,0,1-1.43,1.36c-.42.34-.87.65-1.32.95l-.3.18a18.225,18.225,0,0,1-1.74.94,16.266,16.266,0,0,1-1.83.75c-.5.18-1,.32-1.53.46h0a31.8,31.8,0,0,1-1,6.79c-.65,2.38-2.6,6.92-2.6,6.92s11.4,2.07,23.54-8a27.811,27.811,0,0,0-2.33,4.77,72.382,72.382,0,0,1,3.39-6.42,38.429,38.429,0,0,0,5.59-15.56,4.009,4.009,0,0,1,1.07-1.18A7.482,7.482,0,0,0,165.56,87a14.278,14.278,0,0,0,.15-4.57v.16C165.34,80.37,164.4,78.75,163.05,78.39Zm-23.48,2.87c-.17.57-.46.93-.82,1h0a.6.6,0,0,1-.4-.1,1.207,1.207,0,0,1-.38-.32,4.721,4.721,0,0,1-.86-2.38,7.48,7.48,0,0,1,0-1.14c.08-1.09.45-1.89,1-2a.734.734,0,0,1,.44.13,3.78,3.78,0,0,1,1.21,2.67A5.3,5.3,0,0,1,139.57,81.26ZM147,71.35a.59.59,0,0,1-.48.34,38.279,38.279,0,0,1-5-.13l-2.5-.16a13.162,13.162,0,0,1-2.53-.35.53.53,0,0,1-.39-.64.521.521,0,0,1,.33-.37,8.588,8.588,0,0,1,2.58-.52,23.075,23.075,0,0,1,2.63,0,14.423,14.423,0,0,1,5.12,1.07A.59.59,0,0,1,147,71.35Z" style="fill:#fff"/><path d="M151.11,117.33c.35-.61.64-1.21.91-1.81.14-.32.27-.64.42-1a27.811,27.811,0,0,1,2.33-4.77c-12.14,10.06-23.54,8-23.54,8a62.146,62.146,0,0,0,2.6-6.92,31.8,31.8,0,0,0,1-6.79h-.16l-.5.11a15.607,15.607,0,0,1-1.66.3,13.508,13.508,0,0,1-3.81,0h-.12a.4.4,0,0,1-.23-.12.37.37,0,0,1-.12-.24.42.42,0,0,1,.38-.45c1.25-.13,2.48-.28,3.69-.5.53-.1,1.05-.22,1.57-.35l.55-.15.44-.13v-2.15a9.791,9.791,0,0,0-.09-1.1,18.04,18.04,0,0,0-.54-2.85,3.633,3.633,0,0,0-1.06-1.9c-1-.83-2.61-.52-3.69-1.27s-1.25-2.32-1.16-3.66c.2-3.07.9-6.08,1.39-9.12.08-.5.15-1,.2-1.47s.1-1,.14-1.48a22.257,22.257,0,0,0-2.19-11.83c-.13-.27-.27-.53-.42-.79-.29-.51-.59-1-.89-1.46l-.17.08a6.016,6.016,0,0,1-1.13.39,11.929,11.929,0,0,1-5.87-.27,15.363,15.363,0,0,1-4.76-2.23,2,2,0,0,0-2.748.669,2.029,2.029,0,0,0-.162.331c-.4,1.15-1,2.8-1.63,4.84h0c-.12.39-.25.8-.37,1.22v.06c-.12.4-.24.83-.37,1.26v.11c-.11.42-.23.85-.35,1.29v.17c-.12.43-.23.87-.34,1.32a1.687,1.687,0,0,1-.05.21c-.11.45-.21.9-.31,1.36l-.06.25c-.1.45-.19.91-.29,1.37l-.06.32c-.09.45-.17.91-.25,1.37a.791.791,0,0,1-.07.39c-.08.44-.15.9-.22,1.36a3.5,3.5,0,0,1-.07.45c-.06.44-.12.9-.18,1.35l-.06.52a12,12,0,0,1-.14,1.33v.59c0,.44-.07.88-.1,1.32v.53c.53,2.76,2,10,2.68,12.17,2.57,7.63,7.11,12.85,12.51,17.46,2.48,2.11.7,12.9-.35,16.23h0C127.8,131.08,141.24,128.78,151.11,117.33ZM124.79,83.07c-.45.05-.91-.42-1.23-1.18a5.642,5.642,0,0,1-.42-1.62v-.6a5.28,5.28,0,0,1,.08-1.08c.14-.81.48-1.37.93-1.42a.689.689,0,0,1,.44.12l.22.18a5.231,5.231,0,0,1,.58,5.18A.861.861,0,0,1,124.79,83.07Zm1.5-11.77a.561.561,0,0,1-.32.38,13.154,13.154,0,0,1-2.44.74l-2.44.56a39.794,39.794,0,0,1-5,.92.59.59,0,0,1-.64-.536v0a.61.61,0,0,1,.26-.53A14.207,14.207,0,0,1,120.65,71a20.566,20.566,0,0,1,2.59-.39,8.385,8.385,0,0,1,2.64.09A.54.54,0,0,1,126.29,71.3Z" style="fill:#fff;opacity:0.800000011920929;isolation:isolate"/><path d="M125.88,70.66a8.385,8.385,0,0,0-2.64-.09,20.566,20.566,0,0,0-2.59.39,14.2,14.2,0,0,0-4.89,1.87.61.61,0,0,0-.26.53.589.589,0,0,0,.636.54h0a39.615,39.615,0,0,0,5-.92l2.44-.56a13.154,13.154,0,0,0,2.44-.74.561.561,0,0,0,.32-.38.539.539,0,0,0-.425-.634Z" style="fill:#fff;opacity:0.15000000596046448;isolation:isolate"/><path d="M146.68,70.57a14.423,14.423,0,0,0-5.12-1.07,23.075,23.075,0,0,0-2.63,0,8.588,8.588,0,0,0-2.58.52.519.519,0,0,0-.33.37.53.53,0,0,0,.39.64,13.162,13.162,0,0,0,2.53.35l2.5.16a38.279,38.279,0,0,0,5,.13.59.59,0,0,0,.2-1.12Z" style="fill:#fff;opacity:0.15000000596046448;isolation:isolate"/><path d="M71.61,179.44h0a45.024,45.024,0,0,1-2.89-4.36l-.06-.11c-.25-.43-.48-.85-.71-1.26l-.05-.1c-.47-.88-.89-1.73-1.25-2.53v-.06l-.46-1.07-.06-.14-.41-1c-.27.17-.55.35-.83.51a95.115,95.115,0,0,1-8.58,4.53c-1.23-2.33-2.38-4.74-3.41-7.26-.83-2-3.86-11.13-3.86-11.13l-.54-2c-2.76-9.95-5.1-17.76-5.29-32.66,1.44-7.11-2.81-9-7.71-9l-4.72,1.58s-4.94,2.17-21.35-4.08C-5,103.78-.28,120.49,12.52,127c7.16,3.65,13,5,17.26,5.25C27,146,21.81,168.3,36,194.6a52.829,52.829,0,0,0,4,5.29l.27.34a9.889,9.889,0,0,0,5.76,4.18h0a10.615,10.615,0,0,0,2.37.51,10.1,10.1,0,0,0,1.65,0,25.28,25.28,0,0,0,6.58-.84h0c6-1.24,12-3.92,17.82-6.84,2.92-1.43,5.78-3.08,8.6-4.83l1.58-1A48.771,48.771,0,0,1,71.61,179.44Z" style="fill:#fff;opacity:0.800000011920929;isolation:isolate"/><path d="M174.06,200.22c-.83-2.85-1.75-5.78-2.72-8.65-.49-1.44-1-2.86-1.49-4.25-.25-.7-.51-1.39-.76-2.06h0c-.23-.59-.45-1.18-.68-1.76l-.21-.53-.51-1.28c-.07-.17-.14-.34-.2-.51-.47-1.13-.93-2.21-1.38-3.23l-.2-.44-.5-1.09-.21-.44c-.22-.46-.43-.9-.65-1.33h0c-.43-.72-.86-1.45-1.28-2.18q-1.47-2.569-2.75-5.15h0l-.71-1.46c-.31-.55-.6-1-.85-1.48l-.09-.15-.36-.6-.25-.41a.8.8,0,0,1-.07-.12c-.08-.12-.15-.24-.2-.33v-.06l-.2-.33h0c.41,1.3.78,2.59,1.13,3.88a2.59,2.59,0,0,0,.16.59c.33,1.23.63,2.45.91,3.66l.15.68c.28,1.22.53,2.44.75,3.64l.09.49c.23,1.26.44,2.51.62,3.75h0c.18,1.26.34,2.5.47,3.74a1.476,1.476,0,0,0,.05.47c.13,1.2.23,2.38.31,3.55v.52c.08,1.19.14,2.37.17,3.55V197c0,.74-.05,1.47-.08,2.2v.92c-.06.89-.12,1.78-.19,2.65v.29q-.24,2.82-.61,5.56a1.262,1.262,0,0,1-.07.5c-.12.89-.25,1.77-.4,2.64h0v.07a119.792,119.792,0,0,1-2.6,11.92,1.088,1.088,0,0,1-.07.24c-.34,1.26-.7,2.5-1.07,3.73l-.1.3c-.37,1.22-.76,2.41-1.15,3.59a2.251,2.251,0,0,0-.08.24c-.43,1.24-.86,2.47-1.31,3.67a.152.152,0,0,1,0,.06h0c-1.62,4.38-3.36,8.44-5.08,12.16v.07h0c-.72,1.56-1.44,3.06-2.14,4.49-.1.22-.21.43-.31.64l-.1.2c-1.13,2.29-2.22,4.41-3.22,6.36h0l-.76,1.47h0l-.61,1.2-.17.33-.57,1.12v.09c-.2.39-.39.76-.57,1.13l-.12.26-.43.87c0,.07-.07.15-.1.23-.16.33-.32.66-.46,1l-.09.19-.32.74a.685.685,0,0,1-.11.25l-.34.84h0c15.6-3.81,28.7-18.62,32-39.07l.15-.93c1.58-9.9,3.16-15.38,4.49-22.81-.22-.89-.46-1.81-.71-2.73l-.18-.66Z" style="fill:#fff;opacity:0.5;isolation:isolate"/><path d="M209.92,182.59s-7.25-14-17.16-31c-5.83-10-13.46-12.11-20.06-13.7a15.7,15.7,0,0,0-2.35-.38v-.06l-12-1.5a11.817,11.817,0,0,1-8.06-4.66,38,38,0,0,0-.19-4.54,23.191,23.191,0,0,1,1.9-11.23c-.27.6-.56,1.2-.91,1.81-9.87,11.45-23.31,13.75-29.78,14-.55,1.79-1.61,4.09-2.16,6.13-1.77,2.1-4.9,3.86-12.68,3.32-10.55-.74-15.39,5.86-21.87,11.15-14.24,11.63-20.33,12.26-20.33,12.26a28.7,28.7,0,0,0,1.38,4.59h0l.41,1,.06.14L66.6,171v.06c.36.8.78,1.65,1.25,2.53l.05.1c.23.41.46.83.71,1.26l.06.11a45.024,45.024,0,0,0,2.89,4.36h0a48.91,48.91,0,0,0,13.11,12c.78.5,1.57,1,2.41,1.46a11.261,11.261,0,0,0,8.2,1.26C91.52,221.54,89,249,93.1,254.41c2.94,3.87,13.73,9.1,26.25,13.69a33.579,33.579,0,0,0,19.78,1.15h0l.34-.84a.685.685,0,0,1,.11-.25l.32-.74.09-.19c.14-.32.3-.65.46-1,0-.08.07-.16.1-.23l.43-.87.12-.26c.18-.37.37-.74.57-1.13v-.09l.57-1.12.17-.33.61-1.2h0l.78-1.51,1.17-2.28.92-1.82.42-.84.19-.37c.13-.27.26-.54.4-.8l.12-.25.41-.84c.05-.09.09-.19.14-.28s.12-.24.17-.36l.21-.42.87-1.82.75-1.61a.268.268,0,0,0,0-.08l.05-.11c1.7-3.69,3.42-7.71,5-12.05v-.09h0c.44-1.19.87-2.41,1.29-3.64a2.251,2.251,0,0,1,.08-.24c.39-1.18.78-2.37,1.15-3.59l.1-.3c.37-1.23.73-2.47,1.07-3.73a1.088,1.088,0,0,1,.07-.24c.36-1.33.7-2.68,1-4.06v-.15c.57-2.45,1.08-5,1.51-7.54v-.25c.15-.87.28-1.75.4-2.64a4.013,4.013,0,0,1,.07-.5c.12-.89.23-1.77.33-2.67v-.29c.1-.86.18-1.73.25-2.6v-.29c.07-.85.13-1.7.18-2.57v-.08a5.739,5.739,0,0,1,.05-.92,1.922,1.922,0,0,1,0-.24c0-.59.05-1.18.07-1.78v-2.28h0v-3.93c0-1.17-.09-2.36-.17-3.55v-.52c-.08-1.17-.18-2.35-.31-3.55a1.539,1.539,0,0,0-.05-.47c-.13-1.24-.29-2.48-.47-3.74h0c-.18-1.24-.39-2.49-.62-3.75l-.09-.49c-.22-1.2-.47-2.42-.75-3.64l-.15-.68c-.28-1.21-.58-2.43-.91-3.66-.05-.2-.11-.39-.16-.59-.35-1.29-.72-2.58-1.13-3.88h0l.2.33v.06l.2.33.07.12.25.41.09.16.27.44c.27.47.59,1,.94,1.63s.47,1,.71,1.46.6,1.2.91,1.79c.59,1.13,1.2,2.24,1.84,3.36.42.73.85,1.46,1.28,2.18h0c.22.43.43.87.65,1.33l.21.44.5,1.09.2.44c.45,1,.91,2.1,1.38,3.23.06.17.13.34.2.51l.51,1.28.21.53c.23.58.45,1.17.68,1.76.77,2.05,1.53,4.18,2.26,6.35,1.29,3.83,2.49,7.76,3.51,11.48l.18.66c.25.92.49,1.84.71,2.73a35.139,35.139,0,0,0,4.33-.66h0q1-.24,2-.51l.18-.06c.61-.17,1.21-.36,1.8-.56l.24-.09c.57-.2,1.14-.41,1.69-.64l.25-.1c.55-.23,1.1-.47,1.64-.72l.2-.1c.56-.27,1.12-.55,1.67-.84h.09a47.206,47.206,0,0,0,6.47-4.24l.08-.06c.44-.35.88-.7,1.3-1.06l.25-.21,1.06-.92.33-.3.91-.85.35-.33c.28-.27.56-.54.83-.82l.34-.34c.27-.27.52-.54.78-.81l.31-.33.77-.85.23-.25c.32-.37.63-.72.92-1.07h0A52.023,52.023,0,0,0,209.92,182.59Z" style="fill:#fff"/></svg>