<svg id="illustrations" xmlns="http://www.w3.org/2000/svg" viewBox="0 0 300 300"><path d="M185.15,112.46c-18.55-28,27.56-29.3,48.87-40.37-18,4.8-55.27,3.41-63.37,8-9.38,5.28,3.11,18.66,14.62,32.66Z" style="fill:#fff;opacity:0.800000011920929;isolation:isolate"/><path d="M145.13,154.47C69.5,129.94,88.61,94.65,53.55,58.2,35,39,25.48,33.56,24.05,24.06,8.79,40.4-2.29,64.29,20.35,78.84c6.24,6,5.65,4.49,6.62,9.53,4.21,28.11,21.83,105.11,60.52,125,11.92,10.14,40.73,22.33,40.72-1.47,12.32,8.12,23.41-1.59,21.72-14.67,17.92,7.85,22.95-11.74,21.08-27.76C165.42,163.79,157,158.68,145.13,154.47Z" style="fill:#fff;opacity:0.800000011920929;isolation:isolate"/><path d="M252.88,205.62c-11.53-36.94-51.5-58-67.73-93.16l.12.25c-11.51-14-24-27.38-14.62-32.66,8.1-4.55,45.4-3.16,63.37-8-11.48,6-30.15,9.1-42,15.09C212.8,76.68,254.45,75,241.76,51.46c-2.56,2.87-31.47,14-18-.36C99.17,57.12,109.83-5.13,79.44.34,62.72,1.18,44,6.73,31.21,17.18a90.13,90.13,0,0,0-7.16,6.88C25.48,33.56,35,39,53.55,58.2c35.06,36.45,16,71.74,91.58,96.27,11.87,4.21,20.29,9.32,25.88,15a.335.335,0,0,0,0-.1c26.07,18.68,51.56,38.12,68,65.71-11.24-16.57,12.21-27.08,14.52-.42C257.31,226.71,255.43,214.26,252.88,205.62Z" style="fill:#fff"/><path d="M254.25,289.61c6.74-2.05,14.43,1.73,20.9-1a11.35,11.35,0,0,0,6.72-10.79c-.12-2.28-.94-4.48-1-6.75a9.34,9.34,0,0,1,3.7-7.68,20.437,20.437,0,0,1,2.43,2.22,20.46,20.46,0,0,0-32.77,24Z" style="fill:#fff"/><path d="M254.24,289.61a20.47,20.47,0,1,0,30.34-26.26,9.34,9.34,0,0,0-3.7,7.68c.05,2.27.87,4.47,1,6.75a11.35,11.35,0,0,1-6.72,10.79c-6.47,2.77-14.16-1-20.9,1Z" style="fill:#fff;opacity:0.800000011920929;isolation:isolate"/><path d="M253.51,234.67c-2.23-25.65-24-16.89-15.64-1.43l1.12,1.85a23.19,23.19,0,0,0,2,2.85c5.81,6.59,11.84.46,12.47-3.27Z" style="fill:#fff;opacity:0.30000001192092896;isolation:isolate"/><path d="M223.76,51.1c-12.44,13.29,11.27,4.79,17,1.15.36-.29.7-.56,1-.79h0c-1-.61-3-.82-6.08-.82S228.54,50.86,223.76,51.1Z" style="fill:#fff;opacity:0.30000001192092896;isolation:isolate"/></svg>