<svg id="illustrations" xmlns="http://www.w3.org/2000/svg" viewBox="0 0 300 300"><path d="M226.15,119a64.23,64.23,0,0,1-4.93-11.47A30.068,30.068,0,0,1,222,118a14.367,14.367,0,0,1-2.54,5.87,45.188,45.188,0,0,0-7,17.68A78.151,78.151,0,0,1,207,160.48a45.112,45.112,0,0,1-17.44,20.12c-.13.23-.65,1.19-1.32,2.62,44.57-9.56,47.37-17.25,47.37-17.25S237.63,139.84,226.15,119Z" style="fill:#fff;opacity:0.30000001192092896;isolation:isolate"/><path d="M89,155.15c1.16-10.44-3.14-23.21-6-30.29a25.9,25.9,0,0,1-1.17-16.43c4.81-17.74,23.75-11.56,48.7-20.18,18.76-6.49,37.94-25.31,45.72-33.57a4.78,4.78,0,0,1,6.759-.117,4.934,4.934,0,0,1,.391.427,172.7,172.7,0,0,1,23,40.5,5.08,5.08,0,0,0,5.68,3h.1a.215.215,0,0,1,0,.08,5.178,5.178,0,0,1,1.62,0c3.07.45,5.57,3.41,7,7.68a55.437,55.437,0,0,1-2.13-11.65c-.1-1.41-.13-2.84-.13-4.25.1-19.06-3.63-34.67-11.11-46.51,9.2-5.26,19.11-18.76,10.68-26.52C212,11.62,202.62,3.68,193.76,1.07c-11.18-3.29-20.67,8.33-22.94,18.11-12.07-2.66-26.39-2.82-43-.26h0l-1,.17-1,.15h0c-16.53,2.91-29.94,7.65-40.32,14-5.68-8.47-18.18-15.49-28.13-9.68-6.89,4-12.49,14.09-17.05,23-5.12,10,9.1,19.52,19.66,21.51-2.84,14-1.21,25.46,7.21,49.29s4,42.87-4.39,56.7c-4.46,7.38.83,16.62,9.81,17.55a314.876,314.876,0,0,0,54.07.78C102,185.51,87.33,170.43,89,155.15Z" style="fill:#fff;opacity:0.30000001192092896;isolation:isolate"/><path d="M260,243.72c-2.77-12.24-17.11-31.3-42.94-35.85-5.48-1-22.91-5.58-33.37-6.71v.13a11.248,11.248,0,0,1,.08,1.31c0,9.4-11.46,17-25.6,17-13.81,0-25-7.26-25.58-16.34-10.22-.73-24.25,1.36-31.32,4.17C82.17,215,63.15,225.85,60,248.23c-1.34,9.43,2.16,22.35,10.11,28.92,19.5,16.12,48.35,22.35,83.71,22.35,48,0,80.85-8.59,91.9-17.79C255.67,273.4,263,257.17,260,243.72Z" style="fill:#fff"/><path d="M213.81,98.48a5.178,5.178,0,0,0-1.62,0,.215.215,0,0,0,0-.08h-.1a5.08,5.08,0,0,1-5.68-3,172.7,172.7,0,0,0-23-40.5,4.783,4.783,0,0,0-7.15-.31c-7.78,8.26-27,27.08-45.72,33.57-1.26.43-2.51.82-3.73,1.19,1.4,13.35,3.39,27,4.58,31.45,6.15,23.19,13.62,15.07,16.39,14.83,6.76-.56,2.51,10.48-2.3,23.05.61-.26,1.22-.5,1.82-.74a40.081,40.081,0,0,0,6.1-3.21,30.9,30.9,0,0,0,5.3-4c1.64-1.52,3.2-3.09,5.35-5l.37-.33a3.7,3.7,0,0,1,6.13,2.38,15.645,15.645,0,0,1-2.89,10.2,26.153,26.153,0,0,1-7.74,7.34,27.1,27.1,0,0,1-9.84,3.55,17.02,17.02,0,0,1-5.23.11,15.419,15.419,0,0,1-2.59-.59,1.046,1.046,0,0,1-.32-.12c-3.39,9.72-5.58,18.87-1.87,22.92,13.25,14.47,45.33-7.53,52.62-12.85A44.54,44.54,0,0,0,207,160.48a78.142,78.142,0,0,0,5.45-18.93,45.188,45.188,0,0,1,7-17.68A14.379,14.379,0,0,0,222,118C222.94,108,219.27,99.29,213.81,98.48Zm-52.13,23.7c-1.88.55-4.4-2.46-5.64-6.71s-.73-8.14,1.15-8.69,4.4,2.46,5.64,6.71S163.55,121.63,161.68,122.18Z" style="fill:#fff"/><path d="M193.4,177.88c-5.65,4.19-39.59,28.35-53.32,13.36-3.71-4.05-1.52-13.2,1.87-22.92a12.423,12.423,0,0,1-2.15-1,3.38,3.38,0,0,1-1.08-4.65,3.312,3.312,0,0,1,1-1l.62-.41a20.246,20.246,0,0,1,1.88-1c.6-.31,1.18-.55,1.75-.81s1-.45,1.51-.65c4.81-12.57,9.06-23.61,2.3-23.05-2.77.24-10.24,8.36-16.39-14.83-1.19-4.5-3.18-18.1-4.58-31.45-23.09,6.86-40.4,2.15-45,19A25.9,25.9,0,0,0,83,124.86c2.86,7.08,7.16,19.85,6,30.29-1.7,15.33,13,30.45,38,37.32a38.2,38.2,0,0,0,5.73,1.09,70.772,70.772,0,0,0-.2,9h0v.64h0c.52,9.09,11.77,16.36,25.59,16.36,14.14,0,25.6-7.61,25.6-17a11.248,11.248,0,0,0-.08-1.31c-.31-9.19,5.44-19.82,5.92-20.69A36.6,36.6,0,0,0,193.4,177.88ZM126,134.73c-1.88.54-4.4-2.46-5.64-6.71s-.72-8.15,1.15-8.69,4.41,2.46,5.64,6.71S127.91,134.18,126,134.73Z" style="fill:#fff;opacity:0.800000011920929;isolation:isolate"/><ellipse cx="123.786" cy="127.032" rx="3.54" ry="8.02" transform="translate(-30.587 39.687) rotate(-16.24)" style="fill:#fff;opacity:0.15000000596046448;isolation:isolate"/><ellipse cx="159.424" cy="114.486" rx="3.54" ry="8.02" transform="translate(-25.656 49.153) rotate(-16.24)" style="fill:#fff;opacity:0.15000000596046448;isolation:isolate"/><path d="M140.35,161.21a20.246,20.246,0,0,1,1.88-1c.6-.31,1.18-.55,1.75-.81,1.14-.52,2.24-.95,3.33-1.39a40.081,40.081,0,0,0,6.1-3.21,30.9,30.9,0,0,0,5.3-4c1.64-1.52,3.2-3.09,5.35-5l.37-.33a3.7,3.7,0,0,1,6.13,2.38,15.645,15.645,0,0,1-2.89,10.2,26.153,26.153,0,0,1-7.74,7.34,27.1,27.1,0,0,1-9.84,3.55,17.02,17.02,0,0,1-5.23.11,15.419,15.419,0,0,1-2.59-.59,12.856,12.856,0,0,1-2.47-1.14,3.38,3.38,0,0,1-1.08-4.65,3.312,3.312,0,0,1,1-1Z" style="fill:#fff;opacity:0.15000000596046448;isolation:isolate"/></svg>