<svg id="illustrations" xmlns="http://www.w3.org/2000/svg" viewBox="0 0 300 300"><path d="M279.54,115.24a134.64,134.64,0,1,0-200.6,136l6,41.4L122,267.1A134.64,134.64,0,0,0,279.54,115.24Zm-67.16,79.4-15.57,12.75-7,5.74h0L165.88,183.9,146.31,160l-19.58,23.9-23.92,29.23h0l-7-5.74L80.23,194.64l47.22-57.7L80.23,79.24,91.52,70l11.29-9.24h0L126.73,90l19.58,23.92L165.88,90,189.8,60.76h0L201.09,70l11.29,9.24-47.22,57.7Z" style="fill:#fff"/><path d="M286.93,122.63A134.119,134.119,0,0,0,245.22,43.3,134.65,134.65,0,0,1,122,267.1L85,292.61,92.36,300l37-25.52A134.62,134.62,0,0,0,286.93,122.63Z" style="fill:#fff;opacity:0.30000001192092896;isolation:isolate"/><polygon points="189.8 60.76 146.31 113.9 102.81 60.76 80.23 79.24 127.45 136.94 80.23 194.64 102.81 213.13 146.31 159.98 189.8 213.13 212.38 194.64 165.16 136.94 212.38 79.24 189.8 60.76" style="fill:#fff;opacity:0.30000001192092896;isolation:isolate"/></svg>