<svg id="illustrations" xmlns="http://www.w3.org/2000/svg" viewBox="0 0 300 300"><path d="M125.82,182.76c.62.69.3,3.34-.56,11,0,0,.2.81.46,1.65,2.78,9,12,16.7,26.16,16.7,13.26,0,26.79-8.36,28.31-17.07a8.082,8.082,0,0,1,.11-.86,1.615,1.615,0,0,1,0-.22h0c-1.14-3.58-2.41-8.59-2.06-11.51a90.335,90.335,0,0,0,8.5-3.55c23.09-12.48,31.12-31.84,25.94-46.59-3.52-10.05.87-22.59,2.08-30.24a26.239,26.239,0,0,0-2.59-16.49c-8.35-15.6-24.38-7-48.76-8.51h0l.3,2.6c1.15,9.64,2.43,20.7,3.14,29.94.09,1.15.17,2.28.24,3.37,1.56,24.27-5.79,18.82-11.46,19.07-6.87.31-2.48,6.43,5.14,17.75l1.36,2.13h.13c2.27,0,4.52-.1,7.43,0h.5c2.07,0,4.47,1.92,3.66,3.82s-3.45,3.51-6.21,4.61c5,8.14,8.43,15.81,5.89,20.3a14.053,14.053,0,0,1-1,1.56c-.12.16-.26.3-.38.45-.26.32-.51.63-.79.92a5.446,5.446,0,0,1-.51.47c-.17.15-.52.5-.8.73a6.748,6.748,0,0,1-.6.43c-.2.14-.55.41-.85.6l-.66.38c-.3.17-.59.34-.9.49l-.73.32-.95.4-.77.25c-.33.11-.66.23-1,.32l-.81.2-1.05.24-.85.14-1.1.17a8.551,8.551,0,0,0-.87.09c-.29.03-.76.08-1.14.1l-.89.05h-4.21a6.513,6.513,0,0,1-1.24-.08l-.92-.07-1.26-.13-.92-.11-1.28-.17-.9-.14-1.29-.21-.9-.16-1.3-.25-.88-.18-1.29-.29-.86-.2-1.28-.31-.84-.21-2.08-.56c-.42-.11-1.76-.5-2-.58l-1.22-.37-2.62-.83-1.79-.61-1-.36-.68-.24Zm52.79-69.85v.77a17.681,17.681,0,0,1-.26,2.14,10.163,10.163,0,0,1-2,4.89,2.3,2.3,0,0,1-1.77.89,1.8,1.8,0,0,1-1-.43c-1-.81-1.76-2.7-2-5.07a16.4,16.4,0,0,1-.07-2.82,15.993,15.993,0,0,1,.88-4.53,10.358,10.358,0,0,1,.49-1.16q.191-.341.39-.66a2.769,2.769,0,0,1,2.28-1.57c1,0,1.83,1,2.4,2.51a13.508,13.508,0,0,1,.74,4.08v.9Z" style="fill:#fff;opacity:0.800000011920929;isolation:isolate"/><path d="M79.56,105.94a5.6,5.6,0,0,1,1.61-.36v-.07h.1a5.17,5.17,0,0,0,4.95-4.22A174.877,174.877,0,0,1,99.66,56a4.85,4.85,0,0,1,6.486-2.231,4.992,4.992,0,0,1,.514.291c9.57,6.39,32.81,20.6,52.83,22.73,1.34.14,2.66.24,4,.32h0c24.37,1.52,40.4-7.09,48.75,8.51a26.114,26.114,0,0,1,2.59,16.49S252.93,46,226.61,21.22c-49-46.08-108.39,6.66-120.2-3C98.85,12,74.18,32.33,66.15,54c-5.26,14.2,3.39,39.39,10,55.09A6.906,6.906,0,0,1,79.56,105.94Z" style="fill:#fff;opacity:0.30000001192092896;isolation:isolate"/><path d="M256.24,246.86c-3.17-22.38-28.38-39.39-47.45-47-7.07-2.81-18.24-6.69-28.45-6V194a1.206,1.206,0,0,1,0,.17,8.6,8.6,0,0,1-.11.86c-1.52,8.71-15,17.07-28.3,17.07-14.15,0-23.39-7.73-26.17-16.7-.26-.84-.47-1.61-.47-1.65h0c-10.46,1.13-26.78,5.64-32.26,6.6C67.2,204.9,38.89,223.97,36.11,236.2c-3,13.45.33,40.45,20.39,49.85C82.1,298,102.29,298,150.25,298c35.35,0,69.07-1.78,89.88-16.17C251.84,273.69,257.58,256.29,256.24,246.86Z" style="fill:#fff"/><path d="M170.35,151.9h-.5c-2.91-.07-5.16,0-7.43,0h-.15a32.434,32.434,0,0,1-6.57-.66,40.321,40.321,0,0,1-6.75-1.83c-1.11-.42-2.23-.86-3.43-1.26-.61-.2-1.2-.42-1.86-.61a20.336,20.336,0,0,0-2.07-.56l-.74-.13a3.507,3.507,0,0,0-1.47.07,2.849,2.849,0,0,0-2.277,3.325,2.739,2.739,0,0,0,.117.435c1.12,2.78,5.29,5.67,6.77,6.63a27.4,27.4,0,0,0,9.76,4.15,26.489,26.489,0,0,0,10.82-.12,22.222,22.222,0,0,0,3.23-1c2.76-1.1,5.44-2.77,6.22-4.61S172.42,151.94,170.35,151.9Z" style="fill:#fff;opacity:0.15000000596046448;isolation:isolate"/><path d="M164.45,161.36a26.441,26.441,0,0,1-10.81.12,27.438,27.438,0,0,1-9.77-4.15c-1.47-1-5.65-3.85-6.77-6.63a2.851,2.851,0,0,1,1.725-3.643,2.97,2.97,0,0,1,.435-.117,3.507,3.507,0,0,1,1.47-.07l.74.13a21.337,21.337,0,0,1,2.08.56c.65.19,1.24.41,1.85.61,1.21.4,2.32.84,3.44,1.26a40.184,40.184,0,0,0,6.74,1.83,32.532,32.532,0,0,0,6.58.66h0c-.37-.58-.7-1.08-1-1.51l-.41-.62c-7.61-11.32-12-17.44-5.13-17.75,5.66-.25,13,5.2,11.46-19.07-.07-1.09-.15-2.22-.24-3.37-.71-9.24-2-20.3-3.14-29.94-.11-.88-.21-1.75-.31-2.6h0c-1.3-.08-2.62-.18-4-.32-20-2.13-43.26-16.34-52.83-22.73a4.86,4.86,0,0,0-6.721,1.438,4.973,4.973,0,0,0-.279.492A175.087,175.087,0,0,0,86.11,101.2a5.17,5.17,0,0,1-4.95,4.22h-.1v.07a5.928,5.928,0,0,0-1.61.35A7,7,0,0,0,76.14,109c-2.3,4-3.24,11.22-.21,18,2.31,5.13,7.84,5.25,9.6,6.94,4.73,4.54,2.78,8.16,5.19,14.15a79.241,79.241,0,0,0,9.7,17.46A45.379,45.379,0,0,0,118.65,180l1.85.77,1.67.66,1.66.64.66.25.69.25.9.33.68.24,1,.36.68.23,1.11.38.72.23,1.17.37.74.23,1.22.37.77.23,1.25.35.81.22,1.26.34.84.21,1.28.31.87.2,1.29.29.88.18,1.29.25.9.16,1.29.21.91.14,1.28.17.92.11,1.26.13.92.07c.41,0,.82.06,1.24.08h4.23l.89-.05a10.5,10.5,0,0,0,1.14-.1,4.5,4.5,0,0,0,.88-.09l1.1-.17.84-.14c.36-.07.71-.16,1.06-.24l.81-.2c.34-.09.67-.21,1-.32l.78-.25,1-.4.72-.32c.31-.15.6-.32.9-.49l.67-.38a9.8,9.8,0,0,0,.84-.6c.2-.14.41-.28.6-.43s.54-.48.8-.73.35-.3.52-.47.53-.6.78-.92c.13-.15.27-.29.39-.45a15.526,15.526,0,0,0,1-1.56c2.54-4.49-.93-12.16-5.89-20.3A22.234,22.234,0,0,1,164.45,161.36ZM133.4,109c.25-4.48,2.06-8,4-7.92s3.38,3.84,3.13,8.33-2.07,8-4,7.91S133.15,113.49,133.4,109Z" style="fill:#fff"/><ellipse cx="175.02" cy="113.515" rx="8.13" ry="3.59" transform="translate(51.794 281.84) rotate(-86.76)" style="fill:#fff;opacity:0.15000000596046448;isolation:isolate"/><ellipse cx="136.924" cy="109.243" rx="8.13" ry="3.59" transform="translate(20.117 239.774) rotate(-86.76)" style="fill:#fff;opacity:0.15000000596046448;isolation:isolate"/></svg>