<svg id="illustrations" xmlns="http://www.w3.org/2000/svg" viewBox="0 0 300 300"><path d="M40,220.64a4.3,4.3,0,0,0-.26-5l-.47-.55-.69-.81-.45-.49-.71-.76c-.15-.16-.3-.29-.44-.44l-.72-.71-.39-.34-.76-.69-.35-.28c-.26-.22-.53-.44-.79-.64l-.33-.24c-.26-.2-.52-.4-.78-.58l-.29-.18c-.27-.18-.54-.37-.8-.53l-.29-.17-.76-.44-.25-.12-.77-.39-.15-.07-.81-.34-.18-.07c-.25-.09-.5-.18-.74-.25H27.7c-.25-.08-.5-.14-.73-.19h-.1a6.191,6.191,0,0,0-.69-.11h-.72a4.322,4.322,0,0,0-1.2.18h0c-.94,2,4.49,10.19,11.83,18.42l3.37-3.4c.07-.07.12-.15.18-.22s.23-.26.33-.4A.249.249,0,0,1,40,220.64Z" style="fill:#fff;opacity:0.30000001192092896;isolation:isolate"/><path d="M28.29,192.9c.1-.37.18-.76.25-1.17a5.129,5.129,0,0,1,.1-.65c.56-4.26-.13-10.14-.62-13.39a2.809,2.809,0,0,0-2.77-2.39h-.63c-1,11.11.48,19.52,2.16,20.34h0A5.1,5.1,0,0,0,28.29,192.9Z" style="fill:#fff;opacity:0.30000001192092896;isolation:isolate"/><path d="M72.25,4.88c1.4,3.15,5.22,7.68,8.85,10.55a20.588,20.588,0,0,0,2.05,1.46,12.232,12.232,0,0,0,1.09.61,6.562,6.562,0,0,0,2,.65c3.14.39,6.91-3.09,8.6-4.86.57-.59.91-1,.91-1a1.815,1.815,0,0,0,.13-.16c.06-.07.13-.14.18-.21C88.68,5.94,82.48,1.77,80.35.38a2.331,2.331,0,0,0-1.8-.32,18.777,18.777,0,0,0-6.84,3h0A6.23,6.23,0,0,0,72.25,4.88Z" style="fill:#fff;opacity:0.30000001192092896;isolation:isolate"/><path d="M146.65,2.92h0a3.793,3.793,0,0,0-1.23,2.52,4,4,0,0,0,.07,1.14,3.543,3.543,0,0,0,.17.56L149,15.76a6.99,6.99,0,0,0,1.45,2.31,6.894,6.894,0,0,0,2.13,1.55,6.206,6.206,0,0,0,.8.32,8.563,8.563,0,0,0,1.08.28l.67.08a7.445,7.445,0,0,0,2.71-.32l1.29-.38c.45-.13.91-.24,1.39-.35.73-.17,1.5-.31,2.3-.43l.72-.11C161.68,15,154.39,2.18,151.51,1h0C150.63,1.44,147.77,1.91,146.65,2.92Z" style="fill:#fff;opacity:0.30000001192092896;isolation:isolate"/><path d="M194.17,19.62A3.522,3.522,0,0,0,193,22.46h0v.18a3.426,3.426,0,0,0,.2.87l2,5.11,1.09,2.84a6.59,6.59,0,0,0,8.16,3.89L205.6,35l1.21-.3c-1-2.56-4.42-11.58-5.23-13.4a5.3,5.3,0,0,0-1.37-1.91,4.46,4.46,0,0,0-2.86-1.25,10.652,10.652,0,0,0-3.18,1.45Z" style="fill:#fff;opacity:0.30000001192092896;isolation:isolate"/><path d="M138.84,128.85c3.86-14.68-9.44-29.78-17.46-41.5C117.89,82.24,85.3,37,65.68,13.4a22.038,22.038,0,0,0,0,5.21c1.62,15.1,36.13,48.61,70.89,112.85h0l1,.64A10.006,10.006,0,0,0,138.84,128.85Z" style="fill:#fff;opacity:0.800000011920929;isolation:isolate"/><path d="M167.34,103.92c4.25-19.06.21-28.33-3.83-36.7-8.65-18-20.5-38.79-29.63-52a23.616,23.616,0,0,0,.49,6.49c1.69,8,7.41,29.86,11,43.29,2.59,3.89,4.5,6.81,5.37,8.21C155.1,80.26,165.78,101.14,167.34,103.92Z" style="fill:#fff;opacity:0.800000011920929;isolation:isolate"/><path d="M200.79,108.52s4.5-19.85-.88-33.62c-3.92-10-14.16-26.32-19.4-34.38a186.337,186.337,0,0,0,2.34,20C190.45,77.85,200.38,101.66,200.79,108.52Z" style="fill:#fff;opacity:0.800000011920929;isolation:isolate"/><path d="M84.54,227.31c18,7.51,44.19-1.67,52.13-20.9,5.49-13.3,2.39-30.11-7.53-40.09-4.9-4.93-11.12-8.16-17.53-10.39-6.71-2.33-13.86-3.65-20.84-2.56a28.965,28.965,0,0,0-3.87.89,42.119,42.119,0,0,1,29.68,21.31c4,7.16,6.5,25.58.92,33.52-8.69,12.35-27.59,14.72-45.1,7.79A27.5,27.5,0,0,0,84.54,227.31Z" style="fill:#fff;opacity:0.800000011920929;isolation:isolate"/><path d="M272.17,231.59c-10.91-7.4-18.48-16.59-21.48-28.94L240.06,158.9a193.824,193.824,0,0,1-5.39-37.43C233.28,88.94,218,63.25,206.81,34.73h0l-1.21.3-1.13.33a6.59,6.59,0,0,1-8.16-3.89l-1.09-2.84-2-5.11a3.426,3.426,0,0,1-.2-.87v-.18h0a3.52,3.52,0,0,1,1.15-2.84h0l.29-.25a4.344,4.344,0,0,1,2.89-1.2h.08A12.08,12.08,0,0,0,182.55,22c-2.13,2.73-2.53,10.08-2,18.49,5.24,8.06,15.48,24.34,19.4,34.38,5.38,13.77.88,33.62.88,33.62-.41-6.86-10.34-30.67-17.94-48l.06.34c-2.83-6.6-5.76-13.18-8.64-19.48v-.09h0c-3.75-8.19-7.42-15.91-10.72-22.57h0l-.72.11c-.8.12-1.57.26-2.3.43-.48.11-.94.22-1.39.35l-1.29.38a7.445,7.445,0,0,1-2.71.32l-.67-.08a8.563,8.563,0,0,1-1.08-.28,6.206,6.206,0,0,1-.8-.32,6.894,6.894,0,0,1-2.13-1.55,6.985,6.985,0,0,1-1.5-2.29l-3.32-8.62a3.543,3.543,0,0,1-.17-.56,4,4,0,0,1-.07-1.14,3.771,3.771,0,0,1,1.23-2.52h0c1.12-1,3.8-2.15,4.85-1.92-9.17-2.5-16.95,4-17.62,14.18,9.13,13.25,21,34.08,29.63,52,4,8.37,8.08,17.64,3.83,36.7-1.56-2.78-12.24-23.66-16.64-30.75-.87-1.4-2.78-4.32-5.37-8.21.06.2.11.4.16.6a263.252,263.252,0,0,0-47.43-52c-.68-.57-1.36-1.13-2-1.67h0c0,.07-.12.14-.18.21a1.815,1.815,0,0,1-.13.16s-.34.41-.91,1c-1.69,1.77-5.46,5.25-8.6,4.86a6.562,6.562,0,0,1-2-.65,12.374,12.374,0,0,1-1.09-.61,20.588,20.588,0,0,1-2.05-1.46C77.47,12.56,73.65,8,72.25,4.88a6.232,6.232,0,0,1-.54-1.83,14.571,14.571,0,0,0-6,10.35C85.3,37,117.89,82.24,121.38,87.35c8,11.72,21.32,26.82,17.46,41.5a10.011,10.011,0,0,1-1.33,3.29l-1-.64c.7,1.89-35.81-23.5-69.83-14-30.65,8.59-40.34,37.61-42.1,57.77h.63A2.81,2.81,0,0,1,28,177.69c.49,3.25,1.18,9.13.62,13.39a3.519,3.519,0,0,1-.1.65c-.07.41-.15.8-.25,1.17a5.1,5.1,0,0,1-1.48,2.72h0a.479.479,0,0,0,.2.07c16.2,2,19.39-4.8,20.71-14.44,2.87-21,21.3-30.11,39.21-27a28.965,28.965,0,0,1,3.87-.89c7-1.09,14.13.23,20.84,2.56,6.41,2.23,12.63,5.46,17.53,10.39,9.92,10,13,26.79,7.53,40.09-7.94,19.23-34.14,28.41-52.13,20.9A27.5,27.5,0,0,1,72.4,216.88,59.173,59.173,0,0,1,55.72,206.8c-5.88-5.05-19.26-11.62-31.27-.82a1.281,1.281,0,0,0-.24.33,4.322,4.322,0,0,1,1.2-.18h.72a6.191,6.191,0,0,1,.69.11h.1c.23.05.48.11.73.19h.12c.24.07.49.16.74.25l.18.07.81.34.15.07.77.39.25.12.76.44.29.17c.26.16.53.35.8.53l.29.18c.26.18.52.38.78.58l.33.24c.26.2.53.42.79.64l.35.28.76.69.39.34.72.71c.14.15.29.28.44.44l.71.76.45.49.69.81.46.54h0a4.291,4.291,0,0,1,.24,5,.273.273,0,0,0,0,.07c-.1.14-.22.27-.33.4s-.11.15-.18.22L36,224.73c20.36,22.82,63.45,57.12,88.43,56.41,26-.75,50.07-9.76,64.48,14.23a8.869,8.869,0,0,0,8.54,4.58c13.67-1.59,70-10.6,78.28-59.83A8.569,8.569,0,0,0,272.17,231.59ZM187.59,72Z" style="fill:#fff"/></svg>