<svg width="300" height="300" viewBox="0 0 300 300" fill="none" xmlns="http://www.w3.org/2000/svg">
<g clip-path="url(#clip0)">
<path opacity="0.15" d="M136.11 57.9C135.628 58.242 135.108 58.5273 134.56 58.75C134.049 58.9812 133.521 59.1718 132.98 59.32C131.92 59.63 130.88 59.99 129.82 60.26C128.76 60.53 127.69 60.78 126.62 61.05C125.509 61.3271 124.365 61.4548 123.22 61.43C122.882 61.4144 122.564 61.2658 122.336 61.0166C122.107 60.7674 121.986 60.4379 122 60.1C122.011 59.7799 122.143 59.476 122.37 59.25C123.235 58.4 124.253 57.7213 125.37 57.25C126.459 56.7877 127.578 56.4002 128.72 56.09C129.868 55.8102 131.034 55.6097 132.21 55.49C132.801 55.4184 133.396 55.4016 133.99 55.44C134.61 55.4668 135.222 55.5812 135.81 55.78C135.956 55.8281 136.091 55.9045 136.208 56.0048C136.324 56.1051 136.419 56.2274 136.489 56.3647C136.558 56.502 136.599 56.6516 136.61 56.8048C136.621 56.9581 136.602 57.1121 136.554 57.258V57.27C136.474 57.5029 136.324 57.7054 136.124 57.85L136.11 57.9Z" fill="white"/>
<path opacity="0.15" d="M134.56 68.68C134.32 70.85 133.35 72.52 132.39 72.41C131.43 72.3 130.86 70.41 131.1 68.3C131.34 66.19 132.32 64.46 133.27 64.57C134.22 64.68 134.81 66.57 134.56 68.68Z" fill="white"/>
<path opacity="0.15" d="M153.13 69.74C152.88 71.9 151.91 73.57 150.96 73.47C150.01 73.37 149.42 71.47 149.66 69.35C149.9 67.23 150.88 65.52 151.84 65.62C152.8 65.72 153.37 67.57 153.13 69.74Z" fill="white"/>
<path opacity="0.15" d="M150.23 57.93C150.809 57.713 151.414 57.575 152.03 57.52C152.625 57.465 153.225 57.465 153.82 57.52C155 57.5798 156.173 57.7302 157.33 57.97C158.484 58.2271 159.62 58.5611 160.73 58.97C161.87 59.38 162.924 59.997 163.84 60.79C163.964 60.9034 164.065 61.0401 164.136 61.1923C164.207 61.3445 164.248 61.5093 164.255 61.6772C164.263 61.8451 164.237 62.0129 164.18 62.1709C164.122 62.3289 164.034 62.474 163.921 62.598C163.705 62.833 163.409 62.9791 163.091 63.008C161.95 63.084 160.803 63.01 159.681 62.788C158.601 62.558 157.521 62.378 156.451 62.138C155.381 61.898 154.321 61.608 153.251 61.338C152.707 61.2091 152.172 61.042 151.651 60.838C151.069 60.6267 150.514 60.3453 150 60C149.821 59.8792 149.678 59.712 149.587 59.5163C149.496 59.3206 149.459 59.1037 149.482 58.8889C149.505 58.6741 149.585 58.4696 149.715 58.2971C149.845 58.1247 150.02 57.9909 150.22 57.91" fill="white"/>
<path opacity="0.3" d="M282.83 14.6C291.396 23.1658 296.511 34.584 297.199 46.6784C297.888 58.7728 294.102 70.6977 286.563 80.1802C279.025 89.6628 268.26 96.0399 256.322 98.0962C244.384 100.152 232.107 97.744 221.83 91.33L205.77 95.05L208.51 97.59L224.56 93.87C235.11 100.468 247.764 102.835 259.985 100.497C272.207 98.1587 283.093 91.2884 290.463 81.2625C297.833 71.2367 301.142 58.796 299.726 46.4336C298.311 34.0712 292.275 22.7005 282.83 14.6Z" fill="white"/>
<path d="M236.64 97.48C231.407 96.2526 226.41 94.1751 221.85 91.33L205.79 95.05L209.3 80.13C202.053 70.9991 198.275 59.5964 198.636 47.9449C198.996 36.2933 203.472 25.1461 211.269 16.4806C219.066 7.81511 229.681 2.19156 241.23 0.607529C252.779 -0.976496 264.516 1.5814 274.358 7.82748C284.201 14.0735 291.513 23.604 294.997 34.7282C298.482 45.8524 297.913 57.8512 293.392 68.5961C288.872 79.341 280.692 88.1374 270.303 93.4248C259.913 98.7123 247.987 100.149 236.64 97.48Z" fill="white"/>
<path opacity="0.3" d="M100.44 67.45C101.004 67.1627 101.645 67.0612 102.27 67.16C102.85 67.25 103.47 67.51 103.99 67.23C104.293 67.0224 104.524 66.7252 104.65 66.38C106.001 63.5461 106.711 60.4494 106.73 57.31C106.764 54.2607 107.225 51.2313 108.1 48.31C109.18 44.56 110.82 39.14 114.27 36.8C129.43 26.55 147.41 56.39 165.19 43.86C165.51 43.6547 165.873 43.5251 166.251 43.4812C166.628 43.4372 167.011 43.48 167.37 43.6064C167.729 43.7327 168.054 43.9392 168.321 44.2102C168.588 44.4811 168.789 44.8094 168.91 45.17C170.59 49.94 174.91 61.43 175.54 75.05C175.528 75.2742 175.487 75.4959 175.42 75.71C176.94 70.92 182.34 53.25 181.93 44.57C181.49 35.04 176.93 32.03 173.87 31.09C173.031 30.8415 172.278 30.3634 171.697 29.7095C171.116 29.0557 170.729 28.2522 170.58 27.39C170.065 24.3575 169.051 21.4312 167.58 18.73C159.86 5.85 142.5 -4 128.29 3.47C120.29 7.83 119.66 18.97 112.45 24.47C110.101 25.8277 107.452 26.5803 104.74 26.66C94.74 27.02 89.13 38.81 96.39 49.66C98.43 52.68 99.46 59.65 100.44 67.45Z" fill="white"/>
<path opacity="0.5" d="M115.37 296.86C102.1 273.21 97.2 245.86 92.99 219.09C92.55 216.25 92.1 213.37 91.39 210.59C88.8655 212.387 85.867 213.399 82.77 213.5C80.1 243.5 78.86 274.21 83.46 284.37C83.82 285.02 84.2 285.66 84.58 286.29C84.7588 286.522 84.9561 286.74 85.17 286.94C88.88 290.34 100.17 296.74 116.61 299.03C116.2 298.31 115.78 297.59 115.37 296.86Z" fill="white"/>
<path opacity="0.8" d="M197.16 218.45C196.01 227.1 194.71 237.01 193.46 248.45L193.34 249.54C192.46 257.65 195.13 267.09 195.21 274.83C207.68 264.89 220.07 245.68 219.99 215.43C219.99 211.83 219.83 208.59 219.59 205.62C212.935 211.195 205.34 215.54 197.16 218.45Z" fill="white"/>
<path opacity="0.8" d="M42.83 182.27L39 185.06C37.14 186.41 35.27 187.74 33.35 189C32.92 185.75 32.09 175.05 32.09 175.05V172.57C31.87 163.14 36.09 132.74 36.17 132.13C37 127 57.91 116.67 58.91 112.91C59.48 110.8 55.59 110.72 53.61 111.09C51.9615 111.441 50.3719 112.027 48.89 112.83C47.51 113.54 45.67 114.83 44.03 114.55C38.23 113.48 46.4 99.64 47.36 96.91C48.47 93.74 51.81 85.17 46.81 83.32C42.41 81.69 40.42 97.51 38.31 99.82C38.14 97.91 37.54 94.37 37.88 92.49C38.27 90.29 38.69 88.08 38.88 85.86C39.16 83.18 39.53 77.21 35.75 76.51C29.97 75.44 31.13 95.41 29.42 98.57C28.73 96.98 28.94 94.64 28.81 92.94C28.62 90.56 28.49 88.16 28.2 85.79C27.89 83.27 27.68 78.95 24.52 78.37C18.35 77.22 22.93 97.65 22.75 100.37C19.54 97.68 18.75 93 15.75 90.2C14.89 89.39 11.75 87.8 10.92 89.45C9.99 91.45 10.92 93.22 12.05 94.85C15.88 100.35 16.4 108.71 16.05 115.39C15.7 122.07 18.75 126.56 17.86 133.39C17.71 134.52 8.94 169.21 5.67 185.86C3.82914 194.63 2.60283 203.519 2 212.46C1.79719 215.425 2.28676 218.397 3.43 221.14C5.3 229.91 14.81 236.14 30.43 231.64C38.29 229.74 45.69 226.12 52.82 222.23C56.404 220.304 59.8823 218.188 63.24 215.89C66.04 214.02 68.54 212.23 71.17 210.4C57.39 204 47.61 190.25 42.83 182.27Z" fill="white"/>
<path d="M206.08 159.85C198.76 147.5 189.28 144.15 179.91 142.32C172.31 140.83 175.12 140.79 157.05 140.98C147.14 139.65 128.05 133.87 115.27 118.12C117.87 122.4 119.77 126.7 119.59 131.62C119.59 132.82 118.28 140.43 113.53 143.55C107 144.08 94.99 144.55 90.87 144.71H90.69C68.69 145.32 39.5 176.15 39.5 176.15C39.5 176.15 54.31 207.93 79.41 213.15C80.5148 213.379 81.6419 213.483 82.77 213.46L82.32 218.71L82.77 213.46C85.8671 213.359 88.8655 212.347 91.39 210.55C92.1 213.33 92.55 216.21 92.99 219.05C97.2 245.85 102.1 273.17 115.37 296.82C115.78 297.55 116.2 298.27 116.61 298.99C115.61 298.86 114.68 298.7 113.74 298.54C118.624 299.391 123.572 299.826 128.53 299.84C150.35 299.94 180.53 298.79 192.25 285.19C198.96 277.41 191.99 261.88 193.34 249.48L193.46 248.39C194.71 236.97 196.01 227.06 197.16 218.39C208.827 214.204 219.253 207.151 227.48 197.88C227.48 197.88 218.52 180.83 206.08 159.85Z" fill="white"/>
<path opacity="0.15" d="M125.68 94.26C127.086 96.1881 128.827 97.8478 130.82 99.16C132.776 100.47 134.994 101.337 137.32 101.7C139.661 102.078 142.049 102.051 144.38 101.62C146.744 101.163 149.041 100.414 151.22 99.39C151.358 99.3331 151.513 99.3282 151.654 99.376C151.796 99.4239 151.915 99.5213 151.991 99.6504C152.066 99.7795 152.093 99.9315 152.065 100.078C152.037 100.225 151.957 100.357 151.84 100.45C149.725 101.98 147.324 103.068 144.78 103.65C142.204 104.238 139.538 104.323 136.93 103.9C134.308 103.432 131.824 102.383 129.66 100.83C127.501 99.3107 125.791 97.2382 124.71 94.83C124.653 94.6988 124.65 94.5503 124.702 94.417C124.754 94.2836 124.857 94.1765 124.988 94.119L125.01 94.11C125.121 94.0591 125.247 94.0482 125.365 94.0791C125.484 94.1101 125.588 94.1811 125.66 94.28L125.68 94.26Z" fill="white"/>
<path opacity="0.8" d="M171.05 51.52C170.72 50.46 170.39 49.47 170.05 48.58C169.59 47.25 169.18 46.12 168.87 45.22C168.712 44.7696 168.432 44.372 168.061 44.0718C167.691 43.7715 167.243 43.5805 166.77 43.52C166.2 43.4397 165.621 43.5792 165.15 43.91C164.84 44.13 164.54 44.33 164.24 44.52L163.95 44.69L163.32 45.05L162.98 45.23L162.4 45.52L162.05 45.68L161.45 45.93L161.14 46.05C160.91 46.14 160.68 46.21 160.46 46.28L160.23 46.36C159.619 46.5441 158.998 46.691 158.37 46.8H158.16C157.92 46.8 157.68 46.88 157.44 46.9H154.44C153.79 46.8589 153.142 46.7821 152.5 46.67C152.19 46.62 151.89 46.56 151.58 46.49H151.48L150.62 46.29H150.53L149.61 46.03C145.95 50.93 142.61 58.35 144.56 69.97C145.22 73.97 146.16 77.97 146.44 82.08C146.56 83.86 146.36 85.93 144.9 86.95C143.44 87.97 141.36 87.55 140 88.65C139.292 89.3336 138.807 90.2156 138.61 91.18C137.782 94.6178 137.495 98.1638 137.76 101.69C139.956 102.002 142.188 101.958 144.37 101.56C146.734 101.103 149.031 100.354 151.21 99.33C151.348 99.2731 151.502 99.2682 151.644 99.316C151.786 99.3639 151.905 99.4613 151.981 99.5904C152.056 99.7195 152.083 99.8715 152.055 100.018C152.027 100.165 151.947 100.297 151.83 100.39C149.715 101.92 147.314 103.008 144.77 103.59C142.52 104.093 140.201 104.218 137.91 103.96C138.1 106.128 138.475 108.276 139.03 110.38C140.036 113.493 141.197 116.553 142.51 119.55C142.51 119.55 125.4 122.41 109.11 108.71L109.17 108.82C110.17 110.32 111.11 111.77 112.08 113.2C113.19 114.85 114.27 116.46 115.25 118.07C130.63 137.02 155.16 141.55 161.8 141.24L163.14 141.1C162.66 141.01 162.22 140.91 161.79 140.79H161.74C161.327 140.67 160.937 140.54 160.57 140.4H160.48C159.778 140.142 159.107 139.807 158.48 139.4H158.41C158.13 139.22 157.86 139.02 157.6 138.82C157.114 138.425 156.671 137.979 156.28 137.49L156.23 137.43C155.872 136.974 155.557 136.485 155.29 135.97V135.91C155.163 135.67 155.043 135.42 154.93 135.16V135.1C154.719 134.601 154.539 134.09 154.39 133.57V133.46C154.32 133.21 154.26 132.97 154.2 132.72V132.67C154.14 132.43 154.09 132.2 154.04 131.96V131.87C154.016 131.637 153.973 131.406 153.91 131.18V131.03L153.79 130.38L153.55 128.86C153.47 128.293 153.39 127.683 153.31 127.03C153.31 126.71 153.24 126.38 153.21 126.03C153.15 125.36 153.11 124.66 153.09 123.96V122.91C153.099 122.242 153.143 121.574 153.22 120.91C153.25 119.085 153.955 117.335 155.2 116C162.36 109.85 168.37 102.89 171.76 92.75C171.94 92.18 172.16 91.36 172.4 90.38C172.5 89.99 172.6 89.57 172.7 89.13L172.85 88.46C172.95 88.01 173.06 87.53 173.16 87.05C173.22 86.81 173.27 86.56 173.32 86.32C174.43 81.14 175.54 75.11 175.54 75.11C175.053 67.0877 173.544 59.1603 171.05 51.52ZM153.13 69.74C152.88 71.9 151.91 73.57 150.96 73.47C150.01 73.37 149.42 71.47 149.66 69.35C149.9 67.23 150.88 65.52 151.84 65.62C152.8 65.72 153.37 67.57 153.13 69.74ZM163.92 62.57C163.704 62.805 163.408 62.9511 163.09 62.98C161.949 63.056 160.802 62.982 159.68 62.76C158.6 62.53 157.52 62.35 156.45 62.11C155.38 61.87 154.32 61.58 153.25 61.31C152.706 61.181 152.171 61.0139 151.65 60.81C151.069 60.608 150.515 60.336 150 60C149.821 59.8792 149.678 59.712 149.587 59.5163C149.496 59.3205 149.459 59.1037 149.482 58.8889C149.505 58.6741 149.585 58.4696 149.715 58.2971C149.845 58.1247 150.02 57.9908 150.22 57.91C150.799 57.693 151.404 57.555 152.02 57.5C152.615 57.445 153.215 57.445 153.81 57.5C154.99 57.5598 156.163 57.7102 157.32 57.95C158.474 58.2071 159.61 58.5411 160.72 58.95C161.86 59.36 162.914 59.977 163.83 60.77C164.079 60.9976 164.229 61.3144 164.245 61.6515C164.262 61.9886 164.145 62.3187 163.92 62.57Z" fill="white"/>
<path d="M149.62 46.09C137.14 42.42 125 29.6 114.27 36.85C110.82 39.19 109.18 44.61 108.1 48.36C107.225 51.2812 106.764 54.3107 106.73 57.36C106.711 60.4994 106.001 63.5961 104.65 66.43C104.524 66.7752 104.293 67.0724 103.99 67.28C103.47 67.56 102.85 67.28 102.27 67.21C99.16 66.74 97.44 70.81 97.03 73.21C96.24 77.84 97.03 81.83 100.89 84.72C101.466 85.1428 101.955 85.6724 102.33 86.28C101.56 97.87 107.09 105.88 112.1 113.28C111.1 111.85 110.15 110.4 109.19 108.9L109.13 108.79C125.42 122.49 142.53 119.63 142.53 119.63C141.217 116.633 140.056 113.573 139.05 110.46C138.495 108.356 138.12 106.208 137.93 104.04C137.594 104.029 137.259 103.989 136.93 103.92C134.308 103.452 131.824 102.403 129.66 100.85C127.501 99.3307 125.791 97.2582 124.71 94.85C124.653 94.7188 124.65 94.5703 124.702 94.4369C124.754 94.3036 124.857 94.1965 124.988 94.139L125.01 94.13C125.121 94.079 125.247 94.0681 125.365 94.0991C125.484 94.1301 125.588 94.2011 125.66 94.3C127.066 96.2281 128.807 97.8878 130.8 99.2C132.756 100.51 134.974 101.377 137.3 101.74H137.75C137.485 98.2138 137.772 94.6678 138.6 91.23C138.802 90.268 139.29 89.3896 140 88.71C141.36 87.61 143.47 88.01 144.9 87.01C146.33 86.01 146.56 83.92 146.44 82.14C146.16 78.06 145.22 74.06 144.56 70.03C142.65 58.41 145.95 51.03 149.61 46.09H149.62ZM134.56 68.68C134.32 70.85 133.35 72.52 132.39 72.41C131.43 72.3 130.86 70.41 131.1 68.3C131.34 66.19 132.32 64.46 133.27 64.57C134.22 64.68 134.81 66.52 134.56 68.68ZM136.56 57.31C136.48 57.5429 136.329 57.7454 136.13 57.89C135.648 58.232 135.128 58.5173 134.58 58.74C134.069 58.9712 133.541 59.1618 133 59.31C131.94 59.62 130.9 59.98 129.84 60.25C128.78 60.52 127.71 60.77 126.64 61.04C125.529 61.3171 124.385 61.4448 123.24 61.42C123.072 61.4148 122.906 61.3766 122.753 61.3074C122.6 61.2383 122.462 61.1396 122.346 61.017C122.231 60.8944 122.141 60.7503 122.082 60.593C122.022 60.4356 121.995 60.2681 122 60.1C122.011 59.7799 122.143 59.476 122.37 59.25C123.235 58.4 124.253 57.7213 125.37 57.25C126.459 56.7877 127.578 56.4002 128.72 56.09C129.868 55.8102 131.034 55.6097 132.21 55.49C132.801 55.4184 133.396 55.4016 133.99 55.44C134.61 55.4668 135.222 55.5812 135.81 55.78C136.106 55.8717 136.354 56.0773 136.499 56.3516C136.644 56.6259 136.674 56.9465 136.583 57.243C136.576 57.266 136.568 57.288 136.56 57.31Z" fill="white"/>
</g>
<defs>
<clipPath id="clip0">
<rect width="300" height="300" fill="white"/>
</clipPath>
</defs>
</svg>
