<svg id="illustrations" xmlns="http://www.w3.org/2000/svg" viewBox="0 0 300 300"><path d="M186.14,235.6a188.182,188.182,0,0,1-11,30.25c-6.53,15.31-13.49,26.75-16,33.25,19.54-4.78,36-23.33,40-49,.06-.38.13-.77.19-1.16v-.19A73.107,73.107,0,0,1,186.14,235.6Z" style="fill:#fff;opacity:0.5;isolation:isolate"/><path d="M100.83,81.7c-.14-.53-.27-1.07-.4-1.6-.05-.24-.1-.48-.16-.72-.12-.55-.24-1.1-.35-1.65l-.12-.64c-.11-.56-.22-1.12-.31-1.68l-.09-.57c-.1-.57-.19-1.14-.27-1.7a1.286,1.286,0,0,0-.07-.51c-.08-.57-.16-1.14-.22-1.7V70.5c-.07-.58-.13-1.15-.19-1.72v-.34c0-.58-.1-1.16-.15-1.72v-.3c0-.57-.08-1.13-.11-1.68a2.085,2.085,0,0,0,0-.25c0-.56-.06-1.11-.08-1.64V59.41h0c0-2.67,0-4.85.08-6.38a2.451,2.451,0,0,1,3.08-2.35,19.511,19.511,0,0,0,5.46.85,15.933,15.933,0,0,0,2.09-.09,16.423,16.423,0,0,0,3.77-.81,10.664,10.664,0,0,0,2.94-1.5c.2-.15.39-.31.57-.47s.31-.29.46-.44l.73-.71.28-.28.87-.9h0c1.49-1.56,3.13-3.36,4.89-5.21h0l1.16-1.2.26-.27c.35-.36.71-.71,1.07-1.06l.39-.39,1-1,.48-.45,1-.89.52-.46c.33-.28.66-.54,1-.81s.38-.32.57-.46.66-.49,1-.74l.6-.44c.34-.23.67-.44,1-.65s.4-.27.61-.39.69-.39,1-.57l.6-.33c.37-.19.75-.34,1.12-.5l.54-.23a14.773,14.773,0,0,1,1.67-.54,15,15,0,0,1,7.58-1.14c6,.67,15.62,19.38,18.16,23.06a2.309,2.309,0,0,0,.9.58c1.74-.1,3.49,1.46,4.74,3.94-1.5-7.47-4.25-17.81-3.3-21.18,3.47-12.33-5.39-21.61-14.79-18.91a16,16,0,0,1-7.86.3c-8.41-2.92-12.35-13.13-21.17-14.75C107.84-1,94.65,13.48,91.35,27.9a27.379,27.379,0,0,0-.12,9,4.611,4.611,0,0,1-2,4.45c-2.61,1.82-5.9,6-3.41,15,2.26,8.22,12.68,23.05,15.57,27.07l-.32-.58a1.914,1.914,0,0,0-.13-.51h0A3.467,3.467,0,0,0,100.83,81.7Z" style="fill:#fff;opacity:0.30000001192092896;isolation:isolate"/><path d="M165.69,52.14a2.309,2.309,0,0,1-.9-.58c-2.54-3.68-12.21-22.39-18.16-23.06a15,15,0,0,0-7.58,1.14,14.773,14.773,0,0,0-1.67.54l-.54.23c-.37.16-.75.31-1.12.5l-.6.33a8.7,8.7,0,0,0-1,.57c-.3.21-.41.26-.61.39s-.67.42-1,.65l-.6.44c-.33.24-.66.48-1,.74s-.38.3-.57.46-.67.53-1,.81l-.52.46-1,.89-.48.45-1,1-.39.39c-.36.35-.72.7-1.07,1.06l-.26.27L123.4,41h0c-1.76,1.85-3.4,3.65-4.89,5.21h0l-.87.9-.28.28-.73.71-.3.29c4.08,3.21,8.23,8.33,10,17.24.12.59.23,1.2.32,1.83.59,3.81.91,7.67,1.86,11.41.41,1.63,1.2,3.42,2.8,3.91s3.35-.5,4.89.09a4.57,4.57,0,0,1,2,1.86,20.762,20.762,0,0,1,1.63,3c.32.7.63,1.43.91,2.19l.25-.08a17.408,17.408,0,0,0,4.91-2.8l2.37-2c.8-.68,1.66-1.47,2.54-2.09l.34-.24A1.88,1.88,0,0,1,154,84.48a11.412,11.412,0,0,1-1.23,4,14.563,14.563,0,0,1-2.31,3.38,17.994,17.994,0,0,1-7,4.9l-.82.28a34.6,34.6,0,0,1,.67,5.11c.14,3.09-.44,9.24-.44,9.24s14.39-1.93,25-18.59a35.378,35.378,0,0,0-.94,6.58c.32-2.83.88-5.77,1.57-9,1.34-6.15,2.27-12.89.66-20.7a4.893,4.893,0,0,1,.83-1.81A9.44,9.44,0,0,0,172,61.38a17.7,17.7,0,0,0-1.59-5.51v.21C169.18,53.6,167.43,52,165.69,52.14ZM140.09,63.6c-.83.38-2.19-.83-3-2.7s-.87-3.69-.05-4.07,2.19.84,3,2.71S140.91,63.23,140.09,63.6Zm2-15.37a.92.92,0,0,1-.55.57h0a15.881,15.881,0,0,1-3.11.72l-3.08.43-3.1.35a13.159,13.159,0,0,1-3.21,0h0a.85.85,0,0,1-.38-1.52,9.357,9.357,0,0,1,3.05-1.37,27.753,27.753,0,0,1,3.23-.67,26.006,26.006,0,0,1,3.3-.21,10.694,10.694,0,0,1,3.3.47.929.929,0,0,1,.578,1.181.409.409,0,0,1-.018.049Z" style="fill:#fff"/><path d="M226.34,151.73c-7.3-12.55-16.86-15.16-25.12-17.15a20.02,20.02,0,0,0-2.94-.48v-.09l-15-1.86a14.761,14.761,0,0,1-11.18-7.55,54.211,54.211,0,0,0-3.16-9.81,29,29,0,0,1-2-14.16,25.028,25.028,0,0,1-.39,2.51,48.617,48.617,0,0,1-8.34,13.28,54.607,54.607,0,0,1-21.77,14.87h0v-.62c-2.14,3.64-4.31,8.44-18.06,7.47-13.22-.93-19.27,7.34-27.39,14C73.15,166.71,65.52,167.5,65.52,167.5A42.8,42.8,0,0,0,69.28,178a58.465,58.465,0,0,0,14.23,18.1h0c3.1-.53,16.5-3.87,16.5-3.87l2.78-.87c.66-.2,1.33-.39,2-.57,4.76-1.24,9.71-1.88,14.34-3.53a46.1,46.1,0,0,0,8.63-4.39c3-1.87,6.28-3.3,7.93-6.65,1.42-2.87,1.27-6.27,2.8-9.11a11.228,11.228,0,0,1,2.69-3.21c-3.34-9.45-3.18-15.41-1.39-18.86,2.47-4.77,8-4.78,11.62-2.69a34.579,34.579,0,0,1,5.21,5.06,51.841,51.841,0,0,1,4.37,5.4,69.207,69.207,0,0,1,4.13,7.41c.1.19.19.39.29.59l.45-.34a54.553,54.553,0,0,1,6.28-3.52c-.3-1.52,0-2.63,1.75-2.2a3.477,3.477,0,0,1,1.35.73,17.31,17.31,0,0,1,3.37-1.22,10.006,10.006,0,0,1,3.73.16c5,1.16,9.11,6.25,3.3,16.27-.2.34-.42.7-.65,1.05l-.46.74c-.26.39-.54.79-.83,1.19a19.482,19.482,0,0,0-.43,4.87c.26,3.19,2.14,5.5,4,7.9.31.39.62.79.92,1.19a59.265,59.265,0,0,0,3.84,4.69,32.755,32.755,0,0,0,2.58,2.57c1.09.95,2.25,1.84,3.43,2.68,3.38,2.42,7,4.53,10.26,7.14l2.27,1.82s7.95,5.69,12.07,8.46a63,63,0,0,0,15.52-12,70.82,70.82,0,0,0,9.66-12.5S238.76,173.05,226.34,151.73Z" style="fill:#fff"/><path d="M168.09,193.71a32.786,32.786,0,0,0-4.35-3.9c-7.22,2.55-15.09,3.88-19.47,6.1-10,5-14.34,26.8-43.5,37.78-2.39,22.95-3,41.94.74,46.81s17.19,11.41,32.87,17.16a42.131,42.131,0,0,0,24.79,1.44c2.68-7,9.48-18.86,16-33.25a188.182,188.182,0,0,0,11-30.25l-.81-1.08C172.57,217.1,174.28,200.68,168.09,193.71Z" style="fill:#fff"/><path d="M142.94,111.34s.58-6.15.44-9.24a34.6,34.6,0,0,0-.67-5.11,16.417,16.417,0,0,1-7.82.55,8.341,8.341,0,0,1-2.06-.48c-.66-.22-1.3-.48-1.94-.75a15.9,15.9,0,0,1-3.35-2.26,2.08,2.08,0,0,1,1.26-3.65h.44a28.305,28.305,0,0,1,3.33.24c1.05,0,2,.22,3,.12a12.815,12.815,0,0,0,5.12-.83c-.28-.76-.59-1.49-.91-2.19a20.762,20.762,0,0,0-1.63-3,4.57,4.57,0,0,0-2-1.86c-1.54-.59-3.31.39-4.89-.09s-2.39-2.28-2.8-3.91c-1-3.74-1.27-7.6-1.86-11.41-.09-.63-.2-1.24-.32-1.83-1.78-8.91-5.93-14-10-17.24l-.16.15c-.18.16-.37.32-.57.47a10.664,10.664,0,0,1-2.94,1.5,16.434,16.434,0,0,1-3.77.81c-.68.06-1.37.09-2.09.09a19.511,19.511,0,0,1-5.46-.85A2.449,2.449,0,0,0,98.2,53c0,1.53-.1,3.71-.08,6.38h0v3.47a11.468,11.468,0,0,0,.08,1.64,2.085,2.085,0,0,1,0,.25c0,.55.07,1.11.11,1.68v.3c0,.56.1,1.14.15,1.72v.34c.06.57.12,1.14.19,1.72v.43c.06.56.14,1.13.22,1.7a1.286,1.286,0,0,0,.07.51c.08.56.17,1.13.27,1.7l.09.57c.09.56.2,1.12.31,1.68l.12.64c.11.55.23,1.1.35,1.65.06.24.11.48.16.72.13.53.26,1.07.4,1.6a3.085,3.085,0,0,0,.16.65c1.7,3.08,6.18,11.15,7.89,13.47,6,8.11,13.43,12.58,21.65,16,3.6,1.5,5.62,14,5.81,18.86v.62h0a54.607,54.607,0,0,0,21.77-14.87,48.617,48.617,0,0,0,8.34-13.28,25.319,25.319,0,0,0,.39-2.51,11.634,11.634,0,0,1,.12-1.3,35.378,35.378,0,0,1,.94-6.58C157.33,109.41,142.94,111.34,142.94,111.34ZM113.57,59.13l-2.44,1.94a15.824,15.824,0,0,1-2.67,1.75h0a.92.92,0,0,1-1.235-.41l0-.01a1,1,0,0,1,0-.81,10.355,10.355,0,0,1,1.94-2.71,27.25,27.25,0,0,1,2.43-2.24,25.65,25.65,0,0,1,2.72-1.87,9.283,9.283,0,0,1,3.09-1.27.84.84,0,0,1,.994.65l.006.03a.831.831,0,0,1-.14.65h0a13.26,13.26,0,0,1-2.26,2.3Zm6.68,13.09c-.83.38-2.19-.83-3-2.7s-.87-3.69,0-4.07,2.19.84,3,2.71S121.07,71.85,120.25,72.22Z" style="fill:#fff;opacity:0.800000011920929;isolation:isolate"/><path d="M118.21,54.84h0a.831.831,0,0,0,.14-.65.841.841,0,0,0-.97-.686l-.03.006a9.283,9.283,0,0,0-3.09,1.27,25.65,25.65,0,0,0-2.72,1.87,27.25,27.25,0,0,0-2.43,2.24,10.355,10.355,0,0,0-1.94,2.71,1,1,0,0,0,0,.81.92.92,0,0,0,1.23.425l.01-.005h0a15.824,15.824,0,0,0,2.67-1.75l2.44-1.94,2.39-2A13.244,13.244,0,0,0,118.21,54.84Z" style="fill:#fff;opacity:0.15000000596046448;isolation:isolate"/><path d="M141.52,47.05a10.694,10.694,0,0,0-3.3-.47,26.006,26.006,0,0,0-3.3.21,27.753,27.753,0,0,0-3.23.67,9.357,9.357,0,0,0-3.05,1.37.85.85,0,0,0,.38,1.52h0a13.159,13.159,0,0,0,3.21,0l3.1-.35,3.08-.43a15.881,15.881,0,0,0,3.11-.72h0a.92.92,0,0,0,.55-.57.931.931,0,0,0-.507-1.214Z" style="fill:#fff;opacity:0.15000000596046448;isolation:isolate"/><path d="M256.14,238.21a32.537,32.537,0,0,0-7.32-19.83,115.505,115.505,0,0,1-9.35-13.15c-.44-.72-.87-1.46-1.29-2.19a63,63,0,0,1-15.52,12c-4.12-2.77-12.07-8.46-12.07-8.46l-2.27-1.82c-3.24-2.61-6.88-4.72-10.26-7.14-1.18-.84-2.34-1.73-3.43-2.68a32.755,32.755,0,0,1-2.58-2.57,59.265,59.265,0,0,1-3.84-4.69c-.3-.4-.61-.8-.92-1.19-1.87-2.4-3.75-4.71-4-7.9a19.482,19.482,0,0,1,.43-4.87c.29-.4.57-.8.83-1.19l.46-.74c.23-.35.45-.71.65-1.05,5.81-10,1.68-15.11-3.3-16.27a10.006,10.006,0,0,0-3.73-.16,17.31,17.31,0,0,0-3.37,1.22,3.477,3.477,0,0,0-1.35-.73c-1.76-.43-2.05.68-1.75,2.2a54.553,54.553,0,0,0-6.28,3.52l-.45.34c-.1-.2-.19-.4-.29-.59a69.207,69.207,0,0,0-4.13-7.41,51.712,51.712,0,0,0-4.37-5.4,34.579,34.579,0,0,0-5.21-5.06c-3.61-2.09-9.15-2.08-11.62,2.69-1.79,3.45-2,9.41,1.39,18.86a11.228,11.228,0,0,0-2.69,3.21c-1.53,2.84-1.38,6.24-2.8,9.11-1.65,3.35-4.9,4.78-7.93,6.65a46.1,46.1,0,0,1-8.63,4.39c-4.63,1.65-9.58,2.29-14.34,3.53-.67.18-1.34.37-2,.57l-2.78.87s-13.4,3.34-16.5,3.87h0A58.452,58.452,0,0,1,69.28,178l-.82.33c-1.6,2.21-3.2,4.42-4.9,6.52a114.23,114.23,0,0,1-10.91,11.88,36.876,36.876,0,0,0-5.76,7.4,20.857,20.857,0,0,0-6.62,10.65A17.77,17.77,0,0,0,45,232a23,23,0,0,0,14.44,6.8s7.58,1.09,10.11.94c12.85-.76,23-3,31.27-6.09,29.16-11,33.55-32.74,43.5-37.78,4.38-2.22,12.25-3.55,19.47-6.1a32.786,32.786,0,0,1,4.35,3.9c6.19,7,4.48,23.39,17.24,40.81l.81,1.08a73.1,73.1,0,0,0,13.29,13.2A114.079,114.079,0,0,0,221.52,262c2.3,1.07,9.75,2.83,9.75,2.83a22.917,22.917,0,0,0,15.92-1,17.77,17.77,0,0,0,10.68-14.3A20.728,20.728,0,0,0,256.14,238.21ZM183.5,166.84l.11.38c-.05-.16-.11-.31-.17-.47Z" style="fill:#fff;opacity:0.800000011920929;isolation:isolate"/><path d="M153.7,83.16a1.861,1.861,0,0,0-2.589-.465l-.021.015-.34.24c-.88.62-1.74,1.41-2.54,2.09l-2.37,2a17.408,17.408,0,0,1-4.91,2.8l-.25.08a12.815,12.815,0,0,1-5.12.83c-1,.1-1.94-.15-3-.12a28.305,28.305,0,0,0-3.33-.24h-.44a2.08,2.08,0,0,0-1.26,3.65,15.9,15.9,0,0,0,3.35,2.26c.64.27,1.28.53,1.94.75a8.341,8.341,0,0,0,2.06.48,16.417,16.417,0,0,0,7.82-.55l.82-.28a17.994,17.994,0,0,0,7-4.9,14.563,14.563,0,0,0,2.31-3.38,11.412,11.412,0,0,0,1.23-4A1.87,1.87,0,0,0,153.7,83.16Zm-12.36,8.63h0l-.27-.82Z" style="fill:#fff;opacity:0.15000000596046448;isolation:isolate"/><path d="M137,56.83c-.82.38-.8,2.2.05,4.07s2.21,3.08,3,2.7.8-2.19-.05-4.06S137.83,56.46,137,56.83Z" style="fill:#fff;opacity:0.15000000596046448;isolation:isolate"/><path d="M117.16,65.45c-.82.38-.8,2.2,0,4.07s2.21,3.08,3,2.7.8-2.19,0-4.06S118,65.08,117.16,65.45Z" style="fill:#fff;opacity:0.15000000596046448;isolation:isolate"/></svg>