<svg id="illustrations" xmlns="http://www.w3.org/2000/svg" viewBox="0 0 300 300"><path d="M212.423,52.84a26.149,26.149,0,0,0-3.47-1.53,9.279,9.279,0,0,0-3.82-.62,1.218,1.218,0,0,0-.73.31,1.241,1.241,0,0,0-.119,1.75l.009.01h0a11.726,11.726,0,0,0,2.88,2.3c1,.59,2,1.22,3,1.78s2.08,1.08,3.12,1.64c.39.19.79.37,1.19.54.1-1.64.15-3.23.13-4.77A22.982,22.982,0,0,0,212.423,52.84Z" style="fill:#fff;opacity:0.15"/><path d="M87.493,98.53a50.776,50.776,0,0,0,11.77-11.47l16.71-2.54-9-12.9a50.6,50.6,0,1,0-19.48,26.91Z" style="fill:#fff"/><path d="M124.523,65.19c2.66,2.11,6.15,3.66,7.49,6.68,1.3,5,.76,11.44,6.3,14.5a39.488,39.488,0,0,0,7.63,2.82c7.65,1.55,13.6-15.72,12.23-18.19-.24-.42-.49-.84-.76-1.25a17,17,0,0,1-2.89-10.5c.39-5.54,4.94-9.59,10.38-6.9,1.47.73,3,1.67,4.6,1.59a5.478,5.478,0,0,0,2.57-.89c3.09-1.87,4.9-5.33,5.88-8.81s1.31-7.11,2.25-10.6c2.69-9.94,19.43-3.26,25-.46,6,3,6.93,6.2,8.36,9a20.281,20.281,0,0,1,3.52-2.18c15.35-5.13,22.82-19.84,11.59-26.75-27.29-16.78-45.14-14.91-60.77-3-8.59,6.53-10.06.8-20.48,4.39-6.38,2.11-13,2.71-15.77,9.77-.85,12-1.12,10.35-9.79,18.82C116.583,49.51,117.843,59.86,124.523,65.19Z" style="fill:#fff;opacity:0.3"/><ellipse cx="204.996" cy="64.604" rx="4.22" ry="1.86" transform="translate(114.358 259.492) rotate(-82.55)" style="fill:#fff;opacity:0.15"/><ellipse cx="189.074" cy="61.92" rx="1.86" ry="4.22" transform="translate(-2.872 9.578) rotate(-2.88)" style="fill:#fff;opacity:0.15"/><path d="M193.043,51a11.445,11.445,0,0,1-3.47,1.22c-1.16.23-2.3.51-3.46.7s-2.31.35-3.48.53a14.25,14.25,0,0,1-3.65.08h0a1.36,1.36,0,0,1-.69-2.4,10.444,10.444,0,0,1,3.4-1.8,27.388,27.388,0,0,1,3.68-.91,25.051,25.051,0,0,1,3.77-.31,9.126,9.126,0,0,1,3.81.65,1.25,1.25,0,0,1,.13,2.24Z" style="fill:#fff;opacity:0.15"/><path d="M184.493,91.14a19.458,19.458,0,0,1-4.81-3.42.561.561,0,0,1,0-.79.551.551,0,0,1,.65-.1c1.69.88,3.34,1.73,5,2.48.25.11.51.2.76.3.31-3.51.8-7.39,1.58-8.37,3.21-4.06,5.44-1.88,8.82-3.06,1.13-.4,1.45-2.27,1.61-3.26,2.19-13.14,0-31.69-3.41-45.65-6.27-1.57-12.93-1.59-14.54,4.37-.94,3.49-1.26,7.13-2.25,10.6s-2.79,6.94-5.88,8.81a5.478,5.478,0,0,1-2.57.89c-1.64.08-3.13-.86-4.6-1.59-5.44-2.69-10,1.36-10.38,6.9a17,17,0,0,0,2.89,10.5c.27.41.52.83.76,1.25,1.1,2-2.41,13.21-7.73,17,2.47,2.79,5.1,5.27,7.71,7.91,6.37,6.44,9.63,10.68,19,13.8,1.91-1.84,4.12-3.53,5.65-5.67a14.117,14.117,0,0,0,1.39-2.49,22.284,22.284,0,0,0,1.61-7.46c0-.64.09-1.42.15-2.28C185.453,91.61,184.973,91.38,184.493,91.14Zm4.79-25c-1,0-2-1.8-2.07-4.12s.62-4.25,1.65-4.31,1.95,1.8,2.07,4.12S190.313,66.08,189.283,66.14Zm-10.32-12.63a1.36,1.36,0,0,1-.69-2.4,10.444,10.444,0,0,1,3.4-1.8,27.388,27.388,0,0,1,3.68-.91,25.051,25.051,0,0,1,3.77-.31,9.126,9.126,0,0,1,3.81.65,1.25,1.25,0,0,1,.13,2.24h0a11.445,11.445,0,0,1-3.47,1.22c-1.16.23-2.3.51-3.46.7s-2.31.35-3.48.53a14.25,14.25,0,0,1-3.65.08Z" style="fill:#fff"/><path d="M164.883,136.6c.21-3.35,1-6.67.89-10-.08-4.41-1.57-8.67-3.4-12.68a74.848,74.848,0,0,0-16-22.78c-.89-.87-1.8-1.72-2.68-2.6h.05c-.79-.25-1.55-.52-2.25-.78,4,14.92-2.27,21.87-16.48,30.29-1.85,1.09-3.61,2.21-5.29,3.33,0,0,6.09,4.3,14.8,9.95h0c15.44,9.95,24.82,10.29,30.35,8.1A26.716,26.716,0,0,1,164.883,136.6Z" style="fill:#fff;opacity:0.8"/><path d="M293.263,16.79c-1.06-2.09-5.08.05-6.16,1.11-3.74,3.68-4.6,9.69-8.62,13.24-.33-3.46,4.86-29.73-3-28.07-4,.86-4.16,6.39-4.47,9.62-.3,3.05-.38,6.11-.54,9.17-.12,2.18.23,5.16-.6,7.22-2.29-4-1.47-29.58-8.83-28-4.8,1-4.13,8.64-3.69,12.06.37,2.84,1,5.64,1.55,8.45.49,2.4-.16,6.94-.32,9.39-2.77-2.88-5.83-23.06-11.4-20.83-6.35,2.53-1.79,13.38-.26,17.4,1.33,3.45,12.25,20.88,4.86,22.45-2.1.45-4.49-1.18-6.28-2a22.243,22.243,0,0,0-6.09-2.07c-2.55-.41-7.52-.19-6.73,2.5,1.18,4,20.39,13.4,27.32,20.22,1.05,4,.91,12.39-14.73,19.52-14.41,6.56-23.86,12.69-34.38,16.36,3.06,3.75,10.34,30.83,11.11,33.29a10.1,10.1,0,0,1,.45,2.58c12.77-6.23,29.31-14.23,33.28-15.86,23.49-9.6,28.66-31.42,29.7-43h0c.41-4.57,2.69-25.35,2.18-31.37-.73-8.52-.33-19.23,4.39-26.4C293.393,21.61,294.523,19.27,293.263,16.79Z" style="fill:#fff;opacity:0.8"/><path d="M117.963,222.81a26.109,26.109,0,0,1-8.86-1c-.88,2-1.73,4-2.5,6q-1.89,4.95-3.4,10a126.374,126.374,0,0,0,10.81,6.69c2,1.07,8.56,4.13,12.76,6,3.26-14.94,14.09-44.49,12.75-60.8C133.963,206.37,126.5,221.93,117.963,222.81Z" style="fill:#fff;opacity:0.5"/><path d="M110.453,285a51.348,51.348,0,0,0,11.77,8.69,51.839,51.839,0,0,1-1-6.72Q116.044,286.27,110.453,285Z" style="fill:#fff;opacity:0.5"/><path d="M179.683,286.58c-10.61-2.17-31.54,5.17-62.81-.27,1.47.26,2.93.5,4.36.7a51.839,51.839,0,0,0,1,6.72c.45.23.89.46,1.35.67,8.66,4,18.55,4.44,28.07,3.69,11.5-.92,23.18-3.6,32.74-10A29.354,29.354,0,0,0,179.683,286.58Z" style="fill:#fff"/><path d="M222,137.78c-.8-2.55-8.55-31.4-11.4-33.59a15.516,15.516,0,0,0-5.46-2.27c-3.91,7.7-9.23,11.83-16.64,10.54-2.33-.41-4.42-.84-6.31-1.3l-1.3-.32-.27-.08-.21-.06c-3.5,3.55-8.63,10.2-8.43,18.47,0,1.11.08,2.19.14,3.24h0a12.807,12.807,0,0,1-7,6.89h0c-5.49,2.31-14.93,2.15-30.65-8h0c-8.72-5.66-14.8-9.95-14.8-9.95s-10.14,5.86-16.45,12l-.21.22c-30.09,27.87-44.49,59.69-44.49,59.69s30.31,23.26,50.58,28.52c-.38.86-.76,1.72-1.12,2.59.36-.87.75-1.73,1.13-2.59a29.63,29.63,0,0,0,6.77,1h1.13a4.8,4.8,0,0,0,.93-.06h0a7.527,7.527,0,0,0,.83-.14l.27-.07a1.862,1.862,0,0,0,.56-.15l.32-.12.5-.2.34-.16a4.073,4.073,0,0,0,.47-.24l.35-.2.46-.28.35-.24.44-.32.36-.28c.14-.11.29-.23.43-.36l.36-.31.42-.4.36-.34q.21-.21.42-.45l.34-.36c.15-.16.29-.33.43-.49l.34-.4.43-.54.32-.4c.2-.26.4-.53.59-.81l.48-.67c.12-.18.25-.36.37-.55l.39-.59.33-.52c.14-.21.27-.42.4-.64s.21-.34.31-.52.27-.45.4-.68l.3-.52.4-.73.29-.52.4-.78.27-.5c.14-.28.28-.55.41-.83s.17-.32.25-.49.28-.59.43-.88.13-.3.2-.44c.16-.33.31-.65.46-1l.15-.34c.17-.36.33-.73.49-1.1a1.023,1.023,0,0,0,.07-.15c1.41-3.22,2.75-6.66,4-10.18h0l.53-1.52h0c.17-.51.35-1,.52-1.54,1.34,16.31-9.49,45.86-12.75,60.8,2.09,1,3.59,1.63,3.59,1.63l2.9,1.12c15.24,5.92,27,10.84,50.76,12.19,2-2.09,3.09-4.15,6.08-5.35,1.92-.78,6.85-2.48,11.13-3.69-.43-4.88-.86-9.76-1.32-14.65q-1-10.32-2.09-20.64c-.1-7.16-.45-35.56.8-42.72s1.34-19.11,9.85-25.69l4.46-2.58a9.922,9.922,0,0,0,2.42-1.39l2.91-1.69a10.933,10.933,0,0,0,2.59-1.86C222.673,143.36,222.8,140.32,222,137.78Z" style="fill:#fff"/><path d="M224.393,269.42a78.465,78.465,0,0,1-12.27,2c-3.85.25-7.5.38-10-1.21a3.41,3.41,0,0,1-1.14-4.48c1.33-2.48,5.22-4.59,7.82-6.81,1-.86.17-3.77-1.17-3.76a31.268,31.268,0,0,0-6.42,1.33h0l-1.52.45-.28.08-1.28.39-.26.08-.72.23-.31.09-1.1.36-.45.15-.66.22-.72.24-.42.15-.82.28-.24.09-.69.25-.2.07-.72.26-.14.06c-.22.08-.43.16-.6.24-3,1.2-4.06,3.26-6.08,5.35-23.72-1.35-35.52-6.27-50.76-12.19l-2.9-1.12-.14-.06h-.07l-.77-.35h-.07l-1.72-.79-.14-.06-.65-.3h0c-4.2-1.92-10.8-5-12.76-6a126.513,126.513,0,0,1-10.85-6.77q1.52-5.1,3.4-10c.44-1.15.9-2.28,1.38-3.41h0c.36-.87.74-1.73,1.12-2.59-13.2-3.48-30.7-14.58-41.27-21.89-1.6,4-3.08,8.06-4.28,12.19-2.76,9.17-5.14,18.56-5.41,28.08h0c-.12,1.7-.16,3.33-.12,4.88a22.643,22.643,0,0,0,0,4,23.268,23.268,0,0,0,2.75,8.82,19.863,19.863,0,0,0,6.14,7.62l.26.25a50.762,50.762,0,0,0,14.93,10c50.91,21.94,83.42,7.9,97.57,10.79,8.23,1.69,22.51,11.82,34.16,10,9.22-1.42,13.07-15.74,14.48-23.49a3.21,3.21,0,0,0-3.89-3.72Z" style="fill:#fff;opacity:0.8"/><path d="M162.373,113.9c1.83,4,3.32,8.27,3.4,12.68.07,3.35-.68,6.67-.89,10a24.29,24.29,0,0,0,0,2.83,12.838,12.838,0,0,0,7.27-7h0c-.06-1-.12-2.13-.14-3.24-.2-8.27,4.93-14.92,8.43-18.47l-.78-.21h-.31l-.9-.26h0l-.3-.1h0l-.84-.27h-.14c-9.38-3.12-12.64-7.36-19-13.8-2.58-2.6-5.16-5.06-7.6-7.8l-.15-.09a5.639,5.639,0,0,1-4.44,1.15c-.78-.21-1.55-.44-2.3-.67.88.88,1.79,1.73,2.68,2.6A74.865,74.865,0,0,1,162.373,113.9Z" style="fill:#fff;opacity:0.5"/><path d="M99.263,87.06A50.61,50.61,0,0,1,12.023,37a50.61,50.61,0,0,0,85.59,53.51L114.333,88l1.64-3.45Z" style="fill:#fff;opacity:0.3"/><path d="M210.233,56.84c-1-.56-2-1.19-3-1.78a11.753,11.753,0,0,1-2.89-2.28h0a1.24,1.24,0,0,1,.1-1.751l.01-.009a1.218,1.218,0,0,1,.73-.31,9.279,9.279,0,0,1,3.82.62,26.149,26.149,0,0,1,3.47,1.53,22.853,22.853,0,0,1,2.25,1.41,55.252,55.252,0,0,0-1.6-13c-1.24-2.56-2.61-5.37-7.88-8a54.639,54.639,0,0,0-10.47-3.92c3.39,14,5.6,32.52,3.41,45.66-.16,1-.48,2.86-1.61,3.26-3.38,1.18-5.61-1-8.82,3.06-.78,1-1.27,4.86-1.58,8.37a37.705,37.705,0,0,0,4.48,1.54,36.926,36.926,0,0,0,5.44,1c1.84.21,3.7.3,5.59.36a.609.609,0,0,1,.6.62v.01a.62.62,0,0,1-.47.59,20.786,20.786,0,0,1-5.89.48,29.18,29.18,0,0,1-5.86-1,28.272,28.272,0,0,1-4.07-1.47c-.06.86-.11,1.64-.15,2.28a22.284,22.284,0,0,1-1.61,7.46,14.117,14.117,0,0,1-1.39,2.49c-1.53,2.14-3.74,3.83-5.65,5.67a80.828,80.828,0,0,0,11.36,2.73c16.08,2.82,22.32-20.06,25.62-49.57.15-1.33.25-2.61.33-3.87-.4-.17-.8-.35-1.19-.54C212.313,57.92,211.253,57.41,210.233,56.84Zm-3.39,8c-.3,2.3-1.37,4.07-2.39,3.93s-1.6-2.11-1.3-4.42,1.37-4.07,2.39-3.94,1.63,2.13,1.3,4.44Z" style="fill:#fff;opacity:0.8"/><path d="M180.333,86.83c1.69.88,3.34,1.73,5,2.48a36.134,36.134,0,0,0,5.24,1.84,36.926,36.926,0,0,0,5.44,1c1.84.21,3.7.3,5.59.36a.609.609,0,0,1,.6.62v.01a.62.62,0,0,1-.47.59,20.786,20.786,0,0,1-5.89.48,28.009,28.009,0,0,1-11.38-3.11,19.458,19.458,0,0,1-4.81-3.42.561.561,0,0,1,0-.79A.55.55,0,0,1,180.333,86.83Z" style="fill:#fff;opacity:0.15"/></svg>