<?xml version="1.0" encoding="UTF-8"?><svg id="Illustrations" xmlns="http://www.w3.org/2000/svg" viewBox="0 0 300 300"><path d="m245.325,221.65c-1.051.677-3.123,1.528-7.187,2.11l-2.969-1.865c-4.194-1.706-8.338-3.737-12.331-6.235-1.998-1.244-10.383-7.531-10.383-7.531l-1.698-1.45c-6.288-5.341-11.677-9.765-17.586-17.31,1.947-5.273,3.768-14.057,2.095-26.826-1.076-.407-2.128-.877-3.165-1.479-.491-.285-.657-.912-.369-1.4.226-.384.665-.568,1.082-.489l.065.013c.643.122,1.291.237,1.939.35-.348-2.092-.778-4.269-1.323-6.559-1.468-6.162-4.376-11.66-7.756-15.898-1.297-1.627-2.661-3.068-4.043-4.287-5.353-4.721-10.927-6.117-13.577-2.197-.719,1.064-1.218,2.525-1.442,4.414-.206,1.737-.188,3.82.128,6.319.465,3.681.774,6.987.965,9.971,1.263,19.694-2.734,24.907-2.734,24.907l-.765,1.204-2.553-4.672s-3.136-4.706-1.603-21.065c.367-3.919,1-8.499,2.01-13.852.15-.796.265-1.549.354-2.268,1.911-15.524-10.216-13.217-19.403-2.508-2.598,3.029-4.96,6.722-6.703,10.883-.52,1.243-.989,2.525-1.389,3.844-.278.919-.538,1.822-.78,2.71.227.084.455.173.682.255l.059.021c.378.138.653.514.661.959.01.565-.415,1.026-.949,1.03-.348.003-.69-.012-1.031-.03-2.803,11.323-2.725,19.983-1.753,26.134-5.037,3.495-9.527,6.001-13.946,8.122,1.163-2.845,2.446-5.738,3.858-8.678,0,0,0,0,0,0-1.411,2.94-2.695,5.834-3.858,8.679-3.315,1.591-6.597,2.973-10.047,4.402-.851.353-1.71.708-2.585,1.07l-2.279.951s-10.985,3.857-13.525,4.531c-5.079,1.359-10.178,2.231-15.23,2.776l-6.094,1.641c-4.411,1.188-8.339,4.056-11.021,7.932-1.282-1.032-2.185-1.957-2.811-2.718-5.296,11.387-2.511,22.801,5.611,26.43,2.79,2.023,6.158,3.103,9.677,3.165,0,0,6.205.451,8.282.146,4.615-.677,8.886-1.678,12.858-2.925,6.672-2.094,12.486-4.889,17.619-8.036,22.046-13.516,31.5-33.518,42.115-32.378l2.102.5c3.691.204,6.453-.31,8.483-1.335,1.107,2.203,3.173,3.906,6.581,4.751v.002s.004,0,.006,0c.748.185,1.567.326,2.448.424,9.257,3.874,14.155,33.076,40.202,51.377,3.491,2.453,7.361,4.71,11.673,6.683,1.702.779,7.16,1.793,7.16,1.793,3.864.968,7.977.321,11.527-2.067,4.26-2.867,7.051-7.644,7.368-13.975.03-.607.026-1.208.008-1.805.825-5.615.115-12.145-2.727-18.661Z" style="fill:#fff; opacity:.4;"/><path d="m125.299,170.689c-.191.195-.407.418-.659.678-.631.653-1.436,1.499-2.398,2.534-.665.879-1.358,1.753-2.075,2.622-.717.869-1.457,1.733-2.216,2.592-1.517,1.719-3.107,3.42-4.729,5.108-1.278,1.551-2.623,3.327-4.002,5.25-.294.41-.589.828-.887,1.252-.151.216-.303.435-.455.654,3.45-1.429,6.733-2.812,10.047-4.402,1.163-2.845,2.447-5.739,3.858-8.679,1.33-2.771,2.769-5.582,4.335-8.437,0,0-.299.297-.82.829Z" style="fill:#fff; opacity:.2;"/><path d="m108.38,226.341c-5.133,3.147-10.947,5.941-17.619,8.036.426,5.456.995,11.208,2.204,18.849,5.251,33.195,6.022,34.385,29.943,42.631-3.902-12.521-16.965-36.022-14.528-69.516Z" style="fill:#fff; opacity:.2;"/><path d="m222.309,159.827c-2.908,2.105-6.319,3.541-9.821,4.213-1.752.343-3.525.501-5.287.542-1.763.006-3.512-.117-5.238-.346-1.725-.238-3.424-.606-5.074-1.123-.55-.175-1.09-.366-1.625-.569,1.673,12.769-.148,21.553-2.095,26.826,5.909,7.544,11.298,11.969,17.586,17.31l1.698,1.45s8.385,6.287,10.383,7.531c3.993,2.498,8.137,4.529,12.331,6.235l2.969,1.865c4.064-.583,6.136-1.433,7.187-2.11.95-.612,1.067-1.082,1.067-1.082,0,0,3.417-25.885-8.203-50.421-.279-.59-.577-1.18-.884-1.77-2.426,2.378-5.116,4.51-8.052,6.27-3.406,2.03-7.112,3.557-10.955,4.535-1.922.486-3.887.816-5.874.935-.994.061-1.992.066-2.998.005-.503-.037-1.008-.085-1.521-.166-.257-.042-.515-.09-.79-.154-.137-.034-.274-.071-.438-.124-.073-.023-.177-.06-.281-.101-.085-.037-.121-.051-.24-.117-.081-.047-.158-.104-.227-.165,0,0-.153-.142-.227-.29-.083-.151-.126-.325-.132-.472-.02-.56.421-1.03.985-1.05.259-.009.493.087.679.238-.029-.023-.055-.048-.086-.066-.067-.039-.046-.035-.076-.049.01-.009.02-.011.063-.012l.263-.011c.196-.005.411-.019.628-.039.433-.037.878-.085,1.322-.15.89-.116,1.782-.277,2.67-.453,1.774-.364,3.532-.809,5.257-1.351,1.728-.533,3.418-1.186,5.056-1.945,1.651-.732,3.24-1.592,4.786-2.519,2.948-1.763,5.701-3.856,8.223-6.219-2.24-3.648-4.95-7.173-7.963-10.27-.364.533-.746,1.055-1.171,1.548-1.112,1.376-2.445,2.588-3.894,3.643Z" style="fill:#fff;"/><path d="m170.116,198.306c-.882-.099-1.7-.239-2.448-.424-.003,0-.005,0-.008,0v-.002c-3.407-.845-5.473-2.549-6.58-4.751-2.03,1.025-4.793,1.539-8.483,1.335l-2.102-.5c-10.614-1.139-20.068,18.862-42.115,32.378-2.437,33.493,10.625,56.994,14.528,69.516,9.733,3.36,51.637,6.316,56.96,1.956,6.155-5.041,17.455-14.15,30.45-48.131-26.047-18.3-30.945-47.503-40.202-51.377Z" style="fill:#fff;"/><path d="m194.816,159.54c2.512.438,5.051.799,7.55.985,3.153.239,6.304.095,9.314-.516,1.512-.278,2.981-.715,4.395-1.268,1.415-.55,2.784-1.224,4.056-2.058,1.84-1.144,3.495-2.569,5.08-4.144-5.205-4.768-11.116-8.171-16.946-8.822-8.81-.984-14.623-3.927-22.527-6.635,3.379,4.239,6.288,9.737,7.756,15.898.545,2.29.975,4.468,1.323,6.559Z" style="fill:#fff;"/><path d="m160.114,151.675c-1.533,16.36,1.603,21.065,1.603,21.065l2.553,4.672.765-1.204s3.997-5.213,2.734-24.907c-2.461.384-5.041.494-7.655.374Z" style="fill:#fff;"/><path d="m119.099,142.151c2.184,2.018,4.701,3.701,7.395,5.053,2.47,1.244,5.091,2.311,7.711,3.28.242-.888.502-1.791.78-2.71.399-1.32.868-2.601,1.389-3.844-2.695-1.929-4.839-4.128-6.146-6.501.089-.12.169-.221.256-.336-.031.007-.062.017-.093.024l-13.179.753-1.774.132c.209.297.424.59.645.877.904,1.179,1.906,2.283,3.017,3.272Z" style="fill:#fff;"/><path d="m57.145,210.279c2.682-3.876,6.61-6.744,11.021-7.932l6.094-1.641c5.053-.545,10.152-1.416,15.23-2.776,2.539-.674,13.525-4.531,13.525-4.531l2.279-.951c.875-.363,1.734-.718,2.585-1.07.152-.219.303-.438.455-.654.297-.425.592-.842.887-1.252,1.378-1.923,2.724-3.699,4.002-5.25,1.622-1.689,3.212-3.39,4.729-5.108.758-.859,1.499-1.723,2.216-2.592.717-.869,1.41-1.743,2.075-2.622.962-1.035,1.768-1.881,2.398-2.534.252-.26.468-.483.659-.678.521-.532.82-.828.82-.829h0c-1.566,2.855-3.005,5.667-4.335,8.438-1.411,2.94-2.695,5.833-3.858,8.678,4.419-2.121,8.909-4.627,13.946-8.122-.972-6.15-1.05-14.811,1.753-26.134-1.309-.069-2.57-.276-3.84-.565-1.591-.368-3.153-.89-4.676-1.536-1.52-.655-3.011-1.413-4.453-2.291-1.424-.907-2.805-1.92-4.083-3.084-2.168-1.96-4.024-4.366-5.401-7.038-1.175.029-2.545.127-3.425.18-3.03.183-5.718.831-8.271,1.909.564,1.312,1.167,2.604,1.838,3.855.839,1.568,1.745,3.1,2.759,4.55.992,1.467,2.075,2.87,3.246,4.186,1.164,1.323,2.399,2.578,3.685,3.771.646.591,1.303,1.172,1.979,1.712.334.276.676.537,1.015.784.168.124.338.243.496.344l.211.14c.035.023.042.029.046.042-.032-.002-.013.004-.085.005-.034,0-.067.009-.101.014.222-.039.458-.007.666.129.453.296.597.921.322,1.397-.073.124-.189.254-.326.343-.129.092-.32.139-.32.139-.085.019-.175.03-.263.031-.128-.001-.164-.008-.251-.018-.104-.015-.206-.034-.277-.051-.159-.035-.288-.071-.416-.109-.255-.08-.488-.166-.718-.257-.458-.184-.894-.392-1.323-.609-.852-.444-1.668-.943-2.454-1.487-1.574-1.086-3.031-2.343-4.383-3.715-2.698-2.748-5.03-5.904-6.884-9.348-.71-1.325-1.327-2.698-1.897-4.091-5.096,3.068-9.985,8.018-16.414,14.856-18.634,19.82-26.669,48.43-26.669,48.43,0,0,.246.848,1.376,2.222.627.762,1.529,1.686,2.811,2.718Z" style="fill:#fff;"/><path d="m111.897,83.814c.1-.046.587-.743.633-1.131.631-5.384.309-30.903,6.337-35.011,2.788-1.9,5.743-2.83,8.813-3.115.343-.083.691-.156,1.043-.22.105-.019.213-.032.318-.049.249-.041.498-.083.751-.115.125-.016.253-.025.379-.038.237-.026.472-.053.712-.071.139-.011.281-.014.421-.023.231-.013.461-.029.694-.036.138-.004.277-.002.416-.004.238-.004.476-.009.717-.006.137.001.275.009.413.012.246.006.492.011.74.023.129.006.26.018.39.025.258.016.516.031.775.052.126.011.254.025.38.037.266.025.533.05.801.081.115.013.232.03.347.045.281.035.562.07.844.11.107.016.215.034.323.05.292.044.584.089.878.139.097.017.195.036.292.053.305.054.611.109.917.169.085.016.169.035.254.052.319.064.639.129.959.198.073.016.147.033.221.05.332.073.664.148.996.227.06.014.119.029.179.044.347.083.694.168,1.041.257.04.01.081.021.121.032.365.094.73.19,1.094.289.028.008.057.016.086.024.378.103.754.208,1.13.316l.019.006c6.273,1.797,12.275,4.18,16.643,5.336.096.025.196.054.29.078.842.216,1.785.314,2.796.295.018,0,.036-.003.054-.003,2.571-.057,5.577-.867,8.486-2.383.511-.267,1.021-.547,1.523-.858,1.126-.696,2.222-1.503,3.255-2.417.344-.305.682-.621,1.011-.95,1.367-1.365,3.712-.916,4.661.76,1.091,1.926,2.786,4.85,4.671,8.557.01.02.02.038.03.059.293.577.591,1.177.892,1.791.025.051.049.098.075.15.289.591.58,1.205.872,1.828.039.082.077.16.115.243.282.605.564,1.23.847,1.863.05.112.1.218.15.331.275.622.549,1.263.823,1.911.057.134.114.263.17.399.264.633.525,1.283.785,1.939.065.163.131.321.195.486.25.639.494,1.294.738,1.954.072.194.145.382.216.578.233.643.459,1.3.684,1.961.077.225.156.445.231.673.215.644.421,1.302.626,1.963.079.256.162.507.239.765.194.644.378,1.299.562,1.957.08.288.164.572.242.863.172.638.332,1.287.492,1.937.063.256.133.505.194.763,0,.007,0,.015,0,.022.049.209.105.412.153.622,0,0-.003.29-.009.797.809-5.945,3.517-27.744,1.242-37.819-2.498-11.066-8.439-13.655-12.297-14.111-2.122-.251-3.939-1.644-4.649-3.645-1.239-3.49-3.038-6.699-5.284-9.533-11.826-13.526-34.342-21.464-49.564-9.769-8.575,6.768-6.961,19.938-14.338,27.862-2.428,2.044-5.404,3.482-8.631,4.168-11.679,2.481-15.901,17.464-5.093,28.651,2.966,3.07,5.92,15.701,8.622,24.384-.071-3.361.912-6.031,2.845-6.923Z" style="fill:#fff; opacity:.15;"/><path d="m143.076,133.048c9.187-10.71,21.314-13.017,19.403,2.508,1.626-.128,3.04-.328,4.197-.543.224-1.889.723-3.35,1.442-4.414-1.248-1.997-2.712-4.436-3.532-6.142-1.273-2.647-2.445-6.217-3.263-9.898-.18-.829-.244-1.282-.459-2.278,0,0,0,0,0,0,0,0,0,0,0-.001-.057-.321-.108-.641-.159-.961-.016-.098-.034-.196-.049-.293-.008-.05-.013-.099-.021-.148-1.68-.091-3.371-.08-5.059.069-1.9.163-3.787.449-5.722.741-.24.036-.486-.086-.591-.32-.13-.288-.003-.636.284-.777,1.843-.904,3.836-1.446,5.847-1.745,1.64-.241,3.298-.34,4.95-.301-.035-.354-.062-.704-.086-1.051-.003-.046-.008-.093-.011-.138-.104-1.58-.099-3.072.043-4.4.119-1.112.339-2.279,1.078-3.124,1.318-1.506,3.793-1.473,5.212-2.886,1.449-1.444,1.266-3.808.775-5.785-1.126-4.534-2.99-8.845-4.543-13.252-.355-1.006-.652-1.981-.925-2.941-2.876-10.125-1.376-17.725,1.111-23.338-.008-.002-.016-.004-.023-.006-4.367-1.156-10.37-3.539-16.643-5.336-.006-.002-.013-.004-.019-.006-.376-.108-.753-.213-1.13-.316-.029-.008-.057-.016-.086-.024-.364-.099-.729-.195-1.094-.289-.04-.01-.081-.021-.121-.032-.347-.089-.694-.174-1.041-.257-.06-.014-.119-.03-.179-.044-.332-.079-.664-.154-.996-.227-.074-.016-.147-.034-.221-.05-.32-.069-.639-.135-.959-.198-.085-.017-.17-.035-.254-.052-.306-.06-.612-.115-.917-.169-.097-.017-.195-.036-.292-.053-.293-.05-.586-.095-.878-.139-.107-.016-.215-.035-.323-.05-.282-.041-.563-.076-.844-.11-.116-.014-.232-.031-.347-.045-.268-.031-.534-.056-.801-.081-.127-.012-.254-.027-.38-.037-.26-.022-.517-.037-.775-.052-.13-.008-.261-.019-.39-.025-.248-.012-.494-.017-.74-.023-.137-.003-.276-.01-.413-.012-.241-.003-.478.003-.717.006-.139.002-.278,0-.416.004-.233.007-.463.023-.694.036-.14.008-.282.012-.421.023-.239.018-.475.046-.712.071-.126.014-.254.023-.379.038-.253.032-.502.074-.751.115-.106.017-.214.03-.318.049-.352.064-.7.137-1.043.22-3.07.285-6.025,1.215-8.813,3.115-6.028,4.108-5.706,29.626-6.337,35.011-.046.388-.533,1.085-.633,1.131-1.933.892-2.916,3.562-2.845,6.923-.025-.081-.051-.165-.076-.248.072,2.095.545,4.444,1.452,6.795,1.082,2.807,3.487,4.641,5.805,5.81.861.434,1.467.927,1.937,1.468,2.739,9.257,7.613,15.937,12.575,21.743l2.041,2.177c3.579,2.007,7.026,3.482,10.289,4.564Zm-13.97-58.808c-.466.056-.889-.277-.945-.743-.044-.367.153-.707.466-.863l.071-.035c1.72-.85,3.357-2.006,5.018-3.182,1.664-1.175,3.298-2.454,4.974-3.71,1.683-1.248,3.406-2.479,5.239-3.62.92-.565,1.872-1.104,2.917-1.528,1.012-.448,2.188-.749,3.409-.75.418,0,.757.338.757.756,0,.313-.19.582-.461.697l-.124.052c-1.675.708-3.294,1.909-4.947,3.09-1.648,1.2-3.272,2.501-4.949,3.761-1.682,1.255-3.403,2.498-5.243,3.631-1.843,1.099-3.842,2.161-6.179,2.442Zm6.017.179c1.637-2.847,4.632-4.33,8.025-4.628.231-.02.466-.041.705-.061-.06-.327-.137-.675-.209-.957-.054-.212-.105-.386-.143-.483-.173-.439.14-.681.475-.347.547.545,1.137,1.144,1.909,1.338.712.179,1.482-.18,2.115-.448.091-.039.252-.098.351-.099.381-.003.408.375.255.583-.06.081-.166.211-.293.366-.025.031-.054.066-.081.099.272.047.542.102.808.174,2.311.623,4.089,2.646,5.534,4.339,1.981,2.32,3.076,4.731,3.076,4.731.725,1.376-3.191,6.726-9.064,8.817-5.873,2.091-13.276-1.693-14.938-3.445-1.662-1.752-1.054-5.579,1.476-9.979Z" style="fill:#fff; opacity:.8;"/><path d="m136.373,143.931c1.742-4.161,4.104-7.854,6.703-10.883-3.264-1.083-6.711-2.558-10.289-4.564,3.204,3.385,2.025,2.878-2.303,8.61-.087.115-.167.216-.256.336,1.307,2.373,3.451,4.572,6.146,6.501Z" style="fill:#fff; opacity:.6;"/><path d="m162.124,137.823c-1.011,5.353-1.643,9.933-2.01,13.852,2.614.121,5.194.01,7.655-.374-.191-2.983-.5-6.29-.965-9.971-.316-2.499-.334-4.582-.128-6.319-1.157.215-2.572.415-4.197.543-.088.719-.203,1.472-.354,2.268Z" style="fill:#fff; opacity:.6;"/><path d="m198.706,78.347c-.16-.65-.32-1.299-.492-1.937-.078-.291-.162-.574-.242-.863-.183-.657-.368-1.313-.562-1.957-.078-.258-.16-.509-.239-.765-.205-.66-.411-1.318-.626-1.963-.076-.227-.155-.447-.231-.673-.225-.66-.451-1.318-.684-1.961-.071-.196-.144-.384-.216-.578-.244-.659-.488-1.315-.738-1.954-.064-.165-.13-.323-.195-.486-.26-.656-.521-1.306-.785-1.939-.057-.136-.114-.264-.17-.399-.273-.648-.548-1.289-.823-1.911-.05-.113-.1-.219-.15-.331-.283-.633-.566-1.259-.847-1.863-.039-.083-.077-.16-.115-.243-.292-.624-.584-1.237-.872-1.828-.025-.051-.05-.099-.075-.15-.301-.614-.599-1.214-.892-1.791-.01-.02-.02-.038-.03-.059-1.885-3.709-3.58-6.63-4.671-8.557-.949-1.676-3.294-2.125-4.661-.76-.329.329-.667.645-1.011.95-1.033.914-2.129,1.721-3.255,2.417-.502.311-1.012.591-1.523.858-2.908,1.517-5.914,2.326-8.486,2.383-.018,0-.036.003-.054.003-1.011.018-1.954-.079-2.796-.295-.087-.022-.179-.048-.267-.071-2.487,5.614-3.987,13.213-1.111,23.338.273.96.571,1.935.925,2.941,1.553,4.407,3.417,8.719,4.543,13.252.491,1.977.674,4.341-.775,5.785-1.418,1.413-3.894,1.38-5.212,2.886-.739.845-.96,2.012-1.078,3.124-.141,1.328-.147,2.82-.043,4.4.003.045.008.092.011.138.024.347.052.697.086,1.051.377.009.754.018,1.13.042,2.023.138,4.025.493,5.963,1.048,1.934.565,3.807,1.356,5.478,2.47.23.153.339.455.244.739-.114.34-.475.53-.807.423-1.837-.58-3.648-1.12-5.493-1.536-1.84-.425-3.714-.694-5.6-.821-.207-.015-.416-.021-.623-.032.007.05.013.099.021.148.015.098.033.196.049.293.051.32.102.641.16.963,0,0,0,0,0,0,.215.996.279,1.449.459,2.278.818,3.68,1.99,7.25,3.263,9.898.82,1.706,2.284,4.145,3.532,6.142,2.65-3.92,8.224-2.524,13.577,2.197-.008-1.631.814-3.507,2.302-5.305,6.897-8.339,12.323-17.361,14.139-29.45.508-3.466.705-14.638.764-18.908,0-.007,0-.015,0-.022-.061-.258-.131-.507-.194-.763Zm-20.345,4.06s-6.941,1.066-11.089-2.352c-1.539-1.268-1.18-3.667.072-6.22.793-3.467,2.596-5.777,4.483-7.269-.273-.122-.554-.224-.756-.287-.146-.046-.848-.183-.934-.482-.008-.027-.018-.054-.015-.084.052-.454.645-.422.87-.436.479-.029.785-.092,1.117-.237.175-.076.358-.174.577-.305.197-.117.72-1.063,1.02-1.691.094-.197.166-.364.199-.463.148-.448.543-.433.587.037.066.716.144,1.487.533,2.11.577-.221,1.101-.37,1.53-.453,6.306,1.218,8.43,1.297,9.122,5.333.693,4.036-.479,11.077-7.316,12.798Zm10.882-17.245c-.107.354-.424.588-.773.608-2.19.119-4.33-.383-6.323-1.044-1.997-.68-3.903-1.498-5.764-2.316-1.857-.824-3.667-1.675-5.489-2.326-1.83-.647-3.603-1.154-5.495-1.289l-.052-.004c-.423-.03-.741-.397-.711-.82.023-.317.235-.575.518-.672,2.174-.741,4.519-.436,6.569.122,2.077.573,4.019,1.36,5.9,2.179,1.876.83,3.695,1.698,5.523,2.455,1.827.768,3.628,1.468,5.508,2.035l.017.005c.453.137.709.614.573,1.067Z" style="fill:#fff; opacity:.6;"/><path d="m188.67,64.095l-.017-.005c-1.88-.567-3.681-1.267-5.508-2.035-1.828-.757-3.646-1.626-5.523-2.455-1.881-.819-3.823-1.606-5.9-2.179-2.05-.558-4.395-.863-6.569-.122-.283.097-.495.355-.518.672-.03.423.288.79.711.82l.052.004c1.893.134,3.665.642,5.495,1.289,1.822.651,3.633,1.502,5.489,2.326,1.861.819,3.767,1.637,5.764,2.316,1.993.661,4.134,1.163,6.323,1.044.349-.02.667-.254.773-.608.137-.453-.12-.93-.573-1.067Z" style="fill:#fff; opacity:.1;"/><path d="m140.528,68.167c1.677-1.26,3.301-2.562,4.949-3.761,1.653-1.181,3.272-2.382,4.947-3.09l.124-.052c.271-.115.461-.384.461-.697,0-.418-.339-.756-.757-.756-1.221,0-2.397.301-3.409.75-1.045.424-1.996.963-2.917,1.528-1.833,1.141-3.555,2.372-5.239,3.62-1.676,1.256-3.311,2.535-4.974,3.71-1.661,1.176-3.298,2.332-5.018,3.182l-.071.035c-.313.155-.51.496-.466.863.056.466.479.798.945.743,2.337-.281,4.336-1.343,6.179-2.442,1.84-1.133,3.562-2.375,5.243-3.631Z" style="fill:#fff; opacity:.1;"/><path d="m161.258,110.907c1.886.126,3.76.395,5.6.821,1.844.416,3.655.956,5.493,1.536.331.107.692-.083.807-.423.095-.284-.014-.585-.244-.739-1.671-1.114-3.544-1.905-5.478-2.47-1.938-.555-3.94-.91-5.963-1.048-.376-.024-.753-.033-1.13-.042h0c-1.652-.039-3.31.06-4.95.301-2.011.299-4.004.841-5.847,1.745-.287.141-.414.488-.284.777.105.233.351.356.591.32,1.935-.292,3.822-.578,5.722-.741,1.688-.148,3.379-.16,5.059-.069h0c.208.011.416.018.623.032Z" style="fill:#fff; opacity:.1;"/><path d="m222.329,173.645c-1.638.759-3.328,1.412-5.056,1.945-1.725.542-3.483.987-5.257,1.351-.887.176-1.78.336-2.67.453-.444.065-.889.113-1.322.15-.216.02-.432.034-.628.039l-.263.011c-.043.002-.053.004-.063.012.03.015.01.01.076.049.032.018.058.043.086.066-.186-.151-.42-.247-.679-.238-.564.02-1.005.49-.985,1.05.006.147.049.321.132.472.074.148.227.29.227.29.069.062.147.118.227.165.119.066.156.079.24.117.104.042.207.079.281.101.165.053.301.09.438.124.274.064.532.112.79.154.514.081,1.018.129,1.521.166,1.006.061,2.004.056,2.998-.005,1.987-.119,3.952-.448,5.874-.935,3.843-.978,7.549-2.505,10.955-4.535,2.936-1.759,5.626-3.892,8.052-6.27.384-.376.779-.743,1.149-1.132,2.702-2.851,4.975-6.08,6.647-9.573.219-.458.11-1.023-.3-1.363-.486-.404-1.21-.34-1.617.142l-.007.008c-2.405,2.853-4.809,5.608-7.455,8.1-.125.12-.258.23-.384.348-2.522,2.363-5.274,4.457-8.223,6.219-1.546.927-3.136,1.787-4.786,2.519Zm-15.029,4.128c-.011-.008.134.121.2.256.007.012.009.026.015.038-.053-.111-.128-.209-.215-.294Z" style="fill:#fff; opacity:.2;"/><path d="m216.074,158.741c-1.414.553-2.883.989-4.395,1.268-3.009.611-6.161.755-9.314.516-2.499-.186-5.038-.547-7.55-.985-.648-.113-1.296-.228-1.939-.35l-.065-.013c-.416-.078-.856.105-1.082.489-.287.488-.122,1.115.369,1.4,1.037.602,2.089,1.072,3.165,1.479.535.202,1.075.394,1.625.569,1.65.517,3.349.885,5.074,1.123,1.726.229,3.475.352,5.238.346,1.761-.041,3.535-.199,5.287-.542,3.502-.672,6.913-2.108,9.821-4.213,1.449-1.055,2.782-2.267,3.894-3.643.425-.493.807-1.015,1.171-1.548.625-.915,1.177-1.873,1.66-2.852.219-.443.128-.995-.258-1.344-.469-.423-1.194-.39-1.621.076l-.032.035c-.629.686-1.268,1.346-1.914,1.988-1.585,1.574-3.24,2.999-5.08,4.144-1.271.834-2.64,1.508-4.056,2.058Z" style="fill:#fff; opacity:.2;"/><path d="m104.822,155.492c1.351,1.372,2.809,2.629,4.383,3.715.786.545,1.602,1.043,2.454,1.487.43.217.865.425,1.323.609.23.091.464.177.718.257.128.038.257.074.416.109.07.017.172.036.277.051.087.009.123.016.251.018.088-.001.177-.012.263-.031,0,0,.191-.047.32-.139.138-.09.253-.219.326-.343.275-.475.131-1.101-.322-1.397-.208-.136-.444-.169-.666-.129.034-.005.067-.015.101-.014.073,0,.054-.007.085-.005-.004-.013-.011-.019-.046-.042l-.211-.14c-.158-.102-.328-.22-.496-.344-.338-.246-.681-.508-1.015-.784-.676-.541-1.333-1.121-1.979-1.712-1.285-1.193-2.521-2.447-3.685-3.771-1.171-1.316-2.254-2.719-3.246-4.186-1.015-1.451-1.92-2.982-2.759-4.55-.672-1.251-1.275-2.543-1.838-3.855-.849-1.975-1.589-4.005-2.184-6.092-1.019-3.468-1.717-7.044-2.37-10.706l-.002-.01c-.111-.62-.674-1.033-1.26-.923-.493.092-.844.528-.875,1.033-.242,3.854.13,7.777,1.028,11.583.556,2.343,1.312,4.641,2.226,6.873.57,1.393,1.188,2.766,1.897,4.091,1.854,3.443,4.186,6.6,6.884,9.348Zm9.382,4.341c.116-.084.295-.124.282-.122-.111.03-.217.078-.312.148.011-.008.019-.019.03-.026Z" style="fill:#fff; opacity:.2;"/><path d="m116.574,145.245c1.277,1.164,2.658,2.177,4.083,3.084,1.442.877,2.933,1.636,4.453,2.291,1.524.647,3.086,1.168,4.676,1.536,1.27.289,2.531.496,3.84.565.34.018.682.033,1.031.03.535-.004.959-.466.949-1.03-.008-.445-.283-.821-.661-.959l-.059-.021c-.227-.083-.455-.171-.682-.255-2.62-.969-5.241-2.037-7.711-3.28-2.694-1.353-5.211-3.035-7.395-5.053-1.11-.989-2.113-2.093-3.017-3.272-.221-.287-.436-.58-.645-.877-.647-.921-1.232-1.89-1.728-2.912-1.38-2.677-2.215-5.645-2.901-8.773l-.01-.046c-.135-.614-.714-1.002-1.293-.867-.478.111-.806.545-.832,1.037-.088,1.72-.039,3.481.289,5.213.276,1.742.809,3.452,1.509,5.082.216.499.454.987.703,1.469,1.377,2.672,3.233,5.078,5.401,7.038Z" style="fill:#fff; opacity:.2;"/><path d="m148.585,87.842c5.873-2.09,9.789-7.44,9.064-8.817,0,0-1.095-2.411-3.076-4.731.3,1.224.301,2.539-.068,3.838-1.136,3.996-5.296,6.315-9.292,5.18-3.996-1.135-6.315-5.296-5.18-9.292.515-1.811,1.654-3.272,3.114-4.229-3.393.298-6.388,1.781-8.025,4.628-2.53,4.4-3.137,8.227-1.476,9.979,1.662,1.752,9.065,5.535,14.938,3.445Z" style="fill:#fff;"/><path d="m140.033,74.02c-1.135,3.996,1.184,8.156,5.18,9.292,3.996,1.136,8.156-1.184,9.292-5.18.369-1.299.368-2.614.068-3.838-1.445-1.692-3.223-3.716-5.534-4.339-.266-.072-.536-.128-.808-.174-.414.504-.983,1.201-1.019,1.427-.022.144-.019.289-.005.435.004.041.017.083.023.124.405-.022.817.005,1.229.122,1.992.566,3.149,2.641,2.583,4.633-.566,1.993-2.641,3.149-4.633,2.583-1.993-.566-3.149-2.641-2.583-4.633.224-.789.691-1.44,1.29-1.911-.46.034-1.073.239-1.425.384-.142.058-.769.402-1.026.228-.024-.016-.049-.03-.065-.055-.25-.382.226-.737.389-.892.349-.329.544-.573.706-.897.086-.171.163-.363.248-.604.044-.126-.007-.539-.091-.995-.238.02-.473.041-.705.061-1.46.957-2.599,2.418-3.114,4.229Z" style="fill:#fff; opacity:.4;"/><path d="m176.554,64.276c3.996,1.135,6.315,5.296,5.18,9.292-1.135,3.996-5.296,6.315-9.292,5.18-2.504-.711-4.348-2.61-5.098-4.912-1.253,2.553-1.612,4.952-.072,6.22,4.148,3.417,11.089,2.352,11.089,2.352,6.837-1.722,8.009-8.762,7.316-12.798-.693-4.036-2.817-4.115-9.122-5.333Z" style="fill:#fff;"/><path d="m147.543,73.985c-.063.035-.128.036-.189.017-.183-.056-.342-.287-.39-.339-.368-.403-1.275-1.091-1.646-1.116-.06-.004-.135.008-.203.013-.599.472-1.065,1.122-1.29,1.911-.566,1.993.59,4.067,2.583,4.633,1.993.566,4.067-.59,4.633-2.583.566-1.993-.59-4.067-2.583-4.633-.412-.117-.824-.144-1.229-.122.082.561.346,1.128.471,1.656.027.113.099.42-.157.561Z" style="fill:#fff; opacity:.1;"/><path d="m172.442,78.747c3.996,1.136,8.156-1.184,9.292-5.18,1.136-3.996-1.184-8.156-5.18-9.292-.429.083-.954.232-1.53.453.028.045.045.096.077.14.433.593,1.254.811,1.911,1.01.095.029.256.086.333.149.295.242.073.55-.177.611-.098.024-.263.056-.459.094-.643.123-1.638.307-1.821.468-.109.096-.199.21-.282.331-.053.077-.095.163-.14.247.35-.003.704.025,1.057.126,1.993.566,3.149,2.641,2.583,4.633-.566,1.993-2.641,3.149-4.633,2.583-1.993-.566-3.149-2.641-2.583-4.633.318-1.12,1.12-1.96,2.108-2.394-.105-.462-.261-.922-.422-1.076-.173-.164-.457-.32-.75-.45-1.886,1.492-3.69,3.802-4.483,7.269.75,2.302,2.595,4.201,5.098,4.912Z" style="fill:#fff; opacity:.4;"/><path d="m173.365,69.545c-.071-.014-.121-.054-.156-.108-.105-.16-.079-.44-.082-.51-.01-.218-.058-.527-.128-.835-.989.434-1.79,1.274-2.108,2.394-.566,1.993.59,4.067,2.583,4.633,1.993.566,4.067-.59,4.633-2.583.566-1.993-.59-4.067-2.583-4.633-.354-.101-.708-.129-1.057-.126-.247.458-.401.996-.621,1.437-.052.104-.193.386-.48.331Z" style="fill:#fff; opacity:.1;"/><path d="m172.999,68.092c.07.308.118.617.128.835.003.07-.023.35.082.51.035.054.085.094.156.108.287.056.428-.227.48-.331.22-.441.374-.979.621-1.437.045-.084.087-.17.14-.247.083-.121.173-.234.282-.331.183-.161,1.178-.345,1.821-.468.197-.038.362-.07.459-.094.25-.061.471-.369.177-.611-.076-.063-.238-.12-.333-.149-.657-.199-1.479-.416-1.911-1.01-.032-.044-.049-.095-.077-.14-.389-.623-.467-1.394-.533-2.11-.043-.471-.439-.486-.587-.037-.033.099-.105.266-.199.463-.299.628-.822,1.574-1.02,1.691-.22.131-.402.229-.577.305-.332.145-.638.208-1.117.237-.225.014-.818-.018-.87.436-.003.03.007.057.015.084.086.299.788.436.934.482.202.064.483.165.756.287.292.131.577.286.75.45.162.154.317.615.422,1.076Z" style="fill:#fff;"/><path d="m143.942,70.725c-.085.241-.163.433-.248.604-.163.324-.357.568-.706.897-.164.154-.64.51-.389.892.017.025.042.039.065.055.257.175.884-.169,1.026-.228.353-.145.966-.35,1.425-.384.068-.005.143-.017.203-.013.372.024,1.278.713,1.646,1.116.048.052.207.284.39.339.061.019.126.018.189-.017.256-.141.184-.448.157-.561-.125-.528-.389-1.095-.471-1.656-.006-.041-.019-.083-.023-.124-.014-.146-.017-.291.005-.435.035-.227.605-.923,1.019-1.427.027-.033.055-.068.081-.099.127-.155.233-.285.293-.366.153-.207.126-.585-.255-.583-.099,0-.26.06-.351.099-.632.268-1.403.627-2.115.448-.773-.194-1.363-.793-1.909-1.338-.335-.334-.648-.092-.475.347.038.097.089.272.143.483.072.282.149.63.209.957.084.455.135.869.091.995Z" style="fill:#fff;"/></svg>