<svg id="illustrations" xmlns="http://www.w3.org/2000/svg" viewBox="0 0 300 300"><path d="M141.78,281l.2.33Z" style="fill:#fff"/><path d="M140.24,278.46l.17.28Z" style="fill:#fff"/><path d="M143.33,283.6c.23.39.47.78.69,1.16C143.8,284.38,143.56,284,143.33,283.6Z" style="fill:#fff"/><path d="M145.4,287.09c.26.43.5.85.73,1.25l-.89-1.54a1.855,1.855,0,0,0,.14.24Z" style="fill:#fff"/><path d="M144.93,286.28l-.88-1.47.74,1.24Z" style="fill:#fff"/><path d="M75,194.84a20.956,20.956,0,0,1-1.85-2.11h0a26.457,26.457,0,0,1-1.61-2.36h0a24.673,24.673,0,0,1-1.4-2.58h0c-.43-.89-.83-1.81-1.2-2.74h0c-.37-.93-.7-1.88-1-2.85h0c-.31-1-.59-1.94-.84-2.92v-.05c-.25-1-.48-1.95-.68-2.93,0-.023,0-.047,0-.07-.2-1-.38-1.94-.54-2.9v-.06q-.24-1.44-.42-2.82v-.09c-.06-.45-.12-.9-.17-1.34h0c0-.46-.1-.9-.14-1.34v-.09c0-.41-.08-.81-.11-1.21v-.08c0-.42-.07-.83-.1-1.23v-.08c0-.37-.06-.74-.08-1.09a.565.565,0,0,0,0-.13,6.642,6.642,0,0,0-.06-1.1V161.6a.655.655,0,0,1,0-.14V157.1c-6.33,1.27-12.77,2.34-19.28,3.13,1.18-3.28,2.28-6.25,3-8,1.2-2.87,14.59-30.93,31-45.64,2.69.34,5.48.73,8.35-.12s9.36-8.54,9.8-14C98,86,83.75,84.14,86.69,82.11,90,79.83,106.41,71,105.8,67.89c-1.07-5.54-20.19,3.91-27.71,8.21C68.58,81.55,69,87.84,64,93.83,55,104.7,20.7,126.24,3.08,156-2.51,165.43,4,184.1,7,188.65H7c3.83,6.31,14.63,11.12,33.18,11h0c12.25.31,24.7-1.15,37-3h0a17.314,17.314,0,0,1-2.1-1.8Z" style="fill:#fff;opacity:0.800000011920929;isolation:isolate"/><path d="M163.42,80a.7.7,0,0,0-.4.08c-.64.31-1.22,1.48-1.39,3a.965.965,0,0,0,0,.17c-.15,1.69.3,3.11,1.06,3.19a.7.7,0,0,0,.39-.08c.64-.31,1.22-1.48,1.39-3a.965.965,0,0,0,0-.17C164.63,81.49,164.17,80.07,163.42,80Z" style="fill:#fff;opacity:0.15000000596046448;isolation:isolate"/><path d="M121.11,81.32a1.892,1.892,0,0,0,.58-.72c1.12-3.71,4.11-21.73,8.84-23.87a13,13,0,0,1,6.55-1.08h2a8.216,8.216,0,0,1,1.09.11l.56.11c.35.06.69.12,1,.2l.59.15,1,.28.59.2,1,.34.57.22,1,.42.53.23c.37.15.73.31,1.1.48l.48.22,1.13.54.39.2,1.2.61.26.14c2.43,1.28,4.74,2.61,6.75,3.7h0c.34.19.67.36,1,.52l.28.15.8.39.49.24a7.4,7.4,0,0,0,1.23.42,9.4,9.4,0,0,0,2.19.27,13.694,13.694,0,0,0,2.35-.16h.25a15.687,15.687,0,0,0,1.59-.36,15.339,15.339,0,0,0,1.76-.59,16.512,16.512,0,0,0,3.4-1.83A2.13,2.13,0,0,1,177,64c.52,1.5,1.34,3.78,2.2,6.64h0c.13.44.27.9.4,1.37a.6.6,0,0,0,0,.12c.12.45.25.91.37,1.39l.06.2c.12.46.24.94.36,1.43l.06.23.33,1.45a.491.491,0,0,0,.07.31c.11.48.21,1,.31,1.46a.682.682,0,0,0,.07.37c.1.48.18,1,.27,1.46a3.54,3.54,0,0,0,.08.45c.08.47.16,1,.23,1.45a5.058,5.058,0,0,0,.08.52c.07.47.13,1,.19,1.44a5.928,5.928,0,0,0,.07.59c.06.47.1,1,.15,1.44l.06.64c0,.47.07,1,.1,1.42v.57h0v.45l-.11.56c1.31-4.08,5.95-19.1,5.62-26.48-.35-8.11-4.18-10.69-6.82-11.49a4,4,0,0,1-2.8-3.16A23.849,23.849,0,0,0,176,41.48c-6.57-11-21.32-19.45-33.44-13.12C135.69,32,135.16,41.53,129,46.18A14.117,14.117,0,0,1,122.45,48c-8.48.27-13.32,10.3-7.17,19.54,1.69,2.54,2.17,11.81,3,18.27C118.62,83.46,119.64,81.7,121.11,81.32Z" style="fill:#fff;opacity:0.30000001192092896;isolation:isolate"/><path d="M146.55,81.21a3.56,3.56,0,0,0-.09.48,5.545,5.545,0,0,0-.05.56,5.545,5.545,0,0,1,.05-.56A3.56,3.56,0,0,1,146.55,81.21Z" style="fill:#fff"/><path d="M146.67,80.75A2.428,2.428,0,0,1,148,79.11,2.428,2.428,0,0,0,146.67,80.75Z" style="fill:#fff"/><path d="M149.2,80.4a3.549,3.549,0,0,0-.17-.52,1.848,1.848,0,0,0-.19-.37l-.08-.12a.792.792,0,0,0-.24-.21.588.588,0,0,0-.28-.1.708.708,0,0,0-.29,0c-.68.23-1.31,1.46-1.49,3a6.8,6.8,0,0,0,0,1.26,3.873,3.873,0,0,0,.35,1.47,1,1,0,0,0,.72.64.758.758,0,0,0,.3,0,1.388,1.388,0,0,0,.28-.16A3.91,3.91,0,0,0,149.2,83a4.345,4.345,0,0,0,.09-.53A5.9,5.9,0,0,0,149.2,80.4Z" style="fill:#fff;opacity:0.15000000596046448;isolation:isolate"/><path d="M171.83,77.86a.59.59,0,0,1-.57.19,53.6,53.6,0,0,1-5.19-1.76l-2.55-1A16.231,16.231,0,0,1,161,74.23a.52.52,0,0,1-.2-.707l0,0a.532.532,0,0,1,.43-.26,9.928,9.928,0,0,1,2.83.31,27.657,27.657,0,0,1,2.73.81,16.643,16.643,0,0,1,5,2.67.57.57,0,0,1,.045.805Z" style="fill:#fff;opacity:0.15000000596046448;isolation:isolate"/><path d="M139.41,75.2a51.636,51.636,0,0,0,5.37-1.09l2.66-.61a15.655,15.655,0,0,0,2.66-.77.579.579,0,0,0,.32-.39.521.521,0,0,0-.413-.609H150a10.149,10.149,0,0,0-2.86,0c-.94.11-1.88.25-2.8.45a16.721,16.721,0,0,0-5.31,2,.56.56,0,0,0-.25.54A.569.569,0,0,0,139.41,75.2Z" style="fill:#fff;opacity:0.15000000596046448;isolation:isolate"/><path d="M152,111.36h-.18q-1.26,0-2.52-.12h-.21a5.13,5.13,0,0,1-1-.14c-.3-.06-.75-.13-1.12-.21h-.13A22.906,22.906,0,0,1,144,110a21.345,21.345,0,0,1-2.14-.93,20.752,20.752,0,0,1-2.09-1.22c-.21-.14-.42-.26-.62-.41h0a.61.61,0,0,1-.147-.85l.007-.01a.621.621,0,0,1,.56-.25.45.45,0,0,1,.2,0h0a31.7,31.7,0,0,0,6.71,2.3l.74.17c.37.07.74.12,1.12.17l.95.1h.16c.74.06,1.49.09,2.23.08h.17a.472.472,0,0,0,0-.13v-1.48h0a25.938,25.938,0,0,1,.66-6.19,1.414,1.414,0,0,1,.11-.45,3.912,3.912,0,0,1,1.15-2.07c1.11-.89,2.83-.56,4-1.38s1.37-2.52,1.27-4c-.22-3.34-1-6.61-1.51-9.91-.1-.6-.17-1.18-.23-1.74-.87-7.74,1.17-13,3.66-16.75l-.31-.16-.8-.39-.28-.15c-.32-.16-.65-.33-1-.52h0c-2-1.09-4.31-2.42-6.75-3.7l-.26-.14-1.2-.61-.39-.2-1.13-.54-.48-.22c-.37-.17-.73-.33-1.1-.48l-.53-.23-1-.42-.57-.22-1-.34-.59-.2-1-.28-.59-.15c-.35-.08-.69-.14-1-.2l-.56-.11c-.37,0-.73-.08-1.09-.11h-2a13,13,0,0,0-6.55,1.08c-4.73,2.14-7.72,20.16-8.84,23.87a1.892,1.892,0,0,1-.58.72c-1.47.38-2.49,2.14-2.86,4.52v-.19a14.994,14.994,0,0,0,.16,5,8.138,8.138,0,0,0,3.33,4.83,4.4,4.4,0,0,1,1.17,1.27c.75,6.87,3.32,12.19,6.06,16.91a78.342,78.342,0,0,1,3.69,7,30.433,30.433,0,0,0-2.54-5.18c13.19,10.92,25.58,8.68,25.58,8.68s-2.12-4.93-2.83-7.51A31.049,31.049,0,0,1,152,111.36Zm-2.67-28.91a4.441,4.441,0,0,1-1.21,2.85,1.388,1.388,0,0,1-.28.16.757.757,0,0,1-.3,0,1,1,0,0,1-.72-.64,3.873,3.873,0,0,1-.35-1.47,6.8,6.8,0,0,1,0-1.26c.18-1.55.81-2.78,1.49-3a.708.708,0,0,1,.29,0,.781.781,0,0,1,.52.31l.08.12a1.848,1.848,0,0,1,.19.37,5.482,5.482,0,0,1,.25,2.56ZM139,74.15a16.721,16.721,0,0,1,5.31-2c.92-.2,1.86-.34,2.8-.45a10.149,10.149,0,0,1,2.86,0,.52.52,0,0,1,.421.6v.007a.579.579,0,0,1-.32.39,15.655,15.655,0,0,1-2.66.77l-2.66.61a51.636,51.636,0,0,1-5.37,1.09.569.569,0,0,1-.629-.5V74.66A.56.56,0,0,1,139,74.15Z" style="fill:#fff"/><path d="M296.59,143.68c-19-20.72-53.41-31.51-62.89-38.56-5.23-3.89-5.26-9.09-14.76-11.65-7.52-2-26.54-6-27.17-1.26-.36,2.67,16,6.61,19.35,7.81,3,1.08-10.58,5.35-9.63,10.5.81,4.37,7.44,9.33,10.4,9.47a23.238,23.238,0,0,0,8-1.53c14.2,7.37,27,22.89,31.45,28.81-2.91.44-6.59,1-10.37,1.61a28.793,28.793,0,0,1,.06,5h0c0,.33-.05.67-.08,1v.1l-.09,1v.13a8.049,8.049,0,0,1-.11,1v.1c-.19,1.55-.45,3.21-.78,4.94v.15c-.07.37-.15.74-.23,1.11v.26l-.24,1-.06.28c-.09.35-.17.7-.26,1.06l-.06.25c-.1.39-.21.78-.31,1.17v.14c-.38,1.34-.79,2.69-1.26,4l-.06.17L237,173a2.731,2.731,0,0,0-.1.26c-.13.35-.27.69-.41,1l-.12.28c-.14.35-.28.69-.43,1l-.11.26c-.17.37-.33.73-.51,1.09a.785.785,0,0,1-.07.16,37.166,37.166,0,0,1-2,3.66l-.07.11c-.21.34-.43.67-.65,1l-.14.21c-.2.3-.4.59-.61.88-.06.07-.11.15-.17.23-.21.27-.42.55-.64.82l-.17.21c-.23.28-.46.55-.7.82l-.13.15c-.28.32-.57.62-.87.92,11.05-1.39,27.95-4.41,33.53-6h0a36.167,36.167,0,0,0,4.1-1.24c5.59-1.43,11.59-3.62,15.46-4.35a20.589,20.589,0,0,0,14.34-9.83C299,160.43,302.62,150.25,296.59,143.68Z" style="fill:#fff;opacity:0.800000011920929;isolation:isolate"/><path d="M147.61,291.07l-.12-.23c-.36-.69-.77-1.44-1.22-2.25a1.973,1.973,0,0,1-.14-.25c-.23-.4-.47-.82-.73-1.25h0a1.855,1.855,0,0,1-.14-.24c-.11-.17-.21-.34-.31-.52l-.14-.23-.74-1.24v-.05c-.22-.38-.46-.77-.69-1.16-.44-.72-.89-1.47-1.35-2.24l-.2-.33c-.45-.74-.9-1.5-1.37-2.29l-.17-.28L138.81,276l-.17-.29c-.49-.84-1-1.7-1.49-2.58a2.5,2.5,0,0,0-.16-.28c-.51-.9-1-1.81-1.54-2.75l-.15-.29c-.52-.94-1.05-1.91-1.57-2.9l-.15-.28c-.53-1-1.06-2-1.59-3.07,0-.08-.08-.17-.13-.25q-.8-1.59-1.59-3.24l-.11-.24c-.54-1.11-1.06-2.24-1.58-3.4l-.1-.21c-.52-1.17-1-2.36-1.55-3.56a.455.455,0,0,0-.08-.19c-.51-1.22-1-2.46-1.5-3.73l-.06-.15c-.49-1.28-1-2.57-1.44-3.89v-.12q-.7-2-1.35-4.05v-.09c-.44-1.38-.85-2.78-1.25-4.2v-.05c-.4-1.44-.77-2.89-1.12-4.36h0c-.37-1.57-.71-3.15-1-4.76h0c-.13-.69-.25-1.38-.37-2.07a1,1,0,0,1,0-.19,3.234,3.234,0,0,0-.1-.61c-.21-1.3-.41-2.62-.58-3.94h0a7.284,7.284,0,0,0-.1-.8c-.03-.26-.07-.64-.11-1v-.27c0-.34-.07-.68-.1-1v-.37a2.44,2.44,0,0,0-.05-.57,6.481,6.481,0,0,1-.08-.87c-.02-.29,0-.47,0-.7,0-.49-.07-1-.1-1.47h0v-.66l-.06-1.24v-.5h0v-5.14h0c0-.71,0-1.43.06-2.15v-.1h0c0-1.1.11-2.2.2-3.31v-.72q.281-3.37.82-6.83l.12-.77c.19-1.15.39-2.31.63-3.47h0a2.08,2.08,0,0,1,.11-.48h0q.3-1.451.66-2.94c.06-.24.11-.48.17-.73l.06-.21c.28-1.13.58-2.26.91-3.4h0l.07-.21v-.12c.31-1.05.64-2.1,1-3.16.06-.17.11-.35.17-.53s.1-.29.15-.44c.39-1.14.79-2.29,1.23-3.44h0l-.35.46-.18.25-.43.58c-.45.62-1,1.45-1.76,2.48-.51.91-1.06,1.82-1.62,2.73-.43.68-.87,1.37-1.32,2.06l-.88,1.29c-.79,1.16-1.6,2.32-2.43,3.47h0c-.27.44-.56.86-.85,1.27-.12.18-.25.35-.38.52l-.49.62a17.855,17.855,0,0,1-1.29,1.44c-.45.44-.77.75-1.17,1.11h0c-.44.39-.9.76-1.38,1.12h0c-.47.35-1,.68-1.47,1h-.08c-.5.31-1,.61-1.55.89l-.11.06c-.53.29-1.09.56-1.67.82l-.1.05c-.61.27-1.24.53-1.88.78h0c1.76,8.07,1.55,38.83,3.63,49.59.07.34.13.67.2,1,4.31,22.21,21.6,41.72,42.19,45.86A2.863,2.863,0,0,1,147.61,291.07Z" style="fill:#fff;opacity:0.5;isolation:isolate"/><path d="M241,148.88a4.6,4.6,0,0,0-.46-1.74s-5.46,0-22.43-3.48c-11.25-2.27-17.89-6.9-27.77-6.67-7.53.18-15.44,3.84-22.5,2.48a4.869,4.869,0,0,1-1.34-.5,1.365,1.365,0,0,0-.36-.19,65.728,65.728,0,0,1-19.9-5.59c-3.84-1.71-10-7-12.15-9.58a20.16,20.16,0,0,1-1-2,23.711,23.711,0,0,1,2.09,12.23c-.63,5.49-4.13,9.15-11.81,11l-25.54,4.34c-1.67.33-33.23,6.1-33.23,6.1v6.02a.655.655,0,0,0,0,.14v1.07a6.887,6.887,0,0,0,.06,1.1.565.565,0,0,1,0,.13,5.1,5.1,0,0,0,.08,1.09v.08c0,.4.06.81.1,1.23v.08c0,.4.07.8.11,1.21v.09a12.7,12.7,0,0,0,.14,1.34h0c.05.44.11.89.17,1.34v.09q.18,1.38.42,2.82v.06c.16,1,.34,1.93.54,2.9,0,.023,0,.047,0,.07.2,1,.43,2,.68,2.93v.05c.25,1,.53,2,.84,2.92h0c.31,1,.64,1.92,1,2.85h0c.37.93.77,1.85,1.2,2.74h0c.43.89.9,1.75,1.4,2.58h0a26.457,26.457,0,0,0,1.61,2.36h0A20.808,20.808,0,0,0,75,194.84h0a17.314,17.314,0,0,0,2.1,1.8,16.182,16.182,0,0,0,7.83,3c6.94-1.14,12.55-2.36,17.11-4.12.64-.25,1.27-.51,1.88-.78l.1-.05c.58-.26,1.14-.53,1.67-.82l.11-.06c.54-.28,1-.58,1.55-.89h.08c.51-.32,1-.65,1.47-1h0c.48-.36.94-.73,1.38-1.12h0q.68-.589,1.29-1.23h0a21.839,21.839,0,0,0,2.28-2.83c.07-.09.13-.2.2-.3s.27-.38.39-.58c.57-.79,1.13-1.58,1.69-2.38a84.115,84.115,0,0,0,4.56-7.17l.6-.86c.32-.46.61-.86.87-1.22l.36-.49c.57-.78.9-1.21.9-1.21h0c-.45,1.18-.86,2.36-1.26,3.53-.08.26-.17.51-.25.76-.2.6-.37,1.19-.56,1.79s-.35,1.11-.51,1.66c-.27.92-.51,1.84-.75,2.76-.08.32-.17.63-.25.94l-.06.24c-.22.9-.42,1.8-.61,2.7-.1.45-.21.89-.3,1.33h0c-.24,1.16-.44,2.32-.63,3.47l-.12.77q-.54,3.45-.82,6.83v.72c-.09,1.11-.15,2.21-.2,3.31,0,.78,0,1.55-.07,2.32v5.14a12.67,12.67,0,0,0,.08,1.74v.66c0,.72.09,1.45.15,2.17a1.335,1.335,0,0,1,0,.2,2.186,2.186,0,0,0,.07.67,7.7,7.7,0,0,1,.09.94l.06.75v.28a10.456,10.456,0,0,0,.14,1.24c.05.41.06.54.1.8h0a.506.506,0,0,0,0,.11q.139,1.08.3,2.16a6.527,6.527,0,0,0,.13.87c.04.29.09.53.13.8s.09.54.14.8v.27l.33,1.8h0a2.432,2.432,0,0,0,0,.27c.3,1.51.62,3,1,4.49h0c.35,1.47.72,2.92,1.12,4.36v.05c.4,1.42.81,2.82,1.25,4.2v.09q.649,2.059,1.35,4.05c.7,1.99,0,.08,0,.12.47,1.32,1,2.61,1.44,3.89l.06.15c.49,1.27,1,2.51,1.5,3.73,0,.06.05.12.08.19.51,1.2,1,2.39,1.55,3.56l.1.21c.52,1.16,1,2.29,1.58,3.4l.11.24q.791,1.65,1.59,3.24c0,.08.09.17.13.25.53,1.05,1.06,2.07,1.59,3.07l.15.28c.52,1,1.05,2,1.57,2.9l.15.29c.52.94,1,1.85,1.54,2.75a2.5,2.5,0,0,1,.16.28c.5.88,1,1.74,1.49,2.58l.17.29,1.43,2.43.17.28c.47.79.92,1.55,1.37,2.29l.2.33,1.28,2.13.07.11c.23.4.47.78.69,1.16v.05l.88,1.47v.08c.08.15.17.3.26.44l.89,1.54a1.973,1.973,0,0,0,.14.25c.45.81.86,1.56,1.22,2.25l.12.23c.17.34.34.67.48,1a53.514,53.514,0,0,0,26.12-1.25c16.52-5,30.75-10.67,34.64-14.87C214.3,270,206,214.88,201,185.18c12.74,9,21.82,7.19,28.08,1h0c.3-.3.59-.6.87-.92l.13-.15c.24-.27.47-.54.7-.82l.17-.21c.22-.27.43-.55.64-.82.06-.08.11-.16.17-.23.21-.29.41-.58.61-.88l.14-.21c.22-.33.44-.66.65-1l.07-.11q1.07-1.751,2-3.66a.785.785,0,0,0,.07-.16c.18-.36.34-.72.51-1.09l.11-.26c.15-.33.29-.68.43-1l.12-.28c.14-.35.28-.69.41-1a2.731,2.731,0,0,1,.1-.26l.41-1.13.06-.17c.47-1.34.88-2.69,1.26-4v-.14c.1-.39.21-.78.31-1.17l.06-.25c.09-.36.17-.71.26-1.06l.06-.28.24-1v-.26c.08-.37.16-.74.23-1.11v-.15c.33-1.73.59-3.39.78-4.94a.418.418,0,0,1,0-.1,9.865,9.865,0,0,1,.11-1v-.13l.09-1v-.1c0-.34.06-.68.08-1h0A28.774,28.774,0,0,0,241,148.88Z" style="fill:#fff"/><path d="M140.41,278.74c.47.79.92,1.55,1.37,2.29C141.33,280.29,140.88,279.53,140.41,278.74Z" style="fill:#fff"/><path d="M145,286.36v-.08c.1.18.2.35.31.52A1.115,1.115,0,0,1,145,286.36Z" style="fill:#fff"/><path d="M138.81,276l1.43,2.43Z" style="fill:#fff"/><path d="M143.26,283.49,142,281.36c.46.77.91,1.52,1.35,2.24Z" style="fill:#fff"/><path d="M168.33,100.62a.57.57,0,0,0-.78.11h0a21.414,21.414,0,0,1-5.58,5.37,18.327,18.327,0,0,1-7.09,2.78,24.752,24.752,0,0,1-3.24.27,23.068,23.068,0,0,1-4.46-.36,30.973,30.973,0,0,1-7.45-2.47h0a.62.62,0,0,0-.62,1.06,21.247,21.247,0,0,0,7.66,3.44,22.357,22.357,0,0,0,5,.53H152a21.193,21.193,0,0,0,3.29-.26,19.808,19.808,0,0,0,4.14-1.2,20.542,20.542,0,0,0,3.74-2.11,16.153,16.153,0,0,0,5.38-6.5A.559.559,0,0,0,168.33,100.62Z" style="fill:#fff;opacity:0.15000000596046448;isolation:isolate"/><path d="M130.1,115.42a30.433,30.433,0,0,1,2.54,5.18l.45,1a20.16,20.16,0,0,0,1,2h0c2.19,2.54,8.31,7.87,12.15,9.58a65.728,65.728,0,0,0,19.9,5.59.774.774,0,0,1,.27.14v-.13h0c-1.14-3.61-3.07-15.33-.38-17.62,5.87-5,10.8-10.68,13.59-19C180.43,99.82,182,92,182.55,89v-.59c0-.47-.06-1-.1-1.42l-.06-.64a10.78,10.78,0,0,0-.15-1.44,1.706,1.706,0,0,0-.07-.59c-.06-.48-.12-1-.19-1.44a2.966,2.966,0,0,0-.08-.52c-.07-.49-.15-1-.23-1.45a.9.9,0,0,0-.08-.45c-.09-.49-.17-1-.27-1.46a2.658,2.658,0,0,0-.07-.37c-.1-.49-.2-1-.31-1.46a1.946,1.946,0,0,0-.07-.31l-.33-1.45-.06-.23c-.12-.49-.24-1-.36-1.43l-.06-.2c-.12-.48-.25-.94-.37-1.39a.6.6,0,0,1,0-.12c-.13-.47-.27-.93-.4-1.37h0c-.64-2.15-1.27-4-1.76-5.37L177,64a2.13,2.13,0,0,0-2.694-1.347,2.1,2.1,0,0,0-.476.227,16.512,16.512,0,0,1-3.4,1.83,15.339,15.339,0,0,1-1.76.59,15.687,15.687,0,0,1-1.59.36h-.25a13.694,13.694,0,0,1-2.35.16,9.4,9.4,0,0,1-2.19-.27,7.4,7.4,0,0,1-1.23-.42l-.49-.24.31.16a24.142,24.142,0,0,0-1.33,2.26A23.145,23.145,0,0,0,157,77.72c0,.86,0,1.75.07,2.68a11.87,11.87,0,0,0,.13,1.43c.06.49.13,1.14.23,1.74.53,3.3,1.29,6.57,1.51,9.91.1,1.45-.07,3.14-1.27,4s-2.89.49-4,1.38a3.912,3.912,0,0,0-1.15,2.07,1.966,1.966,0,0,1-.11.45,25.938,25.938,0,0,0-.66,6.19h0v1.48a.472.472,0,0,1,0,.13h.74a11.689,11.689,0,0,0,1.19-.09c.39-.04.76-.07,1.14-.14a19.061,19.061,0,0,0,9.94-5l.16-.15a24.408,24.408,0,0,0,2.57-3h0a.541.541,0,0,1,.55-.19.4.4,0,0,1,.21.09.56.56,0,0,1,.18.67,16.153,16.153,0,0,1-5.38,6.5,20.793,20.793,0,0,1-2.77,1.63c-.32.16-.64.34-1,.48a19.808,19.808,0,0,1-4.14,1.2h0c-.43.08-.9.13-1.38.17H152a32.554,32.554,0,0,0,.72,4.53c.06.25.11.49.17.7.71,2.58,2.83,7.51,2.83,7.51S143.29,126.34,130.1,115.42Zm34.37-32.24a.965.965,0,0,1,0,.17,4.081,4.081,0,0,1-1.39,3,.7.7,0,0,1-.39.08c-.76-.08-1.21-1.5-1.06-3.19a6.138,6.138,0,0,1,0-1.68,6.127,6.127,0,0,0,0,1.7v-.17c.12-1.47.66-2.67,1.28-3h.06a.7.7,0,0,1,.4-.08C164.17,80.07,164.63,81.49,164.47,83.18Zm1.6-6.89-2.55-1A16.231,16.231,0,0,1,161,74.23a.52.52,0,0,1-.2-.707l0,0a.532.532,0,0,1,.43-.26,9.928,9.928,0,0,1,2.83.31,27.657,27.657,0,0,1,2.73.81,16.643,16.643,0,0,1,5,2.67.57.57,0,0,1,.066.8l-.006.007a.59.59,0,0,1-.57.19A53.61,53.61,0,0,1,166.07,76.29Z" style="fill:#fff;opacity:0.800000011920929;isolation:isolate"/></svg>